<?xml version="1.0" standalone="no"?>
<!DOCTYPE svg PUBLIC "-//W3C//DTD SVG 20010904//EN"
 "http://www.w3.org/TR/2001/REC-SVG-20010904/DTD/svg10.dtd">
<svg version="1.0" xmlns="http://www.w3.org/2000/svg"
 width="340.000000pt" height="340.000000pt" viewBox="0 0 340.000000 340.000000"
 preserveAspectRatio="xMidYMid meet">
<metadata>
Created by potrace 1.15, written by Peter Selinger 2001-2017
</metadata>
<g transform="translate(0.000000,340.000000) scale(0.100000,-0.100000)"
fill="#000000" stroke="none">
<path d="M2465 1654 c-116 -22 -597 -91 -820 -118 -317 -39 -653 -65 -917 -73
-259 -7 -258 -6 -218 -63 11 -15 58 -46 106 -71 81 -41 92 -44 163 -43 42 1
184 20 316 42 252 43 473 73 690 93 132 13 700 18 920 9 143 -6 168 0 159 38
-17 75 -96 139 -218 178 -86 27 -84 27 -181 8z"/>
</g>
</svg>
