<?xml version="1.0" standalone="no"?>
<!DOCTYPE svg PUBLIC "-//W3C//DTD SVG 20010904//EN"
 "http://www.w3.org/TR/2001/REC-SVG-20010904/DTD/svg10.dtd">
<svg version="1.0" xmlns="http://www.w3.org/2000/svg"
 width="340.000000pt" height="340.000000pt" viewBox="0 0 340.000000 340.000000"
 preserveAspectRatio="xMidYMid meet">
<metadata>
Created by potrace 1.15, written by Peter Selinger 2001-2017
</metadata>
<g transform="translate(0.000000,340.000000) scale(0.100000,-0.100000)"
fill="#000000" stroke="none">
<path d="M2390 2620 c-357 -69 -816 -131 -1290 -175 -397 -36 -441 -42 -453
-54 -30 -30 62 -86 165 -100 50 -7 86 -4 178 14 196 39 500 86 528 83 39 -4
60 -56 72 -174 11 -113 13 -453 4 -594 l-7 -95 -225 -43 c-123 -23 -226 -41
-229 -39 -7 8 28 161 68 300 39 132 40 139 24 163 -51 79 -156 143 -210 130
-32 -8 -32 -24 1 -88 48 -94 43 -277 -11 -395 -13 -29 -44 -75 -70 -102 l-46
-49 15 -68 c34 -163 57 -174 176 -85 99 74 179 110 328 147 230 57 371 78 532
78 169 1 212 -9 236 -57 36 -69 26 -256 -22 -425 -40 -139 -99 -233 -167 -269
-43 -22 -124 -12 -219 26 -42 17 -88 31 -103 31 -33 0 -28 -9 60 -113 36 -44
92 -118 124 -166 84 -124 80 -122 157 -82 188 98 310 348 354 731 12 104 44
187 99 254 17 21 31 49 31 62 0 30 -66 84 -153 125 -95 44 -129 46 -239 15
-87 -24 -291 -56 -360 -56 l-31 0 7 53 c3 28 9 114 12 190 l7 137 71 0 c181 0
446 41 510 78 45 26 47 65 6 91 -65 39 -122 37 -276 -12 -144 -46 -291 -84
-298 -76 -2 2 3 40 11 84 8 44 15 112 16 152 l2 72 -48 49 -48 49 103 7 c57 4
274 11 483 16 381 8 450 15 462 46 9 23 -44 72 -116 106 -69 33 -145 43 -221
28z"/>
</g>
</svg>
