<?xml version="1.0" standalone="no"?>
<!DOCTYPE svg PUBLIC "-//W3C//DTD SVG 20010904//EN"
 "http://www.w3.org/TR/2001/REC-SVG-20010904/DTD/svg10.dtd">
<svg version="1.0" xmlns="http://www.w3.org/2000/svg"
 width="340.000000pt" height="340.000000pt" viewBox="0 0 340.000000 340.000000"
 preserveAspectRatio="xMidYMid meet">
<metadata>
Created by potrace 1.15, written by Peter Selinger 2001-2017
</metadata>
<g transform="translate(0.000000,340.000000) scale(0.100000,-0.100000)"
fill="#000000" stroke="none">
<path d="M1533 2893 c-28 -5 -28 -13 -2 -64 31 -61 49 -162 49 -274 -1 -91
-15 -243 -24 -252 -6 -7 -228 -32 -359 -42 -70 -5 -131 -12 -135 -16 -20 -19
107 -76 203 -91 22 -3 94 2 159 11 65 9 120 14 122 12 6 -5 -45 -303 -56 -333
-6 -15 -20 -25 -42 -28 -135 -23 -555 -63 -740 -72 -158 -7 -180 -13 -159 -38
22 -27 106 -75 166 -96 l59 -20 100 25 c90 22 409 81 539 100 26 4 47 3 47 -1
0 -5 -9 -47 -20 -93 -27 -110 -70 -197 -126 -252 -25 -24 -44 -52 -44 -65 0
-28 39 -85 72 -103 30 -17 43 -13 121 44 56 40 79 47 241 75 121 21 290 27
315 11 21 -13 6 -85 -33 -164 -40 -79 -124 -197 -199 -281 l-53 -60 -110 56
c-117 60 -282 132 -327 143 -17 5 -27 3 -27 -4 0 -6 87 -98 193 -204 106 -105
239 -244 294 -307 132 -152 137 -156 170 -144 41 14 66 56 66 108 -1 62 -49
147 -135 240 -38 42 -67 80 -63 85 3 6 47 45 98 88 51 42 137 120 193 173 59
55 135 115 183 143 86 52 94 64 67 115 -8 15 -29 41 -48 58 -46 44 -173 124
-196 124 -10 0 -63 -13 -118 -30 -88 -27 -311 -76 -433 -95 -39 -6 -42 -5 -37
11 3 11 24 89 47 174 23 85 47 160 53 167 34 35 778 67 1008 44 134 -14 168
-7 168 36 0 38 -82 115 -145 137 -27 9 -73 16 -103 16 -29 0 -228 -25 -440
-55 -213 -30 -407 -58 -430 -61 -39 -5 -43 -4 -38 13 2 10 17 86 32 168 15 83
31 156 37 163 5 6 23 12 39 12 76 0 511 77 571 101 31 13 35 39 10 61 -78 68
-199 71 -435 11 -87 -22 -158 -37 -158 -34 0 15 54 227 82 321 l31 104 -39 34
c-71 63 -194 107 -261 95z"/>
</g>
</svg>
