<?xml version="1.0" standalone="no"?>
<!DOCTYPE svg PUBLIC "-//W3C//DTD SVG 20010904//EN"
 "http://www.w3.org/TR/2001/REC-SVG-20010904/DTD/svg10.dtd">
<svg version="1.0" xmlns="http://www.w3.org/2000/svg"
 width="340.000000pt" height="340.000000pt" viewBox="0 0 340.000000 340.000000"
 preserveAspectRatio="xMidYMid meet">
<metadata>
Created by potrace 1.15, written by Peter Selinger 2001-2017
</metadata>
<g transform="translate(0.000000,340.000000) scale(0.100000,-0.100000)"
fill="#000000" stroke="none">
<path d="M2064 2585 c-5 -19 2 -39 25 -77 47 -74 61 -143 61 -288 0 -114 -20
-334 -38 -420 l-8 -35 -184 -22 c-102 -12 -198 -22 -214 -22 l-29 -1 6 208 c3
138 11 236 23 295 17 86 17 88 -2 115 -23 31 -106 75 -177 94 -41 10 -49 10
-63 -3 -14 -15 -13 -22 9 -75 42 -101 58 -203 78 -478 8 -118 8 -160 0 -166
-12 -7 -280 -48 -346 -52 l-40 -3 1 150 c0 96 5 164 13 189 12 34 11 41 -6 65
-10 14 -43 38 -73 53 -63 31 -184 63 -199 53 -19 -11 -12 -45 23 -108 18 -34
41 -84 50 -112 19 -62 46 -215 46 -265 l0 -37 -117 -16 c-65 -9 -203 -25 -308
-37 -234 -27 -235 -27 -235 -44 0 -19 66 -75 114 -97 52 -24 76 -24 183 2 48
11 149 33 225 48 l136 28 6 -66 c3 -36 11 -160 17 -276 16 -312 0 -444 -61
-498 -16 -15 -30 -35 -30 -45 0 -29 63 -125 92 -141 25 -14 31 -13 100 21 206
103 620 161 1160 162 290 1 308 2 308 19 0 56 -60 104 -165 132 -79 20 -153
19 -267 -4 -133 -28 -401 -66 -623 -90 -287 -31 -370 -39 -372 -37 -2 1 -5
169 -8 372 -3 203 -8 393 -11 422 -3 33 -2 52 5 52 13 0 313 38 362 46 l36 5
7 -108 c7 -119 -6 -244 -29 -280 -19 -28 -19 -66 0 -102 23 -45 68 -54 113
-22 62 43 219 73 470 87 67 4 125 11 129 16 3 6 -20 34 -52 63 l-57 54 26 182
c14 100 28 184 30 186 2 3 154 6 337 9 184 3 358 7 387 10 125 13 93 84 -70
152 -76 32 -151 33 -267 3 -98 -26 -295 -61 -338 -61 -33 0 -34 1 -28 33 3 17
16 109 31 202 30 205 57 324 86 381 37 76 13 108 -131 170 -95 42 -138 44
-147 9z m26 -944 c0 -32 -34 -239 -51 -313 -10 -43 -14 -49 -47 -57 -82 -22
-135 -31 -214 -37 l-83 -7 -2 197 c-1 143 2 196 10 197 7 0 89 11 182 23 94
13 178 24 188 25 12 1 17 -7 17 -28z"/>
</g>
</svg>
