<?xml version="1.0" standalone="no"?>
<!DOCTYPE svg PUBLIC "-//W3C//DTD SVG 20010904//EN"
 "http://www.w3.org/TR/2001/REC-SVG-20010904/DTD/svg10.dtd">
<svg version="1.0" xmlns="http://www.w3.org/2000/svg"
 width="340.000000pt" height="340.000000pt" viewBox="0 0 340.000000 340.000000"
 preserveAspectRatio="xMidYMid meet">
<metadata>
Created by potrace 1.15, written by Peter Selinger 2001-2017
</metadata>
<g transform="translate(0.000000,340.000000) scale(0.100000,-0.100000)"
fill="#000000" stroke="none">
<path d="M1955 2693 c-71 -86 -248 -174 -572 -283 -226 -77 -243 -84 -243
-107 0 -14 10 -15 73 -10 41 4 138 20 217 37 79 17 149 29 155 26 7 -2 15 -19
19 -38 11 -50 26 -362 18 -370 -6 -5 -311 -61 -459 -83 -54 -8 -55 -28 -4 -49
95 -37 237 -37 409 2 l42 10 0 -172 0 -172 -387 -57 c-214 -32 -470 -68 -569
-81 -100 -13 -187 -26 -193 -30 -34 -21 24 -75 122 -115 61 -25 68 -24 317 43
190 50 656 143 667 132 7 -7 -41 -145 -74 -211 -46 -92 -89 -150 -167 -222
-80 -76 -164 -126 -291 -178 -97 -39 -100 -42 -103 -74 -4 -39 44 -144 81
-179 l24 -23 59 22 c114 42 311 101 481 144 172 44 511 122 550 127 18 3 31
-17 86 -127 75 -150 119 -215 146 -215 30 0 78 46 92 87 17 51 6 173 -21 227
-24 51 -186 211 -280 278 -73 52 -199 123 -205 116 -5 -5 27 -59 115 -196 29
-45 50 -85 47 -88 -11 -11 -827 -137 -835 -129 -9 8 306 297 451 414 52 42 76
68 73 78 -3 8 -6 19 -6 25 0 5 -27 38 -61 73 l-60 63 28 6 c15 3 100 13 188
23 160 17 576 24 860 13 139 -6 185 6 185 47 0 29 -47 75 -106 103 -74 34
-159 42 -281 25 -59 -8 -189 -25 -288 -39 -236 -32 -485 -60 -488 -55 -5 7 18
327 24 334 8 8 162 49 300 80 125 28 185 55 202 92 10 22 8 28 -11 44 -55 44
-174 34 -364 -32 -61 -21 -114 -36 -117 -33 -3 3 3 60 12 127 10 67 17 134 17
149 0 29 -3 31 -95 83 l-49 28 54 19 c61 21 285 79 400 103 98 21 107 26 92
59 -32 70 -134 147 -213 160 -30 5 -37 1 -64 -31z"/>
</g>
</svg>
