<?xml version="1.0" standalone="no"?>
<!DOCTYPE svg PUBLIC "-//W3C//DTD SVG 20010904//EN"
 "http://www.w3.org/TR/2001/REC-SVG-20010904/DTD/svg10.dtd">
<svg version="1.0" xmlns="http://www.w3.org/2000/svg"
 width="340.000000pt" height="340.000000pt" viewBox="0 0 340.000000 340.000000"
 preserveAspectRatio="xMidYMid meet">
<metadata>
Created by potrace 1.15, written by Peter Selinger 2001-2017
</metadata>
<g transform="translate(0.000000,340.000000) scale(0.100000,-0.100000)"
fill="#000000" stroke="none">
<path d="M1326 2888 c-3 -13 -7 -63 -9 -113 -6 -105 -35 -193 -127 -380 -110
-226 -267 -439 -489 -667 l-124 -128 45 0 c118 0 311 168 580 506 l57 72 43
-15 c29 -11 77 -16 145 -15 96 0 102 -1 107 -21 18 -76 30 -337 30 -682 1
-416 -8 -528 -55 -714 -25 -99 -22 -156 12 -245 26 -67 79 -129 106 -124 50 9
73 205 73 612 l0 291 138 0 c144 1 611 40 650 56 32 12 27 42 -12 77 -49 43
-125 66 -190 58 -82 -11 -270 -52 -416 -90 -74 -20 -143 -36 -152 -36 -17 0
-18 16 -18 191 0 178 1 191 18 183 46 -20 160 -15 322 14 91 17 201 35 245 41
44 7 90 14 103 17 79 17 -67 115 -171 114 -39 -1 -131 -23 -399 -96 -59 -16
-109 -26 -113 -23 -3 4 4 70 17 148 27 172 24 184 -51 223 -30 16 -47 30 -40
33 8 3 189 30 404 60 416 60 603 95 642 120 41 27 28 65 -32 95 -44 22 -62 25
-155 24 -95 0 -126 -6 -323 -58 -120 -31 -294 -73 -385 -91 -193 -39 -478 -82
-487 -73 -3 3 12 35 33 70 22 36 64 111 93 168 30 56 78 129 107 162 28 32 52
63 52 69 0 24 -63 99 -108 127 -47 31 -122 62 -148 62 -8 0 -16 -10 -18 -22z"/>
</g>
</svg>
