<?xml version="1.0" standalone="no"?>
<!DOCTYPE svg PUBLIC "-//W3C//DTD SVG 20010904//EN"
 "http://www.w3.org/TR/2001/REC-SVG-20010904/DTD/svg10.dtd">
<svg version="1.0" xmlns="http://www.w3.org/2000/svg"
 width="340.000000pt" height="340.000000pt" viewBox="0 0 340.000000 340.000000"
 preserveAspectRatio="xMidYMid meet">
<metadata>
Created by potrace 1.15, written by Peter Selinger 2001-2017
</metadata>
<g transform="translate(0.000000,340.000000) scale(0.100000,-0.100000)"
fill="#000000" stroke="none">
<path d="M1396 2791 c-3 -5 -10 -37 -15 -72 -13 -87 -33 -140 -89 -229 -115
-186 -389 -482 -594 -644 -92 -72 -107 -93 -60 -82 92 22 252 120 423 258 56
46 109 89 119 96 14 10 29 9 81 -4 49 -13 87 -15 163 -10 205 13 746 103 823
136 53 23 81 63 62 87 -25 30 -76 43 -168 43 -75 0 -108 -6 -203 -36 -205 -64
-625 -160 -665 -152 -9 2 30 56 115 158 124 149 190 217 241 251 l25 16 -27
45 c-15 25 -41 58 -59 74 -52 43 -160 84 -172 65z"/>
<path d="M1660 1820 c-43 -37 -150 -82 -255 -109 -88 -22 -313 -56 -442 -67
-88 -7 -128 -28 -116 -60 7 -18 108 -67 159 -78 47 -10 335 60 548 134 33 11
63 20 68 20 5 0 -39 -53 -98 -117 -294 -321 -424 -506 -445 -629 -33 -204 88
-345 352 -413 367 -94 1001 -49 1269 90 67 35 92 54 124 97 24 33 24 35 10 80
-35 111 -64 240 -79 349 -9 65 -19 127 -22 137 -9 31 -19 3 -44 -115 -29 -143
-72 -275 -109 -332 -25 -40 -42 -54 -96 -78 -159 -72 -374 -109 -644 -109
-445 0 -640 85 -617 268 16 118 180 365 367 553 119 119 185 167 286 208 75
30 86 46 60 86 -18 28 -109 77 -174 95 -24 6 -49 13 -55 15 -7 3 -28 -9 -47
-25z"/>
</g>
</svg>
