<?xml version="1.0" standalone="no"?>
<!DOCTYPE svg PUBLIC "-//W3C//DTD SVG 20010904//EN"
 "http://www.w3.org/TR/2001/REC-SVG-20010904/DTD/svg10.dtd">
<svg version="1.0" xmlns="http://www.w3.org/2000/svg"
 width="340.000000pt" height="340.000000pt" viewBox="0 0 340.000000 340.000000"
 preserveAspectRatio="xMidYMid meet">
<metadata>
Created by potrace 1.15, written by Peter Selinger 2001-2017
</metadata>
<g transform="translate(0.000000,340.000000) scale(0.100000,-0.100000)"
fill="#000000" stroke="none">
<path d="M1374 2686 c-8 -20 12 -72 43 -109 13 -16 23 -32 23 -35 1 -4 5 -27
10 -52 11 -51 12 -605 2 -690 l-7 -54 -107 -72 c-59 -40 -142 -93 -184 -118
l-76 -47 7 68 c3 37 13 105 21 149 21 112 9 135 -116 218 -57 37 -107 47 -116
21 -3 -8 12 -54 34 -102 48 -104 62 -173 62 -302 l0 -96 -117 -70 c-65 -38
-185 -104 -268 -146 -87 -44 -150 -81 -150 -90 0 -22 55 -43 125 -47 l66 -4
129 93 c72 51 143 103 158 116 16 12 33 23 38 23 5 0 9 -41 9 -90 0 -179 27
-346 70 -430 28 -56 103 -133 177 -184 117 -80 320 -139 573 -167 160 -18 584
-7 730 19 198 35 351 102 442 193 66 66 69 90 19 214 -22 55 -47 134 -55 177
-19 90 -32 128 -45 128 -16 0 -19 -11 -40 -128 -11 -62 -31 -137 -44 -166 -31
-67 -98 -136 -164 -170 -119 -60 -565 -112 -806 -95 -280 21 -502 83 -621 174
-83 63 -111 165 -123 442 l-6 151 192 126 c106 69 194 126 196 126 3 0 2 -155
-2 -343 -5 -271 -4 -346 6 -352 57 -35 101 240 121 762 0 6 298 197 341 219
27 13 58 24 69 24 23 0 23 -8 -1 -205 -23 -186 -100 -405 -142 -405 -7 0 -30
9 -52 20 -36 18 -85 27 -85 15 0 -3 16 -25 35 -51 19 -25 42 -71 51 -102 29
-106 36 -123 50 -129 48 -18 125 50 174 153 50 105 76 191 120 388 43 192 76
278 130 340 32 36 33 39 19 65 -24 42 -64 55 -177 59 l-102 4 -57 -52 c-55
-50 -346 -250 -364 -250 -13 0 -11 53 6 257 18 207 38 338 61 410 10 30 14 63
10 78 -11 44 -152 119 -248 132 -29 4 -39 2 -44 -11z"/>
</g>
</svg>
