<?xml version="1.0" standalone="no"?>
<!DOCTYPE svg PUBLIC "-//W3C//DTD SVG 20010904//EN"
 "http://www.w3.org/TR/2001/REC-SVG-20010904/DTD/svg10.dtd">
<svg version="1.0" xmlns="http://www.w3.org/2000/svg"
 width="340.000000pt" height="340.000000pt" viewBox="0 0 340.000000 340.000000"
 preserveAspectRatio="xMidYMid meet">
<metadata>
Created by potrace 1.15, written by Peter Selinger 2001-2017
</metadata>
<g transform="translate(0.000000,340.000000) scale(0.100000,-0.100000)"
fill="#000000" stroke="none">
<path d="M2055 2410 c-191 -54 -570 -120 -803 -141 -183 -17 -189 -36 -27
-100 77 -30 84 -31 170 -24 153 13 147 14 157 -20 14 -45 3 -136 -43 -367 -32
-156 -46 -211 -59 -218 -9 -5 -109 -19 -221 -30 -263 -28 -269 -29 -269 -44 0
-20 41 -53 94 -77 59 -26 114 -23 267 16 56 14 105 25 109 23 8 -3 -206 -676
-219 -690 -4 -5 -72 -15 -151 -23 -257 -26 -594 -66 -599 -70 -10 -10 52 -83
88 -103 63 -36 124 -43 184 -22 361 127 1154 193 1767 148 96 -7 236 -12 310
-13 l135 0 3 38 c2 23 -3 48 -13 63 -20 31 -95 69 -192 95 -89 25 -116 24
-461 -17 -118 -14 -219 -24 -226 -22 -9 2 1 48 35 158 82 274 145 423 213 513
20 26 36 51 36 56 0 22 -53 70 -97 89 -27 11 -85 26 -131 32 -80 12 -85 12
-140 -13 -55 -25 -200 -58 -308 -71 l-51 -6 64 187 c35 104 75 212 89 241 l26
52 -21 33 c-11 18 -39 48 -63 67 l-42 35 44 7 c25 4 119 17 210 28 206 25 368
48 443 62 66 12 73 28 32 76 -55 65 -209 89 -340 52z m-16 -898 c12 -23 -7
-138 -53 -317 -53 -208 -104 -387 -113 -396 -8 -7 -236 -31 -427 -45 -72 -5
-88 -4 -84 7 6 15 137 441 187 605 l31 101 138 26 c75 15 146 28 157 31 11 2
50 4 87 5 55 1 69 -2 77 -17z"/>
</g>
</svg>
