<?xml version="1.0" standalone="no"?>
<!DOCTYPE svg PUBLIC "-//W3C//DTD SVG 20010904//EN"
 "http://www.w3.org/TR/2001/REC-SVG-20010904/DTD/svg10.dtd">
<svg version="1.0" xmlns="http://www.w3.org/2000/svg"
 width="340.000000pt" height="340.000000pt" viewBox="0 0 340.000000 340.000000"
 preserveAspectRatio="xMidYMid meet">
<metadata>
Created by potrace 1.15, written by Peter Selinger 2001-2017
</metadata>
<g transform="translate(0.000000,340.000000) scale(0.100000,-0.100000)"
fill="#000000" stroke="none">
<path d="M1495 2709 c-12 -18 45 -90 162 -205 124 -123 160 -142 207 -111 33
22 39 57 21 132 -19 83 -34 106 -93 138 -67 36 -283 70 -297 46z"/>
<path d="M2380 2333 c-14 -2 -173 -31 -353 -64 -493 -90 -994 -165 -1302 -195
-38 -4 -81 -11 -94 -15 -20 -8 -21 -11 -10 -26 18 -21 125 -70 183 -83 40 -9
64 -5 183 25 470 117 832 163 1385 173 402 8 401 8 371 71 -40 82 -218 138
-363 114z"/>
<path d="M1769 1847 c-67 -65 -190 -109 -343 -123 -65 -6 -80 -4 -140 20 -115
46 -137 26 -89 -77 27 -60 28 -67 28 -222 0 -177 -19 -278 -75 -402 -83 -183
-242 -346 -467 -478 -46 -27 -95 -61 -110 -77 l-27 -28 27 0 c34 0 130 36 237
90 256 128 435 326 508 560 24 78 60 298 70 429 l7 95 50 13 c77 20 225 43
279 43 l48 0 -7 -162 c-4 -90 -13 -228 -20 -307 -23 -266 22 -462 135 -585 94
-101 284 -156 548 -157 193 -1 302 28 386 102 56 49 62 84 32 182 -14 45 -34
135 -45 201 -11 65 -22 121 -25 123 -13 14 -27 -17 -47 -104 -12 -54 -30 -116
-40 -140 -24 -56 -85 -122 -134 -144 -88 -39 -289 -43 -420 -8 -101 28 -205
104 -236 175 -34 76 -52 217 -45 354 14 270 53 368 194 482 29 23 28 31 -10
74 -35 40 -132 90 -195 100 -34 5 -42 2 -74 -29z"/>
</g>
</svg>
