<?xml version="1.0" standalone="no"?>
<!DOCTYPE svg PUBLIC "-//W3C//DTD SVG 20010904//EN"
 "http://www.w3.org/TR/2001/REC-SVG-20010904/DTD/svg10.dtd">
<svg version="1.0" xmlns="http://www.w3.org/2000/svg"
 width="340.000000pt" height="340.000000pt" viewBox="0 0 340.000000 340.000000"
 preserveAspectRatio="xMidYMid meet">
<metadata>
Created by potrace 1.15, written by Peter Selinger 2001-2017
</metadata>
<g transform="translate(0.000000,340.000000) scale(0.100000,-0.100000)"
fill="#000000" stroke="none">
<path d="M1560 2887 c-16 -8 -26 -23 -28 -41 -3 -25 14 -46 140 -172 122 -122
148 -144 174 -144 82 0 119 145 59 236 -22 34 -64 58 -160 93 -103 37 -153 45
-185 28z"/>
<path d="M2375 2505 c-453 -87 -984 -166 -1505 -225 -319 -36 -309 -34 -335
-55 -20 -15 -20 -15 2 -34 27 -22 155 -59 238 -67 62 -6 75 -4 335 56 165 38
501 96 670 115 170 20 515 35 803 35 265 0 307 7 307 53 0 33 -58 88 -129 123
-85 41 -164 41 -386 -1z"/>
<path d="M1965 2053 c-94 -41 -254 -84 -415 -112 -188 -33 -221 -35 -280 -17
-68 20 -139 21 -146 2 -7 -18 10 -52 42 -87 32 -33 78 -169 115 -333 16 -72
38 -142 48 -156 33 -45 64 -36 86 26 14 42 23 47 118 58 56 6 58 6 68 -21 32
-83 42 -183 43 -413 1 -204 -1 -240 -17 -274 -17 -37 -18 -38 -57 -32 -22 3
-75 17 -117 31 -80 25 -113 31 -113 18 0 -5 25 -37 56 -73 72 -84 149 -192
180 -253 14 -26 31 -50 39 -53 36 -14 122 65 157 143 40 91 48 172 36 397 -9
158 -9 240 0 334 12 123 12 126 -9 148 -12 13 -38 29 -58 35 -20 6 -40 15 -45
20 -11 10 -1 12 209 44 94 14 187 30 207 36 54 14 59 48 16 111 -10 14 -18 32
-18 40 0 21 79 110 153 172 37 32 67 65 67 74 0 21 -40 65 -88 97 -39 25 -163
76 -185 74 -6 0 -48 -16 -92 -36z m49 -157 c9 -46 -16 -161 -48 -224 -26 -51
-27 -52 -109 -77 -76 -23 -344 -80 -412 -87 l-30 -3 -27 130 c-14 72 -29 148
-32 170 l-7 40 118 19 c307 49 423 64 479 65 l62 1 6 -34z"/>
<path d="M1062 1223 c-11 -16 -23 -39 -27 -53 -14 -48 -53 -115 -109 -189 -65
-87 -91 -154 -82 -218 9 -66 21 -83 61 -83 71 0 169 108 216 239 42 117 26
331 -25 331 -8 0 -23 -12 -34 -27z"/>
<path d="M2070 1212 c0 -22 436 -457 468 -467 27 -8 65 14 83 47 16 31 14 135
-5 187 -27 74 -60 108 -149 150 -99 48 -282 101 -349 101 -39 0 -48 -3 -48
-18z"/>
</g>
</svg>
