<?xml version="1.0" standalone="no"?>
<!DOCTYPE svg PUBLIC "-//W3C//DTD SVG 20010904//EN"
 "http://www.w3.org/TR/2001/REC-SVG-20010904/DTD/svg10.dtd">
<svg version="1.0" xmlns="http://www.w3.org/2000/svg"
 width="340.000000pt" height="340.000000pt" viewBox="0 0 340.000000 340.000000"
 preserveAspectRatio="xMidYMid meet">
<metadata>
Created by potrace 1.15, written by Peter Selinger 2001-2017
</metadata>
<g transform="translate(0.000000,340.000000) scale(0.100000,-0.100000)"
fill="#000000" stroke="none">
<path d="M1162 2648 c-7 -7 -12 -32 -12 -57 0 -59 -40 -208 -86 -319 -94 -229
-271 -483 -514 -737 -52 -55 -108 -117 -124 -138 -56 -74 -6 -62 135 32 160
105 283 222 379 359 24 34 47 62 51 62 13 0 19 -83 25 -390 7 -355 -3 -481
-52 -612 -20 -52 -28 -92 -28 -138 0 -118 53 -242 106 -248 22 -3 28 3 42 37
25 65 36 198 36 466 0 291 16 702 30 775 8 44 7 57 -10 90 -11 22 -34 55 -50
74 -17 18 -30 37 -30 40 0 9 174 269 228 341 25 33 63 80 85 103 33 37 38 49
33 74 -9 44 -39 82 -115 143 -68 55 -105 67 -129 43z"/>
<path d="M2184 2309 c-148 -109 -310 -169 -644 -238 -82 -16 -25 -70 85 -78
50 -4 79 1 170 30 142 46 272 79 297 75 16 -3 8 -19 -55 -113 -151 -227 -331
-535 -406 -695 -163 -351 -122 -566 127 -661 120 -45 236 -63 417 -63 323 0
611 73 705 181 39 44 39 87 0 210 -17 52 -38 140 -46 196 -17 106 -30 145 -44
131 -5 -5 -23 -63 -40 -129 -48 -179 -91 -251 -193 -318 -91 -60 -283 -96
-533 -97 -163 -2 -219 11 -281 65 -60 51 -77 103 -70 213 6 97 31 179 95 312
177 368 474 714 720 839 23 12 42 28 42 36 0 19 -67 68 -150 110 -107 54 -116
54 -196 -6z"/>
</g>
</svg>
