<?xml version="1.0" standalone="no"?>
<!DOCTYPE svg PUBLIC "-//W3C//DTD SVG 20010904//EN"
 "http://www.w3.org/TR/2001/REC-SVG-20010904/DTD/svg10.dtd">
<svg version="1.0" xmlns="http://www.w3.org/2000/svg"
 width="340.000000pt" height="340.000000pt" viewBox="0 0 340.000000 340.000000"
 preserveAspectRatio="xMidYMid meet">
<metadata>
Created by potrace 1.15, written by Peter Selinger 2001-2017
</metadata>
<g transform="translate(0.000000,340.000000) scale(0.100000,-0.100000)"
fill="#000000" stroke="none">
<path d="M2095 2496 c-71 -13 -224 -44 -340 -69 -249 -54 -385 -79 -440 -79
-22 1 -82 17 -133 37 -51 19 -110 37 -130 38 -34 2 -37 0 -36 -23 1 -14 15
-54 30 -90 28 -63 29 -70 28 -225 -1 -139 -5 -180 -32 -313 -44 -211 -108
-398 -202 -587 -90 -182 -178 -319 -306 -477 -49 -60 -104 -127 -122 -149 -31
-39 -41 -69 -23 -69 4 0 39 23 77 52 101 75 279 259 357 368 83 117 210 366
264 520 71 201 140 508 168 743 3 31 8 57 10 57 2 0 107 16 232 35 283 43 503
71 746 95 230 23 274 43 215 97 -71 64 -166 75 -363 39z"/>
<path d="M1727 2112 c-14 -3 -18 -10 -14 -25 43 -185 44 -263 7 -449 -54 -263
-147 -460 -309 -651 -83 -99 -177 -180 -311 -267 -58 -38 -118 -80 -135 -94
l-30 -25 25 -1 c79 0 277 92 409 190 166 123 319 315 392 490 30 70 49 98 49
71 0 -4 58 -95 129 -202 149 -225 355 -504 401 -542 62 -53 117 -60 381 -52
259 8 302 13 307 37 3 16 -44 40 -108 53 -141 28 -458 168 -566 250 -145 109
-304 277 -456 482 l-70 94 41 169 c23 93 57 206 76 252 19 45 35 86 35 89 0
17 -55 71 -95 95 -43 25 -123 43 -158 36z"/>
</g>
</svg>
