<?xml version="1.0" standalone="no"?>
<!DOCTYPE svg PUBLIC "-//W3C//DTD SVG 20010904//EN"
 "http://www.w3.org/TR/2001/REC-SVG-20010904/DTD/svg10.dtd">
<svg version="1.0" xmlns="http://www.w3.org/2000/svg"
 width="340.000000pt" height="340.000000pt" viewBox="0 0 340.000000 340.000000"
 preserveAspectRatio="xMidYMid meet">
<metadata>
Created by potrace 1.15, written by Peter Selinger 2001-2017
</metadata>
<g transform="translate(0.000000,340.000000) scale(0.100000,-0.100000)"
fill="#000000" stroke="none">
<path d="M1101 2676 c-7 -9 -9 -33 -5 -68 27 -233 -203 -651 -602 -1091 -144
-159 -170 -209 -87 -165 123 66 281 213 425 394 l83 105 13 -43 c24 -84 34
-268 28 -498 -9 -275 -19 -353 -58 -450 -25 -59 -31 -91 -32 -150 -2 -168 100
-348 143 -254 39 86 43 140 52 654 7 457 12 554 35 658 6 29 2 36 -37 75 -24
23 -55 49 -68 58 l-23 15 164 249 c91 138 181 270 201 293 21 24 37 50 37 58
0 26 -64 86 -139 130 -79 46 -111 53 -130 30z"/>
<path d="M2180 2283 c-143 -89 -329 -150 -553 -181 -93 -13 -122 -21 -122 -32
0 -23 69 -41 175 -47 106 -6 134 0 363 73 75 24 140 44 142 44 12 0 4 -215
-11 -301 -27 -161 -113 -389 -178 -474 -13 -18 -16 -19 -28 -4 -7 9 -79 105
-160 212 -81 107 -162 205 -178 217 -37 27 -120 50 -177 50 -80 0 -65 -35 35
-83 87 -42 183 -154 353 -414 l70 -108 -93 -90 c-142 -138 -339 -260 -573
-355 -44 -18 -86 -39 -94 -46 -42 -39 107 -24 261 27 172 56 370 172 508 298
l66 59 89 -116 c121 -156 234 -290 277 -328 33 -29 44 -32 127 -39 95 -7 356
1 475 15 75 9 108 29 87 53 -6 8 -53 25 -104 37 -273 66 -535 211 -774 430
l-56 52 55 106 c66 127 113 250 169 444 61 209 97 273 198 348 33 25 33 26 18
55 -30 59 -182 144 -257 145 -25 0 -57 -14 -110 -47z"/>
</g>
</svg>
