<?xml version="1.0" standalone="no"?>
<!DOCTYPE svg PUBLIC "-//W3C//DTD SVG 20010904//EN"
 "http://www.w3.org/TR/2001/REC-SVG-20010904/DTD/svg10.dtd">
<svg version="1.0" xmlns="http://www.w3.org/2000/svg"
 width="340.000000pt" height="340.000000pt" viewBox="0 0 340.000000 340.000000"
 preserveAspectRatio="xMidYMid meet">
<metadata>
Created by potrace 1.15, written by Peter Selinger 2001-2017
</metadata>
<g transform="translate(0.000000,340.000000) scale(0.100000,-0.100000)"
fill="#000000" stroke="none">
<path d="M1863 2470 c-30 -12 -29 -33 5 -116 26 -67 27 -74 26 -269 0 -361
-66 -661 -205 -937 -106 -211 -264 -395 -469 -546 -167 -122 -154 -137 37 -42
348 171 574 459 689 877 26 96 31 104 40 77 36 -99 194 -457 269 -609 108
-219 136 -258 197 -273 116 -29 577 -50 585 -26 2 6 -20 21 -49 33 -150 66
-261 126 -335 180 -106 80 -243 218 -338 342 -132 172 -305 461 -305 510 0 39
103 517 124 578 9 24 16 56 16 71 0 50 -65 99 -189 141 -60 21 -66 22 -98 9z"/>
<path d="M988 2300 c-26 -16 -22 -64 8 -127 57 -116 37 -331 -57 -618 -100
-305 -252 -547 -477 -762 -58 -56 -103 -105 -99 -109 11 -11 165 69 242 127
181 136 298 297 426 588 l15 34 81 -104 c44 -57 110 -149 146 -204 69 -105
127 -168 164 -179 38 -12 57 31 51 117 -10 156 -92 240 -359 372 l-76 38 68
211 c38 116 84 258 104 316 53 154 53 151 11 197 -36 40 -144 98 -201 108 -17
3 -38 0 -47 -5z"/>
</g>
</svg>
