<?xml version="1.0" standalone="no"?>
<!DOCTYPE svg PUBLIC "-//W3C//DTD SVG 20010904//EN"
 "http://www.w3.org/TR/2001/REC-SVG-20010904/DTD/svg10.dtd">
<svg version="1.0" xmlns="http://www.w3.org/2000/svg"
 width="340.000000pt" height="340.000000pt" viewBox="0 0 340.000000 340.000000"
 preserveAspectRatio="xMidYMid meet">
<metadata>
Created by potrace 1.15, written by Peter Selinger 2001-2017
</metadata>
<g transform="translate(0.000000,340.000000) scale(0.100000,-0.100000)"
fill="#000000" stroke="none">
<path d="M1425 2798 c-3 -8 -1 -35 4 -60 18 -77 -1 -158 -67 -288 -192 -377
-487 -742 -840 -1039 -108 -91 -132 -121 -94 -121 23 0 144 67 262 144 304
199 600 525 826 907 26 43 48 79 50 79 2 0 133 -130 291 -289 325 -325 468
-455 533 -484 39 -17 58 -19 160 -14 105 6 393 40 448 54 27 6 29 29 4 42 -10
5 -83 28 -163 49 -167 46 -261 82 -408 156 -219 110 -448 265 -703 479 l-107
89 50 74 c27 41 52 81 55 88 8 21 -51 72 -121 106 -72 35 -172 51 -180 28z"/>
<path d="M1667 1780 c-111 -74 -362 -147 -467 -136 -30 3 -69 8 -86 12 -22 4
-36 1 -47 -11 -16 -15 -15 -20 7 -64 56 -109 60 -142 52 -441 -7 -305 0 -368
50 -460 93 -171 284 -250 609 -250 301 0 514 55 623 159 29 29 28 57 -7 122
-40 76 -79 189 -86 251 -9 70 -25 122 -36 111 -4 -4 -15 -55 -24 -112 -31
-207 -51 -255 -128 -306 -86 -57 -180 -76 -392 -78 -192 -2 -255 8 -335 56
-140 82 -178 200 -150 464 6 54 14 181 18 282 l7 185 150 38 c83 20 186 43
229 49 73 11 80 10 93 -7 40 -55 -12 -357 -72 -414 -21 -20 -31 -22 -72 -16
-109 15 -173 18 -173 9 0 -5 18 -27 41 -48 22 -22 72 -81 110 -132 39 -51 74
-95 80 -98 16 -10 73 31 106 77 74 105 109 203 152 430 19 104 40 156 82 210
12 14 19 33 16 42 -14 36 -201 117 -266 115 -14 0 -52 -18 -84 -39z"/>
</g>
</svg>
