<?xml version="1.0" standalone="no"?>
<!DOCTYPE svg PUBLIC "-//W3C//DTD SVG 20010904//EN"
 "http://www.w3.org/TR/2001/REC-SVG-20010904/DTD/svg10.dtd">
<svg version="1.0" xmlns="http://www.w3.org/2000/svg"
 width="340.000000pt" height="340.000000pt" viewBox="0 0 340.000000 340.000000"
 preserveAspectRatio="xMidYMid meet">
<metadata>
Created by potrace 1.15, written by Peter Selinger 2001-2017
</metadata>
<g transform="translate(0.000000,340.000000) scale(0.100000,-0.100000)"
fill="#000000" stroke="none">
<path d="M1837 2713 c-14 -14 -6 -58 18 -99 50 -85 59 -155 60 -441 0 -144 -3
-264 -6 -268 -4 -3 -112 -35 -240 -71 -129 -36 -241 -72 -249 -80 -48 -46 103
-56 323 -20 87 14 160 26 164 26 6 0 -3 -119 -18 -230 -16 -120 -51 -290 -60
-290 -4 0 -60 47 -124 105 -194 175 -245 213 -304 226 -39 8 -60 8 -77 0 -41
-18 -28 -39 44 -71 59 -27 88 -52 240 -206 l173 -175 -28 -52 c-36 -68 -189
-221 -278 -279 -38 -25 -122 -73 -185 -107 -126 -66 -123 -71 23 -46 246 44
425 144 532 299 21 31 41 56 44 55 3 0 65 -66 136 -146 141 -159 268 -277 321
-299 43 -18 119 -18 302 1 270 28 369 50 380 82 5 18 -32 30 -163 53 -272 48
-570 187 -829 388 -33 26 -66 52 -74 57 -11 9 -10 23 7 85 28 103 58 278 76
444 9 77 17 141 18 142 1 1 76 18 167 39 270 61 410 114 410 154 0 63 -149 81
-312 38 -53 -14 -134 -41 -182 -60 l-86 -34 0 33 c0 71 42 443 60 533 13 66
16 100 9 113 -25 47 -264 130 -292 101z"/>
<path d="M1098 2623 c0 -5 -2 -46 -3 -93 -5 -253 -223 -630 -623 -1079 -90
-101 -121 -151 -93 -151 5 0 38 21 73 47 205 151 276 213 405 358 l71 79 12
-39 c18 -56 24 -397 11 -563 -7 -75 -25 -222 -42 -326 -26 -165 -29 -198 -20
-255 19 -120 48 -188 90 -210 16 -9 23 -7 39 14 37 46 41 129 43 717 1 629 5
585 -68 675 l-35 42 55 78 c30 43 110 170 177 283 68 113 131 216 141 229 27
34 24 56 -14 93 -58 59 -212 129 -219 101z"/>
</g>
</svg>
