<?xml version="1.0" standalone="no"?>
<!DOCTYPE svg PUBLIC "-//W3C//DTD SVG 20010904//EN"
 "http://www.w3.org/TR/2001/REC-SVG-20010904/DTD/svg10.dtd">
<svg version="1.0" xmlns="http://www.w3.org/2000/svg"
 width="340.000000pt" height="340.000000pt" viewBox="0 0 340.000000 340.000000"
 preserveAspectRatio="xMidYMid meet">
<metadata>
Created by potrace 1.15, written by Peter Selinger 2001-2017
</metadata>
<g transform="translate(0.000000,340.000000) scale(0.100000,-0.100000)"
fill="#000000" stroke="none">
<path d="M1057 2628 c16 -64 8 -150 -21 -223 -118 -295 -308 -621 -493 -848
-145 -177 -175 -227 -139 -227 24 0 160 115 246 208 44 48 122 140 173 204 51
64 95 117 98 117 14 2 21 -494 11 -678 -13 -217 -32 -336 -69 -443 -26 -73
-27 -80 -14 -140 12 -63 46 -147 73 -182 34 -44 77 12 98 129 18 101 29 420
31 845 1 447 1 452 -60 502 -17 15 -31 30 -31 33 0 4 42 70 93 148 51 78 110
174 132 212 21 39 58 99 82 135 24 36 43 70 43 77 0 22 -105 126 -145 144 -22
10 -57 19 -78 19 -39 0 -39 0 -30 -32z"/>
<path d="M2375 2512 c-115 -69 -390 -133 -760 -177 -178 -22 -199 -36 -111
-76 53 -24 98 -24 208 2 49 12 92 18 96 14 4 -3 8 -82 10 -174 l4 -168 -23 -6
c-21 -6 -341 -47 -574 -74 -38 -4 -70 -12 -70 -18 0 -5 27 -21 60 -35 76 -31
151 -32 300 -2 189 39 289 50 293 35 2 -7 -4 -84 -12 -172 -9 -87 -16 -163
-16 -169 0 -13 -98 -30 -319 -52 -101 -11 -189 -24 -194 -29 -16 -16 9 -38 71
-61 l57 -22 105 21 c58 12 138 25 178 29 72 8 72 8 72 -16 0 -61 -67 -274
-123 -393 -72 -151 -150 -255 -298 -400 -76 -75 -139 -140 -139 -144 0 -12 64
7 130 40 239 120 409 351 514 698 18 61 39 144 46 184 l13 72 46 6 c114 15
256 25 371 26 156 2 184 7 188 36 2 16 -10 35 -43 66 l-46 44 32 144 c17 79
33 154 36 167 l5 22 253 0 c233 0 255 1 276 19 l23 19 -29 42 c-58 84 -130 96
-350 60 -139 -23 -145 -24 -145 -9 0 36 68 166 113 215 l50 55 -16 34 c-9 19
-36 49 -59 66 -42 30 -170 99 -185 99 -5 0 -21 -8 -38 -18z m-12 -171 c21 -36
22 -127 2 -219 -8 -37 -15 -78 -17 -92 -3 -24 -7 -25 -193 -52 -104 -14 -191
-26 -192 -24 -2 1 4 42 13 90 23 135 21 143 -58 196 -37 25 -67 48 -68 51 0 4
64 19 143 34 205 38 236 43 297 44 51 1 57 -1 73 -28z m-39 -528 c-15 -122
-32 -207 -47 -240 -12 -27 -41 -36 -177 -57 -181 -27 -190 -28 -190 -8 0 28
39 365 43 369 4 4 308 40 353 42 l31 1 -13 -107z"/>
</g>
</svg>
