<?xml version="1.0" standalone="no"?>
<!DOCTYPE svg PUBLIC "-//W3C//DTD SVG 20010904//EN"
 "http://www.w3.org/TR/2001/REC-SVG-20010904/DTD/svg10.dtd">
<svg version="1.0" xmlns="http://www.w3.org/2000/svg"
 width="340.000000pt" height="340.000000pt" viewBox="0 0 340.000000 340.000000"
 preserveAspectRatio="xMidYMid meet">
<metadata>
Created by potrace 1.15, written by Peter Selinger 2001-2017
</metadata>
<g transform="translate(0.000000,340.000000) scale(0.100000,-0.100000)"
fill="#000000" stroke="none">
<path d="M1705 2621 c-4 -7 12 -50 37 -98 l43 -86 -2 -350 c-1 -280 -4 -351
-15 -358 -29 -18 -287 -72 -505 -105 -48 -7 -40 -27 19 -55 79 -37 186 -32
347 15 69 20 128 36 133 36 16 0 -21 -246 -57 -372 -72 -252 -216 -451 -425
-589 -47 -31 -96 -69 -110 -84 l-25 -28 38 6 c52 8 133 47 230 110 255 166
397 390 441 691 l11 80 110 -194 c201 -355 418 -659 483 -677 31 -9 367 -7
459 2 33 4 69 12 79 19 16 13 16 15 -13 30 -17 8 -79 29 -137 46 -129 37 -214
75 -309 136 -196 127 -392 331 -583 609 l-68 99 2 66 c2 36 6 68 10 72 10 10
296 55 462 73 187 20 211 24 233 43 44 39 3 71 -126 99 l-74 16 -224 -58
c-123 -32 -230 -60 -238 -63 -30 -11 6 551 44 673 8 28 15 60 15 72 0 25 -54
73 -116 103 -50 25 -158 38 -169 21z"/>
<path d="M1161 2476 c-7 -8 -9 -29 -6 -52 16 -100 -54 -275 -195 -486 -107
-161 -190 -259 -382 -451 -98 -98 -178 -183 -178 -188 0 -33 127 33 247 128
79 62 190 172 275 272 l46 55 7 -129 c13 -227 -5 -502 -52 -785 -28 -174 -27
-271 6 -345 26 -59 39 -64 72 -28 54 62 64 166 85 873 7 252 -2 366 -34 431
l-18 37 98 148 c55 82 126 182 159 222 64 78 99 130 99 149 0 22 -100 121
-143 142 -51 25 -70 26 -86 7z"/>
<path d="M2180 2340 c0 -21 67 -105 133 -166 51 -48 156 -114 181 -114 3 0 14
10 26 22 33 36 26 86 -20 156 -35 53 -49 64 -98 83 -67 26 -222 39 -222 19z"/>
</g>
</svg>
