<?xml version="1.0" standalone="no"?>
<!DOCTYPE svg PUBLIC "-//W3C//DTD SVG 20010904//EN"
 "http://www.w3.org/TR/2001/REC-SVG-20010904/DTD/svg10.dtd">
<svg version="1.0" xmlns="http://www.w3.org/2000/svg"
 width="340.000000pt" height="340.000000pt" viewBox="0 0 340.000000 340.000000"
 preserveAspectRatio="xMidYMid meet">
<metadata>
Created by potrace 1.15, written by Peter Selinger 2001-2017
</metadata>
<g transform="translate(0.000000,340.000000) scale(0.100000,-0.100000)"
fill="#000000" stroke="none">
<path d="M1547 2724 c-3 -4 -3 -50 0 -104 5 -82 3 -108 -15 -166 -60 -195
-344 -535 -614 -737 -122 -91 -139 -107 -114 -107 21 0 151 52 229 91 210 106
431 321 563 546 l38 65 30 -38 c162 -205 409 -467 510 -541 l61 -45 135 5
c123 5 389 39 411 53 31 19 -10 37 -149 64 -216 43 -385 113 -567 234 -144 97
-375 303 -375 335 0 4 27 45 60 91 33 46 60 86 60 90 0 4 -10 22 -23 41 -28
42 -84 80 -160 108 -62 23 -70 24 -80 15z"/>
<path d="M1878 1735 c-3 -3 3 -34 14 -68 46 -143 -11 -439 -132 -694 -85 -180
-175 -295 -334 -427 -117 -97 -132 -113 -122 -123 8 -9 186 80 258 128 143 97
289 282 387 489 l49 104 54 -84 c30 -47 94 -156 144 -243 104 -184 162 -263
209 -283 54 -22 256 -37 413 -29 78 4 145 11 147 16 7 10 -67 49 -157 82 -220
83 -448 245 -609 432 -96 113 -158 195 -165 222 -7 25 34 180 71 272 32 77 26
94 -46 146 -50 37 -166 75 -181 60z"/>
<path d="M1159 1708 c-1 -2 -2 -50 -4 -108 -2 -88 -7 -120 -33 -197 -92 -272
-291 -549 -537 -748 -50 -40 -97 -81 -105 -90 -14 -17 -12 -18 25 -13 63 9
224 93 312 163 84 67 192 189 258 293 22 34 42 61 45 59 3 -1 59 -59 123 -129
175 -189 228 -226 265 -185 41 46 33 107 -29 198 -29 42 -46 54 -129 92 -52
25 -119 53 -147 63 l-53 18 22 35 c11 20 54 97 96 171 41 74 88 155 104 179
l29 43 -26 38 c-29 42 -80 81 -137 105 -33 13 -75 20 -79 13z"/>
</g>
</svg>
