<?xml version="1.0" standalone="no"?>
<!DOCTYPE svg PUBLIC "-//W3C//DTD SVG 20010904//EN"
 "http://www.w3.org/TR/2001/REC-SVG-20010904/DTD/svg10.dtd">
<svg version="1.0" xmlns="http://www.w3.org/2000/svg"
 width="340.000000pt" height="340.000000pt" viewBox="0 0 340.000000 340.000000"
 preserveAspectRatio="xMidYMid meet">
<metadata>
Created by potrace 1.15, written by Peter Selinger 2001-2017
</metadata>
<g transform="translate(0.000000,340.000000) scale(0.100000,-0.100000)"
fill="#000000" stroke="none">
<path d="M1474 2753 c-1 -196 -174 -508 -468 -842 -162 -184 -333 -337 -537
-482 -139 -98 -129 -116 26 -46 400 181 743 505 1036 976 36 58 68 106 71 106
3 0 99 -108 213 -240 272 -312 500 -567 564 -630 l52 -50 254 2 c242 1 365 13
365 34 0 15 -94 57 -179 79 -225 57 -510 229 -811 490 -179 155 -410 381 -410
401 0 11 23 42 50 70 28 27 50 55 50 60 0 22 -43 70 -85 94 -33 20 -148 54
-186 55 -3 0 -5 -35 -5 -77z"/>
<path d="M1605 1805 c-110 -29 -230 -60 -425 -107 -86 -20 -78 -41 26 -63 129
-27 307 -12 529 45 192 50 220 61 223 93 3 24 -2 30 -35 43 -21 9 -71 18 -113
20 -63 4 -96 -1 -205 -31z"/>
<path d="M2050 1464 c-676 -136 -920 -177 -1154 -197 -161 -13 -181 -22 -126
-56 75 -45 268 -52 515 -17 55 8 102 13 104 11 8 -8 -95 -168 -186 -290 -55
-73 -112 -137 -141 -159 -56 -40 -148 -86 -176 -86 -16 0 -17 -5 -11 -47 9
-63 41 -135 71 -164 l24 -22 97 46 c130 62 296 117 484 160 160 37 408 82 413
76 1 -2 33 -50 71 -107 70 -106 144 -195 176 -212 15 -9 22 -3 44 33 31 53 34
133 8 216 -15 47 -33 71 -113 152 -52 53 -126 117 -165 141 -70 46 -184 93
-205 86 -6 -2 26 -56 71 -121 44 -65 79 -120 77 -122 -6 -5 -779 -96 -795 -93
-10 2 2 15 33 38 26 19 77 62 113 95 37 34 100 88 141 120 101 79 170 146 170
166 0 21 -47 62 -104 91 l-41 22 135 22 c124 20 357 47 633 74 111 10 147 21
147 44 0 27 -41 65 -87 80 -49 17 -179 28 -223 20z"/>
</g>
</svg>
