<?xml version="1.0" standalone="no"?>
<!DOCTYPE svg PUBLIC "-//W3C//DTD SVG 20010904//EN"
 "http://www.w3.org/TR/2001/REC-SVG-20010904/DTD/svg10.dtd">
<svg version="1.0" xmlns="http://www.w3.org/2000/svg"
 width="340.000000pt" height="340.000000pt" viewBox="0 0 340.000000 340.000000"
 preserveAspectRatio="xMidYMid meet">
<metadata>
Created by potrace 1.15, written by Peter Selinger 2001-2017
</metadata>
<g transform="translate(0.000000,340.000000) scale(0.100000,-0.100000)"
fill="#000000" stroke="none">
<path d="M1923 2738 c2 -18 12 -64 21 -103 29 -129 19 -309 -30 -517 l-25
-106 -37 -7 c-111 -18 -276 -36 -422 -46 -91 -6 -171 -13 -179 -15 -21 -7 4
-30 76 -71 63 -34 67 -35 136 -29 40 3 141 23 224 43 84 20 155 34 159 30 15
-15 -124 -341 -195 -454 -24 -39 -29 -42 -57 -37 -21 4 -36 1 -47 -11 -22 -22
-21 -37 4 -68 l20 -27 -67 -97 c-95 -138 -237 -323 -273 -357 -69 -66 -15 -77
66 -14 30 23 103 96 161 162 59 66 121 135 138 155 l31 34 7 -104 c16 -239 54
-453 87 -491 l19 -23 19 23 c11 12 29 51 41 86 l21 63 277 6 c282 6 386 18
451 52 45 23 42 57 -10 94 -22 17 -45 31 -51 33 -29 10 68 187 156 286 34 38
56 72 56 86 0 56 -101 152 -188 180 -99 31 -120 30 -248 -13 -65 -21 -168 -49
-229 -61 -108 -21 -275 -38 -275 -28 0 3 35 79 79 169 43 90 98 214 122 276
l44 111 90 11 c203 25 302 32 555 41 251 8 320 16 320 40 0 19 -55 70 -114
105 -77 45 -136 46 -306 4 -123 -30 -503 -109 -507 -105 -5 4 100 324 138 422
22 55 42 116 45 135 6 33 2 39 -35 68 -74 59 -167 101 -223 101 l-50 0 5 -32z
m427 -1368 c51 -27 55 -172 7 -309 -38 -112 -47 -119 -188 -155 -100 -25 -348
-61 -357 -51 -3 3 -13 107 -22 230 l-15 225 40 0 c64 0 201 19 320 44 121 26
187 31 215 16z"/>
<path d="M1056 2718 c-3 -13 -7 -66 -10 -118 -6 -113 -30 -211 -85 -353 -107
-272 -242 -476 -499 -752 -97 -104 -127 -145 -107 -145 18 0 102 52 180 110
115 86 281 258 365 378 l65 93 7 -53 c10 -87 9 -495 -3 -618 -6 -63 -19 -162
-30 -220 -46 -242 -46 -241 -16 -335 33 -101 57 -136 80 -117 53 44 74 220 92
782 17 509 15 526 -40 608 l-24 35 140 279 c108 216 139 286 135 305 -11 41
-83 110 -133 127 -69 24 -112 21 -117 -6z"/>
</g>
</svg>
