<?xml version="1.0" standalone="no"?>
<!DOCTYPE svg PUBLIC "-//W3C//DTD SVG 20010904//EN"
 "http://www.w3.org/TR/2001/REC-SVG-20010904/DTD/svg10.dtd">
<svg version="1.0" xmlns="http://www.w3.org/2000/svg"
 width="340.000000pt" height="340.000000pt" viewBox="0 0 340.000000 340.000000"
 preserveAspectRatio="xMidYMid meet">
<metadata>
Created by potrace 1.15, written by Peter Selinger 2001-2017
</metadata>
<g transform="translate(0.000000,340.000000) scale(0.100000,-0.100000)"
fill="#000000" stroke="none">
<path d="M1823 2710 c-30 -12 -29 -28 7 -98 42 -83 59 -167 67 -323 l6 -135
-109 -23 c-189 -40 -229 -53 -229 -76 0 -15 13 -24 55 -38 48 -16 66 -17 147
-8 50 6 96 11 102 11 8 0 11 -58 11 -179 l0 -179 -27 -6 c-16 -3 -57 -10 -93
-16 -84 -14 -520 -99 -542 -106 -30 -9 -20 -20 43 -48 74 -32 131 -33 254 -5
261 59 580 126 584 123 4 -4 -26 -45 -127 -172 -74 -93 -75 -93 -116 -90 l-41
3 2 -37 c2 -34 -4 -42 -80 -114 -120 -113 -227 -201 -355 -293 -81 -58 -109
-83 -98 -87 64 -25 226 68 454 258 50 43 95 78 98 78 3 0 2 -71 -1 -158 -8
-180 2 -260 43 -335 72 -133 240 -195 497 -184 172 8 295 51 359 128 34 40 33
71 -4 167 -16 42 -36 106 -44 141 -14 61 -22 79 -30 70 -2 -2 -15 -47 -30 -99
-32 -113 -61 -161 -123 -200 -65 -42 -129 -53 -273 -48 -103 3 -132 7 -165 25
-73 38 -113 100 -122 188 l-6 52 59 28 c33 15 140 63 239 107 182 81 255 119
274 142 25 30 -63 116 -141 137 -46 12 -63 2 -73 -40 -12 -56 -131 -175 -280
-280 l-60 -42 -3 43 c-2 24 -1 93 3 155 l7 111 74 87 c56 65 200 250 220 283
7 11 302 33 484 36 141 2 223 7 238 15 47 25 13 84 -74 127 -53 26 -60 27
-157 21 -57 -4 -170 -22 -257 -41 -85 -19 -156 -34 -158 -32 -5 5 223 345 268
399 57 70 59 87 16 140 -63 76 -149 122 -160 85 -2 -7 -13 -52 -24 -99 -22
-95 -114 -304 -205 -465 l-56 -101 -83 -15 c-46 -8 -86 -12 -89 -9 -3 3 -3 85
0 181 l6 174 45 9 c159 29 230 58 230 93 0 52 -88 76 -186 50 -34 -9 -65 -16
-68 -16 -21 0 2 161 41 292 16 53 23 96 19 112 -12 49 -156 137 -220 135 -11
0 -31 -4 -43 -9z"/>
<path d="M1171 2651 c-9 -6 -17 -41 -22 -104 -24 -282 -219 -613 -613 -1040
-164 -177 -179 -212 -60 -141 139 83 310 238 458 413 59 70 71 80 77 65 4 -11
8 -179 8 -375 1 -394 -2 -425 -66 -673 l-35 -138 16 -62 c21 -78 66 -160 89
-164 28 -6 44 14 66 81 31 93 41 254 48 789 7 539 6 542 -56 602 l-29 28 33
52 c18 28 67 116 110 196 42 80 99 178 126 218 66 98 65 111 -20 194 -69 67
-97 80 -130 59z"/>
</g>
</svg>
