<?xml version="1.0" standalone="no"?>
<!DOCTYPE svg PUBLIC "-//W3C//DTD SVG 20010904//EN"
 "http://www.w3.org/TR/2001/REC-SVG-20010904/DTD/svg10.dtd">
<svg version="1.0" xmlns="http://www.w3.org/2000/svg"
 width="340.000000pt" height="340.000000pt" viewBox="0 0 340.000000 340.000000"
 preserveAspectRatio="xMidYMid meet">
<metadata>
Created by potrace 1.15, written by Peter Selinger 2001-2017
</metadata>
<g transform="translate(0.000000,340.000000) scale(0.100000,-0.100000)"
fill="#000000" stroke="none">
<path d="M1816 2717 c-16 -12 -15 -16 13 -72 47 -92 64 -173 65 -315 l1 -125
-145 -32 c-80 -17 -171 -37 -202 -43 -32 -6 -58 -15 -58 -20 0 -19 117 -32
230 -27 63 4 128 9 143 13 l28 6 -3 -133 -3 -134 -179 -38 c-176 -37 -181 -37
-215 -20 -20 9 -64 19 -98 21 -84 6 -88 -8 -30 -90 51 -73 102 -169 129 -247
10 -30 25 -65 33 -78 16 -24 53 -31 71 -13 12 12 242 55 250 47 8 -8 -23 -226
-41 -285 l-16 -53 -62 56 c-131 119 -245 175 -355 175 -52 0 -82 -14 -82 -39
0 -15 10 -21 50 -26 89 -12 221 -87 350 -197 42 -37 43 -39 29 -65 -26 -52
-184 -199 -285 -265 -54 -37 -147 -92 -207 -123 -155 -82 -125 -97 70 -34 181
59 335 153 467 288 l69 70 136 -123 c164 -148 327 -285 390 -327 45 -30 48
-31 131 -24 151 11 454 45 503 56 26 6 50 15 53 21 17 27 -70 59 -206 78 -198
27 -393 91 -610 201 -135 68 -350 201 -350 216 0 4 11 43 25 85 13 42 32 130
41 195 9 65 19 121 23 125 3 3 103 19 221 34 118 14 225 30 238 35 26 10 28
35 6 67 -15 22 -14 25 12 63 35 51 103 111 171 152 29 18 53 37 53 44 0 21
-61 83 -101 104 -21 10 -67 26 -103 34 -62 14 -66 14 -130 -10 -54 -20 -289
-75 -322 -75 -9 0 -3 255 6 262 3 3 66 16 140 31 209 40 330 83 330 117 0 18
-56 42 -109 47 -62 6 -179 -18 -293 -60 l-68 -25 0 24 c0 26 42 221 62 293
l13 44 -45 39 c-88 77 -188 109 -234 75z m502 -926 c2 -19 -1 -54 -8 -78 -15
-60 -67 -170 -84 -176 -21 -8 -246 -40 -250 -36 -2 2 2 65 8 139 l11 135 105
27 c65 17 126 26 160 25 55 -2 55 -2 58 -36z m-443 -128 c-4 -54 -10 -118 -14
-143 l-6 -45 -135 -16 c-74 -9 -137 -15 -139 -13 -6 5 -43 245 -39 250 6 5
288 62 316 63 l24 1 -7 -97z"/>
<path d="M1029 2588 c-1 -7 -3 -48 -5 -92 -11 -263 -190 -597 -566 -1059 -62
-77 -114 -143 -116 -148 -8 -22 27 -5 97 47 104 77 290 269 381 391 67 92 76
100 83 80 5 -12 7 -179 4 -372 -6 -378 -16 -487 -63 -653 -22 -77 -26 -106
-20 -161 7 -81 31 -164 52 -186 63 -62 114 96 133 415 15 243 35 903 28 931
-4 14 -25 47 -48 73 -22 25 -39 52 -36 59 8 22 239 371 284 429 l44 57 -25 49
c-35 69 -70 107 -119 131 -48 23 -106 28 -108 9z"/>
</g>
</svg>
