<?xml version="1.0" standalone="no"?>
<!DOCTYPE svg PUBLIC "-//W3C//DTD SVG 20010904//EN"
 "http://www.w3.org/TR/2001/REC-SVG-20010904/DTD/svg10.dtd">
<svg version="1.0" xmlns="http://www.w3.org/2000/svg"
 width="340.000000pt" height="340.000000pt" viewBox="0 0 340.000000 340.000000"
 preserveAspectRatio="xMidYMid meet">
<metadata>
Created by potrace 1.15, written by Peter Selinger 2001-2017
</metadata>
<g transform="translate(0.000000,340.000000) scale(0.100000,-0.100000)"
fill="#000000" stroke="none">
<path d="M1077 2663 c-2 -5 -7 -37 -11 -73 -31 -291 -231 -651 -600 -1080
-145 -169 -143 -190 7 -82 152 109 306 256 401 385 16 20 32 37 36 37 15 0 33
-230 33 -420 -1 -220 -11 -329 -54 -580 -32 -183 -32 -212 -2 -322 17 -62 43
-94 68 -84 42 16 78 160 95 376 11 138 31 648 34 850 1 112 -13 151 -82 216
l-44 42 89 144 c49 79 113 184 141 234 29 50 66 108 83 130 35 44 34 74 -3
125 -46 62 -175 130 -191 102z"/>
<path d="M2229 2455 c-69 -36 -255 -89 -417 -119 -79 -14 -154 -26 -167 -26
-13 0 -65 14 -115 31 -97 32 -143 35 -148 8 -2 -9 13 -43 33 -75 66 -109 133
-305 180 -526 9 -43 23 -85 32 -94 14 -14 17 -14 32 1 9 8 21 37 26 63 l10 47
122 17 c67 9 208 23 314 33 287 24 348 53 263 123 l-38 31 20 38 c18 35 144
168 213 225 l33 27 -23 33 c-53 78 -118 129 -202 158 -90 32 -117 32 -168 5z
m14 -145 c35 -27 41 -77 22 -182 -30 -173 -57 -206 -186 -231 -106 -21 -341
-50 -371 -45 -21 3 -24 12 -49 193 -15 114 -22 192 -17 196 6 4 39 9 74 12 35
4 130 20 211 36 235 48 278 50 316 21z"/>
<path d="M2193 1634 c-3 -9 4 -44 15 -78 39 -112 45 -177 37 -406 -5 -173 -4
-229 8 -286 33 -156 103 -241 227 -278 123 -37 367 -2 461 65 48 34 52 59 29
171 -12 57 -21 140 -21 196 -1 53 -5 106 -9 117 -7 18 -9 17 -20 -10 -7 -16
-21 -59 -31 -94 -56 -194 -100 -256 -200 -285 -156 -47 -289 6 -333 130 -38
105 -30 326 16 472 12 37 22 93 22 124 1 50 -3 61 -29 89 -67 71 -158 110
-172 73z"/>
<path d="M1845 1561 c-3 -6 3 -37 14 -69 11 -33 26 -112 33 -175 12 -124 4
-266 -28 -449 -14 -83 -14 -97 1 -163 9 -42 24 -80 35 -90 17 -16 19 -15 34 8
29 43 46 157 56 382 6 121 15 256 20 300 16 132 13 178 -12 202 -57 52 -136
80 -153 54z"/>
<path d="M1498 1540 c-15 -9 -15 -15 10 -68 52 -114 24 -289 -78 -497 -58
-118 -132 -212 -230 -291 -67 -54 -102 -94 -82 -94 56 0 214 102 301 195 113
122 181 254 232 453 16 63 36 126 44 142 26 50 19 73 -30 109 -76 55 -131 71
-167 51z"/>
</g>
</svg>
