<?xml version="1.0" standalone="no"?>
<!DOCTYPE svg PUBLIC "-//W3C//DTD SVG 20010904//EN"
 "http://www.w3.org/TR/2001/REC-SVG-20010904/DTD/svg10.dtd">
<svg version="1.0" xmlns="http://www.w3.org/2000/svg"
 width="340.000000pt" height="340.000000pt" viewBox="0 0 340.000000 340.000000"
 preserveAspectRatio="xMidYMid meet">
<metadata>
Created by potrace 1.15, written by Peter Selinger 2001-2017
</metadata>
<g transform="translate(0.000000,340.000000) scale(0.100000,-0.100000)"
fill="#000000" stroke="none">
<path d="M1785 2826 c-19 -14 -19 -15 2 -77 34 -98 44 -169 50 -354 l6 -170
-191 -27 c-262 -37 -284 -53 -138 -97 78 -24 149 -26 255 -7 l74 13 -7 -161
c-6 -158 -31 -434 -38 -442 -3 -2 -142 -21 -310 -42 -168 -22 -310 -42 -317
-46 -27 -17 -11 -47 37 -69 68 -31 152 -26 374 21 103 22 189 37 192 35 7 -7
-21 -94 -58 -182 -82 -195 -245 -381 -458 -525 -160 -108 -187 -140 -97 -116
132 35 319 150 446 273 125 122 208 251 258 405 10 28 20 52 24 51 3 0 55 -79
116 -174 155 -247 278 -418 365 -506 62 -62 82 -77 115 -82 63 -10 470 21 516
39 76 31 38 59 -131 95 -317 68 -612 268 -839 568 -77 102 -124 172 -119 177
8 7 239 24 473 34 127 5 244 13 260 18 69 19 25 108 -66 132 -68 19 -194 7
-427 -40 -117 -23 -216 -40 -219 -36 -4 3 1 93 10 198 9 106 20 239 23 294 l7
102 51 10 c28 6 96 20 151 31 265 54 305 67 305 100 0 30 -55 69 -107 77 -54
8 -216 -23 -321 -61 -37 -13 -68 -23 -69 -21 -9 9 22 279 39 339 11 40 21 90
21 112 2 36 -1 41 -37 61 -22 13 -69 30 -105 39 -36 9 -73 18 -82 20 -8 3 -24
-1 -34 -9z"/>
<path d="M999 2653 c0 -5 -1 -55 -3 -113 -2 -122 -18 -176 -101 -345 -82 -167
-242 -404 -425 -630 -82 -100 -110 -144 -110 -171 0 -13 4 -24 8 -24 43 0 301
253 416 408 38 50 72 92 76 92 15 0 20 -71 20 -304 -1 -407 -14 -534 -84 -827
l-26 -105 20 -78 c24 -96 53 -146 84 -146 30 0 50 24 71 85 37 112 45 219 56
787 12 626 14 600 -62 638 l-40 21 42 47 c22 26 69 92 102 146 34 55 96 146
139 203 43 57 78 111 78 121 0 40 -95 147 -163 185 -32 17 -96 24 -98 10z"/>
<path d="M2252 2058 c-5 -7 -12 -36 -14 -65 -5 -50 -41 -135 -117 -272 -59
-106 -26 -91 178 79 109 91 150 131 150 147 1 24 -49 67 -121 104 -43 22 -62
24 -76 7z"/>
<path d="M1377 1933 c-17 -17 -3 -69 48 -168 64 -126 88 -155 126 -155 51 0
92 104 69 174 -7 23 -28 47 -60 71 -67 49 -169 93 -183 78z"/>
</g>
</svg>
