<?xml version="1.0" standalone="no"?>
<!DOCTYPE svg PUBLIC "-//W3C//DTD SVG 20010904//EN"
 "http://www.w3.org/TR/2001/REC-SVG-20010904/DTD/svg10.dtd">
<svg version="1.0" xmlns="http://www.w3.org/2000/svg"
 width="340.000000pt" height="340.000000pt" viewBox="0 0 340.000000 340.000000"
 preserveAspectRatio="xMidYMid meet">
<metadata>
Created by potrace 1.15, written by Peter Selinger 2001-2017
</metadata>
<g transform="translate(0.000000,340.000000) scale(0.100000,-0.100000)"
fill="#000000" stroke="none">
<path d="M1541 2731 c-15 -10 -12 -17 68 -127 17 -23 64 -111 105 -197 l74
-156 -76 -32 c-42 -17 -93 -37 -112 -44 -78 -28 -231 -105 -226 -114 24 -38
193 -16 342 45 62 25 118 43 124 39 6 -3 33 -41 62 -83 28 -42 66 -96 85 -119
l34 -42 -121 -79 c-112 -75 -187 -115 -385 -208 -169 -79 27 -41 263 52 111
43 193 86 275 145 l38 28 86 -69 c140 -113 361 -206 513 -217 64 -5 78 -3 99
14 22 18 23 23 12 54 -15 46 -41 223 -41 282 0 26 -4 47 -9 47 -5 0 -17 -24
-27 -52 -23 -71 -68 -159 -90 -179 -17 -15 -26 -15 -82 -3 -66 14 -215 80
-313 139 l-59 37 42 35 c24 20 103 94 177 164 l134 129 -23 25 c-35 38 -103
67 -147 63 -36 -3 -38 -6 -56 -58 -25 -70 -92 -171 -155 -233 l-49 -48 -37 43
c-55 63 -137 191 -128 199 4 4 52 26 107 49 232 97 435 209 435 240 0 19 -61
40 -115 40 -73 0 -141 -28 -290 -122 -125 -78 -185 -112 -190 -106 -11 12 -46
154 -56 226 -18 141 -25 153 -94 179 -62 23 -168 30 -194 14z"/>
<path d="M1105 2706 c-17 -12 -19 -25 -16 -93 4 -138 -36 -271 -151 -497 -114
-224 -242 -396 -452 -609 -126 -129 -137 -153 -47 -108 120 62 342 261 451
405 64 86 65 86 74 59 6 -16 10 -167 10 -343 0 -334 -14 -509 -56 -717 -19
-99 -19 -106 -3 -179 20 -90 38 -136 60 -154 42 -35 89 53 105 200 10 84 26
618 33 1095 1 88 -12 125 -64 181 l-29 30 65 108 c36 60 95 167 131 239 37 72
80 149 95 170 16 22 29 45 29 52 0 22 -110 133 -153 154 -51 25 -57 25 -82 7z"/>
<path d="M2065 1515 c-192 -65 -351 -106 -543 -139 -79 -14 -147 -28 -152 -31
-40 -24 35 -45 164 -45 l99 0 -7 -55 c-9 -81 -41 -156 -107 -255 -66 -98 -219
-264 -328 -355 -39 -32 -71 -63 -71 -67 0 -19 54 -5 125 31 170 88 319 229
442 418 85 130 107 176 98 204 -4 11 -32 37 -63 57 l-57 36 115 18 c63 10 124
19 135 20 40 6 49 -54 50 -327 2 -264 7 -300 54 -392 67 -132 193 -193 397
-193 250 0 425 55 484 153 25 41 25 69 0 142 -11 33 -29 104 -40 159 -11 55
-24 104 -29 109 -15 15 -38 -32 -62 -123 -55 -209 -105 -246 -351 -257 -155
-7 -205 4 -265 60 -63 58 -78 112 -78 277 1 126 3 140 31 215 42 109 35 127
-73 170 -49 20 -54 24 -33 29 231 46 354 84 383 118 20 24 12 40 -34 64 -50
26 -115 16 -284 -41z"/>
</g>
</svg>
