<?xml version="1.0" standalone="no"?>
<!DOCTYPE svg PUBLIC "-//W3C//DTD SVG 20010904//EN"
 "http://www.w3.org/TR/2001/REC-SVG-20010904/DTD/svg10.dtd">
<svg version="1.0" xmlns="http://www.w3.org/2000/svg"
 width="340.000000pt" height="340.000000pt" viewBox="0 0 340.000000 340.000000"
 preserveAspectRatio="xMidYMid meet">
<metadata>
Created by potrace 1.15, written by Peter Selinger 2001-2017
</metadata>
<g transform="translate(0.000000,340.000000) scale(0.100000,-0.100000)"
fill="#000000" stroke="none">
<path d="M1046 2732 c-2 -4 -5 -39 -5 -77 0 -40 -11 -111 -25 -166 -74 -294
-242 -567 -558 -912 -105 -114 -121 -137 -96 -137 18 0 117 59 178 105 63 49
268 258 320 328 19 25 38 47 41 47 16 0 22 -64 26 -304 5 -279 -1 -378 -43
-641 -29 -181 -28 -260 5 -346 35 -91 77 -123 102 -76 40 72 42 114 46 732 l4
600 -33 49 c-18 27 -37 54 -42 61 -5 6 7 34 32 71 22 33 75 121 117 195 42 74
99 168 126 210 58 90 61 116 17 164 -64 68 -193 127 -212 97z"/>
<path d="M2474 2672 c-26 -17 -22 -44 16 -115 77 -147 83 -200 101 -1007 12
-547 7 -727 -21 -780 -18 -33 -52 -33 -150 0 -139 46 -152 32 -65 -70 30 -36
76 -102 102 -148 100 -172 100 -172 158 -115 88 86 130 250 127 498 -2 174
-17 478 -33 645 -5 58 -12 215 -16 350 -7 275 5 446 38 543 15 46 18 66 10 83
-12 28 -83 70 -168 101 -69 25 -82 27 -99 15z"/>
<path d="M1748 2383 c-93 -41 -195 -64 -281 -62 -123 2 -160 0 -167 -8 -5 -4
1 -42 12 -83 17 -61 22 -115 25 -286 5 -182 2 -230 -17 -365 -13 -84 -23 -181
-23 -214 0 -100 45 -173 88 -142 38 28 45 105 56 567 6 245 12 446 13 447 3 3
167 35 275 54 89 15 115 5 146 -56 19 -38 20 -60 20 -380 0 -228 -4 -373 -13
-441 -13 -98 -13 -102 8 -145 46 -90 81 -104 107 -41 13 31 17 114 24 485 8
442 14 511 45 542 22 21 10 48 -39 90 -39 33 -147 76 -186 74 -9 -1 -51 -17
-93 -36z"/>
<path d="M2198 2114 c-4 -3 -1 -18 6 -33 29 -56 40 -147 40 -326 0 -99 -6
-214 -12 -256 -12 -71 -11 -81 8 -135 21 -62 51 -101 69 -90 25 16 34 100 36
356 2 194 6 282 17 327 19 75 10 98 -47 130 -44 24 -106 38 -117 27z"/>
<path d="M1560 2082 c0 -5 7 -22 15 -39 27 -53 35 -132 35 -330 0 -277 -26
-423 -104 -588 -58 -122 -117 -196 -225 -284 -88 -71 -119 -106 -107 -119 4
-3 52 17 109 46 228 114 358 281 414 536 9 45 18 160 23 311 5 159 14 268 25
323 17 79 17 84 0 102 -31 34 -185 68 -185 42z"/>
<path d="M1706 1121 c-15 -23 80 -157 200 -283 60 -63 85 -71 125 -39 20 16
24 29 24 69 0 41 -6 57 -31 89 -45 56 -126 108 -213 138 -42 15 -81 29 -88 31
-6 3 -14 0 -17 -5z"/>
</g>
</svg>
