<?xml version="1.0" standalone="no"?>
<!DOCTYPE svg PUBLIC "-//W3C//DTD SVG 20010904//EN"
 "http://www.w3.org/TR/2001/REC-SVG-20010904/DTD/svg10.dtd">
<svg version="1.0" xmlns="http://www.w3.org/2000/svg"
 width="340.000000pt" height="340.000000pt" viewBox="0 0 340.000000 340.000000"
 preserveAspectRatio="xMidYMid meet">
<metadata>
Created by potrace 1.15, written by Peter Selinger 2001-2017
</metadata>
<g transform="translate(0.000000,340.000000) scale(0.100000,-0.100000)"
fill="#000000" stroke="none">
<path d="M1971 2801 c-12 -8 -10 -20 12 -73 54 -131 76 -279 84 -583 l6 -230
-88 -16 c-74 -13 -94 -14 -138 -2 -67 17 -81 16 -105 -4 l-21 -18 24 -57 c14
-32 29 -88 35 -125 32 -224 -14 -624 -101 -867 -21 -60 -39 -126 -39 -146 0
-49 28 -140 45 -146 67 -26 155 205 186 492 l13 114 80 -6 c131 -10 380 43
393 83 7 20 -53 43 -114 43 -32 0 -112 -11 -178 -25 -66 -14 -135 -25 -154
-25 -30 0 -33 2 -27 22 3 13 6 74 6 136 l0 112 114 0 c118 0 236 17 300 44 64
27 60 71 -8 93 -34 12 -53 9 -201 -27 -90 -22 -171 -40 -180 -40 -13 0 -15 18
-15 123 0 67 4 127 8 133 4 6 66 23 137 37 72 14 163 33 204 42 41 9 95 15
120 13 44 -3 47 -5 68 -48 49 -101 77 -370 77 -760 1 -360 -2 -376 -67 -366
-21 4 -65 18 -98 31 -99 42 -101 34 -25 -83 30 -45 73 -121 96 -167 42 -86 77
-125 112 -125 46 0 111 110 148 255 31 116 28 243 -11 535 -26 198 -32 282
-33 435 -1 178 0 193 22 236 12 25 22 50 22 56 0 6 -18 27 -39 46 -61 55 -189
85 -241 57 -17 -9 -201 -60 -216 -60 -13 0 16 419 42 624 l15 120 -43 44 c-24
24 -60 52 -80 63 -39 20 -122 26 -147 10z"/>
<path d="M1176 2734 c-12 -11 -16 -35 -16 -85 0 -138 -40 -301 -107 -434 -40
-78 -176 -287 -267 -409 -97 -130 -132 -172 -275 -324 -110 -118 -127 -140
-117 -149 9 -9 190 103 270 168 88 70 238 226 303 315 31 42 49 60 54 52 4 -7
15 -71 25 -143 15 -99 19 -183 18 -355 -2 -244 -13 -347 -65 -614 l-31 -161
21 -57 c24 -61 52 -102 82 -118 14 -8 23 -6 38 9 58 58 80 318 82 953 l1 408
-25 53 c-13 29 -38 69 -56 89 -17 20 -31 38 -31 41 0 3 41 71 90 152 50 81
106 178 125 216 19 37 48 83 63 101 40 45 52 71 52 108 0 52 -154 200 -208
200 -6 0 -18 -7 -26 -16z"/>
<path d="M2566 2625 c-11 -93 -57 -174 -171 -296 -74 -78 -93 -119 -57 -119
25 0 158 69 258 135 109 71 133 83 193 96 27 5 56 18 65 28 15 16 13 22 -23
73 -64 89 -142 138 -219 138 l-39 0 -7 -55z"/>
<path d="M1530 2353 c0 -28 119 -228 162 -272 47 -50 72 -52 98 -8 49 80 -4
183 -138 268 -54 34 -122 41 -122 12z"/>
</g>
</svg>
