<?xml version="1.0" standalone="no"?>
<!DOCTYPE svg PUBLIC "-//W3C//DTD SVG 20010904//EN"
 "http://www.w3.org/TR/2001/REC-SVG-20010904/DTD/svg10.dtd">
<svg version="1.0" xmlns="http://www.w3.org/2000/svg"
 width="340.000000pt" height="340.000000pt" viewBox="0 0 340.000000 340.000000"
 preserveAspectRatio="xMidYMid meet">
<metadata>
Created by potrace 1.15, written by Peter Selinger 2001-2017
</metadata>
<g transform="translate(0.000000,340.000000) scale(0.100000,-0.100000)"
fill="#000000" stroke="none">
<path d="M1897 2651 c-17 -6 -15 -12 21 -57 21 -27 65 -73 97 -101 62 -56 192
-127 220 -121 28 5 58 72 51 111 -9 47 -59 123 -93 141 -59 30 -246 47 -296
27z"/>
<path d="M1113 2588 c23 -235 -211 -659 -594 -1077 -57 -62 -110 -122 -117
-133 -35 -49 16 -27 153 66 99 67 271 234 375 364 40 50 67 76 71 69 15 -28
31 -217 36 -432 6 -258 -5 -385 -58 -650 -23 -113 -29 -164 -24 -205 14 -116
84 -213 119 -164 40 54 53 170 60 529 4 160 11 417 18 572 l11 281 -22 43
c-13 23 -38 61 -57 83 -19 22 -34 43 -34 47 0 4 22 37 48 72 27 35 71 100 97
146 27 45 77 116 112 159 35 42 63 81 63 85 0 21 -31 77 -61 112 -39 44 -119
85 -168 85 l-34 0 6 -52z"/>
<path d="M2615 2269 c-193 -48 -776 -139 -1083 -168 -117 -11 -210 -25 -218
-32 -13 -10 -12 -15 7 -35 11 -12 43 -32 71 -44 58 -25 54 -25 343 30 346 66
586 90 935 91 234 0 283 8 288 46 10 71 -215 144 -343 112z"/>
<path d="M2185 1850 c-49 -10 -135 -30 -190 -44 -55 -14 -142 -32 -194 -40
-52 -9 -96 -18 -99 -21 -21 -21 88 -65 164 -65 62 0 527 70 566 85 46 18 15
77 -51 95 -49 14 -91 11 -196 -10z"/>
<path d="M2165 1514 c-38 -8 -137 -31 -220 -51 -82 -19 -181 -39 -218 -43
-102 -12 -102 -25 3 -56 70 -21 168 -15 441 26 204 31 261 49 267 82 9 48
-142 71 -273 42z"/>
<path d="M2265 1175 c-210 -82 -424 -118 -569 -97 -149 22 -155 19 -112 -66
36 -72 75 -204 96 -329 22 -125 37 -169 68 -197 30 -26 50 -14 63 38 13 53
-15 47 329 76 215 19 326 33 373 46 28 9 20 44 -19 81 l-36 34 27 41 c15 23
66 81 113 130 85 89 86 90 71 116 -8 15 -35 41 -61 58 -51 34 -210 104 -236
104 -10 -1 -57 -16 -107 -35z m80 -129 c17 -12 18 -19 7 -109 -15 -118 -45
-205 -76 -217 -24 -9 -390 -60 -431 -60 -14 0 -26 7 -29 18 -10 36 -39 302
-34 308 7 6 243 51 338 63 106 14 204 13 225 -3z"/>
</g>
</svg>
