<?xml version="1.0" standalone="no"?>
<!DOCTYPE svg PUBLIC "-//W3C//DTD SVG 20010904//EN"
 "http://www.w3.org/TR/2001/REC-SVG-20010904/DTD/svg10.dtd">
<svg version="1.0" xmlns="http://www.w3.org/2000/svg"
 width="340.000000pt" height="340.000000pt" viewBox="0 0 340.000000 340.000000"
 preserveAspectRatio="xMidYMid meet">
<metadata>
Created by potrace 1.15, written by Peter Selinger 2001-2017
</metadata>
<g transform="translate(0.000000,340.000000) scale(0.100000,-0.100000)"
fill="#000000" stroke="none">
<path d="M1855 2977 c-4 -8 0 -35 8 -59 30 -87 30 -267 1 -425 l-6 -32 -176
-41 c-316 -74 -328 -80 -201 -102 56 -9 83 -7 212 17 82 15 150 25 151 23 2
-1 -11 -54 -28 -117 -36 -127 -32 -124 -131 -135 -93 -11 -226 -47 -222 -60 7
-20 81 -34 184 -35 l102 -1 -29 -84 c-44 -132 -29 -121 -192 -139 -79 -9 -179
-19 -223 -22 -100 -8 -157 -22 -153 -38 2 -7 28 -24 58 -39 67 -35 107 -35
270 -3 69 13 131 25 138 25 18 0 -69 -163 -165 -310 -91 -139 -170 -242 -252
-333 -34 -37 -59 -72 -56 -78 4 -5 18 -9 32 -9 52 0 163 104 317 296 l57 72
42 -21 c63 -30 156 -33 278 -8 116 23 285 51 312 51 16 0 17 -18 17 -233 0
-246 -10 -367 -38 -451 l-17 -51 -55 1 c-30 0 -76 4 -102 9 -90 15 -93 0 -20
-89 22 -26 52 -73 67 -104 36 -75 62 -102 97 -102 87 0 181 150 214 341 13 76
14 112 4 217 -6 70 -13 206 -17 304 l-6 176 64 6 c35 3 118 8 183 11 202 10
323 39 302 73 -3 6 -41 25 -84 43 -118 49 -190 45 -451 -27 l-24 -7 7 83 c9
108 -12 157 -87 204 l-50 31 54 7 c93 11 419 28 540 28 174 0 221 27 146 84
-94 72 -170 81 -347 41 -109 -25 -738 -135 -771 -135 -14 0 -11 13 17 81 18
45 34 89 37 99 3 13 29 21 113 34 252 40 414 88 414 122 0 8 -15 24 -32 35
-45 28 -152 21 -326 -21 -73 -18 -135 -30 -138 -28 -2 3 13 54 33 114 l38 109
180 37 c195 41 367 92 386 114 19 23 4 40 -45 53 -91 23 -134 16 -383 -61 -62
-20 -113 -32 -113 -28 0 18 84 270 107 323 l26 58 -20 27 c-44 59 -233 120
-248 79z m304 -1336 c27 -135 31 -170 21 -176 -31 -19 -571 -87 -585 -73 -3 3
11 29 31 59 20 30 61 105 90 166 41 84 60 114 77 118 12 3 90 18 172 34 l150
27 13 -29 c7 -16 21 -73 31 -126z"/>
<path d="M1123 2883 c-8 -3 -13 -23 -13 -46 -1 -67 -18 -173 -41 -240 -75
-225 -372 -672 -613 -925 -99 -103 -134 -152 -111 -152 12 0 112 54 155 84 70
47 204 180 299 296 l86 104 7 -59 c3 -33 10 -184 13 -335 8 -306 -4 -462 -50
-660 -31 -132 -31 -170 0 -267 67 -211 128 -185 145 64 10 130 45 1054 45
1173 0 78 -19 114 -71 136 l-34 14 68 91 c75 98 220 327 284 446 48 89 47 119
-7 193 -53 73 -113 103 -162 83z"/>
<path d="M1723 1224 c-7 -20 91 -223 132 -272 27 -32 28 -32 47 -15 31 28 48
68 48 113 0 35 -7 48 -44 88 -42 44 -99 80 -154 97 -16 4 -24 2 -29 -11z"/>
</g>
</svg>
