<?xml version="1.0" standalone="no"?>
<!DOCTYPE svg PUBLIC "-//W3C//DTD SVG 20010904//EN"
 "http://www.w3.org/TR/2001/REC-SVG-20010904/DTD/svg10.dtd">
<svg version="1.0" xmlns="http://www.w3.org/2000/svg"
 width="340.000000pt" height="340.000000pt" viewBox="0 0 340.000000 340.000000"
 preserveAspectRatio="xMidYMid meet">
<metadata>
Created by potrace 1.15, written by Peter Selinger 2001-2017
</metadata>
<g transform="translate(0.000000,340.000000) scale(0.100000,-0.100000)"
fill="#000000" stroke="none">
<path d="M1836 2834 c-14 -14 -8 -25 67 -117 89 -109 193 -197 232 -197 39 0
65 37 65 90 0 35 -8 59 -35 102 -34 53 -41 59 -114 87 -132 51 -190 61 -215
35z"/>
<path d="M1070 2810 c-6 -11 -8 -25 -5 -30 12 -19 -17 -177 -51 -280 -79 -236
-240 -491 -510 -807 -57 -67 -104 -124 -104 -127 0 -27 98 36 225 144 88 75
200 198 289 318 l61 83 7 -118 c14 -257 -8 -787 -43 -1043 -26 -183 -26 -249
-4 -328 18 -62 63 -118 89 -109 6 2 19 26 28 54 35 103 42 248 43 833 0 602
-2 639 -49 733 l-24 49 70 116 c38 64 96 170 129 234 58 114 59 119 46 150 -8
18 -42 59 -76 91 -67 61 -102 72 -121 37z"/>
<path d="M2516 2488 c-115 -60 -452 -148 -770 -203 -181 -30 -193 -31 -201 -5
-9 27 -54 80 -68 80 -7 0 -36 -49 -65 -108 -28 -59 -68 -136 -87 -170 -30 -55
-35 -73 -35 -132 0 -51 5 -73 18 -90 16 -20 21 -21 39 -9 30 18 98 124 145
227 22 48 41 88 41 89 1 1 97 18 212 38 116 19 332 60 480 90 347 69 365 71
365 50 0 -10 -27 -58 -60 -107 -58 -87 -71 -118 -51 -118 6 0 44 16 86 35 95
43 216 82 285 91 49 6 51 8 45 33 -18 73 -108 151 -225 194 -99 37 -111 38
-154 15z"/>
<path d="M2155 1980 c-60 -35 -162 -68 -260 -85 -68 -12 -77 -11 -141 11 -74
25 -134 31 -134 13 0 -6 11 -43 25 -80 45 -127 65 -251 72 -449 7 -245 -8
-465 -43 -595 -37 -137 -38 -159 -19 -259 20 -111 41 -156 72 -156 40 0 50 33
80 250 l8 55 60 7 c33 3 200 16 370 28 337 24 370 31 342 73 -7 12 -37 36 -65
52 -28 17 -51 34 -52 38 0 14 83 117 154 190 36 38 66 77 66 87 0 26 -74 87
-136 109 -94 36 -144 37 -209 7 -92 -44 -198 -67 -472 -102 l-43 -5 0 135 c0
75 3 136 8 136 13 0 527 90 545 96 9 3 17 10 17 15 0 12 -34 46 -75 76 l-29
21 100 100 c97 96 100 100 88 124 -24 46 -200 140 -256 137 -13 -1 -45 -14
-73 -29z m65 -136 c6 -14 10 -42 10 -63 0 -47 -36 -154 -58 -173 -9 -8 -84
-34 -167 -58 -82 -23 -156 -45 -162 -48 -10 -3 -13 32 -13 156 0 144 2 161 18
166 17 5 153 31 202 39 14 2 55 5 93 6 64 1 68 0 77 -25z m161 -705 c7 -13 8
-39 4 -68 -10 -67 -64 -231 -78 -236 -13 -5 -455 -65 -475 -65 -9 0 -12 46
-12 169 l0 169 83 11 c140 20 329 38 399 40 59 1 69 -2 79 -20z"/>
</g>
</svg>
