<?xml version="1.0" standalone="no"?>
<!DOCTYPE svg PUBLIC "-//W3C//DTD SVG 20010904//EN"
 "http://www.w3.org/TR/2001/REC-SVG-20010904/DTD/svg10.dtd">
<svg version="1.0" xmlns="http://www.w3.org/2000/svg"
 width="340.000000pt" height="340.000000pt" viewBox="0 0 340.000000 340.000000"
 preserveAspectRatio="xMidYMid meet">
<metadata>
Created by potrace 1.15, written by Peter Selinger 2001-2017
</metadata>
<g transform="translate(0.000000,340.000000) scale(0.100000,-0.100000)"
fill="#000000" stroke="none">
<path d="M1865 2747 c-18 -14 -18 -16 8 -74 41 -92 51 -209 50 -631 -1 -205
-3 -376 -6 -379 -3 -3 -104 -25 -223 -49 -176 -35 -225 -42 -258 -34 -65 14
-149 16 -153 3 -3 -7 7 -40 21 -75 37 -93 46 -175 46 -453 0 -190 4 -265 15
-308 18 -71 49 -133 70 -141 34 -13 38 38 40 461 1 227 4 415 7 418 19 20 633
130 927 166 l183 23 24 -27 c42 -49 55 -117 61 -322 8 -272 -26 -524 -76 -569
-19 -17 -23 -17 -60 -3 -21 9 -62 19 -91 23 -52 7 -52 7 -45 -17 4 -13 15 -37
25 -54 10 -16 34 -77 54 -135 57 -165 65 -175 122 -140 90 56 184 209 203 331
6 35 15 179 21 319 14 333 27 416 81 492 22 30 22 31 4 64 -24 44 -50 68 -110
97 -77 39 -170 60 -208 48 -18 -6 -126 -26 -242 -45 -115 -20 -232 -40 -260
-45 -27 -5 -52 -7 -54 -5 -8 7 19 434 35 577 18 159 38 250 64 295 11 18 20
39 20 47 0 22 -65 72 -142 108 -93 44 -128 52 -153 34z"/>
<path d="M1116 2618 c-2 -13 -9 -57 -15 -98 -46 -303 -269 -677 -620 -1040
-55 -58 -101 -108 -101 -112 0 -33 134 42 253 141 79 66 176 171 247 269 25
34 48 62 52 62 16 0 20 -108 15 -446 -4 -380 -9 -431 -63 -659 -29 -123 -27
-175 8 -257 37 -87 85 -89 117 -4 11 29 24 88 30 132 15 107 31 588 31 918 l0
269 -25 43 c-14 24 -35 50 -46 58 -21 14 -20 16 53 128 41 62 103 163 138 223
35 61 81 136 102 167 48 72 48 94 1 140 -89 84 -168 113 -177 66z"/>
<path d="M2477 2453 c-4 -3 -7 -23 -7 -43 0 -59 -43 -129 -150 -243 -146 -156
-134 -176 45 -75 61 34 161 89 224 122 63 34 119 68 124 77 15 24 -17 60 -104
118 -70 47 -115 62 -132 44z"/>
<path d="M1384 2145 c-11 -29 25 -83 124 -186 98 -102 131 -122 163 -93 43 39
30 130 -29 191 -68 69 -243 129 -258 88z"/>
<path d="M2098 1410 c-58 -31 -208 -71 -273 -73 -33 0 -84 3 -112 7 -68 11
-74 -2 -33 -80 20 -40 40 -105 59 -199 33 -156 42 -184 66 -209 24 -24 45 -3
45 44 0 46 -15 42 253 77 129 17 207 31 207 38 0 7 -11 22 -25 35 -14 13 -25
30 -25 37 0 27 43 98 90 147 47 50 48 52 35 82 -22 54 -99 95 -200 108 -39 4
-58 1 -87 -14z m46 -112 c21 -29 21 -116 0 -168 -23 -57 -100 -93 -230 -106
l-62 -7 -15 69 c-9 38 -19 95 -22 126 l-7 57 43 11 c82 22 174 38 226 39 43 1
55 -3 67 -21z"/>
</g>
</svg>
