<?xml version="1.0" standalone="no"?>
<!DOCTYPE svg PUBLIC "-//W3C//DTD SVG 20010904//EN"
 "http://www.w3.org/TR/2001/REC-SVG-20010904/DTD/svg10.dtd">
<svg version="1.0" xmlns="http://www.w3.org/2000/svg"
 width="340.000000pt" height="340.000000pt" viewBox="0 0 340.000000 340.000000"
 preserveAspectRatio="xMidYMid meet">
<metadata>
Created by potrace 1.15, written by Peter Selinger 2001-2017
</metadata>
<g transform="translate(0.000000,340.000000) scale(0.100000,-0.100000)"
fill="#000000" stroke="none">
<path d="M1034 2634 c-7 -3 -10 -28 -7 -72 13 -173 -88 -466 -249 -726 -64
-103 -194 -275 -296 -394 -108 -124 -123 -168 -40 -119 104 62 305 264 431
435 l62 83 8 -133 c10 -168 2 -614 -13 -733 -11 -81 -26 -147 -62 -272 -30
-104 60 -310 116 -264 44 37 58 245 60 871 l1 516 -33 41 -33 42 34 53 c19 29
78 136 132 238 53 102 107 199 120 215 12 17 24 37 27 45 14 39 -45 96 -159
154 -50 25 -75 30 -99 20z"/>
<path d="M2106 2580 c-91 -51 -229 -96 -341 -111 -49 -6 -94 -16 -100 -21 -15
-14 48 -66 88 -73 24 -5 66 3 143 25 268 79 264 79 264 1 0 -44 -58 -233 -77
-252 -9 -9 -358 -67 -538 -90 -55 -6 -104 -15 -108 -19 -15 -13 5 -39 47 -60
l43 -20 138 25 c76 14 145 23 152 21 51 -20 -33 -238 -172 -446 -42 -63 -88
-133 -101 -156 -24 -41 -31 -74 -16 -74 22 0 154 127 207 199 54 73 63 81 85
75 14 -4 50 -12 80 -19 50 -10 55 -14 63 -46 10 -38 2 -248 -10 -260 -5 -4
-116 -24 -248 -44 -132 -19 -246 -37 -252 -40 -29 -10 -9 -25 60 -46 81 -24
166 -23 331 6 48 9 90 14 93 11 8 -8 -36 -134 -71 -205 -90 -179 -243 -314
-454 -401 -126 -52 -144 -76 -54 -72 95 3 230 49 340 114 134 79 264 246 314
403 12 41 26 75 29 75 4 0 30 -37 60 -82 83 -129 305 -439 345 -482 l36 -39
146 6 c161 6 322 24 343 38 24 16 -15 36 -150 78 -235 75 -388 165 -541 320
-93 94 -216 259 -202 273 14 14 283 39 485 45 218 6 237 11 237 53 0 44 -138
110 -230 110 -20 0 -136 -24 -256 -54 -120 -30 -220 -54 -221 -52 -3 3 25 174
32 195 5 17 -25 51 -73 83 -23 15 -21 16 50 28 192 30 448 109 448 137 -1 34
-47 53 -132 53 -56 0 -85 -6 -126 -25 -104 -48 -271 -92 -391 -102 -65 -5 -74
-4 -65 8 118 148 164 214 164 233 0 23 -46 72 -100 107 -23 15 -19 16 101 32
155 21 362 43 541 57 76 6 151 13 168 16 65 13 20 72 -76 100 -50 14 -60 14
-181 -10 -191 -37 -233 -41 -233 -24 0 32 103 179 166 236 61 56 65 62 53 84
-35 69 -127 118 -217 118 -36 -1 -64 -10 -116 -40z"/>
<path d="M1215 1960 c-3 -6 6 -41 22 -78 l28 -67 -2 -220 c-2 -121 -8 -263
-15 -315 -24 -174 -5 -290 48 -298 48 -7 64 108 64 450 0 147 5 301 11 343 14
94 8 108 -68 158 -58 38 -77 44 -88 27z"/>
</g>
</svg>
