<?xml version="1.0" standalone="no"?>
<!DOCTYPE svg PUBLIC "-//W3C//DTD SVG 20010904//EN"
 "http://www.w3.org/TR/2001/REC-SVG-20010904/DTD/svg10.dtd">
<svg version="1.0" xmlns="http://www.w3.org/2000/svg"
 width="340.000000pt" height="340.000000pt" viewBox="0 0 340.000000 340.000000"
 preserveAspectRatio="xMidYMid meet">
<metadata>
Created by potrace 1.15, written by Peter Selinger 2001-2017
</metadata>
<g transform="translate(0.000000,340.000000) scale(0.100000,-0.100000)"
fill="#000000" stroke="none">
<path d="M1166 2654 c-11 -10 -16 -33 -16 -67 0 -67 -40 -232 -83 -344 -108
-278 -251 -486 -524 -764 -84 -85 -153 -158 -153 -162 0 -28 125 33 230 111
104 77 212 189 311 321 45 61 87 107 91 103 19 -19 28 -141 28 -379 0 -285
-11 -397 -66 -653 -23 -105 -34 -179 -31 -204 7 -48 75 -186 100 -201 37 -21
62 43 77 200 12 120 40 893 40 1087 l0 137 -46 57 -46 56 38 61 c54 88 191
300 246 381 27 38 48 77 48 85 0 33 -52 91 -126 140 -82 55 -95 59 -118 35z"/>
<path d="M2275 2565 c-109 -52 -381 -104 -592 -112 -133 -5 -143 -7 -143 -25
0 -11 9 -33 20 -48 26 -36 99 -256 144 -432 36 -140 53 -185 81 -208 13 -11
20 -9 43 12 24 23 42 27 167 41 294 33 263 33 293 -3 35 -42 51 -34 107 49 50
77 72 122 125 272 38 103 77 180 126 244 l24 32 -28 39 c-98 135 -254 194
-367 139z m81 -103 c24 -15 34 -54 34 -124 0 -124 -68 -396 -108 -431 -11 -10
-82 -24 -217 -41 -110 -14 -207 -26 -215 -26 -11 0 -20 23 -32 78 -31 139 -32
152 -15 152 44 0 271 35 336 51 118 30 154 66 90 88 -49 17 -143 13 -207 -8
-128 -42 -243 -69 -246 -58 -2 7 -14 57 -26 112 -13 55 -25 105 -27 111 -4 10
226 58 422 88 101 16 194 19 211 8z"/>
<path d="M2540 1636 c-40 -22 -237 -62 -495 -101 -132 -20 -286 -45 -343 -54
-92 -16 -110 -17 -169 -5 -36 8 -74 12 -85 9 -25 -9 -23 -50 6 -100 57 -96 87
-239 111 -513 16 -192 42 -287 80 -287 16 0 23 11 32 49 7 26 14 51 17 53 13
13 687 86 696 76 14 -17 50 -121 65 -188 31 -140 49 -154 110 -83 92 107 139
265 170 578 18 173 45 269 95 331 35 44 37 67 10 102 -38 48 -218 148 -264
147 -6 -1 -22 -7 -36 -14z m-30 -154 c62 -30 72 -66 65 -227 -12 -279 -46
-454 -90 -471 -11 -5 -32 9 -65 41 -48 47 -51 49 -107 47 -32 -1 -183 -23
-336 -48 -169 -29 -281 -44 -286 -38 -10 9 -40 283 -34 297 2 4 58 7 124 7
207 0 414 30 516 75 45 21 54 28 51 47 -8 58 -75 58 -325 4 -187 -41 -361 -71
-368 -65 -7 7 -26 231 -20 237 12 13 502 93 640 105 117 10 201 6 235 -11z"/>
</g>
</svg>
