<?xml version="1.0" standalone="no"?>
<!DOCTYPE svg PUBLIC "-//W3C//DTD SVG 20010904//EN"
 "http://www.w3.org/TR/2001/REC-SVG-20010904/DTD/svg10.dtd">
<svg version="1.0" xmlns="http://www.w3.org/2000/svg"
 width="340.000000pt" height="340.000000pt" viewBox="0 0 340.000000 340.000000"
 preserveAspectRatio="xMidYMid meet">
<metadata>
Created by potrace 1.15, written by Peter Selinger 2001-2017
</metadata>
<g transform="translate(0.000000,340.000000) scale(0.100000,-0.100000)"
fill="#000000" stroke="none">
<path d="M1723 2824 c-4 -10 2 -32 14 -53 11 -20 26 -63 34 -96 19 -87 16
-335 -5 -492 l-19 -133 -27 0 c-36 0 -312 -69 -325 -82 -16 -16 30 -45 82 -53
43 -5 145 9 221 31 18 5 22 3 22 -18 0 -31 -38 -180 -48 -189 -10 -11 -300
-68 -382 -75 -38 -4 -78 -12 -87 -19 -15 -11 -14 -14 13 -28 16 -8 55 -22 86
-30 62 -16 101 -11 256 32 40 11 72 18 72 15 0 -14 -50 -99 -104 -179 -78
-115 -279 -318 -416 -419 -138 -101 -156 -131 -63 -105 58 16 312 183 400 263
33 31 64 56 67 56 3 0 13 -15 23 -32 16 -29 19 -70 23 -313 l5 -280 28 -48
c60 -101 167 -146 367 -154 204 -9 395 30 488 98 57 42 61 64 22 132 -17 30
-37 86 -45 125 -18 83 -24 102 -36 102 -12 0 -34 -46 -53 -113 -32 -111 -101
-158 -281 -188 -66 -11 -200 -8 -288 7 -83 15 -117 86 -117 246 1 111 25 347
37 358 16 16 199 51 248 48 l50 -3 3 -63 c3 -66 -19 -165 -40 -178 -6 -4 -38
-7 -70 -6 -32 1 -58 -1 -58 -4 0 -33 135 -184 164 -184 44 0 78 61 100 179 18
91 44 158 81 207 l25 33 -52 57 c-81 88 -157 108 -223 58 -43 -32 -113 -59
-194 -74 -53 -9 -70 -9 -114 6 -29 9 -53 18 -55 19 -2 2 23 43 56 92 32 50 82
135 110 191 l52 100 53 12 c28 6 70 13 92 16 l40 6 116 -144 c144 -176 310
-360 375 -413 114 -95 139 -102 290 -86 201 22 325 53 302 76 -3 4 -51 18
-105 31 -159 40 -250 73 -378 134 -138 67 -227 124 -340 221 -76 64 -192 186
-184 193 2 2 92 13 199 25 107 12 235 25 284 31 49 5 93 13 97 17 14 14 -30
74 -66 89 -59 24 -141 17 -336 -30 -230 -56 -398 -91 -404 -85 -2 3 4 32 14
64 10 33 22 83 26 111 l6 51 97 18 c127 24 311 69 368 91 50 19 55 40 14 61
-43 22 -129 15 -275 -23 -77 -20 -152 -39 -167 -41 -26 -5 -27 -4 -18 27 5 18
21 114 35 214 14 100 35 214 45 254 11 40 20 81 20 92 0 32 -55 85 -122 118
-88 43 -116 49 -125 26z"/>
<path d="M946 2651 c-3 -5 -1 -22 5 -39 8 -23 6 -53 -5 -120 -51 -296 -218
-599 -508 -924 -78 -87 -106 -132 -88 -143 13 -8 45 10 115 66 100 79 219 208
342 369 11 14 21 -33 26 -128 7 -138 -8 -674 -23 -776 -6 -43 -23 -118 -37
-165 -37 -122 -37 -132 -17 -217 20 -86 49 -138 81 -142 48 -7 79 114 93 364
13 242 25 970 16 1017 -4 23 -22 53 -47 79 l-39 42 44 67 c25 36 74 121 110
188 36 67 93 165 127 219 60 96 60 97 45 128 -16 35 -89 90 -146 110 -41 15
-87 18 -94 5z"/>
<path d="M2251 2556 c-17 -35 -59 -95 -94 -132 -35 -38 -71 -80 -80 -94 -44
-64 0 -66 108 -4 44 25 128 70 187 100 58 29 109 57 112 63 12 18 -39 64 -108
97 -39 19 -76 34 -82 34 -6 0 -25 -29 -43 -64z"/>
<path d="M1362 2394 c-14 -27 6 -72 67 -148 58 -72 93 -95 115 -77 22 18 31
96 17 143 -11 34 -20 43 -66 64 -77 36 -120 41 -133 18z"/>
</g>
</svg>
