<?xml version="1.0" standalone="no"?>
<!DOCTYPE svg PUBLIC "-//W3C//DTD SVG 20010904//EN"
 "http://www.w3.org/TR/2001/REC-SVG-20010904/DTD/svg10.dtd">
<svg version="1.0" xmlns="http://www.w3.org/2000/svg"
 width="340.000000pt" height="340.000000pt" viewBox="0 0 340.000000 340.000000"
 preserveAspectRatio="xMidYMid meet">
<metadata>
Created by potrace 1.15, written by Peter Selinger 2001-2017
</metadata>
<g transform="translate(0.000000,340.000000) scale(0.100000,-0.100000)"
fill="#000000" stroke="none">
<path d="M1861 2726 c-23 -28 -3 -64 92 -160 72 -73 102 -97 136 -107 42 -13
44 -12 67 15 35 40 32 92 -9 151 -28 41 -44 52 -107 78 -92 37 -160 46 -179
23z"/>
<path d="M1113 2678 c-6 -7 -13 -51 -16 -98 -20 -293 -254 -693 -648 -1107
-93 -97 -94 -115 -3 -64 127 73 329 253 448 400 l51 63 9 -63 c11 -77 -8 -580
-29 -743 -7 -61 -26 -163 -40 -226 -22 -94 -26 -130 -22 -197 11 -164 92 -259
139 -163 34 71 68 421 68 700 0 74 5 217 11 317 16 246 -1 353 -66 408 l-24
20 69 103 c38 57 108 168 154 245 47 78 100 164 119 190 42 59 39 74 -20 127
-86 76 -178 116 -200 88z"/>
<path d="M2475 2429 c-169 -40 -575 -110 -893 -153 -30 -5 -33 -2 -58 50 -14
30 -31 54 -39 54 -7 0 -24 -28 -38 -62 -14 -35 -47 -109 -72 -165 -93 -204
-60 -322 59 -213 36 34 50 58 80 139 20 54 36 103 36 109 0 21 38 32 211 56
337 48 535 69 654 70 l120 1 3 -31 c2 -21 -11 -63 -37 -122 -23 -49 -41 -92
-41 -96 0 -13 24 -4 123 43 62 30 133 56 182 66 44 9 90 20 103 26 l23 9 -20
38 c-37 73 -131 139 -260 183 -30 11 -55 19 -55 18 -1 0 -37 -9 -81 -20z"/>
<path d="M2033 2100 c-55 -100 -128 -163 -278 -239 -58 -30 -82 -38 -91 -30
-22 18 -105 39 -130 33 -32 -8 -31 -38 1 -151 31 -105 71 -318 81 -424 l7 -77
-49 -6 c-27 -3 -123 -13 -214 -21 -91 -9 -169 -17 -174 -18 -13 -4 43 -66 73
-81 51 -26 91 -26 214 -1 296 58 709 87 1082 74 275 -10 315 -8 335 15 34 42
-52 111 -183 146 -97 26 -162 24 -373 -15 -131 -25 -174 -30 -174 -20 0 2 7
52 16 110 14 96 14 108 0 137 -9 17 -15 32 -14 33 2 1 83 18 181 38 98 19 185
41 193 48 56 46 -59 118 -168 106 -26 -3 -94 -20 -150 -38 -57 -17 -197 -56
-313 -85 -242 -61 -228 -64 -223 55 l3 66 105 47 c123 55 288 116 415 154 50
14 93 28 97 31 13 7 -20 60 -49 81 -33 23 -100 47 -160 57 -41 6 -44 5 -60
-25z m-9 -572 c3 -13 9 -79 12 -148 l7 -126 -159 -16 c-87 -9 -160 -15 -161
-14 -3 3 -33 273 -33 298 0 19 5 20 63 15 34 -3 96 -2 137 2 126 13 127 13
134 -11z"/>
<path d="M1658 1010 c-10 -6 -27 -42 -38 -79 -30 -103 -116 -207 -290 -355
l-45 -38 68 5 c86 6 175 48 298 141 93 70 239 203 239 217 0 17 -61 77 -93 92
-43 21 -118 30 -139 17z"/>
<path d="M2183 974 c-7 -3 -13 -12 -13 -21 0 -16 424 -458 448 -468 8 -3 29
10 48 29 30 30 34 40 34 85 0 57 -16 102 -60 172 -27 41 -43 52 -157 107 -168
80 -265 111 -300 96z"/>
</g>
</svg>
