<?xml version="1.0" standalone="no"?>
<!DOCTYPE svg PUBLIC "-//W3C//DTD SVG 20010904//EN"
 "http://www.w3.org/TR/2001/REC-SVG-20010904/DTD/svg10.dtd">
<svg version="1.0" xmlns="http://www.w3.org/2000/svg"
 width="340.000000pt" height="340.000000pt" viewBox="0 0 340.000000 340.000000"
 preserveAspectRatio="xMidYMid meet">
<metadata>
Created by potrace 1.15, written by Peter Selinger 2001-2017
</metadata>
<g transform="translate(0.000000,340.000000) scale(0.100000,-0.100000)"
fill="#000000" stroke="none">
<path d="M1781 2976 c-10 -12 -11 -23 -2 -48 22 -63 30 -170 20 -271 -15 -150
-5 -139 -161 -166 -189 -32 -214 -39 -197 -56 34 -31 115 -47 214 -39 113 8
111 14 60 -117 -146 -378 -368 -658 -679 -854 l-59 -38 7 189 c3 104 11 218
16 254 10 72 -1 106 -60 180 l-28 35 95 170 c105 188 192 326 230 367 19 20
23 32 18 49 -11 34 -113 138 -158 161 -51 25 -75 17 -82 -30 -51 -362 -203
-673 -559 -1150 -58 -78 -102 -142 -97 -142 5 0 42 22 82 48 85 56 218 191
338 342 46 58 88 107 92 108 12 5 11 -290 -1 -543 -7 -143 -18 -252 -40 -380
-59 -339 -56 -306 -31 -372 27 -70 66 -123 90 -123 40 0 56 87 71 371 6 118
13 260 16 315 l6 102 84 41 c102 51 236 139 324 215 36 31 68 56 72 56 13 0
28 -68 68 -300 22 -129 40 -238 40 -242 0 -5 9 -8 21 -8 14 0 24 10 32 30 13
35 28 41 118 43 l64 2 13 -50 c16 -59 28 -348 18 -427 -4 -31 -13 -64 -21 -74
-13 -18 -16 -18 -98 -1 -47 9 -94 17 -106 17 -19 0 -20 -3 -10 -22 6 -13 28
-40 48 -61 20 -21 65 -77 101 -125 40 -53 73 -88 86 -90 31 -4 99 69 124 135
25 66 27 131 16 423 l-9 215 -43 41 -44 41 62 7 c97 10 125 7 168 -15 37 -19
42 -20 64 -6 13 9 38 50 57 94 19 43 64 138 100 211 l65 133 -16 37 c-23 50
-84 104 -164 142 -77 36 -79 36 -171 15 -68 -15 -507 -75 -513 -69 -2 1 17 27
42 58 101 124 209 310 261 448 l17 47 187 -177 c306 -291 481 -441 562 -482
44 -23 107 -25 226 -10 88 12 199 37 227 52 32 17 0 33 -139 71 -144 39 -279
89 -400 150 -103 51 -285 157 -285 165 0 4 81 54 180 111 99 58 180 108 180
112 0 18 -69 96 -100 112 -28 15 -40 17 -63 8 -15 -6 -30 -19 -33 -28 -21 -69
-58 -125 -130 -201 l-81 -87 -79 59 c-187 140 -243 201 -225 249 6 15 21 29
33 32 13 2 87 19 165 35 138 30 229 56 272 80 30 16 11 46 -37 60 -71 19 -132
12 -264 -31 -71 -24 -131 -39 -135 -35 -12 12 47 229 78 285 16 30 27 62 24
71 -7 21 -125 77 -180 86 -31 4 -44 2 -54 -10z m389 -1251 c16 -20 7 -210 -15
-305 -25 -106 -43 -139 -84 -150 -40 -11 -358 -50 -407 -50 l-32 0 -6 68 c-4
37 -9 86 -13 110 l-5 42 46 0 c117 0 379 40 391 60 3 4 -9 20 -27 35 -38 32
-57 31 -253 -9 -71 -14 -137 -26 -146 -26 -19 0 -24 17 -35 111 l-6 56 119 23
c268 50 449 63 473 35z"/>
<path d="M1230 2181 c0 -36 140 -231 176 -245 55 -21 79 14 71 103 -3 45 -9
59 -35 82 -44 40 -212 87 -212 60z"/>
<path d="M1428 1063 c-8 -10 -23 -34 -33 -53 -10 -19 -45 -71 -78 -115 -74
-99 -96 -146 -97 -207 0 -59 7 -78 31 -78 48 0 174 163 204 263 18 62 20 167
2 191 -12 16 -13 16 -29 -1z"/>
<path d="M2177 1013 c-17 -16 -2 -40 66 -110 70 -73 226 -212 277 -246 13 -9
34 -17 47 -17 47 0 50 119 4 207 -40 78 -106 118 -242 146 -110 23 -145 28
-152 20z"/>
</g>
</svg>
