<?xml version="1.0" standalone="no"?>
<!DOCTYPE svg PUBLIC "-//W3C//DTD SVG 20010904//EN"
 "http://www.w3.org/TR/2001/REC-SVG-20010904/DTD/svg10.dtd">
<svg version="1.0" xmlns="http://www.w3.org/2000/svg"
 width="340.000000pt" height="340.000000pt" viewBox="0 0 340.000000 340.000000"
 preserveAspectRatio="xMidYMid meet">
<metadata>
Created by potrace 1.15, written by Peter Selinger 2001-2017
</metadata>
<g transform="translate(0.000000,340.000000) scale(0.100000,-0.100000)"
fill="#000000" stroke="none">
<path d="M2110 2730 c-69 -21 -203 -55 -297 -76 -160 -35 -173 -39 -173 -60 0
-31 39 -44 140 -46 l85 -3 12 -38 c7 -21 16 -76 19 -121 l7 -83 -74 -17 c-41
-9 -137 -27 -214 -41 l-139 -25 -41 40 c-48 47 -72 51 -81 13 -17 -76 -29
-116 -61 -211 -28 -81 -34 -113 -30 -147 8 -53 25 -92 45 -100 20 -8 73 44
101 99 23 47 61 185 61 222 0 25 32 35 255 74 66 11 132 23 147 26 l26 5 -5
-193 c-3 -106 -3 -219 1 -250 7 -56 38 -117 64 -126 34 -11 55 124 70 438 l7
155 90 17 c149 28 302 48 375 48 58 0 71 -3 80 -19 17 -33 11 -67 -25 -135
-19 -37 -35 -68 -35 -71 0 -15 49 0 141 44 57 26 134 56 172 66 76 20 82 30
44 86 -33 49 -105 93 -212 128 -110 37 -119 37 -177 11 -54 -23 -200 -63 -350
-95 -124 -26 -120 -29 -92 65 20 67 11 89 -53 126 l-47 28 34 8 c19 4 73 14
120 23 96 18 228 57 280 83 26 13 35 24 35 42 0 62 -120 66 -305 10z"/>
<path d="M1072 2683 c2 -82 -48 -234 -136 -408 -104 -206 -242 -406 -436 -630
-107 -124 -133 -160 -129 -174 6 -15 120 56 203 126 72 59 241 249 324 361 44
60 47 61 56 40 15 -34 10 -349 -8 -540 -9 -92 -27 -225 -41 -296 -34 -173 -55
-324 -55 -398 0 -49 6 -73 33 -125 26 -53 36 -64 57 -64 55 0 84 124 106 460
8 127 18 379 21 561 l6 330 -37 86 -37 86 111 172 c60 94 137 207 170 249 33
43 60 84 60 93 0 41 -135 118 -222 126 l-48 5 2 -60z"/>
<path d="M2160 2152 c-40 -12 -30 -31 39 -73 86 -52 149 -75 169 -63 48 31 39
88 -19 117 -41 19 -150 30 -189 19z"/>
<path d="M1550 2025 c-10 -12 -7 -20 20 -45 41 -38 132 -90 158 -90 11 0 22 6
25 13 6 17 -17 86 -36 104 -30 31 -146 43 -167 18z"/>
<path d="M2153 1890 c-30 -12 -29 -31 5 -63 57 -55 165 -85 192 -52 15 18 5
67 -18 88 -32 30 -135 45 -179 27z"/>
<path d="M1513 1764 c-19 -8 -16 -38 5 -57 25 -22 123 -67 149 -67 38 0 53 11
53 41 0 15 -11 40 -24 56 -22 25 -31 28 -97 30 -41 1 -80 0 -86 -3z"/>
<path d="M2150 1610 c-206 -53 -409 -95 -550 -115 -128 -17 -150 -22 -150 -35
0 -29 146 -43 269 -26 l64 9 -6 -56 c-10 -104 -84 -227 -135 -227 -15 0 -64
-7 -110 -15 -66 -11 -98 -12 -167 -3 -109 15 -120 7 -77 -57 41 -63 52 -120
61 -320 7 -172 12 -195 50 -229 27 -24 43 -11 61 46 16 54 16 250 0 381 -6 55
-9 101 -7 103 4 4 177 33 200 34 4 0 7 -28 7 -62 0 -84 18 -274 31 -321 13
-50 39 -46 57 8 16 49 36 272 29 338 -5 55 -22 46 158 81 l120 23 9 -31 c15
-55 -1 -292 -30 -433 -35 -173 -23 -226 33 -144 38 56 72 162 93 291 11 69 24
143 30 165 16 67 12 92 -20 129 -30 34 -30 34 -8 39 40 10 257 37 298 37 87 0
116 -31 132 -141 19 -124 -22 -349 -71 -393 -17 -15 -23 -15 -62 -2 -59 20
-149 31 -149 19 0 -5 19 -36 42 -68 23 -32 56 -92 74 -134 18 -41 41 -86 52
-100 l18 -25 36 22 c107 66 172 184 194 354 20 155 50 278 85 346 16 31 29 63
29 70 0 7 -20 35 -45 61 -51 54 -141 100 -202 103 -21 1 -130 -17 -243 -40
-246 -50 -558 -104 -571 -100 -6 2 28 38 75 81 46 43 88 86 91 97 4 13 -2 34
-15 55 -25 41 -29 38 85 55 130 19 325 59 393 81 47 16 62 25 62 39 0 27 -30
40 -103 45 -50 4 -91 -2 -217 -35z"/>
</g>
</svg>
