<?xml version="1.0" standalone="no"?>
<!DOCTYPE svg PUBLIC "-//W3C//DTD SVG 20010904//EN"
 "http://www.w3.org/TR/2001/REC-SVG-20010904/DTD/svg10.dtd">
<svg version="1.0" xmlns="http://www.w3.org/2000/svg"
 width="340.000000pt" height="340.000000pt" viewBox="0 0 340.000000 340.000000"
 preserveAspectRatio="xMidYMid meet">
<metadata>
Created by potrace 1.15, written by Peter Selinger 2001-2017
</metadata>
<g transform="translate(0.000000,340.000000) scale(0.100000,-0.100000)"
fill="#000000" stroke="none">
<path d="M1563 2813 c-18 -7 -16 -20 8 -69 43 -89 46 -258 8 -409 l-11 -42
-156 -37 c-86 -20 -190 -43 -230 -51 -115 -23 -139 -43 -79 -64 79 -28 204
-24 418 16 l26 5 -38 -167 c-21 -92 -39 -168 -41 -170 -2 -1 -61 -12 -132 -24
-114 -19 -137 -20 -201 -10 -118 20 -128 6 -65 -98 43 -71 96 -202 130 -323
21 -70 43 -110 61 -110 5 0 24 13 42 30 50 43 61 40 52 -17 -10 -71 -55 -180
-105 -253 -121 -179 -304 -321 -623 -483 l-142 -72 48 -3 c91 -6 332 73 473
155 203 119 338 263 492 521 18 29 32 59 32 66 0 7 -29 34 -65 60 -36 26 -65
51 -65 55 0 4 62 15 138 23 159 18 154 20 173 -71 13 -62 7 -228 -12 -351 -41
-264 60 -426 311 -497 101 -28 445 -25 590 6 198 42 310 116 310 204 0 14 -13
71 -30 128 -16 56 -37 148 -45 203 -9 56 -19 112 -22 126 l-5 25 -9 -23 c-5
-12 -11 -53 -14 -90 -21 -238 -111 -358 -303 -407 -40 -11 -120 -16 -248 -18
-207 -2 -260 7 -339 58 -116 76 -121 156 -34 545 18 82 9 103 -62 146 -74 46
-74 46 117 69 77 10 147 21 157 26 25 14 21 44 -9 68 l-26 20 23 33 c50 72
106 132 164 175 33 25 63 51 68 58 14 26 -52 84 -147 130 -51 25 -101 45 -113
45 -12 0 -43 -9 -70 -21 -53 -23 -259 -75 -335 -85 -48 -7 -49 -6 -43 17 3 13
25 91 48 174 l42 149 35 8 c19 4 100 19 180 33 212 37 356 74 385 97 53 41 10
89 -97 108 -68 13 -150 -2 -330 -60 -67 -21 -124 -38 -125 -36 -6 5 65 230 98
313 l31 78 -29 23 c-54 46 -124 72 -188 71 -33 0 -66 -3 -72 -6z m388 -1013
c35 -19 21 -96 -44 -240 -14 -31 -32 -61 -40 -68 -8 -7 -50 -21 -93 -32 -79
-19 -402 -70 -447 -70 -23 0 -26 7 -52 138 -15 75 -30 147 -32 158 -4 20 2 22
74 33 43 6 166 27 273 46 265 47 327 53 361 35z"/>
</g>
</svg>
