<?xml version="1.0" standalone="no"?>
<!DOCTYPE svg PUBLIC "-//W3C//DTD SVG 20010904//EN"
 "http://www.w3.org/TR/2001/REC-SVG-20010904/DTD/svg10.dtd">
<svg version="1.0" xmlns="http://www.w3.org/2000/svg"
 width="340.000000pt" height="340.000000pt" viewBox="0 0 340.000000 340.000000"
 preserveAspectRatio="xMidYMid meet">
<metadata>
Created by potrace 1.15, written by Peter Selinger 2001-2017
</metadata>
<g transform="translate(0.000000,340.000000) scale(0.100000,-0.100000)"
fill="#000000" stroke="none">
<path d="M1344 2719 c1 -77 -2 -90 -35 -159 -46 -95 -131 -214 -258 -359 -54
-63 -109 -131 -121 -153 -21 -37 -21 -38 -2 -38 42 0 224 142 353 277 l86 89
89 -4 c71 -3 112 1 201 22 97 23 143 26 143 10 0 -26 -90 -165 -198 -306 -84
-112 -76 -107 -302 -155 -104 -22 -148 -26 -259 -25 -74 1 -143 0 -153 -4 -26
-8 -22 -30 15 -83 69 -95 114 -190 173 -361 36 -105 48 -115 92 -78 20 17 57
29 126 42 53 10 100 15 104 12 11 -12 -125 -266 -196 -366 -86 -122 -290 -326
-412 -412 -52 -37 -146 -95 -207 -130 -62 -34 -113 -65 -113 -70 0 -28 207 30
332 93 320 162 557 436 707 819 18 47 36 88 39 92 9 9 209 35 367 48 164 12
205 23 205 53 0 12 -11 39 -26 60 l-25 37 152 150 152 151 -28 29 c-16 16 -69
51 -118 76 l-89 46 -141 -36 c-142 -36 -336 -70 -346 -60 -8 7 154 166 252
247 48 40 117 90 154 113 37 22 69 46 71 52 5 17 -84 78 -164 111 l-71 30 -87
-44 c-84 -42 -235 -86 -350 -101 -45 -7 -48 -6 -38 12 6 10 51 63 101 117 50
55 91 103 91 109 0 17 -68 77 -113 99 -22 12 -66 24 -97 26 l-57 6 1 -84z
m715 -742 c14 -18 -12 -122 -66 -267 l-39 -104 -160 -28 c-87 -15 -174 -30
-191 -33 -25 -4 -33 -2 -33 9 0 8 20 77 45 154 25 77 45 149 45 160 0 12 -17
34 -40 53 -22 18 -38 34 -36 36 10 10 239 31 347 32 87 1 119 -2 128 -12z
m-574 -150 c0 -86 -32 -260 -55 -297 -7 -12 -196 -50 -246 -50 -20 0 -23 7
-29 73 -4 39 -15 124 -26 187 -10 63 -16 116 -14 118 12 13 351 78 360 70 6
-5 10 -50 10 -101z"/>
<path d="M1637 1358 c4 -35 7 -172 5 -306 -2 -192 0 -255 12 -302 44 -170 149
-266 333 -305 82 -18 406 -20 533 -5 114 14 222 44 292 82 63 34 128 97 128
126 0 9 -9 60 -20 112 -13 57 -23 156 -27 248 -3 83 -9 152 -13 152 -11 0 -31
-51 -50 -130 -30 -122 -78 -242 -118 -294 -44 -58 -130 -106 -237 -132 -92
-22 -382 -31 -468 -14 -152 29 -230 95 -257 216 -13 58 11 293 40 388 34 112
35 134 9 163 -31 33 -95 63 -137 63 l-34 0 9 -62z"/>
<path d="M1990 1295 c0 -14 36 -74 68 -113 39 -48 207 -192 223 -192 6 0 24
13 40 29 39 40 39 83 -2 145 -35 53 -108 96 -206 121 -57 15 -123 20 -123 10z"/>
</g>
</svg>
