<?xml version="1.0" standalone="no"?>
<!DOCTYPE svg PUBLIC "-//W3C//DTD SVG 20010904//EN"
 "http://www.w3.org/TR/2001/REC-SVG-20010904/DTD/svg10.dtd">
<svg version="1.0" xmlns="http://www.w3.org/2000/svg"
 width="340.000000pt" height="340.000000pt" viewBox="0 0 340.000000 340.000000"
 preserveAspectRatio="xMidYMid meet">
<metadata>
Created by potrace 1.15, written by Peter Selinger 2001-2017
</metadata>
<g transform="translate(0.000000,340.000000) scale(0.100000,-0.100000)"
fill="#000000" stroke="none">
<path d="M2194 2556 c-3 -8 2 -28 10 -45 30 -58 15 -175 -46 -361 -52 -157
-250 -557 -282 -570 -61 -26 -829 -124 -1172 -150 -231 -17 -243 -22 -180 -78
44 -39 134 -72 194 -72 26 0 126 20 222 45 320 81 616 131 955 160 205 18 626
21 755 5 110 -13 236 -13 261 0 45 25 7 116 -66 157 -49 28 -90 40 -180 54
-66 10 -84 8 -345 -44 -151 -30 -295 -58 -318 -62 l-44 -7 50 63 c64 83 175
250 264 397 39 64 104 166 145 225 71 104 73 110 59 132 -21 32 -68 67 -162
120 -82 47 -111 54 -120 31z"/>
<path d="M1497 2413 c-24 -23 2 -116 83 -294 28 -63 61 -135 72 -161 40 -90
90 -111 131 -56 25 34 34 121 18 184 -22 86 -149 247 -240 306 -48 30 -54 32
-64 21z"/>
<path d="M976 2215 c-12 -32 30 -115 157 -315 33 -52 71 -112 83 -132 68 -108
144 -74 144 65 0 119 -129 286 -279 360 -82 41 -96 44 -105 22z"/>
<path d="M1354 1288 c-5 -7 -14 -39 -21 -70 -35 -170 -217 -403 -495 -636
-109 -92 -132 -142 -51 -113 89 33 290 175 451 320 95 85 362 376 362 394 0
23 -43 55 -106 81 -81 33 -129 41 -140 24z"/>
<path d="M1900 1223 c0 -46 114 -200 362 -488 168 -196 213 -234 260 -222 51
13 64 132 26 234 -18 48 -40 76 -127 164 -115 114 -205 179 -371 263 -132 67
-150 73 -150 49z"/>
</g>
</svg>
