<?xml version="1.0" standalone="no"?>
<!DOCTYPE svg PUBLIC "-//W3C//DTD SVG 20010904//EN"
 "http://www.w3.org/TR/2001/REC-SVG-20010904/DTD/svg10.dtd">
<svg version="1.0" xmlns="http://www.w3.org/2000/svg"
 width="340.000000pt" height="340.000000pt" viewBox="0 0 340.000000 340.000000"
 preserveAspectRatio="xMidYMid meet">
<metadata>
Created by potrace 1.15, written by Peter Selinger 2001-2017
</metadata>
<g transform="translate(0.000000,340.000000) scale(0.100000,-0.100000)"
fill="#000000" stroke="none">
<path d="M1953 2859 c-6 -8 -13 -44 -15 -80 -5 -88 -43 -151 -170 -280 -54
-55 -102 -108 -108 -119 -20 -37 22 -23 126 43 54 35 188 116 297 180 108 65
197 124 197 132 0 56 -292 166 -327 124z"/>
<path d="M1137 2724 c-24 -24 23 -99 142 -225 111 -119 159 -127 179 -32 19
87 -2 131 -83 178 -75 44 -223 93 -238 79z"/>
<path d="M2070 2388 c-109 -40 -371 -88 -700 -128 -158 -20 -187 -21 -295 -10
-129 13 -176 12 -182 -6 -2 -7 16 -37 41 -67 62 -77 86 -128 157 -338 65 -195
89 -250 122 -286 25 -28 31 -28 55 -2 21 22 116 34 582 75 185 16 195 16 205
-1 84 -144 137 -94 266 252 66 176 90 225 145 284 l45 47 -66 71 c-86 91 -149
123 -248 127 -53 2 -87 -3 -127 -18z m99 -117 c33 -21 21 -231 -24 -408 -38
-147 -36 -145 -130 -149 -44 -1 -127 -7 -185 -13 -58 -5 -106 -8 -108 -6 -2 2
-1 53 3 114 7 103 9 112 29 115 187 35 271 61 297 92 16 20 -4 41 -51 55 -32
10 -54 7 -149 -16 -61 -15 -114 -26 -116 -23 -3 3 -2 50 1 106 l7 101 71 12
c39 6 94 15 121 19 72 11 218 11 234 1z m-575 -88 c3 -21 6 -72 6 -114 l0 -77
-32 -6 c-36 -6 -205 -26 -226 -26 -24 0 6 -37 39 -49 18 -6 74 -11 125 -11
l94 0 0 -109 c0 -96 -2 -110 -17 -115 -33 -9 -291 -29 -306 -23 -8 3 -17 20
-20 39 -3 18 -26 130 -51 248 -25 118 -43 217 -40 219 2 3 95 17 207 32 111
14 205 27 208 28 4 0 9 -16 13 -36z"/>
<path d="M2340 1474 c-429 -59 -1178 -140 -1570 -169 -329 -24 -340 -25 -340
-40 0 -16 59 -69 102 -91 63 -33 84 -34 181 -9 119 30 292 58 547 90 482 59
861 80 1155 64 416 -22 447 -23 488 -5 33 13 38 19 35 43 -2 20 -16 37 -50 59
-124 83 -264 98 -548 58z"/>
<path d="M2010 1129 c-132 -48 -318 -81 -558 -99 -135 -11 -147 -10 -203 9
-34 12 -84 21 -119 21 -69 0 -76 -11 -35 -64 34 -45 49 -90 105 -323 63 -260
82 -303 130 -303 19 0 50 62 50 100 0 18 7 20 58 20 192 0 638 31 739 51 74
15 81 28 49 92 l-26 52 37 75 c27 53 59 96 110 147 l73 73 -37 41 c-45 50
-111 84 -211 110 -90 23 -92 23 -162 -2z m70 -139 c24 -24 24 -24 5 -136 -17
-96 -41 -160 -71 -186 -40 -35 -199 -61 -479 -77 -82 -5 -151 -8 -153 -6 -5 4
-62 309 -62 331 0 24 13 28 240 59 191 26 260 32 383 34 105 1 119 -1 137 -19z"/>
</g>
</svg>
