<?xml version="1.0" standalone="no"?>
<!DOCTYPE svg PUBLIC "-//W3C//DTD SVG 20010904//EN"
 "http://www.w3.org/TR/2001/REC-SVG-20010904/DTD/svg10.dtd">
<svg version="1.0" xmlns="http://www.w3.org/2000/svg"
 width="340.000000pt" height="340.000000pt" viewBox="0 0 340.000000 340.000000"
 preserveAspectRatio="xMidYMid meet">
<metadata>
Created by potrace 1.15, written by Peter Selinger 2001-2017
</metadata>
<g transform="translate(0.000000,340.000000) scale(0.100000,-0.100000)"
fill="#000000" stroke="none">
<path d="M2209 2541 c-71 -75 -185 -100 -332 -73 -37 7 -72 10 -77 7 -6 -4 -4
-17 4 -34 44 -84 69 -293 64 -541 l-3 -165 -155 -21 c-85 -12 -159 -18 -164
-14 -4 5 -6 111 -3 237 5 255 17 322 67 385 17 20 30 41 30 47 0 12 -64 63
-107 85 -18 9 -52 19 -76 22 -36 5 -52 1 -107 -29 -36 -20 -92 -43 -125 -53
-57 -16 -64 -16 -153 1 -115 23 -124 18 -94 -57 50 -124 75 -324 70 -563 l-3
-150 -45 -7 c-57 -8 -330 -36 -433 -44 -58 -4 -80 -10 -84 -21 -10 -26 40 -60
125 -87 88 -27 99 -27 301 23 69 17 127 28 130 26 19 -20 -67 -394 -131 -570
-50 -136 -144 -326 -209 -423 -27 -40 -49 -77 -49 -82 0 -42 123 67 203 181
137 194 242 500 287 839 7 47 14 87 17 90 2 3 63 12 135 20 103 13 131 13 135
3 3 -6 0 -139 -6 -295 -11 -266 -22 -403 -35 -416 -3 -3 -45 7 -93 21 -48 14
-88 25 -90 23 -2 -1 16 -32 39 -67 22 -35 58 -106 79 -158 21 -51 42 -98 47
-103 27 -27 90 47 121 139 31 92 41 206 48 561 3 177 9 325 13 327 8 5 311 37
315 33 7 -7 -16 -277 -30 -366 -43 -267 -120 -461 -256 -649 -73 -100 -77
-125 -18 -91 81 45 191 183 267 333 89 179 152 472 152 714 0 94 -14 86 176
96 l132 7 7 -118 c10 -151 -1 -746 -14 -798 -5 -21 -16 -43 -23 -47 -23 -15
-82 -9 -153 16 -72 25 -105 31 -105 17 0 -4 28 -38 63 -76 34 -38 94 -114 132
-170 55 -79 76 -102 96 -104 73 -8 159 201 159 385 0 43 -7 193 -14 333 -8
140 -18 329 -22 419 l-7 164 204 -8 c267 -11 330 -11 357 4 64 34 -19 129
-133 150 -53 10 -162 0 -313 -29 -57 -11 -105 -20 -108 -20 -2 0 -4 78 -4 173
1 208 16 303 64 403 20 40 33 80 30 89 -9 24 -79 60 -172 89 -46 14 -84 26
-85 26 -1 -1 -18 -18 -38 -39z m41 -160 c14 -52 30 -296 30 -462 l0 -137 -32
-6 c-58 -10 -248 -29 -251 -25 -1 2 0 146 3 319 l5 315 55 7 c30 4 69 12 85
17 17 5 44 10 62 10 29 1 33 -3 43 -38z m-835 -53 c10 -30 19 -648 10 -648 -4
0 -63 -9 -132 -21 -68 -12 -125 -20 -127 -18 -2 2 -1 153 2 336 l4 331 67 16
c97 23 103 24 137 25 25 1 33 -4 39 -21z"/>
</g>
</svg>
