<?xml version="1.0" standalone="no"?>
<!DOCTYPE svg PUBLIC "-//W3C//DTD SVG 20010904//EN"
 "http://www.w3.org/TR/2001/REC-SVG-20010904/DTD/svg10.dtd">
<svg version="1.0" xmlns="http://www.w3.org/2000/svg"
 width="340.000000pt" height="340.000000pt" viewBox="0 0 340.000000 340.000000"
 preserveAspectRatio="xMidYMid meet">
<metadata>
Created by potrace 1.15, written by Peter Selinger 2001-2017
</metadata>
<g transform="translate(0.000000,340.000000) scale(0.100000,-0.100000)"
fill="#000000" stroke="none">
<path d="M2195 2455 c-117 -35 -400 -89 -645 -124 -263 -37 -481 -64 -484 -59
-2 2 -18 32 -36 67 -34 64 -74 102 -90 85 -5 -5 -16 -38 -25 -73 -21 -81 -72
-190 -131 -278 -28 -42 -49 -87 -55 -117 -22 -115 -4 -166 58 -166 30 0 43 8
78 46 54 59 108 150 141 239 14 38 30 79 34 90 7 19 25 23 171 38 90 10 263
31 384 47 354 48 473 60 583 60 98 0 103 -1 113 -23 11 -25 11 -26 -63 -224
-12 -34 -20 -65 -16 -69 4 -3 51 13 105 36 54 23 156 57 226 75 70 18 131 35
134 39 11 10 -15 80 -44 119 -41 54 -125 114 -228 162 -49 24 -99 45 -110 48
-11 3 -56 -5 -100 -18z"/>
<path d="M1735 1940 c-46 -34 -158 -80 -270 -111 l-76 -20 -51 25 c-34 17 -68
26 -100 26 -55 0 -59 -8 -32 -81 22 -59 30 -278 15 -392 -23 -169 -82 -328
-173 -467 -56 -86 -195 -223 -288 -285 -71 -47 -109 -81 -110 -97 -1 -31 162
29 268 98 297 194 461 510 480 929 l7 140 60 16 c33 9 96 26 139 38 97 26 161
28 170 5 10 -27 7 -66 -24 -250 -88 -525 -69 -709 89 -857 62 -58 171 -112
266 -132 216 -46 505 -18 681 64 75 35 83 57 60 164 -24 112 -35 183 -46 307
-12 127 -17 150 -30 150 -17 0 -38 -55 -54 -143 -23 -122 -49 -187 -98 -241
-78 -90 -169 -116 -388 -111 -177 5 -281 48 -340 142 -61 95 -72 192 -49 433
21 224 57 335 144 445 30 38 55 72 55 75 0 24 -86 100 -140 124 -90 41 -117
42 -165 6z"/>
</g>
</svg>
