<?xml version="1.0" standalone="no"?>
<!DOCTYPE svg PUBLIC "-//W3C//DTD SVG 20010904//EN"
 "http://www.w3.org/TR/2001/REC-SVG-20010904/DTD/svg10.dtd">
<svg version="1.0" xmlns="http://www.w3.org/2000/svg"
 width="340.000000pt" height="340.000000pt" viewBox="0 0 340.000000 340.000000"
 preserveAspectRatio="xMidYMid meet">
<metadata>
Created by potrace 1.15, written by Peter Selinger 2001-2017
</metadata>
<g transform="translate(0.000000,340.000000) scale(0.100000,-0.100000)"
fill="#000000" stroke="none">
<path d="M1630 2710 c-12 -8 -11 -16 9 -62 54 -124 63 -167 74 -363 5 -105 7
-207 3 -227 l-7 -36 -112 -27 c-62 -15 -147 -30 -190 -32 -42 -3 -80 -9 -82
-13 -10 -16 27 -40 92 -60 l65 -20 111 25 c61 14 113 22 116 20 6 -6 -24 -309
-41 -406 l-11 -67 -86 -16 c-103 -19 -323 -45 -406 -48 l-60 -3 47 -47 c55
-56 83 -65 152 -49 81 20 258 58 294 65 29 5 32 3 32 -19 0 -40 -59 -213 -100
-295 -104 -206 -282 -389 -492 -504 -36 -20 -72 -44 -80 -53 -12 -15 -7 -16
49 -11 119 11 341 137 474 270 115 115 217 288 265 453 8 30 18 55 22 55 4 0
29 -40 55 -89 123 -224 315 -508 400 -590 34 -32 39 -34 139 -41 122 -8 443
-1 476 11 13 5 20 14 17 19 -11 18 -81 49 -189 85 -329 107 -613 333 -835 663
-24 35 -41 66 -38 68 7 7 150 29 322 50 106 13 225 18 403 18 l253 1 6 23 c12
48 -46 98 -153 131 l-61 20 -94 -25 c-152 -39 -229 -53 -229 -39 0 44 126 331
179 409 17 24 31 49 31 55 0 16 -74 67 -154 108 l-69 35 -106 -35 c-117 -39
-258 -73 -266 -66 -14 15 40 418 65 484 21 56 13 81 -39 119 -27 20 -68 43
-91 51 -47 17 -137 20 -160 5z m542 -780 c-3 -58 -58 -409 -66 -417 -6 -6
-297 -45 -302 -41 -2 3 4 72 15 154 11 82 23 188 26 236 l7 88 38 10 c99 27
170 38 225 37 l60 -2 -3 -65z"/>
<path d="M711 2241 c-22 -14 64 -145 144 -220 63 -58 166 -121 200 -121 23 0
55 60 55 103 0 92 -71 170 -199 218 -63 23 -179 35 -200 20z"/>
<path d="M1089 1593 c-212 -317 -398 -521 -489 -540 l-33 -6 6 -56 c8 -72 41
-170 75 -220 33 -48 80 -87 92 -75 5 5 38 81 73 169 78 194 136 322 261 574
53 106 96 201 96 212 0 39 -31 17 -81 -58z"/>
</g>
</svg>
