<?xml version="1.0" standalone="no"?>
<!DOCTYPE svg PUBLIC "-//W3C//DTD SVG 20010904//EN"
 "http://www.w3.org/TR/2001/REC-SVG-20010904/DTD/svg10.dtd">
<svg version="1.0" xmlns="http://www.w3.org/2000/svg"
 width="340.000000pt" height="340.000000pt" viewBox="0 0 340.000000 340.000000"
 preserveAspectRatio="xMidYMid meet">
<metadata>
Created by potrace 1.15, written by Peter Selinger 2001-2017
</metadata>
<g transform="translate(0.000000,340.000000) scale(0.100000,-0.100000)"
fill="#000000" stroke="none">
<path d="M1741 2759 c-128 -25 -86 -85 147 -212 125 -69 158 -77 191 -49 20
15 25 31 29 78 3 50 0 64 -20 93 -52 77 -208 117 -347 90z"/>
<path d="M2483 2433 c-253 -68 -450 -111 -663 -147 -167 -29 -482 -66 -552
-66 -44 0 -48 -2 -48 -25 0 -30 33 -54 102 -71 48 -13 70 -10 367 41 174 30
339 59 366 64 110 21 269 32 494 36 130 1 244 6 254 10 21 9 22 37 2 75 -33
65 -216 112 -322 83z"/>
<path d="M714 2395 c-17 -43 37 -110 179 -223 74 -59 97 -68 151 -63 80 7 72
135 -14 221 -35 35 -59 50 -106 63 -78 22 -202 23 -210 2z"/>
<path d="M2101 1960 c-24 -11 -87 -34 -140 -50 -178 -54 -310 -64 -436 -31
-44 12 -85 19 -92 16 -20 -7 -15 -32 8 -48 32 -23 65 -118 95 -276 36 -195 42
-217 60 -236 24 -24 37 -14 54 38 16 50 18 51 112 62 57 7 58 7 68 -21 6 -16
17 -71 25 -124 38 -264 24 -537 -29 -572 -21 -14 -84 -8 -127 12 -24 11 -52
20 -62 20 -24 0 -16 -27 28 -95 17 -27 53 -92 80 -143 67 -127 71 -130 124
-92 23 17 55 52 72 78 56 88 59 113 59 487 l0 341 -25 35 c-14 19 -37 44 -52
56 l-27 22 25 5 c13 3 98 12 189 21 248 25 245 24 194 98 -25 37 -25 39 -8 65
9 15 55 65 102 112 65 65 82 88 75 100 -28 43 -202 127 -283 136 -32 3 -57 -1
-89 -16z m55 -127 c25 -26 14 -126 -21 -191 -40 -74 -58 -89 -117 -101 -46 -9
-253 -37 -328 -44 -25 -2 -25 -2 -41 138 -11 96 -13 142 -6 147 6 4 61 16 121
27 238 45 363 53 392 24z"/>
<path d="M1166 1859 c-21 -18 -80 -93 -133 -168 -120 -170 -190 -260 -262
-334 -65 -68 -101 -90 -134 -82 -59 15 -60 -46 -2 -224 40 -124 74 -176 98
-151 8 8 40 71 72 140 81 178 250 506 327 635 71 118 98 189 81 206 -7 7 -22
1 -47 -22z"/>
<path d="M1377 1148 c-14 -18 -37 -57 -51 -86 -15 -30 -54 -96 -87 -147 -67
-105 -79 -146 -55 -193 22 -43 67 -44 123 -3 80 58 135 159 154 282 11 72 11
76 -15 127 -14 28 -31 52 -36 52 -5 0 -20 -15 -33 -32z"/>
<path d="M2194 1162 c-18 -11 -1 -43 55 -104 54 -59 272 -249 322 -281 35 -23
67 -15 80 20 26 69 -5 158 -81 234 -51 51 -66 60 -151 87 -52 16 -114 33 -139
37 -25 3 -52 8 -60 11 -8 2 -20 0 -26 -4z"/>
</g>
</svg>
