<?xml version="1.0" standalone="no"?>
<!DOCTYPE svg PUBLIC "-//W3C//DTD SVG 20010904//EN"
 "http://www.w3.org/TR/2001/REC-SVG-20010904/DTD/svg10.dtd">
<svg version="1.0" xmlns="http://www.w3.org/2000/svg"
 width="340.000000pt" height="340.000000pt" viewBox="0 0 340.000000 340.000000"
 preserveAspectRatio="xMidYMid meet">
<metadata>
Created by potrace 1.15, written by Peter Selinger 2001-2017
</metadata>
<g transform="translate(0.000000,340.000000) scale(0.100000,-0.100000)"
fill="#000000" stroke="none">
<path d="M1677 2853 c-13 -13 -6 -39 22 -81 17 -24 37 -75 46 -115 19 -80 33
-357 19 -357 -28 0 -327 -69 -336 -78 -42 -42 135 -78 283 -58 l57 7 -5 -128
c-3 -70 -10 -131 -16 -135 -12 -7 -367 -64 -512 -81 l-100 -12 0 -30 c0 -26 5
-32 40 -43 54 -18 105 -12 335 36 380 79 535 98 892 110 236 9 249 12 232 59
-14 40 -65 70 -147 84 -70 12 -78 11 -312 -36 -132 -26 -246 -50 -252 -53 -10
-3 -13 21 -13 101 0 173 -11 158 148 195 164 39 222 63 222 92 0 31 -33 57
-89 69 -80 17 -120 13 -191 -19 -36 -16 -67 -24 -68 -19 -6 15 17 202 35 292
19 97 12 117 -55 151 -81 41 -215 69 -235 49z"/>
<path d="M628 2194 c-29 -29 27 -98 167 -207 90 -70 154 -106 188 -107 10 0
29 11 42 25 72 71 -13 215 -156 264 -65 23 -228 40 -241 25z"/>
<path d="M1994 1745 c-4 -10 5 -30 23 -53 33 -41 193 -185 264 -238 98 -72
145 -49 120 58 -15 67 -49 111 -124 159 -96 62 -270 108 -283 74z"/>
<path d="M1532 1728 c-6 -6 -12 -26 -12 -43 0 -57 -55 -140 -213 -318 -117
-133 -139 -179 -65 -141 66 34 155 110 287 243 149 152 165 172 157 199 -12
38 -130 84 -154 60z"/>
<path d="M1021 1655 c-17 -20 -78 -108 -136 -196 -168 -256 -260 -368 -315
-384 -99 -28 -94 -83 21 -251 56 -81 91 -106 114 -83 8 8 26 53 40 100 32 110
108 310 180 474 93 212 145 339 145 358 0 26 -15 21 -49 -18z"/>
<path d="M1691 1473 c-12 -8 -21 -24 -21 -36 0 -47 -32 -145 -75 -232 -84
-171 -254 -364 -498 -568 -150 -125 -177 -169 -82 -133 58 22 216 128 316 212
83 69 213 204 257 266 15 21 31 38 35 38 12 0 236 -193 236 -204 2 -18 -88
-113 -164 -174 -53 -42 -132 -89 -233 -138 -83 -42 -150 -80 -146 -85 9 -16
118 -10 200 11 151 39 251 97 380 222 l82 79 43 -52 c56 -67 221 -213 279
-247 40 -24 54 -27 130 -25 132 3 459 54 535 83 28 11 29 12 12 25 -10 7 -57
18 -105 25 -217 29 -423 95 -647 205 -195 96 -182 86 -157 127 11 18 44 87 72
153 28 66 65 142 81 168 44 71 29 106 -61 146 -86 37 -119 36 -192 -3 -55 -30
-156 -62 -166 -51 -2 1 11 24 27 51 37 57 38 64 9 91 -51 46 -117 67 -147 46z
m307 -248 c33 -11 6 -149 -52 -263 l-26 -52 -32 16 c-23 12 -189 114 -226 140
-2 1 22 40 53 86 l56 85 107 -4 c59 -3 113 -6 120 -8z"/>
</g>
</svg>
