<?xml version="1.0" standalone="no"?>
<!DOCTYPE svg PUBLIC "-//W3C//DTD SVG 20010904//EN"
 "http://www.w3.org/TR/2001/REC-SVG-20010904/DTD/svg10.dtd">
<svg version="1.0" xmlns="http://www.w3.org/2000/svg"
 width="340.000000pt" height="340.000000pt" viewBox="0 0 340.000000 340.000000"
 preserveAspectRatio="xMidYMid meet">
<metadata>
Created by potrace 1.15, written by Peter Selinger 2001-2017
</metadata>
<g transform="translate(0.000000,340.000000) scale(0.100000,-0.100000)"
fill="#000000" stroke="none">
<path d="M1727 2885 c-13 -32 30 -97 160 -243 l52 -59 -112 -16 c-183 -27
-352 -47 -512 -60 -144 -12 -150 -13 -153 -35 -3 -18 4 -26 35 -38 57 -24 136
-20 358 20 348 63 482 77 780 81 149 1 278 6 288 10 42 17 -22 96 -95 116 -58
15 -140 8 -346 -31 -95 -18 -175 -31 -178 -28 -3 4 0 25 6 49 14 52 6 114 -21
157 -26 43 -107 81 -191 89 -56 5 -66 3 -71 -12z"/>
<path d="M635 2396 c-19 -13 -19 -16 -3 -49 32 -68 228 -236 299 -258 68 -21
98 22 78 112 -22 97 -85 168 -171 194 -66 19 -178 20 -203 1z"/>
<path d="M2269 2400 c-25 -15 -268 -56 -554 -95 -211 -29 -276 -35 -346 -29
-49 3 -89 2 -92 -3 -3 -5 7 -36 23 -68 38 -80 97 -276 116 -388 20 -114 49
-211 70 -228 14 -12 19 -10 38 12 20 25 35 28 331 67 171 24 316 42 323 42 6
0 12 -6 12 -14 0 -8 8 -24 18 -36 42 -52 91 10 205 257 40 87 92 189 116 227
28 47 40 77 37 90 -13 47 -85 105 -172 140 -78 31 -106 37 -125 26z m4 -109
c56 -21 60 -144 12 -306 -34 -115 -85 -221 -105 -217 -97 21 -89 22 -350 -31
-96 -20 -200 -39 -231 -42 l-56 -7 -16 79 c-17 77 -67 393 -67 424 0 13 44 22
268 53 239 33 394 51 489 55 17 0 43 -3 56 -8z"/>
<path d="M1930 2160 c-67 -36 -153 -50 -256 -43 -73 6 -77 5 -70 -13 5 -10 19
-58 32 -107 34 -124 64 -177 100 -177 3 0 8 10 13 22 7 21 20 24 151 40 78 9
149 20 158 23 11 4 13 16 9 49 -7 45 2 65 51 118 46 50 5 100 -94 112 -30 4
-51 -2 -94 -24z m40 -80 c13 -24 -2 -88 -28 -118 -14 -17 -34 -22 -103 -27
l-86 -7 -11 53 c-6 30 -7 58 -3 62 15 16 147 57 183 57 27 0 40 -5 48 -20z"/>
<path d="M1080 1907 c-33 -26 -82 -100 -151 -228 -150 -279 -260 -434 -342
-482 -24 -15 -47 -34 -51 -43 -7 -18 60 -178 105 -248 43 -69 63 -62 94 34 22
67 268 680 323 806 57 129 66 195 22 161z"/>
<path d="M2075 1553 c-16 -3 -118 -22 -225 -43 -107 -21 -244 -47 -304 -57
-109 -18 -130 -29 -106 -57 22 -27 97 -36 179 -20 42 8 169 28 282 44 296 42
349 56 349 89 0 13 -10 23 -32 29 -43 13 -106 20 -143 15z"/>
<path d="M2500 1353 c-19 -2 -190 -26 -380 -54 -190 -27 -518 -74 -730 -105
-212 -30 -391 -56 -397 -59 -44 -16 31 -95 90 -95 16 0 93 13 171 29 178 37
471 83 504 79 21 -2 29 -13 44 -57 26 -77 40 -212 32 -305 -10 -119 -11 -120
-103 -113 -43 3 -89 11 -104 16 -14 6 -29 7 -31 2 -3 -4 15 -37 40 -72 25 -35
66 -106 92 -156 31 -65 50 -93 63 -93 37 0 116 77 151 147 l33 68 0 215 c0
118 4 236 9 262 8 47 8 49 -28 82 l-37 34 43 6 c24 3 147 8 275 12 188 6 262
3 396 -11 91 -10 173 -15 181 -12 19 8 21 55 4 92 -29 64 -172 104 -318 88z"/>
<path d="M2195 980 c-25 -40 260 -390 318 -390 5 0 22 13 38 29 25 26 29 37
29 86 0 95 -58 173 -169 230 -85 42 -202 67 -216 45z"/>
<path d="M1354 962 c-12 -9 -36 -39 -54 -67 -18 -27 -56 -78 -83 -113 -55 -70
-68 -122 -47 -186 10 -30 16 -36 41 -36 41 0 159 113 195 186 32 65 36 140 11
197 -18 41 -31 45 -63 19z"/>
</g>
</svg>
