<?xml version="1.0" standalone="no"?>
<!DOCTYPE svg PUBLIC "-//W3C//DTD SVG 20010904//EN"
 "http://www.w3.org/TR/2001/REC-SVG-20010904/DTD/svg10.dtd">
<svg version="1.0" xmlns="http://www.w3.org/2000/svg"
 width="340.000000pt" height="340.000000pt" viewBox="0 0 340.000000 340.000000"
 preserveAspectRatio="xMidYMid meet">
<metadata>
Created by potrace 1.15, written by Peter Selinger 2001-2017
</metadata>
<g transform="translate(0.000000,340.000000) scale(0.100000,-0.100000)"
fill="#000000" stroke="none">
<path d="M1760 2444 c-95 -49 -222 -88 -351 -109 -84 -13 -89 -13 -165 12 -97
31 -167 35 -172 11 -2 -9 11 -32 29 -52 50 -58 70 -139 76 -306 9 -253 -23
-508 -88 -703 -90 -271 -227 -462 -507 -705 -113 -99 -93 -117 53 -47 209 101
423 328 535 567 113 242 153 457 166 910 l6 207 52 10 c88 18 227 48 329 71
71 16 102 19 110 11 7 -7 -2 -107 -32 -353 -65 -517 -76 -667 -63 -823 6 -74
20 -160 33 -200 64 -211 190 -335 370 -364 145 -24 463 -6 624 35 125 32 191
96 182 177 -2 23 -18 96 -35 162 -17 66 -36 145 -42 175 -6 30 -15 62 -20 70
-15 23 -38 -12 -45 -69 -24 -191 -112 -327 -236 -366 -125 -39 -397 -28 -496
21 -206 100 -261 419 -168 969 47 271 105 422 206 528 l57 60 -56 57 c-66 65
-126 91 -211 89 -45 -1 -73 -10 -141 -45z"/>
</g>
</svg>
