<?xml version="1.0" standalone="no"?>
<!DOCTYPE svg PUBLIC "-//W3C//DTD SVG 20010904//EN"
 "http://www.w3.org/TR/2001/REC-SVG-20010904/DTD/svg10.dtd">
<svg version="1.0" xmlns="http://www.w3.org/2000/svg"
 width="340.000000pt" height="340.000000pt" viewBox="0 0 340.000000 340.000000"
 preserveAspectRatio="xMidYMid meet">
<metadata>
Created by potrace 1.15, written by Peter Selinger 2001-2017
</metadata>
<g transform="translate(0.000000,340.000000) scale(0.100000,-0.100000)"
fill="#000000" stroke="none">
<path d="M1114 2729 c-3 -6 -1 -28 6 -49 25 -74 -31 -191 -171 -356 -76 -90
-254 -265 -369 -363 -104 -89 -114 -110 -47 -97 46 9 172 85 308 187 67 50
114 78 119 73 32 -32 17 -391 -21 -532 -22 -80 -22 -84 -6 -136 35 -110 98
-161 125 -101 24 52 34 214 29 448 -5 225 -16 313 -47 386 -12 26 14 62 207
283 51 58 93 114 93 124 0 25 -69 87 -131 118 -57 28 -84 32 -95 15z"/>
<path d="M2181 2661 c-6 -11 -11 -26 -11 -34 0 -43 -146 -115 -413 -203 -195
-63 -289 -102 -303 -125 -12 -19 126 -5 245 26 57 14 109 24 116 21 19 -7 38
-101 39 -190 l1 -79 -35 -10 c-19 -5 -162 -30 -318 -56 -339 -57 -365 -71
-216 -112 76 -21 43 -25 377 51 98 22 185 40 193 40 11 0 14 -27 14 -150 0
-138 -2 -150 -20 -160 -24 -13 -213 -45 -358 -61 -113 -12 -113 -12 -110 -38
2 -20 12 -29 43 -39 47 -16 69 -14 235 21 179 37 336 56 560 66 107 5 207 14
223 20 46 18 31 48 -43 87 -48 25 -176 23 -300 -5 -52 -11 -100 -21 -107 -21
-11 0 -13 31 -11 153 l3 152 65 7 c36 3 190 10 343 14 305 8 319 11 302 61 -7
20 -26 36 -70 58 -81 41 -147 38 -414 -14 -117 -23 -216 -40 -219 -36 -3 3 0
54 7 113 l12 107 -31 26 -31 26 118 31 c65 17 141 36 168 42 111 23 177 44
183 59 10 27 -134 143 -205 165 -16 5 -25 2 -32 -13z"/>
<path d="M1760 1384 c-47 -24 -129 -55 -182 -69 l-98 -26 -89 31 c-48 16 -98
30 -110 30 -25 0 -28 -26 -7 -56 40 -57 40 -232 0 -350 -76 -227 -244 -389
-479 -463 -125 -40 -155 -52 -149 -63 10 -15 166 -2 258 22 347 89 524 305
552 676 l6 91 177 43 c97 23 186 41 196 38 22 -4 23 -18 14 -378 l-4 -185 33
-67 c48 -98 128 -156 262 -189 80 -20 372 -18 470 3 148 32 270 94 298 151 11
23 9 34 -22 100 -20 40 -47 116 -62 168 -44 154 -53 161 -78 62 -9 -38 -24
-97 -33 -132 -23 -93 -61 -131 -164 -165 -204 -68 -453 -51 -547 37 -45 42
-52 69 -52 196 0 192 33 296 110 347 58 39 50 81 -24 129 -26 17 -164 66 -180
63 -6 -1 -49 -21 -96 -44z"/>
</g>
</svg>
