<?xml version="1.0" standalone="no"?>
<!DOCTYPE svg PUBLIC "-//W3C//DTD SVG 20010904//EN"
 "http://www.w3.org/TR/2001/REC-SVG-20010904/DTD/svg10.dtd">
<svg version="1.0" xmlns="http://www.w3.org/2000/svg"
 width="340.000000pt" height="340.000000pt" viewBox="0 0 340.000000 340.000000"
 preserveAspectRatio="xMidYMid meet">
<metadata>
Created by potrace 1.15, written by Peter Selinger 2001-2017
</metadata>
<g transform="translate(0.000000,340.000000) scale(0.100000,-0.100000)"
fill="#000000" stroke="none">
<path d="M956 2653 c-4 -10 2 -26 17 -42 14 -14 29 -35 35 -46 19 -38 32 -176
32 -346 l0 -170 -34 -14 c-35 -15 -216 -58 -222 -53 -1 2 1 23 6 48 5 25 12
88 15 141 6 77 4 101 -8 126 -19 35 -76 66 -115 61 -32 -4 -33 -19 -7 -88 10
-26 17 -74 18 -112 0 -80 -31 -152 -91 -211 -37 -36 -38 -40 -32 -82 8 -55 32
-91 65 -99 21 -5 41 3 95 39 38 25 107 63 153 84 87 41 327 121 433 145 l62
14 5 -45 c13 -118 68 -70 161 142 27 60 57 123 67 140 27 43 24 77 -8 107 -28
27 -147 88 -170 88 -19 0 -25 -41 -14 -90 14 -59 14 -156 0 -219 -10 -47 -13
-51 -47 -60 -85 -23 -130 -31 -175 -31 l-48 0 6 63 c14 139 37 278 55 334 26
78 25 99 -7 129 -54 50 -233 85 -247 47z"/>
<path d="M2255 2306 c-67 -46 -161 -80 -276 -97 -65 -10 -82 -10 -124 4 -46
16 -115 23 -115 12 0 -3 11 -32 25 -65 14 -33 29 -90 35 -127 20 -143 6 -552
-26 -722 -57 -309 -213 -560 -449 -725 -189 -132 -177 -173 18 -65 332 183
480 382 547 736 34 180 41 266 47 574 l6 296 51 11 c142 31 261 42 284 28 20
-12 14 -102 -22 -363 -49 -349 -59 -460 -59 -608 1 -162 21 -264 73 -371 66
-135 163 -215 337 -278 82 -29 98 -31 218 -31 156 0 175 7 175 65 0 21 -11 85
-25 142 -13 57 -31 156 -39 221 -9 65 -20 126 -25 135 -8 14 -12 12 -25 -18
-8 -20 -19 -74 -26 -120 -29 -225 -68 -266 -215 -226 -179 47 -279 154 -321
344 -16 69 -16 94 -5 251 6 95 21 246 32 335 37 301 87 437 184 503 46 31 45
57 -3 102 -47 44 -156 101 -191 100 -14 -1 -53 -20 -86 -43z"/>
<path d="M1157 1745 c-73 -39 -238 -91 -369 -116 -95 -19 -118 -26 -118 -40 0
-25 23 -39 77 -47 55 -9 65 -7 233 42 69 21 146 40 171 43 41 5 48 3 59 -17
20 -38 13 -140 -16 -218 -30 -83 -33 -84 -216 -127 -133 -31 -137 -31 -198 0
-64 32 -100 33 -100 2 0 -12 6 -32 14 -43 22 -31 48 -188 49 -289 0 -125 -21
-194 -79 -252 -43 -43 -45 -47 -39 -85 13 -73 40 -122 85 -150 25 -16 26 -15
115 64 116 104 240 196 390 291 67 42 130 86 140 98 l20 22 -47 -5 c-26 -3
-94 -28 -155 -56 -117 -55 -306 -132 -325 -132 -16 0 4 381 22 410 4 6 65 24
136 40 351 77 410 105 334 162 -16 12 -30 28 -30 35 0 30 55 128 110 197 l58
74 -41 40 c-57 54 -100 74 -172 78 -50 4 -68 0 -108 -21z"/>
</g>
</svg>
