<?xml version="1.0" standalone="no"?>
<!DOCTYPE svg PUBLIC "-//W3C//DTD SVG 20010904//EN"
 "http://www.w3.org/TR/2001/REC-SVG-20010904/DTD/svg10.dtd">
<svg version="1.0" xmlns="http://www.w3.org/2000/svg"
 width="340.000000pt" height="340.000000pt" viewBox="0 0 340.000000 340.000000"
 preserveAspectRatio="xMidYMid meet">
<metadata>
Created by potrace 1.15, written by Peter Selinger 2001-2017
</metadata>
<g transform="translate(0.000000,340.000000) scale(0.100000,-0.100000)"
fill="#000000" stroke="none">
<path d="M2102 2689 c-133 -46 -481 -113 -962 -184 -166 -24 -177 -25 -241
-10 -78 17 -108 19 -129 5 -13 -8 -10 -18 17 -67 54 -100 58 -139 58 -563 0
-358 -2 -394 -24 -514 -12 -71 -35 -168 -51 -216 -57 -175 -170 -377 -292
-521 -71 -84 -88 -110 -88 -131 0 -31 31 -20 105 36 187 144 317 326 389 546
80 245 106 465 113 961 l6 367 31 5 c17 3 132 23 256 45 282 51 460 77 685
101 182 20 216 18 229 -15 3 -9 -1 -82 -11 -163 -21 -177 -23 -634 -4 -841 33
-355 86 -538 214 -733 97 -147 190 -233 329 -303 62 -31 222 -84 254 -84 27 0
26 51 -1 175 -15 69 -32 191 -38 276 -8 94 -16 154 -23 156 -12 4 -44 -67 -70
-157 -20 -68 -46 -119 -71 -142 -37 -34 -121 9 -195 98 -161 195 -237 414
-269 776 -13 145 -6 536 10 626 14 75 65 172 127 241 30 32 54 68 54 79 0 41
-117 125 -227 161 -76 26 -78 26 -181 -10z"/>
<path d="M1464 2412 c-7 -4 -13 -42 -16 -84 -3 -70 -9 -88 -54 -175 -61 -120
-75 -129 -191 -125 -49 1 -84 -2 -88 -8 -3 -6 6 -41 21 -78 15 -37 44 -139 66
-227 57 -235 58 -238 77 -264 23 -31 68 -23 77 13 7 28 16 30 174 46 58 5 138
15 179 22 71 11 74 11 91 -12 29 -38 55 -19 99 73 22 45 52 123 66 172 32 107
60 176 93 228 22 36 22 40 7 63 -22 34 -68 61 -147 85 l-67 21 -63 -25 c-66
-27 -348 -90 -348 -78 0 4 59 66 130 138 72 72 130 135 130 141 0 12 -82 48
-156 67 -67 17 -65 17 -80 7z m396 -378 c11 -29 -1 -162 -26 -289 -26 -128
-26 -129 -82 -122 -34 4 -84 -3 -187 -28 -77 -19 -160 -36 -184 -37 l-45 -3
-12 75 c-22 133 -26 125 62 123 49 -1 118 7 193 22 166 35 176 38 179 63 6 39
-38 46 -153 27 -100 -17 -265 -51 -296 -60 -14 -5 -18 8 -27 77 -6 46 -10 84
-8 85 1 1 46 12 101 24 188 40 350 67 413 68 58 1 63 -1 72 -25z"/>
<path d="M1695 1384 c-68 -26 -262 -72 -361 -86 -52 -7 -94 -16 -94 -20 0 -4
11 -15 25 -24 19 -12 45 -15 121 -13 114 3 113 4 121 -105 5 -66 4 -74 -13
-79 -18 -6 -235 -37 -254 -37 -26 0 -5 -20 37 -36 32 -13 75 -18 135 -18 l88
0 0 -81 c0 -44 -4 -85 -8 -91 -5 -9 -475 -74 -532 -74 -20 0 -6 -42 21 -62 43
-33 113 -36 214 -12 230 55 370 69 695 69 168 0 311 4 318 8 19 13 14 52 -10
74 -67 60 -200 65 -541 17 l-48 -7 3 88 3 89 113 18 c114 18 182 39 182 57 0
16 -30 40 -57 47 -24 6 -107 1 -190 -12 l-43 -7 15 49 c20 67 20 70 -21 98
l-35 24 88 12 c112 16 234 47 251 63 15 16 7 43 -16 52 -39 15 -167 15 -207
-1z"/>
</g>
</svg>
