<?xml version="1.0" standalone="no"?>
<!DOCTYPE svg PUBLIC "-//W3C//DTD SVG 20010904//EN"
 "http://www.w3.org/TR/2001/REC-SVG-20010904/DTD/svg10.dtd">
<svg version="1.0" xmlns="http://www.w3.org/2000/svg"
 width="340.000000pt" height="340.000000pt" viewBox="0 0 340.000000 340.000000"
 preserveAspectRatio="xMidYMid meet">
<metadata>
Created by potrace 1.15, written by Peter Selinger 2001-2017
</metadata>
<g transform="translate(0.000000,340.000000) scale(0.100000,-0.100000)"
fill="#000000" stroke="none">
<path d="M2483 2684 c-3 -8 10 -50 30 -92 76 -165 107 -465 107 -1062 0 -470
-23 -756 -62 -782 -18 -11 -58 -2 -162 38 -49 19 -93 31 -98 26 -5 -5 24 -46
63 -91 39 -46 102 -133 139 -194 38 -62 79 -119 93 -127 25 -14 28 -13 60 18
82 79 127 243 127 457 0 72 -9 240 -20 375 -46 577 -47 995 -4 1193 17 74 16
75 -5 106 -23 31 -120 105 -178 135 -41 20 -82 21 -90 0z"/>
<path d="M1536 2584 c-77 -40 -247 -98 -317 -109 -31 -5 -72 -1 -122 10 -41 9
-88 15 -103 13 -36 -4 -43 -32 -16 -61 44 -48 51 -135 27 -306 -75 -513 -220
-887 -476 -1226 -84 -112 -119 -164 -119 -177 0 -28 48 9 164 125 191 189 288
329 372 536 l42 103 7 -47 c4 -26 5 -106 3 -178 -4 -107 -9 -141 -26 -181 -26
-58 -27 -85 -6 -155 15 -51 43 -91 65 -91 18 0 58 103 74 194 9 57 15 150 15
261 l0 172 102 23 c56 12 109 25 116 28 23 9 10 -598 -14 -693 -25 -95 -25
-246 0 -295 41 -78 65 -88 90 -36 36 77 48 216 55 641 l6 409 45 13 c25 7 73
14 107 16 51 2 66 -2 82 -18 31 -31 42 -110 31 -223 -15 -155 -25 -170 -113
-153 -29 5 -50 5 -53 -1 -3 -5 12 -31 34 -57 22 -26 58 -83 81 -128 22 -45 45
-84 51 -88 43 -27 140 212 140 345 0 108 19 220 46 278 25 50 25 54 9 78 -23
35 -67 60 -143 79 -59 15 -68 15 -98 0 -35 -16 -176 -55 -202 -55 -13 0 -14
11 -7 73 16 140 16 139 -35 164 -25 13 -66 26 -92 29 -61 8 -69 -7 -38 -78 15
-34 24 -81 28 -134 l5 -82 -69 -20 c-173 -51 -200 -53 -238 -19 l-25 22 23 80
c13 44 35 131 49 194 14 62 28 115 30 117 2 2 92 22 199 43 304 62 398 90 398
119 0 8 -12 30 -26 49 l-26 34 25 42 c28 47 100 125 165 179 51 42 50 60 -3
107 -39 34 -108 57 -193 66 -52 5 -64 2 -126 -31z m54 -141 c0 -50 -15 -101
-57 -200 l-35 -82 -77 -30 c-65 -25 -149 -49 -264 -75 -28 -7 -28 -6 -21 30 4
20 12 96 18 168 l11 130 75 24 c105 33 268 70 313 71 36 1 37 0 37 -36z"/>
<path d="M2064 2185 c-4 -8 3 -37 14 -63 23 -55 26 -72 48 -257 12 -109 15
-187 10 -350 -6 -209 -6 -210 18 -263 32 -66 69 -88 96 -54 42 51 49 176 28
513 -9 152 -9 212 1 269 10 64 10 76 -5 99 -23 34 -38 46 -104 80 -78 41 -99
46 -106 26z"/>
</g>
</svg>
