<?xml version="1.0" standalone="no"?>
<!DOCTYPE svg PUBLIC "-//W3C//DTD SVG 20010904//EN"
 "http://www.w3.org/TR/2001/REC-SVG-20010904/DTD/svg10.dtd">
<svg version="1.0" xmlns="http://www.w3.org/2000/svg"
 width="340.000000pt" height="340.000000pt" viewBox="0 0 340.000000 340.000000"
 preserveAspectRatio="xMidYMid meet">
<metadata>
Created by potrace 1.15, written by Peter Selinger 2001-2017
</metadata>
<g transform="translate(0.000000,340.000000) scale(0.100000,-0.100000)"
fill="#000000" stroke="none">
<path d="M2380 2778 c0 -13 11 -47 25 -76 35 -76 53 -150 64 -277 27 -288 41
-1330 21 -1521 -5 -50 -15 -109 -22 -130 -13 -38 -14 -39 -65 -42 -32 -2 -83
5 -128 18 -116 33 -120 27 -41 -60 38 -41 100 -115 137 -165 37 -49 79 -103
93 -118 25 -27 28 -28 49 -14 37 24 92 112 116 182 45 138 46 272 10 1030 -15
311 -6 830 15 940 9 44 16 87 16 96 0 37 -196 159 -256 159 -29 0 -34 -4 -34
-22z"/>
<path d="M1438 2708 c-5 -80 -30 -139 -100 -239 l-39 -57 -113 53 c-120 57
-234 99 -303 110 -80 13 -49 -16 117 -110 47 -26 118 -68 159 -94 l73 -46
-113 -110 c-63 -61 -170 -152 -239 -202 -69 -51 -134 -99 -145 -107 -19 -14
-18 -15 16 -16 47 0 231 90 348 170 47 32 118 88 158 124 39 37 74 66 76 66 3
0 41 -28 84 -62 95 -76 180 -128 208 -128 50 0 60 54 20 112 -21 31 -150 137
-202 167 -20 11 -28 0 98 141 98 110 119 139 119 160 0 27 -70 90 -128 116
-84 38 -89 36 -94 -48z"/>
<path d="M1953 2289 c3 -13 18 -62 32 -109 35 -116 49 -337 40 -620 -11 -332
-11 -331 10 -367 20 -34 55 -55 73 -44 34 21 37 61 38 516 1 319 5 463 13 494
11 39 10 47 -6 70 -25 34 -102 72 -160 79 -44 5 -46 4 -40 -19z"/>
<path d="M1150 1958 c0 -7 11 -34 24 -60 24 -47 54 -183 44 -194 -3 -3 -46
-11 -94 -19 -49 -8 -136 -23 -194 -35 -149 -29 -319 -50 -405 -50 -46 0 -77
-4 -81 -12 -11 -17 51 -65 114 -88 74 -28 131 -25 289 15 76 19 191 45 256 59
l117 23 0 -226 c0 -217 -12 -415 -29 -477 -9 -33 -13 -33 -155 -19 l-79 8 53
-68 c28 -38 73 -111 98 -162 29 -57 52 -93 62 -93 28 0 89 50 114 93 14 23 35
76 47 117 21 71 22 95 23 457 1 210 4 385 8 388 4 4 97 22 207 40 110 19 209
39 220 45 31 16 26 47 -11 67 -45 24 -175 21 -302 -6 -54 -11 -102 -21 -107
-21 -6 0 -7 33 -3 78 l7 79 -32 23 c-59 41 -191 68 -191 38z"/>
<path d="M805 1283 c-27 -48 -70 -114 -94 -147 -56 -76 -71 -114 -71 -174 0
-134 115 -91 203 75 72 137 96 261 61 311 -27 39 -46 27 -99 -65z"/>
<path d="M1450 1362 c0 -30 202 -238 278 -286 49 -31 72 -25 92 24 11 26 10
37 -5 77 -41 106 -153 180 -289 190 -53 4 -76 2 -76 -5z"/>
</g>
</svg>
