<?xml version="1.0" standalone="no"?>
<!DOCTYPE svg PUBLIC "-//W3C//DTD SVG 20010904//EN"
 "http://www.w3.org/TR/2001/REC-SVG-20010904/DTD/svg10.dtd">
<svg version="1.0" xmlns="http://www.w3.org/2000/svg"
 width="340.000000pt" height="340.000000pt" viewBox="0 0 340.000000 340.000000"
 preserveAspectRatio="xMidYMid meet">
<metadata>
Created by potrace 1.15, written by Peter Selinger 2001-2017
</metadata>
<g transform="translate(0.000000,340.000000) scale(0.100000,-0.100000)"
fill="#000000" stroke="none">
<path d="M2440 2687 c0 -9 15 -54 34 -99 64 -155 66 -178 66 -889 0 -635 -6
-781 -35 -885 -23 -82 -31 -84 -145 -45 -140 49 -155 36 -80 -64 54 -71 123
-181 155 -245 39 -78 41 -80 75 -68 97 33 164 214 176 473 3 72 -1 311 -10
533 -9 222 -16 472 -16 555 0 215 24 483 52 580 11 36 10 39 -23 73 -47 50
-122 85 -191 92 -49 4 -58 2 -58 -11z"/>
<path d="M1685 2630 c-27 -4 -122 -24 -210 -43 -88 -20 -230 -48 -315 -63
-191 -33 -234 -44 -238 -65 -4 -22 25 -29 125 -29 69 0 82 -3 87 -17 3 -10 8
-73 12 -139 l6 -121 -33 -6 c-148 -26 -196 -29 -240 -14 -76 26 -118 31 -124
15 -3 -7 19 -61 48 -120 30 -58 73 -164 96 -236 44 -137 69 -175 99 -156 9 6
18 27 20 46 l3 35 82 11 c542 69 523 67 541 49 46 -45 91 -5 165 143 51 104
61 118 111 153 30 21 56 44 58 52 7 32 -151 145 -205 145 -10 0 -64 -14 -120
-31 -57 -18 -106 -29 -110 -26 -3 4 6 47 20 97 34 112 34 124 -3 150 -38 27
-38 40 -1 40 41 0 236 38 267 52 17 8 24 19 24 39 0 15 -4 31 -10 34 -17 11
-104 14 -155 5z m-231 -166 c8 -20 8 -198 0 -245 l-6 -37 -82 -6 c-44 -4 -91
-10 -102 -12 -25 -6 -29 11 -40 177 l-7 96 99 20 c127 26 131 26 138 7z m296
-337 c0 -74 -68 -235 -109 -256 -9 -5 -50 -13 -90 -17 l-73 -7 6 29 c3 16 13
79 22 139 9 61 18 112 20 114 7 7 143 29 187 30 36 1 37 0 37 -32z m-316 -54
c-3 -27 -11 -91 -17 -143 l-12 -95 -70 -12 c-38 -6 -71 -10 -71 -10 -1 1 -5
66 -9 144 l-7 141 43 6 c24 3 55 7 69 10 14 2 38 4 53 5 27 1 28 0 21 -46z
m-257 -130 c6 -82 10 -149 9 -150 -6 -7 -168 -24 -173 -19 -8 7 -62 236 -63
262 0 20 9 23 93 37 50 8 99 15 108 16 14 1 18 -21 26 -146z"/>
<path d="M2058 2229 c-22 -12 -23 -32 -3 -62 8 -12 22 -51 32 -87 15 -54 18
-100 16 -280 -1 -118 -8 -273 -16 -345 -16 -140 -9 -194 29 -236 23 -26 40
-24 60 6 33 51 44 133 44 345 1 113 5 237 9 275 5 39 15 116 22 172 15 118 16
116 -75 177 -58 40 -93 50 -118 35z"/>
<path d="M1515 1616 c-19 -7 -241 -56 -343 -75 -117 -22 -142 -35 -117 -60 24
-24 259 -20 386 6 163 35 222 73 174 113 -14 12 -81 23 -100 16z"/>
<path d="M1505 1355 c-342 -69 -591 -102 -920 -123 -109 -7 -110 -7 -110 -32
0 -20 10 -30 57 -53 64 -33 20 -36 388 27 113 19 235 38 271 42 l66 6 21 -134
c34 -210 27 -299 -25 -319 -13 -5 -56 -9 -94 -9 -38 0 -69 -3 -69 -6 0 -4 15
-25 33 -48 19 -23 53 -71 76 -108 59 -95 100 -102 147 -26 54 85 62 127 65
367 l4 223 -45 38 -45 38 55 6 c30 4 138 15 239 27 267 29 323 44 308 83 -9
23 -40 32 -127 39 -64 5 -108 0 -295 -38z"/>
<path d="M849 973 c-92 -171 -99 -186 -99 -220 0 -119 103 -85 172 55 53 107
52 262 -1 262 -14 0 -34 -28 -72 -97z"/>
<path d="M1564 1056 c-3 -9 -3 -27 0 -41 7 -27 161 -203 201 -229 85 -56 129
50 63 150 -26 39 -48 57 -108 87 -90 45 -147 57 -156 33z"/>
</g>
</svg>
