<?xml version="1.0" standalone="no"?>
<!DOCTYPE svg PUBLIC "-//W3C//DTD SVG 20010904//EN"
 "http://www.w3.org/TR/2001/REC-SVG-20010904/DTD/svg10.dtd">
<svg version="1.0" xmlns="http://www.w3.org/2000/svg"
 width="340.000000pt" height="340.000000pt" viewBox="0 0 340.000000 340.000000"
 preserveAspectRatio="xMidYMid meet">
<metadata>
Created by potrace 1.15, written by Peter Selinger 2001-2017
</metadata>
<g transform="translate(0.000000,340.000000) scale(0.100000,-0.100000)"
fill="#000000" stroke="none">
<path d="M1528 2843 c-24 -6 -23 -16 7 -77 36 -75 54 -156 66 -296 11 -136 5
-246 -17 -326 -16 -59 -11 -102 19 -157 25 -44 50 -46 80 -6 33 45 47 136 57
364 9 205 19 278 49 357 10 26 7 30 -44 69 -81 61 -160 87 -217 72z"/>
<path d="M2280 2613 c-8 -3 -26 -10 -40 -15 l-25 -10 30 -25 c159 -132 300
-214 374 -217 45 -1 46 0 59 39 11 34 11 45 -3 80 -25 67 -79 111 -165 134
-71 20 -195 27 -230 14z"/>
<path d="M1075 2383 c-24 -86 -53 -156 -91 -219 -27 -45 -34 -67 -34 -110 0
-61 24 -130 50 -144 42 -23 136 83 166 188 24 82 16 222 -16 287 -35 71 -55
71 -75 -2z"/>
<path d="M2027 2393 c-3 -5 -7 -29 -11 -54 -20 -136 -156 -314 -421 -546 -285
-251 -611 -471 -950 -641 -55 -27 -111 -60 -125 -72 l-25 -21 60 4 c85 7 164
36 370 137 425 208 667 382 1005 720 118 119 236 229 262 245 28 18 48 37 48
48 0 58 -66 133 -147 168 -49 21 -60 23 -66 12z"/>
<path d="M1790 1708 c0 -2 -2 -43 -4 -93 -2 -51 -12 -116 -23 -150 l-19 -60
-144 -22 c-80 -11 -173 -21 -207 -22 -75 -1 -93 -7 -93 -32 0 -26 87 -69 140
-69 22 0 88 11 147 25 58 14 108 23 110 21 8 -8 -106 -224 -168 -316 -81 -123
-282 -325 -399 -402 -47 -31 -136 -81 -197 -112 -62 -31 -113 -61 -113 -66 0
-28 160 5 290 60 330 137 574 406 725 798 21 53 34 74 49 77 139 31 363 52
385 36 28 -19 -22 -389 -69 -514 -29 -77 -77 -154 -106 -174 -25 -16 -31 -16
-108 1 -122 27 -156 31 -156 14 0 -7 25 -41 55 -76 63 -72 100 -125 140 -199
15 -29 32 -53 36 -53 20 0 163 106 194 144 66 80 121 248 166 505 26 152 42
198 89 264 22 31 40 66 40 79 -1 47 -72 106 -182 148 l-72 28 -51 -20 c-94
-38 -321 -95 -332 -84 -3 3 13 40 36 82 40 73 41 78 26 101 -26 39 -104 83
-147 83 -21 0 -38 -1 -38 -2z"/>
</g>
</svg>
