<?xml version="1.0" standalone="no"?>
<!DOCTYPE svg PUBLIC "-//W3C//DTD SVG 20010904//EN"
 "http://www.w3.org/TR/2001/REC-SVG-20010904/DTD/svg10.dtd">
<svg version="1.0" xmlns="http://www.w3.org/2000/svg"
 width="340.000000pt" height="340.000000pt" viewBox="0 0 340.000000 340.000000"
 preserveAspectRatio="xMidYMid meet">
<metadata>
Created by potrace 1.15, written by Peter Selinger 2001-2017
</metadata>
<g transform="translate(0.000000,340.000000) scale(0.100000,-0.100000)"
fill="#000000" stroke="none">
<path d="M2270 2550 c-8 -16 -5 -30 17 -72 27 -52 28 -57 28 -218 0 -154 -20
-385 -35 -410 -8 -12 -186 -45 -302 -56 -80 -7 -117 -22 -104 -43 4 -6 35 -25
69 -42 l61 -31 123 32 c68 18 126 31 128 28 2 -2 -11 -62 -29 -134 -104 -396
-254 -672 -531 -974 -82 -90 -122 -146 -112 -157 17 -16 202 112 305 211 230
221 387 529 477 936 14 63 27 125 30 136 6 26 93 53 200 61 69 5 74 4 86 -18
9 -16 13 -60 12 -139 -3 -265 -104 -710 -192 -845 -36 -54 -68 -56 -168 -12
-145 65 -155 60 -80 -39 29 -38 65 -99 80 -134 57 -134 70 -155 100 -158 39
-5 111 33 150 79 44 51 92 151 116 241 31 112 77 356 100 523 38 271 43 299
62 351 11 29 34 71 51 95 29 40 30 44 15 68 -23 39 -107 94 -183 120 l-69 24
-50 -32 c-42 -26 -193 -75 -203 -66 -5 5 47 294 69 378 11 44 29 98 40 119 11
22 17 48 14 58 -9 28 -59 67 -136 106 -79 39 -123 44 -139 14z"/>
<path d="M1785 2513 c-48 -7 -132 -29 -260 -66 -152 -44 -342 -87 -387 -87
-20 0 -62 14 -95 31 -32 17 -78 33 -101 36 -40 5 -42 4 -42 -19 0 -14 8 -40
18 -59 27 -52 23 -350 -7 -522 -49 -280 -114 -493 -211 -692 -70 -145 -110
-207 -223 -348 -115 -144 -117 -169 -8 -96 301 201 484 580 600 1244 17 94 33
200 37 236 4 37 10 72 13 78 4 6 133 34 287 62 407 74 564 111 564 135 0 17
-58 64 -80 64 -9 0 -30 2 -46 4 -16 2 -42 2 -59 -1z"/>
<path d="M1645 2036 c-66 -18 -190 -54 -275 -78 -85 -25 -181 -51 -212 -57
-32 -7 -58 -17 -58 -22 0 -21 85 -49 149 -49 l63 0 -7 -92 c-28 -368 -182
-720 -441 -1008 -112 -124 -106 -143 19 -60 88 59 231 205 305 312 71 104 144
252 184 377 l33 103 81 -5 c102 -6 141 -25 150 -72 13 -72 -29 -262 -81 -365
-21 -42 -29 -49 -64 -55 -29 -5 -56 -1 -101 16 -33 12 -63 19 -67 16 -3 -4 19
-44 50 -89 31 -46 64 -104 73 -130 8 -25 22 -49 30 -52 39 -15 122 44 173 124
41 63 61 124 91 282 23 121 49 199 86 253 l24 37 -22 39 c-44 78 -144 110
-246 79 -32 -10 -78 -21 -104 -24 -48 -7 -48 -7 -48 21 0 15 14 66 31 113 45
125 44 129 -21 165 l-55 29 135 33 c74 18 203 44 285 59 184 32 199 36 203 58
9 44 -71 77 -186 75 -31 0 -111 -15 -177 -33z"/>
</g>
</svg>
