<?xml version="1.0" standalone="no"?>
<!DOCTYPE svg PUBLIC "-//W3C//DTD SVG 20010904//EN"
 "http://www.w3.org/TR/2001/REC-SVG-20010904/DTD/svg10.dtd">
<svg version="1.0" xmlns="http://www.w3.org/2000/svg"
 width="340.000000pt" height="340.000000pt" viewBox="0 0 340.000000 340.000000"
 preserveAspectRatio="xMidYMid meet">
<metadata>
Created by potrace 1.15, written by Peter Selinger 2001-2017
</metadata>
<g transform="translate(0.000000,340.000000) scale(0.100000,-0.100000)"
fill="#000000" stroke="none">
<path d="M1248 2899 c-24 -13 -23 -34 3 -68 31 -42 43 -166 33 -326 l-9 -130
-145 -36 c-80 -19 -157 -39 -172 -42 -35 -9 -36 -31 -3 -53 22 -14 45 -16 148
-11 67 3 131 9 141 13 18 7 18 2 12 -107 -4 -63 -10 -124 -13 -136 -4 -19 -29
-28 -226 -76 l-222 -54 -37 36 c-46 43 -55 37 -75 -49 -7 -34 -37 -108 -65
-164 -43 -85 -51 -109 -50 -153 1 -75 27 -118 63 -105 60 23 111 102 130 203
6 35 17 86 23 113 l11 50 120 33 c249 69 563 128 720 135 84 4 89 -4 51 -84
-36 -77 -47 -108 -37 -108 5 0 47 18 94 41 47 22 116 49 154 58 78 20 80 27
32 98 -32 46 -108 96 -174 114 -34 9 -49 7 -115 -15 -75 -26 -259 -70 -266
-63 -4 3 26 250 31 255 1 1 47 13 101 27 184 44 264 84 264 131 0 51 -72 54
-257 9 l-96 -23 7 64 c8 75 52 254 66 268 31 31 -13 81 -110 124 -82 37 -110
43 -132 31z"/>
<path d="M2201 2566 c-9 -11 -6 -28 15 -78 41 -94 38 -205 -13 -456 -22 -105
-43 -195 -46 -199 -9 -8 -245 -63 -274 -63 -13 0 -23 -6 -23 -14 0 -37 60 -46
203 -32 62 6 76 5 73 -6 -3 -7 -19 -60 -37 -118 -44 -147 -126 -355 -192 -486
-83 -166 -183 -307 -311 -441 -109 -115 -143 -159 -133 -170 11 -10 50 10 130
69 209 155 350 333 481 609 79 166 109 251 201 565 5 16 209 64 270 64 l48 0
-7 -159 c-11 -254 -49 -477 -112 -653 -35 -98 -109 -244 -127 -251 -17 -6 -59
2 -146 32 -107 35 -111 30 -53 -69 21 -36 57 -111 81 -167 23 -56 50 -104 58
-107 26 -10 101 33 141 80 143 170 233 432 297 864 30 209 43 257 90 334 19
32 35 67 35 77 0 27 -55 84 -103 107 -23 11 -67 25 -98 31 -49 10 -60 9 -100
-8 -45 -20 -240 -73 -246 -67 -5 5 44 238 67 318 28 97 59 177 82 210 41 60
12 103 -112 162 -79 38 -120 45 -139 22z"/>
<path d="M1338 1749 c-47 -24 -248 -82 -346 -99 -40 -7 -77 -19 -84 -27 -16
-20 14 -49 71 -68 l48 -15 95 44 c119 55 231 96 264 96 43 0 39 -27 -15 -136
-62 -121 -71 -132 -107 -115 -14 6 -40 11 -59 11 -28 0 -35 -4 -35 -20 0 -11
14 -29 30 -42 31 -23 80 -112 80 -145 0 -15 -33 -28 -187 -75 -265 -81 -383
-108 -496 -115 -113 -7 -117 -12 -56 -78 41 -45 127 -95 162 -95 11 0 99 38
196 83 263 125 391 181 398 173 11 -11 -16 -319 -33 -375 -21 -71 -69 -121
-115 -121 -19 0 -56 7 -83 15 -53 16 -96 20 -96 7 0 -4 24 -39 53 -79 28 -39
69 -99 89 -132 45 -73 66 -77 140 -30 66 43 123 110 150 178 20 52 22 72 23
271 0 118 -2 237 -5 265 -5 57 -23 42 165 132 118 56 119 57 80 61 -26 2 -78
-9 -150 -32 -60 -19 -109 -34 -110 -33 -2 8 -33 95 -39 108 -10 23 98 135 188
194 42 27 76 54 76 60 0 20 -39 73 -72 98 -38 29 -116 57 -156 57 -15 -1 -44
-10 -64 -21z"/>
</g>
</svg>
