<?xml version="1.0" standalone="no"?>
<!DOCTYPE svg PUBLIC "-//W3C//DTD SVG 20010904//EN"
 "http://www.w3.org/TR/2001/REC-SVG-20010904/DTD/svg10.dtd">
<svg version="1.0" xmlns="http://www.w3.org/2000/svg"
 width="340.000000pt" height="340.000000pt" viewBox="0 0 340.000000 340.000000"
 preserveAspectRatio="xMidYMid meet">
<metadata>
Created by potrace 1.15, written by Peter Selinger 2001-2017
</metadata>
<g transform="translate(0.000000,340.000000) scale(0.100000,-0.100000)"
fill="#000000" stroke="none">
<path d="M1296 2922 c-3 -5 -1 -24 4 -42 24 -82 -55 -312 -167 -488 -83 -131
-267 -347 -375 -442 -83 -72 -59 -80 60 -20 52 26 108 66 159 112 43 40 89 82
103 95 l26 23 48 -25 c27 -14 66 -25 86 -25 45 0 374 40 635 77 299 43 324 39
374 -61 32 -64 37 -148 22 -418 -30 -552 -97 -877 -207 -1008 -26 -31 -31 -32
-78 -27 -28 3 -83 19 -123 36 -125 54 -131 39 -41 -93 34 -50 74 -119 89 -152
32 -70 71 -107 103 -98 160 45 289 206 345 430 50 197 87 524 101 894 10 273
26 343 96 437 13 17 24 36 24 41 0 41 -224 172 -331 193 -50 11 -62 9 -169
-24 -132 -40 -375 -92 -637 -136 -195 -33 -237 -36 -278 -21 l-26 10 69 82
c96 116 189 239 257 338 31 47 73 101 92 121 30 31 33 40 24 58 -32 59 -263
168 -285 133z"/>
<path d="M1223 1940 c8 -69 -13 -142 -84 -289 -76 -159 -150 -270 -232 -349
-62 -59 -151 -112 -189 -112 -14 0 -18 -8 -18 -37 0 -56 34 -116 80 -142 l40
-22 22 21 c13 12 34 28 48 35 57 30 247 89 430 135 286 71 313 76 318 62 7
-23 82 -129 121 -173 33 -37 42 -42 58 -33 41 25 55 140 28 232 -29 98 -146
211 -282 273 -115 53 -120 35 -28 -116 36 -59 65 -108 65 -109 0 -2 -33 -6
-73 -9 -40 -4 -152 -20 -247 -36 -96 -16 -209 -33 -250 -37 l-75 -7 79 84 c43
46 138 163 211 259 73 96 156 198 184 226 33 34 49 57 45 67 -12 32 -184 127
-230 127 -26 0 -27 -1 -21 -50z"/>
</g>
</svg>
