<?xml version="1.0" standalone="no"?>
<!DOCTYPE svg PUBLIC "-//W3C//DTD SVG 20010904//EN"
 "http://www.w3.org/TR/2001/REC-SVG-20010904/DTD/svg10.dtd">
<svg version="1.0" xmlns="http://www.w3.org/2000/svg"
 width="340.000000pt" height="340.000000pt" viewBox="0 0 340.000000 340.000000"
 preserveAspectRatio="xMidYMid meet">
<metadata>
Created by potrace 1.15, written by Peter Selinger 2001-2017
</metadata>
<g transform="translate(0.000000,340.000000) scale(0.100000,-0.100000)"
fill="#000000" stroke="none">
<path d="M2270 2674 c-153 -18 -238 -30 -470 -69 -365 -60 -517 -79 -645 -79
-101 -1 -115 1 -175 28 -43 20 -82 30 -115 30 -45 1 -50 -1 -53 -22 -2 -12 11
-64 30 -115 l33 -92 0 -620 c0 -635 -3 -704 -42 -865 -8 -36 -33 -102 -55
-147 -39 -79 -40 -83 -29 -129 15 -58 43 -113 70 -138 24 -22 51 -19 136 17
176 74 588 109 1331 112 275 1 506 5 512 9 7 4 12 22 12 40 0 62 -70 111 -208
147 -71 18 -89 19 -232 9 -246 -17 -503 -40 -524 -46 -15 -5 -18 -3 -12 12 36
88 58 500 49 870 l-6 212 29 6 c182 36 308 57 327 54 22 -3 22 -4 22 -183 0
-192 -13 -266 -57 -328 -18 -25 -25 -28 -57 -22 -20 3 -58 13 -84 22 -27 8
-51 13 -53 10 -3 -3 16 -36 42 -73 26 -38 60 -98 76 -134 16 -36 37 -73 45
-82 23 -26 71 -22 109 7 73 55 107 154 154 437 29 182 34 195 82 262 15 21 28
45 28 52 0 20 -108 104 -169 132 -98 45 -137 42 -394 -35 -48 -14 -89 -24 -92
-21 -10 10 15 155 42 236 l27 83 -30 24 c-46 39 -164 95 -198 95 -61 0 -64
-10 -33 -97 32 -92 54 -201 59 -298 l3 -69 -35 -8 c-19 -4 -87 -10 -151 -14
-101 -6 -123 -4 -180 14 -93 30 -132 34 -153 19 -18 -13 -18 -17 7 -93 37
-110 47 -192 47 -395 l0 -175 28 -45 c36 -55 67 -83 86 -76 27 11 37 101 43
373 l5 271 117 12 c64 6 133 14 154 17 l38 6 -1 -514 c-1 -330 2 -525 8 -545
8 -26 8 -33 -3 -33 -7 0 -175 -16 -374 -35 -198 -19 -372 -35 -387 -35 l-27 0
7 78 c55 671 77 1058 79 1404 l2 276 100 6 c55 4 231 13 390 21 536 29 900 60
972 86 61 21 41 79 -40 121 -42 21 -138 31 -217 22z"/>
</g>
</svg>
