<?xml version="1.0" standalone="no"?>
<!DOCTYPE svg PUBLIC "-//W3C//DTD SVG 20010904//EN"
 "http://www.w3.org/TR/2001/REC-SVG-20010904/DTD/svg10.dtd">
<svg version="1.0" xmlns="http://www.w3.org/2000/svg"
 width="340.000000pt" height="340.000000pt" viewBox="0 0 340.000000 340.000000"
 preserveAspectRatio="xMidYMid meet">
<metadata>
Created by potrace 1.15, written by Peter Selinger 2001-2017
</metadata>
<g transform="translate(0.000000,340.000000) scale(0.100000,-0.100000)"
fill="#000000" stroke="none">
<path d="M2195 2651 c-55 -11 -190 -40 -300 -65 -247 -56 -451 -91 -616 -107
-145 -13 -171 -11 -294 25 -103 30 -157 33 -179 10 -14 -14 -14 -19 0 -52 67
-155 84 -276 84 -583 0 -260 -12 -555 -35 -849 -21 -256 -38 -331 -97 -411
-17 -23 -18 -31 -8 -68 13 -48 62 -109 95 -117 14 -3 44 5 81 24 121 61 308
100 584 124 204 17 844 16 1055 -1 189 -15 267 -7 301 30 18 20 18 22 -1 57
-15 28 -37 46 -89 72 -63 32 -76 35 -175 38 -64 2 -270 -10 -526 -32 -562 -47
-1063 -81 -1071 -74 -6 7 56 1680 63 1688 2 2 70 7 151 11 159 8 279 20 497
49 77 10 259 31 405 45 389 38 465 57 458 113 -2 22 -15 33 -62 56 -76 38
-178 44 -321 17z"/>
<path d="M2050 2124 c-184 -47 -377 -81 -549 -98 -163 -16 -191 -29 -146 -64
39 -31 115 -43 254 -41 l124 1 17 -33 c26 -50 42 -132 44 -212 l1 -71 -55 -13
c-30 -7 -107 -17 -172 -24 -124 -12 -144 -19 -135 -42 10 -27 101 -40 244 -35
l133 5 0 -152 0 -153 -69 -16 c-73 -17 -328 -60 -423 -71 -67 -8 -102 -28 -78
-45 8 -6 46 -20 84 -31 l69 -22 161 31 c266 52 417 68 746 78 211 7 260 16
260 50 0 21 -50 67 -97 89 -32 15 -54 17 -153 12 -63 -4 -171 -18 -240 -32
-69 -14 -126 -25 -127 -25 -2 0 -3 67 -3 150 l0 149 33 5 c17 3 88 15 157 26
69 11 146 27 173 36 79 26 84 70 10 101 -46 19 -91 16 -236 -13 -71 -14 -131
-23 -135 -20 -3 4 -1 38 6 77 22 130 12 184 -43 228 l-26 20 33 5 c18 3 98 15
178 26 183 27 287 53 314 79 18 18 19 23 6 35 -20 20 -124 46 -180 45 -25 -1
-106 -16 -180 -35z"/>
</g>
</svg>
