<?xml version="1.0" standalone="no"?>
<!DOCTYPE svg PUBLIC "-//W3C//DTD SVG 20010904//EN"
 "http://www.w3.org/TR/2001/REC-SVG-20010904/DTD/svg10.dtd">
<svg version="1.0" xmlns="http://www.w3.org/2000/svg"
 width="340.000000pt" height="340.000000pt" viewBox="0 0 340.000000 340.000000"
 preserveAspectRatio="xMidYMid meet">
<metadata>
Created by potrace 1.15, written by Peter Selinger 2001-2017
</metadata>
<g transform="translate(0.000000,340.000000) scale(0.100000,-0.100000)"
fill="#000000" stroke="none">
<path d="M2190 2599 c-183 -39 -637 -114 -847 -140 l-173 -21 -82 36 c-103 44
-193 68 -225 60 -30 -8 -29 -18 16 -144 50 -141 65 -290 64 -625 -1 -288 -14
-620 -34 -830 -11 -118 -30 -176 -86 -253 -29 -39 -30 -44 -21 -94 14 -73 32
-114 61 -133 24 -15 27 -15 72 14 127 81 363 122 815 142 294 14 609 7 820
-17 143 -16 158 -16 193 -1 52 22 50 54 -5 101 -61 53 -112 74 -212 87 -90 11
-142 9 -499 -24 l-129 -12 7 40 c11 68 25 313 25 447 l0 126 105 7 c57 4 111
5 118 2 8 -3 19 -25 25 -49 16 -60 48 -108 71 -108 52 0 116 130 183 370 61
222 86 292 123 351 74 118 72 109 34 140 -59 49 -152 99 -221 120 l-66 20
-119 -26 c-143 -32 -378 -67 -610 -90 -170 -17 -171 -17 -232 4 -34 12 -77 21
-96 21 -30 0 -35 -3 -35 -22 1 -13 7 -39 15 -58 52 -133 66 -181 89 -286 13
-66 32 -184 41 -264 20 -180 31 -240 51 -268 31 -45 64 -20 79 61 l7 34 126
12 c70 7 141 15 158 17 l31 6 7 -302 c4 -166 6 -304 4 -305 -4 -4 -533 -52
-672 -61 l-109 -7 7 104 c3 57 8 417 11 799 3 382 8 711 11 730 l5 35 324 23
c580 41 1032 94 1104 130 51 25 60 45 35 78 -45 61 -154 67 -364 23z m122
-517 c20 -20 29 -123 18 -224 -14 -132 -72 -428 -84 -428 -2 0 -21 7 -42 16
-30 13 -59 15 -129 11 -49 -3 -98 -8 -107 -12 -17 -7 -18 3 -18 117 l0 124
110 21 c126 25 180 47 180 74 0 19 -29 42 -69 54 -13 4 -66 -1 -117 -11 -52
-9 -97 -14 -101 -11 -3 4 -1 46 6 93 11 79 10 89 -7 125 l-19 39 31 5 c120 23
328 27 348 7z m-503 -83 c11 -49 17 -216 9 -225 -2 -2 -49 -11 -104 -20 -112
-18 -156 -32 -151 -48 5 -16 67 -25 175 -25 l92 -1 0 -130 c0 -103 -3 -130
-14 -130 -7 0 -80 -7 -161 -15 -81 -9 -149 -14 -151 -12 -6 6 -79 616 -74 621
4 3 271 30 347 35 18 1 23 -7 32 -50z"/>
</g>
</svg>
