<?xml version="1.0" standalone="no"?>
<!DOCTYPE svg PUBLIC "-//W3C//DTD SVG 20010904//EN"
 "http://www.w3.org/TR/2001/REC-SVG-20010904/DTD/svg10.dtd">
<svg version="1.0" xmlns="http://www.w3.org/2000/svg"
 width="340.000000pt" height="340.000000pt" viewBox="0 0 340.000000 340.000000"
 preserveAspectRatio="xMidYMid meet">
<metadata>
Created by potrace 1.15, written by Peter Selinger 2001-2017
</metadata>
<g transform="translate(0.000000,340.000000) scale(0.100000,-0.100000)"
fill="#000000" stroke="none">
<path d="M2325 2744 c-16 -3 -95 -20 -175 -39 -170 -40 -329 -71 -607 -119
l-203 -35 -52 24 c-74 34 -154 50 -184 36 -31 -14 -30 -28 4 -87 26 -47 27
-54 27 -199 0 -322 -107 -747 -274 -1090 -89 -182 -180 -324 -302 -472 -86
-104 -130 -168 -111 -162 6 2 56 37 112 78 235 173 411 416 540 747 75 193
145 507 194 879 l22 170 75 -3 c50 -2 142 8 289 32 118 20 341 51 495 71 386
48 347 38 343 87 -2 30 -10 46 -28 59 -26 18 -112 30 -165 23z"/>
<path d="M1828 2479 c-12 -7 -18 -22 -18 -47 0 -87 -99 -293 -194 -407 -29
-34 -35 -37 -86 -37 -30 -1 -85 3 -122 7 -57 6 -68 5 -68 -7 0 -8 9 -23 19
-32 49 -45 91 -189 116 -401 18 -152 36 -213 76 -256 34 -37 49 -34 64 12 14
41 56 57 153 58 l63 1 19 -42 c37 -86 54 -204 55 -378 0 -253 -11 -280 -114
-280 -33 0 -82 5 -110 12 -40 9 -54 9 -64 -1 -9 -10 4 -27 65 -82 42 -38 102
-104 133 -145 32 -42 63 -78 71 -81 47 -18 111 48 139 141 30 100 38 199 26
339 -7 73 -14 201 -16 286 -5 175 -9 185 -95 224 l-45 21 105 12 c58 7 132 14
165 16 l60 3 28 -52 c16 -29 34 -53 41 -53 50 0 126 137 197 355 53 165 87
241 128 288 l33 37 -19 32 c-25 44 -106 91 -198 116 -68 19 -78 19 -105 6 -61
-31 -428 -111 -599 -131 l-56 -6 85 93 c75 82 142 146 295 282 34 31 37 38 26
52 -32 39 -210 70 -253 45z m513 -455 c31 -37 21 -219 -21 -401 -21 -87 -56
-173 -72 -173 -5 0 -26 11 -46 25 -51 34 -93 33 -313 -14 -101 -22 -205 -44
-230 -49 l-46 -9 -17 122 c-20 156 -21 148 6 134 51 -27 297 2 532 64 56 15
77 45 50 72 -31 30 -144 16 -473 -60 -62 -14 -119 -24 -125 -22 -17 7 -51 187
-37 196 16 10 419 90 561 112 152 23 214 24 231 3z"/>
<path d="M1404 1113 c-14 -59 -53 -131 -113 -210 -94 -125 -118 -194 -90 -257
16 -34 40 -37 97 -11 120 55 211 252 184 396 -18 98 -63 145 -78 82z"/>
<path d="M2270 1131 c0 -39 294 -375 376 -430 86 -56 134 -33 134 64 0 68 -36
141 -94 192 -94 83 -416 217 -416 174z"/>
</g>
</svg>
