<?xml version="1.0" standalone="no"?>
<!DOCTYPE svg PUBLIC "-//W3C//DTD SVG 20010904//EN"
 "http://www.w3.org/TR/2001/REC-SVG-20010904/DTD/svg10.dtd">
<svg version="1.0" xmlns="http://www.w3.org/2000/svg"
 width="340.000000pt" height="340.000000pt" viewBox="0 0 340.000000 340.000000"
 preserveAspectRatio="xMidYMid meet">
<metadata>
Created by potrace 1.15, written by Peter Selinger 2001-2017
</metadata>
<g transform="translate(0.000000,340.000000) scale(0.100000,-0.100000)"
fill="#000000" stroke="none">
<path d="M2585 2503 c-16 -2 -147 -19 -290 -38 -498 -67 -936 -111 -1429 -145
-159 -11 -291 -22 -295 -25 -14 -14 29 -62 79 -88 91 -46 122 -47 335 -10 212
36 587 85 829 108 179 17 177 17 207 -51 49 -110 72 -334 71 -694 -1 -500 -44
-796 -117 -814 -22 -6 -103 6 -238 35 -31 6 -61 9 -64 5 -4 -4 32 -45 80 -91
48 -47 118 -127 157 -179 84 -113 102 -128 139 -115 38 15 99 77 126 129 58
113 60 135 60 530 0 201 -2 493 -4 650 -3 244 -1 294 13 350 31 120 31 114
-10 160 -21 23 -63 56 -94 74 l-55 31 60 8 c57 8 242 5 630 -9 142 -5 173 -4
190 9 46 35 -29 104 -161 148 -81 28 -135 33 -219 22z"/>
<path d="M1525 1944 c-133 -54 -218 -67 -380 -59 -123 6 -143 5 -154 -9 -12
-14 -10 -22 13 -55 56 -81 78 -166 100 -404 15 -150 23 -179 56 -197 27 -14
46 9 60 73 l11 54 112 16 c62 9 171 24 242 32 189 23 183 18 134 98 -29 47
-30 52 -19 96 17 67 64 160 105 209 l37 42 -22 35 c-25 41 -62 68 -110 83 -75
22 -103 20 -185 -14z m45 -110 c8 -9 13 -40 12 -78 -1 -71 -47 -266 -65 -278
-32 -21 -272 -66 -284 -54 -7 7 -39 240 -45 319 l-3 52 130 27 c153 31 236 35
255 12z"/>
</g>
</svg>
