<?xml version="1.0" standalone="no"?>
<!DOCTYPE svg PUBLIC "-//W3C//DTD SVG 20010904//EN"
 "http://www.w3.org/TR/2001/REC-SVG-20010904/DTD/svg10.dtd">
<svg version="1.0" xmlns="http://www.w3.org/2000/svg"
 width="340.000000pt" height="340.000000pt" viewBox="0 0 340.000000 340.000000"
 preserveAspectRatio="xMidYMid meet">
<metadata>
Created by potrace 1.15, written by Peter Selinger 2001-2017
</metadata>
<g transform="translate(0.000000,340.000000) scale(0.100000,-0.100000)"
fill="#000000" stroke="none">
<path d="M2110 2749 c-196 -72 -643 -139 -932 -139 -58 0 -78 -3 -78 -13 0
-22 52 -64 114 -93 l58 -27 192 32 c286 47 534 81 594 81 99 0 159 -46 186
-143 25 -89 40 -451 33 -827 -10 -508 -34 -809 -71 -865 -25 -38 -85 -34 -199
14 -172 74 -183 67 -79 -54 37 -43 103 -132 147 -199 44 -66 87 -124 96 -129
42 -26 158 72 207 174 59 125 66 185 64 569 -2 190 -7 442 -12 560 -25 549 -2
781 80 832 11 7 20 24 20 38 0 36 -96 122 -186 167 -93 45 -155 51 -234 22z"/>
<path d="M1490 2194 c-141 -31 -378 -72 -468 -80 -39 -4 -80 -12 -89 -19 -15
-11 -14 -14 8 -29 14 -9 61 -25 105 -37 170 -45 586 1 745 81 55 28 64 45 40
69 -47 47 -175 53 -341 15z"/>
<path d="M1501 1759 c-78 -37 -209 -72 -361 -98 -155 -27 -191 -27 -290 -2
-159 39 -182 22 -103 -73 61 -73 144 -283 179 -453 28 -138 85 -236 117 -204
6 6 13 40 15 75 l4 64 62 11 c33 6 126 18 206 26 349 37 452 56 458 86 1 8
-13 36 -33 62 l-36 47 15 53 c20 68 76 160 132 217 52 53 55 78 15 118 -36 36
-81 58 -157 76 -116 28 -153 27 -223 -5z m86 -226 c-7 -115 -36 -209 -75 -245
-31 -29 -101 -47 -292 -78 -167 -27 -170 -26 -170 8 0 15 -16 94 -36 175 -20
82 -34 150 -32 153 12 11 472 83 537 83 l74 1 -6 -97z"/>
</g>
</svg>
