<?xml version="1.0" standalone="no"?>
<!DOCTYPE svg PUBLIC "-//W3C//DTD SVG 20010904//EN"
 "http://www.w3.org/TR/2001/REC-SVG-20010904/DTD/svg10.dtd">
<svg version="1.0" xmlns="http://www.w3.org/2000/svg"
 width="340.000000pt" height="340.000000pt" viewBox="0 0 340.000000 340.000000"
 preserveAspectRatio="xMidYMid meet">
<metadata>
Created by potrace 1.15, written by Peter Selinger 2001-2017
</metadata>
<g transform="translate(0.000000,340.000000) scale(0.100000,-0.100000)"
fill="#000000" stroke="none">
<path d="M2120 2432 c-8 -4 -35 -19 -60 -34 -56 -33 -174 -79 -260 -102 -63
-17 -67 -17 -116 2 -77 31 -139 37 -168 18 -29 -19 -27 -30 22 -140 43 -99 48
-156 33 -363 -25 -338 -56 -514 -111 -627 -100 -208 -298 -418 -562 -595 -43
-28 -78 -56 -78 -62 0 -22 96 3 195 51 140 67 269 156 363 248 81 80 175 211
212 297 87 203 134 483 148 879 l7 188 80 24 c132 40 261 68 279 61 11 -4 15
-14 12 -24 -7 -24 -71 -452 -96 -648 -31 -236 -37 -459 -16 -565 58 -291 234
-412 576 -396 142 7 239 25 299 56 61 31 68 53 43 147 -29 113 -34 144 -41
286 -3 76 -10 127 -16 126 -5 -1 -31 -61 -56 -133 -25 -72 -55 -150 -67 -173
-42 -80 -127 -123 -246 -123 -165 0 -299 73 -342 186 -35 91 -2 618 55 899 23
112 62 200 129 288 82 107 81 105 36 145 -21 19 -60 45 -86 58 -48 24 -142 39
-168 26z"/>
<path d="M1080 2146 c-47 -26 -195 -74 -280 -91 -73 -15 -96 -16 -173 -5 -108
15 -157 8 -157 -21 0 -12 16 -47 35 -78 65 -105 104 -239 130 -441 19 -152 38
-221 70 -257 21 -25 25 -26 39 -13 17 17 36 101 36 161 0 45 -11 41 175 64
197 24 285 52 285 92 0 9 -12 30 -27 45 l-27 28 19 56 c26 77 81 167 138 227
26 27 47 53 47 57 0 18 -63 91 -103 118 -38 27 -151 73 -174 72 -4 -1 -19 -7
-33 -14z m-60 -145 c20 -5 27 -17 37 -56 25 -109 10 -228 -38 -317 -26 -46
-54 -60 -190 -97 l-69 -19 -5 22 c-4 21 -44 359 -48 405 -2 27 -1 27 153 56
84 15 123 16 160 6z"/>
</g>
</svg>
