<?xml version="1.0" standalone="no"?>
<!DOCTYPE svg PUBLIC "-//W3C//DTD SVG 20010904//EN"
 "http://www.w3.org/TR/2001/REC-SVG-20010904/DTD/svg10.dtd">
<svg version="1.0" xmlns="http://www.w3.org/2000/svg"
 width="340.000000pt" height="340.000000pt" viewBox="0 0 340.000000 340.000000"
 preserveAspectRatio="xMidYMid meet">
<metadata>
Created by potrace 1.15, written by Peter Selinger 2001-2017
</metadata>
<g transform="translate(0.000000,340.000000) scale(0.100000,-0.100000)"
fill="#000000" stroke="none">
<path d="M1955 2934 c-251 -92 -409 -133 -595 -153 -77 -9 -111 -8 -177 5 -98
18 -167 16 -171 -6 -1 -8 15 -39 37 -68 44 -58 88 -165 127 -305 51 -187 68
-230 97 -251 36 -27 59 -13 71 42 9 40 12 42 60 51 124 25 123 25 130 -1 11
-43 27 -243 24 -303 l-3 -60 -95 -17 c-52 -9 -161 -26 -242 -38 -142 -21 -150
-21 -247 -5 -115 20 -171 15 -171 -15 0 -11 14 -41 30 -67 59 -93 92 -254 89
-436 -1 -112 13 -171 52 -209 35 -35 59 -33 79 7 12 24 15 84 17 320 l2 290
233 42 c128 23 239 42 247 42 12 1 13 -62 9 -416 -3 -230 -2 -530 2 -668 10
-317 24 -364 79 -266 65 117 82 287 90 886 l6 490 115 22 c164 32 380 58 412
50 42 -11 52 -41 50 -147 -4 -198 -37 -326 -99 -381 -34 -29 -40 -31 -87 -25
-180 24 -181 23 -117 -50 21 -24 62 -79 91 -121 97 -143 132 -166 190 -126 95
66 164 241 190 478 15 143 31 191 85 254 51 59 53 70 25 116 -22 36 -66 68
-156 113 -93 47 -104 47 -249 3 -131 -39 -320 -84 -407 -97 -56 -7 -56 -8 -33
96 8 36 14 89 15 118 0 59 -11 74 -87 122 -28 18 -41 31 -32 34 21 6 354 55
427 63 80 8 100 21 84 57 -6 14 -27 36 -47 48 -19 13 -35 25 -35 28 0 18 142
179 201 227 93 76 91 95 -13 160 -70 43 -122 67 -183 83 -50 12 -38 14 -120
-16z m15 -203 c0 -41 -26 -128 -66 -222 l-36 -87 -101 -21 c-56 -12 -175 -36
-265 -55 l-162 -34 -5 22 c-8 30 -64 351 -62 352 1 0 90 13 197 28 107 15 258
38 335 51 126 20 141 21 153 7 6 -9 12 -27 12 -41z"/>
</g>
</svg>
