<?xml version="1.0" standalone="no"?>
<!DOCTYPE svg PUBLIC "-//W3C//DTD SVG 20010904//EN"
 "http://www.w3.org/TR/2001/REC-SVG-20010904/DTD/svg10.dtd">
<svg version="1.0" xmlns="http://www.w3.org/2000/svg"
 width="340.000000pt" height="340.000000pt" viewBox="0 0 340.000000 340.000000"
 preserveAspectRatio="xMidYMid meet">
<metadata>
Created by potrace 1.15, written by Peter Selinger 2001-2017
</metadata>
<g transform="translate(0.000000,340.000000) scale(0.100000,-0.100000)"
fill="#000000" stroke="none">
<path d="M2205 2604 c-49 -8 -196 -34 -325 -59 -427 -81 -690 -118 -953 -135
-87 -5 -167 -15 -179 -21 -22 -12 -22 -12 12 -41 42 -34 128 -68 175 -68 18 0
156 20 307 45 150 25 311 51 358 59 47 8 87 12 88 11 5 -5 -15 -68 -41 -128
-17 -41 -23 -48 -41 -42 -12 3 -47 9 -78 12 -71 7 -74 -2 -23 -77 22 -33 32
-57 27 -66 -20 -36 -221 -251 -318 -340 -191 -175 -422 -347 -621 -463 -40
-23 -73 -47 -73 -53 0 -23 113 -1 201 40 109 50 330 189 479 300 113 85 276
238 338 317 l31 40 1 -106 c0 -63 -8 -153 -20 -220 -24 -137 -25 -180 -5 -245
15 -52 56 -101 74 -89 19 11 39 59 61 146 21 80 22 97 15 360 l-7 275 103 97
c118 111 117 102 30 199 l-51 56 48 6 c151 20 414 36 593 36 205 0 206 0 228
24 49 53 8 93 -130 126 -96 23 -175 24 -304 4z"/>
<path d="M1890 1882 c0 -7 37 -29 83 -49 45 -21 156 -76 247 -122 519 -265
510 -261 542 -221 12 15 18 39 18 74 0 60 -30 115 -98 180 -37 35 -52 41 -177
72 -179 44 -309 63 -477 71 -100 4 -138 3 -138 -5z"/>
<path d="M2036 1332 c-9 -16 -148 -59 -261 -81 -182 -36 -407 -63 -595 -69
-212 -8 -216 -10 -161 -88 73 -101 133 -268 166 -459 9 -54 24 -113 32 -130
19 -38 63 -85 80 -85 19 0 33 34 33 79 0 23 2 41 5 41 3 0 47 7 98 15 168 27
270 35 514 44 266 10 296 17 301 64 3 21 -8 43 -38 83 l-41 55 43 80 c23 44
67 110 96 147 30 37 60 80 69 96 14 28 14 29 -36 76 -80 78 -284 166 -305 132z
m22 -168 c29 -39 -2 -263 -50 -357 -25 -50 -53 -61 -230 -92 -292 -51 -460
-73 -463 -61 -6 17 -65 439 -63 442 3 2 553 81 613 88 22 2 71 3 109 1 54 -2
73 -7 84 -21z"/>
</g>
</svg>
