<?xml version="1.0" standalone="no"?>
<!DOCTYPE svg PUBLIC "-//W3C//DTD SVG 20010904//EN"
 "http://www.w3.org/TR/2001/REC-SVG-20010904/DTD/svg10.dtd">
<svg version="1.0" xmlns="http://www.w3.org/2000/svg"
 width="340.000000pt" height="340.000000pt" viewBox="0 0 340.000000 340.000000"
 preserveAspectRatio="xMidYMid meet">
<metadata>
Created by potrace 1.15, written by Peter Selinger 2001-2017
</metadata>
<g transform="translate(0.000000,340.000000) scale(0.100000,-0.100000)"
fill="#000000" stroke="none">
<path d="M2385 2573 c-11 -3 -101 -31 -200 -63 -209 -67 -363 -105 -402 -97
-16 3 -67 15 -114 27 -135 35 -164 17 -117 -73 42 -82 35 -273 -19 -532 -60
-290 -175 -556 -340 -789 -70 -97 -301 -333 -398 -405 -38 -29 -76 -64 -84
-78 -13 -26 -13 -26 22 -20 70 11 200 82 303 165 381 306 612 762 703 1387 12
77 21 152 21 166 0 26 2 27 73 34 226 21 532 84 663 137 32 13 66 35 77 50 19
25 19 28 4 52 -25 37 -119 56 -192 39z"/>
<path d="M930 2209 c-42 -21 -120 -50 -175 -64 -93 -24 -101 -24 -144 -10
-114 37 -201 38 -201 2 0 -8 18 -52 39 -98 45 -97 63 -178 91 -403 22 -178 31
-216 60 -263 27 -44 57 -44 76 2 7 19 14 45 14 58 0 23 6 26 93 41 115 21 346
76 370 88 25 13 21 38 -14 74 l-31 32 17 54 c44 133 98 226 187 326 56 61 55
68 -22 107 -57 29 -246 95 -268 94 -10 0 -51 -18 -92 -40z m74 -132 c41 -30
31 -162 -25 -333 l-30 -92 -132 -49 -132 -50 -6 141 c-4 78 -7 184 -8 238 l-1
96 108 26 c162 38 200 42 226 23z"/>
<path d="M2240 1953 c-59 -46 -107 -70 -209 -104 -97 -33 -115 -35 -164 -14
-47 19 -117 20 -117 1 0 -7 8 -33 18 -57 15 -40 17 -90 18 -499 0 -444 1 -456
22 -518 29 -81 58 -127 115 -179 100 -92 191 -118 422 -117 321 2 534 53 629
153 32 34 32 48 2 206 -8 44 -15 130 -16 192 0 61 -4 114 -9 117 -11 7 -50
-81 -90 -206 -50 -152 -120 -217 -277 -259 -107 -29 -380 -32 -465 -7 -107 33
-184 107 -210 202 -12 42 -1 350 25 711 l11 159 79 23 c43 12 114 28 158 35
68 10 81 10 89 -3 15 -20 3 -261 -16 -339 -24 -100 -30 -103 -152 -95 -61 5
-103 4 -103 -2 0 -5 16 -25 36 -44 20 -18 61 -69 92 -112 69 -99 89 -109 136
-73 62 47 108 129 125 221 5 33 17 101 25 150 23 136 42 187 91 251 58 75 64
98 34 124 -37 32 -105 70 -157 90 -86 32 -93 31 -142 -7z"/>
</g>
</svg>
