<?xml version="1.0" standalone="no"?>
<!DOCTYPE svg PUBLIC "-//W3C//DTD SVG 20010904//EN"
 "http://www.w3.org/TR/2001/REC-SVG-20010904/DTD/svg10.dtd">
<svg version="1.0" xmlns="http://www.w3.org/2000/svg"
 width="340.000000pt" height="340.000000pt" viewBox="0 0 340.000000 340.000000"
 preserveAspectRatio="xMidYMid meet">
<metadata>
Created by potrace 1.15, written by Peter Selinger 2001-2017
</metadata>
<g transform="translate(0.000000,340.000000) scale(0.100000,-0.100000)"
fill="#000000" stroke="none">
<path d="M1830 2659 c-192 -62 -425 -119 -494 -121 -33 -2 -99 4 -146 11 -86
14 -140 10 -140 -11 0 -6 11 -25 24 -42 56 -74 128 -258 156 -401 24 -124 38
-145 94 -145 19 0 27 7 32 24 7 30 13 32 97 41 58 6 67 5 67 -9 0 -9 7 -82 15
-163 9 -80 14 -147 12 -149 -3 -4 -573 -76 -777 -99 -149 -16 -177 -29 -140
-63 25 -23 138 -62 181 -62 17 0 99 16 183 36 186 44 489 104 495 99 6 -6
-104 -156 -190 -259 -157 -187 -298 -307 -591 -500 -80 -53 -152 -103 -158
-111 -40 -49 185 22 332 104 304 169 445 296 616 554 80 120 79 122 62 -123
-14 -203 -33 -357 -66 -520 -21 -108 -23 -131 -13 -180 15 -74 35 -120 66
-153 38 -39 61 -35 83 16 45 103 49 197 31 782 -6 175 -9 321 -7 322 2 2 50
-54 107 -124 170 -209 277 -331 397 -455 102 -104 119 -118 165 -130 102 -26
556 -3 589 30 17 17 -54 46 -224 91 -376 99 -484 166 -891 557 -122 118 -126
123 -100 128 38 8 301 24 583 36 236 10 330 17 363 26 47 14 -8 96 -86 129
-93 39 -171 35 -437 -20 -164 -34 -399 -75 -427 -75 -29 0 -29 12 2 104 14 41
25 83 25 94 0 22 -41 51 -102 73 -21 7 -38 16 -38 20 0 3 33 10 73 13 145 14
440 57 458 67 30 16 23 34 -31 81 l-50 44 31 45 c44 62 115 134 177 180 37 28
52 46 52 63 0 49 -136 140 -257 171 -31 8 -62 15 -68 14 -5 0 -66 -18 -135
-40z m76 -144 c20 -31 13 -127 -19 -255 l-22 -85 -106 -27 c-114 -28 -384 -66
-395 -55 -9 9 -49 336 -41 343 11 11 489 101 549 103 10 1 25 -10 34 -24z"/>
</g>
</svg>
