<?xml version="1.0" standalone="no"?>
<!DOCTYPE svg PUBLIC "-//W3C//DTD SVG 20010904//EN"
 "http://www.w3.org/TR/2001/REC-SVG-20010904/DTD/svg10.dtd">
<svg version="1.0" xmlns="http://www.w3.org/2000/svg"
 width="340.000000pt" height="340.000000pt" viewBox="0 0 340.000000 340.000000"
 preserveAspectRatio="xMidYMid meet">
<metadata>
Created by potrace 1.15, written by Peter Selinger 2001-2017
</metadata>
<g transform="translate(0.000000,340.000000) scale(0.100000,-0.100000)"
fill="#000000" stroke="none">
<path d="M2175 2564 c-57 -50 -149 -91 -283 -126 -91 -23 -129 -28 -172 -23
-30 3 -93 8 -139 12 l-84 6 5 -29 c3 -16 13 -58 23 -94 50 -184 -46 -686 -194
-1021 -119 -269 -278 -475 -518 -676 -62 -52 -113 -99 -113 -105 0 -28 162 47
265 123 110 82 292 272 364 379 76 113 146 250 195 383 36 96 88 295 101 388
l7 45 156 33 c87 18 233 48 326 67 225 45 255 65 176 121 -22 15 -40 32 -40
36 0 4 21 40 47 80 45 69 147 178 209 223 29 22 29 22 12 56 -9 20 -37 49 -63
66 -44 29 -202 92 -228 92 -7 -1 -30 -17 -52 -36z m11 -169 c13 -34 -55 -304
-88 -347 -12 -15 -402 -138 -438 -138 -14 0 -16 -13 28 232 16 87 31 161 35
164 11 11 380 102 420 103 25 1 40 -4 43 -14z"/>
<path d="M978 2200 c-36 -16 -109 -41 -161 -55 l-96 -26 -63 27 c-77 32 -160
38 -166 12 -2 -10 6 -31 17 -46 58 -82 95 -238 116 -497 8 -105 20 -214 26
-243 12 -59 47 -109 71 -100 21 8 38 83 38 162 0 53 3 66 18 70 15 4 97 17
355 57 62 10 97 28 97 49 0 4 -18 26 -40 48 l-39 41 24 76 c37 114 77 194 129
260 l47 60 -46 42 c-51 47 -130 80 -208 88 -44 5 -63 1 -119 -25z m83 -119
l23 -18 -23 -154 c-31 -208 -40 -248 -59 -257 -33 -16 -233 -65 -239 -58 -8 8
-39 433 -32 440 4 4 271 63 295 65 7 1 22 -7 35 -18z"/>
<path d="M1733 1679 c-8 -8 -2 -28 21 -71 31 -61 31 -62 31 -217 0 -86 -4
-244 -9 -352 -9 -185 -8 -199 12 -265 50 -165 173 -249 403 -274 274 -30 673
73 753 195 19 28 19 30 -3 116 -26 106 -40 211 -41 301 0 64 -11 91 -31 71 -5
-5 -18 -47 -30 -93 -42 -171 -127 -309 -225 -366 -67 -39 -124 -53 -257 -61
-226 -14 -292 -5 -374 50 -85 57 -130 182 -117 327 l6 65 147 85 c80 46 211
123 291 170 80 48 162 92 182 99 52 17 88 48 88 76 0 50 -128 127 -236 142
l-43 6 -7 -39 c-19 -106 -123 -242 -327 -426 -49 -44 -90 -78 -92 -76 -7 7 27
209 50 296 33 125 33 134 -16 183 -60 60 -146 88 -176 58z"/>
</g>
</svg>
