<?xml version="1.0" standalone="no"?>
<!DOCTYPE svg PUBLIC "-//W3C//DTD SVG 20010904//EN"
 "http://www.w3.org/TR/2001/REC-SVG-20010904/DTD/svg10.dtd">
<svg version="1.0" xmlns="http://www.w3.org/2000/svg"
 width="340.000000pt" height="340.000000pt" viewBox="0 0 340.000000 340.000000"
 preserveAspectRatio="xMidYMid meet">
<metadata>
Created by potrace 1.15, written by Peter Selinger 2001-2017
</metadata>
<g transform="translate(0.000000,340.000000) scale(0.100000,-0.100000)"
fill="#000000" stroke="none">
<path d="M1990 2584 c-26 -78 -175 -208 -362 -318 l-96 -56 -80 26 c-88 28
-160 30 -153 4 2 -8 15 -51 29 -95 37 -121 42 -343 12 -520 -50 -297 -160
-562 -320 -772 -33 -43 -112 -130 -175 -194 -63 -64 -115 -122 -115 -129 0
-19 50 -6 117 31 85 47 273 240 356 365 190 287 292 636 315 1083 l7 126 59
28 c68 32 76 29 96 -38 30 -101 20 -818 -15 -1040 -21 -141 -47 -209 -105
-284 -45 -58 -50 -69 -50 -115 1 -28 9 -73 18 -101 28 -81 44 -76 180 57 107
105 216 189 300 232 l32 17 18 -31 c58 -106 84 -140 107 -140 81 0 107 85 64
213 -23 70 -51 103 -157 188 -145 116 -169 90 -89 -98 l35 -82 -114 -45 c-63
-25 -121 -46 -128 -46 -11 0 -14 9 -10 32 2 18 8 161 14 318 17 462 41 806 60
839 16 30 139 -195 420 -774 94 -194 178 -353 195 -371 55 -58 229 -94 460
-94 109 0 155 6 155 19 0 4 -37 22 -82 40 -186 75 -329 170 -473 315 -135 135
-205 246 -364 568 -144 292 -138 285 -257 333 -35 14 -68 38 -93 67 -26 30
-54 49 -82 57 l-42 13 41 18 c111 50 344 134 458 165 138 38 154 46 154 79 0
44 -61 82 -195 121 -119 34 -131 33 -145 -11z"/>
<path d="M895 2083 c-92 -63 -298 -107 -389 -84 -25 6 -68 11 -95 11 l-51 0
26 -67 c58 -152 78 -265 93 -548 9 -160 29 -251 54 -242 25 8 48 57 59 129
l12 77 111 20 c60 12 154 28 207 35 54 8 106 20 118 26 32 17 25 54 -16 88
l-36 30 20 54 c38 100 73 170 122 248 28 42 50 87 50 100 0 40 -79 106 -156
129 -83 26 -81 26 -129 -6z m13 -143 c21 0 12 -69 -33 -257 l-36 -151 -112
-41 c-62 -23 -117 -41 -123 -41 -8 0 -13 52 -18 158 -3 86 -9 189 -12 228 l-6
71 103 17 c142 22 160 24 193 20 16 -2 35 -4 44 -4z"/>
</g>
</svg>
