<?xml version="1.0" standalone="no"?>
<!DOCTYPE svg PUBLIC "-//W3C//DTD SVG 20010904//EN"
 "http://www.w3.org/TR/2001/REC-SVG-20010904/DTD/svg10.dtd">
<svg version="1.0" xmlns="http://www.w3.org/2000/svg"
 width="340.000000pt" height="340.000000pt" viewBox="0 0 340.000000 340.000000"
 preserveAspectRatio="xMidYMid meet">
<metadata>
Created by potrace 1.15, written by Peter Selinger 2001-2017
</metadata>
<g transform="translate(0.000000,340.000000) scale(0.100000,-0.100000)"
fill="#000000" stroke="none">
<path d="M1627 2758 c-49 -18 -31 -45 88 -141 119 -96 204 -151 248 -162 24
-7 29 -4 43 31 34 80 6 171 -70 229 -61 47 -233 71 -309 43z"/>
<path d="M1699 2251 c-49 -38 -137 -80 -221 -106 -48 -15 -92 -33 -98 -40 -30
-36 151 -47 263 -16 49 13 70 15 73 7 30 -83 51 -644 35 -966 -10 -222 -28
-381 -46 -409 -9 -15 -60 -13 -125 4 -65 18 -120 19 -120 4 0 -6 32 -48 71
-93 60 -68 128 -162 174 -241 10 -17 13 -17 47 -1 64 31 108 115 133 255 10
58 11 156 4 475 -4 220 -10 427 -13 459 -2 31 -1 57 2 57 4 -1 50 -64 102
-142 187 -280 356 -493 432 -549 l41 -29 156 4 c200 5 448 49 439 78 -2 5 -53
23 -113 38 -317 80 -574 219 -796 431 -25 24 -78 74 -117 112 l-71 67 278 185
c154 102 298 203 322 224 l43 38 -55 43 c-70 56 -140 88 -212 96 l-57 7 0 -54
c-1 -62 -29 -140 -80 -214 -37 -56 -238 -265 -254 -265 -5 0 -23 12 -38 27
-24 22 -28 35 -28 77 1 79 18 181 46 273 15 46 25 85 23 87 -19 17 -121 75
-148 84 -47 16 -64 15 -92 -7z"/>
<path d="M935 2163 c-32 -25 -155 -80 -216 -96 -50 -13 -62 -13 -125 4 -81 21
-108 23 -135 8 -20 -10 -20 -10 0 -42 29 -49 78 -197 96 -289 8 -46 22 -163
30 -260 19 -231 40 -284 90 -234 22 22 25 34 25 90 l0 65 38 7 c20 3 87 16
147 29 212 44 230 54 183 102 -25 24 -25 25 -12 90 27 126 91 288 145 365 11
14 19 32 19 40 0 15 -106 88 -172 118 -52 24 -86 25 -113 3z m-5 -159 c24 -62
-2 -392 -33 -420 -11 -10 -181 -74 -197 -74 -4 0 -10 66 -14 148 -3 81 -9 184
-12 228 l-6 82 54 16 c185 53 195 54 208 20z"/>
<path d="M1415 1759 c-58 -44 -88 -59 -204 -98 -57 -20 -106 -41 -108 -48 -2
-6 8 -20 23 -30 39 -25 127 -21 232 10 l83 25 -7 -22 c-18 -60 -112 -241 -169
-327 -77 -115 -241 -290 -357 -380 -45 -35 -98 -79 -117 -96 -32 -29 -34 -32
-15 -33 61 -1 219 86 343 188 141 116 253 260 360 461 32 60 83 140 114 177
32 38 57 75 57 83 0 24 -76 88 -126 105 -62 21 -62 21 -109 -15z"/>
</g>
</svg>
