<?xml version="1.0" standalone="no"?>
<!DOCTYPE svg PUBLIC "-//W3C//DTD SVG 20010904//EN"
 "http://www.w3.org/TR/2001/REC-SVG-20010904/DTD/svg10.dtd">
<svg version="1.0" xmlns="http://www.w3.org/2000/svg"
 width="340.000000pt" height="340.000000pt" viewBox="0 0 340.000000 340.000000"
 preserveAspectRatio="xMidYMid meet">
<metadata>
Created by potrace 1.15, written by Peter Selinger 2001-2017
</metadata>
<g transform="translate(0.000000,340.000000) scale(0.100000,-0.100000)"
fill="#000000" stroke="none">
<path d="M1570 2565 c-10 -12 -10 -40 -2 -133 17 -176 -19 -572 -54 -598 -8
-6 -54 -20 -102 -29 -91 -19 -142 -39 -142 -56 0 -26 114 -38 195 -19 22 5 42
7 44 4 7 -7 -39 -158 -80 -265 -110 -284 -246 -487 -464 -697 -96 -93 -106
-106 -92 -119 51 -51 233 87 452 344 102 119 219 377 289 634 l31 116 65 16
c104 25 114 27 130 17 17 -10 16 -31 -6 -230 -39 -353 -102 -587 -182 -672
-33 -35 -51 -35 -157 3 -48 16 -89 28 -92 26 -2 -3 16 -36 41 -75 25 -38 61
-105 81 -148 42 -92 60 -114 92 -114 62 0 157 82 193 166 53 123 96 312 130
569 31 239 56 350 97 432 l36 71 -22 36 c-12 19 -50 54 -84 76 -74 50 -93 49
-182 -3 -62 -37 -115 -56 -115 -41 0 5 9 41 20 79 11 39 34 124 51 189 16 66
41 145 55 177 35 85 32 114 -17 161 -43 41 -146 98 -177 98 -11 0 -25 -7 -32
-15z"/>
<path d="M2560 1959 c-47 -21 -120 -48 -162 -60 l-77 -23 -78 27 c-86 30 -141
35 -149 13 -3 -8 4 -32 15 -53 53 -106 73 -269 76 -651 3 -294 4 -303 26 -350
19 -37 29 -47 49 -47 20 0 28 8 37 35 7 19 12 52 12 72 1 34 4 38 34 42 31 6
239 28 380 41 61 6 69 9 78 32 12 33 13 31 -22 64 l-31 29 12 87 c31 229 72
389 133 512 l41 84 -21 36 c-38 68 -134 124 -243 144 -15 3 -57 -10 -110 -34z
m76 -135 c15 -22 16 -44 11 -172 -7 -156 -29 -364 -47 -450 -18 -83 -82 -121
-231 -138 l-61 -7 7 364 c4 200 8 370 10 377 3 7 22 12 47 13 24 0 68 8 98 19
30 10 76 18 102 19 41 1 50 -3 64 -25z"/>
<path d="M945 1950 c-77 -46 -204 -92 -239 -87 -17 3 -58 16 -91 31 -33 14
-75 26 -92 26 -28 0 -33 -4 -33 -23 0 -12 6 -31 14 -42 25 -38 65 -150 81
-235 11 -56 20 -168 24 -325 8 -257 16 -299 55 -293 25 4 66 79 66 120 0 38
11 42 232 77 103 16 192 32 198 36 19 12 10 49 -21 81 l-31 32 12 74 c20 118
58 237 107 336 l46 93 -32 33 c-40 42 -128 82 -196 90 -44 6 -56 3 -100 -24z
m70 -130 c16 -17 17 -32 12 -107 -9 -123 -44 -321 -65 -362 -19 -39 -76 -73
-160 -95 l-51 -14 -5 31 c-3 18 -10 122 -16 232 -6 110 -13 212 -15 226 -4 24
0 27 48 38 29 6 81 25 117 41 77 35 110 37 135 10z"/>
</g>
</svg>
