<?xml version="1.0" standalone="no"?>
<!DOCTYPE svg PUBLIC "-//W3C//DTD SVG 20010904//EN"
 "http://www.w3.org/TR/2001/REC-SVG-20010904/DTD/svg10.dtd">
<svg version="1.0" xmlns="http://www.w3.org/2000/svg"
 width="340.000000pt" height="340.000000pt" viewBox="0 0 340.000000 340.000000"
 preserveAspectRatio="xMidYMid meet">
<metadata>
Created by potrace 1.15, written by Peter Selinger 2001-2017
</metadata>
<g transform="translate(0.000000,340.000000) scale(0.100000,-0.100000)"
fill="#000000" stroke="none">
<path d="M1668 2878 c0 -2 -2 -41 -3 -87 -2 -82 -3 -86 -73 -225 -121 -239
-263 -452 -399 -597 -40 -42 -73 -82 -73 -88 0 -13 82 16 142 52 24 14 71 51
106 83 l63 57 32 -23 c65 -47 238 -184 243 -192 16 -25 -279 -328 -454 -467
-109 -85 -315 -224 -417 -281 -73 -40 -125 -78 -125 -91 0 -18 70 -9 157 22
250 87 517 273 807 562 l149 149 61 -59 c34 -32 126 -122 206 -199 146 -140
269 -250 315 -280 48 -31 319 -15 555 32 82 17 106 30 69 38 -497 107 -786
242 -1109 515 l-35 29 30 40 c17 22 75 102 130 178 55 77 141 180 193 231 52
53 92 101 92 112 0 39 -118 118 -214 142 -44 11 -47 10 -81 -20 -20 -17 -66
-46 -103 -65 -74 -37 -257 -99 -279 -94 -17 4 101 166 194 268 84 92 88 100
57 141 -32 44 -95 86 -157 104 -47 14 -75 18 -79 13z m318 -586 c-29 -80 -97
-199 -178 -309 l-38 -52 -62 63 c-78 77 -125 101 -200 101 -34 0 -54 4 -50 10
4 8 129 170 152 198 4 4 23 1 43 -8 50 -21 97 -18 202 10 50 13 102 24 117 25
l27 0 -13 -38z"/>
<path d="M895 2334 c-36 -28 -169 -91 -241 -114 -78 -25 -84 -24 -230 31 -52
19 -64 21 -78 10 -14 -12 -12 -19 15 -72 71 -142 126 -370 154 -635 19 -182
37 -254 65 -254 30 0 50 52 63 155 l10 93 81 7 c200 16 366 49 374 74 2 7 -21
38 -53 68 l-57 55 22 94 c25 108 71 207 130 278 22 26 40 54 40 60 0 19 -81
92 -144 130 -66 39 -117 46 -151 20z m22 -171 c9 -23 -15 -422 -26 -442 -6
-10 -56 -27 -134 -47 l-125 -31 -5 26 c-11 56 -41 441 -35 447 9 8 255 62 291
63 17 1 30 -5 34 -16z"/>
<path d="M1598 1324 c-20 -20 1 -48 116 -154 119 -108 215 -180 243 -180 19 0
43 54 43 97 0 40 -42 124 -76 154 -42 37 -306 104 -326 83z"/>
<path d="M1555 809 c-6 -8 38 -58 141 -158 173 -169 270 -241 337 -248 44 -5
45 -5 57 32 34 103 -50 241 -182 299 -132 58 -337 102 -353 75z"/>
</g>
</svg>
