<?xml version="1.0" standalone="no"?>
<!DOCTYPE svg PUBLIC "-//W3C//DTD SVG 20010904//EN"
 "http://www.w3.org/TR/2001/REC-SVG-20010904/DTD/svg10.dtd">
<svg version="1.0" xmlns="http://www.w3.org/2000/svg"
 width="340.000000pt" height="340.000000pt" viewBox="0 0 340.000000 340.000000"
 preserveAspectRatio="xMidYMid meet">
<metadata>
Created by potrace 1.15, written by Peter Selinger 2001-2017
</metadata>
<g transform="translate(0.000000,340.000000) scale(0.100000,-0.100000)"
fill="#000000" stroke="none">
<path d="M1810 2685 c0 -26 137 -193 223 -272 75 -69 128 -68 162 2 38 82 -2
168 -98 213 -100 47 -205 82 -248 82 -35 0 -39 -3 -39 -25z"/>
<path d="M2270 2264 c-58 -13 -150 -37 -205 -53 -210 -62 -384 -100 -551 -121
-99 -12 -109 -16 -94 -35 10 -12 85 -28 180 -38 19 -3 152 15 295 39 143 23
355 54 470 69 116 14 222 31 238 37 36 14 35 46 -1 81 -56 54 -162 61 -332 21z"/>
<path d="M890 2085 c-41 -25 -106 -55 -143 -67 l-69 -21 -86 27 c-102 31 -142
34 -142 9 0 -9 12 -45 26 -81 35 -88 61 -230 74 -402 21 -296 36 -360 80 -360
28 0 50 50 57 130 7 78 -5 70 128 90 96 15 284 56 318 69 40 15 33 49 -16 81
-36 22 -38 27 -32 59 15 79 83 201 165 296 22 26 40 55 40 65 0 41 -175 133
-277 145 -44 5 -54 2 -123 -40z m104 -210 c-1 -70 -9 -136 -29 -220 -15 -66
-28 -121 -30 -123 -2 -2 -60 -18 -129 -37 l-126 -34 0 67 c0 37 -3 137 -7 223
l-6 157 43 7 c23 4 79 20 124 36 46 16 98 27 121 26 l40 -2 -1 -100z"/>
<path d="M2088 1913 c-41 -11 -17 -42 95 -120 132 -94 237 -156 290 -173 46
-14 62 -4 77 49 14 51 -2 99 -47 143 -33 32 -53 40 -158 66 -121 30 -225 44
-257 35z"/>
<path d="M1586 1824 c-53 -113 -112 -189 -253 -323 -69 -66 -124 -124 -120
-127 18 -18 248 116 433 253 138 102 164 123 164 134 0 33 -136 139 -178 139
-6 0 -27 -34 -46 -76z"/>
<path d="M2014 1619 c-3 -6 2 -26 11 -46 21 -44 16 -108 -18 -208 -26 -76 -91
-210 -106 -219 -5 -3 -50 45 -99 107 -110 136 -166 191 -212 206 -38 12 -91 3
-98 -17 -2 -6 57 -73 130 -149 73 -76 151 -160 172 -186 l40 -49 -49 -41
c-132 -115 -322 -229 -452 -271 -29 -10 -116 -30 -194 -46 -78 -16 -144 -32
-147 -35 -36 -36 270 -30 423 9 180 44 334 123 452 230 l52 47 128 -132 c149
-153 295 -287 371 -337 l54 -36 116 12 c227 22 452 66 452 87 0 20 -6 22 -116
46 -228 49 -500 158 -692 277 -98 61 -232 160 -238 177 -3 6 21 49 52 95 30
46 76 125 101 174 25 50 56 104 69 119 31 37 30 58 -2 97 -42 49 -185 113
-200 89z"/>
</g>
</svg>
