<?xml version="1.0" standalone="no"?>
<!DOCTYPE svg PUBLIC "-//W3C//DTD SVG 20010904//EN"
 "http://www.w3.org/TR/2001/REC-SVG-20010904/DTD/svg10.dtd">
<svg version="1.0" xmlns="http://www.w3.org/2000/svg"
 width="340.000000pt" height="340.000000pt" viewBox="0 0 340.000000 340.000000"
 preserveAspectRatio="xMidYMid meet">
<metadata>
Created by potrace 1.15, written by Peter Selinger 2001-2017
</metadata>
<g transform="translate(0.000000,340.000000) scale(0.100000,-0.100000)"
fill="#000000" stroke="none">
<path d="M1438 2734 c-27 -26 8 -67 137 -159 110 -79 179 -111 211 -96 74 33
36 200 -54 239 -40 17 -281 30 -294 16z"/>
<path d="M2105 2480 c-238 -67 -853 -162 -1193 -186 -110 -7 -123 -15 -102
-54 18 -34 86 -60 160 -60 36 0 164 18 285 40 470 85 792 122 1030 117 118 -2
145 1 173 16 42 23 43 56 2 91 -41 34 -87 46 -195 51 -69 4 -106 0 -160 -15z"/>
<path d="M1890 2134 c-152 -59 -537 -134 -683 -134 -82 0 -127 -10 -127 -28 0
-4 19 -32 41 -62 62 -82 145 -227 180 -315 l31 -78 -49 -71 c-99 -146 -372
-394 -629 -571 -117 -81 -144 -104 -144 -123 0 -57 332 125 547 299 43 35 121
106 174 157 l97 93 7 -47 c3 -25 7 -121 7 -213 0 -219 -17 -296 -89 -412 -15
-23 -15 -34 -4 -84 10 -46 22 -67 57 -101 24 -24 49 -44 56 -44 7 1 31 26 53
57 22 31 131 150 243 264 111 114 202 212 202 218 0 28 -42 6 -230 -119 -80
-53 -156 -103 -169 -110 l-24 -12 7 173 c4 96 11 222 17 282 10 117 3 149 -43
181 l-22 16 34 37 c19 21 38 42 42 47 17 22 330 -216 546 -415 292 -270 302
-278 351 -285 60 -9 443 3 506 16 117 24 89 51 -141 131 -104 36 -223 80 -264
98 -204 91 -553 278 -544 292 16 27 275 165 362 193 60 20 66 38 28 83 -26 31
-143 93 -175 93 -12 0 -24 -8 -27 -17 -22 -70 -49 -109 -143 -206 l-104 -107
-121 64 c-203 106 -348 198 -335 210 3 3 115 22 250 42 134 20 262 42 284 48
38 10 40 13 45 56 3 25 15 59 27 76 28 40 110 115 151 139 20 12 32 27 32 41
0 47 -136 150 -220 167 -14 3 -53 -5 -90 -19z m-2 -116 c7 -7 12 -35 12 -64 0
-67 -58 -187 -99 -203 -38 -15 -171 -47 -295 -71 -87 -16 -111 -18 -118 -8
-10 17 -78 220 -78 235 0 13 290 85 410 102 41 6 86 13 100 15 48 7 56 6 68
-6z"/>
</g>
</svg>
