<?xml version="1.0" standalone="no"?>
<!DOCTYPE svg PUBLIC "-//W3C//DTD SVG 20010904//EN"
 "http://www.w3.org/TR/2001/REC-SVG-20010904/DTD/svg10.dtd">
<svg version="1.0" xmlns="http://www.w3.org/2000/svg"
 width="340.000000pt" height="340.000000pt" viewBox="0 0 340.000000 340.000000"
 preserveAspectRatio="xMidYMid meet">
<metadata>
Created by potrace 1.15, written by Peter Selinger 2001-2017
</metadata>
<g transform="translate(0.000000,340.000000) scale(0.100000,-0.100000)"
fill="#000000" stroke="none">
<path d="M2134 2694 c-4 -14 1 -60 10 -102 27 -128 39 -287 32 -435 -4 -76
-11 -148 -16 -161 -7 -20 -27 -26 -187 -58 -130 -26 -180 -33 -185 -25 -11 18
-9 198 4 312 18 164 19 154 -37 197 -57 44 -142 73 -188 64 -61 -12 -61 -16
-13 -110 26 -50 53 -124 65 -174 21 -89 47 -310 38 -319 -3 -3 -56 -13 -118
-24 -112 -19 -139 -30 -139 -55 0 -21 39 -28 158 -26 l112 2 0 -59 c0 -32 3
-125 6 -208 l7 -150 -134 -21 c-74 -12 -192 -29 -264 -37 -191 -24 -195 -25
-202 -42 -8 -21 39 -60 89 -73 29 -8 54 -6 115 9 438 111 1184 174 1555 131
165 -19 199 0 146 81 -29 43 -130 95 -201 104 -31 3 -84 0 -132 -9 -150 -29
-447 -77 -450 -74 -2 2 11 98 29 213 31 202 33 210 57 217 13 4 85 19 159 33
140 26 183 45 188 83 2 15 -6 27 -30 42 -40 24 -108 26 -227 5 -47 -8 -87 -13
-89 -10 -10 10 61 323 100 439 l42 126 -28 29 c-37 39 -110 77 -181 96 -78 20
-84 19 -91 -11z m13 -891 c-3 -27 -14 -124 -23 -218 -9 -93 -18 -172 -20 -174
-8 -9 -294 -34 -301 -27 -5 4 -10 101 -11 215 l-4 207 169 21 c92 11 174 21
182 22 10 1 12 -10 8 -46z"/>
<path d="M1040 2119 c-37 -31 -106 -64 -184 -88 l-69 -21 -122 25 c-67 14
-132 25 -144 25 -29 0 -27 -28 4 -90 62 -123 101 -329 113 -607 8 -172 8 -172
37 -203 52 -55 70 -36 87 94 l10 85 67 10 c36 6 109 16 161 21 109 12 189 35
197 58 4 10 -7 27 -31 50 l-38 34 36 114 c20 63 61 163 91 222 79 159 78 155
47 185 -32 29 -95 62 -171 88 -65 23 -60 23 -91 -2z m6 -149 l27 -11 -7 -112
c-6 -104 -39 -363 -47 -372 -8 -7 -252 -55 -257 -51 -6 6 -21 293 -21 412 l-1
81 73 21 c144 43 188 49 233 32z"/>
<path d="M1610 1145 c-27 -132 -130 -279 -343 -488 -82 -81 -147 -150 -143
-154 12 -12 76 -3 114 16 98 50 288 212 482 411 52 54 109 107 125 118 l30 20
-21 29 c-25 34 -133 90 -191 98 l-41 6 -12 -56z"/>
<path d="M2171 1104 c2 -5 29 -47 60 -94 31 -47 91 -146 134 -220 112 -194
164 -269 198 -287 28 -14 31 -14 44 3 21 28 33 83 33 149 0 50 -7 73 -44 150
-69 139 -158 228 -274 274 -56 22 -157 39 -151 25z"/>
</g>
</svg>
