<?xml version="1.0" standalone="no"?>
<!DOCTYPE svg PUBLIC "-//W3C//DTD SVG 20010904//EN"
 "http://www.w3.org/TR/2001/REC-SVG-20010904/DTD/svg10.dtd">
<svg version="1.0" xmlns="http://www.w3.org/2000/svg"
 width="340.000000pt" height="340.000000pt" viewBox="0 0 340.000000 340.000000"
 preserveAspectRatio="xMidYMid meet">
<metadata>
Created by potrace 1.15, written by Peter Selinger 2001-2017
</metadata>
<g transform="translate(0.000000,340.000000) scale(0.100000,-0.100000)"
fill="#000000" stroke="none">
<path d="M1927 2933 c-4 -3 -7 -23 -7 -43 0 -134 -128 -353 -360 -615 -91
-104 -127 -152 -118 -161 8 -7 84 40 164 101 l81 62 107 -105 107 -106 26 26
c48 48 24 156 -40 183 -18 7 -62 16 -100 20 l-67 7 107 117 c59 64 110 120
114 125 4 5 27 1 51 -9 47 -18 121 -23 208 -12 83 11 88 2 46 -79 -123 -242
-359 -477 -712 -710 -146 -97 -158 -115 -47 -78 201 67 439 213 622 380 35 32
122 127 192 210 121 143 188 205 252 232 60 26 19 105 -86 166 l-47 28 -143
-36 c-78 -20 -162 -38 -187 -41 -25 -4 -60 -8 -77 -11 -18 -3 -33 -1 -33 3 0
5 38 50 84 101 47 51 88 102 91 114 9 26 -51 89 -110 118 -40 19 -105 27 -118
13z"/>
<path d="M1090 2374 c-87 -42 -267 -104 -301 -104 -13 0 -46 11 -73 25 -32 16
-66 25 -95 25 -73 0 -76 -7 -42 -83 62 -138 92 -279 115 -534 16 -178 38 -253
74 -253 32 0 46 28 51 103 l6 71 70 14 c120 23 318 73 347 88 37 19 36 47 -3
75 -26 18 -30 26 -25 52 12 62 89 235 143 326 l57 94 -37 32 c-44 38 -140 90
-182 99 -23 5 -48 -2 -105 -30z m44 -234 c0 -64 -9 -150 -23 -220 l-22 -115
-130 -48 c-72 -27 -132 -47 -134 -45 -1 1 -12 108 -24 237 -23 252 -23 250 29
251 14 1 75 12 135 25 61 13 124 23 140 22 l30 -2 -1 -105z"/>
<path d="M2057 1858 c-55 -174 -232 -359 -545 -569 -209 -140 -219 -149 -166
-149 75 0 247 65 353 133 l69 45 88 -106 c83 -99 173 -177 197 -169 33 11 48
156 21 196 -23 32 -113 70 -201 84 -40 6 -73 14 -72 17 0 3 65 60 144 127
l145 122 37 -17 c62 -27 247 -20 367 15 16 4 12 -8 -23 -73 -215 -398 -558
-719 -996 -934 -77 -37 -178 -83 -225 -100 -124 -47 -230 -97 -230 -110 0 -13
64 -13 153 0 179 26 541 180 747 318 223 150 432 350 607 584 95 126 144 179
222 240 l35 27 -20 36 c-25 47 -90 113 -134 135 -66 33 -84 32 -172 -4 -84
-34 -178 -58 -278 -71 l-55 -8 72 76 c90 95 96 112 53 149 -37 30 -109 58
-150 58 -23 0 -28 -7 -43 -52z"/>
</g>
</svg>
