<?xml version="1.0" standalone="no"?>
<!DOCTYPE svg PUBLIC "-//W3C//DTD SVG 20010904//EN"
 "http://www.w3.org/TR/2001/REC-SVG-20010904/DTD/svg10.dtd">
<svg version="1.0" xmlns="http://www.w3.org/2000/svg"
 width="340.000000pt" height="340.000000pt" viewBox="0 0 340.000000 340.000000"
 preserveAspectRatio="xMidYMid meet">
<metadata>
Created by potrace 1.15, written by Peter Selinger 2001-2017
</metadata>
<g transform="translate(0.000000,340.000000) scale(0.100000,-0.100000)"
fill="#000000" stroke="none">
<path d="M1855 2701 c-12 -20 4 -76 32 -117 14 -22 32 -59 40 -84 18 -58 37
-318 28 -396 l-6 -60 -184 -28 c-213 -32 -227 -35 -222 -49 2 -6 21 -17 43
-25 43 -17 248 -22 322 -9 l42 7 -1 -132 c0 -73 -4 -153 -7 -178 l-7 -45 -115
-12 c-163 -17 -480 -64 -510 -75 l-25 -10 24 -19 c13 -10 55 -29 93 -40 83
-26 123 -22 322 27 77 19 147 34 157 34 22 0 34 -38 49 -143 12 -94 13 -267 1
-267 -36 0 -421 -53 -438 -60 -30 -13 -29 -26 5 -44 65 -33 135 -40 244 -23
57 9 124 19 151 23 l47 6 0 -174 0 -174 -252 -22 c-139 -12 -318 -27 -398 -33
-153 -12 -190 -20 -190 -42 0 -22 46 -66 85 -83 32 -13 46 -13 143 6 538 101
1054 125 1396 64 138 -24 218 -12 228 33 21 90 -142 193 -280 178 -31 -4 -151
-19 -267 -35 -115 -16 -239 -32 -274 -35 l-64 -7 6 113 c4 63 7 137 7 165 l0
52 73 10 c39 6 122 14 182 17 61 3 125 8 142 11 64 10 69 84 8 110 -50 20
-184 18 -283 -6 -46 -11 -90 -20 -98 -20 -12 0 -14 20 -8 133 l7 134 -37 41
c-21 23 -55 49 -77 59 -21 9 -36 20 -32 24 15 13 272 30 548 35 157 3 292 10
308 16 16 6 30 21 33 35 15 57 -36 96 -151 116 -67 11 -52 13 -370 -56 -88
-19 -179 -38 -203 -42 l-43 -7 7 179 c4 104 11 181 17 185 6 3 49 12 96 18 47
6 142 22 211 35 97 19 129 29 142 46 21 25 12 50 -29 76 -39 26 -117 20 -277
-21 -76 -20 -141 -36 -143 -36 -15 0 18 346 42 438 l13 52 -41 36 c-83 70
-241 128 -262 95z"/>
<path d="M1045 2040 c-61 -46 -157 -88 -244 -109 -77 -18 -80 -18 -157 0 -88
21 -150 24 -159 9 -4 -6 11 -48 34 -93 61 -125 100 -303 116 -532 10 -144 49
-235 100 -235 31 0 35 15 35 126 l0 94 43 0 c23 0 105 10 182 21 77 11 158 23
180 26 86 12 95 36 36 92 l-39 36 27 90 c30 101 72 192 127 278 l37 57 -29 32
c-40 42 -118 91 -187 117 -32 11 -59 21 -60 21 -1 -1 -20 -14 -42 -30z m36
-177 c7 -17 8 -56 4 -98 -8 -83 -54 -327 -63 -337 -10 -9 -253 -50 -260 -43
-3 3 -10 102 -15 221 -9 176 -8 217 3 224 7 4 63 17 124 29 61 11 120 22 131
25 51 10 66 6 76 -21z"/>
</g>
</svg>
