<?xml version="1.0" standalone="no"?>
<!DOCTYPE svg PUBLIC "-//W3C//DTD SVG 20010904//EN"
 "http://www.w3.org/TR/2001/REC-SVG-20010904/DTD/svg10.dtd">
<svg version="1.0" xmlns="http://www.w3.org/2000/svg"
 width="340.000000pt" height="340.000000pt" viewBox="0 0 340.000000 340.000000"
 preserveAspectRatio="xMidYMid meet">
<metadata>
Created by potrace 1.15, written by Peter Selinger 2001-2017
</metadata>
<g transform="translate(0.000000,340.000000) scale(0.100000,-0.100000)"
fill="#000000" stroke="none">
<path d="M2280 2394 c-96 -37 -345 -100 -558 -140 l-143 -27 -62 19 c-64 20
-162 23 -178 7 -6 -6 6 -32 31 -69 59 -87 74 -134 135 -446 67 -339 77 -377
109 -407 20 -19 28 -21 45 -12 11 7 23 22 27 35 5 22 16 26 118 45 62 12 116
21 119 21 11 0 8 -318 -2 -325 -5 -3 -56 -12 -113 -20 -221 -31 -238 -35 -238
-56 0 -14 12 -25 38 -36 37 -16 133 -15 270 3 l53 7 -3 -144 -3 -144 -345 -37
c-493 -53 -474 -50 -478 -71 -6 -31 28 -56 111 -82 76 -24 82 -25 131 -11 316
90 807 140 1168 118 106 -7 234 -17 284 -23 109 -14 141 -8 150 26 14 58 -44
124 -132 151 -66 20 -129 18 -464 -16 -162 -16 -298 -30 -302 -30 -5 0 -8 62
-8 139 l0 139 58 7 c75 9 232 50 294 77 78 33 89 86 22 114 -51 22 -94 17
-198 -20 -52 -19 -111 -39 -131 -45 l-36 -10 3 157 3 157 118 16 119 15 8 -22
c40 -103 161 70 285 406 72 194 85 221 147 286 41 44 49 58 44 79 -16 64 -110
129 -260 179 -99 33 -131 32 -236 -10z m114 -118 c19 -8 37 -19 41 -26 30 -48
20 -166 -29 -365 -31 -123 -84 -297 -95 -308 -7 -7 -217 -47 -248 -47 -10 0
-13 35 -13 144 l0 145 55 11 c66 14 171 64 179 87 19 49 -42 82 -116 63 -24
-6 -58 -20 -75 -30 l-33 -19 0 58 c0 32 7 80 15 107 20 65 19 71 -10 100 l-25
25 26 10 c30 11 249 57 277 58 10 1 33 -5 51 -13z m-500 -104 c19 -37 36 -133
36 -204 0 -57 0 -58 -40 -78 -22 -11 -67 -27 -101 -35 -56 -12 -78 -26 -79
-47 0 -17 31 -22 122 -20 l99 2 -3 -138 -3 -137 -120 -26 c-66 -15 -123 -24
-126 -20 -10 10 -111 652 -104 659 5 5 260 66 297 71 4 1 14 -11 22 -27z"/>
<path d="M929 2088 c-59 -39 -232 -108 -270 -108 -9 0 -46 16 -83 35 -66 34
-117 43 -145 26 -12 -8 -10 -19 13 -66 50 -106 83 -239 141 -572 37 -216 57
-276 91 -281 27 -4 44 39 44 114 l0 53 68 20 c88 27 225 58 287 67 92 12 111
59 48 114 l-37 33 18 71 c36 142 89 254 171 362 12 17 -42 75 -103 111 -36 22
-149 63 -171 63 -4 0 -36 -19 -72 -42z m70 -203 c16 -67 7 -196 -24 -331 l-16
-70 -120 -44 c-66 -23 -121 -41 -123 -39 -9 10 -66 463 -59 469 4 4 26 12 48
18 22 6 76 22 120 36 44 14 98 24 120 23 l40 -2 14 -60z"/>
</g>
</svg>
