<?xml version="1.0" standalone="no"?>
<!DOCTYPE svg PUBLIC "-//W3C//DTD SVG 20010904//EN"
 "http://www.w3.org/TR/2001/REC-SVG-20010904/DTD/svg10.dtd">
<svg version="1.0" xmlns="http://www.w3.org/2000/svg"
 width="340.000000pt" height="340.000000pt" viewBox="0 0 340.000000 340.000000"
 preserveAspectRatio="xMidYMid meet">
<metadata>
Created by potrace 1.15, written by Peter Selinger 2001-2017
</metadata>
<g transform="translate(0.000000,340.000000) scale(0.100000,-0.100000)"
fill="#000000" stroke="none">
<path d="M2565 2656 c-44 -23 -130 -58 -191 -79 l-112 -38 -67 20 c-37 12 -83
21 -102 21 -31 0 -34 -2 -28 -21 4 -12 20 -43 37 -68 73 -115 78 -195 64
-1006 -15 -898 -14 -1074 2 -1103 7 -13 19 -21 25 -19 17 5 46 88 68 197 22
104 31 388 44 1400 l7 506 142 43 c188 57 176 55 176 37 0 -9 -42 -112 -94
-229 -51 -116 -99 -229 -106 -250 l-12 -39 90 -84 c153 -143 232 -287 232
-425 0 -52 -2 -59 -22 -64 -13 -3 -59 1 -103 10 -99 19 -158 20 -153 3 3 -7
42 -42 89 -78 46 -35 123 -104 170 -152 48 -48 91 -88 97 -88 15 0 63 60 79
99 41 98 35 285 -12 389 -45 99 -175 242 -309 341 -31 23 -56 44 -56 47 0 3
19 42 42 86 69 134 188 284 292 368 30 25 55 51 56 59 0 27 -39 77 -79 99 -47
27 -147 62 -170 61 -9 0 -52 -20 -96 -43z"/>
<path d="M1600 2624 c-103 -54 -247 -102 -355 -116 -44 -7 -84 -15 -88 -19
-17 -13 14 -48 51 -59 20 -5 58 -10 84 -10 43 0 47 -2 57 -31 13 -39 15 -178
2 -211 -8 -20 -23 -27 -90 -43 -84 -19 -113 -37 -93 -57 12 -12 82 -27 135
-28 23 0 37 -5 37 -12 -1 -40 -31 -233 -37 -239 -5 -4 -44 -18 -88 -32 -44
-14 -84 -32 -90 -42 -17 -27 20 -45 92 -45 74 0 73 3 37 -112 -63 -199 -172
-416 -286 -565 -56 -74 -75 -110 -64 -120 25 -25 197 139 286 275 85 128 176
337 209 478 l12 52 74 27 c134 48 189 97 153 133 -19 19 -91 14 -143 -9 -25
-11 -49 -19 -51 -16 -2 2 0 49 6 103 17 168 14 159 68 173 61 15 143 53 160
74 11 13 10 19 -7 36 -27 27 -75 27 -136 0 -25 -11 -49 -18 -52 -15 -3 3 2 48
12 100 17 94 16 96 -4 124 l-21 30 73 33 c55 25 86 33 132 33 l60 1 20 -40
c18 -36 20 -64 23 -264 8 -480 -34 -807 -114 -882 -24 -22 -34 -24 -135 -25
-59 0 -111 -3 -115 -7 -4 -4 22 -35 57 -70 35 -34 80 -91 99 -125 58 -105 61
-107 98 -88 106 55 182 216 212 449 6 45 10 211 10 368 0 404 18 594 64 665
15 22 15 26 0 50 -35 52 -141 107 -232 118 -30 4 -53 -3 -122 -40z"/>
<path d="M781 2269 c-41 -21 -96 -43 -122 -48 -42 -9 -54 -8 -101 14 -76 35
-116 42 -124 21 -3 -8 6 -51 21 -93 41 -118 63 -234 75 -383 16 -206 28 -281
53 -330 40 -82 67 -58 83 73 8 70 -2 64 204 113 184 44 180 43 180 60 0 8 -16
32 -37 54 l-36 41 13 57 c18 81 66 215 107 295 l34 69 -39 37 c-46 44 -98 61
-178 60 -47 -1 -74 -9 -133 -40z m88 -92 c18 -22 23 -144 12 -277 -10 -119
-12 -126 -38 -147 -29 -24 -170 -79 -178 -71 -3 3 -7 108 -8 233 l-2 228 75
23 c87 26 123 29 139 11z"/>
</g>
</svg>
