<?xml version="1.0" standalone="no"?>
<!DOCTYPE svg PUBLIC "-//W3C//DTD SVG 20010904//EN"
 "http://www.w3.org/TR/2001/REC-SVG-20010904/DTD/svg10.dtd">
<svg version="1.0" xmlns="http://www.w3.org/2000/svg"
 width="340.000000pt" height="340.000000pt" viewBox="0 0 340.000000 340.000000"
 preserveAspectRatio="xMidYMid meet">
<metadata>
Created by potrace 1.15, written by Peter Selinger 2001-2017
</metadata>
<g transform="translate(0.000000,340.000000) scale(0.100000,-0.100000)"
fill="#000000" stroke="none">
<path d="M1470 2930 c0 -31 70 -141 125 -196 68 -69 164 -115 192 -93 46 39
54 109 22 177 -19 39 -31 49 -97 80 -63 30 -89 36 -159 40 -61 3 -83 1 -83 -8z"/>
<path d="M2530 2683 c-1024 -167 -1181 -188 -1828 -242 -57 -4 -108 -13 -115
-20 -17 -17 35 -64 113 -100 l68 -32 114 26 c164 38 382 82 548 110 176 30
461 67 467 61 10 -10 -18 -149 -44 -217 -27 -75 -97 -188 -154 -252 l-34 -37
-190 -31 c-186 -31 -264 -36 -473 -30 -52 1 -96 0 -99 -3 -3 -2 5 -19 17 -36
60 -84 79 -248 61 -515 -21 -311 -54 -466 -107 -513 -25 -22 -26 -27 -20 -82
9 -78 32 -152 55 -181 17 -22 21 -22 46 -9 35 19 74 86 96 167 27 98 42 310
65 935 l6 166 72 7 c39 4 195 24 346 45 349 49 560 72 629 68 50 -3 57 -6 74
-35 83 -144 132 -1063 64 -1202 -22 -45 -39 -48 -134 -22 -114 30 -143 35
-143 24 0 -5 23 -36 51 -68 28 -33 80 -105 117 -160 79 -120 100 -145 123
-145 31 0 126 97 158 161 70 141 75 271 27 704 -28 248 -34 495 -15 587 6 29
21 70 32 90 l21 38 -30 37 c-32 39 -116 91 -202 123 l-52 20 -99 -34 c-54 -19
-132 -41 -172 -50 -86 -20 -239 -45 -239 -40 0 2 21 23 46 46 26 24 105 100
176 171 108 107 127 130 119 146 -9 16 -79 73 -139 113 -21 15 -20 16 45 23
38 5 239 9 449 9 409 1 414 2 414 52 0 31 -51 69 -142 105 -69 27 -121 33
-188 22z"/>
<path d="M1280 2287 c0 -34 42 -125 75 -164 19 -22 54 -48 77 -58 l43 -17 22
27 c29 33 29 59 1 115 -32 62 -92 102 -163 108 -45 4 -55 2 -55 -11z"/>
<path d="M1770 1830 c-17 -10 14 -78 73 -157 51 -68 171 -173 198 -173 25 0
59 48 59 83 0 43 -36 113 -74 141 -74 57 -231 122 -256 106z"/>
<path d="M1379 1793 c-1 -5 0 -21 0 -38 2 -45 -48 -140 -128 -240 -73 -93 -92
-137 -48 -114 38 20 208 160 279 230 71 70 81 94 49 123 -36 32 -149 61 -152
39z"/>
<path d="M1797 1419 c-55 -33 -319 -65 -428 -51 -105 13 -105 13 -55 -122 19
-50 46 -144 60 -209 31 -137 38 -158 60 -176 23 -19 36 -4 43 47 5 39 6 40 52
46 25 3 111 10 191 16 172 12 221 19 238 32 17 14 16 20 -14 63 l-26 39 23 49
c13 27 45 71 71 98 43 45 47 52 35 69 -48 69 -201 130 -250 99z m17 -130 c9
-45 8 -81 -5 -136 -16 -78 -20 -80 -179 -108 -79 -14 -145 -23 -147 -22 -3 3
-33 223 -33 243 0 10 68 25 210 47 14 3 53 5 86 6 61 1 62 1 68 -30z"/>
</g>
</svg>
