<?xml version="1.0" standalone="no"?>
<!DOCTYPE svg PUBLIC "-//W3C//DTD SVG 20010904//EN"
 "http://www.w3.org/TR/2001/REC-SVG-20010904/DTD/svg10.dtd">
<svg version="1.0" xmlns="http://www.w3.org/2000/svg"
 width="340.000000pt" height="340.000000pt" viewBox="0 0 340.000000 340.000000"
 preserveAspectRatio="xMidYMid meet">
<metadata>
Created by potrace 1.15, written by Peter Selinger 2001-2017
</metadata>
<g transform="translate(0.000000,340.000000) scale(0.100000,-0.100000)"
fill="#000000" stroke="none">
<path d="M1492 2895 l-34 -15 20 -27 c52 -73 212 -203 249 -203 56 0 73 63 37
137 -16 31 -33 45 -94 75 -90 44 -134 52 -178 33z"/>
<path d="M1750 2560 c-51 -44 -105 -74 -203 -114 -68 -28 -92 -34 -106 -26
-34 18 -129 39 -150 33 -26 -7 -27 -32 -1 -75 48 -81 52 -133 47 -547 -4 -344
-7 -395 -25 -471 -27 -112 -52 -177 -92 -234 -28 -42 -31 -53 -26 -89 8 -53
52 -144 75 -157 20 -10 37 5 110 103 24 31 81 92 126 135 76 72 286 242 298
242 4 0 27 -43 52 -95 42 -88 47 -95 75 -95 42 0 53 28 47 114 -6 92 -24 142
-73 200 -62 75 -164 133 -164 93 0 -6 9 -43 19 -80 l20 -67 -22 -14 c-12 -8
-91 -55 -176 -105 l-154 -91 7 217 c4 120 9 232 12 249 l6 31 146 21 c144 20
146 20 160 1 23 -33 51 -24 72 24 19 43 26 80 74 397 25 169 31 186 100 274
53 68 52 72 -28 110 -41 20 -153 47 -186 46 -3 0 -21 -14 -40 -30z m40 -146
c15 -38 12 -178 -6 -338 -26 -232 -6 -203 -174 -263 -80 -29 -148 -53 -152
-53 -10 0 -9 191 0 245 l7 39 77 13 c99 17 172 44 176 65 2 11 -9 23 -29 34
-36 18 -77 11 -151 -27 -63 -32 -76 -27 -83 34 -3 28 -5 81 -3 116 l3 64 70
24 c94 32 227 72 243 72 7 1 17 -11 22 -25z"/>
<path d="M2521 2515 c-90 -72 -256 -134 -314 -117 -89 28 -157 24 -157 -8 0
-10 7 -35 16 -55 45 -109 46 -133 53 -1072 4 -623 9 -895 17 -903 19 -19 53
21 68 83 28 109 37 381 35 1117 l-1 725 153 42 c84 23 156 40 158 37 10 -9
-80 -259 -130 -364 l-49 -102 64 -69 c136 -143 206 -263 213 -363 2 -39 -1
-70 -9 -86 -12 -22 -20 -25 -68 -24 -30 0 -92 4 -137 9 -71 7 -83 6 -83 -7 0
-8 17 -27 38 -41 55 -39 127 -115 185 -197 29 -40 57 -75 64 -77 21 -7 111 87
140 146 36 73 45 225 18 317 -43 149 -168 311 -297 383 l-58 33 36 56 c112
177 209 291 308 366 41 31 77 60 80 65 9 13 -76 79 -139 107 -30 14 -79 28
-107 30 -49 5 -56 3 -97 -31z"/>
<path d="M1004 2358 c-10 -6 -48 -28 -84 -49 -97 -57 -204 -83 -312 -76 -93 6
-128 1 -128 -17 0 -6 16 -42 35 -81 52 -102 87 -293 104 -567 13 -189 40 -260
77 -202 12 18 19 54 22 110 4 76 7 85 26 89 11 3 98 21 191 41 94 20 178 43
188 52 23 20 22 58 -3 79 -25 22 -26 84 -5 206 18 105 44 175 90 246 l35 55
-23 24 c-52 56 -177 109 -213 90z m-6 -213 c4 -58 -13 -327 -24 -392 -6 -30
-11 -33 -121 -72 -63 -23 -119 -41 -123 -41 -4 0 -10 91 -14 203 -4 111 -9
221 -13 244 -6 48 -15 42 132 94 47 17 96 28 120 26 l40 -2 3 -60z"/>
</g>
</svg>
