<?xml version="1.0" standalone="no"?>
<!DOCTYPE svg PUBLIC "-//W3C//DTD SVG 20010904//EN"
 "http://www.w3.org/TR/2001/REC-SVG-20010904/DTD/svg10.dtd">
<svg version="1.0" xmlns="http://www.w3.org/2000/svg"
 width="340.000000pt" height="340.000000pt" viewBox="0 0 340.000000 340.000000"
 preserveAspectRatio="xMidYMid meet">
<metadata>
Created by potrace 1.15, written by Peter Selinger 2001-2017
</metadata>
<g transform="translate(0.000000,340.000000) scale(0.100000,-0.100000)"
fill="#000000" stroke="none">
<path d="M2170 2730 c-124 -69 -521 -142 -755 -141 -87 1 -126 -2 -139 -12
-18 -13 -17 -17 21 -98 69 -142 101 -261 132 -483 21 -148 34 -184 68 -193 29
-7 40 3 45 37 3 25 4 25 301 69 276 41 299 43 315 27 10 -9 25 -16 33 -16 38
0 100 102 164 270 33 87 98 223 139 289 12 20 29 53 39 74 l17 37 -36 40 c-45
49 -123 87 -221 106 -90 17 -80 17 -123 -6z m31 -110 c44 -12 69 -47 69 -96 0
-69 -98 -454 -121 -479 -6 -5 -64 -19 -129 -30 l-120 -21 1 46 c1 101 15 201
28 210 8 4 53 16 100 26 137 28 165 49 119 91 -32 28 -56 35 -81 21 -12 -6
-48 -19 -81 -29 l-58 -18 7 85 7 85 -36 34 -36 34 73 16 c64 14 166 31 207 34
8 0 31 -4 51 -9z m-402 -115 c15 -29 22 -177 10 -189 -3 -3 -50 -15 -104 -26
-104 -21 -155 -44 -137 -62 6 -6 57 -8 126 -6 l116 3 0 -46 c0 -25 -3 -80 -6
-121 l-7 -75 -130 -22 c-71 -12 -131 -20 -132 -19 -5 7 -55 561 -51 566 8 8
207 30 256 28 39 -1 47 -5 59 -31z"/>
<path d="M863 2305 c-46 -37 -131 -74 -213 -91 -67 -14 -75 -13 -137 6 -71 22
-128 26 -138 10 -4 -6 7 -34 24 -63 64 -113 109 -292 136 -553 17 -160 33
-206 74 -212 36 -6 46 13 51 100 l5 82 90 23 c50 12 141 34 204 47 62 13 117
28 123 34 10 10 -6 62 -19 62 -5 0 -16 7 -26 14 -18 14 -18 18 8 110 29 108
65 198 107 267 37 61 35 81 -9 118 -45 38 -109 60 -188 67 -54 5 -63 3 -92
-21z m46 -140 c22 -22 24 -103 6 -245 -9 -73 -18 -137 -21 -144 -5 -13 -232
-91 -241 -82 -6 6 -43 334 -43 387 0 43 12 50 145 85 91 24 129 24 154 -1z"/>
<path d="M2355 1824 c-201 -63 -572 -135 -1013 -198 -365 -52 -386 -62 -233
-110 l78 -25 86 24 c96 26 97 26 117 -40 17 -57 24 -365 12 -526 -11 -150 -17
-167 -88 -262 -38 -51 -44 -66 -44 -109 0 -109 75 -171 144 -117 15 12 50 55
78 98 28 42 92 121 142 176 178 195 276 315 276 337 0 4 -9 8 -19 8 -23 0
-101 -57 -256 -188 -65 -55 -120 -100 -122 -99 -1 1 9 117 23 257 36 381 33
426 -34 482 l-32 26 77 8 77 7 106 -109 c58 -60 198 -213 312 -340 203 -228
325 -348 396 -391 33 -20 50 -23 152 -23 124 0 424 17 452 26 9 2 19 11 21 19
5 10 -18 19 -91 35 -293 66 -610 214 -809 377 -23 19 -43 39 -43 42 0 10 194
125 323 191 63 33 107 61 107 70 0 8 -9 29 -19 46 -30 49 -191 117 -191 81 0
-8 -16 -47 -36 -86 -39 -78 -115 -167 -186 -218 l-44 -32 -120 111 c-65 60
-147 133 -181 161 -35 28 -63 53 -63 57 0 12 478 82 755 110 219 22 245 31
245 80 0 47 -43 64 -170 67 -88 2 -118 -2 -185 -23z"/>
</g>
</svg>
