<?xml version="1.0" standalone="no"?>
<!DOCTYPE svg PUBLIC "-//W3C//DTD SVG 20010904//EN"
 "http://www.w3.org/TR/2001/REC-SVG-20010904/DTD/svg10.dtd">
<svg version="1.0" xmlns="http://www.w3.org/2000/svg"
 width="340.000000pt" height="340.000000pt" viewBox="0 0 340.000000 340.000000"
 preserveAspectRatio="xMidYMid meet">
<metadata>
Created by potrace 1.15, written by Peter Selinger 2001-2017
</metadata>
<g transform="translate(0.000000,340.000000) scale(0.100000,-0.100000)"
fill="#000000" stroke="none">
<path d="M1527 2707 c-3 -9 3 -46 14 -84 24 -83 59 -281 59 -333 0 -45 6 -41
-135 -65 -102 -18 -151 -43 -129 -65 15 -15 116 -30 197 -30 l67 0 0 -109 c0
-96 -2 -110 -17 -115 -10 -2 -67 -15 -128 -26 -92 -19 -118 -20 -158 -11 -117
27 -132 10 -82 -92 24 -49 44 -115 60 -190 13 -63 28 -124 34 -136 14 -26 37
-18 56 19 12 24 24 29 82 39 37 7 83 14 102 18 l35 6 -25 -41 c-137 -233 -358
-457 -631 -640 -42 -28 -80 -57 -84 -63 -14 -23 64 -1 161 45 192 91 388 250
528 431 l70 90 -6 -146 c-7 -161 -30 -336 -52 -400 -28 -78 -14 -253 24 -300
l16 -20 27 21 c18 14 35 44 49 88 20 61 23 95 28 391 l6 324 110 -105 c129
-123 142 -131 176 -115 55 28 24 151 -51 201 -46 31 -136 56 -197 56 l-43 0 0
99 c0 86 2 100 18 104 9 3 80 13 157 22 198 24 218 33 175 88 -11 14 -20 29
-20 35 0 5 22 40 48 78 27 38 56 83 65 101 l17 32 -45 39 c-24 21 -64 49 -89
62 l-44 24 -79 -36 c-43 -20 -104 -43 -135 -51 l-58 -15 0 117 0 118 66 12
c36 6 100 23 142 36 117 37 143 62 105 101 -21 20 -107 14 -222 -15 l-74 -20
6 87 c4 48 16 114 27 147 23 66 18 95 -23 134 -51 47 -189 87 -200 58z m417
-852 c0 -32 -10 -72 -28 -111 l-28 -62 -87 -31 c-47 -17 -90 -31 -94 -31 -4 0
-7 56 -7 125 0 143 -16 125 130 149 116 19 115 20 114 -39z m-344 -128 l0
-123 -111 -27 c-62 -15 -113 -26 -115 -24 -5 5 -34 204 -34 233 0 20 11 23
253 63 4 0 7 -54 7 -122z"/>
<path d="M2472 2669 c-12 -5 -22 -10 -22 -12 0 -2 15 -37 34 -78 19 -41 42
-103 51 -139 45 -171 47 -204 52 -787 5 -558 -4 -832 -28 -901 -17 -50 -33
-53 -147 -30 -143 29 -148 24 -67 -64 36 -40 92 -108 122 -152 87 -126 90
-128 125 -110 42 22 85 87 116 178 27 80 27 84 26 326 0 135 -6 308 -12 385
-34 412 -33 1018 3 1180 8 38 13 77 10 86 -10 30 -133 102 -202 117 -21 5 -49
5 -61 1z"/>
<path d="M926 2120 c-27 -15 -84 -40 -128 -54 l-80 -27 -79 31 c-82 31 -149
39 -149 17 0 -7 13 -44 29 -82 41 -98 69 -244 82 -425 15 -223 17 -237 45
-268 24 -26 24 -27 39 -7 21 27 35 81 35 137 0 54 8 62 85 73 96 13 260 56
277 72 24 22 23 43 -5 84 -21 31 -22 38 -12 79 18 66 41 118 85 186 22 33 40
70 40 81 0 12 -15 34 -32 49 -37 30 -145 84 -168 83 -8 0 -37 -13 -64 -29z
m24 -135 c17 -20 7 -172 -17 -274 l-18 -73 -93 -33 c-64 -23 -94 -30 -97 -22
-2 7 -9 80 -15 162 -6 83 -13 167 -16 187 -5 35 -4 37 28 42 193 30 212 31
228 11z"/>
<path d="M2175 2091 c-3 -6 9 -52 27 -103 l33 -93 0 -220 c0 -121 -4 -281 -8
-355 -8 -121 -7 -139 10 -170 26 -50 52 -46 81 10 21 43 22 53 22 357 0 194 4
339 12 381 10 63 10 72 -8 102 -27 47 -154 115 -169 91z"/>
</g>
</svg>
