<?xml version="1.0" standalone="no"?>
<!DOCTYPE svg PUBLIC "-//W3C//DTD SVG 20010904//EN"
 "http://www.w3.org/TR/2001/REC-SVG-20010904/DTD/svg10.dtd">
<svg version="1.0" xmlns="http://www.w3.org/2000/svg"
 width="340.000000pt" height="340.000000pt" viewBox="0 0 340.000000 340.000000"
 preserveAspectRatio="xMidYMid meet">
<metadata>
Created by potrace 1.15, written by Peter Selinger 2001-2017
</metadata>
<g transform="translate(0.000000,340.000000) scale(0.100000,-0.100000)"
fill="#000000" stroke="none">
<path d="M1890 2791 c-30 -8 -30 -8 -3 -93 12 -37 27 -107 34 -154 15 -111 8
-392 -9 -403 -16 -10 -300 -57 -306 -50 -2 2 2 31 10 64 16 72 18 170 3 213
-19 54 -112 112 -143 89 -14 -11 -14 -18 5 -77 41 -128 22 -256 -47 -320 -13
-13 -24 -31 -24 -39 0 -19 33 -77 62 -107 l20 -22 85 40 c108 51 329 123 452
148 121 24 290 45 298 36 3 -3 1 -23 -5 -45 -17 -54 -16 -111 2 -111 23 0 92
86 168 210 39 63 98 148 130 189 32 40 58 78 58 84 0 21 -52 86 -88 110 -40
27 -100 47 -145 47 -37 0 -46 -27 -39 -118 3 -50 -1 -94 -13 -145 -30 -126
-22 -119 -187 -145 -78 -13 -151 -25 -160 -28 -13 -4 -18 0 -18 15 0 41 60
319 88 406 29 88 29 91 11 113 -62 80 -156 116 -239 93z"/>
<path d="M890 2133 c-146 -71 -162 -75 -235 -46 -33 13 -81 27 -107 30 -45 5
-48 4 -48 -17 0 -12 15 -57 34 -99 41 -91 72 -237 81 -381 13 -220 36 -320 74
-320 27 0 47 34 56 92 7 54 5 53 115 63 92 9 258 43 291 61 40 20 39 61 -2
100 -26 25 -29 34 -24 64 15 77 59 200 101 278 29 53 43 90 39 102 -10 32 -86
90 -139 105 -87 26 -131 20 -236 -32z m94 -115 c24 -38 39 -137 32 -213 -9
-99 -31 -184 -53 -206 -21 -21 -107 -53 -169 -64 -52 -8 -50 -16 -60 237 l-7
198 49 22 c114 50 186 59 208 26z"/>
<path d="M2200 1784 c-124 -40 -543 -123 -630 -125 -56 -1 -92 -11 -97 -26 -3
-7 22 -25 54 -41 53 -27 64 -29 132 -24 l74 5 -7 -50 c-7 -56 -42 -166 -83
-260 -31 -71 -16 -65 -215 -84 -112 -10 -135 -10 -196 6 -38 9 -83 15 -98 13
-36 -4 -36 -17 1 -113 37 -97 54 -196 64 -365 9 -168 24 -213 68 -208 19 2 32
14 47 43 20 37 21 52 17 210 -3 94 -5 206 -5 250 l-1 80 132 21 132 20 5 -60
c3 -34 8 -106 11 -161 8 -141 23 -220 46 -241 18 -16 19 -15 28 8 20 52 31
148 38 306 4 106 10 162 17 162 6 0 70 9 141 20 72 11 136 20 143 20 10 0 12
-55 11 -263 -1 -208 1 -270 12 -293 21 -43 41 -36 71 26 24 48 30 84 53 300
14 134 29 248 33 251 14 14 268 33 312 23 79 -16 110 -100 96 -261 -7 -92 -44
-273 -58 -290 -15 -18 -40 -17 -146 9 -121 29 -129 21 -64 -63 26 -35 72 -99
101 -142 29 -43 59 -81 66 -83 22 -9 114 46 155 93 74 84 105 176 120 358 10
130 26 189 67 247 l25 37 -26 45 c-45 77 -144 138 -268 166 -49 11 -64 11
-110 -4 -77 -24 -262 -60 -518 -100 -124 -20 -229 -36 -233 -36 -11 0 25 51
83 120 99 116 123 176 96 232 -9 17 -15 32 -14 33 2 1 66 9 143 19 128 16 319
58 388 85 22 9 27 17 27 44 0 26 -6 36 -25 45 -35 16 -160 13 -215 -4z"/>
</g>
</svg>
