<?xml version="1.0" standalone="no"?>
<!DOCTYPE svg PUBLIC "-//W3C//DTD SVG 20010904//EN"
 "http://www.w3.org/TR/2001/REC-SVG-20010904/DTD/svg10.dtd">
<svg version="1.0" xmlns="http://www.w3.org/2000/svg"
 width="340.000000pt" height="340.000000pt" viewBox="0 0 340.000000 340.000000"
 preserveAspectRatio="xMidYMid meet">
<metadata>
Created by potrace 1.15, written by Peter Selinger 2001-2017
</metadata>
<g transform="translate(0.000000,340.000000) scale(0.100000,-0.100000)"
fill="#000000" stroke="none">
<path d="M1697 2787 c6 -85 -5 -117 -79 -232 -51 -79 -103 -131 -174 -178 -58
-39 -84 -92 -65 -133 10 -23 16 -25 49 -21 20 2 73 14 117 27 59 16 119 23
229 27 l149 6 -52 -74 c-28 -41 -59 -84 -69 -96 -15 -19 -51 -28 -287 -68
-148 -25 -285 -49 -302 -52 -43 -7 -42 -20 4 -39 93 -39 127 -39 273 4 74 22
136 36 138 31 6 -16 -38 -77 -91 -125 -70 -64 -190 -141 -344 -222 -90 -47
-122 -68 -106 -70 44 -6 132 18 248 67 l118 51 43 -16 43 -16 -38 -57 c-86
-125 -219 -258 -406 -407 -109 -86 -110 -102 -5 -60 202 82 394 236 503 404
l40 63 49 -48 c66 -65 68 -79 19 -151 -163 -241 -388 -460 -643 -627 -188
-123 -191 -127 -87 -101 83 22 256 109 370 187 162 111 329 285 431 449 23 38
46 69 50 70 3 0 17 -42 29 -92 18 -76 23 -121 22 -243 0 -159 -15 -254 -54
-345 -35 -82 -40 -84 -179 -76 -77 5 -120 4 -120 -3 0 -5 24 -30 54 -55 30
-26 84 -85 121 -131 37 -47 73 -85 80 -85 6 0 31 14 53 30 230 167 262 701 62
1043 -21 37 -36 67 -33 67 9 0 267 -226 412 -360 76 -72 155 -137 175 -145 45
-19 102 -19 251 1 278 36 382 61 358 85 -4 4 -51 15 -104 23 -313 50 -610 164
-937 359 l-84 49 34 21 c18 11 125 67 238 125 221 113 240 125 240 153 0 32
-58 87 -108 103 -88 28 -112 30 -112 9 -1 -58 -91 -175 -229 -298 l-103 -93
-92 56 c-50 30 -136 78 -190 105 -117 58 -121 47 56 138 150 76 167 103 91
150 -19 12 -33 23 -31 24 5 5 531 75 641 85 123 11 147 20 147 56 0 20 -9 29
-42 44 -64 29 -140 25 -292 -14 -142 -38 -286 -67 -286 -58 0 9 82 115 157
202 77 91 151 159 246 228 31 24 57 49 57 57 0 19 -58 62 -109 80 -65 22 -114
19 -179 -14 -31 -15 -79 -36 -107 -44 -65 -22 -175 -37 -175 -24 0 5 27 35 60
66 37 36 60 66 60 79 0 35 -70 97 -123 110 -86 22 -86 22 -80 -61z m308 -344
c-31 -60 -58 -109 -60 -111 -1 -2 -19 7 -39 19 -29 17 -46 20 -79 16 -23 -4
-87 -13 -142 -20 -55 -8 -101 -13 -103 -12 -4 3 131 177 150 192 9 8 61 14
144 16 71 1 142 4 157 5 l29 2 -57 -107z"/>
<path d="M856 2205 c-43 -39 -102 -61 -211 -80 -73 -12 -78 -12 -165 16 -50
16 -97 29 -105 29 -29 0 -26 -28 8 -96 49 -98 127 -430 127 -543 0 -55 21
-158 35 -178 13 -17 15 -17 31 -1 12 12 19 40 23 90 l6 72 155 32 c257 53 265
55 265 83 0 17 -9 29 -32 40 -18 9 -33 22 -33 29 0 24 71 206 107 272 19 36
51 84 70 108 40 49 38 56 -31 96 -50 29 -156 66 -188 66 -13 -1 -40 -16 -62
-35z m35 -116 c20 -20 21 -29 17 -118 -3 -53 -17 -146 -32 -206 l-27 -111
-120 -32 c-67 -18 -122 -32 -124 -30 -1 2 -10 82 -19 178 -9 96 -20 191 -23
211 l-5 37 82 31 c91 35 174 59 208 60 12 1 32 -9 43 -20z"/>
</g>
</svg>
