<?xml version="1.0" standalone="no"?>
<!DOCTYPE svg PUBLIC "-//W3C//DTD SVG 20010904//EN"
 "http://www.w3.org/TR/2001/REC-SVG-20010904/DTD/svg10.dtd">
<svg version="1.0" xmlns="http://www.w3.org/2000/svg"
 width="340.000000pt" height="340.000000pt" viewBox="0 0 340.000000 340.000000"
 preserveAspectRatio="xMidYMid meet">
<metadata>
Created by potrace 1.15, written by Peter Selinger 2001-2017
</metadata>
<g transform="translate(0.000000,340.000000) scale(0.100000,-0.100000)"
fill="#000000" stroke="none">
<path d="M1577 2973 c-13 -12 -7 -45 13 -70 11 -15 27 -49 35 -77 18 -64 31
-236 18 -236 -5 0 -57 -7 -114 -15 -58 -8 -193 -23 -301 -34 -108 -11 -206
-25 -217 -31 -28 -14 -14 -42 31 -61 50 -21 256 -17 426 9 79 12 152 22 163
22 18 0 19 -8 19 -114 l0 -114 -87 -12 c-49 -7 -144 -18 -213 -24 -114 -10
-125 -13 -125 -31 0 -16 13 -24 59 -39 59 -19 60 -19 240 3 100 12 242 26 316
32 354 26 380 31 380 73 0 29 -14 41 -70 61 -40 14 -52 13 -184 -10 -77 -14
-148 -25 -158 -25 -16 0 -18 11 -18 103 0 56 4 108 8 114 10 16 162 39 342 53
203 16 303 29 314 40 18 18 -12 60 -58 80 -82 37 -163 36 -341 -3 -88 -20
-181 -40 -207 -45 l-48 -10 0 38 c0 45 24 173 39 213 23 60 -23 92 -156 107
-105 12 -98 12 -106 3z"/>
<path d="M2042 2044 c-46 -20 -216 -48 -490 -79 -228 -26 -236 -26 -317 -10
-63 12 -89 14 -104 5 -30 -15 -26 -30 22 -91 23 -30 73 -107 111 -171 37 -64
74 -119 81 -121 6 -3 79 8 162 23 121 23 350 55 515 74 35 3 42 -16 28 -79
-15 -65 -49 -129 -120 -223 -60 -80 -61 -81 -113 -86 -82 -10 -289 -26 -324
-26 l-32 0 19 43 c30 65 26 100 -17 148 -42 47 -87 71 -161 89 -109 25 -100
-25 33 -185 41 -49 71 -92 67 -96 -9 -9 -457 -54 -752 -75 -124 -9 -229 -20
-234 -25 -5 -5 -4 -14 4 -24 16 -20 187 -105 210 -105 10 0 96 15 192 34 475
94 845 138 1302 156 221 8 317 6 746 -15 73 -4 131 -2 139 3 21 15 -3 75 -44
110 -90 80 -239 86 -665 29 -151 -21 -287 -40 -302 -43 -16 -3 -28 -2 -28 3 1
23 266 203 301 203 8 0 24 6 35 14 19 14 19 15 -5 40 -13 14 -64 45 -112 69
-86 43 -99 57 -54 57 35 0 37 12 8 43 l-28 29 49 44 c27 25 86 63 132 85 46
23 84 45 84 49 0 13 -77 56 -150 84 -88 32 -147 39 -188 20z m-8 -104 c21 -8
26 -16 26 -45 0 -46 -20 -84 -63 -122 -30 -26 -54 -34 -173 -57 -116 -23 -367
-56 -425 -56 -19 0 -87 186 -73 199 15 14 524 83 656 90 15 0 38 -3 52 -9z"/>
<path d="M2030 1020 c-202 -53 -674 -104 -757 -82 -47 13 -122 16 -147 6 -25
-10 -19 -50 13 -86 15 -18 36 -48 45 -66 22 -43 55 -194 56 -252 1 -101 44
-193 96 -206 37 -9 54 12 54 67 l0 48 53 5 c114 12 203 16 480 26 159 6 300
13 313 16 30 8 30 26 0 91 l-25 52 40 55 c36 51 132 126 179 141 24 8 25 18 3
52 -33 51 -239 167 -286 162 -7 -1 -59 -14 -117 -29z m55 -112 c34 -15 40 -44
25 -125 -12 -74 -38 -141 -61 -160 -20 -16 -191 -50 -318 -63 -89 -9 -351 -15
-351 -7 -1 19 -31 251 -36 275 -5 22 -3 32 6 32 7 0 76 9 154 20 263 38 531
51 581 28z"/>
</g>
</svg>
