<?xml version="1.0" standalone="no"?>
<!DOCTYPE svg PUBLIC "-//W3C//DTD SVG 20010904//EN"
 "http://www.w3.org/TR/2001/REC-SVG-20010904/DTD/svg10.dtd">
<svg version="1.0" xmlns="http://www.w3.org/2000/svg"
 width="340.000000pt" height="340.000000pt" viewBox="0 0 340.000000 340.000000"
 preserveAspectRatio="xMidYMid meet">
<metadata>
Created by potrace 1.15, written by Peter Selinger 2001-2017
</metadata>
<g transform="translate(0.000000,340.000000) scale(0.100000,-0.100000)"
fill="#000000" stroke="none">
<path d="M1772 2943 c-31 -6 -38 -29 -18 -52 42 -47 80 -215 74 -326 l-3 -60
-95 -17 c-162 -30 -165 -31 -168 -55 -3 -17 3 -24 23 -29 27 -7 134 0 208 12
l37 7 0 -85 c0 -47 -3 -112 -6 -145 l-6 -60 -102 -12 c-55 -6 -186 -20 -289
-31 -104 -11 -192 -22 -197 -25 -14 -8 9 -51 34 -64 62 -31 76 -32 185 -6 187
45 572 122 569 114 -2 -4 -60 -62 -130 -129 l-127 -121 -52 15 c-29 9 -55 16
-57 16 -3 0 -2 -24 1 -52 l6 -53 -115 -90 c-185 -145 -378 -270 -549 -356 -88
-44 -167 -87 -175 -96 -14 -14 -10 -15 34 -9 184 23 506 186 735 371 37 30 71
55 75 55 3 0 6 -25 6 -55 0 -71 18 -114 64 -152 69 -57 172 -72 363 -53 155
14 368 52 443 78 64 22 136 58 144 71 3 5 -5 40 -18 78 -13 38 -29 102 -36
141 -6 40 -16 72 -20 72 -5 0 -14 -17 -21 -37 -14 -46 -65 -148 -91 -185 -49
-71 -217 -112 -458 -112 -146 -1 -170 1 -205 19 -79 40 -67 48 230 161 149 56
282 107 298 113 55 22 24 86 -59 123 l-43 19 -73 -74 c-74 -74 -119 -102 -293
-184 -122 -57 -125 -57 -125 17 l0 59 98 77 c53 43 147 126 207 185 l110 108
210 11 c116 5 276 10 357 10 148 0 191 8 203 38 3 8 -1 25 -10 38 -39 59 -129
86 -242 73 -63 -8 -350 -66 -413 -84 -8 -3 56 64 143 148 101 99 157 160 157
174 0 11 -10 35 -23 54 -26 39 -105 101 -121 96 -6 -2 -20 -30 -31 -63 -38
-111 -110 -221 -236 -365 -72 -81 -71 -81 -191 -95 l-58 -6 0 64 c0 36 3 99 6
141 l7 75 51 6 c64 9 174 38 204 54 29 17 29 57 0 73 -29 16 -128 6 -202 -19
l-58 -20 7 70 c3 39 16 105 27 147 33 122 33 121 -42 158 -66 32 -117 44 -158
36z"/>
<path d="M945 2290 c-83 -40 -221 -75 -240 -61 -19 16 -118 41 -163 41 -52 0
-52 -2 -8 -106 48 -113 75 -307 77 -534 0 -137 13 -184 50 -188 34 -4 49 30
58 128 l6 75 145 37 c80 20 174 42 210 48 79 13 120 28 120 45 0 7 -22 29 -50
49 -27 20 -50 40 -50 45 0 33 114 280 156 338 14 20 13 22 -18 47 -47 35 -118
65 -170 71 -35 4 -57 -2 -123 -35z m73 -122 c18 -18 14 -117 -9 -226 -12 -53
-25 -103 -29 -111 -11 -21 -250 -104 -255 -88 -2 7 -5 98 -7 204 l-4 192 81
20 c92 22 205 27 223 9z"/>
<path d="M2232 1294 c-42 -18 -219 -49 -377 -65 -107 -11 -129 -10 -195 5
-121 28 -120 28 -126 11 -4 -8 3 -38 15 -65 11 -27 28 -81 36 -121 17 -77 34
-343 33 -505 0 -105 14 -159 42 -159 22 0 57 59 64 110 6 35 12 46 29 50 17 3
408 29 452 30 16 0 42 -65 61 -152 9 -46 21 -83 26 -83 18 0 98 91 125 142 28
53 28 53 33 299 l5 246 33 63 32 64 -42 43 c-48 49 -148 103 -187 102 -14 0
-41 -7 -59 -15z m13 -106 c50 -39 55 -67 55 -312 0 -123 -3 -231 -6 -240 -5
-14 -10 -13 -38 7 -26 19 -44 22 -116 22 -47 -1 -125 -9 -174 -18 -50 -9 -121
-20 -158 -24 l-68 -6 0 122 0 121 108 0 c103 0 189 13 299 45 57 17 65 31 32
61 -28 25 -71 23 -239 -15 -74 -16 -150 -32 -168 -36 l-33 -7 3 118 3 118 50
13 c47 12 192 38 260 46 17 2 60 5 96 6 54 1 71 -3 94 -21z"/>
</g>
</svg>
