<?xml version="1.0" standalone="no"?>
<!DOCTYPE svg PUBLIC "-//W3C//DTD SVG 20010904//EN"
 "http://www.w3.org/TR/2001/REC-SVG-20010904/DTD/svg10.dtd">
<svg version="1.0" xmlns="http://www.w3.org/2000/svg"
 width="340.000000pt" height="340.000000pt" viewBox="0 0 340.000000 340.000000"
 preserveAspectRatio="xMidYMid meet">
<metadata>
Created by potrace 1.15, written by Peter Selinger 2001-2017
</metadata>
<g transform="translate(0.000000,340.000000) scale(0.100000,-0.100000)"
fill="#000000" stroke="none">
<path d="M1857 2863 c-16 -16 -3 -33 46 -61 62 -35 184 -159 286 -292 40 -52
114 -144 165 -203 118 -140 124 -142 387 -142 143 1 191 4 203 14 25 21 10 30
-104 67 -243 80 -401 184 -636 420 -143 143 -179 174 -219 188 -49 16 -116 21
-128 9z"/>
<path d="M1546 2688 c-3 -7 -7 -37 -10 -66 -6 -60 -45 -138 -122 -243 -56 -77
-204 -249 -214 -249 -3 0 -41 18 -84 40 -42 22 -87 40 -99 40 -12 0 -49 -12
-82 -26 -33 -14 -107 -43 -164 -65 l-105 -40 -63 15 c-77 20 -127 20 -142 2
-9 -11 -3 -30 28 -87 51 -94 84 -211 106 -369 18 -131 42 -195 78 -206 30 -9
48 17 54 79 4 40 11 58 22 61 9 3 89 21 179 41 90 19 172 40 183 45 25 14 24
51 -2 84 -15 19 -19 34 -14 54 11 46 64 149 101 198 49 64 60 90 45 108 -10
12 -8 17 11 27 38 20 194 145 346 278 136 118 143 126 138 155 -8 39 -38 71
-101 107 -54 31 -83 36 -89 17z m-561 -698 c-1 -47 -9 -127 -19 -177 l-18 -93
-67 -19 c-110 -33 -160 -45 -165 -40 -3 3 -46 320 -46 342 0 4 8 7 18 8 9 0
64 15 122 34 58 19 121 33 140 32 l35 -2 0 -85z"/>
<path d="M1801 2393 c-6 -21 -17 -64 -26 -96 -24 -89 -137 -218 -295 -338 -33
-25 -33 -26 -20 -59 20 -49 59 -90 85 -90 12 0 53 13 92 29 114 47 241 92 368
131 l119 38 47 -72 c51 -78 83 -101 115 -83 10 6 22 15 26 21 17 25 6 85 -27
154 -31 65 -40 76 -105 117 -68 45 -129 75 -150 75 -15 0 -12 -36 5 -50 8 -6
17 -22 21 -33 4 -12 16 -35 26 -50 11 -16 17 -31 13 -35 -8 -9 -469 -102 -475
-96 -2 3 73 82 168 177 109 109 172 180 172 192 0 32 -29 65 -74 86 -61 28
-74 25 -85 -18z"/>
<path d="M2239 1715 c-58 -18 -142 -41 -185 -50 -88 -18 -106 -28 -76 -44 52
-28 107 -31 211 -11 140 27 175 27 189 -5 25 -55 33 -197 30 -527 -3 -326 -4
-337 -24 -365 -21 -27 -24 -28 -108 -25 -67 2 -88 0 -92 -11 -3 -8 18 -44 46
-82 28 -37 62 -89 75 -115 43 -86 91 -101 150 -48 43 37 79 105 102 191 20 73
21 304 2 534 -17 206 -10 313 25 390 44 96 27 125 -103 173 -87 33 -124 32
-242 -5z"/>
<path d="M1489 1614 c-53 -19 -130 -39 -170 -45 -145 -21 -157 -34 -57 -61 69
-18 86 -17 233 18 54 13 103 20 108 15 26 -26 41 -552 18 -670 -16 -81 -44
-138 -77 -153 -18 -8 -37 -8 -75 0 -60 14 -99 15 -99 3 0 -4 14 -26 31 -47 17
-22 49 -70 72 -108 50 -83 86 -105 141 -82 37 15 65 50 90 115 44 113 49 156
55 501 6 319 7 337 29 384 25 56 22 78 -16 104 -36 25 -137 62 -165 61 -12 -1
-65 -17 -118 -35z"/>
<path d="M1983 1424 c-8 -23 88 -112 162 -150 l50 -25 18 23 c21 25 18 62 -9
103 -17 27 -84 52 -166 62 -40 5 -49 3 -55 -13z"/>
<path d="M1178 1393 c-33 -8 -18 -40 45 -99 80 -75 109 -91 145 -78 22 8 28
16 30 48 3 33 -2 43 -36 76 -38 35 -54 42 -142 54 -14 2 -33 2 -42 -1z"/>
<path d="M2228 1145 c-102 -81 -215 -160 -312 -217 -82 -49 -49 -91 82 -104
l59 -6 35 43 c20 24 64 85 98 134 34 50 87 120 116 156 30 36 54 69 54 73 0
19 -38 -3 -132 -79z"/>
<path d="M1465 1149 c-53 -40 -271 -164 -362 -205 -40 -18 -97 -41 -128 -49
-30 -9 -55 -20 -55 -25 0 -14 45 -37 128 -65 l83 -27 34 24 c57 40 376 359
370 369 -10 15 -28 9 -70 -22z"/>
</g>
</svg>
