<?xml version="1.0" standalone="no"?>
<!DOCTYPE svg PUBLIC "-//W3C//DTD SVG 20010904//EN"
 "http://www.w3.org/TR/2001/REC-SVG-20010904/DTD/svg10.dtd">
<svg version="1.0" xmlns="http://www.w3.org/2000/svg"
 width="340.000000pt" height="340.000000pt" viewBox="0 0 340.000000 340.000000"
 preserveAspectRatio="xMidYMid meet">
<metadata>
Created by potrace 1.15, written by Peter Selinger 2001-2017
</metadata>
<g transform="translate(0.000000,340.000000) scale(0.100000,-0.100000)"
fill="#000000" stroke="none">
<path d="M1793 2869 c-18 -18 -16 -36 7 -67 11 -15 26 -54 35 -87 18 -72 37
-319 33 -429 l-3 -80 -70 -13 c-169 -32 -222 -33 -306 -8 -98 30 -165 40 -173
27 -3 -5 8 -40 25 -77 29 -60 31 -75 31 -163 -1 -116 -30 -288 -78 -472 -56
-214 -71 -259 -133 -386 -107 -221 -219 -379 -400 -566 -57 -60 -97 -108 -90
-108 17 0 143 68 215 116 63 42 172 155 235 244 190 268 290 570 368 1105 l26
180 150 27 c105 19 153 24 161 17 21 -17 36 -108 32 -192 l-3 -79 -60 -24
c-33 -14 -98 -38 -145 -55 -47 -16 -91 -31 -97 -34 -23 -8 -2 -35 36 -46 44
-13 115 -1 203 35 l56 23 7 -56 c8 -63 34 -117 70 -144 13 -9 52 -24 87 -33
160 -42 503 53 523 144 3 18 -1 54 -10 88 -9 33 -21 82 -27 109 -14 67 -25 75
-37 29 -5 -22 -14 -57 -20 -79 -29 -111 -133 -177 -300 -191 -127 -11 -185 29
-186 128 l0 50 109 43 c59 24 133 52 164 61 112 32 136 58 87 90 -32 21 -73
11 -232 -56 -65 -28 -121 -50 -125 -50 -4 0 0 19 8 43 9 23 16 69 17 102 l2
59 -49 27 c-59 32 -64 30 144 64 235 38 340 48 356 34 21 -18 17 -49 -16 -108
-17 -30 -30 -58 -30 -64 0 -17 67 3 185 53 63 27 133 54 155 60 52 14 53 40 3
87 -53 48 -186 113 -233 113 -21 0 -69 -12 -106 -26 -91 -34 -326 -94 -369
-94 l-35 0 0 125 0 125 80 0 c111 0 275 19 335 39 39 12 51 21 53 39 5 33 -14
50 -61 57 -31 4 -88 -5 -222 -39 -99 -24 -181 -43 -182 -42 -1 1 2 27 8 57 5
29 12 88 15 129 5 65 4 77 -12 91 -41 37 -190 70 -211 48z"/>
<path d="M904 2225 c-152 -74 -209 -88 -323 -80 -81 6 -99 4 -110 -8 -10 -13
-10 -20 3 -39 43 -68 88 -293 106 -538 12 -158 29 -215 65 -215 36 0 55 58 55
167 0 53 3 99 8 101 4 3 95 17 202 32 180 26 220 36 220 54 0 4 -16 27 -36 50
-36 42 -37 43 -24 84 17 57 65 152 106 210 37 52 42 81 19 115 -19 26 -86 67
-154 92 l-48 19 -89 -44z m57 -127 c31 -58 -8 -293 -56 -335 -27 -23 -140 -63
-181 -63 -18 0 -24 6 -24 23 0 12 -7 87 -15 167 -8 80 -15 150 -15 156 0 6 53
23 118 39 64 15 122 28 127 30 24 8 35 4 46 -17z"/>
<path d="M2061 1451 c-12 -8 -11 -20 7 -78 31 -97 42 -217 42 -469 l0 -222
-55 -6 c-30 -3 -80 -9 -110 -12 l-55 -6 0 198 c1 110 7 249 15 309 16 132 13
139 -85 193 -104 57 -144 33 -105 -62 28 -66 65 -406 65 -591 l0 -53 -67 -6
c-38 -4 -115 -13 -173 -21 -58 -8 -161 -19 -230 -25 -68 -6 -129 -15 -134 -20
-23 -23 96 -100 155 -100 19 0 127 15 240 34 496 83 912 114 1118 82 152 -23
185 -22 210 10 12 15 21 33 21 41 0 30 -60 71 -143 98 l-84 27 -224 -31 c-123
-18 -231 -33 -239 -34 -10 -1 -15 6 -13 23 0 14 6 119 12 235 10 186 19 257
46 357 10 39 -34 78 -125 112 -82 30 -71 28 -89 17z"/>
<path d="M2490 1381 c-5 -11 -10 -43 -10 -72 0 -67 -52 -179 -144 -307 -36
-50 -66 -96 -66 -102 0 -24 43 -7 97 39 96 80 303 296 304 317 3 53 -21 83
-97 119 -63 30 -70 31 -84 6z"/>
<path d="M1444 1206 c-10 -27 69 -294 106 -353 23 -39 51 -42 81 -12 19 19 21
30 17 90 -6 79 -39 142 -121 235 -49 54 -73 66 -83 40z"/>
</g>
</svg>
