<?xml version="1.0" standalone="no"?>
<!DOCTYPE svg PUBLIC "-//W3C//DTD SVG 20010904//EN"
 "http://www.w3.org/TR/2001/REC-SVG-20010904/DTD/svg10.dtd">
<svg version="1.0" xmlns="http://www.w3.org/2000/svg"
 width="340.000000pt" height="340.000000pt" viewBox="0 0 340.000000 340.000000"
 preserveAspectRatio="xMidYMid meet">
<metadata>
Created by potrace 1.15, written by Peter Selinger 2001-2017
</metadata>
<g transform="translate(0.000000,340.000000) scale(0.100000,-0.100000)"
fill="#000000" stroke="none">
<path d="M1986 2812 c-4 -6 3 -37 14 -69 52 -142 53 -149 46 -310 -8 -174 -22
-313 -33 -324 -5 -4 -47 -10 -95 -14 l-88 -7 0 113 c0 63 5 165 10 228 6 72 6
120 0 132 -24 44 -206 109 -224 80 -3 -5 14 -49 39 -97 34 -68 47 -107 55
-167 10 -76 14 -317 6 -317 -15 0 -362 -42 -411 -50 -83 -14 -82 -14 -77 19 5
38 -28 70 -117 113 -54 26 -69 29 -90 20 -122 -50 -195 -76 -259 -93 -71 -18
-78 -18 -157 -3 -127 25 -158 9 -116 -60 44 -72 78 -234 106 -506 10 -91 24
-180 32 -197 34 -73 82 -19 87 98 2 38 5 72 8 74 2 2 89 20 192 40 262 50 281
62 205 138 -50 51 -49 64 14 200 49 104 55 109 114 86 42 -16 147 -12 250 9
l93 19 51 -91 c29 -50 65 -108 80 -128 16 -20 29 -39 29 -42 0 -6 -70 -17
-200 -30 -89 -9 -115 -15 -118 -27 -6 -32 45 -44 194 -44 l144 0 10 -28 c5
-16 12 -50 16 -77 5 -41 4 -49 -12 -54 -32 -10 -217 -36 -256 -36 -49 0 -95
-17 -81 -31 6 -6 43 -16 83 -23 68 -11 123 -9 226 8 l41 7 7 -58 c8 -71 -1
-121 -23 -127 -26 -8 -163 -24 -379 -46 -263 -26 -293 -40 -166 -80 37 -11 80
-20 97 -20 17 0 121 18 230 41 109 22 205 39 212 37 22 -5 -61 -168 -134 -265
-119 -157 -317 -300 -523 -378 -102 -38 -77 -63 43 -44 141 22 260 76 405 185
146 110 253 250 302 394 l17 50 91 -123 c110 -147 233 -295 329 -393 l70 -73
70 -7 c39 -4 154 -2 260 6 236 15 287 22 292 37 5 14 -32 26 -182 58 -255 54
-420 121 -529 216 -33 28 -131 120 -218 203 l-158 153 91 6 c51 4 218 7 371 7
286 0 318 4 318 39 0 25 -35 68 -73 89 -60 32 -272 16 -572 -43 -66 -13 -121
-22 -123 -21 -8 9 12 176 21 176 28 0 342 52 363 60 37 14 31 48 -10 65 -32
13 -47 12 -183 -15 -81 -17 -157 -33 -167 -36 -15 -5 -18 -3 -12 12 4 10 10
37 13 60 5 41 4 43 -33 62 l-38 20 54 6 c173 22 453 76 468 91 13 12 -11 54
-37 65 -25 10 -49 8 -157 -15 -69 -14 -128 -25 -130 -23 -2 2 28 28 66 57 88
67 131 115 123 138 -10 29 -45 63 -93 91 l-45 27 55 6 c30 4 169 13 308 20
259 13 299 21 274 52 -7 8 -38 23 -70 33 -98 32 -256 23 -530 -32 l-33 -7 3
62 3 61 145 59 c188 76 280 120 287 137 13 34 -116 162 -151 151 -6 -2 -36
-37 -67 -78 -55 -72 -142 -159 -181 -180 -26 -14 -24 6 18 168 54 207 54 194
-3 235 -26 20 -62 43 -79 51 -42 22 -110 32 -118 19z m-999 -870 c-7 -117 -35
-302 -48 -319 -9 -10 -115 -42 -195 -58 l-30 -6 -17 202 c-9 112 -15 205 -12
207 11 12 235 71 269 72 l39 0 -6 -98z m1099 51 c-7 -56 -38 -149 -69 -213
l-22 -45 -100 -16 c-55 -9 -101 -16 -102 -15 -1 1 5 23 14 48 14 44 14 50 -3
85 -13 25 -44 56 -93 91 -40 28 -69 52 -65 53 5 0 92 13 194 29 102 15 200 28
219 29 l34 1 -7 -47z"/>
<path d="M1365 2360 c-9 -15 35 -85 95 -153 70 -78 84 -84 115 -53 29 29 31
60 9 115 -14 35 -23 42 -89 70 -77 32 -119 39 -130 21z"/>
</g>
</svg>
