<?xml version="1.0" standalone="no"?>
<!DOCTYPE svg PUBLIC "-//W3C//DTD SVG 20010904//EN"
 "http://www.w3.org/TR/2001/REC-SVG-20010904/DTD/svg10.dtd">
<svg version="1.0" xmlns="http://www.w3.org/2000/svg"
 width="340.000000pt" height="340.000000pt" viewBox="0 0 340.000000 340.000000"
 preserveAspectRatio="xMidYMid meet">
<metadata>
Created by potrace 1.15, written by Peter Selinger 2001-2017
</metadata>
<g transform="translate(0.000000,340.000000) scale(0.100000,-0.100000)"
fill="#000000" stroke="none">
<path d="M1990 2635 c-236 -49 -492 -91 -665 -110 -82 -9 -174 -21 -202 -26
-96 -19 -61 -42 97 -66 103 -16 118 -16 222 0 61 9 113 15 116 12 9 -9 21
-244 28 -540 l7 -311 -144 -22 c-185 -29 -430 -56 -689 -77 -248 -20 -250 -20
-250 -45 0 -24 35 -43 120 -65 76 -20 57 -22 582 66 196 32 362 59 367 59 8 0
11 -139 11 -439 l0 -438 -162 -22 c-220 -29 -393 -48 -513 -57 -55 -3 -108
-11 -117 -16 -46 -23 -1 -63 113 -100 l66 -21 189 36 c349 68 577 90 939 91
152 1 323 -5 412 -13 140 -13 154 -13 177 3 63 41 -1 129 -120 166 -103 31
-238 25 -619 -30 -77 -11 -161 -20 -187 -20 l-48 0 0 435 0 435 23 5 c73 16
484 38 805 44 391 6 391 6 392 50 0 24 -65 79 -111 92 -90 27 -494 -1 -874
-61 -66 -10 -146 -22 -178 -26 l-59 -7 5 299 c2 190 9 321 17 360 17 80 9 105
-45 145 -24 19 -45 36 -45 39 0 3 78 14 173 23 299 31 490 58 519 73 57 30 19
84 -73 103 -72 16 -95 14 -279 -24z"/>
<path d="M2250 2324 c-84 -27 -239 -54 -316 -54 -27 0 -58 -6 -67 -13 -16 -11
-16 -15 8 -47 23 -31 69 -161 107 -304 18 -67 36 -77 90 -49 27 14 85 28 158
38 63 9 137 21 163 27 49 10 71 34 46 49 -55 31 -55 33 -16 87 21 28 65 75 98
106 68 63 71 79 21 112 -35 24 -176 75 -202 73 -8 -1 -49 -12 -90 -25z m80
-120 c0 -37 -33 -191 -43 -200 -16 -16 -101 -42 -159 -50 l-47 -7 -11 44 c-6
24 -21 79 -32 122 -17 63 -19 80 -9 87 11 6 155 31 251 43 25 3 50 -16 50 -39z"/>
<path d="M1245 2195 c-27 -7 -94 -24 -148 -38 -84 -22 -106 -25 -150 -16 -57
10 -107 4 -107 -14 0 -7 22 -57 49 -112 28 -55 66 -140 86 -190 20 -49 45
-100 57 -112 37 -40 68 -26 68 31 0 20 10 24 118 45 162 31 192 40 192 56 0 8
-9 20 -20 28 -19 13 -19 16 -4 68 8 30 32 89 51 132 43 93 40 101 -53 123 -68
16 -73 16 -139 -1z m15 -111 c11 -28 11 -121 1 -169 -5 -27 -14 -33 -81 -57
-41 -15 -82 -27 -91 -27 -12 -1 -23 28 -47 116 -17 64 -29 119 -26 122 8 8
165 39 202 40 26 1 34 -4 42 -25z"/>
<path d="M2240 1380 c-121 -44 -235 -70 -307 -70 -34 0 -68 -3 -77 -6 -22 -9
-20 -37 5 -60 35 -32 68 -109 102 -237 31 -116 33 -122 59 -125 22 -3 30 2 39
22 13 28 4 26 224 51 143 17 195 30 195 49 0 15 -27 40 -53 49 -24 9 -14 26
67 114 74 80 82 108 41 149 -28 28 -134 81 -180 89 -20 4 -59 -5 -115 -25z
m78 -130 c4 -59 -27 -189 -48 -200 -24 -13 -199 -45 -206 -38 -10 10 -38 227
-30 235 11 11 217 52 251 50 28 -2 30 -5 33 -47z"/>
<path d="M1182 1260 c-83 -43 -161 -60 -281 -60 -61 0 -83 -4 -87 -14 -3 -8 8
-40 24 -72 16 -33 48 -112 72 -177 24 -66 54 -132 67 -148 32 -37 61 -38 65
-2 3 24 10 29 73 45 39 10 106 25 150 34 106 20 115 23 115 39 0 7 -12 22 -26
32 l-26 19 22 45 c12 24 40 65 61 91 45 54 48 76 15 116 -26 30 -134 93 -157
91 -8 0 -47 -18 -87 -39z m62 -90 c15 -5 28 -20 32 -35 9 -35 -33 -161 -61
-183 -24 -19 -182 -68 -191 -59 -6 6 -54 212 -54 232 0 8 36 19 98 30 53 9
102 19 107 20 20 7 44 5 69 -5z"/>
</g>
</svg>
