<?xml version="1.0" standalone="no"?>
<!DOCTYPE svg PUBLIC "-//W3C//DTD SVG 20010904//EN"
 "http://www.w3.org/TR/2001/REC-SVG-20010904/DTD/svg10.dtd">
<svg version="1.0" xmlns="http://www.w3.org/2000/svg"
 width="340.000000pt" height="340.000000pt" viewBox="0 0 340.000000 340.000000"
 preserveAspectRatio="xMidYMid meet">
<metadata>
Created by potrace 1.15, written by Peter Selinger 2001-2017
</metadata>
<g transform="translate(0.000000,340.000000) scale(0.100000,-0.100000)"
fill="#000000" stroke="none">
<path d="M2196 3053 c-10 -11 -6 -46 10 -93 11 -32 14 -62 10 -105 -6 -54 -39
-202 -48 -210 -4 -5 -360 -65 -382 -65 -13 0 -16 13 -16 74 0 123 -4 132 -67
156 -85 32 -141 42 -163 30 -28 -15 -25 -36 11 -82 36 -45 99 -165 99 -189 0
-20 -7 -21 -230 -49 -91 -11 -171 -23 -179 -25 -24 -9 18 -44 72 -60 72 -21
127 -18 252 15 60 15 113 26 117 24 3 -2 14 -36 23 -75 16 -74 39 -129 54
-129 4 0 16 9 27 21 16 18 19 37 19 117 l0 97 165 31 c91 18 167 30 169 29 2
-2 -20 -52 -48 -111 -28 -58 -51 -110 -51 -115 0 -20 34 -7 63 24 28 29 141
193 149 216 2 6 105 14 243 20 246 10 308 20 303 49 -5 26 -64 60 -126 73 -51
10 -68 9 -167 -14 -120 -29 -195 -41 -195 -34 0 3 24 43 53 90 75 118 83 141
64 170 -33 51 -209 142 -231 120z"/>
<path d="M940 2369 c-69 -47 -196 -107 -255 -120 -48 -11 -62 -9 -122 9 -103
32 -128 35 -142 18 -10 -12 -5 -28 27 -88 49 -89 78 -181 127 -398 45 -198 55
-230 77 -244 27 -16 50 14 56 73 4 49 6 51 41 61 20 5 125 34 234 63 109 30
206 61 215 71 15 15 12 20 -37 66 l-53 50 18 52 c26 80 61 154 100 215 42 66
40 92 -11 123 -34 21 -195 80 -218 80 -7 0 -32 -14 -57 -31z m53 -184 c10 -47
2 -147 -20 -261 l-15 -82 -120 -32 c-65 -18 -120 -31 -122 -29 -7 8 -45 362
-40 371 3 4 11 8 17 8 7 0 67 16 132 35 66 19 129 33 140 32 14 -1 22 -13 28
-42z"/>
<path d="M2180 2289 c-217 -76 -452 -122 -627 -123 -151 -1 -160 -7 -120 -74
53 -89 117 -232 161 -360 l44 -128 -37 -54 c-42 -64 -158 -183 -219 -224 -40
-27 -45 -28 -83 -17 -42 13 -79 7 -79 -12 0 -6 22 -45 49 -86 104 -160 105
-260 4 -362 l-45 -47 17 -51 c14 -44 53 -91 75 -91 4 0 33 15 64 34 73 44 193
81 341 106 127 21 352 40 471 40 104 0 123 34 46 82 -52 32 -140 28 -496 -22
-159 -22 -291 -40 -293 -40 -3 0 -1 39 2 88 10 129 -18 252 -71 312 -12 14 -8
17 29 28 23 6 80 33 127 60 77 44 88 48 119 40 19 -6 72 -8 118 -6 46 1 83 -1
83 -5 0 -14 -62 -131 -94 -177 -16 -25 -66 -84 -109 -133 -43 -48 -77 -92 -75
-98 2 -5 32 4 68 23 74 37 215 171 294 278 42 56 47 70 43 101 l-5 37 77 11
c150 22 340 32 383 20 120 -32 138 -129 87 -459 -25 -155 -52 -241 -92 -287
l-31 -35 -90 3 c-113 5 -117 -3 -42 -89 31 -34 63 -79 72 -98 18 -37 66 -74
96 -74 29 0 83 56 117 120 64 120 90 220 106 405 19 223 31 291 67 403 30 89
30 95 15 127 -21 44 -113 89 -227 111 -86 16 -86 16 -180 -9 -180 -49 -587
-127 -665 -127 -17 0 -17 2 5 17 53 35 90 77 90 103 0 14 -14 42 -30 62 -36
44 -53 37 180 78 96 16 195 34 220 39 39 8 47 7 63 -10 38 -41 52 -26 181 196
48 83 110 181 138 219 55 77 55 84 0 122 -37 26 -174 64 -223 63 -19 0 -72
-14 -119 -30z m100 -94 c28 -33 -7 -221 -60 -332 l-30 -61 -63 -5 c-34 -2
-134 -20 -222 -40 -238 -53 -217 -57 -234 35 -8 43 -12 81 -8 84 3 3 54 14
114 24 176 31 325 68 342 85 15 15 14 18 -8 36 -13 10 -31 19 -41 19 -9 0
-108 -25 -220 -55 -111 -31 -204 -55 -205 -53 -4 6 -35 151 -32 154 6 6 339
76 467 99 163 28 184 29 200 10z"/>
<path d="M1987 1213 c-14 -13 -5 -24 56 -69 146 -109 277 -137 277 -60 0 28
-94 113 -138 126 -41 11 -185 14 -195 3z"/>
</g>
</svg>
