<?xml version="1.0" standalone="no"?>
<!DOCTYPE svg PUBLIC "-//W3C//DTD SVG 20010904//EN"
 "http://www.w3.org/TR/2001/REC-SVG-20010904/DTD/svg10.dtd">
<svg version="1.0" xmlns="http://www.w3.org/2000/svg"
 width="340.000000pt" height="340.000000pt" viewBox="0 0 340.000000 340.000000"
 preserveAspectRatio="xMidYMid meet">
<metadata>
Created by potrace 1.15, written by Peter Selinger 2001-2017
</metadata>
<g transform="translate(0.000000,340.000000) scale(0.100000,-0.100000)"
fill="#000000" stroke="none">
<path d="M2150 2675 c-165 -38 -500 -92 -805 -131 -243 -31 -296 -35 -403 -29
-102 5 -123 4 -128 -8 -3 -8 4 -59 15 -113 32 -150 42 -257 48 -514 8 -340
-16 -631 -72 -861 -21 -89 -22 -102 -10 -170 21 -123 75 -216 113 -193 25 15
50 72 60 134 7 47 11 55 27 52 90 -15 225 -11 455 12 344 35 606 56 694 56 57
0 76 -4 89 -17 22 -26 52 -106 86 -234 17 -61 37 -122 46 -135 18 -27 61 -41
84 -27 45 28 101 167 136 342 19 96 17 204 -15 756 -33 552 -35 651 -16 725 9
36 28 88 42 116 20 39 24 60 19 83 -13 62 -94 118 -229 160 -84 26 -104 25
-236 -4z m150 -162 c24 -22 34 -43 45 -99 38 -186 71 -765 62 -1114 -6 -227
-16 -325 -42 -387 l-14 -34 -83 86 c-98 101 -74 96 -348 60 -494 -64 -587 -75
-747 -86 -95 -7 -176 -10 -179 -6 -7 7 23 1467 31 1475 2 2 64 12 137 22 73
10 207 30 298 44 140 22 322 45 460 59 19 2 106 5 192 5 l158 2 30 -27z"/>
<path d="M1524 2346 c-3 -9 1 -45 10 -81 20 -79 21 -227 2 -317 -41 -190 -167
-405 -395 -671 -123 -144 -129 -162 -38 -116 67 34 153 105 260 213 105 108
186 220 238 329 17 38 35 67 39 65 8 -3 128 -136 318 -351 85 -97 108 -117
131 -117 51 0 65 29 58 120 -7 87 -20 121 -64 162 -41 39 -171 115 -305 178
-78 36 -118 60 -118 71 0 9 16 63 35 120 42 129 75 254 75 289 0 15 -10 36
-23 48 -55 52 -210 92 -223 58z"/>
</g>
</svg>
