<?xml version="1.0" standalone="no"?>
<!DOCTYPE svg PUBLIC "-//W3C//DTD SVG 20010904//EN"
 "http://www.w3.org/TR/2001/REC-SVG-20010904/DTD/svg10.dtd">
<svg version="1.0" xmlns="http://www.w3.org/2000/svg"
 width="340.000000pt" height="340.000000pt" viewBox="0 0 340.000000 340.000000"
 preserveAspectRatio="xMidYMid meet">
<metadata>
Created by potrace 1.15, written by Peter Selinger 2001-2017
</metadata>
<g transform="translate(0.000000,340.000000) scale(0.100000,-0.100000)"
fill="#000000" stroke="none">
<path d="M1794 2635 c-4 -10 3 -47 16 -85 42 -121 17 -300 -75 -530 -44 -113
-76 -168 -161 -276 -109 -140 -253 -260 -396 -330 -32 -16 -58 -32 -58 -36 0
-4 24 -8 53 -8 64 0 172 45 278 116 146 97 302 280 395 466 19 37 37 68 40 68
3 0 16 -12 27 -27 71 -91 282 -338 353 -413 115 -120 125 -124 293 -117 183 8
453 50 435 67 -13 11 -152 60 -173 60 -9 0 -107 29 -217 65 -165 53 -215 74
-287 119 -101 64 -193 133 -319 243 -79 69 -89 81 -84 105 3 14 37 111 75 214
l71 188 -31 32 c-44 45 -120 84 -178 91 -43 5 -52 3 -57 -12z"/>
<path d="M1124 2498 c-148 -86 -245 -112 -381 -101 -61 4 -83 3 -83 -6 0 -7
17 -41 39 -76 57 -96 66 -167 65 -530 0 -277 -2 -308 -23 -400 -13 -55 -26
-115 -28 -132 -7 -45 25 -130 65 -172 29 -30 34 -33 47 -20 21 21 42 130 55
284 8 97 8 223 -1 505 -7 206 -13 399 -14 429 l0 54 110 27 c61 15 123 33 138
39 16 6 38 11 49 11 18 0 20 -4 14 -41 -4 -23 -27 -92 -53 -155 l-46 -114 52
-109 c58 -120 71 -175 48 -205 -14 -19 -19 -19 -101 -6 -47 7 -89 10 -93 7 -3
-4 25 -40 64 -80 38 -39 82 -91 98 -114 15 -24 33 -43 40 -43 19 0 65 58 88
110 14 31 20 67 20 115 0 82 -13 113 -97 224 -31 41 -56 84 -56 96 0 43 121
174 250 268 l52 39 -29 30 c-29 31 -122 79 -184 96 -33 9 -43 6 -105 -30z"/>
<path d="M1550 1431 c0 -10 14 -48 31 -84 16 -36 35 -95 41 -132 12 -73 7 -85
-39 -85 -31 0 -376 -60 -383 -66 -11 -12 44 -43 87 -50 25 -4 115 -4 200 -2
l153 6 0 -185 c0 -138 -3 -185 -12 -188 -34 -12 -680 -87 -796 -92 -88 -4
-138 -11 -150 -20 -16 -12 -15 -15 11 -37 32 -26 147 -76 176 -76 10 0 74 13
142 29 276 65 579 99 979 108 172 4 291 1 365 -7 204 -23 266 -23 305 -3 67
35 47 104 -43 147 -114 56 -239 57 -599 5 -114 -16 -216 -29 -227 -29 -20 0
-21 5 -21 180 0 99 2 180 4 180 20 0 282 53 323 65 63 19 83 37 83 75 0 51
-75 62 -255 35 -55 -8 -108 -18 -117 -21 -15 -4 -18 1 -18 27 0 18 6 60 12 92
l13 60 -35 29 c-42 34 -115 58 -182 58 -40 0 -48 -3 -48 -19z"/>
</g>
</svg>
