<?xml version="1.0" standalone="no"?>
<!DOCTYPE svg PUBLIC "-//W3C//DTD SVG 20010904//EN"
 "http://www.w3.org/TR/2001/REC-SVG-20010904/DTD/svg10.dtd">
<svg version="1.0" xmlns="http://www.w3.org/2000/svg"
 width="340.000000pt" height="340.000000pt" viewBox="0 0 340.000000 340.000000"
 preserveAspectRatio="xMidYMid meet">
<metadata>
Created by potrace 1.15, written by Peter Selinger 2001-2017
</metadata>
<g transform="translate(0.000000,340.000000) scale(0.100000,-0.100000)"
fill="#000000" stroke="none">
<path d="M1826 2958 c-3 -13 -6 -45 -6 -73 -1 -27 -7 -67 -14 -87 -20 -55
-113 -190 -215 -310 -50 -60 -91 -110 -91 -113 0 -12 54 -4 81 12 15 9 30 15
33 12 2 -2 9 -39 15 -82 14 -97 14 -245 1 -402 -15 -169 -15 -362 -1 -412 6
-23 23 -51 38 -63 24 -19 27 -19 44 -4 10 9 21 32 25 50 7 37 11 40 86 49 49
6 57 5 62 -11 10 -35 26 -149 26 -191 0 -36 -4 -43 -22 -48 -59 -14 -434 -77
-594 -100 -223 -32 -224 -32 -224 -50 0 -17 63 -66 109 -84 25 -11 48 -8 173
22 153 38 445 102 516 113 l43 7 -6 -284 c-7 -299 4 -450 40 -518 30 -59 57
-51 74 22 32 148 41 258 41 528 l0 276 155 7 c85 4 268 4 407 0 l253 -6 23 25
c36 38 26 67 -30 95 -77 39 -194 54 -318 42 -108 -11 -292 -40 -414 -66 -38
-8 -71 -12 -74 -9 -3 2 0 37 7 77 12 70 11 73 -11 90 -13 9 -44 27 -70 39 -27
12 -48 26 -48 29 0 4 37 11 83 15 161 14 329 42 345 59 15 14 14 18 -5 44 -21
28 -21 30 -3 69 9 22 38 63 64 92 25 28 46 57 46 65 0 39 -134 98 -225 99 -32
0 -87 -13 -155 -37 -123 -43 -306 -96 -332 -96 -16 0 -18 10 -18 119 0 105 2
120 18 125 30 9 384 74 491 90 97 15 131 27 131 47 0 5 -13 23 -29 41 -24 27
-27 37 -19 53 16 30 89 104 126 126 68 43 18 107 -119 151 l-69 22 -183 -62
c-152 -51 -349 -102 -397 -102 -6 0 15 22 47 48 32 27 114 100 183 163 69 63
145 130 169 150 38 30 43 39 38 61 -9 33 -66 62 -165 83 -103 21 -128 20 -136
-7z m367 -503 c9 -22 -10 -124 -28 -151 -8 -13 -26 -31 -39 -39 -25 -16 -325
-95 -363 -95 -23 0 -23 2 -23 115 l0 115 33 1 c17 0 104 15 192 34 184 38 221
41 228 20z m1 -610 c8 -21 -10 -108 -29 -145 -9 -17 -26 -35 -38 -40 -19 -9
-351 -70 -377 -70 -16 0 -13 200 3 204 6 2 62 11 122 21 61 9 142 23 180 30
97 18 132 18 139 0z"/>
<path d="M820 2644 c0 -16 8 -43 18 -61 70 -128 72 -131 86 -250 8 -65 17
-161 20 -214 l5 -97 -77 -21 c-42 -11 -126 -32 -187 -46 -160 -38 -170 -58
-42 -85 63 -13 102 -9 220 22 43 11 79 19 81 17 2 -2 6 -122 9 -267 l6 -263
-47 -30 c-66 -42 -211 -112 -317 -153 -104 -40 -126 -62 -101 -101 21 -32 160
-99 189 -91 40 11 216 152 545 439 99 86 191 170 202 185 20 24 20 27 5 30
-18 4 -79 -31 -243 -140 -56 -37 -106 -68 -110 -68 -7 0 -5 431 3 466 3 16 30
29 135 63 71 24 142 52 156 63 37 30 29 60 -23 77 -39 14 -47 13 -145 -17 -57
-18 -106 -32 -110 -32 -11 0 -10 290 2 388 5 45 7 89 3 98 -8 22 -187 106
-239 112 -43 4 -44 4 -44 -24z"/>
</g>
</svg>
