<?xml version="1.0" standalone="no"?>
<!DOCTYPE svg PUBLIC "-//W3C//DTD SVG 20010904//EN"
 "http://www.w3.org/TR/2001/REC-SVG-20010904/DTD/svg10.dtd">
<svg version="1.0" xmlns="http://www.w3.org/2000/svg"
 width="340.000000pt" height="340.000000pt" viewBox="0 0 340.000000 340.000000"
 preserveAspectRatio="xMidYMid meet">
<metadata>
Created by potrace 1.15, written by Peter Selinger 2001-2017
</metadata>
<g transform="translate(0.000000,340.000000) scale(0.100000,-0.100000)"
fill="#000000" stroke="none">
<path d="M1956 2825 c-10 -10 -16 -33 -16 -62 0 -25 -7 -73 -15 -107 -21 -83
-150 -343 -178 -358 -13 -7 -69 -12 -140 -12 -90 -1 -120 -4 -126 -15 -6 -10
7 -44 39 -105 58 -109 100 -226 130 -361 27 -125 38 -153 62 -166 15 -8 24 -7
39 7 10 9 19 23 19 29 0 11 128 51 136 43 2 -2 -11 -37 -29 -78 -34 -77 -100
-181 -134 -212 -22 -21 -112 -35 -289 -47 -130 -8 -154 -13 -154 -31 0 -17 76
-49 153 -63 72 -14 84 -13 200 9 136 25 455 74 486 74 19 0 20 -10 23 -452 4
-438 5 -455 26 -521 13 -37 27 -67 32 -67 41 0 81 417 93 960 l2 105 210 -1
c116 -1 236 -7 268 -13 48 -9 64 -8 87 4 29 15 42 37 35 58 -8 19 -68 57 -137
84 -55 23 -72 25 -148 20 -47 -3 -132 -17 -190 -31 -58 -14 -110 -26 -116 -26
-7 0 -9 26 -6 80 l5 80 -64 29 c-140 63 -160 53 -129 -65 27 -105 27 -142 -2
-148 -33 -7 -211 -26 -242 -26 -26 0 -26 1 25 68 29 37 72 108 96 158 l44 91
150 18 151 17 14 -21 c42 -59 92 6 154 202 68 214 69 215 131 282 33 34 59 69
59 78 0 21 -80 92 -140 122 -85 43 -129 43 -250 -3 -119 -44 -206 -71 -330
-102 -47 -11 -93 -23 -102 -26 -10 -3 -18 -1 -18 5 0 6 83 96 185 200 102 103
185 195 185 204 0 20 -50 50 -125 75 -97 31 -140 36 -159 17z m464 -496 c14
-25 8 -76 -26 -252 -37 -188 -19 -169 -180 -200 -76 -14 -139 -25 -140 -24 -1
1 5 36 14 78 l16 77 55 16 c63 17 119 49 128 71 3 9 -3 25 -13 36 -17 19 -26
20 -89 14 l-70 -6 3 80 3 80 67 19 c94 28 100 30 164 31 49 1 59 -2 68 -20z
m-460 -149 c0 -68 -3 -82 -17 -86 -10 -4 -47 -19 -82 -35 -78 -36 -72 -48 27
-56 l72 -6 0 -33 c0 -42 -19 -135 -31 -150 -9 -11 -156 -41 -163 -33 -6 6
-106 384 -106 400 0 11 42 23 148 46 81 17 148 32 150 32 1 1 2 -35 2 -79z"/>
<path d="M924 2686 c-3 -7 6 -41 21 -75 54 -129 85 -321 85 -526 l0 -125 -27
-6 c-223 -53 -376 -101 -370 -117 12 -38 206 -59 303 -33 102 27 94 42 94
-177 l0 -194 -87 -41 c-173 -82 -314 -122 -427 -122 -30 0 -57 -4 -60 -8 -12
-20 17 -82 51 -112 44 -39 128 -80 164 -80 16 0 53 20 95 51 115 86 291 202
444 292 192 114 216 131 223 156 3 11 2 23 -1 25 -6 3 -179 -58 -255 -89 -16
-7 -17 4 -15 171 l3 177 96 42 c165 71 195 109 119 148 -40 21 -97 17 -168
-10 -23 -9 -45 -13 -49 -9 -11 10 16 321 38 432 11 57 17 114 14 127 -7 26
-83 77 -154 102 -55 19 -130 20 -137 1z"/>
</g>
</svg>
