<?xml version="1.0" standalone="no"?>
<!DOCTYPE svg PUBLIC "-//W3C//DTD SVG 20010904//EN"
 "http://www.w3.org/TR/2001/REC-SVG-20010904/DTD/svg10.dtd">
<svg version="1.0" xmlns="http://www.w3.org/2000/svg"
 width="340.000000pt" height="340.000000pt" viewBox="0 0 340.000000 340.000000"
 preserveAspectRatio="xMidYMid meet">
<metadata>
Created by potrace 1.15, written by Peter Selinger 2001-2017
</metadata>
<g transform="translate(0.000000,340.000000) scale(0.100000,-0.100000)"
fill="#000000" stroke="none">
<path d="M1845 2700 c-10 -16 37 -74 166 -202 129 -130 149 -139 196 -92 23
23 25 31 20 77 -9 91 -33 135 -89 163 -95 48 -276 81 -293 54z"/>
<path d="M826 2581 c-3 -4 4 -26 15 -47 31 -61 57 -151 73 -254 17 -107 39
-427 31 -440 -9 -14 -154 -58 -293 -90 -68 -15 -126 -30 -129 -34 -11 -11 18
-35 65 -53 68 -26 189 -24 267 5 33 12 65 23 70 25 6 1 11 -95 13 -271 l2
-273 -74 -34 c-113 -52 -243 -93 -342 -107 l-89 -13 2 -34 c1 -21 11 -44 30
-63 28 -31 138 -88 168 -88 9 0 57 29 107 65 112 81 300 198 475 296 73 41
131 79 130 84 -7 20 -49 15 -149 -19 -57 -19 -111 -37 -120 -41 -17 -7 -18 10
-18 258 l0 265 48 16 c26 8 82 24 125 35 87 22 127 43 127 69 0 27 -13 40 -53
57 -48 20 -82 19 -152 -5 -32 -11 -63 -20 -70 -20 -12 0 -11 48 6 275 6 77 17
172 25 210 8 39 14 74 14 78 0 20 -100 112 -145 133 -50 24 -148 33 -159 15z"/>
<path d="M2340 2261 c-74 -16 -209 -47 -300 -70 -144 -35 -333 -73 -495 -99
-40 -6 -50 -11 -50 -27 0 -54 221 -64 487 -22 179 29 401 74 511 105 103 30
142 76 97 117 -32 29 -102 27 -250 -4z"/>
<path d="M2216 1978 c-4 -40 -13 -99 -22 -133 -17 -68 -134 -313 -161 -337
-25 -22 -605 -117 -715 -118 -44 0 -48 -2 -48 -25 0 -35 33 -53 120 -66 70
-10 83 -9 200 20 375 91 725 131 1152 131 193 0 229 2 242 16 19 19 19 18 1
54 -10 19 -37 40 -82 62 -65 32 -72 33 -183 33 -102 0 -130 -5 -245 -37 -142
-40 -334 -83 -341 -76 -9 10 138 214 244 336 69 80 69 82 10 139 -36 35 -111
72 -144 73 -19 0 -22 -7 -28 -72z"/>
<path d="M1647 1863 c-13 -13 -7 -44 23 -110 38 -82 87 -161 109 -172 32 -17
72 -1 87 36 21 48 9 129 -23 157 -70 62 -176 110 -196 89z"/>
<path d="M2210 1164 c-84 -32 -257 -76 -413 -105 l-124 -22 -72 26 c-84 31
-136 35 -145 10 -4 -10 8 -40 30 -77 69 -116 115 -258 135 -417 12 -98 43
-173 76 -177 26 -4 53 31 53 70 0 17 6 29 18 32 26 8 349 34 517 42 83 4 158
11 168 16 29 15 21 61 -19 114 l-37 48 28 50 c33 60 96 140 141 178 47 41 49
63 6 110 -41 46 -98 77 -196 107 -84 26 -86 26 -166 -5z m84 -140 c14 -36 4
-111 -29 -212 -19 -59 -40 -115 -47 -124 -9 -11 -71 -25 -218 -48 -113 -17
-217 -34 -231 -37 l-26 -5 -33 172 c-18 97 -29 175 -24 180 9 7 200 45 374 74
123 20 226 20 234 0z"/>
</g>
</svg>
