<?xml version="1.0" standalone="no"?>
<!DOCTYPE svg PUBLIC "-//W3C//DTD SVG 20010904//EN"
 "http://www.w3.org/TR/2001/REC-SVG-20010904/DTD/svg10.dtd">
<svg version="1.0" xmlns="http://www.w3.org/2000/svg"
 width="340.000000pt" height="340.000000pt" viewBox="0 0 340.000000 340.000000"
 preserveAspectRatio="xMidYMid meet">
<metadata>
Created by potrace 1.15, written by Peter Selinger 2001-2017
</metadata>
<g transform="translate(0.000000,340.000000) scale(0.100000,-0.100000)"
fill="#000000" stroke="none">
<path d="M1494 2817 c-3 -9 2 -31 11 -49 44 -83 53 -107 65 -158 15 -70 25
-361 16 -461 l-7 -75 -322 -52 c-177 -29 -327 -52 -334 -52 -6 0 -19 24 -27
54 -18 62 -39 85 -60 67 -8 -7 -31 -53 -51 -104 -20 -51 -63 -142 -96 -203
-53 -99 -59 -118 -59 -170 0 -66 30 -139 61 -149 64 -21 181 175 210 353 8 50
17 73 28 76 26 8 477 82 731 120 488 73 844 100 885 66 33 -27 2 -111 -85
-224 -27 -36 -50 -68 -50 -71 0 -12 31 -3 93 25 97 44 227 79 336 91 113 12
130 23 111 69 -26 63 -244 235 -330 261 -33 10 -49 9 -92 -5 -112 -36 -467
-95 -732 -122 l-69 -7 7 129 c8 128 13 188 37 401 15 135 12 142 -90 174 -96
29 -179 36 -187 16z"/>
<path d="M2137 2663 c-4 -3 -7 -25 -7 -48 0 -57 -39 -114 -161 -240 -141 -145
-132 -161 40 -68 58 31 169 89 245 128 77 40 142 77 144 84 7 20 -58 70 -143
111 -80 39 -105 46 -118 33z"/>
<path d="M1093 2463 c-37 -14 5 -96 101 -200 49 -53 63 -63 92 -63 25 0 38 7
50 26 15 22 15 32 4 82 -7 31 -16 65 -21 74 -12 21 -53 44 -128 69 -57 19 -76
21 -98 12z"/>
<path d="M1870 1814 c-204 -79 -508 -128 -648 -105 -93 15 -113 0 -72 -52 33
-42 95 -175 125 -267 39 -118 61 -160 86 -160 15 0 25 11 36 40 13 32 22 41
48 46 18 3 41 4 51 2 27 -5 53 -103 61 -224 l6 -102 -89 -20 c-49 -11 -125
-25 -169 -32 -125 -18 -128 -19 -116 -34 6 -7 39 -21 74 -31 49 -14 81 -16
152 -11 50 4 101 8 115 9 l25 2 3 -137 3 -136 -28 -6 c-40 -8 -267 -33 -408
-46 -196 -17 -364 -42 -376 -56 -14 -17 19 -47 93 -83 64 -33 26 -36 333 27
406 84 782 101 1140 51 83 -11 180 -23 216 -26 61 -5 67 -4 83 18 48 70 -13
127 -204 189 -86 28 -93 29 -182 19 -51 -6 -169 -23 -263 -39 -93 -15 -196
-31 -227 -35 l-58 -6 0 140 0 141 24 0 c43 0 260 40 327 60 75 22 94 39 85 75
-15 60 -95 67 -276 25 -77 -18 -143 -30 -146 -27 -3 2 4 41 15 85 12 44 21 90
21 102 0 11 -20 43 -45 69 -25 26 -45 50 -45 53 0 3 70 9 155 13 210 9 208 8
220 78 11 63 28 84 138 174 37 30 67 62 67 71 0 24 -84 99 -149 132 -83 41
-122 44 -201 14z m48 -166 c-5 -99 -47 -193 -92 -207 -45 -15 -252 -49 -343
-57 l-78 -6 -24 103 c-13 57 -25 114 -28 125 -6 26 1 28 274 73 192 33 223 37
267 40 l28 1 -4 -72z"/>
</g>
</svg>
