<?xml version="1.0" standalone="no"?>
<!DOCTYPE svg PUBLIC "-//W3C//DTD SVG 20010904//EN"
 "http://www.w3.org/TR/2001/REC-SVG-20010904/DTD/svg10.dtd">
<svg version="1.0" xmlns="http://www.w3.org/2000/svg"
 width="340.000000pt" height="340.000000pt" viewBox="0 0 340.000000 340.000000"
 preserveAspectRatio="xMidYMid meet">
<metadata>
Created by potrace 1.15, written by Peter Selinger 2001-2017
</metadata>
<g transform="translate(0.000000,340.000000) scale(0.100000,-0.100000)"
fill="#000000" stroke="none">
<path d="M1896 2843 c-3 -10 -14 -61 -24 -113 -55 -269 -209 -531 -474 -806
-134 -139 -147 -165 -67 -134 85 32 157 81 225 153 35 37 65 67 66 67 6 0 -2
-368 -12 -595 -10 -228 -36 -540 -64 -749 -14 -102 -13 -113 5 -171 23 -75 58
-129 86 -133 29 -4 48 50 69 194 11 85 15 155 11 242 -4 83 -2 122 5 122 6 0
26 -9 45 -21 l34 -21 172 26 c275 42 346 47 637 45 151 0 283 2 293 6 11 5 17
18 17 42 0 48 -41 87 -115 108 -57 17 -58 17 -284 -23 -124 -22 -228 -39 -229
-37 -4 4 17 287 21 291 1 1 56 14 122 29 128 29 182 50 199 77 31 50 -79 71
-224 43 -50 -10 -93 -15 -96 -12 -3 2 -2 57 2 121 6 108 9 117 28 120 12 2 66
11 120 20 128 21 189 47 184 78 -7 51 -96 61 -234 27 -46 -12 -87 -20 -89 -17
-2 2 2 31 10 63 22 94 20 110 -22 144 -20 17 -35 32 -32 34 2 2 54 12 114 22
125 19 271 55 328 79 31 12 38 20 35 38 -7 48 -131 62 -259 29 -110 -29 -366
-77 -514 -96 -139 -18 -160 -24 -160 -46 0 -31 56 -43 198 -42 133 1 139 0
146 -21 13 -34 23 -162 16 -200 -7 -33 -10 -36 -54 -42 -59 -8 -242 -52 -249
-59 -3 -3 4 -16 16 -28 21 -20 32 -22 152 -22 l130 0 0 -120 0 -121 -138 -22
c-220 -36 -241 -47 -150 -78 55 -19 185 -25 246 -12 l32 8 0 -154 0 -154 -32
-6 c-47 -8 -260 -33 -346 -41 -62 -5 -73 -4 -79 11 -3 9 -1 150 6 313 7 163
15 393 17 511 5 201 4 217 -14 252 l-20 38 47 62 c59 78 150 214 225 335 31
50 74 114 96 142 22 28 40 57 40 64 0 24 -38 65 -105 112 -66 48 -100 56 -109
28z"/>
<path d="M895 2714 c-14 -15 -14 -18 0 -38 32 -45 47 -80 60 -144 20 -101 28
-249 20 -378 -8 -137 12 -121 -214 -166 -86 -17 -162 -36 -170 -44 -21 -20 1
-41 62 -59 62 -19 128 -19 232 0 43 8 81 13 82 11 2 -2 1 -126 -3 -276 l-7
-273 -76 -34 c-142 -66 -249 -103 -333 -115 -75 -12 -83 -15 -86 -36 -7 -45
112 -172 161 -172 8 0 42 22 74 49 73 61 274 195 506 337 98 60 192 122 210
137 l32 28 -29 -6 c-15 -3 -85 -31 -155 -61 -69 -31 -134 -58 -143 -61 -17 -5
-18 8 -18 173 0 99 3 216 6 261 8 94 0 88 142 123 112 28 152 48 152 76 0 12
-12 32 -26 43 -35 28 -130 28 -207 2 l-57 -20 0 40 c0 82 22 287 41 383 11 55
18 110 14 123 -6 26 -68 65 -150 93 -70 24 -98 25 -120 4z"/>
<path d="M2190 2590 c-20 -12 25 -82 111 -174 111 -119 158 -133 180 -54 11
42 6 91 -13 133 -25 54 -230 125 -278 95z"/>
</g>
</svg>
