<?xml version="1.0" standalone="no"?>
<!DOCTYPE svg PUBLIC "-//W3C//DTD SVG 20010904//EN"
 "http://www.w3.org/TR/2001/REC-SVG-20010904/DTD/svg10.dtd">
<svg version="1.0" xmlns="http://www.w3.org/2000/svg"
 width="340.000000pt" height="340.000000pt" viewBox="0 0 340.000000 340.000000"
 preserveAspectRatio="xMidYMid meet">
<metadata>
Created by potrace 1.15, written by Peter Selinger 2001-2017
</metadata>
<g transform="translate(0.000000,340.000000) scale(0.100000,-0.100000)"
fill="#000000" stroke="none">
<path d="M1220 2731 c0 -69 -6 -109 -26 -173 -45 -140 -68 -185 -101 -192 -63
-13 -171 -26 -225 -26 -52 0 -58 -2 -58 -21 0 -13 11 -25 34 -34 43 -18 73
-20 157 -10 39 4 69 3 72 -2 3 -5 -16 -47 -44 -94 -27 -46 -61 -106 -77 -134
-15 -27 -59 -82 -98 -120 l-71 -70 13 -43 c13 -47 39 -82 60 -82 6 0 45 16 85
35 66 31 207 73 297 89 l32 6 0 -118 c0 -64 -4 -122 -8 -128 -7 -12 -477 -88
-613 -100 -77 -7 -119 -24 -119 -49 0 -29 134 -105 186 -105 13 0 99 24 191
54 217 70 345 107 352 101 2 -3 -3 -52 -12 -109 -31 -192 -17 -271 52 -289 28
-7 38 -5 55 13 20 19 21 32 22 222 l1 201 139 33 c180 42 218 55 222 77 5 25
-65 22 -213 -8 -66 -14 -128 -25 -137 -25 -16 0 -18 12 -18 119 l0 119 28 6
c15 3 79 12 142 21 188 25 180 23 180 50 0 26 -39 62 -78 72 -25 6 -32 4 -160
-41 -41 -14 -80 -26 -88 -26 -19 0 -18 62 1 126 8 27 15 54 15 60 0 27 -144
64 -165 42 -4 -3 1 -28 10 -55 20 -58 32 -178 18 -186 -13 -8 -295 -59 -300
-54 -2 3 47 94 109 203 l113 199 90 13 c149 21 355 62 396 79 46 18 49 34 13
62 -45 35 -80 35 -234 -2 -80 -19 -160 -38 -178 -41 l-32 -6 16 33 c9 17 40
66 69 107 29 42 65 100 80 130 l28 54 -39 34 c-53 46 -106 72 -149 72 l-35 0
0 -89z"/>
<path d="M2352 2613 c-5 -10 -12 -39 -16 -65 -4 -26 -16 -58 -27 -72 -48 -61
-229 -176 -277 -176 -10 0 -54 18 -96 40 -104 54 -111 47 -78 -62 33 -112 41
-302 18 -438 -40 -228 -124 -395 -270 -532 -27 -26 -47 -51 -43 -54 15 -15 86
18 149 70 83 69 160 160 197 234 32 63 75 194 86 260 6 40 9 43 33 38 56 -11
159 -9 205 5 45 13 50 12 62 -5 25 -34 31 -132 26 -451 -3 -222 6 -277 46
-283 30 -4 58 43 72 122 6 33 12 180 13 326 l3 265 -38 24 c-25 17 -34 27 -25
32 7 3 106 19 221 34 114 15 215 34 225 41 16 12 16 15 2 41 -37 67 -95 68
-344 4 -165 -43 -292 -70 -450 -96 l-39 -6 8 143 c4 79 11 150 15 159 5 8 28
21 52 28 24 7 106 38 183 68 77 31 191 73 253 93 63 21 118 42 124 48 19 19
-2 49 -64 93 -66 46 -159 88 -195 89 -12 0 -26 -8 -31 -17z"/>
<path d="M1624 1196 c-4 -10 2 -33 14 -55 12 -21 24 -63 28 -93 l6 -55 -43 -7
c-24 -4 -124 -18 -222 -31 -98 -13 -181 -26 -185 -29 -12 -13 17 -27 89 -42
88 -19 185 -19 293 0 l78 13 -7 -141 c-4 -77 -9 -143 -10 -144 -6 -6 -290 -41
-590 -72 -159 -17 -293 -34 -298 -39 -18 -18 2 -39 60 -61 94 -36 174 -37 363
-2 330 62 532 79 995 84 194 2 234 -1 340 -21 126 -24 192 -22 220 5 23 23 18
40 -22 85 -79 87 -174 114 -332 93 -108 -14 -391 -47 -513 -59 l-68 -7 0 145
0 145 78 11 c42 6 131 18 197 25 132 16 175 30 175 57 0 23 -43 56 -93 71 -45
14 -147 -3 -283 -46 -81 -26 -85 -24 -59 37 8 20 15 50 15 67 0 27 -6 34 -45
51 -24 11 -74 22 -110 26 -55 5 -65 3 -71 -11z"/>
</g>
</svg>
