<?xml version="1.0" standalone="no"?>
<!DOCTYPE svg PUBLIC "-//W3C//DTD SVG 20010904//EN"
 "http://www.w3.org/TR/2001/REC-SVG-20010904/DTD/svg10.dtd">
<svg version="1.0" xmlns="http://www.w3.org/2000/svg"
 width="340.000000pt" height="340.000000pt" viewBox="0 0 340.000000 340.000000"
 preserveAspectRatio="xMidYMid meet">
<metadata>
Created by potrace 1.15, written by Peter Selinger 2001-2017
</metadata>
<g transform="translate(0.000000,340.000000) scale(0.100000,-0.100000)"
fill="#000000" stroke="none">
<path d="M1805 2839 c-19 -20 -18 -21 14 -80 47 -87 70 -209 78 -420 l6 -177
-29 -6 c-61 -12 -285 -46 -308 -46 -14 0 -45 13 -68 29 -57 39 -91 47 -107 27
-11 -13 -10 -35 4 -124 15 -89 17 -145 12 -337 -6 -245 -21 -361 -63 -510 -73
-257 -198 -471 -402 -688 -50 -53 -96 -106 -102 -117 -47 -89 244 126 375 276
235 270 310 523 335 1127 6 132 11 241 12 243 2 1 71 14 153 28 149 25 150 25
167 5 21 -25 30 -84 26 -174 l-3 -69 -137 -44 c-76 -24 -138 -48 -138 -53 0
-18 140 -14 225 6 l55 12 0 -46 c0 -73 34 -131 95 -161 73 -35 247 -41 366
-11 103 26 189 68 208 103 15 27 15 26 -27 178 -12 40 -35 29 -63 -30 -56
-114 -146 -163 -304 -164 -103 -1 -135 14 -154 72 -24 75 -15 86 101 122 121
38 218 84 218 105 0 16 -67 38 -120 39 -22 0 -66 -14 -114 -37 -43 -21 -80
-36 -83 -33 -3 2 0 28 6 56 6 28 11 66 11 84 0 30 -5 36 -42 54 l-43 20 55 11
c123 24 242 42 357 53 182 17 204 -1 143 -115 -31 -59 -38 -87 -19 -87 5 0 40
18 77 40 37 23 104 52 148 66 131 40 143 74 50 144 -115 87 -223 117 -294 81
-57 -29 -163 -57 -324 -84 l-138 -24 0 123 c0 67 2 129 5 137 5 10 18 13 53 9
97 -9 367 44 429 85 35 23 27 55 -17 70 -60 22 -212 -5 -381 -67 l-79 -29 0
24 c0 13 11 60 26 105 14 44 22 90 19 100 -10 33 -70 70 -150 96 -92 29 -97
29 -120 3z"/>
<path d="M824 2577 c-3 -9 3 -28 14 -42 11 -14 28 -58 37 -98 17 -75 34 -383
27 -494 l-4 -62 -86 -20 c-48 -11 -126 -27 -174 -37 -54 -10 -93 -23 -104 -35
-15 -16 -14 -19 18 -35 49 -26 244 -18 324 13 12 4 14 -29 14 -228 l0 -234
-151 -63 c-137 -56 -235 -90 -311 -106 -53 -12 -26 -71 62 -137 71 -54 99 -52
175 9 95 76 266 197 430 303 82 54 164 109 180 123 27 23 28 25 9 26 -37 0
-128 -31 -192 -67 l-62 -35 2 222 3 221 100 33 c144 48 157 55 153 85 -2 17
-13 31 -33 40 -26 13 -40 12 -124 -7 -52 -12 -96 -20 -98 -18 -10 9 43 428 63
504 14 49 -115 133 -228 149 -29 4 -39 2 -44 -10z"/>
<path d="M2106 1414 c-3 -9 3 -31 14 -50 31 -50 40 -174 33 -451 l-6 -242 -71
-11 c-39 -6 -80 -13 -91 -15 -20 -4 -20 -1 -13 323 4 200 3 334 -3 344 -12 23
-92 63 -142 72 -51 9 -57 -11 -23 -77 16 -33 31 -88 41 -152 14 -95 39 -495
31 -503 -8 -7 -197 -33 -371 -50 -171 -16 -180 -18 -183 -39 -4 -28 29 -50 99
-64 47 -9 71 -7 179 15 384 78 838 105 1184 70 153 -16 160 -16 173 2 42 57
-22 121 -155 155 -62 15 -219 3 -420 -35 l-123 -22 6 185 c7 209 21 380 35
417 26 66 4 95 -90 125 -75 23 -96 24 -104 3z"/>
<path d="M2536 1288 c-9 -12 -16 -36 -16 -52 0 -48 -37 -111 -116 -197 -93
-101 -98 -128 -18 -94 40 17 304 196 324 220 20 24 -2 59 -65 107 -57 43 -87
48 -109 16z"/>
<path d="M1532 1092 c5 -48 85 -233 107 -246 37 -23 82 42 89 129 3 40 -1 57
-20 85 -27 41 -98 80 -146 80 l-35 0 5 -48z"/>
</g>
</svg>
