<?xml version="1.0" standalone="no"?>
<!DOCTYPE svg PUBLIC "-//W3C//DTD SVG 20010904//EN"
 "http://www.w3.org/TR/2001/REC-SVG-20010904/DTD/svg10.dtd">
<svg version="1.0" xmlns="http://www.w3.org/2000/svg"
 width="340.000000pt" height="340.000000pt" viewBox="0 0 340.000000 340.000000"
 preserveAspectRatio="xMidYMid meet">
<metadata>
Created by potrace 1.15, written by Peter Selinger 2001-2017
</metadata>
<g transform="translate(0.000000,340.000000) scale(0.100000,-0.100000)"
fill="#000000" stroke="none">
<path d="M1617 3003 c-14 -13 -6 -56 18 -97 14 -24 32 -66 40 -94 18 -61 45
-232 45 -288 l0 -42 -65 -11 c-109 -19 -271 -40 -458 -60 -99 -10 -183 -23
-189 -29 -36 -36 137 -101 234 -88 24 4 138 20 254 36 116 17 214 30 219 30 9
0 3 -256 -7 -265 -9 -10 -182 -41 -328 -60 -127 -17 -166 -36 -114 -55 16 -7
63 -18 104 -27 73 -14 84 -14 255 11 245 36 481 82 576 112 67 21 80 29 85 51
10 38 -17 53 -93 53 -52 0 -247 -38 -335 -66 -14 -4 -16 1 -13 28 3 18 7 81
11 139 l6 107 106 16 c59 8 159 22 222 31 137 19 274 49 330 71 30 12 40 22
40 39 0 37 -51 72 -117 81 -64 8 -89 3 -273 -49 -146 -41 -297 -73 -305 -66
-9 9 15 210 32 274 27 98 24 125 -16 152 -65 44 -242 89 -264 66z"/>
<path d="M2225 1884 c-80 -35 -265 -76 -547 -124 -346 -57 -341 -57 -418 -22
-79 36 -132 45 -156 28 -16 -12 -15 -16 9 -57 102 -175 66 -565 -76 -832 -94
-177 -229 -322 -411 -445 -55 -37 -102 -73 -104 -79 -10 -34 142 4 263 64 94
47 149 88 231 175 115 121 193 271 253 488 l27 95 109 17 c188 30 464 66 666
88 299 31 338 38 345 65 6 25 -8 58 -39 92 -18 20 -19 26 -7 48 25 47 117 139
179 180 75 50 78 70 19 118 -65 53 -189 116 -239 122 -33 3 -59 -2 -104 -21z
m46 -125 c15 -24 10 -124 -10 -180 -48 -141 -71 -160 -244 -204 -134 -34 -197
-41 -197 -24 0 25 39 178 55 216 21 49 6 85 -48 117 l-40 24 39 11 c40 11 205
46 259 54 59 10 177 0 186 -14z m-569 -109 c14 -28 18 -61 18 -160 0 -69 -3
-134 -6 -146 -5 -19 -23 -24 -172 -49 -92 -15 -180 -29 -196 -33 l-29 -5 6
178 c5 124 11 183 19 192 13 12 285 63 323 60 12 -1 27 -16 37 -37z"/>
</g>
</svg>
