<?xml version="1.0" standalone="no"?>
<!DOCTYPE svg PUBLIC "-//W3C//DTD SVG 20010904//EN"
 "http://www.w3.org/TR/2001/REC-SVG-20010904/DTD/svg10.dtd">
<svg version="1.0" xmlns="http://www.w3.org/2000/svg"
 width="340.000000pt" height="340.000000pt" viewBox="0 0 340.000000 340.000000"
 preserveAspectRatio="xMidYMid meet">
<metadata>
Created by potrace 1.15, written by Peter Selinger 2001-2017
</metadata>
<g transform="translate(0.000000,340.000000) scale(0.100000,-0.100000)"
fill="#000000" stroke="none">
<path d="M1278 2825 c-4 -62 -12 -89 -50 -167 -76 -157 -242 -357 -410 -494
-85 -70 -89 -89 -15 -68 142 42 328 187 436 342 17 24 28 31 40 26 9 -4 47
-13 85 -20 65 -11 77 -10 225 22 189 40 292 57 521 83 184 22 234 32 265 55
18 13 18 15 3 38 -21 32 -73 57 -146 70 -63 11 -45 15 -372 -71 -171 -44 -540
-124 -546 -118 -1 1 49 62 112 135 63 73 114 137 114 142 0 4 -19 22 -42 39
-48 35 -123 61 -178 61 l-37 0 -5 -75z"/>
<path d="M1867 2300 c-164 -63 -455 -106 -592 -88 -115 15 -120 12 -91 -54 53
-120 85 -253 106 -438 20 -177 56 -226 128 -177 40 28 161 51 329 63 l92 7 20
-44 c10 -24 32 -59 48 -77 26 -31 30 -33 56 -21 61 28 122 173 171 409 18 90
37 147 66 205 22 44 40 85 40 91 0 37 -183 142 -259 150 -23 2 -65 -8 -114
-26z m90 -137 c19 -47 14 -160 -17 -338 -26 -153 -28 -158 -48 -150 -41 17
-113 16 -207 -4 -133 -28 -256 -41 -260 -27 -7 19 -23 201 -19 207 2 3 68 9
146 12 149 5 227 22 269 56 21 17 22 21 9 36 -13 15 -27 17 -115 12 -55 -3
-149 -17 -209 -31 -60 -14 -111 -25 -112 -23 -3 4 -24 210 -21 213 9 10 447
70 525 73 41 1 44 -1 59 -36z"/>
<path d="M1300 1458 c-1 -75 -80 -208 -202 -344 -145 -161 -287 -270 -468
-359 -133 -66 -162 -95 -96 -95 83 0 365 129 508 232 48 35 123 96 167 136 70
63 84 72 118 72 21 0 61 -11 88 -24 52 -24 176 -119 234 -179 l34 -36 -29 -26
c-123 -112 -388 -231 -670 -300 -135 -33 -149 -40 -111 -54 40 -16 205 -13
322 4 215 32 384 103 542 227 l63 49 132 -106 c73 -59 187 -143 253 -187 l120
-80 125 6 c189 8 519 54 563 77 19 11 19 13 4 24 -10 7 -82 25 -160 39 -274
52 -535 127 -737 213 -112 48 -220 104 -220 114 0 3 19 35 43 71 23 36 62 101
86 146 25 47 64 101 92 127 52 50 53 57 12 113 -29 39 -87 70 -148 79 -38 5
-55 0 -117 -30 -84 -40 -172 -63 -273 -72 -38 -3 -83 -8 -98 -10 l-29 -5 26
31 c14 17 26 37 26 46 0 48 -100 123 -163 123 -32 0 -37 -3 -37 -22z m565
-258 c-26 -77 -110 -260 -120 -260 -3 0 -38 26 -78 59 -39 32 -93 70 -118 85
-55 32 -153 66 -188 66 -25 0 -24 1 14 41 39 40 41 41 92 35 57 -7 213 8 308
29 33 7 72 13 87 14 l27 1 -24 -70z"/>
</g>
</svg>
