<?xml version="1.0" standalone="no"?>
<!DOCTYPE svg PUBLIC "-//W3C//DTD SVG 20010904//EN"
 "http://www.w3.org/TR/2001/REC-SVG-20010904/DTD/svg10.dtd">
<svg version="1.0" xmlns="http://www.w3.org/2000/svg"
 width="340.000000pt" height="340.000000pt" viewBox="0 0 340.000000 340.000000"
 preserveAspectRatio="xMidYMid meet">
<metadata>
Created by potrace 1.15, written by Peter Selinger 2001-2017
</metadata>
<g transform="translate(0.000000,340.000000) scale(0.100000,-0.100000)"
fill="#000000" stroke="none">
<path d="M2207 2884 c-4 -4 -7 -33 -7 -64 0 -104 -46 -189 -204 -377 -47 -56
-86 -105 -86 -108 0 -3 10 -5 23 -5 41 0 134 66 290 206 l68 61 42 -13 c23 -8
67 -16 97 -19 88 -9 89 -11 36 -111 -59 -112 -218 -334 -239 -334 -2 0 -17 22
-34 48 -18 30 -44 55 -66 65 -42 20 -127 34 -127 20 0 -17 58 -100 110 -158
l52 -57 -44 -45 c-23 -25 -101 -95 -172 -156 -71 -61 -123 -113 -116 -115 20
-7 167 73 269 146 120 85 290 253 410 405 102 129 122 146 202 177 77 29 93
43 85 75 -9 36 -68 98 -120 126 l-45 23 -68 -23 c-70 -23 -198 -39 -228 -27
-14 5 -6 18 44 71 34 36 61 74 61 85 0 23 -52 65 -106 84 -53 18 -118 29 -127
20z"/>
<path d="M1505 2689 c-179 -68 -551 -147 -614 -129 -48 13 -104 13 -136 -2
-31 -14 -31 -19 2 -71 52 -82 84 -170 124 -335 54 -224 75 -294 100 -326 26
-33 45 -33 63 2 13 25 21 28 100 37 l86 11 0 -112 0 -112 -207 -51 c-219 -53
-405 -92 -538 -112 -44 -6 -87 -18 -95 -26 -13 -13 -12 -17 13 -37 16 -13 55
-36 88 -51 l59 -29 77 28 c334 118 453 155 453 139 0 -17 -95 -151 -165 -233
-79 -93 -222 -225 -353 -326 -48 -37 -91 -72 -97 -77 -21 -20 71 5 142 38 214
100 416 296 569 552 l49 83 3 -103 c4 -123 -14 -373 -34 -477 -17 -90 -18
-142 -3 -212 26 -120 75 -164 104 -94 21 51 35 227 35 454 0 111 2 202 5 202
3 0 53 -32 111 -71 168 -112 242 -140 278 -103 21 20 20 42 -3 81 -44 72 -162
125 -306 138 -44 4 -83 13 -87 19 -4 6 -8 52 -8 103 l0 92 33 5 c227 36 300
48 347 59 48 11 55 15 55 37 0 20 -9 28 -48 44 -46 19 -49 19 -140 2 -50 -9
-121 -26 -156 -37 -97 -29 -91 -35 -91 96 0 63 2 115 4 115 2 0 38 7 81 16 71
15 78 15 95 -1 45 -40 95 7 130 124 11 36 53 131 93 211 61 123 82 155 140
214 l68 69 -55 52 c-63 60 -189 126 -249 131 -29 2 -67 -6 -122 -27z m113
-101 c32 -32 -1 -228 -76 -453 -37 -109 -37 -109 -77 -121 -22 -6 -64 -19 -92
-27 l-53 -16 0 124 c0 142 -10 128 112 148 83 14 100 35 49 61 -38 20 -78 20
-115 1 -15 -8 -32 -15 -37 -15 -15 0 -11 246 4 258 14 11 197 50 243 51 16 1
35 -4 42 -11z m-388 -187 c0 -145 6 -133 -80 -146 -55 -8 -99 -33 -79 -45 7
-5 46 -12 86 -16 l73 -6 0 -119 0 -118 -37 -10 c-72 -20 -143 -34 -148 -29 -5
4 -114 561 -111 565 2 2 260 51 279 52 15 1 17 -11 17 -128z"/>
<path d="M2325 1938 c-3 -7 -11 -36 -18 -65 -8 -28 -29 -78 -48 -109 -38 -65
-224 -262 -329 -350 -83 -68 -95 -90 -48 -80 76 15 249 116 349 205 l47 41 52
-10 c29 -6 87 -10 129 -10 108 0 121 -5 121 -46 0 -18 -8 -53 -17 -76 -21 -54
-105 -195 -162 -272 l-43 -58 -34 62 c-57 107 -96 135 -176 128 -27 -3 -51 -8
-55 -12 -9 -9 35 -67 123 -163 l75 -83 -73 -81 c-178 -198 -434 -388 -702
-521 -58 -29 -106 -57 -106 -62 0 -16 107 3 195 35 251 91 490 254 725 496
138 141 208 224 323 384 77 107 128 161 185 194 17 11 34 25 37 33 12 31 -64
118 -154 178 -37 24 -43 25 -77 14 -21 -7 -51 -21 -68 -31 -62 -36 -246 -67
-246 -40 0 4 37 38 83 74 45 36 91 75 101 86 17 19 18 22 2 45 -19 30 -89 79
-135 94 -43 15 -51 15 -56 0z"/>
</g>
</svg>
