<?xml version="1.0" standalone="no"?>
<!DOCTYPE svg PUBLIC "-//W3C//DTD SVG 20010904//EN"
 "http://www.w3.org/TR/2001/REC-SVG-20010904/DTD/svg10.dtd">
<svg version="1.0" xmlns="http://www.w3.org/2000/svg"
 width="340.000000pt" height="340.000000pt" viewBox="0 0 340.000000 340.000000"
 preserveAspectRatio="xMidYMid meet">
<metadata>
Created by potrace 1.15, written by Peter Selinger 2001-2017
</metadata>
<g transform="translate(0.000000,340.000000) scale(0.100000,-0.100000)"
fill="#000000" stroke="none">
<path d="M1955 2530 c-38 -4 -112 -22 -164 -39 -185 -61 -482 -131 -686 -161
-97 -15 -121 -25 -104 -46 25 -31 114 -46 252 -43 l131 3 7 -33 c4 -18 10
-136 14 -261 l7 -227 -48 -12 c-101 -23 -284 -50 -449 -66 -93 -9 -172 -18
-174 -21 -24 -24 137 -116 202 -116 23 1 129 21 236 46 106 25 195 46 197 46
9 0 3 -73 -11 -142 -47 -225 -131 -384 -285 -538 -121 -122 -295 -231 -493
-310 -62 -24 -75 -36 -58 -53 14 -14 155 15 286 60 231 79 413 213 537 396 54
80 122 226 147 316 20 72 27 89 34 80 40 -48 189 -241 312 -404 274 -363 335
-434 395 -465 82 -42 243 -51 465 -25 175 20 242 34 268 56 l22 18 -37 15
c-20 9 -88 25 -150 37 -321 60 -489 132 -726 308 -118 88 -327 300 -440 446
l-93 120 3 60 3 60 155 21 c85 12 227 31 315 43 208 28 349 58 384 80 23 15
-1 55 -46 76 -27 14 -67 20 -143 23 -100 4 -116 2 -285 -43 -228 -59 -358 -86
-368 -76 -8 8 9 500 17 508 2 3 75 20 162 39 207 45 302 69 397 100 81 27 91
39 67 84 -19 35 -132 53 -255 40z"/>
</g>
</svg>
