<?xml version="1.0" standalone="no"?>
<!DOCTYPE svg PUBLIC "-//W3C//DTD SVG 20010904//EN"
 "http://www.w3.org/TR/2001/REC-SVG-20010904/DTD/svg10.dtd">
<svg version="1.0" xmlns="http://www.w3.org/2000/svg"
 width="340.000000pt" height="340.000000pt" viewBox="0 0 340.000000 340.000000"
 preserveAspectRatio="xMidYMid meet">
<metadata>
Created by potrace 1.15, written by Peter Selinger 2001-2017
</metadata>
<g transform="translate(0.000000,340.000000) scale(0.100000,-0.100000)"
fill="#000000" stroke="none">
<path d="M1482 2817 c-8 -10 -4 -27 14 -67 14 -30 32 -82 39 -115 17 -70 42
-351 33 -361 -4 -3 -102 -26 -218 -49 -225 -46 -270 -59 -270 -81 0 -41 208
-56 379 -29 52 9 96 13 99 10 20 -20 -13 -614 -35 -636 -10 -10 -382 -54 -618
-74 -231 -19 -247 -22 -243 -42 8 -41 204 -99 303 -90 33 4 168 31 300 61 132
29 242 52 245 49 2 -2 -6 -34 -19 -71 -95 -276 -275 -508 -521 -675 -41 -28
-129 -81 -194 -117 -139 -77 -155 -96 -75 -87 113 12 311 94 454 189 99 65
235 199 298 295 60 90 127 227 157 316 12 38 26 65 30 60 4 -4 74 -107 155
-228 294 -436 416 -595 475 -619 92 -37 423 -40 604 -5 27 5 50 9 52 9 2 0 4
6 4 13 0 18 -29 31 -185 82 -292 95 -523 249 -785 521 -128 134 -295 343 -283
354 21 20 352 43 646 46 170 2 317 6 328 9 44 14 13 111 -43 138 -95 45 -180
47 -358 7 -74 -16 -207 -45 -295 -64 -88 -20 -187 -38 -219 -42 l-59 -7 7 49
c13 98 25 263 32 424 l6 166 102 18 c128 23 325 71 371 90 27 12 35 21 35 40
0 31 -29 63 -66 72 -46 12 -196 -4 -294 -31 -52 -14 -105 -28 -117 -31 -21 -6
-23 -3 -23 37 0 60 26 223 45 288 13 42 14 59 5 75 -36 69 -262 146 -298 103z"/>
<path d="M2019 2078 c-9 -7 -21 -39 -27 -70 -16 -82 -66 -196 -123 -280 -53
-79 -59 -98 -30 -98 30 0 117 65 272 205 30 27 72 62 92 78 62 47 65 63 20
106 -54 50 -172 85 -204 59z"/>
<path d="M1057 1893 c-24 -23 14 -98 107 -210 45 -54 55 -62 87 -62 46 -1 69
24 69 74 0 75 -18 110 -74 143 -78 47 -171 74 -189 55z"/>
</g>
</svg>
