<?xml version="1.0" standalone="no"?>
<!DOCTYPE svg PUBLIC "-//W3C//DTD SVG 20010904//EN"
 "http://www.w3.org/TR/2001/REC-SVG-20010904/DTD/svg10.dtd">
<svg version="1.0" xmlns="http://www.w3.org/2000/svg"
 width="340.000000pt" height="340.000000pt" viewBox="0 0 340.000000 340.000000"
 preserveAspectRatio="xMidYMid meet">
<metadata>
Created by potrace 1.15, written by Peter Selinger 2001-2017
</metadata>
<g transform="translate(0.000000,340.000000) scale(0.100000,-0.100000)"
fill="#000000" stroke="none">
<path d="M1473 2894 c-17 -7 -16 -29 3 -84 18 -51 22 -256 5 -273 -5 -5 -100
-23 -211 -38 -254 -37 -290 -53 -178 -79 35 -9 102 -11 210 -8 159 5 159 5
155 -16 -3 -11 -15 -65 -28 -118 l-24 -97 -105 -24 c-58 -14 -136 -30 -175
-37 -91 -15 -105 -19 -105 -30 0 -21 89 -32 223 -28 104 3 137 0 137 -9 0 -13
-66 -203 -74 -210 -12 -12 -169 -45 -326 -69 -250 -37 -271 -50 -125 -75 83
-14 217 -7 329 16 43 9 80 14 83 12 2 -3 -14 -41 -36 -85 -115 -228 -347 -447
-656 -617 -38 -21 -81 -47 -95 -58 l-25 -20 40 7 c67 12 185 55 280 101 250
120 468 345 598 615 l42 87 146 27 147 28 88 -94 c193 -204 513 -522 578 -576
l69 -57 151 1 c210 1 478 46 449 75 -5 5 -46 16 -92 24 -379 66 -724 250
-1071 567 -49 45 -69 69 -59 72 38 13 214 28 386 34 180 7 194 9 214 29 21 21
22 23 5 48 -48 73 -174 84 -391 35 -177 -40 -579 -120 -583 -116 -1 2 12 55
31 117 l33 114 154 27 c197 34 359 74 399 99 26 16 30 22 22 38 -31 57 -179
53 -435 -14 -54 -14 -101 -24 -103 -21 -2 2 5 33 15 68 11 36 23 85 27 110 5
36 12 47 28 51 12 2 130 26 262 52 318 62 374 87 321 140 -49 49 -181 46 -321
-8 -49 -19 -123 -44 -164 -56 l-73 -20 5 33 c3 18 20 69 38 115 l32 82 -34 35
c-19 20 -51 45 -72 55 -39 20 -122 33 -144 23z"/>
<path d="M1720 1495 c-109 -37 -252 -71 -357 -85 -50 -7 -97 -16 -103 -20 -42
-26 58 -70 157 -70 l53 0 0 -47 c0 -68 -17 -165 -31 -174 -6 -3 -37 -9 -68
-13 -91 -10 -364 -47 -390 -52 -22 -5 -23 -6 -6 -24 10 -11 37 -27 61 -36 54
-20 107 -16 257 21 59 14 115 25 123 23 11 -2 7 -18 -21 -76 -89 -186 -215
-310 -435 -432 -52 -29 -104 -59 -115 -67 -18 -14 -17 -15 19 -8 90 15 218 59
316 107 92 45 116 63 195 142 98 99 143 171 181 291 l22 70 54 7 c29 3 152 9
273 13 226 7 295 16 295 39 0 22 -56 67 -101 80 -48 15 -58 14 -333 -29 -93
-14 -170 -24 -172 -22 -8 8 20 212 30 219 6 4 21 8 32 8 42 0 199 52 222 72
71 68 -27 106 -158 63z"/>
<path d="M1655 853 c121 -162 295 -337 432 -435 102 -74 107 -75 138 -44 18
19 25 36 25 66 0 96 -70 185 -206 262 -169 95 -320 166 -388 182 l-29 7 28
-38z"/>
</g>
</svg>
