<?xml version="1.0" standalone="no"?>
<!DOCTYPE svg PUBLIC "-//W3C//DTD SVG 20010904//EN"
 "http://www.w3.org/TR/2001/REC-SVG-20010904/DTD/svg10.dtd">
<svg version="1.0" xmlns="http://www.w3.org/2000/svg"
 width="340.000000pt" height="340.000000pt" viewBox="0 0 340.000000 340.000000"
 preserveAspectRatio="xMidYMid meet">
<metadata>
Created by potrace 1.15, written by Peter Selinger 2001-2017
</metadata>
<g transform="translate(0.000000,340.000000) scale(0.100000,-0.100000)"
fill="#000000" stroke="none">
<path d="M1074 2846 c-3 -8 -1 -30 6 -48 7 -18 19 -50 27 -72 32 -90 7 -432
-55 -741 l-18 -90 -104 -27 c-165 -43 -342 -70 -438 -67 -62 2 -87 0 -90 -9
-14 -44 54 -131 123 -158 l44 -16 88 45 c123 62 363 138 363 115 0 -6 -13 -57
-30 -115 -16 -57 -30 -107 -30 -112 0 -5 52 -60 116 -123 l116 -113 -63 -59
c-71 -66 -189 -146 -298 -201 -96 -48 -151 -83 -151 -95 0 -31 180 10 303 68
82 39 143 80 235 159 l49 42 23 -32 c13 -18 45 -57 70 -87 26 -30 66 -83 88
-116 49 -73 69 -84 96 -52 15 19 18 35 14 98 -6 100 -31 147 -125 237 l-75 72
21 30 c39 55 108 213 145 331 81 263 90 296 88 314 -5 39 -127 156 -164 156
-19 0 -20 -5 -14 -87 4 -49 3 -94 -2 -101 -8 -12 -226 -72 -262 -72 -16 0 -17
4 -9 33 5 17 27 120 49 227 51 246 93 407 119 459 12 22 21 47 21 56 0 51
-136 152 -219 162 -41 5 -52 3 -57 -11z m350 -978 c-16 -88 -57 -237 -83 -297
-34 -81 -77 -151 -92 -151 -14 0 -176 128 -182 144 -5 13 35 177 56 228 13 32
18 34 153 70 76 20 142 37 146 37 4 1 5 -14 2 -31z"/>
<path d="M2405 2500 c-38 -11 -187 -43 -330 -71 -275 -53 -315 -64 -315 -84 0
-18 27 -23 165 -36 84 -7 125 -15 137 -26 33 -30 49 -111 55 -274 l6 -157 -29
-6 c-56 -11 -271 -45 -383 -61 -62 -8 -117 -18 -122 -21 -20 -12 -7 -33 29
-47 97 -39 110 -39 288 -7 92 16 177 30 190 30 l23 0 4 -647 c3 -472 7 -661
16 -696 34 -128 78 12 101 318 6 77 13 343 17 591 l6 451 111 12 c61 7 215 15
341 18 255 5 305 13 305 44 0 34 -19 58 -63 80 -59 31 -164 59 -218 59 -63 0
-363 -56 -461 -86 -16 -5 -18 3 -18 83 0 48 5 123 12 166 11 77 11 78 -13 102
-13 13 -46 35 -74 49 -31 15 -44 27 -35 29 8 3 92 19 185 36 253 45 344 77
329 114 -19 51 -145 69 -259 37z"/>
</g>
</svg>
