<?xml version="1.0" standalone="no"?>
<!DOCTYPE svg PUBLIC "-//W3C//DTD SVG 20010904//EN"
 "http://www.w3.org/TR/2001/REC-SVG-20010904/DTD/svg10.dtd">
<svg version="1.0" xmlns="http://www.w3.org/2000/svg"
 width="340.000000pt" height="340.000000pt" viewBox="0 0 340.000000 340.000000"
 preserveAspectRatio="xMidYMid meet">
<metadata>
Created by potrace 1.15, written by Peter Selinger 2001-2017
</metadata>
<g transform="translate(0.000000,340.000000) scale(0.100000,-0.100000)"
fill="#000000" stroke="none">
<path d="M1007 2624 c-12 -12 -8 -36 13 -80 44 -90 44 -356 0 -694 -11 -85
-23 -167 -26 -181 -5 -26 -9 -27 -177 -55 -129 -21 -206 -28 -310 -28 l-137
-1 0 -30 c0 -21 9 -40 27 -57 43 -39 106 -78 126 -78 11 0 62 16 114 36 98 36
331 99 339 91 3 -3 -9 -73 -25 -156 -17 -83 -31 -161 -31 -172 0 -13 27 -50
63 -88 35 -37 76 -84 91 -104 l28 -37 -58 -72 c-69 -84 -178 -181 -312 -280
-105 -77 -152 -117 -152 -130 0 -18 47 -5 143 41 126 60 213 121 354 249 l110
100 22 -46 c33 -67 172 -262 200 -280 22 -15 24 -14 37 3 9 12 14 46 14 95 l0
76 73 -24 c84 -28 117 -27 360 12 242 39 425 49 762 44 165 -3 311 -2 325 1
19 5 26 14 28 39 7 69 -97 122 -238 122 -71 0 -200 -13 -257 -25 -30 -7 -29
-2 2 200 82 523 149 802 217 887 23 30 27 42 19 57 -29 53 -113 93 -258 121
-59 12 -63 11 -124 -18 -117 -55 -287 -90 -546 -113 -147 -13 -162 -19 -128
-53 19 -18 61 -27 148 -30 82 -3 102 -18 118 -94 12 -60 6 -156 -17 -287 -22
-118 -18 -112 -82 -125 -172 -35 -207 -46 -210 -68 -5 -34 49 -52 158 -52 49
0 90 -2 90 -4 0 -6 -90 -467 -96 -492 -5 -19 -17 -23 -92 -33 -48 -6 -126 -14
-173 -17 l-86 -7 -31 44 c-17 24 -59 73 -95 108 l-65 63 38 72 c45 84 98 223
140 370 17 58 49 151 71 206 l40 101 -25 43 c-28 49 -99 116 -121 116 -8 0
-24 -9 -35 -20 -19 -19 -20 -28 -14 -95 4 -41 3 -75 -1 -75 -4 0 -59 -12 -122
-26 -63 -14 -117 -24 -119 -22 -6 7 125 659 146 725 27 83 25 97 -11 127 -59
50 -224 118 -242 100z m1463 -593 c23 -44 -1 -336 -60 -727 -20 -129 -69 -396
-74 -401 -4 -4 -309 -52 -348 -55 -20 -1 -40 0 -43 4 -6 6 72 408 95 491 9 31
15 37 38 37 41 0 236 47 271 65 41 21 40 50 -1 75 -53 32 -103 34 -193 7 -44
-14 -81 -23 -83 -22 -2 2 13 74 34 161 20 88 39 170 42 182 4 19 -7 35 -51 77
l-56 52 57 13 c90 19 315 58 339 59 12 1 27 -8 33 -18z m-1130 -391 c0 -29
-51 -246 -74 -315 -31 -91 -103 -245 -115 -245 -11 0 -131 126 -131 138 0 14
78 374 82 376 3 2 214 52 231 55 4 0 7 -3 7 -9z"/>
</g>
</svg>
