<?xml version="1.0" standalone="no"?>
<!DOCTYPE svg PUBLIC "-//W3C//DTD SVG 20010904//EN"
 "http://www.w3.org/TR/2001/REC-SVG-20010904/DTD/svg10.dtd">
<svg version="1.0" xmlns="http://www.w3.org/2000/svg"
 width="340.000000pt" height="340.000000pt" viewBox="0 0 340.000000 340.000000"
 preserveAspectRatio="xMidYMid meet">
<metadata>
Created by potrace 1.15, written by Peter Selinger 2001-2017
</metadata>
<g transform="translate(0.000000,340.000000) scale(0.100000,-0.100000)"
fill="#000000" stroke="none">
<path d="M1498 2879 c-16 -6 -28 -17 -28 -24 0 -7 20 -40 45 -72 56 -75 55
-72 114 -321 73 -303 71 -278 21 -292 -111 -30 -587 -140 -606 -140 -11 0 -57
16 -103 36 -98 42 -147 44 -144 4 1 -14 10 -50 22 -81 29 -80 41 -167 41 -305
0 -490 -134 -901 -389 -1188 -67 -75 -82 -111 -34 -81 243 153 405 387 485
698 l22 83 35 -18 c46 -24 77 -22 191 7 52 13 96 22 98 20 3 -3 -31 -117 -55
-181 -2 -6 39 -39 92 -74 52 -34 95 -67 95 -73 0 -30 -144 -139 -348 -262
-195 -118 -188 -128 42 -54 161 53 280 123 370 218 17 17 35 31 41 31 6 0 46
-36 90 -81 44 -44 104 -98 133 -121 50 -39 53 -40 67 -22 55 73 2 164 -157
271 -38 24 -68 46 -68 47 0 1 24 49 54 107 76 147 149 335 142 364 -8 30 -84
77 -129 79 -29 1 -32 -2 -37 -34 -5 -34 -7 -36 -89 -63 -46 -15 -87 -25 -89
-22 -3 3 11 43 31 89 20 47 37 92 37 100 0 9 -22 28 -50 44 -52 28 -62 42 -32
42 42 0 254 60 282 80 41 29 41 64 -1 79 -52 18 -82 13 -252 -38 -89 -27 -188
-55 -219 -62 -32 -7 -68 -21 -80 -31 -35 -27 -8 -38 100 -38 l92 0 0 -59 c0
-70 -18 -213 -29 -223 -6 -7 -193 -40 -295 -52 l-49 -6 6 43 c21 161 47 411
52 510 7 109 8 117 28 122 12 2 94 16 182 30 88 14 236 42 328 62 92 20 169
34 170 32 1 -2 26 -75 55 -163 94 -282 212 -559 294 -687 l36 -57 -72 -113
c-40 -63 -100 -152 -134 -197 -58 -78 -74 -112 -54 -112 33 0 266 206 316 280
l17 25 17 -25 c156 -228 400 -492 522 -563 77 -45 155 -69 207 -65 l38 3 -2
65 c-1 36 -5 178 -8 315 -2 138 -5 255 -5 260 -1 19 -32 -48 -71 -152 -44
-121 -97 -223 -113 -223 -22 0 -129 70 -193 126 -117 103 -330 377 -320 412
20 67 156 431 183 491 19 41 34 81 34 91 0 26 -68 98 -113 122 -37 18 -110 28
-122 16 -2 -2 2 -22 10 -43 17 -48 18 -105 5 -200 -11 -74 -61 -281 -80 -331
l-12 -29 -44 88 c-67 133 -137 309 -204 514 -33 102 -59 186 -58 188 2 1 48 9
102 19 196 33 358 77 383 102 31 31 27 52 -17 75 -53 29 -117 23 -317 -30
-158 -41 -183 -45 -188 -32 -21 66 -47 304 -47 429 l0 142 -31 24 c-76 56
-176 79 -239 55z m77 -1687 c-20 -68 -95 -232 -106 -232 -19 0 -159 70 -159
79 0 12 55 157 68 181 5 8 53 28 108 45 l99 31 3 -23 c2 -13 -4 -49 -13 -81z"/>
<path d="M2140 2683 c-59 -11 -100 -24 -100 -33 0 -15 151 -120 226 -156 45
-21 89 -35 120 -36 48 -3 49 -2 52 27 9 75 -56 163 -135 184 -50 13 -132 20
-163 14z"/>
</g>
</svg>
