<?xml version="1.0" standalone="no"?>
<!DOCTYPE svg PUBLIC "-//W3C//DTD SVG 20010904//EN"
 "http://www.w3.org/TR/2001/REC-SVG-20010904/DTD/svg10.dtd">
<svg version="1.0" xmlns="http://www.w3.org/2000/svg"
 width="340.000000pt" height="340.000000pt" viewBox="0 0 340.000000 340.000000"
 preserveAspectRatio="xMidYMid meet">
<metadata>
Created by potrace 1.15, written by Peter Selinger 2001-2017
</metadata>
<g transform="translate(0.000000,340.000000) scale(0.100000,-0.100000)"
fill="#000000" stroke="none">
<path d="M2396 2884 c-9 -8 -16 -30 -16 -48 0 -63 -62 -164 -175 -285 -95
-103 -121 -141 -96 -141 28 0 541 330 541 348 0 23 -57 69 -132 107 -79 39
-99 42 -122 19z"/>
<path d="M964 2805 c-4 -8 2 -34 11 -58 31 -77 45 -184 45 -342 0 -150 -25
-402 -53 -525 l-12 -55 -170 -27 c-94 -14 -228 -32 -300 -38 -139 -13 -158
-18 -163 -43 -7 -35 136 -136 176 -124 9 3 108 37 220 76 112 39 207 71 211
71 8 0 -16 -146 -44 -273 -8 -38 -12 -73 -9 -78 3 -6 29 -28 56 -50 28 -22 70
-57 94 -78 l43 -38 -80 -86 c-91 -98 -183 -175 -334 -277 -164 -112 -130 -127
70 -30 142 68 242 137 344 235 102 98 85 101 173 -35 80 -123 122 -156 158
-120 40 40 34 154 -12 224 -12 17 -49 56 -83 86 l-61 54 34 79 c19 43 49 142
68 220 19 78 48 189 65 247 16 58 32 115 36 127 10 41 -142 175 -182 159 -12
-4 -15 -27 -15 -110 l0 -104 -87 -21 c-48 -11 -89 -19 -91 -16 -10 10 98 568
134 690 15 50 29 100 32 113 14 66 -251 209 -274 147z m272 -1051 c-13 -127
-87 -424 -106 -424 -4 0 -42 20 -85 45 -43 24 -84 46 -89 48 -9 3 61 251 94
333 7 17 27 26 92 42 46 11 87 20 92 21 5 0 6 -28 2 -65z"/>
<path d="M1716 2701 c-11 -17 26 -87 106 -201 59 -84 79 -105 98 -105 33 0 50
36 50 110 0 85 -30 142 -91 173 -52 26 -152 41 -163 23z"/>
<path d="M2336 2364 c-103 -54 -335 -116 -601 -161 -68 -11 -66 -32 5 -55 72
-22 102 -22 180 2 45 14 66 16 71 8 9 -14 27 -107 35 -184 l6 -61 -83 -24
c-69 -20 -107 -24 -216 -24 -72 0 -134 -3 -137 -6 -4 -3 -2 -19 4 -35 37 -97
29 -190 -26 -294 -34 -65 -42 -109 -25 -153 14 -35 40 -42 71 -17 54 44 129
81 223 111 54 17 100 29 103 26 7 -7 -96 -185 -164 -282 -108 -156 -230 -294
-343 -390 -164 -139 -201 -177 -181 -189 15 -9 122 48 237 125 201 134 369
327 485 556 l50 98 0 -130 c-1 -233 -18 -506 -37 -590 -35 -154 -20 -246 49
-316 39 -38 56 -37 74 6 27 65 33 210 27 686 l-6 475 104 22 c258 54 434 68
460 35 33 -38 7 -195 -47 -289 -35 -62 -68 -70 -157 -39 -122 43 -142 29 -69
-44 30 -30 70 -87 99 -142 26 -51 55 -97 64 -102 39 -24 134 51 196 155 18 30
52 108 76 173 51 139 86 212 116 239 12 11 21 25 21 31 0 29 -48 68 -143 116
-117 58 -134 59 -273 16 -63 -20 -413 -97 -439 -97 -3 0 -4 55 -3 123 l3 122
65 8 c98 13 303 56 314 67 6 6 0 20 -17 38 -15 15 -27 35 -27 43 0 33 81 140
140 185 33 26 60 50 60 54 0 9 -49 53 -81 73 -40 24 -144 57 -181 57 -18 -1
-55 -12 -82 -26z m38 -146 c10 -41 6 -85 -14 -151 -20 -65 -21 -66 -75 -86
-31 -12 -74 -24 -96 -27 l-42 -7 7 39 c4 21 9 52 12 67 5 24 -2 36 -49 83
l-54 54 41 11 c76 21 171 37 217 38 40 1 47 -2 53 -21z m-346 -500 l-3 -121
-150 -38 c-82 -21 -151 -37 -152 -35 -5 5 29 251 35 258 6 6 227 54 260 57 10
1 12 -27 10 -121z"/>
</g>
</svg>
