<?xml version="1.0" standalone="no"?>
<!DOCTYPE svg PUBLIC "-//W3C//DTD SVG 20010904//EN"
 "http://www.w3.org/TR/2001/REC-SVG-20010904/DTD/svg10.dtd">
<svg version="1.0" xmlns="http://www.w3.org/2000/svg"
 width="340.000000pt" height="340.000000pt" viewBox="0 0 340.000000 340.000000"
 preserveAspectRatio="xMidYMid meet">
<metadata>
Created by potrace 1.15, written by Peter Selinger 2001-2017
</metadata>
<g transform="translate(0.000000,340.000000) scale(0.100000,-0.100000)"
fill="#000000" stroke="none">
<path d="M1964 2952 c-6 -4 -14 -33 -18 -65 -9 -83 -65 -242 -117 -332 -24
-43 -71 -106 -104 -141 l-60 -64 -45 10 c-66 14 -130 12 -130 -2 0 -7 11 -35
25 -63 26 -54 74 -221 130 -455 19 -79 43 -156 53 -170 24 -32 61 -38 81 -12
22 27 101 37 101 14 0 -10 -36 -90 -79 -178 -70 -145 -82 -163 -107 -168 -16
-3 -98 -15 -183 -26 -85 -11 -156 -21 -158 -23 -10 -11 64 -58 112 -73 73 -21
79 -20 160 4 74 22 383 86 473 98 l53 7 -6 -35 c-4 -20 -7 -235 -8 -479 -2
-467 2 -511 37 -457 9 14 21 41 26 59 17 58 39 248 50 419 5 91 15 242 22 337
l12 172 363 3 c381 3 382 3 383 46 0 47 -138 105 -250 104 -70 0 -233 -22
-394 -53 -55 -10 -101 -17 -102 -16 -2 2 4 42 13 90 15 83 15 89 -2 107 -33
37 -165 75 -179 52 -3 -5 2 -30 10 -57 8 -27 17 -86 21 -131 6 -81 5 -83 -18
-88 -67 -16 -329 -51 -327 -45 2 5 46 87 98 183 l95 175 45 10 c25 5 102 17
172 26 l127 18 34 -37 c19 -20 41 -36 48 -36 51 0 104 97 164 300 42 143 107
289 153 341 30 34 30 35 14 68 -8 19 -33 46 -55 62 -79 57 -196 62 -372 16
-102 -27 -527 -108 -533 -102 -11 11 418 445 440 445 15 0 8 37 -9 52 -28 25
-123 70 -178 84 -58 16 -66 16 -81 6z m506 -633 c0 -123 -64 -473 -93 -513
-11 -14 -15 -14 -42 0 -25 13 -42 13 -115 4 -47 -6 -111 -17 -142 -24 -32 -8
-58 -11 -58 -8 0 4 20 59 44 122 32 83 49 116 63 118 154 24 273 62 273 87 0
41 -101 51 -214 22 -31 -8 -56 -13 -56 -11 0 2 7 21 14 41 8 21 20 57 26 81
13 51 7 63 -54 95 -32 16 -37 22 -22 25 43 9 294 40 334 41 l42 1 0 -81z
m-472 -6 c18 -35 22 -93 12 -159 -6 -38 -15 -71 -21 -74 -5 -4 -54 -14 -109
-25 -138 -25 -130 -45 23 -60 42 -3 77 -10 77 -13 0 -12 -59 -214 -64 -219 -6
-7 -137 -36 -140 -31 -8 8 -109 549 -104 553 6 6 245 42 290 44 17 1 31 -6 36
-16z"/>
<path d="M934 2815 c-7 -17 -4 -28 23 -95 27 -67 23 -405 -6 -625 -12 -88 -25
-163 -29 -167 -21 -21 -378 -78 -489 -78 -63 0 -63 0 -63 -29 0 -50 115 -141
177 -141 15 0 101 31 191 69 89 38 162 65 162 61 0 -5 -14 -77 -30 -161 -17
-84 -28 -160 -25 -170 3 -10 44 -50 90 -89 47 -39 85 -75 85 -79 0 -14 -142
-145 -221 -204 -41 -30 -112 -79 -159 -107 -97 -60 -130 -87 -130 -108 0 -26
78 -5 195 53 132 64 231 130 325 213 38 34 71 62 74 62 3 0 20 -28 37 -62 64
-127 131 -218 160 -218 28 0 39 32 39 108 0 113 -20 161 -96 230 l-65 58 60
125 c52 107 203 524 218 600 4 21 -3 36 -33 69 -50 55 -143 102 -144 73 0 -5
-2 -54 -4 -111 -2 -56 -6 -105 -8 -108 -8 -7 -227 -49 -232 -43 -9 9 113 594
138 663 30 83 25 102 -36 147 -97 70 -191 100 -204 64z m296 -1002 c-23 -101
-82 -281 -120 -366 l-21 -47 -69 36 c-108 56 -105 42 -55 237 24 93 46 172 50
175 13 13 230 78 233 70 2 -4 -6 -52 -18 -105z"/>
</g>
</svg>
