<?xml version="1.0" standalone="no"?>
<!DOCTYPE svg PUBLIC "-//W3C//DTD SVG 20010904//EN"
 "http://www.w3.org/TR/2001/REC-SVG-20010904/DTD/svg10.dtd">
<svg version="1.0" xmlns="http://www.w3.org/2000/svg"
 width="340.000000pt" height="340.000000pt" viewBox="0 0 340.000000 340.000000"
 preserveAspectRatio="xMidYMid meet">
<metadata>
Created by potrace 1.15, written by Peter Selinger 2001-2017
</metadata>
<g transform="translate(0.000000,340.000000) scale(0.100000,-0.100000)"
fill="#000000" stroke="none">
<path d="M2147 2753 c-140 -49 -263 -71 -369 -65 -100 5 -106 0 -64 -63 35
-51 40 -114 32 -398 l-7 -248 25 -43 c37 -64 78 -71 94 -17 4 14 7 173 7 354
l0 327 30 9 c108 34 304 57 337 40 33 -18 39 -79 36 -392 l-3 -302 33 -52 c34
-53 52 -66 76 -57 23 9 28 32 33 139 22 524 21 510 48 591 15 44 24 88 20 101
-3 13 -22 34 -43 48 -40 26 -145 66 -171 64 -9 -1 -60 -17 -114 -36z"/>
<path d="M1260 2654 c-36 -19 -103 -41 -150 -50 -73 -15 -97 -15 -169 -5 -109
16 -122 7 -86 -60 37 -71 48 -161 42 -348 -3 -91 -10 -192 -17 -223 -10 -52
-9 -63 12 -114 26 -65 48 -85 76 -68 37 24 45 94 47 419 l2 310 109 22 c60 12
140 24 178 25 l70 3 8 -35 c5 -19 6 -154 2 -300 -8 -354 1 -416 60 -408 40 6
57 88 67 332 10 221 26 343 53 396 14 28 13 30 -24 63 -43 40 -136 78 -183 75
-18 0 -61 -16 -97 -34z"/>
<path d="M1983 2478 c3 -13 15 -48 26 -78 41 -111 22 -302 -46 -475 -51 -129
-106 -214 -205 -321 -126 -135 -114 -156 32 -59 213 141 332 386 355 725 3 52
8 112 11 133 l6 37 -66 30 c-36 17 -77 30 -92 30 -22 0 -25 -3 -21 -22z"/>
<path d="M1113 2385 c-3 -9 2 -39 10 -68 49 -160 17 -431 -73 -624 -56 -122
-132 -200 -272 -283 -32 -19 -58 -38 -58 -42 0 -16 81 -7 146 16 136 50 226
135 295 281 63 134 97 303 114 570 8 113 4 120 -68 150 -47 19 -86 19 -94 0z"/>
<path d="M2120 1809 c1 -50 267 -339 312 -339 18 0 38 35 38 67 0 102 -48 159
-195 231 -97 48 -155 63 -155 41z"/>
<path d="M1278 1762 c-10 -2 -18 -9 -18 -16 0 -21 53 -88 119 -148 96 -89 143
-90 149 -4 4 65 -24 108 -91 140 -50 23 -123 36 -159 28z"/>
<path d="M1468 1478 c-11 -9 -18 -36 -21 -88 -8 -114 -21 -146 -60 -154 -17
-4 -221 -22 -452 -41 -231 -19 -444 -36 -474 -39 -30 -3 -58 -9 -63 -14 -14
-14 33 -47 111 -77 l68 -27 349 52 c192 28 373 55 402 59 28 4 52 6 52 3 0 -3
-21 -43 -46 -89 -25 -46 -44 -91 -42 -99 2 -10 53 -36 133 -68 147 -59 215
-93 215 -105 0 -15 -119 -92 -203 -131 -102 -48 -226 -84 -359 -105 -200 -32
-243 -44 -224 -62 13 -13 323 -16 410 -3 95 13 237 59 316 101 31 16 89 54
129 85 l73 54 231 -153 c307 -202 324 -212 371 -203 83 16 63 98 -53 216 -57
57 -85 76 -201 133 -74 36 -163 75 -197 88 -35 12 -63 25 -63 30 0 5 16 33 35
63 32 51 80 152 117 251 15 37 19 40 64 47 75 11 550 14 726 5 173 -10 178 -8
164 49 -9 35 -46 67 -114 99 -122 58 -205 57 -527 -5 -250 -48 -267 -49 -318
-13 -59 43 -102 63 -131 63 -24 0 -25 -2 -23 -52 l2 -53 -154 -23 c-85 -12
-156 -20 -159 -17 -3 2 14 34 37 71 l42 67 -19 26 c-43 59 -110 86 -144 59z
m392 -292 c0 -49 -119 -306 -142 -306 -14 0 -231 81 -270 101 -34 17 -36 21
-27 46 5 16 25 55 43 88 l35 60 113 11 c176 17 248 17 248 0z"/>
</g>
</svg>
