<?xml version="1.0" standalone="no"?>
<!DOCTYPE svg PUBLIC "-//W3C//DTD SVG 20010904//EN"
 "http://www.w3.org/TR/2001/REC-SVG-20010904/DTD/svg10.dtd">
<svg version="1.0" xmlns="http://www.w3.org/2000/svg"
 width="340.000000pt" height="340.000000pt" viewBox="0 0 340.000000 340.000000"
 preserveAspectRatio="xMidYMid meet">
<metadata>
Created by potrace 1.15, written by Peter Selinger 2001-2017
</metadata>
<g transform="translate(0.000000,340.000000) scale(0.100000,-0.100000)"
fill="#000000" stroke="none">
<path d="M1980 2795 c-22 -26 8 -74 110 -177 105 -106 132 -119 151 -70 14 35
6 130 -15 170 -21 40 -75 68 -157 82 -80 12 -74 13 -89 -5z"/>
<path d="M895 2690 c-3 -5 3 -30 14 -55 55 -125 54 -364 -4 -710 -32 -192 -32
-192 -68 -198 -18 -3 -95 -17 -172 -32 -77 -14 -180 -27 -229 -28 -53 -1 -91
-6 -93 -13 -5 -14 47 -78 93 -115 24 -19 48 -29 70 -29 19 0 105 29 191 64 87
36 159 63 161 62 1 -2 -9 -65 -23 -140 -29 -159 -33 -146 70 -233 38 -32 70
-63 72 -69 6 -19 -205 -231 -302 -304 -90 -67 -145 -121 -145 -141 0 -14 15
-11 74 15 113 50 248 151 389 290 32 32 64 55 71 53 7 -3 41 -40 75 -84 34
-43 82 -103 106 -133 24 -31 55 -62 69 -70 23 -12 28 -11 46 5 32 29 27 107
-11 184 -25 50 -47 75 -106 122 -41 32 -82 63 -92 69 -17 9 -15 16 24 92 52
99 113 273 162 458 19 74 42 152 50 172 11 28 12 41 3 58 -19 35 -81 100 -111
116 -54 28 -55 25 -62 -118 -10 -197 1 -180 -129 -201 -61 -10 -113 -16 -116
-13 -13 14 127 535 179 664 16 41 29 82 29 93 0 71 -253 221 -285 169z m299
-987 c-33 -151 -120 -403 -144 -418 -10 -6 -113 51 -135 75 -19 21 -19 24 10
168 l30 147 110 27 c140 34 137 34 129 1z"/>
<path d="M2502 2519 c-76 -30 -785 -184 -808 -175 -6 2 -14 18 -17 35 -8 39
-35 81 -53 81 -17 0 -30 -24 -38 -75 -4 -22 -28 -85 -53 -140 -30 -63 -48
-118 -51 -150 -8 -97 54 -124 120 -53 39 42 54 73 76 155 l17 68 265 57 c333
72 542 110 577 106 17 -2 29 -10 31 -21 5 -24 -33 -98 -79 -157 -22 -27 -39
-52 -39 -55 0 -11 25 -4 110 30 48 19 123 42 166 50 98 19 164 36 164 42 0 16
-61 78 -107 109 -59 39 -211 104 -240 103 -10 0 -28 -4 -41 -10z"/>
<path d="M2225 2120 c-16 -4 -92 -26 -167 -49 -75 -23 -188 -52 -250 -65 -105
-22 -146 -42 -126 -62 6 -5 124 -21 176 -23 54 -3 -102 -149 -341 -321 -121
-87 -109 -103 35 -50 45 17 109 46 142 66 59 35 61 35 93 20 18 -9 33 -22 33
-29 0 -21 -139 -189 -275 -334 -120 -128 -139 -153 -113 -153 37 0 346 268
429 372 l37 47 41 -44 c23 -25 41 -53 41 -62 0 -33 -46 -117 -109 -200 -53
-71 -154 -171 -394 -394 -82 -76 -72 -89 31 -40 191 93 407 293 497 463 37 69
38 68 60 -66 30 -184 14 -357 -44 -482 -35 -75 -54 -82 -162 -58 -41 9 -89 19
-107 21 -32 5 -33 4 -23 -15 6 -12 32 -38 57 -59 25 -21 68 -71 95 -111 64
-92 88 -109 129 -92 44 18 106 82 135 141 86 170 90 465 10 742 -13 45 -22 84
-19 87 3 3 51 -44 107 -105 56 -60 147 -155 202 -211 92 -94 105 -103 148
-109 70 -11 202 11 406 68 57 16 80 36 56 50 -8 4 -51 12 -97 17 -181 22 -329
69 -505 159 -111 58 -303 179 -303 192 0 7 301 233 394 296 76 51 74 72 -12
131 -106 70 -150 69 -144 -6 2 -22 -3 -53 -11 -69 -23 -43 -97 -136 -193 -240
l-86 -93 -74 79 c-41 43 -105 100 -143 126 l-70 48 92 57 c50 32 96 65 101 73
6 10 2 28 -13 57 -12 23 -21 44 -19 45 2 1 39 10 83 20 113 24 259 72 285 93
19 15 21 22 12 39 -7 12 -26 26 -43 32 -35 12 -41 12 -84 1z"/>
</g>
</svg>
