<?xml version="1.0" standalone="no"?>
<!DOCTYPE svg PUBLIC "-//W3C//DTD SVG 20010904//EN"
 "http://www.w3.org/TR/2001/REC-SVG-20010904/DTD/svg10.dtd">
<svg version="1.0" xmlns="http://www.w3.org/2000/svg"
 width="340.000000pt" height="340.000000pt" viewBox="0 0 340.000000 340.000000"
 preserveAspectRatio="xMidYMid meet">
<metadata>
Created by potrace 1.15, written by Peter Selinger 2001-2017
</metadata>
<g transform="translate(0.000000,340.000000) scale(0.100000,-0.100000)"
fill="#000000" stroke="none">
<path d="M1844 2952 c-7 -4 -25 -29 -41 -57 -18 -31 -48 -63 -79 -83 -53 -36
-366 -194 -502 -255 -47 -21 -81 -41 -77 -47 15 -24 124 -10 267 35 257 80
682 233 695 251 25 35 -21 76 -146 130 -78 35 -98 39 -117 26z"/>
<path d="M2250 2668 c-31 -125 -77 -189 -195 -273 -33 -24 -73 -57 -89 -74
-25 -26 -27 -31 -11 -31 48 0 173 50 357 143 183 92 203 105 206 129 3 22 -5
33 -38 57 -31 23 -193 91 -215 91 -2 0 -9 -19 -15 -42z"/>
<path d="M1549 2481 l-24 -19 39 -79 c46 -93 87 -148 128 -169 27 -14 31 -14
50 3 32 28 50 80 43 124 -7 43 -66 104 -134 138 -50 26 -72 26 -102 2z"/>
<path d="M990 2429 c0 -31 96 -212 138 -260 85 -95 161 -18 122 123 -23 82
-260 207 -260 137z"/>
<path d="M1888 2134 c-142 -73 -354 -125 -599 -147 -137 -13 -161 -22 -146
-61 8 -19 56 -50 114 -72 l42 -16 213 82 c213 82 396 137 423 126 24 -9 17
-38 -21 -96 -44 -67 -173 -230 -182 -230 -4 0 -31 9 -60 20 -108 41 -148 13
-76 -52 36 -33 90 -115 82 -123 -12 -13 -857 -109 -1078 -123 -114 -7 -115 -7
-118 -33 -4 -38 40 -71 140 -103 l85 -27 359 71 c197 39 424 84 504 100 80 16
149 25 153 21 16 -16 28 -313 17 -451 -18 -231 -51 -345 -111 -376 -30 -15
-41 -15 -98 -4 -35 7 -92 21 -125 31 -63 19 -126 25 -126 11 0 -4 41 -48 91
-97 50 -50 118 -124 151 -165 93 -116 144 -122 220 -26 112 140 160 334 159
641 0 145 -19 370 -36 426 -5 14 9 17 86 22 148 11 530 8 716 -5 187 -13 223
-8 223 32 0 86 -133 160 -288 160 -85 0 -291 -23 -554 -63 -202 -30 -218 -32
-223 -16 -3 10 -17 35 -32 55 l-25 38 35 31 c114 99 317 222 405 245 63 16 64
36 8 86 -55 50 -196 124 -235 123 -14 0 -56 -16 -93 -35z"/>
</g>
</svg>
