<?xml version="1.0" standalone="no"?>
<!DOCTYPE svg PUBLIC "-//W3C//DTD SVG 20010904//EN"
 "http://www.w3.org/TR/2001/REC-SVG-20010904/DTD/svg10.dtd">
<svg version="1.0" xmlns="http://www.w3.org/2000/svg"
 width="340.000000pt" height="340.000000pt" viewBox="0 0 340.000000 340.000000"
 preserveAspectRatio="xMidYMid meet">
<metadata>
Created by potrace 1.15, written by Peter Selinger 2001-2017
</metadata>
<g transform="translate(0.000000,340.000000) scale(0.100000,-0.100000)"
fill="#000000" stroke="none">
<path d="M2086 2566 c-34 -81 -180 -208 -389 -337 l-112 -70 -60 6 c-34 4 -72
2 -87 -4 l-27 -10 24 -53 c40 -90 49 -165 49 -423 0 -181 -4 -265 -17 -340
-51 -296 -140 -497 -295 -668 -64 -70 -73 -87 -47 -87 44 0 130 69 199 160
136 177 225 414 262 694 18 132 23 446 10 587 l-7 85 82 33 c93 36 91 37 111
-49 21 -91 15 -577 -11 -869 -30 -340 -46 -401 -123 -473 -38 -36 -39 -38 -32
-85 3 -26 13 -60 20 -74 16 -31 70 -79 89 -79 7 0 29 22 48 48 70 98 329 382
347 382 5 0 20 -26 35 -57 32 -71 51 -93 82 -93 43 0 63 33 63 104 0 36 -5 77
-10 92 -13 33 -151 177 -198 206 -30 19 -35 19 -49 5 -14 -14 -12 -24 21 -102
20 -48 36 -92 36 -99 0 -12 -237 -152 -245 -145 -3 3 60 1167 64 1188 1 3 15
-8 32 -25 69 -66 137 -200 278 -549 29 -71 90 -204 134 -295 121 -245 167
-282 386 -315 123 -19 295 -20 309 -2 17 20 3 31 -113 90 -172 86 -286 167
-416 296 -164 163 -236 277 -339 532 -92 228 -149 300 -248 315 -35 5 -58 17
-92 47 -25 23 -46 44 -48 48 -6 14 344 166 513 223 112 37 114 39 89 73 -12
15 -36 38 -54 51 -37 25 -142 60 -207 69 -40 5 -42 4 -57 -31z"/>
<path d="M1090 2432 c-105 -67 -306 -128 -487 -148 -57 -6 -63 -9 -63 -29 0
-13 13 -34 30 -48 28 -24 127 -67 153 -67 7 0 39 16 72 36 101 61 252 135 289
141 46 7 53 -10 31 -77 -13 -39 -167 -356 -179 -367 -1 -2 -26 7 -54 19 -71
30 -87 15 -43 -40 60 -76 115 -224 135 -362 l6 -45 -107 -49 c-150 -68 -293
-121 -415 -154 -69 -18 -104 -32 -106 -43 -9 -48 124 -150 179 -136 13 4 62
34 109 68 79 57 193 129 304 194 l49 29 -6 -155 c-7 -213 -38 -346 -99 -431
l-21 -31 -71 8 c-150 17 -157 13 -97 -60 22 -27 61 -89 87 -138 27 -49 54 -91
61 -94 34 -13 112 66 162 165 56 111 102 399 102 639 l0 161 67 43 c193 125
205 204 13 94 -43 -25 -83 -45 -88 -45 -6 0 -14 21 -18 47 -9 62 -50 176 -87
241 -29 51 -29 54 -13 78 23 35 330 343 380 381 37 28 39 32 30 59 -13 37 -80
87 -152 114 -90 33 -103 34 -153 2z"/>
</g>
</svg>
