<?xml version="1.0" standalone="no"?>
<!DOCTYPE svg PUBLIC "-//W3C//DTD SVG 20010904//EN"
 "http://www.w3.org/TR/2001/REC-SVG-20010904/DTD/svg10.dtd">
<svg version="1.0" xmlns="http://www.w3.org/2000/svg"
 width="340.000000pt" height="340.000000pt" viewBox="0 0 340.000000 340.000000"
 preserveAspectRatio="xMidYMid meet">
<metadata>
Created by potrace 1.15, written by Peter Selinger 2001-2017
</metadata>
<g transform="translate(0.000000,340.000000) scale(0.100000,-0.100000)"
fill="#000000" stroke="none">
<path d="M1536 2891 c-17 -28 11 -66 126 -171 145 -134 186 -163 224 -158 37
4 54 38 54 111 0 107 -40 157 -159 197 -77 26 -234 39 -245 21z"/>
<path d="M2400 2541 c-47 -28 -497 -104 -1005 -171 -170 -22 -326 -43 -346
-46 -37 -5 -37 -5 -54 45 -9 27 -25 62 -37 76 -26 33 -42 21 -62 -44 -21 -70
-60 -143 -112 -206 -56 -70 -84 -133 -91 -207 -5 -51 -3 -59 21 -83 22 -22 33
-26 59 -21 76 15 164 132 212 281 16 47 31 85 34 85 4 0 115 16 246 35 654 94
1100 135 1169 109 29 -11 20 -76 -16 -124 -125 -165 -125 -169 -27 -129 96 38
182 59 284 69 142 14 145 15 145 49 0 108 -334 332 -420 282z"/>
<path d="M1746 2202 c-3 -6 12 -45 34 -89 41 -79 70 -204 70 -298 l0 -42 -102
-16 c-205 -32 -953 -117 -1030 -117 -36 0 -17 -31 43 -70 99 -64 104 -64 317
-20 290 60 756 135 774 124 11 -7 9 -763 -2 -854 -14 -108 -19 -125 -41 -149
-25 -27 -65 -27 -175 0 -124 31 -126 14 -10 -81 61 -51 94 -89 168 -200 17
-24 36 -40 48 -40 48 0 135 112 167 215 15 51 18 94 17 295 -1 208 -13 501
-30 746 l-6 81 54 9 c29 4 178 8 330 8 292 1 316 5 292 44 -17 27 -72 61 -128
78 -87 27 -171 28 -302 5 -65 -11 -150 -24 -188 -27 l-68 -7 6 39 c3 21 8 62
11 89 4 28 11 71 17 98 14 66 -2 87 -106 137 -89 43 -149 59 -160 42z"/>
<path d="M1150 1462 c0 -29 66 -157 135 -262 89 -135 116 -147 155 -71 23 47
27 126 6 174 -21 50 -97 111 -184 146 -88 36 -112 38 -112 13z"/>
</g>
</svg>
