<?xml version="1.0" standalone="no"?>
<!DOCTYPE svg PUBLIC "-//W3C//DTD SVG 20010904//EN"
 "http://www.w3.org/TR/2001/REC-SVG-20010904/DTD/svg10.dtd">
<svg version="1.0" xmlns="http://www.w3.org/2000/svg"
 width="340.000000pt" height="340.000000pt" viewBox="0 0 340.000000 340.000000"
 preserveAspectRatio="xMidYMid meet">
<metadata>
Created by potrace 1.15, written by Peter Selinger 2001-2017
</metadata>
<g transform="translate(0.000000,340.000000) scale(0.100000,-0.100000)"
fill="#000000" stroke="none">
<path d="M1493 2786 c25 -65 202 -273 257 -301 70 -36 117 89 71 191 -16 36
-30 47 -95 80 -64 31 -90 38 -158 42 -73 4 -81 3 -75 -12z"/>
<path d="M2210 2455 c-244 -50 -1181 -181 -1201 -169 -5 3 -16 22 -25 42 -18
45 -52 82 -73 82 -11 0 -26 -29 -49 -97 -18 -53 -58 -151 -88 -217 -40 -89
-54 -132 -54 -166 0 -49 26 -102 59 -120 50 -26 138 107 201 301 l31 96 122
12 c67 7 235 28 372 46 509 68 760 83 805 47 21 -17 21 -19 7 -54 -9 -20 -38
-67 -67 -104 -28 -36 -49 -68 -47 -70 1 -2 30 7 62 21 79 31 247 65 327 65 81
0 96 9 79 47 -26 58 -67 106 -125 148 -60 42 -198 116 -213 114 -5 -1 -60 -12
-123 -24z"/>
<path d="M1505 2093 c-37 -9 -37 -21 -6 -85 36 -75 53 -167 49 -262 l-3 -70
-50 -13 c-89 -23 -267 -51 -400 -63 -71 -7 -137 -15 -145 -17 -9 -4 5 -15 39
-31 80 -37 160 -39 311 -9 172 35 210 40 210 30 0 -14 -84 -158 -132 -225 -74
-103 -192 -232 -301 -329 -121 -108 -317 -257 -404 -307 -35 -20 -63 -40 -63
-45 0 -12 67 2 135 29 33 14 103 49 157 80 231 131 434 315 596 542 l67 93 3
-38 c10 -110 -31 -575 -62 -707 -13 -56 -13 -65 8 -137 23 -79 59 -144 86
-154 74 -29 107 319 80 833 -6 128 -10 235 -8 238 3 2 79 -83 169 -189 199
-233 437 -475 499 -508 61 -32 213 -37 410 -14 215 24 270 39 244 65 -5 5 -79
27 -164 49 -215 55 -311 90 -485 176 -184 92 -305 177 -452 319 -101 97 -233
251 -222 259 2 2 69 11 149 21 274 33 423 64 462 96 28 23 19 45 -31 74 -54
31 -143 32 -236 1 -44 -14 -129 -40 -190 -56 -60 -17 -119 -33 -129 -36 -18
-5 -19 -1 -12 71 4 43 16 105 26 139 24 77 25 70 -6 107 -45 53 -141 89 -199
73z"/>
</g>
</svg>
