<?xml version="1.0" standalone="no"?>
<!DOCTYPE svg PUBLIC "-//W3C//DTD SVG 20010904//EN"
 "http://www.w3.org/TR/2001/REC-SVG-20010904/DTD/svg10.dtd">
<svg version="1.0" xmlns="http://www.w3.org/2000/svg"
 width="340.000000pt" height="340.000000pt" viewBox="0 0 340.000000 340.000000"
 preserveAspectRatio="xMidYMid meet">
<metadata>
Created by potrace 1.15, written by Peter Selinger 2001-2017
</metadata>
<g transform="translate(0.000000,340.000000) scale(0.100000,-0.100000)"
fill="#000000" stroke="none">
<path d="M1600 2790 c-9 -17 -2 -37 40 -119 62 -121 111 -185 165 -217 23 -13
45 -24 48 -24 3 0 22 14 41 31 85 74 43 204 -91 282 -117 68 -183 83 -203 47z"/>
<path d="M2510 2457 c-3 -3 -59 -17 -125 -32 -130 -29 -1276 -178 -1286 -167
-3 4 -11 32 -18 63 -7 31 -20 64 -31 74 -32 29 -56 10 -100 -78 -22 -46 -71
-124 -109 -174 -94 -124 -105 -146 -98 -205 11 -90 34 -105 106 -68 59 30 118
105 175 222 38 80 55 106 66 101 42 -16 137 -12 360 16 416 52 890 101 982
101 65 0 55 -78 -27 -205 -32 -50 -41 -71 -32 -73 8 -2 52 13 98 32 119 48
181 65 289 77 112 12 129 23 106 66 -25 50 -167 176 -237 210 -65 33 -111 48
-119 40z"/>
<path d="M1564 2070 c-31 -12 -34 -32 -13 -80 33 -73 21 -233 -19 -244 -9 -2
-87 -12 -172 -21 -85 -9 -184 -19 -219 -23 -36 -4 -66 -12 -68 -19 -5 -15 46
-42 112 -59 56 -15 197 -18 265 -4 25 4 46 7 48 5 5 -5 -23 -58 -80 -154 -175
-290 -465 -578 -767 -761 -157 -95 -181 -111 -181 -126 0 -22 34 -17 128 20
455 176 797 487 1017 927 26 52 49 95 50 97 3 3 133 22 457 67 201 27 258 50
258 101 0 30 -38 55 -93 61 -52 6 -223 -18 -411 -58 -77 -16 -141 -29 -142
-29 -2 0 15 37 36 82 64 132 53 159 -79 203 -82 27 -94 28 -127 15z"/>
<path d="M1862 1463 c-5 -10 -10 -46 -11 -81 -1 -90 -14 -127 -76 -226 -119
-191 -237 -312 -358 -371 -61 -30 -87 -48 -101 -73 -20 -35 -33 -144 -22 -186
9 -36 41 -34 141 9 44 19 139 50 210 70 123 34 550 125 587 125 11 0 38 -31
69 -77 82 -123 157 -212 185 -219 30 -8 80 12 89 34 20 47 23 78 15 127 -23
143 -125 255 -332 368 -131 71 -198 93 -198 64 0 -8 32 -58 71 -112 40 -53 68
-100 63 -104 -9 -8 -635 -94 -640 -88 -6 5 330 369 430 466 83 81 96 98 96
127 0 39 -41 85 -112 127 -64 37 -94 43 -106 20z"/>
</g>
</svg>
