<?xml version="1.0" standalone="no"?>
<!DOCTYPE svg PUBLIC "-//W3C//DTD SVG 20010904//EN"
 "http://www.w3.org/TR/2001/REC-SVG-20010904/DTD/svg10.dtd">
<svg version="1.0" xmlns="http://www.w3.org/2000/svg"
 width="340.000000pt" height="340.000000pt" viewBox="0 0 340.000000 340.000000"
 preserveAspectRatio="xMidYMid meet">
<metadata>
Created by potrace 1.15, written by Peter Selinger 2001-2017
</metadata>
<g transform="translate(0.000000,340.000000) scale(0.100000,-0.100000)"
fill="#000000" stroke="none">
<path d="M1526 2721 c-8 -12 80 -144 137 -207 50 -56 125 -108 169 -119 23 -6
30 -2 48 27 27 43 23 108 -12 175 -30 58 -70 87 -156 113 -66 20 -176 27 -186
11z"/>
<path d="M2385 2364 c-144 -29 -1229 -174 -1301 -174 -15 0 -26 13 -43 55 -20
48 -69 105 -90 105 -4 0 -15 -33 -25 -74 -21 -88 -70 -195 -128 -278 -38 -54
-43 -67 -46 -127 -2 -53 1 -72 18 -99 l20 -33 44 31 c82 55 155 168 191 293
15 52 19 57 38 50 29 -9 48 -8 347 27 690 80 1022 102 1043 69 17 -27 1 -61
-63 -132 -60 -68 -77 -105 -42 -94 136 45 272 67 407 67 59 0 65 2 65 21 0 39
-32 89 -95 147 -66 60 -228 163 -254 161 -9 -1 -47 -8 -86 -15z"/>
<path d="M1939 1946 c-11 -11 -220 -45 -433 -71 -193 -23 -249 -37 -229 -56
25 -23 163 -52 243 -50 200 3 542 68 584 111 l20 20 -21 21 c-16 16 -37 23
-90 26 -37 3 -71 2 -74 -1z"/>
<path d="M2025 1639 c-90 -29 -277 -65 -490 -94 -159 -21 -210 -25 -312 -19
-68 4 -123 4 -123 1 0 -3 18 -43 40 -89 44 -94 76 -198 115 -379 40 -184 44
-196 68 -224 30 -35 57 -25 57 20 0 40 -18 36 302 70 314 33 298 34 323 -18
28 -60 59 -62 110 -6 48 54 81 128 140 314 26 83 60 174 76 202 16 29 29 62
29 74 0 52 -72 110 -185 149 -69 24 -73 24 -150 -1z m53 -140 c27 -10 29 -50
7 -154 -17 -82 -73 -275 -84 -294 -6 -9 -111 -26 -312 -51 -167 -21 -306 -37
-307 -35 -2 2 -6 49 -9 104 -7 118 -26 104 172 121 137 12 305 35 368 51 46
12 48 33 5 59 -72 43 -123 39 -391 -32 -119 -31 -160 -39 -166 -30 -9 15 -35
201 -29 207 8 9 367 57 478 64 121 8 230 4 268 -10z"/>
<path d="M2135 695 c-500 -62 -1077 -115 -1268 -115 -87 0 -153 -12 -170 -29
-24 -24 66 -80 161 -100 47 -10 73 -7 210 18 389 73 783 101 1125 82 117 -7
259 -18 317 -26 140 -19 210 -19 238 1 12 8 22 22 22 30 0 29 -74 95 -146 131
-100 49 -153 50 -489 8z"/>
</g>
</svg>
