<?xml version="1.0" standalone="no"?>
<!DOCTYPE svg PUBLIC "-//W3C//DTD SVG 20010904//EN"
 "http://www.w3.org/TR/2001/REC-SVG-20010904/DTD/svg10.dtd">
<svg version="1.0" xmlns="http://www.w3.org/2000/svg"
 width="340.000000pt" height="340.000000pt" viewBox="0 0 340.000000 340.000000"
 preserveAspectRatio="xMidYMid meet">
<metadata>
Created by potrace 1.15, written by Peter Selinger 2001-2017
</metadata>
<g transform="translate(0.000000,340.000000) scale(0.100000,-0.100000)"
fill="#000000" stroke="none">
<path d="M1451 2886 c-23 -28 5 -74 107 -174 97 -95 130 -114 159 -91 46 39
69 162 38 206 -36 52 -272 98 -304 59z"/>
<path d="M2224 2630 c-67 -25 -402 -80 -789 -130 -170 -23 -339 -45 -375 -50
l-65 -10 -51 57 c-34 37 -56 54 -66 50 -9 -3 -25 -37 -37 -75 -21 -71 -78
-160 -150 -235 -33 -35 -36 -42 -36 -102 0 -112 44 -123 151 -37 64 52 123
131 150 202 9 25 19 48 23 52 12 13 548 94 846 128 172 19 425 27 473 14 12
-4 22 -13 22 -21 0 -9 -22 -55 -50 -103 -27 -48 -50 -90 -50 -94 0 -13 30 -5
79 20 82 41 161 64 239 71 103 9 122 31 79 94 -47 70 -223 177 -303 184 -22 2
-62 -5 -90 -15z"/>
<path d="M1724 2395 c-3 -8 1 -34 10 -57 8 -24 17 -74 18 -112 l3 -70 -145
-22 c-79 -12 -159 -25 -177 -29 l-33 -6 6 69 c6 66 5 69 -20 89 -37 29 -115
47 -149 34 -34 -13 -34 -25 -1 -73 15 -21 30 -56 34 -79 10 -52 7 -53 -168
-78 -73 -10 -136 -21 -139 -25 -24 -24 93 -47 227 -45 l85 2 0 -104 0 -104
-105 -11 c-121 -14 -110 -11 -110 -24 0 -22 84 -50 153 -50 l67 0 0 -110 c0
-60 -1 -110 -2 -110 -2 -1 -115 -14 -252 -30 -136 -15 -253 -33 -259 -39 -15
-15 9 -40 60 -63 41 -18 47 -18 135 -3 51 9 130 25 176 36 45 10 87 19 92 19
15 0 -7 -47 -55 -121 -96 -144 -329 -330 -589 -471 -91 -50 -128 -79 -115 -92
10 -10 184 32 266 63 159 62 385 227 526 384 40 44 89 97 110 118 20 21 37 44
37 52 0 7 -11 28 -25 47 -24 33 -25 35 -6 41 27 11 275 41 299 37 11 -2 143
-122 294 -268 150 -147 299 -285 331 -309 52 -39 65 -44 133 -51 112 -11 427
14 511 41 21 7 30 15 27 24 -7 18 -21 23 -141 46 -200 38 -453 132 -636 236
-139 78 -425 278 -414 289 2 2 145 8 319 14 173 5 322 12 331 16 30 11 19 42
-21 63 -50 26 -150 51 -200 51 -22 0 -93 -9 -159 -21 -65 -11 -135 -23 -155
-26 l-38 -6 0 110 0 110 63 12 c101 20 176 43 189 58 10 13 8 19 -11 34 -28
23 -82 24 -163 5 -32 -7 -60 -11 -63 -8 -8 9 -6 210 3 216 4 2 50 12 102 21
52 9 111 24 130 33 108 52 -37 98 -167 52 -31 -11 -58 -19 -59 -17 -4 4 13 68
27 104 12 28 11 34 -6 54 -26 28 -112 69 -148 69 -15 0 -30 -7 -33 -15z m36
-428 l0 -113 -147 -17 c-82 -10 -165 -20 -185 -23 l-38 -7 0 106 c0 122 -13
109 135 132 55 8 120 19 145 24 96 19 90 26 90 -102z m-8 -310 c-2 -56 -7
-105 -11 -110 -6 -6 -313 -56 -348 -57 -10 0 -13 30 -13 115 0 111 1 115 23
119 44 9 342 41 347 38 3 -2 3 -49 2 -105z"/>
<path d="M1410 1153 c0 -26 230 -240 286 -265 55 -25 86 69 48 145 -38 74 -75
98 -186 121 -104 21 -148 21 -148 -1z"/>
<path d="M1373 734 c-39 -17 7 -79 124 -171 48 -37 107 -86 132 -109 93 -83
125 -92 160 -48 34 44 24 125 -25 190 -25 34 -154 106 -219 122 -51 13 -156
23 -172 16z"/>
</g>
</svg>
