<?xml version="1.0" standalone="no"?>
<!DOCTYPE svg PUBLIC "-//W3C//DTD SVG 20010904//EN"
 "http://www.w3.org/TR/2001/REC-SVG-20010904/DTD/svg10.dtd">
<svg version="1.0" xmlns="http://www.w3.org/2000/svg"
 width="340.000000pt" height="340.000000pt" viewBox="0 0 340.000000 340.000000"
 preserveAspectRatio="xMidYMid meet">
<metadata>
Created by potrace 1.15, written by Peter Selinger 2001-2017
</metadata>
<g transform="translate(0.000000,340.000000) scale(0.100000,-0.100000)"
fill="#000000" stroke="none">
<path d="M1501 2979 c-11 -30 8 -59 105 -157 43 -43 91 -81 120 -93 l48 -22
28 32 c34 38 37 86 7 147 -18 38 -28 46 -97 75 -47 19 -102 34 -139 37 -59 4
-63 3 -72 -19z"/>
<path d="M1985 2705 c-424 -73 -823 -133 -941 -142 l-80 -6 -13 44 c-16 55
-37 89 -56 89 -8 0 -33 -40 -58 -92 -25 -51 -76 -142 -116 -202 -39 -60 -73
-124 -77 -142 -8 -44 2 -97 25 -125 27 -33 63 -19 136 54 66 66 123 169 146
262 6 28 13 51 15 53 1 2 28 -2 61 -8 53 -11 81 -8 303 29 420 69 633 96 883
111 93 6 177 8 187 5 44 -14 28 -73 -46 -167 -24 -31 -44 -61 -44 -67 0 -17
57 -13 161 10 52 11 142 23 201 26 61 3 112 11 117 17 17 20 -19 75 -95 143
-129 116 -229 173 -299 172 -22 -1 -206 -30 -410 -64z"/>
<path d="M1970 2344 c-277 -77 -637 -146 -761 -144 -117 1 -126 -6 -98 -69 28
-64 56 -179 89 -377 30 -174 47 -230 76 -241 18 -7 43 14 55 44 7 20 16 23 61
23 29 1 81 7 116 14 l62 14 0 -124 0 -124 -41 0 c-23 0 -139 -12 -258 -26
-182 -22 -224 -24 -268 -14 -69 15 -151 16 -165 2 -9 -9 -9 -17 0 -34 46 -88
68 -261 58 -453 -8 -156 6 -219 60 -273 38 -38 49 -35 73 17 14 31 16 81 17
344 1 170 4 310 6 313 4 3 302 43 456 59 l62 7 0 -155 0 -155 -49 -11 c-98
-21 -238 -33 -309 -27 -80 8 -91 1 -73 -47 16 -43 94 -117 123 -117 14 0 167
47 341 105 173 58 324 105 335 105 13 0 26 -16 42 -51 27 -57 73 -101 96 -92
23 8 44 57 44 101 0 23 -12 63 -30 99 -28 56 -36 63 -103 98 -125 63 -174 35
-97 -56 28 -33 37 -51 28 -53 -7 -3 -66 -13 -130 -24 l-118 -19 0 154 c0 114
3 155 13 158 16 6 364 43 512 55 l120 10 22 -25 c75 -85 64 -558 -15 -654
l-17 -22 -85 31 c-132 46 -155 40 -101 -29 39 -49 84 -133 116 -213 30 -74 48
-87 92 -64 33 17 105 91 156 159 52 70 78 201 96 487 7 118 12 142 36 189 15
30 28 70 28 89 1 30 -6 42 -47 79 -26 23 -85 61 -129 83 l-82 40 -135 -30
c-150 -34 -543 -110 -565 -110 -12 0 -15 22 -15 119 l0 118 77 7 c118 10 119
9 133 -24 18 -43 45 -56 76 -35 35 23 68 79 155 267 87 190 134 276 178 332
17 21 31 43 31 48 0 6 -15 25 -33 43 -23 23 -57 40 -113 58 -112 35 -141 38
-204 21z m38 -116 c35 -44 17 -179 -53 -395 l-45 -140 -62 -7 c-35 -3 -87 -9
-115 -12 l-53 -6 0 115 0 116 48 6 c73 10 160 36 173 51 9 11 8 18 -1 29 -20
24 -77 29 -147 11 -37 -9 -68 -14 -71 -11 -3 2 3 31 12 63 22 81 21 88 -21
127 -24 22 -32 35 -23 36 8 0 74 6 145 13 175 18 201 18 213 4z m-454 -73 c9
-19 20 -73 23 -119 l6 -83 -34 -6 c-19 -4 -58 -9 -86 -13 -29 -4 -58 -13 -65
-21 -21 -25 10 -34 95 -28 l77 6 0 -114 c0 -133 15 -117 -138 -138 -55 -7 -96
-8 -101 -3 -7 8 -59 393 -64 479 l-2 30 130 21 c72 12 133 22 136 23 4 0 14
-15 23 -34z"/>
</g>
</svg>
