<?xml version="1.0" standalone="no"?>
<!DOCTYPE svg PUBLIC "-//W3C//DTD SVG 20010904//EN"
 "http://www.w3.org/TR/2001/REC-SVG-20010904/DTD/svg10.dtd">
<svg version="1.0" xmlns="http://www.w3.org/2000/svg"
 width="340.000000pt" height="340.000000pt" viewBox="0 0 340.000000 340.000000"
 preserveAspectRatio="xMidYMid meet">
<metadata>
Created by potrace 1.15, written by Peter Selinger 2001-2017
</metadata>
<g transform="translate(0.000000,340.000000) scale(0.100000,-0.100000)"
fill="#000000" stroke="none">
<path d="M1463 2890 c-13 -5 -23 -12 -23 -16 0 -16 106 -148 156 -193 67 -62
114 -80 149 -57 69 45 70 110 3 182 -31 34 -55 48 -104 64 -80 24 -152 33
-181 20z"/>
<path d="M2240 2649 c-319 -79 -899 -171 -1203 -191 l-48 -3 -22 55 c-16 39
-28 56 -43 58 -25 4 -37 -11 -54 -63 -14 -44 -80 -176 -136 -270 -29 -50 -34
-68 -31 -105 9 -105 70 -132 130 -57 48 58 94 138 127 221 l28 71 53 7 c30 4
230 32 444 63 659 93 825 110 840 85 8 -13 -25 -87 -64 -144 -30 -43 -38 -66
-24 -66 3 0 62 18 130 40 69 23 159 48 201 56 77 16 112 35 112 61 0 43 -129
137 -246 179 -76 28 -94 28 -194 3z"/>
<path d="M2015 2249 c-125 -36 -267 -67 -409 -88 -65 -10 -111 -22 -114 -29
-6 -18 76 -52 128 -52 25 0 92 11 149 25 57 14 142 32 189 40 209 37 226 12
146 -204 -38 -100 -41 -105 -81 -122 -60 -26 -229 -65 -383 -90 -74 -12 -139
-25 -144 -30 -15 -13 13 -38 52 -45 44 -9 154 8 342 51 80 18 185 41 235 50
49 9 95 21 102 27 13 10 8 34 -13 58 -11 13 -1 36 61 145 41 72 74 141 75 153
0 14 -13 36 -30 52 -29 27 -165 91 -192 89 -7 0 -58 -13 -113 -30z"/>
<path d="M1053 2164 c-3 -9 1 -28 10 -43 8 -14 23 -53 34 -86 16 -53 18 -96
18 -367 -1 -287 -2 -308 -20 -328 -33 -36 -266 -187 -355 -229 -47 -23 -120
-49 -163 -60 -44 -11 -81 -22 -84 -25 -27 -27 67 -110 159 -142 43 -14 49 -14
80 1 18 9 114 98 212 198 l179 181 -7 -119 c-8 -134 -28 -307 -51 -435 -28
-158 -13 -280 40 -330 34 -32 55 -19 77 46 30 91 39 237 48 849 5 342 14 650
21 701 14 112 6 129 -84 174 -67 33 -105 38 -114 14z"/>
<path d="M1795 1969 c-110 -27 -207 -49 -216 -49 -9 0 -22 -6 -28 -14 -9 -11
-5 -16 20 -25 59 -20 148 -12 313 28 165 41 203 59 176 85 -30 27 -68 24 -265
-25z"/>
<path d="M730 1759 c0 -63 149 -259 198 -259 25 0 72 63 72 98 0 59 -66 128
-155 161 -75 28 -115 28 -115 0z"/>
<path d="M2305 1663 c-120 -51 -353 -102 -771 -168 -28 -5 -34 -1 -58 35 -35
53 -63 54 -71 3 -9 -57 -44 -151 -78 -211 -23 -42 -28 -61 -24 -89 8 -44 42
-83 74 -83 30 0 62 66 93 191 l22 86 96 6 c54 3 201 26 328 51 252 49 413 72
438 63 9 -4 16 -18 16 -31 0 -30 -27 -104 -47 -127 -15 -18 -17 -49 -3 -49 6
0 69 22 139 50 71 27 147 52 170 56 58 9 77 25 62 52 -27 51 -224 172 -301
186 -14 3 -51 -7 -85 -21z"/>
<path d="M1940 1335 c-101 -45 -236 -84 -340 -97 -100 -13 -114 -22 -81 -49
52 -42 226 -16 407 61 52 22 99 38 105 35 12 -8 11 -51 -2 -100 -19 -70 -91
-245 -101 -245 -6 0 -36 23 -67 52 -89 81 -212 127 -255 95 -26 -19 -14 -33
35 -40 51 -7 93 -36 166 -117 l57 -63 -29 -24 c-121 -99 -285 -187 -420 -224
-44 -12 -89 -26 -99 -31 -63 -34 128 -40 249 -8 104 27 221 82 313 148 47 33
78 49 87 45 7 -5 53 -44 102 -89 136 -124 252 -215 311 -242 53 -24 57 -24
156 -13 128 14 349 67 378 91 21 17 21 18 2 27 -10 6 -66 18 -124 28 -203 33
-401 95 -565 178 -64 32 -176 97 -193 112 -6 5 105 226 148 298 22 36 40 74
40 85 0 10 -12 30 -27 45 -31 28 -133 78 -161 76 -9 0 -51 -16 -92 -34z"/>
</g>
</svg>
