<?xml version="1.0" standalone="no"?>
<!DOCTYPE svg PUBLIC "-//W3C//DTD SVG 20010904//EN"
 "http://www.w3.org/TR/2001/REC-SVG-20010904/DTD/svg10.dtd">
<svg version="1.0" xmlns="http://www.w3.org/2000/svg"
 width="340.000000pt" height="340.000000pt" viewBox="0 0 340.000000 340.000000"
 preserveAspectRatio="xMidYMid meet">
<metadata>
Created by potrace 1.15, written by Peter Selinger 2001-2017
</metadata>
<g transform="translate(0.000000,340.000000) scale(0.100000,-0.100000)"
fill="#000000" stroke="none">
<path d="M2150 2791 c-12 -8 -13 -15 -3 -38 56 -138 74 -192 92 -278 24 -121
41 -288 41 -405 l0 -87 -117 -26 c-65 -14 -166 -33 -225 -43 -59 -9 -112 -20
-119 -24 -20 -13 1 -31 69 -62 63 -28 67 -29 101 -14 64 27 279 72 290 60 3
-3 5 -207 4 -452 -1 -401 -12 -661 -29 -706 -9 -23 -61 -20 -203 10 -67 14
-125 23 -129 19 -4 -4 11 -21 33 -39 52 -40 166 -154 233 -234 30 -34 65 -70
78 -79 23 -14 26 -14 58 11 47 35 93 132 112 236 17 89 16 243 -5 585 -6 83
-13 267 -17 411 l-7 261 27 7 c44 11 294 23 386 18 81 -4 86 -2 109 22 38 41
24 69 -57 108 -93 46 -172 45 -332 -6 -63 -20 -119 -36 -124 -36 -11 0 0 377
14 475 6 39 13 102 17 141 l6 72 -40 26 c-80 53 -227 90 -263 67z"/>
<path d="M1158 2753 c-24 -6 -23 -10 12 -84 45 -97 71 -210 77 -340 l6 -115
-129 -33 c-261 -67 -283 -73 -301 -87 -16 -12 -16 -15 -3 -24 42 -27 251 -20
379 14 l54 15 -5 -130 c-3 -71 -7 -132 -10 -135 -7 -6 -436 -90 -661 -128 -76
-13 -144 -30 -152 -36 -40 -33 73 -119 158 -120 20 0 77 15 125 34 119 47 225
80 354 113 95 24 110 26 118 13 16 -26 44 -162 44 -219 l1 -54 -110 -29 c-164
-42 -232 -67 -240 -86 -9 -25 30 -52 76 -52 36 0 233 35 264 46 13 5 15 -14
15 -130 0 -75 -3 -136 -8 -136 -4 0 -68 -14 -141 -30 -74 -17 -200 -42 -280
-55 -173 -30 -181 -32 -181 -50 0 -44 142 -142 198 -137 14 1 90 33 171 71 80
38 220 97 311 131 177 68 368 150 406 175 13 8 24 20 24 26 0 16 -68 4 -202
-35 -62 -18 -125 -36 -140 -40 l-28 -6 0 132 0 133 84 29 c150 51 201 93 139
117 -38 15 -150 6 -191 -15 -38 -20 -38 -21 -17 91 8 43 15 83 15 90 0 18 -38
36 -105 48 l-59 11 144 27 c297 57 374 82 368 122 -4 27 -44 45 -105 45 -51 0
-122 -19 -222 -59 l-54 -22 7 73 c3 40 9 101 12 135 l6 62 77 25 c42 13 102
32 133 40 68 19 114 55 105 80 -9 22 -67 46 -111 46 -20 0 -65 -11 -102 -25
-36 -14 -75 -25 -86 -25 -22 0 -22 -5 18 239 34 205 36 194 -38 230 -52 26
-72 31 -132 30 -39 -1 -79 -3 -88 -6z"/>
<path d="M1785 1589 c-9 -13 51 -129 122 -236 71 -108 117 -123 148 -48 44
104 -6 182 -169 265 -62 32 -91 37 -101 19z"/>
</g>
</svg>
