<?xml version="1.0" standalone="no"?>
<!DOCTYPE svg PUBLIC "-//W3C//DTD SVG 20010904//EN"
 "http://www.w3.org/TR/2001/REC-SVG-20010904/DTD/svg10.dtd">
<svg version="1.0" xmlns="http://www.w3.org/2000/svg"
 width="340.000000pt" height="340.000000pt" viewBox="0 0 340.000000 340.000000"
 preserveAspectRatio="xMidYMid meet">
<metadata>
Created by potrace 1.15, written by Peter Selinger 2001-2017
</metadata>
<g transform="translate(0.000000,340.000000) scale(0.100000,-0.100000)"
fill="#000000" stroke="none">
<path d="M947 2673 c-13 -13 -7 -51 18 -105 36 -80 49 -215 35 -386 -6 -76
-14 -151 -18 -167 -10 -36 -34 -44 -256 -91 -209 -45 -244 -67 -142 -93 62
-15 174 -14 281 4 50 8 93 15 97 15 9 0 5 -25 -32 -195 -101 -460 -254 -791
-473 -1022 -125 -132 -139 -170 -43 -120 294 154 534 597 665 1227 16 78 31
143 33 145 2 3 70 22 150 45 203 55 242 71 246 97 5 31 -42 63 -92 63 -22 0
-94 -12 -158 -27 -65 -15 -120 -24 -123 -22 -8 9 34 316 55 407 23 98 18 112
-58 161 -89 57 -166 84 -185 64z"/>
<path d="M1860 2596 c0 -13 7 -41 16 -62 46 -109 56 -353 28 -647 -15 -155
-15 -172 -1 -202 9 -19 28 -42 43 -51 49 -33 54 -11 54 255 0 257 11 431 35
544 14 68 14 73 -3 97 -58 77 -172 122 -172 66z"/>
<path d="M2297 2604 c-3 -3 -2 -17 3 -30 23 -59 -34 -232 -155 -471 -54 -106
-87 -183 -80 -183 16 0 126 117 162 172 25 37 30 40 62 34 108 -17 154 -17
258 -2 150 22 228 46 228 70 0 11 -13 28 -28 40 -45 34 -134 28 -300 -17 -76
-21 -142 -37 -147 -35 -5 2 38 72 95 156 58 85 105 162 105 172 0 44 -173 124
-203 94z"/>
<path d="M1570 2395 c-9 -11 -10 -18 -1 -29 21 -25 49 -161 56 -271 5 -83 3
-133 -9 -203 -15 -89 -15 -94 3 -130 27 -53 58 -79 79 -66 25 17 30 47 31 210
1 82 6 210 12 283 8 100 7 136 -1 147 -17 19 -120 74 -141 74 -9 0 -22 -7 -29
-15z"/>
<path d="M2263 1963 c-25 -9 -13 -49 30 -99 48 -58 121 -126 154 -143 85 -44
102 128 18 183 -34 22 -150 66 -173 65 -9 0 -23 -3 -29 -6z"/>
<path d="M1175 1790 c-3 -5 2 -32 11 -60 17 -53 17 -113 -2 -596 -9 -227 18
-366 90 -465 38 -52 129 -104 238 -138 293 -89 843 -92 1183 -6 173 44 345
143 345 199 0 12 -13 59 -30 104 -16 45 -39 132 -50 194 -30 165 -38 164 -60
-7 -13 -107 -25 -145 -63 -202 -26 -40 -47 -55 -116 -90 -188 -93 -550 -141
-876 -114 -315 25 -476 86 -535 201 -43 84 -54 157 -54 335 1 196 18 315 65
458 32 96 32 97 13 118 -24 27 -114 79 -136 79 -9 0 -19 -4 -23 -10z"/>
<path d="M2380 1569 c-78 -24 -209 -45 -432 -70 -181 -20 -224 -20 -354 -3
-33 4 -54 2 -58 -4 -4 -6 6 -40 22 -74 16 -35 39 -92 51 -128 30 -93 72 -283
63 -291 -4 -3 -65 -12 -137 -18 -138 -12 -175 -19 -175 -31 0 -19 44 -60 75
-70 29 -10 50 -8 123 9 292 68 599 102 947 104 l259 2 13 24 c34 70 -91 122
-239 100 -43 -6 -81 -9 -84 -6 -13 12 135 275 181 320 17 17 17 21 2 52 -19
39 -75 72 -152 90 -42 10 -59 9 -105 -6z m48 -101 c20 -20 13 -65 -31 -223
l-42 -150 -100 -16 c-55 -9 -102 -15 -104 -14 -1 2 18 75 43 162 25 88 46 169
46 181 0 12 -11 29 -27 39 l-27 18 29 6 c55 12 200 10 213 -3z m-298 -87 c0
-73 -25 -320 -33 -327 -1 -1 -37 -5 -80 -9 l-78 -7 8 29 c18 63 7 185 -26 282
-17 52 -30 95 -28 97 4 4 154 21 205 23 l32 1 0 -89z m-278 4 c3 -27 12 -94
18 -149 6 -54 18 -121 25 -150 7 -28 12 -52 11 -53 -2 -2 -36 -6 -78 -9 l-75
-7 -31 194 c-18 107 -32 200 -32 206 0 7 22 13 58 16 99 6 96 8 104 -48z"/>
</g>
</svg>
