<?xml version="1.0" standalone="no"?>
<!DOCTYPE svg PUBLIC "-//W3C//DTD SVG 20010904//EN"
 "http://www.w3.org/TR/2001/REC-SVG-20010904/DTD/svg10.dtd">
<svg version="1.0" xmlns="http://www.w3.org/2000/svg"
 width="340.000000pt" height="340.000000pt" viewBox="0 0 340.000000 340.000000"
 preserveAspectRatio="xMidYMid meet">
<metadata>
Created by potrace 1.15, written by Peter Selinger 2001-2017
</metadata>
<g transform="translate(0.000000,340.000000) scale(0.100000,-0.100000)"
fill="#000000" stroke="none">
<path d="M2165 2615 c-83 -69 -274 -124 -601 -174 l-114 -18 -80 23 c-100 29
-205 48 -225 40 -22 -8 -18 -37 11 -79 62 -91 84 -212 84 -455 0 -469 -95
-832 -297 -1135 -69 -104 -213 -262 -306 -337 -55 -43 -86 -84 -74 -96 12 -12
152 63 233 124 307 232 496 577 576 1052 l23 135 60 8 c33 4 207 23 387 42
446 48 558 71 558 113 0 21 -31 52 -75 75 -62 33 -61 29 -20 103 57 104 147
230 225 318 38 43 70 85 70 92 0 23 -94 96 -167 130 -69 33 -177 64 -218 63
-11 0 -33 -11 -50 -24z m55 -219 c0 -30 -7 -91 -16 -137 -20 -109 -90 -321
-114 -347 -12 -13 -47 -25 -107 -36 -84 -16 -561 -86 -584 -86 -6 0 -8 8 -3
23 4 12 10 130 13 262 l6 239 210 43 c371 76 459 91 528 92 l67 1 0 -54z"/>
</g>
</svg>
