<?xml version="1.0" standalone="no"?>
<!DOCTYPE svg PUBLIC "-//W3C//DTD SVG 20010904//EN"
 "http://www.w3.org/TR/2001/REC-SVG-20010904/DTD/svg10.dtd">
<svg version="1.0" xmlns="http://www.w3.org/2000/svg"
 width="340.000000pt" height="340.000000pt" viewBox="0 0 340.000000 340.000000"
 preserveAspectRatio="xMidYMid meet">
<metadata>
Created by potrace 1.15, written by Peter Selinger 2001-2017
</metadata>
<g transform="translate(0.000000,340.000000) scale(0.100000,-0.100000)"
fill="#000000" stroke="none">
<path d="M2002 2680 c-126 -60 -302 -106 -537 -140 -198 -29 -201 -29 -285 6
-93 39 -132 47 -154 31 -16 -12 -15 -19 10 -102 26 -84 28 -102 27 -265 0
-142 -5 -202 -26 -320 -82 -459 -253 -796 -564 -1108 -121 -122 -140 -154 -76
-127 155 65 345 238 475 430 136 203 254 498 324 808 18 82 35 151 36 153 7 7
433 84 659 119 255 40 304 52 304 75 0 8 -16 25 -35 38 -19 13 -36 27 -38 33
-5 12 108 129 175 180 29 23 53 47 53 54 0 23 -91 97 -154 125 -97 44 -121 45
-194 10z m-5 -199 c-9 -87 -54 -200 -84 -212 -102 -39 -654 -151 -670 -136 -2
2 0 70 3 150 l7 146 66 11 c338 56 613 98 645 99 l39 1 -6 -59z"/>
<path d="M1947 1997 c-83 -76 -288 -180 -530 -271 -101 -37 -147 -62 -147 -77
0 -14 58 -11 180 11 62 12 119 19 127 16 10 -4 13 -32 13 -110 l0 -104 -77
-20 c-43 -12 -105 -26 -138 -31 -74 -14 -155 -40 -155 -51 0 -33 166 -39 284
-11 l79 19 -7 -106 c-3 -58 -9 -109 -14 -113 -10 -10 -354 -85 -477 -104 -210
-33 -221 -39 -133 -80 90 -42 122 -42 255 -1 107 32 327 86 352 86 7 0 11 -35
11 -94 0 -187 47 -331 128 -393 92 -70 271 -105 539 -105 351 1 587 54 702
157 87 78 88 112 17 288 -26 63 -56 153 -67 201 -12 47 -25 86 -30 86 -4 0
-11 -26 -14 -57 -20 -170 -55 -284 -104 -344 -37 -45 -145 -102 -231 -122 -76
-18 -275 -37 -387 -37 -308 2 -468 128 -450 355 3 38 8 77 12 86 4 11 40 22
128 38 194 34 244 40 375 47 103 6 129 11 155 28 18 12 33 29 35 38 5 26 -32
55 -89 72 -97 29 -134 23 -424 -64 -77 -23 -148 -44 -157 -46 -16 -5 -18 3
-17 73 0 43 3 96 7 117 l7 39 115 23 c226 44 354 88 366 126 11 35 -19 53 -85
51 -54 -1 -232 -43 -330 -78 -24 -8 -46 -14 -47 -12 -2 2 5 36 16 75 25 91 25
96 -6 112 l-25 14 24 12 c40 21 256 94 382 128 65 19 121 38 122 43 12 35
-115 115 -202 128 -37 5 -44 1 -88 -38z"/>
</g>
</svg>
