<?xml version="1.0" standalone="no"?>
<!DOCTYPE svg PUBLIC "-//W3C//DTD SVG 20010904//EN"
 "http://www.w3.org/TR/2001/REC-SVG-20010904/DTD/svg10.dtd">
<svg version="1.0" xmlns="http://www.w3.org/2000/svg"
 width="340.000000pt" height="340.000000pt" viewBox="0 0 340.000000 340.000000"
 preserveAspectRatio="xMidYMid meet">
<metadata>
Created by potrace 1.15, written by Peter Selinger 2001-2017
</metadata>
<g transform="translate(0.000000,340.000000) scale(0.100000,-0.100000)"
fill="#000000" stroke="none">
<path d="M2170 2652 c-109 -68 -284 -111 -604 -146 l-129 -14 -91 33 c-169 60
-193 56 -149 -26 27 -51 28 -60 27 -179 -1 -292 -120 -747 -283 -1085 -122
-252 -253 -442 -447 -646 -63 -66 -112 -124 -109 -129 30 -48 273 126 419 301
97 115 197 265 277 416 65 122 73 127 130 98 26 -14 38 -14 110 0 135 25 122
43 117 -162 -7 -238 -32 -343 -105 -441 -22 -29 -23 -36 -13 -68 15 -45 66
-104 91 -104 24 0 63 18 122 56 115 76 303 98 810 99 406 0 406 0 407 42 0 20
-62 75 -110 97 -37 17 -63 21 -150 20 -84 -1 -732 -66 -892 -89 l-38 -5 0 298
0 298 132 21 c73 12 133 21 135 20 1 -2 6 -85 11 -186 9 -184 9 -184 36 -208
34 -29 47 -26 65 14 13 30 15 31 105 38 113 9 270 32 314 46 39 13 43 45 9 77
l-23 22 16 130 c9 71 19 132 22 135 3 4 149 9 325 12 338 6 348 7 336 54 -6
22 -68 67 -123 90 -49 20 -165 14 -301 -15 -63 -13 -138 -27 -167 -30 l-54 -7
7 42 c4 23 18 81 32 128 40 142 42 130 -21 189 -64 60 -124 91 -178 92 -44 0
-46 -5 -18 -77 11 -29 25 -74 31 -100 10 -48 15 -280 6 -290 -6 -6 -259 -43
-294 -43 -22 0 -23 4 -23 65 0 35 5 88 11 117 l12 52 -44 38 c-47 41 -133 88
-158 88 -40 -1 -44 -16 -18 -61 34 -59 66 -167 73 -249 l7 -67 -109 -17 c-60
-10 -120 -20 -133 -23 -23 -6 -23 -5 -16 54 l7 60 -44 36 c-82 66 -174 98
-193 67 -4 -6 9 -34 29 -63 34 -50 82 -164 72 -174 -5 -5 -219 -33 -257 -33
l-27 0 28 73 c16 39 49 140 75 222 89 289 100 319 126 327 13 4 132 21 264 38
259 33 570 82 650 103 39 10 51 18 53 35 2 12 0 22 -5 22 -4 1 -21 11 -37 24
l-29 24 31 43 c34 50 119 132 174 169 21 14 40 31 43 38 10 27 -77 102 -169
147 -123 59 -132 61 -186 27z m10 -222 c0 -70 -28 -151 -67 -199 -26 -30 -41
-36 -168 -67 -211 -50 -575 -110 -575 -93 0 2 9 74 20 159 11 85 20 161 20
168 0 8 20 12 68 12 78 0 273 22 492 55 226 34 210 37 210 -35z m77 -1120 c-3
-55 -12 -113 -19 -128 -21 -44 -77 -64 -265 -96 l-33 -5 0 144 c0 80 3 145 8
146 4 0 61 8 127 18 66 10 135 19 154 20 l34 1 -6 -100z"/>
</g>
</svg>
