<?xml version="1.0" standalone="no"?>
<!DOCTYPE svg PUBLIC "-//W3C//DTD SVG 20010904//EN"
 "http://www.w3.org/TR/2001/REC-SVG-20010904/DTD/svg10.dtd">
<svg version="1.0" xmlns="http://www.w3.org/2000/svg"
 width="340.000000pt" height="340.000000pt" viewBox="0 0 340.000000 340.000000"
 preserveAspectRatio="xMidYMid meet">
<metadata>
Created by potrace 1.15, written by Peter Selinger 2001-2017
</metadata>
<g transform="translate(0.000000,340.000000) scale(0.100000,-0.100000)"
fill="#000000" stroke="none">
<path d="M2160 2869 c-157 -47 -745 -150 -855 -151 -27 0 -84 9 -127 20 -121
33 -138 19 -94 -79 49 -113 59 -259 31 -475 -74 -562 -293 -1039 -656 -1431
-38 -41 -69 -78 -69 -84 0 -28 82 5 169 70 127 96 261 250 362 419 29 48 54
89 55 91 2 2 47 -9 102 -23 54 -14 112 -26 128 -26 17 0 96 14 177 30 81 17
155 30 163 30 13 0 15 -8 9 -42 -36 -234 -161 -440 -376 -620 -57 -49 -106
-93 -108 -99 -13 -40 189 60 296 146 170 136 285 338 333 586 l11 55 172 23
c95 13 184 25 200 28 l27 6 0 -186 c0 -215 -15 -460 -35 -565 -13 -68 -13 -77
5 -125 53 -140 93 -169 131 -95 31 60 33 157 16 603 -8 204 -14 371 -12 373 9
10 267 24 483 27 140 2 256 6 260 9 13 14 -15 60 -53 87 -22 16 -70 36 -106
45 -63 15 -73 15 -215 -5 -82 -12 -191 -31 -243 -41 -141 -30 -135 -32 -127
43 4 34 11 86 17 115 12 61 2 85 -58 138 l-36 32 74 6 c130 12 313 36 344 44
50 14 39 42 -30 77 -76 38 -160 39 -285 5 -47 -12 -114 -29 -150 -36 l-64 -12
79 76 c44 43 116 109 160 148 l79 71 -17 26 c-41 63 -106 102 -186 113 -57 7
-58 6 -40 -60 14 -49 -2 -117 -49 -211 -37 -74 -105 -179 -123 -190 -19 -13
-362 -74 -504 -90 -188 -22 -192 -23 -174 -40 25 -25 138 -48 207 -42 l63 6
14 -32 c17 -40 35 -169 35 -247 l0 -59 -42 -5 c-99 -12 -512 -54 -515 -51 -2
1 12 37 31 81 76 180 164 497 217 774 11 63 23 116 24 118 5 6 341 59 475 76
69 9 199 22 290 30 91 8 177 19 192 25 36 13 44 49 23 91 l-17 32 39 40 c21
22 75 64 120 94 44 30 83 61 86 68 7 17 -100 96 -184 136 -73 34 -64 34 -149
9z m0 -176 c0 -43 -27 -103 -70 -155 -27 -32 -40 -39 -118 -57 -156 -36 -669
-120 -676 -110 -1 2 2 63 8 136 8 121 11 132 30 137 27 6 358 52 506 70 63 8
161 14 218 15 l102 1 0 -37z m-103 -964 c25 -48 46 -179 41 -249 l-3 -45 -150
-22 c-82 -12 -170 -25 -194 -28 l-44 -7 7 94 c4 51 8 108 9 127 2 30 -4 39
-41 67 -23 18 -42 37 -42 41 0 8 363 72 385 69 6 -1 20 -22 32 -47z"/>
<path d="M1496 2128 c23 -78 73 -156 124 -194 25 -18 50 -33 55 -33 18 0 47
50 52 90 13 96 -57 158 -209 184 l-37 6 15 -53z"/>
</g>
</svg>
