<?xml version="1.0" standalone="no"?>
<!DOCTYPE svg PUBLIC "-//W3C//DTD SVG 20010904//EN"
 "http://www.w3.org/TR/2001/REC-SVG-20010904/DTD/svg10.dtd">
<svg version="1.0" xmlns="http://www.w3.org/2000/svg"
 width="340.000000pt" height="340.000000pt" viewBox="0 0 340.000000 340.000000"
 preserveAspectRatio="xMidYMid meet">
<metadata>
Created by potrace 1.15, written by Peter Selinger 2001-2017
</metadata>
<g transform="translate(0.000000,340.000000) scale(0.100000,-0.100000)"
fill="#000000" stroke="none">
<path d="M2094 2734 c-116 -62 -300 -115 -569 -164 -176 -31 -157 -32 -310 13
-129 38 -143 31 -118 -59 29 -101 21 -229 -27 -459 -127 -608 -310 -1017 -587
-1316 -86 -93 -101 -117 -77 -126 9 -3 22 -2 29 3 7 5 39 26 71 48 303 200
520 589 685 1230 21 81 39 149 41 151 2 1 149 30 328 64 179 34 381 73 450 87
185 37 229 65 180 114 l-22 22 28 40 c41 58 109 114 192 155 78 39 83 49 53
100 -24 39 -90 79 -173 104 -84 25 -116 24 -174 -7z m2 -194 c-9 -74 -26 -126
-61 -178 -23 -34 -35 -42 -98 -61 -83 -24 -655 -161 -676 -161 -9 0 -12 9 -8
33 3 17 14 92 23 165 l17 132 34 0 c60 0 240 30 483 80 129 26 248 48 264 49
l29 1 -7 -60z"/>
<path d="M1938 2124 c-24 -7 -23 -17 7 -78 26 -54 59 -197 47 -207 -4 -4 -43
-18 -87 -33 -121 -39 -172 -76 -129 -93 15 -5 184 14 212 24 10 4 12 -27 10
-157 l-3 -163 -55 -19 c-30 -10 -93 -26 -140 -35 -99 -19 -121 -30 -94 -50 36
-27 125 -15 324 43 106 30 195 53 197 50 11 -10 -28 -199 -62 -306 l-36 -110
-30 17 c-17 10 -73 57 -125 105 -94 86 -133 108 -195 108 -15 0 -32 -6 -38
-14 -10 -12 -3 -20 35 -47 57 -39 164 -130 241 -205 l56 -55 -29 -31 c-80 -84
-236 -170 -410 -227 -62 -20 -111 -40 -111 -46 4 -21 187 -8 282 20 105 31
244 101 306 155 l44 38 96 -93 c119 -113 220 -195 279 -226 59 -31 154 -35
325 -15 142 16 185 28 185 50 0 23 -20 32 -159 70 -207 56 -522 198 -628 282
l-27 21 26 59 c29 67 59 158 83 253 21 83 46 131 91 175 27 26 34 40 29 55 -9
28 -53 58 -122 82 l-57 19 -51 -34 c-65 -44 -91 -57 -99 -49 -3 3 -6 72 -6
153 l0 147 93 31 c50 17 141 45 200 61 124 36 157 54 157 86 0 18 -9 26 -36
35 -46 16 -109 4 -270 -50 -65 -22 -120 -40 -122 -40 -3 0 -1 44 2 99 l7 99
-33 23 c-25 18 -48 24 -98 26 -36 1 -73 -1 -82 -3z"/>
<path d="M1399 1939 c0 -2 -2 -25 -4 -50 -4 -77 -56 -158 -189 -297 -66 -69
-115 -127 -109 -129 44 -15 483 299 483 345 0 33 -38 79 -82 100 -43 21 -97
37 -99 31z"/>
<path d="M1425 1553 c-25 -133 -206 -360 -523 -656 -155 -144 -115 -154 84
-22 63 42 157 117 208 166 52 49 96 89 99 89 12 0 -15 -237 -50 -435 -29 -170
-27 -227 12 -274 37 -43 62 -46 85 -9 37 61 45 147 45 483 l0 320 25 21 c14
12 45 48 70 79 25 32 62 78 83 102 21 25 34 50 30 56 -37 64 -101 117 -141
117 -15 0 -21 -9 -27 -37z"/>
</g>
</svg>
