<?xml version="1.0" standalone="no"?>
<!DOCTYPE svg PUBLIC "-//W3C//DTD SVG 20010904//EN"
 "http://www.w3.org/TR/2001/REC-SVG-20010904/DTD/svg10.dtd">
<svg version="1.0" xmlns="http://www.w3.org/2000/svg"
 width="340.000000pt" height="340.000000pt" viewBox="0 0 340.000000 340.000000"
 preserveAspectRatio="xMidYMid meet">
<metadata>
Created by potrace 1.15, written by Peter Selinger 2001-2017
</metadata>
<g transform="translate(0.000000,340.000000) scale(0.100000,-0.100000)"
fill="#000000" stroke="none">
<path d="M2035 2754 c-214 -74 -482 -124 -659 -124 -59 0 -106 7 -166 25 -88
26 -130 31 -130 15 0 -5 11 -43 25 -83 46 -138 44 -246 -11 -565 -102 -597
-309 -1076 -626 -1445 -53 -61 -71 -97 -50 -97 42 0 221 166 324 301 121 159
250 394 328 599 18 47 34 88 36 92 3 4 27 -5 54 -19 27 -14 68 -27 92 -30 43
-4 62 -1 303 56 172 40 347 71 343 60 -2 -5 -54 -67 -116 -137 l-113 -129 -44
9 c-30 6 -50 6 -64 -2 -26 -13 -26 -20 0 -64 l21 -35 -90 -89 c-133 -132 -288
-253 -566 -443 -90 -61 -108 -85 -55 -74 119 26 439 229 643 409 l79 70 -6
-150 c-3 -82 -11 -185 -18 -230 -10 -69 -9 -88 5 -136 29 -99 64 -102 103 -7
13 30 28 53 35 51 15 -4 317 27 382 39 65 12 72 5 147 -148 38 -79 66 -123 75
-123 26 0 69 55 87 111 26 79 38 214 40 456 2 216 2 220 29 271 l27 51 -39 31
c-45 36 -130 76 -180 85 -24 4 -74 -3 -156 -24 -123 -31 -313 -65 -321 -58 -8
9 269 307 290 312 140 31 519 65 724 65 185 0 198 4 174 48 -15 27 -96 80
-145 94 -83 23 -151 14 -430 -56 -148 -37 -273 -65 -278 -64 -15 5 124 180
239 300 56 59 103 114 103 121 0 22 -38 74 -72 99 -37 28 -89 48 -124 48 -21
0 -24 -5 -24 -34 0 -84 -67 -234 -197 -442 l-76 -122 -51 -6 c-28 -4 -61 -10
-74 -13 -23 -5 -23 -5 -20 101 l3 107 105 35 c154 51 196 84 158 122 -18 18
-119 14 -190 -8 -34 -11 -65 -20 -67 -20 -4 0 4 100 15 186 l6 51 -37 17 c-30
15 -55 17 -117 14 -43 -3 -84 -10 -90 -16 -8 -8 -2 -30 26 -84 36 -73 63 -175
53 -201 -5 -13 -54 -25 -231 -55 -45 -8 -68 -34 -48 -54 9 -9 55 -14 147 -16
l135 -4 0 -98 c0 -76 -3 -99 -14 -103 -47 -18 -563 -84 -573 -73 -2 1 19 90
46 197 27 107 62 265 77 352 24 131 31 157 44 152 44 -18 114 -15 235 10 118
23 475 76 618 91 36 3 60 11 63 19 3 8 -9 32 -27 55 l-33 40 35 36 c19 20 63
56 99 79 87 57 105 77 91 104 -6 11 -26 31 -44 44 -44 34 -153 87 -174 86 -10
0 -63 -16 -118 -35z m9 -150 c18 -46 -23 -160 -68 -189 -44 -28 -411 -98 -630
-121 l-69 -7 6 24 c3 13 9 65 13 116 l6 92 57 6 c59 7 397 59 516 80 105 19
162 18 169 -1z m170 -1378 c56 -23 61 -51 61 -316 0 -129 -3 -244 -8 -254 -7
-18 -8 -18 -30 1 -46 43 -91 63 -142 63 -49 0 -189 -24 -315 -54 -36 -9 -68
-16 -72 -16 -10 0 -10 91 -2 181 l7 66 129 7 c192 9 285 34 307 82 10 22 8 26
-17 35 -36 15 -149 5 -297 -26 -66 -14 -123 -25 -127 -25 -5 0 -8 50 -8 110 0
61 3 110 7 110 4 0 73 9 153 20 241 33 307 36 354 16z"/>
</g>
</svg>
