<?xml version="1.0" standalone="no"?>
<!DOCTYPE svg PUBLIC "-//W3C//DTD SVG 20010904//EN"
 "http://www.w3.org/TR/2001/REC-SVG-20010904/DTD/svg10.dtd">
<svg version="1.0" xmlns="http://www.w3.org/2000/svg"
 width="340.000000pt" height="340.000000pt" viewBox="0 0 340.000000 340.000000"
 preserveAspectRatio="xMidYMid meet">
<metadata>
Created by potrace 1.15, written by Peter Selinger 2001-2017
</metadata>
<g transform="translate(0.000000,340.000000) scale(0.100000,-0.100000)"
fill="#000000" stroke="none">
<path d="M1846 2654 c-3 -9 1 -45 9 -80 8 -36 15 -75 15 -87 0 -35 -130 -290
-220 -432 -105 -165 -134 -215 -127 -221 9 -9 63 24 126 76 46 38 138 141 178
199 2 2 42 -6 91 -17 78 -20 97 -21 172 -11 110 13 244 41 385 80 168 46 209
77 165 124 -60 63 -140 58 -393 -24 -173 -57 -333 -101 -365 -101 -8 0 0 19
21 48 19 26 54 79 77 117 23 39 67 99 98 134 54 61 55 64 41 89 -20 36 -102
97 -149 111 -56 16 -117 14 -124 -5z"/>
<path d="M827 2363 c-12 -12 -7 -42 12 -80 38 -74 73 -363 86 -718 3 -88 8
-175 11 -193 l5 -33 -123 -59 c-68 -33 -127 -60 -131 -60 -5 0 -5 69 -1 154 8
171 4 184 -65 250 -30 28 -114 58 -138 49 -21 -8 -15 -44 16 -103 47 -90 64
-162 59 -254 -4 -69 -10 -92 -42 -155 -31 -60 -36 -80 -31 -109 9 -49 43 -119
62 -126 16 -7 20 -4 144 98 116 94 311 223 449 294 166 87 156 87 152 -6 -4
-85 15 -152 42 -152 18 0 61 65 82 124 9 22 21 109 29 191 7 83 21 183 30 223
16 71 16 74 -2 88 -65 49 -183 77 -202 46 -4 -7 -1 -36 6 -65 9 -30 15 -105
16 -176 l2 -124 -105 -43 c-58 -24 -113 -47 -122 -50 -17 -5 -18 12 -18 264 0
230 3 287 21 389 42 238 41 215 16 241 -52 55 -234 122 -260 95z"/>
<path d="M2100 1774 c-72 -53 -215 -114 -334 -144 -66 -16 -123 -33 -128 -38
-13 -13 44 -32 117 -39 33 -3 93 0 134 6 40 6 75 10 78 8 2 -2 -31 -55 -73
-118 -84 -126 -161 -276 -196 -384 -32 -99 -32 -240 0 -309 53 -115 155 -198
294 -237 76 -22 101 -24 293 -24 227 0 312 11 472 61 107 34 170 74 189 120
14 33 13 41 -7 107 -12 40 -35 134 -50 210 -15 76 -30 141 -33 145 -13 13 -24
-16 -35 -92 -16 -111 -37 -178 -74 -233 -37 -54 -79 -74 -251 -119 -82 -21
-132 -27 -261 -31 -253 -8 -375 29 -417 125 -53 119 25 410 155 579 68 89 179
188 267 239 66 38 80 51 80 71 0 30 -40 70 -102 101 -57 28 -74 27 -118 -4z"/>
</g>
</svg>
