<?xml version="1.0" standalone="no"?>
<!DOCTYPE svg PUBLIC "-//W3C//DTD SVG 20010904//EN"
 "http://www.w3.org/TR/2001/REC-SVG-20010904/DTD/svg10.dtd">
<svg version="1.0" xmlns="http://www.w3.org/2000/svg"
 width="340.000000pt" height="340.000000pt" viewBox="0 0 340.000000 340.000000"
 preserveAspectRatio="xMidYMid meet">
<metadata>
Created by potrace 1.15, written by Peter Selinger 2001-2017
</metadata>
<g transform="translate(0.000000,340.000000) scale(0.100000,-0.100000)"
fill="#000000" stroke="none">
<path d="M1760 2789 c-10 -17 -7 -27 14 -57 38 -56 54 -102 70 -199 22 -132
28 -301 17 -463 -15 -215 -49 -357 -103 -432 -38 -55 -6 -168 48 -168 13 0 46
11 72 24 131 66 388 126 542 126 70 0 82 -3 109 -26 47 -39 55 -84 42 -243
-14 -162 -33 -283 -66 -408 -51 -193 -103 -242 -216 -201 -89 31 -181 50 -192
39 -7 -7 11 -33 54 -79 35 -38 84 -105 108 -148 59 -104 77 -124 116 -124 65
0 172 107 226 227 57 125 98 330 119 593 6 74 17 161 25 192 15 61 48 132 65
143 5 3 10 20 10 36 0 40 -35 71 -124 108 -118 49 -136 49 -278 3 -67 -23
-159 -50 -203 -61 -94 -24 -275 -54 -282 -47 -3 2 7 112 21 243 14 131 26 244
26 251 0 9 29 12 110 12 251 0 580 56 580 99 0 40 -89 91 -158 91 -22 0 -148
-27 -281 -60 -133 -33 -244 -60 -246 -60 -3 0 -2 19 0 43 31 262 47 387 56
412 9 28 7 33 -31 67 -46 42 -154 88 -205 88 -25 0 -37 -6 -45 -21z"/>
<path d="M883 2580 c-31 -13 -29 -40 7 -114 59 -120 82 -344 78 -746 l-3 -265
-115 -31 c-63 -17 -118 -29 -122 -27 -5 2 -8 55 -8 116 -1 136 -10 180 -46
218 -31 32 -92 64 -141 73 -29 5 -33 3 -33 -16 0 -12 18 -60 40 -107 21 -47
44 -110 51 -139 16 -75 -1 -164 -40 -213 -30 -36 -30 -37 -16 -90 14 -52 41
-99 61 -106 6 -2 37 17 70 43 96 75 299 167 559 255 l140 47 6 -74 c10 -116
51 -158 86 -89 6 11 25 83 42 160 18 77 46 195 63 263 l31 123 -29 31 c-35 37
-92 64 -155 73 -57 8 -66 -6 -43 -68 41 -113 46 -147 34 -246 -6 -53 -14 -99
-18 -102 -4 -4 -59 -19 -122 -33 -63 -15 -126 -30 -139 -33 l-24 -6 7 234 c6
224 29 601 42 700 6 47 6 48 -37 79 -43 32 -144 83 -184 93 -11 3 -30 2 -42
-3z"/>
<path d="M2130 1225 c-30 -7 -115 -27 -188 -44 -184 -44 -396 -79 -559 -91
-203 -17 -218 -20 -218 -50 0 -20 11 -31 60 -57 33 -18 72 -33 87 -33 16 0 88
16 160 35 250 64 476 99 723 110 177 8 185 9 185 38 0 33 -49 76 -105 93 -57
17 -72 17 -145 -1z"/>
</g>
</svg>
