<?xml version="1.0" standalone="no"?>
<!DOCTYPE svg PUBLIC "-//W3C//DTD SVG 20010904//EN"
 "http://www.w3.org/TR/2001/REC-SVG-20010904/DTD/svg10.dtd">
<svg version="1.0" xmlns="http://www.w3.org/2000/svg"
 width="340.000000pt" height="340.000000pt" viewBox="0 0 340.000000 340.000000"
 preserveAspectRatio="xMidYMid meet">
<metadata>
Created by potrace 1.15, written by Peter Selinger 2001-2017
</metadata>
<g transform="translate(0.000000,340.000000) scale(0.100000,-0.100000)"
fill="#000000" stroke="none">
<path d="M1634 2736 c-4 -19 3 -51 27 -109 33 -81 33 -83 37 -274 2 -121 0
-193 -6 -193 -5 0 -103 -13 -217 -30 -114 -16 -213 -30 -220 -30 -8 0 -5 25
12 88 29 108 29 142 1 177 -38 48 -163 87 -183 56 -3 -5 5 -29 17 -53 27 -52
35 -151 18 -214 -7 -25 -29 -62 -48 -82 -30 -33 -34 -42 -29 -79 5 -50 29 -90
61 -104 19 -9 43 -2 142 44 149 67 249 100 386 126 101 19 608 91 642 91 15 0
15 -3 2 -27 -21 -42 -37 -109 -30 -127 12 -32 51 -18 96 36 24 28 91 104 150
169 59 65 115 130 124 144 15 24 15 26 -16 64 -77 98 -144 138 -216 129 -32
-3 -34 -16 -19 -104 6 -33 1 -61 -20 -125 -15 -46 -29 -86 -31 -88 -5 -5 -467
-49 -473 -45 -9 7 23 215 49 320 20 80 27 122 20 134 -23 44 -149 113 -227
126 -40 6 -42 5 -49 -20z"/>
<path d="M2410 1848 c-41 -5 -293 -40 -560 -78 -497 -71 -770 -104 -943 -116
-57 -4 -104 -13 -115 -20 -16 -13 -16 -15 6 -33 12 -11 57 -31 100 -45 88 -30
80 -30 365 18 201 34 247 39 247 26 0 -19 -57 -124 -117 -215 -219 -331 -502
-606 -833 -810 -52 -32 -106 -69 -120 -82 l-25 -23 29 0 c39 0 191 52 278 96
159 79 330 208 496 372 45 45 84 82 86 82 8 0 36 -138 71 -348 44 -260 41
-249 66 -257 27 -9 74 35 90 84 6 20 14 39 18 43 7 8 173 24 391 38 294 19
425 33 448 47 33 20 27 51 -17 93 l-38 37 59 79 c32 43 82 104 111 134 30 30
57 61 61 68 21 35 -78 124 -213 192 -73 36 -54 37 -296 -13 -232 -49 -628
-104 -644 -91 -2 2 8 21 23 41 15 21 61 86 102 145 41 59 100 128 130 154 29
25 54 50 54 54 0 5 -20 32 -45 61 -25 29 -44 54 -42 55 4 4 293 31 512 48 128
10 225 11 335 5 168 -8 250 -4 277 17 41 30 -35 98 -142 128 -74 21 -121 24
-205 14z m-180 -747 c5 -11 10 -43 10 -73 0 -59 -56 -307 -74 -324 -6 -6 -137
-23 -291 -38 -154 -15 -296 -30 -316 -33 l-36 -5 -22 207 c-12 114 -19 210
-16 213 2 3 130 18 282 33 445 45 449 45 463 20z"/>
</g>
</svg>
