<?xml version="1.0" standalone="no"?>
<!DOCTYPE svg PUBLIC "-//W3C//DTD SVG 20010904//EN"
 "http://www.w3.org/TR/2001/REC-SVG-20010904/DTD/svg10.dtd">
<svg version="1.0" xmlns="http://www.w3.org/2000/svg"
 width="340.000000pt" height="340.000000pt" viewBox="0 0 340.000000 340.000000"
 preserveAspectRatio="xMidYMid meet">
<metadata>
Created by potrace 1.15, written by Peter Selinger 2001-2017
</metadata>
<g transform="translate(0.000000,340.000000) scale(0.100000,-0.100000)"
fill="#000000" stroke="none">
<path d="M1790 2738 c0 -7 7 -33 16 -58 27 -75 21 -189 -16 -302 -80 -250
-196 -483 -382 -769 -81 -125 -99 -159 -82 -159 16 0 134 93 181 143 106 112
299 439 363 616 13 34 26 60 31 59 4 -2 33 -34 64 -73 75 -92 450 -491 480
-511 37 -24 175 -33 360 -23 185 10 229 18 233 40 1 10 -47 30 -175 72 -331
107 -537 226 -823 477 -86 75 -105 96 -103 117 1 14 29 81 63 149 33 67 60
127 60 132 0 19 -79 79 -119 90 -53 16 -151 16 -151 0z"/>
<path d="M753 2454 c-3 -9 2 -38 12 -63 55 -141 57 -154 62 -303 3 -81 2 -285
-2 -452 l-7 -305 -72 -30 c-39 -16 -83 -33 -98 -36 -33 -9 -32 -25 -18 234
l11 184 -23 25 c-44 47 -158 83 -158 49 0 -7 15 -40 32 -73 32 -57 33 -64 33
-169 0 -118 -22 -211 -71 -304 -22 -44 -23 -49 -10 -103 15 -65 39 -108 61
-108 8 0 41 24 73 53 95 87 219 166 430 271 90 45 134 62 136 54 3 -7 7 -30
10 -52 3 -21 13 -50 22 -64 16 -25 17 -25 31 -6 7 10 18 34 23 54 6 19 36 127
69 240 32 113 62 224 66 247 6 41 5 44 -42 91 -52 52 -117 82 -135 64 -8 -8
-6 -31 6 -76 9 -36 16 -84 15 -108 0 -60 -42 -296 -54 -306 -16 -14 -224 -96
-230 -90 -13 13 32 619 60 812 8 55 15 119 15 142 0 40 -4 45 -45 74 -95 65
-188 90 -202 54z"/>
<path d="M1733 1683 c-26 -10 -11 -32 76 -116 135 -130 192 -150 237 -82 40
61 -24 159 -126 189 -50 15 -160 21 -187 9z"/>
<path d="M2137 1364 c-147 -80 -544 -174 -733 -174 -89 0 -60 -57 50 -99 l55
-20 224 74 c277 91 387 121 397 105 4 -7 3 -30 -2 -53 -18 -82 -164 -407 -182
-407 -6 0 -47 14 -90 30 -112 43 -236 74 -248 62 -16 -16 5 -43 84 -109 40
-34 116 -105 168 -158 135 -138 226 -215 253 -215 28 0 73 45 82 82 11 43 -33
125 -108 203 -37 39 -67 71 -67 73 0 2 21 36 46 75 113 174 262 350 326 383
62 32 25 87 -92 135 -80 32 -121 36 -163 13z"/>
</g>
</svg>
