<?xml version="1.0" standalone="no"?>
<!DOCTYPE svg PUBLIC "-//W3C//DTD SVG 20010904//EN"
 "http://www.w3.org/TR/2001/REC-SVG-20010904/DTD/svg10.dtd">
<svg version="1.0" xmlns="http://www.w3.org/2000/svg"
 width="340.000000pt" height="340.000000pt" viewBox="0 0 340.000000 340.000000"
 preserveAspectRatio="xMidYMid meet">
<metadata>
Created by potrace 1.15, written by Peter Selinger 2001-2017
</metadata>
<g transform="translate(0.000000,340.000000) scale(0.100000,-0.100000)"
fill="#000000" stroke="none">
<path d="M1703 2963 c-18 -3 -23 -11 -23 -33 0 -16 4 -31 9 -34 5 -3 17 -36
27 -73 14 -51 19 -103 19 -208 l0 -140 -190 -32 c-104 -17 -198 -32 -209 -32
-18 -1 -18 6 -12 117 7 112 6 118 -16 152 -27 41 -79 70 -125 70 -32 0 -43
-12 -23 -25 24 -15 50 -86 50 -137 0 -61 -33 -141 -73 -175 -48 -40 -45 -144
6 -191 l22 -21 120 45 c139 52 281 91 485 134 154 33 437 80 482 80 26 0 26
-1 21 -58 -4 -46 -2 -62 11 -75 26 -26 44 -10 142 120 48 65 103 138 121 163
19 24 36 54 39 67 12 45 -79 133 -171 169 -69 26 -75 19 -75 -86 0 -50 -7
-120 -16 -155 -15 -59 -18 -64 -47 -69 -60 -10 -406 -40 -411 -35 -8 8 21 152
49 241 l27 87 -26 34 c-33 42 -91 84 -137 97 -35 10 -38 10 -76 3z"/>
<path d="M2220 2203 c-14 -3 -111 -27 -216 -54 -234 -59 -342 -84 -503 -114
l-125 -23 -73 29 c-84 33 -153 47 -153 31 0 -6 7 -37 15 -69 20 -77 19 -136
-6 -256 -78 -389 -303 -766 -623 -1047 -47 -41 -86 -78 -86 -82 0 -16 42 -7
93 18 187 95 382 283 544 527 36 54 68 96 72 94 145 -78 185 -81 423 -28 102
22 205 44 229 47 l44 6 -6 -363 c-8 -448 4 -600 44 -586 24 7 56 69 71 135 26
115 37 258 45 544 3 152 10 280 15 285 4 4 174 8 377 9 346 0 370 2 389 19 15
14 20 29 18 54 -3 32 -9 39 -51 62 -27 14 -83 34 -125 43 l-77 18 -140 -32
c-172 -39 -396 -73 -407 -62 -5 5 -7 60 -6 122 l3 113 110 28 c185 46 275 83
275 113 0 19 -56 53 -100 61 -38 7 -118 -10 -335 -70 -71 -19 -208 -51 -303
-71 -185 -37 -202 -42 -202 -53 0 -31 175 -55 296 -41 49 5 95 10 102 10 9 0
12 -31 12 -124 0 -110 -2 -125 -17 -130 -39 -11 -610 -86 -658 -86 -20 0 -16
15 62 253 45 138 92 284 103 324 l20 72 58 6 c136 15 407 57 532 81 74 14 203
38 285 54 158 30 200 43 210 68 19 51 -111 87 -235 65z"/>
</g>
</svg>
