<?xml version="1.0" standalone="no"?>
<!DOCTYPE svg PUBLIC "-//W3C//DTD SVG 20010904//EN"
 "http://www.w3.org/TR/2001/REC-SVG-20010904/DTD/svg10.dtd">
<svg version="1.0" xmlns="http://www.w3.org/2000/svg"
 width="340.000000pt" height="340.000000pt" viewBox="0 0 340.000000 340.000000"
 preserveAspectRatio="xMidYMid meet">
<metadata>
Created by potrace 1.15, written by Peter Selinger 2001-2017
</metadata>
<g transform="translate(0.000000,340.000000) scale(0.100000,-0.100000)"
fill="#000000" stroke="none">
<path d="M1953 2834 c-3 -9 12 -54 35 -103 59 -121 52 -86 118 -631 8 -69 17
-133 20 -142 4 -13 -7 -20 -48 -32 -29 -8 -104 -31 -167 -50 l-113 -34 7 117
c7 133 7 133 -79 171 l-48 22 114 50 c62 27 119 52 126 55 6 3 12 18 12 33 0
35 -49 80 -115 105 -53 21 -57 18 -75 -45 -5 -19 -13 -40 -17 -46 -12 -16
-190 -155 -260 -203 -105 -70 -81 -75 80 -16 48 18 89 29 92 26 12 -21 46
-165 51 -222 l7 -65 -114 -34 c-63 -18 -123 -38 -133 -43 -18 -9 -18 -10 -2
-19 45 -25 132 -27 219 -3 l27 7 0 -185 0 -185 -81 -47 c-137 -79 -360 -192
-444 -225 -94 -37 -105 -45 -105 -76 0 -27 35 -54 113 -89 l55 -24 40 27 c22
15 91 71 153 125 116 101 252 207 265 207 11 0 -5 -263 -22 -358 -15 -86 -31
-129 -57 -150 -12 -10 -24 -9 -58 2 -68 23 -129 31 -129 17 0 -7 21 -36 47
-65 26 -30 65 -84 88 -122 49 -80 81 -104 118 -87 73 34 127 312 127 667 1
155 2 162 23 177 12 9 63 44 114 77 98 66 111 78 96 93 -6 6 -49 -9 -114 -41
-57 -27 -107 -50 -111 -50 -5 0 -8 76 -8 170 l0 169 38 10 c20 5 91 23 156 40
65 17 125 31 132 31 8 0 15 -19 19 -47 4 -27 26 -147 50 -268 23 -121 45 -234
48 -252 7 -37 -12 -57 -220 -227 -73 -59 -133 -112 -133 -117 0 -10 28 -5 90
13 42 13 189 103 260 159 28 22 52 39 53 37 1 -1 28 -55 60 -118 63 -126 190
-328 269 -427 56 -71 150 -145 226 -179 64 -29 98 -30 112 -5 5 11 10 86 10
173 0 84 5 201 10 261 8 78 7 113 -1 128 -13 26 -21 18 -44 -46 -29 -79 -94
-205 -121 -231 -23 -24 -25 -24 -56 -8 -53 27 -151 132 -215 230 -60 92 -163
283 -163 303 0 6 23 39 51 73 27 35 85 115 128 178 43 63 88 124 100 134 31
28 26 51 -20 101 -40 43 -85 65 -137 65 -22 0 -23 -1 -16 -89 l7 -89 -40 -74
c-22 -40 -58 -99 -80 -131 -36 -51 -41 -55 -46 -35 -21 88 -78 398 -83 456
l-7 70 44 12 c24 7 122 29 217 50 184 40 212 53 192 89 -28 54 -94 53 -285 -3
-83 -24 -156 -45 -164 -47 -21 -6 -28 40 -42 257 -10 148 -10 223 -1 340 l12
149 -41 37 c-40 36 -111 69 -177 81 -25 5 -34 3 -39 -9z"/>
<path d="M810 2468 c0 -18 14 -62 31 -98 55 -116 59 -159 59 -616 l0 -414 -32
-13 c-71 -29 -167 -61 -171 -57 -2 3 0 87 5 188 10 210 6 228 -68 269 -39 23
-134 33 -134 14 0 -5 14 -38 31 -75 44 -94 64 -221 50 -310 -12 -73 -51 -166
-83 -198 -39 -39 -10 -178 37 -178 7 0 34 20 61 45 98 90 284 205 532 329
l112 56 0 -81 c0 -84 10 -119 35 -119 21 0 54 57 59 105 3 22 18 132 33 244
l28 204 -34 27 c-46 39 -137 73 -161 60 -17 -9 -17 -11 0 -45 23 -46 42 -180
38 -274 l-3 -73 -107 -38 -108 -39 0 132 c0 264 30 617 64 760 l13 57 -40 46
c-43 49 -101 83 -186 108 -30 9 -56 16 -58 16 -2 0 -3 -15 -3 -32z"/>
<path d="M2367 2493 c-18 -18 -1 -46 61 -100 95 -83 142 -119 186 -139 l38
-18 19 24 c44 58 13 147 -64 186 -72 37 -221 66 -240 47z"/>
</g>
</svg>
