<?xml version="1.0" standalone="no"?>
<!DOCTYPE svg PUBLIC "-//W3C//DTD SVG 20010904//EN"
 "http://www.w3.org/TR/2001/REC-SVG-20010904/DTD/svg10.dtd">
<svg version="1.0" xmlns="http://www.w3.org/2000/svg"
 width="340.000000pt" height="340.000000pt" viewBox="0 0 340.000000 340.000000"
 preserveAspectRatio="xMidYMid meet">
<metadata>
Created by potrace 1.15, written by Peter Selinger 2001-2017
</metadata>
<g transform="translate(0.000000,340.000000) scale(0.100000,-0.100000)"
fill="#000000" stroke="none">
<path d="M1685 2859 l0 -94 -58 -110 c-61 -114 -227 -375 -253 -396 -8 -7 -20
-21 -25 -31 -20 -38 30 -18 105 43 85 68 68 69 194 -8 39 -25 72 -48 72 -53 0
-12 -269 -270 -345 -331 -96 -77 -175 -133 -175 -122 1 4 7 35 15 68 24 98 20
130 -17 158 -54 40 -95 57 -138 57 -22 0 -40 -3 -40 -8 0 -4 9 -39 20 -77 12
-41 23 -118 27 -187 l6 -116 -99 -31 c-54 -16 -112 -33 -128 -37 l-29 -7 6
229 c7 258 17 365 53 541 13 67 24 133 24 147 0 16 -15 38 -47 66 -65 57 -96
71 -166 78 -69 6 -67 21 -23 -138 36 -131 44 -242 48 -633 l3 -338 -117 -49
-118 -48 0 176 c0 165 -1 178 -22 208 -29 41 -65 63 -122 70 -57 8 -58 0 -17
-94 44 -100 54 -152 49 -252 -3 -76 -9 -98 -36 -151 -18 -34 -32 -67 -32 -74
0 -20 58 -93 79 -100 15 -4 45 10 108 53 128 86 258 160 428 245 l150 75 5
-74 c4 -41 11 -79 17 -85 38 -38 85 38 103 165 l12 84 51 28 c161 88 377 252
506 384 l64 66 126 -95 c69 -52 214 -153 321 -224 l195 -130 85 6 c88 7 215
36 383 89 140 44 136 48 -81 73 -263 30 -506 97 -720 200 -90 43 -215 111
-241 131 -2 2 18 29 45 61 114 136 189 215 257 269 39 32 76 61 81 65 17 15
-21 54 -93 97 -39 23 -76 42 -82 42 -6 0 -52 -15 -103 -34 -93 -35 -204 -62
-226 -54 -8 2 9 29 41 67 100 118 113 139 99 155 -22 27 -116 67 -171 73 l-54
5 0 -93z m307 -277 c16 -16 -80 -161 -179 -268 l-38 -41 -102 56 -101 57 80
106 79 107 126 -4 c70 -3 130 -8 135 -13z"/>
<path d="M1713 1944 c-3 -8 5 -57 17 -109 12 -52 20 -100 17 -108 -6 -15 -94
-38 -217 -58 -91 -14 -140 -28 -140 -40 0 -5 17 -17 38 -26 29 -12 59 -14 142
-10 58 4 122 9 143 13 l37 7 0 -87 c0 -47 -3 -86 -8 -86 -10 0 -288 -38 -329
-45 -43 -8 -42 -22 5 -42 30 -12 61 -14 162 -10 69 3 135 9 148 13 22 6 22 5
22 -85 0 -50 -1 -91 -2 -91 -74 -4 -734 -92 -742 -100 -19 -19 8 -44 75 -67
85 -30 104 -29 282 12 83 19 195 41 247 50 52 8 105 18 118 20 l22 5 0 -192
c0 -224 15 -514 29 -549 9 -24 9 -24 24 11 24 55 46 225 58 440 6 107 13 218
15 247 l5 51 127 7 c70 4 217 5 327 1 169 -6 203 -4 220 8 19 14 19 17 5 43
-36 64 -168 111 -280 98 -45 -5 -276 -41 -383 -60 l-28 -5 3 92 3 93 75 16
c41 10 110 25 152 34 43 9 88 25 100 36 l23 19 -24 20 c-32 28 -78 25 -204
-10 -59 -17 -112 -30 -118 -30 -6 0 -9 29 -7 76 l3 77 147 37 c81 20 161 43
177 50 42 17 48 40 16 67 -21 19 -38 23 -89 23 -52 0 -157 -20 -240 -46 -16
-5 -18 -2 -12 32 3 22 9 60 12 85 l6 46 -50 21 c-60 26 -120 29 -129 6z"/>
</g>
</svg>
