<?xml version="1.0" standalone="no"?>
<!DOCTYPE svg PUBLIC "-//W3C//DTD SVG 20010904//EN"
 "http://www.w3.org/TR/2001/REC-SVG-20010904/DTD/svg10.dtd">
<svg version="1.0" xmlns="http://www.w3.org/2000/svg"
 width="340.000000pt" height="340.000000pt" viewBox="0 0 340.000000 340.000000"
 preserveAspectRatio="xMidYMid meet">
<metadata>
Created by potrace 1.15, written by Peter Selinger 2001-2017
</metadata>
<g transform="translate(0.000000,340.000000) scale(0.100000,-0.100000)"
fill="#000000" stroke="none">
<path d="M1933 2708 c2 -100 1 -105 -36 -182 -77 -162 -190 -300 -309 -379
-54 -35 -58 -41 -58 -75 1 -20 9 -59 18 -86 23 -67 45 -74 114 -35 141 78 331
154 567 224 l123 37 37 -29 c57 -46 125 -83 153 -83 28 0 48 33 48 80 0 44
-15 75 -60 124 -31 34 -57 50 -103 65 -147 48 -248 63 -262 41 -4 -6 26 -44
66 -85 40 -41 70 -75 67 -75 -4 0 -124 -21 -268 -46 -144 -25 -268 -44 -277
-42 -9 2 56 76 177 203 106 110 208 219 227 242 33 40 34 42 20 76 -25 59
-102 105 -204 121 l-42 6 2 -102z"/>
<path d="M747 2366 c-3 -8 12 -42 33 -75 75 -117 88 -198 97 -631 l6 -295
-103 -45 c-56 -25 -106 -47 -112 -49 -6 -2 -7 62 -3 175 5 139 3 185 -7 204
-31 58 -158 123 -178 91 -4 -7 3 -38 16 -69 29 -72 44 -164 44 -267 0 -87 -17
-136 -63 -191 -33 -39 -33 -52 -2 -114 24 -48 57 -80 82 -80 8 0 43 27 78 60
71 66 156 124 285 193 89 48 290 140 295 135 2 -2 8 -36 14 -77 6 -40 16 -82
22 -93 10 -19 11 -19 30 -2 32 29 89 259 89 362 0 19 10 75 22 123 l22 89 -35
36 c-39 41 -101 73 -141 74 -32 0 -33 -3 -14 -79 20 -76 22 -128 13 -246 l-8
-101 -101 -39 c-56 -22 -105 -41 -109 -43 -17 -7 -11 610 7 725 14 99 14 106
-2 124 -32 36 -108 79 -172 99 -76 24 -98 25 -105 6z"/>
<path d="M2178 1929 c-44 -17 -41 -34 15 -81 123 -105 227 -171 303 -194 44
-13 46 -13 70 13 43 47 28 110 -44 175 -42 38 -95 59 -207 83 -80 17 -99 17
-137 4z"/>
<path d="M1681 1878 c-4 -13 -11 -41 -15 -62 -14 -76 -86 -190 -207 -327 -49
-55 -57 -69 -45 -78 11 -9 22 -9 48 2 43 18 200 160 306 276 69 75 82 95 77
113 -11 36 -56 77 -94 88 -52 14 -61 13 -70 -12z"/>
<path d="M1749 1554 c-1 -5 -2 -47 -3 -94 -1 -77 -5 -93 -39 -165 -140 -293
-415 -596 -654 -720 -26 -14 -61 -36 -78 -50 -27 -22 -28 -24 -9 -25 68 -1
222 70 384 177 166 109 269 215 393 401 l55 82 108 -132 c59 -73 111 -138 116
-144 11 -15 -66 -100 -144 -159 -89 -67 -188 -123 -311 -176 -60 -26 -111 -50
-114 -53 -12 -12 144 -5 205 9 160 38 325 126 426 228 l51 52 125 -125 c69
-69 150 -143 182 -164 51 -35 64 -39 140 -43 83 -6 287 15 398 40 44 10 55 17
55 32 0 16 -19 24 -125 51 -245 62 -462 151 -619 255 l-79 51 28 62 c15 33 49
122 75 196 26 74 59 156 73 183 21 39 23 51 14 71 -13 28 -71 65 -162 102
l-62 25 -107 -50 c-58 -27 -119 -53 -135 -57 -26 -6 -28 -5 -21 12 4 10 10 34
13 52 4 30 1 33 -44 54 -53 23 -133 36 -135 22z m438 -256 c-6 -83 -34 -207
-63 -285 l-17 -42 -44 32 c-25 17 -87 72 -140 122 l-95 90 29 67 28 68 45 1
c25 0 81 6 125 14 44 7 93 13 109 14 l29 1 -6 -82z"/>
</g>
</svg>
