<?xml version="1.0" standalone="no"?>
<!DOCTYPE svg PUBLIC "-//W3C//DTD SVG 20010904//EN"
 "http://www.w3.org/TR/2001/REC-SVG-20010904/DTD/svg10.dtd">
<svg version="1.0" xmlns="http://www.w3.org/2000/svg"
 width="340.000000pt" height="340.000000pt" viewBox="0 0 340.000000 340.000000"
 preserveAspectRatio="xMidYMid meet">
<metadata>
Created by potrace 1.15, written by Peter Selinger 2001-2017
</metadata>
<g transform="translate(0.000000,340.000000) scale(0.100000,-0.100000)"
fill="#000000" stroke="none">
<path d="M1681 2982 c-17 -12 -12 -35 24 -120 32 -76 51 -173 60 -309 l7 -102
-33 -6 c-158 -29 -441 -70 -444 -64 -3 4 7 69 22 144 l26 136 -20 27 c-45 62
-161 109 -202 83 -16 -10 -15 -12 44 -87 27 -34 30 -44 29 -110 0 -60 -5 -83
-33 -138 -19 -39 -46 -77 -67 -92 -31 -24 -34 -31 -34 -76 0 -94 50 -141 107
-100 62 43 281 123 468 171 169 42 636 131 691 131 16 0 19 -8 19 -54 0 -55
22 -96 51 -96 43 0 116 112 169 260 14 41 35 90 47 108 l20 33 -27 39 c-49 70
-117 111 -207 124 -65 10 -72 3 -48 -45 32 -61 43 -140 31 -216 -5 -36 -13
-68 -16 -71 -10 -10 -470 -81 -478 -73 -12 12 10 219 34 321 l22 93 -24 20
c-68 55 -201 93 -238 69z"/>
<path d="M1793 2253 c-18 -7 -16 -49 3 -68 26 -26 132 -95 170 -111 32 -13 38
-13 60 1 20 13 24 24 24 61 0 66 -34 97 -121 113 -68 11 -115 13 -136 4z"/>
<path d="M1342 2187 c-6 -7 -18 -45 -27 -84 -47 -206 -300 -508 -659 -786
-114 -88 -117 -92 -87 -95 36 -4 113 19 182 54 85 42 206 143 342 284 l134
139 6 -102 c7 -137 -9 -500 -28 -634 -18 -120 -36 -199 -67 -288 -35 -105 -10
-248 61 -335 18 -22 22 -23 34 -10 31 32 59 155 81 361 10 91 15 113 27 109
43 -14 190 -10 306 9 305 49 678 65 928 41 150 -15 267 -15 293 -1 13 7 22 21
22 35 0 69 -179 135 -329 121 -164 -16 -449 -46 -483 -51 l-38 -6 0 140 0 140
68 12 c174 30 342 82 342 105 0 20 -37 41 -83 49 -37 7 -71 1 -254 -44 l-73
-18 0 123 0 122 88 12 c93 13 234 46 265 62 33 18 17 52 -31 68 -39 12 -57 11
-165 -8 -67 -12 -130 -24 -139 -26 -16 -3 -18 8 -18 114 l0 118 104 17 c131
22 359 80 405 105 69 35 36 91 -55 91 -23 0 -158 -29 -300 -64 -143 -35 -335
-81 -429 -100 -271 -58 -296 -67 -238 -83 37 -10 228 -10 321 0 l72 8 0 -120
0 -121 -32 0 c-56 0 -296 -38 -320 -51 -21 -11 -21 -12 -2 -26 15 -11 53 -14
187 -11 l167 3 0 -126 0 -127 -77 -7 c-95 -8 -218 -31 -256 -46 -74 -31 25
-53 211 -46 l122 4 0 -143 0 -143 -42 -5 c-24 -4 -113 -13 -198 -21 -85 -9
-199 -21 -253 -29 l-98 -13 7 386 c6 341 5 396 -10 469 l-17 83 53 67 c28 37
65 82 81 101 16 18 36 48 44 67 16 32 15 35 -9 71 -31 47 -120 100 -136 80z"/>
</g>
</svg>
