<?xml version="1.0" standalone="no"?>
<!DOCTYPE svg PUBLIC "-//W3C//DTD SVG 20010904//EN"
 "http://www.w3.org/TR/2001/REC-SVG-20010904/DTD/svg10.dtd">
<svg version="1.0" xmlns="http://www.w3.org/2000/svg"
 width="340.000000pt" height="340.000000pt" viewBox="0 0 340.000000 340.000000"
 preserveAspectRatio="xMidYMid meet">
<metadata>
Created by potrace 1.15, written by Peter Selinger 2001-2017
</metadata>
<g transform="translate(0.000000,340.000000) scale(0.100000,-0.100000)"
fill="#000000" stroke="none">
<path d="M2340 2633 c-56 -40 -152 -81 -256 -108 -145 -38 -213 -41 -311 -16
-131 34 -142 28 -103 -49 27 -54 43 -178 35 -280 -27 -363 -109 -674 -256
-970 -118 -238 -242 -415 -447 -637 -60 -66 -97 -113 -88 -113 28 0 112 36
159 69 163 112 418 435 510 646 77 177 196 571 242 800 4 19 31 25 272 69 147
26 298 54 336 63 103 22 121 52 65 105 -31 28 -31 30 -16 61 9 18 50 70 91
115 42 45 79 92 82 103 16 49 -49 101 -179 143 -43 14 -84 26 -90 26 -6 -1
-27 -12 -46 -27z m30 -184 c0 -46 -33 -149 -62 -197 -22 -36 -79 -68 -178
-100 -85 -28 -271 -74 -276 -69 -5 4 16 310 21 315 5 6 301 71 385 86 99 17
110 13 110 -35z"/>
<path d="M850 2410 c0 -13 13 -62 30 -110 40 -116 50 -222 50 -541 l0 -267
-102 -41 c-57 -23 -109 -41 -115 -41 -10 0 -13 38 -13 159 0 183 -3 191 -92
235 -44 22 -108 35 -108 22 0 -2 16 -37 35 -77 59 -127 70 -280 26 -367 -35
-68 -23 -173 23 -211 14 -12 23 -8 70 37 65 62 160 124 281 184 86 43 249 109
307 123 l27 7 -5 -89 c-12 -202 62 -128 160 162 24 72 54 150 65 175 28 62 26
84 -11 116 -42 35 -134 78 -153 70 -12 -4 -15 -27 -15 -105 0 -55 -5 -134 -11
-175 l-11 -76 -109 -35 c-60 -19 -116 -35 -124 -35 -13 0 -15 11 -10 73 26
355 41 468 76 596 l20 74 -38 39 c-42 43 -157 104 -215 114 -35 6 -38 4 -38
-16z"/>
<path d="M2054 1866 c-3 -8 8 -44 25 -79 46 -95 63 -184 65 -327 l1 -124 -115
-27 c-63 -14 -119 -24 -124 -21 -5 3 -6 44 -4 93 5 85 5 89 -23 122 -33 40
-85 65 -101 49 -7 -7 -6 -27 2 -64 12 -52 10 -111 -6 -266 -7 -65 7 -122 31
-122 7 0 27 11 46 25 95 69 193 115 274 131 l38 7 -7 -119 c-3 -66 -9 -167
-12 -226 l-6 -107 -112 -25 c-61 -14 -126 -29 -145 -32 l-34 -7 6 34 c4 19 10
66 13 104 6 65 5 73 -17 98 -13 15 -35 28 -49 29 -24 3 -25 0 -31 -67 -8 -102
-42 -155 -145 -226 -42 -29 -44 -32 -44 -80 0 -55 17 -136 31 -145 5 -3 29 9
54 26 74 51 259 135 405 184 116 39 522 150 525 143 1 -1 14 -60 29 -132 32
-149 58 -225 86 -250 18 -16 20 -16 44 8 38 38 45 86 42 304 -2 155 -6 206
-17 219 -8 10 -40 34 -72 55 -61 40 -126 56 -164 42 l-22 -8 24 -53 c21 -46
47 -122 41 -122 -1 0 -71 -16 -155 -35 -83 -19 -159 -35 -168 -35 -14 0 -15
21 -9 192 4 106 10 207 12 224 l6 31 116 21 c64 12 132 24 150 28 28 6 32 4
32 -15 0 -11 9 -30 21 -42 30 -30 42 -15 116 137 35 73 70 137 77 143 27 23
25 51 -5 86 -41 47 -104 75 -167 75 -58 0 -61 -5 -37 -63 26 -62 12 -257 -18
-257 -7 0 -70 -9 -142 -20 -71 -11 -133 -20 -137 -20 -20 0 6 249 37 371 l17
64 -29 22 c-65 53 -235 86 -249 49z"/>
</g>
</svg>
