<?xml version="1.0" standalone="no"?>
<!DOCTYPE svg PUBLIC "-//W3C//DTD SVG 20010904//EN"
 "http://www.w3.org/TR/2001/REC-SVG-20010904/DTD/svg10.dtd">
<svg version="1.0" xmlns="http://www.w3.org/2000/svg"
 width="340.000000pt" height="340.000000pt" viewBox="0 0 340.000000 340.000000"
 preserveAspectRatio="xMidYMid meet">
<metadata>
Created by potrace 1.15, written by Peter Selinger 2001-2017
</metadata>
<g transform="translate(0.000000,340.000000) scale(0.100000,-0.100000)"
fill="#000000" stroke="none">
<path d="M1570 2957 c0 -13 13 -43 28 -68 16 -24 32 -57 36 -73 6 -26 10 -336
3 -342 -6 -6 -377 -67 -382 -63 -3 3 6 43 20 90 31 107 31 120 -2 151 -40 37
-66 48 -112 48 -38 0 -41 -2 -41 -27 1 -16 7 -39 15 -53 37 -64 12 -135 -81
-230 -42 -44 -43 -46 -33 -89 11 -47 33 -96 49 -106 6 -3 34 7 63 23 80 45
149 69 307 106 241 58 704 128 743 113 8 -3 17 -24 21 -46 10 -63 26 -91 52
-91 27 0 46 32 89 155 16 44 46 104 67 134 21 30 38 62 38 72 0 29 -102 113
-160 132 -74 24 -94 23 -86 -5 28 -110 29 -125 15 -199 l-14 -74 -130 -7 c-71
-3 -165 -9 -207 -11 l-78 -5 0 30 c0 17 14 91 30 165 17 73 30 144 30 157 0
55 -146 136 -246 136 -29 0 -34 -4 -34 -23z"/>
<path d="M2244 2193 c-20 -89 -26 -104 -61 -132 -21 -17 -67 -47 -104 -66 -62
-33 -73 -35 -158 -35 -109 0 -116 -7 -78 -83 39 -80 51 -164 50 -352 -1 -388
-103 -626 -376 -873 -52 -48 -63 -78 -23 -62 135 51 295 172 368 278 66 95
126 285 157 500 10 68 21 125 24 128 5 6 172 23 223 24 28 0 33 -4 38 -33 3
-17 8 -259 11 -537 6 -497 12 -599 41 -637 12 -17 15 -16 38 12 65 78 76 172
76 698 l0 438 -25 33 c-14 18 -25 37 -25 43 0 6 55 13 133 17 173 8 304 24
336 39 19 9 26 20 26 42 0 27 -7 33 -60 60 -35 17 -74 29 -95 29 -19 -1 -123
-23 -230 -49 -107 -26 -260 -60 -340 -75 l-145 -27 -7 36 c-4 20 -7 91 -7 157
l-1 122 128 53 c70 29 174 69 232 89 l105 36 0 35 c0 29 -5 37 -42 57 -40 22
-163 62 -190 62 -7 0 -15 -12 -19 -27z"/>
<path d="M1205 2190 c-3 -4 -1 -30 4 -56 8 -41 5 -62 -18 -133 -23 -73 -30
-86 -53 -92 -14 -4 -108 -17 -209 -30 -216 -26 -247 -39 -178 -74 56 -29 154
-44 223 -34 35 4 70 11 80 15 57 22 -48 -117 -199 -264 l-118 -114 6 -65 c7
-94 16 -99 107 -62 66 27 369 119 392 119 14 0 10 -250 -4 -254 -34 -10 -443
-98 -518 -111 -47 -8 -106 -15 -131 -15 -49 0 -59 -9 -59 -54 0 -34 27 -64 82
-92 37 -19 62 -25 87 -21 20 2 115 38 211 79 209 90 328 133 337 124 11 -11
-15 -185 -43 -286 -14 -52 -28 -114 -31 -138 -10 -82 35 -192 77 -192 28 0 47
45 65 147 12 74 34 367 35 469 0 30 1 31 139 78 77 26 147 56 155 65 18 20 21
51 5 51 -17 0 -124 -28 -212 -56 -43 -13 -80 -24 -83 -24 -6 0 -3 137 4 194
l7 50 130 27 c72 16 142 28 156 29 15 0 37 9 50 20 l24 20 -28 25 c-39 34 -77
32 -207 -12 -60 -21 -112 -35 -115 -31 -4 3 -1 40 6 82 13 74 12 75 -12 95
-13 11 -41 28 -62 37 -30 14 -42 15 -63 5 -29 -13 -28 -9 -5 -121 6 -25 10
-64 11 -86 l0 -42 -87 -16 c-134 -25 -225 -37 -231 -32 -2 3 58 90 135 193
l139 188 114 22 c326 64 372 81 355 133 -19 60 -55 63 -241 15 -75 -20 -139
-33 -142 -31 -3 3 17 31 44 62 74 85 76 88 65 117 -6 14 -24 33 -40 42 -40 20
-150 45 -156 35z"/>
</g>
</svg>
