<?xml version="1.0" standalone="no"?>
<!DOCTYPE svg PUBLIC "-//W3C//DTD SVG 20010904//EN"
 "http://www.w3.org/TR/2001/REC-SVG-20010904/DTD/svg10.dtd">
<svg version="1.0" xmlns="http://www.w3.org/2000/svg"
 width="340.000000pt" height="340.000000pt" viewBox="0 0 340.000000 340.000000"
 preserveAspectRatio="xMidYMid meet">
<metadata>
Created by potrace 1.15, written by Peter Selinger 2001-2017
</metadata>
<g transform="translate(0.000000,340.000000) scale(0.100000,-0.100000)"
fill="#000000" stroke="none">
<path d="M2085 2413 c-11 -2 -87 -19 -170 -38 -273 -62 -537 -103 -772 -121
-51 -3 -93 -10 -93 -14 0 -17 71 -69 107 -80 70 -20 197 -30 299 -24 l102 7 6
-49 c23 -184 37 -1051 20 -1256 l-7 -76 -46 -6 c-145 -19 -597 -58 -789 -68
-122 -7 -227 -15 -233 -19 -51 -31 170 -149 254 -136 18 3 102 21 187 41 340
78 580 98 1175 100 390 1 436 -1 490 -17 80 -24 222 -33 255 -15 33 18 35 37
8 78 -31 46 -88 84 -176 116 -71 26 -77 27 -225 21 -173 -7 -598 -56 -726 -83
l-24 -5 7 378 c4 208 11 446 16 528 6 83 13 207 16 277 l7 127 -61 38 c-34 21
-62 41 -62 44 0 3 33 9 73 13 208 19 467 71 547 110 83 41 58 102 -51 125 -50
11 -97 12 -134 4z"/>
<path d="M2168 1973 c-33 -5 -39 -20 -27 -69 21 -94 4 -184 -58 -309 -49 -96
-158 -255 -242 -351 -38 -43 -66 -83 -61 -87 22 -24 188 98 274 200 l61 74 69
-78 c108 -122 235 -242 262 -249 30 -8 47 12 64 72 23 81 -32 178 -124 219
-28 12 -91 33 -141 45 -49 12 -91 23 -93 25 -2 1 17 31 41 66 24 35 63 98 85
139 23 41 65 101 93 134 64 71 62 76 -42 128 -76 37 -114 47 -161 41z"/>
<path d="M1040 1844 c0 -14 7 -63 17 -109 23 -118 10 -186 -61 -330 -61 -124
-128 -223 -213 -315 -55 -60 -57 -63 -28 -56 96 23 224 131 299 254 22 34 42
62 45 62 3 0 24 -28 46 -62 82 -128 223 -251 247 -217 49 72 42 131 -24 196
-49 47 -97 73 -183 99 -33 10 -61 19 -63 20 -5 3 77 164 128 249 71 119 71
115 -2 163 -80 52 -128 72 -173 72 -31 0 -35 -3 -35 -26z"/>
</g>
</svg>
