<?xml version="1.0" standalone="no"?>
<!DOCTYPE svg PUBLIC "-//W3C//DTD SVG 20010904//EN"
 "http://www.w3.org/TR/2001/REC-SVG-20010904/DTD/svg10.dtd">
<svg version="1.0" xmlns="http://www.w3.org/2000/svg"
 width="340.000000pt" height="340.000000pt" viewBox="0 0 340.000000 340.000000"
 preserveAspectRatio="xMidYMid meet">
<metadata>
Created by potrace 1.15, written by Peter Selinger 2001-2017
</metadata>
<g transform="translate(0.000000,340.000000) scale(0.100000,-0.100000)"
fill="#000000" stroke="none">
<path d="M1815 2465 c-112 -81 -326 -160 -648 -240 -187 -47 -188 -47 -280
-37 -140 16 -165 6 -133 -56 7 -15 22 -61 32 -102 17 -67 19 -120 20 -520 0
-426 1 -448 22 -525 56 -205 171 -338 351 -406 169 -64 527 -102 778 -81 409
34 714 116 839 225 l40 36 -7 58 c-4 32 -17 101 -28 153 -12 52 -24 157 -28
233 -9 192 -36 224 -69 82 -74 -319 -96 -374 -163 -416 -100 -64 -346 -143
-526 -169 -284 -41 -731 -9 -870 63 -165 84 -218 214 -219 531 l-1 169 235 49
c504 103 901 195 918 212 12 13 -20 57 -68 93 -56 41 -55 34 -13 143 39 98 93
186 174 279 56 64 70 87 63 99 -16 24 -102 69 -215 111 -152 57 -146 57 -204
16z m47 -200 c16 -58 -24 -405 -54 -470 -13 -29 -70 -52 -198 -83 -128 -30
-150 -33 -150 -19 0 27 42 335 51 376 12 53 -3 81 -59 110 -20 11 -34 20 -31
21 4 0 85 20 180 44 256 65 249 64 261 21z m-532 -131 c11 -28 12 -364 2 -434
l-7 -45 -193 -53 c-106 -30 -195 -52 -197 -50 -11 11 22 339 46 456 10 51 13
54 57 73 53 23 238 77 265 78 10 1 22 -10 27 -25z"/>
</g>
</svg>
