<?xml version="1.0" standalone="no"?>
<!DOCTYPE svg PUBLIC "-//W3C//DTD SVG 20010904//EN"
 "http://www.w3.org/TR/2001/REC-SVG-20010904/DTD/svg10.dtd">
<svg version="1.0" xmlns="http://www.w3.org/2000/svg"
 width="340.000000pt" height="340.000000pt" viewBox="0 0 340.000000 340.000000"
 preserveAspectRatio="xMidYMid meet">
<metadata>
Created by potrace 1.15, written by Peter Selinger 2001-2017
</metadata>
<g transform="translate(0.000000,340.000000) scale(0.100000,-0.100000)"
fill="#000000" stroke="none">
<path d="M1550 2825 c-32 -38 70 -172 213 -279 90 -67 167 -39 167 60 0 81
-21 107 -129 157 -162 76 -226 92 -251 62z"/>
<path d="M2415 2483 c-49 -8 -238 -38 -420 -68 -548 -90 -920 -137 -1190 -151
-206 -11 -224 -30 -90 -94 99 -48 73 -49 415 6 256 40 477 67 490 59 6 -4 10
-77 10 -170 0 -163 0 -165 -22 -170 -13 -3 -95 -16 -184 -29 l-160 -24 -70 24
c-137 47 -158 29 -98 -84 l39 -75 0 -156 c-1 -123 -5 -170 -19 -221 -25 -84
-30 -156 -16 -208 14 -52 51 -98 73 -89 60 23 107 286 107 605 0 72 2 132 5
132 2 0 73 11 157 25 84 14 160 25 170 25 16 0 17 -43 21 -647 3 -556 6 -658
20 -717 16 -64 31 -96 46 -96 11 0 39 64 56 130 35 135 46 323 52 846 l6 511
101 12 c155 18 253 18 272 -1 26 -26 44 -124 51 -268 6 -153 -4 -214 -38 -223
-25 -7 -122 8 -202 30 -32 9 -60 13 -64 9 -4 -3 32 -45 78 -94 47 -48 113
-126 148 -174 34 -49 69 -88 76 -88 20 0 79 61 109 112 14 24 38 75 53 113 27
68 28 75 28 260 0 201 0 200 54 294 17 29 18 36 6 55 -21 31 -109 81 -195 110
l-76 25 -64 -20 c-59 -18 -293 -69 -319 -69 -8 0 -11 49 -11 164 l0 164 28 6
c106 21 547 45 839 46 145 0 193 8 193 34 0 47 -129 125 -239 146 -67 13 -112
11 -226 -7z"/>
</g>
</svg>
