<?xml version="1.0" standalone="no"?>
<!DOCTYPE svg PUBLIC "-//W3C//DTD SVG 20010904//EN"
 "http://www.w3.org/TR/2001/REC-SVG-20010904/DTD/svg10.dtd">
<svg version="1.0" xmlns="http://www.w3.org/2000/svg"
 width="340.000000pt" height="340.000000pt" viewBox="0 0 340.000000 340.000000"
 preserveAspectRatio="xMidYMid meet">
<metadata>
Created by potrace 1.15, written by Peter Selinger 2001-2017
</metadata>
<g transform="translate(0.000000,340.000000) scale(0.100000,-0.100000)"
fill="#000000" stroke="none">
<path d="M1575 2970 c-4 -6 -1 -19 6 -28 91 -119 174 -191 258 -222 l50 -19
25 30 c32 37 33 78 6 135 -16 33 -31 46 -69 63 -105 45 -260 68 -276 41z"/>
<path d="M2230 2730 c-47 -10 -164 -37 -262 -59 -213 -49 -471 -95 -631 -112
-111 -12 -122 -12 -201 9 -89 23 -131 27 -140 14 -3 -5 4 -32 14 -61 57 -149
41 -445 -45 -808 -44 -184 -109 -351 -208 -528 -55 -98 -199 -313 -278 -413
-47 -60 -60 -92 -40 -92 16 0 129 97 213 181 249 251 412 598 488 1045 11 64
20 121 20 126 0 6 16 -4 35 -21 20 -17 45 -31 56 -31 11 0 76 12 144 26 69 14
135 24 147 22 27 -4 33 -29 46 -185 10 -114 22 -153 48 -153 8 0 22 17 32 38
20 43 29 52 57 52 17 0 23 -10 33 -57 6 -32 14 -88 18 -124 8 -79 19 -71 -144
-94 -151 -20 -179 -19 -266 10 -64 22 -146 33 -146 21 0 -2 14 -33 30 -69 50
-105 65 -203 51 -322 -17 -151 -15 -207 12 -267 43 -97 79 -103 115 -18 22 53
23 64 20 305 l-3 250 135 22 c74 12 149 23 165 25 l30 3 5 -556 c5 -575 7
-597 45 -583 8 3 24 26 35 50 34 70 50 263 57 711 l6 402 47 10 c99 21 280 43
305 37 19 -5 33 -20 48 -54 18 -40 21 -65 21 -172 0 -106 -3 -132 -22 -173
-11 -26 -26 -47 -32 -47 -25 0 -157 33 -182 46 -48 25 -48 15 1 -34 26 -26 73
-83 103 -127 31 -44 68 -93 82 -109 l27 -28 32 20 c44 28 101 111 127 185 14
39 25 106 30 181 10 126 29 208 63 268 l21 38 -23 24 c-33 35 -127 82 -191 96
-49 11 -61 10 -105 -8 -46 -18 -218 -60 -319 -77 l-39 -6 6 43 c3 24 9 61 12
83 7 42 -5 63 -56 99 -13 9 -21 17 -18 20 2 2 71 8 153 14 82 6 153 15 158 20
13 13 1 34 -31 57 l-28 20 24 100 c13 55 29 105 36 112 8 8 107 16 312 24 316
12 325 13 325 59 0 41 -105 90 -192 90 -33 0 -336 -50 -406 -67 -21 -5 -22 -3
-12 22 6 15 24 46 40 69 50 70 49 86 -10 124 -28 18 -69 40 -91 48 -46 16
-115 19 -123 5 -3 -5 9 -36 26 -70 26 -51 32 -74 32 -129 1 -124 12 -115 -186
-141 -95 -12 -188 -25 -206 -28 l-34 -6 7 67 c7 67 7 68 -26 103 -62 64 -150
93 -179 58 -10 -12 -9 -19 4 -37 70 -97 116 -196 96 -208 -6 -4 -77 -15 -158
-24 -81 -9 -162 -18 -180 -21 -21 -2 -35 1 -38 9 -3 7 0 62 6 122 6 60 13 146
17 191 l6 82 51 5 c28 3 87 8 131 11 268 20 1066 133 1133 161 37 15 41 33 13
58 -53 48 -158 57 -301 26z m-193 -642 c-3 -13 -13 -65 -22 -115 -17 -91 -17
-93 -48 -98 -18 -3 -89 -16 -158 -28 l-127 -23 -6 60 c-3 32 -6 85 -6 116 l0
58 88 12 c48 7 121 18 162 25 115 20 123 19 117 -7z"/>
</g>
</svg>
