<?xml version="1.0" standalone="no"?>
<!DOCTYPE svg PUBLIC "-//W3C//DTD SVG 20010904//EN"
 "http://www.w3.org/TR/2001/REC-SVG-20010904/DTD/svg10.dtd">
<svg version="1.0" xmlns="http://www.w3.org/2000/svg"
 width="340.000000pt" height="340.000000pt" viewBox="0 0 340.000000 340.000000"
 preserveAspectRatio="xMidYMid meet">
<metadata>
Created by potrace 1.15, written by Peter Selinger 2001-2017
</metadata>
<g transform="translate(0.000000,340.000000) scale(0.100000,-0.100000)"
fill="#000000" stroke="none">
<path d="M1930 2664 c-95 -24 -481 -101 -565 -113 -44 -7 -116 -15 -160 -19
-62 -5 -80 -11 -83 -23 -3 -17 55 -47 133 -68 46 -13 240 -14 303 -2 l42 8 0
-281 0 -282 -189 -23 c-257 -30 -644 -69 -768 -77 -56 -4 -107 -11 -115 -16
-29 -19 149 -138 207 -138 12 0 78 11 146 25 266 55 712 135 718 129 3 -3 7
-279 7 -612 2 -596 8 -725 37 -789 21 -47 57 -18 81 67 41 145 65 538 66 1102
l0 246 78 8 c42 4 276 4 520 1 296 -5 450 -3 463 3 18 10 18 13 4 48 -23 53
-48 76 -118 108 -53 24 -78 28 -172 32 -92 3 -161 -4 -425 -42 -173 -25 -323
-46 -332 -46 -17 0 -18 17 -18 219 0 120 3 245 6 278 l7 60 141 17 c284 34
386 58 386 91 0 29 -55 73 -110 89 -65 20 -212 19 -290 0z"/>
</g>
</svg>
