<?xml version="1.0" standalone="no"?>
<!DOCTYPE svg PUBLIC "-//W3C//DTD SVG 20010904//EN"
 "http://www.w3.org/TR/2001/REC-SVG-20010904/DTD/svg10.dtd">
<svg version="1.0" xmlns="http://www.w3.org/2000/svg"
 width="340.000000pt" height="340.000000pt" viewBox="0 0 340.000000 340.000000"
 preserveAspectRatio="xMidYMid meet">
<metadata>
Created by potrace 1.15, written by Peter Selinger 2001-2017
</metadata>
<g transform="translate(0.000000,340.000000) scale(0.100000,-0.100000)"
fill="#000000" stroke="none">
<path d="M1890 2755 c-157 -63 -473 -141 -646 -160 -33 -4 -67 -11 -75 -16
-44 -29 116 -71 280 -73 l114 -1 13 -38 c23 -66 34 -230 34 -498 l0 -259 -22
-4 c-54 -12 -833 -92 -1057 -108 -19 -2 -36 -9 -38 -15 -6 -16 105 -87 167
-108 47 -16 52 -15 222 19 231 47 656 116 713 116 13 0 15 -57 15 -397 1 -440
12 -753 31 -826 21 -84 57 -50 84 80 31 149 39 291 39 723 l1 435 125 7 c69 4
304 7 522 6 410 -1 428 1 428 39 0 8 -22 36 -48 62 -92 91 -148 97 -502 47
-170 -25 -457 -56 -507 -56 l-25 0 6 163 c9 206 23 360 42 450 8 38 12 78 8
89 -7 23 -52 47 -129 69 -69 19 -74 17 105 49 133 24 368 83 407 102 14 7 31
21 37 30 25 41 -72 85 -204 94 -64 4 -84 1 -140 -21z"/>
<path d="M2156 2388 c-2 -7 -7 -47 -10 -88 -6 -87 -35 -150 -124 -275 -74
-104 -106 -155 -99 -162 13 -12 112 55 236 160 72 62 151 126 174 144 23 18
53 41 67 52 l25 19 -20 38 c-24 46 -89 88 -158 104 -29 6 -60 14 -70 17 -9 2
-19 -2 -21 -9z"/>
<path d="M1050 2207 c0 -18 4 -37 9 -42 5 -6 30 -59 56 -120 64 -152 108 -205
156 -190 45 14 72 125 48 193 -17 49 -204 192 -251 192 -14 0 -18 -8 -18 -33z"/>
</g>
</svg>
