<?xml version="1.0" standalone="no"?>
<!DOCTYPE svg PUBLIC "-//W3C//DTD SVG 20010904//EN"
 "http://www.w3.org/TR/2001/REC-SVG-20010904/DTD/svg10.dtd">
<svg version="1.0" xmlns="http://www.w3.org/2000/svg"
 width="340.000000pt" height="340.000000pt" viewBox="0 0 340.000000 340.000000"
 preserveAspectRatio="xMidYMid meet">
<metadata>
Created by potrace 1.15, written by Peter Selinger 2001-2017
</metadata>
<g transform="translate(0.000000,340.000000) scale(0.100000,-0.100000)"
fill="#000000" stroke="none">
<path d="M1630 2696 c-12 -16 -5 -26 77 -106 95 -92 179 -154 224 -165 31 -8
84 37 95 79 14 57 -61 160 -136 186 -19 6 -82 14 -140 17 -91 5 -107 3 -120
-11z"/>
<path d="M2190 2384 c-140 -40 -402 -93 -630 -129 -333 -52 -300 -51 -346 -14
-52 42 -94 59 -149 59 -54 0 -55 -5 -20 -105 42 -120 31 -301 -36 -605 -93
-419 -266 -771 -523 -1060 -36 -41 -66 -78 -66 -82 0 -16 58 16 121 68 373
305 610 810 694 1479 9 71 17 130 18 131 1 0 97 8 213 17 391 32 985 111 1058
141 27 11 36 21 36 39 0 80 -192 112 -370 61z"/>
<path d="M1803 2080 c-28 -12 -28 -15 1 -81 13 -30 31 -86 39 -124 18 -77 39
-276 31 -285 -3 -3 -99 -17 -212 -32 l-207 -26 -70 19 c-38 10 -89 19 -112 19
-52 0 -54 -12 -18 -95 50 -113 81 -269 105 -535 17 -182 39 -322 58 -360 31
-63 83 -44 98 36 6 30 8 32 62 38 139 14 428 27 542 24 l125 -3 27 -50 c15
-27 34 -73 43 -101 9 -29 22 -60 29 -70 13 -16 15 -16 49 5 20 12 52 44 72 71
78 106 112 219 135 450 14 145 49 378 62 420 6 19 26 60 45 91 20 33 31 62 27
72 -9 24 -88 72 -194 118 l-93 40 -81 -26 c-98 -30 -365 -90 -372 -82 -12 12
19 198 46 278 17 48 30 91 30 96 0 17 -162 94 -205 99 -22 2 -50 -1 -62 -6z
m633 -528 c63 -85 33 -573 -47 -788 l-21 -56 -27 25 c-62 59 -159 76 -298 54
l-53 -9 0 164 0 163 110 23 c199 40 241 83 124 128 -43 16 -45 16 -114 -10
-39 -14 -82 -26 -96 -26 l-25 0 3 158 3 157 35 3 c19 1 85 9 145 17 198 27
239 27 261 -3z m-546 -201 l0 -159 -24 -6 c-14 -3 -71 -11 -128 -17 -95 -9
-148 -27 -148 -48 0 -14 57 -21 181 -21 l119 0 -2 -172 -3 -173 -179 -28 c-99
-15 -180 -26 -181 -25 -5 6 -67 749 -63 753 5 6 351 52 396 54 l32 1 0 -159z"/>
</g>
</svg>
