<?xml version="1.0" standalone="no"?>
<!DOCTYPE svg PUBLIC "-//W3C//DTD SVG 20010904//EN"
 "http://www.w3.org/TR/2001/REC-SVG-20010904/DTD/svg10.dtd">
<svg version="1.0" xmlns="http://www.w3.org/2000/svg"
 width="340.000000pt" height="340.000000pt" viewBox="0 0 340.000000 340.000000"
 preserveAspectRatio="xMidYMid meet">
<metadata>
Created by potrace 1.15, written by Peter Selinger 2001-2017
</metadata>
<g transform="translate(0.000000,340.000000) scale(0.100000,-0.100000)"
fill="#000000" stroke="none">
<path d="M1613 2798 c-24 -5 -43 -15 -43 -21 0 -11 147 -147 235 -219 45 -37
108 -78 120 -78 5 0 21 22 34 49 26 53 24 86 -10 152 -52 103 -188 151 -336
117z"/>
<path d="M2130 2466 c-47 -13 -155 -44 -240 -69 -177 -52 -322 -82 -493 -102
l-119 -13 -71 34 c-76 36 -134 44 -143 19 -3 -8 2 -45 11 -82 23 -88 15 -254
-19 -448 -89 -501 -268 -901 -547 -1226 -44 -52 -85 -102 -91 -113 -18 -32 79
27 170 105 212 180 391 461 502 783 22 66 42 121 44 123 1 2 24 -6 50 -18 60
-26 129 -26 226 1 102 28 241 60 264 60 18 0 19 -6 13 -102 -4 -57 -10 -119
-13 -139 l-6 -36 -152 -22 c-83 -12 -178 -25 -210 -29 -33 -4 -61 -13 -64 -20
-5 -17 74 -52 118 -52 20 0 85 11 145 25 61 14 120 25 132 25 21 0 21 -1 6
-57 -20 -82 -83 -206 -144 -286 -97 -129 -274 -253 -458 -323 -107 -41 -143
-64 -99 -64 52 0 176 29 254 59 290 112 472 305 537 570 l23 92 49 -78 c121
-191 447 -591 521 -640 39 -25 164 -32 374 -21 244 12 295 19 295 38 0 10 -32
23 -105 42 -360 94 -654 251 -895 480 -80 76 -202 215 -194 222 6 5 298 35
409 41 52 4 105 8 118 11 34 7 27 38 -20 78 l-41 36 33 125 c25 93 37 125 49
126 140 4 504 38 513 47 18 18 -5 57 -53 89 -38 25 -51 28 -123 27 -58 -1
-104 -9 -161 -27 -44 -14 -100 -29 -124 -33 -43 -7 -43 -7 -31 17 7 13 37 56
66 95 30 39 54 79 54 88 0 36 -152 116 -221 116 -16 0 -51 -11 -77 -24 -76
-38 -337 -114 -350 -102 -2 3 4 45 14 95 17 89 17 92 -2 106 -33 25 -85 47
-123 52 -43 6 -95 -12 -88 -30 42 -93 60 -150 64 -198 7 -68 23 -59 -177 -89
-80 -12 -156 -26 -169 -31 -34 -14 -13 -33 59 -53 57 -16 63 -16 146 4 47 11
99 20 115 20 29 0 29 0 29 -62 0 -35 -3 -79 -6 -99 l-6 -36 -92 -16 c-105 -19
-455 -61 -461 -56 -2 2 10 58 25 124 28 114 71 363 85 488 4 31 10 57 14 57 4
0 94 11 200 25 265 35 577 89 761 132 85 20 165 38 177 41 47 9 35 62 -19 81
-68 24 -167 23 -258 -3z m91 -598 c11 -20 8 -172 -3 -184 -9 -8 -387 -68 -393
-62 -4 3 -4 51 0 106 l7 99 137 26 c75 15 145 28 156 30 53 12 84 7 96 -15z
m-34 -345 c-6 -74 -23 -161 -35 -180 -7 -11 -349 -69 -358 -60 -5 5 16 240 22
246 3 3 86 17 187 32 100 15 184 27 186 28 2 0 1 -29 -2 -66z"/>
</g>
</svg>
