<?xml version="1.0" standalone="no"?>
<!DOCTYPE svg PUBLIC "-//W3C//DTD SVG 20010904//EN"
 "http://www.w3.org/TR/2001/REC-SVG-20010904/DTD/svg10.dtd">
<svg version="1.0" xmlns="http://www.w3.org/2000/svg"
 width="340.000000pt" height="340.000000pt" viewBox="0 0 340.000000 340.000000"
 preserveAspectRatio="xMidYMid meet">
<metadata>
Created by potrace 1.15, written by Peter Selinger 2001-2017
</metadata>
<g transform="translate(0.000000,340.000000) scale(0.100000,-0.100000)"
fill="#000000" stroke="none">
<path d="M1630 2999 c0 -20 8 -29 70 -79 30 -24 78 -64 105 -89 112 -99 186
-126 205 -75 47 123 -81 235 -287 250 -76 6 -93 4 -93 -7z"/>
<path d="M2350 2715 c-47 -7 -157 -29 -245 -49 -301 -66 -714 -143 -795 -147
-19 -1 -63 8 -98 20 -88 30 -142 36 -167 18 -19 -15 -19 -16 15 -87 l35 -73
-1 -141 c-1 -207 -38 -404 -135 -721 -105 -344 -229 -576 -448 -839 -119 -142
-110 -162 25 -55 385 305 646 902 734 1679 7 58 13 106 14 107 1 1 220 34 487
73 737 108 781 115 817 139 23 14 9 45 -28 63 -52 25 -114 29 -210 13z"/>
<path d="M2244 2483 c-18 -62 -61 -119 -166 -223 -164 -161 -159 -177 25 -81
135 71 293 162 327 190 35 28 20 47 -69 94 -80 41 -109 46 -117 20z"/>
<path d="M1520 2327 c0 -23 96 -152 138 -185 21 -17 52 -36 68 -42 25 -10 30
-8 46 12 28 36 23 82 -13 122 -58 67 -239 136 -239 93z"/>
<path d="M2215 2112 c-44 -10 -147 -40 -230 -66 -82 -26 -242 -70 -355 -97
-113 -28 -209 -55 -215 -60 -20 -19 17 -32 107 -36 84 -5 161 4 306 33 l32 7
0 -132 c0 -127 -1 -131 -22 -136 -13 -3 -90 -16 -173 -30 -171 -29 -245 -50
-245 -71 0 -24 45 -34 148 -34 90 0 161 7 255 25 l37 7 0 -120 0 -121 -32 -5
c-147 -24 -684 -96 -728 -98 -83 -4 -79 -26 14 -74 l74 -38 99 23 c151 35 525
111 550 111 l22 0 3 -412 c3 -345 6 -418 18 -443 22 -44 42 -38 62 20 27 83
40 235 47 550 l6 300 110 8 c139 10 527 1 665 -17 118 -14 156 -7 177 35 21
42 -25 93 -117 131 -48 19 -72 22 -195 21 -139 -1 -242 -15 -465 -62 -52 -11
-117 -23 -143 -27 l-48 -6 3 123 3 123 105 17 c182 29 286 63 297 96 7 20 -72
63 -116 63 -22 0 -92 -13 -156 -30 -64 -16 -121 -30 -126 -30 -6 0 -8 50 -7
127 l3 126 150 32 c306 63 392 110 294 160 -47 25 -124 27 -214 7z"/>
</g>
</svg>
