<?xml version="1.0" standalone="no"?>
<!DOCTYPE svg PUBLIC "-//W3C//DTD SVG 20010904//EN"
 "http://www.w3.org/TR/2001/REC-SVG-20010904/DTD/svg10.dtd">
<svg version="1.0" xmlns="http://www.w3.org/2000/svg"
 width="340.000000pt" height="340.000000pt" viewBox="0 0 340.000000 340.000000"
 preserveAspectRatio="xMidYMid meet">
<metadata>
Created by potrace 1.15, written by Peter Selinger 2001-2017
</metadata>
<g transform="translate(0.000000,340.000000) scale(0.100000,-0.100000)"
fill="#000000" stroke="none">
<path d="M1624 2929 c-4 -6 -6 -49 -6 -94 1 -72 -3 -91 -29 -145 -47 -99 -124
-202 -222 -297 -73 -70 -110 -98 -178 -131 -47 -23 -92 -48 -99 -57 -29 -35
23 -197 66 -203 12 -2 43 11 70 28 111 68 387 146 710 199 99 17 191 31 205
33 21 2 38 -9 82 -55 47 -49 61 -57 91 -57 53 0 76 28 76 93 -1 106 -57 173
-221 264 -136 76 -219 102 -219 69 0 -15 91 -145 146 -210 19 -22 31 -43 27
-46 -5 -4 -159 -21 -343 -39 -184 -18 -353 -35 -375 -38 -39 -6 -35 -1 225
266 146 150 266 279 268 287 12 54 -245 179 -274 133z"/>
<path d="M1910 2073 c-29 -11 -29 -28 0 -78 34 -60 60 -145 60 -197 0 -45 23
-37 -245 -78 -110 -17 -210 -32 -222 -35 -21 -5 -21 -3 -17 68 4 48 1 80 -8
97 -17 33 -110 79 -176 87 -61 7 -63 1 -27 -60 23 -41 55 -150 55 -194 0 -19
-8 -23 -67 -32 -193 -31 -601 -71 -730 -71 -73 0 -81 -13 -34 -53 53 -44 122
-71 192 -75 53 -3 105 5 275 47 115 27 244 57 287 64 90 17 84 30 61 -120 -47
-317 -186 -574 -444 -816 -44 -42 -80 -79 -80 -82 0 -16 99 9 154 38 101 54
267 225 365 377 78 122 138 306 167 515 10 72 22 125 28 125 6 0 108 9 226 20
118 11 225 20 238 20 l22 0 0 -297 c1 -410 17 -841 34 -937 21 -111 45 -124
78 -41 50 127 53 162 49 741 l-3 542 114 7 c119 7 523 0 620 -10 52 -6 59 -5
83 19 60 60 -18 135 -183 177 -73 19 -82 19 -197 4 -66 -8 -189 -27 -273 -40
-84 -14 -155 -25 -157 -25 -2 0 -3 44 -2 98 1 74 -2 103 -12 116 -21 25 -100
63 -147 71 -21 4 -46 8 -54 10 -8 2 -22 1 -30 -2z"/>
</g>
</svg>
