<?xml version="1.0" standalone="no"?>
<!DOCTYPE svg PUBLIC "-//W3C//DTD SVG 20010904//EN"
 "http://www.w3.org/TR/2001/REC-SVG-20010904/DTD/svg10.dtd">
<svg version="1.0" xmlns="http://www.w3.org/2000/svg"
 width="340.000000pt" height="340.000000pt" viewBox="0 0 340.000000 340.000000"
 preserveAspectRatio="xMidYMid meet">
<metadata>
Created by potrace 1.15, written by Peter Selinger 2001-2017
</metadata>
<g transform="translate(0.000000,340.000000) scale(0.100000,-0.100000)"
fill="#000000" stroke="none">
<path d="M1873 2684 c-3 -9 6 -40 20 -68 47 -93 52 -137 51 -461 -1 -165 -6
-317 -10 -338 -9 -37 -11 -38 -146 -96 l-138 -59 0 27 c0 30 20 106 46 173
l18 47 -24 27 c-27 29 -74 55 -133 74 -55 17 -64 4 -37 -56 26 -56 37 -203 23
-294 l-8 -55 -141 -65 c-78 -36 -149 -72 -158 -79 -25 -21 -3 -37 64 -49 l54
-10 92 54 c51 30 94 54 97 54 2 0 2 -89 -1 -197 -5 -230 4 -311 48 -399 39
-80 101 -136 203 -184 163 -78 342 -106 617 -97 201 6 324 28 428 77 86 40
122 74 122 114 0 17 -11 66 -25 108 -13 43 -29 125 -35 183 -5 58 -15 115 -21
127 l-12 22 -12 -25 c-7 -13 -22 -59 -34 -102 -25 -92 -69 -182 -111 -231 -56
-64 -224 -102 -490 -113 -382 -14 -547 74 -581 314 -11 76 -5 435 7 455 3 5
68 40 145 78 l139 70 0 -77 c-1 -43 -7 -131 -14 -196 -14 -126 -12 -154 22
-230 23 -52 46 -67 68 -45 19 19 43 216 44 353 0 55 3 136 6 181 l7 80 127 57
c164 73 181 77 214 44 37 -37 35 -102 -4 -200 -16 -42 -30 -80 -30 -86 0 -25
-51 -110 -80 -135 -38 -31 -58 -32 -104 -6 -19 12 -36 17 -39 13 -3 -4 10 -39
29 -78 18 -38 34 -76 34 -83 0 -19 36 -86 54 -101 12 -10 21 -6 55 24 57 52
70 76 150 285 88 228 114 282 157 320 19 16 34 39 34 51 0 46 -161 159 -227
159 -16 0 -51 -15 -82 -36 -56 -38 -272 -154 -286 -154 -12 0 3 291 20 395 16
99 33 165 61 237 18 47 18 48 -2 75 -12 15 -58 54 -104 85 -66 46 -91 58 -122
58 -26 0 -41 -5 -45 -16z"/>
<path d="M1184 2510 c-75 -54 -192 -91 -358 -115 -54 -8 -104 -19 -110 -25
-16 -16 4 -41 58 -69 l46 -24 182 47 c107 27 185 43 191 37 21 -21 -42 -278
-104 -422 -19 -43 -27 -50 -63 -61 -49 -13 -185 -15 -275 -3 l-63 8 26 -49
c14 -27 26 -65 26 -84 -1 -108 -73 -283 -152 -363 -39 -41 -52 -63 -61 -102
-11 -55 -5 -95 17 -118 13 -12 25 -4 90 60 101 99 181 138 284 138 92 0 107
-15 117 -109 17 -157 -34 -396 -101 -475 -43 -50 -59 -51 -167 -15 -42 15 -80
24 -83 21 -4 -3 4 -20 16 -36 12 -17 50 -92 86 -166 35 -75 70 -138 78 -141
34 -13 130 65 183 148 41 66 90 189 107 270 8 40 22 156 30 259 8 102 20 197
25 212 8 21 7 36 -3 62 -17 39 -49 62 -118 86 l-49 16 -141 -49 c-77 -26 -143
-46 -146 -43 -3 3 0 24 7 47 17 55 120 290 135 305 11 12 176 51 314 73 85 14
91 28 40 86 -31 35 -31 37 -19 82 32 123 123 258 217 323 25 17 44 38 44 48 0
27 -77 94 -151 129 -93 45 -107 46 -155 12z"/>
</g>
</svg>
