<?xml version="1.0" standalone="no"?>
<!DOCTYPE svg PUBLIC "-//W3C//DTD SVG 20010904//EN"
 "http://www.w3.org/TR/2001/REC-SVG-20010904/DTD/svg10.dtd">
<svg version="1.0" xmlns="http://www.w3.org/2000/svg"
 width="340.000000pt" height="340.000000pt" viewBox="0 0 340.000000 340.000000"
 preserveAspectRatio="xMidYMid meet">
<metadata>
Created by potrace 1.15, written by Peter Selinger 2001-2017
</metadata>
<g transform="translate(0.000000,340.000000) scale(0.100000,-0.100000)"
fill="#000000" stroke="none">
<path d="M2008 2973 c-1 -5 -2 -30 -2 -58 -2 -96 -57 -170 -256 -347 -49 -44
-62 -60 -53 -69 18 -18 97 12 241 93 70 39 133 75 140 81 7 5 59 33 115 62 62
31 103 58 105 68 5 26 -56 77 -157 130 -82 44 -129 57 -133 40z"/>
<path d="M1104 2755 c-8 -20 4 -34 148 -173 73 -71 134 -122 145 -122 32 0 54
34 60 92 7 67 -12 116 -59 152 -65 49 -281 87 -294 51z"/>
<path d="M2045 2438 c-133 -54 -445 -112 -770 -143 -177 -17 -245 -29 -245
-45 0 -14 68 -56 111 -69 31 -10 51 -8 140 17 175 49 174 49 203 5 25 -39 49
-115 61 -190 6 -41 6 -42 -27 -48 -18 -3 -134 -23 -257 -44 -219 -38 -224 -38
-255 -21 -54 31 -103 43 -126 30 -26 -14 -26 -19 12 -103 58 -134 40 -268 -50
-360 -35 -36 -37 -41 -37 -105 0 -45 6 -79 19 -104 l18 -38 92 81 c53 47 120
94 161 114 69 35 252 86 354 100 52 7 53 7 41 -14 -6 -12 -45 -66 -86 -121
-145 -192 -386 -410 -661 -598 -135 -92 -211 -164 -179 -170 46 -9 311 154
541 333 147 114 307 265 391 369 l69 85 3 -157 c3 -179 -8 -333 -39 -513 -31
-183 -12 -320 53 -375 39 -32 54 -30 73 6 34 67 39 175 26 688 -7 272 -11 495
-9 497 4 4 284 32 452 45 161 13 296 13 316 0 11 -7 15 -30 15 -97 0 -79 -3
-95 -32 -153 -18 -36 -49 -82 -70 -104 -35 -36 -40 -38 -83 -33 -25 3 -74 18
-109 32 -102 42 -110 33 -43 -54 31 -40 77 -115 102 -165 52 -105 62 -110 139
-72 108 55 160 124 216 285 49 141 88 214 141 267 24 25 44 53 44 63 0 11 -27
44 -60 73 -102 93 -227 143 -259 105 -25 -30 -125 -48 -456 -82 -137 -14 -265
-28 -282 -31 l-33 -6 0 146 c0 110 3 146 13 146 6 0 73 7 147 15 74 9 189 19
256 24 160 11 163 13 117 78 l-36 52 36 45 c20 24 66 70 101 101 60 52 65 59
59 88 -10 53 -47 93 -108 116 -83 31 -150 34 -210 9z m63 -159 c18 -47 5 -97
-45 -173 -25 -37 -47 -59 -68 -66 -29 -9 -168 -32 -272 -44 l-53 -7 0 38 c1
21 5 58 9 82 8 39 6 47 -14 67 -12 12 -47 35 -76 50 l-54 27 30 8 c17 4 95 17
175 28 80 11 156 22 170 25 14 2 61 3 105 2 l79 -1 14 -36z m-554 -451 c3 -29
6 -90 6 -135 0 -69 -3 -82 -17 -87 -31 -10 -507 -96 -510 -92 -2 1 0 69 3 149
l7 147 36 6 c85 17 399 62 432 63 l36 1 7 -52z"/>
</g>
</svg>
