<?xml version="1.0" standalone="no"?>
<!DOCTYPE svg PUBLIC "-//W3C//DTD SVG 20010904//EN"
 "http://www.w3.org/TR/2001/REC-SVG-20010904/DTD/svg10.dtd">
<svg version="1.0" xmlns="http://www.w3.org/2000/svg"
 width="340.000000pt" height="340.000000pt" viewBox="0 0 340.000000 340.000000"
 preserveAspectRatio="xMidYMid meet">
<metadata>
Created by potrace 1.15, written by Peter Selinger 2001-2017
</metadata>
<g transform="translate(0.000000,340.000000) scale(0.100000,-0.100000)"
fill="#000000" stroke="none">
<path d="M2033 2854 c-3 -9 8 -46 26 -82 44 -92 60 -159 68 -283 l6 -107 -89
-20 c-49 -11 -132 -28 -184 -37 -52 -9 -99 -20 -104 -25 -6 -6 6 -16 30 -27
43 -19 219 -25 307 -10 l48 8 -7 -88 c-4 -48 -8 -89 -9 -90 -6 -8 -169 -45
-220 -50 -87 -8 -99 -18 -50 -39 42 -19 172 -25 233 -12 l32 8 0 -110 c0 -105
-1 -110 -22 -115 -13 -3 -108 -21 -213 -39 -208 -35 -228 -46 -140 -77 62 -23
95 -23 170 -3 33 8 90 18 126 21 l67 6 -16 -84 c-21 -116 -21 -163 2 -188 11
-12 25 -21 32 -21 33 0 65 93 79 229 5 53 11 71 23 75 16 4 438 24 616 29 62
2 81 6 90 19 14 23 -23 63 -89 94 -66 31 -117 38 -190 25 -33 -5 -140 -24
-238 -41 -98 -16 -185 -30 -192 -30 -11 0 -13 20 -8 108 3 59 10 110 15 113 6
3 40 9 76 12 119 11 209 47 197 78 -15 39 -99 50 -195 24 -85 -23 -81 -27 -78
77 l3 92 75 13 c139 23 341 75 363 94 l22 19 -23 19 c-12 11 -47 25 -77 31
-48 10 -66 8 -157 -14 -57 -14 -124 -31 -150 -39 l-48 -15 0 27 c0 44 19 139
47 234 l26 88 -39 40 c-53 55 -108 79 -177 79 -44 0 -59 -4 -64 -16z"/>
<path d="M1130 2751 c-33 -9 -36 -34 -10 -70 54 -77 110 -248 110 -339 0 -34
29 -27 -298 -77 -122 -19 -227 -37 -232 -40 -43 -27 81 -60 213 -56 67 1 265
26 299 37 16 5 18 -4 18 -95 l0 -100 -57 -6 c-156 -17 -278 -36 -286 -44 -27
-27 146 -57 262 -46 l74 7 -8 -104 c-4 -56 -8 -103 -8 -104 -12 -5 -375 -61
-667 -101 -46 -7 -55 -11 -55 -28 0 -27 131 -95 184 -95 21 0 148 31 282 69
134 38 245 68 246 67 2 -1 -4 -43 -13 -92 -18 -100 -15 -153 10 -206 21 -43
43 -54 66 -33 27 25 42 92 49 217 3 64 8 119 11 122 3 2 50 12 105 21 55 8
124 22 153 31 43 12 52 18 52 37 0 13 -5 28 -12 35 -16 16 -128 15 -208 -3
-36 -8 -71 -14 -77 -15 -10 0 -13 26 -13 99 l0 98 39 7 c134 21 235 76 229
125 -3 24 -6 26 -48 24 -25 -1 -83 -13 -129 -27 l-83 -24 4 89 c2 49 6 91 9
94 3 2 48 16 101 29 139 35 204 72 196 112 -7 38 -107 37 -236 -1 -30 -9 -56
-14 -58 -12 -3 3 3 73 13 157 l17 152 -24 19 c-67 51 -169 84 -220 70z"/>
<path d="M2193 1340 c-31 -13 -304 -57 -472 -75 -79 -9 -294 -29 -478 -44
-184 -16 -339 -33 -345 -39 -13 -13 61 -58 128 -78 40 -12 67 -12 193 1 155
16 431 52 646 85 152 23 293 26 319 7 26 -19 22 -138 -9 -318 -34 -202 -39
-216 -78 -228 -82 -27 -470 -81 -927 -131 -107 -12 -206 -23 -219 -26 -22 -5
-22 -6 -7 -23 21 -23 120 -76 159 -85 15 -4 118 7 230 23 266 39 523 67 732
81 325 21 318 19 318 69 0 38 -33 76 -80 92 -32 10 -34 13 -27 42 13 64 76
232 115 308 21 43 57 96 80 117 40 39 41 40 25 70 -22 42 -70 80 -151 118 -80
38 -121 47 -152 34z"/>
<path d="M1765 960 c-143 -38 -307 -66 -528 -89 -99 -10 -184 -24 -189 -29
-17 -17 7 -38 57 -51 54 -14 177 -14 270 0 39 5 209 28 379 50 170 22 317 44
327 50 25 13 24 31 -3 56 -55 50 -156 54 -313 13z"/>
</g>
</svg>
