<?xml version="1.0" standalone="no"?>
<!DOCTYPE svg PUBLIC "-//W3C//DTD SVG 20010904//EN"
 "http://www.w3.org/TR/2001/REC-SVG-20010904/DTD/svg10.dtd">
<svg version="1.0" xmlns="http://www.w3.org/2000/svg"
 width="340.000000pt" height="340.000000pt" viewBox="0 0 340.000000 340.000000"
 preserveAspectRatio="xMidYMid meet">
<metadata>
Created by potrace 1.15, written by Peter Selinger 2001-2017
</metadata>
<g transform="translate(0.000000,340.000000) scale(0.100000,-0.100000)"
fill="#000000" stroke="none">
<path d="M1860 2935 c-11 -13 -8 -22 17 -53 43 -53 49 -69 67 -152 15 -74 27
-352 15 -364 -3 -4 -70 -23 -148 -43 -109 -28 -145 -41 -153 -56 -24 -46 75
-61 230 -33 l73 12 -3 -145 -3 -145 -30 -8 c-16 -4 -160 -30 -320 -58 -159
-28 -298 -53 -307 -56 -34 -10 -18 -35 40 -62 82 -38 147 -36 292 10 330 104
675 151 1095 147 l250 -2 3 37 c4 51 -19 83 -81 112 -90 40 -143 41 -302 1
-130 -33 -342 -77 -442 -92 l-43 -7 0 144 0 144 60 12 c84 18 312 91 328 106
7 7 10 20 6 30 -20 53 -176 64 -291 20 -113 -42 -103 -46 -97 37 10 128 32
264 53 319 24 64 18 80 -41 109 -98 47 -243 66 -268 36z"/>
<path d="M1187 2833 c-3 -10 -11 -43 -17 -73 -34 -151 -130 -298 -331 -505
-156 -160 -174 -185 -135 -185 61 0 308 193 528 411 75 75 151 148 169 162 40
31 35 60 -19 113 -83 82 -183 121 -195 77z"/>
<path d="M1127 2253 c-4 -3 -7 -31 -7 -61 0 -228 -219 -562 -618 -942 -178
-169 -167 -195 29 -68 147 96 262 195 402 347 46 50 58 59 64 45 8 -22 -4
-368 -17 -474 -6 -47 -22 -128 -36 -180 -14 -52 -26 -118 -26 -147 0 -79 26
-157 64 -188 31 -26 31 -26 51 -7 10 11 25 46 33 78 20 84 36 427 32 687 -3
217 -4 223 -29 267 l-25 45 153 229 c84 126 153 234 153 241 0 42 -126 135
-183 135 -18 0 -37 -3 -40 -7z"/>
<path d="M2111 1851 c-12 -8 -10 -16 13 -50 34 -49 56 -110 63 -177 l5 -50
-173 -36 c-96 -20 -266 -51 -379 -68 -113 -18 -215 -36 -227 -41 -15 -5 -23
-17 -23 -33 0 -61 77 -68 270 -27 254 54 524 101 532 93 4 -4 13 -118 19 -252
12 -261 2 -497 -21 -525 -31 -38 -133 -44 -235 -15 -38 11 -71 20 -72 20 -2 0
-3 -8 -3 -18 0 -10 34 -51 76 -92 42 -41 100 -107 129 -145 29 -39 59 -76 68
-84 24 -19 51 -6 98 47 100 112 136 277 109 497 -13 110 -41 588 -34 594 3 3
96 8 207 12 209 6 247 13 247 49 0 29 -45 57 -120 74 -86 20 -167 20 -245 1
-102 -24 -96 -29 -93 82 l3 97 -43 24 c-47 26 -147 40 -171 23z"/>
<path d="M1664 1295 c-8 -19 33 -105 96 -204 80 -125 123 -149 160 -88 56 91
-4 193 -162 273 -76 38 -86 40 -94 19z"/>
</g>
</svg>
