<?xml version="1.0" standalone="no"?>
<!DOCTYPE svg PUBLIC "-//W3C//DTD SVG 20010904//EN"
 "http://www.w3.org/TR/2001/REC-SVG-20010904/DTD/svg10.dtd">
<svg version="1.0" xmlns="http://www.w3.org/2000/svg"
 width="340.000000pt" height="340.000000pt" viewBox="0 0 340.000000 340.000000"
 preserveAspectRatio="xMidYMid meet">
<metadata>
Created by potrace 1.15, written by Peter Selinger 2001-2017
</metadata>
<g transform="translate(0.000000,340.000000) scale(0.100000,-0.100000)"
fill="#000000" stroke="none">
<path d="M1076 2708 c-3 -7 -7 -33 -9 -57 -8 -61 -73 -188 -153 -296 -79 -106
-201 -251 -245 -291 -42 -39 -99 -114 -99 -130 0 -24 35 -15 97 25 145 93 613
537 613 581 0 33 -43 85 -112 136 -62 45 -86 53 -92 32z"/>
<path d="M2085 2704 c-16 -8 -43 -23 -60 -33 -58 -36 -294 -110 -357 -112 -13
-1 -56 6 -96 15 -40 9 -77 14 -81 11 -5 -2 1 -23 12 -46 33 -68 46 -144 58
-339 13 -220 6 -1103 -10 -1230 -23 -181 -49 -265 -103 -333 -20 -25 -21 -31
-10 -75 16 -59 74 -148 103 -157 17 -6 27 0 48 26 58 75 206 232 298 315 151
138 161 148 142 152 -17 3 -146 -51 -278 -117 l-81 -41 0 426 0 427 23 -19
c117 -99 257 -233 504 -483 l292 -296 123 1 c115 2 415 35 438 49 33 20 -9 41
-161 79 -228 57 -456 169 -691 339 -54 39 -98 73 -98 77 0 3 46 42 103 87 56
45 154 130 217 189 63 58 132 118 153 132 20 13 37 31 37 39 0 33 -140 133
-186 133 -27 0 -37 -13 -53 -70 -17 -59 -73 -170 -124 -244 -43 -64 -184 -216
-199 -216 -17 0 -368 286 -368 300 0 3 67 20 149 38 82 18 158 36 168 38 16 4
22 -3 32 -36 22 -75 56 -67 107 25 46 83 90 223 125 400 16 83 38 177 49 211
22 66 73 154 90 154 5 0 10 11 10 24 0 36 -93 104 -195 144 -78 30 -98 33
-130 16z m25 -144 c47 -29 -5 -564 -67 -687 l-18 -36 -150 -34 c-82 -18 -162
-36 -177 -40 l-28 -5 0 135 c0 204 -8 190 113 209 56 9 132 26 170 38 58 18
67 24 67 45 0 59 -96 64 -232 12 -53 -20 -100 -37 -103 -37 -3 0 -4 73 -3 162
l3 162 45 14 c207 63 344 85 380 62z"/>
<path d="M1085 2080 c-4 -6 -4 -28 0 -49 13 -75 -80 -260 -228 -454 -96 -127
-259 -307 -396 -439 -104 -100 -131 -138 -97 -138 23 0 214 130 312 213 51 42
131 120 179 172 49 53 89 94 91 92 6 -5 -16 -320 -31 -459 -9 -76 -27 -184
-41 -239 -28 -112 -27 -143 8 -258 32 -103 54 -117 87 -54 46 91 65 276 77
733 l7 256 -33 37 -32 37 78 98 c44 53 107 129 142 169 38 44 62 81 62 96 0
49 -118 197 -158 197 -11 0 -24 -5 -27 -10z"/>
</g>
</svg>
