<?xml version="1.0" standalone="no"?>
<!DOCTYPE svg PUBLIC "-//W3C//DTD SVG 20010904//EN"
 "http://www.w3.org/TR/2001/REC-SVG-20010904/DTD/svg10.dtd">
<svg version="1.0" xmlns="http://www.w3.org/2000/svg"
 width="340.000000pt" height="340.000000pt" viewBox="0 0 340.000000 340.000000"
 preserveAspectRatio="xMidYMid meet">
<metadata>
Created by potrace 1.15, written by Peter Selinger 2001-2017
</metadata>
<g transform="translate(0.000000,340.000000) scale(0.100000,-0.100000)"
fill="#000000" stroke="none">
<path d="M1793 2973 c-21 -8 -15 -32 18 -72 43 -54 69 -146 76 -272 l6 -107
-53 -11 c-29 -6 -96 -16 -149 -22 -159 -18 -168 -23 -109 -59 49 -30 110 -35
194 -16 123 27 115 32 112 -86 l-3 -103 -185 -33 c-344 -61 -369 -69 -289 -98
54 -20 123 -16 299 16 90 17 168 30 172 30 5 0 7 -55 6 -122 l-3 -123 -190
-23 c-208 -26 -234 -35 -190 -70 43 -34 81 -36 187 -8 53 14 120 28 148 32
l50 7 0 -121 0 -120 -67 -15 c-111 -25 -174 -35 -253 -42 -41 -4 -83 -11 -94
-17 -19 -10 -19 -11 5 -23 71 -38 203 -38 346 -1 28 8 54 11 57 8 3 -3 6 -56
6 -117 l0 -112 -47 -7 c-186 -27 -353 -46 -438 -51 -137 -8 -165 -13 -165 -30
0 -18 62 -59 112 -75 32 -10 68 -5 265 30 125 23 237 44 248 46 20 5 20 0 21
-343 1 -428 13 -524 63 -479 18 16 23 39 47 181 3 22 9 176 13 342 4 166 9
305 12 308 24 23 542 42 682 25 157 -19 210 5 157 73 -11 14 -45 38 -75 53
-80 39 -151 41 -325 10 -155 -27 -366 -56 -412 -56 l-28 0 0 108 0 108 173 32
c229 44 249 49 245 70 -10 51 -144 73 -243 39 -27 -9 -78 -23 -112 -31 l-63
-14 0 122 0 123 172 22 c199 26 259 37 284 55 17 13 16 15 -7 38 -14 14 -33
29 -43 35 -17 9 -16 15 10 110 l28 100 95 7 c53 3 157 6 231 7 149 1 178 6
194 32 15 25 -24 58 -101 87 -64 25 -60 25 -293 -29 -46 -11 -86 -18 -88 -16
-4 4 37 85 82 159 l36 60 -27 29 c-28 30 -155 97 -183 97 -8 0 -50 -14 -92
-30 -66 -26 -132 -44 -277 -76 l-24 -5 6 84 c4 47 18 123 32 170 13 48 22 92
19 100 -18 47 -220 105 -281 80z m577 -472 c13 -25 13 -97 -1 -161 -6 -27 -11
-50 -12 -50 -1 0 -72 -9 -157 -20 -85 -11 -161 -20 -167 -20 -10 0 -13 28 -13
104 l0 105 74 16 c96 21 215 43 243 44 12 1 27 -8 33 -18z m-55 -413 c-9 -46
-18 -90 -21 -99 -3 -12 -35 -22 -117 -38 -61 -13 -122 -25 -135 -28 l-23 -5 3
123 3 124 150 20 c176 23 165 31 140 -97z"/>
<path d="M1110 2720 c0 -126 -113 -298 -364 -553 -157 -160 -163 -178 -37
-112 36 19 107 65 156 102 116 87 445 409 445 436 0 55 -70 128 -149 155 -49
17 -51 16 -51 -28z"/>
<path d="M1150 2188 c-1 -2 -2 -29 -5 -60 -5 -83 -57 -182 -166 -318 -177
-222 -361 -417 -559 -593 -58 -52 -62 -58 -35 -52 82 18 281 163 484 353 l118
111 7 -46 c9 -71 7 -368 -4 -468 -6 -49 -19 -125 -30 -167 -45 -174 -7 -338
74 -326 55 8 80 217 80 669 l1 325 -28 43 c-15 23 -25 47 -20 54 4 7 30 39 59
72 191 217 203 234 193 268 -13 46 -40 79 -85 103 -38 21 -84 38 -84 32z"/>
</g>
</svg>
