<?xml version="1.0" standalone="no"?>
<!DOCTYPE svg PUBLIC "-//W3C//DTD SVG 20010904//EN"
 "http://www.w3.org/TR/2001/REC-SVG-20010904/DTD/svg10.dtd">
<svg version="1.0" xmlns="http://www.w3.org/2000/svg"
 width="340.000000pt" height="340.000000pt" viewBox="0 0 340.000000 340.000000"
 preserveAspectRatio="xMidYMid meet">
<metadata>
Created by potrace 1.15, written by Peter Selinger 2001-2017
</metadata>
<g transform="translate(0.000000,340.000000) scale(0.100000,-0.100000)"
fill="#000000" stroke="none">
<path d="M1104 2803 c-26 -117 -40 -148 -108 -241 -96 -130 -183 -231 -279
-324 -82 -79 -91 -105 -34 -94 64 13 209 122 460 348 112 101 167 157 167 171
0 11 -12 36 -26 55 -27 35 -137 112 -160 112 -8 0 -16 -12 -20 -27z"/>
<path d="M2265 2789 c-135 -47 -274 -75 -462 -95 -131 -14 -151 -14 -207 0
-112 28 -143 16 -105 -40 55 -81 92 -175 178 -461 40 -132 86 -190 120 -149
14 16 74 29 299 60 131 19 180 22 202 14 51 -17 98 14 139 92 113 220 161 301
209 352 28 32 52 64 52 71 0 25 -61 95 -110 127 -61 39 -141 70 -178 69 -15
-1 -76 -19 -137 -40z m111 -126 c14 -75 -32 -276 -100 -435 -16 -38 -16 -38
-77 -38 -70 0 -227 -30 -335 -64 -53 -17 -76 -21 -79 -13 -11 32 -42 228 -36
231 3 2 52 4 108 5 170 2 351 43 377 83 8 14 6 22 -12 40 -37 38 -115 32 -252
-21 -111 -42 -224 -70 -235 -59 -9 8 -47 219 -42 225 15 15 505 80 619 82 l57
1 7 -37z"/>
<path d="M1116 2249 c-2 -8 -7 -42 -10 -76 -10 -112 -44 -177 -194 -378 -131
-174 -303 -364 -476 -524 -55 -51 -75 -76 -67 -84 29 -29 266 135 455 314
l108 103 -5 -300 c-5 -320 -14 -387 -61 -506 -31 -78 -32 -97 -6 -180 34 -110
90 -137 123 -60 30 66 37 123 48 357 15 312 8 675 -13 733 l-16 44 74 94 c40
52 86 116 101 142 15 26 49 74 75 107 26 33 48 67 48 76 0 22 -52 92 -88 118
-39 28 -90 38 -96 20z"/>
<path d="M2215 1925 c-204 -54 -331 -82 -455 -100 -181 -26 -208 -44 -114 -78
40 -14 69 -17 159 -12 61 3 141 12 178 19 65 13 69 12 83 -8 17 -25 40 -102
49 -167 l6 -46 -228 -37 c-125 -20 -337 -52 -471 -70 -134 -19 -246 -37 -250
-41 -22 -21 130 -75 212 -75 29 0 86 9 127 20 210 57 390 94 566 114 l51 6 9
-97 c4 -54 8 -224 8 -378 0 -231 -3 -285 -15 -310 l-16 -30 -139 0 c-155 -1
-165 -2 -165 -13 0 -4 35 -27 77 -52 51 -30 110 -79 179 -148 115 -115 117
-116 169 -47 39 50 64 124 77 230 10 78 9 131 -6 317 -9 123 -20 294 -23 381
l-6 157 321 0 c281 0 323 2 337 16 14 15 14 19 -2 46 -10 17 -43 45 -73 62
-50 28 -62 31 -135 29 -44 0 -153 -13 -241 -27 -221 -36 -204 -39 -204 38 0
55 -3 67 -26 89 -14 15 -49 35 -77 45 l-50 19 44 7 c102 16 316 68 337 82 52
34 -3 84 -99 90 -51 4 -91 -3 -194 -31z"/>
<path d="M1587 1266 c-7 -17 61 -206 100 -278 44 -83 95 -72 123 28 19 67 8
110 -42 162 -86 89 -166 128 -181 88z"/>
</g>
</svg>
