<?xml version="1.0" standalone="no"?>
<!DOCTYPE svg PUBLIC "-//W3C//DTD SVG 20010904//EN"
 "http://www.w3.org/TR/2001/REC-SVG-20010904/DTD/svg10.dtd">
<svg version="1.0" xmlns="http://www.w3.org/2000/svg"
 width="340.000000pt" height="340.000000pt" viewBox="0 0 340.000000 340.000000"
 preserveAspectRatio="xMidYMid meet">
<metadata>
Created by potrace 1.15, written by Peter Selinger 2001-2017
</metadata>
<g transform="translate(0.000000,340.000000) scale(0.100000,-0.100000)"
fill="#000000" stroke="none">
<path d="M2114 2719 c-11 -18 -128 -68 -197 -84 -34 -8 -136 -23 -227 -35 -91
-11 -217 -27 -280 -36 -63 -9 -180 -21 -259 -27 -96 -8 -146 -16 -148 -24 -6
-17 50 -50 115 -69 48 -14 64 -14 213 6 89 12 162 20 164 18 1 -2 8 -27 14
-56 20 -94 -12 -227 -102 -432 -82 -188 -223 -363 -416 -519 -97 -78 -116
-101 -84 -101 61 0 293 144 399 247 102 100 147 166 262 388 57 110 119 225
138 256 19 31 34 61 34 66 0 20 -81 101 -132 134 l-52 34 89 17 c151 28 358
51 398 44 l37 -7 0 -59 c0 -78 -26 -275 -50 -376 -48 -205 -155 -424 -207
-424 -9 0 -53 16 -99 36 -46 19 -92 34 -104 32 -19 -3 -17 -8 20 -68 23 -36
56 -97 74 -136 43 -91 67 -117 104 -108 73 18 148 80 219 185 44 63 99 231
168 504 32 127 67 249 78 273 11 24 44 64 73 90 30 25 54 50 54 56 0 23 -104
107 -180 145 -87 43 -105 48 -116 30z"/>
<path d="M1094 2173 c-60 -99 -110 -169 -160 -224 -84 -94 -99 -139 -68 -205
27 -58 89 -42 163 42 53 60 87 132 106 219 18 83 18 108 4 158 -12 44 -23 47
-45 10z"/>
<path d="M2330 1481 c0 -18 94 -122 169 -188 84 -74 187 -144 258 -175 l47
-21 23 27 c42 49 28 107 -51 214 -39 53 -58 69 -112 93 -35 16 -92 36 -127 44
-68 16 -207 20 -207 6z"/>
<path d="M1510 1304 c0 -3 23 -44 51 -91 63 -104 151 -200 217 -236 l49 -27
27 21 c35 28 36 91 1 158 -27 55 -66 91 -136 127 -74 37 -209 68 -209 48z"/>
<path d="M736 1193 c-14 -43 -56 -139 -92 -213 l-66 -135 4 -75 c13 -221 128
-171 219 95 20 59 24 89 24 195 0 110 -3 130 -23 168 -12 23 -26 42 -31 42 -5
0 -21 -35 -35 -77z"/>
<path d="M1105 1237 c-19 -27 -19 -65 -1 -159 45 -233 167 -404 381 -533 121
-72 299 -106 565 -106 251 0 436 32 553 94 62 33 82 56 72 87 -3 10 -59 65
-123 122 -64 57 -169 156 -233 221 -104 105 -149 137 -149 107 0 -6 40 -91 90
-190 84 -168 89 -180 73 -196 -27 -27 -74 -43 -175 -59 -119 -19 -321 -19
-434 0 -266 45 -478 251 -554 538 -24 91 -40 110 -65 74z"/>
</g>
</svg>
