<?xml version="1.0" standalone="no"?>
<!DOCTYPE svg PUBLIC "-//W3C//DTD SVG 20010904//EN"
 "http://www.w3.org/TR/2001/REC-SVG-20010904/DTD/svg10.dtd">
<svg version="1.0" xmlns="http://www.w3.org/2000/svg"
 width="340.000000pt" height="340.000000pt" viewBox="0 0 340.000000 340.000000"
 preserveAspectRatio="xMidYMid meet">
<metadata>
Created by potrace 1.15, written by Peter Selinger 2001-2017
</metadata>
<g transform="translate(0.000000,340.000000) scale(0.100000,-0.100000)"
fill="#000000" stroke="none">
<path d="M1825 2706 c-18 -13 -18 -15 7 -72 33 -76 38 -99 48 -214 9 -97 -4
-358 -18 -372 -7 -7 -262 -48 -298 -48 -7 0 -14 6 -14 13 0 20 -43 66 -65 69
-18 3 -21 -5 -27 -77 -4 -44 -20 -125 -35 -180 -34 -129 -41 -206 -18 -228 24
-24 33 -21 71 18 39 42 62 110 71 212 3 39 9 76 12 81 3 5 62 19 131 31 69 12
133 24 144 28 17 5 18 1 11 -53 -4 -33 -22 -117 -40 -189 -100 -392 -297 -692
-600 -916 -92 -68 -98 -74 -72 -77 127 -15 403 192 556 416 137 201 251 509
297 798 7 47 -7 40 197 99 132 39 197 45 197 19 0 -9 -18 -59 -40 -110 -41
-96 -48 -124 -30 -124 6 0 46 20 88 45 43 25 129 67 192 93 67 28 118 56 127
69 13 20 12 24 -21 61 -38 42 -145 99 -234 125 l-52 16 -78 -40 c-71 -37 -214
-88 -289 -104 -28 -5 -33 -4 -33 12 0 47 62 376 82 436 l22 68 -30 24 c-16 14
-56 38 -88 55 -65 33 -138 40 -171 16z"/>
<path d="M790 2697 c0 -8 15 -57 34 -110 60 -164 66 -220 66 -591 0 -537 -27
-1025 -66 -1214 -27 -131 1 -263 73 -343 43 -47 58 -49 72 -6 37 113 44 320
32 991 -6 325 -8 592 -6 594 2 3 56 -48 120 -112 64 -64 124 -116 133 -116 27
0 59 27 69 57 31 91 -95 193 -258 210 l-59 6 0 46 c0 70 17 212 42 349 l21
123 -34 29 c-74 63 -239 123 -239 87z"/>
<path d="M545 1733 c-21 -87 -46 -182 -56 -212 -47 -135 5 -289 86 -257 19 7
49 72 70 151 22 85 20 250 -5 353 -21 87 -35 122 -49 122 -5 0 -25 -71 -46
-157z"/>
<path d="M2004 1646 c-3 -7 0 -33 6 -59 6 -30 8 -156 4 -359 -6 -308 -6 -314
16 -372 51 -134 173 -202 400 -225 206 -21 505 44 568 124 28 35 28 58 -2 176
-13 52 -32 157 -42 232 -10 75 -21 137 -26 137 -14 0 -27 -45 -38 -135 -6 -48
-20 -110 -31 -140 -27 -72 -96 -147 -167 -182 -55 -27 -62 -28 -212 -28 -146
0 -158 2 -210 26 -59 27 -112 74 -134 118 -50 96 -41 289 21 477 24 73 25 85
13 113 -16 39 -61 75 -119 96 -34 12 -43 12 -47 1z"/>
</g>
</svg>
