<?xml version="1.0" standalone="no"?>
<!DOCTYPE svg PUBLIC "-//W3C//DTD SVG 20010904//EN"
 "http://www.w3.org/TR/2001/REC-SVG-20010904/DTD/svg10.dtd">
<svg version="1.0" xmlns="http://www.w3.org/2000/svg"
 width="340.000000pt" height="340.000000pt" viewBox="0 0 340.000000 340.000000"
 preserveAspectRatio="xMidYMid meet">
<metadata>
Created by potrace 1.15, written by Peter Selinger 2001-2017
</metadata>
<g transform="translate(0.000000,340.000000) scale(0.100000,-0.100000)"
fill="#000000" stroke="none">
<path d="M908 2780 c-15 -9 -14 -18 13 -97 62 -181 64 -209 64 -853 0 -623 -3
-678 -51 -887 -40 -176 -41 -220 -10 -307 42 -113 88 -153 120 -103 57 85 70
296 61 975 -5 353 -4 552 2 552 6 0 50 -25 99 -56 167 -105 207 -120 237 -86
36 40 15 115 -47 170 -44 38 -85 47 -203 46 l-93 -2 0 49 c0 71 28 262 52 354
37 142 37 137 -24 184 -30 22 -70 47 -91 56 -41 17 -104 19 -129 5z"/>
<path d="M2156 2688 c-3 -7 -7 -25 -10 -41 -10 -43 -128 -160 -239 -235 -142
-96 -135 -93 -198 -77 -62 17 -108 19 -128 6 -12 -8 -10 -21 17 -78 48 -105
55 -171 50 -466 -5 -251 -7 -267 -35 -377 -69 -265 -158 -422 -337 -600 -47
-46 -86 -88 -86 -92 0 -32 121 26 221 105 191 152 327 432 374 772 9 61 18
124 20 140 l5 30 157 19 c87 10 169 19 183 20 48 2 52 -39 60 -699 8 -605 15
-709 49 -774 16 -29 26 -20 49 42 31 82 46 306 62 924 11 418 8 447 -46 504
-15 16 -26 30 -23 32 6 5 176 34 359 62 169 26 228 43 244 68 16 24 -1 46 -65
85 -52 32 -57 33 -129 29 -42 -3 -119 -19 -175 -36 -232 -72 -410 -121 -559
-155 -88 -19 -161 -34 -162 -33 -1 1 -3 96 -5 211 l-4 210 325 111 c344 117
370 128 370 150 0 18 -73 80 -124 105 -86 41 -213 63 -220 38z"/>
<path d="M681 2031 c-6 -10 -18 -54 -26 -97 -21 -98 -45 -170 -98 -293 -37
-86 -42 -104 -42 -177 0 -67 4 -86 19 -103 44 -48 99 -11 151 102 90 194 110
424 48 555 -17 36 -37 41 -52 13z"/>
</g>
</svg>
