<?xml version="1.0" standalone="no"?>
<!DOCTYPE svg PUBLIC "-//W3C//DTD SVG 20010904//EN"
 "http://www.w3.org/TR/2001/REC-SVG-20010904/DTD/svg10.dtd">
<svg version="1.0" xmlns="http://www.w3.org/2000/svg"
 width="340.000000pt" height="340.000000pt" viewBox="0 0 340.000000 340.000000"
 preserveAspectRatio="xMidYMid meet">
<metadata>
Created by potrace 1.15, written by Peter Selinger 2001-2017
</metadata>
<g transform="translate(0.000000,340.000000) scale(0.100000,-0.100000)"
fill="#000000" stroke="none">
<path d="M890 2680 c0 -8 18 -43 39 -79 75 -125 76 -133 75 -606 0 -558 -22
-857 -79 -1082 -22 -87 -24 -105 -15 -187 29 -277 127 -306 176 -52 15 80 18
169 20 721 2 704 12 951 43 1065 11 41 21 85 21 96 0 28 -54 82 -107 106 -55
24 -173 37 -173 18z"/>
<path d="M2465 2459 c-180 -50 -518 -110 -855 -149 -201 -24 -222 -28 -217
-44 7 -21 67 -54 118 -65 74 -16 105 -14 267 19 81 16 173 33 205 38 55 9 58
8 63 -15 14 -54 -33 -189 -107 -309 l-19 -31 -56 13 c-56 13 -84 10 -84 -8 0
-5 16 -29 35 -52 19 -24 35 -49 35 -57 0 -8 -17 -39 -37 -69 -93 -139 -243
-303 -465 -507 -209 -192 -219 -226 -41 -136 185 93 409 293 581 518 l23 30
-5 -340 c-5 -351 -11 -412 -55 -579 -20 -74 -20 -83 -6 -144 18 -76 39 -116
72 -133 51 -27 113 59 134 186 18 115 -6 953 -32 1098 l-10 57 43 59 c24 32
78 104 121 160 46 61 77 111 77 126 0 31 -42 79 -99 113 l-46 27 60 7 c111 12
402 28 504 28 88 0 104 3 121 20 23 23 25 39 9 73 -14 31 -52 53 -125 72 -76
20 -123 18 -209 -6z"/>
<path d="M1165 2069 c13 -42 66 -118 104 -148 20 -15 60 -41 89 -55 52 -27 55
-27 74 -9 35 31 40 60 20 106 -11 23 -28 49 -38 59 -26 22 -130 56 -199 64
-57 7 -57 7 -50 -17z"/>
<path d="M685 2008 c-2 -7 -12 -48 -20 -91 -19 -93 -66 -229 -106 -309 -44
-88 -37 -182 15 -206 26 -11 46 -3 89 37 78 71 123 270 98 431 -16 102 -60
183 -76 138z"/>
<path d="M2255 1479 c241 -243 570 -511 610 -495 21 8 55 81 55 118 0 43 -38
122 -84 175 -58 66 -276 181 -442 233 -60 18 -193 50 -212 50 -4 0 29 -36 73
-81z"/>
</g>
</svg>
