<?xml version="1.0" standalone="no"?>
<!DOCTYPE svg PUBLIC "-//W3C//DTD SVG 20010904//EN"
 "http://www.w3.org/TR/2001/REC-SVG-20010904/DTD/svg10.dtd">
<svg version="1.0" xmlns="http://www.w3.org/2000/svg"
 width="340.000000pt" height="340.000000pt" viewBox="0 0 340.000000 340.000000"
 preserveAspectRatio="xMidYMid meet">
<metadata>
Created by potrace 1.15, written by Peter Selinger 2001-2017
</metadata>
<g transform="translate(0.000000,340.000000) scale(0.100000,-0.100000)"
fill="#000000" stroke="none">
<path d="M2110 2584 c-113 -36 -417 -86 -855 -140 -187 -23 -221 -24 -306 -14
-147 17 -178 2 -118 -56 17 -16 46 -58 64 -94 42 -84 119 -322 140 -436 45
-245 74 -344 112 -386 26 -29 52 -22 69 17 8 19 15 35 17 36 21 7 516 56 648
65 l107 7 11 -36 c16 -47 47 -74 69 -61 51 31 144 218 232 470 78 222 140 343
209 408 17 17 31 40 31 52 0 44 -94 106 -238 158 -81 29 -125 31 -192 10z m59
-133 c31 -31 34 -77 11 -211 -58 -339 -125 -542 -183 -554 -12 -3 -89 -10
-172 -17 -82 -6 -153 -13 -157 -16 -22 -13 11 294 33 308 8 5 28 9 45 9 41 0
174 35 214 55 23 12 30 22 28 38 -7 47 -83 58 -209 32 -40 -9 -74 -13 -76 -11
-3 2 3 52 11 110 23 152 25 142 -46 176 -35 17 -69 30 -75 30 -7 0 -13 5 -13
10 0 6 6 10 13 10 31 0 357 31 412 39 103 15 143 13 164 -8z m-632 -101 c7
-25 16 -102 20 -171 7 -148 22 -133 -142 -150 -105 -11 -135 -20 -135 -41 0
-19 72 -38 169 -44 l101 -7 0 -149 c0 -81 -3 -148 -6 -148 -4 0 -74 -11 -157
-25 -82 -14 -156 -24 -164 -21 -7 3 -13 14 -13 25 0 10 -31 171 -70 356 -38
185 -70 345 -70 355 0 19 21 23 280 54 169 20 172 20 187 -34z"/>
<path d="M2404 1449 c-9 -15 90 -106 242 -221 169 -128 201 -148 236 -148 34
0 43 28 35 100 -14 114 -84 193 -204 230 -105 32 -298 57 -309 39z"/>
<path d="M775 1341 c-3 -6 -15 -36 -25 -67 -11 -31 -52 -113 -92 -182 l-73
-126 -3 -111 c-3 -126 7 -158 52 -163 22 -3 36 5 65 36 44 47 112 174 137 257
25 85 23 213 -5 287 -23 60 -45 86 -56 69z"/>
<path d="M1525 1326 c-24 -18 8 -67 105 -159 157 -149 204 -181 240 -158 22
15 26 136 6 184 -20 46 -82 92 -151 112 -77 23 -183 34 -200 21z"/>
<path d="M1067 1248 c-2 -7 2 -40 10 -73 71 -311 228 -517 473 -620 281 -118
776 -111 1050 16 80 37 113 67 108 100 -2 15 -38 52 -103 107 -55 45 -167 149
-249 230 -167 165 -165 166 -92 -22 62 -159 79 -240 58 -274 -11 -17 -186 -50
-313 -58 -123 -8 -256 7 -379 43 -221 64 -364 194 -430 393 -24 72 -40 102
-78 143 -28 29 -48 35 -55 15z"/>
</g>
</svg>
