<?xml version="1.0" standalone="no"?>
<!DOCTYPE svg PUBLIC "-//W3C//DTD SVG 20010904//EN"
 "http://www.w3.org/TR/2001/REC-SVG-20010904/DTD/svg10.dtd">
<svg version="1.0" xmlns="http://www.w3.org/2000/svg"
 width="340.000000pt" height="340.000000pt" viewBox="0 0 340.000000 340.000000"
 preserveAspectRatio="xMidYMid meet">
<metadata>
Created by potrace 1.15, written by Peter Selinger 2001-2017
</metadata>
<g transform="translate(0.000000,340.000000) scale(0.100000,-0.100000)"
fill="#000000" stroke="none">
<path d="M2043 2784 c-3 -9 6 -28 26 -48 59 -61 101 -226 101 -396 0 -83 -1
-88 -22 -93 -49 -12 -368 -56 -448 -62 -103 -7 -130 -13 -130 -25 0 -19 47
-51 96 -66 50 -14 58 -13 245 25 107 21 211 42 232 45 l37 7 0 -193 c-1 -208
-13 -381 -30 -434 -15 -44 -41 -50 -144 -36 -52 7 -85 7 -91 1 -6 -6 18 -34
67 -79 42 -39 87 -87 99 -108 57 -96 89 -104 154 -39 82 82 97 203 71 594 -9
133 -16 258 -16 278 l0 37 229 -4 c244 -3 256 -1 249 43 -7 48 -166 119 -224
99 -16 -5 -80 -21 -141 -34 -102 -22 -113 -22 -113 -7 0 50 33 284 47 334 16
57 15 58 -7 82 -26 27 -94 59 -176 80 -74 19 -103 19 -111 -1z"/>
<path d="M1267 2496 c-64 -57 -269 -112 -530 -141 -63 -7 -68 -16 -23 -49 24
-18 42 -21 129 -21 86 1 129 7 271 43 202 51 206 51 206 15 0 -46 -47 -179
-115 -325 -28 -62 -35 -67 -56 -41 -8 9 -57 52 -109 95 -104 87 -194 138 -212
120 -8 -8 31 -55 138 -167 82 -86 150 -160 152 -165 5 -15 -149 -210 -236
-298 -48 -49 -119 -114 -159 -145 -39 -32 -74 -64 -77 -72 -15 -40 109 8 226
86 122 82 242 202 319 318 15 24 15 23 89 -85 110 -164 148 -211 181 -224 26
-11 32 -10 50 6 19 17 21 27 16 87 -7 107 -46 175 -156 270 l-90 79 23 36 c13
21 59 109 104 197 44 88 98 187 120 220 21 33 37 67 34 75 -16 51 -110 103
-209 115 -44 5 -51 3 -86 -29z"/>
<path d="M1650 1953 c0 -16 9 -48 20 -72 34 -75 120 -211 141 -222 50 -26 86
33 76 123 -8 60 -37 110 -81 136 -28 17 -139 62 -151 62 -3 0 -5 -12 -5 -27z"/>
<path d="M2383 1274 c-51 -23 49 -118 272 -257 114 -71 164 -86 200 -63 21 14
25 24 25 67 0 117 -74 194 -225 235 -53 15 -252 28 -272 18z"/>
<path d="M1456 1247 c-25 -18 -13 -39 62 -109 78 -72 175 -136 218 -144 53
-10 84 15 84 69 0 101 -106 174 -281 192 -48 5 -69 3 -83 -8z"/>
<path d="M756 1198 c-3 -7 -11 -40 -20 -73 -8 -33 -33 -100 -55 -148 -29 -59
-45 -111 -52 -165 -27 -184 57 -258 139 -122 58 98 75 155 75 255 0 74 -5 105
-29 174 -27 80 -49 109 -58 79z"/>
<path d="M1044 1109 c11 -59 88 -218 146 -307 82 -125 188 -221 304 -277 114
-55 215 -75 407 -82 326 -12 596 48 687 152 39 43 33 62 -31 102 -152 96 -216
142 -281 203 -40 39 -78 70 -85 70 -21 0 -11 -45 29 -130 47 -101 53 -159 18
-182 -79 -50 -203 -68 -389 -56 -262 17 -390 66 -524 202 -57 57 -92 105 -122
162 -70 133 -176 228 -159 143z"/>
</g>
</svg>
