<?xml version="1.0" standalone="no"?>
<!DOCTYPE svg PUBLIC "-//W3C//DTD SVG 20010904//EN"
 "http://www.w3.org/TR/2001/REC-SVG-20010904/DTD/svg10.dtd">
<svg version="1.0" xmlns="http://www.w3.org/2000/svg"
 width="340.000000pt" height="340.000000pt" viewBox="0 0 340.000000 340.000000"
 preserveAspectRatio="xMidYMid meet">
<metadata>
Created by potrace 1.15, written by Peter Selinger 2001-2017
</metadata>
<g transform="translate(0.000000,340.000000) scale(0.100000,-0.100000)"
fill="#000000" stroke="none">
<path d="M1728 2708 c-3 -7 3 -47 14 -88 16 -62 19 -96 14 -195 -5 -136 -33
-269 -56 -271 -47 -6 -231 -37 -261 -45 -42 -11 -55 -32 -32 -51 12 -9 53 -13
144 -13 l128 0 -6 -25 c-15 -66 -96 -297 -138 -395 -99 -233 -240 -462 -399
-652 -47 -57 -81 -103 -76 -103 34 0 142 71 215 141 189 182 346 465 486 878
49 147 63 177 81 183 38 12 382 67 553 88 173 22 214 31 252 55 33 22 27 54
-16 79 -25 15 -59 21 -121 24 -79 4 -102 0 -276 -46 -254 -68 -349 -92 -368
-92 -12 0 -9 18 18 98 18 53 50 136 70 185 20 48 36 94 36 102 0 23 -74 92
-129 119 -63 32 -126 44 -133 24z"/>
<path d="M860 2639 c0 -8 9 -38 20 -67 58 -152 64 -335 36 -992 -23 -524 -42
-701 -91 -840 -19 -54 -19 -95 1 -174 19 -75 53 -140 77 -144 47 -9 93 213
107 518 5 113 10 331 11 485 1 154 4 363 8 465 l6 184 72 -89 c39 -50 85 -103
103 -120 29 -28 32 -29 58 -14 39 21 42 80 8 147 -21 41 -35 55 -80 77 -29 14
-79 29 -110 32 l-57 6 6 46 c16 123 39 247 55 302 l19 62 -25 32 c-43 57 -99
88 -165 93 -45 3 -59 1 -59 -9z"/>
<path d="M616 1806 c-21 -63 -61 -159 -88 -213 -61 -121 -69 -170 -36 -233 75
-147 201 52 233 370 10 94 -20 190 -59 190 -6 0 -28 -52 -50 -114z"/>
<path d="M1960 1902 c0 -11 7 -51 16 -89 13 -53 15 -96 10 -198 -15 -305 -82
-506 -230 -690 -98 -122 -205 -204 -395 -301 -63 -33 -116 -65 -119 -71 -7
-22 73 -15 156 13 271 91 474 264 586 502 16 34 32 62 35 62 3 0 24 -31 46
-68 73 -123 273 -416 321 -471 71 -80 85 -84 329 -88 210 -4 318 3 318 22 0
17 -74 53 -198 95 -254 88 -428 193 -601 364 -61 61 -130 137 -153 168 l-43
57 31 118 c16 65 43 183 60 263 16 80 37 165 46 189 15 43 14 45 -6 67 -27 29
-105 63 -164 71 -41 5 -45 4 -45 -15z"/>
<path d="M2377 1650 c-8 -69 -48 -153 -123 -262 -101 -146 -85 -155 70 -39 58
44 143 102 191 131 93 56 99 69 63 116 -31 40 -46 52 -103 79 -78 38 -91 35
-98 -25z"/>
<path d="M1640 1456 c0 -69 84 -244 125 -259 25 -10 53 5 65 33 21 51 -3 131
-55 185 -66 67 -135 88 -135 41z"/>
</g>
</svg>
