<?xml version="1.0" standalone="no"?>
<!DOCTYPE svg PUBLIC "-//W3C//DTD SVG 20010904//EN"
 "http://www.w3.org/TR/2001/REC-SVG-20010904/DTD/svg10.dtd">
<svg version="1.0" xmlns="http://www.w3.org/2000/svg"
 width="340.000000pt" height="340.000000pt" viewBox="0 0 340.000000 340.000000"
 preserveAspectRatio="xMidYMid meet">
<metadata>
Created by potrace 1.15, written by Peter Selinger 2001-2017
</metadata>
<g transform="translate(0.000000,340.000000) scale(0.100000,-0.100000)"
fill="#000000" stroke="none">
<path d="M870 2715 c0 -4 17 -46 39 -94 83 -185 95 -293 87 -741 -9 -527 -33
-848 -82 -1081 -21 -102 -23 -129 -14 -181 12 -76 47 -148 82 -168 24 -13 29
-13 46 3 61 55 72 208 72 1019 l0 656 66 -69 c67 -68 131 -109 172 -109 25 0
62 51 62 85 0 34 -36 81 -76 100 -29 13 -62 18 -128 18 l-89 0 6 121 c4 87 13
147 33 214 26 91 26 93 8 113 -27 31 -93 73 -141 92 -47 18 -143 33 -143 22z"/>
<path d="M2391 2460 c-110 -50 -329 -101 -621 -143 l-155 -23 -45 28 c-48 29
-117 44 -138 30 -11 -8 -8 -27 19 -103 32 -91 33 -99 37 -293 7 -308 -20 -673
-67 -906 -11 -52 -21 -107 -24 -122 -6 -38 10 -144 27 -176 17 -31 60 -82 70
-82 38 0 74 428 107 1260 6 157 12 286 13 288 2 1 63 9 137 18 74 8 224 30
334 49 277 47 371 58 394 46 66 -36 109 -376 118 -922 6 -343 -2 -491 -29
-582 -17 -57 -30 -63 -92 -44 -76 24 -145 36 -152 26 -3 -5 24 -53 59 -106 36
-54 86 -140 112 -190 26 -51 52 -93 58 -93 20 0 102 95 135 157 64 121 74 164
79 334 4 103 0 216 -11 330 -33 352 -48 684 -36 806 10 106 39 215 61 228 34
22 -40 104 -135 149 -53 25 -160 56 -192 56 -11 0 -39 -9 -63 -20z"/>
<path d="M2075 1974 c-60 -19 -152 -43 -203 -53 -98 -20 -124 -33 -105 -52 31
-31 160 -37 298 -14 107 17 273 61 292 76 18 16 1 43 -41 63 -51 24 -119 19
-241 -20z"/>
<path d="M634 1882 c-7 -4 -23 -70 -38 -147 -14 -77 -37 -177 -50 -223 -35
-116 -42 -188 -22 -235 28 -68 67 -57 128 35 89 133 118 300 78 446 -29 108
-60 148 -96 124z"/>
<path d="M2096 1609 c-38 -17 -106 -40 -152 -51 -80 -20 -84 -20 -120 -3 -20
9 -54 20 -75 22 -49 7 -60 -14 -30 -56 12 -16 29 -47 38 -68 17 -41 42 -209
43 -284 0 -25 7 -69 16 -98 24 -82 62 -81 73 1 7 50 -8 45 230 77 85 12 154
27 168 37 l25 16 -27 28 c-26 27 -27 31 -14 62 19 48 74 137 111 181 l32 37
-28 29 c-33 34 -136 87 -186 95 -26 5 -52 -2 -104 -25z m68 -144 c0 -33 -4
-94 -8 -136 l-8 -77 -121 -30 c-66 -17 -124 -29 -128 -26 -5 3 -20 175 -24
268 0 6 16 14 35 19 107 29 189 45 220 44 l35 -2 -1 -60z"/>
</g>
</svg>
