<?xml version="1.0" standalone="no"?>
<!DOCTYPE svg PUBLIC "-//W3C//DTD SVG 20010904//EN"
 "http://www.w3.org/TR/2001/REC-SVG-20010904/DTD/svg10.dtd">
<svg version="1.0" xmlns="http://www.w3.org/2000/svg"
 width="340.000000pt" height="340.000000pt" viewBox="0 0 340.000000 340.000000"
 preserveAspectRatio="xMidYMid meet">
<metadata>
Created by potrace 1.15, written by Peter Selinger 2001-2017
</metadata>
<g transform="translate(0.000000,340.000000) scale(0.100000,-0.100000)"
fill="#000000" stroke="none">
<path d="M1476 2822 c12 -114 -64 -295 -202 -479 l-24 -31 -62 19 c-118 37
-173 12 -130 -59 103 -167 116 -237 108 -593 -5 -235 -4 -282 9 -320 17 -46
60 -99 82 -99 15 0 33 31 33 59 0 13 8 22 23 26 32 7 440 62 519 70 l67 6 22
-75 c12 -41 31 -85 41 -96 18 -19 22 -20 41 -8 30 19 83 131 107 223 20 80 30
165 55 475 16 209 34 277 90 348 19 25 35 48 35 52 0 3 -16 25 -35 47 -40 47
-99 84 -170 106 -101 31 -118 31 -198 -7 -87 -41 -193 -74 -369 -116 -134 -32
-158 -35 -158 -22 0 18 258 277 336 338 46 36 84 72 84 80 0 20 -85 72 -145
89 -27 8 -76 17 -108 21 l-58 6 7 -60z m506 -472 c21 -26 22 -65 8 -390 -10
-223 -22 -352 -41 -439 -15 -72 -20 -75 -65 -52 -59 30 -119 35 -204 16 -111
-24 -341 -65 -367 -65 -23 0 -23 2 -23 128 l0 129 118 6 c118 7 335 46 398 72
64 26 36 66 -56 81 -30 5 -68 -2 -157 -30 -129 -39 -283 -69 -296 -57 -4 4 -6
57 -5 117 l3 109 45 2 c98 6 236 26 331 49 156 38 190 63 132 101 -45 30 -120
21 -296 -35 -86 -28 -173 -54 -192 -58 l-35 -6 0 115 c0 101 2 116 18 121 56
17 270 62 412 86 187 33 245 33 272 0z"/>
<path d="M2355 1345 c-5 -2 -23 -6 -38 -9 -22 -5 -28 -12 -25 -28 4 -25 147
-116 323 -204 138 -69 174 -76 209 -41 15 15 26 38 26 52 0 65 -92 172 -170
198 -80 27 -282 47 -325 32z"/>
<path d="M786 1228 c-2 -7 -12 -47 -21 -88 -23 -101 -62 -183 -121 -254 -44
-54 -48 -65 -48 -110 0 -58 23 -108 60 -132 23 -16 28 -16 58 -1 69 33 144
155 166 272 18 96 -21 289 -64 317 -16 11 -26 10 -30 -4z"/>
<path d="M1073 1154 c21 -227 134 -448 292 -577 75 -61 217 -131 318 -156 128
-33 312 -46 473 -32 295 24 504 99 504 182 0 28 -51 80 -204 209 -78 65 -159
136 -181 159 -74 78 -73 53 6 -125 33 -76 61 -148 62 -162 4 -53 -97 -88 -283
-99 -201 -10 -424 29 -576 102 -123 59 -221 189 -324 429 -40 91 -62 132 -75
135 -17 3 -18 -3 -12 -65z"/>
<path d="M1556 1202 c-10 -17 124 -235 184 -299 20 -23 64 -30 86 -15 32 21
45 111 25 165 -10 26 -107 100 -178 136 -42 21 -107 28 -117 13z"/>
</g>
</svg>
