<?xml version="1.0" standalone="no"?>
<!DOCTYPE svg PUBLIC "-//W3C//DTD SVG 20010904//EN"
 "http://www.w3.org/TR/2001/REC-SVG-20010904/DTD/svg10.dtd">
<svg version="1.0" xmlns="http://www.w3.org/2000/svg"
 width="340.000000pt" height="340.000000pt" viewBox="0 0 340.000000 340.000000"
 preserveAspectRatio="xMidYMid meet">
<metadata>
Created by potrace 1.15, written by Peter Selinger 2001-2017
</metadata>
<g transform="translate(0.000000,340.000000) scale(0.100000,-0.100000)"
fill="#000000" stroke="none">
<path d="M1850 2745 c-6 -8 -9 -23 -5 -34 40 -126 -75 -412 -279 -692 -65 -89
-39 -91 72 -6 l53 40 26 -24 c36 -34 244 -271 250 -286 8 -19 -78 -132 -149
-198 -69 -64 -159 -125 -253 -173 -33 -16 -71 -40 -85 -51 l-25 -22 35 7 c78
14 200 58 285 102 68 36 110 67 176 132 48 47 92 94 98 105 10 19 14 16 63
-40 74 -86 147 -155 197 -190 43 -29 47 -30 160 -29 93 1 140 8 234 31 65 17
121 33 124 37 15 14 -20 28 -182 70 -94 24 -199 54 -235 66 -85 29 -238 101
-270 128 -25 20 -25 21 -7 49 45 69 157 316 157 345 0 26 -11 42 -57 84 -31
29 -55 55 -53 57 3 2 52 9 110 16 125 15 221 35 273 58 31 14 37 21 35 42 -4
34 -55 67 -115 75 -58 7 -105 -5 -267 -68 -113 -45 -338 -117 -344 -112 -4 4
97 177 156 268 28 42 53 86 56 96 9 28 -24 64 -92 100 -64 34 -122 41 -142 17z
m280 -582 c0 -38 -7 -96 -15 -131 -17 -71 -72 -219 -85 -227 -5 -3 -72 55
-149 130 -77 74 -148 135 -157 135 -15 0 -12 6 12 33 17 17 45 50 62 73 l31
41 49 -10 c36 -8 71 -6 138 5 49 8 95 16 102 17 8 1 12 -18 12 -66z"/>
<path d="M1100 2686 c-22 -13 -25 -20 -26 -88 -2 -98 -34 -210 -98 -343 -87
-182 -191 -323 -419 -567 -70 -76 -126 -138 -124 -138 16 0 90 38 141 73 125
83 245 193 360 327 l38 45 -5 -240 c-4 -149 -12 -270 -21 -320 -22 -112 -20
-161 8 -221 28 -61 53 -75 78 -44 45 55 61 190 62 500 1 234 -1 271 -17 313
-10 26 -28 52 -38 58 -20 10 -20 11 1 42 11 18 63 100 114 182 52 83 113 171
135 197 23 25 41 55 41 67 0 27 -48 81 -112 124 -66 44 -86 50 -118 33z"/>
<path d="M1280 2155 c0 -9 8 -32 19 -53 47 -92 54 -286 15 -440 -15 -62 -16
-79 -6 -120 13 -50 44 -85 71 -80 29 5 51 71 62 189 5 63 17 169 25 236 18
160 18 175 -8 208 -40 51 -178 97 -178 60z"/>
<path d="M1623 1199 c-21 -21 -16 -35 47 -113 82 -101 167 -166 219 -166 25 0
61 46 61 78 0 33 -34 103 -64 131 -48 45 -238 96 -263 70z"/>
<path d="M2312 1189 c-13 -5 -21 -13 -18 -18 9 -14 320 -181 405 -216 110 -47
137 -50 167 -20 71 71 -16 190 -169 228 -127 32 -336 46 -385 26z"/>
<path d="M1204 1125 c-11 -29 3 -148 25 -215 53 -156 190 -321 326 -392 138
-72 269 -99 470 -99 223 0 407 31 530 90 88 42 100 53 86 79 -6 12 -80 73
-164 135 -84 63 -183 142 -222 176 -47 43 -71 58 -73 48 -2 -8 18 -60 43 -116
57 -127 74 -186 57 -203 -22 -22 -137 -40 -287 -45 -379 -13 -535 81 -705 426
-62 124 -76 143 -86 116z"/>
<path d="M872 1073 c-42 -114 -60 -152 -97 -202 -56 -75 -74 -111 -86 -177
-13 -69 2 -121 38 -135 32 -12 53 0 96 53 45 55 83 133 102 205 18 67 20 206
4 252 -14 39 -43 41 -57 4z"/>
</g>
</svg>
