<?xml version="1.0" standalone="no"?>
<!DOCTYPE svg PUBLIC "-//W3C//DTD SVG 20010904//EN"
 "http://www.w3.org/TR/2001/REC-SVG-20010904/DTD/svg10.dtd">
<svg version="1.0" xmlns="http://www.w3.org/2000/svg"
 width="340.000000pt" height="340.000000pt" viewBox="0 0 340.000000 340.000000"
 preserveAspectRatio="xMidYMid meet">
<metadata>
Created by potrace 1.15, written by Peter Selinger 2001-2017
</metadata>
<g transform="translate(0.000000,340.000000) scale(0.100000,-0.100000)"
fill="#000000" stroke="none">
<path d="M1463 2914 c-8 -4 -13 -27 -13 -62 0 -91 -43 -169 -192 -354 -254
-315 -540 -574 -815 -738 -109 -65 -134 -98 -65 -85 107 20 385 170 570 309
187 140 463 426 602 624 24 34 48 62 52 62 5 0 104 -87 221 -193 457 -416 575
-517 618 -532 49 -17 204 -20 294 -5 33 6 109 17 169 26 109 15 176 38 160 54
-5 5 -61 20 -124 35 -439 98 -831 297 -1212 614 -43 35 -78 69 -78 74 0 5 14
25 31 44 16 19 28 40 26 46 -11 37 -203 99 -244 81z"/>
<path d="M1610 2273 c-52 -19 -142 -45 -199 -59 -57 -13 -109 -28 -115 -34
-43 -43 197 -37 377 9 170 43 217 75 158 105 -47 25 -116 18 -221 -21z"/>
<path d="M1920 2066 c0 -9 13 -40 30 -69 41 -74 58 -148 75 -335 15 -166 18
-304 6 -357 -7 -33 -16 -35 -118 -20 -29 4 -53 5 -53 1 0 -4 21 -35 48 -70 26
-34 62 -83 79 -109 18 -26 39 -47 46 -47 25 0 67 41 91 88 51 103 54 156 26
527 -9 134 -8 156 17 278 7 35 -15 61 -81 94 -63 32 -166 44 -166 19z"/>
<path d="M1230 1943 c-49 -19 -93 -27 -177 -32 -61 -3 -115 -9 -118 -13 -4 -4
0 -26 9 -48 37 -92 31 -252 -16 -439 -16 -65 -19 -100 -15 -160 8 -96 13 -111
42 -111 16 0 28 10 40 36 17 36 44 166 45 215 0 25 2 26 53 22 28 -2 83 -1
122 4 55 6 70 12 73 26 10 48 -47 59 -160 30 -37 -9 -69 -15 -71 -13 -2 3 -1
39 2 80 l6 75 77 6 c83 7 140 32 146 63 9 43 -66 48 -157 10 -35 -14 -64 -24
-65 -22 -1 2 1 39 4 83 l5 80 50 16 c68 23 138 32 175 24 38 -8 53 -37 71
-135 16 -85 17 -407 2 -455 l-10 -30 -86 0 c-52 0 -86 -4 -86 -10 1 -5 38 -49
84 -97 94 -101 111 -106 161 -52 54 57 68 122 60 284 -18 386 -19 408 -6 459
11 47 10 54 -6 73 -29 32 -94 58 -144 57 -25 -1 -74 -12 -110 -26z"/>
<path d="M1633 1878 c4 -13 16 -57 27 -98 19 -65 21 -92 16 -200 -6 -139 2
-193 34 -224 l21 -21 19 22 c22 28 30 85 31 223 1 58 6 133 12 167 9 52 8 65
-6 86 -19 30 -92 67 -131 67 -24 0 -28 -3 -23 -22z"/>
<path d="M2325 1191 c-25 -4 -41 -12 -43 -22 -3 -16 117 -135 213 -212 49 -39
138 -87 162 -87 43 0 57 93 24 165 -20 46 -70 99 -112 120 -35 19 -145 45
-179 43 -14 0 -43 -4 -65 -7z"/>
<path d="M1510 1066 c0 -20 64 -106 142 -191 48 -53 54 -57 87 -51 71 11 86
68 42 154 -14 27 -32 41 -87 64 -38 16 -95 32 -126 35 -50 5 -58 3 -58 -11z"/>
<path d="M1080 1052 c0 -43 54 -203 101 -300 42 -86 64 -118 127 -182 145
-146 244 -175 602 -175 205 1 247 4 328 23 96 22 187 64 206 94 14 23 -6 44
-124 131 -52 39 -132 107 -177 152 -46 45 -83 77 -83 69 0 -7 21 -67 46 -135
25 -67 43 -127 40 -135 -3 -7 -31 -21 -63 -31 -47 -15 -91 -18 -228 -17 -193
1 -276 17 -401 79 -118 57 -223 185 -300 364 -24 55 -39 77 -54 79 -14 2 -20
-2 -20 -16z"/>
<path d="M827 1053 c-2 -4 -12 -33 -22 -63 -10 -30 -40 -104 -67 -164 -31 -68
-52 -128 -54 -160 -6 -61 14 -145 38 -160 47 -29 111 47 144 174 32 119 17
364 -23 377 -6 2 -13 0 -16 -4z"/>
</g>
</svg>
