<?xml version="1.0" standalone="no"?>
<!DOCTYPE svg PUBLIC "-//W3C//DTD SVG 20010904//EN"
 "http://www.w3.org/TR/2001/REC-SVG-20010904/DTD/svg10.dtd">
<svg version="1.0" xmlns="http://www.w3.org/2000/svg"
 width="340.000000pt" height="340.000000pt" viewBox="0 0 340.000000 340.000000"
 preserveAspectRatio="xMidYMid meet">
<metadata>
Created by potrace 1.15, written by Peter Selinger 2001-2017
</metadata>
<g transform="translate(0.000000,340.000000) scale(0.100000,-0.100000)"
fill="#000000" stroke="none">
<path d="M2478 2768 c-61 -32 -212 -59 -323 -59 -106 1 -135 -4 -135 -21 0 -6
18 -51 40 -100 23 -49 52 -135 65 -190 13 -55 29 -106 36 -114 17 -21 43 -17
67 11 12 14 26 25 31 25 18 0 286 40 303 46 22 7 29 29 18 58 -11 30 15 73
101 163 33 34 59 66 59 71 0 21 -94 92 -146 112 -64 23 -67 23 -116 -2z m2
-169 c0 -49 -6 -85 -21 -119 -21 -48 -21 -48 -97 -69 -141 -38 -142 -38 -142
-5 0 16 -5 74 -10 128 -5 55 -8 102 -5 104 6 7 181 30 233 31 l42 1 0 -71z"/>
<path d="M770 2756 c0 -3 15 -35 34 -73 65 -129 67 -150 73 -826 6 -714 -2
-846 -60 -962 -23 -47 -24 -111 -2 -216 17 -81 37 -124 64 -139 29 -15 30 -14
56 43 49 106 50 140 47 912 l-3 719 23 -19 c13 -10 62 -57 110 -104 82 -80 89
-84 115 -75 40 13 66 69 53 115 -20 71 -90 109 -219 117 l-84 5 7 76 c3 42 14
131 23 199 12 87 14 128 7 140 -20 31 -151 92 -200 92 -24 0 -44 -2 -44 -4z"/>
<path d="M1710 2656 c-67 -36 -241 -76 -326 -76 -77 0 -104 -6 -104 -23 0 -5
17 -33 39 -61 53 -71 95 -148 126 -231 34 -89 50 -115 75 -115 12 0 24 10 29
23 8 19 33 28 179 66 178 45 203 59 164 91 -19 16 -19 17 3 79 13 35 37 86 55
113 l31 51 -27 28 c-31 32 -105 66 -160 73 -29 4 -51 -1 -84 -18z m40 -155 c0
-43 -3 -106 -6 -140 l-7 -61 -67 -20 c-36 -11 -80 -22 -96 -26 l-29 -6 -32
129 c-17 70 -30 130 -27 132 7 7 227 70 247 71 15 0 17 -10 17 -79z"/>
<path d="M2210 2113 c-52 -10 -576 -144 -597 -153 -31 -13 -29 -26 8 -39 61
-21 152 -23 266 -7 178 27 422 90 471 122 25 17 22 49 -7 71 -16 12 -90 15
-141 6z"/>
<path d="M542 2023 c-5 -10 -13 -43 -17 -73 -4 -30 -23 -104 -43 -165 -56
-171 -47 -284 27 -314 68 -29 108 39 131 225 17 130 -26 334 -72 342 -9 2 -21
-5 -26 -15z"/>
<path d="M2580 1850 c-206 -55 -680 -134 -1340 -222 -82 -11 -95 -16 -95 -32
0 -13 18 -28 55 -48 48 -25 63 -28 121 -25 37 2 159 24 273 47 113 24 209 41
212 37 9 -9 -13 -93 -41 -154 -14 -30 -54 -85 -95 -128 -39 -41 -78 -91 -86
-110 -30 -72 -8 -144 39 -129 11 3 50 27 86 52 90 62 174 99 262 118 88 19
187 14 225 -11 l27 -17 -5 -162 c-6 -174 -27 -286 -73 -375 -46 -92 -87 -105
-216 -71 -108 29 -139 34 -139 25 0 -5 37 -47 83 -94 46 -48 96 -113 114 -147
43 -81 50 -86 98 -73 78 22 207 186 248 314 22 70 34 146 51 320 15 160 23
192 62 242 13 17 24 37 24 43 0 32 -115 102 -220 135 l-55 17 -100 -37 c-100
-37 -305 -89 -314 -80 -2 3 22 44 55 91 32 47 67 98 77 115 27 42 26 93 -2
122 l-22 24 78 7 c230 19 353 26 601 32 166 4 281 12 295 18 53 27 15 97 -73
135 -57 25 -158 35 -210 21z"/>
</g>
</svg>
