<?xml version="1.0" standalone="no"?>
<!DOCTYPE svg PUBLIC "-//W3C//DTD SVG 20010904//EN"
 "http://www.w3.org/TR/2001/REC-SVG-20010904/DTD/svg10.dtd">
<svg version="1.0" xmlns="http://www.w3.org/2000/svg"
 width="340.000000pt" height="340.000000pt" viewBox="0 0 340.000000 340.000000"
 preserveAspectRatio="xMidYMid meet">
<metadata>
Created by potrace 1.15, written by Peter Selinger 2001-2017
</metadata>
<g transform="translate(0.000000,340.000000) scale(0.100000,-0.100000)"
fill="#000000" stroke="none">
<path d="M1520 2905 c-9 -11 -4 -23 33 -62 24 -26 58 -75 75 -108 35 -71 117
-303 110 -311 -6 -6 -204 -53 -459 -108 l-166 -36 -67 25 c-69 26 -126 33
-126 15 0 -6 9 -28 20 -50 66 -128 37 -463 -59 -704 -61 -153 -133 -257 -293
-423 -118 -123 -118 -142 1 -76 328 182 500 499 543 1000 l12 142 68 16 c38 8
160 31 271 51 111 19 222 39 247 44 25 5 45 8 46 7 1 -1 20 -60 44 -132 57
-176 120 -329 187 -456 l56 -107 -49 -63 c-66 -87 -176 -211 -254 -288 -37
-37 -60 -66 -53 -68 42 -15 244 127 365 255 l66 70 63 -92 c92 -134 234 -271
334 -323 89 -46 168 -66 234 -61 39 3 46 6 52 30 4 16 1 56 -6 90 -7 35 -18
110 -25 168 -14 116 -31 170 -54 170 -9 0 -19 -15 -25 -37 -39 -157 -47 -177
-72 -196 l-27 -19 -58 31 c-80 43 -162 117 -260 236 l-83 99 56 81 c31 44 87
122 125 173 37 50 68 98 68 106 0 37 -126 116 -185 116 l-35 0 0 -52 c0 -29
-5 -71 -11 -93 -15 -54 -90 -215 -100 -215 -32 0 -239 509 -239 586 0 6 43 18
108 28 132 22 226 44 248 60 15 11 14 15 -8 40 -36 43 -116 46 -258 11 -61
-15 -113 -25 -116 -22 -12 12 -45 201 -51 291 -5 88 -9 103 -30 122 -48 45
-235 73 -263 39z"/>
<path d="M2090 2784 c0 -36 240 -244 280 -244 32 0 50 28 50 76 0 124 -83 184
-257 184 -61 0 -73 -3 -73 -16z"/>
<path d="M1545 2064 c-49 -19 -137 -48 -195 -64 -58 -17 -111 -32 -119 -35
-26 -10 2 -24 67 -34 58 -9 75 -7 195 23 235 60 301 99 223 131 -49 21 -68 18
-171 -21z"/>
<path d="M1523 1754 c-77 -37 -184 -58 -305 -58 -64 -1 -111 -5 -118 -12 -8
-8 -5 -22 10 -52 20 -38 90 -297 90 -333 0 -9 9 -24 19 -33 26 -23 59 -6 67
34 4 16 12 31 20 34 8 3 98 19 201 36 104 17 192 35 197 40 6 6 2 22 -8 43
-18 33 -18 34 7 83 14 28 41 71 59 95 39 52 38 75 -3 115 -27 26 -38 29 -107
31 -65 2 -85 -2 -129 -23z m53 -120 c18 -44 12 -93 -19 -148 -18 -32 -32 -43
-75 -57 -30 -10 -83 -22 -119 -27 -61 -8 -65 -7 -73 12 -9 22 -33 196 -28 201
7 7 237 53 266 54 29 1 35 -4 48 -35z"/>
<path d="M1487 1123 c-29 -28 34 -101 158 -185 88 -59 116 -67 144 -39 36 36
22 128 -26 173 -16 14 -52 33 -82 42 -54 16 -182 22 -194 9z"/>
<path d="M878 983 c-8 -10 -22 -39 -32 -64 -9 -25 -36 -76 -61 -112 -72 -107
-79 -125 -79 -203 -1 -112 26 -130 98 -64 49 45 102 138 122 214 18 67 18 168
0 211 -17 39 -26 43 -48 18z"/>
<path d="M1147 993 c-13 -12 -7 -51 18 -117 82 -219 183 -340 345 -415 203
-93 684 -106 849 -21 34 17 41 25 41 50 0 24 -17 47 -89 120 -49 50 -108 116
-132 148 -53 71 -90 112 -101 112 -14 0 -9 -45 12 -105 11 -32 20 -84 20 -115
0 -89 -10 -94 -190 -99 -203 -4 -294 9 -398 59 -112 54 -190 132 -256 258 -55
103 -97 148 -119 125z"/>
<path d="M2320 973 c0 -9 26 -42 58 -73 76 -74 280 -227 314 -235 24 -6 29 -3
38 21 15 39 -4 123 -41 174 -35 48 -80 70 -219 105 -118 30 -150 32 -150 8z"/>
</g>
</svg>
