<?xml version="1.0" standalone="no"?>
<!DOCTYPE svg PUBLIC "-//W3C//DTD SVG 20010904//EN"
 "http://www.w3.org/TR/2001/REC-SVG-20010904/DTD/svg10.dtd">
<svg version="1.0" xmlns="http://www.w3.org/2000/svg"
 width="340.000000pt" height="340.000000pt" viewBox="0 0 340.000000 340.000000"
 preserveAspectRatio="xMidYMid meet">
<metadata>
Created by potrace 1.15, written by Peter Selinger 2001-2017
</metadata>
<g transform="translate(0.000000,340.000000) scale(0.100000,-0.100000)"
fill="#000000" stroke="none">
<path d="M783 2693 c3 -10 21 -62 41 -115 19 -54 45 -141 56 -195 58 -277 43
-1286 -25 -1673 -20 -115 -15 -180 20 -254 26 -56 56 -83 76 -70 21 13 47 89
58 167 7 50 11 341 11 803 0 398 3 724 8 724 4 0 29 -27 56 -60 77 -93 150
-146 186 -135 32 10 43 42 35 100 -10 85 -61 116 -216 131 l-72 7 6 133 c3 73
14 178 23 234 l17 101 -28 29 c-49 51 -135 90 -200 90 -50 0 -57 -2 -52 -17z"/>
<path d="M2395 2621 c-28 -28 -362 -99 -695 -146 -146 -21 -206 -25 -285 -21
-55 4 -106 2 -114 -3 -11 -7 -1 -29 47 -106 57 -90 97 -180 167 -378 28 -79
84 -155 105 -142 5 3 10 19 10 35 0 22 6 31 23 35 30 7 618 115 627 115 4 0
11 -21 15 -46 9 -65 14 -74 38 -74 48 0 148 145 229 333 39 90 85 163 127 201
30 27 26 50 -14 94 -60 67 -248 136 -280 103z m51 -126 c20 -27 17 -102 -6
-170 -25 -73 -116 -265 -126 -265 -4 0 -23 5 -43 11 -29 9 -51 7 -116 -10 -43
-11 -81 -18 -83 -16 -2 2 19 54 46 117 81 183 88 243 36 295 -14 14 -24 26
-22 28 13 13 158 33 221 32 65 -2 81 -6 93 -22z m-389 -75 c15 -44 16 -163 2
-215 -6 -22 -24 -70 -41 -107 l-30 -66 -64 -16 c-35 -9 -66 -16 -70 -16 -3 0
-3 28 0 63 9 80 -9 233 -34 299 -11 29 -18 53 -17 54 6 6 204 42 222 41 13 -1
24 -14 32 -37z m-313 -58 c4 -20 10 -90 15 -155 7 -94 14 -128 34 -168 16 -33
21 -52 13 -54 -39 -12 -188 -27 -195 -19 -8 9 -116 380 -116 399 0 9 222 45
237 38 3 -2 9 -20 12 -41z"/>
<path d="M602 2089 c-5 -13 -15 -71 -21 -128 -14 -120 -39 -222 -77 -317 -22
-55 -26 -77 -22 -128 6 -65 29 -123 54 -133 45 -17 103 81 129 222 22 116 16
318 -13 418 -24 82 -37 100 -50 66z"/>
<path d="M1854 1886 c-4 -11 18 -52 66 -122 40 -58 68 -109 64 -114 -12 -10
-251 -53 -483 -86 -193 -27 -236 -37 -226 -54 14 -22 89 -51 156 -59 63 -8 79
-7 162 19 96 30 288 80 306 80 14 0 -20 -86 -75 -188 -124 -227 -326 -423
-621 -602 -80 -49 -97 -70 -57 -70 71 0 278 98 417 197 112 81 248 218 347
351 46 61 87 112 91 112 26 0 223 -105 253 -136 23 -23 20 -99 -7 -165 -47
-112 -163 -283 -211 -308 -24 -14 -32 -12 -99 18 -88 40 -135 56 -143 49 -3
-3 3 -23 14 -45 11 -21 36 -90 56 -153 20 -63 40 -121 45 -129 13 -21 77 -9
162 30 59 27 80 44 124 99 62 76 121 183 164 293 38 100 69 152 120 201 35 34
39 42 29 60 -21 41 -72 99 -119 136 -40 32 -57 38 -116 44 -70 7 -245 36 -252
42 -2 2 4 15 13 28 26 40 20 74 -19 113 -20 20 -34 37 -33 38 7 7 344 36 583
50 286 16 351 23 378 37 25 13 21 51 -11 81 -74 71 -203 78 -421 23 -115 -29
-442 -96 -468 -96 -3 0 6 12 21 26 32 33 35 84 6 124 -40 56 -202 113 -216 76z"/>
</g>
</svg>
