<?xml version="1.0" standalone="no"?>
<!DOCTYPE svg PUBLIC "-//W3C//DTD SVG 20010904//EN"
 "http://www.w3.org/TR/2001/REC-SVG-20010904/DTD/svg10.dtd">
<svg version="1.0" xmlns="http://www.w3.org/2000/svg"
 width="340.000000pt" height="340.000000pt" viewBox="0 0 340.000000 340.000000"
 preserveAspectRatio="xMidYMid meet">
<metadata>
Created by potrace 1.15, written by Peter Selinger 2001-2017
</metadata>
<g transform="translate(0.000000,340.000000) scale(0.100000,-0.100000)"
fill="#000000" stroke="none">
<path d="M2125 2698 c-93 -30 -228 -64 -369 -92 -111 -23 -143 -25 -237 -20
-96 6 -109 5 -109 -9 0 -9 8 -22 18 -29 40 -28 141 -234 177 -363 22 -75 63
-153 89 -167 15 -8 22 -7 33 8 7 10 13 26 13 36 0 10 3 18 7 18 3 0 81 10 172
21 129 17 176 19 211 11 25 -6 58 -8 74 -5 45 9 100 73 149 172 44 88 135 228
163 252 50 42 -30 121 -174 170 -69 24 -139 23 -217 -3z m106 -99 c20 -20 21
-29 16 -103 -6 -91 -29 -186 -62 -261 l-22 -50 -84 -2 c-46 -1 -142 -13 -213
-27 -72 -14 -131 -24 -134 -22 -4 4 -42 145 -42 157 0 4 28 9 63 13 108 12
260 46 315 71 57 26 67 50 26 65 -41 16 -85 12 -159 -16 -115 -43 -238 -84
-249 -84 -9 0 -59 180 -52 188 2 1 34 6 72 11 38 5 132 21 210 36 118 22 218
37 282 44 6 0 22 -9 33 -20z"/>
<path d="M763 2680 c-15 -16 -7 -36 28 -77 33 -39 54 -103 71 -222 18 -119 18
-910 0 -1081 -19 -181 -40 -309 -73 -445 -34 -141 -36 -195 -10 -298 24 -93
44 -132 77 -153 24 -16 26 -16 46 4 40 40 47 118 58 712 6 311 13 665 17 787
l5 223 30 -18 c17 -9 72 -59 123 -109 51 -51 95 -93 98 -93 3 0 13 7 21 16 22
21 20 89 -4 142 -16 35 -29 47 -74 68 -30 14 -83 27 -120 31 l-66 6 0 68 c0
90 18 212 39 274 25 72 16 89 -73 131 -80 38 -173 54 -193 34z"/>
<path d="M2160 1945 c-371 -77 -693 -128 -812 -129 -58 0 -110 -4 -114 -9 -4
-4 2 -20 13 -35 29 -40 69 -121 119 -240 67 -163 85 -180 121 -119 20 33 21
33 164 55 191 30 415 59 517 68 70 6 88 4 116 -11 48 -26 82 -13 141 52 132
145 181 190 225 205 27 9 46 22 48 32 9 45 -187 167 -277 172 -26 2 -139 -16
-261 -41z m237 -112 c-9 -84 -34 -147 -75 -192 l-37 -39 -140 -15 c-77 -8
-141 -14 -142 -13 -2 1 17 42 42 90 44 84 57 147 35 161 -21 13 -8 24 43 35
106 23 143 28 211 29 l69 1 -6 -57z m-447 -19 c14 -35 12 -129 -3 -189 l-13
-50 -57 -11 c-32 -7 -77 -15 -102 -18 l-44 -7 11 31 c5 17 8 56 6 86 -4 42
-12 63 -37 95 -18 22 -31 42 -30 43 3 2 192 36 252 45 4 0 12 -11 17 -25z
m-330 -36 c0 -2 14 -57 30 -122 21 -82 27 -122 20 -126 -20 -13 -182 -32 -189
-24 -5 5 -27 62 -49 126 l-41 117 32 6 c116 20 197 29 197 23z"/>
<path d="M557 1966 c-9 -9 -19 -33 -22 -54 -7 -41 -23 -89 -85 -262 -60 -167
-58 -260 5 -260 29 0 80 42 102 83 78 152 97 411 34 488 -16 20 -18 20 -34 5z"/>
<path d="M2076 1360 c-70 -53 -173 -79 -495 -127 -74 -11 -76 -28 -5 -49 64
-18 46 -21 322 43 84 19 159 32 167 29 40 -15 -14 -160 -107 -286 l-17 -23
-68 51 c-131 97 -207 125 -280 106 -32 -9 -29 -19 10 -34 69 -28 267 -173 267
-196 -1 -13 -78 -69 -166 -119 -93 -53 -218 -100 -338 -126 -103 -23 -133 -36
-118 -51 18 -18 256 -3 347 22 100 26 219 83 310 148 l70 49 105 -92 c150
-130 256 -212 303 -237 36 -18 53 -20 137 -15 91 5 367 47 458 69 23 6 42 17
42 24 0 17 -45 28 -190 49 -280 40 -547 134 -728 257 l-43 29 29 37 c16 20 59
82 95 137 36 55 86 120 111 145 25 24 46 50 46 56 0 41 -138 134 -196 134 -16
0 -46 -14 -68 -30z"/>
</g>
</svg>
