<?xml version="1.0" standalone="no"?>
<!DOCTYPE svg PUBLIC "-//W3C//DTD SVG 20010904//EN"
 "http://www.w3.org/TR/2001/REC-SVG-20010904/DTD/svg10.dtd">
<svg version="1.0" xmlns="http://www.w3.org/2000/svg"
 width="340.000000pt" height="340.000000pt" viewBox="0 0 340.000000 340.000000"
 preserveAspectRatio="xMidYMid meet">
<metadata>
Created by potrace 1.15, written by Peter Selinger 2001-2017
</metadata>
<g transform="translate(0.000000,340.000000) scale(0.100000,-0.100000)"
fill="#000000" stroke="none">
<path d="M1808 2914 c-18 -17 -5 -50 42 -110 62 -76 144 -152 175 -160 32 -8
60 9 79 50 36 76 -16 152 -131 191 -80 28 -154 41 -165 29z"/>
<path d="M814 2824 c18 -46 49 -192 62 -284 23 -175 14 -899 -16 -1315 -13
-176 -37 -356 -54 -406 -11 -32 -11 -54 0 -129 8 -50 22 -111 33 -135 21 -48
65 -85 82 -68 16 16 36 154 48 328 13 175 30 888 31 1218 0 114 3 207 6 207 3
0 31 -22 62 -48 82 -71 151 -114 178 -114 54 0 69 49 37 118 -26 54 -78 77
-190 82 l-93 4 0 30 c0 53 29 231 50 303 28 99 26 122 -15 160 -41 40 -111 65
-178 65 -41 0 -48 -3 -43 -16z"/>
<path d="M2265 2639 c-106 -28 -392 -85 -556 -110 -140 -22 -149 -22 -205 -6
-144 40 -145 39 -110 -93 35 -129 42 -239 27 -415 -35 -404 -132 -738 -335
-1155 -36 -74 -66 -141 -66 -147 0 -42 64 16 137 123 176 259 306 609 364 977
12 78 12 78 38 70 54 -17 222 -8 316 16 50 13 96 26 103 28 9 4 12 -17 12 -84
l0 -90 -122 -26 c-68 -15 -142 -30 -165 -33 -47 -7 -56 -26 -22 -45 28 -15
140 -13 222 4 36 8 69 12 72 9 6 -6 7 -172 1 -172 -3 0 -67 -9 -143 -20 -99
-15 -159 -19 -212 -14 l-74 7 6 -64 c13 -126 -35 -472 -78 -567 -37 -81 -29
-209 17 -267 19 -24 22 -25 38 -10 65 58 113 312 127 663 6 154 7 163 27 167
41 9 286 31 291 26 3 -2 5 -37 5 -77 l0 -72 -47 -11 c-27 -5 -74 -15 -105 -21
-121 -24 -89 -63 48 -58 l85 3 -3 -90 -3 -90 -100 -23 c-112 -26 -142 -44
-111 -68 14 -10 47 -14 112 -14 l91 0 5 -193 c2 -109 9 -200 15 -211 10 -19
12 -18 36 6 31 31 45 94 60 280 l12 141 93 24 c105 26 172 57 172 78 0 20 -52
45 -93 45 -33 0 -124 -15 -159 -26 -16 -5 -18 3 -18 73 l0 79 69 16 c88 21
159 52 168 74 16 41 -86 58 -180 30 l-47 -14 0 73 0 73 50 11 c100 21 188 32
241 29 53 -3 54 -4 76 -48 63 -125 84 -745 27 -787 -20 -15 -70 -9 -159 18
-105 33 -108 26 -30 -62 30 -34 83 -106 118 -160 35 -56 69 -99 78 -99 30 0
98 70 130 136 28 57 33 78 37 167 2 56 -3 185 -12 285 -18 206 -20 385 -5 452
25 115 24 123 -14 157 -27 23 -56 36 -113 49 -77 17 -79 17 -153 -6 -94 -28
-196 -55 -238 -63 l-33 -6 0 89 c0 90 0 90 28 96 15 3 43 10 62 15 19 4 82 15
140 24 142 22 170 31 170 58 0 11 -13 35 -30 52 -29 30 -30 31 -19 92 l11 61
219 7 c248 8 261 12 233 67 -10 19 -32 37 -62 50 l-46 21 -125 -22 c-193 -34
-191 -34 -191 -19 0 8 18 34 40 58 22 24 40 47 40 51 0 17 -55 71 -91 89 -49
26 -73 25 -161 -4 -82 -26 -205 -52 -213 -45 -2 3 1 32 7 66 13 71 7 101 -28
142 -14 17 -22 31 -17 31 16 0 349 50 438 66 148 26 169 57 62 89 -68 20 -196
18 -282 -6z m-299 -234 c6 -33 14 -84 17 -113 6 -49 4 -53 -18 -62 -32 -12
-222 -40 -273 -40 -50 0 -63 -17 -32 -42 32 -26 149 -23 303 8 l28 6 -3 -78
-3 -79 -55 -12 c-88 -20 -369 -57 -376 -50 -4 3 1 64 9 134 9 70 19 178 23
240 l7 112 41 5 c236 28 284 34 301 32 15 -1 22 -13 31 -61z m374 -216 c9 -17
6 -119 -4 -119 -1 0 -51 -9 -111 -20 -157 -29 -145 -33 -145 55 0 69 2 75 23
80 48 12 124 23 174 24 43 1 54 -3 63 -20z m-24 -281 c-4 -40 -13 -78 -19 -84
-7 -6 -58 -23 -114 -36 l-103 -26 0 94 c0 89 1 94 23 99 34 8 148 22 186 24
l34 1 -7 -72z"/>
<path d="M592 2097 c-12 -13 -22 -34 -22 -46 0 -13 -20 -84 -45 -158 -48 -142
-57 -224 -34 -306 12 -46 31 -55 73 -35 59 29 126 196 126 314 -1 109 -40 254
-68 254 -5 0 -18 -10 -30 -23z"/>
</g>
</svg>
