<?xml version="1.0" standalone="no"?>
<!DOCTYPE svg PUBLIC "-//W3C//DTD SVG 20010904//EN"
 "http://www.w3.org/TR/2001/REC-SVG-20010904/DTD/svg10.dtd">
<svg version="1.0" xmlns="http://www.w3.org/2000/svg"
 width="340.000000pt" height="340.000000pt" viewBox="0 0 340.000000 340.000000"
 preserveAspectRatio="xMidYMid meet">
<metadata>
Created by potrace 1.15, written by Peter Selinger 2001-2017
</metadata>
<g transform="translate(0.000000,340.000000) scale(0.100000,-0.100000)"
fill="#000000" stroke="none">
<path d="M2300 2841 c-5 -11 -10 -29 -10 -40 0 -68 -84 -213 -189 -324 -35
-37 -61 -70 -57 -74 6 -6 148 63 372 181 67 35 127 65 134 68 41 13 -52 133
-133 171 -77 37 -104 41 -117 18z"/>
<path d="M767 2705 c-4 -9 10 -56 33 -109 106 -249 132 -507 111 -1096 -11
-320 -23 -457 -49 -565 -23 -98 -23 -273 2 -343 17 -49 74 -122 96 -122 18 0
39 45 50 110 26 146 23 848 -7 1369 l-6 115 31 -23 c17 -12 67 -55 110 -96 81
-76 108 -88 136 -59 26 26 14 105 -23 148 -26 31 -97 57 -172 63 l-71 6 4 141
c3 78 13 189 23 248 l19 107 -28 30 c-37 38 -127 78 -197 86 -47 6 -57 4 -62
-10z"/>
<path d="M1608 2649 c-17 -9 -16 -14 8 -62 60 -117 140 -207 185 -207 37 0 49
24 49 102 l0 63 -62 42 c-64 43 -127 73 -150 73 -7 0 -21 -5 -30 -11z"/>
<path d="M2400 2333 c-165 -44 -458 -104 -703 -143 -167 -27 -206 -30 -242
-21 -24 6 -69 11 -100 11 -68 0 -79 -16 -40 -61 38 -46 84 -141 116 -239 44
-139 117 -338 139 -381 34 -65 65 -64 79 3 7 33 8 33 86 46 154 24 461 61 567
67 l107 7 15 -36 c14 -33 19 -37 48 -34 44 4 76 58 134 228 68 201 104 270
169 326 30 27 55 53 55 60 0 39 -136 139 -240 177 l-65 24 -125 -34z m121 -83
c17 -9 19 -22 19 -106 0 -112 -18 -209 -67 -357 -30 -89 -39 -107 -52 -101
-41 19 -141 15 -246 -10 -58 -14 -115 -26 -126 -26 -35 0 -36 42 -2 417 4 46
2 55 -21 78 -17 17 -22 27 -13 30 6 2 77 16 157 30 80 14 174 32 210 40 82 17
116 18 141 5z m-621 -138 c16 -62 30 -218 30 -348 l0 -121 -147 -26 c-81 -15
-148 -26 -149 -24 -1 1 -30 106 -64 232 -33 127 -63 237 -66 247 -6 19 2 21
201 53 192 31 182 32 195 -13z"/>
<path d="M2267 2124 c-4 -4 -7 -17 -7 -28 0 -28 -53 -139 -94 -196 -49 -69
-49 -70 -28 -70 26 0 113 60 196 133 65 57 66 59 52 85 -27 52 -98 97 -119 76z"/>
<path d="M1637 1953 c-14 -13 -6 -32 34 -83 22 -28 56 -58 76 -68 34 -16 35
-16 54 7 39 48 23 83 -52 121 -56 29 -98 37 -112 23z"/>
<path d="M592 1883 c-5 -10 -13 -40 -17 -68 -3 -27 -26 -108 -50 -180 -49
-148 -61 -225 -45 -284 12 -46 37 -59 81 -41 41 18 95 131 111 233 19 126 -15
347 -55 355 -9 2 -20 -5 -25 -15z"/>
<path d="M2200 1419 c-93 -35 -210 -66 -343 -90 -111 -20 -134 -22 -185 -11
-80 17 -121 15 -129 -4 -3 -8 7 -40 22 -70 35 -70 42 -153 32 -394 -8 -196 0
-294 28 -337 46 -70 93 -15 107 127 3 24 7 25 78 32 41 3 152 9 247 14 l171 7
21 -33 c11 -18 29 -69 41 -114 31 -113 59 -176 79 -176 24 0 66 47 90 100 11
25 27 89 37 144 13 82 14 112 5 180 -31 227 -33 254 -22 321 5 38 22 91 36
120 14 29 25 57 25 64 0 18 -116 98 -168 114 -83 27 -113 28 -172 6z m87 -124
c34 -24 48 -103 47 -275 -1 -145 -17 -300 -32 -300 -4 0 -20 14 -36 30 -48 49
-95 56 -201 31 -120 -28 -251 -51 -297 -51 l-38 0 0 124 0 124 78 6 c257 21
372 43 372 72 0 8 -20 24 -46 35 l-45 21 -147 -35 c-81 -20 -161 -38 -178 -41
l-31 -5 -8 101 c-4 55 -3 104 2 108 7 7 241 49 348 63 81 11 191 6 212 -8z"/>
</g>
</svg>
