<?xml version="1.0" standalone="no"?>
<!DOCTYPE svg PUBLIC "-//W3C//DTD SVG 20010904//EN"
 "http://www.w3.org/TR/2001/REC-SVG-20010904/DTD/svg10.dtd">
<svg version="1.0" xmlns="http://www.w3.org/2000/svg"
 width="340.000000pt" height="340.000000pt" viewBox="0 0 340.000000 340.000000"
 preserveAspectRatio="xMidYMid meet">
<metadata>
Created by potrace 1.15, written by Peter Selinger 2001-2017
</metadata>
<g transform="translate(0.000000,340.000000) scale(0.100000,-0.100000)"
fill="#000000" stroke="none">
<path d="M1321 2821 c-11 -7 -6 -19 28 -58 61 -68 76 -102 106 -243 15 -69 45
-195 67 -280 22 -85 41 -161 42 -169 1 -15 -89 -46 -303 -106 -137 -39 -180
-42 -261 -20 -30 8 -81 17 -112 21 -73 8 -79 -3 -43 -81 39 -85 54 -154 61
-278 14 -250 -38 -530 -133 -722 -57 -112 -101 -174 -205 -281 -99 -102 -118
-131 -75 -118 42 13 75 34 151 94 187 151 321 365 385 616 l11 41 112 0 c126
0 221 19 302 59 77 38 99 81 54 105 -41 22 -111 10 -273 -46 -182 -62 -200
-66 -189 -32 4 12 10 132 13 266 l6 245 165 28 c91 16 214 40 273 54 60 14
110 24 111 23 2 -2 20 -56 41 -119 66 -200 144 -384 231 -541 l45 -81 -40 -51
c-59 -77 -244 -254 -346 -332 -122 -93 -119 -88 -48 -82 119 10 249 92 401
252 l89 94 49 -72 c213 -313 492 -534 773 -611 53 -15 65 -15 72 -4 14 22 10
86 -16 237 -14 79 -25 165 -25 191 0 73 -12 170 -21 170 -4 0 -24 -53 -45
-117 -38 -124 -72 -201 -98 -222 -19 -16 -84 4 -162 48 -106 61 -277 247 -387
421 l-35 55 92 150 c51 83 116 186 145 230 l53 80 -53 48 c-60 54 -122 87
-163 87 l-28 0 7 -63 c5 -45 2 -82 -9 -128 -17 -68 -101 -252 -123 -271 -22
-18 -141 254 -227 520 -25 79 -46 145 -46 147 0 2 24 9 53 15 94 23 273 77
320 98 82 36 82 86 0 113 -50 16 -117 5 -271 -47 -73 -24 -137 -42 -142 -39
-10 6 -43 146 -66 280 -12 73 -15 133 -11 228 l5 129 -32 19 c-74 46 -235 75
-275 50z"/>
<path d="M2063 2660 c-13 -5 -23 -13 -23 -18 0 -10 233 -214 296 -258 24 -18
58 -37 75 -45 28 -11 33 -10 46 6 43 60 37 137 -18 208 -48 62 -80 85 -145
102 -63 16 -196 19 -231 5z"/>
</g>
</svg>
