<?xml version="1.0" standalone="no"?>
<!DOCTYPE svg PUBLIC "-//W3C//DTD SVG 20010904//EN"
 "http://www.w3.org/TR/2001/REC-SVG-20010904/DTD/svg10.dtd">
<svg version="1.0" xmlns="http://www.w3.org/2000/svg"
 width="340.000000pt" height="340.000000pt" viewBox="0 0 340.000000 340.000000"
 preserveAspectRatio="xMidYMid meet">
<metadata>
Created by potrace 1.15, written by Peter Selinger 2001-2017
</metadata>
<g transform="translate(0.000000,340.000000) scale(0.100000,-0.100000)"
fill="#000000" stroke="none">
<path d="M1920 2841 c0 -10 13 -47 29 -82 25 -56 32 -93 56 -304 14 -132 38
-334 52 -448 14 -115 23 -209 22 -211 -2 -1 -41 -17 -86 -35 -56 -22 -84 -39
-89 -53 -13 -44 21 -46 176 -12 25 5 26 3 53 -115 15 -65 46 -173 67 -237 l40
-118 -58 -56 c-73 -69 -214 -169 -359 -256 -62 -37 -113 -72 -113 -77 0 -15
108 -2 175 22 78 28 197 97 312 182 51 38 94 65 97 60 3 -4 21 -39 41 -77 125
-236 392 -552 524 -619 108 -54 128 -26 118 171 -4 67 -2 185 4 264 5 78 7
145 4 148 -2 3 -23 -35 -45 -84 -65 -141 -92 -193 -110 -209 -15 -13 -24 -8
-98 50 -116 94 -238 246 -318 399 l-27 53 109 129 c148 174 174 209 174 232 0
21 -42 88 -69 110 -30 24 -96 51 -105 42 -4 -4 -16 -44 -27 -88 -10 -44 -29
-105 -43 -135 -22 -51 -101 -177 -111 -177 -6 0 -41 120 -81 282 -28 112 -33
143 -22 147 31 9 319 161 359 189 24 16 58 44 74 62 29 31 29 32 11 46 -47 34
-129 8 -323 -102 -81 -46 -149 -81 -152 -78 -14 13 -31 229 -37 459 -6 213 -4
261 10 322 26 114 22 144 -19 172 -50 33 -102 50 -162 51 -45 0 -53 -3 -53
-19z"/>
<path d="M1530 2730 c-41 -21 -97 -46 -123 -55 -40 -14 -48 -21 -45 -38 3 -19
10 -22 63 -25 33 -2 91 2 128 8 38 7 71 10 73 7 14 -13 15 -208 3 -347 -7 -85
-12 -184 -11 -219 3 -71 25 -135 44 -129 43 15 71 146 90 420 11 169 14 187
40 237 15 29 28 58 28 65 0 33 -109 101 -177 111 -31 4 -52 -2 -113 -35z"/>
<path d="M935 2634 c-49 -24 -126 -53 -169 -64 -88 -22 -97 -27 -76 -41 50
-31 138 -37 220 -13 104 30 97 31 110 -16 8 -28 10 -123 8 -276 -3 -200 -1
-235 12 -249 45 -44 78 64 86 280 6 140 9 156 40 235 40 100 41 111 12 129
-49 31 -117 61 -134 60 -11 0 -59 -20 -109 -45z"/>
<path d="M2345 2493 c-48 -10 -76 -26 -73 -42 5 -23 81 -72 192 -120 88 -38
98 -41 123 -29 23 11 29 21 31 53 6 86 -72 145 -193 143 -33 0 -69 -2 -80 -5z"/>
<path d="M1310 2460 c-34 -21 134 -154 187 -148 24 3 28 8 31 38 4 43 -32 101
-68 111 -38 11 -133 10 -150 -1z"/>
<path d="M680 2360 c-13 -8 -13 -13 1 -37 23 -38 133 -131 165 -139 44 -11 59
39 28 97 -23 46 -159 102 -194 79z"/>
<path d="M1495 2215 c-33 -19 -99 -49 -147 -67 -49 -18 -88 -37 -88 -43 0 -16
49 -60 90 -80 l35 -18 25 33 c14 18 46 58 71 89 54 67 83 110 78 116 -3 2 -32
-11 -64 -30z"/>
<path d="M875 2079 c-27 -11 -102 -35 -165 -53 -83 -25 -116 -39 -118 -51 -4
-19 77 -100 110 -111 14 -4 40 11 96 57 89 72 182 160 182 171 0 14 -54 8
-105 -13z"/>
<path d="M1132 1978 c-6 -7 -19 -39 -30 -70 -61 -174 -264 -409 -581 -673
-157 -130 -165 -153 -35 -91 157 74 346 217 494 372 76 80 233 263 254 296 6
10 14 18 19 18 4 0 109 -50 232 -111 250 -124 309 -141 320 -96 10 39 -26 111
-72 141 -47 31 -174 61 -335 78 -95 10 -118 15 -118 28 0 26 -30 60 -78 91
-52 33 -56 34 -70 17z"/>
<path d="M1268 1593 c-29 -103 -192 -286 -345 -388 -115 -76 -89 -86 54 -20
105 49 176 99 283 200 52 50 115 106 139 126 37 31 43 40 37 62 -8 35 -59 69
-110 74 l-42 5 -16 -59z"/>
<path d="M1362 1363 c-5 -10 -13 -33 -17 -50 -9 -45 -78 -135 -160 -212 -74
-69 -253 -214 -285 -231 -24 -13 -27 -40 -4 -40 30 0 165 62 237 109 87 57
176 136 287 254 80 85 82 89 69 113 -28 54 -110 90 -127 57z"/>
<path d="M1453 1078 c-5 -7 -19 -36 -30 -65 -45 -111 -149 -238 -298 -362 -88
-73 -244 -179 -344 -233 -28 -16 -51 -32 -51 -38 0 -13 49 -3 150 33 203 70
356 172 541 356 74 75 150 147 169 161 32 25 33 26 17 55 -20 39 -65 81 -100
94 -36 14 -42 14 -54 -1z"/>
</g>
</svg>
