<?xml version="1.0" standalone="no"?>
<!DOCTYPE svg PUBLIC "-//W3C//DTD SVG 20010904//EN"
 "http://www.w3.org/TR/2001/REC-SVG-20010904/DTD/svg10.dtd">
<svg version="1.0" xmlns="http://www.w3.org/2000/svg"
 width="340.000000pt" height="340.000000pt" viewBox="0 0 340.000000 340.000000"
 preserveAspectRatio="xMidYMid meet">
<metadata>
Created by potrace 1.15, written by Peter Selinger 2001-2017
</metadata>
<g transform="translate(0.000000,340.000000) scale(0.100000,-0.100000)"
fill="#000000" stroke="none">
<path d="M1710 2911 c0 -6 20 -51 45 -99 29 -56 51 -116 61 -167 14 -70 64
-437 60 -442 -1 -1 -122 -22 -269 -46 l-267 -43 0 100 0 101 135 26 c148 29
185 46 185 84 0 31 -26 45 -85 45 -41 0 -171 -28 -221 -47 -16 -6 -17 0 -11
63 3 38 15 95 27 127 12 32 19 64 17 71 -13 32 -224 112 -244 93 -3 -4 10 -42
30 -84 28 -62 38 -100 48 -181 6 -58 8 -107 3 -112 -5 -4 -76 -22 -159 -40
-140 -29 -177 -41 -163 -55 14 -14 151 -27 231 -22 l87 6 0 -95 c0 -52 -2 -94
-5 -94 -3 0 -67 -11 -143 -25 -75 -14 -223 -37 -328 -50 -199 -26 -224 -31
-224 -47 0 -12 74 -45 135 -59 44 -10 66 -8 170 15 203 44 886 163 1020 178
30 3 30 3 43 -72 65 -380 91 -498 153 -696 l42 -132 -79 -103 c-44 -57 -129
-155 -191 -218 -61 -64 -110 -118 -107 -120 7 -7 105 42 181 91 85 56 148 111
213 190 l48 56 76 -131 c182 -313 359 -509 533 -588 34 -16 80 -31 102 -35
l41 -7 0 287 c0 196 -3 286 -11 286 -6 0 -31 -44 -55 -98 -87 -188 -88 -190
-135 -173 -54 19 -157 99 -221 174 -67 78 -160 216 -210 313 l-32 62 26 39
c51 78 198 401 198 437 0 6 12 36 26 66 l25 55 -28 23 c-41 34 -123 72 -158
72 l-30 0 0 -127 c-1 -112 -4 -138 -28 -205 -40 -114 -89 -220 -98 -211 -22
22 -153 599 -171 753 l-3 25 155 6 c163 6 251 21 271 45 19 23 -4 60 -47 74
-59 20 -263 0 -374 -35 -23 -7 -27 24 -36 275 -4 132 -3 219 5 270 12 75 12
75 -14 96 -54 43 -245 86 -245 55z"/>
<path d="M2163 2663 c-13 -2 -23 -8 -23 -13 0 -27 91 -107 233 -204 78 -52
101 -51 113 8 13 72 -37 146 -126 185 -46 20 -155 34 -197 24z"/>
<path d="M1515 1944 c-121 -45 -545 -124 -666 -124 -100 0 -116 -15 -65 -62
42 -39 56 -72 91 -207 33 -133 51 -176 81 -196 30 -19 64 -85 64 -123 0 -29 0
-29 -97 -45 -99 -16 -121 -26 -108 -48 6 -9 35 -10 111 -6 l104 7 0 -83 0 -83
-142 -22 c-79 -13 -195 -27 -258 -33 -87 -8 -120 -15 -134 -29 -18 -18 -18
-18 7 -34 45 -30 148 -31 287 -2 69 14 151 28 183 32 l57 7 0 -30 c0 -60 -83
-155 -258 -296 -63 -50 -110 -93 -104 -95 14 -4 157 54 222 90 30 17 93 61
140 98 47 37 104 79 128 94 41 26 43 29 29 49 -14 21 -93 80 -119 90 -47 16
93 39 439 71 194 17 269 28 288 40 30 19 25 36 -18 61 -42 26 -132 24 -251 -4
-49 -12 -91 -19 -94 -16 -3 3 5 40 19 83 l25 77 75 6 c149 13 187 26 173 62
-12 32 -67 40 -150 23 -42 -9 -78 -16 -80 -16 -9 0 -3 27 17 68 25 51 19 62
-46 85 l-40 15 45 6 c25 3 60 5 78 3 33 -2 34 -1 96 118 34 66 81 149 104 184
23 36 42 73 42 83 0 26 -74 75 -148 98 -75 23 -75 23 -127 4z m43 -96 c28 -28
3 -229 -37 -294 -17 -28 -26 -32 -97 -43 -44 -7 -92 -14 -107 -17 l-28 -6 3
63 3 63 76 12 c83 13 119 27 119 48 0 37 -56 44 -167 20 l-33 -6 17 46 c14 38
15 50 5 66 -15 25 -15 25 93 44 102 18 138 19 153 4z m-348 -74 c6 -14 10 -45
10 -70 0 -34 -4 -44 -17 -44 -32 0 -139 -21 -154 -31 -26 -17 11 -29 94 -29
l77 0 0 -59 c0 -57 -1 -60 -27 -65 -74 -14 -195 -28 -200 -22 -4 4 -17 68 -30
143 -13 76 -25 145 -28 154 -5 14 8 18 97 29 57 6 108 13 113 15 32 11 56 3
65 -21z m184 -350 c9 -23 7 -164 -1 -164 -5 0 -60 -9 -123 -20 -144 -25 -140
-25 -140 6 0 25 -25 55 -93 111 -15 12 -27 26 -27 31 0 5 73 18 163 30 206 25
214 25 221 6z m-14 -257 c0 -28 -28 -128 -39 -140 -7 -7 -173 -36 -208 -37
-10 0 -13 23 -13 83 l0 84 123 15 c67 8 125 16 130 17 4 0 7 -9 7 -22z"/>
<path d="M1370 879 c0 -6 23 -55 50 -109 57 -110 115 -183 160 -198 26 -10 32
-8 50 15 23 30 26 82 6 121 -22 42 -121 131 -168 151 -60 26 -98 34 -98 20z"/>
</g>
</svg>
