<?xml version="1.0" standalone="no"?>
<!DOCTYPE svg PUBLIC "-//W3C//DTD SVG 20010904//EN"
 "http://www.w3.org/TR/2001/REC-SVG-20010904/DTD/svg10.dtd">
<svg version="1.0" xmlns="http://www.w3.org/2000/svg"
 width="340.000000pt" height="340.000000pt" viewBox="0 0 340.000000 340.000000"
 preserveAspectRatio="xMidYMid meet">
<metadata>
Created by potrace 1.15, written by Peter Selinger 2001-2017
</metadata>
<g transform="translate(0.000000,340.000000) scale(0.100000,-0.100000)"
fill="#000000" stroke="none">
<path d="M1608 2819 c-46 -18 -35 -43 52 -113 188 -152 292 -185 320 -102 14
43 2 94 -35 141 -19 26 -41 39 -89 54 -77 24 -211 35 -248 20z"/>
<path d="M2093 2412 c-113 -43 -314 -95 -473 -121 l-125 -21 -90 25 c-90 25
-175 33 -175 16 0 -5 14 -35 30 -66 37 -70 39 -124 10 -266 -66 -321 -233
-661 -458 -929 -77 -92 -260 -275 -372 -373 -42 -36 -51 -50 -42 -59 9 -9 26
-5 74 18 229 107 444 319 643 634 l60 94 7 -95 c4 -56 2 -144 -5 -219 -16
-168 -14 -253 7 -324 17 -58 61 -116 75 -100 35 39 56 297 46 569 -3 105 -9
200 -11 212 -7 27 0 29 140 44 99 10 111 10 122 -6 14 -19 31 -111 40 -217 l7
-75 -89 -7 c-89 -7 -154 -26 -154 -45 0 -14 61 -29 157 -37 l82 -7 5 -41 c3
-22 8 -84 11 -136 3 -52 10 -113 16 -135 l11 -39 18 22 c25 30 39 101 46 236
l7 114 66 6 c36 4 92 9 124 13 l57 6 0 -49 c0 -27 -5 -121 -11 -210 -12 -170
-9 -214 17 -214 26 0 51 77 93 284 23 109 43 202 46 206 3 4 40 11 82 14 101
9 203 26 226 38 23 12 22 43 -3 68 -17 17 -33 20 -107 20 -49 -1 -108 -5 -133
-10 -25 -4 -47 -6 -49 -4 -3 3 3 50 12 107 18 116 15 126 -52 148 l-36 12 28
8 c42 11 230 29 306 29 89 0 135 -14 149 -45 36 -79 41 -431 8 -608 -16 -84
-50 -164 -78 -181 -11 -7 -57 -6 -144 3 -85 8 -130 9 -137 2 -7 -7 8 -28 44
-63 30 -29 94 -101 142 -161 l87 -107 41 20 c116 59 209 236 238 451 6 41 13
138 17 215 8 172 24 247 74 346 l39 77 -40 36 c-60 54 -149 109 -219 135 l-61
23 -187 -36 c-291 -56 -711 -112 -1000 -133 l-93 -7 24 64 c13 35 40 96 60
135 l36 71 83 7 c97 8 336 44 603 91 189 34 215 44 215 82 0 7 -13 27 -29 46
l-30 33 50 67 c27 37 80 92 119 124 87 71 94 88 49 125 -51 43 -116 69 -190
77 -62 6 -75 4 -156 -27z m5 -179 c2 -29 -2 -70 -7 -91 -16 -56 -66 -121 -109
-139 -81 -34 -545 -133 -559 -119 -3 3 11 72 31 154 l37 148 162 32 c89 17
205 39 257 47 52 8 106 16 120 19 59 9 65 5 68 -51z m-124 -735 c3 -13 6 -82
6 -155 l0 -131 -27 -6 c-40 -8 -193 -26 -222 -26 l-24 0 7 123 7 123 -43 24
-43 25 100 12 c55 8 123 17 150 22 77 13 82 13 89 -11z"/>
</g>
</svg>
