<?xml version="1.0" standalone="no"?>
<!DOCTYPE svg PUBLIC "-//W3C//DTD SVG 20010904//EN"
 "http://www.w3.org/TR/2001/REC-SVG-20010904/DTD/svg10.dtd">
<svg version="1.0" xmlns="http://www.w3.org/2000/svg"
 width="340.000000pt" height="340.000000pt" viewBox="0 0 340.000000 340.000000"
 preserveAspectRatio="xMidYMid meet">
<metadata>
Created by potrace 1.15, written by Peter Selinger 2001-2017
</metadata>
<g transform="translate(0.000000,340.000000) scale(0.100000,-0.100000)"
fill="#000000" stroke="none">
<path d="M1697 2823 c-13 -13 -7 -51 13 -76 56 -71 81 -182 105 -458 9 -100
15 -182 13 -183 -2 -1 -77 -12 -168 -25 -424 -58 -687 -91 -815 -101 -77 -7
-146 -14 -154 -16 -25 -8 25 -49 100 -84 99 -45 151 -44 365 8 140 35 320 67
532 96 17 3 32 1 32 -3 0 -15 -158 -245 -227 -331 -95 -118 -296 -324 -433
-442 -101 -87 -243 -198 -433 -337 -103 -75 -66 -79 88 -9 404 186 760 498
1045 919 l68 100 7 -98 c10 -124 -1 -747 -15 -873 -12 -107 -24 -153 -47 -171
-22 -19 -116 -14 -193 10 -62 20 -120 27 -120 15 0 -3 32 -42 71 -87 39 -45
103 -128 141 -185 81 -121 103 -136 157 -105 73 42 129 156 157 316 14 81 15
138 4 497 -6 223 -15 492 -20 599 -6 107 -8 197 -5 200 3 2 174 7 380 10 252
4 378 10 385 17 6 6 8 23 4 37 -16 67 -143 126 -289 134 -64 4 -117 -3 -265
-31 -102 -20 -193 -36 -204 -36 -18 0 -19 7 -13 144 8 158 20 267 42 348 18
70 3 107 -57 142 -87 51 -227 84 -251 59z"/>
</g>
</svg>
