<?xml version="1.0" standalone="no"?>
<!DOCTYPE svg PUBLIC "-//W3C//DTD SVG 20010904//EN"
 "http://www.w3.org/TR/2001/REC-SVG-20010904/DTD/svg10.dtd">
<svg version="1.0" xmlns="http://www.w3.org/2000/svg"
 width="340.000000pt" height="340.000000pt" viewBox="0 0 340.000000 340.000000"
 preserveAspectRatio="xMidYMid meet">
<metadata>
Created by potrace 1.15, written by Peter Selinger 2001-2017
</metadata>
<g transform="translate(0.000000,340.000000) scale(0.100000,-0.100000)"
fill="#000000" stroke="none">
<path d="M1137 2793 c-4 -6 3 -34 14 -64 44 -115 79 -382 79 -604 l0 -104
-102 -32 c-57 -18 -182 -53 -278 -78 -197 -52 -216 -66 -133 -97 89 -35 191
-22 426 52 43 13 80 24 83 24 2 0 4 -80 4 -178 l0 -178 -142 -84 c-201 -119
-409 -222 -527 -260 -91 -29 -101 -35 -101 -56 0 -38 64 -100 126 -124 70 -26
59 -31 317 163 111 84 233 174 271 200 l69 49 -6 -189 c-7 -193 -26 -332 -48
-360 -10 -11 -24 -14 -59 -9 -25 4 -72 9 -105 12 l-60 6 37 -35 c42 -40 110
-141 156 -233 45 -90 54 -94 101 -47 71 70 74 94 80 540 l6 392 100 74 c150
111 183 147 135 147 -22 0 -118 -46 -182 -86 -68 -43 -69 -42 -66 121 l3 146
117 39 c136 45 218 85 218 104 0 8 -9 24 -19 37 -18 22 -27 24 -103 23 -65 -1
-98 -7 -152 -28 l-69 -26 6 132 c8 154 29 302 57 406 11 40 20 81 20 91 0 21
-53 67 -110 96 -39 20 -154 33 -163 18z"/>
<path d="M1924 2767 c-3 -8 8 -46 24 -84 41 -93 68 -187 93 -323 19 -103 22
-161 26 -555 5 -455 -5 -722 -34 -930 -31 -228 -27 -316 23 -421 37 -78 50
-85 85 -47 48 55 61 117 66 331 3 106 0 315 -6 465 -6 150 -14 368 -17 486
l-7 214 69 -38 c38 -21 146 -86 239 -143 232 -144 316 -192 337 -192 9 0 26
10 38 22 45 48 13 162 -69 244 -34 35 -146 82 -266 113 -82 20 -272 51 -319
51 l-26 0 0 153 c0 173 11 283 42 410 25 105 21 118 -57 178 -74 57 -228 99
-241 66z"/>
</g>
</svg>
