<?xml version="1.0" standalone="no"?>
<!DOCTYPE svg PUBLIC "-//W3C//DTD SVG 20010904//EN"
 "http://www.w3.org/TR/2001/REC-SVG-20010904/DTD/svg10.dtd">
<svg version="1.0" xmlns="http://www.w3.org/2000/svg"
 width="340.000000pt" height="340.000000pt" viewBox="0 0 340.000000 340.000000"
 preserveAspectRatio="xMidYMid meet">
<metadata>
Created by potrace 1.15, written by Peter Selinger 2001-2017
</metadata>
<g transform="translate(0.000000,340.000000) scale(0.100000,-0.100000)"
fill="#000000" stroke="none">
<path d="M1090 2808 c0 -7 9 -37 20 -67 12 -29 29 -103 40 -165 23 -130 49
-562 34 -575 -11 -11 -297 -103 -374 -121 -99 -23 -135 -51 -87 -69 75 -29
210 -20 379 23 l88 23 0 -96 c0 -53 3 -146 6 -207 l7 -111 -94 -50 c-244 -131
-486 -228 -599 -240 -69 -7 -79 -17 -60 -63 18 -43 132 -147 171 -155 36 -8
31 -11 229 145 67 52 169 128 228 168 l107 73 3 -113 c1 -62 -2 -191 -7 -287
-12 -227 -8 -222 -149 -186 -55 15 -111 25 -124 23 -21 -3 -19 -8 32 -63 75
-81 141 -168 179 -237 46 -82 55 -87 92 -52 44 42 77 121 96 231 14 87 15 134
5 423 -5 178 -8 328 -6 331 2 4 49 35 105 69 161 99 208 150 137 150 -29 0
-90 -29 -205 -96 -17 -10 -34 -16 -36 -14 -3 3 -7 92 -9 198 l-4 192 40 10
c119 29 272 86 300 110 29 27 30 28 13 54 -10 14 -29 29 -43 32 -40 10 -126
-4 -221 -36 -48 -16 -88 -28 -89 -27 -1 1 2 54 7 117 13 171 37 320 65 413 42
135 42 128 -11 175 -70 61 -119 82 -198 82 -47 0 -67 -4 -67 -12z"/>
<path d="M2460 1899 c-106 -42 -273 -85 -425 -110 -134 -21 -191 -21 -307 1
-84 16 -118 9 -118 -25 0 -14 25 -76 54 -138 64 -130 98 -242 126 -417 25
-151 43 -210 76 -245 24 -26 26 -26 44 -10 11 10 24 33 30 51 7 21 18 34 28
34 59 0 447 32 542 45 166 22 174 25 178 64 3 28 -3 40 -44 78 l-47 45 27 57
c52 105 135 237 201 315 36 43 65 83 65 87 0 18 -57 70 -114 104 -61 36 -205
95 -228 94 -7 0 -47 -14 -88 -30z m21 -170 c28 -14 33 -72 21 -211 -15 -162
-38 -265 -67 -293 -29 -30 -125 -51 -334 -75 -91 -10 -166 -18 -167 -17 -1 1
-7 63 -14 137 -6 74 -19 192 -29 263 l-17 128 20 4 c62 14 356 68 409 75 68 9
150 4 178 -11z"/>
</g>
</svg>
