<?xml version="1.0" standalone="no"?>
<!DOCTYPE svg PUBLIC "-//W3C//DTD SVG 20010904//EN"
 "http://www.w3.org/TR/2001/REC-SVG-20010904/DTD/svg10.dtd">
<svg version="1.0" xmlns="http://www.w3.org/2000/svg"
 width="340.000000pt" height="340.000000pt" viewBox="0 0 340.000000 340.000000"
 preserveAspectRatio="xMidYMid meet">
<metadata>
Created by potrace 1.15, written by Peter Selinger 2001-2017
</metadata>
<g transform="translate(0.000000,340.000000) scale(0.100000,-0.100000)"
fill="#000000" stroke="none">
<path d="M1064 2761 c-66 -16 -67 -22 -19 -122 48 -103 65 -213 65 -425 l0
-173 -32 -9 c-74 -21 -446 -124 -480 -133 -21 -5 -38 -14 -38 -20 0 -5 17 -17
38 -26 58 -25 236 -13 385 26 65 17 120 31 123 31 2 0 4 -99 4 -219 l0 -220
-119 -85 c-216 -155 -378 -246 -509 -286 -40 -12 -74 -25 -76 -29 -9 -14 33
-89 61 -109 47 -33 117 -49 147 -33 14 8 129 103 256 212 127 110 234 199 237
199 9 0 -6 -478 -17 -540 -14 -78 -24 -83 -147 -76 -70 4 -103 2 -103 -5 0 -6
32 -43 71 -82 40 -40 98 -107 131 -150 46 -60 65 -77 81 -75 31 4 63 68 88
173 21 87 21 104 15 465 l-6 375 58 46 c111 90 212 197 212 225 l0 26 -47 -28
c-27 -15 -87 -56 -135 -91 l-88 -63 0 198 0 198 70 18 c167 44 246 109 194
160 -21 21 -75 20 -169 -4 -43 -11 -80 -20 -83 -20 -13 0 9 313 28 400 36 162
36 168 9 196 -54 58 -141 90 -205 75z"/>
<path d="M2308 2270 c-83 -43 -264 -95 -455 -131 -208 -39 -248 -50 -248 -69
0 -8 16 -23 35 -33 29 -15 51 -18 127 -14 87 5 91 4 97 -16 17 -64 -3 -417
-25 -441 -4 -5 -61 -24 -126 -41 -118 -33 -155 -55 -123 -75 8 -5 64 -10 124
-10 l109 0 -6 -37 c-3 -21 -18 -126 -33 -234 l-26 -196 -77 -16 c-42 -9 -128
-21 -191 -27 -193 -19 -200 -20 -200 -35 0 -19 73 -61 132 -76 51 -14 47 -14
307 41 322 68 725 97 981 69 69 -7 157 -14 196 -14 114 0 135 36 60 102 -83
73 -188 88 -406 58 -58 -8 -110 -15 -116 -15 -6 0 -4 31 8 88 10 48 31 186 48
307 55 401 61 440 81 501 11 34 35 84 54 110 19 27 35 56 35 66 0 44 -89 111
-195 148 -76 26 -99 25 -167 -10z m58 -165 c15 -23 16 -48 11 -208 -3 -100
-15 -257 -26 -348 -26 -213 -68 -510 -73 -513 -4 -3 -412 -56 -414 -53 -2 2
41 219 86 443 l11 51 64 11 c143 27 275 87 275 126 0 18 -71 46 -118 46 -21 0
-72 -11 -112 -25 -40 -14 -77 -25 -81 -25 -9 0 16 133 48 250 l25 95 -56 52
-57 51 108 26 c232 55 285 58 309 21z"/>
</g>
</svg>
