<?xml version="1.0" standalone="no"?>
<!DOCTYPE svg PUBLIC "-//W3C//DTD SVG 20010904//EN"
 "http://www.w3.org/TR/2001/REC-SVG-20010904/DTD/svg10.dtd">
<svg version="1.0" xmlns="http://www.w3.org/2000/svg"
 width="340.000000pt" height="340.000000pt" viewBox="0 0 340.000000 340.000000"
 preserveAspectRatio="xMidYMid meet">
<metadata>
Created by potrace 1.15, written by Peter Selinger 2001-2017
</metadata>
<g transform="translate(0.000000,340.000000) scale(0.100000,-0.100000)"
fill="#000000" stroke="none">
<path d="M975 2840 c-3 -5 12 -39 33 -75 69 -113 106 -307 100 -515 l-3 -105
-185 -47 c-299 -76 -310 -79 -310 -95 0 -17 53 -40 118 -53 36 -7 83 -3 198
15 83 13 158 27 167 31 16 6 17 -10 17 -180 l0 -185 -127 -85 c-248 -163 -489
-286 -563 -286 -70 0 5 -132 100 -175 l40 -18 53 36 c28 20 81 62 117 93 36
32 133 114 215 183 l150 125 3 -40 c5 -52 -16 -369 -29 -442 -21 -121 -40
-138 -136 -121 -92 16 -143 22 -143 16 0 -3 18 -26 40 -52 22 -25 67 -85 101
-133 70 -100 107 -142 125 -142 19 0 71 65 103 129 57 112 61 145 61 528 l0
348 88 67 c136 104 169 148 112 148 -18 0 -120 -49 -172 -84 l-28 -18 0 155 0
155 97 38 c168 66 226 120 171 158 -32 22 -92 20 -187 -7 l-81 -24 0 57 c0 88
19 265 41 372 30 151 30 151 -43 187 -88 43 -227 67 -243 41z"/>
<path d="M1960 2741 c0 -10 20 -61 44 -112 55 -118 73 -195 88 -386 15 -191 1
-404 -32 -503 -21 -61 -22 -71 -10 -137 13 -78 44 -151 73 -167 15 -9 23 -5
47 21 47 52 51 99 48 559 -3 444 0 479 45 569 l20 39 -44 38 c-71 62 -152 98
-221 98 -50 0 -58 -3 -58 -19z"/>
<path d="M2485 2221 c-30 -6 -30 -6 70 -93 175 -153 355 -278 397 -278 26 0
53 48 52 95 -2 87 -69 175 -169 221 -124 57 -249 77 -350 55z"/>
<path d="M1681 2063 c-5 -10 -19 -65 -31 -122 -12 -58 -35 -148 -52 -200 -16
-53 -32 -113 -35 -134 -6 -44 11 -92 40 -112 38 -26 96 22 146 122 29 59 42
125 42 218 0 88 -17 148 -58 208 -29 41 -38 45 -52 20z"/>
<path d="M2418 1833 c0 -5 -2 -46 -3 -93 -3 -107 -28 -186 -110 -352 -185
-374 -467 -680 -857 -931 -179 -115 -173 -131 22 -59 206 75 357 172 530 339
196 188 352 398 505 677 39 70 92 154 118 187 l48 60 -26 45 c-32 55 -91 99
-158 119 -58 17 -66 18 -69 8z"/>
</g>
</svg>
