<?xml version="1.0" standalone="no"?>
<!DOCTYPE svg PUBLIC "-//W3C//DTD SVG 20010904//EN"
 "http://www.w3.org/TR/2001/REC-SVG-20010904/DTD/svg10.dtd">
<svg version="1.0" xmlns="http://www.w3.org/2000/svg"
 width="340.000000pt" height="340.000000pt" viewBox="0 0 340.000000 340.000000"
 preserveAspectRatio="xMidYMid meet">
<metadata>
Created by potrace 1.15, written by Peter Selinger 2001-2017
</metadata>
<g transform="translate(0.000000,340.000000) scale(0.100000,-0.100000)"
fill="#000000" stroke="none">
<path d="M1768 2694 c-23 -7 -23 -5 7 -64 50 -99 76 -234 90 -478 5 -83 3
-103 -8 -108 -8 -3 -77 -13 -154 -23 -77 -10 -145 -21 -151 -25 -22 -13 -12
-32 25 -50 55 -26 129 -31 198 -13 33 8 66 17 74 19 11 2 13 -14 12 -77 -2
-80 -27 -316 -37 -347 -3 -12 -22 -18 -77 -23 -40 -3 -124 -12 -187 -20 -63
-8 -149 -17 -190 -21 -41 -3 -79 -8 -83 -11 -25 -15 101 -93 152 -93 13 0 99
14 193 31 93 17 171 29 174 27 8 -9 -24 -143 -55 -227 -77 -212 -204 -366
-417 -509 -52 -35 -87 -72 -68 -72 22 0 220 68 269 92 182 90 312 276 363 518
8 41 18 78 21 82 3 4 64 -84 135 -195 146 -229 289 -438 314 -460 10 -9 49
-21 87 -28 89 -15 342 -15 434 1 121 20 108 41 -59 93 -342 107 -611 318 -836
655 -31 46 -54 85 -52 86 6 5 232 27 368 36 74 5 241 9 371 10 241 0 259 3
259 40 0 20 -55 72 -100 95 -56 29 -156 31 -237 7 -94 -29 -233 -62 -260 -62
l-22 0 25 68 c46 125 122 268 169 316 25 26 45 53 45 61 0 32 -65 87 -156 131
l-92 45 -69 -34 c-67 -34 -213 -87 -238 -87 -11 0 -13 20 -9 93 8 135 30 306
47 354 l15 43 -43 39 c-24 22 -62 49 -85 61 -42 21 -128 34 -162 24z m498
-652 c20 -14 23 -43 13 -125 -11 -92 -65 -337 -77 -348 -8 -9 -243 -41 -250
-35 -2 3 1 44 8 93 6 48 14 151 18 227 l7 140 70 18 c123 32 194 42 211 30z"/>
<path d="M980 2596 c0 -7 15 -46 34 -87 57 -126 86 -284 86 -474 l0 -101 -192
-37 c-374 -72 -402 -90 -201 -131 l81 -17 113 29 c63 16 130 32 150 36 l37 6
7 -160 c4 -89 6 -162 4 -164 -2 -2 -59 -38 -125 -79 -180 -113 -330 -193 -450
-242 -59 -24 -110 -49 -114 -56 -12 -19 1 -48 34 -76 35 -30 127 -73 155 -73
11 0 61 42 113 92 93 92 250 224 343 288 l48 33 -7 -164 c-8 -190 -22 -358
-37 -446 -13 -75 -17 -76 -139 -37 -44 15 -83 24 -86 21 -3 -3 23 -41 58 -84
35 -43 90 -115 122 -161 32 -46 65 -86 73 -89 22 -8 51 25 68 78 37 111 46
208 52 581 l6 367 98 86 c96 83 144 137 133 148 -14 14 -101 -26 -183 -84 -30
-22 -58 -39 -63 -39 -5 0 -7 62 -6 137 3 137 3 138 28 145 223 64 243 76 221
124 -12 27 -12 27 -104 21 -51 -3 -102 -9 -114 -13 -22 -6 -23 -4 -23 57 0 91
19 231 42 319 34 127 35 123 -12 174 -28 30 -60 52 -96 66 -64 23 -154 27
-154 6z"/>
</g>
</svg>
