<?xml version="1.0" standalone="no"?>
<!DOCTYPE svg PUBLIC "-//W3C//DTD SVG 20010904//EN"
 "http://www.w3.org/TR/2001/REC-SVG-20010904/DTD/svg10.dtd">
<svg version="1.0" xmlns="http://www.w3.org/2000/svg"
 width="340.000000pt" height="340.000000pt" viewBox="0 0 340.000000 340.000000"
 preserveAspectRatio="xMidYMid meet">
<metadata>
Created by potrace 1.15, written by Peter Selinger 2001-2017
</metadata>
<g transform="translate(0.000000,340.000000) scale(0.100000,-0.100000)"
fill="#000000" stroke="none">
<path d="M948 2765 c-3 -4 9 -37 27 -73 19 -37 43 -105 54 -152 24 -100 44
-305 39 -410 l-3 -75 -185 -57 c-102 -31 -212 -64 -245 -73 -53 -15 -57 -19
-41 -30 28 -21 153 -38 223 -31 52 5 171 37 240 63 11 4 13 -32 11 -202 l-3
-207 -160 -99 c-181 -112 -403 -228 -485 -254 -30 -10 -58 -21 -63 -24 -22
-20 131 -161 174 -161 9 0 24 10 35 21 44 50 479 389 498 389 15 0 -5 -478
-24 -555 -16 -68 -40 -74 -169 -39 -29 9 -55 13 -58 11 -7 -7 22 -55 66 -111
21 -26 59 -87 85 -135 25 -48 54 -95 65 -105 19 -17 21 -17 46 8 31 31 60 93
86 185 18 60 19 98 18 448 l-2 382 79 59 c95 71 164 135 164 151 0 35 -67 11
-188 -65 -29 -19 -55 -34 -57 -34 -3 0 -4 86 -3 191 l3 191 75 24 c112 36 155
63 155 99 0 41 -36 48 -128 26 -39 -10 -80 -22 -90 -26 -16 -7 -17 -1 -12 81
12 177 26 301 46 383 l19 84 -26 28 c-43 45 -139 90 -202 96 -31 3 -60 2 -64
-2z"/>
<path d="M2136 2528 c-2 -7 -12 -35 -21 -61 -32 -90 -172 -218 -371 -338 l-86
-52 -59 17 c-105 29 -118 19 -80 -60 50 -105 69 -359 52 -689 -12 -236 -27
-295 -101 -379 -27 -31 -50 -64 -50 -72 0 -32 41 -129 66 -155 46 -48 56 -44
125 45 34 44 142 161 240 258 98 97 185 188 194 202 16 25 16 26 -1 26 -27 0
-110 -50 -263 -159 -73 -51 -134 -92 -135 -90 -2 2 3 56 10 119 30 273 46 550
42 722 l-3 179 125 39 c69 22 131 40 138 40 16 0 45 -59 75 -156 23 -73 57
-227 57 -259 0 -15 -44 -33 -215 -89 -126 -42 -145 -54 -119 -73 28 -20 132
-16 261 12 64 13 118 23 120 22 1 -2 21 -48 44 -102 129 -312 302 -576 462
-705 109 -88 273 -160 366 -160 37 0 36 -3 14 133 -11 71 -16 161 -16 295 1
107 -3 190 -7 185 -5 -4 -30 -62 -57 -129 -61 -149 -98 -214 -123 -214 -33 0
-166 98 -239 176 -84 90 -162 204 -223 329 -46 91 -98 216 -98 232 0 5 75 33
166 63 214 69 258 102 197 150 -43 34 -129 24 -283 -33 -69 -25 -126 -45 -127
-43 -8 7 -43 261 -43 308 0 64 -2 66 -93 97 l-51 18 24 15 c14 8 95 56 180
107 85 50 168 102 185 115 29 23 29 25 12 44 -27 30 -106 60 -184 72 -89 13
-103 12 -107 -2z"/>
<path d="M1952 979 c-18 -4 -35 -9 -38 -12 -7 -7 69 -99 117 -141 46 -40 152
-96 181 -96 9 0 26 12 38 28 49 62 -9 169 -107 198 -76 22 -152 31 -191 23z"/>
</g>
</svg>
