<?xml version="1.0" standalone="no"?>
<!DOCTYPE svg PUBLIC "-//W3C//DTD SVG 20010904//EN"
 "http://www.w3.org/TR/2001/REC-SVG-20010904/DTD/svg10.dtd">
<svg version="1.0" xmlns="http://www.w3.org/2000/svg"
 width="340.000000pt" height="340.000000pt" viewBox="0 0 340.000000 340.000000"
 preserveAspectRatio="xMidYMid meet">
<metadata>
Created by potrace 1.15, written by Peter Selinger 2001-2017
</metadata>
<g transform="translate(0.000000,340.000000) scale(0.100000,-0.100000)"
fill="#000000" stroke="none">
<path d="M1040 2811 c0 -4 13 -37 29 -72 56 -124 79 -273 84 -523 l2 -148
-155 -39 c-85 -22 -191 -46 -234 -54 -80 -15 -106 -27 -106 -50 0 -30 151 -60
255 -50 68 6 172 27 208 40 16 7 17 -7 17 -197 l0 -205 -109 -62 c-167 -94
-348 -178 -482 -222 -67 -22 -130 -44 -140 -50 -55 -29 24 -131 132 -169 35
-12 38 -11 91 26 31 21 100 73 154 115 112 85 153 114 273 189 l84 52 -6 -218
c-10 -315 -30 -448 -70 -463 -11 -4 -40 -4 -66 1 -102 18 -151 21 -151 10 0
-6 20 -34 44 -61 24 -27 76 -94 115 -150 107 -150 127 -157 175 -58 48 97 55
170 62 608 l7 407 105 78 c263 199 235 255 -35 72 l-73 -49 0 189 0 189 83 22
c166 44 234 94 192 141 -23 25 -109 27 -197 4 -33 -8 -63 -13 -65 -10 -8 8 16
307 32 405 9 47 22 105 31 128 11 31 13 47 5 62 -18 34 -91 89 -139 105 -49
17 -152 22 -152 7z"/>
<path d="M2575 2335 c-118 -50 -360 -114 -663 -174 -239 -48 -266 -58 -228
-90 40 -33 277 -54 345 -30 18 6 35 9 38 5 11 -10 -36 -165 -81 -272 -102
-241 -305 -525 -576 -808 -61 -62 -110 -116 -110 -120 0 -25 146 45 225 109
33 26 113 99 177 163 l116 115 6 -34 c2 -19 12 -126 21 -239 9 -113 21 -225
26 -251 11 -49 43 -109 58 -109 20 0 52 45 57 81 5 27 12 39 28 43 28 7 266
32 492 51 204 18 277 33 282 58 2 9 -17 36 -44 62 l-48 45 18 38 c32 69 106
189 161 263 30 41 55 82 55 91 0 53 -116 128 -242 158 l-70 16 -87 -32 c-47
-18 -133 -41 -191 -52 -125 -24 -440 -63 -440 -55 0 2 23 31 51 65 101 126
339 511 339 549 0 10 -18 33 -40 50 -31 25 -37 35 -27 41 8 4 89 21 181 38
204 38 390 84 422 105 30 19 41 60 23 82 -22 26 -92 53 -156 58 -47 4 -69 1
-118 -20z m6 -1007 c21 -38 6 -231 -24 -312 -38 -104 -49 -111 -207 -140 -176
-32 -360 -60 -364 -55 -5 5 -27 451 -24 455 5 4 300 53 383 63 39 5 105 9 147
10 70 1 78 -1 89 -21z"/>
</g>
</svg>
