<?xml version="1.0" standalone="no"?>
<!DOCTYPE svg PUBLIC "-//W3C//DTD SVG 20010904//EN"
 "http://www.w3.org/TR/2001/REC-SVG-20010904/DTD/svg10.dtd">
<svg version="1.0" xmlns="http://www.w3.org/2000/svg"
 width="340.000000pt" height="340.000000pt" viewBox="0 0 340.000000 340.000000"
 preserveAspectRatio="xMidYMid meet">
<metadata>
Created by potrace 1.15, written by Peter Selinger 2001-2017
</metadata>
<g transform="translate(0.000000,340.000000) scale(0.100000,-0.100000)"
fill="#000000" stroke="none">
<path d="M930 2692 c0 -6 18 -44 41 -86 67 -124 97 -340 81 -571 l-7 -100
-128 -32 c-71 -18 -167 -39 -213 -47 -46 -8 -89 -18 -94 -21 -21 -13 -8 -34
33 -50 80 -33 200 -30 387 11 l26 6 -4 -169 c-2 -93 -9 -174 -14 -181 -17 -20
-154 -113 -268 -182 -128 -77 -234 -124 -317 -140 -49 -10 -63 -16 -63 -31 0
-32 53 -81 124 -115 84 -41 67 -49 257 117 208 181 269 232 273 228 3 -4 0
-73 -20 -457 -4 -79 -10 -117 -21 -127 -18 -19 -65 -19 -127 0 -27 8 -52 13
-55 10 -7 -7 159 -335 169 -335 21 0 71 55 94 103 56 115 60 150 59 553 l-2
371 28 16 c45 26 131 107 131 123 0 23 -22 17 -91 -25 -35 -21 -65 -38 -67
-36 -2 2 0 68 4 147 l7 144 86 27 c105 31 155 63 159 99 6 54 -73 74 -174 43
-27 -8 -52 -15 -56 -15 -13 0 22 333 53 499 l19 105 -27 29 c-44 45 -139 86
-216 94 -45 4 -67 2 -67 -5z"/>
<path d="M1670 2424 c0 -107 -14 -177 -62 -324 -57 -174 -123 -283 -214 -350
-25 -19 -50 -45 -55 -58 -14 -36 -11 -126 5 -148 14 -19 16 -19 103 5 219 59
266 71 270 67 6 -5 -106 -163 -178 -251 -63 -78 -162 -175 -196 -194 -13 -6
-23 -21 -23 -32 0 -59 82 -169 127 -169 13 0 46 21 79 51 72 66 201 149 306
199 l83 40 20 -27 c11 -15 30 -38 43 -51 l23 -24 25 23 c31 29 48 87 40 132
-13 68 -118 161 -192 169 -39 4 -42 -22 -11 -100 l25 -60 -127 -47 c-69 -26
-154 -58 -188 -71 -35 -13 -63 -20 -63 -16 0 10 245 325 339 437 42 49 111
126 154 169 42 44 77 84 77 89 0 6 -11 29 -25 53 -28 47 -96 87 -141 82 -25
-3 -29 -8 -42 -73 -14 -73 -69 -202 -93 -221 -11 -9 -287 -36 -296 -30 -1 1
24 38 57 81 33 44 94 139 136 210 185 315 224 385 224 400 0 51 -93 116 -187
131 l-43 7 0 -99z"/>
<path d="M2343 2510 c-29 -12 -29 -20 2 -79 47 -95 51 -276 9 -503 -19 -104
-16 -102 -158 -121 -63 -9 -92 -17 -100 -29 -6 -9 -7 -21 -3 -25 5 -4 55 -9
113 -11 69 -3 104 -8 104 -16 0 -25 -52 -202 -86 -293 -126 -338 -347 -629
-641 -846 -78 -59 -103 -83 -103 -103 0 -12 44 0 109 31 399 192 679 567 839
1125 l38 135 75 22 c94 27 154 30 164 6 48 -126 -63 -734 -161 -882 -39 -59
-54 -60 -145 -7 -107 63 -115 61 -80 -16 15 -35 43 -107 61 -162 37 -113 57
-139 98 -130 150 36 257 214 321 534 11 58 30 179 41 270 11 91 27 192 34 225
17 70 49 150 65 159 51 32 -59 129 -182 162 -46 12 -49 11 -113 -23 -73 -38
-144 -66 -152 -58 -15 15 81 391 118 466 l20 37 -54 50 c-30 27 -71 57 -92 67
-46 21 -110 28 -141 15z"/>
</g>
</svg>
