<?xml version="1.0" standalone="no"?>
<!DOCTYPE svg PUBLIC "-//W3C//DTD SVG 20010904//EN"
 "http://www.w3.org/TR/2001/REC-SVG-20010904/DTD/svg10.dtd">
<svg version="1.0" xmlns="http://www.w3.org/2000/svg"
 width="340.000000pt" height="340.000000pt" viewBox="0 0 340.000000 340.000000"
 preserveAspectRatio="xMidYMid meet">
<metadata>
Created by potrace 1.15, written by Peter Selinger 2001-2017
</metadata>
<g transform="translate(0.000000,340.000000) scale(0.100000,-0.100000)"
fill="#000000" stroke="none">
<path d="M1012 2863 c-7 -11 -3 -37 13 -82 43 -125 65 -296 65 -515 l0 -132
-177 -47 c-98 -25 -209 -54 -248 -63 -86 -21 -95 -28 -59 -47 85 -43 205 -41
395 7 l92 23 -7 -120 c-3 -66 -6 -153 -6 -193 l0 -72 -122 -72 c-68 -39 -224
-121 -348 -183 -124 -61 -228 -115 -232 -121 -22 -32 37 -76 137 -102 68 -18
76 -15 200 91 120 102 354 279 360 273 7 -6 -12 -389 -26 -526 -17 -171 -36
-188 -150 -128 -39 21 -75 36 -80 34 -5 -2 11 -30 36 -63 24 -33 69 -108 99
-166 31 -58 65 -114 76 -124 20 -18 21 -18 46 6 33 30 67 98 90 174 15 54 16
99 11 472 l-6 412 95 67 c200 142 246 205 97 135 -34 -17 -90 -49 -124 -71
-33 -23 -62 -40 -63 -38 -1 1 -1 78 2 169 l4 167 82 21 c91 24 174 60 194 83
17 21 5 47 -25 54 -26 7 -166 -1 -213 -12 l-25 -5 7 121 c9 144 29 273 58 354
11 33 20 69 20 81 0 24 -72 90 -142 130 -51 29 -113 33 -126 8z"/>
<path d="M2100 2747 c0 -70 -23 -145 -72 -237 -83 -155 -192 -277 -325 -363
-71 -45 -73 -48 -73 -88 0 -54 25 -93 76 -121 l42 -22 79 37 c102 48 255 101
485 171 l187 57 73 -75 c40 -42 79 -76 86 -76 7 0 24 11 37 25 20 19 25 34 25
75 0 28 -6 66 -14 84 -26 62 -183 160 -278 172 -46 6 -48 6 -48 -18 0 -14 18
-51 41 -82 23 -32 39 -59 37 -62 -3 -2 -142 -29 -309 -59 -167 -30 -315 -57
-329 -60 -32 -8 50 77 235 243 177 160 265 244 277 265 26 50 -126 186 -209
187 -21 0 -23 -5 -23 -53z"/>
<path d="M2190 1920 c0 -7 11 -32 24 -54 24 -43 76 -178 76 -200 0 -9 -56 -21
-187 -39 -102 -15 -189 -25 -191 -22 -3 2 1 18 8 35 12 29 11 33 -21 66 -49
51 -109 84 -168 91 -42 5 -51 3 -51 -10 0 -9 5 -19 10 -22 28 -17 88 -181 72
-196 -13 -13 -255 -49 -376 -57 -141 -8 -155 -20 -71 -58 82 -38 116 -39 230
-10 129 32 224 50 231 43 12 -11 -26 -220 -56 -310 -57 -171 -156 -312 -304
-437 -130 -109 -115 -119 51 -36 171 86 261 174 339 331 52 106 90 247 103
387 5 55 11 101 13 103 8 7 362 54 367 49 3 -3 6 -180 6 -392 0 -321 -3 -404
-18 -484 -9 -54 -17 -117 -17 -140 0 -69 30 -156 67 -196 l34 -36 20 20 c55
56 73 255 60 670 -6 175 -11 376 -11 446 l0 127 53 5 c28 3 162 12 296 20 142
8 248 19 254 25 18 18 -4 61 -50 94 -64 45 -106 45 -336 -2 -109 -23 -203 -41
-208 -41 -6 0 -7 29 -3 73 l6 73 -36 27 c-49 38 -94 55 -160 63 -43 5 -56 4
-56 -6z"/>
</g>
</svg>
