<?xml version="1.0" standalone="no"?>
<!DOCTYPE svg PUBLIC "-//W3C//DTD SVG 20010904//EN"
 "http://www.w3.org/TR/2001/REC-SVG-20010904/DTD/svg10.dtd">
<svg version="1.0" xmlns="http://www.w3.org/2000/svg"
 width="340.000000pt" height="340.000000pt" viewBox="0 0 340.000000 340.000000"
 preserveAspectRatio="xMidYMid meet">
<metadata>
Created by potrace 1.15, written by Peter Selinger 2001-2017
</metadata>
<g transform="translate(0.000000,340.000000) scale(0.100000,-0.100000)"
fill="#000000" stroke="none">
<path d="M1077 2726 c-16 -16 -16 -20 2 -54 55 -107 81 -263 84 -492 l2 -155
-141 -47 c-77 -26 -197 -62 -265 -80 -88 -24 -125 -38 -127 -49 -5 -29 54 -44
173 -43 90 0 132 6 232 32 67 18 124 32 127 32 3 0 6 -85 6 -190 l0 -189 -72
-52 c-200 -140 -482 -300 -591 -335 -63 -20 -68 -29 -36 -80 22 -37 65 -67
129 -89 l42 -15 117 113 c118 113 369 319 397 325 14 3 15 -17 9 -165 -12
-324 -29 -428 -75 -453 -24 -13 -90 -7 -180 15 -30 8 -56 12 -59 10 -2 -3 34
-44 80 -92 60 -63 98 -113 130 -173 38 -72 49 -85 73 -88 41 -5 90 52 116 134
36 117 44 265 31 561 -16 384 -21 343 44 387 63 44 165 139 165 155 0 20 -25
11 -99 -35 -40 -25 -84 -50 -97 -55 l-24 -9 2 172 3 171 65 22 c120 41 210 94
210 125 0 41 -77 51 -185 25 -91 -22 -86 -26 -79 73 9 144 33 320 56 410 l21
85 -24 18 c-93 71 -227 109 -262 75z"/>
<path d="M2470 2390 c-91 -50 -280 -96 -510 -125 -304 -38 -307 -39 -249 -74
66 -40 132 -45 272 -18 29 5 -24 -186 -89 -322 -86 -182 -214 -345 -396 -506
-54 -48 -98 -91 -98 -96 0 -32 163 42 267 122 140 109 287 297 396 508 33 64
68 127 78 140 11 13 19 30 19 38 0 23 -30 76 -62 109 l-29 31 118 23 c129 24
276 36 317 26 24 -6 26 -11 26 -55 0 -76 -37 -271 -65 -346 -43 -115 -109
-205 -151 -205 -12 0 -59 16 -103 35 -120 53 -124 49 -55 -52 25 -36 58 -91
74 -122 15 -31 36 -67 47 -80 l19 -23 52 22 c133 57 229 226 286 499 29 142
51 195 107 262 39 47 41 51 29 79 -17 41 -61 76 -145 117 -79 38 -106 40 -155
13z"/>
<path d="M2483 1345 c-102 -73 -518 -149 -688 -126 -91 13 -162 14 -169 3 -3
-5 17 -52 44 -105 54 -108 89 -239 114 -425 15 -111 24 -141 54 -174 31 -37
50 -20 72 68 l10 41 142 12 c222 18 425 31 513 31 103 0 115 7 87 52 -12 19
-30 43 -42 53 -27 25 -25 42 14 128 41 89 88 165 144 230 23 27 42 57 42 67 0
26 -50 62 -155 111 -103 48 -150 57 -182 34z m33 -161 c16 -62 -24 -290 -62
-354 -14 -24 -31 -36 -63 -46 -101 -30 -466 -82 -479 -69 -7 6 -52 407 -47
413 2 3 434 68 495 75 19 2 61 5 92 5 54 2 58 0 64 -24z"/>
</g>
</svg>
