<?xml version="1.0" standalone="no"?>
<!DOCTYPE svg PUBLIC "-//W3C//DTD SVG 20010904//EN"
 "http://www.w3.org/TR/2001/REC-SVG-20010904/DTD/svg10.dtd">
<svg version="1.0" xmlns="http://www.w3.org/2000/svg"
 width="340.000000pt" height="340.000000pt" viewBox="0 0 340.000000 340.000000"
 preserveAspectRatio="xMidYMid meet">
<metadata>
Created by potrace 1.15, written by Peter Selinger 2001-2017
</metadata>
<g transform="translate(0.000000,340.000000) scale(0.100000,-0.100000)"
fill="#000000" stroke="none">
<path d="M975 2690 c-4 -6 3 -26 14 -44 58 -94 91 -267 91 -483 l0 -142 -52
-15 c-29 -8 -127 -33 -218 -56 -185 -45 -220 -57 -220 -75 0 -17 29 -24 130
-31 86 -7 179 4 294 32 32 9 60 14 62 12 2 -2 0 -74 -3 -161 l-6 -156 -87 -71
c-198 -163 -387 -279 -515 -315 -99 -28 -105 -32 -105 -61 0 -53 50 -106 158
-168 8 -5 53 32 130 105 112 107 411 364 416 357 3 -3 -13 -215 -34 -458 -14
-170 -19 -184 -58 -188 -18 -2 -61 9 -104 27 -73 31 -98 37 -98 24 1 -5 28
-39 61 -78 33 -38 83 -103 111 -145 94 -138 139 -169 172 -117 47 70 69 360
59 772 l-6 260 44 35 c73 57 160 143 175 173 13 24 13 28 0 33 -19 7 -61 -15
-141 -76 -36 -27 -68 -50 -71 -50 -2 0 -3 64 -2 141 l3 141 110 37 c172 57
225 90 196 125 -18 21 -117 21 -216 -1 -41 -9 -77 -14 -78 -12 -6 7 12 232 23
289 6 30 23 90 38 134 l27 78 -45 39 c-64 56 -154 99 -206 99 -24 0 -46 -5
-49 -10z"/>
<path d="M1813 2693 c-28 -5 -29 -26 -2 -64 32 -45 84 -165 118 -272 29 -89
96 -395 89 -402 -7 -7 -155 -47 -307 -84 -90 -22 -171 -47 -180 -56 -14 -13
-14 -17 2 -32 15 -15 36 -18 130 -18 92 1 135 6 237 32 69 18 133 33 143 35
16 3 26 -20 63 -142 68 -219 138 -398 220 -568 180 -376 375 -578 601 -627 28
-6 34 -3 42 17 13 35 20 619 7 615 -6 -2 -31 -57 -56 -123 -55 -142 -91 -217
-106 -221 -21 -7 -160 114 -231 199 -134 159 -224 317 -316 553 -58 146 -112
313 -104 321 2 2 65 22 140 43 147 42 261 83 290 106 43 32 -12 75 -95 75 -55
0 -170 -25 -273 -60 -49 -17 -92 -30 -96 -30 -6 0 -20 116 -34 290 -5 58 1
126 21 271 l6 45 -51 33 c-84 55 -182 79 -258 64z"/>
<path d="M2302 2571 l-33 -17 73 -70 c71 -67 157 -130 211 -155 53 -24 119 43
103 105 -11 46 -82 113 -142 136 -69 25 -166 26 -212 1z"/>
<path d="M1820 1546 c-41 -13 -129 -39 -195 -60 -148 -45 -165 -52 -165 -70 0
-18 26 -24 127 -32 l83 -7 6 -35 c11 -56 -3 -244 -18 -254 -30 -19 -210 -69
-293 -81 -101 -15 -111 -26 -80 -87 16 -31 88 -90 110 -90 7 0 75 31 151 69
77 38 229 108 339 155 252 108 289 127 293 148 8 40 -107 29 -291 -29 -44 -13
-80 -23 -82 -21 -2 2 3 31 12 66 18 74 11 125 -23 158 -16 17 -20 26 -11 29
74 24 236 88 254 100 28 19 30 41 4 55 -33 17 -141 10 -221 -14z"/>
</g>
</svg>
