<?xml version="1.0" standalone="no"?>
<!DOCTYPE svg PUBLIC "-//W3C//DTD SVG 20010904//EN"
 "http://www.w3.org/TR/2001/REC-SVG-20010904/DTD/svg10.dtd">
<svg version="1.0" xmlns="http://www.w3.org/2000/svg"
 width="340.000000pt" height="340.000000pt" viewBox="0 0 340.000000 340.000000"
 preserveAspectRatio="xMidYMid meet">
<metadata>
Created by potrace 1.15, written by Peter Selinger 2001-2017
</metadata>
<g transform="translate(0.000000,340.000000) scale(0.100000,-0.100000)"
fill="#000000" stroke="none">
<path d="M993 2673 c-31 -6 -29 -24 11 -96 66 -121 71 -148 71 -391 l0 -220
-215 -42 c-118 -24 -219 -43 -223 -44 -5 0 -7 -10 -5 -22 2 -18 15 -27 53 -40
68 -23 128 -22 270 6 66 13 121 23 122 22 2 -1 0 -88 -4 -193 l-6 -190 -121
-75 c-179 -112 -327 -195 -453 -255 -62 -30 -113 -58 -113 -62 0 -19 122 -120
164 -136 l45 -17 92 96 c107 113 371 327 385 314 5 -6 -13 -365 -22 -418 -16
-107 -27 -161 -34 -165 -4 -3 -40 7 -81 20 -67 23 -119 32 -119 20 0 -2 22
-35 49 -72 27 -38 70 -108 96 -158 73 -139 87 -149 127 -88 37 58 65 130 83
218 14 68 16 131 13 414 l-3 335 82 58 c100 71 153 120 153 142 0 29 -34 17
-139 -45 -56 -34 -104 -60 -106 -58 -2 2 0 80 3 173 l7 169 85 23 c137 37 169
52 177 82 5 20 0 30 -21 49 -34 29 -91 30 -171 3 -32 -11 -61 -20 -65 -20 -17
0 23 314 57 453 l26 108 -28 29 c-16 17 -47 39 -69 50 -42 20 -133 32 -173 23z"/>
<path d="M2212 2612 c-10 -7 -7 -20 12 -63 14 -30 30 -87 37 -128 12 -78 10
-434 -3 -446 -4 -4 -37 -13 -75 -21 -37 -7 -117 -24 -178 -38 -60 -14 -113
-22 -117 -18 -4 4 -2 89 4 190 11 206 13 199 -62 237 -62 31 -108 39 -158 25
-53 -14 -56 -40 -11 -96 62 -78 67 -95 94 -351 5 -49 4 -50 -102 -59 -110 -9
-176 -39 -127 -58 9 -3 66 -10 126 -16 61 -5 112 -11 113 -12 1 -2 4 -91 6
-198 l4 -195 -60 -8 c-33 -4 -130 -19 -215 -32 -85 -13 -176 -27 -202 -30 -57
-7 -62 -25 -15 -54 75 -46 184 -55 270 -22 99 38 333 82 527 101 169 15 519
30 726 30 192 0 204 3 204 50 -1 53 -56 91 -162 111 -57 10 -83 9 -229 -14
-172 -28 -303 -46 -306 -43 -1 1 12 92 30 201 37 232 24 213 175 239 115 20
159 38 174 70 9 22 8 29 -8 47 -51 56 -113 64 -218 25 -36 -13 -66 -21 -66
-17 0 3 25 107 55 229 30 123 55 234 55 247 0 25 -49 74 -103 102 -35 18 -174
29 -195 15z m34 -789 c-3 -16 -15 -107 -27 -203 -12 -96 -25 -178 -28 -182 -6
-7 -262 -48 -297 -48 -12 0 -14 31 -14 190 0 144 3 192 13 195 18 5 330 72
345 74 10 1 12 -7 8 -26z"/>
<path d="M1796 1168 c-2 -13 -9 -50 -15 -83 -7 -40 -23 -78 -48 -115 -48 -70
-221 -249 -342 -354 -102 -87 -103 -101 -8 -71 154 50 286 146 495 357 145
148 153 164 105 210 -30 28 -98 61 -151 72 -27 7 -32 5 -36 -16z"/>
<path d="M2263 1113 c-30 -10 -12 -52 83 -185 36 -51 111 -168 166 -260 54
-93 108 -173 119 -178 31 -17 57 -3 81 43 19 35 22 58 22 137 -1 117 -14 150
-91 231 -106 111 -322 231 -380 212z"/>
</g>
</svg>
