<?xml version="1.0" standalone="no"?>
<!DOCTYPE svg PUBLIC "-//W3C//DTD SVG 20010904//EN"
 "http://www.w3.org/TR/2001/REC-SVG-20010904/DTD/svg10.dtd">
<svg version="1.0" xmlns="http://www.w3.org/2000/svg"
 width="340.000000pt" height="340.000000pt" viewBox="0 0 340.000000 340.000000"
 preserveAspectRatio="xMidYMid meet">
<metadata>
Created by potrace 1.15, written by Peter Selinger 2001-2017
</metadata>
<g transform="translate(0.000000,340.000000) scale(0.100000,-0.100000)"
fill="#000000" stroke="none">
<path d="M1026 2695 c-3 -10 2 -29 14 -45 33 -46 58 -111 76 -191 17 -79 33
-351 24 -408 -5 -33 -9 -36 -65 -53 -33 -10 -134 -36 -225 -58 -237 -58 -252
-67 -153 -96 89 -26 307 -5 427 42 18 7 18 -2 15 -210 l-4 -217 -25 -19 c-14
-11 -119 -67 -235 -124 -195 -98 -317 -146 -406 -161 -32 -5 -36 -9 -32 -28
11 -44 56 -89 116 -118 70 -33 69 -33 167 46 130 103 394 295 407 295 9 0 -5
-388 -17 -490 -21 -171 -31 -179 -171 -131 -50 18 -94 30 -96 27 -3 -3 20 -36
50 -75 30 -38 77 -114 105 -168 28 -54 59 -106 70 -116 17 -16 20 -15 44 11
39 42 64 90 94 182 l29 85 -1 375 -1 375 87 58 c48 31 108 76 134 98 91 80 85
119 -9 60 -33 -21 -95 -57 -137 -80 l-78 -43 0 104 c0 56 3 146 6 199 l7 96
71 23 c82 26 230 93 240 108 12 20 -6 42 -45 53 -38 12 -71 8 -236 -28 -22 -5
-23 -3 -23 70 0 112 18 271 42 371 l22 89 -35 29 c-54 46 -118 72 -185 76 -50
3 -62 1 -68 -13z"/>
<path d="M1684 2605 c-3 -7 6 -42 19 -77 39 -97 47 -165 47 -388 0 -205 0
-207 28 -261 64 -128 257 -185 539 -160 222 20 380 60 475 120 67 43 70 53 42
141 -13 41 -31 111 -40 155 -20 101 -33 145 -44 145 -15 0 -20 -16 -30 -97
-16 -124 -36 -170 -100 -235 -48 -48 -68 -60 -126 -77 -81 -24 -350 -46 -433
-36 -97 12 -175 56 -206 116 -19 35 -28 117 -17 153 7 27 14 30 92 46 125 25
229 56 375 111 167 62 289 115 293 128 6 18 -67 88 -122 117 l-54 28 -67 -72
c-98 -105 -256 -204 -453 -281 l-53 -21 7 53 c9 80 44 248 55 269 8 14 1 27
-33 64 -23 25 -54 52 -69 60 -37 19 -118 19 -125 -1z"/>
<path d="M2352 1530 c-191 -67 -495 -99 -622 -66 -30 8 -57 13 -59 10 -2 -2
10 -32 27 -66 56 -111 66 -171 67 -383 0 -104 -4 -239 -8 -300 -7 -97 -6 -114
10 -144 39 -74 78 -66 104 20 9 29 20 54 25 56 5 1 105 11 223 23 173 17 216
18 223 8 5 -7 31 -56 58 -109 52 -102 93 -159 115 -159 24 0 66 67 93 147 25
76 26 88 32 408 6 352 9 375 59 419 11 11 21 25 21 32 0 21 -65 64 -142 94
-109 42 -131 43 -226 10z m95 -122 c28 -23 38 -113 37 -353 0 -256 -9 -325
-43 -325 -9 0 -28 14 -40 31 l-23 31 -82 -5 c-44 -3 -153 -15 -240 -26 -88
-12 -164 -21 -168 -21 -5 0 -7 64 -6 142 l3 142 122 13 c175 17 343 49 362 68
15 15 14 18 -9 35 -14 10 -44 24 -67 30 -38 11 -58 8 -210 -29 -92 -23 -176
-44 -185 -47 -17 -5 -18 6 -18 130 0 74 4 137 8 140 13 8 251 45 349 55 94 9
191 4 210 -11z"/>
</g>
</svg>
