<?xml version="1.0" standalone="no"?>
<!DOCTYPE svg PUBLIC "-//W3C//DTD SVG 20010904//EN"
 "http://www.w3.org/TR/2001/REC-SVG-20010904/DTD/svg10.dtd">
<svg version="1.0" xmlns="http://www.w3.org/2000/svg"
 width="340.000000pt" height="340.000000pt" viewBox="0 0 340.000000 340.000000"
 preserveAspectRatio="xMidYMid meet">
<metadata>
Created by potrace 1.15, written by Peter Selinger 2001-2017
</metadata>
<g transform="translate(0.000000,340.000000) scale(0.100000,-0.100000)"
fill="#000000" stroke="none">
<path d="M1486 2901 c-11 -18 21 -67 91 -137 79 -79 117 -104 159 -104 46 0
65 20 71 73 8 65 -29 127 -89 152 -51 21 -222 33 -232 16z"/>
<path d="M2215 2684 c-622 -97 -909 -134 -1254 -162 -184 -15 -215 -19 -225
-35 -18 -30 30 -63 120 -83 l77 -17 191 36 c259 49 245 49 270 7 28 -48 35
-206 13 -317 -29 -145 -31 -178 -11 -233 19 -54 46 -90 68 -90 36 0 62 145 72
395 5 110 7 209 6 220 -1 11 -16 34 -33 52 l-31 31 48 8 c27 4 92 8 144 8 l94
1 15 -30 c18 -35 21 -250 7 -406 -10 -107 -1 -152 38 -188 13 -13 32 -21 43
-19 36 7 46 54 54 257 4 108 13 227 20 266 l12 69 -41 37 -42 36 323 6 c177 3
338 10 357 14 69 17 35 91 -56 122 -40 13 -225 23 -279 15z"/>
<path d="M2063 2274 c-13 -34 109 -127 308 -233 104 -55 127 -60 152 -33 33
36 11 128 -43 182 -40 40 -132 72 -255 90 -105 15 -155 13 -162 -6z"/>
<path d="M1081 2234 c-12 -15 -21 -30 -21 -34 0 -4 -21 -34 -46 -66 -25 -33
-59 -87 -76 -121 -25 -50 -29 -69 -23 -101 15 -91 83 -95 161 -9 66 72 97 144
96 221 0 118 -44 170 -91 110z"/>
<path d="M1930 1847 c-84 -66 -241 -110 -606 -172 -199 -34 -244 -46 -244 -65
0 -19 71 -22 264 -9 112 7 209 10 217 7 18 -7 65 -137 53 -147 -5 -4 -107 -20
-226 -36 -120 -16 -223 -32 -229 -35 -21 -14 9 -49 54 -61 50 -13 179 -7 327
17 56 8 103 14 105 12 10 -9 26 -151 18 -158 -15 -15 -735 -90 -1016 -106
-101 -6 -119 -10 -128 -26 -8 -14 -4 -23 16 -42 30 -28 153 -76 195 -76 16 0
90 14 165 30 269 60 759 140 773 125 4 -4 7 -61 6 -128 -1 -135 -18 -219 -62
-307 l-27 -55 -75 1 c-41 1 -98 5 -126 9 -31 4 -54 3 -57 -2 -7 -11 239 -267
265 -276 25 -9 102 57 147 125 81 120 107 240 97 443 -3 72 -8 146 -12 166 -6
34 -5 36 27 44 19 5 260 9 537 10 368 1 505 4 514 13 31 31 -40 98 -142 132
-123 42 -198 39 -663 -26 -136 -19 -256 -34 -266 -34 -23 0 -28 13 -36 100
l-7 66 124 12 c158 17 277 39 306 58 34 22 28 52 -13 70 -49 20 -85 18 -271
-17 -91 -17 -167 -29 -168 -27 -1 1 -15 34 -32 72 -16 39 -30 73 -32 76 -1 4
111 26 250 50 139 24 257 47 262 51 14 12 -11 37 -94 92 -99 65 -131 69 -190
24z"/>
</g>
</svg>
