<?xml version="1.0" standalone="no"?>
<!DOCTYPE svg PUBLIC "-//W3C//DTD SVG 20010904//EN"
 "http://www.w3.org/TR/2001/REC-SVG-20010904/DTD/svg10.dtd">
<svg version="1.0" xmlns="http://www.w3.org/2000/svg"
 width="340.000000pt" height="340.000000pt" viewBox="0 0 340.000000 340.000000"
 preserveAspectRatio="xMidYMid meet">
<metadata>
Created by potrace 1.15, written by Peter Selinger 2001-2017
</metadata>
<g transform="translate(0.000000,340.000000) scale(0.100000,-0.100000)"
fill="#000000" stroke="none">
<path d="M920 2690 c0 -6 11 -32 24 -59 56 -109 90 -263 106 -480 7 -101 7
-137 -2 -142 -11 -7 -78 -26 -331 -95 -76 -21 -145 -43 -155 -50 -14 -10 -11
-13 23 -23 81 -22 314 -9 453 26 l22 5 0 -204 0 -205 -127 -75 c-243 -144
-404 -226 -487 -247 -89 -22 -106 -33 -90 -59 16 -26 83 -69 141 -91 l53 -21
77 61 c216 166 395 300 409 306 14 5 15 -2 10 -48 -3 -30 -8 -103 -11 -164
-15 -287 -34 -425 -58 -425 -7 0 -41 14 -75 30 -109 51 -112 43 -35 -73 26
-39 63 -109 84 -156 44 -103 62 -112 114 -56 66 69 69 91 73 564 l3 424 27 21
c76 59 185 161 194 182 24 52 -27 43 -104 -19 -29 -24 -68 -53 -85 -66 l-33
-22 0 181 c0 136 3 182 13 184 220 65 292 94 301 124 22 69 -76 88 -237 45
-32 -9 -60 -13 -63 -10 -9 9 15 310 32 400 9 45 22 96 29 114 13 32 13 33 -26
66 -21 19 -62 41 -90 50 -57 19 -179 23 -179 7z"/>
<path d="M2225 2575 c-143 -45 -297 -82 -455 -110 -176 -30 -229 -47 -211 -69
14 -16 95 -33 208 -42 82 -6 82 -7 89 -38 16 -74 3 -198 -36 -347 l-10 -36
-117 -17 c-65 -9 -133 -19 -152 -21 -43 -5 -50 -13 -27 -30 25 -19 115 -29
202 -22 41 3 74 5 74 4 -3 -29 -112 -334 -121 -339 -8 -4 -92 -23 -188 -42
-104 -21 -180 -41 -189 -50 -14 -14 -12 -17 23 -32 78 -32 175 -30 335 9 442
109 799 147 1075 117 257 -28 275 -26 275 30 0 38 -46 85 -115 117 -54 24 -64
25 -169 20 -64 -3 -172 -18 -256 -36 -80 -17 -148 -31 -153 -31 -10 0 48 113
86 170 17 25 51 66 75 92 l44 47 -22 31 c-28 39 -92 82 -160 108 -63 23 -49
26 -235 -52 -150 -62 -149 -62 -121 22 13 37 37 99 55 139 17 39 31 78 31 85
0 17 -43 58 -87 84 -28 15 -43 34 -29 34 24 0 433 74 490 89 128 32 156 68 93
115 -24 17 -45 21 -125 23 -80 2 -111 -2 -177 -22z m17 -657 c8 -24 -54 -331
-68 -335 -24 -7 -358 -52 -361 -49 -6 5 97 319 108 331 11 11 247 63 291 64
14 1 28 -4 30 -11z"/>
<path d="M2229 1239 c-87 -37 -236 -74 -389 -98 -120 -18 -124 -18 -176 0 -64
23 -134 25 -134 5 0 -7 11 -38 24 -67 27 -60 83 -275 116 -443 21 -114 53
-188 82 -194 21 -4 43 37 53 95 6 39 10 44 43 52 60 16 254 40 446 55 194 16
214 23 202 69 -3 14 -22 42 -41 62 l-34 37 24 49 c14 27 55 87 91 134 96 127
96 126 23 180 -39 28 -86 52 -128 64 -106 31 -129 31 -202 0z m79 -194 c3 -73
-20 -236 -36 -262 -10 -16 -159 -60 -297 -88 -149 -30 -185 -32 -185 -7 0 9
-9 94 -19 187 -12 111 -15 172 -9 176 6 4 50 12 98 18 48 7 143 23 211 36 68
13 149 23 179 22 l55 -2 3 -80z"/>
</g>
</svg>
