<?xml version="1.0" standalone="no"?>
<!DOCTYPE svg PUBLIC "-//W3C//DTD SVG 20010904//EN"
 "http://www.w3.org/TR/2001/REC-SVG-20010904/DTD/svg10.dtd">
<svg version="1.0" xmlns="http://www.w3.org/2000/svg"
 width="340.000000pt" height="340.000000pt" viewBox="0 0 340.000000 340.000000"
 preserveAspectRatio="xMidYMid meet">
<metadata>
Created by potrace 1.15, written by Peter Selinger 2001-2017
</metadata>
<g transform="translate(0.000000,340.000000) scale(0.100000,-0.100000)"
fill="#000000" stroke="none">
<path d="M970 2633 c0 -11 6 -26 14 -32 7 -6 27 -41 44 -78 25 -56 32 -90 42
-198 6 -71 13 -186 13 -254 l2 -125 -215 -51 c-118 -27 -230 -57 -248 -64 -86
-36 33 -64 238 -56 80 3 162 8 183 11 l37 6 0 -185 0 -185 -81 -52 c-125 -80
-301 -164 -448 -214 -73 -25 -135 -47 -138 -50 -11 -11 76 -91 122 -112 95
-45 110 -39 276 102 104 87 254 204 263 204 15 0 -2 -453 -20 -537 -8 -39 -25
-42 -105 -15 -74 26 -119 34 -119 21 0 -5 23 -40 52 -77 45 -58 78 -122 134
-249 18 -43 50 -43 92 -1 73 76 93 186 93 503 -1 132 -4 283 -7 335 l-6 95 87
65 c87 65 165 141 165 160 0 21 -38 8 -142 -50 -59 -33 -109 -60 -113 -60 -3
0 -4 75 -3 167 l3 167 100 26 c166 42 211 75 168 122 -41 47 -121 60 -208 34
l-48 -15 6 132 c7 141 25 263 53 352 18 55 17 55 -5 79 -44 47 -139 88 -213
94 -63 4 -68 3 -68 -15z"/>
<path d="M2360 2410 c-137 -46 -300 -83 -499 -114 l-146 -22 -73 23 c-83 26
-140 30 -148 9 -7 -18 15 -69 59 -133 34 -51 53 -118 142 -499 18 -78 47 -134
69 -134 18 0 46 27 46 45 0 15 21 19 289 45 259 25 261 25 261 0 0 -30 43 -70
69 -63 56 14 131 134 186 298 46 136 95 224 162 296 35 37 63 74 63 82 0 23
-58 86 -110 119 -42 27 -215 89 -243 87 -6 0 -64 -18 -127 -39z m131 -120 c40
-22 22 -150 -63 -431 l-40 -137 -27 14 c-34 18 -88 18 -142 -1 -65 -23 -274
-63 -348 -67 l-64 -3 -22 113 c-15 78 -19 115 -11 117 6 2 60 6 119 10 60 3
164 15 230 26 188 31 240 67 158 108 -62 32 -110 28 -324 -29 -109 -29 -200
-51 -202 -48 -4 3 -55 240 -55 253 0 1 42 5 93 9 50 4 184 20 297 36 113 16
219 31 235 33 63 8 147 7 166 -3z"/>
<path d="M1970 1533 c0 -3 11 -39 25 -79 14 -40 28 -106 31 -146 l7 -73 -177
-29 c-171 -28 -235 -50 -213 -73 5 -4 94 -8 198 -8 l189 0 -2 -165 -3 -164
-95 -13 c-182 -25 -525 -63 -570 -63 -70 0 -80 -13 -34 -43 22 -14 62 -32 91
-42 49 -15 58 -15 170 4 596 103 948 128 1158 81 145 -32 198 -35 219 -15 49
50 -73 153 -221 186 -62 14 -122 8 -368 -35 -77 -14 -155 -28 -172 -31 l-33
-6 0 161 c0 88 1 160 3 160 29 0 370 65 394 75 29 12 34 19 31 42 -7 66 -129
81 -306 38 -57 -14 -105 -25 -108 -25 -9 0 -3 68 11 129 9 36 13 71 10 78 -10
28 -107 63 -172 63 -35 0 -63 -3 -63 -7z"/>
</g>
</svg>
