<?xml version="1.0" standalone="no"?>
<!DOCTYPE svg PUBLIC "-//W3C//DTD SVG 20010904//EN"
 "http://www.w3.org/TR/2001/REC-SVG-20010904/DTD/svg10.dtd">
<svg version="1.0" xmlns="http://www.w3.org/2000/svg"
 width="340.000000pt" height="340.000000pt" viewBox="0 0 340.000000 340.000000"
 preserveAspectRatio="xMidYMid meet">
<metadata>
Created by potrace 1.15, written by Peter Selinger 2001-2017
</metadata>
<g transform="translate(0.000000,340.000000) scale(0.100000,-0.100000)"
fill="#000000" stroke="none">
<path d="M2220 2775 c0 -9 10 -31 22 -48 30 -42 35 -125 13 -236 -9 -48 -20
-92 -23 -98 -7 -9 -28 -16 -232 -68 -144 -37 -133 -44 -129 88 l4 112 -65 33
c-68 34 -155 50 -179 33 -12 -7 -6 -22 32 -78 54 -79 114 -231 95 -238 -32
-10 -302 -55 -332 -55 -64 0 -56 -34 18 -72 55 -28 96 -25 221 17 59 20 109
34 111 32 3 -2 8 -45 13 -95 8 -85 28 -142 50 -142 23 0 31 35 33 146 l3 119
160 32 c88 17 161 30 164 28 2 -3 -17 -51 -42 -107 -49 -110 -75 -193 -64
-204 24 -24 138 120 201 253 28 60 29 61 80 67 28 3 119 9 201 12 83 4 160 11
173 15 32 12 29 54 -6 89 -42 42 -102 48 -218 21 -51 -11 -104 -21 -118 -21
-30 0 -29 3 32 127 22 44 45 97 52 117 11 34 10 40 -11 63 -42 44 -98 66 -181
71 -69 4 -78 3 -78 -13z"/>
<path d="M925 2741 c-4 -7 7 -41 24 -76 57 -115 87 -277 93 -504 l3 -105 -225
-62 c-124 -34 -238 -68 -255 -74 -28 -11 -29 -12 -10 -23 30 -16 254 -12 370
8 55 9 105 18 110 18 6 1 10 -4 9 -10 -1 -7 -2 -87 -2 -178 l-2 -164 -52 -39
c-179 -132 -459 -309 -531 -336 -42 -16 -77 -32 -77 -35 0 -4 21 -28 47 -54
53 -53 123 -91 151 -83 11 4 118 96 238 206 120 110 222 200 225 200 14 0 -13
-482 -32 -570 -14 -65 -29 -73 -104 -49 -66 21 -101 24 -109 10 -4 -5 14 -33
38 -63 53 -65 107 -148 136 -211 25 -52 47 -60 80 -27 31 31 57 90 76 175 17
71 18 122 16 461 l-3 380 105 101 c111 105 136 146 72 119 -19 -8 -69 -37
-110 -65 l-76 -52 0 43 c0 24 3 93 7 155 l6 112 31 7 c119 25 236 77 236 105
0 6 -11 21 -25 34 -29 29 -95 33 -160 10 -77 -28 -78 -27 -71 73 11 150 27
274 47 367 l18 90 -32 28 c-54 48 -126 79 -193 85 -41 3 -64 1 -69 -7z"/>
<path d="M2450 1954 c-243 -62 -867 -172 -891 -158 -4 2 -10 16 -13 30 -9 36
-36 74 -52 74 -7 0 -16 -12 -19 -27 -8 -39 -37 -130 -80 -252 -51 -145 -50
-241 4 -241 41 0 101 109 144 260 l25 85 104 11 c57 7 153 21 213 33 254 48
428 72 556 78 188 8 203 -3 159 -119 -23 -61 -26 -118 -7 -118 7 0 28 11 47
23 36 25 119 55 228 82 70 17 112 35 112 45 0 15 -84 102 -126 131 -60 41
-195 109 -214 108 -8 -1 -94 -21 -190 -45z"/>
<path d="M1917 1722 c-16 -7 -19 -23 -21 -132 -2 -69 -9 -147 -17 -174 l-14
-49 -130 -24 c-223 -41 -244 -52 -163 -89 50 -23 111 -23 193 -1 32 9 61 14
64 12 7 -8 -88 -195 -134 -264 -99 -149 -227 -274 -400 -391 -55 -37 -107 -75
-115 -85 -29 -35 81 -11 184 40 270 134 463 356 594 682 l27 67 80 24 c50 15
110 24 159 25 l78 2 20 -35 c17 -31 19 -49 15 -160 -10 -239 -86 -440 -167
-440 -14 0 -58 9 -98 20 -83 23 -122 25 -122 7 0 -6 16 -35 36 -62 20 -28 53
-84 74 -126 46 -91 85 -139 111 -139 34 0 96 38 134 82 93 109 154 308 180
593 8 80 35 152 71 186 13 12 24 28 24 36 0 29 -75 95 -155 134 l-82 41 -134
-45 c-145 -49 -199 -63 -199 -51 0 5 23 57 51 116 28 59 49 115 47 125 -9 46
-139 97 -191 75z"/>
</g>
</svg>
