<?xml version="1.0" standalone="no"?>
<!DOCTYPE svg PUBLIC "-//W3C//DTD SVG 20010904//EN"
 "http://www.w3.org/TR/2001/REC-SVG-20010904/DTD/svg10.dtd">
<svg version="1.0" xmlns="http://www.w3.org/2000/svg"
 width="340.000000pt" height="340.000000pt" viewBox="0 0 340.000000 340.000000"
 preserveAspectRatio="xMidYMid meet">
<metadata>
Created by potrace 1.15, written by Peter Selinger 2001-2017
</metadata>
<g transform="translate(0.000000,340.000000) scale(0.100000,-0.100000)"
fill="#000000" stroke="none">
<path d="M1810 2646 c0 -108 -23 -200 -96 -386 -95 -240 -229 -463 -413 -691
-56 -68 -101 -127 -101 -131 0 -32 87 24 197 127 173 160 342 393 456 627 34
69 65 126 69 125 14 -3 246 -258 376 -412 194 -229 206 -240 277 -255 75 -16
233 -7 369 20 54 11 101 22 105 25 13 14 -20 41 -70 56 -324 99 -426 143 -566
242 -113 80 -254 201 -367 315 l-99 100 33 58 c18 33 45 81 58 108 l26 48 -35
29 c-50 43 -147 89 -186 89 l-33 0 0 -94z"/>
<path d="M877 2683 c-12 -12 -7 -35 18 -87 50 -105 75 -254 75 -458 l0 -127
-56 -21 c-31 -11 -129 -35 -218 -53 -130 -26 -161 -35 -164 -50 -3 -12 8 -22
35 -33 42 -18 182 -15 322 7 40 6 75 9 77 6 3 -2 2 -77 -2 -166 l-7 -162 -126
-84 c-142 -94 -291 -172 -399 -208 -40 -14 -75 -27 -78 -30 -20 -20 41 -99 98
-128 90 -46 75 -52 221 84 173 160 277 251 282 245 6 -6 -13 -304 -30 -458
-17 -154 -30 -209 -51 -217 -7 -3 -51 0 -97 7 -46 7 -90 11 -97 8 -8 -2 3 -22
33 -56 26 -29 73 -92 106 -140 65 -97 94 -127 111 -117 24 15 72 103 94 175
50 159 59 251 50 525 -4 138 -8 275 -9 305 l0 54 95 68 c99 71 130 100 130
124 0 29 -56 14 -135 -36 -44 -27 -82 -50 -85 -50 -6 0 -1 267 5 286 2 7 41
24 87 39 102 34 213 89 221 109 10 25 -40 56 -87 56 -23 0 -82 -13 -131 -30
-49 -16 -89 -30 -90 -30 0 0 3 42 6 93 8 108 30 231 59 332 28 97 26 119 -10
145 -64 46 -232 94 -253 73z"/>
<path d="M1963 1784 c-93 -23 -204 -47 -248 -53 -145 -21 -135 -58 23 -81 52
-7 89 -5 179 10 123 21 258 54 297 72 40 18 44 58 8 73 -57 24 -92 22 -259
-21z"/>
<path d="M2221 1561 c-12 -8 -13 -16 -3 -49 20 -68 14 -112 -43 -282 -66 -195
-175 -426 -208 -440 -46 -20 -529 -70 -676 -70 -36 0 -72 -4 -80 -9 -19 -12
-1 -41 47 -74 66 -46 91 -49 216 -22 267 57 568 80 939 72 258 -6 307 -2 307
27 0 29 -56 80 -124 112 -85 41 -112 42 -326 10 -85 -13 -156 -22 -158 -21
-12 11 187 361 295 518 29 43 53 86 53 96 0 21 -73 92 -116 114 -39 20 -106
29 -123 18z"/>
<path d="M1760 1439 c0 -44 90 -330 115 -366 9 -13 25 -23 35 -23 41 0 87 110
75 181 -11 66 -162 249 -205 249 -17 0 -20 -6 -20 -41z"/>
<path d="M1427 1338 c-9 -5 -17 -17 -17 -27 0 -51 94 -269 147 -339 19 -25 31
-32 51 -30 36 4 52 39 52 114 0 55 -4 68 -40 121 -85 128 -152 184 -193 161z"/>
</g>
</svg>
