<?xml version="1.0" standalone="no"?>
<!DOCTYPE svg PUBLIC "-//W3C//DTD SVG 20010904//EN"
 "http://www.w3.org/TR/2001/REC-SVG-20010904/DTD/svg10.dtd">
<svg version="1.0" xmlns="http://www.w3.org/2000/svg"
 width="340.000000pt" height="340.000000pt" viewBox="0 0 340.000000 340.000000"
 preserveAspectRatio="xMidYMid meet">
<metadata>
Created by potrace 1.15, written by Peter Selinger 2001-2017
</metadata>
<g transform="translate(0.000000,340.000000) scale(0.100000,-0.100000)"
fill="#000000" stroke="none">
<path d="M1043 2764 c-7 -18 3 -50 43 -144 l28 -65 4 -300 4 -300 -208 -58
c-259 -72 -279 -79 -279 -97 0 -41 239 -38 453 6 l32 7 0 -171 0 -171 -77 -59
c-211 -160 -397 -269 -543 -318 -52 -18 -96 -36 -97 -41 -2 -5 7 -25 20 -44
26 -39 115 -88 175 -96 l41 -6 198 194 c109 107 216 210 237 229 l39 35 -7
-265 c-8 -317 -11 -347 -40 -357 -11 -3 -73 -6 -136 -5 l-115 1 50 -42 c64
-53 128 -117 188 -190 27 -32 56 -57 67 -57 40 0 90 99 105 208 4 28 1 217 -5
418 l-12 367 48 41 c109 91 167 153 161 170 -6 15 -9 15 -37 1 -16 -8 -56 -36
-87 -62 -32 -25 -64 -50 -70 -56 -10 -7 -13 24 -13 151 l0 161 55 12 c72 16
153 57 178 91 17 23 19 31 9 53 -10 22 -18 25 -64 25 -35 0 -71 -9 -106 -25
-30 -14 -56 -25 -60 -25 -9 0 7 300 23 424 9 66 27 153 40 193 14 40 25 80 25
88 0 23 -70 63 -140 79 -84 20 -119 20 -127 0z"/>
<path d="M1950 2770 c-27 -7 -28 -10 -15 -120 5 -42 2 -67 -13 -107 -30 -78
-131 -243 -243 -393 -138 -188 -172 -237 -167 -250 5 -16 80 35 179 122 74 66
88 74 105 64 34 -20 209 -9 428 29 251 42 304 44 334 12 55 -59 57 -70 60
-497 5 -586 -24 -809 -117 -920 l-28 -34 -94 37 c-158 62 -190 60 -131 -8 28
-31 88 -125 147 -230 16 -27 39 -60 52 -72 21 -22 25 -23 51 -9 76 39 148 152
201 317 53 162 53 165 60 724 l7 530 28 70 c54 138 54 134 21 162 -51 40 -204
113 -241 113 -18 0 -57 -9 -86 -21 -79 -31 -259 -75 -465 -114 -101 -19 -188
-35 -194 -35 -13 0 82 139 160 233 152 185 180 218 201 235 72 59 -125 192
-240 162z"/>
<path d="M2213 1978 c-6 -7 -21 -38 -34 -68 -28 -68 -69 -131 -126 -193 -24
-26 -41 -51 -38 -56 3 -6 24 -3 50 5 57 20 305 165 319 187 32 50 -134 171
-171 125z"/>
<path d="M1793 1952 c-9 -6 -7 -18 6 -48 30 -67 49 -171 57 -306 l7 -127 -24
-9 c-13 -5 -127 -26 -254 -46 -126 -21 -234 -41 -239 -46 -15 -15 12 -38 66
-56 40 -13 55 -14 76 -5 33 15 180 51 210 51 l23 0 -26 -49 c-50 -91 -154
-219 -270 -329 -63 -60 -115 -112 -115 -116 0 -18 55 -1 124 40 100 58 235
188 333 319 41 55 80 105 85 110 16 15 3 -271 -17 -387 -21 -120 -10 -195 35
-240 70 -69 75 -39 73 369 l-3 342 53 6 c28 3 123 10 209 15 173 9 213 21 213
59 0 38 -45 64 -118 69 -52 3 -78 -2 -160 -32 -54 -20 -121 -42 -149 -51 l-51
-15 6 118 c5 101 27 219 51 273 21 48 -149 124 -201 91z"/>
<path d="M1518 1799 c-28 -16 -22 -35 32 -113 67 -97 112 -140 138 -132 31 10
45 63 32 123 -10 45 -16 52 -64 81 -38 24 -120 58 -121 52 0 0 -8 -5 -17 -11z"/>
<path d="M2010 1257 c0 -17 269 -259 328 -294 20 -13 45 -23 54 -23 40 0 50
79 18 145 -36 75 -57 91 -185 134 -144 49 -215 61 -215 38z"/>
</g>
</svg>
