<?xml version="1.0" standalone="no"?>
<!DOCTYPE svg PUBLIC "-//W3C//DTD SVG 20010904//EN"
 "http://www.w3.org/TR/2001/REC-SVG-20010904/DTD/svg10.dtd">
<svg version="1.0" xmlns="http://www.w3.org/2000/svg"
 width="340.000000pt" height="340.000000pt" viewBox="0 0 340.000000 340.000000"
 preserveAspectRatio="xMidYMid meet">
<metadata>
Created by potrace 1.15, written by Peter Selinger 2001-2017
</metadata>
<g transform="translate(0.000000,340.000000) scale(0.100000,-0.100000)"
fill="#000000" stroke="none">
<path d="M913 2763 c-4 -9 -1 -30 6 -47 57 -139 75 -283 69 -547 -2 -135 -6
-172 -17 -179 -8 -5 -101 -30 -205 -56 -200 -49 -223 -58 -206 -79 38 -46 252
-45 403 1 16 5 17 -6 15 -168 l-3 -173 -115 -73 c-123 -78 -333 -188 -415
-217 -27 -10 -54 -22 -58 -25 -11 -10 24 -79 55 -107 12 -12 36 -27 53 -33 34
-13 47 -4 263 170 71 58 150 120 176 138 l46 33 0 -63 c0 -109 -20 -410 -30
-468 -6 -30 -17 -61 -25 -69 -20 -20 -85 -17 -159 9 -104 35 -110 25 -35 -58
28 -32 82 -105 122 -164 39 -59 76 -109 83 -112 25 -9 76 35 99 87 38 82 46
194 39 567 -3 184 -2 340 3 345 4 6 31 28 58 49 81 63 155 139 155 158 0 10
-2 18 -5 18 -11 0 -90 -43 -130 -70 -22 -14 -46 -30 -52 -34 -10 -6 -13 26
-13 146 l0 154 58 12 c83 17 159 58 179 95 15 30 15 32 -11 54 -33 28 -43 28
-131 3 -38 -11 -76 -20 -84 -20 -29 0 11 301 64 483 14 48 25 93 25 101 0 7
-21 32 -46 56 -75 69 -217 120 -231 83z"/>
<path d="M2195 2603 c-22 -108 -54 -176 -128 -276 -35 -49 -63 -75 -98 -93
-52 -26 -60 -39 -30 -49 32 -10 219 -211 335 -360 153 -195 274 -333 307 -351
51 -26 375 -14 452 17 17 7 27 18 25 28 -3 16 -21 24 -158 66 -109 33 -268
109 -373 178 -85 55 -267 202 -267 215 0 25 299 184 373 197 36 7 37 8 37 50
0 66 -52 118 -141 140 -23 6 -27 3 -32 -22 -9 -47 -92 -148 -191 -233 l-91
-79 -55 52 c-30 29 -71 65 -90 80 l-35 27 69 62 c38 35 105 89 150 120 136 96
138 98 131 125 -11 44 -35 70 -94 102 -73 38 -89 39 -96 4z"/>
<path d="M1705 2350 c-36 -38 -113 -76 -182 -90 -38 -9 -54 -17 -59 -32 -12
-39 23 -45 155 -28 41 6 76 8 79 6 12 -12 -62 -286 -77 -286 -5 0 -15 7 -22
17 -23 27 -111 63 -155 63 -44 0 -81 -20 -70 -39 11 -17 122 -91 172 -112 24
-11 44 -22 44 -24 0 -11 -87 -146 -138 -215 -31 -41 -107 -126 -170 -188 -63
-62 -112 -115 -108 -119 11 -12 80 16 146 59 191 123 370 366 484 657 21 52
50 120 67 152 16 32 29 69 29 83 0 35 -77 99 -146 120 -15 4 -28 -2 -49 -24z"/>
<path d="M1965 1636 c-38 -13 -100 -35 -136 -49 -36 -14 -95 -33 -130 -42 -76
-19 -109 -34 -109 -51 0 -16 30 -23 127 -31 l83 -6 6 -34 c7 -36 1 -199 -7
-207 -14 -15 -204 -39 -339 -43 -85 -3 -159 -9 -165 -15 -15 -14 66 -85 113
-98 44 -11 72 -7 214 34 46 13 102 26 126 30 42 6 42 6 36 -21 -35 -153 -118
-306 -224 -413 -74 -75 -128 -114 -249 -180 -97 -53 -111 -70 -54 -70 62 0
149 27 244 76 199 103 342 293 404 538 l23 91 113 7 c63 4 193 8 289 8 96 1
189 6 207 11 54 17 52 53 -7 103 -68 56 -149 59 -343 11 -78 -19 -166 -38
-196 -42 l-54 -6 7 34 c4 19 9 57 12 85 6 46 4 54 -24 85 l-30 35 95 22 c174
42 233 73 217 115 -8 23 -78 47 -132 47 -26 -1 -78 -11 -117 -24z"/>
<path d="M2057 963 c-13 -12 -7 -24 56 -96 34 -39 105 -123 156 -186 108 -129
179 -191 222 -191 24 0 30 5 39 40 8 28 7 52 -1 85 -13 50 -71 147 -110 181
-49 45 -304 174 -342 174 -8 0 -17 -3 -20 -7z"/>
</g>
</svg>
