<?xml version="1.0" standalone="no"?>
<!DOCTYPE svg PUBLIC "-//W3C//DTD SVG 20010904//EN"
 "http://www.w3.org/TR/2001/REC-SVG-20010904/DTD/svg10.dtd">
<svg version="1.0" xmlns="http://www.w3.org/2000/svg"
 width="340.000000pt" height="340.000000pt" viewBox="0 0 340.000000 340.000000"
 preserveAspectRatio="xMidYMid meet">
<metadata>
Created by potrace 1.15, written by Peter Selinger 2001-2017
</metadata>
<g transform="translate(0.000000,340.000000) scale(0.100000,-0.100000)"
fill="#000000" stroke="none">
<path d="M2228 2682 c4 -71 1 -89 -33 -188 -45 -133 -88 -228 -162 -357 -30
-54 -53 -101 -49 -104 21 -22 171 133 235 243 l35 59 120 2 c115 1 374 38 453
64 44 14 48 35 14 70 -26 26 -36 29 -93 29 -70 0 -215 -32 -356 -80 -52 -17
-95 -30 -97 -28 -2 2 28 57 66 123 38 66 69 130 69 142 0 43 -97 103 -168 103
l-39 0 5 -78z"/>
<path d="M946 2711 c-4 -6 8 -44 27 -84 52 -109 59 -154 55 -402 l-3 -219 -75
-23 c-41 -13 -146 -43 -234 -67 -87 -24 -163 -49 -168 -54 -32 -32 156 -57
305 -42 56 6 119 14 140 19 l37 9 -1 -142 c-1 -77 -4 -152 -8 -166 -13 -47
-398 -292 -519 -330 -135 -43 -152 -51 -152 -71 0 -41 127 -139 180 -139 12 0
68 44 138 109 64 59 169 153 232 209 l115 100 3 -41 c9 -103 -32 -501 -59
-584 l-11 -33 -94 0 c-58 0 -94 -4 -94 -10 0 -6 24 -39 53 -74 28 -35 74 -100
100 -145 27 -45 55 -81 63 -81 44 0 93 89 127 232 21 87 22 116 22 456 l0 364
30 21 c66 47 183 148 199 173 10 14 15 32 12 39 -9 24 -56 0 -150 -76 -48 -38
-89 -69 -91 -69 -3 0 -5 63 -5 139 l0 139 94 32 c115 38 160 66 164 102 6 55
-87 76 -193 43 -27 -8 -51 -12 -54 -10 -7 8 19 303 34 385 7 41 20 104 29 139
l15 63 -32 29 c-50 46 -214 89 -231 60z"/>
<path d="M1756 2662 c-3 -6 9 -41 27 -78 l32 -69 1 -260 c1 -270 6 -316 44
-350 17 -16 19 -16 29 3 19 35 30 144 37 346 3 123 11 221 20 253 18 66 18 68
-8 93 -48 45 -167 86 -182 62z"/>
<path d="M1434 2496 c-3 -8 3 -31 14 -53 41 -80 54 -138 62 -284 9 -158 25
-219 58 -219 35 0 53 69 63 240 5 85 12 176 15 201 6 44 5 47 -30 74 -64 49
-170 73 -182 41z"/>
<path d="M2325 2201 c-15 -25 7 -58 76 -111 116 -90 167 -108 192 -69 8 12 6
30 -7 64 -17 44 -24 50 -93 82 -79 38 -155 53 -168 34z"/>
<path d="M2230 1899 c-65 -30 -249 -75 -387 -95 -107 -15 -125 -15 -191 -1
-86 17 -97 10 -67 -51 10 -21 22 -50 27 -67 14 -44 10 -271 -8 -404 -20 -155
-7 -236 39 -229 63 9 107 228 107 539 l0 126 183 33 c119 22 215 34 276 34
l95 1 9 -35 c5 -19 10 -179 13 -354 3 -285 6 -322 22 -350 24 -41 72 -48 90
-14 26 52 34 125 38 373 l4 259 30 61 c17 34 30 66 30 73 0 19 -82 81 -129 97
-79 26 -131 27 -181 4z"/>
<path d="M1935 1598 c24 -81 25 -103 10 -190 -57 -334 -259 -604 -637 -851
-60 -39 -108 -74 -108 -79 0 -15 59 -9 123 13 132 44 290 153 423 291 154 160
238 309 330 583 l55 168 -28 30 c-36 38 -81 57 -134 57 -38 0 -41 -2 -34 -22z"/>
<path d="M2010 1118 c0 -2 7 -21 15 -43 10 -29 14 -88 15 -205 0 -182 12 -252
55 -320 95 -151 354 -195 665 -114 106 28 222 80 264 119 32 29 32 20 -4 185
-11 52 -23 146 -26 208 -4 62 -10 115 -14 117 -10 6 -23 -28 -60 -160 -39
-139 -91 -238 -143 -276 -78 -57 -213 -89 -370 -89 -124 0 -187 31 -228 112
-39 77 -42 275 -5 362 9 21 16 45 16 52 0 23 -75 54 -130 54 -27 0 -50 -1 -50
-2z"/>
</g>
</svg>
