<?xml version="1.0" standalone="no"?>
<!DOCTYPE svg PUBLIC "-//W3C//DTD SVG 20010904//EN"
 "http://www.w3.org/TR/2001/REC-SVG-20010904/DTD/svg10.dtd">
<svg version="1.0" xmlns="http://www.w3.org/2000/svg"
 width="340.000000pt" height="340.000000pt" viewBox="0 0 340.000000 340.000000"
 preserveAspectRatio="xMidYMid meet">
<metadata>
Created by potrace 1.15, written by Peter Selinger 2001-2017
</metadata>
<g transform="translate(0.000000,340.000000) scale(0.100000,-0.100000)"
fill="#000000" stroke="none">
<path d="M870 2792 c0 -6 13 -50 29 -99 37 -109 49 -213 58 -465 l6 -196 -44
-12 c-172 -45 -406 -113 -422 -122 -20 -10 -20 -11 -2 -24 10 -7 38 -16 63
-20 60 -9 283 1 350 16 29 7 55 10 58 7 2 -2 1 -79 -2 -170 l-7 -165 -131
-105 c-213 -169 -294 -226 -393 -274 -65 -31 -93 -50 -93 -63 0 -30 43 -83
100 -123 l54 -38 234 233 234 233 -6 -260 c-7 -262 -19 -403 -37 -437 -13 -24
-51 -23 -131 2 -100 31 -121 25 -72 -21 42 -39 89 -109 136 -199 31 -60 50
-86 65 -88 47 -7 117 89 149 204 18 65 20 341 5 694 l-8 185 94 97 c51 53 93
104 93 112 0 36 -66 6 -148 -65 -18 -16 -37 -29 -43 -29 -6 0 -8 58 -7 156 l3
157 95 31 c190 63 253 111 198 150 -32 22 -76 20 -190 -10 -55 -14 -101 -25
-103 -23 -6 6 15 233 31 344 7 55 26 142 40 193 26 90 26 93 8 113 -32 35
-138 80 -203 86 -40 4 -61 2 -61 -5z"/>
<path d="M2380 2676 c-28 -15 -300 -86 -425 -110 -44 -9 -172 -31 -284 -50
-185 -31 -235 -45 -219 -61 8 -9 125 -25 179 -25 43 0 47 -2 53 -27 4 -16 11
-158 16 -318 5 -159 12 -302 15 -316 l7 -26 -99 -13 c-133 -17 -223 -36 -236
-50 -17 -17 14 -37 82 -51 51 -11 72 -9 221 21 238 46 523 99 536 100 7 0 14
-40 18 -107 4 -60 9 -118 12 -129 4 -16 0 -23 -18 -27 -94 -21 -209 -46 -240
-51 -88 -16 -7 -56 110 -56 61 0 100 7 172 30 75 25 95 29 107 18 29 -23 -2
-154 -73 -307 l-34 -75 -67 75 c-137 151 -210 208 -270 209 -39 0 -26 -29 40
-93 81 -79 237 -270 237 -290 0 -25 -169 -187 -271 -259 -52 -37 -138 -90
-191 -118 -111 -58 -131 -77 -72 -66 186 35 421 155 556 284 l59 56 17 -25 c9
-13 56 -69 104 -125 169 -195 172 -197 441 -192 163 2 199 6 212 19 23 23 8
32 -118 73 -197 65 -344 151 -531 312 l-47 40 95 195 c52 108 110 215 128 240
19 24 37 50 41 56 20 32 -34 70 -151 108 -50 17 -52 17 -116 -9 -80 -32 -91
-33 -72 -3 19 28 46 140 46 190 0 28 4 37 18 37 93 2 332 22 359 31 41 13 43
36 6 71 -56 53 -99 58 -242 28 -150 -32 -135 -54 -128 193 3 116 11 241 17
276 12 69 7 85 -47 142 l-25 27 74 12 c103 17 203 47 219 66 12 14 10 19 -14
40 -49 42 -156 57 -207 30z m-166 -218 c10 -71 28 -458 24 -538 l-3 -75 -195
-37 c-107 -20 -201 -37 -207 -37 -10 -1 -13 25 -13 97 l0 98 104 13 c160 18
246 49 246 87 0 7 -18 18 -40 24 -34 9 -54 7 -118 -11 -42 -12 -103 -27 -134
-34 l-58 -13 0 100 c0 99 0 99 23 92 70 -22 234 6 305 52 22 15 23 17 8 32
-23 24 -103 19 -216 -12 -52 -14 -101 -26 -107 -26 -10 0 -13 23 -13 84 l0 84
68 11 c37 6 114 20 172 30 154 27 146 28 154 -21z"/>
<path d="M1676 1450 c-58 -34 -167 -65 -286 -80 -47 -6 -89 -15 -94 -20 -29
-29 95 -77 170 -65 24 3 85 19 135 35 98 31 108 28 94 -28 -6 -24 -83 -213
-90 -220 -1 -2 -40 18 -86 43 -108 60 -166 85 -195 85 -46 0 -32 -20 71 -100
44 -35 97 -78 117 -96 l37 -33 -50 -63 c-76 -96 -227 -245 -290 -286 -103 -68
-99 -63 -47 -59 57 5 178 61 263 122 60 43 195 178 195 196 0 21 27 5 87 -51
84 -79 107 -94 137 -86 31 8 44 61 27 116 -10 35 -71 101 -129 142 l-24 16 72
156 c40 86 79 161 86 167 25 20 16 55 -22 89 -67 58 -105 63 -178 20z"/>
</g>
</svg>
