<?xml version="1.0" standalone="no"?>
<!DOCTYPE svg PUBLIC "-//W3C//DTD SVG 20010904//EN"
 "http://www.w3.org/TR/2001/REC-SVG-20010904/DTD/svg10.dtd">
<svg version="1.0" xmlns="http://www.w3.org/2000/svg"
 width="340.000000pt" height="340.000000pt" viewBox="0 0 340.000000 340.000000"
 preserveAspectRatio="xMidYMid meet">
<metadata>
Created by potrace 1.15, written by Peter Selinger 2001-2017
</metadata>
<g transform="translate(0.000000,340.000000) scale(0.100000,-0.100000)"
fill="#000000" stroke="none">
<path d="M934 2755 c-4 -10 7 -45 29 -88 20 -40 43 -108 52 -152 18 -88 39
-396 27 -406 -4 -4 -110 -33 -235 -65 -225 -57 -228 -58 -225 -83 5 -40 48
-55 158 -54 52 0 136 8 185 17 50 9 97 16 105 16 13 0 15 -23 12 -162 l-3
-163 -32 -28 c-128 -110 -431 -298 -530 -328 -109 -32 -117 -37 -117 -59 0
-21 55 -66 122 -101 51 -26 110 -25 134 2 10 12 98 89 194 172 96 83 186 160
199 171 l24 21 -7 -260 c-5 -234 -16 -378 -31 -426 -10 -29 -32 -30 -133 -4
-53 14 -100 25 -104 25 -19 0 -4 -30 45 -95 28 -39 77 -115 107 -169 57 -101
83 -136 101 -136 16 0 64 54 82 93 48 101 51 128 55 604 l3 452 82 68 c127
104 185 173 145 173 -21 0 -112 -46 -169 -84 -29 -19 -54 -34 -56 -32 -2 1 0
70 4 153 l6 151 81 31 c102 39 186 87 186 106 0 8 -11 22 -24 30 -42 28 -90
29 -166 5 -39 -13 -74 -20 -77 -16 -4 3 -1 70 5 149 10 121 25 202 57 312 11
37 -34 87 -116 129 -88 44 -165 58 -175 31z"/>
<path d="M2460 2590 c-291 -82 -606 -126 -833 -116 -118 5 -148 4 -153 -7 -2
-7 20 -62 50 -123 30 -60 75 -167 101 -239 48 -134 68 -175 86 -175 5 0 22 12
36 27 23 22 46 29 162 49 116 19 317 42 517 58 l50 4 20 -41 c13 -28 25 -42
39 -42 26 0 75 66 159 216 42 74 90 144 123 178 50 52 53 58 41 80 -22 41
-107 109 -164 130 -87 33 -119 33 -234 1z m142 -103 c4 -7 5 -28 2 -47 -11
-68 -67 -252 -83 -272 -13 -16 -40 -23 -134 -35 -65 -9 -120 -14 -123 -11 -3
3 27 70 66 147 l71 142 -30 30 c-35 35 -37 34 84 53 93 15 134 13 147 -7z
m-358 -43 c13 -34 -50 -303 -77 -331 -7 -6 -44 -15 -83 -18 l-71 -7 5 78 c4
75 -11 143 -52 235 -6 14 11 19 116 36 157 26 155 26 162 7z m-351 -57 c-4
-20 22 -194 43 -288 6 -25 4 -26 -87 -42 -51 -9 -94 -16 -95 -14 -8 10 -75
330 -69 335 8 9 127 29 176 31 33 1 36 -1 32 -22z"/>
<path d="M1970 1964 c0 -9 9 -31 19 -48 21 -34 41 -127 41 -192 l0 -42 -47
-10 c-27 -6 -115 -19 -196 -28 -122 -15 -147 -21 -145 -34 2 -8 21 -24 43 -35
44 -21 147 -26 268 -12 l67 8 0 -115 c0 -110 -1 -114 -22 -119 -40 -10 -248
-36 -423 -51 -176 -17 -284 -31 -293 -41 -3 -3 -1 -18 4 -33 19 -53 103 -64
260 -32 54 11 170 31 257 44 l159 23 -6 -30 c-14 -71 -87 -198 -154 -268 -71
-76 -115 -110 -200 -154 -29 -15 -59 -37 -67 -49 -20 -32 -25 -96 -12 -145 20
-72 30 -72 164 -9 177 84 387 148 647 197 86 17 112 19 123 9 8 -6 41 -57 74
-112 70 -120 104 -158 133 -154 61 9 76 189 24 279 -45 77 -161 170 -295 238
-109 54 -117 38 -48 -94 24 -47 43 -85 40 -85 -4 0 -533 -78 -564 -84 -18 -3
-8 12 51 73 217 225 258 270 258 287 0 10 -22 39 -50 65 l-49 46 92 8 c51 4
262 10 469 14 411 7 416 7 388 59 -19 33 -95 76 -175 97 -61 17 -62 17 -235
-18 -96 -20 -215 -40 -265 -46 -49 -7 -107 -14 -129 -17 l-38 -5 7 98 c10 148
3 137 103 152 238 34 379 98 329 148 -13 13 -38 19 -95 21 -64 3 -92 -1 -167
-26 -110 -36 -155 -45 -155 -31 0 6 9 47 20 91 12 44 18 88 15 98 -15 47 -225
106 -225 64z"/>
</g>
</svg>
