<?xml version="1.0" standalone="no"?>
<!DOCTYPE svg PUBLIC "-//W3C//DTD SVG 20010904//EN"
 "http://www.w3.org/TR/2001/REC-SVG-20010904/DTD/svg10.dtd">
<svg version="1.0" xmlns="http://www.w3.org/2000/svg"
 width="340.000000pt" height="340.000000pt" viewBox="0 0 340.000000 340.000000"
 preserveAspectRatio="xMidYMid meet">
<metadata>
Created by potrace 1.15, written by Peter Selinger 2001-2017
</metadata>
<g transform="translate(0.000000,340.000000) scale(0.100000,-0.100000)"
fill="#000000" stroke="none">
<path d="M1038 2833 c-35 -5 -36 -24 -3 -96 43 -93 55 -175 62 -422 l6 -231
-99 -27 c-143 -39 -349 -103 -370 -115 -16 -9 -15 -11 7 -23 39 -22 234 -16
352 10 55 12 101 20 104 17 3 -2 2 -87 -2 -187 l-8 -181 -166 -110 c-195 -129
-348 -208 -449 -232 -79 -20 -82 -26 -43 -85 20 -31 128 -111 150 -111 16 0
36 17 341 288 88 78 163 142 166 142 4 0 3 -71 0 -157 -13 -285 -35 -475 -56
-488 -5 -3 -39 3 -76 15 -70 21 -134 26 -134 11 0 -6 18 -30 39 -55 21 -25 67
-96 101 -158 80 -147 79 -146 118 -113 17 14 40 45 51 69 44 89 51 173 51 569
l0 372 81 70 c82 70 136 131 126 141 -8 8 -62 -22 -134 -72 -34 -24 -64 -44
-68 -44 -3 0 -4 77 -3 172 l3 172 113 48 c169 71 204 104 150 142 -31 22 -52
20 -153 -14 -49 -16 -91 -30 -93 -30 -3 0 -2 69 1 153 7 163 26 309 52 396
l17 53 -29 36 c-47 58 -128 87 -205 75z"/>
<path d="M1994 2806 c-13 -34 9 -66 106 -159 113 -109 145 -129 189 -121 70
14 78 75 24 182 -28 56 -29 57 -103 80 -100 32 -207 41 -216 18z"/>
<path d="M2630 2438 c-25 -5 -130 -30 -235 -54 -242 -58 -483 -107 -657 -133
-202 -31 -236 -49 -130 -72 109 -23 268 -11 546 42 55 10 101 17 103 15 6 -5
-25 -137 -45 -196 -17 -49 -78 -175 -99 -207 -5 -7 -104 -28 -222 -48 -236
-39 -242 -39 -321 -30 -79 9 -87 0 -53 -65 24 -46 28 -68 31 -155 5 -132 -14
-454 -33 -553 -8 -42 -22 -99 -32 -127 -24 -73 -23 -199 2 -249 11 -22 25 -42
32 -43 18 -6 61 94 78 182 29 151 36 250 42 588 6 333 6 337 27 342 11 3 85
18 163 34 131 26 144 27 157 12 26 -29 36 -71 36 -155 l0 -82 -92 -18 c-236
-45 -259 -70 -72 -74 65 -1 124 -4 130 -6 8 -3 5 -36 -10 -112 -21 -104 -23
-108 -51 -116 -17 -4 -42 -4 -59 2 -37 13 -73 13 -81 0 -3 -5 1 -24 8 -42 14
-34 48 -170 67 -270 11 -57 33 -93 50 -83 5 3 14 21 20 39 13 40 1 36 223 71
87 13 162 27 167 30 17 10 11 51 -10 70 -19 17 -19 19 -2 47 9 16 41 53 71 81
l54 51 -38 33 c-37 32 -129 73 -163 73 -10 0 -33 -11 -52 -24 -55 -37 -160
-69 -160 -49 0 5 16 56 35 114 l36 107 67 7 c136 14 332 77 332 106 0 5 -17
17 -37 26 -44 18 -91 13 -226 -22 -50 -13 -94 -22 -96 -19 -3 2 5 35 17 72 35
108 30 128 -42 165 l-30 15 30 6 c71 14 329 46 374 46 51 0 51 0 71 -44 29
-65 48 -213 60 -466 14 -282 1 -581 -26 -609 -3 -2 -47 7 -98 22 -99 29 -117
32 -117 19 0 -4 22 -37 48 -73 26 -37 72 -108 102 -158 60 -102 78 -118 111
-99 34 21 106 124 129 184 32 88 34 146 10 508 -27 415 -25 571 8 638 14 27
21 56 17 67 -8 28 -72 68 -161 103 -97 37 -118 36 -308 -27 -76 -25 -141 -44
-143 -41 -8 8 120 156 187 216 87 77 89 93 20 160 -61 59 -68 56 140 65 299
11 411 54 333 126 -51 47 -128 60 -233 37z m-408 -1324 c-2 -21 -8 -63 -13
-92 -9 -43 -16 -55 -36 -63 -29 -11 -236 -49 -241 -44 -6 6 -23 158 -20 179 3
19 17 23 148 42 80 12 150 20 155 19 6 -1 9 -19 7 -41z"/>
<path d="M1770 2070 c0 -44 31 -146 57 -189 39 -63 86 -70 109 -16 18 43 18
59 -1 98 -24 50 -118 147 -143 147 -19 0 -22 -6 -22 -40z"/>
</g>
</svg>
