<?xml version="1.0" standalone="no"?>
<!DOCTYPE svg PUBLIC "-//W3C//DTD SVG 20010904//EN"
 "http://www.w3.org/TR/2001/REC-SVG-20010904/DTD/svg10.dtd">
<svg version="1.0" xmlns="http://www.w3.org/2000/svg"
 width="340.000000pt" height="340.000000pt" viewBox="0 0 340.000000 340.000000"
 preserveAspectRatio="xMidYMid meet">
<metadata>
Created by potrace 1.15, written by Peter Selinger 2001-2017
</metadata>
<g transform="translate(0.000000,340.000000) scale(0.100000,-0.100000)"
fill="#000000" stroke="none">
<path d="M1958 2874 c-25 -7 -23 -22 12 -90 43 -84 57 -199 42 -340 -7 -59
-13 -109 -15 -110 -3 -3 -299 -54 -315 -54 -6 0 -9 30 -9 74 1 66 -1 77 -27
111 -46 60 -101 87 -135 66 -12 -8 -11 -18 7 -63 42 -103 38 -177 -13 -258
-28 -45 -19 -73 34 -101 l35 -19 60 34 c90 50 231 99 411 144 189 47 412 89
421 79 4 -4 2 -18 -4 -32 -17 -36 -15 -82 3 -89 40 -15 102 42 182 167 25 40
68 98 94 130 27 32 49 65 49 72 0 43 -121 123 -217 144 -49 10 -50 7 -28 -54
18 -52 18 -90 0 -151 -27 -89 -31 -91 -234 -139 l-184 -43 7 72 c3 39 18 121
32 181 40 175 40 172 13 195 -62 53 -170 89 -221 74z"/>
<path d="M926 2851 c-4 -6 11 -44 34 -85 57 -103 70 -180 78 -440 7 -213 6
-219 -13 -227 -34 -14 -356 -97 -420 -108 -95 -17 -99 -40 -13 -66 77 -23 199
-19 309 9 52 13 102 27 112 31 16 7 17 -6 17 -182 l0 -189 -107 -81 c-212
-158 -362 -248 -469 -279 -53 -15 -55 -17 -49 -42 10 -43 38 -75 85 -99 94
-48 108 -40 373 216 l167 163 0 -145 c0 -158 -16 -427 -29 -473 -7 -27 -10
-29 -62 -29 -30 0 -73 4 -96 9 -37 7 -43 5 -43 -9 0 -9 19 -39 43 -65 24 -26
65 -89 91 -139 49 -91 70 -110 104 -92 27 15 68 96 97 196 30 100 29 34 8 644
l-6 195 106 101 c116 109 140 152 65 114 -24 -12 -71 -41 -106 -65 -35 -24
-65 -44 -67 -44 -3 0 -5 73 -5 163 l0 162 53 17 c175 56 207 73 207 115 0 46
-78 56 -182 23 -34 -11 -67 -20 -72 -20 -24 0 22 401 60 519 l24 76 -50 47
c-51 48 -105 71 -191 83 -29 4 -49 3 -53 -4z"/>
<path d="M2108 2153 c-10 -2 -18 -9 -18 -15 0 -23 50 -96 82 -120 34 -26 138
-82 142 -76 40 54 46 95 22 153 -12 28 -23 36 -67 49 -50 15 -123 19 -161 9z"/>
<path d="M1732 2053 c-1 -48 -9 -73 -47 -148 -56 -111 -204 -298 -360 -455
-63 -64 -115 -119 -115 -123 0 -14 32 -6 88 22 65 33 206 154 300 257 l63 69
-5 -390 c-4 -399 -15 -537 -51 -663 -19 -63 -14 -127 16 -208 25 -65 50 -90
77 -75 28 15 39 73 53 285 12 171 13 177 33 172 71 -17 109 -16 231 7 226 44
385 59 643 63 266 3 292 9 292 59 0 28 -52 62 -138 90 -58 19 -63 18 -282 -25
-80 -15 -160 -31 -177 -34 l-33 -5 0 117 0 118 123 18 c171 24 232 57 168 90
-46 24 -166 20 -263 -10 -16 -5 -18 4 -18 93 l0 99 73 17 c39 9 96 22 126 28
29 6 63 21 74 32 l20 20 -23 19 c-28 23 -112 24 -190 3 -72 -19 -73 -19 -66
13 15 69 10 112 -17 140 l-27 28 162 27 c90 15 195 35 233 44 63 16 70 20 70
43 0 58 -114 76 -246 39 -212 -60 -419 -110 -547 -132 -152 -26 -181 -38 -148
-63 32 -23 196 -18 347 11 l36 7 6 -98 c4 -54 3 -102 -1 -106 -4 -4 -59 -20
-122 -37 -156 -40 -223 -63 -228 -80 -4 -11 15 -12 104 -8 60 3 143 12 184 20
41 8 75 14 76 14 0 -1 -1 -48 -4 -105 l-4 -102 -52 -15 c-28 -8 -105 -26 -170
-40 -150 -31 -171 -47 -89 -66 57 -13 149 -11 228 6 38 8 73 15 77 15 5 0 8
-51 8 -114 0 -110 -1 -114 -22 -119 -24 -6 -350 -54 -403 -59 l-30 -3 -5 365
c-6 362 -6 366 -32 440 l-26 75 47 50 c25 28 74 85 109 127 l62 76 -26 32
c-25 29 -91 69 -140 84 -21 6 -22 3 -22 -51z"/>
</g>
</svg>
