<?xml version="1.0" standalone="no"?>
<!DOCTYPE svg PUBLIC "-//W3C//DTD SVG 20010904//EN"
 "http://www.w3.org/TR/2001/REC-SVG-20010904/DTD/svg10.dtd">
<svg version="1.0" xmlns="http://www.w3.org/2000/svg"
 width="340.000000pt" height="340.000000pt" viewBox="0 0 340.000000 340.000000"
 preserveAspectRatio="xMidYMid meet">
<metadata>
Created by potrace 1.15, written by Peter Selinger 2001-2017
</metadata>
<g transform="translate(0.000000,340.000000) scale(0.100000,-0.100000)"
fill="#000000" stroke="none">
<path d="M873 2689 c-18 -5 -33 -14 -33 -19 0 -6 15 -31 34 -57 66 -94 86
-201 86 -455 l0 -147 -57 -21 c-32 -12 -123 -38 -203 -57 -159 -39 -200 -52
-200 -63 0 -12 24 -19 118 -30 95 -12 194 -7 286 16 32 8 61 13 63 11 2 -3 1
-90 -3 -194 l-7 -190 -106 -67 c-144 -92 -331 -182 -418 -204 -40 -9 -73 -20
-73 -24 0 -21 67 -79 120 -102 l61 -28 75 59 c132 102 325 243 335 243 19 0 1
-473 -22 -578 -10 -51 -11 -52 -48 -52 -20 0 -69 9 -109 20 -39 11 -74 20 -77
20 -15 0 0 -25 49 -81 30 -34 78 -102 106 -150 28 -48 58 -93 66 -100 31 -26
91 62 132 196 13 41 16 115 17 424 l0 373 100 78 c149 116 192 156 179 169
-19 20 -123 -30 -245 -119 -23 -16 -43 -29 -44 -28 -2 2 0 83 3 181 3 118 9
180 16 182 6 2 62 18 124 37 159 47 214 96 161 143 -27 26 -75 24 -187 -6 -51
-14 -95 -23 -96 -20 -2 3 0 74 5 158 7 128 18 202 56 378 5 24 -65 73 -140 99
-53 18 -76 19 -124 5z"/>
<path d="M2280 2663 c-14 -3 -108 -23 -210 -45 -102 -22 -255 -52 -340 -67
-152 -27 -156 -27 -195 -10 -42 19 -130 25 -154 10 -16 -10 -8 -40 27 -96 56
-88 107 -245 137 -425 22 -128 49 -157 100 -106 16 16 45 29 82 35 31 6 58 9
60 7 2 -2 -6 -29 -17 -59 -37 -99 -146 -230 -296 -358 -48 -41 -101 -86 -118
-102 l-31 -27 30 6 c48 11 173 71 226 109 27 19 52 35 55 35 11 0 234 -144
234 -151 0 -4 -59 -47 -131 -95 -146 -97 -404 -232 -551 -290 -97 -37 -119
-53 -75 -55 181 -8 471 105 762 295 l110 72 175 -108 c221 -136 391 -231 457
-254 46 -16 60 -17 123 -6 70 12 272 74 300 92 27 17 -2 29 -110 45 -267 40
-516 113 -719 211 -181 86 -173 75 -99 137 35 29 120 99 191 155 70 57 127
106 127 109 0 20 -55 82 -89 101 -53 30 -95 29 -170 -3 -71 -30 -224 -70 -310
-81 l-56 -7 68 76 c37 41 67 80 67 87 0 7 -16 27 -36 46 -43 39 -57 33 144 64
180 27 177 28 207 -20 14 -22 32 -40 40 -40 36 0 96 99 175 290 53 126 84 178
127 215 l24 20 -30 47 c-17 26 -49 61 -72 78 -59 42 -178 74 -239 63z m2 -113
c45 0 60 -24 53 -89 -21 -190 -51 -328 -74 -340 -21 -10 -290 -56 -296 -50 -2
3 1 42 8 89 l12 83 70 15 c133 26 206 72 184 114 -12 23 -86 24 -178 3 -35 -9
-66 -14 -68 -12 -2 2 1 26 7 54 8 34 8 58 0 77 -5 15 -10 29 -10 31 0 4 79 21
135 29 17 2 53 2 80 0 28 -2 62 -4 77 -4z m-410 -130 c6 -47 7 -85 2 -90 -5
-5 -49 -19 -98 -32 -49 -13 -91 -28 -93 -34 -5 -15 44 -24 129 -24 l69 0 -3
-92 -3 -93 -109 -23 c-60 -12 -110 -21 -111 -20 -7 10 -74 452 -70 457 11 10
259 48 268 40 5 -4 14 -44 19 -89z m281 -712 c-10 -17 -62 -76 -115 -131 -74
-75 -102 -98 -117 -94 -11 3 -70 33 -131 68 l-110 63 47 41 c43 38 51 42 90
37 23 -2 82 3 130 12 86 16 185 33 211 35 10 1 8 -8 -5 -31z"/>
<path d="M2080 1069 c-61 -28 -188 -57 -296 -68 -69 -7 -114 -6 -197 7 -127
19 -141 13 -103 -42 52 -78 85 -205 106 -414 11 -113 21 -142 50 -142 24 0 36
22 45 82 7 43 10 48 34 48 42 0 469 29 525 36 125 14 143 39 80 102 l-36 36
18 35 c11 20 48 64 84 99 l65 64 -49 44 c-53 49 -217 134 -256 134 -14 0 -45
-10 -70 -21z m94 -115 c21 -54 -12 -255 -47 -281 -13 -11 -428 -55 -437 -47
-2 3 -11 72 -20 154 l-16 149 41 6 c119 18 282 33 371 34 84 1 103 -2 108 -15z"/>
</g>
</svg>
