<?xml version="1.0" standalone="no"?>
<!DOCTYPE svg PUBLIC "-//W3C//DTD SVG 20010904//EN"
 "http://www.w3.org/TR/2001/REC-SVG-20010904/DTD/svg10.dtd">
<svg version="1.0" xmlns="http://www.w3.org/2000/svg"
 width="340.000000pt" height="340.000000pt" viewBox="0 0 340.000000 340.000000"
 preserveAspectRatio="xMidYMid meet">
<metadata>
Created by potrace 1.15, written by Peter Selinger 2001-2017
</metadata>
<g transform="translate(0.000000,340.000000) scale(0.100000,-0.100000)"
fill="#000000" stroke="none">
<path d="M1708 2923 c-23 -6 -22 -6 4 -78 16 -46 22 -84 22 -160 1 -105 -27
-278 -48 -293 -6 -4 -58 -19 -116 -31 -108 -24 -180 -53 -180 -73 0 -11 144
-6 238 8 l43 7 -27 -74 c-103 -294 -279 -549 -492 -717 -141 -111 -150 -126
-62 -97 66 22 205 114 292 194 l66 61 6 -27 c13 -64 37 -267 46 -382 10 -130
24 -171 59 -171 12 0 23 11 29 29 9 26 16 29 93 42 46 7 88 14 94 14 54 1 85
-503 33 -536 -14 -10 -35 -7 -141 18 -98 22 -101 11 -25 -83 35 -44 80 -112
101 -152 34 -64 41 -72 67 -72 39 0 89 51 126 127 26 52 29 68 28 148 -1 106
-11 467 -13 478 0 4 -20 28 -42 52 l-42 45 34 0 c19 0 71 3 117 7 l82 6 0 -25
c0 -29 33 -63 51 -53 17 11 62 114 108 248 44 127 68 180 112 239 21 30 26 45
19 58 -18 34 -119 117 -183 150 l-64 34 -129 -32 c-71 -17 -201 -43 -289 -57
-88 -14 -172 -27 -187 -30 -16 -2 -28 -2 -28 1 0 3 36 60 80 126 84 125 165
283 196 381 10 31 20 57 24 57 3 0 27 -24 53 -54 100 -116 687 -611 756 -638
52 -20 259 1 415 43 34 9 37 12 24 25 -7 8 -74 29 -148 48 -226 57 -439 143
-602 242 -72 44 -74 40 77 123 61 33 123 67 138 75 27 15 27 16 13 45 -21 39
-140 111 -185 111 -14 0 -22 -15 -35 -67 -16 -67 -44 -123 -89 -177 l-24 -30
-106 77 c-123 90 -240 185 -245 198 -2 5 9 9 23 9 104 0 523 89 546 116 33 40
-40 77 -153 76 -62 0 -108 -9 -235 -47 -87 -26 -166 -52 -176 -57 -10 -5 -21
-8 -23 -5 -6 5 28 115 84 271 l46 129 -34 29 c-75 62 -157 88 -222 71z m421
-1205 c27 -77 24 -188 -9 -380 l-12 -65 -46 4 c-29 3 -104 -7 -197 -26 -82
-16 -178 -33 -211 -37 l-62 -6 -6 28 c-3 16 -8 64 -12 107 l-6 77 73 0 c84 0
249 23 324 45 56 16 99 53 90 77 -9 23 -64 30 -138 18 -72 -11 -241 -58 -301
-84 -22 -9 -42 -14 -45 -10 -3 3 -8 52 -9 109 -4 100 -3 103 20 108 12 3 97
17 188 31 91 14 176 27 190 29 14 2 55 5 92 6 66 1 66 1 77 -31z"/>
<path d="M793 2849 c-18 -5 -33 -12 -33 -14 0 -2 13 -30 29 -62 16 -32 36 -85
45 -118 22 -88 38 -264 34 -390 l-3 -110 -205 -48 c-113 -27 -209 -52 -214
-57 -14 -14 40 -41 103 -50 55 -8 229 1 294 16 l27 6 0 -200 0 -200 -92 -60
c-135 -87 -200 -121 -313 -167 -78 -32 -101 -45 -103 -62 -3 -23 33 -54 90
-77 76 -31 82 -30 146 26 33 29 105 92 160 141 55 48 102 87 106 87 9 0 7
-268 -4 -430 -11 -159 -26 -250 -45 -277 -11 -15 -16 -15 -71 5 -148 53 -174
37 -97 -60 52 -65 89 -126 133 -213 30 -60 54 -67 98 -30 39 32 67 107 89 233
15 82 17 157 16 477 l-2 381 84 63 c110 83 144 119 126 131 -19 11 -33 5 -129
-56 l-82 -54 2 186 3 186 90 32 c100 36 140 59 157 89 25 48 -72 62 -184 27
-34 -11 -65 -20 -67 -20 -2 0 -1 69 2 153 6 152 32 308 62 380 15 35 14 37
-11 61 -63 58 -178 94 -241 75z"/>
<path d="M1263 2104 c-11 -31 82 -188 124 -207 45 -20 79 39 65 112 -6 28 -18
40 -71 72 -69 41 -108 49 -118 23z"/>
<path d="M1408 1023 c-9 -10 -26 -38 -38 -63 -13 -25 -54 -91 -91 -148 -90
-136 -111 -208 -67 -235 23 -15 90 7 131 43 72 63 123 210 114 329 -6 74 -24
102 -49 74z"/>
<path d="M2140 1013 c0 -16 19 -34 180 -177 188 -167 244 -208 279 -204 50 6
51 98 1 185 -57 99 -128 148 -268 184 -74 19 -192 26 -192 12z"/>
</g>
</svg>
