<?xml version="1.0" standalone="no"?>
<!DOCTYPE svg PUBLIC "-//W3C//DTD SVG 20010904//EN"
 "http://www.w3.org/TR/2001/REC-SVG-20010904/DTD/svg10.dtd">
<svg version="1.0" xmlns="http://www.w3.org/2000/svg"
 width="340.000000pt" height="340.000000pt" viewBox="0 0 340.000000 340.000000"
 preserveAspectRatio="xMidYMid meet">
<metadata>
Created by potrace 1.15, written by Peter Selinger 2001-2017
</metadata>
<g transform="translate(0.000000,340.000000) scale(0.100000,-0.100000)"
fill="#000000" stroke="none">
<path d="M966 2837 c-17 -13 -17 -16 3 -81 12 -37 28 -119 36 -182 16 -120 25
-487 13 -499 -13 -13 -200 -72 -303 -95 -152 -34 -180 -44 -180 -60 0 -49 284
-52 468 -5 l27 7 -1 -143 c-1 -79 -4 -153 -7 -164 -15 -44 -406 -393 -574
-512 -43 -30 -78 -58 -78 -63 0 -13 40 -49 74 -67 15 -8 52 -17 81 -20 l52 -6
47 73 c64 98 134 184 268 331 l113 123 3 -139 c5 -240 -24 -495 -62 -533 -10
-11 -22 -10 -62 6 -61 24 -112 34 -118 23 -3 -4 12 -32 34 -62 21 -30 66 -106
100 -169 34 -63 66 -119 71 -124 13 -14 47 21 74 74 58 116 75 276 75 710 l0
328 50 59 c109 128 102 178 -11 76 l-39 -35 0 53 c0 30 3 91 6 136 l7 81 45 7
c190 28 279 119 154 155 -21 5 -56 2 -113 -10 -46 -11 -86 -17 -88 -14 -8 7
19 304 34 384 8 41 27 115 42 164 l27 89 -34 29 c-50 41 -148 88 -185 88 -17
0 -39 -6 -49 -13z"/>
<path d="M2170 2674 c-74 -25 -196 -61 -270 -81 -122 -32 -147 -35 -254 -34
-110 2 -146 -5 -146 -28 0 -4 18 -31 41 -60 56 -75 110 -194 154 -336 49 -160
55 -174 76 -185 20 -11 49 10 49 36 0 21 26 28 202 54 148 22 158 23 176 7 10
-9 25 -17 33 -17 23 0 61 46 109 130 72 125 120 191 196 270 l74 76 -22 43
c-29 60 -146 132 -263 164 -11 3 -81 -15 -155 -39z m125 -126 c8 -32 -18 -169
-56 -298 l-32 -110 -61 0 c-34 0 -77 -5 -96 -11 -58 -17 -250 -68 -251 -66 -1
1 -9 50 -18 110 l-17 107 76 0 c41 0 116 9 166 18 134 27 175 61 119 98 -38
25 -148 14 -255 -26 -47 -17 -92 -34 -101 -36 -14 -5 -19 5 -28 47 -7 30 -14
63 -17 75 -7 26 -9 25 301 78 247 43 263 43 270 14z"/>
<path d="M2305 1915 c-260 -68 -593 -136 -830 -170 -205 -29 -205 -29 -205
-49 0 -22 52 -46 99 -46 l39 0 9 -87 c10 -111 7 -683 -4 -694 -5 -5 -65 -24
-133 -42 -78 -22 -126 -40 -128 -49 -4 -20 54 -75 95 -89 51 -16 95 -6 155 39
74 54 187 121 297 177 l93 46 -7 -93 c-3 -51 -11 -131 -18 -178 -18 -132 -15
-178 13 -234 31 -61 55 -79 75 -53 20 28 35 131 35 245 l0 101 38 7 c138 23
248 68 330 133 62 50 56 52 145 -59 80 -99 166 -188 199 -206 38 -20 154 -18
291 6 121 20 167 36 167 55 0 15 -12 19 -185 74 -72 23 -178 65 -235 94 -100
50 -252 146 -265 166 -3 6 4 29 15 51 11 22 39 111 61 197 39 155 51 186 92
231 l21 22 -34 35 c-37 38 -125 85 -160 85 -12 0 -73 -23 -136 -50 -64 -28
-148 -59 -187 -70 -87 -24 -98 -34 -56 -49 51 -17 118 -13 194 14 117 42 165
29 165 -42 0 -43 -61 -303 -71 -303 -3 0 -30 35 -58 78 -62 95 -96 129 -142
142 -43 13 -89 13 -89 0 0 -5 29 -39 65 -75 36 -37 92 -107 125 -157 l59 -90
-21 -29 c-35 -47 -155 -137 -239 -179 -42 -22 -79 -36 -83 -33 -3 4 -6 53 -6
109 l0 103 73 34 c70 33 106 61 93 74 -3 3 -42 -6 -87 -21 -44 -15 -83 -26
-85 -23 -2 2 1 114 6 248 12 274 9 323 -26 375 -14 20 -24 38 -22 39 16 17
428 80 612 95 250 20 317 39 302 87 -11 34 -72 57 -161 60 -70 3 -106 -4 -290
-52z m-546 -252 c20 -83 30 -241 31 -444 l0 -196 -123 -52 c-67 -28 -128 -51
-135 -51 -9 0 -12 28 -12 104 l0 103 61 7 c80 8 144 42 144 76 0 34 -39 38
-113 10 -103 -39 -93 -46 -90 71 l3 104 67 7 c90 8 138 25 138 47 0 45 -49 53
-132 21 -29 -11 -56 -20 -60 -20 -5 0 -8 25 -8 56 0 61 -21 117 -52 138 -18
13 -16 15 34 25 29 6 82 17 118 25 112 24 116 23 129 -31z"/>
</g>
</svg>
