<?xml version="1.0" standalone="no"?>
<!DOCTYPE svg PUBLIC "-//W3C//DTD SVG 20010904//EN"
 "http://www.w3.org/TR/2001/REC-SVG-20010904/DTD/svg10.dtd">
<svg version="1.0" xmlns="http://www.w3.org/2000/svg"
 width="340.000000pt" height="340.000000pt" viewBox="0 0 340.000000 340.000000"
 preserveAspectRatio="xMidYMid meet">
<metadata>
Created by potrace 1.15, written by Peter Selinger 2001-2017
</metadata>
<g transform="translate(0.000000,340.000000) scale(0.100000,-0.100000)"
fill="#000000" stroke="none">
<path d="M893 2818 c3 -13 17 -50 31 -84 39 -93 57 -218 63 -435 l6 -197 -109
-25 c-60 -15 -158 -35 -217 -46 -117 -20 -144 -33 -114 -55 35 -27 134 -39
255 -32 64 3 132 9 150 12 l32 6 0 -203 0 -204 -113 -82 c-161 -116 -307 -207
-424 -264 -116 -56 -125 -70 -73 -119 31 -29 124 -70 158 -70 10 0 71 54 137
121 113 113 292 269 310 269 9 0 -3 -560 -13 -630 -7 -44 -8 -45 -47 -48 -22
-2 -71 4 -109 12 -66 14 -96 13 -96 -4 0 -4 22 -35 50 -69 27 -35 74 -100 105
-146 75 -111 76 -111 114 -79 41 34 77 97 107 186 24 71 25 72 14 292 -5 122
-10 304 -10 406 l0 185 85 94 c47 52 85 98 85 103 0 20 -43 4 -96 -35 -33 -24
-65 -46 -71 -51 -10 -6 -13 32 -13 177 l0 183 73 17 c181 43 266 130 157 161
-30 9 -117 -1 -187 -20 -22 -6 -23 -4 -23 49 0 88 19 254 41 357 35 162 36
151 -11 194 -46 41 -108 72 -167 81 -21 3 -49 8 -62 11 -20 4 -23 2 -18 -18z"/>
<path d="M2475 2795 c-22 -13 -74 -33 -115 -44 -62 -17 -92 -20 -173 -14 -106
7 -109 5 -81 -48 32 -63 46 -168 45 -348 0 -168 5 -205 33 -223 19 -13 55 -9
63 7 6 10 44 20 123 30 150 20 154 19 170 -10 7 -14 22 -25 31 -25 30 0 50 43
64 137 8 48 21 135 29 193 13 83 25 122 57 187 48 98 45 112 -37 150 -80 36
-158 39 -209 8z m55 -105 c17 -17 20 -33 20 -117 0 -89 -12 -230 -25 -309 l-5
-30 -113 -18 c-61 -9 -120 -19 -129 -22 -16 -5 -18 3 -18 63 l0 68 88 0 c128
0 185 31 130 69 -30 22 -49 20 -130 -9 -38 -14 -73 -25 -79 -25 -5 0 -9 31 -9
69 l0 69 88 4 c92 4 145 22 150 51 3 15 -5 17 -55 17 -32 -1 -86 -7 -120 -14
l-63 -14 0 57 0 57 83 22 c142 38 160 39 187 12z"/>
<path d="M1814 2714 c-63 -50 -137 -68 -266 -66 -138 2 -134 9 -89 -114 32
-87 56 -220 66 -359 8 -112 21 -165 41 -165 8 0 28 10 45 22 25 19 46 23 129
26 89 4 102 2 126 -17 20 -16 30 -18 46 -10 31 16 40 55 49 209 11 174 32 307
58 360 l19 39 -27 24 c-31 30 -95 62 -136 70 -23 5 -38 0 -61 -19z m36 -104
c21 -13 26 -196 10 -362 l-12 -127 -47 5 c-27 3 -70 -1 -105 -10 -32 -9 -63
-13 -67 -10 -5 3 -9 34 -9 70 l0 64 64 0 c72 0 122 14 131 37 13 35 -47 43
-129 18 -76 -23 -76 -23 -76 45 0 56 2 60 23 60 44 1 161 30 176 44 11 12 12
18 2 29 -20 25 -67 27 -137 6 -36 -11 -68 -18 -71 -16 -2 3 -7 30 -10 60 l-6
55 59 12 c142 30 183 34 204 20z"/>
<path d="M2012 2088 c-10 -10 2 -27 54 -79 l66 -66 -49 -7 c-81 -12 -267 -58
-286 -71 -33 -23 3 -30 141 -27 l132 3 0 -49 0 -49 -52 -11 c-29 -6 -84 -16
-122 -22 -77 -12 -109 -26 -103 -43 4 -14 129 -16 220 -4 l57 7 0 -63 0 -63
-107 -18 c-160 -27 -204 -37 -198 -46 11 -18 139 -31 215 -21 41 6 79 11 83
11 4 0 7 -30 5 -67 l-3 -68 -155 -26 c-85 -14 -173 -28 -195 -31 l-40 -5 0
276 1 276 49 47 c47 46 48 48 30 63 -29 22 -85 37 -124 33 -32 -3 -37 -9 -75
-84 -52 -103 -136 -205 -256 -312 -141 -126 -141 -156 1 -85 58 29 98 61 186
149 l113 111 0 -66 c-1 -99 -17 -252 -36 -330 -14 -58 -15 -79 -6 -127 7 -31
17 -63 23 -70 16 -20 46 -1 66 42 12 24 22 33 32 29 47 -18 109 -15 266 14
168 30 464 74 580 86 71 8 115 23 115 40 0 18 -41 43 -93 57 -40 10 -59 8
-178 -20 -74 -18 -149 -35 -167 -38 l-33 -7 3 63 3 63 100 18 c153 26 227 57
204 85 -15 18 -86 18 -174 -2 -38 -8 -85 -18 -102 -21 l-33 -6 0 61 0 60 68
16 c37 9 108 21 157 26 103 13 129 28 101 59 -10 11 -30 23 -45 26 -25 5 -249
-37 -272 -51 -5 -3 -9 19 -9 49 l0 54 59 6 c33 4 111 18 173 31 62 14 129 28
148 31 19 3 41 9 49 14 22 14 3 49 -35 61 -37 13 -155 -2 -321 -39 l-83 -19
20 25 c37 47 23 81 -47 117 -38 19 -104 21 -121 4z"/>
<path d="M2200 1184 c-111 -58 -320 -108 -508 -121 -102 -7 -135 -20 -113 -47
26 -32 132 -46 187 -26 54 21 427 120 432 115 17 -17 -63 -185 -122 -260 l-22
-28 -99 49 c-94 47 -101 49 -184 49 -110 0 -115 -18 -16 -49 68 -22 169 -71
210 -102 20 -15 19 -16 -18 -49 -83 -72 -253 -138 -466 -179 -149 -29 -161
-33 -161 -52 0 -27 51 -36 165 -31 177 9 347 62 501 157 136 84 106 86 235
-17 282 -224 291 -228 439 -227 126 1 302 27 338 50 17 12 20 19 13 33 -12 22
-46 36 -126 52 -161 31 -403 114 -583 200 l-122 58 49 65 c28 36 69 97 92 137
27 46 56 79 81 95 21 13 38 31 38 38 0 18 -51 61 -99 85 -61 31 -91 32 -141 5z"/>
</g>
</svg>
