<?xml version="1.0" standalone="no"?>
<!DOCTYPE svg PUBLIC "-//W3C//DTD SVG 20010904//EN"
 "http://www.w3.org/TR/2001/REC-SVG-20010904/DTD/svg10.dtd">
<svg version="1.0" xmlns="http://www.w3.org/2000/svg"
 width="340.000000pt" height="340.000000pt" viewBox="0 0 340.000000 340.000000"
 preserveAspectRatio="xMidYMid meet">
<metadata>
Created by potrace 1.15, written by Peter Selinger 2001-2017
</metadata>
<g transform="translate(0.000000,340.000000) scale(0.100000,-0.100000)"
fill="#000000" stroke="none">
<path d="M1972 2673 c-7 -11 -5 -31 6 -61 21 -62 11 -241 -18 -342 -40 -137
-162 -420 -222 -515 -34 -55 -51 -106 -38 -119 19 -19 59 13 111 88 l52 74 29
-21 c23 -17 44 -21 116 -23 l87 -2 17 -40 c36 -83 40 -265 8 -407 -17 -78 -43
-155 -51 -155 -5 0 -50 55 -101 122 -158 208 -234 271 -304 254 -37 -10 -26
-34 28 -65 54 -30 119 -107 243 -290 96 -141 95 -125 13 -228 -83 -106 -227
-201 -390 -258 -43 -15 -83 -34 -90 -43 -12 -14 -5 -15 63 -9 178 13 390 110
514 236 28 28 53 51 56 51 4 0 46 -60 95 -132 113 -169 195 -271 231 -287 83
-39 593 -13 593 30 0 15 -57 45 -118 64 -212 62 -368 128 -472 198 -82 55
-167 127 -214 183 l-47 54 29 78 c17 42 46 145 66 227 20 83 43 176 51 207 8
32 15 67 15 78 0 23 -57 67 -138 107 l-56 27 90 22 c49 12 187 45 306 73 120
29 221 57 224 62 11 18 -16 65 -47 83 -17 10 -60 20 -102 23 -71 5 -76 4 -259
-66 -104 -39 -231 -82 -284 -96 -94 -24 -174 -32 -174 -17 0 4 12 27 26 52 39
66 314 642 314 656 0 26 -54 75 -122 109 -77 38 -122 44 -136 18z"/>
<path d="M1073 2480 c-13 -5 -23 -15 -23 -23 0 -28 66 -111 151 -190 138 -127
192 -148 224 -86 32 60 12 162 -39 207 -67 59 -259 115 -313 92z"/>
<path d="M1335 1904 c-222 -66 -511 -139 -670 -170 -77 -14 -143 -31 -147 -37
-12 -19 11 -46 50 -58 58 -17 155 -6 292 33 69 20 144 39 167 43 l43 7 -6 -49
c-37 -300 -231 -610 -573 -918 -112 -101 -139 -131 -126 -143 13 -13 91 24
191 90 218 143 393 353 589 703 l21 36 59 -31 c87 -44 105 -69 105 -138 0
-117 -83 -373 -155 -479 -34 -51 -38 -53 -80 -53 -24 0 -70 9 -101 21 -73 28
-83 17 -44 -52 16 -30 50 -96 74 -146 36 -74 49 -93 66 -93 106 0 237 216 336
554 34 115 67 194 105 248 27 37 24 66 -11 98 -31 29 -155 80 -194 80 -34 0
-117 31 -122 45 -3 7 6 36 20 64 14 28 26 57 26 65 0 17 -58 69 -102 92 -42
22 -43 21 186 68 98 20 209 47 245 59 62 21 66 24 66 52 0 69 -97 72 -310 9z"/>
</g>
</svg>
