<?xml version="1.0" standalone="no"?>
<!DOCTYPE svg PUBLIC "-//W3C//DTD SVG 20010904//EN"
 "http://www.w3.org/TR/2001/REC-SVG-20010904/DTD/svg10.dtd">
<svg version="1.0" xmlns="http://www.w3.org/2000/svg"
 width="340.000000pt" height="340.000000pt" viewBox="0 0 340.000000 340.000000"
 preserveAspectRatio="xMidYMid meet">
<metadata>
Created by potrace 1.15, written by Peter Selinger 2001-2017
</metadata>
<g transform="translate(0.000000,340.000000) scale(0.100000,-0.100000)"
fill="#000000" stroke="none">
<path d="M1895 2697 c-4 -8 1 -36 9 -61 55 -161 -47 -552 -245 -948 -39 -77
-47 -108 -30 -108 17 0 141 143 188 217 35 55 51 72 62 67 9 -4 54 -10 100
-13 83 -6 85 -7 94 -36 20 -60 13 -330 -12 -469 -12 -70 -25 -135 -28 -143 -8
-20 -51 23 -111 107 -119 170 -117 168 -188 190 -70 21 -124 26 -124 11 0 -5
39 -51 86 -102 47 -52 129 -147 181 -212 114 -140 115 -125 -17 -258 -128
-128 -299 -232 -502 -304 -104 -37 -119 -55 -47 -55 77 0 219 32 326 72 131
49 242 119 346 218 l89 85 20 -25 c11 -14 53 -72 95 -130 103 -142 197 -253
241 -284 47 -32 175 -50 287 -42 109 9 263 35 303 52 62 25 42 39 -105 74
-288 67 -481 170 -673 356 l-104 102 27 78 c37 110 63 220 82 349 8 61 27 147
42 193 24 78 25 84 9 101 -15 16 -92 55 -150 75 -10 4 -17 8 -15 10 2 2 110
32 239 66 129 34 255 68 279 76 139 45 72 114 -111 114 -88 0 -95 -2 -199 -50
-158 -72 -433 -169 -445 -157 -2 2 8 30 22 63 15 32 48 115 74 184 26 69 75
188 108 265 58 134 60 141 45 165 -45 71 -105 109 -189 117 -43 5 -55 3 -59
-10z"/>
<path d="M1385 2281 c-16 -4 -86 -29 -155 -56 -69 -26 -208 -68 -309 -94 -101
-25 -186 -51 -188 -57 -2 -7 18 -20 44 -30 56 -22 232 -25 297 -6 22 6 42 9
45 7 14 -15 21 -146 27 -530 4 -236 4 -455 0 -485 l-7 -56 -117 -38 c-64 -21
-123 -41 -129 -43 -26 -10 -10 494 18 600 8 31 7 43 -8 68 -23 39 -93 85 -157
104 -49 15 -106 20 -106 10 0 -3 13 -31 29 -63 65 -128 91 -276 98 -553 l6
-206 -69 -18 c-38 -9 -114 -19 -169 -22 -55 -2 -110 -6 -122 -9 -32 -6 -29
-37 8 -73 35 -36 158 -111 181 -111 8 0 116 49 239 109 242 117 525 248 684
317 96 42 125 67 91 80 -20 8 -51 -1 -221 -60 -71 -25 -131 -43 -133 -42 -2 2
0 120 4 262 l7 259 102 1 c146 2 229 43 210 104 -13 43 -108 39 -231 -9 -43
-17 -80 -29 -82 -26 -6 5 27 222 38 251 13 33 13 90 0 114 -6 11 -36 31 -66
46 -31 14 -52 30 -47 34 4 4 69 19 143 34 138 29 199 49 250 86 38 27 40 63 4
86 -29 19 -158 29 -209 15z"/>
</g>
</svg>
