<?xml version="1.0" standalone="no"?>
<!DOCTYPE svg PUBLIC "-//W3C//DTD SVG 20010904//EN"
 "http://www.w3.org/TR/2001/REC-SVG-20010904/DTD/svg10.dtd">
<svg version="1.0" xmlns="http://www.w3.org/2000/svg"
 width="340.000000pt" height="340.000000pt" viewBox="0 0 340.000000 340.000000"
 preserveAspectRatio="xMidYMid meet">
<metadata>
Created by potrace 1.15, written by Peter Selinger 2001-2017
</metadata>
<g transform="translate(0.000000,340.000000) scale(0.100000,-0.100000)"
fill="#000000" stroke="none">
<path d="M1146 2762 c-3 -5 5 -34 19 -64 36 -78 45 -142 45 -308 l0 -146 -72
-17 c-40 -9 -105 -21 -144 -27 -116 -16 -131 -29 -66 -58 28 -12 66 -16 160
-16 l124 1 -7 -126 c-4 -69 -10 -129 -14 -132 -14 -14 -357 -51 -528 -56 -200
-7 -209 -10 -155 -60 40 -37 119 -74 160 -75 21 0 104 19 186 42 143 41 517
122 525 114 12 -11 -193 -244 -251 -286 -17 -12 -56 -23 -95 -28 -76 -10 -98
-24 -69 -46 11 -8 30 -14 43 -14 13 0 23 -4 23 -9 0 -13 -172 -174 -260 -244
-86 -69 -219 -159 -305 -207 -79 -44 -115 -71 -115 -85 0 -22 64 -3 178 51
204 97 398 239 569 417 59 61 91 87 115 92 18 4 86 25 152 47 65 21 121 37
123 34 9 -9 -44 -90 -100 -151 l-54 -60 -72 3 c-65 4 -71 2 -71 -16 0 -10 16
-36 35 -56 32 -34 68 -121 58 -138 -5 -9 -70 -39 -193 -88 -96 -38 -207 -70
-312 -91 -32 -6 -58 -15 -58 -22 0 -26 55 -88 96 -108 55 -26 68 -23 169 42
44 28 134 78 200 111 l120 59 8 -68 c16 -140 -20 -278 -86 -327 -25 -18 -41
-21 -133 -19 -57 1 -104 -1 -104 -5 0 -4 20 -20 45 -36 43 -27 63 -46 168
-161 l46 -50 48 50 c97 101 136 227 135 430 0 72 -5 154 -10 183 l-9 53 111
56 c129 65 169 91 160 105 -10 16 -80 1 -188 -42 -112 -46 -106 -44 -106 -26
0 7 -12 35 -26 61 -25 48 -25 49 -6 64 103 83 148 114 203 141 114 55 114 55
111 76 -6 29 -49 82 -91 110 l-38 25 -79 -32 c-117 -46 -186 -69 -182 -60 2 4
55 69 118 144 l114 136 51 5 c27 3 100 9 161 14 61 6 121 15 133 21 27 15 27
42 0 67 -24 22 -72 22 -184 -1 -43 -9 -79 -14 -82 -11 -6 6 64 90 190 225 48
52 87 100 87 106 0 43 -96 128 -139 123 -21 -3 -26 -11 -37 -64 -15 -73 -57
-160 -130 -269 -93 -138 -109 -153 -181 -160 l-63 -7 0 104 c0 142 0 142 69
156 75 16 178 67 186 93 4 11 1 26 -5 34 -16 19 -107 19 -177 1 -52 -14 -53
-14 -53 7 0 37 29 218 47 294 l17 73 -25 26 c-42 45 -105 76 -168 81 -35 3
-61 1 -65 -5z"/>
<path d="M2175 2720 c-3 -5 -3 -31 1 -58 8 -63 -10 -172 -48 -287 -38 -118
-183 -410 -303 -609 -52 -88 -95 -164 -95 -168 0 -26 43 4 132 91 l100 100 57
-15 c44 -11 70 -12 110 -4 30 5 57 10 61 10 4 0 13 -30 20 -66 19 -101 1 -281
-45 -438 l-17 -58 -22 21 c-11 12 -61 81 -111 154 -94 137 -138 176 -197 177
-39 0 -43 -17 -14 -53 122 -149 286 -386 286 -412 0 -21 -71 -102 -129 -148
-84 -66 -171 -115 -299 -167 -63 -25 -113 -50 -112 -56 2 -16 133 -6 231 20
144 36 241 87 323 169 38 37 72 64 76 60 3 -4 37 -48 75 -98 91 -118 199 -231
255 -263 37 -22 59 -27 135 -30 131 -6 401 34 425 63 16 19 -3 29 -119 65
-300 92 -526 208 -650 334 l-54 54 41 144 c23 79 53 190 67 248 15 58 36 132
47 165 l20 59 -22 18 c-13 10 -42 23 -66 29 -45 12 -60 29 -25 29 24 0 219 49
333 84 148 46 188 100 101 138 -73 32 -139 22 -313 -50 -80 -33 -188 -74 -241
-90 -91 -29 -199 -51 -199 -39 0 3 27 47 59 99 33 52 119 200 191 329 73 129
143 249 157 267 29 39 25 59 -24 113 -26 29 -51 44 -100 59 -73 23 -89 24 -98
10z"/>
</g>
</svg>
