<?xml version="1.0" standalone="no"?>
<!DOCTYPE svg PUBLIC "-//W3C//DTD SVG 20010904//EN"
 "http://www.w3.org/TR/2001/REC-SVG-20010904/DTD/svg10.dtd">
<svg version="1.0" xmlns="http://www.w3.org/2000/svg"
 width="340.000000pt" height="340.000000pt" viewBox="0 0 340.000000 340.000000"
 preserveAspectRatio="xMidYMid meet">
<metadata>
Created by potrace 1.15, written by Peter Selinger 2001-2017
</metadata>
<g transform="translate(0.000000,340.000000) scale(0.100000,-0.100000)"
fill="#000000" stroke="none">
<path d="M2077 2599 c6 -131 -5 -188 -82 -428 -63 -193 -130 -349 -193 -445
-83 -126 -71 -125 65 8 l83 80 30 -18 c34 -20 102 -25 171 -12 l46 8 7 -94 c5
-54 3 -137 -4 -198 -11 -103 -46 -283 -59 -307 -3 -7 -67 64 -155 172 -81 101
-153 186 -160 188 -6 3 -28 12 -49 21 -34 15 -38 15 -43 1 -4 -11 15 -38 58
-83 61 -63 298 -405 298 -430 0 -20 -140 -161 -225 -227 -44 -34 -128 -90
-188 -125 -59 -35 -106 -69 -104 -75 11 -30 200 26 358 107 93 47 201 134 227
183 6 11 12 18 14 15 2 -3 39 -59 83 -125 84 -127 193 -250 254 -287 31 -20
49 -23 131 -21 93 1 331 27 387 42 15 4 29 14 31 23 4 19 -25 31 -148 62 -239
60 -422 163 -601 338 -56 54 -70 74 -66 91 3 12 23 94 45 182 22 88 51 212 66
275 14 63 28 124 31 135 8 27 -44 104 -87 129 l-33 20 68 12 c38 7 130 33 205
59 75 25 155 51 176 58 51 16 66 39 43 65 -20 22 -80 42 -129 42 -38 0 -173
-45 -346 -114 -162 -65 -312 -104 -312 -81 0 3 15 26 34 52 43 61 135 244 193
387 55 134 87 201 119 243 13 17 24 35 24 40 0 5 -13 24 -29 44 -40 48 -120
89 -185 96 l-54 6 5 -114z"/>
<path d="M1408 2624 c-3 -3 3 -27 13 -55 13 -34 19 -75 19 -133 0 -82 -24
-255 -38 -268 -7 -6 -302 -78 -322 -78 -6 0 -10 58 -10 149 l0 150 -35 26
c-55 43 -195 74 -195 45 0 -6 18 -43 39 -83 37 -67 80 -190 94 -264 6 -30 4
-33 -26 -38 -97 -17 -319 -46 -392 -51 -126 -10 -137 -41 -30 -90 71 -34 119
-30 293 22 84 25 159 43 166 41 17 -7 36 -83 36 -139 -1 -102 -85 -235 -257
-404 -62 -61 -113 -117 -113 -123 0 -16 71 25 198 112 90 62 102 68 122 57 40
-21 167 -22 297 -2 68 10 127 16 132 13 33 -21 46 -156 31 -341 -19 -243 -63
-424 -117 -478 -26 -26 -40 -25 -141 5 -29 9 -55 13 -59 9 -4 -4 6 -32 22 -64
15 -31 38 -93 49 -137 l22 -80 39 1 c87 1 177 73 227 179 43 92 67 225 78 435
15 264 24 322 65 409 19 40 35 79 35 86 0 20 -59 65 -127 97 l-63 30 -97 -40
c-106 -43 -232 -77 -328 -88 l-60 -7 20 23 c11 12 53 49 93 82 77 63 107 106
97 139 -4 11 -30 35 -58 53 l-52 33 5 79 5 79 145 32 c79 17 147 30 149 27 3
-2 -8 -55 -22 -118 -30 -126 -33 -166 -14 -166 18 0 78 109 117 212 36 96 39
98 130 98 50 0 140 11 213 26 53 11 25 63 -50 90 -53 19 -95 17 -160 -6 -32
-11 -60 -20 -64 -20 -9 0 24 110 67 221 19 48 34 97 34 108 0 23 -60 78 -106
97 -33 14 -106 19 -116 8z"/>
<path d="M916 1314 c-91 -64 -233 -90 -336 -62 -70 20 -140 24 -140 8 0 -5 14
-31 30 -57 17 -26 39 -70 49 -99 24 -62 51 -201 51 -258 0 -62 19 -116 50
-148 16 -15 33 -28 38 -28 14 0 32 56 32 101 0 38 0 38 48 44 147 17 262 39
300 55 35 16 42 23 42 47 0 16 -7 38 -15 49 -13 20 -11 27 31 95 25 41 54 83
64 94 9 11 23 30 29 43 11 21 9 27 -26 59 -41 40 -146 94 -178 92 -11 -1 -42
-16 -69 -35z m51 -108 c10 -10 -19 -143 -44 -198 -21 -47 -33 -60 -67 -77 -44
-20 -162 -48 -170 -40 -2 2 -6 67 -8 143 l-3 139 54 14 c109 28 220 37 238 19z"/>
</g>
</svg>
