<?xml version="1.0" standalone="no"?>
<!DOCTYPE svg PUBLIC "-//W3C//DTD SVG 20010904//EN"
 "http://www.w3.org/TR/2001/REC-SVG-20010904/DTD/svg10.dtd">
<svg version="1.0" xmlns="http://www.w3.org/2000/svg"
 width="340.000000pt" height="340.000000pt" viewBox="0 0 340.000000 340.000000"
 preserveAspectRatio="xMidYMid meet">
<metadata>
Created by potrace 1.15, written by Peter Selinger 2001-2017
</metadata>
<g transform="translate(0.000000,340.000000) scale(0.100000,-0.100000)"
fill="#000000" stroke="none">
<path d="M1734 2875 c-3 -8 8 -35 24 -61 64 -96 85 -297 80 -785 -2 -308 -1
-338 15 -363 40 -61 72 -7 83 139 l7 84 31 -7 c17 -4 103 -7 191 -6 125 0 180
5 252 22 111 25 173 55 173 82 0 60 -129 68 -317 21 -105 -27 -285 -61 -320
-61 -10 0 -13 32 -13 125 l0 125 100 0 c56 0 136 7 178 16 102 21 217 65 217
84 0 41 -114 52 -216 20 -88 -27 -229 -60 -256 -60 -21 0 -23 5 -23 48 0 26 3
83 6 127 l7 80 156 0 c167 1 286 22 370 65 51 25 55 33 33 60 -32 39 -101 38
-239 -4 -65 -19 -154 -43 -198 -51 -44 -9 -90 -18 -102 -21 -29 -6 -29 9 -6
129 l16 87 -28 30 c-62 65 -206 114 -221 75z"/>
<path d="M1250 2667 c0 -12 16 -44 35 -71 36 -51 72 -132 62 -142 -6 -7 -246
-49 -412 -73 -107 -16 -120 -20 -123 -38 -3 -17 6 -24 45 -36 26 -8 59 -18 72
-20 18 -5 206 31 409 78 22 5 22 4 22 -95 0 -95 -1 -100 -22 -105 -13 -2 -112
-20 -222 -39 -109 -19 -203 -39 -209 -45 -16 -16 8 -37 66 -55 52 -16 55 -16
133 9 43 14 118 34 167 44 l87 19 0 -114 0 -114 -27 0 c-16 0 -118 -18 -228
-39 -110 -21 -234 -45 -275 -52 -69 -11 -110 -30 -110 -50 0 -13 51 -36 108
-48 62 -13 114 -1 366 85 87 30 161 53 163 51 2 -3 8 -33 14 -67 10 -66 24
-100 39 -100 18 0 49 52 59 101 7 29 11 174 11 349 0 165 5 345 11 402 l11
102 -26 23 c-31 26 -143 63 -192 63 -29 0 -34 -4 -34 -23z"/>
<path d="M1563 1680 c-30 -12 -29 -38 5 -77 105 -123 202 -139 202 -33 0 17
-7 44 -15 59 -25 49 -129 76 -192 51z"/>
<path d="M1970 1509 c-421 -85 -891 -159 -1012 -159 -72 0 -31 -49 71 -85 41
-14 53 -12 363 50 176 36 329 65 339 65 17 0 19 -9 19 -93 0 -60 -7 -121 -19
-170 -20 -78 -57 -161 -69 -155 -4 2 -56 36 -117 77 -190 127 -326 180 -398
152 -37 -14 -27 -27 34 -45 75 -23 216 -111 405 -253 l29 -22 -35 -36 c-126
-131 -388 -249 -691 -312 -71 -14 -138 -32 -147 -39 -15 -11 -13 -15 23 -30
35 -15 52 -15 139 -5 299 34 574 134 741 270 32 25 63 50 70 55 8 6 84 -44
236 -156 123 -91 257 -186 297 -213 l72 -48 104 6 c117 7 276 36 404 73 139
40 136 55 -12 73 -300 38 -653 159 -930 318 -45 25 -83 47 -85 49 -2 2 8 30
21 61 40 90 122 359 115 377 -4 9 -30 31 -58 49 l-52 32 75 7 c41 4 167 11
279 16 112 6 216 15 232 21 58 23 17 80 -71 99 -98 22 -135 19 -372 -29z"/>
</g>
</svg>
