<?xml version="1.0" standalone="no"?>
<!DOCTYPE svg PUBLIC "-//W3C//DTD SVG 20010904//EN"
 "http://www.w3.org/TR/2001/REC-SVG-20010904/DTD/svg10.dtd">
<svg version="1.0" xmlns="http://www.w3.org/2000/svg"
 width="340.000000pt" height="340.000000pt" viewBox="0 0 340.000000 340.000000"
 preserveAspectRatio="xMidYMid meet">
<metadata>
Created by potrace 1.15, written by Peter Selinger 2001-2017
</metadata>
<g transform="translate(0.000000,340.000000) scale(0.100000,-0.100000)"
fill="#000000" stroke="none">
<path d="M1524 2466 c-4 -10 5 -33 22 -57 40 -59 152 -178 198 -211 48 -35
100 -38 117 -7 55 103 15 185 -121 248 -82 38 -206 53 -216 27z"/>
<path d="M2495 2233 c-27 -5 -426 -134 -444 -142 -21 -10 -37 -39 -27 -48 4
-4 60 -10 124 -13 l117 -5 13 -40 c16 -47 28 -322 18 -417 l-7 -65 -102 -28
c-143 -39 -179 -54 -175 -74 6 -28 58 -43 170 -49 l108 -5 0 -56 c0 -176 -22
-546 -32 -552 -14 -9 -114 -24 -303 -45 -82 -9 -154 -20 -159 -25 -17 -16 23
-45 93 -69 l69 -24 138 27 c268 53 563 82 729 72 110 -7 165 2 165 26 0 6 -7
26 -16 45 -12 25 -32 42 -80 65 -59 29 -68 31 -131 24 -37 -4 -131 -20 -208
-35 -77 -16 -142 -27 -143 -25 -4 3 18 609 21 611 1 0 49 12 107 27 251 61
317 116 195 162 -54 21 -111 16 -221 -21 -41 -14 -78 -23 -82 -20 -3 4 0 77 8
164 21 234 16 273 -46 321 -31 24 -29 25 71 41 86 13 208 46 253 67 48 23 40
51 -23 85 -40 21 -63 26 -115 26 -36 0 -74 -2 -85 -5z"/>
<path d="M1125 2136 c-27 -7 -111 -37 -185 -68 -74 -31 -173 -68 -220 -83 -93
-29 -110 -39 -110 -65 0 -24 28 -30 147 -30 l101 0 12 -32 c8 -21 15 -110 18
-234 l4 -200 -142 -45 c-145 -45 -175 -64 -149 -95 15 -18 95 -18 204 0 44 8
82 12 84 10 2 -2 -1 -112 -7 -245 -10 -211 -14 -243 -29 -255 -32 -24 -227
-103 -311 -125 -72 -19 -82 -25 -82 -45 0 -31 57 -78 127 -104 l58 -22 40 20
c22 11 111 79 199 150 87 72 208 166 270 210 131 94 208 165 182 170 -9 2 -87
-35 -174 -82 -109 -59 -158 -81 -160 -71 -2 7 4 104 12 214 9 110 16 205 16
210 0 5 44 30 97 56 54 25 108 56 120 67 34 32 30 65 -11 85 -34 16 -37 15
-122 -15 l-86 -32 7 67 c3 38 13 96 21 131 8 35 14 78 14 95 -1 52 -33 111
-76 138 l-39 23 50 13 c204 54 315 107 300 144 -16 42 -104 65 -180 45z"/>
<path d="M1812 1919 c-41 -11 -146 -44 -235 -74 -89 -29 -196 -62 -237 -73
-107 -29 -141 -43 -137 -55 11 -35 188 -32 375 6 l113 23 14 -26 c35 -68 24
-211 -26 -346 l-20 -54 -124 116 c-124 118 -169 153 -181 142 -11 -12 8 -49
55 -106 26 -31 83 -108 126 -171 l78 -115 -19 -35 c-77 -143 -210 -307 -374
-461 -66 -62 -120 -116 -120 -121 0 -14 24 -11 72 10 113 48 362 275 455 414
l52 77 57 -77 c69 -94 162 -193 180 -193 26 0 46 48 45 106 0 75 -32 138 -116
237 -35 41 -68 78 -73 81 -6 3 17 82 50 178 92 265 89 251 69 281 -19 29 -52
57 -96 80 -21 11 -26 17 -15 20 8 3 60 20 115 37 128 41 177 66 173 88 -7 35
-143 42 -256 11z"/>
</g>
</svg>
