<?xml version="1.0" standalone="no"?>
<!DOCTYPE svg PUBLIC "-//W3C//DTD SVG 20010904//EN"
 "http://www.w3.org/TR/2001/REC-SVG-20010904/DTD/svg10.dtd">
<svg version="1.0" xmlns="http://www.w3.org/2000/svg"
 width="340.000000pt" height="340.000000pt" viewBox="0 0 340.000000 340.000000"
 preserveAspectRatio="xMidYMid meet">
<metadata>
Created by potrace 1.15, written by Peter Selinger 2001-2017
</metadata>
<g transform="translate(0.000000,340.000000) scale(0.100000,-0.100000)"
fill="#000000" stroke="none">
<path d="M1333 2984 c-20 -9 -16 -39 17 -133 41 -119 66 -360 40 -376 -12 -7
-290 -85 -304 -85 -5 0 -6 41 -3 99 l7 99 -37 32 c-50 44 -115 72 -161 68 -48
-4 -51 -22 -13 -84 30 -48 76 -198 67 -220 -2 -6 -33 -17 -68 -23 -167 -32
-198 -42 -198 -61 0 -26 50 -35 178 -33 l103 1 -7 -376 c-4 -208 -8 -378 -9
-380 -4 -5 -357 -51 -480 -62 -66 -6 -124 -15 -128 -19 -30 -30 68 -111 134
-111 20 0 81 9 134 20 54 11 100 19 102 17 7 -7 33 -214 33 -266 0 -67 -28
-130 -77 -170 -34 -28 -35 -30 -23 -68 16 -52 57 -113 75 -113 8 0 44 20 79
44 128 88 289 118 716 135 118 5 204 12 218 20 66 35 -35 121 -143 121 -49 0
-381 -47 -600 -85 -77 -13 -142 -22 -144 -19 -9 9 1 162 15 229 21 103 20 109
-33 154 -26 22 -45 42 -43 44 3 3 228 42 500 87 272 45 510 88 529 96 58 24
62 53 10 79 -40 21 -64 19 -201 -15 -66 -17 -122 -29 -124 -28 -4 4 26 739 31
754 2 7 32 21 67 32 105 34 138 51 150 77 24 53 -48 85 -138 61 -32 -8 -60
-13 -63 -10 -5 5 10 144 30 276 10 66 10 80 -3 101 -33 49 -191 111 -235 91z
m60 -776 c-3 -73 -8 -245 -11 -382 l-7 -250 -155 -27 c-85 -15 -157 -24 -160
-20 -3 3 -4 54 -2 113 l3 106 87 7 c94 6 145 25 169 62 32 48 -37 70 -125 39
-22 -8 -61 -18 -86 -21 l-46 -7 0 91 c0 64 4 93 13 96 6 2 56 8 110 13 118 11
141 25 117 70 -23 41 -46 40 -202 -4 -16 -5 -18 4 -18 90 0 91 1 96 23 101
100 23 247 53 268 54 l26 1 -4 -132z"/>
<path d="M2233 2910 c-13 -5 -23 -12 -23 -15 0 -3 13 -37 30 -76 53 -126 58
-174 70 -709 7 -272 12 -506 13 -520 l2 -24 -302 -51 c-324 -54 -362 -66 -310
-100 14 -9 61 -23 104 -32 l78 -15 213 57 c118 31 215 55 217 53 2 -2 -1 -122
-6 -268 -20 -578 -12 -820 31 -873 l19 -22 20 46 c52 117 71 327 71 810 l0
327 23 5 c22 6 370 26 507 30 63 2 75 5 78 20 4 22 -54 80 -111 109 -52 26
-106 22 -316 -26 -85 -20 -161 -36 -169 -36 -12 0 -13 72 -9 483 5 502 10 560
53 675 l17 44 -29 24 c-76 63 -217 107 -271 84z"/>
<path d="M1918 2418 c-44 -15 -34 -42 35 -99 76 -64 183 -117 205 -102 39 24
34 130 -7 167 -45 41 -167 59 -233 34z"/>
<path d="M1836 1954 c-9 -8 -16 -19 -16 -23 0 -24 156 -148 222 -176 75 -31
112 38 68 125 -24 46 -54 64 -135 79 -81 15 -121 14 -139 -5z"/>
<path d="M1375 1390 c-10 -17 49 -102 114 -163 89 -85 143 -89 149 -9 3 33 -2
46 -30 78 -56 63 -213 127 -233 94z"/>
<path d="M1060 1363 c0 -68 -21 -105 -111 -198 -75 -78 -103 -115 -85 -115 57
0 288 161 342 239 15 21 15 24 -7 47 -19 20 -101 54 -131 54 -4 0 -8 -12 -8
-27z"/>
</g>
</svg>
