<?xml version="1.0" standalone="no"?>
<!DOCTYPE svg PUBLIC "-//W3C//DTD SVG 20010904//EN"
 "http://www.w3.org/TR/2001/REC-SVG-20010904/DTD/svg10.dtd">
<svg version="1.0" xmlns="http://www.w3.org/2000/svg"
 width="340.000000pt" height="340.000000pt" viewBox="0 0 340.000000 340.000000"
 preserveAspectRatio="xMidYMid meet">
<metadata>
Created by potrace 1.15, written by Peter Selinger 2001-2017
</metadata>
<g transform="translate(0.000000,340.000000) scale(0.100000,-0.100000)"
fill="#000000" stroke="none">
<path d="M1927 2763 c-4 -3 -7 -37 -7 -74 0 -116 -57 -230 -231 -462 -49 -66
-88 -122 -85 -124 3 -3 36 12 73 32 45 25 103 73 170 140 l103 102 57 -19 c47
-16 72 -19 133 -13 141 12 390 71 503 118 85 36 24 87 -106 90 -61 1 -97 -7
-237 -51 -182 -57 -275 -82 -302 -82 -16 0 -12 10 22 60 23 34 61 85 86 115
82 101 51 139 -137 170 -19 3 -38 2 -42 -2z"/>
<path d="M1053 2554 c-43 -10 -46 -29 -12 -69 32 -36 199 -167 262 -206 38
-23 90 -25 111 -4 19 20 30 77 22 117 -12 58 -44 96 -112 129 -56 28 -76 32
-157 35 -50 1 -102 0 -114 -2z"/>
<path d="M2273 2249 c-20 -20 -16 -38 17 -75 32 -37 49 -98 33 -123 -12 -19
-52 -31 -240 -75 -160 -37 -160 -37 -127 42 14 35 14 38 -6 54 -24 20 -111 48
-146 48 -30 0 -41 -35 -19 -60 19 -21 44 -85 45 -115 0 -18 -11 -23 -82 -38
-46 -9 -92 -17 -103 -17 -11 0 -27 -5 -35 -10 -12 -7 -11 -13 10 -34 20 -22
32 -26 79 -26 31 0 73 4 94 9 l37 9 0 -358 0 -358 -62 -11 c-35 -5 -120 -18
-190 -27 -71 -9 -136 -23 -145 -30 -17 -12 -17 -14 -2 -29 9 -9 42 -24 75 -34
58 -17 60 -17 134 6 296 91 643 140 1075 150 132 3 250 10 263 14 33 12 28 46
-10 69 -48 29 -169 53 -226 45 -26 -3 -105 -20 -176 -36 -70 -17 -130 -28
-132 -27 -2 2 1 98 6 214 5 115 10 286 10 381 l0 171 48 11 c26 5 73 16 105
22 75 16 92 28 75 52 -21 28 -81 37 -151 23 -34 -8 -65 -11 -69 -9 -4 2 2 27
13 56 l21 52 -26 22 c-44 37 -171 65 -193 42z m60 -361 c-2 -35 -8 -204 -12
-376 -6 -231 -11 -316 -20 -322 -7 -4 -83 -17 -169 -29 -86 -12 -165 -24 -174
-26 -16 -3 -18 8 -18 111 l0 114 48 0 c67 1 193 25 230 44 22 12 32 24 32 40
0 45 -57 48 -167 7 -43 -16 -93 -32 -110 -36 l-33 -7 0 105 0 104 83 6 c142
10 228 51 201 94 -18 29 -67 26 -175 -11 -56 -20 -104 -36 -106 -36 -2 0 -3
45 -3 100 l0 100 27 6 c102 26 359 81 364 78 4 -2 5 -32 2 -66z"/>
<path d="M1350 2044 c-74 -34 -259 -96 -384 -129 -116 -31 -218 -49 -378 -70
-39 -5 -48 -10 -48 -26 0 -24 81 -85 133 -99 32 -9 42 -8 80 14 32 19 294 116
313 116 11 0 1 -107 -16 -176 -54 -212 -222 -436 -522 -701 -60 -52 -108 -99
-108 -105 0 -28 176 46 274 116 78 55 224 208 298 312 52 72 183 284 191 308
5 16 81 -27 95 -54 39 -75 -45 -448 -139 -615 -61 -110 -108 -127 -233 -85
-36 12 -77 20 -91 18 -26 -3 -26 -4 28 -66 46 -53 58 -76 76 -139 11 -42 25
-81 30 -86 28 -28 135 41 214 138 114 140 163 255 248 579 71 270 69 246 15
304 -50 53 -96 72 -175 72 -23 0 -41 2 -41 5 0 3 12 24 26 46 14 23 23 47 20
55 -3 8 -26 28 -51 46 -25 18 -42 35 -38 39 5 5 91 28 193 53 179 44 210 58
210 91 0 7 -9 20 -21 31 -29 26 -150 31 -199 8z"/>
<path d="M1822 967 c-6 -6 -14 -26 -18 -42 -21 -88 -197 -283 -391 -437 -57
-45 -103 -85 -103 -89 0 -17 209 69 311 128 84 48 145 97 268 215 l112 107
-15 29 c-16 31 -111 102 -137 102 -9 0 -21 -6 -27 -13z"/>
<path d="M2280 932 c0 -34 41 -103 146 -249 96 -133 160 -210 185 -224 44 -23
80 15 94 98 10 63 -17 145 -66 198 -74 80 -279 205 -336 205 -18 0 -23 -6 -23
-28z"/>
</g>
</svg>
