<?xml version="1.0" standalone="no"?>
<!DOCTYPE svg PUBLIC "-//W3C//DTD SVG 20010904//EN"
 "http://www.w3.org/TR/2001/REC-SVG-20010904/DTD/svg10.dtd">
<svg version="1.0" xmlns="http://www.w3.org/2000/svg"
 width="340.000000pt" height="340.000000pt" viewBox="0 0 340.000000 340.000000"
 preserveAspectRatio="xMidYMid meet">
<metadata>
Created by potrace 1.15, written by Peter Selinger 2001-2017
</metadata>
<g transform="translate(0.000000,340.000000) scale(0.100000,-0.100000)"
fill="#000000" stroke="none">
<path d="M2170 2464 c-36 -7 -139 -36 -230 -64 -91 -27 -207 -58 -259 -69 -93
-20 -114 -31 -108 -61 5 -33 48 -41 184 -37 l133 4 11 -41 c17 -62 6 -282 -21
-406 -12 -58 -24 -107 -26 -109 -2 -2 -69 -21 -150 -42 -125 -33 -145 -36
-141 -21 4 9 22 61 42 115 19 55 35 110 35 124 0 38 -71 105 -107 101 -26 -3
-28 -6 -25 -43 9 -140 5 -183 -22 -239 -15 -31 -38 -64 -52 -75 -19 -15 -24
-28 -24 -65 0 -45 24 -86 50 -86 6 0 52 20 103 44 91 44 263 103 273 94 8 -8
-44 -145 -102 -268 -134 -283 -330 -507 -598 -686 -82 -54 -151 -105 -154
-113 -7 -21 52 -7 166 40 280 114 481 307 645 620 57 108 133 292 162 392 9
31 22 57 28 57 7 0 51 5 97 11 47 6 176 14 287 17 220 8 234 11 217 59 -12 35
-92 69 -186 79 -57 6 -80 2 -169 -25 -57 -17 -132 -37 -166 -45 -59 -13 -63
-13 -63 3 0 10 23 101 51 202 69 246 70 253 28 279 -19 11 -53 26 -76 32 -24
7 -43 15 -43 19 0 3 39 14 88 24 131 27 334 84 359 101 31 20 29 49 -4 63 -24
9 -148 32 -163 30 -3 0 -34 -7 -70 -15z"/>
<path d="M1135 2377 c-35 -25 -197 -85 -288 -108 -85 -21 -90 -21 -140 -5 -29
9 -71 20 -95 23 -39 5 -42 4 -42 -18 0 -13 10 -40 21 -59 54 -88 76 -213 90
-510 21 -476 -22 -748 -131 -829 -32 -23 -32 -24 -28 -91 5 -71 36 -143 71
-164 15 -9 23 -4 54 34 114 143 487 468 503 440 31 -55 90 -127 113 -140 27
-14 29 -14 47 8 46 56 33 153 -30 225 -64 72 -223 143 -244 108 -6 -9 25 -75
57 -123 l18 -26 -166 -112 c-92 -61 -169 -109 -172 -107 -2 3 0 82 6 176 6 93
11 207 11 251 0 95 -5 91 155 120 154 28 172 28 191 2 40 -58 80 -10 113 136
85 375 109 459 167 574 43 86 40 108 -21 144 -84 49 -223 76 -260 51z m69
-160 c18 -24 21 -42 20 -115 -1 -107 -37 -319 -73 -432 -32 -101 -32 -101
-199 -136 -64 -13 -127 -26 -139 -29 l-23 -5 0 148 0 149 69 7 c84 7 207 48
235 76 l21 21 -25 21 c-34 28 -96 20 -206 -28 -47 -20 -87 -34 -89 -32 -2 2
-5 73 -7 158 l-3 154 65 18 c120 34 245 57 289 55 35 -2 48 -8 65 -30z"/>
<path d="M2014 1508 c-5 -7 -9 -179 -9 -383 l0 -370 28 -61 c33 -71 85 -126
141 -149 90 -38 389 -38 535 0 121 31 230 95 252 147 11 28 10 35 -15 79 -38
68 -63 146 -82 252 -17 100 -29 133 -38 107 -3 -8 -16 -69 -29 -135 -51 -256
-118 -319 -347 -332 -163 -9 -264 27 -311 111 -19 33 -24 60 -27 136 -5 117
21 375 43 427 22 52 14 73 -51 132 -57 52 -75 60 -90 39z"/>
</g>
</svg>
