<?xml version="1.0" standalone="no"?>
<!DOCTYPE svg PUBLIC "-//W3C//DTD SVG 20010904//EN"
 "http://www.w3.org/TR/2001/REC-SVG-20010904/DTD/svg10.dtd">
<svg version="1.0" xmlns="http://www.w3.org/2000/svg"
 width="340.000000pt" height="340.000000pt" viewBox="0 0 340.000000 340.000000"
 preserveAspectRatio="xMidYMid meet">
<metadata>
Created by potrace 1.15, written by Peter Selinger 2001-2017
</metadata>
<g transform="translate(0.000000,340.000000) scale(0.100000,-0.100000)"
fill="#000000" stroke="none">
<path d="M1908 2828 c-3 -7 2 -38 10 -68 27 -104 -6 -206 -169 -532 -95 -190
-172 -316 -257 -421 -35 -44 -61 -82 -58 -84 19 -19 173 120 287 258 82 99 82
99 118 92 56 -12 170 -5 283 18 57 11 158 23 225 26 l121 6 15 -30 c31 -60 42
-154 41 -378 -1 -249 -14 -421 -49 -610 -42 -226 -96 -363 -156 -399 -37 -22
-83 -13 -192 39 -94 44 -117 50 -117 32 0 -13 18 -38 96 -134 22 -28 62 -92
88 -142 26 -50 55 -95 65 -101 49 -26 203 102 265 219 70 134 81 213 141 1016
22 299 40 387 90 455 14 19 25 37 25 41 0 32 -177 139 -258 155 -20 4 -78 -10
-188 -46 -232 -75 -390 -107 -460 -94 l-33 6 38 57 c21 31 53 83 71 116 19 33
78 124 132 202 l99 142 -14 34 c-19 44 -65 81 -129 105 -76 28 -125 35 -130
20z"/>
<path d="M1160 2391 c-100 -45 -207 -74 -270 -73 -25 1 -76 10 -115 22 -64 18
-135 27 -135 15 0 -2 15 -33 34 -67 61 -111 71 -189 71 -543 0 -170 -6 -402
-14 -515 -12 -183 -11 -213 3 -279 16 -75 42 -131 64 -139 17 -5 40 54 49 129
l8 64 170 17 c93 9 171 15 172 14 1 -1 14 -42 28 -92 30 -103 48 -134 75 -134
37 0 64 86 80 255 5 55 10 273 10 485 0 491 13 613 75 704 28 41 25 53 -22 98
-36 35 -130 78 -168 78 -16 0 -68 -18 -115 -39z m74 -136 c6 -18 10 -214 10
-500 1 -435 -4 -584 -22 -612 -5 -8 -297 -53 -345 -53 -9 0 -9 315 0 443 l6
97 56 0 c66 1 200 23 229 39 26 14 37 48 22 66 -6 7 -32 18 -58 25 -40 9 -57
8 -112 -9 -36 -11 -82 -24 -102 -29 l-38 -10 0 263 0 263 49 7 c26 3 79 15
117 25 38 10 93 18 123 17 51 -2 55 -4 65 -32z"/>
<path d="M1740 1774 c0 -3 16 -37 37 -76 38 -73 104 -153 155 -190 l31 -22 25
29 c21 25 24 36 20 92 -3 53 -9 68 -33 93 -45 47 -120 80 -182 80 -29 0 -53
-3 -53 -6z"/>
<path d="M2153 1402 c-243 -161 -413 -256 -570 -317 -40 -16 -73 -31 -73 -35
0 -12 75 -78 106 -94 18 -8 50 -18 73 -22 41 -7 41 -6 141 89 96 93 366 332
463 411 49 40 60 66 28 66 -10 0 -86 -44 -168 -98z"/>
</g>
</svg>
