<?xml version="1.0" standalone="no"?>
<!DOCTYPE svg PUBLIC "-//W3C//DTD SVG 20010904//EN"
 "http://www.w3.org/TR/2001/REC-SVG-20010904/DTD/svg10.dtd">
<svg version="1.0" xmlns="http://www.w3.org/2000/svg"
 width="340.000000pt" height="340.000000pt" viewBox="0 0 340.000000 340.000000"
 preserveAspectRatio="xMidYMid meet">
<metadata>
Created by potrace 1.15, written by Peter Selinger 2001-2017
</metadata>
<g transform="translate(0.000000,340.000000) scale(0.100000,-0.100000)"
fill="#000000" stroke="none">
<path d="M1892 2929 c3 -13 13 -51 22 -84 22 -81 30 -257 18 -383 -6 -57 -12
-106 -14 -107 -4 -4 -419 -75 -438 -75 -12 0 -9 137 6 265 l6 50 -54 32 c-75
45 -118 62 -182 69 -73 9 -79 -6 -32 -78 19 -29 44 -81 55 -116 21 -62 57
-249 50 -257 -3 -2 -64 -10 -138 -18 -136 -15 -170 -28 -158 -61 9 -24 74 -36
193 -36 l112 0 6 -52 c3 -29 8 -105 12 -168 l6 -115 -163 -23 c-181 -26 -680
-92 -691 -92 -5 0 -8 -5 -8 -10 0 -16 84 -65 145 -84 55 -18 56 -18 222 13
409 75 832 137 1143 167 197 19 548 24 747 10 117 -8 135 -7 158 8 72 47 -61
151 -231 181 -97 17 -166 10 -440 -44 -297 -58 -276 -56 -269 -29 2 13 16 88
30 168 15 80 28 152 31 161 3 12 23 18 76 23 139 13 300 60 312 92 17 44 -39
69 -149 68 -44 -1 -106 -7 -138 -13 -32 -7 -60 -11 -63 -9 -4 5 58 243 80 305
8 23 17 61 21 85 6 42 5 46 -36 87 -58 58 -111 83 -188 89 -63 5 -64 5 -59
-19z m14 -726 c-2 -10 -17 -88 -32 -173 -14 -85 -30 -158 -34 -163 -6 -6 -307
-47 -352 -47 -16 0 -18 14 -18 164 l0 164 93 16 c50 9 137 25 192 35 134 25
158 26 151 4z"/>
<path d="M1915 1549 c-97 -34 -235 -62 -410 -84 -114 -15 -187 -17 -350 -11
-36 1 -40 -2 -43 -25 -2 -14 11 -60 28 -102 56 -141 71 -315 49 -582 -11 -124
-10 -147 4 -197 19 -64 69 -117 92 -98 16 13 35 87 35 137 0 21 4 43 8 48 4 6
56 10 117 10 61 1 175 5 255 9 103 6 152 6 167 -2 15 -9 27 -37 47 -119 29
-117 59 -188 82 -197 38 -15 103 34 139 105 55 107 60 149 61 494 1 338 4 360
49 426 25 35 26 39 12 66 -29 55 -105 103 -218 136 -41 12 -50 11 -124 -14z
m57 -131 c22 -18 35 -73 48 -203 13 -141 13 -293 -1 -392 -10 -78 -51 -188
-67 -181 -5 1 -29 28 -53 58 -25 30 -59 63 -78 73 l-32 20 -162 -32 c-89 -17
-182 -33 -207 -37 -25 -3 -55 -7 -67 -10 l-23 -4 0 158 0 158 133 -4 c106 -3
151 0 231 17 118 25 160 46 164 84 7 56 -66 57 -355 6 -89 -16 -169 -29 -177
-29 -12 0 -15 23 -18 123 -2 67 -2 123 -2 125 2 3 373 63 459 75 72 10 192 6
207 -5z"/>
</g>
</svg>
