<?xml version="1.0" standalone="no"?>
<!DOCTYPE svg PUBLIC "-//W3C//DTD SVG 20010904//EN"
 "http://www.w3.org/TR/2001/REC-SVG-20010904/DTD/svg10.dtd">
<svg version="1.0" xmlns="http://www.w3.org/2000/svg"
 width="340.000000pt" height="340.000000pt" viewBox="0 0 340.000000 340.000000"
 preserveAspectRatio="xMidYMid meet">
<metadata>
Created by potrace 1.15, written by Peter Selinger 2001-2017
</metadata>
<g transform="translate(0.000000,340.000000) scale(0.100000,-0.100000)"
fill="#000000" stroke="none">
<path d="M2085 2719 c-135 -43 -443 -96 -745 -129 -88 -9 -115 -9 -170 4 -36
9 -93 16 -127 16 -76 0 -79 -10 -31 -86 60 -94 98 -190 138 -347 22 -87 40
-170 40 -186 0 -34 32 -129 55 -165 21 -31 51 -33 80 -6 18 17 63 24 328 52
l306 32 23 -21 c31 -29 74 -44 104 -37 13 3 39 24 58 45 34 40 41 53 164 309
70 147 116 208 201 271 l34 25 -17 32 c-37 71 -120 134 -241 183 -84 33 -116
35 -200 8z m42 -130 c15 -5 31 -16 35 -22 16 -25 7 -91 -38 -269 -49 -194 -99
-332 -118 -324 -84 36 -132 33 -417 -27 -92 -20 -186 -37 -209 -39 l-43 -3
-22 133 c-15 91 -18 135 -11 137 6 2 64 6 129 9 127 7 365 38 461 60 92 22
109 54 49 93 -45 30 -136 23 -308 -25 -129 -36 -300 -72 -340 -72 -8 0 -20 47
-34 131 -12 73 -20 133 -19 134 10 9 507 67 718 84 58 4 113 9 122 10 9 0 29
-4 45 -10z"/>
<path d="M1850 1676 c-358 -61 -458 -77 -547 -85 -112 -10 -123 -14 -123 -40
0 -25 42 -41 140 -54 157 -19 703 42 816 93 54 23 55 44 4 74 -43 25 -179 31
-290 12z"/>
<path d="M2436 1395 c-44 -9 -102 -22 -130 -30 -113 -32 -596 -82 -1266 -130
-496 -36 -523 -38 -527 -52 -6 -17 42 -60 102 -91 66 -34 136 -33 320 2 141
27 455 76 488 76 16 0 16 -2 2 -37 -33 -81 -143 -248 -201 -307 -63 -64 -141
-111 -231 -140 -62 -21 -70 -30 -89 -98 -17 -64 -18 -122 -3 -150 15 -27 41
-21 194 47 169 74 433 149 807 229 91 20 176 36 187 36 14 0 34 -22 67 -72 26
-40 78 -115 116 -166 77 -102 95 -111 145 -68 26 23 28 30 27 93 -2 101 -41
201 -102 257 -144 133 -267 221 -343 243 -83 24 -88 11 -29 -87 28 -47 60 -95
72 -107 16 -18 18 -23 7 -27 -72 -24 -762 -123 -790 -114 -15 5 212 224 294
282 54 39 67 53 67 75 0 34 -22 65 -72 101 -38 28 -39 29 -16 34 52 11 597 26
954 26 354 0 383 1 404 18 22 18 22 19 6 50 -17 33 -74 71 -146 97 -64 23
-218 28 -314 10z"/>
</g>
</svg>
