<?xml version="1.0" standalone="no"?>
<!DOCTYPE svg PUBLIC "-//W3C//DTD SVG 20010904//EN"
 "http://www.w3.org/TR/2001/REC-SVG-20010904/DTD/svg10.dtd">
<svg version="1.0" xmlns="http://www.w3.org/2000/svg"
 width="340.000000pt" height="340.000000pt" viewBox="0 0 340.000000 340.000000"
 preserveAspectRatio="xMidYMid meet">
<metadata>
Created by potrace 1.15, written by Peter Selinger 2001-2017
</metadata>
<g transform="translate(0.000000,340.000000) scale(0.100000,-0.100000)"
fill="#000000" stroke="none">
<path d="M2135 2699 c-67 -22 -311 -69 -470 -93 -250 -36 -366 -46 -500 -44
-143 3 -152 -5 -85 -78 69 -75 127 -222 209 -533 17 -62 37 -124 46 -137 22
-35 69 -33 92 4 9 15 18 29 19 30 6 9 353 63 470 74 l130 12 36 -27 c73 -56
111 -25 182 146 80 194 172 334 252 384 24 15 44 32 44 36 0 4 -9 25 -19 46
-39 76 -135 138 -269 172 -83 21 -93 22 -137 8z m73 -135 c27 -18 28 -54 7
-158 -20 -95 -69 -275 -97 -349 l-21 -59 -36 7 c-81 17 -168 8 -371 -38 -113
-25 -218 -47 -235 -49 l-29 -3 -33 120 c-18 66 -33 123 -33 126 0 4 51 10 113
14 162 10 350 40 442 69 110 35 115 40 88 67 -18 18 -37 23 -100 27 -65 4
-101 -1 -208 -28 -233 -56 -349 -80 -356 -73 -3 5 -18 57 -31 116 -18 75 -22
110 -14 112 6 2 108 20 226 39 448 74 644 91 688 60z"/>
<path d="M1610 1836 c0 -7 9 -34 20 -59 24 -53 49 -252 35 -266 -20 -18 -393
-91 -467 -91 -17 0 -5 16 55 79 42 43 77 86 77 94 0 9 -11 25 -25 36 -29 22
-197 65 -224 56 -15 -4 -19 -19 -23 -78 -8 -112 -56 -193 -237 -391 -50 -55
-91 -103 -91 -108 0 -44 168 63 343 219 l58 52 41 -15 c57 -20 198 -18 358 6
74 11 136 20 138 20 1 0 2 -67 2 -149 l0 -149 -72 -17 c-40 -9 -135 -25 -212
-36 -77 -11 -142 -22 -145 -25 -10 -9 15 -37 49 -56 42 -22 92 -22 225 -3 162
23 145 39 145 -135 0 -112 -3 -152 -12 -155 -31 -10 -498 -56 -763 -76 -320
-23 -345 -29 -294 -73 15 -13 73 -38 130 -56 l102 -33 171 41 c285 69 602 117
850 128 148 7 414 -8 645 -36 211 -25 330 -33 366 -22 26 8 30 13 28 41 -3 67
-78 118 -232 157 -114 30 -115 30 -514 -27 -153 -21 -291 -39 -307 -39 l-30 0
0 113 c0 61 3 135 6 163 l6 51 132 22 c72 12 173 32 224 43 89 21 93 23 90 47
-7 57 -128 75 -283 41 -55 -12 -115 -24 -134 -27 l-34 -6 6 143 c4 96 10 146
18 151 7 4 55 15 108 24 261 46 421 92 421 121 0 31 -102 64 -198 64 -52 0
-182 -28 -279 -58 l-63 -20 0 29 c0 16 7 65 17 111 l16 81 -31 28 c-52 47
-212 81 -212 45z"/>
</g>
</svg>
