<?xml version="1.0" standalone="no"?>
<!DOCTYPE svg PUBLIC "-//W3C//DTD SVG 20010904//EN"
 "http://www.w3.org/TR/2001/REC-SVG-20010904/DTD/svg10.dtd">
<svg version="1.0" xmlns="http://www.w3.org/2000/svg"
 width="340.000000pt" height="340.000000pt" viewBox="0 0 340.000000 340.000000"
 preserveAspectRatio="xMidYMid meet">
<metadata>
Created by potrace 1.15, written by Peter Selinger 2001-2017
</metadata>
<g transform="translate(0.000000,340.000000) scale(0.100000,-0.100000)"
fill="#000000" stroke="none">
<path d="M2305 2599 c-27 -5 -176 -41 -330 -79 -154 -38 -313 -74 -353 -81
-81 -12 -89 -26 -26 -47 27 -9 81 -12 177 -10 l137 3 0 -55 c0 -77 -63 -330
-91 -366 -5 -6 -62 -18 -126 -28 -187 -27 -199 -34 -123 -73 49 -26 94 -29
169 -11 28 6 53 9 55 7 7 -7 -98 -367 -110 -379 -14 -14 -425 -31 -438 -19 -6
5 -6 124 1 311 12 319 22 391 73 485 13 25 16 41 10 53 -16 30 -82 82 -134
106 -85 40 -105 40 -182 1 -38 -19 -100 -44 -138 -56 l-69 -21 -54 20 c-30 11
-72 20 -93 20 -49 0 -51 -13 -15 -93 55 -120 60 -168 59 -582 0 -362 -10 -532
-35 -667 -17 -86 16 -293 48 -305 33 -13 65 44 88 157 l11 55 109 5 109 5 54
-115 c29 -63 58 -120 63 -127 17 -20 37 -3 53 45 26 79 35 168 41 402 3 123 8
226 10 228 2 2 17 -4 34 -12 42 -22 92 -20 334 14 486 68 715 85 1056 77 158
-4 262 -2 273 4 11 6 18 21 18 37 0 61 -108 122 -225 129 -58 4 -96 -2 -227
-36 -86 -23 -168 -41 -182 -41 l-26 0 26 73 c37 102 85 193 138 260 44 56 45
60 30 82 -23 35 -100 83 -161 101 -51 15 -52 15 -112 -15 -73 -37 -281 -94
-281 -77 0 10 100 236 128 289 30 56 32 87 8 126 -8 12 18 21 62 21 86 0 310
48 380 82 51 24 57 58 16 85 -31 20 -163 27 -239 12z m-1214 -298 l24 -19 3
-424 c2 -373 -9 -832 -21 -844 -2 -2 -26 8 -52 23 -47 26 -50 26 -117 15 -38
-7 -80 -12 -93 -12 l-25 0 0 279 0 279 68 7 c93 9 193 35 199 52 3 7 -2 24
-11 37 -23 36 -79 42 -154 17 -112 -38 -102 -62 -102 258 l0 279 103 32 c56
17 107 33 112 35 24 8 44 4 66 -14z m1156 -449 c-6 -72 -54 -302 -66 -314 -8
-9 -371 -51 -378 -44 -3 2 24 92 59 198 l65 193 44 7 c24 4 67 11 94 16 28 6
81 10 119 11 l69 1 -6 -68z"/>
<path d="M2235 1189 c-79 -26 -273 -65 -405 -81 -85 -11 -116 -11 -165 -1 -83
17 -165 17 -165 -1 0 -7 14 -43 30 -80 17 -36 37 -97 46 -134 80 -353 98 -417
126 -440 32 -26 68 17 68 83 0 39 -42 32 385 65 327 26 354 29 369 52 9 14 4
24 -27 56 -20 21 -37 44 -37 51 0 30 84 182 125 226 49 54 49 59 -7 114 -39
39 -102 73 -177 95 -68 20 -90 19 -166 -5z m62 -124 c12 -8 24 -27 27 -43 8
-35 -33 -279 -53 -310 -7 -12 -495 -72 -505 -61 -6 6 -78 350 -74 354 4 4 505
70 563 74 11 0 30 -6 42 -14z"/>
</g>
</svg>
