<?xml version="1.0" standalone="no"?>
<!DOCTYPE svg PUBLIC "-//W3C//DTD SVG 20010904//EN"
 "http://www.w3.org/TR/2001/REC-SVG-20010904/DTD/svg10.dtd">
<svg version="1.0" xmlns="http://www.w3.org/2000/svg"
 width="340.000000pt" height="340.000000pt" viewBox="0 0 340.000000 340.000000"
 preserveAspectRatio="xMidYMid meet">
<metadata>
Created by potrace 1.15, written by Peter Selinger 2001-2017
</metadata>
<g transform="translate(0.000000,340.000000) scale(0.100000,-0.100000)"
fill="#000000" stroke="none">
<path d="M1786 2768 c-3 -13 -7 -63 -9 -113 -3 -73 -9 -104 -35 -166 -41 -96
-114 -214 -214 -348 -85 -113 -103 -140 -94 -148 23 -23 152 81 299 241 84 91
89 95 115 85 53 -20 238 -13 367 15 151 33 341 92 377 117 63 45 41 83 -53 94
-76 9 -157 -8 -344 -71 -146 -49 -333 -100 -340 -92 -2 2 35 61 81 133 46 71
84 137 84 147 0 26 -60 89 -105 109 -22 10 -59 19 -82 19 -36 0 -43 -3 -47
-22z"/>
<path d="M1071 2478 c-109 -69 -155 -82 -326 -86 -82 -2 -154 -8 -159 -12 -5
-5 0 -29 12 -57 50 -117 57 -191 56 -588 0 -373 -8 -490 -41 -653 -16 -78 -16
-87 0 -148 19 -73 47 -119 78 -129 29 -9 46 9 70 75 l21 58 51 6 c29 3 91 8
138 12 l85 6 13 -58 c26 -114 64 -194 92 -194 18 0 58 104 74 195 10 53 19
175 22 298 5 170 8 207 20 203 7 -3 42 -10 77 -17 62 -10 171 -2 221 18 16 5
17 2 11 -33 -19 -99 -63 -196 -130 -284 -48 -63 -50 -67 -50 -134 -1 -92 13
-102 77 -53 55 42 133 73 219 87 81 13 344 13 484 0 168 -16 154 -6 137 -97
-31 -165 -96 -239 -199 -229 -28 3 -69 12 -90 19 -58 20 -104 28 -104 17 0 -5
30 -40 66 -77 37 -38 88 -99 114 -138 26 -38 57 -78 68 -89 20 -18 22 -17 65
13 107 78 202 270 232 475 4 25 10 48 14 50 7 5 180 -36 228 -54 36 -13 103 0
124 26 11 13 10 22 -6 52 -29 54 -82 77 -215 96 -63 9 -116 18 -117 20 -2 2 0
100 3 218 l7 215 60 7 c82 8 237 7 325 -3 87 -10 126 -3 130 26 4 25 -39 78
-82 101 -44 24 -182 19 -325 -11 l-114 -24 7 81 c7 87 25 169 52 229 13 29 15
43 6 61 -14 32 -90 80 -183 116 l-78 30 -59 -30 c-73 -36 -196 -72 -339 -100
-132 -25 -175 -26 -232 -6 -24 9 -53 14 -64 10 -21 -7 -21 -7 7 -129 18 -82
19 -178 3 -290 l-12 -80 -120 -12 c-66 -6 -146 -14 -179 -17 l-58 -6 7 68 c3
37 10 198 15 357 5 160 14 310 20 334 6 23 24 72 41 108 17 36 28 71 25 79 -8
20 -80 63 -152 90 -36 13 -68 24 -72 24 -4 0 -36 -19 -71 -42z m23 -144 c19
-51 28 -312 23 -713 -5 -414 -13 -551 -37 -575 -6 -6 -23 -2 -43 9 -29 15 -48
17 -118 12 -46 -4 -97 -10 -113 -13 l-29 -7 7 149 c3 82 9 221 12 310 l6 161
88 -1 c98 -1 136 15 155 68 24 68 -41 82 -165 37 -46 -17 -84 -30 -85 -28 -2
1 -5 129 -7 285 -4 203 -2 282 6 282 6 1 67 9 136 19 159 24 157 24 164 5z
m1235 -400 c13 -30 30 -186 31 -285 l0 -66 -97 -11 c-265 -29 -534 -55 -537
-51 -2 2 0 24 5 49 5 25 12 109 15 188 7 134 8 143 28 147 102 20 383 52 472
54 67 1 71 0 83 -25z m38 -611 c-4 -98 -10 -195 -13 -216 l-7 -37 -66 7 c-36
5 -202 8 -368 7 l-302 0 15 35 c9 20 30 96 49 169 18 73 35 136 39 139 4 4
499 59 645 72 12 1 13 -27 8 -176z"/>
<path d="M1926 1852 c-8 -14 71 -167 107 -207 l37 -40 30 33 c48 51 36 107
-35 160 -45 34 -131 67 -139 54z"/>
<path d="M1940 1379 c0 -57 110 -219 148 -219 26 0 44 41 44 97 -1 53 -4 60
-34 86 -30 25 -111 57 -145 57 -7 0 -13 -9 -13 -21z"/>
</g>
</svg>
