<?xml version="1.0" standalone="no"?>
<!DOCTYPE svg PUBLIC "-//W3C//DTD SVG 20010904//EN"
 "http://www.w3.org/TR/2001/REC-SVG-20010904/DTD/svg10.dtd">
<svg version="1.0" xmlns="http://www.w3.org/2000/svg"
 width="340.000000pt" height="340.000000pt" viewBox="0 0 340.000000 340.000000"
 preserveAspectRatio="xMidYMid meet">
<metadata>
Created by potrace 1.15, written by Peter Selinger 2001-2017
</metadata>
<g transform="translate(0.000000,340.000000) scale(0.100000,-0.100000)"
fill="#000000" stroke="none">
<path d="M2066 3014 c-3 -9 -6 -28 -6 -42 0 -54 -60 -135 -203 -274 -78 -75
-138 -140 -134 -145 9 -8 80 25 252 122 72 40 175 95 230 123 55 28 109 57
120 65 20 15 19 16 -15 52 -43 44 -81 68 -140 88 -82 26 -97 28 -104 11z"/>
<path d="M1205 2858 c15 -53 79 -175 111 -215 20 -24 53 -52 75 -64 l39 -20
25 25 c33 33 33 93 1 162 -35 75 -129 133 -214 134 -40 0 -43 -2 -37 -22z"/>
<path d="M2100 2560 c-230 -59 -590 -123 -880 -155 -80 -9 -149 -21 -154 -26
-21 -20 69 -42 191 -47 140 -5 134 0 153 -122 15 -98 13 -500 -2 -505 -22 -7
-520 -63 -758 -85 -123 -12 -230 -26 -237 -32 -25 -21 20 -53 125 -89 l54 -19
182 35 c405 76 756 129 1086 161 258 26 687 24 875 -3 133 -20 211 -19 243 1
43 27 -24 107 -124 147 -52 21 -74 24 -189 23 -110 -1 -648 -52 -739 -70 l-29
-6 6 148 c4 82 14 194 23 249 25 155 28 144 -46 193 -35 23 -61 42 -56 42 33
0 533 83 539 90 16 15 -3 48 -38 64 -54 26 -140 28 -225 6z m-318 -197 c8 -18
13 -127 16 -315 l4 -286 -29 -6 c-71 -14 -264 -38 -269 -33 -7 7 14 312 27
399 6 36 9 86 7 110 -3 41 -5 44 -63 75 -33 18 -58 33 -55 34 3 1 79 12 170
24 91 12 168 23 173 24 4 0 13 -11 19 -26z"/>
<path d="M2214 2241 c-1 -65 -34 -119 -145 -235 -49 -51 -89 -99 -89 -105 0
-7 15 -5 43 6 48 19 254 137 339 194 65 44 66 55 11 119 -42 48 -80 70 -125
70 -33 0 -33 0 -34 -49z"/>
<path d="M1006 2059 c26 -89 81 -194 119 -228 20 -17 40 -31 45 -31 5 0 18 12
29 26 23 30 28 94 10 141 -23 61 -105 124 -182 138 l-37 7 16 -53z"/>
<path d="M1905 1462 c-69 -28 -229 -62 -430 -91 -166 -24 -181 -25 -305 -16
-74 5 -99 4 -113 -7 -18 -13 -17 -16 16 -56 78 -93 113 -274 102 -532 -5 -139
-4 -162 14 -221 34 -108 63 -112 91 -12 14 49 -8 44 305 68 287 23 272 24 296
-32 12 -27 36 -88 55 -137 42 -114 52 -124 87 -96 61 48 129 213 146 355 6 50
11 176 11 282 0 169 2 199 20 247 12 30 27 60 35 66 55 45 -31 123 -200 182
l-70 24 -60 -24z m60 -144 c32 -37 40 -106 39 -323 -1 -174 -13 -293 -35 -364
l-11 -33 -64 63 -64 63 -72 -13 c-40 -7 -120 -21 -178 -32 -58 -10 -147 -21
-197 -25 l-93 -7 0 152 0 151 63 0 c82 0 384 36 422 49 60 22 76 34 73 55 -5
32 -68 49 -153 42 -38 -3 -141 -23 -227 -45 -87 -23 -162 -41 -167 -41 -5 0
-12 44 -15 98 -4 53 -9 113 -12 133 -4 27 -1 38 10 42 14 6 302 50 396 61 19
2 86 3 148 2 111 -1 115 -2 137 -28z"/>
</g>
</svg>
