<?xml version="1.0" standalone="no"?>
<!DOCTYPE svg PUBLIC "-//W3C//DTD SVG 20010904//EN"
 "http://www.w3.org/TR/2001/REC-SVG-20010904/DTD/svg10.dtd">
<svg version="1.0" xmlns="http://www.w3.org/2000/svg"
 width="340.000000pt" height="340.000000pt" viewBox="0 0 340.000000 340.000000"
 preserveAspectRatio="xMidYMid meet">
<metadata>
Created by potrace 1.15, written by Peter Selinger 2001-2017
</metadata>
<g transform="translate(0.000000,340.000000) scale(0.100000,-0.100000)"
fill="#000000" stroke="none">
<path d="M1508 2873 c-36 -6 -37 -32 -3 -124 39 -108 56 -259 53 -462 l-3
-179 -120 -43 c-66 -24 -150 -53 -186 -65 -124 -37 -89 -73 71 -73 52 0 115 5
139 12 23 7 45 10 48 8 7 -8 -109 -232 -182 -352 -67 -110 -211 -315 -222
-315 -6 0 5 519 17 755 7 147 10 167 40 244 25 65 31 90 24 110 -12 32 -74 76
-144 100 l-54 19 -90 -45 c-104 -52 -200 -75 -300 -71 l-71 3 -3 -31 c-2 -17
6 -67 17 -110 43 -168 56 -404 42 -717 -6 -126 -18 -275 -26 -331 -14 -97 -14
-106 5 -180 21 -84 55 -149 74 -143 20 6 48 76 59 147 11 70 11 70 43 70 17 0
69 7 114 16 45 8 83 14 84 12 1 -2 10 -47 19 -101 17 -98 39 -157 57 -157 40
0 75 94 90 240 8 81 13 97 32 110 117 80 256 254 368 463 23 42 44 77 47 77 3
0 2 -71 -1 -157 -15 -352 -39 -584 -77 -758 -23 -102 -21 -126 22 -235 39
-101 42 -105 67 -91 58 31 69 161 80 970 l7 504 87 27 c108 34 158 69 158 111
0 55 -43 59 -210 23 l-26 -6 4 74 c6 139 32 305 62 403 16 53 30 103 30 110 0
24 -61 95 -97 114 -42 20 -103 31 -145 24z m-556 -583 c15 -66 21 -658 9 -862
-6 -108 -14 -204 -17 -213 -4 -11 -12 -14 -23 -9 -35 16 -103 15 -156 -1 -31
-10 -57 -16 -59 -14 -2 2 0 54 5 114 4 61 8 174 8 251 l1 141 58 6 c73 6 116
27 131 66 23 54 13 66 -54 66 -33 0 -77 -4 -97 -9 l-38 -8 -1 118 c0 66 -4
173 -8 239 -4 66 -6 122 -4 125 6 7 173 28 208 27 25 -2 30 -7 37 -37z"/>
<path d="M2388 2564 c-5 -4 -8 -23 -8 -41 0 -74 -83 -173 -222 -264 -64 -42
-80 -49 -97 -40 -29 16 -87 13 -101 -4 -10 -12 -8 -25 9 -67 33 -85 40 -135
41 -285 0 -385 -59 -563 -306 -907 -21 -30 -31 -53 -26 -58 13 -13 77 21 153
82 197 158 292 371 324 730 l6 65 48 -3 c44 -3 88 4 132 22 20 9 33 -21 54
-119 12 -57 15 -175 15 -625 0 -529 6 -666 31 -712 10 -19 12 -19 30 -2 10 9
33 53 51 98 l33 81 0 520 c0 286 4 550 9 587 10 80 -3 127 -45 162 l-29 24 28
6 c15 3 110 17 212 31 102 14 204 32 227 41 70 26 70 81 0 109 -90 37 -236 16
-527 -77 -104 -33 -235 -67 -261 -68 -6 0 -24 220 -24 289 0 21 26 36 255 145
215 103 254 125 252 142 -6 33 -56 88 -104 112 -47 24 -147 40 -160 26z"/>
<path d="M1663 1734 c-18 -49 56 -158 142 -209 52 -30 71 -31 85 -6 37 70 -39
190 -139 220 -53 15 -81 14 -88 -5z"/>
</g>
</svg>
