<?xml version="1.0" standalone="no"?>
<!DOCTYPE svg PUBLIC "-//W3C//DTD SVG 20010904//EN"
 "http://www.w3.org/TR/2001/REC-SVG-20010904/DTD/svg10.dtd">
<svg version="1.0" xmlns="http://www.w3.org/2000/svg"
 width="340.000000pt" height="340.000000pt" viewBox="0 0 340.000000 340.000000"
 preserveAspectRatio="xMidYMid meet">
<metadata>
Created by potrace 1.15, written by Peter Selinger 2001-2017
</metadata>
<g transform="translate(0.000000,340.000000) scale(0.100000,-0.100000)"
fill="#000000" stroke="none">
<path d="M1550 2781 c0 -31 33 -91 86 -158 87 -110 131 -135 168 -94 40 44 38
131 -4 184 -30 38 -120 78 -189 84 -58 5 -61 5 -61 -16z"/>
<path d="M2246 2679 c-2 -8 -7 -68 -10 -134 -9 -223 -65 -413 -207 -705 -49
-102 -89 -193 -89 -202 0 -50 87 23 176 148 l46 64 78 0 c51 0 81 -4 86 -12
14 -23 17 -176 5 -289 -13 -118 -38 -276 -47 -291 -3 -4 -34 39 -69 97 -79
132 -129 193 -171 211 -69 29 -71 14 -7 -70 25 -33 79 -128 119 -211 l73 -149
-22 -41 c-37 -68 -163 -185 -252 -234 -149 -82 -165 -92 -165 -101 0 -29 194
20 301 76 65 34 144 101 188 159 13 17 25 25 29 19 4 -5 45 -65 90 -132 108
-157 185 -237 238 -245 104 -18 371 4 406 32 19 16 19 17 1 39 -10 12 -58 37
-108 56 -185 68 -336 162 -482 301 l-88 82 27 84 c15 46 45 160 68 254 23 93
48 185 56 203 8 19 14 42 14 52 0 17 -52 70 -98 100 -23 15 -18 17 105 51 229
65 341 117 327 153 -14 37 -134 48 -238 21 -32 -9 -142 -47 -244 -85 -102 -39
-186 -69 -188 -68 -3 4 141 337 220 508 80 174 80 175 -27 225 -88 42 -135 53
-141 34z"/>
<path d="M1760 2409 c-80 -21 -203 -50 -275 -64 -71 -15 -140 -28 -151 -30
-22 -5 -38 -30 -29 -45 9 -14 103 -30 182 -30 168 0 379 47 516 116 76 39 84
58 32 80 -53 22 -116 15 -275 -27z"/>
<path d="M935 2406 c-22 -13 -64 -32 -94 -42 -48 -15 -64 -16 -145 -5 -140 19
-174 -6 -129 -92 36 -70 45 -138 50 -387 3 -152 0 -334 -8 -480 -20 -337 -19
-483 5 -543 31 -81 67 -49 89 79 l11 64 116 0 115 0 50 -98 c61 -118 80 -126
107 -45 27 80 38 275 38 667 0 485 19 678 75 761 l25 35 -36 39 c-64 71 -191
93 -269 47z m59 -125 c9 -10 21 -42 25 -71 11 -69 -5 -944 -19 -1034 -14 -90
-21 -100 -67 -81 -30 13 -42 13 -96 0 -34 -8 -76 -15 -92 -15 l-30 0 3 258 c2
141 5 263 7 270 3 8 31 12 95 12 133 0 180 25 150 79 -24 46 -103 50 -193 12
-25 -11 -48 -17 -51 -14 -3 4 -6 131 -6 284 l0 277 28 6 c15 3 58 10 97 16 38
6 71 13 74 16 11 11 60 2 75 -15z"/>
<path d="M1765 2127 c-25 -17 -120 -53 -183 -69 -26 -6 -101 -14 -167 -17
-136 -7 -139 -9 -87 -85 15 -21 41 -59 59 -85 18 -25 39 -68 48 -96 32 -106
82 -148 103 -87 9 26 15 29 102 41 108 15 217 44 233 61 9 9 6 17 -15 32 l-26
21 29 47 c16 26 54 71 85 100 67 63 65 72 -18 113 -71 34 -135 44 -163 24z
m-1 -123 c11 -28 6 -87 -10 -130 -12 -32 -25 -46 -52 -57 -49 -21 -111 -37
-144 -37 -25 0 -29 6 -42 53 -8 28 -17 70 -21 93 l-6 41 103 25 c124 31 164
34 172 12z"/>
<path d="M1668 1555 c-67 -36 -198 -71 -313 -86 -55 -6 -104 -15 -108 -19 -10
-9 80 -68 122 -80 25 -7 48 -2 111 21 45 16 104 41 132 55 86 43 128 56 134
40 9 -23 -33 -92 -97 -160 -56 -60 -62 -64 -86 -55 -55 21 -69 -11 -28 -65 26
-34 55 -97 55 -119 0 -7 -19 -18 -42 -25 -123 -36 -313 -82 -339 -82 -34 0
-36 -13 -9 -58 21 -34 100 -78 123 -69 7 3 75 35 151 71 l139 67 -6 -113 c-9
-195 -41 -244 -158 -250 -43 -2 -64 -7 -64 -16 0 -11 82 -130 131 -190 21 -25
23 -26 50 -12 38 21 89 94 115 165 19 52 23 87 27 260 l4 200 88 49 c49 26 99
60 112 74 l23 25 -37 -7 c-21 -4 -70 -20 -110 -36 -40 -16 -79 -30 -86 -32
-12 -3 -51 84 -55 123 -2 17 38 53 196 174 l99 76 -39 38 c-28 28 -52 41 -91
50 -73 15 -90 14 -144 -14z"/>
</g>
</svg>
