<?xml version="1.0" standalone="no"?>
<!DOCTYPE svg PUBLIC "-//W3C//DTD SVG 20010904//EN"
 "http://www.w3.org/TR/2001/REC-SVG-20010904/DTD/svg10.dtd">
<svg version="1.0" xmlns="http://www.w3.org/2000/svg"
 width="340.000000pt" height="340.000000pt" viewBox="0 0 340.000000 340.000000"
 preserveAspectRatio="xMidYMid meet">
<metadata>
Created by potrace 1.15, written by Peter Selinger 2001-2017
</metadata>
<g transform="translate(0.000000,340.000000) scale(0.100000,-0.100000)"
fill="#000000" stroke="none">
<path d="M1698 2654 c-13 -13 -9 -50 12 -96 10 -24 26 -84 35 -134 17 -95 33
-454 20 -454 -4 0 -75 -11 -158 -25 -82 -14 -156 -24 -164 -21 -24 10 -11 251
19 332 11 31 10 36 -16 63 -47 49 -152 95 -220 95 -34 1 -61 -4 -63 -10 -2 -6
11 -28 28 -50 64 -79 97 -190 114 -382 8 -88 22 -80 -209 -118 -148 -24 -174
-26 -225 -16 -71 15 -188 16 -196 2 -4 -6 10 -29 30 -51 48 -54 70 -107 111
-268 38 -148 75 -392 99 -640 18 -194 37 -270 78 -314 28 -30 30 -30 43 -13
18 26 28 97 21 161 -6 64 -31 54 233 89 449 60 787 88 872 72 35 -6 35 -7 52
-84 9 -42 19 -111 22 -152 7 -88 22 -152 37 -162 34 -21 115 50 163 145 74
145 115 374 144 798 15 221 48 332 124 416 20 22 36 48 36 57 0 34 -82 106
-174 152 -111 56 -121 56 -411 -3 -110 -23 -212 -43 -227 -46 -28 -4 -28 -4
-28 49 0 125 39 339 81 441 20 50 0 77 -98 125 -79 39 -168 60 -185 42z m681
-710 c37 -27 51 -74 51 -178 0 -101 -23 -416 -41 -556 -23 -183 -70 -350 -99
-350 -5 0 -26 21 -47 46 -21 25 -52 62 -68 81 l-31 35 -138 -17 c-76 -9 -139
-15 -140 -13 -2 2 -1 94 2 206 5 238 -13 212 163 236 63 9 128 20 144 24 66
18 24 90 -59 99 -31 4 -74 -3 -141 -22 -53 -15 -98 -25 -100 -23 -2 1 -1 92 2
200 l6 196 42 11 c36 9 132 21 265 34 98 10 166 6 189 -9z m-612 -156 c-4 -62
-7 -154 -7 -204 l0 -90 -142 -27 c-79 -15 -154 -27 -168 -27 l-25 0 3 183 c1
100 5 192 7 204 4 18 17 23 97 37 86 16 194 32 227 35 12 1 13 -18 8 -111z
m-457 -172 l0 -204 -67 -12 c-127 -22 -163 -32 -163 -45 0 -22 52 -35 147 -38
l93 -2 0 -207 c0 -234 10 -210 -95 -227 -100 -16 -185 -23 -185 -15 0 17 -53
426 -81 624 -16 118 -31 226 -32 239 -2 24 2 25 173 56 96 18 183 33 193 34
16 1 17 -15 17 -203z m445 -255 c-3 -9 -7 -102 -10 -207 l-5 -189 -108 -22
c-59 -12 -128 -24 -153 -28 l-47 -7 0 216 -1 215 36 7 c82 15 279 41 286 37 4
-3 5 -12 2 -22z"/>
</g>
</svg>
