<?xml version="1.0" standalone="no"?>
<!DOCTYPE svg PUBLIC "-//W3C//DTD SVG 20010904//EN"
 "http://www.w3.org/TR/2001/REC-SVG-20010904/DTD/svg10.dtd">
<svg version="1.0" xmlns="http://www.w3.org/2000/svg"
 width="340.000000pt" height="340.000000pt" viewBox="0 0 340.000000 340.000000"
 preserveAspectRatio="xMidYMid meet">
<metadata>
Created by potrace 1.15, written by Peter Selinger 2001-2017
</metadata>
<g transform="translate(0.000000,340.000000) scale(0.100000,-0.100000)"
fill="#000000" stroke="none">
<path d="M2005 2874 c-129 -48 -462 -114 -679 -135 -97 -10 -144 -10 -214 -1
-89 12 -142 6 -142 -17 0 -5 21 -33 46 -63 84 -98 141 -210 204 -403 55 -169
72 -187 106 -112 l19 42 270 32 c262 32 270 32 290 14 36 -33 63 -43 85 -31
25 13 68 77 113 166 50 100 149 245 197 287 22 21 40 45 40 54 0 57 -87 125
-209 163 -73 23 -73 23 -126 4z m-1 -134 c23 -8 26 -15 26 -61 0 -28 -7 -79
-16 -113 -19 -73 -98 -246 -113 -246 -6 0 -131 -18 -278 -40 -148 -22 -277
-40 -288 -40 -17 0 -23 14 -41 96 -14 64 -17 97 -10 99 6 2 85 6 176 9 269 10
421 42 428 93 3 18 -3 23 -34 29 -38 7 -82 1 -398 -56 -94 -17 -176 -29 -184
-28 -12 3 -61 133 -62 163 0 6 37 17 83 23 513 78 657 93 711 72z"/>
<path d="M2250 2143 c-14 -2 -90 -17 -170 -33 -204 -41 -571 -103 -865 -146
-250 -36 -300 -38 -442 -18 -63 9 -66 -13 -11 -84 62 -79 106 -150 166 -268
64 -123 92 -144 132 -96 25 29 26 30 257 56 128 15 352 42 498 60 l266 34 28
-29 c67 -66 109 -48 231 101 48 58 120 133 161 167 41 35 75 71 77 81 4 23
-79 102 -139 133 -43 22 -134 50 -154 48 -5 -1 -21 -4 -35 -6z m-11 -133 c22
0 23 -3 18 -45 -6 -41 -68 -178 -99 -217 -10 -13 -59 -23 -197 -43 -100 -15
-185 -24 -188 -22 -6 7 18 52 71 135 65 101 65 99 0 128 -31 14 -55 27 -52 29
4 4 228 33 303 39 28 2 66 2 85 0 19 -2 46 -4 59 -4z m-509 -99 c0 -59 -35
-218 -51 -236 -6 -5 -66 -17 -135 -26 l-125 -15 6 20 c25 77 17 131 -29 209
-19 31 -34 57 -33 58 15 5 354 54 360 52 4 -2 7 -30 7 -62z m-425 -43 c4 -18
23 -80 41 -137 19 -57 33 -105 32 -107 -5 -4 -320 -35 -322 -32 -3 3 -84 231
-92 259 -5 14 13 18 128 28 73 7 138 14 143 16 6 2 22 4 37 4 22 1 28 -4 33
-31z"/>
<path d="M1812 1471 c-121 -57 -330 -97 -640 -125 -209 -18 -223 -34 -67 -77
124 -34 155 -31 465 41 91 21 189 42 218 46 49 6 52 5 52 -16 0 -38 -74 -181
-138 -266 -33 -45 -65 -85 -71 -88 -6 -4 -57 21 -113 54 -185 109 -216 122
-320 128 l-93 5 18 -21 c10 -11 44 -30 75 -43 124 -49 239 -114 331 -187 l24
-19 -73 -52 c-158 -110 -420 -214 -697 -274 -79 -18 -144 -36 -144 -42 2 -19
57 -26 157 -20 323 18 589 109 808 274 l64 48 158 -119 c198 -148 394 -280
458 -309 46 -20 61 -21 200 -16 201 7 516 60 516 87 0 13 -61 28 -185 46 -385
54 -703 162 -993 336 l-83 50 58 62 c32 34 94 109 138 167 43 57 103 123 132
147 33 27 53 51 53 63 0 31 -52 74 -125 103 -92 37 -132 40 -183 17z"/>
</g>
</svg>
