<?xml version="1.0" standalone="no"?>
<!DOCTYPE svg PUBLIC "-//W3C//DTD SVG 20010904//EN"
 "http://www.w3.org/TR/2001/REC-SVG-20010904/DTD/svg10.dtd">
<svg version="1.0" xmlns="http://www.w3.org/2000/svg"
 width="340.000000pt" height="340.000000pt" viewBox="0 0 340.000000 340.000000"
 preserveAspectRatio="xMidYMid meet">
<metadata>
Created by potrace 1.15, written by Peter Selinger 2001-2017
</metadata>
<g transform="translate(0.000000,340.000000) scale(0.100000,-0.100000)"
fill="#000000" stroke="none">
<path d="M1114 2767 c-3 -8 9 -47 25 -88 50 -125 76 -286 87 -538 l7 -149 -44
-7 c-24 -3 -136 -24 -249 -45 -113 -22 -225 -42 -250 -45 -25 -3 -52 -10 -60
-15 -24 -15 6 -37 88 -65 81 -27 92 -27 227 15 129 40 225 60 225 48 0 -21
-109 -235 -175 -342 -102 -168 -226 -327 -379 -484 -76 -78 -136 -145 -133
-149 10 -10 104 33 177 82 166 110 350 303 459 482 105 170 93 179 87 -67 -6
-218 -26 -445 -46 -535 -32 -142 7 -345 67 -345 20 0 59 92 77 182 13 65 16
168 16 642 l0 564 73 12 c240 37 322 65 322 110 0 17 -11 32 -35 48 -44 30
-93 26 -234 -17 -54 -17 -103 -31 -109 -31 -13 0 -3 121 32 367 36 255 35 262
-41 319 -33 24 -76 48 -96 54 -52 14 -112 13 -118 -3z"/>
<path d="M1958 2769 c-26 -14 -22 -48 17 -163 64 -187 67 -233 62 -946 -4
-572 -6 -651 -25 -800 -28 -213 -27 -244 4 -332 58 -164 98 -185 148 -78 19
42 21 63 21 280 0 129 -6 423 -14 652 -20 608 -10 825 50 1099 12 53 19 108
15 122 -9 38 -173 156 -236 170 -14 3 -33 1 -42 -4z"/>
<path d="M2200 1882 c0 -13 41 -51 121 -114 31 -23 114 -92 185 -151 150 -127
260 -198 306 -201 29 -1 34 3 46 39 41 123 -71 253 -284 331 -225 83 -374 121
-374 96z"/>
<path d="M1353 1633 c-13 -34 232 -235 304 -249 31 -6 34 -4 48 29 30 71 9
135 -56 175 -89 53 -282 83 -296 45z"/>
</g>
</svg>
