<?xml version="1.0" standalone="no"?>
<!DOCTYPE svg PUBLIC "-//W3C//DTD SVG 20010904//EN"
 "http://www.w3.org/TR/2001/REC-SVG-20010904/DTD/svg10.dtd">
<svg version="1.0" xmlns="http://www.w3.org/2000/svg"
 width="340.000000pt" height="340.000000pt" viewBox="0 0 340.000000 340.000000"
 preserveAspectRatio="xMidYMid meet">
<metadata>
Created by potrace 1.15, written by Peter Selinger 2001-2017
</metadata>
<g transform="translate(0.000000,340.000000) scale(0.100000,-0.100000)"
fill="#000000" stroke="none">
<path d="M1980 2806 c0 -8 -9 -43 -20 -80 -24 -75 -93 -183 -177 -274 l-58
-63 -175 84 c-176 85 -324 145 -413 168 -119 29 -46 -35 174 -155 170 -92 309
-180 309 -195 0 -30 -251 -224 -447 -345 -231 -144 -268 -169 -255 -174 27 -9
191 52 324 120 145 74 310 177 418 261 36 27 70 54 76 58 18 14 226 -142 396
-298 73 -67 103 -76 135 -39 13 15 23 38 23 52 0 96 -139 230 -364 350 l-80
43 125 123 c68 68 150 139 181 158 64 39 71 60 37 104 -37 47 -209 131 -209
102z"/>
<path d="M1550 1861 c-12 -8 -11 -16 7 -53 28 -55 42 -119 43 -185 l0 -51 -47
-6 c-139 -17 -661 -60 -864 -72 -64 -3 -122 -10 -130 -14 -22 -14 5 -57 52
-81 47 -24 78 -23 274 5 110 15 435 49 617 64 l97 8 6 -41 c4 -22 5 -182 3
-355 -3 -359 -6 -373 -69 -378 -20 -2 -73 6 -117 17 -90 23 -118 26 -127 11
-4 -6 35 -54 87 -108 51 -54 123 -132 159 -172 l66 -75 26 18 c44 28 85 94
114 181 26 77 28 91 28 271 0 105 -6 288 -14 408 -7 121 -9 223 -5 227 30 29
721 40 888 15 180 -27 246 -18 246 34 0 72 -126 151 -255 159 -47 3 -123 -4
-230 -21 -141 -23 -420 -57 -587 -71 -32 -2 -60 0 -63 5 -4 5 4 48 15 96 l22
86 -23 19 c-67 51 -183 83 -219 59z"/>
<path d="M1106 1228 c-7 -13 -30 -48 -49 -80 -20 -31 -72 -100 -117 -153 -87
-104 -100 -127 -100 -182 0 -37 25 -89 48 -98 22 -8 85 30 130 79 149 161 216
356 147 430 -29 32 -40 33 -59 4z"/>
<path d="M2021 1213 c102 -171 230 -324 358 -429 71 -59 85 -59 122 -1 16 25
19 43 15 82 -7 69 -69 188 -120 231 -80 69 -284 154 -369 154 l-29 0 23 -37z"/>
</g>
</svg>
