<?xml version="1.0" standalone="no"?>
<!DOCTYPE svg PUBLIC "-//W3C//DTD SVG 20010904//EN"
 "http://www.w3.org/TR/2001/REC-SVG-20010904/DTD/svg10.dtd">
<svg version="1.0" xmlns="http://www.w3.org/2000/svg"
 width="340.000000pt" height="340.000000pt" viewBox="0 0 340.000000 340.000000"
 preserveAspectRatio="xMidYMid meet">
<metadata>
Created by potrace 1.15, written by Peter Selinger 2001-2017
</metadata>
<g transform="translate(0.000000,340.000000) scale(0.100000,-0.100000)"
fill="#000000" stroke="none">
<path d="M1433 3023 c-21 -8 -15 -47 13 -84 60 -79 88 -187 106 -403 6 -80 9
-148 7 -150 -9 -9 -361 -76 -528 -100 -96 -14 -179 -31 -185 -36 -16 -16 17
-37 99 -63 99 -31 162 -27 348 22 87 23 162 41 167 39 4 -2 -20 -40 -54 -86
-196 -260 -459 -501 -794 -731 -123 -84 -139 -97 -128 -108 9 -9 151 44 271
101 325 155 543 345 788 686 17 24 18 23 12 -80 -3 -58 -14 -152 -23 -210 -25
-152 -22 -262 7 -328 21 -46 27 -53 49 -50 72 9 99 165 73 421 -17 163 -23
287 -13 287 13 0 265 -233 492 -456 199 -196 207 -202 255 -210 60 -9 518 3
560 14 19 5 31 16 33 29 4 24 -20 35 -133 58 -311 64 -708 261 -970 480 -95
79 -227 206 -221 212 8 8 192 32 406 53 118 11 229 23 247 26 81 15 80 83 -2
124 -40 20 -69 25 -145 28 -88 3 -110 0 -292 -47 -108 -28 -199 -51 -202 -51
-9 0 -7 92 4 177 6 43 25 135 42 206 29 121 30 128 14 146 -25 27 -99 57 -188
75 -80 17 -95 18 -115 9z"/>
<path d="M2015 1476 c-52 -36 -280 -90 -525 -125 -266 -37 -328 -42 -400 -26
-88 19 -184 19 -200 0 -10 -12 -5 -22 25 -57 89 -104 152 -301 200 -627 16
-111 47 -196 73 -206 22 -8 49 26 58 69 7 39 -28 32 352 72 227 24 265 26 273
13 5 -8 21 -52 35 -99 40 -132 55 -171 69 -176 38 -15 126 69 173 163 37 74
55 147 102 413 31 179 44 229 74 294 20 43 36 86 36 95 0 30 -118 130 -205
173 -67 34 -115 42 -140 24z m35 -156 c32 -32 40 -64 40 -158 0 -102 -24 -227
-76 -392 l-37 -119 -40 34 c-45 39 -123 60 -184 50 -21 -3 -94 -19 -163 -36
-120 -28 -342 -69 -348 -64 -4 4 -42 228 -42 251 0 21 4 21 218 27 292 7 372
23 440 87 29 28 17 52 -36 68 -78 24 -114 19 -470 -61 -105 -24 -155 -31 -157
-23 -7 20 -44 240 -41 243 5 5 437 72 566 87 260 32 303 33 330 6z"/>
</g>
</svg>
