<?xml version="1.0" standalone="no"?>
<!DOCTYPE svg PUBLIC "-//W3C//DTD SVG 20010904//EN"
 "http://www.w3.org/TR/2001/REC-SVG-20010904/DTD/svg10.dtd">
<svg version="1.0" xmlns="http://www.w3.org/2000/svg"
 width="340.000000pt" height="340.000000pt" viewBox="0 0 340.000000 340.000000"
 preserveAspectRatio="xMidYMid meet">
<metadata>
Created by potrace 1.15, written by Peter Selinger 2001-2017
</metadata>
<g transform="translate(0.000000,340.000000) scale(0.100000,-0.100000)"
fill="#000000" stroke="none">
<path d="M992 2738 c-18 -18 -15 -43 12 -82 42 -62 57 -181 63 -482 l6 -271
-71 -27 c-86 -33 -254 -85 -393 -122 -57 -15 -110 -32 -116 -37 -37 -28 9 -59
102 -71 51 -6 170 16 328 63 37 11 67 18 67 15 0 -12 -87 -176 -146 -275 -94
-158 -228 -331 -367 -475 -66 -69 -117 -127 -114 -130 10 -10 130 62 224 135
157 121 319 314 429 509 25 46 48 81 50 79 7 -7 -16 -399 -31 -530 -8 -71 -24
-175 -36 -230 -26 -127 -22 -201 16 -286 44 -96 85 -116 112 -54 19 44 31 338
32 746 1 136 4 247 9 247 4 0 48 -37 97 -81 50 -45 100 -88 112 -96 50 -33 80
16 59 97 -24 91 -64 116 -223 135 l-52 7 5 121 c3 67 7 127 9 134 2 7 44 24
92 39 134 41 193 69 193 93 0 45 -100 76 -183 57 -29 -7 -62 -18 -74 -24 -12
-7 -24 -9 -26 -5 -15 26 37 476 69 602 13 53 21 103 18 113 -8 25 -78 64 -150
82 -74 19 -106 20 -122 4z"/>
<path d="M1885 2577 c-4 -8 1 -29 9 -45 25 -48 127 -171 204 -244 84 -81 114
-88 157 -36 24 28 27 39 23 88 -8 105 -67 176 -185 220 -77 29 -200 39 -208
17z"/>
<path d="M2640 2085 c-160 -53 -724 -180 -985 -221 -60 -9 -115 -21 -122 -26
-20 -16 -3 -36 53 -63 l54 -25 192 44 c106 24 194 43 196 41 2 -2 -11 -45 -28
-96 -44 -133 -137 -306 -232 -434 -96 -130 -288 -329 -445 -462 -62 -52 -113
-99 -113 -104 0 -20 44 -6 147 45 246 124 454 321 670 638 46 67 84 123 87
125 8 8 186 -98 205 -123 36 -45 37 -89 7 -207 -59 -232 -126 -395 -186 -456
-41 -40 -78 -40 -178 -1 -101 41 -110 36 -73 -38 16 -32 45 -104 65 -160 19
-56 40 -111 46 -123 44 -81 205 10 284 160 52 99 77 172 146 413 65 230 104
325 151 374 30 31 30 33 15 61 -23 45 -120 129 -170 148 -42 16 -47 16 -90 0
-43 -17 -88 -16 -164 2 -28 7 -25 16 28 87 48 63 46 71 -31 128 l-49 36 33 6
c73 13 314 36 491 46 189 10 213 13 274 32 26 8 32 15 32 38 0 33 -39 84 -83
106 -43 23 -171 28 -227 9z"/>
</g>
</svg>
