<?xml version="1.0" standalone="no"?>
<!DOCTYPE svg PUBLIC "-//W3C//DTD SVG 20010904//EN"
 "http://www.w3.org/TR/2001/REC-SVG-20010904/DTD/svg10.dtd">
<svg version="1.0" xmlns="http://www.w3.org/2000/svg"
 width="340.000000pt" height="340.000000pt" viewBox="0 0 340.000000 340.000000"
 preserveAspectRatio="xMidYMid meet">
<metadata>
Created by potrace 1.15, written by Peter Selinger 2001-2017
</metadata>
<g transform="translate(0.000000,340.000000) scale(0.100000,-0.100000)"
fill="#000000" stroke="none">
<path d="M1576 2978 c-9 -13 -16 -43 -16 -69 0 -36 -7 -56 -31 -90 -58 -81
-122 -151 -186 -204 l-63 -52 -105 5 c-122 5 -132 -2 -91 -65 67 -101 113
-312 101 -457 -12 -139 -55 -270 -117 -359 -39 -54 -8 -167 45 -167 11 0 35
14 54 30 64 57 170 99 296 118 53 8 57 8 52 -9 -3 -10 1 -45 10 -78 8 -32 18
-86 21 -118 l6 -59 -330 -33 c-458 -46 -480 -52 -332 -99 68 -21 192 -20 374
2 71 9 131 14 134 12 9 -10 -98 -133 -201 -233 -169 -162 -369 -309 -568 -417
-86 -46 -128 -80 -116 -93 14 -13 215 50 310 97 270 135 539 365 679 580 l49
75 -6 -115 c-9 -171 -33 -395 -55 -527 -11 -64 -18 -133 -14 -152 14 -84 38
-151 61 -173 l25 -23 23 28 c47 54 50 84 49 514 l0 403 225 -223 c242 -239
419 -394 490 -429 58 -28 198 -35 382 -19 221 20 316 37 298 56 -3 3 -100 32
-215 64 -473 134 -617 195 -819 348 -150 113 -331 258 -340 273 -3 6 0 10 7
10 7 0 117 11 243 25 399 43 403 43 390 77 -9 23 -103 61 -150 61 -22 0 -141
-16 -265 -36 -124 -19 -228 -33 -231 -31 -8 5 4 62 25 122 8 23 13 49 10 57
-6 16 -91 75 -107 75 -6 0 -8 2 -5 5 14 15 380 47 584 52 l232 6 17 -27 c23
-35 15 -126 -20 -233 -50 -147 -87 -183 -195 -183 -36 0 -75 -3 -87 -6 -21 -6
-19 -10 31 -58 40 -38 57 -63 66 -96 22 -86 65 -102 139 -52 77 52 144 175
206 378 31 102 80 201 107 215 12 7 18 21 18 44 0 47 -50 102 -132 145 l-62
33 -64 -17 c-105 -28 -290 -63 -468 -90 -172 -26 -602 -76 -650 -76 l-26 0 7
64 c4 35 10 203 14 373 l6 308 40 3 c22 1 77 9 121 17 117 22 301 45 350 45
42 0 43 -1 55 -42 16 -58 17 -292 1 -344 -7 -23 -22 -54 -34 -69 -21 -27 -24
-27 -87 -21 -36 3 -85 9 -108 12 -55 8 -55 -5 -1 -41 23 -16 75 -59 116 -98
82 -77 100 -81 155 -29 67 63 90 129 108 305 12 120 27 174 74 252 19 32 35
68 35 80 0 37 -34 69 -109 104 l-71 33 -63 -21 c-120 -39 -480 -121 -533 -121
-39 0 -1 33 129 112 168 102 298 171 350 188 50 16 63 41 34 67 -39 36 -143
80 -234 98 -25 5 -34 2 -47 -17z"/>
<path d="M1404 2325 c-5 -12 11 -34 57 -81 66 -67 110 -94 152 -94 51 0 71 66
35 119 -25 38 -70 54 -180 67 -49 6 -59 4 -64 -11z"/>
</g>
</svg>
