<?xml version="1.0" standalone="no"?>
<!DOCTYPE svg PUBLIC "-//W3C//DTD SVG 20010904//EN"
 "http://www.w3.org/TR/2001/REC-SVG-20010904/DTD/svg10.dtd">
<svg version="1.0" xmlns="http://www.w3.org/2000/svg"
 width="340.000000pt" height="340.000000pt" viewBox="0 0 340.000000 340.000000"
 preserveAspectRatio="xMidYMid meet">
<metadata>
Created by potrace 1.15, written by Peter Selinger 2001-2017
</metadata>
<g transform="translate(0.000000,340.000000) scale(0.100000,-0.100000)"
fill="#000000" stroke="none">
<path d="M938 2793 c-24 -6 -23 -25 8 -101 46 -116 65 -238 71 -467 l6 -211
-154 -46 c-85 -26 -199 -58 -253 -73 -112 -30 -176 -53 -176 -65 0 -19 36 -33
98 -37 53 -4 101 3 230 32 90 20 166 34 170 31 9 -10 -53 -157 -124 -295 -77
-149 -200 -335 -322 -488 -119 -149 -130 -177 -48 -129 59 35 201 170 278 265
87 107 189 267 256 398 31 62 59 113 62 113 11 0 -16 -391 -41 -595 -11 -88
-32 -214 -46 -280 -41 -193 -41 -232 -4 -312 53 -113 91 -140 115 -81 23 56
28 137 40 617 l11 464 78 -92 c84 -98 115 -115 147 -86 25 22 25 58 1 110 -32
70 -87 106 -185 120 l-48 8 6 106 c4 58 9 129 12 157 l6 51 95 26 c165 47 211
75 186 116 -23 37 -57 43 -150 27 -49 -9 -99 -19 -112 -22 l-23 -7 7 84 c10
132 44 356 67 447 l21 83 -44 45 c-74 75 -163 108 -241 87z"/>
<path d="M1845 2726 c-19 -14 -19 -15 -1 -65 28 -78 10 -170 -71 -361 -79
-184 -181 -350 -358 -580 -36 -47 -65 -88 -65 -92 0 -10 57 9 94 31 53 33 186
178 262 286 76 108 196 298 216 340 6 14 14 24 18 23 4 -2 76 -86 161 -188
191 -230 377 -422 433 -450 52 -25 138 -26 320 -5 148 17 234 47 203 70 -10 7
-38 16 -63 20 -84 12 -268 76 -390 135 -195 94 -419 256 -576 417 l-58 58 26
50 c15 28 46 77 70 109 24 33 44 65 44 71 0 18 -60 71 -124 109 -64 38 -109
45 -141 22z"/>
<path d="M2075 1705 c-128 -39 -301 -82 -425 -105 -132 -25 -169 -40 -147 -58
30 -25 158 -44 248 -38 l87 7 11 -103 c19 -175 19 -176 7 -181 -6 -3 -73 -15
-148 -27 -152 -25 -168 -31 -150 -53 30 -36 168 -46 285 -21 l27 6 0 -165 0
-164 -37 -6 c-21 -3 -141 -15 -268 -27 -327 -30 -329 -30 -345 -40 -40 -25 72
-110 146 -110 18 0 84 13 146 29 278 72 694 101 953 66 134 -18 217 -19 233
-3 23 23 13 57 -30 99 -89 86 -141 93 -398 50 -102 -16 -205 -31 -230 -33
l-45 -3 -3 157 c-2 157 -2 158 20 163 13 2 64 12 114 20 109 18 182 39 209 60
20 15 20 15 0 31 -60 48 -133 55 -260 25 -44 -11 -81 -18 -82 -17 -2 1 1 35 6
74 10 81 1 140 -29 183 l-20 27 72 12 c177 29 321 73 340 103 13 20 9 26 -24
47 -47 29 -159 26 -263 -5z"/>
</g>
</svg>
