<?xml version="1.0" standalone="no"?>
<!DOCTYPE svg PUBLIC "-//W3C//DTD SVG 20010904//EN"
 "http://www.w3.org/TR/2001/REC-SVG-20010904/DTD/svg10.dtd">
<svg version="1.0" xmlns="http://www.w3.org/2000/svg"
 width="340.000000pt" height="340.000000pt" viewBox="0 0 340.000000 340.000000"
 preserveAspectRatio="xMidYMid meet">
<metadata>
Created by potrace 1.15, written by Peter Selinger 2001-2017
</metadata>
<g transform="translate(0.000000,340.000000) scale(0.100000,-0.100000)"
fill="#000000" stroke="none">
<path d="M880 2798 c0 -6 18 -41 39 -77 65 -110 71 -144 71 -401 l0 -227 -92
-26 c-51 -14 -158 -42 -238 -62 -147 -36 -220 -61 -220 -76 0 -42 183 -45 374
-5 71 15 131 24 134 21 15 -15 -155 -337 -274 -515 -73 -111 -117 -166 -292
-372 -72 -85 -53 -91 54 -16 192 132 340 310 503 603 l61 110 0 -105 c0 -293
-35 -721 -75 -912 -22 -109 -23 -120 -9 -178 33 -144 95 -203 127 -122 32 80
40 196 46 685 l6 488 98 -83 c121 -102 156 -128 173 -128 40 0 44 114 6 168
-24 33 -125 80 -219 102 l-53 12 0 153 0 154 88 26 c179 54 240 76 258 96 18
20 18 21 -5 40 -31 25 -107 25 -231 -1 -52 -11 -96 -20 -97 -20 -2 0 -3 36 -3
79 0 101 24 284 50 381 28 108 27 123 -18 153 -20 15 -64 36 -96 47 -66 22
-166 27 -166 8z"/>
<path d="M2120 2629 c-72 -55 -162 -96 -280 -126 -85 -22 -107 -23 -212 -17
-87 5 -118 3 -118 -5 0 -6 13 -37 29 -69 16 -31 36 -82 45 -112 27 -88 39
-464 32 -965 -6 -484 -15 -577 -64 -674 -31 -62 -34 -129 -9 -177 23 -44 81
-96 99 -89 9 4 35 36 59 73 54 87 86 120 246 258 134 116 173 157 173 180 0
20 -49 0 -223 -90 -82 -42 -155 -76 -163 -76 -16 0 -17 130 -5 605 l6 250 365
-362 c417 -413 384 -390 555 -379 109 6 380 40 408 51 50 20 -13 58 -149 90
-178 42 -270 76 -436 166 -146 78 -311 180 -323 199 -7 12 136 122 270 208
142 91 170 114 162 136 -16 40 -243 114 -269 88 -6 -6 -11 -35 -13 -65 -2 -46
-10 -69 -51 -136 -53 -87 -133 -190 -149 -191 -5 0 -92 55 -193 122 -173 117
-182 125 -180 153 l3 30 157 38 157 39 22 -21 c71 -65 126 18 215 321 60 206
64 219 88 257 13 20 51 67 85 104 34 38 60 74 58 80 -7 23 -124 93 -191 115
-123 41 -143 40 -206 -9z m49 -174 c27 -57 -10 -314 -75 -522 l-26 -83 -42 0
c-23 0 -95 -16 -160 -35 -66 -19 -123 -35 -128 -35 -5 0 -7 63 -6 141 l3 141
65 4 c79 5 174 28 215 52 42 25 42 71 0 91 -28 14 -38 12 -150 -27 -66 -23
-123 -42 -127 -42 -5 0 -8 56 -8 125 0 92 3 127 13 129 6 2 59 15 117 30 58
14 137 35 175 45 92 26 116 24 134 -14z"/>
</g>
</svg>
