<?xml version="1.0" standalone="no"?>
<!DOCTYPE svg PUBLIC "-//W3C//DTD SVG 20010904//EN"
 "http://www.w3.org/TR/2001/REC-SVG-20010904/DTD/svg10.dtd">
<svg version="1.0" xmlns="http://www.w3.org/2000/svg"
 width="340.000000pt" height="340.000000pt" viewBox="0 0 340.000000 340.000000"
 preserveAspectRatio="xMidYMid meet">
<metadata>
Created by potrace 1.15, written by Peter Selinger 2001-2017
</metadata>
<g transform="translate(0.000000,340.000000) scale(0.100000,-0.100000)"
fill="#000000" stroke="none">
<path d="M941 2833 c-27 -5 -26 -11 12 -118 14 -38 33 -117 41 -175 19 -134
31 -394 22 -492 l-7 -75 -122 -27 c-67 -14 -171 -35 -230 -46 -59 -11 -112
-22 -118 -25 -29 -19 13 -38 121 -54 51 -8 80 -7 135 5 80 17 179 33 183 29 6
-6 -130 -269 -185 -357 -88 -143 -197 -282 -314 -404 -60 -62 -109 -119 -109
-128 0 -43 82 3 226 125 129 109 254 258 360 426 l54 86 0 -89 c0 -211 -34
-551 -75 -749 -34 -162 -33 -189 10 -272 46 -87 69 -112 93 -97 56 36 77 299
68 832 -4 204 -4 372 -1 372 4 0 30 -21 59 -46 70 -64 185 -144 206 -144 49 0
49 66 2 135 -36 53 -83 74 -181 82 l-81 6 0 128 c0 71 2 129 4 129 3 0 57 16
122 35 125 38 182 64 204 90 13 15 11 20 -9 36 -32 26 -99 24 -202 -6 -46 -13
-88 -25 -93 -25 -13 0 0 283 19 400 8 52 23 128 35 167 32 116 30 126 -41 178
-33 25 -84 52 -112 60 -52 15 -55 16 -96 8z"/>
<path d="M2118 2669 c-19 -11 -24 -39 -9 -54 44 -46 60 -291 42 -635 -6 -118
-16 -376 -21 -572 -12 -395 -8 -453 39 -553 50 -108 113 -164 233 -207 57 -20
81 -22 258 -22 179 0 200 1 252 22 102 41 115 80 78 234 -11 46 -29 144 -40
218 -29 193 -38 194 -65 9 -20 -137 -51 -248 -77 -276 -41 -44 -96 -56 -230
-51 -102 4 -131 9 -171 28 -92 44 -148 141 -167 290 -32 252 25 991 97 1260
43 163 44 160 -22 229 -79 83 -146 110 -197 80z"/>
<path d="M1676 2387 c-16 -12 -15 -17 13 -83 69 -163 120 -460 121 -700 l0
-60 -122 -81 c-68 -45 -168 -104 -224 -131 -55 -28 -105 -57 -112 -64 -29 -36
65 -97 150 -98 46 0 46 0 111 83 35 45 94 114 130 152 77 82 77 81 43 -85 -53
-262 -164 -449 -359 -604 -136 -108 -151 -133 -58 -97 83 31 213 125 297 214
103 109 165 224 204 380 40 159 48 273 52 691 l3 368 -39 34 c-43 37 -149 94
-176 94 -9 0 -24 -6 -34 -13z"/>
<path d="M2546 2244 c-3 -9 -4 -20 -1 -25 11 -16 -15 -123 -44 -186 -17 -35
-57 -105 -90 -156 -55 -85 -75 -137 -53 -137 20 0 95 65 208 181 66 68 142
139 167 156 28 19 47 40 47 51 0 33 -44 86 -90 110 -54 27 -135 30 -144 6z"/>
<path d="M1460 1900 c-34 -22 107 -230 156 -230 25 0 54 57 54 105 0 42 -46
99 -93 114 -55 17 -101 22 -117 11z"/>
<path d="M2330 1562 c0 -15 169 -211 219 -254 53 -46 75 -51 98 -26 13 15 18
36 18 79 0 54 -3 61 -39 98 -21 21 -68 53 -105 69 -69 32 -191 54 -191 34z"/>
</g>
</svg>
