<?xml version="1.0" standalone="no"?>
<!DOCTYPE svg PUBLIC "-//W3C//DTD SVG 20010904//EN"
 "http://www.w3.org/TR/2001/REC-SVG-20010904/DTD/svg10.dtd">
<svg version="1.0" xmlns="http://www.w3.org/2000/svg"
 width="340.000000pt" height="340.000000pt" viewBox="0 0 340.000000 340.000000"
 preserveAspectRatio="xMidYMid meet">
<metadata>
Created by potrace 1.15, written by Peter Selinger 2001-2017
</metadata>
<g transform="translate(0.000000,340.000000) scale(0.100000,-0.100000)"
fill="#000000" stroke="none">
<path d="M940 2712 c0 -10 14 -56 30 -102 17 -45 39 -133 50 -194 21 -124 43
-417 32 -427 -9 -9 -166 -43 -322 -69 -143 -24 -183 -35 -200 -56 -40 -47 215
-63 395 -25 50 10 92 17 93 16 7 -6 -77 -186 -129 -278 -105 -186 -230 -358
-396 -545 -104 -116 -124 -169 -47 -121 170 105 378 322 544 567 34 51 64 91
66 90 5 -5 -15 -387 -26 -508 -7 -63 -21 -167 -32 -230 -30 -164 -33 -230 -12
-292 43 -134 78 -162 108 -87 44 109 49 167 55 628 l6 444 63 -54 c180 -154
195 -161 235 -107 72 96 -68 218 -250 218 l-53 0 0 155 c0 152 0 155 23 159
12 3 68 14 124 26 150 30 213 61 213 101 0 26 -39 49 -81 49 -20 0 -79 -11
-130 -24 -52 -13 -106 -26 -121 -30 l-28 -6 0 67 c0 87 18 295 31 353 5 25 19
76 30 113 l21 69 -43 44 c-50 51 -109 74 -191 74 -49 0 -58 -3 -58 -18z"/>
<path d="M2456 2519 c-39 -5 -167 -32 -285 -59 -210 -48 -338 -72 -451 -85
-30 -4 -63 -9 -72 -11 -29 -8 -21 -32 15 -43 40 -13 186 -31 249 -31 57 0 58
-2 23 -106 -49 -145 -148 -311 -228 -380 -24 -21 -73 -50 -108 -64 -59 -24
-64 -29 -67 -60 -5 -44 24 -117 53 -136 21 -14 29 -12 106 20 161 65 473 154
698 197 l63 12 32 -35 c96 -109 176 -111 176 -4 0 64 -26 121 -76 171 -66 64
-292 159 -338 142 -25 -10 -13 -38 57 -135 33 -45 58 -84 56 -87 -5 -4 -590
-95 -615 -95 -11 0 -12 4 -5 18 17 31 234 246 323 320 115 95 124 136 44 203
l-31 26 75 13 c354 58 540 123 510 179 -11 21 -68 42 -110 40 -14 -1 -56 -6
-94 -10z"/>
<path d="M1981 1641 c-11 -7 -11 -22 2 -97 22 -121 32 -250 20 -257 -5 -3 -63
-15 -129 -27 -127 -22 -181 -36 -202 -53 -35 -28 133 -63 261 -54 l77 5 0
-168 0 -168 -37 -6 c-21 -3 -159 -21 -308 -41 -318 -41 -347 -46 -352 -61 -2
-6 30 -28 71 -48 92 -45 119 -45 302 -7 343 73 732 97 1023 66 237 -26 280
-11 227 79 -35 60 -71 82 -160 97 -89 15 -191 7 -421 -31 -98 -17 -182 -30
-187 -30 -5 0 -7 77 -6 171 l3 171 105 32 c222 68 288 117 203 152 -53 23
-116 18 -218 -15 l-90 -30 -3 36 c-2 19 4 70 12 113 24 116 25 114 -46 149
-60 31 -119 39 -147 22z"/>
</g>
</svg>
