<?xml version="1.0" standalone="no"?>
<!DOCTYPE svg PUBLIC "-//W3C//DTD SVG 20010904//EN"
 "http://www.w3.org/TR/2001/REC-SVG-20010904/DTD/svg10.dtd">
<svg version="1.0" xmlns="http://www.w3.org/2000/svg"
 width="340.000000pt" height="340.000000pt" viewBox="0 0 340.000000 340.000000"
 preserveAspectRatio="xMidYMid meet">
<metadata>
Created by potrace 1.15, written by Peter Selinger 2001-2017
</metadata>
<g transform="translate(0.000000,340.000000) scale(0.100000,-0.100000)"
fill="#000000" stroke="none">
<path d="M953 2922 c-22 -7 -22 -8 13 -62 61 -97 63 -112 78 -669 1 -34 -1
-35 -59 -54 -33 -10 -139 -38 -235 -63 -205 -52 -262 -72 -257 -87 13 -40 248
-34 421 9 32 8 60 13 62 11 3 -2 -24 -62 -60 -133 -105 -210 -235 -392 -439
-614 -54 -58 -97 -108 -97 -112 0 -16 29 -7 88 29 201 122 376 308 518 550 31
51 56 93 57 93 3 0 -2 -103 -13 -260 -14 -197 -35 -366 -67 -544 -24 -134 -25
-154 -14 -209 29 -139 103 -212 136 -134 30 73 37 170 43 619 l7 457 75 -60
c127 -101 183 -116 204 -56 15 40 -20 94 -83 130 -44 25 -69 31 -133 35 l-80
5 6 76 c4 42 9 99 12 127 l6 52 58 12 c62 13 127 45 143 71 16 25 0 68 -28 75
-14 3 -55 -3 -94 -15 -38 -12 -72 -21 -76 -21 -18 0 17 376 50 532 l22 109
-36 31 c-63 55 -170 88 -228 70z"/>
<path d="M2004 2798 c3 -18 11 -53 16 -78 6 -25 14 -154 17 -286 l6 -241 -69
-34 c-78 -37 -104 -56 -104 -76 0 -18 71 -17 117 2 19 8 37 15 38 15 1 0 5
-23 9 -51 28 -213 173 -319 436 -318 151 0 275 31 339 85 26 22 31 33 31 71 0
25 -9 87 -21 137 -11 50 -23 106 -27 125 -15 72 -38 48 -92 -100 -34 -93 -48
-112 -105 -142 -32 -17 -63 -22 -152 -25 -138 -5 -195 11 -246 67 -48 53 -73
167 -44 203 6 9 90 67 186 128 195 125 319 214 327 235 7 17 -21 72 -54 108
-21 22 -102 57 -132 57 -4 0 -12 -17 -18 -38 -18 -59 -99 -166 -208 -277 l-99
-100 -3 44 c-5 62 23 229 55 334 l26 87 -23 25 c-36 39 -118 75 -168 75 l-45
0 7 -32z"/>
<path d="M1677 2793 c-3 -4 -5 -42 -4 -83 2 -71 -1 -81 -53 -195 -70 -151
-147 -281 -244 -414 -42 -57 -76 -108 -76 -113 0 -12 35 7 111 63 65 48 140
122 190 189 l27 35 7 -49 c11 -69 0 -238 -20 -321 -26 -105 -24 -182 6 -241
13 -27 31 -49 39 -49 44 0 79 166 79 370 1 154 -16 256 -49 311 -12 19 -18 39
-14 46 13 22 156 211 191 252 18 22 33 46 33 53 0 27 -54 95 -94 118 -44 26
-120 43 -129 28z"/>
<path d="M1918 1734 c-24 -7 -23 -24 7 -107 14 -38 28 -96 32 -127 l6 -57 -34
-7 c-19 -4 -172 -20 -342 -35 -169 -15 -311 -31 -314 -35 -25 -24 90 -85 162
-86 22 0 74 7 116 15 65 12 238 35 372 49 l37 4 1 -451 c1 -512 4 -562 34
-562 28 0 51 74 70 222 18 145 35 458 35 654 l0 146 62 7 c153 18 358 25 525
19 l181 -6 21 34 c18 29 19 36 7 54 -22 33 -68 54 -161 75 -101 22 -156 18
-405 -26 -80 -14 -165 -28 -189 -31 -42 -6 -44 -5 -38 18 19 81 30 148 24 161
-14 37 -159 86 -209 72z"/>
</g>
</svg>
