<?xml version="1.0" standalone="no"?>
<!DOCTYPE svg PUBLIC "-//W3C//DTD SVG 20010904//EN"
 "http://www.w3.org/TR/2001/REC-SVG-20010904/DTD/svg10.dtd">
<svg version="1.0" xmlns="http://www.w3.org/2000/svg"
 width="340.000000pt" height="340.000000pt" viewBox="0 0 340.000000 340.000000"
 preserveAspectRatio="xMidYMid meet">
<metadata>
Created by potrace 1.15, written by Peter Selinger 2001-2017
</metadata>
<g transform="translate(0.000000,340.000000) scale(0.100000,-0.100000)"
fill="#000000" stroke="none">
<path d="M927 2753 c-13 -12 -7 -41 23 -104 41 -89 69 -240 80 -436 12 -202
12 -234 2 -250 -4 -7 -124 -35 -267 -64 -143 -28 -266 -57 -274 -64 -11 -11
-9 -16 10 -28 65 -43 198 -47 354 -12 109 25 155 30 155 19 0 -3 -26 -63 -58
-132 -111 -244 -255 -455 -461 -676 -106 -113 -128 -146 -98 -146 30 0 169
110 283 224 129 129 208 229 306 388 33 54 61 98 63 96 1 -2 -2 -84 -6 -182
-10 -234 -33 -430 -69 -591 -28 -126 -28 -132 -14 -205 17 -92 58 -180 84
-180 60 0 85 200 97 754 l6 330 26 -35 c14 -19 49 -58 78 -86 59 -59 90 -67
120 -30 14 18 24 21 43 16 51 -14 165 -9 235 11 113 32 389 76 692 110 128 14
246 20 420 20 133 0 248 3 257 6 48 18 -8 89 -97 122 -73 28 -100 27 -299 -2
-250 -37 -240 -37 -233 -7 13 51 76 186 115 246 22 34 40 67 40 73 0 23 -66
86 -115 108 -68 32 -102 30 -181 -10 -66 -34 -190 -74 -199 -64 -3 3 11 40 31
82 48 100 55 166 24 208 -12 16 -20 31 -18 33 1 1 41 8 88 14 272 37 393 83
375 141 -10 30 -44 40 -143 40 -97 0 -211 -18 -382 -60 -63 -15 -162 -36 -220
-45 -108 -19 -148 -39 -137 -69 9 -22 71 -36 165 -36 l83 0 16 -37 c11 -25 16
-66 16 -119 -1 -82 -19 -194 -31 -194 -9 0 -276 -38 -319 -45 -47 -8 -41 -29
16 -54 59 -25 106 -26 197 -6 36 9 69 13 72 10 7 -7 -28 -117 -81 -256 l-40
-106 -156 -17 c-86 -10 -170 -20 -186 -23 -26 -4 -33 -1 -43 21 -13 30 -82 67
-169 91 l-63 18 0 143 0 143 58 11 c97 19 202 53 228 72 71 57 -35 110 -156
79 -19 -5 -55 -12 -78 -15 l-44 -7 7 113 c10 167 32 343 55 432 11 44 20 89
20 101 0 30 -67 91 -119 110 -43 15 -172 21 -184 8z m1343 -853 c38 -20 34
-106 -12 -267 -16 -56 -25 -73 -42 -76 -79 -18 -328 -59 -332 -54 -10 10 130
357 146 362 22 7 193 43 208 44 7 1 22 -3 32 -9z"/>
<path d="M2360 1244 c-105 -46 -319 -89 -521 -104 -125 -9 -140 -8 -194 10
-101 35 -102 33 -45 -109 48 -118 74 -227 94 -381 15 -124 25 -158 50 -179 24
-20 43 1 62 64 8 29 21 56 29 59 8 3 110 14 227 25 373 36 409 41 454 60 54
24 57 50 12 92 -18 16 -36 29 -40 29 -30 0 12 83 90 182 83 105 87 113 64 143
-31 39 -77 73 -133 100 -62 28 -99 31 -149 9z m1 -166 c17 -66 6 -157 -29
-233 -26 -54 -38 -68 -68 -81 -71 -30 -425 -86 -441 -71 -7 7 -42 271 -43 323
0 31 1 31 58 38 31 4 125 17 207 31 165 27 199 31 262 33 42 2 42 1 54 -40z"/>
</g>
</svg>
