<?xml version="1.0" standalone="no"?>
<!DOCTYPE svg PUBLIC "-//W3C//DTD SVG 20010904//EN"
 "http://www.w3.org/TR/2001/REC-SVG-20010904/DTD/svg10.dtd">
<svg version="1.0" xmlns="http://www.w3.org/2000/svg"
 width="340.000000pt" height="340.000000pt" viewBox="0 0 340.000000 340.000000"
 preserveAspectRatio="xMidYMid meet">
<metadata>
Created by potrace 1.15, written by Peter Selinger 2001-2017
</metadata>
<g transform="translate(0.000000,340.000000) scale(0.100000,-0.100000)"
fill="#000000" stroke="none">
<path d="M956 2727 c-17 -13 -17 -16 7 -73 45 -109 70 -262 82 -516 l5 -116
-33 -11 c-17 -6 -95 -26 -172 -46 -378 -97 -401 -116 -194 -155 63 -12 78 -10
223 36 60 19 111 33 113 30 9 -9 -105 -225 -170 -324 -87 -133 -183 -254 -321
-405 -112 -124 -133 -157 -100 -157 33 0 204 129 310 235 119 118 179 195 265
335 30 49 58 89 63 90 10 0 0 -330 -15 -495 -6 -60 -19 -167 -30 -237 -25
-166 -24 -215 6 -312 29 -96 58 -146 83 -146 51 0 62 102 69 663 3 262 8 477
10 477 3 0 30 -23 61 -50 74 -66 143 -101 180 -91 24 7 27 12 26 50 -2 77 -97
147 -227 166 l-48 7 3 116 3 117 70 18 c90 23 173 61 182 83 10 27 -40 64 -85
64 -35 0 -122 -19 -166 -36 -18 -7 -18 -3 -11 82 10 130 31 242 66 349 16 53
27 104 24 115 -9 28 -81 87 -140 114 -66 32 -116 40 -139 23z"/>
<path d="M1930 2727 c-14 -7 -26 -20 -28 -29 -4 -22 94 -155 169 -230 60 -60
87 -70 132 -47 77 40 88 100 34 189 -31 53 -36 56 -117 86 -105 39 -157 47
-190 31z"/>
<path d="M2491 2339 c-145 -50 -397 -100 -668 -132 l-111 -13 -42 48 c-46 54
-67 60 -75 23 -3 -14 -8 -37 -11 -52 -3 -16 -25 -78 -50 -140 -52 -131 -58
-202 -23 -247 61 -77 127 12 189 252 l11 42 49 0 c75 0 257 26 456 65 98 19
212 38 252 42 l72 6 0 -27 c0 -15 -13 -58 -30 -96 -16 -38 -30 -73 -30 -79 0
-13 37 -15 45 -2 10 18 159 69 260 90 118 25 137 38 108 75 -49 62 -150 129
-233 154 -69 20 -86 20 -169 -9z"/>
<path d="M2205 1876 c-44 -13 -138 -40 -210 -60 -217 -62 -240 -70 -240 -86 0
-24 54 -43 124 -43 126 -1 486 87 533 130 26 24 22 50 -12 68 -40 21 -100 18
-195 -9z"/>
<path d="M2435 1569 c-27 -5 -142 -32 -255 -59 -263 -63 -413 -93 -630 -125
-96 -14 -178 -29 -182 -33 -14 -14 127 -72 171 -72 22 0 92 13 158 30 65 16
153 36 197 44 l78 14 19 -43 c40 -90 54 -190 54 -390 0 -166 -2 -194 -18 -224
-18 -32 -20 -33 -65 -27 -105 15 -180 18 -185 9 -4 -6 23 -36 58 -67 36 -31
88 -93 118 -139 73 -111 77 -114 124 -90 49 24 89 83 109 163 15 58 16 88 5
290 -6 124 -11 263 -11 310 0 107 -13 155 -54 196 l-33 33 71 6 c39 3 148 10
241 15 333 20 415 50 338 122 -16 14 -43 30 -62 37 -39 13 -174 13 -246 0z"/>
<path d="M1636 1118 c-8 -18 -23 -55 -32 -82 -10 -27 -35 -75 -56 -107 -67
-105 -82 -140 -82 -201 -1 -73 24 -104 73 -93 98 21 213 341 169 470 -18 54
-52 60 -72 13z"/>
<path d="M2358 1105 c-15 -16 25 -66 134 -169 188 -179 287 -241 324 -204 24
24 35 87 23 133 -23 85 -90 139 -249 200 -92 35 -216 56 -232 40z"/>
</g>
</svg>
