<?xml version="1.0" standalone="no"?>
<!DOCTYPE svg PUBLIC "-//W3C//DTD SVG 20010904//EN"
 "http://www.w3.org/TR/2001/REC-SVG-20010904/DTD/svg10.dtd">
<svg version="1.0" xmlns="http://www.w3.org/2000/svg"
 width="340.000000pt" height="340.000000pt" viewBox="0 0 340.000000 340.000000"
 preserveAspectRatio="xMidYMid meet">
<metadata>
Created by potrace 1.15, written by Peter Selinger 2001-2017
</metadata>
<g transform="translate(0.000000,340.000000) scale(0.100000,-0.100000)"
fill="#000000" stroke="none">
<path d="M943 2779 c-8 -8 -4 -24 13 -58 13 -25 31 -82 39 -126 18 -92 36
-474 28 -574 l-6 -67 -140 -28 c-358 -72 -428 -105 -296 -136 55 -14 154 -9
291 12 43 6 80 9 83 6 11 -10 -28 -129 -74 -223 -61 -126 -178 -302 -318 -474
-155 -193 -163 -203 -163 -218 0 -49 198 100 316 238 82 96 187 250 255 374
l49 90 0 -105 c0 -129 -16 -406 -30 -518 -6 -46 -22 -126 -35 -178 -31 -118
-31 -163 0 -261 38 -122 70 -152 98 -96 44 86 57 239 64 710 l6 413 49 -66
c48 -63 126 -123 160 -124 37 0 50 76 23 134 -18 39 -71 68 -168 93 l-67 18 0
111 0 111 98 33 c111 36 188 75 197 99 11 28 -39 61 -93 61 -44 0 -128 -17
-176 -36 -19 -7 -19 -2 -13 177 8 206 26 349 57 436 16 46 18 63 10 84 -24 57
-221 124 -257 88z"/>
<path d="M2563 2386 c-102 -65 -157 -73 -315 -50 -39 5 -49 4 -54 -10 -4 -9 0
-24 9 -34 23 -25 36 -96 47 -255 21 -301 10 -585 -30 -797 -35 -185 -84 -306
-202 -500 -79 -128 -74 -151 14 -74 115 101 184 209 237 370 28 87 71 274 71
311 0 17 10 19 128 19 140 0 172 9 172 49 0 51 -73 68 -230 55 -39 -3 -55 -1
-54 8 1 7 2 72 3 146 l1 133 106 7 c137 10 158 17 149 54 -3 15 -13 33 -22 40
-23 17 -96 15 -165 -4 -32 -9 -60 -15 -62 -13 -3 2 -6 91 -8 197 -3 164 -1
193 12 197 21 6 241 45 256 45 7 0 15 -8 18 -17 12 -41 36 -390 47 -688 15
-440 1 -723 -38 -752 -22 -17 -77 -16 -137 2 -27 8 -63 15 -79 15 -30 0 -30
-1 40 -73 38 -39 92 -106 120 -148 65 -96 117 -143 143 -129 29 16 59 71 82
156 19 69 22 106 22 299 1 121 -5 310 -13 420 -31 468 -30 778 4 863 9 23 21
42 26 42 16 0 9 47 -11 72 -26 34 -107 67 -177 73 -52 4 -63 1 -110 -29z"/>
<path d="M1781 2319 c-75 -54 -149 -75 -214 -60 -27 6 -64 11 -84 11 -33 0
-35 -2 -30 -27 3 -16 16 -55 31 -89 39 -93 49 -184 43 -404 -9 -331 -72 -590
-207 -846 -63 -120 -85 -184 -62 -184 28 0 100 71 150 148 73 112 123 231 158
369 l27 110 66 -4 c36 -2 86 0 111 4 39 7 45 12 48 36 5 42 -44 59 -144 50
l-77 -6 6 69 c4 38 9 106 13 152 l7 82 76 1 c42 0 92 5 111 12 31 11 35 16 35
47 l0 35 -51 3 c-28 2 -78 -3 -111 -11 l-60 -14 -7 185 c-4 101 -6 186 -4 188
9 9 153 34 194 34 65 0 67 -9 72 -320 5 -351 -24 -817 -61 -965 l-12 -50 -88
0 c-102 0 -107 -7 -52 -72 33 -39 75 -115 105 -190 14 -37 21 -39 54 -18 33
22 69 79 95 150 45 125 51 195 61 710 5 269 14 521 19 560 11 80 34 151 57
176 12 13 13 22 5 37 -22 41 -95 93 -159 112 -35 11 -65 20 -66 20 0 -1 -25
-19 -55 -41z"/>
</g>
</svg>
