<?xml version="1.0" standalone="no"?>
<!DOCTYPE svg PUBLIC "-//W3C//DTD SVG 20010904//EN"
 "http://www.w3.org/TR/2001/REC-SVG-20010904/DTD/svg10.dtd">
<svg version="1.0" xmlns="http://www.w3.org/2000/svg"
 width="340.000000pt" height="340.000000pt" viewBox="0 0 340.000000 340.000000"
 preserveAspectRatio="xMidYMid meet">
<metadata>
Created by potrace 1.15, written by Peter Selinger 2001-2017
</metadata>
<g transform="translate(0.000000,340.000000) scale(0.100000,-0.100000)"
fill="#000000" stroke="none">
<path d="M906 2664 c-3 -9 8 -48 25 -87 51 -116 89 -354 89 -563 0 -77 -1 -82
-22 -87 -13 -2 -122 -24 -243 -47 -121 -23 -232 -47 -247 -52 -34 -13 -36 -33
-5 -50 35 -20 214 -14 331 11 55 12 101 19 104 16 9 -9 -51 -159 -110 -274
-72 -141 -175 -299 -318 -487 -146 -192 -158 -230 -48 -151 160 114 340 339
497 621 l59 108 8 -48 c9 -65 -4 -424 -22 -564 -8 -63 -28 -171 -45 -239 -23
-89 -30 -137 -26 -170 8 -68 46 -162 79 -195 27 -27 30 -27 47 -12 45 41 61
218 61 691 l0 359 38 -35 c129 -124 202 -141 202 -49 0 84 -66 135 -172 134
l-68 -1 0 177 0 178 66 11 c87 16 219 58 233 75 9 11 8 18 -4 30 -14 13 -37
18 -95 18 -3 0 -47 -2 -97 -6 l-93 -7 0 153 c0 165 11 285 37 387 l16 65 -31
27 c-31 28 -172 79 -216 79 -13 0 -27 -7 -30 -16z"/>
<path d="M2225 2539 c-190 -65 -636 -138 -720 -119 -22 5 -66 10 -97 10 -67 0
-73 -11 -33 -64 53 -70 97 -185 199 -527 41 -137 86 -174 127 -104 11 19 28
36 37 39 29 9 153 36 163 36 5 0 9 -54 9 -124 l0 -124 -27 -6 c-56 -12 -222
-35 -358 -51 -77 -10 -142 -19 -144 -21 -11 -10 13 -34 55 -54 l47 -23 146 28
c80 15 156 32 169 36 12 5 22 5 22 1 0 -16 -93 -159 -146 -225 -77 -95 -204
-219 -341 -334 -64 -54 -118 -104 -121 -110 -7 -23 37 -14 114 22 203 93 384
263 524 490 24 39 48 75 53 80 6 6 7 -60 4 -185 -7 -217 -20 -361 -44 -495
-24 -136 -14 -213 37 -286 33 -45 57 -38 85 24 35 76 42 169 34 440 -13 389
-14 467 -9 465 3 -2 53 -55 110 -118 57 -63 169 -184 249 -267 l144 -153 121
0 c144 0 340 16 379 32 15 6 27 18 27 28 0 21 -26 31 -135 55 -253 56 -555
215 -813 431 -78 64 -93 81 -90 102 2 19 11 28 32 33 56 15 272 39 445 49 96
6 192 15 213 21 36 9 39 13 36 41 -4 40 -38 65 -107 78 -104 19 -177 13 -288
-26 -124 -42 -314 -87 -326 -75 -4 4 -6 61 -5 127 l3 119 98 17 99 17 25 -29
c14 -17 35 -30 47 -30 37 0 89 63 156 188 76 143 156 256 227 321 29 27 53 53
53 57 0 22 -43 76 -82 105 -24 17 -74 47 -113 65 -92 45 -143 44 -290 -7z
m137 -144 c-6 -130 -47 -318 -95 -428 l-20 -49 -42 6 c-23 4 -72 0 -114 -9
-40 -8 -77 -15 -82 -15 -6 0 -9 35 -7 87 l3 87 95 19 c144 28 211 69 166 103
-25 18 -52 18 -158 -4 l-88 -18 0 25 c0 14 7 51 15 81 14 52 13 55 -7 77 -12
12 -29 25 -40 29 -37 11 -16 22 80 39 154 28 194 33 247 31 l50 -1 -3 -60z
m-489 -59 c13 -24 22 -66 25 -110 l4 -72 -82 -17 c-88 -17 -112 -29 -93 -48
15 -15 79 -28 136 -29 l48 0 -3 -92 -3 -93 -95 -21 c-52 -11 -96 -20 -98 -19
-6 4 -122 418 -128 455 -6 35 -4 40 17 45 13 3 60 14 104 24 117 28 144 25
168 -23z"/>
</g>
</svg>
