<?xml version="1.0" standalone="no"?>
<!DOCTYPE svg PUBLIC "-//W3C//DTD SVG 20010904//EN"
 "http://www.w3.org/TR/2001/REC-SVG-20010904/DTD/svg10.dtd">
<svg version="1.0" xmlns="http://www.w3.org/2000/svg"
 width="340.000000pt" height="340.000000pt" viewBox="0 0 340.000000 340.000000"
 preserveAspectRatio="xMidYMid meet">
<metadata>
Created by potrace 1.15, written by Peter Selinger 2001-2017
</metadata>
<g transform="translate(0.000000,340.000000) scale(0.100000,-0.100000)"
fill="#000000" stroke="none">
<path d="M1948 2943 c-25 -6 -23 -25 13 -94 53 -106 71 -194 76 -386 3 -95 3
-173 0 -173 -3 0 -70 -9 -149 -21 -124 -18 -152 -19 -208 -9 -126 23 -156 1
-105 -79 52 -84 116 -258 156 -426 23 -101 40 -140 65 -149 18 -7 54 19 54 39
0 14 18 20 91 30 46 7 47 7 58 -27 20 -62 41 -163 41 -199 l0 -36 -162 -27
c-223 -35 -407 -56 -505 -56 -45 0 -85 -4 -88 -10 -11 -18 26 -58 73 -78 83
-36 106 -36 262 2 130 31 245 53 383 72 l47 6 0 -188 c1 -229 17 -697 25 -739
7 -33 35 -44 55 -20 35 43 60 333 60 711 l0 242 23 6 c47 15 414 19 567 7 181
-15 210 -10 210 38 0 41 -49 95 -106 117 -77 29 -285 13 -656 -52 l-37 -6 6
74 c6 82 -6 120 -52 156 -32 25 -24 28 92 37 l90 7 7 -26 c5 -22 12 -27 34
-24 37 4 92 81 138 192 55 134 117 254 163 315 23 30 41 62 41 72 0 28 -86 96
-165 128 -40 17 -79 31 -86 31 -6 0 -43 -12 -82 -26 -39 -14 -103 -34 -141
-44 l-69 -20 7 167 c4 92 8 168 9 170 2 1 21 -2 43 -8 68 -20 208 -5 305 30
123 45 148 82 76 112 -48 20 -125 14 -188 -15 -69 -32 -225 -73 -236 -63 -4 5
3 36 15 71 12 34 20 69 17 77 -7 19 -89 72 -134 87 -33 12 -99 14 -133 5z
m470 -690 c13 -32 6 -197 -12 -263 -9 -36 -28 -98 -42 -137 -25 -70 -27 -73
-52 -65 -42 11 -151 5 -219 -12 -81 -21 -247 -55 -251 -51 -6 5 -34 186 -30
191 3 2 63 9 133 14 213 16 295 37 295 75 0 22 -59 55 -98 55 -56 0 -184 -30
-257 -61 -38 -16 -75 -29 -81 -29 -9 0 -47 182 -45 214 1 19 432 83 574 85 65
1 79 -2 85 -16z"/>
<path d="M973 2924 c-2 -7 11 -48 30 -91 64 -141 97 -316 97 -509 0 -88 -2
-102 -17 -107 -10 -3 -92 -31 -183 -62 -91 -31 -212 -69 -269 -84 -96 -25
-137 -48 -119 -66 14 -14 87 -25 170 -25 112 0 225 24 351 75 27 11 21 -7 -34
-118 -97 -196 -282 -447 -512 -695 -124 -134 -117 -156 21 -73 206 124 384
309 542 566 l62 100 -7 -130 c-9 -191 -32 -405 -65 -622 -23 -154 -27 -203
-20 -247 17 -107 72 -192 108 -170 46 29 47 40 50 577 2 359 6 507 14 507 6 0
54 -31 108 -70 106 -77 147 -92 173 -65 26 25 22 88 -8 123 -33 39 -86 59
-195 74 l-91 12 3 136 3 135 94 32 c133 46 195 83 199 118 2 16 -2 32 -10 36
-25 16 -156 10 -213 -10 l-55 -19 0 66 c0 80 23 284 46 402 l16 85 -42 37
c-54 49 -117 78 -186 87 -42 6 -57 5 -61 -5z"/>
</g>
</svg>
