<?xml version="1.0" standalone="no"?>
<!DOCTYPE svg PUBLIC "-//W3C//DTD SVG 20010904//EN"
 "http://www.w3.org/TR/2001/REC-SVG-20010904/DTD/svg10.dtd">
<svg version="1.0" xmlns="http://www.w3.org/2000/svg"
 width="340.000000pt" height="340.000000pt" viewBox="0 0 340.000000 340.000000"
 preserveAspectRatio="xMidYMid meet">
<metadata>
Created by potrace 1.15, written by Peter Selinger 2001-2017
</metadata>
<g transform="translate(0.000000,340.000000) scale(0.100000,-0.100000)"
fill="#000000" stroke="none">
<path d="M914 2926 c-4 -19 2 -35 26 -64 17 -22 38 -61 45 -87 25 -80 35 -250
28 -442 l-6 -182 -71 -16 c-39 -9 -152 -34 -250 -55 -98 -22 -184 -44 -190
-50 -18 -18 6 -43 60 -64 60 -22 149 -18 302 14 57 12 105 20 107 18 2 -2 -31
-73 -73 -158 -117 -233 -236 -416 -413 -635 -62 -77 -98 -140 -86 -151 41 -41
376 370 584 717 l32 54 0 -95 c0 -52 -4 -140 -9 -195 -5 -55 -16 -180 -25
-277 -8 -97 -24 -225 -36 -285 -33 -178 -33 -176 -9 -249 69 -212 127 -202
149 27 10 96 31 705 31 897 l0 82 72 -75 c69 -73 73 -76 112 -73 40 3 41 4 44
44 2 24 -5 59 -17 87 -23 53 -60 76 -158 98 l-53 12 0 57 c0 32 3 77 6 102 l6
44 71 22 c121 38 171 86 136 128 -12 14 -29 16 -113 11 l-99 -5 7 101 c12 177
36 364 60 458 26 105 22 122 -39 156 -43 24 -148 53 -194 53 -24 0 -32 -5 -37
-24z"/>
<path d="M1920 2474 c-268 -73 -479 -127 -560 -144 -124 -25 -119 -60 10 -78
39 -6 47 -12 63 -44 27 -54 36 -129 43 -357 5 -176 -7 -596 -18 -607 -2 -1
-68 -22 -146 -45 -78 -24 -142 -48 -142 -53 0 -15 112 -86 134 -86 16 0 437
215 480 246 11 8 24 14 29 14 11 0 3 -63 -29 -234 -37 -197 -30 -301 23 -354
25 -25 25 -25 45 -5 13 14 22 42 28 89 10 75 30 417 30 501 l0 52 57 26 c68
31 93 51 93 77 0 23 -45 25 -97 3 -19 -8 -39 -15 -44 -15 -20 0 -3 504 22 645
6 32 17 72 25 87 18 35 7 56 -53 94 -24 15 -40 31 -36 35 4 4 35 14 68 24 136
38 245 92 245 120 0 55 -92 58 -270 9z m-111 -192 c19 -35 24 -197 16 -533
l-7 -336 -67 -33 c-36 -18 -90 -43 -118 -56 l-53 -24 0 140 0 140 53 0 c28 0
69 5 89 10 61 17 75 73 21 86 -25 7 -119 -1 -147 -12 -14 -5 -16 9 -16 116 l0
122 50 -7 c59 -8 113 7 135 38 19 27 19 32 -1 51 -20 20 -79 20 -134 1 -23 -8
-44 -15 -46 -15 -2 0 -4 36 -4 80 0 93 -15 137 -56 167 -16 12 -26 25 -22 28
6 6 241 50 285 54 7 1 17 -7 22 -17z"/>
<path d="M2605 2440 c-52 -42 -136 -84 -209 -105 -51 -15 -71 -16 -146 -6 -59
8 -97 8 -114 1 -31 -12 -32 -14 -5 -56 55 -89 66 -342 44 -1009 -21 -633 -14
-900 24 -938 17 -17 30 2 46 64 43 164 64 549 74 1319 l6 535 125 37 c138 41
200 48 200 22 0 -8 -43 -105 -95 -215 -52 -109 -97 -210 -101 -224 -5 -21 6
-38 76 -112 159 -170 223 -301 190 -389 l-11 -27 -150 6 c-174 7 -175 6 -56
-70 37 -24 111 -84 163 -133 91 -86 95 -88 125 -78 64 22 115 135 126 281 6
75 5 80 -32 154 -46 93 -132 182 -257 267 -48 32 -90 66 -93 74 -6 16 34 91
96 184 56 82 148 186 218 243 73 61 78 88 26 134 -35 31 -102 55 -185 66 -41
6 -49 3 -85 -25z"/>
</g>
</svg>
