<?xml version="1.0" standalone="no"?>
<!DOCTYPE svg PUBLIC "-//W3C//DTD SVG 20010904//EN"
 "http://www.w3.org/TR/2001/REC-SVG-20010904/DTD/svg10.dtd">
<svg version="1.0" xmlns="http://www.w3.org/2000/svg"
 width="340.000000pt" height="340.000000pt" viewBox="0 0 340.000000 340.000000"
 preserveAspectRatio="xMidYMid meet">
<metadata>
Created by potrace 1.15, written by Peter Selinger 2001-2017
</metadata>
<g transform="translate(0.000000,340.000000) scale(0.100000,-0.100000)"
fill="#000000" stroke="none">
<path d="M2127 2833 c-13 -12 -7 -40 14 -67 37 -47 50 -113 59 -316 8 -152 7
-197 -3 -206 -6 -7 -59 -23 -117 -35 -58 -12 -111 -28 -118 -34 -23 -21 12
-37 97 -42 l80 -6 -25 -56 c-39 -88 -123 -215 -193 -292 l-64 -70 -48 53 c-26
29 -48 57 -49 61 0 5 28 47 61 94 58 79 61 86 48 109 -16 30 -86 84 -110 84
-17 0 -29 -27 -29 -71 0 -28 -43 -121 -65 -139 -10 -9 -24 -4 -62 23 -53 38
-106 67 -123 67 -22 0 -7 -26 50 -86 33 -34 60 -70 60 -79 0 -26 -89 -112
-180 -174 -98 -66 -108 -81 -53 -81 46 0 149 51 245 120 l67 49 31 -37 c16
-20 45 -66 64 -102 42 -80 67 -104 96 -95 20 6 21 13 19 88 l-2 80 52 35 c67
45 160 147 219 240 57 91 60 82 38 -92 -27 -213 -28 -233 -16 -308 22 -132 56
-161 95 -83 18 35 20 64 23 243 2 111 6 202 8 202 8 0 121 -78 199 -136 99
-74 120 -82 146 -58 16 15 20 27 16 56 -12 88 -88 138 -255 167 l-97 17 -3
100 -3 100 82 13 c104 16 217 45 274 70 37 16 45 25 45 46 0 55 -93 57 -283 6
-94 -25 -107 -27 -107 -12 0 9 7 77 15 151 14 138 26 206 45 254 17 45 -9 79
-91 120 -67 34 -135 47 -152 29z"/>
<path d="M1785 2708 c-2 -7 -6 -40 -8 -74 -5 -58 -37 -143 -72 -188 -14 -18
-16 -18 -83 12 -63 28 -173 62 -201 62 -32 0 0 -32 90 -89 55 -35 103 -70 106
-77 6 -17 -60 -106 -158 -209 -74 -79 -88 -105 -55 -105 24 0 191 119 246 174
30 31 60 56 66 56 6 0 29 -21 49 -47 73 -92 112 -108 135 -54 19 47 3 88 -56
149 -29 30 -50 60 -46 66 3 6 41 56 83 112 90 117 90 120 -7 184 -62 42 -82
48 -89 28z"/>
<path d="M1021 2696 c-10 -11 -8 -24 8 -58 28 -63 41 -146 43 -297 l3 -134
-102 -27 c-56 -15 -142 -35 -191 -45 -139 -27 -146 -43 -27 -64 73 -13 153
-13 215 -1 25 4 46 7 48 5 2 -2 -21 -52 -52 -112 -67 -134 -171 -292 -263
-397 -37 -43 -72 -84 -78 -92 -18 -25 4 -26 52 -3 69 32 251 220 342 351 41
59 77 106 79 104 2 -2 -4 -58 -12 -125 -9 -67 -19 -161 -22 -209 -5 -82 -4
-90 23 -142 32 -61 47 -71 63 -40 14 27 29 217 30 373 0 64 3 117 8 117 4 0
41 -34 82 -75 76 -77 105 -90 130 -60 16 19 15 77 -1 106 -14 28 -85 58 -156
67 l-58 7 0 89 0 89 82 18 c144 31 207 70 170 106 -29 30 -115 28 -221 -4 -18
-5 -19 -1 -13 88 3 52 16 141 28 198 l22 104 -27 22 c-56 44 -182 69 -205 41z"/>
<path d="M1478 1524 c-13 -12 -9 -43 9 -70 10 -16 18 -54 21 -104 5 -95 33
-82 -248 -110 -188 -18 -313 -28 -567 -46 -82 -5 -93 -8 -93 -25 0 -28 37 -56
98 -77 55 -18 57 -18 148 4 84 20 425 73 582 90 76 8 76 9 29 -128 -93 -268
-304 -462 -630 -577 -108 -38 -127 -48 -127 -66 0 -19 9 -19 135 5 431 84 683
305 787 693 l13 49 85 -123 c122 -176 338 -464 398 -530 65 -71 100 -80 335
-87 206 -5 338 4 364 24 17 13 17 15 -2 29 -11 9 -38 20 -60 26 -385 97 -697
287 -977 597 -48 53 -84 99 -80 103 14 13 393 30 772 36 232 3 390 9 398 15
15 13 15 48 -1 69 -25 32 -99 77 -145 89 -42 10 -80 7 -268 -20 -239 -34 -751
-100 -773 -100 -11 0 -13 12 -7 63 13 120 17 109 -46 141 -58 29 -136 45 -150
30z"/>
</g>
</svg>
