<?xml version="1.0" standalone="no"?>
<!DOCTYPE svg PUBLIC "-//W3C//DTD SVG 20010904//EN"
 "http://www.w3.org/TR/2001/REC-SVG-20010904/DTD/svg10.dtd">
<svg version="1.0" xmlns="http://www.w3.org/2000/svg"
 width="340.000000pt" height="340.000000pt" viewBox="0 0 340.000000 340.000000"
 preserveAspectRatio="xMidYMid meet">
<metadata>
Created by potrace 1.15, written by Peter Selinger 2001-2017
</metadata>
<g transform="translate(0.000000,340.000000) scale(0.100000,-0.100000)"
fill="#000000" stroke="none">
<path d="M892 2818 c3 -18 16 -71 30 -118 34 -113 47 -224 55 -470 l6 -205
-54 -17 c-30 -10 -141 -40 -247 -67 -227 -58 -262 -77 -189 -100 93 -29 234
-17 371 33 l66 24 0 -22 c0 -40 -61 -219 -110 -323 -86 -182 -203 -359 -363
-546 -63 -74 -73 -97 -44 -97 21 0 120 70 181 129 114 110 215 252 337 474
l50 92 -6 -170 c-11 -305 -37 -588 -71 -772 -14 -74 -14 -89 0 -143 9 -33 25
-78 36 -100 41 -80 73 -62 94 50 23 122 36 363 39 732 1 192 4 348 7 348 3 0
33 -32 68 -70 51 -56 69 -70 92 -70 34 0 50 23 50 70 0 63 -35 92 -150 120
l-65 16 -3 151 -3 151 58 12 c144 28 232 74 218 112 -12 30 -80 51 -142 45
-32 -3 -69 -9 -82 -13 l-24 -7 6 199 c6 195 23 332 52 416 l14 43 -37 39 c-51
53 -124 86 -191 86 l-53 0 4 -32z"/>
<path d="M2470 2774 c-60 -41 -132 -75 -209 -98 -50 -15 -56 -14 -114 5 -46
16 -66 18 -84 10 l-22 -10 24 -66 c38 -99 49 -229 40 -460 -10 -272 -10 -275
19 -303 l24 -24 16 25 c31 46 38 151 34 454 l-4 292 108 26 c120 29 227 41
246 27 21 -14 28 -480 9 -611 -9 -57 -14 -109 -12 -115 2 -6 6 -24 10 -39 8
-38 43 -33 67 9 34 59 49 161 57 399 8 229 8 230 39 302 18 40 32 78 32 86 0
23 -177 127 -216 127 -7 0 -35 -16 -64 -36z"/>
<path d="M1766 2670 c-21 -12 -79 -35 -129 -52 -78 -26 -106 -30 -182 -29
-125 1 -128 -2 -76 -88 56 -93 65 -159 57 -436 -6 -189 -5 -214 11 -245 24
-46 45 -44 62 5 15 45 21 503 7 607 l-7 57 68 20 c149 43 225 51 259 27 20
-14 21 -28 27 -223 3 -114 2 -264 -3 -333 -10 -136 -7 -165 18 -175 26 -10 59
37 70 97 6 29 13 164 16 300 4 192 9 257 22 290 38 103 30 122 -73 170 -74 33
-96 35 -147 8z"/>
<path d="M2308 2512 c-22 -4 -22 0 4 -58 21 -45 23 -64 23 -234 0 -214 -13
-284 -77 -418 -28 -59 -59 -104 -107 -155 -113 -119 -114 -144 -3 -88 62 31
143 110 191 187 l31 48 129 -132 c70 -73 132 -132 137 -132 34 1 57 50 48 107
-13 86 -93 143 -229 162 -37 6 -69 12 -71 14 -2 2 5 42 15 88 24 100 41 250
41 353 0 41 5 98 11 126 10 48 9 53 -13 77 -36 39 -94 63 -130 55z"/>
<path d="M1620 2384 c0 -9 10 -48 21 -87 19 -61 21 -85 16 -187 -18 -325 -117
-576 -285 -719 -25 -22 -44 -43 -41 -46 9 -8 98 42 148 82 58 48 123 133 167
218 21 39 38 72 40 74 2 2 46 -37 98 -87 95 -92 122 -106 146 -77 15 19 7 77
-15 112 -19 28 -119 79 -176 88 -21 4 -39 11 -39 15 0 5 6 39 14 77 8 37 20
124 26 193 6 69 15 160 21 204 10 75 9 79 -13 103 -41 46 -128 70 -128 37z"/>
<path d="M1844 1482 c-7 -4 -12 -35 -12 -73 1 -93 -19 -168 -46 -179 -22 -9
-522 -60 -588 -60 -32 0 -38 -3 -38 -21 0 -12 16 -37 36 -55 30 -29 43 -34 83
-34 47 0 205 29 382 71 50 11 92 19 94 17 2 -2 -14 -39 -36 -82 -51 -101 -50
-112 4 -126 129 -33 190 -51 242 -71 l59 -22 -59 -55 c-108 -100 -300 -211
-522 -300 -80 -32 -104 -52 -64 -52 40 0 191 32 286 62 167 51 307 126 427
230 l57 49 68 -48 c37 -26 132 -96 209 -154 147 -110 240 -169 267 -169 9 0
24 14 32 31 23 43 12 96 -34 166 -76 117 -143 165 -346 248 -49 20 -93 40 -97
44 -5 4 9 49 31 101 21 52 44 113 51 135 7 22 17 46 23 53 7 9 79 12 298 12
163 0 299 4 313 10 16 6 26 17 26 29 0 28 -70 86 -136 111 l-59 22 -114 -27
c-62 -15 -152 -33 -199 -40 l-87 -13 -35 28 c-46 36 -94 60 -120 60 -18 0 -20
-6 -20 -60 l0 -60 -52 0 c-29 0 -95 -5 -147 -10 -52 -6 -96 -8 -99 -6 -2 3 13
43 33 91 35 81 36 87 20 105 -34 37 -104 60 -131 42z m341 -324 c-10 -45 -74
-201 -88 -214 -9 -9 -43 -4 -139 20 -70 17 -133 37 -139 43 -10 10 -5 27 22
80 l34 68 145 16 c80 9 151 17 158 18 10 1 12 -7 7 -31z"/>
</g>
</svg>
