<?xml version="1.0" standalone="no"?>
<!DOCTYPE svg PUBLIC "-//W3C//DTD SVG 20010904//EN"
 "http://www.w3.org/TR/2001/REC-SVG-20010904/DTD/svg10.dtd">
<svg version="1.0" xmlns="http://www.w3.org/2000/svg"
 width="340.000000pt" height="340.000000pt" viewBox="0 0 340.000000 340.000000"
 preserveAspectRatio="xMidYMid meet">
<metadata>
Created by potrace 1.15, written by Peter Selinger 2001-2017
</metadata>
<g transform="translate(0.000000,340.000000) scale(0.100000,-0.100000)"
fill="#000000" stroke="none">
<path d="M810 2715 c0 -8 9 -41 19 -72 53 -156 73 -310 69 -522 l-3 -144 -190
-43 c-244 -54 -258 -58 -262 -71 -5 -14 78 -42 147 -49 42 -5 83 1 178 26 68
17 126 29 129 27 6 -7 -58 -159 -113 -269 -84 -167 -219 -373 -334 -508 -88
-104 -127 -170 -102 -170 17 0 165 125 232 196 110 117 204 248 289 405 l41
74 0 -110 c0 -213 -26 -490 -66 -707 -24 -132 -24 -139 -9 -200 23 -91 53
-148 76 -148 31 0 50 60 65 200 15 139 34 575 34 775 l0 129 48 -46 c54 -52
80 -68 115 -68 52 0 60 59 14 108 -22 24 -102 52 -149 52 l-28 0 0 160 0 160
28 5 c15 4 51 14 80 25 29 10 55 14 58 9 7 -12 60 -12 100 0 l31 9 7 -52 c8
-67 8 -300 -1 -610 l-6 -249 -41 -17 c-23 -10 -76 -26 -118 -35 -43 -9 -78
-21 -78 -27 0 -19 113 -128 134 -128 11 0 63 29 116 64 101 68 337 206 353
206 16 0 -9 -210 -44 -371 -20 -91 -21 -98 -5 -151 32 -109 88 -142 125 -71
27 54 33 117 40 397 l6 249 74 46 c125 78 125 109 0 68 -44 -15 -84 -27 -89
-27 -10 0 -6 176 11 501 10 182 10 209 -4 236 -20 37 -15 43 34 43 45 0 197
28 221 41 27 15 22 37 -14 59 -44 26 -86 25 -224 -6 -63 -15 -117 -24 -120
-21 -11 11 71 149 136 229 36 44 69 86 74 93 24 33 -72 109 -155 123 -41 7
-48 5 -102 -35 -58 -42 -141 -74 -227 -88 -90 -13 -101 -27 -54 -64 47 -37
141 -36 293 6 24 6 24 6 18 -58 -5 -60 -51 -226 -65 -240 -4 -4 -83 -19 -177
-33 -93 -15 -185 -29 -202 -32 -30 -6 -33 -4 -33 20 0 24 -3 26 -43 26 -24 0
-66 -7 -93 -15 -27 -8 -51 -15 -53 -15 -8 0 9 195 25 290 9 52 29 135 45 184
27 81 28 91 14 112 -48 74 -150 134 -227 134 -36 0 -48 -4 -48 -15z m854 -749
c21 -85 31 -475 17 -690 l-6 -99 -115 -43 c-63 -24 -123 -47 -133 -50 -16 -5
-17 4 -15 132 l3 138 74 13 c95 18 131 36 131 67 0 16 -7 26 -23 30 -21 5
-130 -14 -169 -29 -17 -7 -18 2 -18 104 l0 111 68 0 c85 0 136 23 140 63 3 26
1 27 -41 27 -24 0 -69 -9 -100 -19 -31 -11 -59 -17 -61 -13 -2 4 2 43 10 85
13 70 13 81 -1 109 -8 17 -14 33 -12 34 4 4 209 52 228 53 10 1 19 -9 23 -23z"/>
<path d="M2192 2677 c-7 -8 -10 -16 -7 -19 17 -16 24 -119 15 -197 -13 -106
-69 -321 -116 -450 -44 -119 -150 -336 -203 -416 -22 -33 -35 -62 -30 -64 6
-2 28 5 50 15 l39 17 31 -29 c66 -62 229 -292 229 -322 0 -21 -136 -141 -230
-202 -188 -123 -197 -137 -63 -100 87 24 204 82 277 138 79 60 76 59 89 40 7
-9 49 -70 95 -137 46 -66 100 -139 120 -161 35 -39 42 -42 110 -51 100 -12
465 12 478 32 8 14 -41 39 -149 79 -194 70 -371 170 -527 296 l-68 54 30 103
c27 91 90 361 105 444 4 28 -1 39 -47 87 -59 62 -62 59 58 75 78 10 262 65
324 97 63 33 53 74 -23 94 -51 14 -77 8 -219 -47 -152 -60 -390 -144 -390
-138 0 3 16 37 35 75 44 87 105 240 139 349 15 47 38 114 53 149 25 64 25 64
6 91 -21 28 -132 96 -174 106 -16 4 -30 1 -37 -8z m105 -834 c11 -46 8 -313
-5 -380 -7 -34 -20 -85 -28 -114 l-16 -52 -44 68 c-54 82 -165 217 -195 237
-22 14 -22 14 44 116 37 55 70 108 73 116 4 11 20 16 48 17 22 1 55 5 71 9 17
4 33 8 37 9 4 0 11 -11 15 -26z"/>
</g>
</svg>
