<?xml version="1.0" standalone="no"?>
<!DOCTYPE svg PUBLIC "-//W3C//DTD SVG 20010904//EN"
 "http://www.w3.org/TR/2001/REC-SVG-20010904/DTD/svg10.dtd">
<svg version="1.0" xmlns="http://www.w3.org/2000/svg"
 width="340.000000pt" height="340.000000pt" viewBox="0 0 340.000000 340.000000"
 preserveAspectRatio="xMidYMid meet">
<metadata>
Created by potrace 1.15, written by Peter Selinger 2001-2017
</metadata>
<g transform="translate(0.000000,340.000000) scale(0.100000,-0.100000)"
fill="#000000" stroke="none">
<path d="M2004 2613 c23 -134 21 -155 -30 -310 -56 -175 -170 -407 -290 -593
-108 -168 -114 -185 -45 -150 51 26 163 146 228 246 49 76 57 84 86 84 38 0
137 18 337 60 80 16 151 28 159 25 21 -8 6 -75 -40 -182 -39 -93 -47 -123 -31
-123 9 0 23 10 171 124 47 36 122 86 169 112 46 26 86 54 89 61 14 36 -123
131 -253 177 -40 14 -43 13 -110 -21 -135 -69 -299 -124 -442 -148 l-43 -7 47
73 c26 39 84 149 130 243 45 94 94 186 108 205 33 45 33 54 -5 86 -58 48 -124
75 -185 75 l-56 0 6 -37z"/>
<path d="M1470 2453 c-14 -2 -81 -22 -150 -45 -250 -80 -438 -105 -556 -74
-78 20 -134 21 -134 2 0 -8 14 -43 30 -79 17 -35 34 -89 39 -118 5 -30 5 -297
1 -594 -6 -419 -12 -559 -24 -625 -18 -98 -37 -159 -66 -205 -11 -18 -20 -41
-20 -51 0 -20 57 -85 98 -112 21 -14 25 -12 66 26 24 22 63 50 85 62 74 37
322 86 600 119 136 15 167 22 184 39 19 20 19 22 3 46 -41 64 -124 77 -261 43
-121 -31 -555 -120 -559 -115 -1 1 1 46 5 98 4 52 13 372 19 710 6 338 13 620
15 626 2 6 43 14 97 18 307 23 671 90 712 132 49 48 -81 117 -184 97z"/>
<path d="M1364 2033 c1 -91 -4 -123 -27 -203 -28 -92 -65 -190 -73 -190 -2 0
-68 65 -147 145 -215 220 -224 195 -32 -89 l125 -184 -51 -89 c-66 -115 -170
-272 -227 -341 -51 -63 -47 -82 15 -62 52 17 190 158 271 278 35 51 67 90 72
87 5 -3 46 -64 91 -136 74 -117 126 -179 149 -179 5 0 18 12 29 26 25 31 28
89 7 138 -15 37 -115 187 -165 250 -30 38 -30 39 -15 75 14 30 55 139 163 429
l16 44 -45 40 c-49 44 -96 68 -133 68 -24 0 -24 -1 -23 -107z"/>
<path d="M1963 1694 c3 -21 11 -70 17 -109 14 -92 -3 -289 -37 -405 -73 -256
-216 -440 -460 -591 -110 -69 -131 -85 -120 -96 11 -10 112 19 184 53 274 130
450 338 523 618 l26 98 43 -93 c60 -130 183 -358 246 -455 29 -45 56 -91 59
-102 21 -64 229 -95 505 -75 69 4 94 10 99 21 9 25 -41 58 -141 91 -186 62
-333 150 -466 276 -128 123 -321 383 -321 434 0 12 14 78 31 146 17 68 29 130
26 137 -10 26 -113 79 -167 85 l-53 6 6 -39z"/>
</g>
</svg>
