<?xml version="1.0" standalone="no"?>
<!DOCTYPE svg PUBLIC "-//W3C//DTD SVG 20010904//EN"
 "http://www.w3.org/TR/2001/REC-SVG-20010904/DTD/svg10.dtd">
<svg version="1.0" xmlns="http://www.w3.org/2000/svg"
 width="340.000000pt" height="340.000000pt" viewBox="0 0 340.000000 340.000000"
 preserveAspectRatio="xMidYMid meet">
<metadata>
Created by potrace 1.15, written by Peter Selinger 2001-2017
</metadata>
<g transform="translate(0.000000,340.000000) scale(0.100000,-0.100000)"
fill="#000000" stroke="none">
<path d="M1830 2881 c0 -7 13 -40 30 -74 43 -91 54 -174 54 -422 l1 -220 -80
-27 c-77 -26 -165 -37 -165 -20 0 5 18 34 40 65 24 33 38 62 34 71 -8 21 -120
94 -157 102 -16 3 -33 2 -38 -3 -5 -5 -11 -52 -12 -104 -4 -105 -36 -214 -108
-362 -24 -51 -35 -83 -28 -86 17 -5 114 96 181 190 l61 86 51 -19 c41 -16 69
-19 139 -16 l87 4 0 -137 0 -137 -112 -31 c-62 -17 -187 -48 -277 -68 -94 -22
-166 -43 -169 -51 -2 -7 13 -19 35 -28 33 -14 52 -15 148 -5 99 10 184 25 269
47 l29 7 -42 -78 c-137 -255 -335 -460 -637 -661 -157 -104 -181 -130 -112
-121 112 15 387 187 550 345 119 115 191 204 268 332 l52 85 -6 -235 c-6 -253
-24 -447 -55 -603 -18 -90 -18 -103 -4 -170 18 -90 45 -152 71 -166 48 -26 79
21 92 142 9 74 -4 981 -14 1030 -8 37 12 11 104 -131 126 -195 286 -407 348
-464 34 -30 64 -47 89 -52 84 -13 392 0 456 20 24 7 21 31 -5 48 -13 8 -72 31
-133 51 -279 93 -528 259 -707 473 -80 95 -142 181 -136 187 2 2 102 20 222
39 200 33 360 67 373 79 12 13 -23 51 -65 69 -70 31 -166 35 -243 10 -58 -19
-259 -72 -273 -72 -3 0 -6 64 -6 143 l0 143 133 33 c72 18 170 45 217 60 75
24 85 30 85 50 0 66 -111 84 -226 36 -57 -24 -198 -75 -206 -75 -6 0 -3 93 8
188 13 129 44 255 75 318 25 49 25 53 10 82 -23 45 -143 102 -230 109 -48 4
-66 2 -66 -6z"/>
<path d="M1045 2414 c-177 -63 -344 -112 -404 -120 -52 -7 -70 -24 -45 -45 18
-15 175 -30 227 -22 44 7 46 0 22 -92 -33 -126 -135 -313 -294 -539 -82 -117
-107 -166 -82 -166 12 0 81 47 113 77 17 16 33 23 45 19 10 -3 62 -49 115
-101 60 -58 103 -92 112 -89 34 13 29 112 -8 167 -17 25 -38 38 -101 59 -44
15 -81 28 -83 28 -2 0 9 12 23 28 15 15 53 68 87 117 33 50 61 91 63 93 1 1
21 -6 45 -17 35 -15 57 -18 121 -14 l79 6 -6 -34 c-16 -88 -59 -242 -88 -319
-97 -250 -215 -428 -431 -650 -155 -159 -149 -182 19 -70 249 167 414 390 566
765 65 161 95 221 126 252 13 13 24 30 24 37 0 29 -105 119 -151 131 -20 5
-41 -2 -81 -24 -59 -33 -129 -48 -165 -34 -22 8 -19 13 63 134 97 143 97 144
33 214 l-39 42 126 32 c130 33 265 80 297 105 24 19 15 49 -19 64 -14 7 -60
12 -102 12 -65 -1 -97 -8 -207 -46z"/>
</g>
</svg>
