<?xml version="1.0" standalone="no"?>
<!DOCTYPE svg PUBLIC "-//W3C//DTD SVG 20010904//EN"
 "http://www.w3.org/TR/2001/REC-SVG-20010904/DTD/svg10.dtd">
<svg version="1.0" xmlns="http://www.w3.org/2000/svg"
 width="340.000000pt" height="340.000000pt" viewBox="0 0 340.000000 340.000000"
 preserveAspectRatio="xMidYMid meet">
<metadata>
Created by potrace 1.15, written by Peter Selinger 2001-2017
</metadata>
<g transform="translate(0.000000,340.000000) scale(0.100000,-0.100000)"
fill="#000000" stroke="none">
<path d="M1760 2973 c0 -11 13 -49 29 -84 16 -36 34 -91 40 -124 14 -76 14
-296 0 -500 -10 -141 -9 -168 5 -225 32 -123 95 -176 240 -201 147 -25 400 4
511 57 94 46 104 84 56 206 -18 44 -32 103 -36 148 -11 113 -19 115 -50 14
-39 -126 -57 -158 -117 -199 -127 -85 -282 -99 -409 -36 -42 20 -71 42 -78 57
-6 15 -11 81 -11 159 l0 134 58 21 c31 13 120 44 197 70 117 40 294 105 368
135 26 11 21 28 -21 82 -37 47 -110 94 -163 107 -24 5 -28 1 -46 -42 -11 -27
-34 -64 -52 -84 -41 -47 -156 -125 -260 -177 l-83 -42 7 68 c7 69 33 221 56
325 11 47 10 59 -1 73 -27 32 -113 68 -177 73 -58 4 -63 3 -63 -15z"/>
<path d="M998 2742 c-32 -4 -35 -20 -10 -53 59 -77 67 -101 73 -214 9 -155 -8
-500 -26 -534 -7 -15 -34 -44 -59 -65 -41 -34 -46 -42 -46 -79 0 -43 42 -147
59 -147 5 0 57 36 115 80 121 91 258 183 427 288 63 40 126 83 139 97 l23 25
-25 0 c-33 0 -160 -45 -325 -114 -112 -47 -129 -52 -135 -38 -4 10 -7 94 -7
188 l-1 170 84 -4 c127 -7 299 30 347 74 29 26 24 59 -11 74 -41 17 -111 6
-256 -41 -66 -21 -132 -39 -146 -39 -24 0 -25 1 -17 56 4 31 18 85 30 120 19
53 20 65 9 79 -36 43 -169 85 -242 77z"/>
<path d="M1563 1774 c-3 -9 4 -39 16 -68 21 -51 53 -263 41 -271 -19 -12 -747
-87 -1063 -110 -67 -5 -90 -11 -94 -23 -12 -31 127 -122 191 -125 17 -1 121
16 231 36 110 21 319 54 465 75 l265 38 7 -410 c7 -392 15 -506 40 -561 15
-34 32 -31 57 8 47 76 67 258 77 708 l6 276 65 7 c36 4 180 11 322 16 249 9
404 3 591 -20 139 -17 220 4 220 56 0 59 -166 165 -270 172 -33 2 -139 -11
-269 -32 -175 -29 -443 -64 -618 -79 -39 -3 -46 15 -32 88 24 127 24 136 -2
157 -80 65 -230 102 -246 62z"/>
</g>
</svg>
