<?xml version="1.0" standalone="no"?>
<!DOCTYPE svg PUBLIC "-//W3C//DTD SVG 20010904//EN"
 "http://www.w3.org/TR/2001/REC-SVG-20010904/DTD/svg10.dtd">
<svg version="1.0" xmlns="http://www.w3.org/2000/svg"
 width="340.000000pt" height="340.000000pt" viewBox="0 0 340.000000 340.000000"
 preserveAspectRatio="xMidYMid meet">
<metadata>
Created by potrace 1.15, written by Peter Selinger 2001-2017
</metadata>
<g transform="translate(0.000000,340.000000) scale(0.100000,-0.100000)"
fill="#000000" stroke="none">
<path d="M1636 2678 c-2 -7 -9 -32 -15 -56 -8 -29 -29 -59 -66 -96 -63 -64
-262 -198 -425 -286 -139 -76 -193 -110 -187 -116 9 -9 128 17 266 58 152 44
147 46 176 -47 20 -63 41 -283 29 -295 -11 -10 -203 -61 -319 -85 -218 -45
-201 -102 30 -98 91 1 157 10 265 35 9 2 12 -38 10 -167 0 -93 -4 -173 -8
-177 -11 -11 -261 -73 -432 -108 -128 -25 -259 -44 -452 -65 -32 -4 -60 -11
-64 -16 -3 -6 4 -21 16 -34 24 -25 192 -115 216 -115 8 0 42 9 76 21 67 22
595 159 616 159 9 0 12 -31 12 -122 0 -140 16 -221 60 -307 61 -121 186 -210
356 -253 79 -20 113 -23 299 -22 449 1 827 103 892 239 15 32 15 39 -10 142
-33 135 -44 211 -53 341 -11 169 -41 147 -72 -55 -37 -230 -161 -371 -382
-432 -131 -37 -525 -57 -632 -32 -180 42 -284 136 -317 289 -12 59 -14 145 -5
214 l6 44 58 12 c32 7 123 30 202 53 79 22 212 57 297 79 152 39 191 57 191
90 0 26 -68 52 -150 57 -88 6 -195 -19 -432 -98 -81 -27 -153 -49 -159 -49
-11 0 -11 10 8 267 l6 82 81 21 c140 38 380 119 414 140 18 11 35 27 39 36 9
25 -28 53 -89 66 -71 15 -150 -2 -313 -66 -131 -52 -126 -58 -94 110 27 144
24 151 -71 197 l-70 34 107 52 c98 48 298 135 428 187 27 11 51 27 53 35 4 24
-43 75 -86 92 -44 17 -159 42 -245 52 -43 5 -58 3 -61 -7z"/>
</g>
</svg>
