<?xml version="1.0" standalone="no"?>
<!DOCTYPE svg PUBLIC "-//W3C//DTD SVG 20010904//EN"
 "http://www.w3.org/TR/2001/REC-SVG-20010904/DTD/svg10.dtd">
<svg version="1.0" xmlns="http://www.w3.org/2000/svg"
 width="340.000000pt" height="340.000000pt" viewBox="0 0 340.000000 340.000000"
 preserveAspectRatio="xMidYMid meet">
<metadata>
Created by potrace 1.15, written by Peter Selinger 2001-2017
</metadata>
<g transform="translate(0.000000,340.000000) scale(0.100000,-0.100000)"
fill="#000000" stroke="none">
<path d="M1761 2627 c-29 -71 -81 -119 -223 -205 -163 -99 -314 -173 -445
-217 l-111 -38 -49 20 c-102 44 -173 51 -173 19 0 -8 16 -40 35 -72 20 -33 46
-88 58 -124 21 -62 22 -84 25 -491 2 -357 0 -438 -12 -493 -20 -86 -57 -157
-106 -206 -35 -35 -40 -46 -40 -85 0 -53 30 -138 64 -180 l24 -30 129 125
c127 125 236 217 428 362 104 78 186 159 168 165 -13 5 -236 -106 -397 -196
-60 -33 -110 -60 -110 -58 -1 1 1 267 4 591 l5 589 72 18 c39 10 126 39 194
64 67 25 125 42 129 38 19 -21 200 -494 200 -521 0 -12 -133 -57 -298 -102
-129 -34 -182 -55 -182 -69 0 -34 272 -20 438 23 l93 24 40 -81 c115 -228 264
-433 448 -617 143 -142 259 -232 408 -312 85 -47 238 -110 297 -124 l29 -7 -6
79 c-3 43 -13 129 -21 189 -9 64 -16 185 -16 290 0 187 -5 228 -24 222 -13 -4
-24 -34 -82 -237 -24 -85 -51 -172 -60 -192 l-16 -37 -52 20 c-136 54 -286
157 -416 288 -121 122 -307 376 -379 518 l-21 42 42 11 c24 6 128 38 231 71
180 57 233 84 224 112 -6 21 -84 58 -134 64 -53 6 -41 10 -290 -98 -68 -29
-126 -50 -129 -46 -14 14 -55 207 -61 287 -8 121 -16 131 -134 188 l-101 49
138 50 c130 47 204 71 427 138 52 15 87 31 87 39 0 25 -61 97 -108 127 -46 29
-110 51 -183 63 -36 6 -37 6 -58 -47z"/>
<path d="M1467 963 c-4 -3 -7 -20 -7 -37 0 -38 102 -179 186 -255 44 -40 63
-51 89 -51 24 0 38 6 45 19 16 31 12 106 -10 165 -23 59 -58 88 -170 140 -52
24 -119 34 -133 19z"/>
</g>
</svg>
