<?xml version="1.0" standalone="no"?>
<!DOCTYPE svg PUBLIC "-//W3C//DTD SVG 20010904//EN"
 "http://www.w3.org/TR/2001/REC-SVG-20010904/DTD/svg10.dtd">
<svg version="1.0" xmlns="http://www.w3.org/2000/svg"
 width="340.000000pt" height="340.000000pt" viewBox="0 0 340.000000 340.000000"
 preserveAspectRatio="xMidYMid meet">
<metadata>
Created by potrace 1.15, written by Peter Selinger 2001-2017
</metadata>
<g transform="translate(0.000000,340.000000) scale(0.100000,-0.100000)"
fill="#000000" stroke="none">
<path d="M818 2439 c-10 -5 -18 -17 -18 -26 0 -30 182 -233 231 -259 71 -36
114 -3 114 87 -1 48 -6 66 -31 101 -26 37 -42 48 -114 75 -86 33 -151 41 -182
22z"/>
<path d="M2206 2399 c-90 -49 -489 -156 -687 -184 -45 -7 -47 -6 -57 23 -12
36 -46 68 -77 75 -27 5 -35 -8 -35 -58 0 -51 -44 -213 -79 -290 -51 -112 -51
-195 0 -241 18 -16 22 -16 53 -2 67 33 130 164 149 311 10 75 14 88 32 92 208
48 578 126 638 135 57 8 82 9 92 0 15 -12 15 -7 -21 -157 -35 -144 -31 -155
38 -103 72 55 212 124 314 156 46 14 84 29 84 33 0 4 -15 31 -32 61 -55 90
-178 155 -313 166 -48 4 -68 0 -99 -17z"/>
<path d="M535 1829 c-11 -7 -22 -13 -24 -15 -9 -7 112 -174 157 -216 53 -50
126 -92 146 -85 20 8 46 71 46 111 0 50 -22 99 -56 123 -99 71 -224 108 -269
82z"/>
<path d="M1959 1764 c-19 -14 -56 -37 -83 -51 -100 -51 -125 -57 -258 -57 -69
-1 -130 -5 -134 -9 -5 -4 -2 -22 5 -40 43 -106 44 -112 45 -262 1 -140 -1
-156 -28 -239 -62 -190 -195 -332 -423 -451 -40 -20 -73 -42 -73 -47 0 -6 27
-9 68 -6 121 8 264 81 377 193 138 137 204 323 243 680 l7 69 138 45 c96 31
141 41 148 34 7 -7 3 -48 -15 -135 -90 -436 -65 -665 89 -807 94 -86 217 -121
430 -120 215 0 344 30 408 94 37 37 41 62 22 116 -48 129 -77 230 -93 321 -27
159 -42 142 -62 -74 -18 -190 -90 -280 -235 -290 -62 -4 -234 12 -290 27 -146
41 -206 186 -185 446 16 188 52 289 136 379 61 65 57 99 -15 145 -36 22 -151
65 -176 65 -6 0 -27 -12 -46 -26z"/>
<path d="M1043 1514 c-11 -16 -43 -74 -71 -129 -147 -295 -273 -466 -353 -482
-61 -12 -58 -85 7 -214 39 -78 107 -159 134 -159 24 0 36 33 80 215 21 88 72
262 114 386 111 334 139 454 89 383z"/>
</g>
</svg>
