<?xml version="1.0" standalone="no"?>
<!DOCTYPE svg PUBLIC "-//W3C//DTD SVG 20010904//EN"
 "http://www.w3.org/TR/2001/REC-SVG-20010904/DTD/svg10.dtd">
<svg version="1.0" xmlns="http://www.w3.org/2000/svg"
 width="340.000000pt" height="340.000000pt" viewBox="0 0 340.000000 340.000000"
 preserveAspectRatio="xMidYMid meet">
<metadata>
Created by potrace 1.15, written by Peter Selinger 2001-2017
</metadata>
<g transform="translate(0.000000,340.000000) scale(0.100000,-0.100000)"
fill="#000000" stroke="none">
<path d="M1823 2710 c-13 -5 -23 -15 -23 -21 0 -7 20 -55 44 -108 72 -160 71
-145 71 -728 0 -287 -3 -524 -6 -527 -3 -3 -74 -20 -158 -37 l-153 -31 -77 21
c-90 24 -140 27 -166 7 -18 -13 -17 -17 22 -92 71 -137 123 -332 153 -574 15
-118 38 -177 75 -186 36 -9 52 10 65 75 6 30 12 56 14 58 11 11 532 68 721 79
66 3 130 10 143 15 46 18 42 63 -14 128 l-37 43 37 77 c50 100 134 226 185
276 23 21 41 47 41 57 0 34 -69 95 -153 136 -140 69 -151 70 -270 33 -56 -17
-141 -40 -189 -50 l-88 -19 0 101 c0 56 3 186 7 288 l6 186 121 6 c143 8 271
33 382 76 134 52 160 96 77 133 -39 17 -60 20 -132 16 -87 -5 -108 -11 -355
-102 l-99 -37 7 103 c11 165 25 266 52 377 l26 103 -24 25 c-68 73 -231 123
-305 93z m537 -1450 c61 -32 42 -187 -46 -387 -19 -45 -27 -53 -61 -62 -77
-19 -584 -123 -587 -120 -8 11 -64 485 -58 490 7 7 334 62 457 78 99 12 273
13 295 1z"/>
<path d="M930 2438 c0 -14 17 -47 38 -73 115 -146 184 -225 216 -244 32 -20
37 -21 64 -7 57 29 67 119 23 204 -36 70 -151 130 -268 139 -73 6 -73 6 -73
-19z"/>
<path d="M643 1824 c-23 -10 -14 -38 38 -118 96 -150 155 -206 217 -206 24 0
33 6 46 34 20 42 21 106 1 152 -12 30 -28 41 -117 84 -100 47 -160 65 -185 54z"/>
<path d="M1218 1564 c-9 -11 -40 -73 -68 -139 -164 -378 -308 -595 -396 -595
-30 0 -31 -26 -5 -102 23 -66 58 -125 118 -195 71 -84 95 -69 128 82 22 103
34 146 112 400 87 282 135 476 131 526 -3 39 -4 40 -20 23z"/>
</g>
</svg>
