<?xml version="1.0" standalone="no"?>
<!DOCTYPE svg PUBLIC "-//W3C//DTD SVG 20010904//EN"
 "http://www.w3.org/TR/2001/REC-SVG-20010904/DTD/svg10.dtd">
<svg version="1.0" xmlns="http://www.w3.org/2000/svg"
 width="340.000000pt" height="340.000000pt" viewBox="0 0 340.000000 340.000000"
 preserveAspectRatio="xMidYMid meet">
<metadata>
Created by potrace 1.15, written by Peter Selinger 2001-2017
</metadata>
<g transform="translate(0.000000,340.000000) scale(0.100000,-0.100000)"
fill="#000000" stroke="none">
<path d="M2079 2524 c-60 -53 -121 -83 -225 -110 l-72 -18 -93 28 c-114 35
-192 40 -197 13 -2 -10 15 -55 37 -100 66 -133 84 -217 85 -392 1 -132 -2
-158 -22 -219 -47 -139 -123 -253 -226 -338 -102 -84 -106 -87 -106 -99 0 -14
31 -5 120 38 59 29 95 56 166 128 78 77 98 105 138 187 63 129 86 240 85 413
0 72 -4 153 -9 180 -4 28 -6 52 -4 54 7 8 198 51 254 57 86 9 86 7 70 -242
-14 -218 -10 -329 16 -394 23 -57 93 -115 156 -130 129 -31 496 30 515 86 7
21 -43 78 -88 102 -60 30 -110 30 -182 -2 -32 -15 -89 -31 -126 -38 -60 -10
-71 -9 -107 8 -60 29 -79 77 -77 189 3 170 55 307 164 429 32 37 59 71 59 76
0 19 -85 80 -144 104 -114 45 -126 44 -187 -10z"/>
<path d="M879 2464 c-12 -14 -4 -25 63 -89 95 -92 175 -145 225 -152 35 -5 42
-2 66 27 15 17 27 43 27 58 0 35 -38 110 -64 127 -63 39 -291 60 -317 29z"/>
<path d="M601 1896 c-9 -11 6 -33 75 -110 111 -125 175 -176 220 -176 83 0
113 113 49 183 -69 73 -309 146 -344 103z"/>
<path d="M1206 1568 c-13 -24 -59 -106 -102 -183 -153 -276 -240 -405 -323
-476 -57 -49 -60 -61 -36 -149 19 -74 67 -167 109 -215 l35 -40 20 20 c15 15
28 55 46 139 31 152 73 285 147 470 69 173 142 384 152 439 10 52 -16 50 -48
-5z"/>
<path d="M2154 1265 c-137 -63 -417 -109 -642 -106 -133 1 -163 -1 -168 -13
-3 -8 13 -48 35 -88 24 -43 49 -110 61 -159 11 -46 29 -118 40 -159 10 -41 24
-100 31 -130 16 -72 41 -130 67 -153 20 -18 21 -18 41 2 12 12 21 34 21 50 0
36 -9 35 315 56 604 40 583 34 478 133 l-57 54 33 66 c44 90 108 177 170 233
28 26 51 51 51 57 0 27 -181 126 -294 161 -85 26 -118 26 -182 -4z m90 -157
c15 -19 17 -33 11 -83 -7 -71 -54 -287 -63 -297 -9 -8 -550 -103 -556 -97 -4
4 -56 378 -56 404 0 7 33 17 83 24 45 7 141 23 212 37 260 49 335 52 369 12z"/>
</g>
</svg>
