<?xml version="1.0" standalone="no"?>
<!DOCTYPE svg PUBLIC "-//W3C//DTD SVG 20010904//EN"
 "http://www.w3.org/TR/2001/REC-SVG-20010904/DTD/svg10.dtd">
<svg version="1.0" xmlns="http://www.w3.org/2000/svg"
 width="340.000000pt" height="340.000000pt" viewBox="0 0 340.000000 340.000000"
 preserveAspectRatio="xMidYMid meet">
<metadata>
Created by potrace 1.15, written by Peter Selinger 2001-2017
</metadata>
<g transform="translate(0.000000,340.000000) scale(0.100000,-0.100000)"
fill="#000000" stroke="none">
<path d="M1769 2743 c-1 -5 0 -49 1 -99 2 -78 -2 -103 -28 -180 -81 -240 -233
-498 -423 -716 l-41 -48 34 7 c137 26 310 210 490 522 29 52 58 96 63 97 6 1
44 -41 85 -93 194 -247 479 -560 548 -601 43 -25 55 -27 142 -25 87 1 377 37
388 47 16 16 -51 54 -198 110 -257 100 -582 315 -825 547 -52 50 -95 96 -95
103 0 6 20 45 45 86 25 41 45 83 45 93 0 26 -85 113 -134 137 -42 20 -95 27
-97 13z"/>
<path d="M824 2566 c-8 -22 14 -57 96 -148 87 -97 157 -159 195 -171 21 -7 33
-5 54 10 36 27 38 70 8 137 -22 47 -33 58 -92 91 -80 45 -201 94 -233 95 -12
0 -25 -6 -28 -14z"/>
<path d="M540 1903 c0 -58 241 -263 308 -263 66 0 50 132 -25 202 -37 36 -180
88 -238 88 -42 0 -45 -2 -45 -27z"/>
<path d="M1694 1816 c-10 -26 26 -75 98 -135 178 -147 278 -169 278 -62 0 38
-34 101 -69 128 -26 20 -227 83 -266 83 -21 0 -38 -6 -41 -14z"/>
<path d="M1123 1536 c-31 -38 -106 -162 -204 -335 -66 -117 -137 -202 -196
-233 -40 -21 -42 -47 -14 -137 24 -77 59 -136 111 -186 48 -47 52 -43 69 49
27 143 67 272 136 441 152 373 184 505 98 401z"/>
<path d="M2078 1430 c-90 -48 -350 -100 -573 -115 -126 -9 -137 -12 -133 -37
2 -13 23 -32 56 -51 l54 -30 146 32 c261 56 384 63 397 21 10 -32 -22 -126
-86 -255 -86 -171 -73 -161 -153 -124 -36 17 -84 33 -106 36 -35 5 -40 3 -40
-15 0 -11 28 -58 62 -104 211 -284 227 -304 276 -325 30 -12 37 -12 58 2 77
50 50 206 -50 291 l-46 39 43 61 c71 103 153 207 188 240 44 41 108 73 163 80
68 10 72 15 47 68 -29 58 -101 123 -189 169 -39 21 -72 37 -73 37 -2 -1 -20
-10 -41 -20z"/>
</g>
</svg>
