<?xml version="1.0" standalone="no"?>
<!DOCTYPE svg PUBLIC "-//W3C//DTD SVG 20010904//EN"
 "http://www.w3.org/TR/2001/REC-SVG-20010904/DTD/svg10.dtd">
<svg version="1.0" xmlns="http://www.w3.org/2000/svg"
 width="340.000000pt" height="340.000000pt" viewBox="0 0 340.000000 340.000000"
 preserveAspectRatio="xMidYMid meet">
<metadata>
Created by potrace 1.15, written by Peter Selinger 2001-2017
</metadata>
<g transform="translate(0.000000,340.000000) scale(0.100000,-0.100000)"
fill="#000000" stroke="none">
<path d="M1762 2647 c-8 -9 -3 -36 19 -99 16 -47 36 -130 44 -184 16 -109 20
-400 5 -424 -12 -19 -290 -49 -363 -39 -74 11 -130 10 -147 -1 -13 -8 -13 -14
4 -42 46 -81 77 -152 99 -229 27 -93 62 -267 56 -274 -3 -2 -41 -9 -87 -14
-45 -6 -119 -16 -164 -22 -46 -5 -87 -14 -92 -19 -16 -16 13 -38 86 -66 l70
-28 107 27 c115 30 384 87 388 83 8 -8 -40 -165 -71 -230 -98 -212 -272 -391
-533 -547 -57 -33 -103 -65 -103 -70 0 -13 60 -2 145 28 323 115 544 324 641
608 16 47 32 85 35 85 4 0 10 -8 13 -17 26 -67 338 -567 393 -629 43 -48 52
-49 333 -46 163 2 269 7 275 13 14 14 -22 39 -98 68 -225 87 -338 145 -458
236 -88 67 -214 195 -281 285 -62 82 -152 230 -145 237 3 2 132 9 288 15 213
8 324 7 446 -2 171 -12 203 -8 203 29 0 24 -70 88 -124 112 -57 26 -146 24
-278 -6 -61 -14 -113 -24 -116 -21 -17 18 113 285 177 364 28 34 51 66 51 71
0 18 -94 94 -144 116 -98 43 -133 49 -169 26 -54 -33 -278 -93 -293 -78 -7 7
16 245 32 342 8 50 27 123 40 162 l25 73 -28 25 c-15 14 -59 41 -97 60 -74 38
-163 48 -184 22z m502 -753 c32 -32 14 -235 -36 -404 l-14 -45 -139 -16 c-77
-9 -142 -14 -144 -13 -2 2 2 46 8 98 6 53 14 156 18 229 l6 134 101 13 c56 6
106 13 111 15 28 9 75 3 89 -11z m-437 -196 c-6 -140 -21 -295 -30 -305 -6 -6
-210 -33 -215 -28 -9 8 -36 444 -29 452 9 8 196 40 246 42 l34 1 -6 -162z"/>
<path d="M812 2293 c-13 -3 -22 -8 -20 -13 9 -24 135 -173 173 -205 59 -47
125 -85 152 -85 27 0 63 45 63 80 0 42 -51 132 -89 158 -61 40 -219 77 -279
65z"/>
<path d="M550 1754 c0 -13 75 -132 127 -201 50 -67 130 -133 159 -133 25 0 54
51 54 94 0 43 -29 118 -58 149 -23 26 -106 67 -167 83 -52 14 -115 18 -115 8z"/>
<path d="M1062 1503 c-10 -16 -62 -116 -114 -223 -106 -220 -180 -341 -239
-394 -21 -20 -42 -36 -47 -36 -4 0 -13 -4 -20 -8 -24 -16 44 -205 112 -309 63
-99 82 -84 112 86 23 130 117 488 178 679 54 165 67 232 47 232 -5 0 -18 -12
-29 -27z"/>
</g>
</svg>
