<?xml version="1.0" standalone="no"?>
<!DOCTYPE svg PUBLIC "-//W3C//DTD SVG 20010904//EN"
 "http://www.w3.org/TR/2001/REC-SVG-20010904/DTD/svg10.dtd">
<svg version="1.0" xmlns="http://www.w3.org/2000/svg"
 width="340.000000pt" height="340.000000pt" viewBox="0 0 340.000000 340.000000"
 preserveAspectRatio="xMidYMid meet">
<metadata>
Created by potrace 1.15, written by Peter Selinger 2001-2017
</metadata>
<g transform="translate(0.000000,340.000000) scale(0.100000,-0.100000)"
fill="#000000" stroke="none">
<path d="M1997 2960 c-74 -56 -328 -132 -552 -165 -60 -9 -111 -18 -114 -21
-10 -10 54 -63 96 -79 60 -23 118 -16 258 29 136 44 266 77 277 70 26 -16 -28
-147 -122 -292 l-50 -79 -93 48 c-150 79 -325 124 -402 105 -39 -10 -19 -28
73 -66 84 -35 233 -111 300 -153 53 -34 53 -34 -70 -153 -100 -96 -249 -212
-367 -285 -39 -24 -71 -48 -71 -53 0 -5 28 -6 62 -3 117 10 325 135 525 314
l72 64 163 -104 c215 -136 317 -197 408 -243 114 -58 168 -53 553 55 37 10 71
22 75 25 12 13 -20 24 -87 31 -218 21 -481 79 -650 141 -98 37 -306 140 -350
173 l-24 19 80 113 c44 63 106 153 137 201 41 63 73 99 112 127 31 22 61 42
67 44 17 5 -34 79 -77 112 -40 30 -114 55 -160 54 -18 0 -47 -13 -69 -29z"/>
<path d="M738 2749 c-10 -5 -18 -20 -18 -33 0 -49 148 -239 212 -272 45 -23
93 -18 117 12 30 38 26 86 -11 156 -30 56 -38 63 -98 90 -55 25 -161 59 -180
58 -3 0 -13 -5 -22 -11z"/>
<path d="M525 2197 c-9 -35 92 -202 163 -269 61 -58 87 -59 136 -6 26 28 28
36 24 91 -4 53 -8 64 -36 87 -64 53 -182 113 -232 118 -46 4 -49 3 -55 -21z"/>
<path d="M1713 2003 c-29 -6 -29 -9 2 -75 22 -48 53 -204 42 -214 -2 -2 -73
-15 -158 -29 -85 -14 -174 -28 -198 -33 -64 -10 -62 -28 6 -48 48 -14 85 -16
210 -11 l153 5 0 -118 0 -118 -67 -11 c-162 -27 -341 -51 -497 -67 -108 -11
-165 -21 -163 -28 6 -21 107 -64 178 -77 68 -12 75 -11 217 24 187 47 322 69
327 53 2 -6 6 -191 8 -411 4 -353 11 -463 30 -482 3 -2 15 0 26 6 48 26 68
185 77 620 l7 299 41 6 c80 12 373 26 537 26 172 0 229 10 229 38 0 35 -39 80
-91 106 -74 36 -121 34 -439 -19 -148 -25 -271 -45 -274 -45 -3 0 -6 49 -6
110 l0 109 38 7 c211 36 335 73 356 106 19 31 -5 52 -69 62 -47 8 -74 6 -159
-14 -55 -13 -113 -25 -128 -28 l-28 -4 0 85 c0 115 -7 131 -67 150 -58 19
-110 27 -140 20z"/>
<path d="M997 1898 c-14 -24 -46 -90 -72 -148 -127 -284 -270 -522 -326 -544
-34 -12 -36 -29 -14 -102 21 -72 85 -166 146 -214 l53 -42 18 22 c9 12 20 36
22 53 31 205 54 316 105 506 60 221 111 448 111 490 0 33 -16 25 -43 -21z"/>
</g>
</svg>
