<?xml version="1.0" standalone="no"?>
<!DOCTYPE svg PUBLIC "-//W3C//DTD SVG 20010904//EN"
 "http://www.w3.org/TR/2001/REC-SVG-20010904/DTD/svg10.dtd">
<svg version="1.0" xmlns="http://www.w3.org/2000/svg"
 width="340.000000pt" height="340.000000pt" viewBox="0 0 340.000000 340.000000"
 preserveAspectRatio="xMidYMid meet">
<metadata>
Created by potrace 1.15, written by Peter Selinger 2001-2017
</metadata>
<g transform="translate(0.000000,340.000000) scale(0.100000,-0.100000)"
fill="#000000" stroke="none">
<path d="M1744 2695 c-3 -8 4 -39 15 -70 33 -88 52 -216 58 -400 l6 -171 -124
-23 c-68 -13 -130 -26 -136 -29 -22 -8 -14 21 23 80 19 32 38 73 41 92 5 32 2
35 -58 75 -67 43 -113 57 -149 46 -21 -7 -21 -11 -15 -88 11 -134 -27 -255
-144 -462 -65 -114 -68 -147 -11 -109 71 48 172 165 229 265 l31 56 43 -14
c35 -13 58 -14 142 -4 55 6 106 11 113 11 9 0 12 -44 12 -189 l0 -188 -137
-21 c-76 -12 -214 -33 -308 -47 -93 -15 -195 -32 -225 -38 l-55 -13 25 -25
c14 -14 48 -34 75 -44 l48 -19 146 37 c80 20 166 41 190 46 l44 9 -6 -57 c-9
-81 -51 -211 -100 -306 -88 -170 -246 -347 -448 -503 -59 -45 -109 -89 -113
-97 -10 -28 57 -17 140 24 222 109 407 296 556 566 24 44 58 99 75 123 56 76
53 132 -12 217 l-34 44 27 5 c150 30 205 37 216 26 7 -7 13 -127 17 -378 4
-247 11 -380 19 -407 34 -110 103 -193 185 -224 169 -63 555 -47 706 29 56 29
116 92 129 138 11 34 9 44 -9 80 -27 52 -48 145 -56 242 -3 41 -8 91 -11 110
-5 32 -7 33 -19 17 -7 -10 -23 -55 -35 -100 -70 -269 -87 -301 -177 -346 -87
-44 -287 -71 -406 -57 -169 21 -244 180 -219 464 6 67 20 143 32 177 39 110
26 173 -51 238 l-41 35 44 6 c83 11 364 26 495 26 131 0 133 0 149 26 16 24
16 27 -2 52 -28 38 -103 73 -171 79 -44 4 -89 -2 -183 -25 -157 -38 -369 -77
-376 -69 -8 8 15 360 24 368 7 6 243 51 343 64 66 10 124 44 124 75 0 34 -38
50 -122 52 -62 2 -129 -12 -332 -68 l-23 -7 7 84 c8 107 30 234 55 324 l19 70
-44 42 c-62 57 -137 93 -197 93 -33 0 -50 -5 -54 -15z"/>
<path d="M774 2355 c-12 -29 6 -63 71 -133 75 -80 154 -135 196 -135 47 0 79
38 79 92 0 77 -5 83 -88 119 -94 40 -195 72 -228 72 -14 0 -27 -7 -30 -15z"/>
<path d="M521 1762 c-7 -5 -11 -18 -7 -28 7 -22 169 -172 225 -210 37 -24 41
-24 74 -11 37 16 67 51 67 80 0 28 -37 93 -66 116 -15 12 -50 28 -78 36 -63
19 -196 30 -215 17z"/>
<path d="M1017 1498 c-8 -13 -49 -88 -92 -168 -126 -236 -225 -376 -305 -436
-29 -21 -40 -36 -40 -57 0 -40 35 -134 66 -174 27 -36 123 -88 136 -75 4 4 15
59 23 122 22 155 33 196 113 405 72 186 132 364 132 390 0 22 -18 18 -33 -7z"/>
</g>
</svg>
