<?xml version="1.0" standalone="no"?>
<!DOCTYPE svg PUBLIC "-//W3C//DTD SVG 20010904//EN"
 "http://www.w3.org/TR/2001/REC-SVG-20010904/DTD/svg10.dtd">
<svg version="1.0" xmlns="http://www.w3.org/2000/svg"
 width="340.000000pt" height="340.000000pt" viewBox="0 0 340.000000 340.000000"
 preserveAspectRatio="xMidYMid meet">
<metadata>
Created by potrace 1.15, written by Peter Selinger 2001-2017
</metadata>
<g transform="translate(0.000000,340.000000) scale(0.100000,-0.100000)"
fill="#000000" stroke="none">
<path d="M1670 2668 c-1 -170 -121 -406 -352 -689 -121 -149 -138 -179 -105
-179 21 0 189 123 231 170 l37 42 37 -26 c76 -53 236 -181 239 -193 6 -17
-133 -178 -244 -283 -133 -126 -281 -244 -445 -353 -172 -115 -179 -130 -41
-83 277 94 542 285 796 574 20 23 39 42 42 42 3 0 69 -55 146 -122 183 -160
363 -303 404 -322 58 -28 361 -14 566 25 117 23 100 48 -49 74 -224 39 -398
93 -578 180 -107 52 -314 183 -381 242 l-33 28 57 74 c31 40 95 130 142 199
67 98 100 137 151 175 75 57 83 80 44 126 -29 35 -73 60 -151 85 l-52 17 -99
-40 c-134 -54 -272 -88 -272 -67 0 3 34 55 75 115 41 61 75 115 75 119 0 28
-99 88 -175 106 -16 4 -38 9 -47 12 -16 5 -18 -2 -18 -48z m147 -393 c32 -4
96 -2 143 3 47 6 86 9 88 7 9 -8 -186 -376 -213 -403 -2 -2 -43 23 -92 56 -48
33 -117 74 -153 92 -36 18 -66 34 -68 35 -2 2 40 55 94 118 87 104 99 115 119
107 13 -5 49 -12 82 -15z"/>
<path d="M841 2502 c-14 -4 -26 -12 -28 -17 -9 -30 139 -185 249 -261 35 -24
38 -25 61 -9 37 24 60 79 52 123 -14 73 -39 107 -105 136 -64 29 -180 43 -229
28z"/>
<path d="M518 1944 c-9 -14 69 -134 120 -187 26 -26 75 -62 110 -79 l63 -31
25 24 c75 75 23 202 -103 249 -60 22 -207 39 -215 24z"/>
<path d="M963 1538 c-12 -13 -67 -93 -124 -178 -136 -206 -200 -292 -276 -372
l-64 -66 22 -92 c40 -163 112 -271 153 -230 8 8 27 58 41 110 72 263 90 325
132 440 25 68 67 174 93 236 68 159 76 209 23 152z"/>
<path d="M2047 1225 c-66 -24 -237 -63 -402 -91 -131 -22 -179 -25 -267 -21
-112 6 -133 0 -104 -31 44 -49 96 -220 116 -377 6 -49 15 -118 20 -153 23
-163 104 -195 120 -47 l5 50 130 7 c329 18 509 35 598 59 32 8 37 14 37 39 0
21 -10 37 -39 62 l-40 34 40 64 c23 36 73 97 111 137 69 70 71 72 56 95 -22
34 -111 100 -198 147 -81 44 -119 49 -183 26z m85 -128 c19 -27 2 -170 -31
-258 -18 -48 -38 -94 -45 -104 -10 -13 -63 -23 -270 -49 -175 -22 -259 -29
-261 -22 -2 6 -8 80 -15 165 -6 84 -13 166 -16 180 l-6 27 204 33 c332 53 420
59 440 28z"/>
</g>
</svg>
