<?xml version="1.0" standalone="no"?>
<!DOCTYPE svg PUBLIC "-//W3C//DTD SVG 20010904//EN"
 "http://www.w3.org/TR/2001/REC-SVG-20010904/DTD/svg10.dtd">
<svg version="1.0" xmlns="http://www.w3.org/2000/svg"
 width="340.000000pt" height="340.000000pt" viewBox="0 0 340.000000 340.000000"
 preserveAspectRatio="xMidYMid meet">
<metadata>
Created by potrace 1.15, written by Peter Selinger 2001-2017
</metadata>
<g transform="translate(0.000000,340.000000) scale(0.100000,-0.100000)"
fill="#000000" stroke="none">
<path d="M2305 2524 c-142 -55 -486 -122 -770 -149 -151 -15 -178 -16 -245 -3
-41 8 -80 13 -86 11 -8 -3 -6 -21 6 -61 29 -92 41 -232 41 -467 0 -306 -26
-614 -68 -799 -19 -84 -13 -245 11 -322 9 -27 31 -68 50 -90 l34 -39 16 36
c42 98 70 509 94 1369 l7 245 45 6 c25 4 144 23 265 43 121 20 273 42 338 51
148 19 320 20 335 2 17 -20 50 -152 66 -262 27 -185 37 -408 37 -814 0 -397 0
-404 -21 -426 -30 -32 -82 -37 -187 -16 -51 10 -98 14 -105 10 -9 -6 12 -33
68 -91 45 -46 107 -123 139 -173 63 -98 112 -155 132 -155 16 0 83 90 116 156
61 121 71 275 42 629 -66 796 -65 886 8 1094 l22 63 -45 39 c-25 22 -82 58
-127 81 -94 47 -156 56 -218 32z"/>
<path d="M724 2506 c-8 -21 28 -68 136 -176 145 -146 220 -154 220 -24 0 86
-53 141 -174 179 -106 34 -174 42 -182 21z"/>
<path d="M1975 2086 c-169 -48 -302 -86 -340 -96 -84 -21 -83 -38 1 -69 105
-40 313 -19 465 47 58 25 93 66 79 93 -26 47 -98 56 -205 25z"/>
<path d="M534 1935 c-13 -33 11 -73 93 -156 122 -125 177 -146 216 -80 22 38
22 75 -3 127 -17 34 -31 46 -79 68 -129 58 -215 73 -227 41z"/>
<path d="M1919 1695 c-115 -51 -251 -85 -339 -85 -106 0 -111 -5 -72 -77 36
-69 65 -170 86 -302 16 -100 35 -141 65 -141 22 0 36 16 45 52 8 33 -3 31 251
63 218 27 239 35 210 78 -9 14 -23 28 -31 31 -8 3 -14 13 -14 23 0 29 44 113
89 173 22 30 41 64 41 75 0 25 -76 86 -141 114 -80 34 -106 34 -190 -4z m85
-121 c10 -26 7 -74 -10 -166 l-16 -86 -134 -37 c-74 -21 -138 -35 -141 -31 -8
7 -32 200 -33 258 0 36 1 37 53 48 105 22 143 28 208 29 52 1 68 -2 73 -15z"/>
<path d="M1029 1593 c-14 -15 -56 -82 -94 -148 -144 -255 -291 -445 -368 -476
-17 -7 -33 -13 -35 -14 -8 -6 34 -158 58 -210 30 -66 90 -131 113 -122 9 3 23
43 37 104 36 157 66 245 160 458 105 240 162 390 158 417 -3 18 -5 17 -29 -9z"/>
</g>
</svg>
