<?xml version="1.0" standalone="no"?>
<!DOCTYPE svg PUBLIC "-//W3C//DTD SVG 20010904//EN"
 "http://www.w3.org/TR/2001/REC-SVG-20010904/DTD/svg10.dtd">
<svg version="1.0" xmlns="http://www.w3.org/2000/svg"
 width="340.000000pt" height="340.000000pt" viewBox="0 0 340.000000 340.000000"
 preserveAspectRatio="xMidYMid meet">
<metadata>
Created by potrace 1.15, written by Peter Selinger 2001-2017
</metadata>
<g transform="translate(0.000000,340.000000) scale(0.100000,-0.100000)"
fill="#000000" stroke="none">
<path d="M1721 3001 c-11 -7 -10 -14 7 -38 51 -71 92 -239 92 -374 0 -80 18
-69 -180 -99 -186 -29 -176 -25 -157 -53 29 -44 146 -56 300 -31 l37 7 0 -101
0 -100 -89 -16 c-150 -28 -349 -55 -481 -65 -176 -14 -184 -19 -127 -76 54
-54 97 -55 295 -7 92 22 208 48 257 57 50 8 103 18 118 21 l28 6 -3 -119 -3
-118 -80 -17 c-44 -10 -134 -25 -200 -33 -153 -20 -165 -22 -165 -39 0 -21 27
-28 135 -33 91 -5 197 7 293 33 22 6 22 5 22 -94 l0 -101 -67 -21 c-38 -11
-129 -32 -203 -46 -74 -14 -139 -29 -144 -34 -4 -5 6 -16 24 -25 49 -25 169
-30 278 -11 50 9 97 16 102 16 6 0 10 -41 10 -104 l0 -103 -257 -42 c-142 -23
-294 -46 -338 -52 -44 -5 -97 -15 -118 -20 -34 -9 -37 -12 -25 -26 31 -38 208
-83 275 -70 36 7 412 96 436 103 16 5 17 -14 17 -313 1 -282 8 -430 25 -484 6
-19 45 -33 58 -20 24 24 49 295 63 662 l7 177 41 8 c22 4 207 8 409 9 l369 0
19 24 c24 29 24 32 -2 65 -26 33 -78 60 -156 80 -75 20 -134 20 -238 1 -181
-34 -307 -54 -374 -61 l-71 -7 0 100 0 99 106 17 c149 26 256 55 278 77 18 18
18 20 3 44 -10 14 -35 30 -58 38 -37 10 -56 9 -153 -11 -61 -13 -126 -26 -144
-29 l-33 -4 3 93 3 94 60 13 c33 7 125 24 205 36 149 23 190 36 190 61 0 16
-47 55 -66 55 -21 0 -17 22 21 118 l36 89 157 6 c86 4 201 7 254 7 106 0 134
12 123 54 -10 32 -59 73 -102 85 -89 25 -137 24 -257 -5 -63 -15 -119 -24
-123 -20 -4 4 14 50 41 101 50 94 50 94 31 115 -24 27 -172 99 -218 107 -24 4
-55 -4 -113 -27 -43 -18 -117 -45 -162 -61 l-84 -28 7 62 c3 34 13 104 21 154
25 166 21 178 -86 227 -57 27 -150 35 -179 17z m554 -506 c22 -21 25 -33 25
-97 0 -40 -4 -78 -8 -85 -6 -9 -278 -63 -321 -63 -7 0 -11 33 -11 99 l0 99 83
21 c45 12 105 28 132 36 68 19 72 18 100 -10z m-24 -388 c-12 -52 -27 -101
-34 -109 -10 -13 -219 -68 -257 -68 -8 0 -16 228 -7 231 13 4 313 45 316 43 2
-2 -6 -46 -18 -97z"/>
<path d="M821 2671 c-21 -13 -2 -39 91 -125 88 -83 158 -133 196 -143 29 -7
73 23 86 60 13 37 -6 94 -49 144 -30 36 -45 44 -105 57 -74 17 -197 21 -219 7z"/>
<path d="M593 2134 c-22 -10 -14 -59 15 -100 61 -83 125 -144 177 -170 54 -26
55 -26 86 -7 48 27 56 63 27 121 -21 43 -31 51 -128 100 -102 51 -152 67 -177
56z"/>
<path d="M1090 1765 c-7 -9 -44 -73 -82 -143 -132 -242 -243 -390 -343 -456
-30 -21 -55 -41 -55 -45 0 -14 37 -116 55 -152 9 -19 35 -62 58 -96 63 -95 85
-85 107 51 6 40 51 173 109 325 105 271 156 424 167 491 7 43 4 49 -16 25z"/>
</g>
</svg>
