<?xml version="1.0" standalone="no"?>
<!DOCTYPE svg PUBLIC "-//W3C//DTD SVG 20010904//EN"
 "http://www.w3.org/TR/2001/REC-SVG-20010904/DTD/svg10.dtd">
<svg version="1.0" xmlns="http://www.w3.org/2000/svg"
 width="340.000000pt" height="340.000000pt" viewBox="0 0 340.000000 340.000000"
 preserveAspectRatio="xMidYMid meet">
<metadata>
Created by potrace 1.15, written by Peter Selinger 2001-2017
</metadata>
<g transform="translate(0.000000,340.000000) scale(0.100000,-0.100000)"
fill="#000000" stroke="none">
<path d="M2330 2745 c0 -9 8 -32 19 -53 74 -146 104 -368 116 -882 9 -382 -8
-711 -55 -1081 -13 -102 4 -204 45 -274 66 -114 124 -36 144 195 5 61 5 327
-1 640 -16 947 -15 1164 5 1250 9 41 17 84 17 95 0 25 -53 68 -123 100 -63 30
-167 36 -167 10z"/>
<path d="M800 2562 c0 -35 126 -211 185 -260 77 -63 156 -32 141 55 -4 21 -14
60 -22 86 -14 42 -22 51 -67 74 -78 39 -174 73 -207 73 -26 0 -30 -4 -30 -28z"/>
<path d="M1866 2421 c-3 -5 8 -35 24 -67 59 -118 65 -162 64 -459 0 -298 -12
-433 -51 -603 -24 -101 -25 -118 -15 -160 17 -64 64 -156 83 -160 20 -4 55 59
75 139 14 53 18 147 24 569 5 344 11 530 20 582 13 77 13 77 -11 97 -45 38
-122 71 -165 71 -24 0 -45 -4 -48 -9z"/>
<path d="M1320 2366 c0 -13 18 -62 40 -108 69 -148 75 -183 75 -443 -1 -255
-12 -343 -66 -520 -63 -205 -143 -338 -298 -498 -57 -59 -101 -110 -98 -114
11 -11 136 48 196 92 251 185 358 449 391 970 5 88 10 219 10 291 0 72 5 156
11 188 l10 59 -38 39 c-43 44 -109 68 -185 68 -44 0 -48 -2 -48 -24z"/>
<path d="M534 2036 c-3 -8 1 -27 9 -43 15 -28 218 -233 231 -233 35 0 76 58
76 107 0 35 -31 87 -65 109 -35 23 -184 74 -218 74 -15 0 -30 -6 -33 -14z"/>
<path d="M2120 1911 c-17 -33 -6 -53 80 -135 80 -76 111 -91 138 -64 16 16 15
71 -2 112 -16 39 -106 95 -166 103 -32 5 -40 2 -50 -16z"/>
<path d="M1180 1843 c-7 -21 -32 -87 -57 -146 -28 -70 -46 -131 -50 -172 -5
-59 -4 -65 20 -89 14 -14 30 -26 35 -26 20 0 64 44 84 83 65 129 76 239 31
327 -16 30 -33 56 -40 58 -6 1 -17 -14 -23 -35z"/>
<path d="M1637 1854 c-4 -4 -7 -14 -7 -21 0 -22 111 -213 132 -228 46 -32 94
25 85 102 -6 53 -15 64 -87 108 -59 36 -110 52 -123 39z"/>
<path d="M939 1574 c-21 -25 -73 -115 -142 -245 -53 -100 -104 -174 -179 -262
-31 -37 -32 -39 -20 -83 32 -119 146 -294 184 -282 9 3 15 35 20 102 9 132 30
238 77 386 53 171 83 307 79 359 -3 41 -4 42 -19 25z"/>
</g>
</svg>
