<?xml version="1.0" standalone="no"?>
<!DOCTYPE svg PUBLIC "-//W3C//DTD SVG 20010904//EN"
 "http://www.w3.org/TR/2001/REC-SVG-20010904/DTD/svg10.dtd">
<svg version="1.0" xmlns="http://www.w3.org/2000/svg"
 width="340.000000pt" height="340.000000pt" viewBox="0 0 340.000000 340.000000"
 preserveAspectRatio="xMidYMid meet">
<metadata>
Created by potrace 1.15, written by Peter Selinger 2001-2017
</metadata>
<g transform="translate(0.000000,340.000000) scale(0.100000,-0.100000)"
fill="#000000" stroke="none">
<path d="M2430 2680 c-12 -8 -11 -16 9 -62 54 -123 62 -166 76 -398 39 -648
53 -1355 27 -1413 -14 -33 -15 -33 -161 9 -90 26 -121 30 -121 14 0 -5 25 -35
56 -67 52 -53 106 -131 206 -293 21 -33 44 -60 52 -60 22 0 74 57 100 109 54
108 64 265 34 546 -30 273 -41 525 -42 930 -1 383 -1 392 23 474 l24 83 -44
39 c-85 75 -196 116 -239 89z"/>
<path d="M720 2409 c0 -34 84 -173 136 -225 54 -55 90 -59 128 -13 31 36 35
93 10 141 -19 36 -155 104 -228 114 -44 6 -46 5 -46 -17z"/>
<path d="M1596 2398 c-50 -26 -127 -53 -236 -82 -68 -19 -96 -22 -135 -15 -89
14 -105 12 -105 -14 0 -13 9 -50 21 -83 20 -56 20 -73 15 -349 -4 -219 -9
-311 -22 -375 -27 -133 -17 -269 23 -302 26 -21 68 38 88 124 16 69 33 474 35
820 l0 106 43 7 c23 4 85 17 138 31 52 13 120 26 151 30 53 6 57 5 73 -20 50
-75 70 -306 62 -706 -6 -328 -4 -342 45 -388 24 -21 25 -22 41 -4 59 65 70
183 51 569 -16 333 -14 370 23 476 22 63 23 71 8 87 -36 40 -200 110 -254 110
-14 -1 -44 -10 -65 -22z"/>
<path d="M2050 2129 c0 -6 11 -29 24 -52 57 -98 81 -289 71 -557 -7 -179 1
-229 47 -277 29 -31 44 -29 63 8 29 56 37 143 25 283 -6 72 -12 218 -13 324
l-2 194 -40 29 c-57 43 -175 75 -175 48z"/>
<path d="M1380 2037 c0 -4 12 -41 26 -83 53 -158 55 -460 4 -671 -73 -306
-243 -519 -529 -662 -123 -63 -19 -65 131 -4 90 36 183 100 255 174 85 87 109
121 153 214 72 149 104 307 120 575 6 96 17 221 25 278 9 57 13 107 10 112
-14 23 -97 61 -144 67 -28 3 -51 3 -51 0z"/>
<path d="M512 1918 c-21 -21 -14 -46 44 -158 86 -169 133 -206 174 -137 14 23
20 50 20 94 l0 61 -52 47 c-95 86 -160 119 -186 93z"/>
<path d="M983 1676 c-15 -19 -68 -106 -117 -193 -182 -321 -222 -379 -303
-434 -48 -34 -48 -27 -10 -128 22 -62 83 -133 129 -152 27 -11 32 -10 44 5 7
10 16 44 19 75 13 116 29 167 129 414 163 399 193 515 109 413z"/>
<path d="M1565 1100 c-8 -13 10 -46 60 -105 23 -27 83 -105 133 -172 50 -67
97 -125 103 -128 25 -16 53 33 57 98 6 98 -14 129 -140 214 -148 101 -195 121
-213 93z"/>
</g>
</svg>
