<?xml version="1.0" standalone="no"?>
<!DOCTYPE svg PUBLIC "-//W3C//DTD SVG 20010904//EN"
 "http://www.w3.org/TR/2001/REC-SVG-20010904/DTD/svg10.dtd">
<svg version="1.0" xmlns="http://www.w3.org/2000/svg"
 width="340.000000pt" height="340.000000pt" viewBox="0 0 340.000000 340.000000"
 preserveAspectRatio="xMidYMid meet">
<metadata>
Created by potrace 1.15, written by Peter Selinger 2001-2017
</metadata>
<g transform="translate(0.000000,340.000000) scale(0.100000,-0.100000)"
fill="#000000" stroke="none">
<path d="M1957 2884 c-3 -11 -8 -31 -11 -46 -14 -62 -142 -161 -438 -339 -149
-89 -145 -98 21 -49 56 17 201 66 323 110 122 45 253 89 292 99 39 11 79 22
89 26 61 25 -64 166 -173 195 -84 23 -98 23 -103 4z"/>
<path d="M771 2611 c-22 -14 -5 -42 83 -143 137 -155 214 -200 251 -145 48 75
16 174 -75 232 -79 50 -220 80 -259 56z"/>
<path d="M2338 2594 c-5 -4 -8 -19 -8 -34 0 -85 -63 -192 -188 -322 -42 -44
-59 -68 -49 -68 47 0 514 273 524 306 6 18 -57 75 -104 96 -46 20 -163 35
-175 22z"/>
<path d="M1748 2429 c-10 -5 -18 -16 -18 -23 0 -19 118 -194 138 -205 27 -14
78 12 84 43 9 44 -8 108 -33 128 -31 25 -120 68 -139 68 -8 -1 -23 -5 -32 -11z"/>
<path d="M1293 2324 c-38 -16 24 -131 116 -217 87 -81 138 -76 134 13 -4 86
-27 118 -113 162 -78 39 -116 51 -137 42z"/>
<path d="M2028 2050 c-94 -49 -305 -95 -526 -116 -58 -5 -75 -11 -83 -26 -15
-27 18 -60 85 -88 l53 -21 139 56 c231 94 389 131 427 103 18 -13 17 -16 -17
-59 -73 -91 -155 -201 -159 -212 -2 -7 -16 -1 -36 16 -33 28 -103 38 -116 17
-3 -5 12 -34 35 -63 34 -46 87 -164 77 -174 -2 -1 -147 -21 -323 -43 -351 -44
-494 -67 -508 -80 -15 -15 2 -40 37 -55 18 -7 64 -20 101 -27 67 -14 73 -13
205 18 75 18 220 51 323 72 l187 39 7 -76 c18 -193 -17 -527 -67 -641 -29 -66
-22 -65 -193 -34 -90 16 -186 18 -186 5 0 -6 42 -43 93 -84 50 -41 119 -99
153 -129 76 -68 118 -98 137 -98 46 0 168 202 202 335 33 131 36 504 5 664 -5
29 -10 58 -10 64 0 9 319 5 650 -9 134 -6 147 -5 169 13 19 15 23 25 17 46 -9
37 -87 91 -169 118 -78 25 -137 23 -277 -10 -124 -30 -393 -72 -400 -63 -4 4
-23 37 -43 74 l-36 67 99 65 c92 62 222 131 290 154 34 12 36 21 16 60 -28 53
-91 94 -205 133 -71 25 -85 24 -153 -11z"/>
<path d="M544 1976 c-7 -18 32 -70 139 -182 108 -115 169 -129 203 -49 19 46
17 81 -6 133 -17 37 -29 47 -85 74 -54 25 -84 32 -156 36 -76 4 -89 2 -95 -12z"/>
<path d="M970 1558 c-8 -13 -45 -77 -83 -143 -84 -145 -146 -231 -226 -310
-48 -46 -61 -66 -61 -89 0 -45 30 -155 56 -209 29 -56 107 -141 126 -135 17 6
31 58 56 213 12 74 45 210 77 315 54 176 75 258 89 343 8 43 -10 51 -34 15z"/>
</g>
</svg>
