<?xml version="1.0" standalone="no"?>
<!DOCTYPE svg PUBLIC "-//W3C//DTD SVG 20010904//EN"
 "http://www.w3.org/TR/2001/REC-SVG-20010904/DTD/svg10.dtd">
<svg version="1.0" xmlns="http://www.w3.org/2000/svg"
 width="340.000000pt" height="340.000000pt" viewBox="0 0 340.000000 340.000000"
 preserveAspectRatio="xMidYMid meet">
<metadata>
Created by potrace 1.15, written by Peter Selinger 2001-2017
</metadata>
<g transform="translate(0.000000,340.000000) scale(0.100000,-0.100000)"
fill="#000000" stroke="none">
<path d="M1858 2869 l-27 -10 25 -48 c54 -108 84 -317 84 -581 0 -142 -2 -159
-17 -164 -40 -12 -256 -56 -275 -56 -20 0 -21 4 -17 167 l4 167 -49 37 c-57
43 -126 65 -156 49 -18 -9 -16 -15 30 -113 43 -90 110 -311 98 -323 -3 -2
-104 -14 -226 -26 -189 -19 -222 -25 -222 -39 0 -25 34 -49 99 -70 l61 -18
113 28 c61 15 201 45 310 67 169 33 199 36 207 24 23 -37 25 -263 4 -616 -7
-122 1 -165 42 -214 31 -36 48 -31 76 24 16 30 22 64 25 131 2 50 8 199 13
333 10 232 9 244 -9 281 -11 21 -34 50 -52 65 -17 15 -30 29 -28 31 4 3 401
28 712 43 130 7 172 12 184 24 24 25 -1 56 -73 90 -98 46 -183 48 -354 10
-108 -25 -323 -62 -354 -62 -3 0 -6 79 -6 175 l0 175 119 0 c136 0 236 18 317
56 89 42 96 89 17 115 -53 17 -121 5 -290 -53 -84 -28 -156 -48 -160 -44 -4 4
5 55 20 115 36 145 36 146 -20 182 -81 51 -166 69 -225 48z"/>
<path d="M903 2650 c-13 -5 -23 -16 -23 -23 0 -20 176 -195 229 -229 50 -31
92 -36 111 -13 7 8 15 34 17 58 9 81 -50 158 -148 192 -55 20 -157 28 -186 15z"/>
<path d="M692 2024 c-7 -3 -17 -15 -23 -26 -8 -15 -5 -26 17 -56 99 -133 200
-222 251 -222 29 0 53 45 53 98 0 66 -42 117 -135 163 -78 39 -137 54 -163 43z"/>
<path d="M2420 1815 c-6 -15 -10 -39 -10 -55 0 -77 -128 -363 -238 -531 -234
-358 -585 -631 -1069 -834 -62 -26 -113 -51 -113 -56 0 -16 93 -10 165 11 198
57 461 177 625 286 257 171 485 407 645 670 93 153 139 219 187 270 l49 52
-20 39 c-25 50 -96 115 -160 148 l-51 25 -10 -25z"/>
<path d="M1075 1583 c-146 -254 -272 -420 -347 -459 -33 -17 -35 -38 -12 -128
21 -80 65 -171 108 -221 l35 -40 16 38 c9 21 27 91 40 155 31 150 42 186 130
422 62 167 125 350 125 366 0 22 -27 -17 -95 -133z"/>
<path d="M1489 1693 c-9 -10 -22 -34 -29 -53 -7 -19 -40 -86 -73 -149 l-60
-113 13 -56 c13 -57 46 -102 76 -102 25 0 88 70 118 132 37 76 48 145 36 230
-16 112 -46 153 -81 111z"/>
</g>
</svg>
