<?xml version="1.0" standalone="no"?>
<!DOCTYPE svg PUBLIC "-//W3C//DTD SVG 20010904//EN"
 "http://www.w3.org/TR/2001/REC-SVG-20010904/DTD/svg10.dtd">
<svg version="1.0" xmlns="http://www.w3.org/2000/svg"
 width="340.000000pt" height="340.000000pt" viewBox="0 0 340.000000 340.000000"
 preserveAspectRatio="xMidYMid meet">
<metadata>
Created by potrace 1.15, written by Peter Selinger 2001-2017
</metadata>
<g transform="translate(0.000000,340.000000) scale(0.100000,-0.100000)"
fill="#000000" stroke="none">
<path d="M1722 2888 c-18 -18 -15 -43 8 -63 41 -37 53 -106 57 -340 l5 -220
-163 -32 c-110 -22 -165 -29 -170 -22 -6 11 1 57 20 127 7 24 9 51 6 61 -12
40 -156 111 -181 90 -20 -17 -18 -29 21 -103 25 -48 35 -80 35 -113 0 -41 -5
-50 -62 -109 l-62 -65 12 -45 c12 -44 48 -104 63 -104 4 0 34 23 66 50 65 56
182 120 261 143 62 19 61 24 28 -104 -86 -331 -300 -621 -683 -926 -50 -40
-95 -78 -99 -84 -12 -20 43 -2 132 41 268 131 544 416 778 807 l37 62 97 -107
c53 -59 156 -172 229 -252 257 -284 278 -300 418 -315 105 -11 465 33 494 60
19 18 6 24 -181 79 -154 46 -329 109 -438 158 -104 47 -334 211 -497 356 -72
63 -73 64 -67 103 8 49 -12 75 -86 109 -28 13 -47 27 -43 30 11 10 162 46 310
74 l122 23 -6 -43 c-8 -63 2 -94 32 -94 26 0 95 83 193 233 28 43 62 91 76
108 14 17 26 37 26 45 0 38 -152 164 -197 164 -33 0 -45 -22 -32 -59 29 -82
-21 -272 -74 -284 -58 -14 -288 -39 -295 -32 -11 11 -3 183 13 261 9 39 26 99
40 132 44 109 34 125 -108 181 -83 33 -116 38 -135 19z"/>
<path d="M735 2600 c-19 -31 173 -282 241 -315 35 -16 37 -16 62 2 30 23 40
49 41 113 1 57 -24 108 -68 138 -63 41 -261 86 -276 62z"/>
<path d="M476 2035 c-18 -48 139 -281 217 -321 41 -22 75 -11 93 31 20 49 17
92 -10 152 -23 49 -29 54 -118 98 -107 53 -171 67 -182 40z"/>
<path d="M1067 1748 c-14 -18 -69 -103 -122 -188 -172 -274 -307 -447 -374
-478 -30 -14 -37 -23 -39 -52 -4 -43 22 -145 58 -226 26 -59 73 -109 91 -98
18 11 47 80 84 199 56 183 157 430 261 640 52 105 94 200 94 213 0 32 -25 27
-53 -10z"/>
<path d="M1650 1514 c0 -39 28 -90 68 -125 45 -39 157 -93 178 -85 22 9 45 72
38 104 -15 63 -42 91 -111 112 -36 11 -89 20 -119 20 -51 0 -54 -1 -54 -26z"/>
<path d="M1992 1249 c-116 -68 -316 -123 -557 -153 -133 -16 -155 -22 -155
-40 0 -31 121 -106 171 -106 15 0 139 36 276 81 136 44 264 81 283 82 l35 2
-2 -45 c-2 -80 -109 -318 -203 -454 -52 -75 -52 -76 -48 -141 4 -64 27 -113
57 -123 42 -14 168 209 277 488 46 118 53 129 117 191 37 36 67 70 67 76 0 24
-93 113 -143 137 -86 40 -114 41 -175 5z"/>
</g>
</svg>
