<?xml version="1.0" standalone="no"?>
<!DOCTYPE svg PUBLIC "-//W3C//DTD SVG 20010904//EN"
 "http://www.w3.org/TR/2001/REC-SVG-20010904/DTD/svg10.dtd">
<svg version="1.0" xmlns="http://www.w3.org/2000/svg"
 width="340.000000pt" height="340.000000pt" viewBox="0 0 340.000000 340.000000"
 preserveAspectRatio="xMidYMid meet">
<metadata>
Created by potrace 1.15, written by Peter Selinger 2001-2017
</metadata>
<g transform="translate(0.000000,340.000000) scale(0.100000,-0.100000)"
fill="#000000" stroke="none">
<path d="M2386 2514 c-76 -42 -314 -88 -695 -133 -262 -31 -299 -42 -248 -76
37 -24 127 -46 162 -39 17 3 73 16 125 29 148 36 160 37 160 17 0 -9 -7 -60
-15 -113 -45 -300 -225 -562 -554 -804 -33 -25 -61 -49 -61 -55 0 -23 72 -8
146 30 168 87 337 240 448 407 73 111 206 380 206 418 0 38 -25 80 -65 111
-20 15 -34 29 -31 31 7 8 170 31 266 38 62 5 110 3 138 -4 l42 -12 0 -57 c-1
-189 -78 -439 -159 -516 l-30 -29 -85 20 c-48 11 -86 18 -86 15 0 -2 24 -36
53 -76 30 -39 68 -93 86 -119 18 -27 39 -51 46 -54 24 -9 116 50 162 104 54
64 77 130 128 374 20 96 42 187 48 204 6 16 33 53 59 82 26 29 48 60 48 67 0
21 -85 92 -144 120 -71 34 -115 39 -150 20z"/>
<path d="M884 2495 c-4 -9 -1 -29 6 -45 15 -37 215 -230 261 -253 32 -15 35
-15 53 2 29 29 31 97 6 164 -20 54 -25 60 -77 82 -130 58 -238 79 -249 50z"/>
<path d="M1505 2102 c-6 -4 -24 -33 -40 -65 -16 -31 -52 -84 -82 -116 -51 -57
-53 -61 -53 -118 0 -36 6 -67 15 -80 13 -19 19 -20 45 -11 35 12 89 72 131
145 24 42 31 68 36 137 4 62 2 90 -7 101 -14 16 -29 19 -45 7z"/>
<path d="M574 1929 c-8 -14 182 -207 253 -256 47 -32 56 -35 78 -25 14 6 33
28 42 47 15 31 15 42 5 82 -26 96 -65 120 -239 149 -106 17 -130 17 -139 3z"/>
<path d="M1134 1568 c-11 -13 -53 -81 -94 -153 -141 -252 -279 -427 -425 -541
l-39 -31 12 -53 c17 -72 63 -166 107 -218 56 -64 75 -55 96 50 19 96 40 151
139 363 175 375 254 575 234 595 -7 7 -17 2 -30 -12z"/>
<path d="M1871 1481 c-12 -8 -11 -17 7 -59 39 -90 54 -210 59 -478 l6 -251
-154 -7 c-85 -4 -165 -10 -178 -13 l-24 -6 5 139 c3 76 14 179 24 228 l17 88
-24 19 c-72 54 -195 90 -213 61 -3 -5 4 -33 15 -63 32 -83 49 -190 56 -340 l6
-137 -84 -11 c-133 -18 -269 -31 -336 -31 -34 0 -65 -5 -69 -11 -21 -34 90
-109 163 -109 58 0 250 26 413 55 178 32 330 51 523 66 172 13 421 2 643 -27
65 -8 128 -13 141 -9 35 8 47 39 28 74 -15 29 -80 88 -122 110 -35 18 -205 12
-408 -14 -104 -14 -214 -28 -242 -31 l-53 -7 0 184 0 184 123 1 c182 2 357 45
357 87 0 18 -39 53 -73 66 -16 6 -55 11 -87 11 -47 0 -74 -7 -143 -41 -47 -22
-104 -43 -127 -46 l-41 -6 6 39 c3 21 9 53 11 69 3 17 12 54 21 83 16 52 16
53 -7 70 -61 45 -126 72 -175 72 -27 0 -56 -4 -64 -9z"/>
</g>
</svg>
