<?xml version="1.0" standalone="no"?>
<!DOCTYPE svg PUBLIC "-//W3C//DTD SVG 20010904//EN"
 "http://www.w3.org/TR/2001/REC-SVG-20010904/DTD/svg10.dtd">
<svg version="1.0" xmlns="http://www.w3.org/2000/svg"
 width="340.000000pt" height="340.000000pt" viewBox="0 0 340.000000 340.000000"
 preserveAspectRatio="xMidYMid meet">
<metadata>
Created by potrace 1.15, written by Peter Selinger 2001-2017
</metadata>
<g transform="translate(0.000000,340.000000) scale(0.100000,-0.100000)"
fill="#000000" stroke="none">
<path d="M1735 3033 c-11 -2 -30 -6 -42 -9 -37 -7 -27 -38 25 -80 26 -21 83
-70 127 -108 44 -38 99 -78 123 -89 l42 -21 31 31 c25 25 31 39 31 72 -1 49
-39 120 -80 149 -47 34 -201 67 -257 55z"/>
<path d="M804 2686 c-10 -26 27 -78 120 -171 67 -68 104 -97 139 -110 l48 -18
27 27 c39 38 38 108 -2 160 -54 71 -314 159 -332 112z"/>
<path d="M2340 2656 c-265 -77 -504 -129 -751 -164 -153 -22 -190 -35 -167
-58 17 -17 132 -38 171 -30 24 5 27 3 27 -22 0 -45 -46 -170 -90 -243 -54 -90
-106 -155 -225 -278 -97 -100 -99 -104 -65 -97 50 9 173 82 239 142 l57 52 57
-62 c59 -67 138 -126 168 -126 45 0 63 82 30 136 -20 33 -86 65 -164 79 -21 4
-39 11 -42 14 -2 4 29 46 71 92 88 100 134 166 134 193 0 12 -23 42 -54 71
l-54 51 152 18 c340 40 639 100 698 140 46 30 50 69 9 90 -37 19 -137 20 -201
2z"/>
<path d="M2140 2352 c0 -43 -7 -105 -16 -137 -18 -72 -85 -201 -144 -279 -24
-31 -40 -59 -37 -63 13 -13 122 65 186 133 l66 71 85 -79 c117 -108 186 -155
208 -142 61 39 24 176 -58 216 -19 9 -70 21 -113 27 -43 5 -80 11 -83 13 -5 6
78 155 107 192 l23 29 -30 24 c-43 36 -124 73 -161 73 l-33 0 0 -78z"/>
<path d="M532 2138 c-7 -7 -12 -22 -12 -33 0 -43 130 -216 198 -264 47 -32 67
-34 94 -6 33 33 39 67 22 126 -12 41 -23 52 -87 96 -126 87 -186 110 -215 81z"/>
<path d="M1045 1793 c-14 -27 -63 -124 -110 -218 -102 -208 -169 -311 -253
-393 l-64 -62 40 -84 c45 -94 101 -162 149 -183 18 -7 34 -13 37 -13 9 0 25
66 45 181 11 63 47 205 80 315 104 347 139 504 112 504 -6 0 -22 -21 -36 -47z"/>
<path d="M1863 1830 c-27 -11 -28 -14 -8 -44 17 -25 45 -158 45 -211 0 -31 -3
-35 -32 -39 -39 -7 -396 -41 -588 -56 -141 -11 -205 -23 -215 -41 -21 -33 112
-82 220 -80 39 0 184 21 324 46 140 25 263 45 273 45 17 0 18 -17 18 -332 0
-362 13 -655 30 -705 13 -35 33 -48 48 -30 30 37 49 252 63 722 6 204 13 372
16 375 3 3 191 4 418 3 l413 -1 13 30 c28 68 -30 116 -178 145 -73 14 -88 14
-169 0 -366 -64 -498 -86 -503 -82 -3 3 1 34 8 68 8 34 16 72 18 84 6 27 -34
67 -92 94 -43 20 -87 23 -122 9z"/>
</g>
</svg>
