<?xml version="1.0" standalone="no"?>
<!DOCTYPE svg PUBLIC "-//W3C//DTD SVG 20010904//EN"
 "http://www.w3.org/TR/2001/REC-SVG-20010904/DTD/svg10.dtd">
<svg version="1.0" xmlns="http://www.w3.org/2000/svg"
 width="340.000000pt" height="340.000000pt" viewBox="0 0 340.000000 340.000000"
 preserveAspectRatio="xMidYMid meet">
<metadata>
Created by potrace 1.15, written by Peter Selinger 2001-2017
</metadata>
<g transform="translate(0.000000,340.000000) scale(0.100000,-0.100000)"
fill="#000000" stroke="none">
<path d="M2073 2777 c3 -20 21 -60 41 -90 21 -34 39 -78 46 -114 5 -32 13
-197 17 -368 l6 -310 -28 -109 c-25 -100 -27 -113 -15 -165 25 -113 81 -189
117 -160 35 30 37 60 43 534 l5 470 33 84 c17 47 32 95 32 107 0 28 -78 100
-137 126 -25 11 -73 23 -106 26 l-60 5 6 -36z"/>
<path d="M687 2585 c-10 -9 -17 -22 -17 -28 1 -30 195 -277 218 -277 20 0 77
47 85 70 12 33 -7 101 -37 137 -26 31 -154 100 -202 109 -21 4 -36 1 -47 -11z"/>
<path d="M1530 2592 c-8 -3 -62 -26 -120 -52 -90 -41 -118 -49 -195 -55 -49
-4 -98 -11 -107 -16 -16 -9 -16 -11 2 -42 48 -81 55 -143 54 -452 -2 -316 -14
-516 -44 -726 -18 -125 -19 -140 -5 -195 17 -65 58 -134 79 -134 20 0 35 42
47 142 7 51 13 94 14 96 3 4 214 32 241 32 17 0 22 -9 32 -63 6 -34 20 -87 30
-117 16 -46 23 -55 42 -55 33 0 57 44 77 141 15 69 17 148 15 629 l-3 550 31
85 c17 47 34 93 37 102 12 40 -175 147 -227 130z m-11 -150 c25 -47 34 -189
38 -657 3 -332 1 -499 -6 -518 l-11 -27 -32 20 c-41 25 -72 25 -173 1 -44 -11
-82 -18 -84 -16 -2 2 0 81 4 175 l7 170 25 0 c14 0 65 9 113 21 98 23 129 44
111 78 -18 32 -73 37 -150 12 -108 -35 -101 -45 -101 139 l0 160 34 0 c45 0
180 26 206 40 12 6 20 21 20 36 0 19 -8 28 -35 40 -30 12 -40 12 -77 -2 -112
-40 -129 -46 -132 -43 -2 2 -7 79 -10 171 l-7 167 38 6 c21 4 74 15 118 25
101 23 93 23 104 2z"/>
<path d="M2504 2211 c-38 -10 -54 -19 -54 -32 0 -11 304 -162 420 -208 l75
-30 18 20 c22 28 21 44 -7 104 -55 120 -105 145 -296 151 -69 2 -139 0 -156
-5z"/>
<path d="M1875 2019 c-15 -23 -75 -287 -75 -327 0 -48 19 -100 44 -121 41 -34
93 41 111 160 8 55 -10 218 -30 265 -14 34 -37 44 -50 23z"/>
<path d="M507 2013 c-23 -22 12 -87 102 -185 90 -99 157 -113 187 -41 14 33
14 40 -1 79 -27 71 -48 90 -140 123 -83 30 -134 38 -148 24z"/>
<path d="M2470 1826 c-6 -16 -4 -40 7 -76 14 -48 14 -60 0 -131 -41 -201 -192
-474 -389 -704 -144 -167 -300 -303 -495 -431 -62 -41 -113 -79 -113 -84 0
-13 -7 -13 80 11 184 50 491 258 659 445 126 141 175 218 341 534 56 107 114
210 127 228 21 27 24 42 20 74 -6 48 -25 70 -101 120 -71 46 -121 51 -136 14z"/>
<path d="M927 1628 c-19 -35 -74 -137 -122 -228 -114 -217 -163 -288 -227
-336 -75 -56 -82 -89 -38 -175 44 -88 95 -149 125 -149 27 0 62 39 72 79 16
69 100 352 172 579 45 140 81 262 81 273 0 38 -30 18 -63 -43z"/>
</g>
</svg>
