<?xml version="1.0" standalone="no"?>
<!DOCTYPE svg PUBLIC "-//W3C//DTD SVG 20010904//EN"
 "http://www.w3.org/TR/2001/REC-SVG-20010904/DTD/svg10.dtd">
<svg version="1.0" xmlns="http://www.w3.org/2000/svg"
 width="340.000000pt" height="340.000000pt" viewBox="0 0 340.000000 340.000000"
 preserveAspectRatio="xMidYMid meet">
<metadata>
Created by potrace 1.15, written by Peter Selinger 2001-2017
</metadata>
<g transform="translate(0.000000,340.000000) scale(0.100000,-0.100000)"
fill="#000000" stroke="none">
<path d="M1400 2754 c0 -4 11 -37 24 -74 48 -133 85 -409 86 -637 0 -57 -2
-63 -22 -68 -129 -27 -334 -76 -378 -89 -105 -31 -105 -45 1 -73 64 -16 69
-16 180 5 206 39 192 38 184 11 -3 -13 -46 -105 -95 -204 -104 -212 -210 -384
-352 -571 -136 -180 -132 -174 -124 -181 29 -29 282 200 369 333 65 100 134
231 179 343 l39 96 -5 -205 c-7 -238 -18 -381 -47 -610 -28 -216 -16 -318 45
-395 21 -27 25 -28 41 -15 10 8 27 35 38 60 17 38 21 78 28 255 4 116 8 324 8
463 1 138 3 252 6 252 2 0 52 -36 110 -80 97 -72 108 -78 131 -68 46 21 45 74
-5 149 -33 49 -57 59 -188 75 l-53 7 0 173 c0 172 0 174 23 179 174 38 252 60
273 79 70 60 -79 114 -188 68 -24 -11 -55 -22 -70 -26 l-28 -6 0 77 c0 179 31
404 66 489 8 18 14 44 14 57 0 36 -77 102 -141 121 -52 16 -149 22 -149 10z"/>
<path d="M808 2394 c-16 -15 -7 -34 43 -94 76 -92 187 -180 226 -180 69 0 85
106 30 189 -23 34 -37 43 -94 62 -72 22 -193 36 -205 23z"/>
<path d="M2526 2271 c-20 -32 -339 -117 -381 -101 -43 17 -144 31 -170 24 -31
-8 -30 -21 4 -115 40 -112 46 -184 45 -594 0 -332 -3 -403 -18 -475 -28 -134
-30 -181 -12 -243 17 -58 58 -117 82 -117 24 0 46 47 47 104 2 52 3 55 32 60
65 12 213 26 277 26 79 0 72 8 124 -142 44 -125 71 -181 87 -175 25 8 77 91
98 155 46 147 48 314 8 967 -15 251 8 417 64 464 26 21 20 46 -15 77 -70 58
-253 116 -272 85z m25 -176 c16 -93 29 -301 40 -615 13 -368 8 -527 -16 -588
l-17 -40 -46 48 c-65 67 -103 72 -236 31 -148 -46 -136 -56 -136 112 0 78 3
159 6 180 6 36 8 37 48 37 98 0 281 45 306 75 16 19 -17 50 -68 66 -37 11 -50
8 -161 -29 l-121 -41 1 117 c0 64 4 137 7 161 l7 44 140 23 c166 28 188 36
183 66 -8 55 -109 63 -221 18 -124 -50 -117 -58 -117 134 l0 164 113 30 c139
38 202 51 247 49 32 -2 35 -5 41 -42z"/>
<path d="M586 1895 c-9 -9 -16 -20 -16 -25 0 -14 86 -124 126 -161 91 -84 126
-97 164 -59 25 25 25 55 -1 125 -22 60 -44 77 -144 108 -88 27 -111 30 -129
12z"/>
<path d="M969 1500 c-15 -25 -66 -124 -114 -220 -47 -96 -100 -192 -118 -215
-50 -65 -90 -106 -114 -116 -13 -5 -23 -17 -23 -27 0 -34 30 -132 56 -183 32
-64 111 -146 127 -130 5 5 16 58 23 116 15 119 38 217 88 368 47 140 108 390
104 424 -3 28 -3 27 -29 -17z"/>
</g>
</svg>
