<?xml version="1.0" standalone="no"?>
<!DOCTYPE svg PUBLIC "-//W3C//DTD SVG 20010904//EN"
 "http://www.w3.org/TR/2001/REC-SVG-20010904/DTD/svg10.dtd">
<svg version="1.0" xmlns="http://www.w3.org/2000/svg"
 width="340.000000pt" height="340.000000pt" viewBox="0 0 340.000000 340.000000"
 preserveAspectRatio="xMidYMid meet">
<metadata>
Created by potrace 1.15, written by Peter Selinger 2001-2017
</metadata>
<g transform="translate(0.000000,340.000000) scale(0.100000,-0.100000)"
fill="#000000" stroke="none">
<path d="M1766 2774 c-4 -9 -2 -42 5 -72 6 -31 9 -71 5 -90 -3 -19 -44 -115
-92 -214 -48 -98 -84 -181 -80 -185 11 -11 120 103 224 232 53 66 113 139 134
162 43 49 48 80 16 111 -30 27 -111 61 -163 69 -34 4 -43 2 -49 -13z"/>
<path d="M793 2593 c-23 -9 -14 -34 34 -102 65 -91 137 -166 181 -187 l36 -17
24 28 c20 24 23 36 18 71 -15 111 -57 155 -187 195 -61 19 -83 22 -106 12z"/>
<path d="M1271 2561 c-12 -8 -13 -16 -3 -48 26 -86 137 -243 172 -243 4 0 20
14 34 31 21 24 26 41 26 82 0 48 -2 53 -52 99 -52 48 -120 88 -149 88 -8 0
-20 -4 -28 -9z"/>
<path d="M2465 2434 c-148 -75 -179 -79 -318 -38 -48 14 -94 24 -101 21 -10
-4 -6 -25 15 -89 51 -152 59 -361 28 -708 -14 -155 -32 -239 -85 -405 -74
-227 -168 -403 -298 -555 -31 -36 -56 -71 -56 -77 0 -42 120 30 211 124 180
188 259 370 323 744 l6 36 128 6 c158 6 232 26 232 62 0 58 -102 69 -239 25
-35 -11 -74 -20 -86 -20 -21 0 -22 4 -18 43 2 23 7 94 11 157 l7 115 35 -2
c46 -3 195 14 242 27 49 14 55 35 19 71 -37 37 -72 38 -198 3 -52 -14 -96 -24
-97 -22 -2 2 -1 78 2 170 l5 167 56 6 c50 6 183 32 253 50 21 5 29 2 37 -14
23 -41 30 -229 32 -806 2 -612 0 -647 -40 -696 l-18 -23 -79 19 c-95 22 -154
30 -154 20 0 -3 25 -36 56 -72 31 -37 81 -102 111 -145 77 -110 138 -136 188
-82 79 85 107 366 86 854 -23 519 -25 688 -7 770 9 41 28 98 42 126 25 49 25
53 10 82 -18 36 -77 73 -159 101 l-56 20 -126 -65z"/>
<path d="M1605 2134 c-93 -30 -235 -72 -315 -93 -80 -20 -144 -41 -143 -46 3
-23 79 -37 170 -32 l91 4 7 -34 c11 -59 25 -253 25 -350 l0 -92 -37 -10 c-117
-31 -174 -43 -179 -38 -3 3 -1 31 5 63 6 32 11 92 11 135 0 76 -1 77 -35 108
-20 17 -45 31 -56 31 -19 0 -19 -5 -13 -117 8 -139 -2 -182 -51 -248 -38 -49
-43 -81 -24 -148 10 -38 40 -77 58 -77 5 0 32 19 59 43 50 42 178 119 219 131
l22 7 -24 -90 c-57 -211 -156 -419 -290 -605 -31 -43 -54 -81 -51 -83 3 -3 22
1 43 8 78 25 273 253 339 395 41 87 76 206 99 339 10 55 23 105 29 111 11 11
173 64 196 64 10 0 11 -27 6 -121 -7 -130 -2 -149 39 -149 12 0 27 6 32 13 6
6 34 130 63 275 l53 263 -24 26 c-13 14 -42 34 -64 44 -43 20 -120 25 -130 9
-3 -5 2 -38 11 -72 9 -35 17 -99 18 -142 l1 -79 -102 -27 c-91 -23 -103 -24
-103 -10 0 9 7 94 15 189 18 199 16 205 -58 242 -51 27 -54 25 133 69 205 49
264 70 268 98 3 18 -4 26 -32 37 -56 24 -100 17 -281 -41z"/>
<path d="M593 2029 c-20 -20 -16 -36 19 -87 79 -117 149 -182 196 -182 29 0
62 46 62 87 0 65 -31 105 -113 145 -86 43 -146 56 -164 37z"/>
<path d="M954 1638 c-193 -349 -280 -491 -341 -561 -43 -48 -45 -52 -38 -96 9
-63 66 -212 86 -224 23 -14 66 -1 80 25 7 12 27 83 45 158 34 142 86 310 177
575 62 181 73 225 58 225 -5 0 -35 -46 -67 -102z"/>
</g>
</svg>
