<?xml version="1.0" standalone="no"?>
<!DOCTYPE svg PUBLIC "-//W3C//DTD SVG 20010904//EN"
 "http://www.w3.org/TR/2001/REC-SVG-20010904/DTD/svg10.dtd">
<svg version="1.0" xmlns="http://www.w3.org/2000/svg"
 width="340.000000pt" height="340.000000pt" viewBox="0 0 340.000000 340.000000"
 preserveAspectRatio="xMidYMid meet">
<metadata>
Created by potrace 1.15, written by Peter Selinger 2001-2017
</metadata>
<g transform="translate(0.000000,340.000000) scale(0.100000,-0.100000)"
fill="#000000" stroke="none">
<path d="M2075 2799 c-4 -5 4 -34 17 -62 21 -47 23 -66 22 -182 -1 -77 -7
-150 -15 -179 l-14 -50 -139 -27 c-79 -15 -142 -33 -147 -41 -5 -8 -1 -20 11
-33 16 -16 36 -20 117 -22 54 -2 100 -3 101 -3 16 0 -203 -365 -235 -391 -8
-8 -68 -20 -132 -29 -95 -12 -116 -18 -119 -33 -3 -13 11 -24 54 -44 71 -32
111 -30 395 25 315 62 276 61 300 6 53 -118 85 -427 76 -718 -5 -179 -17 -256
-48 -318 -26 -50 -51 -55 -165 -28 -53 12 -98 19 -101 16 -4 -3 16 -29 43 -58
66 -70 115 -140 153 -215 34 -69 47 -75 98 -43 66 40 115 134 154 295 22 91
25 269 8 445 -5 58 -13 213 -17 345 -8 264 -14 288 -73 324 l-29 18 112 6 c62
4 186 10 275 13 142 6 165 10 180 26 36 40 -24 79 -159 105 l-84 16 -180 -41
c-215 -49 -582 -112 -657 -112 -5 0 18 27 51 59 70 69 146 173 208 288 l45 82
57 11 c90 18 317 78 361 96 28 11 43 24 47 41 8 29 1 36 -45 52 -59 19 -113
12 -251 -34 -74 -25 -138 -45 -142 -45 -4 0 2 24 14 53 45 112 98 269 98 292
0 28 -50 70 -107 91 -46 16 -129 18 -138 3z"/>
<path d="M1597 2633 c-4 -3 -7 -20 -7 -37 -1 -66 -62 -196 -134 -282 l-28 -35
-24 52 c-33 71 -76 123 -128 153 -44 26 -76 33 -76 18 0 -4 10 -23 23 -42 13
-19 49 -84 81 -144 l58 -109 -99 -99 c-54 -54 -133 -126 -175 -160 -91 -72
-101 -88 -55 -88 71 1 200 72 294 163 29 28 56 48 60 44 16 -16 15 -126 -2
-183 -49 -170 -220 -440 -404 -636 -33 -36 -61 -68 -61 -72 0 -3 15 -6 33 -6
79 0 219 127 376 338 46 62 85 111 86 110 2 -2 -1 -66 -6 -143 -20 -311 -55
-532 -93 -590 -27 -41 -79 -58 -158 -53 -36 3 -71 2 -77 -1 -6 -4 9 -34 40
-76 28 -39 66 -100 85 -137 18 -36 37 -69 42 -72 12 -7 61 20 93 50 60 58 124
242 149 429 29 224 23 749 -12 1027 l-11 88 103 107 c131 137 200 220 200 240
0 32 -46 96 -85 118 -48 28 -79 38 -88 28z"/>
<path d="M796 2605 c-13 -14 -10 -25 35 -102 65 -112 123 -195 149 -211 17
-10 26 -10 50 3 42 22 53 49 47 112 -7 69 -23 93 -95 142 -100 67 -157 85
-186 56z"/>
<path d="M2201 2156 c-10 -12 3 -32 69 -105 44 -49 97 -100 117 -112 35 -22
36 -22 49 -4 23 31 22 111 -2 156 -11 23 -30 33 -95 54 -91 29 -122 31 -138
11z"/>
<path d="M587 2023 c-19 -19 -2 -68 52 -151 65 -99 132 -172 157 -172 55 0 89
63 74 137 -14 62 -15 64 -83 108 -104 66 -182 96 -200 78z"/>
<path d="M985 1644 c-9 -14 -44 -76 -77 -138 -107 -198 -218 -344 -304 -397
-27 -16 -34 -27 -34 -52 0 -52 39 -197 66 -246 26 -49 61 -79 74 -64 5 4 20
53 33 108 14 56 50 160 81 233 96 224 136 332 167 450 16 62 29 118 29 123 0
17 -18 9 -35 -17z"/>
<path d="M1988 1570 c-20 -11 -74 -30 -120 -44 -81 -23 -85 -23 -161 -8 -67
13 -80 13 -92 1 -12 -12 -8 -27 30 -109 25 -55 55 -143 71 -210 15 -63 31
-132 36 -152 9 -38 30 -50 44 -26 4 7 13 35 19 63 l11 50 68 7 c69 7 224 36
238 44 14 9 9 35 -12 64 l-20 28 30 57 c16 31 43 73 60 93 16 20 30 47 30 60
0 33 -51 77 -104 91 -61 15 -85 13 -128 -9z m16 -96 c21 -8 21 -50 0 -140
l-17 -72 -80 -22 c-58 -15 -82 -18 -87 -10 -11 17 -33 210 -26 218 4 3 42 12
84 18 96 15 107 15 126 8z"/>
</g>
</svg>
