<?xml version="1.0" standalone="no"?>
<!DOCTYPE svg PUBLIC "-//W3C//DTD SVG 20010904//EN"
 "http://www.w3.org/TR/2001/REC-SVG-20010904/DTD/svg10.dtd">
<svg version="1.0" xmlns="http://www.w3.org/2000/svg"
 width="340.000000pt" height="340.000000pt" viewBox="0 0 340.000000 340.000000"
 preserveAspectRatio="xMidYMid meet">
<metadata>
Created by potrace 1.15, written by Peter Selinger 2001-2017
</metadata>
<g transform="translate(0.000000,340.000000) scale(0.100000,-0.100000)"
fill="#000000" stroke="none">
<path d="M2146 2809 c9 -69 12 -244 4 -252 -5 -4 -448 -57 -479 -57 -11 0 -13
19 -8 98 l6 98 -52 32 c-29 17 -68 34 -87 37 -38 7 -90 -8 -90 -25 0 -6 18
-37 40 -68 37 -52 87 -169 77 -178 -10 -10 -188 -25 -262 -23 -95 3 -115 -4
-88 -33 22 -25 106 -68 131 -68 10 0 52 9 93 20 94 25 136 26 143 3 3 -10 10
-47 17 -83 14 -76 24 -100 44 -100 18 0 32 49 40 141 l6 76 187 22 c103 12
203 25 223 28 l37 5 -14 -59 c-7 -32 -20 -78 -29 -102 -16 -48 -13 -61 15 -61
20 0 65 67 116 173 l28 57 192 0 c210 0 254 8 254 44 0 28 -23 50 -73 71 -48
20 -81 19 -205 -5 -142 -28 -137 -29 -106 32 15 29 38 70 52 91 l26 40 -34 29
c-49 40 -114 70 -167 76 l-46 5 9 -64z"/>
<path d="M823 2553 c-43 -17 51 -165 156 -245 68 -52 90 -55 124 -16 21 25 22
61 0 127 -16 51 -18 52 -106 96 -84 42 -136 54 -174 38z"/>
<path d="M1794 2333 c-8 -3 -4 -25 12 -71 13 -37 24 -88 24 -113 l0 -46 -112
-11 c-62 -7 -155 -15 -205 -18 -51 -4 -93 -11 -93 -16 0 -17 85 -48 131 -48
40 0 141 15 247 36 l32 7 0 -82 c0 -56 -4 -83 -12 -86 -21 -7 -349 -33 -558
-45 -250 -14 -290 -29 -194 -71 65 -29 135 -34 239 -15 249 45 377 65 448 72
l77 7 0 -112 c0 -61 -3 -111 -7 -111 -5 0 -71 -7 -148 -15 -77 -8 -168 -15
-202 -15 -34 0 -65 -5 -68 -10 -8 -14 78 -52 130 -57 22 -3 94 5 161 16 67 12
125 21 129 21 11 0 -2 -358 -20 -520 -8 -74 -22 -170 -31 -214 -19 -93 -14
-140 25 -222 29 -62 54 -90 70 -79 27 16 33 97 40 563 6 379 10 485 20 492 7
4 66 11 131 15 180 10 274 27 278 49 2 10 -6 28 -17 40 -20 21 -20 24 -6 107
8 46 15 87 15 92 0 4 126 7 280 7 l280 0 12 25 c10 22 8 29 -13 51 -32 36
-101 64 -154 64 -24 0 -99 -11 -167 -24 -169 -33 -198 -36 -198 -25 0 20 39
85 69 113 17 17 31 35 31 42 0 15 -88 59 -152 76 -38 10 -57 10 -90 0 -91 -27
-274 -72 -290 -72 -23 0 -24 49 -3 91 11 21 13 34 5 48 -19 37 -112 77 -146
64z m446 -253 c13 -24 -8 -140 -25 -140 -5 0 -66 -7 -135 -15 -69 -8 -133 -15
-142 -15 -16 0 -18 11 -18 84 l0 84 68 9 c37 6 106 11 154 12 78 1 88 -1 98
-19z m-30 -231 c0 -39 -23 -164 -32 -174 -5 -5 -65 -17 -133 -25 l-125 -16 0
107 0 107 128 9 c70 5 135 11 145 11 11 1 17 -5 17 -19z"/>
<path d="M570 2015 c-23 -27 38 -133 131 -227 70 -72 79 -78 117 -78 57 0 69
23 52 98 -24 106 -30 115 -132 166 -111 56 -148 65 -168 41z"/>
<path d="M965 1471 c-144 -281 -226 -394 -296 -408 -27 -5 -29 -9 -29 -48 0
-46 44 -187 82 -264 29 -58 60 -66 82 -23 9 17 32 97 52 178 20 82 74 261 120
399 84 254 105 335 86 335 -5 0 -49 -76 -97 -169z"/>
<path d="M2333 1553 c2 -16 13 -71 23 -123 21 -110 25 -396 10 -720 -8 -170
-7 -203 8 -252 26 -90 75 -114 104 -50 15 33 17 87 18 497 1 401 4 469 19 529
l17 69 -23 19 c-46 36 -99 58 -140 58 -40 0 -41 -1 -36 -27z"/>
<path d="M1245 1470 c-3 -5 -2 -27 4 -47 31 -120 20 -357 -25 -509 -45 -156
-141 -311 -268 -434 -25 -24 -46 -51 -46 -58 0 -22 53 -7 108 30 177 121 296
341 351 647 11 59 29 132 40 162 32 82 28 108 -21 156 -24 22 -53 46 -65 52
-27 14 -70 14 -78 1z"/>
<path d="M1560 1297 c0 -100 -29 -197 -107 -359 -37 -76 -64 -141 -60 -144 11
-11 76 48 123 110 47 62 92 145 135 246 12 30 31 67 41 82 10 14 18 32 18 40
0 29 -95 98 -135 98 -12 0 -15 -14 -15 -73z"/>
<path d="M2010 1318 c1 -13 42 -104 93 -203 85 -167 94 -180 122 -183 40 -5
55 19 55 87 0 96 -13 121 -100 205 -115 110 -170 140 -170 94z"/>
</g>
</svg>
