<?xml version="1.0" standalone="no"?>
<!DOCTYPE svg PUBLIC "-//W3C//DTD SVG 20010904//EN"
 "http://www.w3.org/TR/2001/REC-SVG-20010904/DTD/svg10.dtd">
<svg version="1.0" xmlns="http://www.w3.org/2000/svg"
 width="340.000000pt" height="340.000000pt" viewBox="0 0 340.000000 340.000000"
 preserveAspectRatio="xMidYMid meet">
<metadata>
Created by potrace 1.15, written by Peter Selinger 2001-2017
</metadata>
<g transform="translate(0.000000,340.000000) scale(0.100000,-0.100000)"
fill="#000000" stroke="none">
<path d="M1706 2961 c-18 -28 150 -207 225 -240 33 -15 46 -17 60 -8 66 41 25
174 -71 226 -34 19 -64 26 -126 29 -54 3 -84 1 -88 -7z"/>
<path d="M776 2679 c81 -126 149 -204 208 -240 94 -57 140 29 83 154 -23 50
-31 58 -92 88 -53 26 -82 33 -147 37 l-80 5 28 -44z"/>
<path d="M2140 2670 c-235 -60 -458 -106 -583 -121 -90 -10 -93 -10 -174 20
-45 16 -99 31 -120 33 l-38 3 1 -50 c0 -27 8 -90 17 -139 31 -165 19 -493 -29
-781 -69 -412 -229 -792 -436 -1036 -59 -69 -83 -107 -74 -116 12 -12 97 51
168 125 158 165 282 392 393 717 27 77 49 141 50 143 1 1 18 -5 38 -13 20 -8
51 -15 69 -15 28 0 198 37 261 56 16 5 17 -2 15 -98 l-3 -103 -143 -20 c-99
-15 -147 -26 -159 -38 -9 -9 -13 -20 -9 -24 4 -5 50 -10 102 -13 l94 -5 -77
-100 c-92 -120 -222 -256 -357 -374 -107 -94 -109 -113 -4 -62 150 72 370 276
486 450 36 55 62 86 62 75 0 -54 -33 -278 -51 -344 -11 -41 -24 -91 -29 -110
-10 -38 2 -154 21 -208 6 -18 20 -37 32 -44 17 -9 24 -7 38 10 32 40 63 275
74 572 9 202 1 185 92 200 43 6 90 14 106 17 l27 6 0 -174 c0 -190 -14 -378
-34 -477 -12 -54 -12 -73 1 -130 18 -79 46 -137 72 -151 25 -14 37 1 52 64 14
61 14 430 0 634 -6 80 -9 146 -8 147 2 2 50 -54 107 -124 123 -149 278 -309
335 -346 34 -21 55 -26 115 -28 138 -5 385 2 399 11 24 15 -5 39 -68 57 -357
99 -594 224 -784 417 -54 55 -95 103 -90 107 11 11 181 46 263 55 75 9 110 20
110 36 0 6 -21 30 -46 53 l-45 42 6 61 c4 33 10 66 14 72 5 8 77 13 217 18
115 3 219 10 232 14 55 21 -3 89 -95 110 -44 10 -67 8 -183 -15 -73 -15 -135
-24 -138 -21 -9 9 21 57 72 112 46 51 48 54 30 68 -30 22 -84 47 -146 66 -56
17 -57 17 -109 -7 -57 -27 -177 -60 -185 -51 -3 3 0 24 6 47 13 47 2 92 -31
134 -23 30 -29 28 121 51 58 9 146 25 195 35 50 11 111 22 137 25 26 3 55 13
63 22 14 14 14 17 0 33 -22 25 -95 43 -147 37 -24 -2 -115 -23 -203 -45 -87
-23 -161 -39 -163 -37 -7 7 94 119 164 184 35 32 64 63 64 68 0 12 -45 54 -94
86 l-39 26 34 5 c19 3 92 15 164 26 175 28 212 54 133 93 -73 36 -145 31 -358
-23z m-46 -182 c-1 -63 -31 -158 -77 -243 l-32 -60 -254 -51 c-301 -59 -332
-79 -144 -91 l83 -6 5 -31 c13 -80 25 -163 25 -178 0 -20 -74 -38 -159 -38
-32 0 -65 -6 -76 -14 -18 -13 -17 -14 10 -32 31 -20 128 -26 193 -12 l32 8 0
-90 0 -89 -39 -11 c-97 -26 -331 -51 -331 -35 0 3 13 99 30 213 37 262 53 466
49 621 l-4 121 52 0 c50 0 203 19 488 59 72 10 135 18 140 16 6 -1 10 -27 9
-57z m-117 -463 c6 -33 13 -82 15 -109 l3 -50 -96 -16 -97 -16 2 62 c1 55 -3
67 -32 109 -18 26 -32 49 -30 50 5 5 191 33 208 31 10 -1 19 -21 27 -61z m342
-174 c10 -7 12 -25 6 -81 -6 -60 -11 -73 -29 -80 -24 -11 -179 -50 -195 -50
-17 0 -15 190 2 190 6 1 50 7 97 14 107 18 102 17 119 7z m-321 -143 l-3 -93
-75 -17 c-41 -9 -85 -20 -97 -23 -23 -5 -23 -4 -23 89 l0 95 38 10 c178 45
163 50 160 -61z m292 -199 c-7 -38 -18 -76 -26 -84 -18 -18 -107 -45 -146 -45
l-29 0 3 93 3 92 100 21 c116 24 112 27 95 -77z m-290 -63 l0 -93 -77 -12
c-43 -7 -90 -14 -105 -17 l-28 -6 0 96 0 95 33 6 c17 3 55 9 82 14 101 18 95
24 95 -83z"/>
<path d="M1610 2395 c0 -29 58 -111 117 -165 30 -27 58 -50 63 -50 36 0 54
116 24 158 -22 32 -89 63 -150 69 -47 5 -54 4 -54 -12z"/>
<path d="M530 2114 c74 -122 159 -207 244 -245 45 -19 49 -20 66 -4 45 41 28
121 -41 199 -46 53 -106 77 -208 84 l-85 5 24 -39z"/>
<path d="M1017 1698 c-19 -24 -56 -81 -82 -128 -84 -147 -233 -367 -295 -434
-35 -37 -77 -71 -100 -80 -45 -18 -46 -23 -25 -114 15 -61 66 -175 84 -186 16
-10 49 46 148 252 52 108 146 303 209 432 63 129 117 250 120 268 9 47 -16 42
-59 -10z"/>
</g>
</svg>
