<?xml version="1.0" standalone="no"?>
<!DOCTYPE svg PUBLIC "-//W3C//DTD SVG 20010904//EN"
 "http://www.w3.org/TR/2001/REC-SVG-20010904/DTD/svg10.dtd">
<svg version="1.0" xmlns="http://www.w3.org/2000/svg"
 width="340.000000pt" height="340.000000pt" viewBox="0 0 340.000000 340.000000"
 preserveAspectRatio="xMidYMid meet">
<metadata>
Created by potrace 1.15, written by Peter Selinger 2001-2017
</metadata>
<g transform="translate(0.000000,340.000000) scale(0.100000,-0.100000)"
fill="#000000" stroke="none">
<path d="M1333 2773 c-18 -7 -16 -30 8 -93 23 -59 38 -245 25 -313 -6 -31 -11
-36 -50 -46 -24 -6 -74 -15 -111 -20 -39 -6 -75 -17 -87 -28 -34 -31 0 -43
125 -43 l108 0 -7 -47 c-4 -27 -14 -84 -23 -128 l-16 -80 -120 -23 c-102 -19
-130 -21 -187 -12 -65 10 -98 6 -98 -11 0 -4 14 -29 32 -55 50 -74 106 -214
143 -356 18 -72 40 -138 49 -146 14 -15 18 -14 43 6 16 12 40 29 55 37 l26 15
7 -73 c4 -39 5 -92 3 -116 l-3 -45 -130 -33 c-71 -18 -167 -40 -212 -49 -130
-26 -144 -52 -57 -101 53 -30 97 -29 171 6 65 31 197 81 214 81 22 0 2 -253
-33 -405 -33 -144 -33 -159 -4 -218 26 -54 64 -86 86 -72 7 4 21 28 33 54 17
38 21 78 28 241 4 107 8 249 8 316 l1 120 98 23 c143 35 218 59 232 76 17 21
-11 51 -60 66 -32 10 -44 8 -86 -11 -54 -24 -114 -47 -157 -60 l-29 -9 7 47
c5 41 2 56 -25 106 -17 32 -29 60 -28 61 2 1 45 11 96 22 l93 20 20 -28 c45
-63 65 -37 129 163 48 151 90 253 139 337 15 26 18 39 10 53 -15 28 -63 54
-134 73 -61 17 -62 17 -111 -8 -52 -26 -153 -61 -158 -56 -7 8 46 214 58 226
6 6 34 16 61 21 216 42 259 57 278 99 10 22 8 28 -12 44 -14 12 -39 19 -65 19
-35 0 -165 -26 -230 -46 -17 -6 -18 -2 -11 32 4 22 20 81 37 133 33 105 32
113 -23 175 -49 57 -108 79 -156 59z m253 -817 c6 -17 -8 -130 -37 -282 l-21
-112 -164 -41 c-90 -23 -170 -41 -178 -41 -10 0 -18 19 -26 58 -6 31 -13 64
-16 73 -4 13 18 22 120 48 131 32 236 73 236 90 0 6 -11 18 -25 27 -45 29
-188 2 -307 -57 l-36 -19 -11 50 c-6 27 -14 67 -17 89 -7 45 -13 42 119 66 49
9 134 27 190 40 120 28 165 31 173 11z"/>
<path d="M2090 2651 c0 -126 -17 -223 -62 -349 -34 -97 -120 -279 -198 -419
-28 -51 -47 -93 -41 -93 22 0 188 177 239 255 29 44 75 126 103 182 l51 102
71 -87 c123 -152 260 -304 307 -340 l45 -34 220 6 c220 6 265 11 265 27 0 15
-74 47 -156 68 -242 62 -449 177 -626 349 l-97 94 26 71 c14 40 39 91 54 114
l29 42 -31 36 c-39 44 -94 73 -154 82 l-45 6 0 -112z"/>
<path d="M670 2470 c0 -26 67 -136 115 -188 50 -55 127 -112 152 -112 21 0 53
62 53 103 0 82 -57 142 -170 180 -67 22 -150 32 -150 17z"/>
<path d="M542 1888 c12 -57 43 -124 74 -166 26 -33 99 -92 116 -92 19 0 48 42
48 70 0 45 -29 122 -58 154 -34 36 -117 76 -158 76 l-32 0 10 -42z"/>
<path d="M2371 1805 c-30 -19 -77 -42 -105 -50 -135 -43 -139 -54 -31 -90 11
-3 55 6 102 22 102 34 108 30 125 -82 17 -115 18 -849 0 -889 -14 -31 -4 -31
-167 -10 l-50 7 42 -44 c23 -24 70 -87 105 -139 35 -52 71 -96 81 -98 53 -10
108 83 133 228 18 104 15 313 -7 485 -7 54 -9 162 -6 270 4 158 8 189 30 255
18 53 22 79 15 87 -19 23 -151 83 -182 83 -18 0 -54 -15 -85 -35z"/>
<path d="M1926 1750 c-21 -17 -64 -37 -95 -46 -31 -9 -67 -21 -80 -26 -23 -8
-23 -10 -7 -26 13 -13 36 -17 104 -18 84 -1 87 -2 100 -28 32 -64 33 -620 1
-774 -13 -67 -32 -76 -141 -66 -43 4 -78 3 -78 -1 0 -4 25 -33 55 -64 30 -31
74 -85 98 -121 27 -42 50 -66 64 -68 33 -5 77 63 103 160 22 79 23 102 24 498
1 383 2 419 21 473 22 67 17 83 -36 109 -63 30 -90 30 -133 -2z"/>
<path d="M888 1543 c-9 -10 -48 -72 -88 -138 -126 -207 -219 -325 -285 -363
-18 -9 -17 -13 5 -78 42 -127 97 -214 134 -214 10 0 18 19 26 58 32 164 120
441 206 650 19 45 34 87 34 92 0 15 -15 12 -32 -7z"/>
<path d="M2182 1501 c-22 -6 -22 -6 13 -59 39 -57 103 -106 132 -100 10 2 24
15 31 30 21 44 -5 92 -59 111 -59 21 -90 26 -117 18z"/>
<path d="M1676 1407 c-16 -12 -14 -16 26 -49 47 -39 115 -78 136 -78 7 0 18
12 24 26 16 35 -13 89 -55 103 -41 15 -110 14 -131 -2z"/>
<path d="M2349 1185 c-79 -74 -189 -156 -224 -169 -17 -6 27 -77 64 -102 45
-31 55 -30 79 4 27 37 183 344 178 349 -2 2 -45 -35 -97 -82z"/>
<path d="M1835 1139 c-64 -38 -210 -110 -277 -137 -33 -13 -37 -46 -13 -92 14
-26 79 -80 97 -80 3 0 33 37 65 83 32 45 93 124 135 175 43 50 74 92 70 92 -4
0 -39 -19 -77 -41z"/>
</g>
</svg>
