<?xml version="1.0" standalone="no"?>
<!DOCTYPE svg PUBLIC "-//W3C//DTD SVG 20010904//EN"
 "http://www.w3.org/TR/2001/REC-SVG-20010904/DTD/svg10.dtd">
<svg version="1.0" xmlns="http://www.w3.org/2000/svg"
 width="340.000000pt" height="340.000000pt" viewBox="0 0 340.000000 340.000000"
 preserveAspectRatio="xMidYMid meet">
<metadata>
Created by potrace 1.15, written by Peter Selinger 2001-2017
</metadata>
<g transform="translate(0.000000,340.000000) scale(0.100000,-0.100000)"
fill="#000000" stroke="none">
<path d="M2140 2971 c0 -11 7 -48 16 -83 12 -46 15 -86 11 -148 -10 -137 9
-122 -213 -165 -107 -20 -198 -35 -201 -32 -3 3 0 48 6 99 l11 92 -33 34 c-52
54 -134 88 -184 76 -26 -7 -24 -15 28 -104 40 -70 84 -199 72 -210 -5 -4 -107
-19 -228 -34 -120 -15 -223 -30 -228 -33 -26 -16 98 -83 154 -83 16 0 93 16
171 35 77 20 142 34 144 32 2 -2 7 -31 10 -66 5 -44 14 -71 33 -95 30 -40 58
-59 71 -51 13 8 12 75 -4 163 -9 52 -9 75 -2 78 16 5 360 53 363 50 1 -1 -16
-57 -37 -125 -22 -67 -40 -127 -40 -132 0 -16 36 -10 53 9 17 19 127 244 127
260 0 10 57 17 300 33 102 7 168 15 172 22 26 40 -5 68 -104 94 -66 17 -66 17
-181 -10 -143 -34 -150 -34 -142 -4 7 23 52 135 79 199 l16 37 -33 25 c-44 34
-109 56 -163 56 -37 0 -44 -3 -44 -19z"/>
<path d="M748 2679 c-16 -6 -28 -14 -28 -19 0 -12 85 -125 133 -177 51 -56
119 -103 147 -103 11 0 33 12 47 26 21 21 25 32 20 65 -3 22 -17 64 -31 93
-25 51 -29 54 -104 84 -91 35 -147 45 -184 31z"/>
<path d="M2434 2309 c-84 -48 -229 -81 -366 -83 -144 -1 -154 -8 -111 -68 17
-24 49 -81 72 -128 63 -126 96 -157 134 -122 23 21 56 29 237 63 63 11 122 25
132 30 20 11 24 39 7 56 -13 13 27 77 91 143 22 23 40 46 40 50 0 13 -61 57
-103 75 -51 21 -74 18 -133 -16z m-7 -143 c-4 -24 -13 -62 -22 -83 l-16 -39
-107 -21 c-59 -12 -110 -18 -113 -15 -10 11 -43 142 -37 148 10 9 220 52 262
53 l39 1 -6 -44z"/>
<path d="M1619 2192 c-61 -47 -252 -91 -316 -73 -54 15 -103 14 -109 -3 -3 -8
6 -33 20 -55 35 -56 72 -139 92 -211 20 -70 34 -86 63 -70 11 6 25 19 30 29 7
12 31 22 72 30 33 7 62 11 64 9 7 -6 -35 -110 -66 -164 -72 -127 -274 -340
-463 -489 -109 -86 -94 -98 38 -31 108 55 235 147 353 259 l86 82 -6 -195 c-7
-211 -29 -460 -52 -607 -8 -51 -15 -116 -15 -143 0 -77 28 -187 56 -218 l24
-27 25 28 c41 46 65 181 65 366 0 85 2 93 18 86 73 -29 114 -28 467 10 233 25
425 39 574 44 199 5 225 8 235 24 16 25 -11 68 -56 90 -87 43 -199 41 -418 -7
-63 -13 -141 -28 -172 -31 l-58 -7 0 94 0 95 118 22 c210 40 271 70 211 102
-40 21 -134 13 -306 -26 -22 -5 -23 -3 -23 79 l0 84 88 21 c195 45 271 84 228
117 -29 21 -89 17 -191 -11 -133 -37 -126 -40 -123 57 l3 83 45 9 c169 32 357
80 373 95 17 17 17 18 -2 42 -30 37 -137 31 -277 -15 -130 -44 -135 -44 -128
-7 10 47 -8 66 -88 89 -82 25 -138 28 -157 10 -10 -11 3 -27 65 -83 l77 -71
-164 -37 c-90 -21 -188 -40 -216 -44 -115 -13 -108 -55 10 -61 61 -3 258 23
330 44 15 5 17 -4 17 -84 l0 -89 -117 -17 c-189 -28 -271 -52 -249 -73 10 -10
290 -10 334 -1 l32 8 0 -84 c0 -70 -3 -85 -17 -90 -10 -4 -76 -13 -148 -21
-209 -22 -237 -33 -168 -61 31 -14 59 -15 153 -10 63 4 130 9 148 12 l32 6 0
-106 c0 -58 -3 -106 -7 -106 -5 0 -35 -4 -68 -10 -33 -5 -131 -16 -217 -25
-86 -8 -164 -18 -172 -21 -12 -5 -15 40 -19 323 -3 212 -9 345 -17 377 -12 48
-11 51 11 69 66 53 119 108 119 124 0 9 -25 40 -55 69 -38 34 -51 53 -42 57 7
3 49 10 93 17 43 7 89 19 102 27 22 13 22 15 6 42 -15 25 -15 30 -1 57 8 16
29 46 46 68 17 21 31 44 31 51 0 17 -87 62 -155 80 -73 19 -67 19 -96 -3z m48
-136 c-3 -19 -14 -54 -25 -78 l-19 -43 -99 -24 c-54 -13 -104 -26 -110 -28
-10 -3 -50 145 -41 153 13 13 193 53 241 53 l59 1 -6 -34z"/>
<path d="M547 2095 c-16 -15 -14 -20 30 -78 77 -98 168 -187 192 -187 33 0 79
27 86 50 7 23 -9 81 -36 126 -39 64 -233 128 -272 89z"/>
<path d="M1012 1763 c-11 -16 -38 -65 -60 -110 -110 -219 -239 -411 -339 -502
l-74 -68 15 -73 c9 -40 29 -101 44 -134 34 -72 102 -166 119 -166 22 0 43 45
64 141 43 199 83 342 160 569 83 248 113 357 99 365 -5 3 -17 -7 -28 -22z"/>
</g>
</svg>
