<?xml version="1.0" standalone="no"?>
<!DOCTYPE svg PUBLIC "-//W3C//DTD SVG 20010904//EN"
 "http://www.w3.org/TR/2001/REC-SVG-20010904/DTD/svg10.dtd">
<svg version="1.0" xmlns="http://www.w3.org/2000/svg"
 width="340.000000pt" height="340.000000pt" viewBox="0 0 340.000000 340.000000"
 preserveAspectRatio="xMidYMid meet">
<metadata>
Created by potrace 1.15, written by Peter Selinger 2001-2017
</metadata>
<g transform="translate(0.000000,340.000000) scale(0.100000,-0.100000)"
fill="#000000" stroke="none">
<path d="M1031 2702 c-12 -8 -10 -21 12 -75 54 -134 62 -205 62 -527 -1 -405
-26 -630 -93 -825 -59 -169 -194 -351 -417 -561 -69 -65 -125 -121 -125 -126
0 -13 136 58 229 119 102 68 238 202 310 308 30 43 78 126 106 183 l52 104 75
-118 c41 -66 91 -146 110 -179 44 -72 81 -110 102 -102 28 11 56 70 56 117 -1
122 -122 246 -280 287 -54 13 -69 21 -65 33 9 30 44 267 55 370 6 58 13 128
16 156 l5 52 112 62 c62 34 154 84 205 111 79 43 92 53 92 76 0 35 -63 95
-122 118 -57 21 -78 15 -78 -23 0 -51 -48 -127 -126 -202 -42 -39 -78 -70 -80
-68 -2 3 0 54 6 114 5 60 14 163 20 229 5 66 17 146 26 178 l17 58 -39 40
c-21 22 -58 52 -81 65 -45 27 -138 42 -162 26z"/>
<path d="M2630 2183 c-78 -7 -174 -26 -350 -68 -213 -50 -339 -75 -567 -109
-90 -14 -167 -27 -173 -31 -33 -20 22 -66 100 -84 36 -8 65 -6 140 9 52 11
144 26 204 35 123 17 114 21 146 -62 81 -216 87 -966 8 -1093 -18 -28 -47 -26
-180 16 -158 50 -169 43 -75 -48 41 -42 110 -127 158 -198 55 -81 92 -126 105
-128 59 -9 148 111 181 244 21 85 22 369 3 701 -14 237 -10 368 11 446 17 61
10 71 -70 116 -43 23 -59 36 -50 41 30 17 325 42 512 45 125 1 202 6 209 13
17 17 -9 67 -50 96 -66 45 -168 68 -262 59z"/>
<path d="M590 1929 c0 -32 46 -183 74 -244 37 -80 75 -129 118 -151 28 -15 30
-14 63 19 30 30 35 41 35 83 0 79 -18 123 -72 181 -67 70 -218 148 -218 112z"/>
</g>
</svg>
