<?xml version="1.0" standalone="no"?>
<!DOCTYPE svg PUBLIC "-//W3C//DTD SVG 20010904//EN"
 "http://www.w3.org/TR/2001/REC-SVG-20010904/DTD/svg10.dtd">
<svg version="1.0" xmlns="http://www.w3.org/2000/svg"
 width="340.000000pt" height="340.000000pt" viewBox="0 0 340.000000 340.000000"
 preserveAspectRatio="xMidYMid meet">
<metadata>
Created by potrace 1.15, written by Peter Selinger 2001-2017
</metadata>
<g transform="translate(0.000000,340.000000) scale(0.100000,-0.100000)"
fill="#000000" stroke="none">
<path d="M1950 2630 c0 -32 63 -111 134 -169 137 -110 177 -124 216 -73 27 33
23 99 -7 141 -25 33 -212 110 -289 118 -51 6 -54 5 -54 -17z"/>
<path d="M958 2572 c-21 -2 -38 -7 -38 -11 0 -5 14 -26 31 -47 43 -54 76 -123
95 -196 22 -84 31 -522 15 -714 -33 -396 -152 -688 -409 -1004 -64 -79 -92
-120 -92 -134 0 -19 46 0 99 40 169 127 346 393 437 659 15 44 30 84 34 88 4
4 59 -48 123 -116 64 -69 131 -130 148 -137 27 -12 33 -11 51 7 15 15 20 34
20 75 1 61 -18 106 -57 136 -31 25 -161 69 -228 78 -37 5 -47 10 -42 22 16 42
38 214 44 342 l6 144 120 75 c66 41 147 88 179 106 82 43 93 62 64 106 -25 37
-112 86 -163 91 -30 3 -30 3 -36 -59 -7 -71 -41 -132 -114 -203 l-47 -45 6 90
c4 50 11 169 17 265 5 96 12 193 15 215 5 39 5 40 -48 71 -78 47 -148 64 -230
56z"/>
<path d="M2388 2215 c-69 -36 -197 -70 -333 -90 l-120 -17 -105 25 c-58 14
-109 21 -114 16 -10 -9 -6 -26 34 -169 20 -68 21 -91 16 -250 -3 -96 -10 -213
-16 -260 -50 -391 -177 -681 -394 -894 l-81 -79 50 7 c82 13 135 44 226 135
105 105 189 231 222 331 34 102 71 275 98 455 13 83 25 153 28 157 3 4 94 18
201 33 312 41 512 74 527 86 23 20 14 51 -26 89 l-39 37 18 51 c25 70 70 132
129 177 62 47 68 61 39 93 -31 34 -94 60 -184 77 -100 20 -121 18 -176 -10z
m72 -178 c0 -65 -28 -181 -58 -244 -15 -32 -24 -39 -82 -55 -67 -18 -262 -52
-364 -62 l-59 -6 7 157 c4 87 10 168 12 179 5 20 23 24 207 53 111 18 209 34
217 35 8 2 39 4 68 5 l52 1 0 -63z"/>
<path d="M677 1843 c-4 -3 -7 -17 -7 -29 0 -25 85 -326 100 -355 27 -50 99
-24 126 46 32 86 1 156 -130 293 -47 48 -73 62 -89 45z"/>
</g>
</svg>
