<?xml version="1.0" standalone="no"?>
<!DOCTYPE svg PUBLIC "-//W3C//DTD SVG 20010904//EN"
 "http://www.w3.org/TR/2001/REC-SVG-20010904/DTD/svg10.dtd">
<svg version="1.0" xmlns="http://www.w3.org/2000/svg"
 width="340.000000pt" height="340.000000pt" viewBox="0 0 340.000000 340.000000"
 preserveAspectRatio="xMidYMid meet">
<metadata>
Created by potrace 1.15, written by Peter Selinger 2001-2017
</metadata>
<g transform="translate(0.000000,340.000000) scale(0.100000,-0.100000)"
fill="#000000" stroke="none">
<path d="M1847 2616 c-3 -8 0 -34 8 -57 25 -69 19 -164 -14 -255 -79 -216
-183 -437 -266 -565 -65 -101 -79 -129 -62 -129 34 0 165 118 229 206 l29 41
72 1 c40 0 113 10 162 22 141 33 323 63 341 56 21 -8 16 -36 -29 -153 -19 -48
-38 -98 -41 -110 -12 -37 15 -28 64 23 56 57 163 129 258 174 39 18 72 40 72
47 0 31 -85 105 -165 144 -45 21 -90 39 -99 39 -10 0 -69 -22 -131 -49 -138
-61 -246 -95 -345 -111 -127 -20 -128 -20 -63 85 31 49 81 137 111 195 31 58
73 131 95 163 21 32 46 79 54 103 14 42 14 46 -2 65 -35 38 -123 72 -199 77
-61 4 -74 2 -79 -12z"/>
<path d="M910 2498 c0 -7 18 -49 40 -93 55 -109 70 -194 77 -420 14 -463 -40
-803 -167 -1055 -74 -145 -206 -308 -325 -400 -65 -50 -70 -65 -17 -55 74 13
215 107 311 205 106 108 213 293 251 432 21 78 52 283 70 463 9 81 16 113 28
123 9 7 73 45 142 84 198 113 209 124 176 186 -29 55 -128 124 -148 104 -5 -5
-16 -37 -24 -72 -8 -34 -24 -76 -36 -94 -32 -45 -109 -136 -117 -136 -3 0 -5
89 -3 197 2 178 7 235 32 381 l7 43 -62 45 c-35 24 -82 51 -105 59 -53 19
-130 20 -130 3z"/>
<path d="M580 1841 c-16 -31 -12 -49 26 -141 68 -160 97 -219 116 -236 17 -17
20 -16 46 3 47 35 72 81 72 134 0 44 -5 54 -62 125 -96 119 -172 163 -198 115z"/>
<path d="M1815 1713 c38 -88 45 -215 20 -359 -63 -363 -241 -613 -542 -764
-44 -22 -87 -48 -94 -57 -13 -15 -10 -16 28 -10 177 29 418 176 540 330 60 75
127 194 158 282 10 28 21 53 25 58 4 4 35 -46 70 -110 108 -201 281 -481 316
-512 42 -38 87 -51 195 -58 82 -5 434 12 472 23 28 9 14 27 -34 46 -24 10
-105 41 -179 69 -223 86 -365 159 -452 234 -84 73 -220 227 -311 353 l-58 80
15 69 c8 38 29 107 47 152 l33 83 -35 30 c-52 44 -128 78 -178 78 -37 0 -42
-2 -36 -17z"/>
<path d="M1132 1128 c-7 -7 -12 -21 -12 -32 0 -26 119 -219 163 -263 38 -41
87 -45 111 -11 22 31 20 101 -4 148 -39 76 -226 190 -258 158z"/>
</g>
</svg>
