<?xml version="1.0" standalone="no"?>
<!DOCTYPE svg PUBLIC "-//W3C//DTD SVG 20010904//EN"
 "http://www.w3.org/TR/2001/REC-SVG-20010904/DTD/svg10.dtd">
<svg version="1.0" xmlns="http://www.w3.org/2000/svg"
 width="340.000000pt" height="340.000000pt" viewBox="0 0 340.000000 340.000000"
 preserveAspectRatio="xMidYMid meet">
<metadata>
Created by potrace 1.15, written by Peter Selinger 2001-2017
</metadata>
<g transform="translate(0.000000,340.000000) scale(0.100000,-0.100000)"
fill="#000000" stroke="none">
<path d="M1848 2695 c-3 -3 3 -33 13 -66 23 -73 23 -89 5 -160 -39 -148 -168
-404 -313 -622 -47 -70 -83 -130 -80 -133 17 -17 131 78 227 191 l72 83 121 5
c96 4 151 12 262 41 174 45 211 46 226 9 18 -45 5 -358 -20 -490 -22 -118 -53
-214 -75 -232 -9 -7 -33 -5 -85 10 -40 11 -75 18 -78 15 -3 -3 8 -27 25 -53
17 -26 51 -92 76 -145 25 -55 51 -98 59 -98 21 0 89 52 118 91 64 84 103 194
114 319 11 140 46 415 56 447 6 17 30 62 55 99 24 38 44 73 44 79 0 19 -63 73
-110 94 -25 10 -71 24 -102 31 -52 10 -62 9 -130 -15 -216 -79 -451 -141 -498
-133 -14 2 3 38 86 183 57 99 124 204 150 233 44 50 45 54 34 83 -20 46 -87
97 -158 119 -67 21 -85 24 -94 15z"/>
<path d="M941 2661 c-11 -7 -8 -19 18 -64 60 -105 73 -184 72 -427 -3 -639
-67 -1011 -218 -1260 -64 -105 -91 -139 -222 -272 -63 -65 -112 -120 -109
-124 10 -10 94 32 174 87 179 124 303 283 380 488 l32 83 17 -53 c39 -119 137
-269 177 -269 8 0 24 9 36 20 42 39 20 155 -41 218 -18 19 -65 52 -106 74
l-73 41 6 51 c6 52 56 554 56 567 0 3 43 37 95 74 52 37 126 93 164 125 38 32
83 66 100 76 39 23 39 33 -1 71 -44 41 -109 73 -150 73 -33 0 -33 0 -30 -41 3
-32 -4 -56 -32 -112 -33 -67 -121 -185 -138 -186 -12 -1 -10 55 12 285 18 201
24 233 65 331 23 54 17 61 -87 113 -63 31 -92 40 -132 40 -28 0 -57 -4 -65 -9z"/>
<path d="M562 1858 c-23 -23 -11 -61 63 -207 105 -206 140 -237 177 -161 22
43 23 128 4 175 -24 58 -183 205 -221 205 -6 0 -16 -5 -23 -12z"/>
<path d="M1894 1706 c-40 -41 -112 -76 -190 -89 -50 -9 -72 -7 -121 6 -109 31
-128 19 -98 -60 32 -84 34 -115 25 -418 -10 -329 -6 -374 43 -457 58 -100 182
-173 353 -210 130 -28 460 -31 629 -5 202 31 301 67 377 135 l40 36 -6 76 c-3
41 -12 104 -20 140 -9 36 -18 112 -21 170 -11 193 -21 194 -65 4 -42 -176 -85
-265 -148 -305 -119 -75 -262 -103 -532 -103 -214 0 -295 12 -398 59 -69 32
-109 67 -133 120 -16 34 -19 66 -19 203 0 121 3 164 13 167 6 3 86 21 176 40
210 44 243 65 189 122 l-21 22 31 64 c20 40 56 87 98 129 l67 67 -34 34 c-33
32 -110 68 -174 80 -25 5 -35 0 -61 -27z m-6 -198 c-5 -92 -34 -195 -58 -208
-25 -13 -210 -63 -215 -58 -5 5 13 263 20 284 5 17 161 62 219 63 l39 1 -5
-82z"/>
</g>
</svg>
