<?xml version="1.0" standalone="no"?>
<!DOCTYPE svg PUBLIC "-//W3C//DTD SVG 20010904//EN"
 "http://www.w3.org/TR/2001/REC-SVG-20010904/DTD/svg10.dtd">
<svg version="1.0" xmlns="http://www.w3.org/2000/svg"
 width="340.000000pt" height="340.000000pt" viewBox="0 0 340.000000 340.000000"
 preserveAspectRatio="xMidYMid meet">
<metadata>
Created by potrace 1.15, written by Peter Selinger 2001-2017
</metadata>
<g transform="translate(0.000000,340.000000) scale(0.100000,-0.100000)"
fill="#000000" stroke="none">
<path d="M1458 2720 c-25 -15 -22 -45 5 -83 30 -40 53 -99 73 -186 12 -50 17
-148 21 -413 5 -343 5 -348 -15 -348 -11 0 -84 -7 -163 -15 -133 -15 -150 -15
-230 1 -135 27 -142 16 -79 -117 35 -75 83 -213 136 -394 23 -74 61 -121 93
-110 14 4 24 17 28 36 3 16 9 32 14 35 11 7 822 114 864 114 2 0 6 7 9 16 8
20 -16 74 -43 98 -27 24 -26 36 4 99 22 48 72 104 169 189 l38 34 -25 30 c-31
36 -114 82 -215 118 l-74 26 -64 -30 c-63 -29 -246 -90 -271 -90 -10 0 -13 47
-13 220 l0 220 88 0 c197 1 480 71 530 133 37 44 -16 98 -102 105 -72 6 -126
-8 -263 -69 -141 -62 -244 -101 -251 -95 -7 8 18 193 34 245 22 73 18 113 -13
144 -65 61 -240 115 -285 87z m542 -1060 c22 -14 18 -98 -9 -196 -37 -133 -41
-138 -168 -168 -112 -26 -347 -62 -442 -68 l-55 -3 -21 168 c-11 93 -18 170
-15 172 13 8 451 82 585 98 60 8 110 6 125 -3z"/>
<path d="M710 964 c-6 -14 -10 -28 -10 -31 0 -14 -82 -195 -115 -253 -35 -62
-37 -69 -33 -137 5 -81 24 -119 65 -129 88 -22 183 180 183 390 0 64 -5 109
-15 133 -25 59 -59 71 -75 27z"/>
<path d="M2270 982 c0 -16 170 -220 227 -272 76 -70 201 -163 243 -180 32 -13
34 -13 61 18 34 38 37 80 12 144 -23 61 -87 153 -126 182 -52 40 -156 84 -239
100 -83 17 -178 21 -178 8z"/>
<path d="M1730 934 c0 -3 19 -42 42 -87 50 -96 142 -199 209 -232 l46 -24 21
22 c30 33 35 64 21 115 -23 82 -130 162 -266 197 -63 17 -73 18 -73 9z"/>
<path d="M1160 855 c0 -13 56 -114 90 -165 41 -60 106 -124 145 -142 29 -13
48 -1 72 46 17 33 13 102 -8 149 -16 35 -88 83 -153 102 -48 14 -146 21 -146
10z"/>
</g>
</svg>
