<?xml version="1.0" standalone="no"?>
<!DOCTYPE svg PUBLIC "-//W3C//DTD SVG 20010904//EN"
 "http://www.w3.org/TR/2001/REC-SVG-20010904/DTD/svg10.dtd">
<svg version="1.0" xmlns="http://www.w3.org/2000/svg"
 width="340.000000pt" height="340.000000pt" viewBox="0 0 340.000000 340.000000"
 preserveAspectRatio="xMidYMid meet">
<metadata>
Created by potrace 1.15, written by Peter Selinger 2001-2017
</metadata>
<g transform="translate(0.000000,340.000000) scale(0.100000,-0.100000)"
fill="#000000" stroke="none">
<path d="M1907 2728 c-2 -7 0 -31 6 -53 16 -70 10 -214 -13 -311 l-21 -91
-112 -23 c-118 -23 -171 -44 -164 -63 6 -18 44 -25 145 -26 50 -1 92 -4 92 -9
0 -4 -22 -73 -48 -152 l-49 -144 -39 -9 c-21 -5 -72 -14 -113 -21 -41 -6 -76
-17 -79 -24 -6 -19 47 -34 126 -34 39 0 72 -2 72 -3 0 -2 -24 -55 -54 -118
-53 -114 -117 -200 -157 -212 -15 -5 -19 -16 -19 -49 0 -38 16 -106 25 -106 2
0 45 20 97 44 62 30 132 54 212 71 141 31 283 51 292 42 11 -11 -13 -638 -26
-674 -15 -40 -38 -46 -159 -37 l-96 7 81 -85 c61 -65 89 -104 115 -162 19 -42
37 -76 41 -76 19 0 92 78 113 119 42 85 46 133 44 541 l-2 385 149 6 c82 4
210 7 284 8 161 2 180 5 180 36 0 31 -47 69 -112 91 -85 29 -180 24 -351 -20
-82 -21 -151 -36 -153 -33 -8 7 16 160 35 227 32 110 32 116 13 133 -50 45
-188 65 -248 35 -36 -19 -164 -61 -169 -57 -2 2 24 67 57 145 l60 140 116 23
c382 73 544 116 556 147 9 23 -36 62 -80 70 -56 11 -172 -9 -365 -62 -94 -25
-173 -43 -176 -40 -4 3 29 76 72 163 l79 156 -48 43 c-64 59 -196 97 -209 62z
m181 -913 c10 -22 18 -294 10 -295 -56 -12 -414 -67 -416 -64 -2 1 25 78 61
171 l64 168 94 22 c52 12 112 22 135 22 34 1 43 -3 52 -24z"/>
<path d="M930 2695 c0 -4 13 -49 29 -99 42 -132 60 -256 67 -466 12 -340 -23
-679 -92 -889 -64 -195 -183 -402 -343 -596 -39 -47 -71 -91 -71 -96 0 -5 10
-9 22 -9 47 0 226 168 323 305 61 85 147 249 185 353 12 34 25 62 29 62 4 0
16 -19 28 -43 32 -66 139 -202 170 -216 25 -12 29 -10 50 14 16 18 23 39 23
66 0 80 -42 125 -177 191 -84 40 -85 41 -78 72 23 111 37 210 46 341 11 147
12 151 43 184 45 48 189 142 266 171 38 15 66 32 68 42 8 42 -97 116 -189 132
l-36 6 -6 -51 c-7 -58 -40 -119 -89 -166 l-34 -33 4 233 c3 163 9 247 19 282
25 87 23 95 -32 137 -27 21 -70 45 -95 53 -58 19 -130 30 -130 20z"/>
<path d="M584 1916 c-9 -24 24 -123 84 -249 42 -91 62 -122 84 -133 27 -14 30
-13 57 13 37 38 46 99 26 178 -12 48 -23 67 -58 98 -100 91 -179 129 -193 93z"/>
<path d="M1668 1143 c-8 -10 -27 -44 -42 -75 -15 -31 -47 -79 -71 -106 -97
-108 -113 -298 -22 -274 38 10 136 117 164 179 34 74 44 198 20 256 -18 41
-27 45 -49 20z"/>
<path d="M2415 1140 c-9 -15 16 -51 135 -191 155 -182 173 -199 208 -199 70 0
96 103 47 186 -19 32 -44 53 -102 87 -175 101 -273 141 -288 117z"/>
</g>
</svg>
