<?xml version="1.0" standalone="no"?>
<!DOCTYPE svg PUBLIC "-//W3C//DTD SVG 20010904//EN"
 "http://www.w3.org/TR/2001/REC-SVG-20010904/DTD/svg10.dtd">
<svg version="1.0" xmlns="http://www.w3.org/2000/svg"
 width="340.000000pt" height="340.000000pt" viewBox="0 0 340.000000 340.000000"
 preserveAspectRatio="xMidYMid meet">
<metadata>
Created by potrace 1.15, written by Peter Selinger 2001-2017
</metadata>
<g transform="translate(0.000000,340.000000) scale(0.100000,-0.100000)"
fill="#000000" stroke="none">
<path d="M905 2847 c-17 -13 -17 -18 3 -143 12 -71 27 -187 33 -259 15 -168 5
-614 -16 -749 -55 -355 -185 -639 -400 -875 -79 -87 -101 -119 -91 -128 10
-11 50 13 128 76 187 151 328 355 400 580 13 39 25 70 28 70 3 0 55 -84 116
-187 110 -184 136 -215 175 -205 47 13 75 119 49 187 -23 62 -139 160 -260
221 -30 15 -56 28 -57 29 -1 1 9 54 21 117 22 107 43 271 49 379 2 43 5 47 87
113 148 120 280 230 280 234 0 40 -119 137 -161 131 -21 -3 -25 -10 -30 -58
-3 -30 -14 -71 -24 -90 -23 -47 -97 -150 -124 -174 -21 -19 -21 -19 -21 12 0
60 31 337 51 461 20 123 20 124 1 150 -18 24 -150 101 -198 115 -11 3 -28 0
-39 -7z"/>
<path d="M2039 2804 c-10 -12 -10 -19 -1 -32 7 -10 22 -37 35 -62 21 -43 22
-58 22 -280 l0 -235 -135 -66 c-74 -36 -128 -68 -120 -71 26 -8 134 12 188 37
30 14 58 25 62 25 4 0 10 -35 12 -78 8 -110 26 -160 74 -208 58 -59 134 -85
259 -91 114 -6 215 12 301 51 69 32 82 57 65 129 -7 28 -21 101 -31 161 -28
157 -40 160 -75 17 -19 -74 -44 -128 -71 -152 -31 -27 -155 -52 -231 -47 -148
11 -212 81 -197 216 l6 53 88 44 c95 48 270 162 338 220 51 45 54 72 13 137
-33 52 -66 78 -98 78 -18 0 -24 -8 -33 -42 -15 -60 -90 -166 -165 -236 -75
-71 -134 -117 -140 -110 -8 8 15 169 41 283 14 61 27 121 30 135 7 33 -31 72
-108 111 -64 32 -109 37 -129 13z"/>
<path d="M1706 2732 c-2 -4 -4 -48 -5 -97 0 -144 -40 -256 -149 -418 -51 -74
-181 -224 -271 -312 -50 -48 -67 -83 -35 -71 62 24 248 175 331 268 25 29 50
55 55 56 23 10 2 -230 -32 -361 -23 -90 -15 -147 27 -198 35 -41 57 -37 78 14
14 33 19 94 27 292 5 137 7 259 3 272 -3 12 -14 31 -26 41 -20 19 -20 20 91
188 60 92 110 176 110 186 0 29 -27 63 -85 107 -51 39 -106 54 -119 33z"/>
<path d="M554 2179 c-11 -18 4 -117 40 -263 42 -169 59 -201 107 -201 50 0 74
52 74 160 -1 70 -4 86 -30 130 -28 47 -132 157 -167 176 -11 6 -19 5 -24 -2z"/>
<path d="M1912 1708 c-16 -16 -15 -43 2 -57 23 -19 54 -103 57 -156 l3 -50
-39 -6 c-86 -15 -347 -41 -475 -47 -119 -6 -135 -9 -138 -25 -5 -27 24 -54 83
-76 40 -15 61 -18 86 -11 19 5 111 21 204 35 94 15 192 31 218 37 27 5 52 6
57 2 4 -5 4 -173 1 -374 -7 -376 -1 -584 18 -634 10 -24 14 -26 27 -15 54 45
73 154 89 534 8 176 15 361 15 411 l0 91 77 7 c117 9 425 7 569 -5 226 -18
221 -19 209 28 -11 45 -75 97 -141 116 -128 36 -184 33 -454 -18 -166 -31
-250 -41 -250 -27 0 6 7 42 15 81 8 39 12 77 9 86 -8 20 -62 48 -133 69 -65
19 -93 20 -109 4z"/>
</g>
</svg>
