<?xml version="1.0" standalone="no"?>
<!DOCTYPE svg PUBLIC "-//W3C//DTD SVG 20010904//EN"
 "http://www.w3.org/TR/2001/REC-SVG-20010904/DTD/svg10.dtd">
<svg version="1.0" xmlns="http://www.w3.org/2000/svg"
 width="340.000000pt" height="340.000000pt" viewBox="0 0 340.000000 340.000000"
 preserveAspectRatio="xMidYMid meet">
<metadata>
Created by potrace 1.15, written by Peter Selinger 2001-2017
</metadata>
<g transform="translate(0.000000,340.000000) scale(0.100000,-0.100000)"
fill="#000000" stroke="none">
<path d="M1928 2709 c-22 -12 -23 -48 -3 -96 21 -50 19 -83 -14 -210 -40 -151
-102 -312 -156 -405 -43 -75 -55 -108 -36 -108 4 0 44 37 87 83 l79 82 48 -9
c31 -6 74 -6 120 1 40 5 74 8 77 6 3 -3 5 -55 4 -116 0 -90 -5 -132 -27 -211
-15 -55 -30 -102 -32 -105 -3 -2 -38 27 -78 66 -93 90 -187 153 -226 153 -50
0 -40 -32 27 -84 31 -24 97 -85 146 -135 l89 -90 -58 -71 c-72 -88 -162 -170
-238 -218 -32 -21 -73 -46 -90 -57 -34 -22 -48 -55 -23 -55 37 0 193 66 261
111 41 26 110 83 154 125 l80 76 54 -59 c30 -32 85 -93 123 -136 87 -98 129
-120 244 -125 122 -6 400 42 400 69 0 5 -2 9 -5 9 -18 0 -246 64 -320 91 -147
51 -309 140 -397 218 l-37 32 24 67 c13 37 31 96 40 131 9 36 30 94 46 129 16
36 29 73 29 82 0 19 -37 50 -107 91 l-42 25 170 43 c219 54 279 76 279 102 0
14 -14 26 -47 41 -84 37 -156 23 -486 -93 -92 -32 -170 -59 -172 -59 -3 0 15
37 39 83 25 45 68 136 96 202 29 66 64 141 78 167 l26 47 -21 23 c-30 32 -121
85 -158 92 -16 3 -38 1 -47 -5z"/>
<path d="M1066 2639 c-2 -8 -9 -53 -15 -102 -8 -64 -19 -105 -43 -153 -37 -75
-155 -235 -270 -369 -43 -49 -78 -93 -78 -97 0 -35 135 60 273 192 l115 110
61 0 c34 0 96 7 138 16 41 8 79 12 84 7 13 -13 -29 -95 -136 -266 l-97 -155
-112 -21 c-61 -12 -130 -21 -153 -21 -24 0 -43 -5 -43 -11 0 -5 25 -22 56 -36
70 -32 103 -29 329 26 88 21 179 42 202 46 40 6 44 5 53 -20 23 -60 1 -377
-31 -457 -9 -21 -25 -31 -73 -47 -138 -45 -308 -76 -483 -87 -56 -4 -107 -10
-114 -14 -20 -13 -3 -36 46 -60 59 -29 113 -25 410 25 371 62 399 72 341 119
l-28 21 16 122 c19 144 53 261 97 326 21 32 28 53 24 67 -10 30 -75 74 -141
95 -64 20 -67 19 -202 -30 -40 -14 -80 -25 -89 -23 -37 7 236 298 355 378 28
19 52 38 52 41 1 33 -133 119 -186 119 -11 0 -58 -18 -105 -41 -80 -39 -227
-85 -237 -74 -7 7 74 125 137 200 71 85 79 102 55 120 -63 50 -198 85 -208 54z"/>
<path d="M1015 1528 c-93 -16 -176 -33 -184 -37 -27 -13 -12 -26 50 -42 61
-15 66 -15 246 16 101 18 190 38 196 44 9 10 7 17 -12 32 -32 26 -88 24 -296
-13z"/>
<path d="M735 968 c-9 -29 -34 -82 -56 -118 -112 -190 -144 -317 -100 -387 29
-46 66 -45 112 5 45 47 72 92 95 162 34 101 18 374 -23 387 -6 2 -19 -20 -28
-49z"/>
<path d="M2260 957 c0 -46 272 -347 367 -407 115 -73 175 -7 122 134 -27 74
-91 142 -181 193 -90 52 -226 103 -273 103 -30 0 -35 -3 -35 -23z"/>
<path d="M1756 932 c-8 -24 11 -76 63 -180 89 -177 175 -221 200 -102 6 27 9
55 7 62 -3 7 -7 25 -10 40 -7 31 -84 107 -163 161 -61 41 -89 46 -97 19z"/>
<path d="M1200 900 c-19 -11 -3 -62 55 -178 52 -105 76 -137 117 -158 27 -14
32 -14 53 0 50 33 55 176 7 212 -111 86 -209 138 -232 124z"/>
</g>
</svg>
