<?xml version="1.0" standalone="no"?>
<!DOCTYPE svg PUBLIC "-//W3C//DTD SVG 20010904//EN"
 "http://www.w3.org/TR/2001/REC-SVG-20010904/DTD/svg10.dtd">
<svg version="1.0" xmlns="http://www.w3.org/2000/svg"
 width="340.000000pt" height="340.000000pt" viewBox="0 0 340.000000 340.000000"
 preserveAspectRatio="xMidYMid meet">
<metadata>
Created by potrace 1.15, written by Peter Selinger 2001-2017
</metadata>
<g transform="translate(0.000000,340.000000) scale(0.100000,-0.100000)"
fill="#000000" stroke="none">
<path d="M1836 2661 c7 -98 7 -98 -29 -172 -19 -41 -58 -106 -86 -146 l-51
-72 -122 50 c-205 83 -386 141 -456 147 -52 4 -64 2 -61 -9 3 -8 122 -72 266
-144 144 -71 264 -133 268 -136 8 -8 -144 -121 -270 -200 -55 -35 -167 -97
-249 -139 -82 -41 -152 -82 -154 -89 -9 -26 142 -7 262 33 176 59 326 146 479
279 l59 50 31 -18 c18 -10 66 -42 107 -70 160 -111 303 -181 347 -170 12 3 30
16 39 30 21 33 7 75 -47 138 -48 56 -110 89 -347 188 l-23 9 29 38 c16 20 42
57 57 82 15 25 71 96 123 158 l96 114 -19 35 c-36 66 -124 113 -211 113 l-44
0 6 -99z"/>
<path d="M1783 1754 c-3 -8 0 -40 6 -71 6 -31 11 -69 11 -84 0 -50 -51 -204
-106 -318 l-54 -114 -128 124 c-241 236 -335 299 -442 299 -63 0 -105 -14 -95
-30 3 -6 40 -26 82 -45 127 -59 234 -150 362 -310 35 -44 80 -96 98 -116 l35
-37 -69 -68 c-70 -71 -237 -191 -328 -237 -79 -39 -218 -86 -369 -122 -202
-49 -210 -68 -31 -73 281 -9 551 102 823 337 l83 73 162 -159 c166 -163 312
-290 382 -333 74 -46 278 -40 580 16 154 28 205 42 205 54 0 5 -17 12 -37 15
-78 12 -461 108 -567 142 -135 43 -231 87 -342 154 -89 53 -231 154 -275 196
l-27 25 54 86 c30 47 83 142 118 211 35 69 79 144 96 166 18 22 36 48 41 57
24 44 -67 136 -160 162 -72 20 -100 20 -108 0z"/>
</g>
</svg>
