<?xml version="1.0" standalone="no"?>
<!DOCTYPE svg PUBLIC "-//W3C//DTD SVG 20010904//EN"
 "http://www.w3.org/TR/2001/REC-SVG-20010904/DTD/svg10.dtd">
<svg version="1.0" xmlns="http://www.w3.org/2000/svg"
 width="340.000000pt" height="340.000000pt" viewBox="0 0 340.000000 340.000000"
 preserveAspectRatio="xMidYMid meet">
<metadata>
Created by potrace 1.15, written by Peter Selinger 2001-2017
</metadata>
<g transform="translate(0.000000,340.000000) scale(0.100000,-0.100000)"
fill="#000000" stroke="none">
<path d="M1860 2834 c0 -15 12 -62 28 -103 26 -74 27 -81 27 -296 0 -121 -4
-250 -8 -286 l-8 -65 -112 -27 c-62 -15 -168 -38 -237 -52 -69 -14 -135 -27
-147 -30 -22 -5 -23 -3 -23 67 0 70 11 222 26 355 l7 63 -43 39 c-60 55 -121
83 -196 89 -35 2 -64 2 -64 -1 0 -3 16 -38 35 -79 56 -117 65 -180 72 -484 9
-398 -12 -577 -90 -761 -73 -172 -219 -351 -424 -520 -57 -47 -103 -89 -103
-95 0 -18 69 -1 138 33 274 134 493 380 568 636 l18 60 101 6 c55 3 192 24
304 47 112 22 218 40 235 38 30 -3 31 -5 39 -63 13 -92 1 -495 -18 -610 -28
-174 -19 -249 39 -350 13 -22 33 -48 44 -58 19 -18 20 -17 41 11 45 64 51 121
51 512 0 402 3 430 59 507 16 22 36 55 46 72 16 32 16 34 -6 57 -32 34 -135
83 -190 90 -38 5 -55 1 -108 -25 -82 -42 -211 -84 -336 -109 -117 -24 -274
-46 -281 -39 -3 2 0 42 6 88 5 46 13 143 17 215 l6 131 126 6 c274 14 871 122
943 171 46 31 45 67 -2 83 -68 23 -174 12 -312 -32 -32 -10 -61 -15 -65 -12
-10 10 14 288 33 377 13 62 34 124 71 208 3 7 -16 34 -43 61 -53 52 -122 84
-211 95 -53 7 -53 6 -53 -20z"/>
</g>
</svg>
