<?xml version="1.0" standalone="no"?>
<!DOCTYPE svg PUBLIC "-//W3C//DTD SVG 20010904//EN"
 "http://www.w3.org/TR/2001/REC-SVG-20010904/DTD/svg10.dtd">
<svg version="1.0" xmlns="http://www.w3.org/2000/svg"
 width="340.000000pt" height="340.000000pt" viewBox="0 0 340.000000 340.000000"
 preserveAspectRatio="xMidYMid meet">
<metadata>
Created by potrace 1.15, written by Peter Selinger 2001-2017
</metadata>
<g transform="translate(0.000000,340.000000) scale(0.100000,-0.100000)"
fill="#000000" stroke="none">
<path d="M1980 2710 c-160 -52 -329 -95 -506 -130 -193 -38 -223 -58 -138 -90
55 -21 306 -20 392 2 l63 16 24 -37 c14 -20 34 -71 44 -114 20 -75 48 -333 39
-343 -7 -7 -671 -124 -676 -120 -2 2 6 47 17 100 12 53 22 125 24 160 2 63 1
66 -37 105 -43 45 -91 71 -128 71 -42 0 -47 -17 -21 -67 28 -56 30 -133 8
-248 -17 -91 -50 -151 -105 -195 -22 -17 -40 -40 -40 -50 0 -37 40 -127 69
-154 41 -39 68 -32 111 29 70 100 97 119 216 153 99 29 241 60 353 77 l43 7
-18 -32 c-11 -17 -67 -96 -125 -173 -249 -331 -520 -584 -838 -781 -61 -37
-111 -72 -111 -77 0 -46 280 70 468 194 252 165 478 399 702 727 l92 135 -5
-390 c-4 -279 -10 -422 -21 -502 -18 -123 -45 -210 -76 -238 -25 -23 -128 -30
-230 -17 -41 5 -79 6 -84 2 -4 -5 24 -29 64 -55 95 -63 171 -134 226 -212 29
-40 53 -63 65 -63 31 0 106 77 135 137 60 129 65 212 50 893 -5 223 -6 426 -2
451 7 46 8 47 49 53 23 3 191 8 372 11 182 3 345 8 362 11 18 3 37 13 43 24
15 27 -44 91 -111 119 -84 37 -127 36 -315 -3 -94 -19 -213 -42 -265 -51 -52
-8 -105 -18 -118 -21 l-24 -5 6 138 c3 85 12 159 22 191 15 51 15 55 -2 74
-10 11 -46 38 -80 60 -35 23 -62 42 -61 43 2 2 66 15 143 29 212 40 307 71
319 102 18 47 -57 86 -174 91 -76 2 -98 -2 -210 -37z"/>
</g>
</svg>
