<?xml version="1.0" standalone="no"?>
<!DOCTYPE svg PUBLIC "-//W3C//DTD SVG 20010904//EN"
 "http://www.w3.org/TR/2001/REC-SVG-20010904/DTD/svg10.dtd">
<svg version="1.0" xmlns="http://www.w3.org/2000/svg"
 width="340.000000pt" height="340.000000pt" viewBox="0 0 340.000000 340.000000"
 preserveAspectRatio="xMidYMid meet">
<metadata>
Created by potrace 1.15, written by Peter Selinger 2001-2017
</metadata>
<g transform="translate(0.000000,340.000000) scale(0.100000,-0.100000)"
fill="#000000" stroke="none">
<path d="M1040 2790 c0 -12 8 -37 19 -58 39 -78 52 -168 62 -457 5 -154 7
-294 4 -312 -5 -30 -11 -34 -68 -51 -118 -36 -237 -65 -243 -59 -4 3 30 73 75
155 44 82 81 154 81 159 0 34 -114 94 -180 95 -64 0 -71 -5 -58 -43 32 -91
-20 -293 -137 -538 -85 -176 -86 -208 -4 -134 40 36 119 145 153 210 15 30 18
31 47 21 38 -13 171 -4 249 17 30 8 61 15 68 15 9 0 12 -47 12 -203 l0 -203
-117 -67 c-177 -99 -373 -192 -483 -227 -107 -34 -108 -35 -67 -94 23 -32 102
-72 162 -81 40 -6 42 -5 208 133 93 77 196 162 229 188 l61 48 -7 -135 c-8
-149 -30 -355 -46 -421 -13 -57 -13 -223 1 -270 5 -21 21 -50 34 -65 23 -28
23 -28 44 -9 12 11 28 42 37 70 17 59 33 296 34 506 0 80 3 203 7 273 l6 128
73 60 c66 55 91 85 81 96 -3 2 -39 -14 -81 -36 l-76 -39 0 187 0 188 83 28
c148 51 167 61 167 89 0 30 -29 52 -82 61 -28 5 -50 1 -97 -21 -34 -15 -64
-24 -68 -20 -9 9 14 377 32 506 8 58 22 129 31 159 l15 54 -28 29 c-50 53
-122 88 -180 88 -47 0 -53 -2 -53 -20z"/>
<path d="M2445 2479 c-22 -5 -95 -28 -162 -50 -169 -56 -369 -104 -563 -136
-264 -42 -275 -47 -194 -88 31 -16 64 -20 160 -23 l122 -4 6 -51 c20 -170 26
-269 21 -324 l-6 -62 -68 -15 c-119 -27 -199 -30 -268 -11 -34 10 -70 15 -79
11 -21 -8 -16 -38 26 -171 39 -126 75 -322 98 -536 18 -168 34 -219 67 -219
18 0 28 16 35 60 l5 35 79 12 c117 18 408 51 512 59 110 8 108 10 124 -122 16
-130 36 -194 61 -194 64 0 188 109 239 211 47 91 84 266 114 536 17 146 30
180 96 255 48 55 46 66 -22 121 -77 63 -212 119 -264 110 -16 -3 -58 -14 -94
-25 -93 -27 -242 -60 -248 -53 -10 10 17 152 48 247 16 53 30 104 30 116 0 24
-52 67 -93 77 -43 11 -22 20 91 39 171 29 373 83 395 105 18 17 19 22 6 37
-38 47 -186 75 -274 53z m-301 -251 c14 -66 15 -138 6 -278 -6 -85 -13 -156
-15 -158 -5 -5 -161 -31 -187 -32 -14 0 -18 8 -18 33 0 30 22 201 36 278 6 34
3 40 -42 82 -26 26 -46 48 -43 50 4 5 211 43 241 46 11 0 19 -8 22 -21z m455
-477 c28 -28 34 -106 22 -246 -27 -284 -82 -515 -138 -577 -19 -21 -36 -11
-60 35 -8 16 -33 49 -55 73 -38 42 -43 44 -95 44 -30 0 -134 -13 -231 -29
-222 -37 -403 -63 -407 -59 -6 6 -78 628 -74 632 4 4 229 36 251 36 23 0 -10
-200 -49 -299 -14 -36 -41 -90 -59 -120 -19 -31 -34 -59 -34 -63 0 -33 96 41
144 111 40 58 74 158 96 284 10 60 22 113 27 117 4 4 52 14 106 22 l97 15 0
-101 c0 -114 14 -215 35 -256 11 -22 31 -34 82 -51 122 -41 205 -27 240 41 26
52 -22 80 -134 80 -92 0 -117 13 -133 68 -11 42 -12 128 -2 187 8 44 14 47
159 63 138 16 191 14 212 -7z"/>
</g>
</svg>
