<?xml version="1.0" standalone="no"?>
<!DOCTYPE svg PUBLIC "-//W3C//DTD SVG 20010904//EN"
 "http://www.w3.org/TR/2001/REC-SVG-20010904/DTD/svg10.dtd">
<svg version="1.0" xmlns="http://www.w3.org/2000/svg"
 width="340.000000pt" height="340.000000pt" viewBox="0 0 340.000000 340.000000"
 preserveAspectRatio="xMidYMid meet">
<metadata>
Created by potrace 1.15, written by Peter Selinger 2001-2017
</metadata>
<g transform="translate(0.000000,340.000000) scale(0.100000,-0.100000)"
fill="#000000" stroke="none">
<path d="M2223 2953 c-19 -7 -16 -26 13 -80 32 -63 50 -165 65 -377 13 -190 8
-486 -10 -530 l-11 -29 -80 7 c-95 9 -101 0 -40 -59 23 -22 56 -72 75 -112 41
-86 59 -92 122 -38 84 72 106 185 79 422 -19 165 -21 418 -5 495 6 29 20 70
30 90 14 27 16 43 10 61 -24 63 -197 167 -248 150z"/>
<path d="M1366 2804 c-41 -49 -153 -126 -273 -188 -39 -21 -79 -46 -89 -57
-17 -18 -16 -19 17 -19 19 0 71 9 117 20 46 11 87 20 92 20 15 0 38 -98 43
-177 4 -61 2 -73 -12 -77 -43 -13 -387 -76 -473 -86 -83 -11 -98 -15 -98 -31
0 -37 95 -86 148 -76 15 2 91 21 170 42 79 21 146 35 149 32 3 -3 -12 -34 -33
-68 -76 -127 -191 -268 -315 -391 -113 -110 -144 -148 -124 -148 19 0 114 59
176 109 142 114 278 274 364 429 22 39 42 72 45 72 9 0 -7 -183 -19 -226 -15
-53 -14 -81 5 -143 24 -80 68 -112 90 -63 4 9 10 89 13 176 l6 160 85 -72 c90
-77 121 -92 145 -72 22 18 19 92 -5 122 -23 30 -113 58 -183 58 l-47 0 0 53 0
54 58 12 c123 27 244 65 250 79 16 43 -107 55 -232 23 l-69 -18 7 68 c3 37 11
80 16 95 13 34 -5 56 -61 73 -23 7 -39 14 -37 16 4 4 203 68 280 89 61 17 71
26 62 49 -12 32 -161 107 -212 107 -10 0 -35 -21 -56 -46z"/>
<path d="M1845 2610 c-4 -6 3 -35 16 -63 22 -48 24 -69 29 -297 4 -209 8 -250
23 -277 41 -76 66 -12 78 206 5 91 14 200 19 241 12 96 -4 134 -70 166 -63 31
-87 37 -95 24z"/>
<path d="M1650 1830 c-12 -7 -11 -15 10 -52 19 -34 25 -62 28 -129 l4 -86 -83
-23 c-46 -13 -117 -25 -158 -28 l-75 -5 22 28 c30 38 28 49 -20 84 -72 53
-132 36 -137 -39 -2 -48 -31 -104 -90 -177 -56 -70 -85 -119 -73 -127 12 -7
94 50 190 133 l82 71 33 -17 c25 -14 56 -18 142 -18 61 0 125 3 143 7 l32 8 0
-119 0 -118 -207 -22 c-341 -37 -610 -61 -745 -68 -70 -3 -133 -10 -140 -14
-33 -20 122 -119 187 -119 17 0 127 18 245 40 180 33 387 66 608 96 l43 5 -3
-378 c-3 -344 -1 -381 14 -410 31 -55 54 -54 81 3 33 68 46 197 53 499 l7 294
36 5 c187 29 646 35 823 10 129 -18 164 -15 179 20 26 56 -36 108 -171 142
-81 21 -130 17 -530 -36 -168 -22 -313 -40 -322 -40 -16 0 -18 12 -18 115 l0
114 38 6 c183 32 352 84 352 110 0 22 -36 45 -81 51 -40 5 -107 -5 -288 -44
-21 -4 -23 -2 -18 19 4 14 9 50 13 81 6 52 4 58 -19 80 -46 43 -152 70 -187
48z"/>
</g>
</svg>
