<?xml version="1.0" standalone="no"?>
<!DOCTYPE svg PUBLIC "-//W3C//DTD SVG 20010904//EN"
 "http://www.w3.org/TR/2001/REC-SVG-20010904/DTD/svg10.dtd">
<svg version="1.0" xmlns="http://www.w3.org/2000/svg"
 width="340.000000pt" height="340.000000pt" viewBox="0 0 340.000000 340.000000"
 preserveAspectRatio="xMidYMid meet">
<metadata>
Created by potrace 1.15, written by Peter Selinger 2001-2017
</metadata>
<g transform="translate(0.000000,340.000000) scale(0.100000,-0.100000)"
fill="#000000" stroke="none">
<path d="M1202 2683 c-5 -10 -12 -54 -15 -99 -4 -66 -11 -93 -42 -155 -36 -71
-120 -199 -132 -199 -3 0 -28 21 -57 46 -112 101 -215 162 -274 164 -19 0 4
-29 122 -151 119 -124 144 -155 136 -169 -20 -38 -266 -262 -375 -341 -132
-97 -146 -114 -83 -106 101 14 338 158 471 288 34 32 62 57 63 56 2 -2 10 -41
18 -87 l15 -85 -46 -80 c-89 -154 -157 -258 -246 -379 -95 -126 -277 -321
-360 -384 -27 -20 -56 -50 -64 -66 l-15 -29 33 7 c45 9 128 48 192 90 163 108
394 368 508 571 l34 60 8 -70 c5 -38 6 -173 4 -300 -4 -249 -19 -345 -61 -407
-33 -50 -60 -59 -126 -42 -73 19 -120 18 -120 -1 0 -8 27 -48 59 -88 33 -39
81 -108 109 -152 61 -100 85 -108 130 -46 43 59 109 266 121 383 14 123 14
506 1 663 -19 214 -53 393 -92 487 l-20 46 54 64 c29 35 78 97 108 138 30 41
77 100 106 132 73 80 73 87 7 159 -57 61 -86 81 -135 93 -20 5 -30 2 -36 -11z"/>
<path d="M2275 2438 c-94 -49 -214 -91 -319 -112 -100 -21 -139 -21 -211 -2
-32 9 -81 16 -107 16 -56 0 -59 -7 -29 -86 35 -90 43 -233 39 -669 -3 -380 -2
-413 15 -438 11 -17 26 -27 41 -27 51 0 61 87 77 665 7 242 13 441 14 442 1 2
42 10 91 18 49 8 162 33 252 56 181 45 216 46 244 9 51 -69 85 -425 74 -785
-5 -179 -3 -231 9 -278 21 -79 41 -109 74 -105 68 8 83 132 79 628 -3 372 -3
375 20 435 36 93 37 107 9 141 -30 35 -123 83 -221 113 -37 11 -69 21 -70 20
0 0 -37 -19 -81 -41z"/>
<path d="M1964 2025 c-3 -8 6 -63 21 -122 27 -105 28 -113 22 -313 -14 -544
-98 -685 -619 -1045 -60 -41 -31 -43 78 -4 187 66 400 199 485 302 124 152
189 374 215 732 3 50 15 135 25 190 10 55 19 112 19 128 0 33 -61 96 -124 126
-50 25 -114 28 -122 6z"/>
<path d="M2200 1087 c0 -28 15 -48 130 -177 192 -217 345 -360 383 -360 19 0
52 53 62 97 15 75 -58 198 -165 277 -80 59 -315 176 -367 183 -41 5 -43 4 -43
-20z"/>
</g>
</svg>
