<?xml version="1.0" standalone="no"?>
<!DOCTYPE svg PUBLIC "-//W3C//DTD SVG 20010904//EN"
 "http://www.w3.org/TR/2001/REC-SVG-20010904/DTD/svg10.dtd">
<svg version="1.0" xmlns="http://www.w3.org/2000/svg"
 width="340.000000pt" height="340.000000pt" viewBox="0 0 340.000000 340.000000"
 preserveAspectRatio="xMidYMid meet">
<metadata>
Created by potrace 1.15, written by Peter Selinger 2001-2017
</metadata>
<g transform="translate(0.000000,340.000000) scale(0.100000,-0.100000)"
fill="#000000" stroke="none">
<path d="M1253 2671 c7 -54 -8 -125 -43 -199 -32 -68 -118 -202 -130 -202 -4
0 -26 24 -49 54 -67 86 -169 158 -310 216 -77 31 -111 37 -111 19 0 -25 25
-51 104 -108 98 -71 200 -177 240 -250 l28 -52 -104 -102 c-108 -108 -250
-232 -324 -282 -99 -68 -39 -76 87 -12 98 50 180 104 297 195 46 35 85 62 88
60 9 -10 34 -161 34 -207 0 -117 -245 -448 -554 -749 -132 -129 -166 -172
-136 -172 41 0 256 156 379 274 103 101 180 193 260 316 35 52 65 97 68 100 7
7 -5 -271 -18 -425 -19 -226 -60 -385 -103 -401 -8 -3 -44 6 -80 20 -66 27
-106 33 -106 17 0 -5 21 -33 46 -63 25 -29 68 -99 96 -156 28 -56 53 -102 55
-102 3 0 20 9 38 20 122 75 195 391 195 839 0 285 -20 543 -56 724 l-16 78 60
62 c33 34 77 85 97 112 20 28 70 82 112 121 l77 72 -19 47 c-24 65 -76 119
-140 150 -30 14 -57 25 -61 25 -4 0 -4 -18 -1 -39z"/>
<path d="M2196 2600 c-52 -40 -169 -84 -318 -120 -143 -35 -159 -36 -256 -13
-100 23 -105 17 -67 -90 l30 -82 3 -425 c2 -234 -1 -535 -7 -670 -15 -354 -40
-474 -113 -540 l-33 -30 34 -65 c34 -67 103 -145 127 -145 8 0 25 17 38 38 68
109 193 242 394 420 85 76 106 111 55 91 -16 -6 -113 -58 -216 -116 -103 -58
-190 -103 -194 -100 -3 3 0 120 6 259 6 139 11 327 11 416 l0 164 49 -44 c27
-23 120 -119 208 -213 253 -272 484 -503 519 -520 42 -20 179 -20 371 1 172
18 215 29 211 52 -3 17 -33 29 -228 90 -131 42 -247 92 -374 162 -117 65 -286
172 -286 180 0 3 57 48 128 100 241 180 292 222 292 244 0 30 -33 79 -72 110
-30 22 -106 56 -128 56 -4 0 -10 -24 -13 -52 -9 -74 -71 -193 -167 -321 l-82
-108 -31 27 c-99 84 -261 217 -321 265 l-70 54 80 11 c43 6 125 21 181 33 135
28 149 27 183 -9 15 -16 35 -30 44 -30 39 0 99 136 161 360 43 156 76 234 140
330 25 37 45 75 45 83 0 24 -46 73 -95 102 -48 27 -167 75 -188 75 -6 0 -30
-14 -51 -30z m13 -140 c10 -5 21 -23 24 -40 14 -66 -32 -404 -73 -541 l-20
-66 -58 -7 c-32 -4 -128 -22 -213 -41 -85 -19 -158 -35 -163 -35 -8 0 -3 129
10 246 l6 51 75 7 c91 7 179 29 256 63 63 28 72 48 30 64 -41 16 -112 5 -247
-36 -65 -20 -120 -34 -122 -32 -2 2 1 46 7 98 6 51 9 114 6 140 l-6 45 134 33
c227 56 321 69 354 51z"/>
</g>
</svg>
