<?xml version="1.0" standalone="no"?>
<!DOCTYPE svg PUBLIC "-//W3C//DTD SVG 20010904//EN"
 "http://www.w3.org/TR/2001/REC-SVG-20010904/DTD/svg10.dtd">
<svg version="1.0" xmlns="http://www.w3.org/2000/svg"
 width="340.000000pt" height="340.000000pt" viewBox="0 0 340.000000 340.000000"
 preserveAspectRatio="xMidYMid meet">
<metadata>
Created by potrace 1.15, written by Peter Selinger 2001-2017
</metadata>
<g transform="translate(0.000000,340.000000) scale(0.100000,-0.100000)"
fill="#000000" stroke="none">
<path d="M1176 2640 c-11 -97 -62 -221 -134 -328 l-29 -43 -58 71 c-78 95
-160 168 -220 196 -52 25 -85 30 -85 15 0 -13 52 -83 151 -205 47 -58 94 -121
104 -140 l19 -34 -60 -73 c-32 -41 -120 -135 -195 -211 -75 -75 -134 -140
-131 -143 11 -10 54 -5 85 11 46 24 154 112 262 216 107 102 102 103 124 -18
21 -113 15 -159 -31 -243 -102 -187 -243 -366 -458 -581 -112 -112 -149 -156
-137 -158 72 -14 423 271 578 469 113 144 101 158 95 -111 -6 -249 -20 -434
-37 -488 -16 -48 -35 -54 -126 -37 -82 16 -133 19 -133 9 0 -3 33 -38 73 -78
40 -39 95 -106 122 -148 27 -43 52 -78 56 -78 4 0 21 11 38 25 38 33 74 108
100 210 39 156 43 228 38 597 -6 416 -19 534 -93 794 -4 16 7 35 43 76 26 31
75 93 107 139 33 46 76 101 98 121 25 24 38 46 38 63 0 47 -131 165 -183 165
-10 0 -16 -18 -21 -60z"/>
<path d="M2300 2659 c-108 -44 -597 -123 -810 -131 -81 -4 -83 -11 -36 -123
36 -88 78 -227 120 -409 27 -112 44 -153 72 -177 15 -12 20 -10 43 18 23 28
38 34 130 52 57 12 173 30 258 42 125 16 161 18 184 9 36 -16 72 -6 91 22 8
13 32 68 52 123 20 55 60 146 88 203 43 89 58 109 105 144 51 39 73 65 73 87
0 5 -14 24 -31 41 -78 77 -260 130 -339 99z m70 -151 c0 -73 -24 -181 -80
-359 l-40 -127 -43 5 c-38 5 -110 -10 -172 -33 -13 -5 -15 7 -15 87 0 52 3
104 6 117 6 22 23 29 180 71 47 13 83 46 67 62 -15 15 -131 12 -187 -5 l-48
-15 6 27 c3 15 9 55 12 90 6 56 5 65 -15 86 l-22 24 88 12 c48 6 93 13 98 15
6 2 45 4 88 4 l77 1 0 -62z m-450 -112 l0 -103 -70 -12 c-84 -13 -152 -39
-147 -55 2 -7 43 -12 112 -14 l108 -3 -8 -122 c-4 -67 -8 -123 -8 -124 -8 -7
-222 -32 -227 -26 -7 8 -82 514 -77 519 3 4 264 42 295 43 21 1 22 -2 22 -103z"/>
<path d="M2355 1795 c-66 -13 -210 -44 -320 -69 -110 -25 -315 -66 -455 -91
-344 -62 -359 -65 -366 -76 -3 -5 12 -17 33 -26 53 -22 185 -22 237 0 22 10
40 16 42 14 2 -1 10 -28 18 -60 28 -107 39 -255 33 -447 -6 -208 -14 -246 -79
-345 -21 -33 -41 -69 -44 -81 -11 -42 44 -224 68 -224 12 0 42 30 327 323 218
224 262 277 231 277 -18 0 -91 -40 -165 -90 -38 -26 -108 -71 -154 -100 l-84
-52 9 218 c17 446 12 499 -61 562 l-33 30 30 6 c17 3 50 6 74 6 l43 0 289
-302 c159 -167 319 -337 356 -378 37 -41 74 -79 83 -84 49 -27 257 -23 433 10
124 22 160 33 160 48 0 26 -29 37 -145 56 -142 24 -239 56 -367 119 -97 49
-288 169 -288 182 0 10 122 107 205 163 82 56 115 85 115 101 0 18 -52 63 -93
80 -20 8 -63 18 -95 21 l-59 7 1 -59 c0 -69 -37 -151 -102 -224 -36 -41 -41
-43 -58 -30 -59 47 -365 313 -362 315 8 8 401 46 618 60 135 8 260 20 278 26
67 22 25 95 -71 124 -68 20 -140 18 -282 -10z"/>
</g>
</svg>
