<?xml version="1.0" standalone="no"?>
<!DOCTYPE svg PUBLIC "-//W3C//DTD SVG 20010904//EN"
 "http://www.w3.org/TR/2001/REC-SVG-20010904/DTD/svg10.dtd">
<svg version="1.0" xmlns="http://www.w3.org/2000/svg"
 width="340.000000pt" height="340.000000pt" viewBox="0 0 340.000000 340.000000"
 preserveAspectRatio="xMidYMid meet">
<metadata>
Created by potrace 1.15, written by Peter Selinger 2001-2017
</metadata>
<g transform="translate(0.000000,340.000000) scale(0.100000,-0.100000)"
fill="#000000" stroke="none">
<path d="M2360 2594 c-107 -34 -253 -69 -415 -99 -138 -26 -141 -26 -229 -10
-88 16 -136 14 -136 -6 0 -6 17 -47 39 -92 41 -88 81 -202 135 -389 48 -168
66 -190 124 -149 15 11 53 22 88 26 58 6 62 6 67 -17 11 -39 31 -317 24 -324
-6 -6 -327 -74 -350 -74 -5 0 14 25 41 56 28 31 53 65 56 77 7 29 -50 80 -107
96 -73 21 -81 16 -87 -59 -5 -64 -6 -66 -107 -200 -57 -74 -103 -141 -103
-147 0 -34 72 2 193 94 l58 45 69 -17 c68 -17 73 -16 182 5 62 13 123 26 136
31 l22 9 0 -129 0 -129 -42 -10 c-24 -6 -108 -23 -187 -37 -80 -14 -148 -28
-153 -31 -27 -17 22 -48 92 -59 40 -6 128 2 248 21 l42 7 0 -147 c0 -108 -3
-148 -12 -151 -31 -10 -358 -56 -503 -71 -171 -17 -205 -25 -205 -49 0 -20 32
-39 106 -64 l61 -20 194 39 c474 95 776 112 1135 64 35 -5 45 -2 63 17 30 32
26 57 -13 93 -44 42 -134 76 -199 76 -29 0 -153 -16 -276 -35 -123 -19 -225
-35 -227 -35 -2 0 -4 67 -4 149 l0 148 78 12 c126 20 273 58 289 74 13 13 13
18 -1 45 -32 61 -99 64 -272 12 l-94 -28 0 128 0 128 48 11 c26 6 110 20 187
31 187 28 215 36 215 60 0 21 -52 53 -107 65 -33 7 -167 -23 -285 -64 l-58
-20 0 37 c0 20 7 68 15 107 8 38 15 75 15 82 0 17 -47 59 -97 85 -24 13 -43
26 -43 29 0 3 52 13 116 22 103 15 119 15 144 2 16 -8 38 -15 49 -15 33 0 81
50 118 124 75 150 183 296 248 336 22 14 35 29 35 43 0 33 -118 139 -201 181
-84 42 -114 44 -219 10z m90 -104 c42 -42 16 -175 -78 -388 -42 -95 -47 -103
-69 -97 -13 3 -107 -13 -210 -35 -102 -22 -191 -40 -198 -40 -6 0 -19 36 -29
83 -10 45 -20 91 -22 103 -5 19 0 22 58 28 83 8 368 72 380 84 16 16 -1 52
-28 62 -19 8 -71 -2 -221 -40 -108 -28 -198 -48 -200 -46 -6 5 -53 186 -53
202 0 7 25 15 58 18 31 4 122 19 202 33 156 27 318 50 363 52 15 1 36 -8 47
-19z"/>
<path d="M1272 2523 c-6 -26 -14 -66 -17 -87 -4 -22 -17 -60 -30 -85 -24 -47
-150 -201 -165 -201 -4 0 -40 34 -80 74 -40 41 -110 102 -156 135 -80 56 -178
101 -192 87 -3 -4 62 -73 145 -154 159 -155 212 -218 197 -231 -50 -44 -162
-134 -261 -208 -66 -51 -123 -99 -126 -107 -21 -53 180 34 342 149 51 36 95
65 96 63 2 -2 13 -32 25 -67 l21 -63 -75 -112 c-124 -186 -278 -370 -525 -628
-108 -113 -101 -130 21 -49 194 131 439 372 595 586 l21 29 7 -54 c4 -31 5
-201 3 -380 -5 -356 -10 -395 -64 -451 -32 -34 -73 -37 -169 -14 -75 18 -115
19 -115 2 0 -7 30 -42 66 -77 36 -36 88 -97 115 -137 67 -98 100 -114 153 -72
32 25 98 161 119 244 51 196 49 697 -4 1003 -20 117 -59 249 -86 291 -16 24
-15 26 33 65 27 22 94 84 149 136 55 53 117 106 138 119 42 26 43 28 22 78
-23 56 -61 100 -108 127 -77 44 -83 43 -95 -11z"/>
</g>
</svg>
