<?xml version="1.0" standalone="no"?>
<!DOCTYPE svg PUBLIC "-//W3C//DTD SVG 20010904//EN"
 "http://www.w3.org/TR/2001/REC-SVG-20010904/DTD/svg10.dtd">
<svg version="1.0" xmlns="http://www.w3.org/2000/svg"
 width="340.000000pt" height="340.000000pt" viewBox="0 0 340.000000 340.000000"
 preserveAspectRatio="xMidYMid meet">
<metadata>
Created by potrace 1.15, written by Peter Selinger 2001-2017
</metadata>
<g transform="translate(0.000000,340.000000) scale(0.100000,-0.100000)"
fill="#000000" stroke="none">
<path d="M1829 2727 c-9 -19 -6 -36 15 -85 31 -72 49 -209 44 -337 l-3 -89
-35 -8 c-19 -4 -82 -15 -140 -23 -58 -9 -113 -18 -123 -21 -28 -9 -16 -37 23
-57 29 -15 52 -18 140 -14 58 3 113 8 123 12 16 7 17 -4 17 -138 l0 -146 -52
-10 c-97 -20 -247 -41 -420 -61 -95 -11 -176 -24 -180 -28 -15 -15 27 -41 92
-58 77 -20 91 -18 475 56 138 26 251 47 253 45 6 -6 -89 -117 -182 -213 -99
-101 -102 -103 -130 -92 -24 9 -32 8 -44 -4 -12 -12 -12 -20 -3 -48 12 -33 12
-34 -46 -86 -64 -59 -276 -228 -364 -291 l-56 -40 -6 237 c-8 317 -36 614 -72
767 l-13 60 80 100 c45 55 112 129 149 165 41 39 69 74 69 86 0 50 -106 165
-167 180 -45 12 -53 0 -53 -77 0 -81 -34 -179 -95 -275 l-36 -56 -36 42 c-94
110 -316 271 -355 258 -7 -3 32 -51 85 -108 54 -57 123 -141 155 -188 l57 -84
-71 -68 c-40 -37 -130 -106 -201 -154 -72 -47 -136 -93 -144 -102 -13 -16 -10
-17 43 -11 65 6 197 65 334 148 47 28 87 49 88 48 2 -2 8 -35 14 -74 9 -61 8
-75 -9 -115 -65 -148 -276 -395 -474 -552 -171 -137 -185 -149 -185 -163 0
-25 29 -17 119 32 191 103 377 251 511 406 l75 87 3 -198 c5 -297 -14 -451
-70 -570 -30 -63 -52 -71 -155 -56 -47 7 -91 10 -99 7 -10 -4 8 -29 59 -87 40
-44 89 -102 109 -127 43 -53 81 -66 132 -45 76 32 112 129 152 413 4 29 12 36
77 66 130 61 325 194 396 271 14 14 29 26 34 26 7 0 7 -93 2 -267 -5 -148 -8
-296 -7 -330 2 -67 30 -164 49 -171 20 -6 51 56 64 127 l11 66 58 -3 c31 -2
108 3 170 12 165 23 155 25 189 -41 15 -32 32 -69 36 -83 21 -72 69 -179 82
-184 39 -15 81 49 120 179 15 52 17 106 18 390 0 326 0 331 24 383 32 72 23
97 -49 137 -30 16 -82 36 -114 45 l-59 17 -116 -37 c-108 -35 -288 -76 -296
-68 -2 1 38 48 88 103 51 55 119 131 152 168 l60 68 90 9 c50 5 207 14 350 20
311 12 323 14 336 44 17 36 -5 64 -74 97 -73 34 -102 36 -205 10 -120 -30
-393 -83 -399 -77 -3 2 64 89 149 193 85 103 160 198 166 209 10 18 7 28 -18
62 -37 52 -87 89 -124 94 l-30 3 -11 -80 c-11 -72 -19 -91 -79 -190 -82 -133
-216 -326 -231 -330 -5 -2 -34 -6 -62 -9 l-53 -5 0 144 0 145 28 6 c107 24
226 60 253 76 30 18 31 20 14 38 -20 22 -74 40 -120 40 -29 0 -118 -20 -157
-35 -16 -6 -18 -1 -18 41 0 58 14 151 37 252 l17 72 -30 31 c-43 46 -137 99
-173 99 -23 0 -34 -6 -42 -23z m498 -1337 c31 -62 47 -243 40 -430 -9 -220
-19 -238 -101 -175 -57 43 -69 44 -255 5 -79 -17 -148 -30 -153 -30 -4 0 -8
67 -8 148 l0 148 118 12 c145 15 262 39 282 58 12 12 12 16 -2 30 -42 42 -193
33 -381 -22 -16 -5 -17 3 -15 117 l3 123 100 13 c55 7 141 22 190 32 50 11
106 18 125 18 31 -2 38 -7 57 -47z"/>
</g>
</svg>
