<?xml version="1.0" standalone="no"?>
<!DOCTYPE svg PUBLIC "-//W3C//DTD SVG 20010904//EN"
 "http://www.w3.org/TR/2001/REC-SVG-20010904/DTD/svg10.dtd">
<svg version="1.0" xmlns="http://www.w3.org/2000/svg"
 width="340.000000pt" height="340.000000pt" viewBox="0 0 340.000000 340.000000"
 preserveAspectRatio="xMidYMid meet">
<metadata>
Created by potrace 1.15, written by Peter Selinger 2001-2017
</metadata>
<g transform="translate(0.000000,340.000000) scale(0.100000,-0.100000)"
fill="#000000" stroke="none">
<path d="M2255 2639 c-4 -5 2 -31 13 -57 30 -70 37 -172 17 -262 -9 -41 -19
-91 -22 -111 l-5 -35 -192 -37 c-105 -21 -194 -37 -198 -37 -5 0 -8 53 -8 119
l0 118 -40 45 c-48 56 -127 93 -176 83 -19 -3 -34 -10 -34 -16 0 -5 20 -58 44
-117 42 -101 76 -212 76 -245 0 -9 -13 -17 -32 -20 -18 -3 -64 -10 -103 -16
-188 -30 -210 -42 -133 -77 43 -19 151 -25 243 -14 l40 5 6 -85 c9 -122 31
-165 81 -158 23 3 23 6 26 135 2 115 5 132 20 137 9 3 85 19 167 36 83 17 156
33 163 36 20 6 7 -43 -44 -169 -62 -152 -56 -197 16 -124 28 28 110 185 149
284 15 38 11 37 231 62 258 30 270 33 293 52 29 23 16 46 -43 77 -62 31 -120
28 -289 -13 -79 -20 -146 -34 -148 -31 -2 2 28 73 67 159 38 85 70 162 70 170
0 26 -77 85 -131 101 -61 18 -115 21 -124 5z"/>
<path d="M1163 2574 c-3 -9 0 -46 6 -83 8 -44 9 -75 3 -92 -13 -33 -111 -199
-118 -199 -3 0 -24 15 -47 33 -53 43 -180 121 -229 141 -41 17 -114 21 -122 7
-12 -19 6 -38 70 -76 70 -40 168 -110 222 -156 l32 -29 -72 -82 c-40 -46 -135
-146 -210 -224 -76 -77 -138 -146 -138 -152 0 -16 70 10 134 49 57 35 249 195
311 258 21 23 42 41 47 41 8 0 44 -117 54 -176 7 -50 -13 -94 -115 -245 -115
-173 -310 -386 -535 -587 -39 -34 -67 -64 -64 -68 8 -7 90 38 207 115 173 112
355 284 481 453 l62 83 -4 -265 c-4 -210 -8 -281 -22 -340 -34 -141 -79 -197
-151 -186 -104 16 -143 18 -149 8 -4 -6 25 -49 65 -94 39 -46 82 -104 95 -129
30 -60 49 -79 81 -79 36 0 82 52 125 141 64 132 88 315 88 687 0 328 -24 506
-93 678 l-34 84 37 43 c128 147 211 252 216 273 8 32 -55 117 -115 155 -51 33
-108 39 -118 13z"/>
<path d="M2445 1729 c-119 -32 -361 -78 -593 -113 -207 -31 -227 -32 -285 -20
-100 21 -157 17 -157 -12 0 -8 13 -38 29 -67 50 -89 77 -226 101 -514 14 -177
30 -267 51 -302 32 -52 67 -37 80 34 5 27 10 50 12 52 2 1 98 14 213 28 115
14 254 32 309 39 55 7 105 11 111 9 13 -5 59 -102 70 -148 15 -63 52 -133 74
-140 34 -11 77 37 128 144 38 81 51 123 83 290 46 230 90 399 124 477 30 68
31 80 6 118 -27 40 -89 80 -182 116 -90 35 -82 34 -174 9z m87 -129 c35 -27
39 -58 27 -222 -19 -280 -67 -488 -113 -488 -7 0 -30 13 -51 30 -52 41 -61 42
-160 25 -48 -8 -101 -15 -117 -15 l-29 0 3 137 3 137 45 8 c251 46 327 84 258
132 -32 22 -89 20 -193 -9 -49 -14 -93 -25 -97 -25 -11 0 -10 61 4 142 l11 71
-33 27 -33 27 99 12 c290 36 343 38 376 11z m-573 -102 c5 -29 12 -90 14 -135
l5 -82 -68 -15 c-38 -9 -82 -16 -97 -16 -47 0 -74 -11 -71 -29 6 -32 48 -42
146 -36 l93 5 -3 -142 -3 -143 -105 -12 c-58 -6 -127 -13 -155 -15 l-50 -3
-22 315 c-12 173 -20 316 -18 318 5 5 246 39 287 41 36 1 37 1 47 -51z"/>
</g>
</svg>
