<?xml version="1.0" standalone="no"?>
<!DOCTYPE svg PUBLIC "-//W3C//DTD SVG 20010904//EN"
 "http://www.w3.org/TR/2001/REC-SVG-20010904/DTD/svg10.dtd">
<svg version="1.0" xmlns="http://www.w3.org/2000/svg"
 width="340.000000pt" height="340.000000pt" viewBox="0 0 340.000000 340.000000"
 preserveAspectRatio="xMidYMid meet">
<metadata>
Created by potrace 1.15, written by Peter Selinger 2001-2017
</metadata>
<g transform="translate(0.000000,340.000000) scale(0.100000,-0.100000)"
fill="#000000" stroke="none">
<path d="M1930 2649 c0 -12 13 -64 30 -114 45 -143 50 -195 50 -562 l0 -342
-122 -40 c-68 -22 -140 -42 -160 -46 -20 -4 -45 -13 -54 -20 -16 -11 -16 -13
5 -24 54 -29 168 -32 288 -6 l32 7 -5 -38 c-32 -232 -80 -392 -154 -512 -55
-88 -141 -179 -214 -223 -48 -30 -48 -30 -43 -7 17 68 29 234 36 493 7 263 10
296 31 357 12 37 20 74 17 83 -10 25 -93 72 -162 90 l-64 18 -98 -31 c-252
-79 -263 -82 -263 -64 1 28 68 284 77 291 4 4 67 26 139 49 153 49 218 76 245
103 26 26 24 44 -6 57 -48 22 -134 14 -237 -22 -63 -21 -98 -29 -98 -22 0 7
16 68 35 137 46 162 46 189 0 223 -50 38 -111 64 -174 72 -62 8 -60 20 -17
-101 14 -38 28 -98 32 -133 7 -72 -11 -243 -28 -253 -7 -4 -57 -19 -112 -33
-201 -51 -280 -86 -253 -113 14 -13 129 -15 237 -4 57 5 106 8 109 5 4 -4 -56
-284 -63 -291 -13 -13 -361 -93 -406 -93 -88 0 -91 -7 -47 -92 76 -150 88
-440 26 -654 l-21 -71 28 -56 c15 -31 35 -64 46 -73 17 -16 20 -16 43 6 51 48
58 104 51 409 -4 152 -9 320 -12 373 l-6 96 38 11 c22 6 56 14 77 17 33 6 37
4 37 -14 0 -32 40 -132 61 -153 26 -26 45 -24 65 6 25 39 11 89 -42 145 l-44
47 126 32 c157 39 155 40 130 -79 -8 -36 -28 -98 -46 -137 -28 -63 -36 -73
-64 -78 -66 -14 -206 -58 -206 -66 0 -27 83 -36 168 -20 l42 8 0 -78 c0 -91
15 -79 -145 -108 -75 -13 -101 -21 -103 -34 -4 -21 45 -31 154 -31 l81 -1 5
-135 c4 -95 11 -148 23 -178 18 -43 38 -54 49 -25 7 17 22 154 32 286 5 64 9
77 23 77 34 0 224 58 232 71 11 18 -6 46 -33 55 -42 13 -126 6 -172 -15 l-46
-20 0 79 0 79 43 11 c71 18 156 51 168 66 33 39 -38 65 -111 40 -51 -17 -127
-31 -120 -23 3 3 47 48 98 100 58 59 92 102 92 116 0 15 -14 29 -50 49 -27 15
-50 30 -50 33 0 4 43 15 95 25 69 13 105 15 132 8 65 -16 67 -34 68 -444 0
-376 -8 -460 -44 -480 -10 -5 -56 -7 -105 -3 -102 7 -108 -1 -45 -62 23 -23
58 -75 80 -120 22 -44 43 -83 48 -88 4 -4 23 3 42 15 24 16 47 49 76 108 30
59 50 87 65 92 13 3 50 14 83 23 91 26 150 62 220 137 82 86 143 210 184 368
l29 115 17 -40 c63 -150 131 -296 217 -470 94 -189 101 -201 141 -222 64 -33
143 -44 363 -50 153 -4 203 -3 209 7 12 19 -12 35 -140 92 -192 86 -278 141
-385 248 -115 115 -238 267 -335 415 l-72 110 6 74 6 75 50 12 c28 6 140 33
250 59 222 52 251 64 234 96 -14 27 -80 56 -146 65 -63 8 -122 -5 -266 -58
-59 -22 -110 -38 -113 -35 -3 2 2 155 10 338 12 279 18 345 35 404 28 93 27
106 -11 142 -38 36 -73 54 -143 76 -96 29 -105 30 -105 6z"/>
<path d="M2368 2264 c-32 -6 -50 -26 -42 -47 3 -8 31 -31 62 -50 31 -19 92
-63 136 -96 60 -47 86 -61 112 -61 28 0 35 5 40 26 20 80 -25 171 -101 205
-42 19 -157 31 -207 23z"/>
</g>
</svg>
