<?xml version="1.0" standalone="no"?>
<!DOCTYPE svg PUBLIC "-//W3C//DTD SVG 20010904//EN"
 "http://www.w3.org/TR/2001/REC-SVG-20010904/DTD/svg10.dtd">
<svg version="1.0" xmlns="http://www.w3.org/2000/svg"
 width="340.000000pt" height="340.000000pt" viewBox="0 0 340.000000 340.000000"
 preserveAspectRatio="xMidYMid meet">
<metadata>
Created by potrace 1.15, written by Peter Selinger 2001-2017
</metadata>
<g transform="translate(0.000000,340.000000) scale(0.100000,-0.100000)"
fill="#000000" stroke="none">
<path d="M1788 2789 c-25 -14 -22 -42 7 -69 33 -31 52 -96 60 -208 7 -82 6
-91 -11 -100 -16 -8 -177 -43 -249 -54 -43 -7 -20 -33 49 -56 62 -21 76 -22
131 -13 34 6 67 11 73 11 8 0 12 -30 12 -100 0 -95 -1 -101 -22 -109 -37 -14
-425 -89 -517 -101 -134 -16 -135 -36 -5 -71 l82 -22 183 46 c297 74 547 119
847 152 182 19 203 30 167 81 -22 32 -77 54 -136 54 -29 0 -149 -21 -266 -47
-117 -25 -215 -44 -218 -41 -3 2 -2 44 3 93 l7 89 35 9 c126 31 230 69 254 93
34 34 34 71 1 86 -21 9 -44 5 -143 -25 -64 -21 -124 -37 -133 -37 -14 0 -13
13 7 118 l24 117 -34 31 c-49 47 -177 91 -208 73z"/>
<path d="M1096 2554 c-4 -10 -4 -46 -1 -79 6 -55 4 -66 -29 -130 -19 -38 -49
-87 -67 -108 l-31 -37 -32 27 c-77 68 -272 163 -334 163 -31 0 -25 -19 14 -43
116 -72 186 -121 234 -164 l54 -50 -18 -29 c-29 -45 -202 -212 -298 -288 -49
-38 -88 -73 -88 -78 0 -14 43 -8 88 12 61 27 182 115 284 204 l87 75 15 -47
c36 -109 34 -121 -29 -234 -122 -216 -270 -427 -430 -613 -90 -104 -110 -133
-101 -142 12 -12 90 34 161 96 137 119 242 249 402 500 l41 64 8 -38 c11 -62
-3 -500 -21 -603 -17 -102 -47 -177 -78 -193 -13 -7 -49 -9 -103 -4 -47 4 -84
3 -84 -2 0 -5 25 -33 56 -63 31 -30 74 -81 95 -112 61 -89 98 -100 148 -43 30
35 65 129 77 209 8 50 21 76 38 76 26 0 194 90 271 145 44 31 116 89 159 128
l79 72 -6 -182 c-8 -227 -17 -267 -74 -350 -41 -60 -44 -70 -39 -107 9 -55 41
-125 61 -132 24 -10 56 12 100 69 22 28 115 128 208 222 92 95 167 178 167
184 0 27 -66 -1 -230 -98 -58 -33 -106 -57 -108 -52 -2 5 4 62 13 127 8 65 15
158 15 207 0 84 -2 91 -30 126 l-29 38 27 33 28 33 110 -89 c60 -48 163 -133
229 -188 138 -115 279 -221 346 -259 62 -37 117 -42 227 -23 88 15 290 75 322
96 29 19 -7 32 -143 50 -162 23 -310 59 -431 106 -135 52 -321 154 -306 167
36 32 226 165 304 212 81 50 101 67 101 85 0 33 -38 56 -133 81 -100 27 -107
23 -123 -66 -12 -71 -33 -104 -131 -210 l-74 -79 -100 56 c-54 32 -139 82
-188 112 -78 48 -86 55 -65 60 13 3 120 19 237 36 118 16 218 32 223 36 13 8
11 25 -7 45 -14 16 -14 20 1 48 16 32 75 95 133 143 21 17 30 32 26 43 -9 23
-73 53 -159 73 l-75 18 -97 -32 c-130 -42 -325 -81 -444 -89 -52 -4 -101 -10
-108 -14 -9 -6 3 -30 43 -89 59 -88 136 -239 136 -269 0 -24 -59 -112 -127
-190 -55 -63 -187 -180 -302 -268 l-64 -49 7 65 c3 35 9 147 13 249 10 316
-24 652 -84 832 l-28 83 95 105 c52 58 107 118 122 133 42 43 45 71 13 109
-63 75 -155 119 -169 82z m958 -786 c34 -47 2 -171 -46 -183 -125 -29 -340
-71 -342 -66 -2 3 -15 48 -29 99 -19 68 -23 94 -14 97 10 4 274 55 347 68 53
9 69 6 84 -15z"/>
</g>
</svg>
