<?xml version="1.0" standalone="no"?>
<!DOCTYPE svg PUBLIC "-//W3C//DTD SVG 20010904//EN"
 "http://www.w3.org/TR/2001/REC-SVG-20010904/DTD/svg10.dtd">
<svg version="1.0" xmlns="http://www.w3.org/2000/svg"
 width="340.000000pt" height="340.000000pt" viewBox="0 0 340.000000 340.000000"
 preserveAspectRatio="xMidYMid meet">
<metadata>
Created by potrace 1.15, written by Peter Selinger 2001-2017
</metadata>
<g transform="translate(0.000000,340.000000) scale(0.100000,-0.100000)"
fill="#000000" stroke="none">
<path d="M1540 2947 c0 -21 57 -95 142 -185 37 -39 68 -76 68 -80 0 -11 -232
-48 -415 -68 -179 -19 -205 -23 -205 -33 0 -32 225 -67 343 -53 45 5 84 8 86
6 6 -5 -32 -110 -61 -165 -31 -59 -97 -135 -162 -185 -34 -27 -39 -36 -44 -82
-8 -87 34 -115 114 -77 52 25 293 99 300 92 2 -2 -31 -46 -75 -98 -70 -85
-163 -178 -293 -295 -75 -67 -89 -151 -28 -172 26 -10 33 -8 61 17 37 34 119
76 182 93 36 9 49 9 61 -1 16 -13 31 -77 41 -178 6 -54 5 -62 -12 -67 -57 -17
-631 -88 -960 -117 -91 -8 -133 -16 -133 -24 0 -29 43 -65 93 -79 104 -29 132
-29 214 -2 111 36 220 62 358 85 134 22 365 51 410 51 l30 0 1 -438 c0 -346 4
-447 15 -487 31 -111 78 -46 104 146 8 63 20 267 27 455 l12 341 225 6 c220 7
480 -3 631 -23 85 -11 191 -13 214 -4 20 8 21 56 1 94 -30 59 -164 103 -310
102 -49 0 -205 -14 -345 -31 -371 -45 -415 -50 -418 -46 -2 2 4 30 13 63 13
46 14 64 6 80 -15 28 -67 67 -117 88 l-39 17 30 8 c73 20 234 59 242 59 5 0
22 -22 38 -49 37 -62 65 -79 100 -63 49 22 62 117 25 177 -25 41 -120 106
-196 134 -30 12 -59 21 -65 21 -26 0 -16 -35 30 -103 l51 -75 -53 -12 c-80
-17 -348 -60 -375 -60 -26 0 40 74 373 415 141 145 155 162 148 185 -12 35
-94 83 -146 84 l-42 1 -5 -55 c-5 -55 -40 -138 -69 -164 -11 -10 -66 -18 -169
-26 -85 -6 -155 -10 -157 -8 -2 2 57 66 131 143 73 77 134 148 134 159 0 10
-14 36 -31 57 -17 21 -27 39 -22 39 89 1 507 63 576 86 125 41 92 104 -54 104
-40 0 -133 -12 -206 -26 -74 -14 -136 -24 -138 -22 -2 2 3 28 12 58 19 65 10
115 -27 141 -31 23 -124 48 -207 56 -53 5 -63 3 -63 -10z"/>
<path d="M2329 2500 c-7 -5 -14 -27 -15 -49 -2 -49 -26 -83 -138 -198 -92 -96
-84 -106 39 -49 88 41 335 175 335 182 0 44 -182 138 -221 114z"/>
<path d="M865 2320 c-9 -14 12 -49 75 -126 108 -133 124 -148 153 -140 32 8
57 52 57 98 0 72 -68 132 -185 162 -69 18 -91 20 -100 6z"/>
<path d="M2140 2088 c0 -7 69 -81 153 -164 173 -171 202 -188 244 -140 54 63
10 168 -93 223 -63 33 -243 93 -281 93 -13 0 -23 -5 -23 -12z"/>
<path d="M1139 1910 c-57 -39 -132 -91 -167 -116 -35 -24 -83 -49 -108 -55
-24 -6 -47 -15 -50 -20 -11 -19 94 -159 120 -159 27 0 329 401 313 416 -3 3
-51 -27 -108 -66z"/>
</g>
</svg>
