<?xml version="1.0" standalone="no"?>
<!DOCTYPE svg PUBLIC "-//W3C//DTD SVG 20010904//EN"
 "http://www.w3.org/TR/2001/REC-SVG-20010904/DTD/svg10.dtd">
<svg version="1.0" xmlns="http://www.w3.org/2000/svg"
 width="340.000000pt" height="340.000000pt" viewBox="0 0 340.000000 340.000000"
 preserveAspectRatio="xMidYMid meet">
<metadata>
Created by potrace 1.15, written by Peter Selinger 2001-2017
</metadata>
<g transform="translate(0.000000,340.000000) scale(0.100000,-0.100000)"
fill="#000000" stroke="none">
<path d="M2055 2553 c-11 -11 -15 -25 -10 -42 19 -78 17 -117 -9 -186 -32 -83
-109 -223 -207 -372 -39 -59 -72 -109 -73 -109 0 -1 -26 2 -56 7 -63 10 -110
3 -110 -16 0 -8 11 -31 25 -51 74 -109 94 -376 53 -712 -19 -158 -20 -193 -10
-253 15 -84 46 -155 80 -177 23 -15 25 -15 43 7 22 27 35 73 44 159 4 34 11
64 15 67 6 4 465 65 486 65 9 0 49 -150 69 -253 24 -126 38 -167 55 -167 25 0
102 78 131 135 72 135 93 284 84 610 -7 267 1 370 35 470 11 31 29 69 40 85
20 29 20 31 4 65 -28 60 -106 108 -227 139 -55 14 -59 14 -110 -8 -82 -37
-299 -100 -510 -150 -23 -5 5 30 151 191 99 109 219 236 267 282 114 109 110
116 -106 192 -125 44 -131 45 -154 22z m389 -706 c39 -58 50 -145 50 -362 -1
-211 -13 -352 -41 -477 -8 -38 -19 -68 -25 -68 -6 0 -35 23 -66 51 l-56 52
-66 -6 c-36 -3 -141 -20 -234 -37 -92 -17 -170 -30 -172 -28 -2 2 -6 88 -10
190 l-7 186 44 6 c24 3 78 8 119 11 90 6 225 39 298 71 63 28 66 50 10 77 -56
28 -149 25 -232 -7 -78 -30 -226 -69 -233 -63 -2 3 -7 77 -10 165 l-6 160 39
11 c65 18 324 71 394 80 36 5 93 9 127 10 55 1 64 -2 77 -22z"/>
<path d="M1085 2215 c-88 -30 -209 -66 -270 -80 -60 -15 -115 -34 -122 -42
-32 -40 24 -63 153 -63 l93 0 11 -41 c21 -79 30 -154 30 -265 l0 -111 -147
-45 c-169 -51 -185 -65 -109 -99 50 -22 154 -30 219 -16 l37 8 0 -191 0 -191
-92 -43 c-183 -85 -301 -126 -366 -126 -43 0 -72 -16 -72 -40 0 -39 176 -160
232 -160 14 0 35 12 49 26 62 66 306 222 606 388 151 83 206 127 185 148 -21
21 -115 -7 -255 -76 -72 -36 -133 -64 -135 -61 -2 2 -1 87 3 188 l7 184 82 32
c96 37 195 91 210 114 17 27 -15 50 -78 55 -43 3 -73 -2 -136 -23 -44 -16 -83
-25 -87 -21 -4 4 1 71 11 151 20 164 18 173 -45 206 -23 11 -39 22 -37 24 1 1
73 21 158 43 85 22 177 50 203 61 42 18 48 24 41 43 -16 55 -65 78 -156 77
-48 -1 -102 -14 -223 -54z"/>
</g>
</svg>
