<?xml version="1.0" standalone="no"?>
<!DOCTYPE svg PUBLIC "-//W3C//DTD SVG 20010904//EN"
 "http://www.w3.org/TR/2001/REC-SVG-20010904/DTD/svg10.dtd">
<svg version="1.0" xmlns="http://www.w3.org/2000/svg"
 width="340.000000pt" height="340.000000pt" viewBox="0 0 340.000000 340.000000"
 preserveAspectRatio="xMidYMid meet">
<metadata>
Created by potrace 1.15, written by Peter Selinger 2001-2017
</metadata>
<g transform="translate(0.000000,340.000000) scale(0.100000,-0.100000)"
fill="#000000" stroke="none">
<path d="M1903 2708 c3 -13 13 -43 23 -68 24 -61 24 -210 1 -311 l-18 -77 -42
-11 c-24 -5 -85 -17 -137 -25 -51 -9 -98 -20 -103 -25 -26 -26 134 -68 202
-52 32 7 41 6 41 -5 0 -20 -83 -231 -120 -304 -18 -36 -44 -80 -58 -98 -21
-28 -24 -40 -19 -80 14 -116 45 -132 144 -72 71 43 161 74 253 89 30 5 56 8
58 7 1 -2 -1 -71 -5 -154 -5 -126 -9 -152 -22 -156 -9 -3 -117 -24 -240 -46
-238 -44 -292 -58 -298 -77 -5 -13 42 -30 121 -43 51 -8 78 -5 234 30 98 22
183 40 190 40 9 0 12 -39 12 -163 0 -145 10 -280 26 -359 5 -27 4 -28 -28 -22
-18 4 -114 32 -213 64 -99 32 -216 66 -260 75 -44 10 -85 19 -91 20 -6 2 -13
23 -16 48 -3 24 -23 80 -44 123 -37 76 -39 83 -38 174 1 114 15 151 86 226
l51 54 -31 28 c-29 27 -131 82 -152 82 -6 0 -27 -15 -47 -33 -60 -53 -95 -74
-173 -105 -41 -16 -76 -34 -78 -40 -6 -18 98 -24 188 -12 46 6 88 14 92 16 11
7 11 8 -12 -81 -24 -94 -26 -197 -4 -262 8 -26 33 -82 54 -124 l38 -77 -107 0
c-107 0 -277 -24 -295 -42 -14 -14 16 -43 74 -70 l50 -23 85 28 c76 25 94 27
170 22 106 -7 239 -51 453 -148 339 -154 439 -197 494 -215 54 -16 61 -17 145
0 102 20 247 73 388 142 154 75 146 80 -135 76 -231 -4 -464 8 -560 29 -47 10
-48 12 -40 35 20 53 33 167 39 359 l6 200 160 12 c354 27 375 29 393 47 23 23
8 45 -53 75 -72 37 -171 34 -353 -8 -78 -19 -144 -32 -145 -30 -1 2 0 71 3
154 l5 150 50 7 c28 4 110 12 183 16 80 5 137 13 144 20 17 17 0 42 -48 69
-62 36 -107 37 -217 9 -53 -14 -99 -26 -102 -26 -12 0 -3 73 15 132 15 49 17
65 7 75 -28 27 -112 63 -148 63 -36 0 -39 -2 -39 -27 0 -16 7 -50 15 -76 8
-26 17 -81 21 -121 l7 -73 -69 -16 c-169 -37 -235 -50 -239 -46 -3 4 161 448
169 456 5 5 324 53 421 63 119 13 162 25 175 50 14 26 -34 64 -100 80 -86 21
-179 9 -327 -42 -73 -25 -133 -42 -133 -38 0 17 93 238 120 287 l29 51 -45 42
c-60 55 -116 80 -183 80 -50 0 -53 -1 -48 -22z"/>
<path d="M1000 2270 c-96 -34 -227 -75 -290 -91 -63 -17 -121 -36 -128 -41
-37 -31 74 -64 179 -54 l68 6 10 -38 c16 -56 31 -214 31 -318 l0 -92 -37 -7
c-141 -25 -237 -71 -212 -101 9 -11 40 -14 130 -14 l119 0 0 -68 c0 -38 -3
-151 -7 -252 l-6 -183 -81 -37 c-86 -40 -192 -78 -289 -105 -55 -15 -57 -17
-51 -43 4 -15 18 -40 33 -55 32 -32 134 -77 162 -70 10 3 51 34 91 70 75 66
221 181 408 320 57 43 106 84 108 92 8 24 -55 5 -161 -49 -54 -28 -101 -50
-103 -50 -2 0 -4 105 -4 234 l0 233 78 28 c42 16 107 43 145 62 55 27 67 37
67 58 0 55 -65 56 -190 5 -40 -16 -74 -30 -76 -30 -8 0 -4 99 6 151 6 30 19
84 31 121 11 37 19 76 17 85 -2 10 -28 31 -58 47 l-54 29 106 28 c148 39 278
106 278 145 0 24 -43 44 -95 44 -35 0 -101 -18 -225 -60z"/>
<path d="M1308 2103 c-10 -3 -18 -6 -18 -8 0 -2 15 -30 34 -62 44 -75 108
-136 169 -163 47 -21 49 -21 62 -3 38 49 6 143 -64 190 -45 31 -144 55 -183
46z"/>
</g>
</svg>
