<?xml version="1.0" standalone="no"?>
<!DOCTYPE svg PUBLIC "-//W3C//DTD SVG 20010904//EN"
 "http://www.w3.org/TR/2001/REC-SVG-20010904/DTD/svg10.dtd">
<svg version="1.0" xmlns="http://www.w3.org/2000/svg"
 width="340.000000pt" height="340.000000pt" viewBox="0 0 340.000000 340.000000"
 preserveAspectRatio="xMidYMid meet">
<metadata>
Created by potrace 1.15, written by Peter Selinger 2001-2017
</metadata>
<g transform="translate(0.000000,340.000000) scale(0.100000,-0.100000)"
fill="#000000" stroke="none">
<path d="M1943 2794 c-19 -9 -16 -55 12 -150 35 -119 55 -288 58 -484 l2 -164
-129 -22 c-128 -21 -130 -21 -183 -3 -55 20 -108 25 -117 11 -3 -5 4 -26 14
-48 11 -22 25 -66 32 -99 18 -89 14 -406 -7 -545 -29 -197 -29 -212 -7 -263
25 -56 54 -68 87 -37 13 12 29 43 35 69 6 25 16 221 21 436 6 214 12 391 13
392 15 15 439 73 534 73 63 0 63 0 78 -35 25 -61 35 -239 32 -577 -3 -319 -3
-327 18 -355 12 -15 29 -29 38 -31 25 -5 70 47 97 113 21 53 24 75 23 190 0
72 -8 178 -17 236 -29 181 -21 259 35 382 l31 68 -34 35 c-84 88 -165 108
-299 76 -47 -11 -104 -24 -127 -27 l-43 -7 0 84 c0 110 24 332 50 456 11 55
20 112 20 125 0 28 -25 49 -95 81 -40 18 -148 31 -172 20z"/>
<path d="M2500 2605 c-6 -15 -10 -37 -10 -51 0 -66 -91 -193 -190 -266 -39
-28 -70 -55 -70 -61 0 -16 76 1 155 34 64 26 110 53 329 189 33 20 62 42 64
48 2 7 -11 27 -30 46 -33 32 -118 67 -201 81 -34 5 -38 3 -47 -20z"/>
<path d="M1240 2395 c-30 -7 -107 -29 -170 -48 -64 -20 -172 -47 -240 -62
-127 -26 -170 -46 -140 -65 20 -13 82 -30 160 -44 36 -6 70 -14 76 -18 20 -13
36 -132 38 -269 l1 -131 -120 -35 c-118 -34 -155 -53 -155 -79 0 -21 41 -26
166 -22 l117 3 -7 -134 c-3 -74 -6 -174 -6 -223 l0 -89 -56 -25 c-89 -39 -272
-100 -359 -119 -44 -9 -86 -23 -93 -30 -30 -28 94 -124 179 -140 51 -9 87 8
294 144 99 65 253 160 342 210 146 83 223 142 223 171 0 19 -37 10 -116 -26
-43 -20 -125 -56 -182 -80 l-105 -44 7 173 c10 232 10 236 55 254 102 40 183
86 194 110 10 22 8 27 -13 43 -13 10 -37 21 -52 24 -29 6 -123 -18 -133 -34
-3 -6 -11 -10 -17 -10 -8 0 -8 30 -2 103 15 183 6 232 -52 274 l-27 20 74 18
c181 44 309 103 309 144 0 49 -76 64 -190 36z"/>
<path d="M1593 2384 c-3 -9 1 -30 10 -47 22 -47 151 -182 188 -197 30 -13 33
-12 60 18 40 44 45 74 22 119 -24 47 -65 75 -145 102 -75 25 -126 27 -135 5z"/>
<path d="M1991 1729 c-26 -10 -26 -30 3 -129 29 -99 18 -397 -20 -545 -57
-221 -218 -385 -541 -549 -62 -32 -113 -62 -113 -67 0 -14 86 -11 154 7 82 21
214 84 289 138 77 54 199 181 251 261 76 113 119 285 131 520 4 72 14 145 26
184 26 87 25 115 -7 140 -25 20 -114 52 -138 50 -6 0 -22 -5 -35 -10z"/>
<path d="M2165 920 c-7 -12 186 -222 296 -323 154 -140 237 -179 259 -121 29
75 -2 178 -70 237 -46 39 -210 123 -335 170 -110 42 -142 50 -150 37z"/>
</g>
</svg>
