<?xml version="1.0" standalone="no"?>
<!DOCTYPE svg PUBLIC "-//W3C//DTD SVG 20010904//EN"
 "http://www.w3.org/TR/2001/REC-SVG-20010904/DTD/svg10.dtd">
<svg version="1.0" xmlns="http://www.w3.org/2000/svg"
 width="340.000000pt" height="340.000000pt" viewBox="0 0 340.000000 340.000000"
 preserveAspectRatio="xMidYMid meet">
<metadata>
Created by potrace 1.15, written by Peter Selinger 2001-2017
</metadata>
<g transform="translate(0.000000,340.000000) scale(0.100000,-0.100000)"
fill="#000000" stroke="none">
<path d="M2344 2660 c-17 -17 -138 -55 -250 -80 -129 -28 -500 -90 -537 -90
-17 0 -42 11 -59 25 -45 38 -58 30 -79 -46 -10 -37 -33 -102 -50 -145 -38 -93
-44 -179 -16 -232 25 -45 45 -51 72 -20 26 31 75 161 101 271 12 48 25 79 34
82 21 6 464 71 580 85 52 6 127 10 165 8 l70 -3 -1 -55 c-1 -36 -11 -76 -28
-114 -14 -33 -24 -62 -21 -65 4 -3 27 3 53 13 145 56 209 76 282 90 45 9 86
19 91 22 15 9 -31 81 -82 129 -50 47 -115 83 -194 108 -75 24 -119 30 -131 17z"/>
<path d="M955 2431 c-104 -27 -223 -54 -262 -61 -46 -8 -73 -18 -73 -26 0 -34
113 -84 191 -84 25 0 39 -5 45 -17 4 -10 9 -111 12 -225 l4 -208 -28 -11 c-26
-10 -161 -44 -221 -55 -34 -6 -29 -39 7 -54 21 -9 64 -11 135 -8 l105 5 0
-228 c0 -212 -1 -229 -18 -238 -46 -25 -298 -102 -378 -116 -49 -8 -92 -19
-97 -24 -17 -17 7 -64 62 -121 31 -32 68 -62 82 -65 21 -5 57 14 195 101 93
59 259 162 369 229 251 154 267 176 81 108 -55 -20 -121 -42 -145 -49 l-43
-14 7 188 c4 103 10 205 14 227 6 37 9 41 51 51 72 18 182 67 194 87 26 44
-93 64 -184 32 -24 -8 -45 -13 -48 -11 -6 6 15 206 31 298 13 79 13 80 -69
113 -63 26 -64 26 36 50 141 35 275 87 284 111 11 29 -27 55 -89 60 -48 3 -97
-5 -250 -45z"/>
<path d="M2025 2290 c-8 -12 194 -223 259 -271 93 -69 158 -12 106 92 -34 66
-164 146 -275 169 -33 7 -65 14 -71 17 -7 2 -15 -1 -19 -7z"/>
<path d="M1685 2268 c-2 -7 -6 -31 -10 -52 -9 -55 -55 -143 -138 -264 -39 -56
-68 -105 -65 -108 20 -19 167 98 327 260 101 102 104 106 87 124 -33 37 -192
68 -201 40z"/>
<path d="M1803 1924 c-3 -9 4 -33 16 -54 23 -41 54 -177 42 -185 -4 -2 -52
-11 -107 -20 -177 -28 -382 -68 -395 -75 -25 -16 1 -39 57 -50 68 -14 170 -7
305 20 51 11 94 18 96 16 2 -1 -21 -41 -50 -88 -167 -266 -392 -487 -634 -623
-140 -79 -128 -98 29 -49 109 34 244 104 339 176 95 72 228 210 311 325 60 82
63 85 66 58 6 -46 -17 -511 -29 -590 -5 -38 -12 -109 -16 -156 -5 -79 -3 -91
22 -148 30 -66 76 -114 100 -105 34 13 38 79 33 572 -3 265 -2 482 1 481 3 0
58 -61 121 -136 162 -191 364 -399 419 -431 42 -25 54 -27 146 -26 95 1 342
36 393 55 13 5 21 13 18 18 -4 5 -84 34 -179 65 -305 99 -551 236 -834 464
l-93 74 0 49 c0 31 5 51 13 54 6 3 104 18 217 35 313 46 389 73 332 120 -40
33 -133 36 -242 6 -129 -34 -300 -69 -306 -63 -3 3 0 40 7 83 14 91 13 93 -89
124 -77 24 -101 25 -109 4z"/>
</g>
</svg>
