<?xml version="1.0" standalone="no"?>
<!DOCTYPE svg PUBLIC "-//W3C//DTD SVG 20010904//EN"
 "http://www.w3.org/TR/2001/REC-SVG-20010904/DTD/svg10.dtd">
<svg version="1.0" xmlns="http://www.w3.org/2000/svg"
 width="340.000000pt" height="340.000000pt" viewBox="0 0 340.000000 340.000000"
 preserveAspectRatio="xMidYMid meet">
<metadata>
Created by potrace 1.15, written by Peter Selinger 2001-2017
</metadata>
<g transform="translate(0.000000,340.000000) scale(0.100000,-0.100000)"
fill="#000000" stroke="none">
<path d="M2105 2896 c-18 -13 -18 -15 7 -72 52 -117 81 -286 76 -443 l-3 -95
-200 -47 c-110 -26 -203 -44 -206 -41 -3 4 -2 54 3 112 12 141 5 165 -68 213
-31 20 -74 42 -96 48 -47 12 -98 3 -98 -17 0 -8 18 -52 40 -97 38 -80 62 -165
73 -255 5 -37 3 -43 -16 -46 -71 -13 -221 -46 -225 -51 -3 -3 -3 -7 0 -10 11
-11 146 -35 199 -35 l56 0 6 -407 c4 -268 3 -409 -4 -413 -12 -8 -169 -37
-353 -64 -77 -12 -141 -27 -143 -33 -5 -13 81 -54 127 -60 20 -3 134 15 260
41 448 89 881 135 1182 123 174 -6 263 3 292 32 l20 21 -20 27 c-33 43 -150
103 -204 103 -70 0 -170 -16 -353 -56 -92 -21 -170 -34 -173 -31 -9 8 25 850
34 858 4 3 43 12 87 19 235 36 313 84 233 142 -44 31 -105 28 -223 -10 -49
-16 -92 -28 -94 -26 -9 8 33 211 64 314 19 62 35 121 35 131 0 48 -159 139
-244 139 -29 0 -61 -6 -71 -14z m71 -1018 c-3 -167 -9 -361 -12 -433 l-6 -130
-172 -29 c-94 -16 -180 -29 -191 -30 -19 -1 -20 5 -20 134 l0 135 105 6 c159
10 210 28 210 74 0 50 -66 58 -177 21 -39 -14 -87 -28 -107 -31 l-36 -7 0 104
0 105 109 17 c188 29 247 61 199 106 -29 27 -65 25 -167 -9 -47 -16 -97 -31
-111 -33 l-25 -3 0 110 0 110 185 41 c102 23 194 42 204 43 18 1 19 -9 12
-301z"/>
<path d="M1100 2383 c-8 -3 -72 -29 -142 -58 -69 -30 -171 -67 -226 -84 -96
-30 -130 -50 -118 -69 11 -19 103 -33 191 -31 l89 3 12 -41 c17 -59 34 -204
34 -294 l0 -77 -69 -25 c-38 -14 -97 -32 -131 -39 -72 -14 -104 -45 -79 -74
11 -14 28 -16 109 -10 52 3 110 9 128 12 l32 6 0 -196 0 -196 -47 -30 c-72
-46 -279 -145 -356 -170 -37 -12 -74 -28 -81 -36 -34 -33 19 -86 121 -118 64
-21 91 -12 178 61 98 80 251 193 401 296 150 102 233 179 201 185 -10 2 -35
-5 -55 -16 -20 -11 -80 -43 -132 -71 -52 -27 -98 -51 -103 -51 -4 0 -6 84 -5
186 l3 186 88 38 c121 52 167 84 167 115 0 57 -89 64 -185 14 -35 -18 -67 -30
-71 -27 -3 4 -1 72 6 152 11 152 5 211 -25 236 -8 7 -15 16 -15 20 0 4 42 17
93 29 111 26 194 70 203 108 5 19 2 30 -11 39 -34 25 -163 42 -205 27z"/>
<path d="M1639 1058 c-1 -2 -3 -24 -4 -49 -3 -57 -40 -131 -111 -226 -78 -105
-161 -181 -269 -248 -112 -69 -141 -93 -127 -107 14 -14 148 25 230 66 105 54
204 129 322 244 60 59 125 122 145 140 19 18 35 41 35 52 0 26 -62 94 -104
114 -28 13 -113 23 -117 14z"/>
<path d="M2157 984 c-16 -16 -5 -42 46 -105 28 -37 94 -120 145 -186 120 -156
233 -265 270 -261 22 2 30 12 45 53 38 109 4 238 -86 329 -69 69 -390 199
-420 170z"/>
</g>
</svg>
