<?xml version="1.0" standalone="no"?>
<!DOCTYPE svg PUBLIC "-//W3C//DTD SVG 20010904//EN"
 "http://www.w3.org/TR/2001/REC-SVG-20010904/DTD/svg10.dtd">
<svg version="1.0" xmlns="http://www.w3.org/2000/svg"
 width="340.000000pt" height="340.000000pt" viewBox="0 0 340.000000 340.000000"
 preserveAspectRatio="xMidYMid meet">
<metadata>
Created by potrace 1.15, written by Peter Selinger 2001-2017
</metadata>
<g transform="translate(0.000000,340.000000) scale(0.100000,-0.100000)"
fill="#000000" stroke="none">
<path d="M1883 2739 c-42 -16 -36 -29 94 -190 55 -69 117 -119 146 -119 24 0
57 58 57 100 0 38 -28 106 -53 132 -19 18 -148 73 -192 81 -16 3 -40 1 -52 -4z"/>
<path d="M1172 2474 c-29 -7 -121 -40 -205 -73 -83 -32 -187 -69 -229 -81 -75
-22 -109 -43 -94 -57 4 -4 65 -12 136 -17 l129 -10 20 -75 c27 -103 54 -371
37 -371 -20 0 -255 -54 -279 -64 l-32 -14 30 -12 c17 -7 88 -15 159 -18 l129
-4 -6 -127 c-4 -69 -7 -171 -7 -227 l0 -101 -82 -38 c-120 -54 -201 -84 -303
-110 -63 -16 -91 -28 -93 -39 -5 -22 47 -69 125 -113 63 -35 66 -35 96 -20 18
8 64 40 102 71 163 129 304 234 355 263 30 18 92 62 138 98 76 60 97 85 72 85
-24 0 -180 -64 -233 -95 -33 -20 -60 -34 -61 -33 -4 9 10 397 14 400 3 2 45
16 94 32 80 26 136 60 136 84 0 4 -9 18 -20 30 -24 26 -74 29 -123 9 -18 -8
-44 -17 -59 -21 l-28 -6 0 57 c0 31 5 105 12 163 14 127 7 169 -32 207 l-30
30 83 21 c156 39 257 89 257 127 0 7 -14 25 -31 39 -36 30 -91 34 -177 10z"/>
<path d="M2450 2379 c-106 -47 -346 -104 -615 -144 -211 -32 -212 -32 -228 8
-17 39 -51 71 -69 64 -7 -2 -24 -38 -36 -78 -13 -41 -44 -115 -68 -166 -46
-97 -56 -156 -32 -208 8 -19 19 -25 41 -25 68 0 127 83 162 228 20 83 7 75
165 92 58 6 211 29 340 51 310 53 384 63 404 56 19 -8 22 -61 5 -104 -25 -61
-37 -110 -30 -121 5 -8 39 1 111 29 58 22 144 51 192 64 48 13 92 26 98 30 28
17 -92 145 -177 188 -54 28 -157 57 -194 56 -13 0 -44 -9 -69 -20z"/>
<path d="M2080 1859 c-74 -21 -187 -51 -250 -65 -63 -14 -121 -30 -127 -36
-46 -38 31 -63 167 -55 110 7 400 76 440 106 41 30 38 56 -10 75 -55 22 -65
21 -220 -25z"/>
<path d="M2400 1550 c-58 -11 -195 -41 -305 -69 -232 -57 -464 -107 -550 -116
-78 -9 -127 -24 -122 -38 1 -7 21 -21 43 -32 63 -32 198 -27 351 13 68 18 127
32 131 32 23 0 56 -317 50 -492 -3 -104 -5 -121 -22 -134 -23 -16 -101 -18
-177 -4 -81 16 -83 1 -8 -77 36 -38 84 -95 106 -128 22 -33 52 -70 65 -82 23
-22 25 -22 58 -5 46 23 92 86 116 158 20 63 21 76 12 479 -5 224 -11 247 -73
285 -20 12 -35 24 -33 26 2 2 107 12 233 23 420 37 445 40 475 56 16 9 30 21
30 29 0 17 -36 49 -85 75 -51 27 -148 27 -295 1z"/>
<path d="M2344 1149 c-8 -14 4 -30 229 -308 62 -76 131 -131 164 -131 18 0 28
9 39 35 32 78 10 155 -74 246 -55 60 -125 102 -240 143 -80 28 -107 32 -118
15z"/>
<path d="M1582 1128 c-5 -7 -21 -35 -35 -63 -14 -27 -57 -95 -96 -149 -81
-114 -96 -150 -87 -214 7 -53 20 -72 51 -72 88 0 190 194 210 401 4 37 4 76 0
88 -7 23 -27 28 -43 9z"/>
</g>
</svg>
