<?xml version="1.0" standalone="no"?>
<!DOCTYPE svg PUBLIC "-//W3C//DTD SVG 20010904//EN"
 "http://www.w3.org/TR/2001/REC-SVG-20010904/DTD/svg10.dtd">
<svg version="1.0" xmlns="http://www.w3.org/2000/svg"
 width="340.000000pt" height="340.000000pt" viewBox="0 0 340.000000 340.000000"
 preserveAspectRatio="xMidYMid meet">
<metadata>
Created by potrace 1.15, written by Peter Selinger 2001-2017
</metadata>
<g transform="translate(0.000000,340.000000) scale(0.100000,-0.100000)"
fill="#000000" stroke="none">
<path d="M1596 2684 c-3 -8 6 -41 22 -72 26 -55 27 -62 26 -212 -1 -85 -8
-191 -15 -235 l-14 -80 -120 -33 c-125 -35 -170 -61 -147 -84 9 -9 49 -13 128
-13 62 0 114 -4 114 -8 0 -21 -73 -333 -79 -340 -11 -11 -86 -13 -151 -4 -76
11 -85 2 -60 -56 21 -46 41 -170 59 -370 10 -103 34 -186 59 -201 16 -10 32
27 43 97 6 34 11 63 13 64 1 2 68 12 147 23 268 37 286 45 209 96 -22 15 -40
31 -40 36 0 30 76 148 139 218 23 24 41 50 41 58 0 21 -51 65 -116 99 -102 53
-98 53 -201 -23 -12 -9 -26 -14 -31 -12 -13 4 82 348 99 359 7 4 70 26 139 49
176 58 188 69 141 124 -14 16 -25 17 -79 12 -35 -4 -87 -15 -115 -26 -28 -11
-52 -19 -53 -17 -5 6 40 197 71 300 44 147 44 159 0 194 -72 57 -215 93 -229
57z m132 -1159 c5 -70 -41 -207 -79 -239 -28 -24 -178 -80 -187 -71 -8 7 -23
224 -20 275 l3 45 95 22 c52 12 115 21 140 20 l45 -2 3 -50z"/>
<path d="M1021 2419 c-58 -21 -152 -53 -210 -70 -58 -17 -112 -37 -120 -44
-35 -34 22 -69 131 -80 37 -4 72 -13 78 -20 19 -23 38 -147 45 -291 9 -169 19
-156 -154 -205 -94 -27 -115 -37 -124 -57 -24 -51 46 -64 198 -37 44 8 81 15
83 15 1 0 2 -95 2 -211 l0 -210 -152 -74 c-168 -81 -288 -125 -342 -125 -67 0
-55 -66 22 -113 61 -38 104 -51 157 -48 18 1 348 248 558 417 110 88 83 112
-49 44 -43 -22 -79 -40 -81 -40 -2 0 -3 90 -3 200 l0 199 43 11 c112 28 187
73 187 110 0 46 -76 62 -166 35 -27 -8 -50 -15 -51 -15 -10 0 0 138 17 236 23
132 19 150 -39 174 -17 7 -31 16 -31 20 0 5 52 25 116 46 140 46 204 83 204
118 0 42 -34 56 -130 56 -74 -1 -98 -6 -189 -41z"/>
<path d="M2515 2395 c-43 -38 -136 -83 -205 -101 -56 -14 -64 -14 -133 5 -85
24 -117 26 -117 8 0 -8 8 -38 19 -68 37 -109 46 -195 45 -439 0 -191 -5 -258
-22 -360 -63 -373 -195 -622 -438 -830 -88 -76 -122 -115 -110 -127 9 -9 69
16 140 57 235 137 393 360 487 684 l32 114 83 -6 c59 -3 102 0 155 13 151 36
174 56 117 98 -42 32 -110 32 -212 3 -48 -14 -99 -26 -111 -26 -21 0 -23 4
-19 38 3 20 11 91 17 157 l12 120 111 17 c173 27 251 65 212 104 -28 28 -95
27 -210 -4 l-108 -29 -5 31 c-3 17 -5 107 -3 200 l3 170 140 33 c77 18 159 35
181 39 l42 6 6 -39 c34 -210 35 -1257 0 -1466 -9 -58 -27 -61 -140 -22 -54 19
-105 35 -111 35 -25 0 -12 -30 33 -81 25 -28 66 -83 91 -122 98 -152 118 -180
141 -195 21 -14 25 -13 50 5 73 54 112 165 119 338 3 66 -2 336 -10 600 -11
332 -13 527 -7 633 9 159 30 259 55 269 19 7 19 27 -1 69 -25 52 -102 85 -212
91 -82 4 -89 2 -117 -22z"/>
</g>
</svg>
