<?xml version="1.0" standalone="no"?>
<!DOCTYPE svg PUBLIC "-//W3C//DTD SVG 20010904//EN"
 "http://www.w3.org/TR/2001/REC-SVG-20010904/DTD/svg10.dtd">
<svg version="1.0" xmlns="http://www.w3.org/2000/svg"
 width="340.000000pt" height="340.000000pt" viewBox="0 0 340.000000 340.000000"
 preserveAspectRatio="xMidYMid meet">
<metadata>
Created by potrace 1.15, written by Peter Selinger 2001-2017
</metadata>
<g transform="translate(0.000000,340.000000) scale(0.100000,-0.100000)"
fill="#000000" stroke="none">
<path d="M1904 2819 c-3 -6 -14 -57 -24 -113 -20 -118 -63 -233 -124 -331 -48
-78 -49 -79 -150 -49 -63 18 -125 18 -132 0 -3 -7 4 -40 15 -72 44 -132 63
-323 65 -664 2 -254 3 -267 25 -317 16 -36 29 -53 42 -53 20 0 49 36 49 62 0
10 10 20 23 23 88 20 561 85 623 85 17 0 23 -8 29 -37 10 -53 33 -93 54 -93
16 0 49 28 64 56 18 32 38 176 52 375 24 343 54 515 101 585 l25 36 -26 43
c-30 52 -70 82 -132 101 -42 13 -51 12 -100 -6 -105 -39 -533 -135 -570 -128
-26 5 229 259 296 294 30 16 56 34 59 41 7 23 -86 109 -146 136 -74 32 -109
40 -118 26z m496 -554 c21 -57 18 -376 -4 -570 -26 -221 -19 -206 -96 -211
-36 -3 -188 -25 -338 -50 -150 -26 -276 -43 -280 -39 -6 6 -31 825 -26 833 5
7 234 25 240 19 4 -3 1 -36 -6 -72 -14 -74 -63 -183 -121 -267 -38 -56 -50
-98 -28 -98 14 0 105 87 159 154 25 30 49 55 54 56 5 0 18 -8 28 -17 18 -16
22 -15 80 5 97 35 101 9 15 -110 l-42 -58 -57 6 c-32 4 -58 3 -58 -1 0 -4 12
-29 27 -55 l27 -48 -40 -48 c-21 -27 -63 -73 -91 -104 -29 -30 -53 -59 -53
-64 0 -12 50 2 90 27 19 12 61 46 93 76 l58 55 42 -42 c46 -45 75 -52 102 -26
20 20 15 48 -21 117 l-25 49 38 45 c75 89 153 197 153 210 0 29 -21 51 -69 72
l-49 21 -57 -30 c-57 -30 -145 -42 -145 -20 0 6 9 29 21 52 23 45 28 103 10
121 -19 19 -12 27 27 28 20 0 71 7 112 14 41 7 106 13 145 12 l70 -2 15 -40z"/>
<path d="M1185 2395 c-38 -7 -110 -24 -160 -38 -106 -30 -206 -52 -293 -66
-69 -11 -92 -24 -92 -51 0 -26 23 -32 140 -39 l105 -6 12 -55 c7 -30 17 -136
23 -235 11 -211 19 -193 -110 -231 -156 -45 -165 -49 -165 -63 0 -26 75 -45
183 -45 l102 0 0 -236 0 -237 -27 -13 c-75 -34 -218 -84 -322 -111 -158 -42
-177 -61 -119 -118 33 -33 112 -67 188 -81 58 -11 102 9 190 88 36 32 159 122
275 200 197 132 325 232 325 253 0 22 -50 4 -206 -76 -92 -47 -168 -85 -170
-85 -3 0 -3 102 -2 226 l3 226 60 22 c33 12 89 37 125 56 75 41 87 65 44 99
-34 27 -87 27 -156 1 -29 -11 -59 -20 -67 -20 -14 0 -15 -6 11 213 13 121 4
184 -34 224 l-20 22 43 11 c24 6 87 24 139 40 148 46 190 81 138 114 -35 21
-86 24 -163 11z"/>
<path d="M2561 1281 c-24 -16 -1 -52 95 -147 105 -106 145 -134 191 -134 39 0
53 21 53 82 0 80 -45 125 -171 172 -75 27 -148 40 -168 27z"/>
<path d="M1954 1187 c-3 -9 -1 -24 4 -33 24 -42 179 -213 204 -224 34 -15 62
-1 84 42 22 43 6 95 -45 141 -65 58 -233 109 -247 74z"/>
<path d="M1430 1018 c-18 -35 -52 -90 -75 -123 -97 -138 -117 -215 -69 -260
33 -30 58 -31 102 -5 61 37 112 190 112 337 0 134 -19 148 -70 51z"/>
<path d="M1670 1003 c1 -42 34 -153 65 -218 74 -152 192 -255 354 -308 228
-76 604 -52 733 46 70 54 63 76 -47 150 -93 62 -176 139 -241 221 -78 100 -84
72 -15 -65 55 -109 64 -161 34 -186 -110 -88 -329 -82 -523 14 -125 61 -237
170 -295 286 -35 72 -65 99 -65 60z"/>
</g>
</svg>
