<?xml version="1.0" standalone="no"?>
<!DOCTYPE svg PUBLIC "-//W3C//DTD SVG 20010904//EN"
 "http://www.w3.org/TR/2001/REC-SVG-20010904/DTD/svg10.dtd">
<svg version="1.0" xmlns="http://www.w3.org/2000/svg"
 width="340.000000pt" height="340.000000pt" viewBox="0 0 340.000000 340.000000"
 preserveAspectRatio="xMidYMid meet">
<metadata>
Created by potrace 1.15, written by Peter Selinger 2001-2017
</metadata>
<g transform="translate(0.000000,340.000000) scale(0.100000,-0.100000)"
fill="#000000" stroke="none">
<path d="M2110 2585 c-69 -24 -193 -57 -277 -74 -168 -34 -547 -91 -604 -91
-20 0 -67 11 -103 25 -38 14 -88 25 -116 25 -61 0 -63 -8 -19 -111 70 -163 74
-209 60 -555 -27 -639 -73 -774 -408 -1211 -65 -83 -68 -99 -15 -78 56 24 136
81 219 159 137 128 211 257 263 460 51 201 88 566 91 901 1 82 4 184 8 225 l6
75 190 27 c213 30 204 32 226 -42 11 -39 25 -350 16 -350 -32 0 -259 -56 -289
-71 -81 -41 -36 -54 154 -45 l138 6 0 -179 c0 -203 9 -184 -90 -196 -30 -4
-108 -18 -172 -31 -64 -13 -119 -24 -122 -24 -3 0 -6 -4 -6 -9 0 -26 199 -43
316 -28 l62 8 -6 -344 c-6 -418 0 -464 48 -384 48 78 78 265 88 557 l7 184
101 17 c181 30 314 73 314 101 -1 64 -123 69 -325 13 -64 -17 -87 -20 -91 -11
-2 6 -3 88 -2 181 l3 169 94 13 c217 29 316 76 266 127 -27 27 -216 16 -327
-19 -16 -6 -18 0 -18 62 0 37 7 99 15 138 26 122 21 131 -91 169 l-69 23 55
11 c144 30 316 54 426 59 113 5 123 4 142 -15 92 -92 164 -1377 91 -1623 -7
-21 -21 -46 -31 -56 -18 -16 -23 -16 -91 1 -40 10 -93 27 -119 38 -71 30 -79
19 -27 -38 79 -85 124 -149 172 -241 26 -50 53 -96 62 -103 38 -32 128 37 174
134 45 94 64 202 57 321 -17 270 -37 741 -42 1015 l-7 305 32 90 c62 174 61
153 13 196 -57 50 -221 131 -275 135 -30 2 -77 -9 -167 -41z"/>
</g>
</svg>
