<?xml version="1.0" standalone="no"?>
<!DOCTYPE svg PUBLIC "-//W3C//DTD SVG 20010904//EN"
 "http://www.w3.org/TR/2001/REC-SVG-20010904/DTD/svg10.dtd">
<svg version="1.0" xmlns="http://www.w3.org/2000/svg"
 width="340.000000pt" height="340.000000pt" viewBox="0 0 340.000000 340.000000"
 preserveAspectRatio="xMidYMid meet">
<metadata>
Created by potrace 1.15, written by Peter Selinger 2001-2017
</metadata>
<g transform="translate(0.000000,340.000000) scale(0.100000,-0.100000)"
fill="#000000" stroke="none">
<path d="M2340 2690 c-92 -24 -1188 -170 -1276 -170 -22 0 -80 9 -130 20 -103
23 -214 27 -214 8 0 -7 20 -44 45 -81 99 -153 168 -385 224 -753 22 -141 49
-229 85 -271 30 -34 50 -26 68 29 l15 43 174 17 c96 9 195 18 221 21 l47 6 3
-592 c3 -451 6 -599 16 -621 17 -38 27 -27 58 64 53 158 73 357 81 828 3 188
9 342 12 342 3 0 98 9 211 20 287 28 259 32 253 -42 -3 -39 0 -79 9 -103 11
-35 17 -40 43 -40 23 0 37 10 67 50 69 90 96 161 153 391 93 378 125 460 220
562 30 33 55 64 55 70 0 6 -24 35 -53 65 -72 74 -207 140 -292 144 -33 1 -76
-2 -95 -7z m44 -164 l29 -18 -6 -107 c-9 -179 -114 -655 -149 -677 -14 -9
-487 -62 -493 -55 -9 8 -5 350 4 355 5 3 58 15 117 26 261 50 338 88 272 134
-32 23 -161 20 -277 -4 -52 -11 -97 -18 -99 -15 -6 5 15 206 24 242 4 16 -5
33 -35 66 l-42 45 63 7 c146 18 242 23 398 22 143 -2 170 -5 194 -21z m-815
-68 c18 -56 31 -160 31 -245 0 -81 -1 -83 -24 -83 -33 0 -326 -59 -344 -69
-13 -7 -11 -11 7 -20 62 -33 227 -50 319 -32 l42 8 0 -188 c0 -127 -3 -189
-11 -189 -6 0 -107 -9 -225 -21 -119 -12 -217 -19 -219 -17 -2 2 -14 103 -25
223 -12 121 -32 306 -44 410 -13 105 -21 192 -19 194 2 4 277 37 490 60 6 0
16 -14 22 -31z"/>
</g>
</svg>
