<?xml version="1.0" standalone="no"?>
<!DOCTYPE svg PUBLIC "-//W3C//DTD SVG 20010904//EN"
 "http://www.w3.org/TR/2001/REC-SVG-20010904/DTD/svg10.dtd">
<svg version="1.0" xmlns="http://www.w3.org/2000/svg"
 width="340.000000pt" height="340.000000pt" viewBox="0 0 340.000000 340.000000"
 preserveAspectRatio="xMidYMid meet">
<metadata>
Created by potrace 1.15, written by Peter Selinger 2001-2017
</metadata>
<g transform="translate(0.000000,340.000000) scale(0.100000,-0.100000)"
fill="#000000" stroke="none">
<path d="M1847 2873 c-10 -3 -37 -25 -59 -50 -81 -87 -249 -167 -574 -273
-103 -33 -195 -66 -203 -71 -31 -20 200 -1 314 26 61 14 122 28 137 32 25 5
28 2 42 -48 33 -113 50 -446 24 -453 -44 -12 -388 -73 -573 -101 -260 -41
-268 -42 -262 -58 6 -19 66 -56 111 -68 46 -13 50 -12 375 64 107 26 197 44
199 42 8 -7 -72 -96 -184 -206 -189 -183 -382 -314 -671 -454 -147 -72 -191
-104 -120 -90 73 15 328 106 417 148 251 120 491 307 658 510 l57 70 7 -39 c4
-21 5 -122 2 -224 l-6 -185 31 -34 c26 -27 34 -31 46 -21 28 23 37 85 42 293
3 114 8 207 10 207 3 0 35 -26 71 -59 207 -182 455 -360 597 -428 77 -37 84
-38 185 -38 81 1 129 7 210 28 138 36 258 72 266 80 13 12 -45 26 -223 52
-368 55 -517 99 -763 227 -106 55 -332 197 -344 217 -8 12 350 34 594 35 230
2 255 7 266 51 8 31 -7 50 -60 78 -60 32 -165 27 -451 -21 -132 -22 -269 -43
-304 -47 l-64 -7 6 83 c3 46 16 128 27 182 32 145 19 183 -79 225 l-45 18 90
18 c49 10 125 27 169 38 44 11 125 28 180 39 135 26 139 31 70 106 -70 78
-160 121 -218 106z"/>
<path d="M2012 2528 c-7 -7 -12 -26 -12 -44 0 -47 -68 -141 -166 -231 -141
-128 -117 -126 166 18 121 62 229 120 240 131 25 24 26 60 1 82 -44 40 -202
71 -229 44z"/>
<path d="M1070 2302 c0 -27 70 -139 121 -194 44 -47 46 -48 78 -37 71 25 59
104 -26 179 -66 57 -173 90 -173 52z"/>
<path d="M1808 1379 c-345 -64 -671 -107 -766 -102 -92 6 -132 -1 -132 -21 0
-8 11 -36 24 -63 54 -106 92 -284 119 -559 11 -100 19 -143 38 -180 13 -26 29
-50 36 -52 16 -5 39 43 48 98 11 78 13 80 53 80 20 0 123 11 227 24 237 30
380 40 440 32 58 -9 75 -35 105 -157 27 -107 38 -124 73 -115 100 25 170 184
203 461 17 139 50 257 90 317 13 21 24 46 24 57 0 30 -129 144 -210 185 -91
45 -105 45 -372 -5z m256 -69 c47 -18 60 -61 64 -221 5 -190 -13 -314 -58
-387 l-21 -33 -29 24 c-49 42 -92 50 -212 43 -60 -4 -116 -10 -124 -13 -12 -4
-14 14 -14 106 0 110 0 111 24 111 48 0 201 31 243 50 57 25 59 58 7 90 -42
26 -97 24 -206 -9 l-68 -20 0 113 0 113 153 20 c181 24 208 26 241 13z m-534
-169 l0 -109 -95 -17 c-103 -18 -150 -43 -127 -67 8 -8 49 -14 117 -16 l105
-4 0 -107 0 -107 -172 -27 c-94 -15 -174 -25 -177 -22 -8 9 -38 519 -31 527 6
8 299 55 353 57 l27 1 0 -109z"/>
</g>
</svg>
