<?xml version="1.0" standalone="no"?>
<!DOCTYPE svg PUBLIC "-//W3C//DTD SVG 20010904//EN"
 "http://www.w3.org/TR/2001/REC-SVG-20010904/DTD/svg10.dtd">
<svg version="1.0" xmlns="http://www.w3.org/2000/svg"
 width="340.000000pt" height="340.000000pt" viewBox="0 0 340.000000 340.000000"
 preserveAspectRatio="xMidYMid meet">
<metadata>
Created by potrace 1.15, written by Peter Selinger 2001-2017
</metadata>
<g transform="translate(0.000000,340.000000) scale(0.100000,-0.100000)"
fill="#000000" stroke="none">
<path d="M2175 2623 c-112 -41 -291 -92 -369 -104 -90 -15 -109 -30 -70 -56
88 -57 647 43 677 122 26 66 -106 87 -238 38z"/>
<path d="M1183 2498 c-70 -73 -177 -119 -331 -142 -51 -7 -95 -16 -99 -19 -8
-9 58 -46 96 -53 24 -5 66 4 150 30 64 20 138 39 165 43 l49 6 -5 -79 c-4 -43
-17 -110 -29 -149 -23 -66 -27 -72 -76 -98 -80 -43 -176 -63 -229 -49 -92 25
-119 10 -89 -50 42 -84 28 -186 -36 -263 -33 -40 -39 -54 -39 -95 0 -32 5 -50
14 -53 8 -3 61 18 118 47 131 68 192 88 260 84 52 -3 53 -4 68 -43 23 -64 21
-553 -3 -699 -21 -120 -49 -221 -70 -250 -16 -21 -59 -25 -159 -12 -74 9 -77
-7 -13 -61 25 -21 66 -64 91 -95 50 -64 78 -77 120 -55 132 69 196 359 178
802 -5 105 -7 203 -5 220 4 37 32 94 60 119 30 28 26 44 -22 91 -32 30 -63 48
-114 64 l-70 23 -60 -31 c-55 -27 -212 -75 -221 -66 -2 1 6 34 17 73 12 38 21
88 21 111 0 49 -2 48 153 86 56 14 137 37 180 51 90 30 97 46 29 79 -23 11
-42 24 -42 29 0 24 117 189 168 239 l59 56 -27 33 c-36 44 -117 87 -180 97
-46 7 -51 6 -77 -21z"/>
<path d="M2260 2344 c-69 -19 -215 -52 -325 -74 -110 -22 -221 -44 -246 -50
-32 -8 -54 -8 -73 0 -15 5 -43 10 -62 10 -44 0 -45 -25 -5 -83 29 -43 76 -145
125 -272 62 -160 100 -211 129 -170 13 17 169 52 356 80 l104 16 38 -27 c70
-48 95 -26 205 191 32 64 82 147 110 185 50 66 51 69 37 97 -23 46 -62 80
-116 103 -80 35 -135 34 -277 -6z m160 -69 c28 -34 -25 -283 -79 -371 -20 -33
-47 -41 -204 -60 l-58 -6 3 83 3 83 75 16 c90 19 120 34 120 60 0 36 -64 37
-177 4 -22 -6 -23 -4 -23 69 0 42 5 79 10 82 6 3 52 17 103 30 109 28 208 33
227 10z m-466 -73 c2 -4 7 -39 11 -78 l7 -71 -58 -7 c-74 -8 -134 -24 -134
-35 0 -18 68 -35 137 -35 l73 0 2 -63 c1 -35 2 -71 2 -80 1 -14 -18 -22 -99
-39 -55 -12 -103 -20 -106 -18 -7 4 -44 119 -83 260 -14 50 -28 98 -32 107 -4
12 3 17 33 22 21 4 76 15 123 25 98 21 117 23 124 12z"/>
<path d="M2600 1710 c-36 -16 -537 -115 -730 -144 -91 -14 -230 -33 -310 -41
-177 -19 -190 -22 -190 -40 0 -19 54 -53 98 -61 21 -4 93 6 200 29 436 93 761
128 1175 127 22 0 27 4 27 25 0 38 -25 79 -57 94 -36 17 -181 24 -213 11z"/>
<path d="M781 1483 c-5 -11 -5 -40 1 -75 6 -35 7 -73 1 -95 -8 -36 -11 -38
-93 -64 -52 -16 -86 -33 -88 -42 -6 -29 38 -47 115 -47 l73 0 0 -95 0 -94
-126 -41 c-70 -22 -133 -40 -140 -40 -24 0 -15 -37 15 -63 16 -13 50 -29 76
-36 47 -12 49 -11 119 30 214 127 396 251 396 270 0 17 -33 9 -113 -30 -45
-22 -94 -43 -109 -47 l-28 -6 0 93 0 94 69 28 c78 31 121 66 121 97 0 40 -67
42 -156 5 -39 -16 -39 -16 -25 68 8 49 8 49 -32 78 -46 33 -63 36 -76 12z"/>
<path d="M2320 1429 c-87 -37 -586 -129 -701 -129 -67 0 -80 -3 -89 -19 -8
-16 -3 -28 29 -64 31 -37 47 -71 85 -193 59 -186 74 -225 93 -246 19 -22 37
-23 52 -4 17 20 192 57 365 76 81 10 91 9 110 -8 39 -35 54 -34 97 5 30 27 57
70 100 163 99 209 114 234 145 250 16 8 31 16 33 17 2 1 -8 22 -23 47 -21 35
-40 51 -89 75 -68 34 -165 48 -207 30z m80 -99 c7 -13 7 -34 0 -67 -11 -53
-109 -343 -120 -356 -3 -4 -24 0 -45 9 -38 16 -88 15 -142 -2 -23 -6 -23 -5
-23 74 0 45 4 84 10 87 5 3 37 11 71 16 72 11 119 33 119 55 0 26 -46 35 -121
23 -39 -6 -73 -9 -75 -6 -3 3 -2 39 2 81 l7 76 36 1 c20 1 65 7 101 14 106 20
167 19 180 -5z m-437 -100 c13 -93 14 -92 -88 -110 -102 -17 -121 -36 -65 -65
28 -14 42 -15 97 -5 36 6 67 10 68 8 2 -2 5 -41 6 -88 l4 -85 -94 -16 c-66
-12 -94 -13 -96 -5 -16 46 -96 369 -92 372 7 8 212 53 232 51 16 -2 21 -12 28
-57z"/>
<path d="M2255 670 c-215 -39 -451 -68 -675 -82 -192 -12 -227 -21 -201 -52 7
-9 35 -26 63 -39 41 -20 58 -23 92 -16 326 61 775 85 1041 55 66 -7 137 -11
158 -8 35 4 37 6 37 39 0 73 -95 119 -266 128 -70 3 -123 -2 -249 -25z"/>
</g>
</svg>
