<?xml version="1.0" standalone="no"?>
<!DOCTYPE svg PUBLIC "-//W3C//DTD SVG 20010904//EN"
 "http://www.w3.org/TR/2001/REC-SVG-20010904/DTD/svg10.dtd">
<svg version="1.0" xmlns="http://www.w3.org/2000/svg"
 width="340.000000pt" height="340.000000pt" viewBox="0 0 340.000000 340.000000"
 preserveAspectRatio="xMidYMid meet">
<metadata>
Created by potrace 1.15, written by Peter Selinger 2001-2017
</metadata>
<g transform="translate(0.000000,340.000000) scale(0.100000,-0.100000)"
fill="#000000" stroke="none">
<path d="M1653 2824 c-7 -3 -13 -18 -13 -33 0 -22 21 -48 98 -123 93 -90 127
-115 187 -138 21 -8 30 -5 59 20 54 48 54 104 0 182 -23 33 -38 42 -108 64
-77 25 -197 40 -223 28z"/>
<path d="M2250 2469 c-25 -6 -128 -32 -230 -59 -210 -56 -464 -111 -622 -135
l-106 -16 -90 30 c-49 17 -102 31 -117 31 -31 0 -31 -5 6 -105 28 -75 37 -289
20 -488 -20 -234 -6 -205 -134 -278 -150 -85 -297 -146 -420 -173 -111 -25
-119 -33 -97 -86 16 -38 101 -117 134 -126 34 -8 46 0 196 143 137 129 258
229 266 220 16 -16 -77 -270 -158 -432 -74 -148 -160 -281 -261 -402 -77 -92
-92 -123 -61 -123 39 0 240 167 301 250 122 167 240 436 318 723 26 99 58 339
78 582 l12 150 140 12 c402 36 940 140 1023 198 30 22 28 51 -5 69 -38 19
-138 27 -193 15z"/>
<path d="M667 2073 c-20 -19 17 -187 63 -288 24 -55 77 -115 102 -115 5 0 23
13 39 29 23 24 29 38 29 75 0 100 -69 214 -169 278 -48 30 -54 32 -64 21z"/>
<path d="M2185 1979 c-229 -92 -524 -161 -695 -163 l-115 -1 1 -30 c1 -16 10
-55 19 -85 16 -49 18 -93 16 -405 -2 -320 0 -355 17 -411 45 -144 155 -234
354 -291 91 -26 519 -26 658 0 186 35 316 69 356 92 65 38 88 105 63 185 -6
19 -14 113 -18 208 -7 158 -17 209 -37 190 -3 -4 -17 -51 -31 -105 -44 -176
-110 -281 -206 -330 -120 -60 -431 -112 -592 -97 -94 8 -243 47 -321 84 -91
44 -129 83 -143 148 -10 48 -16 332 -7 332 10 0 510 103 633 130 193 43 226
67 189 138 -14 28 -14 31 18 79 52 80 88 120 134 155 74 56 49 99 -100 174
-48 24 -89 44 -90 44 -2 -1 -48 -19 -103 -41z m53 -152 c11 -24 10 -39 -7
-110 -12 -45 -31 -102 -44 -127 l-22 -45 -135 -36 c-74 -20 -137 -32 -138 -27
-2 5 4 41 14 81 26 104 24 168 -4 206 -17 23 -19 32 -10 36 23 7 313 53 323
51 6 -1 16 -15 23 -29z m-448 -84 c6 -22 10 -93 8 -167 l-3 -129 -145 -38
c-80 -20 -146 -36 -147 -35 -5 5 20 351 26 358 5 6 195 43 238 47 7 1 17 -16
23 -36z"/>
</g>
</svg>
