<?xml version="1.0" standalone="no"?>
<!DOCTYPE svg PUBLIC "-//W3C//DTD SVG 20010904//EN"
 "http://www.w3.org/TR/2001/REC-SVG-20010904/DTD/svg10.dtd">
<svg version="1.0" xmlns="http://www.w3.org/2000/svg"
 width="340.000000pt" height="340.000000pt" viewBox="0 0 340.000000 340.000000"
 preserveAspectRatio="xMidYMid meet">
<metadata>
Created by potrace 1.15, written by Peter Selinger 2001-2017
</metadata>
<g transform="translate(0.000000,340.000000) scale(0.100000,-0.100000)"
fill="#000000" stroke="none">
<path d="M1623 2773 c-7 -2 -13 -15 -13 -28 0 -17 22 -44 80 -94 145 -128 208
-154 254 -108 32 32 33 66 5 125 -25 51 -46 62 -172 92 -80 19 -129 24 -154
13z"/>
<path d="M2240 2499 c-25 -6 -171 -41 -325 -79 -270 -66 -497 -116 -560 -122
-16 -1 -67 10 -113 25 -87 28 -137 34 -147 17 -4 -6 4 -32 18 -58 34 -66 50
-150 49 -267 -1 -126 -29 -420 -42 -445 -13 -25 -248 -139 -375 -183 -55 -19
-131 -40 -170 -47 -71 -13 -85 -21 -85 -53 0 -23 80 -108 124 -132 33 -18 34
-18 68 3 19 12 88 64 153 117 136 109 252 191 260 183 10 -9 -62 -230 -115
-356 -88 -207 -189 -355 -380 -555 -56 -59 -97 -107 -91 -107 20 0 113 51 176
95 93 66 272 259 327 351 156 265 257 695 284 1203 4 72 10 131 13 131 30 0
386 45 518 65 268 42 654 122 672 140 20 19 7 44 -35 65 -35 18 -162 23 -224
9z"/>
<path d="M1797 2213 c-13 -12 -7 -51 19 -119 14 -38 28 -99 31 -135 7 -77 18
-69 -127 -95 -78 -14 -105 -15 -151 -5 -30 6 -72 11 -93 11 l-39 0 9 -37 c13
-57 10 -388 -5 -473 -54 -316 -177 -578 -380 -809 -46 -53 -52 -63 -31 -56 73
23 200 130 280 237 149 196 230 449 261 810 6 73 14 158 18 188 l6 54 128 22
127 21 -1 -176 c0 -97 -4 -184 -8 -195 -5 -13 -38 -28 -111 -51 -91 -28 -101
-34 -82 -44 47 -25 239 0 365 48 45 17 56 13 68 -28 9 -31 8 -54 -4 -115 -14
-68 -78 -237 -98 -260 -4 -5 -45 26 -91 68 -153 143 -308 224 -308 163 0 -7
16 -21 36 -32 35 -19 136 -120 241 -241 l52 -61 -42 -40 c-79 -76 -212 -150
-379 -213 -49 -18 -88 -36 -88 -41 0 -18 43 -30 83 -24 158 25 354 104 454
184 l52 40 88 -80 c106 -98 230 -196 297 -234 47 -28 54 -29 177 -28 133 1
379 27 438 47 72 23 39 46 -92 61 -78 9 -300 66 -412 106 -49 17 -130 52 -180
76 -93 47 -238 141 -232 152 54 102 95 199 124 291 36 117 61 174 95 220 11
16 16 33 12 43 -8 22 -66 52 -127 68 -43 10 -50 9 -92 -15 -25 -15 -63 -33
-85 -41 l-40 -14 0 97 c0 53 3 141 7 195 5 79 9 97 22 97 9 0 52 9 96 20 44
11 108 23 143 26 61 7 62 6 62 -17 0 -20 -29 -109 -55 -171 -12 -30 17 -21
106 33 46 29 109 63 139 77 30 14 63 32 73 40 25 22 21 59 -10 89 -29 27 -158
93 -181 93 -8 0 -50 -16 -94 -36 -80 -36 -275 -91 -285 -80 -4 3 4 47 16 97
l23 91 -27 28 c-41 43 -178 94 -198 73z"/>
<path d="M673 2074 c-13 -34 68 -265 117 -333 23 -32 37 -41 59 -41 34 0 76
39 84 78 7 35 -7 102 -32 150 -26 51 -175 162 -217 162 -3 0 -7 -7 -11 -16z"/>
</g>
</svg>
