<?xml version="1.0" standalone="no"?>
<!DOCTYPE svg PUBLIC "-//W3C//DTD SVG 20010904//EN"
 "http://www.w3.org/TR/2001/REC-SVG-20010904/DTD/svg10.dtd">
<svg version="1.0" xmlns="http://www.w3.org/2000/svg"
 width="340.000000pt" height="340.000000pt" viewBox="0 0 340.000000 340.000000"
 preserveAspectRatio="xMidYMid meet">
<metadata>
Created by potrace 1.15, written by Peter Selinger 2001-2017
</metadata>
<g transform="translate(0.000000,340.000000) scale(0.100000,-0.100000)"
fill="#000000" stroke="none">
<path d="M1621 2746 c-7 -8 -10 -24 -6 -35 8 -27 185 -195 240 -226 48 -29 66
-27 109 6 36 28 34 72 -6 139 -33 54 -34 55 -128 87 -122 41 -191 51 -209 29z"/>
<path d="M2185 2415 c-317 -86 -523 -131 -728 -160 l-118 -17 -95 31 c-105 35
-157 37 -162 8 -2 -10 7 -42 20 -70 22 -49 23 -63 22 -252 0 -189 -23 -444
-44 -499 -5 -15 -59 -47 -171 -103 -230 -115 -360 -163 -445 -163 -68 0 -83
-36 -37 -91 36 -43 110 -89 143 -89 28 0 107 49 185 115 107 91 280 216 283
206 5 -15 -34 -150 -75 -260 -84 -226 -193 -399 -357 -568 -44 -46 -77 -85
-74 -89 10 -9 78 24 146 73 348 248 539 745 600 1563 l7 94 140 18 c321 40
1005 162 1061 190 41 19 36 38 -16 64 -78 39 -138 38 -285 -1z"/>
<path d="M2060 2158 c0 -18 9 -58 19 -88 32 -93 40 -224 29 -466 -5 -120 -8
-304 -5 -409 4 -171 7 -198 31 -271 59 -184 194 -252 476 -241 213 8 368 61
386 133 4 14 -3 72 -15 130 -11 57 -21 132 -21 166 -1 102 -24 187 -45 166 -4
-3 -17 -50 -31 -104 -42 -172 -99 -258 -189 -289 -28 -10 -95 -19 -155 -22
-91 -4 -113 -2 -163 17 -32 12 -77 36 -100 54 -60 45 -68 84 -74 359 l-6 227
214 104 c118 57 235 113 262 124 26 12 50 28 53 37 17 42 -64 145 -142 183
-35 16 -36 16 -55 -7 -10 -13 -19 -36 -19 -51 0 -44 -16 -78 -67 -137 -46 -53
-233 -217 -240 -210 -8 9 31 254 58 365 l31 123 -26 39 c-32 48 -103 91 -162
98 l-44 5 0 -35z"/>
<path d="M640 2065 c-10 -12 -9 -28 9 -82 31 -94 117 -267 151 -303 l30 -32
29 21 c58 42 76 124 45 214 -18 55 -99 134 -175 173 -56 28 -72 30 -89 9z"/>
<path d="M1597 1983 c-25 -6 -20 -33 30 -148 l38 -90 0 -355 0 -355 -90 -32
c-49 -18 -91 -33 -92 -33 -2 0 -3 105 -3 234 l0 233 -44 41 c-39 36 -95 62
-133 62 -20 0 -16 -22 17 -92 17 -36 37 -100 45 -144 18 -93 38 -356 27 -366
-8 -8 -172 -54 -224 -63 -87 -14 -36 -101 82 -138 24 -7 83 20 255 117 88 49
241 131 340 181 98 51 181 97 183 103 7 23 -36 19 -133 -12 -82 -26 -105 -31
-109 -20 -3 7 -6 93 -6 191 l-2 177 74 22 c40 13 92 28 116 34 23 6 57 24 75
40 26 24 30 32 21 47 -6 10 -24 22 -41 26 -25 7 -43 2 -109 -31 -126 -63 -124
-63 -124 0 0 29 7 84 15 123 23 110 21 127 -25 168 -62 57 -140 90 -183 80z"/>
</g>
</svg>
