<?xml version="1.0" standalone="no"?>
<!DOCTYPE svg PUBLIC "-//W3C//DTD SVG 20010904//EN"
 "http://www.w3.org/TR/2001/REC-SVG-20010904/DTD/svg10.dtd">
<svg version="1.0" xmlns="http://www.w3.org/2000/svg"
 width="340.000000pt" height="340.000000pt" viewBox="0 0 340.000000 340.000000"
 preserveAspectRatio="xMidYMid meet">
<metadata>
Created by potrace 1.15, written by Peter Selinger 2001-2017
</metadata>
<g transform="translate(0.000000,340.000000) scale(0.100000,-0.100000)"
fill="#000000" stroke="none">
<path d="M1678 2743 c-31 -8 -21 -51 27 -113 61 -80 154 -171 198 -195 l36
-19 26 24 c14 13 30 41 37 62 10 34 8 43 -18 95 -34 67 -68 92 -161 121 -79
24 -121 32 -145 25z"/>
<path d="M2350 2403 c-153 -26 -761 -115 -952 -139 l-197 -25 -67 20 c-79 25
-162 28 -170 6 -3 -8 2 -47 11 -87 30 -133 30 -425 -1 -651 l-6 -45 -90 -42
c-180 -83 -413 -160 -489 -160 -15 0 -32 -7 -40 -16 -28 -34 57 -127 128 -140
27 -5 41 -2 61 15 15 11 61 44 102 73 41 28 126 89 188 135 62 46 114 83 116
83 7 0 -42 -172 -76 -269 -39 -110 -123 -280 -191 -384 -56 -87 -180 -239
-241 -296 -74 -71 -27 -70 78 3 88 60 207 173 271 256 130 170 242 417 308
680 27 108 6 97 162 85 57 -5 96 -2 135 8 30 9 56 14 58 13 7 -7 -65 -191
-110 -281 -87 -172 -182 -306 -317 -448 -35 -37 -61 -70 -58 -74 10 -9 81 25
164 79 139 91 243 214 349 412 25 47 48 86 51 86 15 0 113 -74 113 -86 0 -8
-11 -63 -25 -122 -13 -59 -30 -129 -36 -157 -15 -65 -53 -140 -81 -159 -28
-20 -51 -20 -86 -2 -15 8 -44 17 -65 21 -43 8 -49 -6 -17 -40 11 -12 46 -60
78 -106 52 -77 60 -84 93 -87 31 -3 41 2 64 30 55 64 131 257 180 453 34 136
59 186 125 250 112 108 222 259 295 405 l38 75 16 -25 c39 -59 201 -284 275
-379 54 -70 91 -109 115 -120 49 -22 428 -24 454 -2 29 23 5 45 -65 60 -74 15
-218 80 -315 143 -139 91 -443 352 -443 382 0 6 19 57 41 113 40 98 41 103 26
127 -24 36 -96 75 -152 83 l-48 6 7 -29 c3 -16 9 -60 12 -99 6 -61 3 -81 -25
-162 -56 -168 -159 -373 -256 -508 l-44 -63 -39 19 c-21 11 -78 24 -126 31
-99 12 -94 5 -60 102 l17 49 -27 22 -27 22 88 12 c240 35 313 59 313 102 0 50
-106 51 -301 5 -118 -28 -338 -73 -493 -101 -28 -5 -28 -5 -22 38 10 72 35
337 42 453 l7 111 136 7 c346 18 1161 89 1245 109 61 15 78 37 51 67 -49 54
-139 73 -255 53z"/>
<path d="M1420 2025 c-10 -13 -8 -22 12 -53 51 -76 138 -178 168 -195 l30 -18
31 31 c28 28 31 36 26 73 -7 51 -38 80 -141 131 -93 46 -110 50 -126 31z"/>
<path d="M552 2018 c-7 -7 -12 -21 -12 -31 0 -35 99 -225 138 -266 46 -49 77
-52 121 -15 25 21 31 34 31 65 0 67 -25 110 -98 165 -100 76 -159 103 -180 82z"/>
<path d="M2071 1286 c-11 -13 -10 -20 5 -43 32 -50 188 -199 222 -212 30 -13
36 -12 60 6 42 31 42 88 0 144 -28 36 -48 50 -114 76 -103 42 -155 50 -173 29z"/>
<path d="M2010 843 c1 -55 229 -341 301 -379 25 -13 28 -12 44 12 40 62 28
143 -34 234 -33 48 -50 61 -140 108 -65 33 -113 52 -136 52 -32 0 -35 -3 -35
-27z"/>
</g>
</svg>
