<?xml version="1.0" standalone="no"?>
<!DOCTYPE svg PUBLIC "-//W3C//DTD SVG 20010904//EN"
 "http://www.w3.org/TR/2001/REC-SVG-20010904/DTD/svg10.dtd">
<svg version="1.0" xmlns="http://www.w3.org/2000/svg"
 width="340.000000pt" height="340.000000pt" viewBox="0 0 340.000000 340.000000"
 preserveAspectRatio="xMidYMid meet">
<metadata>
Created by potrace 1.15, written by Peter Selinger 2001-2017
</metadata>
<g transform="translate(0.000000,340.000000) scale(0.100000,-0.100000)"
fill="#000000" stroke="none">
<path d="M1733 2880 c-13 -5 -23 -17 -23 -27 0 -24 177 -196 230 -223 48 -25
72 -20 100 20 54 76 -4 193 -112 225 -56 16 -160 19 -195 5z"/>
<path d="M2280 2580 c-262 -51 -605 -111 -776 -136 l-191 -27 -72 26 c-75 28
-116 34 -126 18 -3 -6 4 -61 15 -123 25 -134 27 -322 6 -526 -11 -108 -17
-135 -32 -148 -35 -28 -399 -204 -488 -237 -98 -35 -115 -51 -101 -93 11 -31
126 -114 159 -114 11 0 70 50 145 124 125 122 271 250 278 242 6 -6 -34 -181
-63 -275 -70 -228 -216 -486 -403 -711 -73 -88 -80 -100 -58 -100 54 0 309
242 402 380 170 255 277 699 323 1355 l7 100 120 7 c361 22 1054 117 1128 154
39 21 37 58 -5 84 -42 25 -136 25 -268 0z"/>
<path d="M2490 2213 c-78 -29 -268 -78 -365 -93 -100 -16 -105 -19 -71 -37 16
-8 51 -16 78 -16 l50 -1 -7 -35 c-26 -149 -147 -374 -292 -544 -89 -105 -97
-116 -91 -123 17 -16 197 119 266 199 60 69 93 119 153 232 29 55 65 119 81
142 15 23 28 49 28 57 0 9 -23 29 -52 45 -32 18 -46 32 -38 34 8 3 76 17 150
32 74 14 143 29 153 31 24 7 23 -32 -7 -147 -43 -169 -58 -210 -86 -242 l-28
-31 -59 12 c-33 7 -65 12 -71 12 -18 0 -14 -24 9 -54 12 -15 30 -51 41 -79 22
-59 53 -97 79 -97 39 0 90 62 144 174 29 61 58 129 65 151 23 73 71 162 116
213 50 57 54 79 22 110 -32 29 -148 82 -178 81 -14 -1 -54 -12 -90 -26z"/>
<path d="M1713 2208 c-6 -7 -16 -30 -21 -51 -13 -48 -52 -100 -103 -136 -38
-28 -39 -28 -96 -15 -69 16 -119 18 -128 4 -3 -5 12 -39 34 -75 21 -36 45 -89
51 -117 17 -67 8 -178 -20 -251 -24 -65 -22 -102 10 -154 29 -48 51 -42 108
30 58 72 132 144 219 210 l62 48 21 -21 c25 -25 42 -25 63 -2 20 21 22 80 6
116 -12 26 -107 82 -149 88 -38 5 -39 -33 -1 -80 16 -21 31 -44 33 -51 4 -18
-235 -152 -244 -137 -4 7 -8 86 -9 177 -1 129 2 164 13 167 71 22 377 148 392
162 29 28 13 47 -56 68 -91 29 -171 37 -185 20z"/>
<path d="M719 2194 c-11 -14 -10 -30 9 -102 30 -115 78 -210 121 -239 43 -29
44 -29 82 5 27 24 32 36 33 73 1 81 -13 119 -62 172 -51 54 -126 107 -153 107
-9 0 -23 -7 -30 -16z"/>
<path d="M2345 1385 c-246 -59 -741 -135 -882 -135 -54 0 -95 -4 -98 -11 -4
-6 5 -37 19 -70 34 -75 67 -222 106 -467 16 -106 35 -202 40 -213 12 -22 43
-25 59 -5 6 7 17 37 24 65 6 28 17 51 23 51 6 0 91 9 190 20 226 24 394 35
429 26 21 -5 33 -21 56 -74 68 -153 79 -164 126 -120 54 50 82 128 138 389 50
228 72 306 106 366 16 29 29 59 29 66 0 38 -152 128 -225 133 -22 2 -85 -8
-140 -21z m65 -95 c23 -12 40 -68 40 -133 0 -119 -48 -449 -69 -470 -6 -6 -25
2 -52 22 -49 36 -81 38 -237 17 -51 -6 -94 -11 -95 -10 -1 2 2 56 8 121 l10
118 90 13 c166 23 204 44 156 84 -29 23 -107 24 -180 2 -29 -8 -55 -13 -58
-10 -3 2 0 37 7 77 10 68 9 75 -10 102 -12 16 -19 31 -17 34 3 2 54 9 114 14
59 5 140 13 178 18 39 5 76 9 83 10 7 0 22 -4 32 -9z m-506 -72 c7 -47 18
-198 14 -198 -50 -6 -240 -39 -244 -43 -14 -14 8 -36 50 -50 43 -15 52 -15
116 2 l70 19 0 -124 c0 -69 -4 -124 -9 -124 -5 0 -73 -9 -151 -21 -78 -11
-144 -18 -146 -16 -6 6 -64 464 -64 505 0 18 5 32 13 33 6 0 77 11 157 24 196
31 188 31 194 -7z"/>
</g>
</svg>
