<?xml version="1.0" standalone="no"?>
<!DOCTYPE svg PUBLIC "-//W3C//DTD SVG 20010904//EN"
 "http://www.w3.org/TR/2001/REC-SVG-20010904/DTD/svg10.dtd">
<svg version="1.0" xmlns="http://www.w3.org/2000/svg"
 width="340.000000pt" height="340.000000pt" viewBox="0 0 340.000000 340.000000"
 preserveAspectRatio="xMidYMid meet">
<metadata>
Created by potrace 1.15, written by Peter Selinger 2001-2017
</metadata>
<g transform="translate(0.000000,340.000000) scale(0.100000,-0.100000)"
fill="#000000" stroke="none">
<path d="M1748 2860 c-10 -6 -18 -17 -18 -24 0 -7 36 -48 81 -91 126 -120 224
-153 266 -89 32 50 -28 174 -95 195 -52 16 -213 22 -234 9z"/>
<path d="M2180 2565 c-313 -70 -563 -113 -785 -135 -102 -10 -115 -9 -180 11
-38 12 -92 22 -120 23 -60 1 -66 -13 -37 -82 46 -106 52 -282 22 -582 -11
-107 -20 -201 -20 -208 0 -18 -301 -163 -417 -201 -51 -17 -121 -34 -155 -38
-55 -7 -63 -11 -66 -30 -4 -30 42 -106 86 -143 68 -56 81 -50 288 131 55 47
133 112 174 144 70 54 75 56 78 35 9 -59 -80 -355 -156 -520 -73 -160 -215
-370 -326 -482 -59 -60 -68 -78 -38 -78 53 0 232 143 307 245 221 302 318 583
370 1075 14 135 35 472 35 566 l0 42 88 6 c366 29 854 88 1039 126 199 41 240
102 87 129 -75 13 -44 17 -274 -34z"/>
<path d="M1793 2278 c3 -18 17 -65 31 -104 24 -66 26 -88 32 -316 5 -181 4
-247 -5 -252 -10 -7 -281 -56 -307 -56 -7 0 -14 30 -18 78 -4 42 -9 89 -12
105 -5 27 -5 27 44 27 27 0 72 7 98 14 27 8 61 18 77 21 20 4 27 11 27 30 0
53 -63 58 -181 15 -45 -17 -84 -29 -86 -27 -4 5 -23 114 -23 134 0 7 44 42 98
78 53 35 115 80 137 98 34 29 38 37 27 50 -28 34 -162 62 -162 35 0 -27 -50
-118 -85 -157 -32 -35 -43 -41 -79 -41 -53 0 -83 -9 -90 -25 -3 -8 11 -44 31
-81 47 -89 77 -181 104 -315 12 -60 28 -117 35 -127 12 -16 14 -15 41 9 25 23
45 29 172 47 80 11 149 18 153 16 4 -3 8 -52 8 -109 0 -90 -2 -104 -17 -109
-15 -4 -135 -25 -360 -62 -58 -9 -36 -37 44 -55 46 -11 65 -8 229 29 99 23
210 46 248 53 63 11 70 10 83 -7 20 -28 15 -94 -11 -149 -35 -73 -124 -195
-143 -195 -9 0 -77 38 -152 85 -155 96 -186 110 -257 120 -78 10 -74 -9 11
-52 75 -37 325 -211 325 -225 0 -4 -46 -30 -102 -58 -114 -55 -307 -121 -500
-170 -71 -18 -128 -36 -128 -40 0 -24 176 -27 299 -5 172 30 355 93 473 162
52 30 62 33 78 21 10 -7 78 -62 152 -121 73 -60 170 -134 216 -165 l83 -56 93
-4 c58 -3 133 2 197 12 132 21 279 55 279 65 0 11 -60 28 -225 61 -81 16 -179
39 -218 51 -147 44 -384 156 -515 245 -2 1 32 47 75 101 106 133 223 307 223
331 0 38 -106 112 -160 112 -11 0 -66 -13 -122 -30 -55 -16 -105 -30 -109 -30
-5 0 -9 49 -9 109 0 128 -19 113 174 132 129 13 129 13 144 -9 38 -57 69 -21
183 211 46 93 100 188 121 212 70 79 41 137 -102 203 -70 33 -78 34 -115 23
-82 -25 -191 -51 -212 -51 -34 0 -28 -27 9 -46 32 -16 68 -16 199 2 42 6 48 4
54 -15 9 -28 -31 -161 -48 -161 -7 0 -67 -7 -132 -15 -66 -8 -121 -15 -122
-15 -2 0 -3 -9 -3 -20 0 -45 86 -61 193 -36 40 9 57 10 57 2 0 -6 -11 -45 -24
-86 -14 -41 -30 -94 -36 -116 l-10 -42 -48 18 c-48 18 -50 18 -165 -4 l-117
-23 0 27 c0 56 31 340 51 463 20 125 20 129 2 149 -29 33 -93 58 -152 58 l-53
0 5 -32z"/>
<path d="M634 2155 c-12 -49 45 -223 96 -296 31 -42 73 -62 103 -48 47 21 58
76 31 156 -23 70 -166 213 -213 213 -6 0 -13 -11 -17 -25z"/>
</g>
</svg>
