<?xml version="1.0" standalone="no"?>
<!DOCTYPE svg PUBLIC "-//W3C//DTD SVG 20010904//EN"
 "http://www.w3.org/TR/2001/REC-SVG-20010904/DTD/svg10.dtd">
<svg version="1.0" xmlns="http://www.w3.org/2000/svg"
 width="340.000000pt" height="340.000000pt" viewBox="0 0 340.000000 340.000000"
 preserveAspectRatio="xMidYMid meet">
<metadata>
Created by potrace 1.15, written by Peter Selinger 2001-2017
</metadata>
<g transform="translate(0.000000,340.000000) scale(0.100000,-0.100000)"
fill="#000000" stroke="none">
<path d="M1741 2971 c-26 -17 -3 -58 61 -109 142 -112 195 -131 241 -87 40 38
50 69 33 108 -21 49 -56 76 -115 87 -66 12 -201 13 -220 1z"/>
<path d="M2290 2755 c-271 -69 -598 -132 -800 -155 -90 -10 -114 -10 -173 4
-38 9 -98 16 -134 16 -74 0 -70 9 -32 -95 20 -54 23 -78 22 -227 -1 -92 -6
-242 -13 -335 -13 -200 6 -174 -222 -311 -172 -103 -318 -175 -393 -193 -68
-16 -76 -24 -63 -59 12 -37 117 -135 153 -144 16 -4 34 -1 48 9 12 8 118 108
235 221 116 113 212 200 212 194 0 -22 -41 -176 -92 -340 -70 -229 -146 -367
-362 -654 -53 -69 -96 -128 -96 -131 0 -3 15 -5 33 -5 71 0 189 104 335 294
149 195 270 540 319 909 9 70 20 127 24 127 4 0 36 -13 71 -30 34 -16 75 -30
91 -30 15 0 87 15 160 34 155 40 433 96 637 128 121 18 187 22 401 23 268 0
289 3 289 45 0 24 -26 45 -93 75 -74 32 -111 32 -287 -6 -325 -69 -415 -87
-419 -83 -2 2 16 25 39 51 53 60 83 118 75 144 -4 11 -19 31 -33 44 -15 14
-22 25 -17 25 25 0 204 32 233 41 41 14 70 53 52 73 -6 8 -24 18 -40 21 -32 7
-233 -26 -299 -50 -24 -8 -46 -15 -50 -15 -3 0 -5 20 -3 45 3 38 0 49 -25 74
-39 38 -102 57 -151 45 -20 -5 -38 -16 -40 -25 -1 -8 18 -46 44 -83 25 -38 42
-72 37 -76 -10 -10 -226 -64 -318 -79 -72 -12 -104 -25 -93 -36 4 -4 43 -12
86 -17 86 -11 91 -16 92 -78 0 -14 11 -55 23 -92 l23 -68 -30 -9 c-33 -11
-318 -48 -401 -53 l-50 -3 2 30 c12 145 44 497 49 526 l5 36 122 12 c317 31
941 121 1048 151 104 29 54 89 -86 103 -34 4 -80 -2 -145 -18z m-170 -508 c0
-38 -28 -134 -55 -186 -26 -53 -18 -50 -192 -77 l-42 -6 19 38 c11 21 20 46
20 56 0 33 -29 89 -61 119 -37 35 -41 33 116 55 66 9 122 18 124 20 2 2 19 4
38 4 28 0 33 -4 33 -23z"/>
<path d="M711 2296 c-16 -19 -9 -53 36 -171 58 -153 97 -205 153 -205 64 0 87
48 69 142 -24 120 -211 291 -258 234z"/>
<path d="M2350 1869 c-115 -47 -556 -134 -752 -149 -154 -11 -152 -7 -90 -166
28 -71 64 -175 82 -230 46 -148 66 -168 103 -105 15 26 27 31 107 45 50 10 94
14 99 11 20 -12 51 -118 51 -170 0 -30 -3 -55 -6 -55 -4 0 -140 -15 -303 -34
-163 -19 -326 -38 -362 -41 -36 -4 -72 -11 -80 -16 -39 -24 64 -78 152 -79 26
0 158 20 295 45 136 25 257 45 270 45 l22 0 5 -277 c4 -287 15 -368 47 -368
20 0 66 87 81 150 6 28 14 154 18 280 l6 230 35 2 c19 1 126 10 236 19 193 17
209 16 359 -1 170 -20 167 -21 181 33 10 37 -11 69 -64 96 -91 46 -125 50
-252 27 -280 -48 -408 -70 -454 -76 l-49 -7 7 86 6 87 -36 21 c-34 20 -35 22
-15 29 11 5 61 11 110 15 82 6 92 5 117 -15 35 -27 75 -27 101 2 11 12 49 69
84 127 57 95 98 154 160 232 19 23 20 30 10 56 -15 35 -69 76 -168 126 -80 40
-77 39 -113 25z m10 -118 c23 -43 -4 -185 -59 -313 l-20 -48 -78 0 c-91 0
-210 -19 -377 -61 -65 -16 -121 -27 -124 -25 -6 7 -32 117 -32 139 0 12 8 17
29 17 82 0 468 81 509 106 30 20 28 41 -6 49 -29 6 -328 -42 -471 -75 -46 -11
-85 -19 -87 -18 -8 9 -32 124 -26 129 5 5 355 68 622 112 68 11 109 7 120 -12z"/>
</g>
</svg>
