<?xml version="1.0" standalone="no"?>
<!DOCTYPE svg PUBLIC "-//W3C//DTD SVG 20010904//EN"
 "http://www.w3.org/TR/2001/REC-SVG-20010904/DTD/svg10.dtd">
<svg version="1.0" xmlns="http://www.w3.org/2000/svg"
 width="340.000000pt" height="340.000000pt" viewBox="0 0 340.000000 340.000000"
 preserveAspectRatio="xMidYMid meet">
<metadata>
Created by potrace 1.15, written by Peter Selinger 2001-2017
</metadata>
<g transform="translate(0.000000,340.000000) scale(0.100000,-0.100000)"
fill="#000000" stroke="none">
<path d="M1660 2771 c-46 -13 -35 -38 51 -122 93 -90 190 -159 224 -159 12 0
30 9 40 20 39 43 -6 166 -78 211 -59 36 -189 64 -237 50z"/>
<path d="M2230 2463 c-19 -2 -165 -26 -325 -53 -159 -27 -367 -59 -461 -71
l-172 -23 -68 31 c-81 36 -112 44 -120 32 -3 -5 2 -41 12 -80 15 -61 16 -103
10 -322 -3 -139 -9 -267 -12 -285 -6 -29 -18 -40 -108 -92 -146 -86 -268 -147
-371 -183 -81 -29 -90 -35 -93 -60 -2 -19 5 -34 24 -52 41 -38 130 -78 158
-71 13 3 95 73 183 156 87 82 161 150 165 150 7 0 7 1 -26 -135 -66 -266 -199
-504 -400 -713 -61 -63 -105 -117 -99 -119 41 -14 238 135 329 248 72 89 179
256 210 326 62 139 133 495 169 843 9 85 19 178 23 205 l7 50 170 12 c425 31
986 86 1056 104 66 17 55 51 -26 85 -41 17 -169 26 -235 17z"/>
<path d="M2172 2189 c1 -57 -3 -73 -40 -144 -23 -44 -76 -127 -117 -184 -69
-97 -87 -131 -67 -131 14 0 56 33 144 113 73 66 94 80 125 82 21 1 62 6 92 10
52 8 54 7 48 -14 -3 -12 -35 -75 -72 -140 l-67 -118 -52 -7 c-28 -3 -76 -6
-107 -6 -66 0 -70 -5 -59 -77 19 -120 21 -258 6 -373 -29 -210 -16 -289 45
-290 40 0 59 126 68 435 l6 240 100 12 c55 7 122 17 148 23 76 16 105 13 119
-12 10 -17 13 -98 13 -328 0 -285 1 -308 20 -345 28 -56 51 -57 75 -3 33 76
42 168 35 369 l-7 187 26 57 c14 32 26 68 26 80 0 31 -58 78 -129 105 l-57 21
-78 -31 c-42 -17 -85 -30 -94 -28 -24 5 145 178 225 231 87 57 83 80 -26 131
-49 23 -57 24 -85 11 -17 -7 -67 -29 -111 -49 -101 -45 -115 -46 -81 -3 93
114 117 151 114 169 -4 28 -60 56 -130 64 l-57 7 1 -64z"/>
<path d="M1497 2203 c-10 -9 -9 -43 1 -43 15 0 32 -49 47 -137 8 -47 15 -91
15 -97 0 -7 -42 -22 -97 -35 -119 -28 -146 -38 -141 -53 3 -7 15 -15 29 -19
37 -11 155 -10 183 1 l26 10 0 -84 0 -84 -67 -13 c-38 -7 -110 -13 -162 -13
-59 -1 -96 -5 -98 -12 -2 -6 7 -33 21 -60 21 -42 62 -178 80 -266 13 -60 67
-76 76 -23 4 24 11 30 44 37 22 5 44 7 48 6 12 -4 -72 -132 -150 -230 -88
-110 -184 -209 -284 -295 -49 -41 -88 -78 -88 -83 0 -15 61 1 125 33 152 75
242 156 375 337 34 47 64 87 67 90 6 6 -4 -134 -18 -245 -6 -44 -22 -124 -35
-178 -23 -88 -24 -105 -15 -167 16 -103 44 -160 77 -160 44 0 56 102 63 525
l6 380 70 7 c152 16 175 20 175 31 0 6 -11 23 -25 37 l-25 26 37 54 c20 30 51
72 70 93 18 20 33 43 33 51 0 26 -35 57 -93 80 -62 25 -70 25 -174 -7 -28 -8
-53 -13 -56 -11 -4 4 3 145 7 151 1 1 60 13 130 27 166 33 214 63 169 107 -34
35 -82 35 -172 0 -126 -49 -126 -48 -85 86 18 55 23 88 17 94 -14 14 -150 59
-177 59 -13 0 -26 -3 -29 -7z m301 -628 c2 -22 -4 -68 -13 -102 -18 -66 -17
-65 -107 -78 l-48 -7 0 105 0 105 53 10 c28 6 66 9 82 9 27 -2 30 -5 33 -42z
m-248 -89 c0 -58 -3 -107 -7 -109 -5 -3 -35 -8 -69 -12 l-61 -7 -12 79 c-7 43
-14 90 -17 104 -5 26 -3 26 68 36 40 6 79 11 86 12 9 1 12 -26 12 -103z"/>
<path d="M717 2113 c-25 -24 47 -272 99 -341 21 -27 28 -30 45 -21 76 40 80
217 6 282 -86 76 -131 100 -150 80z"/>
<path d="M2238 1464 c-3 -3 3 -31 14 -62 42 -118 4 -408 -74 -555 -45 -86
-159 -196 -301 -290 -64 -43 -117 -83 -117 -88 0 -5 20 -9 45 -9 32 0 67 11
118 36 286 144 405 319 436 643 5 53 19 134 31 179 24 96 22 103 -45 133 -39
18 -96 25 -107 13z"/>
<path d="M1668 1164 c-16 -16 -6 -43 41 -110 52 -74 122 -144 145 -144 47 0
59 72 24 139 -35 65 -181 145 -210 115z"/>
<path d="M2360 826 c0 -27 29 -66 148 -195 99 -108 176 -173 197 -165 60 23
13 206 -69 269 -62 47 -205 115 -241 115 -30 0 -35 -3 -35 -24z"/>
</g>
</svg>
