<?xml version="1.0" standalone="no"?>
<!DOCTYPE svg PUBLIC "-//W3C//DTD SVG 20010904//EN"
 "http://www.w3.org/TR/2001/REC-SVG-20010904/DTD/svg10.dtd">
<svg version="1.0" xmlns="http://www.w3.org/2000/svg"
 width="340.000000pt" height="340.000000pt" viewBox="0 0 340.000000 340.000000"
 preserveAspectRatio="xMidYMid meet">
<metadata>
Created by potrace 1.15, written by Peter Selinger 2001-2017
</metadata>
<g transform="translate(0.000000,340.000000) scale(0.100000,-0.100000)"
fill="#000000" stroke="none">
<path d="M1491 2803 c-5 -11 -9 -53 -8 -94 2 -71 0 -77 -41 -146 -52 -89 -173
-250 -240 -321 l-50 -54 -109 7 c-108 7 -153 3 -153 -15 0 -6 16 -34 35 -64
66 -104 164 -358 225 -584 31 -115 63 -140 112 -88 24 24 117 52 142 43 20 -8
36 -94 43 -223 l6 -111 -54 -11 c-332 -70 -657 -135 -759 -152 -68 -12 -130
-26 -137 -32 -39 -32 3 -72 117 -110 64 -21 66 -21 135 -3 58 14 623 198 676
220 14 5 17 -9 22 -107 15 -292 110 -417 372 -490 69 -19 106 -22 270 -22 163
-1 207 2 305 23 241 49 409 122 445 191 16 32 15 60 -11 185 -8 39 -21 121
-28 183 -8 63 -17 116 -20 119 -17 17 -35 -17 -59 -108 -52 -196 -119 -303
-212 -338 -75 -28 -242 -59 -382 -70 -176 -14 -364 8 -453 54 -66 34 -104 123
-115 268 -10 126 -10 126 136 159 227 51 613 127 724 143 61 9 117 18 127 21
42 13 25 75 -29 107 -73 42 -167 25 -686 -123 -136 -38 -250 -70 -254 -70 -9
0 5 87 24 147 l17 54 -30 29 c-16 16 -53 42 -83 59 -63 34 -79 27 159 66 191
31 200 31 246 0 37 -25 59 -30 89 -19 23 9 87 141 134 276 85 243 105 283 178
359 42 44 53 62 48 78 -16 51 -210 181 -269 181 -12 0 -62 -14 -112 -30 -149
-51 -619 -160 -690 -160 -33 0 293 286 418 367 44 28 68 51 68 62 0 32 -55 79
-133 116 -96 46 -141 54 -156 28z m554 -540 c14 -13 16 -28 11 -72 -18 -153
-140 -550 -167 -542 -41 12 -142 -1 -294 -37 -218 -52 -344 -76 -352 -69 -6 7
-43 209 -43 239 0 22 4 23 205 53 314 47 425 76 425 110 0 19 -44 40 -98 49
-49 7 -155 -13 -377 -73 -82 -23 -157 -41 -166 -41 -13 0 -20 25 -37 127 -12
70 -19 129 -17 131 11 11 554 110 740 135 82 11 154 7 170 -10z"/>
</g>
</svg>
