<?xml version="1.0" standalone="no"?>
<!DOCTYPE svg PUBLIC "-//W3C//DTD SVG 20010904//EN"
 "http://www.w3.org/TR/2001/REC-SVG-20010904/DTD/svg10.dtd">
<svg version="1.0" xmlns="http://www.w3.org/2000/svg"
 width="340.000000pt" height="340.000000pt" viewBox="0 0 340.000000 340.000000"
 preserveAspectRatio="xMidYMid meet">
<metadata>
Created by potrace 1.15, written by Peter Selinger 2001-2017
</metadata>
<g transform="translate(0.000000,340.000000) scale(0.100000,-0.100000)"
fill="#000000" stroke="none">
<path d="M1533 2720 c-13 -5 -23 -11 -23 -14 0 -2 13 -32 30 -67 38 -81 69
-215 78 -339 l7 -99 -30 -5 c-16 -2 -119 -13 -227 -22 -188 -17 -202 -17 -297
0 -55 10 -105 15 -111 11 -19 -12 -10 -42 41 -126 72 -118 141 -258 179 -365
41 -112 54 -133 78 -118 9 6 22 29 28 50 l11 39 104 12 c57 6 131 13 164 15
l60 3 6 -200 c3 -110 5 -201 4 -202 0 -1 -126 -22 -278 -46 -263 -41 -281 -43
-330 -30 -46 13 -141 12 -154 -1 -3 -3 15 -45 40 -93 25 -48 59 -128 76 -177
31 -88 94 -316 88 -322 -9 -9 -302 -36 -454 -41 -140 -5 -183 -9 -183 -19 0
-20 81 -72 156 -100 l66 -25 276 45 c850 138 1208 155 1737 85 251 -33 267
-34 294 -12 30 24 23 64 -19 115 -78 94 -203 104 -595 48 -71 -10 -132 -16
-135 -13 -8 7 113 237 190 360 39 61 70 117 70 124 0 48 -131 146 -232 174
-71 19 -82 17 -382 -45 -81 -17 -150 -29 -152 -27 -3 2 0 24 6 48 6 24 14 119
17 211 l6 167 41 6 c79 10 441 45 473 45 17 0 43 4 58 10 25 9 25 11 11 39 -9
16 -28 38 -43 49 l-27 20 44 52 c41 49 141 139 206 186 l29 21 -27 35 c-35 45
-131 110 -206 138 -67 25 -101 23 -228 -16 -106 -32 -303 -74 -307 -65 -6 10
21 252 33 298 19 79 16 89 -50 127 -100 59 -167 76 -217 56z m641 -536 c39
-39 28 -122 -34 -251 -33 -67 -45 -82 -67 -87 -58 -12 -279 -46 -299 -46 -21
0 -21 2 -17 163 3 89 8 165 12 169 13 14 277 63 363 67 15 0 34 -6 42 -15z
m-546 -236 l-3 -163 -168 -29 c-93 -15 -170 -26 -172 -24 -9 9 -88 329 -82
334 8 8 298 41 375 43 l52 1 -2 -162z m547 -718 c29 -24 16 -172 -34 -364 -23
-88 -42 -161 -44 -162 -5 -5 -289 -26 -293 -21 -3 3 17 80 45 172 67 220 67
302 0 349 -21 14 -21 15 12 21 19 3 54 10 79 15 69 14 214 8 235 -10z m-398
-152 c-3 -79 -11 -200 -18 -270 l-12 -126 -31 -6 c-17 -3 -78 -8 -135 -12
l-104 -7 7 28 c11 45 8 236 -4 290 -7 28 -26 80 -43 118 -16 37 -28 69 -26 71
3 2 317 51 358 55 12 1 13 -23 8 -141z m-412 62 c4 -6 11 -75 16 -153 11 -148
28 -248 54 -297 19 -36 18 -37 -137 -46 -96 -5 -118 -4 -118 7 0 7 -14 114
-31 237 -17 123 -29 226 -26 228 5 5 173 31 209 33 15 0 30 -4 33 -9z"/>
</g>
</svg>
