<?xml version="1.0" standalone="no"?>
<!DOCTYPE svg PUBLIC "-//W3C//DTD SVG 20010904//EN"
 "http://www.w3.org/TR/2001/REC-SVG-20010904/DTD/svg10.dtd">
<svg version="1.0" xmlns="http://www.w3.org/2000/svg"
 width="340.000000pt" height="340.000000pt" viewBox="0 0 340.000000 340.000000"
 preserveAspectRatio="xMidYMid meet">
<metadata>
Created by potrace 1.15, written by Peter Selinger 2001-2017
</metadata>
<g transform="translate(0.000000,340.000000) scale(0.100000,-0.100000)"
fill="#000000" stroke="none">
<path d="M1514 2796 c-3 -9 14 -43 39 -78 25 -35 61 -96 81 -136 37 -74 106
-266 106 -295 0 -21 -31 -29 -318 -82 l-243 -45 -58 20 c-32 10 -78 21 -102
22 -53 4 -54 -5 -15 -98 50 -119 55 -276 15 -451 -40 -178 -115 -308 -263
-461 -98 -101 -104 -117 -30 -86 108 45 247 176 314 297 41 73 92 218 105 295
l7 42 46 0 c26 0 85 7 132 15 130 23 130 23 130 -27 0 -63 -27 -164 -57 -220
-24 -44 -29 -48 -62 -48 -20 0 -53 5 -74 11 -22 6 -41 9 -43 6 -2 -2 20 -40
48 -85 29 -44 62 -95 73 -114 30 -49 63 -49 108 1 28 31 44 65 72 158 70 226
82 254 125 298 28 29 39 47 34 59 -8 21 -76 68 -132 89 -43 17 -43 17 -135
-17 -81 -30 -245 -72 -252 -64 -7 7 9 288 16 288 4 0 127 18 274 40 147 22
277 40 290 40 20 0 27 -11 50 -82 35 -105 105 -279 146 -359 37 -74 36 -76
-49 -175 -67 -77 -154 -152 -270 -233 l-77 -53 43 5 c50 6 168 60 250 114 31
21 90 71 131 112 59 59 75 71 82 59 22 -39 143 -180 196 -227 59 -54 203 -133
322 -178 64 -24 146 -33 169 -19 18 11 14 62 -13 168 -13 54 -29 137 -35 185
-6 48 -14 95 -16 103 -9 24 -30 -24 -54 -121 -12 -48 -30 -101 -41 -118 -18
-29 -23 -32 -52 -25 -48 10 -145 61 -209 110 -64 50 -198 193 -198 212 0 7 8
25 19 40 84 121 191 292 191 305 0 19 -45 73 -73 89 -12 6 -36 14 -54 19 -38
8 -53 -8 -53 -59 0 -53 -81 -282 -99 -282 -17 0 -152 323 -167 399 l-6 28 182
36 c100 20 192 43 205 51 49 32 4 61 -108 71 -50 5 -86 0 -181 -24 -66 -17
-121 -29 -123 -28 -13 14 -35 169 -40 290 l-6 148 -32 24 c-47 37 -110 55
-187 55 -51 0 -70 -4 -74 -14z"/>
<path d="M2044 2691 c-12 -5 -25 -14 -28 -20 -7 -11 167 -160 232 -198 51 -30
85 -25 107 17 41 79 -2 144 -117 178 -90 26 -166 35 -194 23z"/>
<path d="M2160 1191 c-60 -34 -427 -88 -829 -122 -116 -10 -154 -9 -195 1 -60
15 -153 17 -167 3 -7 -7 1 -25 25 -57 19 -26 44 -75 55 -110 20 -64 71 -301
71 -328 0 -12 -58 -20 -312 -42 -172 -15 -317 -32 -323 -38 -15 -14 23 -41
112 -78 87 -36 61 -37 283 9 295 61 618 91 1035 98 339 5 519 -1 832 -29 143
-13 183 -6 183 31 0 27 -81 95 -155 132 -78 38 -134 39 -390 5 -99 -13 -181
-23 -182 -22 -5 5 77 167 112 223 21 32 62 84 93 115 51 53 55 59 44 82 -26
57 -247 153 -292 127z m-16 -122 l39 -11 -5 -62 c-3 -34 -22 -130 -43 -214
l-38 -152 -153 0 c-90 0 -154 4 -154 9 0 21 54 158 96 244 24 50 44 99 44 108
0 10 -16 29 -36 43 l-37 25 34 5 c92 16 207 18 253 5z m-369 -53 c7 -37 -5
-152 -31 -294 -20 -109 -16 -106 -147 -117 l-87 -7 10 27 c5 14 10 65 10 113
0 82 -18 155 -64 263 -6 14 11 18 126 31 191 22 176 23 183 -16z m-365 -134
c0 -120 17 -215 45 -259 13 -19 13 -22 -3 -27 -35 -9 -222 -28 -235 -23 -10 4
-17 56 -28 204 -7 109 -14 203 -14 208 0 9 209 25 228 17 4 -2 7 -56 7 -120z"/>
</g>
</svg>
