<?xml version="1.0" standalone="no"?>
<!DOCTYPE svg PUBLIC "-//W3C//DTD SVG 20010904//EN"
 "http://www.w3.org/TR/2001/REC-SVG-20010904/DTD/svg10.dtd">
<svg version="1.0" xmlns="http://www.w3.org/2000/svg"
 width="340.000000pt" height="340.000000pt" viewBox="0 0 340.000000 340.000000"
 preserveAspectRatio="xMidYMid meet">
<metadata>
Created by potrace 1.15, written by Peter Selinger 2001-2017
</metadata>
<g transform="translate(0.000000,340.000000) scale(0.100000,-0.100000)"
fill="#000000" stroke="none">
<path d="M1138 2883 c-25 -6 -23 -28 12 -130 43 -129 61 -291 58 -518 l-3
-188 -153 -43 c-84 -23 -225 -56 -315 -74 -89 -17 -180 -36 -202 -41 -37 -11
-38 -12 -20 -25 35 -26 128 -47 205 -47 84 0 198 21 337 63 112 34 111 42 24
-125 -151 -289 -335 -538 -577 -780 -63 -63 -109 -115 -101 -115 16 0 107 54
196 117 88 62 280 255 371 373 40 52 113 155 162 229 l88 134 0 -45 c0 -85
-20 -403 -35 -550 -17 -165 -36 -283 -66 -408 -24 -96 -20 -170 11 -253 21
-54 55 -97 77 -97 20 0 52 78 75 184 18 81 21 145 28 566 4 261 8 476 9 478 3
7 61 -41 154 -127 137 -127 173 -131 171 -23 0 70 -31 135 -75 157 -39 21
-151 45 -206 45 l-43 0 0 128 c0 148 5 171 34 176 219 41 336 79 336 109 0 28
-35 58 -77 67 -47 11 -154 -1 -235 -25 l-48 -14 0 52 c0 150 37 418 72 529
l22 67 -28 40 c-61 88 -172 137 -258 114z"/>
<path d="M2445 2359 c-99 -40 -289 -94 -375 -105 -27 -3 -72 1 -113 10 -87 20
-146 21 -153 1 -3 -8 3 -39 15 -69 47 -127 56 -211 55 -536 -1 -321 -11 -465
-45 -669 -24 -140 -18 -201 27 -297 32 -69 51 -85 70 -59 19 25 33 77 41 147
3 32 11 58 17 58 6 0 112 9 236 20 124 11 235 20 248 20 26 0 29 -5 78 -173
35 -119 67 -197 82 -197 19 0 96 90 122 141 69 135 78 264 52 739 -8 135 -14
324 -15 420 -2 156 0 183 20 245 12 39 36 91 52 117 17 26 28 55 25 63 -15 37
-264 166 -322 165 -9 0 -62 -19 -117 -41z m96 -135 c24 -5 35 -15 49 -48 38
-85 45 -191 45 -646 0 -419 -9 -578 -35 -619 -5 -10 -23 1 -64 38 -35 32 -65
51 -81 51 -13 0 -73 -9 -132 -21 -133 -26 -326 -49 -335 -40 -3 3 -4 96 -1
207 l6 200 181 12 c177 11 289 31 313 55 21 20 -9 52 -62 67 -54 15 -99 10
-220 -25 -49 -15 -115 -27 -145 -28 l-55 -2 -3 160 -2 160 127 1 c140 1 312
31 344 60 25 23 9 51 -42 73 -45 21 -53 20 -278 -39 -68 -17 -127 -28 -131
-23 -5 4 -10 84 -12 176 l-3 168 35 9 c66 17 255 51 335 59 78 8 101 8 166 -5z"/>
</g>
</svg>
