<?xml version="1.0" standalone="no"?>
<!DOCTYPE svg PUBLIC "-//W3C//DTD SVG 20010904//EN"
 "http://www.w3.org/TR/2001/REC-SVG-20010904/DTD/svg10.dtd">
<svg version="1.0" xmlns="http://www.w3.org/2000/svg"
 width="340.000000pt" height="340.000000pt" viewBox="0 0 340.000000 340.000000"
 preserveAspectRatio="xMidYMid meet">
<metadata>
Created by potrace 1.15, written by Peter Selinger 2001-2017
</metadata>
<g transform="translate(0.000000,340.000000) scale(0.100000,-0.100000)"
fill="#000000" stroke="none">
<path d="M1973 2643 c-19 -7 -16 -19 21 -108 51 -118 67 -206 73 -407 l6 -177
-39 -10 c-123 -32 -168 -42 -253 -55 -52 -9 -99 -20 -104 -25 -41 -41 145 -69
321 -48 l62 8 0 -104 c0 -165 -10 -256 -29 -261 -18 -6 -316 -50 -435 -65
-109 -13 -119 -38 -35 -82 55 -28 118 -24 278 16 77 19 147 35 155 35 12 0 11
-12 -9 -70 -82 -242 -240 -424 -429 -495 -60 -22 -61 -24 -58 -56 2 -19 10
-48 17 -65 15 -37 82 -104 103 -104 9 0 63 22 122 50 59 27 172 71 251 98 174
60 469 137 479 125 4 -4 39 -56 79 -115 72 -107 138 -178 166 -178 26 0 49 60
50 130 0 53 -6 76 -30 125 -39 78 -164 204 -275 277 -103 68 -138 84 -146 64
-6 -14 59 -136 102 -193 13 -17 24 -34 24 -37 0 -3 -21 -6 -47 -6 -27 0 -124
-16 -218 -35 -207 -43 -407 -77 -414 -70 -5 6 3 15 164 166 123 115 232 233
248 266 8 18 5 30 -15 60 -14 21 -28 48 -32 59 -7 24 -20 21 209 56 109 16
193 21 380 23 249 2 285 7 285 43 0 26 -49 69 -99 87 -51 18 -203 20 -301 5
-36 -6 -130 -26 -210 -45 -80 -18 -160 -36 -177 -40 l-33 -7 0 59 c0 32 3 115
7 184 l6 126 56 12 c31 7 105 26 165 43 232 64 277 106 153 143 -73 22 -143
19 -243 -11 -49 -15 -100 -29 -113 -32 l-24 -5 7 99 c10 134 32 276 56 351 11
34 20 70 20 80 -1 21 -68 74 -130 102 -42 19 -136 27 -167 14z"/>
<path d="M1350 2181 c-47 -10 -164 -41 -260 -69 -96 -27 -211 -55 -255 -62
-117 -18 -196 -75 -133 -96 28 -9 306 -7 320 2 8 5 9 -16 5 -68 -6 -87 -49
-222 -112 -355 l-43 -91 -41 5 c-36 5 -42 3 -49 -17 -5 -13 -4 -44 1 -70 8
-43 6 -51 -18 -91 -47 -74 -129 -180 -226 -290 -50 -57 -111 -130 -135 -163
-68 -90 -59 -98 36 -34 74 49 238 211 330 326 35 44 65 80 66 79 4 -4 25 -195
34 -309 17 -225 82 -278 108 -89 5 34 13 66 18 71 5 5 63 23 127 40 228 57
302 115 235 182 -20 20 -20 25 -9 67 21 78 57 158 102 228 l43 66 -38 33 c-37
32 -105 61 -156 66 -14 1 -59 -14 -100 -34 -73 -34 -198 -74 -206 -65 -2 2 35
64 82 137 96 146 154 252 154 279 0 21 -43 63 -90 86 l-35 18 170 42 c235 59
345 104 345 140 0 8 -15 24 -32 35 -42 25 -121 25 -238 1z m-107 -806 c13 -38
-5 -185 -33 -277 -19 -63 -22 -66 -68 -86 -51 -22 -148 -52 -168 -52 -8 0 -13
47 -18 163 -4 89 -10 172 -13 185 -4 17 -1 22 13 22 11 0 71 18 134 40 63 22
121 39 129 37 8 -1 19 -15 24 -32z"/>
</g>
</svg>
