<?xml version="1.0" standalone="no"?>
<!DOCTYPE svg PUBLIC "-//W3C//DTD SVG 20010904//EN"
 "http://www.w3.org/TR/2001/REC-SVG-20010904/DTD/svg10.dtd">
<svg version="1.0" xmlns="http://www.w3.org/2000/svg"
 width="340.000000pt" height="340.000000pt" viewBox="0 0 340.000000 340.000000"
 preserveAspectRatio="xMidYMid meet">
<metadata>
Created by potrace 1.15, written by Peter Selinger 2001-2017
</metadata>
<g transform="translate(0.000000,340.000000) scale(0.100000,-0.100000)"
fill="#000000" stroke="none">
<path d="M2485 2445 c-38 -7 -119 -25 -180 -39 -137 -32 -322 -63 -439 -74
-87 -8 -91 -7 -140 20 -56 30 -111 37 -120 13 -3 -8 1 -32 9 -54 48 -136 66
-556 45 -1011 -17 -355 -42 -494 -104 -575 -14 -18 -26 -42 -26 -53 0 -34 31
-118 54 -147 l22 -28 82 37 c182 82 225 89 632 106 183 7 303 7 426 -1 213
-14 246 -3 193 65 -42 54 -102 78 -203 84 -90 4 -134 1 -511 -38 -104 -11
-254 -23 -332 -26 l-142 -7 6 299 c3 164 8 504 12 754 l6 455 65 7 c223 26
643 69 746 78 153 12 186 23 182 59 -2 20 -15 32 -58 53 -69 34 -135 41 -225
23z"/>
<path d="M1342 2270 c-23 -5 -129 -38 -235 -74 -105 -36 -232 -73 -282 -82
-134 -24 -157 -41 -84 -63 48 -14 184 -17 277 -6 l62 7 0 -32 c0 -49 -45 -173
-110 -299 -87 -170 -95 -181 -127 -181 -43 0 -73 -11 -73 -25 0 -8 8 -27 17
-43 17 -29 17 -30 -32 -107 -57 -91 -169 -237 -271 -352 -78 -88 -110 -131
-102 -139 3 -2 34 15 69 38 88 59 274 241 340 333 63 89 58 94 89 -94 21 -126
47 -193 83 -215 26 -16 47 17 47 74 l0 47 123 26 c251 53 338 114 281 195 -14
20 -13 26 12 83 16 34 47 87 71 117 24 31 43 63 43 73 0 36 -97 91 -191 109
-49 9 -51 9 -100 -30 -70 -55 -165 -107 -219 -119 -24 -5 -46 -8 -48 -7 -2 2
17 32 41 67 25 35 77 118 117 183 39 65 82 133 96 151 36 48 31 76 -22 125
-25 23 -44 43 -42 45 2 1 48 13 103 25 123 28 228 66 250 91 49 53 -67 103
-183 79z m-75 -748 c19 -12 25 -77 14 -154 -22 -137 -25 -143 -84 -167 -28
-12 -82 -30 -119 -40 l-67 -19 -5 36 c-14 89 -27 254 -22 267 3 8 16 15 29 15
25 0 78 15 167 49 61 23 70 24 87 13z"/>
<path d="M2195 2187 c-17 -14 -17 -17 4 -96 13 -48 25 -128 28 -191 6 -109 6
-109 -18 -115 -175 -41 -232 -45 -293 -20 -30 13 -35 -13 -15 -71 17 -47 19
-79 17 -252 -3 -173 -1 -201 15 -229 59 -108 113 65 106 335 l-4 136 93 20
c50 10 94 17 96 15 2 -2 0 -170 -6 -374 -11 -419 -8 -539 15 -562 13 -14 17
-13 31 9 37 57 43 124 74 801 l7 148 69 24 c64 23 94 29 124 26 31 -3 46 -72
46 -216 0 -221 -17 -252 -130 -239 -30 4 -54 3 -54 -2 0 -5 16 -21 35 -37 21
-17 48 -56 70 -101 19 -41 41 -79 49 -85 20 -17 56 1 100 49 74 82 97 174 89
360 -4 92 -2 124 12 160 43 117 43 110 5 142 -47 40 -128 78 -167 78 -18 0
-77 -18 -133 -39 -55 -21 -100 -35 -100 -31 0 4 9 49 20 101 30 144 28 161
-23 203 -43 35 -104 66 -130 66 -7 0 -21 -6 -32 -13z"/>
</g>
</svg>
