<?xml version="1.0" standalone="no"?>
<!DOCTYPE svg PUBLIC "-//W3C//DTD SVG 20010904//EN"
 "http://www.w3.org/TR/2001/REC-SVG-20010904/DTD/svg10.dtd">
<svg version="1.0" xmlns="http://www.w3.org/2000/svg"
 width="340.000000pt" height="340.000000pt" viewBox="0 0 340.000000 340.000000"
 preserveAspectRatio="xMidYMid meet">
<metadata>
Created by potrace 1.15, written by Peter Selinger 2001-2017
</metadata>
<g transform="translate(0.000000,340.000000) scale(0.100000,-0.100000)"
fill="#000000" stroke="none">
<path d="M2575 2505 c-198 -57 -445 -108 -586 -121 -70 -6 -80 -4 -120 19 -65
37 -156 62 -174 47 -19 -16 -19 -47 1 -101 30 -81 33 -120 18 -269 -42 -424
-129 -770 -263 -1045 -82 -167 -159 -277 -281 -404 -116 -120 -119 -136 -12
-82 72 36 193 148 278 257 188 241 301 521 385 957 8 46 14 57 26 53 65 -25
238 -30 321 -9 l25 6 -6 -76 c-21 -248 -125 -526 -275 -737 -68 -95 -223 -259
-342 -362 -36 -31 -63 -58 -60 -61 12 -12 102 30 192 89 234 155 418 386 519
652 23 61 25 62 54 55 17 -4 55 -5 85 -3 117 9 187 5 205 -10 15 -13 17 -25
10 -109 -3 -52 -17 -136 -30 -188 -25 -96 -99 -262 -135 -301 -25 -26 -45 -24
-139 19 -57 26 -91 36 -91 25 0 -2 39 -79 86 -170 66 -129 90 -166 105 -166
36 0 95 38 146 94 67 73 96 124 127 226 29 95 76 315 76 354 0 38 36 109 81
160 21 24 39 51 39 59 0 23 -77 87 -137 114 -63 29 -99 28 -238 -7 -117 -29
-190 -37 -183 -19 3 8 22 57 43 109 44 113 45 167 1 225 l-27 35 53 0 c30 0
108 7 173 15 66 8 183 20 260 26 151 11 185 23 185 64 0 30 -23 53 -78 77 -65
29 -128 24 -327 -27 -99 -25 -238 -57 -310 -70 -133 -24 -405 -59 -411 -52 -2
2 1 28 7 58 6 30 20 122 32 204 l22 150 105 8 c58 4 213 23 345 42 387 55 475
78 475 124 0 55 -153 95 -255 66z"/>
<path d="M1375 2370 c-86 -29 -271 -73 -485 -115 -102 -19 -200 -41 -219 -47
-31 -10 -33 -12 -17 -23 31 -24 150 -40 285 -40 l133 0 -6 -41 c-9 -67 -33
-132 -103 -271 l-65 -133 -56 7 -56 6 18 -29 c50 -77 54 -59 -35 -190 -113
-165 -217 -298 -312 -401 -44 -48 -76 -88 -70 -90 51 -17 297 192 437 371 l61
78 7 -173 c10 -227 17 -293 33 -315 13 -18 14 -18 33 -1 21 19 37 67 47 142
l6 51 179 32 c98 17 190 36 204 42 35 13 33 42 -4 73 -29 25 -29 26 -16 65 19
52 49 111 106 207 61 101 67 128 39 154 -26 24 -128 60 -180 63 -24 1 -51 -7
-81 -25 -46 -27 -184 -77 -212 -77 -10 0 1 26 38 88 126 207 166 280 166 302
0 13 -16 39 -39 61 -44 45 -50 41 94 64 212 34 330 81 323 128 -7 51 -149 72
-253 37z m-102 -760 c22 -42 18 -137 -10 -240 l-18 -65 -114 -33 c-62 -18
-115 -31 -117 -29 -6 6 -28 366 -23 371 9 9 178 34 219 33 41 -2 47 -5 63 -37z"/>
</g>
</svg>
