<?xml version="1.0" standalone="no"?>
<!DOCTYPE svg PUBLIC "-//W3C//DTD SVG 20010904//EN"
 "http://www.w3.org/TR/2001/REC-SVG-20010904/DTD/svg10.dtd">
<svg version="1.0" xmlns="http://www.w3.org/2000/svg"
 width="340.000000pt" height="340.000000pt" viewBox="0 0 340.000000 340.000000"
 preserveAspectRatio="xMidYMid meet">
<metadata>
Created by potrace 1.15, written by Peter Selinger 2001-2017
</metadata>
<g transform="translate(0.000000,340.000000) scale(0.100000,-0.100000)"
fill="#000000" stroke="none">
<path d="M2500 2674 c-94 -37 -317 -89 -528 -125 -180 -30 -186 -30 -248 -15
-77 20 -95 20 -119 2 -18 -13 -17 -16 8 -83 38 -103 50 -214 42 -378 -34 -717
-155 -1108 -456 -1483 -78 -97 -78 -112 2 -71 58 29 185 154 252 247 134 186
238 456 281 732 31 194 64 658 66 911 l0 36 142 27 c292 56 551 84 615 67 64
-17 70 -48 83 -416 5 -154 17 -419 26 -590 20 -385 16 -654 -12 -711 -16 -34
-24 -39 -56 -42 -22 -2 -77 9 -133 27 -52 17 -100 31 -105 31 -25 0 -5 -35 59
-105 41 -45 87 -111 115 -163 52 -98 88 -142 116 -142 45 0 144 157 175 277
21 84 22 157 3 473 -10 151 -22 445 -29 653 -13 415 -9 482 37 629 14 44 23
86 21 93 -9 22 -156 114 -209 130 -65 19 -70 19 -148 -11z"/>
<path d="M1325 2533 c-11 -3 -88 -27 -170 -53 -83 -27 -203 -62 -268 -79 -122
-32 -157 -45 -157 -61 0 -29 154 -56 243 -42 50 8 57 7 57 -8 0 -46 -87 -268
-158 -403 -46 -88 -46 -88 -79 -82 -40 7 -55 -15 -29 -44 9 -10 16 -22 16 -28
0 -5 -35 -63 -78 -129 -84 -128 -193 -263 -291 -359 -59 -58 -71 -75 -52 -75
5 0 49 27 98 59 102 68 231 193 312 300 l56 75 7 -50 c3 -27 7 -83 7 -124 2
-123 72 -248 114 -202 8 9 18 29 22 44 4 15 12 31 18 36 12 9 202 58 340 87
73 15 117 40 117 64 0 10 -43 47 -61 53 -23 8 34 169 93 260 16 27 28 54 25
62 -9 23 -111 67 -170 73 -47 5 -63 1 -118 -25 -64 -32 -238 -86 -247 -78 -6
7 150 263 203 334 25 33 45 68 45 78 -1 25 -27 57 -73 87 l-38 25 58 12 c153
30 282 64 318 84 33 18 40 27 40 51 0 24 -7 33 -35 47 -33 17 -117 22 -165 11z
m-85 -779 c14 -35 12 -126 -4 -207 -7 -37 -15 -69 -17 -71 -13 -13 -233 -86
-238 -79 -4 4 -16 75 -25 158 -10 82 -21 155 -23 162 -4 9 7 13 33 14 22 0 75
11 119 24 110 32 143 32 155 -1z"/>
<path d="M2052 2448 c-15 -15 -16 -45 -2 -53 18 -11 49 -139 52 -215 l3 -74
-87 -16 c-85 -16 -134 -41 -121 -63 4 -6 44 -7 109 -3 l104 7 0 -110 0 -110
-52 -15 c-29 -7 -90 -24 -136 -36 -121 -33 -124 -49 -11 -59 103 -10 193 3
401 55 247 63 279 81 203 117 -50 24 -127 21 -218 -8 -43 -14 -82 -25 -87 -25
-6 0 -10 45 -10 108 l0 107 95 22 c111 26 195 60 195 79 0 39 -103 49 -185 16
-27 -10 -63 -22 -79 -26 l-29 -7 7 43 c4 24 20 72 36 107 17 35 30 69 30 77 0
30 -121 94 -178 94 -15 0 -33 -5 -40 -12z"/>
<path d="M2255 1570 c-81 -34 -211 -69 -257 -71 -24 0 -74 7 -111 17 -92 23
-100 14 -54 -68 19 -35 45 -97 57 -138 12 -41 30 -105 41 -142 18 -63 59 -128
81 -128 5 0 19 22 30 49 21 48 22 49 72 55 28 4 107 20 176 37 227 55 221 51
175 99 -23 24 -24 29 -14 61 7 19 27 57 46 86 45 68 41 89 -21 127 -63 40
-148 46 -221 16z m39 -106 c12 -11 16 -35 16 -85 0 -81 -8 -102 -47 -118 -43
-17 -217 -51 -224 -43 -3 4 -17 52 -31 108 l-25 100 91 19 c203 40 200 40 220
19z"/>
</g>
</svg>
