<?xml version="1.0" standalone="no"?>
<!DOCTYPE svg PUBLIC "-//W3C//DTD SVG 20010904//EN"
 "http://www.w3.org/TR/2001/REC-SVG-20010904/DTD/svg10.dtd">
<svg version="1.0" xmlns="http://www.w3.org/2000/svg"
 width="340.000000pt" height="340.000000pt" viewBox="0 0 340.000000 340.000000"
 preserveAspectRatio="xMidYMid meet">
<metadata>
Created by potrace 1.15, written by Peter Selinger 2001-2017
</metadata>
<g transform="translate(0.000000,340.000000) scale(0.100000,-0.100000)"
fill="#000000" stroke="none">
<path d="M1993 2744 c-3 -9 2 -28 11 -43 49 -76 71 -169 82 -348 8 -145 25
-128 -175 -177 -143 -35 -174 -54 -135 -84 15 -11 48 -13 162 -9 l142 4 0
-113 c0 -63 -3 -114 -7 -114 -27 -1 -584 -78 -588 -82 -12 -12 30 -48 73 -62
47 -16 52 -16 163 13 63 16 146 34 183 39 l68 9 -5 -39 c-14 -105 -120 -235
-261 -318 -65 -39 -75 -49 -76 -73 0 -38 24 -78 65 -106 l34 -23 43 25 c81 47
269 105 519 160 l106 23 78 -68 c43 -37 84 -68 91 -68 8 0 21 11 30 25 21 33
12 104 -22 163 -40 69 -167 139 -301 167 -29 6 -33 4 -33 -14 0 -11 25 -49 55
-85 30 -35 55 -67 55 -70 0 -3 -9 -6 -21 -6 -11 0 -121 -20 -243 -45 -123 -25
-234 -45 -247 -45 -20 1 -12 12 56 75 44 40 119 104 167 142 48 37 87 72 87
78 1 5 -22 33 -51 62 -29 29 -48 53 -42 53 5 0 61 7 124 15 152 19 364 35 469
35 149 0 186 14 161 61 -12 22 -68 52 -126 68 -35 9 -58 7 -150 -15 -150 -35
-338 -73 -343 -69 -2 2 1 54 5 116 l9 113 110 23 c140 30 235 61 242 80 11 27
-15 62 -55 73 -33 10 -56 8 -161 -15 -67 -15 -124 -25 -127 -23 -7 8 17 183
36 266 22 94 20 102 -35 151 -81 70 -207 113 -222 75z"/>
<path d="M1365 2300 c-22 -3 -110 -28 -195 -57 -86 -29 -225 -70 -309 -92 -85
-22 -159 -45 -164 -50 -29 -29 45 -51 177 -51 l99 0 -5 -77 c-6 -88 -29 -163
-93 -299 l-44 -94 -45 6 c-56 8 -62 -2 -41 -71 l15 -50 -51 -80 c-81 -127
-202 -292 -294 -399 -47 -55 -85 -103 -85 -108 0 -19 31 -4 111 57 106 79 249
229 309 323 25 39 48 71 53 71 4 1 7 -72 7 -162 0 -166 12 -241 46 -294 12
-18 50 -32 55 -20 1 1 4 49 8 107 l6 105 189 38 c103 21 199 42 212 47 32 13
30 38 -5 87 l-29 41 33 76 c34 78 61 120 109 168 l28 27 -42 45 c-44 48 -124
86 -181 86 -16 0 -53 -12 -81 -26 -54 -27 -172 -74 -187 -74 -5 0 28 62 74
138 45 75 94 158 109 183 l26 46 -21 27 c-12 15 -42 40 -67 56 -44 27 -45 29
-22 34 125 25 227 53 285 77 73 30 145 81 145 103 0 41 -60 66 -135 56z m-161
-776 c13 -34 4 -142 -17 -209 -18 -55 -30 -74 -56 -92 -30 -20 -108 -48 -192
-68 l-26 -6 -5 163 c-3 90 -4 165 -2 167 4 4 253 59 275 60 9 1 20 -6 23 -15z"/>
<path d="M2389 1170 c-238 -52 -722 -111 -844 -103 -59 4 -85 1 -98 -9 -18
-13 -17 -17 17 -73 19 -33 46 -94 60 -135 29 -88 62 -247 53 -257 -9 -9 -360
-53 -424 -53 -29 0 -53 -3 -53 -8 0 -16 32 -53 58 -66 59 -30 110 -29 292 8
363 74 604 100 930 100 185 0 279 -5 385 -19 77 -11 165 -19 195 -20 53 0 55
1 58 29 5 38 -24 67 -101 102 -52 25 -74 29 -142 28 -44 0 -110 -3 -147 -7
l-67 -7 23 57 c47 115 68 158 112 225 50 75 51 93 7 140 -32 34 -128 77 -184
83 -24 2 -83 -4 -130 -15z m110 -106 c12 -15 21 -41 21 -61 0 -38 -29 -162
-61 -259 -23 -71 -17 -68 -176 -80 l-93 -7 29 84 c16 46 41 115 56 152 32 80
27 102 -30 139 -19 13 -35 26 -35 30 0 4 24 9 53 12 28 3 66 8 82 9 17 2 53 5
82 6 45 1 54 -2 72 -25z m-346 -134 c-2 -63 -11 -153 -20 -200 l-18 -85 -77
-3 -77 -3 6 49 c7 60 -10 162 -43 261 -14 40 -22 76 -19 79 8 8 132 20 195 18
l55 -1 -2 -115z m-301 -10 c9 -118 26 -225 43 -266 l13 -31 -112 -10 c-73 -7
-113 -7 -117 -1 -4 6 -10 45 -14 87 -3 42 -15 126 -25 186 -9 61 -17 111 -16
112 4 5 163 21 191 19 l30 -1 7 -95z"/>
</g>
</svg>
