<?xml version="1.0" standalone="no"?>
<!DOCTYPE svg PUBLIC "-//W3C//DTD SVG 20010904//EN"
 "http://www.w3.org/TR/2001/REC-SVG-20010904/DTD/svg10.dtd">
<svg version="1.0" xmlns="http://www.w3.org/2000/svg"
 width="340.000000pt" height="340.000000pt" viewBox="0 0 340.000000 340.000000"
 preserveAspectRatio="xMidYMid meet">
<metadata>
Created by potrace 1.15, written by Peter Selinger 2001-2017
</metadata>
<g transform="translate(0.000000,340.000000) scale(0.100000,-0.100000)"
fill="#000000" stroke="none">
<path d="M1623 2870 c-13 -5 -23 -14 -23 -19 0 -38 215 -261 252 -261 27 0 74
26 82 45 19 51 -4 127 -52 167 -54 45 -212 86 -259 68z"/>
<path d="M2310 2603 c-14 -2 -104 -19 -200 -38 -204 -40 -530 -94 -784 -130
l-180 -26 -60 26 c-66 29 -162 42 -186 26 -13 -9 -13 -14 2 -38 60 -95 63
-110 62 -263 -4 -391 -113 -847 -280 -1170 -53 -104 -162 -272 -233 -359 -28
-35 -49 -66 -47 -68 13 -13 53 16 121 89 362 384 558 893 610 1578 l6 85 242
33 c335 47 828 108 972 122 136 13 175 24 175 50 0 52 -128 100 -220 83z"/>
<path d="M2076 2391 c-4 -5 3 -31 15 -58 24 -55 49 -162 49 -210 0 -28 -4 -33
-22 -33 -35 -1 -257 -46 -266 -54 -4 -4 2 -14 13 -23 16 -12 39 -14 113 -9 93
6 93 5 87 -17 -27 -89 -156 -274 -278 -399 -48 -49 -86 -93 -83 -96 3 -3 39
11 78 31 133 65 244 186 328 357 l42 85 -6 -110 c-3 -60 -11 -137 -16 -170
-21 -125 -6 -210 40 -235 18 -10 25 -9 39 4 13 14 17 44 19 159 2 79 -1 183
-6 233 -6 49 -9 90 -7 92 1 1 29 -30 61 -70 32 -40 108 -123 169 -185 120
-122 141 -133 246 -133 105 0 298 42 306 66 2 6 -37 23 -93 39 -185 52 -341
121 -465 204 -93 62 -195 159 -182 172 5 5 70 18 144 30 174 26 214 38 214 64
0 26 -76 65 -125 65 -20 0 -76 -13 -125 -30 -123 -42 -125 -41 -125 23 1 28 7
69 14 90 14 37 14 38 -23 67 -20 17 -58 37 -85 45 -58 18 -63 18 -70 6z"/>
<path d="M1436 2281 c-3 -4 1 -39 9 -77 8 -38 15 -97 15 -130 0 -72 12 -66
-166 -84 -60 -7 -113 -15 -117 -19 -21 -20 30 -36 129 -39 57 -3 104 -7 104
-11 0 -14 -72 -127 -127 -200 -31 -41 -103 -121 -161 -178 -57 -57 -102 -106
-99 -109 7 -7 94 36 150 75 63 43 177 167 235 256 l52 79 0 -128 c0 -70 -5
-157 -11 -195 -19 -111 15 -226 54 -186 27 27 38 116 35 284 -2 89 -2 161 0
161 2 0 26 -25 55 -56 73 -80 112 -91 136 -38 24 53 -29 103 -147 141 l-53 17
3 54 3 54 128 32 c133 33 170 53 148 80 -7 8 -32 18 -56 22 -40 5 -90 -6 -192
-44 -18 -6 -16 102 2 153 13 36 13 41 -3 54 -42 33 -114 52 -126 32z"/>
<path d="M2195 1399 c-27 -5 -98 -21 -157 -34 -164 -38 -374 -72 -584 -95
-104 -11 -200 -25 -213 -31 -34 -14 -12 -35 57 -55 54 -16 121 -15 221 3 l34
6 -32 -59 c-127 -227 -378 -464 -680 -639 -66 -39 -120 -73 -121 -77 0 -14 50
-8 113 13 170 57 346 165 490 299 48 45 90 80 93 77 4 -3 13 -52 20 -109 28
-199 35 -234 57 -272 47 -83 87 -71 87 25 0 33 1 59 3 59 145 10 592 30 669
30 96 0 108 2 118 19 8 16 3 26 -35 59 l-45 39 30 46 c37 55 101 115 158 147
23 13 42 27 42 30 0 4 -10 22 -23 41 -26 40 -135 98 -219 118 -51 13 -59 12
-129 -12 -105 -36 -268 -68 -576 -111 -18 -3 -33 0 -33 5 0 6 43 54 95 108 52
54 95 102 95 108 0 12 -39 48 -65 58 -26 11 11 17 305 51 433 50 475 55 483
63 5 5 7 19 5 32 -7 51 -144 81 -263 58z m13 -501 c21 -21 13 -63 -23 -134
-62 -122 -36 -110 -336 -154 -145 -20 -266 -36 -268 -34 -7 7 -35 264 -29 270
7 6 246 39 395 53 137 13 247 13 261 -1z"/>
</g>
</svg>
