<?xml version="1.0" standalone="no"?>
<!DOCTYPE svg PUBLIC "-//W3C//DTD SVG 20010904//EN"
 "http://www.w3.org/TR/2001/REC-SVG-20010904/DTD/svg10.dtd">
<svg version="1.0" xmlns="http://www.w3.org/2000/svg"
 width="340.000000pt" height="340.000000pt" viewBox="0 0 340.000000 340.000000"
 preserveAspectRatio="xMidYMid meet">
<metadata>
Created by potrace 1.15, written by Peter Selinger 2001-2017
</metadata>
<g transform="translate(0.000000,340.000000) scale(0.100000,-0.100000)"
fill="#000000" stroke="none">
<path d="M1865 2459 c-286 -77 -417 -106 -540 -119 -163 -18 -179 -37 -77 -87
54 -26 64 -28 187 -27 96 0 172 8 290 28 173 31 524 107 567 124 105 42 -8
144 -156 141 -28 0 -150 -27 -271 -60z"/>
<path d="M2395 1929 c-376 -71 -1041 -173 -1521 -233 -155 -20 -289 -38 -298
-42 -44 -17 6 -56 113 -88 67 -20 136 -20 221 -1 219 48 413 86 538 105 165
25 155 29 192 -69 73 -191 62 -737 -16 -815 -20 -21 -107 -21 -186 0 -93 24
-97 15 -24 -44 36 -30 89 -84 118 -120 68 -89 129 -152 145 -152 25 0 92 72
116 123 46 99 52 146 48 372 -6 284 -6 485 -1 574 4 73 3 75 -29 101 -17 15
-50 33 -72 40 -25 9 -35 16 -27 20 42 23 630 50 900 43 193 -5 220 -4 242 11
14 9 26 23 26 31 0 27 -62 85 -124 114 -116 55 -196 61 -361 30z"/>
<path d="M1042 1288 c-28 -57 -78 -146 -113 -198 -62 -94 -63 -96 -67 -176 -4
-82 7 -124 41 -153 21 -17 75 7 112 50 86 102 164 380 141 503 -7 36 -36 76
-55 76 -6 0 -32 -46 -59 -102z"/>
<path d="M2155 1319 c142 -187 286 -334 398 -410 48 -31 62 -37 74 -27 56 46
57 153 3 242 -19 31 -50 72 -69 91 -74 76 -245 149 -383 162 l-72 6 49 -64z"/>
</g>
</svg>
