<?xml version="1.0" standalone="no"?>
<!DOCTYPE svg PUBLIC "-//W3C//DTD SVG 20010904//EN"
 "http://www.w3.org/TR/2001/REC-SVG-20010904/DTD/svg10.dtd">
<svg version="1.0" xmlns="http://www.w3.org/2000/svg"
 width="340.000000pt" height="340.000000pt" viewBox="0 0 340.000000 340.000000"
 preserveAspectRatio="xMidYMid meet">
<metadata>
Created by potrace 1.15, written by Peter Selinger 2001-2017
</metadata>
<g transform="translate(0.000000,340.000000) scale(0.100000,-0.100000)"
fill="#000000" stroke="none">
<path d="M2383 2904 c-3 -8 -3 -33 1 -55 3 -21 3 -51 0 -65 -4 -14 -69 -103
-145 -197 -77 -95 -139 -175 -139 -179 0 -18 28 -1 232 133 117 78 224 146
238 151 32 12 90 56 90 68 0 6 -16 27 -35 49 -55 60 -229 129 -242 95z"/>
<path d="M1026 2827 c-17 -12 -17 -16 -3 -43 18 -35 149 -162 206 -200 59 -38
109 -54 142 -42 55 19 62 110 14 174 -20 26 -45 38 -147 72 -152 50 -188 56
-212 39z"/>
<path d="M1717 2734 c-16 -16 -4 -46 52 -130 99 -151 136 -178 178 -130 26 31
32 106 11 151 -19 42 -218 132 -241 109z"/>
<path d="M2375 2363 c-11 -2 -126 -31 -255 -63 -129 -32 -284 -68 -344 -81
-73 -15 -118 -30 -135 -45 l-25 -21 24 -13 c18 -10 63 -11 187 -7 l162 7 10
-38 c6 -20 14 -76 17 -123 l7 -86 -54 -13 c-72 -17 -224 -67 -261 -86 -71 -37
5 -56 190 -47 l123 6 -3 -129 -3 -129 -65 -8 c-36 -5 -157 -21 -270 -37 -113
-16 -232 -32 -265 -35 -122 -12 -137 -29 -57 -63 137 -59 157 -58 414 7 84 21
174 41 201 45 l47 7 1 -483 c0 -266 4 -505 8 -531 10 -59 24 -76 47 -56 53 44
73 183 84 589 11 390 17 477 35 484 7 2 112 10 233 17 176 10 252 10 378 0
135 -11 159 -11 171 2 13 13 13 18 0 43 -21 40 -43 58 -107 88 -103 48 -144
51 -293 22 -111 -22 -375 -66 -392 -66 -3 0 -5 60 -5 133 l0 133 88 12 c176
26 322 67 322 92 0 6 -15 20 -32 31 -30 18 -44 20 -153 15 -66 -2 -144 -11
-172 -19 -63 -18 -62 -20 -36 91 16 71 16 73 -4 100 -11 15 -39 34 -63 43
l-43 16 119 17 c167 25 342 60 387 79 102 43 19 109 -135 106 -35 -1 -72 -3
-83 -6z"/>
<path d="M1136 2281 c-22 -21 -51 -43 -63 -50 -60 -31 -362 -115 -518 -143
-87 -16 -94 -37 -24 -80 77 -48 101 -47 238 12 127 54 312 120 338 120 21 0
12 -31 -43 -148 -107 -229 -281 -463 -557 -748 -59 -61 -107 -114 -107 -118 0
-20 52 3 147 66 131 88 325 278 428 420 39 53 73 97 78 97 10 1 9 -133 -3
-269 -14 -157 -37 -286 -71 -399 -16 -53 -29 -112 -29 -132 0 -86 76 -249 116
-249 50 0 74 191 81 648 3 199 8 362 10 362 2 0 30 -14 63 -30 58 -29 156 -60
191 -60 9 0 27 8 40 19 21 17 22 21 10 49 -7 17 -23 38 -36 46 -31 20 -118 44
-190 51 -51 5 -131 22 -143 31 -13 9 169 245 256 334 72 73 73 75 59 100 -18
29 -123 86 -186 99 -42 9 -45 8 -85 -28z"/>
</g>
</svg>
