<?xml version="1.0" standalone="no"?>
<!DOCTYPE svg PUBLIC "-//W3C//DTD SVG 20010904//EN"
 "http://www.w3.org/TR/2001/REC-SVG-20010904/DTD/svg10.dtd">
<svg version="1.0" xmlns="http://www.w3.org/2000/svg"
 width="340.000000pt" height="340.000000pt" viewBox="0 0 340.000000 340.000000"
 preserveAspectRatio="xMidYMid meet">
<metadata>
Created by potrace 1.15, written by Peter Selinger 2001-2017
</metadata>
<g transform="translate(0.000000,340.000000) scale(0.100000,-0.100000)"
fill="#000000" stroke="none">
<path d="M1924 2740 c-35 -14 -37 -28 -11 -60 27 -31 59 -120 76 -210 14 -69
31 -272 31 -366 l0 -72 -32 -5 c-150 -26 -195 -29 -248 -13 -61 18 -103 12
-96 -13 30 -98 36 -147 36 -301 -1 -149 -5 -229 -26 -498 -5 -63 -3 -97 10
-145 17 -64 58 -121 79 -114 43 14 56 133 65 596 l7 374 140 33 c292 70 428
71 476 4 28 -38 39 -295 26 -590 l-11 -236 27 -56 c39 -87 89 -90 125 -8 12
28 15 72 14 210 -1 96 4 271 12 387 12 197 15 217 40 264 14 28 26 59 26 69 0
22 -125 109 -192 134 -43 16 -44 16 -195 -27 l-153 -43 0 161 0 161 143 12
c328 26 542 144 332 183 -76 14 -120 7 -217 -36 -74 -33 -213 -75 -246 -75
-12 0 -13 12 -7 68 4 37 8 87 9 111 1 44 1 44 -59 77 -62 35 -132 44 -181 24z"/>
<path d="M1083 2692 c-28 -4 -37 -30 -19 -56 29 -43 168 -186 216 -221 27 -20
64 -39 83 -42 73 -11 100 86 52 184 -14 28 -34 54 -43 58 -145 58 -243 84
-289 77z"/>
<path d="M1242 2124 c-74 -74 -254 -132 -494 -159 -79 -9 -162 -19 -185 -21
-30 -4 -46 -12 -54 -26 -25 -47 36 -96 147 -117 45 -9 63 -4 277 70 l230 79
-6 -37 c-4 -20 -27 -77 -52 -127 -86 -172 -245 -371 -532 -667 -156 -161 -189
-199 -165 -199 17 0 168 90 254 150 111 77 315 277 384 375 l49 70 3 -85 c8
-197 -32 -584 -73 -702 -13 -40 -13 -55 -1 -125 14 -83 33 -130 61 -153 15
-13 20 -12 35 8 49 60 73 319 68 740 -2 160 -1 292 1 292 2 0 46 -40 97 -90
51 -49 109 -98 129 -107 l37 -18 24 28 c49 57 17 159 -62 198 -25 12 -83 25
-138 31 -90 11 -96 13 -105 39 -15 44 98 227 217 350 83 86 92 99 83 120 -5
13 -19 34 -32 46 -28 26 -127 73 -149 71 -8 0 -30 -16 -48 -34z"/>
<path d="M2028 1753 c-24 -6 -23 -11 14 -117 32 -89 33 -95 32 -251 -1 -138
-5 -173 -26 -256 -70 -261 -229 -455 -505 -614 -45 -26 -89 -55 -99 -66 -16
-18 -16 -19 2 -19 37 0 150 38 224 75 204 102 358 253 445 436 54 115 75 212
85 399 5 91 16 200 26 242 9 42 14 83 11 90 -2 8 -31 28 -63 45 -60 32 -115
45 -146 36z"/>
<path d="M2247 943 c-17 -4 50 -78 381 -425 73 -77 88 -78 116 -7 20 51 14 92
-26 176 -28 58 -38 67 -127 125 -146 95 -284 147 -344 131z"/>
</g>
</svg>
