<?xml version="1.0" standalone="no"?>
<!DOCTYPE svg PUBLIC "-//W3C//DTD SVG 20010904//EN"
 "http://www.w3.org/TR/2001/REC-SVG-20010904/DTD/svg10.dtd">
<svg version="1.0" xmlns="http://www.w3.org/2000/svg"
 width="340.000000pt" height="340.000000pt" viewBox="0 0 340.000000 340.000000"
 preserveAspectRatio="xMidYMid meet">
<metadata>
Created by potrace 1.15, written by Peter Selinger 2001-2017
</metadata>
<g transform="translate(0.000000,340.000000) scale(0.100000,-0.100000)"
fill="#000000" stroke="none">
<path d="M1807 2704 c-38 -54 -89 -89 -217 -151 -167 -80 -353 -150 -522 -198
-32 -8 -58 -20 -58 -25 0 -15 140 -12 222 5 40 9 115 27 166 42 51 14 94 24
96 22 21 -21 70 -468 54 -484 -6 -6 -176 -30 -590 -85 -119 -15 -222 -31 -227
-35 -38 -23 24 -68 114 -84 69 -12 174 0 366 44 99 22 257 55 267 55 14 0
-199 -327 -283 -435 -137 -175 -365 -373 -585 -508 -154 -94 -145 -128 20 -68
324 119 690 454 865 792 25 49 48 89 51 89 3 0 3 -57 -1 -127 -22 -449 -41
-672 -71 -833 -24 -130 -3 -243 60 -316 37 -43 47 -41 77 18 51 99 58 267 40
913 -5 154 -7 282 -5 284 1 2 16 -12 32 -30 305 -354 640 -722 674 -740 31
-17 222 -12 409 11 184 23 219 32 219 54 0 18 -31 29 -155 56 -225 50 -411
133 -597 266 -134 97 -350 270 -489 392 l-97 84 5 67 c3 36 8 69 12 73 12 13
226 29 487 36 198 5 265 10 277 21 61 50 -55 161 -168 161 -17 0 -119 -22
-226 -49 -212 -54 -359 -84 -368 -76 -9 10 0 76 24 175 13 52 27 116 30 141 7
44 5 48 -27 72 -18 13 -58 37 -88 52 l-55 28 260 64 c143 35 263 70 267 76 18
29 8 70 -27 102 -30 29 -166 95 -195 95 -6 0 -25 -21 -43 -46z"/>
</g>
</svg>
