<?xml version="1.0" standalone="no"?>
<!DOCTYPE svg PUBLIC "-//W3C//DTD SVG 20010904//EN"
 "http://www.w3.org/TR/2001/REC-SVG-20010904/DTD/svg10.dtd">
<svg version="1.0" xmlns="http://www.w3.org/2000/svg"
 width="340.000000pt" height="340.000000pt" viewBox="0 0 340.000000 340.000000"
 preserveAspectRatio="xMidYMid meet">
<metadata>
Created by potrace 1.15, written by Peter Selinger 2001-2017
</metadata>
<g transform="translate(0.000000,340.000000) scale(0.100000,-0.100000)"
fill="#000000" stroke="none">
<path d="M2160 2908 c0 -6 11 -39 24 -72 55 -139 59 -173 63 -692 l5 -481
-104 -22 c-120 -26 -327 -63 -483 -88 -122 -20 -134 -31 -76 -70 58 -39 91
-39 255 0 131 32 262 60 373 80 l32 6 3 -582 c3 -515 5 -586 19 -618 25 -55
37 -56 59 -6 49 110 70 370 70 863 l0 361 38 6 c20 4 139 11 262 17 234 11
297 19 311 42 13 19 12 22 -18 50 -48 45 -93 61 -179 66 -68 4 -103 -1 -228
-32 -81 -20 -154 -36 -163 -36 -13 0 -14 52 -10 458 3 251 10 482 16 512 5 30
13 78 17 106 l6 51 -50 31 c-28 17 -74 38 -103 46 -63 19 -139 21 -139 4z"/>
<path d="M1326 2788 c-3 -7 -9 -29 -16 -49 -17 -58 -65 -96 -299 -237 -121
-73 -223 -138 -226 -143 -11 -17 35 -9 187 35 84 25 156 43 159 40 14 -8 32
-153 33 -269 l1 -120 -130 -33 c-190 -47 -399 -90 -506 -102 -150 -18 -156
-24 -88 -84 78 -71 119 -72 294 -11 128 46 385 118 393 111 7 -8 -111 -192
-196 -306 -99 -132 -347 -386 -469 -480 -78 -59 -97 -80 -73 -80 22 0 229 111
300 161 138 97 354 328 467 498 9 13 9 -20 2 -173 -10 -209 -31 -374 -64 -500
-38 -147 -32 -289 18 -386 31 -60 49 -62 81 -8 54 93 59 134 65 630 l6 456 60
-35 c113 -67 207 -89 240 -57 30 31 -3 102 -64 137 -43 26 -134 32 -193 14
l-48 -15 0 89 c0 89 0 89 28 95 107 24 308 77 324 85 10 5 18 18 18 29 0 55
-109 65 -259 24 -51 -14 -95 -23 -98 -21 -8 8 19 180 37 239 22 70 14 85 -62
118 l-53 23 60 28 c65 29 160 61 240 79 63 14 115 39 115 54 0 42 -135 142
-215 160 -16 4 -38 9 -48 12 -9 3 -19 -1 -21 -8z"/>
<path d="M1766 2391 c-17 -28 208 -151 276 -151 32 0 39 4 44 25 9 38 -4 75
-38 107 -30 28 -32 28 -153 28 -68 0 -126 -4 -129 -9z"/>
<path d="M1825 2034 c-83 -12 -99 -31 -46 -58 16 -9 68 -40 117 -71 71 -45 96
-55 124 -53 34 3 35 4 38 49 5 79 -46 121 -158 132 -25 3 -58 3 -75 1z"/>
</g>
</svg>
