<?xml version="1.0" standalone="no"?>
<!DOCTYPE svg PUBLIC "-//W3C//DTD SVG 20010904//EN"
 "http://www.w3.org/TR/2001/REC-SVG-20010904/DTD/svg10.dtd">
<svg version="1.0" xmlns="http://www.w3.org/2000/svg"
 width="340.000000pt" height="340.000000pt" viewBox="0 0 340.000000 340.000000"
 preserveAspectRatio="xMidYMid meet">
<metadata>
Created by potrace 1.15, written by Peter Selinger 2001-2017
</metadata>
<g transform="translate(0.000000,340.000000) scale(0.100000,-0.100000)"
fill="#000000" stroke="none">
<path d="M1944 2756 c-3 -9 5 -44 19 -78 25 -66 42 -131 53 -209 l6 -46 -94
-23 c-145 -35 -198 -51 -198 -60 0 -13 60 -30 109 -30 25 0 68 7 95 15 87 27
86 28 86 -79 l0 -94 -152 -37 c-134 -32 -163 -36 -228 -30 -58 5 -79 3 -95 -8
-19 -15 -19 -16 13 -56 53 -66 82 -141 113 -298 33 -161 50 -210 75 -220 16
-6 38 13 47 40 3 10 131 36 185 36 l32 1 0 -114 0 -114 -77 -20 c-113 -30
-187 -42 -267 -43 -39 0 -79 -3 -88 -7 -16 -6 -16 -9 3 -39 11 -17 41 -42 65
-54 64 -31 126 -21 297 47 76 30 207 80 290 110 l151 54 56 -60 c62 -67 90
-75 116 -35 20 30 13 81 -17 119 -11 14 -48 41 -82 60 -108 60 -148 57 -107
-8 19 -32 20 -35 3 -40 -78 -23 -239 -66 -250 -66 -10 0 -13 26 -13 114 l0
113 108 17 c59 10 118 20 133 23 20 4 27 -1 37 -21 6 -14 18 -26 26 -26 30 0
90 91 173 260 70 143 94 183 134 222 l49 46 -25 30 c-37 44 -111 90 -173 108
-52 15 -56 15 -140 -11 -103 -32 -299 -75 -307 -67 -3 3 -5 45 -5 94 0 105
-15 93 175 132 191 40 256 77 205 118 -36 29 -117 23 -218 -16 -98 -37 -152
-52 -152 -39 1 30 25 106 48 151 32 64 27 76 -49 115 -68 35 -156 47 -165 23z
m530 -681 c-2 -86 -35 -217 -79 -310 l-25 -52 -113 -22 c-61 -13 -122 -25
-134 -28 -23 -5 -23 -3 -23 83 l0 89 112 27 c61 15 118 34 127 43 15 15 15 17
-2 29 -33 25 -109 28 -172 6 -32 -11 -60 -20 -62 -20 -1 0 -3 40 -3 90 l0 89
43 12 c99 26 226 48 277 46 l55 -2 -1 -80z m-454 -73 c0 -104 4 -99 -129 -128
-44 -10 -81 -21 -81 -25 0 -19 46 -30 118 -28 l77 2 3 -86 c3 -98 17 -85 -116
-112 -117 -24 -104 -39 -142 168 -19 100 -34 191 -34 201 -1 17 20 25 144 57
80 20 148 38 153 38 4 1 7 -39 7 -87z"/>
<path d="M1271 2556 c-6 -7 -24 -32 -39 -55 -50 -75 -181 -157 -359 -226 -41
-16 -73 -34 -73 -42 0 -18 87 -17 165 2 81 19 81 19 95 -17 12 -33 27 -298 17
-298 -3 0 -86 -18 -184 -40 -98 -21 -236 -48 -308 -57 -116 -17 -130 -21 -130
-38 0 -15 15 -26 58 -43 108 -43 133 -41 316 22 90 31 170 56 178 56 30 0
-137 -286 -274 -468 -48 -64 -138 -168 -200 -233 -62 -65 -113 -123 -113 -129
0 -16 88 32 177 99 148 109 287 265 398 447 26 43 57 93 67 109 l19 30 -6
-130 c-18 -387 -42 -637 -76 -769 -18 -70 -19 -88 -9 -145 25 -142 88 -219
119 -143 36 89 56 420 48 820 -3 160 -2 292 2 292 4 0 47 -36 96 -81 49 -44
102 -87 118 -96 27 -14 32 -13 56 5 38 28 37 60 -1 118 -40 60 -65 72 -185 93
l-94 16 7 100 c4 55 7 100 8 100 0 1 77 20 171 43 93 24 175 48 182 54 22 18
14 35 -24 53 -56 27 -162 17 -248 -23 -37 -18 -72 -32 -77 -32 -15 0 0 103 28
189 13 40 21 77 18 82 -3 5 -26 20 -51 33 l-46 23 114 40 c63 22 148 48 189
58 41 10 79 21 84 26 15 14 -41 86 -89 114 -66 39 -131 57 -144 41z"/>
<path d="M2570 1210 c-12 -9 -6 -19 40 -61 117 -109 270 -209 318 -209 24 0
42 19 42 45 0 33 -58 142 -87 165 -55 43 -277 86 -313 60z"/>
<path d="M1984 1115 c-7 -18 89 -139 155 -196 104 -89 175 -10 94 105 -23 33
-41 44 -103 66 -104 37 -139 43 -146 25z"/>
<path d="M1436 1013 c-10 -43 -35 -115 -57 -160 -44 -93 -44 -92 -24 -161 13
-43 20 -52 39 -52 30 0 49 22 83 95 26 56 28 69 28 185 0 125 -10 170 -39 170
-7 0 -19 -30 -30 -77z"/>
<path d="M1674 1065 c-4 -8 6 -55 21 -103 78 -252 223 -410 413 -451 185 -39
529 -12 679 55 42 18 54 28 49 40 -3 8 -6 17 -6 19 0 2 -47 40 -104 84 -57 44
-145 119 -195 167 -50 48 -94 84 -97 81 -3 -3 6 -28 20 -55 36 -71 76 -180 76
-207 0 -17 -10 -27 -42 -40 -117 -46 -322 -32 -504 36 -95 36 -183 147 -235
296 -27 79 -61 115 -75 78z"/>
</g>
</svg>
