<?xml version="1.0" standalone="no"?>
<!DOCTYPE svg PUBLIC "-//W3C//DTD SVG 20010904//EN"
 "http://www.w3.org/TR/2001/REC-SVG-20010904/DTD/svg10.dtd">
<svg version="1.0" xmlns="http://www.w3.org/2000/svg"
 width="340.000000pt" height="340.000000pt" viewBox="0 0 340.000000 340.000000"
 preserveAspectRatio="xMidYMid meet">
<metadata>
Created by potrace 1.15, written by Peter Selinger 2001-2017
</metadata>
<g transform="translate(0.000000,340.000000) scale(0.100000,-0.100000)"
fill="#000000" stroke="none">
<path d="M1462 2799 l-33 -10 33 -46 c71 -99 204 -200 283 -217 26 -6 36 -1
60 24 58 60 29 171 -55 215 -73 38 -216 54 -288 34z"/>
<path d="M2282 2529 c-57 -25 -252 -72 -447 -108 -161 -30 -648 -104 -761
-117 l-62 -6 -38 73 c-22 41 -45 74 -52 74 -8 0 -28 -36 -46 -85 -18 -47 -60
-139 -94 -205 -57 -110 -62 -126 -62 -183 0 -53 4 -67 25 -87 13 -14 28 -25
34 -25 30 0 142 164 201 294 21 47 35 67 52 71 123 29 993 144 1146 152 l122
6 0 -23 c0 -13 -22 -73 -49 -134 -57 -129 -71 -173 -50 -160 8 5 41 27 73 48
96 63 214 113 310 132 48 10 90 23 93 30 7 20 -25 72 -74 119 -46 44 -137 98
-228 133 -49 19 -51 19 -93 1z"/>
<path d="M1733 2123 c28 -53 133 -187 184 -235 50 -46 120 -88 146 -88 39 0
63 100 37 151 -34 64 -73 98 -162 143 -71 36 -108 49 -157 53 l-63 6 15 -30z"/>
<path d="M1285 2073 c-19 -129 -110 -250 -307 -405 -102 -81 -100 -94 7 -54
157 60 376 221 487 359 l30 37 -27 35 c-33 44 -93 75 -144 75 l-40 0 -6 -47z"/>
<path d="M1354 1678 c12 -85 17 -233 7 -247 -15 -23 -184 -50 -370 -60 -95 -5
-178 -14 -184 -20 -29 -29 91 -111 164 -111 20 0 99 16 175 36 77 20 149 39
162 42 l23 4 -24 -63 c-105 -278 -292 -504 -578 -699 -63 -43 -121 -85 -128
-94 -12 -14 -10 -16 14 -16 34 0 189 51 253 84 131 66 319 240 416 386 64 95
136 241 176 357 l32 92 150 35 c172 42 181 43 174 19 -17 -55 -48 -193 -65
-297 -57 -328 10 -522 213 -617 105 -49 189 -62 366 -56 164 6 215 16 349 67
81 31 171 98 171 127 0 8 -16 61 -35 116 -19 56 -42 145 -51 197 -9 52 -19
101 -24 109 -11 20 -23 -6 -55 -118 -32 -114 -72 -195 -117 -238 -96 -90 -437
-112 -594 -37 -80 38 -121 148 -111 295 15 200 59 321 157 421 69 71 71 85 18
137 -53 52 -180 79 -209 45 -19 -23 -94 -58 -187 -88 -89 -28 -122 -32 -122
-16 0 15 28 68 53 102 l21 28 -28 29 c-38 40 -112 77 -170 86 l-48 7 6 -44z"/>
</g>
</svg>
