<?xml version="1.0" standalone="no"?>
<!DOCTYPE svg PUBLIC "-//W3C//DTD SVG 20010904//EN"
 "http://www.w3.org/TR/2001/REC-SVG-20010904/DTD/svg10.dtd">
<svg version="1.0" xmlns="http://www.w3.org/2000/svg"
 width="340.000000pt" height="340.000000pt" viewBox="0 0 340.000000 340.000000"
 preserveAspectRatio="xMidYMid meet">
<metadata>
Created by potrace 1.15, written by Peter Selinger 2001-2017
</metadata>
<g transform="translate(0.000000,340.000000) scale(0.100000,-0.100000)"
fill="#000000" stroke="none">
<path d="M1538 2942 c-21 -2 -38 -7 -38 -11 0 -22 103 -162 152 -207 46 -42
131 -94 153 -94 16 0 45 70 45 111 0 122 -144 215 -312 201z"/>
<path d="M2320 2659 c-120 -48 -521 -113 -1325 -214 -39 -5 -40 -4 -68 45 -44
81 -74 76 -98 -15 -11 -42 -96 -222 -149 -315 -38 -66 -37 -119 4 -180 24 -36
28 -39 50 -29 49 23 120 147 177 311 l34 97 50 6 c27 4 174 24 325 46 585 82
953 119 1021 102 53 -14 59 -46 21 -127 -17 -36 -45 -86 -62 -111 -18 -26 -29
-49 -26 -53 4 -3 57 19 119 50 62 31 166 73 232 93 146 46 149 48 130 85 -36
70 -153 147 -299 196 -75 26 -98 28 -136 13z"/>
<path d="M1818 2273 c59 -75 162 -162 256 -218 52 -30 98 -55 103 -55 19 0 45
39 50 77 4 31 -1 47 -29 88 -19 28 -48 57 -68 67 -56 27 -205 67 -277 74 l-67
7 32 -40z"/>
<path d="M1282 2242 c-20 -75 -85 -164 -211 -289 -63 -62 -112 -116 -109 -119
8 -7 140 60 213 109 33 22 117 86 187 141 l126 101 -21 23 c-30 33 -95 69
-137 77 l-36 6 -12 -49z"/>
<path d="M1435 1953 c-8 -47 -53 -129 -114 -208 -61 -81 -261 -280 -396 -395
-129 -109 -205 -181 -205 -192 0 -28 208 69 345 160 61 40 147 112 221 184
l121 118 50 -11 50 -12 7 -91 c23 -331 16 -604 -22 -836 -22 -140 -20 -195 11
-256 46 -91 75 -96 101 -17 25 75 35 183 36 366 l0 168 38 -8 c20 -4 111 -8
202 -7 244 1 520 51 520 94 0 17 -40 51 -77 67 -66 27 -181 15 -511 -53 -96
-20 -175 -34 -177 -32 -1 1 0 65 2 140 5 115 9 138 22 143 9 2 99 9 201 15
255 15 347 27 400 53 65 32 67 61 4 88 -67 30 -164 29 -289 -4 -100 -26 -321
-77 -335 -77 -4 0 -1 28 6 63 21 99 19 116 -23 159 -20 21 -35 39 -32 41 9 8
629 107 728 117 101 10 151 24 158 46 7 22 -39 63 -89 80 -74 24 -161 14 -370
-46 -197 -56 -523 -133 -544 -128 -7 2 25 42 76 95 50 51 90 99 90 106 0 22
-63 75 -109 92 -71 25 -88 21 -96 -22z"/>
</g>
</svg>
