<?xml version="1.0" standalone="no"?>
<!DOCTYPE svg PUBLIC "-//W3C//DTD SVG 20010904//EN"
 "http://www.w3.org/TR/2001/REC-SVG-20010904/DTD/svg10.dtd">
<svg version="1.0" xmlns="http://www.w3.org/2000/svg"
 width="340.000000pt" height="340.000000pt" viewBox="0 0 340.000000 340.000000"
 preserveAspectRatio="xMidYMid meet">
<metadata>
Created by potrace 1.15, written by Peter Selinger 2001-2017
</metadata>
<g transform="translate(0.000000,340.000000) scale(0.100000,-0.100000)"
fill="#000000" stroke="none">
<path d="M1493 2803 c-13 -2 -23 -9 -23 -15 0 -18 69 -106 121 -152 88 -79
218 -128 247 -93 40 48 13 152 -51 201 -70 54 -194 78 -294 59z"/>
<path d="M2265 2514 c-188 -35 -526 -75 -925 -108 -354 -30 -349 -29 -354 -15
-15 52 -39 109 -45 109 -4 0 -14 -19 -21 -42 -17 -58 -74 -170 -123 -242 -77
-114 -101 -224 -59 -276 17 -22 19 -22 50 -6 49 25 107 122 190 317 l20 46
106 7 c59 4 205 18 324 32 119 13 316 36 437 49 283 33 555 44 572 24 15 -19
2 -90 -33 -172 -14 -34 -31 -74 -37 -89 -6 -15 -8 -30 -4 -34 3 -4 44 12 89
35 99 49 174 70 285 78 45 3 87 9 94 13 21 14 -22 82 -85 132 -75 60 -291 168
-331 167 -17 -1 -84 -12 -150 -25z"/>
<path d="M1354 2223 c-32 -107 -117 -184 -361 -328 -46 -27 -83 -52 -83 -57 0
-16 70 -5 169 27 24 7 24 7 17 -45 -10 -72 -40 -151 -95 -244 -52 -89 -84
-117 -168 -150 -70 -27 -83 -48 -83 -136 0 -90 5 -94 68 -65 92 43 374 125
428 125 21 0 -6 -37 -103 -140 -90 -96 -195 -182 -320 -262 -84 -54 -94 -64
-104 -101 -17 -62 5 -177 34 -177 5 0 36 16 68 35 83 51 242 124 409 188 202
77 184 74 205 28 22 -50 59 -85 79 -78 9 4 25 21 36 39 49 80 4 190 -105 253
-22 13 -53 25 -70 27 -39 4 -43 -20 -15 -91 11 -28 20 -53 20 -56 0 -6 -391
-98 -396 -93 -2 3 109 113 248 246 339 321 322 303 314 345 -8 41 -69 115
-110 132 l-30 13 -22 -67 c-30 -88 -72 -161 -98 -171 -12 -4 -100 -11 -196
-14 l-175 -7 35 20 c84 47 320 295 320 337 0 23 -34 63 -90 105 -19 15 -33 29
-30 30 3 2 55 28 115 58 119 58 295 167 295 183 0 16 -62 70 -95 83 -16 7 -47
16 -68 19 -31 6 -38 4 -43 -11z"/>
<path d="M1840 2205 c0 -4 21 -31 47 -61 55 -65 182 -163 263 -204 52 -26 59
-28 71 -14 28 34 -1 135 -56 189 -38 39 -325 118 -325 90z"/>
<path d="M1938 1835 c-3 -3 -3 -63 -1 -133 4 -97 2 -131 -9 -144 -9 -12 -49
-21 -142 -32 -192 -24 -206 -30 -144 -62 25 -13 50 -15 122 -11 50 3 103 9
118 12 l27 7 -15 -56 c-8 -31 -30 -95 -48 -144 -125 -326 -335 -592 -628 -793
-49 -33 -88 -64 -88 -70 0 -20 64 -7 128 25 132 67 254 157 372 275 182 183
298 377 386 648 26 79 51 143 56 143 5 0 51 5 102 11 69 8 103 8 136 -1 l43
-12 -7 -131 c-15 -282 -84 -492 -197 -603 -36 -35 -37 -35 -80 -24 -24 7 -74
27 -111 46 -65 33 -68 33 -68 13 0 -11 20 -48 44 -82 24 -34 68 -110 97 -169
30 -63 58 -108 67 -108 55 0 174 113 231 219 45 85 104 270 141 445 37 173 53
220 109 306 23 35 41 67 41 72 0 26 -81 93 -162 133 -96 48 -109 49 -180 14
-41 -21 -187 -63 -194 -56 -2 2 9 30 26 63 16 32 30 66 30 74 0 26 -61 92
-104 111 -40 18 -87 25 -98 14z"/>
</g>
</svg>
