<?xml version="1.0" standalone="no"?>
<!DOCTYPE svg PUBLIC "-//W3C//DTD SVG 20010904//EN"
 "http://www.w3.org/TR/2001/REC-SVG-20010904/DTD/svg10.dtd">
<svg version="1.0" xmlns="http://www.w3.org/2000/svg"
 width="340.000000pt" height="340.000000pt" viewBox="0 0 340.000000 340.000000"
 preserveAspectRatio="xMidYMid meet">
<metadata>
Created by potrace 1.15, written by Peter Selinger 2001-2017
</metadata>
<g transform="translate(0.000000,340.000000) scale(0.100000,-0.100000)"
fill="#000000" stroke="none">
<path d="M1518 2803 c-24 -6 -23 -8 17 -63 52 -70 150 -158 212 -188 l53 -26
21 21 c25 25 29 77 10 143 -13 49 -49 81 -118 106 -36 12 -157 17 -195 7z"/>
<path d="M2295 2570 c-135 -45 -485 -100 -910 -144 -132 -14 -261 -28 -286
-31 l-47 -5 -7 37 c-10 54 -33 95 -52 91 -9 -2 -45 -59 -82 -133 -37 -72 -82
-155 -100 -185 -54 -88 -52 -159 5 -181 63 -23 144 64 199 214 l27 74 96 6
c53 4 250 29 437 56 187 27 400 55 473 61 152 14 293 10 316 -9 26 -22 19 -80
-19 -158 -40 -82 -43 -98 -17 -88 104 42 235 77 308 82 110 8 119 15 91 73
-34 72 -130 160 -229 208 -109 53 -129 56 -203 32z"/>
<path d="M1800 2283 c0 -21 84 -139 134 -187 29 -28 75 -64 104 -79 l52 -28
20 33 c17 27 20 44 16 88 -4 47 -10 59 -38 83 -58 49 -151 89 -222 94 -40 4
-66 2 -66 -4z"/>
<path d="M1375 2213 c-22 -58 -110 -152 -217 -235 -43 -32 -78 -63 -78 -67 0
-26 225 67 345 143 68 43 125 94 125 112 0 6 -20 30 -45 53 -34 31 -53 41 -78
41 -32 0 -36 -4 -52 -47z"/>
<path d="M2025 1888 c-49 -16 -147 -43 -217 -59 -110 -25 -134 -28 -175 -19
-57 13 -93 6 -93 -18 0 -9 5 -35 10 -57 23 -94 30 -264 18 -383 -7 -64 -13
-155 -13 -200 0 -75 2 -86 23 -102 28 -23 47 -17 61 18 25 60 32 140 38 400
l6 272 51 15 c225 65 387 69 414 10 22 -48 24 -178 7 -395 -9 -117 -14 -234
-10 -259 10 -66 31 -101 60 -101 54 0 66 53 85 395 l12 200 43 95 c50 107 50
108 -29 154 -48 28 -157 66 -183 65 -10 -1 -58 -14 -108 -31z"/>
<path d="M1030 1811 c-12 -9 -10 -19 18 -73 52 -102 50 -107 -38 -135 -41 -13
-113 -30 -159 -38 -47 -8 -86 -17 -89 -19 -9 -9 12 -29 44 -42 45 -19 94 -18
192 6 46 11 86 20 89 20 6 0 -3 -113 -14 -182 -5 -34 -10 -39 -44 -48 -97 -26
-354 -80 -447 -94 -56 -8 -107 -18 -112 -21 -18 -11 9 -44 62 -74 67 -38 114
-46 164 -27 256 96 338 125 342 121 12 -11 -23 -127 -64 -215 -73 -155 -194
-299 -359 -429 -44 -35 -81 -67 -83 -71 -6 -16 115 22 178 57 149 81 272 212
358 380 26 51 49 93 52 93 3 0 25 -30 50 -67 25 -36 70 -93 101 -126 59 -65
74 -69 104 -23 15 22 15 33 5 75 -19 79 -94 143 -205 176 -22 7 -40 16 -40 21
0 5 9 43 19 86 l19 76 71 28 c147 57 216 93 210 108 -3 8 -16 17 -28 20 -22 5
-153 -22 -210 -44 l-29 -11 6 68 c4 37 7 87 7 111 0 29 4 42 14 42 8 0 44 9
80 21 68 20 134 67 123 86 -15 24 -109 22 -191 -3 -17 -6 -18 -2 -11 44 6 49
6 50 -30 78 -39 30 -127 44 -155 25z"/>
<path d="M1834 1604 c14 -60 18 -245 7 -340 -34 -288 -189 -505 -477 -670 -47
-27 -95 -57 -107 -67 -22 -18 -22 -18 23 -12 72 10 219 63 284 103 155 93 267
243 336 450 24 73 89 356 107 468 7 46 -47 86 -124 92 l-56 5 7 -29z"/>
<path d="M1945 837 c0 -264 1 -271 61 -331 68 -67 174 -96 359 -96 214 0 373
43 464 126 42 37 42 38 36 88 -4 28 -18 96 -30 151 -13 55 -27 124 -31 153 -4
29 -10 55 -15 58 -4 2 -18 -28 -29 -68 -44 -149 -61 -196 -89 -240 -27 -42
-35 -47 -122 -76 -176 -58 -323 -61 -428 -8 -81 41 -86 53 -85 175 1 74 8 127
22 176 14 48 18 75 11 87 -13 24 -61 48 -96 48 l-28 0 0 -243z"/>
</g>
</svg>
