<?xml version="1.0" standalone="no"?>
<!DOCTYPE svg PUBLIC "-//W3C//DTD SVG 20010904//EN"
 "http://www.w3.org/TR/2001/REC-SVG-20010904/DTD/svg10.dtd">
<svg version="1.0" xmlns="http://www.w3.org/2000/svg"
 width="340.000000pt" height="340.000000pt" viewBox="0 0 340.000000 340.000000"
 preserveAspectRatio="xMidYMid meet">
<metadata>
Created by potrace 1.15, written by Peter Selinger 2001-2017
</metadata>
<g transform="translate(0.000000,340.000000) scale(0.100000,-0.100000)"
fill="#000000" stroke="none">
<path d="M1966 2933 c-3 -4 -4 -39 0 -79 11 -117 -12 -186 -126 -378 -27 -47
-77 -118 -109 -159 -48 -60 -57 -77 -44 -81 49 -19 188 106 323 292 66 91 78
102 98 97 49 -12 309 -5 383 10 80 17 179 58 179 74 0 31 -94 80 -154 81 -21
0 -119 -27 -218 -60 -99 -34 -182 -59 -185 -56 -2 2 14 34 38 71 46 73 51 107
23 136 -38 37 -185 75 -208 52z"/>
<path d="M1135 2874 c-14 -14 -16 -26 -9 -63 13 -75 6 -143 -22 -222 -50 -138
-125 -275 -233 -423 -59 -81 -63 -90 -47 -102 57 -41 189 94 369 377 l67 106
143 6 c138 7 288 32 345 59 36 18 35 49 -2 67 -59 28 -108 26 -228 -12 -141
-45 -228 -67 -228 -59 0 4 16 33 35 65 39 65 45 115 18 139 -28 24 -115 66
-155 73 -26 5 -39 2 -53 -11z"/>
<path d="M2035 2430 c-12 -20 7 -49 68 -106 74 -68 143 -114 172 -114 32 0 55
31 55 75 0 33 -7 45 -48 85 -40 38 -59 49 -107 58 -72 15 -132 15 -140 2z"/>
<path d="M1198 2344 c-15 -14 -8 -26 50 -86 116 -123 175 -147 212 -85 28 45
25 65 -14 101 -44 42 -226 93 -248 70z"/>
<path d="M2070 2063 c-19 -2 -136 -24 -260 -48 -205 -41 -398 -72 -555 -90
-68 -8 -125 -28 -125 -45 0 -6 17 -18 38 -28 41 -18 242 -23 365 -9 l67 8 0
-160 0 -159 -32 -6 c-47 -8 -783 -103 -902 -116 -161 -17 -176 -27 -114 -73
90 -68 172 -81 293 -48 145 40 663 141 722 141 l22 0 3 -502 c4 -526 8 -578
49 -586 21 -4 53 69 85 193 25 97 26 112 33 505 l6 405 220 8 c121 4 328 6
460 3 254 -5 349 4 378 33 17 17 18 21 3 48 -20 40 -54 61 -132 80 -63 16 -76
15 -312 -11 -287 -31 -603 -57 -614 -50 -4 3 -8 75 -8 159 0 178 -17 156 135
175 117 15 273 48 306 65 55 29 62 71 15 93 -30 13 -101 21 -146 15z"/>
</g>
</svg>
