<?xml version="1.0" standalone="no"?>
<!DOCTYPE svg PUBLIC "-//W3C//DTD SVG 20010904//EN"
 "http://www.w3.org/TR/2001/REC-SVG-20010904/DTD/svg10.dtd">
<svg version="1.0" xmlns="http://www.w3.org/2000/svg"
 width="340.000000pt" height="340.000000pt" viewBox="0 0 340.000000 340.000000"
 preserveAspectRatio="xMidYMid meet">
<metadata>
Created by potrace 1.15, written by Peter Selinger 2001-2017
</metadata>
<g transform="translate(0.000000,340.000000) scale(0.100000,-0.100000)"
fill="#000000" stroke="none">
<path d="M1973 2868 c-4 -7 -8 -49 -8 -93 0 -70 -5 -90 -37 -163 -52 -118
-112 -220 -185 -312 l-63 -80 35 0 c20 0 54 9 77 21 53 27 168 144 233 237
l50 71 136 1 c154 0 274 18 393 58 67 22 82 31 84 50 3 18 -5 26 -44 44 -63
27 -156 20 -274 -20 -105 -36 -237 -68 -246 -59 -3 3 8 30 26 59 42 68 50 118
22 146 -40 40 -181 67 -199 40z"/>
<path d="M1114 2799 c-5 -8 -9 -50 -9 -94 0 -69 -6 -92 -37 -167 -43 -105
-136 -262 -223 -381 -36 -48 -65 -94 -65 -102 0 -20 40 -28 73 -16 61 23 177
155 305 348 l61 91 43 -10 c65 -16 253 -12 338 6 133 29 168 68 101 113 -43
29 -108 30 -206 3 -134 -37 -237 -61 -247 -58 -5 2 6 26 26 53 81 114 81 154
-2 194 -58 29 -146 39 -158 20z"/>
<path d="M2037 2383 c-28 -28 21 -90 121 -154 80 -50 149 -46 167 10 8 27 -20
78 -53 95 -78 40 -215 69 -235 49z"/>
<path d="M1190 2299 c0 -56 134 -199 186 -199 12 0 30 10 38 22 53 76 -38 179
-172 195 -50 6 -52 5 -52 -18z"/>
<path d="M1563 2050 c-31 -13 -29 -44 7 -88 16 -20 48 -86 70 -147 23 -60 52
-132 66 -160 13 -27 20 -53 16 -56 -4 -3 -59 -25 -122 -49 -160 -59 -270 -110
-270 -126 0 -18 10 -23 69 -34 59 -11 119 2 244 54 137 56 121 60 168 -41 23
-48 61 -130 85 -180 l43 -93 -32 -24 c-106 -80 -414 -242 -534 -281 -73 -23
-69 -40 7 -32 144 16 301 70 500 174 l125 65 20 -28 c239 -331 383 -467 607
-574 65 -31 104 -44 152 -47 84 -7 91 4 74 109 -6 40 -12 164 -12 275 -1 130
-5 202 -11 200 -5 -1 -45 -73 -87 -160 -85 -171 -94 -180 -162 -157 -60 19
-152 86 -233 168 -84 85 -237 277 -231 291 3 9 112 100 201 168 119 91 135
116 102 153 -26 28 -159 94 -177 88 -9 -4 -18 -25 -22 -50 -9 -57 -55 -127
-129 -193 -33 -30 -63 -55 -67 -55 -11 0 -152 300 -147 313 3 7 40 24 84 40
116 40 263 117 287 150 l21 29 -24 19 c-46 38 -136 20 -310 -62 -57 -27 -107
-47 -110 -44 -14 8 -32 116 -35 205 -2 61 -8 97 -19 114 -27 41 -169 84 -214
66z"/>
<path d="M2170 2011 c-50 -14 -36 -43 47 -98 153 -102 239 -127 261 -78 34 75
-10 139 -115 168 -60 17 -147 21 -193 8z"/>
<path d="M1116 1934 c-9 -9 -16 -32 -16 -54 0 -93 -87 -242 -253 -435 -128
-149 -261 -274 -452 -428 -71 -58 -20 -65 82 -11 143 76 325 213 501 378 l82
78 0 -115 c0 -127 -15 -340 -31 -432 -5 -33 -21 -99 -35 -146 -24 -77 -25 -91
-15 -141 14 -66 49 -137 74 -152 39 -23 69 61 91 254 18 150 40 661 31 693 -4
12 -21 40 -38 61 l-30 39 22 18 c12 10 47 53 78 96 119 165 121 170 78 221
-31 37 -112 92 -136 92 -10 0 -25 -7 -33 -16z"/>
</g>
</svg>
