<?xml version="1.0" standalone="no"?>
<!DOCTYPE svg PUBLIC "-//W3C//DTD SVG 20010904//EN"
 "http://www.w3.org/TR/2001/REC-SVG-20010904/DTD/svg10.dtd">
<svg version="1.0" xmlns="http://www.w3.org/2000/svg"
 width="340.000000pt" height="340.000000pt" viewBox="0 0 340.000000 340.000000"
 preserveAspectRatio="xMidYMid meet">
<metadata>
Created by potrace 1.15, written by Peter Selinger 2001-2017
</metadata>
<g transform="translate(0.000000,340.000000) scale(0.100000,-0.100000)"
fill="#000000" stroke="none">
<path d="M1875 2856 c0 -82 -2 -87 -53 -188 -28 -57 -93 -157 -142 -223 -96
-128 -107 -151 -63 -141 66 17 222 159 318 289 33 45 54 66 64 62 76 -29 306
-25 488 10 140 27 166 68 75 114 -81 41 -69 43 -416 -53 -71 -20 -131 -34
-133 -32 -3 2 17 40 43 85 41 71 45 83 33 98 -25 29 -111 63 -164 63 l-50 0 0
-84z"/>
<path d="M1019 2868 c-1 -2 -3 -41 -4 -88 -3 -96 -25 -170 -85 -291 -43 -84
-148 -245 -210 -319 -94 -114 -74 -134 42 -42 92 74 230 218 288 300 l44 62
66 0 c36 0 131 11 211 24 189 31 262 67 232 114 -23 37 -67 35 -256 -12 -100
-25 -193 -49 -205 -52 l-24 -7 22 42 c11 23 37 67 56 96 54 85 58 103 32 126
-30 25 -111 49 -165 49 -24 0 -44 -1 -44 -2z"/>
<path d="M1995 2484 c-51 -13 -51 -15 14 -74 74 -67 158 -116 218 -126 35 -5
43 -3 57 17 40 58 -7 134 -102 162 -58 18 -156 28 -187 21z"/>
<path d="M1086 2352 c-7 -12 30 -81 63 -116 32 -36 109 -86 131 -86 25 0 60
43 60 72 0 37 -26 63 -103 103 -66 34 -139 47 -151 27z"/>
<path d="M1476 2207 c-17 -12 -17 -16 -2 -60 9 -26 19 -72 22 -101 l7 -55 -34
-5 c-19 -3 -101 -15 -184 -26 -194 -27 -205 -29 -205 -45 0 -7 26 -23 57 -35
56 -21 60 -21 178 -6 66 9 138 17 160 18 l40 3 3 -99 c1 -55 -1 -103 -5 -107
-4 -4 -93 -22 -198 -40 -190 -32 -190 -32 -270 -15 -87 18 -155 21 -155 7 0
-4 33 -58 73 -118 41 -60 86 -135 102 -167 28 -57 79 -111 96 -100 15 9 10
114 -11 208 -11 49 -19 90 -17 91 3 3 369 65 380 65 4 0 7 -39 7 -86 l0 -87
-69 -81 c-86 -102 -272 -285 -376 -371 -116 -96 -302 -226 -437 -307 -118 -71
-154 -98 -127 -98 42 0 139 38 282 109 278 138 452 257 621 423 55 54 100 97
101 95 6 -9 -17 -387 -31 -495 -22 -182 -7 -297 49 -376 l20 -29 24 27 c12 15
31 52 40 84 16 51 18 96 14 457 l-4 400 84 -78 c241 -223 440 -385 617 -504
84 -56 100 -63 143 -63 91 0 406 55 462 81 31 14 33 22 12 43 -17 17 -30 21
-201 60 -265 62 -650 245 -1017 482 l-98 64 3 137 3 138 140 28 c77 15 182 30
234 34 l94 6 -5 -80 c-5 -60 -13 -95 -34 -139 l-29 -59 -59 -3 c-32 -2 -71 1
-87 7 -63 22 -41 -15 90 -152 35 -36 64 -57 78 -57 55 0 126 99 173 245 29 88
45 120 86 171 19 23 34 45 34 51 0 26 -101 98 -174 124 l-54 18 -103 -35
c-108 -37 -333 -94 -368 -94 -20 0 -21 6 -21 104 l0 104 53 7 c82 11 231 43
310 66 120 36 147 64 85 90 -52 22 -170 16 -288 -15 -58 -16 -118 -30 -134
-33 -31 -6 -31 -10 -4 79 13 44 4 59 -53 89 -44 22 -97 25 -123 6z"/>
</g>
</svg>
