<?xml version="1.0" standalone="no"?>
<!DOCTYPE svg PUBLIC "-//W3C//DTD SVG 20010904//EN"
 "http://www.w3.org/TR/2001/REC-SVG-20010904/DTD/svg10.dtd">
<svg version="1.0" xmlns="http://www.w3.org/2000/svg"
 width="340.000000pt" height="340.000000pt" viewBox="0 0 340.000000 340.000000"
 preserveAspectRatio="xMidYMid meet">
<metadata>
Created by potrace 1.15, written by Peter Selinger 2001-2017
</metadata>
<g transform="translate(0.000000,340.000000) scale(0.100000,-0.100000)"
fill="#000000" stroke="none">
<path d="M2018 2972 c-10 -2 -18 -7 -19 -10 0 -4 -1 -38 -2 -77 -3 -95 -40
-160 -173 -308 -57 -64 -104 -121 -104 -127 0 -48 210 86 318 204 l44 48 102
-11 c123 -14 249 -3 390 34 140 36 184 66 148 98 -49 44 -135 41 -317 -12
-106 -30 -252 -58 -261 -48 -8 8 21 59 50 86 40 37 34 63 -19 90 -45 23 -126
40 -157 33z"/>
<path d="M1151 2897 c-7 -9 -8 -24 -1 -48 6 -18 7 -50 4 -69 -15 -89 -122
-260 -256 -413 -63 -71 -63 -86 3 -73 68 13 154 94 276 258 60 81 67 87 92 80
57 -16 243 -5 352 20 123 29 149 41 149 69 0 45 -111 52 -251 14 -124 -33
-207 -50 -215 -43 -3 4 6 26 20 51 28 47 34 98 14 115 -17 14 -132 52 -156 52
-11 0 -25 -6 -31 -13z"/>
<path d="M2086 2571 c-9 -13 -5 -19 51 -94 68 -88 128 -110 173 -62 23 25 23
26 7 61 -14 27 -31 42 -82 66 -72 33 -139 46 -149 29z"/>
<path d="M1230 2512 c0 -30 64 -135 102 -167 25 -21 38 -25 61 -21 61 12 70
41 38 111 -15 34 -27 43 -77 63 -32 12 -74 25 -91 28 -29 6 -33 4 -33 -14z"/>
<path d="M1577 2393 c-4 -3 -7 -43 -8 -87 -2 -132 1 -129 -109 -143 -52 -6
-163 -17 -247 -24 -84 -7 -157 -16 -164 -20 -29 -18 50 -64 127 -74 41 -6 185
8 336 31 l37 6 -29 -88 c-17 -49 -33 -91 -38 -96 -4 -4 -68 -14 -142 -23 -193
-23 -244 -47 -130 -60 34 -4 102 -4 151 0 l91 7 -7 -23 c-4 -13 -21 -56 -37
-96 -29 -71 -30 -72 -71 -78 -75 -10 -428 -44 -577 -55 -174 -13 -210 -18
-210 -30 0 -6 30 -23 66 -40 80 -36 118 -37 276 -11 160 27 407 56 414 48 9
-9 -86 -153 -180 -272 -151 -190 -330 -353 -552 -501 -62 -42 -118 -82 -125
-90 -27 -33 47 -11 158 47 224 116 394 239 539 392 l92 95 38 -13 c55 -20 95
-18 257 9 140 24 450 66 488 66 18 0 19 -9 19 -207 0 -227 -11 -367 -32 -410
-12 -26 -17 -28 -73 -27 -33 0 -95 4 -137 9 -59 6 -78 5 -78 -4 0 -7 31 -42
69 -79 37 -37 87 -95 109 -129 23 -33 53 -70 68 -82 24 -19 29 -19 54 -6 40
21 89 81 121 150 47 100 54 182 41 448 -7 128 -12 258 -12 290 l0 57 240 -2
c215 -3 241 -1 256 14 37 37 -27 101 -113 114 -24 3 -91 -1 -151 -10 -59 -8
-136 -19 -171 -22 l-63 -7 7 79 c6 72 5 82 -15 107 -12 15 -38 36 -58 46 l-37
19 50 8 c28 4 221 4 430 0 338 -6 382 -5 403 9 50 36 14 101 -76 137 -86 34
-243 31 -477 -10 -235 -41 -428 -67 -669 -92 -107 -11 -200 -20 -205 -20 -10
0 53 157 69 174 5 5 51 13 102 17 201 17 437 49 484 66 62 23 69 48 20 68 -48
20 -135 19 -231 -4 -139 -34 -333 -63 -336 -51 -1 3 8 37 20 76 11 39 21 78
21 87 0 21 7 23 240 47 113 11 242 25 287 30 139 16 181 55 104 98 -50 28 -98
28 -241 -3 -208 -44 -340 -68 -346 -63 -3 4 9 34 26 68 17 34 29 67 27 74 -3
6 -35 24 -71 39 -65 26 -106 34 -119 20z m411 -820 c22 -44 38 -105 47 -184
l7 -55 -144 -12 c-78 -7 -248 -24 -376 -39 -128 -14 -235 -23 -238 -20 -4 3 8
24 25 46 18 22 61 86 96 143 l65 103 222 26 c298 35 274 36 296 -8z"/>
<path d="M1433 1114 c-11 -29 137 -283 180 -308 15 -9 24 -5 53 26 39 43 45
91 17 139 -24 41 -197 159 -233 159 -6 0 -13 -7 -17 -16z"/>
</g>
</svg>
