<?xml version="1.0" standalone="no"?>
<!DOCTYPE svg PUBLIC "-//W3C//DTD SVG 20010904//EN"
 "http://www.w3.org/TR/2001/REC-SVG-20010904/DTD/svg10.dtd">
<svg version="1.0" xmlns="http://www.w3.org/2000/svg"
 width="340.000000pt" height="340.000000pt" viewBox="0 0 340.000000 340.000000"
 preserveAspectRatio="xMidYMid meet">
<metadata>
Created by potrace 1.15, written by Peter Selinger 2001-2017
</metadata>
<g transform="translate(0.000000,340.000000) scale(0.100000,-0.100000)"
fill="#000000" stroke="none">
<path d="M2001 2816 c-9 -11 -11 -30 -6 -65 5 -34 2 -67 -9 -103 -21 -75 -106
-213 -206 -335 -107 -131 -130 -163 -130 -179 0 -23 29 -16 93 23 82 50 186
150 263 254 l64 86 173 6 c251 8 407 42 407 89 0 26 -58 58 -105 58 -22 0
-110 -18 -195 -39 -168 -42 -250 -57 -250 -46 0 4 20 29 44 56 51 57 80 112
71 138 -13 43 -187 89 -214 57z"/>
<path d="M1075 2740 c-15 -16 -16 -25 -8 -43 21 -43 22 -57 7 -114 -16 -64
-92 -212 -157 -307 -22 -34 -78 -100 -124 -149 -115 -122 -111 -138 18 -63 83
49 223 181 279 264 l35 51 109 1 c226 0 476 59 476 112 0 15 -64 48 -95 48
-17 0 -55 -7 -85 -15 -140 -39 -324 -85 -341 -85 -17 0 -14 7 20 53 57 76 93
153 89 190 -3 30 -8 34 -68 54 -83 28 -131 29 -155 3z"/>
<path d="M2051 2341 c-9 -6 -11 -18 -8 -34 7 -27 131 -148 176 -171 27 -14 31
-14 55 5 38 30 36 87 -3 132 -40 44 -186 90 -220 68z"/>
<path d="M1184 2236 c-3 -8 -1 -23 5 -34 13 -25 123 -112 175 -141 37 -19 41
-19 57 -5 39 35 31 102 -18 146 -41 37 -208 63 -219 34z"/>
<path d="M984 1994 c-4 -17 1 -40 15 -69 26 -53 58 -173 62 -240 l4 -49 -115
-27 c-63 -16 -158 -35 -210 -44 -125 -22 -136 -29 -85 -52 58 -26 213 -24 322
5 45 12 84 22 87 22 3 0 6 -62 6 -138 l0 -138 -122 -76 c-220 -138 -370 -208
-443 -208 -32 0 -55 -15 -55 -36 0 -21 51 -74 91 -94 78 -40 109 -29 267 99
127 101 247 191 257 191 13 0 -2 -339 -18 -398 -22 -83 -30 -87 -152 -84 -61
1 -105 -2 -105 -7 0 -5 20 -27 44 -48 25 -21 81 -80 126 -131 68 -77 85 -92
103 -86 35 10 74 53 99 108 20 45 23 67 23 196 0 80 -4 231 -8 337 l-8 191 58
43 c67 50 163 138 163 150 0 19 -39 7 -112 -36 -42 -25 -79 -49 -83 -55 -19
-31 -25 0 -23 112 l3 121 62 18 c84 23 172 65 179 84 9 22 -12 42 -51 49 -29
6 -92 -5 -178 -30 -17 -5 -18 -1 -12 43 4 26 13 73 21 104 26 106 21 116 -81
169 -77 38 -122 40 -131 4z"/>
<path d="M2430 2008 c-25 -5 -137 -31 -250 -58 -241 -57 -450 -100 -489 -100
-15 0 -54 9 -86 20 -63 22 -110 26 -120 10 -3 -5 1 -26 10 -46 41 -98 56 -222
62 -496 8 -364 -11 -532 -73 -652 -24 -47 -24 -51 -10 -100 9 -30 28 -64 45
-80 l29 -28 64 35 c137 77 305 106 639 114 192 5 260 2 360 -12 68 -9 142 -15
164 -13 36 3 40 6 43 34 4 39 -29 81 -82 105 -52 24 -149 24 -378 3 -94 -8
-171 -14 -173 -12 -1 2 4 37 12 78 10 52 16 164 18 365 l3 290 32 6 c70 15
176 20 202 10 52 -20 67 -175 24 -266 -31 -68 -45 -77 -108 -75 -29 1 -56 2
-59 1 -4 0 36 -44 87 -96 106 -108 113 -110 158 -32 37 63 55 120 76 244 19
113 27 138 61 182 30 38 24 65 -22 105 -78 67 -107 68 -304 17 -167 -43 -158
-45 -149 37 17 134 9 153 -74 194 -25 12 -42 23 -36 25 5 1 116 27 248 57 131
30 243 59 249 65 17 17 -1 41 -45 61 -47 21 -62 22 -128 8z m-364 -262 c26
-57 52 -222 37 -236 -4 -4 -54 -15 -110 -24 -98 -15 -103 -15 -145 4 -51 23
-59 24 -83 7 -17 -13 -17 -16 9 -71 34 -71 45 -213 26 -333 -11 -75 -11 -84 8
-127 12 -26 28 -46 36 -46 51 0 84 191 66 376 -6 64 -9 118 -6 121 6 6 159 32
189 33 16 0 17 -24 17 -370 0 -203 -1 -370 -2 -371 -17 -6 -465 -45 -469 -40
-5 5 35 1108 40 1118 2 3 128 9 249 11 l113 2 25 -54z"/>
</g>
</svg>
