<?xml version="1.0" standalone="no"?>
<!DOCTYPE svg PUBLIC "-//W3C//DTD SVG 20010904//EN"
 "http://www.w3.org/TR/2001/REC-SVG-20010904/DTD/svg10.dtd">
<svg version="1.0" xmlns="http://www.w3.org/2000/svg"
 width="340.000000pt" height="340.000000pt" viewBox="0 0 340.000000 340.000000"
 preserveAspectRatio="xMidYMid meet">
<metadata>
Created by potrace 1.15, written by Peter Selinger 2001-2017
</metadata>
<g transform="translate(0.000000,340.000000) scale(0.100000,-0.100000)"
fill="#000000" stroke="none">
<path d="M1937 2998 c-15 -11 -16 -18 -8 -41 16 -42 13 -115 -7 -173 -28 -79
-75 -150 -180 -270 -83 -94 -93 -109 -74 -112 54 -8 227 124 331 253 l65 80
85 -3 c205 -8 491 50 491 99 0 27 -31 39 -127 49 -85 9 -89 8 -202 -30 -110
-36 -211 -59 -211 -47 0 3 14 26 31 51 42 63 37 85 -31 118 -67 34 -138 45
-163 26z"/>
<path d="M1144 2915 c-4 -10 -1 -33 5 -52 17 -46 8 -104 -29 -181 -34 -72
-110 -187 -178 -269 -121 -146 -142 -183 -103 -183 50 0 221 162 333 317 l60
83 72 -6 c148 -13 390 28 448 75 22 19 22 20 5 38 -15 15 -34 18 -110 17 -75
0 -110 -6 -188 -32 -53 -17 -120 -34 -149 -38 l-53 -7 47 64 c58 79 70 103 62
124 -9 24 -91 56 -157 62 -50 5 -60 3 -65 -12z"/>
<path d="M2098 2603 c-41 -6 -35 -35 17 -80 62 -55 165 -123 186 -123 53 0 68
88 22 133 -51 48 -154 80 -225 70z"/>
<path d="M1245 2490 c-3 -5 -1 -19 5 -30 16 -30 158 -140 180 -140 25 0 50 37
50 73 0 37 -27 82 -57 96 -30 14 -170 15 -178 1z"/>
<path d="M1865 2334 c-44 -14 -180 -45 -302 -69 -174 -35 -243 -45 -321 -45
-73 0 -103 -4 -111 -14 -9 -11 -8 -17 2 -28 59 -58 100 -240 117 -513 10 -168
21 -224 46 -250 21 -21 28 -19 62 14 27 28 41 32 193 55 90 14 218 31 285 38
l121 12 34 -27 c59 -45 78 -41 110 22 35 70 47 138 59 347 10 170 23 242 53
301 23 43 21 66 -5 90 -33 30 -76 50 -159 73 -88 24 -84 24 -184 -6z m95 -102
c32 -26 43 -139 35 -367 -8 -241 -11 -259 -50 -262 -97 -9 -242 -28 -394 -54
-96 -16 -176 -28 -177 -26 -1 1 -6 45 -9 98 l-7 95 58 -4 c66 -4 341 40 414
67 115 42 -4 79 -150 46 -119 -27 -314 -65 -317 -61 -2 1 -6 44 -9 94 -7 86
-6 92 12 92 32 0 265 29 324 40 145 27 200 59 133 77 -57 15 -142 4 -306 -37
-93 -23 -171 -39 -175 -35 -9 8 -16 175 -8 175 3 0 101 16 218 35 317 51 373
55 408 27z"/>
<path d="M1860 1450 c0 -11 13 -39 30 -62 16 -24 33 -57 36 -75 8 -39 24 -34
-236 -68 -107 -14 -208 -27 -223 -30 l-28 -5 7 45 6 45 -75 36 c-87 41 -123
42 -120 4 1 -14 9 -51 18 -83 9 -33 15 -61 12 -63 -7 -8 -114 -22 -282 -39
-170 -16 -398 -42 -452 -51 -68 -10 -29 -79 59 -106 48 -14 88 -8 426 66 l242
52 0 -22 c0 -40 -46 -170 -84 -237 -71 -129 -166 -212 -338 -301 -56 -29 -104
-58 -106 -64 -11 -34 187 13 316 74 86 41 188 133 243 218 46 71 93 188 109
276 7 36 16 68 19 72 10 11 480 62 489 54 10 -11 9 -415 -2 -566 l-9 -125 38
-75 c38 -75 49 -90 73 -90 22 0 51 62 58 128 6 59 -7 442 -23 663 l-6 86 79 8
c44 5 232 9 419 11 187 1 348 3 358 3 23 1 22 26 -4 67 -40 66 -194 114 -300
94 -64 -12 -523 -90 -532 -90 -3 0 -3 24 0 54 5 50 4 55 -21 71 -29 19 -125
45 -168 45 -21 0 -28 -5 -28 -20z"/>
</g>
</svg>
