<?xml version="1.0" standalone="no"?>
<!DOCTYPE svg PUBLIC "-//W3C//DTD SVG 20010904//EN"
 "http://www.w3.org/TR/2001/REC-SVG-20010904/DTD/svg10.dtd">
<svg version="1.0" xmlns="http://www.w3.org/2000/svg"
 width="340.000000pt" height="340.000000pt" viewBox="0 0 340.000000 340.000000"
 preserveAspectRatio="xMidYMid meet">
<metadata>
Created by potrace 1.15, written by Peter Selinger 2001-2017
</metadata>
<g transform="translate(0.000000,340.000000) scale(0.100000,-0.100000)"
fill="#000000" stroke="none">
<path d="M1873 2963 c-9 -3 -13 -28 -13 -74 0 -101 -50 -223 -174 -424 -31
-49 -52 -91 -47 -93 38 -13 170 110 268 250 45 64 50 67 78 60 17 -4 89 -7
160 -6 190 1 366 43 382 91 2 5 -4 20 -14 32 -28 35 -86 37 -179 8 -79 -25
-276 -67 -314 -67 -17 0 -14 8 19 68 61 106 61 105 -8 136 -54 24 -125 33
-158 19z"/>
<path d="M1114 2846 c-3 -8 0 -33 6 -55 25 -94 -47 -250 -249 -540 -55 -79
-36 -82 60 -10 86 64 182 166 254 273 l57 83 41 -15 c59 -21 197 -20 282 2
126 33 158 62 110 103 -42 37 -120 31 -265 -17 -66 -22 -127 -40 -135 -40 -12
0 -6 19 25 76 38 72 39 78 24 95 -44 49 -196 81 -210 45z"/>
<path d="M1960 2530 c-35 -25 185 -190 253 -190 27 0 57 23 57 43 0 7 -10 30
-23 52 -31 55 -113 96 -205 102 -39 2 -73 0 -82 -7z"/>
<path d="M1202 2440 c-22 -9 -22 -11 -7 -40 25 -48 84 -109 126 -131 52 -26
85 -24 104 5 14 21 14 28 2 58 -19 46 -68 84 -129 103 -58 17 -64 17 -96 5z"/>
<path d="M1585 2265 c-5 -2 -22 -6 -37 -9 -16 -4 -28 -11 -28 -17 0 -22 93
-108 138 -127 78 -32 97 -34 126 -11 40 31 35 73 -13 119 -29 28 -50 39 -86
43 -50 7 -83 8 -100 2z"/>
<path d="M2492 2204 c-124 -54 -651 -155 -1422 -273 l-185 -28 -60 57 c-62 60
-98 84 -109 73 -3 -3 -6 -19 -6 -35 0 -66 -34 -188 -76 -277 -38 -78 -45 -100
-39 -130 15 -80 65 -133 105 -111 53 28 125 189 145 321 l7 46 96 6 c116 8
279 32 622 92 140 25 334 56 430 71 189 28 436 42 459 25 20 -13 2 -73 -50
-167 -63 -115 -58 -116 108 -40 117 54 176 74 283 99 43 9 56 17 58 32 7 50
-83 134 -218 204 -95 49 -108 52 -148 35z"/>
<path d="M1849 1765 c-61 -32 -198 -70 -342 -95 l-119 -21 -66 32 c-102 49
-113 32 -74 -113 35 -128 45 -234 45 -443 -1 -223 -14 -370 -44 -491 -18 -69
-19 -88 -9 -125 23 -83 66 -146 112 -162 25 -9 37 18 50 113 11 73 14 80 37
85 68 14 323 47 504 66 256 26 276 37 208 115 -30 35 -24 49 73 153 42 44 76
85 76 90 0 6 -14 27 -32 46 -35 41 -117 85 -200 110 -55 16 -57 15 -129 -10
-99 -34 -239 -69 -378 -94 -178 -32 -161 -44 -161 108 l0 130 43 5 c23 3 119
12 212 21 214 20 339 42 368 65 l22 18 -22 24 c-13 13 -23 31 -23 39 0 18 61
111 107 162 18 20 33 46 33 56 0 44 -149 141 -215 140 -16 0 -51 -11 -76 -24z
m31 -144 c28 -54 -2 -199 -45 -219 -46 -21 -418 -83 -429 -71 -2 2 -6 64 -9
137 l-6 132 57 1 c31 0 107 9 167 19 61 10 142 18 182 19 62 1 74 -2 83 -18z
m68 -633 c22 -22 15 -147 -12 -204 -23 -50 -24 -51 -101 -73 -90 -27 -284 -68
-367 -77 l-58 -7 0 152 c0 148 0 151 23 155 19 3 231 33 402 56 80 11 100 11
113 -2z"/>
</g>
</svg>
