<?xml version="1.0" standalone="no"?>
<!DOCTYPE svg PUBLIC "-//W3C//DTD SVG 20010904//EN"
 "http://www.w3.org/TR/2001/REC-SVG-20010904/DTD/svg10.dtd">
<svg version="1.0" xmlns="http://www.w3.org/2000/svg"
 width="340.000000pt" height="340.000000pt" viewBox="0 0 340.000000 340.000000"
 preserveAspectRatio="xMidYMid meet">
<metadata>
Created by potrace 1.15, written by Peter Selinger 2001-2017
</metadata>
<g transform="translate(0.000000,340.000000) scale(0.100000,-0.100000)"
fill="#000000" stroke="none">
<path d="M1981 2977 c-26 -13 -26 -13 -16 -57 18 -82 -76 -269 -248 -493 -33
-42 -57 -80 -54 -83 12 -12 56 7 105 45 46 37 170 169 237 253 l30 38 95 0
c214 1 544 52 557 86 7 20 -42 71 -82 84 -37 12 -105 1 -186 -29 -85 -33 -297
-93 -314 -89 -12 2 -7 15 22 57 57 80 73 105 73 113 0 15 -33 38 -82 56 -76
28 -111 32 -137 19z"/>
<path d="M1121 2901 c-11 -7 -15 -32 -15 -94 -1 -80 -3 -89 -48 -178 -59 -116
-148 -241 -273 -381 l-96 -108 39 0 c76 0 213 116 370 313 l70 89 149 3 c127
2 164 7 261 33 162 43 193 70 121 107 -39 21 -52 19 -185 -21 -122 -37 -295
-77 -302 -69 -3 2 19 33 47 69 56 71 81 119 74 147 -5 19 -120 83 -168 93 -16
3 -36 2 -44 -3z"/>
<path d="M2050 2556 c0 -21 136 -144 186 -169 56 -27 78 -17 82 37 6 69 -48
114 -163 135 -78 15 -105 14 -105 -3z"/>
<path d="M1203 2453 c-7 -2 -13 -15 -13 -27 0 -26 168 -196 193 -196 22 0 37
31 37 79 0 55 -43 103 -116 131 -54 20 -78 23 -101 13z"/>
<path d="M2185 2290 c-329 -69 -1070 -179 -1113 -166 -34 11 -154 25 -167 20
-19 -8 -6 -38 54 -126 27 -40 77 -130 111 -200 88 -182 136 -226 153 -139 7
33 -2 30 225 71 67 13 125 20 128 17 11 -11 -59 -155 -121 -247 -97 -145 -245
-287 -437 -419 -82 -56 -105 -78 -94 -88 19 -19 253 86 370 167 40 28 75 50
78 50 3 0 47 -56 98 -125 98 -133 178 -215 207 -215 25 0 53 50 53 94 0 86
-62 150 -226 233 -52 27 -94 51 -94 54 0 3 36 38 79 77 l80 72 73 0 c40 0 133
9 206 20 140 21 267 26 276 11 8 -13 -67 -163 -131 -260 -213 -328 -491 -538
-991 -746 -118 -50 -129 -65 -46 -65 145 0 589 180 763 309 163 122 351 322
481 512 35 51 93 117 140 160 106 95 105 106 -5 172 -44 26 -103 55 -132 64
l-52 16 -143 -41 c-194 -56 -378 -87 -378 -64 0 5 23 29 50 54 70 63 68 101
-8 180 -20 21 -34 39 -31 42 2 2 119 15 259 30 l255 27 28 -33 c15 -18 27 -36
27 -40 0 -4 11 -10 25 -14 49 -12 97 34 205 196 24 35 69 90 101 121 94 93 90
115 -40 193 -102 62 -132 64 -316 26z m153 -105 c5 -38 -10 -88 -60 -203 -33
-75 -43 -90 -54 -81 -16 13 -106 8 -244 -15 -52 -8 -96 -14 -98 -12 -1 2 21
41 51 87 30 46 63 101 73 122 l18 37 -28 29 -28 29 48 8 c27 3 83 12 124 19
41 7 102 12 135 11 59 -1 60 -2 63 -31z m-476 -91 c-4 -76 -29 -214 -41 -227
-10 -10 -216 -31 -234 -24 -7 3 -20 54 -32 133 -10 71 -18 131 -18 134 1 6
304 59 318 55 6 -1 9 -30 7 -71z m-422 13 c0 -2 11 -61 25 -132 14 -72 25
-137 25 -146 0 -13 -23 -19 -127 -30 -71 -8 -134 -14 -142 -14 -8 0 -33 47
-61 118 -27 65 -54 124 -61 133 -6 8 -9 17 -6 20 11 11 347 61 347 51z"/>
</g>
</svg>
