<?xml version="1.0" standalone="no"?>
<!DOCTYPE svg PUBLIC "-//W3C//DTD SVG 20010904//EN"
 "http://www.w3.org/TR/2001/REC-SVG-20010904/DTD/svg10.dtd">
<svg version="1.0" xmlns="http://www.w3.org/2000/svg"
 width="340.000000pt" height="340.000000pt" viewBox="0 0 340.000000 340.000000"
 preserveAspectRatio="xMidYMid meet">
<metadata>
Created by potrace 1.15, written by Peter Selinger 2001-2017
</metadata>
<g transform="translate(0.000000,340.000000) scale(0.100000,-0.100000)"
fill="#000000" stroke="none">
<path d="M2027 2856 c-10 -10 -13 -29 -10 -63 3 -28 -2 -77 -11 -114 -32 -128
-166 -367 -280 -499 l-47 -55 31 -3 c60 -6 154 81 297 276 l76 102 144 0 c246
0 445 32 487 79 16 17 16 20 0 35 -48 48 -150 59 -255 27 -89 -27 -182 -51
-261 -66 -88 -17 -88 -7 -3 84 36 37 65 76 65 85 0 19 -66 70 -135 102 -58 28
-78 30 -98 10z"/>
<path d="M1142 2744 c-18 -13 -21 -22 -17 -48 4 -17 -1 -63 -9 -100 -33 -139
-130 -308 -266 -460 -34 -37 -59 -70 -57 -72 7 -7 69 15 112 41 58 34 161 138
237 242 l63 84 66 -7 c36 -3 106 -1 155 5 110 15 304 59 321 73 21 17 15 44
-12 56 -64 29 -139 23 -321 -27 -40 -11 -93 -23 -120 -27 l-49 -7 26 34 c103
135 103 148 7 194 -81 39 -103 42 -136 19z"/>
<path d="M2077 2313 c-4 -3 -7 -12 -7 -18 0 -16 130 -124 183 -152 95 -50 142
-12 102 83 -20 47 -50 71 -108 83 -54 12 -160 15 -170 4z"/>
<path d="M1182 2272 c-16 -11 6 -30 128 -113 121 -83 124 -84 150 -52 30 39
26 79 -12 117 -30 30 -42 34 -124 44 -106 14 -125 14 -142 4z"/>
<path d="M1133 2004 c-21 -9 -15 -37 18 -89 32 -50 49 -123 49 -208 0 -30 -5
-49 -12 -51 -14 -4 -158 -30 -428 -77 -239 -42 -265 -57 -154 -92 87 -28 174
-18 383 42 96 28 177 49 179 46 6 -6 -55 -113 -128 -225 -94 -143 -198 -268
-364 -440 -160 -164 -173 -192 -59 -131 95 51 192 128 307 245 126 129 180
197 231 289 20 37 39 67 42 67 2 0 2 -28 -1 -62 -3 -35 -13 -139 -21 -233 -20
-212 -49 -403 -71 -474 -17 -51 -17 -57 -1 -120 27 -101 70 -150 105 -118 51
46 72 223 72 602 0 197 3 275 11 275 11 0 36 -16 178 -113 54 -38 97 -47 119
-25 19 19 14 89 -8 126 -28 46 -77 63 -198 70 l-103 5 3 140 3 140 142 33
c195 45 234 67 194 108 -31 30 -95 26 -219 -15 -56 -18 -104 -30 -108 -27 -5
6 19 108 44 185 8 24 7 36 -5 52 -29 42 -161 91 -200 75z"/>
<path d="M2221 1899 c-62 -22 -161 -49 -219 -61 -91 -18 -114 -19 -167 -9 -75
13 -112 14 -119 2 -3 -5 5 -38 18 -72 43 -114 49 -190 43 -535 -4 -237 -9
-338 -21 -394 -20 -95 -20 -152 0 -221 19 -67 37 -88 58 -70 16 13 41 82 51
143 7 36 7 36 68 43 34 4 112 13 172 21 141 18 185 18 212 -1 20 -14 43 -67
107 -247 15 -42 36 -84 48 -94 19 -18 20 -18 40 6 47 58 96 179 118 292 11 57
9 121 -20 498 -6 69 -10 190 -11 270 -1 130 2 153 25 225 14 44 26 92 26 107
0 32 -37 66 -117 104 -91 44 -168 42 -312 -7z m126 -77 c21 -13 61 -106 78
-182 23 -104 33 -721 13 -824 -7 -38 -17 -71 -23 -72 -5 -2 -22 14 -36 35 -30
42 -99 81 -145 81 -16 0 -83 -11 -149 -24 -66 -14 -138 -26 -159 -28 l-39 -3
2 125 c1 68 4 127 6 131 3 3 50 9 106 13 155 10 349 53 349 77 0 4 -14 18 -31
30 -49 34 -101 35 -229 1 -63 -17 -132 -33 -152 -37 l-38 -6 0 115 c0 63 3
121 6 130 4 12 20 16 55 16 101 0 279 30 329 55 61 31 67 40 36 60 -44 29 -85
28 -186 -4 -94 -30 -213 -61 -237 -61 -10 0 -13 37 -13 150 0 177 -20 155 175
194 193 38 257 44 282 28z"/>
</g>
</svg>
