<?xml version="1.0" standalone="no"?>
<!DOCTYPE svg PUBLIC "-//W3C//DTD SVG 20010904//EN"
 "http://www.w3.org/TR/2001/REC-SVG-20010904/DTD/svg10.dtd">
<svg version="1.0" xmlns="http://www.w3.org/2000/svg"
 width="340.000000pt" height="340.000000pt" viewBox="0 0 340.000000 340.000000"
 preserveAspectRatio="xMidYMid meet">
<metadata>
Created by potrace 1.15, written by Peter Selinger 2001-2017
</metadata>
<g transform="translate(0.000000,340.000000) scale(0.100000,-0.100000)"
fill="#000000" stroke="none">
<path d="M1977 2984 c-3 -3 -3 -28 0 -54 10 -86 -54 -223 -167 -359 -61 -73
-84 -110 -76 -119 25 -24 240 146 307 244 28 40 31 42 61 33 48 -13 239 -11
344 5 137 20 201 58 170 101 -31 43 -149 35 -386 -25 -63 -16 -116 -27 -118
-25 -2 2 12 30 32 62 l36 58 -33 28 c-43 37 -151 70 -170 51z"/>
<path d="M1185 2822 c0 -104 -91 -255 -259 -429 -68 -72 -76 -83 -55 -83 77 0
216 113 340 276 40 52 73 94 75 94 2 0 20 -10 41 -22 32 -20 52 -23 128 -22
89 0 233 30 276 57 32 20 24 56 -16 73 -45 18 -60 18 -136 -6 -77 -25 -260
-63 -267 -56 -3 3 14 26 37 51 22 24 41 51 41 59 0 24 -98 66 -154 66 l-51 0
0 -58z"/>
<path d="M2050 2615 c0 -25 106 -143 159 -177 75 -47 120 -31 121 41 0 60 -35
98 -113 122 -37 11 -90 23 -117 26 -43 5 -50 3 -50 -12z"/>
<path d="M1244 2526 c-8 -20 71 -148 120 -195 l35 -34 30 31 c21 20 31 40 31
61 0 56 -15 76 -83 109 -83 41 -125 50 -133 28z"/>
<path d="M1635 2415 c-5 -2 -22 -6 -37 -9 l-27 -6 29 -63 c25 -52 39 -107 27
-107 -2 0 -66 -12 -142 -26 -77 -14 -171 -25 -209 -24 -178 3 -184 -2 -105
-88 30 -32 69 -86 87 -120 68 -127 122 -159 122 -72 0 15 12 19 78 24 42 4
101 9 130 12 l52 6 0 -75 c0 -42 -4 -78 -9 -82 -35 -21 -593 -98 -901 -124
-128 -11 -235 -23 -238 -26 -13 -12 56 -66 102 -80 74 -22 123 -19 336 25 323
67 606 111 945 147 204 21 756 24 922 5 119 -14 146 -10 158 27 17 54 -40 96
-178 132 -94 24 -119 24 -295 -6 -244 -41 -717 -97 -727 -86 -3 2 -5 39 -5 82
l0 77 43 5 c23 4 110 11 192 17 226 16 256 29 199 87 -30 29 -36 22 79 90 43
25 80 51 84 56 9 15 -33 42 -130 82 l-89 36 -73 -15 c-40 -8 -124 -29 -185
-45 l-112 -30 7 42 c15 80 13 88 -25 107 -37 19 -88 31 -105 25z m419 -211 c9
-3 16 -13 16 -21 0 -18 -55 -116 -73 -130 -13 -11 -234 -42 -242 -35 -3 3 -5
45 -5 93 l0 88 33 6 c85 14 233 14 271 -1z m-414 -118 l0 -93 -57 -6 c-32 -4
-90 -9 -129 -13 l-72 -6 -27 81 c-15 45 -25 84 -24 85 4 4 260 43 292 45 15 1
17 -10 17 -93z"/>
<path d="M1950 1610 c-19 -4 -84 -20 -145 -34 -174 -41 -379 -68 -460 -61
-100 9 -110 -1 -82 -80 27 -79 29 -265 3 -375 -28 -121 -30 -156 -12 -204 9
-24 24 -47 32 -50 24 -9 71 45 88 104 24 82 39 260 34 404 l-5 132 126 18
c270 39 329 45 403 46 87 0 101 -8 118 -68 18 -62 23 -240 11 -385 -8 -98 -9
-149 -1 -177 24 -88 89 -82 130 12 22 48 24 72 29 269 l6 216 33 52 c18 29 29
57 26 63 -14 22 -117 79 -187 103 -79 26 -91 27 -147 15z"/>
<path d="M1648 1373 c-33 -5 -33 -3 -12 -90 51 -215 -62 -513 -258 -683 -72
-62 -207 -143 -299 -179 -140 -55 -157 -79 -43 -61 279 43 550 222 661 435 50
97 67 154 93 306 10 64 27 138 35 164 18 53 20 50 -45 84 -39 21 -92 30 -132
24z"/>
<path d="M1810 796 c0 -8 84 -93 188 -189 296 -276 282 -265 315 -229 38 42
29 117 -26 208 -29 49 -37 55 -166 118 -75 36 -160 75 -189 86 -63 24 -122 27
-122 6z"/>
</g>
</svg>
