<?xml version="1.0" standalone="no"?>
<!DOCTYPE svg PUBLIC "-//W3C//DTD SVG 20010904//EN"
 "http://www.w3.org/TR/2001/REC-SVG-20010904/DTD/svg10.dtd">
<svg version="1.0" xmlns="http://www.w3.org/2000/svg"
 width="340.000000pt" height="340.000000pt" viewBox="0 0 340.000000 340.000000"
 preserveAspectRatio="xMidYMid meet">
<metadata>
Created by potrace 1.15, written by Peter Selinger 2001-2017
</metadata>
<g transform="translate(0.000000,340.000000) scale(0.100000,-0.100000)"
fill="#000000" stroke="none">
<path d="M1858 2860 c-46 -14 -48 -18 -31 -54 29 -62 -9 -157 -135 -335 -86
-120 -98 -141 -79 -141 25 0 180 121 264 207 l82 83 63 0 c108 0 340 20 406
35 120 28 156 67 92 100 -60 31 -106 29 -293 -15 -99 -23 -190 -40 -203 -38
l-24 3 30 45 c16 25 30 53 30 62 0 29 -148 65 -202 48z"/>
<path d="M1084 2782 c-6 -4 -13 -31 -16 -60 -3 -34 -19 -80 -42 -125 -48 -95
-178 -269 -249 -333 -31 -29 -53 -54 -50 -58 4 -3 21 -6 38 -6 49 0 118 51
250 185 l120 121 170 12 c218 16 291 31 322 66 29 34 29 43 1 52 -43 14 -123
5 -218 -24 -100 -31 -229 -57 -238 -48 -3 3 20 33 51 65 83 87 78 119 -25 147
-59 15 -97 18 -114 6z"/>
<path d="M1995 2511 c-10 -18 7 -38 99 -115 107 -90 138 -106 165 -82 43 39
30 104 -26 144 -48 33 -225 73 -238 53z"/>
<path d="M1089 2394 c-12 -14 -6 -23 43 -69 31 -29 77 -61 103 -70 45 -18 47
-18 73 2 36 26 40 68 11 99 -45 48 -200 74 -230 38z"/>
<path d="M1855 2304 c-11 -3 -84 -23 -162 -44 -77 -21 -198 -48 -267 -60 -108
-18 -135 -19 -179 -10 -29 7 -63 10 -77 9 -31 -5 -31 -29 -1 -144 16 -58 24
-133 31 -273 10 -187 20 -265 41 -303 13 -26 26 -24 57 10 27 29 30 30 257 55
127 14 241 26 252 26 14 0 32 -15 50 -42 42 -61 57 -68 88 -37 33 32 66 133
94 279 12 63 28 148 36 189 8 40 31 109 52 153 l37 80 -34 29 c-80 66 -199
102 -275 83z m46 -126 c21 -51 18 -320 -4 -428 -27 -128 -22 -120 -64 -108
-43 12 -86 6 -309 -38 -95 -19 -181 -34 -193 -34 -19 0 -21 5 -21 73 l0 73
121 12 c164 16 341 56 377 85 11 9 11 13 -4 24 -28 21 -103 15 -232 -16 -154
-38 -251 -49 -263 -30 -5 8 -9 40 -9 71 l0 57 43 5 c23 3 87 11 142 17 182 19
305 55 305 89 0 38 -47 36 -246 -11 -169 -40 -237 -50 -246 -35 -4 6 -8 39 -8
72 l0 61 64 7 c36 3 149 24 253 46 103 21 209 39 234 39 43 1 48 -1 60 -31z"/>
<path d="M1313 1458 c-6 -7 -13 -37 -16 -67 -4 -30 -12 -60 -19 -67 -14 -12
-293 -49 -458 -59 -159 -10 -169 -16 -92 -57 73 -40 112 -42 242 -14 63 14
149 28 190 32 73 7 75 7 60 -12 -160 -203 -374 -374 -658 -523 -80 -42 -147
-82 -150 -89 -15 -45 256 54 434 159 174 103 361 263 499 430 l63 75 174 16
173 16 38 -26 c22 -14 121 -103 220 -198 100 -94 220 -204 267 -244 47 -40
100 -86 119 -102 54 -46 66 -49 194 -48 133 1 422 39 420 55 0 6 -75 35 -164
66 -375 128 -687 281 -912 448 -32 23 -57 45 -54 47 2 3 114 9 248 14 234 8
340 21 367 42 6 6 12 21 12 35 0 19 -10 28 -47 46 -67 30 -189 28 -368 -6
-138 -26 -440 -69 -584 -82 l-74 -7 28 37 c32 40 32 39 -37 75 -42 23 -101 26
-115 8z"/>
<path d="M1497 1123 c-4 -3 -7 -34 -7 -67 0 -46 -7 -75 -29 -121 -62 -132
-196 -273 -328 -347 -86 -48 -94 -62 -74 -129 13 -44 62 -89 97 -89 13 0 70
18 126 39 133 50 286 94 479 135 l154 33 103 -98 c61 -60 110 -99 123 -99 28
0 61 76 53 121 -15 77 -50 124 -141 192 -128 95 -207 140 -251 141 -55 2 -52
-22 18 -124 33 -50 57 -90 53 -90 -30 0 -399 -33 -493 -44 -63 -7 -116 -12
-118 -11 -1 1 46 45 105 98 132 116 338 325 347 350 17 49 -179 149 -217 110z"/>
</g>
</svg>
