<?xml version="1.0" standalone="no"?>
<!DOCTYPE svg PUBLIC "-//W3C//DTD SVG 20010904//EN"
 "http://www.w3.org/TR/2001/REC-SVG-20010904/DTD/svg10.dtd">
<svg version="1.0" xmlns="http://www.w3.org/2000/svg"
 width="340.000000pt" height="340.000000pt" viewBox="0 0 340.000000 340.000000"
 preserveAspectRatio="xMidYMid meet">
<metadata>
Created by potrace 1.15, written by Peter Selinger 2001-2017
</metadata>
<g transform="translate(0.000000,340.000000) scale(0.100000,-0.100000)"
fill="#000000" stroke="none">
<path d="M1907 2903 c-4 -3 -7 -27 -7 -53 0 -114 -57 -226 -181 -355 -47 -49
-92 -100 -98 -113 -20 -37 12 -38 87 -2 52 25 91 57 174 141 l108 108 92 -8
c114 -11 237 0 346 29 131 35 171 85 95 116 -49 21 -108 15 -273 -29 -74 -19
-157 -38 -183 -42 l-49 -8 16 31 c9 17 27 48 41 68 46 68 27 94 -86 113 -77
13 -74 13 -82 4z"/>
<path d="M1068 2825 c-3 -3 -3 -35 0 -70 4 -58 2 -69 -28 -122 -44 -78 -150
-230 -227 -325 -56 -68 -79 -118 -55 -118 24 0 116 73 225 178 l122 119 115 6
c184 9 395 59 452 108 l23 19 -23 20 c-44 37 -81 35 -224 -9 -155 -48 -285
-77 -295 -68 -4 4 14 29 39 55 58 60 88 105 88 130 0 29 -105 82 -162 82 -25
0 -47 -2 -50 -5z"/>
<path d="M1971 2511 c-21 -14 -12 -25 76 -89 135 -100 178 -114 197 -61 20 59
-27 130 -98 148 -53 13 -155 14 -175 2z"/>
<path d="M1123 2373 c-5 -12 16 -38 75 -95 92 -89 124 -99 161 -52 29 37 26
61 -12 99 -55 55 -209 88 -224 48z"/>
<path d="M1673 2328 c-6 -7 -14 -31 -17 -53 -12 -67 -51 -120 -192 -261 -118
-119 -148 -154 -129 -154 15 0 117 57 171 96 l62 43 101 -47 c55 -26 100 -51
98 -57 -8 -25 -251 -175 -442 -272 -118 -61 -202 -109 -193 -111 26 -5 188 43
297 89 119 49 241 116 357 195 l92 61 83 -49 c46 -27 170 -92 274 -145 l190
-95 80 4 c63 4 111 15 229 56 81 28 151 53 154 57 16 16 -29 26 -187 40 -242
21 -505 76 -693 146 -32 12 -58 25 -58 29 0 13 198 173 247 199 40 22 49 31
51 57 3 26 -3 37 -35 63 -66 54 -91 57 -185 21 -120 -46 -258 -74 -258 -51 0
5 16 19 35 31 54 34 46 56 -37 100 -42 23 -81 26 -95 8z m157 -205 c36 -2 92
0 125 5 33 6 64 8 68 5 10 -6 -72 -92 -144 -154 l-46 -39 -54 30 c-30 16 -76
37 -104 46 -27 9 -52 19 -55 21 -3 3 20 27 50 54 41 37 60 47 75 42 11 -3 49
-8 85 -10z"/>
<path d="M820 2025 c0 -33 75 -160 125 -212 65 -67 98 -71 121 -17 19 44 12
77 -27 139 -32 51 -98 88 -176 101 -37 6 -43 4 -43 -11z"/>
<path d="M1763 1714 c-3 -8 2 -44 12 -80 10 -36 15 -68 11 -71 -3 -3 -62 -14
-132 -23 -117 -17 -157 -30 -141 -46 5 -6 184 -22 260 -23 27 -1 27 -2 27 -65
0 -75 10 -68 -135 -91 -69 -11 -106 -22 -119 -35 -19 -18 -19 -19 9 -26 16 -4
77 -3 137 2 l108 9 0 -77 c0 -64 -3 -77 -17 -82 -10 -2 -126 -19 -258 -37
-348 -46 -366 -53 -249 -96 71 -26 98 -27 189 -7 84 18 293 53 318 54 16 0 17
-15 17 -176 l0 -175 -47 7 c-27 4 -104 22 -173 41 -138 37 -470 120 -511 128
-23 4 -29 13 -39 57 -7 29 -29 98 -50 153 -52 140 -55 165 -30 222 11 26 31
61 44 77 34 45 58 96 53 110 -3 7 -27 27 -53 44 -62 41 -105 42 -167 2 -80
-50 -125 -70 -185 -81 -108 -19 -116 -27 -50 -54 53 -22 125 -22 202 -1 33 9
61 15 62 13 2 -2 -3 -27 -11 -56 -35 -132 -34 -140 43 -316 38 -88 69 -161 68
-162 -7 -9 -169 -34 -282 -44 -140 -12 -184 -21 -184 -37 0 -14 107 -82 139
-88 17 -4 49 3 87 19 97 41 206 60 298 54 109 -7 219 -38 627 -172 190 -63
411 -130 490 -150 131 -31 151 -34 207 -25 77 13 198 53 412 137 249 98 250
114 6 95 -280 -22 -680 -13 -847 19 l-55 11 18 54 c14 42 35 210 38 307 0 4
21 7 48 7 26 0 76 5 111 11 36 5 128 14 205 18 132 8 196 22 196 43 0 42 -69
88 -131 88 -35 0 -289 -47 -406 -75 -22 -5 -23 -3 -23 73 l0 79 98 12 c121 16
187 39 187 66 0 23 -38 45 -80 45 -17 0 -71 -11 -120 -25 -49 -13 -93 -21 -98
-16 -4 4 -7 34 -5 66 l3 59 123 17 c120 18 192 41 200 66 2 7 -11 22 -30 33
-42 25 -101 26 -198 0 -41 -11 -78 -20 -83 -20 -4 0 -4 18 -1 40 8 47 -10 74
-63 96 -43 18 -72 18 -80 -2z"/>
</g>
</svg>
