<?xml version="1.0" standalone="no"?>
<!DOCTYPE svg PUBLIC "-//W3C//DTD SVG 20010904//EN"
 "http://www.w3.org/TR/2001/REC-SVG-20010904/DTD/svg10.dtd">
<svg version="1.0" xmlns="http://www.w3.org/2000/svg"
 width="340.000000pt" height="340.000000pt" viewBox="0 0 340.000000 340.000000"
 preserveAspectRatio="xMidYMid meet">
<metadata>
Created by potrace 1.15, written by Peter Selinger 2001-2017
</metadata>
<g transform="translate(0.000000,340.000000) scale(0.100000,-0.100000)"
fill="#000000" stroke="none">
<path d="M1088 2792 c-26 -5 -23 -53 6 -110 42 -80 51 -182 51 -589 0 -204 -3
-375 -7 -378 -14 -14 -466 -97 -656 -121 -85 -11 -80 -53 10 -98 68 -34 93
-33 197 8 91 37 347 104 357 94 8 -9 -51 -121 -107 -205 -98 -145 -237 -297
-404 -441 -167 -145 -177 -169 -40 -104 47 23 120 67 163 99 106 79 314 289
398 402 l69 93 3 -93 c4 -128 -23 -407 -54 -553 -19 -88 -25 -137 -21 -181 11
-110 64 -225 104 -225 18 0 39 51 54 131 7 37 14 227 18 455 l6 392 83 -63
c46 -34 105 -72 132 -85 62 -29 80 -18 80 46 0 88 -88 144 -227 144 l-63 0 0
114 0 114 64 11 c35 6 110 18 167 26 148 22 169 34 135 80 -22 31 -138 32
-258 2 l-98 -24 0 81 c1 246 30 645 56 774 14 68 14 76 -2 100 -21 33 -38 46
-89 71 -51 24 -105 38 -127 33z"/>
<path d="M2330 2370 c-130 -70 -321 -112 -411 -92 -69 16 -108 15 -116 -3 -3
-9 3 -44 13 -78 18 -58 19 -105 19 -684 0 -342 -3 -625 -7 -629 -12 -11 -241
-33 -355 -34 -56 0 -105 -4 -108 -10 -8 -12 93 -77 151 -97 41 -14 50 -13 151
11 128 30 257 51 407 66 164 16 516 14 705 -5 196 -20 231 -16 231 23 0 15 -7
38 -16 50 -20 29 -95 66 -170 86 -63 16 -71 15 -226 -23 l-78 -18 0 31 c0 17
7 150 15 296 8 146 19 382 24 525 10 279 20 338 66 393 l24 29 -20 40 c-40 81
-120 139 -201 148 -34 3 -55 -2 -98 -25z m61 -127 c12 -13 14 -100 13 -477 -1
-366 -16 -832 -27 -842 -1 -1 -67 -7 -147 -13 -80 -6 -173 -14 -207 -17 l-63
-6 0 214 0 215 113 6 c116 6 169 17 202 41 20 14 20 15 -4 40 -13 14 -44 33
-68 42 -43 17 -44 16 -131 -15 -48 -17 -92 -31 -97 -31 -7 0 -11 66 -13 179
l-2 178 103 5 c76 4 117 11 162 29 55 22 60 27 60 54 l0 30 -65 -2 c-36 -1
-101 -11 -144 -22 -127 -34 -116 -48 -116 154 0 132 3 177 13 179 40 13 246
66 267 69 67 11 138 7 151 -10z"/>
<path d="M1512 2308 c-5 -7 -12 -35 -14 -63 -5 -56 -65 -191 -122 -276 -20
-29 -32 -55 -27 -57 19 -6 97 49 191 134 52 48 110 98 128 112 17 13 32 30 32
36 0 26 -128 126 -161 126 -9 0 -21 -6 -27 -12z"/>
<path d="M764 2176 c-11 -29 4 -86 47 -177 50 -105 65 -122 110 -117 47 4 61
36 55 117 -9 103 -73 176 -166 188 -31 4 -41 2 -46 -11z"/>
</g>
</svg>
