<?xml version="1.0" standalone="no"?>
<!DOCTYPE svg PUBLIC "-//W3C//DTD SVG 20010904//EN"
 "http://www.w3.org/TR/2001/REC-SVG-20010904/DTD/svg10.dtd">
<svg version="1.0" xmlns="http://www.w3.org/2000/svg"
 width="340.000000pt" height="340.000000pt" viewBox="0 0 340.000000 340.000000"
 preserveAspectRatio="xMidYMid meet">
<metadata>
Created by potrace 1.15, written by Peter Selinger 2001-2017
</metadata>
<g transform="translate(0.000000,340.000000) scale(0.100000,-0.100000)"
fill="#000000" stroke="none">
<path d="M1823 2730 c-13 -5 -23 -17 -23 -27 0 -32 206 -203 245 -203 23 0 75
69 75 99 0 15 -13 46 -29 68 -25 35 -36 41 -87 51 -95 18 -157 22 -181 12z"/>
<path d="M923 2680 c-28 -11 -29 -43 -8 -175 10 -56 18 -203 22 -391 l6 -302
-109 -25 c-60 -15 -166 -35 -235 -47 -132 -20 -179 -33 -179 -48 0 -13 41 -29
107 -42 53 -11 70 -9 144 9 145 36 219 49 219 39 0 -5 -27 -63 -60 -128 -71
-139 -187 -316 -293 -449 -66 -83 -108 -163 -93 -178 13 -14 54 18 153 120 98
102 220 260 303 395 18 28 35 52 38 52 6 0 -5 -206 -19 -360 -11 -117 -36
-257 -65 -365 -14 -51 -15 -69 -5 -119 15 -74 44 -132 73 -147 18 -10 24 -8
39 10 39 48 54 209 65 694 4 174 9 317 11 317 2 0 47 -36 100 -81 81 -68 100
-80 127 -77 29 3 31 6 34 45 6 84 -55 133 -182 142 l-81 6 -3 80 -2 80 107 27
c176 43 234 76 203 113 -17 21 -78 19 -199 -6 -57 -11 -104 -19 -106 -17 -6 6
16 286 30 383 9 55 26 146 40 202 14 55 22 109 18 120 -13 36 -57 84 -98 108
-44 26 -66 29 -102 15z"/>
<path d="M2260 2464 c-155 -45 -394 -102 -500 -120 -92 -15 -116 -15 -194 -5
-48 7 -92 9 -96 4 -5 -4 1 -35 11 -68 28 -86 33 -177 20 -365 -39 -549 -156
-962 -362 -1266 -28 -41 -48 -80 -46 -87 6 -17 113 94 176 183 61 87 157 272
195 380 36 99 80 279 106 437 12 71 23 129 24 130 1 2 22 -5 45 -14 36 -14 49
-15 89 -5 74 19 226 40 235 32 4 -4 6 -49 5 -101 l-3 -94 -95 -17 c-154 -27
-200 -39 -200 -49 0 -6 17 -17 38 -26 32 -14 49 -14 118 -4 44 6 95 11 113 11
l33 0 -5 -342 c-5 -401 -10 -433 -68 -433 -18 1 -60 4 -93 9 l-58 8 50 -62
c27 -34 65 -89 83 -122 19 -33 42 -69 52 -79 16 -18 20 -18 47 -4 72 37 123
252 101 425 -5 41 -13 143 -17 225 l-7 150 144 -140 c152 -147 229 -216 293
-259 32 -22 50 -26 106 -26 71 0 210 21 295 44 28 8 68 17 90 21 35 6 38 8 22
20 -9 7 -45 18 -80 25 -127 25 -364 92 -437 123 -70 30 -290 165 -290 178 0 3
21 13 48 23 26 10 112 50 192 89 168 83 175 92 110 151 -47 42 -83 61 -102 53
-8 -3 -19 -22 -26 -44 -15 -51 -65 -108 -165 -188 l-81 -65 -59 57 -58 58 3
64 c3 63 4 65 33 72 17 4 83 19 148 34 125 29 139 38 117 80 -11 21 -9 36 19
113 28 78 36 91 59 96 15 4 98 9 185 13 99 4 163 10 174 18 15 11 14 15 -12
39 -44 40 -96 51 -191 37 -100 -14 -144 -14 -144 -1 0 14 37 87 61 122 11 14
19 31 19 37 0 16 -97 68 -152 82 -44 10 -54 9 -111 -15 -55 -24 -190 -66 -209
-66 -4 0 -5 36 -1 80 l6 81 -46 43 -45 44 46 6 c42 6 275 59 390 88 81 21 88
58 18 92 -44 21 -63 20 -166 -10z m-321 -284 c12 -57 24 -160 18 -160 -7 0
-156 -29 -214 -42 -29 -6 -53 -14 -53 -18 0 -13 52 -30 93 -30 23 0 62 6 87
14 25 7 57 16 73 20 l27 6 0 -94 0 -94 -27 -6 c-67 -15 -243 -36 -296 -36 -51
0 -58 2 -53 18 14 43 37 229 42 347 4 72 11 138 16 147 7 15 26 18 121 20 108
3 113 2 134 -22 12 -13 26 -45 32 -70z m384 -191 c7 -11 7 -40 1 -85 l-9 -69
-90 -12 c-49 -6 -109 -14 -132 -17 l-43 -6 0 85 c0 95 -8 87 107 110 88 18
153 15 166 -6z m-32 -320 c-11 -63 -21 -93 -33 -100 -15 -8 -179 -48 -200 -49
-5 0 -8 47 -8 104 l0 105 58 7 c31 3 77 10 102 14 25 4 57 8 71 9 l26 1 -16
-91z"/>
<path d="M1246 2338 c-2 -7 -9 -35 -15 -63 -7 -27 -32 -95 -56 -149 -25 -55
-43 -102 -40 -104 14 -15 249 164 267 203 13 29 -1 50 -69 96 -44 30 -81 38
-87 17z"/>
<path d="M615 2230 c-8 -14 52 -163 88 -217 39 -59 74 -68 106 -27 25 31 27
83 7 123 -38 73 -178 158 -201 121z"/>
<path d="M1580 1263 c0 -32 53 -114 89 -139 49 -34 97 12 75 72 -9 28 -85 77
-136 89 -26 7 -28 5 -28 -22z"/>
<path d="M1889 1132 c-8 -4 -74 -46 -145 -94 -71 -48 -166 -105 -211 -128 -46
-22 -83 -46 -83 -54 0 -17 26 -39 77 -65 61 -30 76 -27 119 27 21 26 93 104
161 173 68 70 123 131 123 138 0 12 -16 13 -41 3z"/>
</g>
</svg>
