<?xml version="1.0" standalone="no"?>
<!DOCTYPE svg PUBLIC "-//W3C//DTD SVG 20010904//EN"
 "http://www.w3.org/TR/2001/REC-SVG-20010904/DTD/svg10.dtd">
<svg version="1.0" xmlns="http://www.w3.org/2000/svg"
 width="340.000000pt" height="340.000000pt" viewBox="0 0 340.000000 340.000000"
 preserveAspectRatio="xMidYMid meet">
<metadata>
Created by potrace 1.15, written by Peter Selinger 2001-2017
</metadata>
<g transform="translate(0.000000,340.000000) scale(0.100000,-0.100000)"
fill="#000000" stroke="none">
<path d="M2050 2710 c-10 -6 -14 -38 -15 -107 -5 -208 -111 -453 -361 -829
-62 -95 -118 -183 -124 -198 -8 -22 -7 -26 10 -26 24 0 193 161 273 260 33 41
64 79 68 84 4 4 27 1 52 -9 51 -19 120 -12 298 31 133 32 163 31 199 -4 42
-43 53 -98 46 -228 -28 -471 -112 -836 -213 -924 -40 -35 -67 -37 -143 -9 -58
21 -150 49 -162 49 -18 0 -5 -30 43 -95 28 -38 71 -107 96 -153 25 -46 56 -96
68 -110 21 -24 25 -25 61 -14 96 30 196 140 254 278 50 121 76 243 99 464 41
388 51 465 67 530 20 76 53 147 83 174 30 28 26 54 -15 93 -61 57 -213 123
-285 123 -15 0 -63 -15 -108 -34 -146 -63 -363 -119 -391 -101 -5 3 6 29 24
58 18 29 59 99 90 156 69 125 178 296 213 333 31 32 25 55 -24 103 -72 69
-175 123 -203 105z"/>
<path d="M1118 2654 c-5 -4 -8 -20 -8 -35 0 -47 -49 -201 -94 -294 -78 -162
-156 -247 -290 -316 -80 -40 -93 -65 -82 -153 8 -72 19 -80 92 -62 111 29 434
50 434 30 0 -12 -72 -96 -160 -188 -96 -101 -183 -169 -238 -187 -20 -6 -40
-17 -44 -23 -22 -32 8 -132 50 -169 20 -18 21 -17 70 17 61 44 204 112 337
160 177 65 232 86 251 101 17 13 13 14 -42 15 -33 0 -141 -13 -239 -30 -98
-16 -186 -30 -194 -30 -21 0 113 134 402 402 130 122 237 228 237 235 0 49
-95 133 -150 133 -23 0 -28 -6 -39 -50 -13 -50 -89 -180 -163 -278 l-40 -54
-61 7 c-80 9 -289 44 -295 49 -14 14 367 439 452 505 84 65 75 101 -43 171
-68 40 -129 59 -143 44z"/>
<path d="M1710 1520 c0 -25 152 -182 232 -240 73 -53 128 -31 128 53 0 54 -22
99 -66 135 -50 42 -111 62 -211 69 -82 6 -83 6 -83 -17z"/>
<path d="M1360 1201 c-41 -15 -172 -64 -290 -109 -262 -98 -374 -132 -463
-139 -37 -3 -70 -10 -73 -15 -13 -20 8 -56 64 -116 90 -94 94 -94 215 -19 56
35 196 117 312 182 283 159 365 212 365 237 0 15 -55 7 -130 -21z"/>
</g>
</svg>
