<?xml version="1.0" standalone="no"?>
<!DOCTYPE svg PUBLIC "-//W3C//DTD SVG 20010904//EN"
 "http://www.w3.org/TR/2001/REC-SVG-20010904/DTD/svg10.dtd">
<svg version="1.0" xmlns="http://www.w3.org/2000/svg"
 width="340.000000pt" height="340.000000pt" viewBox="0 0 340.000000 340.000000"
 preserveAspectRatio="xMidYMid meet">
<metadata>
Created by potrace 1.15, written by Peter Selinger 2001-2017
</metadata>
<g transform="translate(0.000000,340.000000) scale(0.100000,-0.100000)"
fill="#000000" stroke="none">
<path d="M1037 2624 c-3 -4 -4 -26 0 -49 22 -164 -198 -564 -364 -661 -24 -15
-48 -35 -54 -46 -17 -31 -2 -84 32 -112 28 -24 32 -25 59 -11 47 24 168 53
293 70 66 9 121 14 123 12 2 -2 -24 -44 -58 -93 -79 -112 -258 -293 -315 -318
-34 -15 -44 -25 -49 -51 -7 -39 14 -85 50 -108 24 -16 29 -14 152 45 70 33
215 89 323 124 197 64 240 86 211 104 -20 13 -76 5 -270 -40 -211 -49 -230
-53 -230 -45 0 14 547 622 566 629 8 3 14 18 14 33 0 55 -138 154 -179 128 -6
-3 -11 -23 -11 -43 -1 -52 -37 -135 -98 -224 l-52 -75 -83 -6 c-110 -9 -249
-8 -263 1 -13 8 -19 -3 130 213 114 165 170 241 238 320 26 31 48 65 48 74 0
52 -181 161 -213 129z"/>
<path d="M1928 2584 c-27 -27 18 -106 141 -249 87 -101 115 -125 147 -125 28
0 49 36 59 102 16 104 -53 203 -172 248 -60 22 -163 37 -175 24z"/>
<path d="M2465 2018 c-409 -92 -720 -149 -970 -179 -55 -6 -103 -14 -107 -18
-4 -4 -1 -16 7 -28 16 -22 88 -43 148 -43 26 0 231 41 376 75 23 6 23 6 16
-62 -10 -98 -57 -274 -100 -374 -44 -105 -123 -240 -201 -346 -76 -102 -308
-332 -412 -408 -46 -33 -101 -73 -124 -90 -89 -65 -45 -72 95 -17 305 123 568
405 791 850 31 61 57 112 59 112 1 0 44 -11 95 -25 104 -28 167 -57 181 -83
12 -22 -3 -234 -24 -332 -21 -103 -74 -209 -130 -266 -46 -46 -47 -46 -98 -40
-28 4 -65 13 -82 20 -18 8 -51 17 -74 21 -50 8 -53 -4 -14 -61 14 -21 39 -58
55 -81 16 -23 41 -74 55 -113 33 -89 49 -99 111 -69 124 60 230 220 277 419
68 282 102 379 152 432 22 23 25 33 20 64 -13 81 -141 164 -253 164 -33 0
-102 3 -152 6 l-92 7 36 64 c22 41 33 70 29 83 -3 11 -35 46 -71 79 l-65 60
43 5 c114 15 306 28 543 36 276 9 311 15 321 57 14 52 -64 94 -207 111 -56 7
-87 3 -234 -30z"/>
<path d="M1395 1185 c-27 -7 -142 -52 -255 -100 -312 -131 -414 -166 -500
-174 l-75 -6 -3 -32 c-3 -27 5 -41 44 -83 28 -30 61 -54 84 -61 35 -11 40 -9
85 25 58 45 199 128 458 271 201 111 253 147 242 165 -8 13 -18 12 -80 -5z"/>
</g>
</svg>
