<?xml version="1.0" standalone="no"?>
<!DOCTYPE svg PUBLIC "-//W3C//DTD SVG 20010904//EN"
 "http://www.w3.org/TR/2001/REC-SVG-20010904/DTD/svg10.dtd">
<svg version="1.0" xmlns="http://www.w3.org/2000/svg"
 width="340.000000pt" height="340.000000pt" viewBox="0 0 340.000000 340.000000"
 preserveAspectRatio="xMidYMid meet">
<metadata>
Created by potrace 1.15, written by Peter Selinger 2001-2017
</metadata>
<g transform="translate(0.000000,340.000000) scale(0.100000,-0.100000)"
fill="#000000" stroke="none">
<path d="M2013 2804 c-3 -9 0 -40 7 -69 21 -88 -3 -239 -79 -492 l-21 -71 -53
-12 c-28 -6 -99 -16 -157 -22 -113 -12 -146 -27 -119 -53 16 -16 130 -34 222
-35 32 0 57 -4 57 -10 0 -14 -64 -179 -86 -222 -22 -44 -27 -46 -107 -54 -71
-7 -90 -21 -67 -49 8 -10 31 -15 66 -15 32 0 54 -4 54 -11 0 -28 -159 -269
-178 -269 -5 0 -18 -9 -30 -20 -37 -35 -25 -87 30 -129 15 -11 23 -10 51 7 63
40 291 106 471 137 l39 6 -6 -268 c-6 -268 -18 -406 -40 -453 -17 -35 -62 -37
-153 -6 -41 14 -79 26 -85 26 -5 0 18 -33 51 -72 34 -40 80 -106 103 -147 22
-40 50 -85 62 -99 l23 -26 42 19 c79 36 130 120 146 241 6 49 -9 428 -26 664
-4 63 -7 117 -5 118 2 2 45 10 97 18 64 10 152 14 282 12 167 -3 190 -1 199
13 17 27 -16 65 -87 98 -78 38 -116 39 -238 7 -114 -29 -245 -52 -254 -44 -11
12 16 169 39 228 20 49 22 61 11 82 -15 30 -53 48 -114 55 -36 4 -58 -1 -110
-25 -76 -35 -170 -64 -170 -53 0 11 45 124 80 199 l31 68 182 22 c257 33 462
74 506 101 9 6 11 18 7 34 -9 35 -67 60 -156 65 -64 4 -90 0 -170 -26 -119
-38 -330 -83 -330 -70 0 20 139 299 184 367 25 39 46 81 46 93 0 28 -66 88
-139 127 -65 34 -99 39 -108 15z m85 -1081 c14 -20 17 -219 3 -227 -17 -11
-402 -88 -408 -82 -8 8 46 122 104 222 l48 81 70 13 c39 7 75 14 80 16 22 8
91 -8 103 -23z"/>
<path d="M1046 2678 c-2 -13 -9 -55 -14 -94 -24 -179 -216 -523 -334 -599 -78
-50 -89 -104 -33 -154 33 -28 38 -30 58 -17 43 28 254 66 367 66 38 0 38 -2
-67 -142 -92 -124 -193 -227 -250 -257 -37 -18 -43 -26 -43 -53 0 -46 30 -145
49 -162 14 -13 22 -11 71 20 73 46 214 114 380 181 172 70 210 90 210 108 0
27 -58 17 -265 -44 -110 -32 -217 -61 -238 -65 l-39 -7 129 143 c156 176 257
295 361 430 44 57 89 112 101 122 34 31 26 62 -29 121 -74 78 -100 79 -115 5
-11 -55 -69 -173 -127 -261 l-53 -80 -130 6 c-71 3 -149 8 -173 11 l-43 5 46
57 c25 31 104 134 174 227 71 94 152 196 180 227 29 31 51 65 51 78 0 29 -41
68 -118 113 -73 43 -100 47 -106 15z"/>
<path d="M1145 1093 c-432 -153 -495 -174 -561 -180 -58 -5 -64 -8 -64 -28 0
-45 88 -139 152 -164 23 -8 32 -5 70 24 51 39 239 148 468 269 179 96 244 135
244 151 2 29 -82 9 -309 -72z"/>
<path d="M1671 1137 c-6 -8 -17 -32 -25 -55 -17 -48 -77 -150 -138 -234 -51
-72 -63 -143 -29 -177 69 -69 220 55 252 208 15 72 7 197 -15 239 -18 35 -28
39 -45 19z"/>
<path d="M2415 1130 c-8 -13 16 -57 67 -120 24 -29 86 -110 138 -179 97 -129
145 -173 179 -164 43 11 55 136 21 226 -37 100 -161 196 -297 231 -70 18 -99
20 -108 6z"/>
</g>
</svg>
