<?xml version="1.0" standalone="no"?>
<!DOCTYPE svg PUBLIC "-//W3C//DTD SVG 20010904//EN"
 "http://www.w3.org/TR/2001/REC-SVG-20010904/DTD/svg10.dtd">
<svg version="1.0" xmlns="http://www.w3.org/2000/svg"
 width="340.000000pt" height="340.000000pt" viewBox="0 0 340.000000 340.000000"
 preserveAspectRatio="xMidYMid meet">
<metadata>
Created by potrace 1.15, written by Peter Selinger 2001-2017
</metadata>
<g transform="translate(0.000000,340.000000) scale(0.100000,-0.100000)"
fill="#000000" stroke="none">
<path d="M1953 2784 c-21 -9 -15 -43 21 -107 63 -115 89 -319 84 -661 l-3
-209 -155 -33 c-215 -45 -263 -57 -267 -71 -9 -25 68 -36 226 -30 86 3 166 9
179 12 l22 7 0 -155 0 -155 -42 -7 c-24 -3 -97 -15 -163 -25 -66 -11 -174 -27
-240 -35 -177 -23 -185 -24 -185 -41 0 -20 55 -52 115 -65 44 -10 63 -8 138
10 108 28 298 61 344 61 l35 0 -9 -242 c-11 -333 -10 -471 6 -551 22 -111 65
-140 89 -60 24 81 43 307 49 589 l6 292 66 6 c36 3 192 8 346 11 154 4 290 8
303 11 14 3 22 12 22 25 0 56 -52 89 -180 115 -100 20 -151 15 -350 -31 -80
-18 -160 -36 -177 -40 l-33 -7 0 161 c0 158 0 161 23 165 12 3 69 12 127 21
142 22 262 52 280 70 13 13 12 17 -6 35 -31 31 -132 35 -289 11 -71 -10 -131
-18 -133 -17 -1 2 2 160 7 352 7 291 11 357 25 394 30 78 30 78 -3 109 -52 49
-235 105 -278 85z"/>
<path d="M1006 2731 c-15 -16 -17 -30 -11 -84 9 -85 -18 -186 -90 -329 -84
-169 -158 -269 -255 -343 -49 -37 -58 -50 -64 -85 -8 -53 14 -107 47 -115 15
-4 39 1 63 13 61 31 230 80 329 96 50 8 91 13 93 11 6 -6 -123 -169 -194 -244
-54 -58 -92 -88 -134 -108 -54 -26 -59 -31 -59 -61 -1 -41 20 -84 55 -111 l26
-21 45 31 c63 43 186 99 338 153 156 56 225 86 225 99 0 17 -116 0 -269 -37
-80 -20 -160 -36 -179 -36 l-34 0 42 53 c72 91 304 358 414 477 61 65 106 122
106 134 0 33 -100 122 -145 129 -21 3 -41 4 -45 2 -4 -3 -10 -33 -12 -67 -6
-65 -29 -130 -86 -233 -58 -106 -37 -97 -245 -103 -104 -3 -187 -1 -190 4 -5
9 255 365 371 506 78 96 80 119 20 185 -38 41 -121 103 -138 103 -4 0 -15 -9
-24 -19z"/>
<path d="M2514 2452 c-6 -4 -15 -23 -19 -42 -12 -58 -51 -132 -100 -189 -58
-68 -108 -141 -102 -147 3 -3 20 2 39 12 49 25 338 193 376 219 l32 22 -26 38
c-35 51 -61 72 -111 84 -49 13 -74 14 -89 3z"/>
<path d="M1614 2255 c-10 -25 6 -67 51 -135 66 -100 123 -160 150 -160 33 0
65 44 65 89 0 59 -52 118 -166 186 -63 38 -91 44 -100 20z"/>
<path d="M1290 1351 c-108 -55 -488 -223 -602 -265 -53 -20 -113 -36 -132 -36
-84 0 -86 -23 -6 -101 61 -59 124 -99 157 -99 10 0 50 27 88 61 94 82 264 209
413 308 123 82 202 145 202 162 0 19 -48 7 -120 -30z"/>
</g>
</svg>
