<?xml version="1.0" standalone="no"?>
<!DOCTYPE svg PUBLIC "-//W3C//DTD SVG 20010904//EN"
 "http://www.w3.org/TR/2001/REC-SVG-20010904/DTD/svg10.dtd">
<svg version="1.0" xmlns="http://www.w3.org/2000/svg"
 width="340.000000pt" height="340.000000pt" viewBox="0 0 340.000000 340.000000"
 preserveAspectRatio="xMidYMid meet">
<metadata>
Created by potrace 1.15, written by Peter Selinger 2001-2017
</metadata>
<g transform="translate(0.000000,340.000000) scale(0.100000,-0.100000)"
fill="#000000" stroke="none">
<path d="M1046 2562 c-3 -5 -2 -33 4 -60 15 -80 -6 -174 -70 -317 -82 -183
-187 -313 -297 -367 l-65 -32 6 -44 c8 -61 44 -122 72 -122 12 0 46 11 76 24
67 30 233 71 358 90 52 7 96 13 98 11 5 -4 -154 -181 -236 -262 -95 -93 -186
-165 -249 -196 -41 -20 -43 -23 -43 -64 0 -49 19 -101 44 -122 14 -12 26 -9
94 22 90 41 253 94 401 132 156 39 200 62 155 79 -34 13 -121 5 -305 -29 -106
-20 -196 -34 -201 -33 -5 2 22 29 61 61 38 31 129 121 202 199 74 79 195 204
270 278 l136 135 -7 38 c-9 50 -35 85 -95 125 l-50 33 -12 -28 c-6 -15 -19
-53 -28 -83 -29 -93 -86 -210 -104 -210 -24 0 -348 -29 -411 -36 l-55 -7 67
71 c82 87 190 227 264 341 31 47 81 111 111 142 50 52 54 60 48 89 -9 41 -57
96 -107 121 -45 23 -123 36 -132 21z"/>
<path d="M2385 2470 c-10 -16 -112 -65 -196 -93 -105 -35 -280 -73 -424 -92
-137 -18 -165 -27 -165 -54 0 -22 25 -39 103 -71 l58 -23 167 56 c181 59 333
100 357 95 11 -2 -5 -30 -56 -98 -207 -275 -447 -512 -710 -698 -47 -33 -92
-68 -100 -78 -13 -16 -11 -17 29 -10 63 10 159 56 275 132 223 146 353 261
564 500 125 142 182 190 270 228 47 21 54 31 43 62 -17 43 -201 167 -215 144z"/>
<path d="M2238 1803 c89 -113 288 -275 418 -341 l42 -21 18 20 c39 43 4 157
-70 227 -34 33 -124 81 -196 105 -54 18 -190 47 -220 47 -21 0 -20 -2 8 -37z"/>
<path d="M2325 1393 c-16 -2 -73 -17 -125 -33 -133 -40 -276 -75 -410 -100
-151 -28 -190 -39 -190 -51 0 -6 21 -20 48 -32 40 -19 63 -22 157 -20 61 1
124 3 140 5 l30 3 8 -218 c5 -120 7 -221 4 -224 -14 -13 -562 -92 -644 -93
-17 0 -44 -5 -59 -10 -25 -10 -26 -11 -10 -29 10 -11 54 -35 99 -54 l82 -35
80 19 c127 30 320 67 450 86 121 17 501 23 776 13 104 -5 119 -3 138 14 29 27
26 44 -15 82 -87 83 -241 96 -576 50 -102 -14 -189 -26 -192 -26 -9 0 2 112
21 229 16 99 12 154 -12 201 -8 16 -12 31 -7 33 4 3 70 17 147 32 134 26 236
56 263 78 23 18 13 44 -25 60 -41 17 -129 28 -178 20z"/>
<path d="M1345 1032 c-33 -15 -139 -66 -236 -114 -191 -95 -381 -164 -477
-174 -79 -9 -84 -12 -72 -54 13 -45 45 -78 105 -106 79 -37 99 -33 190 42 98
80 271 198 425 289 108 64 180 119 180 137 0 16 -57 7 -115 -20z"/>
</g>
</svg>
