<?xml version="1.0" standalone="no"?>
<!DOCTYPE svg PUBLIC "-//W3C//DTD SVG 20010904//EN"
 "http://www.w3.org/TR/2001/REC-SVG-20010904/DTD/svg10.dtd">
<svg version="1.0" xmlns="http://www.w3.org/2000/svg"
 width="340.000000pt" height="340.000000pt" viewBox="0 0 340.000000 340.000000"
 preserveAspectRatio="xMidYMid meet">
<metadata>
Created by potrace 1.15, written by Peter Selinger 2001-2017
</metadata>
<g transform="translate(0.000000,340.000000) scale(0.100000,-0.100000)"
fill="#000000" stroke="none">
<path d="M1872 2648 c-1 -159 -82 -364 -230 -583 -95 -141 -151 -212 -301
-381 -61 -69 -111 -129 -111 -135 0 -20 51 -7 101 27 203 136 414 370 558 617
33 56 66 110 73 121 14 19 32 -1 361 -411 54 -67 124 -149 155 -183 l57 -61
100 -6 c94 -5 366 17 408 32 47 19 2 48 -123 80 -157 41 -333 138 -518 285
-108 85 -382 353 -382 372 0 6 20 44 45 85 25 40 45 85 45 100 0 55 -111 123
-200 123 l-37 0 -1 -82z"/>
<path d="M944 2675 c-4 -8 -4 -24 -1 -35 13 -52 -71 -326 -137 -445 -52 -91
-144 -205 -210 -256 -53 -41 -56 -46 -56 -87 0 -46 25 -111 46 -119 6 -2 40
10 74 27 35 17 92 38 129 46 71 15 189 18 208 6 27 -17 -199 -292 -300 -367
-34 -25 -68 -50 -74 -55 -16 -13 -17 -104 -2 -133 6 -12 21 -32 32 -44 l20
-22 31 24 c45 34 167 80 355 134 94 27 167 53 169 61 5 14 -21 13 -343 -7
l-109 -6 39 45 c22 25 126 144 231 264 106 121 228 255 273 299 98 97 102 116
41 194 -42 53 -73 76 -94 68 -7 -3 -30 -47 -49 -99 -20 -51 -63 -136 -95 -188
l-57 -95 -164 2 c-89 0 -165 4 -168 7 -14 14 337 526 420 613 28 30 30 35 17
58 -15 27 -79 72 -150 104 -54 25 -69 26 -76 6z"/>
<path d="M2010 1776 c-236 -65 -279 -75 -322 -81 -61 -9 -87 -27 -70 -48 52
-62 453 -38 617 37 60 27 60 28 44 58 -28 52 -149 68 -269 34z"/>
<path d="M2360 1443 c-556 -112 -831 -162 -1032 -188 -64 -8 -62 -28 4 -61 47
-24 60 -26 124 -20 40 3 113 15 163 26 50 11 102 20 115 20 l24 0 -20 -67
c-27 -89 -75 -184 -131 -258 -53 -69 -95 -105 -181 -155 -60 -36 -61 -36 -64
-85 -4 -61 30 -143 64 -151 13 -3 45 6 83 25 85 43 323 121 537 175 100 25
186 46 192 46 5 0 33 -42 62 -92 60 -106 113 -175 145 -190 53 -24 92 42 82
139 -8 78 -57 173 -124 245 -66 68 -251 211 -267 205 -18 -7 -9 -51 29 -147
20 -51 35 -94 33 -96 -18 -18 -592 -123 -604 -111 -6 6 128 174 249 312 53 61
97 119 97 129 0 11 -18 36 -40 57 -22 21 -40 40 -40 42 0 15 401 46 625 48
182 2 209 6 213 37 5 34 -46 76 -115 95 -63 17 -183 28 -223 20z"/>
<path d="M1185 1063 c-11 -2 -114 -35 -230 -73 -259 -85 -350 -109 -438 -117
-81 -7 -116 -28 -99 -60 23 -41 140 -123 178 -123 9 0 48 20 88 44 39 25 177
96 306 159 235 115 295 150 285 168 -6 9 -53 10 -90 2z"/>
</g>
</svg>
