<?xml version="1.0" standalone="no"?>
<!DOCTYPE svg PUBLIC "-//W3C//DTD SVG 20010904//EN"
 "http://www.w3.org/TR/2001/REC-SVG-20010904/DTD/svg10.dtd">
<svg version="1.0" xmlns="http://www.w3.org/2000/svg"
 width="340.000000pt" height="340.000000pt" viewBox="0 0 340.000000 340.000000"
 preserveAspectRatio="xMidYMid meet">
<metadata>
Created by potrace 1.15, written by Peter Selinger 2001-2017
</metadata>
<g transform="translate(0.000000,340.000000) scale(0.100000,-0.100000)"
fill="#000000" stroke="none">
<path d="M2103 2722 c-7 -4 -18 -25 -25 -47 -18 -55 -78 -97 -289 -206 -97
-50 -187 -101 -200 -115 l-22 -24 33 0 c63 0 326 87 645 213 141 56 143 64 20
128 -94 49 -142 64 -162 51z"/>
<path d="M921 2661 c-13 -8 -12 -17 4 -65 18 -53 18 -58 2 -133 -36 -164 -184
-402 -318 -509 -72 -58 -90 -90 -70 -127 18 -33 78 -72 93 -60 32 25 254 90
367 108 52 9 55 15 -52 -122 -96 -123 -221 -245 -282 -275 -24 -12 -47 -28
-50 -36 -8 -22 21 -114 46 -145 27 -35 52 -34 100 3 46 37 231 126 354 170
128 46 235 106 235 133 0 19 -99 -2 -282 -62 -184 -60 -268 -83 -268 -74 0 8
204 238 330 373 64 69 147 150 183 180 37 30 67 60 67 67 0 37 -127 136 -169
131 -22 -3 -25 -8 -25 -53 -1 -40 -11 -68 -47 -135 l-46 -85 -179 -11 c-99 -6
-181 -10 -183 -8 -5 5 301 415 382 512 66 79 68 84 57 112 -14 33 -68 72 -140
100 -55 22 -87 25 -109 11z"/>
<path d="M2386 2454 c-9 -8 -16 -26 -16 -38 0 -60 -68 -181 -153 -274 -22 -23
-37 -45 -33 -49 9 -9 133 53 249 124 51 30 111 67 135 80 25 15 42 32 42 43 0
23 -59 72 -124 105 -58 29 -79 31 -100 9z"/>
<path d="M1834 2276 c-7 -19 34 -100 86 -171 30 -41 47 -55 65 -55 57 0 73
123 24 177 -51 54 -161 85 -175 49z"/>
<path d="M1484 2165 c-9 -23 13 -66 77 -152 66 -89 83 -97 121 -54 74 83 -2
193 -149 216 -35 5 -44 4 -49 -10z"/>
<path d="M2260 1969 c-25 -6 -117 -30 -205 -54 -190 -52 -338 -86 -495 -115
-183 -33 -172 -28 -125 -53 48 -26 142 -27 275 -3 53 9 88 12 94 6 9 -9 -25
-215 -38 -227 -3 -4 -103 -21 -222 -39 -119 -18 -219 -36 -222 -38 -3 -3 21
-17 54 -32 l59 -26 143 22 c79 12 146 19 149 16 9 -9 -75 -170 -136 -260 -118
-178 -298 -360 -483 -491 -159 -112 -188 -136 -188 -152 0 -24 49 -10 155 42
233 115 460 300 588 479 13 18 15 17 64 -8 55 -27 177 -122 232 -180 l35 -36
-30 -31 c-76 -81 -206 -149 -396 -209 -70 -22 -130 -45 -133 -50 -9 -15 94
-12 205 5 166 25 310 80 413 159 26 20 50 36 52 36 3 0 52 -41 108 -92 56 -50
137 -118 180 -150 l79 -58 76 0 c74 0 273 28 371 52 55 13 101 35 101 47 0 5
-53 22 -117 36 -165 38 -312 81 -418 122 -90 36 -229 102 -272 130 l-22 15 25
37 c13 21 40 74 58 117 47 112 81 176 111 212 l26 31 -41 45 c-71 77 -163 90
-267 37 -59 -30 -137 -52 -246 -69 -67 -10 -66 -22 -8 119 32 82 41 94 67 101
50 13 372 57 529 72 164 16 185 21 185 43 0 76 -225 111 -379 58 -69 -23 -254
-76 -315 -90 -27 -6 -28 -5 -22 22 4 15 20 57 37 92 l29 63 -37 34 c-20 19
-32 34 -25 34 7 0 107 16 223 36 205 34 332 65 344 83 9 15 -5 38 -29 49 -35
16 -146 22 -196 11z m-103 -822 c-5 -54 -56 -197 -82 -231 -14 -18 -23 -14
-183 95 l-169 114 21 32 c12 19 27 31 34 28 37 -14 125 -14 192 -2 41 8 102
15 134 16 l59 1 -6 -53z"/>
<path d="M1090 1174 c-245 -97 -479 -173 -579 -188 -99 -14 -111 -20 -111 -45
0 -39 118 -127 184 -138 31 -5 43 1 108 49 100 74 212 144 345 216 166 89 279
173 231 172 -7 0 -87 -30 -178 -66z"/>
</g>
</svg>
