<?xml version="1.0" standalone="no"?>
<!DOCTYPE svg PUBLIC "-//W3C//DTD SVG 20010904//EN"
 "http://www.w3.org/TR/2001/REC-SVG-20010904/DTD/svg10.dtd">
<svg version="1.0" xmlns="http://www.w3.org/2000/svg"
 width="340.000000pt" height="340.000000pt" viewBox="0 0 340.000000 340.000000"
 preserveAspectRatio="xMidYMid meet">
<metadata>
Created by potrace 1.15, written by Peter Selinger 2001-2017
</metadata>
<g transform="translate(0.000000,340.000000) scale(0.100000,-0.100000)"
fill="#000000" stroke="none">
<path d="M2245 2779 c-152 -47 -883 -136 -1210 -148 -176 -6 -180 -7 -183 -28
-2 -16 14 -41 55 -85 67 -72 123 -179 177 -335 61 -177 78 -194 124 -122 24
36 24 36 155 58 248 40 550 76 706 83 49 2 55 0 67 -25 46 -86 122 -35 261
177 36 54 101 136 145 182 l80 84 -33 31 c-37 34 -122 80 -217 115 -67 26 -81
27 -127 13z m32 -196 c-6 -92 -27 -165 -70 -248 -41 -79 -41 -79 -65 -64 -16
10 -36 10 -99 1 -43 -6 -108 -15 -145 -18 l-66 -7 74 149 c41 81 74 155 74
165 0 9 -21 31 -47 48 -27 17 -46 32 -43 33 12 4 280 25 334 27 l59 1 -6 -87z
m-463 31 c18 -47 -7 -263 -39 -339 -12 -31 -14 -32 -131 -49 -66 -9 -127 -20
-137 -22 -18 -6 -18 -4 -2 26 38 74 28 183 -27 294 -16 32 -28 60 -25 62 4 4
287 41 328 43 16 1 29 -5 33 -15z m-429 -44 c7 -12 77 -362 73 -366 -5 -4
-260 -35 -263 -32 -5 6 -105 353 -105 364 0 6 55 17 138 26 75 8 140 16 144
17 4 0 10 -4 13 -9z"/>
<path d="M1764 2106 c-3 -7 6 -58 20 -112 14 -54 30 -139 37 -189 16 -133 15
-920 -2 -1060 -23 -188 -12 -287 40 -355 17 -21 22 -23 46 -12 16 7 35 31 48
60 21 44 22 61 22 275 l0 227 41 0 c23 0 122 5 220 10 453 26 545 40 566 85 9
21 8 29 -8 46 -30 34 -80 50 -173 56 -78 5 -103 1 -276 -41 -181 -43 -373 -81
-380 -74 -2 2 -6 89 -10 194 l-7 191 68 -10 c104 -15 399 19 453 52 20 13 6
57 -24 77 -53 35 -93 35 -194 3 -100 -32 -277 -79 -298 -79 -15 0 -17 59 -7
222 l7 105 106 1 c209 2 501 61 501 100 0 14 -43 50 -73 61 -49 19 -94 12
-230 -33 -119 -40 -261 -76 -302 -76 -20 0 -19 11 7 94 l22 69 -45 40 c-42 38
-130 87 -157 87 -7 0 -15 -6 -18 -14z"/>
<path d="M1318 1984 c-15 -15 -8 -46 21 -87 35 -50 46 -91 28 -105 -12 -10
-230 -38 -396 -50 -75 -6 -96 -11 -105 -25 -9 -15 -5 -24 26 -52 20 -19 49
-37 64 -41 23 -6 147 14 397 63 l27 6 0 -141 0 -140 -52 -5 c-29 -2 -125 -10
-213 -17 -198 -15 -207 -16 -203 -37 5 -28 82 -75 129 -80 27 -3 99 7 188 26
79 17 148 28 153 25 9 -6 10 -169 0 -234 l-7 -45 -50 -7 c-143 -21 -582 -68
-632 -68 -32 0 -64 -4 -72 -9 -25 -16 3 -56 76 -110 52 -39 74 -49 93 -45 14
4 148 46 299 96 150 49 276 87 279 84 6 -7 -25 -199 -45 -275 -12 -49 -12 -61
2 -106 18 -54 53 -112 73 -120 43 -16 73 54 79 190 2 55 8 311 13 570 7 364
12 486 24 540 22 97 21 109 -16 137 -65 49 -161 82 -180 62z"/>
</g>
</svg>
