<?xml version="1.0" standalone="no"?>
<!DOCTYPE svg PUBLIC "-//W3C//DTD SVG 20010904//EN"
 "http://www.w3.org/TR/2001/REC-SVG-20010904/DTD/svg10.dtd">
<svg version="1.0" xmlns="http://www.w3.org/2000/svg"
 width="340.000000pt" height="340.000000pt" viewBox="0 0 340.000000 340.000000"
 preserveAspectRatio="xMidYMid meet">
<metadata>
Created by potrace 1.15, written by Peter Selinger 2001-2017
</metadata>
<g transform="translate(0.000000,340.000000) scale(0.100000,-0.100000)"
fill="#000000" stroke="none">
<path d="M1998 2848 c8 -68 -70 -181 -235 -344 -46 -45 -83 -86 -83 -92 0 -26
130 33 379 171 150 83 186 108 197 132 12 28 11 32 -24 68 -48 50 -122 87
-187 94 l-51 5 4 -34z"/>
<path d="M1141 2622 c-21 -40 134 -258 199 -280 70 -25 103 62 61 160 -17 40
-27 49 -110 91 -100 51 -135 57 -150 29z"/>
<path d="M1885 2320 c-140 -39 -374 -90 -570 -125 -250 -44 -245 -42 -245 -61
0 -44 212 -68 363 -41 42 7 79 11 82 9 7 -7 6 -160 -1 -205 -4 -22 -15 -42
-25 -48 -10 -5 -98 -23 -195 -39 -97 -17 -181 -33 -186 -36 -38 -23 78 -45
240 -45 130 0 132 0 132 -22 0 -32 -30 -191 -39 -205 -4 -7 -127 -26 -332 -49
-188 -21 -330 -42 -337 -49 -36 -31 62 -104 140 -104 25 0 107 16 184 35 219
54 314 74 314 64 0 -39 -117 -242 -204 -353 -155 -198 -313 -322 -605 -478
-36 -19 -66 -39 -69 -46 -7 -22 84 -13 180 19 385 128 673 402 818 779 18 47
36 88 40 92 16 19 245 40 507 46 265 7 283 8 310 28 79 59 -4 123 -172 131
-79 3 -122 -3 -360 -50 -148 -30 -271 -53 -273 -52 -2 2 4 27 13 57 9 29 20
84 25 121 4 38 10 70 12 72 2 1 82 15 178 29 285 44 350 63 350 106 0 11 -11
27 -25 36 -37 24 -179 13 -333 -25 -68 -17 -127 -31 -133 -31 -15 0 -11 19 17
81 33 72 27 99 -28 139 -22 17 -37 30 -32 30 27 0 279 44 407 71 150 32 197
53 197 88 0 29 -49 43 -165 47 -87 3 -125 -1 -180 -16z"/>
<path d="M1658 1398 c-2 -6 -1 -37 4 -67 16 -114 20 -300 9 -433 -7 -97 -7
-154 0 -195 37 -201 193 -297 504 -310 309 -13 662 69 744 173 27 34 27 95 1
249 -11 65 -23 169 -27 231 -3 63 -8 112 -11 109 -3 -3 -21 -56 -39 -117 -41
-133 -89 -241 -138 -309 -65 -88 -226 -148 -457 -171 -263 -27 -438 41 -464
181 -10 50 12 287 37 401 37 171 37 171 -7 209 -59 53 -146 80 -156 49z"/>
</g>
</svg>
