<?xml version="1.0" standalone="no"?>
<!DOCTYPE svg PUBLIC "-//W3C//DTD SVG 20010904//EN"
 "http://www.w3.org/TR/2001/REC-SVG-20010904/DTD/svg10.dtd">
<svg version="1.0" xmlns="http://www.w3.org/2000/svg"
 width="340.000000pt" height="340.000000pt" viewBox="0 0 340.000000 340.000000"
 preserveAspectRatio="xMidYMid meet">
<metadata>
Created by potrace 1.15, written by Peter Selinger 2001-2017
</metadata>
<g transform="translate(0.000000,340.000000) scale(0.100000,-0.100000)"
fill="#000000" stroke="none">
<path d="M2005 2820 c-4 -7 -9 -34 -10 -60 -4 -63 -50 -148 -177 -326 -54 -75
-98 -141 -98 -146 0 -30 102 30 271 158 68 52 165 124 216 160 50 36 94 72 97
80 7 17 -64 78 -130 110 -60 29 -157 43 -169 24z"/>
<path d="M1206 2635 c-8 -22 0 -39 69 -145 72 -111 128 -170 162 -170 31 0 71
43 79 86 9 47 -34 132 -78 158 -145 83 -218 105 -232 71z"/>
<path d="M2095 2273 c-372 -85 -637 -138 -812 -163 -232 -32 -265 -47 -177
-80 29 -10 93 -14 249 -16 l210 -1 12 -39 c6 -21 12 -80 12 -130 l1 -92 -112
-21 c-62 -12 -168 -27 -236 -35 -68 -8 -129 -19 -137 -26 -40 -33 45 -72 155
-72 67 0 276 25 323 38 16 5 17 -6 17 -140 l0 -145 -52 -10 c-109 -22 -287
-42 -462 -52 -100 -6 -185 -15 -190 -19 -11 -11 104 -86 144 -95 15 -3 97 5
182 19 364 60 735 96 983 96 138 0 175 3 193 16 44 31 20 73 -67 115 -64 31
-161 29 -381 -10 -96 -17 -187 -33 -202 -36 l-28 -5 0 145 c0 80 1 145 3 145
24 0 317 54 357 66 89 26 112 41 108 72 -5 42 -47 57 -153 56 -77 0 -106 -6
-194 -37 -58 -20 -107 -34 -109 -32 -3 2 0 39 5 82 12 93 4 125 -39 170 l-32
33 31 0 c18 0 110 13 205 29 184 32 344 73 367 96 44 43 -81 100 -174 78z"/>
<path d="M726 973 c-15 -43 -46 -114 -71 -158 -118 -210 -129 -236 -129 -303
-1 -58 2 -66 28 -89 70 -60 162 28 223 212 23 70 26 98 27 215 1 138 -11 200
-39 200 -8 0 -25 -34 -39 -77z"/>
<path d="M1693 1034 c-8 -21 8 -52 84 -169 122 -185 164 -224 222 -204 59 21
66 70 22 157 -36 71 -60 97 -139 151 -109 73 -176 97 -189 65z"/>
<path d="M2330 1010 c0 -23 23 -57 102 -152 124 -147 316 -348 352 -368 24
-13 28 -11 56 15 77 74 58 192 -53 320 -55 64 -360 215 -434 215 -19 0 -23 -5
-23 -30z"/>
<path d="M1172 1008 c-17 -17 -15 -38 14 -120 58 -164 123 -248 189 -248 105
0 69 211 -52 301 -93 70 -131 87 -151 67z"/>
</g>
</svg>
