<?xml version="1.0" standalone="no"?>
<!DOCTYPE svg PUBLIC "-//W3C//DTD SVG 20010904//EN"
 "http://www.w3.org/TR/2001/REC-SVG-20010904/DTD/svg10.dtd">
<svg version="1.0" xmlns="http://www.w3.org/2000/svg"
 width="340.000000pt" height="340.000000pt" viewBox="0 0 340.000000 340.000000"
 preserveAspectRatio="xMidYMid meet">
<metadata>
Created by potrace 1.15, written by Peter Selinger 2001-2017
</metadata>
<g transform="translate(0.000000,340.000000) scale(0.100000,-0.100000)"
fill="#000000" stroke="none">
<path d="M2233 2504 c-89 -44 -261 -94 -368 -109 -147 -19 -138 -64 21 -95 61
-12 63 -12 217 39 183 60 235 65 266 25 12 -15 29 -50 38 -78 16 -46 18 -115
21 -649 2 -506 0 -612 -13 -688 -16 -96 -46 -169 -69 -169 -8 0 -78 22 -156
50 -131 46 -190 60 -190 43 0 -3 40 -48 90 -99 49 -51 116 -134 149 -186 33
-51 70 -106 83 -122 l24 -28 40 20 c78 40 135 118 180 246 l27 78 -12 657
c-14 756 -14 758 57 898 25 50 25 53 8 72 -26 29 -126 79 -223 112 -48 16 -89
29 -92 28 -3 0 -47 -20 -98 -45z"/>
<path d="M1305 2435 c-79 -46 -185 -79 -320 -99 -151 -23 -155 -24 -155 -44 0
-21 27 -39 97 -63 l54 -18 82 24 c225 68 258 76 288 73 21 -2 39 -12 53 -31
19 -25 21 -45 24 -170 6 -270 -16 -1046 -32 -1126 -19 -93 -51 -159 -79 -167
-12 -2 -87 11 -166 30 -79 20 -147 33 -152 30 -5 -3 29 -42 74 -87 46 -45 111
-118 144 -162 83 -110 97 -121 128 -107 38 18 111 89 139 135 13 23 34 76 47
117 26 85 25 41 21 780 -3 544 -1 563 57 700 17 40 31 78 31 85 0 36 -149 120
-230 130 -39 5 -53 1 -105 -30z"/>
<path d="M1795 2042 c-32 -4 -55 -18 -55 -34 0 -27 223 -186 292 -208 46 -14
53 -10 68 36 26 77 -27 164 -113 188 -55 15 -143 23 -192 18z"/>
<path d="M765 1961 c-15 -25 8 -62 92 -149 82 -84 151 -132 188 -132 40 0 44
114 6 187 -18 36 -26 41 -107 67 -102 34 -168 43 -179 27z"/>
<path d="M2334 1701 c-17 -11 -82 -57 -145 -104 -221 -164 -475 -317 -527
-317 -21 0 -6 -49 26 -84 28 -30 115 -76 144 -76 10 0 33 17 52 38 18 20 80
88 137 150 306 332 359 395 348 407 -3 2 -19 -4 -35 -14z"/>
<path d="M1255 1627 c-12 -7 -75 -55 -140 -108 -204 -164 -366 -266 -510 -320
-68 -25 -71 -43 -14 -100 39 -39 148 -99 180 -99 19 0 61 45 84 90 10 19 98
116 195 215 170 174 270 292 270 321 0 17 -37 18 -65 1z"/>
</g>
</svg>
