<?xml version="1.0" standalone="no"?>
<!DOCTYPE svg PUBLIC "-//W3C//DTD SVG 20010904//EN"
 "http://www.w3.org/TR/2001/REC-SVG-20010904/DTD/svg10.dtd">
<svg version="1.0" xmlns="http://www.w3.org/2000/svg"
 width="340.000000pt" height="340.000000pt" viewBox="0 0 340.000000 340.000000"
 preserveAspectRatio="xMidYMid meet">
<metadata>
Created by potrace 1.15, written by Peter Selinger 2001-2017
</metadata>
<g transform="translate(0.000000,340.000000) scale(0.100000,-0.100000)"
fill="#000000" stroke="none">
<path d="M1738 2872 c-45 -5 -33 -27 40 -73 104 -65 169 -123 407 -358 255
-253 223 -237 443 -221 209 15 302 31 302 50 0 15 -31 27 -166 65 -313 88
-531 208 -764 419 -47 42 -98 84 -113 92 -33 18 -109 31 -149 26z"/>
<path d="M1215 2732 c-3 -3 -5 -15 -5 -26 0 -12 -13 -48 -29 -81 -49 -104
-158 -228 -357 -406 -111 -99 -137 -135 -107 -146 25 -10 111 41 258 152 176
132 314 248 399 334 l70 70 -23 25 c-35 37 -188 96 -206 78z"/>
<path d="M1584 2528 c-6 -7 -19 -35 -28 -61 -47 -126 -213 -319 -334 -387
-128 -72 -122 -67 -122 -103 0 -47 18 -95 40 -107 33 -18 69 -11 227 40 137
44 457 128 554 145 33 6 43 2 95 -38 33 -25 77 -50 98 -57 37 -12 41 -11 58
10 24 30 23 80 -3 141 -18 40 -32 56 -78 84 -142 86 -240 117 -254 81 -6 -15
19 -60 65 -119 17 -21 29 -39 27 -41 -7 -6 -641 -98 -645 -93 -2 2 94 75 213
163 310 227 306 222 262 278 -39 50 -154 92 -175 64z"/>
<path d="M2018 1784 c-102 -43 -203 -72 -313 -90 -40 -7 -50 -13 -50 -29 0
-14 13 -24 45 -37 61 -23 83 -22 158 8 70 28 192 54 253 54 38 0 41 -3 59 -43
43 -97 54 -211 55 -557 0 -179 -3 -337 -7 -351 -14 -48 -91 -61 -226 -38 -97
17 -97 3 0 -79 46 -39 108 -101 138 -138 105 -128 95 -120 126 -109 37 13 87
79 115 152 30 80 34 177 15 442 -9 124 -16 289 -16 368 0 133 2 150 31 239
l32 95 -34 35 c-40 41 -97 76 -159 97 -89 30 -107 28 -222 -19z"/>
<path d="M1185 1679 c-106 -40 -296 -89 -348 -89 -85 0 -85 -34 -2 -66 53 -20
91 -16 210 20 122 37 171 39 196 6 28 -36 39 -123 39 -295 -1 -282 -23 -482
-60 -527 -17 -21 -26 -23 -104 -21 -47 0 -89 -3 -92 -8 -3 -5 28 -42 69 -82
41 -39 89 -98 107 -129 17 -32 35 -60 39 -62 4 -3 25 5 46 17 48 27 99 107
114 179 7 28 11 180 11 361 1 345 7 425 47 540 l26 79 -29 24 c-38 31 -121 72
-159 79 -19 3 -58 -6 -110 -26z"/>
<path d="M1668 1484 c-45 -13 -26 -63 54 -140 85 -83 140 -102 178 -64 29 29
26 85 -6 131 -20 29 -36 40 -82 52 -70 19 -122 27 -144 21z"/>
<path d="M760 1367 c0 -36 90 -178 129 -204 42 -29 55 -29 81 0 18 18 21 31
18 75 -5 59 -9 63 -109 117 -80 42 -119 46 -119 12z"/>
<path d="M2017 1159 c-113 -58 -280 -124 -393 -157 -67 -19 -100 -33 -102 -44
-6 -33 122 -128 172 -128 8 0 38 22 68 48 29 27 112 87 183 134 129 85 225
161 225 179 0 22 -79 6 -153 -32z"/>
<path d="M1050 1069 c-174 -60 -338 -106 -419 -118 -40 -5 -75 -12 -78 -15 -3
-2 -2 -24 2 -48 9 -53 55 -102 110 -117 43 -11 33 -15 152 62 32 21 110 70
173 109 125 77 201 132 213 154 13 23 -28 16 -153 -27z"/>
</g>
</svg>
