<?xml version="1.0" standalone="no"?>
<!DOCTYPE svg PUBLIC "-//W3C//DTD SVG 20010904//EN"
 "http://www.w3.org/TR/2001/REC-SVG-20010904/DTD/svg10.dtd">
<svg version="1.0" xmlns="http://www.w3.org/2000/svg"
 width="340.000000pt" height="340.000000pt" viewBox="0 0 340.000000 340.000000"
 preserveAspectRatio="xMidYMid meet">
<metadata>
Created by potrace 1.15, written by Peter Selinger 2001-2017
</metadata>
<g transform="translate(0.000000,340.000000) scale(0.100000,-0.100000)"
fill="#000000" stroke="none">
<path d="M1158 2775 c-15 -8 -32 -24 -38 -35 -9 -17 0 -28 72 -90 79 -67 202
-140 237 -140 9 0 27 7 39 16 41 28 21 136 -35 187 -59 52 -225 90 -275 62z"/>
<path d="M2621 2390 c-52 -39 -129 -73 -194 -85 -42 -8 -66 -30 -50 -46 20
-20 107 -24 191 -11 140 24 144 14 164 -361 l12 -218 -113 -113 c-62 -62 -153
-144 -202 -182 -49 -38 -91 -79 -95 -91 -9 -35 26 -85 81 -115 28 -15 54 -26
58 -25 4 1 27 45 51 97 46 103 136 254 185 310 l30 35 1 -200 c0 -211 -15
-499 -29 -550 -7 -27 -12 -30 -47 -29 -21 0 -67 6 -101 14 -34 8 -65 11 -69 8
-3 -4 18 -44 48 -90 30 -46 76 -121 101 -168 68 -124 79 -137 113 -125 38 14
77 80 111 190 28 90 28 91 27 370 0 154 -8 429 -18 612 -20 364 -14 509 24
624 11 32 20 63 20 68 0 16 -81 70 -135 90 -95 35 -107 34 -164 -9z"/>
<path d="M1390 2339 c-54 -34 -169 -80 -275 -110 l-77 -21 -67 30 c-70 32
-130 45 -150 33 -9 -6 -9 -25 1 -85 27 -173 -25 -555 -112 -817 -75 -228 -175
-415 -355 -663 -36 -50 -44 -76 -23 -76 24 0 205 196 267 290 76 113 166 292
212 421 l34 94 3 -195 c1 -107 -2 -240 -8 -295 -23 -206 -23 -229 -6 -288 16
-54 44 -85 66 -72 23 14 33 90 35 280 l2 200 66 9 c37 5 69 7 71 5 3 -2 9 -61
14 -132 4 -70 12 -130 15 -134 24 -23 46 84 47 218 l0 76 76 17 c42 9 79 14
82 11 3 -2 -3 -82 -12 -177 -19 -181 -19 -239 0 -245 32 -11 86 183 100 357 5
66 10 90 22 95 8 3 48 8 88 12 l74 6 0 -114 c0 -142 -15 -289 -34 -334 -15
-35 -15 -35 -80 -35 -36 0 -67 -3 -69 -8 -5 -8 134 -242 145 -242 23 0 75 65
115 146 l47 94 6 230 c4 127 9 233 12 236 3 3 29 -6 57 -20 64 -33 77 -33 99
2 9 16 46 63 82 105 96 115 161 227 131 227 -5 0 -60 -34 -123 -77 -109 -74
-234 -140 -244 -130 -8 8 16 136 36 198 11 32 20 67 20 78 0 22 -56 51 -182
96 l-77 27 -83 -35 c-95 -41 -214 -76 -377 -112 -126 -28 -179 -31 -186 -12
-3 6 12 68 32 136 l38 124 290 53 c160 28 298 55 307 59 33 13 31 39 -6 70
l-35 30 33 70 c19 39 50 92 70 120 20 27 36 59 36 70 0 43 -127 135 -185 134
-11 0 -40 -13 -65 -30z m10 -190 c0 -17 -9 -70 -20 -118 l-21 -87 -191 -47
c-105 -26 -192 -46 -195 -44 -3 4 27 261 31 263 13 6 332 63 359 63 35 1 37
-1 37 -30z m156 -644 c12 -18 18 -57 22 -136 5 -110 5 -111 -16 -100 -29 15
-73 13 -96 -4 -11 -8 -28 -15 -38 -15 -17 0 -18 9 -17 96 2 84 -1 99 -20 125
-25 33 -24 33 54 48 81 14 93 13 111 -14z m-259 -65 c7 -19 12 -76 12 -126 l1
-91 -57 -16 c-32 -9 -66 -19 -75 -22 -17 -7 -18 3 -18 113 0 105 -2 122 -17
131 -23 13 -19 15 52 34 79 20 88 18 102 -23z m-223 -62 c3 -29 6 -90 6 -135
l0 -82 -37 -10 c-21 -5 -55 -13 -76 -17 l-38 -6 3 143 3 144 35 6 c19 4 49 7
66 8 30 1 31 0 38 -51z"/>
<path d="M2030 2319 c-37 -31 -124 -72 -217 -103 -97 -32 -114 -47 -81 -70 31
-22 127 -21 219 4 123 32 127 30 149 -87 38 -210 41 -1023 4 -1217 -6 -35 -8
-36 -51 -36 -24 0 -63 5 -87 11 -23 6 -58 9 -76 7 l-34 -3 75 -75 c41 -41 100
-111 130 -154 65 -95 80 -107 107 -83 31 28 73 131 88 215 16 90 17 314 4 532
-14 229 -14 702 0 780 6 36 21 87 32 113 l21 48 -34 36 c-36 38 -132 87 -189
97 -27 5 -41 1 -60 -15z"/>
<path d="M2315 1869 c-10 -15 30 -54 113 -110 89 -59 112 -66 146 -44 39 26
43 58 13 104 -23 35 -32 40 -90 50 -81 14 -174 14 -182 0z"/>
<path d="M1725 1840 c-9 -14 26 -59 92 -121 70 -63 110 -89 140 -89 46 0 39
98 -12 158 -37 44 -201 83 -220 52z"/>
</g>
</svg>
