<?xml version="1.0" standalone="no"?>
<!DOCTYPE svg PUBLIC "-//W3C//DTD SVG 20010904//EN"
 "http://www.w3.org/TR/2001/REC-SVG-20010904/DTD/svg10.dtd">
<svg version="1.0" xmlns="http://www.w3.org/2000/svg"
 width="340.000000pt" height="340.000000pt" viewBox="0 0 340.000000 340.000000"
 preserveAspectRatio="xMidYMid meet">
<metadata>
Created by potrace 1.15, written by Peter Selinger 2001-2017
</metadata>
<g transform="translate(0.000000,340.000000) scale(0.100000,-0.100000)"
fill="#000000" stroke="none">
<path d="M1094 2775 c-3 -7 6 -42 19 -77 29 -72 62 -228 71 -335 l6 -72 -57
-11 c-120 -24 -349 -81 -363 -90 -57 -37 162 -51 373 -24 l47 7 0 -127 c0
-122 -1 -126 -22 -131 -13 -3 -98 -23 -191 -44 -92 -21 -170 -41 -174 -45 -4
-3 -1 -12 6 -19 14 -14 219 -17 319 -4 l62 8 0 -120 c0 -105 -2 -120 -17 -125
-115 -35 -559 -116 -640 -116 -60 0 -83 -7 -83 -25 0 -21 78 -83 128 -102 50
-19 49 -19 218 40 103 37 303 91 310 84 2 -2 -40 -61 -93 -133 -124 -165 -353
-395 -482 -484 -52 -36 -97 -71 -99 -79 -12 -38 155 33 291 123 149 98 280
226 397 390 30 41 55 74 56 73 2 -1 -2 -67 -7 -147 -11 -175 -33 -337 -61
-445 -33 -129 -14 -286 40 -341 29 -28 39 -27 63 7 35 48 47 160 55 507 3 182
8 332 10 332 2 0 49 -36 106 -80 105 -82 142 -96 168 -65 16 19 8 108 -11 131
-22 27 -88 52 -178 68 -45 7 -84 16 -86 18 -2 2 -1 44 2 94 l6 91 101 23 c166
37 173 40 197 59 31 24 19 47 -30 61 -36 9 -52 7 -146 -25 -58 -19 -110 -35
-115 -35 -7 0 -10 44 -8 121 l3 122 130 29 c177 39 212 66 143 108 -46 28
-121 26 -205 -5 -37 -13 -68 -23 -69 -22 -1 1 1 58 5 127 l6 124 30 8 c17 3
82 18 147 33 84 19 123 33 142 50 37 34 33 60 -11 84 -32 16 -66 14 -181 -14
-57 -14 -109 -25 -116 -25 -16 0 -9 47 30 229 l27 125 -34 28 c-56 47 -128 78
-181 78 -33 0 -50 -5 -54 -15z"/>
<path d="M2480 2325 c-25 -8 -171 -51 -325 -95 -252 -73 -320 -99 -304 -115
12 -12 119 -25 204 -25 153 0 429 56 528 107 67 34 88 89 45 117 -35 22 -98
27 -148 11z"/>
<path d="M2745 1834 c-393 -97 -672 -160 -862 -194 -150 -26 -214 -59 -158
-80 14 -6 87 -10 161 -10 155 0 146 9 115 -112 -23 -90 -67 -182 -124 -258
-51 -68 -56 -73 -180 -140 l-102 -55 1 -61 c1 -62 23 -118 52 -129 8 -3 53 11
101 31 163 68 351 134 533 188 263 77 233 75 265 15 16 -28 63 -104 105 -169
100 -155 136 -168 172 -63 20 59 20 137 0 196 -30 88 -321 342 -383 335 -38
-4 -37 -32 3 -118 l34 -75 -26 -7 c-15 -4 -142 -26 -282 -48 -140 -22 -263
-42 -272 -44 -10 -2 -18 -1 -18 3 0 16 155 198 268 313 136 139 137 142 72
188 -35 25 -31 40 10 40 95 0 684 118 728 146 32 21 27 49 -15 81 -31 24 -47
28 -107 30 -39 1 -80 -1 -91 -3z"/>
</g>
</svg>
