<?xml version="1.0" standalone="no"?>
<!DOCTYPE svg PUBLIC "-//W3C//DTD SVG 20010904//EN"
 "http://www.w3.org/TR/2001/REC-SVG-20010904/DTD/svg10.dtd">
<svg version="1.0" xmlns="http://www.w3.org/2000/svg"
 width="340.000000pt" height="340.000000pt" viewBox="0 0 340.000000 340.000000"
 preserveAspectRatio="xMidYMid meet">
<metadata>
Created by potrace 1.15, written by Peter Selinger 2001-2017
</metadata>
<g transform="translate(0.000000,340.000000) scale(0.100000,-0.100000)"
fill="#000000" stroke="none">
<path d="M1440 2724 c-155 -47 -403 -107 -580 -140 -139 -27 -160 -34 -160
-61 0 -19 74 -35 148 -32 64 3 68 2 80 -25 27 -54 32 -168 30 -616 l-3 -455
-96 -32 c-52 -18 -145 -40 -205 -50 -101 -17 -109 -20 -112 -41 -2 -15 5 -33
18 -47 25 -26 137 -75 173 -75 13 0 119 49 237 109 211 107 416 201 439 201 9
0 10 -22 6 -77 -15 -194 -28 -305 -46 -394 -17 -88 -18 -100 -3 -141 17 -52
73 -112 100 -106 45 8 49 42 52 411 l3 349 92 42 c94 44 124 67 112 86 -11 17
-90 11 -144 -11 -28 -12 -54 -19 -57 -16 -6 6 13 582 26 752 9 128 4 139 -74
192 -30 20 -43 35 -35 38 8 2 68 16 134 31 131 28 165 44 165 75 0 26 -90 69
-145 68 -22 0 -92 -16 -155 -35z m-40 -201 c18 -73 23 -305 15 -655 l-7 -317
-165 -55 c-117 -39 -165 -51 -169 -43 -2 7 -3 87 -2 177 l3 165 80 7 c74 6
182 29 205 43 17 10 11 33 -12 49 -30 21 -79 20 -163 -4 -122 -35 -115 -42
-115 115 0 100 3 137 13 140 6 2 63 11 124 18 118 15 163 33 163 67 0 46 -72
52 -180 15 -40 -14 -79 -25 -87 -25 -16 0 -17 74 -3 135 11 49 0 70 -65 116
l-47 34 114 17 c62 9 145 24 183 31 105 22 101 23 115 -30z"/>
<path d="M2374 2671 c-80 -42 -134 -63 -198 -76 -83 -17 -91 -18 -159 -2 -82
19 -163 22 -172 6 -4 -6 4 -36 18 -67 14 -31 34 -102 44 -157 17 -92 18 -170
18 -1005 0 -732 3 -912 13 -943 39 -110 100 71 122 363 7 90 11 424 10 875 -1
402 -1 753 -1 781 l1 52 104 26 c132 33 211 42 221 27 16 -28 -80 -272 -169
-426 l-46 -80 28 -25 c16 -14 59 -46 95 -72 137 -100 249 -307 223 -413 -4
-16 -19 -32 -40 -42 -32 -15 -44 -15 -158 1 -143 19 -168 20 -168 6 0 -5 28
-24 63 -41 107 -54 196 -109 284 -175 73 -55 90 -64 127 -64 48 0 66 15 85 69
22 67 9 246 -26 341 -41 116 -172 263 -324 365 -41 27 -78 53 -83 57 -11 8
117 202 207 314 67 83 149 162 198 191 34 20 39 61 11 86 -26 23 -142 74 -182
80 -29 5 -55 -5 -146 -52z"/>
</g>
</svg>
