<?xml version="1.0" standalone="no"?>
<!DOCTYPE svg PUBLIC "-//W3C//DTD SVG 20010904//EN"
 "http://www.w3.org/TR/2001/REC-SVG-20010904/DTD/svg10.dtd">
<svg version="1.0" xmlns="http://www.w3.org/2000/svg"
 width="340.000000pt" height="340.000000pt" viewBox="0 0 340.000000 340.000000"
 preserveAspectRatio="xMidYMid meet">
<metadata>
Created by potrace 1.15, written by Peter Selinger 2001-2017
</metadata>
<g transform="translate(0.000000,340.000000) scale(0.100000,-0.100000)"
fill="#000000" stroke="none">
<path d="M2248 2634 c-5 -4 -8 -15 -8 -24 0 -9 -13 -43 -30 -76 -28 -56 -36
-63 -157 -140 -70 -45 -173 -105 -228 -134 -115 -62 -167 -98 -159 -111 8 -13
60 -2 202 43 68 22 126 37 129 34 14 -14 24 -187 18 -313 l-7 -142 -27 -5
c-14 -3 -147 -26 -296 -51 -148 -25 -278 -48 -287 -51 -32 -9 -19 -33 32 -59
62 -31 91 -31 182 -1 73 25 290 72 358 78 33 3 35 2 33 -27 -4 -43 -43 -356
-48 -380 -3 -16 -19 -23 -78 -36 l-74 -15 -59 28 c-65 31 -112 36 -120 13 -3
-8 5 -36 19 -62 39 -75 70 -232 96 -495 8 -78 16 -111 43 -165 39 -79 59 -96
85 -70 13 13 19 38 21 93 3 44 9 77 16 80 6 2 160 19 342 37 181 19 336 37
342 41 20 12 14 27 -29 65 l-40 38 22 64 c31 92 95 211 140 263 21 24 39 51
39 59 0 39 -224 181 -269 170 -14 -3 -104 -30 -199 -60 -96 -30 -175 -53 -177
-51 -6 5 57 412 64 420 12 14 333 39 577 46 205 6 244 10 267 25 51 33 23 88
-65 128 -46 21 -68 24 -168 24 -102 0 -134 -5 -280 -42 -91 -23 -200 -49 -244
-57 l-78 -14 7 56 c4 31 18 95 32 142 50 165 47 177 -43 221 -36 17 -62 34
-58 38 5 4 43 23 84 41 41 19 101 49 132 67 31 18 93 47 137 64 45 17 83 35
86 40 9 14 -23 66 -58 93 -65 49 -198 92 -219 70z m156 -1436 c21 -30 20 -93
-3 -204 -23 -110 -52 -171 -89 -185 -52 -20 -420 -95 -427 -87 -5 7 -55 422
-50 426 6 6 460 69 512 71 33 1 45 -4 57 -21z"/>
<path d="M1255 2529 c-104 -27 -297 -72 -430 -100 -132 -28 -250 -55 -262 -60
-60 -22 13 -59 116 -59 44 0 73 -4 77 -12 29 -47 36 -156 41 -636 3 -272 2
-509 -1 -527 -6 -32 -8 -33 -119 -64 -61 -17 -145 -36 -184 -43 -83 -14 -99
-32 -66 -76 24 -33 149 -102 184 -102 14 0 68 27 125 63 154 99 452 257 482
257 9 0 -7 -203 -22 -281 -8 -41 -23 -99 -34 -130 -16 -46 -18 -66 -10 -120
22 -169 75 -254 112 -182 42 83 64 243 91 674 l7 95 79 44 c94 52 121 74 112
96 -8 22 -71 13 -153 -20 l-60 -25 0 97 c0 129 17 447 35 659 15 168 13 225
-8 251 -6 8 -29 23 -51 35 l-41 21 110 22 c137 28 245 64 259 86 15 25 -17 55
-77 73 -73 22 -101 18 -312 -36z m-41 -204 c6 -23 10 -248 10 -544 l1 -505
-159 -63 c-87 -35 -161 -62 -163 -59 -3 3 -2 83 2 179 l7 173 87 11 c135 17
191 49 164 92 -5 9 -22 22 -37 29 -23 12 -39 10 -116 -10 -49 -12 -92 -20 -95
-16 -3 3 -3 62 1 131 l7 125 62 6 c150 15 207 54 155 106 -25 25 -66 25 -132
0 -93 -35 -90 -38 -82 100 8 139 0 168 -55 206 -20 13 -32 24 -28 24 4 0 64
11 134 24 176 34 175 34 203 32 20 -1 26 -8 34 -41z"/>
</g>
</svg>
