<?xml version="1.0" standalone="no"?>
<!DOCTYPE svg PUBLIC "-//W3C//DTD SVG 20010904//EN"
 "http://www.w3.org/TR/2001/REC-SVG-20010904/DTD/svg10.dtd">
<svg version="1.0" xmlns="http://www.w3.org/2000/svg"
 width="340.000000pt" height="340.000000pt" viewBox="0 0 340.000000 340.000000"
 preserveAspectRatio="xMidYMid meet">
<metadata>
Created by potrace 1.15, written by Peter Selinger 2001-2017
</metadata>
<g transform="translate(0.000000,340.000000) scale(0.100000,-0.100000)"
fill="#000000" stroke="none">
<path d="M1870 2647 c-56 -19 -53 -49 13 -111 54 -51 232 -165 295 -188 38
-15 59 -6 82 35 20 35 1 127 -38 181 -44 64 -107 91 -222 93 -56 2 -109 -2
-130 -10z"/>
<path d="M1145 2454 c-31 -26 -122 -64 -189 -79 -53 -13 -69 -12 -116 0 -92
24 -164 29 -178 12 -10 -12 -6 -25 22 -71 19 -32 39 -83 46 -119 17 -88 25
-605 11 -752 -29 -320 -105 -570 -237 -782 -70 -112 -110 -213 -85 -213 12 0
126 101 180 158 137 148 229 363 265 621 8 57 16 104 18 105 2 2 46 10 99 18
166 26 200 60 106 103 l-54 25 -71 -18 -72 -18 0 65 c0 36 3 117 7 179 l6 112
66 1 c36 0 91 8 121 17 47 15 55 21 55 42 0 19 -9 30 -35 42 -37 19 -110 24
-138 9 -9 -4 -29 -11 -44 -15 l-28 -6 0 194 c0 146 3 195 13 199 6 2 53 12
104 23 67 13 100 15 120 8 55 -19 55 -23 50 -779 -3 -379 -9 -705 -12 -723
-12 -55 -46 -58 -157 -15 -26 9 -50 14 -54 11 -13 -14 7 -57 49 -107 24 -28
60 -82 81 -120 41 -74 87 -131 107 -131 22 0 77 70 97 123 11 29 26 91 33 137
12 88 12 142 -12 876 -16 493 -4 612 71 706 34 42 36 57 14 99 -21 41 -90 71
-174 76 -50 3 -70 0 -85 -13z"/>
<path d="M2472 2243 c-13 -3 -76 -22 -140 -43 -216 -70 -602 -161 -748 -176
-66 -7 -97 -24 -88 -48 15 -38 121 -53 270 -36 378 41 694 114 868 202 75 37
70 32 57 56 -21 40 -129 62 -219 45z"/>
<path d="M2150 1774 c-60 -43 -147 -84 -214 -99 -57 -13 -72 -13 -128 0 -79
18 -152 19 -166 2 -9 -10 -6 -22 12 -48 50 -74 61 -131 60 -304 -1 -130 -5
-175 -23 -239 -42 -158 -114 -299 -211 -413 -58 -69 -90 -113 -90 -125 0 -19
51 -5 110 30 91 52 197 161 242 247 80 154 125 359 135 611 l6 151 101 27
c158 42 154 42 162 12 3 -14 -3 -72 -14 -128 -36 -181 -45 -269 -45 -438 0
-120 4 -183 16 -233 35 -143 102 -238 201 -283 66 -30 221 -48 338 -40 184 14
388 90 388 146 0 9 -15 52 -34 96 -19 43 -40 106 -46 139 -6 33 -16 89 -23
124 -20 109 -44 87 -73 -69 -27 -144 -50 -182 -137 -222 -46 -20 -68 -23 -182
-23 -143 0 -180 11 -237 72 -54 56 -71 116 -76 255 -10 298 57 534 181 633
l32 26 -48 44 c-49 45 -122 76 -176 75 -14 -1 -42 -12 -61 -26z"/>
</g>
</svg>
