<?xml version="1.0" standalone="no"?>
<!DOCTYPE svg PUBLIC "-//W3C//DTD SVG 20010904//EN"
 "http://www.w3.org/TR/2001/REC-SVG-20010904/DTD/svg10.dtd">
<svg version="1.0" xmlns="http://www.w3.org/2000/svg"
 width="340.000000pt" height="340.000000pt" viewBox="0 0 340.000000 340.000000"
 preserveAspectRatio="xMidYMid meet">
<metadata>
Created by potrace 1.15, written by Peter Selinger 2001-2017
</metadata>
<g transform="translate(0.000000,340.000000) scale(0.100000,-0.100000)"
fill="#000000" stroke="none">
<path d="M1560 2690 c-5 -10 -10 -32 -10 -48 0 -124 -149 -341 -287 -419 -36
-19 -67 -42 -70 -50 -7 -17 23 -97 42 -113 10 -9 30 -6 81 10 68 21 227 50
274 50 21 0 10 -15 -80 -106 -113 -114 -220 -199 -300 -241 -46 -24 -50 -29
-50 -62 0 -39 34 -107 62 -124 12 -8 40 1 120 40 95 47 319 131 395 147 30 7
33 4 79 -61 26 -37 49 -69 50 -71 1 -1 13 3 28 9 32 15 41 44 32 103 -9 57
-35 89 -109 137 -93 60 -126 50 -86 -26 13 -24 21 -46 19 -49 -5 -4 -380 -56
-408 -56 -26 0 331 296 454 376 96 63 108 76 100 107 -14 57 -108 149 -135
133 -5 -3 -14 -25 -20 -48 -6 -24 -24 -66 -41 -95 l-29 -51 -73 -7 c-40 -3
-118 -5 -172 -3 l-99 3 69 59 c38 32 131 119 208 194 l139 135 -18 33 c-17 32
-77 80 -127 102 -24 10 -29 9 -38 -8z"/>
<path d="M2090 2493 c0 -11 11 -45 24 -75 47 -105 48 -138 37 -626 -15 -618
-14 -831 4 -915 38 -180 139 -293 292 -328 131 -29 413 0 521 55 77 39 86 58
68 142 -15 67 -47 258 -63 379 l-9 60 -18 -80 c-48 -208 -58 -243 -84 -285
-51 -82 -217 -141 -352 -125 -152 19 -239 109 -259 270 -4 35 -4 264 0 507 9
493 15 557 75 749 42 133 41 151 -13 205 -44 44 -100 70 -170 80 -49 6 -53 5
-53 -13z"/>
<path d="M827 2379 c-31 -12 -30 -31 3 -79 25 -38 56 -118 71 -185 21 -92 18
-517 -4 -665 -59 -382 -172 -627 -400 -868 -74 -77 -97 -108 -85 -110 26 -5
70 22 166 102 146 121 269 281 330 429 91 218 127 441 142 882 6 185 13 274
23 309 l16 49 -53 52 c-78 79 -148 107 -209 84z"/>
<path d="M1640 1569 c-71 -33 -188 -60 -272 -63 -43 -1 -81 -5 -84 -9 -3 -3
-1 -34 5 -69 20 -116 -33 -459 -93 -607 -38 -93 -32 -196 13 -253 19 -22 19
-22 40 -4 33 30 64 124 101 307 l11 56 99 6 c55 3 118 12 140 18 43 13 86 51
76 68 -11 18 -70 23 -127 12 -30 -6 -85 -17 -122 -25 l-69 -13 6 56 c4 31 9
77 12 102 l5 46 107 5 c142 7 216 38 180 75 -24 23 -87 26 -158 8 -36 -9 -80
-19 -98 -22 l-33 -5 3 93 3 94 90 17 c50 9 124 20 166 24 70 6 78 5 88 -13 27
-52 49 -759 24 -784 -10 -10 -29 -7 -94 15 -44 15 -83 25 -86 22 -3 -3 17 -38
44 -78 27 -40 68 -107 91 -149 23 -42 49 -82 57 -89 40 -33 101 47 125 165 16
77 15 188 -5 472 -17 251 -14 308 27 400 l21 47 -33 28 c-38 31 -138 68 -184
68 -17 0 -51 -10 -76 -21z"/>
</g>
</svg>
