<?xml version="1.0" standalone="no"?>
<!DOCTYPE svg PUBLIC "-//W3C//DTD SVG 20010904//EN"
 "http://www.w3.org/TR/2001/REC-SVG-20010904/DTD/svg10.dtd">
<svg version="1.0" xmlns="http://www.w3.org/2000/svg"
 width="340.000000pt" height="340.000000pt" viewBox="0 0 340.000000 340.000000"
 preserveAspectRatio="xMidYMid meet">
<metadata>
Created by potrace 1.15, written by Peter Selinger 2001-2017
</metadata>
<g transform="translate(0.000000,340.000000) scale(0.100000,-0.100000)"
fill="#000000" stroke="none">
<path d="M1802 2909 c-19 -7 -20 -12 -12 -34 18 -48 11 -201 -15 -330 -36
-177 -32 -170 -112 -188 -37 -8 -101 -21 -141 -27 -79 -13 -129 -42 -102 -60
19 -12 62 -12 174 0 49 6 90 9 92 7 6 -5 -42 -120 -87 -209 -85 -169 -185
-311 -314 -444 l-76 -79 5 340 c5 363 12 432 61 575 14 41 25 83 25 96 0 30
-57 78 -125 103 -66 25 -84 26 -112 6 -46 -32 -123 -65 -186 -80 -65 -15 -68
-15 -124 9 -69 29 -129 41 -136 29 -3 -5 3 -38 14 -73 50 -161 71 -410 58
-678 -23 -475 -120 -834 -308 -1141 -28 -46 -49 -86 -46 -89 2 -2 27 12 55 33
162 119 307 416 360 735 5 36 13 79 15 96 l5 32 88 4 c89 5 156 27 167 56 3 8
-2 25 -10 38 -21 32 -74 32 -161 -1 -37 -14 -69 -24 -71 -21 -2 2 1 52 7 112
5 60 10 146 10 190 l0 81 88 5 c48 3 104 13 125 21 35 15 38 20 35 49 -4 48
-38 57 -136 36 -42 -9 -84 -19 -92 -22 -13 -5 -15 21 -15 203 l0 210 60 11
c33 6 94 14 135 17 65 5 78 3 90 -12 21 -25 25 -423 11 -925 -12 -393 -23
-559 -43 -619 -10 -31 -13 -33 -47 -28 -21 2 -62 16 -93 31 -86 41 -102 31
-49 -30 43 -48 80 -115 121 -218 23 -57 43 -92 53 -94 9 -2 36 17 61 41 34 35
50 61 66 114 19 61 22 102 30 388 l8 319 23 16 c148 97 297 235 399 372 77
103 130 198 185 333 l41 100 76 16 76 16 179 -225 c216 -274 342 -423 380
-450 62 -44 221 -52 411 -21 128 21 115 42 -59 99 -255 84 -501 251 -711 484
-54 60 -98 113 -98 117 0 4 35 10 78 14 115 10 282 40 325 58 43 18 46 35 14
65 -56 52 -140 54 -308 7 -112 -32 -226 -62 -301 -79 -23 -5 -28 -3 -28 11 0
17 75 240 116 345 18 45 18 47 -1 68 -46 51 -153 87 -203 69z"/>
<path d="M1959 1925 c-138 -36 -263 -84 -261 -100 4 -30 181 -30 327 0 138 29
194 74 149 119 -23 23 -73 19 -215 -19z"/>
<path d="M2175 1645 c-220 -50 -355 -74 -594 -104 -128 -16 -216 -32 -219 -39
-4 -12 77 -39 143 -48 23 -3 81 3 139 15 55 12 102 21 107 21 13 0 -12 -84
-43 -141 -17 -32 -61 -87 -99 -124 -64 -62 -69 -70 -69 -108 0 -55 20 -93 45
-89 11 2 60 30 110 63 134 87 216 109 351 94 65 -7 66 -7 85 -48 48 -107 -7
-384 -95 -481 -48 -52 -93 -50 -215 9 -122 60 -148 59 -97 -2 32 -39 147 -208
180 -265 23 -41 32 -48 57 -48 79 0 199 112 243 227 32 86 59 190 81 318 19
115 34 155 75 207 17 20 30 41 30 46 0 19 -111 111 -164 136 -71 34 -94 33
-218 -8 -103 -34 -253 -64 -265 -53 -3 4 17 35 46 69 62 75 101 150 101 193
l0 32 148 11 c81 7 212 15 292 18 172 8 190 13 190 52 0 23 -8 33 -39 50 -65
37 -136 36 -306 -3z"/>
</g>
</svg>
