<?xml version="1.0" standalone="no"?>
<!DOCTYPE svg PUBLIC "-//W3C//DTD SVG 20010904//EN"
 "http://www.w3.org/TR/2001/REC-SVG-20010904/DTD/svg10.dtd">
<svg version="1.0" xmlns="http://www.w3.org/2000/svg"
 width="340.000000pt" height="340.000000pt" viewBox="0 0 340.000000 340.000000"
 preserveAspectRatio="xMidYMid meet">
<metadata>
Created by potrace 1.15, written by Peter Selinger 2001-2017
</metadata>
<g transform="translate(0.000000,340.000000) scale(0.100000,-0.100000)"
fill="#000000" stroke="none">
<path d="M1893 2630 c-29 -12 -29 -33 -1 -78 40 -65 49 -133 54 -402 3 -140 1
-313 -3 -385 l-8 -129 -125 -33 c-69 -19 -199 -49 -290 -67 -90 -18 -166 -38
-167 -43 -5 -15 90 -53 134 -53 20 0 93 14 161 31 68 17 126 29 128 26 11 -10
-21 -159 -52 -246 -54 -151 -140 -281 -312 -471 -113 -124 -102 -147 33 -68
148 87 298 275 412 515 31 65 64 130 74 145 28 39 24 52 -32 102 -29 26 -50
48 -48 50 2 1 50 12 106 23 91 18 104 18 115 5 13 -15 16 -209 9 -552 -3 -136
-1 -163 18 -222 59 -183 180 -255 446 -265 89 -4 138 -1 190 11 137 32 285
125 285 178 0 14 -11 58 -25 99 -14 41 -34 125 -45 188 -11 62 -22 116 -26
120 -12 13 -32 -32 -49 -111 -50 -237 -148 -307 -414 -296 -168 7 -240 45
-276 147 -29 84 -17 316 26 492 12 48 19 98 16 111 -6 24 -44 65 -96 106 l-25
19 65 12 c35 6 150 22 254 36 105 13 198 27 208 30 41 16 0 88 -61 105 -85 23
-161 9 -464 -84 -58 -18 -54 -57 -28 304 23 315 35 435 52 504 l12 49 -36 31
c-34 30 -146 77 -178 75 -8 0 -25 -4 -37 -9z"/>
<path d="M1071 2390 c-60 -42 -139 -70 -194 -70 -20 0 -59 9 -87 20 -61 24
-98 26 -107 5 -3 -9 6 -41 20 -73 43 -97 52 -194 52 -572 0 -318 -2 -354 -23
-465 -40 -208 -126 -433 -228 -592 -69 -108 -102 -193 -75 -193 15 0 145 133
200 205 104 137 195 359 224 550 l13 80 74 0 c125 0 182 42 133 97 -26 29 -73
32 -138 9 -33 -12 -61 -21 -63 -21 -5 0 6 219 14 296 l6 50 69 12 c129 22 177
64 129 112 -25 25 -55 25 -131 0 -34 -12 -63 -19 -66 -17 -2 3 -7 99 -10 214
l-6 209 118 19 118 19 23 -27 c12 -15 26 -47 29 -72 12 -74 -1 -1159 -15
-1264 -21 -171 -38 -193 -119 -152 -48 25 -91 28 -91 6 0 -9 22 -53 49 -98 27
-45 63 -119 81 -164 36 -92 52 -102 96 -58 50 50 85 174 104 364 5 57 10 311
10 565 0 602 13 764 67 842 23 34 24 42 14 76 -18 58 -85 100 -187 116 -47 8
-53 6 -103 -28z"/>
<path d="M2424 2319 c-3 -6 -7 -37 -9 -69 -2 -73 -40 -153 -125 -267 -87 -118
-81 -131 25 -57 102 69 329 254 339 275 13 28 -16 55 -99 95 -71 35 -118 43
-131 23z"/>
<path d="M1520 2028 c0 -41 124 -209 174 -235 44 -23 73 -10 86 38 14 52 1 95
-43 137 -42 40 -132 82 -179 82 -33 0 -38 -3 -38 -22z"/>
</g>
</svg>
