<?xml version="1.0" standalone="no"?>
<!DOCTYPE svg PUBLIC "-//W3C//DTD SVG 20010904//EN"
 "http://www.w3.org/TR/2001/REC-SVG-20010904/DTD/svg10.dtd">
<svg version="1.0" xmlns="http://www.w3.org/2000/svg"
 width="340.000000pt" height="340.000000pt" viewBox="0 0 340.000000 340.000000"
 preserveAspectRatio="xMidYMid meet">
<metadata>
Created by potrace 1.15, written by Peter Selinger 2001-2017
</metadata>
<g transform="translate(0.000000,340.000000) scale(0.100000,-0.100000)"
fill="#000000" stroke="none">
<path d="M1973 2759 c-9 -9 -9 -19 2 -38 32 -62 78 -344 62 -384 -3 -9 -33
-19 -89 -27 -116 -18 -203 -44 -203 -60 0 -8 17 -21 38 -29 34 -13 48 -12 125
2 131 25 128 26 136 -35 3 -29 6 -72 6 -95 l0 -41 -72 -12 c-40 -7 -134 -22
-208 -34 l-135 -22 40 -27 c51 -35 83 -34 237 3 67 16 128 30 135 30 10 0 13
-24 13 -90 0 -49 -3 -90 -7 -90 -4 0 -75 -12 -158 -26 -161 -28 -198 -44 -151
-65 22 -10 52 -10 149 -1 67 7 132 15 145 18 22 6 22 5 22 -90 0 -91 -1 -96
-22 -101 -172 -37 -217 -49 -237 -63 -25 -15 -25 -15 -4 -23 19 -7 221 6 251
16 10 4 12 -17 10 -92 l-3 -98 -115 -18 c-63 -9 -130 -20 -147 -23 -38 -6 -44
-29 -10 -38 12 -3 79 -6 148 -6 l126 0 6 -177 c3 -98 5 -179 3 -181 -6 -5
-169 83 -267 145 -52 33 -118 73 -147 88 -38 20 -51 32 -48 44 3 9 21 81 40
161 20 79 48 169 62 199 l27 54 -29 24 c-16 13 -51 34 -78 48 l-48 24 -54 -30
c-30 -17 -54 -28 -54 -25 0 23 178 448 199 476 45 58 45 59 15 92 -33 34 -85
62 -132 71 -29 6 -37 1 -83 -44 -46 -46 -76 -63 -184 -108 -23 -10 -26 -14
-15 -21 32 -16 91 -20 160 -9 39 6 73 9 75 7 6 -6 -42 -214 -67 -288 -27 -83
-60 -150 -87 -174 -34 -30 -23 -116 15 -116 8 0 40 14 71 30 69 37 97 38 119
5 13 -21 16 -41 11 -98 -6 -78 -44 -257 -55 -257 -4 0 -45 16 -92 35 -82 33
-130 42 -165 29 -14 -6 -14 -8 1 -25 9 -11 21 -19 26 -19 25 0 208 -84 208
-96 0 -40 -113 -226 -228 -373 l-74 -94 38 6 c84 14 189 123 289 300 33 59 64
107 69 107 15 0 603 -409 716 -500 59 -47 202 -48 430 -4 240 46 377 91 352
116 -5 5 -90 16 -188 23 -315 25 -516 65 -697 137 -78 31 -79 31 -72 62 16 78
23 140 30 256 l7 126 229 22 c239 24 279 32 279 56 0 46 -128 87 -213 68 -73
-16 -289 -62 -293 -62 -2 0 -4 43 -4 95 0 52 4 95 9 95 5 0 64 9 132 20 68 11
139 23 157 26 44 7 42 38 -5 63 -25 13 -130 3 -235 -23 l-58 -13 0 88 c0 49 2
89 4 89 2 0 46 9 97 19 52 10 122 22 157 26 36 4 72 15 84 25 23 18 20 34 -14
81 -9 13 -8 30 1 76 7 33 17 66 21 72 5 9 61 14 179 18 141 5 176 9 193 23 29
23 18 44 -34 71 -36 18 -52 21 -113 15 -38 -3 -99 -12 -135 -20 -36 -8 -67
-12 -69 -10 -5 5 55 130 78 163 l20 28 -27 25 c-39 37 -84 57 -160 73 l-67 14
-80 -39 c-44 -21 -92 -41 -107 -44 -26 -6 -28 -4 -28 26 0 46 27 206 41 247
12 33 11 36 -22 64 -67 58 -175 87 -206 56z m415 -461 c14 -14 16 -156 3 -177
-5 -8 -45 -19 -98 -27 -145 -22 -133 -30 -133 85 l0 99 73 15 c91 19 140 20
155 5z m-12 -324 c-10 -82 -16 -89 -104 -113 -118 -32 -112 -35 -112 64 0 80
1 85 23 90 27 6 86 11 151 13 l49 2 -7 -56z"/>
<path d="M1018 2495 c-77 -54 -178 -67 -333 -44 -101 15 -109 7 -62 -63 61
-91 62 -100 61 -458 0 -284 -3 -343 -22 -467 -42 -271 -113 -494 -208 -658
-86 -147 -106 -186 -100 -192 3 -3 39 27 79 68 154 154 249 350 307 629 11 58
23 115 25 126 4 20 11 22 77 21 82 -1 183 25 192 49 27 70 -35 92 -170 58 -36
-9 -66 -15 -68 -13 -2 2 -1 77 2 165 l5 162 71 -1 c106 0 196 45 182 91 -7 22
-46 42 -81 42 -13 0 -56 -12 -95 -26 -39 -15 -72 -25 -73 -23 -1 2 -1 88 1
191 l4 188 51 15 c29 9 84 18 124 22 l72 6 13 -29 c10 -22 13 -144 12 -534 -1
-481 -11 -739 -35 -913 -13 -90 -17 -92 -114 -52 -89 37 -104 31 -67 -23 10
-15 46 -84 80 -153 34 -69 71 -134 82 -144 20 -18 21 -18 49 9 39 38 86 144
106 241 14 65 17 134 16 369 -1 159 -3 292 -6 295 -2 4 0 180 5 392 9 404 14
448 61 540 l20 41 -23 25 c-29 32 -135 83 -168 82 -14 -1 -46 -16 -72 -34z"/>
</g>
</svg>
