<?xml version="1.0" standalone="no"?>
<!DOCTYPE svg PUBLIC "-//W3C//DTD SVG 20010904//EN"
 "http://www.w3.org/TR/2001/REC-SVG-20010904/DTD/svg10.dtd">
<svg version="1.0" xmlns="http://www.w3.org/2000/svg"
 width="340.000000pt" height="340.000000pt" viewBox="0 0 340.000000 340.000000"
 preserveAspectRatio="xMidYMid meet">
<metadata>
Created by potrace 1.15, written by Peter Selinger 2001-2017
</metadata>
<g transform="translate(0.000000,340.000000) scale(0.100000,-0.100000)"
fill="#000000" stroke="none">
<path d="M1454 2871 c-18 -8 -22 -21 -27 -86 -7 -92 -46 -182 -140 -323 l-62
-93 -40 8 c-22 4 -69 8 -105 8 -65 0 -65 0 -63 -27 1 -16 18 -54 37 -85 63
-104 90 -242 110 -580 10 -172 15 -205 31 -223 17 -18 20 -19 36 -4 9 8 20 30
23 49 8 40 -28 30 351 95 160 27 291 46 293 41 11 -33 50 -97 65 -105 57 -35
117 114 153 384 34 258 71 387 134 467 37 47 28 58 -83 113 -138 69 -192 74
-297 30 -125 -52 -314 -101 -515 -135 l-40 -6 85 86 c47 47 121 114 165 148
96 75 125 102 125 118 0 17 -66 77 -109 99 -46 23 -100 32 -127 21z m517 -438
c11 -13 14 -65 13 -247 -1 -241 -13 -340 -51 -426 l-18 -40 -100 -4 c-55 -3
-140 -14 -190 -25 -88 -20 -299 -67 -341 -76 -21 -5 -22 0 -29 101 -4 58 -3
109 1 114 5 4 72 15 149 25 245 29 405 67 405 94 0 6 -10 16 -22 22 -33 18
-143 5 -308 -35 -80 -19 -163 -38 -186 -42 l-41 -6 -6 53 c-4 30 -7 70 -7 89
l0 35 164 23 c91 13 210 34 266 48 147 35 167 50 110 79 -46 24 -110 18 -242
-24 -132 -42 -294 -78 -305 -68 -3 4 -8 51 -11 106 l-5 98 84 12 c68 10 321
59 519 101 67 14 137 11 151 -7z"/>
<path d="M2363 1713 c-12 -2 -27 -10 -33 -18 -13 -15 14 -46 63 -71 15 -8 64
-39 110 -68 45 -30 106 -66 136 -81 62 -31 64 -30 82 52 20 88 -21 148 -123
178 -48 14 -181 19 -235 8z"/>
<path d="M1396 1524 c-3 -8 -1 -25 6 -37 6 -12 14 -68 16 -124 4 -85 2 -103
-10 -103 -8 0 -115 -11 -239 -25 -123 -13 -275 -29 -337 -34 -62 -6 -117 -13
-123 -17 -17 -10 19 -42 69 -59 88 -29 167 -30 279 -1 121 31 334 69 342 61 8
-8 -25 -98 -65 -178 -55 -110 -111 -186 -208 -282 -106 -105 -212 -178 -383
-263 -134 -68 -160 -89 -96 -79 71 12 196 57 309 112 267 130 443 319 560 604
9 22 18 14 154 -140 79 -90 227 -248 329 -350 l186 -187 66 -11 c116 -20 434
-7 506 20 24 9 25 11 11 25 -9 9 -83 38 -164 66 -239 79 -430 181 -643 340
-98 73 -298 247 -365 316 -39 40 -39 41 -15 46 13 3 177 22 364 41 398 42 465
51 478 64 19 19 -2 57 -45 81 -38 22 -54 25 -138 23 -81 -1 -133 -11 -353 -67
-142 -36 -269 -66 -282 -66 -31 0 -32 21 -5 86 11 26 18 54 15 63 -6 21 -50
47 -121 72 -69 23 -90 24 -98 3z"/>
</g>
</svg>
