<?xml version="1.0" standalone="no"?>
<!DOCTYPE svg PUBLIC "-//W3C//DTD SVG 20010904//EN"
 "http://www.w3.org/TR/2001/REC-SVG-20010904/DTD/svg10.dtd">
<svg version="1.0" xmlns="http://www.w3.org/2000/svg"
 width="340.000000pt" height="340.000000pt" viewBox="0 0 340.000000 340.000000"
 preserveAspectRatio="xMidYMid meet">
<metadata>
Created by potrace 1.15, written by Peter Selinger 2001-2017
</metadata>
<g transform="translate(0.000000,340.000000) scale(0.100000,-0.100000)"
fill="#000000" stroke="none">
<path d="M1368 2894 c-5 -4 -8 -18 -8 -31 0 -54 -60 -121 -179 -200 -47 -32
-68 -39 -130 -45 -83 -8 -131 -24 -131 -44 0 -8 22 -38 49 -68 59 -65 130
-169 197 -290 62 -112 98 -153 119 -136 8 7 15 21 15 31 0 11 4 19 9 19 5 0
181 27 392 60 226 35 385 56 387 50 7 -20 38 -48 58 -54 31 -9 75 32 118 108
56 100 122 185 222 283 52 51 94 99 94 107 0 24 -81 83 -172 126 l-86 40 -128
-24 c-71 -14 -191 -32 -266 -42 -185 -24 -196 -33 -84 -70 47 -16 58 -16 185
1 75 10 165 19 201 19 l65 1 -2 -34 c0 -18 -8 -53 -17 -76 l-17 -42 -72 -6
c-134 -12 -399 -45 -405 -51 -11 -12 23 -35 70 -47 39 -11 64 -10 155 4 179
28 213 31 213 18 0 -6 -21 -53 -47 -105 l-46 -93 -35 20 c-46 28 -135 27 -227
-1 -90 -27 -258 -65 -410 -91 -66 -12 -132 -24 -146 -27 -24 -5 -28 0 -58 72
-18 42 -31 77 -29 79 2 1 41 8 88 14 97 14 218 44 261 66 54 28 28 75 -40 75
-17 0 -101 -23 -187 -51 -85 -28 -157 -49 -159 -47 -10 12 -67 120 -64 122 9
8 284 158 374 205 129 66 143 77 129 98 -28 44 -63 58 -157 61 -51 2 -95 0
-99 -4z"/>
<path d="M2044 2090 c-77 -16 -298 -56 -490 -89 -327 -55 -356 -59 -465 -54
-86 4 -118 2 -124 -7 -5 -7 15 -45 52 -99 82 -118 132 -214 187 -357 49 -128
75 -166 100 -145 8 6 17 27 20 45 l6 34 108 16 c101 16 107 16 119 0 18 -25
15 -120 -5 -179 l-17 -50 -57 -7 c-163 -20 -359 -38 -490 -44 -82 -4 -148 -10
-148 -14 0 -25 76 -62 175 -85 58 -14 72 -14 123 -1 86 22 343 68 349 62 8 -7
-78 -134 -141 -209 -129 -151 -354 -319 -586 -436 -170 -86 -202 -116 -112
-104 69 9 232 67 357 128 286 139 487 325 616 569 l49 93 152 21 c84 12 190
25 234 28 78 6 82 6 94 -16 19 -35 7 -187 -24 -305 -30 -116 -76 -216 -112
-244 -31 -24 -53 -22 -181 22 -51 17 -95 28 -99 25 -3 -4 19 -44 49 -90 31
-46 71 -120 90 -163 40 -93 51 -99 130 -62 57 27 129 86 177 147 34 43 82 197
120 384 21 104 37 137 108 224 23 29 40 57 36 63 -12 20 -139 97 -200 122
l-61 25 -89 -25 c-87 -23 -354 -83 -374 -83 -5 0 -3 18 5 41 21 58 1 98 -72
142 l-56 34 34 6 c19 3 116 14 215 23 l182 17 27 -21 c18 -14 42 -22 66 -22
55 0 95 41 170 175 75 135 150 236 201 271 21 15 38 30 38 34 0 23 -116 122
-175 150 -91 43 -141 45 -311 10z m187 -77 c9 -10 14 -38 13 -77 -2 -64 -27
-144 -89 -280 l-34 -76 -58 6 c-40 4 -92 -1 -166 -15 -166 -32 -157 -36 -157
59 0 75 1 80 23 84 94 18 243 58 263 71 28 18 30 28 8 49 -19 20 -72 20 -189
1 -49 -8 -94 -15 -98 -15 -4 0 -7 35 -5 78 l3 77 180 27 c219 32 287 35 306
11z m-603 -145 l-3 -83 -124 -27 c-112 -24 -140 -36 -141 -61 0 -26 131 -32
240 -10 l31 6 -3 -79 -3 -79 -115 -21 c-63 -12 -133 -25 -155 -28 l-40 -6 -73
187 c-39 104 -72 193 -72 200 0 6 29 16 68 23 37 6 128 21 202 34 74 13 148
24 163 25 l28 1 -3 -82z"/>
</g>
</svg>
