<?xml version="1.0" standalone="no"?>
<!DOCTYPE svg PUBLIC "-//W3C//DTD SVG 20010904//EN"
 "http://www.w3.org/TR/2001/REC-SVG-20010904/DTD/svg10.dtd">
<svg version="1.0" xmlns="http://www.w3.org/2000/svg"
 width="340.000000pt" height="340.000000pt" viewBox="0 0 340.000000 340.000000"
 preserveAspectRatio="xMidYMid meet">
<metadata>
Created by potrace 1.15, written by Peter Selinger 2001-2017
</metadata>
<g transform="translate(0.000000,340.000000) scale(0.100000,-0.100000)"
fill="#000000" stroke="none">
<path d="M1102 2848 c-7 -7 -12 -40 -12 -85 0 -201 -98 -452 -302 -774 -83
-131 -344 -487 -399 -544 -33 -35 -40 -68 -11 -58 33 12 150 114 249 216 83
87 158 176 287 342 21 27 25 29 41 15 13 -11 42 -15 99 -15 45 0 87 -4 93 -8
21 -14 34 -84 27 -147 l-6 -59 -212 -51 c-240 -59 -253 -64 -214 -79 72 -27
169 -24 389 15 l36 6 -9 -73 c-5 -41 -12 -96 -16 -124 l-7 -50 -65 -21 c-62
-21 -68 -21 -125 -6 -36 9 -72 12 -89 8 -25 -6 -28 -10 -23 -39 3 -18 16 -62
30 -98 14 -36 37 -126 52 -200 36 -186 42 -205 75 -242 27 -30 30 -31 46 -15
11 10 19 40 23 79 l6 63 240 41 c267 46 295 52 295 63 0 4 -20 28 -45 52 l-44
43 36 69 c19 37 53 88 75 113 44 50 44 66 0 110 -34 35 -68 52 -137 70 l-57
14 -101 -49 c-56 -26 -104 -47 -108 -45 -7 5 6 103 26 192 l16 68 67 19 c139
38 238 69 264 82 26 13 30 12 74 -21 25 -19 56 -38 69 -41 15 -4 63 10 136 40
154 61 167 61 196 11 74 -128 126 -508 104 -761 -12 -127 -22 -175 -53 -241
-31 -67 -72 -75 -226 -42 -92 19 -96 6 -22 -77 34 -38 86 -106 117 -151 31
-45 62 -84 68 -87 41 -15 181 98 219 177 51 106 58 351 20 707 -18 170 -22
296 -11 362 7 43 6 49 -23 82 -17 19 -54 48 -82 64 -59 34 -64 31 92 61 143
28 296 51 346 51 85 0 99 -67 31 -152 -51 -62 -70 -95 -59 -102 4 -2 42 10 83
28 79 34 138 50 224 61 28 3 65 11 83 16 l32 11 -27 51 c-59 107 -171 192
-272 204 -38 4 -68 -1 -142 -26 -209 -71 -517 -132 -817 -162 -111 -12 -126
-11 -152 4 -41 25 -108 21 -213 -13 -52 -16 -97 -30 -101 -30 -10 0 5 51 27
92 19 35 19 38 3 62 -9 14 -28 33 -42 43 l-26 17 76 18 c117 27 176 62 176
104 0 63 -98 55 -334 -27 -94 -33 -179 -63 -190 -66 -15 -5 -10 9 23 68 23 41
80 152 128 247 47 94 89 172 94 172 4 0 79 -48 166 -106 87 -58 175 -114 195
-125 42 -22 87 -25 89 -6 7 76 -67 173 -158 207 -40 15 -251 60 -281 60 -5 0
68 132 84 151 38 43 0 99 -96 143 -74 34 -103 39 -118 24z m307 -1519 c24 -70
-3 -238 -42 -264 -32 -20 -302 -83 -313 -72 -6 6 -44 222 -44 251 l0 32 168
41 c211 52 217 52 231 12z"/>
<path d="M2332 2656 c-72 -51 -312 -108 -515 -123 -48 -3 -90 -10 -93 -15 -15
-23 108 -108 157 -108 14 0 115 36 225 80 197 78 284 103 284 82 0 -20 -52
-156 -83 -217 -24 -49 -58 -103 -118 -188 -3 -4 -19 -3 -35 4 -44 17 -166 49
-191 49 -13 0 -23 -4 -23 -8 0 -20 66 -103 153 -194 72 -77 98 -98 119 -98 17
0 31 8 38 19 13 26 13 94 -1 142 -11 37 -10 40 26 86 81 101 259 267 323 301
34 18 62 34 62 36 0 13 -59 76 -97 103 -42 30 -155 74 -187 73 -6 -1 -26 -11
-44 -24z"/>
</g>
</svg>
