<?xml version="1.0" standalone="no"?>
<!DOCTYPE svg PUBLIC "-//W3C//DTD SVG 20010904//EN"
 "http://www.w3.org/TR/2001/REC-SVG-20010904/DTD/svg10.dtd">
<svg version="1.0" xmlns="http://www.w3.org/2000/svg"
 width="340.000000pt" height="340.000000pt" viewBox="0 0 340.000000 340.000000"
 preserveAspectRatio="xMidYMid meet">
<metadata>
Created by potrace 1.15, written by Peter Selinger 2001-2017
</metadata>
<g transform="translate(0.000000,340.000000) scale(0.100000,-0.100000)"
fill="#000000" stroke="none">
<path d="M1160 2755 c-7 -9 -10 -25 -5 -42 20 -83 -5 -215 -65 -333 -44 -87
-120 -208 -135 -214 -9 -3 -44 1 -78 9 -68 16 -117 19 -117 8 0 -5 13 -27 29
-50 18 -26 33 -67 40 -105 15 -88 31 -321 31 -459 l0 -117 -32 -6 c-44 -8
-358 -52 -430 -61 -71 -8 -74 -22 -16 -75 72 -67 76 -67 180 -32 98 33 245 72
272 72 19 0 17 -18 -20 -208 -46 -234 -129 -447 -243 -627 -71 -110 -67 -122
16 -56 178 141 289 375 352 750 12 68 21 137 21 152 0 38 6 40 210 84 91 19
172 37 181 39 25 5 29 -31 29 -263 0 -311 -19 -489 -57 -526 -18 -19 -32 -17
-135 11 -37 10 -70 15 -74 12 -4 -4 7 -29 24 -55 17 -26 47 -83 67 -125 38
-82 83 -138 109 -138 25 0 93 67 116 116 53 109 53 102 60 809 7 719 7 724 65
793 14 17 25 35 25 40 0 24 -87 83 -149 103 l-65 20 -46 -25 c-47 -25 -270
-90 -270 -78 0 27 304 386 370 437 22 17 39 33 40 37 0 4 -14 23 -31 43 -52
59 -236 100 -269 60z m177 -619 l28 -24 3 -281 3 -280 -38 -7 c-21 -3 -104
-19 -185 -35 -81 -16 -151 -29 -157 -29 -14 0 -20 74 -26 362 -6 244 -5 257
12 262 23 7 291 54 315 55 9 1 30 -10 45 -23z"/>
<path d="M1083 1895 c-21 -56 59 -255 102 -255 24 0 45 55 45 115 0 65 -20
101 -74 134 -40 25 -64 27 -73 6z"/>
<path d="M2190 2509 c-38 -32 -126 -77 -201 -102 -41 -14 -53 -14 -100 -2 -30
8 -76 15 -103 15 -42 0 -48 -2 -43 -17 4 -10 18 -51 31 -91 73 -212 44 -434
-76 -592 -89 -117 -101 -140 -73 -140 61 0 194 130 250 244 55 111 76 210 76
357 l0 127 57 25 c70 31 140 50 158 43 11 -4 14 -35 14 -143 1 -270 55 -391
191 -423 64 -16 235 -8 356 16 80 16 83 18 83 44 0 29 -30 74 -61 90 -10 6
-40 15 -66 20 -41 8 -57 5 -113 -17 -116 -46 -222 -30 -251 39 -8 20 -10 62
-5 135 8 123 23 160 98 239 56 59 57 76 7 118 -35 30 -88 46 -149 46 -35 -1
-53 -7 -80 -31z"/>
<path d="M2185 1586 c-55 -26 -192 -65 -320 -91 -139 -28 -160 -50 -81 -80 54
-21 98 -17 229 19 64 18 115 26 149 24 l53 -3 9 -42 c6 -30 4 -62 -8 -114 -17
-76 -98 -259 -115 -259 -5 0 -19 12 -31 28 -31 40 -229 221 -272 248 -30 19
-52 24 -102 24 -36 0 -67 -4 -70 -9 -8 -13 25 -38 67 -49 20 -6 60 -29 87 -52
43 -36 250 -269 258 -291 6 -15 -163 -181 -258 -253 -52 -39 -139 -98 -192
-131 -111 -67 -126 -85 -70 -85 120 0 363 127 549 289 l82 70 137 -150 c187
-204 199 -213 294 -217 75 -4 381 30 452 49 20 5 40 14 43 19 11 18 -54 47
-178 80 -156 42 -273 87 -399 152 -102 52 -255 157 -264 182 -3 8 8 36 25 62
16 27 48 88 70 137 23 48 59 126 82 175 22 48 51 101 65 119 13 17 24 38 24
47 0 22 -69 74 -129 97 -83 31 -128 32 -186 5z"/>
<path d="M1080 1263 c0 -39 45 -210 60 -228 16 -20 55 -19 74 1 22 21 29 57
23 111 -8 69 -57 124 -124 138 -31 6 -33 5 -33 -22z"/>
</g>
</svg>
