<?xml version="1.0" standalone="no"?>
<!DOCTYPE svg PUBLIC "-//W3C//DTD SVG 20010904//EN"
 "http://www.w3.org/TR/2001/REC-SVG-20010904/DTD/svg10.dtd">
<svg version="1.0" xmlns="http://www.w3.org/2000/svg"
 width="340.000000pt" height="340.000000pt" viewBox="0 0 340.000000 340.000000"
 preserveAspectRatio="xMidYMid meet">
<metadata>
Created by potrace 1.15, written by Peter Selinger 2001-2017
</metadata>
<g transform="translate(0.000000,340.000000) scale(0.100000,-0.100000)"
fill="#000000" stroke="none">
<path d="M1128 2764 c-5 -4 -8 -38 -8 -75 0 -122 -58 -252 -183 -414 -59 -76
-49 -73 -163 -60 -40 5 -64 4 -68 -3 -3 -6 5 -44 18 -84 33 -97 48 -255 44
-463 l-3 -170 -55 -12 c-30 -7 -127 -22 -215 -34 -228 -30 -208 -24 -189 -60
9 -17 32 -54 51 -81 43 -60 48 -59 187 3 50 23 119 52 154 65 l62 24 0 -29 c0
-36 -33 -195 -58 -281 -49 -163 -129 -331 -215 -451 -96 -132 -104 -149 -64
-128 49 26 153 117 203 178 107 129 197 367 233 620 l17 115 178 59 c97 32
180 57 183 54 9 -9 -16 -645 -27 -716 -18 -104 -18 -105 -112 -96 -44 3 -86 8
-92 11 -6 2 -17 0 -25 -5 -11 -7 -4 -22 36 -73 28 -34 76 -102 107 -150 32
-49 63 -88 71 -88 37 0 114 127 135 222 13 57 14 59 68 83 82 38 172 106 246
187 l66 72 102 -71 c231 -159 519 -327 578 -338 66 -12 302 34 515 100 167 52
134 72 -145 86 -398 20 -503 46 -823 201 -167 82 -188 94 -182 113 3 11 15 58
26 105 37 157 59 218 99 272 22 29 40 60 40 68 0 31 -85 94 -135 101 -11 1
-33 -3 -48 -9 -16 -7 -37 -12 -47 -12 -17 0 -16 7 14 73 18 39 57 136 86 215
41 111 63 155 97 197 25 30 43 62 41 72 -4 22 -97 69 -154 78 -40 6 -46 3 -99
-39 -30 -25 -70 -53 -88 -62 -45 -23 -67 -44 -67 -66 0 -15 8 -18 43 -18 23 0
67 7 97 15 30 8 55 13 57 11 2 -1 -6 -55 -17 -118 -17 -104 -45 -199 -109
-371 -12 -32 -19 -62 -16 -68 4 -5 37 -9 76 -9 80 0 75 11 59 -135 -10 -90
-30 -170 -56 -233 l-13 -33 -59 30 c-79 40 -167 64 -209 58 l-34 -6 3 432 3
432 43 84 c42 81 43 84 25 103 -25 28 -89 59 -149 73 -50 12 -51 12 -115 -26
-62 -38 -185 -86 -195 -76 -6 6 192 190 318 296 54 45 104 94 112 108 13 25
12 30 -12 61 -39 51 -103 84 -175 89 -34 3 -65 2 -69 -3z m89 -601 c14 -22 18
-55 21 -187 2 -89 -1 -208 -5 -266 l-8 -105 -160 -42 c-88 -23 -168 -42 -178
-42 -17 -1 -18 5 -11 57 4 31 8 172 8 312 l1 255 115 21 c163 31 195 31 217
-3z m206 -1017 c31 -13 89 -43 127 -66 l71 -41 -22 -39 c-33 -59 -107 -145
-169 -196 -98 -81 -90 -95 -90 151 0 165 3 215 13 215 6 0 38 -11 70 -24z"/>
<path d="M999 1970 c-28 -18 39 -217 80 -239 49 -27 80 65 47 142 -15 37 -69
93 -96 100 -10 2 -24 1 -31 -3z"/>
<path d="M2409 2470 c-9 -5 -20 -24 -23 -42 -16 -80 -122 -178 -284 -262 -50
-25 -94 -52 -98 -58 -7 -11 55 -8 147 8 29 5 38 3 44 -12 5 -11 10 -92 13
-181 3 -131 1 -164 -9 -167 -8 -2 -61 -16 -119 -32 -103 -27 -160 -55 -160
-76 0 -11 153 -6 248 8 l42 7 -2 -194 -3 -194 -70 -13 c-38 -7 -103 -18 -144
-25 -41 -7 -77 -19 -79 -25 -2 -7 14 -20 35 -29 58 -25 194 -21 333 10 63 14
183 35 265 47 174 25 193 35 151 79 -15 16 -45 36 -66 46 -38 17 -41 17 -160
-14 -67 -17 -126 -31 -131 -31 -5 0 -9 81 -9 184 l0 184 55 7 c87 10 260 52
310 74 57 25 58 46 3 71 -73 33 -111 28 -352 -46 -18 -6 -19 -2 -11 77 4 46 9
110 9 142 1 55 -1 60 -36 93 -21 19 -38 36 -38 38 0 2 59 21 131 42 166 48
250 89 264 127 9 27 6 32 -35 68 -51 45 -153 99 -184 99 -12 0 -28 -5 -37 -10z"/>
<path d="M963 1314 c-7 -20 35 -148 62 -188 34 -50 53 -55 81 -23 26 30 32 85
15 131 -10 24 -68 64 -124 85 -23 9 -29 8 -34 -5z"/>
</g>
</svg>
