<?xml version="1.0" standalone="no"?>
<!DOCTYPE svg PUBLIC "-//W3C//DTD SVG 20010904//EN"
 "http://www.w3.org/TR/2001/REC-SVG-20010904/DTD/svg10.dtd">
<svg version="1.0" xmlns="http://www.w3.org/2000/svg"
 width="340.000000pt" height="340.000000pt" viewBox="0 0 340.000000 340.000000"
 preserveAspectRatio="xMidYMid meet">
<metadata>
Created by potrace 1.15, written by Peter Selinger 2001-2017
</metadata>
<g transform="translate(0.000000,340.000000) scale(0.100000,-0.100000)"
fill="#000000" stroke="none">
<path d="M984 2725 c-4 -10 -2 -32 5 -49 57 -140 80 -246 84 -385 l2 -85 -140
-28 c-77 -15 -164 -33 -192 -39 -66 -13 -68 -32 -5 -56 51 -19 174 -24 290
-11 l62 8 0 -143 0 -142 -122 -19 c-186 -28 -226 -47 -174 -82 20 -13 48 -16
122 -15 54 0 112 3 130 7 l34 6 0 -140 0 -140 -32 -11 c-39 -12 -236 -55 -328
-72 -36 -6 -119 -14 -184 -18 -70 -3 -121 -10 -123 -17 -8 -26 45 -80 111
-113 l68 -34 217 71 c119 40 229 75 244 78 l29 7 -7 -94 c-10 -140 -40 -340
-71 -470 l-27 -116 21 -70 c24 -76 59 -136 84 -141 20 -4 45 57 64 157 19 99
36 423 32 606 l-3 149 50 8 c28 5 109 21 180 37 72 16 159 34 194 40 73 12 90
23 72 45 -24 29 -79 39 -175 31 -84 -6 -276 -38 -311 -51 -13 -5 -15 15 -15
134 l0 140 134 32 c163 38 221 64 221 100 0 56 -94 62 -241 15 -44 -13 -85
-25 -91 -25 -10 0 -13 34 -13 135 l0 135 28 6 c234 53 349 89 362 113 12 23
-22 57 -69 71 -41 11 -211 -20 -307 -57 -25 -10 13 272 46 337 l19 38 -52 40
c-66 51 -124 80 -176 88 -33 5 -42 3 -47 -11z"/>
<path d="M2042 2708 c-7 -7 -12 -40 -12 -77 -1 -81 -22 -136 -115 -296 -82
-141 -164 -254 -246 -338 -66 -67 -95 -105 -86 -113 19 -19 186 107 311 235
51 51 62 58 79 50 23 -13 56 -9 164 20 46 12 94 21 108 19 l26 -3 -47 -90
c-59 -114 -142 -242 -194 -299 -51 -56 -103 -69 -272 -68 -65 0 -118 -3 -118
-8 0 -4 11 -32 24 -61 46 -101 58 -263 32 -439 -44 -292 -22 -429 89 -549 111
-119 269 -172 523 -172 262 0 500 63 630 168 51 42 53 66 18 195 -21 76 -40
192 -49 308 -2 31 -5 27 -25 -40 -85 -279 -99 -311 -166 -361 -97 -74 -272
-105 -531 -96 -330 12 -416 110 -384 439 12 125 13 127 38 132 65 14 294 47
481 71 228 28 280 39 280 59 0 14 -38 50 -75 72 -17 10 -17 13 9 61 16 28 52
82 82 119 76 98 88 122 75 150 -14 32 -104 89 -173 110 l-57 17 -58 -25 c-90
-40 -293 -103 -293 -91 0 3 26 38 58 76 93 114 252 269 330 320 43 29 72 55
72 66 0 32 -53 70 -122 88 l-66 17 -108 -51 c-102 -49 -281 -109 -292 -99 -5
6 37 58 196 240 62 71 111 132 110 136 -6 16 -95 84 -133 101 -46 21 -96 24
-113 7z m391 -959 c15 -57 3 -168 -26 -232 -23 -50 -33 -61 -72 -78 -55 -24
-192 -55 -202 -45 -4 3 3 48 15 99 26 108 29 193 7 224 -15 21 -14 23 7 28 49
12 244 43 253 41 5 -1 13 -18 18 -37z m-400 -304 l-8 -70 -105 -22 c-58 -12
-106 -20 -108 -18 -5 5 28 328 34 334 3 3 47 15 97 26 l92 20 3 -100 c1 -55
-1 -131 -5 -170z"/>
</g>
</svg>
