<?xml version="1.0" standalone="no"?>
<!DOCTYPE svg PUBLIC "-//W3C//DTD SVG 20010904//EN"
 "http://www.w3.org/TR/2001/REC-SVG-20010904/DTD/svg10.dtd">
<svg version="1.0" xmlns="http://www.w3.org/2000/svg"
 width="340.000000pt" height="340.000000pt" viewBox="0 0 340.000000 340.000000"
 preserveAspectRatio="xMidYMid meet">
<metadata>
Created by potrace 1.15, written by Peter Selinger 2001-2017
</metadata>
<g transform="translate(0.000000,340.000000) scale(0.100000,-0.100000)"
fill="#000000" stroke="none">
<path d="M1743 2714 c-3 -9 4 -37 17 -63 30 -63 36 -168 16 -300 -9 -57 -18
-106 -20 -108 -7 -7 -471 -91 -476 -86 -2 2 -7 70 -10 151 l-5 147 -45 22
c-78 39 -217 52 -235 23 -3 -5 10 -28 28 -52 19 -24 45 -64 59 -88 43 -75 93
-230 74 -230 -2 0 -80 -11 -173 -25 -92 -13 -218 -29 -278 -34 -61 -5 -118
-13 -128 -16 -44 -18 3 -61 101 -92 l53 -17 147 37 c200 50 302 68 307 53 2
-6 9 -42 15 -81 24 -151 52 -212 86 -184 13 11 15 35 12 155 l-3 142 207 41
c114 23 214 41 223 41 22 0 19 -27 -14 -132 -16 -51 -32 -108 -36 -126 -6 -31
-5 -33 12 -23 53 28 138 158 172 262 11 36 12 36 79 43 37 3 183 6 325 6 199
0 265 3 291 14 38 16 53 46 36 73 -29 46 -145 103 -211 103 -17 0 -59 -7 -93
-16 -122 -32 -376 -82 -376 -74 0 15 91 244 115 292 l25 47 -36 29 c-62 51
-137 82 -199 82 -42 0 -57 -4 -62 -16z"/>
<path d="M1680 1795 c0 -8 5 -45 12 -82 9 -57 8 -85 -6 -167 -16 -97 -63 -251
-106 -351 l-21 -50 -91 100 c-138 152 -246 252 -296 277 -36 17 -64 22 -136
22 -71 1 -91 -2 -91 -13 0 -7 42 -39 93 -70 51 -31 126 -83 167 -115 81 -64
285 -269 285 -287 0 -20 -174 -183 -264 -246 -155 -110 -361 -204 -611 -279
l-90 -27 40 -9 c51 -11 234 6 341 31 143 35 281 95 399 174 81 55 218 171 259
220 l34 40 29 -24 c16 -13 108 -93 204 -177 204 -180 380 -319 429 -339 42
-18 127 -13 375 22 234 34 341 54 362 71 17 13 17 15 -1 28 -10 8 -41 17 -70
20 -28 3 -100 10 -161 16 -387 39 -743 184 -1027 418 -38 31 -68 60 -68 64 0
5 12 27 26 49 38 61 89 184 130 317 20 64 51 150 70 190 l33 73 -47 48 c-49
51 -95 71 -164 71 -27 0 -38 -4 -38 -15z"/>
</g>
</svg>
