<?xml version="1.0" standalone="no"?>
<!DOCTYPE svg PUBLIC "-//W3C//DTD SVG 20010904//EN"
 "http://www.w3.org/TR/2001/REC-SVG-20010904/DTD/svg10.dtd">
<svg version="1.0" xmlns="http://www.w3.org/2000/svg"
 width="340.000000pt" height="340.000000pt" viewBox="0 0 340.000000 340.000000"
 preserveAspectRatio="xMidYMid meet">
<metadata>
Created by potrace 1.15, written by Peter Selinger 2001-2017
</metadata>
<g transform="translate(0.000000,340.000000) scale(0.100000,-0.100000)"
fill="#000000" stroke="none">
<path d="M1907 2943 c-3 -5 1 -42 9 -83 17 -89 18 -190 3 -260 -6 -27 -13 -50
-15 -50 -2 0 -82 -11 -176 -25 -95 -14 -192 -28 -214 -32 -40 -5 -42 -4 -49
26 -4 17 -4 64 0 104 l7 73 -68 34 c-54 28 -82 36 -140 38 -40 2 -80 0 -89 -6
-16 -8 -14 -14 22 -53 22 -24 49 -58 61 -76 21 -30 76 -163 70 -168 -8 -8
-267 -47 -430 -65 -259 -29 -256 -27 -187 -72 42 -27 153 -58 209 -58 17 0
113 20 213 44 100 25 190 46 200 48 15 2 24 -13 46 -82 33 -103 50 -132 73
-126 13 3 24 -9 42 -48 34 -73 46 -122 46 -193 l0 -62 -32 -6 c-18 -3 -115
-21 -215 -39 l-183 -32 -67 17 c-84 22 -137 24 -153 4 -9 -11 -7 -28 10 -79
35 -107 50 -228 50 -411 0 -199 -18 -347 -55 -464 -31 -97 -29 -162 6 -257 21
-55 25 -59 54 -48 85 33 157 537 140 982 -4 100 -6 182 -4 182 2 1 102 18 222
39 120 21 219 35 221 32 8 -12 -61 -208 -102 -292 -51 -106 -104 -187 -177
-274 -61 -71 -59 -75 17 -46 77 30 184 149 284 316 l56 95 87 -79 c47 -44 122
-116 166 -161 123 -126 201 -170 219 -124 21 55 -22 183 -80 238 -41 38 -173
100 -278 130 -49 14 -90 27 -91 28 -4 5 46 193 53 200 11 11 331 71 454 85 57
7 100 -9 123 -44 51 -77 93 -883 57 -1065 -20 -94 -35 -108 -125 -107 -40 0
-94 4 -122 9 -27 4 -54 5 -58 0 -5 -4 14 -24 42 -44 68 -51 149 -141 195 -220
52 -89 56 -91 109 -68 52 23 84 62 126 152 55 118 56 133 43 420 -7 144 -19
347 -28 453 -18 218 -16 243 25 347 45 113 43 130 -26 185 -32 25 -90 62 -130
82 -83 41 -85 41 -255 -11 -155 -49 -412 -106 -417 -94 -2 5 7 50 20 99 22 87
22 89 3 110 -34 38 -74 52 -204 73 l-35 6 -1 110 -1 109 26 5 c14 3 70 13 123
21 54 9 103 18 110 20 7 3 41 9 76 13 45 6 62 6 62 -3 0 -6 -16 -50 -35 -99
-36 -89 -55 -176 -39 -176 24 0 59 39 122 134 37 57 74 117 83 134 20 36 35
38 375 52 277 11 339 25 339 75 0 36 -43 68 -124 92 -78 22 -175 13 -365 -36
-87 -23 -162 -40 -166 -39 -4 2 15 50 42 108 27 58 50 121 51 140 2 33 0 36
-73 73 -74 37 -171 59 -183 40z"/>
</g>
</svg>
