<?xml version="1.0" standalone="no"?>
<!DOCTYPE svg PUBLIC "-//W3C//DTD SVG 20010904//EN"
 "http://www.w3.org/TR/2001/REC-SVG-20010904/DTD/svg10.dtd">
<svg version="1.0" xmlns="http://www.w3.org/2000/svg"
 width="340.000000pt" height="340.000000pt" viewBox="0 0 340.000000 340.000000"
 preserveAspectRatio="xMidYMid meet">
<metadata>
Created by potrace 1.15, written by Peter Selinger 2001-2017
</metadata>
<g transform="translate(0.000000,340.000000) scale(0.100000,-0.100000)"
fill="#000000" stroke="none">
<path d="M1953 2858 c26 -163 30 -219 21 -293 l-9 -80 -255 -37 c-140 -20
-261 -35 -268 -33 -10 4 -13 33 -11 123 1 66 -1 125 -6 132 -4 6 -35 25 -69
41 -68 32 -140 38 -172 15 -17 -13 -18 -17 -5 -38 58 -93 95 -180 110 -264 l8
-43 -41 -5 c-38 -5 -273 -27 -443 -42 -51 -5 -73 -11 -73 -20 0 -16 49 -54
108 -83 l43 -22 204 45 c113 26 208 46 213 46 5 0 16 -40 24 -90 16 -91 43
-161 65 -168 6 -2 20 9 30 24 14 22 19 53 22 145 l3 117 47 6 c194 27 444 56
448 52 3 -3 -11 -55 -31 -116 -40 -121 -56 -210 -38 -210 22 0 95 106 143 205
27 55 49 106 49 113 0 30 54 36 310 35 267 -1 274 0 291 44 12 32 2 51 -40 72
-90 46 -191 51 -335 17 -55 -14 -118 -28 -140 -32 -37 -6 -38 -6 -31 17 4 13
27 62 51 109 64 126 64 129 8 170 -62 44 -149 79 -198 80 -38 0 -38 -1 -33
-32z"/>
<path d="M1523 2033 c-13 -2 -23 -8 -23 -12 0 -4 27 -34 60 -65 67 -64 195
-132 229 -121 81 25 61 139 -33 184 -33 17 -60 21 -127 20 -46 -1 -94 -4 -106
-6z"/>
<path d="M2479 1883 c-391 -73 -1110 -182 -1609 -244 -184 -22 -339 -44 -343
-48 -18 -17 10 -43 87 -82 100 -51 109 -50 396 21 163 41 628 140 656 140 19
0 -161 -302 -254 -425 -60 -79 -266 -289 -364 -372 -82 -68 -291 -211 -371
-253 -63 -33 -63 -55 -1 -46 140 19 342 116 527 253 208 155 338 305 514 591
13 22 16 22 32 8 21 -19 105 -56 192 -85 36 -12 76 -32 88 -45 21 -23 22 -28
11 -83 -46 -233 -151 -441 -265 -528 l-35 -28 -63 23 c-34 12 -88 36 -119 51
-84 42 -95 39 -61 -18 15 -26 60 -110 98 -188 81 -161 88 -166 174 -120 159
87 310 298 427 599 30 76 51 113 88 153 48 53 49 55 37 92 -14 48 -74 117
-145 166 -49 34 -59 37 -98 31 -41 -6 -274 9 -311 20 -15 5 -12 12 22 50 23
24 41 50 41 57 0 8 -13 33 -30 55 -16 23 -30 44 -30 46 0 16 434 36 776 36
l313 0 20 26 c46 58 15 100 -98 134 -123 37 -166 39 -302 13z"/>
</g>
</svg>
