<?xml version="1.0" standalone="no"?>
<!DOCTYPE svg PUBLIC "-//W3C//DTD SVG 20010904//EN"
 "http://www.w3.org/TR/2001/REC-SVG-20010904/DTD/svg10.dtd">
<svg version="1.0" xmlns="http://www.w3.org/2000/svg"
 width="340.000000pt" height="340.000000pt" viewBox="0 0 340.000000 340.000000"
 preserveAspectRatio="xMidYMid meet">
<metadata>
Created by potrace 1.15, written by Peter Selinger 2001-2017
</metadata>
<g transform="translate(0.000000,340.000000) scale(0.100000,-0.100000)"
fill="#000000" stroke="none">
<path d="M1958 2805 c-3 -4 0 -26 9 -48 32 -87 10 -389 -30 -414 -15 -9 -509
-72 -519 -66 -5 2 -8 66 -8 141 0 75 -3 147 -6 160 -8 28 -130 89 -197 98 -54
8 -97 -1 -97 -19 0 -8 20 -40 45 -72 55 -70 97 -156 123 -252 l20 -71 -81 -7
c-45 -4 -152 -15 -237 -26 -85 -10 -177 -19 -205 -19 -67 0 -97 -9 -93 -27 4
-20 125 -93 153 -93 12 0 109 18 216 39 271 55 253 55 261 1 3 -25 7 -68 7
-95 1 -59 22 -95 55 -95 29 0 36 28 36 151 0 48 4 90 8 93 11 7 492 59 497 54
2 -2 -11 -64 -30 -138 -35 -137 -43 -190 -26 -190 20 0 73 78 136 201 62 121
67 127 101 134 20 3 143 5 273 4 131 -1 243 1 249 5 39 24 -10 115 -74 136
-54 18 -207 14 -333 -9 -63 -12 -116 -21 -117 -21 -6 0 58 142 96 215 22 42
40 88 40 102 0 35 -57 87 -117 107 -58 18 -145 30 -155 21z"/>
<path d="M1514 1956 c-3 -8 0 -34 7 -57 12 -45 16 -245 5 -256 -6 -7 -463 -57
-840 -93 -121 -11 -223 -23 -228 -26 -16 -10 -7 -42 17 -58 14 -9 61 -28 106
-43 l81 -27 91 22 c256 61 367 83 527 107 96 13 189 25 206 25 l30 0 -32 -216
c-18 -119 -34 -218 -36 -219 -2 -2 -43 -8 -93 -14 -72 -8 -106 -8 -170 4 -96
17 -152 19 -160 4 -4 -6 9 -36 29 -67 80 -124 113 -225 146 -445 21 -139 42
-197 71 -197 24 0 32 16 39 70 l5 45 75 6 c41 4 233 12 425 19 210 8 355 17
363 24 19 14 9 68 -19 108 l-23 32 45 84 c29 56 67 109 112 155 37 39 67 75
67 82 0 38 -147 134 -268 176 l-53 18 -122 -29 c-175 -43 -341 -70 -344 -56
-2 6 19 106 45 221 l48 210 109 8 c151 12 876 14 1005 3 120 -9 156 -1 166 39
15 60 -91 136 -220 157 -79 13 -194 4 -513 -42 -229 -32 -523 -64 -530 -56 -8
8 17 78 48 132 16 28 29 58 29 67 0 22 -64 72 -109 86 -54 16 -130 14 -137 -3z
m479 -886 c15 -12 29 -36 33 -55 7 -40 -16 -160 -49 -260 l-24 -70 -304 -37
c-167 -20 -311 -37 -320 -37 -13 -1 -18 29 -33 177 -10 97 -20 189 -23 205 -5
24 -2 27 20 27 14 0 78 9 144 21 180 31 318 47 429 48 88 1 105 -2 127 -19z"/>
</g>
</svg>
