<?xml version="1.0" standalone="no"?>
<!DOCTYPE svg PUBLIC "-//W3C//DTD SVG 20010904//EN"
 "http://www.w3.org/TR/2001/REC-SVG-20010904/DTD/svg10.dtd">
<svg version="1.0" xmlns="http://www.w3.org/2000/svg"
 width="340.000000pt" height="340.000000pt" viewBox="0 0 340.000000 340.000000"
 preserveAspectRatio="xMidYMid meet">
<metadata>
Created by potrace 1.15, written by Peter Selinger 2001-2017
</metadata>
<g transform="translate(0.000000,340.000000) scale(0.100000,-0.100000)"
fill="#000000" stroke="none">
<path d="M1874 2836 c-3 -9 4 -40 17 -69 18 -43 22 -69 22 -147 -2 -155 25
-139 -294 -177 -150 -17 -276 -30 -279 -27 -3 3 -7 56 -10 117 l-5 112 -58 39
c-47 33 -67 40 -115 43 -91 6 -94 -1 -39 -106 59 -110 102 -232 86 -241 -14
-9 -342 -48 -474 -56 -55 -4 -104 -9 -108 -11 -15 -9 27 -45 78 -69 74 -35
139 -31 342 18 95 23 175 39 179 36 3 -4 16 -55 29 -115 36 -168 48 -188 81
-137 13 19 18 56 22 155 3 71 8 129 12 129 4 0 116 16 250 35 134 19 251 35
260 35 16 0 17 -5 4 -71 -7 -39 -26 -113 -40 -165 -15 -51 -24 -97 -21 -101 4
-4 30 15 58 43 54 53 108 153 130 241 7 29 20 55 28 59 9 4 140 8 291 9 276 2
312 7 340 40 13 16 10 21 -28 56 -53 47 -128 73 -207 71 -34 0 -130 -17 -214
-37 -85 -19 -155 -34 -157 -32 -2 2 18 55 45 118 l50 114 -26 27 c-35 36 -110
67 -182 75 -51 5 -62 3 -67 -11z"/>
<path d="M1505 2099 c-4 -6 5 -36 19 -68 26 -58 47 -201 30 -201 -7 0 -312
-32 -621 -66 -71 -7 -69 -28 5 -62 51 -24 68 -27 172 -26 84 0 138 6 200 21
47 12 107 24 134 28 l49 8 -42 -61 c-122 -174 -350 -410 -546 -566 -60 -48
-181 -135 -267 -192 -204 -135 -213 -168 -24 -87 400 170 710 433 904 766 25
42 47 76 49 73 2 -2 0 -131 -6 -287 -6 -156 -11 -300 -11 -320 l0 -36 -107
-17 c-60 -10 -139 -24 -178 -33 -144 -32 -153 -41 -68 -73 61 -23 176 -29 289
-14 52 6 56 5 51 -12 -3 -11 -11 -81 -18 -157 -10 -109 -10 -148 -1 -185 15
-57 63 -154 79 -159 18 -6 50 34 63 80 7 24 14 131 17 252 l5 210 161 33 c89
18 176 36 192 39 39 7 75 30 75 48 0 21 -57 53 -105 60 -25 3 -94 -5 -181 -23
l-142 -28 -6 44 c-3 25 -6 161 -6 303 l0 259 313 -314 c171 -173 339 -333 371
-357 l59 -44 110 -3 c60 -2 153 1 206 7 106 13 280 46 290 56 14 15 -36 33
-156 59 -350 75 -663 225 -923 444 -96 80 -265 250 -258 258 3 2 112 13 243
24 251 22 337 36 380 64 37 24 28 47 -28 75 -67 33 -129 31 -367 -12 -113 -20
-213 -37 -222 -37 -23 0 -23 37 -2 105 l15 50 -35 31 c-51 44 -145 69 -161 43z"/>
</g>
</svg>
