<?xml version="1.0" standalone="no"?>
<!DOCTYPE svg PUBLIC "-//W3C//DTD SVG 20010904//EN"
 "http://www.w3.org/TR/2001/REC-SVG-20010904/DTD/svg10.dtd">
<svg version="1.0" xmlns="http://www.w3.org/2000/svg"
 width="340.000000pt" height="340.000000pt" viewBox="0 0 340.000000 340.000000"
 preserveAspectRatio="xMidYMid meet">
<metadata>
Created by potrace 1.15, written by Peter Selinger 2001-2017
</metadata>
<g transform="translate(0.000000,340.000000) scale(0.100000,-0.100000)"
fill="#000000" stroke="none">
<path d="M1960 2835 c0 -3 10 -34 21 -68 17 -48 21 -84 21 -162 -1 -55 -5
-116 -10 -135 l-8 -35 -269 -27 c-148 -14 -274 -24 -279 -21 -5 4 -6 50 -3
110 l6 103 -42 27 c-60 39 -134 62 -194 63 -67 0 -68 -12 -9 -88 24 -32 51
-71 59 -87 17 -34 48 -147 42 -153 -12 -13 -220 -34 -405 -41 -118 -5 -223
-12 -233 -16 -44 -18 14 -68 120 -102 50 -16 58 -16 150 1 249 46 359 66 369
66 6 0 16 -34 22 -75 12 -79 41 -149 66 -158 44 -17 69 58 60 181 -5 62 -4 82
6 82 7 0 122 14 257 31 135 17 247 28 250 25 3 -3 -13 -64 -36 -136 -22 -72
-41 -147 -41 -166 l0 -35 30 16 c42 21 89 89 160 226 l60 117 84 7 c46 3 185
5 308 4 240 -3 268 1 268 44 0 30 -33 65 -84 88 -62 28 -153 24 -358 -17 -99
-19 -182 -33 -185 -30 -3 3 16 51 41 108 25 57 46 113 46 124 0 40 -80 91
-185 119 -60 15 -105 19 -105 10z"/>
<path d="M1550 1997 c0 -15 9 -49 20 -76 31 -80 59 -236 66 -373 l7 -127 -34
-6 c-56 -10 -464 -63 -466 -61 -2 2 6 43 17 93 11 50 23 122 26 160 l7 69 -41
32 c-61 49 -125 74 -178 70 l-46 -3 37 -54 c108 -157 110 -280 5 -394 -56 -62
-61 -83 -27 -141 37 -65 44 -66 149 -14 51 25 136 60 188 77 101 33 300 81
338 81 l22 0 0 -290 c0 -159 -3 -290 -7 -290 -5 0 -122 -12 -261 -26 -139 -15
-255 -25 -257 -23 -2 2 7 42 21 88 31 106 31 163 3 190 -30 28 -85 52 -130 58
-36 5 -39 4 -39 -19 0 -14 9 -51 20 -83 42 -121 20 -190 -87 -275 -29 -23 -53
-47 -53 -53 0 -20 27 -103 44 -136 9 -17 24 -31 35 -31 10 0 63 22 119 49 55
28 130 59 166 70 150 46 969 191 1082 191 34 0 34 0 34 -46 0 -62 18 -179 36
-237 21 -63 46 -77 78 -42 34 37 45 92 62 312 8 108 17 206 20 218 11 45 -129
138 -229 151 -26 4 -47 4 -47 1 0 -2 14 -34 31 -70 27 -58 55 -202 42 -217 -6
-6 -537 -59 -545 -53 -5 2 -8 134 -8 293 0 159 3 291 8 293 10 7 493 80 497
75 1 -1 -2 -26 -8 -54 -14 -67 -4 -104 27 -104 41 0 73 38 137 163 34 67 82
155 106 196 50 85 50 97 -2 158 -42 49 -104 81 -165 85 -44 3 -45 3 -42 -27
13 -159 12 -203 -5 -270 l-19 -70 -254 -32 c-140 -18 -261 -30 -269 -27 -12 4
-13 27 -7 132 3 70 13 156 22 192 29 123 29 129 -1 160 -35 36 -126 77 -192
86 -52 6 -53 6 -53 -19z"/>
</g>
</svg>
