<?xml version="1.0" standalone="no"?>
<!DOCTYPE svg PUBLIC "-//W3C//DTD SVG 20010904//EN"
 "http://www.w3.org/TR/2001/REC-SVG-20010904/DTD/svg10.dtd">
<svg version="1.0" xmlns="http://www.w3.org/2000/svg"
 width="340.000000pt" height="340.000000pt" viewBox="0 0 340.000000 340.000000"
 preserveAspectRatio="xMidYMid meet">
<metadata>
Created by potrace 1.15, written by Peter Selinger 2001-2017
</metadata>
<g transform="translate(0.000000,340.000000) scale(0.100000,-0.100000)"
fill="#000000" stroke="none">
<path d="M2007 2703 c-3 -4 -5 -82 -6 -173 0 -91 -4 -183 -8 -205 l-8 -40
-254 -33 c-139 -18 -256 -30 -260 -27 -3 4 -6 55 -7 113 0 59 -1 113 -2 119
-4 30 -173 93 -248 93 -60 0 -62 -18 -12 -102 23 -39 56 -107 75 -152 l32 -81
-24 -6 c-13 -4 -122 -12 -242 -18 -332 -18 -363 -21 -363 -36 0 -15 75 -65
144 -96 61 -27 126 -23 296 16 63 15 139 27 168 28 l53 2 26 -60 c48 -115 103
-160 116 -96 4 16 3 67 0 113 l-6 84 233 27 c129 15 235 25 237 23 3 -2 -16
-60 -41 -129 -66 -182 -71 -238 -18 -201 23 16 123 164 187 276 35 61 42 68
79 74 23 5 169 8 326 7 183 -1 289 2 298 9 45 37 -30 125 -133 157 -37 12 -75
21 -84 21 -9 0 -80 -15 -156 -34 -77 -19 -164 -38 -193 -42 l-53 -7 44 89 c25
49 50 106 57 127 11 36 11 40 -15 67 -55 57 -220 122 -238 93z"/>
<path d="M1177 1804 c12 -88 6 -258 -14 -359 l-18 -89 -35 -8 c-117 -25 -379
-59 -464 -61 -129 -3 -134 -14 -48 -97 78 -76 103 -81 202 -42 91 36 302 103
307 98 2 -2 -12 -47 -33 -99 -49 -128 -45 -138 66 -194 98 -50 160 -90 160
-103 0 -32 -324 -270 -495 -362 -95 -51 -80 -61 45 -29 162 42 333 131 485
251 l72 58 60 -61 c33 -34 79 -86 102 -114 53 -66 85 -71 107 -18 7 19 14 47
14 62 0 51 -44 126 -111 188 l-65 60 57 110 c75 144 180 391 181 426 2 55 -89
142 -142 137 -22 -3 -26 -9 -30 -55 -3 -28 -8 -54 -11 -57 -5 -5 -271 -66
-288 -66 -13 0 34 113 93 224 25 48 46 98 46 110 0 41 -131 127 -213 142 l-39
7 9 -59z m377 -461 c-22 -92 -131 -359 -159 -391 -1 -1 -29 10 -61 25 -32 15
-86 35 -119 44 -33 9 -59 21 -58 25 5 18 75 210 82 224 11 21 228 90 314 99 4
1 4 -11 1 -26z"/>
<path d="M2486 1550 c-107 -53 -222 -85 -369 -100 -83 -8 -105 -7 -173 10 -79
20 -114 19 -114 -4 0 -7 14 -38 30 -69 34 -62 84 -289 95 -432 9 -107 32 -224
51 -253 10 -15 23 -22 37 -20 20 3 27 15 52 95 1 1 127 12 280 24 306 23 330
29 319 77 -4 15 -18 46 -32 70 l-25 44 17 61 c21 75 67 167 135 271 28 43 51
82 51 86 0 35 -94 96 -212 136 -85 29 -92 29 -142 4z m32 -195 c7 -103 -45
-379 -74 -402 -16 -12 -232 -65 -311 -77 -31 -5 -43 -3 -43 6 0 7 -9 118 -21
246 -11 129 -18 236 -16 239 12 11 290 41 372 40 l90 -2 3 -50z"/>
</g>
</svg>
