<?xml version="1.0" standalone="no"?>
<!DOCTYPE svg PUBLIC "-//W3C//DTD SVG 20010904//EN"
 "http://www.w3.org/TR/2001/REC-SVG-20010904/DTD/svg10.dtd">
<svg version="1.0" xmlns="http://www.w3.org/2000/svg"
 width="340.000000pt" height="340.000000pt" viewBox="0 0 340.000000 340.000000"
 preserveAspectRatio="xMidYMid meet">
<metadata>
Created by potrace 1.15, written by Peter Selinger 2001-2017
</metadata>
<g transform="translate(0.000000,340.000000) scale(0.100000,-0.100000)"
fill="#000000" stroke="none">
<path d="M1954 2933 c17 -108 18 -183 2 -264 -10 -46 -21 -88 -26 -92 -9 -10
-343 -64 -452 -73 l-78 -7 0 126 0 126 -33 25 c-18 14 -50 32 -70 41 -38 16
-157 21 -157 7 0 -5 22 -52 49 -104 44 -87 90 -222 80 -232 -9 -9 -240 -37
-407 -50 -174 -13 -206 -22 -183 -50 16 -20 91 -54 143 -65 46 -11 48 -10 283
43 61 13 128 27 150 31 l40 6 13 -66 c7 -37 19 -79 27 -95 14 -27 42 -46 53
-35 10 10 21 121 15 161 -5 35 -2 43 13 47 35 11 188 37 304 52 63 8 132 17
153 20 l37 5 -30 -59 c-42 -84 -87 -201 -91 -236 -5 -39 23 -45 58 -13 35 31
101 135 151 234 l41 81 91 7 c50 4 198 4 328 0 212 -6 240 -5 254 9 9 10 14
25 11 37 -9 33 -79 88 -133 104 -61 18 -132 11 -347 -33 -76 -16 -139 -25
-141 -21 -2 4 22 61 53 125 30 65 55 126 55 136 0 42 -127 108 -209 109 l-53
0 6 -37z"/>
<path d="M1468 2224 c-5 -4 -8 -17 -8 -28 0 -32 -52 -133 -111 -216 -48 -69
-174 -201 -306 -324 -78 -72 -69 -80 37 -34 68 29 185 105 274 176 l79 64 126
2 c86 2 169 12 260 30 151 30 281 42 334 32 32 -6 39 -14 66 -69 43 -87 62
-209 68 -437 9 -302 -22 -565 -82 -699 -43 -96 -47 -98 -157 -72 -204 46 -219
40 -133 -49 40 -42 68 -86 99 -153 53 -113 66 -128 104 -118 89 26 181 104
241 205 19 31 49 102 68 157 47 136 58 286 47 639 -12 382 -11 421 19 514 21
63 23 82 14 98 -25 40 -151 110 -269 147 -33 11 -47 8 -143 -23 -158 -52 -557
-138 -572 -122 -3 3 33 46 81 94 l87 89 -32 27 c-60 51 -170 91 -191 70z"/>
<path d="M1430 1596 c-78 -32 -169 -53 -291 -67 -98 -11 -113 -10 -199 10 -51
12 -96 19 -100 14 -4 -4 5 -41 22 -81 36 -91 54 -232 62 -497 7 -205 15 -252
47 -281 28 -25 50 -10 69 49 18 55 12 53 265 62 l170 7 29 -66 c34 -78 47 -92
74 -77 56 30 97 215 107 476 7 177 7 181 41 256 19 42 34 84 34 93 0 26 -77
74 -162 101 -95 30 -99 30 -168 1z m87 -153 c26 -58 29 -248 8 -411 -15 -115
-20 -132 -34 -126 -35 15 -84 15 -153 0 -83 -17 -215 -36 -259 -36 l-29 0 0
130 0 130 43 -7 c159 -29 350 23 311 84 -23 36 -95 33 -281 -10 -34 -8 -64
-12 -67 -9 -3 3 -6 63 -6 134 l0 128 48 1 c26 0 90 6 142 13 52 8 132 14 178
15 l83 1 16 -37z"/>
</g>
</svg>
