<?xml version="1.0" standalone="no"?>
<!DOCTYPE svg PUBLIC "-//W3C//DTD SVG 20010904//EN"
 "http://www.w3.org/TR/2001/REC-SVG-20010904/DTD/svg10.dtd">
<svg version="1.0" xmlns="http://www.w3.org/2000/svg"
 width="340.000000pt" height="340.000000pt" viewBox="0 0 340.000000 340.000000"
 preserveAspectRatio="xMidYMid meet">
<metadata>
Created by potrace 1.15, written by Peter Selinger 2001-2017
</metadata>
<g transform="translate(0.000000,340.000000) scale(0.100000,-0.100000)"
fill="#000000" stroke="none">
<path d="M1955 2988 c34 -109 37 -132 26 -207 -6 -42 -15 -79 -19 -83 -8 -8
-486 -78 -534 -78 l-27 0 -3 102 -3 103 -60 17 c-75 21 -155 23 -180 4 -19
-14 -19 -16 13 -59 34 -48 92 -164 92 -184 0 -7 -3 -13 -7 -13 -5 0 -75 -9
-158 -19 -82 -11 -197 -25 -255 -31 -105 -11 -160 -25 -160 -41 0 -15 45 -40
112 -60 l67 -21 58 20 c59 20 253 65 331 76 39 6 42 5 42 -17 0 -39 37 -157
56 -178 10 -11 27 -19 38 -17 29 4 39 57 28 152 -5 45 -8 83 -6 85 4 5 518 69
523 65 8 -7 -64 -189 -84 -212 -2 -2 -21 8 -42 22 -20 14 -44 26 -52 26 -7 0
-35 -22 -61 -48 -59 -60 -151 -108 -297 -156 -121 -40 -161 -66 -102 -66 19 0
75 7 124 15 50 8 96 15 103 15 17 0 38 -53 45 -115 l6 -51 -227 -32 c-125 -18
-279 -37 -342 -43 -139 -13 -181 -21 -182 -34 -1 -5 21 -21 48 -35 40 -20 62
-24 124 -23 62 0 284 37 365 60 28 7 -87 -110 -205 -209 -122 -103 -256 -198
-398 -283 -109 -65 -129 -81 -119 -91 11 -12 137 29 233 75 198 95 385 232
579 426 l115 115 0 -61 c0 -34 -7 -89 -16 -123 -18 -69 -14 -153 11 -213 59
-140 103 -54 112 215 3 89 7 162 8 162 2 0 47 -30 101 -66 54 -36 187 -118
294 -181 107 -64 235 -140 283 -169 110 -66 185 -81 310 -65 155 21 332 78
329 106 -1 11 -25 17 -318 74 -244 47 -486 114 -623 172 -101 43 -341 169
-341 179 0 4 125 12 278 19 328 14 426 21 442 31 8 5 10 18 6 34 -14 55 -173
114 -260 96 -23 -4 -139 -33 -259 -64 -119 -31 -224 -56 -233 -56 -14 0 -15 7
-9 38 10 56 8 73 -15 105 -12 16 -20 30 -18 31 1 2 55 21 118 42 77 26 116 44
118 55 2 9 22 36 45 60 23 25 62 82 87 127 25 45 50 90 56 99 10 14 43 17 260
20 137 2 259 6 272 9 13 3 22 12 22 23 0 26 -68 85 -122 106 -50 18 -60 17
-280 -24 -79 -15 -98 -16 -98 -5 0 7 18 47 40 89 22 42 40 83 40 92 0 39 -113
93 -194 93 -56 0 -58 -1 -51 -22z"/>
<path d="M1784 1515 c-155 -51 -353 -96 -554 -125 -206 -29 -210 -30 -210 -39
0 -5 30 -22 68 -38 l67 -31 90 18 c50 9 92 16 93 14 6 -4 -28 -115 -55 -179
-42 -99 -130 -225 -227 -321 -105 -105 -196 -174 -353 -268 -61 -37 -117 -74
-125 -83 -24 -30 81 -8 188 39 259 115 459 285 619 529 35 52 80 115 99 138
47 57 47 84 -4 132 l-40 38 37 10 c95 26 333 80 376 86 l47 7 0 -33 c-1 -62
-68 -181 -142 -250 l-38 -36 14 -48 c8 -26 19 -52 24 -57 6 -6 32 2 69 21 70
35 174 55 218 43 l30 -9 -1 -94 c0 -108 -24 -201 -82 -318 l-36 -73 -55 5
c-31 3 -91 20 -134 37 -43 18 -81 30 -84 27 -3 -4 16 -34 42 -69 46 -61 97
-158 110 -211 4 -14 15 -33 26 -43 42 -38 158 27 240 136 52 69 90 169 124
325 21 94 25 104 76 171 22 28 39 60 39 71 0 28 -64 84 -131 116 -79 37 -102
41 -137 23 -34 -18 -168 -43 -177 -34 -9 9 30 83 81 155 44 61 120 133 143
133 22 0 11 39 -19 63 -34 29 -130 68 -163 66 -12 -1 -81 -20 -153 -44z"/>
</g>
</svg>
