<?xml version="1.0" standalone="no"?>
<!DOCTYPE svg PUBLIC "-//W3C//DTD SVG 20010904//EN"
 "http://www.w3.org/TR/2001/REC-SVG-20010904/DTD/svg10.dtd">
<svg version="1.0" xmlns="http://www.w3.org/2000/svg"
 width="340.000000pt" height="340.000000pt" viewBox="0 0 340.000000 340.000000"
 preserveAspectRatio="xMidYMid meet">
<metadata>
Created by potrace 1.15, written by Peter Selinger 2001-2017
</metadata>
<g transform="translate(0.000000,340.000000) scale(0.100000,-0.100000)"
fill="#000000" stroke="none">
<path d="M1908 2825 c-3 -3 1 -36 8 -73 7 -37 13 -92 13 -122 0 -63 -22 -187
-35 -199 -5 -5 -106 -18 -224 -30 -118 -12 -230 -25 -247 -28 l-33 -5 0 121
c0 135 -3 142 -78 180 -46 24 -162 47 -187 37 -22 -8 -15 -40 25 -102 33 -52
84 -172 94 -220 9 -39 22 -35 -279 -64 -318 -30 -320 -30 -320 -60 0 -17 12
-33 42 -54 63 -44 128 -46 283 -8 147 36 231 52 277 52 27 0 34 -4 39 -27 27
-120 43 -153 74 -153 30 0 40 31 40 120 0 55 4 82 13 85 20 7 440 45 445 41 2
-3 -9 -40 -26 -83 -37 -97 -48 -158 -31 -169 18 -11 106 87 165 184 45 73 52
81 89 88 22 4 171 8 331 9 159 1 295 5 302 9 38 23 -20 101 -100 136 -46 20
-64 22 -138 17 -47 -3 -145 -17 -219 -31 -73 -15 -142 -26 -152 -26 -16 0 -10
17 36 113 76 157 76 155 17 194 -74 48 -204 88 -224 68z"/>
<path d="M1274 1963 c-4 -26 -10 -57 -14 -69 -9 -22 -62 -80 -122 -133 l-37
-32 -68 56 c-91 75 -158 107 -214 103 l-44 -3 45 -42 c25 -23 74 -66 109 -95
111 -92 113 -81 -41 -191 -73 -52 -166 -113 -206 -137 -82 -48 -94 -60 -59
-60 67 0 267 85 396 167 52 33 55 34 68 17 26 -36 37 -92 23 -118 -59 -112
-329 -406 -499 -546 -50 -41 -91 -78 -91 -82 0 -4 15 -8 34 -8 75 0 238 113
468 324 75 69 140 126 144 126 11 0 -6 -266 -21 -347 -17 -88 -49 -163 -82
-195 -23 -21 -33 -23 -131 -23 -65 0 -107 -4 -107 -10 0 -5 20 -37 43 -70 24
-33 58 -84 75 -114 37 -63 54 -76 89 -68 36 9 112 80 143 132 61 105 109 275
125 448 18 187 -13 377 -90 559 -17 39 -30 74 -30 78 0 16 219 169 259 181 56
17 66 30 47 67 -27 51 -99 101 -183 126 -20 6 -22 2 -29 -41z"/>
<path d="M1764 1966 c-3 -9 4 -56 16 -104 25 -94 37 -264 26 -355 l-7 -54
-107 -21 c-59 -12 -158 -29 -219 -38 -144 -21 -149 -44 -17 -72 40 -9 201 6
296 27 l39 9 -7 -37 c-13 -73 -56 -206 -88 -276 -83 -179 -209 -317 -382 -419
-33 -19 -68 -44 -78 -55 l-19 -21 46 0 c56 0 133 28 215 78 208 126 325 288
395 547 l13 50 104 -155 c180 -269 350 -509 377 -530 77 -60 280 -58 561 6
113 25 112 26 -178 118 -199 64 -308 114 -391 181 -167 135 -282 260 -388 425
-33 52 -61 98 -61 101 0 11 55 18 275 34 214 17 307 33 333 59 38 38 -42 87
-152 94 -58 3 -98 -3 -216 -32 -170 -41 -230 -52 -230 -40 -1 5 16 93 37 196
l37 188 -30 31 c-57 60 -186 102 -200 65z"/>
<path d="M2172 1917 c-10 -12 -11 -21 -3 -35 29 -54 217 -162 282 -162 48 0
64 21 64 82 0 63 -20 81 -118 103 -112 26 -210 31 -225 12z"/>
</g>
</svg>
