<?xml version="1.0" standalone="no"?>
<!DOCTYPE svg PUBLIC "-//W3C//DTD SVG 20010904//EN"
 "http://www.w3.org/TR/2001/REC-SVG-20010904/DTD/svg10.dtd">
<svg version="1.0" xmlns="http://www.w3.org/2000/svg"
 width="340.000000pt" height="340.000000pt" viewBox="0 0 340.000000 340.000000"
 preserveAspectRatio="xMidYMid meet">
<metadata>
Created by potrace 1.15, written by Peter Selinger 2001-2017
</metadata>
<g transform="translate(0.000000,340.000000) scale(0.100000,-0.100000)"
fill="#000000" stroke="none">
<path d="M1953 2944 c-3 -8 2 -33 12 -54 13 -30 16 -55 12 -102 -5 -61 -50
-224 -67 -242 -10 -10 -500 -65 -505 -56 -2 4 -7 59 -11 123 -6 100 -10 119
-28 135 -40 37 -230 81 -252 59 -7 -7 13 -44 44 -82 14 -16 35 -52 47 -80 23
-51 52 -162 44 -169 -7 -7 -327 -35 -482 -42 -131 -6 -147 -9 -147 -25 0 -25
39 -52 116 -83 62 -25 70 -26 143 -16 42 6 130 21 196 35 66 13 138 25 159 27
l40 3 21 -75 c29 -101 60 -160 85 -160 33 0 41 34 38 155 l-3 113 35 5 c84 13
411 40 416 34 3 -3 -15 -57 -40 -121 -51 -128 -56 -156 -27 -156 26 0 97 80
170 191 l62 96 137 13 c75 7 236 11 357 10 121 -2 232 -2 247 -2 32 2 52 33
43 63 -9 27 -92 65 -187 86 l-75 16 -164 -36 c-167 -37 -308 -62 -314 -55 -1
1 33 59 76 127 44 69 79 130 79 136 0 43 -90 102 -197 129 -74 20 -72 19 -80
0z"/>
<path d="M2170 2149 c-185 -44 -972 -142 -1115 -139 -38 1 -99 2 -135 3 -73 2
-73 3 -46 -71 32 -86 41 -259 28 -548 -12 -276 -31 -453 -59 -559 -18 -70 -13
-179 12 -263 29 -96 67 -77 109 56 18 57 29 78 42 79 48 6 742 44 906 49 l183
7 40 -62 c22 -34 74 -126 115 -204 41 -78 82 -143 91 -145 22 -4 85 61 113
117 66 130 83 312 62 661 -9 140 -21 302 -27 360 -21 191 1 401 47 451 17 19
17 22 -4 64 -34 69 -116 122 -232 149 -47 10 -65 10 -130 -5z m67 -114 c70
-47 81 -107 100 -597 21 -508 10 -728 -37 -728 -5 0 -42 29 -82 65 -108 96
-116 99 -251 85 -131 -14 -310 -27 -316 -24 -2 2 2 18 9 36 8 21 15 130 19
310 4 153 9 279 12 282 2 3 67 12 144 21 212 24 335 46 335 61 0 19 -27 48
-55 60 -46 19 -97 18 -180 -5 -39 -11 -99 -24 -135 -30 -36 -7 -75 -14 -86
-16 -31 -7 -37 18 -23 99 l13 69 -28 22 -28 22 48 7 c133 18 276 50 281 61 2
7 -3 27 -11 43 -40 78 -127 96 -194 42 -51 -41 -141 -75 -301 -116 -229 -57
-268 -92 -88 -79 191 13 178 15 193 -25 11 -32 20 -170 10 -170 -19 0 -304
-32 -355 -40 -114 -18 -128 -29 -63 -51 40 -14 228 -18 275 -6 15 4 27 4 27
-1 0 -5 -28 -51 -61 -103 -45 -69 -99 -131 -200 -229 -77 -75 -139 -141 -139
-149 0 -22 49 -4 125 47 104 69 241 212 322 335 l70 106 6 -52 c6 -64 -7 -257
-23 -354 -14 -82 -8 -130 21 -168 12 -14 19 -28 17 -30 -7 -8 -476 -55 -543
-55 l-65 0 0 58 c0 108 31 1086 35 1090 6 7 692 90 870 106 99 9 196 18 215
20 49 5 90 -2 117 -19z"/>
<path d="M1768 1333 c-52 -12 10 -77 186 -194 135 -89 178 -101 196 -53 23 60
-6 122 -75 161 -76 43 -264 96 -307 86z"/>
</g>
</svg>
