<?xml version="1.0" standalone="no"?>
<!DOCTYPE svg PUBLIC "-//W3C//DTD SVG 20010904//EN"
 "http://www.w3.org/TR/2001/REC-SVG-20010904/DTD/svg10.dtd">
<svg version="1.0" xmlns="http://www.w3.org/2000/svg"
 width="340.000000pt" height="340.000000pt" viewBox="0 0 340.000000 340.000000"
 preserveAspectRatio="xMidYMid meet">
<metadata>
Created by potrace 1.15, written by Peter Selinger 2001-2017
</metadata>
<g transform="translate(0.000000,340.000000) scale(0.100000,-0.100000)"
fill="#000000" stroke="none">
<path d="M1975 2951 c-3 -5 -1 -40 5 -78 6 -40 7 -99 3 -143 l-8 -74 -275 -27
c-151 -15 -277 -26 -281 -23 -3 2 -4 37 -1 79 4 69 3 78 -19 101 -14 14 -50
32 -89 44 -100 28 -127 31 -141 14 -10 -12 -6 -23 20 -59 42 -59 71 -123 71
-161 0 -28 -4 -32 -32 -38 -27 -4 -264 -25 -438 -38 -27 -2 -35 -7 -35 -23 0
-29 106 -80 161 -78 23 1 106 13 185 28 79 14 150 27 158 28 9 1 19 -24 32
-86 19 -98 39 -137 69 -137 37 0 55 46 57 148 1 52 4 96 6 98 6 7 528 56 534
50 3 -3 -6 -47 -20 -98 -36 -131 -41 -158 -27 -158 24 0 107 99 150 178 l45
84 244 -6 c197 -4 249 -3 277 9 19 8 34 18 34 23 0 18 -46 56 -99 80 -77 36
-175 40 -310 13 -58 -11 -107 -19 -109 -16 -3 2 10 39 27 82 17 43 31 83 31
89 0 23 -52 57 -124 80 -86 27 -92 28 -101 15z"/>
<path d="M1712 2290 c-31 -41 -140 -90 -320 -145 -174 -52 -204 -64 -196 -77
21 -33 707 84 753 128 13 12 12 17 -8 38 -34 36 -134 86 -173 86 -26 0 -39 -7
-56 -30z"/>
<path d="M2110 2105 c-24 -57 -95 -132 -222 -237 -132 -109 -130 -118 13 -58
36 15 137 56 225 90 175 69 184 74 184 101 0 36 -126 149 -167 149 -8 0 -22
-20 -33 -45z"/>
<path d="M1440 1983 c0 -28 46 -88 115 -151 73 -67 103 -68 123 -5 22 67 4
113 -55 142 -30 15 -74 26 -115 29 -63 4 -68 3 -68 -15z"/>
<path d="M990 1882 c0 -37 185 -232 220 -232 4 0 18 8 31 19 34 27 40 125 9
163 -26 34 -130 68 -206 68 -46 0 -54 -3 -54 -18z"/>
<path d="M1540 1717 c-28 -15 -29 -22 -4 -120 9 -37 14 -70 11 -74 -7 -7 -721
-83 -780 -83 -4 0 -7 -10 -5 -22 3 -24 49 -51 120 -69 43 -12 64 -9 273 35
125 26 229 45 232 42 3 -2 -19 -42 -49 -88 -150 -229 -333 -397 -615 -564 -78
-46 -143 -89 -143 -94 0 -14 54 -1 165 40 218 81 390 194 538 353 66 70 187
231 228 303 l34 59 6 -30 c19 -87 4 -387 -27 -555 -32 -169 -34 -217 -12 -304
33 -130 72 -192 104 -165 21 18 40 57 49 104 4 22 7 234 6 470 -2 424 -2 430
17 410 11 -11 80 -87 154 -170 265 -295 438 -444 539 -466 65 -14 275 -6 434
16 117 17 125 19 125 40 0 21 -42 40 -171 73 -347 91 -699 280 -1023 550 l-80
67 40 6 c88 15 343 29 522 29 216 0 252 4 252 31 0 24 -61 73 -118 95 -44 16
-49 16 -206 -10 -89 -15 -219 -38 -291 -51 -71 -13 -145 -27 -164 -30 l-34 -6
7 58 c6 55 5 60 -21 85 -28 26 -65 48 -80 48 -4 0 -19 -6 -33 -13z"/>
</g>
</svg>
