<?xml version="1.0" standalone="no"?>
<!DOCTYPE svg PUBLIC "-//W3C//DTD SVG 20010904//EN"
 "http://www.w3.org/TR/2001/REC-SVG-20010904/DTD/svg10.dtd">
<svg version="1.0" xmlns="http://www.w3.org/2000/svg"
 width="340.000000pt" height="340.000000pt" viewBox="0 0 340.000000 340.000000"
 preserveAspectRatio="xMidYMid meet">
<metadata>
Created by potrace 1.15, written by Peter Selinger 2001-2017
</metadata>
<g transform="translate(0.000000,340.000000) scale(0.100000,-0.100000)"
fill="#000000" stroke="none">
<path d="M1893 2823 c4 -21 13 -63 22 -93 8 -30 15 -73 15 -95 0 -37 -17 -115
-24 -115 -2 0 -119 -13 -259 -30 -141 -16 -268 -30 -282 -30 -24 0 -25 2 -25
73 0 39 -4 78 -9 85 -23 36 -271 72 -271 39 0 -7 21 -42 46 -78 25 -35 57 -85
70 -111 l24 -48 -27 0 c-102 0 -509 -32 -517 -40 -18 -18 7 -42 80 -81 l69
-37 105 23 c107 24 311 57 317 51 2 -1 14 -39 27 -84 13 -44 32 -95 42 -113
44 -75 65 -37 65 116 0 63 0 115 2 115 1 0 118 18 260 38 l259 38 -5 -25 c-3
-15 -24 -74 -47 -133 l-41 -106 -49 21 c-40 17 -51 18 -64 8 -22 -18 -20 -33
8 -89 44 -88 85 -255 66 -267 -3 -2 -68 -14 -143 -26 l-136 -22 -71 27 c-68
25 -120 33 -120 19 0 -3 11 -38 24 -77 37 -106 50 -257 37 -412 -13 -144 -44
-341 -67 -423 -35 -123 -129 -275 -268 -433 -42 -48 -76 -92 -76 -98 0 -15 59
12 127 58 165 114 292 310 357 555 20 74 56 244 56 263 0 3 9 0 19 -6 32 -17
138 -11 297 15 168 28 205 30 222 13 14 -14 15 -86 2 -148 -24 -112 -64 -250
-71 -248 -4 2 -71 63 -148 136 -137 128 -142 132 -185 132 -44 0 -74 -19 -61
-39 3 -6 40 -38 83 -73 42 -34 121 -100 175 -146 96 -82 98 -85 80 -104 -55
-61 -247 -166 -451 -247 -126 -51 -126 -68 -1 -51 220 29 398 101 528 213 l34
29 88 -95 c98 -105 190 -182 259 -217 43 -22 51 -23 215 -17 187 7 354 28 411
52 33 13 36 17 23 29 -8 8 -84 26 -169 41 -166 28 -346 83 -529 161 -86 37
-225 106 -239 119 -2 2 8 29 21 61 13 33 46 123 71 201 45 134 50 145 93 182
l46 39 -22 31 c-27 38 -76 64 -159 85 l-62 17 -71 -31 c-39 -16 -77 -30 -85
-30 -12 0 -14 37 -14 209 0 191 2 210 18 215 32 10 372 76 392 76 33 0 23 -31
-35 -108 -61 -81 -79 -111 -72 -119 3 -2 45 10 93 27 49 18 148 47 219 65 112
28 130 35 127 51 -8 48 -81 112 -201 177 l-69 38 -106 -41 c-111 -42 -328
-110 -351 -110 -10 0 -9 18 7 93 11 50 24 96 29 101 15 17 10 27 -30 65 l-40
36 82 148 82 149 277 -4 c272 -3 278 -3 299 18 19 20 20 24 8 50 -17 36 -94
76 -158 81 -26 3 -91 -5 -151 -17 -182 -38 -230 -47 -230 -41 1 3 20 46 44 95
41 83 43 91 29 112 -37 57 -127 104 -199 104 l-47 0 6 -37z m-133 -1242 l0
-208 -141 -22 c-77 -13 -143 -20 -146 -17 -5 4 15 398 20 402 4 3 232 51 250
53 16 1 17 -15 17 -208z"/>
<path d="M850 1982 c0 -29 173 -255 208 -271 56 -27 92 3 92 77 0 37 -6 49
-46 92 -26 28 -70 61 -98 75 -57 28 -156 45 -156 27z"/>
<path d="M611 1561 c-7 -5 -10 -14 -7 -20 15 -24 202 -184 225 -193 38 -14 68
4 82 50 9 33 9 45 -6 75 -9 20 -27 43 -41 51 -54 36 -217 60 -253 37z"/>
<path d="M1093 1345 c-156 -241 -281 -410 -340 -463 -72 -63 -74 -73 -43 -173
20 -66 71 -139 95 -139 22 0 59 73 105 205 23 66 77 199 120 295 89 200 123
297 118 331 -2 20 -11 11 -55 -56z"/>
</g>
</svg>
