<?xml version="1.0" standalone="no"?>
<!DOCTYPE svg PUBLIC "-//W3C//DTD SVG 20010904//EN"
 "http://www.w3.org/TR/2001/REC-SVG-20010904/DTD/svg10.dtd">
<svg version="1.0" xmlns="http://www.w3.org/2000/svg"
 width="340.000000pt" height="340.000000pt" viewBox="0 0 340.000000 340.000000"
 preserveAspectRatio="xMidYMid meet">
<metadata>
Created by potrace 1.15, written by Peter Selinger 2001-2017
</metadata>
<g transform="translate(0.000000,340.000000) scale(0.100000,-0.100000)"
fill="#000000" stroke="none">
<path d="M1915 3007 c-4 -8 1 -50 10 -93 16 -79 14 -194 -5 -224 -5 -9 -83
-22 -242 -41 -128 -15 -250 -30 -270 -33 l-37 -6 -3 102 -3 103 -65 22 c-88
30 -220 31 -220 1 0 -5 22 -36 49 -69 47 -58 107 -166 98 -175 -2 -3 -100 -13
-218 -24 -283 -26 -351 -37 -347 -58 2 -9 33 -32 69 -51 l67 -36 218 44 c121
24 223 44 227 45 5 0 17 -32 28 -73 23 -90 48 -135 76 -139 35 -5 46 30 41
134 -2 52 -1 94 2 94 3 0 110 14 238 30 128 17 241 30 252 30 17 0 16 -7 -12
-92 -32 -100 -34 -161 -6 -166 28 -5 65 44 124 163 l54 110 128 -2 c70 -2 188
-8 262 -14 146 -11 183 -6 195 30 18 59 -82 129 -197 138 -47 4 -89 -2 -163
-20 -55 -14 -120 -28 -144 -32 -42 -7 -43 -6 -36 16 4 13 23 61 42 107 l35 83
-28 30 c-37 39 -97 66 -161 75 -42 5 -54 4 -58 -9z"/>
<path d="M1525 2402 c-38 -8 -39 -20 -2 -94 20 -40 39 -89 42 -109 l7 -35 -99
-17 c-180 -29 -277 -56 -262 -71 24 -25 285 -32 342 -11 15 7 17 -1 17 -83 l0
-91 -32 -5 c-18 -3 -71 -11 -118 -16 -47 -6 -144 -20 -217 -30 -172 -26 -386
-50 -445 -50 -86 0 -69 -38 39 -92 72 -35 53 -36 268 11 119 27 115 27 115
-17 0 -91 -100 -221 -251 -328 -128 -90 -125 -105 9 -60 83 28 182 90 267 167
33 30 82 72 108 93 41 33 48 44 45 70 -3 27 -12 35 -75 68 -83 42 -87 39 82
67 238 41 377 51 734 58 325 6 356 8 373 25 25 25 23 35 -15 73 -58 58 -179
69 -379 36 -62 -10 -160 -24 -218 -30 -58 -7 -120 -14 -137 -17 l-33 -5 0 90
c0 86 1 91 23 95 114 24 313 78 333 91 33 21 30 41 -7 54 -49 17 -105 13 -218
-14 -57 -14 -105 -24 -107 -23 -1 2 1 23 6 47 4 25 4 55 0 67 -16 42 -140 97
-195 86z"/>
<path d="M1780 1683 c0 -11 10 -29 23 -40 32 -30 444 -233 473 -233 21 0 24 5
24 33 0 44 -49 119 -97 151 -49 32 -267 96 -355 103 -63 5 -68 4 -68 -14z"/>
<path d="M1393 1506 c-30 -143 -132 -294 -319 -476 -130 -126 -255 -224 -415
-325 -57 -36 -108 -70 -113 -76 -19 -18 56 -9 132 17 243 81 456 222 626 415
l59 68 56 -47 c146 -122 206 -176 209 -188 4 -16 -117 -124 -210 -187 -93 -63
-255 -144 -383 -192 -55 -20 -104 -41 -109 -46 -19 -17 29 -22 101 -10 241 40
465 148 658 315 l40 35 90 -75 c50 -41 158 -128 240 -192 83 -64 155 -122 160
-129 49 -61 271 -56 600 14 242 51 248 85 16 98 -138 8 -322 37 -416 66 -86
26 -230 87 -349 146 -91 46 -266 150 -266 159 0 18 192 279 236 321 30 28 54
58 54 66 0 30 -44 68 -131 112 -50 25 -97 45 -105 45 -8 0 -45 -15 -82 -34
-74 -37 -119 -51 -199 -60 -63 -8 -66 1 -23 58 17 22 30 47 30 56 0 23 -37 55
-90 79 -73 33 -84 30 -97 -33z m185 -219 c32 -8 67 -7 138 3 115 15 122 12
105 -55 -11 -46 -96 -222 -123 -257 -12 -16 -23 -9 -133 77 -66 52 -128 98
-137 101 -26 8 -23 16 25 89 34 53 46 64 62 59 11 -3 39 -11 63 -17z"/>
</g>
</svg>
