<?xml version="1.0" standalone="no"?>
<!DOCTYPE svg PUBLIC "-//W3C//DTD SVG 20010904//EN"
 "http://www.w3.org/TR/2001/REC-SVG-20010904/DTD/svg10.dtd">
<svg version="1.0" xmlns="http://www.w3.org/2000/svg"
 width="340.000000pt" height="340.000000pt" viewBox="0 0 340.000000 340.000000"
 preserveAspectRatio="xMidYMid meet">
<metadata>
Created by potrace 1.15, written by Peter Selinger 2001-2017
</metadata>
<g transform="translate(0.000000,340.000000) scale(0.100000,-0.100000)"
fill="#000000" stroke="none">
<path d="M1954 2906 c-3 -9 4 -53 16 -99 28 -104 39 -244 19 -252 -16 -5 -562
-85 -585 -85 -12 0 -14 17 -13 97 1 90 0 97 -22 115 -54 42 -210 71 -236 44
-11 -10 7 -54 37 -91 38 -48 94 -160 86 -173 -5 -9 -111 -21 -375 -41 -62 -5
-118 -14 -124 -20 -30 -30 103 -91 197 -91 28 0 107 14 176 30 69 16 132 30
141 30 12 0 20 -16 28 -62 16 -79 55 -168 75 -168 25 0 30 21 31 139 l1 115
279 38 c153 21 281 35 283 33 3 -2 -17 -70 -43 -150 -27 -80 -46 -148 -42
-151 22 -22 128 110 194 241 19 39 37 72 40 75 2 2 117 7 256 11 139 3 260 10
269 13 75 32 -63 136 -180 136 -19 0 -95 -14 -169 -32 -73 -17 -135 -29 -139
-26 -3 4 10 42 30 86 47 103 47 142 3 176 -77 59 -220 97 -233 62z"/>
<path d="M1530 2217 c-53 -14 -62 -37 -25 -64 86 -60 176 -136 169 -142 -5 -5
-148 -29 -319 -55 -449 -67 -397 -64 -425 -23 -44 65 -84 71 -95 14 -3 -18
-44 -108 -91 -202 -47 -93 -88 -186 -91 -205 -8 -53 19 -110 51 -110 61 0 135
111 205 304 l36 101 70 7 c39 4 203 27 365 52 365 56 561 81 755 97 144 11
300 8 339 -7 28 -11 16 -74 -34 -183 -54 -118 -46 -130 44 -72 76 50 137 75
251 101 147 34 162 49 112 112 -79 99 -226 184 -313 180 -42 -1 -634 -78 -765
-98 l-37 -6 14 57 c25 111 0 148 -104 152 -37 1 -87 -3 -112 -10z"/>
<path d="M1820 1775 c-131 -33 -297 -66 -410 -80 -135 -18 -174 -29 -168 -48
9 -24 74 -36 208 -36 143 -1 216 9 445 60 188 42 216 60 153 99 -40 24 -143
26 -228 5z"/>
<path d="M1925 1492 c-233 -70 -638 -133 -728 -112 -23 5 -63 10 -89 10 -60 0
-61 -11 -10 -94 63 -100 125 -279 147 -427 15 -102 86 -169 93 -88 4 43 -33
35 345 80 l277 33 31 -37 c17 -20 37 -37 44 -37 22 0 48 47 104 190 47 121 89
206 162 337 l24 42 -21 28 c-29 39 -137 92 -209 101 -53 7 -73 4 -170 -26z
m102 -124 c13 -24 18 -55 17 -108 0 -77 -7 -105 -51 -222 l-26 -67 -46 6 c-28
3 -84 -3 -146 -16 -173 -37 -439 -81 -446 -73 -4 4 -10 46 -14 93 l-7 87 48 6
c27 3 101 10 164 17 206 19 370 59 370 89 0 5 -10 16 -22 24 -41 29 -137 18
-408 -45 -69 -16 -134 -31 -146 -34 -19 -4 -22 2 -33 68 -7 39 -14 82 -17 94
-5 19 -1 22 43 28 26 3 143 22 258 40 116 19 221 36 235 38 14 3 67 5 117 6
l92 1 18 -32z"/>
<path d="M2245 694 c-22 -3 -175 -22 -340 -44 -455 -60 -613 -76 -1072 -109
-162 -11 -176 -31 -69 -100 56 -37 69 -41 124 -41 35 0 97 9 140 20 98 25 364
65 557 85 381 38 646 45 800 21 184 -29 305 -18 305 29 0 24 -50 73 -108 107
-55 32 -61 33 -177 34 -66 1 -138 0 -160 -2z"/>
</g>
</svg>
