<?xml version="1.0" standalone="no"?>
<!DOCTYPE svg PUBLIC "-//W3C//DTD SVG 20010904//EN"
 "http://www.w3.org/TR/2001/REC-SVG-20010904/DTD/svg10.dtd">
<svg version="1.0" xmlns="http://www.w3.org/2000/svg"
 width="340.000000pt" height="340.000000pt" viewBox="0 0 340.000000 340.000000"
 preserveAspectRatio="xMidYMid meet">
<metadata>
Created by potrace 1.15, written by Peter Selinger 2001-2017
</metadata>
<g transform="translate(0.000000,340.000000) scale(0.100000,-0.100000)"
fill="#000000" stroke="none">
<path d="M1920 2909 c0 -13 7 -42 15 -64 15 -42 21 -221 7 -241 -7 -11 -490
-67 -504 -58 -12 8 -9 84 6 142 l13 52 -32 20 c-49 30 -113 50 -162 50 -53 0
-65 -19 -38 -64 37 -62 57 -106 70 -157 8 -29 13 -55 11 -56 -7 -7 -253 -34
-382 -42 -74 -5 -140 -13 -145 -18 -29 -29 59 -91 143 -100 41 -4 86 3 200 32
81 20 160 35 175 33 26 -3 28 -7 40 -76 13 -78 34 -122 58 -122 25 0 38 41 43
137 4 77 8 93 21 93 9 0 111 9 226 20 116 11 216 20 223 20 18 0 8 -51 -34
-175 -39 -115 -39 -115 -20 -115 21 0 57 47 135 180 46 77 78 120 89 121 9 0
136 4 282 8 165 4 273 11 285 18 19 11 18 14 -22 51 -48 46 -134 82 -196 82
-23 0 -107 -14 -187 -30 -80 -16 -149 -30 -153 -30 -5 0 16 45 45 100 l53 101
-25 20 c-47 37 -142 80 -191 86 -47 6 -49 5 -49 -18z"/>
<path d="M1470 2251 c0 -6 13 -37 29 -69 30 -61 55 -147 46 -161 -9 -15 -124
-30 -278 -37 -81 -4 -151 -12 -154 -17 -9 -14 42 -52 87 -66 46 -14 181 -14
274 -1 38 6 71 9 73 7 2 -2 0 -63 -3 -134 l-7 -131 -56 -6 c-279 -33 -511 -59
-696 -76 -120 -11 -223 -24 -228 -29 -10 -10 37 -40 114 -71 l57 -23 138 27
c214 40 817 130 835 124 10 -3 -110 -118 -250 -237 -73 -62 -75 -63 -122 -58
-26 3 -49 3 -53 0 -3 -3 1 -18 9 -34 15 -27 15 -28 -63 -92 -200 -166 -411
-306 -694 -461 -83 -45 -96 -61 -41 -53 191 31 521 206 763 405 l85 70 4 -51
c1 -29 -3 -143 -10 -254 -10 -163 -10 -214 0 -259 17 -74 35 -115 60 -139 20
-17 23 -17 37 -3 9 9 21 48 27 87 l11 71 41 0 c22 0 101 9 175 21 74 11 165
21 202 22 81 2 77 7 158 -160 67 -137 77 -144 129 -93 67 68 93 206 90 487
l-2 188 31 78 c44 109 43 126 -15 171 -62 48 -160 96 -211 103 -28 4 -64 -2
-118 -21 -97 -32 -221 -61 -337 -79 l-88 -14 78 71 c43 38 116 107 163 153 47
45 97 86 111 92 15 5 173 15 352 22 252 10 366 10 504 1 206 -13 247 -8 251
30 4 34 -71 101 -141 124 -73 25 -128 21 -438 -30 -343 -56 -438 -70 -445 -63
-4 3 16 26 42 51 170 159 256 237 307 280 63 54 71 78 39 131 -21 33 -115 90
-137 82 -7 -3 -20 -30 -29 -59 -8 -29 -32 -81 -53 -116 -39 -66 -230 -291
-301 -354 -38 -34 -48 -38 -97 -38 -30 0 -58 -1 -62 -2 -10 -4 -3 246 7 256 5
5 62 17 127 27 129 20 191 40 218 69 16 18 16 20 -16 39 -25 16 -51 21 -99 21
-60 0 -170 -19 -212 -35 -23 -9 -23 8 -2 92 12 49 13 67 4 78 -27 32 -220 73
-220 46z m566 -996 c33 -45 39 -99 39 -345 0 -209 -3 -251 -17 -282 -9 -21
-22 -38 -27 -38 -6 0 -23 19 -38 43 -15 23 -34 48 -42 55 -23 19 -92 15 -293
-20 -103 -17 -190 -29 -193 -27 -2 3 -6 63 -7 134 l-3 130 95 12 c52 6 149 17
215 24 179 18 220 42 154 92 -44 32 -102 32 -232 -2 -65 -17 -142 -34 -171
-37 l-53 -6 -7 117 c-4 64 -6 118 -4 120 2 2 77 14 168 28 211 33 393 33 416
2z"/>
</g>
</svg>
