<?xml version="1.0" standalone="no"?>
<!DOCTYPE svg PUBLIC "-//W3C//DTD SVG 20010904//EN"
 "http://www.w3.org/TR/2001/REC-SVG-20010904/DTD/svg10.dtd">
<svg version="1.0" xmlns="http://www.w3.org/2000/svg"
 width="340.000000pt" height="340.000000pt" viewBox="0 0 340.000000 340.000000"
 preserveAspectRatio="xMidYMid meet">
<metadata>
Created by potrace 1.15, written by Peter Selinger 2001-2017
</metadata>
<g transform="translate(0.000000,340.000000) scale(0.100000,-0.100000)"
fill="#000000" stroke="none">
<path d="M1907 2877 c-3 -8 -1 -36 5 -62 7 -34 7 -74 -1 -136 -13 -101 -25
-139 -43 -139 -7 0 -119 -14 -248 -30 -129 -16 -240 -30 -245 -30 -6 0 -16 43
-22 95 -12 103 -21 121 -70 141 -41 18 -168 30 -176 17 -3 -5 12 -35 33 -67
41 -61 68 -129 72 -186 l3 -35 -190 -21 c-104 -12 -245 -25 -312 -29 -68 -4
-123 -12 -123 -17 0 -27 118 -107 161 -109 13 -1 77 13 141 30 159 41 339 75
348 64 4 -4 15 -28 24 -53 46 -119 96 -105 96 27 l0 69 213 23 c116 12 229 25
250 28 47 7 47 2 2 -104 -42 -96 -57 -183 -32 -183 24 0 103 95 165 199 31 53
58 98 60 101 2 3 144 5 315 5 341 0 357 3 357 54 0 57 -99 109 -225 118 -57 4
-100 -2 -234 -32 -90 -20 -164 -35 -166 -33 -5 6 55 143 75 171 12 15 20 35
18 44 -5 25 -62 54 -147 75 -91 22 -97 22 -104 5z"/>
<path d="M1320 2169 c-90 -131 -168 -204 -337 -317 -100 -67 -115 -82 -84 -82
48 0 224 79 341 154 l65 41 22 -22 c12 -13 34 -23 48 -23 23 0 25 -3 20 -22
-7 -22 -80 -144 -109 -181 -12 -16 -17 -16 -56 -2 -48 17 -110 20 -110 5 0 -5
25 -24 57 -42 l56 -32 -59 -55 c-33 -31 -104 -90 -159 -131 -109 -81 -110 -99
-5 -57 80 33 157 80 236 145 35 28 68 52 75 52 17 0 169 -84 169 -94 0 -18
-180 -191 -270 -259 -103 -78 -130 -102 -130 -116 0 -23 165 44 247 100 26 18
91 75 144 127 l97 93 48 -31 c61 -38 101 -40 115 -4 12 34 -3 82 -37 119 -26
28 -26 28 -6 54 10 14 49 71 87 126 37 55 74 108 82 117 20 23 9 51 -39 97
l-40 39 53 11 c199 39 287 50 308 37 20 -13 8 -184 -23 -316 -48 -210 -104
-317 -185 -353 -44 -19 -50 -20 -118 -6 -40 9 -73 12 -73 7 0 -4 19 -35 43
-68 120 -172 128 -178 186 -154 93 38 171 163 230 364 91 307 114 361 186 435
43 45 44 47 30 75 -28 55 -189 140 -265 140 -23 0 -83 -14 -132 -30 -164 -55
-435 -100 -603 -100 l-75 0 33 31 c17 17 51 44 75 61 72 50 52 87 -51 95 -63
5 -64 5 -87 -28z m404 -250 c0 -52 -49 -163 -113 -258 l-41 -59 -77 32 c-43
18 -86 36 -96 39 -15 6 -7 21 58 100 41 52 75 98 75 102 0 5 -10 19 -22 32
-12 13 -19 25 -17 27 6 6 200 35 219 32 11 -1 15 -14 14 -47z"/>
<path d="M2320 1222 c0 -31 122 -111 347 -228 175 -91 236 -86 219 18 -24 147
-138 206 -418 215 -103 4 -148 2 -148 -5z"/>
<path d="M740 1098 c-22 -81 -40 -122 -106 -241 -66 -117 -67 -120 -61 -179 3
-36 12 -67 23 -79 20 -22 72 -25 96 -6 31 23 88 126 114 204 50 148 32 332
-33 341 -18 3 -24 -4 -33 -40z"/>
<path d="M1480 1073 c0 -21 20 -47 89 -114 121 -117 171 -139 212 -98 18 18
20 29 15 66 -3 25 -14 58 -23 75 -30 51 -151 98 -253 98 -37 0 -40 -2 -40 -27z"/>
<path d="M1035 1060 c-14 -22 7 -86 71 -216 70 -144 115 -202 209 -270 139
-98 316 -157 539 -176 236 -20 532 18 709 92 112 47 113 82 2 150 -101 62
-208 145 -284 221 -51 51 -76 70 -79 60 -3 -8 17 -79 44 -158 58 -168 60 -161
-61 -195 -69 -19 -105 -22 -265 -22 -230 0 -351 19 -460 71 -103 49 -216 163
-293 293 -59 101 -120 170 -132 150z"/>
</g>
</svg>
