<?xml version="1.0" standalone="no"?>
<!DOCTYPE svg PUBLIC "-//W3C//DTD SVG 20010904//EN"
 "http://www.w3.org/TR/2001/REC-SVG-20010904/DTD/svg10.dtd">
<svg version="1.0" xmlns="http://www.w3.org/2000/svg"
 width="340.000000pt" height="340.000000pt" viewBox="0 0 340.000000 340.000000"
 preserveAspectRatio="xMidYMid meet">
<metadata>
Created by potrace 1.15, written by Peter Selinger 2001-2017
</metadata>
<g transform="translate(0.000000,340.000000) scale(0.100000,-0.100000)"
fill="#000000" stroke="none">
<path d="M1936 2912 c-4 -6 3 -38 14 -71 22 -66 28 -205 9 -216 -16 -11 -486
-58 -503 -52 -12 5 -16 21 -16 66 0 33 -5 72 -12 86 -19 43 -189 113 -236 97
-19 -6 -14 -30 14 -67 30 -40 83 -161 84 -191 0 -20 -11 -22 -177 -43 -98 -13
-232 -28 -298 -35 -118 -11 -120 -12 -120 -36 0 -21 11 -31 65 -58 65 -32 66
-33 110 -17 69 24 204 53 334 70 64 8 119 15 121 15 2 0 11 -26 20 -57 30
-104 75 -167 105 -148 6 3 10 55 10 116 0 60 1 109 3 110 1 0 111 12 245 28
159 18 242 23 242 17 0 -6 -5 -28 -11 -50 -22 -81 -27 -137 -12 -143 23 -9 70
45 110 129 l38 78 270 0 c304 0 341 4 357 33 9 18 6 25 -20 48 -44 40 -137 72
-202 70 -30 -1 -125 -12 -210 -25 -85 -13 -156 -22 -158 -21 -2 2 13 38 33 80
40 83 41 112 2 138 -55 36 -198 69 -211 49z"/>
<path d="M1627 2375 c-10 -10 -17 -32 -17 -56 0 -22 -10 -59 -21 -82 -30 -59
-118 -166 -184 -224 -31 -26 -65 -63 -76 -81 -41 -64 -4 -55 122 30 86 59 90
60 121 48 80 -31 208 -94 208 -101 0 -18 -217 -150 -409 -249 -113 -58 -207
-111 -209 -119 -10 -32 211 26 372 99 90 40 196 103 282 166 l71 52 174 -94
c96 -51 212 -110 259 -130 79 -34 89 -36 156 -30 128 10 394 72 394 91 0 13
-48 25 -131 35 -118 14 -249 42 -409 86 -147 41 -342 103 -353 114 -4 4 16 25
45 47 29 23 88 73 131 112 44 38 87 73 98 76 26 9 24 41 -4 69 -22 22 -100 46
-149 46 -12 0 -69 -15 -127 -34 -120 -39 -231 -56 -231 -36 0 7 14 28 31 47
41 48 37 82 -14 107 -56 27 -110 32 -130 11z m143 -217 c33 -10 80 -8 194 8
l48 7 -15 -29 c-20 -38 -143 -164 -160 -164 -16 0 -69 17 -185 58 l-83 30 68
56 c43 36 73 54 83 50 8 -3 31 -11 50 -16z"/>
<path d="M822 2082 c-14 -38 138 -267 184 -278 49 -12 71 37 67 150 -1 32 -50
88 -98 113 -16 9 -56 19 -88 23 -48 5 -60 4 -65 -8z"/>
<path d="M1735 1721 c-3 -5 6 -31 20 -57 30 -56 32 -81 6 -89 -11 -3 -67 -12
-127 -20 -117 -15 -138 -25 -111 -53 15 -14 35 -17 115 -16 54 0 110 4 125 8
l27 6 0 -79 0 -79 -52 -12 c-29 -6 -88 -16 -130 -23 -43 -6 -78 -14 -78 -19 0
-19 50 -29 151 -31 l109 -2 0 -77 c0 -75 0 -76 -27 -82 -68 -13 -258 -37 -362
-45 -62 -5 -118 -14 -124 -20 -19 -19 5 -44 63 -65 l52 -19 182 32 c99 17 189
31 199 31 15 0 17 -11 17 -92 1 -51 5 -124 10 -163 5 -38 8 -71 7 -72 -9 -8
-290 57 -562 132 -88 24 -179 49 -202 55 -43 11 -43 11 -43 58 -1 26 -9 70
-19 97 -59 160 -56 138 -31 216 13 39 47 109 77 156 29 47 53 91 53 98 0 34
-72 67 -176 81 -44 5 -56 3 -92 -20 -34 -22 -90 -43 -190 -72 -21 -6 -9 -47
18 -62 27 -14 112 -10 184 9 21 6 40 9 41 7 2 -2 -5 -53 -15 -113 -28 -160
-26 -187 20 -303 22 -54 40 -108 40 -119 0 -17 -17 -24 -111 -47 -275 -68
-351 -128 -206 -165 l56 -15 98 47 c54 26 128 53 165 62 l66 15 119 -34 c65
-19 210 -67 323 -106 554 -193 716 -244 825 -256 39 -4 76 2 170 29 242 71
504 175 513 205 3 11 -64 12 -369 6 -347 -6 -531 0 -669 22 l-37 6 14 47 c8
25 18 107 21 181 l7 135 100 6 c55 4 173 7 261 8 172 1 193 7 179 49 -15 50
-121 58 -374 29 -87 -10 -158 -14 -163 -9 -5 5 -8 42 -6 83 l3 74 110 12 c182
20 227 43 150 80 -32 15 -44 15 -128 3 -144 -21 -132 -26 -135 54 -2 38 1 73
6 78 5 5 60 15 123 23 142 18 159 22 159 38 0 27 -20 40 -71 48 -50 8 -178 -3
-201 -18 -7 -4 -8 13 -4 49 l7 55 -34 17 c-38 17 -132 22 -142 7z"/>
</g>
</svg>
