<?xml version="1.0" standalone="no"?>
<!DOCTYPE svg PUBLIC "-//W3C//DTD SVG 20010904//EN"
 "http://www.w3.org/TR/2001/REC-SVG-20010904/DTD/svg10.dtd">
<svg version="1.0" xmlns="http://www.w3.org/2000/svg"
 width="340.000000pt" height="340.000000pt" viewBox="0 0 340.000000 340.000000"
 preserveAspectRatio="xMidYMid meet">
<metadata>
Created by potrace 1.15, written by Peter Selinger 2001-2017
</metadata>
<g transform="translate(0.000000,340.000000) scale(0.100000,-0.100000)"
fill="#000000" stroke="none">
<path d="M1978 2869 c-16 -9 -16 -12 2 -52 14 -30 20 -65 20 -124 0 -78 -1
-83 -22 -88 -45 -9 -483 -74 -486 -71 -1 2 -5 33 -9 70 -5 57 -10 70 -34 91
-61 51 -219 89 -227 54 -1 -8 14 -40 34 -69 38 -56 89 -158 82 -166 -7 -7
-184 -23 -383 -35 -104 -6 -198 -15 -208 -21 -18 -9 -18 -11 4 -34 31 -34 136
-84 173 -84 17 0 88 14 156 30 69 17 162 39 208 49 97 22 88 30 122 -106 25
-104 41 -135 61 -116 18 18 28 107 22 191 -3 40 -2 72 3 72 5 0 114 14 242 31
128 17 236 28 240 24 4 -3 -4 -34 -17 -68 -86 -227 -92 -247 -65 -247 47 0
131 112 189 252 15 37 34 69 42 72 7 3 136 6 285 7 149 0 277 3 284 6 22 8 16
49 -10 80 -49 58 -141 66 -376 33 -79 -11 -145 -18 -147 -16 -2 2 13 38 33 79
32 65 36 78 24 92 -17 21 -60 39 -130 54 -90 20 -94 20 -112 10z"/>
<path d="M1030 2240 c0 -6 11 -32 25 -58 22 -42 54 -186 44 -196 -2 -2 -54
-11 -115 -20 -206 -31 -257 -53 -172 -77 45 -12 238 -8 271 6 15 6 17 -1 17
-78 l0 -85 -87 -16 c-49 -9 -119 -24 -157 -34 -62 -16 -67 -19 -51 -32 20 -16
171 -20 253 -7 l42 7 0 -69 0 -69 -150 -37 c-169 -41 -354 -75 -409 -75 -47 0
-64 -12 -59 -40 5 -36 50 -63 112 -68 47 -4 72 2 163 36 112 42 293 95 293 85
0 -9 -99 -147 -182 -255 -109 -139 -274 -324 -343 -383 -30 -25 -55 -51 -55
-56 0 -41 166 57 310 183 89 79 161 157 250 273 30 39 58 75 63 80 20 21 -16
-335 -53 -524 -10 -53 -20 -109 -23 -126 -11 -66 67 -225 105 -213 18 6 37 47
48 108 6 29 10 210 10 401 0 192 4 349 8 349 5 0 53 -41 106 -91 54 -49 102
-89 109 -86 18 6 27 59 16 99 -16 62 -45 86 -131 107 -42 10 -81 22 -87 25 -9
6 -17 146 -8 146 1 0 62 9 135 20 194 28 230 53 142 98 -58 29 -115 28 -192
-3 -88 -36 -88 -36 -88 40 l0 64 43 11 c92 24 228 73 243 87 11 11 12 19 4 28
-22 26 -76 26 -181 0 -56 -14 -104 -25 -105 -25 -2 0 -4 31 -4 70 l0 69 43 11
c268 69 290 82 230 130 -36 28 -92 24 -183 -13 -35 -15 -66 -25 -68 -23 -2 2
4 41 12 86 19 95 15 104 -48 122 -22 6 -45 15 -50 20 -14 12 -96 10 -96 -2z"/>
<path d="M2335 2204 c-187 -53 -581 -114 -690 -107 -40 3 -66 0 -78 -9 -17
-13 -16 -17 12 -73 17 -33 63 -159 102 -280 95 -293 98 -303 117 -321 17 -17
24 -12 57 39 6 11 32 19 73 23 l63 7 -3 -94 -3 -94 -180 -32 c-168 -31 -183
-32 -225 -19 -44 15 -72 19 -99 17 -14 -1 -14 -5 15 -126 13 -58 15 -98 9
-240 -11 -241 -11 -255 12 -307 25 -55 54 -75 77 -53 31 32 39 121 33 383 -3
138 -3 252 1 252 4 0 82 14 172 30 90 17 170 30 177 30 10 0 13 -27 13 -113
l0 -113 -88 -17 c-49 -9 -104 -17 -123 -17 -48 0 -79 -10 -79 -25 0 -17 75
-82 118 -103 32 -16 34 -15 100 18 130 65 364 170 378 170 8 0 18 -10 23 -23
5 -12 27 -46 50 -75 29 -37 48 -52 66 -52 34 0 65 44 65 93 0 36 -6 47 -49 88
-44 42 -140 97 -198 114 -31 9 -30 -14 3 -66 14 -23 24 -42 22 -43 -2 -2 -41
-11 -88 -21 -47 -10 -91 -20 -98 -23 -10 -3 -12 20 -10 109 l3 114 80 17 c44
9 131 22 193 29 128 14 172 6 213 -37 23 -24 24 -32 27 -182 4 -172 -8 -280
-40 -354 -23 -53 -35 -57 -109 -38 -22 6 -58 15 -80 21 -66 17 -67 -1 -4 -67
31 -32 80 -97 108 -143 67 -108 74 -112 126 -78 51 34 94 92 122 166 18 46 23
88 29 241 5 102 11 203 15 225 13 84 28 142 47 187 l20 47 -21 34 c-35 57
-108 99 -200 117 -38 7 -61 2 -160 -30 -120 -39 -358 -96 -367 -87 -3 2 -1 44
3 93 l8 89 94 16 95 17 32 -35 c27 -28 36 -33 52 -24 28 15 73 109 127 261 53
151 91 232 141 303 33 45 34 49 19 76 -18 36 -61 63 -142 90 -71 24 -108 25
-178 5z m71 -110 c12 -45 -5 -159 -46 -321 -22 -87 -44 -161 -48 -165 -7 -7
-190 -48 -213 -48 -5 0 -9 52 -9 115 0 111 1 115 23 120 12 2 53 12 91 20 80
18 96 28 96 61 0 31 -29 38 -110 25 -98 -16 -93 -19 -85 48 8 73 2 94 -33 111
-25 12 -19 14 98 35 69 13 149 23 177 24 49 1 53 -1 59 -25z m-424 -124 c0
-49 1 -96 2 -102 1 -11 -26 -20 -131 -43 -13 -3 -23 -12 -23 -20 0 -23 34 -35
100 -35 l61 0 -3 -112 -3 -112 -68 -14 c-37 -8 -70 -12 -74 -9 -17 17 -120
483 -109 494 7 7 182 41 219 42 l27 1 2 -90z"/>
</g>
</svg>
