<?xml version="1.0" standalone="no"?>
<!DOCTYPE svg PUBLIC "-//W3C//DTD SVG 20010904//EN"
 "http://www.w3.org/TR/2001/REC-SVG-20010904/DTD/svg10.dtd">
<svg version="1.0" xmlns="http://www.w3.org/2000/svg"
 width="340.000000pt" height="340.000000pt" viewBox="0 0 340.000000 340.000000"
 preserveAspectRatio="xMidYMid meet">
<metadata>
Created by potrace 1.15, written by Peter Selinger 2001-2017
</metadata>
<g transform="translate(0.000000,340.000000) scale(0.100000,-0.100000)"
fill="#000000" stroke="none">
<path d="M858 2528 c-2 -6 8 -49 24 -96 16 -46 35 -120 43 -165 16 -90 42
-423 34 -432 -3 -3 -63 -17 -133 -31 l-126 -25 -60 20 c-69 24 -132 27 -149 8
-8 -10 -4 -22 15 -48 51 -67 122 -230 143 -331 21 -101 53 -189 77 -209 21
-17 44 7 44 47 0 19 1 34 3 34 1 0 40 7 87 15 47 8 91 15 98 15 10 0 12 -38
10 -172 l-3 -171 -130 -44 c-137 -47 -320 -93 -370 -93 -52 0 -60 -12 -37 -56
11 -22 31 -49 44 -60 28 -27 101 -64 124 -64 9 0 53 24 97 54 119 79 257 150
472 243 186 81 190 82 205 62 72 -96 93 -119 116 -125 40 -10 59 16 59 80 -1
76 -27 136 -73 165 -133 88 -181 107 -197 80 -8 -12 11 -63 37 -102 15 -21 16
-28 6 -32 -143 -47 -240 -72 -244 -61 -2 6 -3 81 -2 166 l3 155 100 22 c55 12
126 27 157 33 32 6 68 20 80 31 22 18 22 19 4 34 -10 8 -23 16 -29 18 -15 5
52 153 106 235 l51 76 -60 53 c-32 29 -77 63 -100 75 l-41 21 -69 -27 c-76
-31 -152 -56 -171 -56 -30 0 -10 310 28 464 l20 79 -23 24 c-31 33 -101 68
-175 87 -73 19 -90 20 -95 4z m453 -735 c13 -35 6 -114 -22 -237 l-22 -94 -83
-21 c-46 -12 -90 -21 -99 -21 -13 0 -15 25 -15 185 l0 184 38 10 c68 17 77 19
135 20 54 1 58 -1 68 -26z m-341 -206 l0 -194 -102 -15 c-57 -9 -105 -14 -107
-12 -4 4 -48 265 -53 319 l-3 30 120 32 c66 17 126 32 133 32 9 1 12 -44 12
-192z"/>
<path d="M2269 2413 c-1 -5 -3 -87 -4 -183 -2 -195 -19 -304 -81 -508 -47
-153 -124 -362 -134 -362 -8 0 -123 188 -244 398 -27 45 -59 91 -73 102 -26
20 -140 60 -173 60 -14 0 -30 -18 -30 -34 0 -2 22 -17 49 -35 64 -41 128 -112
203 -226 65 -99 198 -361 198 -391 0 -10 -29 -57 -63 -104 -164 -221 -347
-371 -627 -513 l-135 -68 63 6 c123 12 367 112 523 214 98 64 215 174 281 263
l51 69 21 -33 c62 -102 214 -331 251 -379 24 -31 46 -66 49 -77 22 -68 127
-100 271 -83 52 6 142 11 202 12 59 0 126 6 147 12 40 12 58 34 34 41 -7 3
-56 16 -108 31 -338 94 -617 295 -760 548 l-32 58 25 57 c68 152 142 362 256
727 17 54 45 121 62 147 l31 48 -22 45 c-28 58 -107 129 -167 149 -52 18 -62
19 -64 9z"/>
<path d="M1720 2352 c-22 -18 -22 -19 -5 -53 29 -56 132 -194 170 -228 38 -33
55 -37 86 -20 37 19 42 56 19 131 -22 74 -50 102 -150 152 -68 35 -95 39 -120
18z"/>
</g>
</svg>
