<?xml version="1.0" standalone="no"?>
<!DOCTYPE svg PUBLIC "-//W3C//DTD SVG 20010904//EN"
 "http://www.w3.org/TR/2001/REC-SVG-20010904/DTD/svg10.dtd">
<svg version="1.0" xmlns="http://www.w3.org/2000/svg"
 width="340.000000pt" height="340.000000pt" viewBox="0 0 340.000000 340.000000"
 preserveAspectRatio="xMidYMid meet">
<metadata>
Created by potrace 1.15, written by Peter Selinger 2001-2017
</metadata>
<g transform="translate(0.000000,340.000000) scale(0.100000,-0.100000)"
fill="#000000" stroke="none">
<path d="M1877 2583 c-19 -19 2 -51 86 -132 164 -158 218 -201 253 -201 18 0
42 8 54 18 31 25 29 90 -5 175 -23 56 -32 68 -73 90 -26 14 -75 32 -108 41
-62 16 -195 22 -207 9z"/>
<path d="M855 2518 c-3 -7 8 -43 24 -79 37 -82 66 -196 80 -314 12 -97 15
-285 5 -285 -3 0 -63 -10 -132 -21 -105 -18 -134 -20 -175 -10 -82 19 -157 13
-157 -13 0 -6 16 -34 36 -61 49 -68 115 -202 152 -307 39 -109 57 -138 88
-138 19 0 23 6 26 37 3 37 4 37 63 50 33 7 70 12 83 13 l22 0 -2 -191 -3 -191
-65 -25 c-107 -40 -280 -82 -370 -90 -70 -7 -85 -11 -88 -26 -5 -25 51 -75
131 -117 l67 -35 32 19 c89 51 392 204 547 276 132 61 177 77 183 68 5 -7 24
-38 43 -69 53 -86 113 -101 135 -34 16 47 1 92 -55 171 -59 82 -115 124 -165
124 -20 0 -39 -3 -43 -6 -3 -4 5 -29 19 -56 14 -28 23 -52 20 -55 -7 -7 -256
-83 -272 -83 -11 0 -14 31 -14 164 0 99 4 167 10 171 5 3 78 20 162 36 83 16
155 32 160 35 15 9 8 43 -13 63 -20 18 -20 20 -3 52 27 55 88 140 143 203 29
32 50 63 48 70 -7 22 -89 76 -139 91 -82 24 -122 20 -186 -20 -61 -37 -169
-78 -176 -67 -7 11 12 302 23 362 6 30 21 86 33 124 l22 69 -30 24 c-53 43
-128 73 -197 80 -53 5 -68 3 -72 -9z m468 -743 c-1 -34 -14 -99 -30 -150 l-29
-89 -89 -28 c-49 -15 -92 -25 -97 -22 -14 9 -10 292 4 300 22 14 192 53 218
51 24 -2 25 -5 23 -62z m-353 -154 c0 -122 -3 -160 -13 -164 -28 -10 -168 -30
-174 -24 -8 8 -62 254 -63 283 0 19 11 23 113 41 61 11 118 21 125 22 9 1 12
-37 12 -158z"/>
<path d="M2430 2077 c-19 -6 -124 -39 -232 -73 -108 -35 -256 -79 -330 -99
-232 -63 -238 -65 -238 -80 0 -21 103 -39 189 -31 40 3 114 15 163 27 49 12
91 19 94 16 10 -10 34 -146 34 -199 0 -31 -5 -92 -11 -135 -11 -83 -57 -273
-69 -286 -15 -16 -170 195 -229 311 -28 56 -38 66 -84 87 -50 23 -81 28 -139
26 -36 -1 -38 -32 -3 -51 14 -7 49 -40 77 -73 64 -73 258 -317 295 -370 l27
-39 -25 -46 c-36 -69 -141 -176 -234 -237 -102 -68 -195 -112 -355 -166 -69
-23 -129 -46 -134 -50 -16 -15 118 -10 195 6 241 51 437 155 593 313 l59 61
55 -77 c60 -85 98 -132 215 -269 114 -133 172 -150 382 -115 66 11 149 23 185
27 179 18 187 46 25 90 -242 67 -583 247 -745 392 l-54 50 21 74 c12 41 33
130 48 199 33 153 61 253 86 302 10 20 19 46 19 56 0 30 -38 71 -99 105 l-56
32 75 17 c41 10 154 34 250 54 96 20 181 40 188 46 29 25 2 68 -65 102 -36 18
-119 20 -173 3z"/>
</g>
</svg>
