<?xml version="1.0" standalone="no"?>
<!DOCTYPE svg PUBLIC "-//W3C//DTD SVG 20010904//EN"
 "http://www.w3.org/TR/2001/REC-SVG-20010904/DTD/svg10.dtd">
<svg version="1.0" xmlns="http://www.w3.org/2000/svg"
 width="340.000000pt" height="340.000000pt" viewBox="0 0 340.000000 340.000000"
 preserveAspectRatio="xMidYMid meet">
<metadata>
Created by potrace 1.15, written by Peter Selinger 2001-2017
</metadata>
<g transform="translate(0.000000,340.000000) scale(0.100000,-0.100000)"
fill="#000000" stroke="none">
<path d="M2165 2887 c-17 -13 -16 -17 19 -74 86 -139 98 -256 88 -813 l-7
-395 -150 -28 c-82 -15 -250 -45 -373 -66 -122 -21 -225 -41 -229 -44 -13 -14
10 -39 54 -59 62 -27 141 -21 328 27 117 30 338 75 366 75 5 0 10 -263 11
-585 3 -606 5 -639 42 -583 9 13 25 60 36 104 39 149 51 301 57 696 l6 377 27
6 c15 3 140 9 278 14 211 6 254 10 276 24 49 32 29 75 -54 117 -103 52 -154
50 -383 -16 -65 -19 -125 -34 -133 -34 -12 0 -14 32 -14 188 0 286 19 736 36
843 18 115 12 138 -46 174 -93 59 -194 81 -235 52z"/>
<path d="M838 2710 c-24 -15 -23 -20 15 -77 60 -90 112 -296 119 -472 l3 -74
-148 -33 c-123 -26 -162 -31 -231 -27 -58 4 -85 2 -90 -6 -5 -7 16 -47 48 -95
57 -85 115 -201 146 -291 20 -59 61 -95 85 -75 8 7 15 21 15 31 0 18 18 23
143 45 l37 6 0 -181 0 -182 -44 -18 c-83 -36 -266 -91 -338 -102 -114 -17
-117 -18 -128 -39 -22 -41 15 -88 114 -146 71 -42 79 -40 195 46 110 82 270
187 396 262 171 101 151 97 170 30 23 -83 64 -178 84 -196 25 -23 45 -12 67
36 28 63 24 141 -13 219 -33 72 -117 177 -157 199 -40 21 -48 5 -35 -66 6 -32
12 -65 13 -71 2 -19 -224 -126 -230 -110 -2 7 -3 87 -2 177 l3 164 151 37
c154 38 235 67 249 90 9 14 -37 59 -61 59 -8 0 -14 5 -14 12 0 21 78 115 145
174 36 33 65 64 65 70 0 21 -69 90 -117 116 -84 46 -117 46 -209 0 -105 -53
-203 -92 -208 -84 -7 13 13 219 29 294 22 107 20 160 -7 185 -70 65 -220 118
-260 93z m482 -595 c22 -27 7 -150 -27 -226 -30 -66 -32 -67 -113 -108 -45
-22 -89 -41 -96 -41 -11 0 -14 29 -14 151 l0 151 32 11 c17 7 63 26 102 43 82
37 99 40 116 19z m-340 -248 l0 -153 -87 -21 c-49 -12 -89 -20 -90 -19 -9 9
-85 277 -80 282 7 7 214 62 240 63 15 1 17 -13 17 -152z"/>
<path d="M1794 2396 c-11 -28 132 -180 201 -213 65 -31 114 8 101 81 -16 82
-98 137 -218 144 -65 4 -79 2 -84 -12z"/>
<path d="M1786 1971 c-8 -13 -3 -23 44 -81 118 -144 166 -180 214 -158 17 7
28 22 32 44 14 76 -24 138 -106 173 -59 26 -174 39 -184 22z"/>
</g>
</svg>
