<?xml version="1.0" standalone="no"?>
<!DOCTYPE svg PUBLIC "-//W3C//DTD SVG 20010904//EN"
 "http://www.w3.org/TR/2001/REC-SVG-20010904/DTD/svg10.dtd">
<svg version="1.0" xmlns="http://www.w3.org/2000/svg"
 width="340.000000pt" height="340.000000pt" viewBox="0 0 340.000000 340.000000"
 preserveAspectRatio="xMidYMid meet">
<metadata>
Created by potrace 1.15, written by Peter Selinger 2001-2017
</metadata>
<g transform="translate(0.000000,340.000000) scale(0.100000,-0.100000)"
fill="#000000" stroke="none">
<path d="M870 2495 c0 -9 16 -63 35 -118 41 -121 63 -248 72 -412 l6 -121
-139 -31 c-109 -24 -154 -30 -209 -26 -68 5 -125 -7 -125 -26 0 -5 18 -30 39
-56 30 -36 55 -89 101 -214 89 -240 100 -255 132 -187 11 23 25 35 45 39 15 3
56 12 91 21 l62 14 0 -210 0 -209 -87 -41 c-124 -57 -306 -115 -385 -123 -44
-5 -68 -12 -68 -20 0 -42 107 -110 194 -121 43 -6 52 -3 178 73 184 111 251
149 416 236 l143 75 25 -49 c32 -63 58 -89 89 -89 36 0 48 38 40 127 -6 64
-11 78 -45 120 -64 81 -151 142 -184 130 -22 -9 -20 -24 14 -107 17 -40 28
-76 24 -79 -3 -3 -59 -24 -125 -47 l-119 -40 0 198 c0 197 0 198 23 203 174
39 335 79 345 87 18 15 15 42 -8 63 -11 10 -20 25 -20 33 0 27 60 120 120 187
33 36 60 69 60 74 0 20 -105 101 -156 120 -30 12 -60 21 -66 21 -7 0 -64 -24
-127 -54 -64 -30 -127 -57 -140 -61 l-24 -7 6 153 c7 160 15 214 43 312 17 57
17 57 -5 81 -42 45 -138 88 -207 94 -56 4 -64 3 -64 -13z m471 -671 c10 -28
-7 -153 -33 -243 -13 -43 -14 -43 -111 -81 l-97 -38 0 167 0 167 103 26 c130
33 126 33 138 2z m-351 -213 c0 -153 -2 -170 -17 -175 -10 -3 -58 -13 -106
-22 -70 -13 -91 -14 -97 -5 -7 13 -51 262 -50 293 0 13 27 23 123 46 67 17
128 31 135 31 9 1 12 -39 12 -168z"/>
<path d="M2350 2335 c-64 -34 -239 -90 -347 -111 -92 -18 -93 -18 -155 4 -71
25 -116 28 -142 9 -16 -12 -15 -18 19 -89 61 -129 64 -164 65 -810 l0 -576
-27 -6 c-109 -23 -285 -48 -373 -53 -58 -3 -116 -10 -129 -15 -20 -7 -21 -10
-10 -25 8 -9 47 -32 88 -51 l74 -34 126 31 c141 34 304 64 461 83 162 20 622
17 795 -6 178 -22 209 -20 213 16 4 33 -45 91 -102 120 -58 31 -197 36 -317
13 -49 -10 -93 -15 -96 -11 -6 6 19 617 38 926 12 200 18 228 77 353 l46 97
-34 35 c-31 32 -158 105 -205 118 -12 4 -39 -4 -65 -18z m-23 -155 c41 0 47
-56 47 -380 -1 -261 -13 -593 -32 -895 l-7 -100 -175 -12 c-96 -6 -190 -14
-207 -17 l-33 -5 0 228 0 228 82 7 c102 8 209 32 234 52 18 14 18 15 -5 34
-37 32 -67 34 -134 12 -34 -11 -88 -23 -119 -27 l-58 -7 0 180 0 181 58 5
c236 24 282 35 282 67 0 10 -13 25 -28 33 -54 28 -93 28 -181 1 -47 -14 -95
-25 -108 -25 l-23 0 2 192 3 193 95 22 c105 25 234 43 265 37 11 -2 30 -4 42
-4z"/>
</g>
</svg>
