<?xml version="1.0" standalone="no"?>
<!DOCTYPE svg PUBLIC "-//W3C//DTD SVG 20010904//EN"
 "http://www.w3.org/TR/2001/REC-SVG-20010904/DTD/svg10.dtd">
<svg version="1.0" xmlns="http://www.w3.org/2000/svg"
 width="340.000000pt" height="340.000000pt" viewBox="0 0 340.000000 340.000000"
 preserveAspectRatio="xMidYMid meet">
<metadata>
Created by potrace 1.15, written by Peter Selinger 2001-2017
</metadata>
<g transform="translate(0.000000,340.000000) scale(0.100000,-0.100000)"
fill="#000000" stroke="none">
<path d="M2053 2634 c-19 -8 -16 -70 7 -141 10 -34 26 -108 34 -165 15 -101
32 -358 25 -358 -13 -1 -323 -80 -326 -84 -3 -3 -2 -9 1 -15 12 -19 102 -29
219 -24 l117 6 0 -160 0 -160 -117 -26 c-65 -15 -183 -38 -262 -52 -163 -28
-181 -33 -181 -45 0 -31 263 -32 403 -2 82 17 88 17 102 1 26 -28 36 -79 42
-209 l6 -125 -54 -17 c-30 -9 -117 -29 -195 -43 -77 -15 -146 -30 -154 -35
-23 -14 6 -38 65 -51 52 -11 229 -7 303 7 l32 6 0 -134 0 -134 -252 -37 c-139
-21 -320 -44 -403 -53 -184 -19 -195 -21 -195 -38 0 -19 27 -40 96 -74 l60
-30 210 43 c496 103 813 125 1171 78 146 -19 158 -16 150 34 -8 45 -46 86
-106 112 -75 32 -149 35 -326 12 -88 -11 -187 -21 -220 -23 l-60 -3 0 135 0
135 55 13 c275 67 362 125 258 172 -55 25 -67 25 -152 -4 -39 -14 -88 -28
-108 -31 l-38 -7 0 53 c0 30 7 83 15 118 9 36 13 71 10 79 -2 7 -37 28 -77 46
l-72 34 55 11 c76 15 235 38 359 51 58 6 120 15 139 20 66 18 103 79 66 110
-47 39 -157 29 -355 -30 -73 -22 -138 -40 -146 -40 -12 0 -14 27 -12 162 l3
163 45 9 c182 34 303 74 314 102 13 35 -19 56 -110 70 -32 5 -57 0 -118 -25
-117 -47 -116 -47 -116 53 0 101 14 211 42 326 l20 85 -43 37 c-72 62 -187
109 -226 92z"/>
<path d="M901 2452 c-11 -8 -6 -24 23 -83 56 -116 86 -264 86 -431 l0 -77 -52
-10 c-29 -5 -91 -17 -137 -26 -66 -13 -92 -14 -127 -6 -47 12 -104 14 -128 5
-17 -7 -9 -37 24 -82 11 -15 49 -112 85 -217 37 -104 74 -198 83 -208 23 -26
56 -18 60 15 4 30 13 33 120 44 l72 7 -2 -178 -3 -178 -70 -30 c-166 -69 -270
-96 -462 -123 -17 -3 -34 -11 -37 -20 -7 -17 9 -53 33 -72 34 -28 153 -80 169
-74 10 3 47 25 83 48 64 42 388 229 541 313 l77 42 41 -80 c42 -84 66 -107
105 -97 33 9 40 54 21 145 -17 82 -37 110 -115 162 -47 30 -98 38 -107 16 -3
-8 4 -35 16 -62 11 -26 18 -50 15 -53 -3 -3 -50 -22 -105 -43 l-100 -36 0 172
0 173 158 37 c187 45 212 53 212 71 0 7 -12 21 -26 30 -20 14 -24 22 -19 43
11 43 71 133 135 203 33 36 60 71 60 76 0 36 -185 132 -252 132 -19 0 -79 -23
-147 -55 -62 -30 -115 -55 -117 -55 -2 0 -4 35 -4 78 0 88 22 237 45 301 8 24
15 54 15 67 0 27 -39 67 -93 95 -42 22 -154 35 -176 21z m473 -632 c-1 -34
-16 -104 -39 -177 l-38 -121 -76 -21 c-42 -12 -84 -24 -94 -27 -16 -5 -17 6
-15 173 l3 178 105 27 c58 15 116 26 130 25 24 -2 25 -5 24 -57z m-364 -189
c0 -94 -3 -172 -7 -174 -14 -9 -182 -41 -187 -36 -7 6 -59 319 -55 323 3 3
219 52 242 55 4 1 7 -75 7 -168z"/>
</g>
</svg>
