<?xml version="1.0" standalone="no"?>
<!DOCTYPE svg PUBLIC "-//W3C//DTD SVG 20010904//EN"
 "http://www.w3.org/TR/2001/REC-SVG-20010904/DTD/svg10.dtd">
<svg version="1.0" xmlns="http://www.w3.org/2000/svg"
 width="340.000000pt" height="340.000000pt" viewBox="0 0 340.000000 340.000000"
 preserveAspectRatio="xMidYMid meet">
<metadata>
Created by potrace 1.15, written by Peter Selinger 2001-2017
</metadata>
<g transform="translate(0.000000,340.000000) scale(0.100000,-0.100000)"
fill="#000000" stroke="none">
<path d="M1857 2527 c-7 -137 -41 -286 -102 -454 -60 -163 -196 -427 -296
-576 -141 -208 -153 -227 -146 -233 14 -15 84 36 169 124 155 160 304 405 423
698 27 65 52 123 55 127 9 10 82 -86 240 -318 224 -328 298 -421 355 -453 36
-20 188 -22 360 -3 186 20 187 26 14 97 -239 97 -341 157 -478 283 -161 147
-441 471 -441 509 0 10 16 42 35 72 19 30 44 75 57 99 l23 43 -39 34 c-57 49
-115 74 -173 74 l-50 0 -6 -123z"/>
<path d="M793 2538 c3 -18 18 -67 33 -108 27 -72 28 -84 32 -306 l4 -231 -118
-34 c-99 -28 -136 -34 -219 -34 -137 0 -148 -9 -93 -75 34 -40 59 -94 138
-300 26 -68 54 -129 62 -134 22 -13 46 -1 66 34 17 30 39 40 125 56 l37 6 0
-160 0 -159 -93 -36 c-101 -39 -231 -78 -347 -105 -51 -12 -76 -22 -78 -33 -1
-9 17 -38 42 -66 49 -54 133 -98 170 -89 12 3 55 31 96 61 97 74 265 173 415
247 l120 59 19 -28 c11 -15 37 -45 58 -66 28 -30 43 -38 65 -35 23 2 30 10 37
39 16 64 0 109 -60 167 -65 63 -139 112 -171 112 -19 0 -23 -5 -23 -33 0 -21
8 -41 20 -52 11 -10 20 -24 20 -31 0 -10 -166 -74 -193 -74 -4 0 -6 69 -5 153
l3 152 165 41 c91 22 171 43 178 48 16 10 15 46 -2 65 -23 26 30 128 109 210
l65 68 -22 33 c-26 37 -116 91 -195 117 l-52 16 -68 -41 c-71 -43 -114 -62
-139 -62 -32 0 -8 280 38 454 l21 80 -34 29 c-53 45 -127 77 -183 77 l-48 0 5
-32z m395 -670 c7 -7 12 -23 12 -36 0 -38 -40 -225 -51 -239 -6 -6 -43 -25
-82 -41 -125 -52 -112 -64 -109 111 2 101 7 156 15 164 36 37 190 66 215 41z
m-332 -374 c-7 -18 -166 -40 -176 -24 -17 27 -72 262 -64 270 5 5 61 22 124
37 l115 29 3 -150 c1 -83 1 -155 -2 -162z"/>
<path d="M2040 1629 c-116 -33 -301 -95 -333 -111 -21 -10 -35 -23 -32 -28 32
-52 393 -32 533 30 38 17 43 23 40 46 -6 52 -124 87 -208 63z"/>
<path d="M2168 1210 c-66 -36 -264 -78 -493 -104 -16 -2 -54 3 -85 10 -30 7
-74 13 -97 14 -49 0 -55 -15 -24 -58 42 -61 60 -114 85 -257 55 -311 78 -385
117 -370 23 9 39 49 39 95 0 38 1 39 43 44 23 3 156 13 296 22 316 20 345 24
349 47 4 18 -51 80 -78 89 -19 6 51 129 125 218 99 119 96 107 45 152 -25 21
-78 55 -117 75 -90 45 -153 52 -205 23z m40 -127 c4 -10 7 -61 6 -113 -1 -117
-29 -201 -74 -225 -28 -15 -277 -68 -377 -81 -49 -6 -52 -5 -58 17 -7 32 -62
333 -61 336 3 4 210 46 311 63 151 25 243 26 253 3z"/>
</g>
</svg>
