<?xml version="1.0" standalone="no"?>
<!DOCTYPE svg PUBLIC "-//W3C//DTD SVG 20010904//EN"
 "http://www.w3.org/TR/2001/REC-SVG-20010904/DTD/svg10.dtd">
<svg version="1.0" xmlns="http://www.w3.org/2000/svg"
 width="340.000000pt" height="340.000000pt" viewBox="0 0 340.000000 340.000000"
 preserveAspectRatio="xMidYMid meet">
<metadata>
Created by potrace 1.15, written by Peter Selinger 2001-2017
</metadata>
<g transform="translate(0.000000,340.000000) scale(0.100000,-0.100000)"
fill="#000000" stroke="none">
<path d="M1827 2979 c-4 -13 -7 -41 -7 -63 0 -107 -84 -300 -219 -504 -82
-123 -97 -162 -63 -162 23 0 56 23 114 78 45 43 48 44 80 33 18 -6 65 -30 105
-53 66 -38 71 -43 61 -62 -6 -12 -68 -77 -137 -146 -133 -132 -243 -216 -430
-327 -62 -37 -107 -69 -98 -71 23 -5 200 64 297 114 157 82 327 218 442 353
l46 54 174 -120 c95 -66 222 -153 282 -193 l109 -74 101 1 c101 1 296 26 342
43 31 12 32 48 2 55 -13 2 -70 14 -128 25 -189 38 -423 126 -693 261 l-127 64
66 83 c36 45 117 134 180 198 63 63 114 118 114 123 0 25 -156 121 -197 121
-6 0 -25 -11 -41 -25 -16 -14 -53 -36 -83 -49 -54 -25 -184 -54 -195 -43 -6 6
49 103 99 172 l28 40 -22 18 c-47 38 -107 67 -151 73 -41 6 -46 4 -51 -17z
m315 -411 c-50 -83 -159 -238 -168 -238 -9 0 -214 105 -214 110 0 3 25 39 56
80 l57 75 83 12 c45 7 116 21 156 31 40 11 75 18 77 16 1 -1 -20 -40 -47 -86z"/>
<path d="M800 2830 c-13 -8 -10 -18 16 -72 51 -103 68 -199 69 -388 l0 -164
-128 -22 c-111 -18 -134 -19 -165 -8 -60 21 -142 15 -142 -11 0 -7 11 -24 25
-39 14 -15 34 -44 44 -64 26 -52 78 -218 86 -277 15 -107 87 -164 109 -85 5
19 11 37 12 39 3 4 123 30 142 31 9 0 12 -46 12 -198 l0 -197 -97 -27 c-87
-24 -222 -53 -335 -72 -49 -9 -66 -37 -43 -72 19 -29 76 -67 128 -85 36 -13
42 -12 90 15 169 93 288 151 412 199 195 76 176 74 213 22 31 -44 59 -56 89
-37 18 12 33 59 33 107 0 75 -100 181 -180 192 -51 7 -57 -8 -31 -68 33 -71
31 -74 -61 -105 -46 -15 -89 -29 -95 -32 -10 -3 -13 39 -13 191 l0 195 93 16
c50 9 128 21 172 26 45 6 86 16 94 25 13 13 12 18 -14 45 l-29 31 19 36 c11
21 45 64 76 98 71 76 83 98 69 125 -30 57 -188 128 -245 111 -17 -5 -70 -25
-119 -45 -48 -21 -91 -35 -94 -32 -9 9 17 263 34 336 8 36 17 86 20 111 6 44
5 46 -40 86 -69 61 -181 92 -226 63z m435 -705 c-1 -33 -11 -94 -24 -136 l-23
-76 -88 -27 c-49 -14 -91 -26 -94 -26 -4 0 -6 65 -6 143 l0 144 73 21 c39 11
92 20 117 19 l45 -2 0 -60z m-345 -143 l0 -149 -86 -15 c-84 -14 -86 -14 -93
6 -14 35 -52 258 -46 264 6 6 169 39 203 41 22 1 22 0 22 -147z"/>
<path d="M1851 1991 c-11 -7 -10 -15 9 -41 25 -35 50 -110 50 -149 0 -29 17
-24 -295 -89 -38 -8 -74 -18 -79 -22 -4 -5 18 -14 50 -20 56 -12 137 -10 272
6 l52 7 0 -81 0 -81 -37 -10 c-20 -6 -80 -20 -132 -32 -99 -22 -129 -38 -116
-59 8 -13 143 -9 243 6 l42 7 0 -95 0 -94 -197 -38 c-109 -20 -262 -45 -341
-55 -79 -10 -148 -23 -154 -29 -20 -20 10 -39 95 -62 80 -22 84 -22 157 -6
132 30 434 96 437 96 1 0 2 -141 2 -313 0 -310 2 -357 23 -450 13 -61 37 -60
55 3 15 50 30 274 39 572 l6 196 52 8 c28 4 173 7 321 6 271 0 341 6 352 34 9
25 -27 65 -85 92 -54 25 -66 27 -202 27 -119 -1 -167 -5 -271 -28 -183 -39
-169 -45 -169 66 l0 94 167 26 c91 15 172 32 180 38 22 19 15 39 -22 55 -46
19 -94 18 -195 -6 -47 -11 -95 -22 -107 -25 -22 -5 -23 -3 -23 78 l0 84 113
22 c61 12 141 30 176 39 103 27 106 66 6 93 -30 9 -51 8 -85 -1 -25 -7 -82
-20 -127 -30 l-83 -17 0 27 c0 15 7 47 15 70 8 23 15 44 15 45 0 1 -22 12 -49
24 -51 22 -135 28 -160 12z"/>
</g>
</svg>
