<?xml version="1.0" standalone="no"?>
<!DOCTYPE svg PUBLIC "-//W3C//DTD SVG 20010904//EN"
 "http://www.w3.org/TR/2001/REC-SVG-20010904/DTD/svg10.dtd">
<svg version="1.0" xmlns="http://www.w3.org/2000/svg"
 width="340.000000pt" height="340.000000pt" viewBox="0 0 340.000000 340.000000"
 preserveAspectRatio="xMidYMid meet">
<metadata>
Created by potrace 1.15, written by Peter Selinger 2001-2017
</metadata>
<g transform="translate(0.000000,340.000000) scale(0.100000,-0.100000)"
fill="#000000" stroke="none">
<path d="M883 2533 c-18 -7 -16 -27 12 -108 33 -95 52 -211 66 -400 9 -121 9
-159 0 -164 -23 -15 -209 -44 -232 -37 -113 32 -138 36 -163 26 -14 -5 -26
-16 -26 -24 0 -8 21 -53 46 -101 55 -105 86 -186 114 -296 27 -110 39 -138 62
-150 30 -16 48 6 48 57 0 39 3 44 28 50 15 3 43 10 62 15 74 19 70 28 70 -161
l0 -169 -32 -9 c-18 -5 -83 -27 -143 -50 -61 -22 -149 -50 -195 -61 -118 -30
-132 -37 -128 -64 2 -16 21 -31 68 -54 98 -49 115 -50 180 -10 144 91 539 311
545 305 2 -2 19 -36 39 -77 55 -114 90 -140 115 -85 53 116 -4 235 -143 300
-83 39 -96 28 -50 -40 14 -21 22 -41 18 -45 -11 -9 -151 -61 -165 -61 -6 0 -8
59 -7 152 l3 152 137 27 c187 36 238 69 188 119 l-21 21 25 55 c14 31 50 79
81 110 85 85 90 95 64 128 -20 26 -158 98 -211 111 -20 5 -42 -2 -90 -28 -35
-20 -87 -45 -117 -57 l-54 -21 7 87 c3 48 16 150 27 228 37 253 39 229 -17
270 -73 53 -164 79 -211 59z m430 -707 c10 -15 0 -73 -32 -181 l-27 -90 -62
-17 c-34 -9 -75 -19 -92 -23 l-31 -7 3 148 3 149 85 17 c46 10 89 20 95 22 14
6 49 -5 58 -18z m-343 -191 c0 -142 -1 -146 -22 -154 -44 -16 -128 -35 -133
-29 -9 9 -56 290 -50 297 8 7 127 28 173 30 l32 1 0 -145z"/>
<path d="M2110 2479 c-137 -44 -283 -78 -345 -79 -22 -1 -69 6 -104 15 -75 19
-111 14 -111 -15 0 -11 15 -51 34 -88 40 -80 79 -204 101 -322 22 -124 67
-174 99 -111 18 33 15 32 283 82 172 31 236 50 265 76 23 21 23 52 -2 78 -19
20 -19 21 19 65 21 25 75 72 120 105 44 32 81 63 81 67 0 23 -90 102 -147 129
-97 46 -144 46 -293 -2z m105 -184 c-1 -67 -5 -89 -29 -135 -39 -78 -61 -98
-133 -120 -78 -24 -243 -53 -252 -45 -3 4 -10 76 -16 161 l-10 153 45 10 c42
9 232 45 290 54 14 3 43 4 65 3 l40 -1 0 -80z"/>
<path d="M2230 1783 c-14 -3 -119 -28 -235 -58 -115 -29 -247 -58 -292 -65
-45 -7 -90 -18 -100 -25 -17 -12 -16 -14 12 -25 56 -21 140 -32 206 -27 l67 6
6 -53 c6 -43 -8 -224 -18 -233 -6 -6 -214 -33 -327 -42 -185 -15 -193 -22 -91
-77 74 -40 108 -42 218 -13 43 12 103 28 133 35 l53 13 -5 -35 c-7 -44 -65
-178 -109 -252 -18 -30 -76 -99 -128 -152 -97 -99 -178 -158 -309 -226 -72
-38 -103 -66 -88 -80 4 -4 46 1 94 11 154 32 380 163 476 275 47 56 117 192
152 298 l27 84 95 -143 c179 -268 314 -439 372 -468 73 -37 135 -44 325 -37
100 3 196 9 214 12 71 14 25 49 -128 99 -275 89 -412 170 -629 371 -66 60
-221 233 -221 245 0 4 42 10 93 14 50 3 155 13 232 21 77 8 221 19 321 24 189
10 214 14 214 35 0 17 -79 89 -121 110 -46 24 -157 15 -319 -25 -155 -39 -403
-90 -409 -85 -2 3 6 31 18 63 31 87 28 143 -10 187 -17 19 -29 35 -27 35 35 0
319 64 363 81 77 31 89 52 52 85 -24 20 -38 24 -90 23 -34 -1 -73 -4 -87 -6z"/>
</g>
</svg>
