<?xml version="1.0" standalone="no"?>
<!DOCTYPE svg PUBLIC "-//W3C//DTD SVG 20010904//EN"
 "http://www.w3.org/TR/2001/REC-SVG-20010904/DTD/svg10.dtd">
<svg version="1.0" xmlns="http://www.w3.org/2000/svg"
 width="340.000000pt" height="340.000000pt" viewBox="0 0 340.000000 340.000000"
 preserveAspectRatio="xMidYMid meet">
<metadata>
Created by potrace 1.15, written by Peter Selinger 2001-2017
</metadata>
<g transform="translate(0.000000,340.000000) scale(0.100000,-0.100000)"
fill="#000000" stroke="none">
<path d="M863 2510 c-29 -12 -29 -20 1 -79 51 -99 86 -308 86 -508 l0 -82 -97
-30 c-125 -38 -118 -37 -184 -22 -71 17 -136 5 -131 -24 2 -10 19 -37 38 -58
45 -53 90 -166 121 -301 13 -61 32 -124 42 -141 30 -52 71 -43 71 16 0 24 5
27 48 34 26 3 57 9 70 12 l22 5 -2 -168 -3 -169 -90 -38 c-125 -54 -227 -86
-312 -99 -81 -12 -89 -23 -57 -78 17 -28 117 -100 138 -100 7 0 39 16 72 37
146 90 558 333 564 333 4 0 12 -17 18 -37 19 -60 65 -137 85 -141 37 -7 47 16
47 106 l0 86 -74 73 c-67 66 -117 95 -133 79 -4 -4 1 -29 11 -57 10 -27 17
-51 15 -53 -5 -4 -171 -76 -176 -76 -2 0 -3 74 -3 165 l0 164 38 10 c20 6 78
20 127 32 150 37 202 74 135 98 -35 12 -36 20 -11 92 27 80 63 147 115 213 25
33 46 65 46 72 0 17 -54 58 -110 83 -67 30 -117 27 -182 -11 -69 -42 -137 -73
-144 -65 -9 8 15 294 30 362 7 33 19 82 27 109 l14 48 -30 24 c-41 33 -142 81
-185 88 -19 2 -45 1 -57 -4z m401 -696 c11 -27 7 -66 -20 -201 l-26 -131 -72
-26 c-39 -14 -77 -26 -83 -26 -10 0 -13 43 -13 180 l0 179 38 10 c20 5 53 14
72 19 55 16 97 14 104 -4z m-314 -238 l0 -184 -70 -17 c-39 -10 -73 -16 -75
-13 -7 7 -57 338 -52 351 3 11 128 44 175 46 l22 1 0 -184z"/>
<path d="M1747 2408 c10 -132 -27 -277 -121 -471 -30 -62 -79 -152 -110 -201
-55 -86 -66 -116 -46 -116 11 0 88 77 127 127 21 28 28 31 49 22 14 -5 36 -9
50 -9 43 0 57 -53 52 -198 -3 -68 -9 -127 -15 -133 -7 -7 -249 -72 -387 -104
-47 -10 -13 -31 81 -49 87 -16 90 -16 277 41 17 5 18 1 13 -34 -23 -143 -108
-348 -197 -478 -59 -85 -169 -193 -257 -253 -60 -41 -93 -72 -76 -72 6 0 36 9
68 20 141 49 342 227 436 386 61 104 112 235 140 362 23 102 23 102 59 112 19
6 96 27 170 48 74 20 141 41 148 45 24 16 12 38 -30 57 -58 27 -116 25 -175
-4 -54 -27 -131 -52 -138 -44 -6 6 22 178 34 211 12 31 -15 60 -74 80 l-40 14
60 12 c179 36 341 89 370 121 23 25 10 43 -50 66 -58 22 -93 15 -235 -51 -119
-54 -260 -108 -266 -102 -2 2 8 19 22 38 41 55 145 233 224 386 l74 142 -23
25 c-30 32 -109 66 -171 73 l-49 6 6 -75z"/>
<path d="M2695 1833 c-38 -30 -180 -91 -253 -108 -59 -14 -81 -15 -117 -6 -56
14 -120 14 -146 0 -20 -10 -20 -11 6 -45 33 -43 69 -124 83 -189 7 -27 16
-151 22 -275 9 -218 22 -326 41 -362 5 -10 21 -18 34 -18 29 0 51 36 61 98 l6
40 127 12 c197 19 302 37 319 54 14 14 14 17 -4 37 -10 11 -31 27 -45 35 l-27
13 14 71 c26 140 66 267 114 369 l50 103 -20 28 c-34 48 -100 101 -164 131
-70 33 -74 34 -101 12z m16 -190 c18 -56 13 -237 -11 -403 -12 -80 -24 -148
-28 -151 -8 -7 -234 -50 -239 -46 -1 2 -12 130 -24 286 -15 199 -18 286 -11
293 15 15 198 56 254 57 45 1 47 0 59 -36z"/>
<path d="M1846 1074 c-15 -15 -15 -20 10 -63 39 -67 108 -164 188 -263 57 -71
76 -88 98 -88 45 0 61 26 55 89 -9 99 -31 135 -129 217 -124 104 -193 137
-222 108z"/>
</g>
</svg>
