<?xml version="1.0" standalone="no"?>
<!DOCTYPE svg PUBLIC "-//W3C//DTD SVG 20010904//EN"
 "http://www.w3.org/TR/2001/REC-SVG-20010904/DTD/svg10.dtd">
<svg version="1.0" xmlns="http://www.w3.org/2000/svg"
 width="340.000000pt" height="340.000000pt" viewBox="0 0 340.000000 340.000000"
 preserveAspectRatio="xMidYMid meet">
<metadata>
Created by potrace 1.15, written by Peter Selinger 2001-2017
</metadata>
<g transform="translate(0.000000,340.000000) scale(0.100000,-0.100000)"
fill="#000000" stroke="none">
<path d="M2319 2773 c-1 -5 -3 -51 -4 -103 -2 -150 -52 -294 -176 -511 -62
-107 -63 -109 -85 -94 -32 21 -116 19 -194 -4 -122 -37 -455 -153 -467 -163
-7 -6 -13 -17 -13 -24 0 -11 23 -14 111 -14 l111 0 -7 -42 c-4 -24 -20 -86
-36 -138 -90 -304 -233 -528 -501 -784 -104 -99 -147 -146 -133 -145 110 3
389 245 543 472 69 101 184 317 213 400 7 20 16 37 19 37 11 0 57 -55 74 -87
26 -52 29 -111 11 -207 -33 -178 -95 -333 -156 -392 l-29 -27 -85 13 c-47 7
-88 11 -91 7 -3 -3 15 -30 39 -60 25 -31 62 -85 82 -121 24 -43 43 -66 54 -66
27 0 102 61 148 121 45 58 78 147 128 344 16 61 30 112 31 114 2 2 15 -4 30
-14 44 -28 134 -29 277 -2 116 22 129 22 135 8 4 -9 7 -104 6 -211 0 -208 -11
-283 -56 -395 -29 -73 -43 -78 -190 -63 -59 6 -111 8 -115 5 -3 -4 20 -34 51
-68 31 -33 79 -94 107 -135 55 -82 66 -86 135 -55 84 38 152 138 189 276 26
96 31 380 11 543 -10 74 -14 137 -11 140 4 4 132 9 285 12 316 6 326 8 268 63
-62 58 -122 82 -208 80 -41 0 -106 -8 -145 -17 -38 -10 -103 -23 -143 -30 -66
-12 -74 -12 -79 3 -3 9 -16 42 -28 73 l-22 57 36 34 c69 65 144 118 226 157
45 22 85 43 88 46 11 11 -31 80 -65 109 -18 15 -56 39 -84 53 l-52 25 -93 -40
c-125 -54 -183 -73 -309 -98 -120 -24 -131 -37 -60 -72 58 -30 88 -29 168 6
87 38 215 81 242 81 49 0 27 -54 -82 -202 l-49 -67 -37 19 c-20 11 -49 20 -64
20 -40 0 -37 -27 12 -108 22 -37 42 -82 46 -99 l6 -31 -68 -15 c-126 -28 -285
-57 -316 -57 -29 0 -30 2 -24 33 3 17 17 54 31 80 14 27 25 55 25 63 0 54
-126 142 -258 180 -10 3 -9 11 3 40 22 52 19 76 -14 121 l-29 40 110 27 c61
15 147 42 191 59 74 29 91 41 181 129 l100 98 107 0 c121 0 242 20 338 56 109
41 133 82 64 111 -51 21 -122 11 -235 -32 -91 -35 -193 -65 -222 -65 -17 0 11
49 152 262 92 140 93 145 51 180 -48 40 -196 85 -200 61z"/>
<path d="M875 2675 c-5 -2 -22 -6 -37 -9 l-28 -6 29 -53 c52 -92 61 -143 61
-333 l0 -173 -34 -9 c-143 -40 -187 -46 -244 -34 -54 11 -122 16 -122 9 0 -2
24 -50 53 -108 29 -58 70 -159 91 -224 67 -212 91 -245 118 -163 12 39 17 43
63 55 28 7 56 13 63 13 9 0 12 -40 12 -169 l0 -168 -79 -37 c-103 -46 -218
-84 -303 -98 -80 -13 -84 -23 -38 -86 28 -39 119 -102 149 -102 7 0 34 15 60
33 362 262 483 348 486 345 1 -2 8 -23 16 -47 18 -56 36 -68 86 -55 50 12 68
47 54 102 -15 53 -148 192 -184 192 -34 0 -41 -26 -22 -80 8 -23 15 -46 15
-50 0 -7 -124 -80 -135 -80 -3 0 -5 74 -5 164 l0 165 58 11 c159 32 252 67
252 95 0 8 -14 22 -30 30 l-31 16 31 57 c17 31 57 91 90 132 33 41 64 87 69
102 9 26 7 30 -34 54 -25 14 -73 31 -108 37 -58 9 -68 8 -103 -10 -52 -27
-174 -67 -181 -59 -10 10 15 232 39 348 22 106 22 107 2 129 -35 39 -142 78
-179 64z m326 -602 c24 -62 -21 -244 -70 -286 -9 -8 -36 -22 -61 -32 -25 -9
-51 -19 -58 -22 -10 -4 -12 29 -10 158 l3 164 85 22 c107 28 99 28 111 -4z
m-303 -210 l-3 -167 -57 -14 c-32 -8 -64 -12 -71 -9 -8 3 -19 56 -31 148 -10
79 -19 148 -20 153 -1 8 136 50 177 55 4 1 6 -74 5 -166z"/>
<path d="M1612 2571 c-26 -16 -15 -50 51 -147 89 -132 119 -164 155 -164 46 0
67 32 66 99 0 92 -7 105 -78 149 -103 66 -161 84 -194 63z"/>
</g>
</svg>
