<?xml version="1.0" standalone="no"?>
<!DOCTYPE svg PUBLIC "-//W3C//DTD SVG 20010904//EN"
 "http://www.w3.org/TR/2001/REC-SVG-20010904/DTD/svg10.dtd">
<svg version="1.0" xmlns="http://www.w3.org/2000/svg"
 width="340.000000pt" height="340.000000pt" viewBox="0 0 340.000000 340.000000"
 preserveAspectRatio="xMidYMid meet">
<metadata>
Created by potrace 1.15, written by Peter Selinger 2001-2017
</metadata>
<g transform="translate(0.000000,340.000000) scale(0.100000,-0.100000)"
fill="#000000" stroke="none">
<path d="M2201 2851 c-11 -7 -10 -20 4 -77 13 -53 16 -91 11 -163 -3 -52 -9
-98 -13 -102 -6 -6 -320 -49 -354 -49 -4 0 -8 36 -11 79 -7 122 -31 144 -173
157 -95 8 -99 -4 -29 -78 64 -69 122 -164 108 -178 -5 -5 -92 -19 -194 -31
-102 -12 -196 -26 -210 -31 l-25 -10 23 -18 c12 -10 42 -26 66 -35 40 -15 48
-15 102 -1 105 28 254 59 260 54 2 -3 9 -31 14 -63 10 -59 23 -85 45 -85 19 0
25 24 25 106 0 56 3 74 14 74 7 0 80 9 161 20 82 11 150 18 152 16 5 -4 -64
-164 -83 -194 -28 -43 -9 -44 42 -4 58 45 102 99 132 159 25 48 25 49 207 63
72 6 144 13 160 16 71 15 78 38 20 74 -42 26 -123 26 -234 0 -46 -11 -86 -19
-88 -16 -2 2 19 47 46 100 28 53 51 105 51 116 0 50 -183 131 -229 101z"/>
<path d="M816 2631 c-4 -5 7 -43 24 -83 40 -100 60 -226 60 -373 l0 -121 -117
-22 c-112 -20 -121 -20 -180 -5 -111 28 -141 0 -82 -73 40 -50 99 -174 135
-288 32 -99 67 -148 89 -125 7 8 17 34 22 58 8 41 11 45 53 57 74 22 70 32 70
-155 l0 -169 -47 -17 c-27 -9 -124 -40 -218 -69 -150 -46 -170 -55 -173 -74
-5 -33 49 -79 114 -98 63 -18 52 -23 264 113 69 44 185 115 259 158 127 72
136 76 148 58 59 -81 87 -68 88 44 0 46 -20 73 -89 124 -68 50 -84 31 -45 -56
11 -25 19 -48 17 -50 -3 -4 -218 -85 -224 -85 -7 0 -4 214 2 263 7 53 6 52
193 102 52 13 102 32 110 40 14 14 14 19 -2 47 -18 31 -17 31 9 71 15 23 56
72 91 109 74 79 73 82 -11 125 -63 32 -153 42 -187 20 -33 -21 -180 -79 -186
-73 -6 6 6 96 39 308 l22 137 -23 25 c-37 40 -134 86 -179 86 -23 0 -43 -4
-46 -9z m379 -602 c13 -40 6 -129 -13 -173 -19 -41 -24 -45 -91 -65 -38 -12
-77 -24 -86 -27 -13 -5 -15 6 -15 72 0 44 3 102 6 130 l6 52 67 14 c97 22 118
22 126 -3z m-296 -121 c0 -51 -3 -111 -7 -132 -7 -36 -11 -41 -57 -57 -91 -32
-87 -35 -117 109 -14 70 -25 128 -24 129 3 4 171 41 189 42 15 1 17 -10 16
-91z"/>
<path d="M2406 2262 c-11 -18 94 -146 158 -193 50 -37 72 -37 91 1 38 74 2
138 -98 169 -84 25 -144 35 -151 23z"/>
<path d="M1769 2184 c-1 -5 -2 -51 -3 -102 -1 -66 -5 -95 -15 -101 -7 -5 -54
-14 -105 -21 -100 -13 -159 -36 -135 -51 8 -5 60 -9 117 -9 56 0 102 -2 102
-4 0 -10 -76 -138 -127 -214 -111 -165 -261 -324 -465 -496 -32 -27 -58 -52
-58 -57 0 -11 62 11 136 49 221 112 457 363 612 649 l47 88 85 22 c47 12 92
21 101 20 8 -1 64 -58 125 -127 142 -161 318 -339 370 -374 63 -41 141 -50
324 -36 85 7 161 16 169 20 20 11 4 18 -174 80 -214 75 -276 106 -442 219
-141 96 -299 219 -291 226 2 2 51 11 108 20 104 17 181 42 195 65 10 16 -31
57 -72 71 -38 12 -92 5 -172 -23 -75 -26 -303 -89 -308 -85 -2 2 6 25 18 51
11 26 18 54 15 61 -11 29 -154 82 -157 59z"/>
<path d="M2023 1714 c-18 -8 -16 -23 8 -69 36 -66 58 -143 70 -237 6 -49 9
-91 7 -94 -7 -6 -269 -47 -274 -42 -2 3 2 36 10 74 8 38 18 97 22 131 l7 63
-44 20 c-52 23 -127 27 -135 6 -3 -8 2 -29 12 -48 18 -35 32 -195 20 -241 -6
-24 -11 -25 -163 -42 -87 -10 -167 -21 -178 -26 -17 -6 -15 -9 20 -25 45 -20
177 -25 259 -10 l48 9 -7 -34 c-4 -19 -20 -67 -36 -107 -57 -145 -162 -280
-313 -406 -57 -47 -109 -92 -116 -101 -43 -52 134 28 236 107 170 131 282 301
328 498 8 34 16 63 18 65 6 5 282 44 286 40 7 -6 -17 -459 -30 -587 -11 -106
-10 -123 6 -175 26 -83 66 -154 85 -151 9 2 23 21 31 43 12 33 14 97 12 355
-1 173 -5 363 -8 423 l-6 107 148 0 c266 1 321 32 183 103 -61 32 -101 32
-206 -2 -32 -10 -73 -22 -92 -26 l-34 -7 7 128 c4 71 8 144 9 163 2 31 -2 36
-53 62 -55 29 -114 43 -137 33z"/>
</g>
</svg>
