<?xml version="1.0" standalone="no"?>
<!DOCTYPE svg PUBLIC "-//W3C//DTD SVG 20010904//EN"
 "http://www.w3.org/TR/2001/REC-SVG-20010904/DTD/svg10.dtd">
<svg version="1.0" xmlns="http://www.w3.org/2000/svg"
 width="340.000000pt" height="340.000000pt" viewBox="0 0 340.000000 340.000000"
 preserveAspectRatio="xMidYMid meet">
<metadata>
Created by potrace 1.15, written by Peter Selinger 2001-2017
</metadata>
<g transform="translate(0.000000,340.000000) scale(0.100000,-0.100000)"
fill="#000000" stroke="none">
<path d="M1986 2806 c-14 -126 -97 -258 -268 -426 -65 -64 -118 -120 -118
-123 0 -14 29 -5 110 34 99 48 162 92 248 174 l64 60 135 3 136 4 -68 -99
c-172 -248 -175 -251 -203 -257 -15 -3 -83 -15 -151 -27 -116 -21 -125 -21
-158 -5 -47 22 -115 31 -141 17 -19 -10 -19 -13 -6 -57 45 -149 -11 -559 -112
-832 -94 -253 -258 -493 -436 -638 -110 -90 -154 -132 -146 -139 11 -12 133
50 201 102 161 123 268 237 369 393 90 137 163 302 203 453 18 66 19 68 44 60
49 -15 226 -6 386 20 88 15 216 33 285 42 148 18 481 36 520 29 33 -7 60 17
60 52 0 21 -10 30 -55 50 -86 39 -143 41 -255 6 -112 -35 -307 -78 -316 -70
-3 4 -1 15 5 26 17 32 13 97 -6 115 -34 29 -116 67 -148 67 -19 0 -39 -8 -50
-20 -16 -18 -16 -21 -2 -44 9 -13 42 -51 73 -85 31 -34 55 -63 53 -66 -4 -3
-352 -46 -503 -61 l-69 -7 7 34 c21 99 35 197 46 314 7 72 14 132 17 135 2 3
58 14 124 25 137 24 134 25 101 -63 -22 -58 -63 -118 -127 -190 -49 -55 -52
-69 -13 -58 51 13 297 220 298 250 0 11 -18 36 -39 57 l-40 37 64 11 c35 6
173 27 307 46 264 38 315 48 331 64 17 17 -10 39 -66 56 -69 20 -104 19 -232
-10 -107 -25 -216 -48 -284 -59 -30 -5 -32 -4 -20 10 48 58 260 211 368 264
88 45 96 58 61 102 -20 26 -147 98 -173 98 -9 0 -51 -18 -94 -41 -62 -32 -92
-41 -150 -46 -46 -4 -73 -2 -73 4 0 6 29 37 65 70 36 33 65 65 65 71 0 6 -12
25 -27 43 -30 36 -87 64 -149 74 l-41 6 -7 -55z"/>
<path d="M847 2704 c-12 -12 -8 -35 19 -102 38 -96 54 -190 61 -369 l6 -162
-24 -9 c-13 -5 -66 -17 -117 -27 l-92 -18 -59 27 c-62 27 -105 33 -116 15 -4
-6 7 -38 23 -72 28 -56 53 -154 93 -360 13 -71 48 -118 76 -101 10 6 21 27 26
46 8 35 9 35 90 50 45 8 85 13 90 11 4 -2 7 -67 7 -143 l0 -139 -79 -25 c-115
-36 -225 -63 -316 -76 -148 -22 -161 -31 -130 -90 18 -35 120 -110 150 -110
12 0 48 16 81 36 131 81 163 98 278 156 152 76 296 140 308 136 5 -2 23 -37
41 -78 37 -86 59 -98 102 -56 28 28 34 89 14 161 -18 67 -161 187 -189 159 -5
-5 -1 -32 9 -64 10 -30 17 -58 15 -61 -2 -4 -16 -9 -31 -12 -16 -4 -58 -15
-95 -26 l-68 -20 0 139 0 138 73 17 c122 30 254 74 268 92 12 14 11 17 -4 27
-54 32 -53 30 -22 77 15 24 57 74 93 111 58 60 63 69 51 84 -29 35 -110 93
-154 110 l-46 17 -87 -41 c-48 -22 -104 -44 -124 -48 -45 -8 -44 -14 -23 153
10 72 30 159 51 223 l35 105 -33 27 c-69 57 -228 115 -251 92z m413 -662 c0
-29 -36 -163 -58 -212 -18 -43 -22 -46 -85 -63 -36 -9 -70 -17 -76 -17 -7 0
-11 43 -11 130 l0 129 73 21 c39 12 77 23 82 25 6 2 25 4 43 4 25 1 32 -3 32
-17z m-332 -190 c3 -129 2 -132 -20 -142 -38 -16 -148 -41 -157 -36 -4 3 -14
63 -21 133 -7 70 -13 132 -14 138 -1 9 176 45 199 40 6 -1 11 -56 13 -133z"/>
<path d="M2348 2059 c-30 -17 -20 -43 30 -81 62 -48 192 -118 217 -118 52 0
59 55 15 122 -31 47 -41 52 -160 78 -57 12 -81 12 -102 -1z"/>
<path d="M2305 1415 c-33 -7 -87 -23 -120 -35 -33 -11 -114 -32 -179 -45 -66
-13 -124 -29 -130 -35 -20 -20 17 -30 120 -30 116 0 230 18 394 61 150 40 171
57 105 85 -42 17 -110 17 -190 -1z"/>
<path d="M2369 1190 c-27 -16 -213 -58 -333 -76 -61 -9 -122 -23 -136 -30
l-25 -12 28 -11 c41 -16 270 -13 369 4 115 20 242 65 246 88 7 34 -107 62
-149 37z"/>
<path d="M2389 938 c-169 -64 -385 -98 -498 -80 -80 14 -161 6 -161 -15 0 -7
11 -30 25 -51 33 -50 66 -134 105 -269 34 -115 56 -153 90 -153 25 0 43 35 36
71 l-5 29 67 1 c275 2 552 16 566 28 26 22 18 37 -29 58 l-45 20 28 41 c15 23
53 69 85 101 31 33 57 69 57 80 0 38 -113 113 -216 144 -47 14 -54 14 -105 -5z
m61 -140 c0 -18 -9 -74 -21 -124 l-21 -91 -215 -27 c-119 -14 -217 -25 -219
-24 -7 8 -24 232 -17 239 13 12 333 57 416 58 l77 1 0 -32z"/>
</g>
</svg>
