<?xml version="1.0" standalone="no"?>
<!DOCTYPE svg PUBLIC "-//W3C//DTD SVG 20010904//EN"
 "http://www.w3.org/TR/2001/REC-SVG-20010904/DTD/svg10.dtd">
<svg version="1.0" xmlns="http://www.w3.org/2000/svg"
 width="340.000000pt" height="340.000000pt" viewBox="0 0 340.000000 340.000000"
 preserveAspectRatio="xMidYMid meet">
<metadata>
Created by potrace 1.15, written by Peter Selinger 2001-2017
</metadata>
<g transform="translate(0.000000,340.000000) scale(0.100000,-0.100000)"
fill="#000000" stroke="none">
<path d="M1061 2741 c-10 -7 -15 -33 -15 -94 l-1 -86 -54 -78 c-98 -142 -192
-263 -283 -364 -49 -55 -87 -103 -83 -107 10 -10 108 47 203 118 48 36 167
144 266 241 199 195 191 180 137 269 -27 45 -109 110 -140 110 -9 0 -22 -4
-30 -9z"/>
<path d="M2350 2464 c-52 -19 -140 -51 -195 -71 -55 -19 -106 -40 -112 -45
-36 -29 4 -57 110 -77 45 -8 77 -7 145 5 158 27 315 84 329 119 7 21 -22 62
-58 80 -59 31 -116 28 -219 -11z"/>
<path d="M1493 2383 c-32 -12 1 -66 106 -176 97 -102 155 -117 197 -52 42 64
-48 176 -171 214 -65 20 -107 25 -132 14z"/>
<path d="M1056 2178 c-2 -7 -9 -42 -15 -78 -6 -36 -26 -96 -46 -135 -74 -150
-288 -403 -506 -601 -119 -108 -151 -146 -134 -162 23 -24 276 162 450 330
l123 119 8 -78 c8 -87 -1 -335 -16 -464 -6 -46 -22 -141 -36 -212 -29 -140
-25 -189 19 -270 40 -72 90 -56 117 38 15 50 33 624 24 765 -6 117 -27 249
-42 276 -8 15 7 37 90 128 55 61 111 127 125 148 24 35 24 37 8 68 -44 85
-157 170 -169 128z"/>
<path d="M2680 2049 c-47 -11 -168 -43 -270 -69 -207 -55 -416 -102 -531 -120
-42 -7 -82 -16 -89 -20 -25 -15 0 -39 56 -56 65 -19 129 -15 262 17 109 25
120 24 132 -7 39 -102 72 -653 51 -848 -18 -157 -50 -205 -118 -172 -39 19
-153 35 -153 22 0 -4 20 -30 44 -58 24 -27 63 -82 87 -121 65 -104 89 -127
137 -127 32 0 45 6 65 30 83 98 118 382 86 700 -6 58 -12 204 -13 325 -1 122
-6 226 -10 233 -4 6 -28 24 -54 39 l-46 27 34 7 c59 12 399 48 520 55 126 7
150 17 150 64 0 79 -174 120 -340 79z"/>
<path d="M1310 1907 c0 -27 87 -135 138 -170 65 -45 88 -50 118 -23 36 30 36
73 0 124 -22 32 -39 43 -104 65 -42 15 -94 27 -114 27 -33 0 -38 -3 -38 -23z"/>
<path d="M1738 1653 c-14 -21 -59 -99 -101 -173 -123 -219 -174 -288 -242
-330 -86 -53 -90 -73 -35 -189 76 -159 99 -161 151 -11 34 100 113 302 213
545 67 163 74 249 14 158z"/>
</g>
</svg>
