<?xml version="1.0" standalone="no"?>
<!DOCTYPE svg PUBLIC "-//W3C//DTD SVG 20010904//EN"
 "http://www.w3.org/TR/2001/REC-SVG-20010904/DTD/svg10.dtd">
<svg version="1.0" xmlns="http://www.w3.org/2000/svg"
 width="340.000000pt" height="340.000000pt" viewBox="0 0 340.000000 340.000000"
 preserveAspectRatio="xMidYMid meet">
<metadata>
Created by potrace 1.15, written by Peter Selinger 2001-2017
</metadata>
<g transform="translate(0.000000,340.000000) scale(0.100000,-0.100000)"
fill="#000000" stroke="none">
<path d="M1590 2851 c0 -17 7 -42 15 -55 29 -44 46 -158 52 -356 l6 -195 -108
-30 c-118 -33 -146 -54 -110 -82 16 -12 37 -14 95 -9 42 3 84 8 93 12 16 6 17
-3 15 -107 l-3 -114 -55 -18 c-30 -11 -124 -36 -209 -57 -145 -36 -183 -51
-168 -66 3 -4 31 -15 62 -25 61 -20 51 -22 225 40 77 27 86 29 97 14 17 -22
32 -104 35 -193 l3 -75 -60 -22 c-33 -12 -100 -31 -150 -43 -104 -25 -106 -26
-99 -44 16 -42 136 -51 239 -17 33 10 63 17 68 14 4 -2 7 -62 7 -133 l0 -128
-107 -25 c-129 -30 -198 -44 -275 -52 -61 -7 -72 -14 -62 -39 7 -18 122 -76
151 -76 10 0 104 30 208 66 105 36 253 87 331 113 149 51 184 66 184 80 0 21
-41 19 -160 -9 -181 -42 -174 -44 -166 31 3 34 6 92 6 129 l0 67 108 38 c122
43 132 49 132 81 0 31 -46 40 -126 24 -32 -7 -71 -14 -85 -17 l-26 -5 5 82 c5
95 -4 111 -88 150 -28 13 -50 26 -50 29 0 7 246 65 370 87 99 18 120 28 120
54 0 51 -113 56 -244 11 -50 -17 -94 -31 -98 -31 -5 0 -7 50 -6 112 l3 112 92
22 c102 25 151 47 160 71 16 40 -72 56 -163 28 -83 -25 -81 -29 -72 88 8 115
20 197 45 306 l17 74 -36 32 c-35 32 -125 72 -185 82 -31 5 -33 4 -33 -26z"/>
<path d="M1117 2813 c-4 -3 -7 -39 -7 -78 0 -68 -2 -75 -42 -131 -76 -108
-176 -220 -297 -335 -67 -63 -121 -118 -121 -123 0 -17 83 3 144 34 83 42 254
181 413 336 l133 129 -15 40 c-17 50 -72 99 -133 119 -50 18 -65 19 -75 9z"/>
<path d="M2480 2395 c-106 -47 -226 -85 -266 -85 -12 0 -27 -6 -33 -13 -24
-29 67 -77 147 -77 88 0 393 93 405 123 15 40 -37 89 -100 94 -40 3 -65 -4
-153 -42z"/>
<path d="M1076 2198 c-3 -13 -7 -45 -9 -71 -3 -29 -22 -85 -50 -142 -90 -185
-227 -363 -489 -631 -98 -100 -178 -189 -178 -198 0 -74 250 112 503 374 l144
150 7 -40 c8 -53 -11 -390 -29 -515 -8 -55 -27 -143 -41 -195 -38 -140 -33
-233 18 -317 49 -82 98 -2 122 197 3 25 13 207 21 405 17 381 14 456 -23 518
l-18 32 103 127 c57 71 103 135 103 143 0 46 -51 120 -108 156 -55 35 -70 36
-76 7z"/>
<path d="M2580 1930 c-146 -38 -332 -83 -414 -100 -82 -16 -153 -33 -158 -36
-17 -10 13 -34 62 -48 43 -13 58 -13 122 1 40 9 80 16 88 17 23 2 57 -97 74
-215 24 -158 22 -654 -2 -724 -24 -70 -47 -79 -137 -54 -114 31 -156 21 -104
-27 26 -24 132 -182 164 -245 17 -33 33 -50 55 -57 83 -29 136 52 181 275 l22
107 -19 215 c-12 149 -17 286 -16 441 l3 225 -28 27 c-15 15 -41 32 -58 39
l-30 12 30 8 c51 14 234 38 380 49 164 12 241 26 248 44 9 24 -32 77 -76 96
-23 11 -60 19 -82 19 -22 -1 -159 -32 -305 -69z"/>
</g>
</svg>
