<?xml version="1.0" standalone="no"?>
<!DOCTYPE svg PUBLIC "-//W3C//DTD SVG 20010904//EN"
 "http://www.w3.org/TR/2001/REC-SVG-20010904/DTD/svg10.dtd">
<svg version="1.0" xmlns="http://www.w3.org/2000/svg"
 width="340.000000pt" height="340.000000pt" viewBox="0 0 340.000000 340.000000"
 preserveAspectRatio="xMidYMid meet">
<metadata>
Created by potrace 1.15, written by Peter Selinger 2001-2017
</metadata>
<g transform="translate(0.000000,340.000000) scale(0.100000,-0.100000)"
fill="#000000" stroke="none">
<path d="M1474 2876 c-3 -8 1 -27 10 -44 21 -41 204 -212 245 -229 31 -13 36
-13 60 5 22 16 26 28 29 80 3 72 -22 133 -66 156 -37 19 -170 46 -227 46 -30
0 -47 -5 -51 -14z"/>
<path d="M2070 2595 c-353 -80 -756 -145 -1120 -181 -186 -18 -214 -29 -159
-63 19 -12 59 -31 89 -42 68 -26 107 -23 372 30 106 22 212 42 236 46 l42 7
21 -46 c12 -28 22 -79 26 -130 l6 -83 -89 -17 c-49 -9 -138 -23 -198 -31 -105
-15 -112 -15 -170 4 -57 18 -93 25 -123 22 -21 -2 -15 -35 12 -71 32 -43 77
-160 104 -267 23 -95 43 -138 70 -153 31 -16 39 -12 57 23 9 17 17 33 18 34 3
3 273 43 290 43 9 0 15 -25 20 -82 7 -89 22 -131 47 -136 23 -4 46 58 59 159
5 45 11 83 12 84 2 1 80 9 175 19 206 20 286 33 310 51 16 12 16 17 4 51 l-14
37 59 56 c33 31 76 70 98 87 32 25 37 34 31 54 -14 43 -84 108 -140 129 -76
29 -127 27 -225 -7 -92 -32 -266 -69 -277 -59 -3 4 2 38 11 78 17 68 17 71 -1
91 -10 12 -38 34 -62 49 -28 18 -39 30 -30 33 37 12 361 38 599 47 337 13 330
12 330 48 0 30 -26 59 -75 84 -32 16 -170 48 -202 46 -10 0 -106 -20 -213 -44z
m17 -482 c17 -45 -53 -219 -98 -244 -17 -8 -134 -31 -236 -44 l-53 -7 0 60 c0
32 3 93 6 134 l7 75 136 17 c75 10 141 19 146 21 6 2 27 4 48 4 26 1 40 -4 44
-16z m-511 -180 c-3 -70 -10 -131 -14 -134 -8 -8 -301 -43 -307 -37 -7 6 -38
228 -33 233 5 6 307 63 337 64 l24 1 -7 -127z"/>
<path d="M2175 1658 c-2 -7 -6 -30 -10 -52 -9 -54 -118 -159 -273 -263 l-122
-83 -58 41 c-31 22 -86 60 -122 83 -37 24 -77 61 -93 84 -30 45 -120 112 -149
112 -11 0 -29 -25 -52 -72 -65 -136 -206 -297 -386 -442 -76 -61 -316 -224
-464 -315 -31 -19 -56 -38 -56 -42 0 -4 30 0 68 8 91 20 293 118 427 208 111
74 293 228 333 281 l21 29 1 -150 c0 -238 -26 -399 -79 -486 -25 -41 -27 -51
-21 -100 14 -97 44 -149 87 -149 12 0 23 4 23 10 0 15 285 303 409 415 114
102 148 140 132 150 -13 7 -114 -47 -246 -132 -60 -38 -125 -78 -144 -88 l-34
-17 6 139 c4 77 12 176 17 221 19 150 19 150 -34 199 l-48 43 54 49 c29 28 60
50 69 51 33 0 260 -170 538 -405 336 -285 425 -351 491 -366 59 -13 305 6 453
35 65 13 121 27 125 31 13 13 -32 34 -107 50 -174 37 -326 78 -425 115 -192
71 -436 196 -615 316 l-63 42 103 61 c57 34 193 105 301 159 109 53 197 102
198 109 0 19 -61 64 -135 100 -73 35 -113 42 -120 21z"/>
</g>
</svg>
