<?xml version="1.0" standalone="no"?>
<!DOCTYPE svg PUBLIC "-//W3C//DTD SVG 20010904//EN"
 "http://www.w3.org/TR/2001/REC-SVG-20010904/DTD/svg10.dtd">
<svg version="1.0" xmlns="http://www.w3.org/2000/svg"
 width="340.000000pt" height="340.000000pt" viewBox="0 0 340.000000 340.000000"
 preserveAspectRatio="xMidYMid meet">
<metadata>
Created by potrace 1.15, written by Peter Selinger 2001-2017
</metadata>
<g transform="translate(0.000000,340.000000) scale(0.100000,-0.100000)"
fill="#000000" stroke="none">
<path d="M1918 2784 c-25 -7 -22 -36 6 -93 50 -97 60 -160 60 -376 l1 -199
-130 -28 -130 -28 -66 30 c-66 30 -113 38 -124 21 -3 -5 7 -45 22 -88 28 -77
28 -82 28 -308 -1 -194 -4 -248 -23 -347 -53 -280 -155 -505 -322 -711 -39
-49 -69 -91 -66 -94 12 -13 98 52 182 139 130 133 209 260 274 443 69 194 109
496 95 721 l-7 111 132 33 c72 18 132 31 134 29 5 -8 -19 -418 -26 -424 -3 -4
-48 -17 -98 -30 -51 -13 -97 -28 -102 -33 -54 -54 176 -39 372 24 41 13 81 24
88 24 18 0 15 -85 -7 -173 -21 -82 -76 -226 -92 -242 -7 -7 -25 7 -55 40 -150
166 -180 190 -250 200 -79 12 -74 -6 29 -105 53 -50 121 -124 152 -165 55 -71
56 -74 42 -102 -19 -35 -126 -138 -191 -182 -26 -19 -112 -64 -190 -102 l-141
-68 75 0 c174 -1 339 71 487 212 l61 58 49 -59 c26 -33 75 -96 108 -142 85
-118 161 -185 226 -200 84 -20 452 10 512 42 42 22 14 41 -118 79 -279 80
-491 190 -667 344 l-46 40 38 70 c21 38 64 134 95 213 41 100 69 155 96 186
45 50 47 63 18 99 -22 29 -134 87 -167 87 -11 0 -45 -15 -75 -34 -62 -37 -115
-61 -122 -55 -4 5 24 396 30 415 3 9 154 40 257 52 55 6 58 -15 20 -120 -23
-66 -27 -88 -17 -88 8 0 17 5 20 10 8 12 124 72 194 100 27 10 72 33 100 50
l51 32 -16 29 c-18 37 -78 80 -171 127 l-72 36 -73 -36 c-69 -35 -187 -78
-253 -92 l-30 -7 7 122 c8 136 30 274 54 346 l16 48 -43 37 c-77 67 -177 100
-241 82z"/>
<path d="M957 2653 c-11 -18 68 -139 132 -203 36 -36 87 -77 113 -90 45 -24
47 -24 67 -6 30 27 44 79 36 137 -6 44 -12 53 -51 80 -76 52 -152 82 -224 87
-37 2 -70 0 -73 -5z"/>
<path d="M1091 2085 c-113 -79 -308 -132 -548 -151 -51 -3 -101 -12 -110 -19
-17 -13 -17 -14 0 -33 10 -11 50 -37 89 -57 l70 -37 137 50 c170 63 310 106
318 98 10 -9 -93 -202 -172 -321 -102 -154 -228 -307 -383 -466 -114 -118
-152 -169 -125 -169 15 0 123 67 192 118 106 80 227 197 323 313 l83 101 3
-218 c4 -274 -9 -409 -50 -529 -29 -86 -30 -92 -19 -167 11 -81 41 -155 67
-165 22 -8 49 22 64 70 28 91 40 226 51 557 7 190 14 347 15 349 2 2 46 -37
99 -87 95 -91 147 -128 165 -117 15 9 30 75 23 105 -7 38 -60 87 -117 109 -26
10 -47 21 -47 25 0 10 104 93 169 135 33 21 52 40 52 52 0 30 -91 119 -122
119 -22 0 -27 -7 -41 -57 -13 -49 -75 -154 -131 -227 -25 -31 -64 -14 -71 32
-3 20 -14 54 -24 74 l-19 37 46 78 c60 103 113 174 185 250 49 52 58 66 53 87
-7 30 -45 58 -113 85 l-50 19 -62 -43z"/>
</g>
</svg>
