<?xml version="1.0" standalone="no"?>
<!DOCTYPE svg PUBLIC "-//W3C//DTD SVG 20010904//EN"
 "http://www.w3.org/TR/2001/REC-SVG-20010904/DTD/svg10.dtd">
<svg version="1.0" xmlns="http://www.w3.org/2000/svg"
 width="340.000000pt" height="340.000000pt" viewBox="0 0 340.000000 340.000000"
 preserveAspectRatio="xMidYMid meet">
<metadata>
Created by potrace 1.15, written by Peter Selinger 2001-2017
</metadata>
<g transform="translate(0.000000,340.000000) scale(0.100000,-0.100000)"
fill="#000000" stroke="none">
<path d="M1490 2831 c0 -11 5 -23 11 -27 39 -24 69 -194 69 -389 l0 -92 -287
-47 c-159 -25 -294 -46 -301 -46 -8 0 -33 21 -56 47 -23 25 -47 44 -53 40 -5
-4 -13 -30 -16 -59 -3 -29 -28 -110 -56 -179 -64 -158 -67 -219 -10 -249 16
-9 26 -8 44 4 32 21 101 164 123 254 13 56 21 74 37 77 97 23 857 129 1072
150 192 18 234 19 257 2 23 -17 14 -36 -49 -107 -25 -28 -45 -60 -45 -72 0
-19 4 -20 53 -15 28 3 88 17 132 32 50 16 114 28 173 32 l93 6 -6 26 c-19 80
-105 154 -235 202 l-85 31 -145 -26 c-201 -37 -518 -81 -525 -74 -11 11 16
277 34 351 l18 71 -22 22 c-28 28 -113 54 -177 54 -41 0 -48 -3 -48 -19z"/>
<path d="M1987 2799 c-8 -69 -39 -125 -119 -220 -38 -45 -66 -84 -63 -87 10
-10 420 205 423 222 2 9 -10 28 -27 44 -41 37 -149 92 -182 92 -24 0 -27 -4
-32 -51z"/>
<path d="M1183 2604 c-22 -10 -14 -39 26 -100 47 -72 105 -134 124 -134 25 0
48 37 54 88 5 48 4 53 -25 80 -52 49 -143 82 -179 66z"/>
<path d="M1730 2139 c-83 -34 -336 -88 -463 -98 -107 -9 -130 -19 -105 -48 8
-10 50 -79 92 -154 86 -153 107 -179 131 -159 8 7 15 19 15 26 0 7 14 21 30
29 31 16 31 16 44 -17 8 -18 30 -68 49 -110 20 -43 33 -80 29 -82 -11 -7 -317
-73 -447 -97 -138 -24 -168 -34 -162 -52 12 -38 196 -44 366 -12 46 9 85 14
87 12 10 -9 -108 -160 -195 -251 -122 -125 -217 -202 -411 -331 -173 -115
-214 -148 -189 -153 23 -4 158 51 269 110 122 65 243 148 371 254 l101 85 -4
-183 c-6 -200 -18 -264 -63 -312 -44 -47 -29 -171 25 -209 21 -15 28 -8 253
219 127 129 237 244 245 256 14 19 13 20 -9 13 -13 -4 -73 -37 -134 -73 -60
-36 -132 -78 -159 -94 l-49 -29 6 176 7 175 -30 61 -31 60 48 43 c27 24 55 55
62 69 l14 26 45 -31 c79 -55 290 -226 451 -367 86 -75 185 -161 221 -190 l65
-54 210 6 c125 4 242 12 290 22 105 20 115 24 115 40 0 16 -41 29 -166 50
-258 45 -491 135 -771 300 -57 33 -103 63 -103 67 0 4 15 15 33 24 17 9 107
59 200 112 119 68 167 101 167 114 0 20 -50 48 -127 71 -63 19 -87 14 -103
-21 -7 -15 -19 -43 -28 -62 -19 -40 -162 -186 -192 -195 -26 -8 -191 91 -257
155 -27 25 -59 52 -72 61 -23 15 -16 17 165 53 230 46 414 92 428 106 8 8 4
17 -13 31 -36 29 -185 27 -319 -6 -57 -14 -109 -25 -116 -25 -10 0 -12 13 -9
48 6 58 -17 91 -85 126 l-47 24 55 11 c30 6 100 17 156 26 210 31 224 38 185
86 -28 34 -14 51 74 89 41 18 75 38 75 44 0 24 -84 96 -134 115 -65 24 -153
34 -186 20z m40 -98 c17 -34 12 -96 -13 -132 -16 -24 -37 -39 -72 -51 -69 -22
-295 -72 -301 -65 -7 7 -47 177 -43 182 3 2 390 82 411 84 4 1 12 -8 18 -18z"/>
</g>
</svg>
