<?xml version="1.0" standalone="no"?>
<!DOCTYPE svg PUBLIC "-//W3C//DTD SVG 20010904//EN"
 "http://www.w3.org/TR/2001/REC-SVG-20010904/DTD/svg10.dtd">
<svg version="1.0" xmlns="http://www.w3.org/2000/svg"
 width="340.000000pt" height="340.000000pt" viewBox="0 0 340.000000 340.000000"
 preserveAspectRatio="xMidYMid meet">
<metadata>
Created by potrace 1.15, written by Peter Selinger 2001-2017
</metadata>
<g transform="translate(0.000000,340.000000) scale(0.100000,-0.100000)"
fill="#000000" stroke="none">
<path d="M904 2751 c-45 -19 -37 -40 43 -123 84 -86 182 -162 233 -179 27 -10
34 -9 56 12 41 39 31 106 -29 186 -26 35 -47 48 -111 73 -85 34 -158 45 -192
31z"/>
<path d="M2305 2574 c-137 -42 -368 -96 -545 -127 -102 -17 -147 -21 -184 -15
-27 5 -72 8 -100 6 -65 -4 -69 -20 -23 -85 70 -97 112 -206 166 -431 46 -191
90 -249 140 -186 16 20 39 31 98 45 43 10 84 18 91 19 9 0 12 -28 12 -109 l0
-109 -62 -11 c-82 -14 -352 -48 -450 -57 -105 -9 -112 -41 -20 -80 34 -14 45
-13 162 12 217 46 262 52 255 36 -9 -25 -123 -185 -190 -269 -80 -101 -260
-278 -374 -370 -93 -75 -112 -100 -65 -89 56 14 140 58 249 131 178 118 343
303 454 506 l41 74 0 -85 c0 -117 -17 -347 -37 -515 -10 -77 -18 -162 -18
-190 0 -69 40 -186 80 -232 28 -33 35 -36 49 -24 43 36 53 187 36 574 -7 166
-11 322 -9 347 l4 45 156 -190 c197 -240 274 -325 313 -348 27 -17 46 -18 161
-13 236 11 375 33 375 61 0 20 -3 21 -151 59 -302 78 -532 205 -750 414 -88
84 -109 110 -109 132 0 34 11 37 210 45 154 7 494 33 528 40 41 10 22 49 -41
82 -59 30 -138 28 -334 -11 -99 -20 -222 -42 -272 -49 l-91 -14 0 112 0 112
81 16 82 17 34 -30 c46 -41 85 -40 116 3 25 34 75 145 151 335 57 140 76 177
120 236 46 60 46 86 -1 125 -34 28 -188 92 -216 90 -7 0 -61 -16 -122 -35z
m71 -140 c12 -48 -4 -167 -45 -333 -22 -91 -44 -168 -48 -172 -6 -6 -190 -39
-218 -39 -3 0 -5 45 -5 100 l0 99 43 11 c23 6 61 18 84 26 135 49 117 125 -21
90 -36 -9 -72 -16 -79 -16 -23 0 -27 25 -15 84 10 54 10 56 -21 93 -17 21 -27
39 -23 41 23 7 262 40 299 41 38 1 43 -2 49 -25z m-437 -135 c6 -35 11 -81 11
-101 0 -41 9 -37 -150 -78 -39 -10 -65 -22 -65 -30 0 -25 74 -42 153 -35 l73
6 -3 -98 -3 -97 -107 -22 -107 -21 -16 76 c-10 42 -36 162 -60 266 -24 105
-41 192 -39 194 3 3 66 15 142 26 l137 21 12 -21 c7 -12 17 -51 22 -86z"/>
<path d="M1026 2198 c-130 -67 -408 -147 -583 -169 -82 -10 -103 -16 -103 -29
0 -30 30 -58 78 -73 88 -29 103 -28 187 2 286 103 338 121 355 121 19 0 19 -1
-1 -52 -89 -230 -278 -526 -513 -803 -87 -102 -83 -122 11 -60 121 80 321 297
432 468 24 37 46 67 49 67 8 0 -6 -440 -18 -545 -5 -49 -22 -152 -37 -228 -26
-136 -26 -138 -10 -214 19 -86 57 -153 87 -153 58 0 90 253 90 725 l0 280 88
-90 c48 -50 104 -103 125 -119 36 -27 38 -28 56 -12 28 26 34 63 15 95 -16 28
-86 80 -136 102 -16 7 -28 17 -28 22 0 12 93 127 169 209 44 48 52 62 47 84
-8 31 -56 53 -123 57 l-48 2 -6 -75 c-7 -88 -22 -147 -55 -212 l-24 -48 -45
22 c-25 12 -45 27 -45 34 0 7 -13 38 -30 69 l-30 57 82 130 c45 72 102 157
126 190 39 52 43 62 34 83 -12 26 -64 56 -123 73 -29 7 -42 6 -73 -10z"/>
</g>
</svg>
