<?xml version="1.0" standalone="no"?>
<!DOCTYPE svg PUBLIC "-//W3C//DTD SVG 20010904//EN"
 "http://www.w3.org/TR/2001/REC-SVG-20010904/DTD/svg10.dtd">
<svg version="1.0" xmlns="http://www.w3.org/2000/svg"
 width="340.000000pt" height="340.000000pt" viewBox="0 0 340.000000 340.000000"
 preserveAspectRatio="xMidYMid meet">
<metadata>
Created by potrace 1.15, written by Peter Selinger 2001-2017
</metadata>
<g transform="translate(0.000000,340.000000) scale(0.100000,-0.100000)"
fill="#000000" stroke="none">
<path d="M967 2583 c-23 -22 -3 -60 70 -134 89 -92 157 -139 201 -139 26 0 32
5 42 34 15 47 -4 118 -44 161 -47 49 -242 106 -269 78z"/>
<path d="M1577 2513 c-4 -3 -4 -47 0 -97 l6 -91 -53 -140 c-69 -186 -144 -341
-214 -445 -55 -80 -82 -150 -58 -150 13 0 81 66 151 148 38 43 57 59 62 50 15
-28 32 -357 25 -506 -7 -181 -18 -263 -53 -435 -24 -114 -25 -133 -14 -182 7
-30 24 -69 39 -86 l26 -32 22 27 c31 35 43 83 51 189 l6 87 66 35 c164 87 305
252 410 479 26 55 53 112 59 126 10 20 11 -25 7 -220 -5 -243 -20 -407 -49
-520 -17 -65 -9 -143 22 -227 23 -62 47 -76 71 -44 52 68 62 191 49 581 -5
168 -8 328 -6 355 l3 50 54 -90 c217 -360 296 -478 331 -494 28 -13 71 -16
210 -16 96 0 188 4 203 8 43 12 30 38 -28 61 -261 100 -457 241 -660 478 -52
61 -95 114 -95 118 0 16 18 18 425 49 133 10 178 28 173 69 -4 37 -77 73 -162
79 -52 5 -85 -1 -197 -32 -163 -46 -243 -65 -248 -60 -2 2 4 37 14 78 9 40 15
82 13 93 -2 10 -25 31 -51 45 l-49 26 49 7 c26 3 102 13 168 22 147 18 155 21
155 44 0 20 -54 70 -76 70 -8 0 -14 3 -14 7 0 13 110 152 159 200 l51 50 -23
33 c-27 41 -120 93 -205 116 l-63 17 -84 -41 c-162 -81 -286 -111 -354 -87
-42 15 -101 20 -101 10 0 -3 13 -32 30 -64 29 -58 69 -210 90 -346 6 -38 18
-80 26 -93 20 -31 48 -24 54 13 4 25 11 31 43 36 35 5 40 4 48 -19 5 -14 15
-72 21 -129 10 -89 9 -106 -3 -114 -21 -13 -209 -56 -324 -74 -144 -23 -152
-41 -33 -72 l67 -17 86 28 c48 15 89 25 93 21 10 -10 -84 -192 -156 -300 -40
-61 -103 -137 -161 -195 l-96 -95 -4 65 c-1 36 3 196 9 355 10 227 10 305 1
360 -14 80 -44 151 -71 165 -17 9 -13 18 38 102 31 51 84 154 119 228 34 74
74 149 88 167 14 18 25 36 25 40 0 20 -64 83 -102 101 -47 22 -102 34 -111 25z
m767 -224 c14 -12 12 -90 -4 -187 -12 -75 -17 -85 -39 -94 -28 -10 -269 -68
-287 -68 -7 0 -16 47 -23 118 -7 64 -15 129 -18 143 -5 25 -3 26 134 62 188
49 210 51 237 26z"/>
<path d="M1085 2025 c-97 -86 -272 -146 -535 -182 -46 -7 -56 -12 -58 -29 -4
-25 31 -53 104 -84 58 -25 58 -25 284 81 80 37 157 71 173 74 l27 7 -19 -45
c-81 -188 -274 -461 -507 -714 -141 -153 -149 -174 -39 -108 134 81 256 200
385 375 34 47 64 87 67 90 3 3 3 -103 0 -235 -6 -236 -20 -372 -52 -496 -20
-75 -7 -153 32 -199 28 -34 48 -38 61 -12 26 48 52 360 52 615 0 75 3 137 7
137 17 0 76 -56 133 -129 67 -85 100 -105 127 -78 21 21 19 81 -6 115 -11 16
-45 46 -76 67 -30 21 -55 41 -55 45 0 4 32 24 71 45 39 22 74 46 79 55 15 27
-72 109 -104 97 -7 -3 -16 -20 -20 -39 -8 -42 -71 -138 -91 -138 -8 0 -25 5
-39 12 -20 8 -24 17 -21 35 3 12 7 34 10 47 8 38 -5 83 -32 112 l-24 26 76 96
c42 53 112 136 156 184 43 47 79 91 79 96 0 16 -61 63 -105 83 -79 34 -97 33
-140 -6z"/>
</g>
</svg>
