<?xml version="1.0" standalone="no"?>
<!DOCTYPE svg PUBLIC "-//W3C//DTD SVG 20010904//EN"
 "http://www.w3.org/TR/2001/REC-SVG-20010904/DTD/svg10.dtd">
<svg version="1.0" xmlns="http://www.w3.org/2000/svg"
 width="340.000000pt" height="340.000000pt" viewBox="0 0 340.000000 340.000000"
 preserveAspectRatio="xMidYMid meet">
<metadata>
Created by potrace 1.15, written by Peter Selinger 2001-2017
</metadata>
<g transform="translate(0.000000,340.000000) scale(0.100000,-0.100000)"
fill="#000000" stroke="none">
<path d="M2040 2583 c-14 -2 -151 -33 -305 -68 -305 -70 -499 -106 -700 -130
-71 -9 -136 -18 -142 -20 -24 -8 -13 -23 35 -43 61 -26 149 -42 233 -42 37 0
70 -3 73 -8 24 -40 68 -484 49 -503 -5 -5 -96 -25 -203 -45 l-195 -37 -105 22
c-124 25 -190 27 -190 7 0 -7 7 -19 16 -27 30 -25 75 -99 100 -165 31 -82 78
-318 99 -494 35 -297 51 -374 84 -404 31 -28 58 12 67 103 8 71 -15 63 244 91
308 33 553 50 719 50 150 0 158 -1 179 -23 28 -30 57 -107 98 -262 19 -71 39
-134 44 -139 16 -16 81 16 128 63 73 73 131 170 163 273 35 111 88 355 124
568 30 176 51 233 119 308 25 29 46 60 46 70 0 32 -123 136 -220 186 -105 55
-83 55 -335 6 -181 -35 -416 -72 -422 -67 -6 7 27 156 49 222 11 33 21 81 22
107 1 55 -20 83 -102 130 -29 16 -52 32 -50 33 2 2 93 17 203 34 318 50 379
72 373 134 -5 49 -60 72 -178 74 -52 0 -106 -1 -120 -4z m-309 -340 c8 -61 9
-145 4 -248 -7 -147 -8 -157 -29 -165 -22 -9 -234 -40 -272 -40 -21 0 -21 2
-16 195 5 222 5 225 -76 276 -25 16 -44 29 -41 30 151 23 406 54 411 50 4 -3
12 -47 19 -98z m686 -452 c50 -19 58 -58 57 -256 -1 -129 -6 -199 -23 -290
-39 -214 -109 -445 -134 -445 -6 0 -52 42 -102 94 -82 86 -94 95 -137 101 -58
9 -266 -8 -508 -41 -309 -42 -564 -74 -591 -74 l-25 0 -38 361 c-21 198 -35
364 -31 367 8 8 388 81 396 76 3 -2 2 -34 -3 -71 -22 -174 -84 -343 -167 -459
-22 -31 -38 -60 -36 -65 11 -16 67 15 119 66 106 104 183 278 207 465 7 52 14
97 16 99 1 2 69 14 149 26 l147 21 -8 -110 c-13 -184 -11 -218 13 -257 36 -59
103 -88 232 -100 180 -17 290 9 290 68 0 22 -47 60 -94 76 -40 14 -47 13 -115
-10 -156 -54 -242 8 -221 158 5 30 11 84 15 120 l6 67 112 11 c62 6 126 13
142 15 61 8 301 -2 332 -13z"/>
</g>
</svg>
