<?xml version="1.0" standalone="no"?>
<!DOCTYPE svg PUBLIC "-//W3C//DTD SVG 20010904//EN"
 "http://www.w3.org/TR/2001/REC-SVG-20010904/DTD/svg10.dtd">
<svg version="1.0" xmlns="http://www.w3.org/2000/svg"
 width="340.000000pt" height="340.000000pt" viewBox="0 0 340.000000 340.000000"
 preserveAspectRatio="xMidYMid meet">
<metadata>
Created by potrace 1.15, written by Peter Selinger 2001-2017
</metadata>
<g transform="translate(0.000000,340.000000) scale(0.100000,-0.100000)"
fill="#000000" stroke="none">
<path d="M1035 2811 c-3 -6 5 -41 19 -79 34 -98 48 -196 50 -345 l1 -131 -153
-27 c-139 -25 -156 -26 -187 -13 -19 8 -53 14 -75 14 -47 0 -47 0 -26 -110 41
-216 24 -549 -45 -868 -48 -225 -165 -512 -278 -684 -28 -43 -46 -78 -40 -78
21 0 167 155 214 228 177 275 269 658 282 1179 l6 232 96 22 c53 12 112 22
131 23 l35 1 3 -122 3 -122 -28 -15 c-15 -7 -67 -26 -115 -41 -49 -14 -88 -31
-88 -36 0 -6 15 -16 34 -24 31 -13 42 -13 112 5 42 11 78 19 79 18 0 -2 6 -30
13 -62 14 -69 32 -100 75 -127 28 -18 46 -20 147 -17 103 3 121 6 173 31 68
34 91 64 84 109 -3 18 -10 64 -15 102 -17 111 -29 107 -61 -19 -15 -59 -63
-101 -138 -120 -115 -30 -177 7 -171 102 l3 48 65 21 c96 31 150 61 150 84 0
47 -79 47 -171 0 -21 -11 -41 -20 -44 -20 -10 0 -5 76 9 130 16 60 13 76 -15
85 -10 4 -19 10 -19 15 0 14 139 42 238 47 l92 6 0 -29 c0 -16 -10 -57 -22
-91 -12 -35 -19 -66 -15 -69 4 -4 46 16 94 43 49 28 104 59 123 68 34 17 50
32 50 48 0 17 -58 61 -129 96 l-73 37 -107 -26 c-58 -15 -123 -30 -144 -34
l-38 -7 7 78 c4 43 10 98 13 123 l6 45 100 6 c121 8 206 24 262 50 81 39 62
81 -39 87 -50 3 -82 -3 -153 -26 -49 -16 -110 -33 -133 -37 -42 -7 -43 -6 -33
13 6 12 11 40 11 65 0 58 -28 84 -117 108 -76 21 -99 23 -108 10z"/>
<path d="M2305 2475 c-93 -39 -264 -92 -337 -106 -50 -9 -76 -9 -111 0 -25 6
-60 11 -78 11 -35 0 -35 10 2 -120 20 -72 21 -89 15 -395 -3 -176 -10 -347
-16 -380 -11 -70 -1 -121 34 -162 33 -38 50 -21 73 70 16 64 17 116 15 488
l-3 417 58 6 c32 4 134 20 227 36 183 31 188 31 208 -20 20 -51 28 -213 18
-374 -5 -89 -10 -256 -11 -372 -2 -206 -1 -213 22 -260 30 -61 60 -82 82 -59
36 35 40 85 47 510 4 244 11 433 17 450 6 17 20 49 32 72 11 23 21 53 21 67 0
25 -39 64 -89 90 -26 14 -149 56 -160 56 -3 0 -33 -12 -66 -25z"/>
<path d="M2065 2108 c42 -137 27 -483 -31 -706 -27 -103 -101 -270 -155 -348
-93 -136 -240 -273 -419 -394 -119 -80 -118 -102 1 -61 140 48 276 138 393
262 200 210 294 425 332 759 9 74 27 200 41 279 l26 144 -24 20 c-38 31 -116
67 -145 67 -23 0 -25 -3 -19 -22z"/>
<path d="M1223 1518 c3 -13 14 -59 26 -102 18 -69 21 -107 21 -301 0 -162 -3
-225 -12 -237 -12 -14 -126 -58 -151 -58 -13 0 -2 407 13 525 l12 90 -53 48
c-36 32 -62 47 -80 47 -35 0 -45 -28 -26 -67 34 -67 41 -136 42 -403 l0 -265
-120 -31 c-66 -18 -148 -35 -182 -39 -99 -12 -110 -46 -26 -88 26 -14 66 -30
89 -37 45 -13 53 -11 439 158 88 38 219 91 290 116 143 51 157 57 159 71 2 22
-84 15 -170 -13 -49 -16 -101 -32 -116 -36 l-28 -6 0 63 c0 151 26 367 61 517
6 23 -95 70 -149 70 -41 0 -44 -2 -39 -22z"/>
<path d="M1546 1468 c-3 -7 -6 -40 -9 -74 -5 -62 -28 -118 -95 -227 -19 -31
-32 -60 -29 -63 3 -3 21 2 40 11 42 19 237 216 237 238 0 31 -23 66 -59 91
-48 32 -80 41 -85 24z"/>
<path d="M2199 1318 c0 -2 -3 -148 -5 -326 l-5 -324 24 -51 c57 -123 165 -171
387 -170 129 0 210 16 325 64 133 55 144 79 100 223 -14 44 -31 125 -39 179
-20 146 -34 147 -47 5 -10 -103 -31 -178 -60 -220 -13 -17 -47 -38 -102 -59
-76 -31 -91 -33 -197 -34 -101 0 -122 3 -174 25 -103 43 -101 37 -102 360 -1
317 -4 330 -69 330 -19 0 -35 -1 -36 -2z"/>
<path d="M770 1171 c-8 -16 -4 -38 19 -100 37 -101 66 -143 94 -139 29 4 41
44 33 102 -8 52 -56 115 -107 142 -26 13 -29 12 -39 -5z"/>
</g>
</svg>
