<?xml version="1.0" standalone="no"?>
<!DOCTYPE svg PUBLIC "-//W3C//DTD SVG 20010904//EN"
 "http://www.w3.org/TR/2001/REC-SVG-20010904/DTD/svg10.dtd">
<svg version="1.0" xmlns="http://www.w3.org/2000/svg"
 width="340.000000pt" height="340.000000pt" viewBox="0 0 340.000000 340.000000"
 preserveAspectRatio="xMidYMid meet">
<metadata>
Created by potrace 1.15, written by Peter Selinger 2001-2017
</metadata>
<g transform="translate(0.000000,340.000000) scale(0.100000,-0.100000)"
fill="#000000" stroke="none">
<path d="M1087 2713 c-4 -3 -7 -39 -7 -79 0 -83 -16 -119 -118 -271 -80 -120
-148 -201 -244 -294 -68 -65 -77 -77 -64 -88 39 -33 155 47 355 246 l134 133
36 -10 c20 -5 72 -13 116 -16 110 -8 111 -8 90 -42 -10 -15 -85 -111 -168
-214 l-150 -187 -74 -7 c-47 -4 -102 -2 -148 6 -40 7 -78 9 -84 6 -15 -10 -14
-34 6 -108 25 -91 24 -458 0 -616 -37 -238 -98 -414 -203 -590 -35 -58 -64
-107 -64 -109 0 -2 10 -3 21 -3 36 0 168 143 216 235 109 209 166 500 180 916
l6 196 86 6 c47 3 89 2 93 -2 14 -13 28 -113 28 -196 l0 -83 -32 -5 c-18 -3
-54 -9 -80 -13 -106 -14 -72 -54 48 -54 l64 0 0 -113 0 -113 -86 -11 c-141
-17 -141 -49 -1 -66 l84 -10 8 -179 c7 -178 21 -274 40 -271 22 3 37 88 48
268 6 105 11 191 13 193 1 2 40 12 87 23 48 12 94 29 106 40 54 50 -16 84
-116 56 -33 -10 -65 -17 -71 -17 -9 0 -12 30 -12 104 l0 104 88 21 c48 12 97
29 110 37 26 17 29 39 6 48 -29 11 -111 6 -147 -9 -61 -25 -60 -26 -52 100 7
114 7 114 -19 138 l-26 24 46 7 c26 3 80 6 121 6 71 0 74 -1 84 -27 47 -125
74 -834 38 -1028 -14 -77 -25 -83 -107 -57 -108 35 -111 32 -56 -49 20 -29 50
-82 66 -118 16 -36 38 -85 49 -108 10 -24 25 -43 32 -43 20 0 82 69 107 118
11 24 30 78 41 119 23 92 24 166 7 620 -10 270 -9 347 1 420 25 169 26 157
-10 197 -18 21 -54 48 -80 61 l-48 25 -78 -26 c-85 -28 -215 -56 -223 -47 -9
8 224 229 308 291 43 32 116 80 161 106 47 27 81 53 81 62 0 27 -56 70 -125
98 -36 14 -71 26 -79 26 -8 0 -48 -16 -90 -36 -75 -36 -156 -52 -223 -46 -18
2 -33 7 -33 11 0 5 37 48 82 97 l81 88 -42 37 c-62 55 -189 98 -214 72z"/>
<path d="M2100 2651 c0 -18 8 -48 19 -69 10 -20 29 -68 42 -107 20 -64 23 -94
27 -326 l4 -256 -34 -6 c-114 -20 -256 -28 -293 -18 -48 13 -135 15 -135 2 0
-5 14 -38 31 -74 30 -64 60 -190 80 -337 11 -76 33 -172 44 -190 13 -20 44 -9
62 23 19 31 26 34 119 51 54 10 105 21 112 23 9 4 12 -48 12 -240 l0 -245
-102 -25 c-146 -37 -295 -59 -348 -52 -25 3 -52 1 -60 -5 -13 -8 -12 -14 5
-47 15 -29 36 -46 84 -71 35 -17 76 -32 91 -32 15 0 61 15 102 34 117 53 295
122 470 181 89 30 162 55 163 55 1 0 10 -21 20 -47 28 -74 91 -196 114 -220
26 -27 68 -40 90 -26 24 15 40 71 40 144 1 63 -1 69 -51 140 -125 180 -230
289 -277 289 -6 0 -15 -9 -21 -20 -9 -17 -4 -37 26 -106 20 -47 34 -87 31 -90
-5 -6 -242 -64 -258 -64 -5 0 -9 101 -9 229 l0 229 68 11 c126 20 223 31 273
31 92 0 113 32 60 92 l-29 33 24 57 c37 88 89 170 143 227 28 30 51 57 51 62
0 20 -77 80 -126 99 -94 35 -121 35 -204 2 -93 -37 -241 -84 -247 -78 -12 11
35 431 63 556 l14 65 -45 42 c-56 51 -134 91 -197 99 l-48 7 0 -32z m481 -788
c21 -24 14 -117 -16 -241 -15 -59 -29 -109 -30 -110 -2 -2 -53 -16 -114 -32
l-111 -28 0 199 0 198 33 6 c157 29 219 31 238 8z m-391 -227 l0 -194 -47 -10
c-91 -20 -175 -33 -179 -29 -4 4 -44 331 -44 362 0 18 13 23 128 41 70 12 130
22 135 23 4 0 7 -86 7 -193z"/>
</g>
</svg>
