<?xml version="1.0" standalone="no"?>
<!DOCTYPE svg PUBLIC "-//W3C//DTD SVG 20010904//EN"
 "http://www.w3.org/TR/2001/REC-SVG-20010904/DTD/svg10.dtd">
<svg version="1.0" xmlns="http://www.w3.org/2000/svg"
 width="340.000000pt" height="340.000000pt" viewBox="0 0 340.000000 340.000000"
 preserveAspectRatio="xMidYMid meet">
<metadata>
Created by potrace 1.15, written by Peter Selinger 2001-2017
</metadata>
<g transform="translate(0.000000,340.000000) scale(0.100000,-0.100000)"
fill="#000000" stroke="none">
<path d="M1034 2676 c-17 -44 32 -109 170 -224 96 -80 146 -107 181 -98 47 12
61 118 24 193 -16 34 -33 50 -72 70 -79 40 -154 63 -229 70 -57 5 -69 3 -74
-11z"/>
<path d="M2525 2235 c-287 -61 -673 -118 -887 -131 -112 -7 -118 -8 -118 -29
0 -23 31 -50 97 -84 50 -25 69 -26 165 -6 40 8 124 23 186 33 l114 18 13 -25
c41 -81 59 -301 60 -721 0 -496 -5 -513 -141 -489 -38 7 -93 20 -123 30 -58
20 -91 24 -91 11 0 -5 20 -30 44 -55 46 -49 115 -139 210 -274 32 -45 65 -84
73 -88 41 -15 127 91 162 199 41 125 45 177 32 442 -14 312 -14 708 0 790 12
72 8 84 -54 151 -22 24 -37 47 -33 50 4 4 159 10 344 13 185 4 345 10 355 14
22 10 16 49 -11 80 -37 41 -190 97 -258 95 -16 -1 -78 -12 -139 -24z"/>
<path d="M1025 1990 c-81 -70 -181 -111 -330 -135 -49 -8 -116 -15 -147 -15
-54 0 -88 -16 -88 -41 0 -16 38 -48 92 -75 68 -35 102 -30 308 40 l161 55 11
-27 c15 -40 3 -460 -16 -540 -22 -89 -60 -157 -123 -224 -55 -57 -56 -58 -51
-108 10 -99 93 -224 119 -178 45 81 214 238 419 391 143 106 240 193 240 214
0 30 -67 8 -264 -87 l-208 -99 7 142 c8 189 23 329 41 402 16 61 58 137 94
170 37 33 20 103 -32 135 -25 15 -51 20 -110 20 -75 0 -78 -1 -123 -40z"/>
</g>
</svg>
