<?xml version="1.0" standalone="no"?>
<!DOCTYPE svg PUBLIC "-//W3C//DTD SVG 20010904//EN"
 "http://www.w3.org/TR/2001/REC-SVG-20010904/DTD/svg10.dtd">
<svg version="1.0" xmlns="http://www.w3.org/2000/svg"
 width="340.000000pt" height="340.000000pt" viewBox="0 0 340.000000 340.000000"
 preserveAspectRatio="xMidYMid meet">
<metadata>
Created by potrace 1.15, written by Peter Selinger 2001-2017
</metadata>
<g transform="translate(0.000000,340.000000) scale(0.100000,-0.100000)"
fill="#000000" stroke="none">
<path d="M2096 2793 c-4 -9 4 -39 18 -68 40 -81 54 -129 71 -239 22 -150 36
-439 21 -448 -22 -14 -183 -48 -371 -78 -193 -30 -351 -57 -393 -66 -63 -13
35 -81 132 -91 43 -4 66 0 119 21 36 14 110 37 164 50 116 28 349 63 358 54 4
-4 2 -222 -4 -485 -14 -597 -26 -714 -70 -728 -32 -10 -170 30 -249 71 -48 25
-37 -5 27 -69 75 -76 120 -139 172 -238 51 -97 75 -111 130 -74 65 45 107 123
139 258 16 66 17 95 10 195 -5 64 -13 263 -19 442 -6 179 -13 400 -16 491 l-6
166 63 8 c35 4 171 11 303 14 l240 6 3 27 c5 39 -36 74 -117 99 -109 34 -156
35 -257 5 -126 -36 -213 -55 -218 -47 -7 11 13 407 24 477 6 35 15 75 21 88
28 61 -28 111 -174 153 -94 27 -113 28 -121 6z"/>
<path d="M950 2638 c0 -16 45 -60 105 -104 22 -16 72 -55 110 -87 106 -89 172
-116 203 -85 7 7 12 37 12 68 0 45 -6 65 -29 102 -17 26 -42 53 -58 61 -42 22
-167 48 -260 54 -69 5 -83 3 -83 -9z"/>
<path d="M1020 1984 c-92 -94 -265 -154 -490 -169 -71 -6 -100 -11 -100 -21 0
-34 120 -134 161 -134 9 0 58 20 110 44 114 54 315 124 326 112 11 -11 7 -276
-7 -393 -29 -240 -65 -362 -136 -448 -32 -40 -36 -50 -31 -86 6 -47 45 -111
83 -136 26 -17 27 -17 43 7 23 38 230 247 384 388 133 123 174 168 163 179 -3
3 -60 -27 -128 -67 -68 -40 -136 -80 -153 -90 -16 -9 -52 -29 -79 -45 l-49
-28 6 194 c7 211 27 378 52 449 20 56 57 119 84 144 49 45 3 115 -87 135 -89
19 -103 15 -152 -35z"/>
<path d="M1624 1616 c-10 -27 22 -94 104 -216 49 -73 89 -122 110 -133 31 -18
34 -18 52 -2 29 26 43 80 35 133 -14 91 -53 134 -173 188 -97 45 -120 50 -128
30z"/>
</g>
</svg>
