<?xml version="1.0" standalone="no"?>
<!DOCTYPE svg PUBLIC "-//W3C//DTD SVG 20010904//EN"
 "http://www.w3.org/TR/2001/REC-SVG-20010904/DTD/svg10.dtd">
<svg version="1.0" xmlns="http://www.w3.org/2000/svg"
 width="340.000000pt" height="340.000000pt" viewBox="0 0 340.000000 340.000000"
 preserveAspectRatio="xMidYMid meet">
<metadata>
Created by potrace 1.15, written by Peter Selinger 2001-2017
</metadata>
<g transform="translate(0.000000,340.000000) scale(0.100000,-0.100000)"
fill="#000000" stroke="none">
<path d="M933 2488 c-13 -6 -23 -19 -23 -29 0 -30 273 -242 348 -270 36 -14
62 -1 78 38 18 42 12 81 -22 140 -31 54 -85 85 -193 112 -92 23 -153 26 -188
9z"/>
<path d="M1930 2462 c0 -11 13 -48 30 -83 67 -145 71 -178 81 -679 5 -250 6
-493 2 -540 l-8 -85 -155 -32 c-85 -17 -170 -34 -189 -38 l-34 -6 7 85 c3 47
15 147 26 221 11 75 20 159 20 187 0 49 -3 54 -52 103 -54 51 -106 75 -167 75
-17 0 -31 -4 -31 -10 0 -5 16 -38 35 -73 48 -87 66 -187 67 -367 1 -158 -9
-213 -49 -274 -22 -34 -25 -47 -21 -107 2 -48 9 -73 22 -88 26 -28 38 -26 77
11 100 93 435 203 854 278 66 12 131 24 144 27 l24 6 -6 -149 c-7 -148 3 -268
22 -287 15 -15 40 10 62 61 22 52 82 293 103 417 9 50 22 160 31 245 9 85 25
206 37 268 l21 113 -30 36 c-44 55 -116 100 -179 113 -75 16 -82 7 -58 -67 17
-51 19 -88 18 -293 0 -129 -4 -265 -8 -301 l-7 -66 -212 -37 c-117 -20 -215
-36 -219 -36 -18 0 -2 677 22 925 5 55 17 155 27 223 l17 123 -29 24 c-62 51
-155 89 -227 93 -63 4 -68 3 -68 -16z"/>
<path d="M949 1728 c-126 -95 -250 -140 -419 -154 -67 -6 -79 -10 -84 -26 -14
-56 47 -99 171 -119 l71 -12 139 81 c76 45 146 84 156 88 21 7 21 4 7 -156 -5
-63 -14 -191 -20 -285 -13 -223 -34 -302 -111 -408 -35 -48 -37 -93 -9 -155
20 -44 75 -102 97 -102 7 0 34 33 59 72 29 46 112 140 223 253 178 182 239
251 228 261 -3 4 -90 -37 -193 -90 l-186 -96 6 62 c3 35 11 146 17 248 14 254
35 326 129 457 22 31 40 62 40 69 0 22 -101 63 -170 70 l-65 6 -86 -64z"/>
</g>
</svg>
