<?xml version="1.0" standalone="no"?>
<!DOCTYPE svg PUBLIC "-//W3C//DTD SVG 20010904//EN"
 "http://www.w3.org/TR/2001/REC-SVG-20010904/DTD/svg10.dtd">
<svg version="1.0" xmlns="http://www.w3.org/2000/svg"
 width="340.000000pt" height="340.000000pt" viewBox="0 0 340.000000 340.000000"
 preserveAspectRatio="xMidYMid meet">
<metadata>
Created by potrace 1.15, written by Peter Selinger 2001-2017
</metadata>
<g transform="translate(0.000000,340.000000) scale(0.100000,-0.100000)"
fill="#000000" stroke="none">
<path d="M2410 2773 c0 -11 11 -37 25 -58 62 -90 78 -260 77 -805 0 -429 -8
-623 -42 -1012 l-21 -227 21 -82 c24 -94 51 -152 88 -191 33 -36 48 -35 69 4
16 30 18 66 18 373 0 187 -4 558 -9 825 -10 598 4 845 58 975 23 53 20 67 -16
103 -39 37 -176 102 -230 110 -33 4 -38 2 -38 -15z"/>
<path d="M988 2640 c-66 -6 -83 -18 -74 -54 12 -50 270 -220 363 -240 98 -22
98 153 0 228 -69 53 -172 76 -289 66z"/>
<path d="M1557 2323 c-13 -12 -7 -40 17 -84 70 -126 102 -410 75 -657 -38
-353 -158 -643 -344 -837 -127 -132 -109 -152 46 -49 173 115 304 321 373 588
47 178 59 306 61 621 l1 290 -37 36 c-35 35 -149 99 -174 99 -6 0 -15 -3 -18
-7z"/>
<path d="M2005 2300 c-4 -11 0 -44 9 -73 28 -98 37 -202 43 -487 5 -257 3
-299 -16 -426 -26 -177 -26 -176 4 -272 27 -86 64 -134 88 -113 32 26 39 124
48 621 8 469 14 569 40 631 17 41 -3 66 -84 105 -83 39 -123 44 -132 14z"/>
<path d="M1050 2043 c-26 -4 -52 -21 -105 -72 -59 -56 -84 -72 -155 -98 -111
-42 -198 -63 -282 -70 -72 -6 -77 -11 -57 -57 14 -31 58 -52 127 -61 49 -7 57
-4 120 33 84 49 177 96 244 123 l51 20 -7 -287 c-9 -374 -28 -471 -109 -557
-30 -32 -30 -32 -18 -91 20 -94 59 -159 103 -168 11 -2 41 30 94 102 103 141
209 273 319 400 105 121 129 155 120 170 -14 23 -40 5 -172 -116 -76 -69 -157
-140 -181 -156 l-43 -29 6 83 c29 427 40 508 84 603 15 34 43 78 60 98 l33 37
-21 29 c-32 44 -128 73 -211 64z"/>
</g>
</svg>
