<?xml version="1.0" standalone="no"?>
<!DOCTYPE svg PUBLIC "-//W3C//DTD SVG 20010904//EN"
 "http://www.w3.org/TR/2001/REC-SVG-20010904/DTD/svg10.dtd">
<svg version="1.0" xmlns="http://www.w3.org/2000/svg"
 width="340.000000pt" height="340.000000pt" viewBox="0 0 340.000000 340.000000"
 preserveAspectRatio="xMidYMid meet">
<metadata>
Created by potrace 1.15, written by Peter Selinger 2001-2017
</metadata>
<g transform="translate(0.000000,340.000000) scale(0.100000,-0.100000)"
fill="#000000" stroke="none">
<path d="M2125 2840 c-4 -6 4 -37 19 -68 14 -32 32 -98 41 -147 18 -106 39
-455 28 -466 -7 -7 -206 -46 -320 -63 l-43 -6 0 76 c0 42 5 129 11 195 9 96 9
122 -2 135 -20 24 -79 51 -160 74 -62 17 -75 18 -87 6 -17 -17 -5 -45 39 -91
48 -51 62 -105 67 -267 2 -82 3 -148 1 -148 -53 -6 -311 -68 -312 -75 -1 -5
23 -20 53 -33 49 -20 65 -22 158 -16 l102 6 0 -165 0 -166 -52 -10 c-95 -20
-322 -51 -371 -51 -55 0 -70 -19 -41 -51 43 -48 125 -74 164 -54 15 8 87 25
159 38 l131 24 0 -42 c0 -63 -29 -220 -57 -304 -68 -208 -166 -344 -398 -549
l-60 -53 37 5 c20 2 70 21 110 41 295 148 469 438 503 841 l7 81 52 12 c83 18
238 41 276 41 l35 0 -2 -302 c-3 -304 -10 -417 -40 -581 -18 -104 -15 -129 27
-230 41 -100 65 -129 99 -125 48 5 54 60 44 403 -4 165 -8 426 -8 580 l0 280
150 3 c83 2 214 -2 292 -8 152 -13 207 -9 217 17 16 41 -47 86 -187 133 -76
26 -79 26 -175 14 -53 -7 -141 -22 -196 -34 -54 -11 -100 -20 -102 -20 -2 0
-4 76 -4 169 0 152 2 170 18 176 9 3 76 10 147 15 231 16 279 51 153 114 -61
31 -118 33 -235 11 -43 -8 -79 -15 -80 -15 -15 0 12 319 33 409 22 92 20 119
-13 154 -50 53 -211 115 -228 87z m93 -967 l-3 -167 -30 -8 c-16 -4 -92 -19
-167 -33 -75 -14 -144 -28 -152 -31 -14 -5 -16 14 -16 165 0 128 3 173 13 176
16 7 317 63 340 64 16 1 17 -11 15 -166z"/>
<path d="M915 2670 c-4 -6 5 -26 19 -45 45 -59 289 -245 322 -245 27 0 49 51
47 112 -2 100 -41 142 -158 172 -67 18 -220 21 -230 6z"/>
<path d="M923 1956 c-85 -99 -188 -144 -394 -173 -100 -14 -119 -19 -119 -34
0 -24 73 -85 127 -105 l44 -17 127 61 c161 77 244 113 249 109 2 -2 -4 -148
-12 -325 -12 -256 -19 -331 -34 -374 -24 -71 -57 -135 -92 -179 -27 -35 -28
-38 -18 -103 11 -77 37 -136 72 -159 25 -16 26 -16 67 38 23 30 143 152 266
271 272 262 286 290 100 190 -56 -30 -133 -73 -171 -95 -92 -54 -98 -53 -91 7
4 26 18 178 31 337 14 160 28 304 31 320 9 43 41 103 80 152 19 23 32 48 28
56 -11 29 -135 67 -220 67 -26 0 -40 -9 -71 -44z"/>
</g>
</svg>
