<?xml version="1.0" standalone="no"?>
<!DOCTYPE svg PUBLIC "-//W3C//DTD SVG 20010904//EN"
 "http://www.w3.org/TR/2001/REC-SVG-20010904/DTD/svg10.dtd">
<svg version="1.0" xmlns="http://www.w3.org/2000/svg"
 width="340.000000pt" height="340.000000pt" viewBox="0 0 340.000000 340.000000"
 preserveAspectRatio="xMidYMid meet">
<metadata>
Created by potrace 1.15, written by Peter Selinger 2001-2017
</metadata>
<g transform="translate(0.000000,340.000000) scale(0.100000,-0.100000)"
fill="#000000" stroke="none">
<path d="M882 2602 c-18 -12 18 -55 101 -120 79 -63 139 -97 213 -122 l59 -21
28 31 c19 21 27 41 27 67 0 54 -67 115 -157 144 -73 23 -248 37 -271 21z"/>
<path d="M2660 2422 c-19 -2 -102 -19 -185 -37 -271 -61 -533 -106 -927 -160
-98 -13 -183 -27 -188 -30 -22 -14 -7 -37 35 -56 77 -34 124 -33 330 5 223 41
491 79 509 73 26 -10 58 -178 76 -392 27 -327 21 -886 -10 -1032 -17 -77 -25
-80 -127 -54 -108 27 -203 38 -203 23 0 -6 23 -30 51 -54 28 -24 93 -95 144
-158 52 -64 105 -122 119 -130 24 -12 29 -11 53 6 66 49 124 170 144 297 13
82 8 443 -12 809 -12 222 -10 283 18 508 6 48 -27 95 -104 147 -49 32 -58 43
-45 48 9 4 136 10 282 14 295 9 340 18 340 65 0 59 -169 120 -300 108z"/>
<path d="M995 1917 c-50 -76 -223 -146 -443 -178 -75 -11 -141 -24 -146 -29
-16 -15 1 -34 60 -70 51 -31 66 -35 124 -35 59 1 79 7 210 67 80 36 155 69
168 72 l22 7 0 -213 c0 -380 -19 -491 -96 -588 -34 -43 -36 -48 -30 -99 7 -61
39 -142 66 -166 25 -23 36 -15 145 110 48 55 164 174 257 265 212 208 219 232
38 130 -47 -26 -127 -69 -177 -94 l-93 -46 0 162 c1 296 37 469 117 558 l46
51 -17 35 c-21 44 -85 75 -172 82 -58 4 -63 3 -79 -21z"/>
<path d="M1856 1879 c-60 -32 -201 -58 -261 -48 -60 9 -155 11 -155 3 0 -3 13
-34 29 -68 39 -81 57 -155 76 -306 16 -132 45 -212 77 -218 23 -4 38 34 38 93
0 24 3 46 8 49 4 2 73 12 152 21 190 21 220 29 220 58 0 12 -11 38 -24 57
l-24 35 26 45 c14 25 45 78 69 118 25 39 43 80 41 89 -4 22 -61 60 -108 73
-80 21 -123 21 -164 -1z m32 -101 c23 -23 4 -245 -23 -268 -6 -5 -53 -21 -104
-34 -67 -18 -93 -22 -96 -13 -6 20 -44 271 -41 274 5 5 210 51 232 52 11 1 25
-4 32 -11z"/>
</g>
</svg>
