<?xml version="1.0" standalone="no"?>
<!DOCTYPE svg PUBLIC "-//W3C//DTD SVG 20010904//EN"
 "http://www.w3.org/TR/2001/REC-SVG-20010904/DTD/svg10.dtd">
<svg version="1.0" xmlns="http://www.w3.org/2000/svg"
 width="340.000000pt" height="340.000000pt" viewBox="0 0 340.000000 340.000000"
 preserveAspectRatio="xMidYMid meet">
<metadata>
Created by potrace 1.15, written by Peter Selinger 2001-2017
</metadata>
<g transform="translate(0.000000,340.000000) scale(0.100000,-0.100000)"
fill="#000000" stroke="none">
<path d="M2101 2525 c-11 -15 -21 -32 -21 -37 0 -18 -106 -122 -182 -179 -43
-31 -117 -81 -165 -111 l-88 -53 -87 -1 c-48 0 -91 -3 -94 -7 -4 -4 2 -25 14
-46 60 -107 89 -377 79 -741 -8 -270 -29 -347 -126 -465 -36 -44 -41 -56 -41
-100 0 -60 26 -115 62 -133 37 -17 52 -8 103 64 47 65 55 73 260 242 162 134
225 196 203 200 -9 2 -93 -35 -187 -82 -94 -48 -172 -86 -173 -86 -5 0 2 1064
7 1085 3 16 27 28 106 54 121 39 113 44 154 -85 32 -101 94 -346 89 -355 -2
-3 -62 -26 -134 -50 -99 -33 -130 -48 -130 -61 0 -25 54 -32 168 -22 53 5 105
9 115 9 15 0 25 -21 51 -105 98 -319 228 -554 394 -712 165 -156 301 -236 418
-246 75 -6 80 3 63 104 -6 38 -14 170 -18 294 l-7 225 -28 -60 c-15 -33 -39
-91 -53 -130 -34 -94 -71 -165 -89 -172 -8 -3 -44 9 -80 27 -132 65 -296 269
-394 488 -47 105 -127 330 -119 335 2 1 65 15 141 30 151 30 302 77 327 101
20 21 7 44 -40 69 -50 27 -122 16 -300 -42 -82 -27 -151 -46 -153 -42 -13 21
-28 205 -24 282 7 108 -1 122 -97 168 l-60 29 67 31 c38 16 125 51 195 77 222
81 238 88 241 111 6 41 -134 99 -289 118 -53 7 -57 5 -78 -20z"/>
<path d="M830 2471 c0 -13 136 -166 212 -238 72 -69 108 -84 147 -62 42 24 47
57 21 139 -23 71 -25 73 -74 96 -103 47 -306 90 -306 65z"/>
<path d="M935 1769 c-99 -98 -271 -164 -457 -176 -53 -3 -102 -9 -109 -14 -41
-25 79 -110 175 -124 38 -6 54 -1 162 53 119 61 215 102 236 102 16 0 4 -330
-21 -535 -21 -177 -30 -211 -81 -285 -17 -25 -30 -58 -30 -75 0 -72 41 -158
79 -168 15 -4 31 10 69 62 63 85 219 235 390 375 72 60 132 113 132 118 0 13
-37 1 -87 -28 -52 -30 -360 -184 -368 -184 -11 0 -5 135 15 333 30 295 39 331
113 434 26 37 29 46 19 67 -20 46 -116 98 -172 95 -8 0 -37 -23 -65 -50z"/>
<path d="M1928 919 c-10 -5 -18 -14 -18 -20 0 -17 91 -109 167 -170 67 -53 75
-57 104 -49 17 5 37 14 45 21 35 29 -4 147 -58 175 -34 18 -171 54 -202 54
-12 0 -29 -5 -38 -11z"/>
</g>
</svg>
