<?xml version="1.0" standalone="no"?>
<!DOCTYPE svg PUBLIC "-//W3C//DTD SVG 20010904//EN"
 "http://www.w3.org/TR/2001/REC-SVG-20010904/DTD/svg10.dtd">
<svg version="1.0" xmlns="http://www.w3.org/2000/svg"
 width="340.000000pt" height="340.000000pt" viewBox="0 0 340.000000 340.000000"
 preserveAspectRatio="xMidYMid meet">
<metadata>
Created by potrace 1.15, written by Peter Selinger 2001-2017
</metadata>
<g transform="translate(0.000000,340.000000) scale(0.100000,-0.100000)"
fill="#000000" stroke="none">
<path d="M1870 2985 c-14 -17 -12 -24 35 -88 56 -79 72 -147 80 -354 4 -101 5
-183 2 -183 -15 0 -359 -79 -364 -84 -15 -15 12 -37 62 -51 48 -14 71 -15 156
-6 156 17 139 32 139 -123 0 -119 -2 -135 -17 -140 -66 -21 -564 -96 -634 -96
-72 0 -59 -59 18 -84 74 -24 104 -22 318 21 281 58 383 76 399 70 8 -3 21 -27
30 -54 20 -60 40 -213 29 -224 -8 -8 -505 -82 -636 -95 -46 -5 -71 -12 -74
-21 -7 -18 5 -27 73 -52 48 -19 57 -19 174 -5 67 8 201 27 298 44 97 16 178
27 181 24 9 -9 7 -653 -2 -715 -13 -88 -21 -94 -116 -92 -44 1 -103 9 -131 18
-88 29 -92 18 -23 -57 34 -36 87 -105 119 -153 65 -99 114 -155 137 -155 23 0
98 89 130 153 57 117 69 258 47 577 -5 74 -12 203 -16 286 l-7 152 34 8 c19 4
128 7 242 6 231 -1 235 0 200 60 -47 81 -164 104 -352 69 -63 -11 -117 -19
-120 -16 -2 3 1 35 8 71 13 61 12 68 -6 92 -10 15 -50 43 -88 62 l-70 35 77
12 c163 24 300 33 534 33 133 0 249 3 258 6 22 8 20 46 -4 76 -28 37 -104 66
-206 79 -98 12 -62 18 -497 -77 -92 -20 -169 -35 -171 -33 -1 2 0 64 3 138 l6
135 135 27 c154 30 233 57 238 81 2 8 -7 28 -20 42 -18 21 -38 30 -88 38 -60
10 -73 9 -158 -15 -51 -15 -96 -27 -100 -27 -10 0 5 206 24 314 8 49 23 109
34 134 14 31 17 49 10 62 -14 25 -83 55 -174 74 -97 20 -140 20 -156 1z"/>
<path d="M933 2766 c-18 -8 -33 -20 -33 -25 0 -18 50 -65 180 -171 163 -132
182 -136 201 -49 13 56 3 113 -27 166 -20 34 -34 45 -81 63 -74 28 -197 36
-240 16z"/>
<path d="M858 2126 c-90 -85 -226 -139 -385 -153 -69 -6 -73 -7 -73 -30 0 -34
44 -71 105 -89 61 -17 70 -15 265 80 63 31 122 56 131 56 12 0 18 -11 22 -37
7 -55 -12 -596 -23 -676 -18 -120 -63 -222 -111 -247 -22 -13 -25 -52 -8 -132
9 -39 22 -63 49 -90 21 -21 44 -38 52 -38 8 0 36 30 63 68 27 37 136 154 242
261 106 106 193 200 193 207 0 31 -68 7 -169 -60 -71 -46 -132 -79 -170 -91
l-23 -7 6 143 c27 588 40 665 130 748 33 31 33 42 0 81 -41 48 -74 60 -161 60
l-78 -1 -57 -53z"/>
<path d="M1544 1306 c-3 -9 -3 -28 1 -43 17 -69 172 -253 213 -253 54 0 79
115 40 190 -19 37 -34 51 -88 78 -79 39 -156 53 -166 28z"/>
</g>
</svg>
