<?xml version="1.0" standalone="no"?>
<!DOCTYPE svg PUBLIC "-//W3C//DTD SVG 20010904//EN"
 "http://www.w3.org/TR/2001/REC-SVG-20010904/DTD/svg10.dtd">
<svg version="1.0" xmlns="http://www.w3.org/2000/svg"
 width="340.000000pt" height="340.000000pt" viewBox="0 0 340.000000 340.000000"
 preserveAspectRatio="xMidYMid meet">
<metadata>
Created by potrace 1.15, written by Peter Selinger 2001-2017
</metadata>
<g transform="translate(0.000000,340.000000) scale(0.100000,-0.100000)"
fill="#000000" stroke="none">
<path d="M1814 2639 c34 -217 29 -285 -40 -600 -5 -24 -15 -28 -92 -47 -48
-11 -138 -30 -200 -43 -111 -22 -139 -36 -114 -61 5 -5 37 -13 71 -17 55 -7
102 -4 249 14 33 4 42 1 42 -10 0 -26 -95 -305 -140 -410 -115 -271 -253 -485
-427 -666 -48 -49 -84 -91 -81 -94 13 -13 102 32 181 91 150 113 282 287 368
487 l47 108 38 -81 c65 -140 143 -181 174 -93 13 40 13 45 -7 87 -23 47 -72
82 -145 106 -21 6 -38 12 -38 13 0 1 23 54 50 117 27 63 69 175 92 248 50 153
23 134 243 176 579 110 588 112 600 144 14 37 -57 87 -137 98 -58 8 -189 -24
-420 -102 -191 -65 -218 -72 -218 -54 0 27 95 290 135 377 25 53 45 101 45
107 0 23 -59 83 -110 110 -33 18 -73 30 -112 34 l-61 5 7 -44z"/>
<path d="M880 2522 c0 -24 101 -134 203 -220 96 -82 129 -91 172 -47 33 32 33
81 -1 155 -24 53 -31 60 -82 83 -67 30 -153 47 -234 47 -49 0 -58 -3 -58 -18z"/>
<path d="M897 1866 c-40 -51 -167 -111 -302 -141 -60 -14 -122 -25 -137 -25
-38 0 -55 -33 -34 -66 20 -29 113 -84 144 -84 27 0 104 38 222 109 47 28 91
51 98 51 16 0 16 -98 -3 -390 -20 -304 -35 -363 -119 -474 -53 -69 -44 -150
24 -218 50 -50 74 -49 106 5 119 197 163 268 261 411 95 139 173 271 173 291
0 3 -6 5 -13 5 -16 0 -88 -75 -202 -210 -48 -58 -95 -112 -103 -120 -13 -13
-14 2 -8 125 8 206 34 425 56 491 11 31 36 85 55 120 19 34 35 69 35 78 0 29
-86 68 -158 73 -67 5 -67 5 -95 -31z"/>
<path d="M2003 1804 c-3 -9 4 -55 16 -103 36 -149 24 -341 -32 -506 -96 -282
-291 -488 -609 -646 -60 -30 -108 -57 -108 -62 0 -13 100 4 195 34 274 87 470
254 582 496 19 42 38 71 43 67 4 -5 67 -97 138 -204 237 -355 238 -356 283
-374 23 -10 85 -20 138 -23 107 -6 370 13 386 28 16 16 -19 36 -127 69 -136
42 -293 124 -418 219 -99 75 -279 249 -346 336 l-31 40 38 210 c22 115 46 233
54 261 21 73 19 89 -15 118 -48 39 -176 67 -187 40z"/>
<path d="M2412 1702 c-5 -9 -12 -46 -15 -82 -7 -78 -46 -198 -98 -302 -73
-146 -49 -135 149 69 89 91 162 175 162 184 0 26 -57 87 -102 110 -72 37 -87
40 -96 21z"/>
</g>
</svg>
