<?xml version="1.0" standalone="no"?>
<!DOCTYPE svg PUBLIC "-//W3C//DTD SVG 20010904//EN"
 "http://www.w3.org/TR/2001/REC-SVG-20010904/DTD/svg10.dtd">
<svg version="1.0" xmlns="http://www.w3.org/2000/svg"
 width="340.000000pt" height="340.000000pt" viewBox="0 0 340.000000 340.000000"
 preserveAspectRatio="xMidYMid meet">
<metadata>
Created by potrace 1.15, written by Peter Selinger 2001-2017
</metadata>
<g transform="translate(0.000000,340.000000) scale(0.100000,-0.100000)"
fill="#000000" stroke="none">
<path d="M2091 2841 c-12 -8 -11 -23 12 -98 57 -185 60 -237 65 -988 3 -513 0
-739 -10 -880 -20 -289 -18 -349 14 -417 19 -42 33 -59 52 -64 35 -8 42 -2 66
63 29 78 40 261 29 483 -4 96 -8 194 -8 216 l-1 41 133 7 c269 14 414 39 452
77 l20 20 -32 29 c-51 46 -102 55 -203 37 -47 -9 -134 -32 -195 -50 -60 -19
-127 -37 -147 -40 l-38 -6 0 178 0 178 103 6 c122 8 244 30 286 52 45 23 42
68 -6 94 -43 22 -118 12 -254 -34 -73 -25 -134 -45 -136 -45 -1 0 -3 77 -3
170 0 94 2 170 5 170 41 0 318 35 370 47 128 29 156 56 104 104 -59 55 -117
52 -299 -16 -67 -25 -134 -48 -151 -52 l-29 -5 0 53 c0 89 20 277 41 384 10
55 19 123 19 152 0 46 -3 54 -29 72 -81 58 -190 87 -230 62z"/>
<path d="M841 2659 c-20 -8 -21 -11 -10 -25 7 -9 37 -31 66 -50 28 -18 92 -63
140 -100 104 -79 188 -122 212 -107 22 14 39 89 31 136 -13 70 -79 117 -199
143 -75 15 -204 17 -240 3z"/>
<path d="M1653 2519 c-30 -11 -29 -27 7 -103 34 -73 67 -228 72 -336 l3 -74
-35 -7 c-287 -60 -400 -91 -400 -111 0 -16 67 -38 117 -38 26 0 77 7 113 16
55 13 209 44 218 44 1 0 1 -55 0 -121 l-3 -121 -120 -29 c-181 -44 -305 -84
-305 -99 0 -5 31 -19 69 -31 l69 -22 108 26 c60 14 124 28 142 32 l33 7 -3
-113 -3 -113 -214 -77 c-117 -43 -218 -82 -223 -87 -20 -20 36 -36 122 -36 74
0 100 5 204 42 66 23 121 41 122 39 6 -5 -26 -211 -47 -311 -12 -55 -19 -117
-17 -140 7 -54 49 -156 70 -170 24 -15 34 -2 63 80 41 118 47 240 44 904 -2
561 -1 624 16 723 13 77 16 118 9 144 -8 34 -14 38 -74 58 -83 28 -129 35
-157 24z"/>
<path d="M875 1929 c-99 -83 -183 -117 -409 -166 -21 -4 -44 -16 -50 -26 -15
-25 10 -42 98 -69 55 -17 75 -19 95 -10 14 6 78 33 141 61 63 27 123 51 133
53 18 3 19 -6 18 -127 -2 -174 -19 -428 -33 -484 -16 -67 -55 -140 -100 -189
-44 -48 -44 -48 -7 -169 22 -72 49 -109 72 -100 9 3 43 47 77 97 79 118 147
198 280 335 117 119 143 155 113 155 -20 0 -114 -52 -235 -130 l-78 -49 0 47
c0 76 19 306 36 437 18 133 31 165 98 243 25 30 46 62 46 72 0 27 -92 63 -170
67 l-65 3 -60 -51z"/>
</g>
</svg>
