<?xml version="1.0" standalone="no"?>
<!DOCTYPE svg PUBLIC "-//W3C//DTD SVG 20010904//EN"
 "http://www.w3.org/TR/2001/REC-SVG-20010904/DTD/svg10.dtd">
<svg version="1.0" xmlns="http://www.w3.org/2000/svg"
 width="340.000000pt" height="340.000000pt" viewBox="0 0 340.000000 340.000000"
 preserveAspectRatio="xMidYMid meet">
<metadata>
Created by potrace 1.15, written by Peter Selinger 2001-2017
</metadata>
<g transform="translate(0.000000,340.000000) scale(0.100000,-0.100000)"
fill="#000000" stroke="none">
<path d="M1786 2843 c-3 -4 -6 -46 -6 -94 0 -226 -180 -608 -482 -1021 -23
-32 -39 -60 -36 -63 2 -3 33 14 67 37 71 47 204 183 277 282 l49 68 6 -45 c19
-128 31 -469 26 -710 -6 -257 -21 -437 -53 -607 -9 -47 -16 -103 -16 -125 0
-82 70 -215 112 -215 40 0 64 123 76 382 l7 147 40 -21 c46 -23 42 -23 298 16
199 30 438 47 609 45 130 -2 170 7 170 37 0 30 -33 72 -73 95 -55 30 -117 28
-341 -10 -98 -17 -180 -31 -182 -31 -2 0 -4 64 -4 143 l0 143 113 21 c181 33
241 70 190 115 -29 25 -82 29 -187 13 -55 -8 -103 -15 -108 -15 -4 0 -8 54 -8
119 l0 119 73 22 c110 33 207 80 207 100 0 47 -67 59 -183 31 -49 -12 -90 -21
-92 -21 -2 0 7 39 20 87 l24 87 -44 43 c-24 24 -38 46 -32 48 7 2 48 9 92 15
155 24 281 74 292 117 7 29 4 33 -41 43 -56 12 -170 -6 -403 -66 -117 -30
-237 -59 -265 -64 -82 -16 -128 -30 -128 -40 0 -17 85 -33 215 -39 l130 -6 6
-125 c3 -69 3 -128 0 -131 -3 -4 -58 -19 -122 -33 -79 -18 -123 -34 -135 -47
-32 -35 -6 -44 139 -45 l132 -1 0 -123 0 -124 -110 -26 c-60 -15 -128 -31
-149 -36 -107 -24 -2 -69 157 -68 l108 1 -3 -141 -3 -140 -35 -8 c-71 -16
-364 -57 -369 -52 -3 3 -6 245 -6 537 -1 480 -2 535 -18 564 -15 29 -55 67
-78 75 -6 2 14 44 44 93 29 50 96 171 147 270 51 99 104 197 117 217 27 44 21
71 -26 110 -35 30 -188 68 -205 51z"/>
<path d="M887 2634 c-14 -5 -10 -15 30 -67 70 -92 148 -163 216 -197 71 -35
97 -37 123 -9 40 44 4 172 -59 214 -65 42 -248 77 -310 59z"/>
<path d="M2143 2580 c-29 -12 -29 -17 5 -71 39 -59 118 -132 180 -163 68 -34
80 -33 98 11 13 31 14 44 4 78 -30 98 -195 182 -287 145z"/>
<path d="M970 2009 c-56 -49 -176 -112 -255 -133 -33 -9 -111 -23 -173 -31
-63 -7 -117 -16 -120 -20 -22 -21 64 -78 146 -96 68 -16 123 -4 271 61 63 28
119 50 124 50 5 0 7 -23 3 -52 -3 -29 -13 -189 -21 -355 -11 -208 -20 -316
-31 -345 -21 -60 -60 -123 -90 -147 -24 -19 -26 -26 -21 -66 8 -54 51 -146 82
-175 32 -31 49 -19 146 103 45 56 167 186 270 288 128 126 189 193 189 208 0
12 -6 21 -15 21 -17 0 -171 -101 -310 -204 -49 -36 -93 -66 -97 -66 -5 0 -6
17 -4 38 3 20 8 91 11 157 13 272 53 477 117 603 l42 82 -20 28 c-23 31 -112
78 -164 86 -30 4 -41 0 -80 -35z"/>
</g>
</svg>
