<?xml version="1.0" standalone="no"?>
<!DOCTYPE svg PUBLIC "-//W3C//DTD SVG 20010904//EN"
 "http://www.w3.org/TR/2001/REC-SVG-20010904/DTD/svg10.dtd">
<svg version="1.0" xmlns="http://www.w3.org/2000/svg"
 width="340.000000pt" height="340.000000pt" viewBox="0 0 340.000000 340.000000"
 preserveAspectRatio="xMidYMid meet">
<metadata>
Created by potrace 1.15, written by Peter Selinger 2001-2017
</metadata>
<g transform="translate(0.000000,340.000000) scale(0.100000,-0.100000)"
fill="#000000" stroke="none">
<path d="M1843 2583 c-26 -10 -10 -35 78 -120 118 -114 173 -153 216 -153 26
0 36 6 48 30 20 38 19 105 -1 139 -22 38 -100 88 -154 100 -46 11 -165 13
-187 4z"/>
<path d="M856 2431 c-11 -17 3 -33 114 -132 212 -187 269 -195 258 -36 -5 73
-27 104 -103 142 -52 26 -73 30 -161 33 -67 3 -104 0 -108 -7z"/>
<path d="M2505 2250 c-184 -61 -533 -135 -784 -166 l-124 -15 -43 42 c-52 51
-74 48 -74 -9 0 -21 -18 -90 -41 -153 -57 -160 -72 -233 -54 -274 16 -40 29
-49 59 -41 32 8 75 94 121 238 l38 117 46 7 c25 3 82 12 126 20 432 76 561 95
650 97 l100 2 3 -26 c2 -17 -14 -59 -42 -114 -47 -89 -55 -115 -34 -115 6 0
51 21 100 46 55 28 132 56 200 74 60 15 117 35 126 43 13 14 12 21 -18 66 -89
140 -228 203 -355 161z"/>
<path d="M949 1824 c-42 -46 -135 -113 -206 -149 -73 -37 -205 -75 -260 -75
-19 0 -43 -5 -54 -11 -17 -8 -18 -13 -8 -25 21 -26 88 -55 149 -66 93 -16 177
17 314 123 l29 23 -6 -275 c-9 -410 -22 -470 -127 -600 -19 -22 -20 -30 -10
-72 16 -74 50 -137 84 -158 17 -10 34 -19 39 -19 4 0 33 39 64 88 87 135 137
196 280 343 73 75 133 144 133 153 0 38 -62 10 -157 -71 -104 -88 -217 -166
-221 -153 -6 16 15 327 33 503 16 156 31 198 94 271 24 27 48 61 54 74 10 22
8 28 -28 59 -35 31 -115 63 -155 63 -9 0 -27 -12 -41 -26z"/>
<path d="M2107 1744 c-134 -58 -301 -81 -421 -60 l-49 9 6 -64 c21 -233 28
-423 25 -694 l-3 -310 -80 -11 c-44 -7 -149 -18 -233 -25 -167 -14 -196 -25
-154 -60 39 -31 133 -61 177 -56 22 2 96 16 165 30 180 38 360 56 664 67 273
10 343 7 541 -25 85 -14 91 -14 115 4 14 10 27 26 28 35 5 22 -70 95 -123 121
-48 23 -154 26 -295 8 -61 -8 -98 -9 -104 -3 -13 13 10 567 29 685 8 50 23
117 35 149 11 33 20 65 20 73 0 21 -69 92 -117 120 -64 37 -149 40 -226 7z
m97 -113 c36 -69 45 -336 25 -731 -6 -118 -12 -216 -13 -218 -2 -2 -378 -42
-398 -42 -5 0 -8 67 -8 148 l0 149 103 6 c124 8 190 25 196 52 2 10 -5 25 -15
32 -30 22 -83 17 -261 -24 -23 -5 -23 -5 -23 121 0 93 3 128 13 130 6 2 54 9
106 16 175 23 232 51 180 91 -41 32 -86 34 -184 9 -49 -12 -96 -25 -103 -28
-10 -3 -12 23 -10 124 l3 128 35 9 c126 33 242 56 287 56 48 1 54 -2 67 -28z"/>
</g>
</svg>
