<?xml version="1.0" standalone="no"?>
<!DOCTYPE svg PUBLIC "-//W3C//DTD SVG 20010904//EN"
 "http://www.w3.org/TR/2001/REC-SVG-20010904/DTD/svg10.dtd">
<svg version="1.0" xmlns="http://www.w3.org/2000/svg"
 width="340.000000pt" height="340.000000pt" viewBox="0 0 340.000000 340.000000"
 preserveAspectRatio="xMidYMid meet">
<metadata>
Created by potrace 1.15, written by Peter Selinger 2001-2017
</metadata>
<g transform="translate(0.000000,340.000000) scale(0.100000,-0.100000)"
fill="#000000" stroke="none">
<path d="M2003 2854 c-12 -32 181 -197 261 -224 44 -14 81 0 102 41 21 41 7
95 -36 137 -24 24 -45 33 -117 46 -116 21 -202 21 -210 0z"/>
<path d="M974 2725 c-11 -29 134 -210 231 -289 59 -48 93 -57 119 -31 38 39
27 169 -20 225 -59 69 -312 142 -330 95z"/>
<path d="M2400 2540 c-316 -66 -441 -89 -535 -100 -178 -22 -190 -24 -193 -43
-3 -12 9 -23 40 -37 83 -36 130 -36 377 6 127 21 234 35 238 30 4 -4 8 -40 8
-79 -1 -78 -22 -154 -82 -294 l-35 -82 -51 -10 c-29 -6 -129 -24 -224 -40
l-172 -30 -72 25 c-57 20 -78 23 -96 15 -27 -13 -28 -25 -6 -82 13 -34 16 -76
16 -184 -2 -243 -46 -426 -149 -624 -71 -137 -133 -221 -266 -356 -64 -64
-103 -111 -95 -113 22 -5 121 43 174 83 70 53 178 161 229 229 153 203 254
533 254 828 0 46 4 80 11 84 11 6 162 30 669 103 113 17 261 35 330 41 138 13
170 22 170 46 0 27 -72 92 -111 99 -36 7 -97 -5 -367 -70 -85 -20 -156 -35
-158 -32 -5 5 134 205 197 282 27 33 49 66 49 73 0 20 -46 61 -91 81 -23 10
-37 21 -32 24 4 3 60 10 123 17 129 13 173 31 178 72 2 18 -5 32 -24 47 -37
29 -133 27 -304 -9z"/>
<path d="M1854 2225 c11 -45 53 -129 85 -172 26 -36 37 -43 65 -43 45 0 66 29
66 92 0 45 -2 49 -52 87 -61 45 -96 61 -140 61 -27 0 -30 -2 -24 -25z"/>
<path d="M982 2066 c-81 -71 -184 -126 -278 -150 -56 -14 -216 -35 -271 -36
-34 0 -28 -25 15 -58 56 -44 117 -72 157 -72 50 0 175 43 268 93 l78 42 20
-24 c17 -21 19 -40 19 -220 -1 -243 -14 -440 -35 -508 -14 -47 -45 -89 -99
-132 -50 -39 62 -247 120 -224 7 3 43 46 79 96 35 51 130 169 210 262 148 173
223 271 213 280 -3 3 -38 -19 -79 -48 -41 -29 -122 -88 -180 -130 -58 -42
-109 -77 -112 -77 -10 0 -8 98 3 230 6 63 15 178 20 255 10 161 29 225 91 307
21 29 39 58 39 64 0 21 -87 90 -128 102 -62 19 -73 15 -150 -52z"/>
<path d="M2270 1751 c-42 -82 -153 -182 -347 -312 -144 -97 -137 -108 31 -48
93 34 198 90 319 171 48 32 114 70 147 85 66 28 74 46 38 80 -34 30 -64 44
-119 52 l-50 8 -19 -36z"/>
<path d="M2333 1457 c-6 -6 -20 -34 -33 -62 -45 -93 -190 -217 -385 -327 -94
-53 -125 -75 -125 -89 0 -23 247 55 367 116 49 24 117 68 153 97 36 29 95 73
132 98 l67 47 -25 41 c-36 60 -129 109 -151 79z"/>
<path d="M2430 1131 c-5 -11 -10 -32 -10 -46 0 -84 -134 -260 -307 -405 -169
-141 -309 -227 -488 -300 -49 -20 -9 -31 71 -19 239 34 480 167 704 390 36 36
109 105 163 154 53 48 97 94 97 101 0 26 -98 111 -146 128 -61 21 -71 20 -84
-3z"/>
</g>
</svg>
