<?xml version="1.0" standalone="no"?>
<!DOCTYPE svg PUBLIC "-//W3C//DTD SVG 20010904//EN"
 "http://www.w3.org/TR/2001/REC-SVG-20010904/DTD/svg10.dtd">
<svg version="1.0" xmlns="http://www.w3.org/2000/svg"
 width="340.000000pt" height="340.000000pt" viewBox="0 0 340.000000 340.000000"
 preserveAspectRatio="xMidYMid meet">
<metadata>
Created by potrace 1.15, written by Peter Selinger 2001-2017
</metadata>
<g transform="translate(0.000000,340.000000) scale(0.100000,-0.100000)"
fill="#000000" stroke="none">
<path d="M2213 2653 c-16 -6 -17 -44 -1 -78 16 -36 -4 -178 -43 -297 -36 -112
-117 -283 -206 -436 l-65 -114 -34 32 c-39 39 -88 128 -103 190 -36 142 -111
208 -98 86 10 -92 64 -240 118 -321 l51 -76 -37 -47 c-21 -26 -102 -110 -181
-188 -197 -192 -192 -213 16 -77 70 46 149 110 203 163 l89 88 42 -24 c81 -47
162 -66 311 -71 121 -5 152 -3 224 16 99 25 185 69 189 98 2 14 -13 33 -50 63
-29 24 -94 86 -144 139 -51 53 -95 93 -98 90 -3 -3 5 -39 19 -80 15 -44 25
-90 23 -114 -3 -39 -4 -40 -53 -53 -69 -18 -264 -10 -330 13 -27 10 -52 19
-53 21 -2 1 24 44 58 96 74 112 195 352 274 545 32 79 65 148 72 154 26 21 16
65 -20 95 -72 60 -145 96 -173 87z"/>
<path d="M903 2524 c-10 -28 28 -83 112 -161 152 -142 233 -164 251 -67 16 87
-66 188 -181 223 -83 26 -173 28 -182 5z"/>
<path d="M1710 2416 c0 -34 40 -92 123 -178 78 -82 109 -89 133 -33 20 49 18
107 -5 137 -31 38 -134 89 -196 95 -54 6 -55 6 -55 -21z"/>
<path d="M2453 2203 c-24 -2 -43 -8 -43 -13 0 -33 348 -224 398 -218 38 5 48
28 33 78 -20 67 -75 119 -144 135 -67 16 -184 24 -244 18z"/>
<path d="M1455 1903 c-10 -21 -38 -78 -62 -128 -49 -98 -67 -191 -43 -220 18
-22 26 -19 75 26 63 58 105 146 105 220 0 64 -24 139 -45 139 -7 0 -21 -17
-30 -37z"/>
<path d="M886 1856 c-86 -78 -215 -134 -363 -156 -95 -15 -123 -25 -123 -45 0
-20 131 -85 171 -85 20 0 87 29 181 77 104 54 152 73 159 66 21 -21 28 -87 18
-172 -5 -47 -13 -158 -18 -246 -11 -170 -27 -268 -60 -356 -20 -51 -31 -72
-74 -132 -17 -24 -18 -29 -3 -87 16 -62 49 -120 68 -120 5 0 87 79 181 176 93
96 202 201 240 232 76 62 96 89 56 77 -30 -8 -142 -62 -229 -110 -65 -35 -65
-35 -72 -12 -16 55 0 425 23 547 13 66 66 183 110 245 27 38 31 50 23 72 -17
49 -55 66 -151 70 l-88 4 -49 -45z"/>
<path d="M2245 1290 c-230 -65 -638 -130 -765 -124 -95 6 -123 -4 -102 -33 41
-58 53 -84 73 -157 23 -85 69 -337 63 -347 -4 -7 -66 -14 -254 -29 -196 -16
-212 -19 -208 -43 2 -15 23 -32 68 -55 74 -38 86 -39 250 -3 113 25 389 63
624 87 212 21 633 15 828 -11 70 -10 134 -15 143 -11 9 3 15 18 15 35 0 37
-35 66 -135 113 -64 30 -77 32 -160 30 -49 -1 -132 -8 -182 -15 -51 -7 -93
-11 -93 -9 0 2 26 57 58 121 51 102 109 199 167 278 15 20 15 24 -3 60 -26 50
-45 67 -115 98 -78 36 -177 41 -272 15z m99 -100 c17 -6 29 -22 37 -48 10 -34
7 -59 -20 -188 -17 -82 -38 -172 -47 -200 l-15 -52 -67 -6 c-37 -4 -89 -9
-116 -12 -45 -6 -48 -5 -42 12 32 80 116 330 116 344 0 10 -23 44 -51 75 -29
30 -50 57 -48 59 6 6 138 23 186 25 23 0 53 -3 67 -9z m-288 -143 c6 -75 -5
-178 -32 -296 -17 -77 -4 -69 -134 -87 l-45 -6 0 154 c0 144 -2 157 -28 226
-16 40 -27 78 -24 85 2 6 55 21 118 32 l114 21 13 -28 c7 -16 15 -61 18 -101z
m-297 -104 c8 -118 18 -204 28 -231 9 -23 13 -45 10 -48 -8 -9 -186 -28 -193
-21 -8 8 -59 445 -52 452 3 3 39 12 79 19 128 24 114 43 128 -171z"/>
</g>
</svg>
