<?xml version="1.0" standalone="no"?>
<!DOCTYPE svg PUBLIC "-//W3C//DTD SVG 20010904//EN"
 "http://www.w3.org/TR/2001/REC-SVG-20010904/DTD/svg10.dtd">
<svg version="1.0" xmlns="http://www.w3.org/2000/svg"
 width="340.000000pt" height="340.000000pt" viewBox="0 0 340.000000 340.000000"
 preserveAspectRatio="xMidYMid meet">
<metadata>
Created by potrace 1.15, written by Peter Selinger 2001-2017
</metadata>
<g transform="translate(0.000000,340.000000) scale(0.100000,-0.100000)"
fill="#000000" stroke="none">
<path d="M1808 2615 c-13 -14 6 -36 100 -113 347 -282 483 -339 482 -200 -1
73 -79 177 -165 218 -112 53 -395 118 -417 95z"/>
<path d="M1151 2543 c-23 -119 -140 -306 -324 -518 -89 -102 -94 -110 -71
-113 56 -7 188 96 442 342 100 98 182 184 182 190 0 21 -61 105 -92 128 -17
11 -52 23 -78 26 l-47 4 -12 -59z"/>
<path d="M1494 2219 c-4 -7 -9 -47 -10 -89 -2 -91 -21 -143 -101 -272 -96
-155 -201 -287 -343 -429 -159 -160 -257 -239 -440 -359 -173 -114 -213 -142
-218 -157 -17 -53 286 81 527 232 57 36 108 65 113 65 13 0 54 -93 72 -164 9
-32 27 -138 41 -235 34 -228 76 -351 121 -351 21 0 29 21 34 95 l5 70 65 2
c36 2 171 10 300 19 129 9 282 19 340 23 100 6 105 7 108 29 2 15 -7 32 -27
51 l-31 29 20 54 c44 111 119 230 188 296 l25 23 -39 41 c-55 56 -151 123
-226 157 l-64 30 -90 -26 c-107 -30 -319 -75 -500 -107 -127 -22 -137 -22
-211 -8 -43 8 -80 16 -82 18 -2 2 59 68 135 147 143 147 275 309 361 441 26
41 52 75 56 75 5 1 72 -59 150 -131 79 -73 203 -187 277 -253 74 -66 186 -169
249 -229 126 -118 169 -143 258 -152 98 -10 407 37 476 73 28 14 29 17 13 28
-9 7 -75 27 -145 43 -388 92 -777 315 -1212 694 -24 21 -24 22 11 73 17 24 30
50 30 58 0 19 -54 66 -96 83 -50 21 -130 28 -140 13z m458 -1007 c13 -13 -15
-193 -55 -344 l-22 -82 -280 -38 c-154 -20 -285 -37 -291 -38 -10 0 -69 428
-60 437 3 3 67 14 143 24 409 58 539 67 565 41z"/>
</g>
</svg>
