<?xml version="1.0" standalone="no"?>
<!DOCTYPE svg PUBLIC "-//W3C//DTD SVG 20010904//EN"
 "http://www.w3.org/TR/2001/REC-SVG-20010904/DTD/svg10.dtd">
<svg version="1.0" xmlns="http://www.w3.org/2000/svg"
 width="340.000000pt" height="340.000000pt" viewBox="0 0 340.000000 340.000000"
 preserveAspectRatio="xMidYMid meet">
<metadata>
Created by potrace 1.15, written by Peter Selinger 2001-2017
</metadata>
<g transform="translate(0.000000,340.000000) scale(0.100000,-0.100000)"
fill="#000000" stroke="none">
<path d="M1315 2613 c-5 -29 -23 -54 -79 -108 -67 -65 -175 -135 -398 -260
-69 -38 -43 -44 76 -16 137 33 636 247 636 273 0 26 -35 70 -75 93 -33 20
-124 53 -151 55 -1 0 -5 -17 -9 -37z"/>
<path d="M2500 2439 c-71 -38 -241 -80 -460 -115 -178 -27 -220 -43 -207 -77
8 -21 62 -28 155 -21 50 4 82 3 82 -3 0 -27 -56 -171 -105 -268 -94 -188 -272
-413 -445 -562 -50 -42 -90 -81 -90 -85 0 -18 51 -6 116 27 192 97 352 269
568 611 49 78 104 157 122 177 19 20 34 42 34 50 0 16 -34 49 -70 67 -23 13
-19 15 65 31 50 10 133 21 186 25 86 6 96 5 102 -11 13 -31 -13 -233 -39 -318
-38 -120 -130 -287 -158 -287 -6 0 -53 14 -104 32 -50 17 -95 28 -99 24 -4 -3
9 -22 28 -40 19 -19 60 -84 93 -146 32 -61 64 -114 72 -117 22 -8 97 42 148
98 65 72 108 168 162 359 52 185 75 237 134 305 54 62 52 84 -9 144 -43 42
-195 133 -218 130 -4 0 -33 -14 -63 -30z"/>
<path d="M1477 2253 c-4 -3 -7 -17 -7 -30 0 -65 -100 -183 -266 -317 -126
-101 -279 -193 -420 -252 -59 -25 -114 -50 -121 -56 -57 -47 148 -22 286 35
l74 30 19 -23 c10 -12 18 -30 18 -40 0 -33 -187 -190 -396 -333 -166 -114
-177 -139 -41 -92 168 57 278 127 415 259 90 87 91 88 114 14 10 -36 9 -41
-27 -95 -131 -198 -338 -395 -615 -584 -65 -45 -88 -79 -53 -79 32 0 231 97
319 155 47 31 126 95 175 143 82 77 207 230 239 292 l13 24 10 -24 c6 -14 11
-113 11 -220 1 -227 -11 -289 -66 -335 -31 -26 -35 -27 -135 -23 -57 2 -103 1
-103 -1 0 -3 27 -33 59 -66 33 -33 82 -89 108 -125 27 -36 55 -66 64 -68 30
-6 107 76 143 151 53 112 70 207 71 387 0 129 -4 170 -23 245 -38 150 -114
292 -236 442 l-26 31 102 67 c144 94 489 347 495 362 18 48 -164 163 -200 126z"/>
<path d="M1060 2194 c0 -28 149 -194 174 -194 28 0 47 37 44 86 l-3 49 -63 32
c-44 23 -78 33 -108 33 -24 0 -44 -3 -44 -6z"/>
<path d="M700 2053 c0 -30 108 -159 167 -200 l55 -38 20 25 c15 19 19 35 15
66 -6 59 -37 97 -99 124 -55 24 -158 39 -158 23z"/>
<path d="M2420 1324 c-121 -39 -218 -62 -352 -84 -164 -27 -209 -27 -292 -1
-72 22 -121 27 -130 12 -3 -4 8 -33 24 -62 53 -99 97 -292 116 -504 8 -95 28
-152 57 -161 26 -8 45 16 54 68 3 21 9 40 12 43 10 6 271 24 491 34 266 13
293 25 200 94 l-51 38 38 72 c28 53 64 97 136 168 53 52 97 103 97 111 0 46
-108 118 -255 171 l-71 25 -74 -24z m29 -149 c12 -12 16 -37 16 -108 0 -84 -3
-98 -33 -159 -37 -75 -75 -112 -130 -128 -65 -19 -259 -49 -329 -52 l-68 -3
-16 205 c-9 113 -16 206 -15 207 1 2 359 51 411 57 69 7 147 -2 164 -19z"/>
</g>
</svg>
