<?xml version="1.0" standalone="no"?>
<!DOCTYPE svg PUBLIC "-//W3C//DTD SVG 20010904//EN"
 "http://www.w3.org/TR/2001/REC-SVG-20010904/DTD/svg10.dtd">
<svg version="1.0" xmlns="http://www.w3.org/2000/svg"
 width="340.000000pt" height="340.000000pt" viewBox="0 0 340.000000 340.000000"
 preserveAspectRatio="xMidYMid meet">
<metadata>
Created by potrace 1.15, written by Peter Selinger 2001-2017
</metadata>
<g transform="translate(0.000000,340.000000) scale(0.100000,-0.100000)"
fill="#000000" stroke="none">
<path d="M1557 2973 c-13 -13 -7 -44 18 -81 13 -20 31 -66 40 -102 16 -70 41
-370 32 -393 -3 -10 -34 -19 -89 -26 -46 -7 -197 -30 -337 -52 -140 -21 -262
-39 -271 -39 -11 0 -20 11 -25 28 -10 42 -33 72 -55 72 -15 0 -27 -15 -45 -52
-134 -289 -130 -278 -130 -358 1 -121 43 -173 96 -117 36 37 107 197 125 279
12 52 23 79 33 82 9 3 129 21 266 40 665 93 1106 137 1230 121 46 -5 56 -10
61 -29 8 -34 -19 -89 -72 -146 -57 -61 -42 -65 67 -19 99 42 146 55 263 74 55
9 104 18 108 21 14 9 -44 104 -83 135 -47 37 -130 75 -195 90 -45 10 -80 7
-285 -24 -303 -47 -568 -82 -572 -76 -9 10 31 315 59 446 9 45 -28 77 -128
108 -83 26 -100 29 -111 18z"/>
<path d="M2152 2898 c-5 -7 -13 -28 -17 -46 -9 -41 -82 -139 -140 -186 -50
-42 -101 -103 -92 -112 3 -4 69 24 146 60 78 37 177 78 221 93 99 32 103 48
33 119 -76 76 -127 100 -151 72z"/>
<path d="M1144 2687 c-3 -9 4 -30 16 -47 24 -33 171 -160 209 -180 22 -11 27
-10 44 11 15 19 18 35 14 72 -8 93 -80 147 -203 155 -61 4 -75 2 -80 -11z"/>
<path d="M1905 2188 c-75 -30 -253 -73 -405 -98 -115 -19 -143 -21 -196 -11
-78 14 -134 14 -134 0 0 -6 12 -25 26 -42 15 -17 55 -92 91 -166 86 -182 114
-211 150 -153 9 15 18 29 20 31 5 8 586 91 639 91 20 0 17 30 -6 55 l-20 22
57 54 c32 30 69 62 82 71 57 40 -17 109 -158 147 -90 24 -82 25 -146 -1z m52
-119 c16 -33 4 -77 -36 -127 -26 -33 -39 -40 -103 -55 -108 -25 -264 -47 -339
-47 l-66 0 -22 81 c-12 45 -20 83 -19 84 2 1 71 14 153 29 83 16 195 36 250
46 132 25 166 23 182 -11z"/>
<path d="M1865 1654 c-111 -34 -299 -73 -412 -84 -77 -8 -107 -7 -165 6 -95
22 -103 14 -81 -76 13 -54 14 -109 9 -332 -5 -223 -4 -274 8 -303 18 -43 40
-53 66 -30 32 29 42 95 65 435 9 129 20 227 26 231 14 8 230 46 369 65 191 25
248 16 270 -41 5 -12 14 -75 20 -140 9 -92 9 -140 -1 -224 -19 -154 -17 -193
14 -240 15 -23 39 -48 53 -58 26 -16 27 -16 45 6 34 42 41 94 49 351 4 143 13
275 20 301 15 60 1 85 -72 124 -74 40 -173 44 -283 9z"/>
<path d="M1570 1418 c0 -3 7 -23 16 -44 25 -60 31 -234 10 -325 -54 -244 -240
-447 -576 -629 -52 -28 -104 -60 -115 -72 l-20 -20 42 6 c59 9 216 63 288 98
257 129 440 358 520 649 22 80 39 134 71 231 8 24 -26 53 -91 77 -57 21 -145
39 -145 29z"/>
<path d="M1764 851 c9 -16 50 -60 93 -99 155 -139 427 -364 450 -373 54 -20
88 35 71 115 -27 129 -211 263 -482 351 -60 19 -118 35 -128 35 -17 0 -17 -2
-4 -29z"/>
</g>
</svg>
