<?xml version="1.0" standalone="no"?>
<!DOCTYPE svg PUBLIC "-//W3C//DTD SVG 20010904//EN"
 "http://www.w3.org/TR/2001/REC-SVG-20010904/DTD/svg10.dtd">
<svg version="1.0" xmlns="http://www.w3.org/2000/svg"
 width="340.000000pt" height="340.000000pt" viewBox="0 0 340.000000 340.000000"
 preserveAspectRatio="xMidYMid meet">
<metadata>
Created by potrace 1.15, written by Peter Selinger 2001-2017
</metadata>
<g transform="translate(0.000000,340.000000) scale(0.100000,-0.100000)"
fill="#000000" stroke="none">
<path d="M1530 2743 c-15 -6 -30 -23 -30 -35 -1 -36 210 -188 260 -188 26 0
33 5 47 37 21 51 12 111 -22 140 -47 41 -197 68 -255 46z"/>
<path d="M2285 2553 c-16 -2 -154 -24 -305 -48 -455 -73 -718 -103 -1063 -121
-70 -3 -130 -11 -133 -16 -8 -12 18 -32 84 -64 50 -24 58 -25 120 -15 37 5
102 13 144 16 100 9 99 13 72 -183 -11 -77 19 -88 124 -46 122 49 337 79 644
91 92 3 172 10 179 14 18 11 -2 53 -34 74 -51 33 -115 34 -243 3 -153 -36
-369 -68 -461 -68 l-73 0 1 33 c0 17 3 50 7 72 l7 39 90 13 c270 36 733 73
932 73 124 0 143 5 143 37 0 35 -41 68 -108 87 -58 16 -69 17 -127 9z"/>
<path d="M1990 2039 c-68 -29 -605 -85 -727 -76 -81 6 -113 1 -113 -19 0 -7
15 -39 34 -71 19 -32 48 -88 65 -124 34 -73 71 -119 96 -119 9 0 27 11 40 24
21 21 41 26 167 40 79 9 197 20 263 26 66 5 162 15 214 21 l93 12 -5 36 c-6
34 -4 38 49 76 30 22 64 47 75 55 73 55 -152 162 -251 119z m-1 -89 c27 -14
33 -38 16 -70 -35 -68 -93 -85 -407 -119 -103 -12 -193 -21 -202 -21 -13 0
-45 69 -61 133 -6 23 -4 24 72 31 43 3 143 15 223 26 227 31 329 36 359 20z"/>
<path d="M2345 1649 c-44 -43 -129 -72 -185 -64 -116 17 -113 20 -84 -80 14
-46 18 -96 18 -210 0 -305 -64 -532 -216 -763 -33 -51 -58 -95 -55 -99 11 -11
141 92 179 142 71 94 134 256 162 417 8 43 16 81 19 84 3 3 15 -9 27 -26 12
-16 36 -38 53 -46 29 -15 31 -15 44 2 33 46 -2 106 -75 128 l-47 13 3 149 c4
209 4 212 55 234 23 10 66 22 96 26 l54 7 -7 -104 c-4 -57 -11 -162 -16 -234
-20 -277 -9 -441 35 -531 65 -134 263 -245 440 -248 98 -1 97 -2 61 146 -14
57 -30 144 -36 193 -14 112 -18 125 -31 105 -5 -8 -19 -46 -30 -85 -44 -144
-77 -182 -151 -170 -54 9 -86 26 -119 62 -73 78 -92 185 -78 447 11 205 37
298 110 380 34 39 32 52 -18 97 -71 67 -156 78 -208 28z"/>
<path d="M1660 1559 c-47 -11 -134 -21 -193 -23 -60 -2 -111 -7 -114 -10 -4
-4 3 -26 14 -50 29 -59 47 -156 40 -216 -3 -27 -18 -99 -32 -160 l-27 -111 24
-47 c12 -26 30 -47 38 -47 22 0 48 61 60 140 5 39 10 152 10 252 l0 181 73 17
c39 9 106 19 148 22 116 8 114 14 106 -295 -5 -235 -5 -247 14 -274 49 -68 66
-23 79 217 10 185 19 244 47 302 15 31 14 35 -3 54 -56 62 -152 78 -284 48z"/>
<path d="M1080 1523 c-41 -22 -53 -24 -125 -19 -166 13 -150 15 -148 -19 2
-16 6 -102 9 -190 5 -136 3 -174 -14 -255 -34 -166 -99 -295 -223 -446 -33
-39 -59 -74 -59 -77 0 -28 108 39 188 117 59 56 128 161 163 246 12 30 29 61
37 68 9 6 43 12 77 12 59 0 105 18 105 41 0 22 -71 40 -127 33 l-55 -7 7 69
c4 38 12 72 18 76 6 3 37 9 68 13 68 8 91 27 65 53 -12 13 -31 16 -76 14 l-59
-3 6 93 c3 51 8 96 12 100 11 13 145 20 161 9 12 -8 16 -45 18 -198 4 -241
-12 -461 -38 -519 -21 -49 -31 -52 -104 -30 -64 19 -68 4 -22 -71 19 -32 38
-70 41 -85 4 -15 18 -39 32 -52 23 -24 27 -24 53 -11 15 8 39 28 54 45 49 59
57 112 67 420 7 250 20 386 44 481 8 32 -33 85 -82 105 -39 17 -37 17 -93 -13z"/>
<path d="M1587 1364 c15 -55 6 -254 -16 -346 -33 -141 -78 -218 -187 -324 -52
-50 -94 -94 -94 -98 0 -10 50 5 118 35 121 54 211 178 262 359 25 92 50 247
50 317 0 61 -11 70 -91 80 l-50 6 8 -29z"/>
<path d="M1690 851 c0 -33 151 -211 179 -211 16 0 41 30 47 56 14 54 -27 100
-130 147 -40 18 -96 23 -96 8z"/>
</g>
</svg>
