<?xml version="1.0" standalone="no"?>
<!DOCTYPE svg PUBLIC "-//W3C//DTD SVG 20010904//EN"
 "http://www.w3.org/TR/2001/REC-SVG-20010904/DTD/svg10.dtd">
<svg version="1.0" xmlns="http://www.w3.org/2000/svg"
 width="340.000000pt" height="340.000000pt" viewBox="0 0 340.000000 340.000000"
 preserveAspectRatio="xMidYMid meet">
<metadata>
Created by potrace 1.15, written by Peter Selinger 2001-2017
</metadata>
<g transform="translate(0.000000,340.000000) scale(0.100000,-0.100000)"
fill="#000000" stroke="none">
<path d="M2031 2731 c-12 -8 -10 -20 17 -73 41 -83 54 -155 56 -307 l1 -125
-113 -27 c-112 -27 -142 -40 -142 -64 0 -19 34 -25 150 -25 l106 0 -4 -127
c-2 -71 -7 -131 -11 -135 -15 -16 -339 -72 -465 -80 -46 -3 -54 -16 -28 -48
25 -31 110 -38 195 -17 123 31 115 32 126 -11 37 -134 30 -348 -15 -552 -51
-227 -110 -344 -243 -483 -51 -54 -91 -100 -89 -103 15 -14 108 38 170 95 152
140 249 330 291 566 23 127 40 395 28 426 -5 14 -30 44 -55 66 -29 25 -41 43
-34 45 7 3 57 13 111 24 85 15 100 16 107 3 19 -30 40 -151 51 -295 13 -169 6
-640 -11 -719 -15 -74 -27 -81 -102 -68 -35 6 -71 14 -80 18 -31 13 -20 -18
27 -75 39 -47 70 -93 152 -228 l14 -23 29 21 c38 27 86 127 106 220 14 65 15
95 4 228 -7 89 -10 297 -9 490 3 329 2 338 -19 379 -12 23 -32 49 -44 57 -12
9 -20 17 -17 20 8 8 310 26 433 26 100 0 128 3 140 16 19 18 19 17 5 47 -6 14
-29 34 -50 46 -56 32 -140 29 -344 -13 -93 -19 -191 -37 -217 -41 l-47 -7 5
123 c3 68 7 129 9 135 2 6 25 14 52 18 26 4 91 21 143 39 83 28 96 36 105 61
8 24 6 31 -15 48 -27 22 -73 20 -160 -7 -25 -7 -60 -17 -77 -20 -32 -6 -33 -6
-33 27 0 18 11 87 25 153 13 66 25 139 25 162 l0 42 -72 36 c-75 37 -162 53
-187 36z"/>
<path d="M1138 2673 c-25 -6 -22 -29 7 -80 43 -72 65 -181 65 -314 l0 -117
-117 -27 c-118 -27 -164 -44 -171 -64 -6 -19 46 -31 164 -38 l114 -6 -6 -126
c-4 -73 -12 -129 -18 -133 -16 -10 -284 -74 -391 -93 -49 -8 -130 -18 -178
-22 -48 -3 -90 -10 -93 -15 -9 -15 61 -73 103 -86 46 -14 71 -10 203 28 147
42 157 43 164 17 4 -12 9 -78 12 -147 13 -269 -71 -483 -274 -702 -44 -47 -85
-95 -91 -107 -10 -18 -9 -21 9 -21 37 0 99 40 176 112 101 96 158 174 215 293
55 115 84 227 99 374 15 155 14 166 -21 206 l-31 35 24 8 c52 20 159 45 164
39 17 -16 25 -213 22 -487 -5 -405 -3 -400 -160 -368 -31 7 -60 9 -64 5 -4 -3
14 -29 38 -56 25 -28 64 -86 87 -131 23 -44 45 -80 49 -80 19 0 68 43 93 80
65 97 69 122 69 441 l0 290 29 -16 c17 -8 50 -29 75 -46 25 -16 61 -33 79 -36
28 -4 35 -1 45 21 21 46 14 71 -28 110 -33 29 -48 36 -83 36 -23 0 -58 -4 -76
-10 -19 -5 -36 -8 -38 -6 -2 2 1 35 7 74 14 89 2 141 -41 175 l-31 24 79 22
c44 11 86 21 94 21 26 0 51 24 43 43 -8 22 -102 23 -193 2 -35 -9 -65 -14 -66
-13 -1 2 3 64 9 138 l11 135 85 22 c144 38 181 62 164 107 -10 26 -50 30 -127
12 -131 -30 -117 -34 -117 32 0 74 24 217 49 288 l19 54 -25 20 c-63 49 -184
94 -225 83z"/>
<path d="M1750 1354 c-17 -38 -42 -82 -54 -99 -49 -64 -59 -95 -53 -162 6 -64
20 -103 37 -103 5 0 25 14 44 30 51 45 68 103 73 253 7 161 -4 179 -47 81z"/>
<path d="M2430 1389 c0 -8 64 -88 143 -178 197 -228 265 -270 283 -176 7 40
-18 131 -50 177 -51 75 -377 227 -376 177z"/>
<path d="M774 1372 c-15 -9 -111 -237 -119 -283 -9 -47 16 -109 43 -109 23 0
58 43 98 120 25 49 28 66 28 145 1 108 -16 150 -50 127z"/>
</g>
</svg>
