<?xml version="1.0" standalone="no"?>
<!DOCTYPE svg PUBLIC "-//W3C//DTD SVG 20010904//EN"
 "http://www.w3.org/TR/2001/REC-SVG-20010904/DTD/svg10.dtd">
<svg version="1.0" xmlns="http://www.w3.org/2000/svg"
 width="340.000000pt" height="340.000000pt" viewBox="0 0 340.000000 340.000000"
 preserveAspectRatio="xMidYMid meet">
<metadata>
Created by potrace 1.15, written by Peter Selinger 2001-2017
</metadata>
<g transform="translate(0.000000,340.000000) scale(0.100000,-0.100000)"
fill="#000000" stroke="none">
<path d="M1495 2888 c-3 -8 5 -37 19 -64 51 -103 76 -247 76 -450 l0 -112
-107 -35 c-60 -20 -148 -43 -198 -52 -105 -19 -139 -31 -130 -46 10 -15 47
-27 123 -39 73 -12 202 0 276 26 21 8 40 14 43 14 2 0 2 -73 1 -162 l-3 -163
-150 -32 c-200 -43 -481 -90 -633 -106 -122 -13 -141 -21 -142 -55 0 -21 62
-41 162 -53 l93 -12 130 41 c242 75 500 131 518 113 16 -16 24 -203 19 -458
l-5 -221 -65 40 c-95 58 -270 176 -276 186 -3 5 10 42 30 82 l35 73 -28 29
c-38 40 -95 68 -153 75 l-48 6 -4 -119 c-5 -134 -21 -186 -104 -334 -100 -178
-291 -392 -471 -528 -45 -34 -85 -67 -88 -73 -37 -59 182 46 337 162 143 107
306 295 414 476 27 46 52 83 55 83 3 0 91 -70 195 -156 527 -434 770 -606 888
-626 70 -13 215 0 366 32 52 12 136 27 185 35 148 25 209 57 158 83 -10 5 -70
15 -133 21 -438 44 -809 157 -1085 332 l-65 41 0 184 0 184 89 0 c97 0 225 19
341 51 84 24 100 33 100 59 0 23 -74 60 -118 60 -41 0 -145 -24 -257 -60 -49
-15 -103 -31 -119 -35 l-29 -6 7 68 c23 231 22 239 -42 272 l-37 20 33 1 c34
0 723 84 802 97 41 7 45 10 45 38 0 38 -45 69 -123 86 -81 16 -157 7 -317 -40
-118 -34 -343 -91 -360 -91 -3 0 -5 74 -5 165 l0 164 73 21 c39 12 124 36 187
55 63 18 127 36 141 39 15 3 37 15 50 26 l24 20 -25 20 c-14 10 -57 26 -95 35
l-70 16 -128 -46 c-71 -25 -133 -45 -139 -45 -7 0 -8 32 -4 103 9 136 22 215
48 293 l21 65 -38 39 c-49 51 -141 91 -221 98 -50 4 -65 2 -69 -10z"/>
</g>
</svg>
