<?xml version="1.0" standalone="no"?>
<!DOCTYPE svg PUBLIC "-//W3C//DTD SVG 20010904//EN"
 "http://www.w3.org/TR/2001/REC-SVG-20010904/DTD/svg10.dtd">
<svg version="1.0" xmlns="http://www.w3.org/2000/svg"
 width="340.000000pt" height="340.000000pt" viewBox="0 0 340.000000 340.000000"
 preserveAspectRatio="xMidYMid meet">
<metadata>
Created by potrace 1.15, written by Peter Selinger 2001-2017
</metadata>
<g transform="translate(0.000000,340.000000) scale(0.100000,-0.100000)"
fill="#000000" stroke="none">
<path d="M1088 2718 c-26 -12 -27 -14 -13 -38 70 -119 93 -213 102 -415 l6
-130 -156 -44 c-86 -23 -161 -49 -167 -56 -9 -11 -6 -17 14 -30 37 -25 129
-29 216 -11 41 9 78 16 83 16 4 0 6 -64 5 -142 l-3 -143 -149 -37 c-194 -49
-416 -94 -543 -109 -57 -7 -103 -16 -103 -21 0 -20 56 -59 103 -73 77 -23 110
-19 267 30 80 25 201 60 269 76 144 36 141 37 163 -60 13 -56 18 -465 6 -477
-3 -3 -65 25 -138 61 l-131 66 35 65 c20 36 43 76 52 89 15 23 15 26 -14 54
-28 29 -129 67 -155 58 -8 -2 -16 -44 -23 -113 -10 -101 -15 -119 -62 -217
-71 -149 -138 -242 -276 -385 -66 -67 -116 -125 -113 -129 18 -17 197 91 289
175 72 67 155 176 208 274 l41 76 176 -105 c521 -310 1009 -551 1213 -601 62
-15 182 2 345 49 207 60 385 122 405 141 20 19 20 22 6 36 -14 14 -46 16 -239
14 -456 -6 -752 31 -1020 128 -83 30 -110 50 -68 50 42 0 202 54 296 100 55
26 132 72 172 102 40 29 100 73 133 98 33 25 79 59 103 75 55 40 61 79 20 124
-31 33 -101 73 -115 65 -5 -3 -20 -29 -35 -57 -66 -132 -315 -328 -590 -466
l-62 -31 -91 35 c-50 19 -131 53 -180 76 l-89 41 6 162 c3 88 7 162 8 164 1 1
43 4 94 7 99 5 205 21 233 36 46 25 -6 89 -71 89 -20 0 -74 -14 -121 -30 -47
-16 -98 -30 -114 -30 -26 0 -28 2 -23 33 3 17 9 57 12 87 6 51 5 57 -22 81
-15 15 -38 30 -50 34 -30 9 -29 25 1 25 14 0 107 14 207 31 174 29 239 48 239
69 0 31 -133 65 -194 49 -17 -4 -62 -19 -101 -33 -113 -41 -106 -48 -103 115
l3 142 126 41 c169 55 206 81 157 107 -41 22 -91 28 -142 17 -28 -5 -68 -13
-89 -18 -21 -4 -40 -3 -43 2 -12 20 18 263 42 340 l25 80 -38 33 c-84 74 -180
108 -235 83z"/>
<path d="M2008 2618 c-4 -85 -10 -117 -35 -180 -38 -95 -132 -238 -252 -380
-85 -101 -89 -108 -64 -108 76 0 202 109 336 290 43 58 86 116 97 130 l18 25
224 -227 c218 -222 224 -227 276 -237 128 -26 442 2 442 39 0 5 -33 19 -72 30
-247 71 -398 138 -568 250 -85 56 -260 188 -260 196 0 2 17 38 37 79 36 72 37
77 23 103 -17 30 -105 78 -161 88 l-37 6 -4 -104z"/>
<path d="M2112 2022 c-28 -106 -111 -211 -276 -347 -57 -46 -109 -91 -117
-101 -13 -15 -12 -16 11 -9 48 15 177 84 256 137 86 58 279 221 288 244 11 28
-100 124 -142 124 -4 0 -14 -21 -20 -48z"/>
<path d="M2196 1742 c-3 -3 -6 -15 -6 -28 0 -59 -141 -215 -333 -368 -53 -42
-97 -82 -97 -88 0 -45 320 129 470 257 30 26 65 55 78 66 12 10 22 30 22 44 0
35 -25 82 -51 96 -31 16 -77 28 -83 21z"/>
</g>
</svg>
