<?xml version="1.0" standalone="no"?>
<!DOCTYPE svg PUBLIC "-//W3C//DTD SVG 20010904//EN"
 "http://www.w3.org/TR/2001/REC-SVG-20010904/DTD/svg10.dtd">
<svg version="1.0" xmlns="http://www.w3.org/2000/svg"
 width="340.000000pt" height="340.000000pt" viewBox="0 0 340.000000 340.000000"
 preserveAspectRatio="xMidYMid meet">
<metadata>
Created by potrace 1.15, written by Peter Selinger 2001-2017
</metadata>
<g transform="translate(0.000000,340.000000) scale(0.100000,-0.100000)"
fill="#000000" stroke="none">
<path d="M1100 2763 c0 -11 12 -48 26 -84 41 -101 64 -228 71 -400 l6 -157
-89 -21 c-49 -11 -125 -26 -169 -34 -75 -12 -80 -15 -83 -40 -5 -42 29 -50
196 -44 l142 6 -6 -127 c-4 -70 -9 -130 -13 -133 -10 -11 -291 -78 -417 -99
-66 -11 -172 -24 -236 -29 -65 -4 -121 -10 -124 -14 -14 -14 31 -60 81 -83 97
-45 129 -43 320 19 210 67 383 113 393 103 9 -10 9 -502 0 -511 -5 -5 -223
102 -246 120 -2 2 6 18 17 36 31 50 27 79 -16 121 -47 44 -73 58 -111 58 -29
0 -29 0 -36 -77 -19 -203 -131 -392 -380 -637 -73 -72 -96 -101 -84 -104 9 -2
36 7 60 19 145 73 316 233 418 391 33 51 65 101 72 112 13 17 27 11 223 -101
622 -355 970 -534 1150 -593 66 -22 75 -23 154 -11 165 24 585 145 611 176 29
35 -1 40 -278 42 -494 4 -693 34 -982 145 -107 41 -432 196 -461 220 -14 12
-14 29 -5 158 l11 144 94 13 c176 23 231 56 165 100 -23 15 -33 15 -86 4 -33
-7 -85 -23 -116 -37 l-55 -24 7 94 c5 72 3 105 -8 138 -8 23 -14 43 -13 44 1
1 56 11 122 23 127 23 275 60 275 68 0 11 -56 48 -81 54 -46 10 -207 -20 -306
-58 -11 -4 -13 18 -11 133 l3 138 76 26 c92 33 177 78 189 101 12 22 -17 48
-62 55 -30 5 -119 -11 -170 -31 -16 -7 -18 1 -18 87 0 107 22 253 51 337 l20
56 -30 25 c-48 41 -162 93 -213 98 -43 4 -48 2 -48 -15z"/>
<path d="M2076 2490 c-77 -26 -213 -67 -302 -91 -89 -23 -168 -45 -175 -49
-32 -20 8 -44 128 -76 6 -1 14 -38 19 -91 8 -97 -2 -910 -11 -935 -6 -15 -100
-50 -172 -64 -38 -8 -38 -6 -18 -44 39 -76 88 -77 197 -6 81 52 268 156 281
156 11 0 7 -150 -5 -225 -18 -103 -15 -173 10 -228 20 -45 45 -67 59 -53 16
16 33 166 39 346 8 216 2 198 87 263 62 47 36 66 -37 26 l-39 -20 8 383 c4
211 8 415 9 455 1 60 -3 76 -22 103 -13 17 -22 33 -20 35 2 3 59 18 125 34
140 34 163 44 163 71 0 28 -54 52 -125 56 -51 3 -80 -4 -199 -46z m-42 -162
c12 -41 19 -517 11 -748 l-7 -225 -97 -34 c-53 -19 -102 -36 -108 -38 -10 -4
-13 27 -13 134 l0 139 74 22 c83 24 131 57 121 84 -4 9 -13 19 -21 22 -12 5
-94 -17 -146 -39 -17 -7 -18 3 -18 134 l0 141 28 0 c68 0 142 36 142 68 0 12
-12 14 -67 9 -38 -3 -75 -8 -84 -12 -15 -6 -17 7 -15 128 1 126 -1 137 -22
166 l-22 31 22 5 c54 13 165 33 189 34 19 1 28 -5 33 -21z"/>
<path d="M2539 2126 c-52 -35 -147 -73 -247 -100 -47 -12 -87 -27 -89 -33 -4
-12 56 -43 85 -43 11 0 64 16 118 35 54 20 111 35 128 33 l31 -3 -2 -64 c-3
-63 -47 -302 -61 -327 -5 -9 -38 21 -104 96 -95 106 -163 168 -174 158 -9 -9
19 -60 102 -188 44 -69 89 -140 100 -158 l19 -33 -57 -112 c-31 -62 -80 -150
-107 -196 -28 -46 -51 -92 -51 -103 0 -60 91 27 210 201 41 61 77 110 80 111
3 0 45 -62 93 -139 48 -76 99 -151 113 -166 l26 -28 26 27 c24 23 27 34 26 89
-1 84 -34 145 -138 254 l-79 84 48 177 c53 200 82 273 127 319 27 28 30 36 21
56 -14 31 -88 65 -155 72 -45 4 -59 1 -89 -19z"/>
</g>
</svg>
