<?xml version="1.0" standalone="no"?>
<!DOCTYPE svg PUBLIC "-//W3C//DTD SVG 20010904//EN"
 "http://www.w3.org/TR/2001/REC-SVG-20010904/DTD/svg10.dtd">
<svg version="1.0" xmlns="http://www.w3.org/2000/svg"
 width="340.000000pt" height="340.000000pt" viewBox="0 0 340.000000 340.000000"
 preserveAspectRatio="xMidYMid meet">
<metadata>
Created by potrace 1.15, written by Peter Selinger 2001-2017
</metadata>
<g transform="translate(0.000000,340.000000) scale(0.100000,-0.100000)"
fill="#000000" stroke="none">
<path d="M2056 2443 c-12 -13 -5 -47 28 -137 59 -159 61 -183 61 -908 0 -361
-3 -659 -6 -662 -7 -7 -236 -36 -283 -36 l-29 0 7 253 c3 138 11 286 16 327 5
41 12 107 16 146 l7 70 -37 36 c-55 53 -188 89 -202 54 -3 -8 12 -65 34 -127
21 -63 42 -141 47 -174 4 -32 4 -181 0 -330 l-8 -272 -191 -26 c-105 -15 -206
-27 -223 -27 -26 0 -33 -4 -33 -19 0 -29 58 -68 126 -85 66 -17 114 -11 294
37 217 57 433 80 760 80 172 0 289 -5 393 -17 82 -10 159 -15 173 -12 68 17
-12 142 -109 171 -72 21 -188 18 -367 -9 -85 -13 -182 -27 -214 -31 l-59 -7 7
309 c3 169 9 345 12 389 l6 81 87 7 c115 10 306 42 357 61 80 30 97 80 34 102
-62 21 -134 15 -254 -22 -63 -19 -137 -37 -165 -41 l-51 -7 0 115 c0 151 17
356 37 443 29 130 29 135 -14 179 -44 45 -99 72 -163 81 -25 4 -54 8 -66 10
-12 3 -24 2 -28 -2z"/>
<path d="M1345 2329 c-60 -35 -139 -61 -279 -90 l-103 -22 -85 22 c-46 11 -96
21 -111 21 -23 0 -27 -4 -27 -28 0 -16 26 -82 59 -148 32 -65 75 -165 96 -222
51 -141 90 -194 129 -179 9 4 16 17 16 31 0 17 7 26 25 30 14 4 30 4 35 1 25
-16 32 -98 37 -455 l6 -375 -99 -24 c-55 -12 -106 -25 -115 -27 -21 -6 -27 49
-37 315 l-8 184 -39 34 c-67 58 -118 78 -187 74 -25 -1 -23 -16 17 -92 19 -37
46 -101 60 -142 29 -89 65 -286 65 -361 l0 -53 -97 -22 c-54 -12 -140 -27
-192 -34 -52 -7 -96 -17 -98 -23 -10 -31 75 -96 170 -130 39 -14 40 -14 132
36 65 35 172 76 347 134 346 114 471 167 449 189 -6 6 -47 2 -115 -12 -162
-33 -146 -49 -146 143 l0 165 58 11 c162 34 271 85 257 122 -19 48 -115 41
-242 -17 -85 -39 -83 -42 -57 77 24 114 0 199 -72 254 -41 32 -35 38 41 48 28
4 86 14 130 22 155 30 170 41 114 88 -34 29 -34 37 8 119 29 58 85 122 135
154 21 13 38 30 38 38 0 30 -64 86 -144 124 -110 54 -113 54 -171 20z m10
-129 c3 -5 8 -38 12 -73 6 -65 -19 -222 -38 -242 -10 -10 -291 -87 -297 -81
-2 2 -23 79 -46 171 -27 108 -39 168 -32 171 6 2 76 17 156 33 150 31 234 38
245 21z"/>
</g>
</svg>
