<?xml version="1.0" standalone="no"?>
<!DOCTYPE svg PUBLIC "-//W3C//DTD SVG 20010904//EN"
 "http://www.w3.org/TR/2001/REC-SVG-20010904/DTD/svg10.dtd">
<svg version="1.0" xmlns="http://www.w3.org/2000/svg"
 width="340.000000pt" height="340.000000pt" viewBox="0 0 340.000000 340.000000"
 preserveAspectRatio="xMidYMid meet">
<metadata>
Created by potrace 1.15, written by Peter Selinger 2001-2017
</metadata>
<g transform="translate(0.000000,340.000000) scale(0.100000,-0.100000)"
fill="#000000" stroke="none">
<path d="M1955 2711 c-3 -5 7 -45 21 -88 21 -60 28 -103 31 -188 6 -125 -12
-474 -24 -486 -11 -11 -284 -82 -290 -76 -9 9 44 127 87 193 l43 65 -20 27
c-30 41 -100 73 -153 70 l-45 -3 4 -110 c3 -103 1 -118 -28 -205 -18 -52 -54
-142 -82 -199 -27 -57 -49 -112 -49 -122 0 -52 59 4 153 143 l52 77 71 1 c40
0 108 7 153 15 45 9 85 13 90 11 5 -3 7 -25 5 -48 -12 -151 -27 -275 -35 -289
-6 -12 -43 -23 -126 -38 -348 -64 -392 -74 -397 -87 -11 -28 42 -48 138 -52
81 -4 106 0 225 32 74 20 135 35 137 33 7 -7 -36 -144 -65 -210 -48 -106 -114
-201 -211 -301 -103 -107 -205 -183 -357 -268 -60 -32 -115 -66 -123 -74 -12
-12 -10 -14 16 -14 53 0 146 30 250 79 262 125 438 299 549 543 22 48 42 88
45 88 3 0 25 -39 49 -87 166 -335 386 -637 484 -664 72 -20 484 6 511 32 10 9
-82 53 -135 64 -103 22 -267 107 -402 208 -159 119 -486 478 -487 533 0 11 7
41 15 66 l16 45 87 11 c48 6 123 14 167 17 168 13 415 44 435 55 55 30 -25
101 -138 122 -73 14 -128 4 -378 -67 -86 -25 -159 -44 -160 -42 -2 2 1 32 7
68 6 35 14 111 17 168 l7 104 120 32 c237 63 335 102 335 134 0 28 -45 59 -97
67 -61 9 -129 -8 -243 -60 -89 -42 -95 -43 -98 -24 -8 46 40 416 63 494 14 45
25 88 25 96 0 22 -60 75 -110 97 -47 21 -144 29 -155 12z"/>
<path d="M1101 2320 c-106 -56 -229 -84 -366 -82 -155 2 -167 -4 -119 -61 38
-45 99 -173 124 -257 12 -41 28 -97 37 -125 26 -85 66 -111 81 -52 7 29 12 32
49 35 36 3 41 0 47 -23 16 -64 26 -241 26 -485 l0 -265 -102 -32 c-57 -17
-105 -29 -108 -26 -3 2 -5 112 -5 243 l0 238 -25 27 c-39 42 -120 85 -162 85
-20 0 -39 -3 -42 -8 -2 -4 11 -32 30 -62 63 -101 114 -319 114 -492 l0 -74
-155 -38 c-85 -21 -157 -42 -160 -46 -8 -14 54 -79 94 -99 20 -10 53 -24 74
-31 37 -11 40 -11 90 27 79 60 103 72 371 184 137 57 299 129 360 159 184 92
147 107 -90 36 -82 -25 -151 -43 -153 -40 -2 2 -6 82 -9 178 l-5 175 37 5 c20
3 53 8 74 11 47 7 133 34 150 48 34 27 -7 77 -64 77 -17 0 -61 -13 -97 -30
-37 -16 -72 -30 -78 -30 -9 0 -10 28 -5 104 8 116 3 135 -46 177 l-30 25 108
23 c60 12 121 27 137 33 35 13 36 45 2 54 -14 3 -25 8 -25 11 0 25 95 186 137
233 l54 59 -43 44 c-50 50 -134 94 -193 101 -33 4 -53 -2 -114 -34z m77 -102
c19 -19 13 -105 -16 -218 l-27 -105 -120 -32 c-66 -17 -129 -32 -140 -32 -19
-1 -22 11 -42 162 -11 89 -20 163 -19 164 2 2 325 70 342 72 5 0 15 -4 22 -11z"/>
</g>
</svg>
