<?xml version="1.0" standalone="no"?>
<!DOCTYPE svg PUBLIC "-//W3C//DTD SVG 20010904//EN"
 "http://www.w3.org/TR/2001/REC-SVG-20010904/DTD/svg10.dtd">
<svg version="1.0" xmlns="http://www.w3.org/2000/svg"
 width="340.000000pt" height="340.000000pt" viewBox="0 0 340.000000 340.000000"
 preserveAspectRatio="xMidYMid meet">
<metadata>
Created by potrace 1.15, written by Peter Selinger 2001-2017
</metadata>
<g transform="translate(0.000000,340.000000) scale(0.100000,-0.100000)"
fill="#000000" stroke="none">
<path d="M1813 2893 c3 -16 11 -48 17 -73 15 -58 6 -154 -25 -266 -13 -47 -25
-87 -27 -88 -2 -2 -45 -8 -96 -15 -140 -18 -192 -30 -192 -47 0 -26 51 -36
153 -31 53 3 97 2 97 -1 0 -17 -91 -170 -145 -244 -33 -46 -126 -149 -208
-230 -81 -81 -144 -149 -140 -151 17 -11 86 23 164 79 166 119 313 286 421
479 56 99 64 105 144 105 31 0 40 -9 138 -137 143 -189 251 -317 329 -390 61
-56 71 -62 124 -69 111 -14 463 12 487 36 18 18 -7 30 -120 60 -213 56 -385
132 -549 244 -88 59 -285 241 -285 261 0 6 72 21 168 34 193 26 235 35 252 56
19 23 4 58 -32 80 -55 33 -159 26 -302 -18 -142 -45 -245 -71 -251 -65 -5 5
20 72 84 222 l43 99 -24 19 c-47 38 -142 78 -187 78 -42 0 -43 -1 -38 -27z"/>
<path d="M1105 2574 c-111 -52 -260 -84 -394 -84 -62 0 -121 -5 -131 -10 -23
-13 -16 -38 31 -106 44 -64 83 -155 115 -265 14 -52 33 -106 41 -121 16 -32
49 -37 58 -9 7 23 85 46 97 28 14 -23 19 -161 16 -477 l-3 -325 -95 -26 c-84
-23 -96 -24 -104 -11 -5 9 -6 102 -1 221 4 113 8 228 9 256 l1 49 -65 34 c-51
27 -73 33 -103 29 -49 -7 -52 -10 -34 -39 38 -57 70 -245 83 -470 l7 -126 -39
-11 c-22 -7 -86 -16 -143 -21 -58 -5 -109 -14 -115 -20 -18 -18 20 -76 77
-119 63 -48 109 -61 135 -38 25 22 175 95 352 172 215 92 470 216 470 228 0
17 -90 0 -203 -38 -60 -21 -110 -35 -111 -34 -2 2 -1 79 2 170 l5 166 99 11
c162 19 199 54 104 101 -43 22 -52 23 -80 12 -81 -34 -115 -45 -120 -40 -3 3
-1 43 6 90 23 163 9 230 -54 269 l-31 18 39 11 c21 5 78 14 127 19 119 13 142
37 96 96 -21 26 -21 28 -4 72 22 58 77 140 121 181 19 18 34 36 34 42 0 15
-81 81 -133 107 -85 44 -86 44 -162 8z m25 -123 c5 -11 10 -39 10 -63 0 -58
-29 -213 -43 -231 -7 -8 -61 -26 -122 -41 -60 -15 -117 -29 -126 -31 -13 -4
-19 21 -37 157 -12 89 -19 164 -17 166 11 11 235 61 277 61 37 1 50 -3 58 -18z"/>
<path d="M2030 1991 c-36 -10 -141 -39 -235 -65 -93 -26 -175 -52 -183 -58
-19 -16 5 -28 81 -39 135 -19 475 60 506 119 28 52 -59 75 -169 43z"/>
<path d="M2135 1680 c-207 -52 -414 -94 -594 -120 -194 -28 -223 -45 -119 -70
50 -13 185 -9 272 6 l39 7 -6 -37 c-10 -63 -54 -144 -110 -204 -67 -71 -77
-89 -77 -146 0 -65 23 -69 108 -17 104 62 169 88 267 106 152 29 238 8 257
-60 15 -57 -38 -359 -76 -436 -38 -77 -125 -105 -246 -78 -25 5 -65 12 -89 16
l-44 6 64 -74 c36 -41 91 -109 123 -152 49 -64 63 -77 86 -77 37 0 102 50 163
125 56 71 77 129 136 392 50 222 50 222 103 279 l43 46 -52 48 c-29 27 -78 61
-110 75 -72 35 -124 31 -278 -18 -129 -42 -227 -68 -233 -62 -5 4 34 74 73
132 33 47 39 86 21 121 l-15 29 117 21 c175 32 342 52 445 53 137 0 204 32
164 77 -25 28 -81 42 -182 47 -81 5 -107 1 -250 -35z"/>
</g>
</svg>
