<?xml version="1.0" standalone="no"?>
<!DOCTYPE svg PUBLIC "-//W3C//DTD SVG 20010904//EN"
 "http://www.w3.org/TR/2001/REC-SVG-20010904/DTD/svg10.dtd">
<svg version="1.0" xmlns="http://www.w3.org/2000/svg"
 width="340.000000pt" height="340.000000pt" viewBox="0 0 340.000000 340.000000"
 preserveAspectRatio="xMidYMid meet">
<metadata>
Created by potrace 1.15, written by Peter Selinger 2001-2017
</metadata>
<g transform="translate(0.000000,340.000000) scale(0.100000,-0.100000)"
fill="#000000" stroke="none">
<path d="M1886 2613 c3 -16 13 -55 21 -88 8 -32 19 -111 24 -175 10 -129 10
-609 0 -655 -5 -26 -11 -30 -45 -33 -22 -2 -69 2 -104 8 -35 6 -66 9 -69 7 -2
-3 25 -27 60 -55 35 -28 83 -78 107 -111 25 -34 51 -61 60 -61 26 0 59 29 83
73 21 41 22 49 21 341 l-2 299 81 -89 c115 -128 305 -314 369 -362 52 -40 58
-42 124 -42 92 0 422 38 447 52 18 9 18 12 4 19 -8 5 -75 23 -148 39 -182 42
-349 99 -477 164 -103 53 -232 138 -232 154 0 4 26 21 58 39 85 47 244 156
255 174 21 34 -102 163 -135 143 -5 -3 -25 -39 -44 -80 -37 -78 -101 -169
-153 -218 l-30 -29 -38 31 c-86 68 -87 70 -80 179 3 57 14 127 27 166 16 53
19 72 10 82 -18 22 -116 55 -161 55 -38 0 -39 -1 -33 -27z"/>
<path d="M1165 2479 c-16 -4 -73 -23 -126 -42 -52 -20 -130 -43 -171 -51 -72
-15 -80 -15 -154 4 -137 35 -165 10 -98 -88 50 -75 90 -174 124 -308 32 -127
50 -164 80 -164 10 0 31 16 46 35 35 47 64 44 81 -7 20 -61 33 -260 33 -514
l0 -241 -91 -33 c-49 -18 -92 -30 -95 -27 -19 19 -55 405 -47 498 5 55 4 57
-28 82 -44 32 -103 49 -159 45 -32 -2 -46 -8 -48 -20 -2 -9 15 -59 37 -111 60
-142 110 -325 127 -469 l6 -56 -82 -27 c-46 -15 -117 -30 -158 -34 -42 -3 -77
-11 -79 -17 -5 -14 53 -91 87 -116 52 -38 90 -35 207 20 59 28 207 94 328 147
121 54 264 120 319 147 95 48 98 50 77 65 -20 14 -29 13 -87 -1 -36 -9 -88
-25 -117 -36 -29 -11 -55 -20 -59 -20 -5 0 -8 79 -8 175 0 96 3 175 6 175 38
0 214 35 232 46 25 17 29 55 7 74 -8 7 -35 15 -60 18 -39 4 -56 -1 -117 -33
l-71 -37 7 112 c8 132 -2 176 -49 229 l-34 38 93 16 c153 27 171 42 125 101
l-20 26 28 52 c15 29 61 86 101 125 83 82 85 90 22 147 -70 63 -150 92 -215
75z m-4 -146 c11 -30 5 -118 -15 -218 l-12 -60 -119 -42 c-66 -23 -127 -41
-135 -40 -10 2 -23 47 -46 162 -18 88 -31 161 -30 162 7 7 277 61 309 62 32 1
39 -3 48 -26z"/>
<path d="M1645 2229 c-52 -36 -138 -71 -208 -84 -78 -15 -85 -19 -68 -39 37
-45 141 -45 239 -1 34 15 65 26 67 23 8 -7 -52 -173 -88 -243 -32 -65 -98
-167 -130 -202 -16 -19 -18 -25 -7 -38 20 -24 37 -18 86 27 54 50 106 122 197
270 36 59 84 129 107 157 50 59 46 73 -28 114 -68 37 -128 43 -167 16z"/>
<path d="M2283 1460 c-74 -26 -231 -56 -413 -80 -178 -22 -255 -25 -325 -13
-63 11 -109 3 -113 -19 -2 -10 8 -46 22 -80 51 -130 96 -365 111 -584 8 -104
22 -144 54 -144 18 0 36 32 43 75 3 21 0 21 465 59 l81 6 16 -42 c9 -24 23
-74 32 -112 29 -132 54 -151 119 -94 68 59 117 192 135 366 20 191 47 347 64
377 9 17 28 48 41 70 39 64 34 83 -38 136 -131 98 -193 115 -294 79z m59 -138
c22 -21 23 -31 26 -190 4 -181 -8 -295 -40 -379 -20 -54 -31 -65 -41 -39 -3 8
-26 26 -51 41 -64 37 -138 42 -246 17 -87 -21 -296 -62 -316 -62 -10 0 -19 88
-29 272 0 4 74 9 165 12 177 4 263 17 321 46 44 23 56 47 34 69 -24 24 -124
17 -324 -24 -96 -19 -180 -35 -186 -35 -8 0 -15 26 -19 73 -4 39 -9 86 -12
103 l-6 32 69 15 c207 48 422 76 550 74 71 -2 86 -5 105 -25z"/>
</g>
</svg>
