<?xml version="1.0" standalone="no"?>
<!DOCTYPE svg PUBLIC "-//W3C//DTD SVG 20010904//EN"
 "http://www.w3.org/TR/2001/REC-SVG-20010904/DTD/svg10.dtd">
<svg version="1.0" xmlns="http://www.w3.org/2000/svg"
 width="340.000000pt" height="340.000000pt" viewBox="0 0 340.000000 340.000000"
 preserveAspectRatio="xMidYMid meet">
<metadata>
Created by potrace 1.15, written by Peter Selinger 2001-2017
</metadata>
<g transform="translate(0.000000,340.000000) scale(0.100000,-0.100000)"
fill="#000000" stroke="none">
<path d="M1968 2753 c-31 -8 -20 -33 63 -139 88 -112 169 -194 193 -194 27 0
67 44 76 84 10 44 -3 130 -22 153 -42 51 -246 114 -310 96z"/>
<path d="M1205 2549 c-115 -55 -205 -73 -357 -72 -114 1 -138 -1 -138 -13 0
-8 18 -50 40 -94 52 -103 73 -159 115 -304 19 -65 40 -124 46 -132 14 -17 43
-18 68 -2 66 41 89 -80 98 -508 l6 -290 -103 -37 c-74 -27 -106 -34 -111 -26
-9 16 -23 389 -16 442 10 80 -3 117 -55 153 -26 18 -65 35 -86 39 -43 7 -92
-8 -92 -28 0 -8 16 -48 35 -89 56 -122 96 -293 111 -472 l7 -85 -54 -15 c-80
-23 -156 -36 -213 -36 -29 0 -60 -6 -70 -13 -39 -29 27 -113 131 -166 23 -11
47 -21 53 -21 5 0 29 15 53 33 23 18 124 68 222 112 193 85 532 251 578 283
l27 19 -24 11 c-27 12 -74 4 -183 -33 -39 -14 -77 -25 -85 -25 -10 0 -12 32
-8 169 3 93 8 172 11 175 3 3 52 13 110 22 169 26 202 52 144 109 -31 32 -61
31 -150 -1 -121 -44 -109 -51 -101 58 9 120 -4 177 -49 217 l-32 28 104 21
c58 12 111 27 119 33 18 15 18 45 -2 78 -15 26 -15 31 16 103 34 83 99 182
130 198 58 31 -23 129 -136 164 -85 26 -96 25 -159 -5z m63 -167 c3 -46 -16
-163 -42 -253 l-16 -55 -103 -25 c-56 -13 -106 -24 -111 -24 -10 0 -77 346
-69 355 12 12 225 49 278 47 l60 -2 3 -43z"/>
<path d="M2465 2319 c-112 -39 -302 -81 -525 -119 -69 -11 -136 -23 -150 -26
-22 -4 -28 0 -38 30 -7 19 -26 49 -43 67 -35 37 -53 29 -63 -29 -3 -20 -22
-73 -42 -117 -88 -197 -104 -281 -60 -310 18 -12 29 -13 52 -5 61 24 101 83
144 215 12 39 24 71 25 72 1 2 105 19 231 38 126 19 300 47 388 61 173 28 181
27 166 -27 -5 -16 -22 -53 -39 -83 -54 -94 -38 -106 74 -55 82 37 178 59 263
59 61 0 62 0 62 28 0 64 -90 143 -227 201 -37 16 -77 31 -88 33 -11 3 -69 -12
-130 -33z"/>
<path d="M2145 1844 c-71 -19 -172 -43 -224 -54 -136 -29 -152 -47 -68 -77
155 -54 582 34 595 123 8 54 -117 57 -303 8z"/>
<path d="M2410 1530 c-310 -67 -439 -90 -669 -120 -88 -11 -167 -23 -176 -26
-28 -11 -15 -23 43 -41 45 -14 92 -18 224 -18 l168 0 15 -38 c46 -115 60 -463
22 -549 -19 -45 -22 -45 -159 -21 -54 9 -100 14 -104 11 -3 -3 37 -48 88 -100
52 -51 115 -119 142 -151 88 -107 119 -109 156 -10 46 122 52 189 40 417 -7
115 -8 251 -5 303 l7 94 -42 39 c-26 24 -37 40 -28 40 67 0 446 60 514 81 39
12 66 41 58 62 -17 46 -149 59 -294 27z"/>
<path d="M1625 1140 c-29 -47 -132 -256 -151 -307 -29 -77 -32 -148 -6 -162
48 -26 121 28 171 128 47 93 76 284 51 332 -11 20 -54 26 -65 9z"/>
<path d="M2401 1126 c-7 -9 -11 -22 -8 -30 10 -27 204 -251 271 -314 64 -60
103 -81 126 -67 21 13 42 68 42 112 0 66 -37 131 -97 171 -75 50 -245 132
-285 138 -26 4 -40 1 -49 -10z"/>
</g>
</svg>
