<?xml version="1.0" standalone="no"?>
<!DOCTYPE svg PUBLIC "-//W3C//DTD SVG 20010904//EN"
 "http://www.w3.org/TR/2001/REC-SVG-20010904/DTD/svg10.dtd">
<svg version="1.0" xmlns="http://www.w3.org/2000/svg"
 width="340.000000pt" height="340.000000pt" viewBox="0 0 340.000000 340.000000"
 preserveAspectRatio="xMidYMid meet">
<metadata>
Created by potrace 1.15, written by Peter Selinger 2001-2017
</metadata>
<g transform="translate(0.000000,340.000000) scale(0.100000,-0.100000)"
fill="#000000" stroke="none">
<path d="M1835 2793 c3 -16 9 -71 12 -124 6 -115 -10 -210 -65 -374 l-37 -110
-50 -13 c-124 -32 -315 -97 -312 -107 2 -5 17 -13 33 -16 36 -8 153 1 176 13
31 15 42 -27 46 -179 l4 -142 -38 -16 c-22 -9 -108 -34 -193 -55 -84 -22 -156
-41 -159 -45 -14 -14 21 -27 89 -32 57 -4 92 -1 149 15 41 11 88 23 104 27
l29 6 -7 -43 c-11 -66 -70 -237 -112 -320 -76 -152 -167 -266 -291 -365 -46
-36 -83 -69 -83 -73 0 -25 123 34 213 101 191 143 316 346 387 628 l26 104
104 23 c102 23 246 64 303 86 17 7 27 17 25 27 -4 20 -84 61 -118 60 -14 0
-86 -19 -160 -43 -74 -23 -137 -39 -139 -34 -2 5 2 45 8 88 13 89 5 139 -30
184 -12 15 -20 28 -18 30 7 5 174 55 256 76 136 34 165 55 117 87 -37 24 -114
29 -155 10 -54 -25 -142 -57 -147 -53 -5 6 100 213 149 293 23 38 59 92 81
120 38 50 40 55 28 83 -27 65 -106 110 -194 110 -37 0 -38 -1 -31 -27z"/>
<path d="M1033 2551 c-29 -21 -83 -50 -120 -63 -60 -20 -83 -22 -195 -20 -73
2 -128 -1 -128 -6 0 -5 14 -27 31 -48 50 -63 70 -111 101 -244 42 -181 66
-257 83 -264 16 -6 45 29 45 56 0 11 13 21 40 29 22 7 42 10 45 7 13 -12 26
-233 28 -460 l2 -250 -87 -38 -87 -38 -7 66 c-4 37 -4 128 0 202 5 114 4 139
-9 158 -22 31 -94 71 -135 74 -33 3 -35 1 -33 -27 0 -16 13 -68 28 -115 26
-84 49 -220 58 -334 l4 -58 -46 -20 c-25 -11 -86 -28 -135 -38 -48 -11 -90
-21 -93 -24 -10 -9 9 -47 35 -72 28 -25 107 -54 149 -54 14 0 66 30 121 70
135 97 337 216 535 316 92 47 167 89 167 95 0 25 -38 16 -183 -40 -86 -34
-162 -61 -169 -61 -10 0 -12 33 -10 162 2 90 7 166 10 169 4 4 50 17 103 28
53 12 105 29 115 37 18 13 18 15 -9 39 -34 30 -69 32 -137 5 -28 -11 -55 -20
-60 -20 -15 0 -12 52 5 100 14 39 14 44 -5 71 -12 15 -32 37 -45 48 -14 10
-25 21 -25 23 0 3 26 11 58 18 31 7 85 21 120 32 54 16 62 22 62 44 0 16 -8
28 -25 36 -14 6 -25 15 -25 19 0 30 59 155 105 224 30 45 55 86 55 92 0 37
-122 92 -235 107 -47 7 -53 5 -102 -33z m84 -111 c7 -14 13 -43 13 -65 0 -39
-34 -223 -43 -232 -9 -8 -210 -93 -221 -93 -7 0 -21 54 -34 138 -13 75 -26
145 -28 154 -4 13 8 24 45 43 63 31 221 86 241 82 8 -1 20 -13 27 -27z"/>
<path d="M1430 2579 c0 -21 60 -134 98 -184 29 -39 45 -51 69 -53 28 -3 33 1
39 23 6 24 -2 102 -13 131 -10 27 -124 94 -159 94 -19 0 -34 -5 -34 -11z"/>
<path d="M2598 2541 c-66 -45 -173 -84 -232 -84 -23 0 -70 4 -106 8 -50 5 -69
3 -84 -8 -19 -14 -19 -15 3 -83 60 -190 68 -377 54 -1279 -9 -556 -6 -765 10
-781 13 -14 43 26 60 79 55 173 71 521 63 1297 -4 338 -8 626 -9 640 -2 23 4
26 93 52 113 32 168 35 177 11 10 -25 -21 -130 -87 -296 l-59 -150 70 -76
c140 -152 207 -299 181 -398 -21 -77 -27 -80 -124 -54 -130 36 -168 45 -173
39 -8 -8 284 -296 307 -304 25 -8 60 16 87 59 36 58 54 152 55 282 1 115 0
122 -29 174 -41 74 -115 153 -208 223 -43 32 -86 62 -94 67 -34 18 169 310
283 407 89 77 93 106 21 148 -34 20 -175 67 -197 66 -3 0 -31 -18 -62 -39z"/>
<path d="M1760 1458 c0 -16 139 -222 210 -313 62 -78 79 -86 118 -59 18 13 22
25 22 73 0 31 -7 80 -15 107 -13 46 -20 52 -97 101 -148 92 -238 126 -238 91z"/>
</g>
</svg>
