<?xml version="1.0" standalone="no"?>
<!DOCTYPE svg PUBLIC "-//W3C//DTD SVG 20010904//EN"
 "http://www.w3.org/TR/2001/REC-SVG-20010904/DTD/svg10.dtd">
<svg version="1.0" xmlns="http://www.w3.org/2000/svg"
 width="340.000000pt" height="340.000000pt" viewBox="0 0 340.000000 340.000000"
 preserveAspectRatio="xMidYMid meet">
<metadata>
Created by potrace 1.15, written by Peter Selinger 2001-2017
</metadata>
<g transform="translate(0.000000,340.000000) scale(0.100000,-0.100000)"
fill="#000000" stroke="none">
<path d="M2141 2587 c-57 -83 -146 -150 -308 -231 -49 -24 -97 -54 -107 -65
-19 -21 -19 -21 20 -21 21 0 66 7 99 15 33 7 63 11 67 7 24 -26 63 -262 42
-262 -5 0 -65 -9 -134 -20 -99 -17 -134 -19 -173 -10 -68 14 -92 13 -118 -8
l-22 -19 46 -74 c50 -80 93 -176 127 -280 24 -76 52 -109 78 -93 9 6 20 25 23
43 4 18 9 35 12 38 6 5 122 32 145 33 9 0 12 -28 12 -109 l0 -109 -27 -6
c-196 -41 -334 -58 -424 -51 -64 4 -99 3 -103 -4 -4 -6 7 -45 24 -87 42 -106
51 -186 49 -434 -2 -203 -1 -218 20 -273 22 -56 60 -91 79 -73 4 4 8 180 10
392 l3 383 37 10 c20 6 100 26 177 44 l140 35 3 -151 c1 -83 1 -156 -2 -163
-2 -6 -62 -19 -140 -29 -75 -10 -136 -21 -136 -26 0 -5 15 -23 33 -42 31 -31
92 -57 132 -57 10 0 108 45 218 100 110 56 204 99 209 98 5 -2 24 -39 43 -83
46 -106 54 -113 97 -88 74 43 57 165 -35 256 -108 106 -202 112 -132 9 14 -20
21 -40 17 -44 -4 -4 -51 -23 -105 -42 l-97 -36 0 154 0 154 28 6 c75 15 319
46 407 52 128 8 132 5 145 -105 18 -138 -19 -511 -58 -591 -22 -46 -59 -50
-145 -16 -96 39 -103 36 -66 -27 17 -28 53 -98 80 -154 32 -68 54 -103 65
-103 51 0 152 87 192 166 34 68 71 292 88 538 6 90 9 102 39 141 46 60 57 83
50 106 -9 27 -93 92 -168 129 l-63 31 -75 -20 c-74 -21 -277 -54 -399 -66 -36
-3 -77 -8 -92 -11 l-28 -6 1 79 c1 43 4 91 8 108 7 32 -6 28 247 75 67 12 128
26 135 31 11 6 6 16 -20 43 l-34 35 42 50 c23 27 77 83 121 124 l79 74 -27 26
c-35 34 -127 75 -183 83 -37 5 -54 1 -104 -24 -61 -31 -205 -82 -232 -82 -16
0 -16 9 7 91 12 41 11 50 -6 85 -10 21 -33 48 -51 59 -18 11 -32 22 -33 25 0
9 274 115 360 140 140 40 150 48 108 87 -47 43 -167 83 -250 83 -32 0 -41 -5
-67 -43z m199 -544 c0 -33 -24 -150 -41 -201 -14 -43 -28 -66 -43 -72 -24 -11
-179 -50 -195 -50 -12 0 -13 123 -2 225 l6 60 90 22 c90 22 185 30 185 16z
m-380 -172 c0 -65 -3 -132 -6 -148 -6 -30 -8 -31 -87 -40 -45 -6 -85 -7 -89
-4 -9 8 -81 252 -76 257 5 4 216 51 241 53 15 1 17 -11 17 -118z"/>
<path d="M1219 2462 c-95 -64 -254 -103 -340 -83 -49 12 -152 14 -162 5 -3 -4
9 -37 28 -73 44 -89 97 -242 124 -363 22 -97 42 -131 63 -110 5 5 11 25 13 44
2 30 6 34 41 40 22 3 43 2 47 -2 21 -20 29 -191 23 -514 -4 -187 -8 -341 -10
-343 -8 -9 -151 -43 -161 -39 -15 5 -44 216 -52 378 l-6 120 -39 26 c-28 18
-57 27 -100 30 -82 6 -88 -4 -44 -75 64 -105 115 -279 132 -450 l6 -72 -38
-10 c-94 -24 -134 -32 -204 -39 -57 -5 -75 -11 -78 -23 -4 -23 38 -69 103
-115 l56 -38 33 19 c19 11 58 36 87 56 30 20 131 68 224 108 321 136 364 155
387 173 l23 18 -36 0 c-19 0 -71 -11 -115 -24 -43 -13 -80 -22 -82 -21 -2 2 0
98 4 213 l7 210 61 7 c119 13 187 27 209 45 22 18 22 18 2 40 -36 39 -51 42
-118 21 -35 -10 -84 -22 -110 -26 -55 -9 -55 -9 -32 120 8 44 15 91 15 105 0
36 -30 87 -64 109 l-29 19 34 6 c19 3 68 10 109 16 87 12 140 28 140 41 0 5
-16 17 -36 26 -30 15 -34 21 -29 43 12 48 96 170 155 223 33 30 60 58 60 64 0
19 -56 62 -120 92 -99 46 -116 47 -181 3z m23 -144 c5 -37 -11 -125 -38 -207
l-25 -77 -111 -27 c-61 -15 -112 -26 -113 -25 -4 6 -34 303 -31 306 9 8 227
50 268 51 41 1 47 -2 50 -21z"/>
</g>
</svg>
