<?xml version="1.0" standalone="no"?>
<!DOCTYPE svg PUBLIC "-//W3C//DTD SVG 20010904//EN"
 "http://www.w3.org/TR/2001/REC-SVG-20010904/DTD/svg10.dtd">
<svg version="1.0" xmlns="http://www.w3.org/2000/svg"
 width="340.000000pt" height="340.000000pt" viewBox="0 0 340.000000 340.000000"
 preserveAspectRatio="xMidYMid meet">
<metadata>
Created by potrace 1.15, written by Peter Selinger 2001-2017
</metadata>
<g transform="translate(0.000000,340.000000) scale(0.100000,-0.100000)"
fill="#000000" stroke="none">
<path d="M1633 2994 c-34 -8 -28 -35 17 -90 47 -57 103 -160 131 -241 10 -31
18 -57 16 -59 -1 -1 -153 -27 -337 -57 l-335 -54 -60 29 c-60 28 -108 35 -133
19 -10 -6 -7 -24 14 -87 25 -75 26 -86 21 -219 -12 -306 -106 -512 -346 -758
-63 -64 -112 -120 -108 -123 12 -12 54 6 130 55 165 108 314 287 373 447 20
56 31 74 42 69 54 -20 145 -23 219 -5 43 10 92 21 109 25 l32 6 11 -64 c16
-90 14 -182 -4 -217 -15 -28 -19 -30 -75 -30 -33 0 -60 -2 -60 -5 0 -16 173
-175 190 -175 12 0 26 12 35 31 18 33 36 182 34 264 -1 27 1 64 5 81 8 35 -6
79 -35 110 -12 13 -16 24 -11 28 6 3 70 15 144 27 163 25 177 28 206 45 29 19
28 30 -4 59 -32 30 -107 34 -156 9 -33 -17 -183 -64 -205 -64 -10 0 -13 22
-13 90 l0 90 85 0 c97 0 179 15 201 37 13 13 13 18 1 37 -28 41 -60 43 -160 8
-125 -44 -130 -43 -122 12 8 52 -4 80 -48 106 -21 13 -26 21 -16 24 14 5 346
55 387 59 22 2 28 -9 66 -118 51 -143 80 -211 153 -367 l56 -118 -69 -77 c-38
-42 -102 -104 -143 -137 -122 -100 -136 -114 -128 -122 13 -13 141 34 207 77
34 22 93 70 131 108 l69 67 47 -61 c79 -101 233 -254 303 -300 93 -62 162 -87
240 -88 74 -1 110 8 110 27 0 8 -15 60 -34 117 -18 57 -46 157 -61 222 -15 64
-31 117 -35 117 -10 0 -37 -101 -45 -165 -13 -104 -14 -105 -49 -105 -88 0
-246 120 -369 281 l-34 43 85 131 c46 71 102 151 123 177 52 62 66 93 50 112
-22 26 -114 66 -153 66 l-38 0 0 -43 c0 -24 -9 -69 -19 -100 -23 -67 -110
-237 -121 -237 -12 0 -226 498 -217 506 6 6 178 41 245 50 97 13 152 74 99
109 -47 30 -87 29 -223 -9 -72 -20 -136 -36 -142 -36 -17 0 -54 178 -50 244
l3 60 -47 24 c-46 23 -137 36 -185 26z m-292 -585 c20 -38 38 -171 39 -281 l0
-107 -52 -10 c-94 -19 -230 -41 -253 -41 l-22 0 23 113 c13 61 29 159 35 217
6 58 12 106 13 107 2 3 146 20 178 22 18 1 31 -6 39 -20z"/>
<path d="M2285 2870 c-9 -15 9 -40 82 -111 132 -129 191 -161 225 -121 41 46
27 104 -39 163 -33 30 -57 41 -131 58 -99 23 -128 26 -137 11z"/>
<path d="M1650 1871 c-22 -4 -35 -12 -35 -21 0 -19 89 -62 174 -86 l64 -18 18
23 c51 63 -1 112 -116 110 -38 -1 -86 -4 -105 -8z"/>
<path d="M1112 1748 c-7 -7 -12 -17 -12 -24 0 -7 -22 -36 -49 -66 -54 -60 -68
-105 -51 -168 36 -133 183 88 156 234 -7 37 -23 45 -44 24z"/>
<path d="M1929 1530 c-91 -53 -494 -130 -683 -130 -74 0 -136 -14 -136 -31 0
-6 24 -33 53 -62 29 -29 78 -84 109 -123 62 -78 112 -124 134 -124 8 0 25 11
37 24 18 19 40 27 101 35 44 6 81 10 82 8 13 -12 24 -130 24 -243 0 -109 -3
-134 -14 -134 -35 0 -306 142 -306 160 0 4 11 17 25 30 33 31 32 42 -12 80
-44 39 -91 60 -133 60 -29 0 -30 -1 -30 -47 -2 -171 -201 -386 -525 -568 -172
-97 -191 -127 -51 -82 109 36 270 115 373 183 79 53 226 187 272 249 l22 29
322 -161 c517 -259 690 -333 782 -333 84 0 189 25 404 97 198 65 255 93 196
93 -17 1 -181 2 -365 4 -264 3 -355 7 -430 21 -89 16 -307 82 -394 120 -35 15
-38 19 -32 47 3 17 6 58 6 92 l0 61 128 0 c128 1 213 16 290 52 27 13 32 21
30 42 -2 21 -11 29 -48 40 -42 14 -51 12 -209 -28 -90 -23 -166 -39 -169 -36
-3 3 -5 29 -3 59 2 48 -1 58 -29 89 l-31 35 28 6 c15 3 78 12 138 21 153 23
185 32 185 54 0 10 -9 26 -20 36 -11 10 -20 23 -20 30 0 18 71 81 118 104 23
12 42 26 42 31 0 17 -89 82 -140 101 -54 21 -96 24 -121 9z m-32 -182 c-10
-120 8 -110 -253 -147 -184 -26 -229 -30 -236 -19 -24 38 -79 140 -76 143 3 3
303 56 418 74 30 5 77 9 104 10 l49 1 -6 -62z"/>
</g>
</svg>
