<?xml version="1.0" standalone="no"?>
<!DOCTYPE svg PUBLIC "-//W3C//DTD SVG 20010904//EN"
 "http://www.w3.org/TR/2001/REC-SVG-20010904/DTD/svg10.dtd">
<svg version="1.0" xmlns="http://www.w3.org/2000/svg"
 width="340.000000pt" height="340.000000pt" viewBox="0 0 340.000000 340.000000"
 preserveAspectRatio="xMidYMid meet">
<metadata>
Created by potrace 1.15, written by Peter Selinger 2001-2017
</metadata>
<g transform="translate(0.000000,340.000000) scale(0.100000,-0.100000)"
fill="#000000" stroke="none">
<path d="M1024 2723 c24 -163 13 -262 -51 -453 l-38 -113 -45 -3 c-79 -6 -275
-37 -284 -45 -5 -5 12 -18 40 -31 40 -18 68 -22 146 -23 113 0 107 13 51 -125
-67 -165 -134 -282 -196 -345 -56 -56 -59 -61 -53 -98 8 -49 24 -74 57 -87 23
-10 35 -7 86 18 55 28 250 93 321 107 l32 7 0 -155 c0 -152 0 -155 -22 -161
-235 -65 -394 -98 -518 -105 -86 -5 -105 -9 -108 -22 -4 -21 129 -159 152
-159 10 0 59 22 109 49 96 51 234 108 325 135 l53 15 -6 -72 c-12 -132 -26
-231 -45 -315 -17 -71 -18 -93 -9 -156 12 -79 44 -149 71 -154 24 -5 47 36 58
104 6 33 14 187 18 343 l7 284 55 20 c160 57 191 70 215 88 60 48 11 51 -138
9 -59 -17 -114 -30 -122 -30 -13 0 -15 22 -13 152 l3 153 60 12 c33 6 91 17
129 25 38 7 71 18 73 25 2 6 -6 22 -18 34 -20 20 -28 21 -103 16 -44 -3 -93
-9 -107 -12 l-26 -7 8 64 c4 35 15 84 23 109 9 24 16 52 16 61 0 21 -75 67
-122 74 -51 9 -63 -12 -39 -67 23 -54 33 -146 23 -219 l-7 -54 -157 -27 c-87
-14 -158 -25 -158 -24 0 2 56 114 125 251 119 236 127 249 158 256 17 4 92 19
166 33 230 45 283 76 201 117 -50 26 -110 21 -235 -16 -75 -23 -111 -29 -113
-21 -4 17 83 229 139 334 27 52 49 101 49 111 0 9 -12 28 -27 43 -37 35 -158
97 -190 97 -25 0 -25 -1 -19 -47z"/>
<path d="M2275 2349 c-71 -22 -178 -51 -237 -65 -112 -25 -353 -64 -400 -64
-55 0 -24 -56 37 -70 22 -5 70 -10 106 -10 l66 0 13 -72 c6 -40 14 -135 17
-210 5 -112 3 -138 -8 -142 -8 -3 -67 -12 -132 -21 -105 -13 -123 -13 -154 0
-45 19 -103 20 -103 2 0 -8 9 -49 20 -92 11 -43 25 -128 31 -190 9 -97 8 -137
-10 -298 -33 -288 -29 -417 13 -479 26 -39 37 -40 53 -8 27 57 53 455 53 808
0 100 2 182 4 182 2 0 49 9 105 21 56 11 105 19 110 17 24 -10 -51 -296 -115
-435 -19 -42 -34 -81 -34 -89 0 -19 17 -26 39 -15 18 10 90 125 127 203 9 20
21 35 25 32 5 -2 22 -31 39 -63 42 -78 94 -129 118 -115 11 7 18 27 20 57 3
41 -1 50 -33 86 -20 21 -56 48 -81 58 -43 17 -45 20 -39 48 4 17 17 80 29 140
l22 110 120 16 c65 9 122 14 126 12 8 -4 6 -31 -13 -178 -24 -188 -75 -341
-159 -480 -78 -128 -77 -167 3 -108 73 55 168 212 199 328 7 25 15 44 19 43 3
-2 42 -46 86 -98 135 -161 156 -178 183 -145 17 20 7 107 -18 148 -24 42 -112
103 -179 124 -34 11 -53 22 -53 32 0 9 11 79 25 155 14 77 25 152 25 167 0 32
24 39 137 39 81 0 124 -16 145 -53 27 -46 10 -533 -27 -777 -31 -204 -31 -204
-182 -195 -62 4 -113 5 -113 2 0 -3 21 -30 48 -60 26 -30 72 -93 102 -141 30
-47 61 -88 68 -91 22 -8 96 50 135 107 83 123 97 196 107 578 10 382 29 500
91 566 l21 22 -39 43 c-70 77 -204 124 -273 95 -45 -18 -200 -40 -210 -29 -9
10 14 149 41 237 20 68 20 70 2 94 -11 14 -45 40 -78 58 l-58 32 44 6 c336 41
431 67 403 113 -21 36 -65 47 -184 50 -110 3 -121 1 -245 -38z m-56 -196 c13
-67 15 -383 2 -383 -5 0 -62 -7 -126 -16 -64 -9 -118 -14 -120 -12 -5 5 20
133 46 234 21 83 21 85 3 105 -11 12 -41 33 -69 47 l-50 26 135 27 c74 15 142
27 151 28 12 1 19 -14 28 -56z"/>
</g>
</svg>
