<?xml version="1.0" standalone="no"?>
<!DOCTYPE svg PUBLIC "-//W3C//DTD SVG 20010904//EN"
 "http://www.w3.org/TR/2001/REC-SVG-20010904/DTD/svg10.dtd">
<svg version="1.0" xmlns="http://www.w3.org/2000/svg"
 width="340.000000pt" height="340.000000pt" viewBox="0 0 340.000000 340.000000"
 preserveAspectRatio="xMidYMid meet">
<metadata>
Created by potrace 1.15, written by Peter Selinger 2001-2017
</metadata>
<g transform="translate(0.000000,340.000000) scale(0.100000,-0.100000)"
fill="#000000" stroke="none">
<path d="M970 2775 c-11 -13 -9 -24 8 -63 12 -26 24 -61 27 -78 8 -43 -11
-188 -43 -324 l-27 -115 -163 -39 c-149 -36 -163 -41 -160 -60 2 -11 14 -26
28 -33 28 -14 140 -16 215 -3 28 4 52 6 55 3 8 -8 -61 -195 -106 -285 -45 -90
-118 -178 -147 -178 -26 0 -42 -99 -23 -144 22 -52 58 -63 100 -31 56 43 325
155 372 155 16 0 19 -83 8 -227 l-7 -81 -166 -56 c-204 -68 -307 -94 -406
-103 -47 -4 -75 -10 -75 -18 0 -23 63 -106 99 -131 42 -28 86 -31 122 -6 111
74 140 93 188 117 54 27 224 95 237 95 13 0 -5 -273 -23 -365 -33 -170 -17
-351 36 -399 18 -16 20 -16 39 9 45 57 65 275 56 590 l-6 220 138 67 c77 37
155 81 174 97 l35 30 -27 1 c-15 0 -91 -20 -168 -45 -77 -25 -143 -45 -146
-45 -8 0 -1 277 7 285 4 3 62 17 130 30 157 31 189 42 189 66 0 38 -115 50
-210 23 -108 -31 -110 -31 -110 8 0 19 5 60 11 91 11 52 10 59 -7 78 -36 40
-152 67 -168 40 -4 -5 5 -31 18 -58 24 -48 46 -141 46 -195 0 -26 -5 -29 -82
-52 -125 -38 -210 -58 -216 -52 -3 3 34 90 83 193 48 104 99 213 112 244 l24
56 142 27 c323 61 402 100 334 164 -41 39 -87 37 -266 -8 -90 -22 -166 -39
-168 -36 -7 7 11 58 84 246 56 144 62 167 52 187 -21 39 -167 122 -215 123
-12 0 -27 -7 -34 -15z"/>
<path d="M2245 2520 c-171 -58 -340 -104 -437 -121 -115 -19 -114 -56 1 -80
46 -10 73 -9 156 5 230 40 486 106 568 148 29 14 38 24 35 41 -4 28 -39 44
-113 52 -54 5 -75 1 -210 -45z"/>
<path d="M2230 2120 c-95 -50 -200 -71 -360 -75 -175 -4 -170 -4 -176 -18 -2
-7 16 -44 40 -80 39 -59 86 -173 86 -211 0 -32 33 -118 56 -146 34 -40 52 -38
71 8 8 20 16 38 17 39 1 1 92 20 202 42 110 22 226 49 257 61 l58 22 -20 33
-19 34 30 48 c16 26 57 76 91 110 l61 62 -40 38 c-49 47 -96 63 -199 68 -77 3
-83 2 -155 -35z m101 -92 c16 -30 5 -121 -23 -176 -19 -40 -31 -50 -71 -64
-65 -24 -190 -56 -246 -64 l-47 -6 -27 100 c-15 56 -27 110 -27 121 0 23 -1
22 200 70 202 48 224 50 241 19z"/>
<path d="M2517 1509 c-198 -53 -784 -162 -880 -163 -61 -1 -90 -5 -96 -14 -5
-8 3 -42 20 -85 56 -145 92 -319 108 -524 10 -121 26 -175 55 -186 24 -9 48
17 61 68 11 45 15 50 46 57 72 14 467 58 531 58 l66 0 16 -42 c9 -24 23 -73
31 -111 13 -57 31 -110 42 -126 8 -11 86 57 117 102 66 97 125 286 126 403 0
69 26 214 51 292 11 34 36 80 54 102 30 36 33 44 23 65 -13 29 -64 65 -138 99
-83 37 -112 38 -233 5z m87 -101 c41 -58 0 -511 -55 -620 -11 -21 -22 -38 -24
-38 -3 0 -25 16 -51 35 -25 19 -55 35 -67 35 -12 0 -68 -11 -124 -24 l-103
-23 0 132 0 132 107 17 c132 22 181 40 189 72 8 31 -1 42 -41 50 -23 4 -58 -1
-107 -16 -40 -13 -88 -26 -107 -31 l-33 -7 8 56 c16 116 13 134 -28 161 -21
13 -36 26 -34 28 4 5 239 50 286 56 19 2 65 5 102 5 59 2 69 -1 82 -20z m-534
-131 c6 -29 10 -79 8 -111 l-3 -60 -99 -23 c-163 -38 -165 -63 -3 -63 l97 0 0
-129 0 -129 -27 -6 c-73 -14 -192 -27 -223 -24 l-35 3 -33 269 c-18 148 -30
271 -28 273 5 6 111 31 221 52 57 12 94 15 102 9 7 -5 17 -33 23 -61z"/>
</g>
</svg>
