<?xml version="1.0" standalone="no"?>
<!DOCTYPE svg PUBLIC "-//W3C//DTD SVG 20010904//EN"
 "http://www.w3.org/TR/2001/REC-SVG-20010904/DTD/svg10.dtd">
<svg version="1.0" xmlns="http://www.w3.org/2000/svg"
 width="340.000000pt" height="340.000000pt" viewBox="0 0 340.000000 340.000000"
 preserveAspectRatio="xMidYMid meet">
<metadata>
Created by potrace 1.15, written by Peter Selinger 2001-2017
</metadata>
<g transform="translate(0.000000,340.000000) scale(0.100000,-0.100000)"
fill="#000000" stroke="none">
<path d="M2123 2830 c-13 -5 -23 -12 -23 -15 0 -21 40 -72 117 -147 113 -110
153 -128 192 -87 31 34 37 98 12 146 -25 51 -50 66 -136 86 -102 23 -137 27
-162 17z"/>
<path d="M958 2723 c-35 -9 -17 -42 66 -121 83 -78 152 -122 193 -122 79 0 67
157 -16 199 -62 32 -198 57 -243 44z"/>
<path d="M1577 2584 c-16 -16 -4 -42 68 -137 41 -54 75 -103 75 -108 0 -5 14
-16 31 -24 27 -15 33 -15 53 -1 52 34 58 127 10 171 -30 28 -159 93 -199 101
-17 3 -33 2 -38 -2z"/>
<path d="M2505 2484 c-27 -8 -122 -37 -210 -64 -88 -26 -198 -58 -245 -71
-158 -42 -137 -64 60 -63 67 0 149 8 198 18 45 9 88 14 94 10 15 -10 4 -107
-22 -184 -12 -36 -45 -115 -75 -177 -60 -126 -41 -114 -205 -133 -144 -17
-259 -41 -282 -60 l-22 -17 23 -12 c41 -22 160 -25 275 -6 58 10 110 15 113
11 8 -8 28 -234 22 -241 -3 -2 -74 -16 -159 -30 -85 -14 -158 -29 -164 -35
-13 -13 11 -40 51 -56 23 -10 44 -11 75 -5 175 37 190 39 193 27 3 -6 6 -229
8 -496 2 -267 7 -495 11 -508 6 -16 15 -22 30 -20 15 2 26 17 41 58 18 51 20
87 23 526 l3 472 32 7 c18 4 116 10 219 13 162 6 190 9 205 25 17 17 17 19
-19 52 -56 52 -102 60 -201 35 -119 -30 -227 -49 -232 -41 -2 4 0 36 5 72 14
92 13 102 -15 143 -13 20 -21 36 -17 36 4 0 63 9 132 21 69 11 195 23 280 26
85 3 165 10 178 14 54 20 1 87 -90 114 -77 23 -127 19 -246 -20 -141 -45 -232
-66 -232 -53 0 16 120 195 183 273 81 100 80 104 -49 181 -15 9 -6 14 56 29
107 25 165 52 179 81 14 33 9 41 -37 54 -50 14 -107 12 -167 -6z"/>
<path d="M1155 2325 c-140 -38 -394 -98 -487 -116 -183 -34 124 -65 341 -34
68 9 126 14 129 10 4 -4 7 -46 7 -93 0 -95 -19 -165 -78 -282 -38 -78 -20 -71
-356 -126 -263 -43 -301 -51 -301 -64 0 -14 66 -45 126 -60 56 -14 38 -17 329
59 96 26 111 27 119 14 12 -22 20 -125 12 -166 l-6 -34 -138 -33 c-303 -71
-304 -72 -286 -90 30 -30 234 -30 369 0 22 5 41 7 44 5 2 -2 -6 -46 -18 -97
-41 -177 -127 -347 -268 -536 -40 -53 -73 -100 -73 -104 0 -25 65 10 144 76
131 109 253 321 306 530 17 65 30 128 30 141 0 30 13 39 91 59 78 21 169 61
169 75 0 38 -109 53 -185 26 -22 -8 -41 -15 -43 -15 -2 0 0 26 4 59 8 72 -4
97 -58 121 l-40 18 43 7 c104 16 281 67 303 86 6 5 2 17 -9 29 -23 26 -68 26
-142 1 -83 -28 -133 -40 -133 -33 0 13 98 172 146 237 27 36 59 80 72 98 l23
32 -21 17 c-12 10 -49 28 -83 40 l-62 22 50 14 c182 49 234 74 222 106 -18 46
-119 47 -292 1z"/>
<path d="M2015 2140 c-7 -23 53 -129 94 -167 31 -29 65 -29 85 -1 27 38 20 66
-30 111 -80 74 -137 95 -149 57z"/>
<path d="M1591 2055 c-41 -42 -100 -71 -171 -85 -72 -14 -81 -25 -37 -46 33
-16 46 -16 113 -6 42 7 80 10 85 6 24 -15 -15 -547 -47 -633 -9 -24 -37 -68
-62 -99 l-45 -56 12 -45 c14 -54 52 -116 81 -131 18 -9 23 -5 48 36 15 26 60
99 101 163 175 274 242 394 227 409 -8 7 -30 -16 -161 -166 -78 -90 -101 -109
-91 -74 2 9 7 69 11 132 12 238 27 385 41 411 8 15 39 49 69 75 l55 48 -23 24
c-29 32 -86 60 -134 67 -34 4 -42 1 -72 -30z"/>
<path d="M777 2063 c-16 -15 -5 -57 34 -130 49 -92 62 -108 83 -100 27 11 56
69 56 114 0 46 -19 65 -102 103 -46 21 -61 24 -71 13z"/>
</g>
</svg>
