<?xml version="1.0" standalone="no"?>
<!DOCTYPE svg PUBLIC "-//W3C//DTD SVG 20010904//EN"
 "http://www.w3.org/TR/2001/REC-SVG-20010904/DTD/svg10.dtd">
<svg version="1.0" xmlns="http://www.w3.org/2000/svg"
 width="340.000000pt" height="340.000000pt" viewBox="0 0 340.000000 340.000000"
 preserveAspectRatio="xMidYMid meet">
<metadata>
Created by potrace 1.15, written by Peter Selinger 2001-2017
</metadata>
<g transform="translate(0.000000,340.000000) scale(0.100000,-0.100000)"
fill="#000000" stroke="none">
<path d="M2113 2833 c-21 -8 -15 -26 26 -91 70 -108 162 -182 226 -182 14 0
37 11 50 25 71 70 -25 194 -177 229 -97 23 -111 25 -125 19z"/>
<path d="M897 2753 c-19 -18 0 -48 70 -113 139 -128 222 -149 252 -63 13 37
13 43 -7 84 -25 51 -56 72 -130 88 -58 12 -175 15 -185 4z"/>
<path d="M1597 2643 c-4 -3 -7 -49 -7 -100 0 -75 -5 -110 -26 -171 -37 -111
-96 -218 -159 -290 -46 -53 -54 -68 -49 -90 12 -50 24 -72 39 -78 8 -3 68 10
132 29 149 45 193 57 193 51 0 -8 -172 -258 -207 -301 -19 -23 -59 -60 -89
-83 -55 -41 -55 -42 -49 -83 14 -93 14 -93 123 -38 87 44 188 85 309 125 83
28 134 58 121 72 -5 4 -70 -5 -145 -20 -209 -41 -223 -44 -223 -39 0 2 17 27
38 56 108 147 385 575 385 595 0 30 -23 53 -84 86 -71 39 -79 33 -79 -63 0
-70 -4 -89 -36 -160 -20 -44 -43 -82 -51 -86 -29 -11 -202 -29 -210 -22 -8 9
96 224 185 381 34 60 62 117 62 126 0 28 -28 57 -77 77 -66 28 -88 34 -96 26z"/>
<path d="M2530 2476 c-41 -13 -125 -44 -186 -69 -61 -25 -144 -54 -184 -66
-41 -11 -80 -27 -89 -35 -12 -13 -11 -16 13 -27 22 -10 52 -10 149 -1 86 9
124 9 131 2 19 -20 12 -206 -13 -322 l-23 -106 -47 -7 c-25 -4 -100 -20 -166
-36 -66 -16 -127 -29 -137 -29 -9 0 -29 -5 -44 -10 -25 -10 -26 -12 -12 -27
24 -23 94 -27 178 -8 41 8 87 18 101 21 32 7 36 -4 45 -131 l7 -91 -130 -22
c-149 -26 -203 -40 -203 -51 0 -17 39 -42 74 -48 22 -3 77 3 141 17 58 13 107
21 110 18 4 -3 8 -194 11 -424 3 -231 9 -463 14 -516 15 -148 43 -189 74 -105
33 88 39 175 45 627 l6 455 120 12 c66 6 164 15 217 18 113 8 137 20 123 60
-13 35 -68 65 -120 65 -22 0 -106 -16 -188 -36 -81 -21 -150 -34 -153 -31 -4
3 1 38 11 77 9 38 15 77 12 85 -4 8 -27 25 -53 38 l-47 24 134 21 c114 18 237
35 425 58 23 3 50 11 60 18 45 34 -43 106 -130 106 -28 0 -85 -16 -158 -44
-111 -43 -278 -98 -278 -91 0 2 29 42 65 90 90 119 126 183 123 220 -3 27 -12
34 -85 70 -45 22 -83 43 -83 46 0 3 63 25 140 49 77 23 153 51 170 61 40 25
41 62 3 77 -56 22 -97 22 -173 -2z"/>
<path d="M1215 2379 c-22 -5 -74 -20 -116 -34 -86 -27 -285 -70 -374 -81 -120
-14 -133 -35 -35 -54 91 -18 254 -14 368 10 117 23 256 65 290 86 25 16 29 46
8 63 -19 16 -95 22 -141 10z"/>
<path d="M1113 2159 c-8 -8 -13 -40 -13 -78 0 -80 -31 -214 -64 -280 l-25 -49
-110 -25 c-115 -27 -337 -71 -431 -84 -67 -10 -72 -29 -17 -57 69 -33 148 -32
295 4 73 18 134 31 137 28 11 -10 26 -121 20 -147 -5 -26 -13 -28 -188 -72
-195 -48 -218 -62 -142 -87 22 -8 63 -16 90 -19 47 -5 97 9 224 64 11 5 12 -6
6 -61 -23 -221 -137 -457 -304 -630 l-76 -79 39 6 c49 8 130 61 194 128 122
127 240 400 267 614 l6 51 102 28 c115 32 127 39 127 72 0 47 -69 48 -183 5
-16 -6 -30 -11 -31 -11 -2 0 -3 25 -2 56 1 56 1 57 -39 78 l-40 20 45 12 c366
98 380 103 367 139 -10 24 -74 47 -111 40 -17 -3 -57 -15 -88 -27 -31 -11 -61
-18 -67 -17 -5 2 8 33 30 69 59 96 129 237 129 260 0 26 -34 47 -90 55 -31 4
-49 2 -57 -6z"/>
<path d="M2033 2114 c-8 -21 45 -130 83 -171 36 -38 56 -41 85 -12 17 17 20
30 16 66 -6 53 -24 75 -90 108 -59 29 -85 32 -94 9z"/>
<path d="M733 2053 c-24 -9 -13 -57 28 -120 54 -82 94 -117 119 -103 25 14 50
50 50 74 0 11 -10 40 -21 64 -17 33 -32 48 -63 62 -50 21 -96 31 -113 23z"/>
<path d="M1750 1339 c-221 -100 -369 -158 -446 -174 -37 -8 -72 -19 -77 -24
-20 -20 7 -64 62 -103 67 -47 98 -48 137 -7 16 17 127 96 247 177 198 132 247
171 247 194 0 14 -11 10 -170 -63z"/>
</g>
</svg>
