<?xml version="1.0" standalone="no"?>
<!DOCTYPE svg PUBLIC "-//W3C//DTD SVG 20010904//EN"
 "http://www.w3.org/TR/2001/REC-SVG-20010904/DTD/svg10.dtd">
<svg version="1.0" xmlns="http://www.w3.org/2000/svg"
 width="340.000000pt" height="340.000000pt" viewBox="0 0 340.000000 340.000000"
 preserveAspectRatio="xMidYMid meet">
<metadata>
Created by potrace 1.15, written by Peter Selinger 2001-2017
</metadata>
<g transform="translate(0.000000,340.000000) scale(0.100000,-0.100000)"
fill="#000000" stroke="none">
<path d="M1678 2738 c-3 -7 0 -33 5 -58 14 -65 -6 -158 -57 -266 -49 -103 -95
-174 -206 -319 -112 -146 -123 -175 -57 -143 39 19 218 178 268 239 l37 44 38
-14 c67 -25 165 -17 334 27 247 65 369 110 400 147 13 15 12 20 -8 35 -12 11
-47 24 -78 31 -69 15 -117 5 -245 -51 -186 -83 -265 -114 -346 -136 -46 -12
-83 -21 -83 -19 0 2 52 80 116 175 131 194 133 199 59 250 -87 60 -168 86
-177 58z"/>
<path d="M760 2563 c-56 -9 -55 -12 16 -84 97 -99 296 -228 329 -215 26 10 47
67 42 113 -8 76 -47 113 -158 149 -92 31 -179 45 -229 37z"/>
<path d="M1798 2133 c-24 -6 -23 -35 3 -67 35 -44 58 -120 65 -209 l7 -83
-134 -60 -134 -61 -3 84 c-3 82 -3 84 -35 103 -21 13 -50 20 -86 20 -46 0 -53
-2 -48 -17 4 -10 15 -44 27 -77 12 -32 24 -86 27 -120 l5 -61 -148 -50 c-82
-27 -157 -57 -168 -66 -18 -17 -18 -17 2 -28 11 -6 45 -15 74 -19 49 -7 60 -5
148 34 l95 42 7 -138 c5 -109 11 -148 28 -189 41 -94 134 -155 285 -186 95
-20 357 -22 486 -5 171 22 321 78 401 150 l40 35 -36 105 c-20 58 -40 129 -46
159 -17 90 -30 84 -41 -19 -22 -207 -166 -289 -556 -319 -249 -20 -388 20
-438 126 -23 47 -37 177 -29 269 l6 71 123 66 c68 37 127 67 132 67 4 0 5 -39
1 -87 -10 -137 -9 -339 2 -368 10 -25 12 -26 32 -13 41 27 62 136 76 386 l7
134 134 54 c74 29 137 51 140 49 3 -3 0 -52 -7 -109 -12 -107 -42 -214 -64
-227 -7 -5 -38 -6 -68 -3 -91 8 -92 -3 -7 -91 85 -88 97 -90 156 -33 48 47 81
119 102 227 21 101 57 192 91 229 43 45 -10 106 -121 139 l-56 16 -55 -30
c-30 -17 -97 -54 -148 -83 -51 -29 -94 -51 -96 -49 -2 2 0 60 5 128 4 69 6
128 3 133 -6 10 -131 48 -153 47 -9 -1 -24 -3 -33 -6z"/>
<path d="M820 1814 c-40 -41 -167 -105 -257 -129 -69 -19 -94 -38 -74 -58 8
-8 46 -12 109 -11 79 0 111 5 172 28 41 15 82 29 91 32 14 5 14 -4 -2 -93 -10
-54 -18 -138 -19 -187 0 -80 3 -96 35 -165 34 -76 58 -162 69 -252 l5 -45
-172 -22 c-95 -12 -190 -23 -212 -23 -56 -1 -89 -12 -93 -31 -2 -8 22 -38 55
-68 55 -50 59 -52 103 -47 25 3 81 20 125 38 63 26 98 34 165 37 132 6 158 -2
930 -271 118 -41 261 -85 317 -98 95 -21 109 -22 188 -11 111 16 290 68 474
137 159 60 194 80 199 115 4 26 20 26 -173 -3 -132 -19 -703 -15 -855 6 -180
25 -396 70 -540 113 -69 20 -177 49 -240 66 -63 16 -131 33 -150 38 l-35 9 0
108 c0 121 -13 181 -61 299 -33 80 -33 83 -19 130 20 65 62 136 124 209 28 32
51 63 51 68 0 5 -15 24 -34 42 -36 34 -108 60 -191 69 -47 5 -52 3 -85 -30z"/>
</g>
</svg>
