<?xml version="1.0" standalone="no"?>
<!DOCTYPE svg PUBLIC "-//W3C//DTD SVG 20010904//EN"
 "http://www.w3.org/TR/2001/REC-SVG-20010904/DTD/svg10.dtd">
<svg version="1.0" xmlns="http://www.w3.org/2000/svg"
 width="340.000000pt" height="340.000000pt" viewBox="0 0 340.000000 340.000000"
 preserveAspectRatio="xMidYMid meet">
<metadata>
Created by potrace 1.15, written by Peter Selinger 2001-2017
</metadata>
<g transform="translate(0.000000,340.000000) scale(0.100000,-0.100000)"
fill="#000000" stroke="none">
<path d="M2250 2465 c-111 -51 -474 -137 -696 -166 -84 -11 -95 -11 -154 9
-35 12 -79 22 -98 22 -39 0 -39 8 2 -127 14 -45 31 -122 38 -170 17 -114 16
-493 -1 -689 -12 -135 -11 -157 3 -207 20 -69 72 -120 92 -92 7 10 16 43 21
74 10 73 10 621 0 874 -7 161 -6 198 5 201 34 10 565 108 657 122 136 20 179
16 203 -16 42 -57 68 -302 68 -639 0 -353 -17 -474 -66 -484 -32 -6 -109 8
-157 29 -20 10 -40 14 -43 11 -3 -3 23 -48 59 -99 35 -51 83 -126 106 -165 23
-40 45 -73 48 -73 3 0 25 11 48 25 51 29 86 74 128 163 l32 67 0 195 c0 107
-4 310 -8 450 -9 254 -9 255 16 350 14 52 35 115 46 140 l21 45 -42 39 c-53
48 -194 117 -250 122 -26 3 -57 -2 -78 -11z"/>
<path d="M656 2421 c-19 -30 168 -223 267 -276 54 -28 56 -29 75 -11 11 9 26
30 32 46 28 68 -47 170 -158 215 -74 31 -204 46 -216 26z"/>
<path d="M1940 1989 c-79 -35 -182 -59 -256 -59 -39 0 -73 -2 -76 -5 -3 -4 5
-36 18 -73 29 -85 42 -170 53 -345 7 -114 12 -143 28 -165 11 -15 28 -28 37
-30 18 -4 36 33 36 76 0 15 4 33 8 39 5 7 56 20 115 28 59 8 129 20 155 25 96
22 98 24 53 87 l-28 39 21 60 c12 32 41 95 64 138 23 44 42 87 42 96 0 23 -47
65 -100 89 -56 26 -112 25 -170 0z m56 -114 c20 -48 18 -122 -7 -227 -25 -107
-37 -117 -135 -121 l-68 -2 -22 165 c-12 91 -19 168 -15 172 9 11 161 46 199
47 29 1 35 -4 48 -34z"/>
<path d="M770 1783 c-47 -25 -128 -64 -180 -85 -134 -55 -153 -80 -68 -91 57
-8 173 17 275 58 46 18 83 30 83 27 0 -4 -4 -22 -10 -41 -22 -77 -51 -237 -51
-285 -1 -37 9 -75 34 -137 38 -90 77 -220 77 -254 0 -18 -7 -20 -83 -22 -92
-3 -223 -24 -334 -53 -90 -23 -93 -25 -93 -55 0 -26 69 -92 105 -101 12 -3 57
11 108 35 179 82 305 106 414 77 34 -9 271 -86 525 -171 508 -169 711 -227
798 -227 73 0 193 45 465 174 214 102 235 114 235 129 0 13 -55 11 -224 -8
-216 -24 -732 -24 -906 0 -145 20 -302 53 -485 100 -71 19 -203 49 -292 67
l-163 33 0 43 c0 55 -22 168 -54 273 -14 47 -26 95 -26 108 0 42 39 140 96
242 31 55 54 108 52 118 -5 29 -145 93 -203 93 -5 0 -48 -21 -95 -47z"/>
</g>
</svg>
