<?xml version="1.0" standalone="no"?>
<!DOCTYPE svg PUBLIC "-//W3C//DTD SVG 20010904//EN"
 "http://www.w3.org/TR/2001/REC-SVG-20010904/DTD/svg10.dtd">
<svg version="1.0" xmlns="http://www.w3.org/2000/svg"
 width="340.000000pt" height="340.000000pt" viewBox="0 0 340.000000 340.000000"
 preserveAspectRatio="xMidYMid meet">
<metadata>
Created by potrace 1.15, written by Peter Selinger 2001-2017
</metadata>
<g transform="translate(0.000000,340.000000) scale(0.100000,-0.100000)"
fill="#000000" stroke="none">
<path d="M1898 2653 c0 -5 -2 -60 -3 -123 -1 -101 -5 -126 -33 -208 -17 -51
-53 -136 -78 -188 l-47 -96 -46 6 c-96 14 -189 18 -194 9 -3 -5 7 -36 22 -68
56 -118 73 -264 75 -630 1 -230 3 -264 19 -293 10 -18 25 -36 33 -39 21 -8 49
21 63 67 8 28 19 41 34 45 52 12 277 35 342 35 85 0 97 -9 142 -110 38 -84 53
-97 87 -75 33 22 81 94 106 162 29 79 39 159 49 418 9 245 9 246 82 422 12 30
11 34 -9 56 -26 27 -91 62 -177 93 l-59 21 -126 -33 c-128 -35 -315 -74 -351
-74 -17 0 -14 8 24 58 24 31 82 116 129 187 59 90 104 147 149 187 l64 58 -40
35 c-65 57 -131 85 -197 85 -32 0 -59 -3 -60 -7z m351 -642 c36 -36 43 -116
38 -425 -4 -287 -12 -353 -42 -384 -10 -11 -20 -5 -59 34 l-47 47 -62 -7 c-34
-3 -100 -17 -147 -31 -47 -13 -113 -31 -147 -39 l-63 -14 0 189 0 189 103 0
c109 0 200 11 284 36 41 11 54 20 59 38 8 35 -11 63 -51 76 -42 14 -62 10
-220 -39 -66 -21 -132 -41 -146 -44 l-26 -7 -7 138 c-4 75 -8 150 -9 166 -2
35 0 36 201 71 177 30 314 33 341 6z"/>
<path d="M826 2391 c-16 -3 -31 -11 -33 -17 -5 -14 113 -122 186 -171 63 -42
139 -73 180 -73 90 0 74 182 -19 230 -65 33 -229 50 -314 31z"/>
<path d="M853 1762 c-58 -51 -187 -112 -275 -130 -71 -15 -83 -20 -86 -39 -3
-17 6 -24 43 -38 66 -26 184 -16 295 23 46 17 86 29 87 28 2 -2 -3 -30 -11
-62 -8 -32 -20 -96 -27 -142 l-11 -82 80 -168 c45 -92 84 -179 87 -193 6 -26
6 -26 -65 -33 -39 -4 -133 -22 -208 -41 -75 -18 -155 -36 -177 -39 -64 -11
-75 -16 -75 -35 0 -31 94 -101 136 -101 12 0 67 18 123 41 116 46 212 69 303
70 56 1 114 -16 528 -154 256 -86 523 -170 594 -187 122 -31 134 -32 205 -22
42 6 114 23 160 37 105 33 431 171 451 191 30 29 -6 36 -145 27 -199 -12 -695
-9 -815 5 -179 22 -379 59 -540 102 -85 22 -212 55 -282 73 l-128 32 0 75 c0
91 -10 129 -62 244 -56 122 -59 158 -18 234 18 33 56 90 86 126 30 36 54 70
54 75 0 32 -137 97 -223 106 -47 5 -55 3 -84 -23z"/>
</g>
</svg>
