<?xml version="1.0" standalone="no"?>
<!DOCTYPE svg PUBLIC "-//W3C//DTD SVG 20010904//EN"
 "http://www.w3.org/TR/2001/REC-SVG-20010904/DTD/svg10.dtd">
<svg version="1.0" xmlns="http://www.w3.org/2000/svg"
 width="340.000000pt" height="340.000000pt" viewBox="0 0 340.000000 340.000000"
 preserveAspectRatio="xMidYMid meet">
<metadata>
Created by potrace 1.15, written by Peter Selinger 2001-2017
</metadata>
<g transform="translate(0.000000,340.000000) scale(0.100000,-0.100000)"
fill="#000000" stroke="none">
<path d="M1946 2772 c-49 -78 -142 -146 -350 -253 -173 -90 -145 -103 79 -37
92 27 100 28 112 12 12 -17 27 -78 38 -164 l7 -46 -199 -47 c-109 -26 -227
-53 -263 -60 -36 -7 -65 -17 -64 -22 0 -6 22 -21 48 -34 l47 -24 87 26 c48 15
114 29 147 33 l59 7 -18 -29 c-96 -150 -250 -317 -434 -471 -62 -52 -111 -97
-109 -99 9 -9 101 26 181 69 204 108 376 279 487 481 l27 50 7 -36 c4 -20 2
-86 -5 -148 -12 -110 -9 -152 11 -217 8 -25 16 -33 34 -33 12 0 26 8 31 18 4
9 10 101 12 204 l4 188 46 -40 c118 -100 357 -293 400 -322 44 -31 53 -33 143
-36 114 -4 316 29 352 58 12 10 19 21 16 24 -3 4 -42 13 -85 20 -193 34 -366
92 -545 182 -108 54 -324 192 -315 201 8 9 222 32 390 44 167 11 206 22 206
61 0 25 -64 54 -157 70 -70 12 -71 11 -164 -24 -52 -20 -112 -41 -134 -47 -22
-6 -62 -18 -89 -26 l-49 -15 7 94 c7 104 4 111 -56 142 -17 9 -26 19 -22 23 5
4 65 24 134 45 215 64 234 71 238 84 8 26 -67 81 -136 101 -124 36 -129 36
-156 -7z"/>
<path d="M751 2501 c-12 -8 -8 -19 19 -63 75 -119 207 -258 245 -258 17 0 52
40 65 74 8 21 8 44 0 82 -11 50 -14 55 -76 94 -110 70 -211 98 -253 71z"/>
<path d="M810 1814 c-54 -44 -208 -126 -262 -140 -16 -3 -28 -13 -28 -20 0
-19 39 -33 111 -41 55 -5 63 -4 118 31 33 20 73 39 90 42 39 8 39 7 1 -166
-42 -191 -41 -217 20 -353 45 -102 69 -177 84 -264 l5 -32 -244 -3 c-134 -2
-246 -6 -250 -9 -9 -10 19 -71 41 -91 11 -9 38 -26 60 -37 l41 -22 98 26 c134
35 257 47 342 35 83 -11 291 -74 548 -164 223 -79 441 -143 614 -182 l123 -27
110 27 c140 35 509 162 550 190 18 11 30 26 27 31 -2 6 -167 10 -464 10 -486
1 -524 3 -815 55 -146 26 -450 100 -450 108 0 4 26 22 58 40 133 76 273 220
393 402 37 58 82 123 98 145 49 67 46 87 -21 121 -50 26 -52 27 -29 36 65 24
255 69 279 66 24 -3 27 -7 24 -38 -4 -61 -32 -128 -78 -191 -95 -129 -81 -168
42 -114 94 41 132 49 160 30 19 -12 24 -24 24 -56 0 -96 -79 -300 -125 -321
-18 -8 -44 -5 -119 15 -53 13 -98 21 -101 17 -2 -4 7 -22 21 -41 14 -19 50
-71 79 -115 29 -45 58 -85 64 -88 18 -12 104 33 149 77 63 61 79 92 111 214
33 127 50 165 99 215 34 36 35 39 21 64 -18 34 -70 69 -132 90 -46 15 -52 15
-133 -6 -47 -12 -87 -20 -90 -18 -8 9 74 118 138 181 37 37 68 71 68 75 0 24
-47 75 -90 100 -60 34 -54 35 -240 -31 -109 -39 -293 -87 -495 -130 -76 -16
-79 -36 -8 -59 l52 -17 101 30 c56 17 103 29 106 27 6 -7 -32 -112 -71 -194
-72 -148 -227 -350 -362 -469 l-53 -47 -72 12 c-138 21 -123 8 -124 113 -1 95
-3 101 -79 301 -20 55 -24 79 -19 115 11 76 56 181 122 280 l63 94 -22 23
c-28 30 -143 85 -187 90 -32 3 -45 -3 -92 -42z"/>
</g>
</svg>
