<?xml version="1.0" standalone="no"?>
<!DOCTYPE svg PUBLIC "-//W3C//DTD SVG 20010904//EN"
 "http://www.w3.org/TR/2001/REC-SVG-20010904/DTD/svg10.dtd">
<svg version="1.0" xmlns="http://www.w3.org/2000/svg"
 width="340.000000pt" height="340.000000pt" viewBox="0 0 340.000000 340.000000"
 preserveAspectRatio="xMidYMid meet">
<metadata>
Created by potrace 1.15, written by Peter Selinger 2001-2017
</metadata>
<g transform="translate(0.000000,340.000000) scale(0.100000,-0.100000)"
fill="#000000" stroke="none">
<path d="M2178 2674 c-77 -52 -242 -90 -523 -119 -153 -16 -195 -25 -195 -45
0 -28 129 -100 180 -100 9 0 125 36 257 80 133 45 264 83 292 87 46 5 51 4 51
-14 0 -23 -74 -141 -161 -255 l-59 -77 -51 26 c-38 20 -70 27 -130 31 -58 3
-79 1 -79 -8 0 -29 214 -210 248 -210 5 0 17 9 27 20 13 15 16 30 13 65 -5 43
-4 46 36 78 93 76 217 155 330 212 66 33 121 66 124 73 10 32 -143 131 -273
175 -39 13 -42 12 -87 -19z"/>
<path d="M740 2396 c0 -25 228 -250 278 -275 l43 -22 29 30 c36 36 40 83 11
139 -47 91 -128 133 -268 140 -82 4 -93 2 -93 -12z"/>
<path d="M2215 2100 c-128 -43 -262 -76 -484 -120 l-194 -38 -49 19 c-27 10
-60 19 -75 19 -28 0 -28 2 6 -92 34 -94 44 -189 38 -373 -4 -118 -12 -199 -27
-265 -12 -52 -24 -114 -27 -138 -11 -81 51 -187 95 -163 11 6 25 26 31 43 17
55 31 325 31 614 l0 274 23 5 c52 13 243 45 264 45 23 0 23 -1 23 -124 l0
-124 -57 -21 c-32 -11 -79 -26 -105 -32 -61 -14 -81 -35 -43 -45 25 -6 151 -1
185 7 13 3 15 -13 15 -100 l0 -104 -97 -27 c-54 -15 -105 -33 -113 -40 -29
-24 9 -33 110 -25 l92 7 6 -69 c4 -37 7 -108 7 -157 0 -94 15 -166 35 -166 28
0 55 127 64 299 l6 115 100 17 c114 21 188 46 182 63 -2 6 -23 17 -48 25 -36
12 -58 12 -119 3 -41 -6 -85 -14 -97 -18 -23 -6 -23 -5 -23 98 l0 105 104 28
c113 29 175 60 159 76 -23 23 -87 28 -163 13 -41 -8 -81 -14 -87 -14 -10 0
-13 30 -13 119 l0 119 63 11 c158 28 238 34 252 20 14 -15 57 -242 75 -399 13
-107 14 -437 2 -490 -10 -43 -34 -48 -123 -26 -92 24 -98 22 -58 -21 53 -56
85 -102 132 -190 23 -43 49 -79 58 -81 29 -5 83 43 111 98 73 145 82 318 34
655 -42 289 -39 330 25 433 13 22 12 26 -31 64 -52 47 -121 84 -171 92 -23 4
-62 -4 -124 -24z"/>
<path d="M871 1786 c-34 -37 -144 -91 -246 -121 -89 -27 -126 -47 -111 -62 4
-5 58 -8 119 -7 100 0 121 4 195 32 63 23 82 27 78 16 -36 -95 -50 -167 -51
-264 0 -94 3 -112 28 -167 34 -76 53 -221 31 -239 -15 -12 -155 -45 -334 -78
-111 -20 -125 -25 -122 -42 5 -26 39 -61 88 -90 39 -23 43 -23 85 -10 24 8 82
31 129 52 122 54 199 57 349 15 136 -39 334 -110 636 -229 127 -49 282 -107
345 -128 104 -35 125 -38 220 -38 121 0 185 16 455 115 217 81 279 117 223
133 -38 10 -118 7 -239 -9 -149 -21 -427 -21 -598 -1 -258 31 -519 93 -866
206 -115 37 -219 70 -230 72 -18 3 -21 13 -26 118 -6 119 -31 216 -68 270 -16
22 -17 30 -6 61 22 62 56 122 105 184 82 104 84 122 17 164 -32 20 -159 71
-175 71 -5 0 -19 -11 -31 -24z"/>
</g>
</svg>
