<?xml version="1.0" standalone="no"?>
<!DOCTYPE svg PUBLIC "-//W3C//DTD SVG 20010904//EN"
 "http://www.w3.org/TR/2001/REC-SVG-20010904/DTD/svg10.dtd">
<svg version="1.0" xmlns="http://www.w3.org/2000/svg"
 width="340.000000pt" height="340.000000pt" viewBox="0 0 340.000000 340.000000"
 preserveAspectRatio="xMidYMid meet">
<metadata>
Created by potrace 1.15, written by Peter Selinger 2001-2017
</metadata>
<g transform="translate(0.000000,340.000000) scale(0.100000,-0.100000)"
fill="#000000" stroke="none">
<path d="M1730 2831 c0 -12 12 -50 26 -84 44 -105 55 -148 61 -253 7 -120 31
-103 -205 -134 -92 -12 -178 -27 -192 -32 l-25 -10 32 -28 c56 -50 91 -53 222
-21 64 16 129 32 144 35 l28 7 -3 -113 -3 -113 -60 -6 c-33 -4 -143 -19 -245
-33 -102 -15 -204 -29 -228 -32 -59 -7 -50 -24 29 -52 77 -27 130 -25 304 11
66 14 139 28 163 32 l42 7 0 -110 c0 -129 20 -114 -180 -137 -191 -23 -225
-29 -222 -40 9 -34 135 -43 297 -21 55 7 102 11 105 9 8 -8 2 -501 -8 -611 -5
-57 -14 -108 -20 -114 -7 -7 -37 -6 -104 5 -51 9 -95 14 -97 11 -3 -2 14 -24
37 -47 23 -24 73 -83 110 -132 37 -48 73 -90 80 -93 21 -7 89 70 104 118 10
35 12 136 10 468 -1 232 1 422 6 422 19 0 359 52 387 59 44 11 42 33 -5 60
-33 18 -41 28 -37 45 3 11 13 55 22 97 l16 76 52 7 c29 3 113 6 188 6 143 0
179 10 166 44 -8 20 -142 86 -175 86 -36 0 -165 -31 -181 -44 -26 -21 -3 45
37 103 71 103 70 99 24 142 -54 51 -170 88 -216 69 -75 -31 -137 -49 -210 -63
l-79 -15 7 61 c3 34 15 99 26 145 26 110 26 124 -11 160 -44 43 -94 65 -161
70 -54 4 -58 3 -58 -17z m496 -482 c11 -21 16 -57 16 -106 -1 -41 -2 -76 -4
-78 -3 -3 -288 -55 -301 -55 -4 0 -7 47 -7 105 0 102 1 105 23 106 12 0 63 13
112 29 120 38 140 38 161 -1z m-11 -337 c-13 -125 -16 -133 -47 -152 -16 -10
-66 -23 -111 -29 -45 -7 -92 -13 -105 -15 -23 -3 -23 -3 -20 103 l3 106 135
26 c74 14 139 24 143 22 5 -3 5 -30 2 -61z"/>
<path d="M765 2411 c-16 -3 -30 -9 -30 -13 0 -4 19 -32 42 -61 51 -65 129
-127 219 -172 l69 -35 30 30 c22 23 30 39 30 68 0 48 -46 127 -86 148 -66 34
-200 51 -274 35z"/>
<path d="M793 1831 c-75 -49 -129 -70 -231 -90 -46 -9 -83 -21 -84 -26 0 -6
31 -21 68 -34 87 -30 168 -31 248 -2 33 11 63 21 67 21 4 0 -4 -37 -18 -82
-34 -112 -52 -221 -43 -262 4 -18 27 -77 52 -132 48 -104 72 -175 83 -236 5
-36 5 -37 -27 -43 -72 -12 -239 -34 -338 -45 -110 -12 -140 -22 -140 -45 0
-29 147 -115 182 -107 10 2 47 18 81 37 74 38 184 60 267 52 65 -6 313 -86
635 -207 430 -160 662 -231 759 -232 101 -1 314 73 546 189 184 93 185 109 10
87 -531 -64 -916 -39 -1361 87 -129 36 -551 168 -557 173 -1 2 2 27 8 56 14
73 -2 163 -52 285 -31 78 -39 109 -35 139 9 65 72 178 141 253 l65 70 -27 26
c-36 34 -113 72 -184 90 l-57 15 -58 -37z"/>
<path d="M2276 1685 c-20 -46 -103 -133 -191 -200 -39 -29 -77 -61 -85 -71
-14 -16 -12 -17 25 -12 46 6 448 183 466 204 10 12 7 20 -12 41 -31 33 -115
73 -156 73 -28 0 -35 -5 -47 -35z"/>
<path d="M1350 1569 c0 -20 122 -134 170 -159 39 -20 44 -20 58 -6 21 21 20
77 -1 109 -19 29 -86 53 -174 64 -41 4 -53 3 -53 -8z"/>
<path d="M1669 1347 c-30 -19 -88 -55 -131 -80 -84 -52 -199 -103 -256 -113
-20 -4 -47 -12 -60 -18 l-23 -12 41 -38 c44 -39 96 -66 128 -66 10 0 29 12 43
26 13 15 93 89 177 166 134 123 172 168 144 168 -5 0 -33 -15 -63 -33z"/>
<path d="M2085 1273 c139 -126 382 -283 441 -283 35 0 64 28 64 64 0 42 -58
118 -114 151 -83 47 -316 115 -396 114 l-45 0 50 -46z"/>
</g>
</svg>
