<?xml version="1.0" standalone="no"?>
<!DOCTYPE svg PUBLIC "-//W3C//DTD SVG 20010904//EN"
 "http://www.w3.org/TR/2001/REC-SVG-20010904/DTD/svg10.dtd">
<svg version="1.0" xmlns="http://www.w3.org/2000/svg"
 width="340.000000pt" height="340.000000pt" viewBox="0 0 340.000000 340.000000"
 preserveAspectRatio="xMidYMid meet">
<metadata>
Created by potrace 1.15, written by Peter Selinger 2001-2017
</metadata>
<g transform="translate(0.000000,340.000000) scale(0.100000,-0.100000)"
fill="#000000" stroke="none">
<path d="M1830 2768 c0 -6 13 -32 29 -57 48 -75 65 -143 66 -261 l0 -105 -143
-36 c-79 -20 -148 -41 -154 -47 -18 -18 58 -45 132 -46 36 0 89 3 118 7 l52 8
0 -115 0 -115 -37 -10 c-122 -32 -257 -63 -393 -91 -85 -18 -161 -37 -167 -42
-23 -19 -14 -37 25 -47 63 -18 124 -12 263 23 230 59 456 104 679 136 240 34
282 43 305 66 22 23 15 36 -31 59 -64 32 -159 25 -361 -27 l-173 -45 0 116 0
116 107 28 c120 31 228 78 237 103 4 10 -1 25 -10 35 -26 29 -102 24 -219 -15
-95 -32 -100 -33 -103 -14 -5 25 25 172 44 216 28 69 15 91 -91 143 -45 22
-74 29 -117 29 -38 0 -58 -4 -58 -12z"/>
<path d="M802 2512 c-19 -13 55 -119 133 -189 65 -60 162 -124 191 -127 27 -2
56 62 51 116 -6 72 -45 124 -120 158 -83 39 -223 62 -255 42z"/>
<path d="M832 1855 c-53 -42 -123 -69 -233 -90 -123 -23 -128 -39 -25 -70 61
-18 170 -19 254 -1 44 9 62 9 62 2 0 -6 -11 -56 -25 -110 -33 -128 -34 -251
-4 -316 39 -84 70 -185 85 -279 8 -51 13 -96 10 -98 -3 -3 -51 -5 -107 -4
-103 2 -377 -25 -392 -39 -16 -14 11 -45 71 -81 l59 -37 89 30 c53 17 121 31
169 35 96 7 158 -9 596 -146 307 -96 612 -186 749 -221 107 -28 192 -23 341
19 174 49 499 181 499 203 0 19 -35 19 -187 1 -196 -22 -718 -25 -883 -5 -276
34 -461 74 -740 159 l-185 56 4 112 c4 132 -8 198 -53 292 -43 89 -48 115 -37
185 14 80 56 161 118 224 65 66 68 90 16 133 -32 27 -169 82 -198 80 -6 0 -29
-15 -53 -34z"/>
<path d="M2118 1803 c30 -55 201 -192 308 -246 l51 -26 22 23 c12 12 21 35 21
52 0 31 -42 106 -76 136 -31 27 -174 69 -258 75 -76 6 -78 5 -68 -14z"/>
<path d="M1676 1758 c-9 -12 -16 -28 -16 -34 0 -46 -190 -263 -315 -361 -22
-17 -37 -34 -34 -37 9 -9 139 47 200 86 59 38 144 106 257 207 l72 65 -27 29
c-28 29 -60 49 -100 61 -16 5 -25 1 -37 -16z"/>
<path d="M1880 1590 c-11 -7 -8 -21 13 -68 19 -41 27 -76 27 -115 l0 -55 -87
-20 c-49 -11 -105 -23 -126 -27 -62 -10 -60 -58 3 -67 29 -4 142 6 188 17 22
5 22 5 22 -124 l0 -129 -97 -7 c-157 -11 -422 -41 -430 -48 -13 -14 35 -50 86
-63 46 -12 67 -10 199 11 225 37 424 55 619 56 191 1 220 5 237 32 14 22 1 44
-43 74 -63 43 -112 42 -344 -6 -55 -12 -105 -21 -113 -21 -11 0 -14 23 -14
113 0 61 4 118 9 125 4 7 48 21 98 31 152 32 223 74 178 107 -27 20 -99 17
-183 -6 -39 -11 -74 -20 -77 -20 -9 0 -5 63 6 103 12 43 -2 67 -51 92 -33 16
-104 25 -120 15z"/>
</g>
</svg>
