<?xml version="1.0" standalone="no"?>
<!DOCTYPE svg PUBLIC "-//W3C//DTD SVG 20010904//EN"
 "http://www.w3.org/TR/2001/REC-SVG-20010904/DTD/svg10.dtd">
<svg version="1.0" xmlns="http://www.w3.org/2000/svg"
 width="340.000000pt" height="340.000000pt" viewBox="0 0 340.000000 340.000000"
 preserveAspectRatio="xMidYMid meet">
<metadata>
Created by potrace 1.15, written by Peter Selinger 2001-2017
</metadata>
<g transform="translate(0.000000,340.000000) scale(0.100000,-0.100000)"
fill="#000000" stroke="none">
<path d="M1907 2863 c-3 -5 -8 -29 -11 -55 -9 -60 -109 -259 -201 -401 l-70
-107 -102 0 c-114 0 -159 -11 -149 -37 4 -9 26 -46 50 -82 52 -80 96 -186 126
-306 44 -175 92 -226 133 -141 18 39 3 35 278 72 l205 27 31 -22 c52 -39 96
-6 141 108 34 82 138 251 198 320 30 34 54 68 54 76 0 33 -192 155 -247 157
-10 0 -137 -29 -283 -65 -146 -36 -282 -69 -304 -73 -36 -6 -37 -5 -27 13 27
51 244 255 335 314 106 69 106 70 43 137 -41 43 -186 90 -200 65z m367 -519
c11 -29 6 -158 -9 -224 -12 -51 -63 -208 -69 -210 -20 -9 -503 -77 -507 -72
-7 9 -39 127 -39 146 0 10 17 16 58 21 127 14 292 45 345 65 65 25 108 68 82
83 -22 12 -68 3 -293 -54 -106 -27 -197 -49 -201 -49 -11 0 -76 189 -68 197 4
4 403 70 635 106 52 8 60 7 66 -9z"/>
<path d="M752 2402 c-19 -13 64 -121 131 -171 76 -58 204 -116 222 -101 22 18
37 77 30 113 -19 86 -62 124 -180 156 -47 13 -184 14 -203 3z"/>
<path d="M859 1795 c-69 -49 -123 -79 -188 -102 -86 -32 -131 -53 -131 -63 0
-15 95 -20 215 -11 66 4 121 7 123 6 1 -1 -5 -35 -13 -76 -9 -41 -19 -113 -22
-160 -6 -82 -4 -88 30 -165 48 -108 57 -145 57 -244 l0 -85 -148 0 c-142 -1
-237 -16 -294 -46 -29 -15 -7 -42 65 -79 l63 -33 109 31 c162 46 193 48 305
18 52 -13 201 -61 330 -106 386 -134 759 -256 854 -280 80 -20 96 -21 168 -10
116 17 308 72 455 130 143 57 173 74 173 95 0 25 -48 28 -219 14 -200 -16
-576 -16 -721 0 -235 27 -378 60 -705 161 -71 22 -179 51 -239 64 -59 14 -110
26 -112 28 -2 2 4 28 13 57 21 73 14 196 -17 276 -31 79 -37 186 -15 260 17
59 60 115 120 156 19 13 35 30 35 38 0 30 -79 89 -159 120 -44 17 -84 31 -89
31 -5 0 -24 -11 -43 -25z"/>
<path d="M2035 1659 c-66 -17 -191 -46 -277 -64 -254 -53 -275 -88 -49 -83
l135 3 12 -30 c6 -16 15 -55 19 -86 7 -57 7 -57 -21 -63 -65 -13 -161 -26
-195 -26 -43 0 -99 -37 -77 -51 7 -5 75 -9 151 -9 l138 0 -3 -97 -3 -98 -241
-36 c-267 -41 -284 -45 -284 -63 0 -19 91 -56 142 -57 23 -1 95 10 160 25 263
59 361 70 670 70 219 1 290 4 300 14 20 20 -1 43 -73 81 l-64 33 -130 -5 c-71
-3 -181 -15 -243 -27 -62 -13 -114 -21 -116 -19 -9 10 8 201 18 204 6 1 40 8
76 15 80 14 181 47 198 64 20 19 4 45 -31 51 -18 3 -78 -5 -134 -18 -57 -13
-104 -22 -106 -20 -3 2 -1 23 4 46 13 68 11 78 -27 113 l-35 34 58 0 c102 1
276 28 302 48 32 23 35 33 17 57 -25 34 -146 31 -291 -6z"/>
</g>
</svg>
