<?xml version="1.0" standalone="no"?>
<!DOCTYPE svg PUBLIC "-//W3C//DTD SVG 20010904//EN"
 "http://www.w3.org/TR/2001/REC-SVG-20010904/DTD/svg10.dtd">
<svg version="1.0" xmlns="http://www.w3.org/2000/svg"
 width="340.000000pt" height="340.000000pt" viewBox="0 0 340.000000 340.000000"
 preserveAspectRatio="xMidYMid meet">
<metadata>
Created by potrace 1.15, written by Peter Selinger 2001-2017
</metadata>
<g transform="translate(0.000000,340.000000) scale(0.100000,-0.100000)"
fill="#000000" stroke="none">
<path d="M2206 2808 c-8 -67 -44 -170 -78 -226 l-22 -35 35 -29 c55 -47 208
-147 235 -154 30 -8 63 28 64 68 0 47 -66 82 -207 109 l-63 12 20 27 c11 15
58 69 105 119 84 89 85 92 70 115 -21 31 -73 56 -118 56 l-34 0 -7 -62z"/>
<path d="M1807 2773 c-4 -3 -7 -21 -7 -38 0 -49 -26 -124 -65 -189 -20 -33
-34 -62 -33 -66 8 -18 186 -162 207 -167 18 -4 29 0 43 17 24 30 23 56 -5 84
-23 23 -123 66 -152 66 -8 0 -15 4 -15 9 0 12 132 135 169 157 36 21 36 24 15
65 -23 45 -132 88 -157 62z"/>
<path d="M1415 2710 c10 -33 -31 -148 -79 -225 -35 -54 -42 -73 -33 -82 54
-53 216 -173 232 -173 24 0 65 34 65 53 0 24 -16 35 -120 87 -58 29 -107 54
-109 56 -8 8 72 84 142 136 37 28 67 54 67 57 0 4 -12 24 -26 45 -27 39 -75
66 -119 66 -22 0 -25 -3 -20 -20z"/>
<path d="M767 2502 c-15 -7 -12 -16 29 -82 25 -41 62 -95 81 -118 39 -47 120
-111 141 -112 19 0 42 62 42 115 0 56 -33 129 -71 155 -59 43 -168 63 -222 42z"/>
<path d="M2160 2294 c-36 -8 -199 -40 -363 -70 -218 -39 -322 -54 -388 -54
-108 0 -115 -8 -64 -76 47 -61 88 -144 137 -273 22 -58 44 -113 49 -123 13
-25 38 -23 68 6 23 21 54 27 295 60 243 33 270 35 286 21 45 -40 72 -15 165
155 31 58 77 133 101 168 24 35 44 69 44 77 0 22 -70 73 -130 96 -72 28 -120
31 -200 13z m98 -124 c4 -82 -11 -156 -53 -246 l-32 -71 -134 -21 c-342 -53
-440 -65 -448 -56 -9 9 -113 336 -108 339 5 5 481 97 562 109 50 8 117 13 150
13 l60 -2 3 -65z"/>
<path d="M1941 2153 c-6 -21 -20 -53 -31 -72 -17 -26 -25 -32 -43 -27 -12 4
-69 9 -127 12 -116 6 -119 -1 -15 -36 33 -11 71 -27 84 -34 24 -13 23 -13 -37
-62 -33 -27 -78 -62 -101 -77 -38 -26 -52 -47 -33 -47 12 0 205 119 229 142
l23 21 88 -21 c48 -12 107 -22 130 -22 35 0 42 3 42 20 0 36 -44 65 -150 97
-10 3 0 17 34 47 27 23 46 47 43 53 -7 11 -91 43 -113 43 -7 0 -18 -17 -23
-37z"/>
<path d="M855 1825 c-65 -44 -139 -71 -253 -94 -100 -20 -112 -25 -95 -42 33
-33 197 -47 323 -29 35 5 65 8 67 7 1 -2 -9 -39 -24 -82 -30 -96 -42 -240 -24
-312 7 -26 28 -84 47 -127 29 -66 64 -190 64 -227 0 -5 -15 -9 -32 -9 -18 0
-85 -11 -148 -24 -63 -13 -149 -29 -190 -36 -166 -26 -186 -44 -108 -95 65
-43 99 -43 234 4 163 56 254 68 353 46 104 -24 337 -105 716 -250 432 -165
505 -189 559 -181 103 16 579 178 664 227 97 55 74 58 -263 29 -375 -31 -833
20 -1215 137 -149 46 -335 97 -430 118 l-76 16 4 97 c3 102 -5 140 -62 299
-23 63 -25 78 -16 119 14 60 59 151 114 228 63 89 65 100 22 141 -35 33 -130
76 -164 74 -9 0 -39 -16 -67 -34z"/>
<path d="M2120 1724 c0 -4 9 -41 20 -83 10 -42 40 -161 65 -265 28 -113 59
-214 77 -250 70 -140 196 -278 295 -323 51 -24 168 -51 177 -42 3 3 -2 43 -10
89 -9 47 -17 149 -18 228 -3 138 -9 175 -22 136 -55 -159 -102 -244 -135 -244
-28 0 -100 51 -144 102 -45 53 -118 201 -141 288 -11 39 -18 104 -19 163 l0
98 -57 55 c-49 47 -88 68 -88 48z"/>
<path d="M1730 1693 c0 -5 10 -37 22 -73 19 -58 22 -86 22 -245 -1 -186 -7
-224 -58 -363 -10 -25 -13 -54 -10 -70 11 -43 43 -102 57 -102 6 0 37 30 67
66 30 36 103 107 162 157 154 129 145 141 -35 47 -62 -33 -117 -60 -122 -60
-8 0 -3 149 17 424 l12 168 -32 29 c-23 20 -43 29 -67 29 -19 0 -35 -3 -35 -7z"/>
<path d="M1340 1601 c0 -5 12 -33 28 -63 25 -50 27 -61 27 -183 -1 -183 -35
-276 -122 -328 -32 -18 -34 -23 -28 -56 9 -47 21 -68 49 -86 23 -15 28 -12
137 66 63 44 133 92 157 106 23 14 42 29 42 34 0 11 11 14 -105 -26 -90 -31
-100 -33 -103 -17 -1 9 9 87 23 172 30 184 40 288 31 324 -4 15 -21 35 -39 46
-33 20 -97 27 -97 11z"/>
<path d="M1948 1593 c-26 -7 -22 -17 18 -53 62 -54 114 -66 114 -26 0 51 -73
95 -132 79z"/>
<path d="M1540 1533 c1 -24 98 -103 126 -103 19 0 27 36 14 60 -6 12 -27 28
-45 36 -36 15 -95 19 -95 7z"/>
<path d="M1926 1367 c12 -33 125 -103 150 -93 8 3 14 19 14 35 0 41 -37 64
-111 69 -51 4 -58 2 -53 -11z"/>
<path d="M1537 1319 c-18 -10 -17 -13 10 -41 15 -16 45 -38 65 -49 l38 -19 6
25 c8 32 1 50 -28 69 -33 21 -70 27 -91 15z"/>
</g>
</svg>
