<?xml version="1.0" standalone="no"?>
<!DOCTYPE svg PUBLIC "-//W3C//DTD SVG 20010904//EN"
 "http://www.w3.org/TR/2001/REC-SVG-20010904/DTD/svg10.dtd">
<svg version="1.0" xmlns="http://www.w3.org/2000/svg"
 width="340.000000pt" height="340.000000pt" viewBox="0 0 340.000000 340.000000"
 preserveAspectRatio="xMidYMid meet">
<metadata>
Created by potrace 1.15, written by Peter Selinger 2001-2017
</metadata>
<g transform="translate(0.000000,340.000000) scale(0.100000,-0.100000)"
fill="#000000" stroke="none">
<path d="M2400 2734 c-89 -46 -240 -90 -345 -100 -34 -4 -93 -1 -132 6 -110
18 -136 -6 -94 -88 11 -21 27 -71 37 -112 16 -68 18 -169 23 -1067 3 -545 9
-994 12 -997 10 -10 49 89 74 188 55 219 58 275 63 1164 3 821 3 822 24 822
11 0 77 13 147 30 151 35 221 44 240 31 17 -11 9 -33 -126 -330 l-83 -185 30
-35 c224 -265 309 -404 310 -508 l0 -43 -60 0 c-32 0 -106 9 -162 20 -173 33
-176 27 -37 -69 117 -81 137 -96 222 -177 38 -35 73 -64 79 -64 18 0 71 64 94
115 29 64 48 173 40 229 -9 58 -66 174 -120 244 -55 72 -171 182 -258 246
l-68 50 17 25 c110 172 300 377 395 426 32 17 58 37 58 45 0 29 -41 81 -87
111 -48 30 -161 70 -192 68 -9 -1 -54 -21 -101 -45z"/>
<path d="M1348 2636 c-106 -69 -282 -117 -554 -150 -129 -16 -167 -34 -129
-62 10 -8 48 -23 85 -35 l65 -21 170 37 c334 71 366 77 372 71 19 -18 -78
-382 -142 -529 l-16 -39 -133 130 c-166 162 -286 253 -286 216 0 -14 115 -176
230 -324 66 -85 120 -159 120 -163 0 -14 -80 -128 -155 -222 -88 -110 -228
-251 -355 -358 -52 -44 -99 -86 -103 -93 -13 -23 34 -17 99 12 163 71 388 262
534 452 35 45 66 82 69 82 3 0 33 -46 65 -103 148 -253 204 -337 226 -337 18
0 51 45 61 83 8 31 7 56 -5 110 -18 77 -72 161 -198 308 -38 43 -68 81 -68 84
0 3 22 52 49 108 27 56 72 165 100 242 89 240 130 324 181 370 45 41 14 90
-84 136 -102 47 -121 46 -198 -5z"/>
</g>
</svg>
