<?xml version="1.0" standalone="no"?>
<!DOCTYPE svg PUBLIC "-//W3C//DTD SVG 20010904//EN"
 "http://www.w3.org/TR/2001/REC-SVG-20010904/DTD/svg10.dtd">
<svg version="1.0" xmlns="http://www.w3.org/2000/svg"
 width="340.000000pt" height="340.000000pt" viewBox="0 0 340.000000 340.000000"
 preserveAspectRatio="xMidYMid meet">
<metadata>
Created by potrace 1.15, written by Peter Selinger 2001-2017
</metadata>
<g transform="translate(0.000000,340.000000) scale(0.100000,-0.100000)"
fill="#000000" stroke="none">
<path d="M1223 2860 c-13 -5 -23 -15 -23 -22 0 -26 233 -239 297 -272 45 -23
68 -20 92 10 39 50 17 156 -43 213 -43 41 -274 91 -323 71z"/>
<path d="M2380 2544 c-69 -36 -163 -77 -209 -91 -79 -25 -89 -26 -153 -15 -38
7 -91 12 -119 12 -58 0 -58 4 -20 -102 36 -99 44 -277 47 -1078 3 -877 8 -941
70 -865 30 37 50 101 66 214 15 104 17 653 4 1292 l-9 446 73 7 c39 4 124 21
188 37 65 16 123 29 131 29 25 0 3 -59 -94 -260 -52 -108 -95 -200 -95 -206 0
-6 14 -23 31 -40 68 -64 216 -270 270 -376 32 -63 40 -98 28 -121 -10 -18 -18
-19 -93 -13 -271 21 -256 21 -256 -2 0 -18 19 -31 98 -67 53 -25 154 -79 223
-120 124 -74 153 -84 189 -65 55 29 75 255 31 360 -30 73 -99 168 -163 224
-29 26 -111 88 -181 138 -70 50 -126 94 -125 99 9 23 207 236 323 345 74 69
136 133 140 142 8 22 -20 59 -63 81 -43 22 -167 61 -191 61 -9 -1 -72 -30
-141 -66z"/>
<path d="M1435 2350 c-88 -23 -210 -50 -271 -60 -109 -19 -111 -19 -173 0 -70
22 -97 25 -106 10 -3 -6 3 -47 13 -93 52 -221 54 -626 2 -842 -51 -217 -153
-419 -305 -606 -94 -115 -86 -140 21 -71 151 98 318 329 383 529 41 130 69
379 77 708 3 121 7 230 10 242 3 19 13 22 81 28 261 23 568 74 611 101 12 8
22 25 22 38 0 32 -38 47 -130 52 -63 4 -100 -2 -235 -36z"/>
</g>
</svg>
