<?xml version="1.0" standalone="no"?>
<!DOCTYPE svg PUBLIC "-//W3C//DTD SVG 20010904//EN"
 "http://www.w3.org/TR/2001/REC-SVG-20010904/DTD/svg10.dtd">
<svg version="1.0" xmlns="http://www.w3.org/2000/svg"
 width="340.000000pt" height="340.000000pt" viewBox="0 0 340.000000 340.000000"
 preserveAspectRatio="xMidYMid meet">
<metadata>
Created by potrace 1.15, written by Peter Selinger 2001-2017
</metadata>
<g transform="translate(0.000000,340.000000) scale(0.100000,-0.100000)"
fill="#000000" stroke="none">
<path d="M1517 2710 c-400 -106 -506 -132 -612 -150 -66 -11 -124 -25 -129
-30 -23 -23 42 -58 164 -87 31 -8 36 -14 56 -74 32 -96 68 -328 53 -343 -10
-11 -359 -56 -477 -63 l-124 -6 6 -31 c4 -16 16 -41 29 -54 25 -28 112 -72
142 -72 11 0 105 23 210 51 104 28 194 52 199 53 12 1 8 -90 -10 -191 -43
-250 -155 -466 -345 -666 -50 -54 -89 -100 -86 -103 11 -12 80 19 152 67 119
80 236 226 296 369 38 90 93 306 115 450 9 63 18 117 20 119 2 2 67 16 145 31
l142 27 -6 -181 c-8 -230 -22 -382 -49 -524 -12 -65 -18 -134 -16 -163 7 -69
70 -195 108 -214 28 -14 30 -14 45 9 31 48 38 189 26 549 -6 188 -11 387 -11
442 l0 101 163 18 c89 10 168 23 175 28 33 27 -5 81 -68 98 -26 6 -65 3 -152
-14 l-118 -23 0 86 c0 47 5 117 10 155 12 80 10 85 -67 128 -29 16 -53 33 -53
38 0 7 155 40 260 55 58 9 90 29 90 59 0 40 -38 63 -128 75 -42 6 -73 2 -155
-19z m-117 -257 c25 -66 50 -211 50 -294 l0 -56 -129 -26 c-71 -15 -133 -27
-138 -27 -5 0 -7 71 -5 169 l4 168 -33 26 c-19 14 -48 31 -64 38 -19 8 -24 13
-15 16 18 4 268 40 292 42 11 1 23 -17 38 -56z"/>
<path d="M2415 2650 c-61 -33 -144 -68 -188 -80 l-79 -22 -79 22 c-98 26 -163
24 -167 -5 -2 -12 8 -46 22 -77 70 -158 80 -326 73 -1233 -6 -773 -3 -843 36
-882 25 -26 42 -9 65 64 52 164 56 232 54 868 -1 325 -5 723 -8 886 l-6 296
53 7 c30 4 107 20 171 37 142 35 148 36 148 5 0 -28 -68 -229 -139 -411 -28
-71 -51 -135 -51 -140 0 -6 42 -48 94 -93 104 -91 149 -152 190 -254 60 -152
21 -199 -140 -169 -27 5 -86 13 -131 16 -97 9 -107 -2 -40 -41 282 -168 398
-234 415 -234 36 0 52 12 71 49 59 115 52 304 -14 416 -51 89 -192 207 -381
321 -17 10 -13 19 45 105 85 126 192 258 285 353 95 98 98 123 22 175 -50 34
-161 81 -190 80 -12 0 -70 -27 -131 -59z"/>
</g>
</svg>
