<?xml version="1.0" standalone="no"?>
<!DOCTYPE svg PUBLIC "-//W3C//DTD SVG 20010904//EN"
 "http://www.w3.org/TR/2001/REC-SVG-20010904/DTD/svg10.dtd">
<svg version="1.0" xmlns="http://www.w3.org/2000/svg"
 width="340.000000pt" height="340.000000pt" viewBox="0 0 340.000000 340.000000"
 preserveAspectRatio="xMidYMid meet">
<metadata>
Created by potrace 1.15, written by Peter Selinger 2001-2017
</metadata>
<g transform="translate(0.000000,340.000000) scale(0.100000,-0.100000)"
fill="#000000" stroke="none">
<path d="M2485 2740 c-48 -35 -162 -82 -268 -110 -62 -17 -84 -19 -110 -11
-66 22 -138 31 -158 21 -25 -14 -24 -26 5 -81 48 -90 49 -94 55 -1154 6 -1014
7 -1045 41 -1045 28 0 70 112 97 256 17 93 18 159 14 1005 l-3 906 112 33
c135 39 237 51 245 27 8 -19 -32 -120 -103 -262 -48 -97 -122 -260 -122 -271
0 -2 26 -22 58 -45 84 -62 218 -195 264 -263 52 -75 78 -151 78 -225 0 -44 -4
-60 -16 -65 -28 -11 -141 -6 -221 9 -139 27 -144 20 -40 -61 39 -32 110 -94
157 -139 159 -153 177 -157 238 -65 61 91 77 147 76 265 -1 121 -21 179 -94
277 -90 119 -223 224 -366 289 -35 16 -64 33 -64 38 0 15 94 153 159 233 64
80 209 221 273 267 43 30 46 43 19 87 -42 69 -136 114 -235 114 -40 -1 -60 -7
-91 -30z"/>
<path d="M1556 2751 c-10 -16 -168 -68 -286 -94 -63 -14 -182 -35 -265 -47
-82 -12 -158 -23 -167 -26 -32 -10 -19 -35 29 -56 39 -17 60 -20 127 -15 45 3
87 6 95 8 30 8 44 -51 49 -191 l4 -135 -148 -38 c-160 -41 -214 -60 -214 -76
0 -31 190 -46 290 -23 24 6 47 9 49 6 6 -5 -13 -149 -29 -221 l-11 -52 -52
-11 c-29 -7 -128 -24 -222 -39 -157 -25 -170 -29 -173 -49 -2 -15 6 -27 30
-42 71 -43 96 -45 239 -17 73 15 135 25 137 22 9 -8 -75 -203 -128 -298 -61
-110 -149 -235 -245 -347 -38 -45 -76 -93 -83 -106 -12 -22 -11 -24 11 -24 36
0 152 87 240 179 131 138 232 311 307 528 41 122 27 112 190 136 52 8 112 21
133 30 31 13 37 21 37 45 0 23 -6 32 -27 40 -58 22 -89 22 -175 -1 l-88 -24 0
32 c0 54 39 248 52 256 7 4 59 19 117 33 111 28 127 36 118 60 -17 43 -137 71
-197 46 -17 -7 -33 -11 -35 -8 -6 5 30 146 46 180 16 36 6 48 -79 95 -44 25
-60 38 -51 43 23 12 156 38 267 50 116 14 133 7 150 -54 11 -39 -3 -630 -18
-786 -30 -310 -81 -460 -157 -460 -16 0 -62 20 -103 45 -41 24 -78 45 -82 45
-19 0 -3 -39 51 -125 32 -52 73 -130 91 -175 18 -45 39 -84 47 -87 47 -18 149
72 200 177 80 164 102 318 113 785 10 409 22 507 76 603 27 48 27 51 11 75
-26 40 -76 73 -144 96 -66 22 -118 27 -127 12z"/>
</g>
</svg>
