<?xml version="1.0" standalone="no"?>
<!DOCTYPE svg PUBLIC "-//W3C//DTD SVG 20010904//EN"
 "http://www.w3.org/TR/2001/REC-SVG-20010904/DTD/svg10.dtd">
<svg version="1.0" xmlns="http://www.w3.org/2000/svg"
 width="340.000000pt" height="340.000000pt" viewBox="0 0 340.000000 340.000000"
 preserveAspectRatio="xMidYMid meet">
<metadata>
Created by potrace 1.15, written by Peter Selinger 2001-2017
</metadata>
<g transform="translate(0.000000,340.000000) scale(0.100000,-0.100000)"
fill="#000000" stroke="none">
<path d="M1063 2903 c-20 -7 -16 -30 13 -72 50 -76 56 -117 61 -387 l5 -250
-103 -22 c-177 -37 -231 -43 -321 -33 -89 9 -144 5 -154 -11 -4 -5 5 -31 19
-56 68 -126 129 -358 172 -657 28 -187 57 -287 87 -293 13 -2 19 9 28 52 l11
55 52 10 c60 13 319 53 454 71 50 7 99 10 107 7 8 -3 29 -36 45 -72 18 -39 36
-65 45 -65 31 0 95 165 121 316 8 49 20 157 26 239 15 238 37 339 85 410 31
46 23 73 -28 105 -39 24 -148 59 -186 61 -15 0 -79 -17 -142 -39 -63 -22 -133
-43 -154 -47 l-39 -6 7 143 c8 171 19 251 47 340 12 39 19 78 15 92 -14 54
-213 134 -273 109z m504 -728 c46 -32 63 -218 39 -445 -26 -238 -56 -350 -94
-350 -10 0 -40 7 -66 16 -45 16 -50 15 -112 -5 -35 -11 -67 -21 -69 -21 -3 0
-5 83 -5 185 l0 185 28 6 c188 43 237 61 247 94 17 54 -41 67 -171 41 -54 -11
-100 -19 -102 -17 -6 6 11 286 17 286 3 0 47 9 96 19 110 24 164 26 192 6z
m-437 -199 l0 -143 -57 -16 c-32 -8 -74 -18 -93 -22 -61 -11 -70 -16 -70 -35
0 -30 35 -41 131 -41 l89 0 0 -188 0 -189 -65 -16 c-36 -9 -92 -19 -125 -23
l-59 -6 -5 34 c-3 19 -19 176 -36 349 -17 173 -33 327 -36 342 -4 20 -1 28 14
32 34 11 276 64 295 65 15 1 17 -12 17 -143z"/>
<path d="M2495 2574 c-43 -35 -180 -94 -268 -114 -84 -20 -100 -21 -179 -10
-87 12 -128 8 -128 -12 0 -6 9 -25 20 -44 52 -84 53 -97 59 -1121 3 -523 10
-955 14 -960 24 -23 71 101 97 252 31 181 40 440 40 1141 l0 661 123 27 c67
14 145 29 173 33 46 5 53 3 58 -15 13 -39 -34 -196 -113 -377 -17 -38 -31 -78
-31 -89 0 -10 43 -64 98 -120 112 -117 175 -206 197 -279 18 -60 19 -81 5
-108 -15 -27 -86 -25 -190 6 -84 25 -140 32 -140 17 0 -11 55 -61 124 -112 32
-23 91 -73 130 -110 70 -66 114 -100 127 -100 19 0 73 58 97 104 25 47 27 60
27 171 0 106 -3 126 -24 170 -34 70 -166 198 -288 278 -57 37 -103 69 -103 71
0 9 76 138 128 216 62 93 185 228 238 261 43 26 43 51 1 83 -96 73 -249 115
-292 80z"/>
</g>
</svg>
