<?xml version="1.0" standalone="no"?>
<!DOCTYPE svg PUBLIC "-//W3C//DTD SVG 20010904//EN"
 "http://www.w3.org/TR/2001/REC-SVG-20010904/DTD/svg10.dtd">
<svg version="1.0" xmlns="http://www.w3.org/2000/svg"
 width="340.000000pt" height="340.000000pt" viewBox="0 0 340.000000 340.000000"
 preserveAspectRatio="xMidYMid meet">
<metadata>
Created by potrace 1.15, written by Peter Selinger 2001-2017
</metadata>
<g transform="translate(0.000000,340.000000) scale(0.100000,-0.100000)"
fill="#000000" stroke="none">
<path d="M1455 2495 c-128 -35 -505 -119 -669 -150 -77 -14 -142 -28 -144 -30
-3 -3 3 -14 13 -25 25 -28 84 -42 163 -39 l67 3 13 -50 c14 -57 34 -326 24
-335 -4 -4 -46 -12 -94 -18 -79 -11 -93 -10 -162 11 -99 29 -109 21 -73 -59
38 -85 44 -128 52 -343 7 -220 -7 -501 -31 -600 -8 -36 -18 -84 -21 -107 -7
-57 20 -142 55 -176 l29 -28 22 27 c20 26 36 72 43 124 3 25 5 25 118 32 63 4
193 17 289 28 95 11 184 20 197 20 33 0 55 -40 99 -171 20 -58 42 -115 50
-125 14 -18 16 -17 49 18 22 23 43 61 57 105 21 66 22 82 24 548 2 520 4 549
56 630 33 52 32 69 -9 108 -39 37 -142 97 -167 97 -12 0 -55 -11 -95 -25 -109
-37 -108 -37 -98 38 4 34 20 97 36 140 l27 79 -52 48 c-29 27 -53 51 -53 54 0
3 10 6 23 6 41 1 402 76 425 89 30 16 26 48 -10 74 -42 32 -144 33 -253 2z
m-241 -207 c9 -36 7 -366 -3 -372 -13 -8 -175 -35 -180 -30 -3 3 0 59 7 126
14 139 12 145 -63 199 -25 18 -45 36 -45 40 0 4 33 13 73 19 39 7 97 18 127
25 76 18 77 18 84 -7z m235 -433 c40 -20 50 -66 62 -299 16 -298 -11 -769 -46
-804 -2 -3 -36 25 -75 61 -38 37 -82 70 -97 73 -15 4 -52 2 -83 -5 -81 -18
-454 -81 -457 -77 -2 1 2 217 9 478 l12 476 73 15 c41 8 75 11 77 8 7 -15 -14
-236 -28 -293 -9 -35 -32 -94 -51 -131 -40 -78 -40 -77 -21 -77 23 0 82 74
116 144 36 76 74 220 85 318 l6 67 49 10 c27 6 67 14 89 17 l40 6 -6 -188 -6
-189 27 -32 c48 -57 167 -73 211 -28 30 29 31 45 6 76 -18 22 -22 23 -53 11
-91 -32 -112 0 -109 168 2 165 9 193 46 201 52 11 95 9 124 -6z"/>
<path d="M1165 1219 c-33 -10 -114 -30 -179 -44 -66 -13 -124 -29 -129 -34
-30 -30 71 -67 155 -56 78 10 265 52 315 71 34 13 43 22 43 41 0 46 -99 57
-205 22z"/>
<path d="M2320 2320 c-90 -72 -248 -134 -395 -156 -140 -20 -155 -24 -155 -39
0 -19 89 -58 135 -58 22 0 108 17 192 37 83 21 166 36 185 34 l33 -3 3 -70 c2
-38 -2 -90 -8 -115 -14 -57 -56 -139 -78 -156 -32 -24 -97 -51 -151 -63 -49
-10 -59 -9 -115 13 -33 13 -78 27 -98 31 l-37 7 20 -58 c24 -67 27 -113 37
-554 7 -289 8 -296 32 -340 47 -84 124 -118 322 -141 271 -31 677 39 734 126
17 27 15 41 -22 122 -36 79 -54 151 -63 251 -13 145 -29 139 -65 -23 -43 -196
-85 -260 -189 -294 -105 -34 -192 -44 -327 -38 -206 10 -269 38 -307 136 -16
41 -18 80 -16 350 1 168 6 308 10 312 10 10 212 44 388 64 77 10 148 21 158
26 38 21 15 50 -71 93 l-52 26 15 38 c26 63 102 167 165 225 33 30 60 60 60
66 0 19 -81 72 -187 122 -56 27 -108 49 -115 49 -7 0 -24 -9 -38 -20z"/>
</g>
</svg>
