<?xml version="1.0" standalone="no"?>
<!DOCTYPE svg PUBLIC "-//W3C//DTD SVG 20010904//EN"
 "http://www.w3.org/TR/2001/REC-SVG-20010904/DTD/svg10.dtd">
<svg version="1.0" xmlns="http://www.w3.org/2000/svg"
 width="340.000000pt" height="340.000000pt" viewBox="0 0 340.000000 340.000000"
 preserveAspectRatio="xMidYMid meet">
<metadata>
Created by potrace 1.15, written by Peter Selinger 2001-2017
</metadata>
<g transform="translate(0.000000,340.000000) scale(0.100000,-0.100000)"
fill="#000000" stroke="none">
<path d="M1926 2718 c-25 -20 -12 -38 83 -114 128 -104 200 -137 232 -108 71
64 33 162 -78 204 -74 27 -210 38 -237 18z"/>
<path d="M1300 2464 c-142 -48 -298 -88 -527 -134 -106 -21 -197 -42 -203 -45
-5 -3 -10 -12 -10 -20 0 -16 34 -24 142 -33 73 -7 73 -7 91 -46 29 -61 57
-183 64 -277 l6 -86 -109 -16 c-80 -13 -118 -14 -144 -7 -45 13 -110 13 -110
0 0 -6 9 -29 20 -50 61 -120 92 -433 71 -712 -30 -389 -30 -395 16 -457 50
-66 73 -52 81 48 l5 69 46 6 c42 6 508 53 575 59 28 2 30 -2 70 -102 23 -58
47 -106 54 -109 22 -7 51 29 67 82 33 111 38 217 25 606 -13 410 -9 468 35
554 l26 49 -48 46 c-36 35 -66 52 -116 69 l-68 22 -72 -33 -72 -34 -4 26 c-2
14 2 69 9 122 15 114 10 159 -24 204 l-25 32 87 17 c132 26 282 65 330 86 52
23 62 45 33 73 -19 19 -34 22 -119 24 -87 2 -107 -1 -202 -33z m-187 -254 c4
-30 6 -115 5 -189 l-3 -135 -70 -18 c-38 -9 -76 -18 -82 -18 -10 0 -13 27 -13
103 0 107 -17 200 -42 239 -8 13 -16 27 -17 33 -3 12 133 44 179 42 34 -2 35
-3 43 -57z m276 -382 c7 -18 17 -111 23 -207 15 -242 -8 -780 -35 -807 -2 -3
-22 6 -42 21 -52 35 -129 34 -276 -5 -104 -27 -349 -74 -354 -68 -4 5 -25 971
-22 975 6 6 169 34 173 30 9 -9 -49 -273 -77 -350 -43 -117 -49 -137 -40 -137
4 0 19 12 33 28 80 85 151 255 165 396 l8 79 83 22 82 23 0 -152 c0 -181 11
-215 73 -229 83 -20 187 13 187 58 0 18 -39 35 -80 35 -82 0 -102 42 -98 202
3 118 0 115 120 117 66 1 66 1 77 -31z"/>
<path d="M1155 1240 c-16 -4 -49 -18 -73 -30 -51 -25 -181 -60 -226 -60 -39 0
-65 -15 -50 -30 17 -17 149 -29 225 -19 80 10 130 22 206 51 44 16 53 24 53
43 0 14 -8 29 -18 34 -28 15 -84 20 -117 11z"/>
<path d="M2298 2377 c-61 -44 -142 -79 -253 -112 -95 -28 -153 -32 -276 -20
-48 5 -79 4 -82 -2 -4 -6 9 -41 28 -79 20 -38 40 -94 45 -124 16 -95 30 -452
30 -791 0 -352 -6 -415 -54 -543 -14 -37 -26 -87 -26 -110 0 -44 42 -146 60
-146 7 0 62 51 123 114 62 62 159 150 218 194 103 79 189 161 189 182 0 23
-27 12 -261 -113 -69 -37 -131 -67 -137 -67 -9 0 -12 92 -12 360 0 249 3 360
11 360 16 0 198 -188 342 -355 194 -223 276 -311 337 -362 l55 -46 125 7 c131
6 266 28 284 46 23 23 -12 45 -120 76 -137 38 -241 82 -343 144 -112 66 -265
192 -250 203 2 2 56 34 119 72 136 80 280 185 280 203 0 22 -80 100 -124 122
-73 35 -82 30 -100 -52 -9 -40 -30 -96 -46 -125 -34 -59 -146 -183 -165 -183
-23 0 -308 263 -293 270 7 4 69 20 137 35 117 26 125 27 151 11 39 -22 55 -20
79 10 27 34 38 78 62 233 33 217 85 379 141 438 30 32 17 65 -42 108 -51 37
-135 75 -168 75 -9 0 -38 -15 -64 -33z m18 -163 c14 -54 -41 -564 -62 -584
-15 -13 -348 -90 -357 -81 -4 4 -6 68 -5 141 l3 134 110 18 c61 10 130 28 155
41 38 19 45 26 45 52 0 29 -1 30 -57 33 -52 3 -140 -20 -251 -63 -16 -7 -17 2
-15 125 l3 133 65 19 c112 33 233 56 297 57 59 1 63 0 69 -25z"/>
</g>
</svg>
