<?xml version="1.0" standalone="no"?>
<!DOCTYPE svg PUBLIC "-//W3C//DTD SVG 20010904//EN"
 "http://www.w3.org/TR/2001/REC-SVG-20010904/DTD/svg10.dtd">
<svg version="1.0" xmlns="http://www.w3.org/2000/svg"
 width="340.000000pt" height="340.000000pt" viewBox="0 0 340.000000 340.000000"
 preserveAspectRatio="xMidYMid meet">
<metadata>
Created by potrace 1.15, written by Peter Selinger 2001-2017
</metadata>
<g transform="translate(0.000000,340.000000) scale(0.100000,-0.100000)"
fill="#000000" stroke="none">
<path d="M2263 2780 c-28 -11 -28 -11 -2 -61 34 -68 49 -163 49 -324 0 -82 -3
-159 -6 -171 -5 -17 -25 -25 -132 -49 -70 -15 -133 -30 -139 -32 -16 -6 -18
170 -2 237 l10 45 -41 37 c-50 44 -107 63 -157 51 -19 -4 -34 -11 -33 -15 0
-4 14 -36 30 -70 30 -63 52 -154 65 -260 7 -65 18 -56 -97 -78 -67 -13 -112
-44 -88 -60 8 -5 54 -10 103 -10 l87 0 0 -174 0 -175 -52 -10 c-114 -23 -246
-41 -300 -41 l-58 0 0 68 c1 40 8 89 20 122 11 30 19 62 20 71 0 23 -74 87
-128 111 l-45 20 -37 -21 c-21 -12 -57 -28 -81 -36 l-42 -15 6 78 c3 43 13
114 22 158 l17 79 -42 38 c-24 20 -39 37 -35 37 12 0 267 51 313 62 68 17 82
61 27 84 -68 28 -180 16 -445 -48 -69 -16 -201 -45 -294 -63 -166 -32 -214
-51 -190 -75 6 -6 57 -13 114 -15 72 -2 106 -8 111 -17 17 -33 49 -190 55
-273 8 -112 21 -104 -188 -112 -82 -3 -148 -8 -148 -11 0 -3 11 -28 24 -56 56
-119 79 -392 57 -691 -26 -342 -26 -347 -3 -397 36 -82 73 -83 90 -2 l8 39
264 32 c146 18 272 32 281 32 13 1 23 -24 43 -105 26 -105 49 -164 64 -164 35
0 100 93 132 190 30 88 36 245 21 574 -6 142 -10 261 -7 263 2 2 28 -8 57 -22
l52 -27 126 30 c373 91 715 133 1059 131 106 0 138 3 158 16 13 8 24 20 24 26
0 24 -63 67 -128 88 -80 26 -101 24 -329 -35 -74 -19 -142 -34 -151 -34 -17 0
-17 10 3 178 11 97 24 183 28 190 5 6 17 12 28 12 31 0 179 39 211 56 24 13
29 20 26 47 -3 31 -4 32 -59 35 -31 2 -85 -4 -120 -12 -35 -8 -65 -13 -67 -11
-8 8 52 267 78 334 l30 76 -28 35 c-42 52 -127 100 -177 99 -22 0 -50 -4 -62
-9z m-1148 -480 c13 -22 24 -181 18 -271 l-6 -97 -87 -16 c-48 -9 -90 -16 -93
-16 -3 0 -3 33 0 73 3 39 1 103 -5 141 -10 61 -16 74 -53 113 -24 23 -41 44
-38 47 3 3 175 27 246 35 6 0 15 -3 18 -9z m1175 -212 c0 -13 -7 -95 -15 -183
-8 -88 -15 -165 -15 -171 0 -6 -43 -16 -102 -23 -57 -7 -111 -15 -120 -17 -17
-5 -18 8 -18 173 l0 179 123 31 c150 38 147 38 147 11z m-970 -208 c11 -6 24
-19 29 -29 33 -61 54 -463 41 -771 -10 -227 -17 -281 -38 -288 -7 -2 -37 22
-67 54 l-54 59 -73 -1 c-40 -1 -127 -13 -193 -27 -66 -14 -150 -29 -188 -32
l-67 -7 2 483 3 483 40 7 c22 3 57 9 79 12 l38 6 -6 -62 c-10 -87 -39 -208
-75 -306 -17 -47 -29 -87 -26 -90 3 -2 18 4 33 16 75 56 130 197 139 359 l6
102 90 11 c49 7 91 10 93 8 3 -2 -3 -66 -12 -143 -19 -164 -14 -212 27 -258
46 -53 148 -58 185 -9 18 26 6 42 -40 53 -63 16 -84 27 -101 54 -14 22 -15 40
-4 170 10 118 15 146 28 149 31 9 93 7 111 -3z"/>
<path d="M990 1229 c-204 -40 -197 -38 -186 -64 11 -30 75 -48 151 -42 106 8
305 68 305 92 0 38 -118 44 -270 14z"/>
<path d="M2369 1451 c-33 -21 -192 -61 -341 -86 -144 -24 -157 -25 -197 -10
-50 17 -111 20 -111 5 0 -6 9 -37 20 -70 35 -105 44 -241 30 -465 -14 -218
-10 -253 33 -294 31 -28 51 -13 70 54 l14 50 229 16 c145 11 231 13 235 7 4
-5 16 -51 28 -101 32 -131 41 -157 56 -157 21 0 84 79 114 140 26 54 26 59 32
340 6 302 8 316 61 410 l23 41 -35 30 c-77 66 -220 115 -261 90z m-1 -117 c52
-14 75 -125 73 -349 -1 -160 -16 -275 -37 -282 -6 -2 -30 12 -54 32 -52 43
-76 44 -232 11 -62 -14 -141 -28 -175 -32 l-63 -7 0 136 0 136 33 5 c17 3 73
7 123 10 94 5 197 27 248 53 l30 16 -23 18 c-34 28 -80 32 -156 14 -95 -22
-216 -45 -237 -45 -16 0 -18 12 -18 115 l0 115 28 1 c15 0 86 13 157 29 124
27 253 37 303 24z"/>
</g>
</svg>
