<?xml version="1.0" standalone="no"?>
<!DOCTYPE svg PUBLIC "-//W3C//DTD SVG 20010904//EN"
 "http://www.w3.org/TR/2001/REC-SVG-20010904/DTD/svg10.dtd">
<svg version="1.0" xmlns="http://www.w3.org/2000/svg"
 width="340.000000pt" height="340.000000pt" viewBox="0 0 340.000000 340.000000"
 preserveAspectRatio="xMidYMid meet">
<metadata>
Created by potrace 1.15, written by Peter Selinger 2001-2017
</metadata>
<g transform="translate(0.000000,340.000000) scale(0.100000,-0.100000)"
fill="#000000" stroke="none">
<path d="M2145 2784 c-35 -28 -177 -94 -245 -114 -90 -26 -231 -50 -301 -50
-33 0 -59 -4 -59 -9 0 -21 44 -61 78 -71 58 -16 101 -12 213 19 133 37 281 71
307 71 32 0 34 -14 12 -73 -19 -50 -148 -259 -168 -271 -5 -3 -44 22 -88 55
-113 85 -204 129 -268 129 -47 0 -87 -13 -76 -23 3 -3 34 -19 70 -37 70 -35
260 -161 281 -186 10 -13 2 -25 -52 -81 -100 -102 -233 -210 -364 -294 -66
-43 -138 -90 -160 -106 l-40 -28 31 -3 c56 -5 281 100 426 200 48 33 126 96
173 139 47 43 91 79 98 79 7 0 29 -16 48 -36 47 -49 278 -248 367 -317 41 -31
92 -62 114 -68 51 -13 177 2 341 42 126 31 165 46 151 59 -5 4 -58 20 -119 35
-155 39 -321 98 -453 161 -118 55 -296 158 -347 199 l-30 23 65 73 c35 41 116
132 179 203 l115 128 -23 43 c-28 53 -84 93 -153 112 -67 17 -98 16 -123 -3z"/>
<path d="M1160 2721 c-33 -66 -100 -113 -329 -231 -80 -41 -147 -81 -149 -87
-6 -20 56 -16 134 8 78 24 129 28 146 11 20 -20 27 -102 27 -323 l1 -216 -82
-11 c-327 -44 -554 -75 -557 -78 -12 -10 26 -64 58 -82 56 -32 107 -37 176
-16 33 9 129 34 212 54 l153 37 -32 -56 c-107 -189 -276 -423 -413 -571 -121
-131 -163 -190 -136 -190 14 0 186 136 262 207 82 78 210 231 298 357 l63 91
-6 -123 c-9 -167 -32 -345 -61 -477 -29 -128 -31 -172 -10 -263 19 -83 54
-147 80 -147 56 0 75 124 76 505 1 151 4 315 8 363 l6 88 113 -96 c62 -52 121
-95 131 -95 29 0 45 27 45 79 2 91 -51 130 -207 152 l-88 12 3 101 3 100 35 8
c19 4 91 19 160 33 69 14 135 28 148 30 51 12 8 55 -69 70 -26 5 -59 -1 -115
-18 -44 -14 -97 -29 -118 -33 l-39 -7 7 134 c4 74 14 182 22 242 18 123 17
128 -55 160 -24 10 -39 22 -35 27 5 4 56 24 114 44 168 59 250 97 250 117 0
10 -15 29 -33 43 -38 30 -146 86 -164 86 -7 0 -22 -18 -33 -39z"/>
<path d="M1323 2408 c-5 -7 -15 -33 -22 -58 -7 -25 -35 -91 -62 -146 -27 -56
-49 -104 -49 -108 0 -11 38 9 125 67 139 92 195 138 195 158 0 21 -50 62 -103
84 -44 18 -71 19 -84 3z"/>
<path d="M633 2233 c-22 -8 -14 -48 18 -94 43 -61 110 -129 127 -129 25 0 72
57 72 87 0 43 -33 88 -82 111 -45 21 -114 34 -135 25z"/>
<path d="M1846 1861 c-4 -6 5 -41 19 -78 32 -80 45 -177 24 -185 -8 -3 -92
-20 -186 -38 -95 -18 -173 -37 -173 -41 0 -5 26 -16 57 -25 46 -14 83 -16 187
-11 l129 6 -7 -116 c-3 -64 -8 -119 -11 -121 -7 -7 -333 -50 -472 -61 -69 -6
-129 -13 -131 -16 -19 -19 111 -95 162 -95 17 0 94 13 171 29 78 16 171 32
208 36 l66 7 -6 -288 c-6 -287 5 -483 28 -526 8 -16 13 -17 25 -7 36 30 57
179 74 534 6 121 13 241 16 266 l6 47 141 7 c80 3 218 2 316 -5 208 -13 231
-10 231 31 0 35 -44 67 -140 100 -83 29 -149 28 -320 -4 -74 -14 -157 -28
-183 -32 l-48 -6 3 117 3 117 130 22 c151 26 215 48 215 76 0 47 -145 65 -275
35 -33 -8 -61 -14 -62 -13 0 1 6 36 15 78 8 41 12 83 9 93 -15 40 -203 97
-221 67z"/>
</g>
</svg>
