<?xml version="1.0" standalone="no"?>
<!DOCTYPE svg PUBLIC "-//W3C//DTD SVG 20010904//EN"
 "http://www.w3.org/TR/2001/REC-SVG-20010904/DTD/svg10.dtd">
<svg version="1.0" xmlns="http://www.w3.org/2000/svg"
 width="340.000000pt" height="340.000000pt" viewBox="0 0 340.000000 340.000000"
 preserveAspectRatio="xMidYMid meet">
<metadata>
Created by potrace 1.15, written by Peter Selinger 2001-2017
</metadata>
<g transform="translate(0.000000,340.000000) scale(0.100000,-0.100000)"
fill="#000000" stroke="none">
<path d="M2390 2649 c-84 -38 -270 -98 -351 -114 -45 -8 -120 -15 -168 -15
-112 0 -131 -6 -131 -37 0 -31 59 -88 107 -104 42 -13 63 -9 182 42 93 40 258
90 339 104 l43 7 -45 -90 c-46 -92 -152 -280 -166 -296 -5 -4 -49 6 -100 23
-109 37 -170 41 -170 12 0 -26 176 -204 228 -230 53 -27 77 -27 96 1 22 31 20
73 -6 125 l-22 43 40 41 c69 71 207 183 313 253 56 37 105 74 108 82 11 29
-50 97 -118 131 -84 43 -123 47 -179 22z"/>
<path d="M1430 2619 c-51 -21 -329 -89 -465 -114 -154 -28 -225 -32 -268 -16
-34 13 -124 15 -131 2 -3 -5 19 -58 48 -117 67 -133 112 -269 161 -479 20 -88
43 -172 51 -187 20 -39 50 -36 70 6 15 30 24 36 96 55 43 12 85 24 93 28 13 4
15 -14 15 -115 l0 -120 -42 -7 c-99 -15 -250 -46 -273 -57 -32 -14 -31 -23 2
-45 30 -20 162 -25 261 -10 l53 8 -3 -118 -3 -118 -105 -26 c-58 -15 -170 -36
-250 -48 -218 -33 -249 -40 -260 -61 -9 -16 -3 -24 32 -48 24 -16 75 -45 113
-64 78 -39 91 -38 166 5 125 73 395 179 694 271 98 30 182 61 186 68 25 40
-53 37 -242 -11 -85 -21 -167 -42 -182 -45 l-28 -7 3 112 3 111 111 28 c115
29 143 40 162 62 23 29 -25 58 -95 58 -26 0 -80 -9 -118 -20 -38 -11 -71 -20
-73 -20 -1 0 -1 55 0 122 l3 122 83 15 c81 14 83 14 106 -8 47 -44 82 -7 125
133 12 39 31 122 42 185 26 153 52 227 99 295 l40 56 -35 39 c-56 62 -185 104
-245 80z m26 -151 c26 -51 14 -200 -31 -378 -20 -80 -38 -146 -40 -148 -2 -3
-162 -42 -171 -42 -2 0 -4 49 -4 109 l0 108 71 23 c40 13 84 34 98 47 l26 23
-24 21 c-27 22 -74 20 -138 -7 l-33 -13 3 99 c2 96 1 99 -26 128 l-29 30 59
12 c32 6 63 13 68 15 6 2 43 4 82 4 72 1 73 1 89 -31z m-392 -55 c18 -37 36
-124 36 -178 0 -43 -1 -45 -38 -54 -21 -6 -54 -13 -73 -17 -52 -9 -90 -26 -86
-38 5 -14 64 -25 140 -25 l57 -1 0 -113 0 -114 -102 -26 c-55 -15 -104 -25
-106 -22 -9 8 -112 558 -107 564 9 8 198 50 232 50 26 1 35 -5 47 -26z"/>
<path d="M2610 1969 c-167 -60 -441 -110 -1009 -182 -62 -8 -118 -20 -123 -25
-7 -7 13 -24 59 -51 83 -49 115 -51 234 -16 46 14 121 34 166 44 l82 19 19
-47 c83 -192 90 -855 12 -1002 -15 -28 -68 -25 -180 11 -97 30 -130 36 -130
22 0 -4 34 -41 76 -82 41 -41 98 -106 126 -145 107 -146 126 -154 201 -79 52
51 99 141 116 222 14 65 14 213 1 397 -6 77 -14 201 -19 275 -7 90 -6 161 0
212 14 99 -1 133 -82 191 -32 22 -57 42 -55 44 2 2 57 13 122 24 66 11 181 31
258 45 76 14 149 23 162 20 44 -12 42 -49 -11 -152 -27 -52 -45 -97 -42 -101
4 -4 24 3 45 16 63 38 123 61 230 91 57 15 108 32 113 37 17 17 -29 100 -83
148 -35 32 -69 51 -115 65 -79 24 -102 24 -173 -1z"/>
</g>
</svg>
