<?xml version="1.0" standalone="no"?>
<!DOCTYPE svg PUBLIC "-//W3C//DTD SVG 20010904//EN"
 "http://www.w3.org/TR/2001/REC-SVG-20010904/DTD/svg10.dtd">
<svg version="1.0" xmlns="http://www.w3.org/2000/svg"
 width="340.000000pt" height="340.000000pt" viewBox="0 0 340.000000 340.000000"
 preserveAspectRatio="xMidYMid meet">
<metadata>
Created by potrace 1.15, written by Peter Selinger 2001-2017
</metadata>
<g transform="translate(0.000000,340.000000) scale(0.100000,-0.100000)"
fill="#000000" stroke="none">
<path d="M2108 2714 c-4 -90 -12 -129 -42 -220 -76 -232 -267 -570 -425 -749
-113 -129 -120 -160 -23 -110 66 34 206 165 272 254 32 42 49 58 60 54 40 -18
156 -13 302 13 210 37 271 41 304 19 52 -34 57 -66 51 -330 -12 -451 -68 -752
-171 -914 -28 -43 -28 -44 -76 -38 -26 3 -90 22 -143 41 -90 34 -137 44 -137
29 0 -3 26 -45 58 -92 32 -47 78 -122 102 -166 68 -127 78 -138 113 -131 75
15 232 158 276 251 68 145 112 462 126 915 7 223 17 267 80 387 l43 82 -38 35
c-44 40 -121 81 -189 102 -45 13 -49 13 -131 -21 -47 -18 -124 -45 -171 -59
-103 -29 -355 -73 -365 -63 -6 6 72 139 318 542 27 44 51 90 55 103 14 58
-104 155 -204 169 l-40 5 -5 -108z"/>
<path d="M1141 2747 c-5 -14 -15 -68 -20 -122 -16 -136 -24 -169 -75 -281
-135 -299 -293 -531 -566 -833 -76 -85 -81 -93 -45 -71 116 68 215 141 293
214 l87 83 35 -15 c19 -8 80 -17 135 -21 l100 -6 11 -50 c7 -27 13 -95 13
-150 l1 -100 -127 -22 c-135 -23 -293 -68 -293 -83 0 -33 250 -45 354 -17 l59
16 -7 -107 c-10 -174 -48 -293 -110 -351 -20 -18 -26 -34 -26 -64 0 -89 46
-171 90 -160 12 3 40 28 61 56 22 27 102 97 177 155 75 58 170 133 211 166 40
34 82 68 92 76 11 8 21 26 24 38 3 20 1 22 -18 17 -23 -7 -109 -53 -282 -149
-55 -31 -103 -56 -107 -56 -5 0 -8 19 -8 43 1 72 26 357 32 363 4 3 52 19 109
35 119 35 193 65 211 86 10 12 9 18 -6 29 -39 28 -103 28 -207 0 -54 -14 -100
-26 -102 -26 -2 0 -4 49 -3 109 1 100 -1 112 -22 141 -13 17 -22 33 -20 34 7
6 108 28 187 41 102 17 172 50 185 88 14 39 -3 51 -82 55 -51 3 -81 -1 -127
-18 -161 -58 -384 -110 -472 -110 l-34 0 59 73 c66 80 152 205 177 258 l16 34
127 1 c98 0 149 6 222 23 173 43 270 83 270 112 0 16 -33 39 -72 49 -51 14
-88 6 -303 -67 -216 -74 -200 -70 -191 -47 4 10 59 105 122 211 63 106 114
196 114 201 0 5 -20 28 -45 51 -46 42 -104 73 -163 86 -28 6 -33 3 -41 -18z"/>
<path d="M1843 1604 c-15 -40 184 -316 265 -366 l35 -21 18 22 c39 47 44 111
17 184 -18 46 -255 197 -311 197 -10 0 -20 -7 -24 -16z"/>
</g>
</svg>
