<?xml version="1.0" standalone="no"?>
<!DOCTYPE svg PUBLIC "-//W3C//DTD SVG 20010904//EN"
 "http://www.w3.org/TR/2001/REC-SVG-20010904/DTD/svg10.dtd">
<svg version="1.0" xmlns="http://www.w3.org/2000/svg"
 width="340.000000pt" height="340.000000pt" viewBox="0 0 340.000000 340.000000"
 preserveAspectRatio="xMidYMid meet">
<metadata>
Created by potrace 1.15, written by Peter Selinger 2001-2017
</metadata>
<g transform="translate(0.000000,340.000000) scale(0.100000,-0.100000)"
fill="#000000" stroke="none">
<path d="M996 2627 c6 -102 6 -104 -35 -226 -94 -281 -275 -656 -422 -873 -22
-31 -39 -59 -39 -62 0 -4 10 -6 22 -6 50 0 208 201 395 503 38 61 45 67 75 67
53 0 265 38 366 65 156 42 218 86 170 119 -36 25 -107 19 -230 -20 -112 -35
-270 -76 -274 -71 -7 7 159 387 186 424 l30 44 -19 27 c-52 73 -119 112 -191
112 l-41 0 7 -103z"/>
<path d="M2400 2495 c-30 -7 -109 -30 -175 -50 -143 -43 -252 -69 -358 -85
-75 -11 -81 -10 -143 14 -71 29 -122 33 -130 12 -3 -8 7 -47 21 -88 24 -65 28
-95 37 -268 10 -206 4 -610 -13 -870 -11 -175 -37 -319 -69 -385 -19 -40 -20
-51 -11 -95 18 -83 58 -150 90 -150 9 0 29 16 44 35 39 49 67 61 208 89 210
42 311 49 564 41 372 -12 344 -13 366 14 11 13 18 31 17 40 -9 43 -162 101
-269 101 -85 0 -271 -22 -572 -68 -137 -21 -250 -36 -251 -33 -2 3 -1 109 3
236 l6 230 175 17 c151 16 263 32 539 80 30 5 58 11 63 14 13 8 9 54 -8 83
-15 26 -15 30 9 77 30 59 102 156 151 203 20 19 36 40 36 47 0 26 -92 106
-161 139 -104 50 -138 52 -232 15 -107 -41 -257 -78 -412 -101 -71 -10 -134
-19 -139 -19 -9 0 0 396 10 455 l5 31 127 12 c146 14 295 39 467 77 221 49
317 114 229 154 -33 15 -155 13 -224 -4z m-35 -759 c43 -44 45 -139 4 -263
-19 -58 -23 -63 -57 -73 -103 -27 -343 -69 -492 -85 l-55 -6 3 183 c2 101 5
188 7 194 2 7 40 15 92 19 48 4 167 17 263 30 223 29 207 29 235 1z"/>
<path d="M1295 1821 c-16 -4 -73 -25 -125 -45 -52 -21 -137 -49 -188 -62 -99
-25 -132 -39 -132 -55 0 -17 49 -29 115 -29 l64 0 12 -42 c6 -24 12 -83 13
-132 l1 -89 -50 -14 c-144 -40 -305 -95 -305 -103 0 -5 17 -13 38 -17 41 -9
239 -11 287 -3 17 3 29 0 28 -5 -1 -6 -11 -88 -23 -184 -23 -192 -30 -214 -92
-303 -41 -58 -43 -64 -42 -130 1 -49 8 -81 25 -115 37 -75 57 -68 151 48 56
68 134 144 270 260 105 90 186 165 180 167 -6 2 -64 -18 -129 -43 -151 -60
-255 -96 -261 -91 -2 3 8 96 22 208 14 112 26 208 26 215 0 6 36 23 81 38 102
33 258 100 277 119 8 8 12 22 9 30 -19 50 -161 41 -300 -19 l-39 -16 7 73 c6
66 4 78 -19 123 -14 27 -24 50 -23 51 1 0 58 18 127 39 137 41 173 62 149 91
-30 37 -90 50 -154 35z"/>
</g>
</svg>
