<?xml version="1.0" standalone="no"?>
<!DOCTYPE svg PUBLIC "-//W3C//DTD SVG 20010904//EN"
 "http://www.w3.org/TR/2001/REC-SVG-20010904/DTD/svg10.dtd">
<svg version="1.0" xmlns="http://www.w3.org/2000/svg"
 width="340.000000pt" height="340.000000pt" viewBox="0 0 340.000000 340.000000"
 preserveAspectRatio="xMidYMid meet">
<metadata>
Created by potrace 1.15, written by Peter Selinger 2001-2017
</metadata>
<g transform="translate(0.000000,340.000000) scale(0.100000,-0.100000)"
fill="#000000" stroke="none">
<path d="M2024 2885 c-3 -8 8 -48 25 -89 57 -137 62 -180 68 -548 6 -370 2
-414 -49 -561 l-30 -89 27 -83 c15 -46 37 -93 50 -105 l23 -21 21 27 c50 64
54 100 81 749 10 256 17 309 71 508 l24 89 -30 24 c-39 33 -108 67 -170 87
-88 27 -105 29 -111 12z"/>
<path d="M1069 2868 c-1 -13 0 -68 1 -123 1 -88 -2 -112 -30 -200 -112 -348
-313 -682 -572 -952 -78 -81 -101 -113 -82 -113 13 0 107 51 161 88 65 44 167
140 234 220 l44 52 53 -20 c34 -13 76 -20 122 -20 67 0 71 -1 82 -27 6 -16 13
-71 16 -124 l4 -95 -193 -44 c-107 -24 -205 -50 -219 -58 l-25 -16 35 -15 c48
-20 253 -20 338 1 l62 15 0 -28 c0 -129 -51 -304 -115 -400 -37 -54 -45 -74
-45 -112 0 -79 46 -177 84 -177 3 0 54 49 113 108 72 71 160 145 262 217 189
135 211 153 211 172 0 20 -40 11 -150 -32 -156 -62 -253 -96 -258 -90 -6 6 11
352 19 359 3 3 64 19 136 35 138 31 164 41 201 74 27 25 28 41 2 67 -30 30
-92 25 -216 -15 -58 -19 -107 -35 -108 -35 0 0 -1 42 -1 93 0 71 -4 99 -17
119 l-18 27 38 6 c204 34 341 102 286 142 -24 17 -97 16 -159 -3 -120 -37
-498 -104 -511 -91 -3 2 28 51 68 108 40 58 88 129 106 159 l33 55 137 0 c124
0 149 4 259 34 132 36 179 59 192 94 12 31 -3 53 -45 67 -45 15 -69 10 -213
-43 -138 -52 -278 -93 -287 -84 -7 7 122 277 168 351 58 94 59 96 41 130 -34
69 -88 108 -178 132 -65 18 -65 18 -66 -8z"/>
<path d="M2446 2142 c-4 -7 25 -38 70 -74 167 -138 313 -229 391 -244 28 -5
33 -3 47 24 30 59 16 108 -51 183 -43 47 -86 71 -168 93 -76 21 -279 33 -289
18z"/>
<path d="M1795 2098 c-3 -7 -16 -56 -29 -109 -13 -52 -37 -122 -54 -155 -16
-32 -32 -80 -36 -105 -8 -52 6 -125 26 -146 22 -21 83 45 127 136 35 74 36 79
35 191 -1 135 -15 200 -45 200 -11 0 -22 -6 -24 -12z"/>
<path d="M2456 1783 c-3 -10 -10 -55 -16 -100 -14 -102 -37 -172 -95 -281
-208 -391 -533 -721 -942 -956 -44 -26 -87 -53 -93 -61 -11 -13 -8 -15 17 -15
70 0 268 87 437 192 277 172 523 431 706 743 29 50 84 143 122 207 67 113 69
117 55 145 -22 41 -59 79 -113 113 -55 34 -71 37 -78 13z"/>
</g>
</svg>
