<?xml version="1.0" standalone="no"?>
<!DOCTYPE svg PUBLIC "-//W3C//DTD SVG 20010904//EN"
 "http://www.w3.org/TR/2001/REC-SVG-20010904/DTD/svg10.dtd">
<svg version="1.0" xmlns="http://www.w3.org/2000/svg"
 width="340.000000pt" height="340.000000pt" viewBox="0 0 340.000000 340.000000"
 preserveAspectRatio="xMidYMid meet">
<metadata>
Created by potrace 1.15, written by Peter Selinger 2001-2017
</metadata>
<g transform="translate(0.000000,340.000000) scale(0.100000,-0.100000)"
fill="#000000" stroke="none">
<path d="M962 2872 c-9 -6 -10 -21 -3 -59 17 -88 -7 -189 -93 -396 -103 -248
-266 -513 -440 -717 -133 -155 -5 -98 171 77 94 92 184 204 265 328 l60 90 92
2 c109 2 191 15 302 48 111 34 144 75 89 111 -30 20 -105 15 -175 -11 -127
-47 -273 -95 -277 -92 -10 11 131 260 226 401 30 45 38 64 31 77 -16 29 -96
107 -128 123 -38 19 -103 29 -120 18z"/>
<path d="M2210 2792 c-8 -2 -40 -20 -70 -38 -99 -60 -281 -116 -467 -144 -111
-17 -135 -41 -60 -61 71 -19 253 -5 395 31 67 17 127 28 132 25 17 -11 11 -64
-14 -113 -20 -39 -92 -142 -161 -230 -8 -10 -36 2 -125 53 -160 92 -274 130
-310 105 -24 -17 24 -52 131 -94 96 -39 178 -87 217 -129 l22 -24 -97 -94
c-54 -52 -169 -148 -256 -214 -99 -75 -154 -122 -148 -128 17 -17 120 11 200
54 88 47 179 112 307 221 l91 76 94 -75 c176 -142 374 -286 424 -309 58 -28
88 -29 210 -9 140 22 275 60 298 84 12 11 18 23 15 26 -3 3 -59 14 -125 25
-314 51 -584 152 -783 291 l-71 50 31 37 c17 20 79 102 139 182 136 181 166
216 202 237 35 21 36 24 3 62 -45 54 -182 117 -224 103z"/>
<path d="M1205 1976 c-38 -13 -153 -45 -253 -72 -135 -36 -187 -54 -194 -67
-5 -10 -7 -22 -3 -25 4 -4 52 -9 108 -12 l102 -5 18 -70 c10 -43 16 -97 15
-140 l-3 -70 -140 -34 c-220 -53 -275 -70 -275 -87 0 -25 50 -37 155 -37 87 0
174 11 239 30 18 5 19 1 13 -91 -10 -150 -38 -240 -97 -316 -42 -53 -53 -106
-39 -185 10 -60 28 -95 48 -95 5 0 57 48 117 108 63 62 149 135 204 171 112
75 160 118 160 143 0 29 -36 22 -160 -32 -63 -27 -116 -50 -117 -50 -6 0 -1
278 5 324 l7 49 129 48 c70 27 142 57 160 67 62 36 21 88 -61 77 -24 -4 -82
-19 -130 -36 -48 -16 -88 -29 -90 -29 -2 0 -3 42 -3 93 -1 81 -7 115 -34 178
-6 13 3 19 41 28 26 7 99 28 161 47 123 39 136 54 86 93 -34 27 -81 26 -169
-3z"/>
<path d="M1873 1850 l-22 -9 28 -54 c28 -52 61 -191 48 -203 -3 -3 -38 -10
-79 -15 -151 -20 -191 -29 -210 -46 -18 -16 -18 -17 -1 -27 10 -6 76 -11 156
-11 l137 0 0 -111 0 -110 -187 -22 c-104 -12 -223 -25 -266 -28 -93 -8 -100
-25 -24 -63 l48 -24 142 16 c78 9 175 19 215 23 l72 7 0 -254 c0 -269 13 -510
30 -554 7 -17 16 -25 28 -23 40 8 58 143 74 550 11 287 12 297 32 302 12 2
143 10 291 16 290 13 323 17 339 42 14 23 -10 47 -80 83 -51 26 -61 28 -142
22 -48 -3 -161 -20 -252 -36 -91 -17 -168 -31 -172 -31 -5 0 -8 47 -8 103 l0
104 130 21 c184 29 265 78 193 116 -57 29 -97 29 -208 1 -59 -14 -109 -24
-112 -21 -3 3 -1 37 6 76 14 87 8 101 -59 135 -56 28 -115 39 -147 25z"/>
</g>
</svg>
