<?xml version="1.0" standalone="no"?>
<!DOCTYPE svg PUBLIC "-//W3C//DTD SVG 20010904//EN"
 "http://www.w3.org/TR/2001/REC-SVG-20010904/DTD/svg10.dtd">
<svg version="1.0" xmlns="http://www.w3.org/2000/svg"
 width="340.000000pt" height="340.000000pt" viewBox="0 0 340.000000 340.000000"
 preserveAspectRatio="xMidYMid meet">
<metadata>
Created by potrace 1.15, written by Peter Selinger 2001-2017
</metadata>
<g transform="translate(0.000000,340.000000) scale(0.100000,-0.100000)"
fill="#000000" stroke="none">
<path d="M2012 2772 c-33 -5 -36 -23 -12 -69 44 -85 52 -158 57 -510 5 -316 4
-331 -14 -337 -56 -17 -154 -25 -205 -17 -31 6 -66 7 -78 4 -23 -6 -23 -8 7
-83 15 -39 17 -79 18 -300 0 -286 -9 -354 -70 -552 -20 -62 -38 -140 -42 -174
-7 -74 16 -160 52 -194 24 -22 26 -23 44 -6 33 30 51 102 76 301 14 105 27
211 31 238 l7 47 127 0 c70 0 151 5 180 10 62 12 160 54 160 69 0 6 -10 19
-22 31 -30 28 -78 26 -260 -10 -83 -17 -160 -30 -170 -30 -16 0 -18 11 -18
128 l0 128 143 12 c143 12 186 20 265 49 34 13 42 20 40 37 -8 55 -136 59
-278 8 -47 -17 -103 -32 -125 -34 l-40 -3 -6 130 c-3 72 -5 132 -3 133 1 2 60
13 131 24 168 26 385 30 408 7 35 -34 67 -404 69 -789 1 -265 0 -270 -73 -270
-26 0 -70 7 -97 15 -102 31 -108 16 -29 -75 30 -34 73 -94 96 -133 50 -84 105
-147 128 -147 23 0 64 45 91 99 56 112 65 315 30 656 -39 374 -37 538 7 630
16 34 16 35 -7 61 -30 31 -129 79 -195 94 -44 10 -54 9 -104 -14 -64 -28 -149
-51 -158 -43 -7 8 12 265 33 441 13 111 29 189 60 293 8 28 -30 64 -111 106
-66 33 -108 45 -143 39z"/>
<path d="M1066 2708 c-2 -7 -9 -55 -15 -106 -32 -262 -193 -568 -521 -992 -98
-126 -130 -176 -130 -205 0 -90 336 283 565 628 l78 117 102 0 c68 0 127 6
178 19 99 26 227 79 234 99 11 27 -26 42 -102 42 -60 0 -88 -7 -176 -41 -143
-56 -209 -79 -209 -72 0 10 117 199 182 294 69 101 68 117 -7 169 -80 55 -170
79 -179 48z"/>
<path d="M2585 2492 c-6 -4 -16 -29 -23 -57 -17 -67 -72 -144 -154 -217 -37
-33 -80 -76 -94 -96 l-27 -35 31 6 c18 4 81 34 140 69 59 34 163 88 232 121
162 76 155 72 158 90 4 21 -57 61 -152 97 -81 32 -95 34 -111 22z"/>
<path d="M1680 2261 c0 -18 21 -72 51 -128 60 -116 65 -123 93 -123 57 0 77
135 31 203 -30 44 -68 65 -130 74 l-45 6 0 -32z"/>
<path d="M1285 1916 c-45 -19 -329 -105 -362 -111 -48 -8 -70 -27 -51 -43 17
-13 86 -32 121 -32 23 0 31 -7 44 -37 20 -49 30 -227 14 -247 -14 -16 -97 -37
-240 -60 -52 -9 -97 -18 -100 -22 -12 -12 41 -43 86 -50 40 -6 148 5 236 23
l27 5 0 -111 c0 -189 -45 -320 -124 -358 -32 -15 -34 -19 -29 -52 10 -74 36
-136 71 -169 l34 -33 102 107 c98 105 209 199 374 317 170 123 84 115 -188
-17 -63 -31 -120 -56 -127 -56 -9 0 -10 48 -6 198 3 108 8 200 12 203 3 3 53
18 111 32 123 30 210 61 241 86 l22 18 -21 21 c-39 39 -94 37 -227 -6 -66 -21
-123 -37 -126 -36 -6 4 14 145 25 182 5 13 -2 30 -20 51 -15 18 -24 34 -21 37
2 3 56 16 118 30 184 41 233 72 175 109 -22 15 -148 30 -171 21z"/>
</g>
</svg>
