<?xml version="1.0" standalone="no"?>
<!DOCTYPE svg PUBLIC "-//W3C//DTD SVG 20010904//EN"
 "http://www.w3.org/TR/2001/REC-SVG-20010904/DTD/svg10.dtd">
<svg version="1.0" xmlns="http://www.w3.org/2000/svg"
 width="340.000000pt" height="340.000000pt" viewBox="0 0 340.000000 340.000000"
 preserveAspectRatio="xMidYMid meet">
<metadata>
Created by potrace 1.15, written by Peter Selinger 2001-2017
</metadata>
<g transform="translate(0.000000,340.000000) scale(0.100000,-0.100000)"
fill="#000000" stroke="none">
<path d="M1129 2728 c-1 -7 -2 -60 -4 -118 -2 -75 -9 -125 -25 -175 -48 -150
-228 -473 -388 -695 -68 -95 -109 -147 -279 -357 -50 -61 -62 -83 -45 -83 4 0
54 38 112 84 95 76 266 242 348 339 28 33 35 36 53 26 14 -7 58 -10 120 -7 92
3 98 2 103 -17 8 -27 7 -161 0 -208 -7 -37 -8 -37 -86 -61 -44 -14 -130 -37
-192 -51 -128 -31 -149 -40 -126 -55 52 -33 214 -36 317 -5 79 24 77 27 69
-76 -14 -184 -42 -289 -104 -391 -30 -51 -34 -64 -30 -108 5 -52 48 -130 71
-130 18 0 26 8 114 110 78 92 203 217 311 311 49 43 65 69 42 69 -6 0 -77 -40
-158 -89 l-147 -90 -3 37 c-3 43 23 401 30 408 3 2 48 16 99 30 108 30 217 77
224 97 3 7 1 26 -5 42 -10 26 -13 27 -53 21 -23 -4 -89 -23 -146 -42 -57 -19
-106 -33 -108 -30 -2 2 1 34 7 72 6 38 10 98 9 134 l-2 64 108 29 c122 33 155
50 155 81 0 64 -82 63 -262 -3 -122 -45 -345 -108 -353 -99 -2 1 40 76 93 165
91 152 98 161 122 155 78 -22 353 23 458 75 40 20 53 53 31 80 -20 24 -116 11
-239 -32 -119 -41 -232 -76 -236 -72 -2 1 19 36 45 77 26 41 80 133 120 203
l72 128 -21 34 c-32 52 -98 104 -154 120 -60 18 -66 18 -67 3z"/>
<path d="M2385 2682 c-11 -2 -44 -15 -74 -29 -130 -58 -334 -86 -437 -59 -119
31 -130 18 -80 -93 56 -125 85 -254 106 -466 14 -139 26 -194 51 -225 19 -24
20 -25 34 -6 8 11 15 30 15 42 0 24 -7 22 158 45 48 7 87 8 92 3 4 -5 15 -32
24 -60 9 -29 25 -59 36 -69 18 -16 20 -16 44 8 53 53 106 193 156 414 35 151
49 192 84 237 13 17 30 45 39 62 15 28 14 33 -2 60 -44 72 -184 149 -246 136z
m-21 -122 c24 -9 26 -14 26 -78 0 -120 -46 -439 -70 -482 -9 -15 -300 -73
-311 -61 -4 3 -9 66 -11 139 l-5 132 46 0 c62 1 188 18 228 31 40 13 47 53 12
64 -27 9 -114 -2 -208 -26 -41 -10 -75 -18 -76 -17 -2 2 -4 59 -6 128 l-4 125
25 3 c14 1 75 11 135 22 61 11 128 21 150 23 22 2 41 4 42 5 1 1 13 -2 27 -8z"/>
<path d="M1846 1775 c-3 -9 -6 -26 -6 -37 0 -60 -126 -222 -259 -331 -25 -20
-42 -39 -39 -43 12 -11 113 27 176 66 54 35 69 40 101 34 81 -13 87 -24 50
-97 -32 -63 -70 -108 -211 -254 -166 -171 -168 -186 -13 -90 43 27 107 71 141
98 83 66 254 247 254 268 0 10 -11 28 -25 41 -14 13 -25 29 -25 35 0 14 210
37 224 25 15 -14 -12 -131 -48 -206 -48 -101 -103 -173 -221 -290 -105 -105
-328 -278 -462 -360 -43 -26 -89 -54 -101 -61 -38 -23 -21 -24 65 -3 262 63
537 259 754 537 46 60 112 143 147 185 74 91 74 98 1 169 l-48 47 62 11 c98
16 212 24 251 17 35 -7 36 -8 36 -51 0 -71 -29 -258 -56 -363 -32 -126 -117
-298 -188 -384 -63 -76 -71 -78 -156 -47 -88 32 -140 47 -140 42 0 -2 15 -37
34 -76 19 -40 46 -112 61 -161 32 -111 37 -118 84 -110 90 16 166 78 246 199
93 139 174 338 255 625 38 136 58 177 111 235 21 23 39 47 39 53 0 20 -118
119 -181 152 l-64 33 -110 -36 c-60 -19 -164 -47 -230 -61 -129 -27 -447 -76
-492 -76 l-27 0 34 35 c19 20 56 50 82 68 53 36 58 55 28 104 -34 56 -120 94
-134 58z"/>
</g>
</svg>
