<?xml version="1.0" standalone="no"?>
<!DOCTYPE svg PUBLIC "-//W3C//DTD SVG 20010904//EN"
 "http://www.w3.org/TR/2001/REC-SVG-20010904/DTD/svg10.dtd">
<svg version="1.0" xmlns="http://www.w3.org/2000/svg"
 width="340.000000pt" height="340.000000pt" viewBox="0 0 340.000000 340.000000"
 preserveAspectRatio="xMidYMid meet">
<metadata>
Created by potrace 1.15, written by Peter Selinger 2001-2017
</metadata>
<g transform="translate(0.000000,340.000000) scale(0.100000,-0.100000)"
fill="#000000" stroke="none">
<path d="M1044 2767 c0 -100 -1 -105 -56 -242 -136 -341 -290 -609 -485 -845
-94 -113 -123 -154 -123 -170 0 -33 243 170 338 282 31 37 31 37 66 23 23 -10
70 -15 134 -15 70 0 103 -4 110 -13 18 -22 32 -105 35 -206 l2 -94 -70 -18
c-38 -10 -119 -28 -180 -39 -192 -36 -252 -62 -184 -81 52 -15 229 -9 331 11
57 11 105 20 107 20 6 0 -8 -168 -20 -234 -17 -94 -46 -159 -94 -209 -53 -56
-61 -82 -46 -144 19 -73 48 -122 78 -129 27 -7 44 7 120 99 13 15 100 85 195
156 196 147 276 215 265 227 -10 10 -90 -15 -261 -83 -76 -30 -140 -53 -141
-51 -3 3 10 289 18 382 2 29 3 30 151 67 82 21 159 45 172 54 51 33 12 91 -60
89 -22 -1 -89 -17 -149 -37 -59 -19 -109 -32 -111 -28 -2 3 0 44 5 91 9 91 5
121 -18 159 -18 28 -10 36 46 46 72 13 200 56 225 76 82 64 -44 91 -214 45
-271 -73 -328 -87 -392 -93 l-71 -6 60 79 c33 43 87 120 121 170 l60 91 94 6
c133 9 374 69 406 101 50 49 -1 81 -113 73 -44 -4 -118 -22 -197 -49 -70 -23
-130 -39 -134 -35 -10 10 102 233 165 330 28 43 51 87 51 99 0 33 -78 101
-144 126 -93 36 -91 38 -92 -81z"/>
<path d="M2555 2694 c-178 -54 -637 -134 -780 -136 -38 -1 -107 2 -152 7 -81
8 -83 7 -83 -14 0 -13 18 -53 40 -89 47 -81 118 -247 154 -363 44 -145 82
-181 125 -120 18 24 29 30 72 33 l51 3 -5 -38 c-3 -21 -23 -75 -45 -120 -66
-139 -176 -289 -365 -500 -49 -55 -86 -101 -84 -104 8 -7 63 24 174 99 56 37
105 68 107 68 3 0 39 -42 80 -94 125 -156 212 -236 258 -236 25 0 48 39 48 80
-1 107 -95 189 -286 250 l-72 23 62 71 c33 39 71 84 82 100 20 28 25 29 130
37 60 5 151 14 201 20 82 10 96 10 118 -5 33 -22 32 -39 -11 -154 -97 -260
-234 -463 -451 -672 -164 -158 -308 -259 -586 -410 -158 -86 -149 -121 16 -59
146 56 340 156 478 248 307 204 505 429 679 769 38 75 93 168 122 206 29 38
57 75 63 82 24 33 -42 91 -162 139 l-54 22 -117 -38 c-118 -38 -313 -82 -339
-77 -13 3 41 82 128 189 29 37 19 61 -42 94 -28 15 -48 29 -46 31 2 3 93 16
201 30 l198 26 33 -36 c25 -28 40 -36 67 -36 45 0 69 26 151 165 36 61 104
168 151 238 47 71 86 134 86 142 0 45 -209 157 -289 154 -14 -1 -62 -12 -106
-25z m104 -115 c21 -19 22 -28 17 -73 -8 -55 -58 -190 -113 -301 -20 -38 -37
-72 -39 -74 -1 -1 -13 4 -26 13 -25 18 -73 20 -133 6 -22 -5 -43 -6 -46 -2 -4
4 8 54 27 112 43 139 46 224 8 270 -15 17 -25 32 -23 34 6 5 227 34 270 35 23
1 43 -6 58 -20z m-404 -56 c14 -38 17 -142 6 -233 -20 -166 -16 -157 -69 -165
-26 -3 -56 -9 -67 -11 -19 -5 -20 -1 -17 68 4 77 -12 139 -68 265 -13 29 -21
55 -19 58 6 5 167 32 205 34 12 0 25 -7 29 -16z m-282 -134 c10 -57 27 -144
37 -194 10 -49 17 -91 16 -93 -7 -6 -178 -34 -183 -29 -5 6 -99 336 -105 372
-3 18 7 21 97 36 55 9 105 15 110 14 6 -1 18 -48 28 -106z"/>
</g>
</svg>
