<?xml version="1.0" standalone="no"?>
<!DOCTYPE svg PUBLIC "-//W3C//DTD SVG 20010904//EN"
 "http://www.w3.org/TR/2001/REC-SVG-20010904/DTD/svg10.dtd">
<svg version="1.0" xmlns="http://www.w3.org/2000/svg"
 width="340.000000pt" height="340.000000pt" viewBox="0 0 340.000000 340.000000"
 preserveAspectRatio="xMidYMid meet">
<metadata>
Created by potrace 1.15, written by Peter Selinger 2001-2017
</metadata>
<g transform="translate(0.000000,340.000000) scale(0.100000,-0.100000)"
fill="#000000" stroke="none">
<path d="M1056 2835 c-3 -8 -3 -44 1 -79 9 -104 -11 -181 -92 -345 -91 -183
-252 -424 -434 -651 -167 -208 -174 -223 -75 -158 115 76 354 330 502 534 l67
92 81 -5 c44 -3 111 0 149 6 84 15 263 75 283 95 24 24 -7 62 -58 71 -56 9
-104 0 -258 -52 -74 -24 -136 -42 -139 -40 -5 6 66 125 157 262 37 55 69 107
73 117 8 23 -88 112 -155 143 -61 28 -93 32 -102 10z"/>
<path d="M1914 2815 c-3 -8 -1 -29 5 -46 28 -81 8 -163 -82 -341 -75 -148
-180 -310 -304 -468 -105 -135 -128 -168 -120 -177 14 -13 125 67 222 160 84
80 104 94 110 80 15 -41 17 -169 6 -499 -16 -489 -32 -655 -72 -773 -23 -65
-24 -115 -5 -214 23 -120 75 -200 105 -163 23 27 41 156 53 372 l12 222 41
-15 c59 -22 133 -21 300 4 200 30 372 43 582 43 199 0 243 10 243 55 0 41 -47
81 -111 94 -59 12 -177 3 -334 -25 -44 -8 -101 -17 -127 -21 l-48 -6 0 126 0
125 144 46 c159 51 202 76 186 107 -13 24 -62 25 -180 3 -47 -8 -100 -18 -118
-21 l-33 -6 3 123 3 122 120 29 c177 42 194 48 205 69 8 15 6 24 -10 40 -26
26 -87 26 -215 0 -53 -11 -99 -20 -101 -20 -2 0 -4 28 -4 63 0 80 -14 128 -45
157 -14 13 -25 27 -25 30 0 7 183 38 356 60 136 18 174 33 174 69 0 22 -9 32
-42 51 -65 36 -141 32 -323 -18 -160 -44 -316 -80 -458 -106 -139 -26 -168
-48 -96 -73 24 -9 71 -11 154 -7 99 5 123 4 133 -8 15 -19 34 -158 30 -218
l-3 -45 -113 -17 c-106 -15 -162 -36 -162 -58 0 -21 45 -30 160 -30 l121 0 -3
-117 -3 -118 -117 -22 c-130 -24 -161 -36 -156 -61 4 -23 42 -29 171 -31 l107
-1 0 -133 0 -134 -196 -27 c-107 -16 -197 -26 -200 -23 -9 9 16 780 27 838 15
75 -7 152 -57 206 l-36 38 18 30 c10 16 67 107 127 200 145 224 213 335 221
361 5 17 -3 29 -47 62 -86 67 -179 94 -193 57z"/>
<path d="M2196 2592 c-15 -24 231 -272 269 -272 22 0 48 84 40 127 -12 64 -44
110 -89 129 -50 20 -210 32 -220 16z"/>
<path d="M1206 1995 c-65 -19 -170 -44 -232 -56 -62 -12 -119 -26 -126 -30
-33 -21 47 -48 139 -49 52 0 52 0 62 -37 5 -21 13 -86 17 -145 7 -106 6 -107
-17 -117 -29 -12 -193 -47 -269 -56 -61 -8 -120 -29 -120 -43 0 -31 191 -49
350 -32 l45 4 -3 -79 c-7 -166 -45 -288 -121 -382 -33 -42 -41 -60 -41 -93 0
-47 41 -134 70 -150 30 -16 72 11 117 75 28 40 78 86 188 169 176 133 255 202
255 223 0 21 -20 13 -209 -78 l-163 -79 6 73 c3 39 9 133 12 208 l7 137 106
31 c131 40 175 58 198 83 17 19 17 21 -11 45 -26 22 -36 24 -75 19 -25 -3 -75
-15 -111 -26 -94 -29 -102 -27 -95 14 4 19 8 68 8 109 2 65 -1 80 -21 107 -13
17 -22 33 -20 34 1 2 46 13 98 25 138 31 211 78 181 115 -21 25 -91 18 -225
-19z"/>
</g>
</svg>
