<?xml version="1.0" standalone="no"?>
<!DOCTYPE svg PUBLIC "-//W3C//DTD SVG 20010904//EN"
 "http://www.w3.org/TR/2001/REC-SVG-20010904/DTD/svg10.dtd">
<svg version="1.0" xmlns="http://www.w3.org/2000/svg"
 width="340.000000pt" height="340.000000pt" viewBox="0 0 340.000000 340.000000"
 preserveAspectRatio="xMidYMid meet">
<metadata>
Created by potrace 1.15, written by Peter Selinger 2001-2017
</metadata>
<g transform="translate(0.000000,340.000000) scale(0.100000,-0.100000)"
fill="#000000" stroke="none">
<path d="M2051 2891 c-12 -8 -11 -18 5 -68 28 -87 25 -363 -5 -412 -6 -9 -80
-28 -197 -51 -103 -20 -189 -41 -191 -47 -4 -11 55 -27 138 -38 25 -3 87 -1
138 5 52 6 95 9 97 7 3 -3 -56 -228 -62 -235 -1 -2 -31 -10 -65 -18 -52 -13
-76 -14 -130 -4 -68 12 -119 6 -119 -14 0 -6 11 -45 24 -86 13 -41 29 -115 35
-165 12 -99 15 -423 5 -588 l-7 -105 -146 -22 c-80 -12 -161 -23 -178 -26 -46
-7 -41 -22 14 -46 57 -25 122 -21 269 16 105 26 278 54 514 83 106 12 233 18
475 19 182 1 336 2 343 3 24 2 13 52 -18 81 -65 60 -174 74 -315 41 -44 -11
-102 -22 -129 -26 l-48 -8 7 319 c7 331 15 395 56 476 15 28 17 43 10 57 -13
23 -78 62 -152 89 l-56 21 -143 -40 c-79 -21 -145 -38 -146 -36 -2 1 17 56 40
122 l44 120 58 8 c105 14 268 49 321 69 98 36 129 81 78 114 -49 32 -91 28
-260 -24 -88 -27 -161 -49 -162 -48 -2 2 22 76 52 165 30 89 55 173 55 186 0
54 -198 138 -249 106z m249 -871 c37 -20 43 -71 47 -467 4 -315 3 -384 -9
-388 -13 -5 -462 -65 -485 -65 -10 0 -13 24 -13 94 l0 93 108 6 c116 7 285 38
308 58 17 14 3 36 -31 49 -35 13 -175 -7 -276 -39 -53 -17 -99 -31 -103 -31
-3 0 -6 42 -6 93 l0 92 194 23 c107 12 202 25 210 28 26 10 18 32 -15 50 -38
19 -78 15 -204 -19 -50 -14 -112 -28 -138 -32 l-47 -7 0 91 0 91 58 0 c102 0
314 38 336 60 16 16 17 22 6 34 -20 25 -105 20 -235 -14 -64 -16 -127 -30
-141 -30 -25 0 -25 1 -22 76 l3 77 110 23 c61 12 151 32 200 43 106 23 120 24
145 11z"/>
<path d="M1045 2706 c31 -203 -212 -721 -533 -1139 -106 -137 -106 -137 -98
-144 16 -17 88 41 211 170 l133 138 63 -11 c35 -6 87 -14 114 -18 49 -7 50 -8
62 -52 6 -25 12 -93 12 -152 l1 -107 -72 -22 c-40 -12 -134 -37 -208 -56 -74
-19 -141 -40 -149 -48 -13 -12 -10 -16 15 -27 42 -19 173 -14 298 12 59 12
110 19 113 17 7 -8 -28 -350 -40 -382 -6 -16 -35 -56 -65 -87 l-55 -58 7 -62
c8 -69 29 -127 52 -144 12 -10 54 28 235 208 122 120 219 222 216 225 -12 11
-55 -8 -152 -66 -72 -43 -101 -56 -103 -46 -5 22 38 449 46 456 4 3 43 18 87
34 119 41 204 82 212 101 4 11 -1 23 -16 36 -37 29 -119 24 -201 -12 -79 -35
-95 -37 -85 -12 4 9 9 54 12 100 l6 83 -48 44 c-45 42 -46 45 -23 45 29 0 166
38 252 70 97 37 116 74 55 105 -46 24 -99 18 -251 -30 -167 -53 -346 -100
-354 -92 -3 3 10 25 28 49 18 24 68 98 111 165 l78 121 117 4 c99 4 133 10
217 38 104 36 175 84 175 121 0 17 -8 19 -69 19 -57 0 -86 -7 -167 -40 -91
-36 -224 -74 -224 -64 0 3 13 31 30 63 16 32 46 99 65 147 20 49 57 115 81
147 24 31 44 65 44 75 0 24 -66 87 -112 107 -21 8 -58 15 -83 15 l-46 0 6 -44z"/>
<path d="M1787 900 c-14 -115 -103 -224 -407 -494 l-55 -48 40 6 c53 7 185 74
260 131 99 74 385 346 385 366 0 37 -107 89 -185 89 -31 0 -32 -2 -38 -50z"/>
<path d="M2250 926 c0 -15 134 -180 258 -315 142 -155 215 -201 242 -152 28
54 -8 201 -65 268 -88 103 -435 262 -435 199z"/>
</g>
</svg>
