<?xml version="1.0" standalone="no"?>
<!DOCTYPE svg PUBLIC "-//W3C//DTD SVG 20010904//EN"
 "http://www.w3.org/TR/2001/REC-SVG-20010904/DTD/svg10.dtd">
<svg version="1.0" xmlns="http://www.w3.org/2000/svg"
 width="340.000000pt" height="340.000000pt" viewBox="0 0 340.000000 340.000000"
 preserveAspectRatio="xMidYMid meet">
<metadata>
Created by potrace 1.15, written by Peter Selinger 2001-2017
</metadata>
<g transform="translate(0.000000,340.000000) scale(0.100000,-0.100000)"
fill="#000000" stroke="none">
<path d="M1953 2733 c-7 -2 -13 -11 -13 -20 0 -26 171 -186 236 -220 l61 -32
26 27 c51 54 42 114 -27 181 -27 27 -49 35 -127 51 -94 20 -133 23 -156 13z"/>
<path d="M995 2709 c-4 -5 -4 -36 0 -68 10 -88 -13 -162 -114 -366 -158 -318
-317 -560 -469 -717 -42 -43 -72 -81 -69 -84 20 -20 225 119 299 203 17 18 22
19 95 6 43 -8 93 -12 111 -10 30 3 36 -1 55 -37 18 -35 21 -59 21 -156 l1
-115 -65 -22 c-36 -12 -121 -33 -190 -48 -129 -27 -156 -39 -130 -55 33 -21
276 -10 363 16 15 5 17 -2 17 -48 0 -66 -16 -174 -36 -253 -22 -88 -56 -157
-99 -198 -35 -34 -37 -39 -31 -78 8 -51 26 -87 60 -119 35 -32 47 -25 117 78
31 45 89 118 130 164 143 158 208 243 195 255 -6 7 -94 -44 -175 -101 -36 -25
-66 -44 -68 -42 -4 4 27 359 32 364 1 1 44 14 95 28 102 27 175 56 202 81 28
25 22 50 -13 62 -56 19 -108 13 -189 -24 -102 -46 -104 -46 -96 13 3 26 9 81
12 123 l7 76 -36 25 -35 24 114 22 c148 28 228 59 232 90 3 18 -4 26 -35 38
-54 23 -126 14 -275 -35 -122 -39 -312 -80 -323 -69 -3 3 31 54 76 113 44 60
97 132 117 162 29 45 39 52 56 46 72 -24 413 20 489 64 42 25 44 39 6 62 -59
36 -124 37 -225 2 -106 -36 -254 -74 -261 -67 -7 7 119 217 201 335 60 87 63
95 53 124 -16 47 -87 112 -142 130 -57 20 -71 21 -80 6z"/>
<path d="M2342 2380 c-46 -11 -132 -33 -190 -49 -59 -17 -174 -47 -255 -66
l-148 -36 -65 21 c-75 23 -120 26 -127 8 -2 -7 4 -35 14 -61 45 -115 2 -457
-101 -807 -70 -237 -197 -516 -334 -733 -37 -60 -66 -111 -63 -114 17 -16 110
64 190 162 217 268 379 721 458 1284 l22 158 186 32 c420 74 715 132 728 142
24 21 15 49 -22 65 -48 20 -191 17 -293 -6z"/>
<path d="M2146 2191 c-3 -5 3 -44 14 -86 11 -43 20 -99 20 -125 l0 -46 -85
-21 c-46 -11 -86 -18 -88 -16 -3 2 0 25 6 51 19 92 17 101 -37 138 -46 32
-116 47 -116 25 0 -5 11 -33 25 -62 30 -67 44 -167 24 -179 -7 -5 -45 -12 -85
-15 -91 -9 -105 -17 -70 -40 21 -14 41 -17 96 -13 l70 5 0 -113 c0 -63 -1
-114 -2 -115 -2 0 -48 -8 -103 -17 -55 -9 -99 -21 -99 -27 2 -14 71 -33 124
-34 25 -1 90 10 145 23 55 13 116 26 135 28 56 5 63 -22 70 -252 5 -160 9
-202 24 -233 42 -86 97 -103 297 -89 150 10 232 32 245 65 3 8 -2 54 -11 102
-9 48 -14 102 -11 119 7 38 -5 64 -21 44 -6 -7 -19 -33 -29 -58 -42 -109 -103
-149 -239 -158 -122 -7 -159 15 -179 109 -3 14 0 33 7 41 6 8 89 50 182 92
231 104 271 127 267 151 -6 31 -42 64 -81 75 -62 17 -76 13 -90 -25 -16 -45
-99 -118 -200 -177 -78 -46 -81 -47 -81 -24 0 13 9 54 21 91 11 37 18 73 15
81 -3 8 -26 24 -52 35 -25 12 -44 22 -42 24 2 2 37 13 77 24 66 18 77 19 91 6
9 -8 22 -15 28 -15 22 0 94 74 148 151 45 64 99 121 162 171 22 17 -8 49 -84
90 -102 56 -117 56 -239 13 -58 -21 -109 -35 -112 -31 -4 4 3 38 16 76 20 59
22 72 11 85 -30 36 -151 77 -164 56z m314 -315 c0 -48 -18 -99 -56 -156 -20
-30 -35 -40 -72 -49 -26 -7 -55 -14 -66 -18 -18 -5 -18 0 -12 98 10 147 10
145 64 157 26 5 68 10 95 11 l47 1 0 -44z m-282 -121 c-3 -58 -7 -108 -10
-111 -7 -6 -146 -44 -163 -44 -12 0 -8 210 4 223 7 7 125 34 160 36 11 1 13
-19 9 -104z"/>
<path d="M1708 1454 c-4 -3 5 -31 18 -61 14 -31 30 -90 36 -133 14 -98 -4
-158 -68 -229 -24 -27 -44 -54 -44 -60 0 -21 32 -75 54 -93 32 -26 50 -22 108
25 30 23 93 69 142 102 49 33 107 77 130 98 l41 38 -30 -6 c-16 -3 -79 -26
-140 -50 -60 -24 -111 -42 -112 -41 -2 2 2 48 8 103 l11 100 98 11 c111 13
150 25 150 46 0 22 -37 39 -74 33 -17 -2 -61 -13 -98 -23 -37 -10 -70 -16 -73
-12 -3 3 1 23 9 43 9 21 16 43 16 50 0 28 -161 80 -182 59z"/>
<path d="M2607 863 c-13 -12 -7 -23 70 -115 162 -197 203 -238 234 -238 16 0
38 9 50 21 18 18 20 29 16 64 -12 82 -34 111 -134 176 -135 87 -212 117 -236
92z"/>
<path d="M1563 832 c-17 -11 -131 -246 -144 -296 -6 -25 -8 -57 -5 -71 19 -77
165 40 197 159 11 40 7 154 -6 188 -8 19 -28 29 -42 20z"/>
<path d="M2222 822 c-19 -13 -3 -47 79 -173 77 -118 97 -131 139 -89 26 26 29
130 4 154 -40 41 -169 115 -199 116 -5 0 -16 -4 -23 -8z"/>
<path d="M1875 760 c-10 -16 66 -166 110 -217 20 -24 45 -43 54 -43 29 0 53
36 59 85 4 43 2 48 -37 85 -71 68 -170 116 -186 90z"/>
</g>
</svg>
