<?xml version="1.0" standalone="no"?>
<!DOCTYPE svg PUBLIC "-//W3C//DTD SVG 20010904//EN"
 "http://www.w3.org/TR/2001/REC-SVG-20010904/DTD/svg10.dtd">
<svg version="1.0" xmlns="http://www.w3.org/2000/svg"
 width="340.000000pt" height="340.000000pt" viewBox="0 0 340.000000 340.000000"
 preserveAspectRatio="xMidYMid meet">
<metadata>
Created by potrace 1.15, written by Peter Selinger 2001-2017
</metadata>
<g transform="translate(0.000000,340.000000) scale(0.100000,-0.100000)"
fill="#000000" stroke="none">
<path d="M1950 2775 c0 -31 137 -172 194 -199 37 -18 38 -18 62 5 40 38 28
104 -29 158 -28 25 -141 61 -194 61 -29 0 -33 -3 -33 -25z"/>
<path d="M995 2683 c-6 -4 -11 -46 -11 -93 -1 -93 -29 -186 -121 -400 -85
-199 -248 -482 -367 -638 -31 -41 -56 -78 -56 -83 0 -5 10 -9 22 -9 24 0 169
142 262 257 51 65 60 71 78 62 12 -6 55 -9 100 -7 l79 3 14 -49 c9 -28 15 -90
15 -142 l0 -93 -42 -11 c-93 -25 -255 -71 -280 -82 -37 -14 -35 -34 3 -42 56
-11 182 -6 239 9 30 8 58 15 63 15 13 0 7 -195 -8 -286 -18 -99 -47 -169 -94
-228 -38 -48 -41 -101 -8 -166 17 -34 28 -46 49 -48 23 -3 34 6 72 55 40 51
145 145 375 334 36 29 59 55 53 57 -18 6 -106 -26 -221 -80 -57 -26 -105 -48
-107 -48 -7 0 -4 293 2 373 7 75 7 76 38 83 56 11 220 66 259 85 27 15 37 26
37 44 0 51 -65 51 -239 1 l-84 -24 6 61 c3 34 9 87 13 118 6 50 4 59 -15 78
l-21 21 25 10 c15 6 31 10 37 10 11 0 174 53 221 72 35 14 33 47 -3 65 -46 23
-104 15 -232 -33 -107 -40 -300 -94 -335 -94 -6 0 13 40 43 89 29 49 72 127
95 174 l42 84 97 7 c112 7 272 45 333 78 77 43 55 88 -42 88 -31 -1 -78 -9
-106 -19 -27 -10 -89 -33 -138 -51 -48 -18 -90 -30 -93 -27 -8 8 35 83 96 168
26 36 55 80 64 97 l16 32 -42 46 c-23 25 -54 52 -69 59 -34 18 -101 28 -114
18z"/>
<path d="M2280 2550 c-96 -22 -287 -60 -425 -85 -265 -48 -305 -59 -287 -77
14 -14 118 -38 169 -38 23 0 141 20 261 45 253 52 381 71 542 81 126 7 150 15
150 45 0 14 -15 27 -52 44 -74 35 -146 31 -358 -15z"/>
<path d="M2397 2336 c-34 -26 -177 -58 -237 -54 -30 3 -70 1 -88 -4 l-33 -9
35 -39 c39 -43 66 -91 96 -174 22 -57 41 -73 62 -53 14 14 173 47 224 47 16 0
38 6 48 13 16 11 17 17 7 36 -17 31 -6 56 55 122 30 32 54 61 54 64 0 3 -28
19 -62 35 -68 32 -131 38 -161 16z m13 -111 c0 -20 -6 -50 -14 -68 -12 -29
-20 -35 -72 -46 -33 -8 -64 -15 -70 -18 -6 -2 -18 22 -27 54 -8 32 -18 65 -22
74 -5 13 5 18 57 26 35 6 82 11 106 12 42 1 42 1 42 -34z"/>
<path d="M1846 2253 c-56 -29 -175 -53 -236 -46 -32 3 -66 3 -76 -1 -15 -6
-13 -12 18 -44 46 -48 64 -85 88 -179 24 -96 34 -107 64 -70 19 23 39 33 102
47 44 10 100 21 127 25 53 7 62 28 27 60 -11 10 -20 21 -20 25 0 4 18 35 41
69 22 33 38 65 34 71 -10 15 -58 38 -102 48 -29 7 -47 5 -67 -5z m21 -79 c3
-8 -1 -46 -8 -82 l-14 -67 -72 -11 -73 -11 -10 36 c-6 20 -13 53 -16 73 -6 36
-5 37 32 47 22 5 55 14 74 19 53 15 80 14 87 -4z"/>
<path d="M2101 1961 c-12 -8 -11 -17 8 -61 12 -29 20 -54 17 -57 -7 -7 -196
-52 -220 -53 -15 0 -17 5 -12 34 6 29 3 37 -16 50 -25 18 -128 22 -128 6 0 -6
9 -28 20 -50 11 -22 20 -46 20 -53 0 -10 -35 -21 -122 -39 -89 -17 -123 -28
-123 -38 0 -21 76 -32 173 -25 l82 7 0 -69 0 -69 -86 -16 c-48 -9 -94 -23
-102 -32 -14 -14 -13 -16 12 -26 15 -5 61 -10 103 -10 l75 0 -7 -72 c-4 -40
-8 -74 -9 -75 -5 -6 -271 -54 -327 -59 -74 -7 -87 -20 -47 -48 36 -25 83 -29
135 -12 45 14 208 46 240 46 22 0 -39 -84 -131 -178 -94 -97 -230 -204 -372
-292 -119 -75 -138 -90 -125 -103 11 -11 121 23 196 61 28 14 82 46 120 72 78
53 255 206 255 221 0 5 5 9 11 9 9 0 10 -29 5 -107 -9 -140 -27 -217 -72 -304
-41 -79 -41 -107 1 -171 46 -69 58 -65 197 74 67 68 162 160 211 204 75 70
106 114 79 114 -4 0 -84 -42 -177 -94 -93 -52 -171 -93 -173 -91 -2 1 6 74 18
161 21 159 20 211 -5 250 -13 20 -10 25 40 73 30 28 57 51 61 51 3 0 121 -112
261 -250 139 -137 270 -262 289 -277 31 -23 48 -27 118 -31 90 -5 212 9 320
36 115 28 100 43 -91 91 -132 33 -232 67 -341 117 -85 39 -232 124 -232 135 0
14 122 99 185 129 69 33 71 38 34 91 -20 29 -91 64 -112 56 -8 -3 -22 -28 -31
-55 -9 -28 -37 -82 -62 -121 -53 -82 -29 -89 -192 53 -56 48 -102 91 -102 95
0 8 79 21 307 51 207 27 323 48 340 61 17 15 17 43 -1 58 -28 23 -102 21 -266
-8 -91 -15 -166 -27 -168 -26 -2 2 2 39 8 83 l12 80 42 10 c22 6 61 13 86 17
25 4 53 12 63 17 26 13 18 49 -15 68 -26 14 -33 13 -94 -8 -36 -13 -67 -22
-69 -20 -2 2 -1 35 2 74 l6 72 115 28 c107 27 172 54 172 71 -1 44 -74 46
-195 5 l-86 -29 6 38 c6 36 6 37 -41 53 -54 18 -73 20 -93 7z m33 -270 c-6
-72 -9 -82 -28 -86 -106 -24 -208 -45 -220 -45 -10 0 -12 15 -8 73 2 39 6 74
8 76 4 5 248 69 252 66 1 -1 0 -39 -4 -84z m-18 -183 c-3 -13 -6 -46 -6 -75
l0 -51 -110 -26 c-61 -14 -117 -26 -125 -26 -11 0 -13 14 -8 73 3 39 7 74 9
76 6 7 188 49 218 50 25 1 28 -2 22 -21z"/>
</g>
</svg>
