<?xml version="1.0" standalone="no"?>
<!DOCTYPE svg PUBLIC "-//W3C//DTD SVG 20010904//EN"
 "http://www.w3.org/TR/2001/REC-SVG-20010904/DTD/svg10.dtd">
<svg version="1.0" xmlns="http://www.w3.org/2000/svg"
 width="340.000000pt" height="340.000000pt" viewBox="0 0 340.000000 340.000000"
 preserveAspectRatio="xMidYMid meet">
<metadata>
Created by potrace 1.15, written by Peter Selinger 2001-2017
</metadata>
<g transform="translate(0.000000,340.000000) scale(0.100000,-0.100000)"
fill="#000000" stroke="none">
<path d="M950 2579 c61 -120 184 -262 263 -304 l37 -20 22 22 c32 33 36 112 8
185 -18 48 -29 62 -65 83 -64 38 -148 65 -222 72 l-65 6 22 -44z"/>
<path d="M2263 2599 c-100 -46 -300 -87 -581 -119 -95 -10 -177 -22 -183 -25
-17 -11 17 -41 74 -66 71 -31 161 -28 367 11 91 17 208 34 260 37 109 6 121 1
140 -65 51 -178 94 -811 89 -1290 -4 -267 -5 -284 -23 -298 -29 -21 -132 -17
-276 12 -34 6 -33 5 49 -79 46 -46 122 -133 170 -193 54 -69 96 -112 114 -119
26 -9 32 -6 62 26 111 122 130 436 69 1134 -8 94 -17 265 -21 380 -7 249 4
353 48 446 l30 62 -43 44 c-48 49 -118 87 -199 108 -69 19 -94 18 -146 -6z"/>
<path d="M720 2251 c0 -5 11 -43 25 -85 54 -166 59 -227 60 -671 0 -442 -6
-513 -52 -660 -24 -74 -25 -85 -15 -147 13 -77 44 -162 71 -198 l20 -25 25 24
c14 13 32 45 40 70 35 106 40 189 40 751 1 305 5 614 9 685 l9 130 -39 49
c-21 27 -54 57 -73 68 -35 18 -120 25 -120 9z"/>
<path d="M1848 1949 c-95 -55 -176 -80 -350 -109 -108 -17 -127 -17 -233 10
-49 12 -56 12 -73 1 -11 -7 -9 -18 12 -59 37 -72 71 -199 97 -353 32 -194 68
-280 113 -263 9 3 22 27 30 53 l13 46 139 12 c170 15 312 38 360 58 31 13 35
18 32 47 -2 24 -11 38 -35 53 -19 12 -30 26 -27 34 16 47 109 184 167 247 74
82 74 85 20 135 -35 33 -78 55 -164 84 -67 23 -68 23 -101 4z m-12 -174 c12
-63 -10 -188 -48 -277 -14 -34 -29 -51 -55 -63 -43 -21 -204 -55 -258 -55
l-41 0 -21 178 c-11 97 -20 178 -19 179 7 8 349 72 388 72 46 1 47 0 54 -34z"/>
</g>
</svg>
