<?xml version="1.0" standalone="no"?>
<!DOCTYPE svg PUBLIC "-//W3C//DTD SVG 20010904//EN"
 "http://www.w3.org/TR/2001/REC-SVG-20010904/DTD/svg10.dtd">
<svg version="1.0" xmlns="http://www.w3.org/2000/svg"
 width="340.000000pt" height="340.000000pt" viewBox="0 0 340.000000 340.000000"
 preserveAspectRatio="xMidYMid meet">
<metadata>
Created by potrace 1.15, written by Peter Selinger 2001-2017
</metadata>
<g transform="translate(0.000000,340.000000) scale(0.100000,-0.100000)"
fill="#000000" stroke="none">
<path d="M1000 2645 c0 -18 77 -147 130 -220 50 -68 105 -115 135 -115 54 0
83 107 51 183 -7 18 -33 50 -56 70 -80 68 -260 125 -260 82z"/>
<path d="M2295 2651 c-21 -35 -237 -84 -463 -106 -292 -29 -287 -28 -290 -51
-4 -30 56 -57 139 -62 74 -5 285 19 428 48 167 33 193 34 224 10 37 -30 54
-97 66 -275 35 -490 41 -1344 10 -1430 -18 -50 -43 -54 -157 -26 -82 21 -142
27 -142 14 0 -5 34 -48 76 -98 41 -49 107 -136 145 -192 39 -57 76 -103 83
-103 59 0 142 133 183 290 20 80 21 96 13 260 -33 640 -42 855 -43 1090 -2
282 0 300 50 413 l26 58 -30 37 c-41 51 -96 87 -171 111 -66 22 -137 28 -147
12z"/>
<path d="M740 2347 c0 -12 9 -49 19 -82 51 -161 67 -382 52 -680 -14 -263 -34
-438 -72 -630 -35 -179 -35 -197 -8 -278 25 -75 58 -127 81 -127 69 0 91 212
118 1145 6 224 15 361 26 428 l17 98 -29 30 c-37 39 -109 85 -162 103 -41 15
-42 15 -42 -7z"/>
<path d="M1518 2284 c-23 -7 -23 -9 8 -101 19 -55 28 -108 32 -180 6 -118 22
-102 -133 -128 -49 -8 -140 -15 -202 -15 -61 0 -114 -4 -118 -9 -3 -6 12 -37
34 -71 40 -62 88 -181 116 -291 21 -82 31 -99 56 -99 15 0 25 11 36 39 l15 39
82 6 c44 4 89 9 99 12 16 5 17 -6 17 -130 l0 -135 -37 -11 c-79 -22 -232 -49
-338 -61 -60 -6 -111 -12 -113 -14 -7 -7 28 -62 57 -89 16 -16 53 -37 81 -46
l52 -17 151 62 c162 66 482 182 527 191 26 6 30 1 78 -88 58 -107 85 -137 110
-122 37 24 56 64 56 117 -1 97 -17 131 -92 191 -100 80 -152 101 -191 77 -11
-7 -8 -18 14 -55 15 -26 24 -50 20 -54 -3 -4 -65 -19 -136 -33 l-129 -26 0
133 0 132 38 6 c20 3 93 13 162 21 178 23 207 39 163 87 -16 18 -16 21 2 56
11 20 52 70 93 109 72 72 73 73 58 101 -17 32 -70 70 -134 95 -41 16 -48 16
-140 -3 -53 -11 -128 -29 -166 -40 l-69 -19 6 67 c4 37 16 100 27 141 24 84
23 85 -48 124 -48 26 -112 40 -144 31z m422 -409 c10 -12 8 -29 -10 -86 -12
-39 -32 -95 -44 -124 l-24 -52 -78 -12 c-44 -7 -87 -15 -96 -17 -16 -5 -18 5
-18 108 0 158 -2 154 84 172 136 29 169 31 186 11z m-380 -184 l0 -129 -27 -6
c-77 -15 -185 -27 -191 -21 -5 5 -41 251 -37 256 2 3 180 27 213 28 l42 1 0
-129z"/>
</g>
</svg>
