<?xml version="1.0" standalone="no"?>
<!DOCTYPE svg PUBLIC "-//W3C//DTD SVG 20010904//EN"
 "http://www.w3.org/TR/2001/REC-SVG-20010904/DTD/svg10.dtd">
<svg version="1.0" xmlns="http://www.w3.org/2000/svg"
 width="340.000000pt" height="340.000000pt" viewBox="0 0 340.000000 340.000000"
 preserveAspectRatio="xMidYMid meet">
<metadata>
Created by potrace 1.15, written by Peter Selinger 2001-2017
</metadata>
<g transform="translate(0.000000,340.000000) scale(0.100000,-0.100000)"
fill="#000000" stroke="none">
<path d="M2204 2826 c-4 -10 3 -57 14 -104 35 -144 43 -209 49 -397 l5 -180
-153 -32 c-85 -18 -164 -36 -176 -39 -22 -6 -23 -4 -23 62 1 38 7 105 15 149
8 44 15 101 15 127 l0 47 -71 35 c-74 37 -154 48 -189 26 -13 -8 -13 -13 3
-37 54 -84 79 -186 81 -332 l1 -115 -74 -13 c-82 -16 -134 -38 -128 -56 5 -17
43 -25 130 -26 l77 -1 0 -170 0 -169 -37 -6 c-21 -3 -81 -15 -133 -26 -53 -10
-108 -19 -122 -19 -65 0 -33 -50 45 -71 40 -11 86 -7 204 17 l31 6 -5 -43
c-25 -224 -98 -426 -213 -593 -27 -39 -97 -120 -155 -178 -113 -115 -133 -150
-69 -123 157 65 347 251 448 435 19 36 46 101 61 145 25 78 62 262 67 340 l3
40 170 37 c94 20 176 37 184 37 20 1 9 -688 -14 -883 -13 -113 -14 -149 -4
-190 15 -65 61 -167 83 -185 15 -13 19 -12 36 5 52 53 67 229 47 554 -22 347
-29 552 -21 646 l7 81 106 12 c58 7 183 15 276 18 184 6 215 14 215 57 0 33
-56 79 -115 96 -50 14 -123 5 -392 -49 l-93 -18 0 154 c0 84 1 153 3 153 39 0
246 47 285 65 68 31 69 54 5 95 -59 37 -96 38 -203 4 -44 -15 -84 -24 -87 -20
-10 10 15 207 37 293 11 42 31 101 45 131 14 30 25 62 25 72 0 19 -96 94 -157
121 -22 11 -62 22 -87 25 -38 6 -47 4 -52 -10z m64 -963 l-3 -167 -155 -28
c-85 -15 -165 -30 -177 -33 -23 -5 -23 -4 -22 92 1 54 4 129 8 168 l6 70 165
32 c91 17 168 32 173 32 4 1 6 -74 5 -166z"/>
<path d="M1242 2537 c-55 -56 -148 -111 -235 -139 -61 -20 -73 -21 -137 -10
-116 20 -180 15 -180 -14 0 -8 15 -37 34 -64 74 -107 90 -207 89 -536 -2 -386
-26 -640 -84 -872 -33 -136 -32 -170 13 -289 25 -67 42 -82 68 -58 20 18 61
133 79 220 29 147 51 636 51 1156 l0 376 87 17 c48 9 119 30 158 47 69 29 100
36 93 22 -1 -5 -20 -42 -40 -83 -70 -143 -83 -253 -51 -431 10 -52 17 -114 18
-139 l0 -45 -40 -2 c-131 -8 -186 -16 -183 -25 2 -6 49 -26 103 -45 64 -22
130 -54 182 -89 44 -30 88 -54 97 -54 25 0 39 48 32 110 -6 51 -47 178 -111
345 -18 47 -25 82 -22 105 14 102 96 232 185 293 25 18 63 47 84 65 33 30 36
37 27 55 -34 66 -116 111 -222 123 -51 6 -53 5 -95 -39z"/>
</g>
</svg>
