<?xml version="1.0" standalone="no"?>
<!DOCTYPE svg PUBLIC "-//W3C//DTD SVG 20010904//EN"
 "http://www.w3.org/TR/2001/REC-SVG-20010904/DTD/svg10.dtd">
<svg version="1.0" xmlns="http://www.w3.org/2000/svg"
 width="340.000000pt" height="340.000000pt" viewBox="0 0 340.000000 340.000000"
 preserveAspectRatio="xMidYMid meet">
<metadata>
Created by potrace 1.15, written by Peter Selinger 2001-2017
</metadata>
<g transform="translate(0.000000,340.000000) scale(0.100000,-0.100000)"
fill="#000000" stroke="none">
<path d="M1223 2556 c-74 -51 -143 -83 -234 -110 -74 -21 -85 -22 -110 -9 -40
20 -135 29 -153 14 -11 -10 -10 -20 10 -69 41 -103 53 -211 60 -545 10 -486
-15 -885 -67 -1078 -34 -127 -17 -262 42 -331 23 -27 31 -31 46 -22 74 44 102
433 103 1434 l0 465 128 52 c157 64 172 69 172 51 0 -8 -18 -67 -40 -131 -53
-158 -72 -234 -64 -260 3 -12 26 -73 51 -135 33 -84 43 -124 41 -155 l-3 -42
-75 -3 c-84 -2 -120 -9 -120 -21 0 -4 22 -22 48 -39 26 -17 90 -69 141 -117
52 -48 101 -85 109 -83 9 2 27 18 39 37 18 27 23 48 23 101 0 88 -18 147 -101
321 -43 91 -69 159 -69 180 0 50 63 139 196 278 63 66 114 125 114 131 0 16
-78 68 -134 88 -94 35 -100 35 -153 -2z"/>
<path d="M2270 2420 c-64 -33 -192 -72 -328 -99 -94 -19 -96 -19 -174 1 -105
26 -123 23 -122 -22 1 -19 14 -66 29 -105 28 -69 28 -74 36 -365 4 -162 8
-442 8 -622 l1 -326 -37 -6 c-39 -6 -310 -30 -464 -41 -94 -7 -115 -15 -106
-39 10 -25 126 -76 171 -76 21 0 109 13 195 30 179 34 334 55 506 70 165 14
594 13 803 -2 191 -13 205 -11 210 39 3 25 -5 37 -42 70 -25 22 -62 45 -84 51
-54 16 -177 15 -296 -3 -55 -8 -100 -14 -101 -13 -4 5 14 410 25 548 5 74 14
223 20 330 11 222 32 325 81 401 29 45 29 49 15 76 -20 40 -81 80 -166 109
-89 30 -111 29 -180 -6z m47 -150 c29 -62 36 -210 28 -665 -4 -247 -10 -499
-14 -560 l-6 -110 -175 -12 c-96 -6 -205 -14 -242 -17 l-68 -5 0 199 c0 181 2
199 18 204 17 5 102 21 271 51 77 13 121 34 121 57 0 13 -80 48 -110 48 -14 0
-71 -13 -127 -29 -56 -17 -117 -33 -137 -37 l-36 -6 0 184 0 185 83 6 c164 13
327 51 327 77 0 16 -29 38 -66 50 -42 14 -87 9 -199 -25 -44 -13 -92 -26 -107
-29 l-28 -6 0 194 0 194 82 22 c136 37 260 59 318 57 48 -2 56 -5 67 -27z"/>
</g>
</svg>
