<?xml version="1.0" standalone="no"?>
<!DOCTYPE svg PUBLIC "-//W3C//DTD SVG 20010904//EN"
 "http://www.w3.org/TR/2001/REC-SVG-20010904/DTD/svg10.dtd">
<svg version="1.0" xmlns="http://www.w3.org/2000/svg"
 width="340.000000pt" height="340.000000pt" viewBox="0 0 340.000000 340.000000"
 preserveAspectRatio="xMidYMid meet">
<metadata>
Created by potrace 1.15, written by Peter Selinger 2001-2017
</metadata>
<g transform="translate(0.000000,340.000000) scale(0.100000,-0.100000)"
fill="#000000" stroke="none">
<path d="M1193 2536 c-68 -52 -142 -87 -221 -106 -44 -10 -65 -10 -136 5 -67
13 -93 14 -125 5 -48 -13 -52 -29 -18 -80 74 -111 82 -180 82 -740 0 -407 -3
-491 -18 -587 -10 -62 -25 -131 -33 -155 -30 -82 9 -291 62 -337 l28 -23 17
21 c55 67 79 451 79 1259 l0 542 28 11 c62 24 191 57 233 61 39 3 44 1 47 -19
2 -12 -18 -87 -44 -165 -54 -164 -59 -219 -24 -313 32 -88 40 -125 30 -151 -9
-23 -11 -23 -104 -17 -140 9 -145 2 -45 -61 46 -29 126 -80 178 -114 51 -34
105 -65 118 -68 39 -10 58 17 56 77 -1 42 -15 78 -79 204 -128 254 -121 289
117 570 28 33 57 73 66 89 14 28 14 30 -14 57 -29 30 -111 64 -180 75 -35 5
-44 1 -100 -40z"/>
<path d="M2550 2424 c-14 -3 -83 -21 -155 -39 -237 -63 -453 -100 -750 -130
-88 -9 -165 -21 -172 -26 -20 -18 -4 -36 56 -63 70 -31 116 -33 219 -7 43 11
96 22 120 26 l42 7 0 -49 c0 -59 -29 -165 -78 -292 -33 -84 -41 -95 -72 -109
-31 -13 -42 -12 -102 2 -71 17 -118 13 -118 -10 0 -7 9 -36 20 -63 43 -110 54
-202 54 -461 1 -135 -1 -270 -3 -300 -5 -66 19 -158 52 -196 20 -23 26 -25 44
-16 25 14 43 61 43 114 0 22 5 40 13 43 6 2 84 9 172 15 88 5 186 13 217 16
l57 6 39 -84 c22 -45 48 -114 57 -152 20 -83 34 -116 50 -116 25 0 80 47 107
90 59 96 70 172 78 535 8 342 9 348 54 479 l27 78 -28 30 c-31 32 -144 90
-211 108 -39 10 -55 7 -180 -29 -127 -38 -310 -76 -319 -67 -2 2 48 74 111
161 64 86 116 161 116 167 0 16 -21 52 -48 80 l-25 27 24 5 c74 16 214 27 459
37 307 12 344 19 338 66 -4 33 -71 87 -126 103 -46 12 -148 20 -182 14z m-220
-694 c36 -19 40 -63 40 -409 0 -298 -6 -400 -23 -418 -3 -3 -25 15 -49 40 -71
74 -150 84 -353 43 -66 -13 -137 -27 -157 -31 l-38 -6 0 94 c0 52 -3 128 -6
169 l-7 76 204 4 c183 3 209 6 252 25 54 25 62 53 23 78 -47 31 -111 29 -278
-9 -86 -20 -165 -36 -176 -36 -18 0 -19 11 -26 152 -4 83 -3 155 1 158 4 4 98
22 208 39 110 18 207 34 215 36 37 7 153 4 170 -5z"/>
</g>
</svg>
