<?xml version="1.0" standalone="no"?>
<!DOCTYPE svg PUBLIC "-//W3C//DTD SVG 20010904//EN"
 "http://www.w3.org/TR/2001/REC-SVG-20010904/DTD/svg10.dtd">
<svg version="1.0" xmlns="http://www.w3.org/2000/svg"
 width="340.000000pt" height="340.000000pt" viewBox="0 0 340.000000 340.000000"
 preserveAspectRatio="xMidYMid meet">
<metadata>
Created by potrace 1.15, written by Peter Selinger 2001-2017
</metadata>
<g transform="translate(0.000000,340.000000) scale(0.100000,-0.100000)"
fill="#000000" stroke="none">
<path d="M1834 2757 c-3 -9 0 -33 6 -52 19 -59 13 -145 -16 -226 -39 -109
-106 -238 -164 -313 -45 -61 -65 -116 -41 -116 14 0 102 72 142 117 36 39 37
40 65 24 41 -22 192 -18 333 8 63 11 147 21 187 21 63 0 76 -3 103 -25 66 -57
81 -165 80 -615 0 -473 -21 -656 -93 -785 -43 -79 -59 -81 -187 -19 -54 26
-102 44 -105 41 -4 -4 16 -44 44 -89 28 -46 70 -124 93 -173 68 -144 92 -160
165 -106 69 50 113 112 152 211 63 162 73 265 82 820 8 524 10 543 67 657 l25
51 -20 30 c-31 43 -81 77 -178 124 l-86 41 -76 -23 c-197 -59 -242 -72 -331
-90 -53 -10 -134 -22 -181 -26 l-84 -7 37 49 c20 27 69 96 108 154 40 58 89
124 110 147 22 24 39 51 39 62 0 41 -124 111 -212 118 -47 5 -59 3 -64 -10z"/>
<path d="M1164 2502 c-69 -63 -220 -127 -299 -126 -22 0 -63 4 -92 9 -59 9
-98 2 -107 -20 -3 -8 10 -47 29 -88 58 -121 66 -184 72 -537 5 -334 -7 -610
-32 -720 -49 -218 -49 -225 -31 -293 23 -83 56 -142 81 -142 16 0 25 15 43 70
55 162 68 461 55 1189 l-8 438 21 8 c33 13 256 61 260 57 3 -2 -12 -53 -32
-113 -52 -153 -55 -218 -16 -364 17 -63 33 -134 37 -157 l7 -43 -34 0 c-18 1
-53 5 -78 10 -78 15 -79 -1 -4 -60 37 -29 93 -77 125 -106 43 -40 63 -51 79
-47 36 10 53 47 47 103 -6 47 -18 84 -103 320 -25 68 -34 106 -30 133 7 63 65
145 190 271 l120 119 -35 30 c-42 36 -145 86 -190 93 -29 4 -41 -2 -75 -34z"/>
<path d="M1547 1966 c-7 -65 -45 -145 -116 -243 -28 -38 -51 -75 -51 -81 0
-18 44 2 115 52 47 32 78 46 125 55 35 6 66 9 68 6 2 -2 11 -30 18 -62 18 -75
19 -183 2 -183 -50 -1 -341 -49 -351 -59 -8 -8 -7 -15 6 -29 31 -30 260 -27
342 4 13 5 15 -14 15 -139 l0 -144 -112 -22 c-62 -12 -123 -25 -135 -28 -22
-5 -23 -2 -23 46 0 58 -23 112 -65 151 -22 21 -28 22 -35 10 -5 -8 -10 -36
-10 -62 0 -61 -14 -95 -56 -139 l-35 -36 21 -55 c19 -52 52 -98 69 -98 4 0 50
22 102 49 52 27 144 66 204 86 126 42 415 116 425 110 4 -3 11 -22 15 -42 11
-62 44 -122 71 -129 68 -17 121 132 81 228 -31 75 -154 179 -193 164 -18 -7
-18 -53 1 -107 19 -52 19 -53 -95 -73 -135 -25 -124 -37 -115 117 4 72 8 134
10 135 2 2 54 10 117 18 237 31 350 67 356 112 7 49 -69 47 -326 -7 -78 -17
-148 -31 -154 -31 -8 0 -9 22 -3 73 10 99 9 106 -15 133 l-22 22 48 7 c216 27
329 60 329 95 0 23 -45 40 -105 40 -57 0 -206 -31 -347 -73 l-83 -24 41 44
c22 24 39 51 37 60 -4 19 -103 90 -139 98 -25 6 -26 5 -32 -49z"/>
</g>
</svg>
