<?xml version="1.0" standalone="no"?>
<!DOCTYPE svg PUBLIC "-//W3C//DTD SVG 20010904//EN"
 "http://www.w3.org/TR/2001/REC-SVG-20010904/DTD/svg10.dtd">
<svg version="1.0" xmlns="http://www.w3.org/2000/svg"
 width="340.000000pt" height="340.000000pt" viewBox="0 0 340.000000 340.000000"
 preserveAspectRatio="xMidYMid meet">
<metadata>
Created by potrace 1.15, written by Peter Selinger 2001-2017
</metadata>
<g transform="translate(0.000000,340.000000) scale(0.100000,-0.100000)"
fill="#000000" stroke="none">
<path d="M2035 2756 c-18 -13 -18 -18 -6 -66 8 -32 11 -71 6 -106 -9 -74 -53
-237 -67 -245 -16 -10 -162 -36 -243 -44 -38 -4 -80 -11 -95 -17 l-25 -10 23
-19 c40 -32 97 -41 209 -34 57 4 103 5 103 2 0 -12 -65 -156 -93 -207 -49 -87
-125 -199 -191 -278 -110 -132 -126 -154 -126 -173 0 -59 115 30 277 216 34
38 65 66 70 62 13 -14 16 -343 3 -477 -6 -69 -20 -168 -31 -221 -19 -96 -19
-97 1 -161 18 -60 49 -108 70 -108 30 0 52 106 59 290 l6 155 105 6 c120 7
170 22 170 50 0 43 -96 52 -202 19 -34 -11 -66 -20 -70 -20 -5 0 -8 49 -8 109
l0 109 93 4 c139 6 233 56 181 95 -25 20 -129 11 -208 -16 -33 -12 -60 -21
-61 -21 -1 0 -5 25 -9 56 -8 73 6 127 39 142 45 21 149 44 203 45 49 1 57 -2
82 -30 18 -20 31 -48 35 -75 4 -24 5 -195 3 -378 -2 -258 -6 -340 -17 -359
-13 -23 -16 -23 -88 -17 l-76 7 53 -58 c28 -32 63 -78 77 -103 32 -54 72 -100
89 -100 27 0 74 53 95 108 32 81 38 304 14 531 -21 194 -16 321 13 398 l20 53
-28 39 c-35 48 -123 93 -183 94 -26 0 -85 -15 -154 -41 -111 -41 -237 -71
-249 -60 -3 4 17 45 45 93 28 47 67 117 85 154 19 37 41 72 48 79 8 6 108 25
223 42 328 49 410 68 421 102 10 34 -18 50 -108 61 -93 12 -151 3 -362 -52
-66 -17 -121 -29 -124 -26 -10 9 60 204 89 250 16 25 29 54 29 65 0 22 -39 52
-105 80 -55 24 -84 25 -110 6z"/>
<path d="M1068 2517 c-121 -86 -230 -112 -356 -83 -100 23 -122 21 -122 -6 0
-13 12 -43 26 -68 62 -109 78 -308 64 -795 -10 -339 -24 -505 -61 -704 -31
-162 -18 -286 37 -351 50 -59 89 -30 115 87 6 29 14 342 20 783 5 404 10 784
11 845 l3 109 100 33 c115 37 175 43 175 16 0 -10 -12 -43 -26 -73 -39 -83
-94 -227 -94 -247 0 -9 23 -62 50 -118 31 -62 52 -115 53 -140 l2 -40 -40 0
c-22 0 -64 3 -92 7 -29 4 -53 4 -53 0 0 -11 239 -232 251 -232 6 0 23 13 39
28 23 23 29 41 35 93 9 86 -3 128 -72 235 -31 49 -65 105 -77 125 l-20 36 33
69 c27 55 56 92 148 182 88 87 113 117 108 132 -6 20 -94 82 -140 100 -43 17
-68 12 -117 -23z"/>
<path d="M1320 2091 c0 -34 81 -198 116 -237 17 -18 32 -24 51 -22 35 4 53 38
53 102 0 46 -3 53 -49 97 -53 51 -117 89 -151 89 -16 0 -20 -6 -20 -29z"/>
<path d="M1215 1515 c-113 -47 -142 -65 -131 -84 10 -16 57 -13 159 8 l87 18
0 -21 c0 -11 -5 -40 -10 -64 -6 -23 -11 -73 -12 -110 -2 -59 2 -76 35 -142 36
-72 67 -193 54 -206 -4 -4 -39 -1 -79 5 -69 12 -78 11 -162 -13 -48 -14 -99
-26 -113 -26 -32 0 -63 -17 -63 -35 0 -20 41 -45 90 -56 32 -7 54 -4 117 17
125 42 177 34 403 -58 743 -303 808 -328 865 -328 85 0 278 55 470 134 92 38
125 60 111 73 -4 4 -80 6 -169 5 -176 -4 -416 10 -567 33 -52 7 -117 17 -145
20 -85 11 -308 72 -501 137 -150 50 -184 65 -179 77 32 83 23 179 -25 255 -17
25 -32 57 -36 70 -9 38 14 101 62 172 l46 67 -19 25 c-34 46 -69 65 -125 69
-44 2 -71 -5 -163 -42z"/>
</g>
</svg>
