<?xml version="1.0" standalone="no"?>
<!DOCTYPE svg PUBLIC "-//W3C//DTD SVG 20010904//EN"
 "http://www.w3.org/TR/2001/REC-SVG-20010904/DTD/svg10.dtd">
<svg version="1.0" xmlns="http://www.w3.org/2000/svg"
 width="340.000000pt" height="340.000000pt" viewBox="0 0 340.000000 340.000000"
 preserveAspectRatio="xMidYMid meet">
<metadata>
Created by potrace 1.15, written by Peter Selinger 2001-2017
</metadata>
<g transform="translate(0.000000,340.000000) scale(0.100000,-0.100000)"
fill="#000000" stroke="none">
<path d="M1836 2649 c13 -118 -96 -321 -320 -594 -70 -85 -84 -115 -43 -94 70
37 225 160 299 238 l86 91 70 0 c39 0 109 9 157 21 48 11 89 18 91 16 17 -17
-81 -192 -177 -318 l-58 -77 -73 -16 c-96 -22 -261 -46 -321 -46 -27 0 -57 -5
-68 -11 -20 -10 -20 -11 -3 -30 25 -28 86 -42 132 -30 48 13 310 56 460 76
131 17 273 22 291 10 9 -5 11 -27 6 -79 -17 -174 -71 -366 -111 -392 -52 -35
-331 -87 -614 -115 -120 -12 -150 -21 -150 -43 0 -14 51 -38 105 -50 17 -4 87
2 155 14 69 11 220 31 335 45 271 32 330 43 360 67 32 25 32 40 -5 82 l-30 34
21 54 c41 105 100 204 164 277 36 41 65 79 65 85 0 24 -87 96 -153 126 -90 43
-136 48 -179 22 -47 -28 -157 -60 -236 -68 l-67 -7 45 49 c76 83 200 191 297
260 117 82 125 101 63 156 -29 26 -65 45 -111 59 l-68 21 -34 -26 c-19 -15
-61 -37 -93 -50 -62 -25 -213 -60 -222 -52 -3 3 29 45 69 93 41 49 86 103 99
121 l25 33 -25 20 c-49 38 -133 73 -186 77 l-54 5 6 -54z"/>
<path d="M1138 2515 c-112 -81 -156 -107 -203 -121 -48 -13 -60 -13 -121 1
-73 17 -130 22 -140 13 -3 -3 6 -29 20 -57 50 -98 66 -195 77 -466 19 -488
-11 -888 -77 -1033 -22 -50 -23 -59 -14 -125 11 -77 43 -154 83 -202 50 -58
78 -6 103 190 13 96 17 266 21 846 l5 727 77 30 c107 43 221 73 221 60 0 -6
-16 -50 -35 -98 -44 -112 -75 -232 -75 -289 0 -27 17 -100 41 -173 23 -70 39
-134 35 -143 -5 -14 -19 -16 -88 -14 -52 2 -83 0 -85 -7 -2 -6 22 -31 54 -54
32 -24 93 -80 135 -124 l77 -81 26 25 c71 67 53 196 -58 430 -25 52 -49 107
-52 121 -12 50 85 212 210 350 l75 83 -22 23 c-28 30 -125 77 -200 96 -56 15
-59 14 -90 -8z"/>
<path d="M2103 1689 c-35 -4 -131 -22 -214 -39 -83 -17 -196 -35 -251 -40 -55
-4 -102 -11 -105 -14 -3 -3 -3 -12 0 -20 16 -41 180 -49 403 -21 239 30 304
51 304 95 0 38 -46 51 -137 39z"/>
<path d="M2429 1152 c22 -41 217 -217 303 -272 l93 -61 23 26 c33 39 29 96
-11 170 -30 55 -39 63 -106 96 -82 42 -156 59 -248 59 -58 0 -63 -2 -54 -18z"/>
<path d="M1832 1089 c38 -67 133 -164 192 -195 54 -28 55 -28 75 -10 27 24 28
80 2 122 -41 68 -151 124 -241 124 l-51 0 23 -41z"/>
<path d="M1280 978 c-17 -51 -52 -137 -77 -192 -38 -83 -45 -105 -40 -143 14
-126 102 -103 175 45 36 76 37 79 37 199 0 107 -2 125 -21 149 -11 15 -25 29
-31 31 -6 2 -25 -38 -43 -89z"/>
<path d="M1530 984 c0 -47 52 -192 97 -274 107 -191 293 -272 623 -272 112 1
162 5 222 21 90 23 153 54 168 80 23 43 12 63 -91 160 -55 52 -123 125 -151
162 -49 66 -88 99 -73 62 22 -56 55 -215 53 -253 -3 -44 -4 -45 -53 -62 -65
-22 -215 -23 -326 -2 -172 32 -257 108 -419 374 -30 50 -50 52 -50 4z"/>
</g>
</svg>
