<?xml version="1.0" standalone="no"?>
<!DOCTYPE svg PUBLIC "-//W3C//DTD SVG 20010904//EN"
 "http://www.w3.org/TR/2001/REC-SVG-20010904/DTD/svg10.dtd">
<svg version="1.0" xmlns="http://www.w3.org/2000/svg"
 width="340.000000pt" height="340.000000pt" viewBox="0 0 340.000000 340.000000"
 preserveAspectRatio="xMidYMid meet">
<metadata>
Created by potrace 1.15, written by Peter Selinger 2001-2017
</metadata>
<g transform="translate(0.000000,340.000000) scale(0.100000,-0.100000)"
fill="#000000" stroke="none">
<path d="M1804 2945 c-18 -15 -17 -17 36 -67 139 -130 214 -164 260 -118 22
22 24 39 10 90 -16 59 -31 71 -116 91 -96 23 -163 24 -190 4z"/>
<path d="M1087 2730 c-76 -48 -137 -76 -214 -100 -63 -19 -79 -20 -123 -11
-61 13 -157 14 -164 2 -3 -5 3 -19 13 -32 31 -40 48 -81 66 -159 34 -144 30
-903 -5 -1178 -6 -42 -20 -122 -32 -176 -21 -96 -21 -102 -5 -179 18 -87 60
-185 84 -194 43 -17 69 83 83 312 5 94 10 469 10 835 l0 665 98 32 c123 41
180 51 187 31 3 -7 -22 -84 -55 -170 -33 -86 -60 -164 -60 -173 0 -9 29 -79
65 -155 36 -76 65 -150 65 -164 l0 -26 -104 0 c-58 0 -107 -4 -110 -9 -3 -5
18 -23 48 -40 30 -16 91 -64 135 -106 44 -41 85 -75 91 -75 5 0 22 19 37 42
25 37 28 51 27 117 -1 89 -16 127 -98 253 -31 48 -63 103 -72 123 -13 33 -13
39 5 80 32 72 79 133 194 252 l108 113 -20 29 c-26 36 -132 91 -176 91 -17 0
-52 -13 -78 -30z"/>
<path d="M2315 2734 c-242 -61 -604 -142 -758 -168 -51 -9 -43 -28 18 -43 35
-9 76 -10 154 -2 106 9 287 32 370 45 l43 7 -7 -44 c-8 -49 -53 -190 -84 -261
-14 -33 -27 -49 -43 -52 -36 -8 -291 -34 -542 -56 -127 -11 -234 -24 -240 -30
-6 -6 -5 -15 3 -24 16 -20 114 -56 149 -56 15 0 114 18 220 40 336 68 652 100
1005 100 213 0 247 5 247 39 0 50 -92 92 -215 98 -79 4 -115 0 -300 -40 -115
-25 -212 -43 -215 -41 -2 3 35 44 84 91 81 80 87 89 82 117 -7 34 -47 81 -89
103 -16 8 -26 18 -22 21 3 4 43 12 88 18 108 15 198 34 220 46 25 13 18 47
-15 71 -27 20 -110 31 -153 21z"/>
<path d="M1677 2433 c-32 -32 66 -183 118 -183 31 0 55 31 55 71 0 44 -5 50
-64 88 -47 29 -94 40 -109 24z"/>
<path d="M2217 2024 c-108 -40 -498 -97 -677 -98 -129 -1 -135 -2 -132 -21 2
-11 10 -27 17 -35 31 -35 66 -134 100 -289 41 -190 54 -221 91 -221 17 0 28 7
31 19 5 21 26 26 135 37 65 6 67 6 73 -17 8 -34 33 -194 31 -196 -4 -4 -647
-53 -697 -53 -31 0 -51 -6 -60 -16 -12 -14 -10 -19 14 -38 15 -12 50 -30 77
-40 49 -18 49 -18 237 18 146 28 394 66 429 66 2 0 1 -91 -2 -202 -6 -211 7
-514 26 -562 14 -38 40 -30 56 17 24 68 35 180 40 407 2 124 7 254 10 289 l6
64 386 -6 c213 -4 397 -4 410 -1 70 19 -34 108 -158 135 -38 8 -74 7 -157 -5
-60 -8 -171 -20 -248 -26 -77 -5 -162 -12 -189 -15 l-49 -4 6 61 c6 72 -4 104
-38 120 -14 6 -25 14 -25 18 0 4 47 11 104 16 l105 9 26 -32 c14 -18 35 -33
45 -33 37 0 109 119 170 284 33 86 42 99 120 165 31 26 34 32 25 57 -14 40
-80 86 -158 112 -89 29 -135 33 -180 16z m63 -120 c13 -33 -10 -144 -57 -278
-20 -55 -37 -103 -39 -105 -5 -5 -528 -59 -535 -55 -4 2 -12 34 -19 71 -6 38
-14 75 -16 84 -4 14 13 17 133 23 213 11 374 32 392 51 15 15 14 18 -7 35 -42
35 -101 35 -280 2 -92 -17 -183 -33 -203 -37 l-37 -5 -12 81 c-6 44 -10 83 -7
85 11 12 487 72 575 73 101 1 103 1 112 -25z"/>
</g>
</svg>
