<?xml version="1.0" standalone="no"?>
<!DOCTYPE svg PUBLIC "-//W3C//DTD SVG 20010904//EN"
 "http://www.w3.org/TR/2001/REC-SVG-20010904/DTD/svg10.dtd">
<svg version="1.0" xmlns="http://www.w3.org/2000/svg"
 width="340.000000pt" height="340.000000pt" viewBox="0 0 340.000000 340.000000"
 preserveAspectRatio="xMidYMid meet">
<metadata>
Created by potrace 1.15, written by Peter Selinger 2001-2017
</metadata>
<g transform="translate(0.000000,340.000000) scale(0.100000,-0.100000)"
fill="#000000" stroke="none">
<path d="M2060 2587 c-47 -13 -107 -31 -135 -40 -160 -53 -633 -153 -860 -182
-154 -20 -165 -23 -165 -39 0 -17 82 -49 169 -67 77 -15 223 -7 339 19 45 11
85 16 87 12 2 -3 7 -76 10 -161 3 -85 8 -171 10 -191 6 -43 48 -30 -365 -109
-255 -49 -286 -53 -429 -53 -106 -1 -155 -5 -158 -12 -2 -7 14 -33 37 -59 55
-64 67 -89 101 -220 53 -209 74 -487 48 -645 -10 -60 -9 -75 9 -137 38 -123
91 -174 126 -120 39 59 39 234 0 572 -31 267 -50 527 -39 531 8 2 431 86 622
123 23 5 45 6 48 3 8 -9 5 -612 -4 -662 -5 -25 -16 -84 -26 -132 l-18 -86 28
-81 c34 -98 74 -151 102 -135 55 33 64 112 70 651 l5 472 27 5 c108 22 367 52
588 67 258 18 253 25 253 -334 0 -264 -10 -408 -41 -560 -27 -137 -54 -201
-104 -254 -50 -52 -56 -52 -183 -1 -41 16 -76 27 -80 24 -8 -8 14 -52 47 -94
16 -20 50 -75 77 -122 83 -150 91 -160 122 -160 36 0 109 47 151 96 49 59 109
190 136 300 38 146 55 306 65 587 9 275 18 332 70 424 17 29 30 62 30 73 0 54
-178 166 -281 177 -43 4 -80 -1 -155 -20 -125 -33 -325 -70 -524 -97 -85 -11
-166 -23 -179 -26 -24 -5 -24 -5 -18 59 3 36 16 91 28 123 37 101 37 104 -21
167 -49 53 -50 57 -28 61 13 3 118 19 233 36 249 37 460 75 532 95 48 14 51
17 49 46 -4 59 -74 88 -231 95 -73 3 -106 0 -175 -19z"/>
<path d="M1908 1668 c-46 -12 -50 -38 -10 -66 42 -30 162 -88 221 -108 74 -24
101 -11 101 50 0 57 -33 98 -97 120 -51 18 -157 20 -215 4z"/>
<path d="M1117 1510 c-21 -4 -43 -12 -48 -17 -16 -16 42 -55 139 -97 127 -55
182 -46 168 27 -7 38 -37 70 -79 86 -31 12 -121 13 -180 1z"/>
<path d="M1856 1267 c-17 -13 -16 -15 14 -41 18 -15 92 -56 163 -92 167 -82
217 -84 217 -8 0 42 -37 95 -82 117 -72 35 -275 51 -312 24z"/>
<path d="M1054 1160 c-33 -13 -36 -25 -14 -53 25 -32 191 -118 230 -119 40 -1
60 18 60 57 0 48 -40 91 -103 110 -55 16 -139 19 -173 5z"/>
</g>
</svg>
