<?xml version="1.0" standalone="no"?>
<!DOCTYPE svg PUBLIC "-//W3C//DTD SVG 20010904//EN"
 "http://www.w3.org/TR/2001/REC-SVG-20010904/DTD/svg10.dtd">
<svg version="1.0" xmlns="http://www.w3.org/2000/svg"
 width="340.000000pt" height="340.000000pt" viewBox="0 0 340.000000 340.000000"
 preserveAspectRatio="xMidYMid meet">
<metadata>
Created by potrace 1.15, written by Peter Selinger 2001-2017
</metadata>
<g transform="translate(0.000000,340.000000) scale(0.100000,-0.100000)"
fill="#000000" stroke="none">
<path d="M1875 2924 c-61 -23 -242 -68 -434 -108 -213 -45 -240 -60 -163 -93
37 -16 197 -24 272 -13 l35 5 22 -75 c23 -80 29 -150 13 -150 -5 0 -151 -22
-323 -50 -173 -27 -322 -50 -333 -50 -13 0 -28 18 -48 56 -16 31 -40 63 -54
72 -23 15 -25 15 -38 -2 -7 -10 -22 -62 -34 -115 -12 -53 -37 -154 -57 -226
-39 -146 -40 -212 -3 -249 19 -19 22 -20 48 -6 59 33 121 171 153 338 9 50 16
63 33 67 25 5 657 95 670 95 16 0 -1 -298 -22 -380 -17 -66 -18 -80 -6 -120
17 -56 70 -113 85 -90 35 55 59 246 59 472 0 135 1 138 23 143 26 6 271 31
450 46 210 18 297 -1 297 -63 -1 -31 -31 -95 -69 -148 -31 -43 -39 -70 -22
-70 5 0 42 13 83 29 75 30 214 61 275 61 19 0 43 5 54 10 18 10 18 13 4 46
-19 46 -53 86 -119 141 -71 58 -204 133 -236 133 -14 0 -79 -11 -145 -25 -129
-27 -515 -85 -565 -85 -34 0 -34 -1 -20 36 8 21 6 36 -14 78 -14 28 -34 65
-45 82 l-21 31 66 7 c77 8 364 80 394 98 28 18 21 50 -15 67 -44 22 -200 25
-250 5z"/>
<path d="M2007 2326 c-62 -17 -67 -23 -37 -47 74 -58 244 -115 261 -88 51 81
-96 169 -224 135z"/>
<path d="M1160 2220 c-37 -26 121 -114 243 -135 35 -6 37 -5 37 22 0 45 -34
90 -77 103 -57 16 -185 23 -203 10z"/>
<path d="M1937 2057 c-16 -11 -13 -16 30 -48 75 -57 131 -81 200 -87 l63 -5 0
28 c0 42 -63 98 -129 113 -68 16 -143 15 -164 -1z"/>
<path d="M1122 1949 l-34 -10 39 -30 c72 -58 202 -109 277 -109 22 0 26 4 26
30 0 47 -49 94 -118 114 -64 18 -139 20 -190 5z"/>
<path d="M1861 1789 c-36 -7 -200 -50 -470 -122 -103 -28 -28 -63 113 -54 139
9 501 91 543 123 16 11 16 14 3 28 -9 9 -40 20 -69 26 -60 11 -59 11 -120 -1z"/>
<path d="M2275 1590 c-77 -10 -223 -32 -325 -49 -246 -40 -481 -73 -854 -120
-169 -22 -312 -43 -318 -49 -25 -25 94 -62 199 -62 40 0 170 14 289 31 118 17
218 29 221 26 11 -11 -42 -103 -87 -151 -25 -27 -69 -62 -97 -78 l-53 -30 0
-67 c0 -80 18 -115 53 -102 12 5 55 29 96 54 145 90 334 135 479 116 80 -11
87 -21 84 -131 -5 -171 -43 -287 -116 -358 l-36 -34 -103 24 c-200 46 -214 40
-119 -57 32 -32 75 -88 95 -124 20 -36 48 -76 62 -89 l25 -24 55 18 c114 36
214 184 250 371 9 50 28 124 41 165 22 71 32 89 78 154 38 54 -8 118 -128 176
l-81 39 -70 -14 c-38 -7 -97 -20 -130 -29 -83 -21 -312 -66 -338 -66 -18 0
-14 5 18 27 80 53 185 145 185 160 0 9 -10 27 -22 40 -13 14 -18 27 -12 32 5
5 58 14 118 20 293 32 433 42 689 48 306 7 324 10 294 57 -33 50 -167 98 -266
95 -20 -1 -99 -9 -176 -19z"/>
</g>
</svg>
