<?xml version="1.0" standalone="no"?>
<!DOCTYPE svg PUBLIC "-//W3C//DTD SVG 20010904//EN"
 "http://www.w3.org/TR/2001/REC-SVG-20010904/DTD/svg10.dtd">
<svg version="1.0" xmlns="http://www.w3.org/2000/svg"
 width="340.000000pt" height="340.000000pt" viewBox="0 0 340.000000 340.000000"
 preserveAspectRatio="xMidYMid meet">
<metadata>
Created by potrace 1.15, written by Peter Selinger 2001-2017
</metadata>
<g transform="translate(0.000000,340.000000) scale(0.100000,-0.100000)"
fill="#000000" stroke="none">
<path d="M1910 2688 c-25 -5 -124 -29 -220 -53 -153 -38 -321 -70 -470 -90
-25 -3 -52 -10 -60 -15 -13 -9 -12 -12 5 -25 42 -32 118 -48 245 -50 l125 -2
17 -54 c10 -32 17 -89 17 -140 l1 -86 -64 -11 c-84 -16 -544 -82 -567 -82 -11
0 -26 15 -38 38 -10 20 -29 46 -41 57 -21 19 -22 19 -36 0 -8 -10 -14 -28 -14
-39 0 -30 -39 -109 -98 -199 -87 -133 -105 -179 -100 -260 3 -57 8 -73 26 -87
30 -25 58 -15 107 36 52 53 109 159 155 289 l35 100 95 17 c107 19 478 68 515
68 l24 0 3 -337 c2 -278 6 -343 18 -368 58 -114 103 86 118 515 l7 215 115 12
c347 35 579 40 628 14 44 -23 33 -83 -32 -186 -38 -59 -43 -75 -24 -75 7 0 78
22 158 50 80 27 180 55 222 61 91 13 106 25 88 69 -25 61 -210 193 -318 227
-49 16 -56 16 -100 0 -74 -26 -410 -78 -671 -103 l-73 -7 7 34 c3 19 16 62 27
97 l20 64 -28 30 c-16 16 -41 37 -56 46 -16 9 -28 19 -28 23 0 3 39 9 87 13
138 10 302 36 378 60 81 25 92 45 51 93 -42 49 -142 66 -256 41z"/>
<path d="M1967 1960 c-48 -12 -97 -38 -97 -50 0 -16 70 -46 184 -79 113 -33
146 -33 146 0 0 31 -36 94 -65 113 -32 21 -116 29 -168 16z"/>
<path d="M1113 1873 c-27 -10 -11 -35 46 -72 33 -21 89 -51 125 -66 78 -33 96
-26 96 37 0 52 -31 82 -99 97 -53 11 -146 14 -168 4z"/>
<path d="M1900 1693 c-62 -12 -47 -39 49 -87 103 -51 208 -89 227 -82 13 5 15
15 11 48 -7 53 -35 90 -78 104 -40 14 -173 24 -209 17z"/>
<path d="M1100 1594 c-36 -15 -41 -26 -23 -47 20 -21 120 -73 195 -102 45 -17
49 -17 74 0 22 14 25 22 20 48 -7 36 -30 63 -69 83 -29 16 -172 28 -197 18z"/>
<path d="M1995 1334 c-202 -44 -518 -81 -890 -104 -93 -6 -174 -15 -180 -21
-12 -13 30 -49 87 -75 38 -17 45 -16 316 19 382 51 623 77 714 77 70 0 79 -2
90 -22 20 -36 13 -205 -15 -338 -33 -153 -62 -229 -93 -240 -69 -27 -454 -68
-883 -95 -129 -8 -237 -17 -240 -21 -8 -8 46 -50 98 -76 l43 -21 197 22 c260
28 493 48 736 61 296 15 314 18 321 46 9 35 -4 61 -46 95 l-38 31 20 71 c52
183 110 320 167 391 17 21 31 45 31 54 0 45 -190 157 -282 166 -25 3 -90 -6
-153 -20z"/>
<path d="M1595 956 c-177 -37 -363 -66 -422 -66 -83 0 -75 -47 13 -79 l56 -21
126 24 c183 35 256 45 450 60 95 7 178 18 183 23 17 17 0 52 -34 70 -60 31
-191 27 -372 -11z"/>
</g>
</svg>
