<?xml version="1.0" standalone="no"?>
<!DOCTYPE svg PUBLIC "-//W3C//DTD SVG 20010904//EN"
 "http://www.w3.org/TR/2001/REC-SVG-20010904/DTD/svg10.dtd">
<svg version="1.0" xmlns="http://www.w3.org/2000/svg"
 width="340.000000pt" height="340.000000pt" viewBox="0 0 340.000000 340.000000"
 preserveAspectRatio="xMidYMid meet">
<metadata>
Created by potrace 1.15, written by Peter Selinger 2001-2017
</metadata>
<g transform="translate(0.000000,340.000000) scale(0.100000,-0.100000)"
fill="#000000" stroke="none">
<path d="M1856 2769 c-65 -17 -202 -45 -303 -63 -101 -19 -190 -40 -198 -46
-44 -37 21 -54 161 -44 l83 7 6 -29 c4 -16 11 -42 15 -59 10 -37 22 -135 17
-135 -11 0 -575 -70 -599 -74 -25 -5 -28 -1 -48 59 -20 61 -53 115 -69 115 -4
0 -22 -39 -41 -87 -18 -49 -62 -146 -99 -218 -56 -111 -66 -138 -66 -182 0
-51 24 -101 53 -111 6 -2 31 15 56 38 47 44 112 157 141 250 10 30 21 59 25
64 7 7 473 68 600 77 l45 4 0 -245 c0 -259 9 -331 46 -350 56 -31 88 130 89
443 0 155 0 158 23 166 34 13 368 59 477 66 188 12 199 -13 86 -199 -20 -33
-34 -61 -32 -63 2 -3 22 5 45 16 74 38 219 72 334 78 l107 6 0 28 c0 57 -118
157 -268 226 -69 32 -82 35 -137 30 -33 -4 -105 -18 -160 -32 -55 -13 -170
-36 -255 -50 -85 -14 -168 -27 -184 -30 l-29 -5 6 48 c3 26 7 54 9 61 2 8 -18
30 -44 50 -26 19 -46 36 -45 38 2 1 54 7 117 13 163 16 315 45 353 67 45 27
44 62 -3 85 -53 27 -170 22 -314 -13z"/>
<path d="M1995 2233 c-142 -31 -85 -91 112 -118 79 -10 113 19 83 74 -20 38
-121 60 -195 44z"/>
<path d="M1225 2157 c-16 -7 -39 -18 -50 -24 -20 -13 -20 -13 5 -33 61 -49
213 -82 260 -58 14 8 26 22 28 32 4 21 -31 61 -70 82 -32 17 -131 17 -173 1z"/>
<path d="M1952 1965 c-29 -13 -32 -17 -22 -36 26 -47 210 -102 230 -68 12 19
-25 82 -60 102 -34 21 -103 21 -148 2z"/>
<path d="M1162 1887 c-11 -12 -6 -20 25 -45 67 -52 123 -75 187 -76 44 -1 61
3 69 16 16 25 -7 61 -56 89 -54 30 -205 41 -225 16z"/>
<path d="M2020 1770 c0 -18 -62 -79 -118 -117 -58 -38 -282 -143 -306 -143 -8
0 -20 -7 -27 -16 -13 -16 -9 -16 44 -10 32 4 102 18 155 31 53 13 98 22 100
20 6 -6 22 -131 22 -177 0 -36 -4 -48 -17 -52 -35 -9 -130 -26 -214 -37 -129
-16 -144 -37 -44 -60 46 -10 71 -9 154 4 55 10 105 17 111 17 6 0 10 -41 10
-114 0 -100 -2 -115 -17 -120 -40 -12 -205 -36 -309 -45 -61 -6 -123 -13 -138
-17 -51 -12 -26 -37 62 -59 59 -15 68 -15 209 9 204 34 301 44 573 56 273 13
299 16 307 36 8 22 -33 61 -85 81 -62 24 -149 21 -282 -9 -63 -15 -139 -29
-168 -33 l-53 -7 3 118 3 118 40 9 c22 4 98 14 169 22 70 7 133 18 138 23 15
15 -32 56 -80 70 -59 18 -99 15 -183 -15 -43 -15 -80 -25 -83 -22 -3 3 2 35
11 72 20 83 10 111 -47 135 -22 9 -40 20 -40 23 0 6 54 21 224 63 39 9 72 19
75 22 3 2 -3 20 -14 39 -12 24 -34 43 -69 59 -57 27 -116 40 -116 26z"/>
<path d="M1168 1620 c-42 -23 -153 -54 -250 -71 -79 -13 -101 -30 -66 -53 13
-8 44 -20 70 -25 39 -9 57 -7 110 10 83 26 148 35 148 20 0 -27 -73 -153 -111
-193 -61 -63 -84 -158 -39 -158 11 0 40 11 66 25 26 14 58 25 72 25 23 0 24
-3 19 -40 -3 -23 -21 -75 -41 -117 -29 -61 -39 -74 -54 -68 -136 53 -265 79
-326 65 -94 -21 -69 -50 72 -80 103 -21 212 -57 212 -69 0 -10 -75 -80 -143
-134 -67 -54 -212 -145 -292 -184 -100 -49 -56 -59 77 -17 158 49 282 121 397
230 l67 63 200 -91 c329 -150 679 -296 825 -345 l138 -47 68 13 c149 30 613
190 613 213 0 11 22 10 -375 12 -280 1 -373 5 -465 19 -264 42 -485 99 -695
182 -120 47 -245 103 -245 109 0 10 75 136 115 193 25 35 45 68 45 73 0 14
-92 90 -110 90 -9 0 -42 -5 -74 -11 -31 -5 -62 -9 -69 -6 -6 2 51 68 128 146
155 159 154 154 73 204 -60 38 -112 43 -160 17z"/>
</g>
</svg>
