<?xml version="1.0" standalone="no"?>
<!DOCTYPE svg PUBLIC "-//W3C//DTD SVG 20010904//EN"
 "http://www.w3.org/TR/2001/REC-SVG-20010904/DTD/svg10.dtd">
<svg version="1.0" xmlns="http://www.w3.org/2000/svg"
 width="340.000000pt" height="340.000000pt" viewBox="0 0 340.000000 340.000000"
 preserveAspectRatio="xMidYMid meet">
<metadata>
Created by potrace 1.15, written by Peter Selinger 2001-2017
</metadata>
<g transform="translate(0.000000,340.000000) scale(0.100000,-0.100000)"
fill="#000000" stroke="none">
<path d="M1925 2803 c-11 -3 -92 -23 -180 -45 -88 -22 -221 -53 -294 -69 -126
-27 -163 -40 -149 -55 3 -3 64 -10 136 -16 l130 -12 5 -45 c3 -25 9 -71 13
-102 8 -68 36 -57 -261 -99 -121 -17 -229 -32 -241 -35 -15 -3 -24 2 -32 19
-18 39 -73 96 -93 96 -12 0 -24 -11 -31 -27 -43 -106 -105 -217 -147 -266 -69
-79 -86 -143 -57 -212 17 -41 23 -42 75 -15 52 26 127 113 190 218 28 48 55
92 59 99 7 11 449 73 520 73 l25 0 -7 -240 c-8 -271 -2 -314 42 -331 23 -9 29
-7 44 11 38 47 58 198 58 436 l0 161 133 21 c167 27 438 48 498 38 26 -4 54
-13 64 -20 17 -12 17 -16 -13 -77 -17 -35 -45 -87 -62 -116 -16 -28 -27 -54
-22 -57 4 -2 46 11 93 29 86 33 165 54 294 77 60 11 70 16 73 36 4 29 -30 72
-98 123 -75 56 -217 139 -238 139 -10 0 -61 -11 -113 -25 -149 -39 -582 -105
-596 -91 -3 3 0 19 5 36 14 40 2 74 -44 121 l-35 36 124 16 c185 25 367 76
367 103 0 19 -27 48 -55 60 -32 13 -136 17 -180 7z"/>
<path d="M1925 2208 l-39 -21 24 -19 c41 -33 136 -77 192 -89 46 -10 53 -9 65
7 23 32 15 64 -26 105 -38 38 -41 39 -107 39 -50 -1 -80 -7 -109 -22z"/>
<path d="M1172 2120 c-32 -14 -24 -29 32 -67 67 -46 148 -70 181 -55 22 10 26
18 23 49 -5 55 -39 75 -135 80 -43 1 -89 -2 -101 -7z"/>
<path d="M1965 1973 c-41 -8 -95 -37 -92 -47 6 -20 131 -76 199 -90 61 -12 69
-12 83 4 22 24 18 57 -10 86 -45 45 -111 62 -180 47z"/>
<path d="M1110 1869 l-25 -11 40 -35 c22 -20 68 -49 102 -65 75 -36 122 -35
140 2 16 33 1 57 -57 89 -48 27 -158 38 -200 20z"/>
<path d="M1857 1773 c-3 -5 5 -32 18 -60 23 -48 55 -159 55 -193 0 -12 -36
-24 -152 -49 -148 -33 -188 -49 -188 -77 0 -23 47 -27 150 -12 60 8 100 10
100 4 0 -17 -120 -238 -177 -325 -72 -112 -141 -199 -227 -289 -53 -55 -65
-72 -50 -72 37 0 138 70 222 153 96 96 165 189 252 342 35 61 65 112 68 115
12 13 -8 -504 -24 -614 -14 -98 -15 -127 -5 -165 17 -67 70 -171 86 -171 25 0
45 57 56 162 11 104 8 222 -13 511 -6 87 -9 160 -6 162 2 3 60 -60 127 -140
163 -191 296 -320 340 -328 55 -11 197 -8 348 8 145 15 173 21 173 35 0 11
-93 46 -172 64 -94 22 -232 73 -329 122 -112 56 -302 184 -406 274 l-83 71 0
63 0 64 33 6 c17 3 116 14 218 25 102 10 196 24 208 31 52 27 -8 93 -97 106
-32 5 -66 2 -107 -9 -154 -42 -235 -60 -242 -54 -4 4 -1 29 6 55 23 80 24 102
7 121 -38 41 -174 88 -189 64z"/>
<path d="M1095 1637 c-19 -15 -19 -16 9 -83 17 -42 30 -95 34 -136 l5 -67 -39
-10 c-84 -21 -205 -41 -327 -55 -70 -7 -131 -17 -135 -21 -11 -10 35 -43 76
-55 52 -14 163 -12 257 5 125 23 123 25 59 -62 -149 -203 -316 -384 -450 -489
-45 -35 -84 -71 -87 -79 -19 -47 83 -14 207 68 116 77 311 271 386 385 l55 83
3 -53 c4 -65 -12 -254 -35 -406 -13 -92 -14 -124 -5 -175 20 -107 74 -150 109
-85 16 29 19 69 23 343 l5 310 45 -41 c68 -62 131 -104 155 -104 12 0 30 9 40
20 37 41 -10 133 -80 151 -22 6 -68 20 -102 31 l-63 20 0 68 0 68 38 6 c60 11
165 47 195 68 30 22 35 49 11 68 -21 18 -97 14 -172 -9 -57 -18 -62 -18 -58
-3 43 140 40 164 -29 214 -50 35 -102 45 -130 25z"/>
</g>
</svg>
