<?xml version="1.0" standalone="no"?>
<!DOCTYPE svg PUBLIC "-//W3C//DTD SVG 20010904//EN"
 "http://www.w3.org/TR/2001/REC-SVG-20010904/DTD/svg10.dtd">
<svg version="1.0" xmlns="http://www.w3.org/2000/svg"
 width="340.000000pt" height="340.000000pt" viewBox="0 0 340.000000 340.000000"
 preserveAspectRatio="xMidYMid meet">
<metadata>
Created by potrace 1.15, written by Peter Selinger 2001-2017
</metadata>
<g transform="translate(0.000000,340.000000) scale(0.100000,-0.100000)"
fill="#000000" stroke="none">
<path d="M2025 2894 c-101 -29 -345 -74 -505 -94 -91 -11 -182 -25 -203 -31
-34 -9 -37 -12 -25 -26 33 -41 162 -62 276 -45 37 5 65 5 68 0 8 -13 35 -170
30 -175 -2 -2 -129 -22 -282 -43 -154 -22 -293 -42 -310 -45 -30 -5 -32 -3
-38 30 -8 38 -37 75 -60 75 -7 0 -33 -33 -56 -72 -24 -40 -77 -125 -118 -188
-68 -105 -75 -120 -74 -165 0 -65 15 -102 48 -117 25 -12 29 -10 64 29 45 51
87 129 140 259 26 64 44 97 52 94 39 -14 204 4 408 44 124 24 226 43 228 41 2
-1 -2 -89 -8 -194 -13 -213 -5 -282 34 -328 l23 -27 16 25 c24 36 35 100 52
286 16 179 25 253 31 253 2 0 72 9 156 20 315 40 504 47 548 20 12 -8 11 -15
-7 -54 -13 -25 -36 -64 -53 -87 -28 -39 -40 -79 -22 -79 4 0 39 11 78 24 79
27 195 46 282 46 73 0 86 8 73 43 -24 62 -139 160 -259 221 -45 23 -58 25 -90
17 -35 -9 -374 -59 -552 -81 -47 -5 -100 -13 -117 -16 l-33 -5 0 46 c0 37 -6
51 -35 84 l-35 38 73 7 c258 24 472 94 452 148 -15 38 -151 50 -250 22z"/>
<path d="M2110 2374 c-14 -3 -44 -7 -66 -10 -23 -2 -49 -11 -59 -18 -17 -12
-15 -15 26 -39 50 -29 149 -57 203 -57 29 0 38 5 45 23 13 35 -2 60 -49 85
-44 22 -51 23 -100 16z"/>
<path d="M1230 2274 c-8 -3 -21 -8 -29 -10 -22 -7 33 -59 89 -83 26 -11 73
-24 103 -27 53 -6 57 -5 68 19 16 36 5 71 -28 86 -30 14 -178 25 -203 15z"/>
<path d="M2045 2123 c-38 -5 -85 -23 -85 -33 0 -27 149 -95 235 -107 41 -5 45
-3 56 20 14 32 -3 82 -35 102 -22 13 -121 24 -171 18z"/>
<path d="M1182 2050 c-54 -13 -58 -25 -19 -54 41 -32 126 -63 182 -68 33 -3
41 1 51 21 18 34 -5 76 -48 89 -50 16 -129 22 -166 12z"/>
<path d="M1460 1911 c0 -11 4 -30 9 -43 14 -38 23 -132 13 -146 -9 -13 -171
-41 -236 -42 -28 0 -28 1 -22 40 10 63 -1 87 -42 101 -42 14 -117 18 -128 7
-4 -5 4 -29 19 -55 14 -27 28 -64 32 -84 l7 -35 -76 -12 c-42 -6 -129 -17
-193 -23 -187 -17 -192 -20 -121 -66 55 -37 100 -36 260 7 70 19 130 31 133
28 4 -3 11 -39 16 -80 18 -131 22 -136 74 -102 l25 16 0 -64 0 -64 -62 -13
c-35 -7 -125 -15 -200 -18 -102 -4 -138 -9 -138 -18 0 -7 21 -35 47 -61 28
-29 61 -80 85 -131 35 -75 42 -83 67 -83 18 0 34 8 42 20 8 12 37 27 69 35 93
25 91 26 88 -62 l-3 -78 -180 -32 c-216 -38 -410 -63 -485 -63 -96 0 -105 -29
-25 -75 94 -56 123 -53 439 35 98 27 194 52 213 56 l36 7 -7 -59 c-4 -33 -14
-95 -23 -139 -19 -94 -12 -158 20 -207 30 -44 57 -43 79 2 22 45 35 133 43
296 l7 131 177 23 c208 27 233 32 239 48 5 17 -59 42 -106 42 -21 0 -99 -11
-173 -25 -74 -14 -135 -25 -136 -25 -2 0 -3 36 -3 79 l0 80 58 6 c228 26 278
40 267 74 -3 11 14 35 50 71 30 30 55 60 55 67 0 18 -62 62 -119 84 l-51 19
-72 -24 c-40 -14 -98 -27 -129 -31 l-55 -7 4 35 c2 22 -2 44 -13 61 -10 14
-16 26 -14 26 22 1 262 49 266 54 4 3 -4 17 -17 31 -21 22 -22 29 -14 77 l9
53 89 12 c203 29 222 106 21 84 -44 -5 -82 -8 -84 -6 -2 2 11 30 29 61 31 55
32 58 14 72 -36 28 -99 52 -136 52 -31 0 -38 -4 -38 -19z m7 -290 c-4 -17 -13
-46 -21 -65 -15 -36 -34 -43 -168 -62 l-48 -6 0 64 0 64 113 16 c61 8 116 16
121 17 5 0 6 -12 3 -28z m82 -355 c9 -11 9 -24 2 -53 -17 -59 -24 -65 -102
-79 -116 -20 -109 -24 -109 51 0 73 -1 72 76 85 77 12 121 11 133 -4z m-321
-103 l-3 -67 -60 -13 c-101 -21 -101 -21 -124 49 -11 34 -19 63 -18 65 4 3
163 30 190 32 16 1 18 -7 15 -66z"/>
<path d="M2258 1840 c-96 -50 -253 -76 -341 -55 -12 3 -28 1 -36 -4 -12 -8
-10 -19 14 -72 23 -51 28 -80 33 -168 8 -183 -37 -457 -107 -650 -62 -170
-138 -286 -280 -426 -45 -44 -81 -83 -81 -88 0 -35 187 81 266 165 102 108
191 268 249 449 l28 86 109 6 c134 7 183 26 183 72 0 28 -3 30 -40 33 -22 1
-84 -8 -137 -21 -113 -28 -105 -38 -80 98 l17 90 55 7 c30 4 74 10 98 13 55 8
97 43 88 73 -6 18 -15 22 -51 22 -24 0 -72 -9 -107 -20 -34 -11 -65 -20 -68
-20 -3 0 -4 64 -4 142 l1 143 89 17 c122 24 191 24 198 0 39 -122 47 -940 11
-1034 -9 -24 -41 -23 -155 7 -56 14 -99 20 -104 15 -5 -5 9 -26 36 -52 24 -24
79 -91 122 -148 132 -177 140 -183 194 -127 81 84 96 234 67 661 -22 328 -18
527 14 611 34 90 33 114 -8 142 -38 26 -115 51 -176 58 -31 4 -53 -2 -97 -25z"/>
</g>
</svg>
