<?xml version="1.0" standalone="no"?>
<!DOCTYPE svg PUBLIC "-//W3C//DTD SVG 20010904//EN"
 "http://www.w3.org/TR/2001/REC-SVG-20010904/DTD/svg10.dtd">
<svg version="1.0" xmlns="http://www.w3.org/2000/svg"
 width="340.000000pt" height="340.000000pt" viewBox="0 0 340.000000 340.000000"
 preserveAspectRatio="xMidYMid meet">
<metadata>
Created by potrace 1.15, written by Peter Selinger 2001-2017
</metadata>
<g transform="translate(0.000000,340.000000) scale(0.100000,-0.100000)"
fill="#000000" stroke="none">
<path d="M1114 2568 c0 -116 -4 -144 -28 -223 -76 -251 -215 -546 -358 -760
-85 -127 -128 -181 -276 -346 -41 -44 -71 -83 -69 -86 3 -3 27 8 54 23 160 92
340 285 488 525 103 166 169 300 295 597 10 22 13 20 107 -59 186 -157 266
-193 293 -130 15 38 5 83 -26 120 -28 33 -117 71 -247 106 -49 13 -92 26 -94
29 -8 8 45 116 83 168 l37 49 -34 35 c-47 48 -123 84 -179 84 l-46 0 0 -132z"/>
<path d="M2532 2525 c-214 -55 -390 -88 -640 -119 -107 -13 -196 -27 -199 -30
-11 -11 29 -45 74 -62 44 -17 131 -16 281 2 l52 7 0 -60 c0 -75 -21 -148 -71
-243 -65 -123 -53 -116 -166 -102 -53 7 -100 9 -105 4 -5 -5 0 -28 11 -53 33
-74 44 -169 39 -332 -3 -99 -13 -194 -28 -273 -14 -75 -20 -134 -16 -156 9
-48 47 -103 71 -103 50 0 71 130 87 525 l12 305 120 18 c67 9 168 28 226 42
114 28 204 34 237 16 29 -15 40 -74 53 -287 12 -195 2 -385 -23 -446 -18 -43
0 -112 42 -157 47 -51 81 -38 118 44 16 36 18 78 20 388 l2 349 28 55 28 56
-35 29 c-19 16 -72 48 -117 71 l-82 42 -113 -37 c-191 -62 -348 -96 -348 -74
0 18 91 150 159 231 37 44 61 81 58 90 -4 8 -29 27 -57 43 -30 17 -46 31 -38
34 7 3 110 15 228 27 439 45 500 55 500 88 0 19 -74 70 -128 87 -87 27 -102
26 -280 -19z"/>
<path d="M1130 1916 c0 -18 37 -74 79 -119 46 -50 127 -97 167 -97 32 0 50 50
36 99 -15 47 -45 76 -102 96 -48 17 -180 33 -180 21z"/>
<path d="M2120 1718 c0 -9 7 -35 16 -59 36 -100 27 -393 -18 -538 -75 -243
-261 -438 -585 -616 -167 -92 -163 -113 10 -54 372 127 592 321 686 608 11 34
27 111 35 169 17 120 28 177 50 272 24 102 21 134 -15 164 -45 38 -82 55 -134
63 -36 5 -45 3 -45 -9z"/>
<path d="M1340 1560 c-86 -47 -291 -100 -452 -116 -37 -3 -75 -12 -85 -20 -17
-13 -17 -15 1 -29 27 -21 122 -55 152 -55 14 0 62 15 107 34 89 36 223 81 275
91 29 6 32 4 32 -17 0 -69 -95 -315 -146 -376 l-19 -23 -85 40 c-47 23 -100
44 -119 48 l-35 6 33 -59 c58 -102 167 -256 234 -329 62 -68 65 -70 90 -56 30
16 47 57 47 116 0 51 -30 101 -97 162 l-46 42 98 117 c55 65 143 164 197 220
l98 102 -32 31 c-32 31 -161 91 -195 91 -10 -1 -34 -10 -53 -20z"/>
<path d="M2280 961 c0 -12 221 -303 285 -375 67 -76 167 -156 196 -156 28 0
53 56 53 120 -1 68 -46 164 -98 207 -54 44 -185 120 -272 158 -81 35 -164 58
-164 46z"/>
</g>
</svg>
