<?xml version="1.0" standalone="no"?>
<!DOCTYPE svg PUBLIC "-//W3C//DTD SVG 20010904//EN"
 "http://www.w3.org/TR/2001/REC-SVG-20010904/DTD/svg10.dtd">
<svg version="1.0" xmlns="http://www.w3.org/2000/svg"
 width="340.000000pt" height="340.000000pt" viewBox="0 0 340.000000 340.000000"
 preserveAspectRatio="xMidYMid meet">
<metadata>
Created by potrace 1.15, written by Peter Selinger 2001-2017
</metadata>
<g transform="translate(0.000000,340.000000) scale(0.100000,-0.100000)"
fill="#000000" stroke="none">
<path d="M1108 2714 c-10 -9 1 -51 24 -90 30 -52 48 -211 55 -490 6 -251 5
-262 -13 -268 -33 -10 -178 -36 -202 -36 l-23 0 6 123 c3 67 11 148 17 179 13
72 1 94 -75 138 -90 51 -155 33 -108 -30 11 -16 28 -55 36 -87 16 -61 42 -339
33 -348 -11 -11 -148 -35 -276 -48 -73 -7 -138 -19 -144 -25 -14 -14 35 -62
95 -91 57 -28 116 -27 175 3 95 48 422 139 439 122 4 -4 9 -53 11 -110 3 -81
0 -120 -17 -184 -26 -101 -26 -118 0 -187 25 -67 54 -92 80 -69 24 22 36 79
54 256 8 86 20 169 25 183 18 46 12 73 -20 97 -16 12 -30 25 -30 29 0 3 35 12
78 19 147 23 354 68 364 78 17 17 1 59 -24 66 -47 12 -117 5 -232 -24 -65 -17
-125 -30 -132 -30 -12 0 -14 24 -12 138 l3 137 95 6 c135 8 270 50 270 84 0
20 -54 52 -102 60 -32 6 -51 1 -101 -23 -59 -29 -154 -59 -161 -51 -2 2 3 59
10 126 9 88 19 135 35 168 l23 45 -21 28 c-41 56 -210 133 -235 106z"/>
<path d="M2405 2504 c-193 -47 -419 -88 -579 -103 -54 -6 -104 -15 -109 -20
-16 -16 9 -38 71 -61 l56 -21 113 21 c62 12 117 19 123 15 24 -15 -20 -190
-77 -305 -36 -71 -40 -75 -78 -82 -22 -4 -66 -2 -99 3 -32 6 -64 8 -72 5 -20
-8 -17 -33 6 -66 54 -77 49 -365 -12 -608 -20 -80 -20 -86 -4 -149 44 -179 91
-188 115 -23 14 93 34 535 30 663 -3 89 -1 108 11 112 46 13 213 37 336 47
159 13 212 5 240 -37 24 -36 24 -447 0 -611 l-17 -122 22 -43 c43 -85 79 -130
102 -127 57 8 77 146 77 533 1 245 4 307 16 340 29 75 29 82 -7 118 -35 35
-120 72 -187 83 -27 4 -62 -3 -127 -25 -88 -29 -259 -71 -292 -71 -14 0 -14 3
4 23 11 12 46 61 78 110 31 48 74 102 96 120 21 19 39 39 39 45 0 7 -16 30
-36 52 -20 22 -35 42 -33 44 2 2 54 11 114 21 75 13 176 20 315 21 113 2 211
3 218 4 6 0 12 12 12 26 0 41 -55 89 -118 103 -89 19 -159 12 -347 -35z"/>
<path d="M2076 1751 c-4 -6 0 -24 8 -40 23 -43 39 -203 32 -301 -14 -170 -66
-352 -134 -465 -80 -134 -291 -306 -534 -435 -54 -28 -98 -56 -98 -61 0 -13 2
-13 155 31 333 96 516 235 642 485 54 105 90 257 113 465 6 58 18 129 26 158
14 49 14 56 -3 85 -31 53 -187 112 -207 78z"/>
<path d="M1470 1592 c0 -42 -30 -123 -92 -246 -159 -317 -430 -587 -800 -798
-59 -34 -108 -66 -108 -71 0 -18 106 0 185 32 242 97 471 277 666 521 42 52
125 168 184 257 59 90 111 165 116 169 5 3 9 17 9 31 0 33 -106 143 -138 143
-19 0 -22 -6 -22 -38z"/>
<path d="M825 1513 c-9 -32 -32 -95 -52 -141 -30 -71 -35 -91 -29 -130 8 -59
30 -92 60 -92 61 0 111 130 111 288 0 88 -2 94 -25 112 -38 30 -47 25 -65 -37z"/>
<path d="M2210 987 c0 -7 22 -40 50 -72 27 -33 104 -127 171 -210 202 -251
207 -257 243 -253 39 4 59 41 59 113 0 109 -84 224 -234 322 -125 80 -289 138
-289 100z"/>
</g>
</svg>
