<?xml version="1.0" standalone="no"?>
<!DOCTYPE svg PUBLIC "-//W3C//DTD SVG 20010904//EN"
 "http://www.w3.org/TR/2001/REC-SVG-20010904/DTD/svg10.dtd">
<svg version="1.0" xmlns="http://www.w3.org/2000/svg"
 width="340.000000pt" height="340.000000pt" viewBox="0 0 340.000000 340.000000"
 preserveAspectRatio="xMidYMid meet">
<metadata>
Created by potrace 1.15, written by Peter Selinger 2001-2017
</metadata>
<g transform="translate(0.000000,340.000000) scale(0.100000,-0.100000)"
fill="#000000" stroke="none">
<path d="M895 2630 c-4 -6 -4 -49 0 -94 5 -66 2 -100 -14 -167 -58 -246 -179
-498 -390 -812 -153 -229 -146 -217 -126 -217 25 0 152 110 223 193 85 100
137 173 225 314 66 104 78 119 108 125 19 4 89 19 155 34 142 30 178 29 182
-4 3 -20 -32 -159 -53 -214 -16 -40 27 -14 117 70 112 105 159 142 216 171 28
14 42 28 42 41 0 40 -125 105 -242 125 -32 6 -50 0 -140 -48 -107 -58 -210
-97 -252 -97 l-25 0 34 73 c19 41 60 118 91 173 32 54 71 125 88 156 l31 57
-40 41 c-22 23 -57 51 -79 62 -48 24 -140 36 -151 18z"/>
<path d="M2235 2355 c-59 -53 -169 -103 -263 -122 -77 -15 -88 -15 -155 0 -89
21 -137 22 -137 3 0 -8 11 -36 25 -63 68 -130 53 -574 -31 -951 -50 -225 -123
-359 -294 -536 -135 -141 -134 -160 4 -81 43 24 103 63 132 85 131 99 242 284
293 488 49 197 91 525 91 718 0 138 11 234 27 234 7 0 59 13 114 30 55 16 122
32 149 36 44 6 50 4 51 -12 3 -46 -4 -135 -31 -369 -66 -566 -65 -780 3 -929
73 -159 235 -237 456 -221 119 8 224 35 295 75 95 54 100 71 62 220 -13 52
-29 138 -35 190 -23 192 -30 202 -56 83 -23 -109 -54 -212 -76 -254 -41 -82
-116 -111 -284 -112 -73 0 -98 4 -131 21 -117 60 -163 197 -164 487 0 374 66
615 220 804 33 41 60 80 60 87 0 7 -11 26 -25 43 -32 37 -118 70 -199 77 -59
5 -63 3 -101 -31z"/>
<path d="M900 1735 c-10 -12 -9 -23 3 -53 23 -57 45 -186 53 -304 13 -207 -31
-417 -120 -567 l-44 -73 18 -56 c31 -104 63 -149 97 -137 10 3 45 45 78 93 33
48 121 150 195 227 250 258 279 295 231 295 -10 0 -54 -26 -97 -57 -174 -125
-257 -183 -260 -181 -10 11 45 630 62 693 8 30 -26 67 -94 103 -65 35 -103 40
-122 17z"/>
</g>
</svg>
