<?xml version="1.0" standalone="no"?>
<!DOCTYPE svg PUBLIC "-//W3C//DTD SVG 20010904//EN"
 "http://www.w3.org/TR/2001/REC-SVG-20010904/DTD/svg10.dtd">
<svg version="1.0" xmlns="http://www.w3.org/2000/svg"
 width="340.000000pt" height="340.000000pt" viewBox="0 0 340.000000 340.000000"
 preserveAspectRatio="xMidYMid meet">
<metadata>
Created by potrace 1.15, written by Peter Selinger 2001-2017
</metadata>
<g transform="translate(0.000000,340.000000) scale(0.100000,-0.100000)"
fill="#000000" stroke="none">
<path d="M1889 2684 c-13 -4 -12 -13 8 -73 35 -106 54 -240 60 -441 l5 -185
-78 -28 c-44 -16 -104 -38 -135 -49 -71 -25 -115 -59 -106 -81 8 -22 67 -22
197 -2 52 8 101 15 108 15 9 0 12 -48 11 -207 0 -115 -3 -226 -7 -247 l-7 -39
-149 -59 c-82 -32 -150 -57 -151 -56 -1 2 6 44 17 93 11 50 20 110 21 134 2
40 -1 47 -32 68 -36 24 -109 48 -119 39 -3 -3 1 -38 8 -77 17 -88 7 -144 -45
-255 -27 -59 -34 -86 -29 -109 9 -45 45 -105 63 -105 8 0 59 29 112 65 92 62
281 165 302 165 7 0 8 -67 3 -193 -7 -221 1 -284 47 -370 77 -146 256 -216
522 -204 195 9 346 56 439 138 50 43 53 75 18 189 -17 53 -37 142 -46 197 -18
111 -24 133 -36 133 -15 0 -20 -16 -34 -126 -15 -114 -43 -205 -77 -248 -49
-63 -218 -106 -413 -106 -157 1 -221 31 -271 130 -37 72 -45 142 -38 329 l6
170 161 65 c89 35 162 63 164 61 2 -2 -1 -20 -7 -42 -16 -57 -14 -118 5 -134
27 -22 96 64 164 206 32 66 70 137 84 158 14 21 26 41 26 45 0 14 -64 69 -100
87 -19 10 -62 20 -96 23 -73 5 -80 -3 -58 -74 15 -51 19 -151 6 -172 -5 -6
-86 -36 -180 -66 l-172 -54 0 87 c0 47 3 157 7 243 l6 157 56 11 c81 16 334
88 385 110 56 23 69 55 35 83 -22 17 -36 19 -139 14 -110 -4 -175 -20 -303
-72 -16 -7 -17 -2 -12 61 16 168 37 325 56 403 l19 84 -22 24 c-50 53 -202
104 -259 87z"/>
<path d="M900 2590 c-11 -11 -19 -29 -16 -38 14 -54 16 -104 6 -190 -34 -278
-158 -571 -411 -962 -69 -107 -83 -140 -63 -147 17 -6 127 92 193 172 73 88
167 232 227 348 l45 87 67 0 c72 0 195 26 283 60 30 11 57 20 62 20 14 0 6
-66 -18 -155 -41 -146 -36 -153 42 -65 37 41 109 117 161 167 93 91 95 93 77
113 -26 29 -110 66 -181 81 l-61 12 -47 -32 c-75 -52 -303 -151 -347 -151 -4
0 15 51 43 113 43 95 144 329 181 419 10 24 8 31 -13 54 -30 31 -144 100 -182
109 -19 5 -32 1 -48 -15z"/>
<path d="M931 1673 c-26 -5 -26 -11 10 -108 19 -54 22 -85 26 -315 6 -291 3
-308 -83 -467 -24 -46 -44 -93 -44 -105 0 -35 44 -119 77 -151 l30 -28 41 55
c23 30 94 101 159 157 146 127 253 230 253 241 0 29 -119 -6 -252 -73 l-58
-29 0 193 c0 223 14 426 35 510 8 33 12 63 9 69 -4 6 -30 21 -58 34 -48 22
-90 27 -145 17z"/>
</g>
</svg>
