<?xml version="1.0" standalone="no"?>
<!DOCTYPE svg PUBLIC "-//W3C//DTD SVG 20010904//EN"
 "http://www.w3.org/TR/2001/REC-SVG-20010904/DTD/svg10.dtd">
<svg version="1.0" xmlns="http://www.w3.org/2000/svg"
 width="340.000000pt" height="340.000000pt" viewBox="0 0 340.000000 340.000000"
 preserveAspectRatio="xMidYMid meet">
<metadata>
Created by potrace 1.15, written by Peter Selinger 2001-2017
</metadata>
<g transform="translate(0.000000,340.000000) scale(0.100000,-0.100000)"
fill="#000000" stroke="none">
<path d="M983 2649 c-7 -7 -13 -33 -13 -56 0 -147 -94 -414 -231 -656 -71
-125 -240 -383 -322 -489 -89 -117 -89 -132 -1 -77 27 17 96 79 154 138 108
110 188 215 291 382 l59 97 113 -1 c73 0 133 6 173 17 34 9 66 16 72 16 14 0
2 -49 -36 -148 -18 -45 -32 -84 -32 -87 0 -13 23 0 114 70 55 42 125 91 158
111 32 19 58 41 58 48 0 23 -65 75 -140 110 -41 20 -80 36 -88 36 -7 0 -28
-11 -45 -24 -50 -37 -111 -65 -179 -81 -61 -14 -138 -20 -138 -10 0 2 15 28
33 57 19 29 75 124 126 210 80 136 92 162 86 188 -17 80 -173 189 -212 149z"/>
<path d="M2048 2633 c-1 -5 -2 -60 -2 -124 l-1 -115 -63 -129 c-68 -139 -137
-250 -223 -358 l-54 -69 -50 6 c-163 19 -164 19 -170 4 -3 -8 3 -38 15 -67 38
-98 51 -210 51 -461 1 -181 -3 -259 -17 -340 -24 -141 -23 -212 5 -282 12 -31
31 -67 41 -80 17 -20 21 -21 30 -8 33 49 35 83 35 625 l0 539 145 18 c80 9
215 26 300 38 85 11 227 23 316 27 153 6 162 5 181 -14 37 -37 48 -142 46
-443 -2 -361 -22 -519 -75 -572 -18 -18 -29 -20 -77 -15 -31 4 -77 14 -103 22
-26 9 -59 15 -73 13 l-27 -3 52 -65 c29 -36 79 -103 112 -150 33 -47 70 -93
82 -102 34 -28 71 -22 115 17 101 92 141 305 141 760 0 266 7 325 51 458 l31
92 -44 38 c-65 57 -178 110 -235 110 -27 1 -127 -20 -225 -46 -167 -44 -541
-121 -560 -115 -11 4 151 204 286 356 165 185 217 246 228 265 14 26 -31 90
-88 127 -57 35 -171 63 -176 43z"/>
<path d="M927 1793 c-13 -12 -7 -42 14 -83 38 -73 44 -172 26 -412 -22 -279
-43 -357 -117 -442 -36 -40 -39 -89 -11 -152 20 -43 57 -84 76 -84 7 0 68 66
136 147 68 81 172 199 232 261 103 109 142 162 135 183 -2 6 -48 -23 -103 -64
-95 -70 -231 -157 -246 -157 -21 0 21 464 55 603 l24 99 -34 33 c-46 46 -166
90 -187 68z"/>
<path d="M2190 1626 c-52 -27 -133 -53 -212 -66 -44 -7 -63 -5 -115 13 -34 12
-65 18 -70 14 -4 -5 2 -36 14 -70 35 -99 51 -172 72 -330 10 -82 24 -154 31
-160 17 -17 47 23 55 73 8 45 1 43 175 61 211 21 269 49 210 97 -20 16 -20 19
-5 69 8 28 33 75 55 105 55 72 59 92 26 127 -30 31 -120 79 -163 86 -18 3 -45
-4 -73 -19z m38 -108 c17 -17 14 -119 -6 -203 l-17 -70 -90 -17 c-99 -19 -145
-22 -145 -10 0 4 -7 63 -15 132 -9 68 -13 130 -11 137 3 7 20 13 38 13 18 1
58 7 88 15 70 17 142 19 158 3z"/>
</g>
</svg>
