<?xml version="1.0" standalone="no"?>
<!DOCTYPE svg PUBLIC "-//W3C//DTD SVG 20010904//EN"
 "http://www.w3.org/TR/2001/REC-SVG-20010904/DTD/svg10.dtd">
<svg version="1.0" xmlns="http://www.w3.org/2000/svg"
 width="340.000000pt" height="340.000000pt" viewBox="0 0 340.000000 340.000000"
 preserveAspectRatio="xMidYMid meet">
<metadata>
Created by potrace 1.15, written by Peter Selinger 2001-2017
</metadata>
<g transform="translate(0.000000,340.000000) scale(0.100000,-0.100000)"
fill="#000000" stroke="none">
<path d="M1823 2653 c-27 -10 -10 -42 55 -104 128 -123 241 -209 274 -209 26
0 51 65 45 117 -9 89 -103 156 -259 188 -80 16 -95 17 -115 8z"/>
<path d="M865 2640 c-4 -6 -10 -63 -15 -128 -10 -141 -29 -233 -75 -369 -76
-222 -210 -481 -397 -767 -32 -48 -58 -94 -58 -102 0 -30 34 -11 111 63 133
127 267 321 383 551 l45 89 93 6 c51 3 127 15 168 26 41 11 86 21 99 21 22 0
23 -3 16 -37 -4 -21 -23 -80 -42 -131 -20 -51 -33 -95 -30 -98 3 -3 39 22 79
56 40 34 111 87 158 117 47 31 90 63 97 71 29 35 -88 126 -180 138 -40 6 -62
0 -169 -44 -103 -41 -258 -88 -258 -77 0 2 48 99 106 215 77 156 104 219 100
236 -14 55 -149 174 -196 174 -16 0 -32 -5 -35 -10z"/>
<path d="M2460 2260 c-46 -8 -75 -16 -364 -94 -92 -25 -231 -59 -309 -76 -182
-40 -207 -53 -150 -79 37 -17 188 -15 308 3 155 24 564 104 622 122 97 30 104
72 20 113 -46 22 -56 23 -127 11z"/>
<path d="M2110 1881 c-47 -13 -33 -34 60 -89 118 -70 226 -119 291 -133 47
-10 54 -9 66 7 20 27 16 73 -12 119 -31 53 -59 71 -137 90 -64 15 -223 19
-268 6z"/>
<path d="M1686 1828 c-9 -12 -16 -32 -16 -43 0 -67 -104 -212 -225 -314 -42
-35 -80 -71 -85 -82 -10 -17 -8 -18 32 -3 59 20 142 68 209 120 69 53 231 216
240 242 9 24 -29 64 -83 86 -49 21 -54 20 -72 -6z"/>
<path d="M834 1736 c-3 -8 1 -57 10 -108 23 -145 29 -288 17 -478 -15 -246
-44 -336 -122 -385 -22 -14 -43 -33 -46 -41 -11 -30 28 -144 62 -180 18 -19
37 -34 44 -34 6 0 52 43 103 96 92 95 289 269 371 327 53 38 97 78 97 89 0 20
-50 2 -209 -77 -95 -47 -177 -85 -183 -85 -23 0 2 425 39 667 l17 113 -25 26
c-66 73 -160 110 -175 70z"/>
<path d="M2106 1594 c-3 -9 -4 -44 0 -78 4 -44 0 -82 -14 -137 -22 -83 -81
-229 -92 -229 -4 0 -56 45 -114 101 -59 55 -126 109 -149 120 -45 20 -141 25
-167 9 -18 -11 -18 -12 90 -82 76 -50 260 -207 268 -229 6 -15 -51 -78 -128
-143 -131 -111 -275 -194 -455 -263 -129 -50 -170 -72 -157 -85 8 -8 35 -8 95
1 231 32 513 167 687 328 l62 57 51 -54 c223 -242 371 -390 403 -405 32 -15
56 -17 163 -12 166 7 361 48 361 75 0 15 -68 41 -172 68 -226 57 -274 77 -433
183 -144 95 -304 218 -305 233 0 11 145 272 179 323 40 58 42 69 19 106 -42
71 -91 110 -154 123 -24 5 -33 3 -38 -10z"/>
</g>
</svg>
