<?xml version="1.0" standalone="no"?>
<!DOCTYPE svg PUBLIC "-//W3C//DTD SVG 20010904//EN"
 "http://www.w3.org/TR/2001/REC-SVG-20010904/DTD/svg10.dtd">
<svg version="1.0" xmlns="http://www.w3.org/2000/svg"
 width="340.000000pt" height="340.000000pt" viewBox="0 0 340.000000 340.000000"
 preserveAspectRatio="xMidYMid meet">
<metadata>
Created by potrace 1.15, written by Peter Selinger 2001-2017
</metadata>
<g transform="translate(0.000000,340.000000) scale(0.100000,-0.100000)"
fill="#000000" stroke="none">
<path d="M1859 2765 c-4 -3 -5 -43 -2 -88 6 -99 -15 -189 -82 -358 -94 -235
-226 -430 -431 -637 -69 -70 -132 -139 -140 -154 -27 -51 16 -33 127 52 239
185 420 397 563 662 l47 87 96 -117 c263 -321 450 -514 540 -558 57 -29 60
-29 233 -29 205 1 250 7 250 35 0 26 -28 42 -135 80 -310 107 -616 316 -883
601 l-61 66 60 107 c63 112 65 123 28 171 -38 47 -187 104 -210 80z"/>
<path d="M896 2665 c-4 -14 -4 -47 0 -73 9 -73 -17 -171 -94 -349 -109 -255
-232 -467 -408 -708 -110 -150 -70 -157 71 -12 110 113 217 253 301 392 l55
90 92 1 c72 2 113 9 187 32 52 17 98 27 102 23 4 -4 -6 -62 -23 -130 -16 -68
-28 -126 -25 -128 3 -3 42 34 87 81 45 48 113 107 151 132 37 25 70 50 74 55
17 29 -58 89 -166 133 l-63 26 -56 -35 c-87 -52 -246 -115 -293 -115 -18 0
-17 3 7 43 15 23 49 89 77 145 27 57 77 144 110 193 66 99 67 113 15 153 -45
34 -137 76 -168 76 -20 0 -28 -6 -33 -25z"/>
<path d="M800 1799 c0 -8 7 -38 15 -68 40 -150 46 -536 10 -651 -22 -70 -66
-158 -99 -197 -30 -36 -32 -59 -10 -134 20 -67 39 -99 62 -99 9 0 50 41 92 93
41 50 152 170 247 265 161 161 193 202 159 202 -7 0 -67 -38 -132 -85 -123
-87 -181 -122 -187 -115 -6 8 12 354 23 443 5 45 17 115 27 154 l17 73 -31 37
c-34 43 -100 81 -156 90 -28 4 -37 2 -37 -8z"/>
<path d="M1845 1740 c-104 -27 -199 -49 -210 -50 -11 0 -26 -4 -34 -9 -13 -8
-13 -12 0 -27 23 -28 79 -47 159 -53 l74 -6 12 -41 c6 -22 13 -74 15 -115 l4
-73 -155 -27 c-170 -28 -287 -55 -310 -70 -32 -21 57 -59 135 -59 22 1 103 11
180 24 77 13 143 22 148 19 10 -6 8 -276 -3 -417 -12 -139 -24 -166 -74 -166
-18 0 -51 6 -72 13 -22 8 -56 17 -76 20 l-37 6 65 -77 c36 -42 83 -107 105
-144 21 -37 51 -76 65 -87 26 -21 28 -21 58 -3 44 26 75 88 98 200 22 106 21
183 -2 515 -7 92 -11 170 -8 172 7 8 219 35 348 45 88 7 129 14 139 25 20 20
6 44 -40 67 -44 23 -120 23 -284 -2 -71 -11 -135 -20 -142 -20 -8 0 -9 18 -6
58 6 66 -11 111 -53 138 -13 9 -23 19 -20 21 2 3 76 22 162 44 87 22 165 46
174 55 13 13 12 17 -9 33 -73 56 -164 53 -406 -9z"/>
<path d="M1446 1022 c-15 -39 -56 -117 -92 -174 -69 -111 -76 -140 -50 -203
17 -41 20 -41 64 -15 58 35 145 194 158 287 7 55 -8 120 -34 153 -18 22 -18
22 -46 -48z"/>
<path d="M2137 1028 c44 -79 307 -313 386 -344 20 -7 57 54 57 95 0 79 -82
181 -180 225 -68 31 -175 56 -238 56 l-43 0 18 -32z"/>
</g>
</svg>
