<?xml version="1.0" standalone="no"?>
<!DOCTYPE svg PUBLIC "-//W3C//DTD SVG 20010904//EN"
 "http://www.w3.org/TR/2001/REC-SVG-20010904/DTD/svg10.dtd">
<svg version="1.0" xmlns="http://www.w3.org/2000/svg"
 width="340.000000pt" height="340.000000pt" viewBox="0 0 340.000000 340.000000"
 preserveAspectRatio="xMidYMid meet">
<metadata>
Created by potrace 1.15, written by Peter Selinger 2001-2017
</metadata>
<g transform="translate(0.000000,340.000000) scale(0.100000,-0.100000)"
fill="#000000" stroke="none">
<path d="M1921 2593 c-6 -12 -3 -32 10 -65 10 -26 23 -76 28 -110 17 -112 31
-421 24 -513 l-8 -90 -105 -26 c-58 -15 -142 -32 -187 -39 -67 -11 -83 -17
-83 -30 0 -18 26 -32 97 -50 44 -11 146 4 233 35 40 14 40 14 40 -10 0 -46
-42 -239 -76 -354 -52 -171 -126 -316 -238 -465 -53 -70 -96 -132 -96 -137 0
-19 31 -7 102 40 175 117 295 334 388 700 l12 44 62 -149 c140 -333 235 -520
297 -583 59 -61 210 -90 469 -91 168 0 174 15 28 70 -65 24 -238 126 -348 206
-107 77 -231 198 -306 300 -106 142 -190 345 -178 425 4 21 7 39 8 39 366 32
547 51 569 59 19 8 27 17 27 36 0 58 -65 85 -207 85 -77 0 -109 -6 -203 -35
-62 -19 -130 -38 -152 -41 l-39 -7 5 59 c4 33 13 128 21 213 13 128 35 264 62
378 7 32 -34 66 -118 97 -82 30 -124 33 -138 9z"/>
<path d="M1264 2489 c-11 -18 -143 -75 -214 -93 -84 -20 -253 -46 -306 -46
-46 0 -73 -20 -52 -38 25 -20 119 -52 156 -52 21 0 94 14 162 31 75 19 155 32
199 32 71 2 75 1 81 -23 9 -34 -4 -151 -39 -332 -52 -274 -61 -416 -29 -455
13 -16 15 -14 -132 -49 -63 -15 -132 -33 -153 -40 -35 -12 -38 -12 -33 4 14
49 29 117 72 317 25 121 48 232 51 248 3 16 -1 37 -12 53 -16 25 -92 66 -149
80 -27 6 -29 5 -22 -17 27 -85 29 -127 17 -269 -25 -289 -41 -358 -98 -421
-30 -33 -34 -44 -29 -73 6 -34 27 -58 59 -69 11 -4 41 8 84 34 87 54 191 95
277 110 66 11 171 8 209 -6 30 -12 40 -80 34 -235 -6 -202 -52 -386 -109 -447
-26 -28 -52 -29 -140 -6 -37 9 -71 14 -75 10 -8 -9 110 -241 137 -271 49 -51
165 55 224 205 39 97 55 171 72 324 19 174 49 326 74 376 25 48 25 60 -2 94
-21 28 -148 95 -179 95 -9 0 -29 -6 -45 -14 -16 -8 -41 -18 -55 -21 l-26 -6
44 171 c24 94 50 217 58 273 16 106 46 220 72 272 9 17 36 49 60 72 51 48 51
62 1 119 -21 24 -48 39 -95 54 -72 22 -138 26 -149 9z"/>
<path d="M1175 1140 c-22 -5 -117 -31 -211 -58 -217 -64 -348 -92 -448 -98
-88 -5 -96 -8 -96 -33 0 -44 108 -131 161 -131 16 0 48 13 72 30 52 35 164 84
331 145 233 84 322 126 311 145 -7 12 -63 11 -120 0z"/>
</g>
</svg>
