<?xml version="1.0" standalone="no"?>
<!DOCTYPE svg PUBLIC "-//W3C//DTD SVG 20010904//EN"
 "http://www.w3.org/TR/2001/REC-SVG-20010904/DTD/svg10.dtd">
<svg version="1.0" xmlns="http://www.w3.org/2000/svg"
 width="340.000000pt" height="340.000000pt" viewBox="0 0 340.000000 340.000000"
 preserveAspectRatio="xMidYMid meet">
<metadata>
Created by potrace 1.15, written by Peter Selinger 2001-2017
</metadata>
<g transform="translate(0.000000,340.000000) scale(0.100000,-0.100000)"
fill="#000000" stroke="none">
<path d="M1204 2540 c-62 -36 -291 -97 -407 -108 -45 -4 -82 -11 -82 -17 0
-15 106 -64 140 -65 17 0 75 13 131 29 119 34 229 55 264 50 l25 -4 -1 -140
c-2 -154 -28 -300 -85 -466 -37 -111 -39 -177 -4 -216 25 -28 25 -28 41 -8 42
52 99 229 163 508 44 191 54 217 103 273 l32 36 -20 37 c-15 28 -36 45 -94 73
-105 53 -142 56 -206 18z"/>
<path d="M790 2189 c0 -6 4 -19 10 -29 5 -10 17 -44 25 -76 17 -64 10 -187
-21 -374 -20 -124 -43 -170 -106 -216 -45 -34 -49 -40 -44 -68 6 -31 37 -70
69 -87 13 -8 28 -1 65 29 79 67 304 132 454 132 101 0 113 -8 124 -77 11 -75
-3 -261 -31 -397 -42 -208 -88 -306 -144 -306 -15 0 -60 11 -99 25 -80 28 -92
30 -92 14 0 -6 38 -71 85 -146 47 -75 85 -140 85 -144 0 -16 44 -9 73 10 56
37 129 147 161 245 25 75 73 324 96 501 17 125 28 175 52 229 l30 68 -28 29
c-63 66 -168 78 -300 36 -78 -25 -374 -80 -383 -72 -7 8 50 306 85 443 37 146
36 151 -16 196 -45 37 -150 62 -150 35z"/>
<path d="M2585 2098 c-137 -44 -741 -127 -791 -108 -39 15 -157 22 -174 11
-13 -9 -13 -14 3 -38 32 -49 48 -93 67 -186 32 -155 42 -271 45 -552 3 -273
12 -352 42 -377 23 -19 48 19 63 95 l12 65 106 6 c59 3 198 11 309 17 249 15
237 21 269 -136 18 -86 58 -175 78 -175 20 0 62 52 97 121 52 104 76 209 99
444 39 401 52 461 132 614 30 57 36 76 27 87 -37 45 -239 135 -297 133 -15 -1
-54 -10 -87 -21z m46 -88 c60 -17 64 -38 64 -325 0 -157 -5 -282 -13 -335 -17
-107 -48 -230 -69 -275 l-16 -34 -47 43 c-26 24 -56 47 -68 51 -27 8 -238 -17
-467 -55 -93 -16 -171 -28 -172 -27 -2 3 -32 861 -30 864 1 1 46 5 99 9 l96 7
9 -59 c15 -106 7 -301 -16 -389 -19 -70 -61 -168 -101 -232 -8 -12 -11 -25 -7
-29 19 -19 130 125 176 228 37 82 59 164 67 258 4 41 11 83 16 93 12 23 -7 49
-72 98 -47 35 -49 39 -28 43 32 7 197 26 227 26 l24 0 -6 -247 c-6 -276 -2
-299 57 -331 58 -31 239 -13 253 25 10 25 -62 86 -90 77 -96 -31 -122 -20
-132 55 -9 65 11 191 42 269 14 35 22 70 19 78 -3 8 -26 27 -50 42 -25 15 -46
30 -46 34 0 7 79 25 165 38 73 11 76 11 116 0z"/>
<path d="M1125 1205 c-60 -13 -207 -44 -325 -70 -155 -34 -247 -49 -328 -52
-124 -6 -128 -9 -91 -69 25 -41 95 -94 125 -94 12 0 54 14 95 31 41 17 151 57
245 89 269 93 424 158 424 180 0 14 -20 12 -145 -15z"/>
</g>
</svg>
