<?xml version="1.0" standalone="no"?>
<!DOCTYPE svg PUBLIC "-//W3C//DTD SVG 20010904//EN"
 "http://www.w3.org/TR/2001/REC-SVG-20010904/DTD/svg10.dtd">
<svg version="1.0" xmlns="http://www.w3.org/2000/svg"
 width="340.000000pt" height="340.000000pt" viewBox="0 0 340.000000 340.000000"
 preserveAspectRatio="xMidYMid meet">
<metadata>
Created by potrace 1.15, written by Peter Selinger 2001-2017
</metadata>
<g transform="translate(0.000000,340.000000) scale(0.100000,-0.100000)"
fill="#000000" stroke="none">
<path d="M2197 2644 c-64 -44 -201 -87 -362 -113 -71 -12 -145 -24 -162 -27
-48 -7 -40 -19 25 -38 81 -22 147 -20 287 10 163 35 215 40 215 22 0 -33 -162
-325 -190 -343 -5 -3 -50 21 -99 54 -136 89 -195 115 -265 116 -77 0 -85 -18
-19 -46 26 -11 66 -28 88 -37 43 -18 235 -158 235 -171 0 -25 -278 -243 -412
-323 -66 -39 -66 -39 -103 -24 -51 22 -69 20 -200 -14 -129 -35 -348 -81 -354
-75 -2 3 15 89 38 192 40 185 71 357 71 400 0 39 -129 89 -168 65 -10 -7 -10
-20 3 -67 17 -68 19 -141 5 -275 -13 -119 -32 -195 -71 -287 -34 -77 -34 -126
-3 -158 19 -19 38 -14 102 26 105 64 349 121 442 102 41 -8 46 -12 58 -48 25
-73 2 -242 -59 -431 -35 -111 -77 -200 -106 -226 -18 -17 -23 -16 -99 17 -43
19 -85 35 -91 35 -20 0 -15 -23 13 -61 15 -19 46 -77 71 -129 58 -124 67 -134
103 -115 48 25 119 115 165 209 52 106 86 234 115 435 16 116 27 160 56 224
l37 80 -33 27 -32 26 48 19 c137 51 304 150 416 246 31 27 62 49 68 49 6 0 37
-20 68 -44 75 -57 364 -256 405 -278 60 -33 206 -18 399 42 133 41 141 63 28
75 -191 22 -413 83 -570 156 -96 45 -240 129 -240 141 0 4 32 49 71 100 39 51
89 123 111 160 38 64 93 128 109 128 17 0 69 53 69 70 0 28 -74 85 -146 114
-35 14 -70 26 -77 25 -6 -1 -34 -16 -60 -35z"/>
<path d="M1228 2611 c-80 -51 -286 -100 -418 -101 -92 -1 -90 -34 4 -69 52
-19 54 -19 157 -1 57 10 137 26 177 35 40 8 77 13 83 10 24 -15 5 -195 -52
-495 -32 -172 -34 -198 -18 -234 29 -62 77 -28 113 80 13 38 40 143 61 234 44
198 76 299 116 363 l30 48 -20 33 c-22 36 -92 89 -145 111 -44 19 -34 20 -88
-14z"/>
<path d="M1930 1753 c1 -21 7 -67 15 -103 24 -110 27 -106 -62 -113 -111 -9
-183 -26 -183 -43 0 -23 47 -35 157 -41 l103 -6 0 -98 0 -97 -27 -6 c-16 -3
-75 -10 -133 -16 -157 -15 -291 -37 -303 -49 -15 -15 4 -33 62 -61 l51 -23
147 26 c82 15 160 27 176 27 l27 0 0 -232 c0 -355 21 -538 62 -546 20 -4 32
17 55 95 13 47 18 121 22 383 l6 325 278 6 c239 5 280 8 294 22 16 15 14 19
-24 56 -23 21 -61 45 -86 54 -43 14 -54 14 -199 -13 -84 -15 -177 -31 -205
-35 l-53 -7 0 100 c0 113 -6 106 90 117 90 11 178 36 196 56 51 56 -59 88
-189 54 -73 -19 -101 -19 -94 -2 3 8 8 39 12 70 l7 56 -48 31 c-47 30 -102 50
-136 50 -14 0 -18 -8 -18 -37z"/>
<path d="M1130 1331 c-269 -75 -436 -114 -519 -121 -51 -5 -97 -12 -102 -17
-12 -12 55 -79 103 -104 21 -10 50 -19 66 -19 26 0 436 187 525 240 71 42 38
52 -73 21z"/>
</g>
</svg>
