<?xml version="1.0" standalone="no"?>
<!DOCTYPE svg PUBLIC "-//W3C//DTD SVG 20010904//EN"
 "http://www.w3.org/TR/2001/REC-SVG-20010904/DTD/svg10.dtd">
<svg version="1.0" xmlns="http://www.w3.org/2000/svg"
 width="340.000000pt" height="340.000000pt" viewBox="0 0 340.000000 340.000000"
 preserveAspectRatio="xMidYMid meet">
<metadata>
Created by potrace 1.15, written by Peter Selinger 2001-2017
</metadata>
<g transform="translate(0.000000,340.000000) scale(0.100000,-0.100000)"
fill="#000000" stroke="none">
<path d="M1847 2713 c-4 -6 -2 -25 3 -44 6 -19 10 -62 10 -97 0 -72 -24 -128
-117 -272 -114 -176 -148 -199 -265 -180 -63 10 -98 4 -98 -16 0 -7 11 -29 24
-48 30 -45 58 -147 112 -415 44 -219 60 -260 96 -246 8 3 24 21 33 40 16 28
29 36 93 55 41 11 76 19 79 16 10 -10 -124 -255 -219 -399 -82 -125 -122 -174
-222 -272 -66 -66 -175 -161 -240 -210 -103 -78 -116 -90 -94 -93 35 -4 201
81 311 159 227 162 452 474 561 779 l27 76 77 17 c42 9 106 20 141 23 58 6 69
4 115 -21 62 -33 98 -29 120 13 8 15 35 97 61 182 48 160 107 299 150 356 14
18 25 44 25 57 0 48 -83 95 -233 133 l-62 15 -128 -40 c-173 -55 -465 -133
-479 -129 -24 8 256 298 361 373 27 19 52 42 55 50 9 25 -40 70 -116 105 -73
34 -170 51 -181 33z m489 -529 c37 -55 27 -244 -24 -462 l-17 -73 -85 -3 c-47
-2 -123 -13 -169 -25 -46 -12 -85 -20 -87 -18 -4 3 36 239 41 245 2 2 47 12
100 23 113 23 158 43 153 67 -9 46 -110 52 -188 12 -23 -12 -44 -19 -47 -16
-3 2 -1 37 5 78 5 40 7 77 5 81 -3 5 -19 17 -35 27 l-30 18 57 17 c89 25 226
53 267 54 30 1 41 -4 54 -25z m-452 -90 c3 -9 6 -60 6 -114 l0 -99 -37 -7
c-101 -17 -189 -37 -206 -46 -54 -28 77 -45 171 -21 29 7 54 13 56 13 3 0 -29
-198 -38 -236 -5 -18 -19 -23 -103 -37 -53 -9 -98 -15 -99 -14 -7 7 -76 519
-70 524 7 7 245 50 287 52 16 1 29 -5 33 -15z"/>
<path d="M1090 2376 c-36 -13 -109 -39 -163 -60 -55 -20 -131 -45 -170 -55
-119 -31 -101 -60 50 -83 92 -13 184 0 333 48 167 54 203 87 143 133 -49 39
-115 45 -193 17z"/>
<path d="M1125 1954 c-49 -14 -158 -47 -241 -74 -125 -40 -322 -96 -489 -138
-46 -12 -37 -35 20 -50 68 -18 203 -9 339 22 60 14 111 24 114 22 8 -8 -81
-255 -139 -388 -67 -150 -99 -193 -194 -254 -30 -19 -55 -41 -55 -49 0 -47 68
-165 96 -165 8 0 49 26 92 59 95 72 227 152 382 231 179 91 163 89 201 22 73
-131 119 -162 156 -105 49 75 -1 200 -127 314 -75 68 -144 119 -162 119 -20 0
-3 -63 36 -137 l42 -81 -250 -91 c-137 -50 -252 -88 -255 -86 -6 7 164 260
274 409 47 62 85 123 85 134 0 11 -21 38 -46 62 -25 23 -44 43 -42 44 2 2 68
18 148 36 271 61 316 82 266 129 -50 47 -119 51 -251 15z"/>
<path d="M1957 1494 c-4 -4 -7 -51 -7 -105 0 -62 -10 -152 -27 -246 -36 -203
-38 -385 -5 -457 33 -72 64 -109 128 -151 111 -74 243 -96 454 -76 149 14 297
43 374 72 90 35 166 112 166 168 0 12 -9 47 -19 78 -11 32 -27 110 -36 173 -8
63 -18 126 -21 139 -9 43 -24 8 -39 -92 -20 -129 -48 -201 -99 -252 -35 -35
-59 -47 -142 -73 -223 -71 -383 -79 -563 -26 -67 19 -124 72 -140 129 -25 90
-5 250 60 489 22 82 39 158 37 169 -5 36 -98 83 -121 61z"/>
<path d="M2280 1470 c-5 -10 -10 -46 -10 -78 0 -109 -62 -266 -140 -355 -39
-43 -42 -52 -37 -88 6 -45 31 -89 50 -89 7 0 53 25 102 57 104 65 249 143 269
143 7 0 30 -31 50 -70 42 -78 50 -87 72 -69 29 24 35 58 22 123 -9 50 -19 69
-57 109 -46 49 -87 77 -116 77 -20 0 -19 -18 6 -75 11 -25 19 -48 17 -49 -7
-6 -293 -75 -296 -72 -6 7 110 202 155 260 43 56 45 61 34 96 -12 41 -43 74
-83 89 -23 9 -29 7 -38 -9z"/>
</g>
</svg>
