<?xml version="1.0" standalone="no"?>
<!DOCTYPE svg PUBLIC "-//W3C//DTD SVG 20010904//EN"
 "http://www.w3.org/TR/2001/REC-SVG-20010904/DTD/svg10.dtd">
<svg version="1.0" xmlns="http://www.w3.org/2000/svg"
 width="340.000000pt" height="340.000000pt" viewBox="0 0 340.000000 340.000000"
 preserveAspectRatio="xMidYMid meet">
<metadata>
Created by potrace 1.15, written by Peter Selinger 2001-2017
</metadata>
<g transform="translate(0.000000,340.000000) scale(0.100000,-0.100000)"
fill="#000000" stroke="none">
<path d="M1547 2703 c-3 -5 -8 -36 -12 -70 -4 -34 -19 -88 -35 -120 -54 -112
-248 -321 -443 -477 -94 -74 -124 -115 -74 -101 162 46 338 148 447 258 64 65
65 66 85 47 30 -28 76 -42 115 -35 19 4 93 22 163 42 71 19 131 32 134 29 10
-9 -59 -106 -190 -267 -67 -83 -127 -158 -133 -166 -7 -8 -87 -29 -190 -49
-152 -30 -198 -36 -309 -35 -71 0 -136 -3 -143 -7 -9 -7 -4 -26 22 -83 45 -97
106 -283 162 -492 54 -205 80 -274 105 -287 28 -16 57 4 65 44 l6 34 81 11
c135 19 486 51 548 51 57 0 58 -1 86 -42 72 -108 121 -48 258 317 88 236 142
349 193 408 46 53 52 82 23 119 -23 29 -117 81 -195 108 -50 17 -59 17 -103 4
-100 -31 -489 -101 -500 -90 -7 6 203 191 302 266 50 37 122 87 160 111 39 23
78 49 88 57 22 19 22 54 -1 75 -23 21 -120 64 -176 78 -40 10 -48 9 -88 -14
-23 -14 -79 -40 -123 -57 -89 -34 -318 -94 -337 -88 -6 2 45 62 115 132 70 70
128 133 129 139 1 7 -1 22 -5 34 -19 55 -209 151 -230 116z m654 -905 c24 -45
-20 -329 -91 -581 -33 -116 -34 -119 -59 -113 -132 31 -139 31 -236 6 -52 -13
-97 -21 -100 -18 -7 7 24 271 34 280 3 4 67 21 140 38 74 17 140 35 148 41 19
17 16 57 -6 69 -31 16 -89 12 -183 -12 -48 -12 -90 -19 -94 -16 -4 4 1 36 11
70 9 35 19 82 22 105 l5 43 -68 32 c-47 21 -63 33 -51 36 33 7 390 40 454 41
54 1 64 -2 74 -21z m-594 -85 c1 -32 4 -96 8 -143 6 -71 4 -88 -9 -99 -8 -7
-68 -22 -133 -33 -157 -26 -195 -37 -190 -51 10 -32 174 -52 276 -34 l44 8 -7
-108 c-4 -59 -9 -126 -12 -149 l-6 -41 -135 -17 c-75 -9 -137 -15 -138 -14 -1
2 -31 150 -67 330 l-65 328 31 5 c176 32 401 73 402 74 0 1 1 -25 1 -56z"/>
<path d="M2371 799 c-46 -5 -264 -32 -485 -59 -498 -62 -833 -96 -1080 -110
-233 -14 -298 -22 -303 -36 -7 -22 49 -74 113 -105 83 -41 110 -41 364 6 623
115 970 153 1285 141 99 -3 227 -13 285 -21 263 -38 370 -29 370 31 0 53 -112
128 -228 153 -60 13 -198 12 -321 0z"/>
</g>
</svg>
