<?xml version="1.0" standalone="no"?>
<!DOCTYPE svg PUBLIC "-//W3C//DTD SVG 20010904//EN"
 "http://www.w3.org/TR/2001/REC-SVG-20010904/DTD/svg10.dtd">
<svg version="1.0" xmlns="http://www.w3.org/2000/svg"
 width="340.000000pt" height="340.000000pt" viewBox="0 0 340.000000 340.000000"
 preserveAspectRatio="xMidYMid meet">
<metadata>
Created by potrace 1.15, written by Peter Selinger 2001-2017
</metadata>
<g transform="translate(0.000000,340.000000) scale(0.100000,-0.100000)"
fill="#000000" stroke="none">
<path d="M946 2817 c-16 -12 -20 -29 -22 -103 -4 -154 -72 -318 -219 -523 -41
-58 -75 -111 -75 -118 0 -24 27 -14 89 33 72 54 150 139 228 249 l57 80 96 0
c93 0 95 -1 92 -24 -3 -31 -44 -132 -107 -266 l-51 -110 -135 -27 c-74 -15
-167 -29 -208 -31 -100 -4 -111 -18 -72 -96 40 -79 84 -216 131 -404 23 -89
46 -175 52 -190 13 -33 37 -32 54 1 6 12 13 24 16 27 6 6 367 85 389 85 10 0
23 -9 29 -20 13 -25 51 -26 73 -2 25 28 72 138 96 225 32 117 78 231 117 289
40 60 39 80 -6 132 -35 39 -99 69 -188 87 -61 13 -65 12 -158 -20 -52 -19 -97
-32 -99 -29 -11 11 158 241 232 317 46 46 83 88 83 93 0 38 -104 118 -154 118
-18 0 -50 -13 -76 -30 -41 -28 -125 -60 -157 -60 -24 0 -14 22 52 111 36 49
65 98 65 108 0 23 -34 51 -95 81 -59 29 -105 35 -129 17z m432 -809 c25 -25
15 -186 -22 -330 -47 -184 -57 -205 -105 -218 -21 -5 -59 -13 -85 -16 l-46 -7
0 110 0 109 68 22 c87 28 132 56 132 82 0 41 -65 47 -177 14 -21 -6 -23 -3
-23 37 0 24 3 74 6 110 l7 67 66 15 c82 19 163 21 179 5z m-370 -170 l-3 -112
-65 -28 c-36 -15 -74 -29 -84 -32 -16 -4 -17 -7 -6 -20 9 -12 32 -16 85 -16
l73 0 6 -31 c3 -17 6 -66 6 -109 l0 -77 -77 -16 c-43 -8 -81 -12 -84 -9 -7 8
-81 513 -76 518 4 5 185 41 210 43 16 1 17 -9 15 -111z"/>
<path d="M2535 2694 c-94 -51 -155 -67 -270 -73 -123 -7 -126 -9 -81 -76 13
-19 33 -72 45 -117 45 -171 64 -228 82 -244 18 -16 20 -15 39 30 12 25 23 46
25 46 45 0 338 49 355 60 10 6 8 15 -9 43 -11 19 -21 40 -21 48 0 25 54 91
107 129 l53 37 -23 34 c-29 43 -135 98 -202 104 -41 4 -59 0 -100 -21z m76
-111 c19 -51 -27 -185 -71 -208 -42 -22 -161 -48 -172 -37 -12 12 -48 205 -40
214 11 11 202 57 240 57 26 1 34 -4 43 -26z"/>
<path d="M1876 2609 c-70 -52 -139 -71 -268 -77 -89 -3 -118 -8 -118 -18 0 -7
5 -16 11 -20 23 -14 79 -151 104 -257 29 -120 57 -187 79 -187 18 0 26 22 26
71 0 44 -10 38 132 64 122 22 218 53 218 70 0 8 -16 26 -35 40 l-34 27 20 41
c12 23 39 66 62 96 l40 54 -19 36 c-21 38 -85 76 -144 84 -28 4 -44 -1 -74
-24z m28 -145 c7 -55 -1 -118 -21 -157 -14 -29 -49 -48 -130 -72 l-42 -13 -10
32 c-12 37 -31 151 -31 188 0 25 5 28 83 46 45 11 96 21 113 21 30 1 32 -1 38
-45z"/>
<path d="M2332 2049 c-65 -24 -346 -101 -457 -125 -93 -20 -103 -27 -84 -50
12 -15 29 -16 144 -10 266 13 535 68 583 119 29 31 21 51 -29 71 -50 20 -91
19 -157 -5z"/>
<path d="M2525 1758 c-226 -54 -577 -125 -800 -163 -205 -34 -224 -44 -153
-78 54 -26 119 -23 242 12 122 34 131 32 120 -29 -9 -55 -39 -104 -102 -168
-33 -33 -65 -75 -72 -96 -10 -32 -9 -42 10 -81 l22 -46 32 21 c110 73 252 120
360 120 78 0 125 -23 149 -72 16 -33 17 -47 7 -138 -15 -133 -42 -239 -84
-325 -63 -128 -89 -138 -252 -91 -155 46 -168 34 -68 -64 37 -36 86 -94 109
-130 62 -95 71 -101 123 -88 57 14 141 92 202 184 40 62 52 93 84 220 52 209
101 353 138 408 30 46 31 50 17 75 -18 33 -157 117 -226 137 -50 15 -56 14
-111 -6 -63 -24 -298 -90 -319 -90 -19 0 15 65 70 132 87 108 88 113 29 153
l-35 24 34 5 c88 15 267 28 514 36 243 8 359 19 386 35 34 22 -36 95 -112 117
-99 30 -142 28 -314 -14z"/>
<path d="M1280 1141 c-511 -133 -589 -152 -683 -172 -55 -11 -104 -22 -109
-25 -20 -13 -4 -49 43 -94 79 -76 94 -79 183 -37 106 51 246 110 436 184 274
107 380 159 380 183 0 19 -67 9 -250 -39z"/>
</g>
</svg>
