<?xml version="1.0" standalone="no"?>
<!DOCTYPE svg PUBLIC "-//W3C//DTD SVG 20010904//EN"
 "http://www.w3.org/TR/2001/REC-SVG-20010904/DTD/svg10.dtd">
<svg version="1.0" xmlns="http://www.w3.org/2000/svg"
 width="340.000000pt" height="340.000000pt" viewBox="0 0 340.000000 340.000000"
 preserveAspectRatio="xMidYMid meet">
<metadata>
Created by potrace 1.15, written by Peter Selinger 2001-2017
</metadata>
<g transform="translate(0.000000,340.000000) scale(0.100000,-0.100000)"
fill="#000000" stroke="none">
<path d="M915 2642 c19 -113 -76 -320 -275 -602 -61 -87 -77 -116 -65 -118 38
-8 160 101 282 252 l64 79 62 -1 c34 -1 79 2 100 7 20 5 37 8 37 7 0 -2 -18
-45 -41 -97 -23 -52 -57 -134 -76 -184 -19 -49 -35 -90 -36 -92 -2 -1 -74 -21
-162 -44 -138 -36 -167 -40 -222 -34 -45 5 -63 3 -63 -5 0 -6 15 -44 34 -83
45 -95 88 -229 130 -408 20 -81 41 -158 47 -173 17 -37 41 -29 58 20 l14 41
176 37 c97 20 179 36 184 36 4 0 7 -10 7 -22 0 -38 14 -52 39 -39 31 17 54 71
95 221 20 74 44 158 52 185 l14 50 77 2 c43 1 99 6 126 11 33 7 47 6 47 -2 0
-22 -89 -227 -140 -323 -67 -126 -199 -325 -289 -433 -81 -97 -89 -118 -36
-96 54 23 102 64 183 156 95 109 200 267 258 387 25 52 47 93 50 91 7 -8 -16
-431 -31 -561 -8 -70 -22 -156 -31 -192 -14 -56 -15 -75 -4 -127 16 -82 38
-136 61 -148 15 -9 21 -5 33 19 35 66 39 117 45 526 l6 410 96 -92 c53 -51
103 -93 112 -93 39 0 48 70 17 130 -27 53 -53 68 -150 88 l-82 17 7 135 c4 74
10 138 13 141 4 4 52 21 107 39 110 36 165 61 184 83 10 13 8 18 -11 31 -37
26 -98 20 -182 -19 -43 -19 -82 -35 -88 -35 -12 0 -5 94 14 192 13 69 6 81
-65 112 l-48 22 118 77 c65 43 136 93 158 111 l40 34 -21 29 c-24 33 -74 59
-129 67 -40 6 -40 6 -63 -43 -28 -61 -118 -152 -243 -247 -139 -105 -139 -129
-1 -79 38 14 74 25 80 25 6 0 16 -17 22 -37 16 -57 33 -274 22 -285 -7 -7
-214 -68 -234 -68 -10 0 16 72 38 104 16 26 16 27 -19 59 -35 33 -143 77 -191
77 -13 0 -54 -11 -90 -25 -114 -43 -116 -38 -38 79 59 89 160 192 235 239 31
20 57 43 57 51 0 37 -144 109 -190 96 -14 -4 -54 -21 -90 -38 -62 -30 -150
-52 -150 -38 0 4 17 30 39 59 21 29 59 86 85 127 l47 75 -35 32 c-37 34 -89
53 -149 53 l-39 0 7 -38z m293 -797 c33 -31 20 -233 -26 -420 l-17 -70 -78
-16 -78 -17 3 101 3 101 75 19 c92 23 106 34 84 66 -15 21 -23 23 -68 18 -28
-2 -59 -8 -68 -12 -16 -6 -18 1 -18 74 0 48 -6 96 -14 116 -14 32 -13 34 7 41
75 24 170 23 195 -1z m-288 -151 c4 -60 6 -112 4 -116 -3 -5 -15 -8 -27 -8
-12 0 -53 -8 -90 -19 -37 -10 -69 -16 -71 -12 -3 5 -46 191 -50 215 -1 12 206
65 217 56 4 -4 12 -56 17 -116z m10 -284 c0 -84 -3 -101 -17 -108 -24 -13
-125 -34 -131 -28 -7 8 -44 197 -39 202 5 5 135 31 165 33 21 1 22 -2 22 -99z"/>
<path d="M2200 2591 c0 -10 9 -38 19 -62 52 -119 68 -324 52 -676 -15 -328
-44 -493 -120 -675 -61 -145 -157 -268 -276 -353 -66 -48 -111 -92 -103 -101
11 -10 150 45 206 82 150 99 252 258 319 497 15 53 30 92 34 85 3 -7 44 -112
89 -233 45 -121 106 -272 134 -335 69 -154 67 -153 311 -158 102 -2 186 1 194
7 25 16 4 37 -61 60 -228 82 -428 302 -618 681 -49 97 -49 98 -40 158 6 32 26
212 44 398 19 187 42 372 50 412 22 99 21 106 -16 148 -41 46 -119 84 -175 84
-35 0 -43 -3 -43 -19z"/>
<path d="M2587 1984 c-6 -80 -50 -175 -132 -282 -56 -74 -64 -92 -43 -92 13 0
131 89 258 194 47 39 99 81 115 93 l30 22 -47 45 c-53 51 -115 86 -151 86 -23
0 -25 -4 -30 -66z"/>
<path d="M1935 1707 c12 -42 74 -167 105 -212 36 -52 51 -55 87 -19 22 22 24
31 19 66 -11 66 -88 142 -175 173 -42 14 -42 14 -36 -8z"/>
<path d="M1160 1086 c-19 -7 -100 -38 -180 -68 -186 -72 -344 -122 -461 -148
-51 -11 -96 -23 -101 -26 -14 -9 34 -84 67 -104 16 -10 47 -23 67 -28 31 -9
41 -7 61 8 55 43 203 129 377 218 185 95 250 135 250 153 0 13 -38 11 -80 -5z"/>
</g>
</svg>
