<?xml version="1.0" standalone="no"?>
<!DOCTYPE svg PUBLIC "-//W3C//DTD SVG 20010904//EN"
 "http://www.w3.org/TR/2001/REC-SVG-20010904/DTD/svg10.dtd">
<svg version="1.0" xmlns="http://www.w3.org/2000/svg"
 width="340.000000pt" height="340.000000pt" viewBox="0 0 340.000000 340.000000"
 preserveAspectRatio="xMidYMid meet">
<metadata>
Created by potrace 1.15, written by Peter Selinger 2001-2017
</metadata>
<g transform="translate(0.000000,340.000000) scale(0.100000,-0.100000)"
fill="#000000" stroke="none">
<path d="M1230 2853 c0 -5 9 -22 19 -40 27 -44 48 -120 56 -201 l7 -68 -138
-17 c-164 -20 -184 -25 -184 -43 0 -29 41 -37 155 -31 60 4 120 10 133 13 22
6 22 5 22 -88 l0 -95 -127 -24 c-111 -21 -128 -27 -128 -43 0 -29 46 -38 158
-30 l97 6 0 -81 0 -80 -37 -10 c-91 -24 -607 -101 -678 -101 -22 0 -18 -44 5
-65 11 -10 42 -24 69 -31 44 -11 57 -10 112 7 113 35 371 101 376 95 8 -7 -42
-94 -97 -167 -64 -86 -221 -236 -341 -326 -53 -40 -101 -79 -109 -88 -45 -54
82 -6 211 80 127 85 254 198 353 315 44 52 87 96 95 98 9 1 34 -8 56 -21 38
-22 40 -26 39 -68 0 -36 -8 -58 -40 -105 -46 -66 -68 -75 -129 -50 -35 15 -37
15 -30 -2 4 -9 19 -51 34 -92 34 -98 48 -100 129 -25 47 43 70 76 105 148 25
51 57 105 72 119 15 15 25 35 23 45 -5 26 -94 83 -130 83 -50 0 -102 21 -125
50 l-22 27 92 16 c51 9 154 24 231 32 173 19 212 28 240 54 12 12 26 21 31 21
6 0 178 -124 205 -148 9 -7 -81 -81 -139 -114 -106 -59 -119 -84 -39 -75 54 7
193 68 238 105 l25 20 145 -142 c95 -92 163 -151 195 -166 l49 -24 155 17 c86
10 174 17 196 17 47 0 115 17 115 29 0 12 -40 26 -175 62 -225 59 -438 145
-568 228 l-48 31 25 33 c13 17 41 61 61 97 21 36 47 75 58 88 l21 22 -44 45
c-24 25 -40 45 -35 45 30 1 160 22 220 36 85 20 175 61 175 79 0 7 -12 23 -27
35 -40 32 -136 24 -292 -23 -136 -41 -329 -83 -338 -73 -6 6 37 82 159 277 43
69 78 133 78 141 0 23 -39 54 -110 87 -98 47 -101 45 -94 -41 13 -158 -80
-391 -243 -608 l-49 -65 -49 3 c-43 3 -183 -14 -277 -34 l-28 -6 0 85 0 85 73
12 c119 18 166 31 190 51 22 19 22 19 3 34 -25 19 -114 19 -186 0 -30 -8 -56
-12 -59 -9 -6 6 -1 167 5 173 2 2 72 17 155 32 83 15 153 30 156 32 10 11 -38
47 -77 57 -32 9 -59 8 -127 -5 -47 -9 -88 -13 -91 -10 -3 3 0 49 6 103 l13 97
-26 22 c-14 12 -49 29 -77 38 -54 16 -128 20 -128 8z m820 -623 c23 -6 64 -12
91 -12 57 -2 59 -6 30 -89 -25 -74 -59 -139 -76 -145 -13 -5 -215 119 -215
132 0 16 105 134 116 130 7 -3 31 -10 54 -16z"/>
<path d="M1648 1742 c-10 -2 -18 -7 -19 -10 -9 -85 -64 -172 -197 -315 -35
-38 -61 -71 -58 -74 15 -16 221 117 257 166 19 26 26 28 90 29 52 1 71 -2 75
-13 6 -14 -66 -126 -123 -193 -27 -31 -34 -33 -163 -53 -79 -13 -189 -22 -265
-23 -151 -1 -158 -6 -102 -79 45 -58 88 -164 135 -329 43 -148 54 -173 82
-188 15 -8 24 -6 40 10 11 11 20 29 20 39 0 16 11 22 53 30 104 21 224 33 344
34 115 2 123 1 147 -22 69 -65 143 -2 250 215 59 118 105 186 162 236 18 16
34 36 34 43 0 17 -61 58 -145 96 -88 40 -132 41 -295 7 -69 -15 -150 -29 -180
-33 l-55 -6 40 36 c62 55 179 133 240 161 69 32 69 49 0 86 -67 37 -107 44
-137 24 -27 -18 -157 -50 -167 -41 -3 4 16 25 42 48 36 31 47 47 41 60 -12 31
-104 68 -146 59z m470 -461 c31 -19 -23 -232 -93 -371 -19 -39 -36 -70 -38
-70 -1 0 -17 4 -36 10 -23 6 -64 6 -127 -2 -51 -7 -96 -9 -99 -6 -4 3 -3 49 1
101 l7 94 73 7 c74 6 144 27 144 44 0 13 -31 38 -55 46 -12 3 -47 -1 -78 -9
-91 -24 -88 -25 -85 57 l3 73 45 7 c137 23 317 33 338 19z m-498 -111 c0 -38
0 -73 0 -77 0 -10 -39 -21 -105 -31 -34 -5 -50 -12 -50 -22 0 -17 38 -27 113
-29 l53 -1 -3 -92 -3 -92 -110 -22 c-60 -12 -111 -21 -111 -21 -9 10 -96 398
-91 403 8 8 231 51 275 53 l32 1 0 -70z"/>
<path d="M2270 619 c-228 -31 -913 -89 -1285 -109 -116 -6 -221 -16 -234 -21
-22 -9 -23 -11 -7 -28 30 -33 137 -75 191 -75 28 0 160 14 295 32 533 70 811
81 1120 47 80 -9 184 -19 233 -22 95 -6 98 -4 73 46 -50 96 -219 153 -386 130z"/>
</g>
</svg>
