<?xml version="1.0" standalone="no"?>
<!DOCTYPE svg PUBLIC "-//W3C//DTD SVG 20010904//EN"
 "http://www.w3.org/TR/2001/REC-SVG-20010904/DTD/svg10.dtd">
<svg version="1.0" xmlns="http://www.w3.org/2000/svg"
 width="340.000000pt" height="340.000000pt" viewBox="0 0 340.000000 340.000000"
 preserveAspectRatio="xMidYMid meet">
<metadata>
Created by potrace 1.15, written by Peter Selinger 2001-2017
</metadata>
<g transform="translate(0.000000,340.000000) scale(0.100000,-0.100000)"
fill="#000000" stroke="none">
<path d="M1984 2946 c-15 -12 -19 -27 -19 -83 -1 -61 -6 -79 -51 -173 -28 -58
-67 -131 -87 -163 -33 -51 -40 -57 -71 -57 -42 0 -86 -16 -86 -31 0 -6 9 -22
20 -36 99 -126 104 -761 8 -986 -18 -42 -19 -52 -8 -93 7 -26 23 -52 35 -60
20 -13 29 -11 107 26 92 44 334 110 478 130 47 7 128 12 180 12 174 1 185 -13
184 -237 0 -187 -16 -274 -69 -382 -60 -122 -104 -143 -219 -102 -59 20 -117
22 -123 4 -2 -6 31 -49 72 -95 41 -47 87 -102 103 -123 63 -89 76 -101 108
-93 67 17 172 168 223 321 32 98 61 252 61 325 0 104 28 189 98 302 15 25 16
31 2 55 -23 40 -88 86 -176 123 l-77 32 -121 -26 c-249 -54 -680 -125 -691
-114 -2 2 -1 219 3 483 l7 480 35 7 c232 49 346 69 386 66 45 -3 51 -6 67 -38
35 -67 6 -383 -45 -485 -33 -65 -51 -75 -147 -75 l-84 0 40 -43 c22 -24 56
-69 76 -100 43 -66 71 -78 119 -50 52 30 123 145 153 248 28 96 55 254 55 321
0 55 21 111 64 174 20 29 36 56 36 62 0 33 -95 81 -225 114 l-64 16 -76 -36
c-42 -20 -102 -45 -133 -55 -72 -25 -258 -63 -284 -59 -15 2 16 36 129 141 81
75 176 158 211 183 37 28 62 54 62 65 0 38 -149 119 -218 119 -16 0 -37 -6
-48 -14z"/>
<path d="M889 2678 c-3 -30 5 -56 31 -109 16 -31 34 -87 41 -125 15 -89 7
-313 -12 -325 -34 -22 -176 -59 -280 -74 -125 -17 -160 -34 -124 -61 23 -17
75 -33 135 -40 34 -4 64 1 120 21 103 37 148 50 154 44 8 -8 -22 -203 -51
-324 -81 -345 -232 -636 -447 -862 -62 -66 -35 -73 55 -14 89 58 205 178 272
278 131 197 234 505 284 847 20 136 17 132 145 184 110 46 107 47 92 -50 -6
-46 -17 -123 -24 -173 -28 -211 -80 -417 -141 -556 -25 -58 -27 -70 -18 -105
16 -56 48 -122 63 -127 7 -3 71 52 142 121 71 70 163 156 204 191 79 67 113
111 86 111 -7 0 -82 -34 -165 -75 -84 -41 -153 -75 -155 -75 -1 0 13 69 31
153 18 83 46 232 63 330 30 177 44 219 94 286 31 41 25 56 -43 109 -64 48 -81
49 -138 8 -52 -37 -169 -96 -192 -96 -18 0 -9 100 25 267 13 67 24 127 24 133
0 18 -81 69 -143 89 -94 30 -127 35 -128 19z"/>
<path d="M1978 2225 c-11 -11 10 -44 66 -103 57 -61 92 -82 134 -82 37 0 52
16 52 56 0 67 -75 116 -195 130 -27 3 -53 3 -57 -1z"/>
<path d="M2215 1134 c-260 -53 -681 -116 -938 -140 -113 -10 -99 -52 33 -95
l65 -21 160 35 c328 73 527 97 793 97 159 0 192 3 202 15 22 26 -10 78 -62
103 -68 33 -120 34 -253 6z"/>
</g>
</svg>
