<?xml version="1.0" standalone="no"?>
<!DOCTYPE svg PUBLIC "-//W3C//DTD SVG 20010904//EN"
 "http://www.w3.org/TR/2001/REC-SVG-20010904/DTD/svg10.dtd">
<svg version="1.0" xmlns="http://www.w3.org/2000/svg"
 width="340.000000pt" height="340.000000pt" viewBox="0 0 340.000000 340.000000"
 preserveAspectRatio="xMidYMid meet">
<metadata>
Created by potrace 1.15, written by Peter Selinger 2001-2017
</metadata>
<g transform="translate(0.000000,340.000000) scale(0.100000,-0.100000)"
fill="#000000" stroke="none">
<path d="M2018 2897 c-4 -61 -12 -86 -47 -152 -23 -44 -67 -116 -99 -160 -51
-71 -62 -80 -93 -83 -18 -1 -45 -5 -58 -8 -26 -6 -26 -14 3 -113 25 -88 39
-235 39 -411 1 -189 -15 -295 -69 -457 -39 -117 -40 -128 -18 -183 22 -54 50
-60 119 -27 122 60 370 104 651 114 l162 6 18 -29 c29 -44 25 -203 -10 -379
-44 -224 -79 -307 -142 -341 -31 -17 -34 -16 -134 19 -162 59 -176 51 -90 -52
33 -39 82 -104 109 -144 27 -40 56 -79 65 -86 24 -20 60 -17 100 9 43 26 146
177 177 259 32 83 75 262 93 381 17 118 45 207 81 262 30 45 31 54 5 95 -25
41 -103 86 -206 119 -79 25 -83 25 -128 10 -74 -25 -295 -63 -500 -86 -104
-11 -190 -19 -192 -17 -4 4 27 939 31 955 3 6 18 12 34 12 16 0 103 13 193 30
215 40 225 39 244 -5 18 -44 18 -124 -1 -250 -29 -189 -77 -325 -120 -333 -10
-3 -51 4 -92 13 -108 26 -114 18 -50 -59 30 -35 67 -85 82 -110 43 -73 90 -86
145 -40 40 34 125 207 146 299 40 171 77 304 109 385 19 48 35 93 35 101 0 38
-41 79 -112 112 -107 51 -116 52 -204 17 -125 -50 -243 -81 -334 -87 l-85 -6
20 23 c11 12 103 92 203 178 101 85 186 161 189 169 19 49 -40 90 -161 112
-106 19 -103 21 -108 -62z"/>
<path d="M1415 2609 c-105 -35 -249 -72 -382 -99 -94 -20 -95 -20 -173 0 -93
24 -190 27 -190 6 0 -7 9 -34 20 -58 45 -102 70 -312 70 -583 0 -410 -60 -709
-159 -799 -33 -30 -23 -96 21 -144 28 -29 48 -28 139 8 101 39 282 75 509 100
199 21 251 32 275 56 31 31 -19 75 -100 88 -44 8 -222 -17 -455 -63 -80 -16
-147 -27 -150 -26 -3 2 -2 41 1 87 7 75 21 476 35 1006 l6 202 43 0 c107 0
636 109 714 147 48 24 47 50 -3 76 -60 31 -118 30 -221 -4z"/>
<path d="M1310 2361 c0 -5 5 -32 12 -60 14 -62 -1 -174 -39 -296 -40 -127 -33
-124 -111 -42 -37 40 -92 100 -123 134 -67 75 -139 118 -139 82 0 -13 137
-210 227 -326 l64 -82 -47 -83 c-26 -46 -83 -141 -127 -213 -169 -273 -159
-255 -129 -255 35 0 217 203 312 349 38 58 56 78 62 69 5 -7 42 -72 84 -144
41 -73 84 -140 94 -149 18 -16 20 -16 45 10 25 24 27 31 23 98 -4 82 -22 118
-131 255 l-59 74 33 77 c122 286 149 356 144 371 -11 33 -65 101 -98 120 -33
20 -97 27 -97 11z"/>
<path d="M1988 2249 c-27 -15 -22 -41 20 -90 51 -60 70 -77 117 -99 72 -35
115 -23 115 33 0 68 -55 117 -169 151 -63 19 -61 18 -83 5z"/>
<path d="M2285 1142 c-48 -3 -288 -41 -520 -81 -93 -16 -210 -34 -258 -39 -49
-6 -94 -15 -99 -20 -19 -19 1 -43 59 -69 l57 -26 200 32 c346 55 481 64 678
48 93 -8 97 -7 108 13 7 12 9 33 6 46 -12 45 -148 103 -231 96z"/>
</g>
</svg>
