<?xml version="1.0" standalone="no"?>
<!DOCTYPE svg PUBLIC "-//W3C//DTD SVG 20010904//EN"
 "http://www.w3.org/TR/2001/REC-SVG-20010904/DTD/svg10.dtd">
<svg version="1.0" xmlns="http://www.w3.org/2000/svg"
 width="340.000000pt" height="340.000000pt" viewBox="0 0 340.000000 340.000000"
 preserveAspectRatio="xMidYMid meet">
<metadata>
Created by potrace 1.15, written by Peter Selinger 2001-2017
</metadata>
<g transform="translate(0.000000,340.000000) scale(0.100000,-0.100000)"
fill="#000000" stroke="none">
<path d="M1999 2974 c-10 -12 -10 -22 -1 -48 23 -63 15 -102 -43 -216 -31 -60
-81 -147 -111 -194 -52 -80 -57 -84 -80 -75 -39 14 -121 11 -127 -5 -3 -8 5
-47 18 -87 40 -126 50 -226 50 -484 l0 -240 -32 -91 c-18 -50 -33 -108 -33
-128 0 -44 25 -96 46 -96 8 0 46 16 84 35 156 79 326 118 581 136 157 11 168
10 211 -9 76 -33 82 -57 75 -296 -6 -218 -21 -306 -63 -394 -26 -53 -71 -92
-106 -92 -9 0 -58 14 -109 31 -50 17 -95 27 -100 22 -4 -4 21 -53 57 -108 36
-55 74 -118 86 -140 31 -60 67 -95 100 -95 63 0 196 173 239 310 28 92 56 261
68 426 12 157 21 191 62 248 37 51 36 67 -2 111 -35 39 -197 125 -236 125 -14
0 -103 -16 -197 -35 -145 -29 -401 -69 -563 -88 l-43 -5 0 126 c0 70 3 258 7
418 l6 291 71 6 c39 4 118 16 176 27 58 11 137 23 176 27 69 6 71 5 77 -18 15
-62 18 -164 7 -269 -13 -126 -38 -205 -73 -238 -22 -21 -24 -21 -101 -6 -50
11 -81 13 -87 7 -7 -7 23 -50 81 -122 71 -87 97 -111 116 -111 64 0 175 165
215 316 11 44 22 124 26 179 6 98 42 247 63 260 22 14 9 54 -26 83 -36 30
-180 92 -213 92 -10 0 -63 -20 -117 -44 -138 -61 -370 -133 -383 -120 -3 3 97
107 222 232 125 125 227 235 227 244 0 63 -260 152 -301 102z"/>
<path d="M945 2834 c-16 -17 -14 -36 10 -84 34 -67 55 -164 55 -254 0 -110
-25 -366 -37 -376 -24 -22 -232 -72 -418 -101 -72 -11 -136 -26 -144 -33 -21
-22 22 -44 110 -57 62 -9 96 -8 188 5 61 9 140 26 174 36 34 11 66 20 70 20 5
0 6 -17 3 -37 -3 -21 -13 -92 -22 -158 -9 -66 -18 -121 -19 -123 -9 -10 -135
-32 -206 -36 -110 -7 -122 -18 -86 -83 31 -58 63 -155 112 -339 20 -76 45
-154 55 -174 48 -94 80 -72 80 56 l0 83 58 11 c311 62 452 104 452 134 0 8
-14 31 -31 51 l-32 36 46 67 c25 37 66 91 91 120 25 30 46 59 46 66 0 41 -67
81 -182 109 -75 19 -100 14 -211 -44 -33 -17 -60 -29 -62 -27 -2 2 9 70 24
151 17 100 31 151 41 157 8 4 94 31 190 60 181 53 243 83 255 122 6 17 1 27
-21 46 -24 21 -35 24 -83 19 -31 -3 -116 -25 -189 -50 l-133 -46 6 32 c4 18
31 140 61 272 30 132 53 249 50 260 -7 27 -77 66 -180 99 -92 30 -100 31 -121
10z m275 -1205 c14 -25 7 -91 -22 -204 -11 -44 -21 -81 -22 -83 -3 -3 -270
-68 -301 -74 -18 -3 -21 9 -41 147 -12 83 -19 153 -15 157 3 3 69 20 146 36
218 48 240 49 255 21z"/>
<path d="M1925 2209 c-17 -27 135 -218 187 -234 17 -6 28 0 51 25 24 27 28 39
23 68 -8 54 -75 116 -145 136 -66 19 -107 20 -116 5z"/>
<path d="M2170 1194 c-47 -8 -186 -34 -310 -59 -198 -39 -504 -91 -642 -110
-87 -11 -66 -50 46 -84 88 -27 103 -27 254 8 245 56 474 85 775 97 170 7 197
14 197 48 0 23 -40 66 -81 86 -52 27 -137 32 -239 14z"/>
</g>
</svg>
