<?xml version="1.0" standalone="no"?>
<!DOCTYPE svg PUBLIC "-//W3C//DTD SVG 20010904//EN"
 "http://www.w3.org/TR/2001/REC-SVG-20010904/DTD/svg10.dtd">
<svg version="1.0" xmlns="http://www.w3.org/2000/svg"
 width="340.000000pt" height="340.000000pt" viewBox="0 0 340.000000 340.000000"
 preserveAspectRatio="xMidYMid meet">
<metadata>
Created by potrace 1.15, written by Peter Selinger 2001-2017
</metadata>
<g transform="translate(0.000000,340.000000) scale(0.100000,-0.100000)"
fill="#000000" stroke="none">
<path d="M2071 2856 c-8 -9 -8 -21 -2 -40 14 -35 -3 -124 -39 -202 -30 -67
-122 -215 -145 -234 -12 -10 -33 -9 -100 5 -113 22 -123 15 -88 -61 35 -76 51
-181 59 -384 11 -284 -18 -460 -87 -533 -34 -35 -37 -74 -9 -110 30 -38 78
-43 131 -12 92 52 252 91 500 122 250 31 316 21 359 -50 24 -39 25 -96 5 -272
-28 -243 -65 -373 -124 -436 -46 -48 -59 -47 -169 13 -69 38 -102 43 -102 17
0 -6 20 -43 44 -83 25 -39 59 -107 76 -151 17 -44 40 -88 50 -99 17 -18 19
-17 80 15 103 55 185 165 224 300 9 29 22 113 31 185 27 238 67 413 112 496
l26 47 -27 36 c-32 42 -111 89 -185 111 -52 16 -58 15 -160 -10 -139 -34 -669
-121 -678 -112 -2 2 1 158 7 347 5 189 10 385 10 436 l0 91 68 12 c156 26 373
47 380 36 24 -38 6 -442 -23 -512 -16 -38 -26 -40 -119 -23 -93 17 -94 14 -21
-86 111 -152 108 -149 134 -140 37 11 100 75 125 124 30 59 43 120 56 259 17
182 43 288 83 346 20 29 20 29 1 65 -14 26 -36 45 -82 68 -99 50 -134 51 -238
10 -107 -43 -237 -80 -266 -75 -17 2 -1 22 91 111 61 59 154 139 206 178 52
38 95 76 95 83 0 28 -61 64 -174 102 -80 28 -99 29 -115 10z"/>
<path d="M1016 2741 c-4 -6 -9 -55 -11 -109 -8 -212 -109 -465 -305 -762 -44
-66 -80 -125 -80 -131 0 -38 225 157 284 248 l28 41 33 -14 c27 -11 50 -12
117 -3 46 5 101 14 123 19 22 5 54 10 72 10 29 0 33 -4 42 -37 14 -48 14 -340
1 -498 -20 -237 -66 -449 -107 -490 -17 -17 -62 -13 -120 12 -39 16 -83 17
-83 2 0 -6 16 -37 35 -68 20 -31 50 -99 68 -149 18 -51 41 -100 49 -109 15
-14 19 -14 52 7 47 29 78 70 120 161 64 139 98 313 111 569 14 296 38 473 72
546 13 26 14 39 5 58 -17 38 -75 76 -163 106 l-82 29 -51 -29 c-68 -38 -166
-70 -216 -70 -22 0 -40 2 -40 4 0 3 22 40 48 83 27 43 86 148 132 233 46 85
94 172 107 192 30 48 29 62 -3 87 -48 38 -225 84 -238 62z"/>
<path d="M1973 2145 c-12 -33 69 -193 112 -221 34 -22 71 -11 96 29 43 69 -3
144 -115 186 -68 25 -85 26 -93 6z"/>
<path d="M891 1720 c-55 -47 -121 -65 -226 -61 -154 6 -174 6 -181 -2 -4 -4 9
-38 29 -76 41 -78 69 -181 92 -350 19 -138 23 -156 47 -203 36 -73 60 -34 62
99 0 54 5 93 11 93 26 0 279 40 314 50 23 6 41 15 41 20 0 5 -14 25 -31 45
l-31 35 21 69 c13 43 38 92 67 131 40 54 45 66 35 86 -12 28 -70 59 -148 79
-31 8 -60 15 -63 15 -3 -1 -20 -14 -39 -30z m43 -99 c4 -5 9 -36 12 -68 7 -65
-16 -175 -42 -205 -17 -18 -155 -54 -178 -45 -9 4 -15 37 -20 114 -4 59 -9
122 -12 139 -5 30 -5 31 58 48 35 10 68 20 73 21 24 8 104 4 109 -4z"/>
<path d="M2230 1134 c-140 -30 -539 -98 -672 -114 -88 -11 -97 -14 -88 -30 35
-65 123 -92 218 -67 332 89 387 97 665 97 167 0 199 2 203 15 16 41 -81 108
-171 119 -23 3 -88 -5 -155 -20z"/>
</g>
</svg>
