<?xml version="1.0" standalone="no"?>
<!DOCTYPE svg PUBLIC "-//W3C//DTD SVG 20010904//EN"
 "http://www.w3.org/TR/2001/REC-SVG-20010904/DTD/svg10.dtd">
<svg version="1.0" xmlns="http://www.w3.org/2000/svg"
 width="340.000000pt" height="340.000000pt" viewBox="0 0 340.000000 340.000000"
 preserveAspectRatio="xMidYMid meet">
<metadata>
Created by potrace 1.15, written by Peter Selinger 2001-2017
</metadata>
<g transform="translate(0.000000,340.000000) scale(0.100000,-0.100000)"
fill="#000000" stroke="none">
<path d="M1082 2688 l3 -93 -85 -173 -84 -173 -36 6 c-19 3 -46 8 -60 11 -14
2 -34 -2 -45 -10 -19 -14 -19 -15 8 -98 41 -125 52 -243 38 -413 -12 -161 -40
-282 -76 -337 -28 -42 -31 -68 -14 -119 22 -66 28 -67 131 -16 141 69 334 114
517 119 66 2 73 0 98 -25 27 -27 28 -30 25 -130 -7 -274 -76 -503 -165 -545
-24 -12 -37 -10 -105 12 -42 13 -85 28 -94 31 -29 11 -21 -6 28 -65 25 -30 61
-83 80 -118 20 -34 45 -69 57 -77 118 -83 252 160 303 550 16 129 47 216 90
256 57 53 13 117 -125 182 -98 46 -96 46 -314 -8 -131 -32 -336 -69 -344 -61
-2 2 3 160 12 352 8 192 15 372 15 400 l0 50 88 11 c48 6 133 19 188 29 96 17
103 17 128 1 24 -16 26 -22 26 -95 0 -162 -43 -338 -97 -394 -26 -27 -30 -28
-85 -22 -64 7 -71 0 -33 -36 14 -13 41 -47 62 -77 53 -77 92 -73 158 17 45 61
83 170 125 358 21 96 39 151 60 185 34 55 31 70 -24 112 -39 29 -146 75 -177
75 -12 0 -83 -20 -158 -44 -76 -24 -160 -48 -187 -51 -47 -7 -48 -7 -33 11
115 139 282 333 298 348 29 26 26 57 -6 88 -33 31 -121 68 -164 68 l-29 0 2
-92z"/>
<path d="M2003 2663 c-19 -7 -16 -20 19 -71 98 -145 220 -262 275 -262 71 0
88 53 45 143 -16 34 -39 72 -51 85 -49 51 -246 123 -288 105z"/>
<path d="M2455 2249 c-199 -67 -369 -107 -566 -132 -33 -5 -37 -2 -60 35 -34
56 -56 66 -69 33 -6 -15 -10 -33 -10 -41 0 -30 -43 -141 -76 -195 -28 -47 -34
-66 -34 -114 0 -90 37 -147 83 -129 28 10 74 119 103 239 l27 115 38 0 c58 0
256 27 438 60 205 38 229 38 237 5 6 -25 -16 -105 -47 -167 -11 -21 -19 -40
-19 -43 0 -14 40 0 162 59 73 35 156 71 185 80 68 22 73 40 24 86 -38 37 -222
134 -271 144 -15 3 -74 -11 -145 -35z"/>
<path d="M1020 2032 c0 -28 58 -90 114 -122 76 -44 106 -38 106 22 0 34 -52
75 -124 97 -83 26 -96 26 -96 3z"/>
<path d="M2422 1723 c-5 -10 -12 -34 -16 -53 -10 -57 -134 -188 -286 -304 -87
-67 -84 -67 -77 -1 3 32 18 98 33 148 l28 90 -30 24 c-62 53 -134 74 -174 53
-21 -11 -18 -32 19 -110 19 -41 21 -64 21 -270 1 -241 13 -456 29 -518 25 -90
123 -159 269 -189 118 -24 361 -21 486 5 128 27 185 56 210 105 18 38 18 39
-3 101 -28 83 -61 232 -61 278 0 48 -18 94 -31 81 -5 -5 -18 -61 -29 -123 -25
-150 -57 -215 -124 -251 -74 -41 -154 -54 -311 -53 -210 1 -264 24 -306 132
-19 48 -23 82 -27 222 l-4 165 286 149 c176 91 293 157 302 171 26 39 -11 84
-111 134 -70 36 -81 37 -93 14z"/>
<path d="M1255 1149 c-72 -23 -431 -110 -550 -134 -71 -15 -168 -30 -215 -33
-72 -6 -85 -10 -88 -26 -7 -35 120 -146 166 -146 14 0 91 30 171 66 181 82
330 143 474 195 62 22 118 46 126 54 31 30 -18 44 -84 24z"/>
</g>
</svg>
