<?xml version="1.0" standalone="no"?>
<!DOCTYPE svg PUBLIC "-//W3C//DTD SVG 20010904//EN"
 "http://www.w3.org/TR/2001/REC-SVG-20010904/DTD/svg10.dtd">
<svg version="1.0" xmlns="http://www.w3.org/2000/svg"
 width="340.000000pt" height="340.000000pt" viewBox="0 0 340.000000 340.000000"
 preserveAspectRatio="xMidYMid meet">
<metadata>
Created by potrace 1.15, written by Peter Selinger 2001-2017
</metadata>
<g transform="translate(0.000000,340.000000) scale(0.100000,-0.100000)"
fill="#000000" stroke="none">
<path d="M2123 2829 c-8 -8 -10 -32 -6 -73 6 -68 1 -82 -110 -284 l-52 -94
-60 6 c-78 8 -95 -2 -76 -46 50 -121 55 -162 54 -428 -1 -277 -16 -418 -54
-497 -15 -31 -19 -52 -14 -75 17 -79 35 -84 127 -34 107 59 276 96 531 116 75
6 145 9 156 5 45 -14 63 -144 49 -356 -13 -217 -60 -359 -124 -375 -16 -4 -54
3 -102 20 -72 24 -122 33 -122 21 0 -3 29 -47 64 -98 35 -50 71 -107 80 -125
44 -86 97 -96 160 -29 95 98 147 250 186 532 25 188 45 281 71 332 10 21 19
45 19 55 0 31 -59 85 -138 125 -76 39 -78 40 -122 26 -111 -33 -557 -113 -634
-113 l-26 0 2 432 3 432 165 33 c91 19 178 32 195 31 49 -5 57 -34 51 -183 -7
-198 -40 -329 -95 -379 -19 -17 -26 -18 -78 -7 -33 6 -61 7 -66 2 -5 -5 8 -25
30 -47 22 -22 58 -67 81 -101 40 -59 54 -69 92 -63 44 6 108 116 136 236 8 37
19 136 23 219 9 158 28 231 72 271 26 24 24 60 -6 90 -28 28 -143 85 -172 85
-10 1 -49 -11 -88 -26 -71 -27 -239 -75 -263 -75 -22 0 42 74 170 200 65 64
118 123 118 132 0 51 -193 142 -227 107z"/>
<path d="M1260 2400 c-271 -54 -483 -86 -635 -98 -98 -7 -100 -7 -100 -32 0
-19 9 -29 35 -42 70 -33 126 -36 250 -12 244 48 694 104 837 104 44 0 58 5 79
25 20 20 23 29 14 45 -13 25 -126 60 -189 59 -25 0 -156 -22 -291 -49z"/>
<path d="M2092 2138 c-19 -19 -15 -35 25 -110 41 -79 68 -102 108 -92 53 13
72 94 33 142 -48 58 -136 90 -166 60z"/>
<path d="M1494 2059 c-72 -40 -154 -60 -224 -52 -35 3 -60 2 -64 -5 -3 -5 2
-27 11 -48 14 -32 18 -82 21 -275 4 -244 -6 -415 -35 -578 -14 -76 -15 -105
-6 -158 15 -84 27 -97 58 -61 48 55 56 128 67 608 5 245 11 446 13 448 2 2 65
18 192 47 44 10 48 -30 48 -545 0 -426 -2 -479 -17 -513 -20 -43 -25 -44 -78
-17 -67 34 -87 25 -49 -23 11 -15 36 -61 55 -102 66 -144 133 -117 182 72 15
60 17 124 17 533 0 461 0 465 22 510 12 25 28 53 35 62 10 14 9 21 -7 38 -21
24 -154 91 -176 89 -8 -1 -37 -14 -65 -30z"/>
<path d="M949 2009 c-19 -11 -73 -29 -119 -40 -76 -19 -91 -20 -153 -9 -87 15
-100 7 -69 -48 39 -69 52 -146 52 -299 0 -221 -24 -401 -75 -572 -28 -94 -21
-184 16 -214 18 -15 25 -16 35 -5 21 21 64 185 79 299 13 99 35 520 35 690 l0
76 75 16 c98 22 122 21 135 -3 22 -41 32 -238 27 -520 -5 -256 -13 -349 -31
-368 -4 -3 -24 -1 -46 5 -47 12 -52 9 -38 -26 6 -14 23 -60 38 -101 30 -81 49
-102 78 -84 44 28 89 162 99 297 3 43 0 208 -7 366 -13 309 -8 375 31 425 18
23 19 29 7 53 -14 28 -57 59 -105 72 -20 6 -38 3 -64 -10z"/>
<path d="M1402 1558 c5 -130 18 -178 49 -178 32 0 52 44 45 99 -13 96 -59 201
-89 201 -6 0 -8 -47 -5 -122z"/>
<path d="M824 1616 c-10 -27 0 -274 12 -287 18 -17 49 -2 64 29 7 15 14 56 17
92 5 82 -28 173 -65 178 -13 2 -24 -3 -28 -12z"/>
<path d="M2300 1146 c-205 -44 -456 -94 -515 -102 -33 -5 -60 -13 -60 -19 0
-5 23 -21 50 -35 64 -32 107 -31 265 3 205 43 341 58 448 47 100 -11 132 -4
132 29 0 40 -104 101 -172 100 -24 0 -90 -11 -148 -23z"/>
</g>
</svg>
