<?xml version="1.0" standalone="no"?>
<!DOCTYPE svg PUBLIC "-//W3C//DTD SVG 20010904//EN"
 "http://www.w3.org/TR/2001/REC-SVG-20010904/DTD/svg10.dtd">
<svg version="1.0" xmlns="http://www.w3.org/2000/svg"
 width="340.000000pt" height="340.000000pt" viewBox="0 0 340.000000 340.000000"
 preserveAspectRatio="xMidYMid meet">
<metadata>
Created by potrace 1.15, written by Peter Selinger 2001-2017
</metadata>
<g transform="translate(0.000000,340.000000) scale(0.100000,-0.100000)"
fill="#000000" stroke="none">
<path d="M2092 2876 c-1 -36 -6 -85 -13 -109 -13 -49 -119 -259 -152 -300 -22
-28 -23 -28 -75 -16 -74 18 -79 7 -37 -77 43 -84 55 -176 55 -424 0 -283 -21
-400 -90 -502 -35 -51 -37 -76 -9 -112 35 -45 64 -50 113 -21 65 38 276 104
405 126 63 10 174 22 247 26 l132 6 17 -27 c53 -80 10 -471 -70 -633 -58 -118
-111 -136 -245 -83 -131 52 -141 36 -49 -78 33 -41 74 -99 91 -128 77 -137
147 -136 254 2 24 30 55 79 69 108 36 73 80 261 109 463 25 173 50 249 90 282
20 17 20 44 0 87 -19 39 -74 81 -152 114 l-53 23 -167 -33 c-157 -31 -603
-100 -610 -95 -6 5 30 890 37 897 10 11 181 38 287 45 l100 6 22 -28 c20 -25
22 -39 22 -149 0 -146 -13 -233 -45 -303 -33 -72 -59 -87 -144 -81 -38 3 -74
2 -80 -1 -6 -4 32 -51 90 -110 112 -116 130 -123 181 -75 39 38 93 145 107
214 6 30 18 107 27 170 20 152 40 233 75 303 23 45 27 62 19 77 -13 25 -63 62
-125 93 -48 23 -52 24 -100 11 -117 -33 -400 -104 -412 -104 -24 0 -1 29 140
178 74 78 142 158 153 177 18 34 18 34 -6 60 -30 32 -113 73 -166 81 l-41 6
-1 -66z"/>
<path d="M1290 2815 c-10 -12 -7 -29 15 -90 27 -74 28 -80 22 -213 -4 -75 -10
-160 -13 -189 l-7 -51 -91 -17 c-50 -9 -105 -18 -122 -21 l-30 -6 0 154 1 153
-64 33 c-42 21 -78 32 -106 32 -63 0 -70 -16 -36 -81 48 -89 100 -306 77 -315
-6 -2 -60 -13 -120 -24 -60 -11 -112 -22 -115 -25 -13 -13 19 -41 65 -58 48
-17 129 -18 167 -2 18 7 19 -4 22 -212 l0 -38 -115 -17 c-63 -10 -189 -25
-280 -34 -149 -14 -179 -22 -180 -45 0 -17 44 -57 92 -83 l53 -29 190 52 c232
63 518 121 765 156 102 14 200 32 218 40 59 27 35 85 -44 101 -18 3 -76 -6
-149 -25 -66 -16 -121 -29 -122 -27 -2 2 28 248 31 253 1 1 49 9 106 18 58 9
112 18 122 21 25 7 30 34 13 61 -25 38 -59 46 -138 33 -37 -7 -71 -9 -74 -6
-4 3 15 93 40 199 26 105 47 200 47 209 0 36 -127 107 -191 108 -20 0 -42 -7
-49 -15z m-10 -768 c-8 -69 -18 -128 -21 -131 -6 -6 -162 -36 -187 -36 -10 0
-12 29 -10 127 l3 128 110 20 c61 12 112 20 115 19 3 -1 -1 -59 -10 -127z"/>
<path d="M2073 2224 c-9 -24 19 -73 77 -137 58 -64 89 -73 115 -33 15 22 15
28 0 63 -22 52 -72 101 -115 113 -50 14 -70 12 -77 -6z"/>
<path d="M1220 1634 c-132 -51 -248 -75 -326 -68 -45 4 -74 3 -78 -4 -3 -5 1
-27 10 -48 9 -21 21 -93 27 -160 9 -103 8 -147 -6 -276 -10 -84 -17 -167 -17
-184 0 -51 29 -133 59 -166 l28 -32 17 26 c9 14 20 55 24 90 l7 63 135 12 c74
6 138 8 142 5 3 -4 21 -49 39 -100 18 -52 39 -100 47 -108 13 -13 17 -12 38 7
39 36 73 118 79 189 4 36 10 169 14 295 7 221 8 232 35 290 23 51 25 63 15 87
-14 34 -79 74 -151 94 -66 17 -61 18 -138 -12z m90 -120 c12 -23 15 -74 15
-254 0 -220 -10 -310 -37 -326 -5 -4 -25 8 -43 26 -27 26 -39 31 -62 27 -15
-3 -57 -10 -93 -16 -36 -6 -77 -14 -92 -17 l-28 -6 0 112 c0 125 8 150 48 150
35 1 201 36 210 44 10 10 -11 39 -41 56 -22 12 -36 12 -94 2 -37 -6 -78 -15
-90 -18 -23 -6 -23 -5 -23 98 l0 105 80 17 c79 17 206 35 225 31 6 -1 17 -15
25 -31z"/>
<path d="M2230 1156 c-63 -13 -194 -39 -290 -59 -96 -19 -226 -42 -288 -50
-159 -20 -170 -40 -45 -87 51 -19 58 -19 117 -6 193 45 433 76 651 84 167 7
170 7 182 31 17 36 2 56 -61 80 -85 31 -138 33 -266 7z"/>
</g>
</svg>
