<?xml version="1.0" standalone="no"?>
<!DOCTYPE svg PUBLIC "-//W3C//DTD SVG 20010904//EN"
 "http://www.w3.org/TR/2001/REC-SVG-20010904/DTD/svg10.dtd">
<svg version="1.0" xmlns="http://www.w3.org/2000/svg"
 width="340.000000pt" height="340.000000pt" viewBox="0 0 340.000000 340.000000"
 preserveAspectRatio="xMidYMid meet">
<metadata>
Created by potrace 1.15, written by Peter Selinger 2001-2017
</metadata>
<g transform="translate(0.000000,340.000000) scale(0.100000,-0.100000)"
fill="#000000" stroke="none">
<path d="M2150 2710 c0 -94 -38 -181 -145 -333 -38 -54 -42 -56 -75 -51 -22 3
-42 0 -53 -8 -17 -13 -17 -17 7 -99 37 -128 50 -267 43 -464 -7 -188 -22 -270
-67 -352 -24 -45 -27 -59 -19 -87 5 -18 18 -41 29 -51 20 -18 22 -18 89 18 37
20 106 46 152 57 97 23 305 48 427 52 74 2 85 0 105 -20 21 -21 22 -31 21
-155 -1 -219 -57 -446 -122 -498 -31 -24 -67 -24 -123 0 -70 30 -98 34 -106
16 -3 -10 3 -24 15 -35 32 -30 81 -105 107 -165 55 -124 128 -109 234 51 78
116 115 259 141 544 9 95 16 126 41 179 26 52 29 67 21 87 -13 28 -74 68 -148
96 -51 20 -56 20 -111 5 -144 -39 -590 -105 -603 -88 -7 7 13 808 20 813 20
15 270 67 326 68 34 0 43 -4 52 -25 26 -56 -1 -365 -38 -452 -21 -49 -48 -60
-106 -44 -45 12 -94 14 -94 4 0 -4 22 -30 49 -58 27 -27 62 -72 78 -100 16
-27 37 -51 47 -53 30 -6 84 45 114 111 38 79 58 161 78 312 19 138 33 186 74
247 16 24 30 53 30 65 0 32 -62 78 -142 104 l-69 22 -77 -36 c-84 -40 -196
-72 -282 -82 l-55 -6 173 168 c120 117 172 175 172 190 0 46 -108 113 -182
113 -27 0 -28 -1 -28 -60z"/>
<path d="M1486 2459 c-67 -33 -88 -38 -138 -37 -71 2 -84 -8 -69 -54 16 -50
31 -236 31 -383 -1 -410 -59 -786 -155 -1005 -19 -43 -35 -89 -35 -102 1 -22
3 -21 31 12 45 53 156 284 185 385 14 50 32 134 41 188 l16 97 42 0 c64 0 105
18 105 45 0 38 -23 48 -92 41 l-61 -7 6 53 c4 29 7 85 7 124 l0 71 54 6 c68 7
96 21 96 50 0 47 -46 60 -114 32 l-36 -15 0 193 0 194 76 13 c68 10 78 10 93
-4 14 -15 16 -69 19 -489 4 -567 -10 -792 -54 -851 -12 -17 -15 -17 -71 2 -32
11 -62 17 -66 12 -5 -4 4 -32 19 -61 15 -30 39 -88 54 -129 16 -47 32 -76 43
-78 25 -5 97 76 128 145 46 100 50 160 42 568 -13 566 0 773 53 851 13 19 24
44 24 54 0 38 -54 76 -145 102 l-50 15 -79 -38z"/>
<path d="M940 2428 c-72 -29 -77 -30 -137 -18 -91 18 -93 17 -74 -77 23 -118
21 -627 -2 -783 -40 -257 -100 -455 -201 -665 -73 -151 -79 -165 -65 -165 16
0 76 69 133 155 105 156 151 272 202 508 l28 126 73 7 c101 9 126 34 76 74
-24 19 -36 21 -87 16 -57 -6 -58 -5 -52 17 3 12 6 66 6 119 l0 97 48 6 c75 10
90 14 106 31 21 20 20 30 -5 55 -21 21 -41 22 -119 3 l-25 -5 5 199 c3 110 7
203 10 206 10 9 149 28 160 21 22 -14 2 -1072 -23 -1197 -8 -36 -21 -78 -31
-93 -16 -24 -21 -25 -61 -19 -75 11 -81 3 -47 -58 16 -29 37 -74 47 -100 22
-59 45 -80 81 -76 39 4 70 63 96 181 18 82 21 143 28 562 8 501 14 571 65 733
23 71 23 72 4 96 -23 29 -114 76 -143 75 -12 -1 -55 -15 -96 -31z"/>
<path d="M2107 2076 c-12 -30 85 -134 139 -150 28 -9 58 25 50 57 -9 36 -46
78 -82 93 -44 18 -100 18 -107 0z"/>
<path d="M2176 1130 c-103 -22 -239 -46 -302 -54 -156 -20 -162 -26 -72 -72
l52 -26 75 16 c123 27 294 45 479 52 189 8 205 13 183 60 -17 37 -84 64 -161
63 -36 0 -150 -18 -254 -39z"/>
</g>
</svg>
