<?xml version="1.0" standalone="no"?>
<!DOCTYPE svg PUBLIC "-//W3C//DTD SVG 20010904//EN"
 "http://www.w3.org/TR/2001/REC-SVG-20010904/DTD/svg10.dtd">
<svg version="1.0" xmlns="http://www.w3.org/2000/svg"
 width="340.000000pt" height="340.000000pt" viewBox="0 0 340.000000 340.000000"
 preserveAspectRatio="xMidYMid meet">
<metadata>
Created by potrace 1.15, written by Peter Selinger 2001-2017
</metadata>
<g transform="translate(0.000000,340.000000) scale(0.100000,-0.100000)"
fill="#000000" stroke="none">
<path d="M2106 2851 c-4 -5 -1 -33 5 -61 6 -29 8 -65 5 -81 -6 -29 -99 -262
-115 -287 -7 -11 -19 -11 -68 -1 -32 7 -72 9 -87 5 -26 -6 -28 -10 -23 -44 2
-20 15 -73 27 -117 22 -75 23 -99 24 -360 1 -311 -5 -352 -64 -434 -27 -37
-31 -48 -25 -82 8 -44 39 -89 62 -89 9 0 45 14 81 31 164 77 371 124 601 135
120 6 127 5 154 -16 53 -42 60 -71 54 -215 -12 -274 -66 -446 -155 -498 l-34
-20 -101 32 c-56 17 -108 31 -114 31 -24 0 -13 -23 35 -79 67 -78 103 -127
141 -191 39 -64 46 -70 85 -70 68 0 180 178 235 374 17 59 42 178 56 264 31
185 49 271 71 330 34 92 -17 143 -186 185 -63 16 -69 16 -135 -3 -155 -45
-645 -133 -659 -119 -4 4 14 851 19 856 1 2 35 10 76 18 310 64 337 66 360 23
14 -27 13 -111 -6 -316 -14 -149 -16 -158 -41 -180 -15 -13 -33 -21 -42 -17
-8 3 -42 8 -74 12 -76 8 -75 -4 1 -73 32 -29 66 -70 76 -91 25 -55 44 -73 75
-73 33 0 93 62 121 125 23 51 45 181 59 345 12 143 29 211 65 264 14 20 25 45
25 54 0 44 -55 84 -169 123 l-55 19 -110 -49 c-118 -52 -253 -97 -263 -87 -7
7 81 123 176 231 75 85 85 111 55 154 -9 13 -32 29 -50 37 -37 16 -160 19
-168 5z"/>
<path d="M1157 2813 c-23 -6 -20 -29 13 -117 20 -55 21 -67 11 -139 -6 -44
-11 -83 -11 -87 0 -4 -19 -10 -42 -14 -24 -4 -80 -16 -125 -27 l-81 -20 -28
26 c-39 36 -60 32 -75 -12 -6 -21 -36 -84 -65 -141 -44 -84 -54 -112 -54 -152
0 -82 49 -90 103 -17 32 42 81 141 97 194 l13 42 91 21 c50 11 101 23 114 25
12 3 22 1 22 -4 0 -19 -71 -206 -117 -311 -140 -314 -313 -571 -553 -824 -56
-59 -99 -110 -96 -113 3 -3 23 5 43 19 135 89 340 289 443 431 30 42 59 76 64
76 12 1 -2 -373 -19 -526 -8 -68 -24 -165 -36 -215 -12 -51 -24 -110 -26 -131
-10 -78 34 -177 78 -177 28 0 37 43 75 367 5 41 6 41 39 36 20 -3 75 5 137 20
57 14 166 38 243 52 77 14 163 31 192 36 61 12 72 30 36 59 -31 24 -101 27
-163 5 -23 -8 -46 -12 -51 -9 -5 3 -9 43 -9 88 l0 84 84 26 c86 27 116 45 116
72 0 29 -42 36 -114 20 -37 -9 -71 -16 -77 -16 -5 0 -9 31 -9 70 l0 69 58 16
c112 30 137 40 140 57 6 32 -44 42 -115 24 -34 -9 -66 -16 -71 -16 -6 0 -6 21
0 51 10 55 -2 103 -28 113 -32 12 -8 24 88 40 186 33 222 51 182 90 -21 21
-91 20 -174 -3 -202 -55 -301 -81 -353 -91 -59 -12 -83 -33 -56 -52 14 -9 146
-4 185 7 27 8 33 -7 41 -106 l6 -77 -44 -12 c-24 -6 -64 -17 -89 -25 -25 -7
-57 -16 -72 -19 -35 -8 -36 -24 -2 -32 27 -7 142 1 182 12 21 6 22 4 22 -69
l0 -74 -62 -12 c-122 -23 -168 -40 -168 -61 0 -32 36 -43 119 -37 42 3 84 8
94 12 15 7 17 -1 17 -84 0 -86 -1 -91 -22 -96 -13 -3 -85 -18 -161 -34 l-138
-28 8 131 c4 72 8 201 8 286 0 141 -2 159 -23 202 l-23 46 41 64 c73 111 183
357 245 546 13 40 24 56 44 63 52 21 204 58 212 53 16 -9 9 -58 -16 -119 -26
-63 -30 -85 -17 -85 5 0 47 23 93 52 46 28 116 63 154 77 113 43 100 81 -54
153 -97 46 -98 46 -233 -11 -113 -48 -148 -58 -148 -41 0 7 24 58 53 112 l52
100 -42 38 c-55 48 -132 69 -196 53z"/>
<path d="M2090 2198 c0 -59 119 -208 165 -208 35 0 68 47 61 88 -9 60 -41 97
-102 121 -31 11 -71 21 -90 21 -29 0 -34 -4 -34 -22z"/>
<path d="M1283 2190 c-44 -18 -25 -47 79 -115 71 -46 115 -51 136 -14 36 62
-23 124 -128 133 -36 3 -75 1 -87 -4z"/>
<path d="M2245 1170 c-88 -15 -225 -39 -305 -53 -80 -14 -197 -31 -260 -38
-161 -17 -177 -40 -68 -95 58 -30 58 -30 223 1 213 39 435 66 620 74 95 4 177
11 184 15 20 13 12 33 -26 66 -78 69 -125 73 -368 30z"/>
</g>
</svg>
