<?xml version="1.0" standalone="no"?>
<!DOCTYPE svg PUBLIC "-//W3C//DTD SVG 20010904//EN"
 "http://www.w3.org/TR/2001/REC-SVG-20010904/DTD/svg10.dtd">
<svg version="1.0" xmlns="http://www.w3.org/2000/svg"
 width="340.000000pt" height="340.000000pt" viewBox="0 0 340.000000 340.000000"
 preserveAspectRatio="xMidYMid meet">
<metadata>
Created by potrace 1.15, written by Peter Selinger 2001-2017
</metadata>
<g transform="translate(0.000000,340.000000) scale(0.100000,-0.100000)"
fill="#000000" stroke="none">
<path d="M1590 2800 l-21 -21 33 -45 c49 -68 157 -167 211 -192 76 -36 124
-27 146 25 23 56 -31 158 -102 194 -117 60 -230 76 -267 39z"/>
<path d="M2035 2444 c-296 -73 -544 -126 -691 -148 -95 -14 -106 -13 -185 4
-92 21 -146 25 -168 11 -12 -8 -9 -22 21 -88 47 -102 51 -135 33 -289 -39
-337 -129 -668 -250 -920 -99 -209 -224 -384 -369 -522 -64 -60 -86 -99 -48
-85 30 11 164 103 232 158 163 133 317 368 415 629 45 121 107 363 131 509 11
69 21 107 29 107 7 0 43 -14 80 -31 64 -31 68 -31 123 -19 31 7 72 15 90 17
l32 5 0 -145 c0 -80 -4 -148 -9 -151 -5 -3 -53 -13 -107 -21 -145 -23 -159
-28 -159 -50 0 -24 50 -44 113 -44 24 -1 155 26 290 58 136 33 308 72 382 87
l135 28 31 -23 c55 -41 69 -31 179 131 55 80 117 166 138 191 74 90 35 156
-134 222 l-62 25 -87 -39 c-94 -43 -198 -76 -207 -67 -3 3 4 32 16 63 34 87
34 87 11 115 -22 28 -85 53 -164 64 -48 7 -49 6 -42 -17 31 -109 47 -261 28
-273 -14 -8 -255 -57 -260 -52 -2 3 3 34 13 69 14 52 15 69 5 87 -26 49 -200
98 -208 58 -2 -9 10 -35 26 -57 31 -43 61 -166 45 -182 -5 -5 -73 -12 -151
-17 l-142 -7 0 25 c0 29 47 330 52 335 2 2 69 11 151 20 323 35 991 165 1077
210 40 21 36 44 -10 67 -62 32 -141 23 -425 -48z m234 -518 c16 -19 8 -65 -37
-209 l-36 -118 -35 7 c-46 10 -100 7 -178 -9 -37 -8 -63 -10 -63 -4 0 23 62
302 68 308 6 6 197 34 253 38 9 1 22 -5 28 -13z m-404 -93 c-19 -145 -38 -262
-44 -271 -6 -9 -167 -42 -208 -42 -10 0 -13 35 -13 143 l0 143 123 31 c158 40
148 40 142 -4z"/>
<path d="M1884 1445 c-4 -8 -1 -44 6 -79 8 -43 11 -156 8 -352 l-3 -289 32
-65 c51 -106 126 -172 231 -202 90 -26 358 -36 481 -18 161 24 267 69 320 136
27 34 27 86 1 190 -10 43 -24 131 -30 194 -16 166 -39 177 -65 30 -18 -104
-29 -137 -71 -222 -55 -109 -107 -134 -323 -159 -123 -14 -212 -7 -307 22
-129 40 -174 117 -174 300 l0 98 58 16 c135 38 441 140 452 151 13 13 -41 79
-93 114 -72 49 -110 52 -131 13 -29 -55 -234 -233 -268 -233 -15 0 -8 39 20
117 36 99 46 148 33 172 -29 54 -163 104 -177 66z"/>
<path d="M1220 1292 c0 -16 10 -55 22 -88 19 -51 22 -79 22 -204 0 -123 -3
-153 -21 -196 -29 -74 -69 -122 -131 -156 -53 -30 -54 -32 -47 -67 13 -71 55
-131 90 -131 12 0 71 37 131 82 122 91 270 190 388 258 85 49 104 70 62 70
-31 0 -117 -32 -272 -100 -64 -29 -118 -49 -121 -47 -3 3 7 80 21 170 14 91
26 167 26 170 0 3 30 8 68 11 99 11 254 37 275 48 41 21 2 78 -54 78 -14 0
-74 -16 -132 -35 -58 -19 -115 -35 -126 -35 -18 0 -19 3 -9 24 8 20 7 32 -9
63 -27 52 -108 113 -150 113 -30 0 -33 -3 -33 -28z"/>
</g>
</svg>
