<?xml version="1.0" standalone="no"?>
<!DOCTYPE svg PUBLIC "-//W3C//DTD SVG 20010904//EN"
 "http://www.w3.org/TR/2001/REC-SVG-20010904/DTD/svg10.dtd">
<svg version="1.0" xmlns="http://www.w3.org/2000/svg"
 width="340.000000pt" height="340.000000pt" viewBox="0 0 340.000000 340.000000"
 preserveAspectRatio="xMidYMid meet">
<metadata>
Created by potrace 1.15, written by Peter Selinger 2001-2017
</metadata>
<g transform="translate(0.000000,340.000000) scale(0.100000,-0.100000)"
fill="#000000" stroke="none">
<path d="M1297 2325 c-21 -20 -11 -48 25 -69 16 -10 45 -32 64 -48 l35 -31 -6
-76 c-24 -316 -62 -517 -141 -753 l-37 -106 23 -31 c51 -73 124 -77 314 -18
227 71 434 104 706 113 157 5 179 4 210 -13 55 -29 59 -62 20 -180 -67 -205
-176 -452 -269 -611 -49 -85 -63 -88 -163 -46 -96 40 -128 21 -95 -59 33 -78
132 -157 197 -157 68 0 95 30 181 200 142 281 288 619 308 709 15 69 5 123
-33 180 -49 73 -83 84 -266 89 -127 4 -176 1 -265 -16 -61 -11 -177 -30 -260
-42 -82 -12 -211 -33 -285 -46 -74 -13 -140 -24 -146 -24 -8 0 -8 23 2 83 25
160 58 322 67 335 5 6 23 12 39 12 36 0 275 37 546 85 212 37 252 54 252 104
0 40 -17 51 -80 51 -69 0 -146 -13 -265 -45 -108 -30 -457 -115 -469 -115 -9
0 -1 54 26 170 15 63 19 109 16 175 -4 106 -24 150 -78 177 -45 23 -152 24
-173 3z"/>
<path d="M1950 963 c-14 -2 -162 -26 -330 -54 -168 -27 -393 -66 -500 -85
-107 -20 -250 -40 -317 -44 -66 -4 -126 -11 -133 -15 -18 -11 26 -52 77 -71
36 -14 68 -16 186 -11 152 5 196 13 352 58 145 41 512 89 690 89 65 0 132 24
140 51 7 22 -9 55 -33 67 -22 12 -100 21 -132 15z"/>
</g>
</svg>
