<?xml version="1.0" standalone="no"?>
<!DOCTYPE svg PUBLIC "-//W3C//DTD SVG 20010904//EN"
 "http://www.w3.org/TR/2001/REC-SVG-20010904/DTD/svg10.dtd">
<svg version="1.0" xmlns="http://www.w3.org/2000/svg"
 width="340.000000pt" height="340.000000pt" viewBox="0 0 340.000000 340.000000"
 preserveAspectRatio="xMidYMid meet">
<metadata>
Created by potrace 1.15, written by Peter Selinger 2001-2017
</metadata>
<g transform="translate(0.000000,340.000000) scale(0.100000,-0.100000)"
fill="#000000" stroke="none">
<path d="M2195 2309 c-296 -34 -665 -87 -935 -135 -107 -19 -240 -39 -295 -45
-55 -6 -119 -13 -142 -15 -23 -3 -53 -14 -68 -26 -25 -20 -26 -21 -8 -40 31
-34 95 -60 158 -65 49 -4 80 2 174 31 148 47 280 80 414 104 l108 20 11 -27
c52 -132 74 -308 59 -479 -5 -65 -13 -156 -16 -204 -4 -56 -12 -91 -21 -99 -7
-6 -46 -15 -86 -19 -78 -9 -267 -37 -306 -46 -22 -4 -23 -3 -17 28 4 18 25 85
46 149 47 140 69 290 50 336 -22 54 -67 88 -116 88 -24 0 -46 -3 -50 -6 -3 -4
4 -35 16 -70 16 -50 20 -80 17 -134 -6 -83 -58 -247 -117 -364 -48 -95 -51
-132 -16 -167 23 -23 32 -25 83 -22 31 2 111 21 177 42 240 75 558 125 818
129 136 2 145 1 200 -25 31 -15 60 -33 62 -40 7 -17 -45 -192 -92 -312 -78
-200 -273 -556 -305 -556 -5 0 -57 36 -115 80 -59 44 -114 80 -124 80 -31 0
-33 -42 -5 -98 33 -66 100 -130 176 -171 l62 -33 48 22 c27 13 65 39 85 60 84
86 405 810 405 913 0 43 -41 129 -74 155 -49 38 -91 45 -220 38 -113 -6 -339
-28 -425 -42 l-37 -6 3 144 c2 78 6 161 9 184 l5 41 132 6 c73 4 170 13 217
22 47 8 114 20 149 25 70 10 96 28 118 79 19 45 8 54 -71 59 -47 3 -81 -1
-128 -17 -66 -22 -395 -111 -410 -111 -4 0 -8 39 -8 88 0 69 -15 200 -33 284
-8 38 405 75 703 62 184 -8 186 -7 196 58 7 48 -7 61 -73 69 -88 11 -118 9
-388 -22z"/>
</g>
</svg>
