<?xml version="1.0" standalone="no"?>
<!DOCTYPE svg PUBLIC "-//W3C//DTD SVG 20010904//EN"
 "http://www.w3.org/TR/2001/REC-SVG-20010904/DTD/svg10.dtd">
<svg version="1.0" xmlns="http://www.w3.org/2000/svg"
 width="340.000000pt" height="340.000000pt" viewBox="0 0 340.000000 340.000000"
 preserveAspectRatio="xMidYMid meet">
<metadata>
Created by potrace 1.15, written by Peter Selinger 2001-2017
</metadata>
<g transform="translate(0.000000,340.000000) scale(0.100000,-0.100000)"
fill="#000000" stroke="none">
<path d="M2045 2078 c-128 -23 -526 -115 -685 -158 -96 -26 -195 -50 -220 -53
-29 -4 -51 -13 -63 -28 -17 -21 -17 -22 15 -45 52 -39 91 -41 207 -10 57 14
106 24 110 21 9 -10 14 -308 6 -401 l-7 -81 -36 -11 c-171 -49 -398 -116 -402
-120 -11 -9 53 -52 78 -52 15 0 96 14 180 31 84 18 154 30 157 28 6 -7 -32
-331 -50 -419 -8 -41 -18 -97 -22 -125 l-8 -50 -90 -13 c-49 -7 -209 -26 -355
-42 -214 -24 -273 -34 -309 -52 -25 -13 -47 -29 -49 -36 -7 -22 101 -63 181
-69 63 -5 97 0 243 35 426 103 751 146 1193 158 250 7 408 -3 588 -38 128 -24
151 -20 178 32 15 30 15 33 -1 51 -31 35 -121 71 -186 76 -35 3 -183 -5 -331
-16 -147 -12 -281 -21 -297 -21 -33 0 -32 -19 -10 175 12 97 75 380 176 788
72 290 77 340 39 386 -41 47 -144 74 -230 59z m80 -132 c36 -11 40 -15 37 -41
-9 -75 -96 -530 -137 -715 -26 -113 -55 -245 -66 -295 -11 -51 -35 -122 -56
-165 l-38 -75 -145 -11 c-80 -6 -187 -14 -239 -17 -92 -6 -93 -6 -87 16 53
178 106 449 106 538 0 19 4 39 8 45 4 7 48 19 97 28 99 19 230 56 300 86 49
21 56 40 29 78 -20 29 -62 29 -161 -2 -106 -34 -236 -67 -240 -62 -3 2 0 39 6
81 14 98 14 242 0 340 -6 42 -8 79 -6 82 12 11 149 53 222 68 168 33 305 41
370 21z"/>
</g>
</svg>
