<?xml version="1.0" standalone="no"?>
<!DOCTYPE svg PUBLIC "-//W3C//DTD SVG 20010904//EN"
 "http://www.w3.org/TR/2001/REC-SVG-20010904/DTD/svg10.dtd">
<svg version="1.0" xmlns="http://www.w3.org/2000/svg"
 width="340.000000pt" height="340.000000pt" viewBox="0 0 340.000000 340.000000"
 preserveAspectRatio="xMidYMid meet">
<metadata>
Created by potrace 1.15, written by Peter Selinger 2001-2017
</metadata>
<g transform="translate(0.000000,340.000000) scale(0.100000,-0.100000)"
fill="#000000" stroke="none">
<path d="M2010 2079 c-194 -49 -773 -150 -869 -153 -68 -1 -80 -10 -57 -41 13
-18 27 -20 193 -20 98 0 194 2 213 5 31 5 35 3 40 -25 4 -16 15 -46 26 -65 20
-37 26 -159 11 -231 l-7 -37 -158 -30 c-86 -17 -227 -41 -312 -53 -85 -12
-161 -26 -167 -32 -39 -30 14 -57 113 -57 62 0 293 36 427 66 38 9 71 13 74
10 8 -8 -14 -108 -39 -173 -10 -29 -45 -89 -76 -135 -105 -154 -180 -281 -175
-294 26 -67 218 122 323 319 l42 77 36 -22 c128 -77 341 -228 394 -279 17 -16
40 -29 50 -29 26 0 68 44 68 72 0 36 -64 124 -102 139 -18 8 -73 35 -123 61
-72 37 -202 88 -292 114 -8 2 -3 30 18 93 34 102 17 91 184 116 131 19 452 39
529 33 38 -4 87 -17 128 -36 l67 -30 -30 -114 c-48 -180 -117 -401 -176 -568
-31 -85 -57 -157 -59 -159 -1 -1 -19 9 -39 24 -23 18 -49 28 -73 29 l-37 1 -3
-54 c-4 -62 31 -146 75 -181 34 -26 102 -27 135 -1 34 28 48 63 137 361 44
146 107 346 141 445 33 99 60 191 60 206 0 105 -107 189 -242 189 -67 0 -407
-36 -572 -60 -200 -29 -182 -36 -178 70 4 95 -16 201 -43 230 -20 22 -19 37 3
44 32 10 248 45 318 51 83 8 151 30 164 55 6 10 10 32 10 49 l0 31 -57 -1
c-32 -1 -74 -5 -93 -10z"/>
<path d="M700 1458 c0 -9 14 -42 31 -74 69 -131 92 -181 124 -278 45 -134 72
-272 85 -436 14 -169 37 -213 85 -160 16 18 17 36 12 182 -8 253 -58 522 -117
638 -35 67 -108 121 -183 135 -29 6 -37 4 -37 -7z"/>
</g>
</svg>
