<?xml version="1.0" standalone="no"?>
<!DOCTYPE svg PUBLIC "-//W3C//DTD SVG 20010904//EN"
 "http://www.w3.org/TR/2001/REC-SVG-20010904/DTD/svg10.dtd">
<svg version="1.0" xmlns="http://www.w3.org/2000/svg"
 width="340.000000pt" height="340.000000pt" viewBox="0 0 340.000000 340.000000"
 preserveAspectRatio="xMidYMid meet">
<metadata>
Created by potrace 1.15, written by Peter Selinger 2001-2017
</metadata>
<g transform="translate(0.000000,340.000000) scale(0.100000,-0.100000)"
fill="#000000" stroke="none">
<path d="M1578 2499 c-26 -14 -22 -46 9 -83 49 -59 55 -88 61 -292 2 -106 2
-203 -1 -216 -6 -23 -13 -26 -76 -32 -100 -9 -349 -52 -470 -81 l-105 -25 -35
34 c-42 40 -86 63 -127 68 -28 3 -29 1 -28 -37 0 -30 11 -56 41 -100 88 -130
166 -314 208 -495 34 -144 43 -168 66 -181 27 -14 59 6 59 37 0 53 12 60 114
68 52 3 117 10 143 15 26 5 85 13 131 16 l82 8 0 -269 c0 -310 16 -674 31
-721 11 -34 38 -44 56 -20 18 22 33 252 44 641 5 209 12 382 14 385 8 7 269
30 435 37 162 7 200 17 221 55 9 18 6 26 -17 51 l-29 29 108 209 c59 115 107
216 107 225 0 26 -38 92 -66 114 -56 44 -86 45 -403 12 -163 -17 -311 -34
-328 -36 l-33 -6 0 128 c-1 183 -17 388 -32 413 -28 45 -136 75 -180 49z m742
-650 c47 -5 88 -13 92 -17 11 -11 -34 -175 -83 -310 -30 -80 -49 -118 -66
-129 -16 -11 -83 -22 -206 -34 -100 -10 -201 -20 -225 -23 l-42 -6 2 248 3
247 55 8 c30 4 123 12 205 16 83 4 157 9 165 10 9 0 54 -4 100 -10z m-673 -71
c10 -17 4 -429 -7 -448 -6 -11 -64 -22 -232 -42 -123 -14 -226 -23 -230 -20
-3 4 -20 60 -37 124 -17 64 -46 156 -63 205 -18 48 -33 93 -33 98 0 10 487 92
557 94 20 1 40 -5 45 -11z"/>
</g>
</svg>
