<?xml version="1.0" standalone="no"?>
<!DOCTYPE svg PUBLIC "-//W3C//DTD SVG 20010904//EN"
 "http://www.w3.org/TR/2001/REC-SVG-20010904/DTD/svg10.dtd">
<svg version="1.0" xmlns="http://www.w3.org/2000/svg"
 width="340.000000pt" height="340.000000pt" viewBox="0 0 340.000000 340.000000"
 preserveAspectRatio="xMidYMid meet">
<metadata>
Created by potrace 1.15, written by Peter Selinger 2001-2017
</metadata>
<g transform="translate(0.000000,340.000000) scale(0.100000,-0.100000)"
fill="#000000" stroke="none">
<path d="M1920 2158 c0 -34 7 -67 20 -90 l19 -36 -24 -89 c-59 -221 -171 -481
-297 -690 l-61 -102 -201 194 c-238 229 -295 277 -402 332 -129 67 -299 104
-311 67 -2 -6 29 -28 69 -49 261 -137 516 -338 719 -566 l61 -69 -72 -96
c-165 -217 -406 -438 -564 -517 -50 -26 -113 -65 -139 -88 -40 -34 -46 -44
-35 -56 22 -27 96 -11 211 46 207 102 353 224 543 456 69 85 128 155 131 155
3 0 139 -137 304 -304 293 -297 301 -305 373 -335 102 -42 182 -60 308 -68 90
-5 111 -3 132 11 30 19 33 46 9 69 -10 8 -56 24 -103 35 -236 56 -450 168
-607 318 -33 33 -127 130 -208 216 l-146 158 67 107 c171 271 376 754 376 885
0 82 -48 137 -134 152 l-38 7 0 -53z"/>
<path d="M1190 2045 c0 -10 16 -32 35 -49 19 -17 90 -84 157 -148 102 -99 126
-118 152 -118 44 0 76 25 76 59 0 91 -221 253 -366 268 -47 5 -54 4 -54 -12z"/>
</g>
</svg>
