<?xml version="1.0" standalone="no"?>
<!DOCTYPE svg PUBLIC "-//W3C//DTD SVG 20010904//EN"
 "http://www.w3.org/TR/2001/REC-SVG-20010904/DTD/svg10.dtd">
<svg version="1.0" xmlns="http://www.w3.org/2000/svg"
 width="340.000000pt" height="340.000000pt" viewBox="0 0 340.000000 340.000000"
 preserveAspectRatio="xMidYMid meet">
<metadata>
Created by potrace 1.15, written by Peter Selinger 2001-2017
</metadata>
<g transform="translate(0.000000,340.000000) scale(0.100000,-0.100000)"
fill="#000000" stroke="none">
<path d="M1301 2099 c9 -13 31 -34 50 -46 19 -12 52 -36 74 -52 89 -65 267
-151 314 -151 21 0 51 44 51 74 0 70 -223 169 -435 191 l-69 8 15 -24z"/>
<path d="M2140 1814 c-90 -34 -128 -45 -520 -148 -403 -105 -678 -166 -742
-164 -59 2 -113 -22 -105 -45 2 -6 25 -23 52 -36 95 -50 238 -25 617 104 179
62 571 155 586 141 1 -2 -21 -25 -51 -52 -99 -91 -457 -330 -722 -482 -191
-110 -224 -132 -247 -169 l-19 -32 38 11 c52 14 173 63 235 94 99 50 741 443
1027 629 97 62 101 67 101 101 0 90 -96 109 -250 48z"/>
<path d="M708 910 c-82 -10 -149 -31 -145 -44 6 -17 40 -24 180 -36 405 -35
839 -156 1255 -349 166 -78 248 -96 427 -96 193 1 342 34 364 82 23 51 12 54
-341 84 -178 16 -341 33 -363 38 -22 6 -74 15 -115 21 -43 7 -124 31 -190 57
-347 138 -784 255 -943 252 -39 -1 -98 -5 -129 -9z"/>
</g>
</svg>
