<?xml version="1.0" standalone="no"?>
<!DOCTYPE svg PUBLIC "-//W3C//DTD SVG 20010904//EN"
 "http://www.w3.org/TR/2001/REC-SVG-20010904/DTD/svg10.dtd">
<svg version="1.0" xmlns="http://www.w3.org/2000/svg"
 width="340.000000pt" height="340.000000pt" viewBox="0 0 340.000000 340.000000"
 preserveAspectRatio="xMidYMid meet">
<metadata>
Created by potrace 1.15, written by Peter Selinger 2001-2017
</metadata>
<g transform="translate(0.000000,340.000000) scale(0.100000,-0.100000)"
fill="#000000" stroke="none">
<path d="M1521 2513 c19 -84 13 -106 -60 -216 -39 -57 -99 -152 -135 -212 -76
-127 -75 -115 -51 -382 16 -184 9 -316 -25 -459 -28 -119 -27 -149 9 -185 39
-39 96 -39 221 0 123 39 269 75 402 100 144 28 404 54 453 46 52 -8 118 -47
149 -88 l25 -33 -24 -106 c-36 -163 -89 -310 -165 -463 -96 -195 -83 -183
-161 -147 -35 16 -79 41 -98 56 -42 31 -101 36 -101 9 0 -59 114 -214 182
-249 36 -19 94 -18 128 3 76 45 256 451 331 747 53 208 30 287 -103 355 -109
55 -138 54 -608 -29 -223 -39 -427 -75 -455 -80 -27 -4 -52 -7 -54 -4 -2 2 2
128 9 281 14 296 14 291 -36 460 -8 29 7 36 173 77 147 37 235 51 402 62 116
7 121 5 121 -59 0 -54 -41 -171 -110 -315 -58 -121 -60 -122 -87 -115 -71 20
-163 -1 -163 -37 0 -27 42 -82 78 -103 78 -46 150 -39 200 17 56 64 151 289
202 479 l30 111 -25 42 c-45 77 -119 124 -196 124 -48 0 -343 -81 -451 -124
-60 -24 -108 -40 -108 -35 0 17 74 114 129 170 71 70 118 160 127 241 7 56 6
57 -27 77 -23 14 -51 21 -85 21 l-52 0 9 -37z"/>
<path d="M1706 875 c-439 -80 -881 -169 -894 -180 -10 -9 -9 -15 2 -30 13 -18
29 -20 143 -23 119 -4 140 -1 278 32 265 62 452 90 677 102 68 3 138 10 156
16 44 13 66 47 52 82 -22 59 -93 59 -414 1z"/>
</g>
</svg>
