<?xml version="1.0" standalone="no"?>
<!DOCTYPE svg PUBLIC "-//W3C//DTD SVG 20010904//EN"
 "http://www.w3.org/TR/2001/REC-SVG-20010904/DTD/svg10.dtd">
<svg version="1.0" xmlns="http://www.w3.org/2000/svg"
 width="340.000000pt" height="340.000000pt" viewBox="0 0 340.000000 340.000000"
 preserveAspectRatio="xMidYMid meet">
<metadata>
Created by potrace 1.15, written by Peter Selinger 2001-2017
</metadata>
<g transform="translate(0.000000,340.000000) scale(0.100000,-0.100000)"
fill="#000000" stroke="none">
<path d="M1967 2379 c-9 -6 -17 -18 -17 -27 0 -39 -35 -74 -105 -104 -145 -61
-476 -181 -659 -238 -104 -33 -194 -64 -200 -70 -7 -7 -6 -14 1 -21 23 -23
459 73 751 165 75 24 163 51 195 60 74 22 181 94 185 125 5 34 -18 80 -47 95
-38 19 -84 26 -104 15z"/>
<path d="M1445 1849 c-9 -27 -6 -30 113 -98 75 -44 137 -69 214 -85 30 -7 42
14 40 69 -2 65 -123 121 -283 132 -74 6 -77 5 -84 -18z"/>
<path d="M2230 1677 c-7 -8 -555 -167 -949 -276 -315 -88 -325 -90 -402 -84
-87 7 -101 -3 -83 -55 17 -48 67 -67 174 -66 104 0 144 12 328 93 202 89 541
190 810 241 106 20 147 20 112 -2 -176 -107 -810 -451 -1142 -618 l-257 -130
-88 -1 c-91 0 -237 -20 -250 -33 -5 -4 2 -16 14 -25 15 -13 48 -20 115 -25
200 -15 536 -76 753 -137 239 -68 440 -144 677 -255 197 -93 258 -107 448
-107 107 1 180 6 235 18 76 16 182 49 193 59 2 3 -3 17 -12 31 -16 25 -18 25
-146 25 -307 0 -595 43 -800 120 -215 81 -502 175 -762 250 -132 38 -242 71
-244 73 -2 2 135 68 304 147 169 79 485 230 703 337 217 106 401 193 407 193
26 0 91 40 111 68 11 16 23 47 27 69 l6 41 -58 22 c-55 21 -212 40 -224 27z"/>
</g>
</svg>
