<?xml version="1.0" standalone="no"?>
<!DOCTYPE svg PUBLIC "-//W3C//DTD SVG 20010904//EN"
 "http://www.w3.org/TR/2001/REC-SVG-20010904/DTD/svg10.dtd">
<svg version="1.0" xmlns="http://www.w3.org/2000/svg"
 width="340.000000pt" height="340.000000pt" viewBox="0 0 340.000000 340.000000"
 preserveAspectRatio="xMidYMid meet">
<metadata>
Created by potrace 1.15, written by Peter Selinger 2001-2017
</metadata>
<g transform="translate(0.000000,340.000000) scale(0.100000,-0.100000)"
fill="#000000" stroke="none">
<path d="M1483 2302 c-6 -4 -13 -20 -15 -36 -3 -26 -14 -34 -139 -90 -220
-101 -499 -264 -499 -292 0 -24 41 -16 174 31 70 25 136 45 147 45 15 0 27
-16 47 -57 25 -53 27 -70 30 -204 l4 -145 -154 -58 c-478 -182 -582 -217 -618
-211 -46 8 -80 -15 -64 -42 6 -10 31 -29 55 -43 34 -19 57 -25 104 -24 55 1
75 9 245 96 156 79 377 169 416 168 8 0 7 -20 -2 -67 -7 -38 -16 -108 -19
-158 -11 -162 0 -145 -125 -184 l-110 -35 -29 22 c-41 30 -75 37 -90 18 -10
-12 -5 -31 29 -108 89 -196 174 -444 205 -598 12 -59 33 -92 58 -88 21 3 22 9
25 95 l3 92 57 11 c375 73 407 83 400 132 -3 21 -16 31 -52 42 -29 10 -16 67
42 193 50 107 92 228 92 263 0 28 -49 81 -95 101 -54 25 -99 23 -170 -7 -55
-23 -157 -55 -162 -50 -1 1 11 50 27 110 16 60 35 144 41 187 l12 78 76 16
c82 18 311 92 324 104 13 13 -11 61 -38 73 -29 13 -18 15 -220 -46 -66 -20
-123 -36 -128 -36 -4 0 -7 66 -6 148 3 166 -4 190 -67 238 -41 32 -38 34 53
58 77 19 151 55 221 107 43 33 52 45 52 70 0 60 -88 112 -137 81z m64 -1277
c3 -9 -15 -71 -39 -138 -25 -67 -55 -158 -67 -203 l-23 -81 -76 -17 c-43 -9
-104 -30 -137 -46 -33 -16 -60 -28 -61 -27 -1 1 -16 55 -32 119 -25 94 -67
210 -118 324 -4 8 22 13 78 17 46 3 155 19 243 35 189 35 223 38 232 17z"/>
<path d="M2063 2273 c-19 -7 -16 -31 7 -63 52 -73 53 -84 25 -293 -32 -250
-69 -600 -95 -910 -23 -273 -20 -324 26 -404 32 -55 96 -109 159 -132 119 -45
428 -51 615 -13 80 16 86 19 116 59 45 59 60 136 44 225 -8 46 -19 75 -37 94
l-26 28 -18 -22 c-20 -25 -49 -142 -49 -197 0 -32 -4 -38 -34 -50 -19 -8 -77
-22 -128 -31 -149 -26 -299 -10 -446 49 -67 26 -79 46 -113 182 -28 113 -31
308 -7 435 9 47 29 166 43 265 15 99 44 276 66 393 21 116 39 225 39 242 0 47
-30 109 -59 124 -29 15 -109 27 -128 19z"/>
</g>
</svg>
