<?xml version="1.0" standalone="no"?>
<!DOCTYPE svg PUBLIC "-//W3C//DTD SVG 20010904//EN"
 "http://www.w3.org/TR/2001/REC-SVG-20010904/DTD/svg10.dtd">
<svg version="1.0" xmlns="http://www.w3.org/2000/svg"
 width="340.000000pt" height="340.000000pt" viewBox="0 0 340.000000 340.000000"
 preserveAspectRatio="xMidYMid meet">
<metadata>
Created by potrace 1.15, written by Peter Selinger 2001-2017
</metadata>
<g transform="translate(0.000000,340.000000) scale(0.100000,-0.100000)"
fill="#000000" stroke="none">
<path d="M1970 2401 c-107 -32 -262 -80 -345 -106 -82 -25 -222 -67 -310 -92
-146 -41 -169 -45 -262 -44 -56 1 -104 -3 -107 -8 -13 -20 18 -58 82 -100 57
-39 76 -46 129 -49 61 -4 67 -2 220 71 234 112 447 181 687 223 124 21 128 12
40 -79 -93 -95 -203 -221 -288 -329 -37 -49 -72 -88 -77 -88 -5 0 -26 8 -47
19 -41 20 -140 46 -148 38 -14 -13 14 -62 75 -131 127 -141 174 -266 193 -509
18 -227 -10 -501 -74 -716 l-22 -73 -38 5 c-21 3 -59 19 -85 36 -54 36 -76 38
-103 11 -36 -36 -27 -78 30 -131 87 -82 136 -109 195 -109 42 0 60 6 92 29 39
28 41 33 72 158 55 227 81 437 81 663 0 250 -29 402 -105 557 l-44 88 107 108
c59 60 170 163 247 230 228 199 245 217 245 265 0 63 -29 88 -122 107 -42 8
-87 15 -100 14 -13 0 -111 -26 -218 -58z"/>
</g>
</svg>
