<?xml version="1.0" standalone="no"?>
<!DOCTYPE svg PUBLIC "-//W3C//DTD SVG 20010904//EN"
 "http://www.w3.org/TR/2001/REC-SVG-20010904/DTD/svg10.dtd">
<svg version="1.0" xmlns="http://www.w3.org/2000/svg"
 width="340.000000pt" height="340.000000pt" viewBox="0 0 340.000000 340.000000"
 preserveAspectRatio="xMidYMid meet">
<metadata>
Created by potrace 1.15, written by Peter Selinger 2001-2017
</metadata>
<g transform="translate(0.000000,340.000000) scale(0.100000,-0.100000)"
fill="#000000" stroke="none">
<path d="M1985 2144 c-195 -60 -533 -126 -767 -150 -56 -5 -68 -10 -68 -24 0
-39 23 -43 183 -37 224 9 502 48 722 102 138 34 174 65 144 121 -18 34 -76 30
-214 -12z"/>
<path d="M1965 1704 c-104 -18 -284 -51 -400 -73 -115 -22 -260 -47 -321 -56
-107 -15 -112 -15 -155 4 -82 38 -87 27 -31 -63 55 -87 100 -207 208 -551 52
-166 66 -200 81 -199 10 1 72 9 138 17 66 9 219 26 340 38 121 12 225 26 232
31 43 33 321 546 347 640 8 29 18 78 21 109 7 55 6 57 -27 82 -88 68 -154 71
-433 21z m247 -100 c14 -8 13 -20 -8 -114 -37 -166 -100 -378 -138 -465 l-35
-80 -83 -7 c-258 -23 -324 -31 -437 -54 -86 -17 -126 -21 -131 -14 -4 6 -17
68 -29 138 -12 70 -24 139 -27 154 -6 33 -10 32 166 47 142 13 407 64 451 87
33 16 35 40 7 58 -23 14 -236 -13 -467 -59 -96 -20 -177 -32 -181 -28 -4 5
-12 28 -19 53 -7 25 -30 78 -52 118 -21 41 -39 75 -39 77 0 2 62 5 138 7 82 3
204 15 302 31 91 15 224 35 295 46 131 20 258 22 287 5z"/>
<path d="M2340 584 c-510 -40 -1071 -97 -1449 -148 -141 -20 -192 -23 -247
-16 -114 15 -144 13 -144 -9 0 -25 51 -68 118 -99 74 -34 155 -32 308 7 127
32 310 63 629 106 293 39 400 46 670 46 281 -1 443 -12 513 -37 59 -21 112
-13 153 24 l30 27 -31 37 c-17 21 -48 43 -73 52 -61 22 -272 26 -477 10z"/>
</g>
</svg>
