<?xml version="1.0" standalone="no"?>
<!DOCTYPE svg PUBLIC "-//W3C//DTD SVG 20010904//EN"
 "http://www.w3.org/TR/2001/REC-SVG-20010904/DTD/svg10.dtd">
<svg version="1.0" xmlns="http://www.w3.org/2000/svg"
 width="340.000000pt" height="340.000000pt" viewBox="0 0 340.000000 340.000000"
 preserveAspectRatio="xMidYMid meet">
<metadata>
Created by potrace 1.15, written by Peter Selinger 2001-2017
</metadata>
<g transform="translate(0.000000,340.000000) scale(0.100000,-0.100000)"
fill="#000000" stroke="none">
<path d="M1473 2453 c-30 -6 -35 -27 -17 -73 20 -51 16 -62 -86 -225 -190
-304 -458 -592 -750 -807 -41 -31 -82 -64 -91 -74 -22 -25 -42 -65 -36 -70 7
-8 112 42 164 77 63 43 245 195 359 300 131 120 300 303 416 448 55 70 104
130 109 135 11 12 196 -129 364 -277 72 -63 209 -195 305 -293 127 -130 193
-189 240 -217 138 -80 347 -120 420 -79 19 11 35 23 34 28 -1 20 -96 72 -160
88 -93 23 -254 101 -366 178 -56 38 -156 124 -253 218 -214 209 -338 306 -482
379 -66 33 -71 41 -48 81 19 33 19 100 -1 128 -13 19 -87 65 -96 61 -2 -1 -13
-4 -25 -6z"/>
<path d="M1742 1794 c-30 -21 -28 -42 8 -84 17 -19 35 -51 40 -70 10 -40 48
-736 60 -1115 6 -192 12 -263 25 -307 10 -32 22 -58 26 -58 5 0 17 12 26 27
17 25 18 71 15 743 -2 415 -8 731 -13 753 -13 50 -62 104 -107 117 -49 13 -54
13 -80 -6z"/>
<path d="M1146 1664 c-13 -34 -5 -82 19 -115 89 -124 107 -266 61 -509 -40
-213 -100 -357 -222 -536 -44 -64 -68 -110 -71 -136 -7 -49 3 -49 69 5 156
127 277 374 343 701 68 340 41 468 -122 573 -59 37 -68 40 -77 17z"/>
</g>
</svg>
