<?xml version="1.0" standalone="no"?>
<!DOCTYPE svg PUBLIC "-//W3C//DTD SVG 20010904//EN"
 "http://www.w3.org/TR/2001/REC-SVG-20010904/DTD/svg10.dtd">
<svg version="1.0" xmlns="http://www.w3.org/2000/svg"
 width="340.000000pt" height="340.000000pt" viewBox="0 0 340.000000 340.000000"
 preserveAspectRatio="xMidYMid meet">
<metadata>
Created by potrace 1.15, written by Peter Selinger 2001-2017
</metadata>
<g transform="translate(0.000000,340.000000) scale(0.100000,-0.100000)"
fill="#000000" stroke="none">
<path d="M1565 2292 c-32 -6 -38 -17 -39 -75 -1 -51 -7 -63 -85 -178 -226
-333 -453 -609 -730 -886 -135 -135 -171 -177 -171 -197 0 -22 3 -25 18 -17
32 17 136 96 201 154 139 121 609 645 808 901 l23 29 87 -79 c128 -117 408
-380 568 -535 77 -74 161 -148 186 -162 100 -59 246 -89 353 -73 44 7 46 8 46
41 0 40 -26 62 -82 72 -56 8 -269 115 -378 188 -53 36 -147 112 -210 171 -150
139 -269 238 -411 344 l-117 86 19 25 c31 39 40 87 25 123 -19 45 -70 77 -111
68z"/>
<path d="M1783 1394 c-7 -3 -13 -16 -13 -30 0 -54 -32 -103 -123 -186 -85 -78
-223 -188 -236 -188 -3 0 -5 45 -3 101 5 163 -41 280 -105 267 -17 -3 -18 -22
-21 -263 -1 -143 -4 -310 -5 -371 -2 -109 -2 -111 35 -185 68 -138 154 -192
371 -234 154 -29 400 -12 542 38 84 29 145 160 145 309 0 98 -18 137 -62 138
-20 0 -73 -141 -90 -242 -14 -80 -8 -75 -143 -111 -65 -17 -110 -21 -240 -22
l-160 0 -75 36 c-41 20 -99 57 -127 83 -64 58 -87 120 -87 240 -1 67 2 80 19
92 11 8 71 48 133 89 118 78 224 160 323 253 52 48 59 59 59 93 0 53 -33 89
-85 94 -22 3 -46 2 -52 -1z"/>
</g>
</svg>
