<?xml version="1.0" standalone="no"?>
<!DOCTYPE svg PUBLIC "-//W3C//DTD SVG 20010904//EN"
 "http://www.w3.org/TR/2001/REC-SVG-20010904/DTD/svg10.dtd">
<svg version="1.0" xmlns="http://www.w3.org/2000/svg"
 width="340.000000pt" height="340.000000pt" viewBox="0 0 340.000000 340.000000"
 preserveAspectRatio="xMidYMid meet">
<metadata>
Created by potrace 1.15, written by Peter Selinger 2001-2017
</metadata>
<g transform="translate(0.000000,340.000000) scale(0.100000,-0.100000)"
fill="#000000" stroke="none">
<path d="M1099 2363 c-3 -40 4 -69 21 -93 l19 -26 -61 -100 c-119 -195 -261
-385 -435 -579 -113 -126 -126 -149 -104 -184 8 -12 24 -4 83 41 73 56 220
202 270 268 15 19 29 32 32 29 3 -3 9 -101 15 -219 14 -321 -2 -614 -50 -915
-12 -71 -24 -158 -26 -191 -5 -56 -3 -63 18 -78 13 -9 31 -16 40 -16 46 0 84
219 119 680 13 174 12 595 -1 645 -7 25 -28 56 -56 83 l-44 43 43 52 c145 172
298 401 298 447 0 78 -56 130 -139 130 -32 0 -41 -4 -42 -17z"/>
<path d="M2105 2274 c-138 -42 -618 -167 -655 -169 -19 -2 -38 -3 -42 -4 -5
-1 -8 -12 -8 -26 0 -20 6 -25 36 -31 71 -13 216 3 354 40 140 37 368 81 377
73 7 -8 -26 -56 -87 -127 -72 -83 -157 -192 -199 -253 -27 -40 -35 -46 -51
-37 -10 5 -28 10 -39 10 -37 0 -24 -42 38 -125 53 -69 109 -181 97 -192 -2 -2
-107 -26 -233 -53 -125 -27 -275 -60 -333 -74 -58 -13 -118 -22 -134 -19 -30
6 -48 -10 -39 -34 3 -7 30 -20 61 -29 77 -23 191 -14 310 25 112 36 252 67
343 77 l66 6 13 -93 c16 -117 16 -339 1 -444 -15 -97 -55 -256 -85 -333 -32
-82 -64 -84 -178 -9 -62 41 -132 66 -146 53 -12 -12 21 -89 53 -125 33 -37
167 -122 213 -136 33 -10 84 11 119 48 37 37 68 138 110 347 25 121 28 157 28
345 0 116 -2 244 -5 285 l-5 75 55 9 c30 5 195 8 367 8 l311 0 12 28 c15 37 6
64 -27 79 -41 19 -255 33 -383 26 -111 -6 -307 -29 -342 -41 -12 -3 -20 1 -24
13 -20 57 -65 144 -94 176 l-32 37 58 72 c33 40 132 145 221 234 169 169 188
197 162 242 -40 71 -132 87 -264 46z"/>
</g>
</svg>
