<?xml version="1.0" standalone="no"?>
<!DOCTYPE svg PUBLIC "-//W3C//DTD SVG 20010904//EN"
 "http://www.w3.org/TR/2001/REC-SVG-20010904/DTD/svg10.dtd">
<svg version="1.0" xmlns="http://www.w3.org/2000/svg"
 width="340.000000pt" height="340.000000pt" viewBox="0 0 340.000000 340.000000"
 preserveAspectRatio="xMidYMid meet">
<metadata>
Created by potrace 1.15, written by Peter Selinger 2001-2017
</metadata>
<g transform="translate(0.000000,340.000000) scale(0.100000,-0.100000)"
fill="#000000" stroke="none">
<path d="M1992 2574 c-30 -21 -28 -56 6 -95 l27 -33 -2 -206 c-2 -113 -6 -260
-9 -327 l-6 -121 -78 -21 c-43 -12 -104 -25 -136 -29 -55 -7 -89 -30 -70 -49
4 -4 70 -8 147 -8 l139 0 0 -187 c0 -186 0 -188 -22 -192 -13 -3 -72 -12 -133
-21 -60 -9 -195 -32 -300 -52 -131 -24 -217 -34 -276 -33 -102 1 -118 -9 -90
-57 24 -38 112 -83 163 -83 21 0 71 11 111 25 133 47 442 115 522 115 l22 0 7
-297 c9 -413 25 -722 37 -745 16 -29 42 -18 50 22 18 89 30 461 23 746 l-7
302 29 6 c177 37 547 34 671 -5 41 -13 67 0 82 42 13 38 -6 83 -41 93 -13 4
-106 10 -208 13 -143 4 -212 1 -305 -12 -200 -28 -210 -28 -222 -14 -7 10 -9
69 -5 187 5 165 6 172 26 177 11 2 80 16 151 30 221 43 228 45 239 82 23 82
-41 82 -388 -1 -19 -5 -19 2 -12 252 4 141 11 295 14 341 6 70 5 88 -10 112
-32 53 -102 74 -146 43z"/>
<path d="M1090 2334 c0 -29 14 -60 41 -89 18 -20 18 -22 -29 -100 -124 -206
-326 -488 -496 -692 -46 -57 -88 -112 -91 -124 -7 -21 7 -39 31 -39 19 0 255
249 349 369 50 63 113 142 141 175 83 100 141 183 200 287 46 81 55 104 49
128 -14 67 -77 111 -155 111 -36 0 -40 -2 -40 -26z"/>
<path d="M1580 2169 c0 -16 11 -54 25 -84 18 -36 24 -62 19 -79 -3 -14 -42
-81 -86 -148 -83 -129 -218 -388 -218 -420 0 -23 23 -33 47 -20 18 10 367 501
397 559 24 47 20 102 -9 145 -28 41 -96 78 -143 78 -29 0 -32 -3 -32 -31z"/>
<path d="M1023 1728 c-4 -7 -8 -92 -9 -189 -4 -282 -37 -674 -83 -977 -22
-139 -18 -185 15 -190 39 -6 53 19 78 143 47 233 82 580 93 922 7 221 2 248
-47 283 -33 23 -36 24 -47 8z"/>
</g>
</svg>
