<?xml version="1.0" standalone="no"?>
<!DOCTYPE svg PUBLIC "-//W3C//DTD SVG 20010904//EN"
 "http://www.w3.org/TR/2001/REC-SVG-20010904/DTD/svg10.dtd">
<svg version="1.0" xmlns="http://www.w3.org/2000/svg"
 width="340.000000pt" height="340.000000pt" viewBox="0 0 340.000000 340.000000"
 preserveAspectRatio="xMidYMid meet">
<metadata>
Created by potrace 1.15, written by Peter Selinger 2001-2017
</metadata>
<g transform="translate(0.000000,340.000000) scale(0.100000,-0.100000)"
fill="#000000" stroke="none">
<path d="M1230 2340 c-23 -23 -25 -48 -9 -84 10 -22 5 -34 -56 -123 -155 -224
-428 -578 -571 -739 -72 -81 -104 -144 -73 -144 18 0 99 60 168 126 79 74 648
740 673 787 34 63 17 146 -36 181 -34 22 -72 20 -96 -4z"/>
<path d="M2272 2296 c-11 -18 -30 -41 -43 -51 -13 -9 -172 -81 -354 -159 -333
-143 -372 -166 -310 -182 52 -13 473 110 721 210 99 40 114 56 114 124 0 47
-8 58 -53 77 -49 20 -52 20 -75 -19z"/>
<path d="M1903 1898 c-23 -29 -25 -59 -4 -101 17 -36 20 -66 23 -211 l3 -169
-162 -33 c-89 -18 -221 -47 -295 -65 -73 -18 -144 -33 -158 -35 -14 -1 -31 -2
-38 -3 -8 0 -12 -10 -10 -23 5 -34 60 -43 191 -29 60 6 169 26 241 45 72 19
155 36 184 39 l52 4 0 -301 0 -301 -212 -39 c-117 -22 -224 -42 -238 -46 l-25
-6 29 -29 c27 -27 30 -28 109 -22 45 4 132 13 192 22 186 26 472 37 633 24
141 -11 143 -11 167 11 12 12 25 33 28 46 4 21 -2 28 -43 49 -76 39 -156 47
-295 31 -66 -8 -146 -17 -178 -20 l-59 -6 7 302 c5 172 12 306 17 309 36 23
478 37 647 20 64 -6 77 -5 97 12 54 42 16 102 -73 113 -83 10 -418 -2 -513
-19 -47 -8 -103 -18 -125 -21 l-40 -5 0 147 c0 127 -3 156 -23 213 -12 36 -28
74 -35 83 -16 22 -80 32 -94 14z"/>
<path d="M1046 1693 c-10 -71 -26 -307 -36 -533 -12 -256 -30 -452 -65 -689
-21 -147 -22 -168 -9 -193 20 -38 53 -41 90 -7 20 19 36 92 59 269 8 71 33
580 41 845 7 258 2 301 -39 330 -31 22 -35 19 -41 -22z"/>
</g>
</svg>
