<?xml version="1.0" standalone="no"?>
<!DOCTYPE svg PUBLIC "-//W3C//DTD SVG 20010904//EN"
 "http://www.w3.org/TR/2001/REC-SVG-20010904/DTD/svg10.dtd">
<svg version="1.0" xmlns="http://www.w3.org/2000/svg"
 width="340.000000pt" height="340.000000pt" viewBox="0 0 340.000000 340.000000"
 preserveAspectRatio="xMidYMid meet">
<metadata>
Created by potrace 1.15, written by Peter Selinger 2001-2017
</metadata>
<g transform="translate(0.000000,340.000000) scale(0.100000,-0.100000)"
fill="#000000" stroke="none">
<path d="M1153 2349 c-20 -21 -15 -62 12 -99 47 -64 44 -72 -160 -345 -131
-176 -254 -328 -388 -477 -99 -111 -119 -144 -96 -159 49 -30 488 434 733 776
77 108 86 125 86 165 0 54 -27 103 -69 124 -43 23 -104 30 -118 15z"/>
<path d="M1864 2286 c-6 -17 11 -46 28 -46 14 0 124 -77 193 -135 92 -79 119
-89 149 -59 26 25 20 77 -15 120 -69 88 -144 126 -261 132 -75 4 -89 2 -94
-12z"/>
<path d="M2630 1938 c-25 -5 -151 -32 -280 -59 -129 -28 -379 -86 -555 -129
-176 -44 -354 -84 -395 -91 -94 -13 -120 -24 -120 -47 0 -29 43 -42 133 -42
120 1 214 21 414 88 309 105 526 142 851 147 139 2 208 7 218 15 15 13 19 67
6 88 -22 33 -177 51 -272 30z"/>
<path d="M2131 1703 c-24 -20 -28 -42 -17 -89 6 -25 -6 -56 -74 -191 -138
-276 -331 -546 -567 -795 -77 -81 -126 -141 -133 -164 -7 -19 -10 -37 -8 -40
3 -2 34 14 69 37 149 95 454 454 673 792 32 48 59 87 60 87 2 0 36 -15 77 -34
41 -18 115 -48 166 -66 97 -34 103 -40 103 -106 0 -91 -149 -406 -312 -656
l-70 -108 -47 49 c-45 48 -114 80 -146 67 -33 -12 23 -142 88 -204 79 -76 192
-51 241 53 9 18 45 81 81 141 111 183 249 483 295 641 23 76 -7 171 -65 209
-45 29 -156 55 -267 61 -60 3 -108 7 -108 8 0 2 16 29 35 60 56 93 58 154 10
227 -28 42 -51 47 -84 21z"/>
<path d="M963 1589 c3 -35 11 -107 18 -159 15 -124 6 -582 -15 -751 -9 -69
-25 -177 -37 -240 -35 -192 -35 -194 -8 -213 48 -33 64 -23 87 57 28 95 39
153 47 262 3 50 14 155 23 235 11 100 16 236 17 440 0 260 -2 300 -18 341 -21
56 -42 77 -87 85 l-33 7 6 -64z"/>
</g>
</svg>
