<?xml version="1.0" standalone="no"?>
<!DOCTYPE svg PUBLIC "-//W3C//DTD SVG 20010904//EN"
 "http://www.w3.org/TR/2001/REC-SVG-20010904/DTD/svg10.dtd">
<svg version="1.0" xmlns="http://www.w3.org/2000/svg"
 width="340.000000pt" height="340.000000pt" viewBox="0 0 340.000000 340.000000"
 preserveAspectRatio="xMidYMid meet">
<metadata>
Created by potrace 1.15, written by Peter Selinger 2001-2017
</metadata>
<g transform="translate(0.000000,340.000000) scale(0.100000,-0.100000)"
fill="#000000" stroke="none">
<path d="M1130 2350 c-24 -24 -24 -27 -5 -74 19 -44 13 -61 -70 -196 -138
-225 -305 -442 -502 -653 -69 -73 -79 -109 -35 -115 17 -3 62 36 211 185 103
103 219 229 257 278 37 50 89 115 115 145 67 78 133 189 165 277 27 74 27 76
9 109 -18 34 -67 64 -104 64 -12 0 -30 -9 -41 -20z"/>
<path d="M1925 2120 c-242 -60 -450 -109 -462 -110 -28 0 -38 -17 -23 -35 15
-18 188 -20 260 -4 85 20 93 18 114 -26 20 -40 27 -136 14 -185 -7 -23 -16
-27 -145 -52 -179 -34 -445 -98 -457 -109 -5 -4 -2 -19 9 -35 17 -27 17 -27
108 -20 100 8 324 47 401 71 27 8 51 13 53 12 8 -9 -40 -293 -52 -306 -12 -12
-182 -63 -432 -130 -47 -13 -53 -28 -23 -56 29 -26 224 -17 293 13 60 27 113
37 121 24 8 -13 -44 -168 -96 -286 -76 -174 -196 -367 -324 -522 -60 -73 -87
-124 -82 -155 3 -17 9 -15 64 21 187 122 415 479 538 842 l52 153 71 16 c114
27 280 48 424 55 136 7 180 18 197 52 22 42 -15 78 -86 87 l-57 6 37 112 c20
62 40 131 44 155 8 54 21 58 179 55 66 -2 150 2 188 8 l67 11 0 44 c0 36 -5
47 -26 60 -23 16 -42 16 -192 7 -92 -6 -168 -10 -169 -9 -1 1 7 31 18 66 36
113 3 232 -71 256 -86 28 -100 26 -555 -86z m483 -41 c25 -9 31 -15 27 -32
-30 -131 -45 -190 -48 -193 -4 -4 -394 -84 -409 -84 -4 0 -8 30 -8 68 0 37 -7
92 -15 122 -8 30 -15 56 -15 57 0 7 113 34 197 47 169 27 228 30 271 15z m-48
-371 c0 -18 -13 -73 -29 -123 -17 -49 -35 -109 -41 -132 -8 -31 -17 -44 -33
-48 -28 -6 -364 -65 -371 -65 -7 0 3 80 20 158 8 35 14 74 14 88 0 64 45 90
210 122 136 27 148 29 193 31 35 1 37 0 37 -31z"/>
<path d="M999 1663 c-11 -29 -13 -54 -30 -428 -10 -240 -30 -496 -53 -700 -12
-103 -12 -123 0 -147 16 -31 57 -38 87 -15 27 20 49 205 68 557 19 364 13 515
-27 691 -17 74 -28 85 -45 42z"/>
</g>
</svg>
