<?xml version="1.0" standalone="no"?>
<!DOCTYPE svg PUBLIC "-//W3C//DTD SVG 20010904//EN"
 "http://www.w3.org/TR/2001/REC-SVG-20010904/DTD/svg10.dtd">
<svg version="1.0" xmlns="http://www.w3.org/2000/svg"
 width="340.000000pt" height="340.000000pt" viewBox="0 0 340.000000 340.000000"
 preserveAspectRatio="xMidYMid meet">
<metadata>
Created by potrace 1.15, written by Peter Selinger 2001-2017
</metadata>
<g transform="translate(0.000000,340.000000) scale(0.100000,-0.100000)"
fill="#000000" stroke="none">
<path d="M1778 2490 c-26 -16 -22 -36 12 -79 17 -20 35 -53 40 -72 11 -37 13
-366 4 -469 l-7 -66 -246 -83 c-135 -46 -262 -86 -281 -90 -23 -4 -36 -13 -38
-25 -4 -18 1 -19 87 -12 123 9 187 22 311 61 58 18 118 36 134 40 l29 6 -7
-43 c-14 -83 -25 -263 -20 -300 6 -35 5 -37 -32 -53 -92 -38 -363 -115 -399
-112 -61 3 -58 -24 7 -61 93 -53 425 -313 436 -342 8 -21 -361 -335 -525 -447
-45 -31 -80 -60 -77 -65 16 -25 111 12 259 100 101 60 244 170 336 259 l88 85
24 -18 c13 -11 79 -72 148 -136 219 -206 378 -336 439 -359 136 -52 350 -62
402 -19 37 30 14 52 -73 71 -251 52 -531 217 -786 462 -46 44 -83 84 -83 89 0
4 22 36 49 71 107 136 271 419 271 466 0 32 -61 91 -94 91 -14 0 -88 -21 -166
-47 -77 -25 -143 -43 -147 -40 -3 4 3 46 15 94 11 49 28 131 38 183 9 52 21
101 28 107 22 24 239 53 392 53 179 0 214 13 214 81 0 48 -146 75 -241 45 -55
-18 -358 -80 -363 -75 -2 2 0 83 5 179 5 96 6 228 3 292 -6 115 -7 117 -40
149 -26 25 -43 33 -81 36 -26 2 -56 -1 -65 -7z m332 -1202 c0 -29 -220 -408
-237 -408 -2 0 -47 36 -100 79 -52 44 -133 106 -181 137 -51 35 -80 60 -71 63
15 5 569 139 582 140 4 1 7 -4 7 -11z"/>
<path d="M1137 2323 c-4 -3 -7 -33 -7 -66 0 -69 7 -56 -170 -322 -137 -206
-261 -381 -407 -573 -87 -115 -106 -156 -65 -133 21 12 308 303 385 391 46 52
59 62 69 52 10 -10 13 -87 13 -340 0 -377 -12 -526 -62 -816 -41 -241 -40
-279 12 -284 52 -5 65 14 80 117 8 51 17 138 20 194 4 56 13 174 20 262 20
227 38 635 32 731 -5 88 -14 113 -59 161 l-30 31 74 99 c79 105 168 244 213
333 33 65 29 113 -10 148 -25 21 -93 31 -108 15z"/>
</g>
</svg>
