<?xml version="1.0" standalone="no"?>
<!DOCTYPE svg PUBLIC "-//W3C//DTD SVG 20010904//EN"
 "http://www.w3.org/TR/2001/REC-SVG-20010904/DTD/svg10.dtd">
<svg version="1.0" xmlns="http://www.w3.org/2000/svg"
 width="340.000000pt" height="340.000000pt" viewBox="0 0 340.000000 340.000000"
 preserveAspectRatio="xMidYMid meet">
<metadata>
Created by potrace 1.15, written by Peter Selinger 2001-2017
</metadata>
<g transform="translate(0.000000,340.000000) scale(0.100000,-0.100000)"
fill="#000000" stroke="none">
<path d="M1717 2443 c-21 -21 3 -104 38 -133 14 -12 16 -26 10 -90 -17 -202
-67 -537 -83 -551 -11 -11 -376 -129 -398 -129 -10 0 -25 -4 -33 -9 -11 -7 -9
-13 9 -31 21 -21 29 -22 104 -17 44 4 126 19 181 35 80 23 101 26 103 15 6
-24 -29 -184 -63 -288 -73 -223 -185 -434 -333 -624 -45 -58 -95 -133 -111
-166 -32 -65 -50 -145 -33 -145 21 0 127 107 197 201 224 296 339 534 441 914
21 77 42 145 48 152 32 34 350 106 546 124 76 6 139 17 160 27 55 27 76 95 32
104 -49 10 -223 -17 -427 -65 -126 -30 -245 -58 -263 -62 l-33 -7 6 39 c4 21
18 85 30 143 27 120 42 224 51 360 6 89 4 97 -18 130 -38 55 -135 100 -161 73z"/>
<path d="M1160 2345 c-22 -27 -14 -65 20 -100 l33 -34 -53 -88 c-118 -195
-310 -444 -483 -630 -53 -56 -100 -110 -106 -122 -15 -28 -14 -51 4 -51 23 0
200 148 299 249 49 50 90 90 92 88 6 -5 -16 -560 -26 -687 -14 -163 -45 -424
-70 -577 -26 -160 -12 -203 59 -173 44 18 54 79 95 565 48 555 51 729 17 861
l-23 91 92 114 c104 129 250 343 250 368 0 36 -45 106 -80 123 -43 22 -103 23
-120 3z"/>
<path d="M2233 2214 c-8 -22 12 -60 44 -81 15 -10 51 -36 79 -59 52 -41 150
-94 177 -94 20 0 57 43 57 67 0 51 -147 143 -267 168 -85 18 -82 18 -90 -1z"/>
<path d="M1938 1563 c-6 -16 -12 -96 -14 -188 -1 -88 -9 -293 -18 -455 -23
-428 -23 -452 13 -504 63 -92 143 -145 258 -172 108 -26 341 -12 534 32 64 14
67 17 92 62 35 65 49 152 37 226 -9 58 -32 106 -50 106 -31 0 -74 -120 -82
-230 -3 -33 -5 -35 -73 -53 -43 -12 -118 -21 -195 -24 -135 -5 -213 7 -322 49
-50 20 -60 28 -74 63 -43 106 -57 207 -43 312 5 43 23 217 39 388 28 304 28
310 10 346 -11 21 -33 43 -54 53 -44 21 -45 21 -58 -11z"/>
</g>
</svg>
