<?xml version="1.0" standalone="no"?>
<!DOCTYPE svg PUBLIC "-//W3C//DTD SVG 20010904//EN"
 "http://www.w3.org/TR/2001/REC-SVG-20010904/DTD/svg10.dtd">
<svg version="1.0" xmlns="http://www.w3.org/2000/svg"
 width="340.000000pt" height="340.000000pt" viewBox="0 0 340.000000 340.000000"
 preserveAspectRatio="xMidYMid meet">
<metadata>
Created by potrace 1.15, written by Peter Selinger 2001-2017
</metadata>
<g transform="translate(0.000000,340.000000) scale(0.100000,-0.100000)"
fill="#000000" stroke="none">
<path d="M1817 2423 c-12 -11 -8 -41 10 -79 18 -36 18 -36 -14 -95 -47 -85
-206 -324 -317 -474 -53 -71 -96 -135 -96 -142 0 -7 10 -13 23 -13 17 0 61 37
150 126 l126 127 138 2 c123 1 149 5 238 33 150 46 247 69 405 96 147 26 171
36 184 81 11 39 -7 48 -89 46 -94 -2 -126 -9 -314 -67 -148 -46 -475 -134
-499 -134 -19 0 10 45 85 132 71 82 118 171 136 254 l12 56 -33 29 c-27 24
-41 29 -85 29 -30 0 -57 -3 -60 -7z"/>
<path d="M1243 2369 c-18 -18 -16 -80 3 -107 15 -22 12 -28 -72 -165 -120
-195 -286 -443 -416 -621 -59 -82 -108 -155 -108 -162 0 -55 138 78 345 331
l90 109 7 -54 c10 -88 9 -421 -2 -595 -14 -217 -35 -428 -62 -617 -17 -125
-19 -162 -10 -183 14 -30 51 -34 76 -6 42 47 75 340 106 966 20 389 13 458
-53 509 l-31 24 61 79 c78 101 150 212 198 305 l38 75 -21 45 c-12 25 -33 50
-46 56 -43 19 -90 24 -103 11z"/>
<path d="M2022 1808 c-10 -39 0 -82 28 -120 18 -24 18 -33 9 -85 -6 -32 -22
-93 -35 -135 -23 -74 -26 -78 -62 -88 -20 -5 -135 -35 -256 -65 -120 -31 -222
-58 -227 -61 -5 -3 -9 -16 -9 -29 0 -49 54 -47 280 10 99 25 184 45 190 45 6
0 3 -17 -6 -42 -47 -123 -121 -252 -307 -530 -112 -168 -207 -314 -210 -322
-27 -69 136 78 272 246 106 133 183 256 296 481 105 207 112 218 145 227 125
36 275 38 403 5 80 -21 79 -13 38 -180 -69 -280 -172 -546 -273 -707 -32 -49
-57 -78 -68 -78 -9 0 -42 14 -73 30 -61 32 -121 39 -130 16 -13 -32 16 -91 72
-146 118 -118 194 -104 273 53 154 308 368 869 368 967 0 91 -51 151 -150 174
-122 29 -246 20 -417 -30 l-22 -6 25 89 c44 155 21 244 -76 293 -54 28 -68 25
-78 -12z"/>
</g>
</svg>
