<?xml version="1.0" standalone="no"?>
<!DOCTYPE svg PUBLIC "-//W3C//DTD SVG 20010904//EN"
 "http://www.w3.org/TR/2001/REC-SVG-20010904/DTD/svg10.dtd">
<svg version="1.0" xmlns="http://www.w3.org/2000/svg"
 width="340.000000pt" height="340.000000pt" viewBox="0 0 340.000000 340.000000"
 preserveAspectRatio="xMidYMid meet">
<metadata>
Created by potrace 1.15, written by Peter Selinger 2001-2017
</metadata>
<g transform="translate(0.000000,340.000000) scale(0.100000,-0.100000)"
fill="#000000" stroke="none">
<path d="M1710 2302 c-20 -16 -22 -23 -14 -58 10 -50 6 -91 -13 -129 -24 -47
-239 -346 -424 -591 -197 -261 -211 -284 -176 -284 17 0 244 232 358 365 77
90 245 302 292 369 10 14 24 26 31 26 19 0 232 -189 469 -416 222 -212 249
-234 327 -264 71 -28 207 -37 302 -20 59 10 71 16 79 37 13 36 -4 61 -49 68
-112 17 -315 99 -453 183 -106 65 -178 121 -318 248 -99 90 -262 216 -293 226
-8 3 -3 22 15 58 39 77 36 113 -12 161 -44 44 -84 51 -121 21z"/>
<path d="M979 2202 c-3 -39 4 -69 23 -103 l20 -36 -37 -74 c-110 -218 -283
-494 -449 -714 -96 -129 -117 -175 -77 -175 24 0 133 117 249 267 100 128 94
129 113 -28 24 -209 -4 -541 -72 -864 -24 -112 -27 -145 -19 -171 13 -39 30
-47 69 -33 25 9 31 18 41 61 24 114 41 231 55 378 8 85 20 207 26 270 11 120
7 276 -12 420 -9 69 -16 90 -37 113 -31 33 -42 8 100 219 53 78 120 187 148
240 43 82 51 103 45 130 -15 70 -52 100 -137 111 -41 6 -48 4 -49 -11z"/>
<path d="M1986 1284 c-20 -19 -20 -25 -1 -50 30 -39 19 -70 -40 -114 -65 -48
-302 -210 -307 -210 -1 0 -3 42 -4 93 -1 104 -23 178 -73 237 -25 30 -31 33
-45 21 -20 -16 -21 -51 -3 -94 11 -25 12 -63 6 -172 -4 -77 -8 -220 -8 -318
-1 -168 0 -180 23 -225 38 -75 100 -138 169 -171 92 -45 166 -54 342 -42 162
11 243 30 352 83 58 28 64 34 85 87 17 44 22 78 22 156 l1 100 -36 3 c-48 4
-70 -23 -81 -99 -11 -85 -32 -115 -103 -149 -166 -81 -393 -78 -572 7 -42 20
-57 34 -69 62 -24 56 -45 190 -39 246 12 98 14 103 48 110 56 12 206 73 265
109 146 86 179 108 209 137 58 56 55 145 -6 186 -41 27 -111 31 -135 7z"/>
</g>
</svg>
