<?xml version="1.0" standalone="no"?>
<!DOCTYPE svg PUBLIC "-//W3C//DTD SVG 20010904//EN"
 "http://www.w3.org/TR/2001/REC-SVG-20010904/DTD/svg10.dtd">
<svg version="1.0" xmlns="http://www.w3.org/2000/svg"
 width="340.000000pt" height="340.000000pt" viewBox="0 0 340.000000 340.000000"
 preserveAspectRatio="xMidYMid meet">
<metadata>
Created by potrace 1.15, written by Peter Selinger 2001-2017
</metadata>
<g transform="translate(0.000000,340.000000) scale(0.100000,-0.100000)"
fill="#000000" stroke="none">
<path d="M1155 2267 c-19 -27 -19 -58 1 -99 15 -33 15 -34 -42 -138 -115 -213
-329 -524 -458 -667 -45 -49 -87 -128 -100 -186 -6 -26 -5 -27 14 -17 46 25
162 146 275 289 66 82 123 150 126 151 12 0 22 -352 15 -540 -6 -201 -17 -335
-43 -560 -20 -183 -21 -207 -1 -226 20 -20 53 -11 73 20 40 61 85 599 85 1014
0 188 -10 236 -65 308 l-27 35 119 182 c150 228 193 300 193 321 0 28 -39 95
-62 107 -13 7 -37 15 -55 20 -28 6 -36 3 -48 -14z"/>
<path d="M1753 2184 c-7 -18 -12 -13 93 -97 45 -35 111 -81 148 -102 l66 -37
30 22 c45 32 41 68 -12 117 -24 21 -64 49 -91 62 -98 48 -222 66 -234 35z"/>
<path d="M1451 1869 c-6 -18 -11 -51 -11 -75 0 -76 -63 -221 -156 -358 -70
-103 -71 -156 -3 -156 19 0 38 12 64 41 46 51 133 184 141 215 5 18 15 24 47
28 23 3 102 12 175 21 74 8 179 26 233 40 162 41 280 55 467 56 177 0 227 -9
227 -41 0 -9 -19 -21 -45 -30 -48 -16 -140 -98 -140 -124 0 -39 103 -32 252
15 109 34 148 66 148 122 0 38 -73 112 -152 154 -49 26 -61 28 -168 27 -190
-1 -578 -68 -853 -148 -104 -30 -120 -32 -133 -19 -9 10 -12 23 -8 37 31 96
17 172 -38 210 -31 22 -34 21 -47 -15z"/>
<path d="M2370 793 c-96 -6 -242 -19 -325 -28 -151 -17 -530 -77 -595 -95 -19
-6 -55 -10 -80 -10 -26 0 -51 -5 -57 -11 -16 -16 -3 -49 24 -60 46 -17 225
-10 359 15 266 50 553 69 823 54 115 -6 173 -6 191 2 25 10 60 56 60 78 0 16
-98 53 -163 60 -34 4 -141 2 -237 -5z"/>
</g>
</svg>
