<?xml version="1.0" standalone="no"?>
<!DOCTYPE svg PUBLIC "-//W3C//DTD SVG 20010904//EN"
 "http://www.w3.org/TR/2001/REC-SVG-20010904/DTD/svg10.dtd">
<svg version="1.0" xmlns="http://www.w3.org/2000/svg"
 width="340.000000pt" height="340.000000pt" viewBox="0 0 340.000000 340.000000"
 preserveAspectRatio="xMidYMid meet">
<metadata>
Created by potrace 1.15, written by Peter Selinger 2001-2017
</metadata>
<g transform="translate(0.000000,340.000000) scale(0.100000,-0.100000)"
fill="#000000" stroke="none">
<path d="M1305 2218 c-3 -18 -10 -64 -16 -103 -9 -62 -20 -86 -96 -210 -118
-191 -229 -361 -356 -544 -106 -152 -120 -181 -93 -181 16 0 166 159 277 292
39 48 75 86 79 83 3 -2 12 -28 18 -57 58 -262 56 -520 -9 -989 -19 -136 -20
-159 -8 -185 18 -38 40 -41 71 -9 22 22 28 41 42 153 49 373 67 912 35 1018
-12 40 -56 80 -96 89 -18 4 -33 10 -33 13 0 12 51 84 88 126 83 94 242 371
242 424 0 31 -40 83 -75 98 -51 21 -63 18 -70 -18z"/>
<path d="M2073 2183 c-16 -6 -16 -37 -1 -79 14 -38 14 -38 -99 -181 -42 -54
-112 -149 -155 -210 l-80 -113 -28 15 c-37 19 -54 19 -71 -1 -10 -12 -10 -22
-2 -42 6 -15 23 -55 38 -90 48 -116 55 -172 65 -587 9 -336 13 -391 27 -407
20 -22 31 -23 55 -1 11 10 40 18 76 19 31 2 154 19 272 38 185 30 217 38 232
56 10 12 18 26 18 31 0 51 -348 35 -518 -25 -32 -11 -43 -12 -49 -3 -6 10 -5
497 1 504 2 2 85 13 187 25 211 24 254 38 254 83 0 25 -5 30 -35 36 -73 15
-259 -15 -362 -60 l-44 -19 -11 107 c-10 90 -38 219 -58 273 -9 22 119 74 215
87 41 5 104 17 140 25 124 29 347 33 388 7 28 -17 25 -229 -8 -611 -17 -201
-34 -403 -37 -449 -3 -46 -11 -87 -17 -92 -6 -5 -23 -18 -38 -30 -34 -25 -37
-63 -9 -118 40 -77 117 -94 157 -34 18 27 22 52 27 175 4 78 7 188 7 243 0 55
18 279 39 497 44 438 44 447 -13 504 -56 56 -140 66 -319 39 -94 -14 -167 -35
-309 -89 -53 -20 -68 -22 -68 -11 0 8 41 58 92 112 177 189 229 276 198 334
-21 38 -109 62 -157 42z"/>
</g>
</svg>
