<?xml version="1.0" standalone="no"?>
<!DOCTYPE svg PUBLIC "-//W3C//DTD SVG 20010904//EN"
 "http://www.w3.org/TR/2001/REC-SVG-20010904/DTD/svg10.dtd">
<svg version="1.0" xmlns="http://www.w3.org/2000/svg"
 width="340.000000pt" height="340.000000pt" viewBox="0 0 340.000000 340.000000"
 preserveAspectRatio="xMidYMid meet">
<metadata>
Created by potrace 1.15, written by Peter Selinger 2001-2017
</metadata>
<g transform="translate(0.000000,340.000000) scale(0.100000,-0.100000)"
fill="#000000" stroke="none">
<path d="M2015 2618 c-13 -23 -18 -49 -17 -88 1 -30 4 -139 7 -242 l7 -187
-39 -10 c-72 -19 -128 -31 -150 -31 -22 0 -23 4 -23 79 0 163 -87 322 -183
338 -65 10 -87 -32 -43 -84 58 -70 86 -167 86 -299 l0 -72 -32 -11 c-18 -6
-78 -20 -132 -31 -55 -11 -102 -23 -105 -25 -3 -3 3 -13 12 -22 18 -18 37 -19
180 -8 l97 8 0 -131 c0 -115 -2 -132 -17 -141 -37 -19 -175 -43 -256 -44 -106
-2 -122 -13 -100 -65 9 -20 16 -64 16 -97 0 -49 -6 -73 -35 -130 -41 -81 -68
-164 -68 -211 0 -30 3 -33 39 -39 50 -8 104 2 161 30 42 21 182 65 208 65 13
0 8 -40 -24 -180 -18 -76 -41 -139 -84 -225 -68 -136 -125 -294 -111 -308 31
-31 96 53 191 248 67 137 109 257 139 400 12 54 24 101 26 103 9 10 141 42
194 48 l58 6 6 -308 c6 -319 33 -761 48 -801 10 -27 31 -30 50 -6 11 13 15
120 17 574 l4 558 49 10 c109 24 276 32 401 21 121 -11 138 -17 138 -52 0 -34
-177 -338 -197 -338 -5 0 -21 14 -38 31 -39 40 -74 58 -130 66 -44 6 -45 5
-45 -21 0 -60 60 -146 144 -208 46 -33 88 -36 133 -9 57 36 172 226 249 416
35 87 34 99 -13 167 -31 46 -112 88 -167 88 -23 0 -86 -9 -141 -19 -55 -11
-152 -26 -215 -35 -63 -9 -127 -18 -142 -21 l-28 -4 0 144 0 145 58 0 c57 0
214 29 263 48 19 7 35 28 52 66 14 31 38 71 52 90 52 69 74 157 59 234 -6 28
-11 32 -77 48 -91 22 -249 22 -335 0 -35 -9 -65 -16 -66 -16 -1 0 0 69 2 153
3 138 1 161 -22 251 -14 55 -31 103 -38 108 -27 17 -54 8 -73 -24z m418 -579
c20 -5 37 -11 37 -12 0 -1 -9 -27 -21 -57 -11 -30 -23 -85 -26 -122 l-6 -68
-43 0 c-44 0 -186 -17 -216 -26 -17 -5 -18 6 -18 135 l0 139 68 7 c37 4 72 8
77 10 22 8 112 4 148 -6z m-418 -61 c3 -13 4 -75 3 -138 l-3 -115 -70 -11
c-38 -7 -89 -15 -111 -18 l-42 -5 5 132 c3 73 7 134 9 136 4 5 162 39 186 40
10 1 20 -8 23 -21z m-1 -375 c4 -9 4 -70 0 -134 l-7 -117 -88 -11 c-49 -6
-103 -14 -120 -18 l-32 -6 6 44 c3 24 9 84 13 132 7 98 7 98 99 117 72 14 122
12 129 -7z m-349 -67 c15 -22 15 -34 1 -127 -9 -56 -19 -106 -23 -110 -12 -10
-214 -51 -221 -45 -3 4 4 37 16 74 12 37 24 99 28 139 l7 72 41 5 c56 8 98 13
118 15 10 0 25 -10 33 -23z"/>
<path d="M1077 2400 c-14 -21 -14 -26 0 -61 l15 -39 -57 -98 c-96 -161 -256
-397 -384 -567 -109 -144 -138 -195 -112 -195 18 0 130 89 164 131 182 224
361 459 470 617 55 78 58 86 55 134 -4 60 -30 86 -95 95 -34 4 -43 2 -56 -17z"/>
<path d="M915 1728 c-2 -7 -6 -146 -9 -308 -7 -355 -20 -590 -41 -725 -18
-122 -20 -346 -3 -363 18 -18 56 -14 67 6 5 10 17 110 26 223 9 112 25 298 35
414 28 301 23 605 -11 713 -14 41 -55 67 -64 40z"/>
</g>
</svg>
