<?xml version="1.0" standalone="no"?>
<!DOCTYPE svg PUBLIC "-//W3C//DTD SVG 20010904//EN"
 "http://www.w3.org/TR/2001/REC-SVG-20010904/DTD/svg10.dtd">
<svg version="1.0" xmlns="http://www.w3.org/2000/svg"
 width="340.000000pt" height="340.000000pt" viewBox="0 0 340.000000 340.000000"
 preserveAspectRatio="xMidYMid meet">
<metadata>
Created by potrace 1.15, written by Peter Selinger 2001-2017
</metadata>
<g transform="translate(0.000000,340.000000) scale(0.100000,-0.100000)"
fill="#000000" stroke="none">
<path d="M1180 2385 c0 -13 9 -39 20 -57 11 -18 20 -39 20 -47 0 -32 -310
-506 -485 -740 -96 -129 -125 -175 -125 -202 0 -31 194 151 300 280 41 50 78
91 82 91 9 0 26 -62 44 -160 33 -183 1 -794 -61 -1185 -16 -102 -6 -145 33
-145 15 0 32 4 39 8 12 8 36 102 53 213 14 91 38 657 42 969 3 242 2 257 -18
290 -11 19 -36 44 -56 55 l-36 20 30 35 c67 78 174 228 234 328 96 159 89 213
-31 251 -81 26 -85 26 -85 -4z"/>
<path d="M2295 2229 c-27 -5 -102 -18 -165 -30 -63 -11 -180 -36 -259 -55 -79
-19 -156 -34 -172 -34 -31 0 -42 -11 -33 -34 5 -13 23 -16 100 -16 119 0 271
16 349 38 118 32 438 15 421 -22 -71 -161 -112 -267 -135 -345 -31 -105 -34
-108 -120 -110 -78 -2 -253 -31 -371 -62 l-115 -30 -17 21 c-10 12 -18 33 -18
47 0 31 -55 264 -76 323 -23 62 -58 107 -112 141 -25 16 -50 29 -54 29 -18 0
-5 -57 38 -166 25 -64 59 -175 75 -248 30 -135 91 -286 115 -286 20 0 44 41
44 76 l0 31 68 -10 c103 -14 520 16 675 49 53 11 22 84 -36 84 -15 0 -27 5
-27 11 0 6 52 116 117 245 l116 235 -29 41 c-47 66 -90 83 -219 85 -60 1 -132
-3 -160 -8z"/>
<path d="M2205 1121 c-209 -38 -427 -78 -484 -89 l-105 -21 -33 29 c-44 39
-124 62 -138 40 -10 -16 23 -106 70 -195 23 -44 52 -116 64 -160 12 -44 44
-151 72 -238 42 -129 54 -157 69 -157 11 0 24 9 30 20 10 18 21 20 136 20 120
0 248 8 469 30 91 10 239 41 252 54 11 10 -14 61 -35 71 -12 5 -22 13 -22 17
0 9 157 307 206 391 20 33 34 72 34 90 0 46 -39 118 -75 139 -62 35 -110 31
-510 -41z m423 -82 c12 -5 22 -10 22 -13 0 -21 -178 -397 -219 -463 -17 -28
-27 -33 -58 -33 -60 0 -306 -38 -452 -70 -125 -28 -136 -29 -153 -13 -13 11
-18 30 -18 63 0 64 -42 268 -86 411 -4 14 6 18 58 24 129 13 337 46 453 70
190 40 383 50 453 24z"/>
</g>
</svg>
