<?xml version="1.0" standalone="no"?>
<!DOCTYPE svg PUBLIC "-//W3C//DTD SVG 20010904//EN"
 "http://www.w3.org/TR/2001/REC-SVG-20010904/DTD/svg10.dtd">
<svg version="1.0" xmlns="http://www.w3.org/2000/svg"
 width="340.000000pt" height="340.000000pt" viewBox="0 0 340.000000 340.000000"
 preserveAspectRatio="xMidYMid meet">
<metadata>
Created by potrace 1.15, written by Peter Selinger 2001-2017
</metadata>
<g transform="translate(0.000000,340.000000) scale(0.100000,-0.100000)"
fill="#000000" stroke="none">
<path d="M2115 2264 c-77 -19 -236 -57 -352 -85 -214 -51 -241 -64 -194 -89
24 -12 83 -13 135 -1 21 5 75 12 120 16 l83 7 12 -71 c6 -40 14 -105 18 -145
5 -66 4 -73 -13 -78 -25 -7 -315 -97 -333 -103 -11 -4 -11 -8 -1 -20 16 -20
42 -19 140 4 45 11 113 23 151 27 l69 7 0 -71 c0 -104 -5 -112 -94 -146 -42
-16 -76 -32 -76 -36 0 -4 8 -14 18 -23 20 -19 64 -22 91 -8 59 32 82 -123 28
-184 -12 -14 -70 -44 -129 -68 l-106 -44 -12 81 c-24 165 -90 314 -179 407
-48 50 -84 62 -109 37 -19 -19 -15 -33 41 -131 77 -133 167 -357 167 -414 0
-18 -41 -11 -122 23 -64 27 -115 31 -142 11 -16 -11 -15 -14 11 -39 15 -14 55
-37 89 -50 116 -46 404 -234 404 -263 0 -27 -61 -141 -111 -208 -50 -67 -161
-162 -229 -197 -46 -24 -78 -59 -90 -98 -5 -18 -7 -32 -6 -32 20 0 127 40 181
68 105 54 247 200 304 312 24 47 45 86 46 88 1 2 89 -69 194 -157 389 -323
421 -342 591 -345 52 0 119 5 148 12 44 12 52 18 52 37 0 34 -44 65 -92 65
-65 0 -328 111 -498 210 -59 35 -191 139 -314 247 l-48 43 32 147 c17 82 33
149 34 151 2 1 41 9 87 17 155 27 299 77 299 103 0 16 31 77 183 365 52 97 57
135 27 184 -37 62 -58 68 -220 68 -121 -1 -159 -5 -228 -24 -46 -13 -85 -21
-88 -19 -2 3 -6 38 -8 79 -2 41 -14 102 -25 136 -12 34 -21 65 -21 67 0 3 17
8 38 11 102 17 272 82 272 104 0 14 -51 51 -69 50 -9 0 -79 -16 -156 -35z
m342 -487 c9 -9 -23 -118 -72 -243 -60 -154 -80 -191 -115 -209 -35 -18 -240
-56 -240 -44 0 14 20 164 25 187 4 16 13 22 31 22 40 0 88 27 108 60 17 30 17
30 -9 40 -14 6 -49 10 -77 10 l-51 0 6 63 c3 34 9 70 12 79 7 17 67 34 155 42
59 5 219 0 227 -7z m-563 -724 c0 -74 -13 -103 -43 -103 -16 0 -175 109 -169
115 9 10 185 64 198 62 12 -2 15 -18 14 -74z"/>
<path d="M1174 2255 c-4 -15 1 -39 13 -62 l18 -38 -39 -65 c-121 -204 -301
-432 -501 -639 -78 -80 -147 -156 -153 -168 -12 -22 -16 -63 -7 -63 17 0 107
55 151 92 59 49 238 245 393 428 301 355 327 400 285 481 -17 35 -67 59 -118
59 -29 0 -37 -4 -42 -25z"/>
<path d="M1004 1598 c4 -18 9 -166 13 -328 5 -303 -3 -514 -33 -798 -16 -151
-16 -154 3 -180 28 -37 48 -38 82 -5 28 29 29 31 35 179 4 82 12 217 18 299
26 379 21 545 -23 740 -21 93 -42 125 -81 125 -18 0 -19 -4 -14 -32z"/>
</g>
</svg>
