<?xml version="1.0" standalone="no"?>
<!DOCTYPE svg PUBLIC "-//W3C//DTD SVG 20010904//EN"
 "http://www.w3.org/TR/2001/REC-SVG-20010904/DTD/svg10.dtd">
<svg version="1.0" xmlns="http://www.w3.org/2000/svg"
 width="340.000000pt" height="340.000000pt" viewBox="0 0 340.000000 340.000000"
 preserveAspectRatio="xMidYMid meet">
<metadata>
Created by potrace 1.15, written by Peter Selinger 2001-2017
</metadata>
<g transform="translate(0.000000,340.000000) scale(0.100000,-0.100000)"
fill="#000000" stroke="none">
<path d="M2162 2504 c-27 -27 -67 -47 -171 -86 -113 -42 -289 -116 -423 -178
-31 -14 -38 -47 -13 -57 38 -14 362 75 594 163 142 55 151 60 162 91 14 45 3
72 -37 89 -51 21 -73 17 -112 -22z"/>
<path d="M1105 2364 c-10 -10 -13 -23 -9 -33 4 -9 9 -35 12 -59 3 -37 -2 -52
-44 -120 -93 -150 -249 -376 -368 -534 -169 -224 -187 -249 -180 -259 14 -23
44 -2 141 99 240 247 505 567 553 668 16 33 36 88 44 121 13 58 13 62 -8 86
-37 45 -110 61 -141 31z"/>
<path d="M2340 2165 c-7 -8 -10 -32 -9 -53 3 -38 1 -42 -61 -88 -64 -49 -174
-186 -167 -208 2 -6 19 -12 38 -14 48 -4 193 93 286 192 69 72 72 76 63 108
-6 18 -18 41 -29 51 -23 24 -105 32 -121 12z"/>
<path d="M1716 2125 c-14 -38 -5 -74 36 -131 49 -69 65 -83 95 -84 34 0 73 21
73 40 0 29 -22 84 -47 118 -27 36 -63 57 -114 67 -29 5 -38 3 -43 -10z"/>
<path d="M1360 1949 c0 -44 16 -76 67 -131 53 -56 94 -78 148 -78 32 0 35 3
35 28 -1 42 -33 104 -75 140 -43 38 -72 52 -132 62 -42 7 -43 6 -43 -21z"/>
<path d="M2070 1700 c-399 -130 -540 -170 -579 -164 -51 8 -100 -2 -129 -26
l-24 -20 21 -28 c32 -45 69 -56 174 -49 109 7 199 33 322 93 98 47 198 77 245
72 29 -3 28 -4 -74 -118 -92 -102 -109 -116 -143 -120 -33 -4 -38 -8 -36 -28
2 -13 28 -54 58 -91 52 -64 66 -91 47 -91 -5 0 -148 -27 -319 -60 -246 -48
-317 -58 -338 -50 -38 14 -98 12 -121 -4 -19 -14 -19 -15 1 -51 23 -45 79 -85
117 -85 30 0 283 51 368 75 128 35 296 75 316 75 21 0 23 -6 29 -92 12 -170
-22 -393 -85 -557 l-31 -80 -52 25 c-53 24 -84 29 -124 18 -19 -5 -22 -11 -17
-33 18 -75 92 -150 164 -166 47 -10 133 45 165 106 18 34 80 275 96 374 7 44
13 157 14 252 l0 171 111 12 c62 7 183 10 270 8 139 -4 163 -7 194 -25 70 -42
143 -38 188 10 l22 23 -25 36 c-42 62 -91 78 -236 78 -109 -1 -302 -14 -495
-36 l-60 -6 -13 41 c-6 23 -26 57 -43 77 l-32 36 35 26 c95 73 279 271 279
301 0 26 -32 71 -60 86 -42 22 -102 17 -200 -15z"/>
<path d="M976 1639 c-3 -34 -6 -126 -6 -205 0 -177 -23 -513 -55 -819 -14
-126 -25 -251 -25 -277 0 -59 20 -82 63 -74 17 3 32 7 33 9 8 8 35 235 44 367
5 85 15 227 21 315 16 225 -3 654 -31 723 -18 42 -37 26 -44 -39z"/>
</g>
</svg>
