<?xml version="1.0" standalone="no"?>
<!DOCTYPE svg PUBLIC "-//W3C//DTD SVG 20010904//EN"
 "http://www.w3.org/TR/2001/REC-SVG-20010904/DTD/svg10.dtd">
<svg version="1.0" xmlns="http://www.w3.org/2000/svg"
 width="340.000000pt" height="340.000000pt" viewBox="0 0 340.000000 340.000000"
 preserveAspectRatio="xMidYMid meet">
<metadata>
Created by potrace 1.15, written by Peter Selinger 2001-2017
</metadata>
<g transform="translate(0.000000,340.000000) scale(0.100000,-0.100000)"
fill="#000000" stroke="none">
<path d="M2534 2405 c-4 -8 5 -30 18 -48 64 -83 61 -60 75 -582 16 -557 20
-1184 9 -1302 l-8 -81 -48 25 c-54 28 -110 25 -110 -5 0 -39 50 -120 104 -170
49 -44 64 -52 96 -52 52 0 90 33 99 85 4 22 4 134 0 250 -19 501 -29 1007 -29
1392 0 454 0 457 -60 488 -39 20 -139 20 -146 0z"/>
<path d="M1150 2350 c-13 -25 -5 -57 22 -87 l20 -22 -62 -113 c-115 -206 -261
-418 -418 -606 -33 -40 -64 -82 -67 -93 -10 -31 9 -46 39 -29 26 13 228 216
310 310 l48 55 -6 -245 c-11 -463 -41 -902 -76 -1127 -15 -92 11 -136 64 -111
28 12 37 43 61 203 20 127 47 803 43 1040 -3 158 -5 185 -22 210 -11 17 -27
36 -37 43 -16 11 -12 20 48 100 65 88 141 208 189 304 51 101 7 188 -96 188
-39 0 -51 -4 -60 -20z"/>
<path d="M1945 2356 c-22 -7 -143 -50 -269 -95 -126 -44 -239 -81 -251 -81
-62 0 -118 -48 -84 -72 16 -10 235 -5 262 7 24 10 22 -16 -7 -103 -34 -99 -94
-215 -140 -270 -51 -62 -86 -139 -93 -206 l-6 -54 39 -12 c48 -16 129 -16 178
0 20 6 39 10 42 7 2 -2 7 -62 11 -134 l6 -129 -152 -64 c-160 -68 -172 -80
-119 -109 25 -15 34 -13 141 22 62 20 116 37 120 37 4 0 7 -26 7 -57 1 -55 14
-179 25 -233 5 -23 -3 -29 -87 -74 -362 -192 -396 -222 -304 -271 32 -17 36
-17 77 -1 24 10 76 35 115 56 149 79 633 429 634 458 0 27 -63 9 -195 -58 -77
-38 -141 -70 -142 -70 -6 0 -1 197 5 249 l7 54 48 12 c52 13 152 77 162 103 8
21 -37 62 -67 62 -12 0 -45 -11 -75 -25 -29 -14 -57 -24 -62 -21 -5 3 -11 52
-14 108 -3 57 -9 115 -12 129 -6 24 -3 28 57 51 34 14 87 31 117 38 l54 13 26
-32 c15 -18 35 -31 48 -31 26 0 63 36 63 62 0 34 -49 140 -90 194 -47 63 -137
134 -169 134 -39 0 -35 -29 19 -132 29 -55 48 -103 44 -107 -5 -5 -38 -14 -74
-21 -36 -7 -118 -28 -183 -47 -65 -18 -120 -33 -123 -33 -15 0 4 47 60 144 36
61 83 157 106 214 35 87 40 109 35 147 -7 41 -5 44 16 49 116 22 147 31 194
56 80 42 123 79 118 101 -11 40 -59 54 -118 35z"/>
<path d="M2255 1847 c-18 -44 -18 -50 -10 -432 6 -234 9 -283 22 -297 28 -31
52 -22 73 26 38 85 36 507 -2 638 -6 21 -23 52 -39 70 l-27 33 -17 -38z"/>
</g>
</svg>
