<?xml version="1.0" standalone="no"?>
<!DOCTYPE svg PUBLIC "-//W3C//DTD SVG 20010904//EN"
 "http://www.w3.org/TR/2001/REC-SVG-20010904/DTD/svg10.dtd">
<svg version="1.0" xmlns="http://www.w3.org/2000/svg"
 width="340.000000pt" height="340.000000pt" viewBox="0 0 340.000000 340.000000"
 preserveAspectRatio="xMidYMid meet">
<metadata>
Created by potrace 1.15, written by Peter Selinger 2001-2017
</metadata>
<g transform="translate(0.000000,340.000000) scale(0.100000,-0.100000)"
fill="#000000" stroke="none">
<path d="M1114 2374 c-4 -14 -1 -50 5 -79 l12 -53 -62 -124 c-120 -240 -247
-450 -420 -694 -66 -94 -79 -118 -79 -150 l1 -39 92 95 c173 179 440 567 578
841 43 86 47 112 24 165 -16 38 -62 64 -114 64 -25 0 -32 -5 -37 -26z"/>
<path d="M2329 2340 c-158 -26 -358 -71 -509 -116 -69 -20 -136 -38 -150 -41
-65 -11 -70 -14 -70 -35 0 -20 3 -21 95 -14 112 8 287 37 400 66 97 25 313 46
375 36 58 -8 105 -37 129 -77 24 -39 26 -61 46 -569 9 -217 25 -528 36 -690
10 -162 19 -342 19 -398 l0 -104 -32 28 c-41 34 -88 54 -128 54 -26 0 -30 -4
-30 -25 0 -15 7 -39 14 -54 16 -30 135 -140 175 -160 32 -17 83 -6 111 24 l23
25 -12 167 c-7 93 -21 260 -31 373 -34 366 -43 595 -36 975 l6 360 -24 51
c-28 60 -58 86 -132 114 -79 29 -144 32 -275 10z"/>
<path d="M1966 2078 c-20 -28 -20 -60 -2 -96 7 -15 17 -68 20 -119 l7 -92 -85
-27 c-76 -23 -84 -28 -76 -44 13 -23 39 -32 93 -30 64 3 65 2 74 -32 12 -47 9
-144 -6 -161 -6 -8 -71 -36 -144 -62 -73 -26 -136 -51 -141 -55 -4 -5 4 -16
19 -26 26 -17 31 -17 198 24 172 41 299 65 412 77 85 10 129 22 148 43 15 16
15 20 1 40 -13 19 -24 22 -82 22 -37 0 -112 -7 -167 -15 -152 -22 -138 -30
-133 75 2 50 9 95 15 101 6 6 30 13 54 16 24 3 60 14 81 24 34 18 78 62 78 80
0 5 -26 16 -57 25 -45 13 -69 15 -105 7 l-46 -9 -4 76 c-2 64 -8 85 -33 126
-27 42 -36 49 -67 52 -28 2 -40 -2 -52 -20z"/>
<path d="M1480 1995 c-14 -41 -6 -84 20 -118 36 -46 53 -387 29 -605 -22 -210
-99 -511 -154 -607 -32 -56 -72 -172 -80 -231 -4 -27 -9 -57 -12 -68 -5 -18
-4 -18 27 0 44 26 62 54 124 195 150 345 214 654 223 1069 l5 245 -29 55 c-20
39 -39 61 -68 77 -56 32 -71 29 -85 -12z"/>
<path d="M976 1603 c4 -32 8 -186 7 -343 0 -291 -15 -512 -53 -803 -15 -115
-17 -153 -8 -173 16 -34 58 -30 76 9 23 49 51 219 62 386 6 90 12 167 15 170
12 21 24 431 16 562 -9 156 -20 191 -67 228 -47 37 -58 29 -48 -36z"/>
<path d="M2245 1239 c-196 -47 -375 -102 -375 -115 0 -18 -24 -18 -39 0 -7 8
-26 19 -42 25 -27 9 -31 8 -41 -13 -14 -32 24 -149 98 -303 47 -99 57 -113 79
-113 27 0 45 25 45 65 0 25 1 26 48 19 61 -8 197 11 275 39 60 22 62 23 67 63
4 25 19 57 38 82 43 54 64 107 65 162 1 64 -10 87 -45 99 -42 15 -78 13 -173
-10z m45 -143 c0 -21 -46 -110 -68 -129 -10 -9 -54 -26 -98 -37 -44 -11 -100
-26 -124 -35 -24 -8 -44 -14 -45 -13 -1 2 -10 26 -19 53 -9 28 -29 74 -45 103
l-29 52 116 1 c65 1 151 5 192 9 120 11 120 11 120 -4z"/>
</g>
</svg>
