<?xml version="1.0" standalone="no"?>
<!DOCTYPE svg PUBLIC "-//W3C//DTD SVG 20010904//EN"
 "http://www.w3.org/TR/2001/REC-SVG-20010904/DTD/svg10.dtd">
<svg version="1.0" xmlns="http://www.w3.org/2000/svg"
 width="340.000000pt" height="340.000000pt" viewBox="0 0 340.000000 340.000000"
 preserveAspectRatio="xMidYMid meet">
<metadata>
Created by potrace 1.15, written by Peter Selinger 2001-2017
</metadata>
<g transform="translate(0.000000,340.000000) scale(0.100000,-0.100000)"
fill="#000000" stroke="none">
<path d="M1120 2415 c-9 -25 -7 -41 12 -81 25 -53 -292 -523 -555 -823 -93
-107 -127 -161 -127 -202 0 -26 5 -24 59 15 63 47 177 168 296 315 l100 124
28 -60 c52 -113 61 -183 48 -403 -6 -107 -13 -249 -16 -315 -8 -150 -31 -431
-50 -593 -15 -132 -10 -166 28 -178 28 -9 70 26 79 67 4 19 12 124 18 234 6
110 15 278 20 374 18 324 24 743 11 783 -14 41 -81 108 -109 108 -10 0 -21 2
-24 6 -3 3 35 59 84 124 49 66 125 179 169 252 77 127 80 135 76 182 -6 63
-39 96 -98 96 -33 0 -41 -4 -49 -25z"/>
<path d="M2240 2395 c-85 -18 -235 -53 -333 -78 l-178 -46 -32 19 c-18 11 -44
20 -59 20 -27 0 -28 -2 -29 -57 0 -32 -2 -114 -4 -183 -8 -355 -176 -930 -350
-1198 -49 -77 -119 -217 -130 -265 -6 -23 -4 -27 13 -27 29 0 66 42 157 180
82 123 180 308 225 425 13 33 26 64 30 68 4 5 70 17 147 27 77 10 167 26 200
34 34 9 80 16 103 16 42 0 42 0 36 -32 -3 -18 -17 -111 -31 -207 -14 -96 -26
-176 -28 -177 -1 -1 -26 -9 -56 -18 -75 -22 -132 -21 -164 4 -59 47 -85 11
-50 -67 43 -99 101 -279 128 -400 17 -78 33 -125 46 -138 20 -20 20 -20 40 4
10 13 19 31 19 41 0 27 24 41 58 34 40 -8 424 14 475 27 71 19 82 74 22 113
-14 9 -25 23 -25 31 0 7 23 40 51 72 62 70 103 151 119 239 15 79 9 88 -83
130 -85 38 -190 39 -298 1 -79 -28 -169 -45 -169 -32 0 4 14 80 30 169 17 88
34 179 38 201 l7 40 72 12 c150 25 275 35 461 38 156 3 198 7 218 20 13 8 24
20 24 26 0 25 -37 70 -69 85 -33 16 -42 16 -141 0 -363 -56 -496 -77 -516 -82
-29 -7 -29 -8 -13 186 13 153 9 192 -25 243 -29 43 -33 41 110 62 140 21 226
64 189 95 -21 18 -19 36 10 74 44 58 78 145 79 205 l1 56 -45 23 c-58 29 -92
27 -280 -13z m160 -100 c11 -13 4 -34 -38 -123 l-50 -107 -150 -22 c-125 -18
-281 -52 -411 -89 l-23 -7 7 99 c10 151 24 172 119 180 28 2 72 9 98 15 76 18
370 68 404 68 17 1 37 -6 44 -14z m-349 -425 c4 -25 13 -73 20 -108 13 -64 6
-151 -22 -283 l-10 -47 -97 -17 c-53 -10 -155 -32 -227 -51 -71 -18 -132 -31
-134 -28 -2 2 5 39 16 81 12 43 43 163 70 267 29 111 55 192 62 194 20 7 283
40 301 38 10 -1 17 -17 21 -46z m451 -1008 c6 -6 -22 -69 -79 -178 -87 -167
-88 -169 -123 -172 -71 -5 -257 -33 -307 -47 -29 -7 -53 -12 -53 -10 0 29 -38
187 -61 252 -17 47 -29 86 -27 88 7 7 170 38 318 61 157 24 311 27 332 6z"/>
</g>
</svg>
