<?xml version="1.0" standalone="no"?>
<!DOCTYPE svg PUBLIC "-//W3C//DTD SVG 20010904//EN"
 "http://www.w3.org/TR/2001/REC-SVG-20010904/DTD/svg10.dtd">
<svg version="1.0" xmlns="http://www.w3.org/2000/svg"
 width="340.000000pt" height="340.000000pt" viewBox="0 0 340.000000 340.000000"
 preserveAspectRatio="xMidYMid meet">
<metadata>
Created by potrace 1.15, written by Peter Selinger 2001-2017
</metadata>
<g transform="translate(0.000000,340.000000) scale(0.100000,-0.100000)"
fill="#000000" stroke="none">
<path d="M1780 2527 c-37 -19 -36 -48 5 -96 l35 -43 0 -132 0 -133 -94 -31
c-51 -17 -130 -38 -175 -48 -44 -10 -81 -22 -81 -29 0 -42 78 -45 235 -10 60
14 111 25 112 25 2 0 3 -40 3 -89 l0 -89 -102 -40 c-57 -22 -127 -46 -155 -53
-59 -14 -66 -30 -27 -56 25 -16 30 -15 112 5 48 12 106 24 130 28 l42 7 0 -86
c0 -47 -3 -88 -8 -91 -4 -2 -124 -36 -267 -76 -429 -117 -427 -116 -360 -149
26 -12 46 -9 234 37 271 68 398 94 621 131 371 62 515 72 680 50 74 -9 75 -9
98 16 28 33 28 51 -3 79 -19 18 -42 25 -94 30 -89 9 -334 -9 -470 -35 -213
-40 -333 -60 -337 -56 -2 2 1 44 8 93 l13 89 55 7 c31 4 83 17 115 29 66 24
165 83 165 98 0 17 -52 51 -79 51 -14 0 -64 -14 -111 -30 -47 -16 -100 -30
-117 -30 l-33 0 0 63 c0 105 -3 101 123 132 61 15 154 42 207 60 87 29 95 34
98 59 4 33 -13 56 -42 56 -17 0 -231 -59 -348 -96 -17 -5 -18 5 -18 126 0 142
-11 185 -53 213 -34 22 -89 28 -117 14z"/>
<path d="M1149 2402 c-13 -2 -18 -21 -24 -87 l-7 -85 -94 -151 c-116 -187
-257 -393 -384 -565 -120 -161 -126 -172 -105 -181 20 -7 122 90 232 222 41
50 107 128 146 174 l72 85 7 -65 c11 -101 10 -580 -2 -734 -14 -179 -34 -353
-62 -529 -20 -124 -20 -141 -7 -165 19 -34 50 -38 84 -9 26 23 28 30 50 243
44 405 55 748 35 1058 -5 81 -14 157 -20 168 -6 11 -24 22 -41 26 -16 3 -29
10 -29 15 0 24 45 92 104 156 80 88 109 133 136 211 24 72 27 173 5 191 -17
14 -73 27 -96 22z"/>
<path d="M1990 1354 c-52 -13 -140 -39 -195 -56 -55 -17 -118 -32 -140 -32
-37 -1 -40 -3 -37 -26 27 -259 26 -504 -4 -801 -19 -179 -16 -197 25 -184 14
4 25 22 36 58 21 73 42 181 50 253 l7 61 88 6 c88 7 250 50 250 67 0 23 -24
59 -47 69 -47 21 -151 4 -265 -44 -16 -6 -18 -1 -18 47 0 30 3 83 6 117 l7 61
71 0 c82 0 179 21 236 50 35 18 39 23 28 39 -29 47 -83 51 -218 16 -52 -14
-101 -25 -107 -25 -8 0 -13 14 -13 38 0 20 -5 57 -11 81 -5 24 -8 46 -5 48 5
6 143 25 300 43 108 12 108 12 131 -11 21 -21 25 -40 35 -164 6 -77 13 -270
17 -429 l6 -288 -41 23 c-33 19 -45 22 -59 13 -28 -17 -28 -77 0 -138 28 -60
64 -90 131 -108 56 -15 56 -14 86 81 26 81 26 150 0 619 -24 451 -22 435 -55
478 -53 70 -134 80 -295 38z"/>
</g>
</svg>
