<?xml version="1.0" standalone="no"?>
<!DOCTYPE svg PUBLIC "-//W3C//DTD SVG 20010904//EN"
 "http://www.w3.org/TR/2001/REC-SVG-20010904/DTD/svg10.dtd">
<svg version="1.0" xmlns="http://www.w3.org/2000/svg"
 width="340.000000pt" height="340.000000pt" viewBox="0 0 340.000000 340.000000"
 preserveAspectRatio="xMidYMid meet">
<metadata>
Created by potrace 1.15, written by Peter Selinger 2001-2017
</metadata>
<g transform="translate(0.000000,340.000000) scale(0.100000,-0.100000)"
fill="#000000" stroke="none">
<path d="M2050 2492 c-8 -3 -18 -10 -22 -16 -13 -18 -9 -100 7 -147 10 -32 17
-131 23 -357 l9 -313 29 -30 c97 -102 245 -151 392 -129 37 6 103 15 148 19
45 5 97 16 116 24 45 19 93 78 108 133 17 61 8 179 -17 228 l-20 38 -31 -38
c-34 -41 -57 -101 -67 -175 l-7 -47 -56 -15 c-90 -25 -179 -38 -259 -39 -62
-1 -82 3 -130 28 -76 39 -103 79 -103 153 0 66 4 73 50 91 66 25 195 92 263
136 70 46 107 92 107 134 0 35 -10 47 -51 64 -45 19 -83 3 -87 -36 -2 -18 -19
-39 -55 -66 -66 -51 -199 -142 -206 -142 -4 0 -7 56 -8 123 -2 130 -32 313
-58 353 -14 22 -50 34 -75 26z"/>
<path d="M1131 2361 c-9 -16 -7 -28 9 -58 11 -21 20 -47 20 -59 0 -22 -101
-196 -190 -329 -102 -151 -235 -321 -373 -475 -61 -68 -98 -133 -83 -147 13
-14 124 69 200 147 199 209 587 729 602 805 14 77 -30 125 -122 133 -45 4 -54
2 -63 -17z"/>
<path d="M1438 2300 c-35 -21 -41 -48 -19 -88 40 -74 61 -363 40 -567 -21
-210 -20 -216 22 -239 22 -12 44 -17 60 -13 57 14 224 165 263 237 l27 50 -43
0 c-49 0 -152 -45 -182 -79 -11 -11 -23 -21 -28 -21 -10 0 -10 197 1 223 5 13
46 32 133 61 134 45 192 79 202 122 8 31 -16 74 -41 74 -30 0 -159 -70 -222
-120 l-61 -50 0 49 c0 109 -47 322 -77 352 -15 14 -58 19 -75 9z"/>
<path d="M1029 1708 c-1 -13 -3 -149 -4 -303 -5 -378 -28 -708 -71 -1004 -18
-120 -14 -148 23 -162 61 -23 74 3 98 191 41 321 54 866 26 1120 -14 134 -20
154 -51 170 -17 9 -20 7 -21 -12z"/>
<path d="M1840 1513 c-15 -19 -20 -37 -17 -57 3 -25 -7 -45 -57 -110 -34 -45
-86 -120 -116 -168 -51 -81 -57 -88 -88 -88 -84 0 -93 -42 -28 -130 84 -113
106 -204 105 -423 0 -144 8 -221 32 -294 l10 -33 41 33 c38 30 51 34 259 68
229 37 229 37 229 -9 0 -8 10 -36 21 -60 16 -33 32 -49 63 -63 48 -22 89 -24
103 -6 54 67 106 444 107 765 l1 192 -30 25 c-91 75 -227 110 -340 87 -108
-22 -258 -63 -310 -87 -30 -13 -55 -21 -55 -18 0 14 57 82 115 138 40 40 68
77 80 108 17 45 17 49 0 93 -26 68 -86 86 -125 37z m477 -408 l50 -15 7 -61
c9 -87 7 -195 -4 -329 -10 -117 -38 -319 -47 -333 -5 -9 -41 9 -73 38 -19 17
-42 24 -98 29 -82 7 -230 -7 -312 -30 -30 -9 -65 -18 -77 -21 l-23 -5 0 159 0
160 78 6 c42 3 109 16 147 28 77 24 165 65 165 77 0 5 -10 18 -23 30 -42 39
-71 37 -225 -17 -79 -28 -145 -51 -148 -51 -2 0 -4 24 -4 53 -1 63 -14 126
-39 178 l-19 38 32 10 c175 57 507 87 613 56z"/>
</g>
</svg>
