<?xml version="1.0" standalone="no"?>
<!DOCTYPE svg PUBLIC "-//W3C//DTD SVG 20010904//EN"
 "http://www.w3.org/TR/2001/REC-SVG-20010904/DTD/svg10.dtd">
<svg version="1.0" xmlns="http://www.w3.org/2000/svg"
 width="340.000000pt" height="340.000000pt" viewBox="0 0 340.000000 340.000000"
 preserveAspectRatio="xMidYMid meet">
<metadata>
Created by potrace 1.15, written by Peter Selinger 2001-2017
</metadata>
<g transform="translate(0.000000,340.000000) scale(0.100000,-0.100000)"
fill="#000000" stroke="none">
<path d="M1783 2479 c-62 -18 -38 -50 77 -103 107 -49 149 -60 183 -47 21 8
27 17 27 41 0 17 -4 39 -10 49 -24 46 -201 84 -277 60z"/>
<path d="M1116 2345 c-11 -29 -7 -80 9 -102 15 -21 12 -30 -40 -145 -107 -237
-258 -484 -434 -712 -94 -122 -108 -158 -65 -164 42 -6 344 372 523 655 125
197 151 253 158 346 l6 74 -35 26 c-44 34 -112 46 -122 22z"/>
<path d="M2440 2308 c-25 -5 -142 -30 -260 -54 -118 -25 -321 -70 -449 -100
-129 -30 -248 -54 -264 -54 -24 0 -28 -4 -25 -22 3 -22 6 -23 108 -20 150 3
258 17 480 62 107 21 255 45 328 53 140 16 174 29 194 73 8 18 8 31 0 49 -13
28 -33 30 -112 13z"/>
<path d="M2240 2002 c-61 -8 -296 -64 -410 -97 -126 -37 -147 -38 -249 -19
-33 7 -34 6 -27 -22 4 -16 16 -38 25 -49 29 -31 42 -63 62 -143 20 -77 44
-125 78 -156 19 -18 22 -17 71 13 30 19 64 31 84 31 118 0 376 66 376 96 0 26
39 92 84 143 51 58 60 80 51 127 -9 50 -76 86 -145 76z m-40 -146 c0 -7 -9
-24 -19 -38 -11 -13 -23 -37 -27 -52 -9 -39 -35 -51 -164 -80 -63 -14 -130
-30 -149 -36 -42 -12 -47 -9 -55 33 -3 18 -20 55 -36 80 -18 28 -25 47 -17 48
6 0 98 13 202 29 221 33 265 36 265 16z"/>
<path d="M1015 1663 c-4 -10 -11 -157 -16 -328 -12 -435 -39 -749 -76 -898
-15 -61 -16 -71 -2 -95 8 -15 26 -32 39 -39 24 -12 26 -11 47 35 38 82 53 162
58 305 3 77 7 142 9 146 3 4 10 100 16 214 12 228 -1 601 -23 647 -15 30 -42
37 -52 13z"/>
<path d="M2315 1480 c-126 -22 -351 -66 -500 -96 -148 -31 -289 -58 -312 -61
l-43 -5 0 60 c0 49 -4 66 -23 88 l-23 27 -23 -69 c-12 -38 -41 -107 -65 -154
-24 -47 -58 -118 -75 -157 -30 -68 -31 -75 -17 -102 45 -87 125 -11 201 192
20 54 11 51 185 66 69 6 190 25 270 42 80 16 190 36 245 45 116 17 424 30 478
20 50 -9 50 -38 0 -70 -54 -33 -73 -58 -80 -101 l-6 -38 56 7 c69 8 141 35
213 81 54 35 54 35 54 86 0 46 -4 55 -34 83 -38 35 -159 84 -226 91 -28 3
-132 -10 -275 -35z"/>
<path d="M2115 1125 c-88 -19 -232 -55 -320 -81 -88 -25 -180 -50 -204 -55
-52 -11 -55 -13 -48 -34 12 -29 325 -15 364 17 21 17 62 0 70 -30 10 -33 11
-568 1 -577 -17 -17 -92 -17 -148 0 -48 15 -62 16 -75 5 -28 -23 -17 -57 35
-109 57 -57 144 -102 203 -104 39 -2 43 1 74 46 18 27 38 67 43 88 13 48 18
567 7 657 l-8 62 38 0 c21 0 61 6 89 14 54 14 154 64 154 76 0 4 -8 18 -18 30
-27 34 -81 33 -257 -5z"/>
</g>
</svg>
