<?xml version="1.0" standalone="no"?>
<!DOCTYPE svg PUBLIC "-//W3C//DTD SVG 20010904//EN"
 "http://www.w3.org/TR/2001/REC-SVG-20010904/DTD/svg10.dtd">
<svg version="1.0" xmlns="http://www.w3.org/2000/svg"
 width="340.000000pt" height="340.000000pt" viewBox="0 0 340.000000 340.000000"
 preserveAspectRatio="xMidYMid meet">
<metadata>
Created by potrace 1.15, written by Peter Selinger 2001-2017
</metadata>
<g transform="translate(0.000000,340.000000) scale(0.100000,-0.100000)"
fill="#000000" stroke="none">
<path d="M2195 2424 c-158 -24 -306 -55 -450 -95 -77 -22 -157 -44 -177 -49
-49 -14 -54 -25 -17 -40 26 -11 45 -10 127 8 53 12 120 25 148 28 l51 6 12
-48 c7 -27 15 -87 18 -134 l6 -85 -123 -40 -122 -40 27 -22 c31 -27 50 -28
128 -6 60 16 60 16 79 -6 15 -20 18 -41 18 -137 0 -99 -2 -115 -18 -123 -18
-10 -212 -61 -230 -61 -5 0 -12 37 -16 81 -14 164 -79 432 -122 497 -22 33
-74 62 -112 62 -38 0 -39 8 15 -165 18 -60 43 -153 54 -205 18 -86 99 -344
112 -356 3 -3 39 2 80 10 41 9 114 19 161 22 l86 7 0 -127 c0 -69 -1 -126 -2
-126 -2 0 -115 -22 -252 -50 l-249 -49 -39 34 c-43 40 -88 46 -125 17 l-23
-17 49 -96 c68 -137 82 -201 91 -419 8 -192 26 -280 56 -280 8 0 27 12 41 26
l26 26 -7 131 c-4 73 -14 204 -22 292 -7 88 -14 174 -14 190 l0 30 230 34
c127 19 232 32 234 30 2 -2 6 -69 7 -148 l3 -144 -123 -43 c-68 -23 -128 -47
-133 -52 -18 -18 11 -82 40 -94 42 -16 90 1 345 122 l231 110 27 -26 c15 -14
37 -46 50 -71 27 -53 70 -83 118 -83 l34 0 -5 64 c-4 43 -14 80 -33 114 -47
86 -179 182 -252 182 -41 0 -42 -12 -4 -73 33 -51 35 -49 -44 -63 -22 -4 -64
-16 -94 -27 -44 -16 -55 -17 -63 -6 -9 14 -3 235 8 264 12 29 183 64 354 72
143 6 326 -10 355 -31 31 -22 29 -85 -9 -274 -32 -162 -100 -418 -139 -527
-14 -39 -15 -40 -64 -40 -34 1 -58 7 -80 23 -18 13 -46 22 -67 22 -29 0 -37
-4 -42 -24 -8 -34 15 -73 80 -134 85 -80 143 -98 212 -66 24 12 37 26 44 53 6
20 54 198 107 396 l97 360 0 139 1 139 -63 34 c-118 66 -243 80 -383 44 -41
-10 -145 -33 -233 -51 -129 -26 -160 -29 -167 -18 -5 7 -9 61 -9 120 0 104 1
108 23 112 12 3 72 15 132 26 61 12 119 27 130 34 23 15 139 244 189 373 19
48 48 117 65 153 57 121 32 222 -68 273 -47 23 -66 27 -135 26 -45 -1 -121 -7
-171 -15z m188 -120 l48 -16 -6 -46 c-33 -236 -124 -535 -172 -560 -10 -6 -65
-12 -122 -13 l-104 -4 6 120 c2 66 8 128 12 137 4 10 24 23 45 29 39 12 110
63 110 79 0 13 -59 30 -105 30 l-42 0 -7 78 c-3 42 -9 96 -12 119 -7 50 -4 52
130 63 105 9 152 6 219 -16z"/>
<path d="M1109 2374 c-8 -21 -8 -39 1 -67 10 -36 8 -43 -45 -150 -115 -230
-282 -484 -454 -695 -105 -129 -121 -152 -121 -178 0 -31 7 -30 61 4 68 44
113 93 253 275 71 92 133 164 137 160 9 -10 27 -144 35 -263 7 -111 -10 -515
-31 -715 -8 -77 -27 -217 -41 -312 -26 -163 -27 -172 -11 -197 22 -33 56 -34
86 -2 26 27 46 128 61 301 16 198 32 705 28 935 l-3 225 -32 64 -33 64 29 36
c57 73 142 211 192 315 49 101 51 108 41 145 -16 51 -42 72 -96 78 -43 5 -46
4 -57 -23z"/>
</g>
</svg>
