<?xml version="1.0" standalone="no"?>
<!DOCTYPE svg PUBLIC "-//W3C//DTD SVG 20010904//EN"
 "http://www.w3.org/TR/2001/REC-SVG-20010904/DTD/svg10.dtd">
<svg version="1.0" xmlns="http://www.w3.org/2000/svg"
 width="340.000000pt" height="340.000000pt" viewBox="0 0 340.000000 340.000000"
 preserveAspectRatio="xMidYMid meet">
<metadata>
Created by potrace 1.15, written by Peter Selinger 2001-2017
</metadata>
<g transform="translate(0.000000,340.000000) scale(0.100000,-0.100000)"
fill="#000000" stroke="none">
<path d="M1832 2538 c-18 -18 -15 -42 8 -63 10 -9 27 -36 35 -60 16 -39 15
-53 -4 -210 -12 -93 -22 -169 -24 -171 -3 -3 -299 -54 -315 -54 -5 0 -12 23
-16 51 -8 58 -33 115 -65 143 -20 18 -22 18 -41 1 -15 -13 -20 -31 -20 -65 0
-26 -7 -64 -15 -83 -30 -72 -15 -141 39 -176 27 -18 31 -18 164 11 75 16 175
38 222 49 47 11 137 27 200 35 98 13 159 24 317 61 17 4 21 1 17 -14 -6 -24
31 -73 55 -73 23 0 93 75 120 128 26 51 61 177 61 220 0 72 -101 131 -143 84
-20 -22 -21 -42 -5 -76 9 -21 6 -40 -16 -110 -40 -122 -38 -120 -116 -102 -76
18 -175 20 -251 6 -85 -16 -89 -2 -39 150 30 91 24 188 -16 268 l-30 57 -54 3
c-34 2 -60 -2 -68 -10z"/>
<path d="M1060 2335 c-10 -12 -10 -21 -1 -41 6 -14 11 -36 11 -49 0 -32 -268
-403 -493 -684 -86 -107 -97 -131 -62 -131 29 0 228 194 419 410 157 176 200
233 255 338 40 79 41 83 26 111 -8 16 -25 37 -37 45 -29 21 -102 21 -118 1z"/>
<path d="M2010 1840 c-6 -12 -8 -29 -5 -40 8 -26 104 -117 137 -131 30 -12 93
-5 104 12 11 19 -26 97 -61 128 -58 50 -155 68 -175 31z"/>
<path d="M1670 1827 c-32 -11 -35 -16 -36 -53 -3 -73 -51 -143 -274 -401 -119
-136 -226 -261 -238 -277 -26 -34 -28 -56 -6 -56 23 0 169 116 280 223 52 49
96 88 98 86 12 -12 26 -236 26 -402 -1 -198 -4 -233 -38 -472 -11 -77 -23
-177 -27 -223 l-6 -83 37 3 c67 5 71 20 116 435 61 549 60 608 -2 757 l-30 70
48 50 c61 65 107 132 138 202 29 65 30 95 7 122 -24 27 -51 33 -93 19z"/>
<path d="M895 1710 c-10 -17 -7 -100 5 -140 6 -19 14 -148 17 -286 7 -286 -5
-481 -44 -722 -37 -234 -36 -223 -13 -261 l21 -34 31 29 c53 51 58 71 78 327
44 546 51 961 18 1023 -25 47 -98 88 -113 64z"/>
<path d="M2425 1674 c-105 -38 -354 -100 -500 -127 -115 -21 -130 -26 -133
-45 -6 -38 29 -45 184 -38 l142 7 11 -48 c5 -26 13 -78 17 -115 l6 -68 -46
-20 c-26 -11 -93 -34 -148 -51 l-102 -32 28 -23 c31 -28 74 -31 134 -10 22 8
61 18 86 21 l46 7 0 -99 0 -100 -127 -50 c-133 -51 -150 -67 -102 -90 22 -11
42 -9 122 9 53 12 99 19 102 16 3 -3 2 -52 -2 -109 l-8 -104 -40 -7 c-183 -33
-425 -84 -433 -92 -3 -4 2 -14 11 -23 13 -14 37 -16 134 -15 65 1 150 6 188
12 39 5 115 17 170 25 200 31 474 30 676 -1 31 -5 39 -2 58 21 36 46 28 63
-49 104 -64 34 -138 42 -257 26 -59 -8 -161 -18 -227 -21 l-118 -7 5 39 c4 21
9 68 13 104 7 69 14 80 55 80 31 0 120 43 145 71 18 21 18 21 -4 40 -35 27
-85 34 -137 16 -28 -9 -48 -11 -51 -5 -14 23 -14 140 1 168 15 30 23 34 90 45
47 8 138 51 161 76 14 16 14 19 -5 38 -33 33 -63 35 -154 9 l-84 -25 -11 102
c-6 56 -14 109 -17 117 -5 13 3 18 42 23 83 12 166 35 236 67 72 33 86 58 49
91 -25 23 -74 20 -157 -9z"/>
</g>
</svg>
