<?xml version="1.0" standalone="no"?>
<!DOCTYPE svg PUBLIC "-//W3C//DTD SVG 20010904//EN"
 "http://www.w3.org/TR/2001/REC-SVG-20010904/DTD/svg10.dtd">
<svg version="1.0" xmlns="http://www.w3.org/2000/svg"
 width="340.000000pt" height="340.000000pt" viewBox="0 0 340.000000 340.000000"
 preserveAspectRatio="xMidYMid meet">
<metadata>
Created by potrace 1.15, written by Peter Selinger 2001-2017
</metadata>
<g transform="translate(0.000000,340.000000) scale(0.100000,-0.100000)"
fill="#000000" stroke="none">
<path d="M2180 2460 c-192 -45 -607 -128 -677 -136 -35 -4 -71 -13 -80 -20
-17 -13 -17 -15 2 -30 17 -14 44 -15 190 -11 137 4 207 12 360 41 280 52 405
92 405 129 -1 59 -40 64 -200 27z"/>
<path d="M1065 2301 c6 -55 4 -62 -39 -150 -104 -205 -233 -402 -393 -598 -87
-106 -111 -149 -94 -166 7 -7 23 0 48 18 174 131 445 478 582 744 51 99 53
106 42 142 -15 50 -44 69 -104 69 l-49 0 7 -59z"/>
<path d="M1945 2130 c-209 -42 -408 -85 -443 -94 -79 -20 -105 -20 -143 0 -33
17 -59 13 -59 -9 0 -8 24 -64 54 -124 30 -61 71 -155 90 -209 57 -154 61 -161
101 -174 20 -7 57 -10 83 -7 56 5 333 57 487 91 109 24 110 24 156 76 65 72
150 192 210 296 44 76 50 92 44 123 -14 76 -63 112 -152 110 -26 0 -219 -36
-428 -79z m410 -70 c3 -5 -33 -90 -80 -188 l-87 -179 -106 -7 c-59 -3 -120 -9
-136 -12 l-28 -7 7 54 c12 87 17 94 78 108 56 12 147 62 147 81 0 6 -15 19
-32 31 -27 16 -43 19 -89 14 -45 -5 -59 -3 -72 10 -22 22 -22 62 1 74 29 15
139 33 252 40 100 6 132 2 145 -19z m-546 -81 c21 -61 16 -72 -54 -103 -36
-16 -70 -35 -76 -43 -19 -22 18 -42 79 -43 l52 0 0 -68 0 -69 -57 -13 c-32 -7
-84 -20 -115 -30 l-57 -18 -6 32 c-21 103 -61 218 -97 274 -22 35 -38 66 -36
68 2 2 80 12 173 22 94 11 173 20 177 21 3 0 11 -13 17 -30z"/>
<path d="M920 1298 c0 -413 -8 -608 -36 -921 -17 -191 -15 -207 31 -207 34 0
44 19 66 122 24 113 42 610 37 1023 -3 223 -6 266 -21 300 -18 41 -54 85 -69
85 -4 0 -8 -181 -8 -402z"/>
<path d="M2490 1540 c-478 -50 -863 -108 -1203 -181 -76 -16 -155 -29 -177
-29 -31 0 -40 -4 -45 -21 -9 -28 6 -36 83 -45 79 -8 127 -2 322 41 346 77 594
104 1003 112 297 6 308 7 322 27 23 32 18 63 -11 83 -32 21 -163 26 -294 13z"/>
<path d="M2085 1261 c-431 -75 -617 -114 -637 -135 -18 -20 -18 -20 -57 2 -21
12 -48 22 -59 22 -42 0 -34 -35 44 -186 43 -81 94 -190 115 -243 l38 -95 49
-14 c45 -13 74 -11 333 22 252 31 286 33 300 20 15 -13 21 -9 67 48 72 92 124
176 197 319 77 151 82 189 36 241 -29 32 -32 33 -118 35 -65 2 -146 -8 -308
-36z m282 -84 c19 -20 -134 -382 -175 -414 -20 -14 -262 -19 -262 -4 0 5 9 39
20 75 21 66 21 66 58 66 43 0 109 28 134 57 17 19 17 20 -20 37 -20 10 -63 21
-95 24 l-58 5 3 66 3 65 40 9 c101 22 334 31 352 14z m-543 -89 c8 -13 17 -37
21 -54 5 -27 1 -35 -25 -57 -17 -15 -47 -29 -68 -33 -77 -13 -112 -25 -122
-43 -14 -26 3 -31 111 -31 l90 0 -3 -67 -3 -66 -100 -34 c-54 -18 -105 -33
-112 -33 -15 0 -28 48 -42 152 -12 85 -38 158 -77 218 -15 22 -25 42 -23 44 6
5 198 23 271 24 60 2 69 0 82 -20z"/>
<path d="M2221 515 c-229 -21 -451 -51 -681 -91 -113 -19 -220 -37 -237 -40
-33 -5 -40 -17 -24 -43 13 -20 282 -17 411 4 52 8 142 23 200 32 143 23 553
23 693 1 102 -17 131 -15 160 10 20 18 21 32 5 67 -28 62 -238 86 -527 60z"/>
</g>
</svg>
