<?xml version="1.0" standalone="no"?>
<!DOCTYPE svg PUBLIC "-//W3C//DTD SVG 20010904//EN"
 "http://www.w3.org/TR/2001/REC-SVG-20010904/DTD/svg10.dtd">
<svg version="1.0" xmlns="http://www.w3.org/2000/svg"
 width="340.000000pt" height="340.000000pt" viewBox="0 0 340.000000 340.000000"
 preserveAspectRatio="xMidYMid meet">
<metadata>
Created by potrace 1.15, written by Peter Selinger 2001-2017
</metadata>
<g transform="translate(0.000000,340.000000) scale(0.100000,-0.100000)"
fill="#000000" stroke="none">
<path d="M1122 2378 c-19 -25 -23 -57 -9 -91 15 -34 14 -36 -63 -184 -92 -180
-212 -363 -347 -533 -55 -69 -102 -132 -105 -141 -7 -19 9 -39 32 -39 22 0
212 196 275 284 28 38 77 105 109 150 33 44 79 110 102 146 57 89 154 284 154
310 0 35 -29 86 -56 99 -33 15 -79 14 -92 -1z"/>
<path d="M2088 2340 c-81 -16 -199 -40 -262 -54 -63 -14 -139 -26 -168 -27
-59 -1 -129 -19 -131 -34 -1 -5 14 -18 33 -28 28 -15 49 -17 107 -12 89 7 124
-8 154 -67 27 -53 38 -156 18 -169 -39 -25 -372 -109 -434 -109 -20 0 -25 5
-25 24 0 47 -41 116 -69 116 -5 0 -11 -37 -13 -82 -4 -68 -11 -98 -42 -167
-20 -47 -46 -121 -56 -165 -18 -72 -18 -83 -5 -103 21 -32 59 -30 83 5 26 37
77 166 92 232 7 30 17 60 21 66 5 6 35 14 67 18 53 6 337 61 373 71 14 5 17
-23 27 -222 14 -257 19 -287 50 -291 44 -7 50 25 62 292 5 137 11 251 13 252
2 2 44 10 95 19 111 19 303 31 430 27 113 -4 124 -16 63 -68 -22 -20 -41 -41
-41 -48 0 -23 36 -46 69 -46 41 0 135 24 196 50 38 16 45 24 45 47 -1 54 -35
109 -87 140 l-48 28 -185 -1 c-166 -1 -202 -4 -343 -32 -219 -44 -202 -48
-202 46 0 42 -3 96 -7 118 l-8 42 55 7 c53 6 217 41 303 64 49 14 53 31 17 66
-31 32 -57 31 -247 -5z"/>
<path d="M2150 1765 c-29 -35 100 -122 195 -132 l55 -6 0 37 c0 57 -39 90
-121 105 -87 15 -114 14 -129 -4z"/>
<path d="M1016 1728 c-3 -24 -10 -169 -16 -323 -12 -347 -27 -659 -45 -920
-11 -167 -11 -205 1 -233 10 -25 19 -32 42 -32 60 0 59 -4 77 345 34 654 29
1120 -11 1183 -23 35 -41 27 -48 -20z"/>
<path d="M1497 1733 c-16 -16 -4 -43 37 -81 49 -45 108 -66 160 -56 32 6 34 7
25 36 -13 48 -38 79 -74 94 -35 14 -136 19 -148 7z"/>
<path d="M2129 1524 c-18 -22 -4 -41 70 -91 52 -36 71 -43 109 -43 62 0 77 10
68 45 -10 39 -56 81 -102 94 -58 16 -129 14 -145 -5z"/>
<path d="M1480 1471 c-16 -30 -3 -47 56 -75 67 -32 109 -34 124 -5 15 26 -5
50 -64 79 -54 26 -102 26 -116 1z"/>
<path d="M2130 1285 c-107 -19 -277 -52 -378 -74 -101 -23 -203 -41 -227 -41
-33 0 -47 -5 -54 -19 -9 -16 -6 -20 22 -24 74 -13 187 -17 255 -9 39 4 72 7
72 5 0 -8 -108 -164 -187 -270 -72 -98 -87 -113 -111 -113 -16 0 -43 -5 -61
-11 -29 -10 -35 -9 -60 15 -19 18 -38 26 -64 26 -20 0 -37 -3 -37 -6 0 -4 14
-50 31 -103 17 -52 34 -129 39 -171 10 -85 30 -148 60 -191 27 -38 46 -37 70
3 22 36 26 94 11 161 -5 23 -15 69 -21 102 -7 33 -19 72 -26 88 l-15 27 78 0
c43 1 105 7 138 15 99 24 93 32 93 -107 0 -92 6 -143 21 -203 24 -88 30 -99
55 -89 48 18 56 93 30 292 -13 104 -14 126 -3 133 21 13 106 30 183 36 l69 6
-7 -29 c-11 -44 -19 -288 -12 -328 9 -46 33 -71 52 -55 30 25 47 118 45 257
-1 80 3 141 10 154 10 19 18 20 137 16 97 -4 143 -10 192 -27 36 -12 69 -26
73 -30 23 -23 -93 -308 -156 -385 -23 -28 -23 -28 -56 -11 -36 18 -117 23
-133 7 -31 -31 39 -121 109 -142 39 -12 46 -11 97 14 32 16 76 50 108 85 94
101 185 355 164 462 -5 26 -17 41 -54 66 -155 106 -262 106 -782 7 -141 -27
-150 -28 -150 -14 0 5 36 48 81 95 80 86 111 137 124 206 l7 36 90 13 c95 13
281 58 342 84 33 14 36 18 26 35 -13 26 -42 41 -72 40 -13 -1 -111 -16 -218
-34z"/>
</g>
</svg>
