<?xml version="1.0" standalone="no"?>
<!DOCTYPE svg PUBLIC "-//W3C//DTD SVG 20010904//EN"
 "http://www.w3.org/TR/2001/REC-SVG-20010904/DTD/svg10.dtd">
<svg version="1.0" xmlns="http://www.w3.org/2000/svg"
 width="340.000000pt" height="340.000000pt" viewBox="0 0 340.000000 340.000000"
 preserveAspectRatio="xMidYMid meet">
<metadata>
Created by potrace 1.15, written by Peter Selinger 2001-2017
</metadata>
<g transform="translate(0.000000,340.000000) scale(0.100000,-0.100000)"
fill="#000000" stroke="none">
<path d="M1442 2268 c-17 -17 -15 -70 3 -94 8 -10 15 -25 15 -33 0 -8 -38 -71
-84 -140 -160 -241 -364 -481 -553 -654 -139 -128 -365 -366 -357 -379 9 -14
47 -9 75 10 63 41 296 249 440 392 172 171 286 298 422 468 59 74 93 110 101
104 94 -71 232 -196 535 -487 500 -479 469 -452 537 -477 48 -18 82 -22 187
-22 136 -1 147 3 147 50 0 29 -28 51 -75 59 -22 4 -87 32 -145 62 -249 130
-521 335 -770 579 -102 100 -187 169 -297 241 l-83 54 35 51 c42 60 47 121 15
173 -29 48 -118 73 -148 43z"/>
<path d="M1551 1384 c-85 -24 -197 -58 -248 -74 -51 -17 -109 -30 -128 -30
-25 0 -37 -6 -45 -21 -7 -11 -9 -24 -5 -27 4 -4 67 -7 140 -7 l134 0 15 -40
c27 -73 37 -123 39 -207 l2 -83 -80 -27 c-114 -40 -205 -79 -205 -88 0 -5 15
-13 33 -19 26 -9 52 -7 127 9 121 25 143 26 136 3 -3 -10 -10 -87 -17 -172 -8
-89 -17 -154 -23 -156 -6 -1 -83 -12 -171 -24 -88 -12 -219 -36 -290 -53 -72
-18 -158 -32 -194 -32 -49 -1 -66 -5 -74 -18 -15 -23 -8 -28 60 -44 98 -23
214 -18 349 16 375 93 786 113 1169 56 99 -15 128 -7 146 41 12 33 2 51 -45
76 -39 20 -53 21 -306 22 -168 0 -308 -5 -383 -14 -64 -8 -120 -12 -123 -9 -5
6 8 173 25 308 l6 55 51 6 c62 8 142 33 207 66 42 21 46 26 37 43 -24 45 -62
49 -176 20 -125 -31 -120 -34 -128 63 -4 45 -14 113 -22 150 -8 38 -14 72 -14
76 0 4 23 13 51 19 60 14 162 62 202 94 26 22 27 24 12 46 -24 33 -85 28 -264
-24z"/>
</g>
</svg>
