<?xml version="1.0" standalone="no"?>
<!DOCTYPE svg PUBLIC "-//W3C//DTD SVG 20010904//EN"
 "http://www.w3.org/TR/2001/REC-SVG-20010904/DTD/svg10.dtd">
<svg version="1.0" xmlns="http://www.w3.org/2000/svg"
 width="340.000000pt" height="340.000000pt" viewBox="0 0 340.000000 340.000000"
 preserveAspectRatio="xMidYMid meet">
<metadata>
Created by potrace 1.15, written by Peter Selinger 2001-2017
</metadata>
<g transform="translate(0.000000,340.000000) scale(0.100000,-0.100000)"
fill="#000000" stroke="none">
<path d="M1502 2508 c-22 -22 -13 -42 35 -84 l46 -40 -57 -170 -57 -170 -245
-60 -244 -60 0 48 c0 52 -18 105 -42 126 -13 10 -18 1 -38 -70 -15 -53 -52
-135 -102 -228 -87 -161 -95 -181 -82 -219 12 -33 39 -38 81 -16 25 14 43 39
77 109 25 50 54 118 65 151 l20 60 118 7 c84 5 150 16 227 37 61 17 112 29
114 26 10 -9 -142 -296 -192 -362 -30 -40 -71 -103 -91 -141 -20 -38 -64 -103
-98 -145 -34 -42 -153 -187 -264 -322 -112 -136 -203 -253 -203 -261 0 -30 42
-12 112 48 179 153 362 361 473 537 58 93 59 94 67 65 28 -93 15 -401 -33
-824 -36 -317 -36 -303 -4 -328 57 -45 85 -30 181 99 195 262 360 549 315 549
-29 0 -248 -240 -332 -365 -24 -35 -48 -65 -52 -65 -4 0 -5 21 -3 47 3 27 8
104 11 173 3 69 13 181 20 249 8 68 18 203 21 300 l6 176 -28 69 -28 70 22 35
c30 49 161 281 206 362 l36 67 67 16 c38 8 97 21 133 27 72 13 384 18 396 7
12 -13 -18 -39 -80 -67 -76 -34 -114 -67 -144 -120 l-23 -41 38 0 c54 0 144
25 212 59 32 15 81 36 109 45 75 25 131 96 120 153 -2 11 -33 33 -80 57 -118
60 -174 60 -456 2 -123 -25 -228 -46 -234 -46 -18 0 -1 59 43 146 61 124 66
220 12 270 -22 20 -36 24 -92 24 -39 0 -72 -5 -79 -12z"/>
<path d="M2147 1639 c-13 -7 -17 -20 -15 -40 3 -27 -13 -42 -200 -194 l-203
-164 -82 71 c-149 129 -317 229 -317 189 0 -15 434 -418 829 -770 210 -188
249 -213 366 -231 137 -22 300 20 280 73 -8 18 -30 27 -155 62 -120 34 -273
94 -370 146 -85 46 -247 180 -474 390 -18 17 -17 18 30 42 74 38 258 161 355
238 93 74 109 101 89 150 -18 41 -91 62 -133 38z"/>
</g>
</svg>
