<?xml version="1.0" standalone="no"?>
<!DOCTYPE svg PUBLIC "-//W3C//DTD SVG 20010904//EN"
 "http://www.w3.org/TR/2001/REC-SVG-20010904/DTD/svg10.dtd">
<svg version="1.0" xmlns="http://www.w3.org/2000/svg"
 width="340.000000pt" height="340.000000pt" viewBox="0 0 340.000000 340.000000"
 preserveAspectRatio="xMidYMid meet">
<metadata>
Created by potrace 1.15, written by Peter Selinger 2001-2017
</metadata>
<g transform="translate(0.000000,340.000000) scale(0.100000,-0.100000)"
fill="#000000" stroke="none">
<path d="M1844 2380 c-267 -39 -715 -128 -835 -165 -13 -4 -18 4 -23 34 -3 22
-11 51 -17 65 -10 22 -46 46 -69 46 -5 0 -19 -33 -31 -72 -11 -40 -49 -125
-84 -188 -35 -63 -76 -141 -91 -172 -26 -54 -27 -57 -10 -82 39 -60 89 -19
196 159 l80 133 112 21 c337 62 882 136 933 126 70 -15 71 -16 16 -42 -52 -25
-88 -71 -77 -99 8 -22 148 -18 216 6 30 11 64 20 75 20 32 0 84 37 90 63 4 13
0 40 -8 60 -12 28 -28 41 -79 65 -60 28 -149 53 -186 51 -9 0 -103 -13 -208
-29z"/>
<path d="M1505 2010 c-225 -48 -511 -134 -507 -152 8 -35 64 -48 129 -29 51
15 163 24 163 14 0 -38 -360 -429 -528 -574 -62 -53 -82 -90 -52 -96 8 -2 56
23 107 56 l91 59 57 -85 57 -86 -191 -184 c-192 -186 -212 -213 -151 -213 29
0 144 83 324 233 l89 74 26 -28 c14 -16 48 -39 74 -52 l48 -23 -68 -79 c-106
-125 -304 -343 -382 -420 -71 -69 -88 -105 -52 -105 24 0 75 35 181 123 184
154 387 367 527 553 l58 78 8 -65 c18 -141 -16 -367 -85 -577 l-41 -122 -33
25 c-46 35 -88 48 -129 41 -44 -9 -44 -24 -5 -92 18 -32 47 -63 77 -84 42 -27
54 -31 92 -26 57 8 101 34 124 74 22 37 91 310 106 418 20 138 12 388 -15 518
l-6 28 44 -30 c24 -16 124 -103 224 -193 329 -299 426 -381 478 -405 86 -39
163 -54 278 -54 107 0 108 0 114 25 10 39 -14 63 -96 98 -157 68 -516 279
-715 420 -153 109 -194 141 -191 152 1 5 25 22 52 38 60 36 256 193 357 287
81 75 93 102 76 165 -12 41 -53 65 -112 65 -60 0 -86 -64 -41 -101 12 -10 -7
-33 -113 -134 -70 -67 -159 -160 -197 -207 l-69 -84 -61 30 c-52 26 -64 38
-85 81 -31 63 -141 173 -206 205 -27 14 -52 26 -54 27 -2 2 15 23 38 48 55 60
97 127 117 189 9 28 18 52 19 53 1 2 39 10 86 19 74 14 196 57 238 83 12 8 12
13 -3 35 -22 35 -48 33 -271 -14z m-255 -515 c16 -8 36 -25 44 -36 14 -21 12
-26 -47 -97 -34 -41 -78 -93 -98 -115 l-35 -40 -45 30 c-24 17 -64 40 -88 53
l-44 22 32 25 c17 14 71 58 119 99 91 77 113 85 162 59z m177 -186 c31 -47 39
-26 -71 -199 -36 -58 -68 -109 -70 -115 -5 -14 -8 -9 -49 69 l-36 69 62 67
c35 36 76 85 92 108 17 23 33 42 37 42 4 0 20 -18 35 -41z"/>
</g>
</svg>
