<?xml version="1.0" standalone="no"?>
<!DOCTYPE svg PUBLIC "-//W3C//DTD SVG 20010904//EN"
 "http://www.w3.org/TR/2001/REC-SVG-20010904/DTD/svg10.dtd">
<svg version="1.0" xmlns="http://www.w3.org/2000/svg"
 width="340.000000pt" height="340.000000pt" viewBox="0 0 340.000000 340.000000"
 preserveAspectRatio="xMidYMid meet">
<metadata>
Created by potrace 1.15, written by Peter Selinger 2001-2017
</metadata>
<g transform="translate(0.000000,340.000000) scale(0.100000,-0.100000)"
fill="#000000" stroke="none">
<path d="M1676 2524 c-22 -22 -20 -37 9 -64 40 -38 53 -93 59 -252 4 -115 2
-148 -8 -157 -7 -6 -80 -33 -162 -60 -84 -28 -149 -55 -149 -62 0 -31 33 -33
147 -11 62 12 126 23 142 24 l29 3 -2 -95 c-1 -52 -5 -98 -9 -101 -4 -4 -45
-16 -92 -28 -47 -13 -193 -53 -325 -91 -132 -37 -251 -70 -265 -72 -17 -2 -26
-10 -28 -24 -3 -19 3 -23 46 -29 63 -8 196 10 291 41 42 13 88 24 104 24 l27
0 -21 -42 c-31 -62 -66 -102 -136 -159 -87 -70 -223 -244 -223 -284 0 -3 15
-5 34 -5 87 0 335 227 447 409 24 40 32 64 31 92 l-3 37 58 17 c219 64 438
107 673 130 206 21 203 20 237 49 24 21 26 27 18 52 -6 17 -20 30 -37 35 -41
11 -211 -7 -303 -32 -150 -40 -420 -95 -424 -87 -1 5 2 53 9 106 l12 98 90 21
c100 24 235 84 244 108 16 41 -59 70 -109 43 -26 -13 -185 -58 -208 -58 -14 0
-15 7 -7 53 21 113 -2 265 -53 352 -20 33 -24 35 -74 35 -35 0 -59 -5 -69 -16z"/>
<path d="M608 2004 c-11 -11 -10 -44 1 -44 6 0 36 -23 68 -51 32 -28 91 -71
131 -96 63 -39 78 -45 100 -37 15 5 33 21 41 36 14 25 14 29 -5 55 -27 37
-102 87 -167 111 -59 22 -158 38 -169 26z"/>
<path d="M2060 1693 c1 -59 272 -247 388 -269 29 -6 39 -3 54 16 40 49 12 90
-99 148 -119 61 -343 130 -343 105z"/>
<path d="M1752 1477 c-24 -25 -28 -57 -12 -87 13 -24 -20 -92 -108 -227 -50
-76 -64 -91 -81 -86 -18 5 -21 1 -21 -31 0 -20 -6 -49 -14 -65 -8 -15 -157
-168 -331 -339 -174 -172 -314 -316 -310 -322 12 -19 30 -10 137 68 171 124
313 246 471 405 l148 149 32 -25 c53 -41 202 -179 202 -187 0 -14 -210 -192
-350 -297 -193 -144 -203 -154 -170 -167 22 -8 103 26 216 90 114 64 217 141
317 237 l72 69 153 -148 c154 -150 246 -223 392 -311 l80 -47 105 0 c136 1
216 25 212 64 -3 33 -28 50 -74 50 -75 0 -318 115 -519 245 -57 37 -141 103
-186 147 l-81 80 65 96 c36 54 94 156 130 229 73 147 77 183 26 223 -38 30
-88 25 -246 -24 -78 -25 -152 -47 -164 -51 -21 -6 -20 -3 9 50 26 49 30 64 26
112 -4 49 -10 61 -41 90 -43 39 -56 41 -85 10z m322 -419 c-44 -90 -113 -214
-130 -236 -1 -2 -33 22 -70 53 -37 32 -94 75 -128 96 -33 22 -62 41 -64 43 -2
3 19 38 47 80 l52 76 174 0 175 0 -56 -112z"/>
<path d="M969 1360 c-68 -84 -170 -249 -225 -364 -29 -63 -72 -148 -95 -190
l-40 -75 -25 16 c-29 19 -33 16 -45 -34 -23 -102 4 -163 73 -163 28 0 38 7 65
48 99 146 340 721 331 786 -3 17 -9 14 -39 -24z"/>
</g>
</svg>
