<?xml version="1.0" standalone="no"?>
<!DOCTYPE svg PUBLIC "-//W3C//DTD SVG 20010904//EN"
 "http://www.w3.org/TR/2001/REC-SVG-20010904/DTD/svg10.dtd">
<svg version="1.0" xmlns="http://www.w3.org/2000/svg"
 width="340.000000pt" height="340.000000pt" viewBox="0 0 340.000000 340.000000"
 preserveAspectRatio="xMidYMid meet">
<metadata>
Created by potrace 1.15, written by Peter Selinger 2001-2017
</metadata>
<g transform="translate(0.000000,340.000000) scale(0.100000,-0.100000)"
fill="#000000" stroke="none">
<path d="M1076 2491 c-47 -10 -54 -33 -24 -78 52 -74 56 -129 28 -348 -20
-153 1 -229 77 -276 50 -31 198 -37 353 -15 98 15 119 21 143 44 43 41 67 101
67 166 0 76 -12 96 -55 96 -44 0 -75 -38 -75 -91 0 -34 -5 -42 -37 -63 -24
-15 -72 -31 -128 -41 -149 -28 -207 -3 -239 101 -10 32 35 71 99 84 97 20 340
153 365 200 6 10 10 34 10 54 0 42 -28 66 -76 66 -27 0 -37 -7 -61 -45 -21
-35 -46 -55 -103 -87 -41 -22 -106 -60 -143 -84 -37 -24 -69 -44 -71 -44 -2 0
-6 53 -9 118 -3 84 -11 134 -26 177 -27 76 -33 80 -95 66z"/>
<path d="M2240 2329 c-97 -26 -212 -64 -274 -90 -37 -16 -81 -29 -97 -29 -28
0 -69 -30 -69 -50 0 -28 136 -23 270 10 41 10 99 20 128 24 l54 5 -65 -68
c-35 -38 -75 -91 -88 -119 l-24 -50 -56 5 c-71 7 -129 -3 -129 -22 0 -26 53
-73 130 -116 82 -46 130 -53 172 -25 23 15 25 21 17 49 -5 18 -22 44 -39 58
l-30 26 62 49 c99 78 258 235 258 255 0 32 -23 70 -51 85 -31 16 -115 17 -169
3z"/>
<path d="M556 1984 c-4 -9 1 -28 9 -41 16 -24 263 -193 282 -193 6 0 22 9 37
21 33 26 34 68 2 107 -67 79 -310 157 -330 106z"/>
<path d="M2410 1755 c-132 -38 -288 -94 -443 -158 -59 -25 -139 -53 -177 -63
-71 -18 -83 -31 -54 -55 25 -21 70 -14 204 30 68 22 125 39 127 37 10 -10 44
-198 53 -291 11 -118 14 -485 4 -522 -4 -13 -12 -23 -19 -23 -12 0 -139 75
-205 121 l-23 15 26 45 c37 64 74 183 82 266 11 119 -19 173 -97 173 -32 0
-39 -4 -44 -25 -3 -14 -3 -42 1 -63 3 -20 6 -53 6 -72 -1 -71 -82 -300 -147
-418 l-35 -63 -34 29 c-59 53 -124 92 -187 116 -73 28 -78 38 -54 130 20 75
34 91 111 116 71 24 163 77 179 103 9 14 7 21 -8 33 -27 19 -71 18 -134 -6
-86 -33 -87 -32 -87 58 0 65 -4 84 -27 124 l-26 48 41 10 c23 6 51 13 62 16
11 3 53 17 93 31 70 24 72 26 72 58 0 38 -28 65 -67 65 -36 0 -110 -28 -242
-91 -68 -33 -126 -57 -128 -55 -3 2 0 21 6 43 17 61 14 117 -10 147 -17 22
-28 26 -70 26 l-49 0 0 -66 c0 -59 -5 -75 -39 -138 -62 -112 -123 -326 -93
-326 16 0 89 57 109 87 11 15 32 53 47 84 36 77 62 99 105 91 56 -12 73 -46
79 -155 2 -52 2 -106 -2 -120 -5 -22 -44 -44 -251 -146 -249 -121 -290 -151
-210 -151 36 0 362 111 401 137 33 21 35 6 7 -71 -60 -169 -166 -353 -287
-499 -54 -67 -65 -97 -47 -126 19 -30 186 124 271 249 32 47 115 205 144 272
5 13 36 -17 172 -169 l65 -71 -33 -44 c-36 -47 -91 -163 -86 -179 2 -6 28 8
58 31 96 74 180 163 204 215 27 59 114 195 124 195 4 0 50 -39 102 -87 128
-117 320 -276 461 -383 140 -105 210 -134 334 -134 44 -1 108 5 143 13 58 13
62 15 62 42 0 37 -29 56 -100 65 -150 18 -554 224 -588 299 -8 17 -12 94 -12
231 l0 205 63 -7 c78 -8 238 11 292 35 47 21 105 68 105 85 0 25 -41 56 -74
56 -33 0 -138 -35 -299 -99 -43 -17 -79 -31 -81 -31 -2 0 -6 62 -9 138 -4 79
-15 179 -28 237 -12 55 -22 107 -23 115 -2 25 125 62 234 68 94 5 95 4 78 -15
-46 -51 5 -99 86 -81 61 14 106 46 127 92 10 23 19 49 19 58 0 38 -126 100
-198 97 -9 0 -69 -15 -132 -34z"/>
<path d="M837 1351 c-60 -64 -125 -165 -182 -282 -25 -52 -54 -105 -65 -118
-20 -23 -21 -23 -40 -6 -29 26 -43 14 -64 -53 -26 -85 -4 -135 70 -156 52 -15
254 317 307 505 29 99 39 159 28 159 -5 0 -29 -22 -54 -49z"/>
</g>
</svg>
