<?xml version="1.0" standalone="no"?>
<!DOCTYPE svg PUBLIC "-//W3C//DTD SVG 20010904//EN"
 "http://www.w3.org/TR/2001/REC-SVG-20010904/DTD/svg10.dtd">
<svg version="1.0" xmlns="http://www.w3.org/2000/svg"
 width="340.000000pt" height="340.000000pt" viewBox="0 0 340.000000 340.000000"
 preserveAspectRatio="xMidYMid meet">
<metadata>
Created by potrace 1.15, written by Peter Selinger 2001-2017
</metadata>
<g transform="translate(0.000000,340.000000) scale(0.100000,-0.100000)"
fill="#000000" stroke="none">
<path d="M2458 2459 c-37 -14 -38 -56 -3 -89 44 -41 53 -90 65 -335 16 -329
24 -1086 15 -1387 l-7 -256 -29 10 c-16 5 -59 30 -95 54 -61 39 -145 66 -160
51 -8 -8 24 -67 63 -114 39 -49 197 -158 243 -168 38 -8 75 15 101 61 13 24
14 49 8 154 -20 345 -31 943 -23 1295 4 204 7 406 7 450 -2 102 -28 218 -56
251 -25 29 -86 40 -129 23z"/>
<path d="M1635 2234 c-149 -57 -655 -224 -679 -224 -12 0 -30 -6 -40 -13 -16
-12 -16 -14 -2 -27 23 -18 204 -7 311 19 114 28 425 132 520 174 60 27 81 41
83 57 9 60 -61 65 -193 14z"/>
<path d="M1323 1895 l-28 -24 23 -43 23 -42 -68 -101 c-95 -139 -280 -386
-407 -539 -58 -72 -106 -138 -106 -148 0 -42 45 -11 197 136 l159 154 105
-131 c57 -72 105 -134 107 -138 2 -5 -32 -50 -76 -101 -144 -170 -422 -527
-422 -542 0 -58 304 242 527 519 209 259 443 636 443 713 0 24 -45 70 -77 78
-42 11 -90 -3 -150 -44 -32 -22 -87 -54 -123 -72 -79 -39 -78 -39 -60 -50 22
-14 76 -12 117 5 33 14 123 21 123 10 0 -18 -194 -369 -218 -395 -2 -3 -12 6
-20 20 -34 51 -124 138 -167 161 -25 13 -45 27 -45 31 0 4 18 27 39 52 129
149 261 358 261 413 0 45 -14 69 -50 88 -42 22 -75 19 -107 -10z"/>
<path d="M2045 1824 c-14 -14 -16 -29 -12 -83 3 -36 11 -88 17 -116 6 -28 13
-181 15 -348 3 -307 6 -327 44 -327 10 0 27 10 39 23 18 19 22 42 32 172 6 83
9 242 7 355 -4 181 -7 212 -26 262 -25 64 -24 63 -67 72 -23 5 -36 2 -49 -10z"/>
</g>
</svg>
