<?xml version="1.0" standalone="no"?>
<!DOCTYPE svg PUBLIC "-//W3C//DTD SVG 20010904//EN"
 "http://www.w3.org/TR/2001/REC-SVG-20010904/DTD/svg10.dtd">
<svg version="1.0" xmlns="http://www.w3.org/2000/svg"
 width="340.000000pt" height="340.000000pt" viewBox="0 0 340.000000 340.000000"
 preserveAspectRatio="xMidYMid meet">
<metadata>
Created by potrace 1.15, written by Peter Selinger 2001-2017
</metadata>
<g transform="translate(0.000000,340.000000) scale(0.100000,-0.100000)"
fill="#000000" stroke="none">
<path d="M2364 2365 c-4 -9 6 -33 20 -55 46 -70 53 -128 70 -585 35 -929 39
-1198 20 -1292 l-4 -22 -44 20 c-48 21 -96 13 -96 -15 0 -82 119 -206 197
-206 85 1 97 35 83 244 -25 404 -39 1078 -32 1537 4 239 -1 268 -66 340 -41
46 -47 49 -93 49 -35 0 -51 -4 -55 -15z"/>
<path d="M1305 2301 c-146 -38 -289 -94 -293 -114 -6 -30 40 -41 94 -23 79 25
181 37 303 34 157 -4 148 13 161 -293 6 -132 12 -380 14 -551 3 -289 4 -314
23 -345 23 -41 49 -43 77 -6 18 25 21 41 20 130 -1 56 -4 319 -7 583 -6 517
-5 512 -59 560 -68 63 -159 70 -333 25z"/>
<path d="M796 2044 c-11 -28 -6 -59 13 -98 48 -93 76 -395 67 -726 -5 -213 -4
-249 10 -268 23 -33 39 -27 57 21 37 100 40 128 38 467 -2 519 -7 553 -83 600
-40 24 -93 26 -102 4z"/>
<path d="M1190 1924 c-15 -38 -12 -118 6 -171 24 -71 14 -417 -16 -558 -48
-225 -136 -432 -265 -625 -68 -101 -95 -158 -95 -203 0 -15 7 -13 46 15 140
100 287 334 369 587 l18 54 36 -44 c20 -24 68 -80 107 -124 38 -44 96 -114
128 -155 95 -124 161 -164 199 -122 27 29 20 65 -23 130 -86 128 -248 277
-366 336 -77 38 -77 40 -55 137 33 139 51 285 58 454 7 198 1 249 -37 287 -39
38 -96 40 -110 2z"/>
<path d="M1923 1849 c-19 -19 -16 -80 6 -130 17 -38 21 -85 31 -343 10 -262
13 -301 28 -312 34 -26 64 -15 83 31 14 36 27 441 17 530 -8 73 -39 160 -70
197 -26 32 -77 46 -95 27z"/>
</g>
</svg>
