<?xml version="1.0" standalone="no"?>
<!DOCTYPE svg PUBLIC "-//W3C//DTD SVG 20010904//EN"
 "http://www.w3.org/TR/2001/REC-SVG-20010904/DTD/svg10.dtd">
<svg version="1.0" xmlns="http://www.w3.org/2000/svg"
 width="340.000000pt" height="340.000000pt" viewBox="0 0 340.000000 340.000000"
 preserveAspectRatio="xMidYMid meet">
<metadata>
Created by potrace 1.15, written by Peter Selinger 2001-2017
</metadata>
<g transform="translate(0.000000,340.000000) scale(0.100000,-0.100000)"
fill="#000000" stroke="none">
<path d="M2473 2453 c-16 -6 -17 -69 -2 -79 6 -3 21 -27 32 -53 19 -43 21 -74
28 -416 5 -203 13 -498 19 -655 11 -320 13 -726 4 -817 l-7 -60 -41 14 c-55
20 -116 4 -116 -30 0 -66 125 -197 189 -197 40 0 90 36 108 77 14 34 14 61 -1
278 -30 456 -39 793 -31 1265 8 521 8 524 -5 566 -23 70 -122 130 -177 107z"/>
<path d="M1545 2319 c-123 -16 -246 -39 -395 -74 -80 -18 -171 -39 -202 -45
-32 -6 -58 -15 -58 -20 0 -5 11 -17 25 -26 29 -19 82 -16 255 11 154 24 427
39 472 26 75 -23 72 -6 80 -556 4 -269 11 -580 17 -690 12 -223 14 -418 5
-453 -6 -22 -7 -21 -46 14 -69 62 -169 96 -168 57 2 -68 64 -161 143 -213 92
-62 164 -50 184 30 4 14 -1 281 -11 595 -9 314 -14 597 -12 630 3 33 8 180 11
327 l5 268 -37 41 c-66 73 -138 94 -268 78z"/>
<path d="M710 2045 c-14 -38 -13 -60 10 -113 38 -91 60 -481 41 -757 -6 -93
-24 -279 -40 -412 -29 -241 -29 -295 0 -300 32 -6 59 31 74 102 36 171 65 591
72 1060 4 306 3 333 -14 364 -21 41 -56 67 -100 76 -29 6 -34 3 -43 -20z"/>
<path d="M1341 1976 c-25 -26 -27 -66 -6 -107 14 -27 14 -37 -5 -117 -11 -48
-27 -108 -36 -133 l-15 -46 -102 101 c-101 101 -158 139 -178 119 -6 -6 7 -32
38 -74 26 -35 80 -112 119 -172 l72 -107 -129 -257 c-71 -141 -129 -262 -129
-270 0 -26 38 -12 73 26 38 42 166 233 217 324 17 31 34 57 35 57 2 0 22 -35
45 -77 40 -78 122 -195 140 -201 5 -2 18 6 29 17 40 40 29 80 -65 248 l-87
154 36 77 c56 123 87 244 87 344 0 46 -39 94 -87 107 -26 8 -35 6 -52 -13z"/>
<path d="M2114 1949 c-18 -30 -21 -86 -8 -172 8 -50 17 -222 21 -381 6 -276 7
-290 28 -314 24 -28 58 -24 75 9 6 11 13 157 17 357 7 369 4 391 -52 475 -26
37 -66 50 -81 26z"/>
</g>
</svg>
