<?xml version="1.0" standalone="no"?>
<!DOCTYPE svg PUBLIC "-//W3C//DTD SVG 20010904//EN"
 "http://www.w3.org/TR/2001/REC-SVG-20010904/DTD/svg10.dtd">
<svg version="1.0" xmlns="http://www.w3.org/2000/svg"
 width="340.000000pt" height="340.000000pt" viewBox="0 0 340.000000 340.000000"
 preserveAspectRatio="xMidYMid meet">
<metadata>
Created by potrace 1.15, written by Peter Selinger 2001-2017
</metadata>
<g transform="translate(0.000000,340.000000) scale(0.100000,-0.100000)"
fill="#000000" stroke="none">
<path d="M2369 2269 c-14 -27 -5 -72 22 -111 20 -27 22 -48 30 -316 5 -158 16
-422 25 -587 9 -165 18 -423 21 -574 l5 -273 -43 7 c-56 10 -120 8 -132 -4
-23 -23 39 -118 109 -168 53 -37 88 -41 139 -18 65 31 67 50 42 325 -30 326
-40 603 -41 1115 -1 491 -2 511 -21 544 -20 34 -66 63 -117 75 -21 5 -30 2
-39 -15z"/>
<path d="M1395 2156 c-71 -19 -174 -50 -229 -70 -109 -40 -171 -45 -231 -20
-62 25 -70 13 -36 -53 47 -93 116 -260 150 -365 36 -108 59 -130 93 -88 10 12
18 28 18 34 0 7 37 17 98 25 101 13 259 51 318 76 31 13 34 18 34 55 0 30 11
59 40 108 45 75 68 140 77 223 5 55 5 56 -28 80 -54 38 -144 37 -304 -5z m192
-109 c3 -3 -21 -63 -53 -132 -39 -86 -64 -130 -78 -135 -12 -4 -57 -16 -101
-25 -44 -10 -107 -28 -139 -41 -33 -13 -60 -23 -61 -21 -1 1 -14 42 -30 92
-15 49 -40 116 -57 148 -16 33 -28 60 -26 62 3 3 263 41 378 54 75 9 156 8
167 -2z"/>
<path d="M1986 1802 c-15 -25 -24 -101 -16 -142 5 -25 14 -140 19 -256 17
-320 18 -329 47 -343 33 -15 61 13 68 71 18 151 11 516 -13 604 -11 43 -89 91
-105 66z"/>
<path d="M1267 1582 c-19 -21 -22 -64 -6 -93 13 -25 5 -51 -27 -88 -37 -44
-242 -120 -447 -165 -22 -5 -28 -12 -25 -29 2 -16 13 -24 40 -31 29 -7 66 -2
188 28 83 20 158 36 166 34 16 -4 -112 -220 -259 -437 -53 -78 -97 -148 -97
-156 0 -7 8 -16 17 -19 42 -16 302 307 496 615 32 52 39 57 82 63 46 7 74 4
153 -16 28 -7 42 -16 42 -27 0 -36 -52 -227 -85 -313 -36 -94 -97 -215 -149
-297 l-29 -45 -18 37 c-23 44 -59 70 -91 65 -21 -3 -23 -9 -26 -71 -2 -55 2
-78 22 -122 31 -67 62 -89 117 -82 51 7 102 53 123 111 8 23 44 104 79 182 36
77 95 215 131 306 53 133 66 177 66 221 0 126 -119 199 -277 170 l-53 -10 0
59 c0 70 -10 92 -50 113 -38 20 -63 19 -83 -3z"/>
</g>
</svg>
