<?xml version="1.0" standalone="no"?>
<!DOCTYPE svg PUBLIC "-//W3C//DTD SVG 20010904//EN"
 "http://www.w3.org/TR/2001/REC-SVG-20010904/DTD/svg10.dtd">
<svg version="1.0" xmlns="http://www.w3.org/2000/svg"
 width="340.000000pt" height="340.000000pt" viewBox="0 0 340.000000 340.000000"
 preserveAspectRatio="xMidYMid meet">
<metadata>
Created by potrace 1.15, written by Peter Selinger 2001-2017
</metadata>
<g transform="translate(0.000000,340.000000) scale(0.100000,-0.100000)"
fill="#000000" stroke="none">
<path d="M2412 2420 c-38 -16 -37 -37 7 -86 23 -26 45 -63 50 -83 9 -36 21
-235 43 -691 12 -267 17 -1164 6 -1175 -4 -4 -17 0 -30 9 -26 18 -79 21 -95 5
-21 -21 25 -125 74 -170 65 -60 97 -70 147 -48 48 22 50 45 37 362 -31 775
-41 1099 -41 1414 0 377 -4 403 -60 443 -33 24 -105 34 -138 20z"/>
<path d="M1300 2245 c-190 -63 -357 -115 -372 -115 -40 0 -58 -10 -58 -32 0
-20 4 -20 128 -15 110 4 146 10 272 47 146 42 356 90 396 90 31 0 84 53 84 82
0 34 -30 58 -71 58 -19 -1 -189 -52 -379 -115z"/>
<path d="M1152 2068 c-7 -7 -12 -37 -12 -67 0 -77 -32 -140 -179 -349 -133
-189 -142 -212 -95 -259 34 -34 72 -28 196 27 51 23 108 48 126 56 l33 15 21
-48 c16 -36 23 -75 26 -153 4 -93 2 -107 -14 -122 -11 -9 -73 -40 -139 -68
-192 -84 -219 -99 -205 -116 16 -18 58 -18 102 0 34 15 227 66 247 66 8 0 11
-59 11 -181 l0 -180 -196 -96 c-170 -83 -200 -94 -230 -88 -43 8 -104 -11
-104 -32 0 -26 40 -83 70 -98 39 -20 96 -19 145 4 56 25 412 240 583 350 117
77 142 97 142 117 0 13 -4 24 -9 24 -28 0 -156 -47 -219 -81 l-73 -39 6 88 c4
48 7 124 9 169 1 46 6 87 11 92 6 5 37 14 70 20 79 15 151 51 199 100 34 35
37 42 26 57 -33 38 -56 36 -176 -16 -63 -28 -116 -50 -118 -50 -2 0 -6 46 -9
103 -3 56 -13 129 -22 162 -10 33 -18 66 -19 73 0 8 34 29 84 51 47 20 118 56
158 80 l73 44 31 -32 c38 -39 75 -39 97 0 13 24 12 31 -13 84 -36 72 -130 173
-195 209 -69 37 -94 17 -53 -42 29 -42 92 -158 92 -170 0 -6 -26 -18 -57 -27
-129 -36 -285 -90 -403 -141 -68 -29 -126 -51 -128 -49 -7 7 28 63 103 160
100 131 149 232 142 288 -4 26 -14 49 -27 59 -25 21 -90 24 -108 6z"/>
<path d="M2000 1828 c0 -2 -4 -29 -10 -61 -6 -39 -6 -85 1 -135 6 -43 12 -164
13 -270 2 -175 4 -195 22 -219 30 -40 40 -38 68 9 41 71 46 117 37 319 -8 155
-13 197 -35 265 -15 47 -33 85 -42 88 -15 6 -54 8 -54 4z"/>
</g>
</svg>
