<?xml version="1.0" standalone="no"?>
<!DOCTYPE svg PUBLIC "-//W3C//DTD SVG 20010904//EN"
 "http://www.w3.org/TR/2001/REC-SVG-20010904/DTD/svg10.dtd">
<svg version="1.0" xmlns="http://www.w3.org/2000/svg"
 width="340.000000pt" height="340.000000pt" viewBox="0 0 340.000000 340.000000"
 preserveAspectRatio="xMidYMid meet">
<metadata>
Created by potrace 1.15, written by Peter Selinger 2001-2017
</metadata>
<g transform="translate(0.000000,340.000000) scale(0.100000,-0.100000)"
fill="#000000" stroke="none">
<path d="M2542 2348 c-47 -23 -36 -91 19 -110 16 -5 34 -19 40 -30 28 -53 81
-1405 65 -1660 l-8 -116 -44 20 c-25 10 -59 18 -77 16 -26 -2 -33 -8 -35 -29
-5 -42 35 -113 93 -168 50 -47 58 -51 103 -51 39 0 53 5 73 26 24 26 24 27 22
222 -1 109 -9 332 -18 497 -9 165 -22 526 -30 803 -15 552 -12 532 -78 572
-35 22 -89 25 -125 8z"/>
<path d="M1640 2315 c-130 -34 -397 -118 -432 -136 -13 -7 -21 -3 -35 17 -25
38 -73 56 -112 43 -38 -13 -41 -42 -11 -126 16 -45 20 -83 20 -176 0 -271 -69
-530 -210 -787 -126 -229 -270 -513 -270 -530 0 -28 18 -34 45 -16 46 30 204
286 327 529 l72 142 13 -75 c8 -41 16 -164 18 -272 5 -204 16 -268 49 -268 22
0 64 57 72 97 12 65 -9 367 -32 459 -5 21 0 26 42 45 50 21 234 72 241 66 9
-10 -28 -790 -43 -895 -3 -23 -3 -54 0 -67 6 -24 58 -65 82 -65 6 0 19 28 29
63 14 50 19 134 26 452 5 215 12 428 17 475 l7 84 40 9 c46 10 157 3 198 -12
27 -10 27 -11 27 -106 0 -109 -14 -250 -36 -377 -15 -84 -24 -102 -40 -77 -3
6 -26 20 -51 31 -37 16 -49 17 -78 8 -40 -13 -43 -26 -16 -79 26 -50 88 -104
143 -125 42 -17 48 -17 77 -2 17 9 43 34 57 56 40 60 74 310 74 539 l0 174
-43 41 c-70 68 -139 80 -252 45 -50 -15 -70 -18 -79 -9 -7 7 -11 55 -11 128
-1 64 -4 129 -9 143 -7 25 -5 27 40 38 26 7 70 16 98 22 69 13 92 31 124 97
15 31 42 80 60 107 38 60 64 157 60 222 -3 44 -6 49 -43 70 -67 37 -106 36
-255 -2z m161 -112 c6 -6 -12 -54 -55 -139 l-64 -130 -123 -34 c-68 -18 -175
-51 -238 -72 -62 -21 -115 -37 -118 -34 -2 2 0 47 6 100 6 52 11 122 11 154
l0 58 163 38 c89 20 194 45 232 56 72 20 167 22 186 3z m-386 -477 c13 -19 15
-49 13 -156 l-3 -132 -160 -65 -159 -65 -18 22 c-10 12 -18 32 -18 45 0 26
106 325 121 340 9 9 127 30 186 34 14 0 29 -8 38 -23z"/>
<path d="M2140 1835 c-19 -23 -14 -81 10 -115 14 -20 26 -57 32 -103 13 -97
12 -393 -1 -495 -13 -102 1 -152 43 -152 65 0 80 64 96 396 12 262 0 336 -77
447 -21 30 -32 37 -58 37 -18 0 -38 -7 -45 -15z"/>
</g>
</svg>
