<?xml version="1.0" standalone="no"?>
<!DOCTYPE svg PUBLIC "-//W3C//DTD SVG 20010904//EN"
 "http://www.w3.org/TR/2001/REC-SVG-20010904/DTD/svg10.dtd">
<svg version="1.0" xmlns="http://www.w3.org/2000/svg"
 width="340.000000pt" height="340.000000pt" viewBox="0 0 340.000000 340.000000"
 preserveAspectRatio="xMidYMid meet">
<metadata>
Created by potrace 1.15, written by Peter Selinger 2001-2017
</metadata>
<g transform="translate(0.000000,340.000000) scale(0.100000,-0.100000)"
fill="#000000" stroke="none">
<path d="M2150 2250 c0 -22 7 -56 15 -75 13 -32 12 -48 -5 -153 -20 -121 -40
-209 -66 -299 l-15 -51 -220 -54 c-229 -55 -247 -65 -189 -96 30 -16 137 -10
220 13 54 14 150 21 150 9 0 -3 -21 -55 -46 -117 -123 -302 -304 -591 -529
-847 -36 -41 -77 -94 -91 -117 -27 -44 -47 -103 -36 -103 4 0 38 24 76 52 150
113 264 251 426 518 92 151 241 446 292 577 38 99 49 107 178 125 91 14 181 3
271 -31 l57 -22 -20 -87 c-68 -307 -203 -670 -352 -945 -31 -56 -59 -108 -64
-115 -7 -10 -20 -7 -63 13 -30 13 -69 25 -86 25 -33 0 -33 -1 -33 -47 0 -60
30 -127 78 -176 31 -32 41 -37 67 -31 54 12 104 44 130 82 44 68 291 699 419
1070 73 213 73 274 0 331 -83 65 -286 83 -427 38 l-79 -25 7 34 c3 19 21 74
40 122 34 88 75 263 75 320 0 56 -64 102 -141 102 -39 0 -39 0 -39 -40z"/>
<path d="M1220 1921 c-80 -33 -197 -83 -260 -111 -63 -29 -131 -56 -150 -59
-26 -5 -36 -12 -38 -29 -3 -21 0 -22 66 -22 90 0 199 29 305 80 75 37 98 43
172 47 59 4 85 2 85 -5 0 -26 -212 -494 -235 -520 -1 -2 -45 26 -98 62 -86 58
-196 117 -269 145 -25 9 -28 8 -28 -10 0 -21 45 -69 65 -69 11 0 205 -170 252
-222 l23 -24 -46 -74 c-77 -125 -205 -288 -323 -413 -61 -65 -111 -126 -111
-136 0 -39 30 -29 112 37 157 126 339 328 428 476 l24 40 44 -50 c24 -27 82
-97 130 -156 70 -87 92 -108 113 -108 39 0 63 32 55 75 -8 42 -98 165 -206
278 l-77 82 65 115 c67 120 172 347 212 461 l24 66 -20 34 c-24 41 -75 69
-129 69 -26 0 -92 -21 -185 -59z"/>
</g>
</svg>
