<?xml version="1.0" standalone="no"?>
<!DOCTYPE svg PUBLIC "-//W3C//DTD SVG 20010904//EN"
 "http://www.w3.org/TR/2001/REC-SVG-20010904/DTD/svg10.dtd">
<svg version="1.0" xmlns="http://www.w3.org/2000/svg"
 width="340.000000pt" height="340.000000pt" viewBox="0 0 340.000000 340.000000"
 preserveAspectRatio="xMidYMid meet">
<metadata>
Created by potrace 1.15, written by Peter Selinger 2001-2017
</metadata>
<g transform="translate(0.000000,340.000000) scale(0.100000,-0.100000)"
fill="#000000" stroke="none">
<path d="M2282 2194 c-13 -23 -3 -54 29 -91 15 -17 30 -46 34 -63 13 -60 -18
-220 -70 -366 l-26 -71 -92 -24 c-62 -16 -121 -23 -182 -24 l-90 0 -3 -42 c-3
-41 -2 -42 35 -53 71 -20 155 -23 223 -7 36 9 66 14 68 13 1 -2 -13 -41 -32
-87 -133 -328 -297 -584 -550 -858 -84 -90 -126 -151 -141 -200 l-7 -23 53 28
c95 52 252 216 412 431 145 196 282 442 362 648 21 55 45 107 52 115 11 12 39
15 126 15 105 0 116 -2 172 -30 74 -38 75 -41 40 -211 -53 -258 -141 -500
-255 -707 -36 -64 -68 -117 -71 -117 -4 0 -19 18 -34 40 -15 22 -48 59 -73 81
-51 48 -59 44 -69 -39 -4 -37 1 -71 23 -140 33 -109 61 -142 126 -149 42 -5
44 -3 79 44 52 71 134 210 170 289 86 189 269 757 269 833 0 91 -73 184 -170
216 -53 18 -62 18 -239 -1 -61 -7 -64 -6 -56 12 48 114 76 234 90 385 6 65 5
68 -26 103 -17 21 -45 44 -60 52 -39 20 -106 18 -117 -2z"/>
<path d="M1310 2054 c-135 -29 -257 -54 -272 -54 -31 0 -35 -11 -14 -33 20
-19 154 -29 291 -22 137 8 193 19 273 57 55 26 62 32 62 58 0 33 -23 50 -67
49 -15 0 -138 -25 -273 -55z"/>
<path d="M1540 1629 c-277 -66 -545 -134 -685 -173 -114 -33 -179 -46 -225
-46 -71 0 -110 -8 -110 -21 0 -19 79 -60 127 -66 41 -4 89 5 267 51 119 32
221 54 227 50 17 -10 4 -129 -22 -199 -24 -66 -104 -204 -211 -362 -50 -76
-68 -111 -68 -136 0 -52 21 -72 73 -71 37 1 78 18 224 96 98 53 229 125 292
161 l114 64 26 -51 c21 -41 36 -56 74 -75 62 -31 69 -22 65 79 -3 66 -7 83
-38 133 -51 84 -117 155 -184 199 -54 35 -61 37 -67 21 -10 -26 0 -59 43 -142
21 -40 38 -80 36 -88 -3 -13 -466 -228 -474 -220 -7 6 40 95 91 174 66 100
134 234 163 319 18 52 19 67 9 93 -7 20 -8 34 -1 41 21 21 277 60 398 60 47 0
57 4 75 26 29 36 26 61 -7 78 -48 25 -120 27 -212 5z"/>
</g>
</svg>
