<?xml version="1.0" standalone="no"?>
<!DOCTYPE svg PUBLIC "-//W3C//DTD SVG 20010904//EN"
 "http://www.w3.org/TR/2001/REC-SVG-20010904/DTD/svg10.dtd">
<svg version="1.0" xmlns="http://www.w3.org/2000/svg"
 width="340.000000pt" height="340.000000pt" viewBox="0 0 340.000000 340.000000"
 preserveAspectRatio="xMidYMid meet">
<metadata>
Created by potrace 1.15, written by Peter Selinger 2001-2017
</metadata>
<g transform="translate(0.000000,340.000000) scale(0.100000,-0.100000)"
fill="#000000" stroke="none">
<path d="M1225 2207 c-110 -57 -234 -122 -275 -144 -49 -27 -83 -40 -97 -37
-28 8 -63 -12 -63 -36 0 -17 7 -20 43 -21 128 -3 179 12 352 102 87 46 135 66
135 57 0 -19 -88 -171 -171 -295 -131 -195 -268 -365 -448 -557 -98 -104 -116
-137 -80 -144 34 -6 385 336 523 509 221 280 386 552 370 613 -7 30 -39 56
-69 56 -11 0 -110 -47 -220 -103z"/>
<path d="M2246 2265 c-17 -18 -13 -34 22 -87 15 -24 24 -51 24 -75 -1 -48 -59
-274 -110 -423 l-39 -115 -97 -38 c-53 -21 -156 -55 -229 -76 -115 -33 -132
-40 -135 -60 -10 -65 53 -66 244 -5 80 26 147 44 150 42 13 -14 -108 -284
-197 -441 -80 -139 -191 -304 -292 -429 -49 -62 -98 -131 -108 -153 -19 -42
-24 -75 -11 -75 15 1 175 148 238 220 76 87 126 161 219 320 74 125 235 444
281 554 27 66 31 70 84 95 79 36 203 41 299 12 39 -12 71 -27 71 -34 0 -38
-65 -321 -99 -432 -46 -150 -131 -360 -199 -490 -36 -69 -53 -92 -75 -100 -38
-12 -55 0 -94 67 -22 38 -44 61 -68 73 -54 25 -69 15 -60 -42 18 -119 91 -243
165 -281 53 -27 83 -23 122 16 28 28 120 228 215 467 65 162 218 621 228 681
15 96 -42 181 -143 210 -81 24 -200 16 -276 -19 -54 -25 -96 -34 -96 -22 0 3
6 16 14 28 43 66 109 305 125 451 11 97 3 130 -41 160 -29 21 -112 21 -132 1z"/>
<path d="M1271 1740 c9 -13 22 -27 30 -31 8 -4 53 -30 100 -57 87 -50 193
-100 262 -122 35 -11 41 -10 63 11 69 64 -6 122 -241 185 -49 13 -121 27 -160
31 l-70 6 16 -23z"/>
<path d="M1110 1289 c-135 -50 -249 -94 -254 -99 -5 -6 -4 -16 5 -26 11 -14
27 -16 109 -11 52 4 107 9 121 12 24 6 27 3 39 -40 14 -50 16 -98 12 -267 l-2
-106 -127 -75 c-191 -112 -278 -157 -299 -157 -31 0 -64 -29 -64 -55 0 -33 39
-57 99 -63 62 -6 109 10 169 57 95 74 235 171 249 171 26 0 72 30 89 58 9 16
42 44 73 62 78 46 156 108 221 174 l54 56 -34 0 c-31 0 -91 -28 -255 -121
l-50 -28 0 188 0 187 67 32 c42 20 77 46 95 68 l27 36 -23 19 c-13 11 -35 19
-50 19 -14 -1 -136 -41 -271 -91z"/>
</g>
</svg>
