<?xml version="1.0" standalone="no"?>
<!DOCTYPE svg PUBLIC "-//W3C//DTD SVG 20010904//EN"
 "http://www.w3.org/TR/2001/REC-SVG-20010904/DTD/svg10.dtd">
<svg version="1.0" xmlns="http://www.w3.org/2000/svg"
 width="340.000000pt" height="340.000000pt" viewBox="0 0 340.000000 340.000000"
 preserveAspectRatio="xMidYMid meet">
<metadata>
Created by potrace 1.15, written by Peter Selinger 2001-2017
</metadata>
<g transform="translate(0.000000,340.000000) scale(0.100000,-0.100000)"
fill="#000000" stroke="none">
<path d="M912 2059 c2 -16 17 -31 46 -47 47 -26 80 -75 113 -168 26 -73 29
-182 12 -476 -13 -224 -2 -602 19 -668 33 -103 117 -204 210 -251 111 -56 164
-63 473 -63 276 0 480 16 573 46 49 15 100 64 112 106 16 60 12 230 -8 282
-21 53 -42 61 -77 26 -23 -23 -25 -33 -25 -106 0 -86 -14 -133 -48 -164 -12
-10 -64 -29 -116 -42 -263 -63 -485 -58 -768 17 -74 19 -88 27 -129 70 -88 92
-139 222 -139 354 0 139 0 138 108 196 204 110 349 204 582 378 176 131 300
244 300 273 0 63 -56 118 -120 118 -27 0 -30 -3 -30 -30 0 -60 -25 -94 -156
-207 -218 -189 -617 -497 -655 -505 -10 -2 -13 81 -13 379 l-1 381 -31 39
c-45 56 -85 75 -166 81 -69 5 -70 5 -66 -19z"/>
</g>
</svg>
