<?xml version="1.0" standalone="no"?>
<!DOCTYPE svg PUBLIC "-//W3C//DTD SVG 20010904//EN"
 "http://www.w3.org/TR/2001/REC-SVG-20010904/DTD/svg10.dtd">
<svg version="1.0" xmlns="http://www.w3.org/2000/svg"
 width="340.000000pt" height="340.000000pt" viewBox="0 0 340.000000 340.000000"
 preserveAspectRatio="xMidYMid meet">
<metadata>
Created by potrace 1.15, written by Peter Selinger 2001-2017
</metadata>
<g transform="translate(0.000000,340.000000) scale(0.100000,-0.100000)"
fill="#000000" stroke="none">
<path d="M2200 2253 c-19 -2 -165 -24 -325 -48 -159 -24 -414 -63 -565 -85
l-275 -41 -69 32 c-77 36 -143 47 -175 30 -31 -17 -26 -37 18 -80 77 -75 79
-86 93 -401 18 -426 -15 -1098 -62 -1246 -22 -69 -16 -111 22 -159 21 -28 22
-28 112 -21 50 3 160 20 244 36 251 50 391 63 662 64 246 0 378 -10 577 -44
99 -16 104 -16 133 1 35 22 40 59 12 87 -11 11 -57 30 -103 43 -79 23 -98 24
-309 22 -479 -6 -974 -52 -1154 -109 -26 -8 -51 -12 -54 -9 -4 3 7 333 22 733
18 446 26 771 22 841 l-6 114 40 -6 c71 -9 290 11 450 42 164 31 309 46 555
56 173 8 234 18 264 46 21 20 28 63 13 87 -9 14 -87 22 -142 15z"/>
<path d="M1780 1749 c-96 -21 -271 -55 -387 -76 -181 -31 -213 -40 -213 -54 0
-10 7 -25 16 -33 19 -20 134 -21 272 -2 l92 12 11 -36 c7 -19 14 -87 16 -152
l5 -116 -58 -12 c-150 -31 -316 -69 -321 -73 -11 -12 19 -46 50 -56 25 -9 59
-7 152 9 66 11 132 20 148 20 l27 0 0 -84 c0 -46 -3 -104 -6 -128 -6 -42 -9
-46 -38 -51 -211 -36 -424 -82 -436 -94 -13 -13 -13 -16 4 -29 35 -25 243 -11
501 33 133 23 179 26 409 28 257 1 259 1 277 24 25 31 24 53 -4 79 -22 21 -33
22 -173 22 -82 0 -198 -7 -259 -16 -60 -9 -119 -17 -130 -17 -19 -2 -20 5 -23
109 -3 137 5 164 50 164 53 0 260 53 296 76 2 1 -4 16 -12 32 -10 19 -29 35
-51 42 -31 10 -47 9 -118 -13 -45 -14 -98 -27 -117 -29 l-35 -3 -6 136 c-3 75
-9 141 -13 147 -4 7 2 13 16 16 165 30 308 84 308 116 0 22 -32 50 -56 49 -10
-1 -98 -18 -194 -40z"/>
</g>
</svg>
