<?xml version="1.0" standalone="no"?>
<!DOCTYPE svg PUBLIC "-//W3C//DTD SVG 20010904//EN"
 "http://www.w3.org/TR/2001/REC-SVG-20010904/DTD/svg10.dtd">
<svg version="1.0" xmlns="http://www.w3.org/2000/svg"
 width="340.000000pt" height="340.000000pt" viewBox="0 0 340.000000 340.000000"
 preserveAspectRatio="xMidYMid meet">
<metadata>
Created by potrace 1.15, written by Peter Selinger 2001-2017
</metadata>
<g transform="translate(0.000000,340.000000) scale(0.100000,-0.100000)"
fill="#000000" stroke="none">
<path d="M2055 2134 c-104 -19 -377 -63 -605 -99 -228 -35 -442 -68 -475 -74
-33 -5 -67 -12 -76 -16 -12 -4 -20 3 -29 25 -7 16 -28 44 -47 60 -28 25 -42
30 -84 30 -33 0 -51 -5 -55 -14 -3 -8 11 -46 30 -84 86 -170 126 -739 82
-1142 -23 -213 -56 -400 -77 -440 -22 -41 -24 -63 -6 -78 31 -26 66 -23 193
18 358 114 589 149 1026 157 313 6 417 0 586 -34 77 -15 86 -15 118 0 68 33
55 80 -33 123 l-58 29 -270 -1 c-442 -3 -935 -48 -1300 -118 -38 -8 -72 -12
-75 -11 -3 2 -2 52 2 112 28 406 26 1251 -3 1305 -6 11 -9 21 -7 23 2 2 46 -2
98 -8 69 -7 125 -7 204 1 63 7 114 8 119 3 5 -5 9 -71 9 -147 -1 -222 -33
-349 -139 -550 -70 -134 -146 -325 -134 -337 21 -22 64 17 132 120 139 211
222 413 259 630 25 147 25 185 -4 255 l-23 57 31 10 c40 12 165 31 209 31 l34
0 18 -102 c21 -116 26 -334 11 -538 -8 -114 -7 -130 12 -183 24 -67 78 -142
125 -174 70 -48 252 -71 401 -50 68 10 95 33 132 111 44 94 44 242 0 293 -23
26 -23 26 -42 7 -20 -20 -57 -126 -69 -197 -6 -35 -11 -41 -63 -65 -137 -62
-317 -14 -365 98 -7 16 -11 141 -13 335 -1 220 -6 335 -16 395 -9 47 -14 87
-12 88 5 7 203 32 344 43 160 13 200 28 200 75 0 20 -9 29 -42 44 -24 11 -47
19 -53 19 -5 -1 -95 -17 -200 -35z"/>
</g>
</svg>
