<?xml version="1.0" standalone="no"?>
<!DOCTYPE svg PUBLIC "-//W3C//DTD SVG 20010904//EN"
 "http://www.w3.org/TR/2001/REC-SVG-20010904/DTD/svg10.dtd">
<svg version="1.0" xmlns="http://www.w3.org/2000/svg"
 width="340.000000pt" height="340.000000pt" viewBox="0 0 340.000000 340.000000"
 preserveAspectRatio="xMidYMid meet">
<metadata>
Created by potrace 1.15, written by Peter Selinger 2001-2017
</metadata>
<g transform="translate(0.000000,340.000000) scale(0.100000,-0.100000)"
fill="#000000" stroke="none">
<path d="M1538 2429 c-33 -19 -21 -52 39 -105 l58 -52 0 -338 c0 -236 -4 -347
-12 -365 -11 -24 -21 -27 -200 -58 -248 -42 -431 -67 -633 -85 -91 -9 -175
-19 -187 -22 -34 -9 -28 -32 18 -76 l42 -40 91 7 c144 10 277 33 473 81 407
100 697 134 1190 141 251 4 365 9 371 17 5 6 12 28 16 48 6 32 4 39 -19 54
-23 15 -46 16 -208 10 -214 -8 -495 -31 -622 -50 -49 -8 -116 -17 -147 -21
l-58 -6 0 84 c0 46 3 125 6 174 l7 90 81 7 c98 7 220 36 310 72 67 26 67 27
64 63 -3 33 -6 36 -37 39 -42 4 -191 -29 -309 -69 -47 -16 -91 -29 -98 -29 -8
0 -10 34 -6 134 2 73 2 150 -2 170 -8 41 -55 100 -97 122 -32 16 -106 18 -131
3z"/>
<path d="M1592 1388 c-16 -16 -15 -59 3 -85 34 -49 48 -195 48 -503 1 -261 -2
-307 -20 -396 -22 -104 -20 -157 7 -189 13 -16 67 -20 88 -6 20 13 31 119 43
421 6 151 13 308 16 348 9 140 -42 373 -90 407 -26 18 -78 20 -95 3z"/>
<path d="M1830 1224 c0 -17 25 -47 49 -57 44 -20 333 -208 374 -244 44 -39 76
-42 113 -9 27 23 27 25 15 65 -14 48 -70 115 -115 138 -16 8 -95 33 -175 54
-81 20 -159 42 -174 48 -30 12 -87 15 -87 5z"/>
</g>
</svg>
