<?xml version="1.0" standalone="no"?>
<!DOCTYPE svg PUBLIC "-//W3C//DTD SVG 20010904//EN"
 "http://www.w3.org/TR/2001/REC-SVG-20010904/DTD/svg10.dtd">
<svg version="1.0" xmlns="http://www.w3.org/2000/svg"
 width="340.000000pt" height="340.000000pt" viewBox="0 0 340.000000 340.000000"
 preserveAspectRatio="xMidYMid meet">
<metadata>
Created by potrace 1.15, written by Peter Selinger 2001-2017
</metadata>
<g transform="translate(0.000000,340.000000) scale(0.100000,-0.100000)"
fill="#000000" stroke="none">
<path d="M1844 2415 c-4 -9 10 -36 34 -68 86 -113 77 -7 81 -953 3 -745 1
-850 -13 -913 -18 -78 -20 -156 -7 -214 11 -48 11 -48 60 -54 36 -5 41 -3 59
26 18 30 19 54 14 676 l-5 644 29 -9 c53 -16 208 -87 269 -123 33 -19 89 -60
124 -91 74 -64 129 -89 192 -84 l44 3 3 50 c4 78 -22 110 -138 167 -112 55
-300 119 -421 143 l-86 17 -6 353 c-6 383 -5 379 -64 416 -43 27 -161 37 -169
14z"/>
<path d="M1200 2119 c-305 -78 -305 -78 -354 -64 -119 36 -210 1 -141 -53 44
-35 97 -222 114 -401 12 -125 0 -437 -30 -769 -22 -249 -21 -262 26 -262 12 0
42 9 66 19 65 29 253 68 434 91 88 11 222 29 298 41 132 21 137 22 137 46 0
13 -12 36 -26 50 -25 25 -27 26 -132 19 -59 -4 -124 -10 -145 -13 l-38 -6 8
54 c10 69 10 221 0 281 -8 46 -8 46 25 57 18 6 62 15 97 20 98 16 147 58 121
106 -11 20 -8 30 23 82 42 70 67 140 74 210 l6 53 -44 19 c-66 28 -134 34
-209 16 -116 -28 -170 -38 -175 -33 -3 2 2 38 11 78 9 43 14 115 13 174 l-2
99 109 25 c114 25 164 54 164 94 0 22 -55 49 -97 47 -15 -1 -165 -37 -333 -80z
m23 -140 c7 -10 7 -70 1 -175 l-9 -159 -135 -42 c-74 -23 -138 -42 -141 -42
-4 -1 -9 47 -13 107 -3 59 -11 149 -18 200 -6 51 -9 95 -7 97 7 6 241 33 278
32 19 -1 38 -9 44 -18z m387 -393 c0 -2 -12 -29 -26 -60 -14 -30 -34 -86 -44
-122 -11 -37 -21 -68 -23 -71 -2 -2 -57 -12 -121 -23 -141 -24 -285 -54 -386
-80 -42 -11 -79 -15 -83 -11 -12 12 -4 258 8 270 18 18 502 99 593 100 45 1
82 -1 82 -3z m-323 -453 c12 -31 14 -59 9 -142 -4 -57 -11 -125 -17 -152 -10
-47 -11 -47 -62 -60 -59 -13 -220 -70 -263 -92 -74 -37 -70 -45 -63 131 4 86
10 194 14 239 l7 82 66 6 c37 3 96 10 132 14 36 5 87 9 113 10 46 1 49 0 64
-36z"/>
</g>
</svg>
