<?xml version="1.0" standalone="no"?>
<!DOCTYPE svg PUBLIC "-//W3C//DTD SVG 20010904//EN"
 "http://www.w3.org/TR/2001/REC-SVG-20010904/DTD/svg10.dtd">
<svg version="1.0" xmlns="http://www.w3.org/2000/svg"
 width="340.000000pt" height="340.000000pt" viewBox="0 0 340.000000 340.000000"
 preserveAspectRatio="xMidYMid meet">
<metadata>
Created by potrace 1.15, written by Peter Selinger 2001-2017
</metadata>
<g transform="translate(0.000000,340.000000) scale(0.100000,-0.100000)"
fill="#000000" stroke="none">
<path d="M2175 2585 c-108 -24 -385 -64 -683 -100 l-294 -35 -33 26 c-39 30
-89 40 -127 25 l-27 -10 35 -76 c19 -42 38 -98 41 -124 14 -122 -87 -552 -200
-851 -66 -176 -221 -482 -322 -638 -106 -163 -121 -191 -129 -232 l-6 -34 31
29 c59 56 182 210 251 313 127 193 281 554 403 942 56 179 115 432 118 501 2
61 5 70 22 74 11 2 133 11 270 20 138 9 371 27 519 40 227 20 273 26 295 43
30 22 37 50 18 73 -17 22 -110 29 -182 14z"/>
<path d="M2005 2265 c-220 -29 -268 -37 -465 -82 -157 -36 -181 -44 -212 -70
-15 -14 -13 -22 31 -106 41 -81 73 -169 110 -303 23 -84 78 -120 137 -89 16 8
47 15 69 15 39 0 202 27 403 66 l93 18 53 66 c106 129 206 310 206 370 0 42
-23 84 -55 98 -26 12 -162 43 -180 41 -5 -1 -91 -12 -190 -24z m236 -124 l36
-11 -16 -58 c-8 -31 -41 -106 -72 -167 l-57 -110 -48 -6 c-27 -4 -93 -12 -148
-19 -54 -6 -153 -25 -219 -41 -66 -16 -124 -26 -127 -22 -13 15 -29 73 -36
133 l-7 60 51 0 c62 0 257 25 370 47 85 16 131 40 118 61 -18 30 -284 5 -465
-43 -52 -14 -95 -24 -96 -23 -1 2 -10 19 -20 38 -10 19 -29 50 -42 68 -14 18
-22 36 -18 40 3 4 124 21 268 39 272 33 448 38 528 14z"/>
<path d="M2048 1599 c-156 -28 -320 -72 -460 -124 -67 -26 -144 -50 -170 -55
-51 -9 -108 -36 -108 -50 0 -17 84 -32 141 -26 31 3 90 19 131 36 137 54 515
137 535 116 4 -3 -39 -52 -94 -109 -55 -56 -110 -121 -122 -144 l-21 -42 -57
28 c-84 41 -110 45 -123 22 -18 -35 -11 -50 52 -110 53 -51 60 -62 49 -75 -8
-9 -22 -16 -32 -16 -30 0 -380 -68 -574 -111 -103 -23 -192 -38 -208 -35 -35
7 -67 -9 -67 -33 0 -32 54 -46 180 -46 104 1 128 5 255 42 186 54 508 123 520
111 3 -2 12 -33 22 -69 13 -47 18 -101 18 -204 0 -147 -15 -226 -64 -337 l-21
-46 -69 35 c-42 22 -89 38 -120 41 l-51 5 0 -32 c0 -46 13 -64 78 -114 74 -57
114 -77 152 -77 39 0 105 33 125 63 22 34 61 154 81 249 19 91 25 316 11 430
l-8 67 38 10 c120 34 500 37 677 6 80 -14 91 -14 112 0 29 19 41 60 23 81 -29
35 -73 48 -184 52 -109 4 -157 0 -495 -38 -96 -11 -184 -20 -196 -20 -18 0
-84 77 -84 98 0 5 17 16 37 26 76 36 137 81 310 232 51 43 64 89 40 139 -14
29 -21 33 -69 38 -67 9 -63 9 -190 -14z"/>
</g>
</svg>
