<?xml version="1.0" standalone="no"?>
<!DOCTYPE svg PUBLIC "-//W3C//DTD SVG 20010904//EN"
 "http://www.w3.org/TR/2001/REC-SVG-20010904/DTD/svg10.dtd">
<svg version="1.0" xmlns="http://www.w3.org/2000/svg"
 width="340.000000pt" height="340.000000pt" viewBox="0 0 340.000000 340.000000"
 preserveAspectRatio="xMidYMid meet">
<metadata>
Created by potrace 1.15, written by Peter Selinger 2001-2017
</metadata>
<g transform="translate(0.000000,340.000000) scale(0.100000,-0.100000)"
fill="#000000" stroke="none">
<path d="M2105 2293 c-143 -19 -417 -58 -610 -88 -326 -50 -352 -52 -382 -38
-17 8 -39 25 -47 38 -23 35 -110 50 -128 22 -15 -24 -7 -56 26 -106 49 -72 58
-128 46 -269 -43 -473 -165 -826 -413 -1190 -63 -93 -108 -194 -93 -209 10
-11 116 78 160 133 87 111 219 369 299 584 100 269 188 689 173 830 -3 30 -1
61 3 69 6 8 42 16 102 22 200 19 394 41 639 74 140 18 306 36 368 40 141 7
263 23 280 37 18 15 15 75 -4 82 -32 12 -166 2 -419 -31z"/>
<path d="M2331 2082 c-16 -30 -14 -58 8 -100 15 -29 20 -71 26 -199 l7 -163
-28 -11 c-55 -21 -397 -119 -433 -124 -53 -8 -67 5 -47 43 9 17 16 51 16 76 0
37 -5 48 -31 70 -27 23 -40 26 -103 26 -93 0 -167 -20 -296 -80 -58 -27 -131
-58 -162 -70 l-55 -21 -36 36 c-39 39 -93 50 -83 18 25 -82 55 -196 61 -233
10 -62 39 -137 75 -194 l30 -47 40 31 c27 22 74 42 142 62 56 16 141 47 190
70 77 36 90 46 108 82 11 22 29 51 39 63 19 23 19 23 83 6 l64 -16 191 46
c106 26 198 47 206 47 9 0 17 -15 21 -37 3 -21 6 -258 6 -526 l0 -489 -67 7
c-38 3 -81 9 -96 12 -27 5 -28 3 -22 -18 26 -84 71 -144 144 -191 57 -36 109
-37 148 -4 32 28 32 -2 13 516 -5 157 -10 390 -10 517 0 271 -6 258 115 268
121 10 168 16 233 32 70 17 77 31 40 78 -21 27 -23 27 -107 22 -47 -3 -120
-14 -161 -25 -41 -11 -82 -22 -90 -24 -13 -2 -16 24 -20 177 -4 141 -9 186
-21 210 -24 44 -52 65 -92 72 -29 4 -37 2 -46 -15z m-611 -522 c0 -5 -19 -51
-42 -103 l-42 -94 -76 -17 c-41 -9 -109 -32 -149 -51 -41 -20 -74 -34 -75 -33
-1 2 -15 44 -32 93 -17 50 -34 97 -38 107 -6 14 9 20 106 42 259 59 348 74
348 56z"/>
<path d="M1585 1955 c-77 -24 -186 -60 -242 -79 -56 -20 -116 -36 -132 -36
-36 0 -48 -15 -30 -37 17 -20 129 -13 318 18 140 23 200 45 249 91 33 33 37
44 24 64 -16 25 -53 21 -187 -21z"/>
<path d="M1888 1214 c-11 -10 11 -65 48 -122 46 -70 88 -117 133 -144 l34 -21
24 27 c40 47 28 99 -39 172 -59 65 -174 115 -200 88z"/>
<path d="M1672 1154 c-19 -13 -23 -24 -21 -59 2 -26 -3 -52 -13 -66 -52 -80
-98 -210 -98 -277 0 -16 -6 -34 -13 -40 -18 -15 -319 -132 -444 -173 l-103
-33 0 -37 c0 -41 22 -66 66 -75 32 -6 54 3 449 186 201 93 335 172 389 229
l29 30 -27 7 c-19 5 -56 -5 -133 -35 -58 -23 -108 -40 -110 -37 -3 3 19 39 48
81 30 41 64 92 76 113 44 73 18 194 -43 200 -16 1 -39 -5 -52 -14z"/>
<path d="M1196 1003 c-23 -23 19 -196 57 -231 24 -22 75 -42 109 -42 41 0 12
118 -44 185 -32 38 -113 96 -122 88z"/>
</g>
</svg>
