<?xml version="1.0" standalone="no"?>
<!DOCTYPE svg PUBLIC "-//W3C//DTD SVG 20010904//EN"
 "http://www.w3.org/TR/2001/REC-SVG-20010904/DTD/svg10.dtd">
<svg version="1.0" xmlns="http://www.w3.org/2000/svg"
 width="340.000000pt" height="340.000000pt" viewBox="0 0 340.000000 340.000000"
 preserveAspectRatio="xMidYMid meet">
<metadata>
Created by potrace 1.15, written by Peter Selinger 2001-2017
</metadata>
<g transform="translate(0.000000,340.000000) scale(0.100000,-0.100000)"
fill="#000000" stroke="none">
<path d="M2205 2489 c-208 -36 -563 -109 -736 -150 -246 -59 -240 -59 -306
-13 -37 25 -66 38 -89 38 -18 0 -35 -2 -38 -5 -3 -2 6 -43 20 -89 34 -114 40
-233 20 -390 -57 -429 -210 -820 -457 -1167 -64 -89 -99 -166 -99 -215 0 -17
2 -17 28 -4 68 35 157 154 302 408 154 268 285 640 330 938 6 41 18 104 27
140 8 36 16 104 17 153 1 68 4 88 16 92 75 23 719 120 1000 150 214 23 267 44
239 96 -23 44 -97 49 -274 18z"/>
<path d="M1679 2226 c-24 -39 -24 -65 1 -144 15 -46 20 -92 20 -167 l0 -103
-87 -21 c-49 -12 -95 -24 -104 -27 -14 -4 -18 8 -24 71 -8 91 -50 183 -101
222 -31 23 -37 25 -60 13 -36 -20 -41 -54 -15 -107 17 -35 51 -197 51 -245 0
-3 -42 -21 -94 -38 -101 -33 -112 -47 -54 -71 29 -12 67 -7 120 15 34 15 38
-20 26 -310 -6 -153 -13 -282 -17 -286 -3 -3 -91 -26 -196 -51 -166 -39 -190
-47 -193 -65 -2 -15 5 -23 33 -32 47 -15 160 -1 356 46 163 38 301 59 461 69
85 5 113 11 133 27 31 25 32 42 0 73 -18 19 -35 25 -70 25 l-45 0 0 304 0 304
37 7 c41 7 93 54 93 83 0 20 -38 32 -100 32 l-25 0 3 95 c4 108 -8 177 -42
251 -20 44 -29 52 -56 56 -28 4 -35 0 -51 -26z m19 -538 c17 -17 15 -93 -2
-107 -8 -7 -48 -16 -90 -20 -42 -5 -87 -16 -101 -25 -13 -9 -27 -16 -30 -16
-3 0 -5 25 -5 55 0 73 17 89 111 105 41 7 79 14 84 15 18 6 21 5 33 -7z m12
-267 l0 -98 -68 -6 c-38 -3 -94 -14 -125 -25 -64 -21 -68 -19 -66 51 2 81 8
89 89 117 41 15 93 36 115 47 22 12 43 19 48 16 4 -2 7 -48 7 -102z m3 -230
c2 -83 -11 -94 -134 -115 -140 -23 -139 -23 -139 23 0 21 3 52 6 68 6 28 10
31 72 42 37 7 92 23 122 35 30 13 59 20 63 16 4 -4 9 -35 10 -69z"/>
<path d="M2482 2094 c-13 -9 -22 -26 -22 -42 -1 -23 -14 -35 -91 -82 -50 -30
-127 -82 -172 -116 l-81 -61 -32 33 c-25 27 -39 34 -69 34 -34 0 -37 -2 -32
-22 3 -13 17 -72 31 -133 44 -186 59 -329 53 -520 -5 -182 -26 -292 -79 -418
l-25 -59 -32 50 c-78 122 -244 232 -265 176 -12 -32 85 -183 185 -287 40 -41
52 -62 60 -102 5 -27 13 -53 17 -57 13 -13 87 99 137 205 67 141 125 420 125
602 0 35 5 67 11 70 5 4 54 9 108 12 l98 6 7 -235 c10 -359 46 -910 62 -951
11 -30 56 -18 67 18 12 39 14 440 4 868 l-8 337 33 0 c81 1 252 62 286 103 10
11 9 19 -5 36 -27 32 -70 40 -128 24 -28 -7 -97 -24 -154 -38 -57 -13 -164
-45 -237 -70 -73 -25 -136 -45 -139 -45 -3 0 -5 19 -5 43 0 39 -8 98 -25 204
l-7 41 118 61 c178 91 317 181 328 212 13 39 -1 77 -37 99 -39 24 -56 25 -85
4z"/>
<path d="M1303 812 c-29 -42 -77 -104 -108 -137 -61 -66 -85 -109 -92 -166
l-6 -39 42 15 c23 8 56 24 72 36 46 33 152 162 186 226 45 85 47 99 24 122
-38 38 -61 27 -118 -57z"/>
</g>
</svg>
