<?xml version="1.0" standalone="no"?>
<!DOCTYPE svg PUBLIC "-//W3C//DTD SVG 20010904//EN"
 "http://www.w3.org/TR/2001/REC-SVG-20010904/DTD/svg10.dtd">
<svg version="1.0" xmlns="http://www.w3.org/2000/svg"
 width="340.000000pt" height="340.000000pt" viewBox="0 0 340.000000 340.000000"
 preserveAspectRatio="xMidYMid meet">
<metadata>
Created by potrace 1.15, written by Peter Selinger 2001-2017
</metadata>
<g transform="translate(0.000000,340.000000) scale(0.100000,-0.100000)"
fill="#000000" stroke="none">
<path d="M1621 2396 c-9 -10 -4 -27 19 -71 17 -32 30 -72 30 -92 0 -69 -83
-340 -151 -492 l-31 -69 -61 -17 c-100 -27 -215 -65 -325 -107 -57 -22 -106
-37 -109 -34 -9 9 62 111 135 195 83 95 175 237 209 323 23 61 25 71 12 94
-24 45 -67 68 -136 72 l-63 4 25 -53 c39 -85 35 -111 -39 -227 -77 -121 -184
-267 -277 -379 -53 -63 -69 -89 -69 -113 0 -46 16 -68 58 -80 44 -14 47 -13
277 88 223 97 305 126 305 106 0 -34 -46 -146 -101 -247 -152 -277 -335 -502
-612 -753 -55 -50 -93 -93 -102 -117 l-15 -37 37 15 c84 35 153 86 271 200
136 131 260 274 350 402 31 45 62 82 67 82 17 1 374 -277 375 -291 0 -15 -225
-235 -305 -298 -44 -34 -125 -93 -180 -130 -62 -41 -106 -78 -113 -95 -13 -27
-12 -28 18 -22 49 10 156 56 229 98 92 53 218 156 339 276 l102 102 209 -203
c283 -275 338 -306 579 -327 123 -11 130 -11 170 10 23 12 42 26 42 31 0 22
-93 65 -250 115 -106 34 -262 109 -357 172 -40 26 -131 102 -202 168 l-130
119 24 31 c94 115 200 299 259 447 24 63 25 70 12 101 -17 41 -51 67 -87 67
-14 0 -66 -19 -115 -42 -49 -23 -186 -83 -304 -134 -213 -90 -251 -116 -185
-122 25 -2 258 61 488 132 26 8 47 14 47 12 0 -13 -58 -143 -91 -204 -49 -92
-126 -202 -141 -202 -5 0 -35 23 -66 51 -63 58 -169 131 -256 178 -33 17 -61
33 -63 35 -3 3 143 314 195 415 15 30 26 37 97 57 132 39 317 74 488 93 151
17 162 20 183 45 25 29 21 61 -9 80 -28 18 -198 -11 -438 -74 -125 -33 -233
-60 -239 -60 -20 0 -5 50 49 162 62 127 99 254 108 365 6 79 5 85 -18 109 -13
14 -36 32 -51 40 -35 18 -102 18 -117 0z"/>
<path d="M2097 2234 c-14 -15 -6 -44 16 -55 12 -7 65 -40 117 -75 52 -34 121
-75 152 -90 48 -23 61 -26 82 -16 14 6 28 23 32 36 20 82 -142 181 -326 200
-36 4 -69 4 -73 0z"/>
</g>
</svg>
