<?xml version="1.0" standalone="no"?>
<!DOCTYPE svg PUBLIC "-//W3C//DTD SVG 20010904//EN"
 "http://www.w3.org/TR/2001/REC-SVG-20010904/DTD/svg10.dtd">
<svg version="1.0" xmlns="http://www.w3.org/2000/svg"
 width="340.000000pt" height="340.000000pt" viewBox="0 0 340.000000 340.000000"
 preserveAspectRatio="xMidYMid meet">
<metadata>
Created by potrace 1.15, written by Peter Selinger 2001-2017
</metadata>
<g transform="translate(0.000000,340.000000) scale(0.100000,-0.100000)"
fill="#000000" stroke="none">
<path d="M1444 2586 c-4 -10 4 -32 19 -55 55 -83 55 -85 49 -604 l-5 -477 -26
-6 c-78 -17 -224 -59 -280 -80 -35 -13 -65 -23 -66 -22 -14 15 -86 328 -77
328 4 0 52 7 107 15 134 20 209 43 235 70 21 22 21 24 6 54 -15 28 -21 31 -64
31 -66 0 -174 -25 -239 -55 -30 -13 -59 -22 -64 -20 -9 6 -99 164 -99 174 1 3
53 37 118 75 64 37 163 100 219 140 103 71 103 71 103 113 0 34 -5 45 -27 61
-36 25 -66 34 -86 26 -9 -3 -37 -35 -62 -70 -32 -45 -71 -81 -133 -125 -48
-34 -114 -85 -147 -114 -47 -41 -64 -50 -80 -44 -38 15 -101 10 -118 -9 -10
-10 -17 -20 -17 -23 0 -2 29 -34 64 -72 74 -78 129 -176 146 -261 22 -109 66
-216 131 -317 l29 -46 89 13 c48 8 143 25 211 39 67 15 124 25 126 23 1 -2 8
-43 14 -91 6 -48 13 -93 16 -102 4 -10 -3 -18 -22 -26 -80 -32 -320 -109 -401
-129 -51 -12 -93 -26 -93 -30 0 -12 60 -47 95 -56 85 -20 414 -218 415 -249 0
-16 -303 -211 -492 -317 -108 -60 -128 -82 -85 -93 70 -18 460 176 639 317
l37 29 85 -70 c105 -85 309 -234 420 -306 60 -38 101 -57 154 -69 75 -17 247
-23 327 -10 43 6 45 8 45 40 0 38 -23 58 -80 69 -101 19 -449 149 -584 218
-81 41 -186 112 -274 184 -13 10 -6 22 43 75 81 87 166 205 233 322 l56 99
-42 38 c-50 47 -91 51 -168 15 -59 -27 -138 -46 -194 -46 l-39 0 6 87 c9 130
7 127 105 142 107 17 311 30 360 23 28 -3 44 0 58 13 36 33 150 351 210 586
24 93 22 103 -32 164 -65 75 -163 94 -281 54 -34 -11 -95 -27 -136 -35 -41 -8
-77 -16 -79 -19 -9 -9 20 -34 51 -44 18 -5 97 -12 176 -15 80 -4 150 -11 157
-17 22 -18 27 -85 10 -144 -9 -30 -19 -55 -21 -55 -3 0 -23 7 -45 16 -37 15
-48 15 -142 -1 -56 -9 -144 -29 -196 -45 -110 -32 -130 -50 -96 -84 40 -40
276 -7 428 59 17 8 18 5 12 -31 -7 -38 -93 -272 -105 -286 -3 -3 -78 -13 -166
-22 -88 -9 -182 -19 -209 -23 l-49 -6 6 324 c3 178 11 398 17 488 13 190 5
231 -57 278 -44 33 -139 46 -149 19z m391 -1547 c-24 -48 -114 -166 -178 -235
l-54 -58 -84 56 c-80 54 -240 137 -290 152 -24 7 -24 7 -3 16 60 24 605 122
617 110 5 -4 1 -23 -8 -41z"/>
</g>
</svg>
