<?xml version="1.0" standalone="no"?>
<!DOCTYPE svg PUBLIC "-//W3C//DTD SVG 20010904//EN"
 "http://www.w3.org/TR/2001/REC-SVG-20010904/DTD/svg10.dtd">
<svg version="1.0" xmlns="http://www.w3.org/2000/svg"
 width="340.000000pt" height="340.000000pt" viewBox="0 0 340.000000 340.000000"
 preserveAspectRatio="xMidYMid meet">
<metadata>
Created by potrace 1.15, written by Peter Selinger 2001-2017
</metadata>
<g transform="translate(0.000000,340.000000) scale(0.100000,-0.100000)"
fill="#000000" stroke="none">
<path d="M1660 2594 c-113 -42 -232 -80 -265 -85 -59 -10 -105 -31 -105 -48 0
-16 119 -22 201 -11 44 6 113 22 152 36 40 13 89 24 110 24 l38 0 -45 -57
c-24 -32 -64 -80 -88 -107 l-44 -50 -72 12 c-82 14 -231 16 -251 3 -10 -7 -8
-12 10 -25 13 -9 30 -16 38 -16 22 0 143 -31 164 -42 15 -8 9 -16 -45 -55 -35
-25 -103 -87 -153 -137 -90 -91 -90 -91 -59 -94 54 -5 136 36 276 138 l136
100 200 -69 c208 -72 222 -73 222 -25 0 40 -52 69 -293 168 l-37 15 45 42 c60
55 135 169 160 242 l19 57 -24 24 c-46 44 -69 41 -290 -40z"/>
<path d="M2088 2011 c-48 -17 -127 -50 -175 -74 -48 -24 -110 -52 -138 -62
-66 -24 -75 -33 -51 -51 28 -20 59 -17 147 11 74 23 249 58 256 51 9 -8 -26
-73 -58 -109 -40 -46 -55 -47 -159 -20 -106 28 -200 37 -200 19 0 -22 48 -55
104 -71 85 -25 138 -65 103 -78 -32 -12 -134 -106 -173 -160 -55 -74 -57 -92
-10 -84 23 4 82 41 177 113 l143 107 100 -54 c253 -135 249 -134 281 -118 20
9 31 23 33 40 4 38 -53 85 -196 157 l-121 62 45 46 c52 51 101 147 110 215 6
41 4 47 -20 62 -47 31 -103 31 -198 -2z"/>
<path d="M1215 1876 c-105 -45 -203 -82 -220 -82 -46 1 -42 -25 10 -63 53 -38
165 -140 165 -150 0 -4 -27 -26 -60 -49 -79 -56 -177 -149 -230 -217 -40 -51
-45 -55 -85 -55 l-43 0 -21 -82 c-24 -93 -56 -162 -104 -226 -25 -34 -32 -54
-32 -87 0 -60 12 -69 66 -55 55 15 84 47 139 155 44 87 45 90 45 185 l-1 97
67 27 c74 30 217 120 294 184 27 23 58 42 68 42 10 0 49 -29 87 -65 66 -62 71
-65 119 -65 27 0 52 4 55 8 16 26 -100 178 -159 210 -18 9 -15 14 38 66 78 77
139 204 122 256 -7 23 -64 50 -102 49 -15 0 -113 -38 -218 -83z m125 -87 c0
-18 -61 -107 -78 -114 -15 -6 -142 60 -142 74 0 10 69 30 141 41 78 11 79 11
79 -1z"/>
<path d="M2360 1374 c-19 -2 -91 -8 -160 -14 -360 -30 -875 -113 -1182 -191
-42 -10 -87 -19 -100 -19 -32 0 -50 -18 -38 -40 9 -16 16 -16 129 1 65 10 203
34 306 54 231 43 476 79 700 101 211 21 498 24 538 7 27 -12 27 -14 13 -35
-21 -30 -20 -55 3 -68 34 -18 161 -12 209 10 37 17 42 23 42 53 0 46 -36 98
-85 122 -34 16 -64 19 -190 21 -82 1 -166 0 -185 -2z"/>
<path d="M1800 1110 c-154 -34 -373 -112 -412 -147 -16 -14 -21 -14 -52 1 -45
21 -89 20 -109 -2 -19 -21 -22 -42 -7 -42 23 0 98 -120 114 -182 15 -59 36
-321 36 -453 l0 -61 -197 -32 c-109 -18 -238 -38 -286 -44 -71 -9 -87 -14 -85
-27 6 -28 49 -42 113 -36 360 32 822 78 871 86 52 9 67 8 94 -6 30 -15 34 -15
68 1 32 15 58 16 207 11 93 -4 230 -14 304 -22 150 -18 174 -16 197 19 19 30
7 59 -34 80 -57 29 -326 49 -497 37 -66 -5 -122 -8 -125 -6 -8 5 6 201 24 350
9 71 19 190 22 265 l7 136 -32 37 c-30 34 -82 58 -121 56 -8 0 -53 -9 -100
-19z m114 -128 c13 -7 0 -374 -19 -557 -9 -82 -17 -151 -19 -152 -2 -2 -75
-10 -162 -18 -87 -8 -180 -17 -206 -20 l-48 -6 0 53 c0 29 3 83 7 121 l6 67
57 0 c31 0 79 7 106 15 53 15 144 69 144 84 0 5 -15 14 -33 20 -34 11 -60 7
-130 -23 -21 -9 -60 -25 -87 -36 l-50 -20 0 111 0 112 29 -6 c40 -8 136 7 205
33 58 22 58 22 39 42 -28 27 -89 33 -164 15 -133 -32 -124 -33 -138 15 -7 24
-22 55 -32 70 -11 14 -19 28 -19 31 0 6 123 26 287 47 125 16 202 17 227 2z"/>
</g>
</svg>
