<?xml version="1.0" standalone="no"?>
<!DOCTYPE svg PUBLIC "-//W3C//DTD SVG 20010904//EN"
 "http://www.w3.org/TR/2001/REC-SVG-20010904/DTD/svg10.dtd">
<svg version="1.0" xmlns="http://www.w3.org/2000/svg"
 width="340.000000pt" height="340.000000pt" viewBox="0 0 340.000000 340.000000"
 preserveAspectRatio="xMidYMid meet">
<metadata>
Created by potrace 1.15, written by Peter Selinger 2001-2017
</metadata>
<g transform="translate(0.000000,340.000000) scale(0.100000,-0.100000)"
fill="#000000" stroke="none">
<path d="M1595 2516 c-18 -13 -18 -14 3 -47 46 -72 62 -114 62 -169 0 -98 -47
-528 -59 -549 -4 -6 -108 -22 -231 -36 -124 -15 -316 -39 -426 -55 -198 -29
-203 -29 -293 -14 -51 9 -94 14 -97 11 -8 -8 16 -61 39 -85 12 -13 40 -34 62
-45 60 -33 203 -30 305 5 84 29 323 78 498 102 154 22 141 26 136 -41 -13
-146 -35 -316 -50 -374 -10 -38 -15 -87 -12 -126 l4 -63 -66 -20 c-36 -10 -87
-24 -115 -30 -27 -7 -65 -16 -83 -22 -29 -8 -36 -6 -67 21 -20 17 -47 34 -60
37 -33 8 -78 -4 -71 -19 3 -7 36 -88 74 -182 57 -140 73 -193 92 -299 37 -217
79 -376 99 -376 18 0 41 31 41 55 0 13 3 26 8 29 16 10 207 26 437 37 248 12
283 18 305 58 14 27 15 25 -39 50 l-48 23 62 132 c35 72 100 201 145 286 l82
155 -19 34 c-10 19 -35 48 -56 65 -36 29 -44 31 -120 31 -45 -1 -176 -13 -291
-28 -115 -15 -211 -25 -213 -23 -2 2 3 39 11 82 9 44 25 153 36 244 12 91 26
194 33 230 14 75 -1 68 217 95 180 23 731 33 795 15 55 -15 90 -7 111 26 16
24 16 27 -2 52 -11 15 -41 38 -67 51 -47 23 -49 23 -175 12 -70 -7 -219 -23
-332 -37 -246 -30 -522 -55 -528 -49 -3 3 4 60 16 127 23 135 39 290 45 442
l4 99 -34 38 c-48 53 -128 75 -168 45z m522 -1550 c4 -3 -155 -508 -177 -563
-9 -20 -17 -23 -72 -23 -84 0 -253 -24 -368 -51 l-94 -22 -18 23 c-12 15 -18
39 -18 74 0 59 -29 231 -66 385 -16 70 -21 107 -14 111 13 8 334 47 540 65
138 12 275 13 287 1z"/>
</g>
</svg>
