<?xml version="1.0" standalone="no"?>
<!DOCTYPE svg PUBLIC "-//W3C//DTD SVG 20010904//EN"
 "http://www.w3.org/TR/2001/REC-SVG-20010904/DTD/svg10.dtd">
<svg version="1.0" xmlns="http://www.w3.org/2000/svg"
 width="340.000000pt" height="340.000000pt" viewBox="0 0 340.000000 340.000000"
 preserveAspectRatio="xMidYMid meet">
<metadata>
Created by potrace 1.15, written by Peter Selinger 2001-2017
</metadata>
<g transform="translate(0.000000,340.000000) scale(0.100000,-0.100000)"
fill="#000000" stroke="none">
<path d="M2235 2090 c-154 -33 -321 -77 -465 -123 -79 -25 -113 -31 -135 -25
-39 10 -62 2 -71 -24 -9 -30 16 -45 85 -54 63 -8 164 6 212 30 18 9 36 16 41
16 4 0 8 -42 8 -94 0 -86 -3 -102 -36 -178 -82 -193 -223 -428 -355 -593 -35
-44 -132 -150 -215 -235 -125 -128 -194 -215 -194 -244 0 -8 103 54 170 103
116 85 336 329 486 541 123 173 282 460 299 537 14 69 -28 144 -91 162 l-29 9
38 16 c71 31 202 57 317 63 133 6 184 -4 234 -48 l34 -29 -34 -161 c-46 -219
-77 -345 -130 -533 -74 -257 -226 -687 -256 -723 -18 -22 -26 -15 -78 56 -49
68 -139 141 -173 141 -23 0 -23 -62 2 -115 23 -51 130 -195 165 -222 36 -29
79 -37 120 -23 31 10 38 20 84 128 75 176 78 185 267 823 191 645 190 639 142
710 -30 44 -99 96 -145 109 -60 16 -159 10 -297 -20z"/>
<path d="M1060 1979 c-96 -39 -179 -74 -184 -79 -16 -16 15 -40 53 -40 20 0
81 9 136 19 55 11 130 23 167 26 65 7 68 6 79 -18 9 -19 7 -42 -9 -108 -24
-97 -52 -271 -52 -320 0 -50 -11 -59 -85 -75 -36 -8 -95 -25 -129 -39 -34 -14
-65 -25 -69 -25 -15 0 -39 115 -46 226 -9 139 -33 206 -95 266 -50 48 -126 85
-137 66 -17 -26 -8 -64 23 -102 40 -48 82 -192 135 -451 20 -99 40 -186 46
-192 27 -35 67 -2 67 55 0 16 6 34 13 39 6 6 59 13 117 16 143 7 288 41 318
74 34 37 27 75 -17 88 l-33 10 6 57 c4 31 20 109 37 172 16 64 36 159 44 212
13 87 13 100 -1 123 -29 49 -63 66 -139 68 -66 2 -81 -2 -245 -68z"/>
</g>
</svg>
