<?xml version="1.0" standalone="no"?>
<!DOCTYPE svg PUBLIC "-//W3C//DTD SVG 20010904//EN"
 "http://www.w3.org/TR/2001/REC-SVG-20010904/DTD/svg10.dtd">
<svg version="1.0" xmlns="http://www.w3.org/2000/svg"
 width="340.000000pt" height="340.000000pt" viewBox="0 0 340.000000 340.000000"
 preserveAspectRatio="xMidYMid meet">
<metadata>
Created by potrace 1.15, written by Peter Selinger 2001-2017
</metadata>
<g transform="translate(0.000000,340.000000) scale(0.100000,-0.100000)"
fill="#000000" stroke="none">
<path d="M1510 2194 c-13 -33 -14 -26 20 -104 38 -86 38 -128 0 -241 -41 -123
-75 -188 -103 -194 -12 -3 -92 -16 -177 -30 -85 -14 -216 -37 -291 -51 -74
-13 -169 -26 -211 -28 -42 -2 -92 -9 -112 -16 -34 -11 -35 -12 -21 -34 27 -40
88 -66 172 -72 100 -8 189 6 338 54 138 45 264 77 271 69 10 -10 -37 -124 -92
-222 -145 -259 -300 -462 -527 -688 -118 -118 -175 -182 -189 -214 -11 -24
-17 -47 -14 -50 7 -7 99 50 172 108 74 59 272 262 373 385 41 49 81 95 88 103
10 13 19 1 52 -70 70 -150 110 -294 136 -494 12 -94 20 -124 37 -142 28 -29
60 -30 73 0 8 17 19 23 55 25 25 1 108 11 185 22 77 10 205 24 285 30 171 14
230 31 230 65 0 14 -11 31 -27 43 l-26 19 20 44 c11 24 53 132 92 239 40 107
76 206 82 219 7 18 5 33 -11 67 -43 87 -122 127 -213 106 -29 -6 -115 -23
-192 -36 -177 -31 -349 -68 -464 -101 -50 -14 -97 -25 -105 -25 -8 0 -41 23
-74 52 l-58 52 88 155 c49 86 110 197 136 248 46 91 48 93 92 102 283 60 791
84 1005 47 96 -16 100 -16 125 2 31 24 38 67 13 94 -33 38 -81 50 -223 55
-115 4 -176 0 -415 -31 -154 -19 -327 -44 -384 -55 -58 -12 -107 -19 -109 -16
-6 5 30 116 62 190 47 110 32 229 -38 313 -24 27 -34 32 -72 32 -39 0 -46 -3
-54 -26z m713 -1191 c20 -12 -47 -305 -102 -449 l-31 -79 -157 -22 c-87 -13
-213 -36 -281 -53 -68 -16 -125 -30 -127 -30 -9 0 -25 72 -35 160 -7 52 -23
154 -36 227 -13 73 -24 139 -24 146 0 14 237 53 555 93 72 9 132 18 135 21 6
5 91 -6 103 -14z"/>
</g>
</svg>
