<?xml version="1.0" standalone="no"?>
<!DOCTYPE svg PUBLIC "-//W3C//DTD SVG 20010904//EN"
 "http://www.w3.org/TR/2001/REC-SVG-20010904/DTD/svg10.dtd">
<svg version="1.0" xmlns="http://www.w3.org/2000/svg"
 width="340.000000pt" height="340.000000pt" viewBox="0 0 340.000000 340.000000"
 preserveAspectRatio="xMidYMid meet">
<metadata>
Created by potrace 1.15, written by Peter Selinger 2001-2017
</metadata>
<g transform="translate(0.000000,340.000000) scale(0.100000,-0.100000)"
fill="#000000" stroke="none">
<path d="M1444 2549 c-35 -10 -58 -32 -52 -50 2 -7 33 -29 69 -49 l64 -36 8
-59 c4 -33 6 -105 5 -160 l-3 -100 -70 -12 c-66 -11 -330 -45 -457 -58 -65 -7
-75 -23 -32 -51 22 -15 46 -16 197 -10 95 3 216 12 270 19 l97 13 0 -132 0
-133 -52 -10 c-91 -18 -421 -71 -445 -71 -13 0 -31 -9 -40 -20 -22 -26 -25
-25 -74 7 -37 24 -137 58 -146 49 -9 -8 37 -83 81 -134 63 -73 147 -226 210
-379 44 -109 55 -128 76 -131 30 -5 50 21 50 64 0 43 18 55 97 64 38 5 95 13
128 19 87 16 95 15 95 -12 0 -29 -63 -258 -85 -310 l-16 -38 -32 21 c-70 45
-196 110 -282 145 -152 61 -379 114 -401 93 -17 -18 11 -37 95 -67 143 -49
296 -117 426 -187 176 -96 166 -83 120 -149 -102 -149 -259 -282 -432 -367
-65 -32 -114 -63 -134 -86 -38 -43 -30 -49 54 -32 224 43 439 201 623 455 l20
29 160 -104 c87 -56 243 -160 346 -231 235 -161 331 -198 558 -214 102 -7 135
5 135 49 0 33 -16 40 -231 101 -242 69 -447 169 -736 360 l-186 124 28 89 c32
98 70 273 70 321 0 19 7 34 18 39 34 18 151 32 273 32 132 0 183 14 222 57 17
20 17 21 -13 47 -19 15 -44 26 -62 26 l-30 0 45 53 c24 28 58 74 76 100 37 55
111 207 111 229 0 16 -44 60 -77 77 -33 17 -109 13 -161 -8 -26 -11 -105 -29
-177 -40 -71 -11 -145 -23 -162 -27 l-33 -6 0 110 c0 155 2 158 92 166 168 17
300 44 324 67 41 39 27 89 -25 89 -15 0 -91 -14 -171 -31 -197 -42 -210 -44
-211 -28 -1 8 0 62 1 120 2 104 -6 152 -37 238 -24 64 -90 86 -179 60z m642
-844 c3 -8 -14 -45 -39 -82 -54 -82 -90 -153 -107 -210 -7 -24 -15 -43 -16
-43 -5 0 -216 -30 -251 -36 l-33 -5 0 113 c0 62 3 136 6 164 l7 52 79 17 c75
16 261 42 321 44 16 1 30 -5 33 -14z m-540 -102 c4 -15 1 -86 -7 -157 l-14
-129 -165 -33 c-91 -19 -171 -32 -178 -31 -8 1 -26 34 -41 73 -15 39 -49 110
-74 158 -26 49 -47 89 -47 91 0 1 62 5 138 8 75 4 182 15 237 26 141 26 143
26 151 -6z"/>
</g>
</svg>
