<?xml version="1.0" standalone="no"?>
<!DOCTYPE svg PUBLIC "-//W3C//DTD SVG 20010904//EN"
 "http://www.w3.org/TR/2001/REC-SVG-20010904/DTD/svg10.dtd">
<svg version="1.0" xmlns="http://www.w3.org/2000/svg"
 width="340.000000pt" height="340.000000pt" viewBox="0 0 340.000000 340.000000"
 preserveAspectRatio="xMidYMid meet">
<metadata>
Created by potrace 1.15, written by Peter Selinger 2001-2017
</metadata>
<g transform="translate(0.000000,340.000000) scale(0.100000,-0.100000)"
fill="#000000" stroke="none">
<path d="M1672 2244 c-31 -21 -28 -49 9 -81 17 -16 36 -37 41 -47 32 -59 48
-385 28 -546 -17 -129 -15 -125 -73 -140 -29 -7 -122 -35 -207 -63 -85 -28
-168 -49 -185 -49 -41 2 -59 -11 -51 -36 5 -15 19 -23 51 -28 66 -9 238 14
338 46 l88 28 -7 -46 c-12 -91 -45 -238 -65 -302 -70 -214 -224 -423 -394
-535 -76 -50 -142 -112 -167 -159 -9 -17 -7 -18 40 -14 100 10 330 181 442
330 99 131 154 257 210 482 l48 191 18 -34 c154 -277 479 -758 593 -876 85
-87 210 -135 354 -135 77 0 157 16 157 30 0 18 -81 79 -126 95 -94 34 -198 86
-263 132 -147 105 -367 352 -476 534 -21 35 -83 126 -138 202 -55 76 -97 140
-94 143 23 24 338 88 503 103 110 10 141 23 151 60 21 82 -83 88 -357 20 -184
-45 -278 -65 -284 -58 -2 2 3 81 11 174 21 244 21 367 -1 440 -20 67 -53 136
-70 147 -20 14 -101 8 -124 -8z"/>
<path d="M2190 2066 c0 -45 75 -136 178 -218 61 -49 66 -51 90 -37 35 20 46
41 38 73 -10 39 -87 109 -159 145 -60 29 -147 51 -147 37z"/>
<path d="M955 1747 c-152 -64 -310 -140 -319 -155 -6 -11 -14 -8 -40 17 -17
16 -48 37 -68 45 -37 16 -78 21 -78 11 0 -20 36 -85 60 -110 28 -29 45 -74
190 -482 18 -51 36 -93 41 -93 17 0 39 33 39 59 0 28 2 29 70 35 80 8 149 25
232 56 44 16 57 26 63 48 6 26 -13 53 -46 64 -7 2 0 47 20 128 16 69 37 167
46 217 14 81 14 96 1 120 -39 77 -96 88 -211 40z m79 -135 c3 -10 -3 -66 -13
-124 -11 -59 -23 -140 -27 -181 l-7 -74 -59 -17 c-33 -9 -82 -28 -110 -42 -27
-14 -51 -24 -52 -22 -2 2 -9 37 -16 78 -13 79 -58 218 -92 283 -11 22 -17 41
-15 44 3 2 33 8 68 13 35 6 118 21 184 34 66 13 123 25 127 25 4 1 9 -7 12
-17z"/>
</g>
</svg>
