<?xml version="1.0" standalone="no"?>
<!DOCTYPE svg PUBLIC "-//W3C//DTD SVG 20010904//EN"
 "http://www.w3.org/TR/2001/REC-SVG-20010904/DTD/svg10.dtd">
<svg version="1.0" xmlns="http://www.w3.org/2000/svg"
 width="340.000000pt" height="340.000000pt" viewBox="0 0 340.000000 340.000000"
 preserveAspectRatio="xMidYMid meet">
<metadata>
Created by potrace 1.15, written by Peter Selinger 2001-2017
</metadata>
<g transform="translate(0.000000,340.000000) scale(0.100000,-0.100000)"
fill="#000000" stroke="none">
<path d="M1656 2376 c-9 -46 13 -97 53 -125 17 -12 31 -28 31 -35 0 -19 -58
-191 -97 -286 -57 -139 -163 -337 -251 -470 -83 -124 -102 -171 -72 -177 15
-3 135 132 228 258 l42 55 132 23 c73 13 174 33 223 46 121 31 218 45 312 45
76 0 77 -1 56 -18 -41 -33 -93 -104 -93 -128 0 -27 33 -40 73 -30 29 7 159 92
211 138 38 33 39 35 27 69 -21 66 -76 99 -160 99 -112 0 -381 -60 -587 -131
-78 -27 -145 -49 -148 -49 -11 0 21 64 77 153 83 131 138 277 161 424 6 39 3
46 -31 84 -39 43 -121 89 -159 89 -17 0 -23 -8 -28 -34z"/>
<path d="M1085 1810 c-27 -10 -126 -47 -218 -81 -93 -34 -171 -68 -174 -75 -8
-20 16 -44 43 -44 13 0 106 18 206 40 100 22 183 39 184 37 6 -7 -39 -224 -61
-289 -14 -43 -25 -86 -25 -97 0 -15 -24 -28 -125 -65 -69 -25 -127 -46 -130
-46 -3 0 -5 16 -5 36 0 169 -173 500 -240 459 -16 -10 -13 -23 45 -178 30 -81
75 -217 100 -302 24 -86 47 -160 50 -165 3 -6 15 -10 25 -10 15 0 21 9 26 40
4 22 11 43 16 46 5 3 54 10 108 14 103 9 187 28 276 61 45 17 54 25 54 45 0
32 -33 64 -66 64 -17 0 -24 4 -21 13 39 102 117 393 117 439 0 9 -12 30 -26
47 -21 26 -33 31 -67 30 -23 0 -64 -9 -92 -19z"/>
<path d="M1679 1465 c-8 -29 -8 -58 1 -111 26 -153 -39 -418 -147 -597 -75
-126 -189 -260 -262 -309 -79 -53 -151 -131 -151 -163 0 -13 79 -3 119 15 91
42 263 202 354 331 62 88 140 253 169 356 12 46 25 83 28 83 4 0 36 -44 72
-97 140 -207 491 -621 587 -693 77 -58 167 -83 285 -78 102 3 122 12 113 50
-5 18 -42 41 -174 107 -183 91 -238 125 -325 198 -107 91 -337 350 -467 526
l-72 97 12 60 c15 77 7 145 -25 208 -23 46 -29 50 -66 54 -40 4 -41 3 -51 -37z"/>
</g>
</svg>
