<?xml version="1.0" standalone="no"?>
<!DOCTYPE svg PUBLIC "-//W3C//DTD SVG 20010904//EN"
 "http://www.w3.org/TR/2001/REC-SVG-20010904/DTD/svg10.dtd">
<svg version="1.0" xmlns="http://www.w3.org/2000/svg"
 width="340.000000pt" height="340.000000pt" viewBox="0 0 340.000000 340.000000"
 preserveAspectRatio="xMidYMid meet">
<metadata>
Created by potrace 1.15, written by Peter Selinger 2001-2017
</metadata>
<g transform="translate(0.000000,340.000000) scale(0.100000,-0.100000)"
fill="#000000" stroke="none">
<path d="M1596 2544 c-12 -31 -5 -46 38 -89 61 -58 67 -96 64 -375 l-3 -224
-170 -43 c-93 -23 -180 -42 -191 -42 -12 -1 -27 -8 -34 -17 -11 -12 -10 -18 4
-32 23 -23 126 -20 266 7 58 12 111 21 119 21 12 0 13 -23 6 -137 -4 -76 -10
-160 -14 -188 l-6 -50 -90 -12 c-180 -25 -529 -84 -702 -119 -121 -24 -222
-38 -315 -43 -76 -4 -141 -10 -145 -14 -10 -10 28 -58 68 -85 32 -23 40 -24
139 -17 130 8 265 34 390 74 125 40 329 85 553 121 342 55 634 80 960 80 173
0 223 -3 303 -21 91 -19 97 -20 115 -3 24 22 25 75 2 102 -35 41 -313 56 -507
27 -88 -13 -592 -65 -629 -65 -13 0 -14 50 -8 321 l1 67 68 11 c115 20 359 93
390 117 7 5 -9 44 -24 59 -24 24 -84 18 -233 -24 -77 -22 -156 -43 -176 -47
l-37 -7 7 47 c4 26 8 154 9 284 1 264 -1 272 -67 312 -41 26 -142 28 -151 4z"/>
<path d="M1197 2243 c-14 -14 -6 -62 18 -108 l26 -47 -36 -63 c-56 -100 -185
-291 -269 -399 -90 -115 -106 -144 -86 -156 19 -12 38 -3 110 56 88 71 133
119 239 254 102 129 151 215 177 308 l17 62 -28 30 c-15 16 -42 36 -59 43 -39
18 -100 29 -109 20z"/>
<path d="M1984 1055 c-218 -41 -491 -101 -557 -122 -61 -20 -118 -12 -162 21
-43 33 -84 42 -109 23 -17 -13 -16 -17 29 -83 26 -38 56 -89 67 -114 23 -53
74 -246 123 -459 19 -85 40 -158 47 -163 35 -21 58 6 56 66 -1 21 5 43 14 52
21 21 236 42 503 50 225 7 275 17 275 56 0 33 -18 55 -50 61 -16 4 -30 13 -30
20 0 8 22 61 48 118 72 154 162 374 162 395 0 30 -36 82 -69 99 -46 23 -144
17 -347 -20z m192 -137 c-12 -44 -95 -383 -103 -423 l-9 -40 -119 -7 c-153 -9
-268 -24 -374 -49 -46 -10 -86 -18 -88 -16 -2 2 -19 66 -37 143 -19 76 -47
177 -61 223 -15 46 -23 87 -18 91 24 24 555 98 707 99 108 1 108 1 102 -21z"/>
</g>
</svg>
