<?xml version="1.0" standalone="no"?>
<!DOCTYPE svg PUBLIC "-//W3C//DTD SVG 20010904//EN"
 "http://www.w3.org/TR/2001/REC-SVG-20010904/DTD/svg10.dtd">
<svg version="1.0" xmlns="http://www.w3.org/2000/svg"
 width="340.000000pt" height="340.000000pt" viewBox="0 0 340.000000 340.000000"
 preserveAspectRatio="xMidYMid meet">
<metadata>
Created by potrace 1.15, written by Peter Selinger 2001-2017
</metadata>
<g transform="translate(0.000000,340.000000) scale(0.100000,-0.100000)"
fill="#000000" stroke="none">
<path d="M1624 2295 c-18 -28 -12 -59 19 -92 l20 -22 -23 -53 c-91 -214 -245
-477 -401 -685 -89 -118 -102 -132 -120 -123 -10 6 -25 21 -33 33 -13 19 -12
33 9 122 14 55 36 163 49 240 28 157 26 167 -37 206 -55 35 -107 23 -228 -53
-57 -36 -132 -80 -166 -97 -35 -17 -63 -35 -63 -40 0 -48 49 -54 132 -17 59
26 228 80 233 74 2 -1 -3 -61 -10 -133 -8 -71 -17 -169 -20 -217 l-7 -87 -56
-16 c-31 -9 -79 -29 -107 -43 -27 -15 -53 -28 -57 -30 -5 -2 -8 14 -8 35 0 67
-29 176 -65 250 -57 116 -164 215 -189 174 -3 -5 19 -57 49 -117 48 -95 58
-125 76 -229 20 -119 61 -261 83 -290 17 -22 38 -3 45 40 3 21 13 41 21 45 23
12 271 62 277 56 3 -3 -39 -50 -92 -105 -62 -64 -102 -114 -110 -138 -7 -21
-11 -40 -9 -42 7 -7 134 83 214 152 149 128 433 493 588 754 37 62 70 113 74
113 14 0 367 -340 543 -525 99 -102 198 -197 220 -210 75 -43 168 -65 281 -65
94 0 104 2 114 20 21 39 3 56 -103 100 -119 49 -217 103 -382 213 -91 61 -150
111 -245 207 -121 122 -268 244 -357 297 l-43 25 19 32 c32 51 43 110 31 156
-24 91 -127 144 -166 85z"/>
<path d="M1755 1441 c-111 -40 -165 -64 -245 -111 -38 -22 -78 -40 -90 -40
-28 0 -35 -23 -17 -52 41 -63 51 -135 51 -383 1 -253 5 -281 57 -421 18 -47
27 -58 67 -78 173 -88 403 -104 638 -45 102 26 141 50 173 109 36 65 41 180 9
234 -13 22 -28 41 -34 43 -22 7 -75 -93 -87 -163 -11 -65 -13 -67 -52 -84 -75
-32 -170 -50 -266 -50 -110 0 -190 17 -288 61 l-70 31 -18 72 c-15 59 -18 115
-18 341 0 202 -3 280 -14 309 -16 46 -18 44 91 80 112 37 210 53 242 38 22
-10 26 -18 26 -55 0 -49 -25 -205 -40 -252 -10 -29 -13 -31 -63 -30 l-52 0 -3
-38 c-4 -43 13 -69 60 -93 47 -25 94 -18 134 19 35 32 38 40 65 178 16 79 31
176 34 214 5 61 3 75 -17 109 -49 85 -142 104 -273 57z"/>
</g>
</svg>
