<?xml version="1.0" standalone="no"?>
<!DOCTYPE svg PUBLIC "-//W3C//DTD SVG 20010904//EN"
 "http://www.w3.org/TR/2001/REC-SVG-20010904/DTD/svg10.dtd">
<svg version="1.0" xmlns="http://www.w3.org/2000/svg"
 width="340.000000pt" height="340.000000pt" viewBox="0 0 340.000000 340.000000"
 preserveAspectRatio="xMidYMid meet">
<metadata>
Created by potrace 1.15, written by Peter Selinger 2001-2017
</metadata>
<g transform="translate(0.000000,340.000000) scale(0.100000,-0.100000)"
fill="#000000" stroke="none">
<path d="M2059 2425 c-227 -27 -527 -87 -661 -131 -26 -8 -89 -24 -140 -35
-89 -18 -94 -18 -108 -1 -49 57 -101 75 -153 51 l-24 -11 23 -43 c38 -67 73
-181 86 -279 19 -140 16 -527 -5 -671 -38 -256 -129 -562 -208 -696 -36 -60
-87 -186 -103 -251 -8 -36 7 -36 56 -3 27 18 50 52 92 135 166 323 261 668
295 1075 13 148 13 375 0 475 -19 146 -24 133 56 152 132 32 444 88 637 114
239 32 362 30 453 -7 57 -23 60 -26 67 -67 4 -23 12 -180 18 -350 12 -365 26
-617 46 -882 22 -285 28 -447 20 -521 l-7 -66 -37 18 c-37 19 -74 23 -103 11
-42 -18 56 -178 132 -217 41 -22 102 -19 124 5 29 32 31 72 14 318 -36 510
-59 1088 -59 1478 0 153 -4 253 -11 275 -40 119 -205 159 -500 124z"/>
<path d="M1678 2189 c-22 -12 -25 -84 -4 -96 28 -17 36 -54 36 -167 0 -100 -2
-117 -17 -125 -29 -15 -206 -61 -235 -61 -35 0 -44 -17 -22 -41 17 -19 29 -20
143 -18 l124 2 4 -54 c2 -30 8 -68 13 -86 7 -26 5 -33 -8 -37 -10 -2 -89 -21
-177 -41 -204 -46 -195 -43 -195 -66 0 -41 36 -44 247 -15 109 15 300 37 424
50 164 16 233 27 252 38 26 17 52 74 38 82 -4 3 -41 10 -81 17 -80 12 -140 7
-272 -22 -117 -26 -132 -25 -124 4 3 12 9 57 12 100 7 73 8 78 33 83 97 21
251 91 251 113 0 5 -12 19 -26 30 -34 27 -88 27 -148 0 -26 -11 -58 -19 -72
-17 -24 3 -25 4 -27 108 -3 111 -11 137 -63 199 -27 33 -71 41 -106 20z"/>
<path d="M1995 1244 c-27 -7 -135 -32 -240 -54 l-189 -41 -44 21 c-37 19 -47
20 -73 10 -16 -7 -29 -15 -29 -19 0 -4 20 -67 45 -141 29 -87 45 -152 45 -185
0 -59 26 -119 67 -158 l29 -27 13 24 c7 13 23 29 35 34 11 6 107 22 213 35
128 16 201 30 218 41 26 17 33 54 14 73 -9 9 -2 27 25 70 43 68 89 206 84 254
-6 70 -95 96 -213 63z m45 -155 c0 -11 -22 -64 -49 -118 l-50 -98 -63 -7 c-35
-3 -97 -15 -137 -26 -40 -11 -76 -18 -81 -15 -7 5 -39 128 -53 211 l-6 31 112
7 c62 4 157 15 212 25 55 9 103 15 108 13 4 -2 7 -12 7 -23z"/>
</g>
</svg>
