<?xml version="1.0" standalone="no"?>
<!DOCTYPE svg PUBLIC "-//W3C//DTD SVG 20010904//EN"
 "http://www.w3.org/TR/2001/REC-SVG-20010904/DTD/svg10.dtd">
<svg version="1.0" xmlns="http://www.w3.org/2000/svg"
 width="340.000000pt" height="340.000000pt" viewBox="0 0 340.000000 340.000000"
 preserveAspectRatio="xMidYMid meet">
<metadata>
Created by potrace 1.15, written by Peter Selinger 2001-2017
</metadata>
<g transform="translate(0.000000,340.000000) scale(0.100000,-0.100000)"
fill="#000000" stroke="none">
<path d="M2112 2298 c-7 -7 -12 -24 -12 -39 0 -20 -11 -36 -37 -57 -49 -38
-62 -44 -195 -98 -119 -48 -184 -82 -287 -150 l-64 -43 -42 25 c-48 27 -91 31
-122 9 l-21 -15 34 -58 c55 -91 64 -135 64 -320 0 -244 -34 -442 -113 -652
-20 -53 -105 -217 -192 -374 -109 -194 -153 -281 -145 -286 35 -22 83 27 197
203 219 336 348 709 384 1118 11 112 10 148 -2 214 -7 44 -14 84 -14 88 0 5
79 34 175 66 178 59 359 130 450 176 124 63 121 205 -4 205 -23 0 -47 -5 -54
-12z"/>
<path d="M921 1855 c-72 -36 -167 -85 -210 -110 -43 -25 -84 -45 -91 -45 -8 0
-31 12 -51 26 -31 21 -41 24 -58 14 -26 -13 -26 -24 -1 -65 19 -31 91 -281
141 -487 21 -89 25 -98 46 -98 25 0 43 31 43 75 0 27 17 33 149 54 80 12 144
37 203 78 l37 25 -24 49 c-30 59 -30 65 -4 126 32 75 68 220 75 304 6 74 6 76
-21 97 -47 37 -88 29 -234 -43z m115 -99 c3 -7 -9 -69 -25 -137 -17 -68 -34
-151 -39 -183 l-7 -59 -67 -23 c-36 -12 -87 -34 -113 -49 -25 -15 -48 -25 -51
-23 -2 3 -15 59 -29 124 -14 65 -33 149 -43 186 l-19 67 56 17 c127 38 317 92
324 93 4 1 10 -5 13 -13z"/>
<path d="M1950 1852 c0 -30 8 -63 21 -87 12 -22 68 -132 124 -245 196 -394
428 -812 487 -876 71 -77 223 -135 309 -117 25 5 29 10 29 40 0 41 -35 78 -87
92 -46 13 -126 76 -215 169 -89 93 -123 146 -218 327 -186 356 -413 745 -435
745 -11 0 -15 -13 -15 -48z"/>
<path d="M1706 1814 c-11 -30 -6 -83 14 -134 32 -80 47 -422 32 -688 -18 -294
-48 -511 -82 -594 -11 -26 -20 -57 -20 -70 0 -32 34 -85 60 -93 31 -10 121 37
166 88 34 38 169 208 208 262 13 18 15 17 30 -20 23 -53 72 -103 115 -115 46
-12 53 -1 48 71 -7 88 -46 150 -172 277 -86 86 -119 112 -139 112 -32 0 -34
-23 -5 -65 25 -37 74 -132 83 -162 6 -18 -1 -27 -41 -54 -26 -18 -84 -69 -127
-113 l-79 -81 7 120 c4 66 16 199 27 295 24 207 36 651 21 789 -11 101 -24
129 -82 169 -39 26 -56 28 -64 6z"/>
</g>
</svg>
