<?xml version="1.0" standalone="no"?>
<!DOCTYPE svg PUBLIC "-//W3C//DTD SVG 20010904//EN"
 "http://www.w3.org/TR/2001/REC-SVG-20010904/DTD/svg10.dtd">
<svg version="1.0" xmlns="http://www.w3.org/2000/svg"
 width="340.000000pt" height="340.000000pt" viewBox="0 0 340.000000 340.000000"
 preserveAspectRatio="xMidYMid meet">
<metadata>
Created by potrace 1.15, written by Peter Selinger 2001-2017
</metadata>
<g transform="translate(0.000000,340.000000) scale(0.100000,-0.100000)"
fill="#000000" stroke="none">
<path d="M1927 2313 c-20 -19 -2 -79 37 -121 20 -23 21 -33 24 -387 l4 -363
-89 -21 c-88 -20 -209 -40 -249 -41 -20 0 -21 3 -13 43 13 65 10 177 -5 235
-27 101 -110 207 -157 200 -31 -4 -29 -24 7 -108 35 -82 45 -231 20 -322 -11
-43 -12 -66 -4 -94 12 -44 58 -94 87 -94 27 0 287 55 353 75 29 8 54 15 56 15
9 0 -6 -540 -19 -698 -11 -142 -14 -153 -33 -157 -12 -2 -75 -11 -141 -20 -66
-9 -151 -23 -188 -31 -86 -18 -97 -18 -97 2 0 8 16 63 35 121 41 124 45 187
14 250 -21 43 -65 83 -92 83 -28 0 -35 -51 -15 -105 15 -42 -10 -178 -57 -317
-32 -94 -33 -103 -19 -129 31 -60 107 -83 184 -54 233 85 506 137 810 154 85
4 162 11 171 15 28 12 49 -20 49 -77 0 -57 23 -112 58 -135 19 -13 23 -11 48
28 34 51 42 124 24 224 -33 185 -53 273 -81 352 -25 69 -38 90 -63 105 -39 24
-96 26 -96 3 0 -9 18 -92 41 -185 22 -94 39 -175 36 -182 -5 -14 -432 -76
-443 -64 -12 12 -23 484 -16 667 l7 185 165 22 c91 12 171 20 178 18 6 -2 12
-11 12 -18 0 -23 28 -40 53 -33 28 7 87 127 156 314 52 143 59 188 37 247 -23
59 -48 75 -115 75 l-54 0 7 -42 c4 -24 16 -56 27 -72 l21 -28 -57 -174 -57
-174 -91 0 c-86 0 -157 -8 -251 -25 l-38 -8 7 374 c6 356 6 376 -13 408 -10
19 -34 43 -53 53 -33 18 -109 25 -122 11z"/>
<path d="M955 1783 c-201 -98 -200 -97 -180 -116 20 -21 47 -21 121 -2 32 8
86 18 122 21 l64 7 -5 -49 c-4 -27 -9 -85 -12 -129 -8 -96 -42 -353 -50 -364
-2 -5 -20 -12 -39 -15 -19 -4 -54 -17 -79 -30 l-45 -24 -6 71 c-15 151 -56
303 -117 432 -31 66 -72 106 -89 89 -6 -6 8 -82 39 -204 27 -107 64 -280 81
-385 18 -104 34 -193 37 -197 8 -14 41 -8 47 8 3 9 6 33 6 55 0 49 23 65 106
72 58 5 130 32 166 64 15 13 15 18 3 37 -13 19 -8 50 40 281 64 305 67 351 27
396 -21 24 -38 32 -72 35 -39 4 -61 -3 -165 -53z"/>
</g>
</svg>
