<?xml version="1.0" standalone="no"?>
<!DOCTYPE svg PUBLIC "-//W3C//DTD SVG 20010904//EN"
 "http://www.w3.org/TR/2001/REC-SVG-20010904/DTD/svg10.dtd">
<svg version="1.0" xmlns="http://www.w3.org/2000/svg"
 width="340.000000pt" height="340.000000pt" viewBox="0 0 340.000000 340.000000"
 preserveAspectRatio="xMidYMid meet">
<metadata>
Created by potrace 1.15, written by Peter Selinger 2001-2017
</metadata>
<g transform="translate(0.000000,340.000000) scale(0.100000,-0.100000)"
fill="#000000" stroke="none">
<path d="M1495 2450 c-13 -21 21 -44 160 -111 209 -101 206 -100 244 -82 24
12 31 22 31 44 0 49 -113 125 -218 148 -67 14 -209 14 -217 1z"/>
<path d="M1585 1993 c-131 -59 -203 -86 -230 -87 -36 -1 -40 -4 -43 -28 -5
-39 31 -51 135 -46 74 4 92 9 176 51 133 67 133 67 141 -45 8 -118 8 -1207 0
-1326 l-7 -91 -30 25 c-16 13 -43 32 -60 41 -28 14 -31 14 -44 -3 -21 -28 -16
-50 33 -144 29 -57 62 -104 94 -134 45 -42 50 -44 81 -36 63 18 65 36 51 430
-11 312 -7 664 8 658 4 -2 31 -32 61 -68 134 -161 486 -501 571 -550 146 -84
373 -106 408 -39 8 15 2 22 -43 47 -28 17 -86 42 -127 57 -188 66 -400 210
-605 409 -55 53 -139 127 -187 163 l-88 66 0 71 c0 39 5 178 12 308 13 272 9
306 -45 338 -18 11 -41 20 -52 20 -11 0 -105 -39 -210 -87z"/>
<path d="M915 1966 c-86 -28 -182 -76 -257 -128 l-57 -40 -44 17 c-50 19 -85
17 -100 -5 -7 -12 3 -34 38 -89 62 -95 99 -201 119 -336 12 -76 24 -122 41
-152 28 -47 47 -63 53 -44 3 8 16 27 31 43 20 23 46 35 117 53 101 26 226 76
264 105 21 16 23 22 15 46 -6 17 -21 31 -40 37 -16 5 -31 11 -33 12 -2 1 6 56
17 121 11 66 25 165 32 221 13 115 10 125 -48 150 -43 18 -66 16 -148 -11z
m69 -141 c3 -8 -1 -45 -10 -83 -8 -37 -20 -118 -27 -181 l-12 -114 -50 -19
c-27 -10 -68 -32 -92 -49 -24 -16 -46 -29 -49 -29 -2 0 -4 12 -4 28 0 45 -47
222 -79 301 -17 41 -29 76 -26 79 6 6 303 80 326 81 9 1 19 -6 23 -14z"/>
<path d="M2366 1887 c-19 -14 -19 -37 -1 -94 6 -18 -2 -29 -50 -65 -223 -168
-413 -337 -401 -356 16 -27 65 -9 204 76 217 132 377 250 396 289 24 50 20 85
-11 114 -51 46 -104 60 -137 36z"/>
<path d="M1455 1441 c-322 -152 -433 -201 -456 -201 -33 0 -43 -12 -34 -41 6
-19 12 -20 78 -13 101 9 244 47 340 89 45 20 88 39 94 42 20 8 -31 -130 -83
-226 -78 -144 -204 -321 -318 -449 -60 -67 -78 -108 -55 -123 25 -16 34 -10
129 78 109 102 216 228 298 351 56 82 154 254 180 315 17 40 15 130 -5 172
-16 33 -20 35 -62 35 -29 -1 -68 -12 -106 -29z"/>
</g>
</svg>
