<?xml version="1.0" standalone="no"?>
<!DOCTYPE svg PUBLIC "-//W3C//DTD SVG 20010904//EN"
 "http://www.w3.org/TR/2001/REC-SVG-20010904/DTD/svg10.dtd">
<svg version="1.0" xmlns="http://www.w3.org/2000/svg"
 width="340.000000pt" height="340.000000pt" viewBox="0 0 340.000000 340.000000"
 preserveAspectRatio="xMidYMid meet">
<metadata>
Created by potrace 1.15, written by Peter Selinger 2001-2017
</metadata>
<g transform="translate(0.000000,340.000000) scale(0.100000,-0.100000)"
fill="#000000" stroke="none">
<path d="M1596 2154 c-12 -30 -6 -58 20 -95 23 -34 25 -45 21 -106 -4 -66 -28
-210 -48 -284 -8 -34 -16 -39 -106 -81 -54 -25 -132 -58 -173 -73 -91 -35 -96
-38 -75 -59 24 -24 52 -20 185 25 66 23 123 39 126 36 3 -3 -1 -36 -10 -74
-45 -199 -263 -602 -455 -842 -79 -99 -83 -154 -8 -102 187 128 446 543 571
911 47 138 56 157 82 169 40 20 115 26 156 12 l35 -11 -19 -118 c-54 -343
-137 -664 -241 -936 l-30 -78 -36 42 c-31 36 -43 43 -76 44 l-40 1 1 -56 c1
-66 39 -143 91 -190 39 -34 75 -37 119 -10 26 16 35 34 66 132 20 63 73 251
117 419 44 168 103 386 131 485 75 260 69 329 -29 384 -52 29 -146 32 -203 8
l-38 -16 0 29 c0 16 9 76 20 132 31 162 23 236 -32 295 -27 29 -112 33 -122 7z"/>
<path d="M900 1676 c-169 -64 -232 -95 -227 -109 2 -6 15 -19 30 -27 24 -13
37 -11 161 20 74 19 137 32 139 30 3 -3 2 -117 -1 -253 l-5 -249 -31 -13 c-17
-7 -67 -30 -110 -49 -43 -20 -80 -35 -82 -34 -1 2 -7 47 -14 100 -23 200 -104
424 -163 454 -35 19 -57 12 -57 -17 0 -12 20 -92 44 -178 40 -138 59 -219 109
-456 11 -54 15 -60 39 -63 28 -3 27 -5 44 76 6 29 40 42 91 35 53 -7 139 19
182 55 l34 28 -17 32 c-16 31 -16 36 8 110 47 152 89 401 75 460 -11 49 -48
83 -95 88 -29 3 -67 -7 -154 -40z"/>
<path d="M2521 1465 c-79 -19 -195 -50 -259 -70 -133 -40 -130 -40 -153 -19
-23 20 -49 12 -49 -16 0 -12 15 -103 34 -203 19 -100 47 -261 62 -357 28 -178
41 -213 71 -189 7 6 13 23 13 37 l0 25 108 -7 c96 -6 291 5 365 20 62 13 52
95 -13 109 -16 4 -30 8 -30 11 0 2 23 61 51 131 77 194 139 381 139 422 0 82
-63 142 -150 140 -25 0 -110 -16 -189 -34z m189 -127 c0 -7 -23 -100 -50 -207
-28 -106 -50 -203 -50 -215 -1 -39 -37 -104 -69 -120 -16 -9 -49 -16 -73 -16
-24 0 -82 -8 -130 -18 -101 -21 -98 -24 -98 87 0 88 -26 256 -56 358 -14 47
-23 87 -21 89 2 2 87 15 188 28 210 28 359 33 359 14z"/>
</g>
</svg>
