<?xml version="1.0" standalone="no"?>
<!DOCTYPE svg PUBLIC "-//W3C//DTD SVG 20010904//EN"
 "http://www.w3.org/TR/2001/REC-SVG-20010904/DTD/svg10.dtd">
<svg version="1.0" xmlns="http://www.w3.org/2000/svg"
 width="340.000000pt" height="340.000000pt" viewBox="0 0 340.000000 340.000000"
 preserveAspectRatio="xMidYMid meet">
<metadata>
Created by potrace 1.15, written by Peter Selinger 2001-2017
</metadata>
<g transform="translate(0.000000,340.000000) scale(0.100000,-0.100000)"
fill="#000000" stroke="none">
<path d="M2230 2296 c-206 -28 -380 -58 -540 -92 -63 -13 -126 -24 -140 -24
-14 0 -42 -8 -61 -18 -22 -11 -50 -17 -71 -14 -20 2 -38 0 -42 -6 -3 -5 5 -65
19 -133 35 -182 53 -341 66 -580 13 -231 7 -387 -31 -769 -23 -227 -24 -272
-8 -288 17 -17 49 -15 77 5 17 11 47 17 100 18 42 1 146 11 231 23 85 12 227
26 315 33 88 6 183 14 211 16 l50 5 32 -64 c34 -68 90 -133 153 -175 35 -23
42 -24 70 -13 43 18 56 43 74 148 19 110 20 209 5 547 -6 138 -10 473 -8 746
l3 496 -30 49 c-23 37 -45 56 -88 78 -77 40 -162 42 -387 12z m282 -116 c29
-11 59 -24 67 -29 30 -19 42 -294 44 -1033 1 -388 -1 -710 -6 -714 -4 -4 -42
27 -85 68 -106 103 -111 105 -365 90 -221 -13 -354 -30 -521 -67 -60 -14 -112
-22 -115 -20 -2 3 3 155 13 338 13 223 18 465 18 737 -1 384 -2 409 -22 473
-12 38 -20 71 -17 73 5 6 257 37 552 70 132 14 242 28 244 30 13 13 146 2 193
-16z"/>
<path d="M1930 2047 c-32 -17 -31 -54 4 -99 42 -56 49 -109 37 -276 -6 -83
-13 -157 -17 -165 -6 -17 -118 -57 -219 -80 -63 -14 -79 -33 -54 -63 10 -13
32 -14 131 -8 102 6 118 5 118 -8 0 -9 -11 -55 -25 -102 -29 -100 -77 -199
-146 -305 -56 -84 -60 -106 -24 -123 23 -11 30 -8 71 33 97 94 182 247 220
396 13 53 24 108 24 123 0 32 -11 28 198 71 79 16 147 31 151 34 19 11 19 47
1 65 -36 36 -176 39 -270 6 -24 -8 -46 -14 -48 -12 -2 2 3 62 10 132 25 244
16 304 -54 358 -43 32 -77 39 -108 23z"/>
<path d="M2090 1204 c0 -26 33 -98 50 -109 6 -3 29 -34 52 -68 47 -70 175
-207 193 -207 7 0 24 9 39 21 41 32 35 74 -21 150 -84 112 -151 167 -255 213
l-58 26 0 -26z"/>
<path d="M1080 1947 c-193 -76 -280 -119 -280 -140 0 -18 5 -19 63 -14 34 3
114 14 177 25 63 11 116 19 117 18 2 -1 -16 -96 -39 -209 -34 -172 -44 -207
-58 -207 -9 0 -43 -9 -76 -21 -32 -11 -67 -23 -76 -26 -13 -4 -18 4 -23 44
-19 140 -72 271 -143 352 -27 32 -43 43 -55 38 -26 -10 -32 -36 -18 -71 7 -17
48 -159 92 -315 43 -157 85 -288 91 -293 34 -21 48 -2 48 67 0 23 6 48 13 54
8 6 48 16 90 21 64 9 156 35 230 65 9 4 17 17 17 29 0 27 -27 66 -46 66 -21 0
-18 18 26 150 40 119 71 306 57 342 -3 9 -17 24 -30 33 -45 29 -86 27 -177 -8z"/>
</g>
</svg>
