<?xml version="1.0" standalone="no"?>
<!DOCTYPE svg PUBLIC "-//W3C//DTD SVG 20010904//EN"
 "http://www.w3.org/TR/2001/REC-SVG-20010904/DTD/svg10.dtd">
<svg version="1.0" xmlns="http://www.w3.org/2000/svg"
 width="340.000000pt" height="340.000000pt" viewBox="0 0 340.000000 340.000000"
 preserveAspectRatio="xMidYMid meet">
<metadata>
Created by potrace 1.15, written by Peter Selinger 2001-2017
</metadata>
<g transform="translate(0.000000,340.000000) scale(0.100000,-0.100000)"
fill="#000000" stroke="none">
<path d="M1965 2199 c-163 -24 -254 -42 -425 -84 -74 -18 -153 -36 -175 -40
-21 -4 -52 -14 -69 -22 -27 -14 -30 -14 -50 10 -37 44 -81 63 -133 58 -20 -2
-16 -18 27 -103 79 -154 206 -494 235 -625 4 -23 12 -33 25 -33 26 0 43 35 35
71 -5 21 -3 29 7 29 7 0 58 7 113 15 55 8 174 19 265 24 260 15 351 43 320
101 -6 11 -14 20 -18 20 -4 0 -13 4 -20 8 -10 7 3 39 52 133 35 68 83 172 106
231 l42 107 -23 43 c-29 52 -77 78 -139 77 -25 -1 -103 -9 -175 -20z m118
-118 l25 -10 -28 -94 c-16 -51 -40 -147 -55 -213 -14 -65 -30 -122 -33 -125
-4 -3 -61 -11 -127 -18 -94 -9 -286 -42 -426 -73 -7 -2 -20 37 -34 103 -13 58
-41 160 -64 228 -22 68 -41 124 -41 126 0 1 37 5 83 9 45 3 159 17 252 31 310
45 404 53 448 36z"/>
<path d="M2330 1194 c-85 -13 -219 -38 -298 -54 l-143 -29 -30 34 c-33 38 -77
52 -109 35 -15 -8 -18 -15 -11 -28 38 -72 77 -224 122 -481 32 -179 56 -292
66 -303 20 -23 41 -12 51 26 8 29 11 31 58 34 27 1 128 11 224 22 96 10 194
16 217 13 80 -11 192 33 177 70 -10 28 -68 57 -113 57 -22 0 -41 2 -41 3 0 2
52 110 115 240 63 131 115 243 115 250 0 6 -9 31 -19 54 -40 88 -112 99 -381
57z m227 -118 c3 -3 -17 -67 -45 -143 -61 -169 -102 -298 -102 -322 0 -21 -35
-31 -114 -31 -55 0 -189 -29 -248 -54 -21 -9 -41 -16 -46 -16 -5 0 -14 46 -21
103 -7 56 -23 171 -37 255 -14 85 -24 155 -22 157 4 4 306 42 433 54 87 9 192
7 202 -3z"/>
<path d="M1335 1145 c-124 -35 -299 -93 -364 -121 -29 -13 -68 -24 -85 -24
-28 0 -44 8 -125 62 -36 25 -78 23 -86 -2 -5 -15 8 -43 43 -98 118 -184 196
-399 217 -597 5 -46 14 -74 29 -92 30 -35 56 -23 56 27 0 77 13 82 347 135
160 25 186 33 203 65 18 34 -3 66 -49 74 -25 4 -41 12 -41 20 0 8 15 54 34
102 34 89 79 258 91 346 7 43 5 49 -28 84 -31 34 -39 38 -93 41 -40 2 -88 -5
-149 -22z m115 -120 c10 -13 8 -37 -13 -133 -15 -64 -31 -162 -38 -217 -6 -55
-13 -101 -14 -103 -1 -1 -48 -14 -104 -27 -57 -14 -136 -39 -177 -56 -41 -17
-77 -29 -80 -27 -2 3 -11 42 -19 88 -18 101 -37 179 -71 288 -15 45 -25 84
-23 86 10 9 255 67 358 86 63 11 117 22 119 25 11 11 50 4 62 -10z"/>
</g>
</svg>
