<?xml version="1.0" standalone="no"?>
<!DOCTYPE svg PUBLIC "-//W3C//DTD SVG 20010904//EN"
 "http://www.w3.org/TR/2001/REC-SVG-20010904/DTD/svg10.dtd">
<svg version="1.0" xmlns="http://www.w3.org/2000/svg"
 width="340.000000pt" height="340.000000pt" viewBox="0 0 340.000000 340.000000"
 preserveAspectRatio="xMidYMid meet">
<metadata>
Created by potrace 1.15, written by Peter Selinger 2001-2017
</metadata>
<g transform="translate(0.000000,340.000000) scale(0.100000,-0.100000)"
fill="#000000" stroke="none">
<path d="M1733 2252 c-27 -17 -26 -65 2 -106 l27 -39 -79 -116 c-43 -64 -135
-196 -205 -294 -71 -98 -128 -184 -128 -191 0 -7 -6 -21 -14 -31 -14 -19 -15
-19 -70 9 -50 25 -59 27 -86 16 -54 -22 -55 -32 -11 -109 112 -190 166 -415
171 -705 1 -93 7 -137 36 -249 18 -74 31 -82 63 -41 17 22 21 41 21 108 0 224
-39 559 -89 769 -20 82 -25 120 -17 123 56 20 405 96 641 139 77 14 169 32
205 40 84 19 248 19 328 0 85 -20 212 -79 212 -99 0 -33 -32 -260 -56 -396
-46 -261 -142 -642 -168 -669 -14 -14 -21 -13 -71 12 -67 33 -99 34 -119 5
-23 -33 -21 -41 30 -97 45 -50 100 -89 155 -110 52 -19 132 68 145 159 3 25
23 119 44 210 42 183 118 542 151 719 29 155 20 208 -49 300 -30 40 -107 78
-177 86 -135 17 -704 -75 -1053 -171 -69 -19 -130 -33 -136 -30 -6 2 19 33 55
67 113 111 241 270 357 446 58 89 60 94 51 133 -12 51 -26 74 -58 93 -33 18
-92 29 -108 19z"/>
<path d="M915 1886 c-111 -46 -245 -114 -245 -125 0 -14 29 -41 43 -41 7 0 46
9 87 20 41 11 101 22 132 26 l57 6 -4 -33 c-3 -19 -10 -90 -16 -159 -5 -69
-15 -145 -20 -170 -6 -25 -11 -80 -12 -123 l-2 -77 -47 -16 c-26 -8 -63 -26
-83 -40 -20 -13 -37 -24 -39 -24 -9 0 -25 104 -31 198 -7 128 -34 233 -81 323
-39 73 -70 103 -101 97 -28 -5 -22 -61 26 -243 40 -153 82 -389 96 -542 8 -83
22 -109 52 -99 22 7 24 15 38 132 l6 51 81 12 c89 12 165 43 217 88 29 24 33
34 27 56 -5 20 -15 29 -37 34 -19 4 -28 10 -25 19 23 59 96 473 96 542 0 57
-22 97 -61 111 -48 16 -67 14 -154 -23z"/>
<path d="M2051 1334 c-74 -19 -182 -48 -239 -65 -91 -28 -108 -30 -147 -20
-70 18 -85 15 -85 -15 0 -14 11 -44 24 -67 24 -42 108 -261 142 -371 10 -32
24 -61 32 -63 17 -7 50 24 54 51 2 16 11 22 38 23 101 7 224 28 293 50 73 23
77 25 77 53 0 17 -7 33 -17 39 -17 9 -17 11 0 38 40 62 96 191 108 250 12 58
11 64 -7 84 -24 27 -74 49 -111 49 -15 -1 -88 -16 -162 -36z m126 -110 c3 -10
1 -31 -7 -48 -22 -54 -58 -160 -64 -187 -5 -24 -11 -27 -68 -32 -35 -3 -94
-16 -132 -27 -85 -27 -89 -23 -106 81 -7 39 -25 94 -41 124 -16 30 -28 55 -27
56 12 2 398 47 416 48 13 0 25 -6 29 -15z"/>
</g>
</svg>
