<?xml version="1.0" standalone="no"?>
<!DOCTYPE svg PUBLIC "-//W3C//DTD SVG 20010904//EN"
 "http://www.w3.org/TR/2001/REC-SVG-20010904/DTD/svg10.dtd">
<svg version="1.0" xmlns="http://www.w3.org/2000/svg"
 width="340.000000pt" height="340.000000pt" viewBox="0 0 340.000000 340.000000"
 preserveAspectRatio="xMidYMid meet">
<metadata>
Created by potrace 1.15, written by Peter Selinger 2001-2017
</metadata>
<g transform="translate(0.000000,340.000000) scale(0.100000,-0.100000)"
fill="#000000" stroke="none">
<path d="M1681 2285 c-28 -13 -32 -18 -26 -38 4 -12 10 -43 12 -69 4 -42 -2
-61 -70 -200 -82 -166 -176 -329 -277 -478 -55 -80 -65 -102 -65 -138 0 -75
54 -91 175 -52 77 25 170 40 170 28 0 -4 -66 -113 -147 -241 -81 -127 -149
-242 -151 -255 -7 -34 17 -81 45 -88 14 -4 42 -2 63 5 61 18 503 354 515 392
8 24 -1 39 -24 39 -29 0 -195 -85 -291 -150 -49 -33 -90 -58 -90 -55 0 11 33
70 120 215 126 209 286 508 300 558 17 65 -1 109 -54 133 -35 15 -44 16 -61 5
-16 -11 -20 -25 -21 -72 0 -60 -34 -156 -104 -293 l-29 -58 -118 -10 c-65 -6
-119 -10 -120 -9 0 0 52 93 116 206 182 318 263 472 268 512 7 48 -10 90 -46
111 -35 20 -46 21 -90 2z"/>
<path d="M2272 2284 c-29 -20 -28 -41 3 -86 14 -20 25 -51 25 -68 0 -66 -136
-388 -245 -580 -78 -137 -84 -154 -56 -169 25 -14 41 3 139 136 56 77 73 94
106 103 85 25 187 40 303 47 l122 6 12 -29 c27 -68 23 -164 -22 -479 -33 -227
-84 -476 -150 -729 l-10 -39 -54 6 c-29 3 -67 12 -83 21 -37 19 -83 21 -100 4
-52 -52 92 -184 236 -217 40 -8 42 -7 67 25 66 86 81 142 144 514 117 689 138
871 107 943 -18 44 -78 95 -122 103 -90 17 -272 -24 -383 -86 -30 -17 -56 -28
-58 -26 -6 6 56 136 102 216 54 94 75 164 75 255 0 78 -13 105 -60 130 -37 19
-70 19 -98 -1z"/>
<path d="M1149 2070 c-15 -4 -108 -49 -208 -100 -156 -80 -179 -95 -171 -110
15 -29 43 -29 128 0 83 29 230 65 237 58 2 -2 -7 -55 -21 -118 -14 -63 -30
-146 -36 -185 -21 -144 -11 -130 -123 -180 -55 -25 -100 -45 -101 -45 -1 0 -4
35 -7 78 -11 158 -80 295 -189 380 -49 38 -59 42 -78 32 -20 -11 -20 -13 -5
-33 56 -77 150 -334 186 -512 24 -118 31 -135 60 -135 23 0 32 15 39 65 5 39
6 40 55 48 112 17 156 29 222 61 39 19 74 39 77 45 4 6 -2 28 -14 50 -26 52
-26 56 11 197 17 65 42 168 54 228 24 109 24 110 4 137 -26 36 -76 53 -120 39z"/>
<path d="M2030 1261 c0 -28 22 -71 50 -96 12 -11 50 -60 85 -110 34 -49 76
-106 92 -126 28 -35 30 -36 56 -23 52 28 58 64 23 139 -48 104 -171 205 -278
231 -24 5 -28 3 -28 -15z"/>
<path d="M1760 769 c-292 -203 -490 -360 -490 -388 0 -17 28 -42 62 -56 l38
-15 243 209 c186 159 253 223 285 271 23 34 42 66 42 71 0 24 -47 0 -180 -92z"/>
</g>
</svg>
