<?xml version="1.0" standalone="no"?>
<!DOCTYPE svg PUBLIC "-//W3C//DTD SVG 20010904//EN"
 "http://www.w3.org/TR/2001/REC-SVG-20010904/DTD/svg10.dtd">
<svg version="1.0" xmlns="http://www.w3.org/2000/svg"
 width="340.000000pt" height="340.000000pt" viewBox="0 0 340.000000 340.000000"
 preserveAspectRatio="xMidYMid meet">
<metadata>
Created by potrace 1.15, written by Peter Selinger 2001-2017
</metadata>
<g transform="translate(0.000000,340.000000) scale(0.100000,-0.100000)"
fill="#000000" stroke="none">
<path d="M1496 2471 c-17 -19 -17 -20 3 -40 12 -12 25 -21 30 -21 5 0 38 -17
72 -39 155 -93 196 -104 220 -60 13 25 -2 73 -33 106 -26 27 -126 59 -214 68
-52 5 -63 3 -78 -14z"/>
<path d="M2175 2289 c-234 -41 -490 -92 -719 -145 l-239 -56 -26 21 c-42 34
-91 53 -120 46 -47 -12 -51 -22 -26 -68 13 -23 33 -71 44 -106 l21 -63 -26
-132 c-84 -436 -233 -850 -395 -1098 -38 -59 -99 -164 -136 -233 -52 -102 -63
-129 -52 -136 8 -5 18 -9 23 -9 34 0 211 247 325 455 72 131 146 302 192 443
30 92 36 102 54 97 110 -32 118 -31 385 39 96 25 181 46 188 46 10 0 12 -25
10 -106 l-3 -107 -120 -32 c-172 -45 -305 -87 -305 -96 0 -17 33 -39 58 -39
32 0 312 47 336 56 14 5 16 -8 16 -130 l0 -135 -52 -16 c-29 -8 -90 -22 -136
-31 -81 -15 -85 -15 -106 4 -11 11 -31 25 -43 31 -27 14 -83 14 -83 1 0 -6 15
-52 33 -103 19 -51 54 -155 79 -232 25 -77 60 -173 78 -213 30 -66 36 -73 59
-70 20 2 29 11 37 38 11 35 13 35 80 41 38 4 177 12 309 18 132 7 258 16 280
22 53 14 111 57 96 72 -18 18 -13 33 38 111 54 83 105 197 123 277 12 51 12
52 -20 80 -17 16 -56 36 -87 44 -52 15 -63 15 -193 -4 -258 -38 -364 -52 -368
-48 -2 2 1 64 8 139 l11 135 141 17 c78 9 206 21 286 27 114 10 151 16 173 31
15 11 27 25 27 32 0 21 -35 46 -64 46 -15 0 -36 4 -46 10 -17 9 -15 17 28 118
l46 108 186 12 c263 18 268 18 275 53 18 79 -30 96 -200 74 -64 -8 -136 -15
-161 -15 l-45 0 16 31 c40 76 25 179 -32 216 -49 32 -361 11 -527 -37 -35 -10
-67 -15 -73 -11 -5 3 -9 33 -9 66 -1 114 -42 176 -124 190 -76 13 -107 -51
-51 -103 31 -30 47 -104 35 -167 -6 -33 -7 -34 -98 -55 -50 -12 -136 -31 -191
-41 -109 -22 -125 -30 -109 -57 18 -28 53 -29 209 -5 217 33 198 39 189 -59
-3 -46 -8 -84 -9 -86 -2 -2 -66 -19 -143 -37 -77 -19 -203 -52 -280 -75 -77
-22 -145 -40 -151 -40 -15 0 -14 42 3 65 37 55 100 309 116 472 7 65 13 123
15 128 6 22 533 111 800 135 334 30 345 33 345 93 0 41 -8 53 -43 66 -34 13
-25 14 -162 -10z m83 -541 c7 -7 12 -35 12 -64 0 -53 -21 -93 -59 -114 -23
-12 -390 -54 -399 -46 -9 10 -5 157 5 167 19 19 137 41 248 46 66 3 127 9 135
14 21 12 44 11 58 -3z m-54 -284 c19 -7 21 -46 4 -77 -6 -12 -14 -49 -17 -82
l-6 -60 -99 -8 c-54 -4 -139 -13 -190 -21 -50 -7 -93 -11 -96 -9 -9 8 -3 204
6 213 12 12 127 29 256 39 57 5 108 9 115 10 6 0 18 -2 27 -5z m66 -721 c0 -3
-14 -40 -30 -82 -17 -42 -45 -119 -63 -171 l-32 -95 -120 -2 c-145 -3 -288
-18 -414 -44 -52 -11 -95 -18 -97 -17 -1 2 -14 48 -28 103 -14 55 -34 130 -45
167 l-20 68 22 4 c12 3 148 20 302 39 258 32 525 47 525 30z"/>
</g>
</svg>
