<?xml version="1.0" standalone="no"?>
<!DOCTYPE svg PUBLIC "-//W3C//DTD SVG 20010904//EN"
 "http://www.w3.org/TR/2001/REC-SVG-20010904/DTD/svg10.dtd">
<svg version="1.0" xmlns="http://www.w3.org/2000/svg"
 width="340.000000pt" height="340.000000pt" viewBox="0 0 340.000000 340.000000"
 preserveAspectRatio="xMidYMid meet">
<metadata>
Created by potrace 1.15, written by Peter Selinger 2001-2017
</metadata>
<g transform="translate(0.000000,340.000000) scale(0.100000,-0.100000)"
fill="#000000" stroke="none">
<path d="M2210 2394 c-25 -8 -140 -39 -256 -69 -117 -30 -225 -60 -240 -65
-40 -16 -160 -40 -195 -40 -34 0 -37 -12 -9 -40 25 -25 112 -27 249 -5 59 10
98 12 104 6 18 -18 2 -163 -31 -268 l-32 -102 -53 -15 c-48 -15 -200 -47 -289
-61 -28 -4 -38 -11 -38 -25 0 -41 90 -45 307 -14 l41 6 -18 -79 c-15 -62 -141
-407 -154 -420 -1 -2 -74 -17 -162 -34 -87 -17 -238 -49 -334 -72 -96 -22
-195 -41 -219 -41 -30 -1 -47 -6 -54 -18 -6 -9 -8 -20 -5 -23 4 -4 44 -11 90
-17 106 -13 204 -1 412 52 194 49 467 95 681 115 227 22 609 30 715 15 167
-23 163 -23 193 0 27 21 27 22 10 51 -39 67 -141 107 -241 95 -317 -35 -397
-44 -400 -41 -4 4 165 371 206 446 l36 66 -23 37 c-52 83 -132 93 -366 46
-200 -41 -188 -43 -157 33 20 49 26 80 26 147 1 47 -2 101 -7 121 l-7 36 57 7
c116 13 283 88 283 126 0 25 -34 60 -57 59 -10 -1 -38 -7 -63 -15z m125 -626
c3 -2 -18 -54 -45 -115 -27 -61 -69 -171 -94 -244 l-44 -133 -163 -22 c-90
-13 -188 -26 -216 -29 -36 -5 -53 -4 -53 4 0 11 136 369 172 453 22 52 29 55
193 77 140 19 237 23 250 9z"/>
<path d="M1020 2011 c-30 -16 -108 -53 -173 -82 -64 -29 -116 -58 -114 -64 2
-5 15 -17 29 -24 24 -14 35 -12 129 17 57 18 124 35 148 38 l43 7 -5 -29 c-3
-16 -8 -51 -12 -79 -11 -100 -57 -383 -64 -393 -3 -5 -49 -29 -101 -52 -52
-23 -100 -43 -106 -46 -7 -3 -18 51 -33 163 -12 92 -28 195 -37 228 -18 71
-64 139 -123 179 -36 25 -45 27 -66 18 -30 -14 -32 -38 -4 -68 46 -49 135
-373 160 -582 7 -56 18 -110 25 -120 19 -26 48 -4 52 41 4 48 19 57 104 68
154 19 284 66 294 105 9 33 -1 52 -33 66 -15 7 -29 13 -31 14 -2 1 10 48 26
105 63 220 93 384 81 436 -18 82 -95 104 -189 54z"/>
<path d="M2105 924 c-71 -13 -211 -45 -311 -69 -99 -25 -188 -45 -198 -45 -9
0 -34 11 -54 25 -43 30 -83 32 -106 7 -15 -18 -13 -25 33 -123 56 -116 93
-234 116 -372 23 -129 51 -155 105 -96 25 26 35 30 77 28 83 -3 497 22 521 32
24 10 43 46 34 67 -3 8 -25 22 -49 33 l-43 18 33 44 c74 97 167 313 167 388 0
23 -8 33 -45 54 -63 37 -125 39 -280 9z m159 -151 c-1 -18 -28 -84 -59 -147
-31 -63 -62 -134 -69 -158 l-13 -43 -124 -12 c-68 -6 -164 -19 -212 -29 -48
-9 -89 -15 -92 -13 -2 2 -11 45 -19 94 -9 50 -27 131 -40 180 -13 50 -23 91
-22 92 1 1 58 11 127 23 176 28 372 48 454 47 l70 -2 -1 -32z"/>
</g>
</svg>
