<?xml version="1.0" standalone="no"?>
<!DOCTYPE svg PUBLIC "-//W3C//DTD SVG 20010904//EN"
 "http://www.w3.org/TR/2001/REC-SVG-20010904/DTD/svg10.dtd">
<svg version="1.0" xmlns="http://www.w3.org/2000/svg"
 width="340.000000pt" height="340.000000pt" viewBox="0 0 340.000000 340.000000"
 preserveAspectRatio="xMidYMid meet">
<metadata>
Created by potrace 1.15, written by Peter Selinger 2001-2017
</metadata>
<g transform="translate(0.000000,340.000000) scale(0.100000,-0.100000)"
fill="#000000" stroke="none">
<path d="M1658 2459 c-24 -13 -23 -23 7 -67 14 -20 25 -47 25 -60 0 -14 -74
-126 -187 -284 -276 -384 -260 -358 -220 -358 50 0 465 439 519 550 15 30 24
69 26 117 l4 72 -33 20 c-37 23 -111 28 -141 10z"/>
<path d="M1930 2146 c-177 -69 -240 -99 -240 -118 0 -28 21 -31 88 -14 58 16
182 22 182 10 0 -3 -13 -23 -29 -43 -56 -71 -154 -228 -202 -323 -27 -54 -59
-104 -71 -112 -13 -8 -53 -20 -90 -26 -80 -12 -198 -48 -198 -59 0 -17 38 -41
66 -41 16 0 54 7 84 15 30 8 83 15 117 15 l61 0 9 -67 c11 -90 7 -357 -5 -380
-7 -13 -35 -23 -96 -36 -125 -26 -129 -23 -141 123 -7 86 -43 201 -81 263 -40
65 -115 137 -141 137 -30 0 -40 -25 -20 -48 38 -44 107 -223 138 -362 26 -118
25 -144 -6 -158 -22 -10 -354 -78 -552 -112 -40 -7 -73 -16 -73 -20 0 -17 42
-42 78 -47 50 -7 263 20 455 57 82 16 162 27 177 23 21 -4 31 0 39 14 7 14 29
24 67 32 55 10 124 15 124 8 0 -14 -43 -123 -68 -172 -65 -130 -186 -257 -305
-320 -75 -40 -115 -72 -133 -106 -8 -17 -14 -33 -11 -35 8 -9 158 36 214 65
160 80 327 280 399 477 l26 73 106 -137 c198 -257 349 -424 425 -470 74 -44
134 -59 275 -66 98 -5 124 -3 162 12 25 10 45 24 45 32 0 22 -103 70 -165 76
-71 7 -267 101 -370 177 -41 31 -155 139 -252 240 -156 163 -175 186 -155 190
134 33 668 45 834 19 72 -11 86 -11 113 3 33 17 41 57 18 88 -27 35 -359 66
-530 50 -49 -5 -88 -7 -88 -5 0 2 23 42 52 90 28 48 82 147 120 220 81 159 85
187 34 238 -33 33 -37 34 -107 34 -112 0 -282 -18 -408 -43 -62 -13 -115 -19
-117 -15 -3 5 13 25 36 46 85 76 310 405 310 454 0 24 -18 59 -39 75 -26 20
-71 14 -161 -21z m354 -622 c11 -4 3 -28 -34 -107 -26 -56 -67 -158 -90 -227
-23 -69 -48 -130 -56 -136 -8 -6 -56 -17 -106 -23 -51 -7 -107 -15 -125 -18
l-32 -5 2 245 2 246 80 10 c44 6 112 15 150 20 67 9 179 6 209 -5z"/>
<path d="M940 1955 c-25 -13 -96 -45 -157 -71 -62 -27 -113 -52 -113 -56 0 -5
11 -13 24 -20 19 -8 44 -7 106 6 44 9 105 16 135 16 67 0 65 14 28 -209 -22
-139 -29 -165 -45 -169 -11 -2 -51 -20 -89 -38 -39 -19 -72 -34 -74 -34 -7 0
-25 106 -35 197 -11 110 -42 181 -107 245 -43 41 -45 42 -59 24 -18 -25 -18
-38 1 -83 8 -19 29 -96 45 -170 56 -252 105 -413 125 -413 20 0 35 32 35 73 0
35 1 35 53 42 143 18 297 72 297 104 0 23 -28 61 -46 61 -19 0 -19 1 17 137
20 77 32 154 36 223 l6 106 -32 27 c-41 34 -89 35 -151 2z"/>
</g>
</svg>
