<?xml version="1.0" standalone="no"?>
<!DOCTYPE svg PUBLIC "-//W3C//DTD SVG 20010904//EN"
 "http://www.w3.org/TR/2001/REC-SVG-20010904/DTD/svg10.dtd">
<svg version="1.0" xmlns="http://www.w3.org/2000/svg"
 width="340.000000pt" height="340.000000pt" viewBox="0 0 340.000000 340.000000"
 preserveAspectRatio="xMidYMid meet">
<metadata>
Created by potrace 1.15, written by Peter Selinger 2001-2017
</metadata>
<g transform="translate(0.000000,340.000000) scale(0.100000,-0.100000)"
fill="#000000" stroke="none">
<path d="M1588 2419 c-22 -13 -22 -24 2 -74 11 -22 19 -52 20 -68 0 -52 -188
-399 -342 -630 -44 -67 -126 -182 -180 -255 -93 -124 -127 -185 -109 -196 10
-7 105 69 174 140 32 32 107 129 165 214 l107 155 6 -70 c17 -184 4 -662 -26
-1020 -17 -198 -27 -268 -47 -333 -16 -54 0 -89 50 -109 l33 -13 25 54 c39 85
53 175 53 341 0 83 3 200 6 260 3 61 10 259 15 440 9 344 4 429 -33 517 -15
35 -14 38 10 70 84 113 253 425 253 468 0 39 -30 88 -65 104 -37 18 -91 20
-117 5z"/>
<path d="M1901 2227 c-18 -18 -14 -24 58 -71 93 -62 152 -87 222 -93 l59 -6 0
32 c0 18 -7 45 -15 61 -26 51 -59 61 -272 83 -22 3 -46 0 -52 -6z"/>
<path d="M975 2039 c-76 -31 -220 -98 -271 -126 -44 -25 -45 -26 -27 -45 20
-23 27 -22 183 16 58 15 116 29 129 32 24 5 24 4 17 -51 -3 -31 -16 -84 -28
-118 -12 -34 -24 -95 -27 -136 l-6 -74 -79 -44 c-43 -23 -81 -43 -85 -43 -3 0
-12 24 -19 53 -20 85 -78 192 -144 262 -84 90 -129 83 -79 -11 11 -20 54 -141
96 -269 63 -192 81 -234 98 -239 37 -9 57 10 57 59 0 54 10 61 110 75 106 15
220 71 220 109 0 28 -30 61 -56 61 -13 0 -24 3 -24 7 0 4 18 50 40 103 44 108
90 259 90 296 0 35 -29 75 -67 90 -43 18 -68 17 -128 -7z"/>
<path d="M2171 1959 c-195 -48 -388 -93 -430 -99 -85 -12 -97 -18 -77 -45 15
-21 24 -22 224 -10 l142 8 2 -64 c3 -97 -3 -183 -13 -189 -4 -3 -71 -19 -149
-35 -116 -24 -140 -32 -140 -47 0 -10 11 -25 25 -34 23 -15 33 -15 129 0 58 9
116 16 130 16 l26 0 0 -148 0 -148 -155 -34 c-85 -18 -155 -37 -155 -40 0 -4
11 -17 25 -30 24 -22 26 -22 117 -10 51 7 111 11 133 9 l40 -4 3 -100 c1 -55
-1 -125 -5 -155 l-8 -54 -80 -13 c-100 -16 -327 -61 -378 -74 -32 -9 -36 -12
-27 -29 5 -10 18 -21 28 -24 21 -7 455 36 612 60 84 13 146 15 315 10 116 -4
231 -9 257 -12 38 -5 50 -2 67 15 27 27 27 53 -3 88 l-24 28 -244 0 c-154 0
-265 -5 -303 -13 -88 -18 -91 -14 -87 156 2 75 5 138 6 139 1 1 32 7 69 13 94
15 227 58 234 76 3 8 -5 26 -18 40 -27 29 -52 29 -204 0 -44 -8 -82 -12 -85
-8 -3 4 -4 68 -2 144 l4 136 66 11 c70 12 216 55 242 71 19 12 4 39 -32 59
-23 13 -40 12 -149 -4 -68 -11 -125 -18 -127 -17 -1 1 -4 60 -6 131 l-3 129
61 12 c169 32 382 83 388 93 25 40 -6 88 -55 86 -18 -1 -191 -41 -386 -90z"/>
</g>
</svg>
