<?xml version="1.0" standalone="no"?>
<!DOCTYPE svg PUBLIC "-//W3C//DTD SVG 20010904//EN"
 "http://www.w3.org/TR/2001/REC-SVG-20010904/DTD/svg10.dtd">
<svg version="1.0" xmlns="http://www.w3.org/2000/svg"
 width="340.000000pt" height="340.000000pt" viewBox="0 0 340.000000 340.000000"
 preserveAspectRatio="xMidYMid meet">
<metadata>
Created by potrace 1.15, written by Peter Selinger 2001-2017
</metadata>
<g transform="translate(0.000000,340.000000) scale(0.100000,-0.100000)"
fill="#000000" stroke="none">
<path d="M2210 2309 c-172 -18 -581 -107 -606 -132 -12 -11 15 -34 46 -41 17
-3 65 1 108 9 158 30 331 47 492 48 140 2 170 -1 197 -15 l32 -18 -39 -107
c-22 -60 -65 -186 -97 -280 l-58 -173 -64 0 c-101 0 -265 -28 -379 -66 -58
-19 -106 -33 -107 -32 -6 7 -65 321 -61 325 4 4 105 15 283 32 80 7 115 16
160 38 31 15 58 33 60 39 5 15 -57 44 -94 44 -26 0 -262 -58 -370 -91 -23 -7
-45 -10 -49 -7 -3 4 -12 40 -19 80 -21 122 -59 178 -145 217 -42 19 -100 28
-100 16 0 -16 33 -82 50 -100 11 -11 58 -146 110 -315 50 -162 97 -313 104
-335 15 -49 50 -61 65 -22 11 29 16 30 246 52 94 9 195 23 226 31 31 8 73 14
92 14 35 0 37 2 91 103 30 56 73 145 96 197 22 52 58 128 78 169 33 66 37 84
40 160 2 56 -2 95 -10 111 -28 52 -166 70 -378 49z"/>
<path d="M1210 2043 c-34 -13 -262 -108 -348 -145 -89 -39 -92 -41 -76 -59 24
-27 50 -24 239 22 92 22 169 38 172 36 6 -7 -65 -351 -85 -409 -17 -49 -17
-49 -107 -85 -49 -20 -99 -42 -110 -49 -11 -8 -22 -14 -26 -14 -3 0 -9 37 -12
83 -13 161 -69 321 -153 434 -41 55 -71 74 -84 53 -4 -7 10 -64 31 -129 50
-149 93 -323 123 -498 23 -134 37 -183 55 -183 19 0 30 29 38 100 l8 75 90 6
c102 7 166 22 243 55 47 21 52 26 52 54 0 24 -7 35 -31 48 -38 21 -35 40 21
162 52 113 81 225 83 324 l2 80 -34 23 c-33 22 -60 27 -91 16z"/>
<path d="M2490 1299 c-239 -27 -530 -79 -760 -136 -80 -19 -164 -37 -187 -38
-52 -4 -63 -10 -63 -36 0 -19 5 -19 78 -14 143 11 246 25 392 55 194 39 307
50 505 50 175 0 200 -5 215 -45 14 -36 -77 -375 -161 -603 -22 -58 -40 -107
-42 -108 -1 -1 -24 4 -52 11 -48 12 -50 14 -47 43 4 42 -17 46 -159 32 -199
-19 -458 -70 -562 -109 -31 -12 -37 0 -37 72 0 49 -24 234 -35 268 -5 14 8 17
89 23 172 13 538 101 550 133 9 23 -13 53 -39 53 -58 0 -407 -78 -557 -124
l-46 -14 -7 36 c-8 48 -49 137 -81 179 -34 45 -122 103 -156 103 -36 0 -35
-10 8 -67 74 -97 103 -175 139 -375 31 -169 72 -324 92 -344 8 -8 30 -14 49
-14 36 0 295 36 542 76 84 13 157 24 162 24 6 0 10 -19 10 -41 0 -49 32 -106
67 -120 39 -15 106 -10 129 9 12 9 29 31 37 47 19 38 141 417 202 628 44 150
46 161 35 213 -20 94 -91 146 -195 143 -22 -1 -74 -5 -115 -10z"/>
</g>
</svg>
