<?xml version="1.0" standalone="no"?>
<!DOCTYPE svg PUBLIC "-//W3C//DTD SVG 20010904//EN"
 "http://www.w3.org/TR/2001/REC-SVG-20010904/DTD/svg10.dtd">
<svg version="1.0" xmlns="http://www.w3.org/2000/svg"
 width="340.000000pt" height="340.000000pt" viewBox="0 0 340.000000 340.000000"
 preserveAspectRatio="xMidYMid meet">
<metadata>
Created by potrace 1.15, written by Peter Selinger 2001-2017
</metadata>
<g transform="translate(0.000000,340.000000) scale(0.100000,-0.100000)"
fill="#000000" stroke="none">
<path d="M2110 2467 c-35 -17 -36 -48 -4 -103 25 -43 29 -61 36 -183 14 -251
21 -1441 9 -1699 -9 -206 -9 -248 3 -271 22 -43 41 -54 65 -41 47 25 50 46 44
348 l-6 282 276 0 c266 0 278 1 298 21 31 31 21 60 -31 87 -43 22 -53 23 -205
19 -104 -3 -187 -10 -237 -22 -111 -26 -108 -31 -108 181 l0 174 39 0 c91 0
344 49 355 69 2 3 6 18 10 33 9 37 -15 58 -67 58 -51 0 -184 -31 -255 -59 -29
-12 -57 -21 -62 -21 -11 0 -14 332 -4 416 l6 51 166 6 c140 6 173 10 210 28
46 23 78 72 66 103 -14 35 -198 9 -312 -44 -36 -17 -81 -33 -101 -36 l-37 -6
8 94 c10 105 2 309 -15 412 -10 55 -17 73 -37 87 -35 24 -80 31 -110 16z"/>
<path d="M1592 2338 c-29 -32 -28 -59 5 -99 27 -32 28 -34 32 -207 3 -168 3
-175 -15 -166 -11 5 -49 9 -85 9 -61 0 -70 -3 -113 -37 -26 -20 -77 -47 -112
-60 -35 -12 -63 -27 -61 -32 2 -6 15 -19 30 -30 24 -18 31 -18 84 -7 142 29
190 43 225 66 21 14 40 25 43 25 3 0 5 -177 5 -392 l0 -393 -241 -99 c-132
-55 -242 -103 -245 -108 -3 -5 -3 -20 0 -34 9 -35 48 -47 110 -34 56 12 224
89 316 145 32 19 61 35 65 35 4 0 6 -146 4 -323 -3 -268 -2 -327 10 -341 20
-24 60 -16 83 15 19 25 19 41 11 505 -4 263 -5 650 0 859 14 659 14 617 -5
651 -19 35 -56 62 -96 70 -20 4 -33 0 -50 -18z"/>
<path d="M971 1916 c-114 -38 -261 -115 -261 -138 0 -36 38 -41 145 -19 55 10
119 22 143 26 l43 7 -6 -39 c-2 -21 -10 -74 -15 -118 -6 -44 -17 -109 -25
-145 -8 -36 -17 -85 -20 -110 l-5 -45 -78 -28 c-42 -15 -84 -30 -93 -33 -13
-5 -18 4 -23 43 -20 138 -79 282 -160 391 -35 47 -52 62 -71 62 -26 0 -35 -25
-16 -45 21 -23 211 -592 211 -632 0 -7 6 -13 14 -13 24 0 38 28 34 72 l-3 43
125 5 c111 5 131 8 183 33 49 25 57 32 57 57 0 33 -23 60 -52 60 -15 0 -19 5
-15 18 2 9 17 57 31 107 28 95 51 227 59 337 4 63 3 68 -23 93 -39 37 -89 40
-179 11z"/>
<path d="M1490 1424 c-25 -9 -87 -34 -138 -56 -71 -31 -94 -46 -98 -64 -8 -30
0 -40 34 -47 80 -16 244 33 305 90 32 31 34 44 10 66 -28 24 -64 28 -113 11z"/>
</g>
</svg>
