<?xml version="1.0" standalone="no"?>
<!DOCTYPE svg PUBLIC "-//W3C//DTD SVG 20010904//EN"
 "http://www.w3.org/TR/2001/REC-SVG-20010904/DTD/svg10.dtd">
<svg version="1.0" xmlns="http://www.w3.org/2000/svg"
 width="340.000000pt" height="340.000000pt" viewBox="0 0 340.000000 340.000000"
 preserveAspectRatio="xMidYMid meet">
<metadata>
Created by potrace 1.15, written by Peter Selinger 2001-2017
</metadata>
<g transform="translate(0.000000,340.000000) scale(0.100000,-0.100000)"
fill="#000000" stroke="none">
<path d="M1455 2589 c-15 -24 88 -106 161 -129 92 -28 122 -27 130 6 13 51
-29 98 -102 114 -78 18 -181 23 -189 9z"/>
<path d="M1815 2350 c-147 -39 -367 -127 -492 -196 -53 -29 -68 -33 -102 -28
-38 6 -41 5 -41 -17 0 -13 15 -67 34 -119 60 -167 70 -255 70 -605 1 -326 -13
-537 -41 -612 -21 -57 -14 -140 15 -181 22 -30 22 -30 60 -16 67 27 130 82
201 176 87 117 258 318 270 318 6 0 12 -9 16 -20 11 -35 63 -70 106 -70 l39 0
0 45 c0 71 -26 119 -99 186 -71 64 -123 94 -184 105 l-39 7 17 -34 c10 -19 33
-51 51 -72 19 -20 34 -46 34 -56 0 -11 -74 -92 -181 -199 l-182 -180 7 136 c3
76 9 217 12 314 l7 177 71 17 c91 22 217 66 311 109 69 31 74 36 81 72 4 21
28 92 54 158 85 215 155 456 144 499 -9 38 -64 84 -114 95 -54 13 -41 14 -125
-9z m84 -127 l20 -18 -35 -135 c-19 -74 -56 -198 -83 -275 l-47 -140 -175 -87
c-96 -47 -177 -87 -181 -87 -5 -1 -8 64 -8 143 l0 143 67 17 c115 28 243 97
243 131 0 8 -11 22 -25 31 -37 24 -82 13 -181 -45 -47 -28 -89 -51 -94 -51 -4
0 -11 21 -15 47 -4 26 -18 76 -30 110 -22 58 -23 63 -7 72 57 29 465 158 508
160 12 1 31 -7 43 -16z"/>
<path d="M2600 2282 c-58 -21 -156 -64 -217 -95 -62 -32 -120 -57 -128 -57 -9
0 -28 9 -43 19 -45 32 -68 35 -93 10 -24 -24 -24 -11 0 -249 15 -156 33 -953
30 -1365 -2 -331 -1 -363 15 -394 l19 -35 18 23 c10 13 23 40 29 61 22 83 32
471 28 1155 l-3 699 75 24 c106 33 333 92 338 88 7 -7 -80 -171 -123 -231 -73
-103 -135 -246 -135 -311 0 -12 33 -67 73 -121 40 -54 89 -125 109 -158 38
-66 91 -191 86 -205 -2 -4 -46 5 -98 21 -102 30 -176 37 -183 17 -10 -30 16
-66 66 -94 74 -41 170 -82 232 -98 49 -13 56 -12 84 5 33 20 61 66 61 99 0 25
-61 183 -100 260 -39 76 -113 164 -190 227 -68 55 -74 70 -40 108 10 11 88
127 174 259 172 262 181 286 133 341 -37 43 -91 43 -217 -3z"/>
<path d="M827 2137 c-75 -40 -142 -78 -148 -84 -14 -14 15 -43 44 -43 12 0 55
9 96 20 41 11 92 20 114 20 l40 0 -6 -37 c-3 -21 -13 -101 -22 -178 -24 -220
-18 -201 -78 -221 -29 -9 -64 -23 -78 -30 l-26 -13 -6 77 c-4 42 -13 104 -22
137 -32 125 -139 295 -177 280 -27 -11 -29 -33 -8 -75 11 -22 54 -178 95 -347
42 -169 79 -311 84 -316 14 -14 41 35 41 75 0 46 21 62 102 77 65 12 117 36
167 78 l34 29 -23 44 -22 44 21 85 c44 179 62 362 40 403 -12 22 -66 48 -101
48 -13 0 -85 -33 -161 -73z"/>
</g>
</svg>
