<?xml version="1.0" standalone="no"?>
<!DOCTYPE svg PUBLIC "-//W3C//DTD SVG 20010904//EN"
 "http://www.w3.org/TR/2001/REC-SVG-20010904/DTD/svg10.dtd">
<svg version="1.0" xmlns="http://www.w3.org/2000/svg"
 width="340.000000pt" height="340.000000pt" viewBox="0 0 340.000000 340.000000"
 preserveAspectRatio="xMidYMid meet">
<metadata>
Created by potrace 1.15, written by Peter Selinger 2001-2017
</metadata>
<g transform="translate(0.000000,340.000000) scale(0.100000,-0.100000)"
fill="#000000" stroke="none">
<path d="M1403 2470 c-44 -18 -26 -40 70 -85 50 -24 123 -54 160 -67 l68 -23
25 28 c13 15 24 34 24 41 0 28 -43 66 -98 86 -64 24 -213 36 -249 20z"/>
<path d="M1925 2269 c-302 -66 -717 -142 -790 -143 -33 -1 -66 -5 -72 -9 -25
-16 -13 -35 25 -41 152 -22 330 -13 492 25 47 11 113 23 148 26 52 5 62 3 62
-10 0 -31 -41 -110 -80 -155 -23 -26 -46 -66 -55 -95 -25 -85 -22 -89 59 -61
83 29 216 171 216 231 0 28 -22 74 -44 92 -27 23 -7 31 74 31 103 0 167 14
224 50 53 34 61 68 24 94 -30 21 -31 21 -283 -35z"/>
<path d="M1326 2004 c-10 -27 -7 -50 15 -108 29 -75 59 -106 102 -106 18 0 42
6 52 14 17 12 18 18 6 55 -15 51 -71 115 -122 142 -46 23 -45 23 -53 3z"/>
<path d="M2305 1844 c-422 -61 -764 -126 -1105 -210 -124 -31 -231 -59 -239
-64 -24 -13 26 -32 73 -28 22 3 135 22 251 42 l210 38 23 -29 c30 -37 55 -125
47 -163 -8 -36 -30 -48 -141 -80 l-82 -23 -33 24 c-39 27 -101 32 -124 8 -14
-14 -13 -20 9 -60 41 -73 66 -163 75 -270 7 -83 12 -104 30 -122 21 -21 22
-21 55 -3 31 16 34 22 40 79 3 34 1 110 -5 170 -6 60 -9 111 -6 113 6 6 138
34 163 34 21 0 22 -5 29 -182 7 -181 14 -218 38 -218 46 0 68 83 82 312 l8
116 62 11 c34 6 108 11 164 11 l102 0 -7 -47 c-7 -49 -34 -147 -52 -195 -10
-25 -13 -26 -71 -21 -71 7 -91 -5 -91 -51 0 -39 7 -48 50 -75 43 -26 117 -28
166 -5 20 10 45 34 59 58 30 52 65 198 71 296 6 89 -11 126 -70 154 -33 15
-49 16 -144 7 -59 -6 -136 -18 -171 -26 -35 -9 -65 -14 -66 -13 0 2 -7 36 -13
76 -7 40 -19 86 -27 102 -8 16 -15 33 -15 38 0 8 111 31 250 52 86 12 335 30
433 30 74 0 77 -1 67 -19 -14 -28 -13 -56 5 -71 28 -23 138 -35 199 -21 68 15
86 31 86 79 0 54 -18 73 -107 115 -95 44 -148 50 -278 31z"/>
<path d="M857 1694 c-18 -86 -73 -209 -151 -339 -52 -86 -47 -139 12 -137 17
0 40 5 50 11 19 10 89 144 147 281 35 81 39 166 11 228 -31 68 -49 56 -69 -44z"/>
<path d="M1994 830 c-184 -22 -389 -54 -548 -86 -144 -29 -185 -30 -236 -4
-41 21 -105 26 -129 11 -12 -8 -10 -15 12 -43 103 -126 166 -259 188 -401 7
-39 18 -84 26 -99 14 -29 67 -63 83 -53 5 3 15 32 22 65 l12 59 45 5 c63 8
332 24 533 32 144 6 170 9 184 25 21 24 11 48 -26 62 -33 13 -38 28 -14 48 45
37 174 270 174 314 0 9 -15 32 -34 51 -41 41 -59 42 -292 14z m110 -100 c14
-5 26 -16 26 -24 0 -19 -106 -225 -128 -250 -26 -29 -76 -46 -137 -46 -84 0
-238 -19 -357 -44 l-107 -22 -12 55 c-6 31 -26 99 -44 151 -20 56 -30 97 -24
101 11 7 337 44 552 63 81 7 150 16 154 19 9 10 48 8 77 -3z"/>
</g>
</svg>
