<?xml version="1.0" standalone="no"?>
<!DOCTYPE svg PUBLIC "-//W3C//DTD SVG 20010904//EN"
 "http://www.w3.org/TR/2001/REC-SVG-20010904/DTD/svg10.dtd">
<svg version="1.0" xmlns="http://www.w3.org/2000/svg"
 width="340.000000pt" height="340.000000pt" viewBox="0 0 340.000000 340.000000"
 preserveAspectRatio="xMidYMid meet">
<metadata>
Created by potrace 1.15, written by Peter Selinger 2001-2017
</metadata>
<g transform="translate(0.000000,340.000000) scale(0.100000,-0.100000)"
fill="#000000" stroke="none">
<path d="M2208 2329 c-25 -14 -22 -46 7 -80 13 -16 27 -44 30 -62 6 -32 -11
-154 -41 -293 l-15 -70 -97 -12 c-53 -7 -143 -23 -198 -35 l-101 -23 -7 91
c-8 121 -29 204 -76 302 l-40 82 -47 7 c-87 13 -105 -31 -49 -115 54 -80 102
-256 94 -347 l-3 -39 -74 -17 c-116 -27 -245 -40 -276 -28 -14 5 -39 10 -55
10 -29 0 -29 0 -28 60 1 69 -15 101 -62 120 -28 12 -46 10 -163 -19 -73 -18
-179 -51 -237 -73 -144 -55 -142 -55 -197 -19 -26 17 -52 30 -57 28 -23 -8
-16 -51 22 -141 57 -131 117 -329 147 -480 29 -142 35 -160 67 -177 27 -15 35
-2 43 73 l7 58 68 0 c129 0 321 55 328 94 3 13 -7 29 -28 46 -27 22 -31 30
-23 46 6 10 25 94 43 187 18 92 36 167 40 167 4 0 15 -11 23 -24 22 -33 95
-66 148 -66 24 0 74 9 111 19 38 11 92 23 121 26 l54 7 6 -74 c5 -76 37 -182
61 -207 13 -12 17 -6 32 45 13 46 15 80 11 156 -5 86 -4 99 11 107 55 28 352
76 352 56 0 -4 -12 -40 -26 -79 -30 -83 -54 -199 -54 -261 0 -24 -4 -46 -8
-49 -5 -3 -55 -14 -113 -26 -235 -48 -512 -126 -506 -144 2 -6 15 -17 30 -24
23 -11 51 -8 212 24 102 20 188 35 190 32 9 -9 24 -112 27 -188 l3 -75 -117
-40 c-65 -22 -118 -45 -118 -52 0 -33 75 -43 133 -18 20 8 54 15 76 15 l40 0
-5 -82 c-12 -208 -15 -227 -32 -232 -9 -2 -52 -12 -95 -21 -43 -9 -109 -27
-147 -40 -38 -13 -71 -21 -74 -17 -3 3 -6 35 -6 71 -1 145 -63 453 -111 546
-38 72 -93 115 -150 115 -18 0 -20 -4 -15 -26 4 -15 23 -59 41 -99 33 -69 94
-294 146 -538 l22 -107 51 -15 c63 -19 131 -19 209 0 34 8 149 25 255 38 198
25 242 39 250 79 4 21 -25 28 -145 35 l-102 6 5 41 c3 23 11 91 17 151 12 106
13 110 37 113 68 8 220 78 220 102 0 6 -9 19 -21 31 -24 24 -73 22 -152 -6
-47 -17 -49 -17 -67 1 -14 15 -20 43 -25 126 l-7 107 39 10 c21 6 96 18 167
27 138 18 222 13 331 -20 89 -27 88 -23 61 -161 -47 -237 -104 -421 -201 -649
l-16 -39 -32 31 c-40 38 -75 52 -104 41 -57 -21 5 -175 92 -229 l35 -22 46 27
c51 30 96 87 117 148 68 195 142 465 182 662 l33 160 -23 46 c-42 82 -116 129
-202 129 -28 0 -275 -28 -395 -45 -47 -7 -49 5 -10 78 16 29 52 116 82 194 40
107 58 143 74 149 12 4 127 8 256 9 129 1 245 5 258 9 35 12 45 40 28 75 -15
28 -19 29 -108 36 -89 7 -258 -5 -358 -25 -68 -13 -78 2 -51 79 23 67 51 214
51 268 0 98 -100 174 -172 132z m-1113 -622 c3 -12 -5 -112 -18 -221 l-22
-199 -82 -18 c-45 -10 -104 -27 -130 -39 -54 -24 -58 -21 -67 54 -10 72 -41
195 -78 304 -17 50 -29 94 -27 96 2 2 90 17 194 33 199 31 221 30 230 -10z"/>
</g>
</svg>
