<?xml version="1.0" standalone="no"?>
<!DOCTYPE svg PUBLIC "-//W3C//DTD SVG 20010904//EN"
 "http://www.w3.org/TR/2001/REC-SVG-20010904/DTD/svg10.dtd">
<svg version="1.0" xmlns="http://www.w3.org/2000/svg"
 width="340.000000pt" height="340.000000pt" viewBox="0 0 340.000000 340.000000"
 preserveAspectRatio="xMidYMid meet">
<metadata>
Created by potrace 1.15, written by Peter Selinger 2001-2017
</metadata>
<g transform="translate(0.000000,340.000000) scale(0.100000,-0.100000)"
fill="#000000" stroke="none">
<path d="M1870 2404 c-195 -59 -228 -63 -284 -40 -56 23 -77 -16 -32 -63 13
-15 40 -67 59 -116 19 -50 53 -128 76 -173 34 -67 46 -82 59 -77 20 8 82 20
172 34 36 6 93 25 129 43 l64 33 59 127 c32 69 62 143 65 162 12 78 -40 127
-134 125 -28 0 -125 -23 -233 -55z m216 -78 c3 -8 -6 -51 -20 -96 -14 -44 -26
-90 -26 -101 0 -22 0 -22 -82 -37 -47 -9 -98 -28 -160 -60 -5 -2 -8 5 -8 16 0
38 -40 149 -70 193 l-29 44 77 13 c42 7 127 18 187 26 61 8 114 14 118 15 4 1
10 -5 13 -13z"/>
<path d="M873 2036 c-119 -64 -175 -105 -171 -124 5 -25 56 -26 126 -3 34 12
79 21 100 21 l39 0 -9 -47 c-6 -27 -11 -111 -11 -189 l-1 -141 -71 -31 c-38
-18 -73 -32 -76 -32 -3 0 -9 24 -12 53 -13 123 -84 235 -184 290 -44 23 -52
25 -69 13 -19 -14 -18 -15 4 -43 36 -45 69 -125 137 -328 40 -117 69 -191 78
-193 26 -5 47 27 47 73 l0 43 68 7 c128 13 204 33 234 62 15 15 28 32 28 39 0
18 -49 54 -73 54 -15 0 -18 5 -14 23 35 163 48 241 55 333 l8 109 -27 28 c-43
43 -103 38 -206 -17z"/>
<path d="M2253 1879 l-182 -63 -33 18 c-41 22 -81 18 -86 -8 -2 -10 29 -104
69 -208 l74 -189 47 6 c26 3 89 7 140 8 76 2 103 7 148 29 81 38 97 52 81 71
-30 37 -29 70 5 119 41 61 57 108 58 176 1 48 -2 57 -25 74 -52 40 -98 34
-296 -33z m177 -91 c0 -7 -18 -56 -39 -108 l-38 -95 -82 -23 c-46 -13 -84 -22
-87 -20 -2 3 -8 29 -14 58 -6 29 -21 78 -35 108 -14 30 -23 57 -21 59 11 11
159 31 234 32 59 1 82 -2 82 -11z"/>
<path d="M1605 1837 c-44 -19 -122 -55 -172 -80 -101 -51 -119 -55 -164 -32
-28 15 -30 15 -40 -9 -9 -20 -7 -34 14 -78 13 -29 32 -83 41 -121 16 -69 82
-217 97 -217 4 0 11 5 15 11 12 20 88 49 129 49 53 1 117 31 142 66 47 70 100
219 112 318 7 62 6 71 -13 92 -34 38 -71 39 -161 1z m20 -136 c7 -12 -33 -159
-51 -187 -14 -21 -88 -66 -130 -78 -20 -6 -22 -2 -28 51 -3 32 -18 82 -31 111
-14 30 -25 55 -25 57 0 4 165 42 210 48 45 7 49 7 55 -2z"/>
<path d="M1785 1416 c-26 -19 -22 -69 9 -109 31 -40 44 -114 24 -138 -8 -10
-52 -22 -128 -33 -237 -35 -608 -117 -844 -185 -38 -11 -73 -18 -78 -15 -18
11 -58 -6 -58 -25 0 -31 61 -46 180 -45 97 1 116 4 250 48 80 26 201 61 270
78 143 34 402 79 410 72 9 -10 12 -324 5 -493 l-7 -163 -35 36 c-33 33 -54 42
-93 36 -26 -3 -29 -14 -19 -65 11 -59 39 -115 86 -173 32 -40 37 -42 87 -42
55 0 82 17 101 65 5 11 11 199 14 417 3 218 8 399 11 402 3 2 92 10 198 16
228 14 535 0 612 -27 59 -21 95 -12 116 28 15 30 15 32 -8 56 -13 14 -43 37
-68 51 -59 35 -114 35 -510 -6 -168 -17 -312 -31 -321 -32 -13 0 -17 14 -22
65 -8 80 -36 137 -84 170 -42 28 -70 31 -98 11z"/>
<path d="M1400 818 c-95 -130 -124 -178 -146 -246 -16 -53 -16 -56 2 -69 26
-20 81 -9 113 21 15 14 50 72 79 128 72 141 90 268 38 268 -6 0 -45 -46 -86
-102z"/>
<path d="M2160 871 c0 -25 18 -46 84 -96 39 -29 130 -108 201 -175 122 -113
132 -120 163 -116 44 7 62 22 62 56 0 84 -197 244 -380 307 -98 34 -130 40
-130 24z"/>
</g>
</svg>
