<?xml version="1.0" standalone="no"?>
<!DOCTYPE svg PUBLIC "-//W3C//DTD SVG 20010904//EN"
 "http://www.w3.org/TR/2001/REC-SVG-20010904/DTD/svg10.dtd">
<svg version="1.0" xmlns="http://www.w3.org/2000/svg"
 width="340.000000pt" height="340.000000pt" viewBox="0 0 340.000000 340.000000"
 preserveAspectRatio="xMidYMid meet">
<metadata>
Created by potrace 1.15, written by Peter Selinger 2001-2017
</metadata>
<g transform="translate(0.000000,340.000000) scale(0.100000,-0.100000)"
fill="#000000" stroke="none">
<path d="M2241 2356 c-7 -8 -9 -34 -5 -73 8 -78 -3 -112 -89 -253 -59 -99
-187 -346 -187 -362 0 -3 7 -9 16 -12 27 -10 69 21 109 81 21 32 60 86 86 119
l49 62 67 7 c79 8 320 57 378 77 46 15 68 55 45 82 -26 33 -191 11 -344 -45
-44 -16 -81 -28 -82 -26 -2 1 11 30 28 62 16 33 41 81 54 106 25 49 31 107 14
140 -23 41 -114 65 -139 35z"/>
<path d="M1560 2339 c-7 -11 -14 -46 -17 -77 -4 -41 -18 -80 -51 -142 -66
-122 -165 -289 -243 -407 -76 -116 -87 -141 -68 -154 8 -5 18 -9 22 -9 17 0
231 234 263 288 1 2 83 21 182 42 194 42 256 67 311 124 l34 35 -29 12 c-16 6
-55 12 -87 12 -51 0 -72 -7 -203 -72 -81 -39 -148 -70 -150 -68 -5 5 72 131
112 184 60 79 65 161 13 227 -26 33 -73 36 -89 5z"/>
<path d="M1005 1883 c-47 -10 -113 -38 -154 -65 -39 -26 -70 -40 -171 -80 -24
-9 -24 -10 -6 -24 27 -19 79 -18 215 6 63 11 116 18 118 16 4 -4 -11 -145 -27
-261 -5 -38 -13 -99 -16 -135 l-7 -65 -76 -26 c-42 -14 -83 -29 -92 -33 -14
-6 -17 6 -22 81 -4 48 -16 122 -28 163 -47 172 -161 314 -215 269 -23 -19 -16
-43 31 -113 50 -75 79 -159 89 -256 13 -124 63 -321 85 -334 16 -10 32 13 39
55 l8 44 94 7 c125 9 180 26 200 61 13 24 13 29 -3 56 -16 28 -16 33 17 173
56 234 78 358 72 394 -12 59 -69 85 -151 67z"/>
<path d="M2226 1804 c-10 -26 -8 -31 54 -103 68 -78 118 -104 191 -99 53 4 61
25 30 86 -25 49 -64 74 -165 107 -90 29 -102 30 -110 9z"/>
<path d="M1447 1724 c-20 -20 -4 -58 46 -111 61 -65 114 -92 180 -93 44 0 47
2 47 26 0 36 -28 93 -55 110 -56 37 -203 83 -218 68z"/>
<path d="M2360 1482 c-44 -5 -225 -41 -565 -112 -181 -38 -350 -71 -375 -75
-25 -3 -55 -12 -68 -19 -23 -12 -23 -13 15 -28 21 -9 50 -19 64 -22 22 -5 184
15 330 40 l37 6 11 -51 c32 -148 36 -206 35 -467 0 -148 -4 -282 -7 -296 -6
-23 -12 -26 -109 -37 -57 -7 -215 -28 -351 -47 -136 -19 -252 -32 -257 -29
-15 9 -96 -5 -117 -20 -16 -12 -14 -17 28 -59 l46 -46 114 0 c119 0 186 12
310 54 91 31 254 61 423 77 159 15 543 6 671 -16 148 -24 197 -27 225 -13 34
18 37 58 8 92 -20 22 -40 29 -143 47 -155 27 -429 30 -584 5 -58 -9 -108 -16
-111 -16 -4 0 -10 84 -13 188 -4 103 -12 292 -19 421 -11 227 -11 234 8 248
10 8 30 12 42 10 36 -7 165 10 253 33 86 22 189 64 189 77 0 16 -30 51 -47 55
-10 2 -29 2 -43 0z"/>
<path d="M2251 1246 c-9 -10 -11 -27 -6 -48 4 -18 7 -47 7 -63 0 -38 -45 -142
-77 -175 -62 -67 -161 -267 -141 -287 3 -3 30 7 61 22 38 18 69 44 97 79 22
28 44 52 49 54 5 2 23 -8 42 -22 34 -26 216 -116 234 -116 22 0 63 42 63 65 0
36 -66 86 -170 129 -52 22 -97 41 -99 43 -2 1 5 14 15 29 51 71 64 100 64 147
0 48 -16 97 -41 129 -20 25 -82 34 -98 14z"/>
<path d="M1520 1120 c-13 -13 -20 -33 -20 -59 0 -31 -14 -60 -79 -157 -44 -66
-109 -155 -145 -199 -78 -94 -85 -128 -27 -133 31 -3 42 5 151 115 l117 119
38 -44 c45 -52 87 -72 150 -72 49 0 51 3 33 62 -13 45 -66 96 -109 105 -52 10
-56 27 -21 96 41 79 42 128 6 162 -33 30 -67 32 -94 5z"/>
</g>
</svg>
