<?xml version="1.0" standalone="no"?>
<!DOCTYPE svg PUBLIC "-//W3C//DTD SVG 20010904//EN"
 "http://www.w3.org/TR/2001/REC-SVG-20010904/DTD/svg10.dtd">
<svg version="1.0" xmlns="http://www.w3.org/2000/svg"
 width="340.000000pt" height="340.000000pt" viewBox="0 0 340.000000 340.000000"
 preserveAspectRatio="xMidYMid meet">
<metadata>
Created by potrace 1.15, written by Peter Selinger 2001-2017
</metadata>
<g transform="translate(0.000000,340.000000) scale(0.100000,-0.100000)"
fill="#000000" stroke="none">
<path d="M2320 1939 c-41 -5 -174 -21 -295 -34 -317 -37 -776 -103 -875 -126
-119 -28 -238 -49 -282 -49 -23 0 -63 14 -112 40 -41 22 -83 40 -93 40 -43 -1
-41 -15 9 -95 90 -144 135 -250 183 -430 38 -141 114 -497 140 -649 6 -36 43
-86 64 -86 5 0 31 18 56 40 38 33 54 40 88 40 23 0 111 14 195 30 123 24 415
70 660 104 36 5 43 -5 72 -99 31 -100 109 -159 187 -139 33 8 38 15 80 114 55
128 102 265 243 706 119 369 128 416 91 484 -23 43 -51 64 -121 91 -65 24
-183 32 -290 18z m145 -124 c108 -23 125 -32 125 -69 0 -137 -92 -486 -205
-781 -30 -79 -105 -258 -111 -264 -2 -2 -39 34 -82 79 l-80 83 -103 -7 c-229
-16 -576 -73 -798 -132 -52 -13 -97 -21 -101 -17 -4 5 -26 96 -50 203 -24 107
-75 321 -115 476 l-71 281 136 12 c74 7 178 18 230 25 69 10 97 10 102 2 14
-21 20 -119 16 -224 -4 -83 -12 -124 -33 -182 -30 -83 -76 -170 -101 -191 -36
-30 -76 -150 -54 -164 19 -12 100 34 149 84 56 57 131 201 157 301 20 74 24
278 7 347 -17 69 -14 71 185 89 l72 7 0 -124 c0 -131 23 -368 39 -398 15 -28
86 -88 133 -113 37 -20 57 -23 153 -23 124 0 152 10 175 64 11 28 10 34 -5 51
-16 18 -30 20 -124 18 -110 -2 -133 3 -179 46 -43 38 -50 66 -56 216 -4 80 -9
175 -12 212 l-5 66 58 13 c56 11 244 24 403 27 41 1 107 -5 145 -13z"/>
</g>
</svg>
