<?xml version="1.0" standalone="no"?>
<!DOCTYPE svg PUBLIC "-//W3C//DTD SVG 20010904//EN"
 "http://www.w3.org/TR/2001/REC-SVG-20010904/DTD/svg10.dtd">
<svg version="1.0" xmlns="http://www.w3.org/2000/svg"
 width="340.000000pt" height="340.000000pt" viewBox="0 0 340.000000 340.000000"
 preserveAspectRatio="xMidYMid meet">
<metadata>
Created by potrace 1.15, written by Peter Selinger 2001-2017
</metadata>
<g transform="translate(0.000000,340.000000) scale(0.100000,-0.100000)"
fill="#000000" stroke="none">
<path d="M1970 2459 c-256 -35 -547 -93 -765 -154 -66 -18 -143 -36 -172 -40
-33 -4 -58 -14 -70 -27 l-18 -20 120 5 c83 3 151 13 220 31 232 61 467 90 725
91 195 0 195 0 248 -28 30 -16 73 -46 96 -67 l43 -39 12 -228 c18 -355 29
-701 37 -1154 l7 -415 -36 4 c-45 5 -62 -22 -53 -80 16 -100 76 -161 155 -156
69 4 70 18 42 358 -23 284 -32 633 -29 1145 l3 540 -29 49 c-96 164 -264 222
-536 185z"/>
<path d="M1499 2163 c-7 -20 -7 -39 1 -68 23 -80 29 -121 30 -187 l0 -67 -97
-30 c-54 -16 -118 -36 -143 -43 -28 -8 -45 -19 -45 -28 0 -12 15 -15 75 -15
41 0 105 4 143 8 l67 8 -1 -173 c-1 -95 -4 -200 -8 -233 l-6 -60 -105 -42
c-58 -24 -108 -43 -112 -43 -3 0 3 24 14 53 42 109 14 278 -50 290 -48 9 -52
2 -52 -102 0 -107 -15 -172 -61 -263 -45 -88 -36 -123 38 -149 29 -9 44 -4
179 60 81 39 148 71 149 71 1 0 0 -25 -3 -56 -9 -113 50 -242 138 -301 38 -24
51 -27 168 -31 148 -5 287 16 339 51 67 46 106 148 87 226 -9 33 -12 36 -44
33 -45 -4 -77 -35 -94 -92 -12 -44 -14 -46 -82 -69 -55 -20 -90 -25 -170 -25
-93 -1 -103 1 -141 26 -57 38 -86 101 -91 203 l-4 80 78 38 c42 21 101 54 131
73 29 19 54 34 56 34 1 0 0 -23 -1 -50 -7 -100 16 -122 85 -80 37 22 62 91 88
244 23 135 21 177 -12 208 -41 39 -71 40 -104 6 -18 -20 -20 -30 -15 -86 7
-69 -10 -192 -28 -197 -6 -1 -63 -14 -126 -28 -63 -14 -124 -29 -134 -33 -19
-7 -19 -2 -12 167 4 96 11 198 14 228 l7 54 81 19 c80 19 224 84 231 104 2 6
-5 21 -15 34 -24 30 -63 29 -145 -4 -35 -14 -82 -28 -105 -32 l-42 -7 0 79
c-1 88 -15 137 -54 189 -35 46 -81 49 -97 8z"/>
<path d="M810 2090 c0 -17 6 -46 14 -65 39 -93 66 -402 66 -758 0 -299 -10
-486 -40 -720 -20 -159 -16 -197 19 -197 11 0 30 13 41 28 l21 29 37 -18 c20
-10 69 -23 107 -29 75 -11 88 -10 336 34 191 33 405 47 664 44 190 -3 213 -1
239 15 l28 19 -22 15 c-49 34 -110 43 -299 43 -305 0 -588 -26 -801 -72 -52
-11 -137 -23 -187 -25 l-93 -5 5 29 c23 132 45 679 48 1194 l2 335 -27 41
c-29 45 -76 77 -125 88 -32 6 -33 5 -33 -25z"/>
</g>
</svg>
