<?xml version="1.0" standalone="no"?>
<!DOCTYPE svg PUBLIC "-//W3C//DTD SVG 20010904//EN"
 "http://www.w3.org/TR/2001/REC-SVG-20010904/DTD/svg10.dtd">
<svg version="1.0" xmlns="http://www.w3.org/2000/svg"
 width="340.000000pt" height="340.000000pt" viewBox="0 0 340.000000 340.000000"
 preserveAspectRatio="xMidYMid meet">
<metadata>
Created by potrace 1.15, written by Peter Selinger 2001-2017
</metadata>
<g transform="translate(0.000000,340.000000) scale(0.100000,-0.100000)"
fill="#000000" stroke="none">
<path d="M1404 2416 c-8 -34 3 -76 26 -101 19 -20 17 -24 -133 -253 -141 -215
-155 -233 -190 -244 -32 -10 -46 -9 -86 6 -70 25 -161 33 -161 14 0 -16 50
-98 85 -140 23 -27 60 -196 87 -393 16 -125 16 -498 -1 -687 -11 -128 -12
-160 -1 -173 18 -22 47 -18 72 10 20 23 28 25 119 25 66 0 146 9 251 29 210
41 369 60 556 69 125 6 165 11 185 25 37 24 34 45 -10 64 -54 22 -407 12 -588
-16 -124 -20 -318 -64 -416 -95 -25 -8 -50 -11 -55 -8 -5 4 -9 229 -10 527 0
512 -1 521 -23 592 -12 40 -20 76 -17 82 3 5 23 11 43 13 21 3 92 21 158 40
318 95 872 184 984 159 58 -13 119 -55 127 -88 9 -35 -12 -761 -31 -1078 -8
-132 -15 -258 -15 -279 l0 -39 -38 41 c-30 33 -46 42 -71 42 l-32 0 6 -47 c17
-121 66 -230 120 -263 47 -29 90 -26 112 7 16 24 19 65 25 363 3 184 11 414
17 510 18 298 30 519 35 666 l6 142 -41 45 c-50 57 -129 97 -206 104 -65 5
-430 -63 -762 -143 -101 -24 -188 -44 -193 -44 -19 0 39 84 111 163 89 96 124
167 125 250 1 57 0 59 -40 89 -23 16 -60 32 -82 35 -38 5 -41 3 -48 -21z"/>
<path d="M1634 1804 c-14 -21 -16 -33 -7 -64 9 -37 8 -42 -35 -102 -108 -152
-342 -511 -342 -524 0 -25 41 -15 74 18 17 18 112 122 210 231 195 216 183
208 286 186 27 -6 50 -15 50 -20 0 -20 -116 -234 -145 -267 -1 -1 -36 9 -78
23 -86 28 -117 31 -117 11 0 -21 48 -74 81 -92 23 -11 29 -21 29 -47 0 -27
-11 -42 -72 -97 -95 -84 -240 -231 -268 -270 l-21 -30 35 0 c61 0 236 133 371
280 l60 66 50 -41 c57 -46 132 -81 195 -91 l43 -7 -6 43 c-7 57 -50 107 -123
146 -77 40 -79 56 -19 135 92 119 159 276 137 324 -14 30 -68 65 -101 65 -13
0 -53 -16 -88 -36 -36 -20 -67 -33 -70 -30 -3 3 0 19 6 37 14 40 14 94 1 120
-12 21 -49 42 -92 53 -22 5 -31 1 -44 -20z"/>
</g>
</svg>
