<?xml version="1.0" standalone="no"?>
<!DOCTYPE svg PUBLIC "-//W3C//DTD SVG 20010904//EN"
 "http://www.w3.org/TR/2001/REC-SVG-20010904/DTD/svg10.dtd">
<svg version="1.0" xmlns="http://www.w3.org/2000/svg"
 width="340.000000pt" height="340.000000pt" viewBox="0 0 340.000000 340.000000"
 preserveAspectRatio="xMidYMid meet">
<metadata>
Created by potrace 1.15, written by Peter Selinger 2001-2017
</metadata>
<g transform="translate(0.000000,340.000000) scale(0.100000,-0.100000)"
fill="#000000" stroke="none">
<path d="M2523 2418 c-16 -18 -6 -55 25 -96 18 -25 27 -55 34 -110 5 -43 13
-498 16 -1012 7 -870 8 -938 25 -963 19 -29 62 -46 79 -29 5 5 19 50 30 98 18
79 19 100 9 189 -39 352 -54 900 -38 1340 17 472 16 488 -9 521 -32 43 -65 63
-114 70 -33 4 -49 2 -57 -8z"/>
<path d="M1114 2223 c-12 -2 -30 -13 -39 -24 -17 -18 -17 -21 0 -71 14 -42 19
-95 23 -251 l4 -197 -33 -14 c-19 -7 -114 -40 -211 -72 -100 -33 -178 -64
-178 -71 0 -20 42 -43 78 -43 18 0 98 18 178 40 80 22 150 40 155 40 17 0 3
-479 -16 -566 -3 -14 -47 -49 -127 -101 -193 -125 -196 -127 -244 -124 -46 2
-64 -15 -64 -58 0 -65 56 -108 119 -91 77 20 711 531 711 572 0 15 -5 18 -22
13 -40 -12 -141 -63 -198 -99 -30 -19 -56 -33 -58 -31 -3 3 18 519 22 523 2 1
29 9 61 17 72 19 144 58 182 97 l28 30 -29 25 c-25 21 -37 24 -72 20 -23 -2
-56 -14 -74 -27 -17 -12 -46 -23 -63 -24 l-32 -1 4 220 3 220 -23 21 c-27 24
-54 33 -85 27z"/>
<path d="M2092 2124 c-29 -20 -29 -66 -1 -106 21 -29 21 -33 16 -456 -3 -235
-10 -489 -17 -564 -15 -164 -11 -188 29 -188 16 0 33 6 38 12 13 17 40 217 53
385 12 173 25 831 16 866 -7 30 -58 67 -91 67 -11 0 -31 -7 -43 -16z"/>
<path d="M1563 2075 c4 -25 20 -78 37 -118 25 -61 31 -93 40 -210 26 -377 -56
-733 -245 -1057 -44 -77 -62 -149 -37 -158 7 -2 41 25 75 60 149 149 293 563
328 941 16 171 8 418 -15 472 -31 74 -90 115 -165 115 -22 0 -23 -2 -18 -45z"/>
</g>
</svg>
