<?xml version="1.0" standalone="no"?>
<!DOCTYPE svg PUBLIC "-//W3C//DTD SVG 20010904//EN"
 "http://www.w3.org/TR/2001/REC-SVG-20010904/DTD/svg10.dtd">
<svg version="1.0" xmlns="http://www.w3.org/2000/svg"
 width="340.000000pt" height="340.000000pt" viewBox="0 0 340.000000 340.000000"
 preserveAspectRatio="xMidYMid meet">
<metadata>
Created by potrace 1.15, written by Peter Selinger 2001-2017
</metadata>
<g transform="translate(0.000000,340.000000) scale(0.100000,-0.100000)"
fill="#000000" stroke="none">
<path d="M1714 2266 c-10 -26 2 -44 47 -66 23 -12 85 -55 138 -96 125 -96 171
-99 171 -10 0 34 -6 46 -44 81 -65 63 -142 97 -232 103 -62 4 -75 2 -80 -12z"/>
<path d="M843 2204 c-3 -9 4 -27 16 -42 11 -15 31 -45 42 -67 21 -38 21 -48
15 -240 -4 -110 -9 -226 -13 -257 l-6 -58 -101 -48 c-55 -26 -136 -63 -178
-82 -43 -19 -77 -39 -75 -45 2 -5 16 -16 32 -24 31 -15 21 -17 208 48 49 17
95 31 103 31 12 0 14 -46 14 -289 l0 -289 -42 -37 c-69 -59 -304 -212 -345
-225 -68 -20 -113 -43 -113 -56 0 -15 56 -63 89 -75 53 -21 277 112 430 254
49 45 123 113 166 152 75 67 185 190 185 207 0 38 -131 -26 -217 -105 l-43
-40 0 275 0 275 43 13 c70 21 151 66 203 114 l49 46 -25 20 c-38 30 -80 25
-162 -20 -108 -59 -106 -60 -91 68 6 59 15 179 19 268 8 178 2 199 -57 230
-39 20 -138 19 -146 -2z"/>
<path d="M2360 1915 c-566 -152 -1013 -295 -1003 -321 15 -39 59 -31 511 87
123 33 224 59 225 59 1 0 2 -51 1 -112 -1 -90 -7 -133 -28 -212 -27 -98 -96
-300 -113 -330 -7 -13 -24 1 -84 67 -42 45 -107 108 -145 139 -66 54 -239 168
-254 168 -14 0 -20 -31 -10 -50 5 -10 106 -116 223 -236 l214 -218 -30 -51
c-124 -212 -333 -397 -547 -484 -63 -26 -89 -45 -114 -84 l-18 -27 55 0 c72 0
165 30 251 80 199 117 292 207 468 453 12 16 21 8 88 -79 93 -121 275 -306
403 -412 l98 -80 84 -13 c92 -13 272 -8 318 10 21 8 28 17 25 33 -4 27 -18 34
-173 88 -219 77 -322 127 -404 193 -93 76 -237 220 -314 314 l-58 71 35 64
c78 141 131 297 160 469 19 109 10 159 -38 222 l-27 36 38 10 c68 18 275 59
358 71 44 6 90 13 101 15 25 6 49 55 39 83 -6 20 -53 43 -84 41 -9 0 -122 -29
-251 -64z"/>
</g>
</svg>
