<?xml version="1.0" standalone="no"?>
<!DOCTYPE svg PUBLIC "-//W3C//DTD SVG 20010904//EN"
 "http://www.w3.org/TR/2001/REC-SVG-20010904/DTD/svg10.dtd">
<svg version="1.0" xmlns="http://www.w3.org/2000/svg"
 width="340.000000pt" height="340.000000pt" viewBox="0 0 340.000000 340.000000"
 preserveAspectRatio="xMidYMid meet">
<metadata>
Created by potrace 1.15, written by Peter Selinger 2001-2017
</metadata>
<g transform="translate(0.000000,340.000000) scale(0.100000,-0.100000)"
fill="#000000" stroke="none">
<path d="M1759 2470 c-145 -26 -332 -74 -466 -119 -109 -37 -113 -38 -129 -20
-38 43 -154 78 -154 47 0 -7 16 -57 35 -113 96 -281 121 -751 62 -1218 l-23
-188 29 -25 c50 -42 69 -34 175 74 61 61 109 120 130 159 17 33 32 64 32 67 0
3 -20 6 -45 6 -40 0 -52 -5 -94 -45 -26 -25 -53 -45 -60 -45 -8 0 -11 80 -11
294 0 334 -11 299 95 311 132 15 432 88 496 121 59 30 156 197 215 369 46 134
50 202 16 257 -51 82 -130 100 -303 68z m151 -111 l32 -12 -6 -60 c-16 -135
-100 -398 -134 -416 -9 -4 -46 -14 -82 -20 -101 -19 -246 -60 -340 -95 -47
-18 -97 -36 -112 -40 l-28 -6 0 120 c0 88 3 122 13 124 6 2 48 9 92 16 93 14
213 50 303 91 61 27 63 30 60 61 -2 27 -8 34 -30 36 -32 4 -227 -53 -350 -101
l-87 -35 -5 27 c-17 89 -27 174 -23 185 3 8 32 19 64 25 32 6 107 23 167 37
134 32 349 71 397 73 20 0 51 -4 69 -10z"/>
<path d="M2029 1723 c-35 -38 -122 -110 -192 -161 l-129 -93 -47 30 c-26 17
-94 53 -151 80 -87 41 -106 47 -113 35 -18 -32 3 -48 358 -287 224 -150 459
-292 534 -322 85 -35 231 -52 311 -37 76 14 92 26 88 65 -3 35 1 33 -195 77
-150 34 -277 77 -378 127 -93 47 -222 125 -265 161 l-34 29 67 32 c82 39 175
101 250 166 50 43 57 53 57 86 0 29 -6 42 -26 58 -44 34 -65 27 -135 -46z"/>
<path d="M1635 1205 c-28 -27 -32 -61 -11 -90 9 -14 15 -68 18 -172 l6 -152
-32 -6 c-117 -24 -486 -120 -486 -127 0 -17 41 -48 62 -48 13 0 120 15 238 34
118 19 216 33 218 31 5 -4 5 -286 0 -290 -2 -2 -89 -13 -193 -25 -105 -11
-293 -34 -420 -51 -126 -17 -247 -28 -269 -26 -50 7 -66 0 -66 -28 0 -27 25
-37 134 -56 81 -14 214 -6 296 16 84 23 265 53 433 72 111 12 235 17 457 17
281 0 318 -2 468 -27 171 -27 205 -25 214 10 9 32 -15 87 -43 100 -48 23 -421
37 -639 24 -108 -7 -206 -15 -218 -17 -19 -5 -21 0 -27 68 -3 40 -3 111 2 158
l8 85 110 7 c102 7 259 38 277 56 14 14 -17 57 -55 76 -38 18 -40 18 -143 -3
-57 -11 -124 -21 -148 -21 l-43 0 -6 128 c-9 232 -66 334 -142 257z"/>
</g>
</svg>
