<?xml version="1.0" standalone="no"?>
<!DOCTYPE svg PUBLIC "-//W3C//DTD SVG 20010904//EN"
 "http://www.w3.org/TR/2001/REC-SVG-20010904/DTD/svg10.dtd">
<svg version="1.0" xmlns="http://www.w3.org/2000/svg"
 width="340.000000pt" height="340.000000pt" viewBox="0 0 340.000000 340.000000"
 preserveAspectRatio="xMidYMid meet">
<metadata>
Created by potrace 1.15, written by Peter Selinger 2001-2017
</metadata>
<g transform="translate(0.000000,340.000000) scale(0.100000,-0.100000)"
fill="#000000" stroke="none">
<path d="M1765 2355 c-5 -2 -22 -6 -37 -9 -32 -7 -35 -26 -12 -66 10 -16 14
-37 11 -52 -7 -27 -129 -189 -225 -296 -56 -63 -65 -78 -66 -113 -1 -52 29
-79 85 -79 70 0 531 164 564 201 17 18 17 21 3 36 -15 15 -25 15 -125 0 -92
-13 -232 -48 -295 -72 -43 -17 -13 34 72 122 73 74 99 110 131 177 39 80 40
85 25 109 -25 37 -86 57 -131 42z"/>
<path d="M2004 2177 c17 -57 22 -64 178 -227 119 -124 128 -132 156 -125 77
17 78 72 1 168 -87 110 -222 204 -318 223 l-31 6 14 -45z"/>
<path d="M810 2190 c0 -21 28 -76 59 -114 64 -80 85 -228 65 -469 l-7 -75 -86
-40 c-47 -22 -121 -51 -163 -64 -43 -12 -78 -26 -78 -30 0 -5 9 -17 20 -28 29
-29 88 -26 200 10 52 16 98 30 103 30 4 0 7 -116 7 -257 l0 -258 -33 -26 c-17
-14 -87 -67 -154 -117 -108 -81 -127 -92 -163 -92 -43 0 -90 -33 -90 -64 0
-20 45 -54 89 -67 62 -19 107 1 212 93 131 115 298 278 381 371 56 64 67 81
57 93 -18 22 -30 18 -106 -36 -39 -28 -74 -50 -79 -50 -7 0 -1 181 13 377 l6
92 51 16 c89 29 206 121 206 163 0 17 -68 35 -105 28 -19 -4 -55 -23 -81 -42
-61 -47 -81 -43 -74 16 3 25 5 106 5 180 0 146 -21 254 -55 285 -17 16 -173
85 -191 85 -5 0 -9 -5 -9 -10z"/>
<path d="M1609 1670 c-21 -12 -43 -65 -35 -85 3 -10 -14 -39 -45 -78 -53 -65
-110 -156 -134 -213 -12 -30 -12 -36 2 -49 17 -18 43 -13 85 17 49 34 153 157
202 237 45 75 47 82 36 115 -6 19 -16 39 -23 44 -19 15 -71 22 -88 12z"/>
<path d="M1965 1486 c-104 -40 -210 -81 -234 -91 l-44 -18 23 -19 c15 -12 39
-18 72 -18 43 0 49 -2 44 -17 -10 -25 -46 -240 -46 -273 0 -15 -6 -32 -12 -37
-12 -9 -148 -50 -433 -131 -108 -30 -130 -51 -80 -74 34 -15 196 10 367 56
l120 33 -7 -35 c-30 -159 -181 -363 -348 -472 -69 -44 -94 -83 -66 -101 26
-16 53 -9 129 32 197 108 330 269 400 485 l27 85 254 -291 c221 -254 261 -296
309 -320 68 -34 115 -48 209 -60 105 -14 176 -4 190 26 16 37 3 53 -58 70 -31
9 -100 38 -153 64 -165 82 -295 177 -440 321 -53 53 -134 131 -179 172 -46 42
-81 79 -78 81 9 9 192 56 279 71 46 9 135 20 198 25 151 13 196 39 177 100 -5
17 -15 20 -68 20 -94 0 -245 -26 -414 -70 -83 -22 -156 -40 -162 -40 -7 0 -11
34 -11 95 0 69 -5 108 -19 145 -21 56 -28 49 69 71 114 25 260 106 260 145 0
29 -19 44 -54 43 -17 0 -116 -33 -221 -73z"/>
</g>
</svg>
