<?xml version="1.0" standalone="no"?>
<!DOCTYPE svg PUBLIC "-//W3C//DTD SVG 20010904//EN"
 "http://www.w3.org/TR/2001/REC-SVG-20010904/DTD/svg10.dtd">
<svg version="1.0" xmlns="http://www.w3.org/2000/svg"
 width="340.000000pt" height="340.000000pt" viewBox="0 0 340.000000 340.000000"
 preserveAspectRatio="xMidYMid meet">
<metadata>
Created by potrace 1.15, written by Peter Selinger 2001-2017
</metadata>
<g transform="translate(0.000000,340.000000) scale(0.100000,-0.100000)"
fill="#000000" stroke="none">
<path d="M1974 2385 c-16 -24 -16 -28 2 -66 l18 -41 -38 -75 c-21 -41 -48 -80
-60 -87 -11 -7 -102 -32 -201 -55 -226 -53 -208 -47 -196 -70 15 -26 53 -31
130 -15 36 8 100 17 141 21 l74 6 -18 -29 c-33 -50 -161 -215 -260 -334 -53
-63 -96 -118 -96 -121 0 -4 6 -12 14 -18 23 -19 49 -1 183 132 l121 119 22
-68 c39 -129 53 -246 45 -394 -4 -74 -8 -164 -9 -200 l-1 -65 36 -3 36 -3 18
63 c9 34 20 88 22 118 l5 56 80 12 c79 11 187 52 209 78 9 11 8 18 -2 30 -29
35 -55 35 -168 -3 -61 -21 -112 -35 -115 -32 -7 6 11 156 19 170 4 5 37 9 74
9 70 0 156 23 205 55 32 21 32 30 1 60 -33 34 -83 32 -185 -5 -45 -16 -85 -30
-89 -30 -9 0 -37 118 -30 125 6 5 349 45 392 45 33 0 37 -3 47 -37 15 -50 25
-361 15 -496 -7 -106 -7 -106 -28 -93 -39 24 -64 28 -81 11 -39 -40 -7 -120
71 -180 53 -40 97 -45 135 -16 l25 20 6 348 c6 367 3 406 -39 500 -27 63 -40
68 -179 67 -93 0 -107 -3 -210 -43 -190 -74 -203 -77 -232 -61 -15 8 -28 20
-30 26 -2 6 35 61 81 121 l85 111 53 6 c125 15 273 26 430 33 137 5 173 9 198
24 33 21 37 36 16 64 -12 17 -28 19 -172 18 -115 -1 -191 -7 -274 -22 -107
-19 -180 -26 -180 -17 0 2 9 23 20 47 33 74 24 138 -26 184 -37 34 -88 34
-110 0z"/>
<path d="M1205 2341 c-110 -42 -144 -58 -225 -106 -30 -18 -97 -46 -147 -61
-93 -29 -111 -44 -74 -64 36 -19 80 -10 244 45 89 30 170 55 180 55 16 0 15
-5 -10 -50 -15 -28 -45 -74 -67 -102 -49 -66 -66 -106 -66 -161 0 -38 5 -48
46 -87 36 -36 125 -152 157 -206 4 -7 -14 -9 -54 -6 -68 5 -149 -19 -149 -45
0 -25 63 -78 109 -92 64 -19 174 -26 199 -12 28 15 51 59 53 102 5 81 -93 223
-204 296 l-75 49 144 180 c131 163 143 183 144 219 0 49 -7 61 -43 74 -41 16
-52 14 -162 -28z"/>
<path d="M795 1945 c-30 -29 -30 -34 -6 -93 37 -88 58 -440 42 -687 -11 -178
-6 -208 40 -213 25 -3 27 0 38 60 34 198 56 578 40 715 -22 201 -84 289 -154
218z"/>
<path d="M1552 1284 c-28 -19 -29 -61 -2 -89 18 -19 21 -44 31 -215 10 -169 9
-195 -4 -204 -8 -6 -89 -27 -181 -46 -91 -19 -166 -39 -166 -45 0 -30 26 -35
188 -35 l163 0 -7 -137 c-3 -76 -9 -141 -13 -144 -3 -3 -78 -14 -166 -23 -88
-9 -276 -32 -417 -51 -141 -19 -264 -32 -273 -29 -8 3 -31 3 -50 0 l-35 -7 17
-26 c38 -57 101 -64 318 -33 194 27 551 66 790 86 302 25 632 8 828 -42 63
-16 91 -9 101 26 3 11 9 29 12 40 5 17 -5 25 -58 50 -120 56 -176 58 -741 29
-114 -7 -210 -10 -212 -8 -2 3 3 47 11 99 7 52 14 121 14 153 l0 57 83 0 c88
0 168 16 260 50 65 24 73 46 31 79 -31 24 -71 27 -118 7 -19 -8 -83 -17 -143
-21 l-108 -7 0 173 c0 185 -17 290 -52 317 -23 17 -74 15 -101 -4z"/>
</g>
</svg>
