<?xml version="1.0" standalone="no"?>
<!DOCTYPE svg PUBLIC "-//W3C//DTD SVG 20010904//EN"
 "http://www.w3.org/TR/2001/REC-SVG-20010904/DTD/svg10.dtd">
<svg version="1.0" xmlns="http://www.w3.org/2000/svg"
 width="340.000000pt" height="340.000000pt" viewBox="0 0 340.000000 340.000000"
 preserveAspectRatio="xMidYMid meet">
<metadata>
Created by potrace 1.15, written by Peter Selinger 2001-2017
</metadata>
<g transform="translate(0.000000,340.000000) scale(0.100000,-0.100000)"
fill="#000000" stroke="none">
<path d="M2025 2510 c-19 -36 -13 -64 21 -101 21 -22 25 -39 33 -141 5 -63 6
-147 3 -186 l-5 -72 -36 -5 c-20 -4 -96 -21 -168 -39 l-133 -32 0 87 c0 103
-27 216 -71 299 -26 49 -36 59 -65 64 -75 15 -97 -41 -49 -126 35 -63 54 -149
57 -263 l3 -99 -145 -47 c-80 -26 -162 -48 -182 -48 -40 -1 -44 -6 -28 -31 12
-20 157 -17 261 5 41 8 80 15 87 15 14 0 15 -85 5 -542 l-6 -307 -86 -20 c-83
-19 -170 -33 -296 -46 l-60 -7 24 26 c22 24 24 56 2 56 -27 0 -127 -45 -166
-75 l-44 -34 -7 47 c-8 52 2 562 12 604 5 22 14 29 43 34 55 10 131 55 157 94
13 19 24 38 24 41 0 4 -14 12 -30 19 -41 17 -115 7 -151 -19 -15 -12 -31 -21
-35 -21 -4 0 -3 48 2 108 12 160 9 269 -10 337 -22 73 -29 83 -71 91 -46 8
-73 -2 -91 -38 -15 -28 -14 -31 5 -52 11 -11 25 -34 31 -51 16 -40 25 -392 12
-426 -9 -22 -30 -34 -134 -71 -68 -25 -151 -53 -185 -63 -73 -21 -89 -35 -73
-64 8 -16 20 -21 54 -21 48 0 183 36 276 74 l60 25 0 -364 0 -363 -67 -50
c-147 -109 -247 -172 -273 -172 -43 0 -64 -22 -63 -66 1 -43 30 -74 68 -74 44
0 167 74 244 146 42 38 131 114 199 168 l123 97 36 -12 c37 -12 202 -8 235 6
13 5 23 -2 38 -27 34 -56 27 -271 -16 -485 -5 -26 -1 -37 27 -68 45 -48 92
-55 185 -27 132 40 242 54 473 59 187 5 238 3 305 -12 45 -9 99 -15 121 -13
33 2 41 8 49 31 14 40 -3 79 -44 99 -28 14 -61 18 -155 18 -177 0 -521 -18
-674 -36 -73 -8 -135 -13 -137 -11 -2 2 1 39 7 83 13 95 6 256 -16 338 -9 32
-13 62 -8 67 16 16 310 89 358 89 38 0 3 -109 -58 -176 -45 -51 -73 -108 -82
-167 -4 -26 -5 -47 -2 -47 21 0 86 38 124 73 55 51 121 149 129 193 6 33 -12
80 -40 103 -9 8 -16 17 -16 21 0 8 176 35 330 50 58 6 210 10 338 9 211 -1
234 0 252 16 30 28 25 62 -12 86 -31 19 -43 20 -203 15 -93 -3 -217 -12 -275
-21 -58 -8 -124 -15 -147 -15 l-43 0 0 435 0 435 28 0 c38 0 249 19 294 26 28
4 39 12 48 35 15 35 9 53 -24 74 -23 15 -36 15 -171 0 -81 -9 -149 -14 -152
-11 -3 2 0 34 6 69 22 129 7 257 -44 357 -28 54 -48 70 -94 70 -24 0 -34 -7
-46 -30z m53 -627 c16 -30 -14 -848 -31 -858 -10 -6 -312 -53 -316 -49 -3 2
-5 63 -5 135 l-1 131 80 27 c44 15 100 40 123 56 40 27 42 30 26 42 -28 20
-97 15 -168 -11 l-65 -25 -7 36 c-7 36 1 159 12 187 5 12 20 16 63 16 60 0
124 24 154 57 17 20 17 21 -17 37 -44 21 -48 21 -117 -10 -69 -31 -93 -23 -85
30 3 17 8 57 11 89 8 67 6 66 150 103 113 29 181 31 193 7z"/>
<path d="M2096 791 c-13 -20 7 -64 58 -130 80 -105 110 -122 171 -97 33 14 34
16 23 48 -27 78 -81 130 -168 160 -25 9 -52 19 -61 23 -10 3 -20 2 -23 -4z"/>
</g>
</svg>
