<?xml version="1.0" standalone="no"?>
<!DOCTYPE svg PUBLIC "-//W3C//DTD SVG 20010904//EN"
 "http://www.w3.org/TR/2001/REC-SVG-20010904/DTD/svg10.dtd">
<svg version="1.0" xmlns="http://www.w3.org/2000/svg"
 width="340.000000pt" height="340.000000pt" viewBox="0 0 340.000000 340.000000"
 preserveAspectRatio="xMidYMid meet">
<metadata>
Created by potrace 1.15, written by Peter Selinger 2001-2017
</metadata>
<g transform="translate(0.000000,340.000000) scale(0.100000,-0.100000)"
fill="#000000" stroke="none">
<path d="M2110 2520 c-25 -25 -25 -46 0 -92 19 -36 19 -37 -1 -170 -12 -73
-22 -134 -23 -135 -1 -2 -54 -12 -117 -23 -63 -11 -148 -28 -190 -38 l-77 -19
-7 76 c-9 100 -39 215 -66 252 -23 33 -80 65 -124 70 -28 4 -30 2 -33 -35 -3
-29 4 -50 26 -86 16 -26 37 -69 46 -96 19 -60 39 -205 29 -215 -14 -13 -155
-49 -220 -55 -69 -7 -82 -16 -62 -41 12 -14 34 -15 160 -11 l147 6 4 -59 c4
-61 32 -114 59 -114 19 0 48 85 53 157 l4 62 162 34 c89 19 163 32 166 30 2
-3 0 -28 -6 -57 -7 -35 -6 -68 1 -98 17 -78 21 -80 63 -32 35 41 66 118 66
164 0 34 20 45 85 45 67 0 201 15 283 31 44 9 52 14 52 32 -1 66 -54 78 -263
56 -59 -6 -110 -10 -112 -7 -2 2 5 33 17 68 14 46 21 94 22 163 l1 99 -33 29
c-38 34 -83 38 -112 9z"/>
<path d="M840 2258 c-36 -19 -36 -48 -1 -104 l31 -48 0 -253 0 -253 -82 -41
c-46 -23 -117 -54 -158 -69 -56 -21 -75 -33 -75 -46 0 -12 11 -21 30 -27 23
-6 58 0 156 31 l126 38 7 -304 7 -305 -38 -39 c-55 -57 -271 -203 -317 -214
-56 -13 -65 -33 -36 -79 23 -37 24 -37 72 -32 85 10 191 70 278 155 43 43 110
104 149 137 63 52 175 173 217 234 13 17 12 20 -7 26 -15 5 -45 -10 -115 -56
-52 -34 -97 -59 -100 -56 -4 3 -2 137 2 298 l9 293 50 11 c74 17 137 48 184
90 47 43 50 57 16 79 -33 22 -63 20 -111 -8 -30 -17 -126 -56 -138 -56 -1 0 0
112 2 249 3 270 -2 303 -50 335 -35 23 -79 28 -108 14z"/>
<path d="M1806 1842 c-9 -17 -22 -58 -30 -90 -27 -117 -188 -389 -343 -582
-37 -47 -114 -133 -171 -192 -62 -64 -106 -119 -112 -138 -8 -28 -7 -31 8 -25
95 35 238 163 378 337 97 121 272 360 329 450 17 27 32 48 35 48 3 0 122 -118
265 -262 357 -359 346 -349 406 -385 65 -39 183 -71 294 -79 77 -6 82 -5 110
19 29 25 29 25 11 46 -22 24 -78 46 -158 61 -45 9 -85 30 -190 99 -148 97
-206 143 -354 275 -55 50 -157 130 -226 178 l-125 88 1 60 c1 51 -3 63 -24 84
-14 14 -39 28 -57 32 -28 5 -33 3 -47 -24z"/>
<path d="M1975 1245 c-93 -24 -206 -55 -250 -68 -44 -14 -93 -27 -110 -29 -24
-2 -30 -8 -30 -28 l0 -25 100 2 c178 4 481 58 539 97 18 11 26 25 26 44 0 65
-44 67 -275 7z"/>
<path d="M2020 891 c-157 -32 -303 -63 -325 -70 -76 -21 -113 -11 -205 55 -76
55 -118 4 -62 -78 49 -73 99 -170 127 -248 32 -89 64 -231 65 -281 0 -42 32
-89 60 -89 22 0 40 28 40 63 0 22 5 25 53 30 28 3 102 13 162 21 61 8 180 20
265 26 173 13 200 22 200 70 0 24 -7 33 -39 50 -22 11 -42 24 -45 29 -3 5 14
44 38 87 25 44 66 127 92 186 l46 107 -22 32 c-26 36 -91 69 -135 68 -16 0
-158 -26 -315 -58z m278 -99 c4 -28 -25 -106 -90 -243 l-50 -107 -95 -12 c-92
-11 -261 -48 -314 -68 l-26 -10 -47 190 c-26 105 -46 192 -44 193 7 6 373 55
493 66 72 6 132 13 135 15 11 12 35 -4 38 -24z"/>
</g>
</svg>
