<?xml version="1.0" standalone="no"?>
<!DOCTYPE svg PUBLIC "-//W3C//DTD SVG 20010904//EN"
 "http://www.w3.org/TR/2001/REC-SVG-20010904/DTD/svg10.dtd">
<svg version="1.0" xmlns="http://www.w3.org/2000/svg"
 width="340.000000pt" height="340.000000pt" viewBox="0 0 340.000000 340.000000"
 preserveAspectRatio="xMidYMid meet">
<metadata>
Created by potrace 1.15, written by Peter Selinger 2001-2017
</metadata>
<g transform="translate(0.000000,340.000000) scale(0.100000,-0.100000)"
fill="#000000" stroke="none">
<path d="M2377 2480 c-14 -16 -30 -45 -37 -64 -6 -19 -46 -69 -93 -117 -46
-46 -106 -120 -134 -164 -79 -122 -80 -124 -121 -131 -20 -3 -107 -23 -192
-44 -273 -67 -304 -73 -346 -61 -21 6 -48 8 -61 5 -27 -7 -25 -29 13 -110 13
-29 54 -161 92 -295 67 -242 68 -244 97 -250 69 -15 168 -8 297 21 168 37 339
65 493 80 165 16 157 13 202 77 95 136 243 441 243 501 0 36 -37 93 -71 109
-39 19 -193 43 -273 43 -62 0 -163 -13 -288 -36 -50 -9 -50 8 1 40 95 60 311
306 311 354 0 33 -43 72 -79 72 -20 0 -37 -9 -54 -30z m262 -536 c23 -9 41
-21 41 -28 0 -17 -112 -289 -156 -381 l-39 -80 -106 -8 c-58 -4 -141 -13 -185
-21 -43 -7 -82 -12 -86 -9 -5 2 -8 86 -8 186 0 100 -5 211 -10 247 -6 41 -6
68 1 76 11 14 92 24 269 34 154 10 226 5 279 -16z m-693 -75 c17 -19 20 -46
27 -241 5 -121 6 -222 3 -225 -2 -3 -73 -25 -157 -49 -83 -24 -160 -46 -170
-49 -17 -6 -19 -1 -19 52 0 116 -45 313 -104 464 -6 13 11 17 106 28 62 7 145
18 183 25 100 19 110 18 131 -5z"/>
<path d="M2380 1882 c-28 -9 -50 -35 -50 -59 0 -15 -12 -35 -31 -51 -55 -46
-94 -172 -54 -172 62 0 216 125 229 187 6 24 -6 83 -16 83 -2 0 -17 4 -33 8
-17 5 -37 7 -45 4z"/>
<path d="M1674 1716 c-8 -35 21 -90 74 -136 57 -50 94 -54 112 -10 22 53 -10
115 -81 150 -55 28 -97 27 -105 -4z"/>
<path d="M1534 2366 c-9 -22 14 -73 42 -95 12 -10 39 -40 59 -67 44 -58 77
-88 127 -115 50 -26 56 -25 67 18 16 56 -1 103 -56 158 -75 73 -225 137 -239
101z"/>
<path d="M950 2327 c-47 -16 -50 -45 -11 -90 31 -34 31 -36 31 -149 0 -63 -3
-190 -7 -283 l-6 -168 -101 -47 c-56 -26 -143 -62 -194 -80 -92 -33 -119 -53
-91 -71 39 -25 254 12 346 60 l40 20 6 -212 c4 -117 10 -235 13 -263 l6 -51
-83 -65 c-46 -36 -127 -93 -179 -128 -112 -73 -130 -88 -130 -109 0 -19 49
-71 67 -71 22 0 103 45 178 98 154 111 475 421 475 460 0 26 -57 12 -111 -29
-58 -44 -102 -69 -119 -69 -11 0 -15 364 -3 445 5 37 11 49 27 53 42 11 192
93 230 126 l39 34 -26 26 c-35 34 -74 33 -124 -3 -41 -30 -140 -66 -146 -53
-2 4 4 129 13 277 18 292 18 297 -33 329 -34 21 -69 25 -107 13z"/>
<path d="M2110 1154 c-158 -47 -262 -96 -244 -113 3 -3 105 -6 227 -6 l221 0
20 -60 c15 -47 20 -89 20 -195 1 -161 -13 -402 -24 -420 -6 -10 -15 -10 -46 1
-70 23 -158 16 -292 -25 -68 -21 -126 -35 -129 -33 -2 3 0 56 6 118 6 63 11
142 11 177 l0 63 59 -7 c63 -7 217 10 257 28 20 9 24 18 22 42 -3 26 -8 32
-38 38 -59 14 -184 -4 -261 -36 -10 -4 -23 0 -33 9 -13 14 -15 30 -10 99 10
127 -21 190 -99 203 -30 5 -36 2 -42 -18 -10 -31 -8 -100 4 -132 6 -15 17
-130 26 -255 25 -380 21 -366 103 -378 42 -6 322 25 363 41 10 4 20 -10 32
-44 19 -54 59 -87 112 -93 28 -3 32 1 65 67 l35 70 4 240 c7 470 7 454 -20
520 -20 49 -32 64 -73 90 -69 42 -158 45 -276 9z"/>
</g>
</svg>
