<?xml version="1.0" standalone="no"?>
<!DOCTYPE svg PUBLIC "-//W3C//DTD SVG 20010904//EN"
 "http://www.w3.org/TR/2001/REC-SVG-20010904/DTD/svg10.dtd">
<svg version="1.0" xmlns="http://www.w3.org/2000/svg"
 width="340.000000pt" height="340.000000pt" viewBox="0 0 340.000000 340.000000"
 preserveAspectRatio="xMidYMid meet">
<metadata>
Created by potrace 1.15, written by Peter Selinger 2001-2017
</metadata>
<g transform="translate(0.000000,340.000000) scale(0.100000,-0.100000)"
fill="#000000" stroke="none">
<path d="M2120 2419 c-138 -14 -494 -76 -655 -114 -82 -20 -193 -45 -245 -56
-52 -12 -99 -25 -104 -29 -5 -5 9 -14 31 -20 34 -11 61 -8 182 14 79 14 153
26 166 26 53 0 74 -96 75 -347 0 -136 -2 -152 -17 -157 -122 -37 -267 -75
-271 -71 -4 3 -14 43 -23 88 -23 112 -71 238 -124 329 -38 65 -51 79 -97 102
-51 26 -158 38 -158 18 0 -5 24 -35 54 -68 54 -60 153 -230 251 -433 l50 -104
113 7 c62 3 134 11 160 17 41 9 48 8 60 -8 17 -24 7 -61 -25 -95 -32 -33 -65
-44 -160 -53 -40 -3 -92 -12 -115 -19 l-43 -12 35 -22 c42 -26 102 -28 214 -7
44 8 81 13 83 11 3 -2 7 -31 10 -63 l5 -60 -283 -56 c-156 -31 -296 -57 -311
-57 -30 0 -41 -11 -32 -34 16 -41 226 -28 469 28 261 61 416 79 800 91 144 4
241 23 251 50 7 18 -22 72 -45 85 -36 19 -176 10 -392 -24 -118 -19 -240 -37
-271 -41 l-58 -7 0 47 c0 54 14 85 38 85 61 0 282 86 282 109 0 13 -53 41 -77
41 -10 0 -67 -11 -127 -25 -60 -13 -113 -22 -118 -19 -13 9 -9 71 6 87 8 8 43
20 78 26 35 7 114 25 177 42 63 16 127 29 143 29 21 0 39 10 59 31 16 17 29
35 29 39 0 5 23 46 51 91 84 136 193 364 186 391 -8 31 -64 88 -102 103 -46
19 -112 23 -205 14z m102 -125 c32 -9 58 -20 58 -24 0 -4 -33 -76 -74 -161
-40 -85 -86 -186 -102 -225 l-29 -71 -121 -7 c-67 -3 -147 -11 -179 -17 -69
-13 -85 -8 -85 26 0 18 8 29 28 37 33 15 162 112 254 190 101 88 116 168 34
184 -48 8 -72 -2 -103 -44 -15 -20 -54 -66 -88 -102 -33 -36 -70 -78 -81 -94
l-21 -29 -7 84 c-4 46 -14 116 -22 154 -8 39 -14 71 -14 71 0 7 155 28 240 34
183 12 251 11 312 -6z"/>
<path d="M1264 2126 c-19 -14 -19 -15 6 -62 37 -70 99 -128 155 -147 57 -20
65 -14 65 50 0 56 -34 95 -121 139 -78 39 -78 39 -105 20z"/>
<path d="M2182 1144 c2 -22 20 -42 78 -86 301 -232 283 -220 319 -214 81 12
78 63 -8 147 -31 31 -79 69 -106 85 -60 35 -195 85 -248 91 -37 5 -38 4 -35
-23z"/>
<path d="M1716 1138 c-8 -32 16 -76 74 -141 54 -59 101 -90 157 -100 37 -7 43
3 43 69 0 38 -5 49 -38 82 -44 44 -142 97 -194 105 -31 5 -37 2 -42 -15z"/>
<path d="M817 980 c-63 -58 -116 -153 -124 -222 -4 -35 -1 -47 17 -63 20 -18
24 -18 48 -4 60 33 140 195 145 289 3 62 -18 62 -86 0z"/>
<path d="M1205 990 c-10 -32 2 -54 61 -109 70 -66 113 -85 171 -76 37 5 43 9
43 31 0 31 -26 82 -54 106 -22 19 -164 68 -196 68 -10 0 -22 -9 -25 -20z"/>
<path d="M1582 948 c-23 -29 -22 -55 2 -91 30 -44 47 -200 24 -229 -8 -10 -69
-29 -167 -52 -85 -19 -159 -40 -164 -45 -7 -7 -6 -16 3 -26 12 -15 33 -16 177
-9 l163 7 0 -74 c0 -41 -4 -80 -9 -87 -5 -9 -116 -29 -317 -58 -170 -24 -319
-47 -332 -49 -27 -6 -27 -32 0 -48 27 -17 350 8 618 48 287 43 491 54 670 34
177 -19 233 -18 259 5 26 24 27 46 1 78 -16 21 -33 27 -109 37 -132 18 -328
16 -441 -5 -52 -10 -117 -18 -145 -18 l-50 -1 -3 88 -3 87 34 0 c94 0 267 62
267 96 0 8 -12 26 -26 40 -28 29 -43 29 -149 1 -33 -9 -75 -19 -92 -22 l-33
-7 0 79 c0 65 -5 88 -26 131 -40 81 -120 128 -152 90z"/>
</g>
</svg>
