<?xml version="1.0" standalone="no"?>
<!DOCTYPE svg PUBLIC "-//W3C//DTD SVG 20010904//EN"
 "http://www.w3.org/TR/2001/REC-SVG-20010904/DTD/svg10.dtd">
<svg version="1.0" xmlns="http://www.w3.org/2000/svg"
 width="340.000000pt" height="340.000000pt" viewBox="0 0 340.000000 340.000000"
 preserveAspectRatio="xMidYMid meet">
<metadata>
Created by potrace 1.15, written by Peter Selinger 2001-2017
</metadata>
<g transform="translate(0.000000,340.000000) scale(0.100000,-0.100000)"
fill="#000000" stroke="none">
<path d="M1935 2354 c-219 -41 -441 -94 -638 -150 -213 -61 -259 -79 -255
-103 6 -33 53 -36 176 -13 107 19 180 39 441 117 123 37 200 47 354 48 121 0
140 -2 158 -19 24 -21 23 -43 -5 -229 -25 -163 -36 -327 -36 -537 0 -304 33
-504 121 -723 69 -173 207 -394 300 -482 48 -45 131 -84 193 -90 53 -5 53 -5
65 27 33 95 -20 288 -94 343 -24 17 -24 17 -42 -15 -11 -22 -17 -56 -18 -100
0 -38 -3 -68 -6 -68 -22 0 -171 184 -232 287 -180 299 -232 833 -128 1323 11
52 25 143 32 203 l13 107 -30 31 c-69 75 -151 84 -369 43z"/>
<path d="M730 2048 c0 -36 6 -47 46 -86 88 -84 109 -196 101 -541 -3 -140 -11
-256 -20 -306 -49 -257 -127 -464 -255 -674 -32 -53 -47 -89 -50 -123 -5 -53
-3 -54 37 -33 104 53 269 374 346 671 63 241 89 559 67 813 -17 187 -58 255
-183 302 -77 30 -89 27 -89 -23z"/>
<path d="M1555 1870 c-154 -49 -293 -90 -310 -90 -37 -1 -118 -36 -111 -49 20
-32 173 -52 243 -32 38 11 51 0 59 -51 5 -27 -11 -69 -86 -233 -158 -343 -170
-372 -156 -391 19 -26 46 -10 96 58 25 34 50 63 56 65 6 2 28 -22 49 -52 21
-31 63 -78 93 -104 l54 -48 -186 -243 c-103 -133 -185 -248 -183 -254 2 -6 15
-12 29 -14 20 -2 41 11 94 60 180 168 388 450 506 683 103 205 114 236 99 285
-25 86 -98 91 -276 19 -60 -24 -113 -45 -117 -47 -4 -2 7 22 23 52 44 81 49
163 14 247 -5 14 9 20 86 38 51 12 141 38 201 58 124 41 145 61 114 108 -28
42 -79 34 -391 -65z m180 -527 c-8 -34 -114 -251 -126 -259 -5 -3 -39 19 -76
49 -38 29 -84 64 -103 77 -19 13 -36 25 -38 26 -6 4 20 47 51 86 l30 37 101 4
c56 1 116 4 135 5 32 2 33 1 26 -25z"/>
</g>
</svg>
