<?xml version="1.0" standalone="no"?>
<!DOCTYPE svg PUBLIC "-//W3C//DTD SVG 20010904//EN"
 "http://www.w3.org/TR/2001/REC-SVG-20010904/DTD/svg10.dtd">
<svg version="1.0" xmlns="http://www.w3.org/2000/svg"
 width="340.000000pt" height="340.000000pt" viewBox="0 0 340.000000 340.000000"
 preserveAspectRatio="xMidYMid meet">
<metadata>
Created by potrace 1.15, written by Peter Selinger 2001-2017
</metadata>
<g transform="translate(0.000000,340.000000) scale(0.100000,-0.100000)"
fill="#000000" stroke="none">
<path d="M1303 2470 c-25 -10 -49 -49 -36 -59 4 -4 31 -24 59 -44 44 -32 52
-42 58 -79 11 -78 17 -342 9 -408 l-8 -65 -70 -23 c-57 -18 -189 -49 -332 -78
-35 -7 -29 -40 8 -53 23 -8 58 -8 123 -1 100 12 208 27 245 36 l24 5 -6 -128
c-7 -146 -25 -282 -39 -300 -23 -29 -374 -130 -598 -174 -63 -12 -119 -26
-124 -30 -18 -16 25 -47 89 -64 102 -28 162 -18 365 60 96 37 187 73 201 80
46 24 53 7 35 -85 -35 -171 -119 -345 -226 -468 -69 -79 -172 -161 -229 -182
-88 -34 -185 -113 -164 -134 4 -3 33 -6 65 -6 126 0 341 138 453 290 72 98
150 293 209 519 l32 124 59 -84 c115 -165 377 -479 585 -704 l152 -163 87 -29
c78 -26 99 -28 232 -28 155 0 193 9 205 48 9 30 -15 46 -105 67 -98 24 -292
98 -371 142 -157 88 -248 169 -449 398 -74 85 -179 200 -233 256 -54 55 -98
104 -98 107 0 21 295 89 463 106 100 10 137 24 156 60 17 31 -21 71 -69 71
-64 0 -197 -29 -393 -86 -104 -31 -191 -53 -193 -51 -3 3 -2 91 2 196 9 233 7
231 121 256 120 27 295 91 316 116 26 32 18 71 -16 83 -23 9 -58 0 -208 -50
l-180 -61 7 56 c11 81 8 285 -6 361 -23 130 -41 180 -71 195 -31 16 -102 19
-136 5z"/>
</g>
</svg>
