<?xml version="1.0" standalone="no"?>
<!DOCTYPE svg PUBLIC "-//W3C//DTD SVG 20010904//EN"
 "http://www.w3.org/TR/2001/REC-SVG-20010904/DTD/svg10.dtd">
<svg version="1.0" xmlns="http://www.w3.org/2000/svg"
 width="340.000000pt" height="340.000000pt" viewBox="0 0 340.000000 340.000000"
 preserveAspectRatio="xMidYMid meet">
<metadata>
Created by potrace 1.15, written by Peter Selinger 2001-2017
</metadata>
<g transform="translate(0.000000,340.000000) scale(0.100000,-0.100000)"
fill="#000000" stroke="none">
<path d="M1363 2665 c-32 -23 -31 -69 2 -91 36 -23 49 -78 40 -168 l-7 -76
-51 -15 c-71 -21 -251 -55 -293 -55 -38 0 -45 -18 -17 -41 20 -17 154 -15 266
4 91 16 88 22 57 -112 -13 -58 -26 -91 -42 -106 -27 -26 -139 -62 -223 -73
-39 -5 -61 -13 -69 -25 -19 -30 11 -37 141 -35 142 3 134 20 71 -134 -22 -54
-45 -102 -52 -107 -19 -16 -182 -60 -301 -82 -128 -24 -139 -29 -143 -58 -7
-48 113 -52 288 -7 50 12 90 18 90 12 0 -5 -23 -52 -51 -105 -60 -111 -141
-207 -384 -458 -119 -123 -163 -175 -152 -179 29 -11 122 50 275 179 151 128
295 310 401 509 l52 97 77 25 c103 34 276 77 333 83 57 6 34 27 346 -312 132
-143 267 -286 301 -317 107 -98 238 -148 393 -148 93 0 119 13 119 58 0 27
-21 38 -117 63 -155 39 -314 140 -568 358 -120 104 -325 300 -325 312 0 5 28
9 63 9 76 0 241 23 331 46 72 18 75 25 40 81 -14 22 -74 41 -93 29 -6 -4 -109
-22 -230 -41 -184 -28 -224 -32 -251 -22 -27 10 -33 10 -45 -6 -17 -23 -292
-104 -306 -90 -11 11 33 135 74 208 22 39 24 40 137 67 63 15 180 39 260 54
188 34 218 49 205 101 l-6 26 -82 -7 c-97 -8 -248 -38 -336 -66 -35 -11 -81
-20 -102 -20 l-38 0 19 68 c10 37 28 89 39 114 18 42 24 47 73 61 88 26 252
57 364 69 76 8 113 17 130 30 26 21 32 59 12 76 -23 18 -252 -13 -395 -54 -28
-8 -74 -19 -102 -23 l-51 -8 8 41 c20 111 -1 183 -68 237 -46 36 -79 44 -107
24z"/>
<path d="M1442 1537 c-29 -30 -28 -56 3 -102 23 -34 25 -45 23 -123 l-3 -85
-120 -38 c-117 -36 -135 -49 -102 -72 11 -7 73 -4 180 9 l48 6 -3 -123 -3
-122 -60 -14 c-302 -66 -468 -109 -472 -120 -3 -8 3 -23 13 -35 17 -18 26 -20
94 -14 41 3 154 23 250 44 l175 38 7 -110 c24 -351 38 -507 48 -526 14 -27 46
-26 61 3 9 15 14 119 17 343 l5 322 91 13 c50 7 167 13 260 13 l169 1 16 33
c18 40 8 62 -35 75 -45 13 -253 0 -456 -29 l-48 -7 0 85 c0 47 3 99 6 116 6
28 10 31 58 37 28 4 67 14 86 22 34 14 100 70 100 85 0 13 -53 36 -100 42 -27
4 -66 1 -97 -7 l-53 -14 6 51 c11 95 -31 183 -103 212 -41 17 -36 18 -61 -9z"/>
</g>
</svg>
