<?xml version="1.0" standalone="no"?>
<!DOCTYPE svg PUBLIC "-//W3C//DTD SVG 20010904//EN"
 "http://www.w3.org/TR/2001/REC-SVG-20010904/DTD/svg10.dtd">
<svg version="1.0" xmlns="http://www.w3.org/2000/svg"
 width="340.000000pt" height="340.000000pt" viewBox="0 0 340.000000 340.000000"
 preserveAspectRatio="xMidYMid meet">
<metadata>
Created by potrace 1.15, written by Peter Selinger 2001-2017
</metadata>
<g transform="translate(0.000000,340.000000) scale(0.100000,-0.100000)"
fill="#000000" stroke="none">
<path d="M1987 2629 c-13 -7 -18 -20 -16 -43 3 -27 -3 -39 -35 -67 -58 -51
-100 -159 -62 -159 38 0 147 44 191 78 79 60 99 126 51 171 -28 27 -101 38
-129 20z"/>
<path d="M1184 2525 c-15 -23 -15 -27 0 -50 9 -14 20 -25 25 -25 4 0 44 -34
87 -75 84 -80 111 -94 150 -76 19 8 24 18 24 46 0 20 -6 49 -14 64 -17 33
-104 95 -161 114 -84 29 -93 29 -111 2z"/>
<path d="M1920 2315 c-231 -30 -449 -68 -645 -111 -88 -20 -202 -41 -252 -47
-51 -6 -93 -14 -93 -17 0 -14 36 -38 64 -43 16 -2 94 4 174 15 79 10 150 17
157 14 17 -6 53 -103 57 -152 l3 -38 -75 -12 c-41 -6 -104 -19 -140 -29 -38
-10 -80 -14 -102 -11 -43 7 -88 -7 -88 -28 0 -8 20 -38 45 -67 68 -79 86 -138
96 -309 7 -135 25 -235 49 -281 13 -23 28 -23 117 -5 37 8 102 17 144 21 l77
7 6 -29 c6 -28 -8 -186 -20 -216 -3 -9 -40 -18 -107 -25 -167 -20 -419 -61
-628 -102 -108 -21 -205 -37 -215 -34 -25 7 -59 -19 -51 -39 9 -23 135 -41
252 -34 72 4 151 18 280 51 148 37 390 86 426 86 5 0 7 -12 3 -27 -25 -116
-74 -200 -180 -313 -85 -90 -167 -149 -281 -201 -103 -49 -123 -64 -123 -96 0
-28 7 -27 152 21 184 62 320 162 432 319 49 69 116 197 136 262 14 45 25 55
57 55 17 0 39 -24 92 -97 106 -151 215 -275 376 -432 115 -111 161 -149 209
-172 68 -32 189 -53 251 -44 130 19 185 41 185 75 0 30 -39 50 -97 50 -62 0
-185 37 -302 91 -152 71 -238 137 -441 342 -105 104 -188 192 -186 194 2 2 55
10 117 19 157 21 647 30 764 15 50 -7 118 -15 152 -18 l63 -6 15 37 c20 46 8
70 -42 88 -72 25 -445 16 -810 -20 -177 -18 -327 -32 -335 -32 -10 0 -13 26
-13 113 0 61 3 117 7 123 4 6 55 14 115 17 93 5 295 45 311 62 3 3 -3 15 -14
26 -18 21 -24 21 -184 15 -212 -8 -418 -38 -615 -92 -19 -5 -20 0 -21 143 -2
153 -17 251 -56 372 -17 53 -18 65 -7 72 8 5 56 9 108 9 92 0 93 0 86 -22 -35
-110 -40 -238 -9 -238 23 0 77 54 94 95 10 22 26 75 36 117 l17 77 49 11 c27
5 67 10 88 10 37 0 39 -2 46 -37 10 -54 39 -107 68 -127 33 -21 130 -46 181
-46 56 0 77 17 73 60 -3 32 -6 34 -88 64 -62 23 -88 38 -97 56 -34 68 -6 84
136 78 58 -3 118 -10 134 -16 l27 -12 0 -127 c-1 -122 -11 -329 -26 -513 -6
-76 -4 -88 14 -110 20 -24 21 -24 55 -8 41 20 40 17 61 243 9 94 21 213 28
266 12 109 7 244 -14 304 -11 34 -20 42 -63 58 -86 33 -244 33 -327 2 -22 -9
-34 16 -42 85 -11 88 -7 89 171 100 84 5 181 14 218 21 57 10 66 14 72 37 3
14 1 32 -4 41 -16 25 -150 23 -353 -4z m-200 -141 c0 -47 -23 -164 -34 -173
-10 -7 -136 -31 -165 -31 -6 0 -11 15 -11 34 0 18 -13 60 -30 92 -16 32 -30
60 -30 60 0 6 172 34 258 43 7 0 12 -10 12 -25z"/>
<path d="M1760 1596 c-3 -3 -50 -12 -105 -20 -145 -22 -258 -55 -245 -71 17
-20 52 -23 178 -14 109 7 186 22 256 49 30 11 30 11 10 31 -19 19 -83 36 -94
25z"/>
</g>
</svg>
