<?xml version="1.0" standalone="no"?>
<!DOCTYPE svg PUBLIC "-//W3C//DTD SVG 20010904//EN"
 "http://www.w3.org/TR/2001/REC-SVG-20010904/DTD/svg10.dtd">
<svg version="1.0" xmlns="http://www.w3.org/2000/svg"
 width="340.000000pt" height="340.000000pt" viewBox="0 0 340.000000 340.000000"
 preserveAspectRatio="xMidYMid meet">
<metadata>
Created by potrace 1.15, written by Peter Selinger 2001-2017
</metadata>
<g transform="translate(0.000000,340.000000) scale(0.100000,-0.100000)"
fill="#000000" stroke="none">
<path d="M1504 2520 c-48 -11 -57 -19 -51 -54 3 -17 0 -41 -6 -52 -7 -12 -79
-96 -161 -187 -109 -123 -154 -167 -171 -167 -12 0 -28 -6 -35 -14 -8 -11 -24
-13 -60 -9 -46 5 -49 4 -55 -20 -5 -18 3 -44 29 -93 66 -129 90 -224 101 -399
9 -149 34 -371 45 -401 12 -30 54 -33 70 -5 29 54 -20 763 -56 802 -8 8 -14
25 -14 37 0 26 13 30 250 72 96 17 186 33 200 36 l25 4 4 -167 c3 -93 5 -190
5 -218 l1 -50 -182 -60 c-101 -33 -183 -65 -183 -70 0 -39 55 -44 162 -16 83
22 148 32 148 24 0 -3 -39 -47 -87 -97 -80 -83 -173 -206 -173 -228 0 -9 22
-12 59 -9 44 4 158 100 240 201 l20 25 1 -127 0 -128 -29 0 c-34 0 -61 -23
-61 -50 0 -11 11 -36 25 -56 14 -20 25 -47 25 -60 0 -26 18 -21 -232 -64 -98
-17 -284 -50 -414 -75 -130 -25 -263 -45 -296 -45 -59 0 -118 -21 -118 -41 0
-6 15 -26 34 -45 32 -32 39 -34 98 -34 81 0 227 25 338 57 129 38 530 133 559
133 5 0 1 -33 -10 -73 -47 -172 -216 -345 -478 -489 -37 -20 -60 -63 -43 -80
15 -15 137 28 255 90 188 98 356 303 422 513 21 66 1 59 240 84 176 18 534 24
725 11 122 -8 138 -7 153 8 23 23 21 72 -3 96 -18 18 -33 20 -184 20 -194 0
-407 -13 -639 -40 -215 -25 -264 -26 -270 -2 -30 111 -29 107 -9 173 30 98 45
215 38 300 l-6 77 77 17 c79 17 204 64 238 89 18 13 17 15 -13 30 -41 21 -103
20 -204 -4 -46 -11 -86 -20 -90 -20 -4 0 -8 80 -10 178 -3 172 -4 178 -27 201
-22 22 -23 25 -7 36 40 30 255 44 374 25 84 -14 222 -58 228 -73 6 -17 -73
-648 -91 -727 -14 -60 -13 -167 2 -206 3 -8 21 -16 41 -20 52 -10 78 24 87
113 21 216 48 453 71 634 31 233 30 240 -35 312 -65 72 -97 82 -256 81 -157
-1 -410 -35 -638 -85 -77 -17 -142 -28 -145 -24 -4 3 44 54 106 113 111 106
140 148 156 228 6 25 3 34 -16 46 -32 20 -58 25 -94 18z"/>
<path d="M1966 1983 c-23 -26 -58 -63 -78 -83 -43 -42 -61 -81 -52 -116 6 -22
10 -24 38 -18 83 17 207 103 225 156 16 45 14 56 -14 83 -38 39 -72 33 -119
-22z"/>
<path d="M1305 1897 c-9 -35 15 -75 80 -135 65 -59 106 -72 154 -48 l31 17
-21 42 c-42 83 -108 132 -193 143 -42 6 -45 5 -51 -19z"/>
<path d="M1790 1480 c0 -26 34 -72 73 -99 24 -16 50 -37 58 -47 25 -30 91 -54
151 -54 l57 0 -14 48 c-17 57 -67 107 -122 121 -60 15 -180 41 -192 41 -6 0
-11 -5 -11 -10z"/>
<path d="M1730 685 c0 -18 24 -47 51 -61 82 -42 291 -205 383 -299 67 -67 126
-117 174 -145 70 -41 73 -42 97 -26 41 27 51 60 32 101 -29 61 -287 259 -437
335 -87 44 -300 111 -300 95z"/>
</g>
</svg>
