<?xml version="1.0" standalone="no"?>
<!DOCTYPE svg PUBLIC "-//W3C//DTD SVG 20010904//EN"
 "http://www.w3.org/TR/2001/REC-SVG-20010904/DTD/svg10.dtd">
<svg version="1.0" xmlns="http://www.w3.org/2000/svg"
 width="340.000000pt" height="340.000000pt" viewBox="0 0 340.000000 340.000000"
 preserveAspectRatio="xMidYMid meet">
<metadata>
Created by potrace 1.15, written by Peter Selinger 2001-2017
</metadata>
<g transform="translate(0.000000,340.000000) scale(0.100000,-0.100000)"
fill="#000000" stroke="none">
<path d="M1366 2361 c-16 -18 -16 -20 5 -40 50 -47 285 -125 316 -105 46 29
41 81 -9 112 -81 50 -278 71 -312 33z"/>
<path d="M2095 2184 c-71 -14 -335 -63 -585 -111 -288 -55 -484 -87 -534 -88
-73 -2 -95 -10 -96 -37 0 -20 85 -33 219 -33 l144 0 -7 -98 c-4 -54 -18 -139
-32 -190 -40 -149 -40 -142 -5 -178 28 -28 36 -30 79 -26 26 3 86 19 134 36
169 61 407 103 656 117 l124 7 16 34 c18 39 11 59 -29 81 -50 28 -390 -14
-678 -84 -84 -20 -154 -34 -155 -32 -2 1 0 28 5 58 12 87 10 203 -5 253 l-14
47 37 10 c197 53 678 120 861 120 50 0 59 3 88 33 41 42 41 72 2 92 -38 20
-69 18 -225 -11z"/>
<path d="M1492 1417 c-20 -9 -23 -16 -17 -41 19 -92 18 -102 -10 -125 -39 -30
-55 -33 -476 -101 -296 -48 -382 -58 -403 -50 -28 10 -126 14 -126 5 0 -3 11
-28 25 -56 28 -54 45 -64 137 -81 72 -13 142 -1 313 52 131 40 422 106 431 97
7 -7 -102 -165 -142 -208 -30 -31 -33 -39 -25 -61 8 -21 19 -27 58 -32 26 -4
120 -28 207 -54 l159 -46 -44 -39 c-127 -111 -276 -197 -443 -253 -105 -36
-136 -55 -136 -86 0 -16 6 -17 43 -13 195 26 286 56 421 138 104 62 226 146
263 180 l22 20 78 -34 c174 -76 478 -267 542 -342 41 -46 101 -76 154 -77 l37
0 0 45 c0 50 -25 108 -62 142 -33 31 -369 216 -523 288 l-131 61 67 82 c80 99
123 178 160 292 l27 85 74 8 c88 10 403 2 546 -14 102 -11 104 -11 128 12 35
33 32 72 -8 101 -33 23 -36 23 -298 22 -167 -1 -305 -7 -373 -16 -88 -12 -111
-12 -125 -1 -25 18 -63 16 -86 -6 -16 -14 -48 -22 -126 -30 -58 -6 -124 -14
-146 -17 -41 -6 -41 -5 -37 20 7 35 -23 112 -50 131 -25 17 -72 18 -105 2z
m448 -242 c11 -13 6 -28 -24 -91 -38 -77 -132 -208 -183 -257 l-30 -27 -56 25
c-32 14 -97 34 -145 46 -48 11 -99 23 -114 27 -27 7 -27 8 78 133 l105 127
112 11 c62 6 132 13 157 14 25 2 55 4 66 5 12 1 27 -5 34 -13z"/>
</g>
</svg>
