<?xml version="1.0" standalone="no"?>
<!DOCTYPE svg PUBLIC "-//W3C//DTD SVG 20010904//EN"
 "http://www.w3.org/TR/2001/REC-SVG-20010904/DTD/svg10.dtd">
<svg version="1.0" xmlns="http://www.w3.org/2000/svg"
 width="340.000000pt" height="340.000000pt" viewBox="0 0 340.000000 340.000000"
 preserveAspectRatio="xMidYMid meet">
<metadata>
Created by potrace 1.15, written by Peter Selinger 2001-2017
</metadata>
<g transform="translate(0.000000,340.000000) scale(0.100000,-0.100000)"
fill="#000000" stroke="none">
<path d="M980 2136 c0 -25 9 -45 30 -69 33 -38 49 -96 42 -148 -15 -115 -137
-598 -156 -616 -14 -14 -395 -112 -437 -113 -51 0 -139 -27 -139 -42 0 -5 15
-25 34 -44 31 -31 39 -34 94 -34 81 0 214 24 303 56 123 43 114 43 90 -4 -25
-50 -61 -192 -61 -244 0 -37 1 -38 38 -38 30 0 51 -12 115 -61 l78 -61 -186
-189 c-103 -104 -185 -195 -182 -202 7 -21 50 -8 118 38 77 51 224 173 289
239 24 25 49 46 56 46 16 0 277 -253 334 -323 50 -62 84 -73 120 -37 21 21 20
50 -3 95 -16 31 -223 240 -309 312 -43 36 -78 68 -78 73 0 5 19 41 42 82 87
153 218 505 218 585 0 45 -23 97 -51 117 -15 10 -44 16 -78 16 l-54 0 6 -46
c3 -28 13 -54 27 -69 l23 -25 -44 -20 c-24 -11 -52 -20 -61 -20 -10 0 -51 -11
-93 -24 -41 -13 -75 -20 -75 -16 0 5 18 75 41 157 22 81 60 228 84 325 37 152
42 183 33 220 -16 73 -48 95 -165 113 l-43 7 0 -36z m257 -949 c-34 -105 -148
-357 -163 -357 -3 0 -38 16 -78 35 -40 19 -87 38 -104 41 -18 4 -32 10 -32 14
0 9 119 292 125 298 15 15 271 99 279 92 6 -6 -6 -55 -27 -123z"/>
<path d="M2375 1966 c-153 -30 -307 -68 -443 -111 -59 -19 -117 -35 -130 -35
-13 0 -32 -5 -43 -10 -14 -8 -25 -7 -41 5 -29 20 -55 19 -66 -2 -7 -12 1 -31
35 -77 90 -121 135 -245 167 -456 17 -109 73 -310 87 -310 12 0 39 42 39 61 0
9 8 20 18 24 9 4 113 19 229 34 208 27 213 27 225 9 23 -34 44 -10 106 120 85
178 165 397 212 582 13 51 -4 104 -46 138 -70 58 -153 65 -349 28z m185 -117
l33 -12 -6 -78 c-10 -130 -47 -329 -81 -434 l-32 -100 -124 -11 c-126 -12
-236 -31 -322 -57 -43 -13 -48 -13 -52 2 -8 23 -26 189 -26 233 l0 37 78 0
c42 0 99 5 126 11 60 13 146 49 146 61 0 4 -10 17 -22 29 -33 30 -88 25 -223
-20 -65 -22 -120 -40 -121 -40 -1 0 -4 18 -8 40 -10 61 -44 145 -82 202 -19
28 -33 52 -31 54 5 5 246 45 417 69 187 26 282 30 330 14z"/>
<path d="M2615 823 c-288 -24 -598 -66 -806 -108 -313 -64 -326 -68 -298 -101
12 -14 27 -16 119 -10 147 9 332 31 560 67 321 50 579 49 695 -2 57 -25 109
-22 155 11 39 28 38 53 -3 84 -63 48 -102 58 -246 60 -75 2 -154 1 -176 -1z"/>
</g>
</svg>
