<?xml version="1.0" standalone="no"?>
<!DOCTYPE svg PUBLIC "-//W3C//DTD SVG 20010904//EN"
 "http://www.w3.org/TR/2001/REC-SVG-20010904/DTD/svg10.dtd">
<svg version="1.0" xmlns="http://www.w3.org/2000/svg"
 width="340.000000pt" height="340.000000pt" viewBox="0 0 340.000000 340.000000"
 preserveAspectRatio="xMidYMid meet">
<metadata>
Created by potrace 1.15, written by Peter Selinger 2001-2017
</metadata>
<g transform="translate(0.000000,340.000000) scale(0.100000,-0.100000)"
fill="#000000" stroke="none">
<path d="M2050 2506 c0 -67 -14 -91 -72 -129 -29 -19 -72 -53 -96 -77 -47 -47
-98 -127 -88 -137 10 -10 136 28 194 58 69 37 219 146 226 165 10 25 7 84 -5
106 -13 25 -84 57 -126 58 -32 0 -33 -1 -33 -44z"/>
<path d="M1234 2379 c11 -58 114 -177 170 -199 35 -13 96 -3 104 18 3 8 -7 40
-23 69 -34 65 -90 107 -171 128 -83 22 -88 21 -80 -16z"/>
<path d="M2105 2134 c-144 -38 -382 -84 -435 -84 -26 0 -76 -9 -111 -20 -69
-21 -324 -70 -365 -70 -28 0 -31 -12 -8 -34 28 -29 67 -30 251 -7 100 13 186
20 191 17 14 -8 42 -134 42 -185 0 -29 -5 -41 -17 -44 -28 -8 -154 -33 -310
-63 -122 -22 -143 -29 -143 -44 0 -32 28 -50 78 -50 59 0 230 24 318 45 37 8
68 14 69 13 1 -2 5 -48 9 -103 l7 -101 -198 -37 c-281 -53 -308 -60 -308 -77
0 -20 181 -26 330 -10 107 12 109 12 127 -10 10 -12 18 -30 18 -41 0 -20 -126
-214 -156 -240 -22 -19 -375 -65 -780 -103 -185 -17 -247 -26 -268 -39 -15
-10 -25 -21 -22 -25 11 -19 117 -63 169 -72 61 -10 74 -8 312 39 177 35 438
74 465 69 16 -3 11 -13 -31 -71 -28 -38 -51 -81 -52 -95 l-2 -27 81 -2 c70 -2
93 -8 183 -46 l103 -44 -239 -155 c-131 -85 -252 -163 -270 -173 -76 -44 24
-48 132 -5 150 60 310 148 438 242 l68 51 92 -38 c215 -89 430 -199 605 -312
45 -29 90 -53 98 -53 8 0 28 7 44 15 39 20 39 54 0 98 -53 61 -348 209 -622
312 l-137 52 30 29 c43 40 177 208 218 273 l35 54 350 -7 c193 -4 370 -9 393
-12 36 -5 46 -2 68 20 37 37 30 66 -20 83 -123 44 -267 53 -450 28 -60 -8
-155 -15 -210 -14 l-100 0 -20 31 c-31 48 -48 55 -90 35 -20 -9 -33 -22 -30
-28 4 -5 0 -20 -8 -33 -14 -21 -28 -24 -149 -35 -73 -7 -150 -15 -172 -18
l-38 -6 45 62 c60 81 91 162 83 218 -7 50 -10 49 130 58 94 6 244 27 327 46
39 9 47 15 47 34 0 43 -20 48 -155 41 -69 -4 -182 -15 -252 -26 -71 -10 -129
-17 -131 -15 -4 3 27 195 33 205 3 4 31 11 62 15 75 9 202 49 278 87 l59 30
-27 24 c-16 13 -38 24 -50 24 -12 0 -88 -17 -169 -37 -81 -21 -149 -36 -151
-33 -2 3 -7 55 -10 116 l-5 111 91 16 c133 25 225 37 283 37 95 0 152 64 103
116 -27 29 -39 29 -154 -2z m-145 -1198 c0 -14 -86 -127 -182 -237 l-48 -57
-118 30 c-64 16 -134 34 -155 39 l-38 10 23 32 c88 127 146 166 244 168 46 1
221 19 267 28 4 0 7 -5 7 -13z"/>
</g>
</svg>
