<?xml version="1.0" standalone="no"?>
<!DOCTYPE svg PUBLIC "-//W3C//DTD SVG 20010904//EN"
 "http://www.w3.org/TR/2001/REC-SVG-20010904/DTD/svg10.dtd">
<svg version="1.0" xmlns="http://www.w3.org/2000/svg"
 width="340.000000pt" height="340.000000pt" viewBox="0 0 340.000000 340.000000"
 preserveAspectRatio="xMidYMid meet">
<metadata>
Created by potrace 1.15, written by Peter Selinger 2001-2017
</metadata>
<g transform="translate(0.000000,340.000000) scale(0.100000,-0.100000)"
fill="#000000" stroke="none">
<path d="M1933 2428 c-50 -13 -58 -39 -29 -95 13 -27 31 -72 40 -102 16 -55
22 -197 8 -217 -9 -14 -149 -47 -312 -74 -69 -11 -128 -20 -132 -20 -3 0 -4
-9 -1 -20 9 -35 63 -41 222 -24 80 8 163 19 185 24 22 5 44 7 48 4 14 -9 10
-170 -4 -181 -7 -6 -96 -32 -198 -58 -102 -26 -189 -51 -193 -55 -5 -4 -4 -17
2 -29 15 -27 40 -27 221 4 80 14 151 25 158 25 14 0 17 -136 4 -157 -8 -13
-229 -77 -304 -88 -25 -4 -50 -10 -57 -14 -7 -5 -19 -50 -26 -102 -7 -52 -19
-109 -25 -127 -13 -34 -10 -175 3 -188 4 -4 35 5 69 21 108 48 185 74 237 81
49 6 51 6 51 -18 0 -50 -41 -185 -80 -265 -22 -45 -66 -114 -97 -153 -60 -75
-177 -177 -244 -211 -38 -19 -99 -90 -99 -114 0 -16 53 -5 130 25 206 81 415
331 477 571 9 38 21 69 25 69 5 0 23 -21 41 -47 118 -171 270 -356 417 -505
84 -85 119 -113 173 -138 80 -38 181 -56 259 -46 49 6 57 11 62 32 10 37 -10
62 -57 74 -48 13 -122 50 -257 128 -83 48 -119 79 -280 241 -234 235 -334 342
-342 362 -17 45 61 82 246 114 106 18 326 21 326 4 0 -7 -25 -63 -56 -126 -50
-104 -57 -114 -77 -109 -81 24 -99 18 -112 -37 -6 -23 -1 -34 38 -72 57 -57
102 -61 165 -15 80 58 219 391 182 435 -8 9 -37 30 -65 46 -41 24 -61 29 -117
29 -37 0 -79 -5 -95 -11 -15 -6 -91 -26 -168 -45 -77 -19 -162 -42 -189 -51
-59 -19 -66 -12 -65 62 2 96 1 96 125 125 162 38 262 77 281 109 9 14 49 58
89 97 56 55 74 79 80 108 7 42 -15 106 -38 106 -7 1 -46 5 -86 9 -98 12 -215
-3 -314 -39 -45 -16 -83 -28 -85 -26 -6 6 -5 144 1 164 8 23 120 49 351 82 76
11 149 27 161 35 29 19 38 49 24 75 -10 19 -17 21 -68 15 -112 -12 -199 -27
-317 -56 -66 -16 -127 -29 -136 -29 -14 0 -16 10 -12 68 6 78 -15 179 -51 250
-36 70 -59 85 -113 70z m491 -726 c3 -5 -8 -28 -25 -53 -16 -24 -36 -63 -45
-85 l-16 -42 -76 -11 c-43 -6 -103 -18 -134 -25 -32 -7 -60 -11 -63 -8 -8 8
-5 83 5 126 11 48 16 51 108 72 134 30 237 41 246 26z m-494 -386 c13 -17 5
-110 -14 -146 -7 -15 -36 -32 -86 -50 -41 -15 -99 -37 -129 -49 l-53 -22 6 28
c3 15 9 70 12 121 8 106 -4 95 138 117 108 17 112 17 126 1z"/>
<path d="M1098 2164 c-35 -18 -38 -62 -7 -103 20 -28 20 -30 5 -122 -24 -136
-60 -285 -107 -435 l-42 -132 -101 -31 c-84 -26 -184 -48 -393 -87 -17 -3 -23
-11 -23 -32 0 -37 10 -49 53 -67 36 -15 43 -14 133 10 52 14 133 39 180 56 48
17 88 28 91 25 3 -2 -2 -37 -11 -78 -8 -40 -17 -98 -20 -129 l-4 -56 89 -74
c49 -41 89 -77 89 -80 0 -3 -55 -55 -122 -117 -197 -178 -266 -251 -248 -262
8 -5 24 -7 35 -4 55 16 242 147 350 247 l77 70 26 -34 c50 -65 137 -152 211
-211 70 -56 74 -58 92 -42 11 9 19 27 19 40 0 26 -82 128 -202 252 l-81 83 61
122 c69 139 113 270 136 406 23 133 21 168 -10 208 -45 59 -104 34 -104 -44 0
-57 -23 -78 -112 -107 -69 -21 -78 -22 -78 -7 0 9 26 104 58 211 33 107 71
245 87 307 l27 112 -21 45 c-17 34 -31 48 -62 60 -46 19 -38 19 -71 0z m140
-826 c5 -45 -45 -214 -95 -320 -25 -54 -49 -97 -52 -95 -3 1 -45 22 -93 46
-49 24 -88 47 -88 51 0 4 23 56 50 116 28 60 57 123 64 139 11 25 27 35 97 61
46 18 91 31 99 30 8 0 16 -13 18 -28z"/>
</g>
</svg>
