<?xml version="1.0" standalone="no"?>
<!DOCTYPE svg PUBLIC "-//W3C//DTD SVG 20010904//EN"
 "http://www.w3.org/TR/2001/REC-SVG-20010904/DTD/svg10.dtd">
<svg version="1.0" xmlns="http://www.w3.org/2000/svg"
 width="340.000000pt" height="340.000000pt" viewBox="0 0 340.000000 340.000000"
 preserveAspectRatio="xMidYMid meet">
<metadata>
Created by potrace 1.15, written by Peter Selinger 2001-2017
</metadata>
<g transform="translate(0.000000,340.000000) scale(0.100000,-0.100000)"
fill="#000000" stroke="none">
<path d="M2175 2540 c-3 -6 -4 -19 0 -29 5 -16 -7 -27 -62 -58 -37 -21 -126
-63 -198 -94 -163 -70 -222 -100 -308 -155 -108 -70 -68 -84 99 -34 54 16 105
30 113 30 20 0 9 -168 -15 -240 -18 -51 -23 -57 -74 -82 -30 -15 -113 -46
-185 -70 -71 -23 -132 -44 -134 -45 -2 -2 4 -12 15 -24 16 -18 27 -20 74 -16
30 3 95 16 143 30 l89 26 -6 -25 c-4 -14 -29 -71 -57 -128 -37 -73 -72 -126
-126 -186 -196 -222 -303 -349 -303 -359 0 -17 52 -13 85 7 48 30 199 177 280
273 41 49 77 85 79 80 3 -5 16 -49 28 -97 45 -188 16 -449 -65 -584 -19 -30
-41 -74 -51 -98 -21 -54 -33 -162 -18 -162 28 0 116 120 172 234 78 160 100
241 107 391 10 220 -23 318 -118 346 -21 7 -39 14 -39 16 0 5 134 233 177 303
41 66 65 65 139 -7 90 -88 310 -292 491 -455 178 -162 191 -169 348 -189 104
-14 149 -4 153 35 5 37 -21 63 -77 80 -62 18 -259 117 -340 171 -83 55 -218
163 -339 272 -52 47 -116 100 -143 120 -27 19 -47 38 -44 43 14 22 262 70 366
70 94 0 159 55 129 109 -12 24 -5 24 -213 -10 -64 -10 -183 -34 -263 -54 -81
-19 -147 -35 -149 -35 -1 0 6 37 17 83 18 74 21 170 7 216 -3 9 30 27 101 57
58 24 143 63 190 86 85 43 85 43 88 84 4 57 -29 84 -104 84 -29 0 -56 -5 -59
-10z"/>
<path d="M977 2423 c-13 -13 -7 -58 13 -91 29 -47 26 -127 -9 -253 -32 -113
-130 -401 -160 -471 l-18 -43 -114 -37 c-63 -20 -164 -47 -224 -59 -61 -12
-111 -23 -113 -25 -9 -6 30 -75 50 -87 50 -33 87 -31 213 12 66 23 123 41 127
41 4 0 1 -15 -7 -32 -16 -39 -45 -176 -45 -213 0 -22 3 -24 19 -15 35 18 60
11 146 -46 l84 -57 -115 -125 c-63 -68 -145 -161 -180 -205 -54 -66 -62 -82
-50 -89 10 -5 25 -4 38 3 52 27 199 150 290 243 l97 98 48 -40 c60 -50 226
-221 278 -286 41 -50 75 -70 105 -61 23 7 34 50 19 78 -25 48 -162 207 -266
309 l-110 106 34 54 c117 182 233 508 233 654 0 72 -43 124 -104 124 -32 0
-36 -15 -36 -124 l0 -93 -62 -13 c-35 -8 -96 -23 -135 -36 -55 -16 -73 -19
-73 -9 0 25 42 150 85 249 61 143 93 254 107 361 13 105 6 128 -55 165 -31 19
-97 27 -110 13z m213 -847 c0 -14 -14 -62 -30 -108 -37 -98 -150 -338 -161
-338 -4 0 -37 13 -73 30 -37 16 -85 35 -107 41 -37 12 -40 15 -35 40 3 16 27
77 53 136 l48 108 140 57 c77 31 146 57 153 57 6 1 12 -10 12 -23z"/>
<path d="M2139 1528 c-16 -27 -19 -45 -15 -103 15 -235 36 -672 46 -934 6
-167 15 -312 21 -322 5 -11 20 -19 33 -19 19 0 25 7 31 33 4 17 9 270 12 562
4 435 2 553 -11 660 -16 138 -24 155 -73 155 -15 0 -30 -11 -44 -32z"/>
</g>
</svg>
