<?xml version="1.0" standalone="no"?>
<!DOCTYPE svg PUBLIC "-//W3C//DTD SVG 20010904//EN"
 "http://www.w3.org/TR/2001/REC-SVG-20010904/DTD/svg10.dtd">
<svg version="1.0" xmlns="http://www.w3.org/2000/svg"
 width="340.000000pt" height="340.000000pt" viewBox="0 0 340.000000 340.000000"
 preserveAspectRatio="xMidYMid meet">
<metadata>
Created by potrace 1.15, written by Peter Selinger 2001-2017
</metadata>
<g transform="translate(0.000000,340.000000) scale(0.100000,-0.100000)"
fill="#000000" stroke="none">
<path d="M1836 2487 c-13 -10 -16 -18 -10 -30 17 -29 248 -187 275 -187 34 0
49 17 49 58 0 49 -87 134 -160 156 -65 20 -130 21 -154 3z"/>
<path d="M1015 2339 c-11 -16 4 -61 32 -97 l25 -33 -27 -127 c-31 -149 -93
-393 -130 -509 l-25 -82 -78 -30 c-106 -40 -301 -92 -381 -99 l-66 -7 0 -35
c0 -45 34 -63 133 -68 82 -5 144 12 220 57 50 30 119 58 126 50 2 -2 -9 -44
-26 -92 -18 -56 -31 -120 -35 -173 -6 -80 -5 -84 15 -84 21 0 142 -104 142
-122 0 -6 -27 -39 -59 -74 -107 -114 -273 -345 -252 -352 36 -12 227 163 336
308 27 36 50 67 53 70 4 6 45 -39 194 -213 74 -86 107 -117 124 -117 25 0 54
24 54 44 0 47 -90 171 -229 315 -39 41 -71 77 -71 82 0 4 18 40 39 81 69 126
141 297 198 468 60 178 75 268 53 320 -14 34 -55 60 -93 60 -21 0 -26 -7 -36
-57 -6 -31 -11 -84 -11 -118 0 -34 -6 -69 -13 -79 -7 -9 -56 -30 -110 -45 -81
-24 -97 -26 -97 -14 0 18 81 284 140 458 64 189 54 274 -36 311 -39 17 -100
18 -109 3z m182 -857 c-6 -51 -71 -226 -138 -374 -24 -51 -44 -95 -46 -97 -1
-2 -29 7 -60 21 -32 14 -71 29 -86 32 -17 4 -27 12 -24 19 3 7 34 86 69 176
l63 164 110 53 c61 29 112 53 114 53 2 1 1 -20 -2 -47z"/>
<path d="M2296 2200 c-149 -29 -335 -76 -485 -122 -120 -37 -137 -40 -165 -29
-53 22 -72 23 -89 6 -21 -21 -22 -62 -2 -109 37 -87 68 -461 68 -811 0 -330
-16 -543 -69 -890 -8 -53 16 -84 72 -92 l40 -5 131 143 c252 277 312 354 329
423 l7 29 -64 -34 c-64 -34 -131 -96 -281 -260 l-77 -84 -1 230 c0 127 5 340
12 474 l12 245 20 -30 c71 -101 807 -733 909 -779 80 -37 176 -49 275 -35 69
10 86 16 98 35 12 18 13 29 5 44 -11 20 -34 29 -141 56 -104 26 -258 91 -353
147 -90 54 -316 218 -317 229 0 4 42 30 93 59 50 29 145 87 209 129 102 66
119 80 124 108 14 75 -42 130 -121 118 -56 -8 -73 -27 -58 -65 l11 -30 -169
-121 c-93 -67 -175 -119 -182 -116 -6 3 -70 48 -142 102 -71 53 -146 106 -165
118 l-35 21 45 9 c154 27 259 51 344 78 l97 30 40 62 c75 116 186 368 238 544
l22 72 -21 41 c-40 78 -100 92 -264 60z m130 -133 c11 -30 -108 -386 -182
-542 -18 -37 -22 -40 -64 -43 -77 -4 -207 -31 -302 -63 -51 -16 -104 -29 -118
-27 -25 3 -25 4 -28 113 -2 61 0 124 3 141 l5 31 90 6 c148 11 330 58 330 86
0 44 -49 51 -190 26 -47 -8 -120 -24 -164 -35 -43 -12 -80 -19 -81 -18 -1 2
-5 58 -9 124 l-6 122 112 21 c313 58 593 85 604 58z"/>
</g>
</svg>
