<?xml version="1.0" standalone="no"?>
<!DOCTYPE svg PUBLIC "-//W3C//DTD SVG 20010904//EN"
 "http://www.w3.org/TR/2001/REC-SVG-20010904/DTD/svg10.dtd">
<svg version="1.0" xmlns="http://www.w3.org/2000/svg"
 width="340.000000pt" height="340.000000pt" viewBox="0 0 340.000000 340.000000"
 preserveAspectRatio="xMidYMid meet">
<metadata>
Created by potrace 1.15, written by Peter Selinger 2001-2017
</metadata>
<g transform="translate(0.000000,340.000000) scale(0.100000,-0.100000)"
fill="#000000" stroke="none">
<path d="M1842 2394 c-27 -19 -28 -51 -2 -84 11 -14 20 -33 20 -44 0 -10 -29
-57 -64 -105 -129 -174 -256 -395 -238 -413 34 -34 125 56 333 335 111 148
119 162 119 203 0 25 -5 54 -10 65 -23 42 -121 69 -158 43z"/>
<path d="M1077 2243 c-17 -16 -5 -59 24 -89 l32 -33 -12 -123 c-14 -147 -45
-292 -96 -446 l-37 -112 -249 -81 c-176 -57 -257 -79 -277 -74 -38 8 -67 -14
-59 -46 8 -31 73 -69 119 -69 33 0 214 67 307 114 56 29 101 40 101 26 0 -6
-20 -77 -45 -157 -31 -101 -41 -150 -35 -158 6 -7 26 -15 45 -18 35 -6 143
-65 163 -90 9 -10 -26 -58 -149 -205 -88 -105 -158 -196 -154 -202 11 -17 39
-11 86 19 79 49 182 145 248 229 36 45 69 82 74 82 23 0 246 -259 264 -307 3
-7 -7 -33 -21 -59 -32 -57 -33 -74 -3 -74 32 0 236 206 331 333 40 54 102 149
136 210 35 62 75 134 91 162 l28 50 11 -30 c29 -73 33 -157 17 -366 -17 -230
-13 -278 31 -348 44 -71 86 -98 196 -126 147 -37 310 -50 458 -36 149 14 191
26 233 66 37 34 51 77 61 180 7 75 -12 145 -38 145 -42 0 -97 -83 -98 -147 0
-41 -48 -97 -98 -115 -25 -9 -91 -13 -197 -13 -177 0 -212 8 -337 72 l-66 35
-13 71 c-18 99 -15 253 6 372 20 115 13 162 -32 215 -14 17 -24 32 -22 34 2 2
47 15 99 30 91 24 191 55 246 76 l25 10 -20 26 c-12 15 -21 31 -21 36 0 5 29
54 65 107 36 54 81 134 100 177 l34 79 -27 29 c-40 42 -107 69 -172 69 -34 -1
-124 -20 -239 -52 -101 -29 -186 -49 -189 -46 -3 3 19 29 49 58 30 29 112 114
182 189 111 121 127 142 127 172 0 50 -8 64 -45 76 -42 14 -107 -7 -284 -91
-119 -57 -125 -61 -106 -75 20 -16 34 -15 158 2 27 4 47 3 47 -3 0 -5 -16 -25
-36 -44 -52 -49 -116 -142 -163 -236 -22 -45 -46 -85 -52 -89 -6 -3 -60 -17
-120 -30 -59 -12 -116 -27 -125 -32 -15 -8 -14 -12 10 -27 27 -18 27 -18 208
1 55 6 57 6 72 -24 24 -46 20 -113 -14 -229 -16 -57 -30 -105 -30 -107 0 -5
-94 -26 -115 -26 -9 0 -16 17 -20 48 -17 125 -61 213 -140 278 -37 30 -47 34
-64 24 -27 -14 -28 -59 -2 -92 11 -13 27 -52 35 -85 20 -76 83 -258 102 -296
19 -35 45 -29 90 19 61 65 76 33 30 -63 -62 -130 -238 -388 -265 -388 -4 0
-36 33 -71 74 -35 41 -103 115 -150 164 l-86 90 59 130 c68 148 154 404 188
552 l22 100 -21 47 c-16 38 -27 49 -54 56 -71 19 -81 2 -83 -141 -1 -83 -4
-100 -21 -117 -17 -17 -192 -75 -201 -66 -2 1 11 43 27 92 44 128 96 331 118
459 16 94 17 114 6 137 -24 48 -61 68 -124 68 -31 0 -60 -3 -63 -7z m1378
-615 c4 -3 -13 -40 -38 -80 -25 -41 -66 -117 -92 -169 -26 -52 -48 -95 -49
-96 -2 -2 -232 -43 -243 -43 0 0 7 22 18 50 29 76 34 146 15 219 -9 34 -16 66
-16 71 0 9 61 27 160 45 75 14 232 16 245 3z m-1161 -196 c11 -33 -140 -432
-163 -432 -3 0 -35 9 -69 20 -35 11 -75 20 -89 20 -21 0 -23 3 -17 23 13 42
112 308 116 312 7 7 192 74 205 74 6 1 14 -7 17 -17z"/>
</g>
</svg>
