<?xml version="1.0" standalone="no"?>
<!DOCTYPE svg PUBLIC "-//W3C//DTD SVG 20010904//EN"
 "http://www.w3.org/TR/2001/REC-SVG-20010904/DTD/svg10.dtd">
<svg version="1.0" xmlns="http://www.w3.org/2000/svg"
 width="340.000000pt" height="340.000000pt" viewBox="0 0 340.000000 340.000000"
 preserveAspectRatio="xMidYMid meet">
<metadata>
Created by potrace 1.15, written by Peter Selinger 2001-2017
</metadata>
<g transform="translate(0.000000,340.000000) scale(0.100000,-0.100000)"
fill="#000000" stroke="none">
<path d="M2225 2344 c-44 -8 -134 -28 -200 -45 -66 -18 -159 -41 -207 -53 -49
-11 -88 -24 -88 -28 0 -4 8 -14 17 -24 19 -18 33 -18 263 10 69 8 173 18 232
22 126 8 133 2 103 -75 -10 -25 -29 -86 -43 -136 -14 -49 -27 -91 -28 -93 -1
-1 -47 -9 -102 -18 -56 -8 -147 -28 -204 -45 -57 -17 -112 -33 -123 -35 -18
-5 -22 2 -33 54 -20 98 -73 192 -148 262 -46 42 -72 60 -87 58 -30 -4 -34 -42
-7 -81 12 -18 58 -120 104 -227 91 -215 104 -229 146 -172 19 26 31 31 89 37
146 15 415 66 433 82 10 9 18 29 18 45 0 17 12 44 30 66 43 54 113 181 134
244 18 52 18 55 1 92 -27 57 -66 76 -150 75 -38 0 -106 -7 -150 -15z"/>
<path d="M1056 2264 c-11 -30 -6 -49 30 -101 32 -46 35 -58 32 -100 -5 -52
-74 -325 -133 -525 -37 -124 -38 -127 -74 -141 -61 -25 -250 -76 -373 -101
-65 -14 -122 -27 -128 -31 -18 -11 -11 -71 10 -90 46 -42 152 -26 369 56 57
21 106 37 108 36 5 -6 -27 -159 -44 -204 -13 -35 -13 -48 -3 -73 7 -16 17 -30
22 -30 6 0 41 -30 79 -67 91 -88 91 -96 -7 -210 -94 -107 -198 -263 -185 -276
5 -5 20 -7 33 -4 26 7 174 147 265 251 l60 69 101 -121 c55 -67 111 -136 125
-153 20 -26 29 -31 51 -25 39 10 51 44 32 89 -22 54 -102 162 -178 243 l-68
71 64 134 c114 240 204 515 213 651 l6 77 -36 36 c-25 25 -44 35 -66 35 -34 0
-34 1 -48 -149 -8 -83 -8 -84 -43 -102 -45 -23 -184 -59 -188 -49 -2 4 22 90
52 191 108 358 134 466 126 506 -11 48 -39 84 -81 105 -44 23 -115 24 -123 2z
m228 -859 c15 -39 -147 -477 -185 -501 -6 -4 -166 82 -186 100 -2 1 28 76 65
165 l67 163 110 43 c128 51 121 49 129 30z"/>
<path d="M2215 1610 c-104 -27 -266 -71 -358 -99 -92 -28 -178 -51 -190 -51
-36 0 -54 -16 -41 -37 10 -15 25 -18 95 -17 46 0 115 6 152 14 37 7 70 10 74
7 12 -13 15 -178 4 -256 -6 -47 -12 -86 -14 -87 -2 -2 -73 -24 -158 -49 -202
-60 -342 -106 -352 -115 -5 -4 -4 -17 2 -29 9 -16 21 -21 50 -21 38 0 238 42
359 76 34 9 64 15 67 12 7 -7 -44 -176 -67 -223 -62 -122 -183 -251 -328 -347
-64 -43 -98 -72 -104 -90 -5 -15 -7 -30 -4 -34 12 -12 120 18 191 53 116 58
257 212 351 384 30 56 55 115 102 249 3 9 22 -18 49 -68 90 -169 228 -354 370
-498 134 -136 234 -178 405 -172 77 3 84 5 104 31 20 27 20 27 1 45 -11 10
-60 33 -110 51 -49 19 -136 56 -192 83 -89 43 -115 62 -218 160 -98 94 -217
229 -338 386 l-28 37 52 17 c105 36 261 59 434 65 185 6 225 16 225 56 0 12
-7 33 -16 45 -14 21 -22 22 -148 22 -143 0 -260 -16 -396 -54 -89 -26 -166
-36 -163 -23 26 126 26 216 -3 286 -8 19 -11 38 -7 41 5 4 40 15 78 24 39 9
133 38 210 64 143 48 163 63 135 97 -20 24 -73 17 -275 -35z"/>
</g>
</svg>
