<?xml version="1.0" standalone="no"?>
<!DOCTYPE svg PUBLIC "-//W3C//DTD SVG 20010904//EN"
 "http://www.w3.org/TR/2001/REC-SVG-20010904/DTD/svg10.dtd">
<svg version="1.0" xmlns="http://www.w3.org/2000/svg"
 width="340.000000pt" height="340.000000pt" viewBox="0 0 340.000000 340.000000"
 preserveAspectRatio="xMidYMid meet">
<metadata>
Created by potrace 1.15, written by Peter Selinger 2001-2017
</metadata>
<g transform="translate(0.000000,340.000000) scale(0.100000,-0.100000)"
fill="#000000" stroke="none">
<path d="M1823 2514 c-15 -23 -15 -30 -3 -58 8 -18 16 -77 18 -143 3 -110 3
-113 -20 -123 -33 -14 -261 -75 -340 -90 -38 -8 -68 -18 -68 -24 0 -6 7 -57
16 -112 17 -100 17 -103 -6 -195 -28 -119 -83 -283 -126 -378 -26 -57 -31 -77
-23 -87 20 -24 38 -15 83 42 145 186 240 500 192 639 -9 27 -16 52 -16 56 0 3
42 14 93 23 50 9 114 21 141 27 74 14 73 19 60 -168 l-7 -113 -82 -25 c-46
-14 -88 -25 -94 -25 -9 0 -9 -5 -1 -20 18 -35 64 -38 189 -14 131 26 311 47
320 39 3 -3 -35 -46 -85 -96 l-90 -90 -104 24 c-223 52 -270 55 -270 18 0 -12
37 -31 135 -70 74 -29 133 -57 130 -61 -3 -5 -29 -22 -58 -38 -28 -17 -90 -61
-137 -99 l-84 -68 3 -52 c3 -58 -9 -85 -68 -161 -49 -61 -77 -77 -151 -85 -30
-3 -207 -22 -393 -41 -205 -22 -359 -34 -390 -30 -59 7 -107 -8 -107 -32 0
-30 43 -86 76 -100 46 -19 84 -18 221 11 116 24 433 77 541 90 l54 7 -16 -31
c-9 -17 -29 -45 -44 -63 -37 -43 -44 -62 -32 -93 8 -20 16 -25 45 -25 49 0
177 -27 242 -51 112 -43 73 -73 -420 -334 -105 -56 -147 -83 -145 -94 5 -28
54 -23 178 18 201 68 369 157 527 282 l61 49 86 -31 c165 -60 478 -232 588
-324 15 -13 41 -26 58 -30 40 -9 100 11 100 34 0 30 -51 120 -79 140 -30 22
-545 248 -605 266 -22 7 -41 16 -43 21 -2 6 24 41 57 80 33 38 87 108 120 155
l59 86 128 7 c137 7 374 -6 513 -28 107 -18 135 -8 135 44 0 40 -14 49 -116
77 -72 19 -204 22 -466 8 l-163 -8 0 29 c0 48 -34 92 -80 104 -59 16 -84 0
-77 -48 3 -21 9 -47 12 -59 11 -34 -68 -53 -224 -53 l-125 0 26 27 c59 64 71
123 38 188 -11 21 -19 39 -17 40 1 1 45 24 97 50 52 26 125 65 162 87 l66 39
59 -29 c88 -45 322 -142 342 -142 25 0 61 29 61 50 0 10 -16 32 -37 50 -41 36
-190 112 -269 137 l-53 16 60 58 c71 68 111 147 113 223 l1 51 -65 22 c-98 34
-168 28 -282 -22 -15 -6 -18 -2 -18 26 0 61 22 204 34 215 27 27 246 48 304
29 18 -5 19 -10 10 -36 -15 -44 8 -64 71 -63 95 3 161 60 161 138 0 34 -2 35
-67 58 -90 30 -279 33 -360 5 -29 -10 -63 -17 -75 -15 -22 3 -23 7 -20 72 2
41 -4 90 -13 122 -31 107 -112 159 -152 98z m78 -1636 c-17 -24 -64 -78 -104
-121 l-72 -79 -90 26 c-49 15 -123 30 -164 34 l-73 7 83 88 84 87 183 0 183 0
-30 -42z"/>
<path d="M946 2312 c-11 -18 3 -38 49 -71 66 -47 143 -79 208 -87 l57 -7 0 32
c0 51 -27 91 -74 112 -50 22 -229 38 -240 21z"/>
<path d="M793 1955 c-27 -24 -28 -25 -9 -40 66 -51 265 -84 299 -51 24 25 21
63 -8 91 -23 24 -30 25 -139 25 -108 0 -116 -1 -143 -25z"/>
<path d="M1187 1740 c-104 -97 -240 -273 -268 -348 -7 -18 -15 -23 -29 -19
-16 4 -26 -4 -45 -37 -30 -52 -31 -71 -5 -113 43 -72 100 -30 202 147 105 182
220 408 216 422 -2 6 -34 -17 -71 -52z"/>
</g>
</svg>
