<?xml version="1.0" standalone="no"?>
<!DOCTYPE svg PUBLIC "-//W3C//DTD SVG 20010904//EN"
 "http://www.w3.org/TR/2001/REC-SVG-20010904/DTD/svg10.dtd">
<svg version="1.0" xmlns="http://www.w3.org/2000/svg"
 width="340.000000pt" height="340.000000pt" viewBox="0 0 340.000000 340.000000"
 preserveAspectRatio="xMidYMid meet">
<metadata>
Created by potrace 1.15, written by Peter Selinger 2001-2017
</metadata>
<g transform="translate(0.000000,340.000000) scale(0.100000,-0.100000)"
fill="#000000" stroke="none">
<path d="M1917 2552 c-21 -23 -22 -71 -3 -97 11 -15 13 -49 9 -160 -4 -119 -8
-142 -23 -156 -10 -9 -80 -40 -154 -70 -75 -29 -136 -57 -136 -61 0 -4 11 -15
25 -24 24 -16 31 -15 146 19 l121 35 -7 -26 c-11 -46 -71 -144 -130 -212 -120
-140 -165 -198 -209 -269 -38 -63 -44 -77 -33 -90 22 -28 47 -91 47 -120 0
-33 -51 -140 -79 -165 -15 -14 -81 -26 -288 -52 -450 -57 -783 -107 -806 -121
-16 -9 15 -42 60 -64 41 -20 63 -23 153 -23 91 0 129 7 290 47 166 42 445 97
493 97 14 0 8 -14 -31 -72 -27 -40 -55 -86 -63 -103 -8 -16 -29 -39 -46 -50
-43 -27 -38 -47 17 -63 100 -30 296 -95 303 -102 20 -17 -295 -227 -490 -327
-62 -32 -113 -64 -113 -70 0 -17 11 -16 94 8 218 63 407 159 573 291 l63 50
106 -56 c156 -81 348 -199 482 -294 126 -91 174 -109 205 -77 32 32 21 60 -45
113 -116 91 -253 176 -456 282 -111 58 -202 108 -202 112 0 3 22 33 49 65 69
83 138 193 177 282 l33 76 118 7 c65 3 262 6 438 6 l319 0 15 32 c19 40 8 60
-45 78 -50 18 -435 10 -604 -12 -63 -8 -150 -15 -192 -16 -69 0 -77 2 -83 21
-8 25 -61 59 -92 59 -20 0 -23 -5 -23 -39 0 -21 -6 -43 -13 -49 -12 -10 -153
-32 -205 -32 l-23 0 28 47 c53 91 26 225 -48 240 -16 3 -32 10 -35 15 -4 5 34
51 83 101 50 51 118 130 151 177 34 47 68 94 76 105 14 18 15 9 15 -95 1 -63
-4 -158 -9 -210 -12 -110 -2 -150 35 -150 13 0 32 8 43 18 23 19 36 102 48
310 4 61 8 112 9 112 1 0 48 -20 103 -45 118 -52 302 -115 337 -115 13 0 36
11 51 24 27 23 28 24 11 50 -10 14 -27 32 -40 40 -35 23 -229 74 -352 93 -127
18 -125 17 -125 117 0 74 7 84 69 101 54 16 166 70 205 100 23 17 13 33 -31
52 -37 15 -78 11 -124 -13 -15 -7 -46 -18 -69 -23 l-42 -9 7 138 c7 145 4 161
-38 208 -25 27 -77 30 -100 4z m-27 -1490 c0 -39 -115 -221 -202 -318 l-19
-21 -82 27 c-45 15 -115 33 -154 40 -40 7 -73 16 -73 19 0 4 49 61 110 128
109 121 110 122 162 128 29 3 82 10 118 14 36 5 82 9 103 10 34 1 37 -1 37
-27z"/>
<path d="M1222 2464 c-26 -18 -29 -57 -6 -76 58 -48 56 -42 49 -156 -4 -59
-11 -116 -15 -128 -6 -15 -48 -35 -172 -81 -193 -72 -351 -123 -378 -123 -13
0 -20 -7 -20 -20 0 -18 7 -20 80 -20 91 0 210 22 285 52 87 36 179 67 184 63
13 -13 -211 -277 -371 -437 -111 -111 -132 -148 -84 -148 51 0 238 149 344
274 37 44 79 93 94 110 l26 31 8 -29 c6 -24 -9 -184 -32 -351 -5 -31 -1 -46
13 -64 18 -23 20 -23 50 -8 29 16 32 22 52 129 11 62 23 157 27 210 l7 97 31
-31 c50 -51 117 -69 184 -51 21 5 23 10 18 36 -12 59 -61 93 -150 103 -69 8
-86 26 -89 91 -3 64 10 78 85 99 42 12 73 30 109 61 27 25 49 48 49 52 0 14
-50 31 -90 31 -22 0 -55 -8 -75 -17 -31 -15 -37 -15 -46 -3 -5 8 -7 29 -4 45
3 17 8 66 11 110 6 73 4 83 -17 109 -40 51 -114 70 -157 40z"/>
</g>
</svg>
