<?xml version="1.0" standalone="no"?>
<!DOCTYPE svg PUBLIC "-//W3C//DTD SVG 20010904//EN"
 "http://www.w3.org/TR/2001/REC-SVG-20010904/DTD/svg10.dtd">
<svg version="1.0" xmlns="http://www.w3.org/2000/svg"
 width="340.000000pt" height="340.000000pt" viewBox="0 0 340.000000 340.000000"
 preserveAspectRatio="xMidYMid meet">
<metadata>
Created by potrace 1.15, written by Peter Selinger 2001-2017
</metadata>
<g transform="translate(0.000000,340.000000) scale(0.100000,-0.100000)"
fill="#000000" stroke="none">
<path d="M1848 2469 c-10 -5 -18 -16 -18 -23 0 -13 116 -85 229 -141 l55 -27
27 30 c18 20 26 38 22 51 -9 34 -78 89 -134 105 -59 18 -155 21 -181 5z"/>
<path d="M1090 2371 c-36 -10 -36 -34 0 -74 49 -56 53 -81 35 -188 -21 -124
-77 -369 -112 -494 l-28 -99 -105 -34 c-251 -79 -380 -113 -413 -107 -17 3
-38 1 -45 -3 -23 -15 -9 -55 27 -79 50 -33 110 -30 233 13 57 19 136 47 176
61 40 14 75 24 77 22 2 -2 -7 -48 -20 -102 -46 -191 -44 -212 34 -258 52 -32
81 -60 81 -80 0 -10 -40 -57 -88 -106 -103 -103 -232 -255 -232 -273 0 -9 11
-11 35 -7 47 8 138 79 266 208 l107 107 80 -102 c45 -55 100 -123 124 -149
l43 -49 28 22 c21 17 27 30 27 60 0 43 -29 90 -148 239 -69 87 -74 96 -64 120
6 14 38 91 72 171 73 173 137 359 155 455 21 107 -1 174 -68 215 -18 11 -35
20 -39 20 -14 0 -31 -87 -33 -179 -3 -75 -7 -97 -22 -112 -18 -18 -100 -39
-154 -39 l-28 0 19 55 c37 107 93 311 131 480 l39 170 -23 45 c-12 25 -33 50
-47 57 -35 16 -91 23 -120 14z m157 -938 c-14 -111 -118 -368 -146 -359 -9 2
-47 17 -84 33 -50 20 -67 31 -63 43 3 8 29 77 58 152 l53 137 75 19 c114 30
114 31 107 -25z"/>
<path d="M2340 2275 c-233 -53 -707 -143 -769 -147 -42 -3 -75 -27 -59 -44 14
-13 95 -23 193 -23 97 -1 143 7 375 59 52 12 185 35 295 50 217 32 242 41 259
99 5 17 7 34 4 36 -3 3 -27 7 -54 10 -34 2 -110 -10 -244 -40z"/>
<path d="M2150 2001 c-74 -21 -168 -48 -208 -61 -71 -23 -72 -25 -54 -43 23
-22 49 -23 227 -9 77 6 142 9 144 6 2 -2 -7 -32 -20 -66 -19 -48 -31 -64 -49
-70 -14 -4 -61 -16 -105 -26 -44 -11 -89 -23 -100 -26 -17 -6 -24 3 -44 50
-31 72 -126 174 -162 174 -29 0 -67 -34 -49 -45 18 -11 57 -97 65 -142 8 -49
53 -125 89 -148 22 -15 27 -15 48 -2 13 9 69 19 128 25 101 10 212 39 256 67
14 9 26 33 34 64 6 28 25 69 41 91 61 83 62 146 6 180 -45 28 -92 24 -247 -19z"/>
<path d="M2445 1584 c-199 -41 -604 -140 -730 -178 -27 -8 -50 -14 -51 -13 -1
1 -13 24 -26 51 -16 35 -34 55 -61 69 -52 27 -61 15 -67 -91 -5 -72 -12 -99
-40 -157 -28 -56 -35 -82 -35 -130 l0 -60 41 -3 c64 -5 88 21 124 136 16 53
34 102 38 109 14 22 351 93 607 128 121 17 438 46 443 41 1 -2 -13 -13 -33
-25 -31 -18 -36 -25 -33 -54 l3 -32 95 1 c80 0 104 4 152 27 65 29 96 74 84
121 -13 51 -136 106 -234 105 -31 0 -156 -20 -277 -45z"/>
<path d="M2365 1263 c-11 -2 -81 -18 -155 -34 -162 -36 -480 -125 -494 -139
-6 -6 -3 -17 10 -31 18 -20 25 -21 114 -15 52 4 126 13 163 20 50 10 70 10 72
2 3 -6 12 -51 22 -101 14 -70 18 -142 18 -322 0 -127 -3 -234 -7 -238 -4 -4
-39 0 -78 10 -79 19 -100 13 -100 -34 0 -19 17 -43 63 -88 72 -71 93 -83 140
-83 96 0 112 73 112 500 0 261 -2 289 -19 329 -28 61 -17 73 80 88 119 17 214
55 214 85 0 35 -36 58 -87 57 -27 -1 -57 -3 -68 -6z"/>
</g>
</svg>
