<?xml version="1.0" standalone="no"?>
<!DOCTYPE svg PUBLIC "-//W3C//DTD SVG 20010904//EN"
 "http://www.w3.org/TR/2001/REC-SVG-20010904/DTD/svg10.dtd">
<svg version="1.0" xmlns="http://www.w3.org/2000/svg"
 width="340.000000pt" height="340.000000pt" viewBox="0 0 340.000000 340.000000"
 preserveAspectRatio="xMidYMid meet">
<metadata>
Created by potrace 1.15, written by Peter Selinger 2001-2017
</metadata>
<g transform="translate(0.000000,340.000000) scale(0.100000,-0.100000)"
fill="#000000" stroke="none">
<path d="M1601 2517 c-43 -22 -48 -41 -21 -94 22 -43 24 -64 28 -214 4 -156 3
-168 -14 -177 -21 -11 -116 -36 -177 -47 -34 -5 -38 -9 -35 -33 5 -44 47 -58
130 -44 117 20 109 27 106 -90 l-3 -102 -109 -43 c-103 -40 -109 -42 -137 -27
-33 17 -49 12 -49 -15 0 -23 79 -253 118 -346 36 -84 63 -97 82 -41 10 30 16
36 41 36 22 0 29 -5 29 -19 0 -35 -18 -69 -171 -327 l-151 -254 -46 53 c-25
28 -74 80 -109 115 -35 35 -63 65 -63 67 0 3 20 49 44 102 61 138 129 322 166
453 42 147 40 218 -8 261 -18 16 -37 29 -43 29 -17 0 -60 -106 -66 -164 l-6
-54 -74 -22 c-41 -12 -77 -19 -80 -16 -7 7 25 114 77 261 35 99 83 290 104
410 l14 78 -35 38 c-41 45 -86 57 -144 40 l-39 -12 16 -37 c8 -20 27 -49 41
-64 l27 -28 -18 -97 c-24 -128 -107 -455 -143 -562 l-28 -84 -93 -38 c-123
-51 -275 -99 -312 -99 -61 0 -91 -69 -49 -111 19 -19 29 -21 88 -16 79 7 168
36 234 77 81 50 92 39 57 -60 -13 -36 -19 -82 -20 -132 0 -75 1 -78 23 -78 30
0 117 -77 117 -103 0 -11 -29 -50 -64 -88 -82 -86 -135 -157 -181 -241 -35
-65 -36 -68 -15 -68 39 0 77 32 211 177 72 79 135 143 140 143 4 0 14 -9 22
-20 34 -48 270 -300 281 -300 19 0 46 34 46 56 0 10 -7 32 -15 48 -20 39 -20
39 26 83 40 38 173 212 220 288 l24 40 3 -195 c2 -147 -2 -240 -18 -378 -11
-101 -18 -187 -15 -193 4 -5 20 -16 36 -24 36 -19 62 -8 84 36 14 26 16 78 13
379 -2 251 0 350 8 350 6 0 27 -26 47 -59 53 -84 112 -124 215 -144 l32 -7 0
43 c0 47 -30 104 -70 135 -14 10 -74 52 -134 92 l-108 72 6 46 c3 24 6 62 6
83 0 37 0 38 48 44 53 8 127 38 154 62 11 9 28 37 38 61 11 24 35 65 54 90 58
81 72 120 68 189 -1 12 -16 38 -33 58 -29 32 -35 35 -88 35 -31 -1 -92 -7
-136 -15 -44 -8 -84 -15 -89 -15 -8 0 -2 187 7 196 2 2 39 13 83 24 77 20 234
87 234 100 0 13 -46 49 -72 55 -23 6 -92 -10 -223 -50 -7 -2 -10 53 -10 159 0
199 -16 267 -66 285 -39 13 -39 14 -68 -2z m309 -882 c0 -9 -8 -32 -19 -53
-10 -20 -27 -62 -36 -93 l-18 -57 -65 -6 c-35 -4 -67 -5 -69 -2 -3 3 -2 48 2
101 6 86 9 96 28 100 18 5 118 19 165 24 6 0 12 -6 12 -14z m-304 -152 c-7
-123 -12 -135 -54 -131 -19 3 -27 16 -48 78 -14 41 -35 90 -46 108 -11 18 -18
35 -16 37 6 6 105 22 142 24 l29 1 -7 -117z m-516 -170 c-23 -82 -85 -245
-116 -306 l-19 -36 -68 42 c-48 30 -65 46 -61 57 4 8 29 78 56 155 l50 140 86
41 87 41 3 -28 c2 -16 -7 -63 -18 -106z"/>
<path d="M2260 2265 c-13 -33 1 -84 29 -110 19 -16 18 -20 -16 -148 -43 -164
-115 -382 -183 -551 -28 -71 -49 -135 -46 -142 9 -24 32 -5 82 66 27 38 54 72
61 74 6 3 50 8 96 12 l85 7 -5 -29 c-25 -163 -86 -438 -99 -453 -7 -8 -64 53
-89 95 -41 71 -148 153 -181 140 -27 -10 -13 -42 72 -161 47 -66 98 -141 114
-166 l29 -47 -51 -89 c-61 -106 -113 -180 -207 -293 -39 -47 -71 -91 -71 -98
0 -21 27 -24 62 -7 50 26 237 220 293 304 l49 74 15 -24 c90 -137 300 -378
379 -432 49 -35 148 -46 245 -27 53 10 66 16 71 33 10 36 -24 68 -97 93 -200
68 -334 170 -483 371 l-83 111 31 72 c42 102 74 236 87 367 10 95 9 117 -3
141 -8 16 -11 33 -7 40 4 6 47 23 96 37 50 14 127 43 173 65 91 43 95 53 36
99 -32 25 -71 27 -122 5 -20 -8 -80 -31 -132 -51 -52 -19 -130 -53 -174 -75
-43 -22 -81 -36 -84 -33 -9 9 32 124 93 255 92 200 131 357 105 420 -17 41
-59 69 -114 76 -43 6 -46 5 -56 -21z"/>
</g>
</svg>
