<?xml version="1.0" standalone="no"?>
<!DOCTYPE svg PUBLIC "-//W3C//DTD SVG 20010904//EN"
 "http://www.w3.org/TR/2001/REC-SVG-20010904/DTD/svg10.dtd">
<svg version="1.0" xmlns="http://www.w3.org/2000/svg"
 width="340.000000pt" height="340.000000pt" viewBox="0 0 340.000000 340.000000"
 preserveAspectRatio="xMidYMid meet">
<metadata>
Created by potrace 1.15, written by Peter Selinger 2001-2017
</metadata>
<g transform="translate(0.000000,340.000000) scale(0.100000,-0.100000)"
fill="#000000" stroke="none">
<path d="M1900 2460 c-27 -27 -25 -45 13 -104 l32 -51 -3 -130 c-2 -71 -5
-131 -6 -133 -2 -1 -102 -23 -222 -48 -120 -25 -227 -47 -236 -50 -22 -7 -23
-18 -2 -38 23 -23 93 -20 289 13 94 16 171 28 172 27 8 -7 -21 -153 -32 -162
-8 -6 -51 -18 -97 -28 -131 -28 -158 -36 -158 -49 0 -41 86 -48 300 -22 222
26 352 57 372 88 13 21 9 65 -8 71 -28 11 -128 6 -193 -9 -35 -9 -66 -14 -68
-11 -2 2 0 37 4 77 l8 74 40 7 c222 41 322 61 388 79 73 20 77 23 77 50 0 22
-6 30 -25 35 -20 5 -331 -39 -449 -63 l-29 -6 7 137 c6 123 5 141 -13 181 -33
75 -117 109 -161 65z"/>
<path d="M983 2209 c-18 -18 -16 -62 3 -102 15 -31 14 -42 -20 -207 -32 -159
-102 -431 -126 -495 -6 -16 -26 -33 -52 -45 -61 -26 -207 -68 -286 -80 -120
-19 -114 -16 -110 -57 4 -51 43 -78 109 -76 54 1 173 34 232 65 22 11 41 18
43 15 6 -6 -24 -148 -37 -173 -15 -29 -7 -39 76 -111 107 -91 104 -81 36 -151
-95 -98 -241 -283 -241 -306 0 -4 13 -6 28 -6 39 0 87 37 235 179 l125 122 45
-59 c73 -94 218 -267 227 -270 16 -6 50 38 50 64 0 43 -27 87 -133 216 -56 68
-108 131 -115 140 -11 14 -8 24 21 70 96 150 175 353 203 524 16 91 16 102 1
137 -17 40 -56 62 -93 53 -18 -5 -23 -15 -28 -63 -17 -151 -14 -143 -55 -143
-20 0 -65 -7 -101 -14 -36 -8 -67 -12 -69 -11 -1 2 17 66 43 142 139 423 163
525 133 582 -26 51 -116 89 -144 60z m163 -861 c-16 -99 -140 -398 -166 -398
-5 0 -50 22 -99 50 l-88 50 53 107 c30 58 54 111 54 117 0 9 218 112 244 115
5 1 6 -18 2 -41z"/>
<path d="M2158 1605 c-81 -19 -220 -55 -309 -80 -158 -45 -164 -46 -196 -31
-44 21 -76 20 -104 -3 l-23 -18 36 -44 c47 -59 84 -126 93 -169 12 -57 42
-116 78 -157 31 -34 35 -45 38 -103 l4 -65 -55 -8 c-30 -5 -143 -26 -250 -47
-107 -21 -208 -37 -225 -36 -24 1 -31 -4 -33 -21 -3 -17 6 -24 49 -38 75 -25
167 -22 279 8 123 34 327 71 510 93 163 20 661 26 832 10 l97 -9 11 28 c17 44
9 68 -30 87 -30 16 -65 18 -265 18 -126 -1 -277 -5 -335 -10 -58 -4 -107 -7
-109 -5 -2 2 6 17 18 33 25 35 40 97 33 140 -3 22 2 39 17 58 14 18 18 31 12
42 -7 12 1 28 31 62 74 84 122 205 99 249 -17 30 -63 51 -113 50 -24 0 -109
-16 -190 -34z m128 -119 c3 -8 -8 -34 -24 -58 -16 -24 -39 -61 -50 -84 -20
-40 -21 -40 -102 -53 -45 -7 -121 -26 -169 -42 -125 -43 -118 -45 -147 40 -13
40 -32 87 -40 103 -9 16 -14 31 -12 33 4 4 478 73 511 74 16 1 30 -5 33 -13z
m-120 -331 c3 -8 -5 -38 -18 -67 -14 -29 -31 -68 -38 -85 -12 -32 -14 -33 -75
-33 -34 0 -77 -3 -94 -6 -29 -6 -31 -5 -31 23 0 16 -7 53 -16 82 -8 29 -13 55
-11 57 2 3 42 13 88 23 105 24 187 27 195 6z"/>
<path d="M2193 740 c-73 -10 -206 -33 -295 -50 -90 -17 -176 -33 -193 -36 -16
-3 -47 -10 -68 -15 l-37 -10 21 -42 c12 -23 30 -54 41 -69 10 -15 27 -60 38
-102 20 -78 71 -210 94 -241 13 -18 16 -17 57 18 38 33 49 37 98 38 31 0 141
4 245 8 l188 7 25 28 c30 35 27 67 -9 84 -35 17 -35 25 2 70 41 51 79 139 91
211 13 74 10 83 -34 104 -43 21 -94 20 -264 -3z m142 -130 c4 -13 -13 -57 -52
-132 l-58 -113 -105 -7 c-58 -4 -135 -12 -172 -18 -93 -14 -98 -13 -98 13 0
42 -29 131 -59 178 l-29 47 61 11 c73 12 269 30 382 34 44 2 90 4 102 5 14 1
24 -5 28 -18z"/>
</g>
</svg>
