<?xml version="1.0" standalone="no"?>
<!DOCTYPE svg PUBLIC "-//W3C//DTD SVG 20010904//EN"
 "http://www.w3.org/TR/2001/REC-SVG-20010904/DTD/svg10.dtd">
<svg version="1.0" xmlns="http://www.w3.org/2000/svg"
 width="340.000000pt" height="340.000000pt" viewBox="0 0 340.000000 340.000000"
 preserveAspectRatio="xMidYMid meet">
<metadata>
Created by potrace 1.15, written by Peter Selinger 2001-2017
</metadata>
<g transform="translate(0.000000,340.000000) scale(0.100000,-0.100000)"
fill="#000000" stroke="none">
<path d="M1970 2488 c-142 -30 -478 -115 -620 -157 -91 -27 -200 -55 -243 -62
-66 -10 -75 -14 -65 -26 26 -32 57 -34 181 -13 67 12 136 25 154 30 l32 8 -17
-25 c-10 -17 -17 -48 -17 -88 -1 -52 -7 -73 -40 -131 -84 -152 -179 -277 -322
-426 -41 -43 -73 -83 -71 -90 9 -27 46 -17 115 32 156 109 345 316 425 465 43
81 45 153 5 213 -18 28 -35 42 -49 42 -39 0 -6 17 77 38 129 35 311 62 449 69
l128 6 -6 -24 c-4 -13 -27 -64 -52 -114 -39 -77 -45 -97 -42 -140 l3 -50 183
-40 c200 -43 212 -50 212 -113 0 -38 -73 -223 -128 -324 l-37 -68 -50 6 c-54
7 -52 7 -77 5 -24 -1 -24 -62 -1 -102 17 -29 84 -69 114 -69 24 0 101 53 137
94 36 42 53 75 107 211 43 110 65 209 65 296 0 64 -2 68 -35 98 -84 73 -196
102 -307 79 -38 -8 -68 -13 -68 -11 0 10 66 133 97 179 86 129 36 215 -124
213 -37 -1 -88 -5 -113 -11z"/>
<path d="M1802 1820 c-98 -29 -196 -67 -322 -125 -63 -30 -128 -56 -143 -60
-24 -5 -28 -10 -25 -33 3 -23 8 -27 42 -30 58 -5 191 25 276 62 73 32 177 62
185 54 8 -8 -44 -106 -88 -167 -26 -34 -65 -96 -87 -137 -29 -51 -47 -74 -60
-74 -32 0 -30 -13 9 -72 41 -59 56 -107 37 -113 -6 -2 -60 -11 -121 -20 -164
-25 -434 -79 -618 -125 -111 -28 -173 -39 -195 -35 -23 4 -42 1 -58 -10 -38
-25 -29 -41 29 -53 142 -29 209 -24 408 33 108 31 434 101 555 120 40 6 42 5
53 -26 47 -136 35 -432 -26 -626 -19 -62 -23 -63 -153 -37 -91 19 -110 15
-110 -21 0 -56 127 -143 243 -166 68 -14 69 -13 122 96 39 80 48 129 66 349
10 123 10 187 1 298 -6 77 -9 144 -7 148 22 35 639 49 785 18 69 -15 76 -15
94 0 44 39 38 79 -17 112 -29 18 -52 20 -237 20 -138 0 -262 -7 -380 -20 -96
-11 -199 -20 -227 -20 -51 0 -53 1 -72 39 -11 21 -33 50 -49 62 l-28 24 77 96
c128 158 229 314 229 354 0 49 -18 83 -53 95 -40 13 -60 12 -135 -10z"/>
</g>
</svg>
