<?xml version="1.0" standalone="no"?>
<!DOCTYPE svg PUBLIC "-//W3C//DTD SVG 20010904//EN"
 "http://www.w3.org/TR/2001/REC-SVG-20010904/DTD/svg10.dtd">
<svg version="1.0" xmlns="http://www.w3.org/2000/svg"
 width="340.000000pt" height="340.000000pt" viewBox="0 0 340.000000 340.000000"
 preserveAspectRatio="xMidYMid meet">
<metadata>
Created by potrace 1.15, written by Peter Selinger 2001-2017
</metadata>
<g transform="translate(0.000000,340.000000) scale(0.100000,-0.100000)"
fill="#000000" stroke="none">
<path d="M1983 2310 c-34 -14 -29 -51 11 -93 23 -25 38 -53 46 -89 15 -69 25
-964 15 -1349 l-7 -286 -65 24 c-35 12 -78 23 -95 23 -30 0 -31 -1 -25 -40 7
-54 40 -119 89 -174 46 -53 84 -76 127 -76 44 0 60 9 79 44 16 29 17 99 14
970 -3 918 -3 939 -23 978 -30 59 -109 91 -166 68z"/>
<path d="M1065 2201 c-154 -50 -294 -91 -311 -91 -36 0 -45 -14 -33 -49 9 -23
11 -23 122 -19 99 4 123 9 212 43 55 21 125 44 155 51 58 14 140 19 140 8 0
-4 -29 -46 -64 -93 -58 -77 -191 -282 -199 -305 -2 -5 -18 -1 -36 8 -42 22
-107 18 -105 -6 2 -19 36 -77 88 -151 41 -55 75 -143 83 -207 l5 -46 -270
-182 c-235 -158 -275 -182 -309 -182 -46 0 -63 -14 -63 -51 0 -36 39 -66 95
-74 53 -8 114 16 174 70 54 49 374 295 384 295 13 0 7 -251 -8 -352 -16 -106
-71 -368 -80 -376 -3 -3 -15 4 -28 15 -34 31 -62 43 -102 43 -43 0 -52 -17
-36 -69 15 -52 81 -124 137 -151 l46 -23 41 30 c52 36 86 96 97 171 5 31 18
109 29 172 26 148 43 418 35 540 l-6 95 70 62 c38 34 85 81 103 104 l33 42
-44 -7 c-25 -4 -74 -23 -109 -42 -35 -19 -64 -34 -66 -32 -1 2 -10 33 -19 70
-10 37 -31 94 -46 127 l-29 60 179 211 c189 222 215 265 192 315 -15 32 -63
56 -126 61 -44 4 -91 -8 -331 -85z"/>
<path d="M1683 1493 c-24 -68 -47 -122 -82 -190 -44 -87 -91 -202 -114 -280
-15 -50 -15 -53 4 -78 11 -14 28 -25 38 -25 43 0 111 118 166 290 28 88 39
215 22 273 -8 31 -25 35 -34 10z"/>
<path d="M2360 1500 c0 -23 31 -83 64 -123 87 -104 125 -157 161 -226 40 -76
108 -158 176 -212 l39 -31 34 21 c45 28 62 69 47 114 -16 48 -157 215 -237
281 -80 66 -233 171 -263 181 -13 4 -21 2 -21 -5z"/>
</g>
</svg>
