<?xml version="1.0" standalone="no"?>
<!DOCTYPE svg PUBLIC "-//W3C//DTD SVG 20010904//EN"
 "http://www.w3.org/TR/2001/REC-SVG-20010904/DTD/svg10.dtd">
<svg version="1.0" xmlns="http://www.w3.org/2000/svg"
 width="340.000000pt" height="340.000000pt" viewBox="0 0 340.000000 340.000000"
 preserveAspectRatio="xMidYMid meet">
<metadata>
Created by potrace 1.15, written by Peter Selinger 2001-2017
</metadata>
<g transform="translate(0.000000,340.000000) scale(0.100000,-0.100000)"
fill="#000000" stroke="none">
<path d="M1322 2251 c-17 -10 -8 -17 78 -62 41 -22 92 -62 140 -111 103 -105
144 -118 175 -57 23 43 18 62 -26 113 -51 57 -113 95 -188 112 -63 15 -159 18
-179 5z"/>
<path d="M2320 2004 c-506 -69 -950 -138 -1240 -194 -149 -29 -146 -29 -155
27 -9 64 -29 100 -68 123 -62 38 -67 33 -67 -85 0 -94 -3 -115 -30 -184 -17
-44 -53 -123 -80 -176 -65 -125 -64 -165 1 -165 55 0 88 37 149 170 31 69 65
149 74 178 l18 52 101 0 c69 0 157 10 272 30 328 58 696 101 996 116 115 5
140 4 167 -10 18 -9 32 -18 32 -21 0 -2 -18 -9 -39 -15 -72 -19 -106 -96 -51
-111 77 -21 240 5 290 48 54 45 30 119 -55 169 -100 58 -167 68 -315 48z"/>
<path d="M1875 1593 c-48 -6 -298 -62 -450 -100 -77 -20 -167 -38 -199 -42
-40 -4 -62 -12 -70 -23 -20 -32 6 -40 144 -46 l132 -5 19 -31 c28 -45 37 -87
44 -217 l7 -116 -179 -50 c-168 -47 -178 -51 -181 -75 -4 -35 25 -41 124 -24
43 8 114 17 157 21 l77 7 0 -128 c0 -114 7 -197 25 -300 l5 -32 -82 -11 c-129
-19 -320 -59 -429 -92 -54 -16 -117 -29 -139 -29 -36 0 -40 -3 -40 -24 0 -22
6 -26 47 -32 70 -10 228 3 313 26 269 72 430 94 715 94 229 0 382 -13 473 -41
65 -20 101 -10 115 30 13 41 5 52 -70 89 -65 32 -73 33 -202 37 -120 3 -404
-10 -552 -26 -43 -4 -57 -2 -60 8 -3 8 -2 115 1 238 l5 225 92 18 c82 16 258
70 271 82 9 10 -29 57 -56 67 -21 9 -51 5 -142 -16 -63 -15 -124 -29 -135 -32
-20 -4 -22 3 -32 119 -10 107 -27 196 -47 248 -5 12 15 20 101 38 60 12 151
35 203 50 88 26 95 30 98 55 3 21 -2 29 -23 37 -14 5 -32 9 -38 9 -7 -1 -25
-4 -42 -6z"/>
<path d="M2007 833 c-16 -16 -5 -61 21 -84 92 -85 153 -106 217 -77 22 10 26
17 21 41 -16 77 -90 126 -192 127 -33 0 -64 -3 -67 -7z"/>
</g>
</svg>
