<?xml version="1.0" standalone="no"?>
<!DOCTYPE svg PUBLIC "-//W3C//DTD SVG 20010904//EN"
 "http://www.w3.org/TR/2001/REC-SVG-20010904/DTD/svg10.dtd">
<svg version="1.0" xmlns="http://www.w3.org/2000/svg"
 width="340.000000pt" height="340.000000pt" viewBox="0 0 340.000000 340.000000"
 preserveAspectRatio="xMidYMid meet">
<metadata>
Created by potrace 1.15, written by Peter Selinger 2001-2017
</metadata>
<g transform="translate(0.000000,340.000000) scale(0.100000,-0.100000)"
fill="#000000" stroke="none">
<path d="M1371 2296 c-14 -16 -17 -13 99 -81 36 -21 100 -65 143 -98 66 -49
83 -58 105 -52 39 10 52 24 52 56 0 61 -118 152 -231 178 -66 16 -154 14 -168
-3z"/>
<path d="M2195 2074 c-332 -44 -706 -109 -976 -170 -86 -19 -164 -31 -173 -28
-12 5 -16 20 -16 60 0 68 -15 100 -53 114 -49 17 -57 13 -57 -24 0 -65 -37
-152 -144 -336 -102 -175 -107 -186 -94 -210 20 -36 50 -36 91 -1 36 33 146
191 200 291 l32 58 85 -5 c72 -5 106 -1 220 25 304 69 600 104 897 106 190 1
214 -1 230 -16 16 -17 16 -18 -6 -18 -28 0 -81 -51 -81 -79 0 -11 10 -26 22
-32 28 -15 160 -6 250 16 63 16 66 19 73 52 11 61 -18 102 -105 145 -145 72
-198 79 -395 52z"/>
<path d="M1885 1743 c-66 -13 -234 -49 -374 -79 -140 -30 -267 -54 -282 -54
-24 0 -39 -15 -39 -40 0 -13 94 -30 168 -30 69 0 147 13 497 81 213 42 235 52
235 105 0 18 -8 25 -37 33 -21 6 -40 10 -43 10 -3 -1 -59 -12 -125 -26z"/>
<path d="M1940 1419 c-172 -25 -372 -65 -513 -100 -65 -16 -130 -29 -145 -29
-15 0 -42 -9 -60 -20 -24 -15 -43 -19 -66 -14 -37 6 -66 -14 -66 -47 0 -11 21
-60 46 -110 56 -113 108 -266 129 -384 9 -49 18 -99 20 -110 10 -49 103 -74
196 -51 35 8 118 20 184 26 134 12 345 37 388 46 39 8 59 31 46 52 -8 13 12
80 96 309 118 321 120 332 68 394 -54 64 -110 70 -323 38z m163 -131 c8 -12
-4 -80 -46 -265 -32 -136 -60 -262 -63 -279 l-6 -31 -106 -7 c-157 -11 -331
-43 -489 -91 -28 -9 -30 0 -37 165 l-6 125 123 17 c130 18 394 81 410 97 7 7
4 19 -7 35 -13 20 -25 26 -52 26 -57 0 -276 -47 -390 -84 l-103 -33 -12 51
c-15 63 -42 129 -70 168 -12 16 -19 31 -17 33 2 2 114 17 248 34 513 64 604
70 623 39z"/>
<path d="M2175 459 c-397 -24 -915 -97 -1144 -160 -40 -12 -111 -22 -158 -24
-91 -3 -115 -13 -93 -40 31 -37 60 -43 184 -34 131 9 176 17 346 60 242 61
488 89 775 89 202 0 319 -10 441 -40 l75 -18 30 26 c39 33 36 68 -9 98 -68 46
-200 59 -447 43z"/>
</g>
</svg>
