<?xml version="1.0" standalone="no"?>
<!DOCTYPE svg PUBLIC "-//W3C//DTD SVG 20010904//EN"
 "http://www.w3.org/TR/2001/REC-SVG-20010904/DTD/svg10.dtd">
<svg version="1.0" xmlns="http://www.w3.org/2000/svg"
 width="340.000000pt" height="340.000000pt" viewBox="0 0 340.000000 340.000000"
 preserveAspectRatio="xMidYMid meet">
<metadata>
Created by potrace 1.15, written by Peter Selinger 2001-2017
</metadata>
<g transform="translate(0.000000,340.000000) scale(0.100000,-0.100000)"
fill="#000000" stroke="none">
<path d="M1292 2488 c-7 -7 -12 -17 -12 -24 0 -11 330 -204 348 -204 19 0 52
48 52 76 0 53 -90 121 -195 149 -71 18 -176 20 -193 3z"/>
<path d="M1990 2303 c-227 -33 -528 -89 -750 -139 -107 -24 -207 -44 -223 -44
-30 0 -47 -24 -29 -42 22 -22 372 18 537 61 62 16 82 7 77 -35 -3 -28 1 -41
22 -63 25 -26 27 -33 24 -111 l-3 -84 -155 -37 c-85 -21 -156 -38 -157 -39 -1
0 -5 26 -9 58 -7 63 -31 117 -63 146 -29 26 -120 49 -138 35 -24 -21 -15 -61
24 -101 32 -33 37 -45 40 -95 2 -32 0 -64 -5 -71 -5 -7 -51 -20 -103 -29 -52
-8 -96 -17 -97 -18 -2 -2 -1 -13 3 -24 10 -33 67 -45 136 -31 84 18 89 12 89
-109 l0 -96 -177 -45 c-132 -33 -178 -49 -178 -60 0 -12 16 -15 95 -12 52 1
132 8 178 15 l82 14 0 -88 0 -87 -147 -40 c-82 -23 -196 -53 -255 -68 -89 -22
-108 -30 -108 -45 0 -50 81 -49 308 4 89 21 142 29 142 23 0 -39 -193 -251
-435 -479 -166 -156 -186 -180 -167 -199 37 -37 427 270 643 507 84 92 96 112
108 180 8 46 11 48 236 95 l140 29 205 -202 c419 -414 533 -505 676 -542 66
-17 239 -20 279 -5 53 20 26 41 -190 150 -301 151 -478 262 -616 387 -23 21
-91 74 -152 118 -60 44 -109 85 -108 90 3 18 55 27 221 35 112 5 180 13 213
25 26 9 47 19 47 22 0 23 -37 73 -60 83 -35 14 -54 12 -278 -29 -96 -18 -175
-31 -177 -29 -2 2 3 49 12 105 l17 101 65 7 c117 12 321 67 321 86 0 17 -55
50 -75 45 -19 -5 -114 -17 -259 -33 l-59 -6 7 83 c9 109 13 116 78 123 55 5
151 37 182 60 15 11 17 17 7 35 -17 31 -53 37 -126 18 -35 -9 -76 -16 -90 -16
-24 0 -25 2 -25 72 0 80 -24 144 -66 177 -30 23 -28 24 61 44 146 32 321 30
450 -5 l40 -11 -41 -17 c-42 -18 -94 -71 -94 -96 0 -24 26 -27 118 -15 124 16
204 45 242 87 51 59 35 95 -59 138 -132 59 -249 69 -451 39z m-322 -646 c6
-92 -3 -100 -168 -137 -74 -17 -143 -33 -152 -36 -16 -5 -18 4 -18 94 l0 99
153 35 c179 42 179 42 185 -55z m-18 -307 l0 -88 -67 -15 c-236 -52 -274 -60
-280 -54 -11 12 14 179 28 188 45 29 287 82 307 66 8 -6 12 -39 12 -97z"/>
<path d="M866 2263 c-3 -10 -12 -49 -20 -88 -8 -38 -36 -115 -62 -170 -110
-235 -123 -272 -107 -294 8 -12 22 -21 32 -21 48 0 135 141 190 308 36 108 39
178 11 240 -20 45 -35 53 -44 25z"/>
<path d="M1381 857 c-25 -25 -10 -53 61 -115 76 -66 168 -118 192 -109 21 8
31 72 16 106 -18 45 -52 70 -126 95 -92 31 -129 37 -143 23z"/>
<path d="M1360 422 c0 -29 40 -77 124 -148 123 -103 178 -136 210 -128 61 15
55 73 -16 150 -53 58 -107 89 -205 119 -94 30 -113 31 -113 7z"/>
</g>
</svg>
