<?xml version="1.0" standalone="no"?>
<!DOCTYPE svg PUBLIC "-//W3C//DTD SVG 20010904//EN"
 "http://www.w3.org/TR/2001/REC-SVG-20010904/DTD/svg10.dtd">
<svg version="1.0" xmlns="http://www.w3.org/2000/svg"
 width="340.000000pt" height="340.000000pt" viewBox="0 0 340.000000 340.000000"
 preserveAspectRatio="xMidYMid meet">
<metadata>
Created by potrace 1.15, written by Peter Selinger 2001-2017
</metadata>
<g transform="translate(0.000000,340.000000) scale(0.100000,-0.100000)"
fill="#000000" stroke="none">
<path d="M1215 2469 c-10 -16 48 -69 188 -175 61 -46 108 -74 123 -74 42 0 64
18 64 51 0 41 -94 135 -173 174 -67 32 -188 47 -202 24z"/>
<path d="M2005 2254 c-249 -34 -398 -59 -700 -119 -148 -29 -294 -56 -322 -60
-58 -8 -68 -23 -31 -49 31 -22 72 -20 223 10 280 54 584 90 850 101 125 4 177
3 193 -6 l23 -12 -21 -26 c-25 -32 -26 -69 -1 -82 37 -20 150 -32 192 -21 43
12 79 56 79 96 0 42 -124 136 -220 167 -78 25 -91 25 -265 1z"/>
<path d="M776 2212 c-8 -16 -21 -63 -27 -104 -7 -42 -26 -101 -45 -138 -39
-79 -78 -205 -70 -225 9 -25 79 -19 102 8 38 42 106 166 126 229 21 68 23 217
3 237 -6 6 -25 13 -42 17 -28 5 -33 3 -47 -24z"/>
<path d="M1900 1964 c-47 -14 -121 -41 -165 -61 -44 -19 -109 -42 -145 -50
-75 -18 -88 -26 -71 -46 18 -23 66 -28 118 -12 65 20 129 20 137 -1 3 -9 6
-45 6 -80 0 -112 -25 -139 -179 -194 -64 -23 -125 -45 -136 -49 -18 -7 -17 -9
9 -26 27 -18 31 -18 110 -2 44 9 93 17 108 17 l27 0 -39 -82 c-22 -46 -52
-122 -67 -171 -27 -86 -29 -88 -67 -98 -50 -14 -201 -45 -247 -52 -53 -8 -58
11 -47 163 6 80 6 205 0 347 -9 199 -12 226 -31 257 -32 51 -66 69 -118 63
-72 -8 -73 -16 -21 -120 44 -89 46 -98 53 -209 l7 -115 -58 -7 c-33 -4 -83 -9
-112 -13 l-53 -5 8 28 c15 52 9 176 -10 211 -26 49 -77 103 -97 103 -35 0 -44
-26 -30 -85 17 -71 8 -186 -23 -294 l-25 -83 27 -30 c22 -25 35 -30 69 -30 23
0 59 10 80 21 20 11 71 27 112 36 41 9 83 18 93 21 16 5 17 -3 15 -107 l-3
-112 -60 -14 c-114 -25 -205 -60 -323 -121 -38 -20 -41 -25 -31 -44 10 -18 17
-20 69 -15 62 7 70 1 70 -46 0 -23 -111 -362 -148 -454 -21 -52 -21 -52 -2
-75 l20 -23 40 43 c52 58 135 227 161 329 11 45 23 120 27 165 l7 83 80 32
c44 18 86 32 94 33 12 0 13 -40 8 -262 -4 -145 -10 -315 -13 -379 l-7 -117 31
-16 c28 -14 32 -14 53 3 32 26 37 84 38 457 1 176 3 323 6 326 3 2 27 0 54 -5
41 -9 75 -6 212 21 316 61 564 87 927 98 201 6 226 9 248 27 35 27 29 67 -11
86 -46 22 -216 26 -306 8 -105 -22 -229 -32 -229 -20 0 6 7 16 15 23 26 22
118 174 148 243 l28 68 -25 44 c-17 29 -40 50 -69 64 -52 25 -86 26 -158 5
-30 -9 -81 -22 -114 -28 l-61 -12 1 103 c0 102 0 104 25 109 65 15 92 28 114
57 71 96 16 121 -154 71z m282 -430 c4 -3 -21 -62 -55 -132 -35 -70 -70 -146
-79 -169 -15 -41 -17 -41 -74 -48 -33 -3 -106 -13 -162 -21 -57 -9 -105 -14
-107 -12 -2 2 12 40 31 83 20 44 46 108 59 143 23 63 52 104 90 125 56 30 263
52 297 31z"/>
<path d="M1905 855 l-270 -63 -33 29 c-35 31 -52 35 -82 19 -19 -10 -19 -11
-1 -54 38 -88 90 -264 111 -376 26 -138 37 -164 72 -168 20 -2 31 5 48 29 36
49 66 56 280 64 197 8 261 20 315 59 18 13 18 15 -17 50 -26 26 -45 36 -67 36
l-31 0 44 88 c49 97 96 222 96 254 0 11 -17 38 -39 59 -36 37 -42 39 -97 38
-34 -1 -176 -28 -329 -64z m305 -87 c-1 -24 -10 -50 -53 -158 -15 -36 -31 -84
-37 -106 l-10 -42 -78 -7 c-42 -3 -121 -15 -176 -26 -54 -11 -100 -19 -101
-17 -1 2 -10 37 -20 78 -10 41 -29 111 -41 154 -13 44 -23 81 -21 82 1 1 67
10 147 19 80 8 183 22 230 29 47 8 102 14 123 15 32 1 37 -2 37 -21z"/>
</g>
</svg>
