<?xml version="1.0" standalone="no"?>
<!DOCTYPE svg PUBLIC "-//W3C//DTD SVG 20010904//EN"
 "http://www.w3.org/TR/2001/REC-SVG-20010904/DTD/svg10.dtd">
<svg version="1.0" xmlns="http://www.w3.org/2000/svg"
 width="340.000000pt" height="340.000000pt" viewBox="0 0 340.000000 340.000000"
 preserveAspectRatio="xMidYMid meet">
<metadata>
Created by potrace 1.15, written by Peter Selinger 2001-2017
</metadata>
<g transform="translate(0.000000,340.000000) scale(0.100000,-0.100000)"
fill="#000000" stroke="none">
<path d="M1263 2560 c-28 -11 -30 -46 -6 -88 l17 -30 -76 -113 c-41 -63 -97
-154 -123 -202 -42 -78 -50 -87 -69 -80 -37 13 -78 9 -89 -9 -9 -13 -6 -39 11
-105 49 -199 79 -500 66 -670 l-6 -93 -112 -36 c-63 -21 -145 -40 -189 -44
-122 -11 -138 -44 -43 -89 57 -28 118 -26 191 5 87 37 445 157 451 151 10 -10
-44 -102 -103 -177 -181 -229 -443 -585 -443 -601 0 -10 6 -19 13 -19 12 0
275 260 369 365 89 100 197 235 264 331 l69 99 8 -80 c7 -81 1 -494 -9 -617
l-6 -67 -25 30 c-43 51 -143 90 -143 56 0 -55 55 -177 113 -249 52 -65 123
-76 161 -25 20 27 20 35 17 662 l-3 635 79 0 c46 0 181 17 319 40 131 22 244
40 250 40 8 0 13 -111 17 -372 4 -205 9 -470 13 -588 3 -127 2 -220 -4 -228
-8 -12 -15 -11 -41 3 -41 21 -126 31 -135 17 -19 -31 58 -136 130 -178 94 -55
151 -52 181 11 15 32 15 47 -1 232 -27 319 -35 469 -42 805 l-7 317 24 5 c20
4 369 36 392 36 13 0 28 53 23 76 -13 49 -131 51 -339 8 -38 -8 -75 -14 -83
-14 -12 0 -14 47 -14 306 0 294 -1 308 -21 341 -28 45 -72 67 -121 60 -47 -6
-78 -31 -78 -63 0 -20 20 -42 64 -69 21 -13 35 -124 45 -365 8 -187 4 -223
-26 -234 -8 -4 -108 -27 -221 -52 -114 -26 -241 -54 -282 -64 -50 -11 -84 -14
-99 -8 -22 8 -23 12 -17 57 7 52 25 368 26 438 0 35 -6 50 -37 84 -73 81 -138
90 -249 34 -38 -19 -75 -35 -82 -35 -7 0 9 26 37 58 61 70 115 158 137 224 18
56 9 96 -31 122 -30 20 -85 28 -112 16z m181 -511 l26 -31 -1 -286 c-1 -158
-4 -312 -7 -342 l-7 -55 -95 -48 c-67 -34 -121 -53 -182 -64 -48 -9 -90 -14
-93 -11 -4 3 -3 49 1 101 l7 94 57 6 c66 7 160 40 208 72 l33 22 -26 32 c-34
40 -81 41 -189 6 -42 -14 -79 -25 -81 -25 -8 0 -5 164 3 176 4 6 25 14 47 18
75 13 132 37 174 72 46 40 52 65 19 88 -30 22 -61 20 -110 -5 -71 -36 -121
-51 -129 -38 -3 6 -10 42 -13 80 l-7 69 43 50 43 49 127 1 126 0 26 -31z"/>
<path d="M1714 1290 c3 -18 14 -47 23 -64 9 -17 29 -58 46 -91 35 -72 60 -101
109 -126 60 -31 76 -26 83 25 5 33 2 55 -13 87 -30 69 -158 178 -226 195 -29
7 -29 6 -22 -26z"/>
</g>
</svg>
