<?xml version="1.0" standalone="no"?>
<!DOCTYPE svg PUBLIC "-//W3C//DTD SVG 20010904//EN"
 "http://www.w3.org/TR/2001/REC-SVG-20010904/DTD/svg10.dtd">
<svg version="1.0" xmlns="http://www.w3.org/2000/svg"
 width="340.000000pt" height="340.000000pt" viewBox="0 0 340.000000 340.000000"
 preserveAspectRatio="xMidYMid meet">
<metadata>
Created by potrace 1.15, written by Peter Selinger 2001-2017
</metadata>
<g transform="translate(0.000000,340.000000) scale(0.100000,-0.100000)"
fill="#000000" stroke="none">
<path d="M1352 2278 c-21 -21 -13 -46 23 -83 45 -44 55 -72 55 -145 0 -149
-51 -513 -75 -540 -27 -29 -484 -133 -539 -123 -32 6 -66 -13 -66 -38 0 -28
78 -60 161 -66 58 -5 85 0 220 41 86 25 162 46 171 46 14 0 12 -13 -12 -92
-87 -292 -233 -525 -474 -755 -104 -99 -131 -138 -120 -168 8 -20 7 -20 74 16
87 46 211 149 272 226 153 191 303 464 381 692 43 124 43 124 83 138 21 8 65
17 98 20 l58 6 -5 -59 c-4 -32 -9 -95 -12 -139 -4 -44 -18 -156 -32 -250 -19
-125 -26 -215 -27 -340 -1 -167 -1 -171 26 -215 32 -55 111 -131 164 -158 88
-45 142 -54 344 -59 208 -6 330 6 455 44 59 18 60 20 85 78 22 53 25 74 25
190 0 110 -3 136 -20 169 -23 45 -34 52 -58 34 -13 -10 -23 -52 -40 -172 -18
-125 -27 -160 -41 -168 -42 -24 -205 -49 -321 -49 -138 -1 -213 10 -341 53
l-92 30 -26 53 c-52 106 -70 240 -46 340 5 22 19 95 30 163 11 67 32 175 46
240 24 111 26 156 8 226 -5 23 -3 24 91 35 53 7 168 12 255 12 153 0 160 1
175 22 8 12 15 30 15 39 0 28 -62 90 -90 90 -30 0 -435 -71 -605 -106 -66 -13
-121 -24 -121 -23 -1 1 6 45 17 97 43 220 50 548 14 604 -9 13 -31 31 -50 40
-39 19 -116 21 -133 4z"/>
<path d="M1895 2121 c-12 -20 21 -62 95 -122 74 -61 156 -109 185 -109 8 0 23
15 32 34 21 44 6 83 -44 122 -61 47 -252 100 -268 75z"/>
</g>
</svg>
