<?xml version="1.0" standalone="no"?>
<!DOCTYPE svg PUBLIC "-//W3C//DTD SVG 20010904//EN"
 "http://www.w3.org/TR/2001/REC-SVG-20010904/DTD/svg10.dtd">
<svg version="1.0" xmlns="http://www.w3.org/2000/svg"
 width="340.000000pt" height="340.000000pt" viewBox="0 0 340.000000 340.000000"
 preserveAspectRatio="xMidYMid meet">
<metadata>
Created by potrace 1.15, written by Peter Selinger 2001-2017
</metadata>
<g transform="translate(0.000000,340.000000) scale(0.100000,-0.100000)"
fill="#000000" stroke="none">
<path d="M1747 2119 c-164 -40 -367 -99 -496 -144 -94 -32 -105 -31 -137 4
-39 44 -86 64 -118 50 -37 -17 -39 -34 -11 -89 14 -27 37 -91 51 -141 26 -88
26 -97 21 -288 -7 -272 -50 -461 -156 -686 -67 -143 -108 -202 -208 -302 -48
-49 -101 -112 -116 -141 -27 -51 -28 -52 -7 -52 40 0 106 43 180 119 222 225
361 504 406 814 3 26 10 50 15 52 4 3 254 -209 555 -471 334 -291 565 -484
591 -496 89 -39 194 -60 319 -61 107 -2 124 0 143 17 12 11 21 27 21 36 0 20
-5 22 -189 80 -273 86 -562 265 -872 540 -185 165 -302 259 -425 342 -51 35
-93 66 -94 69 0 4 12 9 28 12 15 4 117 26 227 50 110 24 240 50 288 56 106 14
246 56 254 77 7 18 -23 64 -42 64 -8 0 -15 3 -15 6 0 4 29 57 63 118 35 61 85
151 112 199 46 86 47 88 29 110 -90 110 -164 120 -417 56z m197 -98 c17 -19
17 -24 -17 -118 -19 -54 -44 -139 -56 -189 l-23 -92 -91 -16 c-133 -24 -319
-71 -455 -115 l-119 -38 1 146 c1 80 -2 176 -7 212 l-7 67 167 41 c93 23 253
57 357 76 104 19 191 37 194 40 11 11 40 4 56 -14z"/>
</g>
</svg>
