<?xml version="1.0" standalone="no"?>
<!DOCTYPE svg PUBLIC "-//W3C//DTD SVG 20010904//EN"
 "http://www.w3.org/TR/2001/REC-SVG-20010904/DTD/svg10.dtd">
<svg version="1.0" xmlns="http://www.w3.org/2000/svg"
 width="340.000000pt" height="340.000000pt" viewBox="0 0 340.000000 340.000000"
 preserveAspectRatio="xMidYMid meet">
<metadata>
Created by potrace 1.15, written by Peter Selinger 2001-2017
</metadata>
<g transform="translate(0.000000,340.000000) scale(0.100000,-0.100000)"
fill="#000000" stroke="none">
<path d="M2145 2303 c-11 -2 -206 -40 -432 -85 -357 -69 -413 -83 -413 -98 0
-33 26 -43 93 -37 34 3 201 24 371 46 349 46 386 49 386 25 0 -9 -35 -77 -77
-150 -62 -108 -82 -134 -100 -134 -51 0 -333 -54 -506 -97 -251 -62 -259 -60
-223 72 24 90 21 208 -9 303 -14 45 -32 83 -41 86 -35 14 -74 6 -89 -18 -15
-22 -14 -31 5 -106 19 -74 20 -91 10 -183 -42 -381 -161 -763 -335 -1079 -67
-119 -84 -146 -175 -263 -57 -74 -170 -266 -170 -289 0 -3 9 -6 19 -6 26 0
116 100 223 246 217 298 379 628 478 975 l33 116 51 16 c82 26 139 36 274 51
70 8 225 36 345 62 l219 48 31 46 c17 25 50 69 74 98 49 60 83 124 106 197 32
103 32 101 -15 128 -45 26 -98 38 -133 30z"/>
<path d="M1531 1576 c-25 -26 -26 -51 -6 -90 19 -36 18 -112 -3 -201 -16 -68
-19 -71 -62 -92 -54 -26 -240 -79 -328 -92 -77 -12 -87 -18 -70 -38 11 -13 32
-15 133 -10 66 3 153 13 193 22 40 9 76 15 78 12 7 -6 -78 -175 -152 -303 -53
-93 -162 -257 -255 -385 -32 -44 -40 -63 -37 -89 l3 -34 100 100 c94 94 206
240 302 395 47 76 152 282 177 351 17 44 21 47 89 72 86 31 202 61 275 71 l52
7 0 -34 c0 -19 -9 -61 -20 -94 -58 -168 -94 -363 -106 -576 -6 -118 -5 -130
16 -172 37 -78 141 -152 247 -177 58 -14 437 -14 568 0 l90 9 42 47 c51 56 83
148 83 236 0 121 -70 149 -110 44 -6 -17 -22 -68 -34 -115 l-23 -85 -54 -13
c-83 -20 -293 -27 -390 -12 -46 6 -125 25 -174 41 -87 28 -92 30 -112 72 -31
63 -46 151 -39 219 4 32 45 190 91 350 47 161 82 300 79 310 -3 10 -19 31 -35
48 -44 43 -75 40 -285 -32 -100 -35 -185 -61 -187 -58 -3 3 -1 30 5 60 5 30 8
85 6 123 -3 56 -8 71 -29 93 -14 14 -42 29 -62 34 -30 6 -39 4 -56 -14z"/>
</g>
</svg>
