<?xml version="1.0" standalone="no"?>
<!DOCTYPE svg PUBLIC "-//W3C//DTD SVG 20010904//EN"
 "http://www.w3.org/TR/2001/REC-SVG-20010904/DTD/svg10.dtd">
<svg version="1.0" xmlns="http://www.w3.org/2000/svg"
 width="340.000000pt" height="340.000000pt" viewBox="0 0 340.000000 340.000000"
 preserveAspectRatio="xMidYMid meet">
<metadata>
Created by potrace 1.15, written by Peter Selinger 2001-2017
</metadata>
<g transform="translate(0.000000,340.000000) scale(0.100000,-0.100000)"
fill="#000000" stroke="none">
<path d="M2027 2465 c-103 -19 -256 -50 -340 -69 -142 -32 -158 -34 -236 -25
-46 5 -85 8 -87 7 -1 -2 6 -39 17 -83 24 -103 24 -190 -1 -345 -83 -506 -238
-883 -567 -1378 -77 -115 -94 -147 -89 -167 6 -24 8 -23 65 37 182 197 267
318 376 536 65 129 154 339 182 427 9 28 13 30 79 38 223 24 324 40 425 66
166 43 265 55 393 47 119 -6 269 -35 289 -55 16 -16 15 -250 -2 -391 -28 -241
-102 -531 -187 -734 l-35 -85 -32 20 c-38 22 -100 25 -117 5 -27 -34 62 -156
126 -172 31 -8 93 19 128 55 29 30 56 90 56 124 0 14 22 112 50 218 80 312
170 795 170 909 0 65 -39 143 -89 175 -80 53 -269 57 -562 11 -185 -30 -445
-80 -551 -107 -42 -10 -80 -19 -83 -19 -11 0 3 95 20 138 7 21 26 83 41 139
l28 102 60 10 c34 6 189 29 346 51 157 22 305 47 329 55 70 23 109 59 122 111
6 24 27 65 46 89 80 105 91 187 34 255 -28 34 -29 34 -122 37 -73 2 -136 -5
-282 -32z m285 -101 c16 -8 11 -22 -43 -134 l-60 -125 -162 -23 c-135 -19
-386 -68 -500 -97 l-29 -8 9 49 c4 27 8 97 7 156 0 107 0 107 25 113 14 2 85
14 156 25 72 11 171 27 220 35 50 8 104 17 120 19 52 7 239 0 257 -10z"/>
<path d="M1810 1239 c-80 -22 -192 -58 -249 -79 l-104 -39 -28 30 c-25 27 -79
41 -79 21 0 -5 13 -56 29 -113 16 -57 38 -147 49 -199 21 -102 82 -240 106
-240 7 0 19 7 27 16 23 29 68 44 126 44 66 0 220 30 276 53 34 15 37 19 37 55
0 23 17 82 40 139 23 58 46 140 56 197 l17 98 -26 26 c-42 41 -105 40 -277 -9z
m148 -123 c2 -10 -17 -77 -43 -150 l-47 -131 -82 -16 c-44 -9 -106 -28 -137
-43 -31 -14 -58 -26 -62 -26 -3 0 -10 24 -16 53 -6 28 -25 98 -43 155 -19 63
-28 106 -22 112 5 5 79 20 164 34 257 42 283 43 288 12z"/>
</g>
</svg>
