<?xml version="1.0" standalone="no"?>
<!DOCTYPE svg PUBLIC "-//W3C//DTD SVG 20010904//EN"
 "http://www.w3.org/TR/2001/REC-SVG-20010904/DTD/svg10.dtd">
<svg version="1.0" xmlns="http://www.w3.org/2000/svg"
 width="340.000000pt" height="340.000000pt" viewBox="0 0 340.000000 340.000000"
 preserveAspectRatio="xMidYMid meet">
<metadata>
Created by potrace 1.15, written by Peter Selinger 2001-2017
</metadata>
<g transform="translate(0.000000,340.000000) scale(0.100000,-0.100000)"
fill="#000000" stroke="none">
<path d="M2100 2319 c-192 -35 -515 -103 -627 -132 l-132 -34 -28 29 c-53 56
-118 72 -158 38 -19 -16 -2 -76 36 -122 l32 -40 -12 -122 c-41 -407 -193 -861
-400 -1195 -43 -70 -78 -118 -219 -305 -31 -41 -69 -124 -78 -171 l-7 -38 46
32 c53 36 72 59 197 230 105 144 181 264 255 404 l53 100 86 2 c47 2 118 11
156 20 39 10 73 15 75 13 2 -2 10 -48 16 -103 9 -75 9 -160 0 -353 -6 -140
-14 -259 -17 -263 -2 -5 19 -20 48 -35 70 -36 155 -36 253 -1 39 14 113 33
165 42 127 23 469 32 606 15 116 -13 141 -9 155 27 19 51 4 70 -74 89 -116 28
-330 30 -463 6 -60 -11 -152 -23 -204 -26 -52 -4 -148 -14 -213 -22 -65 -9
-120 -14 -122 -12 -11 11 -26 312 -23 478 l3 195 125 32 c147 38 170 40 170
16 0 -85 42 -470 56 -515 7 -22 33 -23 40 -3 4 9 27 28 52 42 41 25 59 28 170
33 115 5 125 7 143 29 27 33 24 46 -17 84 l-37 33 27 170 c15 93 29 179 32
190 4 25 24 30 160 40 51 3 151 1 231 -6 149 -13 176 -9 188 29 3 11 -1 33 -9
49 -17 33 -36 38 -206 48 -94 6 -271 -6 -335 -22 -23 -6 -23 -5 -13 38 20 82
15 216 -11 295 l-23 72 -43 7 c-23 3 -51 4 -61 2 -28 -5 -30 -66 -5 -122 17
-36 21 -65 21 -148 0 -57 -3 -119 -6 -139 l-6 -36 -67 -7 c-36 -3 -90 -9 -118
-12 l-53 -7 0 84 c-1 98 -21 165 -71 239 -51 76 -138 95 -147 32 -2 -11 15
-58 37 -104 35 -73 71 -203 71 -256 0 -16 -22 -25 -138 -56 -77 -20 -144 -36
-150 -36 -8 0 -12 22 -12 64 0 87 -31 182 -76 235 -31 36 -41 41 -63 36 -48
-12 -52 -24 -31 -91 24 -79 47 -261 34 -273 -26 -24 -274 -87 -274 -69 0 5 19
58 42 116 23 59 71 197 107 307 l66 200 105 7 c58 3 137 14 175 23 39 9 138
30 220 46 83 16 203 44 267 61 117 32 118 33 129 68 6 19 22 49 34 65 58 78
109 216 103 282 -3 33 -8 40 -48 60 -55 28 -117 35 -190 22z m96 -132 c4 -4
-13 -51 -39 -105 -25 -53 -52 -113 -60 -133 -14 -35 -18 -37 -73 -43 -189 -23
-472 -84 -616 -135 -49 -17 -58 -17 -69 -5 -6 7 -9 26 -6 41 23 109 28 156 25
210 -4 62 -4 63 27 73 16 5 66 16 110 24 44 8 131 24 193 36 191 36 303 49
404 47 53 -2 100 -6 104 -10z m-56 -1012 c14 -17 11 -93 -11 -281 l-12 -102
-48 -6 c-26 -4 -67 -13 -90 -21 -23 -9 -45 -13 -48 -10 -8 9 -7 392 2 401 6 7
129 29 178 33 9 0 22 -6 29 -14z"/>
</g>
</svg>
