<?xml version="1.0" standalone="no"?>
<!DOCTYPE svg PUBLIC "-//W3C//DTD SVG 20010904//EN"
 "http://www.w3.org/TR/2001/REC-SVG-20010904/DTD/svg10.dtd">
<svg version="1.0" xmlns="http://www.w3.org/2000/svg"
 width="340.000000pt" height="340.000000pt" viewBox="0 0 340.000000 340.000000"
 preserveAspectRatio="xMidYMid meet">
<metadata>
Created by potrace 1.15, written by Peter Selinger 2001-2017
</metadata>
<g transform="translate(0.000000,340.000000) scale(0.100000,-0.100000)"
fill="#000000" stroke="none">
<path d="M2180 2363 c-132 -21 -425 -82 -549 -114 -85 -21 -163 -37 -173 -33
-10 3 -30 21 -44 39 -30 39 -97 75 -141 75 -31 0 -31 0 -22 -38 4 -20 18 -60
30 -87 19 -41 24 -72 27 -180 3 -115 0 -147 -27 -280 -87 -429 -233 -786 -467
-1136 -82 -123 -126 -205 -140 -263 l-7 -30 34 24 c84 61 180 191 324 444 150
261 291 625 351 904 l17 82 101 0 c56 0 128 4 161 9 60 9 549 97 594 107 41 9
133 113 179 201 56 110 58 165 7 221 -20 22 -51 44 -73 50 -38 11 -129 14
-182 5z m132 -132 c15 -5 13 -16 -16 -106 -53 -163 -61 -170 -218 -179 -135
-9 -233 -27 -448 -86 -101 -27 -190 -50 -197 -50 -17 0 -17 60 1 175 7 50 11
104 9 121 -3 18 1 34 9 41 14 11 304 54 528 78 74 8 149 16 165 19 35 4 142
-4 167 -13z"/>
<path d="M1807 1762 c-23 -26 -21 -51 7 -93 32 -47 43 -93 50 -221 l7 -106
-53 -16 c-87 -24 -287 -73 -376 -91 -64 -13 -90 -14 -114 -6 -17 6 -33 11 -34
11 -9 0 -3 -60 11 -110 8 -30 31 -146 50 -257 39 -230 82 -422 97 -440 33 -41
117 -38 533 13 197 25 265 43 295 79 18 22 -83 37 -217 33 l-115 -3 6 65 c3
36 9 104 12 151 l7 86 75 12 c75 11 182 52 203 77 8 10 3 18 -23 34 -28 18
-43 20 -103 15 -38 -3 -88 -7 -110 -8 l-40 -2 3 140 c2 108 6 143 18 151 51
40 361 52 502 20 100 -23 102 -26 102 -159 0 -156 -58 -440 -130 -640 l-32
-88 -24 16 c-50 32 -73 36 -94 15 -26 -26 -25 -53 1 -108 36 -73 100 -99 173
-68 32 13 36 22 74 138 86 260 149 559 167 800 l7 87 -41 44 c-106 115 -207
130 -502 73 -102 -20 -191 -36 -198 -36 -8 0 -11 38 -11 126 0 132 -11 196
-38 229 -45 55 -114 72 -145 37z m58 -544 c3 -13 4 -79 3 -147 l-3 -124 -100
-34 c-55 -18 -107 -36 -115 -39 -12 -4 -9 -11 14 -31 27 -23 35 -25 85 -19 31
4 70 8 86 9 l30 2 0 -155 0 -155 -120 -32 c-130 -34 -192 -40 -217 -20 -11 8
-19 43 -27 117 -24 216 -60 404 -96 493 -19 48 -35 89 -35 92 0 3 37 5 83 5
50 1 134 12 217 29 172 37 188 37 195 9z"/>
</g>
</svg>
