<?xml version="1.0" standalone="no"?>
<!DOCTYPE svg PUBLIC "-//W3C//DTD SVG 20010904//EN"
 "http://www.w3.org/TR/2001/REC-SVG-20010904/DTD/svg10.dtd">
<svg version="1.0" xmlns="http://www.w3.org/2000/svg"
 width="340.000000pt" height="340.000000pt" viewBox="0 0 340.000000 340.000000"
 preserveAspectRatio="xMidYMid meet">
<metadata>
Created by potrace 1.15, written by Peter Selinger 2001-2017
</metadata>
<g transform="translate(0.000000,340.000000) scale(0.100000,-0.100000)"
fill="#000000" stroke="none">
<path d="M2025 2499 c-206 -32 -499 -84 -609 -109 -127 -29 -130 -30 -150 -11
-32 29 -118 63 -129 52 -7 -7 -6 -44 2 -108 13 -96 12 -101 -19 -243 -113
-512 -300 -965 -577 -1395 -48 -75 -100 -155 -115 -178 -28 -45 -46 -107 -30
-107 5 0 32 18 60 41 89 70 313 429 476 764 102 208 152 325 232 545 l52 145
144 12 c78 7 193 22 253 33 61 12 151 25 201 30 95 9 188 30 255 57 32 12 39
20 39 42 0 14 18 53 40 86 50 76 83 173 84 249 1 60 1 60 -39 83 -43 24 -73
26 -170 12z m30 -123 c19 -13 18 -17 -9 -126 -41 -169 -31 -156 -128 -164
-133 -11 -352 -45 -496 -76 -120 -27 -192 -37 -192 -26 0 2 14 60 30 129 17
69 30 134 30 144 0 10 4 24 8 31 9 13 227 50 484 81 191 23 249 25 273 7z"/>
<path d="M1944 1926 c-17 -13 -18 -17 -5 -48 40 -98 50 -138 51 -201 0 -58 -3
-71 -24 -92 -24 -24 -133 -63 -241 -85 -71 -15 -83 -24 -66 -44 23 -27 74 -29
186 -6 59 12 108 20 110 18 2 -2 -1 -55 -5 -118 -5 -63 -9 -135 -9 -160 l-1
-46 -117 -46 c-65 -25 -138 -51 -163 -57 -25 -7 -53 -23 -62 -36 -17 -22 -16
-24 5 -56 12 -19 63 -61 113 -94 108 -71 204 -144 204 -155 0 -10 -217 -200
-347 -303 -78 -62 -99 -84 -91 -94 17 -21 42 -15 123 26 105 54 225 137 326
224 l86 74 99 -89 c118 -108 249 -211 359 -284 95 -63 177 -84 346 -87 93 -1
110 1 128 17 25 23 26 28 4 55 -12 14 -39 25 -78 32 -88 16 -240 66 -320 106
-139 71 -311 187 -424 289 l-51 46 44 49 c89 99 168 243 199 362 l15 57 -34
27 c-44 33 -102 35 -164 6 -57 -26 -120 -46 -126 -40 -4 4 71 316 78 322 2 1
48 10 103 19 128 21 289 75 293 98 5 24 -33 58 -65 58 -23 0 -229 -46 -295
-66 -16 -5 -18 4 -18 98 0 136 -7 173 -40 208 -22 23 -37 30 -67 30 -22 0 -48
-6 -59 -14z m226 -847 c0 -21 -81 -165 -131 -233 l-49 -66 -51 40 c-63 49
-152 102 -228 135 -31 13 -54 25 -51 25 182 42 480 108 493 109 9 0 17 -4 17
-10z"/>
<path d="M1453 1855 c-16 -11 -23 -26 -23 -48 0 -26 -10 -43 -46 -77 -99 -97
-257 -331 -236 -352 27 -27 83 14 258 186 168 166 174 174 174 212 0 68 -76
115 -127 79z"/>
<path d="M1414 1435 c-14 -14 -36 -49 -49 -78 -38 -87 -195 -283 -387 -484
-96 -100 -108 -116 -108 -148 0 -32 2 -35 19 -26 59 32 200 148 289 238 l102
105 0 -47 c0 -77 -20 -428 -35 -605 -12 -143 -12 -168 1 -187 8 -13 23 -23 34
-23 37 0 48 38 69 260 43 439 43 461 0 617 l-12 43 70 73 c63 67 133 179 133
213 0 21 -43 62 -73 68 -21 5 -33 1 -53 -19z"/>
</g>
</svg>
