<?xml version="1.0" standalone="no"?>
<!DOCTYPE svg PUBLIC "-//W3C//DTD SVG 20010904//EN"
 "http://www.w3.org/TR/2001/REC-SVG-20010904/DTD/svg10.dtd">
<svg version="1.0" xmlns="http://www.w3.org/2000/svg"
 width="340.000000pt" height="340.000000pt" viewBox="0 0 340.000000 340.000000"
 preserveAspectRatio="xMidYMid meet">
<metadata>
Created by potrace 1.15, written by Peter Selinger 2001-2017
</metadata>
<g transform="translate(0.000000,340.000000) scale(0.100000,-0.100000)"
fill="#000000" stroke="none">
<path d="M1972 2562 c-19 -13 -17 -77 2 -107 9 -14 27 -71 41 -127 46 -196
113 -634 99 -648 -5 -4 -76 -27 -159 -50 -82 -24 -156 -45 -162 -47 -10 -4
-13 14 -13 70 0 123 -51 227 -111 227 -55 0 -81 -53 -47 -97 12 -15 33 -214
25 -235 -5 -14 -112 -59 -311 -133 l-49 -18 22 -18 c33 -27 81 -23 206 16 61
19 116 35 123 35 9 0 12 -44 12 -189 l0 -190 -92 -69 c-125 -93 -193 -135
-323 -200 -118 -59 -145 -77 -145 -99 0 -21 50 -63 74 -63 49 0 184 80 324
191 79 63 148 115 153 117 18 7 4 -387 -15 -406 -3 -3 -24 3 -47 14 l-41 18
-19 -23 c-28 -34 -24 -89 9 -142 38 -59 63 -79 104 -85 29 -5 41 -1 70 25 45
39 46 48 57 418 l8 293 29 22 c118 93 317 299 295 306 -23 8 -102 -40 -203
-122 -59 -47 -110 -86 -113 -86 -3 0 -5 72 -5 159 l0 160 53 19 c119 45 314
96 321 84 2 -4 32 -123 67 -264 l64 -258 -66 -67 c-36 -38 -86 -93 -111 -123
-55 -67 -142 -199 -135 -207 16 -15 108 47 217 148 67 63 126 114 132 114 6 0
27 -49 49 -110 50 -144 168 -381 261 -523 65 -100 77 -113 111 -123 78 -21
117 37 117 175 0 110 -30 202 -61 186 -27 -15 -51 -54 -64 -107 l-12 -45 -30
39 c-88 110 -211 345 -269 509 l-28 80 58 68 c75 88 121 162 156 246 28 67 28
68 10 98 -52 85 -110 57 -141 -68 -19 -72 -50 -130 -92 -168 -24 -23 -26 -23
-36 -5 -21 41 -101 376 -101 428 0 9 30 14 108 18 106 5 215 30 256 60 15 11
17 17 7 35 -32 60 -118 66 -273 20 -60 -17 -110 -29 -113 -26 -13 12 -85 603
-85 693 0 49 -28 112 -59 134 -32 23 -91 35 -109 23z"/>
<path d="M1835 2241 c-4 -7 -4 -22 -1 -35 7 -29 -19 -54 -99 -94 -33 -16 -87
-50 -121 -76 -62 -46 -147 -144 -138 -158 12 -19 82 -6 139 25 34 17 127 68
209 111 155 84 181 108 174 163 -2 14 -15 35 -30 46 -31 23 -122 35 -133 18z"/>
<path d="M813 2210 c-34 -14 -30 -54 8 -82 57 -42 59 -55 66 -341 3 -144 3
-337 -2 -428 l-7 -167 -92 -40 -91 -41 -2 67 c-2 37 -7 134 -13 216 -12 170
-29 223 -82 256 -73 44 -83 20 -47 -116 18 -64 22 -107 21 -229 0 -93 -5 -174
-14 -213 -13 -57 -13 -65 3 -91 40 -66 95 -68 193 -7 78 49 228 122 320 155
l58 22 -6 -35 c-8 -44 14 -102 44 -111 29 -9 35 1 59 105 27 115 43 277 45
440 1 114 -2 143 -19 185 -29 71 -89 95 -114 46 -5 -9 -5 -110 0 -226 9 -228
5 -281 -20 -294 -24 -12 -151 -44 -156 -39 -2 2 7 163 20 358 37 517 35 554
-30 596 -31 20 -110 28 -142 14z"/>
<path d="M2328 2133 c-3 -11 0 -32 6 -46 15 -36 112 -136 142 -147 35 -14 87
-12 107 3 15 11 15 15 -2 52 -39 87 -106 137 -202 150 -40 6 -47 4 -51 -12z"/>
</g>
</svg>
