<?xml version="1.0" standalone="no"?>
<!DOCTYPE svg PUBLIC "-//W3C//DTD SVG 20010904//EN"
 "http://www.w3.org/TR/2001/REC-SVG-20010904/DTD/svg10.dtd">
<svg version="1.0" xmlns="http://www.w3.org/2000/svg"
 width="340.000000pt" height="340.000000pt" viewBox="0 0 340.000000 340.000000"
 preserveAspectRatio="xMidYMid meet">
<metadata>
Created by potrace 1.15, written by Peter Selinger 2001-2017
</metadata>
<g transform="translate(0.000000,340.000000) scale(0.100000,-0.100000)"
fill="#000000" stroke="none">
<path d="M1399 2599 c-25 -25 -18 -53 22 -86 20 -17 31 -40 40 -81 16 -72 17
-359 2 -388 -10 -17 -42 -27 -190 -57 -98 -21 -185 -37 -193 -37 -12 0 -15 19
-15 108 0 126 -17 169 -75 188 l-35 12 -5 -112 c-3 -61 -11 -121 -18 -133 -16
-29 -15 -108 2 -142 8 -15 27 -36 42 -46 25 -16 35 -17 106 -6 98 15 212 44
306 77 61 22 78 25 98 15 21 -9 30 -8 52 8 56 39 108 52 295 71 186 18 189 18
208 -1 10 -10 30 -19 43 -19 49 0 132 131 161 252 23 97 20 125 -16 159 -39
37 -81 38 -114 4 -29 -28 -30 -31 -10 -78 21 -50 19 -71 -11 -137 l-26 -57
-106 -7 c-99 -6 -346 -41 -361 -51 -4 -2 -7 98 -7 223 1 203 -1 231 -18 265
-33 67 -134 99 -177 56z"/>
<path d="M1887 1780 c-188 -31 -400 -77 -562 -121 -289 -80 -300 -82 -354 -63
-41 15 -50 15 -76 3 -16 -8 -30 -19 -32 -24 -2 -6 16 -33 40 -62 98 -120 167
-270 202 -435 25 -123 42 -148 97 -148 17 0 139 16 272 35 132 19 273 37 311
40 95 9 174 24 207 41 39 20 92 132 214 454 48 126 52 151 28 210 -34 85 -131
105 -347 70z m187 -128 c6 -10 -112 -482 -125 -498 -6 -7 -25 -18 -42 -23 -40
-13 -186 -31 -249 -31 l-47 0 10 30 c6 16 16 62 23 102 l12 72 55 11 c63 13
85 24 118 58 l23 25 -33 18 c-22 12 -57 18 -96 18 l-63 1 0 65 c0 36 -4 79 -9
97 l-9 32 51 11 c76 15 99 17 244 19 72 0 134 -2 137 -7z m-570 -75 c30 -30
41 -97 22 -141 -16 -39 -34 -51 -90 -59 -69 -11 -186 -50 -186 -62 0 -7 9 -20
19 -29 17 -16 33 -17 138 -11 l118 7 -3 -48 c-2 -27 3 -69 12 -94 8 -24 14
-45 13 -47 -2 -1 -38 -9 -81 -18 -43 -9 -116 -27 -162 -41 -46 -13 -88 -24
-93 -24 -4 0 -11 35 -14 78 -8 96 -45 245 -90 357 -34 85 -34 85 -12 91 25 6
353 62 373 63 7 1 23 -9 36 -22z"/>
<path d="M2205 949 c-4 -6 -5 -11 -4 -13 2 -1 49 -33 104 -71 55 -38 141 -99
190 -137 136 -101 189 -116 214 -62 23 51 14 71 -56 130 -38 30 -104 73 -148
94 -110 53 -283 87 -300 59z"/>
<path d="M1604 845 c-12 -30 7 -64 57 -102 128 -96 128 -96 232 -118 24 -5 27
-2 27 20 0 31 -25 93 -48 118 -26 29 -81 54 -170 76 -96 25 -91 25 -98 6z"/>
<path d="M852 814 c-33 -51 -107 -221 -130 -299 -27 -94 -45 -185 -38 -193 14
-13 76 -5 95 12 24 22 75 148 96 238 15 66 21 263 7 272 -4 2 -17 -11 -30 -30z"/>
<path d="M1095 800 c41 -199 251 -448 470 -558 182 -91 478 -134 698 -101 41
6 79 14 86 18 7 5 15 33 18 64 5 48 2 64 -21 112 -36 72 -102 128 -148 123
-29 -3 -33 -7 -36 -35 -2 -21 7 -50 29 -88 37 -66 35 -70 -50 -81 -142 -18
-361 17 -496 80 -140 65 -223 131 -350 281 -51 61 -119 135 -150 165 l-57 55
7 -35z"/>
</g>
</svg>
