<?xml version="1.0" standalone="no"?>
<!DOCTYPE svg PUBLIC "-//W3C//DTD SVG 20010904//EN"
 "http://www.w3.org/TR/2001/REC-SVG-20010904/DTD/svg10.dtd">
<svg version="1.0" xmlns="http://www.w3.org/2000/svg"
 width="340.000000pt" height="340.000000pt" viewBox="0 0 340.000000 340.000000"
 preserveAspectRatio="xMidYMid meet">
<metadata>
Created by potrace 1.15, written by Peter Selinger 2001-2017
</metadata>
<g transform="translate(0.000000,340.000000) scale(0.100000,-0.100000)"
fill="#000000" stroke="none">
<path d="M2435 2369 c-182 -33 -392 -75 -528 -106 l-158 -36 -44 22 c-84 42
-112 4 -76 -105 27 -82 27 -176 1 -355 -56 -383 -241 -809 -447 -1031 -116
-125 -274 -340 -259 -355 16 -17 94 38 179 126 304 317 502 663 601 1053 l34
133 124 6 c68 3 182 15 253 27 72 12 194 28 272 36 78 9 153 20 167 26 30 11
43 51 28 86 -13 28 -7 50 37 119 61 97 98 263 67 310 -30 46 -137 64 -251 44z
m88 -125 c15 -3 27 -11 27 -17 0 -14 -110 -319 -119 -329 -6 -7 -293 -48 -299
-43 -2 2 1 20 7 42 19 66 25 196 11 237 -19 58 -8 81 45 96 90 25 239 31 328
14z m-470 -84 c-1 -19 -5 -71 -8 -115 -5 -59 -3 -96 9 -140 12 -46 12 -61 3
-67 -15 -9 -257 -68 -281 -68 -14 0 -17 5 -11 23 4 12 9 100 12 195 5 165 6
172 27 177 48 12 203 33 226 32 22 -2 25 -6 23 -37z"/>
<path d="M908 2230 c-27 -16 -22 -35 17 -64 55 -43 73 -88 84 -222 12 -131 14
-511 5 -616 l-7 -67 -83 -30 c-46 -17 -95 -33 -109 -37 l-25 -6 0 185 c0 102
-5 208 -11 236 -11 54 -49 101 -81 101 -19 0 -20 -5 -13 -67 9 -99 9 -173 -4
-313 -6 -69 -13 -151 -16 -182 l-5 -56 43 -21 c75 -37 197 -20 257 34 9 8 83
46 165 83 l149 69 19 -23 c21 -28 44 -30 74 -9 57 40 111 529 68 620 -18 37
-51 55 -101 55 -23 0 -37 -6 -41 -17 -3 -9 2 -58 12 -109 19 -98 17 -213 -6
-341 l-11 -62 -56 -16 c-31 -9 -73 -25 -94 -36 -20 -10 -39 -19 -41 -19 -2 0
2 38 9 83 22 149 37 532 25 622 -16 112 -37 185 -60 209 -24 23 -134 34 -163
16z"/>
<path d="M2305 1560 c-180 -37 -415 -104 -415 -117 0 -7 11 -20 25 -29 24 -15
34 -15 155 5 167 28 387 39 429 21 37 -15 36 -13 53 -195 13 -145 18 -798 6
-810 -4 -4 -17 0 -30 9 -37 26 -65 21 -77 -17 -16 -48 11 -128 61 -174 29 -28
115 -66 128 -58 6 4 20 25 32 48 27 51 27 79 10 472 -6 154 -12 379 -12 499 0
203 -2 223 -21 264 -33 68 -85 97 -178 99 -44 1 -114 -6 -166 -17z"/>
<path d="M1794 1374 c-4 -14 -1 -83 6 -152 8 -80 13 -269 12 -508 0 -209 3
-386 7 -393 15 -23 55 -8 70 26 17 38 14 37 146 58 168 28 425 96 425 114 0 4
-6 15 -13 25 -12 17 -22 17 -138 7 -130 -12 -262 -40 -336 -72 -25 -10 -47
-19 -49 -19 -2 0 -4 62 -4 139 l0 138 128 5 c154 6 287 37 295 70 8 29 -2 47
-30 55 -43 10 -223 -5 -307 -27 -44 -11 -81 -20 -84 -20 -7 0 5 231 13 251 5
14 27 17 123 21 93 4 132 10 191 31 41 14 79 31 84 36 16 16 -8 59 -35 66 -13
3 -97 -12 -188 -34 -91 -23 -168 -41 -171 -41 -3 0 -9 26 -12 59 -5 60 -35
141 -64 173 -25 27 -61 23 -69 -8z"/>
</g>
</svg>
