<?xml version="1.0" standalone="no"?>
<!DOCTYPE svg PUBLIC "-//W3C//DTD SVG 20010904//EN"
 "http://www.w3.org/TR/2001/REC-SVG-20010904/DTD/svg10.dtd">
<svg version="1.0" xmlns="http://www.w3.org/2000/svg"
 width="340.000000pt" height="340.000000pt" viewBox="0 0 340.000000 340.000000"
 preserveAspectRatio="xMidYMid meet">
<metadata>
Created by potrace 1.15, written by Peter Selinger 2001-2017
</metadata>
<g transform="translate(0.000000,340.000000) scale(0.100000,-0.100000)"
fill="#000000" stroke="none">
<path d="M2121 2506 c-6 -25 -11 -93 -11 -151 0 -118 -13 -156 -59 -174 -23
-9 -272 -61 -292 -61 -9 0 -16 30 -29 132 -6 47 -17 101 -24 120 -27 64 -95
104 -156 92 -26 -6 -27 -8 -18 -41 5 -19 25 -71 45 -116 28 -65 35 -96 37
-151 l1 -70 -45 -14 c-25 -7 -90 -17 -144 -20 -76 -5 -101 -11 -109 -24 -8
-12 -7 -21 3 -33 13 -15 30 -17 145 -12 71 3 139 8 151 12 19 6 22 2 28 -44 9
-68 31 -128 63 -170 l27 -35 18 40 c20 45 23 135 7 183 -9 26 -9 35 2 46 16
15 130 40 232 50 78 8 78 9 43 -79 -13 -34 -34 -102 -46 -152 l-22 -91 -105
-22 c-57 -12 -154 -37 -214 -56 -61 -19 -130 -35 -154 -35 l-42 0 -7 49 c-7
55 -38 101 -66 101 -20 0 -20 1 -54 -136 -9 -34 -23 -78 -32 -100 -18 -44 -16
-166 3 -185 17 -17 68 6 94 42 11 16 24 52 28 79 5 28 13 56 20 63 16 16 367
75 378 63 3 -2 -1 -14 -7 -26 -7 -14 -9 -46 -6 -88 4 -37 9 -115 12 -174 l6
-107 -69 -21 c-90 -29 -333 -90 -355 -90 -28 0 -33 -22 -8 -42 28 -23 76 -23
167 2 75 20 193 37 193 27 0 -10 -113 -152 -182 -229 -78 -86 -224 -216 -340
-302 -73 -53 -103 -94 -84 -114 18 -18 304 161 444 278 63 53 124 121 209 235
l23 30 -4 -365 c-2 -201 -7 -379 -11 -397 -6 -26 -3 -36 18 -57 16 -16 37 -26
56 -26 27 0 31 5 48 53 16 48 18 85 14 436 -2 234 0 382 6 380 5 -2 42 -42 83
-89 81 -94 322 -335 392 -393 79 -65 235 -92 384 -66 49 9 63 15 68 31 7 28
-10 57 -37 62 -12 3 -45 10 -73 15 -103 20 -303 120 -437 217 -63 46 -385 334
-386 346 -2 18 52 31 154 38 102 7 250 38 285 60 23 14 -3 56 -43 69 -29 10
-60 6 -206 -24 -95 -19 -174 -35 -176 -35 -2 0 -3 42 -3 93 0 134 -40 268 -86
282 -51 17 218 60 438 71 160 8 166 3 73 -59 -61 -40 -70 -59 -35 -78 50 -27
304 30 346 77 30 35 28 74 -6 107 -70 68 -328 92 -505 49 -49 -12 -93 -22 -98
-22 -17 0 -9 30 53 185 l62 155 72 0 c96 0 259 35 288 61 5 4 -5 21 -22 38
-26 27 -38 31 -84 31 -29 0 -91 -7 -137 -15 -46 -8 -86 -14 -88 -12 -2 2 4 24
13 48 23 63 23 163 0 223 -14 37 -26 51 -52 62 -48 20 -50 19 -63 -30z"/>
<path d="M732 2158 c-19 -19 -14 -43 18 -83 16 -21 34 -54 39 -74 13 -47 39
-391 48 -607 l6 -170 -91 -42 c-50 -23 -93 -42 -97 -42 -3 0 -3 39 1 88 8 110
-12 210 -59 295 -37 68 -47 75 -72 51 -12 -13 -15 -27 -11 -53 29 -168 29
-219 0 -451 -5 -39 -2 -49 19 -72 51 -55 86 -47 242 54 44 28 121 75 170 104
l90 52 7 -31 c12 -57 70 -70 88 -21 22 57 83 396 84 466 1 70 -1 80 -25 103
-14 14 -41 28 -61 31 l-35 6 -11 -63 c-6 -35 -13 -118 -16 -184 -3 -66 -9
-141 -12 -167 -7 -52 -3 -49 -105 -73 l-27 -7 6 395 5 394 -24 43 c-13 23 -36
48 -51 56 -33 17 -110 18 -126 2z"/>
</g>
</svg>
