<?xml version="1.0" standalone="no"?>
<!DOCTYPE svg PUBLIC "-//W3C//DTD SVG 20010904//EN"
 "http://www.w3.org/TR/2001/REC-SVG-20010904/DTD/svg10.dtd">
<svg version="1.0" xmlns="http://www.w3.org/2000/svg"
 width="340.000000pt" height="340.000000pt" viewBox="0 0 340.000000 340.000000"
 preserveAspectRatio="xMidYMid meet">
<metadata>
Created by potrace 1.15, written by Peter Selinger 2001-2017
</metadata>
<g transform="translate(0.000000,340.000000) scale(0.100000,-0.100000)"
fill="#000000" stroke="none">
<path d="M2370 2518 c0 -26 30 -91 59 -128 18 -23 20 -55 30 -450 6 -234 14
-639 18 -900 l6 -475 -22 -44 c-45 -88 -34 -220 25 -290 32 -39 62 -39 98 -2
l29 30 -2 162 c-1 90 -4 166 -7 171 -3 4 -9 398 -14 875 -6 477 -13 894 -18
925 -12 88 -80 148 -167 148 -30 0 -35 -3 -35 -22z"/>
<path d="M1037 2275 c-15 -37 -7 -64 28 -92 53 -44 73 -116 91 -328 40 -466
-35 -847 -240 -1214 -64 -115 -77 -158 -57 -190 11 -17 48 7 108 71 55 60 88
119 139 249 77 196 126 392 161 639 20 146 23 583 5 689 -19 111 -81 173 -185
187 -36 5 -45 3 -50 -11z"/>
<path d="M1715 2277 c-24 -18 -14 -57 25 -97 l30 -31 0 -728 0 -728 24 -22
c34 -32 67 -25 88 19 16 32 18 81 18 575 1 297 5 614 10 705 11 194 5 227 -50
282 -32 33 -44 38 -82 38 -24 0 -52 -6 -63 -13z"/>
<path d="M863 1784 c-20 -46 -31 -108 -71 -388 -16 -115 -16 -118 3 -132 26
-19 70 -18 91 3 75 76 86 448 15 542 l-18 23 -20 -48z"/>
<path d="M1990 1745 c0 -24 18 -72 39 -105 6 -8 22 -40 36 -70 23 -49 108
-150 126 -150 3 0 18 12 33 26 54 55 25 148 -78 242 -44 41 -115 81 -143 82
-7 0 -13 -11 -13 -25z"/>
<path d="M1370 1701 c0 -15 8 -39 19 -52 10 -13 28 -46 40 -74 27 -62 64 -102
116 -126 55 -26 74 -24 86 9 24 63 -26 140 -145 223 -81 58 -116 64 -116 20z"/>
</g>
</svg>
