<?xml version="1.0" standalone="no"?>
<!DOCTYPE svg PUBLIC "-//W3C//DTD SVG 20010904//EN"
 "http://www.w3.org/TR/2001/REC-SVG-20010904/DTD/svg10.dtd">
<svg version="1.0" xmlns="http://www.w3.org/2000/svg"
 width="340.000000pt" height="340.000000pt" viewBox="0 0 340.000000 340.000000"
 preserveAspectRatio="xMidYMid meet">
<metadata>
Created by potrace 1.15, written by Peter Selinger 2001-2017
</metadata>
<g transform="translate(0.000000,340.000000) scale(0.100000,-0.100000)"
fill="#000000" stroke="none">
<path d="M1112 2550 c-28 -12 -37 -33 -23 -58 9 -17 2 -33 -46 -103 -56 -81
-173 -300 -173 -323 0 -6 26 -24 58 -41 31 -16 89 -54 127 -83 80 -60 122 -77
170 -68 59 11 61 28 8 84 -53 55 -127 97 -203 113 -27 6 -50 13 -50 15 0 16
30 57 84 114 71 76 127 158 161 235 l25 55 -28 29 c-30 33 -75 45 -110 31z"/>
<path d="M1522 2544 c-14 -10 -22 -25 -22 -45 0 -24 -24 -61 -110 -167 -60
-76 -110 -144 -110 -153 0 -21 20 -39 45 -39 12 0 30 -10 41 -21 38 -43 255
-219 269 -219 8 0 15 -4 15 -8 0 -5 -46 -14 -102 -20 -69 -8 -118 -20 -153
-37 -28 -14 -91 -32 -140 -40 -151 -24 -191 -48 -115 -68 23 -6 72 -2 159 12
69 12 131 21 137 21 15 0 36 -78 32 -121 l-3 -34 -128 -40 c-70 -22 -126 -44
-124 -50 2 -5 16 -16 31 -23 23 -12 38 -11 102 3 40 9 86 15 101 13 l28 -3 0
-90 0 -90 -134 -39 c-142 -41 -151 -40 -151 12 0 39 -50 174 -85 233 -65 107
-185 199 -241 185 -37 -10 -28 -37 27 -79 63 -48 101 -108 135 -211 14 -45 44
-116 67 -160 l41 -79 95 7 c94 6 209 22 244 32 15 5 17 -2 17 -44 0 -27 -3
-69 -6 -94 l-6 -45 -97 -17 c-132 -25 -413 -96 -549 -141 -125 -40 -143 -61
-50 -58 65 2 434 74 530 104 118 36 121 28 30 -82 -116 -138 -267 -269 -424
-368 -73 -46 -108 -82 -108 -112 0 -17 3 -17 38 -5 70 25 238 114 329 175 62
41 126 98 196 172 l105 110 7 -78 c4 -43 6 -183 4 -311 -4 -260 -5 -257 64
-250 25 2 36 10 49 39 17 33 17 58 7 353 -6 175 -8 320 -6 322 2 2 39 -26 83
-64 264 -227 557 -448 639 -481 67 -27 171 -38 259 -27 49 7 58 11 71 37 14
26 14 30 -3 47 -11 11 -66 29 -138 46 -65 15 -135 32 -155 37 -39 10 -249 147
-547 357 -179 127 -191 137 -166 144 76 20 298 41 459 42 123 1 187 6 203 14
30 17 29 57 -3 78 -33 22 -145 16 -460 -24 -126 -16 -233 -28 -237 -25 -5 2
-8 44 -8 92 l0 89 98 17 c53 10 131 30 172 44 60 21 75 30 73 46 -1 11 24 46
61 86 76 80 145 175 191 263 29 55 32 70 25 97 -15 52 -39 80 -87 101 -41 18
-58 19 -162 13 -64 -4 -152 -13 -196 -21 -44 -7 -83 -14 -87 -14 -3 0 -2 15 4
33 8 27 7 41 -10 73 -36 69 -99 131 -172 168 l-70 35 36 48 c20 26 53 66 74
88 65 70 80 96 80 135 0 27 -7 45 -26 64 -31 30 -50 32 -82 10z m506 -739 c29
-9 52 -19 52 -23 -1 -20 -210 -359 -231 -375 -16 -11 -54 -21 -109 -27 -47 -4
-97 -11 -112 -15 l-28 -7 0 85 0 84 49 7 c52 7 145 60 138 80 -6 18 -67 35
-128 35 l-57 1 -5 63 c-2 34 -2 65 2 69 9 10 216 35 302 37 42 0 98 -6 127
-14z"/>
<path d="M1973 2510 c-21 -28 -63 -77 -94 -110 -31 -33 -64 -77 -74 -99 -9
-22 -26 -41 -36 -44 -11 -3 -19 -9 -19 -14 0 -27 231 -167 344 -209 47 -17 49
-17 62 1 21 29 17 73 -10 100 -28 28 -142 87 -203 105 l-42 13 73 68 c41 38
88 91 105 118 28 42 30 52 21 77 -14 35 -26 44 -62 44 -22 0 -36 -11 -65 -50z"/>
</g>
</svg>
