<?xml version="1.0" standalone="no"?>
<!DOCTYPE svg PUBLIC "-//W3C//DTD SVG 20010904//EN"
 "http://www.w3.org/TR/2001/REC-SVG-20010904/DTD/svg10.dtd">
<svg version="1.0" xmlns="http://www.w3.org/2000/svg"
 width="340.000000pt" height="340.000000pt" viewBox="0 0 340.000000 340.000000"
 preserveAspectRatio="xMidYMid meet">
<metadata>
Created by potrace 1.15, written by Peter Selinger 2001-2017
</metadata>
<g transform="translate(0.000000,340.000000) scale(0.100000,-0.100000)"
fill="#000000" stroke="none">
<path d="M2150 1934 c-8 -2 -94 -17 -190 -34 -193 -35 -525 -107 -666 -145
-51 -14 -116 -25 -146 -25 -53 0 -78 -12 -78 -37 0 -24 109 -48 220 -47 91 1
117 5 195 32 98 34 109 32 120 -21 4 -18 19 -61 33 -97 26 -62 27 -73 25 -220
-1 -104 -9 -193 -22 -270 -20 -110 -52 -231 -69 -257 -5 -8 -136 -30 -337 -57
-533 -72 -517 -70 -568 -58 -70 18 -115 16 -122 -7 -9 -29 4 -50 49 -76 109
-64 225 -74 361 -31 149 47 377 94 540 112 49 5 63 3 74 -10 20 -23 59 -20 85
9 21 22 34 25 162 36 239 20 553 0 784 -51 47 -10 117 -22 157 -26 l72 -6 6
36 c16 84 -18 110 -174 132 -266 37 -734 36 -918 -2 -20 -4 -23 0 -23 28 0 18
5 51 10 73 26 107 70 455 70 556 0 89 -21 144 -77 201 l-47 47 36 15 c46 20
128 31 353 51 99 9 187 18 196 21 18 5 39 45 39 75 0 39 -83 69 -150 53z"/>
</g>
</svg>
