<?xml version="1.0" standalone="no"?>
<!DOCTYPE svg PUBLIC "-//W3C//DTD SVG 20010904//EN"
 "http://www.w3.org/TR/2001/REC-SVG-20010904/DTD/svg10.dtd">
<svg version="1.0" xmlns="http://www.w3.org/2000/svg"
 width="340.000000pt" height="340.000000pt" viewBox="0 0 340.000000 340.000000"
 preserveAspectRatio="xMidYMid meet">
<metadata>
Created by potrace 1.15, written by Peter Selinger 2001-2017
</metadata>
<g transform="translate(0.000000,340.000000) scale(0.100000,-0.100000)"
fill="#000000" stroke="none">
<path d="M1899 2453 c-11 -29 -4 -73 17 -115 18 -35 34 -178 34 -304 0 -134 2
-132 -209 -184 -89 -22 -164 -40 -166 -40 -3 0 -11 15 -19 33 -16 37 -51 72
-83 82 -22 6 -23 4 -23 -42 0 -26 5 -66 10 -88 14 -59 38 -311 55 -596 10
-151 21 -258 28 -270 14 -22 36 -24 61 -6 16 12 19 35 23 213 4 125 1 253 -8
344 -7 80 -13 174 -13 210 l-1 65 150 17 c83 9 160 17 173 17 l22 1 0 -347 c0
-361 17 -1164 26 -1220 6 -37 28 -63 53 -63 15 0 20 11 25 58 21 175 24 384
11 756 -9 233 -12 483 -8 618 l6 227 71 16 c85 20 254 31 318 21 46 -7 46 -8
58 -57 9 -38 9 -73 1 -152 -22 -188 -67 -448 -101 -578 l-10 -36 -50 25 c-37
18 -58 23 -84 18 -45 -9 -49 -16 -31 -60 23 -55 79 -111 137 -136 l51 -22 41
29 c58 41 83 93 95 194 6 46 19 145 30 219 25 165 48 363 57 490 l6 96 -38 33
c-91 80 -206 102 -322 61 -55 -20 -221 -55 -227 -48 -1 2 1 48 6 103 4 55 8
159 9 231 0 129 0 130 -27 157 -31 29 -91 57 -123 57 -13 0 -24 -10 -31 -27z"/>
<path d="M1066 2354 c-8 -32 0 -63 26 -91 53 -57 93 -398 85 -708 -11 -381
-78 -654 -246 -995 -46 -94 -61 -134 -61 -167 l0 -44 28 15 c41 21 65 51 128
161 111 193 180 379 214 581 26 152 42 518 38 864 l-3 275 -27 45 c-30 52 -89
90 -141 90 -29 0 -36 -4 -41 -26z"/>
<path d="M770 1965 c0 -31 7 -72 17 -93 25 -56 30 -445 9 -648 -19 -184 -20
-205 -2 -229 12 -16 17 -17 45 -6 17 8 31 15 31 16 0 2 9 45 19 97 28 136 44
326 45 543 1 174 -1 197 -23 268 -27 87 -46 107 -103 107 l-38 0 0 -55z"/>
</g>
</svg>
