<?xml version="1.0" standalone="no"?>
<!DOCTYPE svg PUBLIC "-//W3C//DTD SVG 20010904//EN"
 "http://www.w3.org/TR/2001/REC-SVG-20010904/DTD/svg10.dtd">
<svg version="1.0" xmlns="http://www.w3.org/2000/svg"
 width="340.000000pt" height="340.000000pt" viewBox="0 0 340.000000 340.000000"
 preserveAspectRatio="xMidYMid meet">
<metadata>
Created by potrace 1.15, written by Peter Selinger 2001-2017
</metadata>
<g transform="translate(0.000000,340.000000) scale(0.100000,-0.100000)"
fill="#000000" stroke="none">
<path d="M1812 2621 c-89 -16 -244 -48 -343 -71 -99 -23 -208 -44 -242 -48
-47 -5 -63 -11 -65 -24 -2 -11 6 -22 23 -30 21 -9 57 -7 188 11 318 43 667 65
682 41 9 -14 -131 -397 -154 -423 -4 -4 -50 -14 -102 -22 -215 -34 -555 -98
-563 -106 -6 -5 -2 -17 10 -30 18 -21 24 -21 199 -16 115 3 221 13 293 26 138
24 141 26 219 63 52 25 63 35 68 62 4 17 33 85 65 151 60 121 96 238 102 329
3 50 3 50 -46 80 -66 41 -130 42 -334 7z"/>
<path d="M1655 2358 c-22 -6 -94 -26 -160 -45 -66 -19 -148 -41 -182 -48 -34
-8 -74 -20 -89 -28 l-27 -14 26 -18 c58 -38 298 -10 495 57 59 21 62 23 62 54
0 52 -37 64 -125 42z"/>
<path d="M2295 1859 c-33 -5 -172 -25 -310 -45 -271 -38 -656 -99 -880 -140
l-140 -25 -22 26 c-13 14 -23 37 -23 51 0 42 -27 94 -48 94 -31 0 -40 -19 -73
-151 -31 -124 -64 -216 -121 -341 -30 -65 -30 -68 -14 -93 24 -37 43 -41 84
-19 39 21 73 85 143 269 37 97 38 100 71 103 191 15 385 36 488 51 111 17 126
17 137 4 17 -22 33 -105 33 -171 l0 -58 -171 -44 c-156 -40 -172 -42 -181 -27
-5 9 -23 24 -40 33 -31 16 -33 16 -50 -6 -10 -12 -18 -28 -18 -35 0 -7 15 -77
34 -156 30 -125 45 -207 75 -409 6 -42 9 -45 38 -48 52 -5 57 15 43 207 -6 91
-17 200 -24 241 -8 41 -11 78 -7 82 7 8 174 35 246 40 l50 3 6 -415 c8 -502
21 -696 50 -725 18 -18 20 -18 36 -3 9 10 20 41 24 70 4 29 11 292 15 585 6
472 9 533 23 539 30 13 306 17 329 5 12 -6 26 -28 32 -49 22 -79 10 -156 -61
-395 l-20 -67 -32 24 c-45 34 -79 41 -115 22 l-31 -16 16 -45 c29 -88 109
-142 196 -133 28 3 36 11 69 73 21 39 49 105 63 147 34 105 69 321 61 381 -7
65 -42 125 -94 162 -44 30 -44 30 -175 29 -106 -1 -144 -5 -190 -21 -40 -14
-60 -17 -62 -9 -2 6 -6 56 -10 111 -4 55 -7 104 -8 109 -8 40 579 95 743 69
65 -10 72 -29 20 -55 -42 -21 -60 -44 -60 -75 0 -33 34 -46 106 -40 67 5 190
55 200 80 10 27 -17 98 -52 137 -53 58 -121 80 -242 79 -53 -1 -124 -5 -157
-10z"/>
</g>
</svg>
