<?xml version="1.0" standalone="no"?>
<!DOCTYPE svg PUBLIC "-//W3C//DTD SVG 20010904//EN"
 "http://www.w3.org/TR/2001/REC-SVG-20010904/DTD/svg10.dtd">
<svg version="1.0" xmlns="http://www.w3.org/2000/svg"
 width="340.000000pt" height="340.000000pt" viewBox="0 0 340.000000 340.000000"
 preserveAspectRatio="xMidYMid meet">
<metadata>
Created by potrace 1.15, written by Peter Selinger 2001-2017
</metadata>
<g transform="translate(0.000000,340.000000) scale(0.100000,-0.100000)"
fill="#000000" stroke="none">
<path d="M1488 2649 c-13 -7 -18 -22 -18 -51 0 -45 -27 -97 -63 -121 -32 -20
-156 -169 -203 -242 -21 -33 -40 -62 -41 -64 -2 -3 -29 8 -61 23 -71 33 -162
50 -162 29 0 -28 34 -78 100 -148 71 -75 105 -132 135 -225 22 -68 60 -144 93
-187 23 -31 28 -33 86 -33 33 1 97 7 141 15 43 8 80 13 81 12 1 -1 12 -22 25
-47 17 -34 23 -62 23 -119 l1 -74 -90 -24 c-49 -12 -149 -35 -222 -50 -132
-26 -150 -36 -118 -63 21 -17 61 -15 231 14 84 14 166 26 183 26 l31 0 0 -578
c0 -469 3 -582 13 -597 17 -22 34 -13 41 23 10 49 47 620 59 907 l12 280 65
12 c107 20 276 27 380 14 52 -7 99 -16 103 -20 10 -10 -80 -283 -122 -373 -44
-93 -43 -93 -79 -74 -49 25 -91 21 -103 -10 -12 -33 -6 -51 31 -102 42 -58 90
-72 154 -44 43 20 49 27 87 108 49 107 128 322 159 430 l23 80 -21 47 c-17 39
-30 51 -64 66 -82 36 -144 35 -385 -7 -123 -21 -225 -37 -228 -34 -3 3 -5 25
-5 49 0 24 -7 76 -16 114 -9 39 -14 73 -11 75 2 3 69 19 147 37 l143 32 39 52
c55 75 188 276 233 353 65 111 50 190 -43 221 -44 15 -226 6 -362 -17 -52 -9
-187 -43 -300 -76 -280 -83 -262 -81 -214 -24 21 26 67 70 102 97 69 55 126
133 147 202 14 46 14 46 -16 72 -32 27 -89 33 -121 14z m664 -389 l36 -11 -40
-87 c-23 -48 -72 -146 -110 -218 l-69 -131 -99 -6 c-120 -7 -315 -46 -434 -87
-50 -16 -93 -30 -97 -30 -3 0 -16 43 -29 96 -21 94 -63 223 -94 296 -15 36
-15 37 10 57 15 12 41 21 60 21 18 0 155 20 306 45 385 62 386 62 458 64 36 0
82 -4 102 -9z"/>
<path d="M1625 2080 c-124 -32 -246 -79 -252 -97 -2 -6 7 -19 21 -28 22 -15
30 -15 103 0 181 37 363 98 363 121 0 42 -85 43 -235 4z"/>
<path d="M987 1363 c-15 -15 -5 -53 25 -94 37 -50 85 -194 123 -366 26 -118
40 -143 77 -143 32 0 41 37 35 150 -9 176 -66 311 -174 416 -42 41 -70 53 -86
37z"/>
</g>
</svg>
