<?xml version="1.0" standalone="no"?>
<!DOCTYPE svg PUBLIC "-//W3C//DTD SVG 20010904//EN"
 "http://www.w3.org/TR/2001/REC-SVG-20010904/DTD/svg10.dtd">
<svg version="1.0" xmlns="http://www.w3.org/2000/svg"
 width="340.000000pt" height="340.000000pt" viewBox="0 0 340.000000 340.000000"
 preserveAspectRatio="xMidYMid meet">
<metadata>
Created by potrace 1.15, written by Peter Selinger 2001-2017
</metadata>
<g transform="translate(0.000000,340.000000) scale(0.100000,-0.100000)"
fill="#000000" stroke="none">
<path d="M1965 2409 c-20 -59 -6 -51 -245 -133 -241 -83 -248 -86 -282 -114
-28 -24 -29 -27 -12 -33 31 -12 102 -10 167 6 34 8 116 28 182 44 67 16 169
48 228 71 104 42 107 43 123 87 24 62 10 87 -57 107 -80 24 -85 22 -104 -35z"/>
<path d="M758 2339 c-24 -14 -23 -31 9 -92 26 -50 27 -59 31 -237 l4 -185
-110 -54 -110 -54 -26 31 c-28 32 -81 51 -98 34 -6 -6 -1 -34 16 -80 43 -122
76 -404 76 -669 0 -83 3 -158 6 -167 7 -19 37 -21 52 -3 36 44 50 555 18 679
-10 37 -16 80 -14 95 3 26 9 29 73 45 39 9 84 17 101 17 l31 1 5 -736 c5 -684
7 -736 23 -755 23 -24 37 -24 60 1 17 19 17 50 10 598 -4 318 -4 658 0 755 7
163 9 179 28 188 38 21 86 15 115 -14 l27 -28 0 -187 c0 -103 -4 -236 -9 -295
-7 -95 -10 -108 -25 -102 -38 17 -50 16 -71 -5 -19 -19 -21 -29 -16 -74 12
-87 53 -134 133 -151 30 -6 32 -5 53 52 18 45 25 91 31 208 5 83 13 197 18
255 6 58 10 163 11 233 0 145 -7 169 -67 214 -32 25 -45 28 -107 28 -39 0 -80
-3 -91 -7 -20 -8 -20 -5 -17 103 5 119 -9 228 -37 312 l-18 52 -49 2 c-27 2
-57 -2 -66 -8z"/>
<path d="M1735 2123 c-29 -7 -55 -33 -55 -56 0 -11 9 -35 21 -54 33 -53 49
-128 56 -260 l6 -122 -54 -15 c-30 -9 -139 -40 -244 -70 -104 -29 -191 -58
-192 -63 -2 -5 5 -17 15 -26 16 -15 29 -15 108 -6 75 9 188 34 293 65 l24 7
-24 -44 c-13 -24 -89 -107 -168 -184 -165 -160 -306 -324 -292 -338 18 -18 58
3 152 75 106 81 249 221 324 317 l50 64 6 -144 c3 -79 12 -172 19 -207 7 -34
10 -65 8 -68 -3 -2 -47 -16 -99 -30 -51 -14 -126 -39 -165 -55 -68 -26 -75
-27 -102 -13 -34 16 -88 4 -79 -19 65 -153 88 -247 106 -425 11 -104 18 -129
44 -150 20 -17 316 3 492 33 195 33 195 33 189 -7 -6 -41 15 -82 42 -86 29 -4
101 78 115 132 6 23 22 79 36 125 37 124 52 223 53 342 l0 105 -32 32 c-41 38
-95 62 -145 62 -21 0 -109 -7 -195 -17 -86 -9 -159 -15 -161 -13 -2 3 -1 101
2 218 l6 212 80 -57 c44 -31 158 -109 254 -172 95 -64 198 -133 227 -153 78
-52 163 -79 271 -85 100 -6 146 5 164 39 21 39 -8 59 -127 88 -117 29 -231 76
-477 194 -224 109 -401 209 -405 229 -6 29 18 47 59 47 83 0 339 75 339 100 0
5 -10 21 -23 35 -27 32 -67 35 -142 11 -99 -31 -226 -55 -230 -43 -2 7 -6 73
-9 147 -3 74 -10 155 -16 180 -6 25 -12 55 -15 67 -8 36 -67 66 -110 56z m518
-1228 l49 -17 -7 -72 c-10 -102 -53 -328 -66 -341 -9 -9 -318 -27 -328 -19 -2
2 4 45 13 97 l17 93 44 12 c53 14 123 78 105 96 -6 6 -42 11 -80 11 l-68 0 -6
35 c-3 19 -6 52 -6 72 0 40 -4 38 95 52 58 8 190 -3 238 -19z m-447 -87 c-8
-90 -21 -110 -80 -126 -42 -11 -46 -15 -46 -42 l0 -30 63 0 62 0 -3 -92 c-2
-51 -7 -97 -11 -101 -8 -8 -214 -68 -218 -63 -1 1 -7 44 -13 96 -13 107 -40
234 -71 328 -12 35 -18 66 -15 69 6 6 219 29 295 32 l44 1 -7 -72z"/>
<path d="M2181 2113 c-5 -11 -8 -28 -5 -39 3 -15 -12 -31 -66 -69 -97 -68
-121 -95 -127 -144 l-6 -41 34 6 c105 20 288 116 316 166 7 13 12 40 13 60 0
47 -29 69 -100 76 -40 4 -50 1 -59 -15z"/>
<path d="M1332 1908 c-18 -18 -16 -20 38 -77 59 -61 117 -90 183 -91 l47 0 0
39 c0 39 -25 82 -59 101 -19 10 -155 40 -181 40 -9 0 -21 -5 -28 -12z"/>
</g>
</svg>
