<?xml version="1.0" standalone="no"?>
<!DOCTYPE svg PUBLIC "-//W3C//DTD SVG 20010904//EN"
 "http://www.w3.org/TR/2001/REC-SVG-20010904/DTD/svg10.dtd">
<svg version="1.0" xmlns="http://www.w3.org/2000/svg"
 width="340.000000pt" height="340.000000pt" viewBox="0 0 340.000000 340.000000"
 preserveAspectRatio="xMidYMid meet">
<metadata>
Created by potrace 1.15, written by Peter Selinger 2001-2017
</metadata>
<g transform="translate(0.000000,340.000000) scale(0.100000,-0.100000)"
fill="#000000" stroke="none">
<path d="M2120 2595 c-8 -10 -10 -29 -6 -54 3 -22 3 -46 0 -54 -3 -9 -36 -38
-72 -65 -109 -81 -274 -266 -255 -286 4 -3 20 -6 37 -6 32 0 172 93 330 218
110 88 116 95 116 146 0 24 -3 52 -6 61 -14 36 -122 66 -144 40z"/>
<path d="M1214 2438 c4 -18 19 -49 34 -68 15 -19 40 -55 54 -80 15 -25 43 -64
63 -87 30 -35 43 -43 71 -43 49 0 71 36 55 90 -24 82 -190 220 -264 220 -17 0
-19 -5 -13 -32z"/>
<path d="M1940 2009 c-271 -68 -641 -141 -683 -134 -41 6 -77 -8 -77 -30 0
-23 30 -33 130 -46 116 -15 241 -1 374 41 108 35 152 38 160 13 8 -24 26 -273
26 -351 0 -42 -4 -64 -12 -66 -18 -5 -292 -40 -297 -38 -3 1 -4 26 -2 55 3 70
-21 183 -54 246 -25 50 -28 52 -62 49 -45 -4 -56 -31 -41 -105 5 -26 10 -99
11 -161 2 -126 2 -125 -67 -136 -22 -4 -180 -36 -351 -71 -171 -35 -332 -67
-359 -72 l-49 -8 27 -32 c47 -56 85 -59 260 -23 198 42 462 107 488 121 45 24
51 -24 22 -181 -31 -172 -118 -391 -205 -517 -22 -32 -34 -62 -37 -96 l-5 -50
29 21 c43 30 117 110 154 166 71 106 152 345 191 563 l24 132 85 15 c47 9 124
19 171 22 l86 7 7 -539 c6 -531 13 -650 37 -665 25 -15 37 4 47 79 20 142 23
225 26 684 1 252 4 459 6 462 19 18 197 30 456 31 321 0 328 1 322 59 -3 28
-8 32 -63 49 -75 23 -175 20 -470 -17 -115 -14 -218 -26 -227 -26 -16 0 -18
12 -18 108 0 92 -17 236 -35 293 -5 14 2 18 37 24 103 16 198 64 198 101 0 26
-47 64 -77 63 -15 -1 -98 -19 -183 -40z"/>
</g>
</svg>
