<?xml version="1.0" standalone="no"?>
<!DOCTYPE svg PUBLIC "-//W3C//DTD SVG 20010904//EN"
 "http://www.w3.org/TR/2001/REC-SVG-20010904/DTD/svg10.dtd">
<svg version="1.0" xmlns="http://www.w3.org/2000/svg"
 width="340.000000pt" height="340.000000pt" viewBox="0 0 340.000000 340.000000"
 preserveAspectRatio="xMidYMid meet">
<metadata>
Created by potrace 1.15, written by Peter Selinger 2001-2017
</metadata>
<g transform="translate(0.000000,340.000000) scale(0.100000,-0.100000)"
fill="#000000" stroke="none">
<path d="M1603 2334 c-25 -11 -12 -34 40 -73 67 -51 165 -104 248 -135 l66
-25 19 35 c17 32 18 37 4 62 -21 37 -97 85 -175 110 -64 22 -180 36 -202 26z"/>
<path d="M2140 2010 c-157 -26 -384 -67 -505 -91 -121 -24 -236 -43 -255 -43
-22 0 -53 12 -84 32 -57 37 -100 41 -116 13 -16 -30 -12 -70 10 -98 29 -37 34
-85 21 -182 -34 -245 -128 -541 -247 -781 -103 -206 -185 -332 -283 -436 -69
-73 -151 -198 -138 -211 12 -11 124 64 193 129 176 168 413 613 529 995 53
173 85 323 85 398 0 43 4 67 13 70 28 10 938 103 1002 103 81 0 109 9 159 52
41 37 44 52 16 80 -29 29 -72 26 -400 -30z"/>
<path d="M1801 1711 c-24 -24 -21 -49 10 -90 24 -30 27 -52 35 -273 l6 -188
-28 -10 c-21 -8 -389 -80 -409 -80 -14 0 -2 -31 17 -44 28 -20 130 -20 293 -1
65 8 122 12 125 9 3 -3 7 -133 8 -289 l4 -283 -89 -6 c-171 -12 -379 -37 -511
-62 -73 -13 -143 -22 -155 -19 -27 6 -72 -15 -72 -35 0 -10 18 -19 50 -26 84
-20 224 -16 378 10 264 46 402 58 708 63 246 5 323 2 450 -13 186 -21 209 -21
232 7 28 35 21 56 -30 85 -83 50 -124 55 -347 44 -110 -5 -263 -15 -339 -21
-76 -7 -140 -9 -144 -6 -11 12 -26 391 -19 488 9 115 -13 103 221 119 177 13
221 25 231 66 13 52 -2 59 -127 58 -63 -1 -154 -9 -204 -18 -140 -25 -129 -34
-121 92 4 59 2 168 -4 242 -10 128 -12 137 -39 163 -39 39 -100 48 -130 18z"/>
</g>
</svg>
