<?xml version="1.0" standalone="no"?>
<!DOCTYPE svg PUBLIC "-//W3C//DTD SVG 20010904//EN"
 "http://www.w3.org/TR/2001/REC-SVG-20010904/DTD/svg10.dtd">
<svg version="1.0" xmlns="http://www.w3.org/2000/svg"
 width="340.000000pt" height="340.000000pt" viewBox="0 0 340.000000 340.000000"
 preserveAspectRatio="xMidYMid meet">
<metadata>
Created by potrace 1.15, written by Peter Selinger 2001-2017
</metadata>
<g transform="translate(0.000000,340.000000) scale(0.100000,-0.100000)"
fill="#000000" stroke="none">
<path d="M1513 2384 c-26 -11 -12 -44 30 -75 23 -17 96 -57 162 -90 161 -80
225 -81 225 -3 0 38 -24 60 -114 104 -91 44 -264 81 -303 64z"/>
<path d="M2250 2039 c-162 -34 -343 -65 -865 -151 l-130 -22 -31 31 c-50 51
-134 54 -134 6 0 -8 10 -47 21 -85 19 -61 21 -86 16 -182 -15 -286 -119 -651
-269 -945 -50 -98 -158 -268 -252 -398 -23 -31 -43 -100 -32 -110 9 -9 103 65
151 119 81 90 229 351 319 561 122 285 226 683 226 863 l0 62 38 6 c185 29
1008 126 1068 126 61 0 127 32 154 74 25 41 25 55 3 72 -27 20 -81 15 -283
-27z"/>
<path d="M1664 1625 c-13 -33 7 -90 65 -189 33 -55 77 -137 98 -180 60 -125
112 -148 140 -62 11 32 10 46 -12 115 -41 130 -135 248 -246 310 -35 20 -40
21 -45 6z"/>
<path d="M2311 1602 c-19 -36 -12 -59 30 -108 40 -47 41 -49 35 -103 -5 -44
-22 -83 -78 -181 -114 -202 -384 -603 -452 -671 -22 -23 -38 -28 -103 -33
-113 -10 -339 -43 -483 -71 -69 -13 -142 -27 -163 -30 -71 -11 -57 -63 25 -91
77 -26 176 -23 265 9 231 82 686 130 1030 108 103 -6 206 -16 228 -21 104 -25
175 -4 175 51 0 27 -6 33 -52 53 -98 43 -153 51 -318 49 -144 -3 -331 -15
-442 -29 -39 -5 -48 -4 -48 9 0 9 12 25 27 37 76 60 368 466 492 685 102 180
93 250 -43 314 -92 43 -112 47 -125 23z"/>
<path d="M1320 1260 c0 -32 94 -222 189 -383 52 -87 82 -114 116 -101 21 8 29
46 21 97 -11 69 -89 216 -150 283 -47 53 -151 134 -170 134 -3 0 -6 -14 -6
-30z"/>
</g>
</svg>
