<?xml version="1.0" standalone="no"?>
<!DOCTYPE svg PUBLIC "-//W3C//DTD SVG 20010904//EN"
 "http://www.w3.org/TR/2001/REC-SVG-20010904/DTD/svg10.dtd">
<svg version="1.0" xmlns="http://www.w3.org/2000/svg"
 width="340.000000pt" height="340.000000pt" viewBox="0 0 340.000000 340.000000"
 preserveAspectRatio="xMidYMid meet">
<metadata>
Created by potrace 1.15, written by Peter Selinger 2001-2017
</metadata>
<g transform="translate(0.000000,340.000000) scale(0.100000,-0.100000)"
fill="#000000" stroke="none">
<path d="M1485 2456 c-15 -11 -18 -19 -10 -31 13 -22 180 -117 274 -156 l75
-31 23 26 c28 33 29 46 2 80 -57 73 -312 151 -364 112z"/>
<path d="M2195 2179 c-55 -11 -292 -58 -527 -104 -235 -47 -442 -85 -459 -85
-19 0 -43 10 -61 25 -35 29 -95 35 -105 9 -3 -9 4 -52 17 -96 22 -78 23 -86
12 -222 -15 -181 -43 -335 -88 -483 -52 -171 -90 -258 -239 -543 -218 -418
-219 -420 -176 -420 21 0 53 34 113 120 180 260 333 583 423 899 57 201 114
546 100 610 -4 17 -1 32 7 38 7 6 74 16 148 23 209 17 376 38 615 76 121 19
248 38 282 43 67 10 173 53 173 71 0 6 -11 22 -25 35 -30 31 -69 31 -210 4z"/>
<path d="M2001 1936 c-6 -7 -8 -21 -5 -30 14 -36 -42 -71 -228 -146 -79 -32
-166 -85 -228 -138 -30 -26 -33 -32 -21 -46 19 -23 36 -21 152 23 169 63 149
69 199 -62 24 -61 60 -150 81 -196 22 -46 39 -89 39 -95 0 -6 -35 -21 -78 -34
-42 -13 -126 -43 -187 -67 -108 -43 -202 -71 -210 -64 -2 2 -8 98 -14 213 -9
167 -15 216 -30 252 -21 46 -69 84 -109 84 -25 0 -25 5 4 -110 33 -136 45
-551 23 -790 -10 -108 -49 -358 -64 -407 -11 -35 34 -73 87 -73 41 0 47 4 148
107 100 102 224 268 214 285 -21 34 -130 -27 -241 -135 -29 -28 -54 -49 -56
-46 -2 2 4 110 14 239 10 129 18 254 18 278 1 35 4 42 20 42 41 0 281 53 391
87 88 26 116 31 119 21 2 -7 35 -74 72 -148 117 -234 226 -386 423 -588 150
-154 205 -194 256 -190 30 3 38 9 54 42 17 35 18 46 7 119 -11 80 -64 212 -86
212 -5 0 -20 -16 -33 -35 -19 -29 -23 -45 -20 -93 2 -31 -1 -57 -5 -57 -4 0
-74 66 -155 148 -189 188 -303 350 -389 550 -26 63 -26 63 -7 83 13 13 53 26
110 38 92 19 154 45 212 89 38 29 39 36 7 67 -31 32 -90 33 -147 4 -54 -28
-214 -89 -231 -89 -9 0 -27 35 -47 91 -18 50 -56 138 -86 197 -30 58 -54 109
-54 114 0 4 8 8 18 8 33 0 140 60 171 96 17 19 40 53 51 74 l21 40 -25 25
c-21 21 -35 25 -84 25 -38 0 -64 -5 -71 -14z"/>
<path d="M1856 565 c-11 -29 -8 -33 80 -124 54 -56 107 -100 144 -120 32 -17
61 -31 64 -31 4 0 14 16 22 36 30 72 -24 143 -161 209 -88 43 -140 53 -149 30z"/>
</g>
</svg>
