<?xml version="1.0" standalone="no"?>
<!DOCTYPE svg PUBLIC "-//W3C//DTD SVG 20010904//EN"
 "http://www.w3.org/TR/2001/REC-SVG-20010904/DTD/svg10.dtd">
<svg version="1.0" xmlns="http://www.w3.org/2000/svg"
 width="340.000000pt" height="340.000000pt" viewBox="0 0 340.000000 340.000000"
 preserveAspectRatio="xMidYMid meet">
<metadata>
Created by potrace 1.15, written by Peter Selinger 2001-2017
</metadata>
<g transform="translate(0.000000,340.000000) scale(0.100000,-0.100000)"
fill="#000000" stroke="none">
<path d="M1514 2457 c-9 -25 12 -52 58 -72 48 -21 126 -75 205 -142 41 -35 58
-43 75 -37 37 11 48 25 48 61 0 47 -72 123 -155 164 -77 38 -220 54 -231 26z"/>
<path d="M2265 2220 c-44 -11 -150 -31 -235 -45 -85 -14 -204 -34 -265 -45
-139 -24 -308 -47 -450 -60 l-109 -10 -27 26 c-28 27 -111 46 -121 28 -3 -5 7
-61 23 -124 33 -132 35 -173 13 -319 -48 -330 -155 -655 -306 -926 -54 -98
-163 -264 -249 -381 -18 -23 -33 -59 -36 -83 -6 -41 -5 -43 15 -32 39 21 131
112 180 179 288 389 517 1013 539 1470 l6 112 142 0 c174 0 356 14 535 41 74
11 185 24 245 29 157 12 305 52 305 84 0 8 -10 27 -23 41 -29 35 -80 39 -182
15z"/>
<path d="M1672 1964 c-41 -17 -44 -56 -6 -80 41 -28 56 -69 58 -163 l1 -85
-150 -29 c-82 -16 -152 -31 -154 -33 -3 -3 3 -12 12 -21 15 -15 28 -16 147 -5
72 7 136 10 142 6 10 -7 5 -200 -6 -211 -2 -3 -112 -27 -243 -55 -131 -27
-242 -53 -246 -58 -13 -12 22 -40 51 -40 23 0 265 28 380 44 l32 5 0 -48 c0
-26 -5 -73 -11 -104 l-12 -57 -141 -45 c-78 -24 -160 -49 -184 -55 -32 -8 -42
-15 -40 -28 6 -33 51 -37 170 -14 124 24 158 27 158 12 0 -22 -49 -141 -84
-204 -68 -122 -173 -217 -360 -328 -44 -26 -88 -89 -73 -104 10 -11 98 15 174
52 179 85 353 298 432 527 39 113 33 113 121 -3 71 -92 241 -273 426 -450 155
-148 207 -180 327 -201 67 -11 193 -7 230 7 24 9 32 44 14 61 -8 8 -60 25
-115 39 -213 50 -418 192 -727 503 -82 82 -147 152 -144 155 2 3 69 14 147 26
149 21 332 57 341 65 2 3 0 18 -5 33 -8 22 -16 28 -47 30 -20 2 -37 6 -37 8 0
3 34 57 76 120 l76 114 87 0 c83 0 157 9 269 31 51 10 52 11 52 45 0 54 -27
61 -154 41 -57 -9 -127 -17 -155 -17 l-51 0 25 50 c42 83 29 165 -32 206 -44
29 -293 32 -428 5 -55 -11 -110 -23 -122 -27 -22 -6 -23 -4 -23 65 0 77 -17
131 -53 169 -44 47 -100 65 -145 46z m628 -353 c30 -8 29 -33 -4 -125 l-21
-61 -145 -21 c-80 -12 -183 -25 -229 -29 l-83 -8 7 64 c13 113 26 142 67 156
79 26 345 42 408 24z m-70 -310 c0 -10 -9 -38 -20 -62 -11 -24 -20 -61 -20
-81 0 -20 -4 -39 -9 -42 -13 -9 -392 -58 -398 -53 -2 3 4 49 14 104 l18 98
190 26 c237 33 225 33 225 10z"/>
</g>
</svg>
