<?xml version="1.0" standalone="no"?>
<!DOCTYPE svg PUBLIC "-//W3C//DTD SVG 20010904//EN"
 "http://www.w3.org/TR/2001/REC-SVG-20010904/DTD/svg10.dtd">
<svg version="1.0" xmlns="http://www.w3.org/2000/svg"
 width="340.000000pt" height="340.000000pt" viewBox="0 0 340.000000 340.000000"
 preserveAspectRatio="xMidYMid meet">
<metadata>
Created by potrace 1.15, written by Peter Selinger 2001-2017
</metadata>
<g transform="translate(0.000000,340.000000) scale(0.100000,-0.100000)"
fill="#000000" stroke="none">
<path d="M1800 2549 c-151 -33 -315 -68 -365 -79 -49 -11 -138 -25 -197 -31
-101 -11 -106 -13 -97 -31 20 -38 73 -51 163 -39 45 5 118 13 164 16 l83 7 -3
-138 -3 -137 -60 -14 c-237 -52 -335 -78 -335 -88 0 -49 93 -57 280 -25 63 11
116 20 118 20 1 0 2 -58 2 -129 l0 -129 -97 -22 c-205 -46 -454 -107 -460
-114 -4 -3 1 -14 10 -23 15 -15 27 -15 119 -5 57 7 126 12 154 12 50 0 52 -1
58 -32 11 -53 28 -278 23 -292 -3 -7 -34 -19 -69 -25 -34 -7 -179 -37 -322
-67 -222 -46 -274 -54 -367 -54 -60 0 -109 -4 -109 -9 0 -22 45 -61 102 -86
92 -42 186 -46 264 -11 62 27 157 58 339 107 61 16 118 32 128 35 23 7 23 -33
-3 -156 -14 -67 -39 -133 -82 -225 -34 -71 -83 -179 -109 -240 -44 -100 -46
-110 -29 -113 34 -6 58 16 120 110 115 172 211 400 241 573 7 39 17 75 23 81
16 17 402 91 414 80 2 -2 10 -181 17 -398 24 -673 26 -707 44 -728 49 -59 60
49 68 662 l6 477 46 8 c25 4 136 8 246 7 162 0 224 -4 330 -23 l129 -23 28 31
c16 17 28 35 28 41 0 22 -48 62 -85 70 -123 29 -444 21 -618 -15 -104 -22 -98
-29 -116 155 -6 63 -14 127 -17 141 l-6 26 203 6 c196 5 204 6 222 28 10 12
17 34 15 48 -2 20 -12 29 -43 39 -48 16 -264 3 -490 -28 -77 -11 -161 -20
-187 -20 l-48 0 1 78 c0 42 4 99 7 127 l7 50 105 13 c115 14 250 43 305 66 41
17 46 45 15 76 -25 25 -31 25 -175 -5 -66 -14 -149 -28 -185 -31 l-65 -6 5
143 5 143 65 13 c36 8 135 23 220 34 88 11 164 26 177 34 29 20 32 70 4 85
-32 17 -75 11 -361 -51z m64 -894 c11 -23 19 -75 23 -163 l6 -129 -79 -12
c-43 -7 -131 -24 -194 -37 -63 -13 -118 -24 -122 -24 -5 0 -8 33 -8 73 0 80
-19 166 -50 226 l-19 39 76 17 c75 17 257 42 319 44 27 1 34 -4 48 -34z"/>
</g>
</svg>
