<?xml version="1.0" standalone="no"?>
<!DOCTYPE svg PUBLIC "-//W3C//DTD SVG 20010904//EN"
 "http://www.w3.org/TR/2001/REC-SVG-20010904/DTD/svg10.dtd">
<svg version="1.0" xmlns="http://www.w3.org/2000/svg"
 width="340.000000pt" height="340.000000pt" viewBox="0 0 340.000000 340.000000"
 preserveAspectRatio="xMidYMid meet">
<metadata>
Created by potrace 1.15, written by Peter Selinger 2001-2017
</metadata>
<g transform="translate(0.000000,340.000000) scale(0.100000,-0.100000)"
fill="#000000" stroke="none">
<path d="M2006 2299 c-3 -8 -6 -22 -8 -32 -2 -14 -46 -38 -158 -86 -85 -37
-198 -90 -250 -118 l-95 -52 -33 30 c-25 23 -42 29 -65 27 -38 -4 -37 11 -7
-223 70 -533 7 -952 -206 -1350 -49 -93 -84 -192 -84 -239 0 -18 2 -18 26 5
174 162 352 667 395 1121 10 110 8 483 -3 553 -2 15 3 21 22 23 14 2 159 49
322 105 318 109 318 109 318 176 0 44 -32 65 -105 69 -49 3 -66 1 -69 -9z"/>
<path d="M985 2206 c-49 -13 -148 -46 -220 -74 -71 -28 -146 -53 -166 -57 -53
-10 -63 -19 -50 -43 17 -33 51 -33 160 -2 120 35 242 58 326 62 l60 3 3 -33
c3 -29 -61 -187 -121 -301 -9 -18 -31 -28 -102 -47 -92 -23 -283 -87 -317
-105 -22 -12 -23 -44 -3 -93 38 -89 27 -209 -34 -406 -28 -87 -28 -90 -10
-119 34 -57 86 -53 187 16 85 59 180 106 266 132 37 12 73 21 78 21 15 0 2
-185 -22 -325 -32 -188 -119 -447 -153 -453 -8 -2 -39 13 -67 32 -29 20 -64
37 -79 38 -31 1 -74 -2 -79 -7 -8 -7 41 -102 66 -129 42 -44 113 -86 147 -86
74 0 153 68 174 149 6 20 28 106 50 191 46 175 74 321 96 492 13 107 13 122
-1 158 -45 112 -126 106 -418 -29 -49 -23 -91 -39 -94 -36 -6 5 -2 30 33 215
10 50 14 106 11 137 l-6 52 57 11 c88 17 151 39 226 78 78 40 91 59 217 313
l73 146 -19 38 c-42 84 -117 102 -269 61z"/>
<path d="M1685 1970 c-18 -20 -18 -41 6 -155 9 -41 13 -171 13 -415 1 -421
-15 -581 -89 -914 -9 -39 -17 -104 -18 -145 l-2 -76 42 -9 c70 -15 118 10 204
107 41 45 106 117 146 159 l73 76 16 -34 c23 -49 59 -74 105 -74 31 0 39 4 39
18 0 32 -27 117 -52 167 -45 88 -217 265 -257 265 -21 0 -11 -67 15 -106 24
-35 79 -164 72 -168 -25 -14 -140 -104 -195 -154 l-72 -64 4 34 c2 18 7 81 9
140 3 58 17 195 30 305 14 109 30 284 37 388 14 221 7 570 -11 606 -34 67 -81
87 -115 49z"/>
<path d="M1870 1805 c0 -31 49 -147 87 -207 23 -35 85 -139 138 -233 252 -439
372 -629 429 -683 77 -73 146 -103 251 -110 l84 -5 7 27 c10 43 -9 72 -60 89
-166 57 -359 268 -569 622 -119 202 -153 254 -264 403 -81 108 -103 129 -103
97z"/>
</g>
</svg>
