<?xml version="1.0" standalone="no"?>
<!DOCTYPE svg PUBLIC "-//W3C//DTD SVG 20010904//EN"
 "http://www.w3.org/TR/2001/REC-SVG-20010904/DTD/svg10.dtd">
<svg version="1.0" xmlns="http://www.w3.org/2000/svg"
 width="340.000000pt" height="340.000000pt" viewBox="0 0 340.000000 340.000000"
 preserveAspectRatio="xMidYMid meet">
<metadata>
Created by potrace 1.15, written by Peter Selinger 2001-2017
</metadata>
<g transform="translate(0.000000,340.000000) scale(0.100000,-0.100000)"
fill="#000000" stroke="none">
<path d="M1308 2634 c-37 -20 -35 -38 11 -93 l40 -48 -103 -209 -103 -210 -54
-16 c-123 -39 -304 -81 -459 -107 -143 -24 -165 -30 -168 -47 -6 -45 42 -63
168 -64 87 0 150 15 308 72 62 22 115 39 117 36 3 -3 -1 -20 -9 -39 -7 -19
-17 -55 -20 -81 l-7 -48 30 6 c22 5 46 -3 100 -32 39 -22 71 -42 71 -45 0 -3
-36 -33 -79 -68 -43 -34 -126 -106 -182 -160 -83 -79 -102 -102 -92 -112 10
-10 18 -10 40 0 51 23 217 137 319 219 l102 81 60 -36 c32 -19 79 -52 103 -73
l43 -37 -103 -32 c-58 -18 -123 -36 -145 -40 -31 -5 -41 -11 -41 -26 0 -28 53
-38 170 -32 80 4 121 12 205 41 113 39 260 70 385 82 l79 7 -19 -29 c-10 -16
-47 -72 -82 -125 l-64 -96 -57 -7 c-90 -10 -300 -54 -412 -86 -96 -27 -104
-28 -132 -14 -50 26 -62 13 -55 -58 6 -71 -6 -158 -33 -237 -54 -153 12 -194
210 -128 125 42 274 74 385 82 44 3 123 11 175 16 88 10 201 2 218 -16 17 -17
-116 -308 -203 -441 l-53 -81 -71 35 c-86 42 -181 56 -181 27 0 -29 46 -100
83 -128 18 -14 61 -40 95 -57 72 -38 113 -36 154 8 35 37 152 210 183 271 74
147 134 354 114 393 -57 110 -141 146 -276 118 -26 -6 -181 -31 -343 -56 -162
-25 -305 -48 -317 -51 -23 -5 -23 -4 -23 100 0 98 2 107 22 121 12 9 35 16 50
16 15 0 83 9 150 20 68 10 177 24 243 30 66 7 131 18 145 25 38 20 67 56 74
94 4 24 26 55 71 102 36 37 72 83 80 103 17 41 19 103 5 142 l-11 27 -117 -6
c-101 -5 -220 -27 -284 -52 -31 -12 -19 9 19 35 21 14 93 79 161 144 111 108
124 118 145 108 12 -6 96 -69 186 -141 217 -173 276 -200 431 -201 116 0 185
47 133 91 -10 9 -101 42 -203 75 -179 57 -190 62 -340 158 -85 54 -157 100
-159 102 -3 3 5 17 17 32 60 75 170 247 208 325 41 84 42 90 28 113 -24 36
-77 64 -122 64 -30 0 -75 -18 -183 -74 -79 -40 -176 -86 -216 -101 -64 -25
-71 -30 -62 -46 15 -29 72 -24 205 20 121 39 204 58 204 46 0 -15 -103 -204
-138 -252 l-37 -51 -65 39 c-80 49 -196 108 -273 139 -47 18 -61 29 -72 57
-17 39 -70 67 -111 57 -24 -6 -25 -9 -22 -72 l3 -65 -85 -22 c-139 -35 -150
-37 -150 -19 0 21 26 68 67 122 51 66 90 156 103 232 9 57 8 68 -8 90 -39 54
-120 74 -174 44z m480 -513 c56 -33 242 -169 242 -178 0 -3 -43 -50 -95 -105
-52 -55 -123 -141 -156 -192 -34 -50 -62 -92 -64 -94 -1 -1 -27 18 -56 43 -48
41 -194 138 -223 148 -5 2 15 35 46 73 65 80 152 216 187 292 29 61 36 62 119
13z m-291 -57 c-7 -42 -99 -183 -154 -237 l-39 -37 -84 28 c-49 17 -86 35 -88
43 -4 21 51 100 90 129 27 20 241 106 272 109 5 1 6 -15 3 -35z"/>
</g>
</svg>
