<?xml version="1.0" standalone="no"?>
<!DOCTYPE svg PUBLIC "-//W3C//DTD SVG 20010904//EN"
 "http://www.w3.org/TR/2001/REC-SVG-20010904/DTD/svg10.dtd">
<svg version="1.0" xmlns="http://www.w3.org/2000/svg"
 width="340.000000pt" height="340.000000pt" viewBox="0 0 340.000000 340.000000"
 preserveAspectRatio="xMidYMid meet">
<metadata>
Created by potrace 1.15, written by Peter Selinger 2001-2017
</metadata>
<g transform="translate(0.000000,340.000000) scale(0.100000,-0.100000)"
fill="#000000" stroke="none">
<path d="M1200 2289 c-104 -28 -213 -65 -280 -93 -41 -18 -97 -36 -124 -40
-52 -6 -100 -31 -91 -45 3 -5 34 -14 70 -20 76 -14 144 -5 257 33 76 26 218
37 218 17 0 -4 -13 -37 -29 -73 -17 -36 -46 -114 -66 -174 l-36 -110 -82 -17
c-89 -18 -187 -54 -245 -91 -21 -12 -50 -26 -65 -30 l-29 -7 9 -67 c14 -115 6
-231 -24 -328 -31 -105 -39 -169 -24 -188 7 -8 27 -17 46 -20 30 -6 47 1 125
48 120 72 266 126 342 126 24 0 27 -3 23 -27 -2 -16 -7 -66 -10 -113 -12 -181
-73 -404 -162 -592 -25 -54 -49 -98 -52 -98 -3 0 -39 27 -79 60 -85 69 -118
82 -139 55 -19 -27 -17 -34 27 -102 50 -76 129 -148 171 -157 43 -8 100 9 128
38 47 50 175 453 226 710 43 222 29 308 -59 350 -33 15 -40 15 -126 -3 -50
-11 -130 -37 -178 -57 -117 -49 -132 -52 -132 -26 0 11 5 33 10 48 19 50 30
167 21 229 -5 33 -8 61 -7 62 1 2 45 14 98 27 131 33 243 86 251 118 4 14 27
55 52 93 52 77 111 197 149 303 25 71 26 75 9 103 -20 34 -87 69 -129 68 -16
0 -45 -5 -64 -10z"/>
<path d="M2245 2238 c-113 -22 -307 -70 -421 -104 l-122 -36 -46 27 c-88 52
-95 19 -36 -159 22 -66 61 -164 87 -218 41 -87 49 -99 67 -93 17 4 68 15 122
26 24 4 35 -4 50 -38 24 -59 35 -133 28 -189 l-6 -52 -188 -46 c-103 -25 -197
-46 -208 -46 -11 0 -26 7 -33 17 -21 24 -76 44 -104 37 -14 -3 -25 -7 -25 -9
0 -1 18 -40 39 -86 51 -109 100 -241 112 -302 11 -59 39 -100 77 -116 25 -10
34 -9 63 7 26 15 61 21 145 25 l112 6 0 -117 c-1 -64 5 -150 12 -190 6 -40 10
-76 7 -78 -20 -20 -480 -83 -527 -72 -41 9 -129 -8 -137 -27 -7 -20 24 -62 66
-87 31 -20 49 -23 141 -23 87 0 120 5 190 27 47 15 168 50 270 79 184 51 484
152 507 171 19 16 30 2 53 -70 12 -37 42 -106 66 -153 41 -79 48 -88 79 -93
42 -8 73 7 81 39 14 57 -45 216 -105 280 -60 65 -212 185 -235 185 -16 0 4
-62 34 -103 16 -23 30 -46 30 -52 0 -7 -46 -16 -118 -23 -65 -6 -158 -23 -207
-37 -48 -14 -89 -24 -91 -23 -4 5 14 390 20 395 6 6 320 42 372 43 71 0 112
49 84 101 -9 15 -1 32 44 96 71 102 119 199 111 224 -9 29 -54 78 -86 94 -43
23 -134 18 -311 -15 -88 -17 -166 -30 -173 -30 -9 0 -15 24 -20 75 -3 41 -13
98 -20 127 -8 29 -13 53 -12 54 1 2 34 8 72 14 136 21 255 68 255 101 0 29 24
70 71 126 79 90 97 168 59 251 -14 31 -29 47 -54 57 -40 17 -163 18 -241 3z
m175 -134 c0 -3 -12 -25 -26 -49 -14 -24 -40 -81 -59 -127 -19 -45 -38 -84
-42 -85 -4 -1 -71 -12 -148 -22 -77 -11 -184 -31 -238 -44 -69 -17 -100 -21
-102 -13 -2 6 -9 38 -16 71 -9 50 -30 114 -64 196 -5 14 13 19 132 38 76 12
170 25 208 30 80 10 355 14 355 5z m73 -745 c30 -8 38 -15 34 -27 -10 -29 -95
-233 -99 -238 -6 -6 -296 -54 -326 -54 -23 0 -23 0 -16 98 4 53 10 117 13 142
l6 44 65 13 c144 30 266 38 323 22z m-525 -125 c2 -32 1 -96 -3 -140 l-7 -82
-56 -7 c-59 -7 -164 -29 -194 -40 -13 -5 -18 -2 -18 11 0 10 -18 71 -41 137
-22 66 -39 121 -37 123 6 5 332 62 343 60 6 -2 11 -29 13 -62z"/>
</g>
</svg>
