<?xml version="1.0" standalone="no"?>
<!DOCTYPE svg PUBLIC "-//W3C//DTD SVG 20010904//EN"
 "http://www.w3.org/TR/2001/REC-SVG-20010904/DTD/svg10.dtd">
<svg version="1.0" xmlns="http://www.w3.org/2000/svg"
 width="340.000000pt" height="340.000000pt" viewBox="0 0 340.000000 340.000000"
 preserveAspectRatio="xMidYMid meet">
<metadata>
Created by potrace 1.15, written by Peter Selinger 2001-2017
</metadata>
<g transform="translate(0.000000,340.000000) scale(0.100000,-0.100000)"
fill="#000000" stroke="none">
<path d="M1870 2414 c-113 -26 -256 -71 -360 -114 -36 -15 -99 -35 -140 -44
-90 -20 -110 -30 -93 -47 10 -10 60 -3 230 30 120 23 252 49 293 58 41 10 104
17 140 17 69 -1 180 -28 180 -44 0 -13 -80 -229 -160 -432 -53 -137 -64 -158
-83 -158 -39 0 -377 -60 -542 -96 -201 -43 -387 -92 -580 -151 -82 -25 -166
-45 -186 -44 -46 2 -91 -30 -71 -51 10 -10 48 -13 145 -12 140 1 169 6 362 74
122 42 310 95 462 129 l125 29 19 -32 c47 -77 56 -123 68 -361 11 -232 15
-795 6 -795 -3 0 -28 16 -56 35 -28 19 -59 35 -70 35 -27 0 -49 -37 -39 -68
16 -58 71 -152 102 -175 29 -22 94 -47 124 -47 14 0 29 34 50 112 15 55 17
113 15 467 l-3 405 175 -170 c192 -187 445 -417 492 -446 86 -53 249 -73 370
-45 43 10 50 16 53 38 4 36 -35 66 -96 75 -59 9 -227 80 -344 145 -109 62
-255 170 -368 273 -47 43 -130 112 -184 153 l-100 75 2 92 c2 75 -2 103 -23
161 -14 39 -26 74 -27 79 -4 13 145 42 304 60 184 21 389 28 542 19 l129 -8
29 26 c15 15 28 34 28 43 0 20 -38 55 -69 63 -42 10 -329 -6 -476 -27 -77 -11
-157 -22 -177 -25 -25 -3 -38 -1 -38 6 0 6 50 122 111 258 114 251 131 308
109 360 -15 37 -37 52 -118 79 -78 28 -130 27 -262 -4z"/>
<path d="M1695 2028 c-33 -10 -148 -43 -255 -74 -107 -31 -199 -60 -203 -64
-19 -17 32 -50 76 -50 94 0 300 46 440 97 65 24 67 27 67 59 0 19 -1 34 -3 34
-1 0 -16 4 -32 8 -21 6 -48 3 -90 -10z"/>
<path d="M2286 1504 c-9 -8 -16 -22 -16 -29 0 -8 -26 -31 -57 -52 -101 -67
-243 -214 -243 -252 0 -6 18 -11 43 -11 48 0 115 38 299 169 113 80 121 92 97
144 -20 44 -93 62 -123 31z"/>
<path d="M1147 1303 c-4 -3 -7 -20 -7 -36 0 -22 11 -40 42 -70 60 -57 97 -77
145 -77 78 0 87 13 54 78 -24 47 -56 77 -103 97 -38 15 -119 21 -131 8z"/>
<path d="M1369 926 c-53 -41 -142 -120 -197 -176 l-101 -101 -26 17 c-24 16
-28 16 -42 1 -9 -9 -18 -39 -21 -70 -4 -50 -2 -55 28 -80 30 -26 32 -26 68
-12 48 21 94 57 134 106 18 22 74 82 123 132 88 90 168 207 163 237 -6 31 -36
18 -129 -54z"/>
</g>
</svg>
