<?xml version="1.0" standalone="no"?>
<!DOCTYPE svg PUBLIC "-//W3C//DTD SVG 20010904//EN"
 "http://www.w3.org/TR/2001/REC-SVG-20010904/DTD/svg10.dtd">
<svg version="1.0" xmlns="http://www.w3.org/2000/svg"
 width="340.000000pt" height="340.000000pt" viewBox="0 0 340.000000 340.000000"
 preserveAspectRatio="xMidYMid meet">
<metadata>
Created by potrace 1.15, written by Peter Selinger 2001-2017
</metadata>
<g transform="translate(0.000000,340.000000) scale(0.100000,-0.100000)"
fill="#000000" stroke="none">
<path d="M1157 2409 c-16 -9 -17 -19 -11 -66 l6 -54 -139 -137 c-148 -146
-299 -324 -288 -342 11 -18 51 -11 91 16 118 80 489 422 498 460 9 36 -10 89
-39 108 -31 21 -96 29 -118 15z"/>
<path d="M1951 2394 c-47 -14 -128 -43 -180 -65 -53 -22 -104 -43 -114 -46
-23 -7 -17 -25 14 -39 18 -9 43 -9 104 2 77 14 263 33 269 27 1 -1 -6 -42 -16
-90 -11 -51 -22 -153 -25 -241 l-6 -153 49 -51 c71 -73 131 -100 229 -106 133
-7 265 39 265 92 0 12 -11 33 -24 45 -21 20 -27 21 -70 10 -26 -6 -83 -10
-129 -7 -66 3 -92 10 -135 33 -28 15 -52 33 -52 40 0 41 23 300 36 400 l15
120 -31 28 c-39 35 -85 35 -199 1z"/>
<path d="M1537 2253 c-13 -12 -7 -83 9 -121 11 -26 16 -69 16 -142 0 -129 -24
-226 -82 -339 -48 -92 -48 -115 -4 -119 27 -3 35 4 77 60 60 79 102 167 122
249 29 124 12 322 -31 370 -33 37 -90 59 -107 42z"/>
<path d="M1145 1880 c-13 -15 -16 -30 -12 -59 5 -39 1 -45 -105 -178 -124
-155 -199 -240 -406 -461 -110 -116 -143 -157 -140 -174 2 -13 10 -24 19 -26
22 -4 186 135 348 295 74 73 135 132 136 131 1 -2 -1 -115 -6 -253 -7 -242
-25 -438 -70 -749 -23 -165 -19 -196 25 -196 50 0 63 26 85 160 11 69 23 159
26 200 3 41 14 131 23 200 21 156 21 493 0 624 l-14 88 27 37 c14 20 48 56 74
81 26 25 65 72 86 104 45 68 50 111 18 162 -17 29 -26 34 -58 34 -25 0 -44 -7
-56 -20z"/>
<path d="M2070 1469 c-47 -16 -170 -57 -275 -90 -171 -55 -208 -64 -267 -68
-21 -1 -48 -28 -48 -47 0 -11 19 -14 93 -14 96 0 173 14 385 70 68 18 126 29
130 26 8 -9 -76 -177 -155 -308 l-64 -108 -87 71 c-97 79 -233 150 -334 176
-64 17 -69 17 -85 1 -15 -16 -14 -18 31 -38 91 -39 402 -264 414 -300 2 -5
-50 -63 -115 -128 -106 -106 -180 -167 -327 -270 -55 -38 -65 -57 -42 -80 16
-16 23 -13 120 35 133 68 241 150 349 262 52 55 94 91 106 91 12 0 106 -81
238 -206 238 -224 275 -250 411 -280 54 -12 106 -15 193 -12 114 4 121 5 147
31 24 24 25 28 11 42 -8 9 -64 29 -125 46 -142 41 -320 113 -439 180 -91 50
-383 282 -378 299 1 5 41 68 89 141 48 73 118 193 156 266 75 144 80 170 35
211 -37 33 -74 33 -167 1z"/>
</g>
</svg>
