<?xml version="1.0" standalone="no"?>
<!DOCTYPE svg PUBLIC "-//W3C//DTD SVG 20010904//EN"
 "http://www.w3.org/TR/2001/REC-SVG-20010904/DTD/svg10.dtd">
<svg version="1.0" xmlns="http://www.w3.org/2000/svg"
 width="340.000000pt" height="340.000000pt" viewBox="0 0 340.000000 340.000000"
 preserveAspectRatio="xMidYMid meet">
<metadata>
Created by potrace 1.15, written by Peter Selinger 2001-2017
</metadata>
<g transform="translate(0.000000,340.000000) scale(0.100000,-0.100000)"
fill="#000000" stroke="none">
<path d="M1210 2460 c-8 -15 -6 -29 5 -57 9 -21 14 -47 11 -59 -3 -12 -94
-120 -202 -240 -224 -251 -232 -260 -216 -276 18 -18 62 8 187 109 118 95 316
288 365 355 43 59 41 109 -4 154 -30 30 -40 34 -85 34 -40 0 -52 -4 -61 -20z"/>
<path d="M2173 2440 c-50 -10 -139 -35 -196 -54 -58 -20 -118 -36 -134 -36
-31 0 -53 -16 -53 -37 0 -19 113 -17 225 4 101 18 315 21 357 5 51 -21 52 -40
7 -169 -56 -158 -124 -317 -141 -325 -7 -3 -54 -11 -104 -16 -50 -6 -133 -24
-184 -41 -51 -18 -94 -30 -95 -29 -2 2 -6 58 -10 124 l-7 121 68 8 c87 9 164
29 238 62 l59 27 -32 28 c-42 38 -79 36 -226 -7 -65 -19 -122 -32 -126 -29 -5
3 -9 15 -9 27 -1 32 -34 99 -62 125 -14 13 -46 29 -71 37 -44 13 -46 13 -52
-6 -4 -12 3 -41 19 -73 31 -63 56 -157 97 -360 16 -81 32 -152 35 -157 8 -14
60 -11 169 10 55 11 149 25 208 31 136 14 192 38 201 86 4 18 33 88 65 156 68
143 131 299 138 344 9 55 -38 119 -109 149 -49 20 -159 18 -275 -5z"/>
<path d="M1170 1862 c-22 -18 -23 -21 -10 -51 7 -18 13 -44 12 -59 -1 -53
-266 -427 -476 -671 -81 -95 -106 -130 -106 -152 0 -24 4 -29 24 -29 26 0 170
144 360 358 86 98 101 110 110 95 13 -24 12 -418 -2 -503 -27 -166 -42 -274
-51 -379 -10 -111 -10 -116 11 -138 55 -59 86 -14 104 150 53 490 63 704 40
817 -17 79 -30 100 -64 103 -12 1 -22 3 -22 5 0 2 17 25 39 51 51 62 111 151
156 234 36 65 37 71 26 108 -20 66 -103 100 -151 61z"/>
<path d="M2240 1573 c-63 -13 -204 -39 -314 -57 -201 -34 -243 -49 -212 -75
22 -18 114 -41 166 -41 25 0 72 7 105 15 69 16 133 19 154 6 21 -13 29 -173
10 -187 -8 -6 -65 -18 -126 -28 -137 -21 -347 -73 -468 -117 -49 -18 -110 -38
-135 -44 -51 -14 -60 -38 -17 -43 43 -5 234 25 427 67 194 43 319 65 326 59 9
-10 24 -260 24 -417 0 -139 -16 -389 -25 -399 -2 -2 -26 4 -54 14 -54 17 -102
14 -134 -10 -16 -12 -14 -17 27 -63 31 -34 66 -59 115 -82 l71 -33 42 24 c56
31 82 77 82 147 1 31 -3 230 -8 442 -7 324 -6 388 5 395 24 15 200 17 315 4
99 -11 115 -10 143 4 23 13 31 23 31 44 0 54 -15 61 -140 68 -69 4 -159 2
-223 -5 -78 -9 -112 -9 -122 -1 -8 7 -13 35 -13 76 0 35 -3 77 -7 93 -6 26 -2
30 47 54 30 15 67 40 83 57 29 31 29 32 11 46 -26 18 -48 17 -186 -13z"/>
<path d="M1630 929 c0 -50 117 -174 175 -185 50 -9 95 4 95 27 0 34 -40 99
-73 120 -51 31 -197 60 -197 38z"/>
</g>
</svg>
