<?xml version="1.0" standalone="no"?>
<!DOCTYPE svg PUBLIC "-//W3C//DTD SVG 20010904//EN"
 "http://www.w3.org/TR/2001/REC-SVG-20010904/DTD/svg10.dtd">
<svg version="1.0" xmlns="http://www.w3.org/2000/svg"
 width="340.000000pt" height="340.000000pt" viewBox="0 0 340.000000 340.000000"
 preserveAspectRatio="xMidYMid meet">
<metadata>
Created by potrace 1.15, written by Peter Selinger 2001-2017
</metadata>
<g transform="translate(0.000000,340.000000) scale(0.100000,-0.100000)"
fill="#000000" stroke="none">
<path d="M1823 2603 c-39 -7 -38 -39 4 -100 l38 -56 -3 -161 c-1 -88 -5 -181
-10 -205 l-7 -45 -95 -27 c-52 -15 -134 -35 -182 -45 -90 -19 -102 -29 -72
-58 20 -21 71 -20 219 3 66 10 121 18 122 17 2 -2 -26 -248 -29 -252 -3 -2
-120 -34 -320 -85 -28 -7 -38 -15 -38 -30 0 -31 38 -39 111 -23 35 7 85 13
110 14 l47 0 4 -87 c3 -67 10 -101 30 -144 l26 -57 -52 -16 c-28 -8 -74 -18
-101 -22 l-51 -6 -13 53 c-29 113 -94 215 -178 280 -75 58 -109 40 -60 -32 12
-19 37 -74 56 -124 18 -49 58 -141 89 -203 47 -94 59 -112 76 -110 12 2 28 17
36 34 l15 31 160 17 c500 54 656 90 670 157 4 17 36 62 77 105 82 89 118 158
118 229 0 100 -8 106 -168 126 -104 13 -213 0 -348 -41 -53 -17 -115 -30 -138
-30 l-42 0 22 125 c12 69 23 127 25 128 2 2 56 20 119 40 125 41 275 115 275
136 0 8 -12 23 -27 34 l-26 20 -111 -42 c-109 -41 -208 -69 -214 -60 -2 2 1
76 5 164 13 239 2 297 -61 329 -31 16 -78 24 -108 19z m603 -982 c-6 -39 -113
-266 -132 -282 -10 -8 -164 -19 -164 -12 0 1 7 32 16 70 11 48 14 93 11 150
l-6 82 32 10 c43 13 67 16 166 17 l83 1 -6 -36z m-396 -165 c-7 -75 -18 -140
-24 -145 -6 -5 -43 -13 -83 -18 -84 -11 -83 -11 -83 75 0 31 -7 88 -15 126 -8
38 -12 72 -9 75 3 3 49 16 102 27 132 29 129 33 112 -140z"/>
<path d="M1106 2303 c-4 -9 -2 -31 4 -49 14 -40 8 -51 -51 -100 -25 -22 -125
-108 -222 -192 -154 -135 -175 -156 -166 -173 17 -33 59 -22 160 39 127 78
246 169 353 272 l88 85 -5 45 c-7 61 -41 90 -106 90 -36 0 -51 -4 -55 -17z"/>
<path d="M1152 1850 c-29 -12 -38 -36 -25 -71 11 -27 5 -35 -121 -181 -72 -84
-216 -251 -319 -370 -135 -158 -187 -225 -187 -243 0 -20 5 -25 24 -25 18 0
81 55 245 218 137 135 223 212 226 204 17 -46 -6 -536 -37 -797 -36 -293 -31
-338 34 -322 20 5 27 15 32 44 3 21 13 76 21 123 15 83 31 291 42 560 7 184
-17 376 -50 405 l-23 21 79 84 c119 128 197 235 197 271 0 43 -15 65 -51 78
-37 13 -56 13 -87 1z"/>
<path d="M2080 1048 c-115 -24 -294 -69 -380 -96 -52 -16 -113 -33 -135 -38
-30 -7 -40 -14 -40 -29 0 -19 6 -20 110 -18 119 2 299 29 448 68 109 28 207
63 207 74 0 4 -10 17 -23 29 -19 18 -35 22 -83 21 -32 -1 -79 -5 -104 -11z"/>
<path d="M2444 906 c-10 -27 15 -52 179 -174 170 -126 198 -138 248 -112 24
13 26 66 4 98 -20 28 -125 102 -193 136 -49 25 -186 66 -219 66 -7 0 -16 -6
-19 -14z"/>
<path d="M1973 845 c-8 -24 5 -61 43 -121 51 -80 102 -106 171 -88 19 5 22 11
17 33 -19 81 -87 149 -178 176 -41 13 -48 12 -53 0z"/>
<path d="M1642 728 c-32 -32 10 -126 109 -246 107 -130 242 -219 409 -271 246
-77 307 -85 397 -55 74 25 77 30 54 105 -23 71 -65 138 -139 217 -57 60 -84
66 -102 22 -12 -29 -10 -37 31 -118 24 -48 46 -91 48 -96 6 -16 -146 4 -236
30 -208 60 -384 184 -507 357 -26 37 -49 67 -50 67 -1 0 -7 -5 -14 -12z"/>
<path d="M1368 638 c-50 -86 -82 -189 -94 -295 -6 -56 -5 -62 15 -73 36 -19
73 -8 93 26 29 49 63 341 44 372 -14 23 -34 12 -58 -30z"/>
</g>
</svg>
