<?xml version="1.0" standalone="no"?>
<!DOCTYPE svg PUBLIC "-//W3C//DTD SVG 20010904//EN"
 "http://www.w3.org/TR/2001/REC-SVG-20010904/DTD/svg10.dtd">
<svg version="1.0" xmlns="http://www.w3.org/2000/svg"
 width="340.000000pt" height="340.000000pt" viewBox="0 0 340.000000 340.000000"
 preserveAspectRatio="xMidYMid meet">
<metadata>
Created by potrace 1.15, written by Peter Selinger 2001-2017
</metadata>
<g transform="translate(0.000000,340.000000) scale(0.100000,-0.100000)"
fill="#000000" stroke="none">
<path d="M1442 2408 c-19 -19 -14 -57 13 -92 34 -44 45 -113 45 -275 l0 -137
-107 -18 c-60 -10 -170 -34 -246 -53 l-139 -35 -31 30 c-50 48 -136 78 -152
52 -3 -5 6 -28 21 -52 67 -105 174 -335 208 -445 44 -142 56 -167 80 -171 10
-2 28 6 41 18 19 18 50 26 157 41 190 27 174 31 180 -45 5 -63 42 -151 63
-151 5 0 20 15 32 34 19 28 23 47 23 112 0 94 0 94 120 103 86 7 307 48 353
65 20 8 25 17 25 39 -1 19 17 55 53 108 29 43 88 137 131 208 l77 128 -19 38
c-24 48 -61 77 -114 91 -48 13 -249 -6 -476 -45 -74 -13 -136 -23 -136 -22 -1
0 -7 90 -13 199 -12 216 -20 246 -71 272 -35 18 -101 20 -118 3z m739 -544
c16 -9 -127 -350 -162 -388 -17 -18 -31 -21 -333 -51 l-58 -6 4 201 c3 150 7
203 16 209 14 9 143 29 262 42 74 7 255 3 271 -7z m-672 -78 c8 -10 10 -66 5
-205 l-7 -191 -25 0 c-13 0 -82 -12 -154 -26 -71 -14 -131 -24 -133 -22 -2 2
-20 58 -40 123 -20 66 -52 156 -70 200 -18 44 -30 83 -27 86 4 4 72 14 152 23
80 10 154 19 165 20 57 9 123 5 134 -8z"/>
<path d="M2144 1104 c-8 -30 2 -41 62 -76 22 -12 111 -67 197 -121 152 -96
157 -99 191 -87 41 13 48 27 35 72 -18 66 -183 164 -356 212 -114 32 -121 32
-129 0z"/>
<path d="M1644 955 c-8 -20 20 -83 40 -91 8 -3 26 -23 40 -44 34 -52 101 -90
171 -97 l55 -6 0 31 c0 77 -44 131 -148 178 -93 43 -149 53 -158 29z"/>
<path d="M1177 900 c-8 -39 7 -120 32 -167 54 -107 197 -262 311 -338 136 -91
234 -124 490 -166 171 -28 290 -35 384 -23 39 6 50 12 63 37 9 18 13 43 10 63
-6 34 -121 220 -177 286 -29 35 -94 67 -107 54 -19 -19 48 -194 108 -285 l23
-34 -155 6 c-172 6 -339 34 -425 72 -166 74 -334 225 -428 387 -29 50 -103
138 -116 138 -4 0 -10 -13 -13 -30z"/>
<path d="M913 828 c-42 -67 -90 -177 -108 -248 -9 -36 -23 -79 -31 -97 -24
-52 -27 -87 -11 -126 15 -35 17 -36 46 -26 42 15 98 80 112 131 6 24 23 77 37
118 18 55 26 104 30 183 l5 107 -27 0 c-19 0 -32 -10 -53 -42z"/>
</g>
</svg>
