<?xml version="1.0" standalone="no"?>
<!DOCTYPE svg PUBLIC "-//W3C//DTD SVG 20010904//EN"
 "http://www.w3.org/TR/2001/REC-SVG-20010904/DTD/svg10.dtd">
<svg version="1.0" xmlns="http://www.w3.org/2000/svg"
 width="340.000000pt" height="340.000000pt" viewBox="0 0 340.000000 340.000000"
 preserveAspectRatio="xMidYMid meet">
<metadata>
Created by potrace 1.15, written by Peter Selinger 2001-2017
</metadata>
<g transform="translate(0.000000,340.000000) scale(0.100000,-0.100000)"
fill="#000000" stroke="none">
<path d="M1878 2499 c-37 -14 -41 -33 -12 -66 14 -15 32 -41 41 -57 18 -35 32
-217 33 -433 l0 -152 -67 -20 c-96 -28 -178 -48 -285 -71 -86 -18 -94 -18
-103 -3 -19 32 -54 63 -70 63 -20 0 -18 -9 33 -190 19 -69 47 -173 63 -232 25
-97 58 -177 96 -235 20 -31 50 -14 59 32 3 19 11 38 18 44 14 11 264 36 274
27 3 -4 8 -232 9 -508 3 -450 5 -503 20 -529 10 -16 20 -29 24 -29 4 0 18 30
31 68 23 67 23 70 23 545 l0 477 30 5 c17 2 68 9 115 15 81 11 266 45 303 56
22 7 23 50 0 62 -14 8 -8 19 44 78 72 82 143 184 184 266 l30 59 -22 35 c-68
110 -180 117 -564 33 -49 -10 -96 -19 -106 -19 -14 0 -17 29 -21 294 -5 279
-6 296 -27 329 -13 22 -37 41 -61 51 -45 18 -54 18 -92 5z m672 -739 c30 -6
56 -12 58 -15 7 -6 -70 -131 -156 -255 -41 -58 -75 -106 -75 -106 -2 -2 -297
-34 -310 -34 -4 0 -6 84 -5 187 l3 188 115 21 c126 24 286 30 370 14z m-606
-86 c3 -9 6 -91 6 -184 l0 -168 -32 -7 c-18 -4 -82 -18 -141 -32 -60 -14 -109
-23 -111 -22 -1 2 -13 39 -25 83 -18 64 -47 137 -107 271 -5 12 280 72 352 74
39 1 53 -3 58 -15z"/>
<path d="M878 2220 c-25 -15 -22 -46 6 -83 14 -18 29 -52 35 -77 42 -176 41
-1167 -1 -1380 -22 -113 -22 -135 4 -165 l24 -27 31 26 c60 50 61 62 67 601 4
270 9 513 12 542 l7 52 40 -34 c45 -39 93 -52 140 -38 26 7 31 13 29 33 -10
71 -73 125 -158 135 l-54 7 0 155 c0 165 -5 186 -53 232 -29 26 -101 38 -129
21z"/>
<path d="M791 1636 c-15 -18 -109 -228 -126 -283 -18 -56 -29 -155 -21 -187
12 -48 90 -27 120 32 33 66 60 207 60 319 1 115 -9 149 -33 119z"/>
</g>
</svg>
