<?xml version="1.0" standalone="no"?>
<!DOCTYPE svg PUBLIC "-//W3C//DTD SVG 20010904//EN"
 "http://www.w3.org/TR/2001/REC-SVG-20010904/DTD/svg10.dtd">
<svg version="1.0" xmlns="http://www.w3.org/2000/svg"
 width="340.000000pt" height="340.000000pt" viewBox="0 0 340.000000 340.000000"
 preserveAspectRatio="xMidYMid meet">
<metadata>
Created by potrace 1.15, written by Peter Selinger 2001-2017
</metadata>
<g transform="translate(0.000000,340.000000) scale(0.100000,-0.100000)"
fill="#000000" stroke="none">
<path d="M798 2339 c-24 -13 -23 -54 1 -88 35 -49 45 -283 38 -961 -6 -609
-18 -942 -37 -1008 -12 -46 4 -82 44 -95 34 -11 37 -7 67 81 21 62 21 82 24
675 1 337 6 653 10 703 l8 91 49 -34 c40 -26 60 -33 98 -33 27 0 55 3 64 6 22
9 20 42 -7 89 -24 44 -109 95 -158 95 -38 0 -49 24 -39 80 12 61 12 185 0 240
-6 25 -22 73 -36 108 l-26 62 -42 0 c-22 0 -49 -5 -58 -11z"/>
<path d="M1600 2314 c0 -22 25 -66 50 -89 13 -11 127 -141 255 -290 127 -148
296 -342 376 -430 124 -138 153 -164 208 -191 77 -39 150 -54 251 -54 62 0 80
4 93 18 39 43 13 70 -93 102 -200 59 -381 190 -579 420 -160 186 -256 285
-396 406 -129 112 -165 136 -165 108z"/>
<path d="M1463 1973 c-11 -15 -27 -47 -36 -70 -15 -37 -254 -440 -348 -586
-42 -64 -45 -77 -28 -94 22 -22 60 10 163 139 126 157 312 415 343 476 13 25
23 58 23 73 0 34 -36 76 -71 84 -22 5 -30 1 -46 -22z"/>
<path d="M571 1553 c-39 -163 -52 -258 -49 -358 3 -108 12 -124 61 -111 41 10
57 45 68 147 20 174 -6 409 -45 409 -9 0 -21 -31 -35 -87z"/>
<path d="M1662 1498 c-19 -19 -14 -59 12 -93 l25 -32 -43 -105 c-80 -197 -181
-344 -351 -510 -104 -103 -110 -110 -110 -149 0 -32 6 -46 28 -64 31 -27 12
-31 223 44 78 27 197 62 265 76 114 24 291 72 330 89 12 5 25 -12 57 -76 26
-54 59 -101 92 -133 l51 -50 26 29 c19 23 24 37 20 65 -8 60 -37 152 -67 211
-46 91 -245 300 -285 300 -16 0 8 -90 49 -181 l43 -96 -71 -6 c-88 -7 -216
-30 -363 -66 -62 -15 -113 -26 -113 -24 0 11 39 76 86 143 105 151 264 467
264 526 0 38 -27 82 -60 99 -35 18 -91 20 -108 3z"/>
</g>
</svg>
