<?xml version="1.0" standalone="no"?>
<!DOCTYPE svg PUBLIC "-//W3C//DTD SVG 20010904//EN"
 "http://www.w3.org/TR/2001/REC-SVG-20010904/DTD/svg10.dtd">
<svg version="1.0" xmlns="http://www.w3.org/2000/svg"
 width="340.000000pt" height="340.000000pt" viewBox="0 0 340.000000 340.000000"
 preserveAspectRatio="xMidYMid meet">
<metadata>
Created by potrace 1.15, written by Peter Selinger 2001-2017
</metadata>
<g transform="translate(0.000000,340.000000) scale(0.100000,-0.100000)"
fill="#000000" stroke="none">
<path d="M1450 2416 c0 -8 23 -34 51 -58 217 -181 459 -413 612 -586 145 -164
245 -217 433 -229 99 -6 149 4 180 38 19 21 18 21 -11 45 -39 31 -108 54 -163
54 -92 0 -258 109 -477 311 -135 125 -329 274 -484 373 -104 66 -141 79 -141
52z"/>
<path d="M1117 2088 c-13 -18 -33 -49 -43 -68 -10 -19 -82 -102 -159 -185
-252 -269 -265 -284 -259 -300 16 -41 96 2 266 144 158 133 305 285 312 324 9
50 -8 85 -49 102 -44 19 -40 20 -68 -17z"/>
<path d="M1685 1859 c-113 -32 -341 -108 -417 -140 -39 -16 -81 -29 -93 -29
-26 0 -50 -24 -40 -40 7 -12 132 -13 193 -1 51 10 51 12 -11 -98 -23 -41 -69
-103 -102 -139 -77 -82 -118 -140 -161 -224 -41 -82 -43 -98 -8 -98 70 0 462
465 456 542 -1 16 2 37 8 47 20 38 173 70 260 54 44 -8 45 -9 42 -43 -9 -101
-89 -380 -131 -458 -5 -8 -18 3 -39 33 -20 29 -48 53 -75 65 -67 31 -70 29
-65 -42 5 -75 29 -129 80 -180 32 -32 45 -38 81 -38 47 0 97 26 121 62 46 70
140 418 161 591 6 57 6 58 -32 96 -37 37 -94 62 -138 60 -11 0 -51 -9 -90 -20z"/>
<path d="M2020 988 c0 -5 15 -24 34 -41 82 -78 404 -307 431 -307 28 0 65 41
65 73 0 95 -269 248 -492 280 -23 4 -38 2 -38 -5z"/>
<path d="M1430 933 c0 -44 62 -164 104 -200 54 -48 84 -53 114 -18 36 43 26
95 -30 152 -48 50 -96 78 -151 88 -36 7 -37 6 -37 -22z"/>
<path d="M1031 814 c24 -130 160 -323 302 -430 171 -128 394 -196 652 -197
165 0 172 2 180 58 9 60 -7 102 -71 188 -56 74 -103 110 -139 105 -17 -3 -20
-9 -17 -48 1 -25 17 -74 34 -110 18 -36 34 -69 36 -74 7 -15 -195 2 -288 24
-115 27 -267 104 -360 182 -41 35 -128 126 -193 203 -65 77 -124 141 -131 143
-11 2 -12 -7 -5 -44z"/>
<path d="M801 703 c-46 -56 -107 -178 -130 -263 -27 -97 -27 -116 4 -136 33
-21 67 -8 90 35 22 43 60 191 75 294 16 108 7 126 -39 70z"/>
</g>
</svg>
