<?xml version="1.0" standalone="no"?>
<!DOCTYPE svg PUBLIC "-//W3C//DTD SVG 20010904//EN"
 "http://www.w3.org/TR/2001/REC-SVG-20010904/DTD/svg10.dtd">
<svg version="1.0" xmlns="http://www.w3.org/2000/svg"
 width="340.000000pt" height="340.000000pt" viewBox="0 0 340.000000 340.000000"
 preserveAspectRatio="xMidYMid meet">
<metadata>
Created by potrace 1.15, written by Peter Selinger 2001-2017
</metadata>
<g transform="translate(0.000000,340.000000) scale(0.100000,-0.100000)"
fill="#000000" stroke="none">
<path d="M1420 2440 c0 -6 18 -33 39 -60 60 -75 69 -118 81 -355 11 -233 13
-592 4 -672 l-7 -51 -81 -31 c-94 -36 -215 -68 -289 -77 -29 -3 -63 -13 -75
-21 -23 -14 -23 -15 -6 -34 12 -14 30 -19 65 -19 83 0 201 20 293 51 49 16 91
27 94 25 9 -9 -19 -418 -39 -571 -10 -82 -24 -192 -31 -242 l-12 -93 29 -30
c55 -57 100 -38 207 90 89 106 218 293 218 316 0 20 -27 29 -54 16 -13 -5 -76
-61 -141 -123 l-118 -114 8 265 c11 391 18 503 32 507 6 2 96 -72 200 -165
254 -229 519 -458 569 -493 22 -15 70 -37 105 -49 114 -39 308 -14 362 48 18
20 17 20 -120 65 -76 25 -172 55 -213 67 -149 42 -243 98 -458 268 -110 87
-241 190 -291 228 -50 38 -87 72 -83 75 11 11 179 56 287 78 146 29 275 41
443 41 l150 0 12 30 c18 44 6 79 -36 96 -31 13 -54 13 -148 4 -217 -21 -394
-55 -580 -111 -71 -21 -144 -42 -163 -45 l-33 -6 0 59 c0 33 3 88 6 121 l7 61
81 53 c91 60 240 174 336 258 36 31 82 66 102 79 20 12 50 38 67 57 26 29 31
43 31 88 0 64 -23 99 -76 116 -28 10 -39 9 -57 -3 -18 -12 -21 -22 -18 -62 l3
-47 -89 -81 c-111 -102 -237 -231 -316 -325 l-62 -73 -5 353 c-6 389 -7 401
-70 433 -33 17 -160 21 -160 5z"/>
<path d="M847 2387 c-9 -23 3 -58 36 -105 l30 -42 -1 -393 c-2 -504 -19 -1213
-33 -1391 -11 -130 -10 -139 7 -157 11 -10 33 -21 50 -25 31 -6 32 -5 50 47
16 50 18 107 18 731 1 372 4 679 7 682 3 3 43 -16 89 -44 120 -72 170 -67 170
20 0 26 -8 35 -47 61 -55 34 -131 59 -181 59 l-34 0 6 48 c15 109 26 253 26
340 l0 93 -38 41 c-35 37 -45 42 -94 46 -43 3 -56 1 -61 -11z"/>
<path d="M601 1497 c-63 -223 -66 -238 -52 -315 16 -92 23 -101 57 -82 53 30
65 58 76 186 5 66 7 164 4 219 -11 194 -27 192 -85 -8z"/>
</g>
</svg>
