<?xml version="1.0" standalone="no"?>
<!DOCTYPE svg PUBLIC "-//W3C//DTD SVG 20010904//EN"
 "http://www.w3.org/TR/2001/REC-SVG-20010904/DTD/svg10.dtd">
<svg version="1.0" xmlns="http://www.w3.org/2000/svg"
 width="340.000000pt" height="340.000000pt" viewBox="0 0 340.000000 340.000000"
 preserveAspectRatio="xMidYMid meet">
<metadata>
Created by potrace 1.15, written by Peter Selinger 2001-2017
</metadata>
<g transform="translate(0.000000,340.000000) scale(0.100000,-0.100000)"
fill="#000000" stroke="none">
<path d="M1744 2334 c-89 -13 -237 -40 -330 -59 -93 -20 -214 -45 -269 -57
-55 -11 -102 -22 -104 -25 -3 -2 3 -11 12 -20 15 -15 30 -15 171 -4 85 7 159
10 164 7 33 -20 65 -296 39 -346 -9 -18 -34 -31 -107 -55 -139 -45 -128 -39
-106 -63 28 -32 80 -38 142 -17 28 10 57 14 63 11 7 -5 11 -61 11 -166 0 -142
-2 -159 -17 -164 -72 -21 -237 -65 -238 -63 -1 1 -14 67 -29 147 -45 245 -116
531 -144 583 -34 64 -72 90 -140 95 -53 5 -54 4 -47 -19 3 -13 24 -60 45 -104
48 -101 139 -379 194 -595 23 -91 46 -171 50 -178 4 -7 23 -12 43 -12 39 0
528 97 657 130 112 28 114 28 127 -25 12 -47 29 -56 61 -32 37 28 225 805 213
881 -12 81 -63 135 -151 162 -63 19 -119 17 -310 -12z m253 -110 c76 -25 75
-20 52 -189 -21 -162 -95 -545 -108 -558 -4 -4 -50 -12 -102 -18 -52 -6 -137
-19 -191 -30 -53 -10 -99 -19 -102 -19 -8 0 -6 236 2 285 l7 40 57 7 c74 9
178 61 178 89 0 4 -21 17 -46 29 -36 18 -55 21 -92 16 -26 -4 -58 -8 -72 -9
l-25 -2 -2 115 c-1 63 -4 141 -8 172 l-6 57 37 7 c43 8 211 20 306 23 39 0 88
-6 115 -15z"/>
<path d="M2240 1256 c0 -21 46 -72 88 -97 20 -12 60 -43 87 -69 56 -52 204
-164 244 -185 37 -18 88 3 97 41 11 42 -22 90 -103 155 -89 71 -192 123 -297
149 -94 24 -116 25 -116 6z"/>
<path d="M1610 1148 c0 -32 30 -78 115 -178 136 -161 170 -180 215 -123 24 31
19 61 -21 119 -53 79 -142 145 -242 182 -71 27 -67 27 -67 0z"/>
<path d="M1127 1026 c-13 -33 -7 -56 39 -167 92 -220 229 -381 392 -463 173
-87 326 -129 517 -142 118 -7 320 10 352 32 57 37 72 107 35 166 -11 18 -39
69 -61 113 -40 78 -59 105 -115 155 -23 21 -29 22 -36 10 -22 -34 -10 -105 35
-210 25 -58 45 -110 45 -116 0 -17 -97 -36 -220 -41 -136 -6 -260 16 -382 67
-197 82 -322 201 -443 423 -20 38 -63 96 -94 129 -48 51 -59 58 -64 44z"/>
<path d="M767 822 c-93 -159 -127 -227 -161 -321 -21 -60 -24 -76 -14 -90 39
-51 77 -54 111 -8 60 79 124 242 145 367 36 215 20 225 -81 52z"/>
</g>
</svg>
