<?xml version="1.0" standalone="no"?>
<!DOCTYPE svg PUBLIC "-//W3C//DTD SVG 20010904//EN"
 "http://www.w3.org/TR/2001/REC-SVG-20010904/DTD/svg10.dtd">
<svg version="1.0" xmlns="http://www.w3.org/2000/svg"
 width="340.000000pt" height="340.000000pt" viewBox="0 0 340.000000 340.000000"
 preserveAspectRatio="xMidYMid meet">
<metadata>
Created by potrace 1.15, written by Peter Selinger 2001-2017
</metadata>
<g transform="translate(0.000000,340.000000) scale(0.100000,-0.100000)"
fill="#000000" stroke="none">
<path d="M1852 2434 c-31 -22 -27 -36 17 -61 21 -12 53 -44 71 -70 l32 -48 -7
-125 c-5 -110 -30 -329 -38 -336 -1 -2 -68 -21 -147 -44 -80 -22 -152 -43
-161 -46 -15 -4 -16 8 -16 98 0 83 -4 114 -22 160 -30 77 -66 103 -105 75 -16
-11 -16 -15 -1 -49 22 -53 19 -156 -5 -218 -22 -56 -26 -121 -9 -169 10 -29
14 -31 62 -31 73 0 205 34 293 75 42 19 92 37 112 41 20 3 78 19 127 34 109
34 253 62 298 58 31 -3 32 -4 37 -59 8 -88 42 -112 92 -66 28 26 54 121 83
302 32 197 -2 285 -101 261 -39 -10 -49 -41 -29 -92 15 -40 15 -51 1 -140 -8
-53 -17 -98 -18 -99 -2 -2 -48 -8 -103 -15 -86 -10 -147 -21 -254 -45 -23 -6
-23 -6 -17 62 4 37 17 129 28 203 32 214 19 295 -55 340 -40 25 -132 27 -165
4z"/>
<path d="M868 2339 c-26 -15 -22 -36 12 -70 16 -16 34 -46 39 -65 22 -80 -36
-1532 -71 -1759 -23 -153 -23 -152 10 -185 17 -16 36 -30 42 -30 6 0 25 30 43
67 31 67 32 71 31 203 -2 276 36 1170 52 1219 3 9 18 0 47 -28 44 -44 140 -97
193 -107 26 -5 32 -2 42 21 20 44 14 71 -21 102 -38 33 -145 79 -207 89 -22 4
-43 11 -46 16 -3 5 0 105 7 223 14 239 10 262 -45 296 -33 20 -100 25 -128 8z"/>
<path d="M667 1463 c-60 -185 -67 -237 -43 -303 7 -19 19 -36 28 -38 20 -4 65
33 83 68 41 80 42 450 1 450 -6 0 -37 -80 -69 -177z"/>
<path d="M2165 1473 c-11 -3 -129 -41 -261 -84 -133 -44 -258 -79 -277 -79
-27 0 -39 -6 -47 -21 -7 -11 -9 -24 -5 -27 13 -13 171 -14 239 -2 39 7 102 23
140 37 73 24 260 52 272 40 10 -10 -22 -121 -57 -198 l-30 -65 -102 -23 c-56
-13 -183 -49 -283 -82 l-180 -59 -4 -127 c-8 -320 2 -437 41 -486 25 -33 122
-82 199 -102 128 -34 539 -7 783 51 184 44 212 91 212 361 0 78 -3 144 -7 148
-4 4 -22 -1 -40 -12 -35 -20 -38 -28 -67 -186 -14 -77 -53 -162 -83 -178 -48
-26 -237 -70 -349 -81 -135 -14 -291 -2 -438 32 l-90 21 -18 52 c-12 37 -17
79 -16 147 0 52 1 129 2 170 0 41 0 86 -2 100 -2 23 4 26 118 57 66 18 192 49
280 69 89 20 168 43 178 52 31 28 39 50 25 71 -10 16 -6 32 26 100 41 88 66
169 66 217 0 34 -28 66 -73 83 -28 11 -115 13 -152 4z"/>
</g>
</svg>
