<?xml version="1.0" standalone="no"?>
<!DOCTYPE svg PUBLIC "-//W3C//DTD SVG 20010904//EN"
 "http://www.w3.org/TR/2001/REC-SVG-20010904/DTD/svg10.dtd">
<svg version="1.0" xmlns="http://www.w3.org/2000/svg"
 width="340.000000pt" height="340.000000pt" viewBox="0 0 340.000000 340.000000"
 preserveAspectRatio="xMidYMid meet">
<metadata>
Created by potrace 1.15, written by Peter Selinger 2001-2017
</metadata>
<g transform="translate(0.000000,340.000000) scale(0.100000,-0.100000)"
fill="#000000" stroke="none">
<path d="M1662 2464 c-28 -20 -28 -35 3 -64 44 -41 35 -74 -58 -217 -134 -206
-259 -421 -252 -432 21 -36 86 15 186 145 l47 61 103 17 c57 10 195 35 306 56
127 24 213 35 233 31 l32 -6 -21 -19 c-42 -38 -18 -86 44 -86 69 0 226 86 240
132 8 25 -21 75 -53 91 -48 25 -79 27 -179 16 -122 -13 -199 -31 -305 -69
-118 -43 -328 -103 -335 -97 -7 7 21 52 54 87 62 65 123 176 141 257 9 38 7
44 -17 67 -48 46 -126 60 -169 30z"/>
<path d="M1150 2451 c-19 -37 -12 -72 24 -106 l34 -32 -50 -89 c-80 -142 -287
-447 -402 -594 -105 -134 -121 -165 -90 -177 20 -7 170 139 287 281 l82 98 12
-63 c23 -126 26 -239 9 -389 -36 -322 -36 -370 4 -370 38 0 50 24 70 145 11
66 26 200 32 298 14 208 5 289 -42 376 -17 30 -30 62 -30 71 0 9 23 43 51 75
63 75 126 169 174 262 43 82 43 120 -2 173 -49 59 -141 82 -163 41z"/>
<path d="M1770 1887 c-34 -17 -36 -51 -6 -118 40 -90 48 -158 44 -361 -2 -102
-6 -190 -10 -194 -4 -4 -13 -2 -20 3 -29 23 -57 24 -77 4 -32 -32 -26 -71 15
-119 57 -67 114 -87 177 -63 22 9 26 19 38 98 9 56 14 178 14 333 l0 245 -33
67 c-19 38 -46 77 -66 92 -40 30 -42 30 -76 13z"/>
<path d="M1449 1594 c-97 -130 -109 -156 -109 -226 0 -31 3 -59 8 -61 16 -11
89 24 118 56 63 68 107 263 71 311 -13 18 -19 12 -88 -80z"/>
<path d="M2090 1675 c0 -9 5 -25 10 -35 10 -19 227 -207 279 -242 37 -25 86
-23 105 4 29 41 20 71 -33 121 -92 86 -208 146 -314 162 -40 6 -47 5 -47 -10z"/>
<path d="M2210 1053 c0 -26 27 -49 79 -67 57 -21 148 -94 206 -166 56 -70 108
-106 174 -122 69 -16 81 -8 81 48 0 88 -36 133 -166 212 -95 57 -213 98 -307
108 -62 6 -67 5 -67 -13z"/>
<path d="M1213 843 c12 -120 89 -248 232 -381 217 -204 530 -312 901 -312
l105 0 16 37 c10 26 14 55 10 92 -5 46 -16 69 -74 154 -68 99 -156 191 -177
184 -6 -2 -12 -26 -14 -53 -3 -50 0 -57 75 -194 17 -30 34 -66 38 -79 l7 -24
-111 7 c-200 12 -348 50 -490 127 -196 106 -327 238 -475 482 -9 15 -24 27
-33 27 -14 0 -15 -9 -10 -67z"/>
<path d="M817 709 c-43 -99 -89 -224 -103 -277 l-26 -95 24 -18 c50 -39 97
-15 126 64 57 150 102 492 67 504 -6 2 -46 -78 -88 -178z"/>
<path d="M1640 850 c0 -29 32 -73 126 -172 36 -38 95 -62 137 -56 19 3 22 9
21 45 -1 50 -40 115 -87 143 -29 18 -171 70 -190 70 -4 0 -7 -13 -7 -30z"/>
</g>
</svg>
