<?xml version="1.0" standalone="no"?>
<!DOCTYPE svg PUBLIC "-//W3C//DTD SVG 20010904//EN"
 "http://www.w3.org/TR/2001/REC-SVG-20010904/DTD/svg10.dtd">
<svg version="1.0" xmlns="http://www.w3.org/2000/svg"
 width="340.000000pt" height="340.000000pt" viewBox="0 0 340.000000 340.000000"
 preserveAspectRatio="xMidYMid meet">
<metadata>
Created by potrace 1.15, written by Peter Selinger 2001-2017
</metadata>
<g transform="translate(0.000000,340.000000) scale(0.100000,-0.100000)"
fill="#000000" stroke="none">
<path d="M2054 2496 c-19 -14 -18 -16 10 -73 26 -52 30 -73 39 -213 12 -183
16 -1864 4 -1962 -7 -60 -5 -70 13 -88 11 -11 33 -20 49 -20 26 0 31 5 45 47
28 88 33 166 28 465 l-5 298 250 0 c248 0 250 0 271 23 32 34 29 73 -8 92 -61
32 -318 16 -462 -28 l-48 -15 0 184 0 184 68 0 c109 0 338 57 349 87 10 27 -7
61 -38 73 -27 12 -45 10 -131 -9 -55 -12 -132 -36 -171 -52 -40 -16 -73 -29
-74 -29 -2 0 -3 97 -3 215 l0 215 113 0 c237 1 309 22 315 92 3 30 -1 36 -20
42 -74 19 -197 -5 -297 -60 -38 -21 -74 -34 -90 -32 l-26 3 0 195 c0 186 -2
199 -28 277 -17 50 -35 87 -47 93 -27 14 -83 12 -106 -4z"/>
<path d="M817 2324 c-15 -15 -6 -63 19 -99 47 -70 66 -134 72 -240 3 -55 -1
-388 -7 -740 -11 -558 -15 -652 -32 -737 -10 -53 -19 -119 -19 -147 0 -48 1
-51 33 -59 37 -11 65 2 83 37 6 12 14 107 18 219 23 731 39 1167 41 1170 2 2
21 -6 44 -17 45 -23 83 -26 130 -10 36 13 38 23 12 65 -27 44 -78 80 -131 94
l-45 11 0 127 c0 143 -17 204 -79 285 -29 38 -36 42 -82 45 -27 2 -53 0 -57
-4z"/>
<path d="M1537 2283 c-4 -3 -7 -23 -7 -43 0 -27 10 -50 37 -85 33 -44 37 -55
41 -125 l4 -77 -74 -12 c-78 -12 -233 -62 -251 -80 -8 -8 -5 -17 10 -33 21
-20 25 -21 145 -10 68 6 133 14 146 18 l22 6 0 -188 0 -189 -92 -24 c-94 -24
-276 -87 -291 -101 -14 -12 2 -48 24 -55 39 -13 263 26 342 60 16 7 17 -5 17
-159 l0 -166 -27 -6 c-59 -13 -142 -36 -228 -64 -49 -16 -109 -34 -133 -40
-32 -8 -45 -18 -53 -37 -13 -34 -4 -41 67 -54 73 -14 137 1 272 60 51 23 95
41 99 41 7 0 -4 -395 -13 -456 -6 -37 -4 -44 19 -59 35 -22 61 -12 84 33 17
35 18 84 24 752 4 393 10 762 14 820 9 126 -3 180 -49 226 -39 39 -129 68
-149 47z"/>
<path d="M660 1605 c-23 -59 -80 -299 -80 -334 0 -11 5 -43 11 -71 12 -58 27
-63 79 -27 50 34 70 80 70 161 0 73 -26 249 -42 279 -12 24 -27 21 -38 -8z"/>
</g>
</svg>
