<?xml version="1.0" standalone="no"?>
<!DOCTYPE svg PUBLIC "-//W3C//DTD SVG 20010904//EN"
 "http://www.w3.org/TR/2001/REC-SVG-20010904/DTD/svg10.dtd">
<svg version="1.0" xmlns="http://www.w3.org/2000/svg"
 width="340.000000pt" height="340.000000pt" viewBox="0 0 340.000000 340.000000"
 preserveAspectRatio="xMidYMid meet">
<metadata>
Created by potrace 1.15, written by Peter Selinger 2001-2017
</metadata>
<g transform="translate(0.000000,340.000000) scale(0.100000,-0.100000)"
fill="#000000" stroke="none">
<path d="M1732 2658 c-19 -19 -14 -63 10 -93 19 -25 21 -37 19 -168 -1 -78 -3
-142 -5 -144 -1 -2 -74 -15 -162 -29 -87 -14 -169 -28 -181 -30 -30 -6 -30
-39 0 -59 20 -12 42 -13 143 -6 65 5 138 13 162 17 l42 7 2 -107 c1 -58 2
-118 2 -133 1 -26 -2 -28 -54 -36 -116 -17 -374 -70 -451 -93 -12 -3 -18 4
-23 28 -15 76 -75 131 -172 157 -67 18 -69 23 -65 200 2 134 -7 255 -24 311
-7 21 -57 50 -88 50 -54 0 -70 -66 -36 -142 l24 -53 3 -475 c2 -261 -2 -673
-8 -914 l-12 -440 22 -18 c29 -24 37 -23 64 7 33 36 40 117 41 455 1 665 6
980 13 980 5 0 13 -10 19 -22 6 -13 32 -47 58 -75 36 -41 43 -54 31 -58 -9 -3
-23 -7 -31 -10 -22 -7 -18 -33 7 -46 25 -13 251 -18 310 -6 l36 8 49 -73 c27
-40 64 -103 83 -140 51 -98 104 -122 130 -57 15 36 6 88 -25 148 -30 57 -50
80 -98 116 -27 20 -35 31 -25 36 40 22 452 89 549 89 22 0 39 -5 39 -11 0 -21
-75 -154 -129 -229 -54 -75 -111 -175 -111 -196 0 -7 -35 -17 -82 -24 -126
-18 -330 -58 -460 -91 -64 -16 -128 -29 -142 -29 -30 0 -42 -16 -26 -35 25
-30 293 -13 455 29 77 21 121 21 129 0 9 -22 7 -217 -2 -230 -4 -6 -56 -20
-117 -31 -164 -31 -355 -83 -355 -98 0 -20 28 -38 58 -38 25 0 333 37 393 47
l26 5 7 -187 c10 -291 27 -555 37 -574 6 -10 18 -18 29 -18 11 0 23 8 28 18
16 29 33 337 31 552 -1 168 1 205 14 217 19 20 129 32 288 33 114 0 129 2 159
23 42 28 45 38 21 68 -19 23 -23 24 -148 22 -70 -1 -164 -8 -208 -16 -50 -9
-86 -12 -97 -6 -20 11 -31 84 -26 184 l3 70 95 6 c52 4 188 7 301 8 l207 1 16
25 c28 43 21 74 -21 92 -32 13 -62 14 -178 9 -77 -4 -182 -12 -233 -18 -51 -5
-95 -8 -97 -6 -2 2 52 71 121 153 136 161 159 200 151 252 l-6 33 239 0 c226
0 240 1 250 19 18 35 12 69 -17 88 -24 15 -48 18 -173 16 -153 -2 -399 -23
-560 -48 -52 -8 -104 -16 -115 -18 -19 -2 -20 3 -17 88 1 50 6 110 10 134 7
40 11 45 46 58 22 7 80 18 130 23 103 12 163 37 202 83 25 29 25 32 8 44 -49
36 -92 35 -206 -6 -31 -11 -80 -23 -110 -27 l-53 -6 0 123 c0 111 -2 129 -24
169 -13 25 -30 53 -39 63 -18 20 -82 23 -100 5z"/>
<path d="M652 1725 c-11 -24 -27 -104 -51 -256 -12 -74 -14 -161 -5 -208 5
-25 11 -31 33 -31 31 0 66 22 83 53 30 57 26 287 -8 408 -18 64 -34 74 -52 34z"/>
</g>
</svg>
