<?xml version="1.0" standalone="no"?>
<!DOCTYPE svg PUBLIC "-//W3C//DTD SVG 20010904//EN"
 "http://www.w3.org/TR/2001/REC-SVG-20010904/DTD/svg10.dtd">
<svg version="1.0" xmlns="http://www.w3.org/2000/svg"
 width="340.000000pt" height="340.000000pt" viewBox="0 0 340.000000 340.000000"
 preserveAspectRatio="xMidYMid meet">
<metadata>
Created by potrace 1.15, written by Peter Selinger 2001-2017
</metadata>
<g transform="translate(0.000000,340.000000) scale(0.100000,-0.100000)"
fill="#000000" stroke="none">
<path d="M1123 2490 c-28 -11 -45 -43 -36 -67 3 -10 17 -31 30 -46 22 -28 23
-35 23 -206 0 -98 -3 -198 -6 -223 -6 -44 -6 -44 -78 -72 -175 -70 -424 -158
-461 -165 -27 -4 -41 -12 -43 -25 -6 -27 12 -39 70 -47 82 -10 157 7 315 72
80 33 148 57 151 54 14 -14 -94 -198 -174 -295 -87 -107 -193 -253 -253 -348
-24 -38 -31 -56 -23 -64 31 -31 114 46 340 317 68 83 129 155 134 160 11 10 4
-461 -8 -597 -6 -63 -5 -67 20 -83 34 -22 67 -14 89 24 15 25 17 57 17 223 0
107 3 243 7 301 l6 107 40 -40 c49 -48 108 -77 176 -86 l51 -7 0 34 c0 39 -29
91 -63 113 -13 9 -50 21 -83 27 -69 13 -109 32 -124 58 -11 21 -12 147 -1 195
5 25 13 32 53 42 59 15 112 47 138 84 30 42 26 58 -20 70 -42 11 -113 0 -125
-20 -20 -33 -25 10 -25 223 0 223 -1 234 -21 256 -35 37 -74 48 -116 31z"/>
<path d="M2115 2214 c-125 -27 -174 -41 -255 -73 -52 -21 -108 -42 -124 -47
-31 -10 -55 -38 -43 -51 9 -8 281 20 369 39 72 15 116 -2 142 -55 28 -61 48
-610 30 -830 l-7 -77 -33 0 c-24 0 -36 6 -45 23 -17 32 -28 37 -84 37 -65 0
-169 -23 -243 -53 l-60 -24 -6 36 c-8 46 -7 136 0 183 6 35 8 37 58 43 78 10
185 35 244 57 52 19 53 21 50 56 -3 37 -3 37 -53 40 -84 6 -175 -19 -287 -76
-5 -2 -8 55 -8 126 l0 129 80 11 c79 11 178 50 202 79 14 17 1 28 -53 43 -46
13 -90 5 -156 -28 -61 -30 -83 -21 -83 33 0 45 -48 132 -87 156 l-31 20 -12
-36 c-9 -26 -9 -48 -1 -86 13 -59 28 -307 39 -617 9 -260 2 -247 140 -238 104
7 216 27 279 50 44 16 53 13 53 -16 0 -54 83 -128 142 -128 48 0 71 30 79 106
13 116 11 981 -3 1025 -11 40 -66 112 -96 128 -21 11 -110 21 -137 15z"/>
<path d="M2390 906 c0 -8 12 -29 28 -44 37 -40 206 -146 299 -188 73 -34 78
-35 91 -17 57 79 -17 157 -210 221 -119 39 -208 51 -208 28z"/>
<path d="M1675 878 c8 -27 110 -125 180 -173 53 -36 151 -72 163 -60 4 3 7 26
6 50 -2 84 -61 128 -239 180 -109 31 -118 32 -110 3z"/>
<path d="M915 773 c-9 -21 -32 -90 -52 -153 -30 -97 -37 -134 -41 -236 l-4
-121 24 -5 c38 -7 68 9 82 44 35 84 58 377 37 472 -9 43 -28 43 -46 -1z"/>
<path d="M1250 737 c0 -47 68 -163 126 -216 246 -225 641 -371 1004 -371 132
0 178 40 151 130 -21 71 -71 132 -134 165 -58 30 -58 30 -73 10 -21 -28 -12
-88 20 -130 35 -45 24 -50 -99 -47 -236 6 -460 76 -654 206 -36 25 -120 93
-186 151 -145 128 -155 134 -155 102z"/>
</g>
</svg>
