<?xml version="1.0" standalone="no"?>
<!DOCTYPE svg PUBLIC "-//W3C//DTD SVG 20010904//EN"
 "http://www.w3.org/TR/2001/REC-SVG-20010904/DTD/svg10.dtd">
<svg version="1.0" xmlns="http://www.w3.org/2000/svg"
 width="340.000000pt" height="340.000000pt" viewBox="0 0 340.000000 340.000000"
 preserveAspectRatio="xMidYMid meet">
<metadata>
Created by potrace 1.15, written by Peter Selinger 2001-2017
</metadata>
<g transform="translate(0.000000,340.000000) scale(0.100000,-0.100000)"
fill="#000000" stroke="none">
<path d="M1677 2589 c-25 -15 -36 -48 -26 -83 7 -24 0 -46 -47 -137 -75 -147
-194 -334 -298 -471 -119 -156 -136 -176 -136 -158 -1 91 -86 173 -198 189
l-45 6 -2 185 c-1 141 -5 203 -19 260 -24 96 -31 109 -71 126 -45 19 -68 18
-95 -4 l-22 -18 32 -61 c48 -91 54 -162 54 -668 1 -564 -18 -885 -76 -1307
-27 -200 -18 -230 65 -199 21 8 26 22 45 118 26 134 39 274 46 508 15 469 27
798 32 884 l6 93 52 -50 c51 -51 107 -82 146 -82 31 0 24 -23 -22 -80 -50 -60
-88 -126 -88 -153 0 -16 6 -14 45 13 70 48 160 135 217 211 l53 71 90 3 c123
5 294 32 390 62 88 27 225 82 225 90 0 17 -24 43 -51 52 -25 9 -55 4 -182 -28
-84 -22 -208 -57 -277 -80 -68 -22 -126 -39 -128 -37 -3 4 27 45 262 369 l108
148 166 -159 c376 -359 537 -503 594 -533 79 -40 166 -59 276 -59 90 0 93 1
102 26 16 40 -2 57 -97 93 -133 51 -364 160 -400 190 -18 14 -83 69 -145 122
-122 103 -263 211 -396 304 -63 43 -82 62 -77 74 12 29 18 89 11 115 -10 38
-86 74 -119 55z"/>
<path d="M542 1683 c-58 -182 -76 -375 -43 -456 l11 -29 32 19 c57 33 70 63
79 170 15 184 12 264 -13 313 -13 24 -28 45 -33 47 -6 2 -21 -27 -33 -64z"/>
<path d="M2188 1720 c-24 -15 -23 -24 16 -116 29 -70 36 -101 50 -245 26 -269
35 -427 43 -737 6 -288 6 -295 -13 -288 -77 30 -184 31 -184 2 0 -22 53 -94
90 -122 51 -38 116 -64 160 -64 30 0 43 6 59 26 26 33 26 73 6 379 -8 121 -19
366 -25 545 -16 523 -14 491 -38 537 -36 68 -119 111 -164 83z"/>
<path d="M1451 1584 c-59 -21 -143 -74 -138 -88 6 -18 77 -34 157 -35 41 -1
80 -5 87 -9 6 -4 16 -51 22 -104 16 -146 22 -134 -61 -134 -67 0 -91 -6 -160
-42 -5 -2 -8 16 -8 40 0 59 -23 139 -55 193 -22 39 -29 44 -45 35 -28 -15 -35
-57 -18 -104 12 -34 14 -78 7 -271 -8 -250 -18 -366 -51 -607 -23 -175 -20
-208 17 -208 13 0 29 8 34 18 26 49 62 235 76 398 l7 71 75 11 c41 7 102 23
134 36 l59 24 0 -194 0 -194 -25 6 c-18 4 -32 1 -46 -12 -39 -35 -5 -136 70
-208 l40 -39 38 14 c68 26 68 29 54 409 -7 184 -11 459 -10 610 2 297 1 307
-53 357 -48 45 -126 55 -207 27z m139 -558 l0 -133 -64 -6 c-36 -3 -97 -17
-135 -30 l-71 -23 0 35 c0 36 15 152 26 204 5 26 8 27 63 27 44 0 70 7 112 29
30 15 57 29 62 30 4 0 7 -59 7 -133z"/>
<path d="M1884 1416 c-3 -19 -1 -115 5 -213 7 -98 15 -235 20 -305 8 -133 18
-161 55 -156 43 6 51 48 51 263 0 117 -6 241 -14 298 -16 112 -35 147 -81 147
-25 0 -30 -5 -36 -34z"/>
</g>
</svg>
