<?xml version="1.0" standalone="no"?>
<!DOCTYPE svg PUBLIC "-//W3C//DTD SVG 20010904//EN"
 "http://www.w3.org/TR/2001/REC-SVG-20010904/DTD/svg10.dtd">
<svg version="1.0" xmlns="http://www.w3.org/2000/svg"
 width="340.000000pt" height="340.000000pt" viewBox="0 0 340.000000 340.000000"
 preserveAspectRatio="xMidYMid meet">
<metadata>
Created by potrace 1.15, written by Peter Selinger 2001-2017
</metadata>
<g transform="translate(0.000000,340.000000) scale(0.100000,-0.100000)"
fill="#000000" stroke="none">
<path d="M1528 2453 c-28 -7 -31 -40 -9 -77 12 -18 21 -41 21 -50 0 -8 -22
-40 -49 -69 -69 -77 -124 -152 -165 -228 -31 -57 -34 -68 -22 -84 9 -13 20
-16 38 -12 22 6 120 100 243 234 42 47 50 51 68 41 48 -25 92 -27 217 -8 69
10 181 24 250 31 174 16 227 46 197 107 -12 26 -15 27 -97 24 -64 -1 -141 -16
-308 -58 -123 -31 -225 -54 -228 -52 -2 3 0 17 6 32 13 35 13 87 0 121 -16 42
-96 66 -162 48z"/>
<path d="M843 2277 c3 -31 15 -77 27 -104 32 -70 44 -332 35 -768 -7 -381 -9
-415 -50 -802 -28 -257 -28 -263 -10 -283 28 -31 74 -23 97 15 20 35 27 144
53 770 8 204 18 411 21 462 l6 91 38 -39 c31 -32 43 -39 76 -39 54 0 68 11 60
46 -10 37 -84 111 -121 120 -58 13 -57 10 -53 233 3 203 3 207 -22 255 -30 59
-60 82 -119 91 l-44 7 6 -55z"/>
<path d="M2100 2024 c-114 -22 -525 -135 -538 -149 -3 -3 1 -11 8 -20 16 -19
52 -19 160 0 112 19 341 45 407 45 74 0 80 -15 53 -128 -25 -107 -44 -166 -81
-257 l-29 -71 -99 -11 c-56 -7 -142 -27 -199 -46 l-100 -33 -6 30 c-4 17 -10
66 -13 109 l-6 77 39 0 c22 0 66 7 99 15 62 16 185 73 185 85 0 3 -10 16 -23
28 -34 32 -80 28 -192 -18 -54 -22 -103 -40 -109 -40 -6 0 -19 27 -29 60 -21
72 -65 120 -126 139 -24 7 -46 10 -49 7 -3 -3 9 -43 26 -89 36 -97 55 -169 76
-292 20 -115 20 -152 0 -163 -9 -5 -14 -18 -12 -28 3 -17 12 -19 76 -16 70 2
72 1 62 -18 -42 -78 -188 -250 -352 -413 -103 -103 -188 -192 -188 -196 0 -5
9 -11 20 -14 35 -9 203 107 373 256 l78 69 37 -26 c53 -37 212 -175 212 -185
0 -4 -37 -37 -82 -72 -86 -66 -338 -305 -338 -320 0 -5 13 -9 28 -9 34 0 177
97 350 236 64 51 120 94 123 94 3 0 52 -41 110 -91 209 -184 422 -348 474
-366 38 -14 81 -18 180 -18 145 0 181 10 169 48 -12 41 -35 54 -157 97 -264
92 -495 218 -641 352 l-60 54 60 65 c126 136 254 324 247 363 -6 32 -39 66
-62 66 -11 0 -61 -16 -112 -36 -52 -20 -157 -58 -234 -84 -76 -26 -141 -52
-143 -58 -2 -7 8 -17 22 -24 21 -9 44 -8 114 5 83 16 202 23 202 12 0 -3 -39
-57 -86 -120 -53 -70 -91 -112 -98 -108 -6 4 -64 42 -130 85 -65 42 -123 79
-130 81 -6 2 12 29 40 59 55 58 95 127 113 194 l11 41 106 28 c88 22 108 25
115 14 5 -8 9 -17 9 -20 0 -14 32 -18 52 -8 23 12 129 228 198 403 68 171 58
261 -35 306 -41 20 -131 32 -175 24z"/>
<path d="M633 1554 c-32 -76 -51 -137 -73 -236 -17 -73 -18 -97 -10 -124 12
-37 53 -74 80 -74 23 0 57 80 66 151 6 50 -15 230 -34 304 l-8 28 -21 -49z"/>
</g>
</svg>
