<?xml version="1.0" standalone="no"?>
<!DOCTYPE svg PUBLIC "-//W3C//DTD SVG 20010904//EN"
 "http://www.w3.org/TR/2001/REC-SVG-20010904/DTD/svg10.dtd">
<svg version="1.0" xmlns="http://www.w3.org/2000/svg"
 width="340.000000pt" height="340.000000pt" viewBox="0 0 340.000000 340.000000"
 preserveAspectRatio="xMidYMid meet">
<metadata>
Created by potrace 1.15, written by Peter Selinger 2001-2017
</metadata>
<g transform="translate(0.000000,340.000000) scale(0.100000,-0.100000)"
fill="#000000" stroke="none">
<path d="M1763 2433 c-40 -5 -46 -22 -22 -67 10 -20 19 -40 19 -45 0 -6 -23
-36 -51 -68 -74 -84 -145 -187 -190 -275 -46 -92 -68 -103 -129 -69 -44 25
-73 27 -90 7 -9 -12 -3 -27 30 -77 81 -118 132 -254 144 -379 8 -81 31 -177
63 -257 24 -61 35 -73 47 -54 8 12 115 45 122 38 12 -12 -6 -53 -82 -191 -118
-216 -252 -413 -406 -599 -47 -57 -61 -97 -35 -97 18 0 190 176 275 280 139
172 253 353 298 474 15 39 39 94 55 121 l28 50 88 18 c48 10 137 32 196 49 94
27 110 35 118 57 6 14 23 46 39 71 61 96 189 430 207 543 5 36 3 41 -41 82
-77 71 -159 90 -266 60 -30 -9 -125 -33 -210 -55 -85 -21 -208 -57 -273 -80
-65 -23 -121 -40 -123 -37 -3 2 23 27 58 55 95 76 288 305 288 342 0 22 -36
77 -57 88 -26 13 -63 19 -100 15z m541 -459 l46 -7 -6 -36 c-14 -78 -77 -281
-125 -402 -50 -128 -50 -128 -87 -134 -20 -4 -84 -15 -141 -25 -58 -11 -106
-18 -107 -17 -7 7 38 203 51 223 9 13 32 35 53 48 76 48 83 89 20 119 -35 16
-38 21 -38 57 0 22 -5 60 -12 85 -10 39 -10 47 3 61 24 23 245 41 343 28z
m-496 -87 c24 -25 43 -105 34 -140 -8 -37 -34 -58 -112 -94 l-75 -34 25 -20
c18 -16 36 -20 73 -17 70 4 76 -9 53 -109 -10 -43 -27 -101 -37 -129 -18 -48
-23 -53 -82 -78 -34 -14 -67 -26 -74 -26 -16 0 -21 38 -27 190 -5 136 -27 241
-72 341 -16 35 -23 63 -18 68 13 13 74 31 172 51 114 24 115 24 140 -3z"/>
<path d="M828 2359 c-27 -15 -22 -35 22 -101 65 -98 65 -99 62 -528 -3 -590
-39 -1298 -69 -1392 -17 -57 -10 -102 20 -123 47 -33 62 -18 94 97 14 51 16
99 15 259 -2 178 18 766 34 997 l7 94 26 -6 c14 -3 42 -10 61 -14 19 -5 50 -5
68 0 29 8 32 12 32 46 0 20 -4 42 -8 49 -9 15 -52 32 -117 48 l-50 12 -1 229
c-1 257 -7 288 -66 324 -35 21 -101 26 -130 9z"/>
<path d="M581 1675 c-32 -85 -52 -215 -58 -371 -6 -154 1 -184 42 -184 61 0
80 83 80 350 0 168 -2 200 -18 228 -10 17 -19 32 -22 32 -2 0 -13 -25 -24 -55z"/>
<path d="M1860 1187 c-35 -18 -36 -40 -5 -109 24 -53 26 -69 22 -137 -3 -42
-13 -107 -22 -146 -21 -85 -25 -294 -6 -377 10 -49 19 -63 59 -98 58 -49 146
-93 232 -116 130 -34 474 -16 622 34 52 17 53 18 71 77 15 48 18 82 14 170 -4
123 -23 185 -55 185 -39 0 -46 -26 -79 -265 l-8 -60 -65 -18 c-39 -11 -115
-21 -191 -24 -143 -6 -245 10 -364 56 -66 26 -72 30 -97 82 -58 113 -59 214
-5 379 24 74 31 113 32 175 0 84 -23 169 -53 193 -20 15 -70 15 -102 -1z"/>
<path d="M2207 1141 c-9 -16 -17 -49 -17 -73 0 -36 -16 -75 -78 -199 -70 -137
-78 -158 -70 -186 19 -73 67 -77 302 -23 92 21 133 27 146 20 10 -6 32 -10 49
-10 87 0 54 154 -58 264 -73 72 -78 63 -59 -103 3 -21 -3 -26 -47 -38 -27 -7
-80 -16 -117 -19 l-67 -7 42 84 c63 125 95 277 65 307 -7 7 -26 12 -43 12 -23
0 -35 -7 -48 -29z"/>
</g>
</svg>
