<?xml version="1.0" standalone="no"?>
<!DOCTYPE svg PUBLIC "-//W3C//DTD SVG 20010904//EN"
 "http://www.w3.org/TR/2001/REC-SVG-20010904/DTD/svg10.dtd">
<svg version="1.0" xmlns="http://www.w3.org/2000/svg"
 width="340.000000pt" height="340.000000pt" viewBox="0 0 340.000000 340.000000"
 preserveAspectRatio="xMidYMid meet">
<metadata>
Created by potrace 1.15, written by Peter Selinger 2001-2017
</metadata>
<g transform="translate(0.000000,340.000000) scale(0.100000,-0.100000)"
fill="#000000" stroke="none">
<path d="M2185 2340 c-132 -21 -262 -45 -290 -54 -27 -9 -162 -47 -300 -86
-188 -52 -259 -68 -286 -64 -27 5 -38 2 -42 -9 -12 -31 22 -42 128 -42 l103 0
16 -95 c37 -212 56 -534 39 -655 -8 -59 -8 -59 -48 -68 -22 -5 -114 -26 -204
-48 -90 -21 -173 -39 -185 -39 -37 0 -50 -14 -36 -40 12 -22 16 -22 99 -16
122 10 215 24 296 47 39 10 90 23 115 28 25 6 78 22 119 36 54 20 255 55 309
55 3 0 2 -33 -1 -72 -4 -40 -3 -102 2 -138 5 -39 5 -69 -1 -75 -5 -5 -44 -11
-86 -12 -98 -2 -103 -15 -35 -87 47 -48 132 -152 197 -239 l28 -39 -29 -31
c-16 -18 -97 -105 -181 -194 -138 -146 -151 -163 -137 -177 9 -8 23 -12 33 -9
46 17 188 128 285 223 94 91 110 102 118 87 20 -35 110 -137 154 -174 68 -57
159 -109 232 -134 52 -17 81 -20 140 -17 95 6 106 16 67 65 -23 28 -65 55
-160 103 -139 70 -239 136 -316 210 -68 66 -66 95 14 188 43 50 88 147 104
225 14 65 14 71 -3 90 -55 61 -160 73 -247 28 l-56 -30 -5 22 c-3 12 -6 60 -8
106 -2 81 -1 84 26 105 27 20 39 21 266 21 259 0 271 3 271 55 0 35 -37 61
-96 68 -50 5 -282 -14 -376 -32 -60 -11 -69 -11 -82 3 -12 13 -15 84 -17 405
-3 455 -14 416 119 416 87 0 245 31 277 54 16 11 16 14 -6 39 -13 15 -37 29
-54 31 -16 3 -138 -13 -270 -34z m-213 -171 c15 -20 22 -53 29 -135 14 -179
22 -494 15 -574 l-7 -76 -154 -33 c-85 -18 -163 -35 -175 -38 -19 -5 -20 -1
-20 116 l0 121 38 0 c73 0 252 63 252 89 0 19 -42 44 -82 48 -30 3 -60 -2 -98
-17 -30 -12 -67 -26 -82 -30 -27 -8 -28 -8 -28 33 0 23 3 72 6 108 l7 66 91
11 c98 11 206 47 206 68 0 22 -51 54 -87 54 -19 0 -75 -13 -125 -30 -49 -16
-91 -30 -92 -30 -2 0 -6 22 -9 49 -3 28 -16 73 -28 101 -12 28 -20 52 -18 53
10 8 306 75 323 74 10 -1 28 -14 38 -28z m328 -1209 c0 -9 -25 -65 -56 -124
l-56 -107 -97 93 c-53 51 -98 97 -99 103 -4 11 93 39 203 58 83 15 105 10 105
-23z"/>
<path d="M933 2330 c-19 -8 -43 -38 -43 -54 0 -3 15 -22 33 -42 l32 -37 -1
-481 c-1 -481 -9 -707 -40 -1166 -10 -135 -14 -258 -10 -273 8 -35 28 -43 65
-27 47 19 48 36 77 1141 l7 266 64 -33 c77 -40 96 -42 117 -9 36 55 8 98 -101
152 l-75 37 6 61 c3 33 9 137 13 231 l6 170 -29 33 c-31 34 -82 48 -121 31z"/>
<path d="M661 1518 c-19 -83 -40 -166 -47 -184 -27 -65 -8 -214 26 -214 24 0
78 67 90 111 13 46 8 371 -5 417 -16 51 -32 18 -64 -130z"/>
<path d="M1590 1029 c-25 -11 -85 -34 -135 -51 -49 -17 -96 -36 -102 -41 -20
-15 -15 -45 8 -52 18 -6 176 6 267 21 41 6 42 -9 7 -103 -32 -85 -59 -122 -78
-108 -8 6 -36 27 -63 47 -60 46 -181 111 -187 101 -11 -21 19 -76 74 -139 34
-38 73 -84 87 -103 l26 -33 -110 -103 c-60 -57 -132 -129 -158 -160 -44 -51
-47 -58 -33 -72 14 -14 20 -14 48 -3 41 17 173 115 263 194 43 37 71 56 74 48
2 -7 16 -27 30 -44 44 -52 142 -80 142 -40 0 42 -30 115 -64 157 l-37 44 36
47 c72 94 105 188 105 301 0 72 -1 74 -32 93 -42 25 -109 25 -168 -1z"/>
</g>
</svg>
