<?xml version="1.0" standalone="no"?>
<!DOCTYPE svg PUBLIC "-//W3C//DTD SVG 20010904//EN"
 "http://www.w3.org/TR/2001/REC-SVG-20010904/DTD/svg10.dtd">
<svg version="1.0" xmlns="http://www.w3.org/2000/svg"
 width="340.000000pt" height="340.000000pt" viewBox="0 0 340.000000 340.000000"
 preserveAspectRatio="xMidYMid meet">
<metadata>
Created by potrace 1.15, written by Peter Selinger 2001-2017
</metadata>
<g transform="translate(0.000000,340.000000) scale(0.100000,-0.100000)"
fill="#000000" stroke="none">
<path d="M1142 2568 c-19 -19 -15 -28 42 -88 61 -64 65 -74 96 -266 11 -73 37
-195 56 -273 19 -78 32 -145 30 -150 -6 -9 -169 -100 -367 -205 -97 -51 -135
-66 -167 -66 -30 0 -48 -6 -63 -21 -20 -20 -20 -23 -5 -31 30 -17 121 -26 175
-17 64 10 93 24 300 147 l155 92 58 -158 c32 -86 93 -228 135 -316 l78 -158
-31 -27 c-210 -179 -445 -369 -644 -523 -28 -21 -32 -29 -23 -39 10 -10 22 -7
63 14 124 65 406 258 580 399 l108 86 41 -66 c162 -253 432 -532 676 -698 103
-70 159 -74 190 -13 32 60 9 327 -37 439 l-14 35 -26 -26 c-23 -24 -25 -32
-32 -174 -4 -82 -9 -151 -11 -154 -8 -7 -133 82 -237 168 -162 136 -330 329
-436 502 l-40 66 90 89 c101 101 204 225 272 331 42 65 46 77 40 110 -13 69
-53 103 -120 103 -23 0 -24 -3 -24 -74 0 -68 -3 -78 -36 -127 -54 -79 -131
-174 -212 -259 l-70 -75 -70 145 c-39 80 -90 204 -115 275 -68 201 -75 173 56
237 126 63 270 118 370 144 52 13 74 24 97 51 41 46 40 79 -3 99 l-34 16 -279
-134 c-213 -103 -281 -132 -287 -122 -21 36 -50 213 -57 354 -9 178 -26 238
-91 320 l-39 50 -63 0 c-36 0 -68 -5 -75 -12z"/>
<path d="M1915 2490 c-10 -17 1 -26 120 -95 63 -37 139 -85 168 -106 71 -54
94 -59 124 -25 13 15 23 36 23 47 0 31 -94 124 -150 148 -76 33 -271 54 -285
31z"/>
</g>
</svg>
