<?xml version="1.0" standalone="no"?>
<!DOCTYPE svg PUBLIC "-//W3C//DTD SVG 20010904//EN"
 "http://www.w3.org/TR/2001/REC-SVG-20010904/DTD/svg10.dtd">
<svg version="1.0" xmlns="http://www.w3.org/2000/svg"
 width="340.000000pt" height="340.000000pt" viewBox="0 0 340.000000 340.000000"
 preserveAspectRatio="xMidYMid meet">
<metadata>
Created by potrace 1.15, written by Peter Selinger 2001-2017
</metadata>
<g transform="translate(0.000000,340.000000) scale(0.100000,-0.100000)"
fill="#000000" stroke="none">
<path d="M1289 2456 c-17 -36 -3 -75 33 -94 17 -9 39 -24 48 -33 22 -21 200
-556 200 -601 0 -11 -54 -27 -202 -61 -356 -82 -342 -80 -391 -55 -31 16 -61
22 -112 22 -64 1 -70 -1 -73 -21 -2 -14 7 -29 31 -47 83 -63 110 -137 109
-300 -1 -202 -56 -413 -148 -565 -38 -63 -84 -170 -108 -248 l-15 -53 31 0
c43 0 89 51 165 186 102 180 165 358 198 564 18 117 19 205 0 290 -15 74 -15
75 54 85 25 3 147 26 270 51 123 25 225 43 226 42 1 -2 23 -57 49 -123 27 -66
86 -198 132 -294 l84 -174 -22 -28 c-13 -15 -81 -91 -151 -170 -271 -301 -315
-364 -245 -346 28 8 169 127 347 295 74 70 136 122 138 117 12 -34 98 -179
153 -256 143 -204 460 -489 542 -489 72 0 94 46 78 166 -19 139 -87 364 -110
364 -4 0 -15 -10 -26 -21 -16 -18 -19 -35 -17 -103 1 -44 5 -109 9 -143 3 -37
2 -63 -4 -63 -22 0 -156 112 -262 219 -116 117 -186 209 -265 348 l-43 75 50
62 c60 74 142 234 159 310 12 53 11 57 -14 96 -33 49 -68 60 -105 33 -25 -19
-27 -25 -24 -81 4 -59 1 -67 -53 -169 -31 -60 -60 -112 -65 -117 -9 -9 -89
144 -146 281 -40 95 -86 225 -81 229 1 1 99 24 217 50 264 57 260 56 260 92 0
66 -46 67 -307 6 -107 -25 -197 -43 -199 -41 -8 8 -56 176 -105 367 -27 107
-54 212 -60 233 -12 46 -63 106 -106 123 -18 8 -51 14 -73 14 -33 0 -42 -4
-51 -24z"/>
<path d="M1860 2191 c-12 -24 -6 -31 100 -118 75 -61 142 -94 206 -100 l54 -6
0 46 c0 70 -36 105 -152 149 -51 20 -116 39 -145 43 -46 6 -53 4 -63 -14z"/>
<path d="M1130 1180 c0 -32 54 -104 176 -234 75 -80 140 -146 145 -146 21 0
59 25 65 42 10 32 -45 127 -115 198 -48 49 -86 76 -141 102 -87 41 -130 53
-130 38z"/>
</g>
</svg>
