<?xml version="1.0" standalone="no"?>
<!DOCTYPE svg PUBLIC "-//W3C//DTD SVG 20010904//EN"
 "http://www.w3.org/TR/2001/REC-SVG-20010904/DTD/svg10.dtd">
<svg version="1.0" xmlns="http://www.w3.org/2000/svg"
 width="340.000000pt" height="340.000000pt" viewBox="0 0 340.000000 340.000000"
 preserveAspectRatio="xMidYMid meet">
<metadata>
Created by potrace 1.15, written by Peter Selinger 2001-2017
</metadata>
<g transform="translate(0.000000,340.000000) scale(0.100000,-0.100000)"
fill="#000000" stroke="none">
<path d="M1520 2485 c0 -8 12 -22 28 -32 15 -9 51 -32 81 -51 66 -43 156 -72
222 -72 56 0 61 12 35 75 -21 49 -58 63 -208 80 -163 18 -158 18 -158 0z"/>
<path d="M2255 2272 c-158 -16 -551 -97 -802 -164 l-152 -41 -53 23 c-59 25
-126 30 -138 9 -5 -7 -2 -28 7 -48 78 -179 80 -366 7 -697 -79 -359 -256 -694
-519 -984 -96 -107 -118 -140 -113 -177 3 -24 5 -24 90 37 178 127 299 282
437 561 110 220 183 431 231 669 11 58 23 114 25 126 4 18 16 22 107 33 128
16 674 107 726 120 110 30 298 203 366 338 34 67 15 137 -44 168 -33 17 -129
32 -175 27z m58 -132 c15 -7 27 -17 27 -22 0 -11 -170 -271 -182 -279 -6 -4
-42 -10 -82 -14 -128 -12 -420 -65 -600 -109 l-175 -43 -3 161 c-2 89 1 167 6
174 5 6 20 12 35 12 14 0 105 16 201 36 96 19 272 51 390 69 223 36 330 40
383 15z"/>
<path d="M1668 1604 c-10 -21 -9 -34 7 -73 24 -59 31 -235 15 -349 -10 -69
-16 -85 -34 -93 -39 -17 -390 -110 -438 -116 -51 -6 -57 -13 -32 -37 11 -12
36 -16 94 -16 89 0 152 11 257 46 39 13 81 24 93 24 20 0 21 -3 15 -42 -43
-253 -230 -495 -480 -621 -70 -35 -155 -110 -141 -124 17 -18 103 -1 186 36
124 54 216 118 304 212 98 104 156 219 216 426 42 149 44 153 64 139 12 -7 45
-49 75 -92 99 -145 345 -450 477 -594 66 -71 162 -123 269 -145 140 -29 270
-12 263 36 -4 26 -31 41 -138 75 -91 28 -193 76 -275 129 -102 65 -190 152
-386 383 l-201 236 48 13 c91 24 229 43 354 50 73 3 136 11 152 19 35 18 43
47 22 79 -16 24 -20 25 -83 20 -131 -12 -288 -37 -415 -65 -72 -17 -136 -30
-143 -30 -15 0 -13 41 12 237 22 171 -6 230 -118 257 -23 5 -29 2 -39 -20z"/>
<path d="M2310 1560 c0 -22 44 -70 64 -70 7 0 30 -18 51 -41 50 -51 117 -86
184 -95 l51 -7 0 41 c0 88 -121 162 -302 187 -44 6 -48 5 -48 -15z"/>
</g>
</svg>
