<?xml version="1.0" standalone="no"?>
<!DOCTYPE svg PUBLIC "-//W3C//DTD SVG 20010904//EN"
 "http://www.w3.org/TR/2001/REC-SVG-20010904/DTD/svg10.dtd">
<svg version="1.0" xmlns="http://www.w3.org/2000/svg"
 width="340.000000pt" height="340.000000pt" viewBox="0 0 340.000000 340.000000"
 preserveAspectRatio="xMidYMid meet">
<metadata>
Created by potrace 1.15, written by Peter Selinger 2001-2017
</metadata>
<g transform="translate(0.000000,340.000000) scale(0.100000,-0.100000)"
fill="#000000" stroke="none">
<path d="M1125 2253 c-10 -9 -15 -25 -11 -37 2 -12 12 -48 21 -81 13 -50 14
-99 9 -307 l-7 -247 -51 -16 c-76 -22 -364 -93 -414 -101 -50 -8 -68 -31 -47
-60 30 -41 264 -28 410 23 38 13 78 27 88 30 16 5 17 -9 17 -194 l0 -199 -231
-152 c-215 -142 -234 -152 -278 -152 -55 0 -71 -12 -71 -57 0 -43 43 -67 120
-67 65 0 114 23 186 86 57 51 239 187 262 195 14 6 15 -11 9 -162 -4 -92 -7
-211 -7 -263 0 -93 0 -94 -22 -87 -74 23 -108 14 -108 -30 0 -34 54 -101 106
-131 l47 -28 35 20 c20 10 45 32 56 47 24 33 25 74 12 482 l-9 250 89 67 c90
67 268 238 248 238 -48 0 -202 -75 -284 -137 l-45 -35 -3 173 c-1 94 -1 174 2
176 2 2 34 11 70 18 77 16 176 62 226 103 l34 29 -31 32 c-40 39 -66 39 -152
1 -37 -16 -86 -32 -109 -36 l-41 -6 4 53 c3 30 10 149 16 264 6 116 13 213 15
217 8 13 -24 76 -44 87 -31 17 -98 13 -117 -6z"/>
<path d="M1898 2183 c-23 -6 -23 -42 -1 -88 16 -33 16 -48 0 -253 -24 -298
-37 -585 -37 -849 0 -245 7 -285 70 -371 64 -89 160 -121 385 -129 172 -6 275
6 408 47 65 20 69 23 88 67 40 93 41 250 4 340 -15 35 -44 44 -63 21 -11 -14
-37 -141 -50 -243 l-7 -60 -72 -16 c-163 -38 -314 -34 -481 14 l-77 22 -33 68
c-40 81 -72 224 -72 322 0 66 8 186 31 480 5 72 19 193 31 270 28 189 32 264
16 294 -25 47 -92 78 -140 64z"/>
</g>
</svg>
