<?xml version="1.0" standalone="no"?>
<!DOCTYPE svg PUBLIC "-//W3C//DTD SVG 20010904//EN"
 "http://www.w3.org/TR/2001/REC-SVG-20010904/DTD/svg10.dtd">
<svg version="1.0" xmlns="http://www.w3.org/2000/svg"
 width="340.000000pt" height="340.000000pt" viewBox="0 0 340.000000 340.000000"
 preserveAspectRatio="xMidYMid meet">
<metadata>
Created by potrace 1.15, written by Peter Selinger 2001-2017
</metadata>
<g transform="translate(0.000000,340.000000) scale(0.100000,-0.100000)"
fill="#000000" stroke="none">
<path d="M1990 2440 c-15 -28 -5 -54 33 -86 54 -45 58 -81 65 -634 7 -502 -1
-1299 -13 -1378 -10 -60 1 -103 35 -142 l30 -35 34 38 c52 58 62 109 48 246
-18 176 -36 751 -28 884 l8 117 52 -30 c28 -17 82 -47 120 -68 37 -20 120 -68
183 -105 124 -74 166 -87 198 -64 30 23 27 91 -4 114 -63 47 -149 94 -205 112
-63 21 -276 61 -325 61 l-28 0 5 448 4 447 -24 35 c-31 45 -61 60 -125 60 -42
0 -54 -4 -63 -20z"/>
<path d="M1201 2438 c-43 -23 -46 -40 -23 -112 20 -59 22 -88 22 -269 0 -111
-3 -212 -6 -223 -5 -18 -40 -34 -182 -87 -98 -35 -214 -77 -259 -92 -86 -28
-103 -39 -84 -58 18 -18 248 19 391 62 l125 38 8 -26 c8 -26 0 -367 -9 -407
-4 -15 -47 -45 -137 -96 -215 -123 -322 -178 -348 -178 -13 0 -43 -9 -67 -20
-40 -18 -41 -20 -30 -45 15 -33 67 -65 106 -65 49 0 145 34 198 70 27 19 100
72 163 118 l114 84 -7 -293 c-7 -341 -12 -383 -35 -373 -58 24 -91 9 -91 -43
0 -64 117 -170 175 -158 16 3 39 14 50 26 19 19 20 35 23 469 l3 449 42 31
c52 38 177 160 177 173 0 19 -86 -4 -142 -38 -94 -58 -92 -60 -84 119 3 85 9
175 12 200 6 44 8 46 38 46 76 0 205 50 271 104 l30 24 -24 26 c-35 37 -79 42
-137 17 -50 -23 -164 -55 -170 -48 -2 2 1 91 7 198 15 259 11 322 -21 353 -32
31 -68 40 -99 24z"/>
</g>
</svg>
