<?xml version="1.0" standalone="no"?>
<!DOCTYPE svg PUBLIC "-//W3C//DTD SVG 20010904//EN"
 "http://www.w3.org/TR/2001/REC-SVG-20010904/DTD/svg10.dtd">
<svg version="1.0" xmlns="http://www.w3.org/2000/svg"
 width="340.000000pt" height="340.000000pt" viewBox="0 0 340.000000 340.000000"
 preserveAspectRatio="xMidYMid meet">
<metadata>
Created by potrace 1.15, written by Peter Selinger 2001-2017
</metadata>
<g transform="translate(0.000000,340.000000) scale(0.100000,-0.100000)"
fill="#000000" stroke="none">
<path d="M998 2365 c-39 -22 -46 -59 -19 -95 20 -28 21 -41 21 -239 l0 -209
-77 -33 c-43 -18 -116 -44 -163 -59 -91 -29 -112 -51 -66 -71 20 -9 50 -6 160
18 l135 29 7 -44 c7 -45 -3 -298 -13 -339 -6 -28 -171 -151 -359 -270 -111
-70 -143 -85 -180 -87 -50 -3 -66 -17 -62 -56 7 -61 127 -91 206 -51 20 10
110 82 200 159 89 78 167 144 174 148 18 11 -7 -664 -25 -682 -2 -2 -26 9 -55
23 -49 24 -54 25 -70 10 -29 -30 -20 -77 29 -147 48 -69 82 -95 140 -105 83
-15 92 35 93 567 l1 417 51 53 c29 29 59 68 68 86 l17 33 -28 -7 c-15 -3 -41
-10 -57 -15 -16 -5 -31 -9 -34 -9 -5 0 6 240 15 312 5 46 7 48 47 59 80 22
143 66 172 121 14 27 14 27 -25 39 -45 13 -91 7 -144 -20 l-37 -19 0 67 c1 36
5 136 10 221 9 153 9 155 -14 178 -28 29 -83 37 -118 17z"/>
<path d="M1822 2161 c3 -24 164 -196 542 -577 237 -240 265 -265 328 -294 76
-35 190 -49 282 -36 43 7 46 9 46 36 0 38 -32 67 -83 75 -22 4 -88 32 -146 63
-206 107 -374 238 -642 497 -163 158 -249 227 -312 251 -15 5 -18 3 -15 -15z"/>
<path d="M1605 1830 c-14 -27 -25 -55 -25 -63 0 -18 -104 -174 -175 -262 -30
-38 -90 -106 -133 -150 -75 -78 -112 -123 -112 -137 0 -4 9 -12 21 -18 18 -10
31 -4 97 47 169 128 427 414 453 503 19 64 -20 130 -78 130 -17 0 -29 -12 -48
-50z"/>
<path d="M2065 1353 c-150 -33 -290 -70 -378 -99 -70 -24 -120 -35 -140 -31
-42 6 -57 0 -57 -24 0 -49 137 -74 236 -44 27 8 55 15 62 15 64 0 -127 -350
-337 -619 -83 -105 -98 -144 -62 -154 15 -3 47 23 128 107 129 131 197 214
287 352 88 136 127 220 133 294 l6 60 41 11 c41 11 185 7 219 -6 14 -6 17 -20
17 -81 0 -100 -22 -203 -77 -354 -50 -140 -176 -410 -192 -410 -5 0 -34 23
-64 50 -54 49 -70 56 -101 44 -39 -15 8 -167 71 -226 51 -48 133 -64 159 -31
72 93 91 131 216 436 51 126 94 297 114 455 l16 123 -29 47 c-39 65 -95 92
-183 91 -36 -1 -74 -3 -85 -6z"/>
</g>
</svg>
