<?xml version="1.0" standalone="no"?>
<!DOCTYPE svg PUBLIC "-//W3C//DTD SVG 20010904//EN"
 "http://www.w3.org/TR/2001/REC-SVG-20010904/DTD/svg10.dtd">
<svg version="1.0" xmlns="http://www.w3.org/2000/svg"
 width="340.000000pt" height="340.000000pt" viewBox="0 0 340.000000 340.000000"
 preserveAspectRatio="xMidYMid meet">
<metadata>
Created by potrace 1.15, written by Peter Selinger 2001-2017
</metadata>
<g transform="translate(0.000000,340.000000) scale(0.100000,-0.100000)"
fill="#000000" stroke="none">
<path d="M1408 2330 c-236 -93 -282 -108 -304 -100 -30 12 -111 13 -118 2 -10
-17 34 -92 66 -112 47 -29 123 -27 179 5 104 58 179 94 245 118 77 28 223 61
232 53 8 -8 -39 -65 -121 -148 -71 -71 -147 -191 -147 -233 0 -19 -3 -19 -42
5 -19 12 -51 20 -76 20 l-43 0 15 -28 c8 -16 35 -51 61 -80 52 -58 56 -89 15
-109 -14 -6 -70 -23 -124 -37 -55 -14 -101 -28 -104 -31 -3 -2 1 -11 8 -20 14
-17 67 -19 155 -5 33 5 82 10 110 12 l50 2 17 -54 c9 -30 17 -62 17 -71 1 -11
-40 -30 -138 -67 -77 -29 -143 -52 -148 -52 -4 0 -24 16 -44 36 -28 27 -48 37
-81 41 -54 6 -90 -11 -200 -94 -127 -96 -208 -141 -246 -135 -18 2 -39 -1 -47
-8 -68 -57 110 -108 210 -61 22 11 62 38 90 61 53 45 103 73 147 84 27 6 27 5
21 -26 -42 -223 -147 -421 -326 -616 -37 -39 -67 -79 -67 -87 0 -8 9 -19 20
-25 17 -9 29 -4 78 33 134 104 285 292 352 441 27 59 33 65 50 56 38 -20 307
-3 338 23 24 19 35 -10 40 -105 9 -171 -27 -432 -83 -603 -15 -44 -28 -82 -31
-84 -2 -2 -36 17 -75 43 -39 26 -86 50 -105 53 -33 5 -34 5 -34 -28 0 -71 89
-181 183 -228 47 -23 61 -19 119 37 45 43 49 55 87 247 41 203 53 339 49 533
l-3 162 55 16 c37 11 67 28 94 55 52 53 41 64 -69 64 -95 0 -95 0 -95 88 0 43
3 48 28 57 15 6 38 16 51 24 30 17 69 81 58 93 -5 4 -44 8 -88 8 l-79 0 -11
52 c-15 64 -8 83 28 83 35 0 142 50 167 78 18 20 18 21 -8 46 -27 28 -66 33
-113 15 -55 -21 -136 -40 -143 -32 -44 53 -71 96 -64 102 5 4 44 34 87 65 98
74 264 222 300 270 37 47 45 97 23 132 -22 32 -110 74 -156 73 -20 0 -155 -47
-312 -109z m112 -955 c21 -26 25 -109 6 -128 -35 -35 -357 -119 -356 -93 1 6
11 54 23 106 l23 95 80 7 c43 4 97 11 119 16 60 15 91 14 105 -3z"/>
<path d="M2207 1873 c-12 -12 -7 -67 8 -97 l16 -30 -168 -162 c-155 -149 -169
-160 -188 -148 -27 19 -45 17 -45 -4 0 -17 173 -281 330 -502 212 -300 263
-356 353 -387 104 -35 270 -9 283 44 9 33 -13 53 -68 63 -166 31 -338 150
-460 317 -87 118 -208 271 -268 336 l-50 55 112 83 c179 132 315 253 321 284
7 38 -9 88 -35 112 -33 30 -124 53 -141 36z"/>
</g>
</svg>
