<?xml version="1.0" standalone="no"?>
<!DOCTYPE svg PUBLIC "-//W3C//DTD SVG 20010904//EN"
 "http://www.w3.org/TR/2001/REC-SVG-20010904/DTD/svg10.dtd">
<svg version="1.0" xmlns="http://www.w3.org/2000/svg"
 width="340.000000pt" height="340.000000pt" viewBox="0 0 340.000000 340.000000"
 preserveAspectRatio="xMidYMid meet">
<metadata>
Created by potrace 1.15, written by Peter Selinger 2001-2017
</metadata>
<g transform="translate(0.000000,340.000000) scale(0.100000,-0.100000)"
fill="#000000" stroke="none">
<path d="M1090 2387 c-33 -17 -37 -52 -10 -100 22 -38 22 -46 18 -278 -2 -131
-7 -241 -10 -245 -4 -3 -105 -40 -225 -81 -119 -40 -219 -75 -221 -78 -2 -2 6
-13 17 -24 15 -15 34 -21 67 -21 48 0 198 35 298 70 33 11 61 18 64 16 2 -3 5
-96 5 -208 2 -187 0 -206 -18 -236 -30 -50 -404 -321 -499 -361 -25 -11 -49
-27 -52 -36 -4 -9 6 -33 20 -55 29 -45 35 -45 129 -8 79 30 152 82 277 198 65
61 121 110 124 110 8 0 8 -274 -1 -499 l-6 -182 -28 30 c-32 35 -71 48 -104
33 -22 -10 -23 -14 -13 -49 18 -65 45 -109 99 -157 39 -35 59 -46 84 -46 40 0
82 32 92 70 5 17 5 116 1 222 -4 106 -4 302 -1 435 l6 242 54 43 c45 36 121
121 146 165 16 26 -152 -40 -168 -67 -3 -5 -13 -10 -21 -10 -12 0 -14 29 -13
178 2 240 -1 232 77 248 71 15 132 47 175 92 l28 29 -27 22 c-37 29 -96 28
-151 -5 -24 -14 -54 -24 -66 -22 -25 3 -25 -15 -12 289 4 108 5 208 1 223 -7
29 -59 66 -91 66 -11 0 -31 -6 -45 -13z"/>
<path d="M2045 2361 c-110 -34 -171 -59 -273 -110 l-79 -40 -29 20 c-34 22
-82 25 -108 6 -17 -12 -17 -16 -3 -43 8 -16 29 -69 47 -118 30 -81 32 -96 26
-162 -10 -104 -30 -178 -77 -270 -50 -102 -51 -147 -4 -152 27 -3 36 4 74 55
53 72 94 151 117 229 23 76 24 254 2 336 l-16 58 36 9 c92 25 343 72 350 67 1
-2 -8 -77 -20 -167 -12 -90 -21 -190 -21 -222 2 -75 33 -140 87 -179 70 -51
104 -61 201 -62 81 -1 96 2 150 29 69 35 83 67 45 105 -19 19 -29 21 -78 16
-205 -21 -188 -22 -227 17 -32 32 -35 40 -35 91 0 78 19 242 40 344 20 100 13
130 -40 157 -39 20 -60 19 -165 -14z"/>
<path d="M2200 1469 c-292 -91 -559 -189 -580 -214 -10 -12 -7 -17 16 -25 22
-9 76 -1 290 45 145 30 270 55 279 55 12 0 15 -6 9 -22 -21 -69 -88 -206 -144
-295 l-64 -102 -40 34 c-135 116 -316 204 -418 205 -41 0 -38 -34 4 -51 50
-20 204 -124 301 -202 l88 -71 -83 -83 c-108 -109 -210 -190 -361 -285 -85
-54 -127 -86 -139 -109 -10 -18 -16 -35 -13 -37 8 -8 141 41 215 79 93 48 199
127 347 259 l114 102 166 -159 c204 -195 243 -228 315 -264 84 -42 160 -59
268 -59 114 0 136 10 126 57 -7 29 -13 33 -137 73 -247 80 -386 162 -562 330
l-111 107 71 109 c78 120 172 287 209 370 62 141 -5 203 -166 153z"/>
</g>
</svg>
