<?xml version="1.0" standalone="no"?>
<!DOCTYPE svg PUBLIC "-//W3C//DTD SVG 20010904//EN"
 "http://www.w3.org/TR/2001/REC-SVG-20010904/DTD/svg10.dtd">
<svg version="1.0" xmlns="http://www.w3.org/2000/svg"
 width="340.000000pt" height="340.000000pt" viewBox="0 0 340.000000 340.000000"
 preserveAspectRatio="xMidYMid meet">
<metadata>
Created by potrace 1.15, written by Peter Selinger 2001-2017
</metadata>
<g transform="translate(0.000000,340.000000) scale(0.100000,-0.100000)"
fill="#000000" stroke="none">
<path d="M1094 2410 c-44 -17 -40 -43 15 -98 44 -43 52 -90 49 -279 l-3 -168
-124 -56 c-67 -31 -173 -73 -235 -94 -134 -45 -143 -51 -119 -78 16 -17 27
-19 89 -13 86 7 214 46 308 93 55 28 71 32 78 21 11 -16 0 -365 -12 -388 -10
-20 -259 -232 -398 -340 -88 -68 -109 -80 -142 -80 -48 0 -64 -19 -56 -65 5
-26 14 -39 32 -45 41 -16 112 -11 152 9 20 11 120 101 222 200 212 207 197
205 199 25 1 -120 -17 -516 -24 -523 -3 -2 -10 1 -18 7 -7 6 -32 15 -54 20
-42 10 -42 9 -53 -24 -17 -52 2 -94 71 -158 74 -68 112 -75 153 -25 l26 31 0
463 c0 370 3 469 14 496 28 69 29 79 8 79 -17 0 -20 10 -26 98 -6 93 4 248 18
270 3 6 21 14 39 17 37 8 131 56 166 86 20 16 23 24 14 37 -24 39 -76 40 -170
1 -49 -20 -57 -6 -42 76 13 78 7 266 -12 334 -19 67 -94 100 -165 71z"/>
<path d="M2136 2374 c-11 -30 -6 -69 14 -102 24 -39 35 -119 50 -352 12 -199
13 -517 2 -524 -5 -3 -64 -17 -133 -31 -173 -35 -368 -88 -512 -137 -67 -23
-144 -44 -172 -47 -41 -5 -50 -9 -50 -26 0 -19 6 -20 95 -19 115 2 217 21 387
74 116 37 341 90 378 90 13 0 15 -24 15 -147 0 -252 22 -916 31 -940 6 -15 17
-23 33 -23 22 0 25 6 36 72 7 45 15 258 19 561 5 331 11 491 19 499 7 7 96 13
249 16 159 3 240 8 245 16 15 23 8 73 -13 92 -19 17 -37 19 -143 18 -66 0
-172 -9 -234 -19 -62 -9 -116 -15 -119 -12 -3 4 -9 129 -14 279 -16 538 -19
593 -40 627 -10 17 -31 36 -45 41 -40 15 -91 12 -98 -6z"/>
<path d="M1707 1969 c-17 -10 -24 -39 -8 -39 5 0 36 -24 69 -54 58 -52 147
-96 192 -96 17 0 20 7 20 40 0 83 -53 131 -160 145 -25 3 -56 8 -70 10 -14 2
-33 -1 -43 -6z"/>
<path d="M1552 1651 c-8 -4 -12 -19 -10 -32 4 -29 110 -112 210 -164 l66 -35
31 26 c17 14 31 33 31 43 0 48 -84 109 -203 146 -84 27 -104 29 -125 16z"/>
</g>
</svg>
