<?xml version="1.0" standalone="no"?>
<!DOCTYPE svg PUBLIC "-//W3C//DTD SVG 20010904//EN"
 "http://www.w3.org/TR/2001/REC-SVG-20010904/DTD/svg10.dtd">
<svg version="1.0" xmlns="http://www.w3.org/2000/svg"
 width="340.000000pt" height="340.000000pt" viewBox="0 0 340.000000 340.000000"
 preserveAspectRatio="xMidYMid meet">
<metadata>
Created by potrace 1.15, written by Peter Selinger 2001-2017
</metadata>
<g transform="translate(0.000000,340.000000) scale(0.100000,-0.100000)"
fill="#000000" stroke="none">
<path d="M1052 2400 c-27 -25 -27 -36 -2 -78 18 -30 20 -50 20 -251 l0 -219
-215 -86 c-118 -47 -223 -86 -233 -86 -21 0 -42 -19 -42 -38 0 -11 12 -13 63
-7 94 10 268 50 336 78 86 35 93 26 87 -102 -3 -53 -8 -161 -11 -241 l-6 -145
-47 -49 c-61 -63 -226 -205 -329 -284 -72 -55 -87 -62 -127 -62 -68 0 -98 -17
-94 -54 6 -65 139 -102 217 -62 19 10 110 94 203 187 93 93 172 169 175 169 6
0 -6 -711 -13 -722 -3 -4 -20 0 -39 8 -35 14 -58 11 -87 -14 -16 -13 -16 -17
-1 -46 32 -63 112 -126 162 -126 22 0 80 62 82 88 1 9 1 216 -1 459 l-2 441
64 75 c62 73 125 173 115 183 -7 8 -86 -34 -128 -67 -20 -16 -39 -26 -43 -22
-8 8 -8 322 0 390 7 52 7 53 48 63 66 17 123 47 171 91 25 23 45 45 45 50 0
12 -55 39 -81 39 -12 0 -46 -12 -74 -27 -81 -40 -89 -32 -82 80 4 50 10 151
13 224 l7 131 -26 26 c-33 33 -93 36 -125 6z"/>
<path d="M2480 2193 c-112 -19 -595 -119 -713 -147 -82 -20 -163 -36 -180 -36
-18 0 -38 -4 -46 -9 -13 -8 -13 -12 -1 -26 13 -16 32 -17 170 -12 121 5 193
13 330 41 96 20 256 45 355 57 210 24 265 42 265 87 0 15 -5 33 -12 40 -12 12
-112 15 -168 5z"/>
<path d="M1570 1855 c-9 -29 -9 -46 4 -88 22 -73 36 -283 36 -541 0 -277 -13
-466 -44 -626 -38 -196 -40 -227 -17 -239 35 -19 72 -13 101 19 31 33 60 41
250 70 206 32 478 45 681 32 96 -6 187 -16 203 -21 67 -26 175 -1 193 45 9 23
-34 61 -96 85 -53 20 -68 21 -301 15 -367 -8 -637 -38 -795 -87 -49 -15 -91
-26 -94 -24 -2 3 1 136 7 297 7 161 17 444 23 629 11 329 11 337 -9 382 -22
49 -69 87 -109 87 -16 0 -25 -9 -33 -35z"/>
<path d="M2304 1852 c-8 -4 -12 -39 -11 -97 2 -83 -1 -95 -30 -151 -17 -34
-44 -82 -60 -108 l-29 -46 -35 36 c-54 56 -128 109 -206 148 -86 44 -97 45
-89 10 4 -15 64 -81 146 -161 l140 -135 -41 -56 c-90 -124 -249 -382 -249
-404 0 -4 9 -8 19 -8 24 0 112 95 237 257 53 67 99 125 104 128 9 6 156 -176
266 -328 53 -73 76 -98 98 -103 34 -7 56 14 56 54 0 43 -148 253 -275 390 -50
54 -68 81 -68 101 0 17 23 62 60 118 62 92 123 231 123 278 0 16 -12 38 -29
56 -24 23 -38 29 -73 29 -24 0 -48 -4 -54 -8z"/>
</g>
</svg>
