<?xml version="1.0" standalone="no"?>
<!DOCTYPE svg PUBLIC "-//W3C//DTD SVG 20010904//EN"
 "http://www.w3.org/TR/2001/REC-SVG-20010904/DTD/svg10.dtd">
<svg version="1.0" xmlns="http://www.w3.org/2000/svg"
 width="340.000000pt" height="340.000000pt" viewBox="0 0 340.000000 340.000000"
 preserveAspectRatio="xMidYMid meet">
<metadata>
Created by potrace 1.15, written by Peter Selinger 2001-2017
</metadata>
<g transform="translate(0.000000,340.000000) scale(0.100000,-0.100000)"
fill="#000000" stroke="none">
<path d="M1008 2469 c-25 -14 -22 -42 7 -77 45 -53 47 -72 40 -318 l-8 -230
-51 -18 c-28 -10 -128 -47 -223 -82 -94 -35 -183 -64 -197 -64 -29 0 -33 -15
-11 -45 13 -17 27 -19 103 -19 82 0 95 4 230 57 79 31 145 57 148 57 2 0 4
-87 4 -194 l0 -195 -112 -99 c-255 -223 -389 -332 -411 -332 -27 0 -87 -17
-107 -30 -12 -8 -10 -14 14 -39 39 -41 105 -65 153 -58 32 6 67 36 249 218
l212 212 7 -79 c9 -95 0 -440 -16 -615 l-12 -127 -51 2 -51 1 -3 -38 c-3 -34
2 -44 41 -83 37 -37 51 -44 83 -44 22 0 53 9 70 19 27 17 32 26 37 77 3 33 3
265 0 517 l-6 457 65 68 c60 62 145 179 136 187 -9 9 -109 -46 -146 -79 -22
-20 -43 -36 -47 -36 -8 0 0 318 8 326 2 2 30 11 61 19 67 18 122 44 165 81 30
25 31 27 15 45 -30 33 -77 34 -149 3 -96 -40 -98 -37 -85 147 6 79 15 180 21
224 11 75 10 84 -10 123 -12 23 -34 48 -51 57 -33 17 -96 19 -122 4z"/>
<path d="M2260 2099 c-47 -10 -194 -44 -327 -75 l-241 -57 -27 22 c-29 22 -60
27 -84 12 -11 -7 -12 -18 -4 -58 6 -26 45 -216 86 -421 42 -205 81 -380 87
-387 25 -30 86 -39 168 -27 42 6 133 16 202 22 186 17 324 36 350 50 16 9 21
18 17 37 -3 14 21 130 53 257 102 405 105 423 86 489 -21 73 -68 121 -138 142
-66 19 -122 18 -228 -6z m188 -130 c27 -11 42 -24 42 -36 0 -31 -40 -370 -50
-426 -6 -28 -22 -97 -37 -153 l-27 -101 -123 -7 c-128 -7 -314 -35 -395 -60
l-47 -15 -5 42 c-10 77 -26 260 -26 299 l0 38 49 0 c69 0 212 26 309 56 80 26
82 27 68 48 -12 18 -23 21 -87 20 -60 -1 -203 -27 -324 -60 -19 -5 -22 6 -47
143 -15 81 -25 149 -23 151 2 2 45 10 97 17 51 7 122 18 158 25 138 26 337 48
380 43 25 -3 64 -13 88 -24z"/>
<path d="M2390 864 c-207 -17 -548 -57 -750 -88 -85 -13 -197 -29 -247 -36
-67 -9 -93 -17 -93 -27 0 -22 49 -62 84 -68 17 -4 184 14 371 39 433 57 668
72 930 56 232 -13 251 -9 249 54 -1 20 -6 42 -12 48 -37 37 -245 46 -532 22z"/>
</g>
</svg>
