<?xml version="1.0" standalone="no"?>
<!DOCTYPE svg PUBLIC "-//W3C//DTD SVG 20010904//EN"
 "http://www.w3.org/TR/2001/REC-SVG-20010904/DTD/svg10.dtd">
<svg version="1.0" xmlns="http://www.w3.org/2000/svg"
 width="340.000000pt" height="340.000000pt" viewBox="0 0 340.000000 340.000000"
 preserveAspectRatio="xMidYMid meet">
<metadata>
Created by potrace 1.15, written by Peter Selinger 2001-2017
</metadata>
<g transform="translate(0.000000,340.000000) scale(0.100000,-0.100000)"
fill="#000000" stroke="none">
<path d="M1083 2500 c-37 -22 -43 -46 -13 -55 11 -3 29 -18 40 -32 19 -24 20
-40 20 -258 l0 -233 -152 -65 c-84 -35 -188 -77 -230 -93 -52 -19 -78 -34 -78
-44 0 -25 21 -40 56 -40 32 0 260 72 349 110 26 11 49 20 51 20 2 0 4 -89 4
-199 l0 -198 -102 -91 c-184 -162 -348 -276 -415 -287 -52 -8 -76 -33 -67 -70
13 -53 129 -73 202 -36 20 11 114 91 207 179 l170 160 3 -196 c2 -126 -3 -250
-13 -345 -8 -81 -15 -163 -15 -182 0 -19 -3 -35 -6 -35 -3 0 -19 11 -36 25
-37 32 -99 37 -125 11 -30 -28 63 -155 147 -200 l52 -28 26 19 c15 11 38 41
51 67 l24 47 -2 465 -2 464 39 45 c37 42 88 132 80 141 -2 2 -28 -8 -57 -21
-29 -14 -57 -25 -62 -25 -5 0 -7 33 -4 73 3 39 8 115 11 168 l6 97 44 6 c25 3
68 17 97 31 54 25 137 89 137 105 0 19 -45 50 -72 50 -16 0 -54 -13 -86 -29
-31 -16 -72 -32 -91 -36 l-34 -7 7 63 c3 35 9 145 13 244 l6 181 -32 27 c-40
33 -101 36 -148 7z"/>
<path d="M2227 2453 c-15 -14 -6 -62 17 -86 28 -31 37 -23 -109 -110 -60 -36
-168 -104 -240 -151 -127 -83 -130 -85 -145 -65 -27 35 -74 59 -114 59 -45 0
-46 6 12 -125 67 -155 95 -305 96 -515 0 -119 -5 -181 -22 -265 -39 -198 -109
-375 -186 -469 -43 -53 -104 -161 -120 -213 -7 -21 -4 -23 25 -23 25 0 41 10
71 41 96 101 228 335 281 500 44 133 77 338 77 475 l0 61 83 17 c45 9 119 25
164 35 l81 18 12 -64 c19 -113 31 -285 24 -356 -6 -64 -8 -68 -28 -62 -39 12
-166 18 -166 8 0 -18 36 -43 84 -57 26 -8 62 -25 80 -37 l33 -22 6 -276 c4
-152 7 -334 8 -406 0 -152 12 -200 49 -200 20 0 25 6 31 35 16 75 29 276 35
525 3 143 8 262 10 264 12 13 219 -98 312 -168 47 -34 57 -38 84 -31 16 5 36
14 44 21 66 54 -113 196 -361 285 l-90 32 -3 173 c-1 96 -6 215 -11 264 -5 50
-8 91 -7 93 7 6 212 42 331 56 116 15 132 19 153 42 28 32 25 44 -14 64 -38
20 -184 11 -320 -18 -49 -11 -144 -31 -211 -46 -104 -23 -353 -91 -404 -111
-14 -5 -17 5 -23 66 -4 40 -18 115 -32 168 -13 52 -23 96 -21 97 1 1 49 23
107 49 184 82 497 245 523 273 58 61 36 120 -55 147 -53 15 -139 20 -151 8z"/>
</g>
</svg>
