<?xml version="1.0" standalone="no"?>
<!DOCTYPE svg PUBLIC "-//W3C//DTD SVG 20010904//EN"
 "http://www.w3.org/TR/2001/REC-SVG-20010904/DTD/svg10.dtd">
<svg version="1.0" xmlns="http://www.w3.org/2000/svg"
 width="340.000000pt" height="340.000000pt" viewBox="0 0 340.000000 340.000000"
 preserveAspectRatio="xMidYMid meet">
<metadata>
Created by potrace 1.15, written by Peter Selinger 2001-2017
</metadata>
<g transform="translate(0.000000,340.000000) scale(0.100000,-0.100000)"
fill="#000000" stroke="none">
<path d="M1077 2410 c-34 -27 -35 -59 -2 -98 l25 -30 -2 -254 -3 -253 -85 -42
c-47 -23 -149 -68 -227 -99 -79 -32 -143 -61 -143 -66 0 -4 11 -15 25 -24 34
-22 65 -16 256 52 88 31 163 54 167 50 4 -4 7 -102 7 -218 l0 -210 -45 -39
c-261 -230 -453 -370 -531 -387 -72 -17 -94 -34 -80 -60 35 -65 110 -79 199
-37 87 40 140 83 295 234 l147 144 1 -84 c1 -190 -2 -391 -7 -511 l-7 -127
-27 20 c-19 14 -39 19 -66 17 -39 -3 -39 -3 -37 -42 4 -56 41 -116 95 -153 44
-29 51 -30 84 -20 19 6 47 24 61 41 25 30 25 32 17 136 -4 58 -7 271 -6 473
l2 368 39 49 c39 49 58 87 48 96 -3 3 -24 0 -46 -7 -23 -7 -43 -10 -46 -8 -7
7 15 363 23 370 4 3 30 11 57 18 61 15 148 65 182 106 l25 29 -26 23 c-40 34
-90 31 -156 -12 -30 -19 -59 -34 -65 -32 -5 2 -9 21 -8 43 1 21 5 141 9 265
l7 225 -29 33 c-39 42 -89 51 -127 21z"/>
<path d="M1883 2243 c-28 -11 -10 -41 55 -92 37 -29 94 -67 128 -84 69 -34
104 -32 130 8 14 22 14 26 -1 53 -45 76 -235 147 -312 115z"/>
<path d="M2515 1884 c-248 -51 -477 -101 -655 -144 -113 -26 -243 -55 -289
-63 -46 -9 -86 -18 -89 -21 -11 -11 30 -44 63 -50 21 -4 104 7 222 28 320 60
669 116 719 116 68 0 120 19 166 60 l41 36 -32 27 c-36 30 -47 31 -146 11z"/>
<path d="M2350 1560 c-11 -25 -9 -35 10 -76 22 -45 22 -47 6 -106 -54 -193
-188 -460 -356 -709 l-38 -55 -104 -12 c-132 -16 -411 -75 -486 -103 -20 -8
-21 -12 -11 -30 11 -21 16 -21 153 -16 81 3 185 14 244 26 188 37 365 53 602
54 208 1 231 -1 298 -22 93 -30 225 -28 248 4 22 30 18 82 -8 99 -51 33 -296
52 -453 36 -106 -12 -347 -28 -353 -24 -2 1 24 39 56 85 174 244 362 624 362
731 0 56 -29 102 -79 128 -56 28 -76 26 -91 -10z"/>
<path d="M1696 1374 c-28 -74 54 -301 139 -384 l34 -33 30 31 c17 17 31 40 31
51 0 27 -52 161 -84 215 -24 41 -119 136 -136 136 -4 0 -11 -7 -14 -16z"/>
</g>
</svg>
