<?xml version="1.0" standalone="no"?>
<!DOCTYPE svg PUBLIC "-//W3C//DTD SVG 20010904//EN"
 "http://www.w3.org/TR/2001/REC-SVG-20010904/DTD/svg10.dtd">
<svg version="1.0" xmlns="http://www.w3.org/2000/svg"
 width="340.000000pt" height="340.000000pt" viewBox="0 0 340.000000 340.000000"
 preserveAspectRatio="xMidYMid meet">
<metadata>
Created by potrace 1.15, written by Peter Selinger 2001-2017
</metadata>
<g transform="translate(0.000000,340.000000) scale(0.100000,-0.100000)"
fill="#000000" stroke="none">
<path d="M1182 2334 c-45 -18 -48 -36 -23 -113 23 -70 26 -159 12 -379 l-6
-103 -170 -70 c-93 -39 -182 -75 -197 -81 -24 -8 -26 -13 -17 -29 21 -39 51
-43 141 -19 73 19 178 54 231 75 16 7 17 -7 17 -199 l0 -206 -42 -31 c-62 -45
-375 -251 -430 -283 -26 -15 -50 -36 -53 -47 -7 -22 14 -53 48 -71 43 -23 173
52 342 198 154 132 138 154 132 -183 -3 -158 -9 -303 -13 -320 l-6 -33 -30 25
c-37 32 -53 31 -74 -1 -16 -24 -16 -29 0 -80 18 -57 108 -167 147 -179 26 -8
63 24 91 79 21 41 21 78 2 232 l-6 52 179 178 c98 99 216 227 263 286 46 60
88 104 92 100 24 -24 99 -392 122 -606 11 -102 18 -133 34 -148 28 -29 57 -11
66 40 11 70 10 70 311 77 149 4 285 11 303 17 36 11 52 33 52 73 0 20 -8 29
-35 41 -19 7 -46 14 -60 14 -14 0 -25 4 -25 10 0 5 28 69 61 142 140 301 171
381 171 432 0 84 -47 126 -142 126 -90 0 -417 -68 -677 -142 -56 -16 -97 -2
-101 32 -2 18 18 54 68 124 97 136 159 241 233 393 56 116 61 133 59 185 l-2
57 37 11 c21 6 110 22 198 36 197 31 233 42 259 77 19 26 19 30 5 55 -8 15
-25 28 -37 30 -12 2 -97 -15 -190 -38 -263 -65 -680 -151 -754 -155 -66 -4
-111 -21 -105 -40 12 -35 239 -43 341 -11 47 14 49 14 72 -9 19 -19 24 -35 24
-72 0 -41 -14 -75 -88 -218 -108 -209 -196 -345 -223 -345 -16 0 -19 -6 -17
-34 2 -29 -18 -58 -168 -247 -94 -118 -201 -254 -239 -302 -60 -78 -69 -87
-78 -70 -7 11 -11 112 -11 256 l-1 238 35 26 c53 40 132 122 169 177 32 46 32
48 10 41 -51 -15 -132 -56 -169 -85 l-38 -30 -8 77 c-6 74 0 257 11 285 3 7
33 21 67 31 73 22 128 53 181 101 32 29 37 38 28 54 -14 26 -65 46 -96 38 -14
-4 -46 -20 -72 -36 -26 -17 -60 -30 -76 -30 l-30 0 7 85 c3 47 9 152 12 233 6
140 5 148 -15 174 -30 37 -70 49 -109 32z m1444 -1129 c7 -19 -8 -82 -87 -366
l-61 -216 -101 -6 c-56 -4 -151 -18 -211 -32 -60 -13 -112 -23 -116 -20 -4 2
-10 35 -14 72 -9 88 -51 318 -77 412 -11 40 -18 76 -15 78 2 2 109 20 238 38
128 19 256 38 283 43 82 16 155 14 161 -3z"/>
</g>
</svg>
