<?xml version="1.0" standalone="no"?>
<!DOCTYPE svg PUBLIC "-//W3C//DTD SVG 20010904//EN"
 "http://www.w3.org/TR/2001/REC-SVG-20010904/DTD/svg10.dtd">
<svg version="1.0" xmlns="http://www.w3.org/2000/svg"
 width="340.000000pt" height="340.000000pt" viewBox="0 0 340.000000 340.000000"
 preserveAspectRatio="xMidYMid meet">
<metadata>
Created by potrace 1.15, written by Peter Selinger 2001-2017
</metadata>
<g transform="translate(0.000000,340.000000) scale(0.100000,-0.100000)"
fill="#000000" stroke="none">
<path d="M1240 2337 c-35 -17 -39 -62 -8 -94 23 -24 23 -28 26 -278 l3 -253
-153 -56 c-84 -30 -189 -69 -233 -85 -61 -22 -80 -33 -80 -47 0 -41 115 -27
342 42 62 19 115 34 118 34 3 0 4 -98 3 -217 l-3 -218 -127 -95 c-174 -130
-365 -250 -398 -250 -36 0 -50 -17 -50 -60 0 -72 50 -88 150 -51 57 21 70 32
286 213 70 60 132 108 137 108 14 0 3 -598 -11 -612 -7 -7 -20 1 -41 25 -17
19 -43 38 -56 41 -34 9 -65 -9 -65 -37 0 -39 56 -141 98 -179 62 -56 75 -61
121 -42 48 19 73 54 73 103 0 20 -4 206 -8 413 l-7 378 66 70 c37 38 73 83 82
100 15 28 14 30 -3 30 -11 0 -46 -13 -78 -30 -32 -16 -60 -30 -61 -30 -6 0 -2
317 3 351 6 33 9 36 59 46 72 16 153 56 206 105 l44 40 -24 19 c-34 28 -70 23
-162 -21 -130 -63 -119 -84 -112 228 l6 268 -32 27 c-35 29 -72 34 -111 14z"/>
<path d="M2273 2110 c-156 -31 -288 -66 -402 -105 -41 -14 -90 -25 -108 -25
-59 0 -99 -38 -57 -54 28 -11 157 -6 224 8 87 18 96 13 92 -49 -3 -29 -269
-533 -338 -640 -17 -27 -3 -49 25 -40 57 18 317 380 422 587 25 49 30 70 27
107 -3 25 -8 53 -12 62 -19 43 248 75 374 44 l71 -17 -7 -32 c-20 -90 -186
-531 -209 -554 -2 -3 -20 9 -40 27 -39 34 -68 44 -111 39 -27 -3 -29 -6 -26
-42 6 -71 49 -133 116 -168 48 -25 71 -19 129 33 56 49 88 100 121 194 13 39
44 126 69 195 24 69 55 168 67 221 l22 96 -20 39 c-24 47 -57 79 -95 93 -49
19 -185 11 -334 -19z"/>
<path d="M2385 1099 c-134 -15 -271 -41 -424 -80 -85 -21 -167 -39 -183 -39
-16 0 -51 12 -79 26 -55 27 -86 28 -102 2 -8 -12 -1 -37 30 -105 23 -48 57
-140 76 -203 32 -106 77 -331 77 -386 0 -74 58 -102 84 -39 9 22 23 36 38 39
23 5 77 8 443 26 221 12 249 19 243 68 -2 22 -11 30 -45 42 -24 8 -43 20 -43
26 0 6 25 63 55 125 51 108 145 365 145 400 0 25 -73 86 -117 98 -43 12 -95
12 -198 0z m106 -129 l36 -10 -63 -226 c-42 -151 -70 -234 -84 -249 -18 -19
-35 -23 -131 -29 -61 -3 -156 -16 -212 -27 -56 -12 -114 -23 -128 -26 -26 -5
-26 -4 -33 74 -9 99 -49 300 -76 377 -11 33 -18 61 -17 63 4 3 268 34 442 51
127 13 224 14 266 2z"/>
</g>
</svg>
