<?xml version="1.0" standalone="no"?>
<!DOCTYPE svg PUBLIC "-//W3C//DTD SVG 20010904//EN"
 "http://www.w3.org/TR/2001/REC-SVG-20010904/DTD/svg10.dtd">
<svg version="1.0" xmlns="http://www.w3.org/2000/svg"
 width="340.000000pt" height="340.000000pt" viewBox="0 0 340.000000 340.000000"
 preserveAspectRatio="xMidYMid meet">
<metadata>
Created by potrace 1.15, written by Peter Selinger 2001-2017
</metadata>
<g transform="translate(0.000000,340.000000) scale(0.100000,-0.100000)"
fill="#000000" stroke="none">
<path d="M1002 2354 c-26 -18 -29 -60 -5 -86 22 -25 27 -101 18 -303 l-7 -165
-186 -60 c-103 -33 -196 -60 -207 -60 -34 0 -52 -17 -39 -37 10 -16 26 -18
125 -17 94 1 128 6 192 28 131 44 121 61 115 -189 l-5 -215 -63 -58 c-173
-156 -307 -256 -378 -281 -65 -23 -69 -54 -12 -104 22 -21 47 -37 54 -37 39 0
81 32 229 175 88 86 162 154 164 152 14 -15 -7 -669 -22 -685 -1 -2 -18 5 -38
14 -46 22 -87 13 -87 -19 0 -49 33 -118 77 -162 53 -53 80 -62 122 -41 66 35
64 17 62 544 l-1 477 40 40 c59 58 146 195 124 195 -17 0 -95 -47 -125 -77
l-36 -34 -7 67 c-4 36 -4 122 0 189 l7 123 36 7 c65 12 130 47 171 91 22 24
40 47 40 52 0 11 -68 32 -102 32 -14 0 -47 -11 -74 -25 -29 -15 -52 -21 -58
-15 -5 5 -2 66 8 154 9 79 16 178 16 219 0 72 -1 76 -31 101 -35 30 -83 34
-117 10z"/>
<path d="M2437 1993 c-13 -13 -7 -55 19 -115 31 -75 32 -131 5 -281 -68 -374
-213 -675 -471 -982 -126 -150 -135 -220 -19 -147 122 78 346 409 467 692 96
223 182 540 182 668 0 75 -24 120 -80 149 -42 22 -90 30 -103 16z"/>
<path d="M1840 1764 c0 -19 60 -115 99 -158 14 -16 48 -46 74 -67 55 -44 75
-42 97 10 18 44 -16 110 -84 161 -86 64 -186 93 -186 54z"/>
<path d="M1435 1737 c-4 -13 1 -43 10 -68 39 -106 56 -255 56 -489 0 -182 -12
-321 -41 -474 -18 -94 -19 -100 -2 -128 27 -47 84 -50 130 -8 29 27 179 253
267 400 150 254 153 307 9 157 -86 -88 -143 -159 -220 -276 l-49 -74 -3 94
c-2 52 2 160 7 242 19 261 10 422 -31 560 -22 73 -119 120 -133 64z"/>
<path d="M2410 969 c0 -29 36 -85 96 -150 88 -96 153 -197 200 -309 21 -52 48
-99 62 -111 32 -25 117 -27 126 -3 10 26 7 99 -6 135 -34 101 -228 312 -353
384 -86 50 -125 67 -125 54z"/>
</g>
</svg>
