<?xml version="1.0" standalone="no"?>
<!DOCTYPE svg PUBLIC "-//W3C//DTD SVG 20010904//EN"
 "http://www.w3.org/TR/2001/REC-SVG-20010904/DTD/svg10.dtd">
<svg version="1.0" xmlns="http://www.w3.org/2000/svg"
 width="340.000000pt" height="340.000000pt" viewBox="0 0 340.000000 340.000000"
 preserveAspectRatio="xMidYMid meet">
<metadata>
Created by potrace 1.15, written by Peter Selinger 2001-2017
</metadata>
<g transform="translate(0.000000,340.000000) scale(0.100000,-0.100000)"
fill="#000000" stroke="none">
<path d="M1763 2365 c-40 -17 -44 -50 -12 -86 45 -50 49 -75 38 -238 -14 -222
-51 -472 -73 -490 -6 -5 -71 -33 -144 -63 -73 -30 -134 -59 -134 -64 0 -5 12
-15 27 -23 24 -11 39 -10 126 12 91 23 99 23 99 7 0 -9 -23 -95 -50 -191 -55
-192 -103 -298 -271 -606 -96 -176 -114 -223 -85 -223 18 0 60 48 139 161 148
213 246 424 337 728 l56 184 69 24 c147 50 454 113 553 113 35 0 92 43 92 70
0 10 -12 26 -27 35 -23 16 -35 16 -114 5 -89 -12 -110 -17 -377 -90 -85 -23
-156 -39 -159 -36 -5 5 -2 29 37 296 27 187 37 380 20 419 -22 55 -91 81 -147
56z"/>
<path d="M1041 2327 c-15 -7 -28 -26 -33 -46 -8 -29 -6 -37 16 -60 25 -26 26
-30 26 -168 0 -77 -3 -182 -7 -233 l-6 -93 -81 -37 c-67 -32 -171 -68 -315
-109 -22 -6 -23 -8 -7 -24 38 -38 62 -34 389 59 16 5 17 -8 16 -183 -1 -103
-4 -199 -8 -213 -5 -18 -44 -50 -130 -107 -170 -113 -343 -216 -361 -215 -46
3 -80 -10 -86 -33 -10 -39 12 -63 71 -80 50 -15 60 -15 108 -1 32 9 72 31 98
54 71 62 287 232 295 232 8 0 -3 -580 -12 -652 l-7 -48 -27 20 c-42 30 -82 35
-108 13 l-22 -18 24 -51 c27 -58 82 -107 143 -128 40 -14 44 -13 75 7 18 12
42 40 52 62 18 37 19 47 8 175 -7 74 -12 266 -12 425 l1 290 42 30 c38 27 107
115 107 135 0 13 -66 -6 -106 -29 -20 -12 -39 -19 -42 -16 -9 9 -8 293 1 336
7 34 11 37 68 53 66 18 160 62 198 93 l23 19 -27 18 c-30 20 -56 18 -165 -8
-96 -23 -94 -24 -87 37 3 28 11 136 18 238 13 209 10 222 -56 253 -40 19 -43
19 -74 3z"/>
<path d="M2163 2150 c-13 -5 -23 -13 -23 -19 0 -17 128 -128 174 -150 25 -13
70 -29 99 -37 47 -12 53 -12 65 3 19 26 15 80 -8 103 -20 20 -122 70 -181 88
-56 17 -103 21 -126 12z"/>
<path d="M1930 1440 c-14 -27 -12 -97 5 -154 16 -51 21 -323 7 -358 -4 -9 -27
-31 -52 -49 -25 -17 -60 -46 -79 -63 -34 -32 -116 -145 -109 -151 10 -10 114
37 161 73 70 55 81 54 70 0 -4 -24 -8 -83 -8 -133 0 -101 17 -149 80 -222 44
-52 97 -77 216 -105 138 -32 392 -31 534 3 95 23 101 26 132 67 46 60 67 138
61 226 -6 87 -23 126 -53 126 -34 0 -43 -18 -75 -145 -17 -64 -32 -120 -35
-125 -3 -5 -47 -19 -98 -31 -175 -43 -409 -24 -531 44 -79 43 -122 168 -114
331 l5 99 59 50 c32 28 123 114 202 192 114 113 142 146 142 168 0 51 -68 95
-106 69 -5 -4 -35 -41 -66 -82 -56 -76 -185 -220 -196 -220 -4 0 -7 55 -7 123
-1 102 -4 131 -23 178 -29 73 -41 87 -80 98 -27 8 -34 7 -42 -9z"/>
</g>
</svg>
