<?xml version="1.0" standalone="no"?>
<!DOCTYPE svg PUBLIC "-//W3C//DTD SVG 20010904//EN"
 "http://www.w3.org/TR/2001/REC-SVG-20010904/DTD/svg10.dtd">
<svg version="1.0" xmlns="http://www.w3.org/2000/svg"
 width="340.000000pt" height="340.000000pt" viewBox="0 0 340.000000 340.000000"
 preserveAspectRatio="xMidYMid meet">
<metadata>
Created by potrace 1.15, written by Peter Selinger 2001-2017
</metadata>
<g transform="translate(0.000000,340.000000) scale(0.100000,-0.100000)"
fill="#000000" stroke="none">
<path d="M1862 2508 c-18 -18 -15 -33 14 -75 25 -36 26 -43 20 -126 -6 -89
-37 -258 -60 -325 -12 -35 -18 -39 -92 -64 -43 -15 -116 -32 -161 -39 -84 -12
-89 -15 -75 -36 19 -30 64 -35 164 -17 54 9 101 15 103 12 6 -6 -54 -167 -84
-226 -35 -68 -144 -142 -210 -142 -33 0 -91 -43 -78 -57 11 -10 123 -11 161 0
28 8 29 7 22 -23 -3 -17 -33 -75 -65 -128 -74 -120 -104 -187 -96 -212 10 -31
64 -70 97 -70 17 0 79 22 138 49 111 51 271 106 340 117 l40 7 0 -407 c0 -223
-3 -406 -7 -406 -5 1 -19 7 -33 15 -32 18 -130 20 -130 3 0 -31 51 -118 90
-156 56 -53 91 -68 138 -56 28 7 41 18 54 44 15 32 16 53 7 215 -11 183 -9
769 3 780 12 12 244 34 360 35 l116 0 26 30 c29 35 25 55 -14 75 -24 12 -45
12 -156 -1 -125 -14 -207 -26 -269 -39 -52 -11 -70 12 -67 87 4 76 -18 190
-47 246 -19 37 -24 40 -73 46 -64 8 -143 -6 -199 -34 l-41 -21 7 23 c28 91 73
187 100 214 35 36 59 44 235 73 69 12 181 41 250 64 108 37 125 45 122 62 -5
32 -42 57 -77 52 -16 -3 -129 -30 -250 -61 -121 -31 -224 -56 -229 -56 -16 0
3 85 41 175 31 76 37 102 37 165 1 82 -30 172 -65 190 -25 14 -93 12 -107 -2z
m147 -991 c14 -36 34 -248 24 -257 -4 -4 -48 -15 -98 -25 -76 -14 -268 -68
-327 -90 -26 -10 -23 20 6 81 13 27 29 69 36 94 28 103 101 166 228 200 95 26
121 25 131 -3z"/>
<path d="M1020 2367 c-35 -18 -36 -43 -2 -74 53 -50 56 -62 60 -301 l4 -222
-148 -71 c-82 -39 -176 -82 -209 -96 -77 -32 -85 -40 -60 -60 39 -29 154 0
358 91 l57 26 0 -213 0 -213 -112 -94 c-161 -134 -368 -286 -401 -294 -56 -13
-59 -97 -5 -123 21 -11 33 -10 69 2 74 26 129 70 284 225 l150 150 8 -57 c8
-58 -7 -513 -19 -572 -5 -25 -10 -30 -23 -25 -9 4 -30 9 -48 12 -25 3 -34 -1
-49 -23 -17 -25 -16 -28 3 -69 39 -80 140 -124 199 -87 42 26 43 39 43 519 l0
393 43 48 c42 46 104 148 96 156 -2 3 -33 -10 -69 -27 -35 -18 -68 -34 -73
-36 -9 -5 -1 271 10 340 6 32 12 38 51 53 52 20 108 66 129 106 19 38 19 37
-25 50 -42 13 -99 0 -121 -27 -7 -7 -16 -14 -19 -14 -4 0 -5 106 -3 235 l5
234 -36 36 c-29 29 -42 35 -78 35 -24 0 -55 -6 -69 -13z"/>
<path d="M1708 906 c-45 -55 -190 -269 -204 -303 -16 -36 -18 -91 -6 -111 20
-30 112 31 160 105 59 92 126 344 91 342 -8 0 -26 -15 -41 -33z"/>
<path d="M2342 894 c2 -5 10 -22 18 -37 7 -15 30 -37 49 -49 47 -28 123 -91
248 -206 95 -87 104 -93 140 -90 38 3 38 3 41 52 l3 49 -83 82 c-88 86 -173
140 -273 173 -72 24 -149 38 -143 26z"/>
</g>
</svg>
