<?xml version="1.0" standalone="no"?>
<!DOCTYPE svg PUBLIC "-//W3C//DTD SVG 20010904//EN"
 "http://www.w3.org/TR/2001/REC-SVG-20010904/DTD/svg10.dtd">
<svg version="1.0" xmlns="http://www.w3.org/2000/svg"
 width="340.000000pt" height="340.000000pt" viewBox="0 0 340.000000 340.000000"
 preserveAspectRatio="xMidYMid meet">
<metadata>
Created by potrace 1.15, written by Peter Selinger 2001-2017
</metadata>
<g transform="translate(0.000000,340.000000) scale(0.100000,-0.100000)"
fill="#000000" stroke="none">
<path d="M1100 2368 c-23 -25 -25 -53 -5 -88 11 -20 14 -76 15 -267 l0 -243
-64 -29 c-35 -16 -134 -57 -220 -91 -86 -35 -156 -67 -156 -72 0 -18 42 -48
68 -48 28 0 159 42 296 94 37 14 70 26 72 26 2 0 4 -107 4 -238 l0 -239 -107
-85 c-142 -112 -276 -207 -338 -238 -81 -41 -71 -95 22 -115 66 -13 109 10
227 123 61 59 128 122 150 142 l38 35 -4 -283 c-3 -155 -8 -285 -11 -289 -4
-3 -22 8 -42 26 -47 41 -69 40 -92 -4 -25 -47 65 -191 153 -246 l36 -22 26 20
c40 30 63 76 65 130 0 26 -5 145 -12 263 -8 124 -11 277 -7 362 l6 147 50 47
c50 47 135 163 126 172 -10 9 -102 -30 -138 -59 l-38 -30 0 214 0 214 41 6
c52 7 157 58 189 92 l24 25 -21 28 c-27 37 -69 39 -132 8 -51 -26 -86 -33 -95
-18 -3 4 -1 116 3 248 4 131 4 247 -1 256 -10 21 -59 48 -87 48 -11 0 -29 -10
-41 -22z"/>
<path d="M2385 2179 c-149 -26 -328 -70 -466 -115 l-114 -37 -80 16 c-56 11
-84 12 -92 5 -18 -14 -16 -69 2 -95 41 -58 61 -269 46 -488 -23 -335 -88 -613
-209 -895 -34 -80 -46 -121 -49 -170 l-4 -65 49 52 c57 59 97 148 172 373 91
275 141 551 162 892 9 161 9 208 -1 249 -11 43 -11 53 1 65 15 15 117 38 215
48 59 7 63 6 67 -16 12 -51 26 -180 32 -295 l7 -120 -44 -26 c-24 -14 -64 -31
-89 -37 -25 -6 -70 -19 -99 -27 l-55 -16 23 -18 c28 -23 54 -24 146 -4 39 8
80 15 93 15 l22 0 0 -179 0 -179 -77 -30 c-43 -16 -109 -39 -146 -52 -66 -21
-68 -23 -51 -41 21 -23 92 -26 150 -6 22 8 60 17 85 20 l47 6 5 -282 c3 -155
9 -295 14 -312 10 -33 42 -45 61 -22 8 9 15 120 22 321 5 169 12 311 15 315 2
5 25 11 50 13 56 7 180 67 180 88 0 8 -17 23 -37 33 -35 17 -40 17 -108 1
-104 -25 -103 -27 -95 173 l8 159 65 17 c75 20 152 61 152 82 0 40 -84 57
-157 31 -22 -8 -45 -11 -50 -8 -6 4 -13 81 -15 192 -3 102 -8 193 -12 202 -6
13 1 19 36 29 57 17 230 17 294 1 l51 -13 7 -77 c44 -536 75 -1542 48 -1542
-5 0 -17 9 -27 20 -35 38 -135 52 -135 17 0 -31 54 -122 98 -166 78 -78 157
-88 198 -26 16 24 15 51 -11 473 -21 330 -29 557 -32 867 -2 231 -6 435 -9
453 -8 52 -76 119 -137 137 -63 19 -85 18 -222 -6z"/>
</g>
</svg>
