<?xml version="1.0" standalone="no"?>
<!DOCTYPE svg PUBLIC "-//W3C//DTD SVG 20010904//EN"
 "http://www.w3.org/TR/2001/REC-SVG-20010904/DTD/svg10.dtd">
<svg version="1.0" xmlns="http://www.w3.org/2000/svg"
 width="340.000000pt" height="340.000000pt" viewBox="0 0 340.000000 340.000000"
 preserveAspectRatio="xMidYMid meet">
<metadata>
Created by potrace 1.15, written by Peter Selinger 2001-2017
</metadata>
<g transform="translate(0.000000,340.000000) scale(0.100000,-0.100000)"
fill="#000000" stroke="none">
<path d="M1745 2471 c-54 -8 -55 -28 -5 -86 22 -26 49 -64 60 -85 18 -36 137
-507 129 -514 -9 -7 -430 -145 -492 -161 -78 -21 -86 -42 -26 -62 31 -10 55
-8 155 13 66 13 179 40 253 60 74 19 137 31 141 27 4 -4 37 -96 73 -203 36
-107 86 -244 112 -305 127 -298 307 -600 512 -861 84 -107 118 -122 181 -84
l32 20 0 90 c0 92 -21 218 -45 277 -29 70 -84 27 -86 -67 -1 -30 -4 -68 -8
-83 -6 -27 -9 -24 -82 70 -251 323 -438 680 -550 1048 -27 92 -35 131 -27 136
6 4 32 10 57 14 52 8 311 91 324 104 14 14 -21 70 -49 77 -36 9 -81 0 -224
-44 -69 -22 -128 -38 -131 -36 -3 2 -12 38 -19 81 -16 103 -71 325 -110 446
-39 123 -69 145 -175 128z"/>
<path d="M1023 2314 c-21 -21 -24 -31 -18 -57 4 -18 10 -143 12 -280 l4 -247
-53 -25 c-29 -13 -110 -43 -180 -67 l-128 -42 22 -23 c27 -29 56 -29 160 1 46
13 104 26 131 29 l47 7 0 -194 0 -193 -196 -147 c-107 -81 -209 -152 -227
-158 -51 -17 -62 -32 -51 -69 12 -40 70 -74 111 -64 16 3 98 67 191 150 90 80
166 145 169 145 6 0 -4 -360 -13 -503 l-6 -88 -22 19 c-33 30 -61 42 -100 42
-34 0 -36 -2 -36 -32 0 -41 17 -74 72 -139 66 -79 123 -98 189 -64 l30 16 -3
421 -2 421 35 25 c42 31 219 210 219 221 0 34 -89 -1 -193 -75 -26 -19 -49
-34 -52 -34 -3 0 -5 76 -5 169 l0 169 46 11 c65 17 113 43 153 85 l35 36 -24
25 c-30 32 -58 32 -120 0 -55 -28 -76 -31 -82 -12 -2 6 -1 95 3 197 10 241 4
304 -29 330 -33 27 -58 25 -89 -6z"/>
<path d="M2200 2233 c0 -36 133 -173 201 -209 17 -8 55 -18 85 -21 l54 -6 0
32 c0 46 -35 108 -72 127 -59 30 -268 90 -268 77z"/>
<path d="M1870 1473 c-106 -39 -497 -196 -503 -202 -5 -5 -1 -16 9 -26 12 -12
27 -15 53 -12 130 20 136 20 153 1 9 -11 21 -51 27 -91 12 -77 13 -292 2 -333
-5 -20 -35 -40 -146 -97 -77 -40 -158 -78 -180 -85 -36 -12 -40 -17 -43 -50
-4 -47 10 -74 43 -82 19 -5 55 8 144 53 217 109 444 258 561 370 l55 52 -55
-7 c-67 -8 -119 -26 -187 -64 l-53 -30 0 83 c0 46 -5 130 -11 188 -5 57 -11
112 -12 123 -2 15 12 24 66 42 37 12 94 39 127 59 50 30 60 41 60 64 0 15 -5
32 -12 39 -12 12 -70 15 -98 5z"/>
</g>
</svg>
