<?xml version="1.0" standalone="no"?>
<!DOCTYPE svg PUBLIC "-//W3C//DTD SVG 20010904//EN"
 "http://www.w3.org/TR/2001/REC-SVG-20010904/DTD/svg10.dtd">
<svg version="1.0" xmlns="http://www.w3.org/2000/svg"
 width="340.000000pt" height="340.000000pt" viewBox="0 0 340.000000 340.000000"
 preserveAspectRatio="xMidYMid meet">
<metadata>
Created by potrace 1.15, written by Peter Selinger 2001-2017
</metadata>
<g transform="translate(0.000000,340.000000) scale(0.100000,-0.100000)"
fill="#000000" stroke="none">
<path d="M953 2338 c-35 -17 -37 -44 -9 -93 22 -37 28 -64 37 -177 6 -73 8
-170 4 -215 l-7 -82 -36 -12 c-84 -27 -358 -141 -371 -153 -56 -56 227 -35
392 29 16 7 17 -7 17 -211 l-1 -219 -47 -35 c-217 -160 -409 -280 -447 -280
-44 0 -65 -17 -65 -53 0 -45 11 -57 60 -68 76 -17 149 11 234 90 28 26 99 86
157 134 l106 86 7 -119 c7 -111 3 -263 -10 -437 l-6 -72 -46 25 c-26 14 -58
24 -72 22 -22 -3 -25 -8 -28 -49 -3 -39 3 -54 38 -106 47 -71 79 -95 127 -95
55 0 87 30 95 88 3 27 7 225 8 439 l1 390 77 81 78 81 84 6 c54 3 112 16 158
32 41 15 76 24 79 21 8 -8 -40 -132 -90 -231 -46 -93 -135 -227 -201 -305 -25
-30 -51 -71 -56 -91 -10 -36 -5 -69 10 -69 22 0 134 87 165 128 147 192 203
280 249 388 30 72 66 199 66 232 0 38 -29 83 -64 97 -42 18 -76 9 -198 -51
-50 -24 -123 -54 -161 -66 -45 -15 -72 -29 -75 -40 -4 -18 -90 -78 -110 -78
-13 0 -17 183 -6 312 l7 75 58 12 c33 6 92 29 132 49 68 36 72 40 70 70 -3 71
-49 79 -168 32 -42 -16 -81 -30 -87 -30 -8 0 -9 33 -4 115 4 63 4 168 0 233
-7 115 -8 118 -40 150 -34 34 -69 40 -111 20z"/>
<path d="M1760 2176 c-85 -29 -168 -59 -185 -66 -16 -7 -48 -13 -70 -14 -36
-1 -40 -4 -43 -28 -4 -36 22 -43 148 -42 81 1 107 5 175 32 77 30 165 51 165
39 0 -3 -22 -36 -50 -72 -52 -68 -120 -199 -141 -272 -10 -37 -10 -45 8 -76
77 -130 118 -416 94 -663 -11 -113 -44 -300 -55 -311 -3 -3 -18 4 -35 16 -55
39 -131 36 -131 -5 0 -49 73 -140 130 -164 17 -7 30 -16 30 -20 0 -13 -81 -28
-298 -55 -111 -14 -209 -28 -217 -31 -22 -9 -18 -32 8 -46 36 -20 307 -14 467
11 191 30 377 36 545 20 77 -7 155 -13 172 -13 45 1 75 30 71 68 -3 28 -10 34
-63 55 -85 34 -191 37 -413 12 -100 -12 -187 -21 -192 -21 -6 0 2 18 16 40 44
67 80 281 91 539 l6 165 31 -35 c58 -67 257 -248 375 -343 87 -70 133 -100
177 -115 136 -45 352 -55 380 -16 8 10 14 25 14 32 0 19 -84 55 -265 115 -82
27 -184 68 -225 90 -77 41 -197 125 -221 155 -8 9 -58 49 -112 89 l-98 72 86
58 c101 68 255 194 308 253 49 54 50 96 5 140 -40 39 -85 48 -127 26 -42 -21
-48 -40 -25 -82 l18 -35 -39 -36 c-92 -82 -164 -152 -222 -216 -40 -43 -64
-63 -67 -55 -2 8 -12 66 -21 129 -20 135 -43 191 -91 220 -19 12 -34 24 -34
26 0 3 56 72 124 153 69 82 134 164 145 182 31 50 27 92 -10 123 -27 23 -39
26 -107 26 -66 -1 -99 -8 -232 -54z"/>
</g>
</svg>
