<?xml version="1.0" standalone="no"?>
<!DOCTYPE svg PUBLIC "-//W3C//DTD SVG 20010904//EN"
 "http://www.w3.org/TR/2001/REC-SVG-20010904/DTD/svg10.dtd">
<svg version="1.0" xmlns="http://www.w3.org/2000/svg"
 width="340.000000pt" height="340.000000pt" viewBox="0 0 340.000000 340.000000"
 preserveAspectRatio="xMidYMid meet">
<metadata>
Created by potrace 1.15, written by Peter Selinger 2001-2017
</metadata>
<g transform="translate(0.000000,340.000000) scale(0.100000,-0.100000)"
fill="#000000" stroke="none">
<path d="M1902 2550 c-35 -15 -37 -37 -6 -97 29 -58 30 -68 26 -230 l-2 -93
-40 -20 c-22 -11 -81 -31 -132 -45 -102 -27 -117 -37 -98 -60 14 -17 112 -20
209 -6 l53 8 -6 -46 c-4 -25 -11 -84 -16 -130 -5 -46 -10 -85 -12 -86 -2 -2
-109 -35 -238 -75 -258 -78 -265 -81 -265 -101 0 -10 16 -15 57 -17 44 -2 97
8 221 41 207 57 455 112 463 104 11 -11 -61 -93 -221 -252 -161 -161 -330
-310 -515 -452 -118 -91 -142 -125 -100 -138 42 -13 315 170 500 336 50 44 94
77 100 74 14 -9 12 -38 -10 -145 -26 -123 -38 -353 -20 -375 17 -21 49 -19
112 6 73 29 183 49 310 56 177 10 191 -17 113 -214 -59 -150 -112 -253 -129
-253 -22 0 -88 30 -133 61 -76 53 -122 49 -123 -9 0 -25 146 -184 192 -208 36
-19 84 -18 118 3 55 32 161 236 223 429 51 162 52 170 17 231 -49 85 -121 109
-247 83 -26 -5 -83 -16 -127 -24 -43 -9 -108 -29 -144 -46 -36 -17 -67 -28
-69 -26 -3 3 1 62 8 132 8 84 18 133 28 145 12 14 48 25 131 39 111 19 306 67
363 89 30 12 51 53 42 82 -4 11 -20 21 -39 24 -51 10 -256 -43 -399 -102 -33
-13 -64 -22 -70 -20 -6 2 -16 28 -22 58 -7 30 -15 65 -19 79 -6 22 13 45 162
199 l168 175 69 7 c39 4 148 11 243 15 l174 7 10 26 c16 41 -1 74 -47 90 -33
11 -65 11 -172 2 -73 -6 -140 -14 -150 -18 -10 -4 8 24 40 61 74 87 126 164
171 253 31 62 34 76 25 100 -13 36 -48 73 -68 73 -28 0 -71 -51 -71 -85 0 -60
-273 -440 -323 -449 -163 -31 -242 -44 -245 -42 -1 2 6 37 17 77 11 41 25 100
31 132 7 32 17 60 23 61 158 41 275 88 336 135 l24 19 -26 26 c-31 31 -81 35
-130 10 -17 -9 -68 -29 -114 -45 l-83 -28 3 165 2 165 -37 35 c-39 35 -71 42
-116 24z"/>
<path d="M1137 2449 c-32 -19 -39 -56 -20 -97 16 -32 18 -63 16 -227 -1 -104
-6 -203 -11 -220 -9 -34 -56 -57 -252 -124 -91 -31 -105 -39 -108 -60 -8 -52
60 -54 213 -7 61 18 117 36 126 40 13 6 17 -2 22 -46 9 -69 9 -228 0 -307 l-6
-63 -113 -97 c-207 -179 -321 -263 -370 -273 -65 -14 -73 -38 -29 -87 40 -43
78 -57 117 -42 14 5 108 86 207 180 100 94 185 171 188 171 14 0 -17 -683 -31
-698 -2 -1 -15 3 -30 9 -40 19 -76 -1 -76 -43 0 -43 32 -106 75 -148 l35 -34
42 14 c23 8 50 27 61 42 20 26 20 41 18 490 l-2 463 36 35 c38 35 135 166 135
181 0 13 -81 -19 -116 -46 l-32 -24 -6 22 c-8 29 -8 209 0 286 6 53 10 61 28
61 38 1 102 37 134 76 30 36 31 40 15 51 -30 23 -82 26 -125 9 l-41 -16 6 98
c4 53 10 162 13 242 6 144 6 145 -18 167 -29 27 -76 37 -101 22z"/>
</g>
</svg>
