<?xml version="1.0" standalone="no"?>
<!DOCTYPE svg PUBLIC "-//W3C//DTD SVG 20010904//EN"
 "http://www.w3.org/TR/2001/REC-SVG-20010904/DTD/svg10.dtd">
<svg version="1.0" xmlns="http://www.w3.org/2000/svg"
 width="340.000000pt" height="340.000000pt" viewBox="0 0 340.000000 340.000000"
 preserveAspectRatio="xMidYMid meet">
<metadata>
Created by potrace 1.15, written by Peter Selinger 2001-2017
</metadata>
<g transform="translate(0.000000,340.000000) scale(0.100000,-0.100000)"
fill="#000000" stroke="none">
<path d="M1863 2469 c-22 -22 -15 -39 33 -82 25 -23 52 -54 59 -68 9 -17 16
-91 21 -226 l7 -201 -54 -16 c-30 -8 -116 -32 -191 -53 -76 -20 -138 -40 -138
-45 0 -4 11 -15 25 -24 23 -15 36 -15 165 0 206 24 186 31 182 -70 -2 -59 1
-99 12 -131 9 -26 16 -50 16 -54 0 -12 -356 -90 -522 -114 -50 -8 -67 -27 -46
-53 11 -12 34 -14 138 -9 69 3 166 14 215 23 147 28 144 29 174 -41 20 -48 25
-78 25 -150 l1 -89 -114 -27 c-63 -15 -152 -33 -198 -40 -87 -13 -106 -26 -83
-54 16 -19 69 -19 248 1 79 9 145 15 146 13 4 -4 -14 -351 -18 -356 -1 -1 -60
-9 -131 -18 -109 -13 -465 -66 -542 -81 -38 -7 -27 -32 20 -45 66 -19 219 -14
350 9 263 48 598 68 857 52 427 -26 396 -25 409 -1 17 31 10 61 -19 83 -63 46
-416 66 -630 34 -58 -9 -124 -16 -147 -16 l-43 0 0 49 c0 53 20 314 25 319 2
2 51 9 110 17 117 16 273 51 293 67 19 16 14 46 -9 59 -25 13 -215 -3 -317
-26 -35 -8 -65 -15 -66 -15 -2 0 -6 46 -8 103 -3 61 -12 120 -22 147 -9 25
-18 49 -19 54 -4 19 112 37 293 46 122 5 205 14 243 26 54 16 57 18 57 50 0
77 -63 81 -390 23 -128 -22 -234 -38 -236 -36 -2 2 3 21 12 43 9 21 22 85 30
141 7 57 16 108 19 113 3 6 21 10 38 10 90 1 264 62 335 118 l23 18 -25 27
c-31 33 -79 36 -136 7 -40 -20 -188 -60 -225 -60 -19 0 -20 6 -17 165 2 91 -1
202 -6 247 -9 70 -14 85 -41 112 -28 28 -38 31 -103 34 -50 3 -77 0 -85 -9z"/>
<path d="M1013 2430 c-35 -14 -34 -52 2 -90 13 -14 29 -38 34 -53 12 -32 14
-211 4 -360 l-6 -97 -96 -30 c-53 -17 -150 -42 -216 -56 -181 -39 -195 -43
-195 -59 0 -25 37 -35 133 -35 103 0 222 19 313 50 31 11 59 20 62 20 2 0 3
-106 0 -237 l-4 -236 -60 -57 c-142 -133 -380 -312 -445 -335 -68 -24 -76 -50
-30 -96 32 -31 76 -38 126 -19 25 10 111 85 323 285 l85 80 -7 -325 c-3 -179
-9 -346 -12 -372 -6 -46 -8 -48 -38 -48 -44 0 -59 -13 -58 -48 1 -44 27 -87
65 -111 45 -27 79 -27 114 3 l28 24 3 487 4 487 37 50 c36 47 66 116 55 127
-2 3 -25 -5 -49 -17 l-45 -22 1 178 c2 235 1 233 66 247 59 14 145 54 188 89
l30 24 -24 26 c-31 33 -71 34 -145 1 -31 -14 -66 -25 -77 -25 -18 0 -20 4 -15
28 14 56 19 447 7 471 -27 49 -102 73 -158 51z"/>
</g>
</svg>
