<?xml version="1.0" standalone="no"?>
<!DOCTYPE svg PUBLIC "-//W3C//DTD SVG 20010904//EN"
 "http://www.w3.org/TR/2001/REC-SVG-20010904/DTD/svg10.dtd">
<svg version="1.0" xmlns="http://www.w3.org/2000/svg"
 width="340.000000pt" height="340.000000pt" viewBox="0 0 340.000000 340.000000"
 preserveAspectRatio="xMidYMid meet">
<metadata>
Created by potrace 1.15, written by Peter Selinger 2001-2017
</metadata>
<g transform="translate(0.000000,340.000000) scale(0.100000,-0.100000)"
fill="#000000" stroke="none">
<path d="M1112 2394 c-26 -18 -29 -56 -6 -75 8 -7 22 -26 31 -42 13 -27 14
-57 2 -268 -7 -131 -15 -243 -19 -249 -10 -15 -213 -89 -327 -119 -57 -14
-103 -31 -103 -37 0 -22 37 -44 76 -44 32 0 275 62 337 85 16 7 17 -6 17 -178
0 -101 -3 -198 -6 -215 -5 -24 -28 -48 -108 -110 -104 -81 -286 -206 -343
-235 -18 -10 -47 -17 -66 -17 -40 0 -58 -17 -59 -57 -2 -76 43 -96 141 -64 79
26 130 62 293 206 l123 109 6 -29 c11 -49 10 -279 -2 -455 -6 -91 -12 -166
-13 -168 -2 -1 -18 5 -36 14 -18 10 -49 17 -69 18 -36 1 -36 1 -39 -46 -3 -45
0 -51 45 -99 85 -91 141 -103 192 -42 l31 38 0 436 0 437 41 33 c52 41 165
182 150 187 -20 7 -85 -20 -134 -54 -26 -19 -50 -34 -54 -34 -7 0 5 281 15
329 7 31 12 35 60 47 67 17 137 53 190 98 l43 35 -23 14 c-46 29 -76 29 -146
-2 -37 -16 -78 -32 -91 -36 l-24 -7 7 101 c4 55 16 161 26 233 11 73 20 147
20 163 0 35 -29 83 -62 101 -32 18 -89 17 -116 -2z"/>
<path d="M2015 2337 l-30 -25 53 -55 52 -56 0 -228 c0 -226 -14 -571 -24 -580
-2 -3 -126 -26 -275 -51 -183 -31 -272 -50 -275 -59 -3 -7 3 -22 14 -33 25
-25 66 -25 197 0 142 27 418 66 613 86 133 13 178 14 234 5 87 -15 169 -49
162 -68 -3 -7 -12 -40 -21 -72 -41 -158 -146 -425 -220 -556 -46 -83 -71 -95
-201 -101 -133 -5 -281 -26 -422 -59 -61 -14 -121 -25 -134 -25 -13 0 -34 -7
-47 -16 -22 -16 -22 -18 -6 -27 39 -22 234 -20 380 4 106 17 191 23 350 24
256 4 231 1 255 25 31 31 26 59 -14 75 -19 8 -37 19 -40 24 -3 5 8 40 25 78
59 131 132 319 184 478 51 153 53 161 39 194 -24 56 -64 102 -108 122 -56 25
-131 24 -366 -6 -249 -32 -231 -32 -219 8 17 55 52 796 39 828 -20 48 -62 79
-116 85 -44 6 -54 3 -79 -19z"/>
<path d="M2618 2092 c-3 -66 -6 -71 -54 -128 -28 -32 -66 -81 -83 -107 -46
-69 -111 -210 -101 -221 4 -4 24 -3 43 3 26 9 75 56 192 187 134 150 158 181
162 214 4 27 0 47 -11 64 -20 32 -40 42 -97 50 l-47 7 -4 -69z"/>
<path d="M1636 1964 c-7 -25 8 -87 24 -109 5 -5 13 -28 19 -51 14 -53 57 -117
101 -149 43 -32 58 -32 70 1 19 49 12 107 -19 155 -30 46 -131 148 -167 167
-19 10 -23 9 -28 -14z"/>
<path d="M2170 1038 c-25 -6 -142 -27 -260 -47 -212 -36 -215 -37 -215 -61 l0
-25 120 -3 c178 -5 453 35 512 73 28 19 30 51 4 65 -24 12 -100 11 -161 -2z"/>
</g>
</svg>
