<?xml version="1.0" standalone="no"?>
<!DOCTYPE svg PUBLIC "-//W3C//DTD SVG 20010904//EN"
 "http://www.w3.org/TR/2001/REC-SVG-20010904/DTD/svg10.dtd">
<svg version="1.0" xmlns="http://www.w3.org/2000/svg"
 width="340.000000pt" height="340.000000pt" viewBox="0 0 340.000000 340.000000"
 preserveAspectRatio="xMidYMid meet">
<metadata>
Created by potrace 1.15, written by Peter Selinger 2001-2017
</metadata>
<g transform="translate(0.000000,340.000000) scale(0.100000,-0.100000)"
fill="#000000" stroke="none">
<path d="M1013 2475 c-39 -17 -42 -42 -13 -106 18 -40 20 -66 20 -275 l0 -231
-94 -36 c-101 -39 -318 -107 -341 -107 -20 0 -28 -19 -15 -35 32 -39 209 -26
336 25 116 46 114 49 114 -175 l0 -184 -112 -99 c-145 -127 -323 -268 -368
-292 -46 -24 -72 -53 -64 -73 3 -9 21 -26 39 -37 l33 -20 56 20 c62 24 137 77
184 131 42 48 211 213 223 217 10 4 10 -322 0 -558 l-6 -145 -57 -3 c-57 -3
-57 -3 -64 -38 -14 -74 51 -143 144 -152 39 -3 50 0 67 18 19 21 20 38 23 502
l3 481 40 46 c39 44 99 137 99 154 0 13 -40 -2 -92 -33 l-47 -28 -7 66 c-7 67
0 226 12 256 3 9 16 16 28 16 45 0 124 31 169 65 26 20 47 40 47 44 0 16 -49
60 -75 67 -19 5 -44 -2 -91 -26 -35 -18 -67 -30 -71 -27 -3 4 -1 122 5 263 8
176 9 261 2 275 -11 20 -60 49 -82 49 -7 -1 -28 -7 -45 -15z"/>
<path d="M1734 2465 c-10 -26 6 -46 62 -78 111 -62 157 -80 213 -81 l56 -1 -1
39 c-3 75 -88 120 -246 133 -68 5 -78 4 -84 -12z"/>
<path d="M1995 2195 c-269 -78 -507 -146 -528 -149 -32 -6 -38 -11 -35 -29 2
-18 11 -23 43 -25 97 -8 425 56 509 99 44 23 66 19 66 -10 0 -34 -100 -271
-115 -271 -2 0 -24 14 -49 31 -91 61 -283 135 -302 117 -12 -12 16 -46 48 -58
35 -14 70 -39 180 -128 l68 -54 -42 -52 c-79 -95 -292 -308 -403 -401 -124
-104 -139 -120 -130 -135 13 -21 45 -8 146 59 158 104 347 272 477 424 l32 38
103 -89 c146 -127 237 -197 383 -295 120 -80 134 -87 203 -98 82 -12 176 -6
264 18 55 15 57 17 57 49 0 42 -15 50 -105 57 -142 11 -407 117 -575 230 -108
72 -266 198 -262 210 2 5 16 29 33 54 60 87 102 198 123 324 6 36 8 37 84 58
42 11 115 25 161 31 100 12 128 27 137 75 8 44 -8 65 -50 64 -17 0 -251 -65
-521 -144z"/>
<path d="M2137 1350 c-34 -40 -41 -79 -28 -153 6 -34 16 -269 21 -522 8 -387
12 -461 25 -474 13 -14 17 -14 30 0 44 44 89 709 65 977 -13 149 -20 176 -49
191 -29 16 -37 14 -64 -19z"/>
<path d="M1694 1283 c-4 -10 -8 -90 -9 -178 -2 -214 -36 -363 -126 -552 -40
-83 -47 -117 -29 -128 29 -18 143 152 213 315 76 178 104 336 76 430 -13 44
-82 130 -104 130 -7 0 -16 -8 -21 -17z"/>
</g>
</svg>
