<?xml version="1.0" standalone="no"?>
<!DOCTYPE svg PUBLIC "-//W3C//DTD SVG 20010904//EN"
 "http://www.w3.org/TR/2001/REC-SVG-20010904/DTD/svg10.dtd">
<svg version="1.0" xmlns="http://www.w3.org/2000/svg"
 width="340.000000pt" height="340.000000pt" viewBox="0 0 340.000000 340.000000"
 preserveAspectRatio="xMidYMid meet">
<metadata>
Created by potrace 1.15, written by Peter Selinger 2001-2017
</metadata>
<g transform="translate(0.000000,340.000000) scale(0.100000,-0.100000)"
fill="#000000" stroke="none">
<path d="M1070 2548 c-43 -15 -50 -34 -31 -81 15 -37 17 -70 13 -263 l-4 -221
-41 -13 c-23 -7 -85 -32 -137 -56 -52 -23 -125 -49 -162 -56 -51 -9 -68 -17
-68 -29 0 -50 60 -49 270 4 l130 34 -1 -171 c-1 -94 -4 -195 -7 -224 l-7 -52
-98 -74 c-129 -97 -308 -203 -374 -222 -46 -13 -53 -19 -53 -41 0 -30 48 -78
86 -86 15 -2 39 -1 54 3 32 9 186 120 295 212 l80 68 3 -168 c3 -149 -12 -489
-21 -499 -2 -2 -17 3 -33 12 -16 8 -41 15 -56 15 -27 0 -28 -2 -28 -47 0 -55
28 -117 70 -158 21 -20 42 -29 78 -33 44 -4 51 -2 70 23 22 27 22 32 22 481 0
250 3 454 8 454 26 0 213 202 199 216 -7 8 -113 -29 -154 -52 l-43 -25 0 113
c0 109 14 286 24 295 2 2 33 10 68 18 36 7 96 28 134 46 38 18 73 33 77 33 4
1 13 -10 20 -24 9 -18 22 -26 47 -28 33 -3 39 2 78 55 24 32 58 90 77 130 40
84 22 77 307 117 284 41 587 58 629 35 18 -9 16 -13 -30 -35 -70 -35 -117
-115 -76 -130 26 -10 161 14 229 42 67 27 92 52 102 103 5 22 0 35 -23 60 -71
80 -287 113 -479 73 -54 -12 -146 -28 -204 -38 -93 -14 -335 -65 -379 -79 -14
-4 -17 4 -17 48 0 54 -20 127 -34 127 -10 0 -50 -93 -50 -117 0 -17 -165 -299
-181 -309 -5 -3 -19 2 -32 11 -38 25 -106 29 -157 10 -67 -25 -96 -29 -102
-13 -3 7 1 51 8 98 17 113 18 360 2 383 -18 23 -68 36 -98 25z"/>
<path d="M1875 2140 c-15 -16 -16 -28 -9 -67 23 -134 -8 -232 -86 -270 -25
-13 -89 -32 -142 -44 -66 -14 -98 -25 -98 -34 0 -26 33 -32 142 -27 l110 5
-33 -64 c-41 -83 -114 -190 -184 -272 -47 -56 -55 -72 -55 -106 0 -23 7 -46
16 -55 24 -25 100 -19 200 14 77 27 306 90 326 90 11 0 21 -164 13 -219 -6
-48 -9 -51 -35 -51 -85 0 -461 -79 -635 -134 -44 -13 -91 -26 -105 -28 -30 -4
-39 -38 -14 -59 27 -22 109 -14 249 25 145 41 390 93 484 102 59 7 61 6 61
-17 1 -78 21 -495 31 -609 11 -145 24 -179 54 -149 20 20 34 249 35 570 l0
237 64 7 c101 10 372 8 467 -5 73 -10 92 -9 123 4 29 12 36 20 36 43 0 15 -4
33 -8 39 -21 34 -281 50 -427 26 -38 -6 -111 -14 -162 -18 l-91 -6 -8 47 c-7
50 0 187 11 205 3 5 33 10 65 10 105 0 260 45 260 76 0 20 -35 52 -65 60 -14
4 -70 -1 -123 -10 -149 -25 -140 -28 -139 57 0 77 -14 116 -55 153 -45 41 -63
46 -92 23 -29 -23 -34 -62 -12 -94 15 -23 29 -172 16 -180 -11 -7 -298 -65
-321 -65 -16 0 -17 4 -9 26 6 14 21 40 34 57 13 18 54 92 92 165 38 72 76 134
84 136 8 2 125 26 260 52 242 46 280 59 280 94 0 27 -22 40 -71 40 -58 0 -247
-32 -349 -59 -41 -11 -77 -18 -79 -15 -3 2 8 43 23 89 39 118 27 173 -46 211
-37 19 -62 18 -83 -6z"/>
</g>
</svg>
