<?xml version="1.0" standalone="no"?>
<!DOCTYPE svg PUBLIC "-//W3C//DTD SVG 20010904//EN"
 "http://www.w3.org/TR/2001/REC-SVG-20010904/DTD/svg10.dtd">
<svg version="1.0" xmlns="http://www.w3.org/2000/svg"
 width="340.000000pt" height="340.000000pt" viewBox="0 0 340.000000 340.000000"
 preserveAspectRatio="xMidYMid meet">
<metadata>
Created by potrace 1.15, written by Peter Selinger 2001-2017
</metadata>
<g transform="translate(0.000000,340.000000) scale(0.100000,-0.100000)"
fill="#000000" stroke="none">
<path d="M1812 2394 c-24 -16 -29 -53 -11 -85 8 -16 4 -28 -24 -67 -305 -423
-347 -484 -347 -507 0 -19 5 -25 23 -25 15 0 63 42 160 142 l137 142 135 1
c74 0 135 -1 135 -2 0 -1 -36 -52 -80 -113 -109 -154 -230 -344 -230 -362 0
-23 -17 -33 -118 -69 l-93 -32 -40 22 c-21 12 -50 21 -64 19 l-24 -3 40 -90
c43 -95 133 -421 119 -430 -27 -16 -244 -77 -397 -110 l-23 -5 0 179 0 179 50
42 c49 41 140 153 140 172 0 21 -64 -3 -117 -43 -88 -68 -90 -62 -76 203 l6
126 41 6 c60 9 136 48 176 90 31 33 33 38 18 52 -29 29 -90 29 -154 0 -83 -38
-87 -32 -73 116 6 64 9 177 7 251 -3 135 -3 136 -33 167 -37 39 -88 39 -117 0
-18 -24 -18 -26 3 -67 18 -37 22 -67 26 -226 3 -100 3 -212 -1 -248 l-7 -67
-94 -37 c-51 -20 -137 -49 -190 -65 -53 -16 -99 -31 -102 -34 -11 -10 17 -34
47 -40 18 -3 79 6 153 23 67 16 139 32 160 36 l39 6 -7 -212 -8 -212 -40 -36
c-81 -74 -268 -218 -371 -286 -102 -68 -105 -71 -106 -107 0 -52 23 -71 77
-65 50 5 83 31 299 227 l141 128 7 -60 c3 -34 6 -103 6 -155 0 -91 -19 -486
-24 -490 -1 -2 -16 3 -33 9 -48 18 -83 -1 -83 -44 1 -57 34 -115 86 -148 27
-16 55 -30 64 -30 18 0 73 55 85 85 4 11 7 131 6 266 l-2 246 112 17 c62 10
202 40 311 67 109 27 205 49 213 49 14 0 13 -15 -12 -94 -17 -53 -136 -217
-273 -376 -98 -114 -114 -136 -105 -150 11 -17 30 -11 96 31 75 49 192 160
256 242 49 64 124 201 143 262 13 42 27 65 40 65 4 0 34 -35 66 -77 161 -211
410 -478 488 -522 97 -55 170 -74 291 -75 118 -1 155 10 155 44 0 11 -10 26
-22 34 -25 16 -242 103 -327 131 -74 24 -268 181 -448 363 -79 80 -143 148
-143 153 0 42 493 83 724 61 134 -13 176 -2 176 46 0 16 -8 36 -18 45 -36 33
-256 47 -392 27 -139 -22 -160 -23 -160 -11 0 6 20 46 45 89 50 86 105 218
126 301 l13 54 -34 29 c-19 17 -51 37 -70 46 -46 20 -145 19 -195 -2 -22 -10
-81 -24 -130 -31 -50 -8 -126 -25 -170 -39 -43 -14 -80 -24 -82 -22 -2 1 34
43 78 92 105 114 328 392 340 422 15 39 10 72 -16 97 -39 40 -93 34 -250 -29
-74 -30 -132 -49 -129 -43 4 7 35 50 69 97 91 124 100 176 39 230 -39 33 -68
38 -102 14z m496 -909 c3 -3 -127 -414 -134 -423 -3 -5 -254 -35 -258 -31 -2
2 2 33 10 69 13 57 21 290 12 330 -7 33 204 74 317 63 28 -3 51 -7 53 -8z
m-489 -79 c13 -15 0 -255 -19 -355 -5 -30 -10 -55 -10 -57 0 -2 -63 -15 -136
-28 l-30 -5 -12 97 c-6 53 -23 138 -38 187 -14 50 -28 97 -31 106 -4 15 21 23
212 62 38 9 53 7 64 -7z"/>
</g>
</svg>
