<?xml version="1.0" standalone="no"?>
<!DOCTYPE svg PUBLIC "-//W3C//DTD SVG 20010904//EN"
 "http://www.w3.org/TR/2001/REC-SVG-20010904/DTD/svg10.dtd">
<svg version="1.0" xmlns="http://www.w3.org/2000/svg"
 width="340.000000pt" height="340.000000pt" viewBox="0 0 340.000000 340.000000"
 preserveAspectRatio="xMidYMid meet">
<metadata>
Created by potrace 1.15, written by Peter Selinger 2001-2017
</metadata>
<g transform="translate(0.000000,340.000000) scale(0.100000,-0.100000)"
fill="#000000" stroke="none">
<path d="M1925 2532 c-22 -4 -55 -31 -55 -43 0 -23 230 -96 315 -99 61 -3 63
-2 80 30 26 50 8 68 -96 100 -38 11 -210 20 -244 12z"/>
<path d="M1034 2476 c-17 -13 -18 -17 -5 -48 40 -99 40 -100 41 -356 l0 -253
-44 -19 c-60 -25 -343 -117 -390 -125 -30 -6 -37 -11 -34 -29 5 -36 48 -42
146 -23 73 15 230 64 294 91 14 6 17 -5 23 -90 4 -53 3 -151 -2 -217 l-10
-120 -53 -46 c-165 -143 -446 -345 -496 -357 -76 -17 -93 -54 -46 -103 26 -29
29 -30 81 -21 91 15 157 55 256 154 50 50 127 124 172 163 l80 73 7 -38 c14
-86 -2 -683 -19 -700 -1 -1 -24 9 -50 23 -26 14 -59 25 -71 25 -22 0 -24 -4
-24 -47 0 -84 59 -169 146 -210 65 -32 121 22 117 114 -3 68 5 88 64 152 120
132 252 330 319 479 l35 77 102 0 c73 1 129 7 195 24 51 13 95 21 97 19 10 -9
-45 -151 -81 -211 -86 -142 -196 -266 -335 -375 -67 -53 -79 -68 -79 -103 0
-23 5 -23 61 -4 119 42 307 205 407 352 42 62 132 233 132 252 0 30 24 11 86
-67 104 -131 256 -314 365 -438 160 -181 236 -207 467 -158 12 2 22 11 22 18
0 8 -100 77 -222 153 -257 159 -341 223 -424 324 -32 39 -103 117 -157 172
-54 55 -96 105 -94 111 9 28 58 48 138 57 111 12 215 33 322 66 95 29 110 48
63 79 -22 14 -37 14 -118 4 -117 -14 -219 -35 -295 -60 -32 -11 -62 -20 -67
-20 -5 0 -6 66 -2 154 7 136 6 159 -10 191 -9 20 -25 42 -36 48 -28 18 -22 24
35 31 62 8 304 70 354 91 27 12 34 19 28 32 -19 44 -14 61 35 138 48 75 96
167 119 226 8 22 5 32 -19 61 -39 47 -86 68 -152 68 -63 0 -371 -68 -639 -141
l-187 -50 -33 20 c-43 26 -75 27 -89 2 -13 -25 -13 -64 0 -77 5 -5 17 -38 26
-74 13 -53 15 -90 10 -195 -21 -403 -122 -728 -324 -1035 -37 -58 -78 -121
-90 -140 l-22 -35 0 358 0 359 53 58 c61 68 104 140 85 140 -7 0 -40 -14 -72
-30 -32 -17 -60 -30 -62 -30 -6 0 -4 274 2 321 6 44 7 45 58 57 54 13 155 60
195 91 l24 18 -22 22 c-27 27 -52 27 -157 -4 -48 -14 -89 -24 -91 -22 -2 3 1
44 7 93 5 49 10 168 10 264 0 157 -2 178 -20 208 -30 49 -95 67 -136 38z
m1487 -352 c6 -3 2 -18 -11 -37 -37 -56 -82 -150 -105 -216 l-21 -65 -205 -42
c-112 -23 -251 -54 -309 -69 -58 -15 -117 -30 -132 -32 l-28 -5 8 48 c4 27 7
104 7 172 0 100 3 123 15 127 8 2 85 18 170 34 85 17 178 37 207 46 143 43
363 64 404 39z m-502 -676 c0 -90 -6 -187 -12 -217 l-12 -55 -85 -29 c-144
-49 -303 -88 -314 -77 -7 7 -6 21 3 43 7 17 32 125 56 240 23 114 44 210 47
212 6 6 248 42 291 44 l27 1 -1 -162z"/>
<path d="M2510 1645 c0 -61 121 -172 228 -209 40 -14 42 -14 57 7 8 12 15 36
15 53 0 54 -89 118 -207 149 -73 19 -93 19 -93 0z"/>
</g>
</svg>
