<?xml version="1.0" standalone="no"?>
<!DOCTYPE svg PUBLIC "-//W3C//DTD SVG 20010904//EN"
 "http://www.w3.org/TR/2001/REC-SVG-20010904/DTD/svg10.dtd">
<svg version="1.0" xmlns="http://www.w3.org/2000/svg"
 width="340.000000pt" height="340.000000pt" viewBox="0 0 340.000000 340.000000"
 preserveAspectRatio="xMidYMid meet">
<metadata>
Created by potrace 1.15, written by Peter Selinger 2001-2017
</metadata>
<g transform="translate(0.000000,340.000000) scale(0.100000,-0.100000)"
fill="#000000" stroke="none">
<path d="M1552 2584 c-31 -14 -33 -43 -7 -99 14 -30 30 -77 34 -105 8 -49 -3
-237 -18 -295 l-7 -30 -235 -57 c-129 -31 -251 -60 -271 -63 -36 -6 -38 -5
-38 20 0 64 -42 101 -106 93 -28 -3 -29 -5 -46 -98 -20 -113 -50 -186 -125
-299 -48 -71 -55 -87 -47 -109 12 -34 35 -46 75 -38 30 5 41 17 86 89 43 68
104 182 133 247 10 21 18 23 350 80 162 27 341 59 396 69 182 34 316 44 514
39 104 -3 194 -9 200 -13 8 -5 3 -16 -15 -35 -23 -24 -25 -30 -14 -53 16 -35
37 -41 134 -38 127 3 164 23 177 94 5 25 -1 34 -46 69 -107 85 -237 121 -368
100 -118 -18 -541 -72 -569 -72 l-26 0 -6 173 c-5 147 -26 309 -43 326 -6 7
-98 11 -112 5z"/>
<path d="M1995 2440 c-19 -37 -36 -55 -68 -71 -50 -25 -94 -64 -113 -101 -24
-47 -20 -51 59 -46 122 6 277 95 277 158 0 38 -33 89 -63 100 -53 18 -65 13
-92 -40z"/>
<path d="M1114 2335 c-12 -31 9 -70 73 -137 72 -74 119 -96 167 -78 31 12 33
30 5 86 -29 60 -76 98 -153 123 -78 25 -85 26 -92 6z"/>
<path d="M1775 1916 c-71 -18 -175 -47 -231 -65 -56 -17 -110 -31 -121 -31
-26 0 -44 -22 -33 -39 7 -12 36 -12 184 -2 97 6 188 16 202 21 14 6 46 10 72
10 l46 0 -26 -27 c-31 -34 -48 -66 -48 -91 0 -17 -13 -22 -92 -36 -79 -14
-197 -45 -243 -63 -8 -2 -24 13 -39 39 -14 24 -42 60 -63 80 -40 39 -127 83
-143 73 -17 -11 -11 -57 14 -99 13 -23 29 -59 36 -80 13 -40 99 -136 121 -136
7 0 32 10 57 21 30 15 74 24 145 29 141 10 279 67 306 127 6 12 31 35 56 51
109 68 129 182 40 230 -48 25 -108 22 -240 -12z"/>
<path d="M1830 1481 c-41 -21 -129 -55 -195 -75 -128 -38 -283 -90 -377 -126
-43 -16 -58 -26 -58 -41 0 -16 7 -19 43 -19 23 0 76 6 117 14 41 8 105 17 141
21 l66 7 12 -33 c20 -59 2 -72 -183 -130 -152 -48 -164 -54 -155 -71 25 -46
83 -43 345 19 17 4 24 -2 33 -28 12 -35 15 -99 4 -99 -30 0 -455 -102 -606
-146 -103 -30 -203 -54 -221 -54 -38 0 -83 -30 -72 -48 10 -16 193 -15 276 2
36 7 135 34 220 59 157 46 408 102 417 93 3 -3 9 -42 14 -88 12 -101 -2 -258
-32 -370 l-21 -78 -54 0 c-54 0 -116 -18 -128 -38 -10 -16 49 -87 88 -106 20
-9 58 -20 86 -23 48 -6 51 -4 85 33 70 76 88 166 103 529 l7 170 95 13 c52 7
218 14 368 16 244 3 275 6 292 21 28 25 25 60 -7 85 -27 22 -34 22 -218 17
-122 -3 -231 -12 -305 -25 -63 -11 -143 -23 -177 -27 -62 -7 -62 -7 -69 22 -4
15 -8 48 -8 72 l-1 44 77 14 c82 13 203 56 236 82 15 12 18 21 11 39 -11 29
-31 28 -198 -4 -73 -14 -138 -23 -143 -22 -6 2 -18 25 -28 51 l-18 47 26 6
c69 15 211 57 250 74 39 17 42 22 42 57 0 47 -8 59 -43 72 -42 16 -55 13 -137
-28z"/>
</g>
</svg>
