<?xml version="1.0" standalone="no"?>
<!DOCTYPE svg PUBLIC "-//W3C//DTD SVG 20010904//EN"
 "http://www.w3.org/TR/2001/REC-SVG-20010904/DTD/svg10.dtd">
<svg version="1.0" xmlns="http://www.w3.org/2000/svg"
 width="340.000000pt" height="340.000000pt" viewBox="0 0 340.000000 340.000000"
 preserveAspectRatio="xMidYMid meet">
<metadata>
Created by potrace 1.15, written by Peter Selinger 2001-2017
</metadata>
<g transform="translate(0.000000,340.000000) scale(0.100000,-0.100000)"
fill="#000000" stroke="none">
<path d="M1253 2393 c-7 -2 -13 -16 -13 -29 0 -25 -43 -74 -64 -74 -26 0 -215
-103 -259 -141 -38 -33 -45 -44 -36 -55 37 -45 260 26 462 150 67 40 68 42 63
76 -8 49 -46 80 -99 79 -23 0 -48 -3 -54 -6z"/>
<path d="M2417 2302 c-14 -35 -23 -42 -69 -57 -68 -22 -173 -77 -218 -114 -29
-24 -32 -31 -21 -44 22 -27 65 -29 152 -7 163 40 308 112 310 153 4 71 -19 98
-89 105 l-49 4 -16 -40z"/>
<path d="M1660 2200 c0 -38 32 -84 120 -175 48 -49 113 -124 145 -165 80 -106
124 -123 156 -64 12 24 10 32 -26 102 -53 105 -160 210 -277 275 -96 52 -118
57 -118 27z"/>
<path d="M992 2018 c-16 -16 -15 -33 8 -98 11 -30 19 -69 20 -86 0 -50 -57
-92 -212 -153 -73 -29 -84 -42 -57 -67 20 -18 23 -17 145 23 l124 41 0 -53 c0
-59 -18 -250 -26 -277 -6 -21 -173 -117 -366 -211 -152 -74 -173 -93 -127
-118 12 -6 40 -9 63 -7 50 6 228 89 325 152 39 25 73 46 74 46 2 0 -1 -35 -6
-77 -13 -112 -105 -350 -217 -561 -53 -98 -60 -126 -34 -136 21 -8 60 34 139
153 131 198 163 282 240 626 l16 71 48 17 c55 19 135 76 175 124 l27 32 -26
17 c-32 21 -85 14 -128 -19 -40 -30 -65 -39 -72 -27 -3 5 4 75 16 154 l22 144
53 22 c48 19 114 77 114 99 0 25 -104 40 -153 22 -23 -9 -25 -7 -36 44 -9 41
-21 62 -47 84 -36 32 -81 40 -102 19z"/>
<path d="M2249 1991 c-10 -35 -9 -49 10 -106 25 -76 27 -132 6 -162 -8 -12
-60 -39 -122 -63 -59 -24 -110 -45 -112 -46 -2 -2 2 -10 9 -19 17 -21 58 -19
162 7 49 11 90 19 92 17 2 -2 6 -65 8 -139 l3 -134 -183 -65 c-100 -36 -181
-70 -179 -76 2 -5 15 -15 28 -22 22 -10 49 -7 179 22 84 19 156 35 158 35 7 0
-7 -769 -14 -814 -6 -38 -7 -38 -45 -33 -22 3 -61 19 -88 36 -49 32 -75 37
-100 22 -19 -13 16 -88 70 -146 116 -126 246 -138 280 -27 7 24 13 206 16 515
6 476 6 479 27 486 43 16 157 33 266 39 107 7 114 8 133 33 23 32 17 60 -19
84 -23 15 -37 15 -129 5 -57 -7 -141 -20 -187 -30 -46 -10 -85 -17 -86 -15 -9
8 -14 167 -8 217 l7 56 40 6 c70 11 189 84 189 115 0 19 -102 34 -150 21 -85
-22 -83 -23 -97 58 -17 104 -48 143 -120 158 -30 6 -32 4 -44 -35z"/>
<path d="M1464 1973 c-8 -21 -23 -56 -32 -78 -8 -22 -28 -55 -44 -73 -60 -70
-99 -152 -113 -234 l-6 -37 29 10 c48 17 99 67 160 157 65 97 87 145 97 215 9
56 -4 77 -46 77 -24 0 -32 -7 -45 -37z"/>
<path d="M1625 1548 c-167 -76 -260 -129 -260 -149 0 -23 62 -23 116 0 26 12
50 21 53 21 24 0 -33 -179 -98 -307 -53 -105 -121 -204 -205 -296 -45 -50 -61
-75 -61 -97 0 -16 4 -31 9 -34 15 -10 126 72 189 138 151 162 252 357 284 549
13 76 19 82 96 93 48 6 52 5 62 -18 24 -51 -55 -410 -135 -621 -36 -93 -47
-109 -60 -87 -11 18 -63 40 -79 34 -8 -3 -20 -20 -26 -38 -13 -41 8 -108 47
-148 23 -24 35 -28 80 -28 38 0 58 5 71 18 22 22 88 203 143 396 23 78 53 175
67 216 32 96 36 225 8 318 -22 73 -39 88 -111 97 -46 6 -61 1 -190 -57z"/>
</g>
</svg>
