<?xml version="1.0" standalone="no"?>
<!DOCTYPE svg PUBLIC "-//W3C//DTD SVG 20010904//EN"
 "http://www.w3.org/TR/2001/REC-SVG-20010904/DTD/svg10.dtd">
<svg version="1.0" xmlns="http://www.w3.org/2000/svg"
 width="340.000000pt" height="340.000000pt" viewBox="0 0 340.000000 340.000000"
 preserveAspectRatio="xMidYMid meet">
<metadata>
Created by potrace 1.15, written by Peter Selinger 2001-2017
</metadata>
<g transform="translate(0.000000,340.000000) scale(0.100000,-0.100000)"
fill="#000000" stroke="none">
<path d="M934 2487 c-21 -19 -26 -29 -20 -50 3 -14 15 -28 26 -32 10 -3 21
-14 24 -23 10 -32 26 -275 26 -392 0 -157 -6 -166 -160 -241 -63 -32 -168 -78
-233 -105 -88 -35 -117 -51 -115 -63 7 -36 76 -23 288 53 141 50 207 70 212
62 4 -6 7 -96 7 -201 l-1 -190 -111 -101 c-234 -213 -332 -292 -362 -296 -25
-2 -30 -8 -33 -34 -3 -35 32 -80 71 -89 47 -12 93 24 259 200 l163 173 8 -57
c8 -55 3 -382 -10 -574 -6 -94 -7 -98 -27 -92 -59 19 -73 18 -79 -7 -10 -38
11 -94 48 -134 33 -35 38 -36 85 -32 86 9 80 -31 80 515 l0 485 54 59 c56 62
125 179 106 179 -23 0 -78 -29 -114 -60 -20 -18 -39 -30 -42 -27 -10 10 -17
193 -10 268 l7 75 47 24 c55 29 78 68 65 107 -9 25 -13 27 -55 24 -31 -1 -47
2 -50 11 -3 7 -1 60 4 118 5 58 8 174 6 258 l-3 154 -33 29 c-41 37 -89 39
-128 6z"/>
<path d="M2172 2487 c-13 -15 4 -78 31 -118 13 -18 9 -30 -45 -127 -33 -59
-89 -165 -125 -235 -50 -101 -62 -132 -52 -143 9 -11 15 -11 39 1 29 15 125
121 164 182 20 31 24 33 86 33 137 1 357 59 400 105 20 21 22 30 14 53 -9 25
-14 27 -54 24 -66 -4 -188 -37 -280 -76 -94 -40 -94 -39 -33 71 55 100 44 170
-33 215 -44 25 -98 32 -112 15z"/>
<path d="M1717 2433 c-24 -27 -22 -41 19 -119 l36 -69 -5 -151 c-5 -141 4
-330 18 -396 8 -35 48 -39 65 -7 13 23 13 28 36 372 18 276 16 302 -35 351
-39 37 -108 47 -134 19z"/>
<path d="M1341 2326 c-9 -11 -6 -22 13 -50 40 -59 58 -161 67 -376 7 -187 25
-299 50 -325 7 -7 19 0 36 19 l25 30 -5 195 c-4 199 -18 296 -58 433 -12 42
-27 72 -39 78 -27 14 -76 12 -89 -4z"/>
<path d="M2203 1913 c-28 -11 -10 -42 50 -89 81 -65 120 -88 200 -118 l65 -25
16 34 c18 38 13 75 -13 99 -26 24 -139 72 -212 90 -67 16 -85 18 -106 9z"/>
<path d="M2025 1663 c-77 -11 -198 -48 -288 -90 -88 -40 -104 -45 -147 -39
-37 5 -52 3 -64 -9 -20 -21 -20 -39 1 -95 15 -38 18 -86 19 -316 0 -149 4
-276 8 -282 12 -20 35 -13 50 16 42 81 64 362 43 548 l-8 71 88 21 c122 30
253 52 350 59 81 6 82 6 111 -24 40 -40 47 -92 45 -368 -1 -171 -4 -231 -17
-270 -27 -86 -21 -106 40 -119 30 -7 32 -5 57 51 42 96 48 133 53 371 5 260
-3 310 -72 414 -34 51 -41 56 -82 62 -47 6 -137 6 -187 -1z"/>
<path d="M1906 1355 c-4 -19 -6 -70 -5 -113 2 -65 -3 -89 -29 -157 -90 -229
-214 -421 -416 -641 -93 -101 -112 -136 -81 -148 28 -10 233 179 353 327 97
120 201 273 237 350 48 101 65 176 65 284 l0 93 -32 20 c-18 11 -45 20 -59 20
-23 0 -28 -5 -33 -35z"/>
<path d="M1975 843 c-3 -49 -10 -119 -16 -157 -5 -37 -12 -124 -16 -191 -6
-120 -5 -124 20 -167 34 -59 97 -114 166 -147 53 -24 66 -26 241 -29 102 -2
241 1 310 7 l125 11 42 45 c50 54 73 118 73 200 0 72 -19 99 -66 93 -30 -3
-46 -34 -58 -108 -4 -20 -18 -51 -34 -69 -37 -45 -106 -62 -268 -68 -111 -4
-143 -2 -215 16 -46 12 -104 31 -129 44 -41 20 -47 27 -69 92 -19 58 -23 87
-21 170 5 191 2 228 -20 288 -15 41 -27 57 -40 57 -16 0 -19 -12 -25 -87z"/>
</g>
</svg>
