<?xml version="1.0" standalone="no"?>
<!DOCTYPE svg PUBLIC "-//W3C//DTD SVG 20010904//EN"
 "http://www.w3.org/TR/2001/REC-SVG-20010904/DTD/svg10.dtd">
<svg version="1.0" xmlns="http://www.w3.org/2000/svg"
 width="340.000000pt" height="340.000000pt" viewBox="0 0 340.000000 340.000000"
 preserveAspectRatio="xMidYMid meet">
<metadata>
Created by potrace 1.15, written by Peter Selinger 2001-2017
</metadata>
<g transform="translate(0.000000,340.000000) scale(0.100000,-0.100000)"
fill="#000000" stroke="none">
<path d="M987 2449 c-23 -17 -27 -27 -22 -48 4 -14 14 -34 22 -43 13 -15 17
-54 21 -212 3 -107 2 -206 -2 -220 -5 -21 -27 -36 -114 -80 -59 -29 -136 -64
-172 -76 -83 -29 -88 -34 -56 -55 24 -16 30 -15 153 24 70 22 143 43 162 47
l34 6 -6 -158 c-4 -88 -7 -204 -7 -259 l0 -100 -91 -75 c-173 -143 -307 -237
-346 -245 -57 -10 -73 -22 -73 -55 0 -39 21 -57 74 -65 102 -16 156 16 306
179 63 68 118 125 121 125 13 2 22 -275 15 -463 -8 -215 -10 -231 -34 -220
-32 14 -87 15 -105 2 -16 -12 -16 -16 -2 -60 20 -57 74 -114 133 -140 44 -20
45 -20 71 -1 45 34 49 66 39 323 -5 129 -8 330 -6 446 l3 211 55 60 c55 59
117 159 106 170 -9 9 -66 -18 -112 -53 l-42 -32 -7 79 c-4 43 -4 144 0 223 l7
144 70 23 c66 21 152 68 214 117 l29 22 -24 20 c-34 29 -76 25 -171 -20 -47
-22 -89 -40 -95 -40 -6 0 -10 83 -10 230 l0 229 -25 26 c-37 36 -79 42 -113
14z"/>
<path d="M1600 2336 c0 -51 145 -207 211 -226 37 -11 89 -2 96 16 6 17 -32
103 -60 132 -12 13 -43 35 -68 47 -50 26 -179 48 -179 31z"/>
<path d="M2415 2189 c-93 -16 -197 -33 -230 -37 -51 -6 -60 -10 -63 -28 -3
-18 3 -22 40 -28 108 -15 272 -19 351 -6 78 12 86 11 129 -7 81 -36 83 -44
107 -518 48 -914 56 -1205 34 -1205 -3 0 -19 11 -35 26 -40 33 -79 29 -92 -8
-8 -22 -5 -38 14 -77 39 -85 106 -131 189 -131 l40 0 10 52 c17 82 17 147 -2
368 -27 323 -37 563 -43 1020 -3 234 -10 442 -15 463 -13 48 -59 101 -108 120
-72 29 -145 29 -326 -4z"/>
<path d="M2030 1997 c-19 -9 -26 -22 -28 -52 -3 -28 -23 -68 -77 -149 -86
-130 -175 -296 -168 -313 9 -24 45 -13 84 27 22 22 47 40 57 40 9 0 52 -20 95
-43 l78 -43 -57 -64 c-96 -108 -254 -338 -254 -370 0 -15 22 -12 57 9 l31 20
40 -107 c40 -109 78 -233 108 -354 12 -50 21 -68 33 -68 26 0 41 21 41 56 0
58 33 64 175 34 27 -5 65 -7 85 -4 37 7 105 38 114 52 3 5 -4 32 -16 59 l-21
50 27 66 c40 101 34 258 -12 295 -37 29 -182 8 -290 -43 -99 -47 -130 -51
-185 -27 -24 11 -47 25 -51 31 -6 10 155 192 249 281 l37 35 190 -98 c178 -91
192 -97 213 -83 31 21 36 49 14 85 -15 25 -54 48 -184 111 l-166 80 47 58 c58
71 101 160 116 242 11 58 10 63 -7 76 -67 49 -149 39 -220 -27 -23 -21 -50
-39 -59 -39 -19 0 -20 7 -1 40 30 52 15 109 -35 135 -35 18 -29 18 -60 2z
m220 -222 c16 -19 6 -44 -56 -135 -75 -111 -58 -104 -163 -69 -51 17 -91 34
-89 38 2 4 30 44 63 89 l60 81 60 3 c33 2 72 5 86 6 15 1 32 -5 39 -13z m74
-773 c9 -15 -36 -237 -51 -249 -8 -6 -44 -16 -81 -22 -37 -7 -81 -14 -98 -17
l-31 -6 -7 66 c-4 36 -15 94 -26 129 -11 34 -20 65 -20 69 0 7 73 18 190 28
47 4 93 8 102 9 9 0 19 -3 22 -7z"/>
<path d="M1441 1862 c-16 -31 -14 -44 18 -93 26 -39 31 -61 45 -188 38 -332
30 -729 -20 -1006 -39 -219 -40 -237 -16 -259 23 -20 53 -17 84 7 40 31 59
301 74 1047 6 313 5 351 -10 398 -21 62 -66 101 -125 109 -32 4 -41 2 -50 -15z"/>
</g>
</svg>
