<?xml version="1.0" standalone="no"?>
<!DOCTYPE svg PUBLIC "-//W3C//DTD SVG 20010904//EN"
 "http://www.w3.org/TR/2001/REC-SVG-20010904/DTD/svg10.dtd">
<svg version="1.0" xmlns="http://www.w3.org/2000/svg"
 width="340.000000pt" height="340.000000pt" viewBox="0 0 340.000000 340.000000"
 preserveAspectRatio="xMidYMid meet">
<metadata>
Created by potrace 1.15, written by Peter Selinger 2001-2017
</metadata>
<g transform="translate(0.000000,340.000000) scale(0.100000,-0.100000)"
fill="#000000" stroke="none">
<path d="M908 2304 c-35 -18 -35 -39 -1 -105 27 -52 28 -53 28 -268 l0 -215
-175 -74 c-96 -40 -188 -79 -204 -85 l-28 -12 19 -24 c13 -16 30 -24 49 -24
23 0 264 71 339 99 13 5 15 -17 15 -183 l0 -189 -129 -97 c-231 -173 -348
-247 -391 -247 -46 0 -64 -19 -55 -59 10 -44 52 -74 94 -67 46 7 81 32 283
199 96 79 180 147 188 152 11 7 12 -41 7 -310 -4 -175 -9 -320 -10 -322 -2 -2
-17 4 -34 12 -23 11 -37 13 -57 5 -22 -8 -26 -16 -26 -47 0 -53 40 -131 88
-176 48 -43 56 -44 99 -17 47 28 59 76 44 188 -6 50 -11 230 -11 418 l0 330
31 30 c33 31 74 102 65 112 -3 3 -24 -2 -47 -11 -23 -9 -46 -14 -52 -10 -10 6
-4 285 7 313 4 9 30 20 67 27 79 15 172 69 159 93 -5 10 -23 23 -41 30 -26 11
-40 11 -78 0 -25 -7 -58 -15 -73 -18 l-28 -4 0 265 0 266 -26 20 c-31 24 -78
26 -116 5z"/>
<path d="M1441 2277 c-18 -22 13 -51 104 -93 53 -26 92 -37 145 -41 l73 -6 -6
44 c-4 32 -14 51 -37 72 -27 24 -38 27 -104 27 -40 0 -93 3 -117 6 -34 5 -48
2 -58 -9z"/>
<path d="M2202 2248 c-18 -18 -14 -70 7 -97 17 -23 17 -28 3 -90 -25 -111 -80
-259 -157 -421 -67 -142 -125 -292 -125 -326 0 -8 9 -14 20 -14 13 0 37 24 72
75 51 74 52 75 89 69 24 -4 59 1 100 14 35 12 102 33 149 48 47 14 134 49 193
77 l108 51 -3 35 -3 36 -50 -1 c-42 -1 -86 -18 -274 -108 -123 -59 -226 -105
-229 -102 -8 9 26 89 70 162 91 152 188 393 188 471 0 73 -53 133 -117 133
-16 0 -34 -5 -41 -12z"/>
<path d="M1655 2060 c-143 -54 -296 -108 -340 -120 -115 -30 -109 -28 -95 -45
15 -18 73 -20 134 -4 24 6 55 9 69 7 l26 -3 -43 -101 c-23 -55 -66 -142 -95
-192 -50 -87 -52 -94 -41 -127 26 -78 81 -75 260 15 169 84 313 145 317 134 2
-5 12 -24 23 -42 24 -39 55 -53 93 -40 25 9 27 13 21 47 -22 118 -84 207 -182
259 -66 35 -97 40 -106 16 -7 -19 7 -48 45 -92 47 -54 41 -61 -88 -101 -56
-17 -123 -40 -149 -51 -26 -11 -49 -18 -51 -16 -3 2 16 42 41 88 34 63 49 104
59 164 l13 79 66 22 c36 12 121 34 189 47 104 21 128 30 147 51 34 40 29 73
-13 91 -19 7 -36 13 -37 13 -2 -1 -120 -45 -263 -99z"/>
<path d="M2278 1438 c-29 -45 -42 -105 -44 -208 -1 -97 -24 -223 -43 -243 -5
-5 -30 22 -57 60 -58 81 -212 235 -226 227 -17 -11 1 -67 31 -99 34 -36 68
-87 150 -223 l62 -103 -64 -102 c-82 -131 -182 -317 -169 -317 43 0 79 30 171
144 54 67 106 137 116 154 11 18 22 32 25 32 3 -1 30 -33 60 -72 83 -109 291
-315 336 -335 79 -33 333 -27 356 10 4 7 8 22 8 35 0 27 -21 36 -105 46 -61 7
-104 25 -235 99 -147 83 -255 172 -341 280 l-39 48 19 37 c59 116 86 310 62
448 -11 62 -32 104 -51 104 -4 0 -14 -10 -22 -22z"/>
<path d="M1600 1401 c-231 -105 -228 -102 -216 -209 12 -107 -16 -485 -55
-754 -22 -155 -19 -178 30 -178 27 0 30 4 44 63 18 72 43 215 52 305 7 60 8
62 36 62 62 0 209 77 209 110 0 10 -56 30 -85 30 -12 0 -43 -11 -69 -25 -77
-41 -80 -38 -72 58 3 45 9 98 12 118 l6 36 49 -5 c26 -2 59 -2 73 2 34 8 66
44 66 73 0 32 -66 49 -135 35 -27 -5 -51 -9 -53 -8 -7 7 -22 119 -17 135 4 14
30 22 123 38 64 12 119 19 122 16 16 -16 36 -581 25 -745 l-7 -117 -34 17
c-71 33 -101 -29 -56 -118 35 -70 78 -100 143 -100 27 0 49 2 49 4 0 2 5 28
11 57 8 37 11 218 9 558 -2 551 -1 546 -60 576 -47 24 -88 17 -200 -34z"/>
</g>
</svg>
