<?xml version="1.0" standalone="no"?>
<!DOCTYPE svg PUBLIC "-//W3C//DTD SVG 20010904//EN"
 "http://www.w3.org/TR/2001/REC-SVG-20010904/DTD/svg10.dtd">
<svg version="1.0" xmlns="http://www.w3.org/2000/svg"
 width="340.000000pt" height="340.000000pt" viewBox="0 0 340.000000 340.000000"
 preserveAspectRatio="xMidYMid meet">
<metadata>
Created by potrace 1.15, written by Peter Selinger 2001-2017
</metadata>
<g transform="translate(0.000000,340.000000) scale(0.100000,-0.100000)"
fill="#000000" stroke="none">
<path d="M1114 2385 c-8 -31 0 -75 22 -121 16 -33 16 -34 -35 -128 -135 -254
-330 -542 -519 -765 -61 -73 -77 -103 -69 -125 15 -38 53 -16 153 87 207 211
449 536 549 737 49 97 76 181 70 212 -12 54 -70 106 -137 122 -24 5 -28 3 -34
-19z"/>
<path d="M1880 2367 c0 -42 17 -79 48 -105 21 -16 11 -44 -84 -237 -71 -145
-182 -327 -286 -467 -40 -54 -49 -74 -46 -100 2 -26 8 -34 26 -36 30 -4 43 7
118 102 l62 78 74 3 c47 2 142 20 268 53 107 27 274 66 370 86 169 35 210 50
234 88 16 26 -4 72 -34 77 -39 5 -157 -19 -250 -51 -47 -16 -151 -50 -232 -74
-80 -24 -196 -62 -258 -84 -61 -22 -114 -40 -116 -40 -14 0 3 33 55 109 136
200 251 422 251 483 0 70 -38 119 -105 136 -103 26 -95 27 -95 -21z"/>
<path d="M1286 1854 c-3 -26 0 -77 8 -117 31 -160 26 -620 -8 -752 -28 -104
-15 -305 19 -305 23 0 63 40 69 68 7 30 27 292 55 708 21 302 18 349 -22 393
-22 24 -75 51 -100 51 -9 0 -17 -16 -21 -46z"/>
<path d="M2119 1595 c-12 -27 -23 -85 -29 -149 -5 -57 -18 -142 -30 -187 -25
-99 -70 -241 -80 -252 -4 -4 -42 34 -86 84 -90 104 -262 269 -282 269 -19 0
-25 -26 -11 -51 7 -13 83 -112 171 -221 87 -109 158 -202 158 -208 0 -17 -59
-129 -105 -201 -62 -96 -172 -217 -262 -289 -43 -34 -85 -72 -94 -83 -18 -25
-33 -77 -22 -77 4 0 50 21 103 46 83 41 107 59 190 143 93 94 195 228 249 323
14 26 28 47 31 47 3 0 46 -52 95 -116 50 -63 160 -187 245 -274 143 -146 159
-159 210 -174 68 -20 221 -30 275 -18 34 7 41 13 43 36 5 39 -12 55 -66 63
-96 14 -343 159 -466 275 -90 84 -194 192 -249 259 l-45 54 15 36 c66 149 143
421 159 562 8 70 -7 113 -47 133 -42 22 -48 19 -70 -30z"/>
<path d="M935 1559 c-15 -37 -19 -87 -26 -329 -10 -388 -51 -825 -85 -905 -24
-58 -18 -99 17 -129 17 -14 34 -26 38 -26 15 0 70 116 85 180 24 102 55 630
56 928 0 196 -8 252 -44 297 l-23 28 -18 -44z"/>
</g>
</svg>
