<?xml version="1.0" standalone="no"?>
<!DOCTYPE svg PUBLIC "-//W3C//DTD SVG 20010904//EN"
 "http://www.w3.org/TR/2001/REC-SVG-20010904/DTD/svg10.dtd">
<svg version="1.0" xmlns="http://www.w3.org/2000/svg"
 width="340.000000pt" height="340.000000pt" viewBox="0 0 340.000000 340.000000"
 preserveAspectRatio="xMidYMid meet">
<metadata>
Created by potrace 1.15, written by Peter Selinger 2001-2017
</metadata>
<g transform="translate(0.000000,340.000000) scale(0.100000,-0.100000)"
fill="#000000" stroke="none">
<path d="M2127 2355 c-14 -34 -6 -74 19 -104 l25 -30 -41 -98 c-83 -193 -177
-369 -301 -558 -85 -130 -98 -168 -62 -173 17 -2 38 17 96 86 200 240 432 619
444 724 10 85 -46 156 -131 165 -34 4 -44 2 -49 -12z"/>
<path d="M997 2313 c-19 -18 -5 -51 31 -71 20 -11 88 -69 151 -127 122 -112
150 -125 186 -85 16 18 17 25 6 62 -17 54 -96 137 -169 176 -73 38 -187 64
-205 45z"/>
<path d="M1345 1896 c-137 -46 -353 -122 -480 -169 -232 -86 -339 -120 -407
-132 -43 -7 -46 -14 -17 -41 18 -16 36 -19 108 -18 95 2 147 16 301 84 101 45
351 131 361 124 14 -8 19 -86 9 -131 -6 -27 -22 -70 -34 -98 -13 -27 -36 -79
-51 -115 -109 -262 -323 -596 -533 -833 -59 -67 -87 -120 -80 -153 2 -12 18
-4 68 34 84 64 117 100 232 252 124 163 249 350 329 494 74 133 48 125 234 72
l110 -31 -1 -60 c-1 -47 -12 -87 -53 -190 -54 -133 -193 -424 -254 -529 l-34
-58 -27 47 c-20 33 -40 52 -69 66 -61 27 -73 25 -80 -16 -10 -60 18 -131 73
-186 74 -74 134 -75 201 -2 31 32 171 325 297 618 72 168 86 211 90 267 3 56
1 73 -19 107 -37 66 -80 81 -232 81 -70 0 -127 3 -127 6 0 3 11 25 25 48 46
78 67 155 74 266 l6 105 80 7 c98 9 149 22 198 54 41 27 47 51 20 82 -34 40
-58 36 -318 -52z"/>
<path d="M2470 1760 c-140 -37 -366 -112 -458 -151 -44 -19 -44 -20 -27 -39
20 -23 44 -22 205 6 66 12 390 94 513 130 9 3 24 19 33 35 36 71 -47 77 -266
19z"/>
<path d="M2240 1474 c-14 -35 -12 -54 6 -89 15 -28 13 -36 -41 -200 -31 -94
-60 -177 -65 -184 -6 -11 -30 8 -102 80 -130 131 -281 237 -298 208 -13 -19
-1 -41 45 -84 23 -22 100 -106 169 -187 102 -118 126 -152 121 -169 -4 -11
-33 -60 -65 -108 -93 -139 -237 -264 -396 -344 -57 -29 -70 -41 -79 -78 l-6
-26 63 9 c182 28 393 186 528 396 25 39 48 70 51 69 3 -1 54 -55 114 -120 109
-120 327 -325 397 -374 49 -34 125 -53 209 -53 100 0 129 8 129 36 0 39 -39
73 -97 84 -164 30 -495 269 -667 483 l-39 47 46 98 c54 116 89 213 117 322 29
112 11 175 -57 201 -44 17 -73 11 -83 -17z"/>
</g>
</svg>
