<?xml version="1.0" standalone="no"?>
<!DOCTYPE svg PUBLIC "-//W3C//DTD SVG 20010904//EN"
 "http://www.w3.org/TR/2001/REC-SVG-20010904/DTD/svg10.dtd">
<svg version="1.0" xmlns="http://www.w3.org/2000/svg"
 width="340.000000pt" height="340.000000pt" viewBox="0 0 340.000000 340.000000"
 preserveAspectRatio="xMidYMid meet">
<metadata>
Created by potrace 1.15, written by Peter Selinger 2001-2017
</metadata>
<g transform="translate(0.000000,340.000000) scale(0.100000,-0.100000)"
fill="#000000" stroke="none">
<path d="M1920 2251 c-13 -9 -11 -18 13 -66 15 -30 27 -71 27 -90 0 -55 -148
-343 -316 -616 -85 -137 -95 -163 -70 -172 27 -10 73 32 154 140 l82 110 143
6 c217 7 410 54 533 129 59 35 65 51 33 92 -25 32 -60 34 -114 5 -35 -19 -527
-189 -547 -189 -22 0 -2 43 57 125 80 111 134 213 175 331 30 87 31 93 16 122
-9 17 -30 40 -47 53 -35 24 -115 36 -139 20z"/>
<path d="M957 2223 c-16 -15 -3 -33 53 -72 74 -52 145 -84 232 -104 74 -16 78
-14 78 43 0 44 -10 59 -50 80 -67 34 -294 73 -313 53z"/>
<path d="M1180 1856 c-168 -62 -359 -134 -425 -161 -66 -26 -144 -52 -174 -59
-59 -12 -85 -36 -63 -58 9 -9 40 -13 90 -12 62 1 96 8 174 37 l96 36 4 -52 c3
-51 1 -55 -100 -217 -57 -91 -137 -213 -178 -272 -78 -113 -90 -148 -51 -148
44 0 282 265 418 467 42 62 49 79 49 121 0 53 -24 96 -60 107 -11 4 -20 10
-20 14 0 20 345 129 485 152 87 15 135 47 135 91 0 27 -38 69 -61 67 -8 0
-151 -51 -319 -113z"/>
<path d="M1250 1665 c0 -27 38 -80 93 -128 72 -63 119 -87 171 -87 57 0 65 6
55 47 -18 80 -72 122 -198 152 -91 21 -121 25 -121 16z"/>
<path d="M1221 1485 c-14 -38 -21 -79 -21 -128 0 -55 -8 -96 -30 -162 -17 -49
-34 -93 -39 -98 -6 -6 -37 12 -78 45 -154 121 -163 126 -163 81 0 -20 24 -57
76 -123 127 -159 119 -136 74 -213 -82 -142 -203 -275 -349 -386 -79 -60 -91
-75 -91 -112 0 -24 15 -21 105 22 127 59 292 213 398 371 29 43 54 77 57 78 8
0 130 -176 193 -279 66 -107 79 -121 117 -121 36 0 60 29 60 73 0 53 -98 208
-242 383 l-58 71 30 64 c48 103 70 207 70 329 0 98 -2 108 -22 127 -13 11 -33
24 -45 27 -19 6 -24 0 -42 -49z"/>
<path d="M2060 1464 c-8 -24 -10 -53 -4 -83 18 -104 4 -272 -33 -400 l-15 -54
-148 148 c-81 81 -153 145 -158 141 -14 -8 -5 -34 23 -66 12 -14 43 -57 68
-96 26 -40 76 -111 112 -158 l66 -87 -37 -61 c-89 -146 -222 -281 -352 -354
-110 -63 -137 -100 -92 -124 16 -9 36 -3 104 28 160 75 298 188 399 327 28 39
53 73 57 78 4 4 44 -38 90 -93 105 -128 300 -313 358 -341 34 -17 68 -23 155
-26 62 -2 132 0 157 4 41 8 45 11 48 39 4 39 -11 51 -79 64 -64 12 -284 119
-384 185 -97 66 -182 142 -248 223 l-56 68 29 75 c46 120 70 258 70 409 l0
132 -29 29 c-20 19 -40 29 -59 29 -26 0 -32 -5 -42 -36z"/>
</g>
</svg>
