<?xml version="1.0" standalone="no"?>
<!DOCTYPE svg PUBLIC "-//W3C//DTD SVG 20010904//EN"
 "http://www.w3.org/TR/2001/REC-SVG-20010904/DTD/svg10.dtd">
<svg version="1.0" xmlns="http://www.w3.org/2000/svg"
 width="340.000000pt" height="340.000000pt" viewBox="0 0 340.000000 340.000000"
 preserveAspectRatio="xMidYMid meet">
<metadata>
Created by potrace 1.15, written by Peter Selinger 2001-2017
</metadata>
<g transform="translate(0.000000,340.000000) scale(0.100000,-0.100000)"
fill="#000000" stroke="none">
<path d="M1821 2476 c-8 -10 -6 -25 10 -62 18 -40 23 -80 31 -229 9 -154 5
-751 -4 -760 -2 -2 -70 -15 -153 -29 -217 -38 -444 -90 -655 -151 -135 -38
-210 -54 -280 -59 -52 -4 -96 -9 -99 -12 -3 -2 -1 -17 5 -32 6 -17 25 -35 54
-49 84 -43 244 -25 398 46 153 70 388 135 635 177 54 9 100 15 102 13 2 -3 9
-256 15 -564 7 -311 16 -568 22 -578 13 -25 31 -17 40 19 22 88 40 389 45 750
l6 392 41 7 c22 4 171 9 331 11 306 3 321 6 351 51 18 29 10 43 -41 67 -69 33
-126 37 -252 16 -128 -21 -371 -50 -417 -50 l-28 0 3 479 c4 474 4 480 -17
508 -11 15 -32 34 -45 40 -32 17 -84 16 -98 -1z"/>
<path d="M1261 2166 c-12 -14 -2 -26 70 -95 100 -94 192 -171 206 -171 23 0
53 42 53 74 0 69 -83 142 -202 179 -89 28 -113 30 -127 13z"/>
<path d="M1045 1729 c-10 -14 41 -85 90 -125 50 -41 135 -81 192 -90 39 -6 43
-4 48 17 10 40 -16 101 -54 126 -35 24 -213 83 -249 83 -11 0 -24 -5 -27 -11z"/>
</g>
</svg>
