<?xml version="1.0" standalone="no"?>
<!DOCTYPE svg PUBLIC "-//W3C//DTD SVG 20010904//EN"
 "http://www.w3.org/TR/2001/REC-SVG-20010904/DTD/svg10.dtd">
<svg version="1.0" xmlns="http://www.w3.org/2000/svg"
 width="340.000000pt" height="340.000000pt" viewBox="0 0 340.000000 340.000000"
 preserveAspectRatio="xMidYMid meet">
<metadata>
Created by potrace 1.15, written by Peter Selinger 2001-2017
</metadata>
<g transform="translate(0.000000,340.000000) scale(0.100000,-0.100000)"
fill="#000000" stroke="none">
<path d="M1680 2590 c-10 -6 -11 -12 -5 -19 23 -21 515 -191 555 -191 30 0 70
25 70 45 0 49 -119 114 -274 150 -76 18 -325 29 -346 15z"/>
<path d="M1109 2546 c-20 -10 -24 -20 -24 -59 0 -46 -1 -48 -55 -84 -126 -84
-350 -282 -350 -309 0 -21 44 -27 81 -11 19 8 84 44 144 81 l110 68 105 -42
c107 -43 270 -128 270 -141 0 -15 -224 -221 -313 -288 -123 -92 -223 -153
-385 -235 -94 -48 -140 -77 -158 -102 -15 -19 -24 -37 -20 -41 12 -12 181 37
263 76 177 85 414 253 616 436 l118 106 352 -203 c194 -111 386 -219 427 -240
140 -69 308 -84 465 -42 77 20 105 38 105 68 0 36 -17 43 -125 50 -137 10
-305 33 -384 52 -115 29 -376 154 -642 309 -63 36 -115 68 -118 70 -2 3 37 47
87 100 97 101 172 214 172 259 0 26 -47 86 -67 86 -4 0 -23 -9 -40 -20 -25
-15 -33 -27 -33 -48 0 -17 -12 -44 -27 -64 -40 -49 -216 -248 -220 -248 -2 0
-21 9 -43 20 -80 41 -182 74 -330 106 -23 5 -22 7 20 34 58 36 95 76 114 122
23 55 21 95 -8 113 -39 26 -81 34 -107 21z"/>
<path d="M1623 1779 c-8 -8 -8 -18 -1 -35 19 -42 -20 -72 -154 -120 -40 -15
-121 -51 -180 -81 l-107 -54 -32 17 c-31 16 -105 22 -117 9 -8 -8 14 -66 59
-159 39 -78 39 -79 40 -202 0 -231 -44 -379 -180 -603 -38 -63 -51 -94 -51
-123 0 -37 1 -38 23 -27 46 24 91 78 157 189 80 136 141 273 171 390 13 47 24
87 25 89 3 4 348 60 371 61 6 0 19 -21 28 -47 18 -51 27 -207 41 -660 7 -265
14 -297 53 -258 32 32 52 202 61 510 6 222 1 394 -13 468 -3 14 51 23 223 37
161 14 190 24 190 69 0 49 -17 55 -152 47 -190 -11 -666 -97 -779 -141 -13 -5
-17 5 -23 62 -4 37 -18 101 -32 142 -14 40 -23 74 -22 75 2 1 68 21 148 45
246 73 422 140 447 170 23 26 29 65 15 88 -25 39 -181 70 -209 42z"/>
</g>
</svg>
