<?xml version="1.0" standalone="no"?>
<!DOCTYPE svg PUBLIC "-//W3C//DTD SVG 20010904//EN"
 "http://www.w3.org/TR/2001/REC-SVG-20010904/DTD/svg10.dtd">
<svg version="1.0" xmlns="http://www.w3.org/2000/svg"
 width="340.000000pt" height="340.000000pt" viewBox="0 0 340.000000 340.000000"
 preserveAspectRatio="xMidYMid meet">
<metadata>
Created by potrace 1.15, written by Peter Selinger 2001-2017
</metadata>
<g transform="translate(0.000000,340.000000) scale(0.100000,-0.100000)"
fill="#000000" stroke="none">
<path d="M1218 2531 c-15 -3 -37 -14 -48 -24 -21 -17 -21 -18 21 -50 67 -51
79 -84 89 -249 5 -78 10 -215 10 -304 l0 -161 -97 -46 c-198 -93 -361 -159
-367 -149 -9 16 -17 75 -25 183 -10 133 -34 200 -92 258 -39 38 -112 76 -118
60 -2 -6 11 -50 27 -97 117 -330 166 -842 113 -1163 -12 -70 -19 -133 -16
-140 3 -8 22 -25 42 -39 58 -40 124 -34 253 22 191 84 330 119 565 142 77 8
141 13 142 12 1 -1 -3 -11 -10 -22 -70 -122 -107 -221 -107 -288 l0 -30 31 30
c83 78 204 297 264 478 38 113 65 276 65 389 0 42 4 78 9 81 12 8 178 35 236
38 l50 3 22 -65 c24 -72 36 -295 49 -900 4 -175 11 -310 16 -317 7 -9 16 -10
28 -3 18 10 31 70 50 250 25 219 17 997 -9 1023 -6 6 -11 21 -11 33 0 20 7 23
73 29 91 9 195 36 270 68 51 23 57 29 57 56 0 51 -58 65 -156 37 -27 -8 -114
-29 -194 -46 -122 -27 -406 -103 -461 -125 -14 -5 -18 6 -24 81 -10 117 -27
183 -75 279 -49 102 -67 119 -128 119 -44 1 -47 -1 -50 -27 -2 -19 6 -42 22
-65 78 -113 111 -273 110 -532 0 -178 -14 -277 -60 -431 l-26 -86 -58 30 c-72
37 -154 39 -244 8 -33 -12 -61 -19 -64 -16 -6 5 -2 508 3 514 3 2 31 -21 64
-51 75 -70 180 -139 205 -136 10 2 28 15 39 30 20 26 20 27 0 65 -24 47 -120
113 -220 151 -85 32 -93 44 -93 146 0 85 6 92 90 120 64 20 165 86 165 107 0
24 -51 34 -103 20 -26 -7 -71 -19 -100 -26 l-53 -13 3 81 3 81 72 27 c101 37
153 70 233 147 78 75 84 94 44 141 -44 53 -111 38 -129 -29 -4 -14 -35 -48
-68 -76 -34 -27 -80 -73 -103 -101 l-42 -51 5 137 c6 130 -2 216 -28 313 -7
29 -18 41 -52 57 -44 21 -61 23 -109 12z m17 -953 c-4 -13 -49 -86 -100 -163
-145 -219 -250 -404 -237 -417 12 -12 49 -5 73 15 21 16 137 174 230 312 l74
110 9 -85 c7 -67 -8 -498 -17 -507 -2 -1 -275 -81 -408 -119 -14 -4 -15 14
-11 158 2 90 -2 244 -9 343 -7 99 -13 202 -13 230 l-1 50 75 -3 c70 -2 83 1
195 47 139 58 149 60 140 29z"/>
<path d="M2452 2314 c-12 -8 -22 -25 -22 -37 -1 -18 -49 -52 -250 -177 -245
-152 -279 -180 -235 -196 30 -12 245 70 450 172 160 79 185 101 185 163 0 34
-26 66 -66 81 -33 13 -36 13 -62 -6z"/>
<path d="M910 2142 c0 -16 10 -44 23 -63 12 -19 31 -53 41 -77 23 -51 71 -95
121 -112 47 -16 57 -3 52 62 -6 77 -41 118 -146 172 l-91 47 0 -29z"/>
</g>
</svg>
