<?xml version="1.0" standalone="no"?>
<!DOCTYPE svg PUBLIC "-//W3C//DTD SVG 20010904//EN"
 "http://www.w3.org/TR/2001/REC-SVG-20010904/DTD/svg10.dtd">
<svg version="1.0" xmlns="http://www.w3.org/2000/svg"
 width="340.000000pt" height="340.000000pt" viewBox="0 0 340.000000 340.000000"
 preserveAspectRatio="xMidYMid meet">
<metadata>
Created by potrace 1.15, written by Peter Selinger 2001-2017
</metadata>
<g transform="translate(0.000000,340.000000) scale(0.100000,-0.100000)"
fill="#000000" stroke="none">
<path d="M1795 2561 c-157 -24 -438 -73 -557 -97 -31 -6 -37 -28 -12 -38 32
-12 406 16 574 44 77 12 157 12 245 -1 60 -9 75 -15 75 -29 0 -39 -65 -232
-110 -327 l-48 -101 -88 -6 c-152 -11 -319 -35 -421 -61 -54 -14 -99 -25 -100
-25 -7 0 -53 166 -53 191 0 29 0 29 60 29 88 0 242 18 340 41 139 31 131 27
128 68 -3 34 -5 36 -42 39 -48 4 -121 -8 -333 -55 -177 -39 -186 -38 -198 17
-10 44 -59 106 -109 135 -41 24 -146 46 -146 31 0 -14 44 -93 76 -138 19 -25
48 -78 64 -118 48 -116 173 -370 182 -370 4 0 8 4 8 8 0 5 17 18 39 30 29 17
73 26 182 37 79 8 216 24 304 35 l160 20 66 68 c68 71 148 191 231 349 l49 92
-20 38 c-63 124 -194 147 -546 94z"/>
<path d="M1322 1730 c-13 -6 -25 -21 -28 -39 -4 -19 -14 -31 -28 -35 -42 -11
-183 -106 -253 -171 l-72 -66 -60 26 c-63 26 -96 31 -105 16 -3 -5 18 -41 47
-80 135 -187 166 -269 175 -459 5 -118 6 -123 31 -141 74 -52 117 -32 281 130
146 144 255 292 220 297 -44 7 -92 -24 -241 -153 -127 -111 -155 -131 -160
-117 -4 10 -14 79 -23 153 -18 144 -53 244 -102 290 -13 12 -24 26 -24 30 0 4
20 10 45 13 71 11 239 85 393 174 56 33 62 39 62 69 0 49 -29 73 -87 72 -27 0
-58 -4 -71 -9z"/>
<path d="M2240 1709 c-52 -11 -154 -40 -227 -64 -73 -25 -139 -45 -148 -45 -9
0 -33 9 -55 20 -41 21 -86 26 -108 11 -10 -6 -6 -22 22 -72 51 -95 64 -155 70
-334 40 -1101 40 -1101 95 -1066 45 29 67 960 31 1259 -16 127 -16 126 106
151 132 28 210 33 294 21 85 -12 180 -40 180 -52 0 -28 -80 -250 -123 -341
l-50 -108 -60 3 c-54 3 -61 1 -79 -23 -18 -23 -19 -31 -9 -62 14 -42 88 -113
127 -123 49 -12 75 13 139 139 69 133 125 278 163 420 22 85 24 102 13 137
-38 127 -175 174 -381 129z"/>
</g>
</svg>
