<?xml version="1.0" standalone="no"?>
<!DOCTYPE svg PUBLIC "-//W3C//DTD SVG 20010904//EN"
 "http://www.w3.org/TR/2001/REC-SVG-20010904/DTD/svg10.dtd">
<svg version="1.0" xmlns="http://www.w3.org/2000/svg"
 width="340.000000pt" height="340.000000pt" viewBox="0 0 340.000000 340.000000"
 preserveAspectRatio="xMidYMid meet">
<metadata>
Created by potrace 1.15, written by Peter Selinger 2001-2017
</metadata>
<g transform="translate(0.000000,340.000000) scale(0.100000,-0.100000)"
fill="#000000" stroke="none">
<path d="M2010 2479 c-179 -19 -859 -149 -883 -169 -15 -13 24 -40 58 -40 19
0 64 6 102 14 170 36 547 76 721 76 56 0 64 -2 73 -24 9 -19 6 -34 -16 -82
-28 -61 -117 -324 -130 -382 -4 -18 -12 -35 -18 -37 -7 -1 -66 -8 -132 -15
-135 -13 -311 -42 -430 -70 -44 -10 -81 -18 -82 -17 -1 1 -20 83 -42 181 -46
198 -71 263 -125 324 -46 51 -131 106 -151 98 -21 -8 -19 -48 4 -77 60 -78
165 -332 211 -516 16 -63 34 -121 41 -129 19 -23 39 -16 55 21 l14 35 68 0
c138 0 587 78 631 109 33 24 321 526 321 560 0 38 -40 97 -79 119 -47 26 -106
32 -211 21z"/>
<path d="M1510 2114 c-222 -53 -252 -62 -247 -77 2 -7 14 -17 28 -24 28 -14
199 -2 319 22 95 19 230 64 230 76 0 5 -9 18 -20 29 -30 30 -99 25 -310 -26z"/>
<path d="M1915 1593 c-236 -53 -346 -80 -447 -109 -68 -20 -162 -44 -210 -54
-48 -11 -100 -26 -115 -34 l-28 -15 40 -16 c36 -16 46 -16 120 -2 44 9 102 17
130 19 48 3 50 2 56 -27 9 -42 9 -206 0 -229 -6 -16 -73 -36 -372 -112 -200
-52 -371 -91 -380 -89 -8 3 -23 -1 -33 -8 -17 -12 -17 -14 0 -28 13 -11 49
-14 153 -14 148 1 149 1 434 85 98 29 180 50 183 48 9 -10 -47 -179 -77 -229
-84 -144 -221 -293 -347 -378 -63 -43 -102 -90 -102 -124 0 -22 18 -18 105 26
87 43 139 81 228 166 146 139 241 288 300 470 l34 103 83 -109 c232 -301 558
-657 642 -699 75 -38 154 -55 263 -55 90 0 101 2 117 21 29 36 9 53 -104 87
-178 56 -364 178 -543 359 -189 190 -398 415 -392 421 10 9 194 52 302 69 63
10 196 18 357 21 285 6 300 9 283 60 -15 43 -85 75 -155 70 -138 -10 -576 -78
-747 -116 l-83 -19 0 37 c0 20 -3 79 -6 131 l-7 95 128 28 c178 39 299 79 303
99 8 40 -49 66 -113 51z"/>
</g>
</svg>
