<?xml version="1.0" standalone="no"?>
<!DOCTYPE svg PUBLIC "-//W3C//DTD SVG 20010904//EN"
 "http://www.w3.org/TR/2001/REC-SVG-20010904/DTD/svg10.dtd">
<svg version="1.0" xmlns="http://www.w3.org/2000/svg"
 width="340.000000pt" height="340.000000pt" viewBox="0 0 340.000000 340.000000"
 preserveAspectRatio="xMidYMid meet">
<metadata>
Created by potrace 1.15, written by Peter Selinger 2001-2017
</metadata>
<g transform="translate(0.000000,340.000000) scale(0.100000,-0.100000)"
fill="#000000" stroke="none">
<path d="M1780 2419 c-190 -28 -391 -66 -535 -101 -190 -46 -184 -45 -224 -4
-36 37 -68 46 -77 23 -2 -7 9 -45 26 -83 46 -100 116 -315 135 -414 20 -96 32
-125 69 -159 l25 -24 19 22 c20 25 77 40 158 41 l51 0 14 -62 c11 -55 16 -415
5 -425 -2 -2 -79 -24 -172 -49 -93 -24 -239 -65 -324 -90 -85 -26 -177 -49
-205 -53 -42 -5 -51 -10 -53 -28 -4 -30 28 -37 132 -29 79 6 124 16 306 68 47
14 102 28 124 32 l39 7 -5 -53 c-6 -80 -40 -135 -165 -274 -223 -249 -335
-384 -329 -399 8 -21 16 -19 67 13 193 124 574 569 573 670 -1 20 -4 46 -8 58
-7 18 -1 23 46 37 29 9 64 18 78 21 14 3 37 7 52 10 25 6 27 4 39 -51 20 -91
15 -318 -9 -460 -16 -94 -19 -135 -12 -177 33 -206 213 -285 615 -273 99 3
208 12 260 22 81 16 94 22 127 56 59 62 81 133 86 279 3 112 2 128 -15 149
-16 20 -23 22 -40 12 -24 -12 -41 -62 -79 -231 -15 -68 -30 -110 -41 -118 -27
-20 -132 -49 -222 -62 -114 -17 -322 -8 -384 16 -57 22 -129 76 -169 125 l-28
35 20 275 c11 151 23 293 26 317 4 25 1 54 -6 72 -7 17 -10 33 -7 36 11 12
196 34 330 40 132 7 139 8 158 32 24 32 22 49 -12 74 -26 19 -29 20 -160 3
-116 -14 -449 -75 -502 -91 -16 -5 -17 0 -11 63 3 37 12 105 20 150 14 88 8
160 -20 228 -9 20 -14 41 -11 45 4 7 63 20 178 40 41 7 65 6 83 -2 22 -10 29
-8 70 33 25 24 71 82 101 129 31 47 76 115 100 151 48 72 83 168 83 230 0 36
-4 42 -47 69 -88 56 -139 60 -343 29z m202 -111 c22 -6 42 -17 45 -24 2 -6
-41 -102 -96 -211 l-100 -200 -113 -7 c-139 -8 -261 -29 -375 -62 -49 -15 -94
-27 -102 -28 -19 -2 -77 204 -60 214 6 4 43 11 83 15 155 15 360 54 385 73 64
47 19 69 -120 59 -92 -7 -179 -28 -256 -62 -66 -30 -94 -31 -116 -7 -16 18
-72 150 -66 157 6 5 288 42 509 65 107 12 200 23 205 25 23 8 141 4 177 -7z"/>
<path d="M2052 1754 c-13 -9 -22 -26 -22 -42 0 -22 -9 -32 -53 -56 -59 -33
-241 -210 -235 -229 16 -46 219 41 366 157 78 63 82 68 82 105 0 31 -6 44 -26
60 -32 25 -81 27 -112 5z"/>
<path d="M939 1568 c-3 -33 5 -56 34 -96 85 -116 108 -132 183 -132 l46 0 -7
37 c-15 82 -75 156 -152 188 -43 18 -103 20 -104 3z"/>
</g>
</svg>
