<?xml version="1.0" standalone="no"?>
<!DOCTYPE svg PUBLIC "-//W3C//DTD SVG 20010904//EN"
 "http://www.w3.org/TR/2001/REC-SVG-20010904/DTD/svg10.dtd">
<svg version="1.0" xmlns="http://www.w3.org/2000/svg"
 width="340.000000pt" height="340.000000pt" viewBox="0 0 340.000000 340.000000"
 preserveAspectRatio="xMidYMid meet">
<metadata>
Created by potrace 1.15, written by Peter Selinger 2001-2017
</metadata>
<g transform="translate(0.000000,340.000000) scale(0.100000,-0.100000)"
fill="#000000" stroke="none">
<path d="M1975 2399 c-291 -63 -721 -129 -842 -129 -61 0 -76 -3 -94 -21 -18
-18 -19 -23 -7 -30 23 -13 184 -39 239 -39 46 0 49 -2 69 -39 48 -95 65 -186
65 -359 0 -127 -3 -165 -14 -171 -7 -5 -59 -18 -115 -29 -55 -12 -244 -51
-419 -87 -175 -36 -339 -65 -365 -65 -54 0 -76 -14 -62 -40 19 -35 62 -43 172
-31 219 25 506 82 684 136 45 14 104 25 132 25 27 0 69 8 93 17 33 13 79 17
181 18 84 1 142 6 150 13 42 34 578 48 885 23 164 -14 174 -14 193 4 23 21 27
67 7 83 -7 6 -58 19 -113 28 -157 28 -438 24 -699 -9 -115 -15 -213 -27 -216
-27 -3 0 -9 73 -13 163 -3 89 -11 222 -17 295 -9 101 -8 137 0 145 7 7 47 12
99 13 93 0 163 23 209 66 31 29 29 44 -7 63 -36 19 -36 19 -195 -16z m-283
-170 c42 -22 48 -63 48 -318 0 -155 -4 -242 -10 -246 -11 -7 -173 -35 -200
-35 -13 0 -15 30 -15 207 0 167 -4 224 -18 286 -10 43 -17 81 -14 83 5 6 135
31 165 33 13 0 32 -4 44 -10z"/>
<path d="M2165 2177 c-12 -10 -16 -22 -13 -40 4 -22 -1 -31 -27 -47 -40 -25
-123 -113 -154 -164 -27 -44 -20 -56 37 -56 83 0 312 171 312 233 0 29 -22 65
-47 76 -33 15 -85 14 -108 -2z"/>
<path d="M1005 1993 c9 -50 35 -92 90 -142 50 -46 75 -50 123 -21 l32 20 -19
39 c-39 75 -137 141 -211 141 -20 0 -22 -3 -15 -37z"/>
<path d="M1782 1395 c-114 -21 -432 -112 -448 -128 -4 -4 -1 -13 6 -22 16 -19
59 -19 147 -1 98 21 324 39 402 33 73 -6 94 -21 110 -85 17 -65 34 -488 26
-644 l-7 -147 -28 14 c-15 8 -34 25 -43 38 -18 28 -81 47 -151 47 -47 0 -287
-58 -351 -84 -21 -9 -39 -16 -41 -16 -6 0 -5 128 2 285 l7 140 161 1 c186 1
228 11 263 63 13 19 23 37 23 41 0 4 -30 13 -66 20 -82 16 -170 7 -276 -26
-102 -33 -110 -27 -114 80 -5 121 -59 196 -141 196 -30 0 -33 -3 -33 -28 0
-16 9 -55 20 -86 29 -86 51 -294 57 -558 l6 -238 23 0 c13 0 28 8 33 18 7 14
37 21 135 35 69 10 182 32 252 48 70 16 131 29 135 29 3 0 12 -27 18 -59 13
-68 57 -140 112 -183 35 -28 38 -29 71 -15 58 24 68 48 68 162 0 102 -26 754
-36 903 -5 75 -9 87 -37 119 -18 20 -46 42 -64 49 -40 17 -144 16 -241 -1z"/>
</g>
</svg>
