<?xml version="1.0" standalone="no"?>
<!DOCTYPE svg PUBLIC "-//W3C//DTD SVG 20010904//EN"
 "http://www.w3.org/TR/2001/REC-SVG-20010904/DTD/svg10.dtd">
<svg version="1.0" xmlns="http://www.w3.org/2000/svg"
 width="340.000000pt" height="340.000000pt" viewBox="0 0 340.000000 340.000000"
 preserveAspectRatio="xMidYMid meet">
<metadata>
Created by potrace 1.15, written by Peter Selinger 2001-2017
</metadata>
<g transform="translate(0.000000,340.000000) scale(0.100000,-0.100000)"
fill="#000000" stroke="none">
<path d="M1855 2484 c-77 -14 -207 -40 -290 -60 -82 -19 -166 -37 -185 -40
-51 -8 -90 -25 -90 -39 0 -32 257 -23 418 15 46 11 107 23 136 26 53 6 179
-10 205 -26 12 -7 10 -33 -14 -162 -33 -183 -97 -422 -119 -447 -12 -13 -38
-20 -101 -25 -99 -7 -263 -38 -354 -66 -36 -11 -67 -17 -70 -15 -6 6 -30 238
-31 296 l0 46 83 7 c101 8 184 22 260 43 53 14 57 18 57 45 0 42 -35 52 -125
37 -60 -10 -224 -54 -276 -74 -13 -5 -18 2 -23 32 -14 80 -39 134 -83 183 -43
47 -118 98 -130 86 -8 -8 17 -73 43 -112 29 -43 80 -244 119 -469 32 -186 31
-184 62 -191 32 -9 307 29 450 62 59 13 125 24 146 24 79 0 95 25 142 219 18
75 51 207 74 294 22 87 41 172 41 190 0 48 -33 93 -89 122 -60 30 -76 30 -256
-1z"/>
<path d="M2245 1550 c-118 -30 -291 -92 -365 -130 -39 -20 -48 -21 -78 -10
-29 10 -37 10 -50 -4 -14 -14 -13 -26 16 -128 75 -268 115 -575 111 -861 -1
-126 6 -141 50 -104 18 15 54 30 88 37 32 6 96 20 143 30 158 35 145 36 158
-8 22 -73 136 -222 170 -222 20 0 73 43 88 72 16 30 17 81 15 613 -1 341 -6
596 -12 618 -13 51 -63 104 -107 117 -58 16 -109 11 -227 -20z m203 -123 c13
-13 16 -79 20 -439 3 -233 1 -463 -3 -513 l-7 -89 -27 31 c-43 52 -88 73 -156
73 -89 0 -183 -18 -248 -47 -31 -14 -59 -24 -61 -22 -2 2 -6 104 -9 227 -4
164 -2 222 6 222 91 3 252 59 317 109 20 16 22 22 11 35 -17 21 -76 39 -103
31 -13 -3 -61 -23 -108 -45 -139 -63 -130 -65 -130 30 0 89 -21 206 -50 280
l-19 47 72 22 c40 11 117 28 172 36 55 9 120 20 145 25 63 12 159 5 178 -13z"/>
<path d="M1250 1405 c-52 -14 -150 -44 -217 -67 -118 -40 -122 -43 -109 -62
16 -25 49 -25 186 -2 52 9 137 16 189 16 l94 0 -6 -302 c-5 -210 -12 -340 -24
-423 l-18 -120 -66 -7 c-80 -7 -176 -31 -237 -58 -24 -11 -50 -20 -56 -20 -16
0 -12 450 4 460 7 4 50 8 95 8 72 -1 91 3 149 30 73 34 82 53 43 90 -33 31
-69 28 -196 -18 l-111 -39 0 44 c0 110 -44 228 -113 299 -36 38 -51 47 -74 44
-38 -4 -41 -35 -9 -90 13 -24 34 -68 45 -98 44 -120 53 -173 62 -390 5 -136
14 -241 25 -285 9 -38 16 -89 15 -112 l-2 -43 37 0 c20 0 91 13 158 29 179 43
186 44 186 23 0 -31 29 -61 65 -68 43 -8 53 0 89 67 27 48 28 58 32 212 2 89
5 182 8 207 3 25 11 167 17 317 l11 272 -23 40 c-25 45 -70 71 -121 71 -18 -1
-76 -12 -128 -25z"/>
</g>
</svg>
