<?xml version="1.0" standalone="no"?>
<!DOCTYPE svg PUBLIC "-//W3C//DTD SVG 20010904//EN"
 "http://www.w3.org/TR/2001/REC-SVG-20010904/DTD/svg10.dtd">
<svg version="1.0" xmlns="http://www.w3.org/2000/svg"
 width="340.000000pt" height="340.000000pt" viewBox="0 0 340.000000 340.000000"
 preserveAspectRatio="xMidYMid meet">
<metadata>
Created by potrace 1.15, written by Peter Selinger 2001-2017
</metadata>
<g transform="translate(0.000000,340.000000) scale(0.100000,-0.100000)"
fill="#000000" stroke="none">
<path d="M1090 2627 c-38 -19 -36 -48 5 -90 32 -33 36 -42 30 -70 -10 -47 -42
-139 -69 -200 l-24 -54 -103 -21 c-57 -12 -141 -27 -186 -33 -46 -6 -83 -15
-83 -20 0 -5 9 -18 21 -30 20 -20 27 -21 155 -14 74 4 134 4 134 1 0 -30 -136
-248 -223 -360 -95 -120 -67 -197 66 -183 29 3 124 28 211 57 127 42 160 49
167 38 16 -24 5 -195 -13 -214 -3 -2 -115 -38 -249 -79 -238 -74 -245 -75
-292 -63 -56 14 -80 5 -85 -34 -4 -33 63 -94 113 -104 57 -10 86 -2 305 89
l205 86 5 -92 c6 -94 27 -157 54 -157 19 0 65 45 76 75 6 15 10 66 10 114 0
102 4 109 90 136 66 21 156 65 190 93 l25 20 -40 8 c-27 5 -61 2 -105 -9 -36
-10 -86 -20 -112 -23 l-48 -7 1 79 c2 126 1 126 94 141 88 15 221 72 232 99 9
25 -49 74 -89 74 -17 0 -55 -11 -83 -25 -29 -13 -71 -27 -94 -31 l-41 -7 0 72
c0 113 -33 165 -114 178 -27 4 -36 1 -50 -18 -20 -29 -21 -59 -1 -85 10 -13
14 -45 15 -106 0 -49 -2 -88 -4 -88 -2 0 -63 -13 -136 -30 -73 -16 -138 -30
-146 -30 -20 0 7 63 76 180 31 52 76 129 99 170 l42 75 231 42 c209 38 233 44
259 69 37 35 39 77 5 99 -23 15 -30 15 -105 -9 -111 -35 -275 -76 -304 -76
l-25 0 34 68 c42 85 52 159 30 234 -11 41 -22 58 -41 66 -34 15 -84 15 -115
-1z"/>
<path d="M2245 2483 c-6 -47 -8 -49 -68 -81 -34 -17 -133 -70 -219 -117 l-158
-84 -47 25 c-45 24 -84 26 -105 5 -4 -4 8 -42 27 -86 47 -108 59 -192 52 -355
-7 -156 -30 -267 -82 -401 -20 -52 -44 -112 -53 -135 -33 -86 24 -105 81 -26
92 126 146 262 177 444 12 67 22 123 23 125 7 6 219 24 232 19 37 -14 46 -69
57 -368 10 -251 14 -293 29 -312 14 -17 21 -19 36 -10 10 6 23 22 30 35 28 57
42 412 23 584 -12 117 -35 107 288 126 l193 12 14 28 c29 54 16 81 -45 99 -24
7 -72 3 -179 -15 -80 -13 -204 -33 -276 -44 -71 -12 -179 -33 -240 -47 -60
-13 -122 -27 -136 -30 -26 -6 -26 -5 -33 67 -3 40 -13 102 -21 137 -8 35 -13
67 -11 71 3 4 31 13 63 21 157 35 469 170 499 216 9 13 14 39 12 60 -4 47 -35
70 -104 79 l-52 7 -7 -49z"/>
<path d="M1835 1145 c-206 -43 -517 -114 -523 -119 -2 -3 -1 -14 3 -25 9 -29
47 -36 129 -22 144 23 344 50 450 61 187 19 192 12 190 -249 -1 -162 -26 -450
-40 -473 -7 -11 -49 12 -114 61 -38 28 -65 41 -87 41 -40 0 -306 -53 -394 -79
l-67 -19 -6 117 c-4 64 -10 130 -13 148 -8 47 25 64 150 75 111 9 230 35 320
68 48 18 57 25 57 46 0 16 -8 28 -24 35 -30 14 -160 -7 -353 -56 -75 -19 -137
-35 -139 -35 -2 0 -4 13 -4 28 0 48 -30 145 -55 178 -57 74 -145 96 -145 36 0
-15 9 -59 20 -97 33 -111 59 -242 71 -355 22 -215 18 -202 69 -227 77 -37 119
-36 325 2 104 19 197 35 206 35 10 0 23 -17 34 -47 30 -79 134 -172 192 -173
15 0 66 74 82 120 23 64 52 581 42 742 -6 104 -7 108 -40 142 -75 78 -129 84
-336 41z"/>
</g>
</svg>
