<?xml version="1.0" standalone="no"?>
<!DOCTYPE svg PUBLIC "-//W3C//DTD SVG 20010904//EN"
 "http://www.w3.org/TR/2001/REC-SVG-20010904/DTD/svg10.dtd">
<svg version="1.0" xmlns="http://www.w3.org/2000/svg"
 width="340.000000pt" height="340.000000pt" viewBox="0 0 340.000000 340.000000"
 preserveAspectRatio="xMidYMid meet">
<metadata>
Created by potrace 1.15, written by Peter Selinger 2001-2017
</metadata>
<g transform="translate(0.000000,340.000000) scale(0.100000,-0.100000)"
fill="#000000" stroke="none">
<path d="M2010 2475 c-6 -8 -9 -23 -6 -33 5 -16 -7 -25 -86 -57 -110 -45 -246
-112 -341 -167 -56 -33 -66 -42 -56 -54 17 -20 61 -17 167 11 118 32 209 62
346 116 85 34 110 48 122 70 28 55 14 100 -37 118 -44 15 -94 14 -109 -4z"/>
<path d="M2348 2162 c-9 -2 -28 -27 -43 -55 -19 -35 -44 -64 -77 -86 -62 -43
-125 -113 -161 -179 l-28 -51 26 -7 c14 -3 36 -3 49 0 42 10 174 105 259 186
74 70 81 80 80 114 -2 58 -45 90 -105 78z"/>
<path d="M959 2116 c-58 -16 -148 -58 -216 -98 -41 -25 -50 -35 -41 -45 14
-17 44 -16 115 2 31 8 88 15 127 15 l69 0 -7 -411 c-3 -227 -9 -438 -13 -470
l-6 -57 -51 -7 c-28 -4 -84 -18 -125 -31 l-74 -23 7 106 c3 58 6 170 6 248 l0
142 53 -4 c41 -4 61 0 96 19 24 13 50 33 58 45 14 20 12 23 -18 39 -42 21 -96
21 -138 0 -23 -12 -37 -14 -44 -7 -5 5 -14 53 -18 107 -5 53 -13 111 -19 128
-19 57 -95 116 -151 116 -27 0 -25 -36 5 -92 28 -54 41 -109 61 -270 15 -124
21 -483 9 -571 -6 -43 -9 -46 -38 -49 -27 -3 -31 -7 -34 -36 -5 -47 21 -82 58
-82 17 0 99 27 183 60 85 33 156 60 160 60 4 0 7 -29 7 -65 0 -60 23 -135 41
-135 16 0 68 74 77 110 5 20 7 113 4 206 -5 190 9 513 35 774 16 167 16 177
-2 213 -29 61 -96 85 -176 63z"/>
<path d="M1700 2086 c0 -55 82 -169 139 -193 28 -12 43 -13 73 -4 42 13 46 26
22 74 -37 73 -107 122 -189 134 -38 5 -45 3 -45 -11z"/>
<path d="M1341 1913 c1 -33 14 -52 83 -123 73 -75 116 -95 175 -84 27 6 30 9
24 33 -26 108 -127 190 -235 191 -39 0 -48 -3 -47 -17z"/>
<path d="M2170 1716 c-188 -43 -448 -109 -576 -147 -56 -16 -117 -29 -135 -30
-43 0 -101 -20 -106 -36 -3 -7 8 -16 24 -20 47 -13 204 -8 266 9 l57 16 21
-26 c25 -33 21 -80 -16 -159 l-23 -52 -174 -55 c-95 -30 -199 -62 -231 -72
-63 -20 -73 -41 -25 -58 21 -7 67 1 210 37 100 25 184 44 187 42 8 -9 -74
-181 -118 -245 -108 -160 -270 -341 -462 -516 -46 -42 -69 -70 -74 -93 -4 -18
-4 -35 -2 -38 9 -8 120 62 201 127 103 82 194 176 318 331 l109 137 132 -105
c73 -58 138 -111 144 -117 10 -9 -6 -27 -71 -79 -80 -64 -350 -250 -377 -259
-21 -7 -1 -38 24 -38 74 0 324 135 468 252 l57 47 102 -87 c57 -48 139 -117
182 -153 133 -112 241 -153 408 -154 73 0 103 4 128 18 32 17 32 18 15 44 -19
28 -68 53 -106 53 -31 0 -255 82 -332 122 -74 38 -213 132 -282 191 l-51 44
56 64 c68 78 154 209 188 285 l25 56 -21 33 c-24 39 -69 60 -111 51 -17 -3
-81 -26 -142 -50 -62 -25 -157 -56 -212 -71 -137 -36 -128 -31 -115 -55 14
-27 55 -26 232 5 78 14 153 25 165 25 20 0 22 -3 12 -27 -20 -54 -101 -183
-130 -207 -20 -17 -35 -23 -47 -18 -10 4 -84 44 -165 90 l-148 84 57 106 c31
59 68 128 81 153 l25 46 91 21 c138 31 258 50 396 62 135 11 184 29 189 69 8
54 -36 62 -213 36 -110 -15 -202 -34 -314 -65 -95 -25 -116 -26 -106 -2 16 37
17 128 2 165 -9 20 -14 37 -12 37 2 0 70 18 152 39 81 22 210 54 286 71 l138
32 -3 32 c-3 30 -5 31 -53 33 -28 1 -115 -13 -195 -31z"/>
</g>
</svg>
