<?xml version="1.0" standalone="no"?>
<!DOCTYPE svg PUBLIC "-//W3C//DTD SVG 20010904//EN"
 "http://www.w3.org/TR/2001/REC-SVG-20010904/DTD/svg10.dtd">
<svg version="1.0" xmlns="http://www.w3.org/2000/svg"
 width="340.000000pt" height="340.000000pt" viewBox="0 0 340.000000 340.000000"
 preserveAspectRatio="xMidYMid meet">
<metadata>
Created by potrace 1.15, written by Peter Selinger 2001-2017
</metadata>
<g transform="translate(0.000000,340.000000) scale(0.100000,-0.100000)"
fill="#000000" stroke="none">
<path d="M1865 2384 c-174 -49 -624 -124 -750 -124 -79 0 -148 -16 -142 -33 2
-6 16 -20 31 -31 24 -18 41 -21 126 -19 234 5 813 81 867 114 33 21 48 51 41
86 -3 15 -14 18 -63 20 -33 1 -82 -5 -110 -13z"/>
<path d="M1483 2153 c-9 -22 -9 -87 2 -178 11 -99 12 -99 -242 -146 -114 -21
-226 -42 -248 -47 -37 -7 -45 -5 -107 35 -37 24 -81 46 -97 49 -27 6 -31 4
-31 -15 0 -12 17 -45 38 -74 121 -167 199 -338 243 -537 24 -111 25 -140 0
-140 -10 0 -49 11 -86 25 -71 27 -188 43 -268 37 -26 -2 -47 -8 -47 -12 0 -18
32 -39 68 -45 55 -8 226 -63 317 -102 44 -19 151 -72 237 -119 l158 -85 -16
-32 c-51 -98 -152 -218 -237 -283 -73 -55 -186 -112 -279 -143 -47 -16 -82
-36 -115 -66 l-48 -44 46 -1 c155 -1 408 120 562 269 60 58 156 184 169 223 5
15 231 -132 493 -320 178 -128 233 -152 391 -172 94 -12 256 1 304 23 26 13
38 43 23 58 -5 5 -52 16 -103 25 -239 38 -444 102 -608 189 -101 54 -452 294
-452 309 0 7 9 74 20 151 11 77 20 145 20 150 0 6 47 16 108 23 107 12 254 47
325 77 30 12 37 20 31 33 -23 54 -18 66 124 308 77 132 143 255 147 274 9 47
-8 86 -47 111 -30 18 -43 20 -131 15 -113 -7 -256 -27 -407 -57 l-104 -21 -19
23 c-14 18 -17 33 -13 61 13 79 -30 164 -92 183 -16 5 -24 2 -29 -12z m638
-310 c14 -14 -80 -314 -153 -486 -12 -29 -22 -53 -23 -55 -2 -2 -316 -41 -338
-42 -7 0 -3 100 9 196 l5 42 53 6 c53 7 168 54 180 75 4 5 -8 18 -25 27 -27
13 -48 15 -120 9 l-88 -6 -7 26 c-3 14 -3 59 1 99 l7 74 111 16 c218 31 253
35 315 31 35 -1 68 -7 73 -12z m-619 -139 c7 -74 -3 -118 -30 -129 -10 -4 -68
-22 -131 -40 l-114 -32 24 -22 c26 -24 19 -24 202 -5 l57 6 -1 -68 c0 -38 -4
-91 -7 -119 l-7 -50 -85 -17 c-47 -10 -122 -29 -168 -43 -45 -14 -86 -24 -91
-21 -4 3 -11 31 -14 63 -13 121 -69 309 -143 479 -3 7 50 16 153 28 87 9 196
23 243 30 47 8 90 13 95 11 6 -1 13 -33 17 -71z m-31 -590 c10 -13 11 -29 1
-85 -7 -39 -19 -86 -27 -105 -17 -41 0 -46 -177 58 -156 92 -149 110 58 132
65 7 122 14 125 15 4 0 12 -6 20 -15z"/>
</g>
</svg>
