<?xml version="1.0" standalone="no"?>
<!DOCTYPE svg PUBLIC "-//W3C//DTD SVG 20010904//EN"
 "http://www.w3.org/TR/2001/REC-SVG-20010904/DTD/svg10.dtd">
<svg version="1.0" xmlns="http://www.w3.org/2000/svg"
 width="340.000000pt" height="340.000000pt" viewBox="0 0 340.000000 340.000000"
 preserveAspectRatio="xMidYMid meet">
<metadata>
Created by potrace 1.15, written by Peter Selinger 2001-2017
</metadata>
<g transform="translate(0.000000,340.000000) scale(0.100000,-0.100000)"
fill="#000000" stroke="none">
<path d="M2202 2398 c-15 -15 -15 -50 -1 -81 10 -23 6 -30 -51 -88 -77 -79
-134 -153 -188 -244 -50 -84 -42 -91 51 -47 71 33 237 179 292 256 19 26 41
70 50 97 18 53 12 76 -27 103 -26 19 -109 21 -126 4z"/>
<path d="M1009 2242 c-49 -20 -127 -70 -148 -96 -12 -14 -8 -18 24 -32 33 -13
47 -14 104 -3 79 15 101 14 112 -3 5 -7 9 -128 9 -269 l0 -256 -48 10 c-36 8
-59 6 -100 -6 l-53 -15 8 46 c4 26 7 88 6 137 -3 193 -98 374 -172 328 -25
-15 -24 -42 3 -135 49 -171 55 -350 20 -667 -30 -267 -87 -519 -175 -778 -32
-92 -49 -159 -49 -189 l0 -48 29 28 c16 16 43 54 59 85 28 52 114 310 177 532
l27 97 67 4 c60 3 92 15 194 66 4 2 7 -128 7 -289 l0 -294 -25 38 c-26 37 -70
67 -101 67 -27 0 -14 -120 20 -192 36 -75 113 -158 148 -158 40 0 56 9 79 46
20 33 20 38 9 216 -20 329 -24 838 -10 1253 13 388 13 397 -7 423 -51 68 -130
88 -214 54z m103 -714 c2 -7 2 -90 0 -184 l-4 -171 -106 -37 c-59 -20 -115
-39 -124 -42 -16 -6 -18 0 -18 44 0 51 26 272 36 304 3 10 27 23 57 33 29 8
72 26 97 40 53 28 57 29 62 13z"/>
<path d="M1444 2246 c-13 -33 196 -276 238 -276 10 0 28 10 39 21 58 58 -47
195 -191 250 -60 23 -79 24 -86 5z"/>
<path d="M2145 1829 c-124 -38 -669 -179 -693 -179 -28 0 -51 -24 -36 -39 3
-3 73 -6 154 -6 l149 0 7 -64 c6 -62 -1 -227 -12 -255 -5 -12 -254 -92 -396
-127 -49 -12 -59 -27 -33 -49 23 -19 68 -16 248 20 92 18 169 31 171 29 7 -7
-25 -203 -44 -277 -41 -150 -153 -340 -301 -509 -53 -60 -60 -86 -30 -103 17
-8 29 -2 78 38 130 109 244 256 310 401 37 81 83 238 83 284 0 32 25 97 37 97
4 0 37 -56 73 -123 103 -194 384 -603 449 -655 76 -59 266 -110 367 -97 104
13 112 58 16 95 -120 48 -294 145 -374 209 -47 38 -107 98 -139 141 -153 204
-389 533 -385 537 21 22 366 87 519 99 115 9 152 31 152 89 l0 40 -73 -2 c-88
-3 -189 -21 -413 -74 -91 -21 -168 -39 -170 -39 -2 0 -4 55 -4 122 0 68 -4
142 -8 166 -7 35 -6 42 7 42 25 0 399 110 413 122 18 15 16 65 -3 72 -22 8
-84 6 -119 -5z"/>
</g>
</svg>
