<?xml version="1.0" standalone="no"?>
<!DOCTYPE svg PUBLIC "-//W3C//DTD SVG 20010904//EN"
 "http://www.w3.org/TR/2001/REC-SVG-20010904/DTD/svg10.dtd">
<svg version="1.0" xmlns="http://www.w3.org/2000/svg"
 width="340.000000pt" height="340.000000pt" viewBox="0 0 340.000000 340.000000"
 preserveAspectRatio="xMidYMid meet">
<metadata>
Created by potrace 1.15, written by Peter Selinger 2001-2017
</metadata>
<g transform="translate(0.000000,340.000000) scale(0.100000,-0.100000)"
fill="#000000" stroke="none">
<path d="M997 2484 c-4 -4 -7 -15 -7 -25 0 -20 151 -101 270 -146 l65 -25 22
27 c54 62 3 117 -139 149 -81 18 -201 30 -211 20z"/>
<path d="M2310 2301 c-78 -17 -257 -69 -374 -109 -27 -9 -54 -25 -60 -34 -8
-13 -5 -59 12 -175 39 -271 25 -640 -34 -948 -36 -183 -118 -385 -229 -564
-41 -66 -59 -107 -63 -139 l-5 -45 33 19 c17 10 57 45 87 78 96 104 226 405
271 628 l17 87 75 6 c90 8 247 45 313 75 l47 21 -15 29 c-31 60 -52 61 -264
12 -74 -18 -136 -31 -137 -29 -1 1 7 79 17 172 10 94 18 175 19 181 0 7 33 14
86 19 130 11 304 65 304 95 0 17 -38 49 -65 56 -17 4 -79 -8 -173 -34 -81 -22
-148 -39 -149 -38 -1 1 2 41 7 90 10 98 0 215 -26 314 -9 34 -15 64 -13 67 15
14 207 37 352 42 139 5 167 4 168 -8 1 -8 2 -284 4 -614 1 -330 7 -658 13
-730 18 -208 26 -428 16 -423 -5 2 -38 18 -74 36 -72 35 -140 43 -140 16 0
-22 18 -55 51 -89 15 -16 40 -49 56 -72 50 -75 119 -109 195 -97 31 5 38 11
44 38 12 55 7 258 -9 381 -36 267 -42 381 -41 780 0 302 4 440 17 563 22 215
22 242 -5 282 -53 78 -157 97 -328 61z"/>
<path d="M1339 2125 c-63 -19 -171 -57 -240 -85 -204 -85 -198 -83 -244 -70
-23 6 -59 10 -80 8 -35 -3 -40 -6 -43 -30 -2 -16 11 -57 32 -100 61 -127 68
-172 73 -483 6 -309 -5 -508 -41 -755 -21 -142 -22 -158 -8 -188 30 -65 99
-67 171 -5 89 75 266 289 389 467 l33 48 59 -56 c68 -66 105 -73 139 -30 24
31 21 39 -45 126 -55 71 -146 152 -199 177 -45 22 -135 38 -135 25 0 -21 62
-115 105 -158 25 -26 45 -51 43 -56 -2 -4 -39 -36 -83 -71 -44 -35 -140 -122
-213 -194 l-132 -130 0 100 c0 55 5 172 11 260 6 88 11 196 13 240 l2 79 100
17 c119 19 185 40 279 87 102 51 120 66 134 114 7 24 35 100 62 171 57 148 78
228 89 351 8 82 7 92 -11 118 -26 36 -69 58 -111 58 -18 -1 -85 -16 -149 -35z
m129 -107 c17 -17 15 -55 -9 -171 -22 -104 -86 -313 -112 -363 -12 -23 -39
-35 -198 -90 -101 -35 -187 -64 -191 -64 -5 0 -8 58 -8 129 l0 129 52 7 c92
13 194 56 263 110 20 16 20 16 -4 36 -13 10 -33 19 -46 19 -18 0 -152 -46
-246 -85 -14 -5 -18 3 -24 47 -4 29 -14 81 -22 116 -9 34 -14 65 -11 67 10 10
240 67 367 90 74 14 137 28 140 30 9 9 37 5 49 -7z"/>
</g>
</svg>
