<?xml version="1.0" standalone="no"?>
<!DOCTYPE svg PUBLIC "-//W3C//DTD SVG 20010904//EN"
 "http://www.w3.org/TR/2001/REC-SVG-20010904/DTD/svg10.dtd">
<svg version="1.0" xmlns="http://www.w3.org/2000/svg"
 width="340.000000pt" height="340.000000pt" viewBox="0 0 340.000000 340.000000"
 preserveAspectRatio="xMidYMid meet">
<metadata>
Created by potrace 1.15, written by Peter Selinger 2001-2017
</metadata>
<g transform="translate(0.000000,340.000000) scale(0.100000,-0.100000)"
fill="#000000" stroke="none">
<path d="M1468 2499 c-26 -14 -22 -47 9 -92 25 -36 28 -49 35 -185 5 -81 7
-178 6 -217 l-3 -69 -150 -48 c-82 -26 -153 -48 -157 -48 -5 0 -8 42 -8 94 0
111 -24 199 -73 273 -29 44 -36 48 -75 51 -78 6 -93 -38 -43 -117 41 -65 60
-130 71 -240 9 -90 8 -97 -11 -113 -28 -23 -164 -75 -221 -83 -53 -8 -59 -16
-26 -39 29 -21 43 -20 119 4 35 12 82 23 105 27 l41 5 6 -38 c4 -22 7 -202 7
-401 l0 -362 -112 -35 c-62 -19 -177 -53 -256 -75 -79 -22 -147 -43 -153 -46
-21 -14 -7 -46 32 -72 64 -42 120 -38 244 19 279 127 608 225 888 263 52 7
104 45 109 80 4 25 -52 37 -144 29 l-68 -6 -2 281 c-2 155 -3 333 -3 397 l0
117 51 16 c60 20 131 61 158 90 19 21 19 21 -17 36 -46 19 -65 19 -123 -1 -72
-24 -77 -15 -64 130 11 129 -1 318 -22 343 -31 38 -111 55 -150 32z m56 -715
c8 -60 8 -618 0 -705 l-7 -66 -141 -35 c-77 -20 -149 -39 -158 -43 -17 -7 -18
3 -18 114 0 143 9 161 83 161 55 1 118 30 145 68 12 16 22 33 22 37 0 17 -156
-2 -197 -23 -23 -12 -45 -22 -48 -22 -3 0 -5 45 -5 100 l0 100 28 5 c69 15
101 27 145 56 26 17 47 37 47 44 0 14 -50 35 -84 35 -12 0 -39 -9 -61 -20 -22
-11 -45 -20 -52 -20 -19 0 -30 37 -29 99 1 69 14 79 166 125 154 47 156 47
164 -10z"/>
<path d="M2455 2120 c-66 -15 -173 -39 -237 -51 -109 -21 -118 -25 -118 -46 0
-44 59 -54 165 -27 33 8 128 18 212 21 l152 6 9 -24 c5 -13 12 -145 16 -294 7
-283 31 -937 42 -1161 4 -72 4 -148 0 -169 l-7 -37 -22 20 c-42 38 -67 45 -87
27 -27 -24 -30 -49 -10 -92 35 -79 112 -133 189 -133 l40 0 17 58 c23 77 22
159 -3 397 -35 322 -47 621 -37 950 13 449 13 479 -12 511 -59 79 -125 89
-309 44z"/>
<path d="M2024 1903 c46 -222 49 -250 50 -453 1 -350 -52 -614 -185 -931 -35
-83 -49 -130 -49 -163 0 -25 4 -46 9 -46 16 0 77 82 109 145 52 105 112 279
161 471 l11 42 88 -1 c96 0 170 14 250 49 59 26 64 42 27 79 -34 35 -85 32
-223 -11 -63 -19 -116 -33 -119 -31 -2 3 5 78 16 167 12 89 21 173 21 188 l0
27 139 -3 c117 -4 144 -1 176 13 51 25 65 57 38 93 -17 23 -27 26 -59 24 -35
-3 -214 -41 -272 -58 -23 -7 -23 -7 -17 63 8 81 -6 192 -37 280 -23 67 -43 83
-104 83 -34 0 -35 -2 -30 -27z"/>
<path d="M1572 766 c8 -64 105 -208 167 -248 83 -52 101 -47 101 27 0 53 -28
112 -75 157 -37 36 -126 88 -174 103 -23 7 -24 6 -19 -39z"/>
<path d="M1155 725 c-14 -13 -25 -31 -25 -39 0 -8 -28 -52 -63 -98 -58 -77
-127 -201 -127 -227 0 -16 57 -14 95 5 18 8 65 48 104 89 74 76 115 147 127
221 5 36 3 44 -17 58 -33 23 -66 20 -94 -9z"/>
</g>
</svg>
