<?xml version="1.0" standalone="no"?>
<!DOCTYPE svg PUBLIC "-//W3C//DTD SVG 20010904//EN"
 "http://www.w3.org/TR/2001/REC-SVG-20010904/DTD/svg10.dtd">
<svg version="1.0" xmlns="http://www.w3.org/2000/svg"
 width="340.000000pt" height="340.000000pt" viewBox="0 0 340.000000 340.000000"
 preserveAspectRatio="xMidYMid meet">
<metadata>
Created by potrace 1.15, written by Peter Selinger 2001-2017
</metadata>
<g transform="translate(0.000000,340.000000) scale(0.100000,-0.100000)"
fill="#000000" stroke="none">
<path d="M1092 2304 c-29 -20 -28 -55 2 -91 13 -15 27 -39 31 -52 4 -13 4
-139 0 -281 l-7 -259 -102 -42 c-139 -58 -362 -135 -414 -144 -50 -8 -62 -27
-37 -55 15 -17 31 -20 99 -20 124 0 264 41 367 106 41 25 74 31 84 13 14 -22
-270 -481 -358 -578 -107 -118 -247 -341 -215 -341 66 0 325 286 512 564 l66
99 0 -362 0 -362 -25 -23 c-49 -46 -59 -130 -24 -203 30 -61 92 -71 138 -22
29 32 32 75 21 289 -11 220 -13 548 -4 627 l7 53 42 -39 c74 -68 155 -111 258
-135 26 -6 27 -5 27 33 0 28 -8 48 -25 70 -31 36 -144 103 -240 141 -38 16
-71 34 -73 40 -9 25 10 221 22 225 60 16 275 90 319 110 48 21 57 29 57 50 0
14 -9 34 -21 46 -25 25 -39 23 -217 -42 -74 -27 -136 -49 -139 -49 -3 0 -2
132 2 293 l8 293 -37 32 c-41 36 -87 42 -124 16z"/>
<path d="M1830 2158 c-39 -21 -36 -43 12 -88 l43 -40 -2 -147 c-4 -192 -19
-545 -38 -850 -17 -270 -10 -343 39 -427 30 -51 100 -118 153 -144 131 -67
431 -77 648 -22 120 30 131 37 157 88 32 65 33 219 2 272 -23 41 -48 49 -75
25 -21 -20 -29 -53 -38 -163 l-6 -76 -60 -18 c-97 -29 -211 -41 -309 -35 -100
7 -134 15 -244 54 l-73 25 -35 69 c-66 132 -77 251 -50 539 83 871 80 825 60
866 -11 21 -31 46 -45 57 -34 24 -106 32 -139 15z"/>
</g>
</svg>
