<?xml version="1.0" standalone="no"?>
<!DOCTYPE svg PUBLIC "-//W3C//DTD SVG 20010904//EN"
 "http://www.w3.org/TR/2001/REC-SVG-20010904/DTD/svg10.dtd">
<svg version="1.0" xmlns="http://www.w3.org/2000/svg"
 width="340.000000pt" height="340.000000pt" viewBox="0 0 340.000000 340.000000"
 preserveAspectRatio="xMidYMid meet">
<metadata>
Created by potrace 1.15, written by Peter Selinger 2001-2017
</metadata>
<g transform="translate(0.000000,340.000000) scale(0.100000,-0.100000)"
fill="#000000" stroke="none">
<path d="M1291 2484 c-25 -32 -25 -36 -6 -74 13 -25 15 -72 13 -282 l-3 -253
-245 -92 c-176 -66 -258 -92 -291 -93 -31 0 -55 -7 -70 -20 -31 -25 -19 -34
68 -50 105 -20 216 1 338 63 28 15 81 38 118 51 l69 26 -7 -33 c-9 -43 -113
-248 -182 -359 -72 -117 -185 -268 -295 -396 -90 -104 -103 -133 -69 -152 17
-8 32 2 102 68 164 154 345 384 423 540 20 39 39 72 43 72 7 0 -3 -574 -14
-822 l-6 -147 -29 -12 c-16 -6 -34 -21 -39 -31 -24 -44 57 -178 107 -178 13 0
38 12 54 27 l31 28 -1 544 0 544 46 -52 c50 -56 98 -85 157 -96 l37 -7 0 41
c0 77 -49 136 -139 166 -61 20 -101 63 -101 109 0 77 14 188 24 191 105 29
169 55 219 88 l61 39 -28 25 c-25 21 -37 24 -80 20 -28 -2 -81 -16 -118 -30
-65 -26 -68 -26 -68 -7 0 11 7 115 16 231 9 117 13 228 9 247 -15 80 -102 120
-144 66z"/>
<path d="M2351 2414 c-15 -34 -14 -70 5 -105 15 -30 15 -31 -29 -82 -24 -29
-125 -139 -223 -246 -247 -269 -275 -302 -271 -315 14 -42 111 20 303 192 54
48 128 113 164 144 69 58 178 185 206 240 36 70 -20 161 -116 188 -24 7 -29 4
-39 -16z"/>
<path d="M2396 1768 c-10 -39 -7 -62 15 -102 20 -37 20 -39 2 -60 -83 -94
-244 -268 -375 -403 -118 -120 -158 -168 -158 -186 0 -29 23 -41 51 -27 62 33
316 249 478 405 156 151 182 208 136 301 -29 60 -72 94 -116 94 -19 0 -28 -6
-33 -22z"/>
<path d="M2490 1152 c0 -16 7 -52 15 -80 27 -91 9 -126 -164 -326 -145 -168
-346 -337 -545 -460 -103 -64 -120 -78 -131 -114 -6 -21 -4 -22 22 -16 183 43
459 234 752 519 224 218 263 276 241 357 -15 52 -41 80 -108 116 -73 39 -82
40 -82 4z"/>
</g>
</svg>
