<?xml version="1.0" standalone="no"?>
<!DOCTYPE svg PUBLIC "-//W3C//DTD SVG 20010904//EN"
 "http://www.w3.org/TR/2001/REC-SVG-20010904/DTD/svg10.dtd">
<svg version="1.0" xmlns="http://www.w3.org/2000/svg"
 width="340.000000pt" height="340.000000pt" viewBox="0 0 340.000000 340.000000"
 preserveAspectRatio="xMidYMid meet">
<metadata>
Created by potrace 1.15, written by Peter Selinger 2001-2017
</metadata>
<g transform="translate(0.000000,340.000000) scale(0.100000,-0.100000)"
fill="#000000" stroke="none">
<path d="M1383 2380 c-44 -10 -63 -27 -63 -56 0 -19 13 -30 68 -58 l69 -35 6
-122 c10 -173 9 -257 -3 -264 -11 -7 -349 -74 -477 -95 -73 -12 -79 -15 -65
-37 23 -36 152 -36 384 1 46 8 85 12 86 11 8 -7 -83 -150 -141 -222 -128 -161
-403 -422 -615 -585 -47 -36 -62 -54 -62 -73 0 -41 29 -31 157 53 231 154 480
375 658 585 l80 95 3 -299 2 -299 24 -15 c37 -24 56 -10 82 60 4 11 10 154 13
319 l6 299 270 -209 c149 -114 322 -249 385 -299 152 -120 185 -141 266 -170
55 -19 89 -25 166 -25 125 0 150 9 146 52 -4 39 -13 44 -172 93 -168 52 -323
134 -501 267 -120 89 -493 344 -554 377 -23 13 5 49 47 60 51 13 259 48 367
62 108 13 142 25 162 55 16 26 11 54 -15 76 -15 14 -31 13 -152 -8 -74 -13
-187 -38 -250 -55 -63 -17 -126 -32 -140 -32 l-25 -2 3 150 c3 113 -1 165 -13
210 -27 103 -32 112 -78 123 -70 18 -91 20 -124 12z"/>
<path d="M1855 973 c-129 -17 -358 -60 -496 -94 l-166 -40 -38 25 c-42 29 -72
33 -99 13 -17 -13 -15 -19 27 -108 56 -118 92 -230 112 -354 16 -102 32 -148
65 -196 l21 -29 32 24 c18 13 42 29 54 35 47 24 261 52 456 60 184 6 199 8
219 29 32 32 16 71 -36 89 -22 7 -41 15 -43 17 -2 2 13 30 33 62 45 70 111
211 148 312 l26 74 -21 29 c-34 48 -67 59 -171 58 -51 -1 -106 -4 -123 -6z
m128 -145 c8 -13 2 -35 -27 -98 -21 -44 -57 -129 -80 -188 l-42 -107 -69 -8
c-133 -14 -263 -38 -341 -62 -43 -13 -81 -22 -86 -19 -4 3 -8 17 -8 31 0 38
-47 241 -75 324 -14 40 -23 74 -20 77 2 2 129 19 282 37 310 36 449 40 466 13z"/>
</g>
</svg>
