<?xml version="1.0" standalone="no"?>
<!DOCTYPE svg PUBLIC "-//W3C//DTD SVG 20010904//EN"
 "http://www.w3.org/TR/2001/REC-SVG-20010904/DTD/svg10.dtd">
<svg version="1.0" xmlns="http://www.w3.org/2000/svg"
 width="340.000000pt" height="340.000000pt" viewBox="0 0 340.000000 340.000000"
 preserveAspectRatio="xMidYMid meet">
<metadata>
Created by potrace 1.15, written by Peter Selinger 2001-2017
</metadata>
<g transform="translate(0.000000,340.000000) scale(0.100000,-0.100000)"
fill="#000000" stroke="none">
<path d="M1127 2362 c-23 -25 -22 -36 11 -101 26 -55 27 -61 30 -261 l3 -206
-168 -66 c-92 -36 -234 -87 -315 -114 -118 -38 -148 -51 -148 -65 0 -74 264
-34 513 79 42 19 80 32 84 29 10 -11 -47 -155 -128 -316 -83 -169 -198 -349
-310 -488 -71 -89 -83 -113 -77 -154 3 -21 7 -19 68 27 35 27 88 78 117 114
80 99 225 314 292 435 33 60 62 102 65 94 16 -49 16 -138 0 -513 -17 -412 -18
-422 -40 -449 -34 -41 -40 -87 -17 -138 11 -24 27 -50 36 -58 24 -20 82 -6
107 26 20 25 20 37 20 524 l0 499 44 -31 c34 -25 55 -31 95 -32 64 -1 75 9 60
54 -20 59 -47 86 -116 121 -43 21 -72 42 -79 58 -16 34 -6 266 12 284 7 7 35
16 63 19 62 7 148 47 184 85 l28 29 -31 27 c-41 34 -94 34 -160 1 -54 -27 -86
-32 -92 -12 -2 6 0 63 6 125 6 75 6 153 0 229 -10 108 -12 118 -38 139 -34 30
-95 33 -119 6z"/>
<path d="M2341 2135 c-90 -20 -296 -80 -426 -124 -80 -27 -122 -36 -152 -33
-42 4 -43 3 -43 -26 0 -26 5 -32 38 -44 20 -7 73 -13 117 -12 65 0 92 5 145
28 135 59 204 78 290 83 114 6 117 3 101 -89 -16 -88 -52 -218 -87 -311 -19
-49 -31 -68 -47 -72 -12 -3 -44 -9 -72 -15 -73 -15 -227 -67 -316 -106 -49
-22 -93 -34 -121 -34 -24 0 -49 -5 -56 -12 -14 -14 -16 -50 -2 -64 17 -17 32
-239 34 -515 3 -301 -1 -283 89 -366 53 -49 101 -75 182 -98 50 -15 87 -17
240 -12 153 5 376 31 436 51 8 3 33 10 57 16 39 10 46 17 67 63 45 98 53 266
16 336 -25 46 -64 13 -86 -73 -47 -180 -87 -220 -246 -251 -199 -38 -378 -29
-525 27 -52 20 -59 26 -79 72 -51 118 -62 220 -40 400 13 111 14 158 5 233 -5
51 -11 99 -13 105 -2 13 150 56 353 98 167 35 194 51 188 110 -4 28 10 63 73
185 43 82 92 183 109 224 29 67 31 79 21 112 -31 102 -119 143 -250 114z"/>
</g>
</svg>
