<?xml version="1.0" standalone="no"?>
<!DOCTYPE svg PUBLIC "-//W3C//DTD SVG 20010904//EN"
 "http://www.w3.org/TR/2001/REC-SVG-20010904/DTD/svg10.dtd">
<svg version="1.0" xmlns="http://www.w3.org/2000/svg"
 width="340.000000pt" height="340.000000pt" viewBox="0 0 340.000000 340.000000"
 preserveAspectRatio="xMidYMid meet">
<metadata>
Created by potrace 1.15, written by Peter Selinger 2001-2017
</metadata>
<g transform="translate(0.000000,340.000000) scale(0.100000,-0.100000)"
fill="#000000" stroke="none">
<path d="M1422 2544 c-28 -19 -29 -63 -2 -97 19 -24 20 -38 18 -184 l-3 -158
-55 -12 c-70 -16 -303 -51 -397 -59 -49 -5 -73 -11 -73 -20 0 -23 30 -43 77
-50 56 -8 259 3 366 20 59 10 80 10 83 1 3 -6 3 -67 2 -136 l-3 -124 -255 -46
-255 -46 -35 23 c-43 28 -128 50 -140 38 -6 -6 12 -37 45 -79 63 -81 138 -222
185 -348 30 -80 64 -127 92 -127 5 0 21 12 36 27 24 24 42 29 147 45 158 23
149 24 129 -14 -25 -50 -140 -214 -208 -298 -66 -82 -231 -250 -369 -375 -61
-56 -87 -87 -87 -103 l0 -22 43 21 c187 95 401 285 598 531 l78 97 7 -56 c7
-60 -3 -684 -12 -765 -5 -41 -3 -50 20 -72 29 -30 71 -34 85 -9 28 55 33 138
21 363 -6 124 -10 317 -8 428 l3 204 110 -133 c61 -74 184 -208 275 -299 135
-136 178 -173 236 -203 94 -48 176 -67 304 -67 117 0 154 13 148 53 -3 19 -25
29 -138 68 -221 74 -369 154 -515 276 -95 80 -430 411 -423 419 4 3 56 10 116
14 122 9 172 20 254 57 40 18 60 33 68 53 6 15 47 72 91 126 77 96 149 218
149 254 0 34 -75 78 -148 86 -30 4 -65 -1 -97 -11 -27 -10 -135 -32 -240 -49
-190 -32 -190 -32 -198 -12 -11 27 -3 234 9 245 11 11 184 36 349 52 164 15
216 42 201 104 l-7 28 -112 -6 c-65 -4 -152 -16 -207 -30 -113 -29 -220 -42
-220 -28 0 5 5 44 11 86 13 97 -1 188 -41 274 -26 53 -33 61 -57 61 -16 0 -39
-7 -51 -16z m588 -851 c0 -40 -98 -229 -136 -263 -35 -30 -89 -46 -126 -37
-12 3 -59 -3 -105 -13 -46 -11 -86 -20 -88 -20 -3 0 -5 67 -5 149 l0 149 68
15 c64 15 207 34 302 40 25 2 55 4 68 5 18 2 22 -3 22 -25z m-570 -214 c0
-125 -1 -129 -22 -133 -13 -3 -79 -17 -148 -32 -69 -15 -133 -27 -143 -28 -14
-1 -25 17 -46 74 -16 41 -42 104 -60 139 -18 34 -30 66 -27 69 12 12 421 58
434 49 8 -7 12 -47 12 -138z"/>
</g>
</svg>
