<?xml version="1.0" standalone="no"?>
<!DOCTYPE svg PUBLIC "-//W3C//DTD SVG 20010904//EN"
 "http://www.w3.org/TR/2001/REC-SVG-20010904/DTD/svg10.dtd">
<svg version="1.0" xmlns="http://www.w3.org/2000/svg"
 width="340.000000pt" height="340.000000pt" viewBox="0 0 340.000000 340.000000"
 preserveAspectRatio="xMidYMid meet">
<metadata>
Created by potrace 1.15, written by Peter Selinger 2001-2017
</metadata>
<g transform="translate(0.000000,340.000000) scale(0.100000,-0.100000)"
fill="#000000" stroke="none">
<path d="M1723 2529 c-17 -17 -16 -39 2 -59 8 -9 24 -51 35 -94 17 -67 19
-107 18 -314 -3 -331 16 -410 121 -504 44 -40 58 -46 128 -59 159 -28 431 -9
495 35 59 40 73 69 76 159 3 100 -9 131 -55 135 -41 4 -58 -21 -74 -110 l-12
-66 -45 -12 c-143 -36 -303 -42 -368 -15 -97 40 -145 120 -152 251 l-5 90 49
18 c76 29 258 125 299 158 48 40 59 69 41 113 -23 54 -70 69 -126 40 -19 -10
-30 -24 -32 -42 -2 -23 -23 -42 -107 -100 -57 -40 -107 -73 -110 -73 -4 0 -3
33 2 73 15 117 -20 294 -71 357 -21 26 -91 38 -109 19z"/>
<path d="M1145 2453 c-52 -13 -61 -54 -16 -77 36 -19 89 -79 96 -109 2 -12 23
-145 46 -296 l41 -274 -24 -19 c-38 -30 -125 -88 -142 -94 -20 -8 -21 -3 -35
123 -21 179 -87 369 -137 392 -39 17 -85 13 -110 -10 l-22 -21 43 -59 c49 -66
65 -109 96 -254 11 -55 32 -129 45 -164 13 -35 24 -66 24 -70 0 -11 -130 -77
-200 -101 -75 -27 -90 -41 -90 -87 0 -39 23 -54 83 -56 48 -1 91 25 485 296
202 138 292 212 292 238 0 15 -126 -23 -187 -55 l-63 -34 0 143 0 142 55 6
c64 7 148 42 204 87 36 29 38 35 29 56 -19 41 -49 40 -126 -4 -38 -22 -87 -51
-108 -66 -35 -24 -39 -24 -48 -8 -6 9 -11 64 -11 122 -1 145 -27 195 -125 239
-45 21 -59 23 -95 14z"/>
<path d="M1557 1552 c-24 -26 -21 -56 8 -90 22 -27 25 -39 25 -116 0 -47 -2
-86 -4 -86 -3 0 -74 -14 -158 -30 -190 -38 -429 -99 -615 -156 -78 -24 -156
-44 -173 -44 -33 0 -37 -7 -17 -33 10 -15 30 -18 107 -19 117 -1 126 1 330 67
205 67 465 133 477 122 9 -9 -31 -80 -85 -153 -119 -160 -214 -266 -436 -483
-78 -76 -109 -122 -93 -138 9 -8 134 63 187 105 71 58 281 270 342 347 30 39
76 100 101 137 l46 67 7 -56 c7 -60 -1 -543 -12 -675 l-7 -77 34 -20 c42 -26
56 -24 82 11 20 27 20 39 18 434 l-3 407 24 -19 c13 -11 158 -145 321 -299
227 -214 313 -289 365 -317 72 -39 187 -68 271 -68 43 0 53 4 68 26 23 36 10
52 -64 79 -165 59 -589 346 -718 485 -16 18 -81 70 -142 116 -62 46 -113 88
-113 94 0 43 233 67 546 55 115 -4 228 -8 251 -8 53 -2 83 23 83 69 0 31 -3
34 -51 48 -78 24 -166 29 -249 17 -76 -11 -532 -61 -560 -61 -12 0 -14 10 -12
44 12 141 -115 292 -181 218z"/>
</g>
</svg>
