<?xml version="1.0" standalone="no"?>
<!DOCTYPE svg PUBLIC "-//W3C//DTD SVG 20010904//EN"
 "http://www.w3.org/TR/2001/REC-SVG-20010904/DTD/svg10.dtd">
<svg version="1.0" xmlns="http://www.w3.org/2000/svg"
 width="340.000000pt" height="340.000000pt" viewBox="0 0 340.000000 340.000000"
 preserveAspectRatio="xMidYMid meet">
<metadata>
Created by potrace 1.15, written by Peter Selinger 2001-2017
</metadata>
<g transform="translate(0.000000,340.000000) scale(0.100000,-0.100000)"
fill="#000000" stroke="none">
<path d="M2350 2375 c-10 -13 -7 -30 18 -98 l31 -82 6 -271 7 -272 -34 -10
c-18 -6 -67 -20 -108 -32 -198 -56 -300 -92 -300 -104 0 -45 110 -45 292 -1
162 39 144 70 151 -248 3 -150 3 -393 0 -541 -6 -239 -8 -266 -22 -260 -79 33
-156 43 -164 22 -6 -19 9 -75 26 -102 26 -39 145 -118 187 -123 34 -5 43 -1
71 27 l32 32 -7 566 c-3 312 -9 592 -12 623 l-6 56 93 13 c85 11 277 55 288
65 8 9 -22 66 -43 80 -28 20 -88 19 -188 -4 -46 -11 -100 -22 -122 -26 l-39
-6 6 48 c3 26 9 161 13 299 6 229 5 253 -11 288 -10 21 -32 47 -49 57 -37 23
-99 25 -116 4z"/>
<path d="M1098 2349 c-35 -20 -41 -47 -18 -84 28 -45 34 -126 25 -339 l-7
-178 -87 -40 c-156 -73 -415 -178 -436 -178 -32 0 -59 -24 -51 -45 14 -37 243
4 378 69 85 40 148 59 148 45 0 -16 -113 -238 -160 -314 -59 -97 -130 -193
-222 -304 -62 -73 -78 -99 -76 -120 5 -47 41 -39 113 24 83 72 165 175 284
355 l96 145 3 -215 c2 -118 -2 -299 -8 -403 -12 -187 -12 -187 -41 -216 -24
-24 -29 -38 -29 -76 0 -116 94 -189 145 -111 22 33 36 241 36 546 1 140 3 281
6 312 l5 57 32 -34 c37 -39 72 -55 119 -55 56 0 63 11 43 64 -22 57 -90 119
-150 136 -39 11 -44 15 -50 48 -7 47 -6 144 2 201 l7 44 61 17 c59 16 122 48
173 88 29 23 22 39 -26 59 -40 16 -82 10 -129 -18 -36 -22 -70 -25 -77 -6 -2
6 1 46 8 87 14 78 19 191 17 321 -2 66 -5 80 -27 103 -26 28 -74 35 -107 15z"/>
<path d="M1652 1771 c-112 -49 -207 -92 -210 -96 -13 -13 16 -40 48 -43 42 -4
216 33 297 64 l63 23 0 -29 c0 -26 -108 -324 -130 -360 -8 -12 -16 -9 -47 21
-101 97 -259 187 -294 168 -11 -5 -19 -16 -19 -24 0 -12 95 -108 245 -248 l50
-46 -18 -33 c-34 -61 -166 -243 -272 -376 -58 -73 -105 -138 -105 -146 0 -21
25 -26 54 -11 79 41 275 247 369 387 29 43 54 77 57 77 3 0 23 -29 45 -65 39
-64 139 -169 182 -192 19 -10 24 -9 33 7 25 48 7 103 -60 181 -25 29 -66 84
-92 122 l-48 69 34 68 c78 153 176 421 176 477 0 16 -13 39 -34 60 -55 55 -85
49 -324 -55z"/>
<path d="M2016 1283 c11 -63 62 -161 99 -189 37 -28 98 -46 122 -37 35 14 -7
142 -64 194 -37 35 -106 69 -138 69 -24 0 -26 -2 -19 -37z"/>
</g>
</svg>
