<?xml version="1.0" standalone="no"?>
<!DOCTYPE svg PUBLIC "-//W3C//DTD SVG 20010904//EN"
 "http://www.w3.org/TR/2001/REC-SVG-20010904/DTD/svg10.dtd">
<svg version="1.0" xmlns="http://www.w3.org/2000/svg"
 width="340.000000pt" height="340.000000pt" viewBox="0 0 340.000000 340.000000"
 preserveAspectRatio="xMidYMid meet">
<metadata>
Created by potrace 1.15, written by Peter Selinger 2001-2017
</metadata>
<g transform="translate(0.000000,340.000000) scale(0.100000,-0.100000)"
fill="#000000" stroke="none">
<path d="M997 2392 c-23 -25 -21 -40 10 -108 30 -65 30 -69 26 -367 l-3 -168
-46 -19 c-25 -11 -142 -53 -260 -93 -118 -39 -212 -76 -211 -82 2 -5 15 -16
29 -24 22 -13 39 -11 149 13 68 15 167 40 221 56 53 17 99 30 102 30 7 0 -20
-69 -70 -185 -36 -80 -175 -298 -375 -587 -60 -86 -109 -164 -109 -172 0 -18
13 -20 40 -6 49 26 364 423 467 587 l48 78 3 -479 2 -480 -25 -26 c-34 -36
-32 -65 9 -106 39 -39 72 -43 110 -13 l26 20 0 502 0 501 28 -27 c38 -37 110
-67 160 -67 41 0 42 1 42 33 0 78 -66 140 -163 153 -75 10 -81 26 -72 183 l7
129 47 12 c25 7 93 31 150 53 l103 39 -6 32 c-6 32 -38 66 -62 66 -8 0 -43
-12 -77 -26 -50 -21 -142 -53 -155 -54 -1 0 1 127 4 283 l7 283 -32 27 c-39
33 -99 37 -124 9z"/>
<path d="M1751 2341 c-25 -3 -46 -11 -48 -17 -8 -25 179 -120 312 -159 50 -14
60 -14 72 -2 20 20 19 73 -1 96 -47 52 -229 96 -335 82z"/>
<path d="M2277 2015 c-104 -31 -319 -99 -479 -152 -290 -96 -291 -96 -269
-115 31 -24 43 -23 167 13 151 43 451 112 641 148 201 37 243 61 228 132 -6
27 -10 29 -53 29 -26 -1 -131 -25 -235 -55z"/>
<path d="M2140 1694 c0 -30 25 -56 165 -169 213 -172 221 -177 254 -170 41 9
54 28 46 67 -9 41 -118 148 -199 197 -53 31 -226 101 -253 101 -7 0 -13 -12
-13 -26z"/>
<path d="M1700 1643 c-16 -21 -20 -35 -15 -61 7 -38 6 -40 -191 -359 -95 -155
-110 -184 -100 -199 21 -28 51 -8 147 101 l91 104 76 -97 c41 -53 106 -134
144 -179 l68 -82 -62 -78 c-86 -108 -226 -251 -333 -340 -49 -41 -103 -86
-118 -99 -30 -25 -32 -47 -3 -52 30 -6 232 119 366 226 90 72 132 115 184 188
l49 68 71 -79 c140 -158 302 -317 366 -360 94 -63 173 -86 308 -93 99 -4 115
-3 132 13 27 24 25 61 -2 79 -13 8 -67 26 -120 40 -109 29 -211 69 -308 123
-62 35 -293 248 -361 334 l-29 36 50 99 c58 112 106 254 122 359 11 68 10 74
-13 116 -27 50 -56 60 -95 35 -19 -13 -24 -25 -24 -60 0 -53 -24 -181 -46
-251 -20 -63 -75 -185 -83 -185 -3 0 -44 35 -91 77 -46 42 -119 102 -161 132
l-76 56 54 60 c58 63 113 167 133 250 11 49 11 50 -19 77 -41 37 -82 37 -111
1z"/>
</g>
</svg>
