<?xml version="1.0" standalone="no"?>
<!DOCTYPE svg PUBLIC "-//W3C//DTD SVG 20010904//EN"
 "http://www.w3.org/TR/2001/REC-SVG-20010904/DTD/svg10.dtd">
<svg version="1.0" xmlns="http://www.w3.org/2000/svg"
 width="340.000000pt" height="340.000000pt" viewBox="0 0 340.000000 340.000000"
 preserveAspectRatio="xMidYMid meet">
<metadata>
Created by potrace 1.15, written by Peter Selinger 2001-2017
</metadata>
<g transform="translate(0.000000,340.000000) scale(0.100000,-0.100000)"
fill="#000000" stroke="none">
<path d="M1065 2451 c-7 -23 15 -80 38 -100 33 -27 38 -81 27 -293 -6 -112
-12 -212 -15 -224 -3 -14 -20 -27 -52 -39 -27 -10 -139 -56 -251 -102 -112
-45 -214 -83 -227 -83 -30 0 -41 -16 -24 -36 29 -35 237 5 398 75 52 23 96 39
98 37 2 -1 -5 -31 -16 -65 -36 -117 -206 -388 -390 -624 -91 -117 -132 -189
-117 -204 9 -9 114 74 184 146 65 67 129 152 293 393 l90 133 -6 -400 c-7
-438 -16 -586 -42 -711 -16 -77 -16 -83 0 -108 23 -34 52 -33 87 2 36 37 38
53 44 467 3 182 9 397 12 478 l7 148 41 -40 c48 -47 81 -61 142 -61 39 0 44 3
44 22 0 65 -69 141 -152 168 -21 6 -47 23 -59 38 -19 24 -21 35 -15 107 4 44
9 101 12 126 l6 47 53 7 c110 13 269 120 245 164 -16 32 -66 43 -108 25 -20
-8 -43 -21 -52 -28 -18 -17 -128 -52 -135 -44 -4 3 -1 41 4 84 6 44 18 155 26
248 l15 168 -24 33 c-31 40 -82 65 -134 65 -31 0 -42 -4 -47 -19z"/>
<path d="M1813 2373 c-7 -2 -13 -13 -13 -23 0 -41 201 -124 328 -136 71 -7 71
-7 78 20 17 69 -18 101 -140 128 -75 16 -224 23 -253 11z"/>
<path d="M2210 2030 c-228 -59 -461 -124 -518 -144 -56 -20 -113 -36 -127 -36
-28 0 -33 -21 -10 -40 22 -18 172 -8 283 20 118 31 120 29 104 -83 -20 -143
-109 -287 -309 -500 -89 -95 -101 -130 -58 -172 36 -37 69 -32 191 29 113 55
268 120 317 131 46 12 34 -22 -54 -150 -140 -206 -274 -373 -451 -567 -68 -73
-100 -117 -105 -140 l-6 -33 29 19 c298 189 637 622 897 1146 78 156 82 168
82 231 0 56 -4 71 -27 101 -37 48 -82 66 -117 47 -34 -19 -39 -60 -12 -104 18
-31 19 -37 5 -88 -20 -79 -58 -176 -103 -265 l-39 -78 -108 -18 c-59 -10 -146
-30 -193 -46 -47 -16 -87 -28 -88 -26 -3 3 32 49 140 185 81 102 167 282 167
349 0 13 -9 37 -20 52 l-21 29 64 20 c104 32 284 69 416 86 130 17 161 29 180
71 19 42 -17 85 -71 83 -13 0 -210 -49 -438 -109z"/>
<path d="M2549 1439 c-11 -23 -27 -72 -35 -110 -37 -179 -174 -440 -341 -650
-71 -88 -192 -213 -285 -292 -46 -39 -70 -69 -76 -90 -5 -19 -5 -33 1 -36 5
-2 43 14 85 35 66 32 98 58 218 178 78 78 159 163 182 190 l40 49 44 -33 c107
-84 243 -208 283 -260 85 -111 144 -142 206 -110 26 14 24 34 -10 105 -55 117
-236 255 -417 320 -38 13 -68 28 -67 34 2 5 28 48 58 95 111 170 245 494 230
555 -10 38 -34 61 -66 61 -23 0 -32 -8 -50 -41z"/>
</g>
</svg>
