<?xml version="1.0" standalone="no"?>
<!DOCTYPE svg PUBLIC "-//W3C//DTD SVG 20010904//EN"
 "http://www.w3.org/TR/2001/REC-SVG-20010904/DTD/svg10.dtd">
<svg version="1.0" xmlns="http://www.w3.org/2000/svg"
 width="340.000000pt" height="340.000000pt" viewBox="0 0 340.000000 340.000000"
 preserveAspectRatio="xMidYMid meet">
<metadata>
Created by potrace 1.15, written by Peter Selinger 2001-2017
</metadata>
<g transform="translate(0.000000,340.000000) scale(0.100000,-0.100000)"
fill="#000000" stroke="none">
<path d="M1495 2552 c-11 -2 -24 -8 -28 -12 -13 -12 55 -82 156 -163 102 -82
108 -72 -64 -111 -163 -36 -283 -56 -291 -48 -4 4 -12 32 -18 62 -11 57 -33
90 -60 90 -27 0 -40 -22 -40 -65 0 -57 -27 -142 -60 -190 -16 -23 -36 -64 -45
-92 -17 -53 -17 -134 1 -140 5 -2 31 11 57 28 38 25 54 45 81 103 19 39 41 95
51 123 16 50 18 53 43 45 15 -4 86 -7 157 -6 108 0 153 6 265 32 74 17 180 36
235 42 115 13 290 10 290 -5 0 -5 -21 -20 -46 -32 -25 -12 -58 -36 -72 -53
-28 -33 -44 -76 -33 -87 16 -16 148 17 239 60 104 50 137 83 137 142 0 24 -8
35 -43 57 -93 58 -218 74 -327 42 -51 -15 -259 -54 -290 -54 -12 0 -15 8 -12
34 7 59 -44 123 -136 170 -37 19 -116 34 -147 28z"/>
<path d="M1562 2158 c-16 -16 -15 -80 2 -104 13 -17 11 -26 -20 -84 -19 -36
-54 -92 -79 -125 l-45 -61 -430 -82 c-236 -46 -439 -81 -450 -77 -35 11 -60
-3 -60 -35 0 -36 15 -40 152 -40 115 0 204 14 342 54 49 14 136 35 195 47 58
11 119 22 134 25 l28 6 -20 -38 c-12 -21 -21 -56 -21 -78 0 -35 2 -38 23 -30
46 16 112 8 195 -25 45 -18 82 -36 82 -41 0 -4 -30 -25 -67 -46 -357 -198
-387 -217 -368 -230 61 -45 286 34 491 171 l95 63 238 -119 c224 -112 284
-150 267 -166 -7 -8 -349 -52 -403 -53 -33 0 -33 1 -33 48 0 59 -27 117 -73
161 -35 33 -38 34 -77 22 -35 -10 -40 -16 -40 -40 0 -16 11 -53 25 -83 14 -29
25 -70 25 -91 0 -32 -4 -39 -27 -48 -45 -17 -554 -140 -606 -146 -54 -7 -69
-25 -43 -51 13 -14 37 -16 129 -16 101 1 124 5 227 38 137 44 311 88 319 80 9
-9 7 -482 -2 -547 -7 -49 -11 -57 -25 -51 -9 4 -30 8 -47 8 -23 1 -31 -5 -39
-25 -14 -41 1 -76 57 -135 60 -61 89 -68 132 -32 44 38 56 144 59 496 2 167 7
307 12 312 21 21 270 41 481 39 184 -2 215 0 237 15 68 44 -16 116 -135 116
l-49 0 0 35 c0 71 -43 122 -136 159 -32 13 -124 54 -204 90 -80 36 -149 68
-155 69 -5 2 5 24 22 48 18 24 56 78 84 120 39 59 58 78 80 83 16 3 118 10
227 16 207 11 514 1 583 -20 47 -13 86 1 99 35 16 43 12 52 -39 74 -118 50
-293 66 -416 36 -55 -12 -321 -35 -417 -35 -30 0 -38 4 -38 18 0 45 -22 93
-50 107 -66 34 -87 13 -92 -92 l-3 -58 -45 -7 c-25 -3 -92 -9 -150 -14 l-105
-7 37 41 c69 77 87 138 63 220 -10 31 -25 58 -38 66 -34 21 -81 28 -95 14z
m258 -429 c0 -20 -52 -99 -82 -124 -34 -29 -66 -31 -153 -10 -33 8 -77 15 -97
15 -41 0 -48 13 -28 51 16 29 57 45 155 58 50 7 95 15 100 16 26 8 105 4 105
-6z"/>
<path d="M1284 719 c-176 -140 -205 -182 -183 -262 5 -20 12 -37 15 -37 23 0
102 51 134 87 36 42 150 248 150 272 0 24 -30 8 -116 -60z"/>
<path d="M2096 758 c9 -29 263 -279 324 -319 59 -39 89 -36 113 14 19 37 19
37 -7 80 -51 84 -126 146 -202 167 -27 7 -86 28 -131 47 -98 39 -107 40 -97
11z"/>
</g>
</svg>
