<?xml version="1.0" standalone="no"?>
<!DOCTYPE svg PUBLIC "-//W3C//DTD SVG 20010904//EN"
 "http://www.w3.org/TR/2001/REC-SVG-20010904/DTD/svg10.dtd">
<svg version="1.0" xmlns="http://www.w3.org/2000/svg"
 width="340.000000pt" height="340.000000pt" viewBox="0 0 340.000000 340.000000"
 preserveAspectRatio="xMidYMid meet">
<metadata>
Created by potrace 1.15, written by Peter Selinger 2001-2017
</metadata>
<g transform="translate(0.000000,340.000000) scale(0.100000,-0.100000)"
fill="#000000" stroke="none">
<path d="M1493 2500 c-31 -13 -29 -41 8 -93 26 -37 33 -60 44 -148 21 -157 35
-333 27 -341 -4 -4 -74 -24 -156 -46 l-149 -39 21 -21 c26 -26 45 -27 132 -6
133 31 330 55 519 61 187 6 193 6 188 -13 -3 -10 -15 -50 -26 -89 -11 -38 -48
-123 -81 -187 l-61 -116 -67 -7 c-169 -17 -401 -60 -473 -89 -13 -6 -19 9 -36
77 -38 154 -112 265 -227 343 -47 31 -52 33 -63 17 -20 -26 -16 -40 26 -86 44
-48 98 -163 151 -325 34 -104 60 -152 82 -152 4 0 18 10 29 21 27 27 75 38
156 39 l62 0 11 -37 c17 -58 24 -159 12 -167 -6 -4 -235 -54 -509 -112 -333
-70 -509 -103 -530 -99 -24 4 -37 1 -53 -15 -11 -11 -20 -24 -20 -29 0 -5 26
-20 58 -32 45 -17 77 -22 152 -22 86 0 108 4 236 46 198 66 602 167 667 167
19 0 32 -290 22 -492 l-7 -143 -57 0 -56 0 -3 -37 c-2 -29 3 -43 29 -73 57
-64 114 -80 185 -50 l35 14 -1 228 c-1 125 -1 305 -1 399 l1 172 35 6 c176 33
600 46 843 25 124 -11 134 -11 153 7 30 27 22 73 -18 96 -26 16 -61 20 -200
25 -183 6 -377 -6 -631 -38 -89 -12 -168 -19 -176 -16 -8 3 -15 32 -19 84 -3
43 -9 88 -12 99 -6 19 -1 23 42 32 26 6 73 14 103 17 71 8 128 34 171 77 73
74 188 327 205 451 6 44 5 46 -34 72 -86 57 -209 71 -323 36 -69 -21 -169 -41
-206 -41 -23 0 -23 1 -23 115 0 85 3 115 13 115 6 0 95 11 197 24 229 29 270
47 270 119 0 22 -5 26 -50 32 -72 10 -118 -1 -271 -61 -75 -30 -142 -54 -148
-54 -7 0 -11 19 -11 49 0 91 -52 189 -112 210 -36 13 -45 13 -75 1z"/>
<path d="M1760 1724 c-179 -33 -362 -85 -389 -110 -12 -11 -12 -16 -1 -28 34
-42 472 12 529 65 24 23 25 29 8 53 -13 18 -97 29 -147 20z"/>
<path d="M1205 758 c-65 -82 -139 -215 -151 -274 -5 -26 -2 -32 21 -42 57 -26
83 -7 154 112 53 91 81 167 84 230 2 45 0 51 -19 54 -17 2 -37 -16 -89 -80z"/>
<path d="M2050 812 c0 -28 27 -59 75 -88 25 -14 45 -30 45 -35 0 -5 32 -43 71
-84 82 -86 181 -157 207 -148 30 10 62 46 62 67 0 78 -210 243 -369 290 -71
21 -91 20 -91 -2z"/>
</g>
</svg>
