<?xml version="1.0" standalone="no"?>
<!DOCTYPE svg PUBLIC "-//W3C//DTD SVG 20010904//EN"
 "http://www.w3.org/TR/2001/REC-SVG-20010904/DTD/svg10.dtd">
<svg version="1.0" xmlns="http://www.w3.org/2000/svg"
 width="340.000000pt" height="340.000000pt" viewBox="0 0 340.000000 340.000000"
 preserveAspectRatio="xMidYMid meet">
<metadata>
Created by potrace 1.15, written by Peter Selinger 2001-2017
</metadata>
<g transform="translate(0.000000,340.000000) scale(0.100000,-0.100000)"
fill="#000000" stroke="none">
<path d="M1153 2430 c-38 -23 -41 -39 -12 -66 45 -41 49 -61 49 -284 l0 -211
-37 -16 c-121 -50 -529 -193 -553 -193 -37 0 -43 -11 -23 -40 15 -21 21 -22
97 -18 65 5 120 19 279 73 109 37 201 64 205 61 3 -4 -9 -52 -27 -108 -60
-182 -202 -437 -307 -550 -50 -54 -107 -140 -134 -204 -26 -60 -25 -74 4 -74
16 0 40 18 76 56 68 75 229 292 320 429 39 61 74 112 77 115 8 8 -6 -645 -18
-810 -8 -118 -14 -149 -29 -165 -30 -32 -34 -68 -12 -117 10 -23 26 -49 36
-57 20 -16 72 -17 91 -1 23 19 28 120 29 600 1 261 5 481 10 488 6 11 17 6 45
-21 43 -41 63 -52 113 -61 48 -9 88 2 88 23 0 32 -46 96 -84 117 -21 12 -57
25 -79 28 -80 13 -78 7 -75 189 l3 162 46 6 c78 11 146 55 175 112 15 27 14
28 -20 42 -48 20 -92 18 -145 -5 l-43 -20 6 72 c3 40 9 143 12 229 6 133 4
160 -10 187 -9 17 -25 36 -35 42 -31 16 -83 12 -118 -10z"/>
<path d="M2355 2064 c-146 -22 -281 -52 -423 -95 -73 -21 -138 -39 -146 -39
-7 0 -19 -7 -26 -15 -11 -13 -16 -12 -41 6 -35 24 -55 20 -61 -13 -2 -13 2
-95 10 -183 18 -206 19 -794 2 -1070 -16 -273 -16 -303 -2 -317 8 -8 20 -9 39
-2 32 11 36 25 59 194 32 237 30 1135 -2 1317 -6 31 -5 32 27 32 19 -1 102 10
184 24 193 33 464 60 532 55 53 -5 91 -28 113 -69 5 -8 16 -134 25 -280 8
-145 25 -406 36 -579 15 -235 19 -358 14 -483 -4 -92 -10 -166 -14 -165 -3 2
-23 12 -43 22 -40 21 -61 14 -71 -24 -12 -46 71 -169 137 -205 35 -19 36 -19
63 1 16 12 37 36 47 53 18 31 18 42 8 189 -21 277 -34 617 -41 1052 -6 407 -7
427 -28 472 -26 56 -63 94 -118 119 -48 22 -148 24 -280 3z"/>
<path d="M2145 1700 c-104 -26 -203 -51 -218 -54 -22 -5 -28 -12 -25 -29 3
-19 12 -23 63 -31 114 -16 417 29 482 71 28 18 30 54 5 76 -30 27 -101 19
-307 -33z"/>
<path d="M2280 1417 c-63 -19 -146 -44 -183 -56 -66 -22 -79 -23 -164 -5 -26
5 -34 2 -39 -11 -4 -9 18 -92 49 -188 31 -95 69 -216 84 -270 27 -98 27 -98
57 -95 24 2 31 9 38 36 8 31 10 32 62 32 68 0 137 13 206 39 l55 21 -3 44 c-3
33 5 66 32 133 19 49 40 123 46 164 26 183 -26 217 -240 156z m110 -141 c0
-13 -11 -52 -24 -87 -13 -35 -29 -90 -36 -121 -10 -51 -14 -58 -35 -58 -21 0
-113 -26 -157 -45 -14 -5 -18 -2 -18 13 0 11 -16 77 -36 146 -20 70 -34 129
-32 131 5 5 274 42 316 44 17 1 22 -5 22 -23z"/>
</g>
</svg>
