<?xml version="1.0" standalone="no"?>
<!DOCTYPE svg PUBLIC "-//W3C//DTD SVG 20010904//EN"
 "http://www.w3.org/TR/2001/REC-SVG-20010904/DTD/svg10.dtd">
<svg version="1.0" xmlns="http://www.w3.org/2000/svg"
 width="340.000000pt" height="340.000000pt" viewBox="0 0 340.000000 340.000000"
 preserveAspectRatio="xMidYMid meet">
<metadata>
Created by potrace 1.15, written by Peter Selinger 2001-2017
</metadata>
<g transform="translate(0.000000,340.000000) scale(0.100000,-0.100000)"
fill="#000000" stroke="none">
<path d="M1031 2534 c-27 -19 -25 -45 9 -139 22 -58 22 -69 16 -285 -6 -213
-7 -226 -27 -241 -12 -9 -108 -58 -215 -110 -190 -93 -211 -108 -182 -137 23
-23 79 -11 206 44 180 79 165 79 141 -7 -29 -107 -139 -287 -386 -636 -38 -52
-43 -83 -14 -83 43 0 315 320 417 490 21 36 44 65 49 65 7 0 9 -138 6 -400 -3
-362 -5 -402 -21 -425 -27 -38 -34 -86 -20 -136 15 -52 41 -74 87 -74 64 0 63
-4 56 459 -3 229 -3 442 1 474 l8 59 36 -43 c38 -44 120 -89 164 -89 21 0 28
6 33 29 7 34 -13 88 -45 116 -12 11 -59 38 -103 60 l-82 40 -3 116 -3 115 68
35 c74 37 137 109 116 130 -21 21 -95 22 -133 2 l-35 -18 0 273 0 274 -33 29
c-37 33 -76 37 -111 13z"/>
<path d="M1587 2463 c-15 -14 -6 -65 18 -101 19 -29 28 -64 40 -155 23 -183
29 -166 -73 -208 -48 -20 -105 -42 -126 -49 l-40 -13 23 -18 c30 -24 64 -24
136 1 32 11 66 20 75 20 20 0 30 -43 30 -136 0 -50 -4 -64 -22 -81 -28 -25
-72 -48 -113 -57 -53 -13 -85 -59 -51 -72 8 -3 51 2 96 11 45 9 84 14 87 12 3
-3 2 -60 -2 -126 l-8 -120 -151 -85 c-193 -108 -194 -109 -177 -130 22 -26 53
-19 176 39 65 30 120 55 123 55 3 0 2 -33 -1 -74 -7 -82 -37 -179 -92 -303
-48 -109 -92 -282 -75 -293 30 -19 62 14 112 115 84 165 144 349 185 564 7 40
11 45 48 56 99 29 222 115 210 146 -9 25 -50 39 -82 30 -15 -5 -51 -21 -79
-36 -71 -40 -84 -33 -84 52 0 106 11 173 27 173 26 0 108 48 141 82 37 39 35
60 -8 78 -23 10 -36 8 -79 -10 -71 -31 -85 -23 -77 43 3 28 6 64 6 79 0 23 6
29 38 38 54 14 101 48 126 92 26 45 17 58 -46 65 -30 3 -54 -1 -79 -15 l-36
-19 -5 96 c-5 102 -25 164 -74 228 -21 28 -31 33 -68 33 -23 0 -46 -3 -49 -7z"/>
<path d="M2460 2182 c-144 -65 -317 -147 -327 -157 -2 -1 1 -67 7 -148 13
-197 37 -762 50 -1202 14 -457 17 -499 40 -527 13 -16 22 -20 29 -13 5 6 17
62 25 125 12 97 13 230 6 870 -7 666 -10 762 -25 813 -9 32 -15 60 -13 62 7 8
332 104 336 101 6 -7 -28 -67 -92 -161 -33 -49 -86 -141 -119 -204 l-59 -114
54 -45 c78 -67 173 -167 234 -247 54 -72 124 -183 124 -197 0 -14 -32 -9 -76
12 -49 24 -125 38 -172 30 l-32 -5 21 -42 c21 -42 43 -62 114 -99 22 -12 58
-31 80 -43 47 -25 119 -28 172 -6 l36 15 -6 73 c-3 39 -15 100 -27 134 -52
150 -207 327 -356 405 l-64 34 83 115 c45 62 126 169 179 236 95 121 116 162
103 204 -8 25 -77 58 -120 59 -16 0 -109 -35 -205 -78z"/>
</g>
</svg>
