<?xml version="1.0" standalone="no"?>
<!DOCTYPE svg PUBLIC "-//W3C//DTD SVG 20010904//EN"
 "http://www.w3.org/TR/2001/REC-SVG-20010904/DTD/svg10.dtd">
<svg version="1.0" xmlns="http://www.w3.org/2000/svg"
 width="340.000000pt" height="340.000000pt" viewBox="0 0 340.000000 340.000000"
 preserveAspectRatio="xMidYMid meet">
<metadata>
Created by potrace 1.15, written by Peter Selinger 2001-2017
</metadata>
<g transform="translate(0.000000,340.000000) scale(0.100000,-0.100000)"
fill="#000000" stroke="none">
<path d="M2371 2609 c-8 -24 -7 -39 4 -66 l15 -36 -47 -54 c-116 -131 -157
-183 -208 -259 -30 -45 -55 -84 -55 -88 0 -3 16 -6 35 -6 28 0 50 13 122 73
48 41 139 127 201 191 98 104 112 123 112 153 0 74 -53 123 -134 123 -29 0
-36 -4 -45 -31z"/>
<path d="M1148 2525 c-35 -20 -43 -48 -24 -87 13 -26 16 -73 16 -272 l0 -242
-247 -92 c-137 -51 -258 -92 -270 -92 -28 0 -37 -14 -23 -40 9 -17 21 -20 83
-20 96 0 181 20 302 68 55 22 102 36 104 30 6 -17 -50 -161 -110 -282 -93
-187 -210 -358 -356 -522 -70 -80 -77 -91 -74 -126 2 -30 23 -21 108 46 115
91 263 288 413 547 l60 104 0 -462 0 -462 -27 -13 c-23 -11 -29 -21 -31 -53
-8 -99 21 -145 93 -145 36 0 47 4 57 23 9 17 12 139 9 536 l-3 515 47 -51 c49
-55 112 -87 161 -81 27 3 29 7 32 48 2 39 -1 49 -25 72 -15 14 -64 40 -108 57
-44 17 -86 35 -93 40 -11 6 -12 35 -6 138 l7 130 56 13 c59 13 160 57 199 88
20 15 22 22 13 45 -19 50 -50 54 -138 19 -105 -41 -135 -48 -129 -31 3 8 10
95 15 194 6 99 14 210 17 246 4 60 3 70 -18 93 -28 32 -74 41 -110 21z"/>
<path d="M1656 2513 c-18 -18 -1 -67 47 -139 40 -61 62 -84 97 -102 60 -30 94
-26 98 12 10 86 -28 141 -132 190 -85 41 -102 47 -110 39z"/>
<path d="M2225 2106 c-132 -30 -267 -65 -301 -79 -33 -14 -111 -39 -173 -56
-63 -17 -115 -32 -118 -34 -9 -9 10 -35 33 -46 21 -9 47 -6 147 19 66 16 136
30 154 30 l32 0 -6 -132 c-3 -73 -8 -136 -12 -139 -3 -3 -70 -25 -148 -48
l-141 -41 -36 21 c-58 34 -66 24 -66 -88 0 -111 -18 -201 -55 -273 -33 -64
-32 -75 9 -116 45 -45 68 -44 233 12 74 25 139 44 145 42 5 -2 -4 -22 -19 -45
-51 -75 -270 -336 -388 -463 -127 -136 -148 -166 -124 -181 8 -5 16 -9 19 -9
3 0 53 35 110 79 120 90 256 222 380 369 l85 101 3 -426 c1 -294 6 -430 13
-440 16 -19 52 -16 81 6 24 19 25 27 32 153 3 73 1 246 -5 383 -7 145 -9 308
-4 387 l7 138 51 15 c56 17 123 28 267 46 80 9 107 9 169 -5 41 -9 79 -20 84
-25 20 -20 -153 -340 -218 -405 -27 -26 -69 -20 -116 19 -23 20 -51 41 -61 46
-28 15 -67 2 -80 -26 -9 -21 -6 -31 23 -76 18 -28 51 -65 73 -80 40 -30 121
-59 162 -59 40 0 246 278 319 431 54 112 46 188 -27 256 -65 62 -239 67 -464
12 -67 -16 -136 -29 -154 -29 l-32 0 7 113 c4 61 10 115 14 119 10 11 177 38
235 38 l51 0 62 88 c73 102 173 292 173 328 0 42 -27 81 -67 97 -78 30 -108
28 -358 -27z m271 -89 c2 -2 -25 -65 -61 -139 -36 -75 -65 -140 -65 -145 0
-10 -18 -13 -183 -29 l-68 -6 3 143 3 143 35 9 c104 27 318 42 336 24z m-512
-473 c24 -23 23 -184 -1 -212 -16 -19 -138 -54 -264 -77 l-36 -7 18 69 c10 37
18 99 18 136 1 44 5 69 14 72 6 3 59 11 117 19 58 8 108 14 112 15 4 1 14 -6
22 -15z"/>
</g>
</svg>
