<?xml version="1.0" standalone="no"?>
<!DOCTYPE svg PUBLIC "-//W3C//DTD SVG 20010904//EN"
 "http://www.w3.org/TR/2001/REC-SVG-20010904/DTD/svg10.dtd">
<svg version="1.0" xmlns="http://www.w3.org/2000/svg"
 width="340.000000pt" height="340.000000pt" viewBox="0 0 340.000000 340.000000"
 preserveAspectRatio="xMidYMid meet">
<metadata>
Created by potrace 1.15, written by Peter Selinger 2001-2017
</metadata>
<g transform="translate(0.000000,340.000000) scale(0.100000,-0.100000)"
fill="#000000" stroke="none">
<path d="M1732 2574 c-40 -28 -26 -64 37 -98 l54 -29 -7 -151 c-10 -221 -7
-214 -91 -243 -39 -13 -106 -33 -150 -44 -117 -29 -114 -27 -86 -50 28 -23 59
-23 166 -4 44 8 94 14 110 15 l31 0 11 -97 c7 -54 9 -101 5 -104 -4 -4 -47
-19 -97 -34 -158 -47 -420 -128 -424 -132 -3 -2 3 -11 12 -20 25 -25 95 -19
238 20 281 78 726 147 951 147 79 0 129 18 153 54 54 82 -67 107 -302 62 -71
-14 -191 -36 -268 -51 -77 -14 -150 -28 -162 -30 -21 -5 -23 -2 -23 38 0 44
25 156 38 169 4 4 52 19 106 33 111 29 227 74 233 91 2 6 -6 23 -17 37 -28 35
-50 34 -180 -3 -143 -41 -142 -41 -136 18 3 26 8 113 11 194 7 165 2 183 -60
212 -43 21 -124 21 -153 0z"/>
<path d="M920 2413 c-25 -9 -50 -35 -50 -52 0 -8 12 -32 26 -52 14 -21 29 -53
33 -72 5 -18 3 -127 -3 -242 l-11 -209 -55 -22 c-30 -13 -148 -58 -262 -100
-127 -48 -208 -83 -208 -91 0 -7 11 -19 25 -25 29 -13 145 15 355 88 72 24
133 44 136 44 33 0 -176 -362 -408 -706 -59 -88 -108 -168 -108 -177 0 -38 41
-14 114 65 136 150 247 299 355 478 l51 85 0 -67 c0 -126 -21 -524 -40 -751
l-19 -228 -30 -35 c-25 -28 -31 -43 -31 -82 0 -112 100 -162 155 -78 12 18 19
129 35 607 11 321 20 587 20 592 0 15 19 5 119 -68 113 -82 148 -92 175 -53
25 35 19 53 -31 97 -59 53 -132 94 -207 117 l-58 18 6 72 c4 40 12 91 19 114
12 42 13 43 79 59 63 16 178 81 178 101 0 16 -44 40 -74 40 -16 0 -60 -11 -98
-25 -38 -14 -74 -25 -79 -25 -7 0 -8 15 -5 38 6 40 21 226 32 392 6 103 5 106
-20 133 -19 21 -34 27 -63 26 -21 0 -45 -3 -53 -6z"/>
<path d="M2030 1609 c0 -8 7 -24 15 -36 14 -20 222 -143 337 -199 l58 -28 27
20 c65 49 27 110 -108 177 -84 41 -164 63 -261 73 -55 5 -68 4 -68 -7z"/>
<path d="M1613 1498 c-17 -35 -63 -99 -103 -143 -118 -131 -240 -287 -240
-307 0 -25 23 -32 52 -17 120 63 421 359 431 422 9 64 -26 107 -87 107 -18 0
-29 -13 -53 -62z"/>
<path d="M1880 1388 c-11 -18 -27 -56 -36 -85 -42 -143 -303 -480 -534 -689
-52 -48 -102 -98 -111 -113 -20 -31 -33 -81 -21 -81 13 0 122 68 177 110 65
50 115 98 256 247 l116 123 114 -100 c63 -56 114 -104 114 -109 0 -5 -114
-103 -253 -219 -230 -192 -251 -212 -228 -218 19 -4 44 4 93 31 148 81 219
132 448 319 27 22 5 35 186 -115 114 -95 318 -246 384 -284 28 -17 75 -30 141
-40 182 -27 254 -16 254 40 0 30 -11 36 -130 70 -185 53 -337 120 -446 198
-108 78 -238 182 -268 215 -18 21 -18 22 0 45 146 186 259 350 269 390 7 25
-10 77 -28 89 -7 4 -30 8 -52 8 -48 0 -397 -102 -403 -118 -2 -6 10 -17 25
-26 23 -11 54 -13 153 -9 l124 6 -23 -39 c-49 -82 -166 -254 -174 -254 -5 0
-23 10 -39 22 -17 12 -75 47 -129 78 l-99 57 52 64 c96 119 188 285 188 337 0
42 -35 82 -71 82 -22 0 -34 -8 -49 -32z"/>
</g>
</svg>
