<?xml version="1.0" standalone="no"?>
<!DOCTYPE svg PUBLIC "-//W3C//DTD SVG 20010904//EN"
 "http://www.w3.org/TR/2001/REC-SVG-20010904/DTD/svg10.dtd">
<svg version="1.0" xmlns="http://www.w3.org/2000/svg"
 width="340.000000pt" height="340.000000pt" viewBox="0 0 340.000000 340.000000"
 preserveAspectRatio="xMidYMid meet">
<metadata>
Created by potrace 1.15, written by Peter Selinger 2001-2017
</metadata>
<g transform="translate(0.000000,340.000000) scale(0.100000,-0.100000)"
fill="#000000" stroke="none">
<path d="M1032 2444 c-28 -19 -28 -55 -1 -80 43 -39 49 -66 49 -222 0 -82 -3
-183 -6 -225 l-7 -75 -116 -55 c-64 -30 -167 -74 -228 -98 -112 -44 -133 -60
-113 -84 35 -42 129 -18 438 112 20 8 14 -12 -25 -100 -42 -93 -119 -226 -275
-476 -60 -95 -108 -181 -106 -190 6 -30 38 -24 73 14 46 48 185 235 274 368
39 59 74 107 78 107 9 0 -5 -592 -17 -705 -6 -55 -17 -114 -25 -132 -22 -47
-19 -125 6 -157 16 -20 29 -26 58 -26 37 0 40 3 62 53 24 52 24 54 29 522 4
386 7 466 18 448 22 -39 93 -73 152 -73 l53 0 -6 46 c-7 65 -43 99 -127 119
-90 23 -104 41 -95 125 12 125 13 127 53 135 61 11 135 52 182 100 l44 45 -22
22 c-34 34 -87 29 -151 -16 -29 -20 -59 -36 -66 -36 -16 0 -38 27 -31 38 3 5
10 58 17 119 11 114 0 304 -22 345 -23 43 -106 61 -147 32z"/>
<path d="M1870 2244 c-69 -19 -193 -57 -275 -84 -83 -28 -163 -50 -178 -50
-64 0 -95 -52 -39 -67 53 -15 166 -6 252 19 47 14 108 28 136 32 l51 6 7 -37
c3 -21 9 -86 12 -144 l7 -106 -62 -6 c-35 -4 -89 -17 -121 -30 l-57 -24 -6 63
c-7 74 -24 117 -62 162 l-28 34 -13 -24 c-10 -17 -11 -64 -7 -193 3 -93 0
-330 -7 -525 -11 -306 -15 -356 -29 -367 -9 -7 -49 -25 -89 -40 -67 -26 -73
-31 -84 -67 -11 -36 -10 -40 11 -57 48 -39 83 -28 277 92 98 61 193 123 209
138 74 67 69 83 63 -174 -6 -237 -2 -269 33 -280 25 -8 66 21 75 53 4 15 9
302 11 637 3 336 5 662 6 725 1 63 0 132 -3 154 -5 39 -5 39 41 52 25 8 54 23
64 34 19 20 24 77 10 99 -11 19 -76 11 -205 -25z m-30 -663 l0 -159 -44 5
c-55 7 -135 -19 -167 -53 -21 -23 -24 -23 -30 -7 -9 23 -11 195 -3 256 l6 45
59 11 c32 7 82 25 111 40 29 15 56 26 61 24 4 -2 7 -75 7 -162z m1 -390 l-6
-114 -55 -13 c-30 -8 -90 -31 -133 -53 l-78 -39 7 131 c7 155 12 163 97 177
32 5 81 20 110 33 65 30 66 29 58 -122z"/>
<path d="M2590 2126 c-87 -31 -184 -76 -260 -120 l-62 -36 -25 20 c-14 11 -41
22 -59 26 -68 13 -98 -56 -50 -113 20 -25 25 -48 40 -193 13 -135 16 -283 16
-812 0 -396 4 -657 10 -672 5 -14 16 -26 23 -26 30 0 46 37 62 145 15 96 17
200 15 830 -1 701 -1 721 18 738 18 16 301 92 310 83 2 -2 -12 -28 -32 -58
-65 -102 -206 -401 -206 -438 0 -5 32 -51 71 -102 80 -104 136 -209 168 -312
11 -37 21 -71 21 -76 0 -4 -48 17 -107 47 -58 29 -119 53 -134 53 -88 0 8
-133 156 -215 119 -66 180 -69 216 -12 23 37 20 91 -12 210 -22 80 -106 261
-136 292 -11 11 -52 43 -91 70 -39 28 -69 55 -67 62 2 7 40 63 84 125 128 181
230 347 237 384 9 49 -12 93 -52 110 -45 19 -77 17 -154 -10z"/>
</g>
</svg>
