<?xml version="1.0" standalone="no"?>
<!DOCTYPE svg PUBLIC "-//W3C//DTD SVG 20010904//EN"
 "http://www.w3.org/TR/2001/REC-SVG-20010904/DTD/svg10.dtd">
<svg version="1.0" xmlns="http://www.w3.org/2000/svg"
 width="340.000000pt" height="340.000000pt" viewBox="0 0 340.000000 340.000000"
 preserveAspectRatio="xMidYMid meet">
<metadata>
Created by potrace 1.15, written by Peter Selinger 2001-2017
</metadata>
<g transform="translate(0.000000,340.000000) scale(0.100000,-0.100000)"
fill="#000000" stroke="none">
<path d="M1610 2550 c-23 -23 -25 -45 -5 -80 11 -18 14 -60 14 -160 -1 -74 -4
-146 -8 -160 -6 -22 -20 -29 -116 -56 -61 -17 -126 -36 -145 -41 l-34 -9 23
-23 c25 -25 26 -25 215 -5 l58 7 -6 -44 c-4 -24 -12 -68 -18 -96 -12 -59 8
-47 -205 -124 -63 -22 -89 -37 -86 -46 8 -21 53 -27 97 -14 113 35 156 45 161
39 11 -11 -36 -202 -53 -215 -9 -7 -67 -30 -129 -50 -62 -21 -113 -41 -113
-45 0 -4 9 -17 20 -28 24 -24 67 -26 117 -5 81 34 88 12 29 -105 -62 -121
-142 -250 -232 -371 -76 -102 -88 -129 -55 -129 24 0 173 147 241 239 29 39
55 70 56 68 2 -2 13 -57 25 -123 16 -91 22 -171 25 -339 4 -267 5 -268 105
-273 79 -4 170 11 272 44 67 22 77 29 77 49 0 33 -26 55 -63 55 -53 -1 -179
-26 -234 -48 l-53 -20 0 56 c0 32 3 94 6 139 l7 81 60 7 c98 12 227 63 227 91
0 6 -9 19 -21 30 -30 27 -101 23 -164 -9 -27 -14 -61 -28 -75 -32 l-25 -6 -1
88 c-1 64 -7 104 -24 148 -28 76 -41 89 -85 88 -39 -1 -46 17 -21 52 7 11 37
76 67 144 34 79 62 129 77 139 28 18 146 52 183 52 22 0 66 -39 225 -201 213
-215 454 -440 505 -471 69 -42 180 -71 281 -72 88 -1 99 1 119 21 22 22 22 23
4 42 -10 12 -56 32 -104 47 -47 14 -115 41 -151 59 -126 63 -420 285 -659 498
l-114 101 29 12 c15 6 65 15 109 18 111 9 285 62 285 87 0 15 -41 47 -67 52
-32 6 -362 -60 -506 -102 -59 -17 -110 -31 -112 -31 -10 0 -3 78 13 140 l17
65 78 22 c42 12 135 34 205 48 71 14 138 33 152 44 31 22 40 78 14 88 -23 9
-223 -32 -324 -67 -110 -38 -117 -33 -96 70 9 40 17 74 19 76 2 2 69 22 148
44 79 22 182 52 229 68 77 26 85 31 88 56 4 34 -13 56 -44 56 -12 0 -107 -23
-209 -51 -103 -28 -189 -48 -193 -45 -3 4 -1 63 5 131 13 139 7 177 -33 225
-31 36 -74 40 -104 10z"/>
<path d="M883 2345 c-41 -18 -42 -42 -5 -86 26 -32 27 -37 26 -149 0 -63 -4
-172 -8 -241 l-8 -127 -190 -91 c-117 -57 -200 -90 -217 -89 -35 3 -50 -8 -44
-31 4 -16 17 -21 68 -26 81 -9 161 8 250 53 86 43 125 55 125 39 0 -7 -32 -71
-71 -142 -81 -149 -226 -371 -323 -494 -60 -77 -98 -152 -84 -167 13 -12 76
32 144 100 46 47 112 135 192 256 67 102 129 194 137 205 14 18 15 -24 9 -420
l-6 -440 -24 -25 c-31 -34 -39 -79 -24 -137 19 -78 53 -99 114 -72 20 10 26
21 31 63 10 89 10 234 1 461 -5 121 -5 295 -1 387 l7 168 47 -41 c50 -45 115
-81 173 -97 36 -10 37 -9 43 19 9 40 -11 94 -46 123 -16 14 -72 45 -125 70
l-97 46 6 93 c3 50 8 99 12 108 3 8 28 21 55 28 27 7 68 26 90 42 41 30 80 92
66 106 -4 5 -36 8 -70 8 -45 0 -71 -6 -99 -22 -42 -25 -41 -27 -27 69 5 37 14
140 20 229 12 183 8 198 -55 225 -42 17 -51 17 -92 -1z"/>
<path d="M1840 1249 c-24 -5 -69 -20 -100 -35 -30 -14 -79 -37 -108 -51 -28
-13 -57 -34 -63 -45 -12 -22 -8 -22 166 3 39 6 102 9 140 7 l70 -3 24 -70 c29
-86 46 -340 36 -541 l-7 -131 -31 -14 c-51 -22 -49 -72 4 -127 43 -44 85 -44
128 0 l32 33 -3 375 c-3 359 -4 378 -25 433 -30 80 -79 154 -106 160 -51 12
-115 15 -157 6z"/>
</g>
</svg>
