<?xml version="1.0" standalone="no"?>
<!DOCTYPE svg PUBLIC "-//W3C//DTD SVG 20010904//EN"
 "http://www.w3.org/TR/2001/REC-SVG-20010904/DTD/svg10.dtd">
<svg version="1.0" xmlns="http://www.w3.org/2000/svg"
 width="340.000000pt" height="340.000000pt" viewBox="0 0 340.000000 340.000000"
 preserveAspectRatio="xMidYMid meet">
<metadata>
Created by potrace 1.15, written by Peter Selinger 2001-2017
</metadata>
<g transform="translate(0.000000,340.000000) scale(0.100000,-0.100000)"
fill="#000000" stroke="none">
<path d="M1628 2398 c-37 -13 -37 -46 1 -99 34 -47 51 -114 51 -204 l0 -64
-52 -15 c-29 -8 -81 -23 -115 -32 -35 -10 -63 -20 -63 -24 0 -3 6 -15 14 -26
16 -21 58 -23 164 -7 l62 10 0 -92 0 -91 -47 -13 c-81 -21 -133 -48 -127 -64
13 -35 79 -40 145 -13 27 12 42 -19 37 -74 -7 -65 -25 -84 -125 -131 -46 -21
-83 -44 -83 -51 0 -40 61 -50 130 -22 59 24 69 12 68 -89 -1 -92 23 -170 50
-165 31 6 52 68 52 158 0 121 3 127 58 135 70 9 133 32 188 66 l48 31 -27 24
c-42 36 -86 40 -167 13 -85 -28 -100 -20 -102 54 -1 59 10 72 80 92 68 20 143
59 173 91 l21 23 -33 20 c-42 26 -74 26 -122 2 -87 -44 -117 -35 -117 35 0 56
29 88 95 104 28 6 92 27 143 46 81 31 97 34 130 25 20 -6 61 -11 90 -11 63 0
63 1 23 -136 -44 -153 -95 -266 -190 -429 -41 -70 -49 -99 -31 -110 28 -17 77
35 189 202 106 158 159 274 201 441 10 41 12 42 51 42 46 0 98 -19 118 -44 30
-36 -58 -382 -144 -572 l-35 -76 -28 30 c-32 35 -69 47 -108 38 -25 -7 -26
-10 -20 -48 15 -91 55 -138 142 -164 l45 -13 39 40 c49 51 86 124 104 209 8
36 28 99 44 140 52 132 102 345 102 436 0 45 -37 86 -112 123 -73 37 -123 39
-223 12 -38 -11 -119 -31 -179 -44 -98 -22 -112 -23 -154 -11 -62 19 -119 17
-193 -6 -42 -13 -67 -16 -74 -9 -5 5 -10 51 -10 102 0 107 -15 144 -73 181
-48 31 -71 36 -104 24z"/>
<path d="M1058 2381 c-46 -22 -49 -58 -9 -104 l31 -35 0 -265 0 -265 -132 -54
c-73 -30 -188 -75 -255 -99 -68 -24 -123 -49 -123 -55 0 -6 9 -19 21 -30 35
-32 97 -22 277 45 89 34 167 61 172 61 4 0 -3 -28 -18 -62 -63 -149 -235 -420
-401 -634 -56 -71 -100 -136 -98 -144 1 -8 12 -16 23 -18 43 -6 312 301 463
528 l76 115 3 -40 c7 -79 -6 -562 -18 -669 -8 -80 -17 -116 -31 -134 -30 -39
-41 -97 -33 -181 8 -88 25 -128 58 -137 46 -11 70 -1 91 41 19 38 20 63 23
563 l3 523 53 -48 c55 -51 107 -73 170 -73 35 0 36 1 36 40 0 32 -7 48 -35 79
-36 40 -59 52 -134 71 -24 6 -54 22 -67 35 -21 21 -24 33 -24 102 0 43 4 83 8
89 4 6 30 14 57 18 62 9 161 55 198 94 l27 28 -24 23 c-40 37 -91 38 -159 1
-33 -17 -69 -30 -80 -28 -26 4 -26 -11 -8 304 11 206 11 235 -3 261 -29 57
-88 80 -138 54z"/>
<path d="M1919 1258 c-7 -24 -15 -91 -18 -150 -4 -78 -10 -112 -22 -123 -8 -8
-44 -20 -78 -26 -35 -5 -166 -32 -292 -59 -126 -28 -231 -50 -234 -50 -10 0
-5 -36 7 -48 28 -28 261 -11 456 35 82 19 116 23 124 15 16 -16 -32 -141 -88
-232 -60 -98 -124 -170 -221 -251 -82 -69 -104 -102 -84 -122 25 -25 150 47
257 147 114 105 209 260 269 436 25 75 14 70 210 95 77 10 202 15 351 15 219
0 233 1 258 21 32 25 33 51 4 79 -19 17 -35 20 -123 20 -147 0 -543 -34 -642
-55 -21 -5 -21 -3 -16 73 4 50 1 92 -7 116 -14 43 -65 106 -86 106 -7 0 -19
-19 -25 -42z"/>
<path d="M2100 765 c0 -24 35 -64 89 -102 89 -63 235 -212 296 -302 28 -41 69
-94 92 -118 38 -41 45 -44 85 -41 43 3 43 3 52 51 11 56 4 73 -68 156 -99 113
-238 211 -455 321 -80 40 -91 44 -91 35z"/>
</g>
</svg>
