<?xml version="1.0" standalone="no"?>
<!DOCTYPE svg PUBLIC "-//W3C//DTD SVG 20010904//EN"
 "http://www.w3.org/TR/2001/REC-SVG-20010904/DTD/svg10.dtd">
<svg version="1.0" xmlns="http://www.w3.org/2000/svg"
 width="340.000000pt" height="340.000000pt" viewBox="0 0 340.000000 340.000000"
 preserveAspectRatio="xMidYMid meet">
<metadata>
Created by potrace 1.15, written by Peter Selinger 2001-2017
</metadata>
<g transform="translate(0.000000,340.000000) scale(0.100000,-0.100000)"
fill="#000000" stroke="none">
<path d="M1170 2477 c-34 -17 -36 -49 -5 -83 14 -15 28 -37 31 -49 3 -12 2
-122 -3 -244 l-8 -223 -75 -28 c-112 -41 -444 -172 -450 -177 -11 -10 45 -43
74 -43 17 0 107 25 199 56 93 31 170 54 172 52 16 -16 -84 -242 -190 -434 -59
-106 -193 -312 -290 -448 -38 -53 -44 -83 -18 -93 12 -5 34 12 81 63 170 181
312 387 420 604 l67 135 3 -365 c1 -201 -2 -443 -7 -538 l-9 -173 -31 -35
c-36 -40 -38 -65 -14 -141 18 -57 52 -103 76 -103 8 0 29 10 48 23 l34 23 7
112 6 113 65 68 c90 95 117 139 208 324 114 235 197 498 239 753 l11 71 62 -1
c39 -1 114 11 202 32 77 18 228 48 336 66 226 39 315 74 280 109 -19 19 -12
45 64 230 41 99 75 188 75 197 0 23 -78 96 -122 115 -21 8 -63 15 -95 15 -97
0 -496 -91 -695 -159 l-86 -29 -29 30 c-36 38 -74 58 -113 58 -16 0 -30 -2
-30 -4 0 -3 9 -42 20 -88 35 -149 42 -244 30 -415 -13 -188 -47 -398 -95 -583
-31 -122 -47 -161 -171 -407 -75 -150 -142 -280 -150 -290 -11 -15 -13 52 -14
430 0 246 3 447 6 447 3 0 31 -23 62 -51 70 -63 106 -79 178 -79 l57 0 -7 31
c-13 68 -74 131 -146 154 -14 4 -54 21 -89 38 l-64 30 6 91 c10 142 13 147 80
163 66 14 121 41 166 78 36 31 38 45 13 68 -26 24 -71 21 -134 -8 -29 -14 -64
-25 -78 -25 l-25 0 16 238 c9 134 12 244 8 254 -26 51 -103 73 -159 45z m1503
-163 c11 -4 -2 -46 -62 -199 -73 -187 -77 -195 -106 -199 -180 -27 -243 -37
-261 -42 -21 -5 -21 -3 -16 97 3 56 -1 147 -8 201 -7 59 -9 103 -3 109 4 4 53
13 108 19 55 6 123 15 150 20 49 8 170 5 198 -6z m-550 -99 c-1 -22 -5 -113
-9 -203 -7 -161 -7 -164 -31 -173 -33 -12 -218 -59 -235 -59 -11 0 -12 21 -6
108 5 59 7 156 6 217 l-3 109 40 8 c22 4 67 14 100 22 33 8 78 14 100 13 l40
-2 -2 -40z"/>
<path d="M2405 1615 c-190 -35 -449 -117 -488 -154 -17 -16 -18 -51 -17 -528
0 -339 4 -521 11 -542 14 -39 35 -40 83 -2 35 28 105 49 124 37 13 -8 339 42
443 69 l26 6 6 -83 c7 -98 21 -143 54 -180 24 -25 105 -54 123 -43 10 6 36 85
45 136 4 20 2 120 -5 222 -6 103 -11 316 -11 474 0 439 -16 531 -101 574 -55
29 -180 34 -293 14z m187 -125 c21 -6 40 -14 42 -19 13 -21 37 -397 43 -670 6
-294 6 -303 -13 -299 -10 2 -25 16 -32 31 -7 15 -22 32 -34 38 -42 22 -378
-14 -513 -55 -80 -25 -76 -31 -73 107 l3 122 110 7 c110 6 253 36 307 64 51
27 28 94 -33 94 -32 0 -248 -44 -323 -66 -27 -8 -53 -14 -58 -14 -5 0 -7 64
-6 143 l3 142 86 7 c93 7 172 24 259 57 83 32 85 33 66 68 -28 56 -66 56 -234
3 -69 -22 -140 -41 -156 -43 -31 -2 -31 -2 -43 73 -6 41 -12 91 -12 111 l-1
36 123 22 c255 46 420 60 489 41z"/>
</g>
</svg>
