<?xml version="1.0" standalone="no"?>
<!DOCTYPE svg PUBLIC "-//W3C//DTD SVG 20010904//EN"
 "http://www.w3.org/TR/2001/REC-SVG-20010904/DTD/svg10.dtd">
<svg version="1.0" xmlns="http://www.w3.org/2000/svg"
 width="340.000000pt" height="340.000000pt" viewBox="0 0 340.000000 340.000000"
 preserveAspectRatio="xMidYMid meet">
<metadata>
Created by potrace 1.15, written by Peter Selinger 2001-2017
</metadata>
<g transform="translate(0.000000,340.000000) scale(0.100000,-0.100000)"
fill="#000000" stroke="none">
<path d="M908 2414 c-35 -19 -35 -38 2 -93 l30 -44 -1 -241 c0 -133 -4 -249
-7 -259 -4 -10 -66 -44 -147 -81 -206 -93 -334 -159 -334 -173 -3 -51 195 -12
347 68 63 34 112 49 112 35 0 -12 -88 -193 -137 -280 -80 -144 -169 -278 -277
-421 -83 -110 -119 -176 -103 -191 9 -10 70 28 119 74 58 54 205 250 314 418
42 65 81 124 87 129 12 12 0 -785 -13 -922 -7 -62 -16 -103 -31 -127 -13 -23
-19 -45 -15 -60 7 -30 54 -76 76 -76 25 0 70 38 82 69 6 16 9 221 8 550 l-1
523 47 -41 c45 -40 120 -71 171 -71 20 0 23 5 23 36 0 74 -49 118 -147 134
-85 14 -93 28 -92 159 1 146 4 152 64 166 69 16 143 56 185 100 l35 36 -34 31
c-40 36 -70 34 -139 -12 -48 -31 -87 -39 -94 -17 -3 6 1 53 8 102 7 50 17 163
20 252 8 183 3 202 -61 229 -43 18 -63 17 -97 -2z"/>
<path d="M1745 2280 c-49 -17 -140 -56 -201 -86 -98 -49 -114 -55 -134 -44
-35 19 -80 30 -96 23 -19 -7 -18 -29 6 -98 56 -162 87 -647 61 -933 -11 -116
-61 -496 -77 -577 -5 -29 -2 -38 21 -60 35 -32 65 -32 103 0 24 20 243 359
337 523 18 30 35 42 35 23 0 -20 54 -61 81 -61 48 0 59 9 59 49 0 60 -47 139
-115 194 -65 53 -152 107 -172 107 -29 0 4 -95 52 -152 14 -16 25 -35 25 -41
0 -7 -39 -64 -88 -128 -48 -63 -107 -146 -132 -184 l-45 -69 -3 54 c-4 62 16
467 25 511 4 23 11 29 32 29 73 0 237 63 297 113 23 19 34 41 43 84 8 32 33
112 58 177 72 196 125 429 109 489 -10 39 -73 77 -137 83 -42 3 -74 -3 -144
-26z m150 -120 c9 -14 -29 -194 -82 -389 -25 -91 -47 -176 -50 -188 -4 -15
-21 -27 -62 -42 -31 -11 -86 -38 -123 -61 -37 -22 -69 -40 -72 -40 -4 0 -6 65
-6 144 l0 144 48 7 c57 8 105 27 154 61 49 35 54 51 18 69 -43 22 -76 19 -152
-17 -37 -17 -70 -29 -72 -27 -2 2 -6 59 -10 126 l-6 123 28 14 c45 23 166 56
259 70 112 18 121 18 128 6z"/>
<path d="M2545 2109 c-97 -37 -288 -93 -381 -112 -72 -14 -82 -23 -62 -50 10
-12 37 -18 103 -24 l89 -8 14 -45 c18 -60 10 -200 -17 -316 l-22 -91 -96 -26
c-54 -15 -99 -24 -102 -22 -2 3 3 13 12 23 9 10 29 44 44 77 24 52 28 72 28
153 0 105 -10 122 -72 122 -37 0 -39 -4 -46 -107 -6 -71 -42 -158 -87 -209
-49 -57 -63 -91 -58 -150 6 -73 21 -88 80 -81 26 3 88 20 139 37 50 17 93 29
95 27 10 -9 -34 -133 -77 -219 -101 -202 -230 -402 -373 -578 -55 -67 -76
-101 -76 -122 0 -15 4 -28 9 -28 17 0 127 87 167 133 149 169 351 509 463 777
l40 95 93 27 c51 14 132 43 181 63 96 41 106 57 62 100 -29 30 -49 31 -100 5
-36 -19 -174 -55 -181 -47 -2 1 5 30 16 63 29 95 34 187 15 278 -9 43 -15 79
-13 80 2 1 27 8 56 14 68 15 146 54 197 97 39 33 40 34 25 62 -22 39 -65 39
-165 2z"/>
<path d="M2383 1243 c-12 -19 -19 -49 -20 -98 -1 -38 -11 -119 -22 -180 -22
-119 -46 -291 -57 -421 -12 -153 44 -258 164 -306 51 -19 76 -22 222 -22 208
-1 233 4 265 52 37 56 48 123 35 207 -21 130 -41 161 -88 136 -21 -11 -41 -90
-45 -180 l-2 -54 -55 -19 c-43 -15 -75 -19 -147 -16 -83 4 -97 7 -135 34 -57
39 -105 113 -114 172 -7 50 -5 65 49 322 19 91 41 207 48 259 l13 93 -27 24
c-37 31 -62 30 -84 -3z"/>
</g>
</svg>
