<?xml version="1.0" standalone="no"?>
<!DOCTYPE svg PUBLIC "-//W3C//DTD SVG 20010904//EN"
 "http://www.w3.org/TR/2001/REC-SVG-20010904/DTD/svg10.dtd">
<svg version="1.0" xmlns="http://www.w3.org/2000/svg"
 width="340.000000pt" height="340.000000pt" viewBox="0 0 340.000000 340.000000"
 preserveAspectRatio="xMidYMid meet">
<metadata>
Created by potrace 1.15, written by Peter Selinger 2001-2017
</metadata>
<g transform="translate(0.000000,340.000000) scale(0.100000,-0.100000)"
fill="#000000" stroke="none">
<path d="M976 2349 c-35 -28 -33 -43 14 -89 l40 -40 -2 -237 -3 -237 -265 -98
c-146 -54 -275 -98 -288 -98 -27 0 -39 -24 -22 -45 16 -19 102 -19 192 0 37 7
135 43 217 78 83 36 151 63 151 61 0 -2 -19 -46 -43 -97 -75 -160 -219 -373
-388 -575 -52 -62 -80 -104 -85 -128 -3 -19 -4 -37 -1 -40 10 -10 98 57 180
135 107 102 281 347 339 476 13 29 13 29 18 -30 8 -91 -7 -568 -24 -765 -8
-96 -22 -202 -31 -235 -18 -65 -12 -119 19 -160 14 -18 17 -19 42 -5 15 8 36
28 48 43 22 29 24 92 45 1020 l1 39 42 -36 c50 -43 96 -59 158 -54 44 3 45 4
43 37 -3 65 -72 123 -161 135 -75 10 -82 23 -82 140 0 141 1 142 72 162 33 10
86 34 119 56 53 34 58 40 49 58 -15 27 -56 36 -99 20 -20 -7 -57 -19 -83 -26
l-48 -12 0 36 c0 21 4 84 10 142 5 58 11 146 12 195 2 80 0 94 -21 129 -39 63
-116 84 -165 45z"/>
<path d="M1828 2323 c-20 -5 -32 -36 -23 -62 7 -23 -36 -67 -120 -123 -33 -23
-76 -56 -95 -74 l-35 -33 -48 16 c-40 13 -55 14 -88 4 -21 -6 -39 -18 -39 -25
0 -8 19 -33 41 -56 60 -61 79 -140 86 -340 4 -117 1 -178 -11 -249 -17 -94
-17 -94 5 -118 29 -30 86 -31 122 -3 14 11 49 51 78 88 42 53 178 217 219 265
4 5 19 -3 34 -16 36 -34 69 -40 111 -23 l35 15 -17 43 c-25 66 -56 109 -106
153 -101 88 -137 108 -174 94 -29 -11 -29 -12 6 -62 32 -47 74 -127 69 -132
-2 -2 -31 -24 -66 -49 -34 -25 -89 -73 -121 -105 l-58 -60 -6 177 c-4 97 -10
206 -13 242 l-6 65 99 58 c54 31 137 87 186 122 81 60 87 67 87 101 0 19 -4
44 -10 54 -16 31 -88 47 -142 33z"/>
<path d="M2584 2171 c-67 -16 -169 -43 -228 -60 -58 -17 -115 -31 -127 -31
-11 0 -36 -7 -57 -16 l-37 -15 24 -20 c22 -18 34 -19 134 -13 88 6 111 4 118
-7 18 -29 8 -76 -32 -144 -51 -86 -209 -405 -209 -422 0 -7 11 -13 24 -13 45
0 197 194 317 403 60 104 62 109 55 161 -5 50 -4 54 17 60 66 17 244 -5 262
-34 13 -21 -134 -366 -205 -478 l-21 -34 -39 36 c-53 47 -83 47 -108 -1 -32
-60 72 -193 151 -193 56 0 87 48 227 349 146 315 146 318 97 406 -53 93 -164
114 -363 66z"/>
<path d="M2405 1269 c-215 -39 -382 -75 -510 -110 -82 -22 -176 -46 -208 -53
-75 -16 -87 -29 -52 -52 24 -16 33 -16 84 -5 95 21 204 39 251 42 l45 4 17
-51 c14 -42 22 -127 19 -195 -1 -12 -34 -30 -106 -59 -58 -23 -107 -46 -110
-50 -13 -20 27 -32 87 -26 132 14 123 17 126 -34 2 -25 1 -86 -3 -136 l-7 -92
-126 -37 c-70 -21 -133 -40 -139 -43 -9 -3 -13 9 -13 41 0 138 -45 402 -90
531 -29 86 -74 126 -137 126 -55 0 -59 -14 -21 -67 30 -42 47 -93 121 -365 48
-174 87 -319 87 -322 0 -12 128 -5 183 9 32 8 73 15 91 15 102 0 359 64 363
90 7 36 -12 42 -117 41 -102 -2 -102 -2 -97 21 3 13 11 73 18 134 l12 111 57
11 c61 13 144 64 138 85 -8 25 -71 48 -116 42 -71 -10 -77 2 -77 142 l1 118
69 13 c88 17 265 9 355 -15 64 -18 65 -19 68 -54 5 -64 -38 -239 -122 -494
l-82 -250 -32 -3 c-21 -2 -38 -12 -48 -27 -13 -21 -13 -27 0 -59 18 -43 52
-61 100 -52 64 12 115 70 134 152 5 22 31 116 57 209 26 94 66 254 90 358 42
182 43 189 29 232 -19 53 -78 110 -131 124 -45 13 -187 13 -258 0z"/>
</g>
</svg>
