<?xml version="1.0" standalone="no"?>
<!DOCTYPE svg PUBLIC "-//W3C//DTD SVG 20010904//EN"
 "http://www.w3.org/TR/2001/REC-SVG-20010904/DTD/svg10.dtd">
<svg version="1.0" xmlns="http://www.w3.org/2000/svg"
 width="340.000000pt" height="340.000000pt" viewBox="0 0 340.000000 340.000000"
 preserveAspectRatio="xMidYMid meet">
<metadata>
Created by potrace 1.15, written by Peter Selinger 2001-2017
</metadata>
<g transform="translate(0.000000,340.000000) scale(0.100000,-0.100000)"
fill="#000000" stroke="none">
<path d="M2276 2588 c-9 -12 -16 -34 -16 -49 0 -19 -19 -45 -68 -95 -57 -58
-142 -190 -142 -219 0 -19 92 4 126 31 20 16 50 38 68 50 84 57 166 173 166
235 0 59 -101 94 -134 47z"/>
<path d="M943 2425 c-34 -24 -35 -52 -2 -89 l29 -34 0 -276 0 -275 -28 -15
c-43 -22 -227 -82 -330 -106 -91 -22 -117 -39 -94 -62 29 -29 236 -9 325 31
86 40 87 9 3 -159 -86 -174 -171 -314 -292 -480 -94 -129 -139 -218 -120 -237
3 -3 31 11 62 32 79 55 219 243 370 498 l82 138 7 -98 c9 -119 -2 -642 -16
-733 -22 -148 -22 -192 4 -235 20 -35 28 -40 56 -38 69 3 66 -21 63 526 l-4
492 39 -37 c39 -38 123 -81 180 -93 29 -6 32 -4 38 24 17 79 -17 118 -160 185
-87 41 -93 45 -99 80 -10 52 4 185 21 202 8 8 25 14 38 14 45 0 134 41 182 84
l47 43 -27 26 c-34 35 -70 34 -140 -3 -62 -33 -95 -38 -103 -15 -3 8 -1 76 5
152 6 76 12 200 13 277 l3 138 -33 29 c-36 33 -84 38 -119 14z"/>
<path d="M1500 2425 c0 -24 79 -123 128 -161 48 -37 148 -78 169 -70 29 12 9
92 -35 140 -63 67 -262 136 -262 91z"/>
<path d="M2470 2244 c-14 -3 -95 -14 -180 -25 -188 -25 -563 -98 -720 -140
-63 -17 -144 -35 -179 -39 -42 -6 -71 -15 -84 -28 l-20 -21 38 -7 c60 -11 255
2 309 21 69 24 80 11 81 -96 l0 -80 -60 -20 c-33 -11 -66 -27 -74 -34 -12 -12
-10 -16 15 -25 15 -6 49 -10 74 -8 l45 3 -1 -41 c0 -27 -9 -52 -26 -75 -44
-58 -59 -169 -23 -169 46 0 146 121 160 195 4 16 13 51 21 77 13 41 20 48 48
53 18 4 46 5 62 3 25 -3 29 -8 36 -45 10 -60 33 -99 78 -132 105 -76 247 -49
200 38 -6 12 -34 32 -64 46 -50 24 -67 43 -81 92 -5 19 -1 25 22 34 33 13 141
6 198 -13 l40 -13 3 -110 c3 -126 -12 -325 -28 -371 l-11 -31 -107 -7 c-193
-13 -413 -56 -545 -106 -35 -14 -53 -16 -58 -9 -3 6 -12 84 -18 173 -16 226
-20 252 -40 306 -38 100 -115 179 -159 163 -20 -8 -12 -66 26 -193 41 -138 68
-278 87 -442 17 -141 30 -172 62 -152 10 6 20 22 23 35 4 18 14 25 35 27 17 1
83 14 148 27 99 21 348 65 368 65 3 0 20 -20 38 -45 35 -49 43 -97 20 -120 -8
-8 -93 -27 -199 -45 -215 -36 -532 -99 -708 -141 -68 -16 -135 -29 -150 -29
-37 0 -56 -14 -48 -36 11 -29 241 -14 441 29 255 56 677 122 690 109 8 -8 6
-574 -2 -570 -5 2 -38 18 -74 36 -74 37 -179 55 -179 31 0 -47 106 -155 194
-199 92 -46 141 -37 176 35 19 39 20 61 20 363 l0 322 239 0 239 0 31 29 c37
35 38 42 7 78 l-24 28 -163 -2 c-90 -1 -201 -8 -247 -16 -45 -7 -84 -11 -87
-9 -12 13 -3 48 19 71 46 49 96 221 96 333 0 29 7 87 16 128 20 93 14 224 -13
295 -22 59 -52 77 -157 95 -65 12 -167 4 -218 -15 -11 -5 -17 13 -27 76 -7 45
-9 85 -4 90 16 15 266 32 416 27 180 -6 210 2 205 55 -5 52 -54 77 -147 76
-42 -1 -87 -3 -101 -5z m-485 -251 c0 -84 -12 -102 -71 -110 -30 -4 -43 -1
-55 14 -16 19 -62 133 -56 140 7 6 141 31 162 30 18 -2 20 -9 20 -74z"/>
<path d="M1901 1465 c-84 -25 -155 -45 -157 -45 -11 0 -2 -39 11 -50 18 -15
28 -15 187 -3 143 12 171 23 195 80 30 74 -31 78 -236 18z"/>
<path d="M1615 726 c-23 -17 -19 -26 38 -75 74 -63 141 -93 219 -99 78 -5 88
4 68 62 -16 50 -56 74 -157 95 -141 30 -149 31 -168 17z"/>
</g>
</svg>
