<?xml version="1.0" standalone="no"?>
<!DOCTYPE svg PUBLIC "-//W3C//DTD SVG 20010904//EN"
 "http://www.w3.org/TR/2001/REC-SVG-20010904/DTD/svg10.dtd">
<svg version="1.0" xmlns="http://www.w3.org/2000/svg"
 width="340.000000pt" height="340.000000pt" viewBox="0 0 340.000000 340.000000"
 preserveAspectRatio="xMidYMid meet">
<metadata>
Created by potrace 1.15, written by Peter Selinger 2001-2017
</metadata>
<g transform="translate(0.000000,340.000000) scale(0.100000,-0.100000)"
fill="#000000" stroke="none">
<path d="M1388 2322 c-23 -5 -32 -53 -17 -100 11 -39 10 -43 -54 -169 -105
-210 -236 -408 -375 -570 -37 -43 -75 -89 -85 -103 -22 -32 -22 -66 1 -75 34
-13 303 285 476 530 141 198 165 249 181 375 6 50 4 57 -18 78 -26 24 -79 41
-109 34z"/>
<path d="M2065 1934 c-151 -39 -338 -93 -455 -132 -80 -27 -178 -57 -217 -66
-40 -10 -73 -21 -73 -26 0 -16 38 -40 63 -40 15 0 98 18 185 40 165 41 523
112 531 105 13 -14 -38 -90 -80 -121 -27 -19 -60 -49 -74 -66 -31 -36 -79
-128 -71 -135 9 -9 95 16 146 42 26 13 77 48 113 77 37 29 84 65 105 79 46 32
82 99 82 155 0 38 -3 41 -47 63 -47 23 -161 37 -208 25z"/>
<path d="M1330 1481 c-10 -25 -9 -36 8 -75 33 -73 36 -138 13 -251 -42 -200
-112 -365 -210 -495 -74 -98 -207 -221 -322 -297 -77 -51 -108 -78 -122 -106
-11 -21 -17 -40 -15 -42 16 -16 205 72 288 134 70 53 207 187 260 255 98 128
197 331 230 474 7 28 15 52 18 52 4 0 20 -21 37 -48 40 -64 140 -187 244 -302
48 -52 120 -134 160 -183 115 -137 267 -259 421 -337 55 -28 78 -34 152 -38
48 -2 117 -1 153 3 78 8 83 21 27 75 -29 27 -59 42 -118 59 -155 45 -333 142
-483 264 -122 100 -186 163 -382 378 l-187 205 5 86 c5 76 3 90 -17 126 -28
49 -63 77 -111 86 -34 6 -37 4 -49 -23z"/>
</g>
</svg>
