<?xml version="1.0" standalone="no"?>
<!DOCTYPE svg PUBLIC "-//W3C//DTD SVG 20010904//EN"
 "http://www.w3.org/TR/2001/REC-SVG-20010904/DTD/svg10.dtd">
<svg version="1.0" xmlns="http://www.w3.org/2000/svg"
 width="340.000000pt" height="340.000000pt" viewBox="0 0 340.000000 340.000000"
 preserveAspectRatio="xMidYMid meet">
<metadata>
Created by potrace 1.15, written by Peter Selinger 2001-2017
</metadata>
<g transform="translate(0.000000,340.000000) scale(0.100000,-0.100000)"
fill="#000000" stroke="none">
<path d="M1910 2287 c-30 -16 -30 -45 2 -87 36 -49 29 -82 -59 -262 -97 -199
-164 -316 -290 -502 -90 -134 -103 -164 -75 -174 20 -6 210 205 259 290 10 16
27 30 38 33 74 13 244 48 315 65 47 10 118 22 158 26 l72 7 -39 -59 c-33 -50
-81 -150 -81 -171 0 -16 92 7 128 33 159 116 183 138 212 199 30 62 27 70 -43
105 -107 52 -147 51 -327 -11 -85 -29 -201 -72 -257 -95 -57 -24 -103 -40
-103 -36 0 9 93 161 145 238 48 73 81 152 102 249 15 68 15 75 -1 99 -33 52
-110 78 -156 53z"/>
<path d="M1253 2188 c-11 -13 -24 -33 -27 -45 -5 -15 -34 -36 -86 -62 -88 -45
-168 -95 -249 -154 -44 -33 -57 -38 -70 -28 -45 33 -85 43 -123 32 -21 -7 -38
-15 -38 -18 0 -3 18 -38 39 -77 51 -94 72 -218 71 -434 0 -164 -15 -294 -50
-434 -29 -114 -104 -357 -139 -448 -34 -89 -43 -131 -32 -149 19 -30 49 1 94
97 124 264 195 509 230 797 l12 100 80 23 c44 12 96 25 116 28 l37 6 7 -53
c12 -85 9 -727 -4 -901 -12 -164 -9 -203 16 -212 28 -11 51 13 62 64 29 136
41 298 43 620 3 290 0 347 -15 424 -10 48 -17 89 -15 91 2 1 30 10 62 20 91
26 256 114 256 136 0 5 -9 18 -20 29 -23 23 -69 26 -108 6 -15 -8 -72 -31
-127 -51 -55 -21 -158 -64 -228 -97 -96 -45 -131 -57 -141 -49 -10 8 -12 36
-9 108 3 59 -1 129 -9 176 l-14 77 60 33 c71 39 247 121 359 167 81 34 107 61
107 114 0 24 -49 76 -73 76 -7 0 -21 3 -32 6 -14 3 -28 -3 -42 -18z"/>
<path d="M1810 1482 c-10 -20 -14 -84 -15 -232 -1 -188 -3 -213 -28 -303 -46
-173 -133 -331 -258 -474 -28 -32 -57 -69 -64 -83 -14 -29 -27 -90 -19 -90 25
0 134 73 174 117 108 118 225 329 275 496 16 53 32 97 35 97 3 0 39 -60 80
-133 95 -168 197 -305 313 -421 182 -181 221 -201 420 -213 105 -7 117 -2 117
42 0 33 -14 44 -83 70 -86 31 -215 96 -286 145 -86 58 -254 231 -350 362 -202
275 -191 252 -184 382 7 117 -3 160 -49 212 -47 53 -63 58 -78 26z"/>
</g>
</svg>
