<?xml version="1.0" standalone="no"?>
<!DOCTYPE svg PUBLIC "-//W3C//DTD SVG 20010904//EN"
 "http://www.w3.org/TR/2001/REC-SVG-20010904/DTD/svg10.dtd">
<svg version="1.0" xmlns="http://www.w3.org/2000/svg"
 width="340.000000pt" height="340.000000pt" viewBox="0 0 340.000000 340.000000"
 preserveAspectRatio="xMidYMid meet">
<metadata>
Created by potrace 1.15, written by Peter Selinger 2001-2017
</metadata>
<g transform="translate(0.000000,340.000000) scale(0.100000,-0.100000)"
fill="#000000" stroke="none">
<path d="M1859 2343 c-8 -21 -8 -39 1 -68 40 -138 39 -131 25 -199 -29 -138
-94 -308 -159 -416 -63 -104 -153 -276 -196 -378 -16 -37 -20 -56 -13 -63 20
-20 50 9 113 104 34 50 81 115 104 144 40 50 43 52 151 82 137 38 398 101 419
101 9 0 16 -6 16 -14 0 -16 -90 -156 -113 -175 -9 -7 -26 -29 -38 -48 -20 -32
-20 -36 -6 -51 15 -14 19 -15 49 0 57 27 190 132 261 206 73 76 82 104 52 161
-22 43 -62 55 -163 48 -118 -9 -182 -28 -347 -102 -142 -64 -201 -85 -194 -69
2 5 36 74 76 154 73 148 153 361 153 409 -1 65 -69 155 -143 186 l-37 15 -11
-27z"/>
<path d="M1055 2004 c-165 -40 -315 -73 -333 -73 -38 -1 -102 -26 -102 -39 0
-15 37 -22 140 -29 81 -5 120 -1 260 26 91 17 214 38 273 46 60 8 122 22 138
31 36 18 54 53 45 88 -6 24 -10 26 -64 25 -33 -1 -182 -32 -357 -75z"/>
<path d="M1132 1803 c-26 -10 -33 -41 -17 -79 8 -20 15 -48 15 -62 0 -25 -56
-189 -70 -205 -4 -5 -39 16 -78 45 -39 29 -94 66 -121 81 -50 28 -51 28 -51 7
0 -32 17 -58 79 -125 31 -34 69 -80 85 -103 l28 -41 -132 -262 c-98 -193 -129
-264 -121 -272 8 -8 17 -8 29 -1 29 17 147 182 228 317 42 70 77 127 79 127 1
0 29 -33 61 -72 68 -85 184 -208 196 -208 4 0 17 9 28 20 33 33 25 72 -29 142
-28 35 -82 104 -120 154 l-71 90 45 90 c50 99 75 184 75 255 0 41 -4 51 -35
78 -34 29 -69 38 -103 24z"/>
<path d="M470 1750 c0 -18 11 -56 24 -84 63 -136 99 -849 52 -1031 -9 -32 -16
-90 -16 -128 l0 -68 37 -16 c58 -24 123 -12 197 36 141 91 396 171 625 196 75
9 111 36 111 84 0 29 -1 30 -65 36 -82 9 -136 2 -260 -36 -148 -45 -383 -123
-442 -147 l-51 -21 -6 92 c-3 51 -10 292 -16 537 -10 432 -11 446 -33 490 -25
48 -61 75 -119 85 -38 7 -38 7 -38 -25z"/>
<path d="M1790 1361 c-6 -13 -8 -68 -4 -153 5 -87 3 -163 -5 -218 -37 -252
-167 -484 -364 -648 -59 -50 -86 -79 -90 -99 -8 -39 5 -47 50 -33 103 34 197
112 302 250 96 128 188 328 206 454 4 25 11 46 15 46 4 0 20 -19 35 -42 59
-90 223 -297 314 -398 226 -248 253 -267 412 -295 108 -19 170 -15 230 16 l43
21 -35 29 c-42 35 -117 72 -184 89 -75 19 -209 84 -281 136 -39 27 -157 145
-295 292 -179 193 -228 251 -224 267 14 51 16 134 5 173 -12 45 -82 132 -106
132 -7 0 -18 -9 -24 -19z"/>
</g>
</svg>
