<?xml version="1.0" standalone="no"?>
<!DOCTYPE svg PUBLIC "-//W3C//DTD SVG 20010904//EN"
 "http://www.w3.org/TR/2001/REC-SVG-20010904/DTD/svg10.dtd">
<svg version="1.0" xmlns="http://www.w3.org/2000/svg"
 width="340.000000pt" height="340.000000pt" viewBox="0 0 340.000000 340.000000"
 preserveAspectRatio="xMidYMid meet">
<metadata>
Created by potrace 1.15, written by Peter Selinger 2001-2017
</metadata>
<g transform="translate(0.000000,340.000000) scale(0.100000,-0.100000)"
fill="#000000" stroke="none">
<path d="M1234 2356 c-208 -53 -294 -84 -294 -107 0 -30 25 -34 124 -16 126
23 324 28 353 9 10 -6 5 -50 -18 -187 -16 -99 -37 -211 -47 -249 l-17 -70
-145 -32 c-80 -18 -155 -33 -166 -33 -34 -1 -46 23 -56 115 -13 105 -11 106
94 133 78 20 171 62 184 82 8 14 -11 27 -55 35 -29 6 -106 -15 -237 -63 -5 -2
-20 21 -32 50 -13 30 -36 72 -52 94 -34 46 -104 98 -119 88 -16 -9 -13 -56 4
-75 15 -17 54 -135 130 -396 25 -88 48 -164 50 -171 4 -12 -108 -172 -262
-376 -41 -54 -73 -105 -71 -115 6 -30 47 -26 90 9 38 30 42 31 54 15 34 -47
26 -279 -16 -439 -29 -110 -12 -160 57 -173 57 -11 257 68 416 163 l58 35 -22
24 c-12 13 -33 24 -47 24 -28 0 -211 -52 -283 -80 l-47 -19 5 147 c7 173 -6
270 -46 346 l-28 52 74 79 74 79 138 8 c76 4 158 12 182 17 24 6 68 11 98 11
47 0 57 -4 86 -33 48 -48 54 -83 45 -254 -14 -244 -46 -458 -97 -640 l-14 -52
-36 25 c-44 30 -58 30 -77 2 -21 -30 -20 -43 5 -96 36 -73 100 -99 172 -68 30
12 35 21 55 92 83 306 149 807 125 963 l-10 63 40 47 c22 25 64 78 94 117 l53
70 132 28 c73 16 177 41 231 56 111 32 195 45 226 35 19 -6 15 -12 -40 -63
-70 -65 -133 -143 -178 -224 -31 -54 -31 -57 -12 -63 11 -3 34 0 53 8 89 38
378 316 378 364 0 32 -25 78 -52 97 -34 24 -130 20 -233 -10 -50 -14 -170 -50
-268 -81 -98 -31 -180 -53 -183 -50 -3 2 14 36 37 73 52 84 107 202 149 314
47 126 33 204 -43 250 -38 23 -124 27 -152 7 -28 -21 -12 -62 34 -92 58 -36
60 -64 16 -182 -89 -238 -284 -653 -308 -653 -6 0 -20 9 -32 20 -24 23 -136
50 -205 50 -73 0 -180 -27 -256 -65 -105 -51 -111 -48 -67 31 15 27 32 69 39
93 6 25 17 48 25 52 8 3 62 16 122 27 85 16 113 18 137 9 26 -10 33 -9 49 8
44 46 141 403 157 580 6 70 6 71 -27 107 -34 35 -90 59 -139 57 -14 0 -84 -15
-156 -33z"/>
<path d="M1912 1533 c-14 -32 -16 -66 -14 -208 5 -309 -60 -532 -219 -746 -52
-70 -79 -132 -79 -181 l0 -30 48 35 c116 85 246 296 321 520 16 49 31 91 34
94 3 3 15 -15 28 -39 33 -66 125 -205 183 -278 29 -36 65 -87 81 -115 47 -82
140 -166 229 -211 75 -37 86 -39 184 -42 l104 -4 -23 42 c-31 54 -62 80 -157
130 -160 84 -318 224 -449 397 -46 62 -88 115 -94 118 -5 3 -21 27 -36 53 -27
46 -28 50 -28 207 0 159 0 160 -32 228 -37 77 -56 85 -81 30z"/>
<path d="M1132 1268 c-11 -29 -23 -69 -27 -88 -4 -19 -25 -69 -46 -111 -37
-76 -109 -268 -109 -295 0 -8 7 -14 16 -14 31 0 72 33 103 84 17 28 41 64 54
80 l24 29 43 -47 c48 -52 96 -81 152 -91 34 -7 36 -5 43 24 9 41 -10 96 -41
120 -14 11 -54 29 -89 41 -35 12 -66 27 -68 35 -3 7 3 37 15 67 28 73 22 172
-11 199 -13 11 -27 19 -31 19 -5 0 -17 -24 -28 -52z"/>
</g>
</svg>
