<?xml version="1.0" standalone="no"?>
<!DOCTYPE svg PUBLIC "-//W3C//DTD SVG 20010904//EN"
 "http://www.w3.org/TR/2001/REC-SVG-20010904/DTD/svg10.dtd">
<svg version="1.0" xmlns="http://www.w3.org/2000/svg"
 width="340.000000pt" height="340.000000pt" viewBox="0 0 340.000000 340.000000"
 preserveAspectRatio="xMidYMid meet">
<metadata>
Created by potrace 1.15, written by Peter Selinger 2001-2017
</metadata>
<g transform="translate(0.000000,340.000000) scale(0.100000,-0.100000)"
fill="#000000" stroke="none">
<path d="M1995 2144 c-366 -92 -1066 -243 -1123 -242 -30 1 -51 -13 -52 -34 0
-26 311 -29 440 -5 47 9 141 33 210 52 159 45 423 99 597 122 133 17 136 18
154 48 23 36 24 58 4 75 -29 24 -90 20 -230 -16z"/>
<path d="M1712 1858 c-19 -19 -14 -62 13 -102 l25 -37 -11 -582 -12 -582 22
-46 c34 -72 86 -125 155 -159 54 -27 79 -32 192 -41 204 -17 401 8 580 73 75
27 82 31 93 66 19 57 25 209 11 275 -8 41 -18 62 -35 73 -46 30 -68 -14 -85
-166 -6 -58 -17 -108 -23 -112 -24 -16 -144 -49 -229 -64 -48 -8 -149 -16
-225 -17 -122 -2 -143 0 -183 19 -63 29 -105 67 -129 117 -26 54 -47 303 -37
428 l8 86 93 48 c110 56 239 150 313 228 46 50 52 61 52 100 0 51 -25 79 -104
121 -44 23 -52 25 -70 12 -12 -7 -25 -28 -30 -45 -7 -26 -5 -35 12 -54 39 -42
29 -69 -50 -139 -86 -76 -201 -168 -205 -165 -1 2 2 54 7 117 5 63 12 195 16
292 6 157 5 180 -10 203 -35 53 -123 84 -154 53z"/>
<path d="M1146 1769 c-28 -22 -34 -57 -14 -88 9 -15 6 -29 -22 -77 -81 -146
-237 -355 -373 -503 -91 -98 -103 -117 -87 -136 7 -8 19 -15 27 -15 24 0 105
60 170 127 l61 63 32 -49 c17 -27 66 -83 109 -124 l78 -74 -74 -93 c-98 -125
-173 -210 -326 -367 -71 -73 -127 -138 -125 -145 9 -27 41 -17 111 36 196 147
346 301 517 531 158 211 370 554 370 597 0 36 -31 79 -67 95 -49 20 -119 9
-213 -32 -41 -19 -88 -37 -105 -41 l-30 -7 28 36 c42 56 57 100 57 171 0 59
-2 66 -31 90 -37 31 -58 33 -93 5z m169 -354 c58 -1 108 -5 111 -8 4 -3 -48
-94 -113 -201 l-120 -195 -39 40 c-43 45 -88 71 -150 88 -74 20 -73 24 53 174
110 129 117 136 134 121 14 -12 43 -17 124 -19z"/>
</g>
</svg>
