<?xml version="1.0" standalone="no"?>
<!DOCTYPE svg PUBLIC "-//W3C//DTD SVG 20010904//EN"
 "http://www.w3.org/TR/2001/REC-SVG-20010904/DTD/svg10.dtd">
<svg version="1.0" xmlns="http://www.w3.org/2000/svg"
 width="340.000000pt" height="340.000000pt" viewBox="0 0 340.000000 340.000000"
 preserveAspectRatio="xMidYMid meet">
<metadata>
Created by potrace 1.15, written by Peter Selinger 2001-2017
</metadata>
<g transform="translate(0.000000,340.000000) scale(0.100000,-0.100000)"
fill="#000000" stroke="none">
<path d="M1150 2638 c0 -24 8 -56 18 -73 l18 -29 -109 -131 c-145 -173 -318
-401 -310 -409 30 -29 143 64 425 351 126 128 148 159 148 212 0 57 -83 120
-157 121 -32 0 -33 -1 -33 -42z"/>
<path d="M1735 2444 c-444 -142 -545 -176 -545 -183 0 -16 39 -42 71 -47 39
-6 572 134 623 164 36 21 56 55 49 83 -8 29 -70 24 -198 -17z"/>
<path d="M1435 2060 c-187 -60 -350 -109 -362 -109 -28 -1 -38 -18 -22 -38 29
-34 308 9 599 93 88 25 230 103 230 125 0 20 -35 39 -68 38 -20 -1 -190 -50
-377 -109z"/>
<path d="M1960 1966 c-47 -13 -299 -89 -560 -169 -667 -204 -638 -196 -698
-194 -43 2 -56 -2 -68 -17 -8 -11 -14 -23 -14 -27 0 -15 88 -42 150 -46 70 -5
120 8 260 67 241 102 891 277 947 256 18 -7 15 -38 -13 -161 -13 -61 -18 -125
-18 -270 -1 -164 2 -204 22 -295 83 -372 292 -665 599 -840 79 -46 99 -47 147
-9 l28 22 -4 156 c-4 170 -12 201 -53 201 -39 0 -56 -38 -65 -145 -3 -52 -9
-97 -11 -99 -6 -6 -99 58 -175 122 -180 151 -307 364 -355 597 -24 115 -26
345 -4 471 17 96 66 253 90 287 39 56 -2 117 -79 117 -22 -1 -79 -11 -126 -24z"/>
<path d="M1470 1606 c-133 -40 -186 -60 -330 -125 -58 -27 -118 -52 -135 -57
-34 -11 -48 -44 -18 -44 38 0 315 61 390 85 76 25 193 38 209 23 4 -5 2 -27
-5 -50 -16 -55 -82 -220 -92 -232 -4 -5 -85 -34 -181 -66 -221 -73 -408 -147
-432 -170 -18 -18 -18 -18 4 -30 29 -15 118 -7 227 20 95 25 96 25 115 -98 13
-89 19 -514 6 -527 -3 -4 -23 -2 -43 4 -50 14 -75 0 -75 -41 0 -37 39 -92 80
-113 43 -22 100 -19 140 9 l34 23 -3 203 c-2 115 1 201 6 199 5 -2 125 -62
266 -133 272 -135 284 -139 327 -96 37 37 3 79 -113 144 -122 69 -252 107
-409 121 -43 4 -79 10 -79 14 -1 3 -3 53 -5 111 -2 90 -11 140 -40 230 -4 12
13 19 76 32 45 9 116 34 159 55 73 37 76 39 79 76 2 21 14 53 26 72 41 59 70
171 71 264 0 84 0 85 -30 102 -56 32 -101 31 -225 -5z"/>
<path d="M1193 1331 c-157 -68 -198 -93 -198 -116 0 -19 7 -20 90 -19 101 1
171 23 252 77 55 37 66 67 31 91 -34 24 -53 20 -175 -33z"/>
<path d="M1644 987 c-33 -34 -83 -81 -111 -105 -34 -28 -62 -63 -83 -104 -30
-62 -30 -62 -9 -70 31 -12 92 8 143 47 24 18 59 41 78 50 75 39 128 114 128
183 0 32 -5 41 -25 50 -43 20 -58 14 -121 -51z"/>
<path d="M724 805 c-14 -14 -24 -31 -22 -38 2 -7 34 -27 70 -46 56 -28 78 -33
140 -35 l73 -1 3 30 c6 75 -52 115 -166 115 -65 0 -76 -3 -98 -25z"/>
<path d="M960 574 c-41 -31 -103 -81 -137 -110 -45 -40 -69 -54 -91 -54 -35 0
-62 -22 -62 -50 0 -28 19 -64 40 -78 27 -17 113 17 187 73 60 44 153 158 172
208 32 84 -6 88 -109 11z"/>
</g>
</svg>
