<?xml version="1.0" standalone="no"?>
<!DOCTYPE svg PUBLIC "-//W3C//DTD SVG 20010904//EN"
 "http://www.w3.org/TR/2001/REC-SVG-20010904/DTD/svg10.dtd">
<svg version="1.0" xmlns="http://www.w3.org/2000/svg"
 width="340.000000pt" height="340.000000pt" viewBox="0 0 340.000000 340.000000"
 preserveAspectRatio="xMidYMid meet">
<metadata>
Created by potrace 1.15, written by Peter Selinger 2001-2017
</metadata>
<g transform="translate(0.000000,340.000000) scale(0.100000,-0.100000)"
fill="#000000" stroke="none">
<path d="M1526 2404 c-5 -17 0 -41 14 -70 l22 -44 -32 -52 c-84 -137 -244
-340 -382 -485 -43 -45 -78 -86 -78 -91 0 -6 -3 -17 -6 -26 -10 -25 22 -20 88
16 45 24 94 67 191 169 l130 138 28 -15 c48 -24 112 -16 329 45 116 33 253 69
305 80 109 23 137 36 183 84 l34 35 -33 11 c-67 23 -118 13 -360 -68 -129 -43
-283 -97 -343 -120 -59 -22 -112 -38 -117 -35 -5 3 17 35 50 72 70 78 124 165
147 234 14 43 14 54 3 75 -18 34 -88 73 -131 73 -30 0 -37 -4 -42 -26z"/>
<path d="M780 2184 c0 -20 46 -76 158 -193 l120 -125 26 18 c38 24 49 59 32
99 -19 46 -127 144 -188 172 -56 25 -148 43 -148 29z"/>
<path d="M1965 1784 c-231 -66 -550 -166 -559 -175 -6 -5 -2 -16 9 -29 27 -30
85 -26 258 20 84 22 222 55 307 75 85 19 168 40 183 47 34 13 51 42 43 74 -6
22 -11 24 -64 23 -32 -1 -109 -16 -177 -35z"/>
<path d="M560 1645 c0 -23 59 -111 109 -162 72 -73 146 -102 190 -74 33 21
-29 143 -93 182 -53 33 -206 73 -206 54z"/>
<path d="M2075 1454 c-254 -126 -607 -251 -737 -263 -93 -8 -115 -23 -78 -53
23 -18 35 -20 125 -15 94 4 118 10 385 100 157 52 300 98 318 102 30 6 33 5
29 -11 -3 -11 -13 -71 -23 -134 -20 -142 -15 -302 15 -413 74 -281 335 -561
556 -597 69 -11 79 -5 107 58 26 57 25 146 -2 226 -23 71 -47 99 -81 94 -30
-4 -37 -30 -38 -142 -1 -102 4 -101 -101 -31 -87 58 -208 185 -253 266 -65
117 -82 193 -82 364 0 143 2 154 32 240 18 50 37 123 44 163 11 66 10 74 -6
92 -29 32 -71 23 -210 -46z"/>
<path d="M1013 1230 c-58 -77 -132 -207 -178 -315 -71 -168 -114 -245 -135
-245 -53 0 -69 -135 -22 -182 19 -19 25 -20 60 -10 l39 12 127 291 c128 294
159 388 154 463 l-3 41 -42 -55z"/>
</g>
</svg>
