<?xml version="1.0" standalone="no"?>
<!DOCTYPE svg PUBLIC "-//W3C//DTD SVG 20010904//EN"
 "http://www.w3.org/TR/2001/REC-SVG-20010904/DTD/svg10.dtd">
<svg version="1.0" xmlns="http://www.w3.org/2000/svg"
 width="340.000000pt" height="340.000000pt" viewBox="0 0 340.000000 340.000000"
 preserveAspectRatio="xMidYMid meet">
<metadata>
Created by potrace 1.15, written by Peter Selinger 2001-2017
</metadata>
<g transform="translate(0.000000,340.000000) scale(0.100000,-0.100000)"
fill="#000000" stroke="none">
<path d="M790 2222 c0 -40 50 -120 140 -223 36 -42 78 -58 133 -51 26 3 28 7
22 30 -24 103 -114 205 -211 241 -67 26 -84 26 -84 3z"/>
<path d="M2015 2199 c-291 -82 -492 -133 -545 -138 -46 -5 -55 -9 -55 -26 0
-19 6 -20 125 -19 96 1 163 8 290 32 134 26 351 61 382 62 3 0 20 12 37 26 33
27 41 70 19 92 -21 21 -110 11 -253 -29z"/>
<path d="M2220 1725 c-234 -33 -413 -68 -660 -131 -118 -30 -268 -66 -333 -79
-65 -13 -121 -26 -124 -28 -2 -3 0 -14 6 -26 21 -39 112 -39 319 0 56 11 110
23 119 26 14 5 15 -6 11 -108 -6 -135 -28 -209 -118 -397 -68 -142 -147 -263
-240 -369 -100 -115 -120 -144 -120 -174 0 -36 5 -36 63 1 68 43 131 104 202
195 173 222 286 449 345 692 19 78 21 100 12 145 -5 29 -9 54 -7 56 7 7 111
31 163 38 l55 7 -7 -154 c-3 -85 -14 -257 -23 -384 -10 -126 -17 -291 -18
-365 0 -120 2 -140 22 -176 47 -87 113 -132 245 -165 179 -44 409 -35 583 24
60 20 73 28 87 58 38 77 39 248 2 337 -11 28 -18 33 -41 30 -37 -4 -52 -51
-60 -186 -4 -62 -11 -109 -19 -116 -22 -22 -174 -50 -274 -50 -119 0 -224 23
-320 72 l-74 37 -19 65 c-28 96 -34 273 -13 407 18 121 36 354 36 485 0 74 3
87 18 92 31 10 185 25 319 32 124 6 135 8 158 32 34 33 32 58 -7 82 -41 25
-78 24 -288 -5z"/>
<path d="M581 1549 c-12 -33 -5 -47 48 -102 75 -79 155 -116 212 -100 26 8 26
8 14 58 -22 85 -94 135 -231 161 -29 5 -35 3 -43 -17z"/>
<path d="M1017 1128 c-100 -136 -213 -330 -265 -456 -20 -50 -23 -53 -50 -47
-44 9 -71 -27 -84 -114 -17 -113 2 -151 77 -151 l43 0 60 123 c128 260 212
446 245 547 65 195 59 214 -26 98z"/>
</g>
</svg>
