<?xml version="1.0" standalone="no"?>
<!DOCTYPE svg PUBLIC "-//W3C//DTD SVG 20010904//EN"
 "http://www.w3.org/TR/2001/REC-SVG-20010904/DTD/svg10.dtd">
<svg version="1.0" xmlns="http://www.w3.org/2000/svg"
 width="340.000000pt" height="340.000000pt" viewBox="0 0 340.000000 340.000000"
 preserveAspectRatio="xMidYMid meet">
<metadata>
Created by potrace 1.15, written by Peter Selinger 2001-2017
</metadata>
<g transform="translate(0.000000,340.000000) scale(0.100000,-0.100000)"
fill="#000000" stroke="none">
<path d="M1754 2275 c-8 -31 17 -71 52 -87 51 -24 55 -50 34 -209 -17 -128
-46 -288 -53 -296 -3 -2 -279 -103 -284 -103 -2 0 -3 26 -3 58 0 71 -22 147
-55 187 l-24 29 -10 -28 c-6 -15 -11 -56 -11 -91 0 -83 -51 -241 -125 -389
-54 -106 -68 -167 -44 -181 6 -4 26 -4 44 -1 31 6 39 16 79 89 24 45 59 118
77 162 18 44 36 84 40 88 5 7 258 76 280 77 17 0 -54 -257 -108 -395 -85 -216
-246 -483 -398 -658 -42 -49 -83 -104 -91 -123 -14 -33 -19 -84 -8 -84 20 0
143 97 215 169 99 100 160 197 279 445 89 184 152 345 209 536 22 74 46 137
53 141 25 15 164 48 248 59 153 18 250 10 288 -25 11 -10 4 -18 -37 -45 -57
-36 -120 -103 -144 -152 -14 -29 -14 -34 -1 -41 44 -25 220 53 300 132 39 38
73 102 74 136 0 26 -93 89 -162 110 -108 32 -149 30 -352 -19 -105 -25 -191
-44 -193 -42 -8 8 21 157 44 226 50 148 30 256 -59 320 -33 24 -51 30 -94 30
-49 0 -54 -2 -60 -25z"/>
<path d="M967 1994 c-22 -23 -1 -57 103 -162 88 -90 116 -112 138 -112 113 0
28 189 -113 251 -47 20 -118 33 -128 23z"/>
<path d="M635 1411 c-4 -7 -5 -14 -4 -15 2 -2 36 -31 74 -66 39 -35 100 -78
140 -96 l69 -34 13 23 c35 63 6 124 -78 168 -52 26 -201 40 -214 20z"/>
<path d="M1930 1305 c-6 -18 -10 -72 -10 -121 1 -49 -6 -127 -15 -174 -21
-114 -30 -361 -17 -485 l11 -100 52 -48 c116 -107 236 -142 459 -132 151 7
237 23 301 56 48 24 59 57 66 210 6 134 -1 199 -26 230 -42 53 -76 -21 -100
-219 -5 -40 -15 -79 -21 -87 -7 -8 -37 -24 -68 -36 -145 -57 -487 -4 -521 79
-35 87 -46 161 -45 302 0 111 4 160 19 210 41 145 15 330 -49 342 -22 4 -27 0
-36 -27z"/>
<path d="M1089 897 c-68 -79 -129 -174 -178 -278 -41 -84 -55 -105 -81 -115
-41 -18 -74 -90 -67 -147 7 -48 36 -91 65 -95 34 -5 108 70 128 130 9 27 35
91 59 141 71 153 146 408 119 407 -5 -1 -25 -20 -45 -43z"/>
</g>
</svg>
