<?xml version="1.0" standalone="no"?>
<!DOCTYPE svg PUBLIC "-//W3C//DTD SVG 20010904//EN"
 "http://www.w3.org/TR/2001/REC-SVG-20010904/DTD/svg10.dtd">
<svg version="1.0" xmlns="http://www.w3.org/2000/svg"
 width="340.000000pt" height="340.000000pt" viewBox="0 0 340.000000 340.000000"
 preserveAspectRatio="xMidYMid meet">
<metadata>
Created by potrace 1.15, written by Peter Selinger 2001-2017
</metadata>
<g transform="translate(0.000000,340.000000) scale(0.100000,-0.100000)"
fill="#000000" stroke="none">
<path d="M771 2176 c-27 -33 236 -256 302 -256 22 0 40 60 28 92 -20 52 -88
96 -240 154 -74 28 -75 28 -90 10z"/>
<path d="M2025 2155 c-55 -13 -138 -37 -185 -55 -47 -17 -96 -34 -110 -36 -14
-3 -35 -7 -47 -10 -27 -5 -32 -41 -8 -51 18 -6 350 23 440 39 44 7 71 7 101
-1 l42 -11 7 -188 c8 -189 0 -972 -12 -1158 l-6 -101 -116 -7 c-129 -7 -413
-34 -449 -41 l-22 -5 5 202 c3 112 8 217 11 234 l6 31 116 6 c114 6 248 34
337 71 32 14 35 18 25 36 -6 11 -22 27 -35 36 -23 15 -35 14 -185 -15 -88 -18
-181 -38 -207 -46 -27 -8 -51 -15 -55 -15 -5 0 -8 94 -8 209 l0 208 93 6 c119
8 277 51 332 91 18 13 18 15 3 39 -9 13 -28 27 -41 29 -26 5 -262 -51 -323
-77 -20 -8 -40 -15 -44 -15 -11 0 -18 36 -31 170 -7 74 -18 128 -30 152 -24
47 -83 88 -126 88 -39 0 -41 -13 -18 -100 22 -80 62 -317 77 -450 16 -147 14
-603 -4 -774 l-13 -130 -215 -32 c-118 -18 -237 -33 -263 -34 -33 0 -49 -5
-53 -15 -10 -25 13 -42 73 -54 91 -18 188 -13 350 19 401 79 803 105 1200 78
98 -7 205 -13 238 -13 56 0 60 2 73 29 10 20 11 34 4 50 -20 45 -259 81 -431
65 -52 -5 -102 -11 -112 -14 -13 -4 -18 3 -22 37 -15 105 -19 675 -7 1041 l12
388 -26 39 c-55 84 -153 99 -341 55z"/>
<path d="M477 1543 c-17 -17 -2 -35 66 -77 39 -24 116 -66 169 -92 84 -40 100
-45 114 -33 68 57 -3 138 -165 189 -61 19 -171 27 -184 13z"/>
<path d="M1053 1171 c-62 -86 -125 -209 -178 -351 -26 -69 -70 -174 -98 -233
-50 -107 -51 -108 -68 -86 -23 31 -46 19 -60 -33 -16 -63 -7 -131 25 -177 31
-44 39 -44 95 -3 32 24 81 110 81 143 0 9 31 96 69 195 121 315 209 605 184
604 -4 0 -27 -27 -50 -59z"/>
</g>
</svg>
