<?xml version="1.0" standalone="no"?>
<!DOCTYPE svg PUBLIC "-//W3C//DTD SVG 20010904//EN"
 "http://www.w3.org/TR/2001/REC-SVG-20010904/DTD/svg10.dtd">
<svg version="1.0" xmlns="http://www.w3.org/2000/svg"
 width="340.000000pt" height="340.000000pt" viewBox="0 0 340.000000 340.000000"
 preserveAspectRatio="xMidYMid meet">
<metadata>
Created by potrace 1.15, written by Peter Selinger 2001-2017
</metadata>
<g transform="translate(0.000000,340.000000) scale(0.100000,-0.100000)"
fill="#000000" stroke="none">
<path d="M1855 2344 c-5 -1 -22 -5 -37 -8 -37 -8 -35 -25 8 -102 l36 -65 -8
-246 -9 -247 -75 -27 c-41 -15 -112 -35 -157 -45 -82 -18 -97 -30 -68 -54 11
-9 49 -10 156 -3 77 4 142 6 144 3 1 -3 -6 -86 -16 -185 -10 -99 -18 -185 -19
-190 0 -6 -55 -21 -123 -33 -68 -13 -188 -39 -267 -58 -93 -22 -157 -33 -177
-29 -25 4 -37 1 -55 -17 l-22 -22 54 -25 c78 -36 195 -35 300 3 72 26 216 56
267 56 20 0 23 -3 17 -27 -23 -99 -164 -291 -366 -499 -112 -116 -138 -147
-144 -179 -9 -49 3 -67 54 -83 40 -13 43 -12 254 72 117 46 290 110 383 141
94 31 177 63 186 71 42 38 66 10 203 -229 31 -55 77 -87 123 -87 70 0 77 22
43 133 -17 56 -33 80 -110 165 -96 107 -216 205 -312 253 -114 57 -120 24 -17
-94 38 -44 68 -81 67 -83 -2 -1 -82 -18 -178 -38 -96 -19 -229 -51 -295 -71
-66 -19 -126 -35 -133 -35 -20 0 8 41 74 110 72 74 173 204 252 323 58 87 65
103 63 141 -1 32 2 45 14 50 56 21 284 39 539 41 165 2 282 7 288 13 5 5 11
25 11 43 2 32 -1 35 -58 58 -89 36 -177 33 -530 -17 -165 -23 -303 -42 -306
-42 -3 0 3 39 13 88 10 48 22 138 27 200 5 63 13 118 17 122 5 5 86 25 179 44
94 20 180 41 192 46 25 11 57 65 47 81 -3 6 -21 17 -39 25 -30 12 -45 10 -194
-31 -88 -25 -165 -45 -169 -45 -5 0 -7 121 -4 269 3 148 2 280 -2 295 -9 36
-84 80 -121 70z"/>
<path d="M948 2094 c-15 -15 -7 -42 17 -58 13 -9 45 -38 71 -66 74 -79 256
-158 279 -121 3 7 3 31 0 54 -11 63 -70 116 -172 155 -83 32 -182 50 -195 36z"/>
<path d="M634 1476 c-9 -7 -15 -17 -13 -22 15 -38 261 -224 296 -224 19 0 63
45 63 65 0 8 -16 32 -35 54 -68 74 -269 157 -311 127z"/>
<path d="M1086 1033 c-73 -91 -124 -183 -181 -321 -91 -220 -111 -259 -139
-266 -37 -9 -60 -59 -60 -134 -1 -55 2 -66 23 -83 13 -10 39 -19 57 -19 32 0
36 4 60 58 74 164 176 408 204 487 33 94 93 326 86 333 -3 2 -25 -23 -50 -55z"/>
</g>
</svg>
