<?xml version="1.0" standalone="no"?>
<!DOCTYPE svg PUBLIC "-//W3C//DTD SVG 20010904//EN"
 "http://www.w3.org/TR/2001/REC-SVG-20010904/DTD/svg10.dtd">
<svg version="1.0" xmlns="http://www.w3.org/2000/svg"
 width="340.000000pt" height="340.000000pt" viewBox="0 0 340.000000 340.000000"
 preserveAspectRatio="xMidYMid meet">
<metadata>
Created by potrace 1.15, written by Peter Selinger 2001-2017
</metadata>
<g transform="translate(0.000000,340.000000) scale(0.100000,-0.100000)"
fill="#000000" stroke="none">
<path d="M1768 2389 c-24 -13 -23 -44 3 -80 36 -51 40 -85 33 -290 l-6 -196
-147 -46 c-247 -78 -238 -76 -287 -58 -86 31 -107 -25 -52 -136 l33 -68 -1
-165 c-1 -118 -8 -198 -23 -282 -41 -234 -146 -495 -277 -687 -63 -94 -84
-138 -84 -176 0 -22 3 -24 18 -16 36 19 131 123 177 192 213 323 322 711 313
1113 l-3 159 165 38 c91 20 166 36 167 35 1 -1 0 -106 -4 -233 l-6 -232 -48
-21 c-26 -11 -71 -25 -100 -32 -62 -14 -79 -40 -59 -88 7 -17 77 -97 156 -177
l143 -145 -45 -59 c-96 -125 -236 -247 -376 -330 -59 -34 -67 -46 -46 -67 20
-20 40 -14 154 43 126 64 256 164 335 259 30 36 59 65 66 65 6 1 78 -69 160
-155 92 -97 174 -173 217 -201 126 -85 352 -141 454 -114 64 17 73 28 42 52
-29 23 -159 89 -176 89 -17 0 -118 47 -219 103 -149 82 -276 172 -352 249
l-72 73 41 60 c61 90 117 215 145 326 23 94 24 101 8 125 -41 63 -116 79 -195
43 -43 -20 -142 -50 -147 -45 -2 2 3 45 11 98 8 52 20 150 27 217 14 139 7
129 116 156 63 15 254 37 261 30 3 -2 -5 -16 -17 -31 -24 -31 -28 -69 -6 -78
8 -3 32 1 53 8 20 7 60 17 88 20 98 14 141 62 113 128 -16 39 -80 69 -163 75
-48 4 -94 -3 -221 -35 -88 -22 -171 -42 -185 -45 l-25 -6 0 251 0 252 -34 23
c-36 24 -93 30 -123 12z m312 -1162 c0 -18 -51 -148 -99 -251 l-41 -88 -67 61
c-38 34 -107 91 -155 128 -55 42 -83 70 -75 74 7 4 84 23 172 42 269 60 265
59 265 34z"/>
<path d="M797 2023 c-33 -32 90 -146 229 -213 l47 -23 24 27 c30 35 29 57 -3
95 -34 41 -94 75 -178 100 -70 22 -108 26 -119 14z"/>
<path d="M577 1442 c-15 -19 1 -42 45 -67 19 -11 53 -32 76 -48 41 -27 132
-67 153 -67 16 0 41 69 33 93 -10 35 -43 65 -88 81 -56 21 -204 26 -219 8z"/>
<path d="M1072 1162 c-78 -105 -121 -182 -182 -325 -43 -103 -96 -215 -107
-227 -2 -2 -15 9 -28 25 -32 41 -46 24 -53 -64 -6 -85 6 -118 60 -167 39 -35
40 -35 60 -17 29 26 64 90 81 148 8 28 40 111 70 186 69 170 169 476 165 503
-3 16 -17 3 -66 -62z"/>
</g>
</svg>
