<?xml version="1.0" standalone="no"?>
<!DOCTYPE svg PUBLIC "-//W3C//DTD SVG 20010904//EN"
 "http://www.w3.org/TR/2001/REC-SVG-20010904/DTD/svg10.dtd">
<svg version="1.0" xmlns="http://www.w3.org/2000/svg"
 width="340.000000pt" height="340.000000pt" viewBox="0 0 340.000000 340.000000"
 preserveAspectRatio="xMidYMid meet">
<metadata>
Created by potrace 1.15, written by Peter Selinger 2001-2017
</metadata>
<g transform="translate(0.000000,340.000000) scale(0.100000,-0.100000)"
fill="#000000" stroke="none">
<path d="M2223 2572 c-15 -9 -43 -75 -43 -99 0 -10 -28 -48 -63 -83 -60 -62
-108 -141 -123 -202 -5 -25 -3 -28 17 -28 35 0 69 21 162 99 87 72 145 147
167 215 12 37 11 40 -16 66 -30 30 -81 45 -101 32z"/>
<path d="M1464 2413 c4 -21 22 -60 40 -88 18 -27 40 -63 50 -78 25 -40 74 -68
116 -65 35 3 35 3 34 49 -3 87 -63 166 -151 199 -30 11 -63 20 -74 20 -19 0
-21 -4 -15 -37z"/>
<path d="M861 2383 c2 -23 21 -49 94 -128 80 -87 135 -128 196 -145 40 -12 49
-2 49 55 0 79 -47 122 -211 191 -76 32 -130 43 -128 27z"/>
<path d="M2290 2098 c-191 -33 -493 -97 -683 -144 -124 -31 -232 -52 -245 -49
-30 7 -62 -11 -62 -37 0 -20 2 -20 178 -15 105 3 201 11 235 20 l58 15 11 -27
c18 -42 22 -223 6 -244 -9 -11 -59 -27 -158 -48 -80 -17 -149 -35 -155 -40 -6
-6 -1 -17 12 -31 22 -21 24 -21 145 -9 68 7 136 9 151 6 l27 -7 0 -154 c0
-151 0 -154 -22 -158 -13 -3 -86 -17 -163 -31 -76 -15 -190 -40 -253 -56 -62
-16 -133 -29 -156 -29 -82 0 -88 -47 -10 -74 81 -28 147 -21 380 40 118 31
217 55 219 53 2 -2 9 -206 16 -453 11 -401 15 -451 30 -470 44 -52 60 25 79
384 6 107 10 278 9 380 l-1 185 94 13 c97 13 478 21 633 12 l90 -5 17 34 c21
43 11 67 -40 88 -31 13 -72 15 -252 10 -213 -6 -279 -12 -438 -43 -112 -22
-112 -22 -112 125 0 64 3 133 6 153 6 35 9 37 53 43 122 17 311 77 311 99 0 7
-9 25 -21 40 -25 32 -60 34 -184 7 -50 -11 -106 -21 -125 -23 l-35 -3 -7 135
c-3 74 -5 136 -4 138 2 1 69 14 150 27 314 52 374 67 385 92 14 30 14 29 -5
47 -17 18 -76 19 -164 4z"/>
<path d="M580 1750 c0 -12 12 -33 28 -46 15 -13 51 -44 80 -69 64 -55 111 -79
180 -94 80 -17 82 -16 82 29 0 62 -42 100 -169 150 -58 23 -127 44 -153 47
-45 5 -48 4 -48 -17z"/>
<path d="M1108 1297 c-64 -85 -118 -181 -148 -261 -14 -37 -48 -120 -76 -184
-47 -108 -53 -117 -77 -115 -31 2 -36 -9 -43 -101 -7 -82 7 -109 63 -125 33
-10 33 -9 73 59 23 37 56 110 74 161 19 52 48 130 65 174 51 129 128 419 119
444 -1 5 -24 -18 -50 -52z"/>
</g>
</svg>
