<?xml version="1.0" standalone="no"?>
<!DOCTYPE svg PUBLIC "-//W3C//DTD SVG 20010904//EN"
 "http://www.w3.org/TR/2001/REC-SVG-20010904/DTD/svg10.dtd">
<svg version="1.0" xmlns="http://www.w3.org/2000/svg"
 width="340.000000pt" height="340.000000pt" viewBox="0 0 340.000000 340.000000"
 preserveAspectRatio="xMidYMid meet">
<metadata>
Created by potrace 1.15, written by Peter Selinger 2001-2017
</metadata>
<g transform="translate(0.000000,340.000000) scale(0.100000,-0.100000)"
fill="#000000" stroke="none">
<path d="M850 2312 c0 -25 24 -51 65 -68 16 -7 47 -30 69 -52 40 -42 125 -85
189 -96 36 -7 37 -6 37 24 0 45 -23 91 -62 126 -35 31 -136 63 -250 79 -44 7
-48 6 -48 -13z"/>
<path d="M2330 2249 c-307 -46 -769 -142 -782 -163 -14 -21 -8 -36 18 -42 29
-8 57 -4 259 30 180 30 379 53 535 62 92 5 122 4 152 -9 70 -29 69 -26 89
-562 10 -264 23 -544 29 -622 12 -173 13 -533 1 -533 -5 0 -23 6 -41 14 -44
18 -67 10 -79 -26 -6 -17 -11 -33 -11 -35 0 -15 104 -110 142 -129 62 -31 72
-30 102 9 40 53 52 114 38 199 -52 311 -77 883 -63 1458 4 151 2 181 -13 218
-24 56 -96 118 -159 137 -61 18 -60 18 -217 -6z"/>
<path d="M1370 2035 c-13 -35 -12 -61 4 -116 63 -208 57 -1182 -9 -1376 -8
-24 -15 -54 -15 -67 0 -25 38 -87 57 -93 14 -5 68 133 82 212 5 33 13 146 16
250 3 105 10 305 15 445 11 302 12 570 4 623 -4 20 -21 61 -38 90 -28 46 -35
52 -69 55 -32 3 -38 0 -47 -23z"/>
<path d="M2120 1821 c-69 -15 -177 -42 -240 -59 -63 -17 -128 -33 -143 -37
-31 -6 -34 -30 -5 -48 30 -20 400 27 544 68 85 24 106 72 42 94 -42 15 -54 14
-198 -18z"/>
<path d="M616 1727 c-9 -7 -15 -19 -11 -27 12 -31 290 -189 333 -190 25 0 62
32 62 55 0 28 -70 92 -130 119 -57 26 -172 55 -216 56 -11 0 -28 -6 -38 -13z"/>
<path d="M2000 1469 c-213 -57 -226 -59 -252 -45 -36 22 -55 20 -61 -5 -4 -13
31 -133 86 -300 84 -256 93 -279 114 -279 26 0 43 27 43 68 l0 29 98 5 c53 3
139 15 189 28 l93 22 -6 57 c-6 48 -3 64 19 106 30 61 72 193 82 258 6 39 4
51 -11 68 -59 65 -112 63 -394 -12z m264 -92 c-1 -9 -21 -79 -45 -155 l-43
-140 -58 -6 c-33 -3 -91 -17 -131 -30 -40 -13 -72 -23 -72 -23 0 1 -23 71 -51
154 -28 84 -49 155 -46 158 3 3 24 5 46 6 23 0 118 13 211 29 94 15 175 26
180 25 6 -1 9 -9 9 -18z"/>
<path d="M1084 1243 c-79 -119 -182 -322 -240 -471 -32 -83 -51 -119 -58 -112
-24 24 -42 9 -59 -50 -24 -79 -12 -123 40 -148 l35 -17 41 45 c37 42 117 189
117 215 0 7 21 61 46 121 25 60 59 154 75 208 30 103 71 287 65 294 -2 2 -30
-36 -62 -85z"/>
</g>
</svg>
