<?xml version="1.0" standalone="no"?>
<!DOCTYPE svg PUBLIC "-//W3C//DTD SVG 20010904//EN"
 "http://www.w3.org/TR/2001/REC-SVG-20010904/DTD/svg10.dtd">
<svg version="1.0" xmlns="http://www.w3.org/2000/svg"
 width="340.000000pt" height="340.000000pt" viewBox="0 0 340.000000 340.000000"
 preserveAspectRatio="xMidYMid meet">
<metadata>
Created by potrace 1.15, written by Peter Selinger 2001-2017
</metadata>
<g transform="translate(0.000000,340.000000) scale(0.100000,-0.100000)"
fill="#000000" stroke="none">
<path d="M1959 2569 c-15 -15 -20 -30 -17 -56 4 -32 -2 -40 -96 -130 -151
-145 -306 -310 -306 -328 0 -30 52 -15 136 40 47 30 88 55 92 55 5 0 24 -16
43 -36 18 -20 64 -59 102 -86 37 -28 67 -54 66 -57 0 -3 -42 -36 -93 -74 -51
-37 -140 -112 -198 -167 -73 -69 -114 -100 -130 -100 -30 0 -68 -26 -68 -48 0
-9 12 -33 27 -55 24 -35 28 -53 41 -200 14 -163 23 -1009 10 -1022 -3 -3 -32
10 -64 30 -63 37 -104 44 -124 20 -18 -21 -6 -56 40 -114 52 -66 114 -101 188
-108 l59 -5 18 63 c16 58 17 107 16 502 l-2 439 93 -109 c141 -164 514 -544
570 -580 74 -47 170 -66 293 -58 55 4 112 13 126 21 32 16 45 44 27 56 -45 30
-137 70 -190 83 -79 18 -239 97 -369 184 -55 36 -203 154 -329 261 l-229 195
-1 105 c0 115 -18 214 -49 285 l-20 46 31 17 c331 180 760 516 824 648 29 60
29 114 0 159 -28 42 -185 57 -322 29 -29 -5 -34 -2 -64 41 -19 27 -46 53 -66
61 -42 18 -40 18 -65 -7z m249 -185 c86 -18 132 -31 132 -40 0 -17 -63 -95
-158 -194 l-80 -85 -79 41 c-43 23 -109 52 -147 64 l-69 23 29 21 c16 11 74
60 129 108 55 48 102 87 105 88 3 0 65 -12 138 -26z"/>
<path d="M1166 2541 c-20 -22 -14 -61 15 -86 29 -28 37 -69 44 -246 l7 -166
-119 -83 c-65 -46 -164 -119 -221 -162 -96 -74 -105 -78 -138 -72 -44 8 -54
-4 -54 -64 0 -75 32 -102 99 -82 34 9 221 156 340 266 74 69 97 79 87 40 -10
-42 -8 -388 2 -398 20 -20 60 0 71 34 10 31 26 205 51 540 16 211 -10 428 -56
479 -24 26 -104 26 -128 0z"/>
<path d="M900 2253 c-75 -7 -170 -25 -170 -33 0 -12 40 -35 85 -50 22 -7 56
-21 75 -31 54 -29 96 -33 145 -14 25 9 47 21 51 26 8 13 -33 67 -64 83 -33 16
-76 23 -122 19z"/>
<path d="M2337 1652 c-9 -10 -29 -41 -45 -70 -23 -43 -43 -61 -116 -107 -79
-49 -189 -131 -285 -213 -40 -34 -35 -52 15 -52 48 0 234 96 407 210 146 95
164 116 149 173 -14 56 -94 94 -125 59z"/>
<path d="M1150 1209 c-80 -33 -230 -89 -335 -125 -104 -35 -191 -70 -193 -77
-1 -7 4 -21 12 -32 12 -17 25 -20 84 -18 90 2 135 14 265 74 101 47 254 95
277 87 12 -4 -96 -168 -189 -288 -36 -46 -133 -153 -214 -237 -138 -142 -160
-173 -121 -173 43 0 317 222 459 371 124 131 206 272 221 381 5 37 2 46 -19
66 -45 43 -86 38 -247 -29z"/>
</g>
</svg>
