<?xml version="1.0" standalone="no"?>
<!DOCTYPE svg PUBLIC "-//W3C//DTD SVG 20010904//EN"
 "http://www.w3.org/TR/2001/REC-SVG-20010904/DTD/svg10.dtd">
<svg version="1.0" xmlns="http://www.w3.org/2000/svg"
 width="340.000000pt" height="340.000000pt" viewBox="0 0 340.000000 340.000000"
 preserveAspectRatio="xMidYMid meet">
<metadata>
Created by potrace 1.15, written by Peter Selinger 2001-2017
</metadata>
<g transform="translate(0.000000,340.000000) scale(0.100000,-0.100000)"
fill="#000000" stroke="none">
<path d="M1594 2506 c-8 -20 -13 -14 64 -64 80 -51 150 -75 227 -76 l60 -1 -2
34 c-3 71 -71 101 -260 117 -72 6 -83 5 -89 -10z"/>
<path d="M771 2401 c-20 -13 -6 -33 124 -168 65 -70 114 -113 127 -113 86 0
76 103 -19 190 -69 65 -197 114 -232 91z"/>
<path d="M2025 2246 c-247 -63 -520 -133 -605 -156 -85 -24 -191 -51 -235 -60
-52 -10 -80 -21 -80 -29 0 -31 31 -35 159 -22 l125 14 33 -27 c18 -15 59 -44
90 -64 65 -42 217 -163 218 -174 0 -12 -242 -249 -345 -337 -55 -48 -137 -115
-182 -149 -52 -40 -85 -72 -89 -88 -4 -14 -4 -27 -2 -29 9 -9 231 125 324 194
51 39 159 132 238 206 80 74 147 135 150 135 3 0 88 -60 188 -133 101 -74 242
-175 315 -226 155 -107 180 -115 374 -114 137 0 182 12 187 50 4 29 -25 43
-114 54 -191 24 -622 237 -839 414 l-45 38 38 41 c88 96 134 185 156 306 l12
65 54 19 c33 11 103 21 175 26 66 4 132 12 146 18 35 14 99 71 99 87 0 19 -49
55 -74 55 -11 -1 -223 -52 -471 -114z m-68 -142 c3 -9 -6 -42 -21 -73 -32 -65
-127 -211 -137 -211 -4 0 -45 24 -91 53 -46 28 -118 68 -160 87 -43 19 -77 38
-78 42 0 9 32 18 255 72 204 50 223 52 232 30z"/>
<path d="M501 1791 c-8 -6 -11 -16 -6 -31 12 -37 136 -154 200 -187 56 -29 62
-31 93 -18 37 16 42 46 17 95 -30 58 -263 166 -304 141z"/>
<path d="M1971 1434 c-26 -33 -26 -42 -2 -96 17 -38 23 -108 46 -588 17 -346
31 -554 38 -570 7 -14 19 -26 28 -28 33 -6 42 92 47 493 4 413 -9 719 -34 767
-28 54 -89 65 -123 22z"/>
<path d="M987 1326 c-60 -74 -118 -171 -155 -261 -16 -38 -60 -133 -96 -210
l-67 -139 -19 32 c-25 41 -47 41 -64 0 -25 -60 -29 -114 -12 -171 19 -65 35
-81 75 -72 61 13 98 61 157 205 135 327 239 622 232 658 -2 12 -17 0 -51 -42z"/>
<path d="M1518 1285 c-8 -19 -8 -38 2 -79 17 -73 8 -239 -20 -334 -24 -86 -75
-190 -138 -285 -46 -70 -57 -116 -33 -140 26 -25 210 215 285 373 39 82 66
199 66 286 0 86 -38 157 -102 190 -37 19 -47 18 -60 -11z"/>
</g>
</svg>
