<?xml version="1.0" standalone="no"?>
<!DOCTYPE svg PUBLIC "-//W3C//DTD SVG 20010904//EN"
 "http://www.w3.org/TR/2001/REC-SVG-20010904/DTD/svg10.dtd">
<svg version="1.0" xmlns="http://www.w3.org/2000/svg"
 width="340.000000pt" height="340.000000pt" viewBox="0 0 340.000000 340.000000"
 preserveAspectRatio="xMidYMid meet">
<metadata>
Created by potrace 1.15, written by Peter Selinger 2001-2017
</metadata>
<g transform="translate(0.000000,340.000000) scale(0.100000,-0.100000)"
fill="#000000" stroke="none">
<path d="M1932 2502 c-21 -7 -13 -52 19 -109 27 -48 31 -62 27 -112 -4 -62
-57 -203 -92 -245 -26 -31 -126 -53 -281 -63 -91 -5 -105 -8 -105 -24 0 -12
11 -20 33 -25 47 -10 215 -7 267 5 24 5 45 9 46 8 2 -1 -8 -31 -20 -67 -24
-67 -94 -192 -178 -318 -53 -78 -53 -87 -5 -139 31 -34 94 -30 211 12 53 19
121 38 151 41 l55 7 1 -39 c2 -79 -2 -210 -8 -242 -4 -23 -12 -33 -27 -36
-201 -37 -489 -129 -484 -156 8 -37 51 -35 265 14 115 26 216 50 226 52 15 5
17 -5 17 -102 0 -110 17 -356 29 -429 5 -34 11 -40 33 -43 51 -6 56 17 68 313
5 149 10 273 10 276 0 3 35 9 78 13 96 8 180 22 255 43 49 14 58 19 55 37 -2
13 -18 28 -40 39 -36 18 -44 18 -170 2 -73 -8 -143 -18 -155 -21 -23 -4 -23
-4 -23 120 0 68 3 138 6 155 6 29 9 31 53 31 84 1 231 48 231 75 0 7 -12 24
-26 39 -31 31 -73 34 -149 11 -60 -19 -93 -13 -99 18 -29 153 -43 176 -116
198 -38 12 -44 11 -56 -6 -20 -27 -17 -75 6 -113 25 -41 26 -103 2 -125 -19
-18 -246 -56 -258 -44 -3 3 40 95 96 204 l102 199 132 23 c107 19 357 77 464
107 26 7 31 49 6 58 -8 3 -133 -16 -277 -44 -143 -27 -262 -48 -263 -47 -2 2
17 62 41 135 25 73 45 144 45 158 0 34 -23 85 -48 107 -22 20 -130 56 -150 49z"/>
<path d="M720 2250 c0 -28 23 -70 50 -95 12 -11 29 -33 37 -48 25 -49 85 -108
136 -133 27 -14 50 -24 52 -22 14 17 25 54 25 85 0 33 -7 45 -64 98 -39 38
-92 75 -138 98 -86 43 -98 45 -98 17z"/>
<path d="M1150 2086 c0 -7 13 -37 28 -67 77 -148 104 -179 155 -179 54 0 60 9
48 76 -7 37 -22 72 -39 94 -47 59 -192 117 -192 76z"/>
<path d="M481 1597 c-23 -23 -9 -49 58 -116 82 -83 129 -114 198 -134 46 -14
52 -14 57 0 22 57 -12 133 -83 181 -80 55 -206 93 -230 69z"/>
<path d="M1325 1531 c-6 -5 -79 -48 -163 -96 -124 -71 -150 -90 -141 -101 17
-20 55 -17 134 11 64 22 105 31 105 21 0 -2 -10 -25 -22 -52 -25 -57 -28 -144
-8 -195 7 -19 29 -56 49 -84 57 -81 80 -149 81 -233 l0 -73 -57 7 c-32 5 -111
8 -177 8 -119 -1 -135 -6 -136 -42 0 -16 -2 -16 165 -42 283 -44 536 -124 825
-260 91 -43 202 -89 246 -103 240 -76 541 -84 672 -20 31 16 56 32 56 38 -1 5
-12 18 -26 28 -22 16 -39 19 -114 16 -49 -2 -154 -3 -234 -1 l-145 3 -215 71
c-201 66 -482 166 -665 237 l-80 31 0 112 c-1 129 -14 180 -78 298 -55 102
-55 135 1 226 35 59 42 78 42 123 0 40 -5 57 -17 67 -20 15 -84 18 -98 5z"/>
<path d="M907 1003 c-49 -68 -91 -147 -122 -228 -15 -38 -43 -112 -63 -162
l-36 -93 -26 32 c-15 17 -31 28 -37 25 -15 -10 -34 -119 -36 -212 -3 -133 36
-175 114 -122 30 20 38 37 77 157 102 319 182 589 182 613 0 43 -16 40 -53
-10z"/>
</g>
</svg>
