<?xml version="1.0" standalone="no"?>
<!DOCTYPE svg PUBLIC "-//W3C//DTD SVG 20010904//EN"
 "http://www.w3.org/TR/2001/REC-SVG-20010904/DTD/svg10.dtd">
<svg version="1.0" xmlns="http://www.w3.org/2000/svg"
 width="340.000000pt" height="340.000000pt" viewBox="0 0 340.000000 340.000000"
 preserveAspectRatio="xMidYMid meet">
<metadata>
Created by potrace 1.15, written by Peter Selinger 2001-2017
</metadata>
<g transform="translate(0.000000,340.000000) scale(0.100000,-0.100000)"
fill="#000000" stroke="none">
<path d="M1620 2476 c0 -19 27 -66 60 -105 22 -25 67 -81 100 -123 36 -46 68
-78 78 -78 24 0 60 35 68 64 14 57 -80 164 -191 217 -52 25 -115 38 -115 25z"/>
<path d="M1297 2220 c-3 -8 -12 -44 -21 -79 -9 -35 -40 -101 -68 -149 -51 -85
-128 -250 -128 -276 0 -17 32 -46 52 -46 29 0 57 34 117 140 45 81 63 104 78
102 10 -2 54 -6 99 -9 68 -4 101 -1 210 25 162 39 337 68 479 81 126 12 255
20 255 16 0 -2 -23 -19 -50 -39 -62 -44 -71 -63 -42 -86 23 -19 26 -19 221 22
124 25 144 40 139 101 -2 34 -9 45 -36 63 -85 58 -344 76 -492 35 -41 -11
-149 -34 -240 -50 -91 -17 -219 -42 -285 -56 -194 -42 -244 -50 -255 -39 -6 6
-4 27 6 59 8 28 13 69 11 92 -5 47 -43 117 -50 93z"/>
<path d="M666 2204 c-9 -23 -11 -21 57 -91 58 -61 137 -127 198 -165 26 -16
28 -16 53 7 44 40 36 79 -28 141 -60 58 -115 90 -191 110 -65 18 -82 17 -89
-2z"/>
<path d="M1955 1624 c-93 -24 -260 -70 -370 -101 -110 -31 -211 -55 -225 -55
-33 2 -52 -11 -45 -30 10 -26 142 -33 258 -13 112 19 115 18 152 -55 34 -66
49 -240 42 -460 -4 -96 -9 -185 -13 -197 -6 -21 -9 -20 -122 34 -65 30 -139
64 -167 75 -27 12 -52 23 -54 24 -1 2 16 22 39 46 50 53 98 146 106 211 7 45
5 51 -22 73 -54 44 -95 23 -110 -57 -18 -92 -106 -200 -426 -525 -103 -104
-188 -196 -188 -203 0 -26 63 -1 135 53 68 51 275 225 375 315 25 22 49 40 54
41 4 0 88 -49 185 -109 224 -138 588 -349 711 -413 66 -34 119 -53 173 -63
189 -35 437 -1 437 61 0 20 -10 23 -121 38 -240 34 -514 121 -741 235 -139 69
-153 78 -151 101 1 14 8 105 14 203 l13 177 86 0 c91 0 168 9 319 37 73 13 99
23 122 44 34 32 37 59 8 85 -20 18 -23 18 -107 1 -48 -10 -144 -38 -214 -62
-70 -24 -147 -47 -171 -50 l-44 -7 -6 119 c-4 88 -12 139 -32 201 -14 46 -25
85 -23 87 2 2 41 11 87 20 94 19 299 82 319 97 17 15 15 55 -4 62 -36 14 -119
2 -279 -40z"/>
<path d="M480 1598 c0 -27 148 -172 197 -194 18 -8 53 -14 78 -14 53 0 56 10
24 80 -35 78 -64 99 -180 131 -94 26 -119 25 -119 -3z"/>
<path d="M924 1140 c-87 -104 -139 -182 -189 -280 -53 -103 -136 -240 -146
-240 -4 0 -11 5 -14 10 -22 35 -65 -36 -65 -108 0 -33 31 -102 45 -102 21 0
76 33 106 64 65 65 347 671 337 723 -2 12 -24 -8 -74 -67z"/>
</g>
</svg>
