<?xml version="1.0" standalone="no"?>
<!DOCTYPE svg PUBLIC "-//W3C//DTD SVG 20010904//EN"
 "http://www.w3.org/TR/2001/REC-SVG-20010904/DTD/svg10.dtd">
<svg version="1.0" xmlns="http://www.w3.org/2000/svg"
 width="340.000000pt" height="340.000000pt" viewBox="0 0 340.000000 340.000000"
 preserveAspectRatio="xMidYMid meet">
<metadata>
Created by potrace 1.15, written by Peter Selinger 2001-2017
</metadata>
<g transform="translate(0.000000,340.000000) scale(0.100000,-0.100000)"
fill="#000000" stroke="none">
<path d="M2047 2332 c-28 -29 -64 -49 -135 -77 -111 -44 -222 -97 -336 -163
l-79 -45 23 -19 c12 -10 29 -18 36 -18 24 0 455 146 526 179 126 56 147 160
37 177 -30 5 -39 0 -72 -34z"/>
<path d="M860 2090 c0 -35 44 -103 87 -136 21 -16 60 -50 86 -76 40 -40 54
-48 85 -48 61 0 67 9 48 74 -11 36 -30 69 -54 95 -43 45 -145 97 -209 107 -40
6 -43 5 -43 -16z"/>
<path d="M2242 2068 c-7 -9 -9 -32 -6 -64 l6 -50 -51 -33 c-69 -44 -155 -140
-176 -196 -10 -25 -15 -48 -12 -51 12 -12 119 30 167 65 26 20 68 50 91 66 74
52 126 110 131 146 8 49 -8 94 -37 107 -45 21 -100 25 -113 10z"/>
<path d="M1628 1935 c-12 -27 -14 -23 62 -113 66 -79 114 -98 175 -70 19 9 24
16 19 32 -27 87 -90 147 -175 165 -67 15 -68 15 -81 -14z"/>
<path d="M1246 1791 c-13 -21 4 -48 68 -104 86 -76 125 -97 190 -104 l56 -6 0
32 c0 66 -43 116 -135 157 -67 29 -168 44 -179 25z"/>
<path d="M2127 1609 c-21 -28 -63 -46 -323 -141 -165 -60 -305 -115 -313 -122
-19 -20 -5 -36 32 -36 33 0 181 23 228 35 24 6 28 2 52 -52 33 -74 46 -133 47
-206 l0 -58 -45 -20 c-43 -19 -551 -129 -598 -129 -12 0 -29 -5 -37 -10 -13
-8 -12 -13 7 -32 20 -20 35 -22 145 -26 130 -4 178 4 373 62 44 13 98 27 120
30 l40 7 0 -173 c0 -95 2 -204 5 -242 l5 -69 -100 -23 c-55 -12 -153 -32 -217
-45 -121 -22 -149 -39 -112 -66 23 -17 56 -16 234 2 252 25 600 45 735 43 156
-4 189 3 179 35 -12 40 -53 85 -89 97 -36 12 -297 -2 -399 -21 -27 -5 -64 -9
-83 -9 l-33 0 2 247 3 247 29 7 c136 37 471 58 641 41 95 -10 101 -9 123 11
16 15 22 30 20 52 -4 43 -52 65 -143 65 -153 0 -497 -35 -641 -65 l-31 -7 -7
91 c-4 50 -16 125 -26 167 -11 43 -20 81 -20 85 0 5 19 13 43 19 68 17 126 39
220 83 86 40 87 41 87 76 0 20 -4 41 -8 47 -13 19 -50 34 -86 34 -27 0 -40 -7
-59 -31z"/>
<path d="M596 1478 c-21 -30 -9 -47 82 -120 81 -64 157 -105 207 -110 30 -3
30 -2 33 48 2 44 -1 56 -24 83 -30 37 -125 88 -199 107 -68 19 -81 18 -99 -8z"/>
<path d="M1144 1110 c-61 -97 -111 -199 -164 -340 -26 -69 -67 -171 -91 -228
l-43 -102 -23 25 c-30 32 -48 32 -69 0 -37 -57 4 -275 52 -275 23 0 66 25 96
57 48 50 296 836 286 906 -2 18 -11 10 -44 -43z"/>
</g>
</svg>
