<?xml version="1.0" standalone="no"?>
<!DOCTYPE svg PUBLIC "-//W3C//DTD SVG 20010904//EN"
 "http://www.w3.org/TR/2001/REC-SVG-20010904/DTD/svg10.dtd">
<svg version="1.0" xmlns="http://www.w3.org/2000/svg"
 width="340.000000pt" height="340.000000pt" viewBox="0 0 340.000000 340.000000"
 preserveAspectRatio="xMidYMid meet">
<metadata>
Created by potrace 1.15, written by Peter Selinger 2001-2017
</metadata>
<g transform="translate(0.000000,340.000000) scale(0.100000,-0.100000)"
fill="#000000" stroke="none">
<path d="M2145 2308 c-123 -15 -405 -76 -569 -122 -87 -25 -173 -46 -190 -46
-20 0 -51 12 -79 31 -48 32 -77 33 -77 3 0 -9 16 -58 36 -107 48 -123 100
-314 128 -477 21 -118 27 -137 51 -157 16 -14 34 -21 48 -18 12 2 69 11 127
20 227 34 506 87 528 101 12 8 22 25 22 38 0 13 20 65 44 117 24 52 79 175
121 273 76 175 77 180 65 220 -32 108 -103 142 -255 124z m73 -139 c28 -11 28
-18 -4 -141 -45 -179 -114 -382 -137 -406 -19 -18 -47 -26 -162 -43 -77 -11
-194 -34 -260 -50 -66 -17 -130 -33 -142 -36 -22 -5 -23 -2 -23 53 0 56 -13
156 -25 193 -15 48 61 73 275 90 127 11 188 30 226 72 18 21 18 21 -6 41 -21
17 -34 20 -90 15 -85 -8 -200 -38 -311 -82 -49 -20 -93 -34 -98 -31 -5 3 -14
35 -20 70 -6 35 -18 83 -26 107 -8 23 -13 44 -11 46 8 9 313 66 496 93 189 28
262 30 318 9z"/>
<path d="M730 2201 c-15 -29 -8 -39 90 -127 78 -72 144 -113 181 -114 22 0 42
52 34 89 -14 63 -144 151 -247 166 -41 6 -48 4 -58 -14z"/>
<path d="M532 1562 c-18 -4 -34 -11 -35 -16 -1 -6 38 -40 87 -77 49 -38 103
-82 121 -99 32 -31 62 -37 96 -20 30 17 23 59 -19 114 -58 77 -157 116 -250
98z"/>
<path d="M1924 1446 c-18 -14 -18 -16 -1 -43 56 -87 68 -158 57 -329 -5 -71
-9 -226 -10 -345 0 -210 1 -216 25 -265 85 -171 247 -236 540 -220 149 8 249
27 276 52 63 56 91 161 69 252 -9 41 -16 51 -38 57 -45 11 -75 -22 -87 -94 -9
-53 -15 -67 -45 -91 -55 -46 -110 -60 -229 -60 -179 0 -281 38 -342 127 -50
72 -59 118 -59 294 l0 158 60 36 c154 94 340 261 340 306 0 59 -89 116 -139
90 -17 -9 -21 -21 -21 -56 0 -52 -9 -63 -135 -170 l-90 -76 -6 123 c-6 118
-17 167 -53 237 -14 26 -22 31 -54 31 -21 0 -47 -6 -58 -14z"/>
<path d="M1285 1316 c-19 -14 -19 -15 2 -58 36 -71 42 -123 43 -340 0 -220
-11 -355 -40 -496 -16 -79 -16 -89 -2 -114 23 -39 56 -51 92 -33 37 19 144
139 251 281 110 146 129 181 109 194 -8 5 -20 10 -27 10 -18 0 -119 -87 -201
-174 -41 -43 -76 -76 -78 -73 -3 3 -1 100 3 217 l8 213 87 23 c131 35 278 116
278 153 0 24 -31 51 -60 51 -13 0 -52 -13 -87 -30 -34 -16 -66 -30 -71 -30 -4
0 -38 -18 -76 -40 -37 -22 -69 -40 -70 -40 0 0 1 27 2 59 9 154 -85 284 -163
227z"/>
<path d="M1032 1153 c-87 -138 -214 -399 -252 -518 -7 -22 -26 -69 -42 -104
l-29 -64 -24 23 c-32 30 -50 16 -63 -47 -17 -77 13 -136 81 -162 25 -10 31 -8
47 11 56 69 109 194 220 521 53 155 108 372 97 383 -2 3 -18 -17 -35 -43z"/>
</g>
</svg>
