<?xml version="1.0" standalone="no"?>
<!DOCTYPE svg PUBLIC "-//W3C//DTD SVG 20010904//EN"
 "http://www.w3.org/TR/2001/REC-SVG-20010904/DTD/svg10.dtd">
<svg version="1.0" xmlns="http://www.w3.org/2000/svg"
 width="340.000000pt" height="340.000000pt" viewBox="0 0 340.000000 340.000000"
 preserveAspectRatio="xMidYMid meet">
<metadata>
Created by potrace 1.15, written by Peter Selinger 2001-2017
</metadata>
<g transform="translate(0.000000,340.000000) scale(0.100000,-0.100000)"
fill="#000000" stroke="none">
<path d="M1630 2503 c-56 -21 -64 -64 -20 -113 17 -18 30 -41 30 -50 0 -21
-60 -198 -106 -316 l-36 -92 -137 -35 c-75 -19 -151 -38 -168 -42 -40 -8 -42
-19 -8 -41 23 -15 36 -16 108 -5 101 14 147 14 147 1 0 -32 -221 -351 -350
-505 -82 -98 -110 -135 -110 -147 0 -5 13 -8 29 -8 24 0 54 23 161 127 72 69
164 170 204 223 65 87 163 247 197 322 12 28 72 54 183 78 l48 11 67 -58 c36
-31 165 -156 287 -278 140 -140 241 -232 277 -254 166 -98 405 -145 485 -95
l32 20 -32 33 c-41 42 -85 64 -183 90 -101 28 -278 113 -370 178 -39 28 -132
109 -207 181 -75 72 -160 146 -189 166 l-52 35 27 11 c16 6 86 16 157 24 110
11 134 17 169 40 48 32 54 43 41 79 -16 42 -52 53 -103 34 -64 -24 -558 -145
-558 -137 0 16 33 100 75 190 25 53 48 116 51 141 9 63 -21 128 -77 168 -44
32 -45 33 -69 24z"/>
<path d="M740 2175 c0 -26 9 -45 34 -73 19 -20 47 -52 62 -70 33 -41 90 -70
150 -79 l47 -6 -7 42 c-9 58 -40 115 -75 140 -43 31 -159 81 -187 81 -21 0
-24 -5 -24 -35z"/>
<path d="M1619 1648 c-18 -44 -14 -99 10 -147 28 -55 28 -106 -1 -125 -13 -8
-78 -30 -146 -49 -67 -19 -126 -38 -130 -41 -8 -9 14 -24 47 -33 14 -3 61 -1
105 6 45 7 98 15 119 18 l38 5 -3 -88 -3 -87 -95 -25 c-52 -14 -97 -27 -100
-29 -3 -3 8 -16 24 -30 27 -23 36 -25 93 -20 95 7 101 -3 87 -154 l-7 -66 -96
-22 c-53 -13 -103 -25 -112 -27 -13 -4 -17 9 -23 78 -9 115 -31 199 -77 294
-39 83 -85 134 -120 134 -34 0 -31 -41 15 -180 24 -74 56 -191 71 -260 14 -69
30 -132 34 -140 11 -21 39 -24 59 -7 23 19 236 31 250 14 5 -7 12 -49 15 -94
13 -199 132 -321 349 -359 132 -23 350 -15 473 17 l90 24 29 58 c23 46 29 71
29 125 1 71 -15 135 -41 165 -18 20 -55 23 -70 5 -12 -16 -32 -140 -32 -201
l0 -44 -82 -19 c-98 -22 -267 -24 -348 -5 -30 7 -87 27 -127 43 -55 23 -77 37
-96 67 -37 55 -57 124 -57 191 0 54 2 60 23 64 12 3 58 12 102 21 130 26 180
43 203 68 46 49 200 465 188 511 -10 40 -68 108 -111 130 -45 24 -147 27 -199
7 -16 -7 -71 -15 -123 -18 l-93 -6 0 50 c0 100 -54 196 -116 207 -29 4 -33 2
-45 -26z m504 -339 c28 -8 37 -15 33 -27 -2 -9 -26 -108 -52 -219 -55 -233
-37 -211 -189 -233 -44 -6 -93 -13 -108 -16 l-28 -6 3 108 3 109 39 6 c45 7
105 64 88 81 -5 5 -38 12 -72 15 l-63 6 7 81 c4 44 8 81 9 82 1 2 36 7 77 12
105 13 208 14 253 1z"/>
<path d="M489 1546 c-14 -30 4 -65 49 -93 15 -10 51 -37 80 -61 29 -23 79 -56
112 -72 67 -34 78 -29 87 40 5 39 3 44 -44 89 -58 56 -157 107 -225 116 -44 6
-49 4 -59 -19z"/>
<path d="M897 1003 c-75 -98 -152 -223 -213 -345 -32 -65 -65 -118 -72 -118
-24 0 -62 -48 -62 -78 0 -37 39 -96 67 -100 48 -7 83 25 125 116 55 120 123
285 174 426 63 172 58 199 -19 99z"/>
</g>
</svg>
