<?xml version="1.0" standalone="no"?>
<!DOCTYPE svg PUBLIC "-//W3C//DTD SVG 20010904//EN"
 "http://www.w3.org/TR/2001/REC-SVG-20010904/DTD/svg10.dtd">
<svg version="1.0" xmlns="http://www.w3.org/2000/svg"
 width="340.000000pt" height="340.000000pt" viewBox="0 0 340.000000 340.000000"
 preserveAspectRatio="xMidYMid meet">
<metadata>
Created by potrace 1.15, written by Peter Selinger 2001-2017
</metadata>
<g transform="translate(0.000000,340.000000) scale(0.100000,-0.100000)"
fill="#000000" stroke="none">
<path d="M1920 2334 c-211 -64 -414 -115 -500 -125 -47 -5 -103 -14 -125 -20
l-40 -11 24 -19 c35 -28 98 -42 163 -35 33 4 59 3 62 -3 12 -18 -12 -255 -31
-304 -17 -47 -18 -48 -98 -73 -87 -28 -246 -64 -282 -64 -28 0 -29 -14 -3 -40
31 -31 58 -33 189 -10 68 11 126 19 129 16 7 -8 -62 -150 -115 -236 -66 -106
-137 -200 -231 -308 -45 -50 -82 -97 -82 -102 0 -6 7 -13 15 -16 39 -15 274
207 384 361 35 50 92 149 126 221 68 139 82 154 151 154 19 0 45 -5 57 -12 24
-12 209 -178 480 -430 191 -177 251 -215 393 -249 69 -16 112 -20 195 -17 117
4 142 14 137 57 -3 23 -10 27 -63 39 -179 38 -418 136 -543 221 -33 22 -112
85 -176 140 -64 56 -168 140 -231 187 -63 48 -115 88 -115 90 0 12 150 45 267
59 194 22 259 59 223 125 -15 27 -33 25 -275 -30 -184 -42 -386 -82 -391 -78
-1 2 7 30 18 63 26 77 19 141 -21 207 -30 48 -30 48 -8 52 12 2 51 9 87 16
124 22 410 120 410 140 0 5 3 15 6 23 7 19 -22 47 -49 46 -12 0 -74 -16 -137
-35z"/>
<path d="M700 2211 c0 -11 19 -43 43 -70 23 -27 56 -67 74 -89 33 -41 103 -82
140 -82 20 0 43 36 43 67 0 65 -139 165 -262 187 -34 6 -38 5 -38 -13z"/>
<path d="M460 1626 c0 -32 29 -74 67 -97 21 -13 58 -40 82 -61 44 -38 133 -78
175 -78 42 0 49 73 12 117 -38 45 -200 122 -273 129 -55 6 -63 5 -63 -10z"/>
<path d="M1530 1340 c-26 -26 -25 -68 1 -96 18 -19 23 -43 31 -146 9 -117 8
-682 -2 -692 -3 -2 -30 2 -60 10 -30 8 -71 13 -90 12 -34 -3 -35 -4 -32 -38 6
-53 36 -102 93 -154 46 -41 56 -46 83 -40 53 11 85 33 114 76 l27 41 3 276 c4
323 -12 670 -34 717 -25 53 -97 71 -134 34z"/>
<path d="M902 1068 c-86 -116 -139 -203 -203 -338 -48 -100 -74 -140 -89 -140
-4 0 -12 12 -19 26 -14 32 -42 28 -52 -6 -22 -80 0 -165 54 -204 l27 -20 36
35 c52 49 93 111 129 198 18 42 54 123 80 181 43 94 125 326 125 350 0 25 -24
3 -88 -82z"/>
<path d="M2154 954 c17 -72 175 -261 273 -327 47 -33 74 -30 99 9 23 34 12 62
-47 133 -74 89 -202 175 -308 206 -22 7 -23 5 -17 -21z"/>
<path d="M1226 908 c-18 -29 -48 -78 -65 -108 -18 -30 -42 -70 -53 -88 -23
-37 -35 -148 -19 -171 16 -24 83 2 124 48 46 51 102 215 93 277 -7 52 -23 94
-36 94 -6 0 -25 -24 -44 -52z"/>
<path d="M1804 906 c-8 -20 75 -163 122 -210 22 -23 59 -51 82 -64 l41 -23 12
41 c18 60 0 106 -64 167 -53 50 -141 103 -172 103 -9 0 -18 -6 -21 -14z"/>
</g>
</svg>
