<?xml version="1.0" standalone="no"?>
<!DOCTYPE svg PUBLIC "-//W3C//DTD SVG 20010904//EN"
 "http://www.w3.org/TR/2001/REC-SVG-20010904/DTD/svg10.dtd">
<svg version="1.0" xmlns="http://www.w3.org/2000/svg"
 width="340.000000pt" height="340.000000pt" viewBox="0 0 340.000000 340.000000"
 preserveAspectRatio="xMidYMid meet">
<metadata>
Created by potrace 1.15, written by Peter Selinger 2001-2017
</metadata>
<g transform="translate(0.000000,340.000000) scale(0.100000,-0.100000)"
fill="#000000" stroke="none">
<path d="M1503 2605 c-41 -18 -43 -43 -4 -87 15 -18 33 -43 40 -55 13 -25 15
-350 4 -665 l-6 -194 -52 4 c-52 4 -53 4 -60 -27 -10 -45 11 -95 56 -136 67
-60 111 -69 156 -31 l28 24 -4 343 -3 343 91 -84 c142 -132 265 -233 394 -325
104 -74 126 -86 194 -101 89 -20 239 -14 298 10 31 13 36 20 33 42 -3 25 -9
28 -133 59 -226 58 -389 127 -562 240 -57 37 -103 70 -103 74 0 3 29 17 65 30
80 28 222 96 333 159 72 41 84 52 99 90 31 82 -21 125 -145 120 -62 -3 -67 -5
-70 -27 -3 -16 4 -30 19 -41 32 -25 19 -44 -53 -81 -82 -42 -179 -106 -252
-168 l-59 -50 -29 24 c-16 14 -42 28 -56 31 -15 3 -31 7 -36 8 -6 1 -9 82 -7
199 3 185 1 198 -18 226 -19 26 -85 62 -114 61 -6 -1 -27 -7 -44 -15z"/>
<path d="M1265 2159 c-38 -16 -149 -69 -245 -117 -129 -64 -185 -87 -214 -87
-44 0 -73 -28 -46 -45 64 -42 166 -36 265 16 148 77 181 93 208 98 15 4 27 3
27 -2 0 -24 -182 -245 -292 -354 -70 -69 -128 -131 -128 -136 0 -55 183 50
340 195 75 69 175 192 229 279 22 37 31 63 31 95 0 50 -6 61 -37 78 -33 17
-62 13 -138 -20z"/>
<path d="M1923 1573 c-16 -6 -17 -39 -3 -48 6 -4 22 -30 37 -58 34 -68 41
-158 49 -712 7 -421 6 -430 -12 -414 -41 35 -64 42 -90 24 -15 -9 -24 -25 -24
-41 0 -36 45 -119 93 -171 37 -40 45 -44 75 -39 85 13 105 57 91 199 -10 104
-24 595 -17 587 3 -3 52 -59 110 -125 161 -184 285 -300 352 -331 83 -38 171
-51 253 -37 69 12 86 25 77 58 -12 38 -37 55 -123 81 -107 32 -210 81 -297
139 -70 47 -312 245 -313 256 -1 4 42 37 94 74 52 37 133 105 180 150 83 81
85 84 85 129 0 61 -34 99 -83 94 -29 -3 -35 -10 -67 -76 -30 -60 -51 -87 -120
-149 -84 -75 -143 -123 -151 -123 -2 0 -4 93 -5 208 -1 240 -9 281 -58 311
-32 20 -102 27 -133 14z"/>
<path d="M1114 1470 c-26 -10 -37 -36 -25 -58 5 -9 17 -75 26 -146 15 -109 16
-176 11 -425 -7 -343 -11 -385 -35 -375 -28 12 -70 16 -96 10 -49 -12 -25 -94
50 -175 50 -54 86 -68 129 -51 43 16 53 57 60 250 4 96 9 199 13 228 l6 52 81
-78 c85 -82 165 -142 189 -142 7 0 24 11 36 24 19 20 22 31 16 58 -10 42 -122
153 -191 188 -27 14 -51 26 -53 27 -2 2 18 26 45 55 65 69 107 131 150 223 38
78 38 94 3 139 -23 30 -63 34 -95 11 -17 -11 -22 -28 -26 -78 -6 -72 -24 -112
-77 -171 -21 -22 -43 -51 -50 -63 -25 -48 -31 -22 -31 125 0 180 -21 326 -52
359 -22 24 -48 28 -84 13z"/>
<path d="M810 1084 c-195 -109 -251 -137 -284 -138 -37 -1 -51 -23 -37 -58 9
-25 16 -28 54 -28 64 0 140 26 254 87 72 38 103 50 103 40 0 -27 -51 -171 -90
-255 -22 -46 -59 -110 -84 -143 -42 -55 -66 -111 -81 -186 -7 -37 -5 -39 33
-19 87 46 255 309 336 528 53 144 51 209 -10 234 -18 8 -39 14 -46 14 -7 0
-74 -34 -148 -76z"/>
<path d="M1705 1074 c-27 -13 -80 -34 -117 -45 -72 -22 -82 -37 -52 -70 15
-16 29 -17 131 -12 l114 6 -7 -29 c-18 -74 -93 -273 -156 -414 -38 -85 -72
-161 -75 -167 -8 -19 38 -16 66 3 57 40 209 310 275 486 52 140 48 215 -14
251 -39 24 -106 20 -165 -9z"/>
</g>
</svg>
