<?xml version="1.0" standalone="no"?>
<!DOCTYPE svg PUBLIC "-//W3C//DTD SVG 20010904//EN"
 "http://www.w3.org/TR/2001/REC-SVG-20010904/DTD/svg10.dtd">
<svg version="1.0" xmlns="http://www.w3.org/2000/svg"
 width="340.000000pt" height="340.000000pt" viewBox="0 0 340.000000 340.000000"
 preserveAspectRatio="xMidYMid meet">
<metadata>
Created by potrace 1.15, written by Peter Selinger 2001-2017
</metadata>
<g transform="translate(0.000000,340.000000) scale(0.100000,-0.100000)"
fill="#000000" stroke="none">
<path d="M1675 2421 c-11 -19 40 -66 118 -107 39 -20 86 -48 106 -61 43 -29
68 -27 94 9 l20 27 -24 48 c-17 32 -36 54 -59 65 -45 22 -243 37 -255 19z"/>
<path d="M780 2222 c0 -31 113 -128 232 -198 l61 -35 26 19 c54 40 30 99 -67
161 -98 63 -252 95 -252 53z"/>
<path d="M2285 2175 c-150 -37 -489 -102 -668 -129 -153 -22 -158 -23 -168 -5
-13 26 -65 51 -97 47 -32 -4 -32 0 -13 -198 24 -249 -19 -538 -126 -855 -50
-149 -187 -432 -236 -491 -55 -63 -126 -172 -168 -256 -44 -88 -44 -88 -24
-88 35 0 232 243 332 410 147 246 258 533 303 785 l12 71 107 12 c58 7 118 15
132 18 25 6 25 5 37 -83 6 -49 21 -116 33 -150 l21 -62 28 20 c17 13 72 30
141 44 63 12 140 33 172 45 52 19 56 24 51 46 -3 13 -1 31 6 39 6 8 22 52 35
99 13 47 26 90 30 96 3 5 24 10 46 10 59 0 184 28 257 57 l65 26 -27 24 c-32
28 -48 28 -193 6 -62 -9 -115 -14 -118 -12 -2 3 1 33 7 67 15 81 -1 156 -47
217 l-34 44 37 6 c130 20 262 70 262 100 0 23 -34 55 -65 60 -16 2 -75 -7
-130 -20z m-205 -177 c0 -13 9 -47 20 -76 13 -35 20 -76 20 -126 0 -120 2
-118 -147 -149 -70 -15 -135 -27 -144 -27 -13 0 -17 14 -21 64 -7 80 -38 140
-93 178 -62 42 -79 41 -83 -5 -3 -29 3 -47 22 -72 28 -36 45 -98 46 -162 0
-40 -2 -43 -37 -52 -183 -48 -219 -52 -209 -25 15 38 27 155 27 269 l1 124 67
6 c153 14 322 37 401 54 118 26 130 26 130 -1z m-1 -442 c15 -18 7 -144 -10
-161 -8 -7 -43 -18 -79 -25 -36 -6 -87 -20 -115 -31 -27 -10 -53 -15 -58 -10
-4 4 -7 48 -5 97 l3 88 115 27 c138 33 135 32 149 15z"/>
<path d="M583 1735 c-26 -19 -9 -41 64 -81 77 -44 219 -104 245 -104 25 0 52
45 44 75 -12 46 -124 93 -275 113 -44 6 -66 5 -78 -3z"/>
<path d="M1009 1354 c-97 -125 -188 -276 -249 -414 -19 -41 -37 -79 -41 -83
-3 -5 -19 4 -34 19 -34 34 -37 29 -60 -81 -16 -79 -14 -159 6 -196 13 -26 57
-32 86 -14 55 36 350 730 341 803 -3 23 -7 20 -49 -34z"/>
<path d="M2205 1192 c-11 -2 -134 -42 -272 -88 -139 -46 -268 -84 -287 -84
-18 0 -38 -6 -44 -13 -21 -25 1 -58 83 -122 82 -63 227 -192 233 -206 8 -18
-214 -205 -394 -331 -126 -89 -155 -126 -90 -115 99 16 336 158 486 290 l85
75 118 -112 c217 -204 253 -233 312 -255 83 -31 188 -43 269 -32 76 11 96 23
96 57 0 28 -18 37 -165 84 -171 54 -333 145 -477 265 -44 36 -68 64 -68 77 0
12 29 51 68 92 91 96 172 257 172 342 0 47 -67 88 -125 76z m-40 -152 c8 -13
-29 -80 -104 -188 l-65 -92 -30 25 c-17 13 -77 55 -133 92 -56 37 -102 71
-102 75 -1 3 41 16 92 27 81 18 310 67 329 70 4 0 10 -3 13 -9z"/>
</g>
</svg>
