<?xml version="1.0" standalone="no"?>
<!DOCTYPE svg PUBLIC "-//W3C//DTD SVG 20010904//EN"
 "http://www.w3.org/TR/2001/REC-SVG-20010904/DTD/svg10.dtd">
<svg version="1.0" xmlns="http://www.w3.org/2000/svg"
 width="340.000000pt" height="340.000000pt" viewBox="0 0 340.000000 340.000000"
 preserveAspectRatio="xMidYMid meet">
<metadata>
Created by potrace 1.15, written by Peter Selinger 2001-2017
</metadata>
<g transform="translate(0.000000,340.000000) scale(0.100000,-0.100000)"
fill="#000000" stroke="none">
<path d="M2165 2504 c-106 -15 -254 -48 -331 -73 -49 -16 -124 -37 -167 -46
-82 -18 -94 -33 -39 -49 22 -6 78 -2 184 12 206 29 425 44 448 32 10 -6 21
-18 24 -28 7 -20 -50 -192 -106 -327 -31 -73 -36 -80 -63 -82 -86 -8 -185 -28
-262 -54 -47 -16 -107 -31 -133 -35 l-47 -6 -6 62 c-4 35 -7 80 -7 100 l0 37
60 6 c76 8 216 54 248 82 30 26 24 55 -10 55 -13 0 -84 -19 -158 -41 -74 -23
-141 -42 -149 -43 -8 0 -18 17 -25 44 -15 59 -47 109 -96 154 -34 30 -44 35
-60 26 -25 -13 -25 -40 -1 -88 10 -20 28 -77 40 -127 12 -49 40 -148 62 -218
36 -114 42 -127 59 -122 24 8 60 -2 60 -16 0 -5 -46 -67 -103 -137 -147 -181
-259 -332 -261 -350 -2 -29 29 -23 74 12 25 20 48 32 52 28 11 -12 28 -170 28
-267 0 -106 -21 -259 -50 -367 -19 -72 -19 -80 -5 -116 16 -38 47 -62 82 -62
9 0 64 16 124 35 166 53 458 105 601 105 9 0 29 10 44 23 22 19 26 29 20 50
l-6 27 -133 0 c-141 0 -280 -16 -441 -49 -54 -12 -111 -21 -127 -21 -27 0 -28
2 -21 33 4 17 7 118 7 222 0 230 -20 343 -67 385 -15 13 -28 29 -28 35 0 5 41
47 90 93 72 67 90 79 90 62 0 -11 7 -23 16 -27 21 -8 146 8 429 55 272 45 369
48 445 12 l53 -25 -6 -200 c-8 -328 -62 -574 -206 -937 l-10 -28 -37 25 c-38
26 -86 39 -125 33 -18 -2 -25 -10 -27 -31 -5 -40 18 -69 96 -121 73 -50 112
-57 161 -32 42 22 54 47 99 206 77 269 140 567 183 862 26 183 20 238 -32 301
-51 62 -93 77 -208 77 -137 0 -225 -14 -451 -70 -273 -68 -370 -89 -370 -79 0
7 42 63 126 166 14 18 28 50 31 72 l5 40 72 16 c39 9 106 27 149 41 l79 26 14
-21 c32 -45 56 -22 132 127 73 141 139 302 147 354 9 61 -15 112 -64 137 -37
19 -142 32 -196 25z"/>
<path d="M865 2283 c7 -30 17 -44 103 -134 34 -36 85 -78 113 -94 l52 -28 19
23 c47 58 26 109 -72 181 -66 49 -137 78 -189 79 -31 0 -33 -2 -26 -27z"/>
<path d="M657 1743 c-17 -17 -3 -42 51 -89 74 -65 166 -134 179 -134 18 0 53
46 53 72 0 36 -40 90 -80 110 -77 38 -185 60 -203 41z"/>
<path d="M1144 1428 c-61 -92 -86 -149 -132 -288 -74 -225 -159 -435 -173
-431 -35 9 -43 4 -60 -44 -25 -68 -24 -146 1 -196 12 -22 27 -43 36 -46 38
-15 125 97 139 182 4 22 34 128 66 235 94 314 170 601 167 627 -3 21 -8 16
-44 -39z"/>
<path d="M1976 1402 c-13 -26 -29 -68 -36 -92 -7 -26 -62 -121 -131 -226 -116
-176 -135 -218 -104 -230 36 -14 67 10 166 129 56 67 106 126 110 131 5 5 28
-9 54 -33 58 -53 142 -92 202 -94 44 -2 47 0 56 29 20 68 -37 115 -179 149
-41 10 -74 19 -74 21 0 3 12 23 28 46 36 56 38 137 4 186 -35 49 -66 44 -96
-16z"/>
</g>
</svg>
