<?xml version="1.0" standalone="no"?>
<!DOCTYPE svg PUBLIC "-//W3C//DTD SVG 20010904//EN"
 "http://www.w3.org/TR/2001/REC-SVG-20010904/DTD/svg10.dtd">
<svg version="1.0" xmlns="http://www.w3.org/2000/svg"
 width="340.000000pt" height="340.000000pt" viewBox="0 0 340.000000 340.000000"
 preserveAspectRatio="xMidYMid meet">
<metadata>
Created by potrace 1.15, written by Peter Selinger 2001-2017
</metadata>
<g transform="translate(0.000000,340.000000) scale(0.100000,-0.100000)"
fill="#000000" stroke="none">
<path d="M2102 2398 c-17 -17 -15 -61 4 -102 l17 -34 -48 -88 c-68 -125 -180
-310 -264 -438 -77 -116 -86 -146 -47 -146 26 0 129 103 234 233 30 37 62 67
71 67 71 2 244 23 326 40 185 39 195 44 220 103 14 34 14 37 -6 47 -42 23
-121 23 -184 1 -124 -45 -307 -102 -311 -99 -2 3 25 51 60 107 73 117 93 176
76 227 -22 67 -113 117 -148 82z"/>
<path d="M1260 2259 c0 -31 20 -59 100 -143 85 -89 114 -110 145 -102 34 9 58
47 49 80 -18 72 -146 166 -246 181 -46 7 -48 6 -48 -16z"/>
<path d="M744 2216 c-8 -32 18 -79 58 -107 18 -13 40 -32 48 -44 47 -66 115
-102 168 -88 22 5 24 9 18 45 -19 115 -135 218 -247 218 -32 0 -40 -4 -45 -24z"/>
<path d="M1555 1870 c-166 -51 -342 -116 -456 -167 -36 -17 -95 -36 -132 -43
-37 -7 -70 -17 -73 -22 -13 -20 28 -48 71 -48 41 0 259 60 363 100 l52 20 0
-39 c0 -135 -188 -585 -346 -830 -61 -93 -68 -111 -72 -164 -4 -56 -3 -58 14
-49 49 26 126 127 213 280 90 160 194 363 240 471 l23 53 44 -6 c25 -3 54 -10
64 -16 29 -15 54 -111 46 -174 -16 -128 -142 -454 -235 -607 l-19 -32 -20 39
c-25 48 -59 80 -94 89 -23 6 -28 3 -34 -19 -11 -46 1 -129 26 -180 49 -96 117
-122 181 -69 59 50 217 413 304 698 31 101 36 131 32 186 -8 124 -67 185 -187
196 l-57 6 8 36 c5 20 8 65 7 100 l-1 64 36 18 c20 11 69 24 109 29 117 17
201 81 152 117 -31 23 -94 14 -259 -37z"/>
<path d="M2380 1758 c-80 -10 -223 -54 -315 -95 -44 -20 -102 -38 -130 -41
-54 -5 -65 -13 -58 -43 10 -36 173 -23 350 27 56 16 103 24 118 20 25 -6 23
-9 -51 -94 -42 -48 -88 -104 -102 -125 -21 -31 -30 -37 -56 -35 -36 2 -56 -7
-56 -26 0 -7 18 -52 40 -99 22 -47 41 -103 43 -124 l2 -37 -195 -38 c-274 -52
-265 -50 -268 -75 -7 -46 107 -48 382 -8 55 8 102 13 105 10 3 -3 7 -74 9
-158 4 -149 4 -154 -32 -290 -53 -199 -48 -189 -90 -172 -36 15 -146 21 -146
8 0 -26 25 -93 45 -118 30 -40 114 -80 149 -71 34 8 97 71 120 120 35 73 67
296 73 507 l6 197 41 5 c50 7 317 26 405 30 61 2 66 4 84 34 53 92 -71 113
-402 67 -143 -19 -136 -20 -151 29 -7 23 -23 63 -36 90 l-24 47 37 32 c58 49
267 260 287 290 17 25 17 29 0 63 -30 63 -88 86 -184 73z"/>
<path d="M514 1604 c-9 -35 7 -60 76 -119 61 -53 114 -80 178 -90 l42 -7 0 37
c0 81 -63 146 -179 185 -84 28 -109 27 -117 -6z"/>
<path d="M975 1226 c-56 -74 -155 -250 -200 -358 -27 -62 -61 -139 -78 -170
-26 -49 -33 -57 -52 -52 -28 7 -37 -6 -46 -66 -4 -25 -11 -63 -14 -85 -6 -32
-3 -45 14 -67 28 -35 77 -46 97 -21 33 42 78 129 104 201 16 42 49 127 75 187
45 107 105 291 126 384 5 25 12 54 15 64 9 28 -13 19 -41 -17z"/>
</g>
</svg>
