<?xml version="1.0" standalone="no"?>
<!DOCTYPE svg PUBLIC "-//W3C//DTD SVG 20010904//EN"
 "http://www.w3.org/TR/2001/REC-SVG-20010904/DTD/svg10.dtd">
<svg version="1.0" xmlns="http://www.w3.org/2000/svg"
 width="340.000000pt" height="340.000000pt" viewBox="0 0 340.000000 340.000000"
 preserveAspectRatio="xMidYMid meet">
<metadata>
Created by potrace 1.15, written by Peter Selinger 2001-2017
</metadata>
<g transform="translate(0.000000,340.000000) scale(0.100000,-0.100000)"
fill="#000000" stroke="none">
<path d="M1926 2394 c-24 -23 -20 -38 24 -88 21 -26 42 -61 45 -80 4 -18 3
-96 -2 -172 l-8 -139 -85 -17 c-47 -9 -108 -20 -136 -24 l-51 -6 -6 94 c-6
104 -23 161 -69 230 -35 50 -79 69 -118 48 -28 -15 -25 -52 10 -127 35 -74 60
-169 60 -231 0 -41 -2 -43 -45 -62 -39 -17 -179 -62 -314 -102 -25 -7 -46 -18
-48 -25 -9 -25 52 -24 234 5 103 16 190 28 193 25 11 -10 5 -712 -6 -723 -23
-23 -515 -143 -529 -129 -2 3 9 39 25 81 26 66 64 237 55 246 -5 5 -91 -110
-124 -167 -17 -29 -43 -80 -57 -114 -13 -34 -31 -74 -39 -88 -8 -15 -30 -62
-49 -105 -19 -44 -53 -119 -75 -168 -41 -86 -42 -88 -62 -71 -22 21 -20 24
-42 -40 -23 -66 -22 -149 3 -203 l19 -43 41 21 c41 21 100 97 100 129 0 26 84
260 125 349 27 59 44 83 59 86 88 17 296 50 316 50 23 1 26 -4 37 -74 15 -97
16 -309 2 -422 -10 -77 -10 -91 5 -113 40 -61 105 -66 286 -23 237 56 446 74
669 58 167 -12 195 -10 211 20 18 34 2 68 -39 80 -103 29 -217 34 -403 16
-210 -20 -504 -52 -563 -61 l-40 -7 -1 184 c-1 161 -4 194 -26 277 l-25 93 31
13 c66 28 332 85 513 111 156 22 415 32 583 24 137 -7 146 -7 163 12 23 27 22
71 -4 94 -19 17 -38 19 -208 18 -164 -1 -358 -19 -438 -40 -20 -6 -21 -1 -28
78 -10 122 -2 655 10 667 6 5 78 15 160 21 155 13 208 27 226 62 8 15 6 26 -6
45 -16 23 -20 24 -78 18 -34 -4 -106 -15 -159 -24 -61 -11 -103 -14 -113 -8
-30 16 -36 54 -20 123 32 139 7 251 -69 309 -38 29 -96 33 -120 9z m66 -597
c7 -20 -9 -660 -17 -693 -7 -31 -8 -32 -119 -54 -61 -12 -122 -24 -135 -27
l-24 -6 6 84 c4 46 10 101 13 122 6 36 8 37 49 37 56 0 124 24 166 59 29 25
32 31 20 45 -19 23 -57 20 -150 -11 -45 -14 -84 -24 -87 -21 -3 3 -1 57 3 119
l8 114 46 6 c46 7 149 53 149 67 0 32 -75 43 -120 17 -36 -21 -77 -19 -90 4
-15 30 -12 87 6 102 17 14 241 58 261 51 6 -2 13 -9 15 -15z"/>
<path d="M845 2111 c-9 -15 14 -64 45 -96 17 -16 48 -54 70 -83 46 -59 141
-128 165 -118 8 3 20 18 26 33 24 63 -14 123 -119 190 -63 41 -179 86 -187 74z"/>
<path d="M555 1521 c-17 -28 148 -138 281 -187 84 -30 94 -27 94 31 0 40 -21
69 -74 100 -79 46 -283 84 -301 56z"/>
<path d="M1860 883 c-14 -18 -19 -35 -15 -53 4 -20 -5 -42 -41 -95 -54 -82
-88 -147 -120 -232 -31 -83 -31 -87 8 -79 49 10 70 28 152 130 122 152 174
288 127 335 -31 31 -84 28 -111 -6z"/>
<path d="M2024 696 c-5 -13 11 -36 57 -83 68 -69 119 -103 187 -127 49 -17 54
-13 54 49 0 66 -28 97 -118 135 -95 39 -171 50 -180 26z"/>
</g>
</svg>
