<?xml version="1.0" standalone="no"?>
<!DOCTYPE svg PUBLIC "-//W3C//DTD SVG 20010904//EN"
 "http://www.w3.org/TR/2001/REC-SVG-20010904/DTD/svg10.dtd">
<svg version="1.0" xmlns="http://www.w3.org/2000/svg"
 width="340.000000pt" height="340.000000pt" viewBox="0 0 340.000000 340.000000"
 preserveAspectRatio="xMidYMid meet">
<metadata>
Created by potrace 1.15, written by Peter Selinger 2001-2017
</metadata>
<g transform="translate(0.000000,340.000000) scale(0.100000,-0.100000)"
fill="#000000" stroke="none">
<path d="M2040 2467 c0 -13 5 -28 12 -35 6 -6 10 -13 7 -14 -2 -2 -119 -41
-259 -88 -226 -75 -255 -88 -258 -107 -2 -16 4 -26 21 -34 47 -22 393 49 582
119 76 28 80 31 89 67 17 74 -32 115 -139 115 -51 0 -55 -2 -55 -23z"/>
<path d="M858 2225 c-4 -4 -5 -12 -3 -18 2 -7 6 -24 9 -39 4 -15 25 -50 49
-77 23 -27 50 -61 61 -76 28 -40 75 -65 125 -65 l44 0 -6 45 c-8 55 -36 111
-74 147 -47 45 -187 101 -205 83z"/>
<path d="M2335 2128 c-3 -7 -12 -33 -20 -57 -9 -27 -38 -68 -70 -102 -53 -56
-105 -145 -105 -181 0 -24 33 -23 88 2 66 30 209 164 221 207 5 19 8 40 6 46
-2 7 -6 24 -9 38 -4 17 -16 30 -33 37 -56 21 -73 24 -78 10z"/>
<path d="M1697 2083 c-20 -19 15 -123 41 -123 4 0 16 -17 27 -37 30 -54 88
-93 142 -93 41 0 43 1 43 30 0 38 -23 94 -57 138 -39 52 -172 110 -196 85z"/>
<path d="M1310 1887 c0 -37 16 -64 74 -125 52 -55 84 -72 136 -72 51 0 58 16
35 77 -33 85 -129 153 -217 153 -25 0 -28 -3 -28 -33z"/>
<path d="M1736 1767 c-14 -11 -17 -23 -14 -53 5 -36 1 -44 -53 -105 -33 -37
-95 -95 -139 -129 -63 -51 -81 -70 -86 -97 -8 -42 -2 -58 32 -80 40 -26 137
-18 278 24 38 11 -37 -67 -144 -150 -167 -130 -190 -153 -190 -197 0 -80 61
-93 203 -44 56 20 110 38 119 41 40 12 48 -158 8 -178 -8 -4 -100 -28 -205
-53 -104 -25 -245 -61 -312 -81 -67 -19 -130 -35 -140 -35 -10 0 -25 -4 -33
-10 -12 -7 -11 -12 5 -30 19 -21 26 -22 100 -15 111 9 209 29 318 64 88 28
228 61 235 56 2 -2 -6 -21 -17 -43 -11 -21 -88 -104 -170 -184 -83 -80 -151
-151 -151 -157 0 -19 47 -32 75 -21 58 22 199 127 269 200 41 43 96 115 122
160 30 51 54 82 68 85 169 38 342 55 567 55 183 0 198 1 223 21 48 38 31 87
-35 100 -84 16 -166 9 -452 -38 -318 -51 -306 -52 -307 17 0 19 -7 60 -15 90
-8 30 -15 56 -15 56 0 1 75 29 166 64 l166 62 30 -37 c39 -47 70 -59 115 -44
31 10 34 14 28 38 -13 53 -54 129 -91 171 -47 51 -145 120 -173 120 -38 0 -37
-45 2 -121 35 -68 35 -69 14 -74 -88 -18 -287 -69 -347 -90 -40 -14 -76 -23
-78 -20 -6 6 52 61 163 155 49 41 153 137 232 214 134 129 143 141 143 176 0
72 -81 119 -124 71 -9 -10 -22 -35 -27 -55 -7 -26 -40 -68 -107 -138 l-97
-100 -53 17 c-32 11 -68 15 -92 12 l-40 -5 59 58 c61 60 101 139 101 200 0 55
-87 92 -134 57z"/>
<path d="M643 1634 c10 -54 25 -81 77 -144 58 -68 102 -93 150 -83 40 8 44 19
25 73 -30 84 -97 143 -190 164 -16 4 -39 10 -49 13 -16 4 -18 1 -13 -23z"/>
<path d="M1061 1240 c-83 -118 -131 -206 -182 -332 -72 -176 -97 -221 -117
-213 -44 19 -52 11 -71 -68 -20 -88 -15 -125 24 -164 23 -23 42 -33 57 -31 31
4 94 97 118 173 10 33 35 98 55 145 74 172 183 521 173 552 -3 7 -28 -21 -57
-62z"/>
<path d="M2060 623 c0 -22 45 -77 114 -139 42 -38 109 -107 149 -152 67 -78
125 -122 161 -122 21 0 56 48 56 78 0 33 -68 122 -133 173 -76 61 -347 187
-347 162z"/>
</g>
</svg>
