<?xml version="1.0" standalone="no"?>
<!DOCTYPE svg PUBLIC "-//W3C//DTD SVG 20010904//EN"
 "http://www.w3.org/TR/2001/REC-SVG-20010904/DTD/svg10.dtd">
<svg version="1.0" xmlns="http://www.w3.org/2000/svg"
 width="340.000000pt" height="340.000000pt" viewBox="0 0 340.000000 340.000000"
 preserveAspectRatio="xMidYMid meet">
<metadata>
Created by potrace 1.15, written by Peter Selinger 2001-2017
</metadata>
<g transform="translate(0.000000,340.000000) scale(0.100000,-0.100000)"
fill="#000000" stroke="none">
<path d="M2018 2493 c-10 -2 -18 -12 -18 -22 0 -29 -40 -56 -125 -85 -163 -57
-455 -216 -455 -250 0 -27 33 -26 118 5 221 78 346 121 457 154 66 20 130 43
142 51 45 29 38 98 -12 129 -23 15 -82 25 -107 18z"/>
<path d="M740 2249 c10 -34 18 -44 95 -125 61 -63 87 -80 142 -92 47 -11 53
-5 53 49 0 39 -22 80 -59 112 -35 29 -178 87 -215 87 -23 0 -24 -2 -16 -31z"/>
<path d="M1662 2154 c-29 -20 -28 -46 5 -85 31 -36 42 -101 42 -257 1 -66 -3
-94 -11 -96 -68 -20 -560 -156 -580 -161 -35 -7 -36 -32 -3 -47 31 -14 268 12
336 37 77 28 150 46 176 43 22 -3 3 -25 -164 -188 -103 -102 -247 -236 -320
-298 -119 -102 -155 -143 -139 -159 9 -9 201 107 308 187 57 42 169 142 251
221 l147 145 -2 -215 -3 -216 -105 -27 c-57 -15 -137 -33 -177 -39 -61 -10
-73 -15 -73 -31 0 -38 38 -42 177 -18 71 12 140 20 153 18 30 -4 46 -54 52
-153 l3 -67 -85 -30 c-47 -17 -86 -31 -88 -33 -1 -1 0 -9 4 -18 8 -23 59 -37
109 -30 38 5 45 3 59 -18 21 -33 11 -160 -15 -193 -21 -27 -150 -66 -217 -66
l-42 0 0 78 c0 116 -31 248 -84 356 -49 102 -93 156 -125 156 -25 0 -26 -13
-5 -71 33 -95 85 -292 114 -439 17 -85 33 -163 36 -172 7 -24 41 -23 54 2 10
18 21 20 113 20 114 0 318 22 447 48 79 16 85 19 88 43 5 43 -17 52 -133 50
-57 -1 -106 2 -109 7 -2 4 0 56 6 114 l11 106 36 7 c45 8 121 52 121 69 0 24
-50 48 -110 53 l-57 6 -6 101 c-2 55 -3 102 -2 104 1 1 38 10 81 19 63 13 91
14 141 6 66 -12 154 -48 190 -79 l22 -19 -25 -138 c-23 -133 -83 -387 -104
-441 -5 -15 -17 -26 -28 -26 -27 0 -62 -29 -62 -52 0 -11 9 -35 20 -53 24 -39
64 -50 117 -32 65 22 72 39 129 302 39 187 84 427 84 457 0 19 -17 45 -55 86
-93 100 -192 128 -346 98 -47 -10 -105 -16 -129 -14 l-45 3 -3 218 c-1 119 0
217 3 217 2 0 64 -44 137 -98 373 -276 583 -418 655 -443 73 -26 187 -40 253
-31 54 7 55 7 58 43 2 21 -2 40 -11 47 -7 6 -54 25 -103 41 -211 69 -488 204
-690 338 -65 43 -160 103 -211 133 -79 46 -90 55 -75 65 49 34 244 64 415 65
152 0 209 30 176 91 -11 21 -15 22 -118 15 -120 -8 -277 -28 -399 -52 -46 -9
-85 -14 -88 -12 -2 3 -7 76 -10 164 -4 101 -12 169 -20 186 -31 61 -103 86
-152 52z"/>
<path d="M2200 2151 c-6 -12 -9 -30 -5 -39 4 -14 -4 -23 -29 -34 -75 -36 -182
-162 -153 -180 26 -16 91 -7 164 25 93 39 156 95 172 152 10 36 9 42 -13 64
-17 17 -39 25 -74 29 -44 4 -52 2 -62 -17z"/>
<path d="M1255 1901 c-10 -32 6 -52 83 -102 79 -52 124 -61 177 -37 31 14 32
32 3 74 -34 50 -81 71 -175 77 -73 6 -82 4 -88 -12z"/>
<path d="M446 1614 c-4 -11 5 -25 25 -43 17 -14 49 -42 72 -62 55 -47 102 -74
155 -90 52 -15 62 -6 62 55 0 56 -45 95 -149 129 -93 31 -156 35 -165 11z"/>
<path d="M977 1295 c-70 -106 -169 -304 -211 -420 -20 -55 -48 -128 -63 -163
l-26 -64 -21 27 c-28 34 -39 23 -61 -60 -17 -68 -19 -150 -4 -215 11 -48 22
-60 56 -60 47 0 72 39 127 200 30 85 99 286 155 445 83 236 101 299 99 337
l-3 47 -48 -74z"/>
</g>
</svg>
