<?xml version="1.0" standalone="no"?>
<!DOCTYPE svg PUBLIC "-//W3C//DTD SVG 20010904//EN"
 "http://www.w3.org/TR/2001/REC-SVG-20010904/DTD/svg10.dtd">
<svg version="1.0" xmlns="http://www.w3.org/2000/svg"
 width="340.000000pt" height="340.000000pt" viewBox="0 0 340.000000 340.000000"
 preserveAspectRatio="xMidYMid meet">
<metadata>
Created by potrace 1.15, written by Peter Selinger 2001-2017
</metadata>
<g transform="translate(0.000000,340.000000) scale(0.100000,-0.100000)"
fill="#000000" stroke="none">
<path d="M2098 2729 c-34 -20 -41 -47 -23 -97 17 -47 17 -47 -15 -134 l-32
-88 -42 0 c-23 0 -96 -7 -161 -16 -66 -8 -128 -16 -139 -17 -14 -2 -21 9 -32
51 -25 98 -80 178 -140 207 -33 16 -38 16 -52 1 -14 -14 -15 -20 -3 -49 33
-80 80 -221 76 -228 -10 -16 -105 -41 -190 -50 -137 -14 -147 -17 -135 -40 22
-41 65 -52 179 -45 58 4 120 9 136 12 27 5 33 1 48 -31 14 -30 22 -36 44 -33
14 2 29 10 33 18 33 72 33 72 105 91 39 11 106 22 149 26 76 6 79 5 71 -13
-15 -33 -17 -111 -5 -134 12 -22 12 -22 49 14 21 20 53 61 72 91 l34 55 237 0
237 0 20 26 c27 35 26 48 -5 73 -25 20 -39 21 -231 21 -113 0 -203 3 -201 8
62 119 61 191 -1 260 -31 33 -53 39 -83 21z"/>
<path d="M780 2437 c0 -27 47 -96 113 -164 40 -42 88 -66 156 -77 l33 -6 -4
55 c-8 92 -53 135 -191 181 -45 15 -88 29 -94 32 -8 2 -13 -5 -13 -21z"/>
<path d="M2290 2128 c-25 -5 -94 -20 -154 -33 -98 -22 -111 -23 -137 -10 -33
17 -80 20 -95 5 -7 -7 -3 -26 14 -60 15 -31 27 -80 33 -132 10 -92 31 -166 61
-216 20 -33 20 -33 42 -14 39 36 59 41 143 35 65 -5 94 -2 151 16 66 20 70 23
76 56 4 19 28 65 53 102 74 108 78 165 18 229 -31 32 -36 34 -96 33 -35 -1
-84 -5 -109 -11z m90 -134 c0 -9 -7 -28 -15 -42 -8 -15 -24 -51 -36 -79 -20
-51 -23 -53 -59 -53 -35 0 -126 -14 -161 -25 -13 -5 -18 9 -28 82 -7 49 -13
93 -14 98 -2 8 128 23 291 34 14 0 22 -5 22 -15z"/>
<path d="M1550 2051 c-31 -10 -82 -31 -115 -49 -33 -17 -75 -33 -92 -37 -18
-4 -44 -20 -57 -36 l-25 -29 -33 20 c-33 20 -64 25 -92 14 -18 -7 -13 -23 29
-89 18 -28 38 -69 45 -90 35 -108 121 -238 154 -233 14 2 22 14 27 36 4 18 9
36 12 39 3 3 56 15 116 27 l111 23 0 -26 c0 -57 -262 -390 -490 -623 -91 -93
-130 -139 -128 -153 2 -11 10 -21 18 -22 23 -5 182 120 311 245 l117 112 7
-146 c8 -150 -2 -370 -31 -702 -12 -137 -14 -190 -5 -208 12 -27 42 -32 60
-10 15 18 35 127 57 311 23 192 26 672 5 784 l-13 73 54 57 c96 99 188 237
188 283 0 30 -25 64 -60 81 -40 20 -49 77 -22 132 34 70 37 115 14 169 -12 25
-27 48 -34 50 -42 13 -79 12 -128 -3z m14 -166 c-2 -22 -19 -75 -38 -114 -12
-27 -99 -80 -131 -81 -15 0 -25 12 -37 48 -10 27 -31 68 -47 92 -36 53 -30 59
54 60 33 1 78 5 100 10 65 14 100 8 99 -15z"/>
<path d="M587 1773 c-4 -3 -7 -21 -7 -39 0 -28 10 -41 75 -97 72 -61 124 -87
177 -87 31 0 39 24 28 75 -9 41 -30 67 -74 94 -55 33 -185 69 -199 54z"/>
<path d="M1934 1625 c-16 -40 28 -105 101 -152 25 -15 45 -31 45 -34 0 -3 -85
-25 -190 -49 -104 -24 -190 -47 -190 -51 0 -25 48 -31 186 -24 l144 7 0 -85 0
-85 -32 -7 c-63 -13 -218 -68 -218 -77 0 -21 58 -29 153 -23 l98 7 -3 -87 -3
-88 -107 -30 c-65 -17 -108 -34 -108 -42 0 -30 33 -40 134 -40 l101 0 3 -92
c3 -89 2 -93 -20 -98 -13 -2 -97 -21 -188 -40 -199 -42 -240 -53 -240 -65 0
-18 41 -20 146 -8 70 8 279 12 586 13 518 1 508 0 508 57 0 26 -7 32 -56 55
-90 41 -179 49 -309 29 -61 -10 -159 -20 -219 -23 l-109 -6 6 93 c3 51 10 97
15 102 5 5 41 14 80 18 72 9 155 36 198 65 21 14 23 19 13 31 -37 44 -122 56
-200 29 -58 -21 -85 -13 -93 26 -19 96 -4 116 99 136 88 16 195 59 195 78 0
17 -31 42 -60 50 -14 3 -68 -1 -120 -10 -52 -8 -98 -15 -102 -15 -5 0 -8 35
-8 78 l0 78 89 12 c111 15 255 61 259 83 2 9 -4 24 -13 33 -21 20 -79 20 -205
1 -133 -20 -126 -22 -139 33 -16 62 -52 98 -110 111 -96 20 -112 21 -117 6z"/>
<path d="M1078 1423 c-73 -101 -120 -196 -223 -453 -59 -146 -110 -268 -114
-273 -4 -4 -18 4 -31 18 -13 14 -30 25 -37 25 -32 0 -44 -105 -19 -164 14 -34
63 -76 89 -76 37 0 125 136 151 231 8 30 35 109 59 176 66 180 174 549 164
560 -3 2 -20 -18 -39 -44z"/>
</g>
</svg>
