<?xml version="1.0" standalone="no"?>
<!DOCTYPE svg PUBLIC "-//W3C//DTD SVG 20010904//EN"
 "http://www.w3.org/TR/2001/REC-SVG-20010904/DTD/svg10.dtd">
<svg version="1.0" xmlns="http://www.w3.org/2000/svg"
 width="340.000000pt" height="340.000000pt" viewBox="0 0 340.000000 340.000000"
 preserveAspectRatio="xMidYMid meet">
<metadata>
Created by potrace 1.15, written by Peter Selinger 2001-2017
</metadata>
<g transform="translate(0.000000,340.000000) scale(0.100000,-0.100000)"
fill="#000000" stroke="none">
<path d="M1237 2380 c3 -11 23 -34 45 -52 21 -18 65 -56 96 -84 118 -105 131
-113 164 -103 43 12 58 28 58 60 0 81 -193 199 -325 199 -38 0 -43 -2 -38 -20z"/>
<path d="M1980 2109 c-329 -54 -909 -167 -1004 -196 -16 -4 -18 -1 -14 33 7
56 -9 115 -39 147 -15 15 -30 27 -34 27 -12 0 -37 -74 -44 -135 -10 -80 -55
-203 -110 -297 -47 -81 -51 -97 -35 -129 8 -14 21 -19 54 -19 42 0 42 0 85 75
24 41 60 114 81 163 l38 87 203 22 c112 11 258 32 324 46 178 38 332 57 505
64 161 6 195 0 228 -40 10 -12 5 -16 -31 -26 -53 -13 -68 -29 -70 -73 l-2 -33
105 1 c173 1 230 28 230 107 0 51 -4 55 -107 116 -76 45 -177 82 -221 80 -15
0 -79 -9 -142 -20z"/>
<path d="M1360 1750 c0 -35 9 -87 21 -123 20 -57 21 -77 16 -252 -6 -202 -20
-286 -72 -441 -29 -84 -103 -238 -151 -317 -31 -48 -149 -147 -342 -283 -51
-37 -95 -70 -98 -75 -3 -5 7 -14 21 -21 22 -10 37 -7 108 22 232 93 381 229
482 435 43 89 94 216 130 323 7 20 17 10 91 -86 213 -274 504 -585 605 -645
97 -57 205 -88 330 -94 90 -5 110 -3 132 12 33 22 35 57 5 73 -13 6 -59 20
-104 31 -99 24 -283 114 -425 209 -80 54 -141 107 -264 233 -210 215 -347 375
-341 397 34 113 44 303 23 427 -26 147 -43 193 -80 215 -18 11 -44 20 -59 20
-27 0 -28 -1 -28 -60z"/>
<path d="M2030 1583 c0 -58 -21 -90 -96 -149 -78 -60 -167 -159 -200 -220 -17
-30 -17 -36 -4 -44 25 -17 61 -1 150 63 99 71 261 200 279 221 7 8 15 30 18
50 9 55 -3 64 -119 90 -22 5 -28 3 -28 -11z"/>
<path d="M807 1304 c-18 -18 -4 -58 36 -102 24 -26 58 -66 76 -90 18 -23 52
-58 76 -78 43 -35 44 -35 69 -18 55 35 46 94 -25 169 -67 71 -208 143 -232
119z"/>
</g>
</svg>
