<?xml version="1.0" standalone="no"?>
<!DOCTYPE svg PUBLIC "-//W3C//DTD SVG 20010904//EN"
 "http://www.w3.org/TR/2001/REC-SVG-20010904/DTD/svg10.dtd">
<svg version="1.0" xmlns="http://www.w3.org/2000/svg"
 width="340.000000pt" height="340.000000pt" viewBox="0 0 340.000000 340.000000"
 preserveAspectRatio="xMidYMid meet">
<metadata>
Created by potrace 1.15, written by Peter Selinger 2001-2017
</metadata>
<g transform="translate(0.000000,340.000000) scale(0.100000,-0.100000)"
fill="#000000" stroke="none">
<path d="M1823 2530 c-31 -13 -30 -54 3 -102 l27 -38 -14 -183 -14 -182 -60
-24 c-33 -13 -94 -26 -137 -30 -81 -7 -105 -19 -95 -45 17 -43 136 -47 260
-10 16 5 17 -5 17 -118 0 -68 -3 -132 -6 -144 -5 -18 -23 -25 -138 -47 -72
-15 -190 -43 -261 -63 -72 -20 -152 -43 -179 -50 -58 -16 -60 -18 -52 -40 6
-14 20 -16 119 -12 95 5 151 15 376 72 145 37 265 65 267 63 4 -4 -79 -107
-185 -227 -146 -167 -350 -376 -486 -501 -83 -76 -149 -145 -154 -161 -6 -15
-8 -28 -5 -28 8 0 138 81 200 126 98 70 301 266 456 442 l46 52 8 -57 c9 -76
-10 -248 -33 -293 -12 -23 -18 -57 -18 -97 0 -58 2 -65 35 -97 l35 -35 70 24
c104 35 217 56 334 62 l103 6 -7 -34 c-23 -108 -63 -218 -115 -324 -33 -66
-67 -129 -75 -140 -15 -19 -16 -18 -45 17 -35 43 -103 78 -149 78 -32 0 -33
-1 -27 -32 12 -59 51 -121 111 -175 57 -52 62 -54 100 -48 60 9 97 36 122 85
108 217 167 351 193 439 36 125 37 143 5 196 -48 82 -105 98 -240 65 -124 -29
-274 -60 -295 -60 -16 0 -16 7 1 136 10 75 20 139 23 141 5 5 96 19 220 33 88
10 184 51 226 95 l25 27 -34 30 c-30 27 -39 30 -80 26 -31 -3 -68 -19 -114
-47 -70 -43 -197 -91 -240 -91 -19 0 -26 6 -31 31 -3 17 -19 43 -35 58 l-30
28 78 89 c43 49 105 115 137 146 l59 57 135 15 c154 18 284 20 417 6 130 -14
172 10 143 80 -15 36 -22 38 -137 50 -100 11 -206 3 -323 -23 -85 -19 -140
-27 -140 -20 0 3 33 41 74 83 140 146 316 381 316 420 0 36 -27 88 -50 95 -32
10 -85 -2 -105 -25 -15 -17 -16 -24 -5 -50 11 -27 10 -34 -15 -73 -97 -146
-355 -466 -393 -486 -10 -4 -47 -11 -83 -15 l-66 -6 13 82 c8 46 16 104 20
129 3 26 9 51 13 56 3 5 44 19 91 31 90 24 270 106 270 123 0 5 -11 21 -26 35
-30 31 -65 29 -166 -9 -36 -15 -88 -29 -115 -33 l-49 -6 12 83 c7 46 16 138
20 204 l7 121 -32 27 c-34 28 -83 35 -128 17z"/>
<path d="M906 2359 c-34 -27 -33 -39 10 -83 l37 -38 -6 -286 c-7 -358 -28
-521 -107 -829 -43 -166 -78 -245 -215 -483 -79 -138 -91 -172 -63 -178 36 -7
184 185 267 349 58 113 124 296 137 379 13 78 54 63 115 -43 44 -75 88 -135
140 -186 26 -27 33 -29 52 -19 29 15 37 27 37 61 0 83 -132 226 -309 334 -2 1
6 71 17 155 31 219 52 447 59 648 l6 175 -37 33 c-45 39 -99 43 -140 11z"/>
<path d="M1253 1980 c-17 -7 -23 -18 -23 -40 0 -39 -19 -75 -74 -143 -54 -66
-66 -89 -66 -121 0 -56 8 -58 69 -26 108 58 211 176 211 242 0 52 -13 74 -51
87 -37 13 -37 13 -66 1z"/>
<path d="M633 1643 c7 -98 23 -176 47 -223 23 -45 84 -100 110 -100 24 0 50
37 50 70 0 50 -167 330 -196 330 -14 0 -15 -10 -11 -77z"/>
</g>
</svg>
