<?xml version="1.0" standalone="no"?>
<!DOCTYPE svg PUBLIC "-//W3C//DTD SVG 20010904//EN"
 "http://www.w3.org/TR/2001/REC-SVG-20010904/DTD/svg10.dtd">
<svg version="1.0" xmlns="http://www.w3.org/2000/svg"
 width="340.000000pt" height="340.000000pt" viewBox="0 0 340.000000 340.000000"
 preserveAspectRatio="xMidYMid meet">
<metadata>
Created by potrace 1.15, written by Peter Selinger 2001-2017
</metadata>
<g transform="translate(0.000000,340.000000) scale(0.100000,-0.100000)"
fill="#000000" stroke="none">
<path d="M1536 2604 c-3 -9 -6 -40 -6 -70 0 -48 -5 -63 -41 -116 -89 -130
-222 -275 -359 -391 -47 -40 -88 -76 -92 -82 -15 -20 -8 -75 12 -95 30 -30 83
-25 206 21 60 23 156 56 214 74 94 30 106 31 111 17 4 -10 16 -42 28 -72 16
-42 23 -88 27 -192 l7 -136 -39 -11 c-66 -18 -167 -39 -218 -46 l-48 -7 32 41
c58 72 49 187 -16 211 -38 15 -80 12 -95 -6 -10 -12 -10 -22 -1 -48 7 -18 12
-39 12 -48 0 -8 -36 -60 -79 -114 -124 -155 -250 -336 -244 -351 3 -7 19 -13
36 -13 26 0 53 22 183 151 l153 152 40 -17 c51 -20 94 -20 168 -1 31 8 69 15
84 15 26 0 28 -3 33 -52 3 -29 8 -101 11 -159 l5 -105 -82 -13 c-148 -22 -458
-81 -648 -122 -102 -23 -207 -40 -234 -40 -51 2 -96 -19 -96 -43 0 -27 130
-49 253 -44 96 5 126 10 212 41 142 51 497 137 568 137 25 0 25 0 32 -122 3
-68 7 -267 9 -443 2 -237 6 -331 16 -363 15 -49 32 -52 64 -9 21 28 21 39 24
497 l3 468 62 11 c212 37 549 39 750 6 l99 -17 24 23 c34 31 31 63 -8 91 -30
21 -45 23 -198 26 -120 3 -215 -2 -350 -17 -102 -11 -229 -23 -283 -27 l-98
-7 3 159 3 159 57 7 c69 9 161 32 234 59 44 17 54 25 54 43 0 31 -30 56 -69
56 -17 0 -88 -16 -157 -36 -69 -20 -128 -34 -130 -31 -3 2 -5 62 -5 133 0 149
-9 186 -55 234 l-34 36 84 27 c46 15 121 50 166 77 46 28 87 50 91 50 4 0 27
-23 51 -52 111 -133 128 -148 169 -148 46 0 69 21 69 65 0 44 -55 113 -154
193 -71 57 -204 142 -223 142 -4 0 -28 14 -52 30 -43 29 -75 38 -85 22 -2 -4
42 -56 100 -116 57 -59 104 -112 104 -117 0 -5 -22 -9 -49 -9 -28 0 -85 -11
-128 -24 -69 -22 -513 -136 -528 -136 -14 0 42 65 117 138 92 88 188 201 243
285 39 58 39 59 24 100 -9 26 -26 50 -48 64 -40 27 -86 30 -95 7z"/>
</g>
</svg>
