<?xml version="1.0" standalone="no"?>
<!DOCTYPE svg PUBLIC "-//W3C//DTD SVG 20010904//EN"
 "http://www.w3.org/TR/2001/REC-SVG-20010904/DTD/svg10.dtd">
<svg version="1.0" xmlns="http://www.w3.org/2000/svg"
 width="340.000000pt" height="340.000000pt" viewBox="0 0 340.000000 340.000000"
 preserveAspectRatio="xMidYMid meet">
<metadata>
Created by potrace 1.15, written by Peter Selinger 2001-2017
</metadata>
<g transform="translate(0.000000,340.000000) scale(0.100000,-0.100000)"
fill="#000000" stroke="none">
<path d="M1305 2244 c-10 -10 -15 -29 -13 -49 2 -28 -9 -46 -69 -118 -39 -47
-78 -96 -87 -108 l-16 -24 -61 67 c-46 51 -77 76 -132 102 -82 40 -157 56
-157 34 0 -23 34 -66 81 -102 47 -38 99 -96 143 -163 l28 -41 -193 -191 c-153
-151 -191 -193 -181 -203 10 -10 19 -9 45 5 49 27 196 135 286 210 45 37 85
67 90 67 8 0 45 -113 57 -177 14 -70 -183 -350 -397 -568 -128 -130 -169 -186
-169 -230 0 -13 12 -10 59 15 113 60 244 186 466 449 l80 94 7 -44 c3 -24 9
-105 13 -179 11 -194 -11 -405 -61 -604 l-16 -66 -40 36 c-46 42 -95 64 -138
64 -36 0 -38 -13 -14 -83 17 -52 91 -140 135 -162 15 -8 47 -15 69 -15 57 0
93 37 109 109 44 208 65 473 57 731 -9 298 -36 482 -99 665 l-24 71 75 74 c42
41 104 111 139 155 72 91 82 134 40 173 -28 27 -88 29 -112 6z"/>
<path d="M2121 1985 c-128 -33 -237 -70 -359 -122 -60 -25 -134 -48 -177 -55
-86 -13 -90 -20 -56 -105 48 -121 82 -512 62 -701 -21 -197 15 -326 120 -437
70 -75 101 -92 211 -117 82 -20 121 -22 323 -22 197 0 245 3 335 22 101 21
107 23 147 67 52 57 73 118 73 215 0 118 -26 169 -75 150 -15 -6 -25 -26 -38
-81 -10 -40 -29 -99 -43 -130 -24 -52 -31 -59 -83 -83 -111 -50 -174 -61 -341
-61 -176 0 -220 9 -357 77 l-83 40 -29 91 c-60 189 -81 390 -62 599 11 132 1
263 -28 359 l-18 58 69 25 c144 54 416 116 505 116 47 0 120 -31 130 -56 12
-33 -177 -524 -203 -524 -6 0 -17 7 -24 14 -21 26 -96 49 -136 42 -34 -7 -36
-9 -30 -38 15 -77 98 -166 172 -184 26 -7 90 24 120 58 28 30 60 94 69 138 4
19 31 98 60 175 65 170 105 298 105 331 0 30 -31 92 -57 116 -58 53 -154 60
-302 23z"/>
</g>
</svg>
