<?xml version="1.0" standalone="no"?>
<!DOCTYPE svg PUBLIC "-//W3C//DTD SVG 20010904//EN"
 "http://www.w3.org/TR/2001/REC-SVG-20010904/DTD/svg10.dtd">
<svg version="1.0" xmlns="http://www.w3.org/2000/svg"
 width="340.000000pt" height="340.000000pt" viewBox="0 0 340.000000 340.000000"
 preserveAspectRatio="xMidYMid meet">
<metadata>
Created by potrace 1.15, written by Peter Selinger 2001-2017
</metadata>
<g transform="translate(0.000000,340.000000) scale(0.100000,-0.100000)"
fill="#000000" stroke="none">
<path d="M1347 2363 c-10 -10 -8 -72 3 -93 10 -19 -32 -83 -152 -236 l-50 -65
-77 74 c-70 67 -143 113 -208 132 -45 13 -24 -26 60 -109 46 -47 95 -108 112
-139 l30 -57 -86 -87 c-115 -118 -191 -203 -268 -297 l-65 -79 38 6 c43 7 104
54 304 237 l133 121 19 -43 c13 -27 20 -65 20 -105 0 -72 -29 -135 -141 -298
-118 -174 -254 -325 -461 -511 -40 -36 -68 -88 -54 -102 8 -7 139 72 221 134
117 88 351 344 453 497 24 36 26 37 34 17 27 -72 26 -499 -2 -675 -18 -116
-41 -229 -50 -238 -4 -5 -34 21 -66 57 -67 75 -87 85 -115 60 -26 -24 -24 -48
11 -122 40 -85 128 -172 173 -172 77 1 114 45 127 155 5 44 16 139 25 210 20
170 21 508 0 677 -18 157 -36 244 -81 416 l-36 132 67 72 c36 40 104 122 151
183 65 86 84 118 84 144 0 39 -23 87 -49 101 -22 11 -94 14 -104 3z"/>
<path d="M1990 2291 c0 -24 35 -53 114 -91 69 -34 226 -76 250 -67 35 14 5
101 -45 131 -38 22 -163 45 -251 46 -61 0 -68 -2 -68 -19z"/>
<path d="M2350 1879 c-212 -38 -408 -72 -436 -75 l-51 -7 -24 43 c-13 23 -36
48 -51 56 -24 12 -118 20 -118 10 0 -2 16 -53 36 -113 l37 -108 -6 -155 c-14
-379 -126 -768 -289 -1006 -80 -117 -167 -307 -147 -320 39 -24 216 221 329
452 144 297 207 549 246 995 l6 77 112 12 c212 22 621 71 714 85 130 19 163
46 132 106 -16 29 -63 24 -490 -52z"/>
</g>
</svg>
