<?xml version="1.0" standalone="no"?>
<!DOCTYPE svg PUBLIC "-//W3C//DTD SVG 20010904//EN"
 "http://www.w3.org/TR/2001/REC-SVG-20010904/DTD/svg10.dtd">
<svg version="1.0" xmlns="http://www.w3.org/2000/svg"
 width="340.000000pt" height="340.000000pt" viewBox="0 0 340.000000 340.000000"
 preserveAspectRatio="xMidYMid meet">
<metadata>
Created by potrace 1.15, written by Peter Selinger 2001-2017
</metadata>
<g transform="translate(0.000000,340.000000) scale(0.100000,-0.100000)"
fill="#000000" stroke="none">
<path d="M1157 2451 c-14 -17 -30 -54 -37 -83 -12 -49 -81 -168 -98 -168 -4 0
-18 16 -31 36 -53 77 -205 170 -236 144 -23 -19 -19 -28 38 -85 28 -29 78 -89
110 -134 l59 -81 -120 -142 c-66 -79 -154 -183 -196 -231 -75 -87 -85 -109
-54 -115 33 -6 233 164 355 303 l62 70 11 -30 c7 -17 20 -63 31 -103 l18 -73
-65 -122 c-70 -129 -196 -320 -351 -529 -96 -130 -111 -168 -69 -176 40 -8
290 273 441 496 57 85 70 100 77 83 14 -40 20 -337 9 -471 -12 -139 -42 -337
-64 -424 l-13 -49 -44 61 c-57 78 -82 92 -111 66 -17 -16 -20 -26 -15 -61 8
-61 51 -140 104 -196 49 -50 67 -55 110 -33 60 31 92 92 92 176 0 25 7 96 15
156 38 264 35 658 -5 935 -25 168 -58 317 -76 344 -24 34 -16 61 42 130 62 77
98 141 115 209 16 63 6 94 -36 112 -44 18 -39 19 -68 -15z"/>
<path d="M1653 2414 c-14 -23 -15 -31 -4 -67 48 -158 75 -595 52 -847 -26
-287 -88 -554 -161 -693 -60 -114 -127 -327 -104 -327 18 0 75 45 92 73 68
111 181 426 226 627 51 229 61 340 60 675 0 327 -12 487 -39 528 -15 24 -70
57 -94 57 -6 0 -18 -12 -28 -26z"/>
<path d="M2455 2255 c-104 -19 -243 -46 -309 -60 -65 -14 -138 -25 -162 -25
-34 0 -46 -5 -54 -21 -7 -11 -9 -24 -5 -27 4 -4 73 -9 155 -11 171 -4 151 11
170 -131 6 -47 10 -108 8 -135 l-3 -50 -125 -49 c-93 -36 -137 -48 -172 -47
-52 1 -59 -9 -34 -45 25 -35 39 -217 38 -484 0 -141 4 -263 9 -272 19 -35 60
-10 72 42 30 130 39 500 13 592 -8 29 -17 67 -20 84 l-5 31 107 22 c59 11 110
21 113 21 3 0 9 -253 13 -562 10 -750 17 -913 36 -933 57 -56 72 101 75 755 1
267 5 549 10 628 l8 142 41 11 c49 13 172 7 204 -10 22 -12 22 -14 22 -224 0
-181 -19 -448 -35 -494 -3 -8 -24 0 -62 23 -64 38 -95 49 -118 40 -19 -7 -19
-49 -1 -84 19 -37 128 -140 163 -153 35 -13 85 -4 106 19 19 21 50 210 74 442
23 227 22 327 -5 416 -32 102 -51 129 -105 143 -62 15 -151 14 -217 -4 -30 -8
-58 -15 -61 -15 -3 0 -9 60 -12 133 -3 74 -7 140 -9 147 -2 10 22 17 89 27 51
8 141 26 200 41 103 26 108 28 105 52 -3 37 -37 60 -86 59 -22 0 -126 -16
-231 -34z"/>
<path d="M1410 2044 c-10 -31 -9 -47 6 -103 27 -93 27 -487 0 -674 -10 -71
-15 -139 -12 -152 8 -30 33 -39 61 -21 33 22 63 177 87 446 24 273 14 367 -54
480 -42 70 -71 78 -88 24z"/>
</g>
</svg>
