<?xml version="1.0" standalone="no"?>
<!DOCTYPE svg PUBLIC "-//W3C//DTD SVG 20010904//EN"
 "http://www.w3.org/TR/2001/REC-SVG-20010904/DTD/svg10.dtd">
<svg version="1.0" xmlns="http://www.w3.org/2000/svg"
 width="340.000000pt" height="340.000000pt" viewBox="0 0 340.000000 340.000000"
 preserveAspectRatio="xMidYMid meet">
<metadata>
Created by potrace 1.15, written by Peter Selinger 2001-2017
</metadata>
<g transform="translate(0.000000,340.000000) scale(0.100000,-0.100000)"
fill="#000000" stroke="none">
<path d="M1250 2298 c-22 -55 -195 -306 -205 -296 -2 1 -24 31 -49 65 -55 75
-130 137 -211 173 -136 61 -140 39 -14 -79 86 -81 170 -180 192 -228 9 -20 -1
-34 -105 -141 -141 -145 -333 -375 -318 -380 39 -13 114 44 342 259 152 144
140 141 173 41 17 -53 17 -53 -11 -140 -59 -181 -229 -445 -460 -715 -63 -73
-104 -130 -108 -149 -3 -17 -4 -33 -2 -35 9 -9 169 122 241 198 44 46 152 177
239 292 88 114 163 207 166 207 9 0 18 -77 26 -230 11 -208 -21 -464 -82 -670
-29 -94 -39 -112 -49 -81 -11 37 -63 71 -107 71 l-40 0 4 -53 c5 -61 36 -129
83 -180 39 -42 61 -45 121 -18 46 21 84 83 84 137 0 16 11 79 25 139 42 190
58 343 58 565 0 291 -28 487 -103 724 l-39 120 67 70 c121 128 222 273 222
318 0 42 -36 78 -78 78 -36 0 -38 -2 -62 -62z"/>
<path d="M2225 2246 c-212 -36 -588 -113 -622 -127 -13 -5 -23 -16 -23 -25 0
-14 8 -15 53 -11 28 4 105 9 169 13 l118 6 11 -28 c6 -16 13 -70 16 -119 l6
-91 -29 -13 c-16 -7 -57 -17 -92 -21 -68 -9 -92 -22 -92 -50 0 -22 44 -31 144
-32 l66 0 0 -152 0 -152 -117 -26 c-65 -15 -127 -30 -139 -33 -20 -6 -21 -1
-32 107 -17 154 -60 392 -84 455 -23 62 -80 117 -138 133 -23 6 -44 10 -46 8
-2 -2 15 -55 36 -117 22 -61 53 -169 70 -239 17 -70 51 -192 77 -271 l47 -144
115 6 c64 3 133 11 155 18 59 20 66 4 66 -158 0 -158 22 -139 -203 -179 -86
-16 -157 -32 -157 -36 0 -4 10 -16 22 -28 27 -25 74 -26 212 -5 55 8 105 15
113 15 11 0 13 -30 11 -157 l-3 -158 -45 -3 c-95 -6 -289 -34 -370 -53 -47
-12 -118 -25 -159 -30 -40 -4 -85 -16 -100 -26 l-26 -17 45 -14 c25 -7 92 -16
150 -19 89 -4 124 -1 230 21 173 37 351 49 730 50 290 1 331 -1 377 -17 71
-25 102 -20 130 22 l23 34 -22 25 c-13 13 -41 33 -63 45 -37 19 -54 21 -210
19 -93 -1 -259 -7 -368 -13 -109 -6 -201 -9 -204 -5 -7 7 -4 306 3 318 3 4 25
8 48 8 97 0 346 58 346 81 0 6 -13 24 -29 40 -37 37 -52 37 -227 0 -76 -17
-141 -27 -144 -25 -7 8 -5 245 3 275 7 26 11 27 142 44 102 14 139 15 148 6
25 -25 56 -12 78 31 40 78 146 333 204 489 48 128 56 162 53 201 -6 58 -26 90
-79 125 -62 41 -157 41 -394 -1z m235 -97 c58 -12 66 -29 56 -112 -5 -40 -142
-528 -149 -533 -1 -1 -54 -6 -117 -13 -63 -7 -127 -14 -142 -18 l-28 -5 0 156
0 156 33 0 c45 0 116 25 152 54 l29 23 -34 18 c-26 13 -49 16 -103 12 -46 -3
-70 -1 -72 7 -2 6 -6 59 -9 118 l-5 107 32 7 c37 8 226 31 274 33 18 0 55 -4
83 -10z"/>
</g>
</svg>
