<?xml version="1.0" standalone="no"?>
<!DOCTYPE svg PUBLIC "-//W3C//DTD SVG 20010904//EN"
 "http://www.w3.org/TR/2001/REC-SVG-20010904/DTD/svg10.dtd">
<svg version="1.0" xmlns="http://www.w3.org/2000/svg"
 width="340.000000pt" height="340.000000pt" viewBox="0 0 340.000000 340.000000"
 preserveAspectRatio="xMidYMid meet">
<metadata>
Created by potrace 1.15, written by Peter Selinger 2001-2017
</metadata>
<g transform="translate(0.000000,340.000000) scale(0.100000,-0.100000)"
fill="#000000" stroke="none">
<path d="M1783 2499 c-21 -21 -15 -50 22 -103 39 -57 66 -156 49 -183 -5 -9
-75 -36 -156 -61 -116 -37 -145 -49 -136 -59 14 -18 39 -16 149 7 52 11 106
20 122 20 l27 0 0 -95 c0 -113 20 -98 -200 -153 -80 -20 -147 -38 -149 -39 -2
-1 2 -9 9 -18 15 -18 87 -20 140 -5 19 6 72 13 118 17 l82 6 -1 -69 c-2 -125
24 -109 -294 -181 -154 -34 -290 -62 -302 -63 -31 0 -38 -18 -17 -41 14 -16
31 -19 105 -19 105 0 195 16 350 63 266 81 510 112 836 105 212 -5 226 -4 249
15 32 25 29 63 -8 90 -24 18 -46 21 -185 25 -133 3 -174 0 -258 -17 -114 -24
-365 -71 -379 -71 -5 0 -6 30 -3 73 11 114 10 113 80 127 87 18 307 90 307
101 0 17 -40 49 -62 49 -27 0 -160 -23 -236 -41 -65 -16 -72 -9 -72 73 0 101
2 102 132 122 62 10 155 27 206 39 81 18 95 24 103 45 12 32 3 59 -22 65 -34
9 -296 -45 -381 -78 -16 -6 -18 -1 -18 41 0 122 -57 199 -160 219 -23 4 -39 2
-47 -6z"/>
<path d="M1181 2333 c-5 -10 -18 -46 -29 -80 -12 -37 -43 -93 -77 -138 l-56
-76 -52 46 c-52 46 -147 98 -199 109 -22 5 -28 3 -28 -10 0 -33 34 -85 80
-124 26 -22 64 -60 85 -86 l38 -46 -70 -71 c-137 -140 -275 -329 -255 -349 22
-22 69 14 222 167 85 85 158 155 161 155 6 0 31 -75 45 -132 4 -19 0 -36 -13
-55 -23 -33 -43 -87 -43 -118 0 -48 -196 -354 -358 -559 -76 -96 -87 -119 -66
-137 21 -17 45 2 165 132 131 142 201 225 292 348 l72 96 7 -55 c3 -30 6 -148
7 -262 1 -162 -3 -230 -18 -320 -16 -93 -55 -244 -66 -256 -1 -1 -18 13 -38
33 -52 52 -117 48 -117 -8 0 -47 35 -110 90 -161 42 -40 54 -45 77 -40 71 17
116 59 133 123 5 20 17 115 26 211 37 391 -1 941 -82 1182 l-26 78 48 47 c84
84 164 234 164 308 0 51 -96 89 -119 48z"/>
<path d="M1938 1411 c-81 -27 -159 -56 -172 -65 -15 -9 -46 -16 -75 -16 -64 0
-77 -19 -60 -83 18 -68 -8 -468 -52 -767 -23 -163 -23 -165 -4 -184 13 -12 21
-13 40 -4 19 8 30 27 45 74 23 76 46 188 55 269 l6 61 97 -1 c90 0 102 2 165
33 66 33 68 35 51 53 -37 41 -99 43 -199 7 -22 -9 -57 -18 -79 -22 l-38 -7 7
48 c3 26 13 75 22 109 l15 61 49 -5 c61 -6 129 11 180 45 46 30 48 41 15 72
-34 32 -92 30 -154 -5 -72 -40 -82 -32 -82 64 0 44 -3 93 -6 109 -8 41 0 43
186 53 146 9 156 8 171 -10 28 -33 51 -242 56 -517 3 -139 2 -282 -2 -318 l-7
-65 -25 20 c-48 37 -83 17 -83 -48 0 -43 53 -141 104 -191 l45 -44 41 12 c69
21 68 11 54 551 -11 421 -15 483 -32 549 -34 122 -60 178 -90 190 -64 25 -94
21 -244 -28z"/>
</g>
</svg>
