<?xml version="1.0" standalone="no"?>
<!DOCTYPE svg PUBLIC "-//W3C//DTD SVG 20010904//EN"
 "http://www.w3.org/TR/2001/REC-SVG-20010904/DTD/svg10.dtd">
<svg version="1.0" xmlns="http://www.w3.org/2000/svg"
 width="340.000000pt" height="340.000000pt" viewBox="0 0 340.000000 340.000000"
 preserveAspectRatio="xMidYMid meet">
<metadata>
Created by potrace 1.15, written by Peter Selinger 2001-2017
</metadata>
<g transform="translate(0.000000,340.000000) scale(0.100000,-0.100000)"
fill="#000000" stroke="none">
<path d="M2232 2406 c-16 -37 -15 -49 8 -79 11 -14 20 -36 20 -50 0 -42 -41
-272 -51 -281 -9 -10 -385 -85 -426 -86 -19 0 -23 8 -33 68 -20 122 -58 253
-83 291 -24 36 -78 71 -110 71 -35 0 -28 -89 13 -168 21 -41 66 -203 72 -262
l3 -35 -70 -11 c-38 -7 -118 -18 -177 -25 -94 -11 -108 -15 -119 -35 -16 -31
-6 -52 35 -69 31 -13 45 -13 133 5 54 11 119 28 145 37 63 22 73 12 81 -82 6
-67 44 -209 67 -245 7 -11 11 -11 24 -1 28 23 36 80 26 171 -5 47 -10 110 -10
141 l0 56 138 27 c131 26 262 43 262 35 0 -2 -13 -43 -30 -91 -30 -89 -55
-205 -63 -290 l-4 -47 26 20 c47 37 77 95 135 262 37 106 64 168 74 172 31 12
346 17 427 7 70 -9 84 -9 110 7 35 20 45 64 21 96 -14 19 -26 20 -213 20 -148
0 -214 -4 -260 -16 -35 -9 -63 -13 -63 -9 0 4 13 59 30 121 35 135 37 169 9
225 -26 54 -37 63 -90 70 -41 6 -46 4 -57 -20z"/>
<path d="M1193 2280 c-23 -21 -28 -49 -14 -85 6 -16 -7 -43 -62 -123 l-69
-103 -55 60 c-37 41 -74 70 -116 90 -154 74 -168 40 -38 -89 37 -36 79 -89 94
-120 l27 -54 -63 -66 c-107 -110 -265 -315 -252 -328 15 -15 111 55 221 161
69 67 129 123 133 125 11 4 61 -150 61 -186 0 -15 -4 -32 -9 -38 -5 -5 -31
-52 -57 -104 -79 -161 -217 -358 -405 -580 -53 -63 -99 -124 -101 -135 -6 -39
31 -26 104 36 155 132 305 301 435 490 l61 90 7 -66 c4 -37 5 -167 2 -288 -5
-215 -18 -334 -52 -485 l-16 -71 -36 25 c-20 13 -39 24 -42 24 -31 -1 -53 -56
-41 -102 26 -90 86 -135 166 -123 l43 6 20 89 c89 375 86 942 -5 1361 -13 63
-27 125 -30 139 -5 21 8 42 74 119 45 52 101 130 126 174 43 77 44 81 30 108
-30 58 -104 84 -141 49z"/>
<path d="M2335 1389 c-265 -43 -561 -112 -740 -171 -53 -18 -110 -30 -138 -29
-61 1 -66 -11 -39 -92 22 -68 95 -356 137 -538 26 -116 26 -116 71 -147 l44
-32 118 15 c64 9 124 18 133 21 9 2 54 9 100 14 87 10 193 41 225 65 18 14 18
16 -11 41 -28 25 -33 26 -107 21 -58 -5 -78 -3 -78 6 0 15 18 179 25 235 5 36
9 42 31 42 54 0 124 48 124 86 0 15 -46 34 -100 41 l-46 5 -2 87 c-1 47 -6
107 -11 133 l-8 48 51 16 c78 25 247 30 323 10 68 -18 138 -46 166 -68 16 -12
16 -18 -4 -123 -39 -209 -102 -438 -171 -620 -17 -44 -32 -81 -33 -83 -2 -2
-17 4 -35 13 -45 23 -82 16 -99 -19 -38 -81 107 -166 210 -123 34 14 37 18 87
173 61 189 128 431 167 607 26 116 28 134 17 184 -26 124 -105 181 -258 188
-49 2 -116 -1 -149 -6z m-419 -187 c26 -17 36 -58 36 -146 0 -51 -2 -101 -6
-112 -4 -15 -27 -25 -96 -43 -90 -23 -105 -36 -75 -61 10 -9 34 -10 79 -6 93
11 96 6 96 -160 0 -131 -1 -134 -22 -138 -152 -32 -281 -56 -283 -54 -1 2 -7
62 -14 133 -20 212 -52 417 -72 464 -27 63 -25 69 29 77 35 5 244 40 312 53 3
0 10 -3 16 -7z"/>
</g>
</svg>
