<?xml version="1.0" standalone="no"?>
<!DOCTYPE svg PUBLIC "-//W3C//DTD SVG 20010904//EN"
 "http://www.w3.org/TR/2001/REC-SVG-20010904/DTD/svg10.dtd">
<svg version="1.0" xmlns="http://www.w3.org/2000/svg"
 width="340.000000pt" height="340.000000pt" viewBox="0 0 340.000000 340.000000"
 preserveAspectRatio="xMidYMid meet">
<metadata>
Created by potrace 1.15, written by Peter Selinger 2001-2017
</metadata>
<g transform="translate(0.000000,340.000000) scale(0.100000,-0.100000)"
fill="#000000" stroke="none">
<path d="M1875 2569 c-24 -19 -26 -27 -21 -63 29 -214 31 -344 6 -357 -32 -16
-188 -59 -255 -69 -38 -6 -72 -13 -74 -16 -3 -2 3 -12 11 -21 21 -20 109 -20
228 2 47 8 91 15 98 15 10 0 12 -32 10 -142 l-3 -143 -100 -36 c-55 -19 -122
-47 -149 -61 l-50 -25 35 -12 c28 -9 48 -8 109 8 41 10 94 22 118 25 l43 6 -3
-122 -3 -122 -219 -71 c-121 -39 -221 -76 -223 -82 -2 -5 3 -16 11 -22 23 -19
93 -9 264 37 84 23 158 42 163 42 5 0 9 -225 9 -571 0 -374 4 -577 10 -590 6
-10 17 -19 25 -19 28 0 46 49 66 186 19 123 21 190 23 584 l1 444 60 18 c104
32 225 49 391 55 140 5 165 4 197 -12 20 -9 37 -20 37 -24 0 -16 -157 -325
-212 -418 l-61 -102 -41 35 c-49 42 -129 83 -179 91 -32 5 -37 3 -37 -13 1
-35 39 -103 85 -153 98 -105 207 -120 282 -39 30 32 243 455 278 550 l28 78
-27 40 c-34 52 -89 87 -154 100 -43 8 -75 5 -185 -16 -156 -30 -413 -82 -444
-90 -23 -6 -23 -6 -23 114 l0 120 80 11 c86 13 221 50 291 79 l43 19 -26 26
c-33 33 -49 33 -195 1 -65 -14 -135 -28 -157 -31 l-39 -6 5 132 c3 72 9 136
14 141 5 5 112 32 238 61 199 46 230 56 244 77 21 32 5 56 -39 60 -19 1 -126
-17 -239 -41 -113 -24 -208 -43 -211 -41 -3 2 -2 31 3 66 16 119 -28 309 -75
322 -31 8 -31 8 -62 -15z"/>
<path d="M1195 2288 c-172 -61 -425 -138 -454 -138 -24 0 -28 -22 -6 -40 10
-9 46 -11 120 -8 l104 3 16 -66 c22 -99 35 -195 35 -271 0 -60 -3 -69 -29 -95
-19 -19 -69 -44 -147 -73 -66 -24 -121 -45 -123 -47 -2 -1 4 -12 14 -23 23
-25 68 -26 143 -1 31 10 76 21 100 24 l42 5 0 -277 0 -276 -150 -107 c-147
-105 -151 -107 -194 -102 -38 6 -45 3 -64 -21 -29 -36 -28 -61 4 -90 34 -32
100 -41 145 -22 50 22 462 363 569 471 58 59 63 67 49 81 -12 12 -21 14 -40 5
-45 -19 -114 -61 -154 -92 -22 -17 -46 -36 -54 -42 -12 -9 -13 25 -8 224 3
129 9 246 12 260 5 21 16 28 56 37 75 18 169 91 169 132 0 11 -54 31 -85 31
-12 0 -44 -11 -71 -25 -30 -15 -52 -21 -58 -15 -5 5 -10 76 -11 157 -1 111 -6
159 -18 192 -9 24 -17 47 -17 51 0 5 32 18 72 30 88 27 186 73 229 110 l32 27
-21 21 c-12 12 -32 22 -44 21 -13 0 -86 -23 -163 -51z"/>
</g>
</svg>
