<?xml version="1.0" standalone="no"?>
<!DOCTYPE svg PUBLIC "-//W3C//DTD SVG 20010904//EN"
 "http://www.w3.org/TR/2001/REC-SVG-20010904/DTD/svg10.dtd">
<svg version="1.0" xmlns="http://www.w3.org/2000/svg"
 width="340.000000pt" height="340.000000pt" viewBox="0 0 340.000000 340.000000"
 preserveAspectRatio="xMidYMid meet">
<metadata>
Created by potrace 1.15, written by Peter Selinger 2001-2017
</metadata>
<g transform="translate(0.000000,340.000000) scale(0.100000,-0.100000)"
fill="#000000" stroke="none">
<path d="M1458 2409 c-22 -12 -23 -31 -2 -71 21 -41 13 -67 -47 -135 -50 -57
-139 -219 -139 -253 0 -26 34 -34 67 -16 63 32 200 201 260 320 34 68 35 70
19 103 -25 52 -111 80 -158 52z"/>
<path d="M2250 2264 c-80 -24 -226 -71 -325 -104 -105 -35 -197 -60 -222 -60
-24 0 -43 -5 -46 -12 -14 -40 56 -72 145 -67 l56 4 5 -80 c6 -89 -7 -339 -22
-436 -28 -169 -97 -407 -177 -611 -30 -75 -54 -149 -54 -163 0 -16 12 -38 29
-56 41 -41 90 -38 237 10 99 33 296 81 332 81 6 0 17 -33 26 -73 44 -194 152
-322 357 -422 52 -25 132 -57 178 -72 l85 -25 37 40 c52 55 62 101 56 252 -5
118 -15 176 -37 210 -8 13 -11 12 -25 -5 -40 -49 -58 -109 -66 -218 -4 -60
-12 -114 -17 -119 -11 -11 -123 30 -183 68 -162 101 -248 237 -270 424 -21
187 1 368 71 575 48 140 110 351 110 370 0 8 -21 27 -47 42 -64 37 -137 38
-213 2 -30 -15 -86 -41 -125 -58 -38 -18 -90 -45 -116 -61 l-46 -28 0 106 c0
88 -5 120 -26 182 -22 66 -23 76 -9 86 38 27 252 96 346 110 136 21 170 38
174 85 3 42 -17 69 -51 68 -12 0 -87 -20 -167 -45z m108 -601 c-3 -16 -17 -68
-32 -118 -48 -162 -79 -336 -101 -576 l-6 -65 -77 -16 c-42 -9 -144 -30 -225
-48 -82 -18 -151 -30 -154 -26 -3 3 17 83 45 178 44 149 120 442 149 573 8 35
13 41 43 48 380 91 364 88 358 50z"/>
<path d="M1936 1332 c-10 -31 10 -68 66 -129 61 -63 94 -83 140 -83 54 0 64
12 50 57 -24 80 -116 154 -210 169 -34 5 -41 3 -46 -14z"/>
<path d="M805 2239 c-11 -17 5 -61 36 -104 16 -22 43 -60 60 -83 52 -74 169
-108 169 -49 0 30 -41 115 -74 154 -28 33 -136 93 -167 93 -10 0 -21 -5 -24
-11z"/>
<path d="M1415 1859 c-168 -44 -403 -112 -572 -165 -82 -25 -113 -40 -113 -51
0 -14 15 -15 114 -11 l115 5 15 -36 c24 -61 37 -152 34 -230 l-3 -74 -70 -24
c-158 -54 -390 -123 -414 -123 -43 0 -57 -14 -43 -44 16 -36 46 -44 128 -35
69 7 100 17 303 92 l93 35 -6 -51 c-27 -203 -94 -421 -193 -622 -58 -118 -66
-168 -28 -173 37 -5 173 229 234 403 27 77 87 299 118 440 10 44 31 56 127 70
l49 8 -7 -259 c-4 -143 -11 -366 -17 -497 -10 -216 -10 -240 6 -263 12 -18 23
-24 43 -22 26 3 27 6 43 108 30 187 39 343 39 652 l0 304 78 12 c78 13 202 62
202 81 0 6 -9 20 -20 31 -22 22 -63 26 -120 11 -19 -5 -58 -12 -86 -16 l-51
-7 -6 134 c-3 73 -9 144 -12 158 -6 25 -4 26 68 37 83 13 184 54 193 78 12 30
-5 63 -37 74 -41 14 -30 16 -204 -30z m-112 -172 c2 -7 -1 -81 -6 -164 -12
-171 -4 -157 -99 -169 l-58 -6 0 78 c0 70 -16 166 -35 216 -9 22 16 34 105 52
68 14 86 12 93 -7z"/>
</g>
</svg>
