<?xml version="1.0" standalone="no"?>
<!DOCTYPE svg PUBLIC "-//W3C//DTD SVG 20010904//EN"
 "http://www.w3.org/TR/2001/REC-SVG-20010904/DTD/svg10.dtd">
<svg version="1.0" xmlns="http://www.w3.org/2000/svg"
 width="340.000000pt" height="340.000000pt" viewBox="0 0 340.000000 340.000000"
 preserveAspectRatio="xMidYMid meet">
<metadata>
Created by potrace 1.15, written by Peter Selinger 2001-2017
</metadata>
<g transform="translate(0.000000,340.000000) scale(0.100000,-0.100000)"
fill="#000000" stroke="none">
<path d="M1500 2479 c0 -11 9 -32 20 -46 11 -14 20 -37 20 -50 0 -13 -31 -77
-70 -141 -113 -188 -217 -399 -204 -412 23 -23 53 2 154 129 l102 128 106 6
c70 4 148 16 227 36 66 17 138 31 159 31 l40 0 -31 -32 c-35 -36 -53 -76 -53
-114 0 -22 3 -24 28 -18 84 20 245 133 277 195 48 91 -19 130 -186 110 -94
-12 -183 -40 -299 -94 -92 -43 -229 -92 -236 -84 -9 8 30 77 80 140 67 86 72
144 20 206 -24 29 -31 31 -90 31 -58 0 -64 -2 -64 -21z"/>
<path d="M759 2234 c-8 -10 -10 -21 -3 -30 5 -9 80 -52 167 -97 153 -79 159
-81 185 -66 34 19 38 39 17 84 -39 80 -320 164 -366 109z"/>
<path d="M1611 1985 c-25 -33 -25 -37 -6 -75 l15 -30 -157 -207 c-156 -207
-187 -263 -138 -255 41 8 240 182 312 273 25 33 54 59 63 59 9 0 28 -10 41
-21 45 -40 456 -308 505 -330 68 -30 192 -37 268 -15 31 9 59 23 62 31 6 14
-19 70 -36 80 -5 3 -48 13 -96 21 -169 30 -267 68 -472 186 -56 33 -131 73
-166 89 l-62 29 10 50 c15 75 -15 121 -91 136 -25 5 -34 1 -52 -21z"/>
<path d="M1040 1760 c-47 -38 -126 -113 -177 -167 -88 -92 -93 -96 -111 -80
-10 9 -22 14 -26 10 -13 -13 -36 -74 -36 -95 0 -29 28 -76 49 -83 70 -22 260
168 367 369 74 138 59 148 -66 46z"/>
<path d="M1610 1451 c-180 -47 -387 -110 -532 -161 -61 -22 -125 -40 -142 -40
-17 0 -51 -10 -76 -21 -42 -19 -44 -21 -26 -34 34 -25 120 -39 173 -28 26 6
56 14 65 17 14 6 18 -2 24 -50 22 -178 -30 -412 -127 -566 -63 -100 -73 -128
-74 -195 0 -34 3 -65 7 -69 4 -4 39 -7 77 -6 81 0 116 14 286 112 194 112 277
169 273 188 -3 11 -12 16 -28 14 -39 -4 -237 -71 -335 -114 -49 -21 -94 -40
-100 -41 -21 -4 -15 55 10 110 31 64 106 249 124 305 12 36 16 38 99 63 48 15
148 47 223 71 75 24 139 44 143 44 5 0 6 -7 2 -15 -15 -41 -26 -226 -16 -296
12 -85 59 -191 115 -256 87 -102 274 -216 433 -267 87 -27 314 -72 392 -78 45
-3 45 -2 71 46 15 27 29 68 33 92 9 66 -27 248 -59 295 -14 22 -29 39 -34 39
-5 0 -17 -19 -27 -42 -15 -34 -19 -68 -19 -161 0 -144 1 -143 -114 -127 -230
31 -394 113 -544 269 -62 65 -79 90 -94 138 -25 82 -24 275 1 360 16 53 17 67
6 93 -23 56 -76 75 -130 47 -14 -7 -47 -21 -75 -31 -95 -35 -190 -79 -266
-122 -42 -24 -81 -44 -86 -44 -6 0 -13 35 -16 78 -3 42 -12 96 -21 119 l-15
42 97 31 c114 37 306 84 411 100 82 14 121 40 121 84 0 18 -8 27 -31 35 -41
14 -29 16 -199 -28z"/>
<path d="M1294 837 c-8 -4 -14 -14 -14 -21 0 -12 63 -69 104 -93 29 -17 108
-16 132 1 19 14 19 15 0 51 -11 20 -29 42 -40 48 -26 14 -162 25 -182 14z"/>
</g>
</svg>
