<?xml version="1.0" standalone="no"?>
<!DOCTYPE svg PUBLIC "-//W3C//DTD SVG 20010904//EN"
 "http://www.w3.org/TR/2001/REC-SVG-20010904/DTD/svg10.dtd">
<svg version="1.0" xmlns="http://www.w3.org/2000/svg"
 width="340.000000pt" height="340.000000pt" viewBox="0 0 340.000000 340.000000"
 preserveAspectRatio="xMidYMid meet">
<metadata>
Created by potrace 1.15, written by Peter Selinger 2001-2017
</metadata>
<g transform="translate(0.000000,340.000000) scale(0.100000,-0.100000)"
fill="#000000" stroke="none">
<path d="M1098 2429 c-28 -16 -21 -48 22 -99 l40 -48 0 -260 0 -261 -59 -35
c-32 -20 -88 -47 -125 -61 l-66 -25 0 23 c0 13 16 47 35 77 46 74 62 144 45
204 -16 56 -43 86 -79 86 -41 0 -52 -20 -62 -106 -15 -138 -61 -254 -148 -378
-42 -61 -71 -137 -71 -188 0 -31 2 -33 33 -17 44 23 88 75 150 176 58 97 64
103 87 96 53 -17 153 -9 203 15 74 37 81 29 73 -80 -3 -50 -6 -111 -6 -134 l0
-44 -87 -43 c-49 -24 -119 -56 -158 -72 -86 -33 -90 -37 -66 -59 24 -22 55
-19 196 18 55 14 106 26 113 26 10 0 12 -36 10 -162 l-3 -161 -65 -40 c-36
-22 -138 -78 -227 -124 -123 -63 -171 -83 -202 -83 -39 0 -71 -19 -71 -43 1
-38 15 -57 56 -73 59 -23 132 -15 181 19 21 15 115 78 208 141 282 188 387
267 381 283 -3 8 -6 17 -6 19 0 12 -54 1 -90 -17 -67 -35 -70 -30 -70 135 l0
144 54 26 c38 19 59 36 70 60 28 58 20 66 -70 66 l-54 0 0 93 c0 116 8 167 27
167 21 0 106 45 142 76 17 14 38 39 46 55 15 28 15 28 -24 40 -48 14 -100 5
-136 -23 -27 -21 -28 -21 -42 -3 -10 15 -12 37 -6 95 5 41 8 155 7 252 -1 150
-3 181 -18 203 -30 46 -123 70 -168 44z"/>
<path d="M2400 2335 c-180 -32 -457 -90 -605 -126 -134 -32 -155 -34 -220 -17
-78 21 -78 8 2 -159 39 -82 81 -174 92 -206 18 -50 67 -227 86 -311 l6 -29
117 6 c88 4 167 17 317 51 220 50 240 53 249 31 3 -8 16 -15 29 -15 21 0 34
21 105 168 229 475 243 548 113 604 -68 29 -141 30 -291 3z m150 -106 c41 -9
50 -14 50 -32 0 -35 -64 -281 -107 -407 l-38 -115 -60 -6 c-33 -4 -90 -10
-127 -14 l-68 -7 0 75 c0 41 3 95 6 120 6 41 10 47 38 53 39 8 120 51 142 75
15 16 14 19 -15 33 -18 10 -56 16 -96 16 l-66 0 3 92 3 92 39 8 c21 5 82 12
135 17 53 4 99 9 103 10 4 0 30 -4 58 -10z m-482 -72 c31 -37 25 -179 -8 -197
-11 -6 -59 -21 -107 -33 -90 -25 -104 -35 -79 -59 11 -12 36 -14 122 -10 l107
5 -6 -69 c-4 -38 -7 -89 -7 -114 l0 -45 -123 -37 c-68 -21 -128 -38 -134 -38
-11 0 -24 60 -43 210 -16 120 -36 194 -77 278 -19 41 -33 75 -31 77 4 4 303
42 344 44 17 0 36 -5 42 -12z"/>
<path d="M2071 1489 c-23 -22 -23 -29 -6 -100 5 -19 -4 -49 -30 -106 l-37 -80
-101 -22 c-56 -13 -151 -30 -212 -39 -99 -16 -110 -19 -113 -39 -5 -37 50 -46
218 -35 80 4 146 7 148 6 8 -5 -122 -188 -209 -295 -52 -63 -153 -174 -225
-246 -72 -73 -134 -142 -137 -152 -6 -23 16 -46 35 -38 32 13 193 152 293 252
133 133 218 238 331 407 75 112 89 129 122 138 78 22 181 32 271 28 105 -6
115 -12 127 -77 17 -88 -111 -420 -246 -638 l-51 -83 -27 17 c-15 9 -48 34
-74 55 -50 41 -87 48 -112 22 -21 -21 -20 -30 9 -93 35 -74 91 -149 127 -167
43 -22 92 -11 122 29 102 135 318 554 360 701 15 49 29 125 32 170 l7 82 -47
47 c-33 33 -62 51 -98 62 -64 19 -91 19 -154 0 -58 -17 -206 -46 -211 -41 -2
1 4 19 12 39 35 84 12 167 -55 202 -38 19 -42 19 -69 -6z"/>
</g>
</svg>
