<?xml version="1.0" standalone="no"?>
<!DOCTYPE svg PUBLIC "-//W3C//DTD SVG 20010904//EN"
 "http://www.w3.org/TR/2001/REC-SVG-20010904/DTD/svg10.dtd">
<svg version="1.0" xmlns="http://www.w3.org/2000/svg"
 width="340.000000pt" height="340.000000pt" viewBox="0 0 340.000000 340.000000"
 preserveAspectRatio="xMidYMid meet">
<metadata>
Created by potrace 1.15, written by Peter Selinger 2001-2017
</metadata>
<g transform="translate(0.000000,340.000000) scale(0.100000,-0.100000)"
fill="#000000" stroke="none">
<path d="M2210 2434 c-316 -27 -585 -66 -823 -120 -174 -39 -197 -47 -197 -70
0 -26 28 -27 199 0 92 14 186 26 208 26 l40 0 21 -72 c17 -61 21 -107 24 -272
l3 -199 -105 -27 c-196 -52 -190 -50 -190 -69 0 -29 35 -32 158 -11 63 11 123
20 133 20 18 0 19 -10 19 -204 l0 -204 -157 -37 c-87 -20 -168 -40 -180 -45
-33 -14 -30 -48 4 -56 25 -7 242 10 304 22 l26 6 5 -389 c3 -278 8 -394 17
-410 13 -25 43 -30 58 -11 17 21 25 157 32 508 l6 335 70 8 c118 12 275 66
275 93 0 26 -39 54 -73 54 -19 0 -86 -12 -151 -26 -65 -14 -120 -23 -124 -20
-9 9 -8 304 1 357 l8 47 50 6 c61 8 199 51 252 77 33 17 36 22 27 40 -25 46
-78 43 -307 -17 -23 -6 -23 -6 -23 122 0 117 -6 193 -25 340 -7 49 -6 51 21
62 106 40 372 40 509 0 l80 -23 2 -125 c4 -225 24 -701 38 -905 22 -311 33
-497 41 -654 l6 -144 -38 29 c-58 44 -91 64 -136 80 l-40 14 7 -38 c13 -71 59
-145 140 -229 71 -74 84 -83 116 -83 22 0 47 9 64 22 l28 21 -7 106 c-17 272
-38 544 -58 741 -19 185 -22 281 -24 690 -1 334 -4 486 -13 511 -14 43 -53 83
-103 103 -39 17 -144 26 -218 20z"/>
<path d="M976 2273 c-8 -19 8 -55 49 -114 66 -97 76 -151 76 -434 1 -453 -67
-769 -239 -1105 -59 -116 -75 -157 -79 -204 -6 -56 -5 -58 14 -47 95 50 265
386 337 662 58 226 91 556 83 829 -9 283 -29 364 -99 401 -36 19 -136 28 -142
12z"/>
</g>
</svg>
