<?xml version="1.0" standalone="no"?>
<!DOCTYPE svg PUBLIC "-//W3C//DTD SVG 20010904//EN"
 "http://www.w3.org/TR/2001/REC-SVG-20010904/DTD/svg10.dtd">
<svg version="1.0" xmlns="http://www.w3.org/2000/svg"
 width="340.000000pt" height="340.000000pt" viewBox="0 0 340.000000 340.000000"
 preserveAspectRatio="xMidYMid meet">
<metadata>
Created by potrace 1.15, written by Peter Selinger 2001-2017
</metadata>
<g transform="translate(0.000000,340.000000) scale(0.100000,-0.100000)"
fill="#000000" stroke="none">
<path d="M2215 2024 c-402 -29 -694 -74 -1008 -154 -87 -22 -169 -40 -181 -40
-37 0 -86 -21 -86 -36 0 -8 12 -20 26 -26 30 -14 105 -5 384 48 242 46 221 46
244 -1 17 -35 20 -67 24 -266 l4 -225 -133 -28 c-240 -49 -229 -46 -229 -66 0
-48 66 -51 333 -15 l37 5 -1 -162 c-1 -90 -4 -192 -8 -228 l-6 -65 -45 -8
c-98 -19 -298 -70 -358 -93 -45 -17 -64 -20 -66 -11 -2 7 -16 102 -31 212 -34
250 -112 729 -126 773 -22 67 -97 129 -177 147 -49 10 -49 -11 -3 -134 120
-321 191 -626 221 -956 7 -74 18 -140 26 -153 18 -27 57 -29 75 -2 11 15 52
26 194 54 99 19 218 40 265 46 47 6 110 15 140 20 30 5 116 14 190 20 74 5
151 13 171 16 l36 5 6 -48 c8 -71 44 -159 81 -198 53 -55 128 -45 154 22 10
25 75 327 197 918 46 221 64 388 51 459 -17 90 -139 166 -275 171 -42 1 -98 1
-126 -1z m105 -126 c25 -6 73 -24 108 -39 l63 -28 -5 -58 c-4 -32 -11 -110
-16 -173 -23 -250 -67 -490 -151 -809 -41 -159 -43 -164 -58 -140 -32 48 -118
130 -147 138 -16 4 -105 4 -197 -1 -93 -5 -170 -8 -172 -6 -1 2 0 105 3 231
l5 227 41 0 c85 1 261 51 306 88 17 15 18 20 7 42 -21 42 -56 52 -113 35 -53
-17 -197 -45 -229 -45 -19 0 -20 7 -20 187 0 104 -4 218 -8 255 l-8 67 38 11
c21 6 105 15 187 21 82 5 152 12 155 15 8 8 155 -4 211 -18z"/>
</g>
</svg>
