<?xml version="1.0" standalone="no"?>
<!DOCTYPE svg PUBLIC "-//W3C//DTD SVG 20010904//EN"
 "http://www.w3.org/TR/2001/REC-SVG-20010904/DTD/svg10.dtd">
<svg version="1.0" xmlns="http://www.w3.org/2000/svg"
 width="340.000000pt" height="340.000000pt" viewBox="0 0 340.000000 340.000000"
 preserveAspectRatio="xMidYMid meet">
<metadata>
Created by potrace 1.15, written by Peter Selinger 2001-2017
</metadata>
<g transform="translate(0.000000,340.000000) scale(0.100000,-0.100000)"
fill="#000000" stroke="none">
<path d="M963 2570 c-13 -14 -8 -33 18 -70 36 -53 41 -105 34 -330 l-7 -216
-112 -44 c-120 -48 -141 -59 -129 -71 7 -6 112 6 216 26 l37 7 0 -111 0 -111
-47 -24 c-27 -13 -57 -31 -67 -39 -19 -14 -19 -15 7 -32 21 -13 38 -16 69 -11
l41 7 -6 -113 c-4 -62 -7 -136 -7 -164 l0 -52 -57 -20 c-98 -35 -100 -35 -106
-10 -3 13 -20 117 -37 233 -34 236 -59 307 -139 398 -63 70 -89 61 -66 -23 57
-205 108 -420 129 -550 15 -85 33 -164 41 -177 20 -30 50 -29 71 2 23 35 45
45 108 51 44 4 55 2 60 -12 8 -21 -10 -469 -27 -682 -14 -167 -8 -204 35 -218
22 -7 64 12 72 32 5 14 26 547 29 763 2 134 2 134 27 141 14 4 73 22 132 41
l108 33 30 100 c17 56 63 202 101 326 75 241 78 264 39 328 -33 54 -63 66
-176 70 -84 4 -116 0 -173 -17 -38 -11 -71 -21 -73 -21 -1 0 1 59 6 131 5 78
5 181 -1 255 -9 115 -12 127 -36 151 -19 20 -38 27 -79 30 -33 3 -57 0 -65 -7z
m455 -646 c16 -11 22 -25 22 -50 0 -41 -44 -230 -101 -435 l-41 -147 -56 -6
c-32 -4 -72 -10 -90 -13 l-33 -5 3 148 3 148 34 7 c18 4 43 12 56 19 27 14 60
69 49 80 -16 14 -76 30 -112 30 l-35 0 7 61 c3 34 6 79 6 99 0 27 5 40 18 45
13 5 145 24 237 34 6 1 21 -6 33 -15z"/>
<path d="M2135 2334 c-38 -13 -123 -49 -188 -80 -108 -52 -124 -57 -205 -61
-115 -7 -156 -40 -96 -79 49 -32 299 -1 442 55 29 12 52 16 52 10 0 -35 -221
-370 -425 -644 -64 -87 -119 -164 -122 -171 -3 -7 1 -30 7 -50 16 -47 62 -68
121 -55 74 17 66 -21 -31 -148 -107 -141 -256 -382 -243 -394 22 -22 56 -1
149 93 114 117 210 242 274 359 62 113 81 141 111 163 25 19 147 50 162 41 18
-11 2 -59 -72 -208 -112 -227 -250 -430 -402 -590 -31 -33 -61 -70 -68 -82
-12 -23 -15 -73 -5 -73 14 0 134 103 205 177 170 174 316 379 425 596 48 95
64 137 59 155 -13 51 32 63 165 42 107 -17 160 -38 160 -63 0 -84 -107 -370
-225 -602 -77 -151 -202 -365 -214 -365 -15 0 -92 73 -107 101 -16 32 -68 69
-96 69 -28 0 -24 -83 7 -145 30 -61 87 -142 121 -172 38 -35 92 -31 137 9 85
78 473 872 510 1045 15 70 -3 126 -54 175 -43 41 -79 54 -200 69 -107 13 -192
3 -483 -61 -126 -27 -231 -48 -234 -45 -20 20 226 377 459 665 111 137 125
171 95 229 -19 36 -58 61 -93 60 -15 0 -59 -11 -98 -25z"/>
</g>
</svg>
