<?xml version="1.0" standalone="no"?>
<!DOCTYPE svg PUBLIC "-//W3C//DTD SVG 20010904//EN"
 "http://www.w3.org/TR/2001/REC-SVG-20010904/DTD/svg10.dtd">
<svg version="1.0" xmlns="http://www.w3.org/2000/svg"
 width="340.000000pt" height="340.000000pt" viewBox="0 0 340.000000 340.000000"
 preserveAspectRatio="xMidYMid meet">
<metadata>
Created by potrace 1.15, written by Peter Selinger 2001-2017
</metadata>
<g transform="translate(0.000000,340.000000) scale(0.100000,-0.100000)"
fill="#000000" stroke="none">
<path d="M1874 2526 c-4 -16 4 -47 23 -88 50 -111 35 -265 -29 -299 -18 -9
-273 -58 -310 -59 -16 0 -7 -40 11 -49 12 -7 73 -8 165 -4 120 5 146 4 146 -8
0 -25 -53 -204 -64 -216 -9 -11 -143 -48 -238 -68 -32 -6 -35 -17 -12 -39 18
-19 67 -20 146 -4 31 7 60 9 63 6 3 -3 -16 -57 -44 -119 -34 -79 -56 -118 -72
-126 -13 -7 -75 -24 -136 -39 -95 -22 -113 -30 -113 -46 0 -29 46 -42 103 -29
53 12 117 15 117 5 0 -11 -112 -198 -158 -264 -86 -123 -196 -255 -318 -380
-110 -113 -154 -170 -154 -200 0 -45 158 68 284 203 195 209 325 389 424 589
l53 108 97 31 c239 76 432 108 702 116 178 5 197 7 218 26 30 28 28 62 -5 84
-68 45 -476 -12 -839 -117 -59 -17 -109 -28 -113 -25 -3 3 3 27 12 53 10 26
22 62 27 80 14 55 37 79 94 101 66 25 226 65 316 81 112 19 120 21 150 47 24
20 30 33 30 65 0 38 -1 39 -27 34 -16 -2 -50 -8 -78 -11 -27 -4 -125 -32 -218
-62 -92 -31 -170 -53 -173 -50 -6 5 26 129 48 188 5 15 19 31 32 37 12 5 107
28 211 51 105 23 200 46 212 51 26 11 55 63 47 84 -3 9 -23 21 -44 27 -33 10
-49 8 -131 -19 -117 -39 -272 -82 -277 -77 -2 1 1 51 7 110 13 144 -7 198 -86
231 -52 23 -92 18 -99 -10z"/>
<path d="M1070 2024 c-108 -33 -248 -83 -333 -119 -39 -16 -49 -41 -20 -52 9
-3 44 1 79 10 34 9 79 17 99 17 l37 0 -5 -42 c-4 -24 -9 -78 -13 -120 l-6 -77
-70 -25 c-93 -35 -98 -34 -98 13 0 97 -82 257 -140 272 -32 8 -60 -6 -60 -31
0 -11 9 -42 20 -71 39 -97 60 -194 70 -314 6 -66 17 -154 26 -195 18 -83 52
-180 62 -180 4 0 25 9 46 21 21 11 120 49 219 83 100 35 190 67 200 71 15 6
17 1 17 -38 0 -37 5 -49 26 -66 15 -12 30 -21 34 -21 10 0 53 112 80 205 31
109 70 394 70 514 0 99 -2 109 -22 128 -71 64 -150 68 -318 17z m197 -105 c13
-12 14 -30 9 -129 -7 -108 -30 -327 -42 -396 l-6 -31 -86 -6 c-48 -3 -98 -9
-111 -13 l-23 -7 7 89 c9 123 14 144 33 144 38 1 99 38 115 71 l16 34 -31 13
c-18 8 -51 14 -75 15 l-43 2 0 106 0 106 73 10 c85 13 142 10 164 -8z m-368
-395 c5 -5 7 -59 4 -120 l-6 -112 -58 -28 c-32 -15 -61 -26 -63 -23 -10 10
-26 139 -26 214 l0 80 70 -1 c39 0 75 -5 79 -10z"/>
<path d="M2228 1459 c-24 -14 -23 -29 6 -68 32 -43 46 -110 39 -192 l-5 -66
-77 -12 c-96 -16 -353 -82 -450 -115 -41 -14 -94 -26 -117 -26 -33 0 -46 -5
-58 -22 -9 -12 -14 -24 -12 -26 3 -2 34 -7 70 -12 85 -10 178 2 305 39 99 30
293 71 332 71 18 0 19 -8 19 -177 0 -182 -16 -512 -25 -521 -9 -9 -80 17 -115
43 -34 25 -74 32 -97 17 -21 -13 6 -79 55 -133 59 -66 122 -102 179 -103 39
-1 49 4 77 35 l33 35 6 295 c4 161 7 344 7 406 0 76 4 114 12 119 6 4 84 11
172 15 224 11 245 15 257 46 14 37 3 59 -37 78 -33 16 -47 16 -204 1 -93 -9
-175 -16 -183 -16 -12 0 -13 7 -5 43 20 88 -10 181 -75 228 -41 30 -79 36
-109 18z"/>
<path d="M1678 809 c-30 -17 -20 -36 38 -78 70 -50 151 -81 218 -84 l51 -2 3
34 c5 45 -13 76 -53 95 -62 30 -228 52 -257 35z"/>
</g>
</svg>
