<?xml version="1.0" standalone="no"?>
<!DOCTYPE svg PUBLIC "-//W3C//DTD SVG 20010904//EN"
 "http://www.w3.org/TR/2001/REC-SVG-20010904/DTD/svg10.dtd">
<svg version="1.0" xmlns="http://www.w3.org/2000/svg"
 width="340.000000pt" height="340.000000pt" viewBox="0 0 340.000000 340.000000"
 preserveAspectRatio="xMidYMid meet">
<metadata>
Created by potrace 1.15, written by Peter Selinger 2001-2017
</metadata>
<g transform="translate(0.000000,340.000000) scale(0.100000,-0.100000)"
fill="#000000" stroke="none">
<path d="M1892 2424 c-30 -20 -28 -57 4 -89 24 -24 26 -31 20 -77 -9 -62 -36
-119 -72 -147 -39 -31 -124 -59 -235 -79 -98 -17 -99 -18 -84 -39 21 -31 61
-36 135 -19 36 9 77 16 92 16 27 0 27 0 -27 -75 -29 -41 -67 -99 -84 -128 -33
-59 -74 -157 -67 -164 10 -10 84 39 127 84 25 26 92 109 148 183 56 74 112
138 124 142 12 4 62 14 111 23 84 15 226 56 255 74 20 13 4 47 -29 61 -25 10
-43 9 -113 -8 -169 -42 -182 -40 -153 16 38 77 26 151 -34 206 -44 40 -81 46
-118 20z"/>
<path d="M995 2019 c-49 -16 -145 -57 -213 -90 -108 -52 -122 -62 -111 -75 10
-13 26 -15 75 -9 75 8 76 7 67 -118 l-6 -93 -58 -37 c-33 -21 -59 -42 -59 -47
0 -19 43 -32 86 -25 l44 6 0 -68 c0 -37 6 -93 14 -124 l13 -56 -72 -36 -72
-35 -7 105 c-11 167 -48 315 -109 428 -45 83 -116 120 -129 67 -3 -10 13 -64
35 -122 47 -128 111 -372 128 -497 10 -74 17 -94 31 -99 23 -7 37 2 48 30 7
18 38 33 162 75 84 29 165 61 180 72 15 10 30 19 33 19 3 0 5 -25 5 -56 0 -68
13 -94 46 -94 29 0 37 17 66 140 11 47 22 90 23 96 2 8 19 8 57 1 46 -8 81 -4
283 36 235 47 540 97 589 97 22 0 30 -7 46 -42 39 -88 51 -698 20 -1041 -4
-54 -10 -100 -12 -102 -2 -2 -27 8 -56 22 -56 27 -118 26 -129 -3 -12 -31 61
-115 131 -151 81 -41 150 -27 183 38 16 30 19 1223 4 1263 -17 44 -2 47 280
49 l263 2 9 34 c7 28 5 39 -11 60 -32 43 -77 46 -294 22 -472 -54 -861 -120
-1148 -196 -113 -30 -208 -51 -213 -46 -5 5 5 117 22 250 39 305 39 301 -3
345 -31 34 -37 36 -92 35 -37 0 -92 -11 -149 -30z m127 -224 c-3 -127 -19
-369 -27 -421 -5 -29 -9 -32 -57 -38 -28 -4 -64 -10 -81 -13 l-30 -6 7 137 7
136 33 33 c19 17 37 42 41 55 6 19 3 22 -24 22 -16 0 -32 4 -35 8 -3 5 -8 50
-12 100 l-7 92 49 1 c27 1 63 5 79 9 60 16 60 16 57 -115z"/>
<path d="M2010 1873 c2 -27 38 -61 123 -117 75 -50 113 -68 166 -80 87 -20 97
-20 105 0 12 31 6 81 -11 97 -59 52 -384 137 -383 100z"/>
<path d="M1703 1238 l-193 -60 -31 26 c-34 29 -80 34 -99 11 -11 -13 -5 -32
32 -113 52 -112 108 -259 133 -349 15 -54 21 -63 41 -63 27 0 44 26 44 68 0
29 0 29 53 24 67 -5 156 11 221 42 82 38 88 45 74 84 -10 26 -10 38 1 65 40
94 61 170 63 226 2 56 0 66 -21 82 -39 32 -107 23 -318 -43z m158 -203 l-39
-110 -98 -27 c-53 -15 -98 -27 -99 -25 -9 15 -73 233 -69 238 7 13 102 29 172
30 37 0 87 4 112 8 25 4 48 5 52 1 4 -3 -10 -55 -31 -115z"/>
</g>
</svg>
