<?xml version="1.0" standalone="no"?>
<!DOCTYPE svg PUBLIC "-//W3C//DTD SVG 20010904//EN"
 "http://www.w3.org/TR/2001/REC-SVG-20010904/DTD/svg10.dtd">
<svg version="1.0" xmlns="http://www.w3.org/2000/svg"
 width="340.000000pt" height="340.000000pt" viewBox="0 0 340.000000 340.000000"
 preserveAspectRatio="xMidYMid meet">
<metadata>
Created by potrace 1.15, written by Peter Selinger 2001-2017
</metadata>
<g transform="translate(0.000000,340.000000) scale(0.100000,-0.100000)"
fill="#000000" stroke="none">
<path d="M1610 2084 c-272 -68 -526 -129 -565 -134 -53 -7 -74 -14 -88 -31
-18 -22 -18 -23 5 -35 13 -7 53 -18 90 -24 85 -15 168 -3 272 39 43 17 88 31
101 31 16 0 42 -21 83 -65 l60 -65 11 -93 c34 -277 47 -534 36 -739 l-7 -146
-136 60 c-76 33 -177 76 -227 95 -49 19 -93 37 -97 39 -4 3 19 38 52 80 61 76
136 215 145 269 12 64 -52 118 -127 107 -25 -4 -28 -8 -28 -44 0 -22 4 -48 10
-58 7 -14 -2 -36 -46 -106 -139 -221 -308 -411 -541 -607 -83 -70 -114 -109
-99 -124 8 -8 142 62 200 105 28 20 126 105 218 189 l167 153 203 -106 c269
-140 433 -229 728 -394 144 -81 274 -147 315 -160 99 -31 247 -37 355 -16 87
17 171 52 178 73 6 22 -46 44 -125 52 -43 5 -199 34 -347 65 l-268 57 -209
105 -209 104 0 243 c0 133 3 251 6 263 5 18 24 25 137 48 247 51 386 87 412
107 27 22 33 63 12 90 -10 14 -22 15 -67 8 -71 -11 -178 -44 -249 -76 -31 -14
-98 -42 -148 -63 l-93 -39 0 139 c0 151 -15 249 -56 373 -21 63 -31 80 -56 93
-16 8 -28 20 -25 27 5 16 122 55 232 78 109 23 332 38 322 21 -4 -5 -38 -31
-76 -56 -53 -35 -71 -52 -76 -75 -9 -44 -2 -49 56 -40 163 26 339 126 339 193
0 32 -18 50 -80 83 -44 22 -70 28 -130 30 -66 2 -131 -12 -570 -123z"/>
</g>
</svg>
