<?xml version="1.0" standalone="no"?>
<!DOCTYPE svg PUBLIC "-//W3C//DTD SVG 20010904//EN"
 "http://www.w3.org/TR/2001/REC-SVG-20010904/DTD/svg10.dtd">
<svg version="1.0" xmlns="http://www.w3.org/2000/svg"
 width="340.000000pt" height="340.000000pt" viewBox="0 0 340.000000 340.000000"
 preserveAspectRatio="xMidYMid meet">
<metadata>
Created by potrace 1.15, written by Peter Selinger 2001-2017
</metadata>
<g transform="translate(0.000000,340.000000) scale(0.100000,-0.100000)"
fill="#000000" stroke="none">
<path d="M1714 2419 c-14 -15 -16 -24 -8 -37 15 -25 137 -88 224 -116 85 -28
97 -24 107 37 5 31 1 40 -24 66 -62 61 -258 95 -299 50z"/>
<path d="M2475 2225 c-132 -26 -960 -164 -1099 -184 -77 -11 -144 -25 -149
-30 -9 -9 40 -81 55 -81 12 0 58 -74 68 -110 15 -51 -24 -286 -76 -468 -87
-301 -252 -620 -438 -847 -66 -80 -91 -124 -99 -177 -6 -42 0 -42 63 -2 49 30
95 82 177 199 256 361 408 704 488 1105 32 156 30 237 -4 296 -12 20 -20 38
-19 40 8 8 817 117 926 124 130 10 176 19 259 51 50 20 51 22 40 46 -13 30
-56 53 -94 52 -15 -1 -59 -7 -98 -14z"/>
<path d="M2469 1876 c-2 -2 -170 -50 -372 -105 -343 -94 -371 -101 -407 -90
-33 10 -43 9 -65 -5 -38 -25 -32 -52 18 -78 34 -18 58 -23 127 -23 77 0 93 3
170 38 47 22 137 54 200 72 121 35 316 72 325 63 3 -3 -64 -94 -150 -201
l-156 -196 -35 21 c-29 17 -40 19 -60 10 -13 -7 -24 -16 -24 -21 0 -5 16 -33
36 -62 55 -81 91 -159 120 -256 24 -78 27 -105 27 -233 0 -155 -16 -255 -67
-424 l-26 -85 -47 21 c-51 23 -160 34 -182 20 -31 -22 51 -122 134 -163 61
-30 66 -31 114 -19 73 17 113 65 135 161 42 184 56 301 56 464 0 245 -36 427
-98 498 -14 16 -8 24 79 114 52 54 146 146 209 206 63 59 121 119 128 133 7
14 12 42 10 62 -3 31 -9 40 -43 59 -28 16 -57 23 -96 23 -31 0 -58 -2 -60 -4z"/>
<path d="M888 1653 c-12 -3 -18 -14 -18 -33 0 -22 13 -39 59 -79 78 -68 110
-79 153 -54 38 22 39 47 6 102 -34 54 -126 84 -200 64z"/>
<path d="M1101 1270 c-51 -27 -143 -80 -203 -117 -94 -57 -113 -65 -129 -55
-32 20 -57 14 -74 -18 -19 -37 -19 -53 1 -92 l16 -30 76 4 c108 7 125 17 320
185 70 60 132 151 111 164 -19 12 -14 14 -118 -41z"/>
</g>
</svg>
