<?xml version="1.0" standalone="no"?>
<!DOCTYPE svg PUBLIC "-//W3C//DTD SVG 20010904//EN"
 "http://www.w3.org/TR/2001/REC-SVG-20010904/DTD/svg10.dtd">
<svg version="1.0" xmlns="http://www.w3.org/2000/svg"
 width="340.000000pt" height="340.000000pt" viewBox="0 0 340.000000 340.000000"
 preserveAspectRatio="xMidYMid meet">
<metadata>
Created by potrace 1.15, written by Peter Selinger 2001-2017
</metadata>
<g transform="translate(0.000000,340.000000) scale(0.100000,-0.100000)"
fill="#000000" stroke="none">
<path d="M1550 2374 c0 -9 19 -34 43 -56 23 -22 65 -62 93 -89 52 -50 137 -95
189 -101 24 -2 32 2 43 25 18 38 9 69 -35 118 -64 71 -112 90 -290 114 -35 4
-43 2 -43 -11z"/>
<path d="M2295 2124 c-32 -12 -1146 -213 -1187 -214 -4 0 -14 -11 -23 -24 -14
-21 -13 -28 15 -89 39 -82 47 -164 31 -323 -22 -213 -15 -199 -139 -276 -59
-36 -165 -107 -236 -157 l-129 -90 -25 20 c-30 23 -68 25 -76 3 -12 -30 -6
-100 10 -123 16 -23 70 -51 98 -51 14 0 240 167 336 250 30 26 66 52 78 59 23
12 24 12 17 -21 -36 -175 -186 -514 -315 -712 -51 -78 -72 -121 -77 -153 l-6
-45 25 16 c26 17 96 95 154 171 159 208 338 677 398 1045 46 278 41 361 -22
433 -8 9 -13 19 -11 20 2 2 77 11 166 21 89 9 230 28 315 42 283 45 343 53
463 64 66 5 159 10 207 10 103 0 114 4 134 41 16 33 7 61 -26 79 -18 9 -153
13 -175 4z"/>
<path d="M2240 1653 c-14 -3 -96 -20 -183 -39 -87 -19 -171 -34 -188 -34 -16
0 -51 -11 -77 -25 -26 -13 -99 -38 -162 -54 l-114 -29 -33 29 c-38 33 -72 44
-103 34 -15 -5 -19 -12 -14 -23 53 -127 58 -155 62 -320 3 -117 -1 -196 -13
-279 -20 -136 -15 -215 20 -316 28 -82 69 -147 128 -206 39 -37 55 -46 127
-62 307 -72 674 -72 972 0 95 22 138 54 174 126 24 51 26 63 21 134 -3 43 -10
88 -16 99 -15 28 -49 38 -68 19 -16 -16 -53 -154 -53 -199 0 -24 -7 -29 -62
-47 -98 -32 -241 -59 -380 -72 -213 -19 -517 18 -605 74 -43 27 -95 83 -117
125 -30 58 -47 245 -30 331 6 31 7 31 73 31 37 0 94 7 126 16 33 8 158 35 277
60 246 50 287 62 302 87 9 15 7 22 -11 36 l-22 18 66 109 c36 60 83 141 105
181 38 69 39 73 24 101 -39 76 -126 113 -226 95z m64 -136 c15 -11 13 -19 -32
-94 -27 -44 -64 -122 -83 -171 l-34 -91 -130 -24 c-71 -14 -131 -24 -133 -22
-2 2 6 54 17 116 11 63 24 146 27 186 l7 72 51 11 c48 10 193 26 262 29 16 0
38 -5 48 -12z m-479 -90 c4 -13 -1 -51 -9 -84 -18 -67 -20 -148 -7 -205 l8
-36 -61 -22 c-33 -12 -94 -38 -135 -56 -41 -19 -74 -34 -75 -34 -1 0 -1 96 -1
214 l0 214 90 15 c50 8 111 15 137 16 42 1 48 -2 53 -22z"/>
<path d="M695 1563 c-29 -7 -45 -23 -45 -43 0 -30 196 -120 262 -120 15 0 18
8 18 46 0 37 -5 51 -28 74 -42 42 -134 61 -207 43z"/>
</g>
</svg>
