<?xml version="1.0" standalone="no"?>
<!DOCTYPE svg PUBLIC "-//W3C//DTD SVG 20010904//EN"
 "http://www.w3.org/TR/2001/REC-SVG-20010904/DTD/svg10.dtd">
<svg version="1.0" xmlns="http://www.w3.org/2000/svg"
 width="340.000000pt" height="340.000000pt" viewBox="0 0 340.000000 340.000000"
 preserveAspectRatio="xMidYMid meet">
<metadata>
Created by potrace 1.15, written by Peter Selinger 2001-2017
</metadata>
<g transform="translate(0.000000,340.000000) scale(0.100000,-0.100000)"
fill="#000000" stroke="none">
<path d="M1480 2492 c-37 -12 -30 -34 19 -61 62 -34 288 -131 305 -131 8 0 28
11 43 24 27 24 27 26 13 53 -30 55 -165 112 -279 118 -42 2 -87 1 -101 -3z"/>
<path d="M2265 2254 c-181 -31 -500 -75 -645 -89 -131 -13 -232 -28 -416 -61
-22 -5 -40 1 -68 20 -42 28 -102 44 -117 29 -6 -6 1 -41 17 -94 36 -115 44
-316 19 -474 -60 -387 -204 -757 -424 -1093 -33 -51 -69 -109 -80 -130 -23
-45 -37 -112 -24 -112 16 0 177 172 227 242 98 139 252 497 331 768 72 249
129 598 115 700 -4 30 -3 57 1 61 5 3 66 11 136 18 71 7 256 28 413 48 186 23
348 37 465 40 99 3 188 9 197 14 10 5 25 23 33 40 15 29 15 31 -14 59 -33 34
-45 35 -166 14z"/>
<path d="M1589 1964 c-10 -12 -10 -22 -1 -48 23 -63 16 -90 -61 -214 -92 -147
-217 -368 -217 -382 0 -5 11 -10 25 -10 26 0 54 26 188 177 l82 93 93 0 c65 0
131 9 225 29 72 16 193 39 267 51 183 29 179 28 206 55 26 26 31 62 12 88 -12
15 -23 16 -103 7 -49 -6 -112 -17 -140 -24 -57 -15 -474 -142 -500 -152 -13
-5 -3 20 34 91 56 106 65 161 35 204 -31 44 -119 66 -145 35z"/>
<path d="M650 1755 c0 -28 27 -70 72 -111 74 -68 133 -79 178 -34 26 26 25 29
-10 72 -42 51 -121 88 -187 88 -41 0 -53 -3 -53 -15z"/>
<path d="M1808 1548 c-9 -16 -13 -78 -14 -198 -1 -96 -6 -188 -11 -205 l-9
-30 -335 -67 c-184 -37 -337 -67 -341 -67 -5 -1 -8 -12 -8 -25 0 -47 106 -95
179 -81 19 4 104 29 188 55 162 52 256 74 290 68 21 -3 21 -3 3 -68 -58 -216
-182 -384 -381 -516 -111 -74 -127 -89 -135 -132 -5 -26 -3 -32 11 -32 31 0
150 53 216 96 76 50 218 194 273 277 52 80 111 207 135 296 11 41 22 75 24 77
2 2 38 -47 80 -109 166 -244 428 -557 517 -620 82 -57 172 -81 281 -75 98 6
129 22 129 64 0 29 -7 33 -85 49 -34 8 -98 28 -140 46 -131 54 -212 117 -362
277 -140 151 -363 410 -363 422 0 7 148 42 255 60 105 17 357 32 445 25 85 -7
85 -7 113 23 34 36 33 71 -3 89 -56 29 -314 5 -620 -57 -108 -22 -202 -40
-210 -40 -13 0 -15 23 -15 138 0 188 -25 282 -76 282 -10 0 -24 -10 -31 -22z"/>
<path d="M879 1382 c-88 -59 -225 -169 -268 -216 -18 -19 -34 -26 -62 -26 -53
0 -73 -23 -65 -73 9 -52 11 -55 51 -66 34 -9 87 -2 119 16 60 33 346 376 346
414 0 21 -41 4 -121 -49z"/>
</g>
</svg>
