<?xml version="1.0" standalone="no"?>
<!DOCTYPE svg PUBLIC "-//W3C//DTD SVG 20010904//EN"
 "http://www.w3.org/TR/2001/REC-SVG-20010904/DTD/svg10.dtd">
<svg version="1.0" xmlns="http://www.w3.org/2000/svg"
 width="340.000000pt" height="340.000000pt" viewBox="0 0 340.000000 340.000000"
 preserveAspectRatio="xMidYMid meet">
<metadata>
Created by potrace 1.15, written by Peter Selinger 2001-2017
</metadata>
<g transform="translate(0.000000,340.000000) scale(0.100000,-0.100000)"
fill="#000000" stroke="none">
<path d="M1558 2484 c-19 -19 -3 -43 55 -81 34 -23 93 -67 131 -97 38 -31 77
-56 86 -56 19 0 43 25 54 54 13 38 -68 130 -142 162 -41 17 -173 31 -184 18z"/>
<path d="M2260 2253 c-14 -2 -126 -20 -250 -39 -124 -19 -337 -56 -475 -81
-137 -25 -284 -49 -325 -53 -95 -10 -164 -36 -155 -59 4 -9 18 -59 32 -111 23
-86 25 -108 21 -230 -3 -74 -13 -167 -22 -207 l-17 -71 -87 -42 c-99 -47 -167
-95 -269 -192 -54 -51 -83 -71 -119 -80 -39 -11 -50 -19 -61 -46 -12 -30 -12
-37 1 -58 9 -13 33 -28 57 -34 l40 -11 72 64 c40 36 132 124 206 197 l134 133
-7 -57 c-18 -157 -171 -517 -350 -824 -69 -120 -78 -142 -59 -149 15 -5 59 42
148 159 183 241 279 453 374 828 62 242 94 455 88 570 -3 52 -8 104 -12 116
-6 20 -1 21 107 33 62 7 159 20 216 30 l102 18 0 -46 c-1 -63 -26 -114 -98
-196 -69 -78 -116 -160 -130 -223 l-10 -42 62 32 c33 18 94 66 135 106 l74 72
61 1 c34 0 86 4 116 8 30 5 56 7 58 6 2 -2 -17 -29 -42 -60 -76 -93 -151 -260
-124 -276 21 -13 -2 -25 -83 -43 -42 -9 -112 -28 -155 -41 l-79 -24 -21 20
c-29 27 -59 21 -58 -11 1 -14 18 -62 38 -107 42 -94 101 -312 88 -325 -7 -7
-113 -31 -419 -94 -25 -5 -31 -32 -11 -52 24 -24 204 -6 532 54 76 13 141 23
143 20 3 -3 -7 -38 -23 -78 -25 -68 -37 -83 -158 -203 -84 -84 -165 -154 -226
-195 -98 -66 -110 -76 -110 -97 0 -22 55 -14 124 17 214 95 390 269 492 484
20 42 39 76 43 75 3 0 35 -35 69 -77 99 -119 287 -317 388 -406 138 -124 222
-156 436 -171 89 -6 98 -5 117 14 12 12 21 27 21 34 0 12 -177 80 -305 118
-99 29 -690 499 -654 520 26 14 214 39 379 49 122 9 210 8 337 0 141 -9 178
-9 200 2 29 14 40 43 25 66 -16 24 -116 43 -252 49 -110 4 -160 1 -269 -16
-73 -12 -135 -20 -138 -18 -2 3 10 29 28 58 46 77 137 266 150 310 14 45 6 82
-23 109 -17 16 -35 20 -89 20 -38 0 -90 -5 -116 -10 -72 -16 -367 -59 -372
-55 -2 2 25 33 60 68 35 35 111 121 168 191 94 116 103 130 97 159 -19 94 -63
99 -251 27 -71 -27 -131 -47 -132 -46 -2 2 10 33 27 69 32 70 36 100 20 141
-8 23 -6 26 25 36 18 6 71 15 117 20 46 5 137 16 203 24 66 9 139 16 163 16
63 0 131 20 142 41 17 31 -7 66 -49 73 -38 6 -90 6 -131 -1z m-37 -880 c25 -6
21 -31 -18 -114 -19 -41 -44 -118 -57 -171 l-22 -97 -40 -5 c-23 -3 -76 -8
-119 -12 l-79 -6 8 69 c5 37 8 123 7 190 -2 71 2 125 7 128 27 17 264 30 313
18z m-455 -78 c7 -14 12 -61 11 -103 0 -84 -13 -240 -20 -247 -3 -2 -41 -7
-86 -11 l-81 -7 -7 54 c-11 87 -34 168 -67 232 -35 70 -35 71 67 87 38 6 75
13 80 15 6 2 28 4 51 4 34 1 43 -3 52 -24z"/>
<path d="M688 1690 c-64 -39 60 -122 215 -143 34 -5 37 -4 37 19 0 44 -27 92
-62 110 -39 20 -165 30 -190 14z"/>
</g>
</svg>
