<?xml version="1.0" standalone="no"?>
<!DOCTYPE svg PUBLIC "-//W3C//DTD SVG 20010904//EN"
 "http://www.w3.org/TR/2001/REC-SVG-20010904/DTD/svg10.dtd">
<svg version="1.0" xmlns="http://www.w3.org/2000/svg"
 width="340.000000pt" height="340.000000pt" viewBox="0 0 340.000000 340.000000"
 preserveAspectRatio="xMidYMid meet">
<metadata>
Created by potrace 1.15, written by Peter Selinger 2001-2017
</metadata>
<g transform="translate(0.000000,340.000000) scale(0.100000,-0.100000)"
fill="#000000" stroke="none">
<path d="M1635 2490 c-3 -5 -2 -16 2 -24 13 -22 147 -128 197 -156 l45 -24 26
24 c15 14 25 34 25 52 0 39 -64 101 -125 122 -53 18 -160 22 -170 6z"/>
<path d="M2040 2210 c-330 -43 -722 -102 -750 -112 -24 -9 -24 -10 -6 -24 11
-8 43 -14 70 -14 94 0 126 -10 132 -39 3 -14 11 -51 18 -82 23 -97 2 -121
-137 -159 -26 -7 -46 -18 -44 -24 7 -23 52 -36 99 -30 41 5 48 3 58 -16 28
-53 -18 -142 -89 -175 -48 -21 -50 -29 -16 -51 23 -15 31 -15 112 5 49 11 119
22 158 23 l70 3 12 -60 c19 -96 34 -360 27 -487 l-7 -117 -46 -15 c-102 -33
-289 -86 -301 -86 -10 0 -11 17 -8 70 3 39 8 73 11 77 3 3 27 9 53 14 61 12
164 58 164 75 0 20 -41 44 -75 44 -16 -1 -55 -11 -85 -24 -30 -14 -58 -22 -62
-20 -5 3 -8 22 -8 43 0 48 18 65 98 90 62 19 162 76 162 92 0 14 -37 29 -74
29 -20 0 -67 -14 -106 -31 -39 -18 -72 -30 -74 -28 -2 2 -7 18 -10 35 -9 40
24 84 63 84 41 0 115 25 152 50 30 22 31 24 13 37 -28 21 -76 15 -152 -17 -39
-16 -75 -30 -79 -30 -4 0 -15 21 -23 48 -12 37 -23 51 -49 64 -19 10 -36 16
-38 14 -2 -2 1 -34 7 -72 6 -38 15 -190 21 -339 6 -148 12 -285 12 -304 l2
-33 -174 -61 c-174 -60 -174 -60 -151 -79 12 -10 29 -18 37 -18 8 0 81 18 161
40 81 22 266 70 412 106 272 68 313 82 324 109 12 33 6 45 -21 45 -55 0 -54
-2 -42 231 6 118 9 266 7 330 -3 102 -6 120 -27 150 -43 63 -67 74 -158 74
l-83 0 0 27 c0 35 17 78 32 82 81 23 108 36 140 68 21 21 38 42 38 48 0 18
-59 40 -110 40 -29 0 -49 4 -45 9 10 17 -13 92 -35 116 l-22 23 29 6 c45 9
371 44 573 61 102 9 194 18 205 22 30 8 55 34 55 55 0 46 -110 48 -420 8z"/>
<path d="M1131 2057 c-9 -26 -8 -45 5 -87 18 -61 14 -182 -12 -386 -50 -391
-149 -662 -415 -1141 -85 -151 -93 -176 -57 -171 38 5 200 250 313 473 143
282 244 593 300 931 40 240 31 311 -49 382 -48 42 -71 42 -85 -1z"/>
<path d="M2550 1978 c-143 -30 -322 -76 -445 -113 -77 -24 -151 -45 -165 -47
-15 -2 -26 -11 -28 -22 -4 -18 3 -19 157 -13 128 4 161 2 161 -8 0 -37 -44
-148 -82 -205 -33 -49 -51 -68 -78 -76 -47 -15 -57 -35 -42 -77 12 -35 36
-363 48 -685 7 -178 7 -183 28 -180 42 6 46 47 44 446 -1 223 2 376 8 381 19
20 163 60 266 75 110 17 141 13 167 -18 32 -38 66 -526 54 -783 -7 -173 -7
-172 -83 -133 -51 26 -86 26 -93 0 -4 -15 32 -55 168 -185 145 -138 177 -165
202 -165 69 0 68 65 -1 157 -24 32 -65 73 -90 92 -25 19 -46 38 -46 41 0 3 9
24 19 46 43 89 45 115 32 518 -6 210 -14 395 -17 411 -17 89 -92 155 -176 155
-78 0 -215 -48 -289 -101 -17 -12 -32 -19 -35 -16 -9 9 14 53 51 97 59 70 78
122 73 195 l-5 61 111 21 c151 29 260 65 264 85 2 9 -6 26 -17 37 -23 23 -80
26 -161 9z"/>
<path d="M637 1793 c-4 -3 -7 -20 -7 -37 0 -23 12 -41 58 -84 79 -74 109 -92
160 -92 57 0 63 19 27 87 -32 61 -89 101 -155 110 -22 3 -43 10 -46 14 -6 11
-28 12 -37 2z"/>
<path d="M925 1422 c-82 -50 -219 -146 -276 -194 -32 -26 -57 -38 -78 -38 -35
0 -51 -22 -51 -72 0 -44 15 -58 63 -58 45 0 46 1 245 188 135 126 154 149 167
190 9 30 1 28 -70 -16z"/>
<path d="M2324 1244 c-13 -19 -15 -35 -8 -77 4 -28 7 -97 7 -152 0 -218 -91
-428 -265 -612 -67 -71 -88 -105 -88 -144 0 -25 11 -24 76 8 177 87 365 420
410 729 9 61 13 125 9 151 -8 53 -46 99 -93 113 -29 8 -34 6 -48 -16z"/>
<path d="M1680 596 c0 -12 11 -38 25 -57 13 -19 40 -57 59 -86 38 -56 107
-113 137 -113 13 0 22 12 30 40 10 33 9 47 -5 84 -21 54 -59 89 -141 128 -76
35 -105 37 -105 4z"/>
<path d="M1290 544 c-19 -32 -54 -80 -77 -107 -50 -58 -70 -98 -79 -155 -8
-52 0 -53 84 -11 189 94 274 297 136 325 -27 5 -32 1 -64 -52z"/>
</g>
</svg>
