<?xml version="1.0" standalone="no"?>
<!DOCTYPE svg PUBLIC "-//W3C//DTD SVG 20010904//EN"
 "http://www.w3.org/TR/2001/REC-SVG-20010904/DTD/svg10.dtd">
<svg version="1.0" xmlns="http://www.w3.org/2000/svg"
 width="340.000000pt" height="340.000000pt" viewBox="0 0 340.000000 340.000000"
 preserveAspectRatio="xMidYMid meet">
<metadata>
Created by potrace 1.15, written by Peter Selinger 2001-2017
</metadata>
<g transform="translate(0.000000,340.000000) scale(0.100000,-0.100000)"
fill="#000000" stroke="none">
<path d="M1482 2478 c-16 -16 -15 -40 3 -64 24 -32 17 -58 -26 -99 -65 -63
-154 -188 -196 -272 -20 -43 -43 -82 -50 -86 -7 -4 -13 -17 -13 -29 0 -20 3
-21 123 -14 154 9 266 23 339 42 110 28 254 44 401 44 151 0 187 -7 187 -38 0
-9 -44 -115 -97 -236 -78 -173 -103 -220 -122 -227 -13 -5 -90 -14 -172 -19
-169 -12 -284 -30 -418 -66 -51 -14 -96 -23 -99 -19 -3 3 -21 59 -38 124 -18
65 -49 163 -69 217 -45 124 -93 175 -181 195 -93 21 -92 -3 7 -136 21 -28 52
-91 70 -140 17 -50 56 -143 87 -208 45 -95 60 -119 81 -125 51 -14 159 -5 386
31 127 20 270 41 319 46 78 8 92 12 116 37 55 56 205 327 270 485 28 68 23 93
-26 142 -50 49 -109 71 -176 64 -174 -18 -713 -114 -827 -147 -19 -5 -37 -7
-40 -5 -2 3 56 65 131 138 75 72 155 161 178 196 41 61 42 65 31 102 -16 54
-52 79 -115 79 -29 0 -57 -5 -64 -12z"/>
<path d="M1765 1804 c-49 -8 -141 -27 -205 -44 -63 -16 -142 -35 -175 -42 -67
-14 -78 -34 -32 -56 68 -33 587 57 587 102 0 18 -30 42 -60 48 -14 3 -65 -1
-115 -8z"/>
<path d="M1670 1154 c-223 -45 -424 -83 -448 -83 -54 -1 -82 -16 -82 -43 0
-21 2 -21 140 -14 78 3 175 11 216 17 104 14 104 14 104 -131 l0 -118 -225
-43 c-190 -37 -225 -47 -225 -61 0 -10 11 -25 24 -33 20 -13 39 -14 142 -5 66
6 157 20 204 30 47 10 86 17 86 17 1 -1 4 -75 5 -164 l4 -162 -35 -5 c-19 -3
-102 -13 -185 -21 -82 -9 -251 -29 -375 -45 -124 -16 -267 -33 -318 -38 -51
-5 -95 -12 -98 -15 -12 -11 17 -45 53 -63 32 -16 60 -19 183 -18 119 1 172 7
295 32 260 53 474 78 797 92 265 11 651 -2 751 -26 62 -15 69 -15 92 0 34 22
43 63 19 82 -40 31 -112 63 -165 72 -75 14 -785 -21 -888 -44 l-24 -5 7 103
c4 57 9 138 13 181 l6 77 46 0 c51 0 276 33 361 53 48 11 55 16 58 39 2 20 -4
31 -23 44 -25 16 -36 16 -228 -10 -111 -14 -205 -26 -208 -26 -4 0 -10 39 -13
88 -4 48 -10 101 -13 119 -5 30 -3 32 34 38 193 34 412 77 430 85 27 11 40 54
23 75 -23 28 -127 14 -540 -71z"/>
</g>
</svg>
