<?xml version="1.0" standalone="no"?>
<!DOCTYPE svg PUBLIC "-//W3C//DTD SVG 20010904//EN"
 "http://www.w3.org/TR/2001/REC-SVG-20010904/DTD/svg10.dtd">
<svg version="1.0" xmlns="http://www.w3.org/2000/svg"
 width="340.000000pt" height="340.000000pt" viewBox="0 0 340.000000 340.000000"
 preserveAspectRatio="xMidYMid meet">
<metadata>
Created by potrace 1.15, written by Peter Selinger 2001-2017
</metadata>
<g transform="translate(0.000000,340.000000) scale(0.100000,-0.100000)"
fill="#000000" stroke="none">
<path d="M2360 2224 c-69 -13 -278 -50 -465 -82 -304 -51 -347 -56 -407 -48
-36 5 -74 6 -83 2 -22 -8 -16 -50 19 -134 15 -34 37 -97 49 -140 21 -75 22
-92 21 -572 0 -524 -14 -767 -50 -876 -21 -64 -13 -99 29 -124 38 -24 57 -25
57 -6 0 8 10 26 23 40 19 22 42 29 159 51 264 48 410 57 795 53 l353 -4 6 32
c7 40 -2 71 -25 83 -31 17 -330 24 -542 12 -260 -14 -531 -45 -632 -72 -43
-12 -81 -19 -84 -16 -3 4 0 154 7 334 20 544 23 802 11 980 -7 93 -17 187 -23
211 -6 25 -7 47 -2 52 5 4 227 36 493 69 515 65 543 71 549 121 1 14 -2 31 -7
38 -15 24 -118 22 -251 -4z"/>
<path d="M935 2156 c-103 -33 -175 -67 -175 -82 0 -7 7 -19 15 -27 12 -12 40
-14 159 -10 119 5 146 3 150 -8 2 -8 7 -296 11 -641 l6 -628 -46 0 c-42 0 -70
-9 -272 -89 l-53 -21 0 219 0 218 94 5 c76 4 106 11 149 32 77 37 86 50 57 81
-49 52 -85 52 -205 1 -104 -44 -99 -52 -91 142 9 231 6 222 72 222 60 0 135
22 177 52 l28 20 -22 24 c-33 35 -75 39 -145 14 -32 -12 -70 -24 -83 -27 -22
-5 -23 -3 -17 20 16 64 -29 225 -80 284 -25 29 -67 39 -86 19 -13 -13 -12 -28
8 -133 57 -289 74 -697 45 -1053 -17 -214 -18 -217 -52 -224 -37 -7 -47 -31
-28 -65 13 -22 20 -25 54 -23 52 5 149 37 202 68 23 13 72 40 109 59 38 20 92
54 122 76 l54 41 -7 -62 c-4 -34 -4 -100 0 -146 7 -81 8 -84 31 -84 25 0 73
42 75 64 0 6 2 297 3 646 2 349 8 704 14 789 11 147 11 156 -8 187 -42 66
-137 81 -265 40z"/>
<path d="M2205 1824 c-179 -47 -477 -133 -483 -139 -2 -2 8 -11 22 -20 21 -14
38 -16 84 -10 31 4 86 8 122 9 l65 1 17 -53 c10 -28 21 -83 24 -120 6 -66 6
-69 -21 -90 -15 -12 -44 -26 -64 -32 -132 -35 -259 -73 -272 -81 -12 -8 -11
-12 6 -25 11 -8 31 -18 44 -21 20 -5 182 21 279 44 l23 5 -3 -157 -3 -158
-147 -38 c-174 -45 -218 -62 -218 -84 0 -32 44 -39 127 -22 176 37 469 67 653
67 83 0 101 3 124 21 31 24 34 59 6 84 -18 16 -33 17 -158 12 -75 -4 -167 -10
-205 -13 l-67 -7 6 89 c4 49 9 118 13 153 l6 63 71 18 c71 18 150 53 189 84
20 16 20 16 -8 41 -35 31 -52 31 -150 0 -43 -14 -81 -25 -86 -25 -4 0 -13 55
-19 123 -7 67 -15 132 -18 143 -5 19 0 22 40 28 92 14 276 88 276 111 0 22
-37 45 -71 44 -19 0 -110 -21 -204 -45z"/>
</g>
</svg>
