<?xml version="1.0" standalone="no"?>
<!DOCTYPE svg PUBLIC "-//W3C//DTD SVG 20010904//EN"
 "http://www.w3.org/TR/2001/REC-SVG-20010904/DTD/svg10.dtd">
<svg version="1.0" xmlns="http://www.w3.org/2000/svg"
 width="340.000000pt" height="340.000000pt" viewBox="0 0 340.000000 340.000000"
 preserveAspectRatio="xMidYMid meet">
<metadata>
Created by potrace 1.15, written by Peter Selinger 2001-2017
</metadata>
<g transform="translate(0.000000,340.000000) scale(0.100000,-0.100000)"
fill="#000000" stroke="none">
<path d="M1085 2647 c-19 -15 -19 -15 7 -54 70 -105 79 -149 94 -439 l7 -131
-84 -26 c-186 -58 -435 -116 -624 -147 -95 -15 -105 -21 -83 -57 9 -15 36 -38
60 -51 l44 -23 115 25 c137 30 254 64 369 106 134 50 158 56 171 43 6 -6 20
-47 30 -90 19 -81 26 -262 12 -371 -5 -48 -9 -54 -40 -67 -60 -25 -56 -74 12
-143 36 -36 49 -43 76 -40 51 5 71 41 80 145 15 173 6 485 -16 590 -8 37 -15
34 120 52 84 12 219 52 251 75 17 13 16 15 -14 46 -40 39 -61 38 -240 -10
-105 -29 -125 -31 -133 -19 -10 16 -10 172 0 209 5 18 15 26 36 28 55 5 191
32 244 48 87 25 127 88 82 128 -17 16 -24 16 -84 2 -86 -20 -155 -47 -215 -84
l-49 -30 -6 70 c-7 84 -42 163 -87 196 -39 29 -108 39 -135 19z"/>
<path d="M2249 2274 c-52 -26 -148 -71 -214 -100 -66 -29 -120 -59 -120 -66 0
-7 12 -17 28 -22 22 -8 46 -4 114 18 47 16 113 31 146 34 l61 5 -21 -34 c-11
-19 -44 -74 -73 -124 -29 -49 -62 -102 -72 -118 l-19 -27 -62 44 c-61 43 -197
116 -217 116 -32 0 19 -79 69 -105 14 -7 57 -42 95 -77 l69 -63 -182 -187
c-99 -102 -181 -193 -181 -202 0 -63 159 44 365 245 l80 79 200 -171 c110 -94
217 -179 237 -190 61 -31 156 -49 271 -49 94 0 109 2 127 20 11 11 20 24 20
30 0 22 -43 47 -102 59 -35 7 -91 26 -126 42 -34 17 -88 39 -119 50 -82 28
-214 100 -284 156 -33 26 -79 62 -102 79 -23 17 -43 40 -45 50 -2 12 33 75 87
155 101 152 171 284 171 323 0 36 -41 76 -78 76 -16 0 -71 -21 -123 -46z"/>
<path d="M935 1713 c-164 -209 -209 -295 -173 -331 55 -55 196 97 253 273 29
89 28 135 -3 135 -9 0 -44 -35 -77 -77z"/>
<path d="M1430 1733 c0 -26 23 -57 94 -131 72 -75 101 -92 156 -92 54 0 59 17
25 86 -40 82 -109 125 -241 150 -29 5 -34 3 -34 -13z"/>
<path d="M1795 1324 c-149 -27 -395 -107 -395 -129 0 -31 26 -32 140 -9 74 16
169 26 267 30 l151 7 25 -25 c36 -36 40 -95 36 -530 -4 -370 -4 -374 -26 -402
-31 -38 -29 -59 8 -100 38 -44 60 -51 97 -32 26 13 30 22 36 77 3 34 6 280 6
546 0 475 0 485 -21 514 -48 68 -147 84 -324 53z"/>
<path d="M1286 1114 c-12 -31 -6 -75 16 -117 21 -40 22 -57 27 -396 5 -317 8
-355 23 -364 12 -8 23 -8 40 0 13 6 69 14 126 18 156 9 432 57 432 74 0 4 -6
16 -14 26 -12 17 -25 19 -103 17 -105 -3 -232 -18 -327 -37 -38 -8 -73 -12
-77 -9 -10 6 -11 108 -1 174 l7 45 105 11 c122 14 209 35 287 70 54 23 55 25
38 44 -35 39 -84 37 -314 -16 -83 -20 -106 -22 -113 -12 -9 13 -2 175 8 202 3
8 30 16 72 19 109 11 297 76 289 101 -6 19 -70 36 -114 30 -23 -3 -87 -20
-142 -39 l-100 -33 -6 42 c-10 62 -44 117 -90 143 -48 27 -61 28 -69 7z"/>
</g>
</svg>
