<?xml version="1.0" standalone="no"?>
<!DOCTYPE svg PUBLIC "-//W3C//DTD SVG 20010904//EN"
 "http://www.w3.org/TR/2001/REC-SVG-20010904/DTD/svg10.dtd">
<svg version="1.0" xmlns="http://www.w3.org/2000/svg"
 width="340.000000pt" height="340.000000pt" viewBox="0 0 340.000000 340.000000"
 preserveAspectRatio="xMidYMid meet">
<metadata>
Created by potrace 1.15, written by Peter Selinger 2001-2017
</metadata>
<g transform="translate(0.000000,340.000000) scale(0.100000,-0.100000)"
fill="#000000" stroke="none">
<path d="M2194 2405 c-7 -28 3 -54 37 -97 28 -35 27 -84 -6 -224 -26 -112 -64
-244 -69 -244 -1 0 -81 -16 -176 -35 -95 -19 -181 -35 -190 -35 -14 0 -18 14
-23 83 -9 116 -31 197 -88 314 -58 122 -111 183 -157 183 -50 0 -51 -31 -4
-126 60 -120 127 -341 134 -438 l3 -49 -40 -14 c-64 -22 -229 -53 -283 -53
-43 0 -54 -4 -71 -26 -15 -19 -18 -30 -11 -39 22 -26 77 -25 247 8 171 34 172
34 177 13 3 -12 6 -33 6 -47 0 -38 37 -138 67 -183 l26 -40 14 29 c19 35 20
109 4 208 -7 44 -10 81 -8 83 5 6 314 64 337 64 15 0 10 -24 -37 -177 -71
-234 -65 -221 -110 -228 -117 -20 -485 -125 -506 -145 -11 -10 32 -40 58 -40
11 0 94 14 183 32 l164 33 19 -23 c25 -31 38 -81 46 -173 7 -90 13 -84 -122
-119 -102 -26 -125 -40 -105 -64 10 -13 35 -16 121 -16 l109 0 0 -154 0 -154
-96 -22 c-53 -12 -128 -33 -167 -46 -39 -13 -72 -22 -75 -20 -8 8 -30 140 -47
277 -9 74 -23 161 -31 194 -32 126 -118 285 -154 285 -11 0 -20 -6 -20 -14 0
-8 18 -95 40 -193 36 -162 51 -246 78 -433 10 -68 42 -162 67 -194 14 -18 17
-18 72 -3 32 8 182 37 333 63 151 26 285 54 298 62 14 9 22 23 20 36 -3 20
-10 21 -116 24 l-113 3 5 27 c10 51 26 196 26 243 l0 46 55 6 c66 7 165 50
165 71 0 34 -46 49 -125 42 -55 -5 -75 -3 -81 6 -5 7 -9 47 -11 88 -1 41 -9
98 -17 125 -9 28 -16 53 -16 56 0 7 43 15 225 45 116 18 214 13 314 -18 l64
-20 -7 -91 c-7 -97 -37 -262 -60 -337 -20 -64 -147 -424 -151 -429 -2 -2 -16
6 -31 18 -15 11 -37 21 -49 21 -28 0 -55 -30 -55 -60 0 -31 43 -103 74 -124
32 -20 88 -21 131 0 30 14 37 26 64 107 110 335 221 762 221 847 -1 99 -50
168 -143 201 -33 12 -70 10 -273 -10 -129 -13 -237 -22 -239 -20 -2 2 10 35
26 72 15 37 47 123 70 191 32 98 45 126 62 131 12 4 140 9 285 10 246 1 263 2
277 21 23 31 19 71 -11 91 -21 14 -46 17 -128 15 -97 -2 -352 -27 -388 -38
-10 -3 -18 -3 -18 -1 0 2 14 57 31 121 47 181 79 348 69 366 -4 8 -22 28 -39
44 -25 24 -42 30 -91 34 -57 4 -59 4 -66 -23z"/>
<path d="M826 2094 c-71 -18 -131 -36 -133 -38 -11 -10 10 -46 30 -53 12 -4
51 -8 87 -8 36 0 107 -2 158 -3 l92 -2 0 -658 0 -659 -78 -16 c-43 -10 -110
-33 -150 -52 l-72 -34 0 219 0 220 48 0 c26 0 66 9 90 20 39 18 102 74 102 92
0 4 -14 15 -32 24 -41 21 -98 14 -149 -20 -70 -47 -69 -48 -69 153 l0 178 49
7 c57 7 156 55 156 75 0 8 -13 23 -28 35 -27 20 -29 20 -75 2 -26 -10 -59 -20
-74 -23 -32 -6 -34 1 -42 122 -7 130 -23 185 -65 227 -39 38 -91 55 -136 44
-33 -8 -32 -30 4 -97 36 -66 63 -138 93 -244 21 -77 22 -100 26 -586 l3 -506
-28 -6 c-57 -13 -75 -50 -44 -88 30 -37 102 -34 161 7 25 17 79 48 120 69 41
21 93 50 115 65 22 14 45 30 51 33 8 5 11 -16 11 -71 0 -83 20 -155 45 -160
21 -4 66 45 77 84 5 20 6 73 0 131 -12 137 -11 688 2 998 20 487 20 485 -50
532 -50 34 -134 30 -295 -13z"/>
</g>
</svg>
