<?xml version="1.0" standalone="no"?>
<!DOCTYPE svg PUBLIC "-//W3C//DTD SVG 20010904//EN"
 "http://www.w3.org/TR/2001/REC-SVG-20010904/DTD/svg10.dtd">
<svg version="1.0" xmlns="http://www.w3.org/2000/svg"
 width="340.000000pt" height="340.000000pt" viewBox="0 0 340.000000 340.000000"
 preserveAspectRatio="xMidYMid meet">
<metadata>
Created by potrace 1.15, written by Peter Selinger 2001-2017
</metadata>
<g transform="translate(0.000000,340.000000) scale(0.100000,-0.100000)"
fill="#000000" stroke="none">
<path d="M1790 2304 c-16 -42 20 -95 81 -116 32 -12 38 -164 13 -376 -9 -75
-17 -138 -18 -139 0 -1 -81 -22 -179 -46 -98 -25 -181 -48 -184 -51 -12 -12
21 -36 51 -36 17 0 85 11 151 24 326 66 828 101 816 56 -2 -8 -6 -31 -9 -52
-3 -30 0 -39 22 -53 18 -12 34 -15 53 -10 16 4 57 9 92 11 76 4 105 21 122 71
12 37 11 38 -26 70 -51 44 -125 78 -201 93 -65 13 -213 0 -453 -39 l-114 -18
7 252 c7 271 5 289 -41 337 -26 27 -41 32 -131 42 -38 4 -44 2 -52 -20z"/>
<path d="M2370 2163 c-28 -76 -44 -99 -86 -125 -50 -31 -84 -80 -84 -122 0
-28 0 -28 55 -24 62 5 187 63 236 109 59 55 25 155 -59 179 -51 14 -51 14 -62
-17z"/>
<path d="M852 1980 c-68 -33 -121 -64 -118 -69 15 -24 77 -33 143 -21 62 12
197 9 210 -4 11 -10 15 -638 6 -945 l-8 -284 -96 -32 c-52 -17 -121 -44 -153
-58 -32 -15 -62 -27 -67 -27 -5 0 -9 94 -9 209 l0 209 68 7 c80 9 147 32 196
70 42 32 37 53 -20 80 -47 22 -83 15 -164 -35 -36 -22 -68 -40 -72 -40 -5 0
-8 74 -8 164 l0 165 48 6 c67 9 125 32 151 59 l23 24 -21 21 c-30 30 -81 36
-142 16 -50 -17 -53 -17 -66 1 -9 12 -12 31 -8 52 10 53 -13 139 -47 177 -35
40 -105 65 -119 43 -12 -19 -11 -30 11 -116 47 -184 76 -569 67 -902 -3 -118
-10 -228 -15 -245 -5 -18 -20 -35 -35 -42 -15 -7 -39 -19 -54 -25 -15 -8 -30
-25 -34 -40 -6 -23 -3 -32 18 -48 44 -35 97 -27 183 27 107 66 351 179 363
167 1 -2 0 -34 -4 -71 -14 -118 -11 -223 5 -229 21 -8 66 16 89 48 20 27 21
40 19 480 -2 437 4 635 29 858 6 62 8 147 4 208 -6 91 -10 106 -33 134 -36 43
-96 68 -162 67 -47 0 -74 -9 -178 -59z"/>
<path d="M1470 1993 c0 -10 8 -32 18 -50 9 -17 29 -54 44 -81 39 -71 79 -102
134 -102 38 0 44 3 44 21 0 78 -61 164 -145 203 -64 31 -95 33 -95 9z"/>
<path d="M1410 1638 c-30 -104 -79 -242 -112 -316 -33 -75 -35 -105 -9 -131
57 -57 128 52 166 252 21 113 17 260 -7 265 -13 3 -21 -13 -38 -70z"/>
<path d="M2150 1489 c-116 -24 -193 -45 -288 -76 -104 -35 -134 -38 -229 -18
-40 9 -52 -13 -34 -59 7 -17 23 -66 36 -108 12 -42 42 -118 65 -168 34 -70 47
-89 59 -84 63 26 104 35 112 27 13 -13 33 -186 25 -217 -6 -23 -16 -26 -156
-52 -157 -30 -168 -36 -130 -74 24 -24 58 -25 163 -5 43 8 93 15 109 15 l31 0
-6 -117 c-10 -181 -3 -170 -105 -178 -211 -16 -534 -73 -560 -99 -12 -11 -10
-17 10 -36 22 -21 28 -22 173 -17 94 3 185 12 245 25 52 11 165 25 250 32 85
6 202 15 260 20 161 14 346 11 435 -6 137 -26 154 -27 184 -14 34 14 43 32 35
65 -6 26 -29 38 -128 66 -103 29 -258 35 -381 14 -55 -9 -148 -19 -207 -22
-125 -7 -114 -23 -98 138 17 171 6 155 113 162 78 5 280 47 294 61 3 2 0 13
-6 24 -20 37 -65 43 -201 27 -193 -23 -175 -30 -188 73 -7 48 -15 99 -18 113
-5 24 -3 27 35 33 77 12 120 36 167 94 52 64 115 168 140 231 16 41 16 45 -1
77 -31 58 -97 75 -205 53z m46 -134 c3 -8 -19 -56 -51 -108 l-57 -93 -117 -27
c-64 -14 -126 -29 -138 -32 -19 -6 -22 -1 -33 49 -6 31 -24 82 -40 113 -16 32
-28 58 -27 59 1 1 101 13 222 27 121 14 224 25 228 26 4 1 10 -6 13 -14z"/>
</g>
</svg>
