<?xml version="1.0" standalone="no"?>
<!DOCTYPE svg PUBLIC "-//W3C//DTD SVG 20010904//EN"
 "http://www.w3.org/TR/2001/REC-SVG-20010904/DTD/svg10.dtd">
<svg version="1.0" xmlns="http://www.w3.org/2000/svg"
 width="340.000000pt" height="340.000000pt" viewBox="0 0 340.000000 340.000000"
 preserveAspectRatio="xMidYMid meet">
<metadata>
Created by potrace 1.15, written by Peter Selinger 2001-2017
</metadata>
<g transform="translate(0.000000,340.000000) scale(0.100000,-0.100000)"
fill="#000000" stroke="none">
<path d="M1300 2134 c-331 -97 -529 -154 -552 -159 -36 -7 -36 -33 -2 -41 28
-7 240 2 287 12 l27 6 0 -63 c0 -79 -57 -251 -140 -426 l-59 -123 -30 18 c-28
15 -33 15 -41 2 -6 -8 -7 -35 -4 -60 13 -94 12 -96 -144 -316 -253 -357 -274
-388 -266 -407 12 -31 38 -18 107 54 103 109 206 240 301 382 71 106 86 124
90 105 64 -314 130 -556 153 -565 27 -10 44 18 42 70 -3 65 12 77 105 77 39 1
88 7 109 14 50 18 106 57 112 78 8 23 -15 58 -42 64 -13 4 -23 9 -23 13 0 4
13 45 29 92 47 139 84 309 78 359 -6 57 -50 100 -101 100 -35 0 -175 -46 -303
-99 -40 -16 -73 -25 -73 -20 0 14 24 60 78 149 56 93 101 191 135 295 40 124
43 149 18 191 -23 38 -17 53 18 54 36 0 152 35 219 66 77 35 86 50 52 84 -27
27 -73 25 -180 -6z m-6 -900 c0 -21 -8 -79 -17 -128 -9 -49 -17 -126 -17 -171
l0 -83 -50 -11 c-28 -6 -73 -22 -101 -37 -28 -14 -53 -23 -56 -21 -7 7 -74
366 -76 407 -2 34 -1 35 53 47 72 16 242 42 255 39 6 -2 10 -20 9 -42z"/>
<path d="M2055 2129 c-49 -17 -108 -41 -130 -53 -22 -13 -71 -33 -110 -45 -67
-21 -71 -21 -108 -5 -75 34 -90 -3 -58 -148 98 -453 -1 -955 -278 -1408 -58
-94 -78 -153 -62 -178 11 -19 105 68 153 142 129 200 256 550 302 836 35 213
47 509 26 620 -6 29 -9 55 -7 57 8 8 338 65 344 59 13 -13 -37 -784 -63 -976
-27 -194 -4 -362 73 -518 38 -77 39 -77 116 -115 136 -68 320 -92 490 -66 88
14 116 27 156 76 60 73 76 195 36 289 -11 28 -19 34 -43 34 -47 0 -63 -28 -67
-119 -6 -121 -23 -138 -147 -151 -131 -13 -240 4 -361 58 -56 24 -59 28 -97
106 -55 115 -74 213 -67 345 10 202 56 608 103 916 25 160 25 173 10 208 -11
27 -26 42 -50 52 -48 20 -57 19 -161 -16z"/>
</g>
</svg>
