<?xml version="1.0" standalone="no"?>
<!DOCTYPE svg PUBLIC "-//W3C//DTD SVG 20010904//EN"
 "http://www.w3.org/TR/2001/REC-SVG-20010904/DTD/svg10.dtd">
<svg version="1.0" xmlns="http://www.w3.org/2000/svg"
 width="340.000000pt" height="340.000000pt" viewBox="0 0 340.000000 340.000000"
 preserveAspectRatio="xMidYMid meet">
<metadata>
Created by potrace 1.15, written by Peter Selinger 2001-2017
</metadata>
<g transform="translate(0.000000,340.000000) scale(0.100000,-0.100000)"
fill="#000000" stroke="none">
<path d="M2187 2419 c-53 -16 -150 -49 -215 -73 -64 -24 -134 -46 -154 -49
-46 -7 -93 -36 -79 -50 5 -5 40 -12 78 -14 55 -4 92 1 188 26 76 20 169 36
254 43 127 11 134 11 147 -7 8 -10 14 -34 14 -52 0 -31 -70 -441 -120 -701
-18 -94 -19 -106 -5 -132 18 -35 42 -38 78 -10 26 20 38 71 82 340 9 52 29
147 45 210 24 99 37 185 54 353 4 32 -1 44 -27 74 -70 80 -171 92 -340 42z"/>
<path d="M1285 2236 c-82 -24 -199 -59 -260 -79 -60 -20 -123 -37 -140 -39
-22 -2 -30 -8 -30 -23 0 -19 6 -20 135 -19 209 1 403 46 507 117 38 26 41 39
13 67 -28 28 -53 25 -225 -24z"/>
<path d="M1107 2040 c-29 -23 -34 -53 -16 -94 10 -21 7 -40 -20 -117 -34 -97
-100 -235 -157 -331 -34 -56 -35 -57 -65 -46 -39 13 -51 -1 -38 -46 21 -73 15
-86 -102 -233 -140 -174 -334 -462 -320 -476 31 -31 149 93 402 423 51 66 95
120 99 120 5 0 52 -142 157 -472 24 -77 63 -54 63 37 0 40 3 47 26 55 14 6 56
10 95 10 80 0 158 26 199 65 32 31 30 56 -6 84 l-24 19 35 91 c37 96 82 269
87 335 3 36 0 42 -39 69 -28 20 -58 31 -92 35 -47 4 -62 -1 -211 -73 -89 -42
-164 -75 -166 -72 -9 9 24 75 81 161 70 107 100 172 126 274 25 102 23 149
-11 173 -41 30 -73 33 -103 9z m265 -660 c-1 -19 -14 -71 -29 -115 -15 -44
-36 -120 -48 -169 l-20 -88 -89 -22 c-58 -15 -89 -19 -91 -12 -2 6 -13 54 -24
106 -11 52 -32 130 -46 174 -14 43 -24 80 -22 82 9 9 325 83 347 81 22 -2 25
-6 22 -37z"/>
<path d="M1792 1993 c-13 -30 -17 -74 -18 -203 -2 -177 -26 -399 -50 -455 -28
-67 -11 -135 42 -170 25 -16 35 -17 103 -6 42 6 157 30 256 52 160 37 198 42
342 47 171 5 305 -8 355 -34 31 -16 58 -61 58 -96 0 -79 -191 -549 -306 -755
l-36 -64 -39 36 c-47 42 -77 55 -126 55 -35 0 -36 -1 -30 -34 12 -77 77 -163
142 -191 38 -17 101 -6 143 23 47 34 222 399 295 614 44 128 87 296 87 335 -1
66 -79 177 -151 213 -71 37 -135 39 -358 14 -230 -26 -451 -58 -554 -80 -38
-8 -73 -14 -78 -14 -20 0 -5 205 32 424 21 119 20 180 -3 256 -24 79 -78 96
-106 33z"/>
<path d="M2200 920 c-74 -10 -178 -26 -230 -35 -171 -29 -566 -127 -583 -144
-5 -5 0 -18 12 -30 19 -19 33 -21 122 -21 84 0 128 7 262 40 213 52 327 69
531 77 166 6 170 7 200 33 27 25 29 30 19 53 -23 50 -108 57 -333 27z"/>
</g>
</svg>
