<?xml version="1.0" standalone="no"?>
<!DOCTYPE svg PUBLIC "-//W3C//DTD SVG 20010904//EN"
 "http://www.w3.org/TR/2001/REC-SVG-20010904/DTD/svg10.dtd">
<svg version="1.0" xmlns="http://www.w3.org/2000/svg"
 width="340.000000pt" height="340.000000pt" viewBox="0 0 340.000000 340.000000"
 preserveAspectRatio="xMidYMid meet">
<metadata>
Created by potrace 1.15, written by Peter Selinger 2001-2017
</metadata>
<g transform="translate(0.000000,340.000000) scale(0.100000,-0.100000)"
fill="#000000" stroke="none">
<path d="M1850 2271 c0 -17 10 -50 21 -73 38 -74 34 -88 -140 -437 -89 -177
-161 -329 -161 -337 0 -15 18 -18 36 -6 7 4 48 51 92 106 l80 99 69 2 c50 1
89 10 146 33 84 35 358 122 382 122 32 0 20 -19 -83 -125 -84 -87 -139 -163
-172 -240 l-19 -45 22 0 c12 0 36 9 53 19 49 30 390 368 404 400 6 16 10 44 8
62 -2 28 -10 37 -41 53 -34 16 -46 17 -118 6 -114 -16 -217 -52 -346 -121 -62
-33 -149 -75 -194 -94 l-81 -35 6 26 c4 15 25 54 48 87 81 120 178 349 178
423 0 14 -14 40 -33 60 -29 31 -39 36 -95 41 l-62 6 0 -32z"/>
<path d="M1150 1916 c-151 -46 -300 -89 -330 -95 -69 -16 -84 -24 -88 -45 -3
-14 9 -16 90 -16 51 1 129 7 173 15 44 8 81 15 83 15 1 0 2 -20 2 -45 0 -37
-15 -74 -78 -198 -115 -225 -123 -235 -174 -239 -33 -2 -44 -7 -46 -22 -2 -10
3 -23 12 -28 26 -14 19 -49 -20 -103 -57 -79 -206 -302 -261 -390 -98 -159
-96 -155 -79 -155 38 0 219 209 368 424 39 58 73 104 74 103 5 -5 92 -451 104
-534 8 -55 18 -87 30 -98 17 -15 19 -15 28 2 6 10 16 46 23 81 l13 62 51 0
c114 1 285 56 285 92 0 30 -17 55 -43 62 l-24 6 19 67 c48 171 108 411 108
431 0 12 -15 39 -34 60 -32 34 -39 37 -88 37 -43 0 -73 -10 -162 -53 -60 -29
-132 -66 -159 -83 -83 -51 -85 -34 -10 66 82 108 147 230 184 344 25 78 26 87
12 108 -20 31 -12 38 61 52 101 19 226 89 226 127 0 16 -31 34 -57 33 -10 0
-142 -38 -293 -83z m163 -680 c3 -8 -5 -54 -19 -103 -13 -48 -30 -143 -36
-210 l-12 -121 -80 -32 c-45 -18 -86 -34 -92 -37 -12 -4 -27 67 -39 187 -4 36
-13 100 -22 142 -8 42 -13 85 -11 94 2 13 37 26 143 54 167 44 161 44 168 26z"/>
<path d="M1774 1425 c-13 -20 -17 -58 -19 -202 -2 -142 -7 -195 -23 -259 -50
-194 -157 -380 -304 -527 -88 -88 -109 -118 -122 -170 l-7 -28 40 20 c21 11
72 47 112 79 168 134 314 355 389 591 l37 114 78 -104 c84 -113 176 -225 295
-360 41 -48 96 -111 122 -141 88 -103 203 -162 353 -179 177 -21 178 -21 213
0 17 12 32 25 32 31 0 13 -135 80 -227 113 -204 74 -400 212 -543 384 -36 43
-122 137 -192 208 l-127 130 12 68 c14 82 0 161 -38 219 -30 44 -57 49 -81 13z"/>
</g>
</svg>
