<?xml version="1.0" standalone="no"?>
<!DOCTYPE svg PUBLIC "-//W3C//DTD SVG 20010904//EN"
 "http://www.w3.org/TR/2001/REC-SVG-20010904/DTD/svg10.dtd">
<svg version="1.0" xmlns="http://www.w3.org/2000/svg"
 width="340.000000pt" height="340.000000pt" viewBox="0 0 340.000000 340.000000"
 preserveAspectRatio="xMidYMid meet">
<metadata>
Created by potrace 1.15, written by Peter Selinger 2001-2017
</metadata>
<g transform="translate(0.000000,340.000000) scale(0.100000,-0.100000)"
fill="#000000" stroke="none">
<path d="M1930 2478 c0 -18 7 -46 15 -62 23 -44 17 -90 -29 -231 l-42 -130
-64 -17 c-35 -10 -109 -25 -164 -34 -117 -19 -138 -30 -108 -54 17 -14 41 -16
156 -12 l137 5 -22 -59 c-32 -88 -122 -276 -184 -385 -70 -121 -73 -174 -14
-204 46 -24 115 -17 294 29 93 25 172 42 175 40 3 -3 7 -74 9 -158 l3 -153
-93 -12 c-131 -16 -369 -66 -488 -101 -55 -17 -120 -30 -143 -30 -41 0 -88
-21 -88 -40 0 -5 24 -14 54 -21 82 -18 203 -6 347 34 119 33 343 77 395 77 24
0 24 -2 25 -97 4 -371 16 -660 30 -692 l15 -35 19 40 c23 49 33 168 43 524 l7
275 65 7 c36 3 178 10 317 14 l252 7 16 33 c20 43 19 49 -11 73 -34 27 -64 27
-338 -3 -121 -14 -240 -26 -263 -28 l-43 -4 0 162 0 161 78 6 c75 6 187 28
237 47 20 8 25 16 25 45 0 53 -28 62 -132 41 -46 -9 -111 -19 -146 -22 l-63
-7 8 44 c18 103 3 206 -40 270 -18 27 -30 35 -60 37 -51 4 -64 -27 -42 -101
12 -41 14 -76 9 -164 -7 -111 -7 -112 -33 -117 -65 -14 -315 -56 -317 -53 -5
4 33 100 105 267 39 91 84 194 99 229 23 53 33 66 57 73 81 22 286 59 406 73
147 17 182 32 187 80 2 15 0 31 -5 35 -23 20 -336 -25 -483 -70 -36 -11 -68
-20 -72 -20 -14 0 -8 22 25 89 28 58 32 75 32 151 0 62 -5 97 -19 127 -19 44
-36 53 -98 53 -36 0 -38 -2 -38 -32z"/>
<path d="M1273 2165 c-83 -25 -193 -60 -245 -79 -51 -19 -113 -40 -136 -46
-54 -14 -92 -31 -92 -41 0 -17 65 -29 100 -18 48 14 149 29 163 23 8 -3 12
-27 11 -67 -1 -53 -9 -80 -61 -192 -33 -71 -80 -167 -104 -212 -41 -76 -46
-82 -74 -80 l-30 2 3 -51 c3 -50 2 -52 -79 -159 -116 -152 -280 -396 -273
-406 13 -22 46 -4 105 58 80 83 201 229 254 306 22 31 43 57 46 57 11 0 49
-177 58 -271 9 -97 38 -191 70 -231 l19 -22 21 34 c11 19 24 56 27 81 l6 46
94 12 c102 12 241 57 258 84 14 21 -21 71 -53 75 -17 3 -21 8 -15 20 59 136
104 299 104 375 0 34 -22 63 -67 86 -41 21 -106 13 -169 -20 -123 -66 -152
-78 -192 -87 -23 -6 -42 -8 -42 -6 0 3 28 51 62 107 63 105 146 278 169 355
11 39 11 48 -6 78 -10 19 -22 34 -27 34 -4 0 -8 4 -8 8 0 5 35 16 78 25 43 10
122 31 175 47 l97 31 0 34 c0 39 -21 55 -67 55 -15 -1 -96 -21 -180 -45z m25
-767 c18 -18 15 -55 -13 -139 -14 -42 -31 -105 -39 -139 l-12 -64 -81 -27
c-44 -14 -89 -31 -100 -37 -19 -11 -21 -7 -36 91 -9 56 -28 136 -42 177 -40
111 -39 115 15 113 25 -1 90 6 145 16 122 23 147 25 163 9z"/>
</g>
</svg>
