<?xml version="1.0" standalone="no"?>
<!DOCTYPE svg PUBLIC "-//W3C//DTD SVG 20010904//EN"
 "http://www.w3.org/TR/2001/REC-SVG-20010904/DTD/svg10.dtd">
<svg version="1.0" xmlns="http://www.w3.org/2000/svg"
 width="340.000000pt" height="340.000000pt" viewBox="0 0 340.000000 340.000000"
 preserveAspectRatio="xMidYMid meet">
<metadata>
Created by potrace 1.15, written by Peter Selinger 2001-2017
</metadata>
<g transform="translate(0.000000,340.000000) scale(0.100000,-0.100000)"
fill="#000000" stroke="none">
<path d="M2320 2419 c-85 -22 -247 -65 -360 -95 -113 -31 -225 -57 -250 -58
-38 -1 -45 -4 -48 -22 -3 -19 3 -22 76 -28 103 -8 237 6 398 43 71 17 194 39
274 51 179 26 218 47 192 105 -11 24 -65 46 -107 44 -11 0 -90 -19 -175 -40z"/>
<path d="M1305 2339 c-99 -28 -336 -107 -425 -140 -41 -16 -86 -29 -101 -29
-28 0 -57 -25 -45 -38 15 -15 223 -4 332 17 132 25 213 50 317 98 63 30 77 40
77 59 0 31 -26 54 -58 53 -15 0 -58 -9 -97 -20z"/>
<path d="M2028 2172 c-22 -4 -42 -55 -33 -84 5 -12 17 -35 28 -50 19 -26 20
-42 21 -344 l1 -317 -135 -27 c-74 -15 -198 -44 -275 -65 -278 -75 -255 -66
-234 -91 12 -14 27 -16 110 -10 104 6 334 43 360 57 25 13 149 30 170 24 18
-6 19 -19 19 -203 0 -108 -5 -332 -10 -497 -9 -265 -8 -306 6 -355 l16 -55 24
28 c13 15 28 44 33 65 13 52 29 360 37 729 l7 311 27 5 c59 12 504 29 638 25
136 -5 144 -4 157 16 25 34 18 64 -17 87 -32 20 -42 20 -263 15 -126 -3 -293
-13 -370 -21 -77 -8 -147 -15 -156 -15 -15 0 -16 24 -17 223 0 122 -4 280 -8
351 -6 122 -8 130 -35 161 -28 31 -64 45 -101 37z"/>
<path d="M1011 2084 c-23 -29 -25 -42 -12 -63 15 -24 -177 -429 -228 -480 -11
-11 -24 -33 -27 -48 -4 -15 -33 -64 -65 -109 -109 -153 -329 -493 -329 -509 0
-28 45 -16 82 23 54 57 215 265 292 380 39 56 73 102 77 102 14 0 40 -83 50
-158 19 -146 40 -247 66 -329 15 -46 30 -83 33 -83 22 0 53 54 58 98 l4 49 97
6 c107 6 255 47 265 73 14 36 -1 75 -34 86 -10 3 52 249 85 338 20 53 14 108
-17 158 l-21 35 -76 -6 c-89 -6 -170 -34 -244 -84 -28 -19 -80 -52 -114 -73
l-62 -38 -6 27 c-8 38 4 63 73 155 92 121 182 322 182 406 0 63 -91 93 -129
44z m273 -615 c-1 -29 -61 -341 -67 -345 -1 -1 -27 -9 -57 -19 -30 -10 -77
-29 -103 -42 -26 -13 -52 -21 -57 -18 -6 4 -10 23 -10 43 0 46 -31 187 -60
271 -23 70 -19 81 30 81 22 0 96 16 265 58 54 13 60 10 59 -29z"/>
<path d="M2531 2009 c-11 -53 -20 -69 -76 -130 -61 -67 -135 -192 -135 -230 0
-15 5 -16 28 -10 62 18 118 57 200 138 107 107 122 128 122 176 0 71 -38 117
-98 117 -28 0 -30 -3 -41 -61z"/>
<path d="M1650 1840 c0 -101 99 -251 182 -277 33 -10 37 -9 42 11 11 40 5 101
-13 141 -32 71 -144 164 -198 165 -8 0 -13 -15 -13 -40z"/>
</g>
</svg>
