<?xml version="1.0" standalone="no"?>
<!DOCTYPE svg PUBLIC "-//W3C//DTD SVG 20010904//EN"
 "http://www.w3.org/TR/2001/REC-SVG-20010904/DTD/svg10.dtd">
<svg version="1.0" xmlns="http://www.w3.org/2000/svg"
 width="340.000000pt" height="340.000000pt" viewBox="0 0 340.000000 340.000000"
 preserveAspectRatio="xMidYMid meet">
<metadata>
Created by potrace 1.15, written by Peter Selinger 2001-2017
</metadata>
<g transform="translate(0.000000,340.000000) scale(0.100000,-0.100000)"
fill="#000000" stroke="none">
<path d="M2665 2273 c-141 -20 -477 -82 -641 -118 -130 -29 -226 -45 -270 -45
-38 0 -79 -3 -91 -6 -19 -5 -20 -9 -12 -32 6 -15 28 -50 49 -78 57 -72 74
-148 65 -283 -20 -327 -84 -664 -160 -841 -38 -88 -197 -407 -249 -498 -38
-67 -45 -102 -22 -102 36 0 194 228 287 413 85 171 179 488 224 757 8 52 17
104 20 116 4 19 14 22 97 27 60 4 128 17 192 37 54 16 119 30 144 30 l45 0 -6
-87 c-3 -53 -16 -122 -32 -173 -61 -191 -254 -527 -460 -800 -84 -111 -105
-149 -105 -187 0 -26 4 -23 76 47 42 41 105 111 140 155 91 112 258 364 349
528 43 75 82 137 89 137 6 -1 74 -26 151 -58 l139 -57 -3 -50 c-8 -137 -54
-315 -120 -460 -27 -60 -158 -275 -167 -275 -1 0 -18 21 -35 48 -50 72 -97
126 -147 168 -43 35 -46 36 -58 19 -22 -30 -17 -51 35 -159 41 -85 61 -113
116 -164 36 -34 71 -62 78 -62 7 0 37 12 65 26 54 27 96 76 122 144 7 19 37
82 65 140 65 130 134 304 170 429 72 249 -16 360 -302 378 -51 3 -93 7 -93 8
0 2 11 27 24 56 31 69 50 177 42 239 l-7 49 38 10 c72 18 158 31 256 38 l99 6
15 33 c20 41 12 61 -31 79 -44 19 -118 9 -316 -39 -183 -44 -307 -83 -453
-140 -63 -24 -136 -48 -162 -52 -45 -6 -48 -5 -41 12 17 42 19 228 2 314 -17
91 -14 99 34 100 14 0 61 7 105 16 169 31 345 54 494 64 169 12 230 28 261 67
27 35 25 57 -5 71 -26 12 -43 13 -100 5z"/>
<path d="M1370 2185 c-204 -60 -423 -114 -490 -120 -83 -8 -102 -18 -78 -41
32 -32 102 -28 423 26 359 60 399 74 381 143 -6 25 -10 27 -64 26 -34 0 -104
-14 -172 -34z"/>
<path d="M1099 1973 c-7 -20 -6 -38 4 -70 14 -41 13 -45 -33 -170 -26 -70 -70
-177 -98 -236 -47 -100 -53 -108 -74 -102 -47 15 -45 19 -32 -75 4 -31 -5 -48
-80 -155 -126 -178 -337 -537 -324 -550 4 -4 15 -4 26 -1 21 7 223 272 348
458 43 64 82 117 85 118 12 0 69 -223 109 -423 22 -109 42 -203 45 -208 9 -13
32 -11 42 3 4 7 10 44 13 83 l5 70 155 0 c170 0 205 9 228 60 18 40 15 53 -18
70 -37 19 -37 34 -5 114 38 94 74 255 81 361 l6 95 -38 25 c-32 21 -49 25
-113 25 -74 0 -81 -3 -255 -83 -98 -45 -181 -81 -183 -78 -6 6 19 58 71 141
97 156 204 421 192 471 -10 37 -72 84 -112 84 -28 0 -36 -5 -45 -27z m339
-650 c11 -21 -13 -169 -55 -347 l-28 -120 -95 -34 c-52 -18 -103 -36 -112 -39
-12 -4 -18 2 -22 18 -47 243 -62 312 -77 363 -10 33 -15 64 -11 67 12 13 338
106 374 108 10 1 21 -7 26 -16z"/>
</g>
</svg>
