<?xml version="1.0" standalone="no"?>
<!DOCTYPE svg PUBLIC "-//W3C//DTD SVG 20010904//EN"
 "http://www.w3.org/TR/2001/REC-SVG-20010904/DTD/svg10.dtd">
<svg version="1.0" xmlns="http://www.w3.org/2000/svg"
 width="340.000000pt" height="340.000000pt" viewBox="0 0 340.000000 340.000000"
 preserveAspectRatio="xMidYMid meet">
<metadata>
Created by potrace 1.15, written by Peter Selinger 2001-2017
</metadata>
<g transform="translate(0.000000,340.000000) scale(0.100000,-0.100000)"
fill="#000000" stroke="none">
<path d="M2060 2520 c-24 -24 -20 -51 11 -86 19 -20 19 -21 -12 -50 -51 -48
-114 -135 -149 -204 -18 -36 -34 -66 -35 -68 -2 -2 -18 4 -35 13 -36 18 -75
14 -84 -10 -3 -9 11 -39 33 -73 57 -82 79 -148 101 -291 19 -125 31 -189 51
-263 8 -33 14 -38 39 -38 16 0 31 4 34 9 4 5 45 12 94 16 171 12 386 48 410
68 22 18 70 119 112 240 22 61 61 158 86 215 39 85 45 108 39 139 -14 76 -110
122 -226 110 -147 -15 -420 -71 -503 -103 -34 -13 1 35 52 69 68 47 131 107
149 141 16 30 21 115 9 135 -12 19 -59 39 -108 46 -39 6 -49 4 -68 -15z m485
-415 c14 -13 25 -33 25 -43 0 -58 -119 -429 -143 -444 -7 -4 -31 -8 -54 -8
-51 0 -236 -35 -294 -55 -23 -9 -43 -14 -45 -13 -3 4 -35 221 -32 223 2 1 48
7 103 13 55 6 130 20 167 32 57 17 65 23 61 40 -8 29 -51 60 -85 60 -16 0 -74
-13 -130 -30 -55 -16 -106 -30 -113 -30 -8 0 -16 18 -20 43 -4 23 -16 66 -27
95 -11 30 -16 58 -12 62 10 9 253 44 413 60 58 6 107 12 109 15 13 13 55 2 77
-20z"/>
<path d="M1395 2424 c-66 -18 -192 -50 -280 -69 -88 -20 -164 -37 -169 -39 -6
-1 1 -13 14 -26 22 -22 27 -23 131 -17 90 5 108 3 113 -10 3 -8 6 -69 6 -135
0 -172 -15 -191 -197 -239 -46 -12 -83 -26 -83 -30 0 -4 8 -15 17 -24 17 -18
36 -18 194 1 l56 6 6 -108 c4 -60 13 -132 21 -161 l14 -51 -107 -45 c-181 -78
-214 -89 -270 -96 -61 -7 -78 -23 -67 -65 5 -20 19 -33 53 -48 89 -39 130 -24
458 170 203 120 265 163 265 183 0 13 -7 19 -23 19 -34 0 -125 -29 -180 -57
l-49 -24 8 153 c3 84 8 154 9 156 1 1 29 9 61 17 71 19 174 67 198 94 17 19
17 21 -8 45 -32 33 -59 33 -161 1 -44 -14 -80 -25 -81 -25 -1 0 1 42 3 93 3
66 0 106 -11 142 -8 27 -12 52 -8 56 4 3 29 12 56 18 53 13 148 58 184 87 21
18 22 20 7 42 -21 28 -36 27 -180 -14z"/>
<path d="M2130 1373 c-14 -2 -97 -15 -185 -28 -88 -14 -266 -45 -395 -70 -129
-24 -256 -47 -281 -50 -26 -3 -54 -12 -64 -19 -17 -12 -16 -14 6 -34 28 -27
96 -29 255 -7 108 16 109 16 127 -6 9 -12 17 -25 17 -30 0 -19 -174 -223 -290
-339 -150 -151 -282 -262 -439 -369 -180 -124 -194 -134 -218 -170 -30 -45
-29 -55 4 -46 111 27 329 169 588 384 44 36 88 72 97 79 15 12 20 1 57 -110
22 -68 54 -180 72 -251 29 -116 34 -128 57 -134 39 -9 57 8 60 60 3 46 3 46
45 51 65 8 389 27 517 30 91 2 127 7 173 25 51 20 57 25 51 44 -12 39 -35 57
-76 57 -21 0 -38 2 -38 4 0 2 16 28 35 58 64 97 135 274 135 339 0 10 -20 25
-52 40 -68 30 -194 32 -323 6 -49 -11 -148 -30 -220 -44 -71 -13 -174 -35
-227 -49 -102 -25 -128 -29 -128 -16 0 4 40 48 88 97 114 116 176 218 177 289
l0 50 75 13 c41 7 157 19 257 26 152 11 185 16 202 31 25 23 26 44 5 74 -13
19 -24 22 -77 21 -34 -1 -73 -4 -87 -6z m90 -622 c0 -21 -31 -140 -54 -207
-39 -116 -37 -114 -112 -114 -89 0 -241 -17 -353 -41 -52 -10 -97 -19 -101
-19 -4 0 -10 23 -14 51 -8 61 -51 199 -77 252 -23 45 -26 43 96 51 50 4 140
13 200 20 129 16 415 20 415 7z"/>
</g>
</svg>
