<?xml version="1.0" standalone="no"?>
<!DOCTYPE svg PUBLIC "-//W3C//DTD SVG 20010904//EN"
 "http://www.w3.org/TR/2001/REC-SVG-20010904/DTD/svg10.dtd">
<svg version="1.0" xmlns="http://www.w3.org/2000/svg"
 width="340.000000pt" height="340.000000pt" viewBox="0 0 340.000000 340.000000"
 preserveAspectRatio="xMidYMid meet">
<metadata>
Created by potrace 1.15, written by Peter Selinger 2001-2017
</metadata>
<g transform="translate(0.000000,340.000000) scale(0.100000,-0.100000)"
fill="#000000" stroke="none">
<path d="M1795 2356 c-18 -13 -17 -14 6 -29 13 -8 88 -45 166 -82 l142 -67 30
22 c94 66 -53 170 -242 170 -54 0 -90 -5 -102 -14z"/>
<path d="M2240 2130 c-113 -26 -281 -69 -373 -94 -93 -25 -181 -46 -197 -46
-30 0 -43 -18 -29 -41 6 -11 35 -14 121 -14 108 0 128 4 432 80 294 74 319 82
328 104 6 17 5 28 -4 37 -28 27 -75 22 -278 -26z"/>
<path d="M1055 2016 c-295 -104 -296 -105 -285 -126 21 -39 99 -35 290 16 112
31 264 90 281 110 9 11 9 21 1 39 -19 42 -80 33 -287 -39z"/>
<path d="M2240 1957 c-20 -10 -26 -22 -30 -62 -3 -34 -20 -77 -52 -135 -25
-47 -59 -111 -74 -142 -27 -55 -28 -57 -89 -72 -34 -8 -132 -38 -217 -66 -86
-27 -158 -50 -160 -50 -3 0 -10 24 -17 53 -12 55 -44 117 -61 117 -14 0 -27
-29 -35 -80 -3 -25 -22 -114 -42 -198 -33 -146 -34 -155 -17 -173 25 -28 59
-24 83 10 12 16 34 73 50 126 16 53 31 98 34 102 3 3 75 16 159 29 84 13 223
42 308 63 153 39 324 64 510 76 l94 6 -22 -24 c-70 -74 37 -110 209 -71 75 17
89 30 89 84 0 72 -51 102 -200 121 -115 14 -196 7 -360 -31 -69 -15 -140 -31
-158 -34 -37 -6 -36 -4 9 54 43 54 80 145 86 209 5 54 4 59 -22 79 -32 25 -41
26 -75 9z"/>
<path d="M1870 1829 c-22 -89 7 -211 54 -228 13 -6 37 -6 53 -2 27 7 28 10 27
68 -1 66 -22 130 -60 181 -37 48 -59 43 -74 -19z"/>
<path d="M956 1818 c-9 -14 -15 -45 -15 -74 1 -35 -15 -95 -56 -214 -69 -200
-77 -216 -111 -224 -21 -6 -25 -11 -19 -29 3 -12 7 -26 7 -32 1 -5 -33 -71
-74 -145 -147 -265 -268 -500 -268 -521 0 -14 5 -19 17 -17 22 4 184 233 282
398 44 74 84 141 89 149 5 9 31 -69 73 -224 36 -131 70 -240 75 -242 6 -2 21
5 34 15 18 15 24 31 26 72 3 42 9 60 29 79 22 23 35 26 123 31 106 5 122 12
148 63 15 28 15 30 -17 56 l-32 27 26 95 c30 105 47 207 47 286 0 44 -4 55
-23 68 -83 54 -145 45 -272 -41 -53 -35 -101 -64 -106 -64 -11 0 15 59 82 188
50 95 54 108 54 170 0 90 -26 146 -72 150 -24 2 -35 -2 -47 -20z m243 -541 c0
-18 -12 -96 -27 -174 l-27 -142 -70 -35 c-38 -19 -71 -33 -73 -31 -2 2 -12 42
-22 90 -11 47 -35 126 -55 174 -19 49 -35 94 -35 100 0 6 18 11 44 11 23 0 57
5 74 11 41 14 175 37 185 32 4 -2 7 -19 6 -36z"/>
<path d="M1989 1384 c-12 -14 -7 -21 31 -55 66 -58 111 -79 169 -79 71 0 81 6
71 39 -24 86 -64 111 -176 111 -63 0 -85 -4 -95 -16z"/>
<path d="M2450 1219 c-91 -21 -196 -44 -235 -50 -38 -6 -91 -22 -116 -34 -25
-13 -173 -64 -329 -114 -156 -50 -285 -92 -286 -94 -2 -2 3 -13 12 -25 10 -15
26 -22 47 -22 18 0 152 34 300 76 147 43 270 74 274 70 4 -4 -10 -41 -30 -81
-46 -89 -180 -248 -369 -439 -76 -77 -138 -145 -138 -153 0 -27 45 -11 124 44
166 116 323 261 435 406 29 37 58 67 65 67 13 0 159 -87 206 -122 l22 -16 -49
-104 c-67 -138 -193 -314 -193 -269 0 5 -13 23 -29 40 -22 23 -38 31 -65 31
-30 0 -37 -4 -42 -25 -15 -62 26 -170 81 -214 24 -18 28 -19 70 -5 63 22 126
82 197 187 92 137 136 245 151 375 4 37 1 48 -26 84 -18 23 -52 52 -77 66 -40
21 -53 23 -127 18 -45 -3 -85 -1 -88 4 -3 4 8 37 25 72 16 34 30 68 30 75 0 6
19 14 43 17 23 3 114 15 202 26 171 21 185 27 185 79 0 37 -11 50 -51 61 -42
12 -24 15 -219 -31z"/>
</g>
</svg>
