<?xml version="1.0" standalone="no"?>
<!DOCTYPE svg PUBLIC "-//W3C//DTD SVG 20010904//EN"
 "http://www.w3.org/TR/2001/REC-SVG-20010904/DTD/svg10.dtd">
<svg version="1.0" xmlns="http://www.w3.org/2000/svg"
 width="340.000000pt" height="340.000000pt" viewBox="0 0 340.000000 340.000000"
 preserveAspectRatio="xMidYMid meet">
<metadata>
Created by potrace 1.15, written by Peter Selinger 2001-2017
</metadata>
<g transform="translate(0.000000,340.000000) scale(0.100000,-0.100000)"
fill="#000000" stroke="none">
<path d="M1001 2316 c-12 -14 -11 -19 4 -35 32 -36 197 -111 279 -128 76 -15
80 -15 93 3 37 51 5 94 -100 135 -102 39 -253 53 -276 25z"/>
<path d="M1900 2245 c-9 -11 -9 -24 4 -62 25 -79 29 -142 12 -223 -40 -197
-75 -581 -83 -926 -6 -246 -5 -264 15 -330 53 -173 169 -266 367 -295 102 -15
365 -18 468 -6 56 7 75 15 104 40 58 51 83 116 83 218 0 98 -12 126 -51 116
-29 -7 -51 -48 -84 -152 -26 -81 -33 -86 -147 -109 -162 -33 -311 -16 -453 54
-119 58 -130 70 -160 175 -91 317 -71 627 87 1342 16 70 -1 127 -45 153 -38
23 -100 26 -117 5z"/>
<path d="M1350 1960 c-14 -4 -110 -50 -215 -102 -271 -134 -492 -230 -548
-239 -53 -9 -77 -23 -77 -47 0 -12 16 -14 103 -10 122 6 160 18 441 147 110
50 201 89 203 88 12 -13 -153 -236 -524 -712 -128 -164 -156 -215 -117 -215
33 0 376 366 448 477 12 18 26 31 31 29 14 -4 9 -559 -6 -702 -6 -61 -12 -180
-13 -264 -1 -135 1 -154 16 -164 24 -15 50 2 59 40 19 78 60 653 62 864 1 145
0 160 -26 234 l-28 78 73 77 c81 84 149 181 198 282 40 81 36 113 -15 135 -19
8 -36 14 -37 13 -2 0 -14 -4 -28 -9z"/>
<path d="M1280 1401 c0 -20 29 -74 72 -136 52 -73 118 -111 173 -101 19 4 35
13 35 20 0 7 -14 40 -30 73 -42 84 -115 137 -205 150 -31 4 -45 2 -45 -6z"/>
</g>
</svg>
