<?xml version="1.0" standalone="no"?>
<!DOCTYPE svg PUBLIC "-//W3C//DTD SVG 20010904//EN"
 "http://www.w3.org/TR/2001/REC-SVG-20010904/DTD/svg10.dtd">
<svg version="1.0" xmlns="http://www.w3.org/2000/svg"
 width="340.000000pt" height="340.000000pt" viewBox="0 0 340.000000 340.000000"
 preserveAspectRatio="xMidYMid meet">
<metadata>
Created by potrace 1.15, written by Peter Selinger 2001-2017
</metadata>
<g transform="translate(0.000000,340.000000) scale(0.100000,-0.100000)"
fill="#000000" stroke="none">
<path d="M1617 2669 c-17 -24 -12 -53 17 -92 19 -26 21 -45 24 -190 2 -89 1
-189 -3 -223 l-6 -61 -157 -26 c-86 -14 -157 -25 -158 -24 -2 1 6 27 16 57 24
69 25 114 1 165 -24 53 -83 105 -110 98 -24 -6 -27 -33 -10 -82 15 -43 -2
-127 -41 -203 -32 -61 -38 -110 -18 -154 l12 -26 106 4 c90 4 118 10 195 40
50 19 109 38 133 42 l42 6 0 -37 c-1 -48 -18 -229 -25 -264 -5 -24 -13 -28
-68 -38 -65 -13 -229 -54 -259 -66 -15 -6 -18 -1 -18 35 0 67 -20 129 -55 166
-37 39 -45 41 -73 17 -19 -16 -20 -23 -12 -67 7 -35 6 -67 -4 -117 -17 -80 -9
-123 29 -159 l25 -24 92 18 c50 9 146 35 212 57 67 22 154 47 194 55 93 18
295 42 386 46 l70 3 9 -35 c16 -64 44 -76 90 -40 50 39 76 232 48 348 -11 42
-20 58 -45 73 -64 39 -102 17 -92 -53 19 -135 19 -152 -3 -172 -15 -14 -45
-21 -118 -27 -54 -5 -131 -14 -171 -19 -40 -6 -80 -10 -88 -10 -11 0 -14 28
-14 159 0 97 4 162 10 166 20 12 326 65 378 65 64 0 97 27 107 86 4 22 13 58
21 82 17 51 18 130 3 169 -19 51 -69 93 -109 93 -65 0 -78 -38 -33 -103 l27
-39 -25 -97 -24 -96 -40 -3 c-70 -5 -273 -32 -290 -38 -16 -6 -17 12 -14 240
l4 248 -37 34 c-46 42 -107 48 -131 13z"/>
<path d="M1940 1463 c-83 -13 -294 -58 -409 -88 -74 -19 -148 -35 -163 -35
-39 0 -68 -17 -68 -39 0 -37 116 -40 358 -11 179 22 248 37 330 71 45 19 52
25 52 49 0 41 -40 62 -100 53z"/>
<path d="M2275 1176 c-391 -51 -666 -91 -1020 -151 -176 -30 -365 -62 -420
-71 -127 -20 -166 -30 -190 -48 -20 -14 -20 -14 0 -36 27 -29 88 -60 120 -60
35 0 362 73 515 115 131 36 216 52 289 57 65 4 82 -23 92 -149 11 -130 11
-455 1 -471 -7 -10 -14 -10 -38 3 -38 20 -90 20 -98 -1 -21 -54 0 -99 75 -159
69 -58 115 -61 159 -14 25 28 29 42 37 128 17 205 5 622 -21 682 -6 13 4 18
51 28 227 44 574 63 743 41 172 -23 200 -16 200 52 0 23 -8 32 -51 53 -76 39
-145 39 -444 1z"/>
<path d="M2020 841 c0 -29 27 -71 70 -111 27 -25 73 -79 102 -121 138 -198
154 -219 186 -234 41 -20 78 -13 86 17 10 41 6 128 -8 161 -20 45 -150 168
-221 209 -120 68 -215 103 -215 79z"/>
<path d="M1278 762 c-78 -87 -208 -288 -208 -322 0 -9 9 -26 21 -39 26 -28 51
-21 102 28 75 71 136 201 151 319 6 47 5 52 -12 52 -11 0 -35 -17 -54 -38z"/>
</g>
</svg>
