<?xml version="1.0" standalone="no"?>
<!DOCTYPE svg PUBLIC "-//W3C//DTD SVG 20010904//EN"
 "http://www.w3.org/TR/2001/REC-SVG-20010904/DTD/svg10.dtd">
<svg version="1.0" xmlns="http://www.w3.org/2000/svg"
 width="340.000000pt" height="340.000000pt" viewBox="0 0 340.000000 340.000000"
 preserveAspectRatio="xMidYMid meet">
<metadata>
Created by potrace 1.15, written by Peter Selinger 2001-2017
</metadata>
<g transform="translate(0.000000,340.000000) scale(0.100000,-0.100000)"
fill="#000000" stroke="none">
<path d="M1097 2509 c-16 -10 -18 -19 -12 -70 10 -84 -10 -121 -228 -419 -102
-140 -183 -258 -181 -262 22 -35 109 29 264 194 l86 91 42 -30 c43 -32 131
-59 157 -50 11 5 12 13 5 39 -13 44 -60 85 -114 99 l-45 11 45 55 c48 58 92
139 118 216 15 44 15 51 0 78 -24 47 -96 72 -137 48z"/>
<path d="M2145 2496 c-34 -13 -112 -49 -174 -81 -98 -50 -111 -59 -99 -72 13
-12 30 -12 132 2 171 22 167 23 114 -33 -91 -98 -208 -279 -191 -296 52 -51
299 179 394 367 28 54 29 59 14 87 -29 56 -89 65 -190 26z"/>
<path d="M1430 2406 c-107 -47 -160 -75 -160 -85 0 -23 33 -32 107 -29 77 3
78 3 81 -22 2 -16 -27 -78 -84 -180 -99 -180 -223 -380 -234 -380 -4 0 -15 9
-26 21 -35 39 -115 72 -185 77 -44 3 -69 1 -73 -7 -22 -36 117 -155 195 -167
22 -4 38 -10 37 -15 -11 -29 -282 -341 -480 -551 -117 -124 -143 -158 -120
-158 13 0 120 76 202 145 249 208 590 634 867 1085 87 141 103 187 81 234 -17
35 -69 66 -110 66 -12 0 -57 -15 -98 -34z"/>
<path d="M1600 2132 c0 -17 34 -54 69 -76 36 -23 257 -227 623 -578 169 -160
206 -191 269 -221 84 -39 139 -53 252 -62 93 -7 130 8 125 51 -3 22 -16 30
-107 65 -124 46 -242 108 -371 195 -119 79 -159 112 -307 248 -214 199 -553
430 -553 378z"/>
<path d="M1642 1586 c-62 -19 -151 -48 -198 -66 -46 -17 -92 -29 -100 -26 -9
3 -27 3 -40 0 -20 -5 -24 -12 -22 -33 3 -24 7 -26 53 -29 130 -9 495 57 522
94 14 19 17 52 7 78 -10 26 -96 19 -222 -18z"/>
<path d="M1880 1294 c-224 -42 -485 -107 -680 -168 -80 -26 -189 -58 -244 -73
l-99 -27 27 -23 c39 -34 82 -30 278 26 95 26 215 59 267 71 110 27 106 29 143
-79 22 -63 23 -80 23 -353 0 -157 -3 -289 -7 -293 -4 -4 -28 0 -54 9 -44 15
-49 15 -65 0 -42 -38 -32 -73 39 -139 49 -45 94 -61 132 -45 58 24 68 45 79
175 21 240 8 596 -25 717 -9 32 -15 61 -12 63 19 19 165 38 335 42 184 5 194
6 218 29 31 29 31 36 1 71 -36 42 -123 41 -356 -3z"/>
<path d="M1944 924 c3 -9 6 -20 6 -25 0 -4 35 -32 78 -61 87 -59 185 -149 240
-221 37 -49 104 -97 136 -97 29 0 76 30 76 48 0 36 -51 124 -100 173 -53 53
-124 90 -307 163 -102 40 -139 46 -129 20z"/>
<path d="M1209 833 c-35 -54 -86 -124 -113 -158 -59 -73 -85 -128 -86 -177 0
-42 4 -44 62 -28 45 13 93 52 114 92 18 35 114 332 114 353 0 37 -32 7 -91
-82z"/>
</g>
</svg>
