<?xml version="1.0" standalone="no"?>
<!DOCTYPE svg PUBLIC "-//W3C//DTD SVG 20010904//EN"
 "http://www.w3.org/TR/2001/REC-SVG-20010904/DTD/svg10.dtd">
<svg version="1.0" xmlns="http://www.w3.org/2000/svg"
 width="340.000000pt" height="340.000000pt" viewBox="0 0 340.000000 340.000000"
 preserveAspectRatio="xMidYMid meet">
<metadata>
Created by potrace 1.15, written by Peter Selinger 2001-2017
</metadata>
<g transform="translate(0.000000,340.000000) scale(0.100000,-0.100000)"
fill="#000000" stroke="none">
<path d="M1373 2584 c-22 -10 -14 -51 15 -85 23 -28 27 -42 27 -93 0 -98 -14
-116 -122 -153 -50 -17 -138 -42 -195 -54 -57 -13 -105 -25 -108 -27 -3 -2 6
-12 19 -23 26 -21 84 -25 142 -9 41 11 222 40 227 35 8 -7 -32 -152 -47 -169
-24 -28 -83 -51 -198 -76 -127 -28 -136 -34 -103 -61 27 -23 72 -23 199 1 30
5 57 7 59 5 7 -6 -24 -86 -65 -172 l-35 -72 -221 -54 c-191 -47 -222 -57 -222
-73 0 -37 45 -40 212 -11 86 14 159 24 161 22 6 -6 -41 -86 -96 -165 -104
-149 -232 -281 -387 -400 -38 -29 -85 -67 -103 -84 -33 -31 -78 -104 -69 -113
8 -7 124 54 217 115 177 114 405 372 564 637 l36 59 186 42 186 41 187 -155
c196 -163 258 -217 463 -399 175 -157 262 -193 470 -193 l106 0 10 30 c14 40
-7 63 -78 88 -30 10 -125 47 -210 82 -125 51 -182 82 -295 158 -191 128 -534
384 -534 399 -1 6 11 14 27 17 42 8 214 24 344 31 96 6 123 11 143 27 29 23
32 44 8 77 -16 23 -18 24 -132 17 -69 -4 -197 -22 -316 -46 -110 -22 -216 -40
-235 -40 -20 0 -45 -6 -55 -14 -20 -14 -206 -58 -213 -51 -2 2 10 47 28 99 37
113 72 152 142 160 210 23 290 41 401 88 51 22 58 37 27 68 -24 24 -85 27
-134 6 -40 -17 -334 -81 -340 -75 -8 8 45 173 59 185 15 11 184 46 337 69 54
7 106 19 118 25 51 27 62 100 15 100 -35 0 -305 -47 -375 -65 -33 -9 -65 -13
-71 -10 -6 4 -7 34 -3 78 7 84 -9 135 -50 162 -27 18 -101 29 -123 19z"/>
<path d="M1592 1490 c-12 -21 -31 -35 -67 -46 -100 -33 -309 -150 -331 -185
-8 -14 17 -40 42 -41 11 -1 56 9 101 22 46 13 86 20 90 16 4 -4 8 -48 8 -98
l0 -91 -55 -19 c-30 -11 -129 -38 -220 -62 -140 -36 -165 -45 -165 -61 0 -12
10 -21 28 -26 39 -10 217 8 309 31 43 11 89 20 103 20 l25 0 0 -168 c0 -93 -3
-223 -6 -289 l-7 -121 -30 -13 c-47 -22 -55 -42 -32 -85 26 -48 69 -77 118
-78 32 -1 43 4 61 27 20 28 21 39 24 401 l3 373 63 7 c93 9 266 72 266 96 0
21 -55 52 -85 47 -16 -3 -61 -10 -100 -16 -38 -6 -85 -16 -103 -22 -18 -6 -35
-9 -38 -6 -8 8 -35 190 -30 204 3 7 16 13 28 13 37 0 99 42 119 80 39 72 13
120 -64 120 -32 0 -41 -5 -55 -30z"/>
<path d="M1800 806 c0 -21 38 -72 70 -97 18 -13 88 -77 155 -141 130 -126 153
-137 203 -102 28 19 28 37 -2 99 -54 115 -213 218 -373 244 -37 5 -53 5 -53
-3z"/>
<path d="M1105 727 c-55 -56 -85 -99 -120 -169 l-46 -93 26 -22 c31 -28 42
-28 76 -5 78 51 161 191 174 289 6 46 5 53 -16 63 -20 11 -28 6 -94 -63z"/>
</g>
</svg>
