<?xml version="1.0" standalone="no"?>
<!DOCTYPE svg PUBLIC "-//W3C//DTD SVG 20010904//EN"
 "http://www.w3.org/TR/2001/REC-SVG-20010904/DTD/svg10.dtd">
<svg version="1.0" xmlns="http://www.w3.org/2000/svg"
 width="340.000000pt" height="340.000000pt" viewBox="0 0 340.000000 340.000000"
 preserveAspectRatio="xMidYMid meet">
<metadata>
Created by potrace 1.15, written by Peter Selinger 2001-2017
</metadata>
<g transform="translate(0.000000,340.000000) scale(0.100000,-0.100000)"
fill="#000000" stroke="none">
<path d="M1850 2467 c-36 -18 -36 -44 -1 -81 59 -61 63 -85 69 -371 l5 -260
-94 -37 c-52 -20 -111 -40 -132 -43 -43 -8 -43 -17 7 102 28 67 32 115 16 175
-15 53 -34 68 -86 68 -39 0 -44 -3 -50 -26 -4 -14 -4 -57 -1 -95 5 -63 3 -75
-32 -156 -21 -48 -64 -155 -95 -237 -52 -133 -56 -150 -43 -164 14 -13 19 -12
44 14 15 17 63 82 106 147 l78 117 77 0 c42 0 104 7 137 14 33 8 62 13 64 11
5 -5 -38 -385 -45 -396 -3 -5 -12 -9 -20 -9 -8 0 -104 -30 -212 -66 -108 -37
-219 -69 -247 -73 -41 -5 -51 -10 -53 -27 -3 -19 3 -22 45 -27 100 -11 276 19
363 63 19 9 53 20 74 24 l39 7 -6 -45 c-13 -95 -81 -254 -150 -356 -40 -57
-177 -201 -221 -231 -37 -25 -66 -67 -66 -94 0 -15 6 -17 37 -12 183 30 440
338 499 597 10 41 20 78 23 82 4 4 33 -37 65 -92 89 -151 207 -301 350 -448
108 -110 142 -139 200 -167 148 -73 352 -68 323 7 -3 8 -61 42 -129 75 -148
72 -297 163 -357 218 -109 100 -421 467 -421 495 0 14 9 21 33 24 238 38 327
50 491 62 53 3 99 12 113 21 31 21 29 57 -4 83 -26 20 -35 21 -123 15 -120 -8
-255 -29 -392 -60 -59 -14 -113 -25 -120 -25 -15 0 -10 104 12 291 l12 96 86
18 c48 10 149 38 225 62 l137 44 0 34 c0 40 -29 75 -60 75 -11 0 -97 -25 -190
-55 -93 -30 -174 -55 -180 -55 -7 0 -10 81 -10 248 1 226 0 253 -20 316 -27
85 -55 116 -107 116 -21 0 -49 -6 -63 -13z"/>
<path d="M1286 2389 c-8 -12 -12 -27 -9 -35 2 -7 -4 -18 -14 -24 -10 -5 -90
-51 -178 -101 -208 -119 -347 -209 -342 -223 8 -24 68 -16 168 23 57 22 103
39 104 38 0 -1 6 -20 12 -42 6 -22 18 -58 27 -80 10 -27 15 -76 16 -151 l0
-111 -72 -28 c-109 -42 -283 -126 -371 -178 -43 -26 -89 -47 -101 -47 -32 0
-58 -22 -50 -43 5 -13 18 -17 58 -17 79 0 147 22 309 99 81 39 151 71 157 71
5 0 -13 -47 -40 -104 -46 -99 -131 -229 -365 -561 -100 -142 -115 -172 -91
-181 50 -19 356 342 493 582 l68 119 3 -235 c3 -257 -10 -534 -34 -705 -29
-209 -29 -222 -6 -234 21 -11 76 1 99 23 6 6 19 47 29 91 15 68 18 142 22 493
2 226 6 412 10 412 4 0 33 -18 66 -40 88 -60 138 -54 152 17 5 27 0 35 -48 77
-29 26 -81 60 -115 77 l-63 30 0 89 c0 120 6 133 69 149 50 13 154 73 179 103
11 14 9 19 -14 37 -35 28 -77 26 -143 -4 -73 -34 -86 -23 -70 57 21 105 -5
182 -81 237 -44 32 -44 32 15 51 57 18 222 104 278 146 45 32 48 38 42 67 -10
50 -47 77 -105 77 -38 0 -52 -5 -64 -21z"/>
</g>
</svg>
