<?xml version="1.0" standalone="no"?>
<!DOCTYPE svg PUBLIC "-//W3C//DTD SVG 20010904//EN"
 "http://www.w3.org/TR/2001/REC-SVG-20010904/DTD/svg10.dtd">
<svg version="1.0" xmlns="http://www.w3.org/2000/svg"
 width="340.000000pt" height="340.000000pt" viewBox="0 0 340.000000 340.000000"
 preserveAspectRatio="xMidYMid meet">
<metadata>
Created by potrace 1.15, written by Peter Selinger 2001-2017
</metadata>
<g transform="translate(0.000000,340.000000) scale(0.100000,-0.100000)"
fill="#000000" stroke="none">
<path d="M2061 2507 c-19 -19 -13 -33 25 -62 69 -53 74 -77 73 -370 0 -143 -4
-280 -7 -305 l-7 -44 -89 -35 -88 -35 23 -19 c18 -14 33 -17 64 -13 22 3 78
10 125 15 47 5 130 16 185 25 163 27 181 11 201 -177 24 -227 37 -610 29 -855
l-7 -235 -26 33 c-42 54 -132 81 -132 40 0 -59 112 -255 161 -280 35 -19 90
-8 112 22 20 26 20 32 7 319 -8 174 -10 368 -6 478 6 184 -5 461 -25 616 -9
72 -13 83 -42 107 -87 75 -204 97 -311 59 l-59 -21 7 193 c3 105 9 251 12 322
6 126 5 131 -18 165 -13 19 -35 40 -48 46 -36 17 -146 24 -159 11z"/>
<path d="M1455 2380 c-11 -12 -15 -28 -12 -42 5 -21 -8 -30 -151 -100 -155
-77 -337 -196 -337 -220 0 -27 71 -20 161 16 48 20 89 36 91 36 2 0 3 -12 3
-28 0 -15 7 -38 16 -51 14 -20 32 -153 34 -253 0 -54 -31 -72 -338 -192 -234
-92 -299 -114 -326 -109 -28 4 -36 1 -46 -17 -6 -12 -10 -24 -7 -26 2 -3 32
-9 67 -15 111 -18 188 0 413 97 109 47 201 84 203 81 2 -2 -18 -52 -46 -111
-35 -75 -109 -192 -245 -390 -107 -156 -195 -288 -195 -295 0 -72 251 195 440
470 l50 73 0 -175 c0 -280 -30 -662 -56 -724 -16 -40 -9 -85 18 -114 25 -28
53 -26 83 3 48 48 53 96 59 586 4 270 10 458 16 464 6 6 25 -8 52 -38 50 -55
114 -91 181 -101 l47 -7 0 46 c0 68 -32 97 -159 145 -57 22 -108 44 -115 51
-6 6 -10 35 -10 65 2 76 28 109 102 130 75 22 135 57 167 99 14 18 25 36 25
39 0 12 -82 28 -113 22 -18 -4 -52 -18 -76 -31 -71 -39 -72 -38 -64 80 6 100
5 107 -21 160 -15 31 -39 65 -53 76 -18 14 -22 21 -12 25 8 3 41 14 74 25 65
23 171 82 224 127 33 28 34 30 22 66 -16 46 -44 66 -103 72 -36 4 -49 0 -63
-15z"/>
<path d="M2638 2264 c-5 -4 -8 -20 -8 -35 0 -47 -22 -79 -76 -114 -36 -23 -58
-46 -73 -77 -35 -73 -31 -81 39 -76 48 3 68 11 102 36 24 18 66 47 94 66 78
52 93 112 41 171 -22 26 -103 46 -119 29z"/>
<path d="M1705 2108 c10 -49 90 -210 117 -235 26 -24 69 -43 100 -43 19 0 20
4 16 65 -4 44 -14 78 -32 109 -38 65 -135 136 -186 136 -19 0 -21 -4 -15 -32z"/>
<path d="M1838 1604 c-9 -19 -9 -35 1 -67 26 -89 34 -169 35 -372 0 -215 -15
-368 -49 -479 -8 -27 -15 -81 -15 -119 0 -70 25 -187 40 -187 16 0 60 62 69
98 5 20 17 109 26 197 9 88 19 163 21 166 2 3 64 9 138 12 75 3 154 11 175 18
40 12 111 63 111 80 0 5 -19 19 -42 31 -67 34 -126 30 -238 -19 -147 -63 -140
-62 -140 -11 1 51 17 232 25 268 5 25 6 25 123 25 147 0 258 25 274 61 17 36
-3 71 -44 79 -28 5 -175 -27 -332 -72 -17 -5 -18 -1 -13 43 14 128 -52 274
-124 274 -22 0 -32 -6 -41 -26z"/>
</g>
</svg>
