<?xml version="1.0" standalone="no"?>
<!DOCTYPE svg PUBLIC "-//W3C//DTD SVG 20010904//EN"
 "http://www.w3.org/TR/2001/REC-SVG-20010904/DTD/svg10.dtd">
<svg version="1.0" xmlns="http://www.w3.org/2000/svg"
 width="340.000000pt" height="340.000000pt" viewBox="0 0 340.000000 340.000000"
 preserveAspectRatio="xMidYMid meet">
<metadata>
Created by potrace 1.15, written by Peter Selinger 2001-2017
</metadata>
<g transform="translate(0.000000,340.000000) scale(0.100000,-0.100000)"
fill="#000000" stroke="none">
<path d="M1902 2444 c-31 -21 -27 -46 8 -66 17 -10 38 -34 46 -55 22 -52 22
-142 0 -176 -26 -39 -161 -88 -358 -131 -57 -13 -21 -56 46 -56 28 0 194 35
269 56 14 5 17 -2 17 -43 0 -26 -3 -78 -6 -115 l-7 -66 -76 -33 c-93 -40 -87
-35 -70 -55 14 -17 28 -17 164 9 44 8 119 18 166 21 82 6 89 5 114 -17 26 -22
28 -28 37 -161 5 -76 8 -260 6 -408 l-3 -270 -25 -22 c-21 -17 -65 -28 -233
-55 -114 -18 -215 -30 -224 -27 -14 6 -15 18 -9 86 3 44 9 85 11 92 3 8 41 21
84 30 101 21 245 78 249 99 2 10 -8 21 -27 29 -25 10 -43 9 -103 -4 -40 -9
-97 -28 -126 -41 -30 -14 -58 -25 -63 -25 -6 0 -9 33 -7 77 l3 76 70 14 c78
16 156 41 228 73 41 18 46 24 36 37 -26 31 -57 34 -140 13 -44 -11 -101 -29
-126 -40 -25 -11 -49 -20 -54 -20 -5 0 -9 40 -9 90 0 85 1 90 23 94 105 22
184 43 251 68 77 30 78 30 59 50 -37 37 -174 17 -324 -46 -12 -5 -18 2 -27 31
-20 68 -103 129 -141 104 -13 -8 -12 -29 7 -148 32 -200 42 -334 42 -544 0
-183 0 -186 -24 -208 -22 -21 -141 -49 -407 -95 l-37 -6 -7 100 c-7 104 2 453
14 511 l6 32 32 -52 c35 -55 102 -105 166 -122 55 -15 72 -9 75 26 4 53 -29
89 -138 150 -55 31 -112 66 -126 78 l-25 22 11 90 c6 50 14 93 18 96 4 4 30
12 57 18 65 16 135 55 177 98 l33 34 -24 20 c-34 28 -80 23 -162 -16 -40 -19
-74 -33 -76 -31 -2 2 1 33 8 69 14 78 2 156 -35 228 l-25 46 72 28 c75 29 176
85 196 109 30 36 -27 116 -81 116 -56 0 -78 -10 -78 -35 0 -31 -24 -49 -102
-79 -69 -26 -268 -124 -303 -150 -17 -12 -17 -16 -5 -31 11 -13 24 -15 59 -11
110 13 101 15 135 -39 30 -48 31 -55 34 -175 l4 -126 -149 -68 c-81 -38 -214
-102 -295 -143 -114 -56 -158 -73 -190 -73 -24 0 -49 -4 -56 -9 -25 -15 -8
-44 33 -58 65 -23 130 -12 231 39 128 66 385 181 390 175 3 -3 -15 -42 -39
-88 -88 -170 -224 -372 -366 -549 -120 -149 -141 -190 -97 -190 33 0 315 319
445 503 l76 107 3 -217 c2 -120 0 -318 -3 -441 -6 -195 -9 -224 -24 -228 -38
-12 -46 -22 -49 -65 -8 -108 26 -159 106 -159 l50 0 10 62 c18 105 22 170 13
243 -9 82 -6 95 22 95 12 0 123 16 247 35 124 19 344 50 490 68 257 33 266 33
289 16 25 -20 54 -13 65 16 4 13 30 15 158 15 84 0 207 -5 272 -11 132 -11
166 -5 184 37 22 46 1 70 -75 87 -116 26 -199 30 -317 13 -60 -9 -127 -16
-149 -16 l-40 0 6 58 c4 31 12 199 18 372 17 440 7 497 -90 547 -66 34 -138
39 -216 15 l-65 -20 6 27 c15 67 46 177 52 187 4 6 53 18 109 27 127 21 263
63 263 81 0 8 -8 24 -18 37 -19 22 -21 22 -98 10 -176 -27 -201 -31 -215 -31
-11 0 -14 19 -14 93 0 87 -2 96 -28 130 -48 63 -117 85 -165 51z"/>
<path d="M1670 610 c-11 -11 -20 -33 -20 -48 0 -20 -9 -35 -29 -50 -38 -28
-114 -126 -143 -186 -24 -51 -18 -66 28 -66 52 0 208 142 268 244 24 42 26 51
16 75 -20 50 -85 66 -120 31z"/>
<path d="M2240 569 c0 -6 23 -31 51 -57 28 -26 108 -102 178 -169 121 -117
129 -123 169 -123 33 0 45 5 57 24 23 35 3 76 -74 152 -69 69 -135 108 -260
153 -89 33 -121 38 -121 20z"/>
</g>
</svg>
