<?xml version="1.0" standalone="no"?>
<!DOCTYPE svg PUBLIC "-//W3C//DTD SVG 20010904//EN"
 "http://www.w3.org/TR/2001/REC-SVG-20010904/DTD/svg10.dtd">
<svg version="1.0" xmlns="http://www.w3.org/2000/svg"
 width="340.000000pt" height="340.000000pt" viewBox="0 0 340.000000 340.000000"
 preserveAspectRatio="xMidYMid meet">
<metadata>
Created by potrace 1.15, written by Peter Selinger 2001-2017
</metadata>
<g transform="translate(0.000000,340.000000) scale(0.100000,-0.100000)"
fill="#000000" stroke="none">
<path d="M1848 2530 c-28 -17 -21 -46 15 -68 17 -10 70 -42 116 -71 97 -59
148 -67 195 -30 26 20 26 21 9 51 -24 40 -81 85 -132 103 -56 19 -181 29 -203
15z"/>
<path d="M1280 2468 c0 -58 -9 -66 -144 -132 -126 -62 -279 -156 -321 -197
-20 -20 -20 -20 0 -35 13 -9 30 -12 50 -8 72 15 543 225 563 251 6 9 12 36 12
59 0 59 -32 84 -106 84 -49 0 -54 -2 -54 -22z"/>
<path d="M2265 2310 c-88 -21 -250 -61 -360 -90 -110 -29 -226 -59 -259 -66
-32 -7 -63 -17 -68 -22 -53 -53 205 -39 452 23 129 32 251 52 400 65 161 13
197 35 170 100 -12 30 -13 30 -94 29 -56 -1 -129 -12 -241 -39z"/>
<path d="M1090 2157 c-34 -17 -37 -57 -7 -93 40 -48 46 -83 40 -217 l-6 -123
-76 -34 c-42 -18 -169 -80 -282 -136 -114 -56 -220 -105 -238 -109 -39 -8 -42
-38 -6 -61 19 -12 41 -15 92 -12 63 4 79 10 228 92 88 49 189 104 224 124 l64
35 -6 -32 c-20 -99 -234 -427 -479 -735 -74 -92 -89 -124 -62 -133 14 -5 153
121 239 217 88 97 164 199 245 329 l65 104 3 -474 c2 -462 2 -475 -19 -523
-11 -27 -23 -72 -26 -101 l-6 -53 37 -12 c49 -16 75 -10 100 23 21 28 21 33
17 560 l-3 531 65 -58 c75 -65 115 -82 146 -59 31 21 28 73 -6 105 -47 42 -90
68 -145 87 -52 18 -53 18 -56 62 -1 24 1 82 5 129 8 83 9 85 38 93 70 21 129
54 156 87 36 43 36 54 4 68 -39 18 -86 14 -124 -9 -56 -34 -62 -23 -55 84 7
105 -2 149 -43 198 -24 28 -72 59 -90 59 -4 0 -19 -6 -33 -13z"/>
<path d="M2210 1955 c-85 -18 -207 -46 -270 -62 -115 -29 -115 -29 -170 -12
-30 10 -67 18 -82 18 -24 1 -28 -3 -28 -27 0 -16 13 -47 28 -68 15 -21 43 -86
61 -144 30 -96 98 -260 108 -260 2 0 25 11 51 24 44 22 251 62 425 82 33 4 68
15 82 26 33 26 33 65 0 80 -14 6 -25 16 -25 22 0 6 22 44 50 84 75 110 85 178
38 245 -17 23 -26 27 -66 26 -26 0 -117 -16 -202 -34z m144 -117 c-3 -13 -16
-36 -27 -51 -11 -16 -30 -58 -42 -93 -13 -36 -25 -68 -28 -71 -3 -3 -43 -11
-89 -19 -46 -8 -122 -25 -170 -38 l-88 -24 -10 42 c-6 22 -23 78 -39 124 -15
45 -25 82 -22 83 3 0 107 15 231 34 124 18 240 33 258 34 30 1 33 -1 26 -21z"/>
<path d="M2625 1354 c-11 -2 -81 -10 -155 -19 -300 -36 -765 -141 -872 -197
-45 -24 -60 -28 -76 -19 -61 33 -74 0 -34 -87 41 -88 59 -172 67 -312 6 -105
28 -280 41 -322 14 -45 70 -25 80 28 17 92 -41 524 -83 611 -8 19 -13 36 -10
40 4 3 93 22 199 43 559 108 648 119 850 101 133 -11 161 -19 172 -47 9 -24
-20 -316 -49 -489 -24 -144 -73 -365 -81 -365 -2 0 -18 9 -36 20 -20 12 -50
20 -78 20 -70 0 -75 -8 -42 -71 31 -60 92 -112 153 -130 37 -12 41 -11 68 15
41 40 79 124 91 203 6 37 34 228 64 423 l54 354 -19 51 c-43 116 -158 172
-304 149z"/>
<path d="M2165 1052 c-124 -38 -164 -46 -229 -47 -99 0 -109 -10 -78 -83 12
-28 22 -64 22 -80 0 -54 58 -216 92 -259 8 -10 16 -9 39 2 15 8 52 15 81 15
77 0 172 17 260 46 l77 25 -6 32 c-3 22 5 57 28 112 24 60 33 100 37 162 l4
82 -33 20 c-54 33 -121 27 -294 -27z m173 -123 c3 -28 -47 -147 -70 -167 -8
-7 -42 -17 -74 -23 -33 -5 -81 -17 -107 -26 -27 -8 -50 -13 -51 -12 -4 6 -56
223 -53 225 5 5 294 32 322 30 24 -1 31 -6 33 -27z"/>
</g>
</svg>
