<?xml version="1.0" standalone="no"?>
<!DOCTYPE svg PUBLIC "-//W3C//DTD SVG 20010904//EN"
 "http://www.w3.org/TR/2001/REC-SVG-20010904/DTD/svg10.dtd">
<svg version="1.0" xmlns="http://www.w3.org/2000/svg"
 width="340.000000pt" height="340.000000pt" viewBox="0 0 340.000000 340.000000"
 preserveAspectRatio="xMidYMid meet">
<metadata>
Created by potrace 1.15, written by Peter Selinger 2001-2017
</metadata>
<g transform="translate(0.000000,340.000000) scale(0.100000,-0.100000)"
fill="#000000" stroke="none">
<path d="M1898 2519 c-25 -14 -22 -47 7 -90 24 -34 26 -42 23 -145 l-3 -108
-173 -42 c-95 -22 -175 -44 -179 -48 -4 -3 1 -14 10 -24 20 -20 51 -20 230 1
l117 13 0 -101 0 -102 -92 -26 c-51 -15 -146 -36 -211 -47 -66 -11 -122 -22
-127 -25 -24 -15 -11 -73 29 -135 6 -8 28 -89 50 -180 22 -91 44 -177 50 -192
15 -39 68 -51 173 -39 46 5 95 7 109 4 25 -5 27 -9 32 -71 2 -37 6 -73 8 -81
5 -18 -245 -82 -318 -81 -81 1 -112 -45 -51 -76 80 -41 177 -28 581 82 92 26
169 45 170 43 49 -74 114 -119 171 -119 28 0 28 0 24 54 -6 67 -41 125 -101
163 -23 15 -54 38 -69 51 -17 15 -43 26 -72 29 -55 7 -58 -2 -22 -70 l25 -46
-67 -6 c-37 -4 -96 -13 -132 -20 -36 -7 -66 -11 -68 -10 -2 2 -1 43 3 92 l7
89 117 28 c64 15 122 30 128 33 7 2 17 -7 23 -21 10 -29 27 -33 53 -13 17 12
139 266 198 414 50 122 41 195 -26 239 -36 23 -252 22 -355 -1 -41 -10 -87
-20 -102 -22 l-28 -5 0 70 c0 38 3 84 6 101 6 27 11 31 38 31 48 1 177 26 260
50 60 18 76 27 80 45 16 65 -19 74 -165 42 -63 -14 -133 -28 -156 -32 l-43 -7
7 81 c7 96 -7 154 -49 205 -24 30 -36 36 -66 36 -20 0 -45 -5 -54 -11z m521
-690 c17 -6 31 -13 31 -15 0 -12 -78 -243 -111 -329 l-39 -100 -135 0 -135 0
0 50 c0 104 7 120 60 142 33 14 53 31 64 52 16 31 16 31 -9 41 -15 6 -46 10
-71 10 l-44 0 0 39 c0 88 53 108 316 119 23 1 55 -3 73 -9z m-489 -78 c35 -67
-39 -161 -128 -161 -41 0 -70 -24 -56 -47 10 -16 23 -18 104 -14 l92 3 -7 -88
c-4 -49 -12 -92 -18 -96 -11 -7 -170 -48 -186 -48 -5 0 -12 33 -16 73 -10 96
-37 199 -74 282 -17 37 -30 70 -28 71 4 4 255 42 284 43 12 1 27 -8 33 -18z"/>
<path d="M1245 2343 c-28 -6 -46 -32 -39 -57 4 -18 -11 -30 -91 -79 -101 -63
-318 -220 -349 -255 -21 -25 -15 -52 12 -52 10 0 65 23 122 50 56 28 103 49
104 48 0 -2 16 -31 34 -64 31 -60 32 -64 32 -191 l0 -130 -127 -53 c-71 -29
-196 -84 -280 -121 -83 -37 -165 -70 -182 -74 -31 -7 -38 -19 -22 -43 15 -24
215 28 439 113 68 26 126 45 128 42 2 -2 -25 -62 -61 -133 -73 -145 -192 -311
-354 -492 -99 -111 -118 -146 -85 -159 23 -9 52 11 154 105 109 101 231 245
314 371 58 89 61 92 67 65 9 -41 8 -621 -1 -734 -4 -52 -12 -111 -17 -131 -14
-50 4 -98 43 -121 l32 -19 21 34 c35 57 54 152 47 234 -8 91 -8 587 0 669 l6
61 37 -40 c46 -51 102 -77 169 -77 l54 0 -7 33 c-16 75 -70 128 -153 149 -24
6 -57 22 -73 35 -27 23 -29 29 -29 103 0 96 11 130 42 130 43 0 125 47 152 86
l26 38 -23 13 c-30 17 -96 16 -131 -2 -15 -8 -32 -12 -37 -9 -5 3 -9 47 -9 97
-1 106 -11 160 -38 196 -17 23 -32 31 -92 48 -9 2 20 22 65 46 86 45 165 100
203 140 53 57 -20 148 -103 130z"/>
<path d="M1993 840 c4 -18 16 -44 27 -59 12 -14 37 -48 57 -74 40 -54 77 -77
125 -77 56 0 63 11 44 65 -8 26 -27 63 -41 81 -29 37 -110 79 -174 89 l-44 7
6 -32z"/>
<path d="M2485 838 c10 -31 34 -57 69 -75 16 -8 89 -60 161 -114 136 -102 167
-115 216 -89 26 14 25 69 -1 103 -26 32 -141 110 -204 136 -51 23 -136 45
-204 55 -42 6 -43 6 -37 -16z"/>
<path d="M1445 748 c-32 -80 -85 -282 -85 -323 0 -23 7 -64 15 -93 13 -41 19
-50 33 -45 31 11 71 56 83 92 18 54 18 373 0 394 -20 25 -27 21 -46 -25z"/>
<path d="M1680 706 c0 -84 63 -199 165 -301 158 -159 372 -244 623 -248 l103
-2 31 34 c27 30 30 39 26 80 -3 30 -17 64 -39 98 -19 28 -44 69 -57 90 -22 36
-66 74 -103 88 -41 16 -30 -122 17 -202 38 -65 36 -67 -64 -60 -250 18 -470
156 -629 394 -30 46 -59 83 -64 83 -5 0 -9 -24 -9 -54z"/>
</g>
</svg>
