<?xml version="1.0" standalone="no"?>
<!DOCTYPE svg PUBLIC "-//W3C//DTD SVG 20010904//EN"
 "http://www.w3.org/TR/2001/REC-SVG-20010904/DTD/svg10.dtd">
<svg version="1.0" xmlns="http://www.w3.org/2000/svg"
 width="340.000000pt" height="340.000000pt" viewBox="0 0 340.000000 340.000000"
 preserveAspectRatio="xMidYMid meet">
<metadata>
Created by potrace 1.15, written by Peter Selinger 2001-2017
</metadata>
<g transform="translate(0.000000,340.000000) scale(0.100000,-0.100000)"
fill="#000000" stroke="none">
<path d="M1493 2483 c-4 -11 1 -22 16 -32 12 -9 45 -35 72 -59 63 -53 136 -91
194 -99 l45 -6 0 45 c0 79 -53 119 -197 152 -92 20 -122 20 -130 -1z"/>
<path d="M2210 2284 c-341 -55 -730 -145 -1013 -232 l-127 -40 0 54 c0 60 -17
111 -45 134 -16 13 -20 12 -40 -12 -13 -15 -29 -53 -35 -85 -7 -32 -43 -120
-81 -195 -38 -76 -69 -146 -69 -156 0 -28 29 -62 53 -62 36 0 82 51 125 136
62 123 58 120 217 160 400 99 900 184 1087 184 196 0 228 -14 148 -65 -70 -44
-76 -94 -14 -109 33 -9 134 18 206 55 48 24 58 34 58 54 0 76 -70 148 -177
183 -84 27 -108 26 -293 -4z"/>
<path d="M1880 1954 c0 -9 15 -30 33 -46 81 -71 224 -181 293 -224 l75 -47 35
16 c63 31 41 83 -69 161 -79 56 -184 108 -271 135 -82 25 -96 26 -96 5z"/>
<path d="M1281 1851 c-11 -27 -21 -56 -21 -63 0 -8 -27 -40 -61 -73 -66 -65
-134 -155 -168 -222 -26 -52 -26 -53 2 -53 97 1 305 189 374 338 24 50 24 54
8 78 -17 27 -52 44 -89 44 -19 0 -28 -11 -45 -49z"/>
<path d="M2425 1515 c-312 -85 -719 -185 -753 -185 -47 0 -64 -19 -41 -46 11
-14 34 -16 151 -12 76 2 138 1 138 -2 -1 -18 -105 -217 -143 -273 -56 -80 -62
-123 -22 -162 33 -33 76 -32 181 5 128 45 241 63 391 62 76 0 140 -5 152 -12
25 -13 28 -66 7 -113 -8 -18 -35 -82 -60 -143 -24 -62 -70 -162 -100 -223
l-56 -111 -48 24 c-26 13 -75 52 -110 85 -63 61 -95 74 -120 49 -20 -20 -14
-51 24 -108 46 -71 94 -122 167 -176 l59 -44 47 25 c65 32 130 108 162 186 15
35 49 118 77 184 50 122 112 320 112 360 0 31 -76 114 -125 136 -49 23 -134
24 -218 4 -67 -15 -380 -65 -385 -60 -7 6 20 58 54 102 47 61 72 117 81 183
l8 53 55 19 c30 10 99 23 153 29 117 12 205 38 270 79 47 30 48 30 33 59 -24
45 -53 50 -141 26z"/>
<path d="M1409 1355 c-35 -12 -176 -65 -314 -117 -137 -52 -262 -98 -277 -102
-33 -8 -35 -17 -8 -41 20 -18 24 -18 148 4 70 13 136 24 147 25 29 2 45 -81
52 -265 l6 -157 -70 -38 c-129 -71 -278 -144 -306 -149 -15 -3 -37 -15 -48
-26 -20 -20 -20 -21 -2 -41 23 -26 74 -48 112 -48 56 0 182 74 496 289 65 44
202 178 192 187 -7 8 -111 -18 -148 -37 -20 -10 -50 -30 -68 -44 l-31 -27 0
99 c0 92 -14 250 -26 299 -5 19 0 23 28 29 90 19 233 115 226 152 -6 30 -42
33 -109 8z"/>
</g>
</svg>
