<?xml version="1.0" standalone="no"?>
<!DOCTYPE svg PUBLIC "-//W3C//DTD SVG 20010904//EN"
 "http://www.w3.org/TR/2001/REC-SVG-20010904/DTD/svg10.dtd">
<svg version="1.0" xmlns="http://www.w3.org/2000/svg"
 width="340.000000pt" height="340.000000pt" viewBox="0 0 340.000000 340.000000"
 preserveAspectRatio="xMidYMid meet">
<metadata>
Created by potrace 1.15, written by Peter Selinger 2001-2017
</metadata>
<g transform="translate(0.000000,340.000000) scale(0.100000,-0.100000)"
fill="#000000" stroke="none">
<path d="M1360 2396 c0 -20 117 -95 244 -157 l108 -53 19 23 c23 28 24 59 5
87 -18 25 -130 78 -211 99 -77 20 -165 20 -165 1z"/>
<path d="M2270 2219 c-375 -54 -569 -91 -894 -171 -279 -68 -267 -69 -280 13
-8 49 -53 99 -89 99 -22 0 -25 -5 -31 -55 -8 -74 -34 -138 -84 -212 -39 -58
-110 -191 -131 -245 -11 -30 0 -38 52 -38 54 0 84 30 176 175 72 113 95 141
118 147 15 4 105 19 198 33 94 15 285 50 425 78 244 49 262 51 420 52 91 0
186 -4 212 -8 l48 -8 -20 -38 c-10 -21 -31 -52 -45 -69 -18 -21 -25 -41 -23
-59 3 -26 6 -28 50 -27 50 0 185 61 242 108 27 22 28 26 17 57 -23 68 -58 106
-124 139 -73 35 -138 44 -237 29z"/>
<path d="M1861 1882 c13 -36 42 -63 204 -183 91 -67 128 -89 152 -89 43 0 67
25 59 64 -17 83 -221 209 -378 231 l-48 7 11 -30z"/>
<path d="M1285 1860 c-11 -12 -19 -36 -19 -55 0 -30 -11 -46 -77 -113 -75 -77
-136 -172 -123 -194 12 -20 85 0 143 39 94 64 156 128 185 193 30 67 28 99
-11 130 -33 26 -75 25 -98 0z"/>
<path d="M1382 1557 c-24 -26 -27 -48 -11 -78 10 -20 11 -19 -314 -365 -35
-37 -38 -44 -27 -64 25 -47 81 -15 278 160 l103 91 30 -25 c29 -25 43 -28 113
-30 25 -1 34 -9 55 -51 24 -45 26 -59 24 -154 -1 -57 -3 -105 -5 -106 -2 -2
-95 -20 -208 -40 -113 -20 -308 -58 -435 -85 -126 -26 -248 -51 -270 -55 -59
-9 -105 -25 -105 -36 0 -6 24 -21 53 -34 68 -32 139 -32 243 -1 151 45 659
156 715 156 6 0 8 -77 7 -197 l-3 -197 -159 -38 c-88 -21 -161 -36 -164 -34
-2 3 1 19 7 37 18 51 13 112 -12 160 -21 39 -28 44 -58 44 -33 0 -34 -1 -41
-48 -3 -27 -23 -100 -43 -164 -37 -116 -37 -116 -17 -142 10 -14 32 -32 48
-40 33 -17 54 -12 270 63 145 50 323 89 488 106 61 6 135 18 165 26 30 8 58
14 62 14 4 0 10 -19 14 -42 3 -24 11 -57 16 -75 11 -34 83 -107 102 -100 18 6
35 69 36 134 1 69 -36 222 -70 287 -36 69 -87 126 -115 126 -24 0 -24 -1 -18
-72 3 -40 9 -94 13 -120 6 -33 5 -48 -3 -48 -6 -1 -94 -14 -196 -29 -102 -16
-189 -27 -193 -24 -8 5 -4 145 9 311 7 91 2 89 229 108 201 16 406 18 565 4
l114 -10 30 30 c34 34 31 48 -18 84 -26 20 -41 21 -254 20 -190 0 -256 -5
-402 -26 -96 -15 -193 -28 -215 -31 l-40 -4 -1 96 c-1 85 -11 136 -39 203 -5
13 4 18 52 28 143 28 333 92 333 112 0 5 -11 20 -25 33 -31 32 -70 32 -177 1
-46 -13 -168 -45 -271 -71 -209 -53 -234 -52 -174 8 67 66 72 154 11 188 -52
30 -79 31 -102 6z"/>
</g>
</svg>
