<?xml version="1.0" standalone="no"?>
<!DOCTYPE svg PUBLIC "-//W3C//DTD SVG 20010904//EN"
 "http://www.w3.org/TR/2001/REC-SVG-20010904/DTD/svg10.dtd">
<svg version="1.0" xmlns="http://www.w3.org/2000/svg"
 width="340.000000pt" height="340.000000pt" viewBox="0 0 340.000000 340.000000"
 preserveAspectRatio="xMidYMid meet">
<metadata>
Created by potrace 1.15, written by Peter Selinger 2001-2017
</metadata>
<g transform="translate(0.000000,340.000000) scale(0.100000,-0.100000)"
fill="#000000" stroke="none">
<path d="M1350 2370 c0 -25 27 -62 64 -87 23 -15 61 -44 86 -64 54 -44 150
-99 173 -99 21 0 47 38 47 70 0 49 -117 136 -229 170 -67 21 -141 26 -141 10z"/>
<path d="M2235 2133 c-323 -41 -567 -82 -885 -149 -286 -60 -275 -57 -275 -79
0 -12 11 -25 29 -33 25 -13 45 -11 180 16 214 44 307 59 499 82 194 22 595 47
620 37 25 -9 21 -23 -12 -37 -49 -20 -71 -47 -71 -87 l0 -36 83 5 c70 4 96 10
161 41 l78 37 -7 37 c-16 85 -64 133 -160 158 -54 14 -165 18 -240 8z"/>
<path d="M967 2103 c-3 -5 -17 -39 -32 -78 -16 -38 -50 -106 -76 -151 -55 -92
-129 -245 -129 -267 0 -18 21 -27 64 -27 40 0 64 25 140 138 69 105 96 176
103 273 5 69 4 78 -16 98 -21 21 -46 27 -54 14z"/>
<path d="M1890 1881 c0 -30 28 -58 147 -143 196 -141 240 -160 277 -119 64 71
-156 229 -376 270 -42 7 -48 6 -48 -8z"/>
<path d="M1226 1807 c-15 -19 -26 -39 -26 -45 0 -7 -30 -42 -67 -79 -56 -58
-163 -204 -163 -224 0 -14 57 -16 85 -4 43 20 180 140 242 213 40 47 53 70 53
95 0 80 -76 107 -124 44z"/>
<path d="M1855 1593 c-249 -44 -371 -69 -556 -113 -113 -27 -216 -53 -229 -58
l-24 -9 27 -17 c24 -16 36 -17 108 -7 111 15 179 14 179 -1 -1 -22 -124 -187
-209 -279 -73 -78 -81 -92 -81 -127 0 -90 66 -95 271 -18 l144 55 19 -42 c12
-26 21 -73 24 -123 l4 -81 -173 -43 c-96 -23 -182 -44 -191 -47 -41 -11 -1
-63 48 -63 16 0 92 11 169 24 77 13 142 22 144 20 9 -8 13 -173 7 -218 -8 -53
5 -47 -176 -71 -69 -9 -208 -32 -309 -51 -102 -19 -196 -32 -210 -29 -33 7
-64 -14 -56 -37 17 -43 289 -49 430 -9 105 29 166 40 320 57 77 8 167 19 200
24 138 20 587 7 695 -19 19 -5 65 -12 101 -16 l66 -6 17 36 c33 69 1 96 -140
117 -131 19 -539 16 -678 -5 -61 -10 -113 -14 -118 -9 -10 10 -12 47 -10 168
l2 102 68 7 c75 8 190 43 245 75 30 18 35 25 27 40 -5 9 -23 23 -40 30 -25 10
-38 10 -77 -3 -54 -18 -211 -40 -224 -31 -5 3 -9 26 -9 52 -1 26 -7 80 -14
120 l-12 72 35 10 c20 5 40 10 44 10 4 0 57 18 116 41 l109 40 58 -59 c43 -44
71 -63 102 -72 23 -6 47 -8 52 -5 13 8 13 46 -2 103 -19 78 -170 215 -292 266
l-39 16 5 -45 c4 -32 17 -60 48 -101 23 -30 40 -58 37 -60 -2 -2 -62 -13 -133
-23 -140 -21 -340 -63 -406 -87 -89 -31 -84 -12 27 107 69 73 83 97 111 194 8
26 17 32 74 47 36 10 103 21 150 24 122 8 187 22 258 56 61 29 63 30 46 49
-14 16 -78 42 -94 38 -3 -1 -41 -8 -85 -16z"/>
</g>
</svg>
