<?xml version="1.0" standalone="no"?>
<!DOCTYPE svg PUBLIC "-//W3C//DTD SVG 20010904//EN"
 "http://www.w3.org/TR/2001/REC-SVG-20010904/DTD/svg10.dtd">
<svg version="1.0" xmlns="http://www.w3.org/2000/svg"
 width="340.000000pt" height="340.000000pt" viewBox="0 0 340.000000 340.000000"
 preserveAspectRatio="xMidYMid meet">
<metadata>
Created by potrace 1.15, written by Peter Selinger 2001-2017
</metadata>
<g transform="translate(0.000000,340.000000) scale(0.100000,-0.100000)"
fill="#000000" stroke="none">
<path d="M1424 2463 c-6 -21 -2 -31 19 -47 78 -62 130 -98 177 -122 l52 -26
27 19 c44 33 40 68 -14 119 -55 51 -136 84 -205 84 -45 0 -50 -2 -56 -27z"/>
<path d="M2175 2213 c-123 -11 -482 -57 -625 -79 -143 -22 -508 -91 -584 -110
-25 -6 -26 -5 -26 37 0 49 -25 107 -53 123 -25 15 -57 -24 -57 -70 0 -22 -27
-89 -77 -190 -76 -156 -88 -199 -63 -228 17 -21 36 -20 74 3 23 14 51 56 101
150 80 149 41 129 305 156 85 9 207 24 270 35 243 41 580 70 800 69 137 0 205
-28 140 -57 -23 -10 -30 -20 -30 -41 0 -15 5 -32 12 -39 28 -28 278 -4 299 29
38 58 20 103 -56 146 -121 67 -232 84 -430 66z"/>
<path d="M1880 1969 c0 -24 24 -51 112 -127 205 -176 266 -199 293 -113 9 28
-29 71 -123 138 -108 78 -282 141 -282 102z"/>
<path d="M1227 1891 c-18 -42 -47 -80 -95 -128 -67 -67 -106 -121 -136 -195
-15 -35 -15 -38 4 -48 27 -14 55 2 156 88 104 89 214 226 214 265 0 40 -40 77
-83 77 -32 0 -36 -3 -60 -59z"/>
<path d="M1505 1800 c-4 -6 -4 -33 0 -59 7 -49 6 -50 -78 -173 -46 -67 -99
-148 -116 -179 -38 -68 -60 -77 -110 -43 -84 57 -101 23 -62 -128 42 -164 52
-249 51 -470 0 -208 20 -405 43 -420 17 -11 39 -10 158 7 57 8 208 26 334 40
127 14 240 30 253 37 12 6 22 19 22 29 0 34 -37 42 -199 41 -167 0 -294 -17
-431 -56 l-77 -23 -7 296 c-3 163 -12 359 -20 436 -8 77 -12 143 -9 148 3 5
16 6 28 3 14 -4 61 6 112 23 87 29 221 50 242 37 15 -10 -45 -125 -114 -216
-52 -70 -125 -203 -141 -259 -6 -23 -4 -24 27 -17 19 4 51 23 74 46 23 22 44
40 48 40 4 0 30 -15 57 -32 69 -46 68 -68 -10 -144 -34 -32 -72 -81 -85 -108
-25 -50 -33 -96 -17 -96 23 0 134 84 189 143 70 76 93 83 142 41 37 -31 108
-44 122 -23 26 41 2 84 -81 142 l-23 16 40 48 c55 66 99 142 124 216 l21 62
-33 27 c-58 49 -113 48 -193 -3 -26 -16 -49 -29 -53 -29 -3 0 -3 25 1 55 6 50
4 58 -18 80 l-24 24 36 8 c56 12 353 9 383 -4 48 -21 54 -71 53 -438 -1 -283
-14 -558 -27 -572 -3 -2 -18 4 -34 13 -20 12 -38 15 -57 10 -27 -7 -28 -9 -24
-57 6 -56 42 -116 94 -155 l31 -24 44 23 c84 45 83 41 90 467 4 206 12 413 18
459 15 106 2 200 -39 285 -47 100 -68 114 -189 126 -157 16 -374 -16 -544 -80
-28 -11 -53 -18 -55 -16 -9 10 33 70 102 145 100 109 111 167 46 232 -22 22
-38 29 -69 29 -22 0 -43 -5 -46 -10z m322 -686 c7 -18 -13 -55 -69 -130 l-39
-52 -74 32 c-41 17 -75 36 -75 42 0 6 22 34 49 62 46 48 52 51 107 55 33 2 67
4 77 5 10 1 20 -5 24 -14z"/>
</g>
</svg>
