<?xml version="1.0" standalone="no"?>
<!DOCTYPE svg PUBLIC "-//W3C//DTD SVG 20010904//EN"
 "http://www.w3.org/TR/2001/REC-SVG-20010904/DTD/svg10.dtd">
<svg version="1.0" xmlns="http://www.w3.org/2000/svg"
 width="340.000000pt" height="340.000000pt" viewBox="0 0 340.000000 340.000000"
 preserveAspectRatio="xMidYMid meet">
<metadata>
Created by potrace 1.15, written by Peter Selinger 2001-2017
</metadata>
<g transform="translate(0.000000,340.000000) scale(0.100000,-0.100000)"
fill="#000000" stroke="none">
<path d="M1448 2534 c-18 -6 -31 -31 -23 -44 3 -4 69 -48 147 -96 144 -90 166
-97 201 -67 54 49 -21 141 -151 187 -45 16 -147 28 -174 20z"/>
<path d="M2160 2299 c-77 -19 -958 -217 -993 -223 -42 -8 -45 -26 -6 -37 39
-11 211 -10 296 2 43 6 114 21 158 34 123 35 300 73 447 95 73 11 146 25 161
32 33 13 57 44 57 74 0 34 -43 42 -120 23z"/>
<path d="M1896 2095 c-21 -32 -20 -57 4 -87 l19 -25 -64 -114 c-36 -63 -66
-117 -67 -120 -2 -4 -48 -9 -103 -13 l-100 -7 -23 73 c-25 81 -90 198 -109
198 -33 0 -44 -105 -22 -211 20 -96 26 -88 -91 -120 -243 -66 -740 -183 -799
-188 -45 -4 -67 -11 -75 -23 -5 -9 -8 -20 -5 -23 3 -3 42 -10 87 -17 109 -15
196 -2 382 57 283 89 618 163 900 199 250 32 395 40 715 40 217 0 333 4 337
11 15 20 8 72 -11 89 -11 10 -37 22 -58 26 -45 11 -277 -2 -548 -30 -104 -11
-216 -20 -249 -20 l-58 0 37 41 c64 71 80 135 51 204 -35 82 -115 114 -150 60z"/>
<path d="M1905 1460 c-71 -16 -186 -45 -254 -64 -69 -20 -131 -36 -139 -36 -7
0 -36 -10 -63 -21 l-50 -22 -32 32 c-36 34 -77 41 -97 16 -11 -13 -7 -27 18
-83 47 -103 60 -141 77 -222 13 -69 74 -207 110 -254 15 -19 16 -19 55 19 33
32 40 36 40 20 -1 -55 -46 -115 -219 -290 -263 -268 -277 -284 -258 -302 14
-14 20 -13 62 11 122 72 383 292 490 413 50 56 57 69 57 108 1 25 -6 55 -15
69 -10 14 -17 29 -17 35 0 10 107 31 156 31 28 0 29 -2 26 -40 -2 -22 3 -61
12 -87 12 -36 16 -88 16 -222 0 -163 2 -180 24 -226 56 -121 167 -164 441
-173 253 -7 370 24 426 115 21 33 24 53 27 153 4 117 -5 179 -32 215 -15 20
-15 20 -31 0 -35 -43 -55 -100 -55 -160 0 -78 -16 -132 -43 -149 -12 -8 -62
-24 -112 -36 -121 -30 -266 -25 -373 13 -41 14 -82 33 -92 42 -9 9 -28 46 -41
83 -20 58 -23 88 -25 222 -1 174 -10 206 -66 240 l-32 19 28 11 c15 5 39 10
54 10 48 0 88 34 121 102 17 35 51 88 76 118 77 94 97 128 102 172 5 49 -25
105 -67 124 -57 27 -169 24 -305 -6z m195 -119 c0 -3 -25 -67 -54 -141 -46
-116 -57 -135 -77 -138 -80 -11 -238 -48 -332 -78 -60 -20 -111 -33 -114 -31
-2 3 -20 62 -38 132 -19 70 -39 133 -45 140 -6 8 -10 24 -8 37 3 21 10 24 73
30 39 4 137 17 218 29 230 32 378 40 377 20z"/>
</g>
</svg>
