<?xml version="1.0" standalone="no"?>
<!DOCTYPE svg PUBLIC "-//W3C//DTD SVG 20010904//EN"
 "http://www.w3.org/TR/2001/REC-SVG-20010904/DTD/svg10.dtd">
<svg version="1.0" xmlns="http://www.w3.org/2000/svg"
 width="340.000000pt" height="340.000000pt" viewBox="0 0 340.000000 340.000000"
 preserveAspectRatio="xMidYMid meet">
<metadata>
Created by potrace 1.15, written by Peter Selinger 2001-2017
</metadata>
<g transform="translate(0.000000,340.000000) scale(0.100000,-0.100000)"
fill="#000000" stroke="none">
<path d="M1511 2582 c-7 -5 -10 -15 -7 -21 12 -19 202 -127 266 -151 l61 -23
21 21 c44 43 -8 119 -105 152 -68 23 -214 37 -236 22z"/>
<path d="M2200 2373 c-144 -25 -554 -111 -704 -147 -104 -25 -202 -46 -218
-46 -40 0 -118 -20 -118 -31 0 -5 11 -16 25 -25 22 -14 41 -16 113 -10 48 4
101 9 117 12 l30 6 1 -74 c0 -88 16 -147 50 -187 l26 -31 -24 -10 c-44 -18
-825 -181 -858 -178 -37 3 -61 -3 -67 -17 -3 -9 -3 -18 0 -21 2 -3 45 -9 93
-14 129 -13 243 2 487 64 320 83 583 129 887 157 129 12 492 17 630 9 53 -3
73 1 108 19 l43 22 -18 31 c-31 53 -66 72 -131 72 -31 0 -218 -19 -415 -43
-198 -23 -363 -41 -367 -39 -16 5 20 63 75 123 71 76 84 117 56 180 l-20 45
37 0 c90 1 252 59 252 91 0 18 -36 50 -55 48 -5 -1 -21 -4 -35 -6z m-328 -180
c10 -9 18 -24 18 -33 0 -9 -28 -59 -62 -111 -35 -52 -71 -113 -82 -136 -18
-40 -21 -42 -80 -52 -97 -17 -91 -22 -91 72 0 69 -4 91 -27 137 -29 59 -25 80
17 80 12 0 36 5 53 11 32 11 197 47 221 48 8 1 23 -6 33 -16z"/>
<path d="M1985 1636 c-223 -37 -574 -124 -635 -156 -29 -15 -62 -12 -95 10
-59 39 -126 15 -91 -32 92 -126 142 -235 170 -371 9 -43 23 -89 32 -102 23
-36 72 -54 126 -48 57 7 67 -7 50 -65 -25 -83 -88 -165 -238 -316 -164 -163
-217 -232 -194 -246 30 -19 135 49 267 173 119 112 283 336 283 387 0 14 -9
40 -20 58 -11 17 -17 32 -13 32 3 0 90 20 192 44 126 29 200 42 229 39 37 -5
45 -2 72 27 39 42 160 290 199 408 33 100 33 108 -14 152 -23 22 -37 25 -103
27 -44 1 -137 -8 -217 -21z m209 -114 c7 -11 -64 -193 -114 -292 -23 -47 -43
-86 -44 -87 -1 -2 -54 -9 -117 -18 -122 -16 -277 -51 -373 -84 -33 -12 -65
-21 -71 -21 -11 0 -50 158 -41 167 2 2 50 11 107 19 168 23 316 55 349 76 25
14 31 24 28 46 -3 27 -3 27 -78 25 -87 -2 -233 -31 -339 -67 -41 -14 -76 -24
-77 -23 -1 1 -20 37 -42 79 -34 66 -37 78 -23 82 67 21 430 77 641 99 69 7
189 7 194 -1z"/>
<path d="M1840 945 c-9 -27 -9 -48 -1 -83 8 -33 9 -62 1 -97 -5 -27 -13 -127
-17 -220 -5 -160 -5 -173 15 -211 31 -60 114 -131 175 -149 73 -22 276 -38
377 -30 109 8 215 30 300 61 65 24 69 28 91 77 20 43 23 69 23 152 0 117 -17
178 -51 183 -14 2 -27 -5 -37 -20 -15 -23 -46 -176 -46 -228 0 -24 -7 -30 -52
-49 -178 -71 -377 -78 -564 -20 -56 17 -67 25 -83 57 -54 106 -63 210 -31 337
34 134 24 207 -36 254 -37 29 -51 26 -64 -14z"/>
</g>
</svg>
