<?xml version="1.0" standalone="no"?>
<!DOCTYPE svg PUBLIC "-//W3C//DTD SVG 20010904//EN"
 "http://www.w3.org/TR/2001/REC-SVG-20010904/DTD/svg10.dtd">
<svg version="1.0" xmlns="http://www.w3.org/2000/svg"
 width="340.000000pt" height="340.000000pt" viewBox="0 0 340.000000 340.000000"
 preserveAspectRatio="xMidYMid meet">
<metadata>
Created by potrace 1.15, written by Peter Selinger 2001-2017
</metadata>
<g transform="translate(0.000000,340.000000) scale(0.100000,-0.100000)"
fill="#000000" stroke="none">
<path d="M1481 2497 c-10 -13 -9 -19 9 -37 44 -44 265 -131 291 -114 14 8 10
72 -5 103 -22 41 -60 54 -176 59 -87 3 -108 1 -119 -11z"/>
<path d="M1865 2300 c-154 -31 -352 -73 -440 -93 -88 -20 -171 -38 -185 -39
-17 -2 -25 -9 -25 -23 0 -18 8 -20 90 -23 113 -4 243 11 415 49 74 16 143 32
153 35 14 4 17 -1 17 -30 0 -19 5 -46 11 -60 10 -20 8 -29 -14 -58 -40 -54
-51 -80 -57 -137 l-5 -54 -115 -23 c-148 -29 -140 -30 -140 9 0 57 -21 108
-61 152 -38 41 -90 70 -103 58 -19 -19 7 -140 45 -215 l19 -38 -22 -4 c-13 -3
-72 -13 -133 -22 -60 -9 -238 -40 -395 -69 -157 -30 -309 -57 -337 -61 -87
-11 -96 -54 -20 -98 76 -44 114 -43 282 9 572 176 1257 271 1772 245 175 -9
190 -8 213 9 28 20 36 51 21 80 -28 51 -251 52 -671 3 -140 -16 -256 -29 -257
-28 -2 2 24 38 57 82 83 109 90 165 29 226 -16 16 -29 31 -29 34 0 2 15 4 33
4 44 0 136 32 181 63 31 20 34 26 23 40 -28 38 -61 36 -352 -23z"/>
<path d="M1902 1584 c-121 -15 -282 -45 -437 -81 -182 -41 -181 -41 -193 -68
l-12 -25 98 0 c58 1 113 7 137 15 49 18 114 19 136 2 11 -8 18 -36 23 -85 8
-84 17 -77 -133 -114 -47 -11 -87 -22 -89 -24 -8 -6 20 -44 40 -55 16 -9 38
-8 89 1 95 18 101 12 97 -99 l-3 -86 -100 -22 c-55 -12 -105 -23 -112 -23 -15
0 -48 90 -73 197 -29 121 -70 195 -156 281 -59 57 -80 72 -104 72 -40 0 -39
-14 7 -91 45 -79 150 -296 202 -420 l39 -94 58 -8 c33 -5 104 -6 158 -3 l99 6
-6 -96 c-3 -53 -7 -97 -9 -99 -2 -2 -83 -20 -180 -41 -165 -35 -176 -38 -167
-56 19 -35 55 -40 159 -23 54 8 120 15 149 15 l51 0 0 -64 c0 -35 3 -83 6
-108 l6 -44 -128 -12 c-138 -13 -339 -42 -469 -67 -44 -8 -96 -15 -116 -15
-40 0 -63 -19 -53 -43 3 -10 30 -20 75 -27 63 -11 85 -9 217 14 342 60 626 79
1072 75 l325 -4 3 32 c5 47 -13 71 -61 84 -64 17 -526 6 -646 -16 -92 -17 -95
-17 -108 1 -9 11 -12 31 -9 48 3 16 6 59 6 96 l0 67 109 21 c108 21 251 68
251 82 0 4 -9 15 -21 26 -27 24 -77 24 -228 1 -63 -9 -115 -16 -116 -14 -1 1
1 45 4 97 l6 95 65 6 c85 9 141 24 218 60 58 28 67 37 131 132 106 159 191
318 191 358 0 51 -39 119 -80 141 -29 15 -57 18 -175 17 -77 -1 -186 -7 -243
-15z m297 -121 l53 -6 -5 -38 c-5 -35 -57 -145 -159 -334 l-43 -80 -134 -3
-134 -3 6 74 c9 99 12 104 60 112 52 9 85 26 117 60 21 22 22 28 10 35 -23 15
-117 32 -153 28 l-32 -3 -3 77 -3 77 28 4 c47 7 334 7 392 0z"/>
</g>
</svg>
