<?xml version="1.0" standalone="no"?>
<!DOCTYPE svg PUBLIC "-//W3C//DTD SVG 20010904//EN"
 "http://www.w3.org/TR/2001/REC-SVG-20010904/DTD/svg10.dtd">
<svg version="1.0" xmlns="http://www.w3.org/2000/svg"
 width="340.000000pt" height="340.000000pt" viewBox="0 0 340.000000 340.000000"
 preserveAspectRatio="xMidYMid meet">
<metadata>
Created by potrace 1.15, written by Peter Selinger 2001-2017
</metadata>
<g transform="translate(0.000000,340.000000) scale(0.100000,-0.100000)"
fill="#000000" stroke="none">
<path d="M1918 2449 c-23 -13 -23 -57 -1 -81 30 -34 20 -69 -54 -178 -38 -58
-112 -174 -163 -259 -91 -151 -97 -170 -55 -171 25 0 82 54 186 180 l112 135
71 -3 c105 -5 262 15 322 42 46 21 94 69 94 94 0 15 -61 37 -102 36 -20 -1
-56 -11 -81 -23 -38 -19 -221 -80 -239 -81 -3 0 14 35 39 78 39 67 44 82 39
120 -8 57 -29 87 -77 106 -45 18 -67 20 -91 5z"/>
<path d="M1171 2356 c-8 -9 -10 -36 -6 -77 5 -51 3 -70 -12 -96 -39 -70 -195
-255 -346 -410 -87 -90 -157 -169 -155 -175 3 -7 16 -14 29 -16 37 -4 204 124
362 279 l132 129 60 0 c95 0 245 28 303 56 44 21 102 76 102 96 0 11 -63 28
-104 28 -32 0 -75 -17 -180 -70 -77 -39 -141 -68 -144 -66 -2 3 17 33 43 67
54 72 75 115 75 159 0 46 -17 69 -63 91 -50 22 -80 24 -96 5z"/>
<path d="M1951 1946 c-19 -23 -4 -41 82 -95 85 -53 179 -84 241 -79 34 3 41 7
47 31 18 66 -18 95 -153 126 -128 30 -202 36 -217 17z"/>
<path d="M1140 1866 c0 -17 22 -48 73 -100 l74 -76 57 0 c68 0 76 11 46 69
-34 68 -98 106 -212 126 -35 5 -38 4 -38 -19z"/>
<path d="M1808 1759 c-10 -6 -18 -22 -18 -37 0 -25 -8 -30 -97 -65 -270 -105
-608 -254 -608 -268 0 -25 70 -21 191 11 64 17 120 27 124 23 14 -15 30 -114
29 -181 -2 -110 -5 -114 -84 -135 -39 -10 -158 -43 -265 -73 -107 -30 -205
-54 -218 -54 -37 0 -81 -28 -82 -52 0 -16 90 -32 180 -31 89 0 105 3 259 56
90 31 166 55 169 53 10 -11 -43 -157 -86 -240 -40 -75 -59 -100 -127 -159 -93
-80 -231 -175 -325 -222 -73 -37 -95 -57 -86 -80 8 -22 53 -19 148 11 172 54
316 150 421 281 92 115 143 217 194 391 l19 62 21 -22 c11 -13 68 -87 127
-166 130 -171 230 -288 385 -445 170 -174 266 -217 486 -217 128 0 160 11 160
54 0 27 -4 29 -120 67 -146 48 -347 145 -475 231 -94 63 -239 203 -438 423
-73 81 -79 91 -61 97 57 21 272 50 412 55 139 5 162 9 190 27 42 29 47 67 13
99 l-25 24 -113 -14 c-127 -15 -344 -53 -459 -81 l-75 -18 -13 125 c-21 203
-28 180 59 203 84 22 186 63 275 111 52 28 60 36 63 64 4 43 -13 72 -53 89
-40 16 -73 18 -97 3z"/>
</g>
</svg>
