<?xml version="1.0" standalone="no"?>
<!DOCTYPE svg PUBLIC "-//W3C//DTD SVG 20010904//EN"
 "http://www.w3.org/TR/2001/REC-SVG-20010904/DTD/svg10.dtd">
<svg version="1.0" xmlns="http://www.w3.org/2000/svg"
 width="340.000000pt" height="340.000000pt" viewBox="0 0 340.000000 340.000000"
 preserveAspectRatio="xMidYMid meet">
<metadata>
Created by potrace 1.15, written by Peter Selinger 2001-2017
</metadata>
<g transform="translate(0.000000,340.000000) scale(0.100000,-0.100000)"
fill="#000000" stroke="none">
<path d="M1822 2425 l5 -75 -74 -113 c-93 -141 -216 -364 -208 -377 8 -12 45
-13 64 -1 8 5 64 71 125 147 l111 138 220 36 c121 20 236 42 256 49 37 12 109
71 109 89 0 17 -80 35 -130 29 -25 -3 -95 -26 -156 -50 -61 -25 -143 -57 -184
-71 l-73 -27 15 23 c61 93 80 139 73 176 -4 20 -11 45 -17 55 -12 23 -67 47
-109 47 l-32 0 5 -75z"/>
<path d="M995 2394 c-11 -11 -14 -24 -10 -38 22 -64 18 -96 -17 -149 -52 -78
-155 -206 -265 -329 -99 -111 -121 -144 -105 -160 24 -24 142 63 318 234 107
105 112 108 156 108 99 0 292 44 409 94 45 19 71 69 47 92 -32 32 -127 8 -367
-95 -41 -17 -76 -29 -78 -27 -5 5 19 48 52 95 27 37 33 97 14 133 -12 22 -82
57 -116 58 -12 0 -29 -7 -38 -16z"/>
<path d="M1860 2004 c0 -76 249 -200 306 -153 50 42 32 98 -41 129 -52 22
-179 50 -230 50 -31 0 -35 -3 -35 -26z"/>
<path d="M973 1983 c-25 -9 -12 -33 55 -101 52 -52 82 -74 125 -91 71 -26 93
-26 107 -2 39 73 -21 134 -176 180 -72 21 -89 23 -111 14z"/>
<path d="M2062 1740 c-19 -8 -21 -13 -12 -30 21 -39 169 -100 283 -116 l47 -6
0 39 c0 83 -52 115 -195 120 -55 2 -110 -1 -123 -7z"/>
<path d="M1304 1666 l-28 -23 20 -28 c48 -69 54 -82 54 -125 0 -49 -23 -147
-38 -162 -10 -10 -255 -80 -504 -143 -155 -40 -172 -50 -149 -93 16 -31 65
-45 124 -38 87 12 206 45 322 91 61 24 123 47 138 50 27 7 28 6 21 -21 -43
-181 -238 -472 -492 -735 -127 -132 -166 -188 -147 -207 9 -10 85 34 145 83
30 25 101 96 158 157 223 244 364 459 461 705 31 76 35 82 69 91 186 50 249
64 350 82 64 10 186 24 271 30 85 6 162 15 172 21 29 15 49 52 42 77 -5 21
-11 22 -100 22 -75 0 -153 -12 -391 -60 -163 -33 -305 -63 -314 -66 -21 -6
-21 -8 -7 109 10 79 9 97 -4 129 -30 72 -120 100 -173 54z"/>
<path d="M1608 1279 c-22 -12 -22 -44 -2 -124 9 -34 18 -129 21 -221 l6 -161
-44 -26 c-66 -39 -141 -109 -184 -171 -21 -31 -36 -58 -34 -60 9 -9 126 45
182 84 l57 41 0 -49 c0 -104 57 -232 124 -280 63 -45 157 -89 243 -114 69 -20
100 -23 268 -23 145 1 210 5 275 19 100 22 244 72 260 91 17 20 27 132 18 199
-10 76 -36 121 -68 121 -35 0 -52 -42 -58 -146 l-5 -89 -51 -19 c-113 -42
-205 -56 -356 -55 -151 1 -216 13 -355 64 -132 49 -203 182 -179 332 6 32 18
45 98 104 50 37 144 121 209 187 103 105 117 122 117 153 0 45 -29 74 -75 74
-33 0 -37 -4 -55 -44 -12 -28 -62 -89 -144 -172 l-125 -129 -1 163 c0 171 -3
186 -48 235 -27 28 -63 35 -94 16z"/>
</g>
</svg>
