<?xml version="1.0" standalone="no"?>
<!DOCTYPE svg PUBLIC "-//W3C//DTD SVG 20010904//EN"
 "http://www.w3.org/TR/2001/REC-SVG-20010904/DTD/svg10.dtd">
<svg version="1.0" xmlns="http://www.w3.org/2000/svg"
 width="340.000000pt" height="340.000000pt" viewBox="0 0 340.000000 340.000000"
 preserveAspectRatio="xMidYMid meet">
<metadata>
Created by potrace 1.15, written by Peter Selinger 2001-2017
</metadata>
<g transform="translate(0.000000,340.000000) scale(0.100000,-0.100000)"
fill="#000000" stroke="none">
<path d="M2152 2528 c-27 -14 -38 -49 -23 -76 25 -47 14 -77 -54 -152 -70 -76
-123 -152 -149 -214 -23 -56 -21 -66 15 -66 26 0 47 15 124 90 l92 91 179 3
c206 3 271 17 347 72 40 29 46 38 38 53 -12 22 -70 51 -100 51 -12 0 -38 -7
-59 -16 -44 -19 -333 -106 -337 -102 -2 2 14 32 35 68 47 79 53 134 17 175
-25 30 -88 42 -125 23z"/>
<path d="M1342 2458 c-15 -15 -15 -48 -2 -84 15 -40 -13 -75 -229 -286 -102
-100 -189 -189 -192 -197 -8 -20 8 -41 30 -41 22 0 170 101 286 195 l90 72 80
7 c124 11 332 52 368 73 17 11 42 35 55 54 l23 34 -28 12 c-15 7 -53 12 -83
12 -47 1 -74 -8 -190 -63 -74 -35 -137 -62 -139 -60 -2 2 3 12 11 21 33 38 68
111 68 142 0 47 -27 91 -65 107 -42 17 -67 18 -83 2z"/>
<path d="M2187 2083 c-19 -18 -5 -62 26 -88 17 -14 47 -40 65 -56 50 -44 106
-69 158 -69 l46 0 -7 37 c-16 85 -52 120 -167 159 -72 24 -109 30 -121 17z"/>
<path d="M1233 1959 c-25 -26 -14 -56 35 -97 26 -21 62 -47 80 -56 40 -21 122
-31 141 -17 20 13 16 70 -7 100 -37 51 -219 101 -249 70z"/>
<path d="M1690 1906 c0 -18 18 -45 63 -90 69 -72 105 -90 156 -81 l34 6 -7 47
c-12 92 -65 135 -172 140 l-74 4 0 -26z"/>
<path d="M1828 1658 l-387 -81 -38 32 c-46 38 -94 42 -117 9 -21 -30 -20 -44
7 -81 51 -72 3 -265 -137 -552 -116 -237 -249 -426 -437 -620 -53 -55 -104
-114 -113 -132 -17 -34 -21 -63 -8 -63 4 0 45 29 92 64 132 99 252 231 400
440 152 214 137 209 184 66 32 -97 46 -176 46 -264 0 -91 13 -135 49 -170 l28
-27 27 31 c22 27 26 41 26 94 0 67 -27 239 -59 371 -11 44 -18 82 -16 84 9 9
222 34 237 28 16 -6 37 -63 53 -144 6 -32 6 -33 -35 -39 -43 -7 -100 -46 -100
-69 0 -14 18 -20 93 -30 l47 -7 0 -47 c1 -62 40 -175 62 -179 11 -2 25 9 38
30 18 28 21 44 16 101 -8 111 6 125 144 147 36 5 77 10 91 10 l26 0 5 -102 c5
-92 26 -189 47 -211 12 -12 58 40 65 74 3 18 6 83 6 145 l0 114 48 0 c62 0
139 24 176 54 26 21 28 27 16 41 -42 50 -136 63 -222 30 -11 -5 -20 13 -37 79
-13 47 -20 89 -17 94 3 5 43 17 89 27 108 23 264 17 357 -13 108 -35 105 -30
80 -152 -29 -142 -72 -289 -120 -406 -22 -53 -42 -99 -44 -102 -3 -3 -24 12
-46 32 -47 42 -69 45 -107 12 l-27 -24 19 -41 c23 -51 90 -114 138 -130 51
-17 101 7 128 62 60 117 142 365 185 559 24 108 26 127 15 167 -23 88 -83 142
-179 162 -46 9 -82 7 -241 -16 -270 -38 -563 -89 -829 -142 -238 -48 -262 -49
-270 -11 -1 8 25 71 58 140 l61 126 137 0 c134 -1 279 15 579 63 68 10 124 19
126 19 2 0 14 23 27 50 13 28 27 50 31 50 4 0 32 22 62 50 62 56 95 118 99
182 3 42 2 43 -46 67 -92 46 -150 41 -588 -51z m420 -40 c25 -25 14 -53 -83
-201 -7 -11 -64 -22 -216 -41 -182 -23 -452 -67 -502 -82 -15 -5 -17 -1 -11
21 4 15 12 64 18 109 l12 81 159 27 c88 16 252 42 364 58 113 17 207 33 210
35 9 9 37 5 49 -7z m-199 -672 c15 -18 4 -153 -12 -163 -17 -11 -148 -32 -198
-32 l-47 -1 -7 81 c-4 44 -5 82 -3 85 7 6 196 42 229 43 15 1 32 -5 38 -13z"/>
</g>
</svg>
