<?xml version="1.0" standalone="no"?>
<!DOCTYPE svg PUBLIC "-//W3C//DTD SVG 20010904//EN"
 "http://www.w3.org/TR/2001/REC-SVG-20010904/DTD/svg10.dtd">
<svg version="1.0" xmlns="http://www.w3.org/2000/svg"
 width="340.000000pt" height="340.000000pt" viewBox="0 0 340.000000 340.000000"
 preserveAspectRatio="xMidYMid meet">
<metadata>
Created by potrace 1.15, written by Peter Selinger 2001-2017
</metadata>
<g transform="translate(0.000000,340.000000) scale(0.100000,-0.100000)"
fill="#000000" stroke="none">
<path d="M1870 2632 c0 -76 -24 -134 -96 -232 -39 -52 -97 -135 -130 -184
l-58 -88 23 -19 c20 -17 26 -17 49 -5 15 8 76 69 136 136 59 67 118 125 130
130 11 5 95 19 186 30 91 12 181 25 200 30 42 12 140 67 140 79 0 12 -39 36
-71 44 -30 8 -238 -46 -338 -87 -49 -20 -62 -22 -57 -10 29 74 37 127 26 155
-17 41 -47 59 -97 59 l-43 0 0 -38z"/>
<path d="M1066 2601 c-14 -16 -17 -30 -13 -62 5 -41 3 -44 -92 -158 -167 -200
-295 -373 -284 -385 3 -3 19 -6 34 -6 21 0 53 24 135 98 59 53 128 116 153
138 l47 42 213 36 c117 20 232 44 255 54 45 21 106 68 106 83 0 6 -17 17 -37
26 -57 23 -109 12 -298 -67 -93 -38 -170 -70 -172 -70 -11 0 3 25 42 75 86
111 72 185 -41 209 -23 5 -34 2 -48 -13z"/>
<path d="M1945 2289 c19 -62 126 -165 183 -175 39 -7 77 8 96 38 9 14 3 25
-33 62 -51 52 -122 85 -199 93 -54 6 -54 6 -47 -18z"/>
<path d="M1100 2201 c-5 -11 -10 -22 -10 -25 0 -6 82 -61 123 -83 31 -16 140
-23 153 -10 12 11 -6 54 -34 85 -33 35 -85 52 -164 52 -46 0 -59 -4 -68 -19z"/>
<path d="M2221 2069 c-28 -26 -26 -51 4 -87 19 -23 25 -41 25 -78 0 -82 -6
-91 -58 -99 -39 -6 -143 -34 -188 -52 -11 -4 -14 5 -14 38 0 69 -19 120 -59
160 -44 44 -112 69 -136 49 -24 -20 -18 -56 14 -79 23 -17 31 -32 40 -83 6
-35 12 -76 13 -93 l3 -30 -115 -34 c-63 -19 -117 -35 -119 -37 -2 -2 2 -10 9
-19 16 -19 56 -19 145 0 39 8 75 15 81 15 7 0 14 -31 17 -77 3 -43 9 -95 13
-115 l6 -37 -116 -36 c-64 -20 -116 -41 -116 -46 0 -5 11 -16 25 -25 24 -15
30 -15 108 4 216 54 499 88 829 100 192 6 219 9 237 26 26 24 26 37 1 69 -18
22 -30 26 -106 32 -93 8 -277 -6 -388 -30 -38 -8 -73 -12 -77 -9 -5 3 -3 17 5
32 7 15 23 68 35 118 l23 92 46 7 c118 17 262 67 262 91 0 30 -32 46 -79 41
-25 -4 -83 -9 -128 -13 l-82 -6 1 64 c2 95 -25 134 -109 157 -25 7 -35 5 -52
-10z m2 -399 c0 -19 -4 -72 -8 -117 l-8 -81 -61 -7 c-33 -4 -81 -14 -106 -21
-25 -8 -46 -14 -47 -14 -2 0 -3 53 -3 118 l0 118 93 21 c50 11 103 20 117 19
22 -1 25 -5 23 -36z"/>
<path d="M1129 1999 l-20 -20 26 -32 c50 -62 69 -133 45 -177 -13 -25 -171
-81 -324 -115 -27 -6 -28 -7 -11 -25 24 -27 60 -25 217 7 145 30 153 28 144
-36 -9 -61 -27 -74 -180 -136 -80 -32 -146 -62 -146 -67 0 -29 92 -36 173 -14
29 8 73 17 100 21 58 8 62 1 50 -90 l-8 -66 -325 -120 c-179 -66 -341 -123
-360 -127 -45 -10 -52 -38 -14 -53 33 -12 131 -4 218 18 33 8 137 46 233 84
95 38 178 69 183 69 20 0 -66 -138 -140 -225 -122 -142 -300 -375 -300 -391 0
-23 34 -16 76 15 77 57 384 390 384 416 0 12 41 55 53 55 10 0 8 -208 -3 -361
-15 -188 -36 -311 -61 -353 -16 -27 -18 -39 -10 -55 29 -53 97 -67 129 -27 21
27 37 202 49 534 l6 173 26 -25 c37 -34 98 -62 155 -71 55 -8 66 0 66 51 0 45
-33 72 -149 124 l-101 45 0 80 0 81 64 11 c99 17 216 75 216 108 0 6 -9 21
-20 33 -28 30 -70 28 -160 -8 -41 -16 -81 -29 -87 -30 -9 0 -13 21 -13 74 l0
74 43 10 c50 13 135 65 144 89 4 11 -3 24 -22 40 -29 26 -62 25 -116 -3 -20
-10 -29 -10 -38 -1 -15 15 -14 89 2 110 6 9 46 26 89 36 73 19 151 53 193 84
16 13 17 17 6 31 -7 9 -30 21 -50 27 -31 9 -48 7 -115 -15 -43 -14 -89 -26
-102 -26 -22 0 -24 4 -24 48 0 29 -8 59 -20 80 -36 58 -131 81 -171 41z"/>
<path d="M2240 1244 c-95 -20 -222 -61 -307 -98 -65 -29 -80 -32 -109 -23 -25
8 -37 7 -49 -3 -21 -17 -19 -43 10 -152 36 -140 56 -294 61 -477 2 -90 6 -167
9 -170 9 -8 242 -1 315 10 74 11 170 51 170 71 0 20 -53 48 -92 48 -28 0 -135
-17 -282 -45 l-39 -8 7 114 c3 63 9 132 12 155 l6 41 51 -5 c94 -7 287 48 287
83 0 8 -10 25 -21 36 -18 18 -30 21 -78 16 -31 -2 -97 -20 -148 -39 l-91 -35
-7 56 c-3 31 -13 98 -21 149 -9 52 -14 96 -11 98 10 10 171 35 285 45 199 16
192 30 191 -378 0 -169 -4 -328 -7 -352 -6 -39 -11 -45 -42 -55 -29 -9 -35
-17 -38 -41 -5 -61 72 -138 133 -133 21 2 36 13 52 37 l23 34 0 447 c0 478 -1
485 -51 539 -48 51 -105 60 -219 35z"/>
</g>
</svg>
