<?xml version="1.0" standalone="no"?>
<!DOCTYPE svg PUBLIC "-//W3C//DTD SVG 20010904//EN"
 "http://www.w3.org/TR/2001/REC-SVG-20010904/DTD/svg10.dtd">
<svg version="1.0" xmlns="http://www.w3.org/2000/svg"
 width="340.000000pt" height="340.000000pt" viewBox="0 0 340.000000 340.000000"
 preserveAspectRatio="xMidYMid meet">
<metadata>
Created by potrace 1.15, written by Peter Selinger 2001-2017
</metadata>
<g transform="translate(0.000000,340.000000) scale(0.100000,-0.100000)"
fill="#000000" stroke="none">
<path d="M1156 2399 c-31 -25 -33 -43 -6 -87 18 -30 20 -49 19 -215 -1 -100
-4 -263 -8 -361 l-6 -180 -60 -24 c-33 -13 -159 -64 -280 -114 -121 -50 -232
-90 -247 -89 -31 2 -42 -11 -33 -40 7 -20 12 -21 64 -15 104 12 221 46 387
111 90 36 166 65 169 65 10 0 -56 -123 -108 -200 -89 -134 -207 -277 -343
-418 -125 -128 -152 -164 -142 -193 7 -20 186 110 291 210 60 57 142 152 203
235 l104 139 0 -404 c-1 -331 -3 -408 -15 -429 -23 -41 -19 -88 11 -115 15
-14 30 -25 34 -25 4 0 19 18 34 39 51 74 54 97 48 469 -3 188 -2 342 3 342 4
0 18 -9 32 -20 45 -35 91 -42 140 -20 l44 19 -20 38 c-10 21 -27 46 -38 55
-28 25 -88 48 -127 48 l-34 0 -7 64 c-12 107 10 216 42 216 33 0 207 66 252
94 l45 29 -23 18 c-33 27 -83 24 -196 -11 -54 -17 -101 -30 -106 -30 -4 0 -6
37 -3 83 2 45 9 212 15 370 12 323 11 325 -56 353 -44 18 -47 18 -79 -7z"/>
<path d="M2248 2135 c-119 -35 -272 -90 -367 -131 -29 -13 -66 -24 -82 -24
-16 0 -38 -9 -51 -22 l-21 -21 24 -10 c39 -15 157 0 259 33 101 32 211 54 324
65 l70 7 -74 -78 c-95 -102 -204 -233 -259 -312 -33 -46 -49 -61 -60 -56 -64
27 -70 28 -85 15 -25 -21 -19 -49 22 -99 21 -26 48 -63 59 -83 21 -37 66 -150
61 -154 -2 -1 -73 -19 -158 -40 -103 -25 -185 -38 -244 -40 -100 -4 -127 -17
-102 -50 12 -17 29 -20 121 -23 66 -3 144 2 203 12 202 32 189 33 196 -6 43
-238 31 -518 -33 -755 l-12 -43 -37 15 c-20 9 -59 30 -87 47 -112 70 -137 72
-143 10 -3 -28 6 -41 65 -99 43 -42 94 -80 133 -100 61 -30 66 -31 99 -17 91
38 116 92 132 280 13 156 16 557 5 650 l-8 62 54 12 c29 7 159 16 288 21 292
10 319 14 331 46 27 71 -9 99 -125 96 -100 -3 -342 -29 -456 -48 -46 -8 -87
-11 -90 -7 -4 4 -17 43 -29 87 -23 80 -57 151 -85 174 -12 10 4 27 107 110 67
54 177 151 244 215 99 95 125 126 134 158 12 48 -1 89 -34 107 -24 12 -117 31
-151 31 -11 -1 -73 -16 -138 -35z"/>
<path d="M1493 2140 c-25 -10 -30 -39 -13 -70 14 -27 -8 -87 -53 -142 -48 -59
-77 -124 -77 -176 l0 -43 28 15 c57 29 132 97 174 156 24 34 53 75 66 92 50
69 10 179 -66 177 -20 0 -47 -4 -59 -9z"/>
<path d="M814 1967 c-8 -21 42 -123 82 -166 41 -46 99 -85 113 -77 16 10 33
76 27 101 -10 38 -61 90 -121 124 -58 33 -93 39 -101 18z"/>
</g>
</svg>
