<?xml version="1.0" standalone="no"?>
<!DOCTYPE svg PUBLIC "-//W3C//DTD SVG 20010904//EN"
 "http://www.w3.org/TR/2001/REC-SVG-20010904/DTD/svg10.dtd">
<svg version="1.0" xmlns="http://www.w3.org/2000/svg"
 width="340.000000pt" height="340.000000pt" viewBox="0 0 340.000000 340.000000"
 preserveAspectRatio="xMidYMid meet">
<metadata>
Created by potrace 1.15, written by Peter Selinger 2001-2017
</metadata>
<g transform="translate(0.000000,340.000000) scale(0.100000,-0.100000)"
fill="#000000" stroke="none">
<path d="M1831 2561 c-27 -17 -1 -42 81 -81 126 -59 214 -85 246 -74 22 8 27
16 27 44 0 42 -37 71 -133 100 -67 21 -195 27 -221 11z"/>
<path d="M1030 2475 c-15 -18 -5 -52 25 -85 12 -14 28 -36 35 -49 16 -32 34
-399 25 -520 l-7 -93 -172 -83 c-180 -86 -282 -130 -329 -140 -39 -8 -34 -45
8 -57 70 -19 196 14 333 88 46 25 86 43 89 40 11 -11 -77 -177 -158 -297 -173
-258 -299 -463 -289 -473 18 -18 57 12 135 101 109 124 221 276 305 415 39 65
74 118 77 118 4 0 3 -191 0 -425 l-7 -424 -25 -37 c-35 -51 -33 -80 8 -104 44
-27 73 -25 103 7 l24 26 -2 438 c-1 241 0 440 3 444 3 3 33 -12 65 -34 54 -36
107 -58 176 -75 36 -8 72 25 65 60 -3 20 2 28 27 41 56 29 94 63 132 121 21
31 41 61 45 66 4 4 25 -10 48 -33 49 -49 106 -79 166 -88 l45 -6 0 34 c-1 78
-56 148 -147 184 -24 10 -43 24 -43 32 0 9 15 45 32 81 52 105 40 214 -27 258
-20 13 -30 14 -61 4 l-36 -12 7 -63 c5 -52 2 -75 -20 -141 -32 -98 -90 -219
-144 -302 -23 -34 -41 -73 -41 -85 0 -43 -12 -47 -72 -21 -31 13 -89 29 -130
35 -40 7 -77 16 -83 21 -13 12 -15 147 -3 181 8 21 27 35 72 56 35 16 75 44
95 66 31 36 32 39 15 46 -28 11 -119 10 -149 -1 l-27 -10 7 310 c8 344 9 339
-58 380 -39 24 -119 27 -137 5z"/>
<path d="M2190 2309 c-96 -21 -271 -61 -388 -90 -117 -28 -215 -49 -216 -47
-1 1 -9 21 -17 43 -17 45 -47 65 -99 65 -52 0 -81 -23 -74 -60 5 -24 -1 -36
-40 -78 -48 -52 -76 -105 -76 -147 0 -22 3 -25 28 -19 80 17 198 97 247 167
14 20 16 20 27 4 12 -16 25 -16 163 -7 200 14 276 24 495 66 193 38 230 51
251 92 12 21 11 26 -6 38 -30 22 -105 15 -295 -27z"/>
<path d="M2272 2124 c-28 -19 -29 -63 -2 -97 24 -30 33 -5 -124 -335 -58 -123
-106 -232 -106 -243 0 -23 41 -26 62 -5 8 7 51 68 97 135 l83 121 67 -63 c83
-78 220 -153 251 -137 77 41 13 125 -164 211 -44 22 -88 39 -98 39 -24 0 -23
13 7 58 30 46 60 132 70 198 6 45 4 54 -20 82 -14 17 -36 34 -48 37 -12 4 -29
8 -37 11 -9 2 -26 -3 -38 -12z"/>
<path d="M760 2062 c0 -49 65 -177 104 -207 27 -20 106 -28 121 -13 4 3 0 31
-9 61 -25 85 -104 164 -193 191 -21 7 -23 4 -23 -32z"/>
<path d="M1953 1333 c-9 -21 -19 -68 -21 -105 l-4 -67 -37 -5 c-151 -23 -303
-50 -396 -72 -60 -14 -134 -28 -162 -31 -57 -6 -60 -9 -39 -38 11 -15 30 -20
104 -23 74 -4 114 1 228 26 155 35 311 58 320 49 4 -3 10 -140 15 -304 9 -308
24 -569 35 -597 7 -19 28 -21 42 -3 17 21 21 88 31 477 6 206 13 391 17 411 5
32 11 38 43 45 20 4 169 8 331 9 205 2 303 6 318 14 26 14 29 47 6 79 -15 21
-20 22 -197 22 -101 0 -235 -7 -302 -15 -65 -8 -139 -15 -162 -15 l-43 0 0 50
c0 61 -19 102 -55 118 -42 19 -55 14 -72 -25z"/>
</g>
</svg>
