<?xml version="1.0" standalone="no"?>
<!DOCTYPE svg PUBLIC "-//W3C//DTD SVG 20010904//EN"
 "http://www.w3.org/TR/2001/REC-SVG-20010904/DTD/svg10.dtd">
<svg version="1.0" xmlns="http://www.w3.org/2000/svg"
 width="340.000000pt" height="340.000000pt" viewBox="0 0 340.000000 340.000000"
 preserveAspectRatio="xMidYMid meet">
<metadata>
Created by potrace 1.15, written by Peter Selinger 2001-2017
</metadata>
<g transform="translate(0.000000,340.000000) scale(0.100000,-0.100000)"
fill="#000000" stroke="none">
<path d="M1081 2484 c-25 -18 -25 -9 -1 -159 11 -69 6 -615 -6 -695 -6 -33
-11 -37 -112 -85 -59 -27 -147 -73 -197 -102 -49 -28 -106 -54 -125 -58 -19
-3 -46 -15 -60 -25 l-25 -19 30 -12 c17 -7 59 -13 95 -13 58 0 79 7 193 58 71
32 131 55 135 52 9 -10 -17 -73 -70 -169 -105 -191 -171 -286 -400 -584 -37
-47 -37 -73 -1 -73 58 0 361 339 468 523 l40 69 3 -129 c2 -70 -2 -220 -8
-333 -11 -200 -12 -206 -41 -251 -35 -55 -37 -96 -8 -156 20 -41 23 -43 65
-43 52 0 80 23 88 72 3 18 7 175 11 348 3 173 8 374 12 446 l6 132 53 -54 c61
-63 122 -93 201 -101 l55 -6 -7 34 c-19 89 -51 114 -202 161 l-103 31 0 63 c0
72 13 114 35 114 54 0 206 81 220 118 8 20 -21 49 -57 57 -22 5 -43 0 -80 -19
-54 -28 -90 -33 -106 -13 -6 8 -5 63 4 167 8 85 18 254 23 375 10 246 9 254
-54 281 -43 18 -46 18 -74 -2z"/>
<path d="M1910 2375 c0 -32 127 -162 185 -189 21 -10 55 -21 76 -23 l39 -6 0
42 c0 54 -22 97 -60 116 -61 32 -240 76 -240 60z"/>
<path d="M1440 2187 c-19 -10 -26 -22 -28 -52 -2 -29 -13 -50 -36 -75 -18 -19
-42 -51 -54 -70 -23 -40 -57 -149 -48 -157 3 -4 24 -1 47 6 30 9 63 34 121 94
93 94 110 123 112 189 1 39 -3 53 -18 64 -24 17 -63 18 -96 1z"/>
<path d="M2430 2078 c-118 -24 -582 -138 -666 -163 -19 -6 -22 -2 -26 45 -5
48 -31 99 -54 107 -6 2 -18 -32 -28 -74 -10 -43 -42 -130 -71 -193 -58 -124
-91 -229 -82 -254 10 -25 55 -31 79 -10 24 22 76 123 119 231 17 43 32 79 33
81 5 5 165 31 498 82 288 44 333 49 373 39 43 -11 70 -29 44 -29 -40 0 -109
-79 -109 -124 0 -44 250 13 307 70 26 26 31 78 9 109 -22 32 -174 103 -231
109 -33 3 -98 -6 -195 -26z"/>
<path d="M775 1998 c15 -76 26 -106 57 -158 40 -66 75 -89 115 -74 77 27 1
194 -111 245 -60 27 -69 25 -61 -13z"/>
<path d="M2105 1620 c-150 -45 -305 -98 -314 -106 -2 -2 2 -10 9 -19 28 -34
303 -1 480 58 93 31 95 33 98 66 2 20 -2 37 -10 42 -29 19 -110 6 -263 -41z"/>
<path d="M2486 1350 c-207 -40 -407 -92 -636 -166 -107 -34 -224 -70 -260 -79
-36 -9 -68 -19 -73 -22 -15 -9 15 -32 50 -39 41 -8 91 2 301 58 84 23 154 39
157 37 10 -11 36 -193 45 -316 9 -124 1 -324 -16 -441 l-6 -43 -22 19 c-54 49
-110 53 -122 7 -14 -57 82 -179 162 -205 41 -14 54 -6 89 54 43 75 49 141 42
497 -6 319 -7 330 -31 389 -18 44 -22 62 -13 66 48 18 239 46 377 55 196 12
227 19 264 58 23 24 26 32 17 50 -32 58 -106 63 -325 21z"/>
<path d="M1713 887 c-17 -34 -56 -96 -88 -137 -54 -71 -125 -199 -125 -227 0
-17 33 -33 69 -33 19 0 43 11 64 30 43 37 114 177 128 250 10 55 4 166 -10
174 -4 3 -21 -23 -38 -57z"/>
<path d="M2356 878 c12 -39 29 -57 111 -117 44 -32 118 -95 166 -140 75 -70
91 -81 122 -81 40 0 85 25 85 47 0 27 -42 96 -84 137 -75 72 -297 176 -378
176 -26 0 -28 -3 -22 -22z"/>
</g>
</svg>
