<?xml version="1.0" standalone="no"?>
<!DOCTYPE svg PUBLIC "-//W3C//DTD SVG 20010904//EN"
 "http://www.w3.org/TR/2001/REC-SVG-20010904/DTD/svg10.dtd">
<svg version="1.0" xmlns="http://www.w3.org/2000/svg"
 width="340.000000pt" height="340.000000pt" viewBox="0 0 340.000000 340.000000"
 preserveAspectRatio="xMidYMid meet">
<metadata>
Created by potrace 1.15, written by Peter Selinger 2001-2017
</metadata>
<g transform="translate(0.000000,340.000000) scale(0.100000,-0.100000)"
fill="#000000" stroke="none">
<path d="M1925 2414 c-9 -14 -22 -43 -30 -64 -7 -21 -37 -66 -65 -101 -28 -35
-78 -108 -109 -161 -54 -91 -59 -96 -77 -83 -57 43 -81 -2 -53 -101 31 -109
59 -286 65 -413 7 -145 8 -153 40 -190 32 -38 80 -48 148 -31 47 12 50 12 68
-10 25 -31 26 -204 2 -239 -19 -27 -88 -61 -124 -61 -29 0 -407 -88 -430 -99
-27 -14 -17 -45 17 -55 26 -7 85 1 264 34 126 23 232 40 234 38 10 -9 -35
-140 -70 -206 -51 -97 -129 -189 -228 -266 -85 -66 -97 -81 -97 -118 0 -18 4
-20 33 -14 54 11 150 61 199 105 73 65 163 192 223 314 30 61 55 118 55 125 0
26 18 6 105 -113 117 -160 243 -314 330 -401 92 -93 149 -116 289 -118 96 -1
99 0 119 26 20 26 20 28 3 47 -10 11 -32 23 -50 26 -17 4 -91 36 -164 73
l-134 66 -216 229 c-119 126 -218 235 -220 242 -4 16 13 22 103 35 104 14 317
12 424 -5 107 -18 148 -13 162 19 17 36 -3 70 -49 84 -115 35 -255 35 -459 2
-32 -6 -86 -10 -121 -10 l-62 0 7 43 c9 48 10 167 3 211 -5 29 -4 29 75 51 44
12 108 34 142 48 l61 25 6 -33 c8 -41 29 -59 60 -51 21 5 27 17 45 93 30 129
48 255 66 466 l17 188 -24 47 c-36 73 -69 87 -208 87 -126 0 -200 -17 -322
-75 -35 -17 -76 -30 -91 -30 -28 0 -28 1 33 68 81 88 144 193 135 224 -13 40
-36 58 -75 58 -29 0 -41 -6 -55 -26z m431 -351 l37 -18 -7 -165 c-7 -162 -21
-341 -31 -410 l-6 -35 -107 0 c-94 -1 -130 -7 -292 -48 -102 -26 -189 -47
-193 -47 -9 0 -9 132 1 146 4 6 57 21 119 33 61 12 158 36 215 54 100 32 103
34 103 62 0 29 -2 30 -49 33 -63 4 -186 -21 -289 -59 -45 -16 -82 -29 -84 -29
-2 0 -3 38 -3 84 0 94 1 96 75 96 60 0 196 27 288 57 83 28 95 44 57 78 -20
18 -24 18 -132 1 -96 -15 -232 -49 -289 -71 -14 -5 -21 7 -39 61 l-23 68 27
22 c14 13 43 26 64 29 20 3 64 12 97 20 95 21 308 51 387 54 21 0 54 -7 74
-16z"/>
<path d="M1044 2395 c-22 -22 -25 -31 -19 -58 5 -18 10 -190 12 -383 l4 -351
-183 -76 c-101 -42 -217 -88 -258 -103 -41 -15 -79 -30 -83 -34 -13 -11 21
-40 47 -40 12 0 109 29 216 65 106 36 195 63 198 61 9 -9 -95 -216 -150 -298
-129 -194 -298 -472 -298 -489 0 -37 36 -18 108 58 96 100 224 272 306 409 36
60 71 116 76 124 12 18 6 -367 -11 -685 -11 -199 -18 -235 -53 -264 -9 -8 -16
-28 -16 -46 0 -66 102 -113 143 -67 31 34 39 150 44 610 5 439 6 453 23 425
30 -49 98 -101 150 -113 27 -7 54 -9 60 -5 18 11 11 80 -12 115 -26 37 -50 51
-131 81 -68 25 -97 61 -97 124 0 61 19 79 113 108 89 28 211 100 204 120 -5
17 -77 39 -107 32 -14 -3 -52 -17 -85 -30 -33 -13 -73 -27 -89 -31 l-29 -7 6
134 c4 74 14 225 23 335 16 196 16 203 -2 240 -12 25 -30 43 -52 51 -30 12
-34 12 -58 -12z"/>
<path d="M1423 2165 c-11 -8 -24 -27 -27 -41 -4 -15 -31 -53 -59 -85 -90 -99
-173 -257 -148 -282 22 -22 91 31 229 174 118 123 132 141 132 172 0 62 -75
99 -127 62z"/>
<path d="M759 1968 c-2 -44 3 -63 29 -107 43 -71 86 -111 119 -111 51 0 58 11
45 76 -14 68 -49 117 -102 144 -54 28 -90 27 -91 -2z"/>
<path d="M2540 1323 c0 -36 6 -46 58 -95 62 -59 96 -74 137 -58 35 13 40 33
20 86 -25 66 -72 97 -151 102 l-64 4 0 -39z"/>
</g>
</svg>
