<?xml version="1.0" standalone="no"?>
<!DOCTYPE svg PUBLIC "-//W3C//DTD SVG 20010904//EN"
 "http://www.w3.org/TR/2001/REC-SVG-20010904/DTD/svg10.dtd">
<svg version="1.0" xmlns="http://www.w3.org/2000/svg"
 width="340.000000pt" height="340.000000pt" viewBox="0 0 340.000000 340.000000"
 preserveAspectRatio="xMidYMid meet">
<metadata>
Created by potrace 1.15, written by Peter Selinger 2001-2017
</metadata>
<g transform="translate(0.000000,340.000000) scale(0.100000,-0.100000)"
fill="#000000" stroke="none">
<path d="M2396 2557 c-8 -34 0 -54 44 -104 20 -23 42 -59 48 -81 8 -28 12
-172 12 -484 l0 -445 -30 -6 c-98 -20 -333 -124 -488 -218 -57 -34 -106 -58
-110 -55 -3 4 0 21 7 39 102 258 171 598 171 845 0 150 -33 204 -144 234 -39
10 -49 10 -56 -1 -10 -17 -6 -31 25 -91 57 -111 68 -234 41 -440 -30 -220 -84
-415 -170 -611 l-44 -98 19 -31 c43 -70 85 -60 264 62 131 89 253 162 378 224
51 26 100 53 110 62 9 8 20 12 23 9 4 -3 8 -158 10 -344 3 -310 15 -616 30
-770 7 -71 21 -97 47 -88 40 16 41 37 43 1170 2 1160 3 1126 -44 1178 -25 28
-86 57 -136 63 -40 6 -44 5 -50 -19z"/>
<path d="M1278 2470 c-35 -27 -35 -35 2 -70 17 -15 30 -38 30 -50 0 -52 -200
-383 -362 -597 -100 -134 -109 -149 -103 -179 7 -41 38 -64 85 -64 20 0 99 28
185 64 83 35 151 62 153 61 12 -10 -77 -148 -290 -458 -96 -139 -109 -162
-103 -188 16 -73 70 -78 172 -15 101 62 252 175 366 274 92 80 113 111 86 128
-15 9 -160 -66 -277 -143 -53 -35 -99 -63 -104 -63 -11 0 10 52 31 75 22 24
232 351 379 589 94 154 104 174 105 219 1 42 -3 53 -27 73 -39 34 -100 33
-122 -2 -15 -22 -16 -31 -5 -59 11 -31 9 -39 -20 -97 -17 -34 -49 -91 -71
-125 l-39 -62 -155 -51 c-85 -29 -158 -50 -160 -47 -8 7 37 75 142 218 101
137 186 269 254 392 41 75 42 80 31 118 -14 48 -47 71 -109 77 -38 3 -53 0
-74 -18z"/>
<path d="M1500 1058 c-134 -102 -326 -253 -467 -368 -84 -69 -164 -133 -178
-143 -15 -11 -25 -28 -25 -42 0 -32 56 -78 85 -71 44 11 121 62 170 111 308
314 495 519 495 544 0 20 -25 11 -80 -31z"/>
</g>
</svg>
