<?xml version="1.0" standalone="no"?>
<!DOCTYPE svg PUBLIC "-//W3C//DTD SVG 20010904//EN"
 "http://www.w3.org/TR/2001/REC-SVG-20010904/DTD/svg10.dtd">
<svg version="1.0" xmlns="http://www.w3.org/2000/svg"
 width="340.000000pt" height="340.000000pt" viewBox="0 0 340.000000 340.000000"
 preserveAspectRatio="xMidYMid meet">
<metadata>
Created by potrace 1.15, written by Peter Selinger 2001-2017
</metadata>
<g transform="translate(0.000000,340.000000) scale(0.100000,-0.100000)"
fill="#000000" stroke="none">
<path d="M2070 2405 c-15 -18 -5 -50 31 -95 39 -48 46 -95 48 -332 l2 -205
-73 -12 c-120 -21 -404 -96 -548 -145 -74 -25 -149 -46 -167 -46 -41 0 -49
-14 -23 -40 38 -38 147 -26 395 44 132 37 401 93 410 85 2 -3 9 -209 14 -459
6 -250 13 -517 16 -592 l5 -138 -25 0 c-32 0 -94 31 -120 60 -23 26 -74 50
-105 50 -25 0 -23 -13 21 -108 20 -44 50 -86 97 -132 111 -111 169 -134 227
-88 l28 22 -6 415 c-4 229 -10 547 -14 707 l-6 291 49 6 c27 4 132 10 234 13
170 7 186 9 202 28 9 12 17 34 18 49 0 23 -7 31 -37 44 -31 13 -62 14 -168 9
-71 -3 -164 -13 -205 -21 -41 -8 -78 -15 -81 -15 -4 0 -9 87 -12 193 -4 164
-21 309 -42 376 -13 43 -137 70 -165 36z"/>
<path d="M1128 2338 c-22 -17 -38 -61 -31 -86 8 -32 -216 -351 -434 -619 -72
-90 -83 -108 -83 -142 0 -46 15 -61 67 -67 30 -4 72 9 202 60 91 36 167 64
169 62 11 -11 -113 -227 -227 -396 -116 -171 -131 -198 -131 -235 0 -52 13
-65 69 -65 42 0 60 9 201 105 231 156 292 205 314 248 10 21 16 41 12 44 -3 3
-43 -6 -89 -21 -63 -19 -106 -42 -168 -86 -79 -56 -109 -71 -109 -52 0 28 250
429 377 606 107 147 118 231 39 291 -40 30 -69 32 -96 5 -24 -24 -25 -32 -5
-70 15 -29 14 -33 -34 -127 -27 -54 -55 -106 -63 -115 -9 -11 -40 -21 -96 -28
-46 -6 -113 -20 -149 -31 -36 -11 -67 -18 -70 -16 -8 9 24 61 74 122 26 33
123 156 216 274 155 200 167 218 167 257 0 25 -7 50 -17 63 -22 27 -81 37
-105 19z"/>
<path d="M1520 1322 c0 -37 18 -61 145 -201 94 -104 114 -121 141 -121 60 0
69 40 28 122 -52 102 -144 177 -261 212 l-53 15 0 -27z"/>
<path d="M1142 813 c-179 -140 -452 -366 -461 -381 -12 -22 5 -56 40 -76 l30
-17 84 56 c151 100 435 411 435 476 0 33 -25 21 -128 -58z"/>
</g>
</svg>
