<?xml version="1.0" standalone="no"?>
<!DOCTYPE svg PUBLIC "-//W3C//DTD SVG 20010904//EN"
 "http://www.w3.org/TR/2001/REC-SVG-20010904/DTD/svg10.dtd">
<svg version="1.0" xmlns="http://www.w3.org/2000/svg"
 width="340.000000pt" height="340.000000pt" viewBox="0 0 340.000000 340.000000"
 preserveAspectRatio="xMidYMid meet">
<metadata>
Created by potrace 1.15, written by Peter Selinger 2001-2017
</metadata>
<g transform="translate(0.000000,340.000000) scale(0.100000,-0.100000)"
fill="#000000" stroke="none">
<path d="M1003 2380 c-32 -13 -29 -31 12 -80 19 -23 35 -50 35 -59 0 -43 -223
-369 -388 -568 -96 -116 -103 -127 -98 -158 14 -70 65 -76 206 -23 52 20 110
39 129 43 l34 7 -28 -48 c-15 -27 -99 -158 -187 -291 -155 -235 -160 -244
-148 -272 16 -40 58 -57 105 -41 30 10 473 285 498 310 15 14 -12 50 -38 50
-14 0 -93 -32 -176 -70 -84 -39 -153 -69 -155 -67 -2 1 20 46 49 100 63 117
201 317 337 487 55 69 105 139 111 157 14 42 -5 84 -44 97 -41 15 -77 -9 -107
-70 -37 -74 -84 -145 -122 -181 -28 -27 -46 -34 -127 -47 -51 -9 -98 -19 -102
-22 -19 -11 -8 44 13 62 22 20 153 194 301 400 81 114 87 125 87 172 0 67 -24
97 -91 111 -59 13 -76 13 -106 1z"/>
<path d="M1833 2333 c-20 -8 -15 -41 15 -102 l27 -56 1 -467 c0 -367 3 -470
13 -482 18 -21 54 -20 81 2 l23 18 5 420 c3 230 1 464 -3 518 -6 91 -10 102
-35 128 -23 22 -37 28 -72 27 -24 0 -49 -3 -55 -6z"/>
<path d="M2223 1888 c-7 -8 -9 -19 -5 -25 4 -6 57 -31 119 -56 139 -57 229
-102 257 -129 25 -25 109 -63 153 -72 26 -4 36 -1 53 21 58 74 -8 149 -184
208 -65 22 -128 33 -347 62 -22 3 -39 0 -46 -9z"/>
<path d="M1507 1788 c-29 -46 -77 -123 -107 -173 -30 -49 -67 -106 -83 -126
-33 -42 -38 -86 -13 -123 19 -30 27 -31 65 -12 65 34 128 132 183 286 23 65
37 230 20 230 -7 0 -36 -37 -65 -82z"/>
<path d="M2305 1582 c-13 -20 -31 -58 -38 -83 -27 -88 -229 -384 -406 -594
-173 -205 -505 -512 -607 -561 -57 -27 -100 -68 -125 -115 l-18 -37 55 15 c79
20 155 55 237 110 88 58 481 448 618 613 178 214 386 502 403 558 14 43 -2 91
-37 112 -44 27 -53 25 -82 -18z"/>
<path d="M1130 895 c-225 -151 -534 -412 -546 -461 -8 -31 17 -60 58 -69 25
-6 37 0 91 46 181 156 541 518 555 560 10 26 -46 0 -158 -76z"/>
</g>
</svg>
