<?xml version="1.0" standalone="no"?>
<!DOCTYPE svg PUBLIC "-//W3C//DTD SVG 20010904//EN"
 "http://www.w3.org/TR/2001/REC-SVG-20010904/DTD/svg10.dtd">
<svg version="1.0" xmlns="http://www.w3.org/2000/svg"
 width="340.000000pt" height="340.000000pt" viewBox="0 0 340.000000 340.000000"
 preserveAspectRatio="xMidYMid meet">
<metadata>
Created by potrace 1.15, written by Peter Selinger 2001-2017
</metadata>
<g transform="translate(0.000000,340.000000) scale(0.100000,-0.100000)"
fill="#000000" stroke="none">
<path d="M1012 2248 c-19 -9 -22 -19 -21 -57 1 -25 -4 -58 -10 -74 -24 -61
-214 -326 -347 -484 -59 -71 -65 -81 -60 -113 3 -19 15 -43 26 -52 41 -33 81
-32 196 5 60 20 127 39 148 43 35 6 39 5 34 -12 -4 -16 -198 -305 -344 -512
-50 -71 -56 -110 -23 -143 18 -18 29 -21 69 -16 41 5 80 28 276 163 126 86
237 166 247 176 23 27 22 48 -3 48 -53 0 -229 -77 -327 -143 -29 -20 -53 -33
-53 -29 1 23 71 139 148 245 173 236 372 545 372 578 0 35 -53 79 -94 79 -41
0 -48 -10 -65 -98 -12 -57 -40 -119 -77 -168 -20 -27 -32 -33 -101 -43 -43 -7
-115 -21 -160 -31 -46 -10 -83 -14 -83 -10 0 10 64 95 169 225 106 130 221
303 221 333 0 73 -73 121 -138 90z"/>
<path d="M1618 2223 c-19 -5 -23 -20 -10 -39 11 -16 185 -120 279 -165 68 -34
85 -38 103 -29 57 30 40 102 -33 144 -54 31 -169 72 -227 80 -85 13 -95 14
-112 9z"/>
<path d="M2225 1804 c-132 -30 -393 -90 -580 -133 -187 -44 -355 -82 -372 -86
-35 -7 -42 -25 -19 -44 25 -21 328 16 580 70 77 17 142 27 147 22 5 -5 13 -32
18 -60 16 -82 -20 -286 -83 -470 -39 -115 -33 -115 -116 -12 -41 51 -112 125
-159 166 -90 79 -241 184 -253 176 -22 -13 -4 -53 48 -103 68 -67 260 -280
337 -374 l56 -68 -27 -42 c-124 -193 -315 -380 -490 -478 -58 -33 -85 -66 -80
-96 3 -19 8 -18 90 18 47 20 126 63 175 95 98 65 281 243 353 343 24 34 47 62
51 62 3 0 39 -44 80 -97 41 -54 139 -165 219 -246 143 -147 146 -149 215 -169
73 -21 327 -37 379 -24 58 14 38 88 -28 101 -17 4 -103 30 -191 57 -163 52
-237 83 -290 124 -36 27 -238 248 -291 318 -33 43 -36 52 -26 75 5 14 29 69
51 123 45 107 83 239 106 368 21 120 21 170 1 208 -10 19 -16 35 -14 36 15 13
178 37 340 52 101 8 145 61 102 122 -22 32 -54 29 -329 -34z"/>
<path d="M1190 948 c-148 -111 -301 -257 -460 -436 -40 -46 -89 -91 -109 -100
-48 -23 -70 -62 -52 -95 18 -33 67 -60 96 -53 14 4 64 54 122 123 54 65 145
168 203 231 58 62 127 141 153 175 49 62 124 197 110 197 -5 0 -33 -19 -63
-42z"/>
</g>
</svg>
