<?xml version="1.0" standalone="no"?>
<!DOCTYPE svg PUBLIC "-//W3C//DTD SVG 20010904//EN"
 "http://www.w3.org/TR/2001/REC-SVG-20010904/DTD/svg10.dtd">
<svg version="1.0" xmlns="http://www.w3.org/2000/svg"
 width="340.000000pt" height="340.000000pt" viewBox="0 0 340.000000 340.000000"
 preserveAspectRatio="xMidYMid meet">
<metadata>
Created by potrace 1.15, written by Peter Selinger 2001-2017
</metadata>
<g transform="translate(0.000000,340.000000) scale(0.100000,-0.100000)"
fill="#000000" stroke="none">
<path d="M1478 2518 c-39 -13 -42 -37 -12 -102 14 -31 32 -91 39 -134 8 -42
34 -170 59 -285 26 -114 46 -214 46 -221 0 -13 -95 -58 -182 -85 -26 -9 -35
-17 -31 -27 10 -26 53 -28 122 -5 108 35 105 36 141 -81 17 -57 36 -118 42
-137 6 -20 7 -36 1 -40 -5 -3 -70 -44 -144 -90 -74 -47 -136 -86 -138 -88 -2
-1 2 -9 9 -18 20 -24 65 -18 138 19 67 33 170 71 176 65 9 -10 159 -360 155
-362 -2 -2 -101 -76 -219 -165 -283 -212 -278 -208 -263 -222 7 -7 23 -9 41
-5 39 8 244 125 390 222 62 42 114 74 116 72 2 -2 23 -41 46 -87 61 -114 151
-231 258 -334 129 -125 374 -281 415 -265 9 3 26 25 38 48 18 36 20 53 15 113
-12 156 -35 246 -71 276 -21 17 -56 -82 -62 -177 -3 -46 -10 -83 -16 -83 -22
0 -176 121 -262 205 -101 100 -172 191 -236 303 l-42 74 49 40 c66 55 214 208
248 256 24 35 26 42 14 68 -31 74 -61 81 -109 27 -17 -21 -81 -89 -140 -151
-127 -133 -131 -133 -184 -18 -35 76 -87 217 -83 221 2 2 53 26 113 54 61 29
140 70 177 92 62 38 67 43 56 63 -27 52 -63 48 -227 -25 -75 -33 -141 -63
-148 -66 -14 -6 -49 87 -70 185 -8 40 -13 75 -11 76 1 2 84 38 183 81 265 114
275 119 275 155 0 23 -5 31 -25 36 -34 9 -190 -46 -334 -118 -64 -31 -119 -54
-122 -50 -3 4 -25 133 -48 287 -47 313 -54 344 -79 374 -22 27 -70 40 -104 29z"/>
<path d="M2025 2310 c-10 -16 -1 -25 123 -111 64 -45 121 -90 126 -98 42 -71
111 -91 162 -48 l27 23 -18 37 c-43 92 -134 161 -251 191 -70 18 -160 21 -169
6z"/>
<path d="M1125 2293 c-34 -8 -40 -22 -40 -86 0 -60 -2 -66 -69 -167 -104 -158
-181 -263 -288 -392 -105 -125 -116 -154 -80 -197 32 -41 84 -43 217 -11 66
15 121 27 122 27 4 -5 -95 -159 -146 -226 -166 -219 -193 -262 -187 -296 21
-110 145 -80 371 90 123 94 186 155 183 179 -3 18 -9 21 -43 20 -31 -1 -67
-17 -165 -77 -69 -41 -126 -72 -128 -67 -5 14 16 48 88 145 119 160 401 566
411 592 12 32 12 90 -1 114 -10 18 -59 49 -79 49 -13 0 -47 -65 -71 -135 -10
-27 -46 -99 -82 -160 l-64 -110 -130 -6 c-71 -4 -130 -6 -132 -4 -1 1 90 123
204 271 114 148 213 278 221 290 9 14 13 41 11 70 -2 37 -8 51 -28 65 -29 20
-66 28 -95 22z"/>
<path d="M1109 819 c-74 -56 -185 -145 -248 -197 -63 -52 -136 -106 -163 -119
-37 -18 -53 -33 -64 -60 -15 -34 -15 -36 12 -64 30 -32 77 -39 117 -18 65 35
458 434 493 501 15 29 13 58 -4 58 -4 0 -69 -46 -143 -101z"/>
</g>
</svg>
