<?xml version="1.0" standalone="no"?>
<!DOCTYPE svg PUBLIC "-//W3C//DTD SVG 20010904//EN"
 "http://www.w3.org/TR/2001/REC-SVG-20010904/DTD/svg10.dtd">
<svg version="1.0" xmlns="http://www.w3.org/2000/svg"
 width="340.000000pt" height="340.000000pt" viewBox="0 0 340.000000 340.000000"
 preserveAspectRatio="xMidYMid meet">
<metadata>
Created by potrace 1.15, written by Peter Selinger 2001-2017
</metadata>
<g transform="translate(0.000000,340.000000) scale(0.100000,-0.100000)"
fill="#000000" stroke="none">
<path d="M1005 2269 c-25 -20 -27 -26 -21 -68 6 -44 3 -52 -55 -146 -84 -137
-203 -303 -321 -445 -82 -101 -98 -126 -98 -155 0 -22 8 -43 21 -56 29 -29 95
-21 227 26 57 20 106 34 109 32 10 -10 -59 -129 -133 -228 -43 -57 -104 -144
-136 -193 -50 -76 -58 -94 -52 -120 16 -78 83 -91 181 -36 177 100 366 248
361 283 -6 40 -43 30 -192 -48 -81 -42 -146 -74 -146 -71 0 24 48 103 202 331
196 290 278 419 278 436 0 6 -7 26 -16 45 -31 66 -72 42 -138 -81 -75 -139
-109 -184 -141 -189 -16 -3 -72 -12 -124 -21 -51 -9 -96 -13 -99 -11 -7 8 51
90 173 245 135 172 241 327 249 367 12 55 -18 100 -80 118 -14 4 -30 -1 -49
-15z"/>
<path d="M2216 2177 c-26 -19 -23 -79 6 -124 22 -37 23 -47 26 -265 l3 -226
-28 -6 c-37 -7 -220 -36 -232 -36 -5 0 -11 57 -13 128 -5 138 -24 225 -66 312
-31 63 -73 86 -124 68 -15 -6 -28 -11 -28 -13 0 -2 13 -34 29 -71 16 -38 36
-112 45 -164 21 -115 35 -273 27 -282 -3 -3 -65 -23 -138 -43 -105 -29 -136
-34 -153 -25 -11 6 -20 15 -20 21 0 190 -23 327 -72 439 -29 64 -45 80 -85 83
-38 3 -40 -21 -9 -125 33 -111 53 -222 62 -345 8 -120 20 -108 -148 -153 -86
-22 -127 -29 -157 -24 -39 6 -41 5 -41 -19 0 -23 6 -27 58 -38 68 -14 179 -7
241 15 24 9 46 14 48 12 2 -2 9 -86 15 -187 10 -173 6 -530 -8 -719 -6 -76 -4
-88 13 -110 28 -33 65 -30 193 19 226 86 406 116 645 108 88 -3 196 -11 240
-18 119 -18 165 0 165 66 0 30 -4 34 -45 49 -94 31 -201 40 -345 27 -226 -20
-448 -50 -587 -79 l-132 -28 -5 36 c-13 80 -36 397 -41 560 -3 96 -8 201 -10
233 l-5 58 35 15 c31 13 180 50 271 69 l31 6 1 -208 c1 -289 11 -468 28 -490
14 -17 15 -17 32 6 9 13 31 38 47 56 29 31 33 32 160 43 139 13 168 24 193 75
11 23 10 29 -9 48 -15 15 -19 27 -14 42 4 12 17 131 28 263 l20 241 231 7
c252 8 256 9 256 68 0 51 -33 62 -183 60 -73 -1 -168 -8 -212 -15 l-81 -13 1
251 c0 242 -1 251 -23 286 -30 49 -104 79 -136 56z m25 -744 c9 -26 0 -253
-17 -425 l-6 -56 -71 -13 c-40 -6 -89 -18 -111 -25 -21 -8 -42 -14 -47 -14 -5
0 -9 117 -9 260 0 218 2 262 14 266 26 10 160 32 199 33 32 1 39 -3 48 -26z"/>
<path d="M1089 835 c-116 -86 -223 -188 -316 -299 -90 -107 -108 -122 -168
-143 -56 -19 -72 -43 -54 -84 15 -39 45 -59 86 -59 28 0 47 13 115 77 44 43
114 119 154 168 41 50 103 126 139 169 61 75 155 236 138 236 -4 0 -47 -29
-94 -65z"/>
</g>
</svg>
