<?xml version="1.0" standalone="no"?>
<!DOCTYPE svg PUBLIC "-//W3C//DTD SVG 20010904//EN"
 "http://www.w3.org/TR/2001/REC-SVG-20010904/DTD/svg10.dtd">
<svg version="1.0" xmlns="http://www.w3.org/2000/svg"
 width="340.000000pt" height="340.000000pt" viewBox="0 0 340.000000 340.000000"
 preserveAspectRatio="xMidYMid meet">
<metadata>
Created by potrace 1.15, written by Peter Selinger 2001-2017
</metadata>
<g transform="translate(0.000000,340.000000) scale(0.100000,-0.100000)"
fill="#000000" stroke="none">
<path d="M1796 2465 c-199 -67 -260 -84 -304 -84 -47 1 -59 -3 -75 -22 l-19
-24 43 -13 c75 -23 220 -11 309 25 103 41 240 68 240 47 0 -16 -211 -327 -229
-339 -5 -3 -59 20 -119 50 -148 74 -242 110 -242 91 0 -18 48 -76 63 -76 15 0
231 -138 235 -150 5 -13 -158 -191 -331 -362 -82 -81 -146 -152 -142 -158 14
-23 55 -6 142 58 126 93 269 220 353 313 40 44 75 79 78 79 4 0 45 -27 92 -61
152 -109 363 -228 555 -314 51 -23 77 -28 175 -31 72 -3 137 0 175 8 54 12 60
16 63 40 4 32 -29 58 -73 58 -43 0 -253 53 -360 90 -166 59 -426 194 -534 279
l-24 18 45 59 c123 160 250 390 241 437 -7 34 -47 67 -82 66 -14 0 -138 -38
-275 -84z"/>
<path d="M943 2514 c-20 -9 -15 -37 12 -74 14 -19 25 -45 25 -59 0 -26 -99
-212 -178 -336 -54 -84 -136 -196 -208 -286 -43 -53 -54 -74 -54 -103 0 -89
66 -97 256 -32 71 24 131 43 132 41 14 -14 -160 -284 -277 -434 -61 -76 -71
-95 -71 -128 0 -51 23 -73 77 -73 32 0 63 14 152 67 145 88 359 240 378 270
18 28 11 53 -15 53 -26 0 -157 -60 -263 -121 -48 -27 -89 -49 -93 -49 -13 0
48 107 114 200 96 136 186 289 241 408 43 94 46 107 37 140 -11 42 -34 72 -55
72 -8 0 -27 -7 -42 -15 -24 -12 -29 -22 -34 -68 -8 -77 -46 -168 -77 -184 -20
-9 -251 -63 -273 -63 -3 0 84 134 194 297 155 233 200 307 205 340 8 52 -8 96
-43 118 -25 17 -118 29 -140 19z"/>
<path d="M1722 1737 c-29 -30 -28 -59 3 -95 22 -26 25 -39 25 -110 l0 -81 -54
-20 c-30 -11 -93 -28 -140 -38 -70 -14 -86 -21 -86 -35 0 -33 40 -41 131 -29
45 6 99 11 121 11 l38 0 0 -129 0 -129 -47 -6 c-140 -20 -413 -101 -413 -122
0 -21 30 -44 58 -44 15 0 110 16 211 35 100 19 187 35 192 35 5 0 9 -70 9
-156 0 -218 19 -593 32 -626 12 -32 42 -37 57 -10 14 27 31 264 32 461 1 97 4
217 8 266 l6 90 55 7 c30 3 134 9 230 13 185 8 230 19 230 55 0 11 -9 29 -20
40 -18 18 -33 20 -147 20 -71 0 -173 -7 -227 -15 -55 -8 -105 -15 -113 -15
-10 0 -13 29 -13 134 l0 133 43 7 c53 8 136 48 166 79 l22 24 -37 18 c-36 17
-84 17 -155 0 -42 -11 -59 16 -59 88 0 72 -22 116 -72 147 -43 26 -60 25 -86
-3z"/>
<path d="M1050 998 c-63 -51 -176 -152 -251 -225 -115 -112 -141 -133 -167
-133 -39 0 -62 -23 -62 -63 0 -43 23 -74 60 -82 23 -5 42 0 77 21 47 27 84 64
265 260 83 90 208 256 224 298 14 38 -37 10 -146 -76z"/>
</g>
</svg>
