<?xml version="1.0" standalone="no"?>
<!DOCTYPE svg PUBLIC "-//W3C//DTD SVG 20010904//EN"
 "http://www.w3.org/TR/2001/REC-SVG-20010904/DTD/svg10.dtd">
<svg version="1.0" xmlns="http://www.w3.org/2000/svg"
 width="340.000000pt" height="340.000000pt" viewBox="0 0 340.000000 340.000000"
 preserveAspectRatio="xMidYMid meet">
<metadata>
Created by potrace 1.15, written by Peter Selinger 2001-2017
</metadata>
<g transform="translate(0.000000,340.000000) scale(0.100000,-0.100000)"
fill="#000000" stroke="none">
<path d="M1530 2391 c-37 -10 -35 -33 8 -108 22 -37 79 -144 127 -237 70 -135
85 -170 74 -178 -50 -33 -134 -77 -198 -104 -56 -23 -77 -36 -79 -51 -7 -47
104 -29 278 46 l75 32 33 -38 c19 -21 51 -59 73 -84 l38 -46 -124 -77 c-173
-108 -357 -246 -353 -265 9 -48 105 -8 422 178 l138 80 72 -63 c133 -116 259
-189 415 -242 l84 -28 28 33 c44 53 52 111 30 224 -21 106 -23 113 -49 119
-41 11 -59 -8 -71 -75 -6 -35 -11 -78 -11 -95 0 -41 -11 -41 -106 -1 -80 33
-194 104 -258 161 l-39 34 38 23 c64 38 123 91 171 154 36 48 44 66 39 86 -13
55 -80 88 -108 54 -62 -74 -196 -205 -215 -210 -13 -3 -32 -2 -42 3 -25 12
-90 100 -90 122 0 12 33 33 108 69 60 29 129 71 156 95 l50 44 -36 22 c-19 12
-48 22 -63 22 -16 0 -81 -31 -158 -75 -71 -42 -132 -74 -134 -71 -3 2 -31 60
-62 128 -80 172 -158 315 -177 322 -19 7 -51 6 -84 -3z"/>
<path d="M1070 2235 c-8 -10 -10 -26 -5 -47 14 -62 8 -114 -18 -166 -62 -123
-221 -339 -361 -490 -53 -56 -69 -80 -73 -110 -6 -47 11 -71 61 -82 33 -7 57
-2 168 37 71 24 132 42 135 40 6 -7 -40 -80 -97 -152 -26 -33 -89 -118 -140
-190 -79 -112 -91 -133 -86 -159 9 -45 34 -66 76 -66 46 0 98 27 263 137 172
114 227 159 227 184 0 46 -55 35 -219 -42 -57 -27 -106 -49 -108 -49 -10 0 50
101 83 141 153 182 384 535 384 585 0 39 -28 64 -71 64 -37 0 -41 -3 -55 -37
-9 -21 -46 -90 -82 -154 l-67 -117 -74 -12 c-41 -7 -99 -18 -129 -26 -30 -8
-56 -13 -58 -11 -2 2 30 46 72 98 93 116 214 294 284 416 46 83 51 97 45 132
-9 57 -47 91 -100 91 -26 0 -48 -6 -55 -15z"/>
<path d="M1890 1186 c-113 -34 -269 -82 -347 -106 -116 -35 -143 -46 -143 -61
0 -35 35 -43 132 -29 49 7 91 10 94 7 11 -10 -69 -147 -147 -251 -43 -56 -133
-156 -204 -223 -101 -97 -126 -126 -123 -145 5 -36 38 -33 108 13 104 67 185
137 282 244 114 125 179 226 219 336 33 92 42 101 112 114 44 9 47 -3 30 -105
-20 -117 -53 -389 -53 -440 0 -112 85 -236 183 -265 198 -59 458 -56 670 7 45
14 69 52 92 150 19 81 20 238 1 282 -14 34 -51 56 -66 39 -15 -15 -48 -150
-61 -249 -14 -109 -8 -103 -134 -131 -137 -29 -348 -14 -462 34 -82 34 -117
217 -72 383 17 65 23 113 23 204 l1 119 64 22 c75 25 122 68 98 92 -31 31 -86
24 -297 -41z"/>
<path d="M1082 789 c-56 -44 -153 -129 -215 -188 -63 -60 -127 -116 -144 -124
-17 -9 -33 -24 -37 -33 -9 -23 16 -58 53 -73 27 -12 35 -10 83 16 88 47 303
274 352 372 31 61 42 111 24 111 -7 -1 -59 -37 -116 -81z"/>
</g>
</svg>
