<?xml version="1.0" standalone="no"?>
<!DOCTYPE svg PUBLIC "-//W3C//DTD SVG 20010904//EN"
 "http://www.w3.org/TR/2001/REC-SVG-20010904/DTD/svg10.dtd">
<svg version="1.0" xmlns="http://www.w3.org/2000/svg"
 width="340.000000pt" height="340.000000pt" viewBox="0 0 340.000000 340.000000"
 preserveAspectRatio="xMidYMid meet">
<metadata>
Created by potrace 1.15, written by Peter Selinger 2001-2017
</metadata>
<g transform="translate(0.000000,340.000000) scale(0.100000,-0.100000)"
fill="#000000" stroke="none">
<path d="M1733 2400 c-29 -12 -29 -22 2 -58 14 -17 25 -40 25 -51 0 -12 -42
-81 -94 -154 -147 -207 -288 -426 -281 -437 15 -25 51 -7 112 58 120 125 321
372 398 489 22 34 26 49 21 77 -11 60 -35 79 -102 83 -32 1 -69 -2 -81 -7z"/>
<path d="M992 2331 c-10 -6 -11 -22 -6 -58 5 -39 2 -60 -14 -95 -33 -76 -176
-266 -321 -426 -76 -85 -83 -96 -77 -124 9 -47 33 -68 76 -68 30 0 223 55 308
87 26 10 -34 -88 -211 -346 l-160 -233 12 -39 c14 -47 41 -63 92 -56 33 4 184
95 462 278 14 10 -1 47 -22 54 -22 7 -166 -50 -268 -105 -40 -22 -73 -35 -73
-30 0 11 145 227 347 517 73 105 138 204 144 220 14 38 3 89 -24 108 -50 35
-124 7 -114 -43 6 -31 -13 -77 -65 -162 l-40 -65 -124 0 c-68 0 -124 1 -124 2
0 2 36 46 80 99 44 53 124 152 177 221 79 104 96 132 101 168 4 39 1 48 -26
75 -25 24 -39 30 -74 30 -24 0 -49 -4 -56 -9z"/>
<path d="M1985 2101 c-116 -49 -255 -119 -255 -129 0 -14 24 -32 43 -32 10 0
50 9 87 21 38 11 82 19 99 17 l31 -3 -75 -120 c-41 -66 -105 -173 -141 -238
l-67 -117 -176 -56 c-227 -72 -229 -73 -237 -96 -4 -12 9 -49 35 -101 29 -57
47 -110 58 -172 15 -84 15 -101 0 -240 -24 -215 -4 -324 81 -446 38 -54 38
-54 144 -86 168 -51 302 -66 513 -60 175 5 266 14 428 42 94 16 172 59 226
124 33 41 36 50 40 122 3 80 -8 154 -34 215 -14 34 -16 36 -37 22 -41 -28 -58
-76 -58 -169 0 -119 -9 -129 -153 -174 -193 -59 -268 -70 -492 -69 -285 1
-385 25 -476 116 -56 56 -73 109 -71 222 1 55 5 103 9 107 5 5 67 17 138 29
268 42 471 82 493 96 13 9 22 24 22 40 0 15 16 52 35 84 51 84 128 251 164
353 l31 89 -18 42 c-11 23 -33 54 -51 69 -46 38 -99 35 -306 -17 -93 -24 -172
-42 -174 -40 -6 5 46 87 93 144 146 178 246 331 246 378 0 32 -43 72 -77 71
-15 0 -68 -17 -118 -38z m247 -619 c8 -8 1 -39 -26 -119 -47 -137 -126 -326
-140 -336 -13 -8 -45 -17 -186 -46 -58 -13 -165 -42 -238 -66 l-132 -43 6 92
c8 108 -12 227 -53 319 -14 31 -23 60 -20 64 9 8 237 63 264 63 l23 0 0 -200
0 -200 30 0 c39 0 55 26 70 116 12 70 9 244 -5 290 -6 18 -1 23 37 33 156 43
343 60 370 33z"/>
<path d="M1017 880 c-90 -91 -195 -206 -235 -256 -40 -51 -98 -110 -131 -134
-67 -49 -81 -80 -52 -120 13 -18 29 -26 58 -28 37 -3 44 1 82 45 64 72 353
450 399 521 40 62 60 117 47 130 -3 3 -79 -68 -168 -158z"/>
</g>
</svg>
