<?xml version="1.0" standalone="no"?>
<!DOCTYPE svg PUBLIC "-//W3C//DTD SVG 20010904//EN"
 "http://www.w3.org/TR/2001/REC-SVG-20010904/DTD/svg10.dtd">
<svg version="1.0" xmlns="http://www.w3.org/2000/svg"
 width="340.000000pt" height="340.000000pt" viewBox="0 0 340.000000 340.000000"
 preserveAspectRatio="xMidYMid meet">
<metadata>
Created by potrace 1.15, written by Peter Selinger 2001-2017
</metadata>
<g transform="translate(0.000000,340.000000) scale(0.100000,-0.100000)"
fill="#000000" stroke="none">
<path d="M1744 2486 c-3 -8 7 -33 23 -57 l28 -42 3 -227 3 -227 -68 -25 c-66
-25 -128 -40 -206 -53 -34 -6 -38 -9 -35 -33 3 -25 7 -27 58 -30 30 -1 100 4
154 11 l99 14 -7 -111 c-3 -61 -9 -129 -12 -152 l-6 -41 -237 -76 c-130 -42
-250 -75 -266 -74 -26 2 -30 -2 -33 -25 -3 -24 1 -28 34 -34 73 -14 178 4 353
60 93 30 187 58 207 62 l37 7 -23 -34 c-32 -46 -203 -251 -221 -265 -8 -7 -23
-14 -34 -16 -15 -3 -20 -11 -20 -36 0 -28 -28 -59 -257 -289 -142 -142 -258
-264 -258 -271 0 -32 54 -8 150 69 113 90 317 268 369 323 19 20 38 36 42 36
20 0 33 -109 34 -295 1 -234 19 -329 62 -346 64 -24 509 87 487 122 -3 5 -19
16 -36 25 -28 14 -38 14 -122 -1 -94 -17 -200 -47 -248 -72 l-28 -14 0 174 c0
153 2 176 18 189 12 11 48 17 122 21 79 4 126 12 189 33 47 16 87 34 89 41 2
7 -8 24 -23 39 -24 24 -32 26 -80 21 -29 -3 -108 -24 -175 -46 -67 -23 -123
-41 -125 -41 -1 0 -4 33 -7 73 -3 50 -13 91 -31 131 -15 32 -27 62 -27 66 0
25 144 54 393 80 120 12 169 4 213 -34 l27 -23 5 -225 c3 -139 0 -276 -8 -359
-6 -74 -13 -135 -14 -136 -1 -2 -21 4 -44 13 -24 10 -51 14 -67 10 -24 -6 -25
-10 -19 -44 10 -56 28 -95 64 -136 47 -54 83 -70 124 -56 41 13 53 36 66 125
13 84 26 762 16 827 -5 36 -17 57 -47 88 -115 119 -263 120 -541 4 -32 -13
-60 -24 -63 -24 -11 0 14 36 67 97 29 34 72 85 96 113 23 29 53 61 66 71 35
28 242 49 499 52 226 3 257 9 257 50 0 12 -9 33 -20 47 -18 24 -22 25 -170 28
-152 3 -235 -4 -368 -35 -93 -21 -108 -11 -65 44 57 72 161 238 222 354 65
124 73 161 47 224 -17 40 -42 55 -90 55 l-36 0 0 -72 c0 -59 -5 -83 -32 -140
-20 -43 -36 -67 -44 -64 -87 33 -149 31 -245 -10 -91 -38 -90 -41 -77 208 13
231 10 245 -44 278 -40 24 -135 28 -144 6z m345 -767 c-94 -140 -118 -169
-142 -175 -35 -7 -47 7 -41 50 2 17 6 83 10 147 l6 115 136 35 c131 34 137 35
140 17 2 -12 -41 -86 -109 -189z"/>
<path d="M1012 2290 c-30 -13 -37 -34 -22 -71 19 -44 1 -93 -77 -207 -76 -112
-143 -198 -260 -334 -87 -101 -107 -144 -84 -186 14 -26 72 -46 114 -39 18 3
57 12 87 21 54 15 140 22 140 10 0 -7 -90 -133 -227 -317 -57 -76 -103 -144
-103 -152 0 -22 20 -69 33 -77 23 -15 88 -8 130 13 59 30 248 157 337 226 58
45 76 65 78 87 4 28 3 29 -35 23 -21 -4 -95 -35 -165 -70 -115 -58 -125 -62
-117 -39 14 36 86 144 176 263 44 59 122 168 172 244 84 124 92 140 87 170 -9
45 -32 68 -60 59 -43 -13 -63 -34 -113 -122 -29 -50 -63 -108 -77 -130 l-24
-39 -129 -6 c-70 -3 -129 -4 -130 -4 0 1 46 61 103 132 57 72 152 196 210 278
100 138 106 150 101 184 -11 67 -84 109 -145 83z"/>
<path d="M1105 903 c-119 -79 -206 -152 -324 -271 -62 -63 -128 -120 -146
-128 -44 -18 -85 -69 -85 -104 0 -19 10 -36 31 -54 58 -49 77 -40 196 98 52
61 153 172 223 246 70 74 135 150 145 169 16 31 37 91 32 91 -1 0 -34 -21 -72
-47z"/>
</g>
</svg>
