<?xml version="1.0" standalone="no"?>
<!DOCTYPE svg PUBLIC "-//W3C//DTD SVG 20010904//EN"
 "http://www.w3.org/TR/2001/REC-SVG-20010904/DTD/svg10.dtd">
<svg version="1.0" xmlns="http://www.w3.org/2000/svg"
 width="340.000000pt" height="340.000000pt" viewBox="0 0 340.000000 340.000000"
 preserveAspectRatio="xMidYMid meet">
<metadata>
Created by potrace 1.15, written by Peter Selinger 2001-2017
</metadata>
<g transform="translate(0.000000,340.000000) scale(0.100000,-0.100000)"
fill="#000000" stroke="none">
<path d="M1748 2569 c-42 -16 -45 -44 -9 -85 38 -43 40 -79 10 -205 l-20 -88
-47 -15 c-73 -24 -170 -44 -249 -52 -80 -7 -89 -18 -52 -55 20 -20 29 -21 108
-15 47 3 108 9 136 13 l50 6 -18 -24 c-48 -68 -130 -214 -162 -288 l-35 -84
32 7 c17 3 40 14 51 24 29 25 120 150 205 281 42 64 76 117 78 119 1 2 71 18
155 38 292 65 294 66 294 99 0 44 -33 52 -154 37 -55 -7 -130 -21 -168 -32
-37 -10 -69 -17 -71 -15 -2 2 4 24 12 49 23 68 20 142 -8 201 -37 79 -80 105
-138 84z"/>
<path d="M960 2421 c-24 -7 -25 -11 -26 -81 0 -61 -6 -85 -28 -129 -31 -60
-213 -332 -283 -424 -40 -52 -45 -63 -40 -95 4 -20 16 -45 27 -56 22 -23 45
-24 194 -11 l89 8 -33 -59 c-19 -32 -80 -137 -137 -233 -57 -95 -103 -183
-103 -196 0 -12 9 -34 21 -49 40 -51 109 -30 254 79 97 73 252 202 261 217 3
5 0 15 -6 23 -25 30 -69 16 -198 -59 -69 -41 -128 -73 -130 -72 -13 14 93 191
262 439 124 182 126 185 126 224 0 66 -44 110 -101 101 -20 -2 -27 -14 -43
-73 -12 -46 -36 -98 -71 -152 l-53 -81 -39 5 c-21 2 -66 7 -101 11 l-63 7 67
90 c74 100 167 240 237 357 69 114 65 187 -11 208 -20 5 -39 9 -42 9 -3 -1
-16 -4 -30 -8z"/>
<path d="M1847 2013 c-12 -19 20 -59 65 -83 25 -14 68 -38 95 -55 58 -36 137
-64 180 -65 26 0 32 4 38 28 8 37 -7 74 -41 101 -32 25 -128 56 -204 65 -30 4
-71 9 -91 12 -21 3 -39 1 -42 -3z"/>
<path d="M2400 1785 c-315 -50 -628 -116 -896 -190 -88 -25 -198 -51 -243 -59
-46 -8 -86 -18 -89 -21 -13 -13 44 -45 79 -45 20 0 107 16 195 36 87 19 264
57 392 84 l233 48 9 -24 c14 -35 49 -227 60 -329 11 -102 13 -527 3 -753 l-6
-152 -53 6 c-46 6 -53 4 -63 -14 -20 -37 -12 -61 37 -112 42 -43 54 -50 88
-50 58 0 100 29 107 76 24 153 11 1101 -17 1274 -10 63 -11 88 -2 97 8 9 90
14 279 19 267 7 269 7 279 30 15 33 3 69 -29 84 -50 23 -196 21 -363 -5z"/>
<path d="M1636 1319 l-198 -69 -34 21 c-37 23 -72 22 -87 -1 -7 -12 4 -44 41
-120 48 -101 99 -238 122 -328 10 -39 14 -43 38 -40 19 2 31 12 41 36 l15 32
77 0 c90 0 164 14 232 42 40 18 47 25 47 48 0 19 -9 35 -25 47 l-26 18 25 57
c44 100 73 245 56 278 -14 26 -62 50 -97 49 -15 -1 -117 -32 -227 -70z m172
-107 c2 -13 -8 -56 -22 -95 -13 -40 -27 -83 -30 -97 -5 -21 -17 -28 -83 -48
-120 -36 -111 -40 -138 63 -12 50 -29 103 -36 118 -17 38 -11 41 125 62 61 9
118 18 126 20 35 7 55 -1 58 -23z"/>
<path d="M1129 1122 c-107 -86 -293 -261 -404 -379 -68 -72 -103 -103 -122
-105 -17 -2 -33 -13 -43 -30 -13 -25 -13 -31 0 -55 8 -14 28 -31 44 -36 45
-15 148 42 203 113 24 30 89 108 145 173 100 114 235 289 259 335 9 15 9 26 2
33 -7 7 -33 -8 -84 -49z"/>
</g>
</svg>
