<?xml version="1.0" standalone="no"?>
<!DOCTYPE svg PUBLIC "-//W3C//DTD SVG 20010904//EN"
 "http://www.w3.org/TR/2001/REC-SVG-20010904/DTD/svg10.dtd">
<svg version="1.0" xmlns="http://www.w3.org/2000/svg"
 width="340.000000pt" height="340.000000pt" viewBox="0 0 340.000000 340.000000"
 preserveAspectRatio="xMidYMid meet">
<metadata>
Created by potrace 1.15, written by Peter Selinger 2001-2017
</metadata>
<g transform="translate(0.000000,340.000000) scale(0.100000,-0.100000)"
fill="#000000" stroke="none">
<path d="M2020 2465 c-14 -17 -5 -52 21 -80 10 -11 28 -43 41 -70 l22 -50 1
-935 c0 -514 -4 -977 -8 -1028 l-8 -93 30 -29 c37 -38 47 -38 67 2 39 75 42
117 37 427 l-6 299 78 7 c43 4 169 3 279 -3 180 -9 205 -8 236 6 29 14 35 22
33 46 -3 45 -20 54 -118 66 -116 15 -229 5 -374 -31 -64 -16 -119 -29 -123
-29 -5 0 -8 83 -8 184 l0 183 83 7 c179 16 361 63 370 97 15 57 -21 71 -143
53 -83 -13 -245 -51 -291 -69 -12 -5 -18 2 -23 26 -8 41 -8 214 0 311 l7 75
121 6 c141 7 230 28 269 65 41 39 34 71 -20 85 -27 6 -157 -21 -268 -57 -44
-14 -86 -26 -92 -26 -10 0 -13 47 -14 198 -1 266 -7 307 -47 343 -27 24 -41
29 -86 29 -35 0 -58 -5 -66 -15z"/>
<path d="M948 2309 c-23 -13 -23 -25 2 -56 36 -47 26 -75 -92 -251 -65 -97
-133 -184 -227 -291 -67 -75 -74 -88 -75 -127 -1 -33 5 -49 22 -66 20 -20 32
-23 90 -21 37 1 111 13 165 26 53 13 97 22 97 20 0 -21 -102 -195 -194 -330
-63 -92 -115 -175 -116 -183 -13 -85 32 -119 116 -90 16 6 126 79 244 163 179
128 215 158 215 178 0 18 -6 25 -26 27 -29 3 -152 -48 -258 -108 -39 -22 -73
-40 -75 -40 -15 0 30 77 159 270 79 118 170 263 203 321 59 105 59 106 46 145
-12 35 -45 74 -63 74 -3 0 -20 -9 -37 -19 -26 -16 -32 -27 -36 -65 -6 -48 -73
-193 -110 -238 l-23 -27 -65 15 c-42 10 -89 13 -133 9 l-68 -6 92 111 c50 61
143 180 205 263 104 139 114 156 114 195 0 24 -5 52 -11 64 -21 39 -119 62
-161 37z"/>
<path d="M1558 2293 c-3 -41 5 -69 32 -107 20 -28 32 -62 39 -106 14 -88 20
-196 12 -207 -3 -5 -33 -17 -66 -27 -33 -10 -109 -37 -170 -61 -60 -24 -121
-45 -135 -47 -27 -3 -36 -24 -20 -48 7 -12 32 -15 118 -15 107 0 110 1 190 41
l82 40 0 -163 0 -163 -54 0 c-67 0 -129 -22 -179 -61 -21 -17 -51 -34 -65 -38
-20 -6 -27 -14 -27 -32 0 -23 2 -24 65 -21 78 4 187 27 216 47 16 10 24 11 33
2 12 -12 13 -118 3 -256 l-7 -83 -180 -77 c-169 -73 -180 -79 -189 -109 -13
-45 13 -72 68 -72 33 0 63 13 146 63 58 34 118 71 134 82 l29 19 -7 -296 -7
-297 25 -7 c44 -11 70 -1 87 34 15 29 16 84 12 545 -5 480 4 867 26 1157 9
113 3 149 -32 201 -40 61 -174 107 -179 62z"/>
<path d="M992 845 c-72 -58 -197 -169 -277 -247 -122 -118 -146 -145 -143
-167 2 -20 10 -27 38 -32 32 -7 40 -3 120 64 100 84 291 275 349 350 46 61 78
137 57 137 -7 0 -72 -47 -144 -105z"/>
</g>
</svg>
