<?xml version="1.0" standalone="no"?>
<!DOCTYPE svg PUBLIC "-//W3C//DTD SVG 20010904//EN"
 "http://www.w3.org/TR/2001/REC-SVG-20010904/DTD/svg10.dtd">
<svg version="1.0" xmlns="http://www.w3.org/2000/svg"
 width="340.000000pt" height="340.000000pt" viewBox="0 0 340.000000 340.000000"
 preserveAspectRatio="xMidYMid meet">
<metadata>
Created by potrace 1.15, written by Peter Selinger 2001-2017
</metadata>
<g transform="translate(0.000000,340.000000) scale(0.100000,-0.100000)"
fill="#000000" stroke="none">
<path d="M1695 2523 c-54 -14 -57 -40 -11 -94 51 -60 57 -98 54 -318 l-3 -195
-85 -18 c-131 -29 -224 -58 -237 -75 -10 -13 -18 -13 -44 -4 -26 9 -36 9 -47
-2 -15 -16 -9 -35 75 -222 27 -60 71 -165 98 -232 54 -137 73 -156 110 -109
19 24 27 26 96 26 l76 0 6 -67 c4 -38 7 -92 7 -120 0 -61 19 -51 -175 -87 -72
-14 -194 -39 -270 -55 -77 -17 -148 -31 -157 -31 -21 0 -24 28 -4 36 34 13
116 164 89 164 -17 0 -158 -92 -224 -146 -37 -30 -92 -85 -124 -123 -62 -75
-142 -146 -222 -197 -66 -43 -74 -66 -37 -105 46 -48 65 -47 136 4 70 50 120
101 195 197 28 36 66 79 85 97 l33 32 60 -14 c87 -21 166 -18 290 11 129 29
300 64 319 64 10 0 14 -45 19 -198 10 -286 27 -544 37 -570 15 -34 38 -27 49
16 5 20 15 199 21 397 6 198 15 363 19 368 31 32 462 40 655 13 116 -17 120
-17 145 2 35 26 35 68 1 94 -58 43 -424 50 -668 12 -108 -16 -124 -16 -132 -4
-6 8 -10 65 -10 125 l0 111 91 22 c50 12 123 36 163 52 68 29 72 32 95 85 13
31 47 82 76 115 70 78 111 138 144 213 42 93 43 101 9 141 -34 42 -76 66 -133
77 -56 10 -236 -6 -331 -30 -99 -25 -194 -37 -194 -24 0 24 31 226 36 234 3 5
33 9 67 9 70 0 223 29 280 53 33 14 57 46 57 77 0 19 -33 40 -64 40 -27 0
-175 -51 -298 -103 l-38 -16 0 52 c0 29 -5 69 -11 90 -13 47 -63 106 -106 123
-34 15 -36 15 -68 7z m608 -639 c23 -9 -67 -267 -128 -366 l-47 -77 -72 -11
c-39 -7 -156 -27 -261 -46 -104 -18 -193 -30 -197 -26 -10 10 -38 121 -38 153
0 24 5 28 43 34 95 15 375 66 410 76 21 5 47 19 58 30 37 37 20 44 -92 42
-117 -2 -212 -23 -345 -77 l-85 -34 -31 62 c-17 33 -46 80 -64 103 -19 23 -34
43 -34 46 0 2 51 7 113 10 61 3 227 24 367 45 241 38 369 49 403 36z"/>
<path d="M983 2414 c-3 -8 4 -28 16 -44 11 -16 21 -39 21 -51 0 -42 -168 -263
-322 -425 -76 -79 -88 -96 -88 -126 0 -69 58 -108 160 -108 49 0 127 -33 144
-61 10 -18 -10 -54 -187 -327 -90 -139 -99 -155 -93 -187 12 -61 69 -81 142
-50 89 37 434 324 434 361 0 30 -34 26 -113 -12 -45 -21 -121 -65 -170 -97
-75 -49 -88 -54 -81 -35 11 37 41 93 67 124 48 59 407 611 407 626 0 30 -12
49 -41 63 -60 31 -88 15 -114 -67 -14 -43 -150 -288 -161 -288 -1 0 -35 16
-76 35 -40 20 -90 38 -111 42 -20 3 -40 9 -43 14 -2 5 44 64 103 131 171 194
279 331 287 361 11 45 -10 105 -44 122 -40 21 -129 20 -137 -1z"/>
</g>
</svg>
