<?xml version="1.0" standalone="no"?>
<!DOCTYPE svg PUBLIC "-//W3C//DTD SVG 20010904//EN"
 "http://www.w3.org/TR/2001/REC-SVG-20010904/DTD/svg10.dtd">
<svg version="1.0" xmlns="http://www.w3.org/2000/svg"
 width="340.000000pt" height="340.000000pt" viewBox="0 0 340.000000 340.000000"
 preserveAspectRatio="xMidYMid meet">
<metadata>
Created by potrace 1.15, written by Peter Selinger 2001-2017
</metadata>
<g transform="translate(0.000000,340.000000) scale(0.100000,-0.100000)"
fill="#000000" stroke="none">
<path d="M1052 2551 c-11 -7 -11 -19 -1 -69 13 -60 12 -61 -20 -124 -77 -147
-245 -386 -413 -585 -113 -135 -117 -191 -11 -200 36 -3 80 6 173 35 69 22
127 38 129 36 13 -11 -123 -216 -271 -406 -62 -81 -98 -136 -98 -151 0 -29 33
-73 60 -82 42 -13 208 86 445 266 181 137 180 136 165 154 -7 8 -21 15 -31 15
-17 0 -181 -85 -334 -173 -38 -22 -74 -42 -78 -45 -32 -17 205 317 439 619
118 153 143 204 125 252 -12 32 -39 47 -85 47 -34 0 -36 -2 -51 -52 -8 -28
-15 -59 -15 -68 0 -10 -38 -71 -85 -138 l-85 -120 -92 -7 c-51 -4 -113 -11
-137 -16 -24 -5 -45 -8 -48 -6 -2 2 101 143 228 312 127 169 235 319 240 332
16 43 11 98 -13 128 -34 43 -104 67 -136 46z"/>
<path d="M2100 2525 c-69 -13 -210 -42 -314 -64 l-189 -41 -43 25 c-49 29 -67
31 -84 10 -11 -13 -5 -33 39 -124 29 -59 71 -165 94 -236 49 -149 70 -174 109
-133 21 22 36 26 153 37 72 6 148 16 170 22 82 21 155 52 160 68 3 9 29 42 59
72 83 87 196 267 196 312 0 8 -19 27 -41 43 -56 39 -141 41 -309 9z m139 -111
c17 -4 31 -10 31 -15 0 -5 -16 -30 -35 -55 -20 -26 -52 -81 -73 -124 l-37 -77
-92 -7 c-50 -3 -137 -18 -193 -32 -56 -14 -103 -24 -105 -22 -1 2 -15 48 -29
103 -15 55 -36 119 -47 142 -11 23 -18 46 -15 51 3 5 92 12 198 16 106 5 220
11 253 16 85 10 108 11 144 4z"/>
<path d="M2485 1933 c-373 -50 -622 -96 -905 -168 -97 -25 -194 -45 -216 -45
-66 0 -90 -42 -31 -56 17 -4 73 -7 124 -6 l91 1 16 -67 c9 -37 23 -105 32
-152 17 -96 30 -418 20 -501 l-7 -55 -247 -52 c-136 -29 -271 -52 -300 -52
l-54 0 44 51 c104 122 167 204 221 290 31 51 55 95 52 97 -14 15 -127 -74
-208 -163 -209 -232 -459 -485 -479 -485 -55 0 -78 -57 -42 -108 20 -29 57
-28 120 3 68 34 126 91 208 208 38 53 72 97 76 97 4 0 13 -7 21 -16 7 -8 31
-25 53 -36 55 -28 127 -26 276 10 227 55 559 114 778 138 l62 7 0 -327 c0
-313 1 -327 20 -346 27 -27 55 -25 79 6 20 26 21 38 21 349 l0 322 61 7 c93 9
246 7 359 -5 99 -11 102 -10 126 12 28 27 30 49 7 78 -15 18 -36 23 -128 32
-103 11 -327 6 -396 -8 l-29 -5 0 376 c0 249 -4 384 -11 397 -18 34 5 49 73
49 33 0 106 7 164 16 103 16 104 17 104 45 0 55 -52 76 -155 62z m-361 -163
c14 -5 33 -24 42 -42 16 -30 18 -71 18 -398 l1 -364 -130 -13 c-118 -12 -272
-36 -317 -49 -16 -5 -18 4 -18 88 0 51 4 98 8 104 4 6 50 14 107 16 97 5 219
38 248 67 16 16 -12 61 -50 79 -39 19 -76 11 -206 -43 -49 -20 -91 -34 -94
-32 -3 3 -1 54 4 114 l8 108 80 6 c44 4 100 12 125 19 59 16 140 51 140 60 0
4 -9 19 -21 34 -29 37 -73 34 -209 -13 -71 -24 -113 -34 -115 -27 -27 87 -41
127 -56 158 -11 21 -19 41 -19 47 0 16 245 69 390 84 19 2 36 5 37 5 1 1 13
-2 27 -8z"/>
</g>
</svg>
