<?xml version="1.0" standalone="no"?>
<!DOCTYPE svg PUBLIC "-//W3C//DTD SVG 20010904//EN"
 "http://www.w3.org/TR/2001/REC-SVG-20010904/DTD/svg10.dtd">
<svg version="1.0" xmlns="http://www.w3.org/2000/svg"
 width="340.000000pt" height="340.000000pt" viewBox="0 0 340.000000 340.000000"
 preserveAspectRatio="xMidYMid meet">
<metadata>
Created by potrace 1.15, written by Peter Selinger 2001-2017
</metadata>
<g transform="translate(0.000000,340.000000) scale(0.100000,-0.100000)"
fill="#000000" stroke="none">
<path d="M2121 2496 c-7 -8 -9 -25 -6 -39 10 -38 -18 -82 -111 -177 -75 -77
-123 -151 -124 -189 0 -8 7 -19 17 -26 14 -11 13 -13 -13 -22 -17 -6 -145 -36
-285 -68 -139 -32 -258 -61 -263 -66 -5 -5 -4 -15 4 -25 12 -14 29 -15 125 -9
60 3 143 11 184 16 89 13 91 11 91 -86 l0 -71 -117 -27 c-230 -53 -277 -75
-218 -97 18 -7 46 -7 84 -1 31 6 102 13 159 17 l102 7 0 -71 0 -70 -137 -32
c-199 -46 -284 -68 -290 -74 -3 -3 0 -13 8 -22 12 -14 28 -16 119 -10 58 4
150 15 205 25 55 10 101 18 102 17 0 0 4 -82 8 -181 l8 -181 -304 -52 c-167
-30 -315 -56 -328 -59 -23 -6 -24 -5 -19 46 3 28 2 51 -1 51 -19 0 -176 -137
-222 -195 -170 -211 -300 -355 -322 -355 -7 0 -23 -7 -35 -16 -51 -35 -10
-134 56 -134 23 0 45 17 109 83 44 45 99 111 123 147 24 36 88 121 142 190
l98 125 108 2 c68 1 193 16 333 38 123 20 269 40 324 45 55 5 138 14 185 21
118 17 487 17 643 0 l128 -14 25 24 c32 30 28 65 -9 93 -27 20 -40 21 -260 21
-167 -1 -262 -5 -337 -17 -58 -10 -153 -20 -213 -24 l-107 -7 2 183 3 184 90
13 c83 12 261 62 295 83 12 8 12 12 -4 28 -25 29 -62 31 -183 11 -140 -23
-209 -24 -217 -3 -12 30 -6 72 14 96 16 21 31 26 92 32 83 9 173 36 235 72 46
27 48 44 7 63 -37 16 -68 14 -178 -14 -54 -14 -116 -25 -138 -25 l-39 0 3 82
3 81 90 24 c147 38 345 104 360 120 16 16 11 39 -11 47 -22 8 -216 -22 -309
-49 l-80 -23 45 36 c75 61 291 276 300 299 5 12 5 37 -1 58 -8 28 -19 40 -44
51 -44 18 -89 18 -104 0z"/>
<path d="M1445 2349 c29 -104 115 -223 172 -238 41 -12 93 -4 93 13 0 29 -33
105 -60 137 -31 38 -125 93 -178 104 -32 7 -34 6 -27 -16z"/>
<path d="M903 2303 c-17 -6 -16 -24 2 -59 8 -16 15 -38 15 -50 0 -39 -174
-299 -331 -493 -97 -120 -106 -147 -69 -194 32 -40 67 -42 167 -8 48 17 108
33 132 37 53 8 68 37 -145 -266 -158 -225 -165 -237 -160 -275 6 -51 35 -75
89 -75 46 0 79 18 247 131 168 113 250 184 250 214 0 19 -5 25 -22 25 -30 0
-209 -87 -298 -144 -38 -25 -70 -41 -70 -35 0 22 47 99 133 218 91 128 242
354 312 468 40 66 49 119 26 161 -12 22 -71 40 -91 27 -13 -8 -42 -72 -71
-155 -11 -30 -33 -78 -50 -106 l-31 -51 -112 -16 c-155 -24 -151 -24 -129 14
10 17 46 61 79 99 136 151 308 405 297 438 -16 53 -27 70 -46 80 -24 12 -105
21 -124 15z"/>
<path d="M2120 1377 c-18 -29 -45 -62 -60 -72 -38 -26 -80 -93 -80 -128 0 -27
2 -28 33 -22 87 18 204 92 232 146 34 65 13 108 -62 124 -29 6 -33 3 -63 -48z"/>
<path d="M1430 1288 c0 -64 103 -196 160 -204 53 -7 65 5 50 52 -19 62 -57
113 -107 145 -58 36 -103 39 -103 7z"/>
<path d="M2115 784 c-127 -17 -320 -57 -428 -89 -98 -28 -133 -23 -204 27 -44
32 -73 32 -73 -1 0 -10 13 -49 29 -84 39 -88 96 -266 111 -347 21 -115 39
-133 98 -91 33 24 165 40 406 48 154 6 171 8 194 28 34 29 25 72 -18 87 -17 5
-30 17 -30 25 0 8 20 52 44 96 54 101 99 224 92 253 -14 53 -80 68 -221 48z
m43 -147 c2 -10 -20 -73 -48 -141 l-52 -123 -89 -7 c-50 -4 -138 -15 -197 -26
-59 -11 -109 -16 -113 -12 -6 7 -59 248 -59 268 0 7 64 17 173 28 94 9 210 20
257 25 109 11 124 10 128 -12z"/>
</g>
</svg>
