<?xml version="1.0" standalone="no"?>
<!DOCTYPE svg PUBLIC "-//W3C//DTD SVG 20010904//EN"
 "http://www.w3.org/TR/2001/REC-SVG-20010904/DTD/svg10.dtd">
<svg version="1.0" xmlns="http://www.w3.org/2000/svg"
 width="340.000000pt" height="340.000000pt" viewBox="0 0 340.000000 340.000000"
 preserveAspectRatio="xMidYMid meet">
<metadata>
Created by potrace 1.15, written by Peter Selinger 2001-2017
</metadata>
<g transform="translate(0.000000,340.000000) scale(0.100000,-0.100000)"
fill="#000000" stroke="none">
<path d="M1072 2298 c-16 -16 -15 -49 3 -72 8 -11 15 -28 15 -39 0 -10 -74
-157 -165 -326 -91 -169 -165 -313 -165 -319 0 -49 105 45 208 186 33 44 51
61 62 56 39 -16 98 -24 135 -19 140 22 415 128 415 160 0 8 -11 27 -24 42 -36
41 -88 37 -201 -17 -113 -53 -294 -130 -306 -130 -14 0 28 78 83 153 56 75 84
139 94 216 5 43 3 55 -12 73 -37 41 -117 61 -142 36z"/>
<path d="M2605 1834 c-33 -7 -143 -30 -245 -52 -165 -36 -388 -78 -507 -97
-49 -8 -51 -12 -23 -48 27 -35 79 -41 210 -27 58 6 112 13 120 15 10 3 25 -17
48 -63 l32 -67 0 -260 c0 -238 -12 -502 -25 -582 -7 -40 -36 -57 -120 -71 -33
-5 -121 -19 -195 -31 -195 -32 -204 -34 -208 -52 -2 -9 5 -24 15 -34 16 -16
33 -17 183 -12 99 4 209 15 275 27 165 31 403 37 585 14 203 -25 214 -25 253
14 l32 33 -41 39 c-26 24 -61 44 -94 54 -52 16 -126 14 -453 -10 l-89 -7 8
471 7 470 -27 47 c-14 26 -26 49 -26 51 0 2 16 4 36 4 92 0 358 72 377 101 14
22 -13 71 -43 79 -14 4 -52 1 -85 -6z"/>
<path d="M1136 1718 c-22 -31 -20 -49 8 -90 21 -31 24 -49 27 -159 l4 -123
-100 -39 c-236 -93 -609 -227 -630 -227 -30 0 -49 -24 -41 -54 7 -30 50 -42
146 -40 76 2 156 28 237 77 128 78 377 187 392 172 9 -9 3 -695 -6 -734 -8
-32 -13 -36 -133 -82 -147 -56 -141 -61 -110 89 34 170 24 278 -36 373 -18 29
-28 36 -44 32 -32 -8 -40 -41 -22 -86 23 -59 11 -244 -24 -372 -40 -148 -41
-178 -10 -209 36 -37 76 -33 175 15 46 22 107 50 135 61 65 26 373 128 386
128 6 0 8 -16 4 -40 -8 -51 10 -97 48 -116 27 -14 29 -14 38 11 19 51 49 182
59 260 5 44 15 122 22 172 23 177 -7 358 -62 377 -36 12 -75 1 -82 -24 -3 -12
-1 -35 4 -53 13 -46 10 -384 -4 -431 -12 -37 -15 -39 -82 -57 -132 -35 -121
-36 -128 8 -4 21 -7 190 -7 375 l0 338 28 6 c113 24 188 46 254 74 61 26 75
35 71 50 -17 63 -97 70 -241 22 -51 -18 -94 -32 -96 -32 -2 0 -6 55 -10 121
-4 67 -13 136 -20 153 -29 70 -117 101 -150 54z"/>
</g>
</svg>
