<?xml version="1.0" standalone="no"?>
<!DOCTYPE svg PUBLIC "-//W3C//DTD SVG 20010904//EN"
 "http://www.w3.org/TR/2001/REC-SVG-20010904/DTD/svg10.dtd">
<svg version="1.0" xmlns="http://www.w3.org/2000/svg"
 width="340.000000pt" height="340.000000pt" viewBox="0 0 340.000000 340.000000"
 preserveAspectRatio="xMidYMid meet">
<metadata>
Created by potrace 1.15, written by Peter Selinger 2001-2017
</metadata>
<g transform="translate(0.000000,340.000000) scale(0.100000,-0.100000)"
fill="#000000" stroke="none">
<path d="M2230 2374 c-289 -27 -619 -77 -899 -134 -217 -45 -411 -93 -411
-102 0 -4 12 -15 26 -25 25 -16 31 -15 132 10 59 15 135 27 169 27 57 0 63 -2
67 -22 11 -60 27 -151 41 -230 7 -48 19 -104 24 -125 6 -20 7 -40 3 -44 -4 -4
-60 -23 -125 -43 -65 -21 -124 -39 -132 -42 -10 -4 -16 5 -20 33 -13 85 -35
165 -60 218 -48 101 -160 203 -263 239 -88 31 -94 -14 -11 -91 89 -83 168
-208 205 -323 20 -66 35 -84 93 -118 56 -33 140 -34 225 -4 71 26 214 48 227
35 5 -5 5 -32 -1 -67 -8 -50 -17 -67 -67 -124 -103 -119 -216 -232 -331 -335
-114 -101 -131 -129 -83 -135 28 -4 200 109 326 213 104 86 252 231 282 274
32 47 31 114 -2 163 -16 23 -21 39 -14 43 19 12 355 54 516 65 143 10 160 13
179 33 64 68 200 225 268 309 86 108 101 150 72 205 -12 24 -33 38 -92 63 -62
26 -173 54 -194 49 -3 -1 -70 -8 -150 -15z m183 -120 c53 -18 53 -13 15 -138
-20 -64 -66 -136 -155 -242 -16 -19 -36 -23 -158 -34 -77 -6 -156 -14 -176
-17 l-36 -5 31 89 c27 80 30 99 30 215 l0 127 55 6 c31 3 63 8 71 9 8 2 74 4
146 5 96 1 143 -3 177 -15z m-589 -134 c-1 -98 -34 -305 -52 -321 -9 -9 -265
-49 -271 -43 -3 2 -10 71 -16 152 -12 157 -24 194 -71 231 -15 12 -25 23 -23
25 8 8 228 47 309 55 136 14 125 23 124 -99z"/>
<path d="M1975 1475 c-49 -13 -134 -33 -187 -45 -91 -20 -98 -23 -98 -46 0
-43 32 -49 200 -34 83 7 153 10 156 7 15 -15 -145 -251 -245 -360 l-53 -57
-42 42 c-70 71 -210 151 -300 172 -28 7 -29 6 -22 -26 4 -21 22 -47 48 -72 24
-22 84 -79 135 -128 l92 -88 -117 -118 c-180 -182 -370 -332 -558 -440 -66
-38 -114 -86 -100 -99 12 -12 140 31 244 82 82 41 137 78 237 161 167 139 523
494 655 654 199 240 224 286 196 353 -30 72 -85 82 -241 42z"/>
</g>
</svg>
