<?xml version="1.0" standalone="no"?>
<!DOCTYPE svg PUBLIC "-//W3C//DTD SVG 20010904//EN"
 "http://www.w3.org/TR/2001/REC-SVG-20010904/DTD/svg10.dtd">
<svg version="1.0" xmlns="http://www.w3.org/2000/svg"
 width="340.000000pt" height="340.000000pt" viewBox="0 0 340.000000 340.000000"
 preserveAspectRatio="xMidYMid meet">
<metadata>
Created by potrace 1.15, written by Peter Selinger 2001-2017
</metadata>
<g transform="translate(0.000000,340.000000) scale(0.100000,-0.100000)"
fill="#000000" stroke="none">
<path d="M2132 2490 c-44 -10 -48 -16 -34 -52 6 -17 9 -35 6 -40 -3 -4 -30
-24 -60 -43 -69 -44 -133 -112 -168 -175 l-27 -50 35 0 c45 0 109 25 166 64
25 18 66 44 92 59 60 35 138 113 138 138 0 28 -27 77 -48 87 -29 16 -66 20
-100 12z"/>
<path d="M1170 2326 c17 -47 37 -81 59 -100 11 -10 32 -38 46 -62 30 -51 74
-80 138 -89 l47 -7 0 48 c0 31 -7 61 -19 80 -23 38 -193 142 -245 151 -36 6
-36 5 -26 -21z"/>
<path d="M1940 2009 c-118 -27 -334 -78 -480 -114 -146 -35 -280 -66 -299 -67
-34 -3 -62 -30 -47 -45 4 -4 60 -7 124 -7 94 2 134 7 202 28 83 24 86 25 110
7 18 -13 27 -31 32 -67 9 -68 9 -227 0 -241 -4 -6 -45 -21 -92 -33 -47 -11
-134 -37 -194 -57 l-108 -35 21 -21 c27 -28 63 -27 232 5 l136 25 7 -101 c3
-56 12 -126 19 -158 l14 -56 -61 -12 c-34 -6 -137 -31 -231 -55 -93 -24 -198
-49 -233 -56 -73 -14 -79 -32 -22 -62 40 -21 58 -19 230 19 274 61 769 105
967 86 89 -9 111 -8 135 4 34 17 39 63 9 93 -36 36 -213 37 -426 1 -33 -5
-111 -10 -174 -10 l-114 0 8 43 c5 23 11 100 14 172 l6 130 55 12 c30 7 108
19 172 28 153 19 198 43 198 103 0 16 -9 22 -39 27 -48 8 -173 -10 -246 -35
-30 -10 -74 -22 -98 -25 l-44 -7 -6 144 c-3 78 -9 153 -13 165 -7 25 -16 21
126 48 101 19 230 56 323 91 71 27 87 52 48 74 -26 13 -15 15 -261 -41z"/>
<path d="M1770 674 c0 -31 14 -58 54 -106 17 -20 43 -54 57 -76 30 -44 98 -82
147 -82 29 0 32 3 32 33 0 46 -41 128 -81 161 -39 33 -165 96 -191 96 -13 0
-18 -8 -18 -26z"/>
<path d="M2370 675 c0 -15 15 -43 38 -68 21 -23 63 -76 94 -117 32 -41 91
-110 132 -152 85 -89 117 -100 155 -52 27 34 27 37 -8 109 -62 130 -149 207
-307 271 -46 19 -88 34 -94 34 -5 0 -10 -11 -10 -25z"/>
<path d="M1230 609 c0 -12 22 -67 49 -123 36 -74 62 -113 98 -147 83 -78 114
-85 134 -32 20 52 3 89 -79 175 -91 95 -137 133 -174 142 -24 5 -28 3 -28 -15z"/>
<path d="M836 580 c-42 -47 -181 -255 -196 -294 -14 -38 -13 -70 5 -112 l14
-35 39 20 c66 33 97 80 136 198 32 102 60 263 45 263 -4 0 -23 -18 -43 -40z"/>
</g>
</svg>
