<?xml version="1.0" standalone="no"?>
<!DOCTYPE svg PUBLIC "-//W3C//DTD SVG 20010904//EN"
 "http://www.w3.org/TR/2001/REC-SVG-20010904/DTD/svg10.dtd">
<svg version="1.0" xmlns="http://www.w3.org/2000/svg"
 width="340.000000pt" height="340.000000pt" viewBox="0 0 340.000000 340.000000"
 preserveAspectRatio="xMidYMid meet">
<metadata>
Created by potrace 1.15, written by Peter Selinger 2001-2017
</metadata>
<g transform="translate(0.000000,340.000000) scale(0.100000,-0.100000)"
fill="#000000" stroke="none">
<path d="M1500 2605 c0 -22 39 -65 88 -96 31 -20 206 -140 387 -267 382 -267
402 -277 570 -277 125 0 153 7 161 42 11 42 -7 57 -97 80 -193 49 -429 152
-581 251 -177 116 -528 294 -528 267z"/>
<path d="M1116 2428 c-9 -12 -16 -32 -16 -44 0 -14 -68 -88 -215 -233 -208
-204 -245 -251 -197 -251 62 0 511 340 546 414 26 56 21 93 -16 116 -44 27
-83 26 -102 -2z"/>
<path d="M1368 2203 c-15 -21 -36 -58 -46 -83 -29 -68 -133 -203 -249 -321
-92 -95 -103 -110 -103 -142 0 -43 28 -67 77 -67 37 0 356 110 578 200 l148
59 41 -43 c23 -24 55 -60 72 -80 37 -42 75 -48 98 -14 22 31 20 54 -11 107
-43 75 -92 128 -152 169 -54 36 -166 80 -177 69 -11 -10 10 -61 42 -103 l34
-44 -22 -11 c-13 -5 -128 -38 -255 -73 -166 -45 -233 -59 -233 -50 0 7 46 62
103 122 107 114 177 218 177 263 0 36 -28 68 -66 75 -27 5 -33 1 -56 -33z"/>
<path d="M1840 1581 c-63 -21 -142 -51 -175 -66 -33 -15 -78 -28 -100 -29 -35
-1 -40 -4 -40 -25 0 -20 7 -27 35 -34 60 -16 178 -2 260 31 96 39 153 47 223
32 52 -10 57 -14 62 -43 27 -157 42 -688 26 -936 -6 -96 -13 -176 -15 -179 -3
-2 -17 5 -33 15 -54 38 -153 57 -168 33 -18 -30 112 -177 188 -213 73 -35 129
-14 148 56 15 55 4 1210 -13 1259 -47 141 -174 173 -398 99z"/>
<path d="M1070 1421 c-332 -151 -350 -163 -287 -185 21 -8 47 -3 119 21 105
36 217 60 298 65 l55 3 7 -45 c8 -57 10 -234 2 -282 -6 -32 -15 -43 -78 -84
-93 -61 -212 -154 -310 -242 -66 -59 -83 -70 -105 -66 -54 11 -88 -72 -50
-120 21 -26 26 -28 72 -22 59 6 116 41 155 94 32 43 295 302 307 302 8 0 -1
-469 -9 -478 -3 -2 -19 6 -36 18 -34 24 -107 37 -129 22 -11 -8 -9 -18 9 -58
51 -116 170 -192 241 -154 42 23 49 59 49 252 0 101 5 330 11 510 6 180 8 343
5 362 -14 73 -99 136 -181 135 -26 0 -78 -18 -145 -48z"/>
<path d="M1554 1237 c-8 -23 11 -52 48 -71 18 -9 56 -35 83 -57 62 -49 165
-85 179 -62 18 33 8 95 -21 125 -49 51 -274 102 -289 65z"/>
<path d="M742 1084 c-47 -34 77 -114 178 -114 77 0 120 10 120 27 0 27 -31 73
-59 88 -34 17 -214 17 -239 -1z"/>
<path d="M1789 858 c-107 -55 -207 -107 -224 -115 -66 -31 -79 -38 -82 -49 -4
-12 36 -73 57 -86 22 -14 114 23 191 77 35 25 88 61 116 80 62 42 117 95 144
139 44 72 13 65 -202 -46z"/>
</g>
</svg>
