<?xml version="1.0" standalone="no"?>
<!DOCTYPE svg PUBLIC "-//W3C//DTD SVG 20010904//EN"
 "http://www.w3.org/TR/2001/REC-SVG-20010904/DTD/svg10.dtd">
<svg version="1.0" xmlns="http://www.w3.org/2000/svg"
 width="340.000000pt" height="340.000000pt" viewBox="0 0 340.000000 340.000000"
 preserveAspectRatio="xMidYMid meet">
<metadata>
Created by potrace 1.15, written by Peter Selinger 2001-2017
</metadata>
<g transform="translate(0.000000,340.000000) scale(0.100000,-0.100000)"
fill="#000000" stroke="none">
<path d="M770 2339 c-15 -27 -5 -65 27 -108 14 -18 50 -96 79 -172 l52 -139
-50 -45 c-28 -25 -79 -62 -114 -81 -35 -20 -64 -42 -64 -49 0 -18 28 -45 46
-45 25 0 80 27 141 68 32 21 63 42 70 45 7 4 26 -14 49 -45 21 -29 55 -74 75
-99 l38 -45 -101 -90 c-109 -95 -290 -292 -282 -306 9 -14 48 -9 74 9 14 9
108 82 208 161 l184 145 26 -22 c120 -95 250 -165 292 -156 44 10 63 39 68
103 3 47 0 62 -18 85 -29 36 -62 35 -94 -3 -29 -35 -27 -36 -133 33 l-62 41
67 71 c37 39 80 94 95 123 28 52 28 53 10 84 -46 79 -79 66 -173 -72 -41 -60
-78 -110 -82 -110 -18 -1 -128 147 -128 173 0 2 31 27 69 55 75 56 168 178
158 206 -9 22 -75 21 -108 -2 -14 -9 -53 -45 -86 -79 -34 -35 -65 -63 -71 -63
-5 0 -15 24 -22 53 -30 131 -142 297 -200 297 -19 0 -33 -7 -40 -21z"/>
<path d="M2203 2068 c-78 -34 -144 -67 -147 -74 -4 -9 34 -12 165 -11 186 2
178 5 200 -63 32 -98 12 -887 -27 -1068 l-4 -22 -40 20 c-21 11 -55 20 -75 20
-33 0 -35 -2 -35 -32 1 -71 57 -148 137 -186 25 -12 42 -13 70 -6 49 12 68 50
83 164 12 101 26 1128 16 1183 -14 74 -96 138 -176 136 -14 0 -89 -28 -167
-61z"/>
<path d="M1800 2086 c-114 -43 -240 -123 -240 -152 0 -19 42 -18 174 6 60 11
117 20 126 20 76 0 87 -593 19 -1055 -15 -101 -13 -99 -59 -69 -46 31 -85 27
-102 -11 -15 -33 19 -100 82 -159 53 -49 91 -59 145 -34 55 25 72 176 85 784
12 528 10 557 -31 615 -36 51 -136 79 -199 55z"/>
<path d="M2134 1765 c-13 -32 8 -71 91 -172 30 -37 94 -61 107 -40 4 6 8 38 8
69 0 50 -4 62 -31 93 -18 20 -45 43 -60 51 -38 19 -108 19 -115 -1z"/>
<path d="M1576 1738 c-27 -15 -18 -44 29 -96 49 -54 105 -85 174 -97 l44 -7
-7 48 c-7 54 -25 86 -61 110 -35 23 -161 52 -179 42z"/>
<path d="M2310 1382 c-41 -27 -104 -72 -139 -100 -35 -29 -70 -52 -78 -52 -17
0 -53 -36 -53 -54 0 -23 50 -76 71 -76 76 0 281 204 305 303 10 41 -18 35
-106 -21z"/>
<path d="M1723 1320 c-33 -22 -89 -69 -124 -105 -41 -41 -72 -65 -86 -65 -68
0 -85 -107 -23 -140 15 -8 31 -5 72 16 74 38 117 75 175 152 61 80 83 122 83
157 0 36 -27 32 -97 -15z"/>
<path d="M1175 1226 c-178 -63 -269 -99 -389 -155 -49 -23 -100 -41 -113 -41
-28 0 -77 -45 -67 -61 11 -18 160 -5 219 19 65 26 85 17 85 -39 0 -52 -109
-264 -226 -442 -88 -133 -102 -168 -71 -175 49 -10 267 257 366 448 68 131 75
170 40 234 -17 31 -18 41 -7 47 21 14 80 29 114 29 l30 0 -7 -57 c-11 -86 -10
-358 1 -438 23 -161 25 -167 83 -205 66 -44 191 -95 287 -117 98 -23 301 -23
525 -1 94 10 267 22 385 28 233 12 270 18 320 52 78 53 86 93 54 271 -23 126
-74 191 -106 135 -8 -16 -12 -65 -12 -154 l0 -132 -50 -11 c-210 -46 -540 -86
-807 -97 -182 -8 -270 5 -377 52 -73 32 -169 101 -177 127 -4 12 -10 126 -15
252 -5 175 -11 241 -24 274 -9 24 -16 45 -16 46 0 1 26 12 58 23 81 30 120 57
128 87 8 32 -1 42 -46 49 -27 4 -71 -7 -185 -48z"/>
</g>
</svg>
