<?xml version="1.0" standalone="no"?>
<!DOCTYPE svg PUBLIC "-//W3C//DTD SVG 20010904//EN"
 "http://www.w3.org/TR/2001/REC-SVG-20010904/DTD/svg10.dtd">
<svg version="1.0" xmlns="http://www.w3.org/2000/svg"
 width="340.000000pt" height="340.000000pt" viewBox="0 0 340.000000 340.000000"
 preserveAspectRatio="xMidYMid meet">
<metadata>
Created by potrace 1.15, written by Peter Selinger 2001-2017
</metadata>
<g transform="translate(0.000000,340.000000) scale(0.100000,-0.100000)"
fill="#000000" stroke="none">
<path d="M1071 2511 c-12 -8 -13 -17 -1 -64 14 -61 18 -48 -63 -197 -19 -36
-43 -89 -52 -118 -14 -42 -21 -52 -34 -46 -35 16 -87 16 -100 0 -11 -12 -7
-23 19 -61 51 -74 108 -204 131 -301 12 -49 26 -102 32 -117 12 -33 65 -66 77
-47 14 23 30 -1 30 -47 0 -62 -25 -99 -85 -128 -67 -31 -338 -115 -374 -115
-39 0 -55 -20 -36 -47 30 -43 197 -37 317 11 52 21 58 22 58 7 0 -9 -86 -120
-190 -245 -105 -126 -189 -234 -187 -240 2 -6 15 -12 29 -14 66 -8 372 310
513 531 29 46 57 80 70 83 14 4 43 -9 91 -40 38 -26 125 -74 193 -107 l123
-62 34 17 c113 53 -59 180 -286 211 l-55 7 65 17 c67 17 132 50 185 95 29 25
29 27 12 40 -30 23 -89 29 -133 12 -120 -46 -193 -70 -197 -66 -2 3 -7 33 -10
68 l-5 62 41 0 c95 0 176 50 219 133 38 75 88 217 113 319 l25 102 -23 24
c-44 48 -105 75 -166 75 -46 0 -75 -8 -147 -41 -98 -45 -205 -85 -211 -78 -7
7 26 66 77 138 26 38 51 84 54 103 9 47 -15 90 -64 115 -43 22 -67 25 -89 11z
m390 -393 c4 -54 -20 -213 -49 -318 l-17 -65 -50 -8 c-105 -16 -152 -28 -201
-51 l-52 -24 -16 90 c-9 50 -15 92 -12 95 2 2 35 9 72 14 62 9 194 59 194 74
0 12 -70 35 -104 35 -20 0 -58 -9 -86 -20 -83 -33 -94 -29 -128 43 -30 62 -30
62 -10 80 11 9 36 17 55 17 19 0 53 5 76 10 23 6 101 17 172 24 72 7 136 14
143 15 6 0 12 -5 13 -11z"/>
<path d="M2427 1952 c-129 -49 -148 -58 -145 -76 3 -19 8 -21 73 -17 39 2 117
5 174 5 l105 1 27 -40 c15 -22 35 -66 44 -98 16 -55 15 -94 -5 -625 -12 -312
-24 -573 -26 -580 -2 -9 -19 -4 -58 15 -47 23 -59 25 -80 15 -17 -8 -26 -20
-26 -35 0 -53 104 -173 176 -203 29 -12 39 -12 68 0 28 12 35 21 40 53 13 86
26 422 25 638 -1 127 4 359 11 516 12 285 12 287 -9 335 -40 89 -106 139 -197
148 -42 4 -70 -3 -197 -52z"/>
<path d="M1853 1838 c-148 -57 -161 -64 -151 -81 11 -21 -8 -22 247 3 116 11
126 7 159 -55 25 -49 5 -548 -39 -950 -10 -99 -22 -191 -25 -204 -5 -24 -5
-23 -38 12 -38 41 -72 57 -123 57 l-35 0 7 -37 c18 -97 122 -220 193 -230 52
-7 88 14 109 64 16 41 97 1167 91 1283 -6 121 -67 187 -180 196 -46 3 -74 -4
-215 -58z"/>
<path d="M1706 1533 c10 -45 96 -163 136 -187 49 -29 108 -18 108 20 0 68 -72
149 -142 160 -21 4 -43 13 -49 20 -6 8 -22 14 -35 14 -21 0 -24 -3 -18 -27z"/>
<path d="M2357 1543 c-17 -16 -3 -41 43 -81 65 -56 96 -72 142 -72 73 0 81 15
49 86 -25 54 -67 74 -158 74 -38 0 -73 -3 -76 -7z"/>
<path d="M1909 1156 c-64 -57 -125 -115 -135 -129 -11 -13 -41 -48 -67 -77
-43 -47 -50 -52 -71 -42 -37 17 -51 0 -51 -62 0 -40 5 -60 18 -73 23 -24 91
-22 119 3 72 65 323 391 331 429 4 24 -8 55 -21 55 -4 0 -60 -47 -123 -104z"/>
<path d="M1168 1234 c-33 -17 -36 -44 -9 -88 24 -40 34 -102 26 -161 -8 -53
-6 -51 -239 -145 l-119 -47 23 -23 c28 -28 61 -24 204 20 54 16 105 30 114 30
13 0 14 -34 9 -300 l-7 -300 25 -16 c35 -23 57 -14 79 29 16 34 19 71 23 310
3 155 9 284 15 300 7 17 20 29 37 33 69 15 121 53 135 101 9 28 -18 37 -100
36 l-61 -2 0 58 c-1 71 -29 131 -76 160 -40 25 -43 25 -79 5z"/>
<path d="M2585 1177 c-86 -47 -143 -88 -199 -146 -49 -49 -49 -50 -78 -35 -17
9 -36 13 -43 11 -37 -15 -22 -125 20 -153 44 -29 90 -11 168 64 106 102 219
240 215 265 -5 31 -17 30 -83 -6z"/>
</g>
</svg>
