<?xml version="1.0" standalone="no"?>
<!DOCTYPE svg PUBLIC "-//W3C//DTD SVG 20010904//EN"
 "http://www.w3.org/TR/2001/REC-SVG-20010904/DTD/svg10.dtd">
<svg version="1.0" xmlns="http://www.w3.org/2000/svg"
 width="340.000000pt" height="340.000000pt" viewBox="0 0 340.000000 340.000000"
 preserveAspectRatio="xMidYMid meet">
<metadata>
Created by potrace 1.15, written by Peter Selinger 2001-2017
</metadata>
<g transform="translate(0.000000,340.000000) scale(0.100000,-0.100000)"
fill="#000000" stroke="none">
<path d="M2030 2124 c-243 -61 -883 -182 -1059 -201 -142 -15 -159 -19 -151
-34 23 -41 320 -57 474 -24 92 19 96 17 96 -58 0 -43 -11 -67 -95 -214 -52
-91 -114 -203 -137 -249 l-43 -84 -112 -26 c-62 -14 -113 -30 -113 -34 0 -13
30 -40 45 -40 7 0 93 16 191 35 97 20 180 32 184 28 7 -8 41 -228 77 -487 18
-136 30 -159 63 -119 24 30 34 271 19 473 -14 203 -33 186 236 214 77 8 141
13 144 11 2 -2 -2 -75 -8 -162 -19 -241 -28 -535 -19 -564 5 -14 19 -31 32
-37 23 -10 24 -8 40 46 18 65 39 216 57 409 9 101 10 155 1 225 -9 72 -9 94 1
100 23 14 123 23 242 22 131 -2 229 -22 336 -70 54 -24 59 -29 59 -58 0 -130
-76 -372 -193 -620 l-51 -108 -36 5 c-20 2 -67 19 -105 38 l-68 33 -18 -23
c-26 -31 -24 -45 11 -96 59 -86 159 -141 242 -133 30 3 37 10 70 73 114 215
247 588 281 790 16 93 15 98 -54 167 -57 57 -129 93 -214 107 -110 17 -678
-50 -1040 -123 -93 -19 -172 -33 -173 -31 -10 9 57 110 129 195 87 103 130
181 154 277 14 55 14 65 1 91 -8 15 -11 34 -7 41 16 26 224 65 462 85 156 14
194 27 205 72 4 15 0 34 -10 49 -19 29 -57 31 -146 9z"/>
<path d="M694 1216 c-3 -8 1 -25 10 -38 32 -49 127 -392 169 -607 15 -79 38
-99 69 -61 18 23 20 33 14 110 -18 222 -67 470 -104 525 -48 70 -142 112 -158
71z"/>
</g>
</svg>
