<?xml version="1.0" standalone="no"?>
<!DOCTYPE svg PUBLIC "-//W3C//DTD SVG 20010904//EN"
 "http://www.w3.org/TR/2001/REC-SVG-20010904/DTD/svg10.dtd">
<svg version="1.0" xmlns="http://www.w3.org/2000/svg"
 width="340.000000pt" height="340.000000pt" viewBox="0 0 340.000000 340.000000"
 preserveAspectRatio="xMidYMid meet">
<metadata>
Created by potrace 1.15, written by Peter Selinger 2001-2017
</metadata>
<g transform="translate(0.000000,340.000000) scale(0.100000,-0.100000)"
fill="#000000" stroke="none">
<path d="M1700 2475 c-192 -63 -466 -122 -818 -176 -154 -23 -176 -35 -133
-71 19 -15 41 -18 122 -18 l99 0 -10 -26 c-13 -34 -13 -96 1 -131 40 -104 44
-299 17 -747 l-11 -189 -66 -30 c-46 -21 -80 -30 -111 -29 -63 2 -78 -4 -85
-39 -8 -38 13 -64 72 -91 65 -29 50 -36 418 183 77 45 173 104 214 131 40 26
78 48 84 48 15 0 1 -364 -18 -485 -21 -127 -21 -134 0 -178 28 -59 105 -65
120 -10 4 16 10 189 12 386 l5 359 66 66 c63 62 65 67 42 70 -13 2 -42 -1 -63
-8 -21 -6 -40 -10 -42 -8 -2 2 -5 194 -6 427 l-4 424 24 9 c13 4 38 6 56 2 72
-13 148 30 161 93 5 25 2 34 -17 47 -30 21 -39 20 -129 -9z m-241 -204 c20
-20 23 -53 41 -581 9 -257 9 -276 -7 -288 -51 -38 -379 -222 -396 -222 -4 0
-7 74 -7 163 0 144 2 166 18 179 9 8 57 24 107 36 49 12 129 41 177 64 83 39
87 42 72 59 -29 33 -68 32 -173 0 -55 -17 -121 -40 -147 -51 l-46 -20 6 77 c4
43 9 101 12 129 l6 51 65 12 c68 12 139 44 183 82 l25 21 -24 19 c-13 10 -34
19 -47 19 -29 0 -153 -34 -183 -49 -19 -11 -21 -9 -21 23 0 60 -20 132 -50
179 l-28 45 96 17 c54 10 138 26 187 35 115 23 112 23 134 1z"/>
<path d="M2505 2343 c-123 -48 -311 -130 -382 -168 -78 -42 -83 -44 -110 -30
-84 44 -114 -10 -73 -130 17 -49 20 -84 20 -215 0 -363 45 -1563 60 -1591 12
-22 33 -25 48 -6 23 28 32 327 32 1045 0 541 -3 748 -12 767 -22 49 -1 69 119
108 110 37 281 87 294 87 17 0 -26 -94 -82 -182 -70 -108 -127 -222 -168 -334
l-29 -79 65 -69 c70 -74 128 -158 168 -242 39 -83 85 -218 76 -227 -4 -4 -50
12 -102 37 -124 58 -259 86 -259 53 0 -44 173 -177 275 -212 51 -17 163 -23
203 -11 21 7 22 13 22 94 -1 118 -11 157 -80 298 -69 142 -127 211 -224 268
-40 23 -63 43 -59 50 4 6 90 137 192 291 174 262 186 282 185 324 -2 82 -77
113 -179 74z"/>
</g>
</svg>
