<?xml version="1.0" standalone="no"?>
<!DOCTYPE svg PUBLIC "-//W3C//DTD SVG 20010904//EN"
 "http://www.w3.org/TR/2001/REC-SVG-20010904/DTD/svg10.dtd">
<svg version="1.0" xmlns="http://www.w3.org/2000/svg"
 width="340.000000pt" height="340.000000pt" viewBox="0 0 340.000000 340.000000"
 preserveAspectRatio="xMidYMid meet">
<metadata>
Created by potrace 1.15, written by Peter Selinger 2001-2017
</metadata>
<g transform="translate(0.000000,340.000000) scale(0.100000,-0.100000)"
fill="#000000" stroke="none">
<path d="M1355 2299 c-166 -47 -310 -95 -453 -150 -83 -33 -166 -62 -182 -66
-17 -3 -30 -9 -30 -14 0 -14 44 -39 70 -39 14 0 114 25 224 56 161 46 200 54
207 43 44 -68 56 -248 44 -672 l-7 -263 -52 -29 c-42 -23 -153 -97 -246 -163
-18 -13 -19 -9 -13 115 5 110 8 131 26 151 11 12 27 22 34 22 20 0 94 39 121
64 13 11 30 33 38 48 13 25 12 28 -7 39 -32 17 -95 5 -135 -26 -51 -39 -57
-26 -45 91 6 55 12 117 14 139 2 39 2 39 57 51 71 15 104 28 146 60 43 33 43
48 -1 69 -42 19 -77 14 -147 -21 -26 -13 -51 -24 -56 -24 -5 0 -12 18 -16 41
-4 26 -17 52 -36 70 -24 25 -36 29 -80 29 l-52 0 7 -47 c4 -27 14 -66 22 -88
36 -93 25 -793 -13 -867 -18 -36 -81 -76 -184 -120 -79 -33 -90 -44 -90 -95 0
-28 36 -53 76 -53 25 0 73 30 225 141 105 77 240 178 298 225 l106 85 3 -148
c5 -217 -25 -598 -52 -663 -17 -42 71 -77 117 -47 l24 16 7 453 7 453 25 26
c27 28 32 59 9 59 -33 0 -38 39 -32 255 3 115 12 287 18 381 13 177 12 187
-29 275 -1 4 15 9 36 13 21 3 54 16 72 28 35 25 75 87 62 100 -17 17 -70 15
-137 -3z"/>
<path d="M1896 2284 c-23 -23 -20 -41 13 -70 49 -44 55 -70 48 -232 -8 -160
-20 -241 -40 -254 -11 -7 -234 -88 -242 -88 -1 0 -8 38 -15 85 -14 97 -36 135
-78 135 l-27 0 3 -84 c4 -89 -14 -172 -77 -358 -30 -89 -31 -119 -3 -150 20
-24 35 -23 69 6 22 18 38 54 73 160 l44 136 46 15 c61 20 181 47 186 42 3 -2
-7 -60 -22 -128 -42 -204 -178 -517 -344 -799 -38 -63 -71 -130 -75 -149 l-7
-33 31 23 c40 29 148 158 193 229 129 203 248 482 324 760 19 69 41 130 49
136 29 22 171 63 252 73 82 10 131 4 167 -22 16 -12 13 -16 -32 -45 -94 -61
-221 -224 -191 -243 36 -23 88 1 214 96 115 87 195 157 195 173 0 25 -39 89
-74 120 -54 47 -122 57 -238 36 -51 -9 -133 -30 -182 -45 -49 -16 -91 -27 -93
-25 -3 3 3 60 12 128 28 207 29 225 11 273 -25 63 -85 115 -135 115 -23 0 -46
-7 -55 -16z"/>
<path d="M2021 1338 c1 -66 -5 -143 -17 -213 -14 -84 -19 -160 -19 -321 l0
-211 29 -42 c37 -53 89 -94 159 -127 89 -40 152 -46 316 -29 158 17 235 34
315 69 45 20 54 29 63 62 42 142 10 314 -58 314 -26 0 -39 -31 -39 -91 0 -70
-17 -123 -54 -164 -26 -29 -45 -39 -110 -55 -169 -43 -343 -14 -462 76 -29 21
-33 31 -44 111 -18 122 -8 274 25 403 45 176 32 250 -51 297 -21 13 -43 23
-47 23 -5 0 -8 -46 -6 -102z"/>
</g>
</svg>
