<?xml version="1.0" standalone="no"?>
<!DOCTYPE svg PUBLIC "-//W3C//DTD SVG 20010904//EN"
 "http://www.w3.org/TR/2001/REC-SVG-20010904/DTD/svg10.dtd">
<svg version="1.0" xmlns="http://www.w3.org/2000/svg"
 width="340.000000pt" height="340.000000pt" viewBox="0 0 340.000000 340.000000"
 preserveAspectRatio="xMidYMid meet">
<metadata>
Created by potrace 1.15, written by Peter Selinger 2001-2017
</metadata>
<g transform="translate(0.000000,340.000000) scale(0.100000,-0.100000)"
fill="#000000" stroke="none">
<path d="M2316 2455 c-12 -12 -13 -22 -6 -41 20 -52 12 -65 -118 -193 -111
-109 -212 -234 -212 -262 0 -16 54 -9 85 10 29 18 201 157 353 286 39 33 75
73 81 89 31 84 -4 126 -105 126 -43 0 -67 -5 -78 -15z"/>
<path d="M1215 2354 c-88 -24 -239 -70 -335 -101 -96 -31 -193 -59 -215 -62
-26 -4 -40 -11 -40 -21 0 -27 209 -17 330 15 55 15 110 29 122 32 19 4 26 -4
50 -58 l29 -64 -6 -473 -5 -473 -150 -93 c-144 -89 -150 -92 -153 -68 -5 39
17 291 27 310 5 10 32 23 59 30 54 14 108 54 135 100 l18 31 -34 6 c-41 8
-106 -8 -140 -35 -14 -11 -28 -20 -33 -20 -7 0 3 178 14 244 7 38 9 40 67 56
85 23 182 81 169 101 -3 5 -31 9 -62 9 -43 0 -67 -6 -97 -25 -22 -13 -45 -25
-51 -25 -8 0 -13 32 -16 88 -5 116 -33 168 -110 206 -68 34 -76 25 -53 -61 27
-103 33 -168 41 -408 5 -154 3 -266 -7 -375 -7 -85 -11 -175 -10 -200 9 -110
12 -102 -60 -138 -36 -18 -96 -38 -132 -45 -61 -10 -67 -13 -72 -39 -13 -57
20 -88 93 -88 42 0 172 75 416 240 74 49 137 90 141 90 11 0 -5 -679 -17 -731
-13 -53 -7 -85 22 -122 18 -22 25 -25 41 -16 11 6 29 25 39 42 19 30 20 54 20
465 0 237 4 432 8 432 12 0 119 97 142 130 l20 28 -61 -14 c-33 -8 -70 -19
-81 -25 -11 -6 -22 -8 -25 -5 -8 8 16 571 31 733 17 171 9 219 -46 279 l-19
21 43 7 c48 8 159 58 178 81 11 13 10 19 -5 35 -10 11 -28 20 -39 19 -12 0
-93 -21 -181 -45z"/>
<path d="M1620 2312 c0 -15 10 -46 21 -67 12 -22 30 -58 41 -80 37 -73 78
-106 151 -119 l37 -7 0 52 c0 92 -52 159 -169 219 -74 37 -81 37 -81 2z"/>
<path d="M2290 1900 c-14 -4 -90 -27 -170 -50 -80 -23 -215 -67 -300 -98 -85
-31 -168 -55 -184 -54 -42 3 -66 -7 -66 -28 0 -32 101 -39 216 -15 24 5 33 3
38 -10 13 -34 28 -255 21 -310 l-7 -56 -106 -53 c-59 -29 -148 -70 -199 -91
-85 -34 -91 -39 -82 -57 16 -30 62 -20 227 50 l142 60 0 -33 c0 -80 -31 -212
-66 -280 -47 -91 -150 -249 -230 -352 -100 -127 -79 -168 34 -69 165 142 279
314 343 516 18 58 37 99 43 97 6 -2 42 -48 80 -103 81 -118 269 -354 379 -477
57 -63 95 -96 135 -116 98 -49 214 -63 312 -38 42 11 45 14 45 47 0 37 3 35
-91 59 -45 12 -177 92 -306 186 -84 62 -273 245 -458 444 -102 111 -104 113
-90 138 8 15 22 30 30 34 20 10 328 95 417 115 54 11 78 22 92 40 24 30 18 52
-16 60 -29 8 -222 -40 -388 -96 l-114 -38 -4 166 c-3 92 -6 178 -8 191 -4 22
1 26 51 38 144 36 380 130 380 151 0 16 -36 42 -56 41 -10 0 -30 -4 -44 -9z"/>
</g>
</svg>
