<?xml version="1.0" standalone="no"?>
<!DOCTYPE svg PUBLIC "-//W3C//DTD SVG 20010904//EN"
 "http://www.w3.org/TR/2001/REC-SVG-20010904/DTD/svg10.dtd">
<svg version="1.0" xmlns="http://www.w3.org/2000/svg"
 width="340.000000pt" height="340.000000pt" viewBox="0 0 340.000000 340.000000"
 preserveAspectRatio="xMidYMid meet">
<metadata>
Created by potrace 1.15, written by Peter Selinger 2001-2017
</metadata>
<g transform="translate(0.000000,340.000000) scale(0.100000,-0.100000)"
fill="#000000" stroke="none">
<path d="M1165 2364 c-177 -93 -197 -106 -183 -120 16 -17 34 -17 161 -8 l98
7 -8 -244 c-4 -134 -8 -526 -8 -871 l0 -627 -40 38 c-46 45 -75 61 -106 61
-20 0 -21 -3 -16 -54 9 -91 76 -191 153 -229 54 -26 89 -17 116 29 16 28 17
45 8 195 -29 521 -33 644 -27 914 5 278 18 440 52 662 19 129 19 166 -1 204
-28 55 -133 77 -199 43z"/>
<path d="M1817 2273 c-10 -3 -17 -12 -15 -20 2 -13 268 -205 316 -229 22 -11
72 17 79 44 11 46 -24 92 -102 134 -89 47 -230 83 -278 71z"/>
<path d="M800 2085 c0 -25 9 -68 20 -97 43 -112 36 -456 -16 -751 -52 -300
-112 -491 -231 -737 -44 -93 -76 -173 -79 -200 l-6 -45 59 60 c61 63 94 122
184 330 44 101 124 333 149 431 l10 40 74 13 c41 6 98 24 126 38 48 24 51 27
35 39 -36 26 -87 28 -148 6 -70 -25 -73 -22 -63 76 7 64 42 262 48 268 2 1 24
-2 50 -7 59 -13 117 2 160 40 l32 28 -27 27 c-32 32 -71 34 -152 6 -32 -11
-59 -19 -61 -18 -1 2 3 30 8 63 15 92 3 231 -28 326 -24 72 -31 83 -60 95 -19
8 -45 14 -59 14 -23 0 -25 -4 -25 -45z"/>
<path d="M2640 1960 c-47 -11 -159 -36 -250 -56 -195 -42 -576 -138 -747 -188
-67 -20 -140 -36 -161 -36 -44 0 -77 -25 -52 -40 20 -12 136 -22 183 -15 23 3
145 31 271 62 189 46 230 54 237 42 20 -32 8 -105 -35 -211 -110 -270 -295
-553 -517 -793 -80 -86 -113 -133 -123 -178 l-7 -29 63 43 c145 100 342 328
544 631 l105 157 47 -19 c96 -38 218 -92 238 -105 32 -21 49 -101 35 -167 -26
-118 -196 -425 -328 -590 l-55 -69 -35 41 c-41 48 -80 70 -123 70 -29 0 -30
-1 -30 -45 0 -55 19 -96 69 -148 47 -50 80 -67 130 -67 33 0 49 7 82 37 139
126 429 698 429 847 0 114 -62 209 -156 240 -27 8 -98 20 -158 26 -60 5 -110
11 -112 13 -1 1 14 36 34 77 34 68 37 80 35 154 -1 45 -3 92 -5 105 -3 22 3
26 47 38 79 21 234 43 306 43 74 0 222 18 257 31 29 11 31 68 3 93 -29 26
-120 28 -221 6z"/>
</g>
</svg>
