<?xml version="1.0" standalone="no"?>
<!DOCTYPE svg PUBLIC "-//W3C//DTD SVG 20010904//EN"
 "http://www.w3.org/TR/2001/REC-SVG-20010904/DTD/svg10.dtd">
<svg version="1.0" xmlns="http://www.w3.org/2000/svg"
 width="340.000000pt" height="340.000000pt" viewBox="0 0 340.000000 340.000000"
 preserveAspectRatio="xMidYMid meet">
<metadata>
Created by potrace 1.15, written by Peter Selinger 2001-2017
</metadata>
<g transform="translate(0.000000,340.000000) scale(0.100000,-0.100000)"
fill="#000000" stroke="none">
<path d="M1471 2506 c-18 -21 -6 -50 27 -67 15 -8 49 -31 76 -52 57 -44 144
-90 199 -105 37 -10 39 -9 58 21 36 59 5 109 -96 156 -97 46 -244 72 -264 47z"/>
<path d="M2575 2320 c-69 -13 -412 -54 -700 -85 -298 -33 -659 -85 -909 -132
-105 -19 -236 -39 -291 -43 -97 -8 -155 -18 -155 -26 0 -18 40 -59 74 -76 36
-19 52 -20 151 -15 108 6 141 13 377 76 116 31 320 72 326 66 10 -10 -79 -123
-136 -173 -161 -140 -233 -228 -219 -266 4 -9 28 -26 53 -38 56 -24 95 -21
189 17 198 79 819 202 889 175 14 -5 44 -28 66 -50 21 -22 50 -41 62 -41 55
-3 68 7 68 56 0 67 -176 229 -289 266 -20 7 -48 21 -62 31 -27 21 -80 22 -86
2 -2 -6 30 -48 72 -94 41 -46 74 -85 72 -86 -1 -1 -70 -10 -152 -19 -153 -16
-402 -53 -532 -79 -40 -7 -73 -10 -73 -5 0 8 44 54 109 114 47 43 90 108 110
168 l18 51 79 12 c264 41 673 61 929 46 l150 -8 28 25 c33 30 34 51 5 78 -56
51 -132 69 -223 53z"/>
<path d="M1819 1619 c-83 -12 -182 -36 -293 -71 -135 -43 -129 -27 -132 -378
-2 -278 -13 -480 -40 -712 -11 -98 -11 -133 -2 -152 12 -29 35 -33 62 -13 24
18 51 157 67 345 l13 143 50 -8 c28 -4 112 -8 186 -8 127 0 138 2 186 27 79
42 84 53 32 79 -57 30 -132 30 -312 1 -76 -12 -141 -21 -143 -18 -4 3 12 155
22 222 l5 31 118 6 c110 5 281 42 305 66 12 12 -12 57 -38 71 -13 7 -38 10
-57 8 -41 -7 -287 -64 -310 -73 -16 -6 -18 0 -18 62 0 37 -8 99 -19 136 -13
49 -15 70 -7 73 42 15 226 36 359 41 145 6 159 5 178 -13 45 -41 51 -69 60
-283 5 -114 13 -289 19 -391 5 -102 10 -241 10 -309 l0 -123 -22 7 c-13 4 -36
8 -53 9 -39 1 -55 -37 -35 -84 21 -51 102 -128 142 -135 47 -9 98 16 98 48 0
12 -4 119 -10 237 -5 118 -14 393 -20 610 -7 236 -16 411 -22 434 -16 52 -64
101 -113 115 -45 12 -182 13 -266 0z"/>
</g>
</svg>
