<?xml version="1.0" standalone="no"?>
<!DOCTYPE svg PUBLIC "-//W3C//DTD SVG 20010904//EN"
 "http://www.w3.org/TR/2001/REC-SVG-20010904/DTD/svg10.dtd">
<svg version="1.0" xmlns="http://www.w3.org/2000/svg"
 width="340.000000pt" height="340.000000pt" viewBox="0 0 340.000000 340.000000"
 preserveAspectRatio="xMidYMid meet">
<metadata>
Created by potrace 1.15, written by Peter Selinger 2001-2017
</metadata>
<g transform="translate(0.000000,340.000000) scale(0.100000,-0.100000)"
fill="#000000" stroke="none">
<path d="M1363 2574 c-19 -8 -16 -25 14 -90 33 -72 34 -144 3 -295 -42 -207
-115 -384 -231 -559 -78 -118 -285 -329 -419 -427 -125 -92 -227 -203 -187
-203 30 0 177 81 257 141 107 81 274 241 353 339 82 102 170 237 224 344 40
80 46 87 61 74 9 -8 73 -64 142 -124 281 -247 654 -546 725 -582 93 -47 175
-64 322 -70 154 -5 197 3 209 40 3 12 0 26 -8 34 -8 8 -127 46 -264 85 -277
78 -333 102 -449 190 -188 144 -478 360 -572 428 l-102 74 16 36 c55 124 83
288 73 428 -4 65 -8 76 -36 104 -24 23 -43 32 -75 35 -24 2 -50 1 -56 -2z"/>
<path d="M1980 2400 c-11 -11 -20 -29 -20 -39 0 -12 -20 -34 -50 -56 -60 -44
-135 -126 -161 -176 -16 -33 -17 -38 -3 -43 49 -19 127 16 237 106 103 83 137
121 137 151 0 65 -94 103 -140 57z"/>
<path d="M805 2286 c-20 -16 -20 -16 5 -37 57 -49 286 -130 326 -115 16 6 19
67 4 95 -14 26 -74 47 -155 55 -38 4 -90 9 -115 12 -32 4 -51 1 -65 -10z"/>
<path d="M1744 1958 c-10 -15 17 -34 121 -83 93 -44 202 -82 314 -110 l64 -16
25 24 c51 52 11 95 -131 143 -142 47 -374 73 -393 42z"/>
<path d="M1076 1875 c-92 -57 -145 -96 -209 -152 -26 -23 -47 -33 -70 -33 -42
0 -57 -15 -57 -60 0 -66 42 -95 104 -74 67 24 127 69 224 167 88 90 122 142
122 187 0 31 -19 25 -114 -35z"/>
<path d="M1526 1534 c-112 -25 -329 -117 -358 -151 -13 -16 -14 -59 -3 -280 8
-149 -5 -364 -31 -558 -27 -189 -29 -244 -11 -251 36 -13 53 13 80 123 15 59
32 140 39 180 l12 72 85 6 c136 10 270 32 297 49 25 17 31 49 14 76 -7 12 -33
15 -127 14 -99 0 -129 -4 -190 -25 l-73 -25 0 25 c0 30 17 191 25 239 5 28 9
31 30 26 40 -10 193 15 266 43 64 25 67 27 56 51 -12 25 -55 52 -84 52 -10 0
-67 -16 -128 -35 -60 -19 -114 -35 -120 -35 -6 0 -11 30 -11 68 -1 40 -10 88
-22 119 l-20 52 72 16 c88 20 251 29 331 18 l60 -8 16 -65 c25 -100 43 -493
35 -764 -3 -126 -8 -231 -10 -234 -2 -2 -16 4 -30 13 -35 23 -68 16 -85 -20
-13 -27 -12 -33 11 -75 35 -62 90 -100 160 -107 l56 -6 11 34 c25 78 29 158
20 354 -5 110 -16 355 -24 545 l-14 344 -29 41 c-57 82 -167 110 -306 79z"/>
</g>
</svg>
