<?xml version="1.0" standalone="no"?>
<!DOCTYPE svg PUBLIC "-//W3C//DTD SVG 20010904//EN"
 "http://www.w3.org/TR/2001/REC-SVG-20010904/DTD/svg10.dtd">
<svg version="1.0" xmlns="http://www.w3.org/2000/svg"
 width="340.000000pt" height="340.000000pt" viewBox="0 0 340.000000 340.000000"
 preserveAspectRatio="xMidYMid meet">
<metadata>
Created by potrace 1.15, written by Peter Selinger 2001-2017
</metadata>
<g transform="translate(0.000000,340.000000) scale(0.100000,-0.100000)"
fill="#000000" stroke="none">
<path d="M1975 2414 c-9 -10 -13 -23 -9 -33 45 -106 47 -118 51 -256 2 -77 1
-167 -4 -199 l-8 -59 -80 -17 c-44 -9 -86 -18 -92 -21 -9 -3 -14 24 -17 101
-4 123 -25 208 -71 301 -39 77 -43 81 -91 82 -62 2 -69 -39 -25 -133 36 -76
53 -173 55 -304 l1 -100 -92 -19 c-51 -11 -93 -23 -93 -28 0 -27 83 -35 146
-14 39 12 51 -15 59 -130 4 -59 4 -110 -1 -115 -12 -11 -112 -40 -139 -40 -20
0 -23 7 -28 62 -8 94 -57 183 -127 231 -62 42 -126 59 -135 35 -3 -8 15 -50
40 -94 54 -95 116 -249 145 -362 19 -77 50 -256 50 -294 0 -13 -31 -24 -149
-52 -166 -40 -193 -43 -210 -22 -16 19 -9 726 10 999 14 216 9 251 -45 292
-65 49 -174 38 -292 -31 -61 -36 -68 -47 -44 -69 22 -20 44 -21 140 -10 56 6
68 5 89 -12 24 -19 24 -21 29 -264 l5 -245 -66 4 c-44 3 -81 -1 -113 -12 -26
-9 -48 -15 -50 -13 -1 1 3 34 8 72 17 127 -22 279 -95 369 -19 24 -32 29 -68
30 -40 1 -44 -1 -47 -24 -2 -14 13 -73 32 -131 52 -154 70 -282 63 -453 -13
-344 -67 -656 -163 -945 -22 -68 -34 -123 -34 -159 l0 -56 29 28 c16 15 40 49
54 74 31 58 106 312 142 487 15 72 29 136 31 142 2 8 20 13 45 13 64 0 116 20
165 63 42 37 44 41 28 58 -31 34 -71 34 -137 0 -33 -17 -66 -31 -73 -31 -17 0
-17 18 1 195 8 77 15 145 15 151 0 7 21 15 48 19 26 4 75 18 110 32 35 14 66
22 69 20 8 -9 17 -1018 9 -1060 l-7 -36 -32 19 c-18 11 -47 20 -64 20 -32 0
-33 -2 -33 -38 0 -84 63 -188 128 -213 41 -16 88 -10 108 12 22 25 23 71 10
412 l-9 217 100 0 c68 0 125 6 179 20 391 102 713 138 1094 125 346 -12 318
-14 346 18 37 43 31 61 -24 85 -106 46 -212 53 -349 25 -45 -9 -86 -14 -90 -9
-15 14 49 278 129 533 39 125 40 134 27 169 -20 51 -52 72 -137 85 -58 8 -93
7 -183 -6 -61 -9 -114 -13 -117 -10 -3 3 1 60 8 128 27 240 18 322 -41 386
-24 26 -90 29 -114 5z m418 -635 c24 -6 37 -15 34 -23 -12 -30 -101 -391 -127
-513 -15 -74 -30 -136 -32 -137 -1 -2 -50 -7 -107 -12 l-103 -9 5 50 c3 27 11
107 18 176 l13 126 46 16 c25 9 58 30 74 46 l29 30 -29 12 c-16 6 -48 14 -72
17 l-43 5 6 101 c5 67 12 105 21 112 18 14 216 17 267 3z m-387 -34 c3 -8 0
-59 -7 -112 l-14 -98 -50 -12 c-27 -6 -67 -12 -88 -12 l-38 -1 3 113 3 112 55
12 c80 16 130 16 136 -2z m-26 -355 c8 -15 8 -43 -1 -101 -6 -45 -9 -110 -6
-146 3 -47 1 -66 -8 -69 -7 -3 -93 -18 -191 -33 -160 -25 -180 -26 -186 -12
-8 21 -32 320 -25 327 2 3 36 8 74 11 l70 6 6 -94 c5 -87 31 -199 47 -199 3 0
17 12 31 26 19 21 24 37 25 82 0 31 1 89 2 129 l2 71 38 10 c65 17 110 14 122
-8z"/>
<path d="M1623 838 c-17 -21 -22 -57 -13 -88 8 -28 3 -35 -75 -116 -124 -128
-175 -196 -164 -217 18 -31 68 -21 144 29 107 69 170 137 217 230 39 80 40 82
24 112 -26 51 -109 81 -133 50z"/>
<path d="M2190 840 c0 -24 35 -74 115 -167 51 -58 100 -127 121 -169 41 -83
145 -211 177 -219 31 -8 73 9 87 35 39 72 -152 322 -340 444 -83 54 -141 86
-155 86 -3 0 -5 -5 -5 -10z"/>
</g>
</svg>
