<?xml version="1.0" standalone="no"?>
<!DOCTYPE svg PUBLIC "-//W3C//DTD SVG 20010904//EN"
 "http://www.w3.org/TR/2001/REC-SVG-20010904/DTD/svg10.dtd">
<svg version="1.0" xmlns="http://www.w3.org/2000/svg"
 width="340.000000pt" height="340.000000pt" viewBox="0 0 340.000000 340.000000"
 preserveAspectRatio="xMidYMid meet">
<metadata>
Created by potrace 1.15, written by Peter Selinger 2001-2017
</metadata>
<g transform="translate(0.000000,340.000000) scale(0.100000,-0.100000)"
fill="#000000" stroke="none">
<path d="M1810 2558 c0 -27 112 -141 170 -172 26 -14 68 -29 92 -32 54 -8 64
7 47 70 -19 73 -48 93 -184 126 -131 31 -125 31 -125 8z"/>
<path d="M908 2376 c-69 -28 -148 -74 -148 -85 0 -16 30 -21 114 -21 46 0 104
-3 130 -6 l46 -7 0 -874 c0 -830 -1 -875 -17 -868 -41 17 -64 17 -84 -1 -61
-55 73 -217 166 -200 58 11 75 44 75 148 l0 89 79 162 c78 159 152 344 185
461 13 43 34 79 79 135 34 42 91 116 126 164 35 48 65 86 67 84 6 -5 -15 -545
-32 -855 -19 -333 -20 -325 40 -320 18 2 37 13 50 31 20 27 21 44 28 375 15
777 15 741 -9 800 l-21 53 55 77 c75 104 147 255 147 307 0 50 -21 95 -55 114
-22 12 -34 13 -68 2 -23 -7 -45 -19 -48 -26 -3 -8 5 -36 18 -61 l22 -47 -48
-91 c-102 -193 -282 -492 -291 -483 -2 2 3 77 11 168 8 90 15 244 15 341 0
176 0 178 23 182 213 47 696 106 899 110 95 2 136 8 182 24 32 12 61 23 63 26
3 2 -3 20 -12 39 -22 46 -59 62 -112 48 -22 -6 -112 -18 -199 -26 -253 -24
-460 -59 -805 -136 -52 -12 -58 -11 -91 9 -20 12 -47 22 -62 22 -42 0 -47 -29
-24 -176 35 -232 13 -602 -52 -885 -19 -82 -149 -420 -169 -442 -17 -17 -45
657 -36 858 7 173 30 475 45 586 10 81 3 122 -25 166 -37 56 -157 70 -257 29z"/>
<path d="M611 2192 c-16 -30 -14 -44 15 -98 70 -132 81 -544 23 -894 -37 -223
-116 -496 -191 -660 -16 -36 -32 -90 -35 -120 l-6 -55 32 29 c85 81 176 288
245 558 l33 133 74 6 c89 7 160 34 228 85 9 7 -30 53 -50 59 -12 4 -45 0 -73
-9 -103 -32 -166 -44 -166 -30 0 7 11 89 25 184 14 95 25 175 25 179 0 4 31 5
68 3 73 -4 110 8 146 46 21 24 16 36 -26 58 -31 16 -102 15 -155 -1 l-22 -7
-3 204 -3 203 -30 54 c-33 60 -53 77 -107 86 -30 6 -38 4 -47 -13z"/>
<path d="M2365 2136 c-18 -13 -18 -15 8 -77 35 -85 44 -125 57 -248 16 -159
14 -201 -9 -201 -22 0 -474 -113 -514 -129 -24 -9 -26 -14 -17 -30 18 -35 66
-34 310 7 129 22 238 37 241 33 10 -9 29 -566 29 -816 l0 -210 -24 36 c-23 34
-46 48 -105 64 -23 7 -23 6 -16 -41 16 -106 79 -230 149 -291 41 -37 76 -42
102 -16 35 36 41 72 33 208 -44 756 -62 1085 -58 1090 3 2 48 9 100 15 51 5
142 18 202 27 l107 17 0 36 c0 57 -19 75 -82 75 -29 0 -96 -8 -148 -17 -52 -9
-114 -19 -137 -22 l-43 -6 0 145 c0 145 -13 273 -32 308 -25 47 -114 72 -153
43z"/>
<path d="M1967 1233 c-20 -20 -2 -58 63 -132 54 -62 85 -87 136 -112 64 -32
67 -32 80 -14 34 47 8 116 -68 178 -66 54 -190 101 -211 80z"/>
</g>
</svg>
