<?xml version="1.0" standalone="no"?>
<!DOCTYPE svg PUBLIC "-//W3C//DTD SVG 20010904//EN"
 "http://www.w3.org/TR/2001/REC-SVG-20010904/DTD/svg10.dtd">
<svg version="1.0" xmlns="http://www.w3.org/2000/svg"
 width="340.000000pt" height="340.000000pt" viewBox="0 0 340.000000 340.000000"
 preserveAspectRatio="xMidYMid meet">
<metadata>
Created by potrace 1.15, written by Peter Selinger 2001-2017
</metadata>
<g transform="translate(0.000000,340.000000) scale(0.100000,-0.100000)"
fill="#000000" stroke="none">
<path d="M1373 2794 c-15 -40 145 -116 328 -158 23 -5 28 -2 33 19 9 36 -17
91 -52 109 -79 41 -297 62 -309 30z"/>
<path d="M1690 2560 c-234 -37 -485 -76 -558 -86 -106 -15 -132 -22 -130 -34
8 -41 291 -37 593 9 110 16 286 39 390 51 229 24 238 26 260 50 37 41 -5 80
-85 79 -25 -1 -236 -32 -470 -69z"/>
<path d="M1800 2366 c-80 -19 -218 -52 -307 -75 -89 -23 -173 -41 -186 -41
-14 0 -52 9 -86 20 -65 21 -91 18 -91 -9 0 -9 33 -66 72 -127 40 -61 93 -152
118 -202 35 -74 48 -92 66 -92 26 0 40 15 48 57 l7 31 87 7 c348 26 492 62
478 120 -4 16 4 30 30 56 66 63 93 151 71 230 -16 62 -113 70 -307 25z m141
-107 c19 -9 19 -12 6 -27 -9 -9 -31 -46 -50 -82 -29 -55 -39 -65 -63 -68 -48
-5 -393 -62 -409 -68 -10 -4 -17 7 -25 38 -7 23 -21 60 -31 80 -25 49 -24 58
6 58 33 0 467 69 473 75 9 9 73 5 93 -6z"/>
<path d="M2270 1934 c-377 -46 -764 -111 -1100 -186 -102 -23 -202 -43 -223
-45 -48 -4 -77 -19 -77 -40 0 -26 204 -12 370 26 287 65 663 118 1030 147 201
16 220 16 273 0 31 -9 57 -20 57 -24 -1 -4 -15 -16 -33 -27 -38 -24 -45 -49
-20 -77 16 -18 26 -20 90 -15 47 4 93 15 132 33 55 24 61 30 61 56 0 44 -28
95 -64 117 -39 24 -200 61 -258 60 -24 -1 -131 -12 -238 -25z"/>
<path d="M775 1783 c-12 -51 -75 -177 -127 -257 -46 -69 -52 -85 -52 -132 -1
-68 10 -79 56 -60 75 32 113 88 147 220 24 90 26 137 10 202 -14 54 -25 63
-34 27z"/>
<path d="M1955 1680 c-141 -40 -354 -92 -486 -119 -117 -24 -140 -26 -160 -15
-39 22 -76 17 -96 -12 -16 -25 -16 -26 15 -51 41 -31 77 -94 92 -160 13 -59
54 -121 92 -141 23 -12 28 -11 51 10 22 20 51 29 159 47 73 12 184 31 246 42
111 21 113 22 144 63 17 22 58 68 89 102 61 65 85 110 91 170 2 34 -1 40 -29
57 -48 28 -126 30 -208 7z m43 -131 c1 -9 -21 -47 -50 -84 l-53 -68 -120 -22
c-66 -13 -162 -35 -213 -50 -51 -16 -93 -26 -95 -24 -2 2 -17 41 -34 86 l-30
83 31 4 c17 3 83 12 147 21 64 9 172 30 240 45 136 31 172 33 177 9z"/>
<path d="M1815 1134 c-96 -17 -235 -56 -300 -84 -56 -24 -83 -25 -121 -5 -32
16 -80 20 -88 6 -3 -5 4 -48 15 -97 26 -114 36 -358 20 -475 -7 -46 -21 -117
-32 -157 -20 -75 -24 -129 -11 -148 8 -13 46 -34 61 -34 15 0 59 149 79 263
l17 98 60 -6 c65 -7 246 9 308 27 39 12 87 58 87 83 0 37 -194 31 -313 -9 -93
-31 -151 -35 -143 -8 2 9 7 37 11 62 3 25 8 57 11 72 l5 26 162 4 c142 3 167
6 202 25 22 11 49 30 59 42 19 21 19 22 -4 46 -42 45 -76 43 -244 -14 -84 -28
-158 -51 -163 -51 -6 0 -13 26 -16 58 -4 31 -9 69 -13 83 -5 25 -3 26 53 37
228 43 374 50 447 22 25 -9 24 -8 52 -228 8 -60 6 -475 -2 -495 -5 -15 -8 -15
-29 -1 -13 9 -36 14 -52 12 -21 -2 -29 -10 -37 -35 -7 -28 -5 -39 18 -73 47
-72 116 -96 193 -69 28 9 31 15 37 71 4 33 7 202 7 374 0 242 -4 329 -16 387
-28 135 -35 149 -95 180 -61 31 -102 33 -225 11z"/>
</g>
</svg>
