<?xml version="1.0" standalone="no"?>
<!DOCTYPE svg PUBLIC "-//W3C//DTD SVG 20010904//EN"
 "http://www.w3.org/TR/2001/REC-SVG-20010904/DTD/svg10.dtd">
<svg version="1.0" xmlns="http://www.w3.org/2000/svg"
 width="340.000000pt" height="340.000000pt" viewBox="0 0 340.000000 340.000000"
 preserveAspectRatio="xMidYMid meet">
<metadata>
Created by potrace 1.15, written by Peter Selinger 2001-2017
</metadata>
<g transform="translate(0.000000,340.000000) scale(0.100000,-0.100000)"
fill="#000000" stroke="none">
<path d="M1710 2321 c0 -50 167 -161 279 -186 38 -8 51 3 51 47 0 43 -43 84
-103 98 -28 7 -81 21 -116 31 -68 21 -111 24 -111 10z"/>
<path d="M987 2196 c-66 -36 -121 -67 -124 -69 -3 -3 6 -13 19 -21 22 -14 30
-15 74 -1 47 14 159 20 186 10 11 -4 12 -153 10 -848 -2 -463 -5 -843 -7 -845
-2 -2 -25 6 -52 17 -105 44 -140 22 -97 -61 21 -41 98 -123 141 -149 43 -27
93 -19 124 19 21 26 21 33 16 197 -4 94 -11 242 -18 330 -15 216 -6 953 15
1179 17 185 13 227 -26 263 -29 27 -70 43 -111 43 -20 0 -76 -24 -150 -64z"/>
<path d="M2340 2113 c-105 -19 -365 -82 -510 -125 -96 -28 -190 -53 -209 -57
-73 -13 -33 -51 53 -51 24 0 104 15 177 34 147 38 290 61 446 71 112 7 103 12
118 -64 l7 -33 72 4 c47 2 84 10 111 24 37 20 40 24 39 63 -1 57 -29 92 -90
112 -52 17 -172 30 -214 22z"/>
<path d="M1507 2073 c-3 -5 -15 -44 -27 -88 -12 -44 -30 -95 -41 -113 -27 -47
-59 -145 -59 -181 0 -56 76 -69 112 -20 28 37 57 157 64 265 6 78 4 97 -10
119 -16 25 -31 32 -39 18z"/>
<path d="M710 2028 c0 -18 10 -89 22 -158 20 -110 22 -160 23 -425 0 -245 -3
-320 -18 -410 -39 -231 -76 -375 -153 -581 -37 -99 -45 -131 -42 -175 l3 -54
29 30 c40 42 66 99 124 266 47 136 96 317 122 451 l11 57 47 6 c80 11 137 34
171 69 l32 33 -27 18 c-40 26 -96 24 -149 -5 -24 -13 -47 -22 -50 -18 -3 3 2
79 12 169 l18 164 57 7 c67 8 102 25 142 66 l28 30 -40 21 c-53 27 -79 26
-135 -3 -25 -14 -48 -22 -51 -18 -3 3 -3 46 0 96 8 115 -6 191 -51 283 -36 74
-73 113 -106 113 -15 0 -19 -7 -19 -32z"/>
<path d="M2012 1864 c-17 -12 -23 -23 -19 -40 3 -20 -6 -33 -57 -73 -63 -50
-142 -131 -186 -190 -26 -34 -26 -34 -57 -17 -39 19 -83 21 -107 3 -18 -13
-17 -15 2 -53 50 -98 110 -381 129 -605 l6 -67 -54 -16 c-30 -9 -108 -28 -174
-42 -193 -42 -197 -43 -193 -62 2 -12 15 -18 45 -20 62 -5 263 24 410 58 70
16 182 36 248 44 66 8 161 20 210 26 50 7 195 14 323 17 230 6 234 6 248 29
21 31 14 66 -16 82 -33 17 -303 10 -445 -13 -55 -9 -119 -18 -142 -22 l-42 -6
8 29 c5 16 18 48 30 72 44 87 61 229 34 298 -3 8 7 14 29 18 121 17 168 29
224 55 71 33 78 48 39 86 -28 28 -58 31 -112 11 -21 -8 -76 -22 -123 -31 -121
-24 -229 -51 -353 -91 -59 -19 -112 -32 -117 -29 -6 3 -10 15 -10 25 0 10 -11
50 -25 88 -14 38 -25 72 -25 76 0 3 12 6 26 6 66 0 367 194 380 244 10 41 0
78 -26 97 -37 28 -81 33 -108 13z m64 -617 l27 -23 -37 -151 c-20 -83 -36
-158 -36 -167 0 -8 -8 -19 -17 -24 -21 -11 -182 -34 -193 -27 -4 2 -10 78 -14
167 -4 90 -8 172 -9 183 -2 18 10 22 103 41 136 28 144 28 176 1z"/>
<path d="M1707 626 c-15 -47 -26 -62 -70 -95 -68 -50 -140 -128 -166 -180
l-21 -41 37 0 c51 0 191 71 258 132 54 49 99 131 93 170 -4 26 -43 56 -83 64
-30 5 -31 4 -48 -50z"/>
<path d="M2110 616 c0 -22 28 -51 93 -92 40 -26 116 -92 172 -149 61 -63 112
-106 129 -111 32 -8 96 18 96 38 0 27 -60 115 -107 160 -28 25 -72 57 -99 71
-91 46 -284 102 -284 83z"/>
</g>
</svg>
