<?xml version="1.0" standalone="no"?>
<!DOCTYPE svg PUBLIC "-//W3C//DTD SVG 20010904//EN"
 "http://www.w3.org/TR/2001/REC-SVG-20010904/DTD/svg10.dtd">
<svg version="1.0" xmlns="http://www.w3.org/2000/svg"
 width="340.000000pt" height="340.000000pt" viewBox="0 0 340.000000 340.000000"
 preserveAspectRatio="xMidYMid meet">
<metadata>
Created by potrace 1.15, written by Peter Selinger 2001-2017
</metadata>
<g transform="translate(0.000000,340.000000) scale(0.100000,-0.100000)"
fill="#000000" stroke="none">
<path d="M2000 2514 c-123 -34 -145 -38 -205 -32 -28 3 -30 1 -29 -32 1 -19 9
-60 18 -90 19 -65 14 -109 -21 -187 -22 -49 -24 -60 -14 -93 16 -54 34 -67 65
-46 44 28 76 70 90 117 12 39 12 59 -3 152 l-17 107 75 0 c42 0 99 -3 128 -6
l52 -7 -6 -67 c-5 -58 -2 -75 17 -115 39 -81 166 -146 244 -124 46 13 90 61
81 89 -9 28 -62 50 -120 50 -61 0 -88 25 -74 72 13 47 11 123 -5 161 -20 50
-70 87 -114 86 -20 0 -93 -16 -162 -35z"/>
<path d="M1365 2489 c-49 -10 -138 -34 -196 -54 -92 -31 -114 -34 -167 -29
-43 5 -66 3 -77 -6 -15 -13 -19 -61 -7 -93 21 -52 -25 -331 -80 -486 -55 -155
-184 -386 -263 -471 -43 -45 -85 -170 -58 -170 18 0 119 90 162 144 26 34 90
133 140 221 51 88 98 165 104 171 13 12 165 39 174 30 3 -3 11 -32 18 -66 15
-73 27 -65 -147 -107 -70 -17 -118 -33 -118 -40 0 -27 41 -35 143 -28 l101 7
-41 -48 c-69 -83 -124 -176 -121 -204 10 -89 209 44 253 170 8 23 15 55 15 71
0 15 4 31 10 34 14 9 202 36 208 30 3 -3 -2 -5 -10 -5 -9 0 -18 -6 -21 -13 -8
-20 53 -122 117 -197 54 -63 55 -65 33 -74 -12 -5 -55 -24 -95 -42 -68 -31
-77 -33 -116 -22 -63 17 -79 7 -73 -45 2 -23 16 -72 30 -109 49 -126 54 -256
17 -473 -6 -33 -13 -122 -17 -197 l-6 -137 27 -12 c44 -20 54 1 82 170 13 85
26 157 29 161 2 4 46 10 97 13 125 8 338 70 338 99 0 5 -12 20 -26 35 -20 20
-32 24 -57 20 -160 -28 -212 -39 -268 -57 -35 -11 -67 -20 -71 -20 -11 0 3
214 16 226 6 6 59 16 118 22 119 13 268 62 268 88 0 8 -11 26 -25 39 -34 35
-78 32 -224 -15 -68 -22 -125 -39 -126 -38 0 2 -9 35 -18 73 -9 39 -19 79 -22
91 -6 19 1 22 68 37 99 22 284 39 377 35 70 -3 76 -5 88 -30 7 -16 17 -54 23
-85 13 -80 24 -569 15 -676 l-8 -87 -35 30 c-40 36 -61 35 -82 -1 -13 -24 -13
-32 4 -75 21 -56 109 -150 149 -160 36 -9 92 34 105 83 7 23 7 92 1 197 -5 88
-12 298 -15 466 -4 168 -11 321 -17 340 -14 46 -52 97 -88 115 -38 20 -111 18
-245 -5 -60 -10 -110 -18 -111 -17 -1 1 -9 27 -18 58 -24 86 -100 170 -167
184 -16 4 -29 10 -29 13 0 4 42 18 93 31 126 32 177 55 177 80 0 32 -30 41
-124 34 l-86 -6 0 31 c0 41 33 75 93 97 31 11 52 26 59 41 15 33 3 44 -58 52
l-49 7 -3 50 c-1 28 -13 71 -26 97 l-23 47 39 38 c82 80 134 247 92 294 -48
53 -102 60 -249 28z m106 -115 c11 -13 10 -23 -2 -56 -19 -57 -50 -76 -165
-103 -86 -21 -165 -45 -226 -70 -16 -7 -18 2 -18 92 l0 99 178 25 c222 32 217
32 233 13z m-80 -334 c9 -54 9 -76 1 -96 -14 -29 -65 -53 -133 -61 -49 -6 -49
-6 -49 23 0 16 -9 48 -20 72 -21 46 -64 72 -120 72 -16 0 -30 3 -30 8 0 6 247
47 312 50 25 2 27 -1 39 -68z m-337 -69 c20 -22 45 -100 39 -118 -5 -13 -132
-57 -141 -49 -2 3 9 38 25 78 17 40 33 81 36 91 8 22 20 22 41 -2z m318 -187
c5 -3 8 -23 8 -44 0 -32 -6 -43 -33 -64 -41 -32 -91 -43 -112 -26 -32 27 -10
123 33 139 25 9 86 6 104 -5z"/>
<path d="M2087 1960 c-48 -17 -100 -36 -115 -44 -15 -7 -54 -19 -87 -26 -95
-18 -96 -19 -85 -39 20 -38 62 -45 168 -28 141 24 212 31 212 22 0 -14 -59
-100 -85 -125 l-25 -23 -87 41 c-94 44 -191 77 -201 68 -13 -14 39 -63 104
-99 38 -21 79 -48 92 -60 l22 -23 -72 -52 c-40 -28 -99 -78 -131 -110 -54 -55
-57 -60 -42 -76 34 -33 72 -19 234 87 l115 75 52 -44 c132 -113 307 -191 503
-225 129 -22 169 -18 206 19 l26 26 -23 18 c-38 29 -117 57 -219 77 -134 26
-357 123 -439 189 l-24 20 25 38 c15 22 46 62 71 89 25 28 50 60 56 72 20 37
14 93 -14 130 -24 31 -28 33 -87 33 -42 0 -90 -10 -150 -30z"/>
</g>
</svg>
