<?xml version="1.0" standalone="no"?>
<!DOCTYPE svg PUBLIC "-//W3C//DTD SVG 20010904//EN"
 "http://www.w3.org/TR/2001/REC-SVG-20010904/DTD/svg10.dtd">
<svg version="1.0" xmlns="http://www.w3.org/2000/svg"
 width="340.000000pt" height="340.000000pt" viewBox="0 0 340.000000 340.000000"
 preserveAspectRatio="xMidYMid meet">
<metadata>
Created by potrace 1.15, written by Peter Selinger 2001-2017
</metadata>
<g transform="translate(0.000000,340.000000) scale(0.100000,-0.100000)"
fill="#000000" stroke="none">
<path d="M1983 2303 c-19 -7 -16 -33 12 -87 14 -27 25 -65 25 -84 0 -92 -182
-494 -324 -716 -85 -132 -99 -166 -69 -166 21 0 118 95 185 182 l44 58 126 3
126 3 6 -36 c9 -54 7 -206 -4 -304 -10 -85 -55 -246 -70 -246 -4 0 -36 37 -71
83 -75 96 -239 267 -256 267 -21 0 -15 -36 11 -67 13 -15 49 -73 81 -128 32
-55 86 -142 122 -193 l64 -93 -26 -46 c-72 -129 -231 -314 -378 -440 -90 -77
-34 -98 76 -30 142 89 296 243 376 375 14 23 29 42 32 42 3 0 56 -60 116 -132
61 -73 134 -155 162 -181 69 -65 155 -104 259 -116 46 -6 87 -13 92 -16 15 -9
85 13 103 33 15 17 13 20 -38 50 -30 18 -95 48 -143 66 -50 18 -124 57 -168
87 -78 53 -286 249 -318 300 -15 25 -15 29 8 80 64 144 103 327 107 494 2 86
-3 110 -39 177 -5 11 90 33 436 104 36 7 62 40 62 78 0 30 -4 34 -31 40 -58
11 -134 5 -189 -15 -92 -34 -157 -55 -360 -114 -232 -69 -240 -70 -240 -57 0
6 26 53 57 104 71 117 152 286 193 402 32 93 33 122 4 178 -24 47 -114 81
-161 61z"/>
<path d="M1435 2234 c-422 -101 -569 -134 -597 -134 -42 0 -108 -18 -108 -30
0 -14 30 -40 55 -46 36 -9 688 74 762 97 68 21 100 109 47 129 -33 13 -42 12
-159 -16z"/>
<path d="M1041 1989 c-12 -16 -31 -55 -42 -86 -43 -125 -161 -293 -308 -438
-73 -72 -81 -83 -81 -117 0 -25 7 -45 20 -58 37 -37 81 -27 279 65 102 47 188
82 191 78 24 -26 41 -211 25 -262 -9 -31 -58 -56 -231 -119 -127 -46 -159 -62
-159 -76 0 -41 27 -42 192 -3 87 21 167 40 178 43 19 5 20 0 20 -168 0 -95 2
-193 5 -216 l5 -44 -100 -53 c-126 -69 -307 -146 -364 -157 -92 -17 -115 -56
-59 -103 28 -23 37 -26 77 -20 137 21 244 71 476 225 387 257 461 317 411 336
-13 5 -207 -88 -293 -141 l-43 -26 0 148 c0 81 3 178 6 214 l7 65 72 23 c73
22 192 92 202 118 3 7 -3 23 -12 33 -24 27 -84 26 -137 -1 -23 -12 -58 -27
-78 -34 l-38 -13 -5 111 c-3 62 -9 126 -12 143 -6 28 -4 31 36 49 24 11 77 39
118 62 41 24 77 43 81 43 3 0 11 -15 18 -33 16 -45 69 -93 116 -106 22 -6 42
-8 45 -5 13 12 2 114 -16 154 -42 96 -280 326 -314 304 -19 -11 -8 -61 24
-109 72 -108 97 -156 84 -160 -132 -46 -562 -183 -566 -180 -6 7 45 80 97 138
86 95 154 202 191 298 12 33 -16 85 -55 99 -36 14 -38 13 -63 -21z"/>
</g>
</svg>
