<?xml version="1.0" standalone="no"?>
<!DOCTYPE svg PUBLIC "-//W3C//DTD SVG 20010904//EN"
 "http://www.w3.org/TR/2001/REC-SVG-20010904/DTD/svg10.dtd">
<svg version="1.0" xmlns="http://www.w3.org/2000/svg"
 width="340.000000pt" height="340.000000pt" viewBox="0 0 340.000000 340.000000"
 preserveAspectRatio="xMidYMid meet">
<metadata>
Created by potrace 1.15, written by Peter Selinger 2001-2017
</metadata>
<g transform="translate(0.000000,340.000000) scale(0.100000,-0.100000)"
fill="#000000" stroke="none">
<path d="M1815 2441 c-3 -16 -12 -34 -19 -40 -6 -5 -97 -35 -201 -65 -283 -81
-457 -145 -453 -165 3 -13 16 -16 68 -15 124 3 667 107 732 140 42 22 58 43
58 78 0 56 -60 96 -147 96 -27 0 -32 -4 -38 -29z"/>
<path d="M2245 2029 c-9 -17 -14 -38 -11 -46 4 -9 -21 -40 -73 -89 -83 -78
-169 -184 -220 -271 l-30 -53 37 0 c20 0 51 8 67 19 46 28 385 332 385 345 0
41 -24 89 -53 106 -49 30 -83 26 -102 -11z"/>
<path d="M1470 1940 c13 -46 85 -160 140 -222 39 -43 104 -63 121 -37 21 34 2
122 -37 169 -34 39 -152 109 -197 117 l-36 6 9 -33z"/>
<path d="M927 1833 c-4 -3 -7 -19 -7 -35 0 -32 19 -53 172 -197 79 -74 90 -81
127 -81 35 0 41 3 47 25 9 38 -1 65 -49 126 -53 66 -130 120 -215 148 -70 24
-66 23 -75 14z"/>
<path d="M1368 1508 c-9 -7 -18 -24 -20 -37 -2 -18 -28 -39 -113 -90 -60 -36
-151 -95 -202 -129 -91 -63 -92 -63 -122 -48 -35 19 -92 21 -108 5 -8 -8 -2
-26 24 -67 97 -151 159 -350 208 -663 34 -216 32 -206 61 -225 24 -16 27 -16
53 3 24 18 97 37 221 57 32 6 580 56 608 56 6 0 12 -8 12 -17 1 -29 39 -106
68 -136 29 -31 92 -67 116 -67 17 0 61 54 104 126 47 81 219 568 297 845 24
87 26 102 16 151 -17 80 -57 137 -120 172 -52 28 -54 28 -189 24 -115 -3 -170
-11 -339 -48 -112 -25 -203 -48 -203 -52 0 -4 11 -15 25 -24 23 -15 38 -15
152 -4 121 13 417 9 470 -6 53 -15 81 -171 48 -280 l-15 -50 -82 -1 c-49 0
-118 -9 -168 -22 -47 -11 -113 -24 -148 -27 -39 -4 -72 -14 -85 -25 -21 -18
-21 -19 -3 -33 39 -31 245 -33 374 -6 29 7 56 10 59 7 10 -11 -29 -158 -66
-250 -50 -121 -142 -317 -150 -317 -3 0 -15 17 -26 37 -11 20 -32 45 -46 56
-85 62 -592 39 -866 -39 -18 -5 -23 0 -32 33 -13 43 -61 297 -61 318 0 9 17
16 48 20 135 16 321 69 337 96 8 12 -22 66 -40 73 -39 15 -97 2 -210 -45 -66
-28 -127 -53 -136 -56 -13 -4 -20 9 -33 64 -10 38 -32 107 -51 153 -19 47 -33
85 -32 86 1 0 107 54 235 119 132 67 242 129 253 143 28 36 25 86 -7 111 -30
24 -91 28 -116 9z"/>
</g>
</svg>
