<?xml version="1.0" standalone="no"?>
<!DOCTYPE svg PUBLIC "-//W3C//DTD SVG 20010904//EN"
 "http://www.w3.org/TR/2001/REC-SVG-20010904/DTD/svg10.dtd">
<svg version="1.0" xmlns="http://www.w3.org/2000/svg"
 width="340.000000pt" height="340.000000pt" viewBox="0 0 340.000000 340.000000"
 preserveAspectRatio="xMidYMid meet">
<metadata>
Created by potrace 1.15, written by Peter Selinger 2001-2017
</metadata>
<g transform="translate(0.000000,340.000000) scale(0.100000,-0.100000)"
fill="#000000" stroke="none">
<path d="M1341 2375 c-11 -68 -19 -86 -70 -158 -32 -45 -86 -128 -121 -184
-34 -57 -63 -103 -64 -103 -1 0 -19 9 -41 20 -37 19 -95 27 -107 14 -4 -3 11
-38 32 -77 77 -144 124 -345 118 -509 l-3 -80 -150 -52 c-82 -29 -183 -67
-224 -84 -40 -18 -84 -32 -96 -32 -30 0 -39 -14 -25 -40 26 -48 254 -8 424 76
85 42 84 46 45 -201 -32 -198 -85 -391 -178 -647 -26 -71 -26 -88 -2 -88 34 0
158 268 221 480 35 118 75 327 86 442 l7 77 71 16 c85 19 212 70 280 112 l48
30 -23 17 c-42 29 -90 21 -351 -60 -17 -5 -18 5 -18 118 0 124 -17 263 -44
350 l-14 47 47 6 c25 3 96 16 156 30 61 13 142 27 181 31 l71 7 7 -184 c14
-370 26 -870 26 -1102 l0 -239 -32 22 c-93 61 -130 62 -136 6 -4 -35 75 -156
121 -185 41 -25 113 -28 145 -5 20 14 22 24 22 102 0 48 -7 182 -14 297 -25
350 -30 666 -16 1002 13 338 11 365 -37 403 -48 37 -83 36 -205 -10 -62 -24
-151 -60 -197 -81 -46 -22 -86 -37 -88 -35 -3 2 34 46 82 97 99 106 153 182
197 274 22 48 27 68 20 82 -20 36 -61 65 -99 70 l-39 5 -13 -77z"/>
<path d="M2237 2193 c-4 -3 -7 -40 -7 -80 0 -70 -3 -79 -47 -156 -58 -102
-127 -206 -210 -319 l-64 -86 -35 10 c-36 9 -64 -1 -64 -25 0 -5 20 -44 44
-86 101 -177 134 -309 146 -596 8 -188 15 -243 41 -323 10 -32 14 -34 48 -29
20 2 92 12 161 21 106 13 157 25 283 63 35 11 5 67 -41 77 -41 10 -239 -19
-305 -44 -32 -12 -60 -20 -62 -18 -3 3 -31 263 -40 384 l-6 80 128 1 c127 0
237 20 311 55 38 19 43 64 8 80 -22 9 -60 5 -219 -25 -107 -20 -200 -39 -209
-42 -12 -5 -16 7 -22 62 -9 86 -29 167 -63 243 -14 33 -23 63 -20 67 4 3 35 7
69 9 35 1 99 11 143 23 119 30 350 71 401 71 96 0 114 -32 114 -207 0 -235
-41 -705 -69 -787 -11 -36 -25 -54 -46 -66 -44 -24 -46 -76 -6 -139 37 -57 70
-76 106 -59 53 24 58 48 85 418 12 162 43 464 66 643 11 90 12 127 4 160 -17
62 -55 114 -102 138 -38 19 -53 21 -130 15 -161 -11 -409 -75 -530 -137 -21
-11 -38 -15 -38 -11 0 15 50 84 96 134 56 61 145 196 191 293 33 71 35 79 24
116 -8 27 -23 46 -44 59 -32 20 -77 26 -90 13z"/>
<path d="M1250 1693 c0 -21 15 -47 51 -89 86 -101 104 -114 154 -114 24 0 46
4 50 9 12 20 -18 101 -51 139 -37 43 -84 66 -157 77 l-47 7 0 -29z"/>
<path d="M1282 1128 c-19 -19 -14 -62 13 -102 14 -21 34 -55 45 -76 26 -51 79
-90 131 -97 l42 -6 -7 57 c-3 32 -15 74 -25 95 -23 45 -91 108 -137 127 -41
17 -47 17 -62 2z"/>
</g>
</svg>
