<?xml version="1.0" standalone="no"?>
<!DOCTYPE svg PUBLIC "-//W3C//DTD SVG 20010904//EN"
 "http://www.w3.org/TR/2001/REC-SVG-20010904/DTD/svg10.dtd">
<svg version="1.0" xmlns="http://www.w3.org/2000/svg"
 width="340.000000pt" height="340.000000pt" viewBox="0 0 340.000000 340.000000"
 preserveAspectRatio="xMidYMid meet">
<metadata>
Created by potrace 1.15, written by Peter Selinger 2001-2017
</metadata>
<g transform="translate(0.000000,340.000000) scale(0.100000,-0.100000)"
fill="#000000" stroke="none">
<path d="M1933 2543 c-13 -19 -19 -57 -24 -132 -6 -106 -25 -211 -37 -211 -4
0 -99 -16 -212 -35 -113 -19 -215 -35 -226 -35 -18 0 -22 7 -27 45 -8 73 -61
171 -115 211 -51 37 -97 42 -115 13 -8 -13 -1 -32 31 -86 35 -58 71 -164 72
-215 0 -8 -221 -61 -359 -86 -52 -9 -96 -22 -98 -28 -2 -7 4 -20 14 -29 23
-23 122 -17 298 21 173 36 168 36 175 -6 8 -44 21 -68 54 -99 16 -15 30 -21
35 -15 17 18 31 78 31 129 l0 53 138 26 c75 14 169 30 209 34 l72 8 -6 -43
c-6 -46 12 -126 32 -143 19 -16 64 48 92 129 l22 66 199 5 c178 4 202 7 221
24 26 24 27 40 0 67 -20 20 -29 21 -205 17 -118 -2 -184 1 -184 7 0 6 7 28 15
50 19 54 19 161 -1 218 -17 52 -17 51 -56 61 -22 5 -31 1 -45 -21z"/>
<path d="M1870 1813 c-9 -2 -27 -23 -41 -46 -25 -41 -28 -43 -165 -85 -190
-60 -474 -173 -474 -189 0 -7 11 -18 24 -24 18 -8 52 -5 151 15 71 14 137 26
147 26 13 0 27 -17 45 -56 21 -46 26 -75 30 -175 4 -67 2 -119 -3 -119 -5 0
-166 -27 -359 -61 -192 -33 -403 -64 -468 -68 -65 -4 -123 -13 -129 -19 -8 -8
-2 -20 25 -46 69 -65 230 -79 368 -33 165 56 553 138 569 120 11 -10 30 -334
30 -507 1 -171 22 -375 41 -387 22 -14 37 -11 48 10 6 11 13 201 17 474 l7
455 29 6 c58 12 326 35 468 41 80 3 216 1 303 -4 185 -12 197 -9 197 49 0 21
-4 41 -9 44 -5 3 -42 13 -82 21 -96 21 -274 21 -370 0 -58 -12 -488 -65 -530
-65 -5 0 -9 33 -9 73 0 76 -27 203 -54 255 l-16 30 53 12 c77 18 196 66 250
100 44 27 46 31 40 62 -8 44 -20 66 -41 76 -22 12 -73 20 -92 15z"/>
</g>
</svg>
