<?xml version="1.0" standalone="no"?>
<!DOCTYPE svg PUBLIC "-//W3C//DTD SVG 20010904//EN"
 "http://www.w3.org/TR/2001/REC-SVG-20010904/DTD/svg10.dtd">
<svg version="1.0" xmlns="http://www.w3.org/2000/svg"
 width="340.000000pt" height="340.000000pt" viewBox="0 0 340.000000 340.000000"
 preserveAspectRatio="xMidYMid meet">
<metadata>
Created by potrace 1.15, written by Peter Selinger 2001-2017
</metadata>
<g transform="translate(0.000000,340.000000) scale(0.100000,-0.100000)"
fill="#000000" stroke="none">
<path d="M2027 2340 c-30 -24 -34 -48 -13 -89 13 -25 12 -37 -10 -127 -14 -54
-31 -122 -39 -150 l-15 -51 -132 -11 c-116 -11 -215 -23 -363 -47 l-40 -7 -17
82 c-30 145 -119 302 -181 318 -38 11 -54 6 -68 -19 -8 -15 1 -41 41 -122 49
-99 102 -269 88 -283 -15 -14 -504 -101 -546 -97 -41 5 -72 -8 -72 -29 0 -5
26 -21 58 -36 78 -37 147 -34 347 13 88 21 180 40 205 42 42 4 46 2 62 -27 20
-35 38 -45 71 -36 19 4 23 12 23 41 0 19 7 43 16 52 24 24 445 99 462 82 2 -2
0 -24 -4 -49 -10 -49 0 -103 24 -135 14 -19 16 -19 45 15 17 19 46 67 66 106
32 64 40 73 70 78 58 11 339 8 439 -4 52 -7 107 -9 121 -6 29 7 45 40 38 77
-11 56 -203 87 -338 54 -38 -9 -117 -19 -174 -22 -100 -6 -104 -5 -96 13 25
61 56 172 61 222 3 31 7 67 10 79 6 30 -41 81 -81 89 -22 4 -38 0 -58 -16z"/>
<path d="M1567 1672 c-24 -26 -21 -74 5 -107 20 -26 22 -42 26 -176 l4 -148
-38 -6 c-47 -7 -301 -70 -328 -81 -18 -7 -18 -3 -10 72 4 43 7 98 6 122 -4 80
-47 132 -110 132 -33 0 -33 0 -25 -37 4 -21 8 -77 7 -124 -1 -70 -6 -96 -28
-144 -34 -74 -34 -124 -2 -154 24 -22 28 -23 90 -12 86 15 246 62 326 95 96
40 97 41 113 14 13 -20 15 -65 10 -320 l-6 -297 -51 -12 c-28 -6 -120 -31
-205 -56 -84 -24 -155 -42 -156 -41 -3 4 18 96 40 178 27 102 3 250 -42 250
-36 0 -43 -15 -47 -96 -4 -65 -15 -107 -61 -236 -56 -153 -57 -159 -41 -183
10 -14 31 -35 49 -46 43 -27 111 -20 197 19 212 97 447 154 710 172 74 5 149
12 166 15 42 9 60 -11 67 -74 8 -68 32 -107 81 -131 l41 -20 9 23 c18 44 12
198 -11 272 -12 39 -29 96 -37 127 -21 71 -84 144 -154 177 -52 25 -82 23 -82
-4 0 -9 25 -67 56 -130 31 -62 54 -120 52 -127 -4 -10 -65 -20 -218 -37 -116
-12 -215 -20 -218 -16 -4 4 -7 149 -7 323 l0 317 35 3 c63 5 196 32 254 51
l56 18 -6 -32 c-8 -44 18 -105 46 -105 11 0 38 17 60 38 35 32 43 50 66 137
34 130 31 217 -12 294 -32 60 -64 79 -102 61 -24 -10 -24 -13 -16 -73 10 -74
8 -154 -6 -223 l-11 -51 -127 5 c-70 2 -150 0 -178 -5 l-51 -10 -6 101 c-8
166 -69 308 -133 314 -20 2 -36 -4 -47 -16z"/>
</g>
</svg>
