<?xml version="1.0" standalone="no"?>
<!DOCTYPE svg PUBLIC "-//W3C//DTD SVG 20010904//EN"
 "http://www.w3.org/TR/2001/REC-SVG-20010904/DTD/svg10.dtd">
<svg version="1.0" xmlns="http://www.w3.org/2000/svg"
 width="340.000000pt" height="340.000000pt" viewBox="0 0 340.000000 340.000000"
 preserveAspectRatio="xMidYMid meet">
<metadata>
Created by potrace 1.15, written by Peter Selinger 2001-2017
</metadata>
<g transform="translate(0.000000,340.000000) scale(0.100000,-0.100000)"
fill="#000000" stroke="none">
<path d="M2034 2342 c-25 -16 -34 -49 -22 -83 10 -28 6 -47 -28 -152 -29 -89
-44 -121 -59 -127 -11 -4 -60 -10 -110 -14 -49 -4 -155 -16 -235 -27 -80 -10
-150 -19 -156 -19 -7 0 -19 39 -28 93 -29 162 -63 218 -141 233 -42 8 -85 -2
-85 -19 0 -6 20 -51 44 -99 43 -86 75 -204 59 -218 -15 -13 -527 -90 -600 -90
-67 0 -73 -2 -73 -20 0 -34 60 -90 108 -101 63 -14 202 5 330 45 61 19 144 41
186 49 l75 14 11 -52 c11 -53 61 -145 79 -145 16 0 41 99 41 161 l0 58 53 10
c78 15 199 29 320 37 l107 7 -18 -44 c-31 -73 -56 -219 -37 -219 3 0 19 10 35
22 37 27 73 80 90 133 7 22 21 57 32 79 l20 39 349 -5 c248 -3 354 -1 365 7
11 7 14 24 12 50 l-3 40 -85 18 c-112 23 -313 25 -442 3 -54 -9 -112 -16 -128
-16 l-31 0 25 43 c59 100 72 261 25 300 -22 17 -65 22 -85 9z"/>
<path d="M1890 1563 c-113 -19 -328 -53 -479 -77 -211 -32 -277 -46 -285 -59
-6 -9 -8 -18 -5 -21 9 -10 135 -26 200 -26 l66 0 17 -58 c9 -32 16 -90 16
-129 l0 -70 -152 -32 c-292 -60 -323 -64 -383 -46 -117 34 -131 14 -60 -80
108 -141 197 -378 211 -558 3 -45 13 -93 21 -106 14 -23 18 -23 97 -16 109 9
345 39 546 69 91 14 212 30 270 35 105 10 194 33 207 54 3 5 -6 21 -22 34 -27
24 -30 24 -169 18 -280 -13 -530 -51 -739 -113 l-98 -29 -13 26 c-7 14 -16 76
-19 136 -7 131 -42 279 -92 382 -19 40 -31 73 -27 73 4 0 99 14 212 30 113 17
206 30 207 30 1 0 -5 -27 -13 -60 -18 -79 -57 -172 -100 -243 -49 -80 -31
-126 37 -91 31 15 107 112 139 175 23 45 57 151 65 206 6 38 10 44 43 53 21 5
61 10 90 10 l52 0 0 -72 c0 -89 11 -129 50 -191 36 -57 106 -104 169 -113 60
-9 144 9 193 41 37 25 38 26 24 54 -20 38 -65 55 -126 48 -59 -7 -103 8 -142
50 -36 37 -48 73 -48 138 0 43 4 56 19 64 10 6 79 15 154 22 158 14 405 -1
445 -27 27 -18 27 -34 2 -137 -43 -169 -94 -312 -168 -469 l-55 -118 -53 6
c-66 8 -104 -1 -104 -24 0 -80 56 -146 137 -162 49 -11 56 -10 68 7 29 38 127
235 150 300 13 38 42 112 64 166 41 99 87 246 116 371 l15 68 -33 47 c-43 61
-120 101 -194 101 -29 0 -144 -11 -256 -25 -111 -13 -224 -26 -252 -27 l-49
-3 -8 54 c-6 40 -4 67 6 100 8 25 16 59 18 74 l3 29 85 3 c85 3 189 30 238 61
17 11 21 21 16 37 -16 57 -42 58 -324 10z m-161 -157 c7 -9 9 -47 4 -119 -5
-85 -9 -108 -22 -111 -22 -7 -144 -26 -147 -23 -1 1 -7 45 -13 97 -6 52 -14
109 -17 127 -6 31 -5 32 33 36 90 9 151 7 162 -7z"/>
</g>
</svg>
