<?xml version="1.0" standalone="no"?>
<!DOCTYPE svg PUBLIC "-//W3C//DTD SVG 20010904//EN"
 "http://www.w3.org/TR/2001/REC-SVG-20010904/DTD/svg10.dtd">
<svg version="1.0" xmlns="http://www.w3.org/2000/svg"
 width="340.000000pt" height="340.000000pt" viewBox="0 0 340.000000 340.000000"
 preserveAspectRatio="xMidYMid meet">
<metadata>
Created by potrace 1.15, written by Peter Selinger 2001-2017
</metadata>
<g transform="translate(0.000000,340.000000) scale(0.100000,-0.100000)"
fill="#000000" stroke="none">
<path d="M1944 2559 c-10 -21 -16 -63 -18 -128 -2 -59 -9 -110 -18 -132 l-15
-35 -139 -17 c-120 -15 -303 -47 -355 -63 -12 -3 -18 10 -28 62 -6 37 -20 83
-31 103 -47 92 -192 171 -213 117 -3 -7 15 -46 39 -87 52 -86 93 -207 75 -218
-28 -18 -467 -91 -543 -91 -32 0 -38 -3 -38 -21 0 -34 51 -76 102 -84 63 -9
213 11 328 45 52 16 116 31 141 35 44 7 46 6 58 -24 20 -47 36 -56 66 -37 14
9 25 25 25 36 0 44 22 70 72 85 127 37 408 85 408 69 0 -5 -9 -52 -20 -104
-21 -103 -19 -130 10 -130 24 0 48 35 110 158 l50 100 47 7 c27 4 179 11 338
14 l290 6 3 36 c5 57 -22 73 -126 78 -113 4 -383 -26 -473 -54 -8 -3 -23 1
-33 8 -17 12 -17 16 3 75 25 74 26 103 5 148 -15 32 -68 74 -92 74 -7 0 -19
-14 -28 -31z"/>
<path d="M2065 1891 c-71 -26 -170 -65 -219 -85 -57 -24 -98 -35 -112 -32 -37
10 -44 -18 -34 -120 23 -216 6 -524 -41 -741 -28 -130 -90 -316 -145 -434 -36
-76 -45 -104 -42 -138 l3 -43 49 43 c75 66 176 285 241 525 2 6 43 14 96 18
112 8 236 31 255 47 21 17 17 56 -7 80 -20 20 -29 21 -103 16 -49 -3 -109 -16
-151 -31 -38 -14 -70 -24 -71 -23 -2 3 26 301 31 323 4 17 19 24 85 37 77 15
183 58 225 92 25 20 13 42 -36 68 -46 24 -82 16 -188 -40 l-86 -45 -7 113 c-3
63 -11 130 -17 149 -6 19 -11 38 -11 42 0 9 190 53 335 78 120 21 120 21 136
1 10 -12 17 -41 18 -74 0 -30 10 -202 21 -383 12 -181 24 -466 27 -633 l6
-305 -38 38 c-42 43 -106 75 -147 76 -26 0 -26 -1 -16 -37 22 -85 101 -179
187 -222 58 -30 87 -27 128 14 31 31 34 38 29 77 -7 55 -23 258 -37 468 -6 91
-12 327 -15 525 -5 383 -10 425 -59 532 -20 44 -29 53 -62 62 -62 18 -91 13
-228 -38z"/>
<path d="M1279 1861 c-59 -26 -133 -63 -165 -81 -160 -90 -244 -144 -241 -154
8 -25 64 -14 222 43 167 61 195 69 195 52 0 -4 -22 -38 -49 -74 -55 -75 -76
-136 -69 -204 4 -42 49 -148 129 -305 l18 -36 -57 5 c-73 6 -112 -8 -112 -41
0 -44 45 -84 119 -106 119 -35 169 -23 191 46 27 81 -35 221 -150 335 l-77 77
32 43 c185 255 235 335 235 371 0 50 -28 78 -77 78 -24 0 -78 -18 -144 -49z"/>
<path d="M927 1527 c-5 -12 1 -56 21 -152 37 -180 47 -737 19 -989 -20 -184
-8 -227 60 -210 35 8 39 12 45 54 4 25 13 191 19 370 16 436 2 768 -36 846
-17 35 -36 57 -64 72 -45 25 -57 27 -64 9z"/>
</g>
</svg>
