<?xml version="1.0" standalone="no"?>
<!DOCTYPE svg PUBLIC "-//W3C//DTD SVG 20010904//EN"
 "http://www.w3.org/TR/2001/REC-SVG-20010904/DTD/svg10.dtd">
<svg version="1.0" xmlns="http://www.w3.org/2000/svg"
 width="340.000000pt" height="340.000000pt" viewBox="0 0 340.000000 340.000000"
 preserveAspectRatio="xMidYMid meet">
<metadata>
Created by potrace 1.15, written by Peter Selinger 2001-2017
</metadata>
<g transform="translate(0.000000,340.000000) scale(0.100000,-0.100000)"
fill="#000000" stroke="none">
<path d="M1955 2600 c-20 -38 -19 -81 2 -125 16 -33 16 -39 -1 -111 -10 -41
-29 -111 -42 -154 -28 -90 -8 -79 -184 -100 -52 -6 -146 -20 -209 -31 -85 -15
-116 -17 -121 -9 -4 7 -10 38 -13 70 -11 106 -80 259 -154 346 -35 42 -123 38
-123 -5 0 -10 18 -50 40 -87 44 -75 95 -221 106 -302 l6 -51 -38 -10 c-22 -5
-59 -15 -83 -21 -24 -6 -149 -27 -278 -45 -129 -18 -237 -36 -240 -39 -4 -3
15 -26 40 -51 44 -41 52 -45 98 -45 78 0 250 28 379 62 63 16 122 31 129 32 8
0 26 -18 39 -41 19 -35 29 -43 52 -43 35 0 43 11 50 70 4 35 10 47 30 56 32
16 230 51 334 60 75 6 79 6 71 -12 -27 -66 -30 -174 -5 -174 24 0 89 75 114
130 44 98 31 95 397 95 296 1 319 2 338 19 28 25 26 57 -4 86 -24 23 -27 23
-187 17 -90 -4 -223 -16 -297 -27 -132 -19 -171 -17 -171 11 0 6 13 47 29 92
67 191 64 236 -22 318 -28 27 -55 49 -59 49 -4 0 -14 -13 -23 -30z"/>
<path d="M1166 1804 c-9 -8 -16 -29 -16 -45 0 -60 -89 -175 -289 -375 -102
-102 -151 -159 -151 -173 0 -30 26 -77 45 -85 31 -11 95 -6 167 14 78 22 198
37 198 26 0 -4 -33 -47 -73 -94 -174 -208 -217 -268 -217 -305 0 -47 39 -81
84 -71 38 7 473 238 504 267 26 24 26 60 -1 65 -23 5 -188 -50 -286 -95 -41
-18 -76 -32 -78 -29 -8 7 184 238 370 445 90 100 108 160 63 206 -58 58 -144
36 -132 -35 5 -32 -2 -45 -71 -138 l-75 -103 -62 5 c-33 4 -97 2 -141 -2 -44
-5 -82 -7 -84 -6 -2 2 52 61 120 132 168 171 259 285 259 324 0 64 -93 114
-134 72z"/>
<path d="M1763 1768 c-29 -14 -38 -43 -23 -78 16 -38 -12 -100 -84 -189 -68
-85 -135 -182 -182 -267 -36 -64 -36 -67 -19 -80 39 -29 59 -14 184 135 l92
109 167 6 c92 4 199 12 239 18 77 11 184 4 223 -15 30 -15 48 -71 49 -151 1
-71 -78 -392 -149 -606 -49 -144 -118 -320 -127 -320 -22 0 -120 60 -170 104
-85 74 -151 88 -134 28 18 -61 55 -116 124 -184 93 -91 121 -108 177 -108 76
0 97 21 146 145 107 271 265 808 280 954 13 119 -54 239 -151 271 -78 26 -338
-8 -533 -69 -50 -16 -92 -27 -92 -24 0 14 33 62 60 88 75 70 90 152 39 210
-33 37 -71 45 -116 23z"/>
<path d="M1654 1115 c-8 -31 5 -47 72 -90 28 -18 94 -74 146 -124 102 -97 129
-109 176 -75 61 42 -17 167 -158 251 -46 27 -112 49 -177 57 -50 6 -53 6 -59
-19z"/>
<path d="M1315 640 c-157 -85 -511 -250 -536 -250 -55 0 -77 -49 -44 -97 29
-41 65 -38 181 11 174 75 383 205 481 299 71 68 82 82 66 88 -29 12 -33 11
-148 -51z"/>
</g>
</svg>
