<?xml version="1.0" standalone="no"?>
<!DOCTYPE svg PUBLIC "-//W3C//DTD SVG 20010904//EN"
 "http://www.w3.org/TR/2001/REC-SVG-20010904/DTD/svg10.dtd">
<svg version="1.0" xmlns="http://www.w3.org/2000/svg"
 width="340.000000pt" height="340.000000pt" viewBox="0 0 340.000000 340.000000"
 preserveAspectRatio="xMidYMid meet">
<metadata>
Created by potrace 1.15, written by Peter Selinger 2001-2017
</metadata>
<g transform="translate(0.000000,340.000000) scale(0.100000,-0.100000)"
fill="#000000" stroke="none">
<path d="M1903 2582 c-25 -16 -31 -56 -16 -102 15 -44 15 -44 -32 -162 -52
-132 -41 -123 -165 -133 -41 -4 -126 -15 -188 -26 -63 -10 -117 -17 -122 -14
-4 2 -9 33 -12 68 -12 150 -131 271 -233 237 l-35 -11 39 -52 c48 -64 62 -93
90 -181 19 -60 20 -71 8 -83 -21 -22 -501 -116 -560 -110 -39 3 -50 1 -58 -15
-8 -15 -5 -20 17 -28 58 -23 273 -5 488 40 133 27 130 28 144 -24 14 -53 68
-112 87 -96 17 14 37 98 33 135 -3 26 0 29 52 41 69 16 299 49 304 43 2 -2 -7
-37 -20 -77 -16 -46 -24 -90 -22 -118 l3 -45 37 28 c50 38 77 74 104 142 32
80 51 91 180 102 121 11 240 6 415 -18 133 -18 171 -10 177 38 6 50 -23 67
-130 79 -131 14 -217 13 -382 -5 -77 -8 -142 -12 -145 -9 -3 3 1 15 9 27 8 12
25 42 37 66 35 67 29 176 -12 242 -11 18 -74 33 -92 21z"/>
<path d="M1638 1793 c-26 -7 -22 -29 10 -51 73 -52 272 -132 328 -132 17 0 25
7 30 25 12 49 -3 75 -59 100 -82 38 -261 71 -309 58z"/>
<path d="M1130 1769 c-34 -14 -39 -26 -27 -65 8 -26 7 -43 -5 -73 -19 -48
-240 -340 -421 -557 -147 -176 -157 -190 -157 -229 l0 -26 46 32 c85 58 194
160 276 258 100 119 165 191 171 191 3 0 8 -71 12 -157 10 -241 -20 -726 -51
-821 -16 -50 -18 -94 -4 -142 19 -66 25 -69 65 -30 47 46 60 97 77 300 17 212
16 806 -1 870 -7 25 -15 54 -17 65 -4 14 8 35 41 70 61 65 102 137 115 202 14
67 6 91 -36 109 -38 16 -50 16 -84 3z"/>
<path d="M2185 1550 c-99 -22 -317 -64 -485 -95 -168 -31 -311 -59 -319 -61
-11 -4 -10 -9 5 -25 18 -20 26 -21 120 -15 108 6 401 46 530 71 43 9 124 20
179 25 106 9 182 30 228 62 31 22 34 40 11 62 -22 23 -67 19 -269 -24z"/>
<path d="M2097 1333 c-14 -13 -7 -56 14 -90 36 -58 24 -107 -74 -305 -48 -95
-104 -200 -125 -234 l-39 -60 -99 -13 c-198 -25 -564 -98 -581 -114 -10 -11
17 -35 46 -42 14 -3 105 8 201 24 452 76 928 101 1223 62 l138 -18 20 26 c49
62 4 96 -156 117 -137 18 -435 15 -568 -6 -43 -7 -81 -10 -84 -6 -3 3 33 63
80 133 98 147 117 183 145 273 31 101 37 166 18 194 -27 42 -136 82 -159 59z"/>
<path d="M1530 1110 c0 -16 9 -56 19 -87 11 -32 22 -79 25 -106 9 -74 77 -187
112 -187 23 0 54 61 54 105 0 84 -107 251 -188 294 -20 11 -22 9 -22 -19z"/>
</g>
</svg>
