<?xml version="1.0" standalone="no"?>
<!DOCTYPE svg PUBLIC "-//W3C//DTD SVG 20010904//EN"
 "http://www.w3.org/TR/2001/REC-SVG-20010904/DTD/svg10.dtd">
<svg version="1.0" xmlns="http://www.w3.org/2000/svg"
 width="340.000000pt" height="340.000000pt" viewBox="0 0 340.000000 340.000000"
 preserveAspectRatio="xMidYMid meet">
<metadata>
Created by potrace 1.15, written by Peter Selinger 2001-2017
</metadata>
<g transform="translate(0.000000,340.000000) scale(0.100000,-0.100000)"
fill="#000000" stroke="none">
<path d="M2132 2667 c-9 -10 -5 -22 13 -50 14 -20 25 -47 25 -60 0 -13 -24
-62 -52 -109 -88 -142 -57 -126 -299 -159 -118 -15 -219 -29 -225 -29 -6 0
-14 21 -18 48 -12 90 -37 144 -90 198 -55 55 -108 74 -146 54 -29 -15 -25 -29
24 -104 41 -60 97 -199 85 -210 -3 -3 -111 -28 -241 -56 -179 -38 -258 -51
-323 -51 -98 0 -116 -5 -108 -25 17 -46 269 -66 388 -30 33 10 113 28 178 41
l118 22 13 -32 c16 -38 51 -65 83 -65 17 0 24 8 32 38 6 20 11 48 11 62 0 25
1 26 182 52 101 15 184 26 185 24 2 -1 -6 -29 -17 -62 -26 -79 -26 -94 4 -94
17 0 46 25 104 89 l81 89 163 6 c90 4 228 2 308 -3 129 -9 149 -8 180 7 40 19
64 67 41 82 -28 16 -130 32 -177 26 -83 -9 -435 -28 -440 -23 -3 3 10 29 29
58 52 83 77 135 77 166 0 38 -34 91 -66 103 -37 14 -110 12 -122 -3z"/>
<path d="M2466 2047 c-32 -32 -32 -51 -5 -97 21 -35 22 -41 27 -847 3 -447 2
-813 -2 -813 -4 0 -38 16 -77 36 -77 40 -99 39 -99 -5 0 -58 139 -210 208
-228 34 -8 71 7 95 40 21 27 21 31 9 226 -33 541 -37 871 -16 1462 l7 176 -29
31 c-41 45 -85 52 -118 19z"/>
<path d="M1441 1956 c-7 -8 -11 -22 -9 -30 2 -12 -19 -26 -75 -50 -96 -42
-203 -103 -280 -159 l-57 -42 22 -19 c28 -23 71 -18 163 19 37 14 71 23 75 18
12 -13 60 -185 60 -214 0 -15 -7 -32 -15 -39 -9 -7 -96 -45 -193 -85 -97 -39
-241 -102 -319 -138 -89 -43 -154 -67 -176 -67 -20 0 -45 -8 -58 -19 -40 -33
-13 -46 94 -46 l92 0 130 62 c150 71 376 165 382 159 9 -9 -37 -94 -92 -171
-95 -132 -198 -255 -331 -394 -69 -72 -124 -137 -121 -144 2 -7 14 -13 28 -15
52 -6 323 243 473 436 47 60 83 99 89 93 5 -5 12 -24 16 -43 9 -37 -3 -392
-19 -575 -8 -99 -12 -114 -35 -137 -56 -56 -17 -176 58 -176 46 0 54 9 72 75
13 47 17 127 20 370 3 171 8 327 12 347 l8 37 58 -39 c52 -35 166 -80 203 -80
10 0 14 13 14 46 0 40 -5 51 -36 80 -19 19 -40 34 -46 34 -8 0 -100 55 -196
116 -2 1 -1 48 3 103 l8 100 56 17 c43 12 67 27 104 66 27 27 46 55 44 61 -7
22 -105 20 -143 -2 -44 -26 -44 -26 -44 7 0 58 -31 136 -71 175 l-38 38 37 16
c127 53 161 72 176 102 23 43 20 68 -10 96 -21 19 -38 25 -74 25 -29 0 -52 -6
-59 -14z"/>
<path d="M1901 1631 c-8 -15 -5 -26 19 -55 60 -76 96 -324 79 -540 -6 -71 -8
-140 -4 -153 5 -21 68 -63 79 -52 33 34 61 502 36 619 -15 72 -68 171 -101
187 -38 20 -96 16 -108 -6z"/>
</g>
</svg>
