<?xml version="1.0" standalone="no"?>
<!DOCTYPE svg PUBLIC "-//W3C//DTD SVG 20010904//EN"
 "http://www.w3.org/TR/2001/REC-SVG-20010904/DTD/svg10.dtd">
<svg version="1.0" xmlns="http://www.w3.org/2000/svg"
 width="340.000000pt" height="340.000000pt" viewBox="0 0 340.000000 340.000000"
 preserveAspectRatio="xMidYMid meet">
<metadata>
Created by potrace 1.15, written by Peter Selinger 2001-2017
</metadata>
<g transform="translate(0.000000,340.000000) scale(0.100000,-0.100000)"
fill="#000000" stroke="none">
<path d="M1986 2551 c-19 -21 -21 -72 -5 -116 10 -26 6 -49 -23 -155 l-34
-125 -90 -7 c-49 -4 -153 -17 -232 -28 -79 -11 -147 -18 -153 -15 -5 4 -9 20
-9 37 0 49 -29 139 -58 183 -32 45 -102 102 -139 111 -32 8 -73 -11 -73 -34 0
-9 18 -41 39 -70 41 -55 91 -185 91 -238 l0 -32 -112 -21 c-140 -26 -296 -48
-410 -57 -108 -8 -118 -14 -98 -51 11 -21 33 -34 80 -51 86 -30 225 -27 315 7
33 13 101 35 150 51 l90 27 6 -42 c8 -51 29 -92 62 -123 20 -19 26 -20 35 -9
22 26 42 100 42 152 l0 53 48 10 c96 21 382 58 382 50 0 -3 -7 -26 -16 -52
-17 -50 -15 -129 4 -148 8 -8 21 -4 47 13 32 22 49 50 99 159 19 42 51 52 144
44 45 -3 161 -3 258 1 l176 8 15 34 c12 31 12 38 -1 58 -9 14 -30 27 -50 30
-18 4 -136 0 -262 -8 -126 -8 -230 -14 -231 -13 -2 1 7 27 19 57 17 42 22 76
22 156 1 97 0 104 -24 128 -37 36 -84 48 -104 26z"/>
<path d="M1823 1800 c-12 -5 -24 -18 -28 -29 -5 -18 0 -32 42 -105 9 -15 13
-110 13 -363 l0 -342 26 -20 c35 -28 50 -26 79 5 l25 27 0 371 c0 350 -1 373
-20 403 -31 52 -86 73 -137 53z"/>
<path d="M934 1656 c-12 -31 3 -51 76 -101 87 -59 125 -75 188 -75 l45 0 -6
40 c-11 83 -50 113 -180 136 -102 18 -116 18 -123 0z"/>
<path d="M2146 1578 c13 -43 14 -44 194 -113 52 -21 141 -61 197 -91 121 -64
169 -70 202 -28 12 15 21 32 21 39 0 18 -78 104 -110 120 -75 39 -352 95 -468
95 -40 0 -43 -2 -36 -22z"/>
<path d="M1484 1483 c-15 -38 -40 -97 -55 -133 -39 -93 -49 -136 -49 -212 0
-61 2 -68 20 -68 31 0 68 21 86 49 33 49 74 210 74 285 0 82 -15 146 -34 146
-8 0 -26 -30 -42 -67z"/>
<path d="M2200 1371 c-13 -26 -13 -57 2 -97 11 -30 8 -36 -57 -135 -140 -214
-276 -378 -472 -570 -142 -139 -280 -257 -332 -284 -65 -33 -166 -144 -147
-162 6 -6 100 28 159 58 203 102 570 449 877 829 114 141 139 198 121 267 -14
53 -38 83 -77 99 -45 19 -61 18 -74 -5z"/>
<path d="M748 1249 c-16 -6 -28 -17 -28 -25 0 -31 284 -144 361 -144 20 0 29
20 29 64 0 46 -18 65 -85 87 -70 24 -236 34 -277 18z"/>
<path d="M1143 868 c-91 -94 -192 -220 -222 -276 -10 -19 -17 -21 -50 -16 -34
5 -41 3 -51 -16 -19 -35 -7 -116 20 -145 67 -71 148 2 298 270 43 77 132 266
132 280 0 22 -42 -11 -127 -97z"/>
</g>
</svg>
