<?xml version="1.0" standalone="no"?>
<!DOCTYPE svg PUBLIC "-//W3C//DTD SVG 20010904//EN"
 "http://www.w3.org/TR/2001/REC-SVG-20010904/DTD/svg10.dtd">
<svg version="1.0" xmlns="http://www.w3.org/2000/svg"
 width="340.000000pt" height="340.000000pt" viewBox="0 0 340.000000 340.000000"
 preserveAspectRatio="xMidYMid meet">
<metadata>
Created by potrace 1.15, written by Peter Selinger 2001-2017
</metadata>
<g transform="translate(0.000000,340.000000) scale(0.100000,-0.100000)"
fill="#000000" stroke="none">
<path d="M1972 2718 c-19 -19 -14 -72 9 -102 l21 -26 -38 -120 c-20 -66 -40
-120 -43 -120 -3 -1 -119 -15 -257 -33 l-252 -33 -6 51 c-15 114 -67 203 -151
255 -31 19 -39 20 -70 10 -50 -16 -48 -53 5 -110 37 -41 52 -70 81 -168 17
-57 6 -67 -97 -91 -103 -25 -317 -61 -360 -61 -66 0 -64 -63 2 -76 46 -8 264
20 382 50 l91 23 12 -29 c22 -53 99 -83 99 -38 0 38 28 78 62 89 58 19 210 42
317 48 l103 6 -8 -24 c-12 -34 -10 -97 4 -111 19 -19 82 39 117 106 l30 58
257 -4 258 -3 27 28 c32 32 26 50 -27 81 -31 18 -41 19 -224 7 -105 -7 -204
-15 -220 -18 -26 -5 -28 -4 -21 13 46 106 62 243 36 293 -21 38 -116 72 -139
49z"/>
<path d="M1235 2018 c-31 -17 -36 -30 -30 -71 6 -44 30 -18 -229 -251 -132
-119 -154 -142 -145 -158 26 -49 127 2 336 168 l91 73 99 -5 c88 -6 124 -1
353 40 140 26 279 51 309 56 82 15 126 67 86 100 -11 9 -35 11 -88 6 -108 -11
-290 -43 -397 -71 -52 -14 -138 -36 -189 -50 -52 -13 -97 -23 -99 -21 -2 2 4
18 12 35 9 16 16 48 16 71 0 71 -66 112 -125 78z"/>
<path d="M1775 1645 c-219 -52 -357 -93 -369 -110 -10 -14 -15 -14 -50 0 -77
32 -102 -5 -74 -109 14 -54 4 -106 -44 -227 -21 -54 -39 -84 -52 -89 -28 -12
-571 -87 -672 -94 -44 -3 -93 -10 -108 -15 -23 -9 -25 -13 -16 -32 6 -11 32
-33 56 -49 42 -26 51 -28 122 -23 134 8 303 33 431 64 68 16 125 29 127 29 28
0 -73 -169 -197 -327 -42 -53 -49 -69 -49 -106 0 -32 6 -49 23 -64 38 -36 75
-36 213 -4 259 60 431 81 674 81 93 0 170 -2 170 -4 0 -30 -103 -276 -116
-276 -2 0 -23 9 -45 20 -47 24 -76 19 -90 -16 -6 -18 -5 -34 7 -57 46 -91 119
-125 202 -96 30 10 34 19 65 118 19 59 47 156 63 215 l29 108 65 -7 c36 -4
115 -16 175 -27 138 -25 160 -26 185 -3 23 21 25 44 7 68 -14 20 -179 53 -314
64 -67 5 -83 9 -83 22 0 9 24 106 53 215 48 179 56 200 78 209 34 13 419 1
553 -17 115 -16 125 -14 147 27 17 30 2 63 -38 89 -37 23 -43 23 -288 23 -137
-1 -276 -6 -307 -11 l-58 -11 0 36 c0 20 7 65 16 101 17 73 12 132 -16 196
-56 128 -199 155 -475 89z m281 -103 c22 -9 52 -24 65 -33 l23 -16 -12 -111
c-7 -62 -16 -123 -21 -136 -11 -27 1 -25 -306 -56 -186 -19 -363 -42 -427 -56
-39 -8 -37 18 7 103 41 77 54 155 36 217 -6 22 -9 41 -8 42 1 1 74 9 162 19
88 9 189 22 225 29 94 19 207 18 256 -2z m14 -427 c11 -13 9 -35 -9 -123 -12
-59 -35 -152 -50 -207 l-28 -100 -119 -7 c-376 -23 -473 -30 -604 -47 -80 -11
-162 -22 -183 -26 l-38 -7 14 35 c32 76 229 392 249 400 44 16 310 56 448 67
120 10 201 18 296 29 6 0 17 -6 24 -14z"/>
<path d="M1560 1400 c0 -43 20 -77 79 -132 53 -51 75 -57 121 -33 35 18 36 26
11 80 -32 69 -102 115 -176 115 -32 0 -35 -2 -35 -30z"/>
<path d="M1462 998 c-22 -22 -13 -39 52 -103 69 -69 113 -89 181 -83 49 4 55
22 25 82 -26 55 -54 74 -133 91 -34 7 -73 16 -87 19 -15 4 -30 2 -38 -6z"/>
</g>
</svg>
