<?xml version="1.0" standalone="no"?>
<!DOCTYPE svg PUBLIC "-//W3C//DTD SVG 20010904//EN"
 "http://www.w3.org/TR/2001/REC-SVG-20010904/DTD/svg10.dtd">
<svg version="1.0" xmlns="http://www.w3.org/2000/svg"
 width="340.000000pt" height="340.000000pt" viewBox="0 0 340.000000 340.000000"
 preserveAspectRatio="xMidYMid meet">
<metadata>
Created by potrace 1.15, written by Peter Selinger 2001-2017
</metadata>
<g transform="translate(0.000000,340.000000) scale(0.100000,-0.100000)"
fill="#000000" stroke="none">
<path d="M1880 2534 c-13 -32 -13 -76 0 -108 8 -21 1 -48 -34 -144 l-44 -117
-183 -31 c-101 -17 -198 -34 -215 -38 l-30 -7 -18 83 c-34 162 -83 228 -168
228 -67 0 -75 -54 -19 -124 26 -33 58 -113 74 -184 6 -26 28 -19 -233 -71
-109 -22 -209 -37 -228 -34 -33 5 -62 -9 -62 -32 0 -18 44 -34 125 -47 82 -13
165 -3 274 32 35 11 83 20 107 20 38 0 44 -3 44 -20 0 -31 24 -82 55 -114 l27
-30 16 30 c8 16 17 62 20 101 l5 73 39 11 c58 15 184 36 265 44 l71 7 -19 -78
c-31 -125 -33 -143 -19 -159 7 -8 18 -15 25 -15 15 0 63 81 109 187 19 42 42
80 51 86 22 12 303 15 417 4 l88 -9 30 31 c29 29 30 31 17 63 l-13 33 -130 3
c-117 3 -257 -7 -344 -24 -30 -7 -33 -5 -25 12 52 120 69 248 41 303 -10 19
-31 38 -51 47 -47 19 -54 18 -65 -12z"/>
<path d="M1746 1757 c-31 -31 -32 -46 -5 -81 12 -15 25 -54 31 -93 10 -67 6
-302 -7 -334 -3 -9 -18 -22 -32 -28 -45 -20 -216 -62 -281 -68 -73 -7 -89 -25
-51 -56 21 -17 33 -18 104 -12 44 3 112 12 150 20 97 18 103 12 81 -86 -52
-231 -146 -412 -298 -575 -42 -45 -81 -91 -88 -104 -24 -45 -31 -5 -19 121 22
236 3 589 -47 867 l-17 93 24 16 c55 37 128 125 148 179 29 76 27 99 -8 114
-41 16 -68 5 -90 -38 -11 -20 -41 -58 -68 -84 l-48 -48 -35 48 c-51 68 -107
96 -194 96 -60 1 -71 -2 -74 -17 -2 -10 9 -28 30 -45 57 -47 117 -111 144
-154 l27 -42 -54 -45 c-83 -69 -239 -229 -293 -301 l-48 -65 26 -3 c38 -5 73
18 249 167 l156 131 7 -36 c16 -88 -52 -222 -240 -469 -63 -83 -250 -300 -279
-324 -25 -20 -22 -51 6 -51 58 0 366 297 491 473 38 54 70 96 72 94 10 -10 20
-289 13 -392 -7 -105 -40 -309 -52 -322 -3 -2 -22 7 -42 22 -43 28 -81 32
-112 10 -19 -13 -20 -19 -12 -44 22 -63 103 -131 185 -155 28 -9 90 48 107 98
12 35 19 40 58 51 94 23 154 79 265 246 35 52 84 138 108 190 38 83 97 247
108 304 3 14 20 -9 61 -82 123 -219 300 -467 393 -552 98 -90 207 -131 346
-131 75 0 79 1 90 26 18 38 1 55 -84 85 -105 37 -206 93 -298 166 -111 89
-180 173 -404 492 -64 91 -84 126 -75 132 47 29 319 77 478 86 111 6 126 9
152 30 33 28 37 53 11 76 -35 32 -198 18 -402 -34 -63 -16 -138 -32 -166 -35
l-51 -6 5 149 c4 129 2 160 -17 233 -24 94 -32 107 -78 116 -26 5 -37 1 -57
-19z"/>
<path d="M2124 1706 c-7 -19 11 -50 56 -95 44 -44 83 -62 148 -68 l55 -6 -7
44 c-13 85 -63 122 -179 134 -56 5 -68 4 -73 -9z"/>
</g>
</svg>
