<?xml version="1.0" standalone="no"?>
<!DOCTYPE svg PUBLIC "-//W3C//DTD SVG 20010904//EN"
 "http://www.w3.org/TR/2001/REC-SVG-20010904/DTD/svg10.dtd">
<svg version="1.0" xmlns="http://www.w3.org/2000/svg"
 width="340.000000pt" height="340.000000pt" viewBox="0 0 340.000000 340.000000"
 preserveAspectRatio="xMidYMid meet">
<metadata>
Created by potrace 1.15, written by Peter Selinger 2001-2017
</metadata>
<g transform="translate(0.000000,340.000000) scale(0.100000,-0.100000)"
fill="#000000" stroke="none">
<path d="M1835 2620 c-10 -20 -15 -53 -14 -93 2 -50 -4 -76 -30 -138 l-33 -76
-109 -7 c-97 -6 -239 -24 -335 -42 -32 -6 -32 -6 -39 48 -13 97 -62 180 -127
214 -38 20 -55 18 -74 -11 -15 -23 -14 -28 16 -92 30 -64 59 -167 49 -177 -10
-10 -411 -80 -481 -84 -78 -4 -106 -17 -95 -46 5 -13 76 -29 176 -40 66 -7
222 12 313 38 45 13 87 22 93 19 16 -6 35 -48 35 -78 0 -13 10 -36 23 -50 20
-24 24 -25 44 -10 22 15 43 87 43 145 0 26 4 29 53 39 82 18 267 41 323 41
l52 0 -15 -42 c-15 -44 -12 -133 5 -150 13 -13 99 86 132 153 l29 56 92 6 c51
4 170 7 265 7 167 0 173 1 188 22 23 32 20 55 -10 75 -24 16 -39 16 -247 0
-142 -11 -224 -14 -231 -7 -6 6 2 34 22 78 35 76 39 107 18 155 -17 41 -43 63
-83 70 -29 6 -35 3 -48 -23z"/>
<path d="M2004 1980 c-39 -10 -114 -37 -167 -59 -53 -23 -111 -41 -129 -42
-18 0 -42 -4 -52 -8 -18 -7 -18 -8 4 -29 30 -28 65 -28 256 -1 83 12 159 19
168 16 23 -9 20 -30 -12 -80 -15 -25 -37 -70 -47 -101 -16 -45 -24 -58 -45
-62 -64 -14 -275 -76 -327 -96 -66 -26 -81 -53 -35 -62 35 -8 270 10 326 25
23 6 55 18 71 26 39 20 105 83 105 101 0 8 20 41 45 74 51 67 88 173 83 234
-6 80 -96 103 -244 64z"/>
<path d="M1275 1923 c-90 -24 -228 -73 -320 -114 -60 -26 -130 -53 -154 -58
-49 -11 -64 -26 -56 -56 54 -202 75 -355 82 -595 5 -220 -13 -564 -43 -788
-19 -142 -14 -172 34 -172 51 0 60 17 81 140 11 63 23 161 26 217 l8 103 36 5
c184 30 392 95 411 129 6 13 10 32 8 42 -3 17 -13 19 -78 18 -89 0 -191 -29
-301 -84 l-77 -39 -6 31 c-8 40 -8 169 0 245 l7 60 96 7 c191 13 269 32 301
74 49 62 11 97 -98 89 -49 -4 -75 -12 -120 -40 -56 -34 -138 -67 -167 -67 -17
0 -20 64 -9 182 l7 66 44 7 c92 14 240 76 304 127 70 58 204 361 179 407 -24
46 -132 81 -195 64z m34 -155 c0 -13 -24 -74 -52 -137 l-52 -115 -70 -21 c-39
-12 -97 -34 -129 -49 -33 -14 -60 -25 -61 -24 -1 2 -7 37 -14 78 -7 41 -19 99
-28 128 -11 37 -13 56 -6 63 16 16 323 97 371 98 37 1 42 -1 41 -21z"/>
<path d="M1875 1224 c-110 -48 -219 -89 -242 -91 -30 -4 -44 -10 -48 -23 -5
-16 -13 -18 -60 -13 -29 3 -62 3 -72 -1 -22 -9 -18 -12 137 -118 109 -74 260
-211 260 -235 0 -27 -253 -269 -351 -337 -100 -68 -118 -89 -98 -112 17 -20
33 -18 97 15 108 54 240 151 347 253 l106 101 167 -164 c231 -228 264 -254
337 -272 179 -45 345 -26 345 38 0 17 -1 18 -160 69 -63 20 -171 65 -240 98
-120 60 -130 67 -257 191 l-132 129 35 48 c71 100 164 332 164 412 0 42 -47
88 -95 94 -34 4 -71 -8 -240 -82z m175 -103 c0 -44 -86 -236 -126 -280 -2 -2
-34 24 -71 59 -37 34 -101 84 -141 111 -41 27 -70 49 -65 50 4 0 89 20 188 44
223 53 215 52 215 16z"/>
</g>
</svg>
