<?xml version="1.0" standalone="no"?>
<!DOCTYPE svg PUBLIC "-//W3C//DTD SVG 20010904//EN"
 "http://www.w3.org/TR/2001/REC-SVG-20010904/DTD/svg10.dtd">
<svg version="1.0" xmlns="http://www.w3.org/2000/svg"
 width="340.000000pt" height="340.000000pt" viewBox="0 0 340.000000 340.000000"
 preserveAspectRatio="xMidYMid meet">
<metadata>
Created by potrace 1.15, written by Peter Selinger 2001-2017
</metadata>
<g transform="translate(0.000000,340.000000) scale(0.100000,-0.100000)"
fill="#000000" stroke="none">
<path d="M1902 2524 c-25 -17 -28 -42 -10 -90 10 -28 7 -44 -23 -131 l-35 -98
-174 -26 c-96 -15 -193 -30 -215 -34 l-40 -7 -12 62 c-14 77 -54 143 -110 183
-37 26 -46 29 -68 19 -36 -17 -33 -65 10 -149 19 -37 36 -86 37 -107 3 -36 0
-40 -27 -48 -70 -19 -258 -48 -360 -55 -101 -7 -110 -10 -110 -28 0 -17 9 -21
60 -28 78 -11 303 -1 383 16 l63 14 24 -29 c13 -15 26 -37 30 -47 7 -23 37
-35 64 -26 21 6 31 33 31 82 0 41 39 73 89 73 20 0 68 7 106 15 39 8 97 15
131 15 l61 0 -5 -50 -5 -50 31 0 c27 0 38 9 77 65 40 56 51 65 78 66 18 1 139
4 269 8 229 6 238 7 260 29 21 21 22 24 8 50 -14 24 -22 27 -85 32 -75 6 -290
-3 -392 -15 l-61 -7 25 51 c42 84 32 179 -25 244 -19 21 -51 22 -80 1z"/>
<path d="M1996 1979 c-31 -25 -33 -43 -6 -87 15 -25 23 -65 31 -162 7 -71 9
-135 6 -144 -5 -11 -118 -56 -143 -56 -3 0 4 17 15 38 49 96 29 178 -55 232
-52 33 -71 34 -66 4 1 -10 3 -53 3 -94 1 -61 -4 -86 -26 -132 -53 -116 -92
-298 -63 -298 29 0 83 46 108 92 35 64 56 85 104 102 119 42 128 34 124 -121
l-3 -115 -140 -49 c-136 -47 -169 -67 -158 -95 7 -19 74 -18 137 1 27 8 75 15
108 15 l58 0 0 -59 c0 -32 3 -78 6 -103 l6 -44 -132 -39 c-72 -21 -148 -46
-168 -56 l-36 -19 -75 73 c-42 41 -112 102 -156 136 -44 35 -84 67 -89 71 -5
5 29 50 76 102 145 161 214 269 203 319 -12 52 -105 91 -134 56 -6 -8 -15 -38
-21 -67 -12 -62 -25 -87 -105 -195 l-58 -78 -25 49 c-13 27 -36 62 -51 77 -27
30 -110 77 -135 77 -32 0 -24 21 24 69 62 62 89 119 90 188 0 41 4 53 18 56 9
3 51 13 92 22 41 9 116 31 165 49 75 27 89 36 87 52 -4 27 -40 54 -72 54 -38
0 -302 -71 -430 -115 -58 -20 -131 -42 -163 -49 -32 -7 -65 -20 -74 -29 -15
-15 -14 -17 9 -26 50 -19 113 -21 173 -7 33 8 62 13 64 10 2 -2 -4 -24 -13
-48 -12 -32 -67 -98 -192 -233 -294 -314 -307 -332 -271 -346 28 -11 81 26
246 172 149 133 173 150 191 141 54 -29 54 -91 -2 -156 -72 -85 -269 -282
-370 -371 -73 -63 -98 -91 -98 -109 0 -35 25 -31 107 20 166 102 331 258 471
446 2 3 10 -4 18 -14 25 -35 17 -96 -22 -161 -61 -101 -196 -274 -318 -407
-95 -104 -116 -133 -116 -158 l0 -31 33 17 c110 56 238 178 377 359 51 66 96
121 101 123 14 5 10 -181 -6 -298 -21 -160 -68 -320 -93 -320 -5 0 -16 16 -25
35 -21 44 -70 75 -119 75 -45 0 -45 -4 -19 -89 23 -73 91 -168 126 -177 63
-16 138 24 169 90 35 75 84 373 93 573 l6 142 171 -163 c351 -334 580 -533
664 -575 109 -55 162 -66 327 -65 146 1 248 15 262 37 3 5 -8 23 -26 39 -25
22 -41 28 -79 28 -62 0 -228 25 -300 46 -109 31 -316 153 -479 284 -77 62
-193 167 -193 174 0 12 286 35 560 46 286 11 315 22 275 100 -25 48 -69 55
-231 36 -174 -19 -211 -22 -219 -14 -3 3 -3 53 1 111 l7 106 50 11 c59 12 122
40 157 69 l25 21 -23 20 c-39 32 -87 41 -140 24 -26 -7 -48 -14 -49 -14 -1 0
-8 7 -17 15 -12 12 -14 31 -10 88 9 112 18 134 62 142 44 8 131 46 172 75 26
18 28 24 18 40 -23 37 -63 45 -127 25 -94 -28 -96 -27 -96 90 0 84 -4 107 -23
147 -24 48 -73 98 -96 98 -8 0 -25 -9 -40 -21z"/>
</g>
</svg>
