<?xml version="1.0" standalone="no"?>
<!DOCTYPE svg PUBLIC "-//W3C//DTD SVG 20010904//EN"
 "http://www.w3.org/TR/2001/REC-SVG-20010904/DTD/svg10.dtd">
<svg version="1.0" xmlns="http://www.w3.org/2000/svg"
 width="340.000000pt" height="340.000000pt" viewBox="0 0 340.000000 340.000000"
 preserveAspectRatio="xMidYMid meet">
<metadata>
Created by potrace 1.15, written by Peter Selinger 2001-2017
</metadata>
<g transform="translate(0.000000,340.000000) scale(0.100000,-0.100000)"
fill="#000000" stroke="none">
<path d="M1845 2636 c-21 -31 -35 -83 -35 -126 0 -20 -15 -67 -34 -107 -38
-80 -35 -78 -151 -88 -38 -3 -126 -15 -195 -26 -69 -11 -133 -21 -143 -22 -14
-2 -25 18 -51 100 -39 118 -67 168 -106 188 -35 18 -61 19 -94 4 l-25 -12 24
-47 c51 -101 98 -233 88 -249 -23 -37 -230 -80 -420 -88 -78 -3 -147 -10 -155
-14 -26 -16 23 -47 92 -58 120 -20 218 -11 380 34 30 8 70 15 90 15 34 0 36
-2 48 -45 9 -33 20 -50 45 -65 17 -11 36 -20 40 -20 14 0 35 63 39 115 l5 49
49 13 c76 20 233 43 298 43 52 0 57 -2 51 -17 -19 -43 -17 -81 4 -102 12 -12
26 -21 31 -21 6 0 40 38 76 84 l66 84 119 7 c66 4 195 4 287 1 192 -8 215 -2
220 52 3 27 -1 34 -25 43 -51 20 -212 23 -298 6 -88 -17 -265 -32 -265 -23 0
4 12 30 28 59 21 41 27 65 27 118 0 56 -4 71 -28 102 -32 43 -60 47 -82 13z"/>
<path d="M1737 2072 c-24 -27 -21 -62 10 -107 23 -32 28 -51 27 -95 -1 -97
-19 -198 -39 -220 -22 -24 -114 -54 -236 -76 -95 -18 -106 -27 -68 -65 18 -18
28 -20 78 -14 31 4 85 13 121 20 36 8 66 12 68 10 6 -5 -29 -138 -44 -166 -10
-19 -36 -35 -107 -63 -53 -21 -117 -43 -144 -50 -37 -9 -48 -17 -48 -32 0 -17
7 -19 65 -17 36 1 89 9 118 16 28 8 52 10 52 5 0 -34 -91 -178 -165 -261 -74
-82 -155 -247 -121 -247 20 0 88 53 128 99 19 22 38 41 41 41 4 0 29 -22 55
-50 40 -41 54 -50 83 -50 25 0 43 8 58 24 21 22 22 26 8 53 -25 47 -55 67
-108 73 l-50 5 100 174 c55 96 106 178 113 181 7 4 61 20 120 35 l108 28 22
-29 c38 -49 98 -115 182 -201 l81 -83 -41 0 c-43 0 -84 -30 -84 -63 0 -9 -20
-55 -45 -103 -47 -89 -56 -137 -29 -148 38 -15 61 -4 116 51 74 76 118 148
118 191 l0 35 79 -76 c123 -117 222 -159 404 -173 91 -6 95 -6 111 17 9 13 16
29 16 36 0 19 -83 63 -179 95 -101 34 -180 76 -311 166 -147 101 -340 263
-340 287 0 8 22 14 70 17 71 5 148 36 199 78 23 20 23 21 6 40 -28 31 -78 35
-148 12 -59 -20 -389 -102 -409 -102 -16 0 1 61 45 157 12 28 39 37 157 58 95
16 242 57 270 74 11 8 12 16 4 38 -8 23 -15 28 -39 27 -62 -3 -232 -25 -287
-38 -69 -16 -68 -17 -37 94 30 106 30 185 0 233 -23 38 -84 77 -119 77 -10 0
-26 -8 -35 -18z"/>
<path d="M2126 2007 c-26 -28 -63 -69 -82 -89 -46 -48 -74 -103 -74 -145 0
-42 8 -41 96 1 93 44 191 136 200 187 4 29 1 41 -18 61 -13 15 -35 29 -49 32
-23 5 -33 -2 -73 -47z"/>
<path d="M1080 1926 c-109 -39 -193 -85 -186 -102 3 -9 6 -18 6 -20 0 -3 61
-1 137 2 l136 7 -7 -649 c-3 -357 -9 -675 -12 -707 l-7 -58 -22 21 c-13 12
-41 24 -64 27 l-41 6 0 -39 c1 -85 60 -186 125 -215 55 -25 72 -24 106 10 l29
29 1 584 c0 321 4 633 9 693 20 236 22 339 8 364 -37 67 -115 84 -218 47z"/>
<path d="M1450 1857 c0 -20 10 -50 26 -72 64 -94 151 -128 198 -76 14 16 13
22 -17 71 -35 60 -89 93 -164 105 l-43 7 0 -35z"/>
<path d="M804 1773 c-4 -14 1 -59 11 -102 15 -60 18 -117 18 -276 1 -290 -30
-503 -99 -685 -50 -132 -164 -470 -158 -470 21 0 63 35 81 67 39 70 125 285
178 447 l53 160 59 16 c67 19 125 48 168 84 25 21 28 27 15 36 -27 17 -90 11
-146 -16 -32 -15 -59 -23 -64 -18 -5 5 -2 72 8 154 17 142 18 145 42 148 56 7
99 24 139 53 41 29 42 31 26 49 -24 27 -59 32 -107 15 -78 -27 -88 -18 -88 77
0 62 -25 189 -44 227 -17 31 -52 61 -73 61 -7 0 -16 -12 -19 -27z"/>
<path d="M1761 1154 c-12 -15 -21 -31 -21 -36 0 -15 29 -66 40 -70 22 -7 34
-169 35 -450 0 -157 -2 -289 -6 -292 -3 -3 -21 0 -41 6 -31 9 -41 8 -64 -6
-22 -15 -25 -23 -20 -48 9 -43 41 -84 90 -113 76 -44 139 -24 156 50 34 151
10 848 -33 933 -26 53 -103 68 -136 26z"/>
<path d="M1560 583 c-85 -57 -159 -113 -164 -123 -15 -32 1 -66 39 -84 49 -23
74 -10 153 84 57 68 152 207 152 223 0 18 -36 -3 -180 -100z"/>
<path d="M2030 617 c0 -23 28 -58 59 -74 20 -10 61 -37 91 -59 65 -50 153 -95
233 -120 50 -16 60 -16 68 -4 17 28 10 85 -13 107 -33 30 -165 100 -234 123
-57 20 -204 39 -204 27z"/>
</g>
</svg>
