<?xml version="1.0" standalone="no"?>
<!DOCTYPE svg PUBLIC "-//W3C//DTD SVG 20010904//EN"
 "http://www.w3.org/TR/2001/REC-SVG-20010904/DTD/svg10.dtd">
<svg version="1.0" xmlns="http://www.w3.org/2000/svg"
 width="340.000000pt" height="340.000000pt" viewBox="0 0 340.000000 340.000000"
 preserveAspectRatio="xMidYMid meet">
<metadata>
Created by potrace 1.15, written by Peter Selinger 2001-2017
</metadata>
<g transform="translate(0.000000,340.000000) scale(0.100000,-0.100000)"
fill="#000000" stroke="none">
<path d="M2235 2474 c-11 -3 -84 -21 -163 -39 -78 -19 -204 -55 -280 -79 -75
-25 -155 -46 -176 -48 -45 -3 -69 -29 -48 -50 16 -16 150 -15 242 2 36 6 101
24 146 40 115 40 212 54 313 46 48 -4 89 -13 93 -19 32 -50 -35 -431 -128
-739 -20 -65 -33 -126 -29 -137 8 -26 32 -34 63 -19 33 16 90 163 127 328 15
63 42 176 60 251 19 74 39 184 46 242 12 103 12 109 -8 135 -11 15 -39 40 -62
57 -35 25 -53 30 -109 32 -37 1 -76 -1 -87 -3z"/>
<path d="M922 2414 c-29 -20 -28 -40 7 -91 27 -39 28 -48 34 -194 4 -84 7
-184 7 -223 l0 -71 -137 -48 c-76 -26 -146 -47 -155 -47 -9 0 -30 11 -46 25
-43 36 -88 51 -107 35 -23 -19 -18 -36 34 -113 62 -92 121 -210 155 -312 38
-113 67 -140 99 -91 16 24 92 56 134 56 23 0 23 0 23 -137 0 -76 3 -161 6
-189 l6 -51 -86 -46 c-138 -74 -285 -137 -317 -137 -49 0 -69 -16 -69 -55 0
-50 35 -70 120 -70 74 0 90 8 281 136 122 82 286 179 383 225 49 24 60 26 64
14 3 -8 18 -27 33 -42 30 -31 73 -37 103 -15 17 13 18 16 2 69 -22 76 -68 141
-154 216 -112 97 -141 70 -78 -69 20 -43 36 -80 36 -82 0 -2 -28 -15 -62 -27
-35 -12 -84 -33 -110 -46 l-47 -24 -7 47 c-7 46 1 258 12 312 5 25 11 29 51
34 24 2 78 21 119 42 l74 36 51 97 c27 53 63 121 79 151 62 110 22 231 -75
231 -49 0 -219 -41 -261 -63 l-29 -15 -1 207 c-2 252 -8 288 -53 318 -39 27
-87 30 -119 7z m418 -598 c0 -8 -20 -66 -45 -129 -25 -64 -45 -120 -45 -126 0
-17 -32 -29 -102 -36 l-66 -7 5 123 c3 68 8 127 12 131 9 10 181 56 214 57 17
1 27 -4 27 -13z m-372 -103 c5 -10 7 -70 4 -134 l-4 -116 -73 -36 -73 -36 -17
62 c-9 34 -33 100 -51 146 -19 46 -34 84 -32 86 7 4 195 43 215 44 12 1 26 -7
31 -16z"/>
<path d="M1824 2098 c-4 -7 -11 -78 -15 -158 -9 -181 -42 -316 -138 -553 -28
-69 -31 -81 -21 -117 22 -81 82 -92 272 -47 217 51 510 87 714 87 87 0 105 -3
128 -21 20 -16 26 -29 26 -60 0 -70 -164 -532 -273 -772 l-36 -78 -44 34 c-24
18 -58 39 -77 47 -30 12 -34 12 -46 -5 -23 -31 -16 -73 22 -141 56 -100 100
-122 183 -93 30 11 41 29 121 193 141 292 203 461 254 686 34 156 35 168 3
223 -50 85 -132 130 -239 129 -37 0 -82 -5 -100 -11 -39 -13 -750 -112 -757
-106 -8 9 22 121 66 245 24 69 52 150 60 180 23 78 21 219 -4 290 -19 52 -22
55 -55 58 -22 2 -39 -2 -44 -10z"/>
<path d="M2260 975 c-197 -29 -390 -66 -605 -115 -93 -22 -187 -42 -208 -46
-63 -11 -75 -76 -15 -88 80 -16 173 -6 313 34 214 60 477 100 665 100 111 0
167 62 107 118 -29 28 -56 27 -257 -3z"/>
</g>
</svg>
