<?xml version="1.0" standalone="no"?>
<!DOCTYPE svg PUBLIC "-//W3C//DTD SVG 20010904//EN"
 "http://www.w3.org/TR/2001/REC-SVG-20010904/DTD/svg10.dtd">
<svg version="1.0" xmlns="http://www.w3.org/2000/svg"
 width="340.000000pt" height="340.000000pt" viewBox="0 0 340.000000 340.000000"
 preserveAspectRatio="xMidYMid meet">
<metadata>
Created by potrace 1.15, written by Peter Selinger 2001-2017
</metadata>
<g transform="translate(0.000000,340.000000) scale(0.100000,-0.100000)"
fill="#000000" stroke="none">
<path d="M1045 2378 c-25 -13 -45 -38 -45 -54 0 -7 11 -26 25 -42 23 -28 26
-42 37 -203 6 -96 8 -204 4 -241 l-7 -66 -100 -38 c-55 -21 -102 -41 -105 -45
-8 -14 37 -31 70 -26 17 2 47 11 67 20 33 15 38 15 59 0 22 -15 22 -19 16
-117 -12 -182 -12 -183 -60 -200 -22 -9 -47 -17 -54 -18 -8 -2 -22 26 -38 71
-30 90 -81 168 -143 221 -83 72 -118 45 -62 -47 41 -67 89 -191 112 -292 33
-141 45 -161 103 -161 22 0 26 5 31 44 4 25 4 49 1 55 -9 13 1 18 57 26 l47 7
0 -199 0 -199 -32 -18 c-18 -11 -79 -52 -136 -93 -63 -46 -111 -74 -125 -73
-12 1 -29 2 -38 1 -16 -1 -39 -40 -39 -67 0 -24 47 -64 74 -64 43 0 134 40
190 83 146 114 209 167 296 253 l95 94 24 -45 c25 -47 68 -81 110 -87 22 -3
26 2 33 37 26 124 -87 289 -207 303 -25 2 -45 1 -45 -4 0 -5 12 -42 26 -82 15
-40 25 -74 23 -76 -11 -8 -138 -76 -143 -76 -3 0 -6 78 -6 174 l0 173 48 7
c53 7 146 47 178 77 14 13 20 28 17 40 -4 13 4 30 20 47 57 60 126 251 127
350 0 30 -5 35 -47 55 -73 33 -161 29 -245 -10 -37 -17 -69 -29 -71 -26 -3 3
-3 71 0 151 5 142 -3 237 -28 325 -8 30 -18 42 -44 53 -41 17 -44 17 -70 2z
m351 -609 c3 -6 -10 -61 -29 -123 -20 -61 -42 -131 -49 -156 l-13 -45 -72 -3
-73 -3 1 78 c1 43 4 109 8 148 l6 70 85 16 c47 8 92 18 100 22 23 9 28 8 36
-4z"/>
<path d="M2550 2280 c-13 -8 -11 -17 13 -63 15 -30 32 -76 38 -103 15 -71 23
-1322 10 -1559 -6 -104 -13 -209 -17 -233 -9 -60 2 -90 39 -112 47 -29 73 -26
94 12 21 41 22 66 4 588 -12 348 -12 492 -2 892 13 462 12 479 -6 510 -31 55
-131 94 -173 68z"/>
<path d="M2015 2250 c-73 -15 -395 -153 -395 -170 0 -4 7 -13 15 -20 18 -15
75 -9 180 18 82 22 240 43 263 34 20 -7 14 -44 -23 -143 -19 -52 -45 -133 -57
-180 l-22 -86 -67 -17 c-37 -9 -93 -33 -126 -53 -34 -21 -72 -36 -93 -37 l-35
-1 -6 -85 c-3 -47 -12 -157 -19 -246 -7 -88 -11 -168 -7 -177 8 -21 57 -22 95
-3 35 18 200 46 268 46 52 0 53 -1 59 -32 9 -48 -12 -230 -39 -343 -28 -116
-75 -266 -85 -278 -4 -4 -37 21 -72 55 -73 72 -156 130 -179 126 -25 -5 -23
-55 4 -103 28 -48 121 -166 180 -229 34 -37 39 -38 83 -33 80 9 94 36 168 332
18 72 45 200 59 285 28 166 27 217 -5 281 -49 97 -192 112 -350 38 -33 -16
-62 -29 -63 -29 -1 0 5 55 15 122 9 67 13 134 9 148 -13 46 3 66 62 78 72 14
155 46 206 79 l43 28 83 249 83 249 -29 32 c-48 56 -126 80 -203 65z"/>
</g>
</svg>
