<?xml version="1.0" standalone="no"?>
<!DOCTYPE svg PUBLIC "-//W3C//DTD SVG 20010904//EN"
 "http://www.w3.org/TR/2001/REC-SVG-20010904/DTD/svg10.dtd">
<svg version="1.0" xmlns="http://www.w3.org/2000/svg"
 width="340.000000pt" height="340.000000pt" viewBox="0 0 340.000000 340.000000"
 preserveAspectRatio="xMidYMid meet">
<metadata>
Created by potrace 1.15, written by Peter Selinger 2001-2017
</metadata>
<g transform="translate(0.000000,340.000000) scale(0.100000,-0.100000)"
fill="#000000" stroke="none">
<path d="M986 2474 c-22 -22 -20 -45 9 -84 13 -18 29 -47 35 -64 14 -46 30
-235 30 -368 l0 -118 -67 -34 c-38 -18 -94 -42 -125 -52 -63 -19 -76 -43 -37
-65 25 -13 63 -7 123 21 24 11 59 21 78 22 32 3 33 2 33 -34 -1 -21 -2 -101
-3 -177 l-2 -139 -42 -21 c-24 -11 -55 -23 -69 -26 -25 -6 -27 -4 -38 52 -25
127 -117 262 -216 314 -78 42 -77 21 8 -153 41 -84 94 -203 118 -265 32 -83
48 -113 63 -117 27 -7 44 9 48 47 2 25 10 36 38 49 20 10 50 21 68 24 l32 7 0
-191 0 -190 -90 -52 c-49 -28 -132 -70 -182 -92 -51 -22 -99 -44 -105 -50 -20
-16 -15 -62 8 -92 37 -47 69 -37 220 66 211 144 381 267 419 304 20 19 39 34
42 34 3 0 20 -36 38 -80 35 -88 57 -110 107 -110 l33 0 0 73 c0 52 -7 88 -23
128 -34 82 -102 173 -160 213 -46 32 -52 34 -58 19 -9 -25 0 -80 23 -135 24
-57 20 -74 -24 -83 -18 -4 -56 -21 -84 -36 -28 -16 -54 -29 -57 -29 -4 0 -7
74 -7 164 l0 164 48 11 c65 17 141 52 180 85 32 27 32 28 15 56 -16 28 -16 31
21 110 40 87 72 201 83 287 6 51 5 53 -23 64 -83 31 -200 27 -275 -11 -21 -11
-40 -20 -41 -20 -2 0 -3 80 -4 178 -1 221 -21 355 -60 390 -31 27 -104 31
-128 6z m384 -680 c0 -14 -16 -72 -35 -127 -19 -56 -37 -121 -41 -145 -7 -47
-17 -54 -88 -68 l-36 -6 2 168 3 168 50 17 c28 10 71 18 98 19 44 0 47 -2 47
-26z"/>
<path d="M1878 2459 c-25 -14 -22 -38 12 -88 17 -24 30 -57 30 -72 0 -84 -205
-457 -405 -735 -39 -55 -41 -94 -5 -94 25 0 161 147 240 258 46 65 69 91 80
86 47 -18 111 -14 225 14 157 39 473 92 550 92 27 0 75 51 75 80 0 22 -6 30
-31 39 -51 18 -153 13 -211 -9 -29 -11 -111 -36 -183 -55 -71 -20 -192 -56
-268 -81 -76 -25 -141 -44 -144 -40 -6 6 31 73 87 156 68 101 115 215 134 327
7 41 -30 87 -89 114 -45 21 -72 23 -97 8z"/>
<path d="M1896 1724 c-21 -20 -21 -17 14 -90 44 -90 50 -162 56 -659 5 -400
-1 -595 -22 -740 -7 -48 15 -82 56 -87 23 -3 27 3 50 67 23 66 25 85 28 316
l4 246 51 7 c29 3 106 6 172 6 177 0 403 18 435 35 48 25 55 80 14 95 -70 27
-120 31 -214 20 -179 -22 -288 -41 -364 -64 -101 -32 -108 -26 -101 87 3 45 8
143 11 219 l6 136 106 7 c262 16 329 33 391 98 l33 35 -25 26 c-32 32 -68 33
-139 5 -29 -12 -121 -45 -204 -74 l-151 -53 -6 81 c-8 115 -43 210 -101 275
-23 26 -77 30 -100 6z"/>
</g>
</svg>
