<?xml version="1.0" standalone="no"?>
<!DOCTYPE svg PUBLIC "-//W3C//DTD SVG 20010904//EN"
 "http://www.w3.org/TR/2001/REC-SVG-20010904/DTD/svg10.dtd">
<svg version="1.0" xmlns="http://www.w3.org/2000/svg"
 width="340.000000pt" height="340.000000pt" viewBox="0 0 340.000000 340.000000"
 preserveAspectRatio="xMidYMid meet">
<metadata>
Created by potrace 1.15, written by Peter Selinger 2001-2017
</metadata>
<g transform="translate(0.000000,340.000000) scale(0.100000,-0.100000)"
fill="#000000" stroke="none">
<path d="M1895 2283 c-55 -15 -59 -50 -10 -104 34 -38 35 -41 35 -122 0 -46
-3 -132 -7 -190 l-6 -106 -51 -16 c-28 -8 -96 -23 -151 -31 -118 -19 -145 -28
-145 -48 0 -33 171 -48 294 -25 32 6 59 9 60 7 1 -2 0 -68 -3 -147 l-6 -145
-108 -22 c-60 -13 -143 -34 -185 -48 -43 -14 -119 -35 -169 -47 -51 -12 -93
-25 -93 -29 0 -4 9 -15 21 -26 20 -18 25 -17 252 20 128 20 240 40 250 43 16
4 17 2 8 -15 -15 -29 -14 -69 4 -96 22 -33 37 -165 22 -195 -15 -31 -17 -31
-175 -81 -127 -40 -132 -43 -117 -61 26 -28 66 -32 149 -15 41 9 92 16 112 16
l37 0 -6 -117 c-4 -65 -10 -146 -13 -180 l-7 -62 -66 -6 c-109 -11 -342 -52
-449 -79 -59 -15 -112 -23 -129 -20 -21 4 -35 1 -47 -11 -22 -22 -14 -29 54
-49 119 -35 258 -30 387 15 76 26 291 57 477 69 169 10 416 1 578 -23 116 -17
147 -3 138 63 -7 51 -91 69 -361 77 -153 5 -211 2 -422 -20 -17 -2 -19 8 -18
153 1 85 4 169 7 186 l6 31 81 6 c79 5 172 32 212 61 17 12 18 17 7 40 -7 15
-28 33 -46 41 -31 13 -41 13 -98 -4 -35 -11 -83 -22 -108 -25 l-45 -6 0 92 c0
83 -3 98 -27 140 -15 25 -40 55 -55 66 l-27 20 30 6 c109 23 288 38 493 42
202 3 236 6 252 20 26 23 24 56 -4 82 -21 20 -34 22 -123 22 -129 0 -298 -16
-452 -41 -68 -12 -126 -18 -129 -15 -3 3 2 48 11 101 9 53 16 122 16 154 l0
58 70 12 c85 14 160 42 222 84 45 30 46 32 33 58 -22 41 -51 42 -161 5 -54
-18 -110 -36 -124 -39 l-26 -6 1 214 0 215 -26 26 c-26 26 -83 38 -124 27z"/>
<path d="M882 2130 c-38 -23 -42 -56 -13 -104 16 -27 27 -84 46 -236 12 -100
8 -199 -10 -226 -17 -26 -126 -84 -157 -84 -24 0 -11 -29 18 -40 15 -6 41 -4
78 7 76 22 86 12 86 -81 0 -39 -3 -109 -7 -155 l-6 -83 -44 -19 c-25 -11 -48
-17 -53 -14 -4 3 -11 25 -14 50 -17 110 -157 305 -220 305 -14 0 -26 -5 -26
-11 0 -10 46 -121 181 -437 28 -67 74 -69 93 -4 10 35 48 51 73 31 12 -11 14
-39 8 -188 -4 -97 -11 -185 -15 -196 -5 -13 -67 -49 -181 -105 -96 -47 -177
-89 -182 -95 -11 -16 2 -58 25 -77 44 -38 87 -25 240 73 219 141 308 202 367
253 30 25 60 46 65 46 6 -1 20 -19 31 -42 25 -52 59 -78 113 -85 l42 -6 0 54
c0 33 -8 69 -21 96 -36 75 -172 182 -233 183 -16 0 -18 -5 -13 -34 3 -18 15
-53 26 -77 22 -44 17 -58 -19 -59 -8 0 -44 -14 -78 -30 -35 -17 -65 -30 -65
-30 -5 0 9 339 13 343 3 2 27 10 53 17 51 14 149 72 180 107 23 27 82 201 104
310 l18 84 -25 19 c-66 51 -175 63 -262 30 -40 -15 -54 -17 -61 -7 -4 6 -5 58
-2 114 7 117 -7 239 -38 332 -18 54 -27 67 -53 77 -27 11 -35 10 -62 -6z m348
-635 c9 -11 8 -25 -6 -67 -10 -29 -25 -84 -34 -123 l-16 -70 -54 -18 c-30 -9
-63 -20 -72 -23 -17 -5 -18 6 -18 141 0 108 3 147 13 149 10 3 50 9 163 24 6
1 17 -5 24 -13z"/>
</g>
</svg>
