<?xml version="1.0" standalone="no"?>
<!DOCTYPE svg PUBLIC "-//W3C//DTD SVG 20010904//EN"
 "http://www.w3.org/TR/2001/REC-SVG-20010904/DTD/svg10.dtd">
<svg version="1.0" xmlns="http://www.w3.org/2000/svg"
 width="340.000000pt" height="340.000000pt" viewBox="0 0 340.000000 340.000000"
 preserveAspectRatio="xMidYMid meet">
<metadata>
Created by potrace 1.15, written by Peter Selinger 2001-2017
</metadata>
<g transform="translate(0.000000,340.000000) scale(0.100000,-0.100000)"
fill="#000000" stroke="none">
<path d="M1410 2492 l-25 -21 100 -46 c140 -66 212 -95 230 -95 9 0 29 7 45
15 57 29 33 88 -53 132 -45 23 -67 28 -162 31 -99 4 -113 2 -135 -16z"/>
<path d="M2265 2314 c-388 -54 -780 -126 -1157 -214 -134 -32 -249 -52 -310
-57 -109 -7 -118 -15 -67 -57 31 -26 43 -29 114 -26 90 4 432 74 506 105 21 8
52 -62 78 -177 28 -120 34 -218 21 -343 -13 -133 -6 -165 38 -165 15 0 35 6
44 13 24 18 40 164 39 369 0 159 -2 182 -22 228 -12 28 -33 60 -47 71 -14 10
-23 22 -20 25 11 10 112 33 178 40 66 6 67 6 78 -22 28 -72 34 -124 42 -344 5
-129 12 -259 16 -289 6 -48 10 -55 41 -67 41 -18 70 -6 79 33 8 31 0 289 -17
536 -8 114 -9 181 -3 187 5 5 30 12 54 15 25 2 92 11 150 19 64 10 179 16 296
16 178 0 193 1 218 21 32 25 33 59 3 87 -20 19 -34 22 -103 21 -43 0 -155 -12
-249 -25z"/>
<path d="M2070 1892 c0 -28 29 -53 130 -112 51 -30 114 -73 139 -96 57 -51
112 -79 172 -88 42 -6 46 -5 57 19 16 36 15 76 -3 102 -19 28 -191 115 -277
142 -61 18 -195 51 -210 51 -5 0 -8 -8 -8 -18z"/>
<path d="M1103 1762 c-32 -42 -81 -99 -110 -125 -52 -48 -123 -168 -123 -208
0 -44 113 -7 167 54 45 51 98 150 127 239 30 89 32 104 11 112 -11 4 -33 -18
-72 -72z"/>
<path d="M1573 1354 c-3 -10 -1 -31 7 -48 21 -51 42 -137 37 -150 -5 -14 -176
-58 -297 -77 -85 -13 -99 -21 -80 -44 17 -21 97 -19 249 5 68 11 126 19 128
16 7 -6 22 -184 23 -257 0 -71 -16 -99 -57 -99 -21 0 -193 -42 -225 -55 -23
-9 -34 19 -58 147 -10 53 -28 115 -40 138 -33 64 -96 127 -157 155 -108 52
-128 12 -48 -96 71 -96 132 -232 162 -356 29 -122 39 -149 61 -158 22 -8 52
24 52 56 0 38 15 44 145 58 61 7 123 15 139 18 l28 5 -7 -118 c-4 -66 -8 -120
-9 -121 -1 -1 -81 -14 -176 -28 -96 -15 -205 -32 -241 -39 -47 -9 -85 -9 -137
-2 -89 12 -102 4 -77 -48 24 -50 70 -76 136 -76 80 0 240 26 364 60 64 17 243
48 430 75 176 25 330 47 341 50 17 4 29 -7 63 -60 45 -68 144 -165 171 -165
20 0 55 37 64 67 4 12 0 37 -8 57 -19 45 -154 187 -231 241 -61 43 -156 95
-175 95 -25 0 -8 -53 30 -94 46 -49 49 -64 18 -70 -27 -6 -415 -46 -442 -46
-17 0 -18 8 -14 109 2 60 6 112 9 115 3 3 43 13 90 22 140 26 290 79 327 115
35 35 163 287 183 361 12 42 11 49 -5 67 -10 11 -41 32 -69 46 -59 29 -141 33
-205 11 -44 -16 -173 -41 -264 -51 l-56 -7 -7 45 c-9 57 -36 102 -77 127 -40
24 -86 26 -95 4z m590 -235 c23 -6 37 -15 34 -22 -60 -138 -81 -191 -102 -261
l-27 -83 -76 0 c-42 0 -109 -4 -149 -8 -102 -10 -105 -5 -92 185 6 80 15 148
21 151 20 13 205 39 333 48 11 0 37 -4 58 -10z"/>
</g>
</svg>
