<?xml version="1.0" standalone="no"?>
<!DOCTYPE svg PUBLIC "-//W3C//DTD SVG 20010904//EN"
 "http://www.w3.org/TR/2001/REC-SVG-20010904/DTD/svg10.dtd">
<svg version="1.0" xmlns="http://www.w3.org/2000/svg"
 width="340.000000pt" height="340.000000pt" viewBox="0 0 340.000000 340.000000"
 preserveAspectRatio="xMidYMid meet">
<metadata>
Created by potrace 1.15, written by Peter Selinger 2001-2017
</metadata>
<g transform="translate(0.000000,340.000000) scale(0.100000,-0.100000)"
fill="#000000" stroke="none">
<path d="M2320 2294 c-8 -2 -82 -15 -165 -30 -82 -14 -228 -44 -324 -65 -96
-21 -192 -39 -213 -39 -28 0 -46 -7 -63 -24 l-23 -23 -21 28 c-27 37 -74 61
-111 57 l-29 -3 40 -100 c23 -55 73 -187 113 -294 41 -111 79 -199 89 -205 24
-15 51 3 57 40 5 26 10 29 45 31 149 10 349 43 471 78 42 12 54 21 65 46 7 18
41 75 77 128 67 101 107 175 136 252 22 59 12 83 -47 110 -40 18 -63 21 -97
13z m-60 -156 c0 -28 -97 -279 -113 -294 -7 -6 -54 -16 -105 -23 -52 -7 -142
-24 -200 -37 -59 -14 -121 -28 -138 -31 l-31 -5 -27 88 c-15 48 -45 125 -67
172 -21 47 -39 85 -39 86 0 1 35 0 78 -2 49 -3 149 6 263 22 194 27 319 42
357 45 17 1 22 -4 22 -21z"/>
<path d="M838 2213 c-27 -30 -29 -57 -9 -96 22 -44 44 -243 39 -352 l-3 -69
-104 -33 c-57 -18 -106 -35 -109 -38 -3 -3 3 -14 13 -25 21 -23 63 -26 129 -8
71 19 76 9 76 -137 l0 -123 -55 -22 c-31 -13 -58 -20 -61 -17 -3 3 -12 31 -21
63 -20 77 -46 127 -94 179 -54 58 -137 111 -151 97 -20 -20 -11 -63 19 -95 16
-18 44 -71 62 -122 34 -90 107 -243 133 -279 20 -26 55 -6 66 37 7 26 15 34
45 41 58 15 63 5 70 -151 4 -76 10 -159 13 -184 l6 -46 -83 -51 c-46 -27 -121
-68 -166 -91 -112 -56 -130 -96 -61 -139 32 -20 32 -20 82 0 72 28 145 71 223
132 70 54 271 196 278 196 2 0 13 -16 25 -35 26 -43 66 -65 116 -65 l37 0 -6
56 c-10 99 -92 232 -174 284 -35 23 -50 27 -60 19 -19 -17 -16 -70 7 -104 37
-55 29 -70 -62 -116 l-81 -41 6 123 c4 67 7 149 7 181 0 38 4 60 13 63 6 2 32
9 55 15 62 16 132 82 132 125 0 21 8 39 26 56 34 32 77 109 108 197 38 107 36
118 -26 147 -73 34 -163 34 -236 0 -30 -14 -58 -23 -63 -20 -4 3 -7 67 -6 143
2 154 -6 194 -56 269 -36 54 -72 67 -99 36z m342 -560 c0 -5 -17 -61 -37 -125
l-37 -117 -42 -10 c-89 -23 -88 -24 -81 88 10 139 12 144 83 157 72 14 114 17
114 7z"/>
<path d="M2065 1533 c-77 -19 -241 -58 -364 -87 -124 -29 -226 -57 -228 -62
-2 -5 3 -18 11 -29 13 -18 25 -19 142 -17 l129 3 30 -48 c27 -44 30 -56 30
-135 0 -47 -3 -89 -6 -93 -4 -3 -36 -13 -70 -21 -115 -27 -309 -87 -309 -95 0
-5 9 -18 20 -29 24 -24 67 -26 165 -6 135 27 165 29 165 11 0 -29 -67 -163
-121 -240 -61 -89 -171 -195 -269 -260 -38 -26 -79 -58 -90 -73 l-21 -27 21
-17 c21 -17 24 -16 103 23 213 107 379 283 463 491 18 46 39 84 47 86 7 1 34
-24 59 -56 85 -109 225 -267 347 -390 133 -133 190 -170 303 -197 71 -16 224
-20 261 -6 54 21 34 85 -30 97 -77 15 -384 162 -478 229 -33 24 -138 122 -233
218 l-174 174 34 7 c111 22 214 37 330 46 83 7 141 16 155 25 35 23 44 48 32
84 -10 29 -14 31 -59 31 -26 0 -101 -10 -167 -21 -65 -12 -169 -29 -232 -38
l-113 -17 6 52 c7 57 -8 154 -31 197 -8 16 -13 31 -11 33 3 2 58 17 124 34 65
16 158 44 207 61 73 26 87 35 87 53 0 57 -64 59 -265 9z"/>
</g>
</svg>
