<?xml version="1.0" standalone="no"?>
<!DOCTYPE svg PUBLIC "-//W3C//DTD SVG 20010904//EN"
 "http://www.w3.org/TR/2001/REC-SVG-20010904/DTD/svg10.dtd">
<svg version="1.0" xmlns="http://www.w3.org/2000/svg"
 width="340.000000pt" height="340.000000pt" viewBox="0 0 340.000000 340.000000"
 preserveAspectRatio="xMidYMid meet">
<metadata>
Created by potrace 1.15, written by Peter Selinger 2001-2017
</metadata>
<g transform="translate(0.000000,340.000000) scale(0.100000,-0.100000)"
fill="#000000" stroke="none">
<path d="M888 2250 c-30 -18 -40 -80 -23 -138 20 -66 34 -218 35 -363 l0 -116
-107 -46 -108 -45 -20 23 c-11 12 -30 28 -42 34 -21 10 -63 15 -63 7 0 -2 16
-38 36 -79 21 -45 55 -153 84 -264 26 -103 57 -221 69 -261 20 -65 24 -71 41
-62 25 13 30 22 38 72 7 41 9 43 42 43 l35 0 6 -175 c3 -105 2 -180 -4 -187
-14 -19 -141 -101 -226 -146 -85 -45 -131 -83 -131 -108 0 -9 10 -29 22 -44
18 -23 27 -26 59 -22 55 7 122 44 187 102 62 55 337 275 345 275 2 0 7 -12 10
-28 9 -42 44 -80 88 -93 21 -7 42 -9 46 -5 4 3 7 34 7 69 -1 73 -24 131 -79
197 -49 58 -82 80 -124 80 -28 0 -32 -3 -26 -17 4 -10 18 -46 31 -79 l23 -62
-62 -20 c-34 -11 -64 -19 -66 -17 -2 3 0 75 5 161 l9 158 50 11 c60 14 123 45
150 75 12 13 20 38 21 63 1 23 20 93 42 155 22 63 48 156 58 207 20 107 18
111 -50 144 -63 31 -112 27 -196 -16 -89 -46 -93 -42 -85 82 3 50 1 157 -4
239 -9 136 -12 152 -33 172 -28 27 -67 38 -90 24z m326 -628 c3 -5 -6 -55 -19
-113 -13 -57 -29 -138 -35 -181 l-12 -76 -64 -16 c-35 -9 -66 -16 -69 -16 -7
0 -6 186 1 286 l7 82 71 20 c78 22 112 26 120 14z m-306 -278 l2 -192 -36 -17
c-48 -23 -57 -12 -74 85 -7 41 -27 120 -45 175 -18 55 -30 104 -25 108 13 14
103 36 140 34 l35 -2 3 -191z"/>
<path d="M1583 2230 c-31 -13 -29 -32 12 -91 19 -28 35 -61 35 -74 0 -66 -100
-344 -197 -548 -36 -75 -63 -144 -59 -152 3 -8 15 -15 26 -15 16 0 44 35 114
143 l94 142 201 49 c168 41 204 53 224 75 55 59 38 96 -45 96 -56 -1 -158 -41
-281 -113 -32 -19 -61 -32 -63 -29 -3 3 18 61 46 129 75 176 79 189 80 228 0
44 -36 118 -70 141 -31 22 -88 31 -117 19z"/>
<path d="M1700 1596 c-8 -24 -9 -84 -4 -193 5 -129 4 -160 -7 -170 -18 -14
-353 -162 -396 -175 -39 -11 -42 -31 -9 -53 36 -24 111 -10 259 47 71 28 130
48 132 47 2 -2 -1 -40 -6 -85 -25 -225 -132 -452 -317 -674 -39 -47 -47 -74
-27 -94 9 -9 23 -16 30 -16 21 0 182 157 230 224 73 103 155 290 155 352 0 25
20 74 30 74 3 0 30 -35 59 -77 218 -316 227 -325 276 -290 28 21 15 80 -36
166 -54 89 -141 172 -225 214 -65 32 -75 45 -63 87 4 14 7 42 8 62 2 61 29
117 60 124 91 19 122 29 173 56 31 17 64 38 73 49 16 17 15 19 -9 43 -34 34
-73 33 -165 -4 -40 -17 -76 -30 -81 -30 -4 0 -10 42 -14 93 -10 133 -29 207
-61 234 -36 32 -52 29 -65 -11z"/>
<path d="M2725 1593 c-133 -28 -268 -61 -345 -84 -116 -35 -123 -35 -165 -3
-41 31 -97 47 -135 39 l-30 -6 29 -57 c61 -122 124 -349 146 -530 8 -64 24
-151 35 -192 24 -84 59 -170 70 -170 18 0 39 39 42 80 l3 45 140 1 c131 1 252
18 321 44 50 19 21 90 -37 90 -26 0 -29 3 -29 33 1 37 -2 28 84 347 36 135 66
258 66 274 0 19 -11 39 -34 62 -31 31 -39 34 -87 33 -30 -1 -63 -3 -74 -6z
m43 -146 c4 -19 -114 -564 -126 -586 -5 -8 -54 -23 -117 -36 -61 -13 -121 -26
-135 -29 l-26 -7 -18 133 c-10 73 -31 212 -46 308 -17 107 -24 177 -18 181 5
3 44 9 86 13 42 4 145 15 227 25 83 11 155 18 160 17 6 -2 11 -10 13 -19z"/>
</g>
</svg>
