<?xml version="1.0" standalone="no"?>
<!DOCTYPE svg PUBLIC "-//W3C//DTD SVG 20010904//EN"
 "http://www.w3.org/TR/2001/REC-SVG-20010904/DTD/svg10.dtd">
<svg version="1.0" xmlns="http://www.w3.org/2000/svg"
 width="340.000000pt" height="340.000000pt" viewBox="0 0 340.000000 340.000000"
 preserveAspectRatio="xMidYMid meet">
<metadata>
Created by potrace 1.15, written by Peter Selinger 2001-2017
</metadata>
<g transform="translate(0.000000,340.000000) scale(0.100000,-0.100000)"
fill="#000000" stroke="none">
<path d="M1398 2524 c-5 -4 -8 -17 -8 -30 0 -28 144 -156 217 -192 l53 -26 25
24 c56 52 13 126 -108 185 -70 34 -164 54 -179 39z"/>
<path d="M2145 2274 c-329 -49 -886 -155 -1096 -209 -92 -24 -89 -27 -82 68 5
77 4 85 -18 110 -13 14 -36 29 -51 33 -27 6 -28 5 -28 -32 -1 -73 -30 -178
-79 -283 -52 -111 -101 -229 -101 -243 0 -13 39 -48 54 -48 39 0 75 53 142
210 53 124 72 159 84 154 36 -14 117 -24 149 -18 20 3 99 18 176 34 398 82
936 149 1038 129 50 -9 117 -36 117 -47 0 -4 -20 -13 -44 -20 -28 -7 -61 -27
-88 -53 -40 -38 -42 -41 -25 -54 33 -24 93 -27 194 -10 105 18 142 33 186 73
33 32 33 35 1 77 -35 46 -118 100 -189 123 -95 31 -164 32 -340 6z"/>
<path d="M1983 2108 c-30 -14 -38 -43 -23 -79 12 -28 10 -33 -58 -122 -93
-121 -214 -265 -296 -352 l-66 -70 -50 54 c-56 59 -152 182 -194 249 -14 23
-33 42 -41 42 -19 0 -19 1 5 -92 26 -103 69 -188 140 -274 l58 -72 -87 -76
c-109 -95 -421 -410 -421 -426 0 -12 27 -6 70 15 29 15 241 191 408 338 l113
100 61 -29 c60 -28 60 -29 30 -36 -41 -11 -45 -30 -22 -105 11 -36 20 -78 20
-93 0 -43 -46 -75 -127 -90 -37 -6 -108 -27 -157 -45 l-90 -34 -40 30 c-43 31
-74 37 -82 15 -6 -16 154 -488 170 -498 31 -21 76 16 76 62 0 22 5 31 23 35
30 7 218 45 223 45 2 0 4 -49 4 -110 0 -106 -1 -110 -22 -115 -13 -2 -124 -27
-246 -55 -123 -28 -231 -49 -239 -45 -22 8 -50 -3 -57 -21 -27 -70 151 -97
285 -43 30 12 196 49 369 83 284 56 315 64 315 82 0 18 -7 19 -152 16 l-153
-3 0 26 c0 14 5 69 12 120 l11 95 36 5 c106 15 210 39 265 61 51 20 64 31 78
62 10 21 37 65 62 97 74 101 78 164 12 224 -25 23 -32 25 -149 24 -67 -1 -158
-8 -202 -17 -44 -9 -83 -16 -87 -16 -5 0 -8 22 -8 48 0 32 -9 66 -25 97 -13
27 -23 50 -22 51 1 1 52 -7 112 -18 81 -15 157 -21 289 -22 l180 -1 23 34 c27
39 30 98 9 139 -24 46 -114 124 -139 120 -41 -6 -46 -71 -12 -160 5 -14 -3
-18 -50 -23 -123 -16 -319 17 -439 73 l-59 27 224 233 c123 129 234 250 246
270 24 39 30 100 13 131 -5 10 -28 26 -50 35 -46 18 -47 18 -77 4z m103 -1124
c21 -5 20 -8 -17 -80 -22 -41 -39 -86 -39 -99 0 -19 -6 -25 -32 -29 -18 -3
-77 -12 -131 -21 -54 -8 -103 -15 -108 -15 -10 0 -12 70 -3 158 8 72 6 71 138
82 123 10 167 11 192 4z m-458 -76 c7 -7 12 -43 12 -93 0 -66 -3 -85 -18 -98
-19 -17 -248 -84 -257 -75 -3 3 -12 32 -21 64 -8 32 -26 83 -39 113 -14 29
-25 54 -25 56 0 1 30 5 68 9 37 3 105 12 152 20 110 18 114 18 128 4z"/>
<path d="M1512 1956 c11 -92 102 -196 173 -196 41 0 55 16 55 60 0 62 -105
152 -204 174 l-29 7 5 -45z"/>
<path d="M2230 1828 c1 -19 31 -53 65 -74 17 -10 80 -53 141 -96 118 -82 146
-91 184 -60 19 15 22 24 16 48 -15 59 -143 152 -250 180 -66 18 -156 19 -156
2z"/>
<path d="M957 1628 c-30 -62 -61 -131 -68 -153 -21 -68 -13 -195 12 -195 27 0
79 32 103 63 38 49 59 159 53 269 -5 83 -18 128 -36 128 -5 0 -33 -51 -64
-112z"/>
<path d="M2060 528 c0 -51 128 -263 204 -337 l46 -45 35 17 c66 31 58 82 -32
194 -61 77 -121 126 -195 164 -58 29 -58 29 -58 7z"/>
</g>
</svg>
