<?xml version="1.0" standalone="no"?>
<!DOCTYPE svg PUBLIC "-//W3C//DTD SVG 20010904//EN"
 "http://www.w3.org/TR/2001/REC-SVG-20010904/DTD/svg10.dtd">
<svg version="1.0" xmlns="http://www.w3.org/2000/svg"
 width="340.000000pt" height="340.000000pt" viewBox="0 0 340.000000 340.000000"
 preserveAspectRatio="xMidYMid meet">
<metadata>
Created by potrace 1.15, written by Peter Selinger 2001-2017
</metadata>
<g transform="translate(0.000000,340.000000) scale(0.100000,-0.100000)"
fill="#000000" stroke="none">
<path d="M1746 2515 c-16 -16 -14 -19 22 -59 53 -57 61 -88 64 -240 l3 -130
-72 -22 c-39 -13 -120 -33 -180 -45 -59 -12 -112 -26 -117 -30 -14 -12 21 -47
53 -54 14 -3 90 6 169 20 78 14 147 25 152 25 6 0 10 -38 10 -90 0 -49 -2 -90
-4 -90 -14 0 -339 -90 -344 -95 -4 -4 2 -13 12 -21 23 -16 72 -17 203 -5 141
14 137 17 128 -98 -3 -53 -8 -98 -11 -100 -5 -5 -395 -100 -561 -137 -73 -16
-133 -34 -133 -40 0 -23 37 -44 78 -44 22 0 184 32 359 72 602 135 639 140
1013 143 146 1 270 2 277 3 20 3 43 33 43 56 0 46 -18 55 -137 65 -150 13
-275 2 -577 -54 -137 -25 -251 -45 -253 -45 -5 0 -2 123 5 170 l7 45 60 7 c98
13 245 71 245 98 0 18 -54 50 -84 49 -17 0 -71 -8 -121 -18 -49 -10 -93 -16
-97 -14 -9 5 -8 105 1 147 6 28 10 30 100 48 102 21 184 52 261 99 41 25 48
34 40 48 -5 10 -23 24 -40 31 -27 11 -39 9 -103 -13 -76 -28 -214 -67 -233
-67 -9 0 -13 42 -16 143 -3 155 -13 188 -70 230 -38 28 -128 35 -152 12z"/>
<path d="M797 2272 c-23 -25 -21 -61 2 -86 25 -27 43 -159 45 -325 l1 -124
-115 -43 c-112 -41 -116 -42 -150 -27 -19 9 -46 16 -60 17 -33 1 -39 -34 -11
-73 12 -16 21 -34 21 -39 0 -19 68 -235 100 -319 37 -97 56 -106 107 -48 28
31 37 35 82 35 l51 0 0 -142 c0 -79 3 -159 6 -179 l6 -36 -146 -86 c-133 -79
-150 -87 -184 -81 -42 7 -64 -11 -76 -58 -4 -20 0 -34 21 -58 25 -30 29 -31
77 -25 66 9 143 44 192 87 22 19 64 51 94 70 67 42 159 115 222 176 49 47 62
48 73 5 8 -35 43 -73 66 -73 26 0 59 39 59 69 -1 85 -63 208 -130 256 -30 22
-35 23 -43 9 -8 -14 -6 -68 5 -163 3 -21 -2 -26 -35 -33 -21 -4 -51 -15 -67
-23 -16 -8 -34 -15 -40 -15 -6 0 -10 56 -10 164 l0 164 38 7 c63 10 140 61
173 113 44 70 90 222 96 323 6 86 6 87 -22 105 -17 11 -53 20 -91 22 -52 4
-72 0 -120 -22 -31 -14 -60 -24 -63 -20 -3 3 -6 76 -6 162 -1 136 -4 166 -23
225 -13 38 -32 77 -43 88 -25 25 -80 25 -102 1z m339 -585 c2 -7 -11 -69 -29
-137 -38 -136 -37 -135 -119 -139 l-28 -1 0 130 0 129 48 15 c60 19 121 20
128 3z m-276 -81 c11 -30 7 -243 -6 -255 -13 -14 -116 -51 -124 -46 -4 3 -11
26 -15 52 -4 27 -20 88 -36 138 -15 49 -26 92 -23 95 11 10 120 38 157 39 31
1 39 -3 47 -23z"/>
<path d="M1895 1244 c-77 -25 -159 -48 -182 -51 -55 -7 -68 -22 -55 -65 28
-91 21 -480 -13 -757 -9 -68 -13 -132 -10 -142 7 -20 40 -25 63 -11 14 9 48
175 58 282 7 69 7 70 33 62 14 -4 62 -7 106 -7 69 0 88 4 140 30 68 34 76 56
34 88 -37 27 -88 24 -189 -12 -100 -36 -124 -39 -116 -13 3 9 10 60 17 113
l12 96 111 5 c121 6 159 18 195 64 12 15 21 30 21 34 0 4 -20 13 -45 20 -65
18 -155 8 -209 -24 -41 -24 -44 -24 -58 -8 -21 24 -33 165 -16 179 16 13 300
37 332 29 13 -3 28 -18 34 -33 18 -45 42 -331 49 -578 l6 -229 -26 17 c-56 36
-105 13 -93 -45 16 -82 98 -148 183 -148 l40 0 17 58 c21 75 22 137 8 292 -7
69 -19 240 -27 380 -9 140 -21 270 -27 288 -5 19 -24 50 -41 69 -69 79 -149
82 -352 17z"/>
</g>
</svg>
