<?xml version="1.0" standalone="no"?>
<!DOCTYPE svg PUBLIC "-//W3C//DTD SVG 20010904//EN"
 "http://www.w3.org/TR/2001/REC-SVG-20010904/DTD/svg10.dtd">
<svg version="1.0" xmlns="http://www.w3.org/2000/svg"
 width="340.000000pt" height="340.000000pt" viewBox="0 0 340.000000 340.000000"
 preserveAspectRatio="xMidYMid meet">
<metadata>
Created by potrace 1.15, written by Peter Selinger 2001-2017
</metadata>
<g transform="translate(0.000000,340.000000) scale(0.100000,-0.100000)"
fill="#000000" stroke="none">
<path d="M2250 2570 c-8 -16 -9 -30 -1 -52 6 -17 11 -35 11 -39 0 -4 -32 -45
-72 -91 -39 -46 -86 -105 -103 -133 -39 -61 -95 -170 -95 -186 0 -19 57 -2 97
28 52 40 213 223 274 310 44 64 50 79 45 107 -9 46 -37 68 -95 74 -43 4 -51 2
-61 -18z"/>
<path d="M869 2451 c-22 -18 -23 -22 -11 -53 34 -85 41 -135 43 -322 l1 -191
-45 -20 c-24 -12 -64 -29 -87 -38 -36 -14 -41 -19 -31 -31 23 -27 68 -29 118
-5 70 34 73 25 73 -196 0 -180 0 -182 -24 -194 -12 -7 -33 -11 -46 -9 -20 3
-26 14 -42 82 -26 114 -72 200 -144 272 -69 70 -98 84 -122 61 -14 -14 -13
-19 12 -52 37 -48 135 -254 180 -380 56 -153 53 -147 76 -135 11 6 26 26 34
45 15 35 58 57 76 39 4 -5 10 -70 11 -144 l4 -134 -85 -53 c-47 -29 -142 -81
-212 -115 -136 -67 -146 -78 -112 -127 14 -20 23 -23 60 -18 55 6 223 109 554
341 l70 50 38 -37 c36 -35 40 -37 70 -26 36 12 46 36 37 82 -10 44 -30 80 -67
122 -29 34 -94 75 -118 75 -14 0 -13 -48 4 -103 16 -54 19 -51 -81 -101 l-73
-36 0 67 c0 38 3 98 7 136 5 62 8 68 32 74 47 11 118 51 142 81 13 16 60 101
104 190 44 89 82 162 85 162 5 0 123 -294 217 -539 26 -68 53 -125 60 -128 8
-3 22 2 32 11 10 9 57 25 104 35 l86 19 6 -32 c4 -17 5 -56 3 -86 l-3 -55 -50
-8 c-368 -60 -866 -190 -873 -229 -8 -41 56 -32 403 53 187 46 352 79 471 94
l51 6 8 -78 c4 -43 9 -181 10 -307 4 -240 7 -289 32 -398 11 -50 18 -65 28
-61 28 10 35 81 36 363 1 157 4 334 8 395 l6 109 75 15 c50 9 147 14 290 15
185 0 229 -3 317 -22 118 -26 146 -20 168 30 l14 33 -52 26 c-116 59 -184 61
-572 11 -184 -24 -241 -28 -247 -19 -9 14 -10 122 -2 155 4 14 14 22 28 23 11
0 58 12 103 27 l82 28 10 -23 c6 -13 17 -23 25 -23 18 0 123 139 214 283 37
58 84 131 106 162 43 64 72 138 81 211 l7 50 -68 31 c-38 17 -93 36 -123 43
-73 17 -219 8 -301 -19 -36 -12 -200 -53 -365 -91 -164 -39 -303 -74 -308 -79
-6 -6 -7 -17 -3 -27 6 -14 16 -16 74 -10 84 8 271 35 295 42 15 5 17 -2 17
-54 0 -33 -3 -79 -6 -104 -6 -44 -8 -45 -58 -61 -28 -9 -61 -24 -71 -32 -20
-15 -20 -15 0 -30 14 -11 32 -13 65 -9 35 5 49 2 59 -10 20 -24 24 -181 6
-216 -15 -29 -82 -63 -147 -75 l-36 -7 -12 59 c-18 90 -59 210 -100 293 -52
103 -136 219 -167 231 -18 7 -23 14 -18 27 40 97 14 165 -68 179 -47 7 -168
-21 -244 -57 -46 -21 -64 -26 -71 -17 -6 7 -12 112 -14 235 l-3 224 -28 24
c-34 29 -85 32 -118 5z m1599 -538 c40 -14 43 -18 37 -42 -16 -64 -102 -267
-162 -383 l-66 -127 -91 0 c-50 1 -108 -2 -128 -6 l-38 -7 0 64 c0 36 5 90 11
120 l11 55 52 12 c28 6 76 25 105 43 l55 31 -25 19 c-21 18 -33 20 -106 14
l-83 -7 0 95 0 95 33 6 c125 23 288 42 317 38 19 -2 54 -11 78 -20z m-1190
-37 c2 -10 -14 -57 -36 -105 -33 -72 -52 -123 -78 -219 -4 -13 -48 -34 -96
-46 l-28 -6 0 173 0 174 93 26 c105 30 140 30 145 3z"/>
<path d="M1560 2417 c0 -12 9 -38 20 -57 11 -19 33 -60 50 -91 38 -74 70 -99
126 -99 43 0 44 1 44 33 0 46 -41 128 -81 161 -35 30 -124 76 -146 76 -7 0
-13 -10 -13 -23z"/>
</g>
</svg>
