<?xml version="1.0" standalone="no"?>
<!DOCTYPE svg PUBLIC "-//W3C//DTD SVG 20010904//EN"
 "http://www.w3.org/TR/2001/REC-SVG-20010904/DTD/svg10.dtd">
<svg version="1.0" xmlns="http://www.w3.org/2000/svg"
 width="340.000000pt" height="340.000000pt" viewBox="0 0 340.000000 340.000000"
 preserveAspectRatio="xMidYMid meet">
<metadata>
Created by potrace 1.15, written by Peter Selinger 2001-2017
</metadata>
<g transform="translate(0.000000,340.000000) scale(0.100000,-0.100000)"
fill="#000000" stroke="none">
<path d="M1656 2414 c-21 -21 -21 -26 15 -92 l31 -57 -6 -207 c-4 -114 -9
-214 -12 -222 -6 -16 -115 -61 -236 -97 l-72 -22 28 -24 c33 -28 33 -28 131
-3 43 11 94 20 113 20 l35 0 -6 -62 c-4 -35 -9 -113 -13 -175 -6 -105 -8 -112
-31 -122 -44 -20 -80 -13 -120 24 -75 69 -96 37 -59 -87 33 -106 79 -301 106
-448 22 -114 40 -153 65 -144 7 3 19 19 25 35 18 42 35 48 136 46 95 -1 160
18 197 60 16 18 16 22 1 53 -16 32 -16 36 20 149 40 126 65 249 66 322 0 46
-1 47 -46 69 -66 31 -129 36 -198 16 -32 -10 -59 -16 -61 -14 -5 6 23 296 29
307 4 6 19 11 34 11 66 1 262 93 262 124 0 24 -46 56 -79 56 -18 0 -63 -13
-101 -30 -38 -16 -78 -30 -91 -30 -21 0 -22 3 -16 63 4 34 12 138 18 231 11
158 10 172 -7 203 -10 19 -30 41 -45 49 -37 19 -94 18 -113 -2z m274 -1109
c11 -13 8 -35 -18 -128 -18 -62 -37 -146 -43 -189 l-11 -76 -37 -7 c-20 -4
-63 -18 -95 -31 -33 -13 -61 -22 -64 -20 -2 3 -13 55 -23 118 -11 62 -29 148
-40 190 -23 83 -21 107 8 106 10 -1 63 9 118 20 55 12 116 23 135 25 19 2 40
5 46 5 6 1 17 -5 24 -13z"/>
<path d="M932 2370 c-35 -14 -42 -48 -22 -100 20 -51 38 -200 42 -338 2 -74
-1 -96 -12 -102 -8 -4 -59 -20 -113 -36 -99 -29 -114 -43 -75 -68 13 -7 30 -7
65 3 147 43 154 35 151 -157 l-3 -146 -55 -22 c-30 -12 -56 -21 -58 -19 -2 2
-10 33 -17 70 -25 116 -96 235 -178 295 -22 16 -45 26 -53 23 -20 -8 -17 -50
6 -83 11 -16 52 -117 90 -226 39 -109 75 -203 81 -211 21 -24 54 -15 70 19 16
36 66 56 97 39 15 -8 17 -27 17 -143 0 -73 4 -151 8 -173 l8 -40 -88 -52 c-48
-28 -131 -73 -185 -99 -67 -34 -102 -57 -114 -78 -17 -29 -17 -30 6 -48 41
-34 72 -23 253 85 95 57 218 130 275 161 56 32 105 62 108 67 11 18 34 8 49
-21 23 -44 62 -50 92 -16 31 36 29 73 -8 162 -33 78 -101 164 -157 197 l-31
18 -6 -35 c-5 -26 1 -51 25 -106 19 -44 29 -81 26 -95 -4 -16 -30 -34 -91 -63
-48 -23 -90 -42 -95 -42 -5 0 -7 15 -4 33 3 17 9 55 14 82 5 28 12 94 15 148
6 79 10 99 23 104 59 19 145 66 180 97 37 34 39 39 29 65 -9 25 -6 40 26 110
42 91 67 212 51 239 -19 30 -87 62 -131 62 -24 0 -66 -9 -95 -20 -78 -30 -80
-25 -82 167 -1 185 -20 272 -62 292 -29 13 -41 13 -72 1z m298 -585 c10 -12 8
-29 -14 -89 -15 -41 -30 -99 -33 -129 -5 -46 -10 -57 -30 -66 -13 -6 -32 -11
-41 -11 -36 0 -42 20 -42 152 0 70 1 128 3 128 1 0 20 7 42 15 52 19 99 19
115 0z"/>
<path d="M2420 2154 c-85 -30 -174 -62 -198 -71 -63 -23 -68 -40 -43 -164 34
-169 44 -315 38 -528 -8 -310 -65 -581 -174 -824 -25 -57 -36 -96 -39 -150
l-5 -72 31 35 c74 83 178 338 240 591 l22 85 83 -4 c73 -4 89 -1 139 21 71 33
79 51 38 89 -43 38 -88 37 -168 -4 -35 -18 -66 -29 -70 -25 -3 3 0 86 7 184
l14 177 60 2 c33 2 73 8 90 14 35 13 95 57 95 69 0 15 -67 41 -105 41 -20 0
-59 -10 -86 -21 -27 -12 -52 -19 -55 -16 -3 3 -7 72 -8 153 -3 130 -13 217
-32 276 -4 13 8 19 64 32 86 20 246 38 265 30 8 -3 20 -17 25 -32 6 -15 13
-176 17 -362 8 -453 42 -1147 60 -1228 8 -34 -19 -38 -58 -8 -35 27 -85 34
-104 15 -28 -28 55 -167 134 -222 48 -34 113 -41 139 -16 30 31 31 79 3 299
-62 502 -85 879 -69 1156 25 435 25 415 -1 454 -30 44 -100 80 -154 79 -22 0
-110 -25 -195 -55z"/>
</g>
</svg>
