<?xml version="1.0" standalone="no"?>
<!DOCTYPE svg PUBLIC "-//W3C//DTD SVG 20010904//EN"
 "http://www.w3.org/TR/2001/REC-SVG-20010904/DTD/svg10.dtd">
<svg version="1.0" xmlns="http://www.w3.org/2000/svg"
 width="340.000000pt" height="340.000000pt" viewBox="0 0 340.000000 340.000000"
 preserveAspectRatio="xMidYMid meet">
<metadata>
Created by potrace 1.15, written by Peter Selinger 2001-2017
</metadata>
<g transform="translate(0.000000,340.000000) scale(0.100000,-0.100000)"
fill="#000000" stroke="none">
<path d="M1205 2480 c-4 -7 -15 -37 -24 -66 -15 -49 -36 -74 -239 -284 -181
-186 -222 -234 -217 -250 14 -43 57 -20 239 126 61 49 167 144 238 212 l128
124 0 54 c0 45 -4 56 -24 69 -33 22 -91 30 -101 15z"/>
<path d="M2160 2289 c-210 -73 -484 -151 -550 -158 -56 -5 -65 -9 -65 -26 0
-16 10 -21 55 -28 86 -13 244 -1 340 26 47 14 119 32 161 41 78 17 195 67 248
107 26 19 29 25 19 43 -25 48 -57 47 -208 -5z"/>
<path d="M1141 1957 c-7 -9 -8 -24 -1 -48 18 -62 12 -87 -42 -167 -127 -191
-319 -431 -484 -605 -57 -61 -74 -86 -74 -108 l0 -29 38 19 c84 43 170 121
314 287 84 95 154 172 156 170 2 -3 -1 -91 -7 -198 -13 -215 -39 -466 -77
-724 -27 -189 -24 -224 19 -224 45 0 56 20 81 145 52 256 82 785 56 1002 -13
114 -11 123 50 168 43 32 84 90 110 155 18 47 20 61 11 92 -6 20 -23 46 -38
57 -29 24 -95 28 -112 8z"/>
<path d="M2550 1789 c-376 -55 -643 -104 -925 -171 -93 -22 -195 -43 -225 -46
-50 -6 -55 -9 -55 -32 0 -25 1 -25 90 -28 113 -4 227 11 375 48 63 16 135 30
160 32 43 3 46 1 63 -34 37 -75 72 -617 61 -940 -4 -109 -9 -198 -11 -198 -2
0 -22 9 -44 21 -23 11 -60 21 -82 22 -40 2 -42 1 -45 -30 -4 -42 14 -75 85
-151 49 -53 65 -64 98 -69 25 -3 55 1 76 10 l36 15 6 193 c11 322 -19 1125
-44 1170 -5 11 -4 20 4 27 23 18 213 36 406 37 190 1 194 1 212 24 28 34 24
68 -8 85 -38 19 -154 26 -233 15z"/>
</g>
</svg>
