<?xml version="1.0" standalone="no"?>
<!DOCTYPE svg PUBLIC "-//W3C//DTD SVG 20010904//EN"
 "http://www.w3.org/TR/2001/REC-SVG-20010904/DTD/svg10.dtd">
<svg version="1.0" xmlns="http://www.w3.org/2000/svg"
 width="340.000000pt" height="340.000000pt" viewBox="0 0 340.000000 340.000000"
 preserveAspectRatio="xMidYMid meet">
<metadata>
Created by potrace 1.15, written by Peter Selinger 2001-2017
</metadata>
<g transform="translate(0.000000,340.000000) scale(0.100000,-0.100000)"
fill="#000000" stroke="none">
<path d="M1240 2500 c-26 -16 -2 -59 48 -84 64 -33 164 -73 202 -81 42 -9 70
16 70 61 0 28 -7 39 -42 64 -22 17 -57 34 -77 40 -42 11 -183 11 -201 0z"/>
<path d="M2000 2359 c-221 -55 -1060 -209 -1140 -209 -45 0 -112 -26 -114 -45
-2 -17 126 -44 214 -44 56 0 137 10 235 29 83 17 155 30 162 30 23 0 47 -201
26 -213 -5 -3 -96 -17 -203 -32 -127 -18 -199 -32 -206 -41 -14 -18 -25 -18
-60 1 -36 18 -45 19 -69 1 -18 -13 -17 -16 23 -69 61 -81 100 -150 139 -247
53 -131 90 -157 152 -104 40 33 80 44 168 44 71 0 71 0 78 -30 8 -38 2 -47
-38 -55 -48 -11 -67 -32 -67 -76 0 -33 -10 -49 -93 -141 -145 -160 -312 -306
-498 -434 -106 -73 -129 -96 -129 -128 0 -13 6 -13 52 1 93 27 179 80 377 234
106 83 197 147 201 142 34 -35 40 -322 10 -475 -12 -57 -24 -145 -27 -195 l-6
-93 39 -16 c47 -20 98 -13 130 17 38 35 204 266 266 368 48 81 55 98 43 110
-26 26 -61 2 -167 -116 -57 -65 -117 -131 -132 -148 l-27 -30 5 110 c3 61 13
162 22 225 18 128 10 217 -25 307 l-19 49 60 62 c33 34 61 62 61 62 1 0 76
-73 167 -163 266 -263 544 -497 643 -542 107 -49 209 -68 340 -63 97 4 123 9
145 25 33 25 37 37 17 57 -18 18 -19 18 -163 40 -238 36 -540 196 -722 381
l-55 55 65 57 c36 31 108 100 161 155 74 75 98 107 102 133 13 77 -29 124 -99
111 -25 -5 -34 -12 -34 -27 0 -37 -30 -92 -83 -153 -43 -49 -165 -201 -173
-214 -1 -2 -44 29 -95 69 -52 39 -113 82 -137 96 -73 43 -80 80 -26 127 31 27
37 39 41 83 l5 51 82 12 c95 14 184 33 279 61 l67 20 0 37 c0 27 9 51 31 80
47 64 69 132 69 211 l0 69 -31 6 c-64 12 -205 6 -286 -14 -93 -22 -222 -40
-228 -31 -2 4 -5 53 -6 111 l-3 105 65 12 c35 6 154 22 264 34 228 25 277 41
283 93 2 16 -2 40 -9 53 -14 25 -51 29 -119 12z m-118 -607 l-53 -109 -117
-17 c-64 -9 -130 -19 -145 -22 l-28 -6 3 119 3 118 65 11 c36 7 124 12 195 13
l130 1 -53 -108z m-486 18 c7 -16 10 -57 7 -111 l-5 -85 -112 -22 c-62 -12
-117 -22 -123 -22 -5 0 -26 33 -46 73 -20 39 -52 91 -73 115 -20 24 -34 45
-31 48 3 3 56 10 119 15 62 5 118 11 123 14 6 2 37 3 70 2 53 -2 61 -5 71 -27z"/>
</g>
</svg>
