<?xml version="1.0" standalone="no"?>
<!DOCTYPE svg PUBLIC "-//W3C//DTD SVG 20010904//EN"
 "http://www.w3.org/TR/2001/REC-SVG-20010904/DTD/svg10.dtd">
<svg version="1.0" xmlns="http://www.w3.org/2000/svg"
 width="340.000000pt" height="340.000000pt" viewBox="0 0 340.000000 340.000000"
 preserveAspectRatio="xMidYMid meet">
<metadata>
Created by potrace 1.15, written by Peter Selinger 2001-2017
</metadata>
<g transform="translate(0.000000,340.000000) scale(0.100000,-0.100000)"
fill="#000000" stroke="none">
<path d="M1832 2444 c-31 -21 -28 -40 13 -75 20 -18 39 -46 44 -67 5 -21 12
-128 16 -239 7 -195 6 -202 -13 -212 -11 -6 -86 -38 -166 -70 -146 -60 -146
-60 -157 -38 -20 39 -61 76 -96 88 -19 6 -36 9 -37 7 -2 -1 9 -91 25 -198 32
-220 34 -286 14 -450 -29 -246 -91 -451 -204 -685 -66 -135 -97 -230 -89 -270
6 -33 100 102 177 254 102 201 171 398 208 590 9 48 18 88 20 90 2 3 63 -54
136 -125 72 -72 158 -152 190 -180 l57 -49 -75 -82 c-95 -103 -202 -192 -332
-277 -71 -46 -103 -72 -103 -85 0 -30 19 -30 90 -4 154 57 250 123 412 282
l88 85 52 -59 c105 -121 267 -266 397 -354 66 -45 142 -61 289 -61 97 0 116 9
110 51 -2 19 -19 29 -93 55 -261 92 -403 177 -580 346 l-118 113 68 119 c90
160 168 333 161 361 -9 37 -51 89 -79 99 -33 12 -68 3 -190 -49 -48 -21 -90
-36 -93 -32 -3 3 6 92 21 199 14 106 28 212 31 236 6 49 26 63 126 87 78 18
228 20 228 3 0 -6 -22 -32 -49 -57 -55 -52 -71 -78 -71 -116 0 -26 2 -27 38
-20 56 10 167 72 222 124 76 72 79 139 7 178 -26 15 -55 18 -162 17 -129 -1
-154 -6 -316 -60 -15 -5 -17 18 -21 223 -3 132 -10 240 -16 255 -24 58 -128
88 -180 52z m71 -749 c-6 -210 -5 -373 1 -393 7 -20 0 -25 -73 -59 -45 -20
-81 -39 -81 -43 0 -8 35 -26 66 -35 12 -3 41 1 65 10 124 45 153 55 219 74
l71 20 -6 -32 c-9 -39 -51 -145 -100 -250 l-36 -78 -59 55 c-122 112 -276 215
-339 226 -28 4 -36 10 -34 25 20 176 22 246 13 343 -5 59 -10 110 -10 114 0 4
44 21 98 37 216 66 208 67 205 -14z"/>
<path d="M901 2307 c-8 -10 -7 -18 2 -30 17 -22 143 -79 251 -113 86 -26 89
-27 102 -9 31 42 12 95 -44 124 -75 38 -286 57 -311 28z"/>
<path d="M1103 1870 c-104 -63 -554 -290 -575 -290 -14 0 -36 -9 -49 -19 -37
-30 -13 -45 79 -49 l77 -4 199 101 c110 56 201 99 204 96 17 -17 -121 -245
-409 -677 -126 -188 -145 -228 -111 -228 32 0 203 198 350 407 61 87 67 92 75
71 10 -28 -8 -463 -28 -698 -30 -336 -31 -344 -6 -369 21 -21 52 -22 75 -1 18
17 35 220 41 507 4 164 10 336 14 382 l6 84 33 -51 c48 -74 121 -129 205 -153
35 -10 42 4 33 66 -10 60 -44 99 -127 141 -38 19 -69 38 -69 42 0 4 21 18 47
32 27 14 81 56 121 95 74 69 74 70 69 113 -3 25 -13 53 -24 63 -24 25 -80 34
-117 20 -27 -11 -28 -14 -23 -53 5 -38 2 -46 -30 -81 -42 -47 -63 -94 -63
-142 0 -32 -3 -35 -29 -35 -16 0 -33 6 -39 13 -13 16 -34 145 -26 159 4 6 29
40 56 75 64 86 158 277 158 323 0 44 -8 56 -43 69 -37 14 -37 14 -74 -9z"/>
</g>
</svg>
