<?xml version="1.0" standalone="no"?>
<!DOCTYPE svg PUBLIC "-//W3C//DTD SVG 20010904//EN"
 "http://www.w3.org/TR/2001/REC-SVG-20010904/DTD/svg10.dtd">
<svg version="1.0" xmlns="http://www.w3.org/2000/svg"
 width="340.000000pt" height="340.000000pt" viewBox="0 0 340.000000 340.000000"
 preserveAspectRatio="xMidYMid meet">
<metadata>
Created by potrace 1.15, written by Peter Selinger 2001-2017
</metadata>
<g transform="translate(0.000000,340.000000) scale(0.100000,-0.100000)"
fill="#000000" stroke="none">
<path d="M2122 2574 c-27 -19 -28 -48 -2 -107 30 -68 44 -275 37 -567 -6 -241
-6 -245 -29 -263 -52 -41 -58 -48 -58 -67 0 -12 18 -40 39 -63 38 -40 41 -42
101 -42 55 0 65 3 82 25 23 31 22 16 16 570 -5 482 -4 475 -81 511 -51 23 -76
24 -105 3z"/>
<path d="M1076 2424 c-170 -62 -321 -114 -335 -114 -14 0 -46 -9 -70 -21 -41
-18 -43 -21 -28 -36 34 -34 182 -23 305 25 12 4 14 -1 10 -29 -12 -73 -52
-133 -173 -260 -109 -115 -190 -225 -209 -287 -6 -19 -4 -22 17 -22 37 0 117
45 149 84 17 20 39 36 50 36 12 0 44 -22 72 -48 28 -26 62 -56 76 -65 l24 -17
-24 -17 c-56 -39 -147 -122 -203 -186 -56 -62 -59 -69 -45 -84 12 -11 26 -14
50 -9 62 11 405 294 600 494 86 88 108 117 114 147 8 45 -6 77 -48 108 -25 19
-29 19 -96 4 -89 -20 -224 -72 -254 -98 -22 -18 -22 -19 -4 -34 10 -8 39 -17
65 -20 25 -3 60 -9 77 -13 l32 -7 -77 -84 -78 -84 -45 27 c-26 15 -74 33 -109
40 l-62 12 121 128 c119 123 162 184 162 225 0 11 -8 36 -17 56 -9 19 -15 36
-12 38 2 1 45 12 94 25 50 12 133 44 185 70 80 40 95 51 98 73 4 36 -22 59
-66 58 -21 0 -169 -49 -346 -115z"/>
<path d="M1716 2228 c-12 -40 -15 -90 -13 -208 3 -131 7 -166 27 -223 13 -38
30 -71 37 -74 20 -8 62 35 74 78 19 61 6 301 -20 379 -26 81 -30 87 -63 95
-25 7 -28 4 -42 -47z"/>
<path d="M1325 1675 c-14 -13 -25 -31 -25 -39 0 -40 106 -92 215 -104 87 -10
104 -6 123 34 15 32 15 38 1 62 -20 38 -120 70 -217 71 -65 1 -76 -2 -97 -24z"/>
<path d="M1505 1421 c-209 -59 -432 -124 -495 -144 -63 -20 -131 -40 -149 -45
l-35 -8 22 -22 c15 -15 34 -22 62 -22 39 0 310 50 378 69 28 9 33 8 28 -5 -40
-105 -357 -428 -651 -664 -86 -70 -104 -88 -105 -108 0 -27 34 -24 94 8 163
88 336 215 489 358 l92 86 7 -40 c4 -21 7 -104 7 -184 1 -142 -11 -243 -43
-365 -14 -55 -14 -62 4 -102 32 -72 106 -67 183 11 94 96 301 406 283 424 -4
3 -22 6 -42 6 -31 0 -47 -12 -147 -112 l-112 -112 0 218 c0 216 0 217 -28 276
l-28 60 29 35 c16 20 47 49 69 64 l40 29 250 -209 c350 -292 585 -474 641
-496 95 -39 188 -58 309 -64 104 -5 126 -3 148 11 29 19 32 47 8 67 -10 8 -54
25 -98 38 -44 12 -105 33 -135 46 -30 12 -104 44 -165 69 -60 26 -146 67 -190
92 -114 66 -355 245 -355 264 0 4 33 19 73 35 91 35 236 107 306 152 l53 34
-5 45 c-2 25 -13 54 -22 64 -37 40 -91 22 -221 -74 -49 -36 -118 -80 -154 -97
-36 -18 -79 -42 -97 -55 -17 -13 -34 -24 -38 -24 -3 0 -38 22 -78 49 -40 26
-98 63 -129 81 -32 17 -58 33 -58 35 0 1 7 19 15 38 8 20 15 47 15 60 0 21 7
25 89 40 93 18 203 51 282 85 72 31 77 92 9 106 -15 3 -176 -38 -405 -103z"/>
</g>
</svg>
