<?xml version="1.0" standalone="no"?>
<!DOCTYPE svg PUBLIC "-//W3C//DTD SVG 20010904//EN"
 "http://www.w3.org/TR/2001/REC-SVG-20010904/DTD/svg10.dtd">
<svg version="1.0" xmlns="http://www.w3.org/2000/svg"
 width="340.000000pt" height="340.000000pt" viewBox="0 0 340.000000 340.000000"
 preserveAspectRatio="xMidYMid meet">
<metadata>
Created by potrace 1.15, written by Peter Selinger 2001-2017
</metadata>
<g transform="translate(0.000000,340.000000) scale(0.100000,-0.100000)"
fill="#000000" stroke="none">
<path d="M1691 2614 c-25 -32 -26 -52 -6 -101 13 -30 16 -110 19 -457 1 -232
6 -429 11 -438 19 -47 75 -3 75 59 0 66 23 78 170 92 129 12 310 45 342 62 22
12 24 61 3 79 -27 22 -219 -5 -403 -57 l-64 -18 -20 25 c-17 20 -19 36 -16 87
5 82 18 95 106 104 37 4 94 17 127 28 63 22 135 65 135 81 0 15 -56 40 -90 40
-16 0 -80 -20 -142 -45 -61 -25 -114 -42 -117 -39 -8 8 -3 154 7 189 8 30 9
30 98 36 102 8 156 20 237 56 63 29 71 46 34 81 -15 14 -36 22 -60 22 -36 0
-174 -41 -250 -74 -42 -18 -38 -23 -58 64 -6 30 -18 72 -27 93 -24 62 -76 76
-111 31z"/>
<path d="M1151 2534 l-20 -26 54 -50 c62 -56 75 -87 52 -122 -12 -18 -28 -25
-71 -30 -80 -10 -221 -40 -303 -65 -57 -17 -73 -26 -73 -40 0 -25 19 -31 100
-31 82 0 215 22 293 49 l57 20 0 -220 0 -219 -39 0 c-64 0 -209 -29 -308 -62
-81 -26 -93 -34 -93 -53 0 -35 24 -49 73 -42 77 11 221 58 293 96 l72 37 4
-51 c2 -28 15 -73 27 -99 20 -39 26 -45 36 -34 32 32 45 108 45 251 0 78 5
252 11 386 11 226 11 247 -6 276 -22 42 -52 55 -125 55 -51 0 -61 -3 -79 -26z"/>
<path d="M1083 2056 c-103 -28 -263 -96 -263 -112 0 -25 30 -37 78 -31 74 9
201 53 269 93 53 32 61 40 52 56 -12 23 -34 22 -136 -6z"/>
<path d="M1388 1672 c-27 -5 -22 -28 18 -88 38 -56 96 -99 151 -110 29 -6 31
-4 35 32 10 82 -27 137 -101 150 -20 3 -47 9 -61 13 -14 4 -33 5 -42 3z"/>
<path d="M1935 1534 c-301 -66 -493 -112 -729 -176 -143 -38 -299 -76 -348
-86 -66 -12 -88 -20 -88 -32 1 -48 38 -55 177 -30 98 17 293 63 366 86 23 7
23 -35 1 -79 -25 -49 -224 -266 -472 -516 -122 -124 -222 -231 -222 -238 0 -8
7 -16 15 -19 31 -12 311 212 499 399 65 65 121 115 125 112 12 -12 13 -320 1
-415 -6 -52 -22 -147 -36 -210 l-24 -114 22 -23 c16 -17 33 -23 62 -23 37 0
46 6 116 78 93 94 181 211 248 329 60 106 68 129 47 136 -20 8 -148 -106 -249
-222 -43 -50 -80 -91 -80 -91 -1 0 1 30 5 68 13 114 10 334 -7 461 l-15 121
22 32 c48 70 48 70 83 45 61 -44 475 -364 665 -515 251 -199 291 -217 501
-217 l124 0 10 29 c9 24 7 31 -13 47 -13 10 -36 19 -52 19 -81 0 -382 131
-529 229 -94 63 -273 203 -277 216 -1 6 34 29 79 53 114 60 282 160 319 191
24 20 32 36 36 73 5 40 3 48 -18 61 -35 22 -82 29 -112 18 -21 -8 -27 -17 -27
-40 0 -41 -40 -85 -113 -122 -66 -33 -133 -81 -206 -146 l-45 -39 -93 58 c-52
33 -128 78 -169 100 -41 22 -74 43 -74 46 1 4 7 18 15 32 8 14 14 46 15 71 l0
47 83 22 c125 34 252 59 384 74 158 18 193 37 193 102 0 22 -3 24 -52 23 -29
0 -102 -12 -163 -25z"/>
</g>
</svg>
