<?xml version="1.0" standalone="no"?>
<!DOCTYPE svg PUBLIC "-//W3C//DTD SVG 20010904//EN"
 "http://www.w3.org/TR/2001/REC-SVG-20010904/DTD/svg10.dtd">
<svg version="1.0" xmlns="http://www.w3.org/2000/svg"
 width="340.000000pt" height="340.000000pt" viewBox="0 0 340.000000 340.000000"
 preserveAspectRatio="xMidYMid meet">
<metadata>
Created by potrace 1.15, written by Peter Selinger 2001-2017
</metadata>
<g transform="translate(0.000000,340.000000) scale(0.100000,-0.100000)"
fill="#000000" stroke="none">
<path d="M948 2434 c-18 -17 -6 -44 25 -60 17 -9 55 -31 82 -50 92 -62 225
-95 239 -58 24 62 -8 103 -111 141 -69 25 -221 43 -235 27z"/>
<path d="M2213 2310 c-178 -32 -479 -99 -588 -130 -83 -24 -144 -26 -171 -5
-22 17 -64 20 -64 5 0 -6 22 -54 49 -108 63 -126 122 -289 155 -427 41 -169
46 -186 62 -192 8 -3 23 2 33 11 22 20 105 36 188 36 l64 0 -7 -87 c-3 -49 -9
-91 -13 -94 -15 -14 -326 -120 -428 -145 -102 -25 -111 -29 -102 -45 5 -11 20
-21 32 -24 13 -4 114 14 224 39 111 25 207 46 213 46 15 0 8 -20 -33 -89 -20
-33 -121 -143 -261 -283 -202 -202 -227 -231 -214 -244 20 -21 46 -9 148 66
117 86 196 155 323 279 l107 106 1 -85 c4 -343 -4 -510 -28 -648 -11 -66 77
-118 131 -77 18 14 18 31 12 442 l-7 428 27 -30 c14 -16 81 -93 148 -170 191
-221 331 -358 397 -388 74 -35 129 -46 214 -47 78 0 95 9 95 51 0 31 -14 44
-55 55 -44 11 -227 117 -335 194 -120 86 -255 199 -390 327 -101 96 -104 101
-93 126 14 30 17 31 168 49 144 17 350 17 499 -1 104 -13 122 -13 145 0 34 19
37 49 8 81 -53 57 -221 61 -587 14 -113 -14 -213 -26 -222 -26 -16 0 -18 11
-18 88 0 55 5 94 13 104 8 11 44 20 111 28 86 10 101 15 122 38 54 60 168 241
220 349 90 189 108 297 57 345 -76 70 -135 77 -350 38z m219 -120 l37 -11 -39
-109 c-45 -126 -105 -265 -158 -365 l-37 -70 -75 -7 c-41 -4 -82 -5 -91 -2
-20 6 -32 113 -21 194 7 53 8 55 42 60 65 11 100 42 100 88 0 23 -25 32 -87
32 l-43 0 0 68 c0 37 -3 77 -6 89 -7 24 2 28 99 44 65 10 229 4 279 -11z
m-533 -66 c27 -22 31 -32 31 -75 0 -81 -16 -100 -119 -143 -50 -21 -93 -42
-97 -47 -14 -24 119 -37 185 -18 8 2 21 -7 29 -21 12 -21 13 -45 7 -122 l-7
-96 -105 -26 c-59 -15 -109 -23 -113 -19 -4 4 -20 74 -34 155 -28 157 -47 215
-101 315 -19 34 -31 64 -26 67 8 5 260 50 308 55 6 0 25 -11 42 -25z"/>
<path d="M1025 1923 c-88 -41 -243 -111 -345 -155 -102 -44 -189 -84 -195 -89
-7 -7 -3 -15 10 -25 41 -32 224 15 415 106 69 33 140 63 159 66 l33 7 -28 -44
c-150 -239 -330 -474 -527 -687 -76 -83 -119 -153 -104 -168 8 -8 67 25 124
69 28 22 122 122 210 223 l158 182 9 -56 c12 -73 -9 -626 -33 -851 -18 -175
-14 -209 25 -203 36 6 44 28 64 163 26 181 40 393 40 637 0 111 3 202 8 202 4
0 18 -16 31 -36 38 -56 110 -114 186 -150 69 -34 70 -34 77 -13 11 30 -7 91
-34 116 -27 23 -107 77 -147 97 -15 8 -47 16 -72 19 -36 3 -45 8 -51 28 -4 13
-12 43 -19 66 -16 58 -7 83 58 155 72 80 139 184 175 270 27 63 28 70 14 97
-9 16 -29 34 -47 40 -18 6 -32 11 -33 10 -1 0 -73 -34 -161 -76z"/>
<path d="M1222 1624 c-15 -10 -22 -26 -22 -47 0 -22 -10 -41 -30 -61 -37 -36
-55 -92 -46 -140 8 -42 7 -41 49 -20 90 46 167 140 167 206 0 63 -67 98 -118
62z"/>
</g>
</svg>
