<?xml version="1.0" standalone="no"?>
<!DOCTYPE svg PUBLIC "-//W3C//DTD SVG 20010904//EN"
 "http://www.w3.org/TR/2001/REC-SVG-20010904/DTD/svg10.dtd">
<svg version="1.0" xmlns="http://www.w3.org/2000/svg"
 width="340.000000pt" height="340.000000pt" viewBox="0 0 340.000000 340.000000"
 preserveAspectRatio="xMidYMid meet">
<metadata>
Created by potrace 1.15, written by Peter Selinger 2001-2017
</metadata>
<g transform="translate(0.000000,340.000000) scale(0.100000,-0.100000)"
fill="#000000" stroke="none">
<path d="M1483 2478 c7 -74 66 -199 108 -231 19 -14 46 -28 61 -32 25 -6 28
-4 38 34 16 61 -1 109 -62 176 -28 31 -74 68 -101 82 l-50 25 6 -54z"/>
<path d="M2036 2485 c-11 -30 -6 -62 14 -88 l20 -26 -197 -196 -198 -196 -196
-39 c-108 -22 -265 -55 -348 -75 -84 -19 -161 -35 -172 -35 -12 0 -19 -7 -19
-20 0 -19 7 -20 98 -20 116 0 181 10 367 55 287 70 523 101 844 112 228 7 241
2 140 -50 -64 -33 -99 -69 -99 -103 0 -25 1 -25 58 -19 131 15 285 72 316 116
23 34 20 76 -8 104 -13 13 -57 34 -97 47 -64 20 -95 23 -224 23 -125 0 -165
-4 -240 -23 -49 -13 -124 -26 -165 -29 l-75 -4 30 23 c87 67 228 184 289 240
l69 63 -8 44 c-4 25 -19 56 -35 74 -24 27 -35 31 -92 35 -54 3 -66 1 -72 -13z"/>
<path d="M1010 2350 c0 -46 111 -230 178 -294 44 -41 73 -44 107 -9 51 51 -66
218 -205 292 -68 36 -80 38 -80 11z"/>
<path d="M794 1995 c-7 -19 -14 -57 -14 -84 0 -34 -20 -109 -64 -243 -60 -178
-64 -194 -49 -210 22 -25 65 -23 90 5 30 32 88 161 108 237 12 48 16 95 13
178 -3 105 -5 115 -27 133 -32 26 -40 24 -57 -16z"/>
<path d="M1840 1713 c-100 -15 -239 -50 -335 -84 -63 -21 -121 -39 -130 -39
-8 0 -23 -9 -33 -20 l-19 -20 -40 22 c-38 21 -42 21 -66 5 l-25 -16 24 -73
c43 -125 56 -235 50 -397 -3 -81 -8 -168 -12 -194 -6 -49 10 -132 28 -143 15
-10 54 23 72 59 23 50 24 591 1 657 -8 23 -15 46 -15 50 0 12 307 50 454 57
l136 6 1 -29 c1 -16 5 -200 8 -408 l6 -379 25 -19 c32 -23 55 -16 76 24 13 25
17 96 21 432 l5 401 -23 35 c-42 61 -117 88 -209 73z"/>
<path d="M1631 1403 c-6 -21 -11 -72 -11 -114 0 -133 -64 -314 -165 -469 -72
-110 -210 -242 -345 -332 -108 -72 -140 -101 -169 -155 -11 -22 -10 -23 22
-23 21 0 64 18 122 51 309 176 518 424 634 752 25 71 31 105 31 168 0 94 -16
132 -61 148 -45 16 -47 15 -58 -26z"/>
<path d="M1716 919 c-3 -17 -6 -47 -6 -66 0 -19 -9 -81 -21 -136 -13 -61 -22
-145 -23 -207 -1 -99 1 -108 29 -159 41 -74 82 -104 175 -130 175 -48 389 -63
570 -40 101 12 160 42 184 92 30 65 45 230 26 297 -17 60 -24 66 -55 46 -40
-27 -65 -90 -65 -169 0 -57 -4 -71 -23 -91 -38 -38 -152 -61 -302 -61 -142 0
-199 12 -311 66 -57 27 -62 32 -78 81 -28 89 -38 189 -27 274 19 132 15 171
-18 205 -37 37 -47 37 -55 -2z"/>
</g>
</svg>
