<?xml version="1.0" standalone="no"?>
<!DOCTYPE svg PUBLIC "-//W3C//DTD SVG 20010904//EN"
 "http://www.w3.org/TR/2001/REC-SVG-20010904/DTD/svg10.dtd">
<svg version="1.0" xmlns="http://www.w3.org/2000/svg"
 width="340.000000pt" height="340.000000pt" viewBox="0 0 340.000000 340.000000"
 preserveAspectRatio="xMidYMid meet">
<metadata>
Created by potrace 1.15, written by Peter Selinger 2001-2017
</metadata>
<g transform="translate(0.000000,340.000000) scale(0.100000,-0.100000)"
fill="#000000" stroke="none">
<path d="M1309 2593 c-5 -15 -15 -63 -21 -107 -13 -88 -31 -116 -75 -116 -16
0 -65 -9 -111 -20 -46 -11 -85 -20 -87 -20 -2 0 -15 24 -29 53 -36 75 -98 137
-138 137 -32 0 -31 -25 6 -122 19 -51 32 -96 28 -100 -4 -3 -76 -25 -159 -49
-146 -41 -152 -43 -136 -61 21 -24 82 -23 175 1 40 11 91 22 113 26 38 5 41 4
60 -32 15 -28 26 -38 45 -38 21 0 26 6 30 35 4 20 9 41 13 47 12 19 98 43 155
43 53 0 54 0 48 -26 -16 -62 46 -73 86 -14 36 52 71 68 182 85 51 8 121 25
156 38 l62 23 -24 29 c-21 24 -34 29 -84 33 -32 2 -84 -1 -115 -6 l-57 -9 2
63 c1 67 -13 92 -66 120 -38 20 -47 18 -59 -13z"/>
<path d="M1907 2583 c-15 -4 -16 -13 -11 -73 l7 -68 -62 -93 c-66 -97 -108
-176 -141 -259 l-20 -50 30 0 c17 0 46 -7 66 -15 34 -14 148 -115 164 -146 7
-11 -8 -33 -58 -85 -39 -41 -83 -100 -105 -142 l-38 -71 42 14 c62 22 106 52
181 122 37 35 76 63 87 63 11 0 53 -33 98 -78 115 -115 236 -163 375 -147 l58
7 0 39 c0 46 -20 62 -95 79 -71 16 -219 90 -297 149 -38 29 -68 55 -68 59 0 4
14 27 30 52 40 59 60 129 60 205 0 52 -4 65 -24 84 l-24 23 -15 -24 c-9 -12
-21 -43 -27 -68 -12 -46 -61 -151 -85 -183 -12 -17 -20 -15 -119 44 -58 34
-106 65 -106 68 0 12 33 56 74 99 48 50 56 52 281 87 179 27 240 48 275 92 28
36 25 50 -16 63 -63 21 -131 8 -233 -44 -153 -78 -263 -114 -205 -65 29 24 57
93 57 139 1 91 -57 144 -136 123z"/>
<path d="M1040 2138 c-23 -29 -59 -67 -80 -85 -44 -38 -80 -105 -80 -151 0
-30 2 -32 28 -26 40 10 120 51 161 83 30 24 52 31 131 41 52 6 140 10 195 8
l100 -3 3 -40 c3 -50 -52 -255 -108 -396 l-42 -107 -44 25 c-54 30 -86 25
-104 -16 -11 -26 -9 -35 9 -65 12 -18 37 -46 57 -61 19 -15 34 -29 32 -30 -2
-2 -73 -16 -158 -30 -85 -14 -229 -40 -320 -57 -91 -17 -190 -30 -221 -29 -40
0 -61 -4 -69 -15 -20 -23 -2 -34 91 -50 96 -18 222 -13 315 12 282 74 699 133
1099 155 175 10 272 10 479 0 l260 -13 18 22 c24 30 23 63 -3 86 -20 18 -39
19 -288 17 -232 -1 -317 -6 -665 -42 -220 -22 -401 -39 -403 -37 -2 2 10 26
27 52 17 27 40 79 51 116 11 38 24 68 29 68 6 0 10 -4 10 -10 0 -5 17 -29 38
-52 41 -45 121 -88 166 -88 28 0 29 0 24 50 -8 77 -60 120 -147 120 -22 0 -48
8 -61 18 l-22 18 30 90 c39 114 54 200 50 294 l-3 75 -55 30 c-46 24 -67 29
-126 30 -63 0 -79 -4 -146 -38 -93 -47 -112 -46 -116 8 -4 51 -26 75 -68 75
-27 0 -39 -8 -74 -52z"/>
<path d="M987 1859 c-131 -54 -173 -67 -187 -59 -10 6 -29 10 -41 10 -20 0
-21 -4 -17 -45 8 -67 124 -295 151 -295 4 0 31 16 60 35 28 19 59 35 67 35 32
1 148 48 203 83 51 33 56 39 51 64 -3 18 3 43 16 68 31 60 27 100 -14 141 -51
51 -86 47 -289 -37z m133 -109 c0 -39 -47 -91 -115 -128 l-54 -30 -34 72 -34
71 30 13 c30 13 117 29 175 31 29 1 32 -2 32 -29z"/>
<path d="M1920 1169 c-134 -33 -492 -111 -550 -119 -116 -16 -135 -39 -59 -71
25 -10 47 -10 112 0 579 86 609 91 640 119 26 23 22 61 -9 72 -30 12 -85 11
-134 -1z"/>
<path d="M1865 914 c-66 -14 -237 -46 -380 -73 -239 -44 -260 -49 -263 -69 -6
-38 26 -44 156 -32 266 26 630 86 671 112 25 15 38 55 23 70 -19 19 -88 16
-207 -8z"/>
<path d="M1880 645 c-96 -18 -233 -47 -303 -64 -159 -38 -181 -39 -239 -2 -79
50 -138 50 -138 0 0 -11 21 -47 46 -81 56 -75 99 -166 118 -249 23 -96 61
-122 116 -79 18 14 41 20 83 20 96 0 430 31 467 44 41 13 51 42 21 63 l-21 14
32 47 c17 26 49 66 69 90 55 63 75 122 60 173 -21 70 -55 73 -311 24z m130
-129 c-5 -13 -29 -53 -53 -89 -25 -36 -48 -74 -51 -85 -6 -17 -20 -20 -109
-27 -93 -6 -230 -26 -284 -41 -20 -5 -24 2 -52 88 -16 51 -27 96 -23 99 21 19
546 94 574 81 4 -1 3 -13 -2 -26z"/>
</g>
</svg>
