<?xml version="1.0" standalone="no"?>
<!DOCTYPE svg PUBLIC "-//W3C//DTD SVG 20010904//EN"
 "http://www.w3.org/TR/2001/REC-SVG-20010904/DTD/svg10.dtd">
<svg version="1.0" xmlns="http://www.w3.org/2000/svg"
 width="340.000000pt" height="340.000000pt" viewBox="0 0 340.000000 340.000000"
 preserveAspectRatio="xMidYMid meet">
<metadata>
Created by potrace 1.15, written by Peter Selinger 2001-2017
</metadata>
<g transform="translate(0.000000,340.000000) scale(0.100000,-0.100000)"
fill="#000000" stroke="none">
<path d="M997 2253 c-18 -18 -6 -53 24 -69 17 -8 59 -36 93 -61 33 -25 81 -55
106 -68 41 -21 48 -22 72 -9 30 16 43 44 33 74 -10 32 -93 98 -151 120 -53 19
-163 28 -177 13z"/>
<path d="M2600 1948 c-334 -48 -675 -118 -956 -195 -104 -28 -192 -47 -227
-47 -46 -1 -62 -6 -73 -21 -21 -28 -18 -33 24 -44 75 -21 172 -13 296 24 107
33 243 64 342 79 l42 6 26 -105 c37 -147 49 -306 49 -645 0 -343 -15 -569 -39
-587 -13 -10 -30 -7 -83 14 -87 34 -129 40 -137 19 -11 -29 5 -63 56 -119 56
-62 123 -96 197 -100 l48 -2 32 85 c54 145 56 185 46 790 -7 341 -14 555 -21
571 -6 15 -25 43 -42 63 l-32 36 29 11 c40 15 268 37 472 45 l173 7 14 34 c34
81 -46 108 -236 81z"/>
<path d="M945 1661 c-55 -27 -138 -74 -184 -105 -73 -49 -158 -86 -197 -86
-19 0 -34 -24 -24 -40 7 -11 30 -15 92 -15 82 0 85 1 241 74 87 40 161 70 165
66 13 -12 14 -316 3 -465 -14 -175 -33 -312 -67 -485 l-26 -129 27 -23 c32
-28 64 -29 98 -3 52 41 205 302 272 464 34 81 35 90 21 105 -15 14 -21 11 -71
-44 -30 -33 -83 -100 -116 -150 l-61 -90 6 107 c3 60 10 138 16 175 16 112 30
329 30 471 0 167 -14 198 -96 216 -23 5 -50 -4 -129 -43z"/>
</g>
</svg>
