<?xml version="1.0" standalone="no"?>
<!DOCTYPE svg PUBLIC "-//W3C//DTD SVG 20010904//EN"
 "http://www.w3.org/TR/2001/REC-SVG-20010904/DTD/svg10.dtd">
<svg version="1.0" xmlns="http://www.w3.org/2000/svg"
 width="340.000000pt" height="340.000000pt" viewBox="0 0 340.000000 340.000000"
 preserveAspectRatio="xMidYMid meet">
<metadata>
Created by potrace 1.15, written by Peter Selinger 2001-2017
</metadata>
<g transform="translate(0.000000,340.000000) scale(0.100000,-0.100000)"
fill="#000000" stroke="none">
<path d="M862 2198 c-20 -25 5 -43 180 -128 163 -79 167 -81 196 -66 55 28 51
59 -15 116 -66 58 -132 82 -247 87 -81 5 -104 3 -114 -9z"/>
<path d="M1985 2020 c-363 -100 -410 -115 -410 -131 0 -7 12 -20 27 -28 24
-14 35 -14 105 1 43 10 179 38 302 64 289 60 295 58 247 -75 -13 -37 -36 -121
-50 -186 -31 -138 -41 -167 -66 -190 -11 -10 -69 -26 -142 -40 -68 -12 -172
-39 -232 -59 -104 -35 -111 -36 -142 -21 -43 20 -71 19 -79 -3 -3 -11 -1 -50
4 -88 20 -144 23 -299 10 -454 -19 -214 -17 -286 9 -335 25 -49 74 -96 128
-123 89 -45 373 -78 590 -69 321 14 459 54 519 151 30 49 30 51 28 174 -3 128
-14 172 -53 207 -17 15 -19 14 -41 -16 -19 -27 -24 -51 -30 -143 -11 -168 -11
-168 -127 -205 -145 -45 -247 -61 -402 -61 -140 0 -274 17 -363 46 -60 20
-111 64 -139 118 -23 45 -23 28 5 510 l12 200 95 17 c97 17 250 55 352 86 54
17 58 21 93 83 52 94 131 257 191 395 l52 120 -21 38 c-12 22 -40 50 -63 63
-67 39 -123 33 -409 -46z"/>
<path d="M890 1571 c-126 -64 -281 -122 -308 -114 -12 3 -29 0 -37 -7 -18 -15
-20 -60 -2 -61 6 0 35 -4 62 -9 72 -12 149 4 271 55 59 25 109 45 112 45 7 0
-6 -230 -23 -400 -21 -201 -51 -401 -86 -559 -34 -158 -35 -172 -11 -201 16
-19 24 -22 56 -16 45 9 64 33 209 275 100 167 163 309 155 348 -2 12 -16 5
-56 -25 -59 -44 -100 -96 -177 -223 -63 -104 -66 -94 -30 136 68 442 101 701
93 730 -4 17 -19 40 -33 53 -40 34 -86 28 -195 -27z"/>
</g>
</svg>
