<?xml version="1.0" standalone="no"?>
<!DOCTYPE svg PUBLIC "-//W3C//DTD SVG 20010904//EN"
 "http://www.w3.org/TR/2001/REC-SVG-20010904/DTD/svg10.dtd">
<svg version="1.0" xmlns="http://www.w3.org/2000/svg"
 width="340.000000pt" height="340.000000pt" viewBox="0 0 340.000000 340.000000"
 preserveAspectRatio="xMidYMid meet">
<metadata>
Created by potrace 1.15, written by Peter Selinger 2001-2017
</metadata>
<g transform="translate(0.000000,340.000000) scale(0.100000,-0.100000)"
fill="#000000" stroke="none">
<path d="M2257 2272 c-14 -16 -16 -24 -7 -47 12 -32 16 -28 -75 -88 -78 -51
-186 -142 -235 -200 -27 -31 -30 -40 -20 -52 7 -8 23 -15 37 -15 33 0 453 259
466 287 14 31 -2 81 -33 104 -14 11 -45 22 -70 25 -37 5 -48 3 -63 -14z"/>
<path d="M856 2131 c-11 -17 21 -67 56 -90 18 -12 49 -37 68 -56 37 -38 122
-75 170 -75 28 0 30 3 30 35 0 45 -22 88 -57 113 -71 49 -251 99 -267 73z"/>
<path d="M1415 1949 c-159 -109 -188 -140 -137 -147 12 -2 57 10 100 26 42 17
94 33 115 37 l37 7 -41 -118 c-22 -66 -59 -156 -81 -202 l-40 -83 16 -43 c15
-39 22 -45 61 -55 58 -15 81 -46 95 -133 11 -65 8 -218 -5 -239 -3 -4 -30 6
-61 23 -53 29 -141 58 -176 58 -46 0 4 -54 93 -101 31 -17 71 -43 89 -58 l33
-27 -66 -129 c-36 -72 -102 -190 -147 -264 -44 -73 -80 -140 -80 -147 0 -23
36 -16 70 12 74 63 213 264 277 402 24 52 39 72 49 68 51 -19 410 -271 575
-403 98 -78 174 -120 279 -155 84 -27 112 -31 245 -35 143 -5 151 -4 178 17
15 12 27 27 27 34 0 15 -97 46 -240 77 -136 29 -258 72 -372 130 -109 57 -312
195 -303 208 8 14 193 69 285 85 47 8 126 18 175 22 94 7 135 26 135 64 0 50
-97 70 -252 53 l-78 -9 0 212 0 211 78 5 c89 5 160 33 210 80 38 38 40 51 7
83 -32 33 -81 33 -129 0 -41 -28 -102 -60 -142 -75 l-26 -10 7 72 c8 81 -6
204 -33 287 -19 63 -55 91 -114 91 -40 0 -88 -18 -88 -32 0 -5 22 -38 48 -73
l49 -64 12 -128 c15 -162 31 -450 31 -571 l0 -92 -31 -19 c-17 -10 -51 -25
-76 -32 -55 -15 -63 -7 -52 59 14 82 10 285 -7 372 -23 123 -50 188 -88 211
-37 22 -94 25 -122 5 -19 -14 -18 -15 7 -43 46 -49 79 -111 95 -181 22 -92 14
-319 -14 -415 -11 -37 -22 -70 -25 -73 -8 -9 -227 136 -227 150 1 6 7 38 15
71 18 76 19 204 1 271 -22 83 -72 168 -106 181 -17 6 -33 18 -36 27 -3 9 13
54 39 103 83 165 148 376 125 413 -14 22 -51 40 -81 39 -12 0 -94 -50 -182
-110z"/>
<path d="M755 1515 c-149 -87 -186 -105 -215 -103 -31 3 -35 0 -38 -23 -3 -22
2 -29 29 -38 18 -6 59 -11 93 -11 66 0 120 21 227 85 31 19 62 35 69 35 11 0
12 -57 7 -282 -9 -377 -26 -571 -64 -730 -18 -77 -11 -110 31 -129 18 -9 31
-7 60 6 28 14 41 30 63 79 15 33 69 146 121 251 82 164 95 198 100 253 5 62 4
64 -16 53 -42 -22 -166 -188 -193 -257 -25 -68 -23 19 9 391 37 438 37 456
-18 496 -57 42 -72 38 -265 -76z"/>
</g>
</svg>
