<?xml version="1.0" standalone="no"?>
<!DOCTYPE svg PUBLIC "-//W3C//DTD SVG 20010904//EN"
 "http://www.w3.org/TR/2001/REC-SVG-20010904/DTD/svg10.dtd">
<svg version="1.0" xmlns="http://www.w3.org/2000/svg"
 width="340.000000pt" height="340.000000pt" viewBox="0 0 340.000000 340.000000"
 preserveAspectRatio="xMidYMid meet">
<metadata>
Created by potrace 1.15, written by Peter Selinger 2001-2017
</metadata>
<g transform="translate(0.000000,340.000000) scale(0.100000,-0.100000)"
fill="#000000" stroke="none">
<path d="M1875 2520 c-13 -15 -16 -29 -11 -59 6 -40 5 -41 -188 -283 -159
-199 -193 -246 -185 -260 23 -43 70 -16 222 131 74 71 210 225 270 305 48 64
51 114 8 157 -36 35 -88 40 -116 9z"/>
<path d="M2246 2309 c-65 -9 -296 -84 -324 -105 -16 -12 -16 -14 3 -28 15 -12
48 -15 143 -16 67 0 122 -2 122 -5 0 -3 -31 -44 -69 -93 -38 -48 -91 -123
-119 -167 -36 -60 -55 -81 -73 -83 -13 -2 -88 -14 -167 -28 l-142 -26 -45 22
c-82 40 -109 -6 -78 -137 13 -58 18 -114 17 -218 -4 -374 -131 -718 -374
-1005 -62 -74 -99 -138 -100 -172 0 -26 11 -23 80 23 138 93 347 420 434 679
66 198 104 466 90 637 l-6 82 33 5 c443 70 594 89 725 95 123 6 157 11 184 27
40 23 53 53 36 85 -11 23 -17 24 -92 22 -43 0 -131 -10 -194 -21 -163 -28
-233 -36 -229 -24 2 6 50 61 106 124 152 169 203 236 197 256 -14 43 -29 62
-57 72 -16 5 -33 9 -36 9 -3 -1 -33 -5 -65 -10z"/>
<path d="M858 2274 c-14 -14 -8 -20 80 -90 48 -38 107 -87 132 -110 53 -48 78
-58 114 -45 31 12 34 42 10 99 -36 88 -120 139 -246 148 -46 3 -86 3 -90 -2z"/>
<path d="M858 1675 c-55 -22 -96 -48 -171 -108 -20 -16 -60 -41 -89 -55 -43
-22 -53 -32 -53 -52 0 -24 3 -25 55 -24 44 0 81 12 188 59 73 31 136 54 140
50 4 -3 7 -127 6 -273 -1 -280 -15 -405 -74 -675 l-21 -92 31 -27 c70 -64 117
-26 209 165 59 123 156 371 167 427 5 25 3 30 -12 30 -11 0 -24 -4 -29 -8 -19
-13 -82 -106 -135 -200 -29 -51 -54 -91 -56 -89 -6 6 15 294 31 442 16 145 19
297 6 365 -17 87 -85 110 -193 65z"/>
<path d="M2230 1516 c-63 -19 -168 -55 -233 -80 l-117 -45 -35 20 c-64 38 -66
32 -58 -250 4 -178 2 -287 -8 -396 -20 -212 -18 -279 10 -343 36 -81 110 -143
204 -171 219 -65 440 -68 680 -9 76 18 90 26 113 56 48 61 68 128 68 222 0
133 -28 190 -74 152 -15 -13 -28 -52 -50 -151 -17 -74 -32 -136 -34 -138 -12
-12 -153 -44 -235 -53 -159 -19 -360 16 -476 83 -36 20 -43 31 -69 107 -37
110 -46 259 -23 405 23 148 27 211 19 303 l-8 82 66 20 c110 32 314 80 342 80
15 0 29 -4 32 -8 8 -14 -30 -163 -80 -314 l-46 -137 -43 6 c-62 8 -90 -2 -105
-37 -11 -26 -10 -33 5 -50 24 -27 96 -60 129 -60 31 0 81 23 114 53 33 31 103
261 148 489 19 99 12 134 -35 167 -46 33 -79 32 -201 -3z"/>
</g>
</svg>
