<?xml version="1.0" standalone="no"?>
<!DOCTYPE svg PUBLIC "-//W3C//DTD SVG 20010904//EN"
 "http://www.w3.org/TR/2001/REC-SVG-20010904/DTD/svg10.dtd">
<svg version="1.0" xmlns="http://www.w3.org/2000/svg"
 width="340.000000pt" height="340.000000pt" viewBox="0 0 340.000000 340.000000"
 preserveAspectRatio="xMidYMid meet">
<metadata>
Created by potrace 1.15, written by Peter Selinger 2001-2017
</metadata>
<g transform="translate(0.000000,340.000000) scale(0.100000,-0.100000)"
fill="#000000" stroke="none">
<path d="M1880 2331 c-16 -31 -12 -43 25 -81 l35 -35 -66 -110 c-91 -151 -190
-298 -295 -437 -85 -113 -105 -157 -79 -173 16 -10 74 37 180 145 l95 97 85 7
c150 12 233 26 340 58 159 48 287 44 423 -14 55 -24 56 -26 65 -174 14 -229
-11 -612 -59 -892 -18 -109 -69 -353 -75 -361 -2 -2 -23 11 -48 29 -46 33
-127 52 -140 32 -9 -14 20 -90 49 -129 37 -47 108 -93 145 -93 44 0 87 25 106
61 39 75 166 1295 151 1445 -3 28 -15 74 -27 103 -47 108 -136 148 -304 136
-129 -9 -239 -28 -346 -60 -138 -41 -313 -86 -317 -81 -9 8 26 63 96 150 73
89 128 186 151 264 16 51 3 82 -46 112 -44 28 -129 28 -144 1z"/>
<path d="M1020 2207 c0 -21 20 -40 104 -96 102 -69 213 -123 237 -116 11 4 27
17 35 30 13 20 14 28 2 52 -34 70 -164 132 -295 140 -71 5 -83 4 -83 -10z"/>
<path d="M1004 1616 c-66 -35 -163 -77 -216 -95 -89 -30 -96 -31 -130 -17 -31
13 -37 13 -56 0 -64 -45 22 -145 126 -147 60 -1 95 13 197 78 79 51 151 85
180 85 38 0 3 -564 -56 -905 -34 -191 -35 -229 -10 -254 24 -24 78 -28 103 -8
8 6 39 57 68 112 29 55 84 151 122 215 68 113 108 214 108 271 0 16 -4 29 -9
29 -19 0 -158 -159 -188 -215 -17 -33 -39 -69 -47 -80 -15 -19 -15 -19 -16 14
0 19 9 120 20 225 11 105 29 292 39 416 19 219 19 226 1 267 -19 44 -37 57
-85 66 -24 4 -56 -8 -151 -57z"/>
<path d="M1950 1510 c-77 -19 -228 -75 -244 -90 -4 -4 2 -14 15 -22 18 -9 69
-13 189 -13 l164 0 13 -25 c24 -46 14 -503 -13 -591 -3 -13 -24 -18 -92 -23
-48 -4 -120 -18 -162 -32 -101 -34 -100 -35 -100 167 l0 156 83 5 c82 6 197
44 197 67 0 5 -12 19 -26 30 -34 27 -83 27 -160 -1 -69 -25 -91 -20 -99 19
-19 94 -39 140 -80 181 -49 49 -61 51 -77 17 -9 -20 -8 -36 5 -78 20 -64 32
-162 52 -431 9 -115 21 -218 26 -228 12 -22 37 -23 59 -3 12 11 64 17 210 25
107 6 205 8 220 5 29 -6 46 16 75 100 32 95 39 530 11 658 l-18 79 -51 24
c-61 28 -96 29 -197 4z"/>
</g>
</svg>
