<?xml version="1.0" standalone="no"?>
<!DOCTYPE svg PUBLIC "-//W3C//DTD SVG 20010904//EN"
 "http://www.w3.org/TR/2001/REC-SVG-20010904/DTD/svg10.dtd">
<svg version="1.0" xmlns="http://www.w3.org/2000/svg"
 width="340.000000pt" height="340.000000pt" viewBox="0 0 340.000000 340.000000"
 preserveAspectRatio="xMidYMid meet">
<metadata>
Created by potrace 1.15, written by Peter Selinger 2001-2017
</metadata>
<g transform="translate(0.000000,340.000000) scale(0.100000,-0.100000)"
fill="#000000" stroke="none">
<path d="M1688 2559 c-19 -11 -25 -64 -8 -74 18 -11 11 -55 -17 -103 -85 -148
-222 -334 -360 -490 -85 -95 -99 -126 -62 -137 32 -10 86 33 236 189 l134 140
77 -2 c59 -2 96 3 161 22 77 24 141 33 141 21 0 -2 -29 -48 -64 -102 -34 -54
-83 -130 -108 -169 -34 -53 -53 -73 -74 -78 -140 -33 -364 -102 -364 -112 0
-22 31 -44 61 -44 16 0 72 11 125 25 137 36 155 34 183 -15 14 -26 23 -59 24
-96 l2 -57 -85 -24 c-206 -58 -473 -123 -504 -123 -39 0 -50 -11 -41 -40 6
-18 15 -20 113 -19 79 0 129 6 192 23 179 49 276 74 312 79 l36 5 7 -81 c4
-45 5 -102 3 -127 l-3 -44 -150 -41 c-178 -49 -313 -93 -320 -105 -3 -5 3 -16
12 -25 14 -15 29 -17 88 -11 86 7 237 39 287 60 21 9 49 16 63 16 25 0 25 -1
26 -82 4 -216 -11 -538 -26 -585 -3 -9 -20 -5 -59 13 -30 14 -83 27 -120 31
l-65 6 11 -37 c17 -54 77 -117 146 -154 89 -47 161 -40 192 18 26 48 40 230
40 523 0 276 1 297 18 297 38 0 204 21 330 42 l132 21 0 32 c0 40 -16 55 -60
55 -20 0 -43 6 -52 13 -15 11 -10 25 45 139 33 70 68 130 76 134 9 4 117 8
240 9 220 2 224 2 243 24 25 32 23 58 -9 87 -27 25 -31 25 -123 19 -101 -7
-235 -21 -287 -31 l-31 -6 30 95 30 96 -18 38 c-27 55 -68 66 -234 67 -103 1
-150 -4 -200 -18 -103 -29 -110 -30 -110 -13 0 8 21 39 46 69 63 73 194 271
194 292 0 10 -15 33 -34 52 -55 55 -62 54 -331 -64 -88 -38 -161 -68 -163 -67
-7 7 40 84 92 153 85 111 96 185 40 252 -27 32 -71 40 -106 19z m638 -802 c4
-4 -42 -186 -49 -194 -5 -4 -304 -53 -330 -53 -10 0 -19 6 -21 13 -2 6 -16 50
-30 97 -14 46 -23 86 -21 88 10 11 166 44 242 51 84 9 199 8 209 -2z m-83
-311 c3 -8 -5 -54 -19 -102 -13 -49 -24 -99 -24 -112 0 -14 -8 -26 -22 -32
-35 -14 -239 -52 -246 -46 -8 9 -16 211 -8 239 5 22 14 27 78 37 192 33 234
36 241 16z"/>
<path d="M798 2319 c-32 -18 -19 -37 57 -84 77 -48 267 -134 297 -135 21 0 48
37 48 65 0 43 -77 90 -212 128 -104 30 -168 39 -190 26z"/>
<path d="M845 1791 c-57 -41 -217 -124 -302 -157 -40 -15 -73 -33 -73 -40 0
-21 42 -44 81 -44 58 0 181 36 259 75 40 20 75 34 78 31 3 -3 5 -63 5 -133 0
-128 -21 -317 -84 -772 -33 -240 -33 -255 14 -286 33 -21 68 -5 103 49 44 65
176 329 232 464 75 179 67 220 -23 120 -60 -67 -113 -145 -154 -227 -18 -34
-34 -61 -36 -59 -8 7 16 288 39 472 14 105 28 252 32 327 l7 136 -29 32 c-42
47 -95 51 -149 12z"/>
</g>
</svg>
