<?xml version="1.0" standalone="no"?>
<!DOCTYPE svg PUBLIC "-//W3C//DTD SVG 20010904//EN"
 "http://www.w3.org/TR/2001/REC-SVG-20010904/DTD/svg10.dtd">
<svg version="1.0" xmlns="http://www.w3.org/2000/svg"
 width="340.000000pt" height="340.000000pt" viewBox="0 0 340.000000 340.000000"
 preserveAspectRatio="xMidYMid meet">
<metadata>
Created by potrace 1.15, written by Peter Selinger 2001-2017
</metadata>
<g transform="translate(0.000000,340.000000) scale(0.100000,-0.100000)"
fill="#000000" stroke="none">
<path d="M2145 2343 c-97 -13 -278 -48 -395 -78 -213 -53 -250 -57 -282 -34
-38 27 -68 25 -68 -4 0 -12 43 -139 95 -281 52 -143 95 -261 95 -263 0 -2 11
-3 25 -3 18 0 31 9 42 29 16 27 21 29 108 35 97 8 293 45 389 74 52 16 61 22
71 52 7 19 29 60 50 90 45 67 88 158 110 238 16 56 16 61 0 85 -35 55 -120 76
-240 60z m45 -129 c32 -7 32 -7 27 -55 -3 -26 -18 -72 -32 -102 -14 -30 -32
-78 -41 -106 -8 -29 -20 -54 -27 -55 -7 -2 -59 -9 -116 -16 -58 -6 -156 -25
-220 -41 -63 -16 -117 -26 -120 -24 -3 3 -15 42 -28 88 -13 45 -39 120 -58
167 -19 46 -32 86 -30 89 5 4 520 58 576 60 20 1 51 -2 69 -5z"/>
<path d="M848 2333 c-54 -13 26 -98 179 -191 113 -69 130 -73 160 -38 30 35
29 49 -4 86 -66 71 -271 159 -335 143z"/>
<path d="M850 1754 c-80 -51 -182 -102 -280 -139 -69 -27 -86 -38 -88 -56 -4
-27 21 -49 56 -49 35 0 166 46 257 91 45 21 84 39 89 39 5 0 6 -134 3 -297 -5
-311 -17 -445 -63 -703 -40 -228 -40 -211 -8 -243 22 -22 34 -27 53 -22 35 9
69 41 93 90 11 22 58 105 103 185 81 144 138 271 170 383 9 32 15 61 12 63
-25 26 -137 -118 -235 -304 -35 -66 -51 -89 -56 -77 -15 39 -5 258 19 421 45
311 57 551 31 603 -15 28 -54 52 -84 50 -9 0 -42 -16 -72 -35z"/>
<path d="M2050 1595 c-238 -59 -521 -121 -590 -130 -81 -11 -90 -14 -90 -35 0
-37 29 -41 209 -28 94 6 173 9 176 6 4 -3 7 -60 8 -126 2 -108 0 -123 -19
-149 -30 -41 -53 -49 -240 -87 -172 -34 -205 -49 -176 -78 17 -17 178 -13 292
6 46 8 86 14 88 12 9 -10 -68 -170 -120 -247 -62 -92 -201 -232 -345 -347 -45
-36 -80 -69 -77 -74 21 -34 197 50 337 162 144 114 274 307 321 472 14 49 36
78 59 78 3 0 26 -35 53 -77 77 -126 258 -390 336 -493 107 -140 195 -193 368
-221 91 -15 226 -3 251 22 41 41 -4 69 -131 84 -79 9 -181 47 -258 97 -98 62
-266 234 -350 358 -40 58 -100 135 -134 173 -33 37 -59 69 -56 72 11 12 189
44 273 50 125 9 266 35 271 50 3 7 -1 28 -9 47 -20 48 -63 65 -125 49 -87 -21
-453 -101 -466 -101 -9 0 -11 24 -8 93 3 73 0 104 -16 150 l-19 58 26 10 c46
18 157 38 243 45 116 8 153 20 199 61 45 41 47 48 17 67 -46 28 -81 25 -298
-29z"/>
</g>
</svg>
