<?xml version="1.0" standalone="no"?>
<!DOCTYPE svg PUBLIC "-//W3C//DTD SVG 20010904//EN"
 "http://www.w3.org/TR/2001/REC-SVG-20010904/DTD/svg10.dtd">
<svg version="1.0" xmlns="http://www.w3.org/2000/svg"
 width="340.000000pt" height="340.000000pt" viewBox="0 0 340.000000 340.000000"
 preserveAspectRatio="xMidYMid meet">
<metadata>
Created by potrace 1.15, written by Peter Selinger 2001-2017
</metadata>
<g transform="translate(0.000000,340.000000) scale(0.100000,-0.100000)"
fill="#000000" stroke="none">
<path d="M2150 2564 c-85 -25 -161 -48 -168 -50 -21 -6 4 -41 38 -53 17 -6 50
-8 73 -6 23 2 100 7 170 10 l129 5 -5 -102 c-3 -78 -16 -148 -50 -286 -38
-150 -44 -188 -35 -212 14 -42 48 -38 85 10 31 40 143 480 143 562 0 90 -67
153 -172 162 -43 4 -83 -4 -208 -40z"/>
<path d="M1510 2512 c-130 -52 -308 -142 -315 -159 -16 -44 37 -43 174 1 114
37 274 71 296 62 28 -10 38 -75 26 -160 -14 -98 -44 -398 -44 -445 -1 -25 6
-40 27 -58 l28 -24 -48 -77 c-104 -167 -223 -330 -371 -505 -81 -96 -98 -127
-91 -163 2 -13 13 -9 58 27 182 142 338 317 511 571 l66 97 171 -134 c95 -74
235 -186 313 -250 205 -168 310 -215 490 -215 93 0 109 8 109 51 0 34 -3 35
-89 59 -92 26 -357 141 -451 197 -41 24 -137 90 -212 146 -75 56 -175 124
-222 152 -79 45 -85 52 -91 87 -4 23 -19 50 -37 69 l-31 30 7 91 c3 49 15 155
27 236 32 218 22 273 -61 330 -52 35 -124 30 -240 -16z"/>
<path d="M2023 2333 c-54 -11 -53 -57 2 -99 53 -40 165 -46 165 -8 0 64 -90
122 -167 107z"/>
<path d="M710 2320 c-25 -16 -3 -35 145 -126 162 -99 191 -109 201 -70 3 14 3
38 0 52 -11 41 -95 118 -151 137 -53 18 -171 23 -195 7z"/>
<path d="M1280 2209 c-35 -8 -74 -43 -67 -63 8 -26 82 -56 139 -56 48 0 59 4
72 22 23 32 20 65 -6 79 -33 18 -97 26 -138 18z"/>
<path d="M2085 2065 c-27 -13 -70 -27 -94 -31 -82 -13 -106 -71 -52 -125 17
-16 40 -29 54 -29 51 0 196 119 197 162 0 15 -36 49 -50 47 -3 0 -27 -11 -55
-24z"/>
<path d="M1447 1985 c-81 -47 -154 -85 -163 -85 -36 0 -54 -20 -54 -60 0 -43
29 -80 62 -80 26 0 111 54 203 128 85 68 120 110 131 155 10 44 -18 35 -179
-58z"/>
<path d="M775 1812 c-74 -42 -133 -80 -203 -133 -57 -43 -66 -47 -88 -37 -32
15 -48 -1 -47 -46 1 -46 19 -74 49 -82 32 -8 73 10 156 72 35 25 89 59 121 75
l57 29 0 -152 c-1 -285 -31 -738 -56 -822 -18 -64 -19 -200 -1 -215 26 -21 71
-23 103 -3 25 16 48 59 136 258 121 273 238 562 238 588 0 10 -6 16 -12 14
-24 -8 -187 -262 -259 -403 l-71 -140 6 220 c6 221 27 460 46 525 27 92 -1
253 -47 271 -41 15 -76 10 -128 -19z"/>
<path d="M1850 1442 c-12 -9 -26 -33 -33 -53 -8 -24 -36 -56 -83 -97 -85 -74
-184 -184 -184 -206 0 -9 11 -22 25 -28 21 -9 33 -8 63 6 94 45 243 174 307
265 25 37 26 40 11 75 -8 20 -16 36 -18 36 -2 0 -18 4 -35 9 -26 7 -37 6 -53
-7z"/>
<path d="M1943 1153 c-18 -41 -55 -88 -122 -158 -134 -139 -241 -267 -241
-288 0 -26 27 -32 64 -15 33 16 268 209 368 303 104 97 98 183 -15 209 -26 6
-29 3 -54 -51z"/>
<path d="M1986 848 c-9 -12 -16 -42 -16 -67 0 -38 -7 -52 -57 -115 -116 -143
-285 -296 -434 -391 -62 -40 -111 -91 -138 -143 -12 -22 -11 -23 11 -17 12 4
68 29 123 56 229 112 615 450 639 559 12 56 -11 106 -59 126 -45 19 -51 18
-69 -8z"/>
</g>
</svg>
