<?xml version="1.0" standalone="no"?>
<!DOCTYPE svg PUBLIC "-//W3C//DTD SVG 20010904//EN"
 "http://www.w3.org/TR/2001/REC-SVG-20010904/DTD/svg10.dtd">
<svg version="1.0" xmlns="http://www.w3.org/2000/svg"
 width="340.000000pt" height="340.000000pt" viewBox="0 0 340.000000 340.000000"
 preserveAspectRatio="xMidYMid meet">
<metadata>
Created by potrace 1.15, written by Peter Selinger 2001-2017
</metadata>
<g transform="translate(0.000000,340.000000) scale(0.100000,-0.100000)"
fill="#000000" stroke="none">
<path d="M1570 2288 c0 -13 9 -36 20 -53 40 -61 57 -28 -291 -556 -126 -190
-229 -351 -229 -357 0 -29 23 -16 83 46 92 95 156 170 255 299 l87 112 8 -32
c12 -51 11 -361 -2 -493 -6 -66 -12 -204 -13 -305 -1 -194 5 -229 42 -229 40
0 46 34 64 330 9 157 24 323 33 370 23 125 14 261 -25 374 -36 103 -35 108 37
189 62 71 95 126 115 196 18 62 12 79 -38 110 -23 15 -50 21 -90 21 -51 0 -56
-2 -56 -22z"/>
<path d="M1960 2231 c0 -34 13 -49 95 -114 57 -44 85 -53 134 -41 32 8 36 13
34 39 -5 60 -64 112 -144 125 -30 5 -69 12 -86 16 -32 6 -33 5 -33 -25z"/>
<path d="M821 2046 c-18 -22 -4 -54 32 -73 18 -9 48 -29 67 -44 44 -36 110
-59 166 -59 43 0 44 1 44 33 0 68 -65 132 -145 141 -135 17 -152 17 -164 2z"/>
<path d="M2370 1988 c-118 -25 -296 -72 -395 -105 -60 -20 -130 -37 -154 -38
-33 -2 -49 -8 -63 -25 -10 -12 -18 -26 -18 -30 0 -21 163 -17 256 6 20 5 26 1
39 -30 8 -19 15 -57 15 -83 l0 -48 -77 -22 c-43 -12 -111 -28 -150 -35 -75
-12 -86 -23 -55 -51 23 -21 85 -21 167 -2 33 8 77 15 98 15 l37 0 0 -110 0
-109 -82 -25 c-45 -14 -122 -36 -170 -48 -48 -13 -87 -27 -85 -33 2 -5 15 -16
29 -24 23 -13 35 -12 115 7 49 12 113 22 141 22 l53 0 -3 -102 -3 -103 -104
-27 c-130 -36 -246 -81 -246 -98 0 -33 33 -34 172 -7 223 44 336 57 548 63
207 6 248 13 266 46 14 27 -6 74 -34 82 -50 13 -244 5 -336 -14 -119 -25 -176
-27 -167 -4 3 9 11 57 17 108 l12 92 81 18 c77 17 213 65 246 86 13 8 12 13
-7 32 -29 28 -56 27 -206 -7 -66 -14 -120 -25 -122 -23 -1 2 0 51 3 109 l4
106 71 17 c38 9 109 35 156 57 l86 40 -28 25 c-35 30 -48 30 -172 -1 -55 -14
-103 -25 -106 -25 -9 0 -29 82 -29 118 0 37 28 50 129 62 94 11 127 21 191 56
l50 27 -22 24 c-24 25 -66 29 -148 11z"/>
<path d="M815 1489 c-38 -23 -118 -65 -177 -95 -93 -47 -108 -58 -108 -79 0
-53 57 -49 248 20 40 14 77 23 84 19 8 -5 9 -75 5 -259 -7 -277 -18 -402 -47
-577 -11 -64 -20 -121 -20 -126 0 -19 52 -72 71 -72 39 0 84 64 153 221 87
197 170 440 153 451 -29 18 -67 -29 -167 -207 l-62 -110 7 105 c41 615 43 665
28 693 -12 24 -65 57 -90 57 -4 0 -39 -19 -78 -41z"/>
<path d="M2090 681 c0 -23 9 -51 23 -72 12 -19 35 -56 51 -82 34 -59 77 -87
134 -87 37 0 42 3 42 23 0 33 -43 118 -80 161 -36 40 -124 96 -152 96 -14 0
-18 -8 -18 -39z"/>
<path d="M2505 684 c10 -55 31 -91 92 -159 29 -33 71 -95 93 -137 37 -70 87
-128 111 -128 24 0 69 32 74 53 7 26 -16 94 -50 152 -49 84 -219 224 -304 250
-23 7 -23 6 -16 -31z"/>
<path d="M1383 603 c-157 -268 -172 -308 -139 -372 l17 -32 40 32 c44 34 94
114 108 169 4 19 16 68 26 107 17 71 15 163 -4 163 -5 0 -27 -30 -48 -67z"/>
<path d="M1726 654 c-9 -24 -7 -43 8 -77 8 -18 22 -56 31 -86 23 -70 81 -134
141 -155 45 -15 45 -15 54 10 14 36 12 81 -4 113 -15 29 -174 184 -206 201
-13 7 -19 6 -24 -6z"/>
</g>
</svg>
