<?xml version="1.0" standalone="no"?>
<!DOCTYPE svg PUBLIC "-//W3C//DTD SVG 20010904//EN"
 "http://www.w3.org/TR/2001/REC-SVG-20010904/DTD/svg10.dtd">
<svg version="1.0" xmlns="http://www.w3.org/2000/svg"
 width="340.000000pt" height="340.000000pt" viewBox="0 0 340.000000 340.000000"
 preserveAspectRatio="xMidYMid meet">
<metadata>
Created by potrace 1.15, written by Peter Selinger 2001-2017
</metadata>
<g transform="translate(0.000000,340.000000) scale(0.100000,-0.100000)"
fill="#000000" stroke="none">
<path d="M1966 2289 c-60 -16 -181 -53 -270 -83 -88 -30 -203 -62 -253 -72
-99 -18 -113 -30 -69 -59 21 -14 44 -15 155 -9 l130 7 11 -28 c15 -38 -15 -98
-121 -240 -108 -145 -161 -207 -295 -345 -61 -63 -114 -122 -117 -131 -5 -16
9 -39 24 -39 8 0 207 161 303 244 53 46 58 48 85 36 16 -6 37 -20 46 -30 16
-17 15 -23 -20 -85 -42 -75 -81 -124 -245 -313 -63 -73 -130 -150 -148 -171
-36 -42 -35 -71 3 -71 25 0 82 40 210 151 150 130 315 329 315 380 0 39 12 37
53 -11 33 -38 57 -97 57 -136 0 -41 -244 -345 -431 -539 -120 -124 -139 -149
-139 -184 0 -26 1 -26 58 3 108 55 161 104 484 450 l48 51 0 -73 c0 -157 -32
-350 -83 -497 -41 -116 -34 -109 -80 -70 -38 33 -90 55 -129 55 -14 0 -18 -8
-18 -35 0 -64 64 -156 134 -192 48 -25 114 -12 152 30 62 68 121 390 152 833
l7 102 278 -258 c309 -288 322 -297 467 -307 104 -8 184 10 199 44 24 53 14
61 -144 108 -208 62 -282 103 -504 274 -68 53 -149 115 -180 139 -133 102
-126 95 -107 106 77 46 280 185 343 236 90 71 102 89 103 147 0 48 -19 66 -82
77 -56 10 -77 -5 -72 -51 5 -45 2 -50 -101 -133 -44 -36 -114 -95 -155 -132
-41 -38 -78 -68 -81 -68 -3 0 -16 23 -29 50 -28 59 -101 132 -156 155 -22 9
-64 21 -94 27 -30 5 -61 12 -69 14 -8 3 11 30 55 77 76 79 133 178 160 275 16
58 16 63 1 80 -24 27 -21 41 11 48 104 24 227 57 287 77 62 21 70 27 73 51 5
39 -23 66 -67 65 -20 0 -85 -14 -145 -30z"/>
<path d="M905 2231 c-35 -9 -108 -45 -149 -74 -27 -19 -28 -21 -10 -34 13 -9
45 -13 106 -11 129 3 128 4 128 -187 0 -213 1 -210 -69 -224 -31 -6 -70 -20
-87 -30 l-32 -19 -4 86 c-8 134 -48 222 -128 277 -32 22 -42 25 -59 15 -12 -6
-21 -13 -21 -17 0 -3 13 -44 29 -92 56 -163 66 -235 66 -476 -1 -354 -53 -613
-184 -901 -33 -75 -41 -102 -41 -150 l1 -59 38 43 c48 55 97 136 127 211 20
50 75 240 114 397 10 40 12 42 59 48 27 4 74 15 105 26 l56 19 0 -280 c0 -153
-2 -279 -4 -279 -2 0 -17 7 -32 15 -16 8 -44 15 -61 15 -32 0 -33 -1 -33 -42
0 -59 34 -123 89 -164 40 -31 51 -35 86 -31 27 4 48 15 64 33 21 25 23 34 17
93 -3 36 -8 230 -12 431 -7 390 2 625 37 967 10 106 19 214 19 240 0 58 -26
112 -66 135 -35 20 -108 29 -149 19z m55 -656 c10 -12 12 -55 7 -183 -7 -196
-10 -210 -46 -218 -28 -6 -107 -29 -134 -40 -16 -6 -17 7 -16 152 1 88 4 188
8 224 l6 65 60 6 c33 3 70 6 81 7 12 1 27 -5 34 -13z"/>
</g>
</svg>
