<?xml version="1.0" standalone="no"?>
<!DOCTYPE svg PUBLIC "-//W3C//DTD SVG 20010904//EN"
 "http://www.w3.org/TR/2001/REC-SVG-20010904/DTD/svg10.dtd">
<svg version="1.0" xmlns="http://www.w3.org/2000/svg"
 width="340.000000pt" height="340.000000pt" viewBox="0 0 340.000000 340.000000"
 preserveAspectRatio="xMidYMid meet">
<metadata>
Created by potrace 1.15, written by Peter Selinger 2001-2017
</metadata>
<g transform="translate(0.000000,340.000000) scale(0.100000,-0.100000)"
fill="#000000" stroke="none">
<path d="M1496 2414 c-26 -25 -19 -40 32 -70 19 -11 41 -37 54 -63 20 -41 22
-64 26 -297 4 -220 -10 -608 -24 -654 -3 -12 -262 -130 -285 -130 -4 0 -9 195
-13 433 -4 237 -12 448 -17 468 -13 51 -48 99 -89 123 -73 43 -222 14 -417
-81 -83 -40 -92 -47 -83 -64 14 -25 57 -25 140 2 44 14 103 23 181 26 l116 6
16 -40 c33 -84 37 -154 37 -668 0 -483 1 -513 18 -528 26 -24 47 -21 70 8 19
23 23 44 38 192 7 63 7 63 43 69 20 3 78 17 129 30 52 13 96 24 99 24 8 0 -4
-266 -17 -389 -6 -53 -22 -168 -35 -256 -13 -88 -26 -190 -30 -226 -6 -63 -5
-67 19 -82 14 -10 43 -17 65 -17 36 0 46 7 115 78 97 101 147 164 207 265 54
91 59 107 28 107 -36 0 -61 -19 -176 -133 -62 -61 -114 -109 -116 -107 -6 9
12 357 27 527 9 94 16 191 16 217 0 25 5 46 10 46 6 0 65 -53 133 -118 262
-253 569 -503 657 -536 64 -24 173 -34 258 -25 84 9 92 13 92 40 0 33 -44 69
-84 69 -43 0 -245 77 -346 132 -99 54 -232 145 -300 206 -30 27 -120 98 -199
157 l-144 108 49 20 c138 54 421 107 575 107 115 0 170 50 118 107 -23 24 -27
25 -114 20 -127 -8 -274 -39 -485 -102 -101 -30 -187 -55 -191 -55 -13 0 -19
93 -10 155 5 39 14 63 27 72 10 8 66 44 124 82 95 61 217 156 354 273 49 43
106 141 106 184 0 44 -67 84 -140 84 -46 0 -51 -2 -45 -17 4 -10 10 -39 12
-65 l5 -47 -124 -123 c-69 -68 -164 -166 -211 -218 l-86 -95 6 352 6 352 -40
41 c-39 39 -43 40 -106 40 -46 0 -70 -5 -81 -16z"/>
<path d="M595 1946 c-4 -26 0 -82 10 -142 21 -116 25 -354 11 -665 l-9 -206
24 -6 c33 -9 63 14 77 59 15 53 34 358 35 584 1 162 -1 196 -21 277 -27 107
-50 143 -92 143 -26 0 -29 -4 -35 -44z"/>
<path d="M913 1893 c-12 -29 -13 -53 -7 -108 4 -38 7 -164 7 -280 1 -180 -3
-225 -22 -315 -46 -218 -154 -480 -231 -564 -41 -45 -83 -128 -94 -184 l-6
-32 43 21 c82 42 152 128 222 272 146 301 224 632 226 960 1 149 -13 203 -60
236 -51 35 -61 34 -78 -6z"/>
<path d="M970 853 c1 -10 6 -28 13 -39 26 -47 299 -284 326 -284 20 0 51 44
51 73 0 25 -12 43 -67 97 -75 73 -134 112 -215 139 -92 32 -108 34 -108 14z"/>
</g>
</svg>
