<?xml version="1.0" standalone="no"?>
<!DOCTYPE svg PUBLIC "-//W3C//DTD SVG 20010904//EN"
 "http://www.w3.org/TR/2001/REC-SVG-20010904/DTD/svg10.dtd">
<svg version="1.0" xmlns="http://www.w3.org/2000/svg"
 width="340.000000pt" height="340.000000pt" viewBox="0 0 340.000000 340.000000"
 preserveAspectRatio="xMidYMid meet">
<metadata>
Created by potrace 1.15, written by Peter Selinger 2001-2017
</metadata>
<g transform="translate(0.000000,340.000000) scale(0.100000,-0.100000)"
fill="#000000" stroke="none">
<path d="M2151 2271 c-9 -6 -12 -19 -8 -39 l6 -29 -237 -95 -237 -95 -32 19
c-18 11 -45 18 -60 16 -46 -5 -50 -39 -22 -175 20 -101 24 -145 23 -303 0
-158 -4 -207 -28 -334 -54 -289 -119 -464 -244 -653 l-35 -53 -48 70 c-54 76
-109 127 -201 182 -106 65 -163 43 -91 -35 21 -23 88 -107 147 -186 l109 -144
-17 -26 c-26 -40 -47 -91 -53 -129 l-6 -35 32 19 c68 40 113 89 205 227 155
231 250 455 298 699 12 59 24 108 27 107 3 0 79 -100 168 -222 159 -219 161
-222 146 -248 -30 -51 -214 -274 -316 -383 -57 -61 -102 -117 -100 -123 21
-63 256 130 436 357 33 41 63 76 67 78 3 1 35 -30 71 -70 35 -40 133 -144 218
-231 137 -139 160 -159 205 -172 59 -18 175 -18 231 -1 34 10 40 16 43 42 4
38 -12 52 -70 62 -47 9 -342 179 -408 235 -40 34 -195 201 -216 233 -13 19 -7
36 70 195 77 159 170 382 210 502 29 87 19 135 -36 163 -67 35 -203 -3 -438
-120 -91 -46 -180 -88 -197 -94 -37 -12 -41 -23 -17 -46 21 -21 43 -20 106 5
126 51 386 129 427 129 18 0 13 -22 -39 -182 -39 -123 -162 -444 -174 -455 -2
-2 -33 39 -71 89 -38 51 -125 148 -193 216 l-125 123 7 47 c24 184 28 244 24
374 -6 172 -23 150 159 198 244 64 457 148 466 182 11 39 -5 79 -37 99 -33 20
-120 26 -145 10z"/>
<path d="M990 2146 c-126 -39 -300 -117 -300 -135 0 -19 31 -33 62 -28 18 3
76 12 128 20 52 8 130 18 172 21 l78 6 15 -30 c19 -37 20 -305 4 -819 l-11
-355 22 -18 c29 -24 34 -23 72 11 l33 29 7 464 c3 255 9 524 14 599 7 131 6
138 -16 178 -46 81 -139 100 -280 57z"/>
<path d="M550 1877 c0 -23 9 -61 20 -82 60 -117 84 -507 54 -875 -7 -86 6
-118 43 -106 17 6 23 20 32 74 45 281 68 778 41 870 -23 74 -114 162 -170 162
-17 0 -20 -6 -20 -43z"/>
<path d="M897 1773 c-11 -35 -17 -113 -20 -283 -4 -175 -11 -267 -26 -360 -44
-254 -59 -293 -253 -638 -48 -84 -68 -131 -66 -149 8 -65 51 -28 159 136 208
314 316 677 320 1073 1 105 -2 142 -15 173 -16 39 -62 95 -77 95 -4 0 -14 -21
-22 -47z"/>
</g>
</svg>
