<?xml version="1.0" standalone="no"?>
<!DOCTYPE svg PUBLIC "-//W3C//DTD SVG 20010904//EN"
 "http://www.w3.org/TR/2001/REC-SVG-20010904/DTD/svg10.dtd">
<svg version="1.0" xmlns="http://www.w3.org/2000/svg"
 width="340.000000pt" height="340.000000pt" viewBox="0 0 340.000000 340.000000"
 preserveAspectRatio="xMidYMid meet">
<metadata>
Created by potrace 1.15, written by Peter Selinger 2001-2017
</metadata>
<g transform="translate(0.000000,340.000000) scale(0.100000,-0.100000)"
fill="#000000" stroke="none">
<path d="M1480 2657 c-22 -11 -25 -19 -25 -67 0 -50 -6 -65 -60 -152 -194
-314 -449 -611 -740 -863 -145 -125 -150 -130 -164 -167 -10 -26 -9 -27 14
-18 55 21 144 71 200 112 174 130 569 553 785 841 36 47 70 85 77 84 6 -1 199
-184 428 -407 229 -223 438 -420 463 -438 26 -18 75 -41 108 -52 86 -26 245
-43 281 -29 34 13 63 38 63 54 0 12 -95 59 -245 120 -221 90 -408 218 -615
420 -180 175 -291 270 -449 381 -2 2 3 25 10 53 9 38 10 56 1 75 -21 47 -90
74 -132 53z"/>
<path d="M1438 2073 c-23 -4 -28 -9 -28 -33 0 -52 110 -130 182 -130 35 0 78
23 78 42 0 22 -52 79 -88 97 -40 20 -101 30 -144 24z"/>
<path d="M1720 1800 c-54 -18 -447 -138 -472 -144 -18 -4 -28 -13 -28 -25 0
-36 20 -41 125 -30 116 12 161 21 268 54 43 14 88 25 100 25 19 0 16 -5 -20
-42 -46 -49 -71 -93 -88 -157 l-11 -45 -137 -45 c-75 -25 -138 -50 -139 -56
-1 -5 10 -16 26 -24 25 -12 54 -9 240 19 116 17 228 34 248 37 98 14 114 -11
133 -205 12 -119 34 -563 35 -681 0 -20 -3 -22 -27 -16 -16 3 -66 23 -113 45
-101 45 -140 56 -140 38 0 -31 45 -72 185 -173 83 -59 182 -132 221 -160 125
-93 175 -106 201 -55 12 23 9 29 -45 83 -31 32 -89 81 -129 110 -50 35 -71 57
-67 67 3 8 12 45 20 82 12 55 12 125 4 410 -11 385 -20 470 -53 506 -38 42
-115 72 -184 72 -34 0 -73 -4 -87 -10 -14 -5 -26 -6 -26 -1 0 13 54 83 90 116
63 59 79 138 39 189 -18 23 -27 26 -82 25 -34 0 -73 -4 -87 -9z"/>
<path d="M1142 1308 c-18 -18 -14 -39 12 -67 58 -61 99 -297 78 -439 -13 -80
-14 -255 -3 -307 8 -37 39 -45 65 -16 21 23 31 97 46 331 19 315 13 401 -35
458 -36 43 -136 67 -163 40z"/>
<path d="M1606 1167 c-4 -12 -9 -85 -12 -162 -6 -153 -25 -244 -73 -349 -60
-133 -158 -250 -296 -351 -59 -44 -77 -63 -91 -100 -9 -25 -15 -48 -12 -50 9
-9 120 34 167 65 55 35 225 206 268 270 77 114 133 251 159 387 29 159 18 254
-35 283 -54 28 -69 30 -75 7z"/>
</g>
</svg>
