<?xml version="1.0" standalone="no"?>
<!DOCTYPE svg PUBLIC "-//W3C//DTD SVG 20010904//EN"
 "http://www.w3.org/TR/2001/REC-SVG-20010904/DTD/svg10.dtd">
<svg version="1.0" xmlns="http://www.w3.org/2000/svg"
 width="340.000000pt" height="340.000000pt" viewBox="0 0 340.000000 340.000000"
 preserveAspectRatio="xMidYMid meet">
<metadata>
Created by potrace 1.15, written by Peter Selinger 2001-2017
</metadata>
<g transform="translate(0.000000,340.000000) scale(0.100000,-0.100000)"
fill="#000000" stroke="none">
<path d="M1520 2611 c0 -10 16 -32 36 -48 19 -15 95 -85 169 -155 118 -111
490 -438 630 -555 100 -82 208 -121 363 -130 86 -5 108 -3 142 12 l40 18 -22
25 c-38 40 -102 72 -174 87 -99 21 -173 48 -274 101 -99 52 -177 112 -341 262
-169 154 -375 302 -536 386 -32 16 -33 16 -33 -3z"/>
<path d="M1162 2327 c-24 -11 -38 -47 -28 -73 10 -25 -309 -338 -459 -451 -67
-50 -127 -98 -134 -106 -15 -19 -7 -37 16 -37 46 0 334 182 452 286 36 31 88
73 116 94 59 43 95 83 129 143 39 69 40 82 9 115 -32 34 -68 45 -101 29z"/>
<path d="M1690 2139 c-41 -11 -160 -43 -265 -71 -104 -28 -215 -54 -245 -57
-50 -6 -55 -8 -58 -33 -3 -25 0 -27 44 -34 26 -4 82 -4 125 -1 44 3 79 1 79
-3 0 -30 -34 -76 -134 -183 -142 -151 -247 -278 -243 -291 5 -14 33 -19 62
-12 57 14 259 194 375 334 62 74 79 102 84 136 8 52 26 70 86 87 58 16 255 18
271 2 9 -9 8 -24 -6 -60 -24 -64 -89 -195 -132 -266 l-35 -57 -28 20 c-15 11
-42 20 -59 20 -35 0 -75 -36 -66 -60 14 -35 52 -80 87 -102 21 -13 38 -25 38
-28 0 -3 -48 -16 -107 -29 -123 -27 -331 -85 -341 -96 -4 -4 2 -13 13 -22 24
-18 84 -15 314 16 219 30 303 31 331 6 12 -11 26 -30 31 -42 14 -37 30 -486
23 -639 l-7 -141 -63 28 c-69 31 -195 69 -232 69 -40 0 -21 -21 85 -95 136
-95 232 -177 334 -284 69 -72 93 -91 123 -96 41 -8 83 6 92 30 20 50 -76 179
-178 242 -53 33 -59 40 -54 62 37 163 39 183 32 471 -9 392 -13 420 -56 466
-49 50 -85 67 -162 73 l-67 6 45 70 c85 130 145 261 185 403 l20 73 -25 34
c-57 75 -165 93 -316 54z"/>
<path d="M1114 1308 c3 -35 10 -193 15 -353 5 -159 13 -309 16 -332 6 -39 9
-43 35 -43 23 0 30 6 38 33 18 57 33 256 33 444 1 228 -10 259 -105 298 l-38
16 6 -63z"/>
<path d="M1487 1202 c-22 -24 -22 -76 -1 -108 22 -32 14 -164 -16 -279 -42
-163 -158 -354 -253 -416 -50 -33 -104 -93 -131 -146 -9 -18 -16 -34 -16 -38
0 -13 68 -3 108 16 61 30 240 209 297 297 101 158 158 333 159 492 1 113 -15
149 -79 180 -50 24 -48 24 -68 2z"/>
</g>
</svg>
