<?xml version="1.0" standalone="no"?>
<!DOCTYPE svg PUBLIC "-//W3C//DTD SVG 20010904//EN"
 "http://www.w3.org/TR/2001/REC-SVG-20010904/DTD/svg10.dtd">
<svg version="1.0" xmlns="http://www.w3.org/2000/svg"
 width="340.000000pt" height="340.000000pt" viewBox="0 0 340.000000 340.000000"
 preserveAspectRatio="xMidYMid meet">
<metadata>
Created by potrace 1.15, written by Peter Selinger 2001-2017
</metadata>
<g transform="translate(0.000000,340.000000) scale(0.100000,-0.100000)"
fill="#000000" stroke="none">
<path d="M1592 2617 c-29 -31 -28 -65 3 -107 22 -30 25 -43 25 -126 l0 -93
-57 -11 c-71 -14 -232 -55 -295 -74 -41 -13 -48 -13 -59 0 -13 16 -62 44 -77
44 -4 0 -16 -6 -26 -13 -17 -12 -14 -22 47 -143 35 -71 88 -182 117 -246 44
-98 57 -118 74 -118 28 0 46 18 46 46 0 25 16 29 158 40 l93 7 -3 -84 -3 -84
-60 -8 c-257 -33 -713 -117 -935 -172 -52 -13 -109 -21 -126 -18 -39 6 -74
-11 -74 -36 0 -13 13 -22 47 -32 84 -23 165 -16 333 29 330 88 802 173 846
153 19 -8 30 -8 47 3 12 8 72 21 132 30 228 31 392 39 703 34 327 -6 353 -3
365 42 8 33 -24 62 -79 71 -81 13 -310 10 -454 -6 -74 -8 -236 -26 -360 -41
-124 -14 -234 -26 -245 -27 -19 -2 -20 4 -20 88 l0 90 40 2 c82 6 202 25 278
45 74 19 77 21 77 50 0 23 13 43 53 83 72 72 108 142 115 220 l5 63 -84 28
c-117 39 -267 39 -383 1 -43 -14 -84 -23 -91 -21 -9 4 -11 24 -7 74 2 37 2 84
-2 104 -8 44 -59 104 -103 122 -40 17 -36 18 -61 -9z m518 -368 c27 -6 50 -13
50 -15 0 -2 -17 -39 -39 -82 -21 -42 -46 -98 -55 -123 l-18 -46 -123 -7 c-68
-3 -138 -9 -154 -12 l-31 -6 0 89 c0 50 3 111 6 135 l6 46 102 15 c127 18 191
20 256 6z m-491 -89 c3 -14 5 -69 3 -122 l-3 -97 -107 -35 c-59 -20 -114 -36
-123 -36 -10 0 -22 20 -33 57 -10 31 -34 90 -52 131 -19 41 -33 76 -31 78 10
11 251 53 291 51 44 -2 50 -5 55 -27z"/>
<path d="M1900 1449 c-91 -15 -358 -69 -473 -96 -70 -16 -117 -33 -132 -46
l-24 -22 19 -93 c22 -111 38 -274 49 -475 5 -112 11 -151 22 -158 58 -36 78
40 79 298 0 167 -13 273 -44 359 l-23 63 21 5 c12 2 113 14 226 26 113 11 241
25 285 30 107 11 136 -1 161 -66 17 -44 19 -79 18 -359 0 -171 -5 -328 -10
-350 -9 -35 -14 -40 -41 -43 -17 -2 -48 4 -68 12 -46 20 -85 20 -110 2 -17
-12 -8 -20 106 -96 68 -46 182 -125 252 -177 143 -104 175 -123 210 -123 32 0
47 18 47 56 0 28 -11 41 -82 102 -46 38 -114 91 -153 117 -38 26 -71 48 -72
49 -1 0 10 39 24 86 25 80 27 99 30 345 4 284 -2 348 -45 460 -23 58 -33 73
-62 87 -38 20 -116 22 -210 7z"/>
<path d="M1683 1143 c-14 -35 -14 -42 1 -84 9 -26 16 -69 16 -95 0 -59 -31
-190 -60 -258 -52 -123 -183 -274 -305 -352 -61 -38 -85 -68 -85 -102 0 -21 3
-23 28 -18 49 12 166 72 226 117 110 82 240 274 294 434 69 205 60 316 -33
370 -23 14 -47 25 -54 25 -7 0 -19 -17 -28 -37z"/>
</g>
</svg>
