<?xml version="1.0" standalone="no"?>
<!DOCTYPE svg PUBLIC "-//W3C//DTD SVG 20010904//EN"
 "http://www.w3.org/TR/2001/REC-SVG-20010904/DTD/svg10.dtd">
<svg version="1.0" xmlns="http://www.w3.org/2000/svg"
 width="340.000000pt" height="340.000000pt" viewBox="0 0 340.000000 340.000000"
 preserveAspectRatio="xMidYMid meet">
<metadata>
Created by potrace 1.15, written by Peter Selinger 2001-2017
</metadata>
<g transform="translate(0.000000,340.000000) scale(0.100000,-0.100000)"
fill="#000000" stroke="none">
<path d="M1858 2518 c-16 -13 -22 -29 -19 -56 0 -7 22 -33 47 -58 56 -54 56
-56 -12 -221 -47 -112 -47 -113 -88 -124 -23 -5 -124 -35 -226 -66 -102 -31
-203 -59 -225 -62 -43 -6 -53 -26 -23 -44 29 -19 232 7 338 42 106 36 106 36
114 15 6 -16 -56 -122 -321 -546 -68 -109 -123 -202 -123 -208 0 -5 8 -10 19
-10 25 0 62 43 206 237 66 89 123 162 127 163 17 1 40 -104 45 -210 5 -103 -5
-473 -23 -865 -6 -126 -5 -142 11 -158 15 -16 20 -16 39 -4 24 16 26 28 50
257 9 85 19 174 22 196 l5 42 62 -5 c93 -8 243 28 302 71 18 13 18 15 2 39
-32 50 -69 52 -218 12 -74 -19 -140 -35 -148 -35 -14 0 -13 37 6 199 l6 53 56
-6 c63 -7 150 6 227 35 58 22 62 39 18 80 -32 30 -89 28 -177 -5 -37 -14 -78
-26 -91 -26 -22 0 -24 5 -30 85 -4 47 -14 107 -21 133 -8 26 -15 48 -15 48 0
1 51 11 113 23 117 22 307 42 320 34 36 -22 56 -210 86 -848 6 -121 13 -246
15 -277 2 -32 1 -58 -3 -58 -4 0 -30 7 -57 15 -47 14 -50 14 -66 -6 -32 -38
-23 -75 29 -126 65 -62 87 -75 130 -75 30 0 44 7 71 36 l33 37 -6 82 c-3 45
-10 145 -16 222 -5 77 -16 282 -24 455 -13 295 -36 546 -56 597 -10 28 -67 57
-141 72 -75 16 -144 3 -259 -49 -88 -40 -221 -69 -254 -56 -24 9 -18 27 36
111 27 44 76 125 107 180 31 55 60 103 65 106 13 9 194 37 322 50 61 6 195 9
299 7 l188 -2 24 27 c30 35 30 42 -2 74 l-26 26 -147 -6 c-80 -4 -225 -16
-321 -27 -96 -12 -199 -24 -228 -27 l-52 -6 30 65 c31 67 60 178 60 236 0 25
-8 42 -30 62 -46 43 -152 71 -182 48z"/>
<path d="M990 2346 c-30 -13 -93 -42 -138 -65 -82 -41 -84 -43 -66 -62 19 -21
77 -25 134 -9 19 6 72 13 116 16 94 8 86 16 105 -106 13 -86 4 -729 -12 -840
-23 -163 -23 -159 1 -185 37 -39 56 -32 78 28 37 98 42 158 46 492 2 182 9
381 16 444 17 171 -8 244 -103 290 -55 27 -108 26 -177 -3z"/>
<path d="M628 2144 c-9 -19 -9 -35 1 -67 21 -67 30 -254 34 -650 3 -330 5
-369 20 -384 41 -41 57 37 77 372 17 287 13 507 -10 603 -29 121 -49 152 -96
152 -8 0 -20 -12 -26 -26z"/>
<path d="M889 1998 c-17 -30 -17 -112 0 -228 17 -120 9 -338 -18 -471 -39
-193 -108 -362 -225 -549 -66 -105 -90 -162 -84 -203 3 -20 7 -18 51 22 183
169 353 571 402 954 22 169 20 304 -5 369 -17 46 -82 128 -102 128 -4 0 -13
-10 -19 -22z"/>
<path d="M1000 1031 c0 -21 51 -103 76 -122 11 -8 36 -40 57 -71 45 -66 129
-148 152 -148 67 0 73 61 14 149 -63 94 -158 168 -254 197 -41 12 -45 12 -45
-5z"/>
</g>
</svg>
