<?xml version="1.0" standalone="no"?>
<!DOCTYPE svg PUBLIC "-//W3C//DTD SVG 20010904//EN"
 "http://www.w3.org/TR/2001/REC-SVG-20010904/DTD/svg10.dtd">
<svg version="1.0" xmlns="http://www.w3.org/2000/svg"
 width="340.000000pt" height="340.000000pt" viewBox="0 0 340.000000 340.000000"
 preserveAspectRatio="xMidYMid meet">
<metadata>
Created by potrace 1.15, written by Peter Selinger 2001-2017
</metadata>
<g transform="translate(0.000000,340.000000) scale(0.100000,-0.100000)"
fill="#000000" stroke="none">
<path d="M2379 2506 c-19 -9 -24 -20 -24 -47 0 -31 -13 -49 -118 -160 -66 -68
-124 -134 -129 -146 -14 -29 -3 -53 24 -53 29 0 192 110 294 198 82 70 103
107 90 156 -11 46 -90 76 -137 52z"/>
<path d="M1607 2393 c-25 -25 9 -82 114 -194 42 -45 50 -49 93 -49 52 0 54 5
34 74 -17 57 -99 138 -158 154 -25 8 -52 15 -61 18 -8 2 -18 1 -22 -3z"/>
<path d="M977 2188 c-76 -34 -136 -66 -134 -72 2 -6 23 -10 48 -8 108 6 318 6
324 0 18 -18 24 -114 24 -388 1 -162 -4 -384 -9 -493 -6 -134 -6 -205 1 -218
14 -26 55 -24 73 3 18 30 34 220 45 555 5 144 14 269 19 279 7 12 20 -11 57
-102 72 -181 155 -422 155 -453 0 -59 15 -61 260 -26 196 27 487 55 577 55 69
0 83 11 152 119 77 120 231 466 231 519 0 44 -123 109 -222 119 -143 13 -1022
-153 -1080 -205 -16 -13 -20 -13 -44 3 -15 10 -38 15 -55 13 l-29 -5 0 127 c0
115 -2 130 -23 161 -32 49 -98 79 -172 79 -52 -1 -79 -9 -198 -62z m1606 -249
c33 -7 57 -17 57 -24 0 -39 -51 -170 -122 -316 l-81 -166 -96 -6 c-53 -4 -132
-10 -175 -14 l-79 -6 8 34 c4 19 10 133 14 253 l6 220 34 9 c89 23 352 32 434
16z m-605 -322 l-3 -231 -165 -27 c-91 -16 -165 -28 -166 -29 -1 0 -4 36 -7
79 -13 163 -53 316 -103 393 -10 15 -16 29 -14 32 3 2 100 15 215 28 209 25
210 25 228 5 16 -18 17 -42 15 -250z"/>
<path d="M2326 1858 c-10 -8 -19 -28 -20 -44 -2 -19 -17 -44 -48 -75 -49 -50
-83 -112 -93 -171 l-7 -38 40 14 c66 23 97 43 155 96 95 87 123 158 80 201
-25 26 -82 35 -107 17z"/>
<path d="M1685 1770 c-17 -27 57 -176 105 -212 14 -10 39 -20 55 -21 30 -2 30
-1 28 45 -2 65 -37 126 -97 166 -49 32 -80 40 -91 22z"/>
<path d="M698 1998 c-2 -43 4 -83 17 -109 42 -80 64 -505 41 -796 -7 -103 -7
-113 9 -119 25 -10 48 7 57 42 37 137 60 470 49 705 -7 155 -11 181 -30 216
-25 43 -58 67 -108 78 -30 6 -33 4 -35 -17z"/>
<path d="M975 1940 c-26 -28 -31 -108 -11 -166 21 -63 22 -348 1 -489 -40
-262 -141 -511 -291 -711 -34 -45 -44 -67 -44 -96 0 -27 4 -38 15 -38 25 0
188 170 243 254 43 67 86 156 116 240 5 15 19 0 72 -74 95 -135 185 -253 202
-267 9 -7 28 -13 42 -13 133 0 -15 270 -206 376 -38 21 -72 43 -76 48 -12 17
-9 59 7 123 31 124 47 265 52 484 3 125 3 243 -1 264 -14 72 -82 108 -121 65z"/>
<path d="M2250 1173 c-92 -14 -230 -48 -306 -74 -49 -17 -118 -34 -154 -38
-76 -7 -72 5 -46 -156 23 -146 39 -414 31 -538 -5 -90 -3 -113 10 -133 21 -32
41 -30 73 6 26 29 28 30 122 30 56 0 118 7 150 16 101 29 96 29 109 -7 26 -74
91 -129 172 -144 35 -7 36 -6 58 44 37 87 40 132 32 496 -7 322 -9 354 -28
396 -26 58 -67 87 -140 99 -32 6 -58 9 -58 9 0 -1 -11 -4 -25 -6z m91 -159
c27 -33 49 -442 33 -616 l-7 -67 -34 27 c-31 23 -50 27 -150 36 -106 9 -119 8
-186 -13 -120 -37 -112 -43 -115 84 -2 61 0 128 3 150 l6 40 82 1 c83 0 202
28 241 57 17 13 17 15 2 45 -30 59 -87 59 -250 3 -33 -12 -63 -21 -68 -21 -4
0 -8 24 -8 53 0 28 -7 83 -15 122 -8 38 -15 73 -15 77 0 14 205 34 366 37 82
1 104 -2 115 -15z"/>
</g>
</svg>
