<?xml version="1.0" standalone="no"?>
<!DOCTYPE svg PUBLIC "-//W3C//DTD SVG 20010904//EN"
 "http://www.w3.org/TR/2001/REC-SVG-20010904/DTD/svg10.dtd">
<svg version="1.0" xmlns="http://www.w3.org/2000/svg"
 width="340.000000pt" height="340.000000pt" viewBox="0 0 340.000000 340.000000"
 preserveAspectRatio="xMidYMid meet">
<metadata>
Created by potrace 1.15, written by Peter Selinger 2001-2017
</metadata>
<g transform="translate(0.000000,340.000000) scale(0.100000,-0.100000)"
fill="#000000" stroke="none">
<path d="M1510 2442 c-29 -23 -20 -56 21 -77 57 -30 62 -50 54 -202 -4 -76
-10 -156 -14 -178 l-6 -40 -80 -23 c-44 -13 -137 -36 -207 -52 -69 -15 -131
-31 -137 -35 -18 -10 -12 -34 11 -46 32 -17 246 -5 338 20 41 12 77 21 79 21
8 0 -8 -215 -19 -267 -11 -49 -14 -53 -48 -62 -20 -6 -111 -28 -202 -51 -91
-23 -228 -59 -306 -81 -77 -21 -157 -39 -178 -39 -35 0 -106 -23 -106 -34 0
-3 18 -15 40 -26 67 -34 125 -27 449 55 163 42 303 78 312 80 18 6 29 -15 65
-119 31 -89 50 -339 39 -508 l-7 -116 -56 26 c-32 14 -117 51 -189 82 l-133
56 41 40 c22 21 54 67 71 101 27 56 30 70 26 133 -4 81 -13 92 -73 88 l-40 -3
1 -50 c1 -46 -4 -58 -61 -145 -122 -184 -273 -334 -449 -446 -140 -89 -156
-102 -156 -129 0 -14 6 -28 14 -31 39 -15 323 163 475 298 51 46 99 87 105 92
11 8 358 -179 451 -244 22 -15 58 -33 79 -40 22 -7 112 -53 200 -102 322 -180
370 -198 556 -205 72 -3 156 -1 198 6 67 10 163 48 176 69 12 19 -72 45 -172
53 -180 14 -416 66 -611 134 -114 40 -178 70 -258 121 l-53 34 0 190 c0 189 0
190 23 194 12 2 63 9 112 15 128 16 306 58 335 79 27 21 39 74 21 96 -21 25
-249 -17 -363 -68 -30 -14 -71 -28 -90 -31 l-35 -7 -5 89 c-6 94 -29 168 -72
234 -30 45 -39 41 124 68 172 29 348 43 507 39 132 -3 144 -1 162 17 11 11 23
32 26 47 6 24 2 29 -37 50 -37 20 -56 23 -143 21 -104 -1 -290 -26 -488 -64
-63 -12 -123 -19 -132 -15 -16 6 -17 18 -11 137 9 156 15 179 52 179 43 0 181
39 255 72 60 27 69 34 69 57 0 36 -26 71 -53 71 -12 0 -42 -9 -66 -20 -49 -23
-188 -60 -222 -60 -20 0 -21 3 -15 47 3 25 9 110 12 187 6 158 2 175 -55 213
-43 29 -118 31 -151 5z"/>
</g>
</svg>
