<?xml version="1.0" standalone="no"?>
<!DOCTYPE svg PUBLIC "-//W3C//DTD SVG 20010904//EN"
 "http://www.w3.org/TR/2001/REC-SVG-20010904/DTD/svg10.dtd">
<svg version="1.0" xmlns="http://www.w3.org/2000/svg"
 width="340.000000pt" height="340.000000pt" viewBox="0 0 340.000000 340.000000"
 preserveAspectRatio="xMidYMid meet">
<metadata>
Created by potrace 1.15, written by Peter Selinger 2001-2017
</metadata>
<g transform="translate(0.000000,340.000000) scale(0.100000,-0.100000)"
fill="#000000" stroke="none">
<path d="M1720 2373 c-19 -7 -40 -33 -40 -49 0 -7 24 -28 54 -48 53 -35 55
-38 62 -94 4 -31 8 -158 8 -282 l1 -225 -75 -32 c-41 -18 -113 -42 -160 -54
-47 -13 -87 -24 -90 -27 -3 -2 6 -12 19 -23 29 -24 73 -24 181 1 123 28 114
36 106 -82 -8 -126 -26 -257 -37 -280 -9 -17 -163 -80 -288 -118 -55 -17 -71
-26 -71 -41 0 -25 35 -42 74 -36 17 2 82 17 145 31 62 15 115 25 118 23 8 -9
-37 -180 -64 -241 -62 -141 -188 -297 -299 -371 -29 -20 -62 -47 -74 -62 -21
-27 -36 -70 -27 -79 12 -12 156 49 220 93 155 105 297 346 345 584 l19 93 73
-110 c182 -272 478 -607 585 -661 102 -52 258 -80 365 -65 48 6 56 10 65 36 8
24 6 31 -13 46 -13 11 -57 26 -100 36 -100 22 -193 54 -278 95 -59 29 -98 62
-265 229 -173 173 -398 424 -388 434 9 9 152 47 243 66 54 11 165 25 245 32
128 10 148 13 163 32 25 30 22 63 -8 82 -21 14 -42 16 -127 11 -116 -6 -317
-44 -434 -82 -43 -14 -81 -25 -85 -25 -19 0 5 355 26 377 6 7 44 19 84 28 87
18 201 61 260 98 42 27 42 28 26 53 -34 51 -82 57 -153 19 -39 -21 -183 -75
-200 -75 -3 0 -6 120 -6 268 -1 296 -7 335 -56 376 -25 21 -41 26 -82 25 -29
0 -59 -3 -67 -6z"/>
<path d="M1152 2079 c-57 -16 -161 -52 -232 -80 l-130 -51 -35 31 c-38 33 -68
44 -108 39 l-25 -3 44 -75 c25 -41 54 -106 65 -145 50 -174 117 -342 143 -364
14 -12 46 -5 46 9 0 5 23 11 51 15 68 10 179 67 223 115 43 48 112 183 156
305 48 135 41 193 -25 221 -45 18 -53 18 -173 -17z m78 -145 c0 -15 -12 -59
-26 -98 -14 -39 -36 -107 -49 -151 -12 -44 -29 -83 -36 -86 -20 -10 -201 -61
-203 -57 -2 2 -13 44 -26 93 -13 50 -35 127 -51 171 l-27 82 72 21 c39 12 96
21 126 21 30 1 82 7 115 14 94 22 105 20 105 -10z"/>
<path d="M940 1405 c-15 -40 -12 -57 19 -107 26 -41 30 -60 44 -204 9 -87 19
-216 23 -285 l6 -126 -95 -52 c-52 -28 -96 -51 -98 -51 -2 0 -4 73 -5 163 -1
209 -31 386 -72 417 -36 29 -71 35 -100 19 -47 -27 -48 -42 -8 -94 48 -64 63
-123 70 -280 4 -71 9 -164 12 -206 l7 -76 -34 -12 c-19 -6 -65 -31 -104 -54
-53 -31 -81 -41 -114 -42 -52 0 -70 -20 -56 -61 14 -39 70 -66 126 -61 37 3
69 18 150 72 57 37 226 144 374 237 306 192 335 213 335 235 0 13 -8 14 -40 9
-54 -8 -157 -50 -214 -87 l-46 -29 0 143 c0 154 4 167 51 167 59 0 133 34 187
85 58 57 64 77 27 101 -40 26 -92 13 -179 -45 l-76 -52 0 69 c0 38 -5 84 -11
103 -20 59 -75 107 -142 123 -23 5 -29 3 -37 -19z"/>
</g>
</svg>
