<?xml version="1.0" standalone="no"?>
<!DOCTYPE svg PUBLIC "-//W3C//DTD SVG 20010904//EN"
 "http://www.w3.org/TR/2001/REC-SVG-20010904/DTD/svg10.dtd">
<svg version="1.0" xmlns="http://www.w3.org/2000/svg"
 width="340.000000pt" height="340.000000pt" viewBox="0 0 340.000000 340.000000"
 preserveAspectRatio="xMidYMid meet">
<metadata>
Created by potrace 1.15, written by Peter Selinger 2001-2017
</metadata>
<g transform="translate(0.000000,340.000000) scale(0.100000,-0.100000)"
fill="#000000" stroke="none">
<path d="M1956 2422 c-49 -12 -54 -33 -18 -87 17 -26 34 -67 38 -92 6 -43 -10
-312 -24 -413 l-7 -45 -110 -32 c-60 -18 -113 -33 -117 -33 -5 0 -8 28 -8 63
0 70 -22 165 -47 208 -16 27 -41 44 -50 35 -7 -7 -31 -202 -39 -317 l-7 -106
33 -12 c58 -20 139 -14 200 15 132 63 356 125 503 140 l67 7 0 -46 c0 -36 5
-49 22 -61 33 -23 41 -20 67 26 66 115 121 297 121 398 0 52 -4 65 -25 86 -20
20 -33 25 -68 22 l-42 -3 -6 -105 c-3 -58 -9 -112 -12 -120 -3 -8 -11 -33 -16
-56 l-11 -41 -113 -12 c-63 -7 -141 -18 -173 -26 -32 -7 -60 -12 -62 -10 -5 5
13 131 33 240 15 84 19 233 7 299 -11 60 -68 93 -136 78z"/>
<path d="M1195 2166 c-133 -49 -210 -83 -307 -134 l-88 -46 -24 23 c-22 21
-93 47 -103 38 -6 -7 23 -74 56 -127 15 -25 52 -105 81 -178 45 -112 57 -133
78 -139 14 -3 33 -1 44 6 15 10 21 7 37 -21 11 -17 22 -47 25 -67 8 -49 56
-614 56 -657 0 -33 -5 -38 -107 -105 -60 -38 -152 -93 -207 -120 -84 -44 -104
-50 -136 -45 -56 9 -84 -17 -75 -67 6 -32 12 -38 44 -47 85 -23 174 -8 245 43
219 157 333 247 426 336 78 74 92 92 80 100 -25 18 -49 12 -116 -25 l-64 -36
0 165 0 164 53 7 c68 9 148 48 186 92 17 19 31 39 31 43 0 14 -59 61 -76 61
-21 0 -82 -35 -139 -80 -27 -22 -53 -40 -57 -40 -3 0 -4 26 -1 59 7 75 -10
146 -52 216 -30 49 -32 57 -17 62 95 32 172 95 242 198 60 89 90 174 90 254 0
53 -3 63 -24 76 -44 29 -85 27 -181 -9z m55 -128 c0 -6 -21 -63 -47 -125 -44
-106 -50 -114 -83 -124 -19 -6 -67 -28 -106 -49 l-71 -38 -17 62 c-10 33 -33
89 -51 123 -31 57 -33 63 -17 72 35 18 180 59 252 71 41 6 82 13 90 15 34 6
50 4 50 -7z"/>
<path d="M1995 1445 c-490 -126 -475 -120 -440 -155 19 -18 27 -18 119 -10 54
5 115 14 135 20 53 15 54 14 47 -32 -10 -60 -37 -116 -85 -173 -23 -27 -58
-82 -76 -121 l-35 -71 -87 -10 -88 -11 -33 29 c-37 33 -49 35 -80 13 -22 -15
-22 -15 -3 -52 55 -108 101 -283 116 -444 10 -99 48 -138 106 -108 16 9 19 22
19 93 0 102 -23 248 -51 322 -11 31 -19 62 -16 68 3 7 20 14 38 15 19 2 87 13
152 26 65 12 119 20 121 17 2 -3 4 -53 5 -111 2 -141 41 -370 62 -370 20 0 49
47 55 87 6 38 -6 232 -23 364 l-5 46 68 21 c67 20 164 42 186 42 8 0 9 -80 4
-289 -6 -258 -5 -290 10 -302 22 -18 46 -1 61 44 22 64 44 239 50 395 7 189 6
187 149 197 104 8 188 -3 265 -37 l47 -19 -20 -67 c-36 -120 -174 -471 -193
-490 -1 -2 -19 7 -39 19 -43 25 -78 20 -102 -15 -14 -22 -14 -27 0 -54 22 -42
80 -90 118 -97 19 -3 51 0 73 8 l40 14 108 253 c111 258 137 341 137 442 0 51
-3 59 -31 83 -41 34 -96 62 -141 70 -68 13 -353 -25 -637 -85 -152 -31 -277
-56 -279 -55 -7 6 33 61 90 125 69 77 93 138 85 214 l-5 51 94 18 c51 10 149
33 216 51 117 31 123 34 120 57 -7 69 -72 65 -427 -26z"/>
<path d="M746 1348 c-21 -30 -20 -79 3 -136 11 -26 22 -85 25 -132 6 -83 48
-281 65 -309 11 -18 27 -7 47 31 13 25 16 62 15 177 -1 180 -28 326 -69 374
-22 24 -67 22 -86 -5z"/>
</g>
</svg>
