<?xml version="1.0" standalone="no"?>
<!DOCTYPE svg PUBLIC "-//W3C//DTD SVG 20010904//EN"
 "http://www.w3.org/TR/2001/REC-SVG-20010904/DTD/svg10.dtd">
<svg version="1.0" xmlns="http://www.w3.org/2000/svg"
 width="340.000000pt" height="340.000000pt" viewBox="0 0 340.000000 340.000000"
 preserveAspectRatio="xMidYMid meet">
<metadata>
Created by potrace 1.15, written by Peter Selinger 2001-2017
</metadata>
<g transform="translate(0.000000,340.000000) scale(0.100000,-0.100000)"
fill="#000000" stroke="none">
<path d="M2153 2414 c-7 -3 -13 -18 -13 -33 0 -41 -34 -66 -147 -110 -167 -66
-383 -184 -383 -211 0 -17 51 -31 84 -24 17 4 71 22 119 40 49 19 93 34 98 34
17 0 38 -66 45 -137 6 -60 4 -70 -14 -86 -30 -27 -153 -67 -227 -74 -62 -6
-66 -5 -100 26 -37 32 -95 43 -95 19 0 -7 23 -60 50 -117 28 -57 50 -109 50
-116 0 -23 42 -141 76 -212 39 -82 63 -94 88 -44 13 24 23 29 68 34 29 4 68 7
85 7 l33 0 -6 -127 c-4 -71 -9 -131 -13 -134 -3 -4 -93 -27 -199 -51 -169 -40
-194 -43 -205 -30 -30 36 -127 51 -127 19 0 -5 15 -58 34 -116 53 -163 69
-279 70 -481 1 -104 5 -178 11 -182 22 -17 52 -7 64 20 23 50 35 301 22 481
-8 112 -8 167 -1 176 6 7 36 15 68 19 31 3 102 14 157 25 55 10 104 16 109 13
9 -5 1 -245 -10 -294 -5 -21 -21 -33 -85 -62 -43 -19 -79 -41 -79 -48 0 -25
31 -58 53 -58 38 0 159 46 232 88 39 22 108 58 154 78 81 37 84 37 97 18 45
-61 69 -69 105 -33 18 18 20 28 15 73 -4 28 -16 70 -27 93 -24 50 -103 126
-127 121 -29 -6 -44 -52 -32 -99 17 -61 -12 -86 -131 -113 l-61 -15 7 142 c4
78 8 143 10 145 7 8 190 34 310 43 140 11 274 5 308 -12 12 -7 17 -22 17 -49
0 -85 -104 -515 -158 -656 -10 -27 -22 -57 -25 -67 -6 -17 -10 -16 -53 9 -35
21 -60 28 -96 27 -27 0 -52 -3 -55 -7 -3 -3 0 -19 7 -36 38 -93 139 -168 207
-155 51 9 116 78 132 140 7 28 33 120 56 205 60 216 84 329 120 565 5 36 2 45
-31 83 -72 84 -152 105 -284 73 -69 -16 -417 -71 -451 -71 -5 0 -9 58 -9 129
l0 128 62 6 c82 7 168 51 181 92 6 17 40 62 77 101 37 39 79 95 94 125 27 55
55 164 44 174 -3 3 -30 14 -61 25 -77 27 -198 27 -274 0 -95 -33 -100 -31
-100 43 0 43 -7 79 -22 112 -12 27 -18 51 -14 55 5 3 40 18 78 33 39 15 95 42
125 60 50 30 55 36 58 73 4 56 -27 84 -99 89 -30 3 -60 2 -66 -1z m197 -602
c0 -10 -20 -49 -45 -87 -25 -38 -53 -90 -63 -117 l-17 -48 -77 0 -78 0 0 53
c0 66 16 177 27 188 9 9 134 26 206 28 39 1 47 -2 47 -17z m-409 -52 c17 -9
19 -22 19 -103 -1 -56 -5 -98 -13 -108 -17 -23 -69 -47 -115 -55 l-40 -6 -12
58 c-7 33 -23 88 -36 123 -13 35 -22 66 -20 69 4 3 94 18 189 31 5 1 17 -4 28
-9z"/>
<path d="M1230 2155 c-100 -20 -176 -44 -278 -87 l-92 -40 -35 31 c-25 21 -46
31 -69 31 -18 0 -35 -2 -37 -5 -3 -2 14 -43 37 -91 45 -91 80 -207 95 -312 10
-69 24 -103 64 -151 l26 -30 38 39 c37 39 40 40 103 40 74 0 119 13 165 46 28
21 31 28 26 58 -4 25 0 42 15 63 34 48 98 184 131 276 l31 89 -31 29 c-36 33
-77 36 -189 14z m30 -159 c0 -13 -14 -57 -32 -97 -17 -41 -39 -99 -48 -129
l-16 -55 -49 -7 c-27 -4 -69 -14 -93 -24 -24 -9 -44 -15 -46 -13 -1 2 -19 65
-40 139 -21 74 -40 142 -43 152 -3 11 4 18 25 23 52 11 235 33 290 34 49 1 52
-1 52 -23z"/>
<path d="M1051 1532 c-20 -38 -23 -90 -7 -153 25 -96 39 -351 28 -509 -9 -120
-12 -136 -32 -152 -22 -18 -69 -25 -71 -10 0 4 -2 61 -4 127 -5 203 -52 430
-96 468 -24 20 -79 23 -97 5 -19 -19 -14 -78 12 -156 43 -124 86 -370 86 -482
l0 -45 -101 -53 c-79 -43 -106 -52 -129 -47 -39 9 -67 -8 -75 -45 -8 -36 13
-75 45 -85 26 -8 130 19 206 54 98 46 340 218 441 315 51 48 93 92 93 97 0 21
-44 19 -93 -4 -37 -18 -56 -22 -64 -15 -9 7 -13 49 -13 145 l0 134 54 -6 c75
-10 137 18 165 74 34 66 26 81 -44 81 -51 0 -84 -16 -126 -63 -46 -50 -65 -43
-48 18 12 42 7 135 -11 195 -5 20 -23 57 -40 83 -31 50 -62 61 -79 29z"/>
</g>
</svg>
