<?xml version="1.0" standalone="no"?>
<!DOCTYPE svg PUBLIC "-//W3C//DTD SVG 20010904//EN"
 "http://www.w3.org/TR/2001/REC-SVG-20010904/DTD/svg10.dtd">
<svg version="1.0" xmlns="http://www.w3.org/2000/svg"
 width="340.000000pt" height="340.000000pt" viewBox="0 0 340.000000 340.000000"
 preserveAspectRatio="xMidYMid meet">
<metadata>
Created by potrace 1.15, written by Peter Selinger 2001-2017
</metadata>
<g transform="translate(0.000000,340.000000) scale(0.100000,-0.100000)"
fill="#000000" stroke="none">
<path d="M1724 2569 c-21 -34 227 -149 321 -149 11 0 15 12 15 45 0 55 -27 88
-86 104 -53 15 -241 14 -250 0z"/>
<path d="M1088 2356 c-59 -24 -144 -66 -190 -94 l-83 -50 -24 24 c-31 31 -66
40 -98 25 -23 -11 -24 -13 -10 -29 28 -33 66 -119 86 -200 22 -91 40 -129 83
-184 28 -36 29 -37 57 -20 39 22 54 8 76 -71 35 -125 46 -224 52 -467 l5 -245
-85 -42 -84 -42 -6 242 c-7 311 -16 370 -62 417 -39 39 -85 45 -129 17 -35
-23 -33 -52 6 -90 26 -26 34 -46 44 -105 12 -64 42 -297 59 -454 l6 -57 -43
-22 c-24 -12 -72 -32 -107 -44 -79 -26 -111 -61 -93 -99 15 -33 67 -59 103
-52 26 5 497 265 689 380 47 28 86 59 88 69 8 42 -51 30 -204 -39 l-71 -32 -7
51 c-8 67 -8 192 0 251 6 43 8 46 38 46 83 0 155 39 186 100 27 52 26 57 -16
70 -50 17 -99 4 -144 -36 -58 -52 -65 -44 -65 72 -1 104 -17 156 -67 210 l-19
21 39 5 c55 8 110 36 154 80 33 33 37 42 36 85 -1 40 6 60 40 118 63 104 57
181 -18 220 -50 26 -107 18 -222 -29z m132 -108 c0 -6 -18 -59 -41 -118 -39
-103 -43 -108 -78 -118 -20 -6 -62 -27 -95 -47 -32 -19 -62 -35 -66 -35 -4 0
-15 29 -24 65 -9 36 -27 90 -41 120 l-24 56 27 11 c34 14 289 75 320 77 12 0
22 -4 22 -11z"/>
<path d="M2370 2379 c-290 -54 -826 -173 -919 -205 -23 -8 18 -44 50 -44 55 0
279 32 449 65 96 19 227 43 290 55 63 12 154 30 203 41 77 18 88 24 93 46 4
13 2 29 -4 35 -15 15 -97 18 -162 7z"/>
<path d="M2192 2213 c-23 -9 -32 -39 -21 -71 9 -27 5 -39 -41 -121 -28 -50
-67 -125 -86 -165 l-34 -75 -57 -11 c-106 -21 -316 -76 -369 -97 -10 -4 -14 4
-14 26 0 36 -38 81 -69 81 -16 0 -21 -11 -31 -72 -14 -80 -59 -216 -96 -290
-13 -26 -24 -63 -24 -83 0 -30 5 -37 28 -46 17 -7 33 -7 42 -1 25 15 98 141
126 216 14 39 29 77 33 85 5 10 60 24 162 43 85 15 159 28 166 28 19 0 43 -97
43 -176 0 -85 9 -77 -138 -128 -100 -35 -103 -35 -137 -19 -57 27 -61 16 -47
-149 7 -79 12 -201 12 -271 0 -101 3 -133 16 -152 21 -33 49 -32 71 2 16 24
18 52 18 228 0 110 -4 212 -9 227 -8 25 -6 27 51 43 32 9 83 20 114 22 l56 5
7 -276 c6 -253 14 -446 32 -754 7 -113 17 -142 49 -142 29 0 48 215 44 500 -5
418 -4 698 3 705 11 11 170 18 232 11 l56 -7 0 -110 c0 -106 -24 -303 -40
-328 -5 -10 -17 -7 -46 8 -43 24 -76 26 -116 8 l-28 -12 23 -50 c27 -57 73
-101 135 -129 41 -18 45 -19 70 -4 41 25 89 102 101 161 42 218 51 362 30 470
-14 67 -27 81 -105 108 -87 31 -207 28 -300 -8 -11 -4 -14 5 -14 38 -1 24 -7
80 -15 124 -8 44 -11 83 -7 87 19 19 239 50 386 55 l159 6 -7 -34 c-4 -22 -23
-48 -56 -79 -37 -35 -50 -53 -50 -75 l0 -28 61 7 c33 3 88 17 122 31 34 14 86
35 115 46 56 22 92 63 92 107 0 31 -66 94 -135 127 l-57 29 -152 -13 c-132
-10 -273 -32 -370 -57 l-30 -7 24 39 c13 21 45 66 71 100 55 69 70 103 71 155
0 33 -22 92 -39 102 -15 9 -68 16 -81 10z"/>
<path d="M1731 2079 c-15 -45 -14 -115 4 -148 16 -33 70 -81 90 -81 20 0 48
68 41 101 -7 34 -80 145 -102 153 -22 8 -21 9 -33 -25z"/>
</g>
</svg>
