<?xml version="1.0" standalone="no"?>
<!DOCTYPE svg PUBLIC "-//W3C//DTD SVG 20010904//EN"
 "http://www.w3.org/TR/2001/REC-SVG-20010904/DTD/svg10.dtd">
<svg version="1.0" xmlns="http://www.w3.org/2000/svg"
 width="340.000000pt" height="340.000000pt" viewBox="0 0 340.000000 340.000000"
 preserveAspectRatio="xMidYMid meet">
<metadata>
Created by potrace 1.15, written by Peter Selinger 2001-2017
</metadata>
<g transform="translate(0.000000,340.000000) scale(0.100000,-0.100000)"
fill="#000000" stroke="none">
<path d="M1610 2751 c-13 -26 -13 -57 2 -84 11 -22 67 -231 68 -254 0 -7 -26
-20 -57 -29 -32 -9 -130 -38 -218 -64 -88 -26 -195 -53 -238 -60 -77 -13 -92
-25 -62 -50 17 -14 74 -16 128 -5 31 6 37 5 37 -9 0 -9 7 -27 15 -39 44 -67
73 -214 61 -310 l-7 -53 -175 -72 c-197 -80 -188 -82 -132 35 39 81 58 155 58
226 0 102 -63 247 -116 267 -50 19 -134 7 -134 -20 0 -5 20 -32 44 -59 52 -59
61 -96 60 -241 -1 -146 -48 -267 -154 -401 -21 -27 -50 -73 -64 -103 -28 -59
-53 -152 -44 -162 11 -11 87 36 115 70 15 19 59 89 98 156 l70 121 75 2 75 2
-38 -75 c-31 -61 -39 -89 -44 -152 l-6 -78 32 0 c79 0 106 52 117 222 8 132 7
130 98 161 64 22 93 21 105 -1 15 -28 -11 -319 -32 -359 -9 -18 -17 -39 -17
-47 0 -36 85 -49 113 -18 58 64 80 197 52 317 -10 42 -19 95 -19 118 l-1 42
165 29 c91 16 168 34 172 40 16 23 7 56 -18 72 -24 16 -32 16 -152 -10 -70
-14 -137 -29 -149 -32 -22 -6 -23 -3 -23 44 0 75 5 82 57 82 53 0 91 18 127
60 31 38 32 46 5 60 -32 18 -92 14 -137 -9 -37 -19 -42 -19 -56 -5 -9 8 -16
24 -16 35 0 26 -16 57 -48 91 l-25 27 24 5 c127 29 302 66 304 64 1 -2 14 -39
30 -83 39 -111 131 -302 199 -415 l58 -94 -32 -62 c-48 -93 -78 -234 -51 -234
19 0 101 90 131 143 l31 55 122 -125 c159 -163 310 -286 340 -277 78 23 93 56
79 171 -10 74 -16 91 -37 111 -15 12 -35 22 -45 22 -23 0 -50 -47 -50 -85 0
-14 -4 -25 -9 -25 -29 0 -341 277 -341 303 0 4 18 45 40 90 52 109 73 193 74
302 l1 90 -37 20 -38 20 -20 -21 c-16 -15 -23 -42 -31 -113 -9 -83 -51 -257
-65 -271 -9 -8 -42 38 -91 128 -53 97 -93 195 -122 299 l-19 72 41 6 c88 13
144 29 199 56 63 32 67 49 17 74 -37 20 -61 19 -144 -5 -38 -11 -87 -20 -107
-20 -37 0 -38 1 -38 38 0 95 -55 221 -122 277 -36 30 -44 31 -58 6z"/>
<path d="M2000 2654 c0 -16 9 -44 20 -62 24 -39 158 -129 206 -138 36 -7 111
0 122 10 3 4 -4 26 -16 50 -34 71 -83 100 -240 140 -34 9 -68 19 -77 22 -11 5
-15 -1 -15 -22z"/>
<path d="M1620 1658 c0 -44 60 -169 95 -196 30 -23 83 -29 115 -12 18 9 18 13
4 54 -26 76 -112 157 -191 181 -21 6 -23 3 -23 -27z"/>
<path d="M1785 1271 c-82 -21 -188 -50 -235 -64 -47 -14 -115 -30 -152 -37
-78 -14 -88 -31 -33 -57 33 -16 41 -16 178 10 153 29 344 54 352 46 2 -3 -4
-23 -15 -44 -11 -22 -20 -47 -20 -57 0 -24 -8 -27 -118 -50 -53 -10 -153 -38
-222 -61 -69 -23 -129 -42 -134 -42 -5 0 -14 18 -21 40 -30 101 -89 180 -169
225 -37 22 -54 26 -68 19 -25 -14 -23 -28 11 -64 16 -16 39 -59 51 -95 23 -69
89 -212 113 -245 14 -19 16 -18 94 18 44 21 103 40 130 44 l50 5 17 -88 c9
-49 16 -131 16 -182 l0 -94 -32 7 c-39 9 -281 84 -286 90 -3 2 1 18 7 36 17
49 13 78 -14 104 -29 30 -75 34 -75 7 0 -9 -17 -46 -37 -80 -28 -47 -56 -77
-113 -119 -93 -70 -273 -248 -268 -265 3 -7 18 -14 35 -16 35 -4 152 71 291
185 46 37 94 76 106 86 23 18 24 18 85 -13 235 -118 871 -381 968 -400 148
-29 413 12 421 66 6 41 -23 50 -208 63 -337 23 -373 30 -578 111 l-183 73 6
81 c4 44 8 86 10 92 2 6 30 14 63 18 80 9 189 40 267 75 54 25 63 32 58 50 -8
30 -41 51 -79 51 -33 0 -139 -38 -246 -87 -32 -15 -59 -25 -62 -22 -11 13 -33
176 -25 190 11 22 61 39 111 39 75 0 138 46 138 100 0 17 11 32 36 49 65 45
97 124 75 184 -27 70 -80 73 -296 18z"/>
</g>
</svg>
