<?xml version="1.0" standalone="no"?>
<!DOCTYPE svg PUBLIC "-//W3C//DTD SVG 20010904//EN"
 "http://www.w3.org/TR/2001/REC-SVG-20010904/DTD/svg10.dtd">
<svg version="1.0" xmlns="http://www.w3.org/2000/svg"
 width="340.000000pt" height="340.000000pt" viewBox="0 0 340.000000 340.000000"
 preserveAspectRatio="xMidYMid meet">
<metadata>
Created by potrace 1.15, written by Peter Selinger 2001-2017
</metadata>
<g transform="translate(0.000000,340.000000) scale(0.100000,-0.100000)"
fill="#000000" stroke="none">
<path d="M2008 2399 c-29 -16 -21 -58 18 -102 l37 -40 -7 -86 c-7 -87 -31
-273 -42 -323 -5 -24 -15 -31 -72 -48 -36 -11 -104 -27 -151 -35 -46 -9 -87
-17 -89 -20 -10 -10 9 -36 35 -46 26 -10 192 -5 236 7 23 7 22 1 -10 -148
l-27 -127 -131 -42 c-213 -67 -314 -109 -308 -126 13 -34 48 -32 222 12 94 23
171 41 171 38 0 -29 -39 -166 -65 -228 -42 -99 -63 -199 -46 -219 6 -7 32 -19
58 -26 55 -16 121 -6 231 34 95 35 194 55 306 63 l90 6 -34 -44 c-73 -92 -198
-239 -266 -312 l-72 -77 -73 34 c-97 43 -206 79 -219 71 -5 -3 -10 -12 -10
-18 0 -7 75 -68 168 -137 92 -68 199 -154 238 -191 70 -65 135 -99 191 -99 20
0 23 5 23 37 0 81 -67 165 -167 209 -29 13 -53 29 -53 36 0 7 104 117 230 243
217 216 230 232 230 267 0 74 -25 92 -140 103 -99 9 -226 -8 -380 -49 -119
-33 -200 -50 -200 -44 0 9 99 381 102 384 2 2 71 17 153 33 148 30 384 61 458
61 21 0 56 9 77 20 46 24 53 57 20 90 -19 19 -29 20 -123 14 -129 -8 -298 -36
-407 -67 -121 -35 -150 -41 -150 -28 0 18 50 242 56 252 3 5 11 9 19 9 57 0
335 113 335 137 0 20 -60 53 -98 53 -18 0 -60 -11 -95 -25 -34 -14 -81 -28
-103 -32 l-41 -5 19 83 c11 51 21 144 25 237 5 140 4 154 -13 173 -40 45 -114
63 -156 38z"/>
<path d="M1158 2389 c-24 -14 -23 -45 3 -67 46 -38 44 -67 -22 -267 -44 -136
-53 -147 -140 -173 -41 -12 -117 -28 -169 -35 -86 -11 -95 -15 -98 -35 -3 -18
4 -26 34 -38 36 -15 45 -15 147 6 60 12 111 19 113 17 17 -16 -86 -210 -202
-383 -64 -96 -76 -142 -46 -172 43 -43 74 -39 257 38 94 40 176 74 183 77 9 4
12 -30 12 -150 l0 -155 -202 -105 c-281 -146 -319 -164 -353 -174 -40 -11 -45
-50 -12 -88 l24 -28 64 12 c89 17 149 47 259 130 86 64 196 131 215 131 10 0
0 -306 -16 -481 -15 -166 -11 -189 34 -189 17 0 38 4 45 9 25 16 44 187 47
441 2 135 8 258 14 272 6 15 20 32 33 39 32 16 128 111 128 126 0 20 -65 16
-110 -7 -22 -11 -42 -20 -45 -20 -3 0 -5 62 -5 138 l0 137 73 23 c79 25 177
84 177 107 0 20 -49 55 -77 55 -13 0 -46 -9 -73 -21 -77 -33 -84 -27 -90 66
-7 104 -26 134 -97 149 -28 7 -33 5 -37 -16 -12 -59 -15 -118 -8 -170 15 -101
-16 -135 -145 -162 -38 -8 -81 -19 -96 -25 -15 -6 -27 -7 -27 -3 1 4 51 106
113 226 l112 220 125 33 c69 17 168 45 220 60 86 25 95 31 98 54 2 16 -5 32
-18 44 -22 20 -23 19 -187 -23 -91 -24 -168 -41 -170 -38 -3 3 16 61 42 128
71 181 70 243 -5 280 -39 20 -95 23 -122 7z"/>
</g>
</svg>
