<?xml version="1.0" standalone="no"?>
<!DOCTYPE svg PUBLIC "-//W3C//DTD SVG 20010904//EN"
 "http://www.w3.org/TR/2001/REC-SVG-20010904/DTD/svg10.dtd">
<svg version="1.0" xmlns="http://www.w3.org/2000/svg"
 width="340.000000pt" height="340.000000pt" viewBox="0 0 340.000000 340.000000"
 preserveAspectRatio="xMidYMid meet">
<metadata>
Created by potrace 1.15, written by Peter Selinger 2001-2017
</metadata>
<g transform="translate(0.000000,340.000000) scale(0.100000,-0.100000)"
fill="#000000" stroke="none">
<path d="M1123 2393 c-19 -7 -16 -48 9 -94 20 -39 21 -46 9 -103 -7 -33 -28
-109 -48 -168 l-35 -107 -147 -35 c-80 -19 -162 -37 -181 -41 -41 -8 -60 -22
-60 -41 0 -29 46 -34 172 -19 174 21 169 21 157 -15 -13 -35 -164 -340 -209
-420 -24 -42 -30 -63 -26 -90 13 -87 89 -92 278 -20 72 28 135 50 140 50 4 0
8 -70 8 -155 l0 -156 -97 -45 c-290 -136 -445 -204 -462 -204 -11 0 -45 -9
-75 -21 -65 -24 -65 -37 1 -76 39 -22 52 -25 101 -20 84 9 176 44 251 94 90
61 272 166 277 160 3 -3 0 -141 -6 -307 -12 -298 -12 -303 8 -323 11 -11 27
-17 36 -14 38 15 44 47 60 322 9 149 16 298 16 332 0 63 0 63 36 78 52 21 163
98 203 138 31 33 32 35 13 41 -28 9 -64 -1 -147 -41 -38 -18 -75 -33 -82 -33
-10 0 -13 26 -13 104 0 155 3 163 58 171 26 4 60 14 77 22 32 16 85 62 85 73
0 11 -73 40 -105 42 -16 1 -46 -1 -66 -5 l-36 -7 5 79 c5 84 -12 154 -47 200
-17 22 -21 23 -54 12 -44 -15 -51 -32 -36 -92 9 -34 10 -74 3 -145 l-9 -98
-125 -38 c-69 -21 -128 -37 -132 -35 -10 3 23 88 84 217 30 63 72 154 93 201
l39 86 151 38 c227 56 309 86 313 111 5 38 -25 57 -80 50 -41 -6 -215 -48
-295 -72 -35 -10 -30 26 17 126 60 129 54 211 -20 274 -30 25 -74 33 -107 19z"/>
<path d="M1868 2349 c-28 -16 -21 -46 19 -95 l36 -45 -32 -97 c-57 -167 -129
-340 -228 -545 -88 -182 -95 -199 -80 -214 22 -22 31 -13 122 115 l75 106 132
27 c73 15 183 42 243 62 101 32 215 54 215 43 0 -3 -11 -22 -25 -42 -13 -20
-27 -51 -31 -70 -6 -33 2 -104 12 -104 18 0 180 118 252 184 53 48 56 82 12
120 -37 31 -82 41 -180 40 -106 0 -166 -17 -320 -90 -148 -70 -280 -118 -280
-103 0 6 42 92 93 192 93 180 128 278 143 395 6 47 4 56 -17 79 -43 46 -120
66 -161 42z"/>
<path d="M1863 1468 c-15 -28 -18 -54 -16 -158 7 -327 -106 -609 -347 -864
-78 -83 -95 -113 -88 -155 3 -21 3 -21 57 6 191 99 398 428 491 782 l11 43 58
-104 c142 -255 339 -547 402 -594 86 -66 209 -104 333 -104 66 0 74 2 85 24
23 43 11 57 -84 96 -250 102 -447 276 -623 550 -151 236 -158 251 -147 329 9
65 -8 124 -46 155 -41 35 -65 33 -86 -6z"/>
</g>
</svg>
