<?xml version="1.0" standalone="no"?>
<!DOCTYPE svg PUBLIC "-//W3C//DTD SVG 20010904//EN"
 "http://www.w3.org/TR/2001/REC-SVG-20010904/DTD/svg10.dtd">
<svg version="1.0" xmlns="http://www.w3.org/2000/svg"
 width="340.000000pt" height="340.000000pt" viewBox="0 0 340.000000 340.000000"
 preserveAspectRatio="xMidYMid meet">
<metadata>
Created by potrace 1.15, written by Peter Selinger 2001-2017
</metadata>
<g transform="translate(0.000000,340.000000) scale(0.100000,-0.100000)"
fill="#000000" stroke="none">
<path d="M1080 2380 c-25 -25 -25 -33 2 -97 l21 -52 -38 -123 c-21 -68 -44
-129 -50 -136 -16 -18 -158 -58 -255 -73 -74 -10 -80 -13 -80 -35 0 -33 29
-38 177 -31 67 4 123 4 123 2 0 -3 -16 -47 -36 -98 -49 -124 -124 -272 -195
-384 -76 -122 -81 -177 -17 -204 46 -19 86 -15 159 16 180 77 252 105 265 105
11 0 14 -28 14 -151 l0 -150 -142 -69 c-235 -112 -390 -177 -437 -183 -28 -3
-53 -14 -69 -30 l-25 -25 43 -31 c75 -54 158 -54 244 0 73 46 353 209 371 215
13 5 15 -7 15 -72 0 -155 -20 -351 -41 -391 -23 -45 -24 -72 -4 -118 17 -43
52 -59 94 -44 47 17 55 70 56 379 1 146 5 277 9 291 6 20 26 36 79 63 95 49
204 135 186 147 -24 15 -46 10 -145 -31 -53 -22 -100 -40 -105 -40 -6 0 -8 63
-7 148 l3 147 62 7 c61 7 162 48 185 75 9 11 6 20 -14 40 -37 37 -100 41 -167
13 -36 -16 -55 -20 -62 -13 -6 6 -12 58 -12 115 -2 98 -4 108 -33 154 -27 43
-34 49 -62 47 -64 -3 -71 -24 -43 -143 5 -25 10 -86 11 -137 l0 -91 -138 -46
c-75 -25 -140 -46 -145 -46 -14 0 -7 25 29 105 20 44 74 170 119 280 l83 199
109 23 c59 12 158 38 220 58 94 30 111 38 106 53 -17 48 -58 67 -112 52 -44
-13 -251 -60 -261 -60 -4 0 3 26 16 58 32 79 46 149 42 223 -3 59 -5 65 -37
86 -42 28 -85 29 -111 3z"/>
<path d="M2160 2131 c-190 -53 -367 -105 -395 -114 -27 -10 -73 -20 -102 -24
-29 -3 -60 -11 -70 -18 -22 -16 -10 -43 24 -51 23 -6 146 6 236 23 24 5 27 3
27 -23 -1 -77 -107 -274 -261 -486 -53 -73 -55 -79 -38 -126 13 -38 57 -55
109 -43 19 4 78 27 130 49 125 53 129 54 156 14 29 -42 44 -114 44 -206 l0
-73 -97 -31 c-54 -17 -137 -42 -185 -57 -93 -28 -106 -42 -66 -69 31 -22 57
-20 208 14 73 17 134 30 136 30 2 0 4 -92 4 -205 0 -156 -3 -206 -12 -209 -7
-2 -85 -13 -173 -25 -127 -17 -348 -61 -443 -87 -10 -3 -10 -8 -1 -25 11 -21
15 -22 163 -16 88 3 195 14 256 26 185 36 311 51 490 57 156 5 404 -5 516 -22
36 -5 44 -3 63 21 29 38 27 51 -19 84 -51 37 -115 54 -181 48 -30 -2 -164 -14
-297 -26 -134 -12 -245 -21 -247 -19 -1 2 2 98 8 214 l10 212 41 12 c23 7 83
18 135 26 98 13 141 37 141 75 0 18 -7 20 -105 34 -29 4 -124 -6 -177 -20
l-27 -7 0 84 c0 82 -29 210 -51 223 -20 12 -9 22 48 39 31 10 93 37 137 60 44
22 83 42 86 44 3 1 14 -16 24 -39 35 -76 152 -155 176 -118 12 19 11 82 -2
115 -30 80 -203 274 -312 352 l-46 33 -7 -28 c-8 -29 33 -114 108 -226 43 -64
44 -62 -47 -71 -101 -10 -263 -46 -388 -86 l-119 -38 7 26 c4 15 23 50 44 77
89 120 153 245 190 371 12 40 28 77 36 84 8 7 52 19 97 26 168 29 412 95 431
116 20 24 22 61 4 77 -33 27 -79 18 -417 -78z"/>
</g>
</svg>
