<?xml version="1.0" standalone="no"?>
<!DOCTYPE svg PUBLIC "-//W3C//DTD SVG 20010904//EN"
 "http://www.w3.org/TR/2001/REC-SVG-20010904/DTD/svg10.dtd">
<svg version="1.0" xmlns="http://www.w3.org/2000/svg"
 width="340.000000pt" height="340.000000pt" viewBox="0 0 340.000000 340.000000"
 preserveAspectRatio="xMidYMid meet">
<metadata>
Created by potrace 1.15, written by Peter Selinger 2001-2017
</metadata>
<g transform="translate(0.000000,340.000000) scale(0.100000,-0.100000)"
fill="#000000" stroke="none">
<path d="M997 2513 c-12 -11 -8 -63 7 -91 8 -15 28 -36 45 -47 17 -11 31 -27
31 -35 0 -25 -51 -202 -68 -239 -14 -28 -30 -40 -87 -63 -38 -16 -117 -42
-174 -59 -57 -16 -107 -32 -110 -35 -3 -3 5 -14 18 -25 30 -24 76 -24 165 0
98 26 136 32 136 21 0 -17 -110 -263 -157 -350 -25 -47 -69 -126 -99 -176 -59
-99 -63 -130 -22 -173 31 -34 79 -27 197 28 156 72 211 92 217 77 2 -6 3 -74
2 -151 l-3 -138 -65 -40 c-121 -74 -405 -216 -455 -227 -27 -6 -55 -16 -62
-22 -54 -45 67 -122 155 -99 21 6 123 67 227 135 l190 125 3 -42 c8 -88 -19
-490 -35 -531 -26 -70 -27 -108 -3 -133 26 -28 40 -29 74 -2 50 39 52 53 65
404 7 182 14 344 17 360 3 22 16 37 50 59 52 33 164 133 164 147 0 19 -97 -4
-192 -45 -16 -7 -18 0 -18 82 0 49 3 109 6 133 6 44 7 45 57 57 54 13 120 58
125 85 5 27 -54 50 -114 45 l-54 -5 8 41 c22 123 -12 269 -66 283 -14 3 -37 2
-51 -3 -24 -9 -26 -14 -25 -69 1 -33 5 -108 9 -166 l8 -106 -29 -31 c-23 -25
-53 -39 -139 -67 -60 -18 -111 -33 -113 -31 -5 5 43 127 73 186 16 30 63 134
106 230 l78 175 98 16 c115 20 168 38 240 81 l53 32 -22 23 c-33 35 -74 38
-155 10 -82 -29 -153 -43 -153 -30 0 5 16 56 35 113 42 126 44 167 10 208 -45
54 -172 102 -198 75z"/>
<path d="M1987 2502 c-34 -7 -38 -45 -12 -119 34 -96 46 -190 43 -323 l-3
-114 -135 -28 c-74 -15 -193 -42 -264 -59 -71 -18 -141 -33 -155 -34 -41 -3
-43 -4 -39 -27 3 -22 8 -23 93 -26 104 -4 222 11 309 39 34 11 92 22 129 26
l68 6 -3 -108 -3 -108 -170 -48 c-132 -38 -175 -46 -193 -39 -40 17 -71 12
-77 -13 -3 -12 5 -79 20 -149 35 -176 41 -321 21 -578 -10 -118 -21 -255 -26
-305 -20 -187 -13 -216 44 -201 19 5 25 16 34 63 44 225 75 806 54 1004 -6 62
-10 114 -8 117 2 2 35 8 73 14 37 6 97 16 133 23 104 19 101 22 98 -119 l-3
-121 -102 -39 c-57 -22 -103 -44 -103 -48 0 -5 16 -16 35 -25 31 -15 43 -15
97 -4 36 7 64 9 70 3 5 -5 7 -71 6 -148 l-3 -138 -117 -41 c-121 -42 -132 -53
-75 -74 22 -9 43 -7 92 6 61 16 65 16 85 -2 19 -17 20 -29 20 -265 0 -209 2
-250 15 -260 13 -10 19 -10 34 4 21 19 39 166 50 411 l6 140 63 7 c61 7 147
40 187 72 20 16 20 16 -13 46 -37 35 -59 37 -147 13 -92 -24 -95 -21 -95 133
0 135 -5 124 67 139 38 8 83 56 83 90 0 20 -6 25 -44 30 -24 4 -58 4 -75 0
l-31 -7 1 74 c0 40 3 91 7 113 7 35 11 41 47 51 57 18 160 17 226 -2 55 -15
58 -18 64 -53 19 -120 37 -434 42 -746 l5 -360 -28 27 c-55 51 -144 72 -144
34 0 -57 69 -167 138 -221 59 -46 106 -55 135 -26 19 19 22 32 21 99 -1 42 -4
326 -7 629 -6 539 -7 554 -28 603 -26 60 -95 125 -148 140 -62 17 -157 12
-290 -16 l-33 -7 4 101 c2 56 6 103 8 106 18 17 249 39 445 42 123 1 232 7
247 13 24 9 68 62 68 82 0 3 -17 13 -37 24 -70 33 -156 30 -435 -14 -142 -23
-264 -41 -272 -41 -12 0 -14 15 -9 88 3 48 0 127 -6 176 -13 93 -55 241 -72
251 -18 12 -64 21 -82 17z"/>
<path d="M2334 2346 c-8 -21 5 -39 60 -81 77 -58 141 -78 190 -59 37 14 2 99
-56 134 -42 25 -185 29 -194 6z"/>
</g>
</svg>
