<?xml version="1.0" standalone="no"?>
<!DOCTYPE svg PUBLIC "-//W3C//DTD SVG 20010904//EN"
 "http://www.w3.org/TR/2001/REC-SVG-20010904/DTD/svg10.dtd">
<svg version="1.0" xmlns="http://www.w3.org/2000/svg"
 width="340.000000pt" height="340.000000pt" viewBox="0 0 340.000000 340.000000"
 preserveAspectRatio="xMidYMid meet">
<metadata>
Created by potrace 1.15, written by Peter Selinger 2001-2017
</metadata>
<g transform="translate(0.000000,340.000000) scale(0.100000,-0.100000)"
fill="#000000" stroke="none">
<path d="M1868 2619 c-24 -14 -23 -67 2 -99 19 -24 20 -43 20 -406 0 -354 1
-383 18 -404 16 -19 22 -21 40 -11 12 6 24 22 27 34 6 27 25 148 25 161 0 5
64 6 158 1 222 -12 262 -11 308 13 22 11 47 28 54 37 13 15 11 20 -13 41 -34
29 -97 47 -134 38 -15 -4 -102 -26 -193 -50 -90 -24 -168 -44 -172 -44 -4 0
-8 43 -8 95 l0 95 63 0 c34 0 82 5 107 10 69 15 190 61 190 71 0 6 -11 21 -25
34 -35 36 -84 32 -216 -15 -62 -22 -114 -40 -116 -40 -7 0 -2 93 8 140 l11 50
66 0 c37 0 87 5 112 11 64 15 160 59 160 75 0 21 -51 54 -84 54 -17 0 -76 -14
-131 -30 -55 -16 -106 -30 -112 -30 -9 0 -13 15 -13 43 0 54 -17 86 -59 114
-36 25 -66 28 -93 12z"/>
<path d="M1384 2570 c-32 -13 -36 -37 -13 -90 11 -26 19 -63 17 -81 l-3 -34
-83 -7 c-81 -7 -265 -51 -289 -70 -19 -15 -4 -37 34 -47 58 -16 224 6 296 40
38 17 47 3 47 -83 0 -66 -1 -68 -27 -74 -156 -34 -383 -114 -383 -134 0 -20
34 -40 68 -40 20 0 100 18 177 40 77 22 146 40 152 40 9 0 13 -20 13 -68 l0
-68 -97 -28 c-231 -64 -322 -96 -328 -115 -8 -25 3 -49 26 -56 40 -13 256 61
347 119 23 14 44 26 47 26 3 0 5 -24 5 -52 0 -59 41 -163 62 -156 6 2 21 17
32 32 20 26 21 44 27 434 7 450 8 441 -56 468 -39 16 -42 16 -71 4z"/>
<path d="M1570 1775 c-6 -19 -13 -64 -15 -100 -3 -72 -20 -107 -63 -129 -15
-8 -98 -28 -186 -45 -87 -16 -161 -33 -164 -36 -3 -2 3 -14 14 -26 15 -17 26
-20 59 -15 61 9 230 24 234 20 4 -4 -36 -57 -134 -178 -69 -86 -80 -104 -80
-138 0 -81 58 -95 219 -53 95 24 255 55 289 55 16 0 17 -10 15 -107 l-3 -108
-120 -12 c-196 -21 -486 -61 -710 -100 -116 -19 -234 -35 -262 -34 -42 1 -57
-3 -74 -20 -27 -27 -20 -32 87 -59 132 -34 235 -27 424 31 160 48 509 109 626
109 l31 0 7 -198 c15 -434 30 -533 71 -491 23 23 34 141 42 436 l6 261 95 7
c136 11 424 0 582 -21 74 -9 147 -14 162 -11 39 10 50 36 32 73 -17 35 -52 46
-211 66 -73 9 -122 9 -212 -1 -64 -6 -191 -15 -283 -18 l-168 -6 0 105 0 105
98 6 c91 6 178 25 212 46 12 9 12 14 -3 45 -19 40 -47 51 -105 42 -20 -3 -71
-9 -113 -12 l-76 -6 -6 49 c-10 90 -38 125 -111 138 -34 7 -37 5 -50 -26 -15
-36 -13 -50 17 -92 16 -23 17 -33 8 -53 -6 -13 -21 -28 -33 -34 -25 -10 -289
-42 -296 -36 -11 11 111 177 174 238 37 35 46 38 164 58 69 12 206 32 304 45
146 19 183 27 199 44 18 17 19 22 6 37 -12 15 -31 16 -164 11 -133 -5 -348
-33 -399 -53 -17 -6 -18 -4 -12 17 16 50 19 130 6 154 -14 26 -66 55 -98 55
-14 0 -24 -10 -32 -35z"/>
</g>
</svg>
