<?xml version="1.0" standalone="no"?>
<!DOCTYPE svg PUBLIC "-//W3C//DTD SVG 20010904//EN"
 "http://www.w3.org/TR/2001/REC-SVG-20010904/DTD/svg10.dtd">
<svg version="1.0" xmlns="http://www.w3.org/2000/svg"
 width="340.000000pt" height="340.000000pt" viewBox="0 0 340.000000 340.000000"
 preserveAspectRatio="xMidYMid meet">
<metadata>
Created by potrace 1.15, written by Peter Selinger 2001-2017
</metadata>
<g transform="translate(0.000000,340.000000) scale(0.100000,-0.100000)"
fill="#000000" stroke="none">
<path d="M1787 2572 c-25 -27 -21 -48 18 -89 l35 -37 0 -141 c0 -77 -3 -150
-6 -162 -5 -18 -21 -28 -72 -43 -53 -17 -223 -50 -254 -50 -5 0 -8 -8 -8 -19
0 -28 30 -31 182 -19 76 6 140 9 142 7 2 -2 -3 -48 -11 -101 l-15 -98 -42 -11
c-156 -41 -366 -120 -366 -138 0 -19 31 -33 62 -28 18 2 103 23 189 45 251 65
521 104 827 120 136 7 155 10 174 29 16 17 19 28 14 56 -6 30 -11 35 -44 41
-64 10 -185 6 -252 -9 -78 -18 -422 -76 -426 -73 -1 2 4 43 11 93 16 110 33
129 122 139 32 4 81 12 108 18 59 12 195 73 195 86 0 5 -9 17 -20 27 -16 15
-30 17 -88 11 -62 -6 -216 -35 -267 -51 -19 -6 -20 -1 -20 127 0 112 -4 142
-23 193 -12 33 -31 68 -43 78 -29 23 -101 23 -122 -1z"/>
<path d="M973 2470 c-38 -15 -40 -55 -4 -95 39 -45 40 -84 5 -220 -15 -55 -29
-110 -31 -122 -3 -12 -10 -27 -17 -32 -12 -10 -266 -81 -358 -101 -54 -11 -58
-13 -58 -40 0 -49 47 -52 233 -14 70 15 130 24 132 22 15 -15 -97 -263 -194
-431 -68 -116 -70 -173 -8 -196 39 -15 75 -5 219 60 71 32 137 61 148 64 20 6
20 3 18 -162 l-3 -168 -70 -38 c-247 -136 -470 -247 -495 -247 -31 0 -60 -30
-60 -63 0 -10 12 -29 26 -44 22 -22 31 -24 67 -19 76 12 171 62 347 180 96 65
176 114 177 109 2 -6 0 -165 -5 -354 -6 -222 -6 -351 0 -363 8 -15 17 -17 46
-12 21 3 42 13 49 21 25 36 38 191 38 489 l0 299 49 27 c98 54 223 170 184
170 -33 0 -137 -33 -191 -61 l-59 -30 7 118 c4 65 10 136 14 157 6 39 7 39 66
52 76 15 118 33 174 74 l45 33 -28 23 c-32 28 -86 32 -139 9 -47 -19 -83 -19
-91 1 -3 9 -6 42 -6 75 0 65 -19 121 -52 156 -28 30 -35 29 -58 -9 -14 -24
-20 -51 -20 -98 0 -36 -3 -95 -6 -131 l-7 -65 -111 -37 c-62 -20 -117 -37
-124 -37 -19 0 -5 41 65 187 36 74 82 176 103 226 l39 92 88 22 c83 22 223 83
268 119 20 15 20 16 -8 40 -32 28 -54 30 -102 10 -28 -12 -177 -56 -189 -56
-2 0 8 28 21 62 48 117 40 223 -24 319 -21 32 -31 39 -57 38 -17 0 -41 -4 -53
-9z"/>
<path d="M2041 1615 c-142 -30 -277 -69 -356 -102 -53 -22 -69 -25 -132 -19
-49 5 -74 3 -78 -5 -4 -6 16 -55 44 -108 29 -53 70 -135 93 -183 38 -81 43
-88 70 -88 16 0 39 5 51 12 52 27 -187 -244 -373 -425 -151 -147 -179 -187
-127 -187 34 0 259 166 385 284 29 27 55 46 59 43 8 -8 -12 -363 -28 -505 -7
-55 -9 -107 -6 -115 3 -7 22 -22 42 -31 30 -15 42 -16 65 -6 59 24 278 270
350 392 l22 37 -53 -15 c-71 -21 -124 -56 -189 -125 -87 -92 -85 -96 -85 146
0 142 -4 230 -14 273 -13 57 -12 64 4 82 10 11 23 20 29 20 16 0 263 -191 468
-363 173 -144 195 -160 266 -184 91 -31 290 -45 341 -23 68 28 40 70 -61 95
-103 25 -230 71 -319 116 -90 45 -266 161 -327 215 l-43 39 160 128 161 128 0
43 c0 62 -8 76 -41 76 -45 0 -73 -18 -103 -66 -25 -40 -241 -254 -256 -254 -6
0 -166 104 -178 115 -2 1 6 28 16 60 l20 57 66 22 c88 30 162 82 224 160 77
97 92 125 92 178 0 102 -68 123 -259 83z m86 -121 c3 -9 -10 -50 -32 -93 l-37
-78 -75 -11 c-42 -7 -107 -24 -147 -38 -39 -14 -78 -28 -87 -31 -12 -3 -18 4
-23 24 -4 15 -23 60 -41 100 l-33 72 36 7 c48 9 392 61 415 63 10 0 20 -6 24
-15z"/>
</g>
</svg>
