<?xml version="1.0" standalone="no"?>
<!DOCTYPE svg PUBLIC "-//W3C//DTD SVG 20010904//EN"
 "http://www.w3.org/TR/2001/REC-SVG-20010904/DTD/svg10.dtd">
<svg version="1.0" xmlns="http://www.w3.org/2000/svg"
 width="340.000000pt" height="340.000000pt" viewBox="0 0 340.000000 340.000000"
 preserveAspectRatio="xMidYMid meet">
<metadata>
Created by potrace 1.15, written by Peter Selinger 2001-2017
</metadata>
<g transform="translate(0.000000,340.000000) scale(0.100000,-0.100000)"
fill="#000000" stroke="none">
<path d="M1490 2515 c-13 -15 -11 -20 20 -46 46 -38 225 -128 270 -135 26 -4
42 -1 63 16 35 28 34 43 -5 85 -42 45 -149 83 -256 92 -66 5 -80 3 -92 -12z"/>
<path d="M1850 2240 c-396 -74 -601 -115 -693 -141 -32 -8 -36 -13 -27 -25 7
-7 30 -19 52 -25 33 -9 72 -5 222 20 238 41 446 66 689 86 108 8 208 20 222
25 38 14 65 47 65 79 0 40 -24 61 -68 60 -20 -1 -228 -36 -462 -79z"/>
<path d="M2007 2022 c-10 -10 -17 -35 -17 -55 0 -31 -13 -53 -77 -135 -43 -53
-105 -134 -138 -179 l-60 -81 -80 -12 c-261 -37 -1037 -170 -1117 -191 -43
-11 -47 -25 -17 -58 55 -59 128 -64 279 -21 213 61 517 125 829 174 33 5 52
-46 61 -169 5 -55 11 -109 15 -121 12 -39 -22 -63 -120 -85 -50 -11 -183 -42
-297 -70 -196 -48 -207 -52 -197 -70 24 -46 43 -45 322 6 144 26 268 50 275
52 9 4 12 -35 12 -173 1 -275 32 -634 58 -660 29 -30 54 -8 63 58 4 29 8 204
8 388 1 184 4 351 7 371 l6 37 87 10 c169 22 286 25 369 12 72 -12 85 -12 125
4 24 9 53 26 63 37 18 20 18 21 -13 49 -65 58 -85 58 -541 -1 -40 -5 -77 -9
-81 -9 -5 0 -11 43 -15 96 -4 52 -13 131 -20 175 -9 58 -10 82 -2 85 44 15
251 26 611 30 257 3 431 10 448 16 34 13 45 50 24 82 -15 22 -24 24 -141 31
-134 8 -278 2 -476 -20 -69 -8 -183 -17 -255 -21 l-129 -6 81 86 c84 88 193
241 193 269 0 29 -22 65 -47 76 -36 16 -78 13 -96 -7z"/>
<path d="M1311 1918 c-11 -30 1 -69 33 -111 14 -19 26 -38 26 -44 0 -26 61
-91 99 -107 66 -26 71 -23 71 37 0 97 -67 192 -164 232 -47 20 -55 19 -65 -7z"/>
</g>
</svg>
