<?xml version="1.0" standalone="no"?>
<!DOCTYPE svg PUBLIC "-//W3C//DTD SVG 20010904//EN"
 "http://www.w3.org/TR/2001/REC-SVG-20010904/DTD/svg10.dtd">
<svg version="1.0" xmlns="http://www.w3.org/2000/svg"
 width="340.000000pt" height="340.000000pt" viewBox="0 0 340.000000 340.000000"
 preserveAspectRatio="xMidYMid meet">
<metadata>
Created by potrace 1.15, written by Peter Selinger 2001-2017
</metadata>
<g transform="translate(0.000000,340.000000) scale(0.100000,-0.100000)"
fill="#000000" stroke="none">
<path d="M2010 2494 c0 -28 19 -52 79 -98 87 -65 117 -79 164 -73 22 3 44 10
49 15 17 17 -11 79 -49 111 -59 49 -243 83 -243 45z"/>
<path d="M1354 2380 c-50 -10 -137 -35 -195 -55 -58 -20 -142 -41 -189 -47
-47 -6 -88 -13 -93 -17 -4 -4 0 -27 8 -51 35 -99 46 -207 35 -340 -10 -116
-35 -264 -60 -352 -9 -32 -14 -36 -38 -35 -25 2 -27 0 -24 -33 11 -132 10
-136 -72 -320 -43 -96 -114 -249 -157 -339 -80 -166 -87 -185 -69 -196 21 -13
53 20 128 134 91 137 186 324 235 461 l35 94 21 -34 c30 -49 49 -120 61 -230
6 -52 17 -124 25 -160 16 -67 54 -180 62 -180 30 0 63 55 63 105 0 21 6 23 83
29 136 12 285 35 305 47 27 17 44 47 38 67 -3 9 -20 25 -37 35 -29 16 -31 20
-26 65 3 26 21 109 40 185 57 222 63 271 43 302 -25 38 -99 69 -144 60 -32 -6
-201 -75 -374 -153 l-66 -30 -22 20 c-15 14 -20 27 -15 42 7 22 38 165 49 227
l6 36 83 8 c141 12 357 56 385 77 15 13 16 70 1 85 -8 8 -3 23 17 54 38 61
107 210 133 291 l23 68 -23 31 c-27 39 -91 69 -144 68 -22 0 -81 -9 -131 -19z
m136 -126 c7 -7 -2 -34 -25 -80 -19 -38 -52 -112 -72 -164 -20 -52 -41 -100
-45 -107 -5 -6 -32 -17 -61 -24 -29 -7 -96 -27 -149 -45 -54 -18 -98 -28 -98
-23 0 6 5 65 11 132 9 94 8 138 -1 191 -9 52 -9 70 0 76 6 4 57 15 113 24 56
10 125 21 152 26 62 11 162 7 175 -6z m-46 -864 c-1 -21 -74 -411 -78 -417 -1
-1 -33 -7 -71 -13 -39 -6 -94 -22 -122 -35 l-53 -24 -9 37 c-6 20 -15 78 -21
127 -6 50 -20 124 -31 167 -10 42 -19 83 -19 91 0 11 30 22 113 41 280 65 293
66 291 26z"/>
<path d="M2515 2270 c-12 -4 -176 -47 -365 -94 -190 -48 -362 -92 -382 -97
-47 -12 -53 -45 -10 -56 45 -11 778 105 827 131 50 27 65 64 41 100 -13 21
-24 26 -54 25 -20 0 -46 -4 -57 -9z"/>
<path d="M2361 1995 c-16 -21 -18 -31 -10 -55 6 -16 16 -34 24 -40 10 -8 1
-32 -45 -118 -32 -59 -71 -135 -85 -168 l-27 -62 -86 -17 c-112 -21 -220 -48
-355 -87 -103 -30 -108 -33 -105 -57 4 -38 38 -38 243 0 97 17 178 29 182 26
14 -15 33 -130 33 -204 0 -77 -2 -84 -25 -99 -14 -9 -107 -37 -208 -63 -150
-38 -182 -50 -186 -66 -10 -52 60 -56 269 -16 l145 27 6 -115 c4 -64 7 -234 8
-378 0 -144 5 -273 11 -287 10 -28 40 -35 59 -12 32 38 68 520 52 682 -6 62
-7 104 -1 115 11 20 28 22 275 39 88 7 163 15 166 18 4 4 9 19 13 35 5 21 1
33 -18 52 -22 22 -34 25 -93 25 -37 0 -122 -7 -188 -15 -66 -8 -125 -15 -131
-15 -7 0 -16 55 -23 151 -13 159 -12 168 29 169 8 0 92 9 185 19 94 11 220 22
282 26 l112 7 10 31 c15 40 14 44 -9 67 -16 16 -33 20 -89 20 -78 0 -287 -25
-373 -44 -32 -8 -58 -9 -58 -4 0 14 68 117 111 168 61 73 75 138 43 206 -32
67 -105 87 -143 39z"/>
<path d="M1886 1934 c-18 -48 15 -234 51 -283 21 -27 97 -61 109 -48 4 4 10
34 12 66 5 67 -13 116 -72 198 -31 43 -74 83 -90 83 -2 0 -7 -7 -10 -16z"/>
</g>
</svg>
