<?xml version="1.0" standalone="no"?>
<!DOCTYPE svg PUBLIC "-//W3C//DTD SVG 20010904//EN"
 "http://www.w3.org/TR/2001/REC-SVG-20010904/DTD/svg10.dtd">
<svg version="1.0" xmlns="http://www.w3.org/2000/svg"
 width="340.000000pt" height="340.000000pt" viewBox="0 0 340.000000 340.000000"
 preserveAspectRatio="xMidYMid meet">
<metadata>
Created by potrace 1.15, written by Peter Selinger 2001-2017
</metadata>
<g transform="translate(0.000000,340.000000) scale(0.100000,-0.100000)"
fill="#000000" stroke="none">
<path d="M903 2544 c-57 -26 65 -120 227 -176 53 -18 55 -18 80 0 40 30 37 63
-6 102 -59 52 -118 73 -209 77 -44 1 -86 0 -92 -3z"/>
<path d="M2026 2512 c-9 -28 1 -46 37 -67 18 -10 49 -34 71 -53 41 -36 129
-82 159 -82 25 0 50 61 38 94 -20 52 -129 105 -248 121 -45 6 -52 4 -57 -13z"/>
<path d="M1607 2424 c-13 -13 -7 -68 12 -109 42 -94 46 -135 44 -485 -1 -242
-6 -365 -17 -444 -39 -269 -127 -513 -268 -740 -46 -74 -88 -190 -73 -204 3
-3 22 2 41 13 26 14 53 49 109 140 132 215 222 438 260 645 10 52 19 101 21
108 2 8 30 12 92 12 49 0 129 7 177 15 57 10 92 12 98 6 5 -5 12 -64 15 -129
l5 -120 -50 -10 c-82 -18 -243 -72 -243 -82 0 -5 12 -17 26 -26 22 -15 34 -16
102 -6 87 14 172 16 172 5 0 -5 7 -192 15 -418 12 -338 17 -412 30 -424 13
-14 17 -14 31 0 33 34 46 161 51 522 l5 349 27 -5 c73 -14 217 41 209 81 -2 9
-19 27 -38 40 -29 20 -44 23 -90 19 -30 -2 -63 -7 -72 -11 -32 -14 -48 31 -50
147 -1 59 1 109 3 111 12 12 270 47 425 57 186 12 227 22 239 59 10 31 -18 67
-58 74 -51 10 -256 -11 -376 -38 -138 -31 -181 -38 -181 -31 0 4 25 41 56 83
62 86 142 241 151 294 6 40 -15 88 -49 112 -12 9 -42 16 -67 16 l-44 0 6 -81
5 -82 -57 -101 c-32 -56 -79 -140 -105 -188 -46 -86 -48 -88 -99 -103 -44 -13
-250 -64 -325 -80 l-22 -5 5 132 c3 73 10 201 15 283 23 367 23 448 6 490 -20
46 -42 72 -76 90 -34 17 -84 27 -93 19z"/>
<path d="M1265 2263 c-38 -14 -182 -67 -320 -118 -137 -51 -262 -95 -277 -99
-15 -3 -32 -16 -39 -27 -10 -20 -9 -20 48 -14 174 20 478 101 646 172 90 38
107 48 107 67 0 53 -55 59 -165 19z"/>
<path d="M2390 2230 c-133 -30 -287 -73 -409 -115 -41 -14 -89 -25 -106 -25
-33 0 -55 -15 -55 -38 0 -39 460 18 636 78 99 34 164 64 164 78 0 24 -39 52
-72 51 -18 0 -89 -13 -158 -29z"/>
<path d="M1208 2055 c-35 -20 -43 -47 -23 -85 16 -31 15 -34 -24 -123 -22 -51
-52 -129 -68 -174 -28 -82 -28 -82 -78 -102 -361 -141 -498 -190 -531 -189
-25 1 -41 -4 -50 -17 -21 -29 -17 -38 28 -68 66 -42 117 -38 254 23 63 28 129
60 149 71 19 12 51 25 70 29 33 7 34 6 51 -34 9 -22 19 -77 21 -121 l4 -80
-170 -100 c-172 -101 -199 -126 -139 -133 15 -2 62 12 105 31 91 40 180 70
191 65 13 -5 -23 -178 -59 -288 -27 -82 -55 -144 -152 -332 -21 -42 -16 -58
17 -58 45 0 191 226 259 400 14 36 38 129 53 208 15 82 31 142 38 142 23 0
114 49 150 81 l38 33 -22 18 c-32 26 -80 31 -127 15 l-42 -14 -6 46 c-6 45
-28 140 -40 172 -5 13 4 19 42 28 90 23 243 103 243 128 0 18 -41 43 -70 43
-14 0 -43 -7 -65 -14 -22 -8 -43 -12 -48 -9 -4 2 7 24 24 49 39 57 74 136 94
212 20 79 19 96 -7 126 -28 32 -74 41 -110 21z"/>
<path d="M776 1908 c-10 -49 -7 -118 9 -190 21 -100 47 -131 122 -149 32 -7
33 -6 34 30 2 79 -3 108 -32 166 -61 123 -78 148 -110 166 -13 7 -18 2 -23
-23z"/>
<path d="M1946 1888 c-13 -66 -6 -192 13 -235 22 -48 45 -63 97 -63 l37 0 -6
68 c-9 108 -70 243 -115 254 -16 5 -21 -1 -26 -24z"/>
<path d="M1416 1723 c-9 -44 1 -332 13 -388 18 -79 21 -86 47 -95 55 -21 74
16 74 149 0 113 -25 225 -67 304 -33 60 -58 72 -67 30z"/>
</g>
</svg>
