<?xml version="1.0" standalone="no"?>
<!DOCTYPE svg PUBLIC "-//W3C//DTD SVG 20010904//EN"
 "http://www.w3.org/TR/2001/REC-SVG-20010904/DTD/svg10.dtd">
<svg version="1.0" xmlns="http://www.w3.org/2000/svg"
 width="340.000000pt" height="340.000000pt" viewBox="0 0 340.000000 340.000000"
 preserveAspectRatio="xMidYMid meet">
<metadata>
Created by potrace 1.15, written by Peter Selinger 2001-2017
</metadata>
<g transform="translate(0.000000,340.000000) scale(0.100000,-0.100000)"
fill="#000000" stroke="none">
<path d="M2060 2325 c-7 -8 -10 -27 -7 -41 5 -25 -2 -30 -182 -116 -102 -49
-235 -112 -294 -140 l-108 -50 -56 21 c-30 11 -61 21 -69 21 -24 0 -16 -46 16
-97 65 -102 97 -244 86 -378 -21 -252 -109 -499 -257 -721 -54 -80 -73 -117
-77 -150 -2 -24 -1 -44 4 -44 20 0 111 79 156 134 59 74 167 290 208 416 51
159 71 279 77 467 l6 171 -32 67 c-17 37 -31 68 -31 70 0 1 27 5 60 9 142 16
433 104 583 175 47 23 68 39 77 60 28 68 -26 141 -105 141 -25 0 -47 -6 -55
-15z"/>
<path d="M590 2221 c-49 -14 -35 -37 60 -95 49 -31 124 -73 165 -93 84 -42 93
-39 102 23 7 53 -23 89 -103 125 -50 23 -170 52 -194 48 -3 -1 -16 -4 -30 -8z"/>
<path d="M2120 1790 c-195 -80 -490 -234 -490 -257 0 -23 40 -15 158 33 110
44 331 108 340 99 9 -9 -50 -153 -126 -307 l-77 -156 -81 47 c-107 62 -248
111 -266 92 -15 -15 -19 -11 151 -138 57 -43 111 -83 119 -90 13 -11 6 -22
-49 -80 -147 -156 -328 -385 -309 -391 6 -2 27 -1 47 3 30 5 69 39 223 193
l188 187 217 -206 c213 -203 218 -207 248 -198 18 5 33 9 34 9 2 0 3 10 3 23
0 41 -41 91 -239 288 l-196 196 38 59 c110 174 254 501 242 554 -15 69 -72 82
-175 40z"/>
<path d="M720 1518 c-36 -23 -110 -66 -165 -96 -55 -31 -102 -57 -104 -59 -2
-1 4 -12 14 -23 26 -28 86 -26 138 4 23 14 61 28 84 32 l42 6 -19 -48 c-45
-121 -37 -192 45 -358 53 -108 99 -246 107 -315 l3 -34 -100 -3 c-165 -5 -202
-23 -143 -67 24 -18 50 -21 200 -29 293 -13 512 -51 805 -139 217 -65 357
-102 575 -154 l176 -42 99 13 c278 36 477 105 457 158 -5 13 -54 14 -387 9
-449 -6 -483 -3 -792 82 -220 60 -450 112 -651 146 l-132 22 -6 61 c-11 107
-46 228 -94 331 l-48 100 7 93 c3 51 19 143 35 203 l28 111 -23 19 c-36 29
-78 22 -151 -23z"/>
</g>
</svg>
