<?xml version="1.0" standalone="no"?>
<!DOCTYPE svg PUBLIC "-//W3C//DTD SVG 20010904//EN"
 "http://www.w3.org/TR/2001/REC-SVG-20010904/DTD/svg10.dtd">
<svg version="1.0" xmlns="http://www.w3.org/2000/svg"
 width="340.000000pt" height="340.000000pt" viewBox="0 0 340.000000 340.000000"
 preserveAspectRatio="xMidYMid meet">
<metadata>
Created by potrace 1.15, written by Peter Selinger 2001-2017
</metadata>
<g transform="translate(0.000000,340.000000) scale(0.100000,-0.100000)"
fill="#000000" stroke="none">
<path d="M1663 2395 c-31 -22 -29 -41 11 -75 64 -57 96 -173 96 -356 0 -166 9
-154 -141 -208 -71 -25 -134 -46 -139 -46 -14 0 -13 -13 2 -28 16 -16 86 -15
134 1 55 20 134 29 134 16 0 -14 -41 -354 -43 -356 -8 -8 -453 -173 -467 -173
-48 0 -64 -25 -34 -54 36 -37 208 -9 366 59 57 24 104 43 105 41 1 -1 -7 -37
-18 -79 -16 -62 -33 -97 -85 -173 -85 -122 -184 -285 -184 -301 0 -17 34 -16
69 2 37 18 159 150 206 220 56 85 103 195 126 294 l21 88 87 27 c108 33 244
56 336 56 84 0 149 26 167 66 16 33 -2 48 -79 65 -65 15 -96 9 -321 -56 -89
-27 -165 -45 -168 -42 -4 3 -1 66 6 139 8 73 14 150 14 170 1 20 4 39 7 42 3
3 45 17 95 31 84 25 159 61 213 103 l23 19 -28 22 c-35 27 -67 25 -169 -12
-38 -13 -83 -28 -99 -31 -27 -7 -28 -6 -22 21 15 69 18 192 6 260 -12 73 -73
216 -102 240 -26 22 -100 27 -125 8z"/>
<path d="M516 2211 c-4 -6 -5 -19 -1 -29 9 -25 249 -202 275 -202 42 0 60 18
60 60 0 85 -121 169 -254 178 -49 3 -76 1 -80 -7z"/>
<path d="M1340 2150 c0 -21 31 -85 52 -107 l21 -22 -23 -58 c-37 -93 -164
-356 -219 -452 -55 -96 -63 -131 -31 -131 12 0 41 26 75 68 67 80 228 319 282
417 34 62 38 78 38 141 0 60 -4 76 -28 112 l-27 42 -70 0 c-41 0 -70 -4 -70
-10z"/>
<path d="M760 1508 c-47 -28 -134 -75 -193 -105 -104 -53 -108 -56 -94 -77 22
-33 67 -31 165 8 49 20 94 36 99 36 6 0 1 -26 -10 -57 -25 -77 -18 -155 23
-232 106 -201 156 -338 148 -408 l-3 -28 -115 -6 c-124 -7 -240 -26 -240 -40
0 -5 15 -16 33 -25 25 -14 75 -19 227 -25 377 -15 499 -41 1285 -269 160 -46
299 -81 340 -85 178 -15 454 51 463 112 2 13 -4 25 -15 31 -10 6 -151 12 -313
15 -322 5 -430 16 -625 68 -358 95 -551 142 -715 174 -102 20 -194 38 -205 40
-19 4 -20 10 -17 80 6 115 -11 183 -89 348 l-70 147 26 83 c15 45 29 116 32
158 5 72 4 77 -18 93 -13 9 -26 16 -29 16 -3 -1 -43 -24 -90 -52z"/>
<path d="M1880 1110 c0 -36 18 -61 154 -200 72 -74 151 -164 176 -199 64 -91
75 -101 115 -101 29 0 37 5 45 26 6 14 10 35 10 46 0 30 -84 143 -171 229 -78
78 -254 202 -302 214 -23 6 -27 4 -27 -15z"/>
</g>
</svg>
