<?xml version="1.0" standalone="no"?>
<!DOCTYPE svg PUBLIC "-//W3C//DTD SVG 20010904//EN"
 "http://www.w3.org/TR/2001/REC-SVG-20010904/DTD/svg10.dtd">
<svg version="1.0" xmlns="http://www.w3.org/2000/svg"
 width="340.000000pt" height="340.000000pt" viewBox="0 0 340.000000 340.000000"
 preserveAspectRatio="xMidYMid meet">
<metadata>
Created by potrace 1.15, written by Peter Selinger 2001-2017
</metadata>
<g transform="translate(0.000000,340.000000) scale(0.100000,-0.100000)"
fill="#000000" stroke="none">
<path d="M1755 2324 c-148 -57 -272 -99 -305 -103 -51 -6 -55 -8 -58 -35 l-4
-29 114 5 c100 5 128 10 234 47 66 22 133 41 148 41 l28 0 -28 -37 c-133 -180
-462 -531 -599 -639 -75 -59 -135 -126 -164 -181 -16 -31 -1 -30 74 6 90 42
451 373 728 666 163 173 197 219 197 266 0 29 -62 89 -91 89 -13 -1 -136 -44
-274 -96z"/>
<path d="M573 2274 c-9 -24 7 -45 61 -79 26 -16 92 -63 147 -102 100 -73 140
-88 167 -61 44 44 -35 156 -153 215 -80 41 -211 56 -222 27z"/>
<path d="M1892 1910 c-45 -4 -85 -9 -87 -12 -3 -3 6 -14 18 -27 19 -17 55 -27
168 -46 157 -26 270 -56 417 -111 134 -51 191 -47 223 13 12 22 10 26 -17 48
-49 42 -146 84 -214 94 -254 39 -392 50 -508 41z"/>
<path d="M695 1493 c-93 -52 -172 -97 -174 -99 -3 -3 3 -12 12 -21 23 -23 73
-18 141 13 33 15 79 29 104 32 41 5 45 3 37 -14 -42 -103 -51 -230 -22 -325 9
-31 41 -93 71 -138 62 -92 90 -160 101 -240 l7 -54 -169 7 c-115 4 -186 3
-223 -5 l-54 -12 22 -18 c13 -10 42 -20 65 -23 431 -52 773 -128 1159 -256
272 -91 429 -126 671 -150 99 -10 115 -9 184 10 77 21 202 75 237 102 19 15
19 16 -8 43 -23 23 -32 26 -64 20 -125 -22 -511 -11 -743 20 -63 9 -193 38
-289 66 -169 48 -577 151 -651 164 l-37 7 -5 111 c-5 125 -19 173 -69 239 -81
106 -102 204 -67 318 16 53 23 102 23 164 l1 90 -34 23 c-19 13 -39 23 -45 23
-6 0 -87 -44 -181 -97z"/>
<path d="M1920 1540 c-345 -92 -464 -127 -468 -139 -2 -6 2 -19 9 -28 12 -13
30 -15 124 -9 60 4 119 8 129 9 45 5 68 -200 46 -403 l-13 -120 -36 -6 c-96
-16 -373 -73 -377 -77 -8 -7 18 -46 36 -53 47 -20 99 -21 199 -3 218 40 353
52 611 54 268 2 310 7 310 34 0 32 -41 82 -83 101 -56 26 -110 25 -337 -6
-106 -14 -193 -24 -195 -22 -2 2 3 57 10 123 18 149 18 271 2 352 l-13 62 50
6 c126 17 276 86 276 128 0 61 -40 60 -280 -3z"/>
</g>
</svg>
