<?xml version="1.0" standalone="no"?>
<!DOCTYPE svg PUBLIC "-//W3C//DTD SVG 20010904//EN"
 "http://www.w3.org/TR/2001/REC-SVG-20010904/DTD/svg10.dtd">
<svg version="1.0" xmlns="http://www.w3.org/2000/svg"
 width="340.000000pt" height="340.000000pt" viewBox="0 0 340.000000 340.000000"
 preserveAspectRatio="xMidYMid meet">
<metadata>
Created by potrace 1.15, written by Peter Selinger 2001-2017
</metadata>
<g transform="translate(0.000000,340.000000) scale(0.100000,-0.100000)"
fill="#000000" stroke="none">
<path d="M2112 2368 c-16 -16 -15 -60 2 -83 12 -17 7 -26 -53 -95 -92 -107
-188 -277 -168 -297 4 -3 25 -1 48 6 45 14 160 126 278 271 72 88 79 127 35
179 -23 27 -32 31 -78 31 -29 0 -57 -5 -64 -12z"/>
<path d="M1304 2209 c-12 -20 9 -65 61 -134 65 -86 90 -110 137 -130 68 -28
78 -23 78 38 0 81 -48 140 -155 195 -56 28 -113 43 -121 31z"/>
<path d="M631 2162 c-8 -6 -11 -18 -7 -30 7 -20 139 -132 237 -201 45 -32 48
-32 77 -17 59 30 51 76 -23 145 -80 73 -241 132 -284 103z"/>
<path d="M1745 1764 c-209 -51 -393 -93 -410 -94 -44 -1 -63 -15 -49 -37 10
-16 28 -18 162 -17 l150 1 23 -41 c21 -36 24 -53 23 -144 -1 -57 -5 -106 -8
-109 -8 -9 -416 -133 -459 -140 -43 -7 -54 -18 -37 -38 28 -33 261 -10 398 40
38 14 72 25 76 25 19 0 -13 -160 -49 -238 -14 -31 -50 -82 -80 -113 -53 -56
-115 -164 -115 -202 0 -14 5 -17 23 -11 112 34 194 124 281 305 44 90 86 226
86 275 0 13 8 27 18 33 25 13 231 57 357 76 132 20 152 27 167 60 9 21 8 28
-8 46 -17 19 -26 21 -95 16 -96 -8 -212 -31 -311 -64 -43 -14 -84 -23 -92 -20
-12 5 -14 21 -10 79 5 67 -6 132 -30 189 -6 13 9 20 81 39 109 28 355 109 367
121 6 5 5 18 -2 34 -9 20 -18 25 -44 24 -18 -1 -204 -43 -413 -95z"/>
<path d="M690 1453 c-91 -46 -166 -88 -168 -92 -1 -5 4 -14 12 -21 19 -15 77
-10 168 16 37 10 69 16 72 14 2 -3 -5 -32 -16 -65 -28 -84 -22 -209 14 -280
82 -162 220 -400 231 -397 7 2 20 12 30 24 28 33 22 94 -19 178 -20 41 -62
134 -94 206 l-58 132 19 56 c44 129 62 273 36 294 -34 29 -62 21 -227 -65z"/>
<path d="M1856 1088 c11 -38 32 -74 50 -89 9 -8 37 -45 62 -84 53 -83 158
-219 200 -258 24 -23 37 -28 68 -25 37 3 39 5 42 38 2 29 -6 48 -46 105 -107
151 -220 263 -314 311 -59 30 -71 30 -62 2z"/>
<path d="M534 597 l-27 -24 139 -21 c76 -12 207 -31 289 -42 232 -31 702 -145
1160 -282 l200 -60 100 12 c120 13 197 30 330 72 78 25 108 40 135 67 l35 35
-65 9 c-41 5 -119 3 -210 -4 -112 -10 -192 -10 -360 -1 -280 15 -428 35 -570
78 -363 111 -763 184 -1000 184 -121 0 -131 -1 -156 -23z"/>
</g>
</svg>
