<?xml version="1.0" standalone="no"?>
<!DOCTYPE svg PUBLIC "-//W3C//DTD SVG 20010904//EN"
 "http://www.w3.org/TR/2001/REC-SVG-20010904/DTD/svg10.dtd">
<svg version="1.0" xmlns="http://www.w3.org/2000/svg"
 width="340.000000pt" height="340.000000pt" viewBox="0 0 340.000000 340.000000"
 preserveAspectRatio="xMidYMid meet">
<metadata>
Created by potrace 1.15, written by Peter Selinger 2001-2017
</metadata>
<g transform="translate(0.000000,340.000000) scale(0.100000,-0.100000)"
fill="#000000" stroke="none">
<path d="M1778 2369 c-34 -34 -34 -37 -3 -83 28 -42 29 -61 18 -330 l-6 -159
-53 -23 c-28 -12 -78 -30 -110 -39 -33 -9 -65 -18 -71 -20 -21 -7 -3 -34 31
-45 24 -8 46 -6 89 5 32 8 72 15 89 15 27 0 30 -3 24 -22 -3 -13 -6 -66 -6
-119 l0 -95 -77 -19 c-90 -21 -289 -82 -383 -118 -36 -13 -98 -30 -138 -37
-72 -13 -87 -26 -57 -50 33 -27 89 -21 299 34 l209 54 -6 -57 c-6 -72 -43
-151 -111 -238 -110 -141 -207 -310 -186 -323 61 -38 256 177 396 435 43 80
48 95 46 146 -2 40 2 62 13 72 15 16 116 34 132 24 5 -3 3 -54 -3 -114 -7 -59
-16 -180 -19 -269 -8 -180 -6 -190 62 -265 79 -88 205 -118 348 -85 130 31
185 95 185 215 0 52 -4 66 -25 86 -13 14 -28 25 -32 25 -25 -1 -63 -55 -63
-91 0 -28 -30 -73 -61 -89 -10 -6 -41 -15 -69 -20 -99 -19 -174 20 -204 104
-10 27 -17 105 -21 226 -3 102 -9 208 -14 237 -5 40 -4 53 6 57 33 13 193 26
284 24 l100 -3 30 33 c42 47 38 66 -20 91 -59 25 -138 27 -202 7 -52 -18 -307
-69 -317 -64 -4 2 -1 58 7 124 l13 121 54 12 c64 15 156 59 204 100 35 29 35
29 16 50 -32 35 -79 37 -138 7 -55 -29 -125 -48 -132 -37 -3 4 2 86 9 182 22
262 21 279 -15 316 -43 44 -86 48 -122 12z"/>
<path d="M1436 2114 c-24 -14 -27 -20 -21 -47 14 -72 17 -108 7 -134 -5 -16
-47 -80 -93 -143 -46 -63 -115 -163 -152 -222 -59 -92 -67 -110 -57 -127 16
-31 35 -26 85 20 113 104 278 327 349 470 31 62 36 82 31 112 -13 68 -89 105
-149 71z"/>
<path d="M608 2073 c-10 -2 -18 -11 -18 -19 0 -19 150 -129 244 -179 71 -38
76 -39 93 -23 27 28 22 83 -11 117 -66 69 -231 124 -308 104z"/>
<path d="M705 1474 c-93 -53 -174 -100 -180 -105 -26 -27 64 -51 105 -29 23
12 202 61 207 56 2 -2 -6 -28 -18 -57 -13 -32 -23 -87 -26 -137 -8 -113 14
-192 74 -269 54 -69 89 -141 98 -203 l6 -45 -148 -1 c-180 -1 -223 -7 -223
-34 0 -24 4 -25 185 -46 442 -51 845 -142 1285 -292 l225 -76 140 -1 c116 0
154 4 220 23 102 30 174 58 204 81 l24 18 -28 19 c-26 17 -47 18 -219 16 -163
-3 -218 1 -376 23 -369 52 -806 144 -1106 231 l-51 15 -6 67 c-7 93 -38 169
-99 238 -28 32 -57 73 -64 91 -21 50 -17 125 12 210 21 61 27 98 28 171 1 87
-1 95 -23 113 -13 10 -35 19 -50 18 -14 0 -102 -43 -196 -95z"/>
</g>
</svg>
