<?xml version="1.0" standalone="no"?>
<!DOCTYPE svg PUBLIC "-//W3C//DTD SVG 20010904//EN"
 "http://www.w3.org/TR/2001/REC-SVG-20010904/DTD/svg10.dtd">
<svg version="1.0" xmlns="http://www.w3.org/2000/svg"
 width="340.000000pt" height="340.000000pt" viewBox="0 0 340.000000 340.000000"
 preserveAspectRatio="xMidYMid meet">
<metadata>
Created by potrace 1.15, written by Peter Selinger 2001-2017
</metadata>
<g transform="translate(0.000000,340.000000) scale(0.100000,-0.100000)"
fill="#000000" stroke="none">
<path d="M2118 2578 c-24 -8 -28 -15 -28 -48 0 -35 -7 -46 -76 -112 -88 -85
-159 -177 -203 -265 l-31 -63 30 0 c23 0 48 16 107 68 43 38 128 112 188 166
135 119 163 163 135 217 -11 20 -61 50 -82 48 -7 0 -25 -5 -40 -11z"/>
<path d="M1340 2458 c1 -38 49 -124 115 -205 28 -34 84 -56 120 -47 21 5 21 9
13 57 -5 28 -16 63 -24 78 -32 63 -109 116 -191 134 -30 6 -33 4 -33 -17z"/>
<path d="M524 2247 c-19 -51 130 -171 263 -210 l52 -16 7 35 c9 49 -3 84 -41
120 -60 56 -266 109 -281 71z"/>
<path d="M2020 2064 c-85 -19 -167 -32 -182 -29 -16 3 -41 8 -58 11 -26 5 -32
2 -47 -25 -14 -24 -31 -34 -83 -50 -106 -32 -170 -49 -253 -67 l-78 -16 22
-24 c28 -30 59 -30 187 -4 54 10 123 23 155 28 l57 9 0 -117 0 -117 -165 -47
c-149 -43 -169 -46 -201 -36 -20 7 -40 8 -44 4 -5 -5 -18 -49 -28 -99 -22
-100 -44 -161 -97 -265 -39 -78 -39 -110 2 -137 33 -22 116 -11 207 28 100 44
266 99 266 89 0 -24 -88 -128 -218 -258 -179 -178 -240 -255 -222 -277 30 -36
70 -11 245 146 66 59 149 137 185 173 35 36 68 66 72 66 4 0 8 -116 8 -258 0
-187 3 -261 12 -270 17 -17 43 -15 58 3 18 21 30 173 38 479 l7 259 65 19 c89
26 239 34 337 18 105 -16 107 -17 89 -66 -20 -58 -74 -163 -108 -210 l-30 -42
-41 24 c-48 27 -113 32 -142 10 -19 -13 -19 -16 -3 -49 20 -42 69 -81 126
-101 37 -13 48 -13 93 0 74 22 131 85 199 218 48 94 55 115 54 164 0 62 -30
134 -62 151 -34 18 -196 34 -292 28 -81 -5 -151 -19 -269 -53 l-24 -7 5 107
c3 58 7 108 10 111 2 3 31 10 64 16 32 5 67 12 76 15 12 4 22 -3 30 -20 7 -16
19 -26 32 -26 36 0 200 193 281 331 l36 62 -23 45 c-50 99 -114 110 -348 56z
m198 -103 c11 -6 -6 -38 -70 -134 l-83 -125 -95 -4 c-52 -3 -97 -4 -99 -2 -2
2 0 57 4 123 l7 120 67 10 c123 20 249 25 269 12z m-474 -423 c17 -28 19 -160
3 -182 -7 -8 -59 -28 -117 -45 -58 -17 -145 -44 -193 -60 -76 -26 -87 -28 -83
-13 20 64 47 184 52 236 l6 62 32 -3 c17 -2 65 3 106 11 41 7 99 14 127 15 44
1 55 -3 67 -21z"/>
<path d="M715 1442 c-148 -78 -245 -141 -245 -158 0 -8 11 -20 25 -26 28 -12
44 -9 150 35 33 14 75 27 94 31 28 5 32 4 27 -11 -18 -46 -26 -172 -15 -248
13 -96 24 -123 83 -200 47 -61 120 -219 112 -240 -3 -8 -58 -15 -168 -19 -190
-9 -232 -15 -236 -38 -4 -20 51 -38 116 -38 66 0 315 -28 437 -50 127 -22 555
-142 930 -260 l260 -82 140 5 c158 5 262 30 383 91 78 39 101 61 84 78 -8 8
-46 8 -144 -3 -350 -37 -722 6 -1098 126 -195 63 -358 107 -485 131 -49 10
-93 22 -97 28 -4 6 -8 29 -8 51 0 98 -48 213 -129 315 -42 52 -51 71 -57 117
-9 76 1 169 25 234 28 73 28 129 -1 157 -43 39 -65 36 -183 -26z"/>
</g>
</svg>
