<?xml version="1.0" standalone="no"?>
<!DOCTYPE svg PUBLIC "-//W3C//DTD SVG 20010904//EN"
 "http://www.w3.org/TR/2001/REC-SVG-20010904/DTD/svg10.dtd">
<svg version="1.0" xmlns="http://www.w3.org/2000/svg"
 width="340.000000pt" height="340.000000pt" viewBox="0 0 340.000000 340.000000"
 preserveAspectRatio="xMidYMid meet">
<metadata>
Created by potrace 1.15, written by Peter Selinger 2001-2017
</metadata>
<g transform="translate(0.000000,340.000000) scale(0.100000,-0.100000)"
fill="#000000" stroke="none">
<path d="M1630 2294 c-254 -66 -347 -86 -423 -91 -66 -4 -100 -10 -104 -19 -8
-22 16 -52 62 -79 73 -44 122 -38 363 44 148 50 230 72 290 78 45 5 82 6 82 2
0 -3 -54 -57 -120 -119 l-120 -112 -109 -2 c-60 0 -113 -4 -117 -9 -15 -15 44
-61 142 -107 55 -27 106 -55 113 -64 11 -13 6 -16 -31 -26 -80 -21 -133 -38
-202 -64 -37 -14 -84 -26 -103 -26 -46 0 -50 -16 -28 -122 15 -75 17 -114 11
-256 -8 -173 -26 -350 -50 -486 -18 -102 -7 -146 35 -146 13 0 21 12 30 43 23
85 58 264 69 357 6 52 16 127 22 165 21 145 21 255 0 335 -11 41 -19 76 -18
77 4 4 162 23 196 23 37 0 39 -2 54 -47 10 -27 20 -75 23 -109 l6 -60 -49 -21
c-27 -12 -69 -26 -94 -33 -25 -7 -51 -14 -59 -17 -12 -3 -10 -9 7 -26 23 -22
45 -24 157 -15 l30 3 0 -94 0 -94 -104 -35 -105 -35 28 -23 c29 -26 84 -32
129 -15 18 7 30 5 46 -5 20 -14 21 -21 15 -127 -5 -95 -3 -119 13 -162 23 -61
44 -67 72 -21 19 29 23 54 26 148 2 62 7 129 10 149 6 36 8 36 59 42 58 6 120
33 150 66 19 21 19 21 -28 42 -32 14 -69 21 -112 21 l-64 0 0 84 c0 59 4 86
13 88 6 3 25 7 41 11 33 7 96 65 96 88 0 19 -51 37 -105 37 l-42 0 -6 63 c-3
34 -9 76 -13 93 -5 28 -3 32 20 38 80 20 250 18 285 -3 41 -26 65 -326 54
-698 l-6 -222 -36 25 c-41 27 -83 31 -101 8 -24 -28 14 -119 75 -180 76 -76
133 -83 178 -22 20 27 20 34 10 445 -6 230 -9 464 -6 521 6 124 -8 173 -67
226 -47 42 -103 53 -192 38 -35 -6 -88 -14 -119 -17 -56 -6 -57 -5 -80 27 -12
18 -33 45 -46 59 l-25 27 109 89 c60 49 141 113 181 143 69 53 71 57 72 98 0
33 -6 49 -25 67 -40 41 -100 33 -465 -61z"/>
<path d="M650 2171 c0 -27 32 -69 94 -123 78 -67 109 -76 166 -51 l42 18 -34
50 c-47 71 -110 106 -198 113 -50 3 -70 1 -70 -7z"/>
<path d="M795 1600 c-33 -16 -102 -46 -153 -66 -96 -38 -114 -53 -92 -79 16
-19 57 -19 171 1 50 8 93 14 95 11 2 -2 -3 -33 -12 -68 -11 -43 -15 -85 -11
-129 7 -86 19 -124 63 -195 50 -83 72 -143 84 -228 15 -103 23 -117 64 -117
43 0 47 10 53 125 6 105 -11 168 -71 257 -74 112 -80 163 -36 283 26 70 24
132 -7 191 -17 33 -25 39 -54 41 -20 1 -58 -10 -94 -27z"/>
<path d="M614 701 c-50 -12 -58 -20 -39 -42 19 -20 61 -29 245 -54 397 -52
871 -172 1239 -312 81 -30 171 -62 201 -70 74 -19 274 -19 370 0 41 8 95 18
120 22 45 6 116 41 139 68 10 13 4 18 -40 32 -39 13 -73 16 -143 12 -50 -2
-203 2 -340 9 l-249 14 -136 44 c-442 145 -1067 287 -1249 285 -48 -1 -101 -4
-118 -8z"/>
</g>
</svg>
