<?xml version="1.0" standalone="no"?>
<!DOCTYPE svg PUBLIC "-//W3C//DTD SVG 20010904//EN"
 "http://www.w3.org/TR/2001/REC-SVG-20010904/DTD/svg10.dtd">
<svg version="1.0" xmlns="http://www.w3.org/2000/svg"
 width="340.000000pt" height="340.000000pt" viewBox="0 0 340.000000 340.000000"
 preserveAspectRatio="xMidYMid meet">
<metadata>
Created by potrace 1.15, written by Peter Selinger 2001-2017
</metadata>
<g transform="translate(0.000000,340.000000) scale(0.100000,-0.100000)"
fill="#000000" stroke="none">
<path d="M1712 2448 c-11 -18 -25 -51 -32 -73 -7 -22 -30 -59 -51 -82 -60 -66
-122 -154 -154 -221 -26 -54 -34 -62 -58 -62 -15 0 -45 9 -67 20 -50 26 -58
25 -66 -4 -4 -16 3 -35 21 -62 68 -99 169 -350 163 -404 -2 -18 4 -25 27 -31
17 -5 37 -7 45 -4 8 2 65 12 125 20 128 19 312 57 405 85 66 20 66 20 113 97
58 98 97 184 131 292 l27 84 -32 34 c-51 52 -104 67 -207 60 -85 -7 -300 -56
-414 -96 -82 -28 -76 8 12 75 68 52 117 125 131 197 11 55 11 59 -11 82 -35
38 -83 34 -108 -7z m449 -380 c22 -6 39 -14 39 -18 0 -3 -22 -56 -49 -116 -26
-60 -59 -137 -72 -171 -19 -50 -28 -63 -45 -63 -46 0 -253 -40 -339 -66 -49
-14 -96 -27 -104 -28 -10 -1 -20 24 -32 79 -27 119 -33 110 79 123 107 13 215
38 306 72 l60 23 -25 19 c-20 17 -33 19 -84 13 -120 -13 -257 -47 -356 -89
-12 -5 -22 7 -44 55 l-28 63 26 22 c16 13 47 25 74 29 27 4 80 13 118 20 61
12 164 26 295 38 79 8 145 6 181 -5z"/>
<path d="M573 2103 c-63 -25 101 -129 252 -160 88 -18 99 -12 91 45 -6 40 -19
58 -58 78 -58 30 -244 54 -285 37z"/>
<path d="M795 1542 c-115 -60 -236 -130 -270 -155 -16 -13 -17 -17 -6 -31 20
-23 48 -20 121 15 102 49 227 78 203 47 -21 -26 -53 -129 -59 -190 -8 -84 15
-190 56 -257 43 -69 80 -189 87 -277 l6 -72 -130 5 c-71 3 -156 2 -188 -2
l-58 -7 20 -20 c15 -15 42 -22 101 -29 203 -23 507 -96 857 -207 260 -83 415
-129 621 -183 l151 -39 116 10 c214 19 427 76 427 114 0 8 -8 17 -17 21 -24
10 -324 24 -515 24 -222 1 -349 20 -568 86 -193 58 -484 139 -631 175 l-86 22
-6 131 c-5 149 -22 209 -89 339 -38 72 -40 82 -35 136 3 43 17 81 48 142 35
66 44 95 47 147 4 56 2 67 -19 89 -13 13 -34 24 -48 24 -14 0 -75 -26 -136
-58z"/>
<path d="M2100 1484 c-30 -8 -173 -46 -318 -84 -144 -39 -281 -70 -302 -70
-38 0 -80 -26 -80 -49 0 -18 94 -24 187 -12 105 14 120 10 152 -43 26 -41 27
-97 3 -119 -18 -17 -199 -71 -274 -82 -61 -9 -76 -20 -62 -42 22 -35 62 -36
207 -5 75 15 140 26 142 23 3 -2 5 -44 5 -92 0 -84 -1 -89 -22 -94 -289 -64
-421 -102 -415 -118 9 -29 56 -31 194 -9 274 43 608 62 758 42 110 -15 146 -6
171 41 13 26 13 29 -6 39 -43 23 -176 50 -244 50 -39 0 -118 -7 -176 -15 -58
-8 -118 -15 -134 -15 l-29 0 7 54 c3 30 11 77 17 104 l12 50 56 7 c63 8 189
47 239 73 l33 18 -26 24 c-24 23 -27 23 -107 12 -46 -6 -108 -14 -139 -18
l-57 -6 -5 64 c-3 34 -8 73 -12 84 -8 26 11 34 158 63 144 29 211 77 167 121
-23 23 -26 23 -100 4z"/>
</g>
</svg>
