<?xml version="1.0" standalone="no"?>
<!DOCTYPE svg PUBLIC "-//W3C//DTD SVG 20010904//EN"
 "http://www.w3.org/TR/2001/REC-SVG-20010904/DTD/svg10.dtd">
<svg version="1.0" xmlns="http://www.w3.org/2000/svg"
 width="340.000000pt" height="340.000000pt" viewBox="0 0 340.000000 340.000000"
 preserveAspectRatio="xMidYMid meet">
<metadata>
Created by potrace 1.15, written by Peter Selinger 2001-2017
</metadata>
<g transform="translate(0.000000,340.000000) scale(0.100000,-0.100000)"
fill="#000000" stroke="none">
<path d="M2075 2287 c-27 -15 -16 -41 35 -85 63 -55 110 -74 168 -70 57 4 63
19 32 82 -13 29 -32 49 -53 59 -37 17 -160 27 -182 14z"/>
<path d="M1598 2215 c-37 -13 -111 -44 -164 -69 -53 -25 -109 -46 -125 -46
-15 0 -35 -7 -43 -16 -15 -14 -14 -18 4 -41 17 -21 20 -41 20 -117 0 -300 -81
-634 -231 -946 -91 -190 -93 -240 -7 -140 67 78 111 158 178 326 34 85 64 153
67 150 7 -7 88 -280 119 -404 18 -68 34 -112 41 -112 25 0 53 40 53 75 l0 36
48 -7 c61 -8 124 9 164 45 25 23 30 32 24 55 -3 15 -17 32 -30 37 l-24 11 23
52 c32 73 55 173 62 270 l6 84 -40 20 c-88 45 -154 38 -246 -28 -68 -49 -107
-59 -142 -36 -31 21 -31 34 1 166 l27 106 77 12 c75 11 179 46 227 77 18 12
21 21 17 44 -5 22 0 38 20 63 39 51 75 140 87 217 14 82 10 94 -33 121 -43 26
-96 24 -180 -5z m66 -133 c2 -4 -11 -42 -29 -83 -19 -40 -40 -95 -46 -121 -10
-37 -18 -48 -38 -53 -14 -4 -57 -21 -96 -39 l-70 -32 1 150 1 150 34 9 c80 21
234 33 243 19z m-34 -727 c11 -13 11 -26 1 -68 -7 -29 -15 -92 -18 -142 l-6
-90 -52 -21 -52 -20 -13 70 c-6 39 -25 111 -41 160 -16 49 -28 90 -26 92 7 7
132 32 163 33 17 1 37 -6 44 -14z"/>
<path d="M2310 2094 c-180 -42 -480 -126 -480 -134 0 -23 32 -44 66 -44 92 -1
636 114 665 140 29 26 24 50 -12 63 -47 16 -78 13 -239 -25z"/>
<path d="M590 2055 c-13 -16 -11 -21 28 -55 57 -51 125 -81 194 -88 l58 -5 0
39 c0 79 -45 109 -181 120 -74 6 -86 4 -99 -11z"/>
<path d="M2371 1904 c-18 -23 -21 -64 -5 -83 1 -1 -22 -33 -52 -70 -31 -36
-75 -106 -99 -156 l-43 -90 -134 -35 c-117 -31 -133 -38 -136 -57 -5 -31 31
-38 134 -25 46 6 91 9 99 5 13 -4 15 -24 13 -110 l-3 -105 -113 -29 c-62 -16
-124 -35 -137 -42 -24 -12 -24 -14 -9 -35 17 -25 51 -28 135 -11 34 7 67 8 89
2 l34 -9 2 -145 c1 -145 25 -322 46 -335 6 -4 19 3 31 14 23 23 38 133 52 369
l7 120 72 6 c66 5 134 25 181 54 19 12 19 14 -13 44 l-34 30 -104 -7 -104 -7
0 112 0 111 38 0 c89 0 327 66 327 90 0 7 -12 22 -27 33 -27 20 -33 20 -141 9
-63 -7 -129 -12 -148 -12 l-34 1 37 30 c80 65 188 224 188 276 0 14 -13 38
-29 54 -39 39 -91 40 -120 3z"/>
<path d="M1964 1824 c-14 -75 28 -183 87 -225 l29 -21 16 38 c21 51 13 91 -32
165 -55 88 -89 102 -100 43z"/>
<path d="M760 1626 c-82 -35 -246 -119 -274 -139 -22 -16 -12 -45 20 -53 13
-3 52 4 87 15 36 12 88 26 117 30 l52 8 -6 -31 c-28 -134 -13 -259 45 -382 32
-70 59 -187 59 -259 l0 -42 -46 -7 c-26 -3 -74 -7 -108 -7 -84 -2 -120 -11
-124 -32 -6 -28 51 -44 188 -51 166 -10 339 -31 482 -61 121 -25 821 -245 941
-296 83 -35 196 -59 278 -59 131 0 345 62 424 123 20 16 20 16 -1 37 -20 20
-30 21 -375 24 -413 3 -386 -1 -738 116 -252 84 -478 144 -682 181 l-126 23
-7 100 c-7 120 -19 174 -51 242 -49 104 -59 223 -25 312 21 56 26 135 10 176
-10 27 -45 66 -57 65 -5 0 -42 -15 -83 -33z"/>
</g>
</svg>
