<?xml version="1.0" standalone="no"?>
<!DOCTYPE svg PUBLIC "-//W3C//DTD SVG 20010904//EN"
 "http://www.w3.org/TR/2001/REC-SVG-20010904/DTD/svg10.dtd">
<svg version="1.0" xmlns="http://www.w3.org/2000/svg"
 width="340.000000pt" height="340.000000pt" viewBox="0 0 340.000000 340.000000"
 preserveAspectRatio="xMidYMid meet">
<metadata>
Created by potrace 1.15, written by Peter Selinger 2001-2017
</metadata>
<g transform="translate(0.000000,340.000000) scale(0.100000,-0.100000)"
fill="#000000" stroke="none">
<path d="M2351 2404 c-63 -24 -161 -66 -219 -94 -68 -32 -118 -50 -142 -50
-20 0 -59 -3 -85 -7 l-47 -6 5 -45 c3 -24 15 -58 28 -75 21 -29 23 -48 35
-266 24 -429 44 -947 44 -1123 0 -182 12 -364 31 -486 10 -59 15 -72 30 -72
11 0 21 9 24 22 17 69 21 388 13 1098 -8 657 -12 801 -24 827 -24 52 -8 67
113 107 107 35 305 87 311 81 9 -9 -15 -52 -67 -123 -99 -133 -211 -327 -211
-364 0 -33 51 -102 154 -208 92 -94 120 -130 154 -199 59 -118 58 -122 -25
-106 -38 7 -93 23 -123 35 -59 24 -153 31 -184 13 -17 -9 -16 -12 12 -44 17
-19 52 -45 79 -56 212 -95 269 -109 372 -92 l63 11 -4 89 c-4 77 -9 97 -41
161 -77 151 -203 281 -334 346 -29 15 -53 29 -53 32 0 3 84 111 186 240 102
129 192 247 200 262 42 80 -13 139 -128 137 -37 0 -87 -14 -167 -45z"/>
<path d="M1465 2378 c-33 -12 -148 -66 -255 -120 -107 -55 -233 -112 -280
-128 -80 -26 -85 -29 -85 -56 0 -27 3 -29 45 -32 37 -2 68 7 155 44 206 88
440 173 443 160 6 -27 -41 -206 -82 -310 -44 -112 -124 -297 -132 -305 -2 -2
-23 9 -47 26 -94 67 -232 129 -324 146 -67 13 -49 -36 29 -81 29 -16 106 -69
171 -117 l117 -87 -21 -36 c-106 -177 -257 -391 -384 -542 -82 -98 -100 -126
-85 -135 17 -11 55 19 188 149 154 150 231 244 312 386 34 61 66 109 71 108 4
-2 36 -35 71 -74 64 -73 140 -144 214 -202 l41 -31 22 22 c24 27 27 66 7 105
-14 26 -179 192 -259 260 l-39 33 60 122 c73 148 126 279 182 452 49 153 50
194 0 238 -36 32 -54 33 -135 5z"/>
</g>
</svg>
