<?xml version="1.0" standalone="no"?>
<!DOCTYPE svg PUBLIC "-//W3C//DTD SVG 20010904//EN"
 "http://www.w3.org/TR/2001/REC-SVG-20010904/DTD/svg10.dtd">
<svg version="1.0" xmlns="http://www.w3.org/2000/svg"
 width="340.000000pt" height="340.000000pt" viewBox="0 0 340.000000 340.000000"
 preserveAspectRatio="xMidYMid meet">
<metadata>
Created by potrace 1.15, written by Peter Selinger 2001-2017
</metadata>
<g transform="translate(0.000000,340.000000) scale(0.100000,-0.100000)"
fill="#000000" stroke="none">
<path d="M1175 2490 c-4 -6 -3 -34 0 -63 6 -50 5 -55 -41 -122 -114 -168 -222
-305 -391 -494 -85 -95 -95 -130 -33 -121 22 3 108 78 260 226 l135 132 53 -5
c64 -7 189 12 255 38 26 11 52 19 57 19 21 0 8 -32 -39 -102 -28 -40 -83 -131
-123 -203 l-73 -129 -185 -64 c-102 -35 -191 -66 -199 -68 -11 -4 -11 -8 -3
-16 22 -22 331 29 497 81 109 35 192 45 283 36 99 -10 98 -8 73 -106 -31 -122
-98 -316 -134 -390 -31 -61 -34 -64 -82 -76 -65 -16 -624 -141 -650 -145 -15
-2 -20 -11 -20 -33 0 -25 7 -33 50 -54 40 -21 63 -26 120 -25 60 1 82 6 155
41 108 52 328 123 400 130 85 8 140 52 140 112 0 10 16 53 35 97 19 43 60 156
91 250 66 197 66 220 6 283 -52 54 -109 65 -228 46 -49 -8 -111 -21 -139 -30
-27 -8 -54 -15 -58 -15 -13 0 46 80 110 151 71 78 120 145 163 222 l33 59 -20
26 c-32 43 -82 72 -124 72 -26 0 -71 -17 -151 -59 -98 -51 -227 -101 -261
-101 -6 0 5 17 25 38 52 55 120 150 147 210 22 46 23 56 12 92 -8 27 -21 45
-41 55 -33 17 -96 20 -105 5z"/>
<path d="M2460 2362 c-94 -36 -219 -99 -287 -145 -49 -33 -54 -34 -96 -24 -25
5 -52 7 -60 4 -28 -11 -41 -84 -28 -167 14 -100 19 -269 31 -1065 9 -531 14
-685 26 -742 8 -40 20 -75 26 -79 5 -4 19 3 31 14 16 17 22 41 30 129 10 114
11 1642 1 1753 l-6 65 99 42 c105 44 293 106 300 100 7 -7 -43 -111 -90 -189
-55 -91 -82 -150 -117 -256 l-27 -82 81 -83 c91 -91 143 -170 182 -273 20 -53
54 -192 54 -220 0 -12 -33 0 -104 36 -44 22 -98 45 -121 50 -42 9 -115 3 -115
-10 0 -25 76 -101 127 -127 32 -16 75 -41 95 -55 61 -42 126 -53 193 -33 31 9
59 23 62 31 10 27 -17 225 -43 303 -30 96 -94 212 -143 259 -21 20 -66 53
-100 72 -34 19 -69 40 -78 46 -14 10 5 44 150 275 154 243 167 268 167 310 0
63 -22 82 -103 86 -49 2 -78 -3 -137 -25z"/>
<path d="M1249 1360 c-151 -43 -348 -111 -355 -121 -3 -6 0 -17 7 -26 11 -12
27 -14 84 -10 98 8 259 42 373 80 91 30 97 34 100 61 2 16 -2 32 -10 37 -24
16 -101 7 -199 -21z"/>
</g>
</svg>
