<?xml version="1.0" standalone="no"?>
<!DOCTYPE svg PUBLIC "-//W3C//DTD SVG 20010904//EN"
 "http://www.w3.org/TR/2001/REC-SVG-20010904/DTD/svg10.dtd">
<svg version="1.0" xmlns="http://www.w3.org/2000/svg"
 width="340.000000pt" height="340.000000pt" viewBox="0 0 340.000000 340.000000"
 preserveAspectRatio="xMidYMid meet">
<metadata>
Created by potrace 1.15, written by Peter Selinger 2001-2017
</metadata>
<g transform="translate(0.000000,340.000000) scale(0.100000,-0.100000)"
fill="#000000" stroke="none">
<path d="M1635 2568 c-148 -37 -304 -85 -404 -125 -64 -25 -144 -50 -178 -56
-47 -8 -63 -15 -63 -27 0 -42 56 -51 157 -25 31 8 70 15 85 15 28 0 28 0 27
-67 0 -38 -6 -92 -12 -122 l-12 -54 -80 -24 c-44 -13 -186 -51 -315 -84 -180
-45 -239 -64 -253 -80 -20 -25 -11 -42 31 -57 46 -15 294 34 500 100 51 16 97
28 101 26 13 -5 -27 -214 -49 -257 -11 -22 -34 -51 -52 -65 -31 -23 -204 -98
-291 -126 -37 -11 -57 -45 -42 -69 11 -20 86 -12 187 20 55 17 102 29 104 27
7 -8 -25 -110 -54 -173 -67 -142 -235 -413 -342 -550 -131 -168 -140 -185
-103 -199 20 -8 91 59 204 194 91 108 182 242 260 382 31 57 56 92 60 85 4 -7
35 -131 69 -277 34 -146 68 -275 76 -288 32 -50 74 -34 74 27 0 62 12 70 160
97 173 32 293 63 302 77 4 7 8 24 8 39 0 29 -23 48 -61 48 -19 0 -21 4 -15 38
3 22 15 59 25 83 37 82 64 202 65 284 l1 80 -45 23 c-58 30 -133 26 -210 -10
-30 -14 -129 -51 -220 -82 -153 -53 -165 -56 -177 -40 -17 23 -16 59 1 92 8
15 19 41 26 58 22 59 56 80 210 128 291 90 365 119 368 143 2 13 -5 27 -18 36
l-21 15 21 42 c12 23 36 88 55 143 l32 100 47 12 c49 13 101 54 112 88 9 29
-20 47 -74 47 -41 0 -44 2 -38 23 25 85 29 126 17 167 -31 105 -128 150 -256
118z m107 -127 l24 -9 -26 -108 -27 -109 -162 -34 c-89 -18 -164 -32 -166 -29
-3 3 -1 29 5 58 5 29 10 83 10 121 l0 67 53 18 c81 27 246 41 289 25z m-53
-374 c0 -18 -22 -84 -47 -147 l-47 -114 -130 -37 c-72 -20 -143 -41 -158 -47
-16 -7 -30 -12 -33 -12 -8 0 6 69 26 135 10 33 21 76 24 96 8 43 37 84 75 103
38 20 266 67 284 58 4 -2 7 -18 6 -35z m-19 -723 c0 -14 -16 -92 -35 -172 -59
-242 -46 -217 -114 -229 -49 -9 -114 -32 -198 -69 -7 -4 -14 4 -17 18 -19 96
-62 272 -77 316 l-18 53 27 10 c15 6 95 28 177 49 236 60 255 62 255 24z"/>
<path d="M2548 2420 c-70 -26 -176 -70 -237 -95 l-110 -47 -31 26 c-35 29 -58
33 -82 14 -31 -26 -37 -49 -20 -92 12 -33 17 -122 24 -466 5 -234 6 -540 3
-680 -14 -670 -7 -935 25 -955 4 -2 17 7 30 20 20 21 24 39 31 147 4 68 13
364 19 658 6 294 14 668 19 830 4 162 6 315 4 340 -4 36 -1 49 15 63 37 34
271 118 391 141 32 6 33 5 26 -21 -3 -15 -33 -71 -65 -123 -76 -126 -148 -272
-195 -395 -21 -55 -42 -104 -46 -109 -20 -22 -5 -46 76 -119 138 -127 215
-243 265 -399 38 -119 18 -142 -75 -83 -92 59 -265 115 -265 86 0 -25 29 -77
56 -103 16 -15 85 -59 154 -97 140 -80 184 -89 246 -51 27 17 34 29 40 68 16
104 -30 271 -115 417 -50 87 -161 193 -249 238 -65 34 -71 40 -61 58 5 11 95
147 198 302 103 155 193 292 200 304 17 33 13 94 -8 129 -15 25 -27 32 -66 37
-66 9 -56 12 -197 -43z"/>
</g>
</svg>
