<?xml version="1.0" standalone="no"?>
<!DOCTYPE svg PUBLIC "-//W3C//DTD SVG 20010904//EN"
 "http://www.w3.org/TR/2001/REC-SVG-20010904/DTD/svg10.dtd">
<svg version="1.0" xmlns="http://www.w3.org/2000/svg"
 width="340.000000pt" height="340.000000pt" viewBox="0 0 340.000000 340.000000"
 preserveAspectRatio="xMidYMid meet">
<metadata>
Created by potrace 1.15, written by Peter Selinger 2001-2017
</metadata>
<g transform="translate(0.000000,340.000000) scale(0.100000,-0.100000)"
fill="#000000" stroke="none">
<path d="M1673 2419 c-80 -21 -184 -61 -283 -108 -73 -35 -93 -37 -134 -16
-32 17 -62 19 -70 6 -3 -4 13 -46 35 -92 57 -117 94 -212 125 -321 14 -51 31
-99 36 -105 14 -18 38 -16 59 3 16 14 18 14 24 -5 8 -28 -2 -58 -22 -65 -9 -4
-78 -20 -152 -37 -75 -16 -238 -55 -363 -84 -124 -30 -247 -55 -272 -55 -25 0
-68 -5 -96 -11 l-52 -11 33 -34 c50 -52 89 -66 185 -65 93 0 161 16 262 63
133 60 446 149 463 130 4 -4 9 -49 11 -101 l3 -94 -85 -29 c-164 -55 -322 -98
-365 -98 -24 0 -47 -4 -50 -10 -7 -12 20 -67 50 -100 29 -33 99 -279 145 -513
7 -33 18 -61 26 -64 15 -5 451 96 537 125 54 18 67 11 67 -40 0 -14 3 -33 6
-42 7 -19 44 -21 67 -4 20 16 69 196 97 363 11 66 27 154 36 195 22 108 -3
247 -49 272 -50 27 -272 11 -371 -28 -16 -6 -18 -4 -13 10 4 10 10 50 13 89 8
97 22 117 78 117 51 0 147 28 193 56 37 23 31 44 -17 64 -23 9 -41 10 -73 2
-23 -6 -65 -13 -93 -16 -51 -5 -52 -5 -57 27 -4 18 -9 42 -13 54 -5 19 0 23
36 34 23 7 62 31 87 53 36 33 47 51 54 89 4 26 25 73 45 104 45 70 64 123 64
177 0 52 -18 116 -33 121 -45 14 -110 12 -174 -6z m53 -140 c3 -6 -15 -69 -42
-140 l-48 -128 -97 -33 -96 -34 -11 61 c-6 33 -29 95 -51 137 l-39 78 39 10
c36 10 299 58 326 59 6 1 15 -4 19 -10z m141 -917 c9 -6 7 -48 -12 -182 -38
-286 -48 -344 -58 -357 -6 -8 -33 -13 -68 -13 l-58 0 5 108 c3 59 7 118 8 131
2 13 0 85 -5 160 -5 93 -5 139 3 148 12 14 164 18 185 5z m-281 -56 c11 -47
-2 -61 -80 -85 -41 -13 -79 -20 -85 -17 -13 9 -36 84 -28 92 9 9 116 32 154
33 27 1 34 -4 39 -23z m-286 -51 c9 -10 16 -73 21 -183 7 -146 17 -218 44
-324 7 -28 8 -28 -96 -53 l-26 -6 -6 85 c-12 148 -47 278 -107 399 -16 33 -30
64 -30 68 0 7 100 25 156 28 18 0 37 -6 44 -14z m274 -97 c10 -40 6 -124 -6
-141 -13 -16 -116 -49 -130 -40 -5 2 -8 37 -8 77 l0 72 63 27 c76 32 73 32 81
5z m0 -250 c19 -74 -2 -117 -71 -138 -52 -16 -77 -8 -69 23 3 12 6 40 6 63 0
39 1 41 48 56 65 22 79 21 86 -4z"/>
<path d="M2578 2150 c-85 -29 -171 -70 -313 -150 -38 -22 -90 -42 -115 -45
-25 -4 -55 -10 -67 -15 -28 -12 -30 -46 -4 -55 18 -5 39 -54 55 -125 3 -14 8
-218 11 -455 4 -236 10 -582 14 -768 l6 -339 24 -19 c13 -11 28 -16 32 -12 5
5 16 60 25 123 25 170 33 1491 10 1571 -9 29 -15 54 -13 55 20 21 333 124 373
124 20 0 2 -40 -57 -132 -63 -98 -132 -241 -161 -331 l-23 -70 25 -16 c43 -29
140 -134 186 -203 46 -69 107 -192 120 -242 7 -28 6 -28 -27 -21 -19 4 -68 21
-109 37 -59 24 -79 27 -97 19 -64 -29 7 -107 171 -187 105 -52 151 -56 193
-20 25 22 28 30 28 88 -2 168 -130 394 -294 520 -40 30 -73 64 -77 77 -8 29
-20 9 168 286 82 119 151 227 154 240 8 30 -3 63 -24 74 -9 5 -42 12 -72 15
-46 5 -70 1 -142 -24z"/>
</g>
</svg>
