<?xml version="1.0" standalone="no"?>
<!DOCTYPE svg PUBLIC "-//W3C//DTD SVG 20010904//EN"
 "http://www.w3.org/TR/2001/REC-SVG-20010904/DTD/svg10.dtd">
<svg version="1.0" xmlns="http://www.w3.org/2000/svg"
 width="340.000000pt" height="340.000000pt" viewBox="0 0 340.000000 340.000000"
 preserveAspectRatio="xMidYMid meet">
<metadata>
Created by potrace 1.15, written by Peter Selinger 2001-2017
</metadata>
<g transform="translate(0.000000,340.000000) scale(0.100000,-0.100000)"
fill="#000000" stroke="none">
<path d="M1255 2221 c-99 -26 -247 -66 -328 -89 -82 -23 -171 -44 -198 -48
-51 -7 -62 -21 -32 -45 10 -9 42 -14 92 -14 l76 0 17 -65 c9 -36 17 -95 17
-131 l1 -67 -105 -42 c-90 -35 -110 -40 -135 -31 -53 18 -79 -32 -41 -80 45
-57 79 -452 61 -700 -6 -85 -14 -251 -17 -370 -5 -195 -4 -217 11 -222 25 -10
54 26 61 75 l7 43 76 2 c42 1 147 14 232 28 227 39 210 41 235 -30 29 -81 56
-132 97 -179 l35 -40 38 15 c23 9 46 27 57 45 17 28 17 51 6 370 -8 250 -8
433 1 699 12 394 11 406 -42 471 -39 46 -81 64 -155 64 -72 0 -86 13 -87 79
-1 25 -5 66 -9 91 l-8 46 86 16 c74 14 216 68 216 82 0 30 -50 78 -78 75 -4 0
-88 -22 -187 -48z m-123 -174 c3 -13 3 -63 0 -111 -5 -93 -9 -100 -65 -107
-27 -4 -29 0 -51 63 -12 37 -37 86 -54 108 -37 45 -41 40 58 59 84 16 107 14
112 -12z m214 -312 c12 -8 26 -27 32 -42 26 -66 43 -794 25 -1092 -6 -113 -6
-114 -25 -91 -10 12 -18 32 -18 45 0 31 -18 37 -136 42 -91 5 -112 2 -212 -26
-62 -17 -142 -44 -178 -61 -37 -16 -69 -30 -72 -30 -6 0 6 359 13 370 3 4 24
4 47 -2 95 -21 340 28 421 84 30 22 36 58 12 78 -13 11 -32 9 -103 -10 -117
-31 -299 -88 -340 -107 -18 -9 -34 -14 -36 -12 -2 2 1 76 6 164 12 215 -4 505
-32 567 -22 50 -20 52 65 62 32 4 70 9 83 13 l24 6 -4 -129 c-4 -107 -10 -147
-37 -239 -21 -74 -34 -142 -38 -209 l-6 -98 24 12 c37 20 46 36 88 165 49 148
70 257 78 400 3 62 11 113 17 117 6 4 25 8 41 8 l31 0 0 -147 c1 -119 5 -163
22 -226 32 -115 68 -178 114 -195 49 -19 84 -9 104 29 l16 31 -45 47 c-58 60
-74 93 -88 183 -11 71 -7 277 6 298 9 15 78 12 101 -5z"/>
<path d="M2325 2103 c-72 -10 -273 -66 -372 -104 -59 -23 -119 -43 -133 -46
-69 -12 -71 -13 -68 -36 3 -20 9 -22 88 -25 84 -3 116 3 330 63 30 8 90 15
133 15 71 0 79 -2 74 -17 -55 -186 -96 -337 -102 -371 -8 -50 -16 -55 -115
-72 -36 -6 -125 -27 -197 -46 -114 -31 -137 -34 -166 -25 -42 14 -65 6 -73
-25 -5 -19 10 -137 32 -259 3 -16 9 -154 13 -305 7 -247 10 -281 30 -331 41
-106 120 -171 252 -206 49 -12 109 -17 254 -17 284 -1 430 27 471 89 35 54 54
228 33 311 -14 54 -23 60 -54 40 -35 -23 -51 -61 -58 -132 -10 -116 -47 -150
-196 -178 -174 -33 -326 -15 -478 58 l-92 45 -16 53 c-40 133 -47 223 -40 463
5 164 3 238 -5 260 -15 38 6 55 68 55 61 0 228 35 310 66 l69 25 45 82 c115
207 149 279 168 352 11 43 20 90 20 105 0 64 -125 126 -225 113z"/>
</g>
</svg>
