<?xml version="1.0" standalone="no"?>
<!DOCTYPE svg PUBLIC "-//W3C//DTD SVG 20010904//EN"
 "http://www.w3.org/TR/2001/REC-SVG-20010904/DTD/svg10.dtd">
<svg version="1.0" xmlns="http://www.w3.org/2000/svg"
 width="340.000000pt" height="340.000000pt" viewBox="0 0 340.000000 340.000000"
 preserveAspectRatio="xMidYMid meet">
<metadata>
Created by potrace 1.15, written by Peter Selinger 2001-2017
</metadata>
<g transform="translate(0.000000,340.000000) scale(0.100000,-0.100000)"
fill="#000000" stroke="none">
<path d="M1020 2154 c-190 -40 -376 -77 -413 -80 -71 -7 -86 -16 -67 -39 13
-16 61 -25 184 -34 l91 -6 5 -112 5 -113 -35 -14 c-19 -7 -60 -19 -90 -26 -30
-7 -62 -21 -70 -32 -16 -19 -16 -19 -60 1 -73 33 -76 22 -41 -155 55 -274 61
-451 30 -922 -15 -225 -16 -223 83 -198 34 9 145 30 246 46 100 17 221 42 270
56 48 15 94 28 102 31 12 3 16 -5 16 -35 1 -39 32 -141 59 -192 19 -37 66 -53
115 -40 31 8 39 16 45 43 4 17 9 328 12 690 5 731 5 719 -61 795 -46 53 -102
74 -189 71 -67 -2 -73 -1 -84 22 -7 13 -11 30 -8 38 3 7 0 30 -6 51 -15 51 0
77 49 85 107 16 252 72 252 97 0 19 -42 48 -67 47 -16 -1 -183 -34 -373 -75z
m40 -191 c0 -58 -19 -107 -45 -117 -29 -11 -55 -6 -55 9 0 22 -45 108 -64 124
-30 25 -16 37 57 52 93 20 107 11 107 -68z m239 -211 c58 -29 68 -64 80 -271
14 -231 15 -941 2 -941 -6 0 -12 4 -16 9 -3 5 -19 13 -36 16 -17 4 -47 18 -66
31 -44 30 -84 30 -223 4 -125 -24 -188 -41 -298 -82 -45 -17 -84 -29 -86 -27
-1 2 1 56 6 119 5 63 10 300 11 526 l2 411 -32 61 -32 62 43 0 c23 0 68 7 101
15 32 9 65 13 72 11 28 -11 7 -310 -49 -683 -9 -65 -9 -86 0 -95 20 -20 37 8
75 127 77 239 107 399 107 561 0 123 0 124 25 130 50 13 50 15 50 -252 l0
-249 27 -57 c59 -126 156 -194 241 -168 35 10 38 14 32 38 -9 39 -36 73 -84
106 -57 38 -76 72 -92 164 -17 95 -17 317 0 395 l12 57 47 0 c26 0 62 -8 81
-18z"/>
<path d="M1085 878 c-133 -17 -315 -77 -315 -103 0 -17 24 -36 47 -36 10 -1
72 4 139 9 97 7 133 15 182 37 78 35 91 49 68 74 -22 24 -48 28 -121 19z"/>
<path d="M2270 2153 c0 -20 9 -56 20 -79 l21 -42 -61 -186 c-34 -102 -64 -186
-69 -186 -4 0 -18 12 -32 26 -75 80 -330 237 -358 220 -23 -14 -9 -38 60 -103
39 -38 118 -118 176 -180 l104 -112 -27 -43 c-72 -113 -216 -440 -200 -455 3
-3 17 -1 31 5 28 13 71 76 183 270 42 72 79 132 82 132 3 0 28 -35 56 -78 68
-103 164 -222 179 -222 21 0 45 36 45 69 0 17 -10 51 -21 74 -26 51 -126 198
-172 251 l-34 39 55 120 c29 66 74 179 98 252 38 113 43 137 33 161 -21 58
-83 104 -139 104 -28 0 -30 -2 -30 -37z"/>
<path d="M2710 1617 c0 -41 6 -95 14 -121 13 -41 12 -64 -5 -199 -10 -83 -28
-204 -39 -267 -11 -63 -20 -122 -20 -130 0 -8 -9 -1 -19 17 -11 17 -29 34 -40
38 -47 14 -427 -33 -680 -85 -80 -17 -147 -30 -150 -30 -3 0 -6 69 -7 153 -1
234 -41 412 -104 455 -41 27 -46 27 -64 -1 -14 -20 -14 -27 0 -66 46 -133 49
-183 41 -548 -2 -69 0 -74 29 -104 l31 -31 109 17 c60 9 163 30 229 47 222 57
279 67 415 78 84 7 146 17 163 27 16 8 31 13 34 10 3 -3 -5 -55 -16 -114 -13
-62 -21 -135 -19 -169 l3 -59 35 0 c47 0 52 13 101 252 109 539 134 722 108
790 -19 51 -92 113 -134 113 -12 0 -15 -14 -15 -73z"/>
</g>
</svg>
