<?xml version="1.0" standalone="no"?>
<!DOCTYPE svg PUBLIC "-//W3C//DTD SVG 20010904//EN"
 "http://www.w3.org/TR/2001/REC-SVG-20010904/DTD/svg10.dtd">
<svg version="1.0" xmlns="http://www.w3.org/2000/svg"
 width="340.000000pt" height="340.000000pt" viewBox="0 0 340.000000 340.000000"
 preserveAspectRatio="xMidYMid meet">
<metadata>
Created by potrace 1.15, written by Peter Selinger 2001-2017
</metadata>
<g transform="translate(0.000000,340.000000) scale(0.100000,-0.100000)"
fill="#000000" stroke="none">
<path d="M1265 2224 c-71 -18 -218 -58 -325 -88 -107 -29 -222 -59 -254 -65
-68 -12 -73 -15 -57 -35 18 -21 74 -28 126 -15 39 10 48 9 64 -5 21 -20 41
-113 41 -195 l0 -52 -67 -32 c-64 -29 -108 -36 -168 -25 -27 4 -31 -31 -10
-84 32 -81 45 -177 45 -331 0 -188 -16 -531 -32 -697 -21 -222 -18 -232 48
-200 62 31 222 68 407 95 219 32 207 33 207 -12 0 -48 34 -118 71 -144 17 -12
47 -23 68 -26 l39 -5 19 53 c19 52 19 79 14 739 -6 662 -7 686 -26 719 -37 63
-66 76 -166 76 -109 0 -111 2 -107 117 l3 83 60 7 c79 10 164 42 206 79 l34
29 -28 25 c-36 32 -53 31 -212 -11z m-195 -184 c15 -28 24 -112 16 -144 -9
-36 -41 -66 -71 -66 -22 0 -25 4 -25 38 0 21 -7 62 -15 92 -23 80 -22 83 5 91
48 14 79 10 90 -11z m294 -367 c19 -221 26 -408 26 -693 0 -173 -3 -325 -6
-336 -5 -20 -14 -22 -147 -27 -156 -6 -246 -25 -418 -92 -50 -19 -94 -35 -98
-35 -4 0 -3 37 1 83 4 45 8 114 9 152 2 107 -6 100 116 102 115 2 304 32 350
57 38 20 87 72 79 85 -11 18 -88 33 -133 27 -23 -3 -84 -23 -135 -45 -81 -35
-256 -86 -265 -78 -1 2 2 41 7 88 19 162 10 500 -16 646 -7 36 -4 37 84 64 61
18 64 9 58 -131 -6 -129 -24 -242 -62 -407 -29 -120 -27 -151 5 -134 55 30
163 399 178 611 5 82 9 93 30 107 21 14 26 14 39 2 12 -13 13 -31 5 -109 -16
-149 6 -273 71 -403 44 -88 126 -126 162 -75 23 33 20 46 -20 91 -59 65 -83
131 -96 259 -6 65 -8 146 -4 191 l8 77 83 0 82 0 7 -77z"/>
<path d="M2370 2214 c-168 -23 -324 -52 -481 -89 -80 -19 -166 -38 -192 -41
l-47 -7 0 -41 c0 -23 9 -73 19 -111 61 -224 48 -1181 -19 -1363 -24 -64 -26
-129 -6 -177 17 -40 18 -41 56 -19 52 31 62 62 76 253 25 330 35 566 41 937 5
328 4 376 -10 419 -10 27 -16 50 -14 51 5 6 189 35 307 48 69 8 196 18 282 22
174 8 207 1 227 -44 9 -18 19 -244 32 -721 19 -627 20 -893 6 -907 -2 -3 -22
7 -43 21 -44 30 -60 29 -86 -6 -18 -24 -18 -29 -5 -61 18 -44 72 -105 109
-124 15 -8 52 -16 80 -17 l52 -2 13 45 c18 57 20 191 5 345 -33 350 -39 945
-14 1304 19 256 -80 328 -388 285z"/>
<path d="M2313 1900 c-20 -8 -316 -82 -380 -96 -33 -6 -30 -42 5 -55 33 -13
189 -4 282 17 36 8 98 26 138 40 67 24 72 28 72 55 0 44 -57 63 -117 39z"/>
<path d="M2300 1564 c-30 -8 -115 -33 -188 -55 -97 -29 -142 -38 -167 -33 -51
9 -53 -10 -11 -135 24 -73 41 -148 50 -229 14 -125 21 -145 55 -176 26 -23 49
-15 62 23 l10 28 89 -5 c97 -5 148 7 207 51 28 21 29 24 17 52 -19 43 -17 83
6 149 24 69 50 204 50 255 0 75 -72 105 -180 75z m20 -144 c11 -11 20 -24 20
-29 0 -4 -14 -55 -30 -112 -54 -184 -43 -166 -117 -189 -36 -11 -71 -20 -78
-20 -8 0 -15 23 -20 65 -5 54 -23 132 -56 244 -6 21 87 43 249 60 6 0 21 -8
32 -19z"/>
</g>
</svg>
