<?xml version="1.0" standalone="no"?>
<!DOCTYPE svg PUBLIC "-//W3C//DTD SVG 20010904//EN"
 "http://www.w3.org/TR/2001/REC-SVG-20010904/DTD/svg10.dtd">
<svg version="1.0" xmlns="http://www.w3.org/2000/svg"
 width="340.000000pt" height="340.000000pt" viewBox="0 0 340.000000 340.000000"
 preserveAspectRatio="xMidYMid meet">
<metadata>
Created by potrace 1.15, written by Peter Selinger 2001-2017
</metadata>
<g transform="translate(0.000000,340.000000) scale(0.100000,-0.100000)"
fill="#000000" stroke="none">
<path d="M2034 2680 c-31 -12 -37 -27 -24 -60 21 -51 -10 -89 -170 -208 -75
-56 -177 -182 -157 -194 22 -14 48 -8 81 17 18 14 42 25 52 25 34 0 231 -139
208 -147 -61 -21 -334 -246 -334 -275 0 -21 62 3 165 62 217 126 321 189 355
218 20 17 65 52 100 78 36 26 104 85 153 132 86 84 87 86 87 134 0 59 -28 93
-85 104 -31 6 -224 -16 -277 -32 -14 -4 -16 0 -11 30 7 47 -12 92 -45 104 -45
17 -76 21 -98 12z m204 -231 c64 -11 119 -23 122 -26 7 -7 -178 -180 -211
-198 -25 -13 -33 -12 -107 20 -44 20 -94 38 -112 41 -17 4 -29 11 -28 16 3 8
207 167 216 168 2 0 56 -9 120 -21z"/>
<path d="M1332 2637 c-28 -30 -28 -54 1 -97 21 -31 25 -51 30 -172 l7 -137
-203 -139 c-161 -111 -206 -138 -220 -130 -29 15 -56 0 -66 -38 -20 -73 18
-113 95 -98 34 6 181 124 326 260 31 30 59 54 62 54 3 0 6 -90 6 -199 l0 -200
-72 -15 c-40 -9 -116 -23 -168 -31 -52 -8 -189 -33 -304 -54 -165 -30 -216
-37 -244 -29 -43 12 -78 4 -92 -22 -9 -17 -5 -21 47 -37 95 -29 290 -24 421
10 112 30 384 88 501 107 61 10 75 10 82 -1 11 -18 11 -191 0 -221 -7 -20 -27
-28 -147 -57 -76 -19 -157 -35 -179 -35 -38 -1 -40 -3 -39 -31 1 -16 12 -84
24 -150 27 -152 37 -426 21 -580 -21 -191 -22 -220 -12 -235 9 -13 14 -13 42
3 17 9 48 17 69 17 21 0 82 9 136 20 157 33 277 49 459 61 188 13 215 19 215
48 0 28 -9 32 -128 43 -183 18 -381 -7 -584 -74 -121 -40 -127 -37 -110 54 30
153 41 629 17 697 -8 23 -12 48 -9 56 6 14 60 29 158 41 56 6 59 6 51 -12 -50
-116 -115 -347 -101 -361 14 -14 81 32 103 72 36 64 92 203 109 271 16 61 17
62 59 73 24 6 55 11 69 11 25 0 25 -1 19 -67 -9 -113 23 -190 104 -247 31 -21
58 -31 97 -34 49 -4 57 -2 81 22 21 21 25 33 20 54 -4 15 -7 27 -8 27 -43 10
-107 48 -131 78 -26 33 -31 48 -34 107 -4 68 -4 69 23 76 67 17 275 -28 275
-59 0 -7 7 -70 15 -142 22 -195 38 -582 30 -722 -6 -108 -9 -123 -24 -119 -88
25 -101 19 -101 -50 0 -54 41 -111 104 -144 43 -23 48 -24 73 -10 15 8 36 31
47 50 20 34 21 49 21 455 0 438 -4 484 -51 708 l-17 77 -76 38 c-74 36 -77 37
-193 37 l-118 -1 0 112 c0 87 3 113 14 117 35 14 278 30 451 31 165 1 249 -5
442 -30 39 -6 43 -4 48 19 14 52 3 71 -58 101 -76 38 -182 46 -301 23 -44 -9
-144 -21 -221 -27 -163 -13 -547 -61 -720 -89 -65 -11 -121 -19 -122 -17 -2 2
1 25 7 52 16 69 29 326 29 549 1 167 -2 195 -19 233 -14 31 -29 47 -54 57 -48
20 -59 19 -84 -8z m459 -938 c12 -23 9 -202 -4 -215 -4 -4 -34 -10 -65 -12
l-59 -4 -17 111 c-10 62 -17 113 -15 115 2 2 33 8 69 13 36 6 68 11 72 12 4 0
12 -8 19 -20z"/>
<path d="M968 2399 c-27 -15 -22 -34 17 -63 79 -60 238 -113 257 -84 14 20 -1
90 -24 115 -12 13 -38 27 -57 33 -47 13 -171 12 -193 -1z"/>
<path d="M1800 884 c-87 -18 -224 -58 -285 -82 -35 -14 -50 -25 -50 -38 0 -17
9 -19 105 -18 124 1 212 15 333 51 94 28 107 43 67 83 -24 24 -74 25 -170 4z"/>
</g>
</svg>
