<?xml version="1.0" standalone="no"?>
<!DOCTYPE svg PUBLIC "-//W3C//DTD SVG 20010904//EN"
 "http://www.w3.org/TR/2001/REC-SVG-20010904/DTD/svg10.dtd">
<svg version="1.0" xmlns="http://www.w3.org/2000/svg"
 width="340.000000pt" height="340.000000pt" viewBox="0 0 340.000000 340.000000"
 preserveAspectRatio="xMidYMid meet">
<metadata>
Created by potrace 1.15, written by Peter Selinger 2001-2017
</metadata>
<g transform="translate(0.000000,340.000000) scale(0.100000,-0.100000)"
fill="#000000" stroke="none">
<path d="M1838 2359 c-20 -11 -24 -44 -7 -55 7 -4 9 -24 6 -49 -4 -44 -54
-118 -246 -374 -39 -52 -71 -100 -71 -106 0 -7 5 -26 11 -44 12 -34 35 -51 69
-51 26 0 609 189 628 203 19 15 14 44 -8 50 -41 11 -252 -20 -398 -59 -52 -13
-98 -24 -103 -24 -17 0 35 72 109 153 81 88 131 160 162 233 27 62 25 78 -11
108 -23 20 -41 26 -77 26 -26 0 -55 -5 -64 -11z"/>
<path d="M1100 2190 c-130 -34 -257 -56 -432 -75 -52 -6 -58 -9 -58 -29 0 -29
36 -46 99 -46 55 0 71 -13 90 -75 12 -40 28 -255 19 -255 -3 0 -49 -13 -103
-29 -70 -21 -103 -27 -116 -20 -27 14 -65 11 -88 -8 l-20 -18 38 -78 c35 -70
40 -91 52 -210 20 -192 17 -663 -4 -785 -19 -106 -21 -181 -6 -235 l10 -37 38
30 c32 26 55 33 157 50 65 11 188 34 272 52 134 27 156 34 170 56 15 23 15 25
-3 38 -39 28 -253 5 -385 -41 -120 -43 -149 -50 -159 -40 -4 6 2 195 16 435
24 430 24 552 -2 670 -7 36 -12 66 -11 68 2 1 28 8 59 14 50 11 58 10 77 -7
14 -13 20 -30 20 -61 0 -64 -46 -325 -85 -479 -41 -162 -43 -185 -15 -185 25
0 69 84 115 223 42 127 71 268 85 417 11 116 20 136 51 119 15 -8 18 -34 21
-221 5 -237 9 -256 75 -329 42 -46 104 -82 136 -77 13 2 25 14 31 30 8 23 4
32 -34 75 -65 73 -98 152 -106 253 -6 87 10 268 26 284 10 10 76 12 107 2 25
-8 29 -34 43 -301 14 -251 -5 -970 -26 -1000 -45 -64 18 -167 90 -149 33 8 54
74 63 197 l6 88 50 42 c70 58 184 191 284 330 47 65 88 115 92 110 4 -4 47
-52 95 -105 l88 -98 -55 -63 c-31 -35 -89 -90 -129 -122 -100 -80 -174 -152
-209 -202 -16 -23 -29 -45 -29 -49 0 -3 18 -4 40 -1 47 6 185 103 358 252
l113 98 37 -34 c20 -19 95 -90 167 -159 142 -137 191 -171 281 -194 147 -37
241 -38 289 -2 17 12 17 16 5 30 -23 28 -94 66 -177 92 -113 38 -195 77 -287
138 -81 54 -236 190 -236 207 0 5 18 32 40 61 85 112 187 344 175 399 -3 14
-19 39 -35 54 -25 24 -37 28 -88 27 -65 -1 -112 -17 -182 -62 -41 -27 -130
-64 -130 -56 0 2 16 38 36 80 25 53 38 95 41 139 5 61 5 64 -27 90 -17 15 -43
27 -56 27 -33 0 -78 -45 -69 -68 23 -55 4 -109 -117 -327 -122 -219 -359 -568
-375 -551 -2 2 -4 245 -3 540 0 464 -2 541 -15 573 -33 78 -80 106 -180 107
l-70 1 -7 85 c-5 47 -13 107 -18 134 -6 30 -7 53 -1 59 4 4 41 13 80 18 77 9
121 27 164 67 33 32 33 36 2 50 -41 19 -100 12 -255 -28z m-45 -130 c4 -6 -3
-34 -14 -64 -11 -30 -25 -93 -32 -140 -10 -68 -16 -87 -30 -91 -28 -9 -39 2
-39 38 0 54 -29 149 -56 185 -15 18 -23 36 -20 40 6 5 147 38 178 41 4 1 10
-4 13 -9z m1185 -915 c0 -32 -59 -151 -113 -227 l-40 -58 -36 31 c-20 16 -71
55 -113 85 -43 31 -78 59 -78 62 0 4 15 28 33 54 29 43 36 48 72 49 22 0 85 6
140 13 144 19 135 19 135 -9z"/>
<path d="M2150 2215 c0 -24 29 -87 50 -110 10 -11 45 -57 77 -101 82 -114 147
-184 172 -184 27 0 61 34 61 60 0 29 -25 74 -76 142 -93 121 -284 250 -284
193z"/>
<path d="M2110 1703 c2 -36 181 -180 325 -262 71 -41 74 -42 103 -27 44 22 49
50 19 95 -32 47 -158 115 -310 166 -105 35 -137 42 -137 28z"/>
<path d="M1696 1628 c-8 -18 -17 -49 -21 -68 -5 -21 -27 -57 -57 -89 -27 -30
-60 -68 -73 -85 -39 -52 -105 -165 -105 -181 0 -28 48 -29 88 -2 83 55 227
214 291 320 27 44 23 76 -14 113 -17 16 -35 24 -60 24 -31 0 -38 -4 -49 -32z"/>
<path d="M910 820 c-74 -22 -145 -40 -156 -40 -30 0 -45 -21 -30 -42 9 -12 37
-18 131 -23 173 -10 285 14 339 74 19 21 19 22 0 36 -24 19 -81 35 -119 34
-16 0 -91 -18 -165 -39z"/>
</g>
</svg>
