<?xml version="1.0" standalone="no"?>
<!DOCTYPE svg PUBLIC "-//W3C//DTD SVG 20010904//EN"
 "http://www.w3.org/TR/2001/REC-SVG-20010904/DTD/svg10.dtd">
<svg version="1.0" xmlns="http://www.w3.org/2000/svg"
 width="340.000000pt" height="340.000000pt" viewBox="0 0 340.000000 340.000000"
 preserveAspectRatio="xMidYMid meet">
<metadata>
Created by potrace 1.15, written by Peter Selinger 2001-2017
</metadata>
<g transform="translate(0.000000,340.000000) scale(0.100000,-0.100000)"
fill="#000000" stroke="none">
<path d="M1120 2450 c-26 -26 -25 -32 5 -68 14 -17 25 -38 25 -48 0 -54 -305
-503 -519 -764 -60 -73 -75 -110 -47 -110 22 0 280 254 381 375 l90 107 40 -5
c22 -3 58 -1 80 4 22 6 69 17 105 25 35 8 89 26 119 40 65 29 161 101 161 119
0 8 -12 23 -27 35 -40 31 -98 23 -169 -24 -56 -38 -235 -136 -247 -136 -19 0
-1 35 49 97 80 96 117 179 118 262 1 63 0 65 -33 88 -43 29 -103 31 -131 3z"/>
<path d="M2360 2230 c-239 -49 -328 -73 -550 -147 -146 -48 -266 -88 -268 -89
-1 -1 0 -8 4 -17 12 -33 58 -29 260 24 109 28 208 52 219 53 16 1 25 -12 44
-69 27 -80 39 -245 40 -527 1 -100 5 -169 11 -173 21 -13 8 -24 -44 -39 -82
-24 -255 -60 -261 -55 -3 3 6 49 20 103 47 186 43 412 -8 464 -31 30 -81 32
-109 5 -17 -18 -18 -22 -3 -56 8 -20 20 -70 26 -111 14 -91 -6 -227 -52 -370
-25 -76 -28 -94 -18 -123 24 -75 86 -81 245 -24 254 90 667 161 748 127 47
-20 62 -60 46 -128 -19 -77 -77 -250 -117 -348 -35 -86 -145 -307 -183 -368
l-20 -33 -47 41 c-47 41 -164 104 -215 116 -24 5 -28 3 -28 -15 0 -45 32 -96
107 -168 43 -42 92 -82 110 -89 33 -14 92 -18 128 -8 25 6 125 188 228 414 87
192 129 307 163 444 28 116 22 158 -31 211 -68 67 -190 73 -439 20 -92 -19
-168 -35 -170 -35 -2 0 3 26 11 58 12 43 14 85 9 173 -5 102 -4 118 12 132 11
10 70 23 174 37 86 11 183 30 215 41 60 20 163 82 163 98 0 5 -13 23 -29 40
-36 39 -71 40 -136 5 -27 -14 -116 -49 -199 -79 -83 -29 -158 -56 -167 -60
-14 -5 -17 8 -23 92 -3 54 -13 140 -22 192 -13 76 -13 95 -3 102 39 23 370 67
531 69 20 0 32 8 43 30 21 40 19 57 -9 75 -49 32 -109 27 -406 -35z"/>
<path d="M1200 1697 c-145 -67 -240 -119 -240 -132 1 -36 31 -44 106 -30 51 9
52 5 61 -151 7 -132 31 -104 -215 -243 -95 -54 -177 -102 -182 -107 -7 -7 -5
-17 4 -29 25 -35 80 -24 217 45 68 34 128 66 134 71 5 5 15 9 23 9 13 0 14
-24 8 -162 -7 -143 -34 -428 -52 -528 -4 -27 -1 -41 16 -63 58 -74 128 -6 260
255 57 110 130 284 130 308 0 20 -47 9 -72 -17 -14 -16 -63 -84 -107 -153
l-81 -125 0 105 c0 99 12 283 26 397 6 49 8 52 49 68 68 25 153 120 130 143
-13 13 -100 5 -132 -11 l-32 -17 -5 32 c-3 18 -8 49 -11 69 -3 20 -17 58 -30
85 -14 27 -25 50 -25 51 0 1 28 11 63 22 77 26 167 77 167 95 0 27 -41 66 -68
66 -15 -1 -79 -24 -142 -53z"/>
</g>
</svg>
