<?xml version="1.0" standalone="no"?>
<!DOCTYPE svg PUBLIC "-//W3C//DTD SVG 20010904//EN"
 "http://www.w3.org/TR/2001/REC-SVG-20010904/DTD/svg10.dtd">
<svg version="1.0" xmlns="http://www.w3.org/2000/svg"
 width="340.000000pt" height="340.000000pt" viewBox="0 0 340.000000 340.000000"
 preserveAspectRatio="xMidYMid meet">
<metadata>
Created by potrace 1.15, written by Peter Selinger 2001-2017
</metadata>
<g transform="translate(0.000000,340.000000) scale(0.100000,-0.100000)"
fill="#000000" stroke="none">
<path d="M1035 2326 c-18 -13 -19 -18 -7 -60 6 -26 12 -55 12 -65 0 -17 -87
-181 -168 -318 -64 -108 -158 -252 -259 -395 -108 -153 -123 -193 -76 -193 23
0 158 158 310 362 l76 101 28 -20 c32 -24 59 -22 202 15 102 27 171 59 231
109 29 24 34 33 26 48 -13 25 -63 41 -99 30 -16 -4 -69 -31 -117 -60 -48 -29
-97 -56 -109 -60 -11 -5 -46 -20 -78 -34 l-58 -26 6 22 c4 13 39 70 78 128 79
117 119 204 137 296 14 74 5 99 -45 120 -43 18 -66 18 -90 0z"/>
<path d="M1826 2327 c-18 -13 -17 -16 4 -81 27 -78 29 -66 -52 -260 -64 -153
-141 -307 -239 -477 -44 -75 -79 -144 -79 -153 0 -9 8 -20 17 -23 19 -7 71 46
155 158 44 60 55 69 82 69 47 0 183 35 269 69 75 30 250 71 302 71 l26 0 -31
-46 c-18 -25 -58 -73 -89 -107 -70 -75 -93 -117 -89 -162 l3 -34 99 66 c56 37
146 112 208 172 99 97 108 109 108 143 0 65 -76 108 -190 108 -30 -1 -71 -7
-90 -15 -77 -30 -483 -175 -491 -175 -13 0 8 49 47 107 79 120 148 271 189
415 14 50 14 60 1 92 -26 62 -114 96 -160 63z"/>
<path d="M1058 1505 c-113 -57 -209 -109 -213 -115 -4 -6 -1 -18 6 -27 10 -12
25 -14 66 -9 72 8 88 -9 98 -102 10 -100 0 -115 -132 -189 -59 -34 -147 -81
-195 -104 -87 -43 -102 -61 -76 -87 26 -26 79 -12 228 63 82 41 152 75 155 75
13 0 -24 -422 -45 -520 -10 -47 -21 -108 -24 -137 -6 -47 -4 -53 20 -72 43
-33 86 -28 125 17 58 65 148 213 222 360 58 117 68 145 56 153 -30 19 -36 14
-231 -221 l-37 -45 0 100 c0 93 10 241 25 361 l6 52 82 41 c44 22 99 56 121
75 34 29 38 37 29 53 -17 28 -48 27 -135 -6 -44 -17 -83 -31 -85 -31 -2 0 -4
26 -4 58 -1 31 -9 80 -18 109 l-18 51 60 16 c77 21 220 97 224 119 5 25 -42
67 -75 66 -15 0 -121 -47 -235 -104z"/>
<path d="M1740 1393 c-9 -19 -14 -77 -15 -178 -1 -102 -7 -172 -18 -219 -48
-192 -154 -370 -300 -499 -61 -55 -107 -117 -107 -146 0 -5 35 5 77 22 67 27
90 44 169 122 145 144 235 299 284 488 l26 99 49 -74 c156 -236 456 -593 537
-641 75 -44 164 -68 252 -69 118 -1 165 9 178 38 16 34 4 43 -117 94 -125 52
-286 135 -390 202 -65 41 -96 70 -165 156 -47 58 -140 170 -207 249 l-123 143
0 57 c0 68 -25 130 -65 161 -36 29 -49 28 -65 -5z"/>
</g>
</svg>
