<?xml version="1.0" standalone="no"?>
<!DOCTYPE svg PUBLIC "-//W3C//DTD SVG 20010904//EN"
 "http://www.w3.org/TR/2001/REC-SVG-20010904/DTD/svg10.dtd">
<svg version="1.0" xmlns="http://www.w3.org/2000/svg"
 width="340.000000pt" height="340.000000pt" viewBox="0 0 340.000000 340.000000"
 preserveAspectRatio="xMidYMid meet">
<metadata>
Created by potrace 1.15, written by Peter Selinger 2001-2017
</metadata>
<g transform="translate(0.000000,340.000000) scale(0.100000,-0.100000)"
fill="#000000" stroke="none">
<path d="M1114 2457 c-3 -8 -8 -45 -12 -83 -7 -66 -12 -76 -101 -209 -112
-168 -256 -362 -375 -505 -80 -97 -107 -142 -93 -157 7 -7 92 53 170 120 141
122 567 679 567 742 0 34 -25 82 -49 95 -29 15 -101 13 -107 -3z"/>
<path d="M1993 2430 c-28 -11 -29 -30 -3 -72 29 -48 25 -89 -20 -178 -53 -106
-177 -320 -260 -450 -80 -127 -90 -150 -61 -150 22 0 156 130 202 196 l30 44
94 0 c82 0 110 5 217 39 135 43 194 55 340 71 114 13 155 2 188 -52 21 -32 21
-42 16 -313 -7 -407 -51 -686 -170 -1076 -39 -127 -41 -129 -100 -75 -48 45
-125 89 -178 102 -25 5 -28 3 -28 -17 0 -67 73 -162 180 -236 81 -55 142 -51
188 14 17 24 110 410 151 623 43 223 90 662 94 875 2 149 -9 184 -77 239 -38
31 -39 31 -155 30 -142 -2 -278 -34 -487 -117 -125 -50 -234 -79 -234 -63 0 3
20 32 43 63 88 117 181 302 193 387 7 41 -26 93 -71 112 -39 16 -60 17 -92 4z"/>
<path d="M1350 2087 c-74 -35 -169 -82 -211 -105 -42 -23 -87 -42 -101 -42
-22 0 -58 -26 -58 -43 0 -4 25 -7 56 -7 96 0 427 101 510 155 16 10 24 25 24
43 0 39 -12 52 -51 57 -27 4 -63 -9 -169 -58z"/>
<path d="M1270 1681 c-190 -88 -410 -200 -410 -209 0 -35 71 -42 128 -13 21
11 54 22 74 26 31 6 37 4 43 -15 9 -30 21 -204 17 -258 l-3 -44 -107 -50 c-59
-28 -159 -74 -222 -103 -63 -29 -116 -60 -118 -68 -2 -8 10 -22 25 -32 27 -18
29 -18 111 10 47 16 131 52 187 81 111 56 125 56 125 -1 0 -51 -28 -282 -56
-456 -15 -91 -24 -178 -20 -192 3 -15 17 -34 31 -43 23 -15 27 -15 62 3 41 21
90 98 258 397 89 160 99 187 80 213 -13 17 -16 16 -50 -17 -45 -43 -116 -132
-185 -230 l-52 -75 6 90 c7 87 30 305 41 392 6 39 8 42 58 58 63 20 130 62
176 109 43 44 33 59 -37 60 -38 1 -60 -6 -102 -32 -76 -47 -84 -43 -92 53 -5
70 -17 117 -42 176 -6 13 3 19 39 29 61 17 153 77 193 126 29 35 30 39 15 56
-9 10 -23 18 -32 18 -9 -1 -72 -27 -141 -59z"/>
<path d="M1793 1503 c-7 -18 -3 -22 97 -85 75 -47 115 -63 188 -73 l52 -7 0
49 c-1 76 -25 95 -146 119 -106 20 -183 19 -191 -3z"/>
<path d="M2342 1232 c-137 -82 -261 -169 -367 -258 -44 -37 -110 -87 -147
-111 -66 -43 -68 -43 -98 -28 -28 14 -31 14 -50 -5 -38 -38 -21 -133 27 -151
51 -19 87 -2 225 108 163 130 424 351 460 390 28 30 73 111 66 118 -2 3 -55
-26 -116 -63z"/>
</g>
</svg>
