<?xml version="1.0" standalone="no"?>
<!DOCTYPE svg PUBLIC "-//W3C//DTD SVG 20010904//EN"
 "http://www.w3.org/TR/2001/REC-SVG-20010904/DTD/svg10.dtd">
<svg version="1.0" xmlns="http://www.w3.org/2000/svg"
 width="340.000000pt" height="340.000000pt" viewBox="0 0 340.000000 340.000000"
 preserveAspectRatio="xMidYMid meet">
<metadata>
Created by potrace 1.15, written by Peter Selinger 2001-2017
</metadata>
<g transform="translate(0.000000,340.000000) scale(0.100000,-0.100000)"
fill="#000000" stroke="none">
<path d="M1923 2480 c-35 -14 -38 -46 -9 -89 14 -20 26 -46 26 -57 0 -10 -51
-116 -114 -234 -111 -212 -113 -215 -143 -212 -41 4 -45 -12 -26 -105 13 -58
17 -132 17 -288 0 -180 -3 -225 -22 -312 -28 -130 -28 -139 7 -174 39 -39 95
-39 193 0 212 85 559 135 786 113 103 -10 126 -23 141 -79 8 -28 5 -53 -15
-121 -35 -120 -102 -288 -164 -411 -77 -153 -96 -181 -125 -181 -40 0 -94 27
-141 70 -42 39 -72 48 -108 34 -24 -9 -20 -32 15 -86 39 -61 120 -135 187
-171 l52 -28 34 20 c74 46 176 187 176 245 0 7 21 55 46 107 61 124 103 228
153 373 41 119 41 120 26 166 -25 76 -69 136 -122 167 -43 25 -57 28 -133 28
-127 -1 -515 -54 -768 -107 -56 -11 -105 -18 -109 -15 -3 4 0 88 8 189 15 221
14 343 -6 423 -12 53 -12 61 1 71 43 33 316 102 469 119 53 6 63 4 79 -14 17
-19 17 -23 0 -98 -20 -91 -75 -261 -109 -339 l-24 -55 -52 27 c-40 20 -62 25
-92 21 -54 -7 -59 -16 -38 -62 22 -50 70 -97 121 -120 34 -16 43 -16 72 -4 53
22 109 80 140 144 15 33 28 66 28 73 0 8 13 52 30 98 35 99 70 263 70 326 0
35 -6 50 -27 71 -45 42 -111 67 -178 66 -58 0 -74 -4 -180 -47 -170 -69 -225
-89 -225 -81 0 20 41 87 103 171 67 89 91 145 106 239 11 66 -8 98 -69 123
-45 18 -55 19 -87 6z"/>
<path d="M1043 2348 c-28 -14 -36 -34 -22 -60 20 -38 4 -102 -49 -194 -94
-162 -226 -362 -344 -523 -125 -169 -141 -204 -97 -209 22 -3 40 12 104 80 42
46 117 137 166 203 48 66 104 141 124 168 l35 47 83 0 c92 0 252 23 301 44 37
16 86 70 86 96 0 13 -13 21 -50 30 -63 15 -125 2 -188 -41 -24 -16 -60 -38
-80 -48 -39 -19 -102 -35 -102 -25 0 4 20 36 44 73 53 80 80 134 112 218 30
80 30 98 -1 128 -26 27 -81 33 -122 13z"/>
<path d="M1125 1604 c-71 -30 -158 -67 -192 -81 -66 -28 -77 -45 -42 -63 15
-9 34 -8 72 1 48 11 51 11 69 -11 10 -12 18 -36 18 -54 0 -57 -22 -211 -31
-223 -6 -6 -79 -42 -164 -80 -160 -70 -174 -82 -137 -116 26 -24 44 -22 182
23 67 23 125 39 127 36 11 -11 -31 -446 -56 -581 -7 -35 -5 -50 10 -74 39 -64
89 -46 168 60 98 132 251 415 236 438 -22 36 -92 -23 -204 -173 -29 -39 -56
-73 -59 -76 -6 -6 5 360 14 422 6 43 10 48 38 54 49 10 140 62 177 100 l34 35
-24 20 c-32 26 -87 24 -144 -6 -26 -14 -51 -24 -56 -21 -4 3 -11 52 -14 108
-4 57 -9 113 -13 125 -5 18 -1 23 22 29 70 17 174 89 174 120 0 16 -39 44 -60
44 -8 0 -73 -25 -145 -56z"/>
<path d="M2185 854 c-198 -32 -423 -77 -592 -120 -75 -19 -154 -34 -175 -34
-34 0 -38 -3 -38 -25 0 -36 27 -45 140 -45 78 0 136 8 259 35 198 43 319 62
496 74 78 6 153 14 167 20 40 15 52 44 34 79 -12 24 -24 30 -62 36 -60 8 -53
8 -229 -20z"/>
</g>
</svg>
