<?xml version="1.0" standalone="no"?>
<!DOCTYPE svg PUBLIC "-//W3C//DTD SVG 20010904//EN"
 "http://www.w3.org/TR/2001/REC-SVG-20010904/DTD/svg10.dtd">
<svg version="1.0" xmlns="http://www.w3.org/2000/svg"
 width="340.000000pt" height="340.000000pt" viewBox="0 0 340.000000 340.000000"
 preserveAspectRatio="xMidYMid meet">
<metadata>
Created by potrace 1.15, written by Peter Selinger 2001-2017
</metadata>
<g transform="translate(0.000000,340.000000) scale(0.100000,-0.100000)"
fill="#000000" stroke="none">
<path d="M1098 2439 c-39 -15 -44 -40 -14 -62 56 -40 57 -38 -379 -598 -113
-145 -205 -271 -205 -281 0 -42 45 -8 211 160 245 247 414 444 528 614 57 86
63 117 26 153 -20 21 -33 25 -82 24 -32 0 -70 -5 -85 -10z"/>
<path d="M1910 2421 c0 -38 13 -66 47 -102 l25 -27 -22 -42 c-78 -153 -254
-408 -409 -591 -73 -86 -87 -119 -50 -119 13 0 80 59 187 165 162 162 167 165
196 155 40 -14 83 -13 158 4 109 25 307 47 478 53 196 7 219 0 251 -73 19 -42
20 -54 9 -222 -27 -440 -131 -960 -235 -1181 l-35 -74 -58 55 c-53 51 -145
108 -173 108 -17 0 -3 -73 25 -129 26 -50 104 -129 154 -155 52 -27 99 -21
137 17 39 39 69 127 144 427 106 416 201 1022 181 1147 -16 98 -71 161 -165
188 -49 15 -67 15 -202 0 -181 -20 -368 -54 -542 -98 -72 -19 -131 -32 -131
-30 0 16 40 74 101 145 96 112 124 171 124 267 l0 73 -51 29 c-28 16 -71 32
-97 35 l-47 7 0 -32z"/>
<path d="M1320 2061 c-232 -98 -256 -112 -216 -127 19 -7 310 23 352 37 40 12
72 47 80 86 5 25 2 33 -14 42 -38 20 -86 11 -202 -38z"/>
<path d="M1320 1706 c-36 -13 -126 -48 -200 -79 -266 -109 -255 -102 -225
-127 9 -7 37 -11 76 -8 57 3 63 1 82 -25 19 -24 21 -42 22 -138 l0 -110 -145
-68 c-80 -37 -181 -83 -225 -101 -44 -19 -84 -38 -90 -42 -14 -13 14 -28 51
-28 55 0 221 47 310 89 48 23 89 41 92 41 17 0 -39 -390 -78 -545 -30 -118
-30 -120 -12 -145 21 -28 42 -35 78 -26 29 8 20 -2 208 236 116 146 150 196
162 238 9 29 14 57 12 63 -2 6 -37 -12 -79 -39 -70 -48 -145 -118 -197 -187
l-23 -30 4 65 c6 82 36 344 45 389 6 29 14 36 47 46 51 15 121 50 164 83 l34
25 -23 19 c-29 23 -64 23 -119 -2 -45 -21 -77 -25 -84 -12 -3 4 -10 48 -16 99
-6 50 -14 105 -17 121 -6 29 -4 30 52 47 56 16 185 75 212 97 19 16 14 45 -10
62 -28 20 -30 20 -108 -8z"/>
<path d="M1901 1636 c-12 -14 -11 -25 4 -70 l18 -53 -75 -154 c-42 -85 -112
-212 -157 -283 -45 -71 -81 -138 -81 -150 0 -36 36 -84 68 -91 33 -7 86 10
230 74 89 40 219 82 295 96 32 6 37 4 51 -24 30 -57 93 -76 125 -37 28 33 -48
209 -126 296 -50 56 -159 134 -174 124 -18 -11 -8 -62 19 -96 32 -41 88 -155
80 -163 -3 -4 -50 -15 -104 -26 -55 -11 -143 -35 -196 -54 -54 -18 -98 -31
-98 -29 0 12 48 98 106 191 35 56 89 153 120 215 62 126 67 170 22 214 -31 31
-108 43 -127 20z"/>
</g>
</svg>
