<?xml version="1.0" standalone="no"?>
<!DOCTYPE svg PUBLIC "-//W3C//DTD SVG 20010904//EN"
 "http://www.w3.org/TR/2001/REC-SVG-20010904/DTD/svg10.dtd">
<svg version="1.0" xmlns="http://www.w3.org/2000/svg"
 width="340.000000pt" height="340.000000pt" viewBox="0 0 340.000000 340.000000"
 preserveAspectRatio="xMidYMid meet">
<metadata>
Created by potrace 1.15, written by Peter Selinger 2001-2017
</metadata>
<g transform="translate(0.000000,340.000000) scale(0.100000,-0.100000)"
fill="#000000" stroke="none">
<path d="M1086 2454 c-18 -17 -21 -47 -7 -72 16 -30 -190 -359 -406 -647 -62
-82 -113 -157 -113 -166 0 -9 8 -20 17 -23 53 -21 535 556 604 723 46 111 48
134 11 171 -34 34 -80 40 -106 14z"/>
<path d="M2385 2324 c-176 -28 -354 -64 -518 -105 -152 -37 -180 -37 -224 1
-73 64 -74 32 -9 -242 30 -128 60 -262 66 -298 6 -36 16 -90 22 -120 5 -30 27
-92 49 -137 l39 -82 42 24 c39 21 162 45 235 45 l23 0 2 -607 c3 -600 3 -608
23 -608 17 0 23 12 37 85 37 181 51 371 45 626 -3 132 -3 306 0 387 l6 147 36
10 c54 16 211 25 211 13 0 -21 29 -21 56 0 58 45 292 583 302 693 8 90 -44
150 -153 179 -76 19 -108 18 -290 -11z m229 -114 c36 -12 66 -25 66 -29 0 -17
-41 -208 -61 -286 -12 -44 -46 -134 -76 -201 l-54 -121 -136 -7 c-75 -4 -137
-5 -138 -4 -2 2 0 69 3 149 l5 147 41 12 c42 12 106 54 106 69 0 13 -86 34
-118 29 l-29 -4 -10 115 c-6 64 -9 117 -8 119 6 7 214 30 276 31 42 1 92 -7
133 -19z m-547 -70 c8 -15 13 -64 13 -121 l0 -96 -57 -13 c-32 -7 -80 -19
-106 -27 -40 -12 -46 -17 -37 -28 21 -26 77 -35 137 -23 81 16 84 10 81 -172
l-3 -145 -114 -33 c-63 -18 -118 -29 -121 -25 -4 5 -23 85 -43 178 -20 94 -56
244 -80 333 -28 105 -40 165 -33 167 25 7 283 32 316 31 26 -1 38 -7 47 -26z"/>
<path d="M1193 2018 c-190 -80 -219 -99 -172 -116 27 -10 187 13 270 39 82 25
183 81 187 102 5 23 -34 57 -65 57 -16 0 -115 -37 -220 -82z"/>
<path d="M1195 1686 c-153 -63 -265 -125 -265 -146 0 -32 35 -44 87 -29 41 11
46 10 66 -10 20 -19 22 -32 22 -124 0 -145 0 -145 -97 -197 -46 -24 -121 -65
-167 -92 -46 -26 -92 -48 -103 -48 -28 0 -34 -29 -10 -52 20 -20 21 -20 91 -3
65 16 164 59 234 103 51 31 52 17 26 -273 -5 -60 -17 -157 -25 -214 -12 -83
-13 -110 -3 -133 20 -49 76 -63 125 -31 43 28 245 337 328 500 25 51 26 83 1
83 -18 0 -155 -147 -244 -263 -41 -54 -77 -94 -79 -89 -2 6 4 104 12 218 9
114 16 222 16 240 0 29 5 36 43 55 69 35 128 103 112 129 -8 13 -86 13 -119 0
l-26 -10 0 79 c0 43 -6 99 -14 125 -13 43 -13 48 2 53 89 31 122 56 143 105
11 27 10 32 -6 44 -28 21 -62 16 -150 -20z"/>
</g>
</svg>
