<?xml version="1.0" standalone="no"?>
<!DOCTYPE svg PUBLIC "-//W3C//DTD SVG 20010904//EN"
 "http://www.w3.org/TR/2001/REC-SVG-20010904/DTD/svg10.dtd">
<svg version="1.0" xmlns="http://www.w3.org/2000/svg"
 width="340.000000pt" height="340.000000pt" viewBox="0 0 340.000000 340.000000"
 preserveAspectRatio="xMidYMid meet">
<metadata>
Created by potrace 1.15, written by Peter Selinger 2001-2017
</metadata>
<g transform="translate(0.000000,340.000000) scale(0.100000,-0.100000)"
fill="#000000" stroke="none">
<path d="M1915 2442 c-64 -14 -59 -52 14 -101 50 -34 59 -45 64 -78 14 -80 3
-320 -19 -439 -6 -32 -6 -32 -150 -68 -79 -20 -148 -36 -154 -36 -6 0 -10 31
-10 78 0 110 -9 149 -40 182 -52 56 -122 33 -101 -32 21 -68 24 -135 7 -218
-19 -93 -16 -109 25 -145 40 -33 77 -32 154 4 145 69 371 135 581 171 168 29
185 28 208 -15 11 -19 22 -35 25 -35 3 0 20 9 38 20 38 23 52 48 88 163 35
113 33 210 -8 279 -34 59 -49 70 -102 75 -41 5 -44 4 -50 -20 -5 -18 2 -43 21
-83 33 -67 36 -146 9 -212 -19 -47 -18 -46 -145 -62 -47 -6 -130 -20 -185 -31
-55 -10 -101 -19 -103 -19 -7 0 12 165 30 255 13 65 19 121 15 161 -5 73 -45
166 -79 187 -25 16 -101 27 -133 19z"/>
<path d="M945 2304 c-10 -11 -13 -22 -8 -33 4 -9 8 -43 8 -77 0 -69 18 -36
-196 -356 -156 -232 -233 -363 -224 -378 21 -34 54 -2 244 236 79 98 149 179
155 179 6 0 37 -4 69 -9 48 -7 77 -4 170 19 118 28 148 46 166 97 10 28 8 30
-24 44 -71 29 -138 14 -213 -49 -43 -37 -100 -61 -128 -55 -12 2 -8 13 21 51
42 55 99 172 117 240 13 49 13 49 -20 78 -25 23 -42 29 -76 29 -28 0 -51 -6
-61 -16z"/>
<path d="M1104 1617 c-161 -69 -354 -177 -354 -197 0 -30 97 -33 121 -4 34 41
58 -9 65 -136 4 -59 1 -92 -8 -109 -9 -16 -64 -50 -166 -102 -83 -42 -158 -79
-164 -81 -10 -4 -10 -10 -1 -31 18 -39 46 -35 191 24 68 28 127 48 130 44 11
-11 -39 -469 -59 -546 -11 -41 -23 -113 -26 -161 l-6 -86 41 -13 c59 -17 76
-2 159 138 156 261 230 443 179 443 -18 0 -143 -146 -180 -210 -30 -54 -31
-54 -34 -25 -7 54 36 462 54 517 3 10 12 18 19 18 38 0 129 46 172 86 l48 44
-24 20 c-32 28 -85 25 -138 -6 -24 -14 -49 -24 -56 -21 -8 2 -12 28 -13 73 0
47 -7 84 -21 116 -22 48 -21 58 7 58 33 0 136 60 180 105 37 37 43 48 34 63
-18 28 -44 24 -150 -21z"/>
<path d="M2105 1486 c-93 -25 -228 -65 -300 -91 -71 -26 -146 -50 -165 -54
-26 -5 -36 -12 -38 -29 -3 -21 0 -22 66 -22 86 0 205 22 303 56 41 14 107 32
147 40 76 14 172 19 172 8 0 -4 -30 -68 -67 -143 -37 -75 -67 -137 -68 -138 0
-1 -43 -9 -95 -17 -116 -19 -161 -33 -313 -94 -135 -53 -123 -32 -96 -175 10
-59 10 -81 -6 -166 -32 -174 -7 -280 89 -375 47 -48 50 -48 241 -67 220 -21
662 9 745 51 54 28 97 82 116 147 18 61 23 226 10 301 -7 36 -11 42 -32 42
-37 0 -56 -40 -64 -138 -9 -102 -33 -162 -88 -215 -32 -31 -50 -39 -113 -51
-138 -26 -311 -39 -464 -34 -159 6 -206 17 -253 61 -52 49 -55 65 -56 310 -1
220 0 228 19 232 128 28 217 50 305 77 99 30 109 36 166 93 60 60 148 201 173
278 16 48 1 97 -40 132 -43 36 -92 33 -294 -19z"/>
</g>
</svg>
