<?xml version="1.0" standalone="no"?>
<!DOCTYPE svg PUBLIC "-//W3C//DTD SVG 20010904//EN"
 "http://www.w3.org/TR/2001/REC-SVG-20010904/DTD/svg10.dtd">
<svg version="1.0" xmlns="http://www.w3.org/2000/svg"
 width="340.000000pt" height="340.000000pt" viewBox="0 0 340.000000 340.000000"
 preserveAspectRatio="xMidYMid meet">
<metadata>
Created by potrace 1.15, written by Peter Selinger 2001-2017
</metadata>
<g transform="translate(0.000000,340.000000) scale(0.100000,-0.100000)"
fill="#000000" stroke="none">
<path d="M1773 2529 c-21 -21 -15 -46 18 -83 l30 -35 -159 -233 c-88 -128
-172 -252 -187 -275 -32 -50 -28 -76 12 -71 21 2 59 38 162 155 l134 153 86
-6 c61 -4 105 -2 151 9 36 9 68 12 72 9 4 -4 -19 -43 -52 -87 -66 -87 -131
-205 -151 -273 -8 -29 -21 -48 -38 -57 -42 -21 -190 -63 -277 -78 -94 -16
-105 -21 -97 -45 17 -50 59 -53 203 -12 136 38 137 38 149 -7 19 -73 24 -168
10 -180 -8 -6 -115 -41 -239 -78 -124 -36 -226 -68 -228 -69 -2 -2 4 -11 13
-20 24 -24 78 -20 226 18 74 19 159 37 191 41 l56 7 7 -73 c3 -41 5 -101 3
-134 l-3 -60 -175 -43 c-96 -23 -185 -45 -197 -47 -32 -7 -30 -43 3 -55 18 -7
69 -4 176 10 83 11 163 20 179 20 l29 0 0 -132 c0 -129 -13 -339 -26 -425 -5
-36 -10 -43 -34 -48 -16 -4 -43 0 -65 9 -46 20 -69 20 -84 2 -33 -40 56 -152
147 -186 l57 -22 45 50 c25 27 51 67 58 89 8 28 12 142 12 372 0 238 3 331 11
331 55 0 393 62 437 80 27 12 29 43 2 70 -14 14 -33 20 -65 20 -37 0 -45 3
-45 19 0 10 6 24 13 30 8 6 35 57 61 114 l47 103 195 13 c107 6 205 16 218 21
27 10 41 52 26 80 -15 27 -59 32 -190 21 -63 -6 -136 -11 -161 -11 l-46 0 20
42 c30 61 34 135 9 184 -35 68 -37 69 -211 69 -126 -1 -173 -5 -244 -23 -49
-12 -93 -22 -99 -22 -6 0 20 32 57 71 72 77 177 215 244 321 46 74 46 87 -5
127 -43 34 -85 27 -208 -33 -107 -53 -212 -93 -221 -85 -2 3 21 42 51 88 70
108 83 150 61 196 -9 19 -30 41 -46 50 -44 22 -113 30 -128 14z m580 -820 c44
-12 46 -21 16 -130 l-21 -76 -111 -18 c-62 -9 -141 -23 -177 -30 -36 -7 -67
-12 -69 -9 -9 9 -31 208 -23 215 12 11 104 38 162 48 78 12 178 13 223 0z
m-55 -343 c2 -10 -10 -46 -28 -80 -18 -37 -33 -85 -37 -118 l-6 -55 -86 -12
c-47 -6 -101 -14 -118 -17 l-33 -6 0 135 0 134 83 17 c115 22 126 24 177 22
35 -1 46 -5 48 -20z"/>
<path d="M1038 2488 c-32 -11 -42 -32 -28 -59 13 -23 4 -81 -20 -129 -24 -50
-209 -349 -371 -601 -133 -206 -154 -249 -127 -249 19 0 137 128 260 281 l109
136 87 7 c97 8 270 41 319 61 32 14 123 91 123 105 0 5 -20 16 -45 25 -58 23
-106 15 -198 -32 -100 -50 -229 -104 -235 -99 -6 7 29 64 110 177 74 105 120
196 136 272 9 46 8 51 -17 77 -30 32 -65 42 -103 28z"/>
<path d="M1055 1601 c-233 -94 -245 -99 -245 -116 0 -25 36 -37 78 -25 31 8
39 7 49 -6 19 -27 33 -109 33 -203 l0 -88 -86 -43 c-48 -23 -132 -60 -188 -81
-103 -38 -124 -54 -113 -83 11 -29 83 -19 236 33 l144 49 -7 -87 c-11 -138
-47 -404 -57 -423 -5 -9 -9 -37 -9 -62 0 -33 6 -52 26 -75 14 -17 32 -31 40
-31 47 0 262 277 329 423 33 72 52 137 40 137 -3 0 -29 -15 -58 -33 -59 -38
-110 -91 -182 -190 -27 -37 -51 -63 -53 -57 -6 17 17 258 33 350 8 46 22 91
30 100 9 10 37 23 63 30 58 14 135 87 130 122 -5 40 -90 35 -169 -9 -3 -2 -9
30 -12 71 -4 41 -16 98 -26 127 -11 29 -18 55 -16 59 3 4 22 10 43 13 44 8
143 56 186 91 29 24 29 25 12 50 -25 39 -61 33 -251 -43z"/>
</g>
</svg>
