<?xml version="1.0" standalone="no"?>
<!DOCTYPE svg PUBLIC "-//W3C//DTD SVG 20010904//EN"
 "http://www.w3.org/TR/2001/REC-SVG-20010904/DTD/svg10.dtd">
<svg version="1.0" xmlns="http://www.w3.org/2000/svg"
 width="340.000000pt" height="340.000000pt" viewBox="0 0 340.000000 340.000000"
 preserveAspectRatio="xMidYMid meet">
<metadata>
Created by potrace 1.15, written by Peter Selinger 2001-2017
</metadata>
<g transform="translate(0.000000,340.000000) scale(0.100000,-0.100000)"
fill="#000000" stroke="none">
<path d="M1950 2435 c0 -21 35 -67 61 -80 17 -9 51 -32 75 -50 48 -37 142 -72
167 -62 9 3 19 22 23 42 12 65 -41 110 -168 140 -62 14 -158 20 -158 10z"/>
<path d="M1130 2300 c-21 -21 -26 -65 -11 -89 7 -10 1 -29 -17 -60 -84 -148
-274 -459 -365 -600 -59 -90 -107 -170 -107 -177 0 -31 33 -9 115 79 48 50
132 148 187 217 147 185 135 172 156 161 14 -7 41 -5 98 9 43 10 108 23 144
30 106 18 156 38 190 76 45 51 40 71 -17 80 -54 8 -122 -7 -162 -35 -43 -31
-233 -123 -239 -116 -9 8 25 68 87 155 90 124 99 182 39 254 -34 41 -67 47
-98 16z"/>
<path d="M2368 2240 c-171 -40 -312 -78 -503 -136 -60 -19 -121 -34 -135 -34
-28 0 -50 -16 -50 -37 0 -36 295 -3 472 53 137 42 222 46 158 6 -24 -15 -26
-44 -4 -81 16 -27 15 -29 -31 -100 -39 -60 -135 -249 -135 -265 0 -2 11 -7 25
-10 37 -9 74 14 149 95 80 87 124 171 132 257 8 69 -1 87 -61 123 l-30 19 35
0 c54 0 155 27 213 56 63 32 59 28 51 48 -9 22 -56 46 -91 45 -15 0 -103 -18
-195 -39z"/>
<path d="M1882 1943 c-4 -10 -7 -52 -7 -93 0 -61 5 -85 26 -125 22 -44 29 -50
61 -53 49 -4 72 20 64 67 -13 85 -38 143 -77 182 -43 43 -56 47 -67 22z"/>
<path d="M1249 1607 c-141 -65 -289 -145 -289 -156 0 -22 33 -33 82 -29 67 7
92 -15 102 -90 10 -73 -1 -118 -38 -156 -34 -36 -181 -129 -281 -178 -36 -18
-65 -36 -65 -39 0 -4 7 -15 16 -24 20 -20 28 -18 193 61 74 35 138 64 143 64
18 0 -19 -393 -43 -453 -11 -26 -19 -61 -19 -77 0 -36 43 -87 81 -95 23 -6 32
1 71 47 94 111 168 245 168 302 0 65 -44 60 -115 -11 l-48 -48 7 160 c9 234 7
227 93 270 72 36 141 103 128 125 -11 17 -103 11 -144 -10 l-38 -19 -7 55 c-3
30 -15 77 -26 106 -20 52 -19 68 4 68 23 0 150 69 184 100 34 32 39 49 20 68
-22 22 -62 13 -179 -41z"/>
<path d="M2433 1606 c-106 -19 -284 -54 -395 -78 -145 -31 -226 -43 -284 -43
-89 0 -114 -11 -114 -53 0 -14 12 -41 27 -60 l27 -35 -12 -146 c-19 -229 -61
-389 -150 -566 -56 -112 -112 -200 -187 -290 -57 -70 -72 -96 -82 -148 l-6
-29 43 22 c236 120 524 742 524 1131 l0 97 120 21 c178 30 331 49 511 61 88 6
179 13 202 16 75 9 114 61 81 107 -22 30 -100 28 -305 -7z"/>
</g>
</svg>
