<?xml version="1.0" standalone="no"?>
<!DOCTYPE svg PUBLIC "-//W3C//DTD SVG 20010904//EN"
 "http://www.w3.org/TR/2001/REC-SVG-20010904/DTD/svg10.dtd">
<svg version="1.0" xmlns="http://www.w3.org/2000/svg"
 width="340.000000pt" height="340.000000pt" viewBox="0 0 340.000000 340.000000"
 preserveAspectRatio="xMidYMid meet">
<metadata>
Created by potrace 1.15, written by Peter Selinger 2001-2017
</metadata>
<g transform="translate(0.000000,340.000000) scale(0.100000,-0.100000)"
fill="#000000" stroke="none">
<path d="M2041 2399 c-19 -7 -22 -15 -19 -38 4 -29 1 -31 -91 -72 -102 -44
-345 -165 -398 -198 -22 -14 -31 -26 -27 -36 11 -29 52 -28 159 5 58 18 111
30 118 27 32 -12 53 -203 25 -211 -138 -39 -521 -173 -525 -183 -9 -23 18 -43
59 -43 21 0 125 25 231 55 105 30 197 55 205 55 23 0 -4 -37 -153 -210 -184
-214 -334 -402 -335 -417 0 -19 30 -16 66 6 42 26 300 267 397 371 l77 83 0
-156 c0 -107 4 -164 12 -177 8 -13 9 -23 3 -28 -24 -22 -244 -106 -288 -110
-56 -5 -61 -11 -41 -40 12 -18 25 -22 67 -22 29 1 69 7 90 14 26 10 37 10 37
2 0 -33 -64 -138 -169 -276 -160 -211 -241 -327 -241 -345 0 -10 10 -15 28
-15 22 0 52 25 153 127 119 122 298 335 348 416 17 28 23 52 22 90 l0 53 47
18 c26 10 84 20 129 23 l82 6 -65 -129 c-35 -71 -64 -142 -64 -158 0 -20 11
-38 38 -63 20 -19 52 -48 69 -65 36 -33 49 -78 40 -136 -7 -39 -70 -177 -119
-259 l-32 -52 -36 29 c-51 41 -88 53 -138 45 -46 -7 -46 -6 -22 -71 22 -57
130 -144 179 -144 67 0 178 92 202 168 6 21 28 71 49 112 88 174 71 317 -52
431 l-50 47 48 58 c61 75 95 150 101 225 l6 59 -39 17 c-62 26 -149 28 -219 5
-33 -11 -61 -19 -63 -17 -2 2 1 20 7 42 6 21 11 109 11 196 0 100 4 157 10
157 6 0 29 -17 53 -38 147 -134 498 -405 560 -432 105 -46 338 -67 371 -34 13
12 23 64 14 64 -2 0 -64 21 -138 45 -183 62 -351 145 -533 263 -84 55 -193
123 -244 153 -52 31 -94 62 -97 73 -10 39 9 53 85 60 137 14 369 87 369 116 0
16 -47 60 -64 60 -9 0 -35 -6 -58 -14 -41 -14 -289 -66 -312 -66 -7 0 -17 36
-24 83 -7 45 -15 97 -18 115 -5 27 -3 32 14 32 31 0 173 75 215 114 54 51 47
104 -18 132 -39 16 -69 17 -104 3z"/>
<path d="M967 2312 c-20 -22 -21 -35 -6 -76 11 -29 6 -39 -76 -176 -107 -178
-261 -413 -383 -584 -92 -129 -109 -166 -73 -166 29 0 309 318 398 451 23 35
27 36 96 42 87 8 272 52 307 74 37 23 60 55 60 85 0 23 -5 27 -40 33 -62 10
-114 -3 -181 -47 -82 -52 -169 -101 -169 -94 0 10 62 111 115 186 78 111 98
156 92 203 -7 54 -41 87 -87 87 -23 0 -43 -7 -53 -18z"/>
<path d="M990 1545 c-52 -25 -132 -59 -177 -76 -62 -24 -83 -36 -83 -50 0 -27
18 -34 85 -34 l60 0 3 -146 3 -146 -118 -55 c-65 -31 -135 -62 -156 -69 -46
-16 -48 -48 -4 -63 22 -8 50 -3 143 28 64 21 118 35 121 32 17 -16 -43 -431
-71 -498 -30 -70 -13 -198 28 -214 22 -8 96 30 133 68 18 18 49 65 71 103 21
39 55 96 74 127 36 58 94 216 83 226 -13 13 -97 -40 -123 -78 -15 -22 -47 -66
-71 -98 l-43 -57 5 100 c3 55 11 134 17 175 34 225 30 211 59 221 56 21 95 46
127 83 19 22 33 45 31 50 -2 6 -20 15 -41 20 -35 9 -78 3 -127 -18 -14 -6 -17
5 -23 76 -3 46 -9 99 -12 119 l-6 36 63 22 c94 34 158 77 152 102 -8 28 -51
59 -82 59 -14 0 -69 -20 -121 -45z"/>
</g>
</svg>
