<?xml version="1.0" standalone="no"?>
<!DOCTYPE svg PUBLIC "-//W3C//DTD SVG 20010904//EN"
 "http://www.w3.org/TR/2001/REC-SVG-20010904/DTD/svg10.dtd">
<svg version="1.0" xmlns="http://www.w3.org/2000/svg"
 width="340.000000pt" height="340.000000pt" viewBox="0 0 340.000000 340.000000"
 preserveAspectRatio="xMidYMid meet">
<metadata>
Created by potrace 1.15, written by Peter Selinger 2001-2017
</metadata>
<g transform="translate(0.000000,340.000000) scale(0.100000,-0.100000)"
fill="#000000" stroke="none">
<path d="M2082 2288 c-6 -7 -14 -28 -19 -46 -8 -31 -14 -35 -93 -62 -141 -47
-400 -176 -400 -199 0 -15 25 -31 51 -31 15 0 55 9 90 19 35 11 80 23 100 26
34 6 36 5 52 -32 22 -48 37 -139 37 -223 l0 -66 -254 -73 c-233 -68 -254 -76
-245 -93 5 -10 20 -20 33 -24 21 -5 193 28 389 75 42 10 79 15 81 12 9 -14 16
-290 9 -341 l-8 -55 -50 -13 c-27 -7 -76 -15 -107 -19 l-58 -6 0 59 c-1 104
-58 222 -107 223 -13 1 -33 -9 -44 -20 -23 -23 -23 -48 5 -146 8 -28 16 -75
17 -104 l3 -54 -49 -14 c-28 -7 -97 -23 -155 -35 -79 -16 -106 -25 -108 -38
-2 -12 8 -20 36 -29 38 -11 128 -5 260 18 30 5 32 3 32 -23 0 -33 33 -105 60
-129 19 -17 20 -17 41 29 11 27 22 73 24 104 l4 57 48 12 c26 7 74 15 106 19
l57 7 0 -166 0 -165 -67 -16 c-38 -8 -133 -27 -211 -42 -148 -28 -176 -42
-137 -70 28 -21 213 -15 378 12 l37 6 0 -131 c0 -123 -1 -131 -20 -131 -33 0
-405 -72 -413 -80 -15 -14 12 -48 47 -60 28 -9 62 -7 173 9 219 33 340 41 616
41 244 0 258 1 277 20 11 11 20 28 20 38 0 38 -24 53 -95 62 -87 11 -296 12
-390 1 -38 -5 -73 -5 -77 -2 -4 4 -10 63 -14 132 l-7 126 84 11 c46 7 174 17
284 23 203 11 238 18 252 55 3 9 0 26 -7 40 -13 23 -17 24 -129 24 -67 0 -165
-8 -232 -19 -63 -11 -147 -23 -186 -26 l-72 -7 -6 33 c-3 19 -5 94 -3 168 l3
135 30 8 c32 9 208 27 214 22 1 -1 -7 -32 -18 -67 -21 -62 -32 -190 -17 -204
3 -4 28 16 54 43 36 38 55 70 83 144 l36 95 242 10 c237 10 243 11 262 34 26
31 24 46 -8 71 -27 22 -33 22 -239 17 l-212 -5 20 57 c26 73 20 136 -18 198
-24 39 -36 49 -63 51 -58 6 -78 -36 -46 -99 14 -27 14 -37 -8 -125 -14 -53
-29 -100 -33 -104 -7 -7 -232 -40 -273 -40 -13 0 -14 124 -4 296 l6 112 76 15
c124 26 208 36 356 42 150 7 191 16 200 46 13 39 -3 56 -58 63 -72 9 -260 -9
-404 -39 -67 -14 -134 -25 -150 -25 l-28 0 0 103 c-1 87 -5 111 -28 167 -14
35 -25 64 -24 65 1 0 25 7 52 14 61 15 157 63 207 102 34 27 36 32 26 59 -17
49 -62 80 -118 80 -26 0 -52 -6 -58 -12z"/>
<path d="M920 2260 c-16 -16 -18 -25 -10 -45 15 -39 12 -82 -8 -124 -10 -21
-102 -152 -203 -292 -102 -140 -204 -281 -227 -314 -41 -60 -54 -105 -29 -105
18 0 205 196 347 365 69 81 151 178 183 214 66 76 97 147 97 226 0 46 -4 56
-26 74 -35 28 -97 28 -124 1z"/>
<path d="M1045 1858 c-217 -109 -236 -128 -126 -128 139 0 371 93 371 150 0
29 -30 60 -58 59 -15 0 -99 -36 -187 -81z"/>
<path d="M1135 1539 c-210 -85 -421 -173 -428 -179 -14 -12 23 -40 54 -40 16
0 49 6 75 12 44 12 47 11 65 -11 16 -20 19 -40 19 -145 l0 -121 -196 -98
c-119 -59 -194 -102 -191 -110 2 -7 15 -18 29 -25 22 -10 39 -8 113 13 49 14
121 41 162 60 l73 34 0 -65 c0 -94 -29 -417 -45 -502 -20 -102 -1 -142 67
-145 30 -2 38 5 96 83 77 102 193 288 227 362 24 52 58 168 52 175 -2 2 -28
-15 -58 -36 -41 -29 -75 -69 -132 -153 -42 -62 -88 -126 -102 -143 l-25 -30 4
45 c3 25 11 132 17 238 14 220 17 229 96 256 26 9 64 28 84 42 36 25 95 101
86 110 -10 10 -78 16 -110 10 -19 -4 -51 -18 -71 -31 -20 -14 -38 -25 -39 -25
-1 0 -2 35 -2 77 0 43 -4 102 -8 131 -8 45 -7 52 7 52 33 0 113 49 155 95 36
39 41 49 30 60 -25 23 -53 24 -104 4z"/>
</g>
</svg>
