<?xml version="1.0" standalone="no"?>
<!DOCTYPE svg PUBLIC "-//W3C//DTD SVG 20010904//EN"
 "http://www.w3.org/TR/2001/REC-SVG-20010904/DTD/svg10.dtd">
<svg version="1.0" xmlns="http://www.w3.org/2000/svg"
 width="340.000000pt" height="340.000000pt" viewBox="0 0 340.000000 340.000000"
 preserveAspectRatio="xMidYMid meet">
<metadata>
Created by potrace 1.15, written by Peter Selinger 2001-2017
</metadata>
<g transform="translate(0.000000,340.000000) scale(0.100000,-0.100000)"
fill="#000000" stroke="none">
<path d="M1012 2344 c-25 -17 -29 -51 -8 -79 12 -17 11 -26 -16 -80 -92 -181
-258 -457 -401 -663 -43 -62 -81 -127 -84 -145 l-6 -32 53 45 c68 57 200 208
248 283 20 32 55 81 77 110 39 50 42 51 86 48 59 -3 252 44 306 75 23 13 51
40 64 60 l22 37 -22 18 c-37 30 -89 24 -157 -18 -134 -82 -195 -116 -200 -110
-11 11 43 112 100 187 64 84 91 158 81 219 -4 28 -13 42 -31 50 -35 16 -86 14
-112 -5z"/>
<path d="M2185 2280 c-77 -17 -198 -47 -270 -67 -108 -31 -146 -38 -223 -38
-81 0 -96 -3 -108 -20 -18 -25 -18 -69 1 -105 12 -24 13 -50 4 -167 -26 -357
-78 -667 -166 -977 -26 -94 -56 -169 -109 -274 -78 -153 -177 -395 -172 -419
9 -46 127 125 236 343 92 184 190 459 222 621 14 72 -2 64 178 83 57 6 138 17
179 24 l75 14 -7 -57 c-4 -31 -11 -132 -14 -225 l-6 -169 -55 -19 c-30 -10
-80 -21 -110 -24 -53 -6 -56 -5 -78 25 -18 24 -30 31 -57 31 -19 0 -35 -3 -35
-7 0 -10 77 -275 121 -415 41 -131 59 -158 105 -158 11 0 29 9 39 20 12 14 31
20 59 20 23 0 68 5 101 10 33 5 122 14 197 18 156 11 188 23 188 72 0 16 -4
32 -10 35 -23 14 -8 58 37 113 57 70 90 141 105 223 11 62 11 63 -17 85 -68
54 -225 71 -333 35 -77 -26 -182 -38 -182 -21 0 7 11 67 25 134 14 67 31 162
38 211 l13 90 36 12 c82 27 257 46 444 47 162 2 195 5 218 19 30 20 33 43 10
76 -17 23 -18 23 -168 18 -93 -3 -212 -15 -311 -31 -88 -14 -175 -29 -193 -32
-32 -5 -32 -4 -25 23 15 56 7 195 -16 258 -11 32 -21 60 -21 61 0 1 26 5 58 8
66 8 155 32 194 52 24 13 25 16 15 43 -10 27 -8 35 23 77 56 78 79 148 80 237
l0 78 -42 19 c-58 26 -107 24 -273 -10z m167 -108 c5 -5 -16 -66 -49 -140
l-57 -132 -47 0 c-102 0 -341 -53 -469 -104 -13 -6 -14 5 -8 76 3 46 4 115 1
154 l-6 72 99 18 c204 36 460 72 493 69 19 -3 38 -8 43 -13z m-354 -424 c14
-18 40 -156 48 -255 l6 -82 -43 -11 c-24 -6 -102 -29 -174 -52 -141 -44 -203
-59 -209 -49 -3 3 6 58 19 121 13 63 29 151 35 195 7 44 17 85 22 90 5 6 68
20 141 31 73 12 135 22 138 23 4 0 11 -5 17 -11z m472 -965 c0 -9 -20 -50 -44
-92 -24 -42 -58 -104 -75 -138 -34 -68 -28 -65 -146 -83 -38 -6 -116 -22 -173
-36 -57 -15 -104 -25 -106 -23 -5 8 -88 275 -93 300 -6 31 -17 29 282 59 360
35 355 35 355 13z"/>
<path d="M988 1493 c-120 -58 -218 -112 -218 -118 0 -34 63 -46 127 -23 47 17
53 5 53 -122 l0 -105 -97 -49 c-151 -74 -316 -166 -338 -187 -17 -17 -18 -21
-5 -30 8 -5 29 -8 47 -5 32 5 226 80 337 130 l59 27 -6 -163 c-3 -90 -15 -216
-26 -281 -26 -147 -26 -139 4 -171 54 -59 113 -18 210 145 89 150 167 308 161
325 -11 28 -37 27 -68 -2 -16 -16 -60 -67 -96 -114 -36 -47 -70 -89 -75 -95
-10 -11 -2 355 9 393 4 13 14 22 25 22 33 0 92 29 126 62 32 31 60 84 50 94
-13 14 -124 6 -155 -10 -19 -10 -35 -16 -37 -14 -1 2 -8 42 -14 91 -7 48 -14
93 -17 101 -3 9 20 22 73 41 199 72 224 91 187 143 -31 45 -78 32 -316 -85z"/>
</g>
</svg>
