<?xml version="1.0" standalone="no"?>
<!DOCTYPE svg PUBLIC "-//W3C//DTD SVG 20010904//EN"
 "http://www.w3.org/TR/2001/REC-SVG-20010904/DTD/svg10.dtd">
<svg version="1.0" xmlns="http://www.w3.org/2000/svg"
 width="340.000000pt" height="340.000000pt" viewBox="0 0 340.000000 340.000000"
 preserveAspectRatio="xMidYMid meet">
<metadata>
Created by potrace 1.15, written by Peter Selinger 2001-2017
</metadata>
<g transform="translate(0.000000,340.000000) scale(0.100000,-0.100000)"
fill="#000000" stroke="none">
<path d="M2175 2471 c-20 -4 -31 -13 -33 -26 -2 -16 -32 -31 -142 -73 -76 -29
-209 -82 -294 -118 -124 -52 -156 -70 -156 -85 0 -33 81 -24 296 36 395 108
434 123 460 174 16 32 6 60 -30 82 -32 19 -49 21 -101 10z"/>
<path d="M942 2388 c-7 -7 -12 -33 -12 -59 0 -71 -22 -120 -113 -247 -209
-293 -412 -606 -402 -622 18 -28 49 -3 157 128 266 319 502 633 512 680 12 51
-2 91 -37 113 -36 21 -87 25 -105 7z"/>
<path d="M2354 2159 c-12 -13 -15 -28 -10 -52 6 -31 3 -36 -31 -59 -63 -42
-143 -119 -205 -196 -75 -95 -93 -129 -78 -147 10 -11 6 -15 -17 -20 -65 -13
-174 -46 -263 -78 -52 -19 -137 -45 -188 -58 -81 -21 -92 -26 -90 -44 4 -30
45 -30 190 0 69 14 140 25 157 25 31 0 31 0 31 -52 0 -74 -17 -127 -50 -157
-20 -19 -92 -46 -249 -96 -121 -38 -221 -75 -221 -80 0 -18 23 -35 46 -35 12
0 98 18 190 40 92 22 169 39 171 36 22 -22 -183 -354 -299 -481 -119 -132
-288 -353 -288 -377 0 -46 177 103 338 286 49 56 123 147 164 204 l76 102 78
-58 c64 -48 137 -109 217 -182 9 -8 -187 -179 -371 -324 -62 -49 -111 -94
-109 -100 8 -23 38 -16 129 30 119 59 247 147 357 245 l87 76 175 -154 c175
-155 236 -198 319 -226 52 -17 216 -47 260 -47 34 0 110 28 110 41 0 23 -101
81 -194 111 -171 55 -381 177 -595 344 -11 9 -6 20 28 64 76 97 141 252 141
338 0 50 -48 77 -136 77 -66 0 -76 -3 -125 -37 -30 -20 -84 -53 -121 -73 -80
-43 -86 -50 -57 -65 25 -14 60 -10 187 20 51 12 95 20 98 17 9 -8 -33 -106
-76 -178 l-42 -70 -31 25 c-109 88 -151 118 -213 152 -38 21 -70 38 -72 39 -2
2 120 243 133 262 0 1 44 14 95 28 120 32 242 53 399 70 92 9 130 18 150 32
27 20 40 68 23 85 -19 19 -304 -28 -494 -82 -56 -17 -106 -30 -110 -30 -4 0 0
19 9 43 8 23 15 75 16 115 0 61 3 72 18 72 73 0 379 110 379 136 0 21 -37 54
-60 54 -11 0 -37 -7 -57 -15 -45 -19 -173 -49 -179 -42 -3 3 10 15 28 28 18
13 101 74 185 135 155 115 184 147 185 205 1 37 -18 58 -76 80 -43 16 -46 16
-62 -2z"/>
<path d="M1810 2098 c0 -29 55 -146 82 -175 16 -17 33 -23 64 -23 24 0 45 4
48 9 3 5 -1 30 -9 57 -22 75 -80 129 -157 148 -24 6 -28 3 -28 -16z"/>
<path d="M1220 2062 c-27 -4 -309 -128 -325 -143 -6 -6 -3 -15 7 -25 14 -14
30 -15 124 -6 122 11 202 37 254 81 34 29 34 30 20 57 -17 30 -43 42 -80 36z"/>
<path d="M1442 1926 c5 -43 15 -59 102 -162 16 -19 41 -41 56 -49 40 -21 106
-30 114 -16 14 22 -24 121 -61 162 -39 43 -157 109 -194 109 -20 0 -21 -4 -17
-44z"/>
<path d="M1035 1636 c-71 -24 -170 -62 -220 -84 -77 -34 -90 -43 -90 -63 0
-23 4 -24 58 -24 47 0 62 -4 73 -20 25 -34 34 -87 34 -200 l0 -110 -185 -95
c-102 -52 -185 -97 -185 -101 0 -4 7 -12 15 -19 28 -23 105 -5 233 52 l122 56
0 -91 c0 -134 -35 -481 -56 -549 -8 -27 39 -68 77 -68 38 0 65 27 149 152 63
94 150 264 150 291 0 21 -34 31 -60 17 -11 -6 -52 -51 -91 -101 -39 -49 -73
-88 -76 -86 -5 5 16 431 22 463 3 14 29 33 80 58 54 27 84 49 106 78 16 23 29
45 29 50 0 17 -120 8 -160 -12 -22 -11 -42 -20 -45 -20 -3 0 -5 19 -5 43 -1
37 -17 137 -36 219 -5 24 -3 28 22 33 110 24 239 99 227 132 -7 21 -32 43 -47
43 -6 0 -69 -20 -141 -44z"/>
</g>
</svg>
