<?xml version="1.0" standalone="no"?>
<!DOCTYPE svg PUBLIC "-//W3C//DTD SVG 20010904//EN"
 "http://www.w3.org/TR/2001/REC-SVG-20010904/DTD/svg10.dtd">
<svg version="1.0" xmlns="http://www.w3.org/2000/svg"
 width="340.000000pt" height="340.000000pt" viewBox="0 0 340.000000 340.000000"
 preserveAspectRatio="xMidYMid meet">
<metadata>
Created by potrace 1.15, written by Peter Selinger 2001-2017
</metadata>
<g transform="translate(0.000000,340.000000) scale(0.100000,-0.100000)"
fill="#000000" stroke="none">
<path d="M1870 2380 c-12 -9 -9 -15 20 -40 72 -61 258 -135 291 -114 13 7 11
81 -2 106 -21 38 -85 58 -194 58 -55 0 -107 -5 -115 -10z"/>
<path d="M1016 2318 c-20 -28 -20 -41 0 -79 15 -31 15 -31 -71 -175 -102 -171
-255 -404 -364 -554 -92 -126 -103 -150 -69 -150 28 0 185 161 315 325 l88
110 60 -3 c45 -3 87 4 170 28 125 36 200 73 265 129 45 39 45 39 26 60 -35 38
-71 28 -280 -80 -108 -55 -196 -98 -196 -94 0 18 45 87 90 140 70 82 102 146
107 220 6 77 -7 112 -52 130 -48 21 -71 19 -89 -7z"/>
<path d="M2215 2205 c-171 -38 -360 -85 -455 -115 -36 -11 -80 -20 -97 -20
-31 0 -73 -28 -73 -49 0 -35 157 -28 323 14 76 19 172 41 213 49 l75 14 -6
-28 c-3 -16 -1 -46 5 -69 10 -38 8 -44 -39 -133 -27 -51 -59 -121 -72 -154
l-23 -62 -110 -22 c-61 -13 -158 -38 -216 -56 -58 -19 -108 -34 -111 -34 -4 0
-10 16 -13 35 -6 32 -49 76 -61 63 -3 -3 -12 -31 -20 -62 -8 -31 -35 -96 -60
-144 -45 -86 -74 -193 -62 -226 8 -20 49 -21 86 -1 35 18 52 53 87 181 l27
102 151 31 c409 84 828 133 876 101 10 -7 12 -12 4 -17 -6 -5 -16 -18 -23 -30
-29 -55 78 -84 180 -48 60 22 109 56 109 78 0 44 -60 116 -113 136 -59 23
-292 6 -507 -35 -41 -8 -76 -14 -78 -14 -7 0 30 61 71 117 92 124 95 209 12
262 -54 34 -44 51 30 51 63 0 143 23 179 51 33 26 33 35 -4 54 -43 22 -118 17
-285 -20z"/>
<path d="M1842 1923 c-32 -85 -19 -156 40 -215 21 -21 44 -38 52 -38 20 0 56
48 56 74 0 35 -65 161 -95 184 -36 28 -40 28 -53 -5z"/>
<path d="M1261 1649 c-108 -37 -391 -191 -391 -211 0 -4 11 -15 24 -23 20 -14
31 -14 67 -5 37 10 44 9 61 -7 40 -40 39 -165 -2 -222 -21 -30 -154 -124 -253
-180 -66 -38 -73 -64 -19 -69 22 -2 50 6 85 26 49 27 145 68 176 74 11 2 14
-9 12 -52 -4 -89 -39 -348 -66 -490 -24 -121 -25 -134 -10 -156 29 -45 88 -39
133 15 23 27 138 271 167 353 30 84 28 111 -7 106 -20 -3 -55 -42 -131 -148
-17 -24 -17 -23 -12 75 7 109 29 275 45 334 8 30 18 42 50 56 22 10 61 41 87
68 44 48 46 50 27 64 -20 15 -103 14 -136 -1 -16 -7 -18 -2 -18 48 0 31 -8 78
-19 105 l-18 49 58 22 c64 23 176 94 193 123 8 12 8 22 0 34 -18 28 -47 32
-103 12z"/>
<path d="M1897 1453 c-17 -16 -5 -44 26 -59 17 -9 46 -28 64 -41 39 -30 113
-59 174 -68 43 -6 47 -5 52 17 8 30 -7 85 -29 109 -10 11 -40 26 -67 34 -51
15 -208 21 -220 8z"/>
<path d="M2425 1270 c-231 -54 -433 -110 -637 -176 -93 -31 -190 -57 -215 -58
-48 -3 -79 -25 -70 -50 5 -13 22 -16 82 -16 95 0 182 18 358 74 75 24 137 40
137 36 0 -21 -44 -107 -90 -175 -88 -131 -203 -265 -344 -403 -114 -112 -136
-138 -136 -163 0 -28 2 -29 23 -18 160 85 380 283 527 474 29 39 57 74 60 78
6 7 154 -37 243 -72 l27 -11 -25 -67 c-35 -93 -96 -202 -163 -296 l-56 -79
-17 39 c-21 48 -56 81 -96 89 -28 5 -31 3 -37 -26 -14 -74 -7 -135 25 -198 29
-60 32 -62 68 -62 83 0 154 43 198 118 15 26 47 74 71 107 83 113 130 225 151
364 9 58 8 66 -10 90 -11 14 -39 38 -61 54 -34 22 -52 27 -102 27 -34 0 -77
-4 -95 -10 -55 -16 -63 0 -35 68 13 31 24 66 24 77 0 11 4 25 8 32 17 27 279
73 415 73 68 0 107 21 107 56 0 33 -34 52 -105 58 -48 4 -94 -2 -230 -34z"/>
</g>
</svg>
