<?xml version="1.0" standalone="no"?>
<!DOCTYPE svg PUBLIC "-//W3C//DTD SVG 20010904//EN"
 "http://www.w3.org/TR/2001/REC-SVG-20010904/DTD/svg10.dtd">
<svg version="1.0" xmlns="http://www.w3.org/2000/svg"
 width="340.000000pt" height="340.000000pt" viewBox="0 0 340.000000 340.000000"
 preserveAspectRatio="xMidYMid meet">
<metadata>
Created by potrace 1.15, written by Peter Selinger 2001-2017
</metadata>
<g transform="translate(0.000000,340.000000) scale(0.100000,-0.100000)"
fill="#000000" stroke="none">
<path d="M1840 2380 c-12 -9 -5 -20 45 -67 63 -60 134 -98 208 -112 52 -9 57
-4 57 56 0 47 -42 85 -117 106 -79 22 -174 31 -193 17z"/>
<path d="M972 2297 c-19 -25 -21 -49 -9 -86 l13 -38 -93 -149 c-52 -82 -152
-236 -224 -343 -71 -106 -129 -202 -129 -212 0 -13 7 -19 25 -19 18 0 46 24
111 98 48 53 113 132 146 174 32 43 66 82 76 87 10 5 44 10 77 10 69 0 228 38
297 71 54 25 67 50 43 86 -15 23 -21 25 -58 19 -63 -10 -185 -53 -246 -86 -30
-16 -57 -27 -59 -24 -7 6 35 68 101 148 86 105 97 169 39 234 -29 34 -93 51
-110 30z"/>
<path d="M2300 2189 c-99 -22 -734 -158 -767 -165 -13 -2 -23 -10 -23 -17 0
-30 25 -37 135 -37 l112 0 0 -57 c0 -32 10 -89 22 -127 11 -37 21 -89 21 -115
l0 -46 -80 -24 c-44 -13 -80 -28 -80 -33 0 -18 72 -40 108 -33 46 9 68 -13 83
-84 6 -31 18 -68 25 -84 12 -22 12 -28 2 -31 -7 -3 -29 -9 -48 -15 -19 -5 -68
-19 -107 -31 -76 -22 -87 -34 -55 -63 27 -25 67 -21 282 27 107 24 198 41 203
39 4 -2 7 -92 7 -199 0 -214 3 -228 63 -291 46 -48 113 -68 237 -68 237 0 340
62 340 208 0 53 -15 77 -48 77 -35 0 -46 -8 -67 -50 -27 -55 -55 -79 -109 -95
-98 -29 -190 -15 -254 41 -30 27 -35 36 -26 50 11 19 16 22 86 54 54 25 138
97 180 154 27 38 27 40 12 65 -20 31 -43 51 -60 51 -7 0 -43 -27 -80 -59 -36
-33 -85 -73 -109 -90 l-43 -31 -11 43 c-6 24 -13 68 -17 98 l-6 55 65 18 c87
24 140 58 209 138 60 67 97 136 98 177 0 34 -38 109 -62 122 -47 25 -217 22
-290 -6 -14 -6 -17 6 -20 102 -3 94 -6 112 -26 141 -16 21 -32 32 -48 32 -31
0 -77 -47 -68 -69 4 -9 9 -61 11 -117 6 -118 3 -124 -85 -149 -31 -9 -64 -18
-73 -21 -13 -4 -17 8 -22 69 -7 91 -27 140 -79 194 l-41 42 42 11 c23 6 171
35 329 65 158 30 301 57 319 61 38 8 64 54 43 79 -17 21 -123 18 -230 -6z
m118 -535 c31 -6 28 -25 -21 -134 l-42 -95 -105 -11 c-58 -6 -108 -9 -111 -8
-7 4 58 225 69 236 4 4 34 11 67 16 56 8 87 7 143 -4z m-354 -156 l-3 -113
-53 -12 c-29 -6 -66 -12 -82 -12 -27 -1 -28 1 -22 32 4 17 11 65 16 106 6 41
12 76 14 78 6 6 97 31 117 32 14 1 15 -14 13 -111z"/>
<path d="M1481 1929 c-20 -8 -22 -14 -18 -47 27 -181 30 -248 18 -360 -48
-472 -143 -794 -336 -1142 -56 -101 -91 -200 -71 -200 18 0 93 71 131 125 47
66 91 157 165 340 123 310 204 629 246 973 19 154 14 206 -24 257 -27 38 -83
64 -111 54z"/>
<path d="M995 1531 c-214 -96 -237 -109 -233 -129 3 -13 13 -16 47 -14 73 6
114 -51 115 -160 1 -95 -11 -107 -179 -184 -196 -89 -209 -97 -213 -118 -5
-26 24 -46 65 -46 19 0 92 26 170 60 74 33 137 59 139 57 7 -7 -18 -296 -33
-372 -26 -136 -27 -173 -7 -197 11 -11 31 -27 47 -34 25 -14 30 -13 55 5 45
33 86 81 162 196 72 109 133 224 146 278 5 24 3 27 -17 27 -39 0 -72 -29 -154
-135 -42 -55 -86 -109 -97 -120 -20 -20 -20 -20 -14 40 3 33 11 125 17 205 6
80 16 150 21 157 5 7 29 21 53 33 57 28 143 119 124 131 -22 14 -86 10 -127
-6 -33 -15 -38 -14 -49 1 -6 9 -14 46 -18 82 -3 37 -12 84 -20 105 -12 34 -12
37 5 37 61 0 250 91 250 121 0 21 -42 49 -72 49 -19 -1 -100 -31 -183 -69z"/>
<path d="M1604 1176 c-19 -15 -18 -16 11 -68 l30 -53 -2 -177 -2 -177 45 -22
c40 -19 51 -20 84 -10 40 12 109 59 167 114 32 30 72 112 60 123 -12 12 -125
-18 -170 -46 -27 -17 -50 -30 -53 -30 -6 0 -5 60 2 114 6 40 10 47 33 52 92
18 156 40 196 65 39 25 45 33 45 64 0 28 -4 36 -25 41 -30 7 -146 -35 -207
-76 l-43 -29 -23 43 c-23 42 -82 86 -114 86 -8 0 -23 -6 -34 -14z"/>
<path d="M2531 643 c1 -35 16 -53 153 -193 137 -140 138 -141 179 -138 32 2
45 9 56 29 21 39 8 70 -61 141 -69 71 -123 106 -230 149 -81 34 -98 36 -97 12z"/>
<path d="M2214 573 c15 -115 95 -210 165 -199 59 9 65 24 35 83 -14 29 -41 66
-60 83 -31 27 -123 80 -140 80 -4 0 -4 -21 0 -47z"/>
<path d="M1532 498 c-39 -51 -74 -109 -80 -128 -14 -55 6 -92 59 -105 22 -5
28 -1 51 42 32 59 54 137 63 221 9 87 -8 82 -93 -30z"/>
<path d="M1853 575 c-16 -43 35 -182 83 -226 28 -25 82 -49 110 -49 22 0 18
94 -5 138 -29 56 -136 152 -169 152 -7 0 -15 -7 -19 -15z"/>
</g>
</svg>
