<?xml version="1.0" standalone="no"?>
<!DOCTYPE svg PUBLIC "-//W3C//DTD SVG 20010904//EN"
 "http://www.w3.org/TR/2001/REC-SVG-20010904/DTD/svg10.dtd">
<svg version="1.0" xmlns="http://www.w3.org/2000/svg"
 width="340.000000pt" height="340.000000pt" viewBox="0 0 340.000000 340.000000"
 preserveAspectRatio="xMidYMid meet">
<metadata>
Created by potrace 1.15, written by Peter Selinger 2001-2017
</metadata>
<g transform="translate(0.000000,340.000000) scale(0.100000,-0.100000)"
fill="#000000" stroke="none">
<path d="M1027 2383 c-22 -22 0 -46 106 -116 61 -41 139 -89 171 -107 l59 -33
19 22 c10 13 18 37 18 54 0 75 -195 186 -331 187 -20 0 -39 -3 -42 -7z"/>
<path d="M2160 2333 c-142 -24 -446 -94 -537 -124 -41 -13 -42 -33 -2 -49 39
-16 203 0 329 32 106 27 307 32 355 8 44 -22 66 -91 71 -220 34 -817 44 -1136
44 -1331 0 -223 -1 -233 -18 -212 -30 37 -93 73 -129 73 -34 0 -34 -1 -28 -32
15 -65 46 -121 101 -178 47 -49 63 -60 100 -66 32 -5 51 -2 69 10 44 29 49 70
31 312 -26 369 -37 667 -40 1107 -3 502 -10 557 -76 618 -21 19 -56 41 -78 47
-38 11 -139 14 -192 5z"/>
<path d="M881 1987 c-18 -18 -13 -90 9 -132 47 -91 52 -699 10 -1115 -41 -407
-40 -420 25 -420 19 0 35 3 35 8 0 4 7 43 15 87 17 90 69 1241 63 1390 -3 75
-8 97 -27 123 -33 48 -108 81 -130 59z"/>
<path d="M1660 1849 c-118 -33 -237 -62 -265 -65 -88 -9 -97 -13 -93 -36 4
-30 53 -41 151 -36 l77 5 19 -62 c11 -34 23 -94 26 -132 l7 -70 -33 -13 c-19
-7 -79 -27 -134 -45 -78 -26 -100 -38 -100 -52 0 -20 30 -21 186 -8 l76 7 7
-127 c4 -70 5 -129 3 -132 -5 -4 -202 -51 -309 -73 -32 -6 -58 -16 -58 -21 0
-5 9 -18 20 -29 27 -27 72 -26 251 4 162 28 274 37 499 39 179 2 210 12 210
68 0 36 -32 53 -137 70 -59 9 -81 8 -167 -10 -55 -12 -121 -21 -148 -21 l-48
0 0 108 c0 149 0 148 69 156 64 7 166 52 196 86 l20 22 -28 24 c-32 27 -63 30
-112 10 -19 -8 -55 -18 -81 -22 -57 -8 -64 0 -64 76 0 30 -6 80 -14 112 l-13
56 84 21 c90 23 223 78 223 93 0 21 -50 58 -77 57 -15 0 -125 -28 -243 -60z"/>
</g>
</svg>
