<?xml version="1.0" standalone="no"?>
<!DOCTYPE svg PUBLIC "-//W3C//DTD SVG 20010904//EN"
 "http://www.w3.org/TR/2001/REC-SVG-20010904/DTD/svg10.dtd">
<svg version="1.0" xmlns="http://www.w3.org/2000/svg"
 width="340.000000pt" height="340.000000pt" viewBox="0 0 340.000000 340.000000"
 preserveAspectRatio="xMidYMid meet">
<metadata>
Created by potrace 1.15, written by Peter Selinger 2001-2017
</metadata>
<g transform="translate(0.000000,340.000000) scale(0.100000,-0.100000)"
fill="#000000" stroke="none">
<path d="M1096 2461 c-10 -15 21 -69 47 -82 12 -7 52 -40 89 -74 37 -34 92
-75 122 -91 47 -24 58 -26 80 -16 65 29 38 109 -61 173 -96 63 -261 116 -277
90z"/>
<path d="M2145 2419 c-154 -20 -432 -74 -455 -89 -13 -9 -11 -13 9 -30 23 -20
33 -20 320 -14 405 10 391 18 410 -241 34 -463 51 -902 51 -1309 0 -181 -2
-331 -4 -333 -2 -3 -16 3 -30 12 -14 9 -45 23 -70 30 -42 13 -47 13 -56 -5
-17 -32 -11 -56 28 -106 93 -121 145 -153 217 -133 54 15 54 32 25 589 -16
311 -30 851 -30 1156 l0 280 -26 52 c-64 130 -171 168 -389 141z"/>
<path d="M1506 2082 c-26 -29 -19 -50 23 -71 34 -18 39 -25 50 -78 6 -32 15
-95 18 -140 l6 -81 -65 -20 c-35 -11 -101 -28 -145 -38 l-80 -17 -31 23 c-31
23 -52 20 -52 -7 0 -8 18 -72 40 -141 22 -70 53 -179 70 -242 20 -79 36 -120
50 -132 27 -22 46 -14 59 22 10 30 32 38 116 43 l40 2 6 -115 c4 -63 5 -117 3
-119 -7 -8 -311 -91 -334 -91 -58 0 -75 -42 -37 -94 14 -19 20 -19 100 -9 47
7 141 30 209 52 67 22 178 56 245 75 67 20 155 49 196 65 l75 29 18 -46 c19
-51 74 -116 116 -138 28 -15 29 -14 43 20 21 49 19 102 -6 153 -28 57 -152
184 -206 212 l-43 21 0 -28 c0 -16 14 -57 32 -91 17 -33 29 -63 26 -66 -3 -3
-58 -10 -121 -15 -64 -5 -136 -14 -159 -20 -24 -5 -46 -10 -50 -10 -9 0 -10
175 -2 206 5 17 16 23 57 27 28 4 83 22 123 41 66 31 78 42 126 110 29 42 79
122 111 178 49 87 57 108 52 137 -13 71 -56 102 -154 108 -50 4 -90 -2 -165
-21 -150 -40 -141 -45 -141 77 0 80 -4 109 -19 137 -28 53 -56 79 -95 89 -84
21 -88 21 -105 3z m514 -442 c0 -6 -9 -29 -21 -52 -11 -22 -37 -82 -56 -132
-19 -50 -38 -94 -41 -97 -4 -4 -49 -9 -99 -12 l-93 -6 1 107 c0 59 3 125 7
147 l7 40 60 6 c108 10 235 10 235 -1z m-420 -49 c11 -22 12 -181 2 -250 -7
-42 -9 -45 -57 -61 -108 -36 -99 -41 -112 56 -8 54 -25 114 -47 166 -20 45
-34 83 -33 85 4 3 158 20 204 22 23 1 35 -5 43 -18z"/>
<path d="M833 2054 c-19 -8 -16 -35 7 -59 28 -29 68 -206 82 -362 26 -289 -29
-1107 -83 -1237 -24 -58 -16 -90 28 -107 31 -12 39 -5 78 71 40 78 47 127 50
320 1 102 8 273 14 380 6 107 13 341 14 520 2 324 2 325 -22 373 -33 68 -122
121 -168 101z"/>
</g>
</svg>
