<?xml version="1.0" standalone="no"?>
<!DOCTYPE svg PUBLIC "-//W3C//DTD SVG 20010904//EN"
 "http://www.w3.org/TR/2001/REC-SVG-20010904/DTD/svg10.dtd">
<svg version="1.0" xmlns="http://www.w3.org/2000/svg"
 width="340.000000pt" height="340.000000pt" viewBox="0 0 340.000000 340.000000"
 preserveAspectRatio="xMidYMid meet">
<metadata>
Created by potrace 1.15, written by Peter Selinger 2001-2017
</metadata>
<g transform="translate(0.000000,340.000000) scale(0.100000,-0.100000)"
fill="#000000" stroke="none">
<path d="M2005 2335 c-222 -29 -420 -73 -420 -95 0 -8 12 -21 26 -29 24 -13
51 -13 210 -3 101 7 248 13 326 14 159 1 183 -6 208 -65 26 -64 84 -1673 62
-1731 -6 -14 -11 -13 -43 9 -20 14 -40 25 -45 25 -15 0 -39 -32 -39 -51 0 -32
46 -112 87 -150 81 -77 122 -87 164 -43 22 24 24 32 21 122 -1 53 -9 171 -17
262 -31 352 -38 504 -44 1041 l-6 556 -30 49 c-23 37 -44 55 -85 76 -78 39
-150 41 -375 13z"/>
<path d="M1013 2333 c-29 -10 -10 -42 47 -82 65 -45 201 -113 263 -129 32 -9
38 -8 47 8 32 60 -4 111 -107 150 -84 31 -227 62 -250 53z"/>
<path d="M1816 2023 c-9 -38 -26 -81 -37 -96 -74 -101 -119 -194 -119 -246 0
-17 -19 -26 -112 -55 -231 -71 -225 -70 -272 -52 -97 37 -103 16 -34 -121 30
-60 77 -159 104 -220 48 -111 50 -113 81 -113 18 0 33 -3 33 -6 0 -16 -117
-230 -170 -313 -62 -95 -70 -123 -37 -129 30 -6 94 44 157 124 87 109 128 200
164 365 6 28 41 49 81 49 35 0 40 -30 37 -209 -2 -138 -1 -158 18 -196 39 -80
137 -125 275 -127 88 -1 130 13 183 57 39 33 79 107 88 164 10 65 -30 151 -71
151 -15 0 -66 -100 -76 -151 l-11 -57 -55 -17 c-67 -21 -118 -16 -177 19 -49
29 -46 15 -65 266 l-8 105 28 33 c16 18 38 52 50 75 12 23 41 68 65 99 74 95
89 171 49 248 -19 36 -86 46 -165 26 -30 -8 -56 -13 -57 -12 -6 6 60 86 91
109 45 35 93 109 101 157 10 59 -11 117 -48 130 -64 22 -73 16 -91 -57z m10
-468 c4 -8 -3 -50 -15 -93 -12 -43 -21 -88 -21 -100 0 -16 -6 -22 -22 -22 -49
-1 -164 -31 -225 -60 -91 -42 -99 -37 -119 85 -3 22 -17 60 -30 84 -13 24 -22
46 -19 49 2 3 88 17 189 33 101 15 192 29 202 32 37 9 55 7 60 -8z"/>
<path d="M844 1955 c-4 -18 1 -43 14 -73 34 -75 47 -227 46 -552 0 -311 -11
-450 -59 -788 -31 -213 -25 -250 40 -220 20 9 27 25 45 102 34 154 49 282 60
516 6 124 17 333 25 465 21 345 20 399 -9 462 -18 38 -35 57 -68 76 -70 41
-86 43 -94 12z"/>
<path d="M1284 1935 c-11 -27 5 -62 56 -124 68 -81 108 -91 144 -36 15 23 15
28 -3 62 -23 46 -66 88 -104 102 -41 16 -87 14 -93 -4z"/>
</g>
</svg>
