<?xml version="1.0" standalone="no"?>
<!DOCTYPE svg PUBLIC "-//W3C//DTD SVG 20010904//EN"
 "http://www.w3.org/TR/2001/REC-SVG-20010904/DTD/svg10.dtd">
<svg version="1.0" xmlns="http://www.w3.org/2000/svg"
 width="340.000000pt" height="340.000000pt" viewBox="0 0 340.000000 340.000000"
 preserveAspectRatio="xMidYMid meet">
<metadata>
Created by potrace 1.15, written by Peter Selinger 2001-2017
</metadata>
<g transform="translate(0.000000,340.000000) scale(0.100000,-0.100000)"
fill="#000000" stroke="none">
<path d="M1057 2425 c-14 -34 -6 -46 71 -106 93 -74 132 -95 214 -114 70 -16
78 -12 78 41 0 48 -28 74 -141 132 -117 60 -210 80 -222 47z"/>
<path d="M2085 2374 c-71 -8 -197 -25 -280 -39 -82 -14 -165 -25 -182 -25 -33
0 -41 -12 -24 -38 13 -21 265 -27 486 -13 l187 13 46 -24 c37 -19 52 -35 74
-79 l27 -54 12 -436 c11 -430 9 -1252 -4 -1265 -3 -3 -21 10 -40 30 -58 61
-167 99 -167 58 0 -37 64 -146 118 -199 69 -70 132 -100 172 -83 62 26 62 25
50 398 -5 185 -10 542 -10 792 -1 536 -11 804 -33 847 -25 48 -91 101 -148
117 -62 19 -109 19 -284 0z"/>
<path d="M1581 2146 c-9 -10 -11 -27 -7 -48 17 -82 18 -119 2 -143 -27 -41
-99 -76 -178 -86 -87 -11 -129 -26 -122 -44 10 -26 63 -36 129 -24 119 21 121
26 -80 -221 -177 -218 -182 -226 -165 -244 13 -14 25 -17 45 -12 39 10 286
260 375 379 46 61 78 96 87 93 7 -3 82 -49 165 -102 84 -53 180 -110 214 -125
55 -25 166 -59 193 -59 17 0 13 40 -10 87 -19 39 -30 47 -117 89 -114 54 -270
108 -364 125 -76 14 -90 35 -30 44 165 25 342 82 342 111 0 29 -47 47 -108 40
-62 -7 -177 -30 -204 -41 -16 -6 -18 -1 -18 39 0 85 -38 142 -102 152 -24 4
-38 1 -47 -10z"/>
<path d="M870 2021 c-16 -31 -12 -83 11 -121 21 -34 21 -40 16 -440 -3 -223
-10 -472 -16 -555 -12 -157 -37 -421 -47 -490 -4 -31 -1 -46 13 -64 46 -56 84
11 119 209 9 51 19 207 25 390 5 168 16 400 25 515 29 413 29 414 4 473 -12
29 -36 64 -52 77 -36 30 -83 33 -98 6z"/>
<path d="M1610 1623 c-7 -16 -14 -59 -15 -97 -4 -89 -20 -105 -143 -141 -52
-16 -91 -33 -89 -39 7 -23 58 -38 103 -31 24 3 46 10 49 16 4 5 20 9 36 9 57
0 67 -94 11 -106 -50 -10 -72 -23 -72 -43 0 -15 10 -20 55 -26 60 -7 72 -22
61 -79 -8 -41 -29 -61 -85 -81 -72 -25 -78 -23 -89 45 -14 80 -53 154 -110
213 -47 48 -87 61 -98 33 -16 -42 107 -345 149 -367 13 -8 65 -13 126 -13
l104 -1 14 -41 c19 -56 73 -117 126 -142 94 -44 259 -63 357 -42 63 14 89 30
107 64 15 29 15 31 -12 54 -25 21 -33 22 -84 15 -75 -11 -208 -7 -260 7 -53
14 -99 56 -107 97 -6 30 -5 32 32 38 107 17 234 82 288 146 39 45 72 120 87
197 25 121 -22 184 -148 198 -66 7 -208 0 -250 -12 -19 -5 -23 -2 -23 15 0 37
-32 101 -60 121 -37 26 -44 25 -60 -7z m399 -248 c6 -6 -1 -52 -20 -125 -15
-63 -31 -127 -34 -142 -5 -26 -9 -28 -58 -28 -46 0 -108 -10 -159 -26 -13 -4
-18 4 -24 42 -9 60 12 101 64 129 23 12 38 29 40 43 3 20 -1 22 -37 22 -53 0
-70 26 -41 63 11 14 30 27 43 29 48 8 217 2 226 -7z"/>
</g>
</svg>
