<?xml version="1.0" standalone="no"?>
<!DOCTYPE svg PUBLIC "-//W3C//DTD SVG 20010904//EN"
 "http://www.w3.org/TR/2001/REC-SVG-20010904/DTD/svg10.dtd">
<svg version="1.0" xmlns="http://www.w3.org/2000/svg"
 width="340.000000pt" height="340.000000pt" viewBox="0 0 340.000000 340.000000"
 preserveAspectRatio="xMidYMid meet">
<metadata>
Created by potrace 1.15, written by Peter Selinger 2001-2017
</metadata>
<g transform="translate(0.000000,340.000000) scale(0.100000,-0.100000)"
fill="#000000" stroke="none">
<path d="M964 2405 c-11 -27 6 -45 90 -102 81 -55 127 -73 189 -73 45 0 54 15
37 64 -15 45 -60 84 -108 91 -20 3 -53 10 -72 15 -19 5 -56 12 -82 15 -40 6
-49 4 -54 -10z"/>
<path d="M2060 2399 c-149 -17 -410 -53 -477 -65 -37 -7 -43 -28 -14 -44 33
-17 366 -13 457 6 109 23 246 15 338 -19 37 -14 72 -29 76 -34 27 -28 95
-1624 76 -1776 l-8 -58 -34 30 c-37 33 -74 47 -100 37 -36 -14 25 -154 102
-233 53 -56 79 -64 128 -42 45 21 51 56 37 208 -42 467 -44 505 -46 1116 -2
513 -5 625 -19 705 -14 85 -19 98 -48 123 -83 70 -184 80 -468 46z"/>
<path d="M1555 2170 c-20 -40 -19 -54 9 -87 34 -41 42 -93 19 -122 -20 -25
-131 -56 -241 -67 -34 -4 -65 -10 -67 -14 -3 -4 4 -15 15 -25 18 -16 35 -17
165 -13 l145 6 0 -78 0 -77 -87 -17 c-49 -10 -139 -30 -202 -47 -63 -16 -127
-29 -142 -29 -23 0 -29 -4 -29 -22 0 -42 71 -232 128 -343 50 -97 60 -110 82
-109 14 1 78 7 142 14 65 8 120 12 122 9 2 -2 -1 -104 -7 -227 l-10 -223 -28
-15 c-39 -20 -45 -47 -19 -89 38 -62 119 -85 155 -45 22 24 22 39 12 360 l-9
255 83 17 c82 17 209 71 209 88 0 5 24 35 53 67 91 98 138 193 152 303 6 54 6
55 -27 77 -60 40 -118 48 -211 29 -146 -28 -219 -36 -240 -24 -17 9 -19 17
-12 71 8 75 17 87 65 87 63 0 142 19 208 50 69 32 71 43 16 66 -44 18 -90 18
-169 -2 -36 -9 -75 -14 -87 -11 -20 6 -23 13 -24 59 -1 66 -19 106 -63 135
-49 33 -87 30 -106 -7z m511 -553 c4 -3 -26 -71 -65 -150 -39 -79 -71 -149
-71 -155 0 -7 -14 -12 -33 -12 -19 0 -69 -3 -111 -7 l-77 -6 3 156 c2 85 6
159 11 163 9 9 127 19 127 10 0 -3 -16 -28 -35 -55 -38 -53 -58 -102 -69 -169
l-6 -43 39 20 c21 11 50 34 64 50 38 45 70 138 62 180 l-6 34 80 -5 c45 -3 84
-7 87 -11z m-470 -41 c18 -14 19 -26 16 -167 -1 -84 -4 -155 -6 -157 -6 -6
-189 -52 -207 -52 -11 0 -25 24 -44 78 -30 84 -76 180 -107 225 -12 16 -17 32
-12 37 9 9 187 37 274 43 25 2 50 4 56 5 5 1 19 -4 30 -12z"/>
<path d="M1404 1495 c-9 -36 2 -68 33 -100 33 -33 100 -65 120 -58 21 8 35 51
24 71 -20 37 -80 84 -124 97 -46 14 -47 14 -53 -10z"/>
<path d="M790 2070 c-13 -13 -17 -25 -12 -37 5 -10 21 -45 36 -78 15 -33 34
-89 42 -125 24 -112 16 -501 -22 -1040 -13 -199 -22 -290 -41 -422 -4 -28 0
-41 17 -58 38 -38 62 -24 89 55 22 65 25 91 32 355 4 157 15 434 25 615 9 182
17 400 18 485 1 147 0 157 -23 194 -15 24 -40 45 -65 57 -52 24 -71 24 -96 -1z"/>
<path d="M1343 1018 c-58 -61 -127 -150 -158 -203 -22 -37 -25 -48 -15 -60 51
-61 184 64 231 216 15 47 17 65 8 75 -17 20 -21 18 -66 -28z"/>
<path d="M1870 1011 c0 -21 40 -77 133 -186 48 -57 146 -87 161 -49 32 84 -35
161 -197 225 -86 34 -97 35 -97 10z"/>
</g>
</svg>
