<?xml version="1.0" standalone="no"?>
<!DOCTYPE svg PUBLIC "-//W3C//DTD SVG 20010904//EN"
 "http://www.w3.org/TR/2001/REC-SVG-20010904/DTD/svg10.dtd">
<svg version="1.0" xmlns="http://www.w3.org/2000/svg"
 width="340.000000pt" height="340.000000pt" viewBox="0 0 340.000000 340.000000"
 preserveAspectRatio="xMidYMid meet">
<metadata>
Created by potrace 1.15, written by Peter Selinger 2001-2017
</metadata>
<g transform="translate(0.000000,340.000000) scale(0.100000,-0.100000)"
fill="#000000" stroke="none">
<path d="M1546 2685 c-11 -12 -14 -28 -9 -64 l5 -49 -71 -76 c-74 -81 -133
-161 -170 -233 l-21 -43 24 -6 c14 -3 87 1 163 10 76 8 176 18 223 22 47 4
110 13 140 20 48 12 190 20 190 10 0 -2 -16 -30 -35 -62 -20 -32 -43 -82 -52
-112 -12 -37 -23 -54 -37 -57 -12 -2 -84 -16 -161 -30 -76 -15 -191 -40 -254
-56 -62 -16 -115 -28 -116 -27 -2 2 -15 48 -31 102 -41 147 -100 204 -178 172
l-36 -15 40 -74 c84 -156 109 -260 120 -512 7 -165 12 -211 30 -263 18 -51 25
-62 39 -56 20 9 261 25 279 19 34 -12 58 -151 30 -172 -7 -6 -105 -25 -218
-42 -113 -18 -315 -54 -450 -81 -160 -31 -283 -49 -355 -53 -116 -5 -148 -12
-142 -31 7 -21 132 -77 199 -88 76 -14 85 -12 349 65 155 45 452 110 560 123
l56 6 7 -233 c12 -393 31 -638 52 -666 11 -16 14 -16 28 -3 22 22 36 184 46
550 5 173 12 327 16 342 5 21 14 29 38 33 87 15 272 25 451 25 179 0 247 -4
461 -26 57 -6 63 -5 94 23 29 26 31 32 21 52 -22 40 -70 51 -244 57 -128 5
-224 0 -455 -20 -162 -14 -308 -26 -326 -26 l-32 0 -11 82 c-6 46 -13 89 -15
97 -2 11 17 18 77 27 44 7 112 24 150 36 61 21 72 28 87 60 10 21 38 51 63 68
25 17 62 56 82 87 31 45 38 66 41 117 2 33 -1 74 -7 90 l-12 29 -142 -6 c-140
-5 -147 -7 -432 -86 -159 -45 -295 -81 -302 -81 -13 0 -25 67 -27 150 l-1 54
120 13 c125 13 324 50 435 81 60 17 67 22 90 64 14 26 37 61 52 80 43 53 96
147 114 200 18 57 13 68 -47 99 -49 25 -118 24 -194 -1 -33 -11 -150 -42 -260
-69 -110 -28 -211 -53 -225 -57 -18 -5 8 27 91 112 64 66 126 132 137 148 45
59 18 132 -56 154 -51 15 -57 15 -76 -3z m589 -975 c7 -11 -12 -46 -55 -105
-16 -22 -37 -63 -46 -92 l-17 -51 -91 -7 c-145 -10 -292 -34 -415 -65 -63 -17
-118 -30 -122 -30 -5 0 -9 54 -9 120 0 116 1 121 23 129 12 4 135 24 272 45
138 20 291 42 340 50 117 18 113 18 120 6z"/>
</g>
</svg>
