<?xml version="1.0" standalone="no"?>
<!DOCTYPE svg PUBLIC "-//W3C//DTD SVG 20010904//EN"
 "http://www.w3.org/TR/2001/REC-SVG-20010904/DTD/svg10.dtd">
<svg version="1.0" xmlns="http://www.w3.org/2000/svg"
 width="340.000000pt" height="340.000000pt" viewBox="0 0 340.000000 340.000000"
 preserveAspectRatio="xMidYMid meet">
<metadata>
Created by potrace 1.15, written by Peter Selinger 2001-2017
</metadata>
<g transform="translate(0.000000,340.000000) scale(0.100000,-0.100000)"
fill="#000000" stroke="none">
<path d="M1265 2357 c-66 -24 -165 -65 -220 -91 -55 -26 -120 -53 -145 -60
-35 -8 -46 -16 -48 -33 -3 -22 -1 -23 80 -23 90 0 163 15 255 54 48 19 133 40
133 33 0 -2 -28 -59 -63 -127 -35 -69 -75 -162 -90 -206 l-27 -82 61 -122 c60
-122 99 -242 99 -306 l0 -34 -67 37 c-37 20 -94 47 -127 59 l-61 22 -1 153
c-1 152 -18 278 -47 338 -17 35 -71 65 -103 57 -18 -5 -24 -12 -20 -22 3 -8
16 -79 28 -157 19 -125 22 -182 23 -472 0 -362 -10 -505 -56 -834 -33 -231
-32 -261 13 -261 36 0 45 11 62 77 30 114 46 255 56 483 10 231 27 477 36 518
5 23 7 22 55 -23 66 -61 144 -97 229 -103 l66 -4 25 53 c20 45 24 70 24 149 0
88 -3 101 -32 160 -18 36 -68 105 -111 155 l-78 89 82 123 c131 195 198 319
196 362 -2 20 -11 44 -21 54 -33 33 -78 30 -206 -16z"/>
<path d="M2260 2243 c-117 -20 -241 -50 -331 -79 -58 -19 -113 -34 -122 -34
-10 0 -26 -9 -38 -21 -14 -14 -28 -19 -44 -15 -14 4 -31 -1 -45 -12 -21 -17
-22 -22 -11 -68 44 -191 64 -525 42 -709 -36 -303 -142 -604 -291 -826 -39
-60 -52 -88 -57 -130 l-6 -53 32 20 c81 52 130 114 215 275 76 144 135 304
170 462 6 27 7 27 87 27 139 0 332 51 344 91 10 31 -20 69 -54 69 -49 0 -197
-29 -276 -54 -49 -16 -75 -20 -75 -12 0 6 7 93 17 194 l17 182 76 0 c90 0 176
13 264 41 62 18 66 22 66 49 0 68 -89 76 -284 26 -130 -34 -128 -34 -120 13 9
57 -14 244 -41 327 -15 49 -19 74 -11 75 6 1 27 0 47 -1 20 -1 63 3 95 9 80
14 253 30 343 32 117 3 111 26 111 -395 1 -193 5 -452 10 -576 19 -480 23
-617 16 -663 l-7 -48 -27 16 c-15 10 -55 46 -88 82 -42 44 -68 64 -80 61 -34
-6 -28 -48 22 -147 37 -72 67 -115 124 -173 79 -82 100 -91 154 -67 44 21 47
49 31 338 -28 517 -37 810 -39 1213 l-1 406 -25 27 c-44 49 -114 64 -210 48z"/>
</g>
</svg>
