<?xml version="1.0" standalone="no"?>
<!DOCTYPE svg PUBLIC "-//W3C//DTD SVG 20010904//EN"
 "http://www.w3.org/TR/2001/REC-SVG-20010904/DTD/svg10.dtd">
<svg version="1.0" xmlns="http://www.w3.org/2000/svg"
 width="340.000000pt" height="340.000000pt" viewBox="0 0 340.000000 340.000000"
 preserveAspectRatio="xMidYMid meet">
<metadata>
Created by potrace 1.15, written by Peter Selinger 2001-2017
</metadata>
<g transform="translate(0.000000,340.000000) scale(0.100000,-0.100000)"
fill="#000000" stroke="none">
<path d="M958 2296 c-64 -36 -152 -88 -194 -117 -42 -28 -92 -55 -110 -61 -25
-6 -34 -15 -34 -30 0 -35 97 -20 196 30 92 46 189 78 180 59 -40 -90 -82 -207
-103 -288 l-25 -99 20 -33 c22 -36 107 -286 99 -293 -8 -8 -142 46 -172 70
-29 23 -30 27 -37 138 -7 125 -35 233 -68 263 -19 17 -22 17 -36 3 -14 -14
-15 -40 -4 -252 23 -431 -3 -1175 -46 -1307 -18 -58 -8 -91 36 -109 36 -15 41
-11 63 46 29 75 47 192 47 301 0 140 20 731 26 760 l4 22 37 -24 c50 -35 154
-65 223 -65 l58 0 11 63 c20 115 -8 208 -110 368 l-53 83 107 210 c119 234
128 268 81 305 -15 12 -38 21 -53 21 -14 0 -79 -29 -143 -64z"/>
<path d="M1925 2263 c-107 -18 -252 -58 -342 -94 l-74 -29 -24 29 c-36 41 -77
57 -115 41 -52 -22 -53 -30 -13 -116 54 -117 66 -253 67 -764 1 -419 -8 -575
-44 -805 -11 -66 -22 -155 -26 -197 l-7 -78 38 -16 c61 -25 85 -13 208 109
118 117 237 280 237 324 0 23 0 23 -32 7 -68 -35 -145 -95 -218 -168 -41 -42
-81 -76 -88 -76 -11 0 -13 15 -8 78 3 42 13 210 21 372 8 162 18 323 21 357
l5 62 67 6 c107 9 324 46 357 59 16 7 36 20 44 30 15 18 78 201 141 411 21 72
48 155 59 185 25 69 26 123 2 175 -43 94 -127 124 -276 98z m124 -135 l33 -10
-6 -57 c-10 -87 -74 -354 -115 -476 l-36 -110 -195 -57 c-107 -32 -196 -58
-197 -58 -5 0 -3 137 4 243 l6 107 46 0 c86 0 281 56 281 79 0 14 -45 50 -70
56 -15 3 -63 -6 -124 -25 -54 -16 -106 -30 -116 -30 -16 0 -19 13 -25 103 -4
56 -5 118 -3 137 l3 35 140 32 c225 52 288 57 374 31z"/>
<path d="M2230 1328 c-27 -40 -81 -94 -180 -178 -77 -66 -144 -120 -147 -120
-3 0 -44 31 -92 69 -114 91 -245 175 -249 161 -11 -31 23 -73 185 -228 309
-294 561 -511 649 -555 87 -44 167 -59 289 -55 125 4 141 9 122 39 -19 31 -75
65 -171 104 -50 20 -178 81 -285 136 -159 80 -213 113 -289 176 -77 65 -89 80
-76 88 65 40 233 164 299 222 71 61 80 73 83 107 4 46 -24 82 -70 88 -28 5
-34 0 -68 -54z"/>
</g>
</svg>
