<?xml version="1.0" standalone="no"?>
<!DOCTYPE svg PUBLIC "-//W3C//DTD SVG 20010904//EN"
 "http://www.w3.org/TR/2001/REC-SVG-20010904/DTD/svg10.dtd">
<svg version="1.0" xmlns="http://www.w3.org/2000/svg"
 width="340.000000pt" height="340.000000pt" viewBox="0 0 340.000000 340.000000"
 preserveAspectRatio="xMidYMid meet">
<metadata>
Created by potrace 1.15, written by Peter Selinger 2001-2017
</metadata>
<g transform="translate(0.000000,340.000000) scale(0.100000,-0.100000)"
fill="#000000" stroke="none">
<path d="M1593 2359 c-26 -26 -12 -49 60 -104 63 -47 224 -133 232 -123 32 39
33 101 0 134 -63 63 -261 126 -292 93z"/>
<path d="M960 2241 c-84 -38 -165 -82 -247 -134 -24 -15 -50 -27 -58 -27 -29
0 -55 -20 -55 -42 0 -19 4 -20 58 -13 76 9 122 21 214 56 43 16 91 29 107 29
l30 0 -43 -102 c-24 -57 -57 -147 -75 -200 l-33 -98 25 -53 c13 -30 40 -76 59
-104 32 -46 57 -117 72 -200 6 -36 0 -40 -29 -20 -41 28 -86 37 -126 27 -21
-6 -41 -15 -45 -21 -9 -14 39 -83 80 -114 19 -15 58 -35 87 -46 62 -24 104
-14 144 32 31 38 33 93 6 196 -27 104 -57 160 -124 228 l-58 60 42 95 c24 52
74 157 111 234 62 123 69 143 63 177 -8 47 -45 79 -89 79 -17 0 -69 -18 -116
-39z"/>
<path d="M2060 2045 c-171 -36 -297 -69 -466 -121 -152 -47 -154 -47 -154 20
0 39 -6 60 -21 80 -11 14 -24 24 -29 21 -4 -3 -23 -40 -40 -83 -18 -42 -45
-95 -60 -117 -68 -100 -124 -260 -97 -277 20 -13 50 -9 84 12 30 18 77 100
126 221 l15 36 118 6 c89 4 147 13 229 36 150 42 242 59 394 71 142 11 189 4
176 -28 -15 -35 -17 -73 -4 -88 16 -20 95 -13 159 12 59 24 86 85 60 135 -14
24 -94 65 -167 84 -82 21 -148 18 -323 -20z"/>
<path d="M635 1828 c-11 -32 -8 -94 6 -136 24 -72 0 -934 -32 -1188 -9 -70 -9
-105 -1 -150 14 -69 23 -80 51 -65 43 23 52 53 57 188 8 219 24 537 40 818 23
390 17 442 -59 523 -36 37 -53 40 -62 10z"/>
<path d="M1990 1680 c-112 -38 -419 -132 -475 -145 -98 -24 -102 -27 -74 -54
14 -13 36 -21 57 -21 49 0 506 87 547 104 49 21 61 49 38 89 -20 34 -48 42
-93 27z"/>
<path d="M1980 1269 c-124 -33 -334 -91 -468 -129 -133 -39 -251 -70 -261 -70
-32 0 -51 -11 -51 -30 0 -10 7 -21 16 -24 32 -12 217 -6 276 10 69 17 88 14
88 -17 0 -52 -187 -353 -334 -539 -75 -95 -91 -132 -60 -144 43 -17 413 396
476 530 16 34 34 90 39 125 6 35 13 74 15 85 4 24 47 45 96 47 l33 2 -2 -170
c0 -93 -7 -208 -14 -255 -20 -129 -17 -217 8 -266 23 -44 85 -104 131 -128 98
-51 408 -66 587 -28 163 35 176 41 205 98 21 42 25 62 25 145 0 108 -14 139
-65 139 -35 0 -46 -24 -61 -134 -12 -85 -12 -85 -49 -100 -157 -63 -422 -59
-581 8 -83 35 -114 228 -65 407 30 110 34 205 11 269 -19 54 -20 50 15 50 82
0 293 79 307 116 3 8 -2 25 -11 39 -23 36 -47 33 -306 -36z"/>
</g>
</svg>
