<?xml version="1.0" standalone="no"?>
<!DOCTYPE svg PUBLIC "-//W3C//DTD SVG 20010904//EN"
 "http://www.w3.org/TR/2001/REC-SVG-20010904/DTD/svg10.dtd">
<svg version="1.0" xmlns="http://www.w3.org/2000/svg"
 width="340.000000pt" height="340.000000pt" viewBox="0 0 340.000000 340.000000"
 preserveAspectRatio="xMidYMid meet">
<metadata>
Created by potrace 1.15, written by Peter Selinger 2001-2017
</metadata>
<g transform="translate(0.000000,340.000000) scale(0.100000,-0.100000)"
fill="#000000" stroke="none">
<path d="M947 2368 c-148 -78 -371 -227 -375 -250 -6 -33 51 -20 174 38 66 31
143 67 172 81 29 14 56 22 59 19 3 -3 -13 -69 -36 -146 -23 -77 -47 -167 -53
-200 l-12 -60 57 -112 c35 -70 64 -145 77 -197 11 -47 18 -86 16 -88 -2 -2
-23 6 -47 19 -46 23 -144 35 -167 20 -12 -8 -11 -14 1 -39 44 -84 192 -182
246 -162 107 39 122 87 75 252 -32 114 -62 179 -121 259 l-46 62 24 71 c13 38
61 145 106 237 88 175 93 197 53 233 -40 36 -78 29 -203 -37z"/>
<path d="M1665 2416 c-18 -13 -18 -15 11 -41 65 -60 302 -166 339 -151 21 8
26 54 11 91 -12 28 -27 41 -70 61 -102 47 -254 68 -291 40z"/>
<path d="M2040 2084 c-234 -59 -640 -144 -684 -144 -29 0 -36 -4 -36 -19 0
-36 24 -43 147 -43 104 0 138 5 288 40 180 44 307 65 470 81 107 11 147 29
153 70 2 13 -4 31 -14 42 -28 31 -123 23 -324 -27z"/>
<path d="M661 1947 c-8 -22 -13 -211 -15 -553 -3 -513 -8 -611 -46 -953 l-20
-175 22 -23 c12 -13 29 -23 38 -23 27 0 62 46 71 92 20 100 32 500 33 1040 l1
576 -24 26 c-33 35 -47 33 -60 -7z"/>
<path d="M2051 1904 c-26 -33 -26 -37 0 -84 l21 -37 -71 -139 c-39 -76 -88
-166 -109 -199 l-39 -60 -128 -24 c-191 -35 -316 -64 -558 -132 -119 -33 -226
-58 -236 -54 -10 3 -23 -1 -30 -8 -18 -22 10 -38 76 -44 47 -4 95 4 258 46
221 55 412 94 550 111 50 6 109 15 132 20 107 24 360 34 599 23 283 -12 312
-10 320 23 8 30 -18 71 -54 87 -46 20 -505 16 -622 -6 -168 -32 -164 -32 -157
-14 3 8 26 42 51 74 77 100 146 260 146 339 0 24 -9 40 -35 63 -20 17 -42 31
-50 31 -7 0 -20 3 -28 6 -9 3 -23 -6 -36 -22z"/>
<path d="M1506 1754 c-10 -27 -7 -73 9 -111 8 -19 15 -51 15 -70 0 -49 22 -94
64 -131 45 -40 61 -40 81 -2 20 39 19 106 -4 155 -25 54 -92 136 -129 157 -27
16 -31 16 -36 2z"/>
<path d="M2035 1044 c-109 -16 -299 -60 -374 -85 -69 -24 -135 -24 -190 1 -89
41 -96 23 -38 -106 77 -173 129 -358 143 -514 10 -106 52 -145 72 -67 5 19 18
37 33 44 36 18 330 37 476 30 155 -7 193 4 193 53 0 26 -6 33 -34 45 -19 8
-52 17 -75 21 -23 4 -41 8 -41 10 0 2 30 68 66 146 130 279 133 289 119 332
-36 103 -121 125 -350 90z m191 -127 c7 -7 -47 -181 -103 -333 l-44 -121 -84
-7 c-75 -5 -229 -31 -307 -51 -25 -7 -28 -5 -28 20 0 48 -29 227 -54 327 l-23
98 41 11 c86 23 245 51 341 59 98 8 252 7 261 -3z"/>
</g>
</svg>
