<?xml version="1.0" standalone="no"?>
<!DOCTYPE svg PUBLIC "-//W3C//DTD SVG 20010904//EN"
 "http://www.w3.org/TR/2001/REC-SVG-20010904/DTD/svg10.dtd">
<svg version="1.0" xmlns="http://www.w3.org/2000/svg"
 width="340.000000pt" height="340.000000pt" viewBox="0 0 340.000000 340.000000"
 preserveAspectRatio="xMidYMid meet">
<metadata>
Created by potrace 1.15, written by Peter Selinger 2001-2017
</metadata>
<g transform="translate(0.000000,340.000000) scale(0.100000,-0.100000)"
fill="#000000" stroke="none">
<path d="M1863 2374 c-19 -8 -16 -34 8 -79 27 -52 20 -101 -27 -205 l-37 -80
-65 -20 c-37 -11 -114 -30 -172 -41 -170 -32 -175 -33 -175 -49 0 -27 47 -40
145 -40 52 0 121 6 153 14 31 7 57 9 57 4 0 -23 -84 -171 -190 -333 -202 -310
-238 -384 -183 -373 24 4 127 129 226 272 130 188 116 191 117 -29 0 -185 -14
-523 -29 -693 -6 -71 -5 -85 10 -98 10 -9 25 -14 35 -12 34 6 52 58 64 183 15
164 13 158 68 152 25 -3 71 -1 101 3 66 10 171 47 171 61 0 6 -13 24 -29 40
-39 39 -89 38 -206 -1 -49 -16 -90 -28 -93 -25 -2 2 1 56 8 118 l12 115 93 4
c79 3 102 8 150 33 32 17 58 35 58 40 1 18 -65 55 -99 55 -19 0 -63 -11 -100
-25 -107 -40 -104 -43 -104 84 l0 108 38 7 c20 3 101 9 178 13 l141 6 7 -54
c24 -201 37 -689 18 -714 -4 -6 -27 -10 -52 -10 -42 0 -45 -2 -48 -29 -2 -15
4 -62 13 -103 13 -57 25 -84 49 -111 30 -32 39 -36 85 -36 59 -1 65 5 81 77
17 83 10 507 -16 931 l-7 108 -40 29 c-23 16 -66 37 -96 46 -73 21 -133 10
-277 -52 -89 -38 -113 -44 -131 -36 -13 6 -23 16 -23 22 0 6 36 71 81 144 l80
133 112 21 c134 25 291 41 396 41 68 0 80 3 99 23 28 29 28 49 1 73 -19 17
-37 19 -153 19 -111 0 -147 -5 -233 -28 -56 -15 -115 -27 -131 -27 l-29 0 26
52 c20 41 26 68 26 120 0 58 -4 72 -30 110 -28 39 -35 43 -75 45 -25 1 -51 0
-57 -3z"/>
<path d="M940 2312 c-63 -27 -160 -72 -216 -100 -57 -30 -114 -52 -131 -52
-33 0 -67 -24 -60 -44 2 -7 36 -12 86 -14 96 -3 163 13 262 64 54 28 109 44
109 31 0 -2 -20 -42 -45 -89 -24 -48 -56 -126 -70 -174 l-27 -86 46 -92 c44
-88 85 -220 73 -233 -4 -3 -40 6 -81 21 -89 33 -116 31 -134 -7 -13 -27 -12
-31 15 -59 65 -69 144 -109 241 -123 l52 -7 26 57 c23 49 26 66 21 119 -8 84
-71 236 -128 306 -16 19 -29 39 -29 45 0 6 54 93 120 194 131 198 139 223 95
266 -38 39 -89 33 -225 -23z"/>
<path d="M1090 1995 c-15 -18 -10 -26 59 -98 61 -64 130 -105 183 -109 30 -3
33 0 36 28 8 77 -52 142 -160 175 -76 23 -102 24 -118 4z"/>
<path d="M567 1952 c-22 -25 -21 -48 4 -88 29 -48 43 -287 35 -639 -5 -286
-21 -484 -56 -728 -16 -108 -18 -142 -9 -160 23 -44 55 -49 93 -14 23 20 28
35 41 147 8 69 19 274 25 455 5 182 15 449 21 595 14 308 14 332 -8 377 -31
65 -110 95 -146 55z"/>
<path d="M1047 1281 c-82 -42 -153 -83 -157 -91 -23 -42 33 -52 140 -26 100
24 96 26 104 -52 9 -87 26 -152 61 -231 31 -69 31 -70 -20 -187 l-22 -50 -73
9 c-69 10 -202 -1 -218 -18 -11 -10 13 -38 39 -46 13 -4 71 -12 129 -19 295
-33 706 -137 1060 -267 144 -54 190 -66 260 -71 126 -10 251 3 364 38 111 34
128 44 124 74 -3 19 -12 22 -113 28 -559 35 -638 48 -1120 179 -159 44 -295
81 -301 83 -7 3 1 30 23 73 31 61 34 75 31 133 -2 47 -12 83 -35 130 -42 87
-57 174 -48 282 6 80 5 87 -14 97 -34 19 -62 10 -214 -68z"/>
</g>
</svg>
