<?xml version="1.0" standalone="no"?>
<!DOCTYPE svg PUBLIC "-//W3C//DTD SVG 20010904//EN"
 "http://www.w3.org/TR/2001/REC-SVG-20010904/DTD/svg10.dtd">
<svg version="1.0" xmlns="http://www.w3.org/2000/svg"
 width="340.000000pt" height="340.000000pt" viewBox="0 0 340.000000 340.000000"
 preserveAspectRatio="xMidYMid meet">
<metadata>
Created by potrace 1.15, written by Peter Selinger 2001-2017
</metadata>
<g transform="translate(0.000000,340.000000) scale(0.100000,-0.100000)"
fill="#000000" stroke="none">
<path d="M1500 2547 c-51 -17 -50 -44 3 -106 28 -33 47 -66 51 -89 12 -76 6
-425 -9 -497 -14 -65 -14 -72 4 -107 l19 -38 -97 -83 c-213 -185 -553 -448
-742 -575 -77 -52 -119 -93 -119 -118 0 -18 -4 -19 87 20 116 49 223 119 471
304 69 51 127 90 130 87 12 -11 14 -313 3 -475 -12 -176 -50 -467 -74 -572
-15 -60 -10 -80 24 -98 45 -25 92 27 104 115 12 99 3 91 112 99 54 4 163 18
242 32 218 36 422 48 599 35 131 -9 295 -32 345 -47 11 -3 28 6 47 25 34 34
31 62 -11 93 -56 42 -364 58 -590 32 -75 -9 -85 7 -70 104 6 37 13 88 16 113
l6 46 97 12 c101 12 244 50 276 74 16 12 17 16 5 35 -26 42 -61 47 -162 24
-51 -12 -123 -24 -161 -28 l-69 -7 5 97 c3 53 7 99 10 102 3 2 44 11 92 20
102 17 199 46 279 81 63 29 71 49 26 70 -22 11 -42 9 -125 -12 -108 -27 -267
-56 -273 -50 -6 6 -23 186 -18 191 2 3 48 11 101 19 85 13 327 63 333 69 2 1
6 17 9 34 6 27 3 33 -21 44 -23 10 -62 5 -273 -35 -136 -27 -296 -61 -357 -77
-60 -16 -143 -35 -182 -41 -40 -7 -73 -16 -73 -20 0 -23 45 -28 182 -22 l145
6 6 -39 c4 -21 7 -69 7 -106 l0 -67 -37 -11 c-21 -6 -103 -24 -182 -40 -79
-16 -146 -31 -148 -34 -3 -2 7 -12 22 -22 25 -17 34 -16 181 1 84 10 157 16
161 12 4 -4 9 -50 11 -102 4 -92 4 -94 -19 -100 -13 -3 -96 -23 -184 -43 -171
-40 -192 -54 -140 -88 24 -15 33 -16 133 -1 59 9 133 19 166 22 l59 5 -8 -122
c-3 -68 -10 -126 -13 -129 -4 -3 -45 -11 -92 -18 -75 -11 -363 -70 -429 -88
-24 -6 -24 -6 -18 53 13 121 27 326 37 544 9 198 8 234 -7 297 l-16 72 29 24
c16 13 96 81 179 150 l149 125 61 -43 c124 -88 197 -112 243 -79 27 19 28 44
2 77 -26 32 -85 55 -183 70 l-77 12 64 55 c79 67 142 144 191 232 41 75 40 89
-6 136 -36 36 -80 42 -129 17 -25 -13 -28 -18 -20 -44 4 -15 13 -38 19 -49 10
-18 3 -30 -55 -99 -76 -89 -161 -183 -166 -183 -2 0 -2 93 0 206 4 230 -9 419
-29 453 -31 49 -104 76 -159 58z"/>
<path d="M2019 2344 c-16 -19 -3 -29 50 -39 56 -10 255 -90 368 -146 111 -56
141 -59 161 -14 20 43 14 62 -34 104 -99 87 -184 111 -394 111 -113 0 -140 -3
-151 -16z"/>
<path d="M1073 2183 c-110 -133 -233 -325 -233 -363 0 -32 28 -60 60 -60 45 0
152 138 220 284 45 96 58 150 40 171 -22 26 -47 16 -87 -32z"/>
</g>
</svg>
