<?xml version="1.0" standalone="no"?>
<!DOCTYPE svg PUBLIC "-//W3C//DTD SVG 20010904//EN"
 "http://www.w3.org/TR/2001/REC-SVG-20010904/DTD/svg10.dtd">
<svg version="1.0" xmlns="http://www.w3.org/2000/svg"
 width="340.000000pt" height="340.000000pt" viewBox="0 0 340.000000 340.000000"
 preserveAspectRatio="xMidYMid meet">
<metadata>
Created by potrace 1.15, written by Peter Selinger 2001-2017
</metadata>
<g transform="translate(0.000000,340.000000) scale(0.100000,-0.100000)"
fill="#000000" stroke="none">
<path d="M1829 2458 c-24 -20 -28 -41 -13 -69 31 -57 13 -96 -224 -481 l-97
-158 -40 8 c-63 11 -132 7 -159 -11 -14 -10 -28 -17 -31 -17 -3 0 -5 57 -5
126 0 145 -15 261 -38 287 -19 21 -20 20 48 42 63 21 114 51 149 89 l24 26
-36 15 c-54 22 -79 19 -188 -25 -113 -46 -287 -100 -401 -125 -64 -14 -78 -21
-78 -36 0 -10 11 -25 24 -34 20 -13 37 -14 122 -4 54 6 128 17 164 24 35 7 68
11 72 9 4 -3 8 -103 8 -223 l0 -217 -157 -62 c-87 -33 -166 -64 -176 -68 -18
-6 -18 -5 -2 32 9 22 29 55 44 74 68 85 89 160 66 238 -18 59 -41 77 -79 62
-25 -9 -29 -18 -41 -91 -8 -50 -92 -214 -154 -299 -60 -82 -67 -125 -26 -165
41 -42 79 -34 285 59 102 47 187 83 189 81 12 -13 -202 -341 -348 -534 -156
-207 -164 -218 -157 -236 10 -28 47 -15 108 38 94 82 236 253 342 412 53 80
99 145 103 145 12 0 -14 -599 -32 -737 l-6 -42 -61 40 c-34 21 -66 39 -72 39
-18 0 -56 -30 -56 -43 0 -18 75 -136 110 -173 36 -39 89 -58 135 -50 30 6 36
12 46 49 31 116 39 218 39 521 0 271 11 547 25 612 3 16 19 24 72 36 37 9 70
14 73 12 5 -6 -6 -25 -59 -110 -32 -51 -53 -134 -34 -134 21 0 164 161 237
267 42 62 81 115 86 118 21 13 30 -111 30 -403 0 -441 -31 -1023 -56 -1074
-23 -44 -18 -92 12 -122 35 -34 48 -33 80 9 46 61 53 97 54 277 l0 166 28 6
c70 15 289 36 469 47 182 10 295 9 473 -6 54 -5 70 -2 98 14 17 12 32 25 32
30 0 20 -43 61 -86 82 -43 20 -55 22 -173 16 -69 -4 -163 -10 -208 -13 l-83
-7 0 190 0 191 68 7 c129 13 272 55 272 80 0 8 -12 23 -27 35 -31 24 -60 24
-221 0 -45 -7 -86 -10 -90 -6 -8 8 -9 252 -1 260 2 3 36 10 74 16 86 14 227
61 232 77 3 7 -7 24 -21 38 -32 32 -76 33 -192 4 -46 -12 -86 -20 -88 -18 -2
2 -6 55 -8 117 l-6 112 27 0 c82 1 321 79 321 105 0 8 -12 22 -26 31 -24 16
-30 16 -92 1 -37 -9 -159 -37 -272 -62 -248 -55 -399 -91 -406 -97 -2 -3 -1
-13 2 -23 6 -16 18 -17 123 -11 64 4 130 9 148 12 30 6 32 4 42 -33 12 -41 14
-135 5 -169 -5 -18 -27 -26 -144 -55 -135 -33 -139 -35 -121 -52 21 -22 58
-24 182 -12 l86 8 6 -84 c4 -46 7 -110 7 -141 l0 -57 -57 -11 c-235 -49 -251
-54 -240 -84 5 -13 29 -15 152 -14 80 0 148 -2 151 -5 3 -3 2 -87 -2 -186 l-7
-181 -26 0 c-46 0 -223 -29 -303 -50 -43 -11 -81 -20 -86 -20 -5 0 -7 187 -5
423 4 378 -3 598 -23 747 -5 44 -3 48 60 133 66 88 130 197 175 295 24 50 24
54 8 87 -9 19 -27 41 -41 50 -34 23 -88 29 -107 13z"/>
<path d="M2008 2234 c-22 -22 -4 -47 65 -92 78 -51 147 -76 236 -87 l54 -6 -6
37 c-7 43 -29 78 -62 100 -42 27 -270 66 -287 48z"/>
</g>
</svg>
