<?xml version="1.0" standalone="no"?>
<!DOCTYPE svg PUBLIC "-//W3C//DTD SVG 20010904//EN"
 "http://www.w3.org/TR/2001/REC-SVG-20010904/DTD/svg10.dtd">
<svg version="1.0" xmlns="http://www.w3.org/2000/svg"
 width="340.000000pt" height="340.000000pt" viewBox="0 0 340.000000 340.000000"
 preserveAspectRatio="xMidYMid meet">
<metadata>
Created by potrace 1.15, written by Peter Selinger 2001-2017
</metadata>
<g transform="translate(0.000000,340.000000) scale(0.100000,-0.100000)"
fill="#000000" stroke="none">
<path d="M1744 2464 c-5 -20 -1 -39 14 -68 l22 -39 -77 -121 c-71 -110 -148
-220 -307 -440 -60 -83 -68 -119 -30 -124 16 -2 46 21 112 85 l90 89 6 -46
c45 -353 36 -981 -19 -1406 -19 -146 -11 -184 38 -184 53 1 65 18 77 111 13
101 29 670 32 1164 l3 360 -25 60 -25 60 132 179 c80 107 135 191 139 211 7
40 -16 99 -46 115 -12 6 -46 14 -75 17 -53 6 -54 5 -61 -23z"/>
<path d="M925 2300 c-3 -5 -3 -37 1 -69 6 -57 4 -64 -34 -134 -53 -99 -171
-284 -271 -427 -44 -63 -81 -121 -81 -127 -1 -50 144 64 279 221 51 59 86 90
114 101 43 17 193 42 201 34 3 -3 -25 -63 -63 -135 -38 -71 -84 -158 -102
-194 -31 -60 -40 -68 -104 -102 -38 -21 -114 -55 -168 -76 l-99 -39 28 -22
c14 -11 35 -21 44 -21 10 0 64 19 121 41 162 65 420 149 456 149 49 0 54 -20
38 -139 -19 -135 -50 -264 -92 -386 -19 -55 -36 -101 -38 -103 -1 -1 -54 -22
-118 -46 -64 -25 -175 -70 -246 -102 -141 -61 -151 -72 -115 -122 12 -17 25
-22 60 -22 37 0 74 15 207 84 89 46 180 93 202 104 22 12 55 26 72 33 18 6 42
26 53 44 25 41 160 580 160 641 0 79 -35 121 -117 139 -28 6 -130 -15 -195
-40 -32 -13 -19 12 57 114 42 55 82 116 91 136 21 51 36 135 29 167 -17 75
-201 55 -279 -31 -11 -12 -25 -21 -33 -21 -23 0 -14 29 26 83 48 63 61 95 61
148 0 74 -44 129 -101 129 -21 0 -41 -4 -44 -10z"/>
<path d="M1954 2275 c-18 -15 -17 -17 40 -70 72 -67 150 -105 227 -112 l58 -6
6 37 c14 71 -24 99 -194 142 -110 28 -112 28 -137 9z"/>
<path d="M2400 2015 c-25 -7 -126 -36 -225 -64 -293 -82 -354 -102 -348 -117
11 -29 58 -33 157 -11 67 14 100 17 107 10 6 -6 11 -62 12 -128 l2 -118 -114
-38 c-63 -21 -116 -41 -119 -44 -3 -2 1 -11 8 -20 16 -19 71 -19 134 0 27 8
62 15 78 15 27 0 28 -2 28 -48 0 -27 -3 -83 -6 -124 l-7 -74 -61 -16 c-111
-30 -177 -58 -174 -76 6 -32 45 -41 106 -26 67 16 128 18 137 5 3 -6 3 -71 -1
-144 l-7 -135 -61 -11 c-34 -7 -119 -26 -189 -43 -124 -30 -128 -32 -125 -56
5 -41 43 -44 202 -17 233 39 357 48 650 49 262 1 279 3 292 21 30 40 18 64
-43 92 -76 35 -188 42 -315 19 -115 -21 -302 -45 -307 -40 -2 2 1 45 7 96 6
51 14 118 17 149 l6 56 52 6 c60 6 151 38 187 66 20 16 22 21 11 35 -28 33
-84 40 -161 20 -71 -18 -72 -18 -86 1 -15 20 -18 87 -8 172 7 51 8 53 43 58
98 15 141 25 193 45 52 19 57 24 48 41 -6 10 -25 26 -42 35 -31 16 -84 15
-200 -3 l-38 -6 0 112 c0 106 1 111 21 111 68 0 264 76 276 107 8 21 -32 53
-66 52 -14 0 -46 -6 -71 -14z"/>
<path d="M923 1185 c-45 -18 -118 -49 -162 -70 -71 -33 -79 -40 -70 -56 11
-22 50 -24 149 -8 105 17 240 89 240 128 0 50 -45 51 -157 6z"/>
</g>
</svg>
