<?xml version="1.0" standalone="no"?>
<!DOCTYPE svg PUBLIC "-//W3C//DTD SVG 20010904//EN"
 "http://www.w3.org/TR/2001/REC-SVG-20010904/DTD/svg10.dtd">
<svg version="1.0" xmlns="http://www.w3.org/2000/svg"
 width="340.000000pt" height="340.000000pt" viewBox="0 0 340.000000 340.000000"
 preserveAspectRatio="xMidYMid meet">
<metadata>
Created by potrace 1.15, written by Peter Selinger 2001-2017
</metadata>
<g transform="translate(0.000000,340.000000) scale(0.100000,-0.100000)"
fill="#000000" stroke="none">
<path d="M1955 2379 c-209 -38 -347 -67 -520 -109 -110 -26 -211 -46 -225 -43
-35 6 -81 -13 -74 -31 11 -29 67 -38 168 -27 52 6 124 11 159 11 l64 0 7 -37
c3 -21 6 -73 6 -115 0 -72 -2 -78 -22 -83 -13 -2 -135 -23 -273 -45 -137 -22
-262 -43 -277 -46 -25 -5 -28 -3 -28 21 0 55 -48 125 -86 125 -6 0 -14 -27
-17 -67 -4 -43 -28 -132 -66 -245 l-59 -176 22 -21 c33 -31 70 -27 100 12 13
17 41 86 61 152 21 66 42 126 47 133 6 7 33 12 62 12 86 0 414 42 512 66 20 5
21 1 28 -113 13 -223 32 -353 52 -353 29 0 65 25 71 49 4 14 7 118 7 231 l1
204 55 13 c119 27 331 46 517 47 203 1 233 -5 199 -39 -9 -9 -16 -20 -16 -25
0 -5 -3 -15 -6 -23 -18 -49 114 -66 196 -24 36 18 48 30 60 64 13 39 13 44 -4
62 -36 39 -113 81 -181 98 -59 14 -79 15 -154 4 -280 -41 -656 -89 -663 -85
-4 3 -8 58 -8 123 l0 118 88 11 c48 6 134 14 191 18 89 6 107 10 132 31 32 28
37 57 13 91 -17 24 -50 27 -139 11z"/>
<path d="M1906 1762 c-27 -9 -51 -21 -53 -27 -1 -5 53 -39 122 -73 133 -68
163 -73 200 -32 16 17 16 21 0 53 -21 45 -44 65 -92 83 -51 18 -118 17 -177
-4z"/>
<path d="M1087 1679 l-31 -31 36 -19 c50 -26 176 -67 217 -71 27 -2 38 2 53
23 30 39 16 65 -52 99 -48 24 -72 30 -125 30 -61 0 -69 -3 -98 -31z"/>
<path d="M1886 1528 c-23 -32 -21 -35 30 -68 56 -35 140 -54 201 -45 44 6 45
7 39 38 -13 67 -69 97 -180 97 -66 0 -77 -3 -90 -22z"/>
<path d="M1078 1469 c-10 -5 -18 -21 -18 -34 0 -19 11 -29 54 -50 65 -32 115
-40 190 -31 51 7 56 10 56 32 0 68 -50 94 -177 94 -48 0 -96 -5 -105 -11z"/>
<path d="M1805 1299 c-132 -26 -337 -64 -455 -84 -118 -20 -219 -40 -224 -45
-4 -4 2 -18 14 -30 21 -21 26 -21 177 -14 l155 7 -50 -69 c-42 -57 -82 -121
-159 -252 -5 -7 -45 -19 -90 -26 -81 -13 -83 -13 -115 10 -32 24 -72 31 -96
16 -10 -7 -5 -27 22 -91 41 -95 81 -234 97 -341 14 -94 32 -130 64 -130 13 0
31 8 41 17 15 15 16 32 11 133 -5 98 -18 170 -52 286 -6 20 -1 22 72 33 43 6
110 14 149 18 l71 6 5 -164 c4 -103 12 -191 23 -236 15 -65 19 -73 40 -73 46
0 49 14 42 265 l-6 234 92 21 c51 12 118 25 150 27 l58 6 -3 -276 -3 -276 23
-11 c33 -15 59 3 71 48 15 56 41 281 49 417 l7 119 40 9 c58 13 249 1 330 -20
l70 -18 -2 -57 c-2 -64 -74 -292 -108 -342 -31 -46 -66 -55 -114 -28 -58 33
-121 24 -121 -16 0 -50 106 -163 167 -178 36 -10 108 23 147 66 19 21 42 61
50 89 8 28 30 90 50 138 39 99 66 227 66 313 0 57 0 58 -55 108 -88 80 -186
100 -334 67 -36 -8 -148 -26 -248 -40 -101 -14 -249 -39 -330 -55 -81 -17
-151 -30 -155 -30 -16 0 15 44 79 112 57 61 113 152 113 185 0 20 170 48 350
59 125 7 165 21 180 60 14 35 13 41 -10 64 -29 29 -69 25 -345 -31z"/>
</g>
</svg>
