<?xml version="1.0" standalone="no"?>
<!DOCTYPE svg PUBLIC "-//W3C//DTD SVG 20010904//EN"
 "http://www.w3.org/TR/2001/REC-SVG-20010904/DTD/svg10.dtd">
<svg version="1.0" xmlns="http://www.w3.org/2000/svg"
 width="340.000000pt" height="340.000000pt" viewBox="0 0 340.000000 340.000000"
 preserveAspectRatio="xMidYMid meet">
<metadata>
Created by potrace 1.15, written by Peter Selinger 2001-2017
</metadata>
<g transform="translate(0.000000,340.000000) scale(0.100000,-0.100000)"
fill="#000000" stroke="none">
<path d="M1940 2568 c-25 -5 -119 -25 -210 -44 -91 -20 -219 -47 -285 -60
-180 -36 -167 -31 -153 -54 7 -11 25 -25 41 -31 27 -11 46 -10 234 15 28 4 33
-10 33 -98 l0 -72 -122 -27 c-174 -38 -348 -94 -348 -112 0 -27 48 -27 157 -1
59 14 142 30 183 36 41 6 89 13 106 15 l31 5 6 -157 c4 -87 9 -173 13 -190 6
-33 6 -33 -34 -33 -84 0 -78 -46 17 -131 30 -27 53 -49 50 -49 -2 -1 -115 -29
-251 -63 -222 -57 -245 -65 -236 -80 8 -16 22 -17 139 -11 l129 7 0 -29 c0
-25 31 -123 54 -174 5 -13 -13 -18 -106 -33 -62 -9 -142 -26 -178 -37 -36 -11
-103 -25 -150 -31 -123 -16 -130 -18 -130 -34 0 -25 45 -35 153 -35 104 0 237
18 337 45 30 8 88 18 128 21 l72 7 0 -29 c-1 -72 -101 -206 -168 -223 -20 -6
-109 -17 -197 -26 -88 -9 -221 -25 -295 -36 -74 -11 -178 -24 -231 -29 -90 -9
-179 -33 -179 -49 0 -12 64 -68 95 -84 27 -14 41 -13 155 10 257 50 545 101
548 98 2 -2 -6 -25 -17 -50 -12 -26 -21 -53 -21 -59 0 -6 51 -25 113 -43 61
-17 130 -39 151 -48 l40 -17 -115 -60 c-302 -160 -364 -195 -364 -209 0 -61
347 55 542 182 l65 43 52 -18 c144 -50 390 -187 543 -302 73 -55 116 -67 141
-42 13 13 16 87 4 103 -25 36 -360 220 -527 290 -60 25 -111 48 -113 50 -2 1
48 63 110 135 l113 133 215 -7 c118 -4 271 -13 340 -20 79 -9 129 -10 137 -4
6 5 16 22 22 38 13 38 -13 72 -67 88 -43 13 -388 15 -530 4 l-82 -7 -11 38
c-14 51 -50 87 -88 87 -53 0 -61 -8 -61 -64 0 -28 -4 -57 -9 -65 -9 -14 -116
-30 -205 -31 l-50 0 27 28 c40 42 69 116 66 170 l-3 47 64 11 c36 6 184 14
330 17 238 6 266 8 290 25 32 25 35 43 11 73 -19 23 -24 24 -148 23 -70 0
-185 -8 -256 -19 -70 -10 -130 -15 -134 -12 -3 4 12 27 35 51 41 44 94 138
105 187 6 22 11 25 40 21 73 -8 193 52 166 84 -20 24 -97 47 -136 41 -21 -4
-107 -17 -191 -30 l-152 -24 -19 41 c-10 23 -32 54 -49 69 -29 28 -29 29 -17
71 17 56 35 204 35 288 0 76 19 104 74 112 17 2 65 10 106 17 104 17 430 25
430 10 0 -6 -18 -23 -40 -37 -46 -31 -53 -65 -17 -88 12 -8 56 -17 97 -21 117
-11 182 14 223 84 l18 30 -36 40 c-48 53 -122 99 -197 122 l-61 19 -293 -52
c-162 -28 -296 -49 -299 -46 -3 3 -7 39 -8 79 l-2 73 40 14 c22 8 90 17 152
21 98 6 116 10 152 34 36 24 40 30 30 48 -12 24 -67 50 -101 48 -13 -1 -43 -5
-68 -11z m-12 -1070 c-2 -6 -44 -66 -94 -134 l-89 -123 -61 -1 -62 0 -7 37
c-9 47 -36 100 -70 136 -17 18 -24 32 -18 38 5 5 72 20 149 33 156 27 258 33
252 14z m-78 -688 c0 -11 -32 -54 -75 -98 l-74 -79 -128 26 c-70 13 -130 26
-132 28 -10 7 54 62 102 89 49 27 110 38 290 53 11 0 17 -6 17 -19z"/>
<path d="M981 2230 c1 -66 -4 -86 -39 -170 -44 -103 -79 -226 -68 -238 4 -3
25 -7 47 -7 28 0 46 7 63 25 27 27 92 186 102 247 9 61 -12 120 -62 172 l-44
46 1 -75z"/>
<path d="M1955 2121 c-104 -16 4 -111 126 -111 64 0 68 4 44 55 -24 49 -86 70
-170 56z"/>
<path d="M1194 2016 c-19 -14 -19 -15 5 -40 13 -14 44 -32 69 -40 52 -18 162
-22 162 -6 0 25 -32 71 -60 85 -38 19 -149 20 -176 1z"/>
<path d="M1888 1942 c-25 -5 -22 -25 7 -60 33 -39 83 -62 137 -62 65 0 76 11
56 54 -10 19 -30 41 -45 49 -28 14 -123 26 -155 19z"/>
<path d="M1179 1829 c-11 -11 -18 -26 -16 -32 12 -37 133 -67 211 -53 46 9 48
36 7 77 -27 27 -35 29 -105 29 -63 0 -79 -3 -97 -21z"/>
</g>
</svg>
