<?xml version="1.0" standalone="no"?>
<!DOCTYPE svg PUBLIC "-//W3C//DTD SVG 20010904//EN"
 "http://www.w3.org/TR/2001/REC-SVG-20010904/DTD/svg10.dtd">
<svg version="1.0" xmlns="http://www.w3.org/2000/svg"
 width="340.000000pt" height="340.000000pt" viewBox="0 0 340.000000 340.000000"
 preserveAspectRatio="xMidYMid meet">
<metadata>
Created by potrace 1.15, written by Peter Selinger 2001-2017
</metadata>
<g transform="translate(0.000000,340.000000) scale(0.100000,-0.100000)"
fill="#000000" stroke="none">
<path d="M1192 2554 c-27 -19 -28 -53 -2 -87 17 -21 20 -40 20 -115 0 -49 -3
-110 -6 -135 l-7 -47 -76 -29 c-81 -31 -223 -71 -253 -71 -10 0 -18 -4 -18
-10 0 -14 35 -30 69 -30 24 0 194 36 264 56 15 5 17 -4 17 -100 l0 -105 -102
-39 c-57 -22 -129 -47 -162 -56 -57 -17 -58 -18 -40 -37 24 -27 70 -24 189 11
55 16 103 30 108 30 4 0 7 -38 7 -83 l0 -84 -247 -82 c-137 -45 -293 -100
-348 -122 -60 -24 -115 -40 -138 -40 -83 2 -104 -44 -36 -75 74 -33 127 -24
289 46 268 116 582 218 807 261 35 6 68 18 74 25 18 22 44 16 67 -16 42 -57
79 -32 135 90 55 120 69 221 46 329 -11 53 -39 87 -64 78 -11 -5 -15 -22 -15
-67 0 -81 -25 -200 -58 -273 l-27 -59 -95 -3 c-85 -3 -193 -26 -272 -60 -16
-6 -18 0 -18 61 0 38 4 74 8 80 4 6 31 16 59 23 72 15 135 46 185 91 52 47 44
61 -35 68 -44 3 -66 -1 -115 -23 -33 -15 -65 -24 -71 -20 -11 6 -15 124 -5
160 4 16 22 24 83 38 92 21 221 80 221 101 0 9 -12 23 -26 32 -24 16 -30 16
-117 -8 -51 -15 -107 -29 -126 -32 -29 -5 -32 -4 -26 12 13 33 17 158 6 198
-6 22 -25 61 -42 87 -34 52 -65 61 -107 31z"/>
<path d="M2055 2400 c-10 -16 10 -43 77 -106 56 -52 167 -134 182 -134 10 0
36 59 36 82 0 38 -47 96 -98 122 -72 36 -184 57 -197 36z"/>
<path d="M2469 2080 c-91 -21 -201 -48 -245 -60 -425 -116 -442 -140 -64 -86
309 44 463 61 485 53 15 -6 15 -10 -4 -41 -27 -42 -26 -62 0 -77 32 -17 99 -3
179 37 79 40 83 50 50 119 -24 51 -59 71 -141 84 -83 14 -68 16 -260 -29z"/>
<path d="M2371 1569 c-68 -16 -192 -49 -275 -73 -83 -25 -195 -55 -249 -67
-94 -21 -97 -22 -81 -40 28 -31 71 -31 238 -4 88 14 163 22 168 17 4 -4 17
-44 29 -87 19 -69 23 -113 26 -320 2 -132 0 -279 -4 -326 l-8 -85 -151 88
-152 89 43 64 c45 66 79 157 90 238 6 45 4 50 -29 83 -30 30 -41 35 -73 32
l-38 -3 0 -75 0 -75 -117 -235 c-65 -129 -139 -271 -165 -315 l-48 -80 -6 100
c-4 55 -10 267 -14 470 -8 392 -9 397 -59 445 -21 19 -40 25 -90 28 -61 4 -69
2 -192 -57 -101 -49 -125 -64 -115 -74 8 -8 38 -11 94 -8 45 2 111 4 147 5
l65 1 7 -50 c17 -126 29 -322 35 -577 l6 -278 -37 2 c-22 1 -43 -5 -53 -14
-41 -42 31 -154 115 -179 41 -12 44 -11 70 14 20 20 27 38 28 73 2 43 5 48 52
80 53 35 61 45 173 219 39 61 73 111 74 113 2 2 57 -39 122 -91 148 -118 301
-229 468 -340 113 -76 140 -89 205 -103 126 -27 330 -3 338 39 2 10 -4 29 -12
42 -14 21 -24 25 -69 25 -76 0 -307 64 -415 115 -50 24 -118 62 -150 85 l-59
41 13 67 c15 83 34 276 34 357 l0 61 96 12 c113 14 238 39 277 54 41 16 87 73
87 109 l0 31 -52 -7 c-81 -10 -207 -44 -252 -67 -40 -21 -142 -58 -158 -58 -4
0 -8 51 -8 113 0 68 -6 136 -15 170 -8 32 -15 61 -15 66 0 4 33 13 73 19 74
13 181 63 201 95 15 24 -19 57 -58 56 -17 0 -87 -14 -155 -30z"/>
<path d="M966 1294 c-11 -28 -6 -80 10 -125 36 -96 27 -540 -13 -657 -23 -70
-34 -153 -27 -214 6 -52 9 -58 30 -58 46 0 59 35 88 247 38 268 28 243 92 243
56 0 148 29 185 59 l22 17 -28 22 c-36 28 -62 28 -135 -3 -99 -41 -97 -43 -85
83 10 105 10 107 35 106 40 -2 146 15 174 27 31 14 33 30 8 52 -15 14 -27 15
-82 6 -34 -5 -71 -14 -81 -19 -31 -17 -37 -11 -44 43 -12 87 -44 137 -112 171
-28 14 -32 14 -37 0z"/>
</g>
</svg>
