<?xml version="1.0" standalone="no"?>
<!DOCTYPE svg PUBLIC "-//W3C//DTD SVG 20010904//EN"
 "http://www.w3.org/TR/2001/REC-SVG-20010904/DTD/svg10.dtd">
<svg version="1.0" xmlns="http://www.w3.org/2000/svg"
 width="340.000000pt" height="340.000000pt" viewBox="0 0 340.000000 340.000000"
 preserveAspectRatio="xMidYMid meet">
<metadata>
Created by potrace 1.15, written by Peter Selinger 2001-2017
</metadata>
<g transform="translate(0.000000,340.000000) scale(0.100000,-0.100000)"
fill="#000000" stroke="none">
<path d="M1970 2225 c-58 -18 -157 -44 -220 -59 -122 -27 -688 -123 -755 -128
-32 -2 -40 -7 -40 -23 0 -17 9 -21 60 -28 68 -10 270 -2 330 12 45 11 55 4 55
-44 0 -43 -23 -82 -210 -360 l-165 -245 -53 -16 c-33 -10 -78 -15 -115 -12
l-62 3 -3 -37 c-2 -20 4 -51 13 -68 9 -17 63 -194 119 -393 91 -320 105 -363
127 -375 33 -17 140 -10 259 16 125 28 339 53 463 53 59 1 115 6 139 15 22 8
58 14 79 14 36 0 39 -2 39 -29 0 -78 70 -221 126 -257 37 -25 106 -11 147 30
27 27 44 69 109 271 90 278 133 427 185 637 36 147 36 151 20 194 -25 67 -63
111 -125 141 -55 27 -61 28 -206 26 -292 -5 -644 -51 -963 -126 -79 -19 -143
-31 -143 -28 0 13 36 59 104 132 128 137 256 338 256 401 0 16 -7 42 -15 58
-14 26 -13 29 3 34 48 15 333 66 447 81 129 16 164 28 188 67 7 11 6 25 -3 47
-11 27 -17 31 -49 30 -20 -1 -83 -16 -141 -34z m372 -775 c32 -10 78 -30 103
-44 55 -33 55 -31 15 -231 -52 -254 -128 -500 -215 -691 l-35 -76 -41 61 c-22
33 -53 70 -69 81 -16 12 -37 34 -47 50 -18 32 -71 55 -101 46 -10 -3 -26 0
-37 7 -17 13 -17 21 -7 118 7 57 15 212 18 344 l7 240 -27 53 c-14 28 -25 53
-24 53 10 5 303 13 348 10 30 -2 81 -11 112 -21z m-585 -65 c36 -64 53 -161
53 -300 0 -150 -18 -414 -30 -435 -6 -11 -52 -21 -162 -36 -84 -11 -155 -19
-157 -18 -3 3 29 196 34 202 1 1 37 7 80 12 68 9 150 37 194 68 19 14 -1 48
-41 68 -38 20 -92 14 -148 -15 -76 -40 -90 -27 -90 85 l0 60 71 11 c66 11 179
57 179 74 0 16 -46 39 -80 39 -19 0 -58 -10 -88 -22 -49 -20 -54 -21 -69 -5
-9 9 -23 40 -30 69 -8 29 -25 70 -38 90 -14 20 -21 39 -17 42 18 11 265 55
297 53 11 -1 29 -18 42 -42z m-461 -90 c37 -49 52 -131 64 -345 5 -102 16
-223 24 -270 8 -46 13 -86 11 -89 -5 -5 -299 -79 -302 -77 -2 1 -21 92 -43
202 -66 323 -89 413 -121 476 -17 33 -29 62 -27 63 2 2 60 15 128 30 69 14
139 29 155 34 60 18 82 13 111 -24z"/>
</g>
</svg>
