<?xml version="1.0" standalone="no"?>
<!DOCTYPE svg PUBLIC "-//W3C//DTD SVG 20010904//EN"
 "http://www.w3.org/TR/2001/REC-SVG-20010904/DTD/svg10.dtd">
<svg version="1.0" xmlns="http://www.w3.org/2000/svg"
 width="340.000000pt" height="340.000000pt" viewBox="0 0 340.000000 340.000000"
 preserveAspectRatio="xMidYMid meet">
<metadata>
Created by potrace 1.15, written by Peter Selinger 2001-2017
</metadata>
<g transform="translate(0.000000,340.000000) scale(0.100000,-0.100000)"
fill="#000000" stroke="none">
<path d="M1492 2554 c-31 -22 -27 -51 12 -95 43 -47 49 -83 39 -249 l-8 -124
-135 -29 c-74 -15 -191 -38 -259 -51 -69 -12 -126 -27 -128 -33 -2 -6 3 -18
12 -27 23 -22 87 -21 311 9 104 14 192 25 197 25 4 0 7 -61 7 -135 l0 -134
-37 -10 c-21 -6 -96 -24 -168 -41 -170 -41 -158 -36 -145 -60 21 -38 55 -43
175 -26 61 9 125 16 143 16 l34 0 -7 -97 c-4 -54 -10 -101 -14 -104 -11 -11
-595 -153 -619 -151 -39 3 -63 -15 -53 -41 9 -25 40 -34 122 -36 78 -1 146 13
363 76 103 30 189 53 191 51 1 -2 8 -228 15 -503 14 -570 18 -618 42 -623 39
-7 69 222 72 548 2 129 3 321 4 426 l2 191 103 22 c56 11 140 25 187 31 92 11
352 12 440 2 53 -7 55 -8 58 -40 5 -50 -24 -133 -95 -276 -68 -136 -187 -341
-204 -351 -16 -10 -95 42 -129 85 -33 41 -76 70 -105 70 -8 0 -20 -12 -26 -27
-9 -24 -7 -36 15 -78 36 -69 105 -146 171 -190 51 -34 58 -36 90 -25 58 19
129 93 173 178 22 42 69 133 104 202 67 130 119 276 140 386 11 64 11 64 -19
107 -17 23 -52 55 -78 72 -60 37 -151 45 -252 21 -38 -8 -111 -20 -163 -27
-52 -6 -160 -22 -239 -35 -80 -13 -151 -24 -158 -24 -10 0 -13 24 -13 98 l0
99 76 17 c42 9 132 24 200 33 111 15 124 19 133 40 27 58 -2 103 -64 103 -16
-1 -100 -18 -185 -39 -85 -22 -158 -37 -162 -34 -14 8 0 245 15 260 8 7 221
42 381 63 217 27 236 37 236 115 0 25 -5 35 -21 40 -40 13 -129 6 -173 -14
-36 -16 -238 -66 -383 -96 l-33 -7 0 115 c0 133 -15 263 -35 293 -16 25 -73
54 -107 54 -13 0 -34 -7 -46 -16z"/>
</g>
</svg>
