<?xml version="1.0" standalone="no"?>
<!DOCTYPE svg PUBLIC "-//W3C//DTD SVG 20010904//EN"
 "http://www.w3.org/TR/2001/REC-SVG-20010904/DTD/svg10.dtd">
<svg version="1.0" xmlns="http://www.w3.org/2000/svg"
 width="340.000000pt" height="340.000000pt" viewBox="0 0 340.000000 340.000000"
 preserveAspectRatio="xMidYMid meet">
<metadata>
Created by potrace 1.15, written by Peter Selinger 2001-2017
</metadata>
<g transform="translate(0.000000,340.000000) scale(0.100000,-0.100000)"
fill="#000000" stroke="none">
<path d="M2250 2459 c-411 -48 -814 -115 -1176 -195 -111 -24 -217 -44 -235
-44 -38 0 -80 -19 -87 -38 -2 -7 20 -23 55 -40 88 -41 185 -37 317 12 115 43
228 73 338 91 73 11 79 11 88 -6 21 -38 10 -81 -42 -168 -29 -47 -84 -148
-123 -223 -57 -110 -73 -135 -85 -128 -27 17 -82 11 -106 -11 l-23 -22 23 -46
c13 -25 33 -76 44 -112 38 -124 43 -201 31 -504 -12 -304 -10 -325 35 -325 35
0 44 17 62 121 13 73 17 159 18 394 0 318 3 294 -49 470 -6 19 7 23 197 63
442 91 500 97 556 55 15 -11 37 -40 49 -64 20 -40 23 -68 33 -279 5 -129 10
-305 10 -390 0 -212 16 -378 39 -410 24 -34 52 -36 80 -6 l23 25 -11 408 c-6
224 -13 467 -14 538 -4 150 -20 199 -80 252 -43 37 -84 51 -188 59 -106 9
-189 -7 -372 -73 -86 -31 -160 -54 -163 -50 -7 7 52 98 110 167 58 69 84 121
98 200 9 48 9 66 -1 82 -7 11 -11 21 -9 23 2 1 50 9 108 18 189 29 375 39 578
32 213 -7 222 -5 222 49 0 48 -19 66 -85 82 -72 16 -59 17 -265 -7z"/>
<path d="M1699 1568 c-11 -43 -13 -98 -9 -278 2 -131 -25 -274 -81 -415 -54
-138 -112 -229 -204 -316 -69 -66 -205 -232 -205 -251 0 -15 35 -8 87 16 31
15 87 58 139 108 187 179 305 380 369 629 22 84 28 135 32 266 6 182 2 205
-54 253 -46 40 -60 38 -74 -12z"/>
<path d="M1796 724 c-10 -26 6 -44 73 -88 91 -59 243 -182 388 -314 150 -137
175 -146 208 -81 15 28 14 32 -16 90 -41 75 -101 130 -237 214 -128 79 -243
136 -339 169 -59 20 -72 22 -77 10z"/>
</g>
</svg>
