<?xml version="1.0" standalone="no"?>
<!DOCTYPE svg PUBLIC "-//W3C//DTD SVG 20010904//EN"
 "http://www.w3.org/TR/2001/REC-SVG-20010904/DTD/svg10.dtd">
<svg version="1.0" xmlns="http://www.w3.org/2000/svg"
 width="340.000000pt" height="340.000000pt" viewBox="0 0 340.000000 340.000000"
 preserveAspectRatio="xMidYMid meet">
<metadata>
Created by potrace 1.15, written by Peter Selinger 2001-2017
</metadata>
<g transform="translate(0.000000,340.000000) scale(0.100000,-0.100000)"
fill="#000000" stroke="none">
<path d="M2645 2333 c-11 -2 -81 -15 -155 -29 -74 -14 -211 -43 -305 -64 -93
-21 -200 -41 -237 -45 -65 -6 -68 -6 -68 15 0 36 -31 90 -61 105 -63 33 -237
14 -373 -41 l-66 -26 0 -62 c0 -79 25 -250 45 -307 9 -23 27 -57 40 -75 l25
-33 42 24 c24 12 78 33 121 45 57 17 83 30 96 49 21 30 96 201 107 244 6 26
10 28 38 23 61 -12 219 -27 255 -24 35 3 36 2 33 -27 -6 -58 -24 -95 -88 -181
-36 -48 -79 -117 -97 -154 l-32 -68 -50 5 c-44 5 -55 2 -82 -21 l-31 -26 34
-68 c22 -41 38 -92 44 -132 14 -105 30 -430 30 -626 0 -152 3 -184 16 -194 27
-23 45 9 55 96 33 303 40 722 13 819 -24 89 -25 87 31 101 164 44 504 71 554
45 50 -27 54 -57 54 -451 0 -237 -4 -405 -13 -479 l-13 -114 27 -24 c15 -13
31 -23 36 -23 13 0 33 41 60 120 22 63 23 80 27 521 l4 456 -42 47 c-75 85
-162 111 -279 83 -36 -9 -101 -23 -144 -32 -44 -10 -97 -23 -118 -31 -61 -21
-51 7 43 116 63 73 99 151 99 216 l0 51 73 11 c39 7 143 24 229 39 155 26 157
27 167 55 13 36 5 57 -26 69 -24 9 -81 10 -118 2z m-936 -139 c18 -6 11 -77
-19 -172 -25 -81 -38 -93 -108 -95 l-46 -2 -7 40 c-10 55 -54 170 -79 205 -11
15 -20 30 -20 33 0 6 258 -2 279 -9z"/>
<path d="M1052 2280 c-75 -26 -183 -71 -252 -104 -14 -6 -26 -22 -28 -34 -8
-56 137 -399 180 -425 24 -15 48 8 48 47 0 30 1 31 49 33 77 2 161 55 161 101
0 7 17 48 38 90 31 64 38 90 40 153 8 166 -53 202 -236 139z m91 -129 c7 -7 5
-32 -6 -83 -9 -40 -18 -90 -19 -112 l-3 -38 -69 -18 -69 -17 -59 125 c-65 136
-65 136 2 148 19 3 40 7 45 10 19 8 167 -4 178 -15z"/>
<path d="M1220 1615 c-229 -86 -233 -88 -205 -110 16 -14 35 -15 105 -10 113
9 263 39 350 71 l70 26 0 39 c0 83 -65 79 -320 -16z"/>
<path d="M2268 1503 c-7 -17 -12 -95 -13 -203 -3 -205 -24 -329 -84 -480 -61
-156 -139 -278 -275 -428 -50 -55 -66 -80 -66 -102 0 -17 4 -30 8 -30 19 0
136 83 182 130 27 26 79 94 115 149 153 234 238 489 251 755 5 103 4 114 -18
156 -13 24 -38 53 -55 63 l-33 19 -12 -29z"/>
<path d="M1440 1374 c-129 -35 -369 -109 -532 -164 -163 -55 -304 -100 -312
-100 -22 0 -28 -17 -15 -41 10 -20 17 -21 97 -17 56 3 108 13 147 28 126 47
222 79 264 89 l43 9 -6 -51 c-8 -60 -43 -238 -52 -260 -8 -22 57 -40 130 -35
44 3 81 13 131 38 72 35 154 45 176 23 25 -25 -36 -268 -102 -408 l-31 -65
-28 20 c-56 40 -111 59 -136 48 -13 -6 -25 -17 -28 -25 -9 -23 23 -80 78 -139
47 -49 56 -54 95 -54 69 0 101 27 150 126 59 119 107 271 128 396 16 102 16
108 -1 146 -24 53 -66 92 -109 102 -40 9 -83 2 -205 -34 l-84 -24 6 21 c13 53
27 164 24 191 -3 27 1 30 52 48 78 27 230 56 333 64 71 6 92 11 112 30 14 13
25 32 25 43 0 27 -47 61 -84 60 -17 0 -137 -29 -266 -65z"/>
<path d="M2347 636 c5 -24 385 -383 421 -398 52 -21 86 -2 84 46 -3 92 -212
261 -427 346 -41 16 -77 30 -79 30 -2 0 -1 -11 1 -24z"/>
</g>
</svg>
