<?xml version="1.0" standalone="no"?>
<!DOCTYPE svg PUBLIC "-//W3C//DTD SVG 20010904//EN"
 "http://www.w3.org/TR/2001/REC-SVG-20010904/DTD/svg10.dtd">
<svg version="1.0" xmlns="http://www.w3.org/2000/svg"
 width="340.000000pt" height="340.000000pt" viewBox="0 0 340.000000 340.000000"
 preserveAspectRatio="xMidYMid meet">
<metadata>
Created by potrace 1.15, written by Peter Selinger 2001-2017
</metadata>
<g transform="translate(0.000000,340.000000) scale(0.100000,-0.100000)"
fill="#000000" stroke="none">
<path d="M2415 2729 c-27 -5 -165 -31 -305 -58 -140 -27 -275 -53 -300 -56
-25 -4 -61 -15 -79 -25 l-35 -17 32 -17 c38 -20 83 -22 207 -11 l90 8 -17 -24
c-34 -48 -117 -185 -139 -231 l-22 -47 -29 20 c-16 12 -36 18 -45 15 -18 -7
-17 -26 18 -324 21 -177 23 -183 46 -188 45 -12 58 15 61 133 3 93 -10 240
-24 278 -11 27 241 84 436 100 76 6 89 4 110 -13 23 -19 24 -21 24 -212 l1
-192 -40 7 c-79 14 -100 12 -100 -10 0 -30 129 -132 230 -180 116 -55 131 -59
150 -32 34 49 13 82 -97 146 -35 21 -62 43 -61 52 1 8 14 43 29 79 26 61 28
74 28 210 0 163 -9 194 -73 237 -66 45 -233 38 -383 -17 -89 -33 -99 -25 -48
38 31 40 60 110 60 148 0 27 -8 25 230 54 140 17 168 24 183 41 24 30 21 54
-9 78 -29 22 -50 24 -129 10z"/>
<path d="M1163 2699 c-18 -18 -16 -32 7 -71 43 -73 76 -231 63 -299 -5 -27
-64 -69 -96 -69 -23 0 -29 15 -38 100 -12 125 -49 170 -140 170 l-42 0 7 -42
c4 -23 16 -58 26 -77 16 -30 46 -188 37 -197 -7 -7 -295 -84 -315 -84 -18 0
-23 -5 -20 -22 8 -56 149 -47 403 26 88 25 163 46 166 46 4 0 7 -46 7 -103 1
-56 8 -136 16 -177 9 -41 12 -77 8 -81 -4 -4 -115 -89 -247 -189 -132 -100
-240 -187 -240 -193 0 -26 69 -6 167 48 215 119 447 287 634 460 100 92 118
128 92 183 -12 23 -19 27 -57 27 -43 0 -46 -2 -75 -51 -29 -49 -144 -180 -150
-173 -4 5 -26 227 -26 262 0 21 5 27 22 27 74 0 278 76 278 104 0 28 -46 49
-93 42 -60 -8 -147 -23 -184 -32 -33 -6 -33 -6 -33 34 0 54 17 68 89 75 108
12 241 73 241 112 0 7 -14 25 -32 40 -46 39 -96 31 -191 -29 -41 -25 -77 -46
-80 -46 -4 0 -9 17 -12 38 -16 95 -58 142 -132 149 -31 3 -52 0 -60 -8z"/>
<path d="M2130 2183 c-18 -23 -20 -36 -15 -70 5 -38 0 -54 -54 -160 -33 -65
-82 -154 -110 -198 -53 -86 -53 -105 -1 -105 21 0 45 18 104 80 42 45 90 102
106 127 62 98 102 251 79 305 -22 54 -75 64 -109 21z"/>
<path d="M920 1989 c-94 -96 -120 -142 -100 -179 8 -15 21 -20 50 -20 33 0 44
6 78 45 52 59 82 125 89 192 8 77 -11 70 -117 -38z"/>
<path d="M1578 1850 c-21 -23 -38 -48 -38 -56 0 -8 -37 -54 -83 -103 -116
-121 -217 -242 -228 -268 -10 -27 -16 -28 -55 -9 -72 34 -116 27 -94 -15 7
-13 23 -36 36 -50 13 -14 64 -113 113 -220 l89 -194 48 0 c27 0 61 3 77 8 48
13 29 -13 -92 -130 l-116 -112 -155 -40 c-246 -63 -294 -78 -297 -88 -2 -5 3
-18 11 -28 12 -17 26 -20 103 -20 74 1 114 8 253 48 155 44 401 97 516 112 50
6 52 6 59 -22 4 -15 6 -103 6 -195 -1 -159 11 -271 39 -371 10 -33 13 -36 30
-27 51 28 55 45 61 348 4 156 9 285 10 287 2 2 51 9 108 15 131 16 491 8 619
-14 105 -17 136 -11 154 29 8 18 8 31 0 49 -9 20 -24 26 -105 41 -87 17 -117
17 -378 6 -156 -7 -309 -16 -339 -20 -30 -5 -59 -5 -63 -1 -4 4 -6 51 -5 106
l3 99 144 12 c171 14 193 24 201 94 3 27 16 58 32 80 37 48 113 210 134 287
l17 62 -23 25 c-66 70 -210 102 -320 71 -30 -9 -116 -27 -190 -41 -74 -13
-190 -40 -258 -58 -134 -37 -158 -33 -99 17 19 17 58 50 85 74 56 47 89 105
98 174 6 40 4 47 -17 62 -35 24 -48 20 -91 -24z m603 -320 c13 -7 19 -21 19
-43 0 -76 -82 -317 -118 -344 -9 -7 -43 -13 -76 -13 -57 -1 -143 -10 -244 -26
l-42 -7 14 40 c8 22 23 58 34 79 19 37 24 40 84 51 72 12 158 49 158 68 0 34
-70 57 -130 44 -27 -6 -46 -6 -54 0 -15 12 -40 97 -32 109 10 17 100 34 216
42 63 4 123 8 133 8 10 1 27 -3 38 -8z m-526 -85 c27 -27 30 -37 15 -65 -17
-32 -73 -58 -148 -68 -71 -10 -132 -36 -139 -59 -9 -27 114 -41 192 -23 31 7
43 6 54 -5 12 -11 8 -25 -25 -91 l-39 -78 -70 -18 c-38 -9 -80 -19 -91 -22
-19 -5 -22 0 -28 46 -10 77 -57 188 -109 261 l-47 65 28 7 c15 3 52 17 82 31
35 15 88 27 145 32 147 15 153 14 180 -13z m65 -491 c16 -40 12 -140 -5 -157
-8 -8 -47 -20 -87 -27 -40 -6 -95 -15 -123 -20 -27 -4 -51 -7 -53 -5 -1 1 17
26 40 55 24 29 57 71 74 93 33 42 98 87 127 87 10 0 22 -11 27 -26z"/>
</g>
</svg>
