<?xml version="1.0" standalone="no"?>
<!DOCTYPE svg PUBLIC "-//W3C//DTD SVG 20010904//EN"
 "http://www.w3.org/TR/2001/REC-SVG-20010904/DTD/svg10.dtd">
<svg version="1.0" xmlns="http://www.w3.org/2000/svg"
 width="340.000000pt" height="340.000000pt" viewBox="0 0 340.000000 340.000000"
 preserveAspectRatio="xMidYMid meet">
<metadata>
Created by potrace 1.15, written by Peter Selinger 2001-2017
</metadata>
<g transform="translate(0.000000,340.000000) scale(0.100000,-0.100000)"
fill="#000000" stroke="none">
<path d="M2162 2285 c-18 -13 -23 -25 -20 -52 l3 -35 -122 -68 c-155 -86 -295
-180 -290 -194 14 -43 196 9 435 125 129 63 145 73 158 105 20 49 8 84 -38
107 -55 27 -99 31 -126 12z"/>
<path d="M885 2273 c-11 -11 -15 -25 -11 -42 21 -88 19 -102 -37 -231 -100
-230 -181 -381 -318 -591 -49 -74 -89 -141 -89 -147 0 -28 42 -8 86 41 113
125 240 303 374 520 91 150 118 210 131 288 14 90 4 146 -32 164 -37 20 -84
19 -104 -2z"/>
<path d="M1536 2014 c-10 -27 -6 -68 9 -98 22 -43 38 -215 30 -336 -18 -300
-157 -687 -368 -1025 -105 -168 -117 -189 -117 -212 0 -41 28 -25 96 55 93
109 219 299 275 417 42 89 179 451 179 475 0 34 38 -3 178 -179 88 -109 165
-209 172 -221 11 -20 6 -31 -37 -93 -67 -99 -226 -262 -325 -333 -99 -71 -148
-117 -148 -137 0 -21 27 -13 125 34 127 61 296 200 426 351 l58 67 42 -57 c74
-100 194 -234 306 -343 111 -110 113 -111 233 -138 59 -14 236 -14 261 -1 12
7 19 21 19 39 0 27 -4 29 -132 70 -73 24 -160 58 -194 76 -133 74 -266 189
-396 343 -75 89 -91 125 -69 147 25 26 265 589 276 648 14 73 -41 137 -117
137 -66 0 -195 -42 -313 -99 -149 -74 -191 -91 -220 -91 -25 0 -50 -24 -41
-38 8 -13 172 14 316 53 69 18 146 36 173 39 41 5 47 3 47 -13 0 -57 -73 -253
-184 -495 l-36 -78 -43 58 c-88 119 -294 294 -346 294 -26 0 -26 14 -1 110 40
150 45 274 18 435 -13 82 -30 109 -81 134 -52 25 -63 26 -71 5z"/>
<path d="M1224 1926 c-106 -33 -380 -202 -371 -229 7 -23 47 -18 135 17 94 38
188 63 198 54 10 -11 -33 -94 -76 -150 -24 -29 -51 -73 -62 -98 -22 -52 -39
-130 -28 -130 24 0 139 103 200 178 89 110 130 191 137 270 5 55 4 61 -18 75
-37 23 -70 26 -115 13z"/>
<path d="M815 1510 c-16 -18 -16 -24 -4 -67 10 -36 14 -110 13 -288 -1 -253
-10 -383 -45 -633 l-22 -153 23 -24 c30 -32 80 -33 115 -2 30 26 394 718 402
765 10 56 -20 38 -101 -64 -93 -116 -178 -241 -236 -347 -24 -44 -46 -75 -51
-70 -5 5 -3 69 6 145 18 175 39 585 33 649 -9 88 -87 140 -133 89z"/>
</g>
</svg>
