<?xml version="1.0" standalone="no"?>
<!DOCTYPE svg PUBLIC "-//W3C//DTD SVG 20010904//EN"
 "http://www.w3.org/TR/2001/REC-SVG-20010904/DTD/svg10.dtd">
<svg version="1.0" xmlns="http://www.w3.org/2000/svg"
 width="340.000000pt" height="340.000000pt" viewBox="0 0 340.000000 340.000000"
 preserveAspectRatio="xMidYMid meet">
<metadata>
Created by potrace 1.15, written by Peter Selinger 2001-2017
</metadata>
<g transform="translate(0.000000,340.000000) scale(0.100000,-0.100000)"
fill="#000000" stroke="none">
<path d="M1039 2334 c-27 -8 -30 -44 -7 -96 13 -31 18 -57 14 -74 -11 -42
-185 -397 -255 -519 -35 -60 -107 -175 -160 -255 -123 -186 -130 -198 -131
-238 l0 -33 31 18 c64 37 138 126 242 291 l107 169 133 32 c73 17 160 43 193
56 32 14 71 25 86 25 l27 0 -50 -67 c-50 -66 -135 -228 -141 -268 -2 -15 3
-21 24 -23 20 -2 38 7 72 38 91 84 266 330 266 374 0 10 -18 36 -40 58 -38 39
-42 40 -93 36 -41 -4 -94 -26 -244 -101 -106 -53 -193 -94 -193 -91 0 13 37
75 76 128 57 76 145 251 180 359 25 78 26 89 14 112 -26 49 -101 83 -151 69z"/>
<path d="M1977 2305 c-10 -25 -8 -74 3 -95 8 -16 2 -37 -31 -101 -104 -208
-307 -515 -410 -622 -51 -53 -47 -52 -145 -32 -22 5 -34 2 -44 -10 -16 -19
-12 -35 40 -175 71 -191 103 -394 98 -617 -3 -123 -1 -142 17 -172 11 -19 24
-35 30 -35 5 -1 20 14 32 33 20 30 23 46 23 130 0 208 -48 676 -75 727 -7 15
-11 32 -9 39 6 15 233 85 389 120 157 36 354 63 545 75 206 14 251 9 299 -35
l36 -34 -2 -103 c-1 -117 -40 -395 -83 -608 -33 -157 -85 -368 -93 -377 -3 -3
-33 4 -66 15 -53 18 -62 18 -80 5 -34 -23 -27 -67 19 -117 73 -79 151 -95 211
-43 23 19 31 44 62 187 94 436 153 780 172 1010 l6 76 -53 53 c-101 102 -225
138 -368 106 -41 -9 -149 -29 -240 -45 -180 -31 -375 -78 -484 -116 -38 -13
-75 -24 -83 -24 -7 0 28 51 78 113 97 120 277 384 329 482 39 73 38 132 -3
172 -32 32 -111 44 -120 18z"/>
<path d="M917 1493 c-7 -34 4 -88 24 -123 11 -20 14 -79 13 -285 -1 -262 -5
-316 -46 -569 l-22 -138 27 -24 c46 -39 70 -32 128 38 67 80 190 329 215 432
10 42 15 79 11 82 -9 9 -98 -58 -123 -93 -12 -16 -33 -52 -48 -81 -35 -68 -51
-68 -42 1 33 275 31 638 -4 707 -21 41 -55 68 -99 76 -25 5 -29 3 -34 -23z"/>
<path d="M2115 1335 c-82 -24 -176 -53 -209 -64 l-58 -21 -31 26 c-32 27 -64
28 -80 3 -7 -11 0 -41 26 -110 30 -80 76 -235 117 -396 10 -39 14 -43 41 -43
25 0 33 6 44 33 14 34 15 34 97 40 46 4 109 7 141 7 98 0 142 38 117 100 -11
26 -9 34 17 77 69 112 119 290 94 336 -19 36 -63 57 -118 57 -26 -1 -115 -21
-198 -45z m173 -116 c3 -16 -98 -254 -115 -269 -4 -4 -54 -23 -110 -42 l-102
-35 -12 71 c-6 39 -22 108 -35 154 -13 45 -24 86 -24 90 0 5 53 14 118 21 64
7 135 17 157 21 63 13 119 8 123 -11z"/>
</g>
</svg>
