<?xml version="1.0" standalone="no"?>
<!DOCTYPE svg PUBLIC "-//W3C//DTD SVG 20010904//EN"
 "http://www.w3.org/TR/2001/REC-SVG-20010904/DTD/svg10.dtd">
<svg version="1.0" xmlns="http://www.w3.org/2000/svg"
 width="340.000000pt" height="340.000000pt" viewBox="0 0 340.000000 340.000000"
 preserveAspectRatio="xMidYMid meet">
<metadata>
Created by potrace 1.15, written by Peter Selinger 2001-2017
</metadata>
<g transform="translate(0.000000,340.000000) scale(0.100000,-0.100000)"
fill="#000000" stroke="none">
<path d="M1792 2384 c-22 -10 -33 -41 -22 -68 8 -21 1 -46 -36 -138 -104 -259
-242 -484 -441 -720 -76 -89 -103 -138 -103 -183 0 -24 2 -25 23 -14 53 28
227 221 328 364 101 143 233 347 245 380 5 12 57 -34 193 -167 210 -206 431
-404 507 -454 95 -61 224 -92 335 -79 52 6 62 11 70 32 15 41 -4 59 -98 89
-203 65 -414 191 -628 377 -49 43 -144 119 -210 169 -66 50 -122 92 -124 94
-2 1 6 16 18 33 31 44 51 107 51 164 0 62 -19 117 -40 117 -8 0 -24 2 -35 5
-11 2 -26 1 -33 -1z"/>
<path d="M922 2284 c-28 -19 -28 -44 0 -79 27 -34 24 -41 -81 -260 -85 -175
-175 -328 -282 -476 -38 -53 -76 -112 -84 -132 -16 -38 -20 -97 -7 -97 14 0
91 67 124 108 18 22 59 80 90 129 31 48 78 111 105 140 47 51 51 53 163 82 63
17 136 37 163 45 26 8 47 13 47 11 0 -3 -16 -26 -37 -52 -63 -83 -133 -253
-103 -253 37 0 114 57 190 141 98 110 130 171 130 251 0 53 -2 58 -25 64 -14
3 -54 4 -89 2 -53 -3 -74 -10 -123 -41 -32 -21 -98 -58 -146 -83 -83 -42 -88
-43 -82 -22 10 32 61 115 101 164 18 22 46 67 61 100 24 51 28 71 28 151 0 80
-3 94 -20 107 -26 20 -95 20 -123 0z"/>
<path d="M1985 1593 c-53 -13 -240 -76 -290 -98 -31 -14 -69 -25 -85 -25 -31
0 -100 -28 -100 -41 0 -15 114 -31 171 -25 l57 7 17 -43 c10 -24 20 -77 23
-119 l4 -77 -33 -7 c-45 -10 -433 -125 -438 -131 -11 -10 35 -44 60 -44 24 0
292 56 376 79 31 9 33 8 40 -27 10 -49 10 -619 0 -656 -7 -26 -9 -27 -25 -13
-43 39 -112 28 -112 -18 0 -59 45 -121 112 -156 51 -26 63 -24 106 19 63 63
65 78 57 509 -6 322 -5 383 6 383 88 0 296 53 380 95 44 23 42 20 29 45 -16
29 -48 39 -90 27 -60 -17 -325 -65 -332 -60 -5 2 -8 28 -8 56 0 29 -7 78 -14
111 -14 57 -13 59 7 64 31 8 167 78 196 101 39 30 22 51 -41 50 -29 -1 -62 -3
-73 -6z"/>
<path d="M800 1531 c-15 -29 -12 -85 8 -133 15 -37 17 -77 16 -283 0 -244 -9
-363 -45 -585 -19 -122 -19 -125 -1 -150 23 -31 60 -36 89 -13 12 10 63 92
113 183 51 91 122 217 160 280 68 115 92 171 106 245 l7 40 -44 -40 c-80 -72
-147 -157 -208 -264 -33 -58 -63 -114 -66 -124 -4 -9 -10 -17 -14 -17 -9 0 6
300 23 458 11 98 12 157 6 209 -11 85 -44 183 -67 201 -26 19 -71 15 -83 -7z"/>
<path d="M1477 903 c-8 -10 -54 -76 -101 -147 -74 -110 -86 -135 -86 -170 0
-23 6 -51 14 -62 15 -19 16 -19 61 5 26 14 58 39 71 57 42 54 84 178 84 244 0
88 -11 107 -43 73z"/>
<path d="M2092 843 c2 -18 14 -34 35 -48 18 -11 52 -32 75 -47 24 -14 89 -69
146 -122 117 -108 146 -121 213 -91 45 21 45 26 0 109 -34 63 -94 107 -201
147 -67 24 -252 79 -268 79 -2 0 -2 -12 0 -27z"/>
</g>
</svg>
