<?xml version="1.0" standalone="no"?>
<!DOCTYPE svg PUBLIC "-//W3C//DTD SVG 20010904//EN"
 "http://www.w3.org/TR/2001/REC-SVG-20010904/DTD/svg10.dtd">
<svg version="1.0" xmlns="http://www.w3.org/2000/svg"
 width="340.000000pt" height="340.000000pt" viewBox="0 0 340.000000 340.000000"
 preserveAspectRatio="xMidYMid meet">
<metadata>
Created by potrace 1.15, written by Peter Selinger 2001-2017
</metadata>
<g transform="translate(0.000000,340.000000) scale(0.100000,-0.100000)"
fill="#000000" stroke="none">
<path d="M1745 2532 c-37 -7 -47 -23 -40 -63 9 -53 -12 -88 -120 -199 -86 -89
-151 -174 -189 -247 -21 -42 -21 -43 17 -43 36 0 61 19 248 191 l94 87 108 4
c59 2 107 1 107 -2 0 -3 -23 -28 -51 -55 -53 -52 -155 -197 -178 -252 -12 -29
-24 -36 -132 -74 -65 -23 -119 -45 -119 -50 0 -13 36 -29 64 -29 13 0 45 9 71
20 55 23 93 25 119 5 17 -13 18 -23 13 -87 -3 -40 -16 -102 -29 -138 -24 -67
-47 -88 -119 -105 -25 -6 -27 -4 -33 37 -8 54 -44 133 -82 177 -58 69 -140
111 -158 82 -3 -5 5 -31 18 -58 14 -26 55 -114 91 -195 90 -198 82 -189 141
-150 27 17 50 29 52 27 14 -14 -22 -80 -108 -196 -99 -134 -250 -373 -250
-397 0 -24 38 -12 63 21 13 17 53 64 87 102 94 104 211 265 287 393 69 116 96
142 147 142 16 0 27 -7 31 -19 3 -11 5 -98 3 -193 -2 -156 0 -177 18 -218 29
-63 91 -115 161 -137 79 -24 404 -25 508 -1 138 31 159 39 196 77 48 48 61 96
50 192 -9 82 -29 129 -63 154 -23 15 -23 15 -47 -36 -16 -36 -25 -77 -29 -136
l-5 -85 -44 -19 c-92 -39 -165 -53 -283 -52 -97 0 -128 4 -197 27 -45 15 -89
33 -97 42 -32 32 -57 144 -55 244 1 52 -1 112 -5 133 -10 46 2 63 52 72 46 8
120 40 144 62 17 15 16 17 -2 41 -11 13 -20 29 -20 34 0 4 26 37 58 71 64 69
108 130 142 196 l22 45 -40 37 c-44 42 -107 64 -155 54 -27 -6 -243 -64 -299
-81 -38 -11 -15 22 68 99 87 82 191 224 196 267 2 17 -6 30 -31 47 -47 32
-113 31 -166 -2 -61 -38 -118 -65 -137 -65 -16 0 -16 3 2 33 51 83 -7 186 -95
169z m475 -606 c0 -3 -22 -35 -50 -71 -27 -36 -66 -101 -86 -144 l-37 -78 -88
-17 c-49 -9 -95 -19 -103 -22 -11 -4 -9 11 9 63 18 48 25 90 25 144 l0 75 49
18 c27 9 71 21 98 26 53 8 183 13 183 6z"/>
<path d="M933 2313 c-3 -9 -1 -36 5 -60 7 -24 12 -53 12 -66 0 -12 -34 -85
-76 -162 -170 -315 -326 -626 -320 -640 9 -26 24 -17 72 43 84 105 345 506
389 597 88 182 96 239 38 285 -33 26 -111 28 -120 3z"/>
<path d="M1137 1962 c-89 -47 -237 -150 -237 -165 0 -4 11 -12 24 -18 19 -9
36 -5 94 20 39 17 92 34 118 38 l47 6 -52 -75 c-51 -76 -134 -239 -146 -290
-9 -34 15 -47 51 -28 67 36 314 414 314 480 0 12 -13 35 -29 51 -42 42 -78 38
-184 -19z"/>
<path d="M814 1554 c-13 -30 -13 -44 -3 -83 36 -140 8 -549 -60 -883 -18 -84
-18 -95 -4 -130 20 -50 49 -57 104 -26 33 18 54 44 105 130 35 59 79 139 99
178 34 67 125 282 125 294 0 9 -43 7 -55 -2 -19 -13 -136 -176 -187 -260 -27
-46 -52 -82 -54 -80 -5 6 15 230 33 358 35 256 26 468 -23 517 -34 34 -62 30
-80 -13z"/>
<path d="M1745 846 c-17 -12 -15 -17 41 -73 62 -63 134 -106 203 -122 36 -8
43 -6 51 9 28 53 2 99 -78 139 -101 50 -187 69 -217 47z"/>
<path d="M1710 411 c0 -21 22 -40 110 -98 30 -20 101 -70 158 -112 107 -79
124 -84 170 -55 39 26 29 62 -36 124 -74 70 -157 114 -263 140 -109 26 -139
26 -139 1z"/>
</g>
</svg>
