<?xml version="1.0" standalone="no"?>
<!DOCTYPE svg PUBLIC "-//W3C//DTD SVG 20010904//EN"
 "http://www.w3.org/TR/2001/REC-SVG-20010904/DTD/svg10.dtd">
<svg version="1.0" xmlns="http://www.w3.org/2000/svg"
 width="340.000000pt" height="340.000000pt" viewBox="0 0 340.000000 340.000000"
 preserveAspectRatio="xMidYMid meet">
<metadata>
Created by potrace 1.15, written by Peter Selinger 2001-2017
</metadata>
<g transform="translate(0.000000,340.000000) scale(0.100000,-0.100000)"
fill="#000000" stroke="none">
<path d="M1838 2479 c-23 -13 -23 -30 2 -62 35 -44 26 -68 -62 -174 -121 -145
-278 -357 -278 -375 0 -24 24 -28 56 -9 16 10 79 66 140 124 127 122 92 108
407 162 193 34 372 77 391 95 12 12 -13 79 -34 90 -26 14 -57 13 -110 -5 -25
-8 -106 -33 -180 -56 -74 -22 -168 -56 -207 -74 -40 -19 -73 -30 -73 -25 0 5
22 32 49 62 76 84 99 146 71 199 -24 44 -129 73 -172 48z"/>
<path d="M1314 2369 c-22 -17 -86 -45 -141 -64 -103 -34 -254 -105 -326 -153
l-40 -26 32 -14 c28 -11 42 -10 93 3 33 8 76 15 97 15 l37 0 12 -92 c11 -94 6
-208 -10 -208 -4 0 -132 -50 -283 -110 -152 -60 -289 -110 -305 -110 -19 0
-33 -7 -40 -20 -15 -29 6 -35 110 -34 96 1 138 14 364 113 77 34 141 60 142
58 18 -18 -146 -214 -377 -452 -166 -170 -190 -201 -165 -211 16 -6 93 43 212
137 96 75 329 308 339 338 18 57 25 7 25 -178 l0 -198 -80 -37 c-43 -20 -84
-36 -90 -36 -22 0 -9 -31 18 -41 21 -9 42 -8 92 5 67 17 209 36 269 36 l34 0
-6 -218 c-5 -181 -26 -407 -39 -416 -1 -1 -38 -8 -82 -14 -43 -7 -106 -23
-140 -37 -33 -14 -65 -27 -71 -28 -6 -1 -11 65 -13 181 l-2 182 53 0 c60 0
131 21 166 50 29 25 16 45 -38 60 -40 10 -71 4 -134 -26 -45 -22 -57 -12 -57
46 0 19 -11 58 -24 86 -25 53 -100 127 -126 122 -23 -5 -24 -63 -2 -101 21
-34 56 -250 88 -547 9 -85 18 -156 19 -157 1 -2 30 8 66 21 55 20 269 76 292
76 4 0 7 -9 7 -19 0 -26 15 -34 38 -22 38 20 112 324 131 541 22 232 11 283
-65 328 -34 20 -49 23 -128 19 l-88 -3 6 50 c3 28 9 104 13 169 4 79 10 116
17 113 67 -27 202 -77 243 -89 60 -18 70 -12 79 45 5 27 1 38 -20 59 -37 37
-89 49 -211 49 l-108 0 6 69 c7 88 17 107 61 114 52 8 104 36 142 75 39 40 34
54 -22 72 -29 10 -41 8 -90 -14 -31 -14 -60 -26 -64 -26 -5 0 -10 40 -12 88
-3 77 -7 94 -31 131 -16 24 -27 44 -25 45 2 2 46 17 98 34 52 17 121 42 153
56 54 24 57 28 57 61 0 25 -8 44 -25 60 -33 34 -79 32 -131 -6z"/>
<path d="M2145 1985 c-138 -35 -231 -66 -332 -109 -37 -15 -81 -26 -108 -26
-53 0 -56 -10 -25 -92 17 -45 96 -488 88 -492 -83 -36 -49 -64 56 -45 36 6 70
9 75 7 11 -3 -24 -85 -77 -183 -18 -33 -66 -103 -108 -155 -86 -109 -197 -269
-244 -353 -26 -46 -30 -61 -20 -67 33 -20 58 3 272 253 93 108 171 197 173
197 3 0 156 -177 182 -210 10 -13 -12 -41 -141 -171 -181 -185 -216 -227 -196
-239 8 -5 25 -4 41 3 34 14 240 173 326 251 33 31 65 56 70 56 5 0 26 -22 46
-49 51 -66 178 -186 257 -243 96 -68 223 -129 296 -141 65 -11 166 1 187 22 5
5 -6 25 -27 49 -26 29 -58 48 -119 72 -117 46 -257 121 -350 187 -84 60 -217
179 -217 194 0 5 29 48 65 96 67 91 150 247 161 301 16 79 -30 118 -127 109
-40 -3 -85 -19 -151 -51 -51 -25 -111 -52 -133 -59 l-40 -15 0 89 0 89 70 20
c39 12 94 29 122 37 51 16 54 16 75 -4 42 -38 60 -18 96 103 69 239 107 427
96 477 -28 132 -106 153 -339 92z m197 -100 c9 -4 13 -18 10 -43 -6 -67 -43
-326 -54 -374 -9 -44 -12 -48 -46 -54 -83 -14 -237 -56 -313 -85 -44 -17 -82
-29 -85 -26 -2 2 -7 63 -11 136 l-6 131 54 0 c88 0 279 61 279 88 0 5 -14 15
-31 23 -28 11 -47 9 -163 -19 -72 -18 -134 -32 -137 -32 -4 0 -12 21 -18 46
-7 26 -23 68 -36 93 l-23 47 106 22 c184 37 435 62 474 47z m-28 -824 c10 -16
-13 -63 -86 -173 l-70 -107 -82 72 c-44 40 -96 83 -113 95 -18 13 -33 30 -33
37 0 17 43 47 62 44 7 -2 45 4 83 14 91 21 109 24 177 26 31 0 59 -3 62 -8z"/>
</g>
</svg>
