<?xml version="1.0" standalone="no"?>
<!DOCTYPE svg PUBLIC "-//W3C//DTD SVG 20010904//EN"
 "http://www.w3.org/TR/2001/REC-SVG-20010904/DTD/svg10.dtd">
<svg version="1.0" xmlns="http://www.w3.org/2000/svg"
 width="340.000000pt" height="340.000000pt" viewBox="0 0 340.000000 340.000000"
 preserveAspectRatio="xMidYMid meet">
<metadata>
Created by potrace 1.15, written by Peter Selinger 2001-2017
</metadata>
<g transform="translate(0.000000,340.000000) scale(0.100000,-0.100000)"
fill="#000000" stroke="none">
<path d="M1941 2326 c-17 -20 1 -51 39 -71 16 -8 57 -35 92 -59 35 -24 91 -58
126 -75 l62 -31 25 24 c14 14 25 34 25 45 0 57 -148 152 -265 171 -79 13 -90
13 -104 -4z"/>
<path d="M1087 2229 c-119 -40 -295 -113 -311 -129 -4 -4 4 -16 18 -25 25 -16
30 -16 118 9 51 14 143 35 205 46 172 33 178 24 139 -192 -23 -124 -50 -307
-70 -470 -6 -50 2 -63 33 -53 28 9 45 58 125 378 53 209 74 307 69 330 -16 87
-83 147 -164 147 -25 0 -95 -18 -162 -41z"/>
<path d="M2390 2020 c-243 -42 -424 -80 -645 -137 -77 -20 -159 -37 -183 -38
-49 -2 -66 -14 -56 -40 7 -16 18 -17 133 -12 69 3 177 15 240 28 112 21 114
21 128 3 29 -39 27 -66 -7 -132 -48 -92 -176 -282 -259 -384 -61 -75 -71 -93
-71 -126 0 -52 26 -75 84 -74 33 1 90 23 236 92 106 49 194 89 196 87 1 -1
-23 -49 -54 -105 -95 -171 -301 -435 -519 -663 -82 -87 -113 -126 -113 -144 0
-14 3 -25 6 -25 21 0 175 120 255 200 202 200 528 643 716 975 61 107 69 140
49 188 -21 52 -51 77 -90 77 -45 0 -54 -15 -53 -85 1 -53 -4 -71 -48 -158 -64
-126 -97 -167 -135 -167 -49 0 -167 -28 -247 -60 -42 -16 -79 -28 -81 -26 -8
9 21 49 104 143 102 116 147 194 173 294 18 69 18 76 3 102 -22 36 -17 39 112
66 131 28 308 42 417 35 68 -5 91 -3 116 10 37 18 49 47 33 76 -28 52 -137 52
-440 0z"/>
<path d="M887 1913 c-4 -3 -7 -41 -7 -83 0 -80 -30 -259 -80 -481 -17 -72 -30
-144 -30 -160 0 -98 82 -124 201 -63 67 34 181 64 272 71 l77 6 0 -94 c0 -201
-47 -481 -117 -702 l-15 -49 -32 30 c-40 38 -68 52 -105 52 -41 0 -45 -11 -27
-74 17 -59 78 -131 135 -160 27 -15 34 -15 58 -2 58 30 97 92 111 177 5 30 24
107 41 172 52 196 91 473 91 643 0 59 -2 63 -35 88 -83 64 -182 74 -288 30
-56 -23 -205 -64 -234 -64 -8 0 -7 14 3 53 31 116 46 278 41 434 -4 151 -12
183 -42 183 -6 0 -15 -3 -18 -7z"/>
<path d="M2564 1379 c-12 -21 -34 -114 -34 -151 0 -45 -93 -235 -179 -363 -95
-144 -182 -245 -332 -387 -124 -118 -191 -200 -175 -215 8 -8 109 42 173 85
105 71 302 290 456 504 75 105 185 290 203 341 31 87 8 154 -62 183 -40 17
-41 17 -50 3z"/>
<path d="M1060 929 c-195 -84 -529 -217 -559 -224 -18 -4 -39 -17 -47 -30 -13
-21 -13 -27 0 -59 l15 -36 70 0 c81 0 104 7 186 59 33 21 98 59 145 86 160 90
331 207 328 224 -5 27 -39 22 -138 -20z"/>
<path d="M2404 642 c8 -15 72 -80 143 -143 70 -62 165 -149 211 -193 76 -71
86 -78 114 -72 17 3 37 11 45 17 50 42 -44 166 -217 284 -73 51 -253 135 -288
135 -21 0 -22 -1 -8 -28z"/>
</g>
</svg>
