<?xml version="1.0" standalone="no"?>
<!DOCTYPE svg PUBLIC "-//W3C//DTD SVG 20010904//EN"
 "http://www.w3.org/TR/2001/REC-SVG-20010904/DTD/svg10.dtd">
<svg version="1.0" xmlns="http://www.w3.org/2000/svg"
 width="340.000000pt" height="340.000000pt" viewBox="0 0 340.000000 340.000000"
 preserveAspectRatio="xMidYMid meet">
<metadata>
Created by potrace 1.15, written by Peter Selinger 2001-2017
</metadata>
<g transform="translate(0.000000,340.000000) scale(0.100000,-0.100000)"
fill="#000000" stroke="none">
<path d="M1910 2283 c-8 -2 -21 -6 -28 -9 -23 -7 4 -38 57 -68 66 -35 177 -59
242 -50 47 6 49 8 49 39 0 40 -34 73 -87 86 -40 9 -207 11 -233 2z"/>
<path d="M1095 2196 c-44 -18 -116 -51 -160 -73 -44 -22 -92 -45 -107 -51 -30
-13 -35 -24 -15 -40 14 -11 279 27 314 46 30 16 63 15 83 -3 20 -18 20 -15
-18 -365 -14 -135 -26 -272 -27 -305 l0 -60 30 0 30 0 33 130 c18 72 44 195
57 275 14 80 29 173 35 206 23 140 7 200 -69 251 -46 31 -90 29 -186 -11z"/>
<path d="M2356 2104 c-153 -26 -344 -70 -474 -110 -71 -21 -89 -23 -118 -14
-72 24 -95 -11 -75 -115 20 -113 14 -231 -23 -414 -58 -287 -127 -497 -229
-701 l-57 -115 5 86 c3 47 12 126 21 175 19 107 14 266 -11 314 -22 43 -71 70
-125 70 -53 0 -189 -29 -277 -59 -34 -12 -67 -21 -72 -21 -19 0 -20 34 -1 101
27 97 43 259 35 349 -10 114 -34 222 -53 237 -23 17 -49 16 -56 -3 -3 -9 -6
-101 -6 -206 0 -196 -13 -322 -49 -473 -19 -76 -19 -81 -2 -110 35 -61 97 -67
193 -19 106 54 289 83 302 48 11 -28 6 -140 -6 -156 -7 -8 -44 -20 -81 -27
-108 -19 -221 -58 -368 -127 -75 -35 -164 -70 -199 -78 -70 -16 -80 -26 -80
-73 0 -40 30 -63 83 -63 28 0 71 18 166 70 70 39 181 94 247 124 65 29 142 65
171 80 29 14 55 26 59 26 16 0 -39 -275 -83 -415 l-25 -79 -26 29 c-38 45 -73
65 -114 65 -38 0 -38 0 -38 -42 0 -56 47 -138 97 -173 51 -34 129 -35 165 -2
24 22 51 82 79 175 10 33 20 46 44 57 47 19 73 59 182 279 116 238 106 249
124 -129 6 -137 16 -256 22 -262 13 -18 42 -16 57 2 13 15 25 112 36 286 l6
97 66 7 c37 3 76 9 87 11 19 5 20 0 20 -118 0 -143 26 -258 52 -236 33 27 44
69 48 189 3 67 7 136 11 155 6 32 8 33 63 39 31 3 67 7 81 10 l25 4 0 -187 c0
-119 5 -212 14 -255 12 -62 15 -67 35 -61 46 13 51 40 61 324 8 211 4 200 68
200 63 1 124 14 189 42 41 18 46 23 36 36 -32 38 -142 55 -204 31 -49 -18 -72
-5 -78 44 -2 23 -10 86 -17 140 -6 54 -9 100 -6 103 16 17 166 26 243 15 130
-18 141 -24 159 -85 27 -92 22 -181 -27 -485 -17 -108 -67 -303 -80 -317 -3
-2 -27 8 -53 23 -35 19 -62 27 -97 26 -27 0 -51 -3 -54 -6 -26 -26 89 -160
162 -188 35 -14 47 -14 80 -3 49 16 98 72 112 127 32 127 84 481 101 687 17
198 -18 278 -144 325 -58 23 -242 16 -395 -14 -58 -11 -155 -29 -216 -41 -89
-16 -236 -53 -388 -98 -17 -5 -18 -1 -12 44 13 84 67 301 79 317 9 11 68 20
227 35 201 20 327 44 407 77 27 12 33 19 33 45 0 21 13 47 42 83 52 66 85 137
94 204 l7 53 -44 20 c-54 24 -60 24 -233 -6z m88 -105 l25 -12 -71 -104 c-43
-62 -80 -105 -92 -108 -12 -3 -79 -16 -150 -31 -70 -14 -170 -38 -222 -53
l-94 -28 0 92 c0 51 -3 106 -6 122 l-6 29 114 26 c62 15 160 34 218 42 58 9
130 20 160 25 79 12 96 12 124 0z m-173 -749 c24 -13 25 -56 2 -191 -19 -114
-16 -112 -120 -124 l-63 -7 -1 74 c0 40 -8 104 -18 141 l-18 69 24 9 c31 11
99 27 138 32 17 2 31 5 33 6 2 0 12 -4 23 -9z m-304 -110 c6 -25 12 -89 12
-143 1 -97 1 -98 -26 -108 -38 -15 -142 -34 -148 -27 -3 2 -9 39 -15 80 -5 41
-20 105 -34 140 l-24 65 81 21 c45 11 96 20 112 19 27 -2 31 -7 42 -47z"/>
</g>
</svg>
