<?xml version="1.0" standalone="no"?>
<!DOCTYPE svg PUBLIC "-//W3C//DTD SVG 20010904//EN"
 "http://www.w3.org/TR/2001/REC-SVG-20010904/DTD/svg10.dtd">
<svg version="1.0" xmlns="http://www.w3.org/2000/svg"
 width="340.000000pt" height="340.000000pt" viewBox="0 0 340.000000 340.000000"
 preserveAspectRatio="xMidYMid meet">
<metadata>
Created by potrace 1.15, written by Peter Selinger 2001-2017
</metadata>
<g transform="translate(0.000000,340.000000) scale(0.100000,-0.100000)"
fill="#000000" stroke="none">
<path d="M1741 2586 c-9 -11 -2 -21 39 -51 28 -20 73 -46 100 -56 49 -18 142
-25 174 -13 37 14 3 98 -49 120 -47 19 -248 20 -264 0z"/>
<path d="M895 2392 c-146 -77 -205 -112 -205 -123 0 -5 11 -16 25 -25 24 -16
29 -15 98 9 79 29 185 57 212 57 16 0 17 -13 11 -152 -3 -84 -9 -237 -12 -340
-6 -185 -6 -188 15 -188 35 0 58 37 70 113 53 337 80 547 75 577 -11 59 -33
90 -77 111 -64 29 -92 24 -212 -39z"/>
<path d="M2305 2428 c-435 -96 -867 -188 -888 -188 -14 0 -32 -3 -41 -6 -21
-8 -21 -43 0 -51 26 -10 299 16 444 43 260 48 657 136 691 154 23 13 25 55 3
64 -29 11 -118 4 -209 -16z"/>
<path d="M2345 2219 c-27 -11 -100 -42 -162 -70 -76 -33 -125 -49 -153 -49
-39 0 -42 -2 -36 -22 4 -13 17 -65 29 -116 19 -83 20 -96 7 -125 -10 -21 -14
-59 -13 -109 l3 -77 -53 -15 c-28 -8 -72 -20 -97 -26 -25 -6 -52 -13 -61 -16
-12 -3 -22 10 -39 51 -12 31 -21 57 -19 58 2 2 15 10 29 19 32 20 116 161 147
246 l24 65 -28 29 c-64 68 -130 74 -231 21 -31 -17 -87 -40 -124 -52 -38 -13
-68 -27 -68 -32 0 -5 11 -16 24 -25 21 -13 43 -14 142 -8 68 4 115 3 113 -2
-2 -5 -19 -46 -38 -91 -34 -82 -35 -82 -80 -92 -25 -6 -56 -13 -68 -17 -16 -4
-23 -2 -23 7 0 25 -51 123 -91 177 -32 42 -45 52 -69 52 -38 0 -38 -10 0 -130
35 -112 109 -253 134 -258 22 -5 46 15 46 39 0 11 7 19 15 19 18 0 41 -35 50
-77 l6 -31 -80 -31 c-44 -17 -87 -31 -96 -31 -18 0 -20 -14 -2 -27 24 -20 67
-23 108 -9 53 19 74 8 83 -40 12 -61 -6 -76 -143 -114 -67 -18 -121 -37 -121
-41 0 -13 36 -29 65 -29 15 0 65 7 111 17 59 11 88 13 95 6 18 -18 23 -87 8
-100 -18 -14 -143 -54 -297 -96 -116 -31 -123 -35 -107 -50 32 -32 64 -31 249
11 99 22 182 39 185 37 2 -3 -4 -17 -14 -32 -48 -75 -105 -139 -229 -252 -75
-68 -159 -151 -187 -183 -47 -54 -50 -61 -36 -75 10 -10 24 -13 41 -9 31 8
189 125 308 230 48 42 90 76 93 76 16 0 -5 -324 -30 -469 -12 -72 -12 -88 0
-117 20 -48 53 -61 99 -39 47 22 192 175 289 304 73 97 92 141 67 156 -17 10
-139 -83 -230 -176 l-85 -87 1 274 2 274 28 38 c15 20 28 38 30 40 1 2 76 -57
166 -131 258 -212 489 -387 544 -413 98 -46 225 -54 337 -23 54 16 67 26 67
55 0 30 -3 32 -107 49 -157 27 -294 73 -388 129 -113 68 -196 129 -192 141 4
13 89 60 156 85 76 29 110 56 132 104 27 59 24 83 -11 101 -41 21 -58 19 -88
-13 -15 -15 -56 -45 -92 -67 -36 -21 -97 -60 -137 -87 l-72 -50 -109 65 c-60
36 -128 75 -151 86 -38 20 -40 23 -30 44 16 30 28 37 67 37 18 0 63 6 100 14
37 8 116 24 175 36 105 20 297 76 297 86 0 3 -5 15 -11 26 -11 20 -17 20 -105
14 -52 -3 -129 -13 -172 -21 -106 -20 -112 -20 -112 10 0 35 42 75 77 75 71 0
200 47 258 94 l29 24 -34 21 c-41 25 -80 27 -120 6 -36 -18 -168 -47 -181 -39
-12 7 -11 48 2 78 12 26 35 38 113 56 27 6 69 22 95 35 77 40 78 41 43 59 -34
18 -88 21 -124 7 -14 -5 -49 -12 -80 -16 -54 -7 -55 -6 -62 20 -9 36 2 46 66
56 158 25 290 156 320 318 9 45 9 67 0 85 -26 58 -107 77 -187 45z m29 -159
c-1 -14 -8 -56 -15 -94 l-14 -69 -62 -13 c-34 -7 -71 -17 -82 -24 -26 -14 -41
-6 -41 23 0 12 -12 49 -26 82 -40 95 -40 93 -2 100 41 8 207 23 228 21 9 -1
15 -11 14 -26z m-340 -526 c13 -34 6 -79 -14 -92 -19 -11 -108 -37 -174 -49
-34 -7 -56 16 -56 57 0 41 31 61 122 80 106 23 115 23 122 4z m-16 -251 c3
-39 1 -42 -30 -52 -73 -23 -161 -42 -173 -37 -18 7 -29 61 -16 83 10 19 142
53 191 50 22 -2 25 -7 28 -44z"/>
<path d="M764 2048 c-4 -7 -9 -69 -10 -138 -2 -138 -22 -290 -60 -450 -26
-110 -25 -147 6 -175 27 -24 77 -16 177 29 84 38 227 75 240 62 4 -4 9 -62 11
-129 3 -94 -1 -152 -18 -252 -22 -131 -75 -368 -86 -387 -3 -5 -17 6 -30 25
-26 39 -92 70 -129 61 -27 -7 -27 -15 1 -104 34 -108 132 -188 201 -164 60 21
82 95 143 474 55 345 62 458 30 527 -41 92 -126 105 -306 48 -59 -18 -110 -33
-111 -31 -2 1 4 50 13 107 12 77 14 142 10 249 -7 178 -22 254 -53 258 -12 2
-25 -3 -29 -10z"/>
<path d="M825 1066 c-189 -79 -344 -157 -370 -185 -25 -29 -11 -53 36 -62 44
-10 195 57 378 166 130 78 158 102 147 131 -9 23 -34 17 -191 -50z"/>
</g>
</svg>
