<?xml version="1.0" standalone="no"?>
<!DOCTYPE svg PUBLIC "-//W3C//DTD SVG 20010904//EN"
 "http://www.w3.org/TR/2001/REC-SVG-20010904/DTD/svg10.dtd">
<svg version="1.0" xmlns="http://www.w3.org/2000/svg"
 width="340.000000pt" height="340.000000pt" viewBox="0 0 340.000000 340.000000"
 preserveAspectRatio="xMidYMid meet">
<metadata>
Created by potrace 1.15, written by Peter Selinger 2001-2017
</metadata>
<g transform="translate(0.000000,340.000000) scale(0.100000,-0.100000)"
fill="#000000" stroke="none">
<path d="M1713 2490 c-27 -11 -30 -42 -8 -80 8 -14 14 -34 14 -45 0 -11 -35
-67 -79 -125 -43 -58 -107 -151 -142 -208 -34 -58 -69 -107 -77 -110 -8 -3
-31 4 -52 16 -44 26 -87 28 -96 7 -3 -9 13 -55 35 -103 74 -160 126 -335 153
-507 18 -119 14 -115 114 -108 50 3 85 2 85 -3 0 -15 -115 -217 -169 -297
-106 -158 -286 -360 -419 -472 -33 -27 -67 -62 -76 -76 -14 -24 -14 -28 -1
-39 13 -10 24 -7 68 22 259 172 518 463 672 753 20 39 42 70 48 70 21 0 29
-81 24 -260 -4 -124 -11 -199 -22 -240 -25 -88 -17 -214 17 -280 54 -102 124
-157 230 -179 200 -41 432 -44 651 -10 119 18 171 43 201 94 30 51 29 202 -3
282 -30 78 -42 86 -75 48 -35 -42 -40 -68 -33 -160 4 -53 2 -82 -6 -93 -7 -9
-57 -28 -112 -43 -200 -52 -448 -42 -629 26 -53 20 -60 27 -82 74 -61 133 -69
257 -28 412 43 163 34 254 -32 341 -18 24 -33 33 -54 33 -28 0 -48 14 -32 24
4 2 75 16 157 31 83 14 184 34 224 43 l75 17 16 55 c10 30 41 118 70 195 29
77 72 198 96 268 l44 128 -17 37 c-30 63 -84 109 -146 122 -45 10 -70 10 -153
-4 -149 -25 -307 -62 -426 -100 -128 -40 -134 -34 -51 51 62 64 151 194 183
268 19 44 19 48 3 75 -9 16 -27 33 -40 39 -36 16 -95 22 -120 11z m560 -472
c23 -9 27 -15 23 -37 -3 -14 -10 -55 -16 -91 -15 -90 -87 -366 -106 -406 -24
-51 -55 -65 -182 -80 -64 -8 -121 -13 -128 -12 -7 2 4 46 34 131 l45 127 39
12 c74 22 90 96 25 115 -31 8 -32 11 -38 79 -4 39 -14 85 -23 102 -9 17 -16
33 -16 36 0 7 91 24 180 34 80 9 119 7 163 -10z m-466 -97 c33 -49 39 -93 17
-138 -18 -36 -58 -60 -199 -116 -6 -2 -4 -11 5 -22 12 -15 25 -16 86 -11 54 5
73 3 77 -6 5 -15 -33 -155 -66 -237 l-22 -55 -73 -24 c-40 -14 -75 -23 -76
-21 -2 2 -11 74 -20 159 -23 223 -46 350 -68 383 -35 50 -21 61 137 102 50 13
110 23 135 22 38 -2 47 -7 67 -36z"/>
<path d="M837 2212 c-19 -21 -22 -54 -6 -83 8 -17 -1 -42 -57 -147 -126 -240
-158 -293 -174 -286 -44 19 -110 15 -110 -6 0 -5 18 -37 40 -72 67 -108 94
-207 125 -463 7 -66 17 -159 21 -207 6 -85 6 -88 -15 -88 -37 0 -38 -30 -3
-62 24 -21 43 -28 72 -28 32 0 211 48 283 75 14 6 17 1 17 -29 0 -39 39 -91
63 -84 18 6 73 151 91 240 9 42 16 121 16 175 0 54 5 141 10 193 6 52 11 168
11 258 1 182 4 174 -76 212 -26 13 -62 20 -101 20 -63 0 -76 -5 -221 -86 -28
-16 -54 -26 -57 -23 -4 3 17 41 45 83 71 108 172 303 172 333 0 13 -6 35 -13
48 -24 44 -103 60 -133 27z m253 -537 c14 -17 8 -342 -11 -575 -14 -184 -7
-170 -90 -170 -38 0 -102 -7 -140 -16 -39 -9 -72 -14 -75 -12 -2 3 -7 88 -11
190 l-6 185 80 5 c65 4 90 10 128 33 l49 28 -32 28 c-43 38 -97 39 -170 2 -63
-32 -67 -29 -75 63 -4 35 -17 92 -31 126 -18 43 -22 66 -16 78 12 23 37 32 58
21 9 -4 22 -7 27 -5 26 10 195 32 246 33 40 1 60 -4 69 -14z"/>
<path d="M2201 1214 c-20 -15 -23 -22 -17 -61 5 -39 0 -55 -40 -136 -26 -51
-73 -138 -106 -194 -58 -100 -59 -102 -45 -136 36 -85 88 -86 267 -7 74 33
138 60 142 60 5 0 8 -6 8 -14 0 -7 9 -25 21 -40 15 -20 29 -26 57 -26 59 0 66
9 58 74 -15 117 -138 296 -205 296 -29 0 -30 2 -21 26 23 59 3 153 -35 168
-28 10 -60 7 -84 -10z m128 -256 c26 -75 26 -90 4 -110 -19 -17 -153 -61 -161
-54 -5 6 120 226 129 226 4 0 17 -28 28 -62z"/>
</g>
</svg>
