<?xml version="1.0" standalone="no"?>
<!DOCTYPE svg PUBLIC "-//W3C//DTD SVG 20010904//EN"
 "http://www.w3.org/TR/2001/REC-SVG-20010904/DTD/svg10.dtd">
<svg version="1.0" xmlns="http://www.w3.org/2000/svg"
 width="340.000000pt" height="340.000000pt" viewBox="0 0 340.000000 340.000000"
 preserveAspectRatio="xMidYMid meet">
<metadata>
Created by potrace 1.15, written by Peter Selinger 2001-2017
</metadata>
<g transform="translate(0.000000,340.000000) scale(0.100000,-0.100000)"
fill="#000000" stroke="none">
<path d="M1958 2414 c-42 -22 -37 -68 9 -93 48 -25 54 -54 46 -260 l-6 -190
-126 -41 c-69 -23 -132 -43 -140 -46 -11 -3 -11 -7 0 -20 25 -30 57 -35 125
-19 36 8 83 15 105 15 l39 0 0 -79 c0 -43 -3 -98 -6 -123 l-6 -45 -187 -75
c-116 -46 -186 -79 -186 -88 0 -29 51 -27 186 6 74 18 136 31 137 29 12 -12
-36 -100 -150 -273 -71 -108 -134 -204 -139 -212 -7 -11 -12 -12 -15 -3 -16
37 -54 80 -87 98 -35 19 -37 23 -37 67 0 62 -29 97 -87 105 -39 5 -43 3 -53
-21 -5 -15 -9 -64 -8 -109 1 -74 -4 -96 -50 -237 -29 -85 -49 -162 -46 -173 7
-23 62 -57 92 -57 36 0 84 24 135 69 27 22 53 41 58 41 5 0 18 -20 29 -44 22
-52 49 -70 92 -61 l31 7 -6 82 c-3 44 -12 100 -21 123 l-15 42 80 78 c90 87
166 185 214 275 l32 60 7 -32 c10 -51 7 -386 -5 -506 -7 -79 -15 -116 -30
-136 -24 -35 -24 -64 1 -106 26 -42 64 -57 102 -41 16 6 32 17 36 23 4 6 9
186 12 399 l5 388 51 -73 c67 -96 146 -181 232 -251 83 -68 158 -92 261 -84
35 3 77 1 95 -4 44 -13 68 -3 64 27 -3 21 -18 32 -103 67 -176 75 -311 164
-444 291 -119 115 -161 170 -161 212 0 39 4 42 115 68 75 18 195 70 235 104
24 20 25 20 6 41 -27 30 -63 26 -211 -23 -71 -24 -133 -42 -137 -39 -5 2 -8
53 -8 112 l0 107 63 13 c69 14 147 48 191 84 l28 23 -30 32 c-39 41 -91 43
-163 6 -28 -14 -57 -23 -65 -20 -18 7 -18 70 -2 232 14 143 6 183 -46 239 -27
29 -40 35 -72 35 -22 -1 -51 -8 -66 -16z m-434 -1486 c3 -13 9 -57 12 -100 7
-75 6 -76 -17 -80 -36 -5 -70 3 -76 19 -6 15 57 183 68 183 4 0 9 -10 13 -22z"/>
<path d="M1017 2380 c-62 -19 -73 -51 -32 -90 14 -13 25 -29 25 -35 0 -7 -30
-50 -66 -96 -75 -94 -166 -228 -210 -306 -17 -32 -36 -53 -46 -53 -24 0 -33
-19 -17 -35 14 -14 42 -10 301 40 33 6 40 4 67 -25 34 -38 44 -78 30 -120 -12
-34 -45 -54 -129 -81 -60 -18 -70 -37 -29 -56 21 -10 38 -11 78 -1 75 17 78
11 52 -118 -12 -59 -26 -114 -31 -123 -8 -15 -139 -75 -147 -67 -2 1 -8 40
-14 85 -21 168 -86 315 -187 422 -44 46 -66 61 -94 66 -30 4 -38 2 -47 -16
-10 -18 -5 -29 39 -82 28 -33 63 -86 79 -117 27 -54 131 -362 131 -388 0 -38
110 -59 176 -34 15 6 28 9 31 7 6 -7 -68 -209 -114 -309 -74 -163 -149 -289
-281 -478 -34 -48 -53 -110 -34 -110 22 0 191 180 241 257 96 145 235 440 287
606 15 48 21 57 38 55 37 -5 42 -47 18 -170 -34 -174 -44 -270 -46 -438 -1
-143 1 -158 21 -197 51 -95 137 -145 283 -164 134 -18 666 -23 853 -9 95 8
183 13 197 13 77 -2 251 21 319 42 l79 25 12 66 c12 62 9 166 -6 222 -6 23
-45 31 -71 14 -18 -12 -33 -59 -33 -107 0 -55 -15 -90 -45 -103 -30 -14 -310
-57 -475 -74 -69 -7 -251 -12 -405 -13 -314 0 -359 7 -517 81 -75 36 -77 38
-88 83 -34 141 -29 290 14 456 29 111 33 189 12 258 -8 26 -11 49 -8 51 20 11
120 36 148 36 24 0 38 7 53 28 68 96 241 502 241 564 0 40 -30 106 -59 132
-19 17 -32 18 -138 13 -153 -7 -242 -25 -448 -91 -94 -29 -172 -52 -174 -50
-8 7 34 60 112 143 83 88 188 239 208 299 9 28 8 36 -8 54 -20 24 -74 48 -100
47 -10 0 -31 -5 -46 -9z m497 -513 c17 -12 16 -20 -22 -153 -22 -76 -59 -192
-82 -256 l-42 -118 -37 0 c-20 -1 -70 -7 -111 -14 -41 -8 -77 -12 -79 -10 -4
3 17 136 30 186 5 22 23 47 42 62 17 15 38 31 45 37 10 8 5 19 -23 51 -30 32
-36 47 -34 76 1 20 -4 49 -11 64 -21 45 -9 55 87 68 48 6 93 13 98 15 26 9
123 4 139 -8z"/>
</g>
</svg>
