<?xml version="1.0" standalone="no"?>
<!DOCTYPE svg PUBLIC "-//W3C//DTD SVG 20010904//EN"
 "http://www.w3.org/TR/2001/REC-SVG-20010904/DTD/svg10.dtd">
<svg version="1.0" xmlns="http://www.w3.org/2000/svg"
 width="340.000000pt" height="340.000000pt" viewBox="0 0 340.000000 340.000000"
 preserveAspectRatio="xMidYMid meet">
<metadata>
Created by potrace 1.15, written by Peter Selinger 2001-2017
</metadata>
<g transform="translate(0.000000,340.000000) scale(0.100000,-0.100000)"
fill="#000000" stroke="none">
<path d="M1299 2396 c-30 -24 -79 -54 -109 -66 -72 -28 -173 -83 -234 -128
l-49 -36 23 -18 c27 -22 46 -23 105 -3 76 26 90 6 109 -156 6 -54 -19 -103
-61 -121 -16 -6 -95 -41 -178 -78 -82 -37 -179 -78 -215 -91 -36 -12 -67 -24
-69 -25 -2 -2 4 -15 14 -30 15 -24 22 -26 64 -22 26 3 121 34 211 71 90 36
166 65 168 63 13 -13 -55 -93 -243 -287 -131 -135 -212 -226 -208 -235 10 -26
43 -27 84 0 111 74 287 244 407 396 11 14 24 21 28 17 4 -4 3 -63 -4 -130 -14
-147 -76 -354 -119 -399 -14 -15 -60 -40 -102 -56 -110 -42 -360 -121 -403
-127 -43 -7 -68 -27 -68 -56 0 -14 15 -27 53 -44 86 -41 145 -32 259 36 68 42
146 74 155 65 3 -3 -4 -17 -16 -31 -11 -15 -23 -42 -27 -61 -12 -64 -2 -77
106 -135 55 -30 100 -57 100 -60 0 -3 -35 -35 -77 -72 -43 -36 -125 -111 -183
-167 -92 -89 -103 -102 -87 -111 12 -7 28 -7 49 0 48 17 183 110 297 206 97
81 105 86 127 74 51 -27 187 -143 250 -214 69 -77 102 -93 132 -63 18 18 14
69 -7 105 -32 51 -170 181 -251 235 -41 27 -76 51 -78 53 -2 2 18 32 44 67
118 159 193 439 134 498 -28 28 -66 26 -87 -6 -17 -27 -29 -33 -111 -57 l-51
-16 20 45 c29 70 48 151 54 244 3 47 8 99 11 117 l5 32 42 -29 c46 -33 112
-49 170 -42 33 4 37 7 37 34 0 68 -37 92 -168 109 l-90 11 -7 35 c-13 69 15
107 90 123 29 6 72 23 96 39 44 27 79 75 65 88 -3 4 -32 9 -64 11 -51 3 -87
-4 -153 -32 -14 -6 -17 6 -22 86 -4 51 -9 110 -13 130 -6 36 -6 37 33 47 81
22 139 78 150 145 5 31 2 42 -12 52 -34 25 -70 16 -126 -30z m-3 -1363 c-29
-80 -121 -266 -140 -282 -7 -6 -49 1 -108 18 l-97 27 31 54 c45 80 159 189
248 238 45 25 78 38 84 32 5 -5 -2 -40 -18 -87z"/>
<path d="M1949 2394 c-11 -13 -10 -23 4 -60 l16 -44 -91 -102 c-93 -104 -198
-240 -224 -289 -12 -25 -17 -27 -40 -19 -35 14 -57 12 -79 -4 -18 -13 -18 -15
13 -50 64 -73 96 -160 112 -307 10 -91 38 -242 56 -306 8 -28 84 -47 148 -38
l46 7 -10 -27 c-48 -125 -165 -318 -278 -459 -73 -89 -93 -129 -75 -147 23
-23 205 155 292 287 29 44 86 147 127 230 l75 152 47 6 c26 3 85 19 131 36 62
21 89 26 103 19 38 -20 54 6 136 213 131 334 144 374 137 416 -16 98 -83 156
-170 149 -67 -5 -362 -69 -510 -112 -66 -18 -122 -32 -124 -29 -2 2 57 63 131
136 139 136 198 211 198 248 0 39 -28 77 -70 94 -51 20 -84 20 -101 0z m481
-479 c17 -9 30 -21 30 -27 0 -15 -90 -325 -127 -438 l-28 -85 -70 -6 c-39 -4
-88 -12 -109 -18 -22 -6 -42 -8 -44 -6 -10 9 16 213 30 234 7 13 34 34 61 47
61 32 64 59 8 69 -22 4 -44 12 -49 18 -9 13 -35 178 -28 184 2 2 48 11 102 19
55 8 104 16 109 18 24 10 88 5 115 -9z m-469 -95 c12 -17 19 -47 21 -89 3 -73
13 -62 -105 -116 -74 -34 -64 -48 38 -53 74 -4 75 -5 75 -31 0 -29 -14 -118
-31 -192 l-10 -46 -88 -25 -89 -25 1 141 c0 151 -19 262 -64 367 -12 27 -19
52 -15 56 10 11 179 42 215 40 23 -1 40 -10 52 -27z"/>
<path d="M2371 1145 c-12 -31 -21 -60 -21 -66 0 -6 -37 -84 -81 -175 -78 -157
-81 -165 -64 -184 25 -28 78 -50 122 -50 21 0 87 14 147 30 l108 31 24 -26
c29 -32 59 -32 80 0 20 31 15 85 -17 169 -26 71 -130 188 -149 169 -14 -13 -9
-64 11 -132 13 -41 12 -44 -9 -61 -21 -17 -136 -37 -160 -29 -6 2 7 33 29 68
40 66 74 157 85 229 8 51 -13 82 -57 82 -24 0 -30 -7 -48 -55z"/>
<path d="M2071 1118 c-16 -42 -63 -550 -57 -610 7 -68 34 -131 81 -185 28 -33
47 -44 107 -61 114 -33 182 -42 316 -42 122 0 298 26 345 51 28 15 66 107 73
175 6 68 -18 210 -40 233 -13 12 -18 12 -39 -2 -26 -17 -40 -67 -57 -202 -6
-43 -13 -82 -18 -86 -18 -17 -154 -51 -227 -56 -98 -6 -199 13 -296 58 -84 39
-93 48 -115 124 -22 74 -22 186 0 275 31 127 13 315 -34 340 -26 14 -29 13
-39 -12z"/>
</g>
</svg>
