<?xml version="1.0" standalone="no"?>
<!DOCTYPE svg PUBLIC "-//W3C//DTD SVG 20010904//EN"
 "http://www.w3.org/TR/2001/REC-SVG-20010904/DTD/svg10.dtd">
<svg version="1.0" xmlns="http://www.w3.org/2000/svg"
 width="340.000000pt" height="340.000000pt" viewBox="0 0 340.000000 340.000000"
 preserveAspectRatio="xMidYMid meet">
<metadata>
Created by potrace 1.15, written by Peter Selinger 2001-2017
</metadata>
<g transform="translate(0.000000,340.000000) scale(0.100000,-0.100000)"
fill="#000000" stroke="none">
<path d="M1977 2402 c-26 -29 -20 -45 32 -80 l48 -33 7 -107 c3 -59 9 -197 12
-308 6 -191 6 -201 -12 -208 -79 -31 -209 -76 -221 -76 -8 0 -26 9 -40 20 -31
24 -56 26 -73 5 -11 -13 -10 -36 4 -128 54 -367 -33 -718 -246 -983 -80 -99
-188 -261 -188 -282 0 -23 29 -24 63 -3 36 22 120 113 204 221 122 156 223
366 274 567 16 63 29 123 29 132 0 41 23 50 215 90 105 22 258 52 340 66 83
15 157 33 166 41 21 19 99 151 133 224 14 30 31 79 38 109 l12 54 -38 33 c-24
21 -58 37 -92 45 -50 11 -65 9 -254 -36 -111 -26 -204 -44 -208 -41 -8 8 -6
180 3 256 l6 56 92 11 c99 12 172 36 255 83 l52 31 -15 30 c-20 37 -57 53 -99
40 -17 -5 -84 -32 -150 -60 -65 -28 -120 -51 -121 -51 -2 0 -1 35 2 78 7 94
-15 154 -69 196 -44 33 -134 38 -161 8z m638 -734 c3 -3 -5 -28 -18 -55 -14
-26 -37 -82 -51 -124 l-27 -75 -77 -13 c-103 -16 -379 -84 -470 -115 -53 -18
-74 -22 -77 -13 -2 7 -6 59 -8 117 -3 58 -7 111 -8 119 -3 11 29 25 116 52
179 56 302 91 375 105 65 13 233 15 245 2z"/>
<path d="M1050 2320 c-23 -23 -24 -35 -9 -77 10 -29 4 -42 -94 -204 -145 -241
-239 -418 -233 -435 3 -8 12 -14 20 -14 16 0 152 154 240 270 27 36 51 67 53
69 5 6 184 40 214 41 27 0 26 -2 -66 -182 l-92 -183 -101 -46 c-96 -44 -101
-47 -84 -63 25 -22 70 -20 132 4 92 36 104 26 98 -84 l-3 -59 -75 -27 c-76
-29 -84 -39 -54 -70 14 -14 66 -19 114 -10 24 5 25 3 36 -80 6 -47 15 -99 19
-116 l7 -31 -78 -29 c-43 -16 -82 -30 -86 -32 -4 -2 -8 16 -8 40 0 152 -99
458 -162 502 -29 20 -62 20 -78 1 -11 -13 -10 -21 7 -43 57 -77 86 -165 99
-297 7 -79 36 -182 67 -237 15 -28 25 -37 41 -33 12 2 46 7 76 10 66 7 236 63
304 99 33 18 64 26 97 26 56 0 72 17 83 85 4 22 32 147 62 278 l54 239 -22 39
c-28 50 -74 79 -124 79 -22 0 -90 -18 -152 -40 -62 -22 -110 -34 -106 -28 5 7
28 42 52 78 46 69 137 248 147 290 5 20 -1 32 -25 55 -44 42 -109 42 -170 0
-84 -59 -160 -105 -160 -97 0 4 23 48 52 97 43 74 52 99 53 138 0 41 -4 52
-28 73 -35 30 -89 32 -117 4z m450 -744 c0 -18 -13 -127 -30 -241 -16 -114
-30 -211 -30 -216 0 -5 -8 -9 -17 -9 -10 0 -56 -13 -103 -29 -47 -16 -86 -28
-87 -28 -2 3 15 165 22 205 5 25 15 37 46 52 46 24 86 79 66 92 -7 4 -37 8
-68 8 l-56 0 -7 71 c-4 39 -5 73 -3 75 7 8 210 53 240 53 24 1 27 -2 27 -33z"/>
<path d="M1120 724 c-184 -80 -364 -155 -400 -165 -35 -10 -73 -28 -84 -38
-19 -20 -19 -20 8 -55 31 -41 79 -58 131 -46 20 5 82 34 138 66 56 31 196 108
312 171 210 114 240 134 277 186 l19 27 -33 0 c-20 -1 -164 -58 -368 -146z"/>
</g>
</svg>
