<?xml version="1.0" standalone="no"?>
<!DOCTYPE svg PUBLIC "-//W3C//DTD SVG 20010904//EN"
 "http://www.w3.org/TR/2001/REC-SVG-20010904/DTD/svg10.dtd">
<svg version="1.0" xmlns="http://www.w3.org/2000/svg"
 width="340.000000pt" height="340.000000pt" viewBox="0 0 340.000000 340.000000"
 preserveAspectRatio="xMidYMid meet">
<metadata>
Created by potrace 1.15, written by Peter Selinger 2001-2017
</metadata>
<g transform="translate(0.000000,340.000000) scale(0.100000,-0.100000)"
fill="#000000" stroke="none">
<path d="M1868 2354 c-27 -8 -22 -47 10 -75 42 -39 155 -108 210 -129 l49 -19
22 23 c33 35 27 68 -20 111 -23 21 -65 48 -93 61 -50 23 -144 38 -178 28z"/>
<path d="M953 2304 c-9 -15 -22 -53 -29 -85 -13 -65 -77 -173 -282 -478 -67
-101 -122 -191 -120 -200 7 -34 38 -22 91 36 72 77 168 189 250 292 l68 84
109 1 c74 1 110 -3 110 -10 0 -6 -36 -81 -79 -167 -44 -86 -84 -171 -91 -189
-9 -28 -23 -38 -85 -67 -85 -39 -107 -57 -84 -72 21 -13 56 -11 109 8 39 14
51 15 63 5 21 -18 31 -98 17 -132 -13 -31 -71 -64 -133 -75 -34 -7 -36 -5 -42
21 -14 65 -38 114 -74 153 -42 45 -52 49 -75 25 -21 -21 -20 -42 4 -82 11 -18
30 -81 41 -140 21 -110 72 -337 90 -404 12 -45 28 -48 78 -14 20 14 115 48
211 76 219 64 225 67 238 93 44 85 142 469 145 566 2 54 1 55 -41 85 -62 44
-153 48 -244 12 -35 -14 -68 -26 -71 -26 -14 0 -6 23 18 52 61 72 159 273 172
352 4 28 1 33 -37 55 -64 36 -132 27 -202 -26 -97 -73 -132 -62 -64 21 61 73
72 145 36 216 -17 33 -26 40 -50 40 -21 0 -35 -8 -47 -26z m390 -796 c11 -17
-24 -222 -68 -397 l-21 -86 -65 -6 c-35 -4 -67 -4 -70 0 -3 3 -1 53 5 109 11
102 11 104 42 117 32 13 74 59 74 80 0 17 -23 25 -71 25 l-39 0 0 70 c0 58 3
71 19 80 59 31 177 37 194 8z m-332 -394 c3 -43 9 -91 14 -107 7 -25 4 -29
-46 -51 -30 -14 -66 -28 -80 -31 -26 -6 -27 -5 -32 47 -4 29 -9 90 -13 135
l-6 82 68 3 c38 2 74 3 79 3 6 -1 13 -37 16 -81z"/>
<path d="M2503 2130 c-244 -36 -528 -89 -747 -141 -94 -22 -209 -47 -256 -56
-47 -9 -87 -18 -89 -20 -10 -7 34 -42 59 -48 16 -4 95 8 191 29 294 63 572 98
919 116 107 6 208 15 223 22 60 24 52 100 -11 118 -50 14 -68 12 -289 -20z"/>
<path d="M2360 1760 c-47 -11 -200 -47 -341 -81 l-256 -62 -35 26 c-36 28 -76
34 -108 17 -17 -9 -15 -15 26 -87 55 -96 100 -221 118 -325 14 -77 34 -120 68
-141 11 -7 26 -2 59 20 93 64 112 52 129 -82 15 -119 25 -499 16 -598 l-8 -78
-33 30 c-19 16 -42 32 -53 35 -24 8 -71 -9 -78 -28 -16 -41 70 -152 147 -192
40 -20 53 -22 76 -13 35 13 63 38 73 64 6 16 -5 770 -13 890 -2 29 -1 29 64
40 73 12 116 28 170 61 29 18 37 30 41 62 4 26 24 65 57 112 60 86 88 156 97
244 l7 65 -34 20 c-41 25 -77 25 -189 1z m71 -116 c11 -14 7 -28 -30 -95 -23
-44 -55 -114 -71 -156 l-28 -78 -106 -13 c-58 -7 -151 -26 -206 -41 l-100 -28
-14 51 c-8 28 -18 71 -22 95 -3 25 -15 70 -25 100 -11 30 -16 58 -12 61 11 10
285 67 450 95 76 12 141 23 144 24 4 1 13 -6 20 -15z"/>
<path d="M1738 953 c-9 -16 -50 -75 -92 -132 -77 -105 -131 -204 -142 -259 -5
-25 -2 -33 19 -46 31 -21 64 -10 102 36 69 81 177 367 155 409 -14 26 -23 24
-42 -8z"/>
<path d="M2411 953 c6 -16 29 -52 52 -82 23 -29 87 -112 142 -185 72 -94 111
-136 139 -150 50 -24 81 -11 95 41 9 32 7 42 -13 78 -65 110 -148 186 -297
270 -112 64 -134 69 -118 28z"/>
<path d="M1345 815 c-16 -8 -95 -42 -173 -75 -79 -34 -221 -97 -315 -141 -105
-48 -184 -79 -205 -79 -36 0 -96 -22 -107 -39 -17 -29 72 -101 125 -101 37 0
174 59 245 105 38 25 110 67 158 93 145 76 362 215 365 235 3 13 -3 17 -30 16
-18 0 -46 -7 -63 -14z"/>
</g>
</svg>
