<?xml version="1.0" standalone="no"?>
<!DOCTYPE svg PUBLIC "-//W3C//DTD SVG 20010904//EN"
 "http://www.w3.org/TR/2001/REC-SVG-20010904/DTD/svg10.dtd">
<svg version="1.0" xmlns="http://www.w3.org/2000/svg"
 width="340.000000pt" height="340.000000pt" viewBox="0 0 340.000000 340.000000"
 preserveAspectRatio="xMidYMid meet">
<metadata>
Created by potrace 1.15, written by Peter Selinger 2001-2017
</metadata>
<g transform="translate(0.000000,340.000000) scale(0.100000,-0.100000)"
fill="#000000" stroke="none">
<path d="M809 2329 c-18 -18 -20 -29 -15 -65 5 -41 1 -53 -70 -177 -42 -72
-118 -196 -170 -274 -51 -79 -94 -151 -96 -160 -2 -13 4 -19 23 -21 22 -3 40
12 104 80 43 46 113 126 157 179 84 103 94 109 189 109 l37 0 -96 -181 c-53
-100 -103 -184 -112 -186 -58 -20 -130 -58 -127 -67 9 -26 74 -30 149 -8 40
12 79 22 86 22 8 0 12 -23 12 -81 l0 -80 -67 -31 c-38 -17 -70 -33 -73 -35 -3
-3 6 -14 20 -25 19 -16 35 -19 72 -16 l48 5 0 -72 c0 -40 3 -92 6 -116 l6 -44
-57 -28 c-31 -15 -60 -25 -66 -22 -5 4 -9 19 -9 35 0 132 -125 461 -186 489
-36 16 -54 14 -54 -9 0 -10 43 -147 96 -303 l95 -284 47 4 c137 13 360 47 383
59 14 7 31 26 37 41 6 15 27 70 46 120 20 51 36 96 36 100 0 5 5 25 11 46 9
34 13 37 47 37 20 0 72 11 115 25 42 14 95 28 117 31 l40 7 -30 -89 c-58 -168
-178 -383 -330 -594 -36 -49 -75 -104 -88 -122 -26 -36 -25 -48 6 -59 43 -16
275 259 389 461 l48 85 3 -245 c2 -173 -2 -293 -14 -409 l-16 -164 25 -24 c18
-18 31 -23 46 -18 56 18 70 131 71 579 l0 310 33 -31 c39 -37 60 -48 110 -57
59 -11 77 -1 70 37 -14 77 -53 117 -140 144 -75 24 -85 41 -80 146 2 48 9 93
16 101 7 8 34 22 60 31 64 21 133 66 160 103 21 31 21 31 2 41 -39 21 -111 13
-168 -19 -29 -16 -54 -30 -55 -30 -2 0 -3 55 -3 122 0 102 -4 136 -24 200 -29
94 -28 97 74 131 91 31 138 65 164 121 30 60 27 83 -12 106 -36 22 -106 27
-111 8 -18 -68 -21 -71 -121 -126 -111 -60 -208 -126 -273 -186 -40 -37 -42
-41 -26 -53 25 -18 51 -16 102 8 30 15 47 18 54 11 18 -18 48 -164 53 -267 7
-122 0 -140 -75 -177 -60 -29 -187 -64 -197 -54 -3 3 -1 44 6 90 18 120 -1
191 -59 221 -41 21 -87 19 -186 -10 -129 -37 -131 -36 -80 38 61 87 100 154
136 237 31 70 31 72 13 92 -40 45 -109 61 -156 37 -12 -6 -37 -25 -54 -42 -32
-30 -33 -30 -33 -8 0 12 7 36 16 53 46 89 37 147 -27 172 -51 20 -55 20 -80
-5z m378 -696 c9 -24 -22 -234 -56 -376 -16 -65 -30 -119 -32 -121 -2 -2 -30
-7 -63 -11 l-59 -8 8 114 c8 126 12 139 49 159 28 14 42 49 32 75 -4 10 -14
13 -35 9 -26 -6 -33 -2 -51 27 -32 52 -24 90 25 113 35 16 100 31 158 35 10 0
21 -7 24 -16z"/>
<path d="M2128 2339 c-39 -15 -40 -31 -3 -84 55 -76 57 -107 52 -608 -4 -442
-5 -455 -30 -573 -29 -132 -75 -273 -113 -344 -14 -25 -47 -72 -74 -105 -59
-70 -145 -230 -130 -240 24 -15 61 8 125 77 145 157 245 346 290 553 6 28 11
21 73 -100 114 -221 205 -377 246 -418 21 -21 58 -48 82 -58 49 -22 203 -43
246 -34 27 6 71 51 66 66 -2 4 -61 37 -133 72 -103 52 -146 80 -206 136 -86
79 -155 168 -220 283 -24 42 -64 109 -88 149 l-44 73 23 415 c32 576 32 594
-2 653 -41 68 -108 105 -160 87z"/>
<path d="M2567 1754 c-4 -4 -7 -14 -7 -23 0 -55 -25 -97 -103 -174 -52 -52
-95 -106 -116 -146 l-34 -64 52 5 c42 4 67 16 137 64 48 32 104 78 124 102 38
43 70 115 70 158 0 23 -51 74 -75 74 -7 0 -20 2 -27 5 -8 3 -17 2 -21 -1z"/>
<path d="M1862 1443 c10 -100 117 -223 192 -223 24 0 26 3 26 44 0 92 -45 165
-124 202 -28 13 -62 24 -75 24 -22 0 -23 -3 -19 -47z"/>
<path d="M945 843 c-126 -47 -268 -98 -315 -115 -46 -16 -90 -34 -97 -40 -7
-6 -13 -28 -13 -49 0 -34 5 -42 32 -59 41 -25 64 -25 108 0 19 10 109 57 200
103 178 91 337 180 359 202 19 19 6 45 -21 44 -13 0 -126 -39 -253 -86z"/>
</g>
</svg>
