<?xml version="1.0" standalone="no"?>
<!DOCTYPE svg PUBLIC "-//W3C//DTD SVG 20010904//EN"
 "http://www.w3.org/TR/2001/REC-SVG-20010904/DTD/svg10.dtd">
<svg version="1.0" xmlns="http://www.w3.org/2000/svg"
 width="340.000000pt" height="340.000000pt" viewBox="0 0 340.000000 340.000000"
 preserveAspectRatio="xMidYMid meet">
<metadata>
Created by potrace 1.15, written by Peter Selinger 2001-2017
</metadata>
<g transform="translate(0.000000,340.000000) scale(0.100000,-0.100000)"
fill="#000000" stroke="none">
<path d="M930 2243 c-11 -15 -18 -33 -15 -41 18 -47 14 -60 -55 -180 -81 -142
-147 -242 -237 -361 -68 -89 -77 -123 -35 -129 19 -3 43 16 111 85 47 48 113
121 145 161 l58 72 114 0 c63 0 114 -2 114 -5 0 -3 -25 -49 -56 -102 -30 -53
-82 -150 -115 -215 -32 -65 -65 -118 -72 -118 -6 0 -45 -10 -86 -22 l-74 -22
23 -18 c27 -22 61 -23 126 -3 27 8 60 15 73 15 22 0 23 -3 17 -37 -3 -21 -6
-65 -6 -99 l0 -61 -65 -27 c-83 -36 -95 -49 -60 -72 19 -12 38 -15 74 -11 l48
6 13 -75 c10 -67 10 -78 -5 -94 -13 -14 -111 -50 -137 -50 -3 0 -8 39 -12 88
-9 102 -43 213 -90 285 -56 88 -142 153 -175 132 -17 -10 -13 -51 6 -66 9 -8
33 -40 54 -71 35 -55 48 -94 85 -258 9 -41 29 -103 45 -137 25 -57 31 -63 57
-63 39 0 231 44 333 76 74 23 82 24 98 10 39 -35 61 -9 105 120 18 54 58 167
89 249 30 83 58 165 61 184 7 39 32 71 53 71 27 0 91 92 128 184 l21 49 114
24 c63 12 129 26 146 29 l31 6 6 -68 c4 -38 7 -140 7 -227 0 -154 1 -158 25
-182 13 -14 35 -25 48 -25 22 0 26 7 37 63 7 34 14 151 16 261 2 109 5 200 7
202 2 2 39 13 83 24 94 25 254 38 344 30 58 -5 62 -7 40 -17 -38 -16 -52 -38
-48 -75 l3 -33 80 2 c62 1 98 8 155 30 73 28 75 29 78 65 5 54 -20 92 -75 119
-45 22 -60 24 -213 24 -153 0 -172 -2 -265 -29 -55 -17 -120 -30 -145 -30
l-45 -1 -3 87 c-3 99 -15 87 103 108 33 6 108 25 168 42 93 27 107 33 107 52
0 32 -26 63 -56 69 -26 5 -322 -66 -581 -139 -68 -19 -139 -34 -158 -34 -28 0
-35 -4 -35 -19 0 -16 10 -21 56 -27 31 -3 99 -4 150 -2 52 3 96 2 98 -1 2 -3
6 -44 7 -91 l3 -84 -149 -48 c-83 -26 -151 -48 -152 -48 -2 0 -16 27 -33 60
-17 33 -36 60 -44 60 -24 0 -46 -36 -46 -76 0 -58 -65 -270 -82 -266 -7 2 -40
11 -73 19 -78 20 -173 12 -254 -21 l-63 -25 7 26 c10 41 53 110 108 172 70 79
99 142 105 224 l5 67 -76 0 c-86 0 -158 -22 -229 -70 -23 -16 -46 -30 -50 -30
-20 0 -4 42 31 81 58 66 81 119 81 184 0 85 -20 115 -77 115 -22 0 -38 -8 -53
-27z m420 -830 c-1 -22 -115 -462 -122 -469 -5 -5 -161 -24 -165 -20 -1 1 4
39 10 85 l12 83 40 14 c45 15 85 55 85 85 0 17 -7 19 -65 19 l-64 0 -11 43
c-6 23 -17 60 -25 81 -8 22 -14 41 -12 42 12 12 205 52 255 53 53 1 62 -2 62
-16z"/>
<path d="M2282 1630 c-34 -14 -38 -38 -11 -66 48 -52 131 -80 199 -69 l40 7
-16 36 c-22 53 -50 79 -99 91 -52 13 -82 13 -113 1z"/>
<path d="M1710 1561 l-25 -21 39 -35 c54 -48 166 -67 166 -28 0 28 -30 70 -57
81 -60 24 -98 25 -123 3z"/>
<path d="M2234 1393 c-20 -20 -5 -44 52 -82 53 -35 98 -46 144 -36 26 6 30 10
24 28 -19 64 -60 91 -152 99 -38 4 -57 1 -68 -9z"/>
<path d="M1641 1361 c-23 -15 -4 -59 37 -85 44 -30 112 -46 157 -39 32 5 33 7
24 32 -15 37 -47 69 -83 80 -49 15 -120 21 -135 12z"/>
<path d="M2364 1139 c-140 -16 -385 -76 -570 -139 -49 -16 -103 -30 -121 -30
-36 0 -73 -38 -50 -52 25 -16 126 -7 242 22 159 40 334 69 472 77 l112 6 6
-25 c4 -16 -10 -93 -35 -199 -47 -193 -56 -225 -96 -321 l-27 -66 -61 -7
c-139 -15 -298 -38 -413 -61 -68 -13 -138 -24 -156 -24 -20 0 -41 -7 -50 -18
-38 -42 -17 -51 133 -58 85 -5 133 -1 251 20 80 14 226 30 325 36 186 12 224
22 224 59 0 23 -16 37 -52 46 -51 13 -52 24 -13 152 20 65 69 199 108 297 l71
179 -21 36 c-43 73 -109 90 -279 70z"/>
<path d="M1219 691 c-196 -98 -288 -147 -429 -230 -63 -37 -110 -57 -140 -61
-37 -4 -46 -10 -54 -31 -13 -37 0 -78 30 -91 48 -22 186 31 306 118 37 27 120
84 185 126 234 153 333 241 288 254 -5 2 -89 -36 -186 -85z"/>
<path d="M1985 739 c-197 -53 -296 -89 -293 -108 3 -14 17 -16 103 -13 198 6
306 20 361 47 76 37 85 52 51 81 -37 32 -83 30 -222 -7z"/>
</g>
</svg>
