<?xml version="1.0" standalone="no"?>
<!DOCTYPE svg PUBLIC "-//W3C//DTD SVG 20010904//EN"
 "http://www.w3.org/TR/2001/REC-SVG-20010904/DTD/svg10.dtd">
<svg version="1.0" xmlns="http://www.w3.org/2000/svg"
 width="340.000000pt" height="340.000000pt" viewBox="0 0 340.000000 340.000000"
 preserveAspectRatio="xMidYMid meet">
<metadata>
Created by potrace 1.15, written by Peter Selinger 2001-2017
</metadata>
<g transform="translate(0.000000,340.000000) scale(0.100000,-0.100000)"
fill="#000000" stroke="none">
<path d="M2295 2260 c-118 -24 -275 -64 -349 -90 -73 -25 -87 -25 -133 0 -97
52 -125 7 -83 -128 34 -109 35 -178 5 -382 -32 -223 -63 -382 -116 -595 -46
-183 -110 -380 -123 -380 -6 0 -10 107 -10 260 -1 219 -4 266 -18 297 -26 57
-68 73 -109 39 l-23 -18 19 -195 c13 -145 16 -213 9 -268 l-9 -73 -110 -24
c-111 -25 -323 -90 -401 -123 l-42 -18 -5 186 c-3 103 -10 208 -17 234 -13 55
-52 98 -88 98 -25 0 -25 0 -18 -67 17 -176 18 -244 6 -369 -11 -120 -11 -137
4 -159 45 -69 120 -76 229 -21 56 28 353 163 425 193 8 3 12 -5 12 -24 0 -32
26 -63 53 -63 9 0 17 -5 17 -10 0 -18 -37 -83 -70 -125 -18 -22 -43 -61 -56
-87 -26 -50 -46 -128 -34 -128 17 0 144 127 179 179 141 207 288 578 336 848
9 48 18 97 20 109 4 18 17 22 102 33 54 7 106 15 117 18 16 4 18 1 12 -23 -14
-56 -84 -191 -118 -230 -68 -77 -81 -118 -61 -193 6 -22 9 -23 78 -19 53 4 90
13 140 36 37 18 69 32 72 32 14 0 33 -79 33 -135 0 -78 12 -70 -179 -120 -74
-19 -138 -40 -143 -47 -24 -38 22 -48 169 -37 65 5 126 11 137 13 17 5 18 -1
11 -112 -4 -64 -12 -120 -17 -123 -6 -4 -38 -10 -72 -14 -66 -7 -378 -68 -439
-85 -43 -13 -44 -27 -4 -50 24 -13 54 -11 329 24 167 21 328 42 358 47 86 12
355 9 460 -5 82 -11 99 -11 128 2 40 19 43 53 7 86 -55 51 -403 63 -607 20
l-26 -5 5 103 c6 145 6 146 51 153 74 12 113 27 148 57 l35 31 -20 21 c-23 22
-69 26 -148 11 l-43 -8 0 49 c-1 27 -10 74 -20 104 -11 30 -21 59 -23 65 -2
10 125 58 184 69 33 6 37 4 49 -23 21 -51 52 -73 101 -69 42 3 44 4 42 32 -4
53 -34 130 -71 186 -41 60 -148 152 -172 148 -27 -5 -23 -47 9 -97 32 -50 33
-76 3 -85 -10 -3 -55 -14 -102 -25 -47 -11 -125 -33 -175 -49 -49 -17 -92 -28
-94 -26 -2 2 17 40 43 85 52 91 76 155 76 199 0 25 5 31 38 39 76 20 131 31
246 46 159 21 216 54 216 127 0 20 -3 20 -87 13 -49 -4 -146 -22 -218 -40
-291 -73 -526 -127 -531 -122 -7 7 12 126 27 175 10 30 14 32 55 32 64 0 299
27 428 49 117 20 138 32 153 90 3 14 42 98 85 186 43 87 78 165 78 172 0 21
-63 85 -97 99 -44 19 -149 16 -258 -6z m178 -126 c3 -4 -6 -36 -20 -73 -14
-36 -36 -100 -48 -141 l-23 -75 -48 -8 c-138 -23 -266 -52 -351 -79 -67 -22
-97 -28 -105 -20 -8 8 -8 45 0 129 6 65 8 141 5 169 l-5 50 198 23 c110 13
204 24 209 26 18 6 182 5 188 -1z"/>
<path d="M952 2214 c-31 -22 -27 -49 13 -85 19 -18 39 -48 45 -68 19 -73 41
-280 47 -442 l6 -165 -44 -17 c-24 -9 -59 -20 -76 -23 l-33 -6 0 71 c0 99 -25
214 -63 291 l-32 65 -45 0 c-39 0 -45 -3 -48 -23 -2 -12 10 -64 27 -115 31
-92 71 -263 71 -304 0 -18 -22 -30 -157 -83 -87 -34 -171 -64 -186 -67 -37 -7
-44 -26 -22 -59 16 -25 20 -26 85 -22 53 4 89 15 167 51 159 75 497 177 694
211 68 12 92 76 39 104 -40 21 -172 5 -262 -33 -17 -7 -18 4 -18 139 l0 146
61 0 c117 0 270 55 302 109 9 16 17 34 17 39 0 21 -32 42 -63 42 -25 0 -168
-55 -303 -116 -7 -3 -9 12 -7 48 9 111 -51 286 -108 315 -33 17 -80 16 -107
-3z"/>
<path d="M1034 1259 c-9 -18 -19 -68 -23 -113 -4 -45 -15 -94 -23 -111 -17
-33 -92 -261 -103 -312 -5 -26 -2 -34 15 -43 37 -20 64 11 148 171 l79 151 23
-37 c28 -45 74 -75 117 -75 67 0 78 22 44 88 -25 49 -56 76 -113 102 -45 20
-46 21 -41 59 7 50 -12 105 -44 131 -36 28 -60 25 -79 -11z"/>
</g>
</svg>
