<?xml version="1.0" standalone="no"?>
<!DOCTYPE svg PUBLIC "-//W3C//DTD SVG 20010904//EN"
 "http://www.w3.org/TR/2001/REC-SVG-20010904/DTD/svg10.dtd">
<svg version="1.0" xmlns="http://www.w3.org/2000/svg"
 width="360.000000pt" height="360.000000pt" viewBox="0 0 360.000000 360.000000"
 preserveAspectRatio="xMidYMid meet">
<metadata>
Created by potrace 1.15, written by Peter Selinger 2001-2017
</metadata>
<g transform="translate(0.000000,360.000000) scale(0.100000,-0.100000)"
fill="#000000" stroke="none">
<path d="M2285 2199 c-609 -91 -933 -169 -1004 -239 -23 -23 -55 -35 -194 -69
-174 -43 -217 -58 -217 -74 0 -20 68 -76 105 -87 39 -11 48 -8 363 120 l323
131 42 -25 c23 -13 55 -38 71 -55 l29 -30 -6 -318 c-4 -179 -13 -370 -21 -438
-10 -81 -12 -123 -5 -131 13 -16 -12 -66 -44 -90 -22 -17 -22 -22 -15 -86 21
-177 101 -264 156 -168 26 46 30 135 9 215 -11 41 -11 59 0 100 7 28 13 97 13
155 0 57 16 256 36 442 l36 337 -51 58 c-52 58 -52 58 -31 75 38 31 199 54
434 64 l151 6 97 -35 c126 -46 168 -38 168 33 0 45 -11 55 -67 65 -42 7 -58
19 -78 58 -6 12 -17 23 -25 24 -8 0 -132 -16 -275 -38z"/>
<path d="M2157 1710 c-76 -9 -141 -20 -144 -24 -12 -11 12 -40 38 -47 13 -4
41 -7 61 -8 28 -1 54 -13 100 -47 76 -56 169 -104 200 -104 13 0 36 10 52 23
l29 23 -22 50 c-12 27 -36 73 -54 102 -31 51 -32 52 -77 51 -25 -1 -107 -9
-183 -19z"/>
</g>
</svg>
