<?xml version="1.0" standalone="no"?>
<!DOCTYPE svg PUBLIC "-//W3C//DTD SVG 20010904//EN"
 "http://www.w3.org/TR/2001/REC-SVG-20010904/DTD/svg10.dtd">
<svg version="1.0" xmlns="http://www.w3.org/2000/svg"
 width="360.000000pt" height="360.000000pt" viewBox="0 0 360.000000 360.000000"
 preserveAspectRatio="xMidYMid meet">
<metadata>
Created by potrace 1.15, written by Peter Selinger 2001-2017
</metadata>
<g transform="translate(0.000000,360.000000) scale(0.100000,-0.100000)"
fill="#000000" stroke="none">
<path d="M1915 2294 c-140 -79 -472 -241 -537 -263 -91 -31 -102 -29 -117 21
-7 23 -17 53 -22 66 -9 24 -10 24 -29 7 -16 -14 -20 -31 -20 -79 0 -60 1 -63
45 -106 l44 -44 78 17 c84 18 257 98 413 190 52 31 97 54 101 51 4 -2 -13 -50
-37 -106 l-43 -103 -73 -3 c-75 -3 -108 -19 -108 -52 0 -21 20 -40 43 -40 12
0 17 -6 15 -16 -2 -9 -138 -175 -302 -370 l-300 -354 -22 21 -22 21 -31 -33
c-27 -31 -30 -41 -31 -100 0 -57 3 -68 25 -89 19 -18 30 -22 40 -15 8 6 155
165 327 355 l313 345 3 -49 c4 -65 -18 -122 -79 -203 -62 -82 -63 -105 -6
-161 34 -34 50 -42 79 -42 43 0 53 11 62 70 23 153 104 235 251 255 40 5 78 0
175 -25 213 -53 200 -48 200 -74 0 -21 -7 -25 -47 -32 -46 -9 -48 -11 -51 -46
l-3 -37 48 -6 c114 -14 181 -27 227 -42 46 -15 52 -15 83 2 36 20 38 30 22 89
-16 59 -81 121 -173 166 -131 64 -217 83 -386 84 -80 1 -171 -2 -202 -7 l-58
-7 0 127 0 128 155 188 c147 179 155 191 155 232 0 39 -5 47 -42 79 -23 20
-51 36 -62 35 -12 0 -57 -21 -101 -45z"/>
<path d="M2025 1044 c-101 -18 -399 -97 -620 -164 -145 -44 -176 -51 -210 -43
-34 7 -43 5 -63 -14 -23 -21 -23 -22 -4 -41 11 -11 44 -29 73 -40 49 -18 60
-19 119 -7 36 7 213 58 393 115 l329 102 151 -71 152 -70 32 31 c68 66 27 123
-127 179 -108 39 -128 41 -225 23z"/>
</g>
</svg>
