<?xml version="1.0" standalone="no"?>
<!DOCTYPE svg PUBLIC "-//W3C//DTD SVG 20010904//EN"
 "http://www.w3.org/TR/2001/REC-SVG-20010904/DTD/svg10.dtd">
<svg version="1.0" xmlns="http://www.w3.org/2000/svg"
 width="360.000000pt" height="360.000000pt" viewBox="0 0 360.000000 360.000000"
 preserveAspectRatio="xMidYMid meet">
<metadata>
Created by potrace 1.15, written by Peter Selinger 2001-2017
</metadata>
<g transform="translate(0.000000,360.000000) scale(0.100000,-0.100000)"
fill="#000000" stroke="none">
<path d="M1940 2360 c-142 -65 -278 -114 -396 -145 -84 -22 -100 -23 -112 -11
-12 12 -22 12 -69 -1 -49 -13 -57 -12 -72 1 -26 23 -31 20 -31 -19 0 -25 6
-39 24 -50 35 -23 151 -45 241 -45 l80 0 43 -142 c25 -79 39 -144 34 -147 -5
-3 -12 -28 -16 -56 -9 -57 -33 -115 -49 -115 -6 0 -18 -6 -26 -14 -9 -8 -97
-48 -196 -88 -149 -62 -181 -78 -183 -96 -3 -21 0 -22 70 -22 40 1 122 12 183
25 60 13 111 22 114 20 2 -2 -22 -73 -53 -157 -31 -84 -56 -158 -56 -164 0
-16 44 -54 63 -54 10 0 53 25 96 55 42 30 106 68 141 84 61 29 145 49 156 38
3 -3 -6 -24 -21 -47 l-26 -41 23 -19 c42 -35 71 -26 148 46 84 80 91 107 36
159 -60 57 -72 57 -251 9 -88 -24 -162 -44 -164 -44 -2 0 -1 25 2 56 12 113
95 209 220 252 97 33 168 42 343 42 l163 0 37 -32 c46 -40 73 -99 74 -156 0
-40 -138 -619 -160 -671 -23 -52 -97 2 -202 146 -60 84 -76 95 -98 68 -9 -11
-9 -22 0 -52 21 -64 50 -104 159 -215 91 -94 108 -108 137 -108 26 0 39 7 57
33 89 117 163 386 217 787 l21 155 -58 53 c-31 29 -87 67 -123 85 -61 30 -71
32 -165 30 -114 -1 -318 -39 -419 -77 -86 -33 -93 -25 -77 81 8 58 8 89 0 118
-26 92 -81 165 -125 165 -22 0 -41 16 -31 26 3 3 78 31 168 63 264 94 349 131
349 150 0 36 -65 93 -102 90 -7 -1 -60 -23 -118 -49z"/>
<path d="M983 1499 c-19 -20 -19 -20 4 -67 27 -55 42 -187 43 -373 0 -135 9
-153 76 -147 36 3 39 6 48 43 17 73 -38 382 -88 490 -30 66 -55 82 -83 54z"/>
</g>
</svg>
