<?xml version="1.0" standalone="no"?>
<!DOCTYPE svg PUBLIC "-//W3C//DTD SVG 20010904//EN"
 "http://www.w3.org/TR/2001/REC-SVG-20010904/DTD/svg10.dtd">
<svg version="1.0" xmlns="http://www.w3.org/2000/svg"
 width="360.000000pt" height="360.000000pt" viewBox="0 0 360.000000 360.000000"
 preserveAspectRatio="xMidYMid meet">
<metadata>
Created by potrace 1.15, written by Peter Selinger 2001-2017
</metadata>
<g transform="translate(0.000000,360.000000) scale(0.100000,-0.100000)"
fill="#000000" stroke="none">
<path d="M2520 2363 c-320 -24 -818 -114 -1355 -245 -257 -62 -320 -71 -402
-55 -37 8 -43 6 -43 -9 0 -25 74 -91 118 -105 34 -10 52 -7 183 34 557 175
1051 277 1342 277 52 0 174 -11 273 -25 98 -14 180 -25 181 -25 1 0 11 14 23
31 l22 30 -23 26 c-13 14 -46 36 -74 49 -50 24 -105 28 -245 17z"/>
<path d="M2089 1871 c-114 -36 -246 -130 -417 -295 -51 -49 -95 -87 -98 -84
-3 4 0 34 7 68 9 49 10 67 0 82 -8 14 -9 23 -2 32 20 24 -16 55 -89 77 l-69
21 -59 -45 c-67 -52 -127 -116 -137 -146 -3 -12 -11 -21 -17 -21 -6 0 -44 27
-85 60 -67 53 -81 60 -120 60 l-44 0 3 -37 c3 -37 4 -38 57 -47 l54 -9 -7
-116 c-3 -64 -9 -229 -12 -368 -6 -226 -5 -255 10 -278 13 -20 25 -25 57 -25
26 0 42 5 45 15 4 8 -3 63 -14 122 -17 91 -18 108 -6 120 8 8 14 26 14 41 0
44 27 143 43 159 13 13 21 4 67 -79 69 -120 141 -225 183 -266 29 -28 41 -33
73 -30 l39 3 -5 85 c-3 47 -5 132 -5 190 0 103 1 107 35 165 39 66 201 235
225 235 13 0 15 -36 15 -284 0 -271 1 -284 21 -310 23 -29 60 -34 80 -10 10
12 10 20 1 35 -15 24 -16 151 0 167 8 8 18 7 40 -6 22 -13 45 -51 92 -147 96
-199 181 -297 269 -312 29 -4 40 -1 60 20 14 13 30 42 36 63 14 48 14 424 1
592 -8 107 -7 141 10 245 11 67 20 131 20 142 -1 14 -27 36 -96 78 -89 53 -99
57 -157 56 -34 0 -87 -8 -118 -18z m183 -118 c52 -53 71 -104 58 -151 -5 -20
-10 -70 -10 -109 0 -40 -3 -73 -7 -73 -5 0 -89 22 -188 48 l-180 49 2 40 c4
97 82 179 208 219 63 20 78 17 117 -23z m-800 -138 c4 -22 7 -86 7 -143 1 -84
-3 -110 -19 -140 -36 -69 -33 -67 -81 -35 -49 33 -100 53 -135 53 -21 0 -24 5
-24 41 0 61 34 120 116 200 60 58 78 70 101 67 24 -3 29 -9 35 -43z m622 -246
c26 -7 56 -29 90 -64 30 -31 64 -57 81 -61 17 -4 35 -11 42 -16 23 -18 65
-268 45 -268 -5 0 -13 -23 -16 -52 -8 -54 -21 -88 -35 -88 -19 0 -210 290
-281 425 l-41 78 27 28 c31 33 34 33 88 18z"/>
</g>
</svg>
