<?xml version="1.0" standalone="no"?>
<!DOCTYPE svg PUBLIC "-//W3C//DTD SVG 20010904//EN"
 "http://www.w3.org/TR/2001/REC-SVG-20010904/DTD/svg10.dtd">
<svg version="1.0" xmlns="http://www.w3.org/2000/svg"
 width="360.000000pt" height="360.000000pt" viewBox="0 0 360.000000 360.000000"
 preserveAspectRatio="xMidYMid meet">
<metadata>
Created by potrace 1.15, written by Peter Selinger 2001-2017
</metadata>
<g transform="translate(0.000000,360.000000) scale(0.100000,-0.100000)"
fill="#000000" stroke="none">
<path d="M1480 2787 c0 -7 23 -44 50 -82 28 -38 50 -77 50 -87 0 -80 -151
-310 -408 -622 l-90 -109 21 -33 c38 -59 60 -50 205 82 165 150 333 286 452
366 109 72 186 115 194 107 3 -3 -10 -34 -28 -70 -102 -192 -165 -675 -166
-1270 0 -102 -5 -211 -11 -242 -8 -40 -9 -61 -1 -69 7 -9 7 -29 2 -58 -21
-109 -1 -186 59 -229 36 -26 40 -26 72 2 l27 22 -25 381 -24 380 24 215 c17
154 21 219 13 231 -16 27 17 55 140 114 110 53 134 62 134 46 0 -4 -38 -113
-85 -241 -47 -128 -85 -239 -85 -246 0 -8 35 -33 77 -56 l77 -43 -34 -9 c-40
-10 -78 -38 -102 -75 -22 -33 -22 -42 -3 -42 14 0 493 185 502 194 9 9 -8 83
-27 114 -49 80 -227 102 -279 36 -22 -27 -34 -30 -50 -10 -9 10 10 60 84 226
52 116 95 218 95 226 0 26 -29 72 -50 79 -13 4 -78 -19 -193 -69 -95 -42 -176
-76 -180 -76 -18 0 -4 90 29 178 84 228 197 407 303 482 44 31 50 39 51 71 0
42 -24 69 -63 69 -15 0 -156 -71 -337 -171 -171 -95 -313 -169 -317 -165 -3 3
15 37 41 75 59 88 94 165 102 222 6 42 4 47 -29 76 -34 30 -171 93 -201 93 -9
0 -16 -6 -16 -13z"/>
</g>
</svg>
