<?xml version="1.0" standalone="no"?>
<!DOCTYPE svg PUBLIC "-//W3C//DTD SVG 20010904//EN"
 "http://www.w3.org/TR/2001/REC-SVG-20010904/DTD/svg10.dtd">
<svg version="1.0" xmlns="http://www.w3.org/2000/svg"
 width="360.000000pt" height="360.000000pt" viewBox="0 0 360.000000 360.000000"
 preserveAspectRatio="xMidYMid meet">
<metadata>
Created by potrace 1.15, written by Peter Selinger 2001-2017
</metadata>
<g transform="translate(0.000000,360.000000) scale(0.100000,-0.100000)"
fill="#000000" stroke="none">
<path d="M1834 2753 c-33 -103 -70 -130 -374 -284 -254 -128 -255 -128 -195
-123 170 16 363 93 550 219 170 115 165 108 110 168 -37 41 -81 50 -91 20z"/>
<path d="M1697 2409 c-17 -10 -15 -15 18 -74 19 -35 35 -72 35 -83 0 -50 -528
-392 -605 -392 -12 0 -48 9 -80 20 -32 11 -59 19 -59 18 -1 -2 -7 -14 -14 -27
-12 -21 -11 -26 10 -48 13 -14 39 -33 58 -43 33 -16 43 -16 152 -2 65 8 124
12 131 9 9 -3 18 -39 25 -101 10 -82 10 -105 -4 -160 l-16 -63 -116 24 -116
23 -23 -22 c-35 -32 -31 -64 10 -72 17 -3 47 -15 66 -27 33 -20 33 -22 28 -70
-8 -68 -68 -198 -161 -353 -65 -108 -77 -134 -72 -159 15 -74 45 -74 145 2 96
73 180 164 188 204 4 21 15 33 41 44 52 22 127 98 193 196 63 94 64 98 49 127
-9 17 -13 17 -56 4 -26 -8 -51 -14 -56 -14 -12 0 -10 118 3 163 8 30 6 74 -12
203 -12 90 -20 166 -18 168 23 23 249 146 264 144 18 -3 21 -15 31 -153 9
-107 9 -161 1 -188 -7 -27 -7 -59 1 -115 18 -118 17 -846 -2 -861 -10 -9 -25
-7 -61 9 -50 22 -75 20 -75 -3 0 -50 131 -237 166 -237 20 0 50 70 66 155 21
114 7 1177 -17 1253 -7 22 -4 45 27 182 21 95 92 146 247 175 152 29 252 67
265 101 26 68 -108 57 -364 -30 l-130 -44 -19 44 c-30 66 -97 100 -144 73z
m-347 -1164 c0 -28 -4 -35 -20 -35 -25 0 -26 26 -3 52 22 24 23 23 23 -17z"/>
<path d="M2101 2046 l-22 -24 21 -41 c18 -36 20 -56 18 -153 l-3 -112 -29 -7
c-32 -9 -96 -66 -96 -86 0 -7 24 -26 53 -43 l54 -30 -32 -133 -33 -132 34 -35
c22 -23 51 -40 80 -48 29 -8 60 -26 82 -48 l35 -35 76 16 c253 54 330 111 251
185 -17 16 -46 32 -64 36 -27 5 -236 -27 -343 -53 -22 -5 -23 -2 -23 53 0 33
9 113 20 179 11 66 20 123 20 127 0 4 28 22 63 39 162 81 247 145 247 186 0
31 -19 37 -80 24 -36 -8 -71 -8 -126 0 l-75 12 -28 62 c-24 52 -52 85 -74 85
-2 0 -14 -11 -26 -24z"/>
</g>
</svg>
