<?xml version="1.0" standalone="no"?>
<!DOCTYPE svg PUBLIC "-//W3C//DTD SVG 20010904//EN"
 "http://www.w3.org/TR/2001/REC-SVG-20010904/DTD/svg10.dtd">
<svg version="1.0" xmlns="http://www.w3.org/2000/svg"
 width="360.000000pt" height="360.000000pt" viewBox="0 0 360.000000 360.000000"
 preserveAspectRatio="xMidYMid meet">
<metadata>
Created by potrace 1.15, written by Peter Selinger 2001-2017
</metadata>
<g transform="translate(0.000000,360.000000) scale(0.100000,-0.100000)"
fill="#000000" stroke="none">
<path d="M1383 2305 c-34 -24 -86 -58 -117 -76 l-57 -32 -105 7 c-67 5 -104 4
-104 -3 0 -20 64 -72 126 -102 56 -26 73 -30 111 -24 25 4 52 9 60 12 9 4 -3
-29 -30 -83 -213 -423 -340 -820 -298 -928 9 -22 9 -31 0 -37 -17 -10 -2 -93
26 -150 38 -74 105 -121 220 -154 48 -14 118 -18 352 -22 386 -7 565 11 763
76 74 25 263 116 278 134 6 8 -6 98 -39 272 -26 143 -51 275 -54 293 -4 23
-11 32 -25 32 -18 0 -19 -12 -22 -234 l-3 -234 -31 -39 c-63 -79 -245 -144
-504 -179 -100 -14 -134 -15 -152 -6 -15 7 -114 13 -288 15 -294 4 -330 10
-394 71 -61 57 -63 91 -17 279 85 350 187 612 313 800 47 70 150 181 189 204
16 10 29 25 29 35 0 20 -45 56 -116 91 l-51 26 -60 -44z"/>
</g>
</svg>
