<?xml version="1.0" standalone="no"?>
<!DOCTYPE svg PUBLIC "-//W3C//DTD SVG 20010904//EN"
 "http://www.w3.org/TR/2001/REC-SVG-20010904/DTD/svg10.dtd">
<svg version="1.0" xmlns="http://www.w3.org/2000/svg"
 width="360.000000pt" height="360.000000pt" viewBox="0 0 360.000000 360.000000"
 preserveAspectRatio="xMidYMid meet">
<metadata>
Created by potrace 1.15, written by Peter Selinger 2001-2017
</metadata>
<g transform="translate(0.000000,360.000000) scale(0.100000,-0.100000)"
fill="#000000" stroke="none">
<path d="M1470 2539 c0 -57 87 -95 265 -114 33 -4 76 -15 96 -26 35 -17 119
-103 119 -120 0 -15 19 -10 55 14 26 16 35 29 35 50 0 96 -123 156 -398 192
-134 18 -172 19 -172 4z"/>
<path d="M2385 1996 c-248 -48 -652 -191 -1292 -458 l-193 -80 -87 11 c-49 6
-92 11 -96 11 -5 0 -7 -12 -5 -27 2 -23 8 -28 28 -27 14 1 33 4 42 8 13 6 17
1 20 -21 3 -28 4 -28 78 -31 l76 -3 279 119 c242 103 283 118 300 107 27 -16
54 -100 61 -188 6 -64 3 -84 -29 -185 -38 -119 -73 -275 -85 -382 -7 -55 -5
-72 12 -108 22 -47 22 -47 91 -23 46 16 50 21 48 47 -6 78 -2 120 37 404 l42
304 -22 99 c-12 55 -18 103 -13 107 17 16 225 71 256 68 30 -3 33 -7 49 -66
18 -69 58 -336 86 -585 16 -138 17 -160 4 -178 -13 -18 -13 -23 0 -35 12 -12
13 -25 5 -69 -6 -33 -16 -55 -23 -55 -7 0 -41 34 -76 74 -75 89 -103 97 -102
30 1 -61 40 -130 122 -216 63 -66 80 -78 107 -78 57 0 65 20 65 166 0 71 5
169 11 217 7 57 7 92 1 100 -5 7 -15 111 -21 232 -14 256 -33 413 -57 473 -16
42 -16 43 6 67 31 33 112 62 223 80 140 23 159 21 235 -25 37 -23 89 -47 116
-55 48 -14 51 -14 73 7 13 12 23 29 23 38 0 26 -51 86 -93 110 -49 28 -199 36
-302 16z"/>
<path d="M2350 1295 c0 -8 4 -15 9 -15 24 0 289 -189 364 -259 90 -86 119 -98
150 -63 21 23 22 46 1 63 -9 7 -23 30 -31 51 -31 77 -142 142 -334 197 -154
43 -159 44 -159 26z"/>
<path d="M1124 1253 c-33 -36 -54 -111 -61 -221 l-6 -93 33 -34 c40 -42 81
-46 104 -13 9 12 25 51 37 86 l21 64 -32 45 c-33 45 -33 46 -23 112 6 36 8 69
6 74 -10 17 -55 5 -79 -20z"/>
</g>
</svg>
