<?xml version="1.0" standalone="no"?>
<!DOCTYPE svg PUBLIC "-//W3C//DTD SVG 20010904//EN"
 "http://www.w3.org/TR/2001/REC-SVG-20010904/DTD/svg10.dtd">
<svg version="1.0" xmlns="http://www.w3.org/2000/svg"
 width="360.000000pt" height="360.000000pt" viewBox="0 0 360.000000 360.000000"
 preserveAspectRatio="xMidYMid meet">
<metadata>
Created by potrace 1.15, written by Peter Selinger 2001-2017
</metadata>
<g transform="translate(0.000000,360.000000) scale(0.100000,-0.100000)"
fill="#000000" stroke="none">
<path d="M1832 2348 c-27 -30 -28 -40 -2 -63 38 -34 20 -93 -69 -227 -182
-276 -691 -864 -880 -1017 -134 -109 -181 -163 -181 -211 0 -24 7 -43 20 -55
20 -18 21 -18 54 16 18 19 126 132 241 251 206 216 208 218 244 213 713 -99
1014 -172 1294 -311 73 -37 79 -49 46 -96 -12 -16 -20 -31 -18 -32 26 -24 156
-98 196 -112 l52 -18 26 24 c39 36 36 114 -7 186 -30 50 -39 57 -145 109 -360
177 -683 267 -1040 291 -76 5 -107 3 -118 -6 -11 -9 -41 -10 -117 -5 -57 4
-111 10 -120 14 -15 5 -2 24 68 101 192 212 377 446 522 657 45 66 62 100 62
124 0 40 -29 101 -73 152 l-32 39 -23 -24z"/>
</g>
</svg>
