<?xml version="1.0" standalone="no"?>
<!DOCTYPE svg PUBLIC "-//W3C//DTD SVG 20010904//EN"
 "http://www.w3.org/TR/2001/REC-SVG-20010904/DTD/svg10.dtd">
<svg version="1.0" xmlns="http://www.w3.org/2000/svg"
 width="360.000000pt" height="360.000000pt" viewBox="0 0 360.000000 360.000000"
 preserveAspectRatio="xMidYMid meet">
<metadata>
Created by potrace 1.15, written by Peter Selinger 2001-2017
</metadata>
<g transform="translate(0.000000,360.000000) scale(0.100000,-0.100000)"
fill="#000000" stroke="none">
<path d="M1394 2576 c-3 -8 4 -46 16 -86 20 -68 20 -74 5 -126 -55 -191 -209
-452 -466 -794 -65 -87 -119 -163 -119 -168 0 -16 46 -52 66 -52 13 0 60 58
160 203 335 479 495 750 511 862 5 38 2 50 -21 80 -24 31 -117 95 -139 95 -4
0 -10 -6 -13 -14z"/>
<path d="M2251 2374 c-319 -169 -499 -312 -531 -423 -8 -30 -7 -33 9 -28 11 2
145 91 299 196 184 125 290 191 307 191 24 0 25 -2 25 -57 -1 -32 -23 -159
-50 -283 l-49 -225 27 -22 c37 -31 59 -29 114 11 55 38 119 59 168 54 26 -2
40 -11 57 -37 20 -30 23 -46 23 -136 0 -268 -93 -553 -250 -764 -54 -73 -242
-261 -261 -261 -13 0 -11 -24 2 -37 25 -25 207 87 309 189 190 189 299 480
317 848 5 117 4 128 -17 170 -52 101 -109 150 -176 150 -22 0 -73 -9 -114 -20
-41 -10 -76 -18 -78 -16 -2 2 24 107 57 232 l60 229 -47 51 c-26 29 -54 52
-62 53 -8 0 -71 -29 -139 -65z"/>
<path d="M2020 2013 c-58 -287 -151 -539 -247 -664 -56 -73 -63 -67 -63 54 -1
97 -2 103 -26 120 -56 41 -64 10 -64 -254 l0 -185 34 -33 c21 -20 41 -31 50
-28 16 6 189 352 254 507 80 192 142 392 142 462 0 34 -32 78 -57 78 -7 0 -17
-26 -23 -57z"/>
<path d="M1253 1708 c-46 -15 -45 -45 2 -54 57 -10 59 -17 52 -197 -6 -181
-22 -272 -74 -430 -34 -105 -35 -111 -24 -182 6 -40 16 -85 22 -99 17 -37 57
-35 97 7 33 33 40 65 22 83 -8 8 -1 53 21 150 31 136 32 142 22 261 -7 83 -7
139 0 174 7 38 7 64 -3 101 -10 40 -10 55 0 73 11 20 9 28 -9 54 -25 35 -69
71 -85 70 -6 -1 -26 -6 -43 -11z"/>
</g>
</svg>
