<?xml version="1.0" standalone="no"?>
<!DOCTYPE svg PUBLIC "-//W3C//DTD SVG 20010904//EN"
 "http://www.w3.org/TR/2001/REC-SVG-20010904/DTD/svg10.dtd">
<svg version="1.0" xmlns="http://www.w3.org/2000/svg"
 width="360.000000pt" height="360.000000pt" viewBox="0 0 360.000000 360.000000"
 preserveAspectRatio="xMidYMid meet">
<metadata>
Created by potrace 1.15, written by Peter Selinger 2001-2017
</metadata>
<g transform="translate(0.000000,360.000000) scale(0.100000,-0.100000)"
fill="#000000" stroke="none">
<path d="M1800 2508 c-24 -39 -45 -156 -36 -194 4 -16 30 -50 57 -77 l49 -47
0 -185 0 -185 -62 -31 c-88 -44 -156 -89 -214 -140 -32 -29 -92 -63 -172 -99
-127 -57 -141 -72 -92 -97 14 -7 61 -27 105 -45 44 -19 107 -52 140 -73 70
-47 185 -152 185 -169 0 -20 -189 -199 -260 -246 -83 -56 -177 -95 -262 -110
-58 -10 -68 -15 -68 -32 0 -20 4 -20 80 -14 192 17 358 92 532 239 36 31 70
57 74 57 4 0 38 -26 77 -57 264 -213 565 -365 811 -408 131 -22 188 -20 214 8
21 23 21 24 5 40 -52 47 -218 112 -308 121 -130 13 -288 79 -446 187 -105 72
-299 236 -299 252 0 18 128 618 132 620 1 1 43 15 91 31 49 17 111 40 138 52
55 26 62 47 29 94 -19 26 -22 27 -64 17 l-44 -10 -111 94 -111 94 0 118 c0
126 -10 168 -51 206 -15 14 -36 21 -61 21 -32 0 -41 -5 -58 -32z m290 -558 c0
-5 -16 -10 -35 -10 l-35 0 0 48 1 47 34 -37 c19 -21 35 -42 35 -48z m-233
-325 c6 -19 7 -35 2 -37 -5 -2 -13 -49 -19 -106 -10 -103 -29 -162 -54 -162
-18 0 -241 144 -239 154 1 4 57 48 125 97 140 100 169 109 185 54z"/>
<path d="M1096 2274 c-22 -21 -20 -48 6 -94 l22 -38 -22 -71 c-52 -160 -212
-444 -417 -739 -58 -84 -105 -157 -105 -161 0 -14 59 -61 76 -61 20 0 160 192
197 273 l32 67 44 -2 c41 -3 44 -5 62 -48 36 -91 18 -276 -48 -474 l-36 -108
21 -67 c33 -99 62 -145 95 -149 23 -3 30 2 43 33 26 63 39 247 24 353 -10 75
-10 107 0 167 16 96 9 258 -13 302 -20 38 -53 63 -84 63 -16 0 -23 6 -23 18 0
31 92 208 209 402 108 177 112 186 109 235 l-3 50 -65 32 c-72 37 -101 40
-124 17z"/>
</g>
</svg>
