<?xml version="1.0" standalone="no"?>
<!DOCTYPE svg PUBLIC "-//W3C//DTD SVG 20010904//EN"
 "http://www.w3.org/TR/2001/REC-SVG-20010904/DTD/svg10.dtd">
<svg version="1.0" xmlns="http://www.w3.org/2000/svg"
 width="360.000000pt" height="360.000000pt" viewBox="0 0 360.000000 360.000000"
 preserveAspectRatio="xMidYMid meet">
<metadata>
Created by potrace 1.15, written by Peter Selinger 2001-2017
</metadata>
<g transform="translate(0.000000,360.000000) scale(0.100000,-0.100000)"
fill="#000000" stroke="none">
<path d="M1353 2286 l22 -67 -35 -67 c-118 -227 -321 -555 -476 -769 -77 -106
-90 -144 -55 -163 44 -23 55 -13 166 143 59 83 110 154 111 156 7 8 96 -32
124 -56 28 -24 30 -29 30 -101 0 -89 -18 -182 -57 -299 -26 -79 -27 -86 -15
-163 6 -44 20 -100 31 -124 21 -48 56 -75 73 -58 18 18 37 110 60 291 19 154
20 188 10 277 -12 113 -38 192 -83 254 -24 34 -35 41 -52 36 -12 -4 -35 -9
-52 -13 l-30 -6 20 29 c183 279 399 634 398 653 -3 63 -52 99 -147 108 l-65 6
22 -67z"/>
<path d="M1947 2237 c-9 -15 -17 -29 -17 -33 0 -4 21 -27 46 -51 66 -64 74
-90 74 -247 0 -113 -4 -145 -21 -191 -37 -99 -117 -182 -234 -240 -44 -23 -51
-24 -64 -10 -13 13 -13 19 -3 35 33 53 1 191 -53 226 -26 17 -28 17 -41 -1
-16 -21 -17 -51 -4 -115 7 -39 3 -63 -36 -188 -24 -79 -44 -152 -44 -162 0
-25 37 -50 73 -50 17 0 98 41 220 113 120 71 264 144 384 198 106 46 193 89
193 95 0 27 -26 31 -147 21 -68 -6 -126 -8 -129 -5 -3 3 4 73 16 154 28 189
25 355 -5 396 -28 38 -86 68 -143 75 -44 5 -50 3 -65 -20z"/>
<path d="M2482 1858 c-25 -25 -12 -53 43 -95 69 -54 121 -124 136 -186 10 -45
10 -50 -16 -89 -25 -37 -27 -47 -21 -100 10 -101 46 -148 113 -148 30 0 45 5
49 15 11 26 -17 358 -33 409 -21 67 -94 139 -178 177 -73 33 -76 34 -93 17z"/>
</g>
</svg>
