<?xml version="1.0" standalone="no"?>
<!DOCTYPE svg PUBLIC "-//W3C//DTD SVG 20010904//EN"
 "http://www.w3.org/TR/2001/REC-SVG-20010904/DTD/svg10.dtd">
<svg version="1.0" xmlns="http://www.w3.org/2000/svg"
 width="360.000000pt" height="360.000000pt" viewBox="0 0 360.000000 360.000000"
 preserveAspectRatio="xMidYMid meet">
<metadata>
Created by potrace 1.15, written by Peter Selinger 2001-2017
</metadata>
<g transform="translate(0.000000,360.000000) scale(0.100000,-0.100000)"
fill="#000000" stroke="none">
<path d="M2214 1999 c-66 -50 -120 -97 -122 -104 -2 -8 0 -21 5 -30 7 -12 17
-9 60 20 69 47 163 94 203 102 l33 6 -7 -59 c-8 -68 -32 -122 -175 -393 l-102
-195 24 -23 23 -24 145 24 c79 14 147 23 152 20 4 -2 7 -13 7 -23 0 -12 -22
-32 -62 -56 -142 -85 -348 -260 -334 -283 8 -12 77 4 126 29 21 11 65 44 97
74 47 43 70 57 123 71 152 42 251 105 236 153 -3 10 -42 42 -87 71 l-81 54
-71 -7 c-40 -3 -84 -9 -99 -12 -27 -6 -28 -5 -28 32 0 31 14 61 66 144 96 152
164 298 171 365 6 55 5 57 -33 96 -35 36 -42 39 -95 39 -56 0 -58 -1 -175 -91z"/>
<path d="M1802 1588 c-16 -18 -43 -48 -59 -67 l-30 -35 -45 37 c-24 20 -61 43
-81 52 -73 31 -180 10 -148 -29 15 -18 72 -36 114 -36 l27 0 0 -102 c0 -93 2
-106 23 -132 16 -20 29 -27 40 -23 24 9 142 171 182 251 54 107 40 155 -23 84z"/>
<path d="M950 1441 c0 -82 97 -322 146 -360 53 -42 62 -35 157 144 48 90 87
169 87 175 0 5 -14 10 -31 10 -26 0 -43 -12 -96 -70 -36 -38 -73 -70 -82 -70
-11 0 -29 26 -53 78 -59 126 -128 176 -128 93z"/>
</g>
</svg>
