<?xml version="1.0" standalone="no"?>
<!DOCTYPE svg PUBLIC "-//W3C//DTD SVG 20010904//EN"
 "http://www.w3.org/TR/2001/REC-SVG-20010904/DTD/svg10.dtd">
<svg version="1.0" xmlns="http://www.w3.org/2000/svg"
 width="360.000000pt" height="360.000000pt" viewBox="0 0 360.000000 360.000000"
 preserveAspectRatio="xMidYMid meet">
<metadata>
Created by potrace 1.15, written by Peter Selinger 2001-2017
</metadata>
<g transform="translate(0.000000,360.000000) scale(0.100000,-0.100000)"
fill="#000000" stroke="none">
<path d="M1998 3013 c-38 -40 -36 -66 4 -78 21 -7 40 -23 53 -45 19 -33 20
-52 20 -270 0 -222 -1 -237 -22 -275 -58 -107 -200 -190 -445 -259 l-98 -28
-34 21 c-36 23 -61 27 -71 11 -3 -6 37 -127 91 -269 l97 -259 47 -6 c25 -3 68
-20 94 -36 25 -17 52 -30 59 -30 7 0 58 36 115 80 56 44 106 80 111 80 12 0
20 -131 26 -445 3 -154 11 -317 17 -362 10 -72 9 -94 -10 -185 -14 -72 -17
-107 -10 -115 7 -9 7 -13 0 -13 -8 0 -8 -9 0 -31 8 -23 8 -45 -1 -84 -9 -40
-9 -58 0 -79 9 -20 15 -23 25 -15 30 25 73 189 105 397 8 54 8 76 -1 87 -7 9
-8 15 0 20 14 9 13 544 -1 637 -6 42 -7 73 -2 77 5 3 15 42 21 86 8 54 21 95
40 125 25 41 32 46 77 52 32 4 56 14 67 28 9 11 27 20 40 20 91 0 303 55 327
84 15 17 -27 109 -45 102 -7 -3 -45 -8 -85 -11 l-74 -7 162 109 c187 124 189
127 123 207 -70 84 -126 116 -206 116 -27 0 -125 -23 -234 -55 -103 -30 -190
-55 -194 -55 -10 0 -7 106 6 160 9 38 9 56 1 70 -9 13 -9 59 0 178 10 147 9
163 -7 200 -23 50 -67 84 -120 89 -35 4 -45 1 -68 -24z m622 -688 c101 -25 98
-21 49 -71 -92 -95 -421 -324 -465 -324 -24 0 -26 3 -21 33 4 17 9 66 13 107
10 118 39 167 126 211 48 25 199 69 218 64 8 -2 44 -11 80 -20z m-570 -329 l0
-135 -172 -119 c-95 -65 -175 -118 -176 -116 -2 1 -18 71 -36 154 l-33 151 60
35 c171 100 302 163 340 164 15 0 17 -13 17 -134z"/>
<path d="M1120 2671 c0 -11 9 -40 19 -64 18 -42 18 -50 6 -99 -32 -120 -149
-315 -329 -545 -59 -76 -96 -131 -96 -146 0 -27 56 -86 69 -71 4 5 36 50 69
101 34 50 67 95 73 98 11 7 92 -65 111 -98 7 -13 6 -39 -3 -84 -9 -46 -10 -69
-2 -81 7 -12 4 -57 -12 -162 l-23 -144 24 -103 c13 -57 31 -117 41 -134 22
-38 57 -48 83 -24 18 16 20 32 20 137 0 112 -2 122 -31 179 l-30 61 20 162
c12 90 21 179 21 199 0 57 -57 113 -168 163 -2 1 38 64 89 140 107 161 209
363 209 413 0 50 -73 121 -124 121 -29 0 -36 -4 -36 -19z"/>
</g>
</svg>
