<?xml version="1.0" standalone="no"?>
<!DOCTYPE svg PUBLIC "-//W3C//DTD SVG 20010904//EN"
 "http://www.w3.org/TR/2001/REC-SVG-20010904/DTD/svg10.dtd">
<svg version="1.0" xmlns="http://www.w3.org/2000/svg"
 width="360.000000pt" height="360.000000pt" viewBox="0 0 360.000000 360.000000"
 preserveAspectRatio="xMidYMid meet">
<metadata>
Created by potrace 1.15, written by Peter Selinger 2001-2017
</metadata>
<g transform="translate(0.000000,360.000000) scale(0.100000,-0.100000)"
fill="#000000" stroke="none">
<path d="M2022 2667 c-12 -13 -22 -28 -22 -34 0 -16 33 -41 60 -45 23 -3 25
-7 28 -68 2 -39 -11 -149 -32 -285 -20 -121 -40 -249 -45 -283 -26 -173 -161
-303 -373 -358 -38 -10 -68 -21 -68 -24 0 -3 17 -22 38 -43 l37 -36 142 54
c78 30 147 55 154 55 28 0 -8 -288 -63 -505 -22 -90 -19 -144 13 -231 21 -56
41 -74 82 -74 41 0 45 16 32 130 l-12 105 71 83 c130 153 273 255 376 269 l43
6 -6 -34 c-12 -60 -84 -191 -167 -302 -44 -59 -80 -113 -80 -120 0 -6 10 -25
23 -41 l23 -29 97 22 c57 12 133 21 182 21 l85 0 35 37 c19 21 35 41 35 45 0
3 -16 15 -36 27 -28 17 -52 21 -115 21 -78 0 -79 0 -79 26 0 14 18 51 40 84
68 101 120 208 120 248 0 31 -8 45 -44 81 -43 43 -46 44 -94 38 -96 -11 -290
-94 -428 -182 -45 -29 -54 -32 -54 -17 0 26 40 335 46 354 12 40 139 117 319
194 101 43 120 47 221 54 136 9 154 17 154 69 0 56 -31 81 -101 81 -48 0 -79
-12 -283 -110 -126 -61 -235 -110 -243 -110 -21 0 -16 52 37 370 28 164 50
312 50 328 0 24 -13 41 -69 91 -38 34 -77 61 -88 61 -11 0 -29 -10 -41 -23z"/>
<path d="M1257 2472 c-10 -10 -17 -22 -17 -26 0 -4 18 -34 40 -66 22 -32 40
-66 40 -75 0 -41 -66 -207 -143 -362 -76 -151 -249 -463 -314 -566 l-25 -39
23 -24 c12 -13 30 -24 39 -24 25 0 117 101 125 136 3 17 16 41 28 52 41 38
137 68 137 42 0 -5 9 -10 20 -10 18 0 20 -7 20 -85 0 -46 5 -116 12 -154 11
-64 9 -88 -21 -283 l-32 -213 26 -90 c43 -149 78 -184 131 -134 20 19 24 32
24 78 0 31 10 131 22 223 l22 167 -31 31 c-17 17 -38 49 -48 70 -17 37 -17 43
-1 98 21 76 21 155 0 173 -14 11 -14 13 0 21 12 7 16 25 16 65 0 50 -4 62 -41
109 -22 29 -62 67 -89 86 -27 18 -50 36 -50 41 0 4 70 147 156 318 85 171 154
312 152 313 -2 1 -42 35 -89 74 -48 40 -93 72 -101 72 -8 0 -22 -8 -31 -18z"/>
</g>
</svg>
