<?xml version="1.0" standalone="no"?>
<!DOCTYPE svg PUBLIC "-//W3C//DTD SVG 20010904//EN"
 "http://www.w3.org/TR/2001/REC-SVG-20010904/DTD/svg10.dtd">
<svg version="1.0" xmlns="http://www.w3.org/2000/svg"
 width="360.000000pt" height="360.000000pt" viewBox="0 0 360.000000 360.000000"
 preserveAspectRatio="xMidYMid meet">
<metadata>
Created by potrace 1.15, written by Peter Selinger 2001-2017
</metadata>
<g transform="translate(0.000000,360.000000) scale(0.100000,-0.100000)"
fill="#000000" stroke="none">
<path d="M1290 2425 l-24 -25 32 -33 c39 -41 40 -56 3 -134 -64 -135 -216
-355 -479 -693 l-144 -184 26 -23 c15 -13 33 -23 41 -23 21 0 97 91 180 215
42 63 79 115 81 115 10 0 70 -34 101 -57 59 -45 64 -71 48 -226 -16 -150 -38
-289 -61 -382 -14 -57 -14 -66 9 -175 42 -194 65 -224 129 -163 24 22 28 35
28 78 0 28 9 116 20 195 28 201 29 194 -25 214 -25 10 -45 23 -45 29 0 7 12
88 26 180 26 161 26 170 10 204 -39 82 -113 143 -174 143 -12 0 -22 3 -22 6 0
4 93 137 206 297 113 159 208 296 211 303 10 27 -49 102 -117 147 -32 22 -32
22 -60 -8z"/>
<path d="M2520 2149 c-14 -24 2 -49 31 -49 32 0 69 -23 75 -47 14 -55 -26
-160 -166 -429 l-88 -172 37 -36 c28 -28 45 -36 72 -36 60 0 152 21 208 47
l53 25 25 -25 c14 -14 23 -32 20 -40 -3 -7 -119 -78 -259 -157 -139 -78 -255
-144 -257 -146 -7 -7 31 -44 45 -44 7 0 145 65 306 146 276 137 293 147 296
174 6 54 -45 123 -119 161 l-36 18 -133 -35 c-73 -19 -134 -33 -137 -31 -2 3
47 126 110 273 l115 267 -19 56 c-33 93 -41 101 -109 101 -50 0 -61 -3 -70
-21z"/>
<path d="M1810 1675 c-19 -20 -21 -27 -10 -40 7 -8 19 -15 26 -15 33 0 91 -33
108 -61 14 -24 17 -42 12 -80 -5 -38 -2 -60 15 -99 12 -28 30 -55 40 -60 14
-8 22 -1 48 45 47 84 81 163 96 230 20 83 20 87 -12 83 -21 -2 -29 -10 -36
-38 -17 -71 -30 -71 -100 -2 -60 60 -65 62 -113 62 -41 0 -55 -5 -74 -25z"/>
<path d="M1484 1628 c-10 -17 -8 -45 18 -192 33 -193 65 -266 115 -266 30 0
55 52 89 188 30 122 40 207 25 216 -5 4 -37 -18 -71 -49 -33 -30 -64 -55 -69
-55 -4 0 -23 37 -42 82 -34 82 -50 100 -65 76z"/>
</g>
</svg>
