<?xml version="1.0" standalone="no"?>
<!DOCTYPE svg PUBLIC "-//W3C//DTD SVG 20010904//EN"
 "http://www.w3.org/TR/2001/REC-SVG-20010904/DTD/svg10.dtd">
<svg version="1.0" xmlns="http://www.w3.org/2000/svg"
 width="360.000000pt" height="360.000000pt" viewBox="0 0 360.000000 360.000000"
 preserveAspectRatio="xMidYMid meet">
<metadata>
Created by potrace 1.15, written by Peter Selinger 2001-2017
</metadata>
<g transform="translate(0.000000,360.000000) scale(0.100000,-0.100000)"
fill="#000000" stroke="none">
<path d="M2021 3096 c-26 -42 -26 -63 -1 -101 48 -71 70 -173 70 -330 0 -83 0
-84 -35 -112 -19 -16 -65 -46 -102 -66 l-66 -37 -23 20 c-20 20 -22 33 -26
155 -3 116 -6 138 -24 162 -27 37 -54 40 -83 10 l-22 -25 25 -51 c24 -47 26
-60 26 -191 0 -159 7 -149 -90 -130 -41 8 -47 6 -70 -15 l-24 -25 20 -27 c23
-30 83 -78 132 -105 30 -16 31 -19 20 -48 -8 -24 -8 -46 1 -84 10 -47 9 -61
-14 -139 -32 -111 -101 -255 -204 -426 -45 -74 -81 -142 -81 -151 0 -24 42
-60 70 -60 12 0 45 14 72 30 26 17 55 30 63 30 22 0 40 -50 26 -72 -14 -23
-14 -51 1 -66 9 -9 9 -15 0 -24 -19 -19 -15 -102 6 -121 31 -28 59 -21 71 16
15 45 29 151 40 297 12 155 35 224 100 293 72 77 191 127 191 80 0 -10 18
-265 42 -566 34 -456 39 -550 28 -557 -11 -7 -11 -17 0 -63 10 -43 10 -65 1
-101 -24 -96 -9 -200 25 -178 32 21 60 129 40 152 -11 12 -10 32 9 113 22 97
22 102 12 498 -6 219 -8 401 -5 404 3 3 54 -8 114 -25 71 -19 132 -30 176 -30
l66 0 54 64 c96 117 162 247 213 421 40 137 25 202 -56 250 -24 14 -57 20
-124 23 l-90 4 -184 -76 c-101 -42 -187 -76 -191 -76 -4 0 -12 46 -19 103 -16
145 1 187 145 352 35 41 64 81 64 91 0 9 -10 32 -21 51 -19 30 -26 34 -53 29
-17 -3 -57 -8 -88 -12 l-58 -6 0 63 c0 35 -5 84 -11 108 -7 31 -6 47 2 57 12
14 -1 93 -27 168 -32 89 -95 114 -133 52z m46 -708 c13 -12 23 -31 23 -42 0
-25 -235 -306 -256 -306 -19 0 -19 91 1 157 18 59 87 142 154 185 25 15 47 28
50 28 3 0 15 -10 28 -22z m23 -342 c0 -89 -15 -112 -113 -174 -107 -67 -146
-85 -153 -68 -10 26 226 316 257 316 5 0 9 -33 9 -74z m655 12 c43 -21 45 -23
39 -58 -10 -61 -35 -133 -75 -213 -41 -81 -120 -207 -142 -225 -16 -14 -142 1
-193 23 -96 40 -153 123 -157 229 -2 50 1 58 33 91 43 46 96 83 192 135 70 38
77 40 165 40 75 0 101 -4 138 -22z"/>
<path d="M1146 2685 c-9 -13 -16 -28 -16 -33 0 -16 36 -42 59 -42 17 0 22 -5
19 -17 -3 -10 -18 -65 -34 -123 -25 -93 -52 -148 -246 -507 -122 -226 -218
-414 -218 -429 0 -36 17 -64 39 -64 14 0 41 39 102 145 106 187 138 225 188
225 36 0 39 -2 45 -37 4 -21 9 -101 12 -178 6 -122 4 -150 -15 -222 -29 -113
-31 -371 -3 -396 10 -10 31 -17 46 -17 24 0 31 8 57 67 30 66 114 343 126 416
l6 37 -52 0 -51 0 0 172 0 172 -66 67 -67 67 16 39 c8 21 72 159 141 307 69
148 122 274 119 280 -4 6 -22 30 -41 54 -33 41 -36 42 -92 42 -50 0 -60 -3
-74 -25z"/>
</g>
</svg>
