<?xml version="1.0" standalone="no"?>
<!DOCTYPE svg PUBLIC "-//W3C//DTD SVG 20010904//EN"
 "http://www.w3.org/TR/2001/REC-SVG-20010904/DTD/svg10.dtd">
<svg version="1.0" xmlns="http://www.w3.org/2000/svg"
 width="360.000000pt" height="360.000000pt" viewBox="0 0 360.000000 360.000000"
 preserveAspectRatio="xMidYMid meet">
<metadata>
Created by potrace 1.15, written by Peter Selinger 2001-2017
</metadata>
<g transform="translate(0.000000,360.000000) scale(0.100000,-0.100000)"
fill="#000000" stroke="none">
<path d="M2050 2993 c0 -10 12 -36 25 -58 18 -29 25 -54 25 -94 l0 -54 -231
-329 c-222 -317 -230 -331 -213 -349 9 -10 24 -19 33 -19 9 0 52 36 96 80 71
71 105 95 105 73 0 -5 -9 -66 -20 -138 -30 -199 -26 -225 30 -225 17 0 39 14
65 41 22 22 56 54 76 70 l36 28 67 -46 c36 -25 66 -50 66 -55 0 -15 -100 -159
-143 -205 -23 -25 -49 -43 -61 -43 -13 0 -48 27 -91 70 -38 39 -75 70 -82 70
-16 0 -56 -58 -50 -73 3 -7 85 -124 182 -262 98 -137 179 -254 181 -260 6 -16
-123 -182 -218 -280 -48 -49 -115 -129 -149 -177 -77 -110 -213 -242 -324
-314 -59 -38 -85 -61 -83 -72 9 -47 127 -2 248 95 133 106 251 232 472 504
286 351 506 605 612 708 47 46 86 88 86 95 0 20 -51 120 -72 144 -18 19 -32
22 -90 22 -62 0 -77 -5 -168 -50 -55 -27 -106 -50 -114 -50 -33 0 3 51 121
171 120 123 124 128 121 165 l-3 39 -60 -1 c-69 -1 -132 -25 -243 -92 -101
-61 -134 -44 -89 44 42 83 115 173 260 321 l140 143 -27 40 c-27 41 -27 41
-79 35 -102 -12 -195 -36 -266 -70 -39 -19 -71 -33 -71 -32 0 1 20 64 45 141
24 76 41 144 37 151 -4 7 -29 36 -55 64 -42 45 -53 51 -87 51 -32 0 -40 -4
-40 -17z m292 -445 c-11 -24 -39 -70 -64 -103 -61 -83 -207 -235 -225 -235 -8
0 -41 18 -74 41 l-61 41 24 25 c43 46 172 146 293 226 130 86 144 86 107 5z
m268 -713 c0 -14 -393 -515 -404 -515 -13 0 -76 159 -76 192 0 25 83 103 180
168 166 112 300 181 300 155z"/>
<path d="M1325 2740 c-18 -20 -18 -21 10 -50 24 -25 27 -35 22 -66 -15 -92
-145 -320 -397 -698 -94 -140 -170 -261 -170 -269 0 -22 34 -47 66 -47 36 0
68 45 146 203 52 106 53 107 88 107 49 0 110 -38 132 -82 40 -78 18 -275 -57
-493 -40 -118 -42 -154 -16 -281 31 -149 59 -181 113 -131 24 22 25 30 31 173
6 145 23 277 52 419 8 38 15 117 15 176 0 98 -2 108 -28 150 -51 79 -88 102
-183 111 -26 3 -24 8 108 228 155 260 233 412 233 456 0 35 -11 51 -61 88 -43
31 -79 33 -104 6z"/>
</g>
</svg>
