<?xml version="1.0" standalone="no"?>
<!DOCTYPE svg PUBLIC "-//W3C//DTD SVG 20010904//EN"
 "http://www.w3.org/TR/2001/REC-SVG-20010904/DTD/svg10.dtd">
<svg version="1.0" xmlns="http://www.w3.org/2000/svg"
 width="360.000000pt" height="360.000000pt" viewBox="0 0 360.000000 360.000000"
 preserveAspectRatio="xMidYMid meet">
<metadata>
Created by potrace 1.15, written by Peter Selinger 2001-2017
</metadata>
<g transform="translate(0.000000,360.000000) scale(0.100000,-0.100000)"
fill="#000000" stroke="none">
<path d="M1700 2566 c0 -7 32 -100 70 -207 39 -106 70 -198 70 -204 0 -6 -108
-94 -240 -195 -150 -116 -240 -192 -240 -202 0 -15 9 -18 48 -18 46 0 52 4
250 161 115 90 211 159 220 157 28 -5 62 -67 62 -113 0 -39 -8 -50 -132 -191
-229 -258 -358 -422 -387 -492 -12 -28 -11 -34 9 -62 12 -16 28 -30 37 -30 26
0 130 62 233 139 52 38 96 68 98 66 12 -12 -111 -233 -270 -484 -66 -104 -79
-130 -76 -159 2 -20 8 -37 13 -38 6 -2 39 45 74 104 186 309 408 617 550 763
l86 88 87 -11 c162 -22 181 3 175 222 -3 145 -18 211 -50 232 -21 13 -175 9
-247 -8 -46 -10 -77 -24 -92 -40 -13 -13 -29 -24 -35 -24 -19 0 -43 55 -46
106 l-2 47 163 120 162 119 -26 21 c-23 17 -31 19 -71 10 -43 -10 -53 -7 -235
63 -184 72 -258 89 -258 60z m313 -164 c31 -13 57 -28 57 -31 0 -4 -29 -35
-64 -70 -68 -68 -82 -71 -111 -28 -17 26 -39 142 -30 157 8 14 86 -1 148 -28z
m346 -396 c18 -28 21 -49 21 -143 0 -103 -1 -111 -24 -132 -21 -20 -31 -22
-63 -16 -21 3 -57 17 -79 30 -44 26 -144 129 -144 149 0 31 112 116 180 137
58 17 87 11 109 -25z m-296 -231 l47 -43 -47 -42 c-77 -67 -418 -288 -429
-277 -3 3 69 96 161 206 191 231 188 229 268 156z"/>
<path d="M1165 2400 c-4 -6 3 -40 15 -76 l22 -66 -60 -121 c-116 -232 -297
-513 -471 -730 -42 -51 -71 -97 -71 -111 0 -20 36 -66 53 -66 3 0 63 83 132
185 69 102 129 185 132 185 4 0 37 -14 75 -32 l68 -31 -5 -46 c-16 -135 -65
-755 -65 -822 0 -72 2 -79 26 -98 29 -22 49 -27 58 -12 4 5 42 159 86 342 52
213 77 336 71 342 -25 25 -71 -38 -71 -98 0 -18 -5 -25 -19 -25 -42 0 -44 20
-17 190 14 89 26 177 26 196 0 76 -49 134 -115 134 -18 0 -25 5 -25 19 0 37
103 225 216 393 63 93 114 177 114 188 0 26 -57 98 -109 137 -46 35 -56 39
-66 23z"/>
<path d="M2877 1276 c-20 -101 -21 -158 -2 -296 24 -174 26 -164 -56 -205
-118 -60 -269 -106 -368 -112 -167 -11 -325 38 -378 118 l-26 39 13 245 c10
193 10 248 0 260 -7 8 -16 13 -20 10 -25 -16 -70 -305 -70 -456 0 -137 67
-224 208 -270 54 -18 98 -23 223 -27 137 -3 167 -1 245 18 94 24 231 79 309
124 47 28 47 29 42 70 -3 22 -18 159 -33 304 -27 250 -29 262 -49 262 -18 0
-23 -11 -38 -84z"/>
</g>
</svg>
