<?xml version="1.0" standalone="no"?>
<!DOCTYPE svg PUBLIC "-//W3C//DTD SVG 20010904//EN"
 "http://www.w3.org/TR/2001/REC-SVG-20010904/DTD/svg10.dtd">
<svg version="1.0" xmlns="http://www.w3.org/2000/svg"
 width="360.000000pt" height="360.000000pt" viewBox="0 0 360.000000 360.000000"
 preserveAspectRatio="xMidYMid meet">
<metadata>
Created by potrace 1.15, written by Peter Selinger 2001-2017
</metadata>
<g transform="translate(0.000000,360.000000) scale(0.100000,-0.100000)"
fill="#000000" stroke="none">
<path d="M1853 3179 c-76 -13 -160 -47 -199 -81 -40 -35 -45 -61 -11 -53 67
15 270 45 306 45 36 0 41 -3 41 -22 0 -12 -15 -37 -32 -55 -36 -38 -32 -60 15
-77 22 -8 33 -2 101 60 66 59 76 73 76 102 0 46 -14 68 -51 81 -37 13 -170 13
-246 0z"/>
<path d="M1080 2937 c0 -23 8 -41 25 -57 32 -30 32 -63 1 -139 -53 -132 -254
-450 -500 -791 -69 -96 -126 -182 -126 -190 0 -9 18 -33 40 -55 l39 -38 46 37
c50 42 105 127 105 165 0 14 58 112 139 236 242 369 391 628 407 711 5 26 -1
39 -46 92 -47 57 -55 62 -91 62 -38 0 -39 -1 -39 -33z"/>
<path d="M2289 2875 c-152 -71 -168 -82 -510 -338 -327 -246 -354 -264 -379
-255 -15 5 -36 24 -46 43 -17 32 -19 33 -36 18 -12 -11 -18 -31 -18 -63 0 -39
5 -51 33 -78 30 -29 39 -32 92 -32 l60 1 225 194 c124 107 232 194 241 194 33
2 42 -25 34 -106 -14 -161 -55 -262 -126 -315 -19 -14 -76 -39 -128 -57 -109
-38 -212 -88 -291 -141 -103 -70 -220 -206 -220 -254 0 -30 53 -91 107 -123
38 -22 58 -27 122 -27 109 -1 168 30 291 152 65 64 96 89 98 78 2 -9 -15 -104
-38 -212 -34 -160 -40 -200 -31 -222 8 -19 8 -38 1 -62 -17 -58 -13 -135 8
-153 22 -20 95 -23 110 -5 6 7 20 51 32 98 58 230 131 419 205 530 59 89 98
122 139 118 l31 -3 32 -489 33 -489 -33 -274 -33 -273 21 -20 c12 -11 24 -20
27 -20 4 0 16 24 27 54 43 114 137 631 119 653 -7 9 -7 13 0 13 7 0 7 11 0 34
-8 24 -7 43 0 64 8 23 1 115 -30 404 l-41 373 -51 53 c-45 46 -55 52 -91 52
-66 0 -122 -52 -269 -253 -43 -59 -80 -106 -82 -104 -2 2 6 54 17 116 l22 112
-22 23 c-26 28 -26 51 -1 104 45 92 177 147 454 188 104 16 121 16 222 1 134
-19 265 -57 363 -102 77 -37 109 -43 129 -23 35 35 -16 100 -107 140 -68 29
-219 66 -357 86 l-120 19 -233 -44 c-129 -24 -235 -42 -237 -40 -6 6 68 422
77 433 5 6 28 16 51 23 84 25 228 101 273 145 l46 43 -23 47 c-12 25 -24 46
-27 45 -4 0 -76 -33 -162 -74z m-490 -927 c-64 -126 -201 -283 -273 -313 -20
-8 -61 -15 -93 -15 -46 0 -64 5 -88 24 l-29 24 38 48 c146 183 281 273 409
274 l57 0 -21 -42z"/>
<path d="M988 2164 c-15 -16 -14 -21 12 -68 16 -28 36 -77 44 -108 13 -49 13
-62 1 -85 -19 -39 -32 -145 -45 -370 -13 -204 -3 -422 22 -499 12 -35 16 -39
51 -42 55 -5 77 18 77 79 0 26 -4 51 -10 54 -6 4 -5 13 3 25 8 15 9 25 1 37
-8 12 -7 25 4 46 9 18 16 75 20 153 l5 125 -32 12 c-38 14 -39 25 -11 257 11
91 20 187 20 213 0 71 -41 141 -102 173 -34 18 -40 18 -60 -2z"/>
</g>
</svg>
