<?xml version="1.0" standalone="no"?>
<!DOCTYPE svg PUBLIC "-//W3C//DTD SVG 20010904//EN"
 "http://www.w3.org/TR/2001/REC-SVG-20010904/DTD/svg10.dtd">
<svg version="1.0" xmlns="http://www.w3.org/2000/svg"
 width="360.000000pt" height="360.000000pt" viewBox="0 0 360.000000 360.000000"
 preserveAspectRatio="xMidYMid meet">
<metadata>
Created by potrace 1.15, written by Peter Selinger 2001-2017
</metadata>
<g transform="translate(0.000000,360.000000) scale(0.100000,-0.100000)"
fill="#000000" stroke="none">
<path d="M1835 2661 c-33 -15 -86 -49 -117 -75 -31 -25 -65 -46 -75 -46 -10 0
-50 9 -88 20 -38 11 -71 20 -72 20 -2 0 -3 -13 -3 -30 0 -39 51 -97 98 -110
20 -5 56 -10 79 -10 39 0 50 7 143 90 l101 90 55 0 c53 0 56 -1 51 -22 -3 -13
-13 -66 -22 -118 l-17 -96 -71 1 c-69 0 -78 -3 -200 -64 -71 -35 -131 -70
-134 -77 -3 -7 8 -29 23 -49 19 -25 25 -41 18 -50 -120 -163 -151 -225 -161
-322 -4 -37 -2 -58 8 -69 12 -15 12 -18 -1 -22 -31 -11 -124 -110 -175 -187
-51 -76 -185 -338 -185 -361 0 -5 16 -25 35 -44 33 -32 35 -33 54 -16 29 27
86 141 120 241 20 58 35 89 43 87 66 -18 72 -16 244 86 239 140 366 210 549
299 l160 78 110 3 c73 2 107 0 100 -6 -40 -40 -390 -234 -460 -255 -22 -6 -97
-54 -166 -107 -135 -102 -277 -183 -348 -199 -39 -8 -50 -7 -93 15 -57 29 -95
24 -104 -13 -4 -13 -5 -25 -3 -27 2 -1 45 -20 94 -41 118 -49 305 -142 328
-162 24 -22 21 -56 -5 -80 -13 -11 -155 -104 -316 -208 -162 -103 -296 -194
-299 -202 -3 -8 -3 -17 1 -20 15 -15 490 208 653 307 l103 62 77 -72 c173
-160 375 -288 538 -341 61 -19 97 -23 278 -27 188 -4 210 -2 228 14 25 23 24
36 -5 63 -49 46 -145 71 -388 101 -199 24 -392 116 -585 279 l-72 61 35 74
c50 109 91 225 130 366 19 68 38 127 42 131 4 3 63 25 131 48 248 86 369 147
400 202 13 24 13 29 -3 54 -10 15 -33 33 -51 41 -49 20 -223 46 -275 41 -96
-9 -376 -142 -748 -356 -118 -68 -217 -120 -220 -116 -13 13 62 137 126 206
83 90 169 149 215 149 19 0 59 13 88 28 82 43 157 154 119 177 -5 3 13 42 42
88 92 147 167 329 168 407 0 8 -24 34 -54 58 -54 41 -56 42 -133 42 -65 0 -88
-5 -138 -29z m66 -445 c-28 -65 -102 -139 -205 -207 -83 -55 -126 -72 -126
-50 0 21 84 113 181 198 174 152 164 144 167 123 2 -11 -6 -39 -17 -64z m84
-778 c-10 -73 -38 -144 -86 -218 l-40 -62 -27 18 c-15 9 -51 35 -80 56 -59 44
-59 49 5 110 53 51 194 147 216 148 17 0 18 -5 12 -52z"/>
<path d="M1010 2475 c-10 -13 -10 -19 4 -34 26 -28 13 -73 -64 -229 -72 -145
-181 -316 -325 -507 l-87 -116 23 -25 c12 -13 28 -24 36 -24 27 0 299 392 472
682 70 117 82 143 79 175 -3 34 -8 41 -53 65 -58 32 -68 33 -85 13z"/>
<path d="M870 1662 c0 -11 20 -33 46 -52 39 -28 45 -37 41 -59 -3 -14 -18
-113 -34 -219 -27 -185 -27 -194 -10 -204 17 -9 17 -11 1 -29 -23 -26 -46
-129 -32 -146 6 -8 7 -13 1 -13 -7 0 -7 -16 0 -45 7 -31 7 -68 -1 -122 -10
-73 -10 -81 11 -123 27 -56 56 -64 85 -23 16 23 20 51 25 158 3 80 16 182 33
264 23 117 25 141 15 184 -6 26 -11 117 -11 201 0 140 -2 156 -21 180 -42 54
-149 88 -149 48z"/>
</g>
</svg>
