<?xml version="1.0" standalone="no"?>
<!DOCTYPE svg PUBLIC "-//W3C//DTD SVG 20010904//EN"
 "http://www.w3.org/TR/2001/REC-SVG-20010904/DTD/svg10.dtd">
<svg version="1.0" xmlns="http://www.w3.org/2000/svg"
 width="360.000000pt" height="360.000000pt" viewBox="0 0 360.000000 360.000000"
 preserveAspectRatio="xMidYMid meet">
<metadata>
Created by potrace 1.15, written by Peter Selinger 2001-2017
</metadata>
<g transform="translate(0.000000,360.000000) scale(0.100000,-0.100000)"
fill="#000000" stroke="none">
<path d="M2134 2779 c-3 -6 -17 -8 -31 -4 -19 4 -32 0 -49 -16 -13 -12 -24
-26 -24 -29 0 -4 19 -10 42 -13 30 -4 50 -14 66 -33 22 -25 24 -35 20 -110 -3
-78 -5 -86 -44 -141 -22 -32 -71 -83 -107 -114 -64 -54 -199 -149 -211 -149
-3 0 -6 14 -6 32 0 22 10 42 32 65 l32 33 -24 25 c-13 14 -29 25 -37 25 -22 0
-86 -72 -116 -130 l-29 -55 31 -67 c28 -60 34 -68 59 -68 34 0 133 58 182 106
20 19 40 34 45 34 6 0 25 -18 43 -40 41 -50 42 -88 2 -206 -107 -311 -173
-621 -196 -910 l-6 -81 33 -23 32 -24 36 20 c26 14 35 25 32 39 -6 33 -5 155
3 238 7 73 9 77 32 77 20 0 24 -5 24 -28 0 -79 60 -210 148 -328 106 -141 413
-421 446 -408 21 8 46 66 56 132 13 75 12 677 0 907 -18 322 -51 516 -101 579
-19 24 -27 26 -91 26 -39 0 -95 -8 -124 -17 -30 -9 -57 -13 -61 -9 -15 15 51
117 128 200 74 79 84 86 157 110 116 39 156 65 160 102 3 26 -3 37 -36 63 -31
24 -50 31 -85 31 -60 0 -165 -33 -257 -81 -42 -21 -79 -39 -83 -39 -4 0 -7 38
-7 84 0 50 -4 88 -11 92 -6 3 -8 16 -5 27 11 42 -79 110 -100 76z m256 -331
c0 -18 -140 -178 -155 -178 -26 0 -35 25 -19 56 23 43 53 73 109 105 56 32 65
35 65 17z m-285 -184 c27 -20 9 -49 -31 -49 -32 0 -44 26 -24 50 16 19 30 18
55 -1z m394 -259 c5 -2 12 -53 15 -112 4 -60 12 -135 18 -168 6 -33 12 -91 13
-130 1 -38 6 -82 10 -97 9 -34 -8 -36 -74 -9 -40 16 -50 17 -109 4 -36 -7 -69
-10 -73 -6 -3 5 20 75 53 157 l59 149 -31 32 c-30 31 -31 31 -98 24 -37 -5
-84 -11 -104 -14 -35 -5 -38 -3 -38 18 0 28 33 61 125 122 l70 46 78 -5 c43
-3 82 -8 86 -11z m-239 -271 c11 -13 7 -37 -28 -145 -23 -71 -42 -137 -42
-146 1 -37 65 -93 108 -93 30 0 28 -4 -15 -43 -25 -23 -34 -39 -30 -50 17 -43
124 -1 223 87 l61 55 22 -29 c20 -28 21 -39 21 -300 0 -168 4 -279 10 -291 6
-10 7 -19 2 -19 -5 0 -12 -20 -16 -45 -6 -49 -21 -85 -35 -85 -16 0 -175 134
-253 214 -89 90 -157 187 -196 278 -24 59 -26 75 -30 251 l-4 188 42 64 c70
107 129 147 160 109z"/>
<path d="M1320 2542 c0 -27 8 -48 30 -74 29 -35 30 -39 20 -85 -23 -104 -174
-345 -404 -643 l-104 -134 26 -32 c15 -18 32 -31 37 -30 21 5 231 279 354 463
44 65 107 167 140 228 56 101 61 114 61 172 0 58 -3 66 -37 104 -38 41 -80 69
-108 69 -11 0 -15 -10 -15 -38z"/>
<path d="M1197 1758 l-27 -10 54 -60 c48 -54 53 -65 49 -97 -25 -218 -61 -687
-52 -697 7 -8 7 -14 -1 -19 -5 -3 -10 -23 -10 -44 0 -28 7 -44 28 -64 44 -42
59 -20 92 138 31 147 91 591 82 600 -3 3 -14 5 -24 5 -16 0 -18 9 -18 75 0 69
-2 77 -32 110 -25 29 -97 78 -110 74 -2 0 -15 -5 -31 -11z"/>
</g>
</svg>
