<?xml version="1.0" standalone="no"?>
<!DOCTYPE svg PUBLIC "-//W3C//DTD SVG 20010904//EN"
 "http://www.w3.org/TR/2001/REC-SVG-20010904/DTD/svg10.dtd">
<svg version="1.0" xmlns="http://www.w3.org/2000/svg"
 width="360.000000pt" height="360.000000pt" viewBox="0 0 360.000000 360.000000"
 preserveAspectRatio="xMidYMid meet">
<metadata>
Created by potrace 1.15, written by Peter Selinger 2001-2017
</metadata>
<g transform="translate(0.000000,360.000000) scale(0.100000,-0.100000)"
fill="#000000" stroke="none">
<path d="M1800 2855 c-31 -38 28 -139 115 -197 49 -32 65 -48 65 -66 0 -30
-69 -103 -198 -210 l-103 -85 -99 -18 c-54 -9 -113 -25 -129 -35 -24 -14 -33
-16 -43 -6 -7 7 -22 12 -35 12 -22 0 -23 -4 -23 -67 0 -193 -79 -451 -188
-616 l-26 -39 -12 71 c-14 80 -39 128 -82 153 -49 29 -58 -9 -17 -70 34 -50
33 -104 -10 -402 -25 -171 -35 -275 -34 -354 l1 -111 42 -37 43 -38 30 38 c30
37 30 38 36 197 8 189 23 289 79 523 35 143 45 171 58 166 8 -4 41 -9 72 -12
65 -5 77 6 61 55 -7 20 -3 76 12 188 14 107 19 166 12 179 -6 12 -5 39 3 75
l12 57 72 -25 73 -25 132 78 c152 90 322 172 432 210 130 44 209 56 370 56
143 0 149 -1 149 -20 0 -12 -10 -24 -22 -30 -13 -5 -58 -23 -100 -40 -75 -31
-138 -76 -138 -99 0 -19 35 -12 146 31 92 35 129 43 238 54 164 16 178 26 118
83 -23 22 -72 58 -110 80 -61 37 -75 41 -133 41 -38 0 -70 -5 -77 -12 -9 -9
-15 -10 -20 -2 -5 7 -77 4 -242 -12 -240 -23 -283 -21 -232 13 14 10 22 26 22
43 0 25 -7 32 -56 54 -63 29 -169 111 -203 157 -24 32 -42 37 -61 14z"/>
<path d="M1087 2682 c-24 -26 -22 -34 28 -105 25 -36 45 -70 45 -77 0 -7 -113
-215 -252 -462 -248 -445 -251 -451 -235 -477 9 -14 26 -27 40 -29 23 -3 33
13 129 200 129 250 271 497 372 649 64 97 76 122 76 157 0 40 -2 42 -84 101
-46 34 -88 61 -94 61 -5 0 -16 -8 -25 -18z"/>
<path d="M2183 2140 c-82 -29 -182 -85 -260 -145 -66 -50 -77 -55 -123 -55
-45 0 -50 -2 -50 -22 0 -12 9 -32 20 -44 l21 -21 -38 -671 -38 -671 37 -21 38
-21 31 22 c22 15 29 27 26 43 -3 11 -13 56 -23 99 -16 70 -17 82 -3 105 35 63
167 122 362 162 112 23 151 25 255 15 62 -7 75 -5 92 10 28 26 26 71 -4 91
-31 19 -120 44 -163 44 -18 0 -33 4 -33 9 0 5 50 73 110 150 67 86 110 150
110 164 0 27 -43 71 -83 86 -70 27 -113 16 -351 -89 -124 -55 -230 -100 -235
-100 -4 0 -13 30 -19 68 l-11 67 72 67 c67 62 79 69 172 98 99 32 244 95 277
121 15 12 16 20 6 57 -6 23 -21 51 -35 62 -23 18 -23 22 -13 62 6 24 23 60 36
81 20 31 24 48 22 90 -3 51 -4 53 -48 74 -64 32 -98 35 -157 13z m42 -162
c-16 -106 -116 -236 -247 -323 -85 -56 -110 -37 -89 69 7 34 26 90 42 126 55
119 125 169 237 170 l64 0 -7 -42z m118 -675 c-113 -153 -235 -282 -318 -337
-47 -31 -130 -66 -158 -66 -34 0 -47 99 -26 202 l11 55 227 91 c124 49 241 90
259 91 l33 1 -28 -37z"/>
</g>
</svg>
