<?xml version="1.0" standalone="no"?>
<!DOCTYPE svg PUBLIC "-//W3C//DTD SVG 20010904//EN"
 "http://www.w3.org/TR/2001/REC-SVG-20010904/DTD/svg10.dtd">
<svg version="1.0" xmlns="http://www.w3.org/2000/svg"
 width="360.000000pt" height="360.000000pt" viewBox="0 0 360.000000 360.000000"
 preserveAspectRatio="xMidYMid meet">
<metadata>
Created by potrace 1.15, written by Peter Selinger 2001-2017
</metadata>
<g transform="translate(0.000000,360.000000) scale(0.100000,-0.100000)"
fill="#000000" stroke="none">
<path d="M1989 2641 c-56 -43 -139 -75 -406 -157 -7 -2 -13 -8 -13 -14 0 -18
30 -23 68 -12 29 9 40 9 50 -2 11 -11 32 -10 120 5 252 43 342 76 342 127 0
64 -104 98 -161 53z"/>
<path d="M1024 2466 c-3 -8 0 -32 6 -55 10 -38 8 -48 -25 -124 -38 -84 -161
-319 -303 -576 l-80 -145 22 -33 c11 -18 25 -33 30 -33 4 0 31 20 58 45 28 25
59 45 70 45 33 0 77 -29 95 -63 23 -44 20 -189 -6 -312 -6 -27 -14 -156 -17
-285 l-7 -235 42 -33 c23 -18 49 -32 58 -30 24 5 42 68 55 197 6 64 14 120 18
124 8 9 489 237 500 237 6 0 20 -142 24 -249 l1 -34 -155 -52 c-154 -51 -155
-52 -158 -83 -2 -18 -1 -32 2 -32 12 0 317 109 446 159 l147 58 86 -18 c200
-40 530 -178 848 -354 45 -25 89 -45 98 -45 19 0 81 59 81 77 0 15 -491 261
-634 318 -66 26 -159 57 -208 69 -75 18 -88 24 -88 41 0 12 35 63 79 115 59
71 80 105 85 135 11 62 46 116 96 147 76 46 145 58 341 58 176 0 177 0 232
-29 l55 -29 33 34 c31 32 32 35 19 60 -17 31 -94 77 -165 100 -48 15 -61 15
-304 -16 -236 -30 -308 -32 -357 -13 -9 3 -14 -2 -14 -14 0 -49 -74 -100 -161
-110 -58 -7 -62 3 -28 68 31 63 135 157 268 244 67 43 121 86 121 94 0 8 -12
28 -27 43 -37 39 -101 38 -211 -2 -46 -16 -89 -30 -97 -30 -30 0 -34 33 -16
133 14 80 22 103 47 128 44 48 108 73 262 105 21 4 23 9 20 62 -4 72 -10 74
-151 33 -58 -17 -109 -31 -115 -31 -5 0 -13 11 -16 24 -3 13 -22 38 -41 55
-49 42 -113 44 -145 4 l-21 -28 21 -17 c12 -10 28 -18 35 -18 23 0 45 -30 45
-60 0 -25 -18 -43 -132 -135 -149 -119 -305 -228 -388 -270 -43 -22 -73 -29
-137 -33 -57 -3 -83 -8 -83 -17 0 -7 20 -31 46 -54 39 -37 49 -42 77 -36 59
11 191 85 315 175 118 86 162 107 162 75 0 -8 -63 -106 -140 -219 -85 -124
-140 -213 -140 -228 0 -24 37 -68 57 -68 5 0 43 43 83 96 76 100 137 151 166
140 14 -5 16 -16 11 -65 -5 -65 -38 -139 -89 -202 -82 -103 -284 -220 -512
-298 -135 -47 -156 -50 -156 -21 0 21 28 221 36 258 4 20 1 23 -18 20 -16 -2
-24 -13 -31 -38 -11 -45 -22 -56 -41 -41 -12 10 -13 17 -4 31 16 25 -5 137
-38 201 -28 57 -61 81 -118 89 -27 3 -42 10 -44 22 -2 9 83 180 189 379 l192
362 -39 33 c-42 37 -109 47 -120 20z m1001 -682 c-16 -14 -42 -34 -57 -45
l-28 -20 0 22 c0 36 38 69 79 69 l36 -1 -30 -25z m78 -406 c-5 -81 -100 -206
-216 -286 -43 -30 -51 -32 -136 -32 l-91 0 0 53 c0 94 59 171 177 231 65 32
209 76 243 73 22 -2 25 -6 23 -39z"/>
</g>
</svg>
