<?xml version="1.0" standalone="no"?>
<!DOCTYPE svg PUBLIC "-//W3C//DTD SVG 20010904//EN"
 "http://www.w3.org/TR/2001/REC-SVG-20010904/DTD/svg10.dtd">
<svg version="1.0" xmlns="http://www.w3.org/2000/svg"
 width="360.000000pt" height="360.000000pt" viewBox="0 0 360.000000 360.000000"
 preserveAspectRatio="xMidYMid meet">
<metadata>
Created by potrace 1.15, written by Peter Selinger 2001-2017
</metadata>
<g transform="translate(0.000000,360.000000) scale(0.100000,-0.100000)"
fill="#000000" stroke="none">
<path d="M2092 2640 c-44 -27 -89 -101 -102 -169 -20 -104 -40 -143 -109 -212
-72 -72 -206 -147 -340 -190 -39 -13 -71 -26 -71 -30 0 -4 14 -19 30 -33 24
-20 38 -24 63 -20 50 10 128 47 210 103 42 28 87 51 102 51 14 0 25 -1 25 -2
0 -2 -11 -61 -25 -132 -84 -426 -113 -868 -71 -1058 l20 -87 -24 -26 c-46 -49
-289 -125 -399 -125 -34 0 -61 -3 -61 -6 0 -19 66 -94 83 -94 10 0 200 48 420
106 398 105 403 107 507 105 184 -3 315 -29 384 -76 43 -29 95 -33 131 -9 14
9 25 25 25 35 0 26 -103 105 -169 129 -68 26 -166 37 -185 21 -10 -8 -16 -9
-21 -1 -3 5 -36 10 -72 10 l-65 0 9 98 c8 101 6 470 -5 820 -6 164 -10 205
-22 212 -8 5 -58 10 -110 10 l-96 0 -73 -45 c-99 -61 -105 -60 -97 15 19 165
101 254 294 321 54 18 55 18 138 -3 l83 -23 31 30 c19 18 30 38 28 50 -3 17
-13 21 -66 27 -142 16 -260 83 -323 184 -24 39 -32 41 -77 14z m96 -156 c19
-25 31 -51 29 -58 -3 -6 -30 -21 -61 -31 -49 -17 -58 -17 -71 -4 -12 11 -13
22 -5 51 12 41 46 88 63 88 7 -1 27 -21 45 -46z m66 -533 c28 -53 36 -155 36
-446 0 -272 -2 -297 -25 -410 -14 -65 -28 -121 -30 -124 -7 -7 -105 62 -105
74 0 6 11 44 24 85 31 98 56 246 56 333 0 78 -17 111 -74 146 -48 30 -80 26
-133 -14 -25 -19 -49 -32 -53 -30 -5 3 -3 21 3 40 8 27 7 41 -3 60 -28 52 49
169 180 272 67 52 103 56 124 14z m-265 -661 l21 -224 -22 -23 c-12 -13 -32
-23 -46 -23 l-24 0 4 228 c4 218 15 300 37 276 5 -5 18 -110 30 -234z m121
100 l0 -110 -30 0 -30 0 0 110 0 110 30 0 30 0 0 -110z m0 -480 c0 -17 -7 -20
-40 -20 -33 0 -40 3 -40 20 0 17 7 20 40 20 33 0 40 -3 40 -20z"/>
<path d="M1186 2451 c-9 -14 10 -57 34 -81 l22 -22 -23 -56 c-89 -226 -272
-531 -456 -764 -29 -37 -53 -74 -53 -82 0 -23 57 -59 83 -52 24 6 48 37 217
291 175 262 329 537 362 646 14 48 -4 79 -62 109 -40 21 -114 27 -124 11z"/>
<path d="M1100 1600 c0 -19 16 -59 39 -98 l40 -67 -25 -90 c-44 -160 -65 -310
-71 -496 -7 -201 -2 -236 33 -279 33 -39 57 -38 83 4 16 26 21 50 21 109 0
101 17 260 41 386 l20 103 -20 22 c-19 20 -21 35 -21 149 0 140 -10 180 -58
230 -15 16 -39 35 -54 43 -28 14 -28 14 -28 -16z"/>
</g>
</svg>
