<?xml version="1.0" standalone="no"?>
<!DOCTYPE svg PUBLIC "-//W3C//DTD SVG 20010904//EN"
 "http://www.w3.org/TR/2001/REC-SVG-20010904/DTD/svg10.dtd">
<svg version="1.0" xmlns="http://www.w3.org/2000/svg"
 width="360.000000pt" height="360.000000pt" viewBox="0 0 360.000000 360.000000"
 preserveAspectRatio="xMidYMid meet">
<metadata>
Created by potrace 1.15, written by Peter Selinger 2001-2017
</metadata>
<g transform="translate(0.000000,360.000000) scale(0.100000,-0.100000)"
fill="#000000" stroke="none">
<path d="M1882 2597 c-29 -30 -28 -40 9 -101 30 -47 31 -54 25 -118 -7 -81
-76 -354 -140 -560 -48 -153 -54 -196 -34 -216 22 -22 43 -12 156 79 133 106
152 111 166 36 8 -39 4 -73 -22 -194 -17 -80 -33 -147 -35 -149 -2 -2 -41 11
-88 29 -67 27 -84 37 -82 53 1 10 5 40 8 67 6 42 5 47 -12 47 -11 0 -34 -16
-53 -35 -19 -19 -39 -35 -45 -35 -6 0 -31 21 -55 46 -44 45 -46 46 -96 41 -66
-7 -144 -40 -180 -78 -40 -41 -57 -38 -48 9 14 82 47 200 71 253 22 51 30 59
71 74 60 23 112 61 112 84 0 9 -13 30 -30 46 -29 27 -32 28 -85 18 -39 -7 -55
-6 -55 1 0 6 9 63 20 126 36 211 23 332 -39 364 -59 31 -84 29 -120 -8 -41
-42 -38 -68 8 -77 72 -15 72 -16 41 -299 -27 -242 -25 -236 -78 -293 -51 -54
-96 -81 -155 -91 -46 -9 -57 -30 -29 -59 l21 -20 79 21 c44 12 85 22 92 22 19
0 5 -131 -20 -186 -23 -54 -100 -137 -153 -167 l-40 -22 7 -140 c3 -77 12
-169 20 -205 8 -36 10 -67 5 -71 -10 -6 16 -116 33 -136 17 -21 42 -15 76 20
38 39 40 50 10 65 l-23 11 22 0 22 1 -19 46 c-48 111 -6 282 100 406 42 49
152 128 177 128 34 0 -26 -146 -128 -312 -32 -53 -59 -101 -59 -105 0 -18 47
-53 70 -53 37 0 75 36 245 229 88 99 163 181 168 181 15 0 102 -48 125 -70 12
-11 22 -27 22 -34 0 -23 -78 -135 -128 -183 -56 -55 -152 -103 -204 -103 -36
0 -38 -1 -38 -33 0 -46 34 -62 93 -46 87 23 167 75 306 199 l85 74 125 -130
c146 -152 207 -202 311 -254 135 -68 263 -99 460 -115 89 -6 123 6 128 48 4
34 -22 77 -46 77 -10 0 -22 4 -27 9 -6 5 -53 14 -106 20 -184 21 -360 88 -522
198 -83 56 -224 172 -263 215 l-21 23 33 150 c40 180 43 273 13 362 -28 83
-23 114 18 125 22 6 34 17 41 37 8 22 18 30 47 35 62 12 228 62 278 84 53 23
57 35 24 74 l-22 27 -74 -20 c-144 -37 -311 -123 -463 -236 -62 -47 -108 -67
-108 -45 0 4 18 48 39 98 69 160 159 492 147 538 -12 42 -107 126 -143 126
-11 0 -29 -10 -41 -23z"/>
<path d="M937 2443 c-23 -26 -22 -46 4 -69 18 -16 20 -26 15 -66 -21 -158
-159 -405 -393 -703 -35 -44 -63 -89 -63 -101 0 -21 38 -64 57 -64 18 0 87 85
122 149 17 33 36 63 41 66 5 3 24 -1 43 -9 38 -16 75 -79 84 -145 5 -33 2 -41
-16 -51 l-22 -11 21 -34 20 -33 -55 -265 c-47 -225 -55 -281 -55 -371 0 -156
22 -196 108 -196 56 0 67 17 53 81 -9 39 -9 73 0 130 8 57 8 104 0 181 -10 88
-8 142 10 364 12 143 19 272 16 286 -11 44 -67 109 -108 127 -21 9 -39 20 -39
24 0 5 31 50 69 101 173 230 276 445 256 534 -15 70 -127 120 -168 75z"/>
</g>
</svg>
