<?xml version="1.0" standalone="no"?>
<!DOCTYPE svg PUBLIC "-//W3C//DTD SVG 20010904//EN"
 "http://www.w3.org/TR/2001/REC-SVG-20010904/DTD/svg10.dtd">
<svg version="1.0" xmlns="http://www.w3.org/2000/svg"
 width="360.000000pt" height="360.000000pt" viewBox="0 0 360.000000 360.000000"
 preserveAspectRatio="xMidYMid meet">
<metadata>
Created by potrace 1.15, written by Peter Selinger 2001-2017
</metadata>
<g transform="translate(0.000000,360.000000) scale(0.100000,-0.100000)"
fill="#000000" stroke="none">
<path d="M1745 2960 c-3 -5 -1 -27 6 -48 10 -35 8 -46 -34 -148 -154 -372
-329 -710 -482 -929 -67 -96 -160 -205 -176 -205 -5 0 -9 22 -9 50 0 86 -19
151 -55 187 -18 18 -40 33 -49 33 -9 0 -16 3 -16 8 0 4 92 162 205 352 235
396 234 391 161 458 -31 29 -58 43 -95 51 -69 15 -71 14 -98 -11 l-23 -22 36
-37 36 -37 -16 -63 c-43 -167 -239 -501 -548 -931 -54 -76 -98 -142 -98 -149
0 -18 40 -69 54 -69 7 0 79 85 160 190 81 104 151 192 157 196 35 21 124 -119
100 -157 -6 -10 -11 -36 -11 -56 -1 -21 -15 -158 -33 -304 -24 -195 -30 -274
-23 -298 7 -23 6 -39 -2 -52 -24 -39 -15 -82 27 -123 26 -26 45 -37 56 -32 37
14 113 233 210 606 83 319 151 447 275 514 33 18 73 30 112 33 l60 6 -21 -41
c-11 -22 -41 -58 -66 -79 -59 -49 -87 -98 -130 -225 -60 -180 -131 -639 -107
-692 15 -33 60 -46 78 -22 17 24 31 118 40 259 4 83 10 117 19 117 14 0 72
-38 132 -87 53 -43 96 -113 91 -150 -3 -25 -8 -29 -50 -37 -27 -4 -48 -13 -48
-20 0 -6 17 -63 38 -126 l39 -115 42 -3 c23 -2 48 2 55 7 9 8 15 65 19 199 8
260 33 402 93 529 30 62 91 133 115 133 12 0 29 -84 19 -94 -6 -6 -10 -83 -10
-173 0 -183 11 -228 63 -265 29 -21 30 -21 44 -2 12 15 13 35 7 94 -21 203 20
549 80 667 25 50 52 80 62 70 3 -3 21 -184 40 -404 29 -332 34 -423 29 -548
-8 -191 -21 -301 -45 -392 -17 -61 -18 -81 -9 -123 6 -27 14 -50 18 -50 15 0
59 115 84 220 14 58 38 167 53 244 l27 138 -22 422 c-13 231 -27 429 -32 438
-5 10 -5 18 1 20 15 5 -17 95 -47 136 -21 28 -30 32 -69 32 -42 0 -46 -3 -73
-45 -15 -24 -45 -83 -67 -130 -23 -50 -44 -83 -51 -81 -6 3 -27 8 -45 11 -33
6 -37 3 -138 -110 l-105 -117 -6 54 c-3 29 -11 64 -18 77 -15 26 -83 60 -123
61 -16 0 -28 3 -28 6 0 3 47 63 106 133 l105 127 132 43 c73 24 152 52 176 63
l44 19 -34 35 c-34 36 -34 36 -104 31 -79 -5 -193 -44 -398 -138 -128 -59
-157 -68 -157 -48 0 9 251 440 271 465 7 9 33 6 97 -11 75 -19 99 -31 172 -85
133 -98 403 -275 479 -313 50 -25 94 -38 157 -47 122 -16 273 -49 306 -66 36
-18 82 -18 98 1 11 13 9 20 -11 41 -48 51 -158 91 -366 134 l-142 28 -138 90
c-307 198 -530 322 -581 322 -28 0 -30 -10 37 160 l49 125 -41 43 c-34 35 -48
42 -78 42 -21 0 -41 -4 -44 -10z m-84 -1327 c15 -39 -10 -323 -28 -323 -43 0
-130 58 -154 102 -15 28 38 154 86 205 49 51 81 56 96 16z m-592 -247 c-21
-76 -36 -116 -45 -116 -18 0 -19 72 -3 136 11 42 63 113 75 101 3 -3 -9 -57
-27 -121z"/>
</g>
</svg>
