<?xml version="1.0" standalone="no"?>
<!DOCTYPE svg PUBLIC "-//W3C//DTD SVG 20010904//EN"
 "http://www.w3.org/TR/2001/REC-SVG-20010904/DTD/svg10.dtd">
<svg version="1.0" xmlns="http://www.w3.org/2000/svg"
 width="360.000000pt" height="360.000000pt" viewBox="0 0 360.000000 360.000000"
 preserveAspectRatio="xMidYMid meet">
<metadata>
Created by potrace 1.15, written by Peter Selinger 2001-2017
</metadata>
<g transform="translate(0.000000,360.000000) scale(0.100000,-0.100000)"
fill="#000000" stroke="none">
<path d="M2099 2826 c-75 -27 -173 -119 -244 -228 -14 -23 -25 -28 -56 -28
-31 0 -39 4 -39 18 0 27 -20 42 -57 42 -33 0 -33 0 -33 -47 0 -110 45 -173
123 -173 l42 0 38 74 c77 150 169 247 254 267 70 16 76 13 70 -26 -17 -104
-138 -275 -323 -455 -215 -209 -304 -271 -329 -229 -5 6 -13 3 -22 -11 -13
-19 -12 -22 9 -40 13 -11 38 -19 58 -20 41 0 154 48 259 109 65 38 75 41 88
28 18 -18 7 -60 -39 -149 -36 -67 -56 -78 -98 -48 l-30 21 -31 -21 c-24 -18
-30 -28 -27 -53 3 -28 13 -38 85 -82 47 -28 83 -57 83 -66 0 -34 -184 -169
-232 -169 l-28 0 0 93 c0 90 -1 94 -50 194 -52 106 -87 144 -144 159 l-29 7 8
-39 c11 -49 11 -79 0 -128 l-8 -39 36 22 c20 12 41 20 47 16 5 -3 10 -30 10
-58 1 -128 47 -284 90 -307 46 -25 182 13 227 62 9 10 29 18 44 18 28 0 28 0
14 -33 -24 -59 -54 -189 -75 -337 -19 -127 -20 -154 -9 -217 9 -58 9 -76 -1
-88 -11 -13 -5 -24 41 -74 30 -32 63 -59 75 -60 11 0 69 26 130 59 60 33 117
60 126 60 23 0 27 -8 69 -135 56 -171 93 -235 135 -235 34 0 53 36 76 147 19
91 20 120 14 413 -9 446 -10 450 -58 505 l-40 45 -76 0 c-88 0 -122 -13 -222
-83 -35 -25 -66 -45 -68 -43 -1 2 5 32 15 66 l17 62 100 65 c202 131 424 300
599 456 79 71 88 82 85 111 -4 39 -62 81 -180 126 -80 31 -87 32 -183 26 -123
-8 -214 -27 -297 -61 -90 -38 -98 -40 -98 -22 0 8 63 97 140 197 139 182 140
184 140 236 0 49 -3 55 -37 83 -32 27 -46 31 -93 31 -30 -1 -71 -7 -91 -14z
m326 -549 c45 12 57 11 128 -9 44 -12 81 -27 84 -34 12 -31 -100 -164 -240
-285 -58 -51 -73 -59 -107 -59 -45 0 -45 -2 -30 98 7 54 6 70 -11 110 -11 26
-21 48 -22 49 -2 1 -40 -9 -87 -23 -46 -13 -88 -24 -92 -24 -4 0 -8 15 -8 34
0 40 26 63 110 96 106 42 183 59 205 46 16 -10 30 -10 70 1z m-245 -216 c0 -6
-14 -46 -31 -90 -35 -88 -80 -151 -110 -151 -17 0 -19 8 -19 76 0 41 5 84 10
95 6 10 36 32 68 49 60 31 82 36 82 21z m95 -581 c10 -11 26 -44 36 -72 18
-53 18 -53 -4 -71 -21 -16 -21 -18 -4 -31 13 -10 14 -15 5 -18 -9 -3 -6 -32
15 -124 26 -114 26 -123 14 -215 l-12 -97 -62 38 c-89 54 -174 65 -223 30 -30
-21 -103 -50 -126 -50 -9 0 -14 12 -14 37 0 35 10 48 140 178 141 141 141 141
120 160 -22 20 -22 20 -232 -22 -26 -5 -28 -3 -28 25 0 39 76 109 209 193 101
63 137 72 166 39z"/>
<path d="M1208 2403 c-4 -77 -9 -98 -45 -173 -44 -93 -165 -281 -277 -430 -94
-123 -90 -115 -69 -150 21 -36 35 -37 99 -5 48 24 84 66 84 99 0 8 42 82 94
163 127 201 253 418 267 460 9 28 8 38 -5 58 -19 29 -58 51 -108 60 l-35 7 -5
-89z"/>
<path d="M1060 1745 c-11 -13 -5 -32 31 -112 l43 -96 -44 -348 -44 -348 18
-63 c23 -84 40 -108 75 -108 16 0 33 6 38 13 5 6 15 68 22 137 19 188 66 458
115 652 24 95 47 181 51 191 6 13 2 17 -18 17 -24 0 -29 -8 -57 -97 -35 -110
-42 -122 -64 -104 -12 10 -13 17 -4 31 21 34 -15 121 -79 190 -30 33 -59 60
-63 60 -4 0 -13 -7 -20 -15z"/>
</g>
</svg>
