<?xml version="1.0" standalone="no"?>
<!DOCTYPE svg PUBLIC "-//W3C//DTD SVG 20010904//EN"
 "http://www.w3.org/TR/2001/REC-SVG-20010904/DTD/svg10.dtd">
<svg version="1.0" xmlns="http://www.w3.org/2000/svg"
 width="360.000000pt" height="360.000000pt" viewBox="0 0 360.000000 360.000000"
 preserveAspectRatio="xMidYMid meet">
<metadata>
Created by potrace 1.15, written by Peter Selinger 2001-2017
</metadata>
<g transform="translate(0.000000,360.000000) scale(0.100000,-0.100000)"
fill="#000000" stroke="none">
<path d="M1610 2761 c-37 -12 -54 -22 -51 -32 21 -84 0 -153 -85 -280 -31 -45
-105 -176 -165 -291 -270 -514 -479 -828 -628 -946 -44 -35 -69 -48 -124 -66
-12 -4 -17 -14 -15 -28 3 -21 8 -23 55 -21 81 3 126 33 263 172 121 122 128
131 229 311 295 524 532 923 627 1056 l55 77 -32 33 c-37 38 -50 40 -129 15z"/>
<path d="M1606 2382 c-8 -13 45 -52 71 -52 33 -1 127 -45 203 -97 106 -72 249
-193 410 -350 l140 -135 287 -128 288 -128 14 31 c15 30 15 30 -32 73 -57 52
-222 137 -377 195 l-115 42 -135 123 c-318 290 -524 420 -681 432 -41 3 -69 0
-73 -6z"/>
<path d="M1735 1826 c-176 -58 -256 -90 -297 -118 -21 -15 -46 -18 -132 -18
-58 0 -106 -4 -106 -9 0 -5 16 -19 36 -31 35 -22 39 -22 167 -11 73 6 140 11
150 11 15 0 17 -13 17 -127 l0 -128 -175 -135 c-152 -118 -175 -139 -175 -163
0 -37 44 -82 96 -96 56 -16 218 -14 257 3 18 7 45 27 59 44 31 37 56 128 39
145 -21 21 -12 64 20 96 32 33 157 78 184 67 101 -38 -137 -335 -589 -734
l-60 -52 34 -35 c19 -20 44 -38 56 -41 12 -3 61 9 110 26 132 46 338 98 429
108 65 7 106 5 220 -14 77 -13 150 -21 163 -17 53 13 26 105 -42 137 -57 27
-267 22 -464 -10 -125 -21 -166 -24 -175 -15 -9 9 13 36 94 119 247 251 371
415 393 518 6 27 3 33 -38 62 -39 28 -52 32 -108 32 -34 0 -92 -5 -127 -11
-94 -15 -98 -9 -72 125 11 58 23 111 26 116 3 5 41 28 83 50 42 22 90 50 106
63 l30 24 -23 36 c-12 21 -23 37 -24 37 -1 0 -74 -24 -162 -54z m-185 -638 c0
-63 -67 -138 -123 -138 -25 0 -57 23 -57 40 0 15 63 82 95 102 43 26 85 24 85
-4z"/>
</g>
</svg>
