<?xml version="1.0" standalone="no"?>
<!DOCTYPE svg PUBLIC "-//W3C//DTD SVG 20010904//EN"
 "http://www.w3.org/TR/2001/REC-SVG-20010904/DTD/svg10.dtd">
<svg version="1.0" xmlns="http://www.w3.org/2000/svg"
 width="360.000000pt" height="360.000000pt" viewBox="0 0 360.000000 360.000000"
 preserveAspectRatio="xMidYMid meet">
<metadata>
Created by potrace 1.15, written by Peter Selinger 2001-2017
</metadata>
<g transform="translate(0.000000,360.000000) scale(0.100000,-0.100000)"
fill="#000000" stroke="none">
<path d="M2103 2530 c-28 -11 -28 -8 -3 -69 l19 -49 -48 -69 c-75 -106 -221
-270 -427 -482 l-189 -193 -89 -10 c-119 -13 -191 -36 -191 -63 0 -26 47 -42
169 -57 84 -10 97 -10 161 10 39 12 100 39 137 62 78 47 135 55 123 18 -14
-44 -17 -86 -6 -92 5 -4 79 40 163 97 84 58 171 110 193 117 22 7 68 25 103
41 58 26 63 31 60 56 -5 43 -77 88 -137 87 -57 -2 -222 -56 -345 -113 -49 -23
-94 -41 -100 -41 -6 0 65 77 158 172 302 308 406 451 381 528 -6 20 -72 61
-97 59 -7 0 -23 -4 -35 -9z"/>
<path d="M1333 2294 c-3 -9 3 -37 13 -62 27 -65 90 -97 189 -97 79 1 115 15
170 71 27 27 35 43 35 70 0 25 -4 35 -12 32 -7 -3 -63 -17 -125 -33 l-111 -28
-40 31 c-45 36 -108 44 -119 16z"/>
<path d="M1975 1448 c-200 -94 -449 -197 -507 -210 -35 -8 -54 -8 -72 0 -22
10 -28 8 -46 -15 -19 -24 -19 -27 -4 -44 28 -31 81 -42 183 -37 94 5 182 27
189 48 2 5 16 10 30 10 59 1 171 32 250 70 83 40 211 120 233 146 15 19 -55
104 -85 103 -11 0 -88 -32 -171 -71z"/>
<path d="M2180 1025 c-305 -37 -670 -125 -1063 -257 -152 -50 -152 -50 -234
-41 -79 8 -83 8 -94 -14 -10 -18 -9 -27 5 -48 20 -31 93 -85 114 -85 8 0 258
73 555 162 300 90 542 158 544 152 2 -6 73 -2 196 13 l192 23 183 -70 c101
-39 192 -70 202 -70 22 0 60 45 60 71 0 11 -40 49 -102 98 l-103 81 -175 -1
c-96 -1 -222 -7 -280 -14z"/>
</g>
</svg>
