<?xml version="1.0" standalone="no"?>
<!DOCTYPE svg PUBLIC "-//W3C//DTD SVG 20010904//EN"
 "http://www.w3.org/TR/2001/REC-SVG-20010904/DTD/svg10.dtd">
<svg version="1.0" xmlns="http://www.w3.org/2000/svg"
 width="360.000000pt" height="360.000000pt" viewBox="0 0 360.000000 360.000000"
 preserveAspectRatio="xMidYMid meet">
<metadata>
Created by potrace 1.15, written by Peter Selinger 2001-2017
</metadata>
<g transform="translate(0.000000,360.000000) scale(0.100000,-0.100000)"
fill="#000000" stroke="none">
<path d="M2018 2695 c-26 -22 -28 -29 -28 -103 0 -74 3 -86 55 -200 30 -66 52
-127 50 -134 -3 -8 -9 -49 -13 -92 l-7 -78 -240 -87 -240 -88 -9 26 c-4 14
-10 114 -13 221 l-5 195 -41 43 c-37 38 -46 42 -88 42 -27 0 -51 -5 -54 -10
-4 -6 9 -34 28 -63 63 -96 82 -181 58 -263 -6 -22 -2 -69 13 -158 l22 -128
-31 -24 c-31 -24 -34 -24 -108 -12 -100 15 -130 4 -117 -43 18 -63 63 -92 161
-104 52 -6 58 -10 97 -59 23 -29 56 -65 72 -81 17 -16 30 -35 30 -42 0 -13
-73 -54 -120 -68 -14 -4 -208 -81 -433 -172 -358 -145 -411 -164 -435 -155
-24 8 -31 7 -40 -9 -7 -10 -12 -30 -12 -44 0 -28 40 -53 131 -79 l56 -16 134
76 c163 93 394 206 550 268 114 45 153 54 163 38 3 -5 62 20 132 54 155 77
352 143 550 184 233 48 266 48 489 1 l190 -40 22 21 c31 29 31 81 -1 113 -37
37 -88 45 -286 45 -168 0 -211 -4 -465 -44 -154 -24 -283 -41 -287 -39 -8 4
225 397 252 426 16 17 25 18 159 6 135 -12 142 -12 156 7 8 10 15 29 15 42 0
19 -24 34 -165 104 -126 63 -164 86 -159 98 3 8 8 81 11 161 7 167 0 199 -54
253 -30 30 -43 36 -77 36 -29 -1 -49 -8 -68 -25z m-28 -772 c0 -42 -69 -177
-165 -323 -67 -102 -87 -124 -122 -134 -19 -6 -23 -4 -23 16 0 13 -15 73 -34
135 l-34 111 37 35 c107 102 261 197 318 197 20 0 23 -5 23 -37z"/>
<path d="M2210 1067 c0 -31 52 -94 82 -99 17 -2 28 -26 64 -135 63 -195 132
-313 183 -313 11 0 34 12 51 28 l30 27 -19 81 c-65 267 -179 412 -342 431 -48
6 -49 5 -49 -20z"/>
<path d="M1480 1047 c0 -42 -74 -139 -189 -249 -62 -60 -117 -108 -122 -108
-5 0 -9 -7 -9 -15 0 -27 44 -16 125 31 161 94 251 184 276 277 9 35 8 42 -12
63 -30 32 -69 32 -69 1z"/>
</g>
</svg>
