<?xml version="1.0" standalone="no"?>
<!DOCTYPE svg PUBLIC "-//W3C//DTD SVG 20010904//EN"
 "http://www.w3.org/TR/2001/REC-SVG-20010904/DTD/svg10.dtd">
<svg version="1.0" xmlns="http://www.w3.org/2000/svg"
 width="360.000000pt" height="360.000000pt" viewBox="0 0 360.000000 360.000000"
 preserveAspectRatio="xMidYMid meet">
<metadata>
Created by potrace 1.15, written by Peter Selinger 2001-2017
</metadata>
<g transform="translate(0.000000,360.000000) scale(0.100000,-0.100000)"
fill="#000000" stroke="none">
<path d="M2009 2683 c-44 -97 -107 -289 -115 -350 -6 -49 -5 -53 14 -53 24 0
23 -4 58 168 27 131 28 132 55 132 15 0 31 -5 35 -11 3 -6 1 -96 -6 -200 l-13
-188 -43 -30 c-37 -27 -45 -30 -73 -20 -31 11 -42 41 -21 54 18 11 11 45 -8
45 -13 0 -22 -13 -31 -50 -15 -58 -60 -103 -118 -119 -21 -6 -41 -11 -44 -11
-3 0 -9 60 -13 133 -8 151 -28 261 -52 288 -11 12 -31 19 -56 19 -48 0 -49
-15 -9 -91 42 -78 54 -147 55 -298 l1 -134 -109 -33 -109 -33 -94 36 c-88 32
-96 34 -111 19 -22 -22 -6 -47 36 -58 38 -10 65 -46 86 -117 18 -61 20 -98 7
-103 -5 -1 11 -104 34 -228 24 -124 42 -226 41 -227 -1 -1 -74 -34 -161 -73
-273 -122 -528 -210 -605 -210 -15 0 -35 9 -45 20 l-18 20 -24 -22 c-32 -30
-29 -47 20 -111 l42 -56 57 -1 c50 0 78 10 245 86 294 135 549 243 654 278 53
18 110 43 127 55 115 82 381 154 827 226 l210 34 147 -21 c144 -21 148 -21
168 -3 52 47 0 90 -132 113 -90 15 -107 15 -344 -6 -137 -12 -254 -22 -261
-22 -7 0 8 41 36 98 27 53 60 124 74 157 78 187 117 290 117 314 0 18 -14 40
-43 69 l-43 42 -163 0 -163 0 7 28 c13 49 18 428 6 451 -10 18 -78 61 -96 61
-3 0 -20 -30 -36 -67z m370 -577 c16 -10 14 -122 -4 -189 -43 -166 -193 -374
-322 -449 -48 -28 -143 -40 -143 -19 0 23 55 162 88 221 19 36 62 91 94 123
66 65 71 93 16 104 -29 6 -30 7 -23 52 9 69 44 132 85 154 29 15 50 18 117 14
44 -3 86 -8 92 -11z m-379 -125 c0 -101 -28 -146 -115 -187 -74 -35 -85 -33
-85 19 0 130 72 222 178 226 20 1 22 -3 22 -58z m-244 -83 c-4 -18 -9 -50 -13
-70 -5 -32 -10 -38 -29 -38 -22 0 -24 4 -24 47 0 34 6 53 22 70 32 35 52 30
44 -9z m-126 -128 c0 -71 -3 -90 -14 -90 -8 0 -28 -12 -45 -26 -23 -19 -31
-34 -31 -59 0 -31 3 -34 32 -37 30 -3 32 -6 45 -68 7 -36 21 -76 32 -90 14
-20 16 -31 9 -44 -13 -23 -68 -46 -111 -46 l-33 0 -42 118 c-42 116 -42 118
-42 253 l0 137 78 17 c42 9 82 18 87 20 32 11 35 4 35 -85z m276 -107 c-15
-62 -68 -156 -117 -208 -71 -76 -84 -74 -76 13 15 153 65 218 171 221 26 1 28
-1 22 -26z"/>
<path d="M2304 1049 c-12 -14 -15 -24 -9 -34 28 -38 267 -398 299 -449 l38
-59 31 31 c25 25 29 34 19 44 -7 7 -12 26 -12 43 0 123 -99 277 -245 380 -92
65 -99 68 -121 44z"/>
<path d="M1496 977 c-47 -110 -123 -217 -228 -320 -69 -68 -98 -102 -94 -113
8 -20 20 -16 120 44 159 95 284 240 302 351 6 37 4 45 -22 72 -15 16 -33 29
-39 29 -7 0 -24 -28 -39 -63z"/>
</g>
</svg>
