<?xml version="1.0" standalone="no"?>
<!DOCTYPE svg PUBLIC "-//W3C//DTD SVG 20010904//EN"
 "http://www.w3.org/TR/2001/REC-SVG-20010904/DTD/svg10.dtd">
<svg version="1.0" xmlns="http://www.w3.org/2000/svg"
 width="360.000000pt" height="360.000000pt" viewBox="0 0 360.000000 360.000000"
 preserveAspectRatio="xMidYMid meet">
<metadata>
Created by potrace 1.15, written by Peter Selinger 2001-2017
</metadata>
<g transform="translate(0.000000,360.000000) scale(0.100000,-0.100000)"
fill="#000000" stroke="none">
<path d="M1776 3119 c-77 -18 -179 -82 -266 -166 -47 -46 -89 -83 -95 -83 -5
0 -27 5 -47 11 -43 11 -48 31 -24 109 13 43 12 45 -12 58 -24 12 -28 10 -61
-22 l-35 -35 11 -75 c6 -47 19 -86 33 -105 29 -42 92 -73 127 -65 15 4 80 57
144 119 152 145 272 209 323 172 17 -12 13 -20 -53 -103 -134 -167 -313 -336
-448 -422 -30 -19 -98 -47 -155 -63 -146 -43 -172 -57 -176 -96 -3 -29 0 -33
36 -44 52 -15 163 13 297 75 168 79 158 58 -69 -132 l-206 -173 0 -43 c0 -24
6 -48 13 -54 31 -26 171 28 290 111 31 22 60 38 62 35 3 -3 -106 -110 -242
-238 -136 -128 -261 -246 -278 -262 l-29 -28 34 -30 c51 -43 77 -39 186 30
130 83 129 83 120 29 -7 -48 -45 -110 -141 -234 -126 -162 -285 -301 -428
-375 -73 -38 -87 -66 -31 -64 42 2 185 70 279 134 139 93 302 267 395 418 32
52 47 61 67 41 8 -8 4 -28 -14 -72 -36 -89 -61 -194 -69 -290 -6 -81 -6 -86
20 -120 26 -33 27 -34 69 -24 l43 10 39 116 c51 156 138 372 181 448 42 75 94
133 121 133 24 0 55 -62 48 -93 -4 -13 -2 -43 4 -67 8 -36 7 -50 -5 -69 -13
-20 -14 -25 -2 -37 11 -11 11 -46 2 -201 -7 -136 -7 -203 1 -243 8 -41 8 -73
-1 -124 -9 -53 -9 -90 0 -162 10 -73 10 -116 0 -201 -7 -59 -13 -138 -14 -175
0 -65 1 -68 23 -68 21 0 26 9 45 79 27 96 58 280 72 421 17 169 25 610 11 610
-14 0 -15 66 -1 75 15 9 12 107 -5 183 -16 71 -70 178 -98 196 -23 15 -104 -8
-147 -43 -55 -43 -107 -119 -142 -203 -18 -43 -37 -78 -42 -78 -6 0 -32 15
-59 33 l-49 32 5 61 c5 73 43 150 96 196 46 40 144 86 203 94 l46 6 153 -132
c168 -145 297 -245 330 -255 12 -4 34 -22 50 -39 60 -69 206 -125 458 -176 80
-17 151 -30 156 -30 6 0 16 12 22 27 18 38 -5 69 -59 83 -278 70 -533 197
-760 378 -78 62 -258 237 -258 250 0 4 26 16 58 28 42 15 64 19 82 12 14 -5
39 -7 55 -4 38 8 105 62 105 85 0 25 -32 51 -62 51 -14 0 -126 -38 -248 -85
-123 -47 -228 -84 -233 -82 -5 1 69 72 164 156 96 84 178 159 184 167 16 23
-22 84 -53 84 -13 0 -75 -27 -137 -60 -62 -33 -115 -60 -119 -60 -3 0 -6 10
-6 23 1 17 42 52 195 161 107 77 195 145 195 151 0 6 -15 25 -33 43 l-32 31
-64 -19 c-34 -11 -76 -20 -92 -20 -29 0 -26 4 86 142 63 78 115 145 115 149 0
16 -46 61 -81 79 -41 21 -106 25 -173 9z"/>
</g>
</svg>
