<?xml version="1.0" standalone="no"?>
<!DOCTYPE svg PUBLIC "-//W3C//DTD SVG 20010904//EN"
 "http://www.w3.org/TR/2001/REC-SVG-20010904/DTD/svg10.dtd">
<svg version="1.0" xmlns="http://www.w3.org/2000/svg"
 width="360.000000pt" height="360.000000pt" viewBox="0 0 360.000000 360.000000"
 preserveAspectRatio="xMidYMid meet">
<metadata>
Created by potrace 1.15, written by Peter Selinger 2001-2017
</metadata>
<g transform="translate(0.000000,360.000000) scale(0.100000,-0.100000)"
fill="#000000" stroke="none">
<path d="M2191 2515 c-29 -14 -73 -39 -98 -55 -24 -17 -47 -30 -51 -30 -4 0
-24 11 -44 25 -78 53 -94 28 -58 -92 l27 -91 -18 -254 c-10 -139 -18 -270 -19
-290 0 -44 -28 -65 -140 -101 -121 -39 -130 -40 -130 -18 0 10 -7 24 -15 31
-12 10 -15 39 -15 142 0 102 8 174 35 339 24 142 32 215 26 227 -26 48 -112
102 -162 102 -12 0 -61 -21 -108 -46 -84 -46 -87 -47 -130 -35 -66 17 -74 1
-26 -49 21 -22 45 -40 52 -40 7 0 59 18 115 40 87 33 105 38 116 26 12 -12 11
-60 -8 -310 -19 -244 -20 -307 -11 -354 l12 -57 -58 -53 c-50 -44 -63 -52 -93
-50 l-35 3 -3 309 c-2 227 -6 313 -15 324 -18 22 -108 62 -141 62 -22 0 -27
-3 -22 -17 4 -9 23 -73 43 -141 l35 -125 -5 -166 c-3 -91 -10 -187 -17 -213
-10 -41 -16 -49 -56 -67 -58 -28 -210 -70 -417 -115 -149 -34 -173 -36 -218
-27 -78 17 -82 16 -75 -21 7 -36 38 -73 76 -93 22 -11 64 -4 338 58 172 38
315 67 318 64 4 -3 -6 -30 -20 -59 -30 -61 -52 -167 -65 -313 l-9 -100 30 -37
c34 -44 51 -47 72 -15 36 55 64 165 95 384 13 88 25 140 38 157 26 36 106 77
155 79 l43 2 6 -65 c4 -36 10 -140 14 -233 l7 -167 -24 0 c-21 0 -30 14 -77
131 -47 113 -57 130 -75 127 -14 -2 -22 -11 -24 -28 -4 -34 71 -250 114 -327
48 -87 72 -103 150 -103 34 0 65 4 69 9 3 5 -4 71 -16 147 -17 112 -19 141 -8
160 9 18 9 27 0 38 -6 8 -8 16 -3 18 6 2 2 60 -9 138 -28 207 -41 182 111 220
72 18 133 30 136 27 3 -3 -13 -131 -35 -284 -23 -153 -41 -298 -41 -321 0 -73
54 -105 103 -59 23 20 26 33 36 173 13 176 55 439 77 471 23 37 72 55 159 60
61 4 83 2 91 -8 6 -8 21 -138 33 -289 12 -151 24 -301 28 -332 5 -52 4 -58
-13 -58 -14 0 -39 31 -84 105 -36 58 -69 105 -73 105 -5 0 -17 -5 -27 -10 -18
-10 -17 -15 21 -128 52 -153 128 -308 173 -355 32 -32 43 -37 81 -37 24 0 46
3 48 8 3 4 -10 230 -28 502 -18 272 -30 498 -26 501 10 10 173 39 218 39 34 0
58 -10 119 -50 125 -81 256 -111 323 -72 50 28 36 77 -42 149 -82 76 -80 75
-346 70 -130 -2 -245 -7 -256 -11 -39 -14 -47 33 -43 251 4 217 13 258 77 364
17 27 31 54 31 59 0 16 -69 80 -126 116 -66 42 -116 44 -193 9z m115 -73 l22
-17 -24 -190 c-15 -127 -23 -246 -23 -358 l-1 -168 -37 -16 c-23 -9 -71 -16
-123 -17 l-85 -1 1 155 c3 346 70 564 189 616 40 18 56 17 81 -4z"/>
</g>
</svg>
