<?xml version="1.0" standalone="no"?>
<!DOCTYPE svg PUBLIC "-//W3C//DTD SVG 20010904//EN"
 "http://www.w3.org/TR/2001/REC-SVG-20010904/DTD/svg10.dtd">
<svg version="1.0" xmlns="http://www.w3.org/2000/svg"
 width="360.000000pt" height="360.000000pt" viewBox="0 0 360.000000 360.000000"
 preserveAspectRatio="xMidYMid meet">
<metadata>
Created by potrace 1.15, written by Peter Selinger 2001-2017
</metadata>
<g transform="translate(0.000000,360.000000) scale(0.100000,-0.100000)"
fill="#000000" stroke="none">
<path d="M1050 2360 c0 -18 5 -30 13 -30 8 0 22 -9 32 -20 14 -16 17 -31 12
-80 -8 -96 -77 -225 -197 -369 -28 -33 -50 -67 -50 -75 0 -34 34 -97 62 -118
l30 -21 42 20 c38 19 44 26 59 81 32 117 149 225 357 331 220 113 489 211 576
211 l54 0 0 -39 c0 -36 -6 -45 -73 -108 -68 -63 -219 -159 -304 -192 -22 -9
-33 -20 -33 -34 0 -17 5 -19 35 -14 46 8 221 82 327 140 111 60 248 162 248
183 0 9 -21 38 -48 64 -132 133 -367 97 -802 -122 -85 -43 -161 -78 -169 -78
-10 0 -12 10 -8 43 20 148 20 171 -4 201 -27 34 -75 56 -124 56 -32 0 -35 -2
-35 -30z"/>
<path d="M1491 1680 l-174 -98 -36 24 c-76 51 -98 26 -69 -79 l21 -76 -38
-108 c-23 -64 -49 -120 -65 -138 -51 -56 -109 -146 -138 -218 -47 -115 -47
-120 -7 -156 20 -17 42 -31 49 -31 37 0 173 288 246 520 23 74 48 149 55 166
17 40 95 79 183 92 54 8 62 7 62 -7 0 -9 -16 -108 -35 -221 -19 -113 -35 -232
-35 -265 0 -109 37 -210 101 -280 56 -61 109 -91 204 -115 111 -28 495 -29
630 -1 96 20 236 71 271 99 l22 17 -27 173 c-23 142 -25 174 -14 183 13 12 19
110 7 122 -4 4 -8 21 -9 39 -8 117 -18 168 -35 168 -15 0 -19 -33 -39 -282
-18 -231 -25 -288 -40 -308 -24 -32 -91 -65 -165 -80 -81 -16 -311 -28 -361
-18 -22 4 -81 12 -132 17 -140 14 -211 52 -256 136 -20 37 -22 54 -20 200 2
235 38 371 128 481 64 77 35 145 -61 143 -43 0 -70 -12 -223 -99z"/>
</g>
</svg>
