<?xml version="1.0" standalone="no"?>
<!DOCTYPE svg PUBLIC "-//W3C//DTD SVG 20010904//EN"
 "http://www.w3.org/TR/2001/REC-SVG-20010904/DTD/svg10.dtd">
<svg version="1.0" xmlns="http://www.w3.org/2000/svg"
 width="360.000000pt" height="360.000000pt" viewBox="0 0 360.000000 360.000000"
 preserveAspectRatio="xMidYMid meet">
<metadata>
Created by potrace 1.15, written by Peter Selinger 2001-2017
</metadata>
<g transform="translate(0.000000,360.000000) scale(0.100000,-0.100000)"
fill="#000000" stroke="none">
<path d="M2190 2635 c-185 -22 -185 -22 -345 -87 -192 -79 -371 -138 -442
-145 -47 -5 -56 -3 -94 26 -27 19 -55 31 -75 31 l-32 0 21 -76 c18 -68 19 -82
8 -137 -15 -76 -56 -164 -80 -172 -15 -4 -16 -13 -10 -75 9 -85 32 -136 70
-156 26 -13 31 -13 62 8 l34 22 10 223 c5 122 12 226 16 229 3 3 49 -3 102
-15 l96 -21 62 31 c185 94 434 172 582 183 64 5 99 2 174 -16 52 -13 96 -28
98 -34 2 -6 -46 -55 -107 -109 -82 -73 -110 -104 -110 -122 0 -22 3 -23 38
-18 35 6 75 24 167 73 22 12 76 36 120 54 l80 33 3 42 c3 41 3 41 -114 147
-64 58 -124 105 -133 105 -9 -1 -99 -11 -201 -24z"/>
<path d="M1675 2221 c-16 -19 -16 -21 5 -51 21 -29 22 -40 17 -109 -6 -78 -58
-347 -101 -525 l-24 -99 31 -43 c34 -47 66 -56 102 -30 40 28 382 194 472 230
70 27 107 36 150 36 56 -1 59 -2 89 -44 l32 -42 -14 -140 c-18 -185 -30 -267
-61 -404 -38 -174 -85 -274 -139 -299 -29 -13 -32 -11 -137 56 -67 43 -127 57
-127 30 0 -36 110 -145 227 -225 34 -24 79 -28 117 -11 47 22 172 323 212 513
21 100 30 252 16 269 -9 10 -6 44 10 134 l21 121 -45 51 c-75 83 -126 121
-162 121 -31 0 -216 -48 -267 -69 -163 -67 -392 -152 -397 -147 -3 4 -1 16 6
26 15 24 16 67 2 75 -8 5 -8 11 -1 19 6 7 21 52 34 100 l23 88 165 67 c213 87
229 96 229 125 0 36 -40 66 -88 66 -32 0 -54 -8 -92 -36 -45 -33 -135 -74
-160 -74 -6 0 -10 33 -10 78 0 71 -3 82 -31 120 -35 48 -73 56 -104 23z"/>
<path d="M1930 1268 c-57 -7 -166 -43 -453 -150 -376 -140 -378 -140 -440
-134 -55 6 -65 5 -81 -13 -10 -11 -15 -24 -12 -30 13 -20 131 -91 152 -91 12
0 98 30 191 66 250 98 506 189 610 215 80 20 98 22 145 12 48 -10 55 -9 76 10
34 32 28 59 -22 95 -47 34 -51 34 -166 20z"/>
</g>
</svg>
