<?xml version="1.0" standalone="no"?>
<!DOCTYPE svg PUBLIC "-//W3C//DTD SVG 20010904//EN"
 "http://www.w3.org/TR/2001/REC-SVG-20010904/DTD/svg10.dtd">
<svg version="1.0" xmlns="http://www.w3.org/2000/svg"
 width="360.000000pt" height="360.000000pt" viewBox="0 0 360.000000 360.000000"
 preserveAspectRatio="xMidYMid meet">
<metadata>
Created by potrace 1.15, written by Peter Selinger 2001-2017
</metadata>
<g transform="translate(0.000000,360.000000) scale(0.100000,-0.100000)"
fill="#000000" stroke="none">
<path d="M1632 2767 c-32 -34 -29 -66 8 -80 30 -11 30 -12 30 -89 0 -42 -4
-79 -8 -82 -5 -3 -14 -30 -21 -60 -17 -74 -72 -157 -164 -242 -114 -107 -317
-241 -317 -210 0 2 11 26 24 53 30 59 45 122 46 184 0 41 -4 49 -39 77 -44 35
-72 40 -92 16 -10 -12 -10 -20 -1 -35 34 -53 -5 -201 -109 -416 -57 -119 -59
-126 -43 -144 12 -13 31 -19 60 -19 40 0 49 7 188 130 128 115 146 128 146
106 0 -16 -97 -181 -250 -428 -227 -365 -255 -406 -310 -450 -69 -56 -124
-124 -140 -175 -11 -31 -10 -37 11 -59 15 -16 34 -24 55 -24 31 0 38 10 289
395 142 217 261 395 265 395 22 0 105 -31 121 -46 17 -15 19 -32 19 -140 l0
-123 -50 -43 -49 -42 21 -23 21 -22 -22 -159 c-31 -232 -24 -387 20 -474 24
-47 53 -55 116 -34 144 48 312 258 494 620 l91 178 156 -4 c147 -4 163 -7 247
-37 88 -33 301 -137 421 -206 l62 -36 20 33 21 32 -37 42 c-72 81 -285 183
-487 234 -145 37 -285 50 -532 50 l-203 0 0 23 c0 16 26 43 92 97 220 180 418
395 418 455 0 24 -28 55 -51 55 -33 0 -78 -40 -88 -77 -35 -125 -214 -318
-488 -526 -77 -59 -93 -60 -93 -9 0 59 -29 142 -60 173 -15 16 -49 34 -74 41
-56 15 -58 3 39 203 118 241 236 390 358 450 70 34 117 41 172 25 44 -12 46
-14 39 -44 -17 -79 -100 -182 -231 -287 -69 -55 -74 -57 -107 -47 -29 9 -38 8
-60 -10 l-27 -20 30 -21 c60 -43 144 -16 273 88 91 73 278 278 278 304 0 37
-24 60 -98 94 -74 35 -77 35 -166 29 -50 -4 -99 -9 -108 -12 -25 -8 -23 11 16
133 32 96 34 109 21 133 -14 27 -120 130 -134 130 -4 0 -17 -10 -29 -23z m293
-1430 c46 -11 50 -15 53 -44 2 -23 -8 -51 -36 -100 -77 -132 -162 -239 -356
-446 -100 -108 -123 -128 -145 -125 -25 3 -26 6 -37 108 -8 71 -8 121 -2 153
6 27 8 57 5 68 -3 11 1 33 9 49 8 16 23 71 33 122 22 115 30 131 84 162 53 31
111 46 207 56 105 10 128 10 185 -3z"/>
</g>
</svg>
