<?xml version="1.0" standalone="no"?>
<!DOCTYPE svg PUBLIC "-//W3C//DTD SVG 20010904//EN"
 "http://www.w3.org/TR/2001/REC-SVG-20010904/DTD/svg10.dtd">
<svg version="1.0" xmlns="http://www.w3.org/2000/svg"
 width="360.000000pt" height="360.000000pt" viewBox="0 0 360.000000 360.000000"
 preserveAspectRatio="xMidYMid meet">
<metadata>
Created by potrace 1.15, written by Peter Selinger 2001-2017
</metadata>
<g transform="translate(0.000000,360.000000) scale(0.100000,-0.100000)"
fill="#000000" stroke="none">
<path d="M2215 2573 c-105 -13 -237 -38 -350 -68 -219 -57 -546 -177 -548
-200 0 -5 15 -20 34 -33 44 -30 55 -28 275 54 376 138 679 204 738 161 17 -12
13 -18 -43 -69 -42 -38 -94 -70 -166 -104 -101 -47 -105 -50 -105 -81 0 -18 4
-33 8 -33 16 0 287 111 371 152 87 43 141 82 141 101 -1 19 -51 73 -94 101
-35 24 -47 26 -135 25 -53 -1 -109 -4 -126 -6z"/>
<path d="M1196 2331 c-30 -33 -47 -110 -58 -268 l-12 -153 24 -25 c14 -15 34
-25 52 -25 26 0 32 7 55 56 l25 56 -11 142 c-7 77 -13 161 -14 186 -2 37 -6
46 -23 48 -11 2 -28 -6 -38 -17z"/>
<path d="M1965 2141 c-95 -33 -283 -119 -449 -204 l-119 -61 7 -91 c17 -221
52 -417 86 -473 27 -44 64 -42 156 9 l74 40 0 -26 c0 -64 -159 -164 -460 -288
-225 -93 -445 -167 -495 -167 l-45 0 0 -38 c0 -28 7 -45 25 -62 21 -20 30 -22
75 -16 69 9 195 55 380 137 85 38 158 69 162 69 14 0 9 -22 -19 -77 -30 -63
-43 -185 -23 -222 13 -25 66 -51 103 -51 26 0 56 29 81 77 9 18 16 34 16 36 0
3 -21 8 -47 11 -88 13 -84 4 -57 117 13 55 24 113 24 128 0 25 8 30 123 75
156 61 434 153 607 201 134 37 136 38 275 32 149 -7 268 -25 359 -57 l56 -19
20 26 c11 14 20 39 20 54 0 39 -39 62 -149 88 -172 40 -150 41 -506 -15 -181
-29 -345 -53 -362 -53 -33 -1 -43 11 -22 25 7 4 9 22 6 45 -4 32 -2 39 12 39
9 0 41 12 70 26 109 55 194 207 267 479 13 50 24 99 24 111 0 25 -137 124
-172 124 -13 0 -59 -13 -103 -29z m117 -91 l36 -10 -28 -108 c-35 -133 -72
-240 -102 -295 -23 -41 -25 -42 -81 -45 -38 -2 -57 1 -57 9 0 6 20 44 45 83
46 75 58 129 33 154 -39 39 -202 -31 -320 -138 l-43 -40 24 -20 c15 -13 38
-20 67 -20 33 0 44 -4 44 -16 0 -15 -79 -124 -91 -124 -16 0 -51 53 -70 105
-28 82 -60 228 -51 237 12 12 526 237 542 237 8 1 31 -4 52 -9z"/>
<path d="M2250 1019 c0 -22 15 -50 58 -102 32 -40 61 -77 65 -83 4 -7 -10 -23
-33 -39 -22 -15 -40 -32 -40 -37 0 -10 148 -208 155 -208 2 0 20 14 40 31 l35
31 0 102 c-1 153 -35 211 -178 295 -84 50 -102 52 -102 10z"/>
</g>
</svg>
