<?xml version="1.0" standalone="no"?>
<!DOCTYPE svg PUBLIC "-//W3C//DTD SVG 20010904//EN"
 "http://www.w3.org/TR/2001/REC-SVG-20010904/DTD/svg10.dtd">
<svg version="1.0" xmlns="http://www.w3.org/2000/svg"
 width="360.000000pt" height="360.000000pt" viewBox="0 0 360.000000 360.000000"
 preserveAspectRatio="xMidYMid meet">
<metadata>
Created by potrace 1.15, written by Peter Selinger 2001-2017
</metadata>
<g transform="translate(0.000000,360.000000) scale(0.100000,-0.100000)"
fill="#000000" stroke="none">
<path d="M1786 3109 l-59 -31 67 -37 c36 -21 71 -42 77 -48 17 -17 -58 -164
-174 -336 l-39 -59 28 -29 c15 -16 32 -29 37 -29 5 0 112 59 237 130 208 119
260 144 260 123 0 -5 -151 -183 -335 -397 -320 -371 -335 -390 -319 -407 12
-14 31 -19 65 -19 55 0 167 53 327 154 l93 59 24 -23 c16 -15 25 -34 25 -55 0
-29 -17 -43 -250 -215 -137 -101 -250 -187 -250 -192 0 -13 43 -48 92 -76 27
-15 48 -30 48 -33 0 -4 -58 -80 -130 -169 -134 -167 -150 -201 -114 -230 32
-28 183 40 452 204 77 47 152 86 165 86 48 0 50 -14 44 -238 -11 -404 -82
-652 -236 -815 -35 -37 -61 -70 -58 -73 3 -3 28 -3 56 1 169 23 298 240 347
582 9 66 19 225 23 358 l6 240 45 22 c25 12 96 39 158 60 61 21 112 41 112 46
0 4 -13 34 -29 66 l-30 58 120 207 c65 113 119 215 119 227 0 27 -23 69 -52
96 -34 32 -144 80 -215 94 -78 16 -175 2 -313 -44 -87 -30 -100 -32 -149 -22
-30 5 -56 15 -57 20 -2 6 95 118 216 250 198 217 219 243 220 276 0 25 -7 42
-25 59 -21 20 -31 22 -78 17 -59 -6 -170 -57 -287 -132 -57 -37 -110 -57 -110
-42 0 2 20 52 44 112 l44 110 -21 39 c-48 87 -124 106 -221 55z m790 -825 c28
-13 59 -33 70 -45 18 -20 18 -22 -4 -87 -36 -104 -100 -226 -144 -277 -56 -64
-102 -85 -183 -85 l-65 0 0 55 c0 63 15 106 53 151 15 18 27 37 27 42 0 6 -19
21 -42 34 -44 24 -93 85 -103 129 -5 22 -1 29 27 46 127 74 259 88 364 37z
m-606 -4 c0 -24 -6 -33 -26 -40 -52 -20 -60 -2 -17 42 34 36 43 35 43 -2z m65
-409 c-24 -47 -125 -150 -166 -172 -38 -19 -99 -26 -99 -11 0 24 237 211 268
212 10 0 9 -7 -3 -29z m85 -245 l0 -34 -165 -66 c-91 -36 -171 -66 -177 -66
-19 0 81 97 136 133 56 35 138 66 179 67 24 0 27 -3 27 -34z"/>
<path d="M870 2465 c-43 -22 -44 -22 -20 -35 13 -7 68 -41 122 -76 l98 -63
-20 -47 c-26 -59 -25 -64 7 -64 19 0 41 14 70 42 41 40 43 45 43 99 0 50 -3
60 -26 78 -27 21 -92 48 -179 74 -48 14 -53 14 -95 -8z"/>
<path d="M1214 2158 c-140 -268 -272 -505 -304 -545 -21 -26 -25 -21 -35 49
-5 33 -1 65 15 118 l22 73 -25 24 -24 25 -20 -21 c-40 -43 -63 -172 -63 -358
0 -106 3 -128 22 -168 30 -62 60 -60 106 10 49 73 186 358 292 605 162 379
188 450 161 450 -5 0 -71 -118 -147 -262z"/>
</g>
</svg>
