<?xml version="1.0" standalone="no"?>
<!DOCTYPE svg PUBLIC "-//W3C//DTD SVG 20010904//EN"
 "http://www.w3.org/TR/2001/REC-SVG-20010904/DTD/svg10.dtd">
<svg version="1.0" xmlns="http://www.w3.org/2000/svg"
 width="360.000000pt" height="360.000000pt" viewBox="0 0 360.000000 360.000000"
 preserveAspectRatio="xMidYMid meet">
<metadata>
Created by potrace 1.15, written by Peter Selinger 2001-2017
</metadata>
<g transform="translate(0.000000,360.000000) scale(0.100000,-0.100000)"
fill="#000000" stroke="none">
<path d="M1745 2380 c-379 -154 -522 -190 -641 -162 -38 9 -41 8 -52 -18 -7
-15 -10 -34 -6 -43 10 -26 79 -47 155 -47 60 0 109 12 341 85 254 79 330 97
342 77 2 -4 -5 -113 -16 -242 l-22 -235 56 -292 56 -292 58 -103 c134 -241
270 -395 407 -463 75 -37 84 -39 196 -43 106 -4 121 -2 160 18 38 19 42 24 36
47 -13 52 -105 232 -164 320 -61 92 -146 193 -161 193 -5 0 11 -42 35 -93 58
-124 85 -217 85 -289 l0 -61 -66 6 c-173 13 -326 163 -444 437 -75 173 -181
543 -161 563 7 7 11 61 11 131 0 209 28 311 109 399 23 24 41 54 41 65 0 24
-41 58 -115 95 l-50 25 -190 -78z"/>
<path d="M982 1868 c-8 -10 1 -63 33 -200 l44 -187 -20 -123 c-29 -180 -77
-353 -121 -441 -19 -38 -20 -39 -40 -20 -12 10 -31 39 -43 65 l-22 47 -23 -24
c-23 -24 -23 -26 -12 -135 15 -141 43 -200 96 -200 26 0 156 250 156 300 0 26
42 26 155 0 47 -11 96 -20 110 -20 17 0 48 27 112 94 l89 95 43 -10 c79 -18
168 -74 304 -194 85 -74 89 -76 108 -59 36 32 25 75 -39 156 -32 40 -80 90
-105 111 -63 52 -154 97 -196 97 -22 0 -32 4 -28 13 2 6 37 96 77 199 l73 187
-19 32 c-26 43 -64 70 -112 79 -39 7 -44 4 -173 -87 -95 -67 -139 -93 -153
-89 -12 3 -32 -3 -46 -15 l-25 -19 30 -25 c58 -48 138 -24 245 72 55 50 100
68 100 41 0 -25 -49 -213 -65 -253 -32 -77 -28 -75 -223 -75 l-175 0 6 78 c4
42 9 131 12 197 l6 120 -64 99 c-35 55 -68 101 -74 103 -5 2 -15 -2 -21 -9z
m408 -721 c0 -19 -68 -96 -103 -118 l-30 -18 -59 51 c-40 35 -58 58 -58 74 0
24 0 24 125 24 97 0 125 -3 125 -13z"/>
</g>
</svg>
