<?xml version="1.0" standalone="no"?>
<!DOCTYPE svg PUBLIC "-//W3C//DTD SVG 20010904//EN"
 "http://www.w3.org/TR/2001/REC-SVG-20010904/DTD/svg10.dtd">
<svg version="1.0" xmlns="http://www.w3.org/2000/svg"
 width="360.000000pt" height="360.000000pt" viewBox="0 0 360.000000 360.000000"
 preserveAspectRatio="xMidYMid meet">
<metadata>
Created by potrace 1.15, written by Peter Selinger 2001-2017
</metadata>
<g transform="translate(0.000000,360.000000) scale(0.100000,-0.100000)"
fill="#000000" stroke="none">
<path d="M2045 2285 c-42 -35 -164 -89 -304 -136 -80 -27 -154 -49 -164 -49
-10 0 -35 9 -57 20 -22 11 -44 20 -50 20 -20 0 -9 -50 18 -80 30 -35 78 -49
161 -50 l54 0 -6 -73 c-15 -176 -143 -488 -327 -797 -33 -56 -60 -106 -60
-111 0 -5 15 -9 33 -9 30 0 39 8 84 68 72 96 153 223 206 322 92 170 196 444
226 591 20 95 109 173 238 208 39 11 47 9 117 -26 53 -26 76 -43 76 -56 0 -30
-79 -393 -120 -552 -79 -307 -155 -491 -231 -560 -63 -57 -80 -50 -118 49 -53
137 -96 183 -130 142 -17 -21 47 -279 91 -365 51 -101 55 -101 155 3 148 157
249 333 299 522 14 55 66 248 115 431 49 183 89 338 89 346 0 27 -72 96 -127
124 -48 23 -73 28 -153 31 -76 2 -99 -1 -115 -13z"/>
<path d="M1207 1650 c-14 -16 -35 -55 -47 -87 -58 -156 30 -200 177 -88 80 61
130 123 116 144 -6 9 -17 15 -23 13 -45 -11 -170 -14 -170 -4 0 6 5 14 10 17
6 3 10 13 10 21 0 26 -47 16 -73 -16z"/>
</g>
</svg>
