<?xml version="1.0" standalone="no"?>
<!DOCTYPE svg PUBLIC "-//W3C//DTD SVG 20010904//EN"
 "http://www.w3.org/TR/2001/REC-SVG-20010904/DTD/svg10.dtd">
<svg version="1.0" xmlns="http://www.w3.org/2000/svg"
 width="360.000000pt" height="360.000000pt" viewBox="0 0 360.000000 360.000000"
 preserveAspectRatio="xMidYMid meet">
<metadata>
Created by potrace 1.15, written by Peter Selinger 2001-2017
</metadata>
<g transform="translate(0.000000,360.000000) scale(0.100000,-0.100000)"
fill="#000000" stroke="none">
<path d="M2672 3005 c-56 -40 -115 -190 -131 -333 -6 -60 -20 -124 -32 -153
-24 -56 -77 -107 -119 -115 l-27 -6 -7 -111 c-15 -291 -18 -494 -7 -515 24
-44 47 -46 91 -6 37 34 40 40 40 88 0 71 44 427 75 605 65 373 134 510 196
389 19 -38 21 -51 14 -123 -5 -44 -6 -96 -4 -115 1 -19 2 -64 1 -100 0 -36 -5
-342 -11 -680 -9 -649 -34 -1322 -51 -1404 -7 -31 -7 -52 -1 -55 5 -3 11 -20
13 -36 l4 -30 18 40 c57 124 124 713 132 1145 2 135 9 275 15 311 8 53 6 102
-12 259 l-21 193 22 294 22 294 -44 56 c-56 72 -58 74 -92 101 -34 26 -54 28
-84 7z"/>
<path d="M1775 2910 c-17 -19 -17 -21 14 -55 38 -43 39 -62 5 -128 -31 -62
-108 -179 -129 -197 -12 -10 -41 -8 -145 9 -72 12 -138 21 -146 21 -24 0 -17
-55 12 -89 25 -30 29 -31 105 -31 74 0 79 -1 79 -21 0 -12 -13 -45 -30 -74
-28 -50 -33 -53 -86 -64 -107 -21 -153 -72 -162 -178 l-4 -53 38 0 c37 0 48 8
214 175 172 172 175 175 218 175 32 0 55 -9 96 -36 48 -32 59 -35 112 -32 58
3 59 3 62 35 2 18 -2 41 -7 52 -13 23 -99 57 -170 67 -47 6 -51 9 -51 33 0 15
34 83 80 159 44 73 80 137 80 142 0 21 -128 110 -158 110 -5 0 -17 -9 -27 -20z"/>
<path d="M1737 2212 c-21 -24 -21 -31 3 -62 23 -29 24 -50 9 -118 l-12 -49
-136 -78 c-207 -118 -470 -284 -633 -400 -140 -100 -148 -104 -177 -94 -26 9
-35 8 -55 -9 l-25 -19 32 -32 c65 -62 123 -41 392 148 71 50 136 91 144 91 12
0 13 -29 8 -182 -4 -101 -9 -212 -13 -248 l-6 -65 32 -17 c37 -21 64 -23 77
-5 5 6 17 39 27 72 36 118 74 175 116 175 25 0 30 -8 63 -88 65 -156 123 -230
173 -220 42 7 69 156 80 434 7 159 8 164 29 164 32 0 135 -66 214 -137 61 -56
74 -63 110 -63 49 0 50 5 22 119 l-18 75 -55 11 c-57 11 -135 54 -145 80 -3 8
-13 15 -22 15 -43 0 -122 32 -138 56 -11 17 -13 28 -6 32 6 4 14 25 18 47 10
56 49 120 87 143 20 12 61 22 105 26 39 3 89 12 110 18 35 12 38 16 41 56 2
31 -1 44 -13 48 -9 4 -76 -3 -149 -15 -174 -28 -166 -28 -166 14 0 20 -7 49
-15 65 -13 25 -22 30 -54 30 -24 0 -44 -7 -54 -18z m-2 -424 c-9 -69 -28 -114
-54 -128 -30 -16 -26 -40 17 -112 l39 -63 -10 -122 -10 -123 -31 1 c-29 0 -34
6 -68 78 -21 43 -56 98 -78 123 -44 51 -128 98 -172 98 -15 0 -28 4 -28 9 0
19 78 111 132 155 75 63 206 136 241 136 l29 0 -7 -52z"/>
</g>
</svg>
