<?xml version="1.0" standalone="no"?>
<!DOCTYPE svg PUBLIC "-//W3C//DTD SVG 20010904//EN"
 "http://www.w3.org/TR/2001/REC-SVG-20010904/DTD/svg10.dtd">
<svg version="1.0" xmlns="http://www.w3.org/2000/svg"
 width="360.000000pt" height="360.000000pt" viewBox="0 0 360.000000 360.000000"
 preserveAspectRatio="xMidYMid meet">
<metadata>
Created by potrace 1.15, written by Peter Selinger 2001-2017
</metadata>
<g transform="translate(0.000000,360.000000) scale(0.100000,-0.100000)"
fill="#000000" stroke="none">
<path d="M1518 2925 c-14 -19 -18 -44 -18 -119 0 -89 1 -96 20 -96 16 0 20 7
20 30 0 17 5 30 11 30 7 0 10 -33 7 -102 -4 -122 -17 -148 -100 -194 -48 -26
-61 -29 -139 -28 -73 1 -88 -2 -97 -17 -9 -15 -7 -24 14 -49 45 -53 75 -63
154 -51 102 16 105 16 117 -23 8 -26 7 -53 -2 -103 -15 -82 -27 -94 -225 -225
-170 -112 -198 -120 -220 -63 -9 24 -14 26 -57 23 l-48 -3 1 -75 c2 -126 54
-278 134 -395 26 -38 36 -45 63 -45 18 0 49 11 70 26 21 14 41 23 44 20 4 -3
-67 -115 -155 -249 -102 -152 -162 -252 -162 -268 0 -17 9 -30 31 -43 17 -10
32 -16 33 -14 2 1 43 59 91 128 193 274 275 370 318 370 l27 0 0 -218 0 -218
34 -33 c32 -31 72 -40 71 -16 -1 6 -5 49 -9 97 -8 81 0 177 30 355 l5 33 129
-65 c142 -71 180 -79 205 -41 20 30 42 145 51 269 6 87 5 97 -10 97 -29 0 -65
-50 -86 -118 -11 -35 -20 -70 -20 -78 0 -10 -15 -14 -60 -14 -50 0 -73 7 -146
43 l-86 42 7 65 c13 134 1 118 153 194 194 96 232 122 232 156 0 32 -13 45
-54 56 l-28 7 76 76 c42 42 76 83 76 92 0 9 -10 25 -23 37 -31 30 -88 29 -233
-4 -63 -14 -122 -23 -130 -20 -10 4 -14 21 -14 58 0 63 33 139 79 182 20 19
31 39 31 56 0 27 -27 60 -48 60 -14 0 -15 35 -2 156 9 82 7 99 -10 150 -32 91
-43 104 -93 104 -33 -1 -46 -6 -59 -25z m262 -848 c0 -18 -138 -119 -158 -115
-13 2 -17 14 -17 43 l0 40 80 22 c98 26 95 26 95 10z m-310 -155 c0 -84 -70
-168 -212 -254 -78 -48 -98 -49 -98 -5 0 60 20 106 68 155 46 47 204 152 229
152 9 0 13 -15 13 -48z"/>
<path d="M2475 2760 c-23 -11 -55 -32 -73 -47 -31 -27 -34 -36 -96 -321 -35
-161 -67 -296 -70 -299 -3 -3 -28 9 -56 26 -53 33 -97 40 -106 17 -3 -8 8 -41
25 -75 29 -57 31 -67 31 -174 0 -197 24 -269 92 -275 l35 -3 42 214 c42 219
47 266 32 283 -14 16 125 509 144 509 17 0 27 -67 15 -114 -8 -36 -3 -146 24
-531 19 -267 39 -498 44 -515 5 -18 5 -38 -1 -52 -6 -14 -6 -32 1 -52 7 -19 7
-33 1 -36 -5 -4 -9 -48 -9 -98 0 -212 -25 -454 -72 -699 -18 -98 -20 -119 -8
-133 45 -54 104 140 160 530 22 150 22 151 10 960 l-11 810 -31 48 c-35 54
-58 59 -123 27z"/>
</g>
</svg>
