<?xml version="1.0" standalone="no"?>
<!DOCTYPE svg PUBLIC "-//W3C//DTD SVG 20010904//EN"
 "http://www.w3.org/TR/2001/REC-SVG-20010904/DTD/svg10.dtd">
<svg version="1.0" xmlns="http://www.w3.org/2000/svg"
 width="360.000000pt" height="360.000000pt" viewBox="0 0 360.000000 360.000000"
 preserveAspectRatio="xMidYMid meet">
<metadata>
Created by potrace 1.15, written by Peter Selinger 2001-2017
</metadata>
<g transform="translate(0.000000,360.000000) scale(0.100000,-0.100000)"
fill="#000000" stroke="none">
<path d="M2140 2252 c-35 -17 -80 -73 -80 -100 0 -12 11 -13 61 -8 l62 7 -6
-78 c-3 -43 -8 -85 -11 -93 -4 -8 -66 -42 -138 -74 -150 -68 -283 -144 -315
-182 -13 -14 -23 -36 -23 -50 0 -13 -4 -24 -9 -24 -5 0 -45 -51 -89 -112 -45
-62 -87 -122 -95 -132 -14 -19 -17 -18 -81 29 -37 27 -65 54 -62 60 2 5 54
126 116 268 106 242 112 258 96 276 -20 22 -80 41 -134 41 -43 0 -110 -31
-208 -97 -53 -35 -63 -38 -99 -32 -22 4 -48 8 -57 8 -29 1 -21 -32 15 -67 54
-52 132 -40 253 38 59 39 111 53 102 28 -144 -389 -161 -428 -183 -428 -12 0
-80 9 -151 20 -173 27 -174 27 -174 -9 0 -24 7 -32 44 -50 25 -11 83 -30 130
-42 47 -12 86 -26 86 -31 0 -21 -52 -112 -97 -171 -84 -110 -113 -137 -143
-137 -25 0 -28 4 -34 48 -10 71 -15 82 -37 82 -17 0 -19 -7 -19 -60 0 -95 18
-160 55 -197 60 -60 70 -53 187 125 120 179 183 262 201 262 7 0 50 -27 95
-61 77 -56 86 -60 130 -57 44 3 48 5 69 46 12 24 36 105 53 180 18 76 35 146
40 157 12 33 370 169 370 142 0 -2 -102 -183 -226 -402 -124 -218 -224 -398
-222 -399 2 -1 10 -7 19 -14 14 -11 29 2 105 90 48 57 101 124 117 151 22 34
36 47 53 47 26 0 26 0 45 -120 22 -146 75 -280 125 -319 48 -38 67 -29 174 77
179 178 314 423 449 816 l42 120 -48 68 c-69 101 -143 168 -185 168 -19 0 -38
-4 -44 -10 -6 -6 -24 -5 -51 2 -39 10 -46 16 -84 87 -70 131 -108 154 -189
113z m421 -351 c26 -27 50 -62 54 -79 13 -63 -162 -474 -276 -647 -49 -74
-202 -245 -219 -245 -4 0 -19 26 -33 58 -50 112 -59 160 -64 324 l-5 156 44
59 c24 32 68 107 97 168 42 86 67 123 115 171 66 65 101 81 190 83 47 1 52 -2
97 -48z"/>
</g>
</svg>
