<?xml version="1.0" standalone="no"?>
<!DOCTYPE svg PUBLIC "-//W3C//DTD SVG 20010904//EN"
 "http://www.w3.org/TR/2001/REC-SVG-20010904/DTD/svg10.dtd">
<svg version="1.0" xmlns="http://www.w3.org/2000/svg"
 width="360.000000pt" height="360.000000pt" viewBox="0 0 360.000000 360.000000"
 preserveAspectRatio="xMidYMid meet">
<metadata>
Created by potrace 1.15, written by Peter Selinger 2001-2017
</metadata>
<g transform="translate(0.000000,360.000000) scale(0.100000,-0.100000)"
fill="#000000" stroke="none">
<path d="M1821 2936 c-16 -19 3 -100 34 -148 19 -29 25 -51 25 -96 0 -51 -4
-62 -27 -85 -33 -31 -177 -100 -318 -152 l-99 -37 -23 27 c-20 22 -23 37 -23
102 0 83 -22 186 -51 245 -34 68 -92 87 -136 46 -23 -21 -23 -21 -4 -52 32
-52 70 -179 92 -307 l21 -122 -24 -24 c-23 -22 -27 -23 -77 -12 -49 10 -54 9
-77 -12 -14 -13 -24 -34 -24 -51 0 -35 40 -100 58 -93 35 13 123 16 177 6 56
-11 61 -10 78 10 9 12 17 34 17 51 0 21 12 41 48 76 47 48 205 152 229 152 7
0 15 -11 19 -25 5 -20 -12 -52 -88 -167 -113 -171 -195 -274 -281 -355 -87
-81 -135 -103 -225 -103 -68 0 -72 -1 -72 -23 0 -13 15 -37 35 -57 l34 -33
228 101 c417 185 704 287 881 314 56 8 79 8 96 -2 17 -9 33 -9 63 -1 32 9 54
7 116 -8 42 -11 90 -27 106 -36 37 -19 52 -62 27 -80 -9 -7 -91 -43 -184 -80
-92 -38 -171 -72 -177 -77 -6 -5 -4 -14 6 -23 13 -13 37 -9 204 35 105 27 222
59 260 72 l70 24 3 47 c3 42 -1 50 -37 90 -91 98 -204 132 -421 124 -211 -8
-426 -51 -657 -131 -56 -20 -105 -36 -108 -36 -15 0 1 27 59 93 35 40 90 115
121 167 81 134 149 231 181 261 l29 27 143 -11 c140 -10 143 -10 165 11 l21
22 -29 30 c-23 23 -37 30 -69 30 -68 0 -165 21 -197 44 -22 15 -38 39 -53 82
-31 86 -64 134 -102 150 -42 17 -49 17 -63 0z"/>
<path d="M1697 1872 c-24 -26 -22 -34 17 -71 l33 -32 -17 -72 c-20 -86 -28
-102 -72 -143 -54 -50 -126 -95 -228 -141 -99 -45 -119 -50 -136 -33 -7 7 -16
4 -29 -10 -18 -20 -18 -21 10 -50 16 -17 37 -30 46 -30 10 0 82 25 160 55 82
32 146 52 151 47 18 -18 -84 -241 -235 -514 l-65 -118 33 -20 c43 -26 50 -25
95 10 56 45 66 41 74 -32 9 -88 54 -176 119 -233 57 -50 73 -55 82 -25 3 11
14 20 24 20 107 0 313 378 501 916 l32 91 -26 51 c-54 106 -142 150 -267 132
-35 -5 -78 -10 -96 -10 l-32 0 -3 88 -3 87 -54 28 c-64 32 -92 34 -114 9z
m413 -357 l34 -35 -18 -88 c-57 -278 -197 -572 -354 -742 -70 -75 -80 -75
-124 6 -42 75 -101 262 -93 293 10 41 107 240 148 304 20 31 40 76 43 100 15
98 75 165 169 188 17 4 59 7 96 8 62 1 67 -1 99 -34z"/>
<path d="M830 1864 c0 -3 5 -37 11 -75 8 -51 8 -89 -1 -142 -19 -120 -49 -229
-75 -280 -31 -61 -31 -78 0 -107 51 -48 96 11 141 189 26 100 31 180 13 198
-8 8 -8 13 0 17 6 4 11 35 11 70 0 59 -2 64 -38 99 -34 33 -62 47 -62 31z"/>
</g>
</svg>
