<?xml version="1.0" standalone="no"?>
<!DOCTYPE svg PUBLIC "-//W3C//DTD SVG 20010904//EN"
 "http://www.w3.org/TR/2001/REC-SVG-20010904/DTD/svg10.dtd">
<svg version="1.0" xmlns="http://www.w3.org/2000/svg"
 width="360.000000pt" height="360.000000pt" viewBox="0 0 360.000000 360.000000"
 preserveAspectRatio="xMidYMid meet">
<metadata>
Created by potrace 1.15, written by Peter Selinger 2001-2017
</metadata>
<g transform="translate(0.000000,360.000000) scale(0.100000,-0.100000)"
fill="#000000" stroke="none">
<path d="M1350 2626 c0 -46 48 -88 179 -155 87 -45 108 -52 138 -46 56 10 81
26 94 57 21 51 6 61 -122 79 -135 19 -207 41 -244 74 -35 33 -45 31 -45 -9z"/>
<path d="M1714 2161 c-187 -92 -524 -274 -837 -452 -143 -81 -181 -93 -192
-60 -9 30 -45 71 -61 71 -10 0 -14 -13 -14 -49 0 -43 4 -52 35 -80 61 -53 68
-52 248 37 89 44 249 133 355 196 165 100 232 131 232 111 0 -2 -67 -102 -148
-222 -82 -120 -166 -244 -187 -275 l-38 -58 28 -36 c27 -35 29 -36 78 -31 27
4 85 23 127 43 43 20 82 35 87 33 5 -2 -89 -136 -209 -298 -120 -162 -218
-298 -218 -301 0 -4 10 -16 23 -28 l23 -22 113 133 c179 209 379 424 467 501
84 74 148 115 160 103 19 -19 -108 -228 -293 -481 -71 -98 -93 -135 -91 -155
2 -14 8 -26 14 -26 6 0 73 74 150 165 92 108 147 166 162 168 35 5 208 -171
261 -266 13 -23 76 -2 129 43 90 78 238 339 287 509 63 219 168 332 323 352
51 6 55 5 88 -27 33 -32 34 -36 34 -106 0 -62 -7 -93 -51 -215 -126 -353 -233
-581 -309 -660 -25 -26 -53 -48 -62 -48 -18 0 -19 6 -44 188 l-17 122 -30 0
-29 0 5 -187 c3 -116 10 -203 18 -226 19 -57 51 -87 93 -87 31 0 41 7 81 57
179 225 328 533 429 887 56 195 63 243 43 283 -33 62 -150 143 -208 143 -11 0
-58 -10 -105 -21 -80 -20 -87 -21 -102 -5 -14 13 -14 20 -4 36 21 34 15 122
-11 161 -34 50 -82 79 -133 79 -24 0 -44 -4 -44 -8 0 -5 15 -35 32 -68 28 -50
33 -69 32 -125 -1 -123 -62 -210 -193 -272 -36 -17 -68 -33 -69 -34 -2 -1 4
-16 14 -33 14 -23 24 -30 39 -26 11 3 39 8 63 12 l42 7 -6 -34 c-10 -58 -90
-288 -147 -424 -42 -100 -60 -131 -75 -133 -16 -3 -286 154 -326 189 -5 4 45
93 113 199 66 105 121 194 121 199 0 4 -9 16 -20 26 -19 18 -37 17 -147 -2
-33 -5 -33 -5 -33 33 0 51 36 125 94 196 25 31 46 61 46 66 0 14 -45 52 -63
52 -9 0 -39 -36 -70 -84 -66 -101 -170 -213 -252 -272 -77 -54 -181 -104 -219
-104 -28 0 -28 1 -12 23 9 12 49 72 90 133 129 192 282 338 472 450 52 30 94
57 94 59 0 2 -8 20 -17 40 -11 24 -23 35 -38 35 -12 0 -111 -44 -221 -99z"/>
</g>
</svg>
