<?xml version="1.0" standalone="no"?>
<!DOCTYPE svg PUBLIC "-//W3C//DTD SVG 20010904//EN"
 "http://www.w3.org/TR/2001/REC-SVG-20010904/DTD/svg10.dtd">
<svg version="1.0" xmlns="http://www.w3.org/2000/svg"
 width="360.000000pt" height="360.000000pt" viewBox="0 0 360.000000 360.000000"
 preserveAspectRatio="xMidYMid meet">
<metadata>
Created by potrace 1.15, written by Peter Selinger 2001-2017
</metadata>
<g transform="translate(0.000000,360.000000) scale(0.100000,-0.100000)"
fill="#000000" stroke="none">
<path d="M1266 2930 c-20 -22 -36 -49 -36 -60 0 -18 7 -20 61 -20 l60 0 -3
-87 c-3 -62 -11 -107 -29 -151 -23 -61 -23 -64 -5 -77 17 -13 17 -19 6 -67 -7
-29 -18 -63 -25 -74 -28 -45 -378 -294 -509 -363 -93 -49 -140 -60 -165 -37
-16 14 -19 15 -24 3 -3 -8 8 -28 27 -46 29 -28 38 -31 99 -31 l66 0 166 110
c169 111 275 170 305 170 15 0 15 -6 6 -49 -6 -34 -6 -64 1 -95 10 -44 9 -47
-44 -137 -78 -134 -133 -208 -204 -274 -67 -61 -126 -94 -171 -95 -32 0 -36
-20 -17 -96 22 -87 73 -95 155 -24 31 28 63 50 70 50 6 0 50 -42 96 -93 121
-133 113 -117 82 -174 -29 -52 -29 -79 4 -121 l18 -23 149 64 c115 49 151 61
153 50 11 -43 -99 -254 -254 -490 -51 -79 -94 -148 -94 -154 0 -24 29 2 171
154 83 89 157 163 164 165 8 2 14 -21 19 -73 17 -192 87 -301 221 -345 l39
-13 44 49 c62 71 163 225 215 329 78 157 128 316 151 480 14 106 10 120 -53
180 -29 27 -39 30 -94 30 -34 0 -100 -4 -148 -8 l-85 -8 -10 43 c-7 35 -15 46
-41 57 -20 9 -33 22 -33 33 0 10 50 77 110 148 72 86 110 139 110 155 0 32
-35 58 -111 80 -35 10 -65 20 -67 21 -2 1 13 44 33 95 75 196 168 319 240 319
35 0 36 -1 30 -32 -29 -156 -49 -351 -44 -416 18 -196 133 -334 327 -396 122
-38 173 -41 303 -16 217 41 309 78 309 125 0 14 -32 146 -70 293 -39 147 -75
284 -81 305 -7 27 -15 37 -29 37 -11 0 -20 -2 -20 -4 0 -2 23 -123 50 -269 28
-146 50 -279 50 -295 0 -34 22 -27 -220 -75 -145 -28 -223 -23 -316 23 -74 36
-116 81 -158 170 -30 62 -31 71 -29 180 2 205 64 401 161 513 23 27 42 52 42
56 0 13 -65 71 -80 71 -7 0 -71 -36 -142 -80 -70 -44 -133 -80 -138 -80 -13 0
-13 4 11 180 l20 153 -27 28 c-54 57 -66 49 -215 -148 -74 -98 -161 -206 -194
-240 l-60 -63 -72 12 c-54 8 -73 16 -73 27 0 8 14 94 31 189 l30 175 -29 36
c-28 36 -74 64 -123 75 -22 5 -33 -1 -63 -34z m674 -135 c15 -19 9 -54 -37
-205 -58 -194 -121 -311 -187 -351 -40 -25 -59 -24 -102 4 -32 20 -35 25 -30
57 9 61 84 192 187 331 105 140 138 179 150 179 3 0 12 -7 19 -15z m-355 -655
c49 -16 99 -30 112 -30 13 0 23 -4 23 -8 0 -8 -70 -142 -74 -142 -2 0 -17 5
-35 11 -27 9 -35 8 -51 -6 -18 -16 -20 -32 -20 -149 0 -115 3 -134 20 -156 11
-14 20 -41 20 -60 0 -31 -11 -46 -102 -137 l-102 -103 -23 22 c-28 27 -28 32
-2 282 17 157 19 203 10 218 -19 31 24 148 91 246 16 23 32 42 37 42 4 0 47
-13 96 -30z m245 -266 c0 -42 -52 -114 -83 -114 -4 0 11 104 18 128 3 6 18 12
35 12 26 0 30 -4 30 -26z m-600 -279 l0 -95 -32 0 c-28 0 -37 7 -62 46 l-29
45 49 50 c26 27 54 49 61 49 10 0 13 -24 13 -95z m460 -120 c0 -48 -4 -60 -27
-81 -52 -48 -246 -154 -259 -141 -8 7 108 157 162 209 40 38 89 68 112 68 8 0
12 -18 12 -55z m375 -79 l50 -13 -2 -76 c-4 -194 -84 -420 -215 -614 -64 -96
-106 -143 -127 -143 -65 0 -123 134 -162 373 -13 79 -13 79 16 130 74 135 181
264 254 309 28 18 103 44 131 47 3 0 28 -5 55 -13z"/>
</g>
</svg>
