<?xml version="1.0" standalone="no"?>
<!DOCTYPE svg PUBLIC "-//W3C//DTD SVG 20010904//EN"
 "http://www.w3.org/TR/2001/REC-SVG-20010904/DTD/svg10.dtd">
<svg version="1.0" xmlns="http://www.w3.org/2000/svg"
 width="360.000000pt" height="360.000000pt" viewBox="0 0 360.000000 360.000000"
 preserveAspectRatio="xMidYMid meet">
<metadata>
Created by potrace 1.15, written by Peter Selinger 2001-2017
</metadata>
<g transform="translate(0.000000,360.000000) scale(0.100000,-0.100000)"
fill="#000000" stroke="none">
<path d="M1070 2657 c0 -18 5 -38 10 -43 7 -7 -36 -83 -135 -236 -131 -203
-145 -230 -145 -269 0 -24 4 -50 9 -57 6 -10 66 23 235 128 215 133 256 154
256 129 0 -5 -43 -70 -95 -143 -74 -105 -115 -151 -192 -217 -158 -135 -300
-267 -318 -295 -13 -20 -15 -32 -7 -48 6 -11 18 -66 28 -121 38 -222 105 -343
199 -361 32 -6 34 -9 28 -33 -16 -69 -79 -203 -157 -335 l-45 -76 26 -20 c54
-42 63 -33 127 122 197 480 348 697 441 631 l26 -18 -8 -190 c-11 -255 -9
-331 11 -399 31 -106 84 -168 179 -212 74 -33 198 -52 230 -35 19 10 31 9 72
-9 44 -19 56 -20 112 -10 45 8 74 7 107 -1 37 -9 68 -7 178 11 369 60 678 167
678 235 0 78 -73 522 -102 613 -45 146 -58 33 -29 -253 13 -121 21 -247 19
-280 l-3 -60 -167 -56 c-284 -95 -486 -124 -807 -117 -190 5 -229 12 -284 51
-63 43 -107 157 -107 274 0 35 9 143 20 241 l21 177 -60 57 -59 58 39 34 c41
38 109 76 134 76 11 0 15 11 15 45 0 55 -13 62 -76 45 -24 -7 -47 -10 -50 -7
-4 3 44 63 105 133 118 135 131 163 91 199 -73 66 -377 -106 -715 -403 -87
-77 -107 -79 -129 -15 l-16 48 27 20 c214 154 673 648 673 722 0 22 -4 23 -67
23 -94 -1 -143 -13 -255 -67 -54 -26 -101 -44 -104 -40 -3 3 10 33 30 66 45
74 112 217 118 253 6 33 -36 68 -82 68 -27 0 -30 -3 -30 -33z m370 -788 c0 -6
-37 -64 -82 -130 -65 -94 -86 -119 -105 -119 -22 0 -23 3 -23 68 l1 67 96 67
c89 63 113 72 113 47z m-330 -287 c0 -52 -23 -126 -55 -173 -26 -40 -98 -99
-120 -99 -8 0 -18 26 -25 64 -10 54 -10 68 4 94 24 47 67 93 115 124 63 40 81
38 81 -10z"/>
<path d="M1973 2223 c-20 -8 -15 -38 17 -115 17 -40 26 -74 21 -77 -5 -3 -12
-24 -16 -46 -19 -101 -103 -204 -216 -265 -57 -30 -79 -53 -66 -67 4 -3 41 9
84 26 90 36 108 38 98 14 -3 -10 -45 -127 -92 -261 l-86 -243 26 -27 27 -27
50 28 c55 31 54 31 65 -37 10 -60 48 -126 102 -177 45 -43 105 -89 116 -89 15
0 170 307 226 448 74 186 121 388 121 522 0 66 -1 69 -39 103 -57 51 -102 62
-196 48 -122 -18 -113 -25 -100 79 13 105 8 118 -55 150 -39 20 -63 23 -87 13z
m354 -335 c21 -12 39 -22 41 -24 1 -1 -9 -54 -24 -119 -18 -82 -23 -120 -15
-128 7 -7 6 -14 -3 -21 -7 -6 -39 -87 -70 -180 -88 -260 -162 -406 -205 -406
-22 0 -92 145 -118 243 l-17 65 33 143 c18 79 41 173 52 209 34 121 104 201
197 226 67 18 86 17 129 -8z"/>
</g>
</svg>
