<?xml version="1.0" standalone="no"?>
<!DOCTYPE svg PUBLIC "-//W3C//DTD SVG 20010904//EN"
 "http://www.w3.org/TR/2001/REC-SVG-20010904/DTD/svg10.dtd">
<svg version="1.0" xmlns="http://www.w3.org/2000/svg"
 width="360.000000pt" height="360.000000pt" viewBox="0 0 360.000000 360.000000"
 preserveAspectRatio="xMidYMid meet">
<metadata>
Created by potrace 1.15, written by Peter Selinger 2001-2017
</metadata>
<g transform="translate(0.000000,360.000000) scale(0.100000,-0.100000)"
fill="#000000" stroke="none">
<path d="M1758 2808 c-33 -12 -33 -7 -8 -144 24 -123 20 -174 -15 -244 -62
-123 -273 -241 -329 -184 -21 21 -21 93 1 207 l17 90 -54 48 c-53 47 -57 49
-117 49 l-63 0 0 -33 c0 -26 6 -36 25 -45 31 -14 61 -61 80 -126 10 -34 12
-52 5 -56 -8 -5 -8 -20 -1 -51 6 -24 11 -79 11 -121 0 -77 0 -78 -25 -78 -18
0 -25 5 -25 20 0 16 -7 20 -35 20 -33 0 -37 -4 -55 -46 -11 -25 -20 -59 -20
-75 0 -25 4 -29 28 -29 43 -1 104 -33 141 -76 l34 -38 -34 -14 c-40 -17 -49
-28 -49 -65 0 -22 7 -31 32 -41 l32 -14 -65 -65 c-35 -35 -90 -79 -122 -97
-31 -17 -59 -35 -62 -40 -6 -10 60 -239 98 -334 57 -146 112 -175 218 -116 30
16 57 30 62 30 4 0 7 -19 7 -42 l0 -43 -348 -233 c-199 -133 -357 -232 -369
-232 -16 0 -23 6 -23 20 0 15 -7 20 -24 20 -31 0 -41 -16 -37 -55 6 -61 36
-95 82 -95 10 0 169 92 353 205 184 113 339 205 345 205 19 0 23 -22 11 -66
-10 -33 -10 -47 -1 -58 8 -10 8 -15 1 -18 -7 -2 -6 -27 4 -80 19 -99 39 -138
71 -138 32 0 52 39 66 132 11 69 10 76 -15 137 -43 105 -41 109 77 193 56 41
107 77 113 81 6 4 56 12 110 18 129 14 164 28 164 67 0 53 -21 59 -117 34 -46
-12 -132 -42 -190 -66 l-106 -45 -29 20 c-32 23 -32 22 -10 106 l17 62 135 93
c136 94 145 105 126 148 -5 11 19 38 84 94 104 90 109 104 52 159 -35 34 -42
37 -97 37 -33 -1 -89 -7 -125 -15 -85 -19 -90 -18 -90 4 0 11 -4 23 -10 26
-23 14 -7 59 45 129 30 40 55 79 55 87 0 20 -20 39 -42 39 -28 0 -31 23 -14
82 20 70 70 127 147 167 61 33 63 33 128 23 61 -11 68 -10 86 9 l20 20 -21 37
c-18 30 -29 38 -64 44 -45 8 -95 35 -125 68 -17 19 -18 27 -7 95 13 82 7 113
-31 153 -19 21 -70 54 -79 51 -2 0 -15 -5 -30 -11z m-118 -625 c0 -63 -139
-233 -189 -233 -19 0 -21 6 -21 63 0 60 2 65 38 99 82 78 172 115 172 71z
m-76 -409 c18 -26 18 -26 -15 -61 -54 -56 -204 -179 -254 -209 -44 -26 -46
-26 -60 -8 -8 11 -15 26 -15 35 0 35 275 270 315 269 5 0 18 -12 29 -26z m304
-91 c4 -28 -62 -101 -173 -191 -89 -72 -94 -70 -75 22 21 105 81 167 180 187
51 10 65 6 68 -18z m-348 -237 c0 -107 -86 -206 -180 -206 -27 0 -30 3 -30 31
0 47 37 113 104 186 l59 64 23 -22 c15 -14 24 -34 24 -53z"/>
<path d="M2373 1931 c-30 -25 -29 -41 2 -41 26 0 26 -1 23 -67 l-3 -67 -37
-11 c-21 -6 -43 -18 -50 -27 -7 -9 -51 -26 -97 -37 -111 -28 -131 -41 -131
-90 0 -21 3 -40 6 -43 3 -4 58 11 122 33 64 21 122 39 130 39 11 0 13 -9 7
-37 -11 -63 -63 -218 -137 -408 -38 -99 -68 -188 -66 -199 5 -30 32 -42 61
-27 47 25 56 14 101 -124 53 -158 71 -200 102 -242 53 -70 128 -30 228 120 30
45 69 114 87 152 77 171 170 468 229 739 33 147 33 149 15 182 -12 23 -36 43
-73 61 -48 24 -71 28 -172 31 -78 3 -124 0 -139 -7 -19 -11 -25 -8 -51 18 -26
29 -101 71 -125 70 -5 0 -20 -8 -32 -18z m433 -182 c19 -11 34 -28 34 -38 0
-78 -80 -421 -136 -582 -58 -168 -190 -419 -221 -419 -32 0 -82 95 -144 278
l-38 114 104 243 c58 133 105 252 105 264 0 34 36 96 67 116 71 47 175 58 229
24z"/>
</g>
</svg>
