<?xml version="1.0" standalone="no"?>
<!DOCTYPE svg PUBLIC "-//W3C//DTD SVG 20010904//EN"
 "http://www.w3.org/TR/2001/REC-SVG-20010904/DTD/svg10.dtd">
<svg version="1.0" xmlns="http://www.w3.org/2000/svg"
 width="360.000000pt" height="360.000000pt" viewBox="0 0 360.000000 360.000000"
 preserveAspectRatio="xMidYMid meet">
<metadata>
Created by potrace 1.15, written by Peter Selinger 2001-2017
</metadata>
<g transform="translate(0.000000,360.000000) scale(0.100000,-0.100000)"
fill="#000000" stroke="none">
<path d="M1653 3140 c-36 -14 -29 -55 17 -110 35 -42 40 -54 40 -100 0 -29 -7
-67 -16 -86 -35 -73 -145 -147 -281 -187 -49 -15 -52 -15 -71 6 -10 12 -25 45
-31 72 -7 28 -23 66 -36 86 -22 34 -100 92 -157 117 -25 10 -29 9 -48 -17 -11
-16 -20 -34 -20 -40 0 -6 27 -43 60 -82 56 -68 100 -154 100 -199 0 -14 -19
-32 -55 -55 -77 -50 -81 -51 -98 -20 l-14 27 -26 -32 c-30 -35 -35 -81 -11
-100 15 -13 53 -7 180 26 17 4 23 -2 36 -35 12 -29 24 -42 43 -47 34 -8 48 6
69 71 34 106 112 165 216 165 57 0 79 -13 45 -26 -8 -4 -29 -32 -46 -65 -66
-123 -193 -235 -352 -309 -74 -35 -88 -38 -118 -30 -39 11 -93 13 -102 4 -4
-4 7 -24 23 -44 17 -21 30 -43 30 -50 0 -50 87 -385 116 -445 l17 -37 69 4 69
4 -3 -39 -3 -39 -130 -57 c-154 -68 -295 -139 -349 -176 -22 -15 -61 -30 -87
-34 -27 -4 -55 -14 -64 -21 -14 -12 -13 -16 7 -38 20 -21 29 -23 74 -19 61 6
165 49 297 123 54 30 102 52 107 49 35 -22 -144 -268 -404 -555 -90 -99 -114
-140 -82 -140 24 0 276 209 287 238 25 66 123 128 291 183 108 35 118 36 118
7 0 -64 -109 -236 -266 -425 -57 -68 -104 -128 -104 -133 0 -5 9 -12 20 -15
27 -8 74 29 185 147 113 120 258 314 305 409 67 131 165 199 291 199 74 0 75
-8 28 -190 -32 -123 -88 -264 -140 -351 -60 -103 -120 -180 -137 -177 -10 2
-39 48 -72 116 -45 91 -59 112 -75 110 -12 -2 -21 -12 -23 -25 -5 -32 52 -254
81 -317 39 -84 51 -83 163 20 102 95 136 143 214 306 62 131 113 286 142 433
26 131 33 137 89 79 45 -47 206 -168 295 -222 63 -38 85 -45 215 -68 147 -26
293 -60 317 -73 13 -7 62 26 62 42 0 2 -33 30 -73 61 -53 40 -82 56 -104 56
-17 0 -64 6 -105 14 -229 44 -456 184 -749 463 -49 47 -89 93 -87 101 2 10 31
21 88 32 108 22 165 46 190 77 19 24 19 27 2 55 -9 17 -22 32 -29 35 -6 2 -97
-29 -202 -70 l-191 -75 -21 34 -20 33 66 77 c76 87 167 223 250 372 54 98 56
104 41 127 -8 13 -40 32 -69 43 -59 22 -191 52 -231 52 -14 0 -28 5 -31 10
-12 20 75 181 126 231 54 55 74 59 194 39 l60 -10 35 35 c28 29 33 38 24 53
-21 33 -60 44 -115 33 -27 -6 -73 -11 -101 -11 l-51 0 7 83 c14 154 22 134
-79 194 -49 29 -92 53 -95 52 -3 0 -15 -4 -27 -9z m173 -835 c4 -8 -20 -83
-52 -166 l-59 -150 -120 -76 c-66 -42 -175 -111 -242 -154 l-122 -78 -35 107
c-21 63 -34 124 -33 147 1 22 -2 58 -6 80 l-8 40 78 51 c84 55 211 122 296
155 134 53 291 76 303 44z m-246 -574 c22 -45 26 -61 17 -69 -17 -14 -145 -47
-153 -40 -11 12 27 120 51 144 36 36 52 30 85 -35z m279 -246 c77 -71 141
-135 141 -142 0 -19 -24 -16 -135 17 -114 34 -133 36 -141 15 -4 -8 -10 -15
-14 -15 -4 0 -42 27 -83 61 -70 55 -80 60 -119 57 -36 -3 -43 -6 -41 -23 18
-141 18 -139 -20 -182 -40 -44 -108 -84 -193 -113 -72 -25 -74 -25 -74 4 0 28
42 82 70 91 12 4 21 19 25 45 15 87 104 180 232 241 67 32 193 79 204 76 4 -1
70 -60 148 -132z"/>
<path d="M1443 2105 c-117 -57 -183 -106 -183 -134 0 -9 9 -27 20 -41 19 -25
19 -25 -11 -76 -31 -55 -36 -74 -18 -74 19 0 369 294 369 310 -1 16 -44 70
-57 70 -4 0 -58 -25 -120 -55z"/>
</g>
</svg>
