<?xml version="1.0" standalone="no"?>
<!DOCTYPE svg PUBLIC "-//W3C//DTD SVG 20010904//EN"
 "http://www.w3.org/TR/2001/REC-SVG-20010904/DTD/svg10.dtd">
<svg version="1.0" xmlns="http://www.w3.org/2000/svg"
 width="360.000000pt" height="360.000000pt" viewBox="0 0 360.000000 360.000000"
 preserveAspectRatio="xMidYMid meet">
<metadata>
Created by potrace 1.15, written by Peter Selinger 2001-2017
</metadata>
<g transform="translate(0.000000,360.000000) scale(0.100000,-0.100000)"
fill="#000000" stroke="none">
<path d="M1245 2503 c-104 -35 -192 -67 -194 -69 -3 -2 8 -18 24 -34 26 -27
35 -30 94 -30 60 0 74 4 145 45 88 50 89 51 106 30 9 -11 5 -42 -20 -150 -18
-74 -34 -135 -37 -135 -2 0 -22 9 -45 21 l-41 21 -112 -41 c-62 -23 -118 -41
-125 -41 -7 0 -38 23 -70 50 -92 79 -119 66 -66 -32 57 -104 70 -171 61 -323
-5 -71 -8 -141 -7 -155 3 -67 9 -110 14 -116 12 -11 96 24 183 76 68 41 92 51
122 48 20 -2 38 -8 40 -14 4 -11 -775 -514 -797 -514 -6 0 5 23 25 50 30 41
35 53 25 65 -27 32 -84 10 -162 -62 -42 -41 -48 -50 -48 -87 0 -34 6 -48 32
-73 l33 -31 75 11 75 10 295 200 c162 110 301 204 308 210 9 7 12 3 12 -15 0
-17 -10 -29 -36 -43 -57 -30 -264 -264 -264 -297 0 -22 47 -61 67 -56 10 3 85
54 168 113 153 110 290 195 312 195 7 0 13 -9 13 -19 0 -26 -372 -323 -537
-428 -70 -45 -154 -103 -185 -128 -50 -39 -58 -50 -58 -80 0 -18 4 -36 9 -39
4 -3 52 12 105 34 53 22 145 57 204 77 103 37 111 38 232 37 107 -1 153 -8
315 -43 841 -186 1060 -206 1439 -130 69 14 102 17 110 9 17 -17 59 -11 88 13
l27 22 -42 46 -42 46 -339 -38 -339 -38 -581 101 c-320 55 -619 103 -666 107
l-85 6 273 234 c199 171 272 240 272 256 0 11 -15 35 -32 52 l-33 31 -92 -11
c-51 -6 -96 -7 -100 -4 -12 12 49 66 155 139 114 77 115 80 37 118 l-43 21
-63 -26 c-67 -27 -89 -31 -89 -15 0 5 38 173 86 372 96 410 97 424 38 483 -20
20 -44 35 -57 34 -12 0 -107 -30 -212 -66z m-175 -423 c9 -16 21 -20 65 -20
38 0 55 -4 55 -13 0 -21 -107 -120 -123 -114 -22 8 -39 167 -17 167 5 0 14 -9
20 -20z m294 -47 c-3 -16 -17 -51 -30 -80 -27 -57 -66 -87 -126 -98 -57 -11
-50 13 35 115 58 72 77 89 100 89 25 1 27 -2 21 -26z"/>
<path d="M1806 2321 c-17 -19 -16 -22 20 -82 34 -55 39 -71 43 -136 2 -41 -2
-101 -8 -134 -8 -40 -9 -65 -2 -77 7 -13 6 -23 -2 -31 -9 -9 -9 -16 0 -30 11
-17 8 -22 -22 -39 -44 -27 -63 -58 -71 -115 -8 -54 9 -82 56 -92 25 -6 28 -11
34 -67 7 -74 41 -152 90 -205 20 -22 36 -45 36 -51 0 -9 -231 -112 -251 -112
-5 0 -9 -18 -9 -40 0 -22 2 -40 4 -40 2 0 102 34 223 74 466 158 592 242 460
304 -77 37 -111 36 -265 -2 -77 -20 -145 -36 -150 -36 -8 0 -34 148 -34 197 0
47 108 187 314 405 77 82 118 134 116 145 -3 19 -91 83 -114 83 -8 0 -14 -8
-14 -18 0 -11 -18 -47 -41 -82 -51 -80 -241 -276 -257 -266 -8 5 -12 59 -12
179 0 162 -1 174 -23 210 -22 37 -71 77 -93 77 -6 0 -19 -9 -28 -19z"/>
</g>
</svg>
