<?xml version="1.0" standalone="no"?>
<!DOCTYPE svg PUBLIC "-//W3C//DTD SVG 20010904//EN"
 "http://www.w3.org/TR/2001/REC-SVG-20010904/DTD/svg10.dtd">
<svg version="1.0" xmlns="http://www.w3.org/2000/svg"
 width="360.000000pt" height="360.000000pt" viewBox="0 0 360.000000 360.000000"
 preserveAspectRatio="xMidYMid meet">
<metadata>
Created by potrace 1.15, written by Peter Selinger 2001-2017
</metadata>
<g transform="translate(0.000000,360.000000) scale(0.100000,-0.100000)"
fill="#000000" stroke="none">
<path d="M2070 2401 c-28 -17 -260 -91 -343 -110 -45 -11 -110 -23 -144 -27
-35 -3 -60 -10 -58 -15 3 -4 31 -22 61 -40 l56 -32 106 18 c59 9 119 19 135
22 17 4 27 1 27 -6 0 -6 -31 -48 -69 -92 -204 -240 -321 -586 -321 -948 0
-110 11 -131 68 -131 29 0 31 2 38 47 17 122 88 235 200 322 86 66 104 67 104
4 0 -42 -5 -52 -42 -90 l-42 -43 32 -33 c26 -27 32 -41 32 -78 0 -40 -5 -50
-45 -89 -25 -24 -45 -48 -45 -53 0 -4 20 -30 45 -56 25 -26 45 -52 45 -57 0
-5 -143 -47 -317 -94 -175 -46 -323 -85 -329 -87 -6 -2 -26 31 -45 73 -19 44
-29 79 -23 81 7 2 3 62 -11 176 -20 158 -20 189 -11 382 l11 209 -33 56 c-39
64 -75 104 -117 130 -33 20 -110 38 -103 24 80 -169 103 -246 120 -402 8 -81
8 -109 -2 -127 -10 -19 -9 -49 9 -171 15 -107 18 -150 10 -155 -8 -5 -4 -37
15 -110 29 -117 77 -224 108 -240 32 -17 119 -6 368 49 290 63 507 101 625
108 l90 6 17 -30 c21 -39 59 -59 139 -71 103 -17 167 -14 206 10 32 20 34 24
31 67 -3 43 -6 48 -45 70 -24 13 -93 36 -155 52 -113 28 -114 28 -271 17
l-157 -10 -25 23 c-22 20 -25 32 -25 87 0 62 0 63 28 63 15 0 54 -5 87 -10
l60 -10 34 37 c136 153 251 408 251 556 0 40 -6 56 -31 88 -27 34 -36 39 -73
39 -58 0 -183 -33 -245 -64 -28 -14 -52 -26 -54 -26 -2 0 -7 38 -10 84 -6 85
-26 142 -52 152 -8 3 -40 -3 -72 -13 -66 -22 -80 -49 -45 -86 63 -68 77 -138
43 -205 -24 -47 -137 -155 -218 -210 -34 -23 -65 -42 -68 -42 -4 0 -4 28 0 63
29 264 144 488 380 735 l89 94 41 -7 c40 -5 43 -4 70 35 l28 41 -28 29 c-24
25 -37 30 -74 30 -25 0 -53 -5 -61 -9z m254 -689 c6 -11 -11 -166 -29 -247
-28 -127 -96 -236 -164 -265 -25 -10 -35 -8 -70 9 l-41 21 0 84 c0 219 74 353
217 392 57 15 80 17 87 6z"/>
</g>
</svg>
