<?xml version="1.0" standalone="no"?>
<!DOCTYPE svg PUBLIC "-//W3C//DTD SVG 20010904//EN"
 "http://www.w3.org/TR/2001/REC-SVG-20010904/DTD/svg10.dtd">
<svg version="1.0" xmlns="http://www.w3.org/2000/svg"
 width="360.000000pt" height="360.000000pt" viewBox="0 0 360.000000 360.000000"
 preserveAspectRatio="xMidYMid meet">
<metadata>
Created by potrace 1.15, written by Peter Selinger 2001-2017
</metadata>
<g transform="translate(0.000000,360.000000) scale(0.100000,-0.100000)"
fill="#000000" stroke="none">
<path d="M1991 2734 c-58 -13 -187 -48 -287 -79 l-183 -54 -57 19 c-69 24
-117 25 -134 5 -11 -13 -8 -21 21 -51 47 -49 121 -82 199 -89 61 -5 78 -1 288
68 218 72 223 73 283 64 58 -10 61 -9 89 18 17 16 30 32 30 37 0 5 -12 26 -26
48 -25 37 -30 40 -73 39 -25 0 -93 -11 -150 -25z"/>
<path d="M2032 2467 l-31 -32 20 -30 c40 -60 0 -145 -106 -220 -67 -48 -199
-115 -227 -115 -18 0 -22 13 -34 125 -14 137 -68 215 -149 215 -66 0 -74 -19
-35 -80 18 -27 41 -78 51 -112 21 -68 38 -248 23 -248 -5 1 -20 7 -34 15 -14
8 -33 14 -42 15 -48 1 -67 -91 -26 -130 29 -27 121 -61 181 -68 46 -4 47 -4
47 24 0 42 36 108 82 149 38 35 149 95 176 95 37 0 -11 -105 -72 -155 -25 -21
-46 -46 -46 -57 0 -119 -273 -331 -462 -358 -150 -22 -189 -53 -133 -104 59
-55 69 -54 230 14 80 34 149 60 152 57 3 -4 -83 -141 -191 -305 -108 -165
-196 -303 -196 -307 0 -4 10 -21 22 -38 l22 -31 63 70 c34 38 100 126 145 196
77 117 85 127 114 127 l32 1 4 -127 c3 -77 11 -144 20 -168 l15 -40 64 3 c85
5 193 27 293 61 87 30 253 108 262 123 3 5 -3 20 -15 32 -12 12 -21 33 -21 47
0 31 46 105 111 181 39 45 49 64 49 93 0 51 -15 74 -63 95 -80 34 -126 34
-229 0 -124 -42 -245 -99 -325 -155 -36 -25 -73 -45 -82 -43 -54 10 15 174
119 279 112 113 240 158 456 159 l101 0 43 46 42 46 -24 25 c-23 25 -25 25
-123 18 -93 -6 -210 -27 -312 -57 -23 -7 -45 -9 -48 -6 -8 8 57 167 96 234 59
104 150 183 213 184 10 0 27 -11 38 -26 25 -31 54 -28 81 7 36 50 -6 88 -107
98 l-59 6 -25 73 c-25 75 -68 132 -101 132 -9 0 -31 -15 -49 -33z m148 -1134
c0 -34 -14 -54 -131 -190 l-130 -153 -75 0 -74 0 0 33 c0 130 122 254 319 323
88 31 91 31 91 -13z"/>
<path d="M872 2102 c-17 -36 -15 -56 7 -76 31 -28 60 -109 78 -216 14 -84 14
-104 3 -125 -10 -19 -10 -28 -1 -39 8 -10 9 -15 1 -18 -13 -4 5 -768 20 -880
17 -118 66 -200 143 -239 51 -27 88 -24 342 29 341 70 616 102 888 102 110 0
120 -2 151 -25 42 -32 98 -55 134 -55 19 0 39 12 65 38 20 21 37 43 37 49 0
21 -52 74 -92 94 -39 20 -53 20 -402 16 -400 -5 -456 -11 -836 -87 -193 -39
-195 -40 -230 -21 -52 27 -81 85 -87 181 -4 48 -2 85 5 92 6 8 7 31 2 63 -13
74 -12 661 1 790 9 95 8 117 -5 148 -24 58 -64 105 -130 151 -83 58 -80 57
-94 28z"/>
</g>
</svg>
