<?xml version="1.0" standalone="no"?>
<!DOCTYPE svg PUBLIC "-//W3C//DTD SVG 20010904//EN"
 "http://www.w3.org/TR/2001/REC-SVG-20010904/DTD/svg10.dtd">
<svg version="1.0" xmlns="http://www.w3.org/2000/svg"
 width="360.000000pt" height="360.000000pt" viewBox="0 0 360.000000 360.000000"
 preserveAspectRatio="xMidYMid meet">
<metadata>
Created by potrace 1.15, written by Peter Selinger 2001-2017
</metadata>
<g transform="translate(0.000000,360.000000) scale(0.100000,-0.100000)"
fill="#000000" stroke="none">
<path d="M1877 2643 c-20 -22 -22 -44 -6 -60 22 -22 -133 -101 -368 -188 -100
-37 -124 -57 -87 -72 38 -14 304 41 378 79 22 11 81 31 131 44 128 34 195 63
195 83 0 21 -64 83 -107 105 -18 9 -52 19 -75 22 -35 5 -46 2 -61 -13z"/>
<path d="M1738 2179 c-16 -11 -28 -24 -28 -28 0 -5 23 -38 51 -75 45 -59 49
-69 35 -79 -9 -7 -20 -32 -24 -56 l-7 -44 -170 -57 c-178 -60 -357 -131 -447
-176 -30 -16 -89 -33 -136 -41 -99 -16 -152 -36 -152 -58 0 -9 15 -36 32 -60
32 -43 34 -44 90 -45 50 0 76 9 235 84 298 140 539 239 546 225 1 -2 8 -14 15
-26 9 -17 12 -142 12 -524 l0 -502 -25 -33 c-21 -27 -25 -44 -25 -99 0 -110
33 -160 103 -153 l32 3 22 520 c12 286 22 595 22 686 1 150 3 168 20 183 37
33 111 48 273 53 182 6 300 -7 371 -43 63 -31 74 -30 120 10 l37 34 -55 50
c-70 64 -144 99 -237 113 -70 10 -82 9 -273 -35 -173 -39 -202 -43 -214 -31
-13 12 -13 18 -1 40 18 34 3 66 -52 106 -37 26 -131 80 -140 79 -2 0 -15 -10
-30 -21z"/>
</g>
</svg>
