<?xml version="1.0" standalone="no"?>
<!DOCTYPE svg PUBLIC "-//W3C//DTD SVG 20010904//EN"
 "http://www.w3.org/TR/2001/REC-SVG-20010904/DTD/svg10.dtd">
<svg version="1.0" xmlns="http://www.w3.org/2000/svg"
 width="360.000000pt" height="360.000000pt" viewBox="0 0 360.000000 360.000000"
 preserveAspectRatio="xMidYMid meet">
<metadata>
Created by potrace 1.15, written by Peter Selinger 2001-2017
</metadata>
<g transform="translate(0.000000,360.000000) scale(0.100000,-0.100000)"
fill="#000000" stroke="none">
<path d="M1380 2968 c-28 -46 -26 -58 21 -98 l40 -35 -14 -179 c-14 -164 -18
-183 -47 -242 -37 -75 -98 -130 -198 -177 -60 -28 -66 -29 -119 -18 -82 16
-83 16 -83 -28 0 -47 17 -66 70 -82 37 -11 45 -9 159 40 127 54 141 58 141 39
-1 -42 -41 -181 -59 -207 -52 -73 -232 -201 -466 -331 l-129 -72 -34 16 c-32
16 -34 16 -52 -6 -11 -13 -19 -30 -20 -39 0 -25 63 -79 93 -79 18 0 136 67
341 195 173 107 319 195 324 195 8 0 22 -89 22 -141 0 -12 -22 -31 -62 -54
-75 -44 -183 -124 -255 -189 -46 -42 -53 -53 -53 -86 0 -79 89 -149 208 -165
29 -4 52 -12 52 -19 0 -6 -22 -38 -49 -71 -38 -48 -60 -65 -106 -83 -83 -33
-162 -89 -193 -134 -29 -45 -36 -124 -13 -151 30 -38 67 -22 275 117 341 226
534 337 677 385 l75 26 -24 63 c-13 34 -27 62 -30 62 -4 0 -101 -52 -216 -115
-116 -63 -211 -115 -213 -115 -20 0 23 74 157 270 171 251 183 277 140 320
-24 24 -85 26 -180 5 -106 -23 -100 -28 -100 78 l0 94 133 62 c72 34 139 61
148 61 34 0 174 41 191 57 27 24 22 56 -12 81 -16 12 -35 22 -42 22 -7 0 -102
-34 -211 -76 -109 -42 -201 -74 -203 -71 -3 3 -1 48 5 101 6 52 11 100 11 106
0 5 4 10 9 10 20 0 240 103 260 121 23 21 21 30 -17 78 -18 22 -21 23 -76 11
-45 -9 -62 -9 -86 2 -29 12 -30 16 -29 73 0 33 4 112 8 175 10 126 4 148 -47
203 -19 20 -35 27 -64 27 -32 0 -41 -5 -58 -32z m224 -1316 c11 -19 -130 -222
-155 -222 -5 0 -9 26 -9 57 0 73 29 135 73 157 34 17 83 21 91 8z m-254 -125
c0 -26 -49 -158 -70 -187 -20 -28 -26 -30 -85 -30 -62 0 -63 1 -74 32 -6 17
-9 34 -5 37 3 3 49 40 102 83 93 74 132 93 132 65z"/>
<path d="M2053 2898 c-36 -40 -35 -54 5 -85 78 -59 123 -123 140 -201 6 -24 4
-119 -3 -249 -11 -169 -11 -239 0 -364 9 -113 9 -156 1 -161 -49 -30 -52 -35
-34 -65 37 -63 80 -290 57 -304 -8 -5 -8 -25 0 -74 7 -47 7 -102 -1 -184 -6
-71 -8 -187 -3 -301 9 -241 9 -235 0 -375 l-7 -120 30 -29 c30 -28 31 -28 56
-10 30 22 30 26 11 90 -14 45 -13 77 12 381 23 287 25 350 17 460 -7 85 -7
139 -1 161 7 22 7 52 -1 96 -7 35 -12 84 -12 110 0 44 2 48 34 61 31 13 47 12
148 -6 189 -34 258 -60 258 -99 0 -15 -7 -20 -28 -20 -40 0 -65 -21 -60 -51 4
-31 64 -61 178 -88 135 -32 160 -18 160 94 0 79 -2 83 -82 148 -55 45 -170 99
-263 122 -38 9 -131 20 -205 24 l-135 6 -6 185 c-3 102 -11 201 -17 220 -10
30 -6 64 27 235 44 224 44 220 -26 286 -62 59 -171 129 -202 129 -16 0 -36 -9
-48 -22z"/>
</g>
</svg>
