<?xml version="1.0" standalone="no"?>
<!DOCTYPE svg PUBLIC "-//W3C//DTD SVG 20010904//EN"
 "http://www.w3.org/TR/2001/REC-SVG-20010904/DTD/svg10.dtd">
<svg version="1.0" xmlns="http://www.w3.org/2000/svg"
 width="360.000000pt" height="360.000000pt" viewBox="0 0 360.000000 360.000000"
 preserveAspectRatio="xMidYMid meet">
<metadata>
Created by potrace 1.15, written by Peter Selinger 2001-2017
</metadata>
<g transform="translate(0.000000,360.000000) scale(0.100000,-0.100000)"
fill="#000000" stroke="none">
<path d="M1408 2872 c-31 -18 -33 -28 -18 -68 20 -51 -50 -146 -214 -293 l-59
-52 21 -21 c14 -14 27 -19 44 -15 54 14 188 114 296 222 93 93 112 117 112
142 0 37 -23 58 -89 84 -61 23 -59 23 -93 1z"/>
<path d="M2325 2577 c-159 -56 -250 -100 -266 -128 -8 -16 -13 -16 -81 2 -95
24 -103 24 -149 -8 -42 -30 -50 -53 -20 -53 29 0 79 -64 96 -123 30 -106 35
-200 35 -745 0 -528 -1 -557 -21 -635 -16 -64 -18 -86 -9 -105 7 -17 8 -34 1
-56 -13 -41 -31 -186 -31 -254 0 -39 6 -62 21 -84 l21 -29 29 27 c34 33 37 60
8 69 -12 4 -18 12 -15 21 47 123 104 366 127 549 14 109 16 337 4 590 -8 175
5 295 31 295 8 0 57 -34 110 -75 53 -41 101 -75 107 -75 60 0 153 136 238 347
48 119 119 334 119 360 0 33 -61 95 -129 132 -32 17 -63 31 -67 30 -5 0 -76
-24 -159 -52z m176 -98 c36 -25 37 -54 9 -163 -23 -92 -72 -207 -128 -301 -66
-113 -64 -111 -103 -95 -19 8 -73 52 -121 99 l-88 84 0 103 c0 94 2 105 24
131 31 37 101 75 229 123 118 45 138 48 178 19z"/>
<path d="M893 2481 c8 -74 47 -171 123 -305 l55 -99 -11 -86 c-15 -116 -36
-187 -61 -205 -20 -14 -21 -19 -11 -74 6 -33 20 -80 32 -104 21 -42 106 -138
122 -138 4 0 25 16 47 35 46 42 100 123 173 260 42 79 58 101 77 103 l24 4 -6
-94 c-8 -108 -43 -249 -92 -363 -41 -94 -43 -115 -14 -141 21 -19 21 -19 63
28 123 135 188 411 190 803 1 195 0 213 -20 245 -30 52 -78 80 -135 80 -27 0
-49 -1 -49 -3 0 -1 18 -65 40 -142 22 -77 40 -151 40 -165 0 -14 -17 -50 -37
-80 -40 -59 -288 -318 -297 -310 -2 3 -1 23 4 45 4 22 12 121 15 220 l7 181
-126 179 c-70 99 -134 182 -143 184 -14 3 -15 -5 -10 -58z"/>
</g>
</svg>
