<?xml version="1.0" standalone="no"?>
<!DOCTYPE svg PUBLIC "-//W3C//DTD SVG 20010904//EN"
 "http://www.w3.org/TR/2001/REC-SVG-20010904/DTD/svg10.dtd">
<svg version="1.0" xmlns="http://www.w3.org/2000/svg"
 width="360.000000pt" height="360.000000pt" viewBox="0 0 360.000000 360.000000"
 preserveAspectRatio="xMidYMid meet">
<metadata>
Created by potrace 1.15, written by Peter Selinger 2001-2017
</metadata>
<g transform="translate(0.000000,360.000000) scale(0.100000,-0.100000)"
fill="#000000" stroke="none">
<path d="M1855 2524 c-196 -111 -419 -221 -463 -230 -17 -4 -45 -2 -62 4 -26
10 -30 9 -30 -8 0 -22 51 -67 86 -76 19 -5 71 15 208 80 176 82 206 94 206 79
0 -12 -347 -688 -454 -883 -59 -107 -157 -281 -218 -386 -110 -188 -112 -191
-154 -202 -87 -23 -143 -108 -152 -232 l-4 -65 46 -33 c25 -18 50 -31 55 -27
5 3 61 105 124 228 153 298 257 474 326 550 27 30 41 34 41 13 0 -8 5 -18 10
-21 6 -4 82 17 170 46 87 29 162 50 166 46 12 -12 -26 -129 -67 -207 -44 -81
-158 -239 -173 -240 -6 0 -22 12 -38 27 -27 26 -28 26 -48 8 -48 -44 7 -185
73 -185 27 0 122 94 190 187 63 87 131 230 165 350 33 112 52 146 115 197 74
60 168 106 370 180 37 14 47 22 47 41 0 17 -7 25 -27 30 -56 13 -214 95 -272
139 -33 26 -73 62 -90 82 -55 68 -78 31 -111 -181 -30 -192 -36 -210 -77 -251
-84 -84 -383 -183 -383 -128 0 20 241 495 324 639 100 172 187 297 268 381
l77 81 -32 31 c-18 18 -35 32 -37 32 -3 -1 -81 -44 -175 -96z m225 -684 c56
-36 94 -74 88 -90 -6 -19 -137 -70 -178 -70 l-38 0 31 95 c17 52 36 95 41 95
5 0 30 -13 56 -30z"/>
<path d="M2460 2299 c0 -6 20 -36 44 -67 32 -42 48 -75 60 -127 33 -134 63
-168 103 -118 16 20 23 41 23 74 0 103 -51 197 -124 230 -45 20 -106 25 -106
8z"/>
<path d="M2112 1291 c2 -5 66 -51 143 -103 228 -153 289 -202 304 -245 33 -95
121 -262 141 -268 18 -6 80 10 80 21 0 2 -38 82 -85 179 -80 164 -90 181 -163
254 -84 85 -178 139 -280 160 -64 13 -145 14 -140 2z"/>
</g>
</svg>
