<?xml version="1.0" standalone="no"?>
<!DOCTYPE svg PUBLIC "-//W3C//DTD SVG 20010904//EN"
 "http://www.w3.org/TR/2001/REC-SVG-20010904/DTD/svg10.dtd">
<svg version="1.0" xmlns="http://www.w3.org/2000/svg"
 width="360.000000pt" height="360.000000pt" viewBox="0 0 360.000000 360.000000"
 preserveAspectRatio="xMidYMid meet">
<metadata>
Created by potrace 1.15, written by Peter Selinger 2001-2017
</metadata>
<g transform="translate(0.000000,360.000000) scale(0.100000,-0.100000)"
fill="#000000" stroke="none">
<path d="M1779 2370 c-149 -43 -361 -151 -644 -330 -53 -33 -99 -60 -103 -60
-3 0 -21 14 -39 32 -32 31 -33 31 -53 13 -28 -26 -25 -46 13 -83 29 -28 40
-32 87 -32 49 0 61 5 139 59 131 89 336 210 430 253 84 39 216 76 228 64 4 -4
-30 -116 -75 -249 -45 -133 -82 -249 -82 -258 0 -10 24 -26 65 -44 65 -27 131
-86 122 -109 -3 -6 -31 -72 -63 -148 l-57 -136 -201 70 c-111 39 -209 72 -218
75 -35 10 -19 55 70 192 111 170 168 267 183 308 10 30 8 35 -28 77 -61 72
-70 66 -127 -80 -81 -206 -251 -497 -488 -837 -98 -138 -113 -157 -132 -150
-80 28 -122 -5 -136 -107 -8 -59 -7 -67 12 -87 33 -35 86 -31 125 10 46 48
138 177 295 410 l140 210 48 -6 c71 -9 161 -49 272 -123 l100 -66 -63 -65
c-85 -86 -222 -177 -305 -203 -37 -11 -94 -20 -130 -20 l-64 0 0 -45 0 -45 38
0 c20 1 85 7 143 14 l105 13 201 117 c110 64 206 116 213 116 24 0 105 -58
175 -126 172 -166 398 -270 675 -309 61 -8 140 -15 175 -15 54 0 68 4 90 24
15 14 24 29 21 35 -13 20 -155 71 -201 71 -151 0 -433 105 -652 242 -91 56
-223 148 -223 155 0 3 27 89 60 190 56 175 60 192 60 282 0 71 -4 102 -16 119
-18 26 -65 52 -94 52 -11 0 -23 7 -26 15 -10 25 22 133 82 281 31 76 61 151
67 166 10 26 8 31 -23 58 -42 35 -92 38 -191 10z"/>
</g>
</svg>
