<?xml version="1.0" standalone="no"?>
<!DOCTYPE svg PUBLIC "-//W3C//DTD SVG 20010904//EN"
 "http://www.w3.org/TR/2001/REC-SVG-20010904/DTD/svg10.dtd">
<svg version="1.0" xmlns="http://www.w3.org/2000/svg"
 width="360.000000pt" height="360.000000pt" viewBox="0 0 360.000000 360.000000"
 preserveAspectRatio="xMidYMid meet">
<metadata>
Created by potrace 1.15, written by Peter Selinger 2001-2017
</metadata>
<g transform="translate(0.000000,360.000000) scale(0.100000,-0.100000)"
fill="#000000" stroke="none">
<path d="M1850 2540 c0 -7 9 -28 21 -46 l21 -34 -21 -29 c-12 -16 -74 -80
-139 -141 -93 -88 -121 -110 -137 -105 -33 11 -259 17 -273 7 -10 -6 -3 -36
28 -134 22 -69 40 -135 40 -147 0 -48 -113 -412 -181 -584 -46 -115 -118 -260
-167 -337 -58 -91 -151 -176 -216 -196 -53 -17 -55 -19 -39 -36 36 -40 131 -8
219 74 90 85 158 180 277 389 l26 45 231 -32 c128 -18 234 -34 236 -36 8 -9
-171 -180 -228 -218 -102 -68 -218 -89 -268 -50 -32 25 -43 25 -66 -1 -19 -21
-19 -21 21 -55 51 -45 75 -50 159 -35 133 22 268 95 416 225 44 38 84 66 97
66 42 0 210 -60 315 -113 183 -93 263 -152 413 -306 76 -77 144 -141 151 -141
7 0 22 15 33 34 25 40 27 105 5 152 -40 84 -264 226 -624 395 -101 48 -186 92
-188 97 -2 6 22 128 52 272 31 143 56 269 56 280 0 21 -107 120 -130 120 -34
-1 -153 -51 -231 -98 -46 -28 -126 -82 -178 -121 -123 -93 -131 -92 -131 2 0
56 5 78 20 97 16 21 20 41 20 117 0 81 2 92 19 98 98 31 561 383 561 427 0 34
-20 59 -64 79 -56 24 -156 37 -156 19z m120 -797 c-1 -172 -41 -369 -90 -432
l-18 -25 -133 11 c-94 7 -138 7 -150 0 -13 -8 -32 -7 -69 1 -28 7 -79 12 -112
12 -58 0 -60 1 -53 23 4 12 11 48 16 80 5 32 16 71 24 88 18 34 69 69 102 69
13 0 91 41 174 91 161 97 263 149 292 149 14 0 17 -10 17 -67z"/>
</g>
</svg>
