<?xml version="1.0" standalone="no"?>
<!DOCTYPE svg PUBLIC "-//W3C//DTD SVG 20010904//EN"
 "http://www.w3.org/TR/2001/REC-SVG-20010904/DTD/svg10.dtd">
<svg version="1.0" xmlns="http://www.w3.org/2000/svg"
 width="360.000000pt" height="360.000000pt" viewBox="0 0 360.000000 360.000000"
 preserveAspectRatio="xMidYMid meet">
<metadata>
Created by potrace 1.15, written by Peter Selinger 2001-2017
</metadata>
<g transform="translate(0.000000,360.000000) scale(0.100000,-0.100000)"
fill="#000000" stroke="none">
<path d="M2475 2284 c-157 -34 -416 -132 -690 -263 -126 -60 -144 -66 -180
-59 -82 15 -104 10 -157 -32 -75 -60 -83 -51 -32 38 34 60 44 87 44 123 0 66
-23 84 -109 84 -59 0 -78 -5 -154 -43 -88 -44 -161 -95 -235 -166 -35 -33 -46
-39 -60 -30 -9 6 -18 17 -19 25 -9 69 -17 92 -41 114 -37 34 -81 33 -116 -4
l-27 -28 25 -21 c23 -18 30 -39 61 -203 38 -203 75 -349 105 -416 18 -40 21
-43 59 -43 22 0 42 4 45 8 3 5 0 63 -6 130 -8 88 -8 143 0 207 9 66 9 91 -1
105 -10 17 -6 25 26 58 43 44 169 119 216 128 30 6 31 6 31 -31 0 -26 -17 -72
-51 -140 -35 -72 -52 -119 -56 -159 -5 -53 -4 -59 22 -86 16 -17 32 -30 36
-30 4 0 70 54 147 120 l140 120 73 10 c125 17 266 70 390 146 69 42 96 40 139
-6 54 -58 62 -121 57 -455 -4 -267 -6 -309 -26 -385 -29 -112 -96 -249 -166
-338 -53 -68 -64 -102 -34 -102 6 0 38 14 71 32 207 110 322 421 289 782 -29
309 -70 515 -111 556 -19 19 -19 20 43 62 78 53 168 86 258 94 64 6 72 5 94
-16 22 -20 30 -22 85 -16 76 9 208 42 226 57 21 17 17 43 -9 67 -22 21 -32 22
-178 21 -94 0 -181 -6 -224 -15z"/>
</g>
</svg>
