<?xml version="1.0" standalone="no"?>
<!DOCTYPE svg PUBLIC "-//W3C//DTD SVG 20010904//EN"
 "http://www.w3.org/TR/2001/REC-SVG-20010904/DTD/svg10.dtd">
<svg version="1.0" xmlns="http://www.w3.org/2000/svg"
 width="360.000000pt" height="360.000000pt" viewBox="0 0 360.000000 360.000000"
 preserveAspectRatio="xMidYMid meet">
<metadata>
Created by potrace 1.15, written by Peter Selinger 2001-2017
</metadata>
<g transform="translate(0.000000,360.000000) scale(0.100000,-0.100000)"
fill="#000000" stroke="none">
<path d="M2011 2589 c-26 -33 -41 -62 -41 -80 0 -36 10 -41 49 -28 28 10 35 9
57 -12 l24 -22 0 -243 0 -243 -72 -57 c-40 -31 -107 -73 -148 -93 -69 -33 -84
-36 -182 -39 l-108 -4 0 25 c0 14 5 29 10 32 6 3 10 28 10 54 0 37 -7 56 -31
89 -35 47 -40 49 -142 26 -135 -30 -327 -141 -426 -248 -14 -14 -30 -26 -36
-26 -7 0 -18 27 -24 60 -9 44 -19 65 -38 80 -40 32 -46 15 -34 -97 14 -127 50
-253 108 -375 50 -106 60 -113 105 -75 l28 22 -22 78 c-18 67 -19 81 -8 102
10 20 11 28 2 37 -7 7 -12 25 -12 40 0 68 81 163 182 214 74 38 182 74 186 63
14 -37 -64 -154 -189 -283 -86 -90 -93 -109 -58 -157 25 -35 56 -37 137 -9 66
23 145 70 252 149 67 50 80 55 125 56 42 0 75 12 198 73 81 40 152 70 158 66
26 -16 28 -66 17 -384 -8 -224 -8 -340 -1 -363 7 -23 6 -38 -1 -50 -8 -12 -8
-22 1 -36 9 -15 10 -41 3 -103 -11 -93 -13 -308 -4 -332 27 -70 68 71 104 352
22 167 25 243 11 257 -6 6 -6 40 -1 85 5 41 9 207 10 368 l0 292 23 10 c65 28
231 60 311 60 85 0 86 0 126 37 47 41 49 66 9 95 -26 20 -26 20 -230 -21 -112
-23 -212 -41 -221 -41 -17 0 -18 20 -18 284 0 275 -1 284 -22 311 -24 30 -74
55 -112 55 -17 0 -36 -15 -65 -51z"/>
</g>
</svg>
