<?xml version="1.0" standalone="no"?>
<!DOCTYPE svg PUBLIC "-//W3C//DTD SVG 20010904//EN"
 "http://www.w3.org/TR/2001/REC-SVG-20010904/DTD/svg10.dtd">
<svg version="1.0" xmlns="http://www.w3.org/2000/svg"
 width="360.000000pt" height="360.000000pt" viewBox="0 0 360.000000 360.000000"
 preserveAspectRatio="xMidYMid meet">
<metadata>
Created by potrace 1.15, written by Peter Selinger 2001-2017
</metadata>
<g transform="translate(0.000000,360.000000) scale(0.100000,-0.100000)"
fill="#000000" stroke="none">
<path d="M2010 2147 c-46 -98 -238 -212 -391 -233 l-46 -6 -7 82 c-7 83 -24
141 -46 155 -6 4 -22 -3 -36 -16 -32 -30 -32 -104 1 -251 23 -100 24 -119 15
-202 -14 -118 -42 -223 -98 -368 -46 -118 -61 -135 -90 -106 -17 17 -48 -14
-83 -85 l-29 -57 29 -58 c39 -76 60 -94 107 -90 36 3 38 5 66 73 83 201 171
514 198 698 12 81 16 91 46 113 40 31 226 114 254 114 24 0 24 13 0 -195 -13
-110 -20 -235 -20 -355 l0 -185 31 -53 c89 -157 254 -232 551 -253 l146 -10
144 47 c218 71 328 131 328 180 0 8 -11 31 -24 52 -23 35 -24 48 -29 232 -3
107 -8 203 -12 213 -8 19 -45 24 -45 5 0 -7 -9 -107 -20 -223 -11 -115 -20
-217 -20 -226 0 -12 -22 -25 -72 -43 -124 -44 -194 -56 -339 -56 -279 0 -455
59 -516 174 -26 47 -31 330 -9 450 29 151 79 272 152 363 19 23 34 50 34 60 0
10 -19 38 -43 61 -32 32 -51 42 -75 42 -28 0 -34 -5 -52 -43z"/>
<path d="M830 1771 l-155 -100 -37 38 c-54 54 -102 78 -122 62 -9 -8 -16 -21
-16 -30 1 -25 39 -103 64 -131 28 -30 34 -61 46 -262 13 -226 28 -268 94 -268
49 0 57 16 46 86 -6 32 -10 128 -10 213 l0 153 64 63 c58 57 168 125 203 125
23 0 14 -55 -22 -126 -30 -61 -64 -109 -168 -238 l-29 -35 29 -40 c24 -34 34
-41 64 -41 31 0 40 6 68 45 18 25 37 45 43 45 18 0 248 100 289 126 51 32 57
49 28 81 -22 23 -28 25 -89 19 -36 -3 -75 -8 -87 -12 -36 -10 -28 14 32 98 62
86 69 121 31 157 -23 21 -158 71 -194 71 -9 0 -87 -45 -172 -99z"/>
</g>
</svg>
