<?xml version="1.0" standalone="no"?>
<!DOCTYPE svg PUBLIC "-//W3C//DTD SVG 20010904//EN"
 "http://www.w3.org/TR/2001/REC-SVG-20010904/DTD/svg10.dtd">
<svg version="1.0" xmlns="http://www.w3.org/2000/svg"
 width="360.000000pt" height="360.000000pt" viewBox="0 0 360.000000 360.000000"
 preserveAspectRatio="xMidYMid meet">
<metadata>
Created by potrace 1.15, written by Peter Selinger 2001-2017
</metadata>
<g transform="translate(0.000000,360.000000) scale(0.100000,-0.100000)"
fill="#000000" stroke="none">
<path d="M2040 2259 c-47 -53 -51 -62 -48 -101 3 -42 4 -43 45 -49 73 -9 73
-9 73 -211 0 -201 -5 -224 -64 -276 -46 -40 -92 -63 -184 -93 -60 -19 -79 -21
-111 -13 -35 10 -43 8 -66 -10 l-26 -21 40 -39 40 -39 149 41 c82 23 152 42
156 42 3 0 6 -45 6 -100 0 -128 -17 -167 -112 -255 -87 -81 -269 -173 -470
-240 -141 -46 -176 -53 -195 -34 -7 7 -19 6 -41 -3 l-31 -13 21 -48 c28 -63
50 -68 148 -32 352 130 631 211 821 239 138 21 312 21 342 1 43 -28 330 -126
360 -123 19 2 38 13 50 30 l20 27 -28 41 c-36 52 -104 113 -152 135 -34 16
-63 17 -318 11 -154 -3 -302 -9 -329 -13 -57 -7 -56 -26 -7 150 16 59 37 154
46 210 l17 102 92 48 c95 49 189 115 190 131 1 18 -58 45 -149 69 l-89 24 -18
124 c-30 213 -67 331 -107 342 -16 4 -32 -8 -71 -54z"/>
<path d="M1180 1671 c-77 -25 -141 -59 -262 -140 l-105 -70 -10 -96 c-7 -63
-16 -102 -26 -112 -17 -18 -12 -32 -66 172 -24 88 -30 100 -51 103 l-23 4 6
-104 c7 -113 21 -178 67 -296 45 -118 42 -115 129 -101 57 10 78 10 92 1 17
-11 56 10 294 149 152 89 275 168 275 176 0 26 -34 27 -140 5 -58 -12 -108
-22 -112 -22 -15 0 -8 21 23 63 40 54 57 96 65 158 6 43 3 54 -21 89 -32 46
-49 49 -135 21z m35 -131 c8 -13 -33 -91 -96 -180 -59 -83 -215 -250 -234
-250 -17 0 -22 26 -30 135 l-6 90 50 62 c53 65 122 119 181 139 42 16 126 18
135 4z"/>
</g>
</svg>
