<?xml version="1.0" standalone="no"?>
<!DOCTYPE svg PUBLIC "-//W3C//DTD SVG 20010904//EN"
 "http://www.w3.org/TR/2001/REC-SVG-20010904/DTD/svg10.dtd">
<svg version="1.0" xmlns="http://www.w3.org/2000/svg"
 width="360.000000pt" height="360.000000pt" viewBox="0 0 360.000000 360.000000"
 preserveAspectRatio="xMidYMid meet">
<metadata>
Created by potrace 1.15, written by Peter Selinger 2001-2017
</metadata>
<g transform="translate(0.000000,360.000000) scale(0.100000,-0.100000)"
fill="#000000" stroke="none">
<path d="M1310 2646 c0 -43 2 -47 53 -84 37 -28 66 -41 100 -46 57 -7 133 -38
163 -67 16 -15 32 -19 65 -17 43 3 44 4 47 39 4 49 -29 86 -111 126 -62 31
-203 75 -279 89 l-38 6 0 -46z"/>
<path d="M2080 2333 c-182 -32 -404 -126 -665 -280 -239 -143 -456 -240 -598
-270 -84 -17 -85 -17 -70 -39 34 -52 139 -69 239 -39 27 8 84 32 126 53 75 38
78 39 94 21 23 -25 99 -62 215 -103 106 -39 105 -36 61 -124 -73 -149 -315
-381 -692 -667 -85 -64 -157 -122 -159 -127 -6 -17 56 -1 128 32 66 31 216
126 333 211 37 27 76 49 86 49 10 0 36 -19 59 -42 41 -43 41 -44 89 -261 l49
-219 70 7 c92 9 209 31 234 44 24 13 339 14 393 2 33 -8 39 -6 54 16 35 54 -5
118 -103 166 -24 12 -43 24 -43 28 0 4 16 27 36 51 103 123 173 258 182 350 2
32 6 58 7 58 1 0 35 -12 76 -26 190 -65 480 -124 612 -124 47 0 53 3 64 27 7
15 11 28 9 31 -3 2 -152 48 -333 101 l-328 97 -317 163 c-175 91 -318 167
-318 170 0 4 22 81 49 171 l49 165 -26 47 c-15 26 -24 49 -22 51 3 2 60 18
126 35 100 26 141 32 227 32 105 0 106 0 126 29 25 35 26 54 4 92 -15 25 -23
29 -58 28 -22 -1 -51 -4 -65 -6z m-450 -324 c0 -30 -75 -254 -90 -272 -4 -5
-55 5 -113 22 -58 17 -126 31 -152 31 l-46 0 3 37 3 37 185 88 c101 48 190 88
197 88 8 0 13 -13 13 -31z m107 -449 c97 -50 382 -254 371 -265 -2 -2 -21 0
-43 5 -134 31 -313 -32 -557 -196 l-113 -76 -44 23 c-24 13 -52 37 -62 53
l-18 30 72 78 c161 177 259 306 273 362 9 36 28 33 121 -14z m293 -385 c31
-38 -15 -150 -109 -266 -83 -103 -128 -144 -184 -164 -60 -23 -127 -70 -127
-90 0 -11 -7 -14 -23 -10 -12 4 -35 1 -50 -4 -37 -14 -61 11 -83 85 -13 46
-14 61 -4 80 11 19 11 26 0 39 -8 10 -9 15 -1 15 6 0 11 8 11 19 0 37 193 187
323 251 106 52 223 73 247 45z"/>
</g>
</svg>
