<?xml version="1.0" standalone="no"?>
<!DOCTYPE svg PUBLIC "-//W3C//DTD SVG 20010904//EN"
 "http://www.w3.org/TR/2001/REC-SVG-20010904/DTD/svg10.dtd">
<svg version="1.0" xmlns="http://www.w3.org/2000/svg"
 width="360.000000pt" height="360.000000pt" viewBox="0 0 360.000000 360.000000"
 preserveAspectRatio="xMidYMid meet">
<metadata>
Created by potrace 1.15, written by Peter Selinger 2001-2017
</metadata>
<g transform="translate(0.000000,360.000000) scale(0.100000,-0.100000)"
fill="#000000" stroke="none">
<path d="M1842 2557 c-28 -30 -28 -43 2 -81 l24 -32 -10 -174 c-6 -103 -15
-179 -22 -186 -6 -6 -45 -23 -86 -39 -110 -41 -241 -109 -272 -140 -51 -51
-25 -77 30 -30 27 22 39 25 116 25 47 0 86 -3 86 -7 0 -3 -20 -39 -45 -79
-105 -169 -182 -370 -275 -724 -29 -113 -30 -140 -3 -140 32 0 132 63 230 146
57 47 106 83 110 81 5 -3 4 -51 -1 -107 -6 -64 -6 -123 0 -159 6 -39 6 -64 -1
-75 -16 -25 47 -137 107 -191 84 -75 130 -87 368 -92 180 -5 220 -3 325 16
244 44 422 101 511 162 l44 30 0 80 c0 75 -2 81 -29 107 l-30 27 -10 185 c-19
320 -20 330 -44 330 -19 0 -19 -4 -13 -67 3 -38 9 -186 13 -331 l6 -262 -23
-25 c-51 -54 -287 -115 -585 -151 -115 -13 -149 -14 -194 -4 -42 9 -58 9 -76
0 -20 -11 -34 -7 -109 29 -47 23 -104 59 -126 80 -47 44 -48 54 -29 266 8 93
8 137 0 171 -10 40 -9 49 10 83 18 33 27 39 65 45 127 17 239 132 319 327 l34
84 -26 27 c-33 34 -38 34 -85 1 -28 -19 -50 -49 -79 -107 -72 -142 -129 -206
-184 -206 -20 0 -25 4 -21 18 2 9 10 94 16 187 6 94 18 199 26 235 18 75 64
153 105 177 48 29 34 66 -29 79 -35 7 -34 -6 -11 149 21 140 7 222 -46 263
-35 28 -56 28 -83 -1z m-46 -794 c-4 -21 -11 -89 -16 -151 -21 -238 -82 -362
-209 -421 -88 -42 -89 -36 -15 179 100 296 171 430 226 430 18 0 20 -4 14 -37z"/>
<path d="M955 1698 c-103 -67 -190 -155 -206 -208 -9 -28 -18 -40 -31 -40 -11
0 -18 7 -18 20 0 36 -28 78 -77 115 -52 40 -84 51 -107 38 -13 -7 -5 -27 50
-123 63 -110 68 -123 110 -305 55 -234 52 -225 68 -203 8 11 15 68 19 155 8
186 36 283 108 374 40 50 169 118 169 88 0 -7 -36 -100 -80 -205 -67 -160 -80
-201 -80 -246 0 -44 4 -59 23 -76 13 -12 30 -22 38 -22 24 0 272 242 337 328
74 99 87 129 72 168 l-12 29 -51 -60 c-112 -130 -190 -205 -214 -205 -13 0
-23 4 -23 9 0 5 27 83 60 174 33 90 60 168 60 172 0 5 -10 24 -22 42 -20 29
-28 33 -68 33 -37 0 -59 -9 -125 -52z"/>
</g>
</svg>
