<?xml version="1.0" standalone="no"?>
<!DOCTYPE svg PUBLIC "-//W3C//DTD SVG 20010904//EN"
 "http://www.w3.org/TR/2001/REC-SVG-20010904/DTD/svg10.dtd">
<svg version="1.0" xmlns="http://www.w3.org/2000/svg"
 width="360.000000pt" height="360.000000pt" viewBox="0 0 360.000000 360.000000"
 preserveAspectRatio="xMidYMid meet">
<metadata>
Created by potrace 1.15, written by Peter Selinger 2001-2017
</metadata>
<g transform="translate(0.000000,360.000000) scale(0.100000,-0.100000)"
fill="#000000" stroke="none">
<path d="M1585 2318 c-48 -29 -110 -72 -136 -96 -42 -38 -51 -54 -80 -140 -73
-221 -152 -367 -240 -446 -28 -25 -55 -46 -60 -46 -12 0 -11 45 2 170 10 100
9 103 -12 126 -18 20 -33 24 -76 24 l-54 0 -124 -123 c-72 -72 -127 -135 -130
-150 -4 -15 -9 -27 -12 -27 -3 0 -40 32 -84 71 -77 70 -80 72 -99 54 -19 -17
-19 -19 -3 -44 35 -54 64 -124 87 -214 36 -141 38 -157 21 -157 -19 0 -19 -18
0 -96 21 -92 34 -114 64 -114 14 0 37 9 50 19 24 18 24 21 13 69 -21 94 10
288 65 396 42 83 163 189 188 164 3 -2 -27 -96 -66 -208 l-70 -204 29 -40 c47
-65 66 -61 157 36 154 163 307 368 320 428 29 134 92 283 147 346 44 50 128
84 128 52 0 -6 -36 -128 -81 -271 l-81 -260 20 -20 c13 -13 39 -22 71 -25 28
-2 51 -8 51 -12 0 -14 -202 -311 -265 -390 -33 -41 -101 -118 -151 -170 l-92
-95 20 -41 21 -41 73 23 73 22 48 -24 c27 -13 89 -58 140 -99 51 -41 101 -75
111 -75 31 0 54 35 79 122 46 161 69 410 62 688 -4 153 97 345 276 527 90 91
117 103 109 51 -3 -18 -18 -145 -33 -282 -21 -181 -26 -254 -19 -266 8 -12 8
-31 0 -63 -9 -35 -9 -65 -1 -122 9 -60 9 -89 -1 -130 -16 -68 -7 -164 21 -221
49 -101 232 -212 305 -184 20 8 41 8 76 0 40 -10 81 -8 254 15 228 29 311 50
371 94 43 31 73 83 73 126 0 15 -9 63 -21 107 -14 57 -17 84 -10 91 14 14 15
214 1 222 -6 4 -5 13 2 25 9 14 9 22 -2 35 -10 12 -10 19 -2 27 7 7 12 17 12
23 0 13 -59 59 -67 52 -2 -3 -20 -131 -38 -284 -28 -229 -37 -280 -52 -291
-29 -21 -138 -51 -281 -77 -146 -27 -193 -30 -208 -15 -8 8 -19 8 -38 0 -108
-41 -236 32 -272 155 -29 101 -9 459 55 975 l18 145 -31 33 c-17 18 -38 31
-47 30 -9 -2 -119 -127 -244 -278 l-228 -275 -40 2 c-22 1 -43 6 -47 10 -5 4
39 125 96 268 56 143 103 269 104 281 0 33 -41 64 -86 64 -31 0 -62 -13 -129
-52z m2 -1168 c-4 -135 -9 -188 -24 -232 l-19 -56 -99 60 c-55 33 -104 64
-108 68 -20 19 78 187 187 320 60 74 61 74 64 45 2 -17 2 -109 -1 -205z"/>
</g>
</svg>
