<?xml version="1.0" standalone="no"?>
<!DOCTYPE svg PUBLIC "-//W3C//DTD SVG 20010904//EN"
 "http://www.w3.org/TR/2001/REC-SVG-20010904/DTD/svg10.dtd">
<svg version="1.0" xmlns="http://www.w3.org/2000/svg"
 width="360.000000pt" height="360.000000pt" viewBox="0 0 360.000000 360.000000"
 preserveAspectRatio="xMidYMid meet">
<metadata>
Created by potrace 1.15, written by Peter Selinger 2001-2017
</metadata>
<g transform="translate(0.000000,360.000000) scale(0.100000,-0.100000)"
fill="#000000" stroke="none">
<path d="M1795 2554 c-40 -24 -252 -97 -320 -110 -42 -7 -51 -19 -34 -40 26
-31 298 7 467 65 49 17 94 31 101 31 6 0 11 -16 11 -36 0 -73 -135 -244 -263
-335 -84 -59 -207 -111 -250 -107 -31 3 -32 4 -40 66 -12 98 -42 166 -101 226
-60 62 -127 101 -144 84 -13 -13 17 -78 53 -118 16 -16 33 -61 50 -130 31
-124 82 -284 101 -322 8 -16 21 -28 29 -28 8 0 49 25 91 55 80 57 93 62 111
44 8 -8 58 16 185 87 l173 99 -9 56 -9 55 87 131 c77 115 87 135 84 168 -2 28
-11 44 -31 59 -25 19 -44 21 -165 23 -130 2 -139 1 -177 -23z"/>
<path d="M2002 1850 c-127 -29 -141 -34 -280 -114 -250 -143 -467 -245 -556
-261 l-36 -7 37 -29 c76 -57 156 -35 407 110 50 28 96 49 103 47 23 -9 36 -61
57 -218 l5 -38 -116 -80 c-64 -44 -126 -80 -137 -80 -12 0 -40 -9 -64 -20 -48
-22 -70 -60 -53 -96 13 -29 93 -67 196 -95 51 -13 85 -27 85 -35 0 -17 -117
-116 -200 -169 -36 -24 -103 -62 -150 -85 -80 -40 -87 -42 -130 -32 -41 10
-47 9 -68 -12 l-23 -23 36 -31 c47 -42 69 -41 223 8 249 78 492 128 723 151
l125 12 125 -42 c68 -22 131 -41 140 -41 24 0 71 54 63 73 -7 19 -74 70 -145
111 -43 24 -54 26 -167 26 -77 0 -123 -4 -128 -11 -4 -7 -9 -8 -13 -1 -5 9
-104 -4 -253 -32 -49 -9 -32 21 57 106 160 151 264 306 281 415 5 38 3 48 -17
69 -29 31 -77 31 -184 0 -63 -18 -86 -21 -112 -13 -24 8 -30 13 -22 23 7 8 3
47 -12 129 -12 66 -18 120 -13 124 5 5 61 22 125 40 87 23 137 31 201 31 82 0
85 1 116 33 32 33 33 34 15 56 -28 35 -88 35 -241 1z m13 -547 c-4 -21 -14
-51 -22 -68 -17 -32 -151 -175 -165 -175 -4 0 -8 41 -8 90 l0 90 40 38 c40 40
83 59 134 61 27 1 28 0 21 -36z m-317 -259 c-10 -10 -25 -10 -65 -2 -46 9 -53
14 -53 35 0 31 41 69 88 80 l37 9 3 -55 c2 -35 -2 -59 -10 -67z"/>
</g>
</svg>
