<?xml version="1.0" standalone="no"?>
<!DOCTYPE svg PUBLIC "-//W3C//DTD SVG 20010904//EN"
 "http://www.w3.org/TR/2001/REC-SVG-20010904/DTD/svg10.dtd">
<svg version="1.0" xmlns="http://www.w3.org/2000/svg"
 width="360.000000pt" height="360.000000pt" viewBox="0 0 360.000000 360.000000"
 preserveAspectRatio="xMidYMid meet">
<metadata>
Created by potrace 1.15, written by Peter Selinger 2001-2017
</metadata>
<g transform="translate(0.000000,360.000000) scale(0.100000,-0.100000)"
fill="#000000" stroke="none">
<path d="M2057 2622 c-24 -26 -22 -62 2 -62 32 0 78 -47 95 -97 30 -86 13
-346 -27 -412 -27 -44 -120 -103 -210 -134 -65 -22 -80 -23 -136 -14 -60 10
-63 9 -88 -16 -43 -42 -10 -78 91 -99 53 -12 62 -10 156 21 96 31 120 33 120
9 0 -6 -34 -103 -75 -215 -41 -112 -75 -212 -75 -222 0 -10 7 -24 16 -32 21
-17 110 27 229 115 80 60 94 66 130 64 35 -3 40 -6 43 -29 2 -20 -19 -54 -90
-145 -51 -65 -124 -152 -163 -191 l-70 -72 31 -17 c32 -17 32 -17 75 16 72 56
237 219 315 313 98 116 99 155 6 195 -77 33 -136 37 -229 13 -45 -12 -85 -21
-88 -21 -4 0 -4 15 0 33 3 17 11 62 15 99 25 184 141 267 398 284 91 6 99 5
132 -18 43 -29 66 -74 86 -169 21 -100 17 -939 -5 -981 -17 -33 -42 -44 -56
-26 -70 94 -178 229 -186 234 -20 12 -21 -5 -4 -58 18 -55 124 -266 189 -376
33 -55 39 -61 57 -52 47 26 89 136 124 326 26 141 34 308 15 319 -8 5 -8 11
-1 19 6 7 8 45 6 87 -2 40 -7 206 -11 367 l-7 292 -30 30 c-17 17 -74 51 -126
77 l-95 46 -179 -27 c-191 -30 -196 -29 -197 19 0 12 9 71 20 132 19 104 20
116 6 177 -21 88 -51 150 -92 186 -41 35 -92 40 -117 12z"/>
<path d="M1152 1879 c-29 -16 -55 -36 -58 -44 -4 -8 -30 -16 -69 -20 -36 -4
-72 -13 -82 -20 -17 -13 -17 -15 6 -39 30 -32 48 -32 172 -1 91 23 102 24 128
10 28 -14 29 -17 19 -52 -15 -58 -77 -184 -157 -323 l-72 -125 17 -34 c17 -30
21 -33 56 -28 82 11 218 90 356 207 41 34 81 60 90 58 18 -4 19 -18 12 -188
-2 -47 0 -163 5 -258 l8 -173 32 -25 c18 -13 41 -24 52 -24 43 0 44 17 22 216
l-22 189 23 251 c20 218 21 255 9 280 -18 37 -41 41 -84 14 -30 -18 -35 -27
-35 -59 0 -20 5 -42 12 -49 9 -9 9 -12 0 -12 -7 0 -12 -10 -12 -23 0 -18 -28
-39 -154 -115 -144 -86 -196 -108 -196 -81 0 6 16 37 35 69 55 91 118 255 110
290 -9 40 -59 106 -94 125 -43 22 -69 19 -129 -16z"/>
<path d="M722 1729 c-18 -28 -15 -48 13 -81 14 -16 25 -36 25 -44 0 -28 72
-309 106 -417 39 -121 72 -169 101 -151 12 8 18 23 17 45 -1 19 -5 104 -9 189
l-8 155 -42 85 c-53 105 -125 204 -163 224 -26 13 -29 13 -40 -5z"/>
</g>
</svg>
