<?xml version="1.0" standalone="no"?>
<!DOCTYPE svg PUBLIC "-//W3C//DTD SVG 20010904//EN"
 "http://www.w3.org/TR/2001/REC-SVG-20010904/DTD/svg10.dtd">
<svg version="1.0" xmlns="http://www.w3.org/2000/svg"
 width="360.000000pt" height="360.000000pt" viewBox="0 0 360.000000 360.000000"
 preserveAspectRatio="xMidYMid meet">
<metadata>
Created by potrace 1.15, written by Peter Selinger 2001-2017
</metadata>
<g transform="translate(0.000000,360.000000) scale(0.100000,-0.100000)"
fill="#000000" stroke="none">
<path d="M2101 2350 c-222 -78 -225 -79 -278 -68 -50 10 -56 9 -75 -10 l-21
-20 42 -50 43 -50 -25 -69 c-50 -137 -96 -383 -137 -729 -22 -185 -27 -403 -9
-421 8 -8 8 -13 0 -17 -7 -5 -11 -48 -11 -114 l1 -107 43 -32 c24 -18 48 -33
53 -33 6 0 57 22 114 50 122 58 290 115 395 136 89 16 281 18 374 3 36 -5 85
-19 109 -30 l45 -20 34 35 c62 61 26 105 -118 145 -58 16 -104 21 -204 21
l-129 0 -275 -81 c-151 -44 -278 -77 -282 -72 -4 4 -21 64 -38 132 l-30 124
21 183 c14 127 25 184 33 184 7 0 27 -32 45 -70 34 -74 94 -140 128 -140 24 0
169 151 260 273 l73 97 77 0 c50 -1 82 -6 95 -15 18 -14 18 -16 2 -57 -27 -71
-108 -168 -276 -331 -88 -85 -160 -160 -160 -166 0 -22 28 -10 113 47 132 88
242 178 317 260 70 76 140 192 140 233 0 35 -80 105 -141 124 -29 8 -68 15
-86 15 -40 0 -41 11 -13 120 26 99 25 105 -12 150 -37 44 -44 47 -69 24 -17
-15 -17 -18 -2 -50 16 -32 15 -36 -23 -136 l-39 -103 -72 -6 c-130 -12 -235
-60 -307 -140 l-36 -39 0 104 c0 91 5 120 36 223 19 65 55 159 79 209 44 91
44 91 92 103 127 32 361 141 382 178 10 18 -24 83 -42 82 -7 0 -113 -36 -236
-79z m36 -749 c-10 -38 -162 -261 -178 -261 -19 0 -51 34 -72 76 -14 28 -14
34 2 70 10 22 42 61 72 87 52 45 56 47 117 47 59 0 64 -2 59 -19z"/>
<path d="M1247 1909 c-94 -22 -217 -118 -217 -170 0 -42 15 -43 67 -3 56 43
95 61 143 66 l35 3 -4 -40 c-4 -52 -38 -142 -101 -265 -42 -83 -48 -103 -40
-125 20 -52 113 -22 290 92 70 45 90 63 90 81 0 27 -33 42 -96 42 -42 0 -44 1
-44 31 0 16 11 47 25 67 38 55 35 122 -7 184 -29 43 -37 48 -68 47 -19 -1 -52
-5 -73 -10z"/>
<path d="M777 1768 c9 -47 26 -77 71 -123 37 -39 39 -44 45 -125 9 -116 33
-269 53 -336 23 -81 61 -111 103 -85 12 8 13 20 3 74 -7 35 -12 114 -12 175 0
119 -13 169 -75 292 -38 76 -125 160 -164 160 -29 0 -30 -2 -24 -32z"/>
</g>
</svg>
