<?xml version="1.0" standalone="no"?>
<!DOCTYPE svg PUBLIC "-//W3C//DTD SVG 20010904//EN"
 "http://www.w3.org/TR/2001/REC-SVG-20010904/DTD/svg10.dtd">
<svg version="1.0" xmlns="http://www.w3.org/2000/svg"
 width="360.000000pt" height="360.000000pt" viewBox="0 0 360.000000 360.000000"
 preserveAspectRatio="xMidYMid meet">
<metadata>
Created by potrace 1.15, written by Peter Selinger 2001-2017
</metadata>
<g transform="translate(0.000000,360.000000) scale(0.100000,-0.100000)"
fill="#000000" stroke="none">
<path d="M1904 2785 c-33 -7 -88 -27 -122 -44 -57 -29 -65 -30 -108 -21 -42
10 -47 9 -64 -12 -11 -13 -19 -28 -20 -33 -1 -27 35 -56 85 -70 52 -15 57 -15
100 4 26 11 64 34 85 51 30 24 48 30 84 30 44 0 46 -1 46 -29 0 -32 -72 -148
-140 -224 -41 -46 -158 -146 -212 -181 -24 -16 -29 -16 -56 -2 -22 11 -42 41
-81 120 -58 120 -141 216 -186 216 -22 0 -25 -5 -25 -33 0 -26 17 -57 75 -136
71 -96 75 -104 75 -154 0 -83 20 -217 36 -249 12 -23 20 -29 37 -24 49 12 107
18 107 11 0 -4 -27 -48 -61 -98 -104 -156 -189 -345 -218 -489 -22 -104 27
-218 92 -218 18 0 30 14 56 67 63 128 204 323 233 323 58 0 -169 -558 -316
-779 -94 -142 -199 -230 -273 -231 -31 0 -30 -36 2 -73 44 -49 69 -39 176 70
113 116 186 207 262 324 60 91 141 250 159 312 10 35 14 37 42 32 17 -3 71
-10 119 -15 111 -13 163 -37 243 -113 116 -108 153 -171 224 -375 l64 -182 24
22 c23 22 23 27 17 113 -4 50 -16 117 -26 151 -38 124 -150 258 -294 352 l-72
48 65 109 c145 244 226 423 239 534 6 49 4 54 -28 87 -28 29 -40 34 -79 34
-166 0 -394 -126 -666 -367 -39 -35 -74 -63 -78 -63 -17 0 -2 58 33 128 89
178 254 385 424 532 94 82 109 112 61 130 -14 6 -39 10 -55 10 -16 0 -29 5
-29 12 0 6 42 77 94 157 52 80 98 153 101 162 9 23 -35 55 -98 74 -60 18 -72
18 -153 0z m364 -942 c-8 -54 -81 -236 -125 -312 -70 -118 -160 -192 -251
-207 l-40 -6 -12 70 c-30 163 38 371 145 444 54 36 94 46 199 47 l89 1 -5 -37z"/>
</g>
</svg>
