<?xml version="1.0" standalone="no"?>
<!DOCTYPE svg PUBLIC "-//W3C//DTD SVG 20010904//EN"
 "http://www.w3.org/TR/2001/REC-SVG-20010904/DTD/svg10.dtd">
<svg version="1.0" xmlns="http://www.w3.org/2000/svg"
 width="360.000000pt" height="360.000000pt" viewBox="0 0 360.000000 360.000000"
 preserveAspectRatio="xMidYMid meet">
<metadata>
Created by potrace 1.15, written by Peter Selinger 2001-2017
</metadata>
<g transform="translate(0.000000,360.000000) scale(0.100000,-0.100000)"
fill="#000000" stroke="none">
<path d="M2585 2680 c-203 -32 -656 -179 -1164 -379 -95 -37 -114 -41 -193
-41 -102 0 -101 1 -68 -94 l19 -57 -37 -92 c-21 -50 -43 -92 -49 -94 -6 -2
-13 20 -17 54 -11 89 -24 127 -51 153 -21 20 -31 22 -75 17 -62 -7 -149 -52
-217 -112 -28 -25 -55 -45 -60 -45 -5 0 -19 31 -31 69 -13 38 -32 80 -43 93
l-20 23 6 -85 c14 -200 73 -539 109 -625 13 -30 19 -35 49 -35 58 0 62 15 38
142 -34 183 -27 292 23 361 25 34 94 77 124 77 19 0 22 -6 22 -43 0 -23 -17
-106 -38 -185 l-39 -142 22 -20 c12 -11 35 -20 53 -20 26 0 41 12 103 83 39
45 89 109 111 142 40 62 78 167 78 215 0 58 113 127 380 234 63 25 120 46 127
46 8 0 -1 -20 -22 -48 -52 -73 -229 -442 -270 -565 -44 -130 -56 -235 -31
-260 20 -20 79 -23 93 -4 5 6 26 57 47 112 51 131 129 285 176 344 34 43 93
81 106 69 18 -18 -66 -180 -161 -310 -40 -55 -45 -68 -45 -114 0 -29 5 -56 10
-59 6 -4 119 71 252 166 133 95 252 174 265 177 13 3 25 -1 27 -9 11 -32 46
-689 46 -860 l0 -187 -33 -29 c-64 -56 -84 -59 -220 -34 -67 12 -132 25 -144
28 -19 4 -23 1 -23 -19 0 -32 20 -48 105 -83 104 -42 259 -121 274 -139 32
-39 77 -3 106 84 9 27 25 89 34 137 18 87 18 97 -15 773 -18 377 -33 728 -34
780 0 113 -11 158 -45 190 -14 13 -25 27 -25 31 0 14 253 99 296 99 7 0 48
-14 91 -31 72 -29 82 -30 126 -20 27 6 90 11 141 11 77 0 96 3 109 18 10 10
17 26 17 35 0 21 -44 54 -89 67 -51 15 -255 21 -326 10z m-522 -383 c-6 -73
18 -209 48 -271 10 -22 19 -46 19 -53 0 -32 -142 -153 -179 -153 -22 0 -3 68
40 149 31 57 38 81 34 103 -11 46 -30 58 -97 58 -59 0 -64 -2 -164 -71 -104
-70 -104 -70 -104 -42 0 74 87 185 193 248 46 26 195 95 208 95 4 0 4 -29 2
-63z m124 -53 c17 -67 17 -114 -2 -114 -18 0 -35 59 -35 123 0 63 19 58 37 -9z"/>
</g>
</svg>
