<?xml version="1.0" standalone="no"?>
<!DOCTYPE svg PUBLIC "-//W3C//DTD SVG 20010904//EN"
 "http://www.w3.org/TR/2001/REC-SVG-20010904/DTD/svg10.dtd">
<svg version="1.0" xmlns="http://www.w3.org/2000/svg"
 width="360.000000pt" height="360.000000pt" viewBox="0 0 360.000000 360.000000"
 preserveAspectRatio="xMidYMid meet">
<metadata>
Created by potrace 1.15, written by Peter Selinger 2001-2017
</metadata>
<g transform="translate(0.000000,360.000000) scale(0.100000,-0.100000)"
fill="#000000" stroke="none">
<path d="M2335 2855 c-44 -13 -150 -53 -235 -89 -191 -80 -315 -117 -401 -121
-37 -1 -72 -6 -78 -9 -21 -13 -13 -78 14 -106 22 -23 27 -44 45 -183 36 -275
67 -431 95 -474 8 -12 15 -27 15 -33 0 -6 -36 -59 -80 -117 l-80 -107 32 -34
c30 -30 37 -33 75 -29 52 5 155 54 288 135 55 33 103 58 107 56 5 -3 8 -42 8
-87 0 -45 5 -188 11 -317 9 -185 9 -248 -1 -298 -10 -50 -10 -65 0 -77 10 -12
10 -74 1 -307 l-12 -291 25 -26 c14 -14 29 -22 33 -18 14 15 61 391 50 405 -7
9 -7 16 1 24 9 9 12 155 12 547 l0 536 88 56 c61 40 108 62 156 73 109 27 256
76 256 86 0 15 -35 47 -71 65 -21 11 -43 15 -64 11 -20 -4 -36 -2 -40 4 -4 6
30 72 74 148 129 221 197 398 171 447 -17 31 -88 68 -190 99 -74 22 -218 58
-223 55 -1 0 -38 -11 -82 -24z m294 -127 c54 -33 71 -48 71 -65 0 -45 -88
-256 -158 -376 -77 -135 -189 -237 -260 -237 -21 0 -22 4 -22 88 l0 89 80 107
81 106 -26 35 c-26 34 -26 34 -65 20 -22 -8 -42 -10 -45 -5 -3 5 -1 62 6 127
14 153 13 153 160 153 l108 0 70 -42z m-511 -163 c38 -48 43 -60 40 -97 -3
-41 -6 -45 -73 -90 -71 -48 -260 -136 -271 -126 -5 6 -24 164 -24 210 0 22 9
34 43 55 34 22 219 102 237 103 3 0 25 -25 48 -55z m22 -298 c0 -18 -137 -215
-226 -326 -1 -1 -21 12 -43 30 -35 27 -41 38 -41 69 0 34 8 45 76 110 51 48
99 83 147 106 39 19 75 34 79 34 4 0 8 -11 8 -23z m0 -276 l0 -59 -67 -62
c-120 -109 -243 -179 -243 -139 0 33 265 319 295 319 12 0 15 -13 15 -59z"/>
<path d="M1268 2370 c-128 -16 -229 -99 -296 -242 -32 -68 -40 -78 -61 -76
-20 3 -29 17 -59 96 -31 82 -37 92 -60 92 -23 0 -24 -2 -19 -43 9 -63 90 -340
132 -447 37 -97 76 -160 99 -160 18 0 52 40 63 74 8 26 17 32 74 46 35 9 83
26 106 38 97 51 215 171 324 332 48 71 49 72 49 151 0 43 -3 79 -7 79 -5 0
-34 -44 -66 -99 -63 -106 -140 -201 -163 -201 -8 0 -14 4 -14 8 0 4 27 52 60
105 78 128 80 154 9 215 -53 45 -60 46 -171 32z m82 -117 c-1 -24 -96 -204
-155 -293 -51 -77 -151 -190 -167 -190 -6 0 -9 51 -6 138 3 117 7 143 25 178
27 50 77 96 146 130 105 54 157 66 157 37z"/>
</g>
</svg>
