<?xml version="1.0" standalone="no"?>
<!DOCTYPE svg PUBLIC "-//W3C//DTD SVG 20010904//EN"
 "http://www.w3.org/TR/2001/REC-SVG-20010904/DTD/svg10.dtd">
<svg version="1.0" xmlns="http://www.w3.org/2000/svg"
 width="360.000000pt" height="360.000000pt" viewBox="0 0 360.000000 360.000000"
 preserveAspectRatio="xMidYMid meet">
<metadata>
Created by potrace 1.15, written by Peter Selinger 2001-2017
</metadata>
<g transform="translate(0.000000,360.000000) scale(0.100000,-0.100000)"
fill="#000000" stroke="none">
<path d="M1972 2564 c-28 -19 -52 -65 -52 -99 0 -30 56 -115 76 -115 7 0 18 8
23 18 9 15 10 15 11 -5 0 -12 5 -25 10 -28 19 -11 11 -197 -11 -296 -15 -64
-19 -97 -12 -108 7 -11 6 -23 -4 -38 -10 -15 -18 -64 -22 -136 -6 -96 -11
-118 -30 -146 -49 -69 -169 -129 -331 -167 l-75 -17 -37 -78 c-40 -83 -81
-123 -122 -117 l-24 3 44 119 44 119 -19 31 c-23 37 -62 62 -113 71 -33 6 -49
0 -166 -69 -118 -69 -172 -90 -172 -68 0 14 -125 139 -160 161 -54 33 -70 28
-70 -19 0 -35 3 -40 23 -40 16 0 34 -14 56 -45 29 -40 34 -56 42 -143 26 -288
71 -460 125 -484 17 -8 31 -7 53 2 25 10 29 17 25 39 -10 60 -44 348 -44 377
0 31 3 33 113 79 171 72 157 69 157 36 0 -54 -41 -187 -87 -284 l-47 -98 37
-37 c28 -27 41 -34 51 -27 8 6 74 66 147 134 156 144 280 240 365 282 65 32
144 49 144 31 0 -13 -118 -748 -125 -779 -4 -19 3 -27 45 -48 56 -28 55 -30
64 50 8 66 61 176 121 249 57 69 171 162 284 230 67 40 83 46 96 36 8 -7 15
-16 15 -19 0 -4 -63 -99 -140 -212 -132 -192 -140 -207 -140 -252 0 -34 4 -49
15 -54 19 -7 226 22 310 43 81 21 105 38 105 73 0 26 -5 30 -62 46 -75 21
-117 41 -124 60 -4 10 137 216 227 331 12 15 -39 90 -77 115 -82 54 -217 -4
-518 -222 l-59 -42 6 119 c8 140 25 213 72 310 43 88 135 178 227 223 56 27
79 32 203 41 242 18 338 39 343 76 7 51 -125 97 -221 77 -43 -9 -52 -8 -68 8
-17 17 -50 28 -127 44 l-32 7 20 -53 c12 -29 17 -55 13 -59 -9 -8 -315 -111
-319 -107 -1 1 27 121 62 267 61 247 65 271 62 360 -3 79 -8 105 -30 150 -44
90 -138 135 -196 94z"/>
</g>
</svg>
