<?xml version="1.0" standalone="no"?>
<!DOCTYPE svg PUBLIC "-//W3C//DTD SVG 20010904//EN"
 "http://www.w3.org/TR/2001/REC-SVG-20010904/DTD/svg10.dtd">
<svg version="1.0" xmlns="http://www.w3.org/2000/svg"
 width="360.000000pt" height="360.000000pt" viewBox="0 0 360.000000 360.000000"
 preserveAspectRatio="xMidYMid meet">
<metadata>
Created by potrace 1.15, written by Peter Selinger 2001-2017
</metadata>
<g transform="translate(0.000000,360.000000) scale(0.100000,-0.100000)"
fill="#000000" stroke="none">
<path d="M1730 2385 l-24 -25 29 -30 29 -30 -12 -148 c-24 -308 -108 -498
-251 -571 -33 -17 -41 -27 -41 -49 -1 -44 -36 -108 -90 -167 -51 -53 -156
-133 -164 -124 -3 2 27 82 65 177 51 126 68 179 63 198 -9 37 -67 94 -95 94
-38 -1 -105 -35 -225 -116 -61 -40 -120 -74 -131 -74 -15 0 -23 11 -33 43 -16
54 -74 110 -136 131 -69 23 -74 22 -74 -23 0 -34 6 -45 39 -73 39 -33 40 -36
61 -158 56 -331 119 -550 158 -550 4 0 23 15 41 34 32 33 33 34 16 60 -26 39
-14 57 28 44 19 -6 51 -8 71 -4 62 12 178 100 299 226 145 153 171 158 138 29
-22 -86 -82 -236 -171 -432 -55 -120 -62 -141 -54 -169 9 -31 9 -31 134 142
69 95 130 175 136 177 7 2 18 -26 29 -74 29 -130 71 -197 132 -209 84 -17 194
179 327 584 52 156 73 152 101 -18 24 -148 65 -330 81 -362 10 -19 22 -28 39
-28 21 0 27 8 39 52 8 29 20 103 25 165 15 165 59 272 140 346 78 70 178 107
295 107 58 0 67 -2 62 -16 -3 -9 -6 -21 -6 -29 0 -31 -110 -176 -220 -289 -81
-83 -120 -130 -120 -146 0 -27 30 -80 46 -80 6 0 64 14 129 31 108 28 123 30
158 18 33 -11 43 -11 66 2 22 12 26 22 26 59 0 39 -4 46 -27 58 -15 7 -50 16
-77 19 l-50 6 67 83 c148 183 196 309 140 361 -32 30 -143 65 -208 67 -47 1
-70 -6 -153 -46 -127 -61 -175 -95 -273 -190 l-80 -78 -40 41 c-21 23 -53 47
-70 55 l-31 13 33 173 32 173 -21 23 c-29 31 -67 28 -179 -12 l-94 -34 -26 32
c-25 31 -25 33 -8 53 21 26 45 117 64 246 21 137 4 192 -73 235 -49 28 -52 27
-81 -3z m290 -671 c0 -180 -239 -894 -299 -894 -21 0 -63 43 -86 89 -24 47
-44 170 -45 267 0 88 15 146 55 206 14 21 25 50 25 66 0 50 56 147 119 204 66
61 175 128 208 128 22 0 23 -4 23 -66z m-820 -176 c0 -35 -18 -71 -122 -244
-68 -112 -126 -204 -129 -204 -6 0 -69 300 -69 326 0 6 26 21 58 32 31 12 100
46 152 76 52 30 98 55 103 55 4 1 7 -18 7 -41z"/>
</g>
</svg>
