<?xml version="1.0" standalone="no"?>
<!DOCTYPE svg PUBLIC "-//W3C//DTD SVG 20010904//EN"
 "http://www.w3.org/TR/2001/REC-SVG-20010904/DTD/svg10.dtd">
<svg version="1.0" xmlns="http://www.w3.org/2000/svg"
 width="360.000000pt" height="360.000000pt" viewBox="0 0 360.000000 360.000000"
 preserveAspectRatio="xMidYMid meet">
<metadata>
Created by potrace 1.15, written by Peter Selinger 2001-2017
</metadata>
<g transform="translate(0.000000,360.000000) scale(0.100000,-0.100000)"
fill="#000000" stroke="none">
<path d="M1918 2813 c-10 -2 -18 -8 -18 -12 0 -5 50 -52 112 -105 118 -101
148 -114 181 -78 10 11 17 35 17 60 0 54 -23 71 -146 111 -95 30 -112 33 -146
24z"/>
<path d="M2528 2400 c-174 -31 -403 -144 -694 -341 -56 -38 -107 -69 -114 -69
-9 0 -11 21 -8 88 4 80 8 94 46 166 53 97 54 116 8 116 -81 0 -161 -140 -181
-313 l-7 -59 -106 -69 c-58 -37 -107 -67 -108 -66 -2 1 13 56 31 121 34 117
35 139 13 199 -14 37 -36 47 -103 47 -46 0 -64 -5 -100 -30 -40 -28 -145 -136
-145 -150 0 -4 11 -17 25 -30 l25 -23 71 47 c44 30 79 46 94 44 22 -3 22 -6
-52 -206 l-76 -203 23 -25 c13 -13 31 -24 41 -24 9 0 81 47 160 105 136 99
189 125 189 91 0 -8 -4 -18 -10 -21 -5 -3 -10 -13 -10 -20 0 -16 57 -85 71
-85 4 0 77 69 161 153 181 181 332 297 483 372 149 74 363 123 353 81 -2 -7
-91 -87 -198 -176 -278 -232 -409 -348 -537 -476 -93 -92 -113 -117 -113 -141
0 -78 83 -81 236 -9 52 25 107 54 123 66 23 15 35 18 54 11 46 -18 103 -105
78 -120 -8 -6 -9 -38 -1 -122 5 -63 10 -162 10 -222 0 -64 5 -115 12 -126 26
-42 -88 -282 -209 -443 -48 -63 -53 -92 -21 -109 20 -11 28 -6 96 66 195 207
284 401 268 584 -11 115 -52 347 -76 423 -11 37 -31 80 -44 95 l-24 27 93 52
c62 34 110 53 146 58 60 8 104 28 118 55 8 14 5 23 -14 41 -21 19 -30 21 -71
15 -82 -12 -213 -63 -402 -157 -101 -49 -185 -88 -188 -85 -7 7 173 171 320
291 153 125 332 254 468 338 81 50 98 64 98 85 0 39 -18 61 -58 73 -53 14
-189 20 -244 10z"/>
<path d="M780 2019 c0 -20 87 -309 120 -401 40 -111 67 -152 103 -156 23 -3
30 2 43 33 8 20 19 56 23 80 8 41 6 46 -25 76 -24 23 -41 56 -60 113 -32 97
-88 223 -111 248 -18 20 -93 26 -93 7z"/>
</g>
</svg>
