<?xml version="1.0" standalone="no"?>
<!DOCTYPE svg PUBLIC "-//W3C//DTD SVG 20010904//EN"
 "http://www.w3.org/TR/2001/REC-SVG-20010904/DTD/svg10.dtd">
<svg version="1.0" xmlns="http://www.w3.org/2000/svg"
 width="360.000000pt" height="360.000000pt" viewBox="0 0 360.000000 360.000000"
 preserveAspectRatio="xMidYMid meet">
<metadata>
Created by potrace 1.15, written by Peter Selinger 2001-2017
</metadata>
<g transform="translate(0.000000,360.000000) scale(0.100000,-0.100000)"
fill="#000000" stroke="none">
<path d="M2291 3064 c-71 -19 -194 -82 -314 -160 -54 -35 -104 -64 -112 -64
-24 0 -18 55 11 112 l26 51 -26 26 c-30 30 -49 24 -79 -27 -21 -35 -62 -192
-72 -274 -7 -55 -6 -58 18 -69 24 -11 33 -5 130 72 218 175 353 259 416 259
17 0 31 -4 31 -9 0 -17 -208 -286 -321 -416 -62 -71 -176 -192 -253 -268 -154
-153 -132 -142 -237 -121 -24 5 -27 1 -34 -32 -12 -68 -175 -208 -175 -151 0
6 10 60 22 119 l23 107 -35 36 c-31 32 -39 36 -70 31 -98 -15 -259 -127 -365
-253 -70 -82 -85 -89 -85 -36 -1 49 -30 114 -65 141 l-28 22 -24 -35 -24 -35
56 -212 c38 -144 52 -213 45 -218 -14 -9 13 -142 35 -176 20 -31 64 -32 93 -1
20 21 22 34 22 127 0 57 5 155 12 218 l11 114 140 119 c135 114 171 135 183
105 3 -7 -63 -129 -146 -271 l-151 -259 28 -22 c15 -13 37 -23 47 -24 24 0
323 240 428 344 43 42 85 90 94 108 22 44 21 44 44 23 20 -18 23 -17 153 48
73 36 183 96 245 133 62 36 116 64 119 61 18 -19 -18 -70 -110 -157 -56 -52
-137 -131 -180 -175 -177 -182 -290 -385 -214 -385 45 0 123 30 206 80 46 27
86 50 88 50 27 0 -95 -112 -272 -250 -108 -84 -193 -168 -274 -269 -55 -70
-61 -89 -33 -114 36 -33 68 -21 230 87 168 111 328 204 485 282 78 39 99 46
106 35 15 -23 23 -94 12 -100 -7 -4 -7 -29 -1 -71 5 -36 10 -126 10 -201 0
-91 4 -139 12 -147 9 -9 9 -15 0 -24 -7 -7 -12 -43 -12 -90 0 -44 -11 -155
-26 -248 -28 -189 -29 -273 -2 -278 35 -7 68 111 112 399 29 183 32 239 14
257 -8 8 -8 15 0 25 8 9 13 103 14 298 l3 284 244 54 c174 38 245 50 250 42
10 -16 67 -31 117 -31 29 0 46 6 62 23 28 29 28 45 0 103 l-23 47 -130 -6
c-210 -10 -383 -47 -484 -103 -24 -13 -47 -24 -52 -24 -5 0 -9 40 -9 90 l0 90
90 72 c88 71 89 74 87 113 -2 39 -3 40 -37 40 -19 -1 -58 -4 -86 -9 l-51 -8
-21 44 c-12 24 -33 50 -47 59 l-26 15 165 138 c91 75 168 141 171 147 10 16
-35 79 -56 79 -11 0 -46 -13 -79 -30 -33 -16 -62 -30 -64 -30 -3 0 -25 35 -50
77 l-44 77 60 65 c78 86 155 202 164 247 6 31 2 40 -27 70 -37 38 -35 38 -108
18z m-131 -566 c0 -19 -56 -67 -149 -127 -122 -78 -122 -47 2 99 l92 109 27
-32 c15 -18 28 -40 28 -49z m-20 -423 c0 -21 -22 -40 -136 -116 -75 -50 -139
-88 -142 -84 -3 3 45 55 108 115 88 83 122 109 143 109 22 1 27 -3 27 -24z m0
-352 l0 -68 -154 -87 c-84 -49 -159 -88 -166 -88 -30 0 7 40 155 170 88 76
161 139 163 140 1 0 2 -30 2 -67z"/>
</g>
</svg>
