<?xml version="1.0" standalone="no"?>
<!DOCTYPE svg PUBLIC "-//W3C//DTD SVG 20010904//EN"
 "http://www.w3.org/TR/2001/REC-SVG-20010904/DTD/svg10.dtd">
<svg version="1.0" xmlns="http://www.w3.org/2000/svg"
 width="360.000000pt" height="360.000000pt" viewBox="0 0 360.000000 360.000000"
 preserveAspectRatio="xMidYMid meet">
<metadata>
Created by potrace 1.15, written by Peter Selinger 2001-2017
</metadata>
<g transform="translate(0.000000,360.000000) scale(0.100000,-0.100000)"
fill="#000000" stroke="none">
<path d="M1466 2425 c-84 -64 -204 -129 -268 -145 -41 -11 -55 -9 -113 10 -36
12 -67 20 -68 19 -1 -2 -8 -14 -15 -27 -9 -17 -10 -28 -1 -43 19 -37 69 -49
200 -49 117 0 123 1 175 31 30 17 54 29 54 26 0 -2 -11 -36 -24 -75 -75 -220
-240 -415 -294 -349 -6 7 -26 63 -45 124 -18 61 -41 123 -51 138 l-18 27 -25
-24 -24 -25 22 -195 22 -196 -32 -184 c-48 -276 -116 -437 -258 -605 -38 -45
-138 -123 -175 -136 -10 -3 -8 -10 7 -27 25 -28 72 -23 149 14 149 73 284 288
402 640 30 89 54 170 54 181 0 39 51 127 106 185 95 100 150 137 224 150 102
18 130 33 130 69 0 45 -9 59 -46 71 -19 6 -34 16 -34 20 0 5 27 82 60 170 33
88 60 170 60 181 0 12 -17 30 -47 49 -26 17 -49 30 -52 29 -4 0 -37 -24 -75
-54z"/>
<path d="M2240 2471 c-48 -15 -88 -41 -112 -71 -20 -25 -39 -34 -104 -50 -101
-24 -185 -55 -218 -81 -32 -25 -34 -69 -7 -107 30 -43 51 -100 62 -173 9 -60
8 -82 -12 -170 l-23 -102 42 -35 42 -34 -66 -72 c-79 -86 -150 -183 -165 -225
-9 -26 -16 -31 -45 -31 -25 0 -55 15 -121 64 -172 124 -306 187 -335 158 -6
-6 -10 -13 -7 -15 2 -2 91 -66 197 -141 157 -111 219 -162 325 -269 75 -75
173 -162 227 -200 114 -81 321 -186 445 -226 181 -58 439 -95 620 -89 115 4
119 16 35 87 -60 50 -63 51 -125 51 -75 0 -273 25 -365 46 -166 37 -364 117
-505 204 -108 65 -205 140 -205 157 0 52 166 240 262 296 69 40 190 77 276 83
l77 6 44 -46 c25 -25 43 -47 40 -49 -2 -2 -91 -66 -197 -143 -197 -141 -219
-166 -156 -172 68 -7 226 78 410 221 105 81 111 96 68 159 -28 41 -69 74 -124
103 -48 26 -194 26 -270 1 -67 -23 -190 -84 -286 -142 -103 -63 -117 -59 -62
17 42 58 214 234 327 334 104 92 110 109 60 181 l-30 45 52 82 c60 93 98 179
99 220 1 90 -86 155 -170 128z m-36 -184 c17 -13 18 -17 3 -68 -25 -84 -205
-339 -241 -339 -10 0 -15 28 -20 108 -3 59 -9 121 -12 137 -5 29 -2 32 118
102 68 40 126 72 129 73 3 0 13 -6 23 -13z"/>
</g>
</svg>
