<?xml version="1.0" standalone="no"?>
<!DOCTYPE svg PUBLIC "-//W3C//DTD SVG 20010904//EN"
 "http://www.w3.org/TR/2001/REC-SVG-20010904/DTD/svg10.dtd">
<svg version="1.0" xmlns="http://www.w3.org/2000/svg"
 width="360.000000pt" height="360.000000pt" viewBox="0 0 360.000000 360.000000"
 preserveAspectRatio="xMidYMid meet">
<metadata>
Created by potrace 1.15, written by Peter Selinger 2001-2017
</metadata>
<g transform="translate(0.000000,360.000000) scale(0.100000,-0.100000)"
fill="#000000" stroke="none">
<path d="M2300 2724 c-117 -35 -193 -66 -350 -144 -99 -49 -151 -69 -194 -75
-90 -11 -154 -33 -161 -55 -9 -29 12 -60 40 -60 14 0 25 -2 25 -4 0 -2 18 -94
41 -203 59 -292 111 -493 127 -493 4 0 76 14 159 32 84 17 155 29 158 26 3 -3
3 -25 -1 -49 -6 -40 -18 -56 -125 -163 -66 -65 -119 -122 -119 -126 0 -3 10
-16 23 -28 20 -19 35 -22 106 -22 82 0 82 0 99 31 67 123 103 154 195 165 l57
7 0 -29 c-1 -24 -45 -77 -240 -289 -148 -161 -240 -268 -240 -281 0 -11 15
-35 34 -53 l34 -33 194 41 c201 42 318 53 318 28 0 -29 -68 -108 -228 -265
-91 -89 -162 -165 -159 -168 19 -20 156 78 411 291 149 125 155 132 156 167 0
33 -5 42 -39 66 -21 15 -70 39 -108 52 l-70 24 -160 -42 c-88 -23 -165 -42
-171 -42 -35 0 6 50 170 209 287 278 301 303 209 380 l-49 41 -102 0 -103 0 5
68 c7 87 38 154 104 217 29 28 147 174 263 325 178 231 211 279 211 308 0 40
-19 78 -57 114 -51 49 -89 58 -240 57 -117 0 -151 -4 -223 -25z m352 -67 l57
-12 -37 -85 c-69 -156 -166 -304 -246 -378 -54 -50 -66 -47 -98 26 -16 34 -17
49 -9 80 19 65 15 82 -24 98 -41 17 -61 52 -74 130 -11 68 -8 72 75 103 124
47 251 60 356 38z m-519 -149 c21 -118 20 -128 -2 -128 -39 0 -90 -28 -133
-73 -51 -52 -103 -143 -88 -152 12 -8 15 -6 118 68 49 34 89 57 98 53 56 -21
6 -135 -140 -318 -33 -42 -66 -77 -73 -78 -45 -1 -105 204 -129 441 l-6 66
133 76 c104 58 143 75 175 76 40 1 42 -1 47 -31z m17 -540 c0 -32 -38 -68 -72
-68 -39 0 -36 22 10 59 44 36 62 39 62 9z"/>
<path d="M1315 2151 c-165 -57 -276 -134 -291 -198 -10 -46 -13 -53 -24 -53
-6 0 -13 8 -16 18 -42 133 -92 202 -147 202 -49 0 -55 -16 -19 -53 29 -30 34
-46 67 -222 40 -215 85 -395 114 -460 18 -40 23 -45 53 -45 61 0 61 1 17 195
-36 162 -39 185 -29 234 12 65 48 129 92 167 41 34 144 83 192 91 33 5 36 4
36 -19 0 -24 -85 -203 -151 -319 -37 -64 -34 -89 9 -89 102 0 292 102 440 235
l52 47 -24 19 c-13 10 -31 19 -40 19 -8 0 -61 -29 -118 -65 -56 -36 -105 -65
-110 -65 -13 0 -10 14 37 151 55 161 56 178 11 213 -43 32 -51 32 -151 -3z"/>
</g>
</svg>
