<?xml version="1.0" standalone="no"?>
<!DOCTYPE svg PUBLIC "-//W3C//DTD SVG 20010904//EN"
 "http://www.w3.org/TR/2001/REC-SVG-20010904/DTD/svg10.dtd">
<svg version="1.0" xmlns="http://www.w3.org/2000/svg"
 width="360.000000pt" height="360.000000pt" viewBox="0 0 360.000000 360.000000"
 preserveAspectRatio="xMidYMid meet">
<metadata>
Created by potrace 1.15, written by Peter Selinger 2001-2017
</metadata>
<g transform="translate(0.000000,360.000000) scale(0.100000,-0.100000)"
fill="#000000" stroke="none">
<path d="M2445 2890 c-3 -5 29 -50 72 -99 l78 -90 23 25 c29 33 31 103 3 128
-37 34 -162 59 -176 36z"/>
<path d="M2041 2857 c-11 -13 -21 -26 -21 -30 0 -4 16 -29 36 -56 46 -65 75
-148 81 -237 l6 -71 -42 -41 c-57 -55 -194 -120 -407 -192 -149 -50 -190 -60
-246 -60 -66 0 -68 -1 -68 -25 0 -33 -26 -33 -70 0 -61 45 -82 38 -275 -96
l-175 -120 -82 60 c-77 56 -84 59 -100 44 -10 -9 -18 -20 -18 -26 0 -5 30 -48
67 -94 l66 -86 27 -156 c38 -214 68 -328 96 -360 1 -2 17 7 33 19 29 20 31 26
31 81 0 61 4 66 45 50 15 -6 72 27 267 157 137 91 248 169 248 174 0 5 -11 14
-25 20 -32 15 -110 -8 -207 -60 -37 -20 -70 -34 -73 -31 -2 3 23 90 56 193 50
156 63 187 76 181 9 -3 57 -8 107 -12 l91 -5 258 102 c142 56 261 100 264 97
3 -3 -20 -37 -51 -75 -200 -247 -354 -672 -411 -1134 -23 -185 -21 -221 15
-274 28 -40 50 -56 50 -36 1 28 118 723 123 728 3 3 18 2 33 -3 22 -7 51 -2
134 24 112 35 140 40 140 22 0 -6 -73 -87 -162 -181 -140 -146 -163 -175 -166
-205 -3 -29 3 -42 29 -69 18 -19 41 -34 51 -34 9 0 54 14 100 30 127 46 118
55 118 -118 l0 -148 29 -28 29 -28 16 29 c20 39 36 172 36 299 l0 101 163 75
c155 72 162 77 165 107 2 20 -2 33 -11 37 -8 3 -70 -11 -138 -30 -68 -20 -136
-36 -152 -36 -28 0 -28 0 -21 48 16 108 69 207 165 308 l60 62 -23 25 c-21 24
-27 25 -78 17 -113 -17 -110 -19 -110 54 l0 64 56 42 c53 40 58 42 102 35 63
-9 123 -37 155 -70 39 -43 62 -156 36 -182 -9 -9 -1 -112 31 -415 l44 -402
-18 -106 c-26 -157 -23 -150 -61 -150 -31 0 -38 7 -105 105 -39 58 -75 105
-79 105 -5 0 -14 -7 -21 -15 -24 -29 82 -212 212 -369 17 -20 30 -27 42 -23
24 10 71 118 112 260 l35 121 -38 561 c-37 558 -38 560 -62 583 -34 32 -162
69 -304 89 -67 9 -123 17 -125 19 -2 1 2 44 9 96 l13 94 100 37 c56 19 176 52
268 72 175 37 295 70 315 87 41 34 -48 69 -192 75 -106 5 -117 3 -292 -41
-100 -25 -186 -46 -191 -46 -5 0 -12 42 -15 93 -4 66 -12 107 -27 140 -24 51
-85 125 -129 156 l-28 20 -22 -22z m79 -796 c0 -33 -8 -47 -63 -105 -41 -43
-70 -66 -85 -66 -22 0 -21 2 19 81 45 90 78 129 109 129 17 0 20 -6 20 -39z
m-921 -45 c9 -10 -1 -43 -45 -147 -91 -216 -162 -349 -187 -349 -9 0 -26 54
-50 163 -21 89 -37 167 -37 173 0 6 21 14 48 18 59 8 134 51 192 110 47 49 61
54 79 32z m919 -268 l-3 -71 -130 -54 c-71 -29 -135 -52 -142 -51 -17 4 145
198 188 226 19 12 47 22 62 22 l28 0 -3 -72z m-28 -452 c0 -22 -9 -45 -22 -61
-23 -25 -121 -69 -131 -58 -12 11 33 82 74 117 56 47 79 48 79 2z"/>
</g>
</svg>
