<?xml version="1.0" standalone="no"?>
<!DOCTYPE svg PUBLIC "-//W3C//DTD SVG 20010904//EN"
 "http://www.w3.org/TR/2001/REC-SVG-20010904/DTD/svg10.dtd">
<svg version="1.0" xmlns="http://www.w3.org/2000/svg"
 width="360.000000pt" height="360.000000pt" viewBox="0 0 360.000000 360.000000"
 preserveAspectRatio="xMidYMid meet">
<metadata>
Created by potrace 1.15, written by Peter Selinger 2001-2017
</metadata>
<g transform="translate(0.000000,360.000000) scale(0.100000,-0.100000)"
fill="#000000" stroke="none">
<path d="M1555 2663 l-289 -196 -62 16 c-34 10 -70 20 -78 23 -9 4 -16 1 -16
-6 0 -7 -8 -19 -17 -26 -17 -13 -16 -16 10 -37 15 -13 50 -31 77 -41 42 -15
57 -16 105 -6 67 14 113 32 167 66 22 14 41 24 43 22 2 -2 -19 -41 -47 -88
-112 -188 -290 -523 -450 -845 -126 -254 -174 -340 -186 -339 -9 1 -28 3 -41
5 -36 6 -65 -43 -113 -194 -32 -101 -39 -135 -32 -156 12 -34 42 -38 92 -12
37 19 49 37 144 218 57 109 137 272 177 363 99 224 252 524 299 585 65 86 77
73 89 -90 8 -125 -19 -240 -63 -259 -19 -8 -20 -13 -11 -53 7 -30 7 -92 -1
-195 -8 -112 -8 -155 0 -165 8 -10 8 -17 0 -25 -20 -20 -14 -47 21 -93 l32
-44 71 -1 70 0 234 266 233 267 211 -6 c272 -8 367 -27 522 -104 39 -19 93
-52 120 -74 l49 -38 25 25 25 26 -60 54 c-95 88 -268 163 -444 194 -35 6 -129
15 -209 19 l-145 8 -29 32 c-15 17 -28 41 -28 52 0 15 -5 20 -22 17 -21 -3
-28 -15 -44 -75 -3 -13 -84 -19 -84 -7 0 3 83 98 185 211 102 114 185 215 185
225 0 13 -8 18 -27 18 -21 0 -68 -41 -232 -203 -114 -112 -231 -220 -262 -241
-55 -36 -58 -37 -140 -34 l-84 3 -3 43 c-3 45 1 48 43 32 23 -9 33 -5 84 34
72 55 165 155 213 228 47 70 112 199 129 256 12 43 12 43 -26 82 -22 22 -47
40 -56 40 -9 0 -110 -67 -225 -150 -198 -142 -254 -172 -254 -135 0 40 231
357 381 524 52 57 98 109 104 117 11 16 -30 64 -55 64 -9 0 -146 -88 -305
-197z m310 -416 c-24 -73 -74 -146 -166 -242 -103 -107 -117 -109 -160 -24
-16 34 -28 67 -25 74 7 20 200 179 286 237 71 48 75 49 78 28 2 -12 -4 -45
-13 -73z m20 -634 c-142 -221 -329 -393 -427 -393 -26 0 -28 3 -28 38 0 86 23
259 38 284 36 62 148 93 346 97 l88 1 -17 -27z"/>
<path d="M2036 1189 c-91 -10 -164 -28 -180 -44 -7 -7 -87 -50 -177 -95 -90
-46 -187 -98 -215 -116 -48 -32 -52 -37 -57 -84 -7 -62 -22 -90 -47 -90 -21 0
-28 18 -71 188 l-24 92 -33 0 c-27 0 -32 -3 -28 -17 3 -10 8 -36 11 -58 4 -22
20 -94 35 -160 63 -268 127 -368 196 -304 23 21 24 28 24 143 l0 121 51 44
c113 98 252 173 416 227 122 40 233 48 233 17 0 -38 -185 -226 -362 -370 -79
-64 -91 -71 -145 -77 -121 -15 -154 -40 -109 -84 24 -24 27 -25 82 -13 32 6
80 22 106 36 44 23 58 25 175 25 98 -1 150 -6 224 -24 l96 -22 27 21 c19 15
27 29 24 46 -3 26 -18 35 -126 74 -76 28 -132 67 -132 91 0 8 7 14 16 14 8 0
71 56 140 124 151 150 152 152 63 244 -68 69 -65 69 -213 51z"/>
</g>
</svg>
