<?xml version="1.0" standalone="no"?>
<!DOCTYPE svg PUBLIC "-//W3C//DTD SVG 20010904//EN"
 "http://www.w3.org/TR/2001/REC-SVG-20010904/DTD/svg10.dtd">
<svg version="1.0" xmlns="http://www.w3.org/2000/svg"
 width="360.000000pt" height="360.000000pt" viewBox="0 0 360.000000 360.000000"
 preserveAspectRatio="xMidYMid meet">
<metadata>
Created by potrace 1.15, written by Peter Selinger 2001-2017
</metadata>
<g transform="translate(0.000000,360.000000) scale(0.100000,-0.100000)"
fill="#000000" stroke="none">
<path d="M1836 2844 c-3 -9 -6 -28 -6 -43 0 -95 -115 -321 -241 -472 -40 -48
-48 -76 -27 -97 23 -23 52 -11 177 73 145 97 271 165 307 165 13 0 24 -3 24
-6 0 -3 -63 -92 -139 -197 -112 -155 -150 -200 -195 -231 -84 -58 -156 -134
-184 -194 -24 -52 -24 -60 -19 -196 6 -157 20 -219 70 -317 l33 -66 -260 -170
c-144 -94 -273 -178 -289 -188 -23 -15 -31 -16 -58 -5 -27 12 -33 11 -50 -7
l-21 -20 43 -32 c24 -17 54 -31 68 -31 15 0 156 70 314 155 181 97 299 155
317 155 l29 0 -13 -44 c-29 -95 -112 -187 -351 -389 -29 -25 -30 -25 -11 -46
l19 -20 72 50 c155 107 297 250 391 391 24 37 44 78 44 91 0 35 52 101 112
142 116 78 471 180 511 147 8 -7 26 -8 52 -2 88 21 180 7 290 -44 114 -52 174
-22 130 64 -34 66 -143 117 -273 126 -70 5 -96 1 -281 -45 -112 -29 -217 -51
-233 -49 -27 3 -22 10 157 237 202 256 207 266 155 316 -28 27 -32 28 -97 22
-85 -7 -223 -47 -320 -92 -63 -29 -77 -32 -94 -22 -18 10 -23 8 -41 -18 -63
-89 -273 -263 -303 -251 -11 4 -15 22 -15 67 l0 62 173 176 c94 97 209 221
255 276 87 104 192 253 192 270 -1 15 -87 75 -108 75 -11 0 -79 -25 -152 -55
-73 -30 -138 -55 -145 -55 -10 0 -4 35 21 132 19 72 34 138 34 145 0 15 -42
83 -51 83 -4 0 -10 -7 -13 -16z m544 -881 c0 -37 -104 -190 -224 -329 -109
-127 -153 -170 -163 -161 -3 4 -1 60 6 124 19 169 46 223 151 296 44 31 192
96 218 97 6 0 12 -12 12 -27z m-460 -269 c0 -4 -14 -81 -31 -170 l-31 -164
-45 0 c-63 0 -80 13 -98 72 -30 101 -27 108 82 192 86 68 123 89 123 70z"/>
<path d="M1050 2059 c-187 -136 -253 -207 -207 -225 8 -3 81 36 162 86 126 76
195 106 195 85 0 -2 -14 -39 -31 -82 -39 -99 -87 -187 -141 -254 l-41 -52 29
-24 c54 -44 139 -13 287 107 75 61 82 70 85 106 2 32 -2 44 -23 64 -29 27 -42
20 -59 -32 -9 -26 -17 -34 -40 -36 -24 -3 -28 -1 -22 13 3 10 20 71 37 137
l30 120 -33 38 c-54 63 -79 57 -228 -51z"/>
<path d="M590 1973 c0 -4 9 -16 20 -28 13 -14 35 -77 61 -176 54 -210 116
-402 143 -441 19 -29 28 -33 72 -36 l51 -3 10 82 9 81 -53 47 c-50 45 -54 53
-84 152 -60 205 -136 329 -200 329 -16 0 -29 -3 -29 -7z"/>
<path d="M2249 1074 c-28 -30 -35 -17 101 -171 122 -137 215 -256 275 -354
l42 -68 21 22 c18 19 20 27 11 65 -25 113 -147 275 -340 452 l-86 79 -24 -25z"/>
</g>
</svg>
