<?xml version="1.0" standalone="no"?>
<!DOCTYPE svg PUBLIC "-//W3C//DTD SVG 20010904//EN"
 "http://www.w3.org/TR/2001/REC-SVG-20010904/DTD/svg10.dtd">
<svg version="1.0" xmlns="http://www.w3.org/2000/svg"
 width="360.000000pt" height="360.000000pt" viewBox="0 0 360.000000 360.000000"
 preserveAspectRatio="xMidYMid meet">
<metadata>
Created by potrace 1.15, written by Peter Selinger 2001-2017
</metadata>
<g transform="translate(0.000000,360.000000) scale(0.100000,-0.100000)"
fill="#000000" stroke="none">
<path d="M2125 2656 c-71 -35 -149 -81 -172 -101 -37 -31 -43 -42 -43 -76 0
-56 18 -52 176 37 185 104 192 99 103 -77 -62 -121 -85 -143 -148 -145 -28 0
-70 -11 -104 -27 -52 -24 -57 -29 -57 -58 0 -28 3 -31 23 -25 40 11 137 19
137 11 0 -22 -118 -180 -153 -206 -59 -43 -73 -39 -81 23 -4 28 -14 67 -21 86
l-15 34 -37 -31 c-40 -33 -70 -40 -79 -18 -3 8 40 119 96 248 55 128 100 241
100 250 0 30 -34 49 -86 49 -43 0 -60 -7 -129 -53 -44 -30 -102 -59 -129 -66
-27 -6 -66 -21 -87 -32 -37 -18 -39 -22 -39 -65 0 -28 5 -47 14 -50 7 -3 71
18 141 46 70 28 129 49 131 47 2 -1 -15 -65 -38 -140 l-42 -137 -34 0 c-19 0
-62 14 -97 31 -51 25 -71 30 -121 27 l-58 -3 -43 -155 c-24 -85 -48 -172 -54
-192 -5 -22 -16 -38 -24 -38 -19 0 -19 -3 10 110 23 92 24 96 7 130 -19 38
-74 80 -105 80 -29 0 -228 -86 -262 -114 l-30 -24 19 -36 c24 -45 40 -45 134
-4 62 27 75 30 82 18 16 -24 12 -46 -26 -148 -41 -110 -94 -218 -135 -278
l-28 -41 32 -32 c43 -41 75 -40 144 6 195 129 302 311 326 556 6 59 15 107 20
107 5 0 38 -24 73 -52 64 -52 65 -54 59 -93 -3 -24 -14 -46 -26 -55 -102 -74
-132 -127 -96 -167 11 -13 27 -23 34 -23 8 0 55 34 105 75 l91 74 81 -43 81
-44 50 24 c28 13 57 24 65 24 53 1 197 128 300 263 42 57 43 57 95 57 50 0 53
-1 59 -30 5 -27 10 -30 41 -30 28 0 48 10 86 42 45 38 48 43 34 58 -15 17 -66
35 -163 60 -27 7 -42 16 -39 23 3 7 31 77 62 155 55 140 56 144 38 164 -20 22
-85 58 -105 58 -7 0 -71 -29 -143 -64z"/>
<path d="M502 1968 c-9 -9 -7 -18 12 -37 18 -20 33 -67 65 -212 23 -103 53
-223 67 -268 l25 -81 35 0 c28 0 38 6 54 33 11 17 23 43 27 56 8 31 -48 276
-89 388 -40 111 -62 133 -131 133 -29 0 -58 -5 -65 -12z"/>
<path d="M2298 1836 c-95 -34 -244 -148 -473 -363 -82 -78 -151 -140 -152
-139 -1 1 14 55 33 121 42 146 43 192 8 234 -21 26 -29 29 -50 21 -38 -15
-129 -75 -250 -166 -107 -81 -112 -83 -142 -72 -28 11 -34 10 -57 -12 -33 -31
-32 -40 8 -78 28 -27 40 -32 83 -32 45 0 59 7 162 75 l112 75 0 -29 c0 -37
-18 -88 -82 -227 -28 -63 -56 -114 -62 -114 -6 0 -67 18 -136 40 -122 39 -190
50 -190 30 0 -11 123 -100 192 -139 26 -14 48 -33 48 -42 0 -26 -54 -102 -106
-148 -81 -72 -194 -141 -230 -141 -31 0 -31 1 -37 58 -11 103 -28 116 -71 59
-21 -28 -26 -45 -26 -95 0 -58 1 -61 39 -91 96 -76 242 -12 454 200 l87 87 58
-28 c67 -34 148 -50 247 -50 64 0 81 5 161 44 50 24 127 67 173 95 94 60 82
60 226 -11 207 -104 417 -248 582 -402 77 -72 84 -76 127 -76 59 0 67 17 37
77 -58 121 -322 322 -708 542 -51 29 -93 58 -93 64 0 6 20 49 44 96 80 156
125 291 140 425 6 47 4 52 -31 88 -40 41 -63 46 -125 24z m26 -158 c-11 -74
-63 -218 -124 -345 l-58 -122 -167 56 c-92 30 -163 59 -158 63 44 43 489 390
499 390 11 0 13 -10 8 -42z m-399 -501 c63 -16 91 -28 93 -40 4 -21 -72 -104
-118 -127 -44 -22 -127 -40 -185 -40 -40 0 -45 3 -45 23 0 31 19 94 43 145 32
69 68 75 212 39z"/>
</g>
</svg>
