<?xml version="1.0" standalone="no"?>
<!DOCTYPE svg PUBLIC "-//W3C//DTD SVG 20010904//EN"
 "http://www.w3.org/TR/2001/REC-SVG-20010904/DTD/svg10.dtd">
<svg version="1.0" xmlns="http://www.w3.org/2000/svg"
 width="360.000000pt" height="360.000000pt" viewBox="0 0 360.000000 360.000000"
 preserveAspectRatio="xMidYMid meet">
<metadata>
Created by potrace 1.15, written by Peter Selinger 2001-2017
</metadata>
<g transform="translate(0.000000,360.000000) scale(0.100000,-0.100000)"
fill="#000000" stroke="none">
<path d="M1665 2510 c-17 -19 -17 -21 14 -55 23 -26 31 -45 31 -73 0 -38 -25
-379 -35 -489 l-6 -62 -140 -91 c-76 -50 -139 -98 -139 -105 0 -15 60 -55 82
-55 9 0 46 23 84 50 38 28 74 50 81 50 9 0 13 -18 13 -59 0 -32 5 -105 10
-160 l11 -102 -62 -67 c-85 -92 -329 -419 -329 -441 0 -28 33 -51 72 -51 32 0
40 5 65 45 15 25 34 45 41 45 46 0 126 -82 212 -214 31 -48 49 -66 64 -66 39
0 44 15 30 88 -18 96 -34 323 -34 488 l0 141 76 104 c42 57 78 106 80 108 5 6
149 -22 176 -35 71 -36 102 -149 103 -379 0 -93 -3 -184 -7 -201 -7 -30 -4
-34 47 -68 30 -20 60 -36 67 -36 24 0 120 50 185 95 63 44 65 45 144 45 108 0
159 -24 159 -76 0 -41 -20 -53 -56 -34 -18 10 -27 11 -36 2 -17 -17 7 -140 40
-205 25 -48 30 -52 62 -52 30 0 37 5 52 35 39 80 68 380 68 710 0 96 5 222 12
280 6 58 8 118 4 133 -11 47 -80 111 -155 146 l-69 32 -231 -116 c-127 -63
-231 -121 -231 -128 1 -40 15 -38 224 33 114 38 218 70 230 70 12 0 36 -15 54
-33 l32 -33 0 -164 c0 -96 6 -194 13 -235 11 -57 11 -77 1 -105 -7 -19 -13
-66 -13 -103 l-1 -69 -52 9 c-29 4 -81 8 -115 8 -55 -1 -75 -7 -166 -53 -104
-52 -131 -60 -142 -42 -3 6 57 107 134 226 111 169 141 223 141 249 0 19 -4
37 -10 40 -5 3 -69 -14 -141 -39 -72 -26 -136 -46 -143 -46 -6 0 -17 20 -24
44 -16 60 -75 122 -125 131 -33 7 -37 10 -37 39 0 24 18 53 73 122 128 158
268 367 358 532 l34 63 -25 47 c-26 48 -79 92 -111 92 -10 0 -27 -13 -39 -30
l-21 -30 22 -31 c16 -23 20 -40 16 -70 -8 -64 -68 -176 -153 -289 -93 -124
-438 -480 -466 -480 -22 0 -24 45 -6 151 13 81 5 74 181 168 82 44 97 56 97
77 0 14 -7 27 -15 30 -8 3 -57 -8 -109 -26 -76 -25 -99 -29 -115 -20 -12 6
-21 15 -21 21 0 6 18 118 40 249 22 131 40 243 40 248 0 6 -23 29 -51 51 -60
48 -113 55 -144 21z m725 -1210 c0 -37 -73 -130 -101 -130 -5 0 -9 27 -9 59
l0 59 38 10 c50 14 72 14 72 2z m-731 -191 c10 -47 10 -77 1 -130 -9 -51 -9
-78 -1 -101 14 -40 15 -38 -14 -38 -18 0 -25 5 -25 20 0 24 -54 87 -81 95 -17
6 -19 12 -14 33 18 76 85 182 113 182 5 0 15 -27 21 -61z"/>
<path d="M1090 1819 c-156 -65 -248 -138 -224 -177 25 -39 38 -36 161 37 119
70 143 80 143 61 0 -24 -55 -150 -124 -288 -78 -153 -92 -206 -62 -231 20 -17
86 18 257 134 234 159 243 167 219 191 -8 8 -49 -3 -136 -34 -68 -25 -127 -42
-130 -39 -4 3 17 65 46 137 56 139 60 174 25 226 -22 34 -62 30 -175 -17z"/>
<path d="M690 1662 c0 -10 4 -22 9 -27 5 -6 46 -109 89 -230 100 -275 92 -255
107 -255 6 0 20 9 31 21 18 20 18 23 -13 142 -44 176 -89 284 -133 330 -42 41
-90 51 -90 19z"/>
</g>
</svg>
