<?xml version="1.0" standalone="no"?>
<!DOCTYPE svg PUBLIC "-//W3C//DTD SVG 20010904//EN"
 "http://www.w3.org/TR/2001/REC-SVG-20010904/DTD/svg10.dtd">
<svg version="1.0" xmlns="http://www.w3.org/2000/svg"
 width="360.000000pt" height="360.000000pt" viewBox="0 0 360.000000 360.000000"
 preserveAspectRatio="xMidYMid meet">
<metadata>
Created by potrace 1.15, written by Peter Selinger 2001-2017
</metadata>
<g transform="translate(0.000000,360.000000) scale(0.100000,-0.100000)"
fill="#000000" stroke="none">
<path d="M1535 3000 c-18 -20 -18 -21 20 -60 l39 -40 121 0 c116 0 123 1 145
25 l23 24 -29 35 c-29 34 -29 35 -114 35 -50 1 -91 -4 -97 -10 -8 -8 -13 -8
-17 0 -12 19 -71 13 -91 -9z"/>
<path d="M2608 2726 c-50 -14 -151 -75 -238 -146 -30 -25 -63 -51 -72 -58 -15
-12 -25 -10 -71 17 -63 36 -87 38 -112 11 -16 -18 -16 -20 4 -53 19 -31 21
-49 21 -203 0 -191 -14 -427 -31 -524 -9 -54 -7 -97 11 -253 18 -164 20 -198
9 -262 -10 -58 -10 -102 0 -210 9 -104 9 -141 0 -151 -9 -11 -9 -21 0 -42 10
-23 8 -76 -8 -256 -12 -125 -21 -235 -21 -244 0 -17 41 -42 67 -42 21 0 52 74
68 167 9 52 19 200 25 363 5 151 12 285 15 298 4 13 2 28 -5 37 -8 10 -9 15
-2 15 8 0 8 9 0 31 -8 22 -7 41 1 69 9 29 9 56 0 107 -6 43 -8 96 -2 143 4 41
7 83 7 93 -1 21 -28 29 301 -89 143 -52 268 -94 278 -94 106 0 144 259 61 422
-49 97 -194 207 -341 260 -71 26 -75 35 -43 105 29 65 90 149 179 247 103 114
105 128 20 204 -32 28 -62 52 -66 51 -5 0 -29 -6 -55 -13z m-93 -257 c-88
-124 -164 -250 -186 -310 -20 -53 -25 -114 -9 -124 5 -3 50 0 100 6 80 10 95
10 137 -6 26 -10 70 -39 97 -64 56 -53 172 -221 157 -230 -6 -4 -6 -21 1 -46
12 -49 -2 -95 -30 -95 -60 0 -337 95 -441 151 -30 16 -61 29 -69 29 -13 0 -14
27 -8 188 3 103 9 231 12 284 l6 96 146 117 c81 64 148 112 150 107 1 -5 -27
-52 -63 -103z"/>
<path d="M1610 2576 c-74 -53 -139 -101 -144 -106 -14 -14 22 -50 49 -50 47 0
153 41 217 85 48 32 77 45 103 45 35 0 35 0 35 -44 0 -93 -22 -251 -45 -325
-30 -95 -85 -176 -149 -218 -48 -33 -86 -43 -86 -23 0 6 34 68 75 139 82 139
89 169 52 213 l-22 28 -84 -30 c-47 -16 -97 -38 -112 -49 -16 -12 -32 -21 -36
-21 -4 0 -37 24 -72 53 -52 43 -66 61 -81 105 -25 76 -57 107 -129 123 -31 7
-45 0 -170 -78 -75 -47 -140 -89 -145 -94 -6 -5 -2 -17 9 -29 27 -30 129 -29
162 2 l23 22 22 -21 21 -22 -103 -175 c-57 -96 -107 -173 -111 -170 -5 3 -11
21 -14 42 -27 175 -56 242 -136 317 -50 47 -69 54 -87 33 -13 -18 9 -102 35
-131 14 -15 31 -69 53 -171 17 -83 41 -174 52 -203 l20 -54 46 3 c52 3 53 5
37 82 -6 31 -5 38 6 34 8 -3 15 -14 17 -26 2 -12 10 -22 18 -22 8 0 100 43
204 95 l190 95 0 -52 c0 -29 -9 -207 -21 -395 l-21 -342 28 -25 c16 -14 38
-26 50 -26 49 0 220 142 392 329 57 61 110 111 119 111 8 0 29 -11 47 -25 43
-33 79 -32 105 1 19 24 21 40 21 164 0 163 -9 182 -58 126 -16 -19 -35 -50
-42 -70 -6 -20 -15 -36 -18 -36 -4 0 -21 16 -37 36 l-31 37 34 96 c45 131 87
300 112 454 20 124 20 130 3 165 -26 52 -96 84 -193 89 l-75 4 -135 -95z
m-323 -351 c12 -8 31 -40 42 -70 37 -97 25 -121 -38 -80 -22 15 -58 29 -80 32
-46 6 -51 20 -27 77 22 53 63 69 103 41z m269 -117 c-14 -72 -66 -108 -66 -46
0 34 33 78 58 78 11 0 13 -8 8 -32z m203 -300 c11 -48 10 -54 -15 -92 -31 -48
-281 -302 -289 -294 -6 5 9 154 21 210 8 39 85 121 167 179 91 63 102 63 116
-3z"/>
</g>
</svg>
