<?xml version="1.0" standalone="no"?>
<!DOCTYPE svg PUBLIC "-//W3C//DTD SVG 20010904//EN"
 "http://www.w3.org/TR/2001/REC-SVG-20010904/DTD/svg10.dtd">
<svg version="1.0" xmlns="http://www.w3.org/2000/svg"
 width="360.000000pt" height="360.000000pt" viewBox="0 0 360.000000 360.000000"
 preserveAspectRatio="xMidYMid meet">
<metadata>
Created by potrace 1.15, written by Peter Selinger 2001-2017
</metadata>
<g transform="translate(0.000000,360.000000) scale(0.100000,-0.100000)"
fill="#000000" stroke="none">
<path d="M1698 3203 c-16 -16 -28 -32 -28 -36 0 -4 19 -7 43 -7 106 0 207 -33
258 -84 l25 -25 38 31 c32 26 37 35 34 66 -2 29 -10 40 -38 57 -30 17 -56 21
-170 23 l-135 4 -27 -29z"/>
<path d="M1933 2900 l-233 -139 -60 11 c-86 16 -100 -8 -42 -74 21 -24 93 -23
167 2 32 11 60 20 62 20 14 0 -7 -38 -62 -115 -78 -108 -162 -271 -174 -340
-5 -27 -8 -52 -6 -56 2 -3 29 -14 59 -24 49 -17 56 -23 56 -45 0 -53 -128
-143 -263 -185 -43 -14 -80 -25 -83 -25 -2 0 -4 11 -4 24 0 13 -9 34 -19 47
l-19 24 -10 -25 c-5 -14 -56 -142 -111 -284 -69 -175 -100 -267 -96 -283 6
-26 49 -41 74 -26 43 27 97 170 135 356 13 65 26 120 28 122 2 2 27 -3 56 -11
l52 -16 93 38 c50 21 119 57 152 80 61 42 142 86 183 98 22 7 22 6 22 -88 0
-82 -3 -99 -20 -116 -27 -27 -85 -55 -155 -75 -74 -21 -96 -41 -130 -116 -27
-60 -65 -232 -65 -294 0 -53 20 -133 39 -156 26 -32 59 -18 66 29 50 313 113
437 236 466 26 6 27 4 39 -58 9 -46 9 -73 1 -102 -14 -49 -14 -385 -1 -478 8
-56 7 -77 -5 -110 -23 -62 -35 -235 -35 -498 l0 -238 34 0 33 0 6 73 c4 39 18
266 32 502 23 392 38 535 54 535 3 0 47 -36 96 -80 50 -44 95 -80 101 -80 17
0 90 58 116 92 36 47 65 108 73 151 11 59 -15 417 -32 448 -8 14 -36 40 -62
57 -58 40 -140 45 -177 11 -17 -16 -29 -19 -58 -13 -64 11 -81 33 -81 102 0
50 4 65 25 87 51 54 238 85 519 85 118 0 132 -2 121 -15 -13 -16 -193 -108
-267 -138 -37 -15 -43 -21 -43 -47 0 -16 1 -30 3 -30 1 0 88 27 192 59 110 34
194 55 199 50 6 -5 35 -9 66 -9 59 0 90 18 90 52 0 29 -88 136 -133 162 -38
23 -55 26 -134 26 -183 0 -504 -40 -604 -75 -71 -25 -74 -19 -22 43 100 115
165 216 187 290 8 25 -39 112 -61 112 -6 0 -49 -16 -94 -35 -150 -65 -149 -54
17 143 129 153 145 176 142 205 -2 19 -9 33 -18 34 -8 1 -120 -61 -247 -137z
m107 -371 c0 -22 -62 -127 -108 -182 -46 -57 -146 -148 -183 -168 -30 -16 -24
6 35 126 58 117 121 199 171 221 37 16 85 18 85 3z m170 -685 c64 -26 70 -47
70 -237 0 -187 -15 -257 -53 -257 -12 0 -70 39 -129 85 l-108 86 0 134 c0 168
-1 167 135 198 35 8 44 7 85 -9z"/>
<path d="M1060 2468 c-88 -73 -154 -140 -218 -220 -25 -32 -46 -58 -47 -58 -2
0 -13 28 -25 63 -28 80 -68 139 -103 151 -35 13 -42 4 -28 -36 7 -18 23 -94
37 -168 34 -186 72 -334 100 -398 23 -52 24 -53 61 -50 34 3 38 6 36 28 -13
153 -14 193 -5 240 16 86 49 163 89 210 41 48 117 100 145 100 49 0 -8 -141
-116 -284 l-67 -89 22 -23 c13 -14 34 -24 50 -24 31 0 367 194 376 217 3 8 -4
24 -15 35 -19 19 -25 20 -78 10 -32 -7 -59 -10 -61 -8 -2 2 18 64 45 138 38
107 46 140 40 165 -10 38 -58 63 -120 63 -38 0 -52 -7 -118 -62z"/>
</g>
</svg>
