<?xml version="1.0" standalone="no"?>
<!DOCTYPE svg PUBLIC "-//W3C//DTD SVG 20010904//EN"
 "http://www.w3.org/TR/2001/REC-SVG-20010904/DTD/svg10.dtd">
<svg version="1.0" xmlns="http://www.w3.org/2000/svg"
 width="360.000000pt" height="360.000000pt" viewBox="0 0 360.000000 360.000000"
 preserveAspectRatio="xMidYMid meet">
<metadata>
Created by potrace 1.15, written by Peter Selinger 2001-2017
</metadata>
<g transform="translate(0.000000,360.000000) scale(0.100000,-0.100000)"
fill="#000000" stroke="none">
<path d="M2273 2807 l-32 -12 50 -94 c50 -92 50 -96 44 -155 -19 -157 -87
-235 -211 -239 -52 -2 -58 0 -86 32 -25 27 -29 39 -24 66 8 42 -24 118 -59
141 -23 15 -28 15 -41 2 -12 -12 -13 -26 -3 -89 23 -146 -7 -271 -73 -305 -47
-24 -56 -18 -99 69 -40 79 -122 201 -155 228 -12 10 -18 9 -35 -8 -20 -19 -20
-20 27 -142 40 -104 46 -126 35 -142 -7 -12 -9 -34 -5 -54 4 -23 2 -35 -5 -35
-6 0 -11 -9 -11 -20 0 -18 -7 -20 -59 -20 -33 0 -63 5 -66 11 -11 17 -34 -22
-35 -57 0 -41 24 -61 84 -69 32 -5 59 -17 82 -37 35 -31 123 -194 145 -268 13
-43 21 -46 82 -29 22 6 42 8 45 4 3 -3 -42 -54 -100 -113 -173 -175 -238 -273
-238 -358 0 -71 46 -92 120 -54 38 19 90 27 90 13 0 -3 -22 -75 -50 -159 -27
-84 -50 -160 -50 -168 0 -11 9 -16 29 -16 51 0 96 76 163 269 88 256 172 381
256 381 19 0 22 -5 22 -44 0 -24 5 -158 11 -297 8 -193 7 -269 -2 -317 l-11
-63 -32 7 c-69 15 -138 62 -196 135 l-39 49 -20 -28 -20 -28 44 -55 c97 -121
244 -259 277 -259 9 0 26 9 36 21 40 42 58 154 80 489 l7 115 65 23 64 23 61
-22 c33 -13 96 -49 140 -82 44 -32 111 -77 150 -100 58 -35 77 -42 125 -42 50
0 55 2 58 23 6 39 -19 94 -63 137 -51 52 -141 96 -264 131 l-94 27 -124 -28
c-68 -16 -125 -26 -126 -24 -2 2 -13 38 -24 79 -17 66 -18 78 -6 97 8 11 17
49 21 84 l7 64 40 9 c198 43 276 73 283 107 1 8 -8 26 -20 41 l-23 27 -132
-31 -133 -30 -20 23 c-15 18 -19 36 -17 69 2 44 3 46 79 95 102 67 128 93 128
125 0 40 -30 60 -109 74 l-72 12 89 120 c49 67 97 124 106 127 10 4 42 7 71 7
84 0 204 21 227 40 24 19 20 49 -11 89 l-19 25 -137 -13 c-76 -6 -139 -10
-141 -8 -3 2 3 23 11 47 10 28 15 79 15 154 -1 122 -7 137 -75 183 -42 29 -65
33 -102 20z m-83 -619 c-1 -51 -80 -158 -116 -158 -22 0 -24 4 -24 55 0 55 0
56 47 85 49 31 93 39 93 18z m-266 -178 c4 -27 15 -58 25 -67 15 -15 16 -25 8
-62 -15 -76 -126 -164 -152 -121 -3 5 -1 27 5 49 7 29 7 59 -1 110 -10 57 -9
74 1 86 15 18 78 54 96 55 6 0 14 -22 18 -50z m184 -427 c-3 -33 -11 -44 -78
-95 -118 -92 -322 -228 -332 -222 -10 7 66 107 150 196 86 91 185 155 245 157
15 1 18 -6 15 -36z"/>
<path d="M1075 2036 c-72 -35 -185 -119 -185 -136 0 -18 49 -35 62 -22 13 13
178 17 178 5 0 -3 -29 -82 -65 -175 -36 -93 -65 -177 -65 -187 0 -11 8 -29 18
-41 24 -29 50 -23 128 29 72 49 234 188 234 202 0 13 -36 27 -93 34 -34 5 -47
10 -44 19 3 7 16 59 28 115 l23 101 -44 45 c-55 56 -80 57 -175 11z"/>
<path d="M716 1849 l-27 -22 25 -26 c20 -21 31 -52 51 -151 42 -208 84 -336
115 -355 5 -3 27 4 48 17 l39 23 -28 139 c-37 181 -77 320 -103 359 -28 41
-79 48 -120 16z"/>
</g>
</svg>
