<?xml version="1.0" standalone="no"?>
<!DOCTYPE svg PUBLIC "-//W3C//DTD SVG 20010904//EN"
 "http://www.w3.org/TR/2001/REC-SVG-20010904/DTD/svg10.dtd">
<svg version="1.0" xmlns="http://www.w3.org/2000/svg"
 width="360.000000pt" height="360.000000pt" viewBox="0 0 360.000000 360.000000"
 preserveAspectRatio="xMidYMid meet">
<metadata>
Created by potrace 1.15, written by Peter Selinger 2001-2017
</metadata>
<g transform="translate(0.000000,360.000000) scale(0.100000,-0.100000)"
fill="#000000" stroke="none">
<path d="M2430 2834 c-75 -9 -256 -46 -368 -75 -150 -39 -415 -119 -425 -128
-4 -4 8 -70 27 -147 36 -143 70 -324 81 -429 5 -53 3 -68 -24 -127 -34 -74
-32 -102 11 -132 32 -23 46 -20 111 19 32 19 65 35 73 35 20 0 17 -27 -7 -61
-37 -53 -97 -193 -123 -289 -37 -137 -56 -270 -65 -458 -9 -176 -1 -256 32
-306 37 -57 97 -13 97 72 0 28 -5 54 -10 57 -7 5 -8 11 -1 19 5 6 11 39 13 71
3 53 5 60 26 63 16 3 22 -2 22 -15 0 -33 46 -117 98 -179 95 -115 390 -344
443 -344 37 0 64 36 91 124 l22 71 -12 574 -11 575 -48 48 -47 48 -81 0 c-98
0 -132 -9 -208 -56 -32 -20 -61 -34 -64 -30 -3 3 -3 16 1 29 14 59 167 188
186 157 14 -23 78 9 140 69 75 73 162 207 256 394 l74 148 -39 57 c-22 31 -60
77 -85 101 -41 40 -50 45 -98 47 -29 1 -69 0 -88 -2z m96 -111 c55 -37 55 -37
48 -77 -11 -66 -52 -172 -120 -307 l-63 -126 -67 -6 c-41 -4 -88 -17 -120 -32
-28 -14 -63 -25 -77 -25 -40 0 -35 30 16 97 59 78 83 120 97 169 15 52 6 71
-55 115 l-45 32 0 63 0 63 65 20 c63 20 150 37 225 44 19 2 36 5 38 5 1 1 27
-15 58 -35z m-504 -130 c27 -24 23 -75 -8 -112 -34 -41 -193 -146 -203 -135
-12 13 -65 213 -59 220 7 6 192 42 227 43 14 1 33 -6 43 -16z m-2 -291 c0 -35
-7 -46 -82 -118 l-82 -79 -12 50 c-24 101 -24 102 69 145 45 22 88 40 95 40 7
0 12 -14 12 -38z m347 -494 c19 -20 24 -53 45 -271 l24 -249 -45 8 c-57 9 -72
9 -138 -1 -52 -7 -53 -7 -53 18 0 17 31 70 87 148 l87 122 -43 39 c-41 39 -43
40 -94 33 -130 -18 -232 -92 -284 -206 -26 -56 -53 -53 -53 6 0 38 3 45 20 45
11 0 20 4 20 8 0 17 133 168 188 215 76 65 130 92 213 106 3 1 15 -9 26 -21z
m-187 -309 c0 -23 -18 -55 -70 -123 -38 -51 -70 -101 -70 -112 0 -12 19 -31
51 -52 49 -32 52 -33 106 -22 31 5 99 10 150 10 l93 0 0 -77 c1 -43 5 -125 10
-183 8 -91 6 -119 -12 -210 -12 -58 -22 -106 -23 -108 -4 -5 -84 33 -150 72
-106 62 -198 155 -240 240 -44 89 -58 165 -53 286 5 119 21 154 110 243 76 75
98 83 98 36z"/>
<path d="M1320 2365 c-91 -26 -166 -82 -224 -169 l-26 -39 21 -23 21 -22 62
45 c75 56 167 103 200 103 l25 0 -26 -62 c-40 -99 -88 -197 -137 -278 -50 -82
-54 -100 -30 -124 36 -37 78 -21 275 100 191 117 209 135 174 164 -14 11 -67
4 -177 -27 -28 -7 -22 14 26 96 51 88 79 166 72 196 -3 12 -18 27 -33 34 -44
20 -161 23 -223 6z"/>
<path d="M870 2234 c6 -14 24 -89 41 -167 36 -164 91 -352 120 -408 17 -34 24
-39 54 -39 18 0 36 4 39 9 4 5 1 32 -5 60 -8 37 -7 65 1 105 10 51 9 59 -25
146 -71 185 -161 320 -213 320 -19 0 -20 -3 -12 -26z"/>
</g>
</svg>
