<?xml version="1.0" standalone="no"?>
<!DOCTYPE svg PUBLIC "-//W3C//DTD SVG 20010904//EN"
 "http://www.w3.org/TR/2001/REC-SVG-20010904/DTD/svg10.dtd">
<svg version="1.0" xmlns="http://www.w3.org/2000/svg"
 width="360.000000pt" height="360.000000pt" viewBox="0 0 360.000000 360.000000"
 preserveAspectRatio="xMidYMid meet">
<metadata>
Created by potrace 1.15, written by Peter Selinger 2001-2017
</metadata>
<g transform="translate(0.000000,360.000000) scale(0.100000,-0.100000)"
fill="#000000" stroke="none">
<path d="M1772 2777 c-29 -31 -31 -97 -3 -97 11 0 23 5 27 11 27 45 43 -195
25 -374 -22 -207 -70 -335 -137 -363 -47 -20 -59 -18 -98 16 -54 48 -96 120
-96 167 0 37 4 42 53 73 71 46 152 124 168 162 12 30 11 32 -27 64 -63 54 -73
49 -135 -71 -48 -93 -58 -106 -89 -116 -63 -21 -130 -59 -130 -74 0 -8 20 -44
44 -79 45 -65 99 -191 111 -258 6 -30 4 -38 -7 -38 -13 0 -13 -8 1 -59 14 -53
14 -70 -1 -172 l-15 -114 26 -21 26 -22 92 33 c82 29 94 31 105 18 11 -13 6
-22 -32 -55 -24 -22 -82 -58 -129 -80 l-85 -41 -66 22 c-80 25 -178 29 -187 6
-6 -16 22 -55 40 -55 20 0 246 -85 332 -125 93 -43 155 -87 155 -110 0 -17
-115 -124 -208 -193 -90 -66 -236 -144 -312 -166 -30 -9 -97 -19 -147 -23 -51
-3 -93 -10 -93 -15 0 -40 61 -78 125 -78 45 0 275 76 387 128 118 54 220 122
298 198 l66 63 113 -90 c240 -190 434 -314 550 -349 52 -17 92 -20 235 -20
167 0 173 1 194 23 24 26 27 48 12 78 -9 15 -22 19 -63 19 -66 0 -211 24 -304
50 -188 52 -411 176 -607 335 l-37 30 55 115 c67 141 106 255 106 308 0 33 -6
45 -36 71 l-35 32 29 33 c85 98 182 310 288 635 19 58 34 115 34 127 0 16 -21
39 -72 79 l-73 57 -67 -5 c-37 -3 -96 -18 -134 -33 l-68 -27 -23 29 c-20 25
-22 35 -16 69 14 69 8 187 -10 222 -37 71 -113 95 -155 50z m453 -454 c-30
-223 -49 -301 -95 -393 -51 -101 -139 -169 -217 -170 -30 0 -33 3 -33 30 0 24
7 33 39 49 21 11 73 57 115 102 67 73 76 87 76 121 0 32 -5 41 -32 58 -42 25
-96 36 -110 22 -24 -24 -50 76 -32 123 14 35 167 94 247 94 l47 1 -5 -37z
m-247 -267 c4 -20 -34 -66 -55 -66 -21 0 -15 41 9 67 24 26 41 25 46 -1z
m-208 -188 c-1 -41 -4 -46 -75 -105 -40 -35 -78 -63 -83 -63 -10 0 -14 14 -28
93 -6 35 -5 37 19 37 32 0 83 22 126 54 19 14 36 26 38 26 2 0 3 -19 3 -42z
m185 -250 c4 -13 16 -30 27 -39 20 -16 20 -16 -3 -38 -25 -23 -78 -41 -121
-41 -27 0 -28 2 -28 49 0 48 0 49 48 69 60 27 69 27 77 0z m12 -224 c3 -9 -20
-70 -52 -140 -64 -138 -62 -136 -150 -110 -53 17 -95 50 -95 78 0 23 102 98
203 150 82 43 85 44 94 22z"/>
<path d="M1021 2020 c-44 -21 -90 -56 -146 -111 l-83 -80 -51 26 c-28 15 -69
29 -92 32 l-42 6 6 -42 c3 -24 14 -53 25 -64 11 -13 24 -52 32 -97 19 -114 68
-308 90 -357 22 -50 45 -55 79 -19 l22 23 -31 194 c-16 107 -33 206 -36 221
-5 25 -2 28 38 38 24 7 80 31 126 55 45 24 82 41 82 37 0 -4 -27 -88 -60 -187
-33 -99 -60 -189 -60 -200 0 -27 43 -68 65 -63 22 4 364 270 365 284 0 5 -6
18 -12 27 -12 15 -19 15 -78 2 -36 -8 -77 -14 -92 -15 l-27 0 34 95 c19 53 35
105 35 116 0 12 -14 41 -32 65 -39 55 -66 57 -157 14z"/>
</g>
</svg>
