<?xml version="1.0" standalone="no"?>
<!DOCTYPE svg PUBLIC "-//W3C//DTD SVG 20010904//EN"
 "http://www.w3.org/TR/2001/REC-SVG-20010904/DTD/svg10.dtd">
<svg version="1.0" xmlns="http://www.w3.org/2000/svg"
 width="360.000000pt" height="360.000000pt" viewBox="0 0 360.000000 360.000000"
 preserveAspectRatio="xMidYMid meet">
<metadata>
Created by potrace 1.15, written by Peter Selinger 2001-2017
</metadata>
<g transform="translate(0.000000,360.000000) scale(0.100000,-0.100000)"
fill="#000000" stroke="none">
<path d="M1985 3054 c-38 -7 -85 -16 -102 -19 -24 -4 -33 -11 -33 -25 0 -18 7
-20 74 -20 73 0 74 0 79 -29 10 -47 34 -53 118 -30 126 35 161 69 118 115 -20
22 -30 24 -103 23 -45 0 -112 -7 -151 -15z"/>
<path d="M1496 2978 c-8 -84 -42 -165 -105 -248 -46 -62 -52 -87 -18 -94 107
-24 171 -43 225 -67 l64 -28 -75 -98 c-41 -54 -87 -123 -102 -153 -92 -183
-344 -481 -614 -724 -72 -65 -73 -67 -56 -86 29 -32 71 -25 133 21 264 200
565 559 786 942 16 26 35 47 44 47 26 0 275 -104 313 -130 19 -13 38 -30 43
-38 4 -8 40 -29 80 -47 173 -80 433 -139 785 -179 115 -14 126 -13 138 2 21
28 15 41 -26 62 -70 35 -215 70 -503 120 l-166 29 -290 131 -289 131 23 147
c18 118 20 150 10 160 -22 22 -71 -30 -119 -127 -24 -48 -46 -93 -48 -100 -4
-11 -23 -11 -103 5 -54 10 -100 24 -103 30 -2 7 9 55 26 108 17 53 31 118 31
144 0 41 -5 53 -33 80 -18 18 -35 32 -39 32 -3 0 -8 -33 -12 -72z"/>
<path d="M852 2388 l-163 -121 21 -21 20 -21 100 34 c55 19 101 33 104 30 2
-2 -27 -84 -65 -183 -38 -98 -69 -188 -69 -201 0 -12 9 -30 20 -40 19 -17 21
-17 62 1 51 23 160 100 286 202 l93 75 -29 30 -29 29 -53 -16 c-30 -9 -57 -16
-62 -16 -21 0 -3 42 47 112 60 83 66 111 35 151 -20 25 -116 77 -142 77 -7 -1
-86 -55 -176 -122z"/>
<path d="M1833 2398 c-16 -8 -23 -20 -23 -39 0 -63 -105 -233 -236 -382 -47
-53 -54 -66 -49 -92 6 -34 40 -88 96 -156 l39 -46 -130 -122 c-80 -76 -130
-130 -130 -142 0 -55 75 -155 161 -215 25 -17 55 -54 80 -95 21 -37 53 -82 70
-99 29 -29 31 -34 22 -65 -12 -39 -126 -208 -217 -321 -79 -99 -173 -187 -229
-215 -55 -28 -52 -23 -37 -69 12 -37 16 -40 49 -39 33 1 46 12 158 132 279
302 471 534 605 732 81 120 178 303 178 336 0 21 -45 59 -70 59 -9 0 -43 -9
-75 -20 -69 -24 -104 -25 -111 -5 -5 12 75 136 148 232 6 8 -2 24 -24 48 -27
29 -44 38 -94 48 l-61 11 83 106 c94 117 100 139 63 213 -12 23 -23 43 -24 45
-2 2 -41 -7 -89 -19 -47 -13 -88 -20 -91 -17 -3 3 4 29 15 59 22 55 21 108 -3
127 -21 17 -51 21 -74 10z m6 -484 c-89 -136 -92 -139 -128 -139 -34 0 -36 2
-45 43 -6 28 -5 51 2 67 22 47 254 208 260 180 2 -7 -38 -75 -89 -151z m111
-209 c0 -2 -77 -91 -171 -197 -95 -106 -173 -194 -174 -196 -6 -6 -60 26 -78
46 -26 29 -18 52 22 66 23 7 50 31 81 71 55 71 111 116 218 173 70 38 102 50
102 37z m100 -298 c0 -25 -24 -71 -92 -180 -112 -177 -120 -181 -192 -89 -25
31 -46 64 -46 72 0 17 49 67 118 119 43 33 185 111 203 111 5 0 9 -15 9 -33z"/>
<path d="M467 2282 c-25 -27 -21 -40 22 -87 35 -39 39 -47 46 -120 12 -127 61
-351 90 -411 29 -59 64 -79 91 -52 12 12 13 36 4 157 -18 239 -66 384 -157
482 -49 53 -70 59 -96 31z"/>
</g>
</svg>
