<?xml version="1.0" standalone="no"?>
<!DOCTYPE svg PUBLIC "-//W3C//DTD SVG 20010904//EN"
 "http://www.w3.org/TR/2001/REC-SVG-20010904/DTD/svg10.dtd">
<svg version="1.0" xmlns="http://www.w3.org/2000/svg"
 width="360.000000pt" height="360.000000pt" viewBox="0 0 360.000000 360.000000"
 preserveAspectRatio="xMidYMid meet">
<metadata>
Created by potrace 1.15, written by Peter Selinger 2001-2017
</metadata>
<g transform="translate(0.000000,360.000000) scale(0.100000,-0.100000)"
fill="#000000" stroke="none">
<path d="M1970 2715 c-269 -65 -362 -97 -368 -128 -8 -41 78 -66 162 -47 45
10 50 9 64 -11 35 -50 190 0 288 92 49 47 55 57 52 88 -4 48 -18 48 -198 6z"/>
<path d="M2037 2455 c-49 -18 -88 -46 -159 -113 l-58 -55 -33 26 -33 25 -22
-32 c-28 -41 -28 -58 1 -91 15 -18 36 -28 65 -32 l42 -6 103 100 c117 113 160
139 200 120 32 -14 32 -13 7 -81 -17 -45 -33 -64 -98 -117 -115 -96 -238 -223
-258 -269 -17 -38 -63 -79 -192 -169 l-33 -23 -49 32 c-27 17 -57 30 -67 28
-24 -4 -50 -86 -70 -220 l-17 -107 25 -20 c37 -31 56 -26 70 17 26 81 59 133
105 161 74 48 473 246 574 287 153 60 290 91 290 64 0 -6 9 -6 26 0 35 14 64
12 64 -3 0 -34 -403 -267 -463 -267 -7 0 -25 25 -40 55 -22 46 -31 55 -53 55
-35 0 -76 -44 -99 -105 -10 -27 -24 -57 -32 -66 -7 -8 -13 -27 -13 -40 0 -14
-12 -49 -26 -77 -44 -88 -144 -155 -268 -178 -82 -16 -116 -36 -116 -68 0 -43
32 -60 103 -53 34 3 71 9 81 13 39 15 8 -69 -111 -306 -89 -177 -117 -242
-113 -260 9 -37 49 -37 127 0 46 21 69 27 73 19 16 -25 191 46 394 160 l109
61 76 -62 c92 -74 234 -169 316 -210 155 -79 366 -138 492 -138 52 0 61 3 72
24 7 12 11 33 9 46 -3 19 -24 30 -153 75 -279 97 -486 190 -637 287 -43 28
-78 51 -78 53 0 1 11 27 24 56 43 98 86 249 93 324 5 69 4 75 -22 110 -25 32
-33 36 -59 31 -55 -10 -209 -93 -298 -161 -47 -36 -91 -65 -97 -65 -21 0 53
122 98 161 102 91 256 188 496 316 136 72 158 80 222 86 83 7 146 30 141 52
-2 8 -43 51 -93 95 l-90 81 -130 -5 c-160 -7 -267 -26 -394 -72 -53 -19 -100
-34 -106 -34 -5 0 77 87 183 193 105 106 192 197 192 203 0 17 -63 72 -102 88
-46 19 -140 20 -191 1z m133 -1070 c0 -2 -20 -58 -45 -125 -25 -67 -45 -127
-45 -135 0 -22 -32 -18 -94 9 -61 27 -96 58 -96 84 0 23 68 73 175 129 73 39
105 50 105 38z m-231 -330 c19 -19 22 -28 15 -44 -13 -31 -110 -106 -184 -145
-63 -33 -180 -76 -207 -76 -25 0 -13 48 25 96 21 27 73 93 115 146 l77 98 68
-26 c37 -13 78 -36 91 -49z"/>
<path d="M1592 2347 c-5 -6 -22 -36 -37 -66 -25 -50 -27 -61 -20 -125 8 -87
30 -189 47 -216 19 -30 50 -24 91 18 35 36 37 41 37 106 0 56 -4 73 -25 100
-26 34 -65 135 -65 167 0 23 -15 32 -28 16z"/>
<path d="M1015 2199 c-71 -33 -132 -62 -133 -64 -2 -2 -1 -12 2 -23 11 -32 66
-52 145 -52 42 0 71 -4 71 -10 0 -38 -190 -340 -214 -340 -8 0 -29 6 -47 14
-30 12 -39 26 -68 98 -19 46 -46 101 -60 123 -26 39 -29 40 -89 43 l-62 3 0
-38 c0 -30 5 -41 22 -48 58 -27 84 -115 100 -339 l11 -159 31 -28 c61 -55 99
-27 111 82 14 127 10 119 65 119 38 0 68 10 133 43 89 46 387 237 387 249 0 3
-18 21 -41 39 l-40 32 -74 -39 c-40 -21 -76 -37 -78 -34 -3 3 16 47 41 99 42
83 47 103 51 172 3 77 3 77 -27 93 -67 35 -97 30 -237 -35z"/>
</g>
</svg>
