<?xml version="1.0" standalone="no"?>
<!DOCTYPE svg PUBLIC "-//W3C//DTD SVG 20010904//EN"
 "http://www.w3.org/TR/2001/REC-SVG-20010904/DTD/svg10.dtd">
<svg version="1.0" xmlns="http://www.w3.org/2000/svg"
 width="360.000000pt" height="360.000000pt" viewBox="0 0 360.000000 360.000000"
 preserveAspectRatio="xMidYMid meet">
<metadata>
Created by potrace 1.15, written by Peter Selinger 2001-2017
</metadata>
<g transform="translate(0.000000,360.000000) scale(0.100000,-0.100000)"
fill="#000000" stroke="none">
<path d="M2368 2809 c-49 -11 -144 -59 -229 -116 l-68 -45 -51 37 c-28 21 -54
35 -57 31 -4 -3 3 -128 15 -278 l20 -272 59 -50 c86 -74 163 -154 163 -169 0
-10 -46 -23 -157 -46 -87 -17 -161 -31 -165 -31 -5 0 -8 27 -8 61 0 58 -2 63
-46 115 -39 46 -52 54 -81 54 -45 0 -50 -18 -25 -87 l21 -55 -22 -83 -21 -82
-321 -160 -320 -160 -63 21 -62 20 -22 -21 c-24 -25 -20 -45 15 -68 33 -21
122 -31 141 -16 8 7 16 8 18 3 1 -6 116 35 253 89 138 55 261 102 274 106 23
6 23 4 17 -33 -4 -21 -17 -59 -29 -84 -21 -45 -146 -178 -222 -236 l-39 -31
27 -18 c37 -24 57 -14 153 77 120 114 212 247 229 331 3 16 25 47 48 71 72 71
199 122 417 166 98 20 115 21 253 10 137 -11 150 -10 168 6 50 45 -8 74 -166
82 l-110 5 -55 52 c-65 61 -87 74 -143 83 -35 6 -42 12 -44 32 -3 22 12 34
137 105 83 47 140 86 140 95 0 8 -9 26 -20 40 -30 38 -25 62 35 150 50 75 96
173 95 203 -1 18 -86 107 -102 106 -7 -1 -30 -5 -50 -10z m-9 -217 c-86 -153
-210 -296 -252 -290 -21 3 -22 9 -25 104 -2 90 0 103 18 127 29 36 96 74 200
114 101 38 108 32 59 -55z"/>
<path d="M1619 2677 c-63 -27 -150 -77 -262 -154 -43 -29 -80 -53 -83 -53 -2
0 -4 9 -4 20 0 28 -93 123 -116 118 -29 -5 -28 -33 5 -113 52 -124 81 -249 93
-402 11 -141 11 -142 44 -174 l32 -31 12 23 c7 12 15 51 18 86 4 57 7 63 27
63 12 0 28 -7 35 -15 25 -30 114 13 293 140 l109 77 -29 30 c-28 30 -54 33
-105 13 -15 -6 -18 -1 -18 33 0 24 8 49 20 65 36 45 60 110 60 163 0 40 -6 58
-31 92 -17 23 -34 42 -37 42 -4 0 -32 -11 -63 -23z m-24 -209 c-6 -52 -20 -87
-83 -203 -99 -184 -107 -195 -141 -195 l-28 0 -7 113 c-3 61 -13 141 -21 176
-9 35 -13 66 -11 69 8 7 269 101 284 101 11 1 13 -12 7 -61z"/>
<path d="M1985 1650 c-4 -6 26 -46 67 -88 67 -71 169 -198 211 -264 31 -50 24
-62 -58 -98 l-76 -33 -43 32 c-55 39 -124 43 -86 5 27 -27 51 -174 59 -355 4
-102 11 -191 15 -197 12 -19 41 -14 193 34 137 44 149 46 221 40 43 -4 91 -9
107 -12 25 -4 32 -1 43 23 22 48 15 81 -19 102 -17 11 -47 22 -65 26 -52 9
-44 37 51 174 57 82 85 131 85 150 0 20 -15 45 -52 85 l-53 57 -109 -21 c-139
-25 -136 -26 -136 8 0 79 -120 219 -257 301 -73 43 -88 48 -98 31z m535 -481
c0 -64 -70 -189 -155 -275 -79 -80 -167 -133 -191 -113 -24 20 -44 109 -44
198 l0 86 48 32 c107 72 207 111 290 112 l52 1 0 -41z"/>
<path d="M1532 1170 c-55 -19 -184 -90 -260 -143 -39 -26 -47 -28 -67 -17 -13
7 -31 10 -41 6 -16 -6 -15 -8 4 -29 25 -27 49 -142 66 -315 14 -140 29 -185
64 -190 19 -3 22 0 18 20 -3 13 -12 95 -21 183 -8 88 -17 171 -19 185 -4 23 9
34 138 118 78 51 148 92 154 92 8 0 12 -18 12 -47 0 -60 -37 -140 -114 -246
-31 -43 -56 -84 -56 -90 0 -7 9 -23 20 -37 l19 -25 206 102 205 103 0 35 c0
43 -4 43 -131 15 -51 -12 -94 -18 -97 -15 -3 3 18 60 47 126 l52 122 -32 33
c-39 41 -83 44 -167 14z"/>
</g>
</svg>
