<?xml version="1.0" standalone="no"?>
<!DOCTYPE svg PUBLIC "-//W3C//DTD SVG 20010904//EN"
 "http://www.w3.org/TR/2001/REC-SVG-20010904/DTD/svg10.dtd">
<svg version="1.0" xmlns="http://www.w3.org/2000/svg"
 width="360.000000pt" height="360.000000pt" viewBox="0 0 360.000000 360.000000"
 preserveAspectRatio="xMidYMid meet">
<metadata>
Created by potrace 1.15, written by Peter Selinger 2001-2017
</metadata>
<g transform="translate(0.000000,360.000000) scale(0.100000,-0.100000)"
fill="#000000" stroke="none">
<path d="M2253 2682 c-75 -73 -212 -292 -328 -523 -42 -83 -47 -89 -75 -89
-68 0 -140 55 -140 106 0 13 16 50 35 83 47 80 85 182 85 229 0 61 -30 82
-117 82 -57 0 -73 -4 -88 -20 -26 -28 -13 -47 39 -54 55 -9 55 -11 21 -112
-51 -151 -142 -302 -260 -431 -31 -35 -62 -63 -70 -63 -7 0 -15 16 -18 36 -10
61 -30 74 -112 74 -71 0 -73 -1 -141 -52 -91 -69 -164 -146 -171 -180 l-5 -28
-57 49 c-62 53 -120 87 -166 97 -28 5 -31 3 -40 -28 -10 -32 -7 -36 52 -105
67 -78 66 -76 78 -238 8 -101 29 -204 50 -244 13 -26 22 -31 51 -31 40 0 49
15 34 55 -24 62 50 355 112 446 36 53 95 92 132 87 24 -3 23 -5 -50 -182 -41
-98 -74 -184 -74 -190 0 -6 10 -24 23 -39 l22 -28 51 27 c94 48 309 209 312
234 4 22 2 23 -65 17 -37 -4 -80 -9 -96 -13 -31 -7 -32 -9 16 97 l25 57 49
-10 49 -10 118 120 117 120 37 -10 c20 -5 68 -26 105 -46 l68 -35 27 20 c15
11 44 42 64 69 43 56 164 289 229 442 43 100 45 102 76 102 27 0 33 -4 33 -21
0 -30 -66 -167 -139 -287 l-63 -104 23 -24 c12 -13 32 -24 43 -24 11 0 76 37
143 82 68 44 126 78 130 75 3 -4 -32 -48 -78 -99 -46 -51 -133 -149 -194 -216
-104 -116 -117 -127 -230 -191 -66 -38 -151 -79 -190 -91 -85 -28 -142 -55
-147 -72 -3 -8 -14 -5 -35 10 -29 21 -31 21 -47 3 -34 -38 -9 -74 62 -86 41
-7 43 -8 40 -38 -2 -25 -8 -33 -28 -35 -36 -5 -50 -20 -50 -53 0 -24 4 -29 25
-29 22 0 25 -4 25 -39 0 -66 -114 -255 -204 -340 -34 -32 -33 -41 8 -74 l35
-27 89 85 c49 47 92 85 96 85 3 0 28 -13 54 -30 34 -20 62 -30 90 -30 38 0 44
4 104 74 64 76 82 86 110 64 14 -12 14 -24 -3 -132 -14 -94 -23 -124 -41 -143
-52 -55 -242 -142 -508 -232 -153 -52 -155 -53 -212 -40 -32 6 -62 9 -66 5 -3
-4 11 -23 33 -41 59 -51 99 -48 335 26 217 67 481 144 640 186 88 23 125 27
230 27 188 0 328 -46 454 -149 31 -25 61 -45 68 -45 6 0 27 10 45 23 29 20 33
27 33 69 0 45 -2 48 -62 96 -109 86 -128 92 -280 92 -73 1 -161 7 -195 14 -34
7 -67 10 -75 5 -7 -4 -22 -6 -33 -3 -11 3 -60 -4 -108 -14 -70 -16 -95 -18
-123 -9 -35 11 -36 12 -30 51 16 116 18 196 6 211 -18 22 -5 108 26 172 30 62
91 125 159 164 88 51 90 44 29 -91 -30 -66 -54 -126 -54 -134 0 -59 46 -61
136 -5 36 22 71 38 77 36 5 -1 -45 -60 -111 -129 -116 -120 -136 -148 -111
-164 14 -8 310 190 383 257 63 57 69 82 32 122 -28 30 -82 47 -154 47 l-53 0
7 38 c8 46 29 89 46 94 16 6 -39 128 -57 128 -19 0 -124 -72 -218 -149 -83
-69 -122 -85 -122 -51 0 8 4 67 9 132 l8 116 120 46 c66 25 124 46 130 46 6 0
20 -8 30 -17 15 -14 40 -18 118 -18 93 -2 99 0 111 22 11 20 9 28 -18 66 l-31
42 -144 0 c-78 0 -164 -3 -190 -7 -37 -6 -48 -5 -48 6 0 7 11 18 24 24 31 14
146 110 291 245 125 116 144 147 110 180 -9 9 -34 22 -56 29 -35 10 -53 8
-132 -10 -51 -12 -95 -22 -99 -22 -15 0 -7 20 32 81 43 67 80 170 80 224 0 46
-26 65 -87 65 -45 0 -55 -4 -90 -38z m-265 -1104 c6 -33 7 -57 1 -62 -12 -13
-12 -63 1 -71 6 -4 5 -13 -3 -25 -9 -15 -9 -25 -1 -37 9 -15 -3 -35 -79 -123
-50 -58 -96 -111 -103 -119 -11 -12 -22 -11 -76 4 -35 9 -69 22 -75 27 -21 17
-15 76 12 116 36 53 34 112 -5 162 -16 21 -30 43 -30 49 0 6 15 18 33 27 57
30 261 103 288 103 24 1 27 -4 37 -51z"/>
</g>
</svg>
