<?xml version="1.0" standalone="no"?>
<!DOCTYPE svg PUBLIC "-//W3C//DTD SVG 20010904//EN"
 "http://www.w3.org/TR/2001/REC-SVG-20010904/DTD/svg10.dtd">
<svg version="1.0" xmlns="http://www.w3.org/2000/svg"
 width="360.000000pt" height="360.000000pt" viewBox="0 0 360.000000 360.000000"
 preserveAspectRatio="xMidYMid meet">
<metadata>
Created by potrace 1.15, written by Peter Selinger 2001-2017
</metadata>
<g transform="translate(0.000000,360.000000) scale(0.100000,-0.100000)"
fill="#000000" stroke="none">
<path d="M2023 2938 c-5 -7 -15 -31 -21 -54 -7 -23 -30 -62 -52 -87 -35 -39
-49 -47 -98 -57 -65 -13 -102 -33 -102 -55 0 -24 107 -19 182 8 107 39 248
147 248 189 0 48 -129 93 -157 56z"/>
<path d="M2223 2775 c-51 -22 -118 -71 -190 -138 l-65 -61 -24 29 -24 30 -20
-25 c-30 -39 -27 -100 8 -133 15 -15 35 -27 43 -27 7 0 27 21 43 46 48 75 133
161 188 188 68 34 88 34 88 -1 0 -50 -488 -516 -602 -574 -34 -17 -45 -19 -63
-9 -16 9 -32 9 -52 3 -23 -8 -35 -5 -66 15 -20 14 -39 23 -42 20 -3 -2 0 -31
5 -64 16 -95 16 -94 -37 -94 -27 -1 -72 -9 -101 -19 -44 -15 -54 -16 -64 -4
-8 10 -8 20 2 38 20 37 8 130 -20 160 -54 58 -193 4 -283 -110 -28 -35 -28
-37 -11 -56 25 -27 41 -24 109 21 54 36 85 49 85 35 0 -2 -33 -81 -74 -174
l-74 -170 33 -21 c67 -41 84 -33 260 120 88 77 168 140 177 140 20 0 38 -29
38 -59 0 -12 9 -29 20 -38 11 -10 20 -29 20 -43 0 -42 28 -125 48 -144 18 -16
31 -12 243 80 219 94 225 96 272 87 44 -9 51 -7 101 23 l54 32 43 -20 c24 -10
58 -30 76 -44 32 -25 33 -26 33 -104 l0 -80 -42 -27 c-54 -34 -333 -163 -353
-163 -19 0 -19 12 4 87 19 63 19 63 -2 118 -21 53 -23 55 -52 49 -50 -11 -189
-69 -385 -162 l-185 -87 -3 -50 c-3 -45 0 -54 28 -80 30 -28 30 -30 30 -134 0
-73 -9 -157 -30 -271 -17 -95 -30 -200 -30 -247 l0 -81 35 -22 34 -21 32 23
c44 32 159 166 239 278 l69 96 70 12 c38 6 81 17 96 24 24 11 26 15 23 72 l-3
61 -46 5 c-110 13 -106 82 9 167 80 60 444 235 458 221 7 -7 28 -318 21 -324
-3 -3 -42 19 -85 50 -74 52 -84 56 -137 56 -31 0 -65 -5 -75 -10 -29 -16 -69
-90 -81 -153 -29 -141 94 -422 250 -570 69 -66 141 -103 224 -112 90 -11 89
-14 51 192 -34 178 -34 184 1 196 5 2 -8 147 -33 358 -24 195 -43 357 -42 361
0 4 18 17 40 28 34 17 58 20 183 20 137 0 144 1 165 23 l22 23 -33 32 c-29 28
-39 32 -87 32 -50 -1 -175 -20 -226 -35 -19 -6 -22 -1 -33 56 -22 112 -55 157
-135 188 l-47 17 171 159 c93 87 170 165 170 173 0 25 -48 80 -94 107 -63 37
-119 39 -311 12 -93 -14 -172 -23 -174 -21 -2 2 36 47 85 100 227 244 218 233
208 262 -11 30 -77 72 -114 71 -14 0 -40 -6 -57 -14z m265 -503 c6 -42 -162
-240 -243 -287 -37 -21 -44 -22 -93 -12 -52 11 -54 12 -48 41 4 16 13 37 21
46 8 9 15 34 15 56 0 55 43 138 86 164 46 29 115 38 194 25 56 -9 65 -13 68
-33z m-438 -101 c0 -50 -19 -103 -67 -185 -23 -41 -43 -65 -52 -64 -13 3 -50
132 -51 180 0 11 28 34 78 62 42 25 80 46 85 46 4 0 7 -17 7 -39z m-257 -133
c3 -18 9 -77 13 -130 l6 -98 -28 -11 c-16 -6 -49 -16 -72 -22 -40 -11 -45 -10
-58 8 -19 26 -54 138 -61 196 l-5 46 54 6 c30 4 72 13 94 21 53 20 51 20 57
-16z m121 -528 c-2 -120 -94 -233 -278 -344 -74 -44 -106 -47 -106 -9 0 56
111 126 258 163 33 8 42 15 42 32 0 36 -29 58 -74 58 -32 0 -59 -12 -121 -50
-83 -52 -123 -61 -146 -34 -12 14 -9 20 21 46 53 45 219 154 270 177 29 14 61
20 90 19 l45 -3 -1 -55z m345 -390 c34 -33 74 -62 89 -65 80 -17 106 -56 130
-198 12 -75 13 -104 4 -160 -7 -37 -12 -83 -12 -102 0 -33 -2 -35 -35 -35 -66
0 -222 158 -282 285 -25 55 -28 70 -27 170 0 144 6 165 43 165 22 0 44 -15 90
-60z m-488 -10 c27 -15 37 -25 32 -34 -4 -7 -62 -86 -128 -174 -117 -158 -121
-161 -157 -162 -45 0 -45 2 -23 109 18 82 31 113 72 162 29 34 139 119 154
119 6 0 28 -9 50 -20z"/>
<path d="M1560 2620 c-9 -17 -5 -44 21 -129 17 -59 43 -132 58 -162 31 -64 59
-73 115 -37 58 38 52 61 -64 215 -55 73 -105 133 -110 133 -5 0 -14 -9 -20
-20z"/>
<path d="M680 2069 c0 -12 24 -52 54 -88 l53 -66 6 -105 c8 -120 22 -207 44
-262 14 -36 18 -38 59 -38 32 0 46 5 51 16 14 36 -60 375 -102 470 -34 77 -55
94 -115 94 -44 0 -50 -2 -50 -21z"/>
</g>
</svg>
