<?xml version="1.0" standalone="no"?>
<!DOCTYPE svg PUBLIC "-//W3C//DTD SVG 20010904//EN"
 "http://www.w3.org/TR/2001/REC-SVG-20010904/DTD/svg10.dtd">
<svg version="1.0" xmlns="http://www.w3.org/2000/svg"
 width="360.000000pt" height="360.000000pt" viewBox="0 0 360.000000 360.000000"
 preserveAspectRatio="xMidYMid meet">
<metadata>
Created by potrace 1.15, written by Peter Selinger 2001-2017
</metadata>
<g transform="translate(0.000000,360.000000) scale(0.100000,-0.100000)"
fill="#000000" stroke="none">
<path d="M2064 2859 c-18 -5 -46 -25 -64 -46 -27 -30 -31 -42 -26 -71 10 -65
40 -68 52 -7 7 40 14 43 37 17 16 -17 9 -44 -116 -435 l-134 -416 24 -23 25
-23 18 23 c10 12 23 46 30 75 6 28 74 232 151 451 l140 399 -32 33 c-34 35
-51 39 -105 23z"/>
<path d="M1123 2569 c-8 -8 2 -34 44 -106 l56 -94 -12 -231 c-8 -159 -16 -239
-26 -258 -17 -33 -64 -75 -144 -129 -73 -50 -120 -53 -205 -16 -31 14 -63 25
-70 25 -34 0 -21 -31 37 -88 57 -55 66 -60 107 -61 75 -1 127 18 180 66 43 39
52 43 71 33 19 -11 21 -18 16 -68 -4 -32 -9 -115 -13 -187 l-7 -130 -39 -43
c-63 -69 -116 -159 -128 -218 -11 -53 -11 -55 20 -94 17 -22 38 -40 45 -40 29
0 334 411 459 619 118 196 223 424 241 524 7 38 7 38 -20 35 -26 -3 -30 -11
-60 -99 -64 -191 -178 -374 -339 -544 -52 -55 -78 -77 -86 -69 -7 7 -4 74 11
214 11 113 21 210 23 215 2 6 35 23 73 38 93 36 163 82 163 105 0 10 -13 30
-28 45 -26 25 -34 27 -119 27 l-90 0 4 48 c28 368 22 431 -45 466 -40 20 -105
29 -119 15z"/>
<path d="M2337 2216 c-136 -41 -251 -76 -254 -80 -20 -20 70 -66 129 -66 13 0
96 31 183 69 l160 69 39 -22 c45 -25 103 -86 111 -118 3 -13 -10 -138 -29
-278 -24 -167 -32 -258 -26 -264 16 -16 12 -79 -15 -249 -40 -258 -89 -449
-149 -590 -27 -62 -51 -52 -141 58 -65 81 -95 109 -95 91 0 -2 18 -57 41 -122
45 -133 93 -230 117 -239 42 -16 132 105 217 293 l56 124 25 241 c39 386 70
606 114 811 23 105 17 142 -33 208 -41 54 -151 138 -180 137 -12 0 -134 -33
-270 -73z"/>
<path d="M1872 1772 c-67 -20 -121 -41 -119 -47 2 -5 24 -20 50 -33 41 -19 53
-21 85 -12 44 12 82 13 82 2 0 -4 -32 -42 -70 -85 -58 -64 -69 -81 -59 -93 16
-19 36 -12 149 52 239 134 269 201 110 238 -84 20 -84 20 -228 -22z"/>
<path d="M2170 1413 c-50 -8 -158 -47 -280 -103 l-126 -57 -52 20 c-51 19 -53
19 -73 1 -31 -28 -22 -109 15 -141 53 -45 82 -36 347 108 132 72 238 136 236
142 -6 18 -41 34 -67 30z"/>
</g>
</svg>
