<?xml version="1.0" standalone="no"?>
<!DOCTYPE svg PUBLIC "-//W3C//DTD SVG 20010904//EN"
 "http://www.w3.org/TR/2001/REC-SVG-20010904/DTD/svg10.dtd">
<svg version="1.0" xmlns="http://www.w3.org/2000/svg"
 width="360.000000pt" height="360.000000pt" viewBox="0 0 360.000000 360.000000"
 preserveAspectRatio="xMidYMid meet">
<metadata>
Created by potrace 1.15, written by Peter Selinger 2001-2017
</metadata>
<g transform="translate(0.000000,360.000000) scale(0.100000,-0.100000)"
fill="#000000" stroke="none">
<path d="M2051 3071 c-17 -21 -31 -42 -31 -46 0 -4 16 -29 35 -55 l35 -48 -2
-299 -3 -298 -110 -38 c-135 -47 -271 -84 -367 -100 l-72 -12 -195 -472 c-181
-438 -197 -473 -220 -473 l-23 0 5 218 c4 179 8 231 26 296 45 168 137 303
254 371 79 45 67 60 -90 113 l-133 44 0 51 c0 70 -15 119 -44 146 -21 20 -31
22 -66 16 -66 -11 -70 -34 -25 -147 48 -116 75 -218 75 -277 0 -45 -2 -48 -80
-119 -71 -63 -85 -72 -120 -72 -53 0 -134 -18 -156 -35 -18 -13 -17 -15 15
-49 30 -31 41 -36 80 -36 46 0 122 28 135 49 4 6 25 11 47 11 39 0 40 0 34
-32 -3 -18 -18 -163 -35 -322 -33 -316 -31 -348 17 -385 14 -12 41 -21 59 -21
58 0 88 55 194 350 114 321 200 520 248 579 24 31 14 67 103 -354 39 -187 72
-341 74 -343 1 -2 198 71 356 133 14 5 16 -38 23 -435 8 -545 12 -620 37 -620
14 0 20 14 29 70 9 54 9 74 0 85 -8 10 -8 19 -1 34 7 12 11 118 11 292 0 247
2 280 21 352 l22 79 -22 54 c-27 64 -23 95 20 147 39 47 151 101 271 131 100
25 101 26 75 86 l-15 35 154 242 c85 133 154 252 154 263 0 32 -102 133 -172
170 l-61 33 -161 -17 c-89 -10 -180 -20 -203 -23 l-43 -6 0 309 c0 289 -1 311
-20 341 -20 33 -50 56 -86 67 -17 5 -28 -2 -53 -33z m603 -771 c36 -28 66 -57
66 -66 0 -52 -99 -228 -234 -414 -42 -57 -76 -110 -76 -117 0 -14 -23 -12
-140 11 l-55 11 1 56 c1 74 40 145 115 212 l56 51 -20 34 c-20 33 -20 34 -77
27 l-57 -7 -12 70 c-9 52 -10 76 -2 91 16 30 74 45 311 84 14 2 32 5 41 6 9 0
46 -22 83 -49z m-560 -122 c9 -13 16 -43 16 -69 l0 -46 -187 -116 c-103 -63
-188 -115 -189 -114 -6 7 -23 209 -18 220 8 21 105 71 216 112 111 41 141 43
162 13z m16 -257 c0 -25 -34 -98 -71 -153 -40 -58 -244 -278 -259 -278 -7 0
-33 191 -26 197 2 3 22 -5 45 -16 39 -20 111 -29 111 -13 0 4 -16 35 -34 70
l-34 63 106 69 c98 63 162 88 162 61z m-5 -268 c-10 -55 -29 -87 -76 -127 -39
-33 -102 -56 -116 -43 -10 11 66 124 112 166 24 22 54 41 66 41 19 0 21 -4 14
-37z m138 -25 c-25 -28 -33 -22 -33 24 l0 41 25 -23 c23 -22 24 -25 8 -42z"/>
</g>
</svg>
