<?xml version="1.0" standalone="no"?>
<!DOCTYPE svg PUBLIC "-//W3C//DTD SVG 20010904//EN"
 "http://www.w3.org/TR/2001/REC-SVG-20010904/DTD/svg10.dtd">
<svg version="1.0" xmlns="http://www.w3.org/2000/svg"
 width="360.000000pt" height="360.000000pt" viewBox="0 0 360.000000 360.000000"
 preserveAspectRatio="xMidYMid meet">
<metadata>
Created by potrace 1.15, written by Peter Selinger 2001-2017
</metadata>
<g transform="translate(0.000000,360.000000) scale(0.100000,-0.100000)"
fill="#000000" stroke="none">
<path d="M1067 2492 c-34 -37 -22 -79 42 -146 l60 -61 -23 -125 c-42 -223 -89
-363 -137 -406 -13 -12 -88 -50 -166 -85 -79 -34 -143 -68 -143 -74 0 -6 11
-22 25 -35 24 -22 28 -23 88 -12 34 6 94 27 132 47 83 42 110 45 102 13 -3
-13 -9 -87 -13 -165 -5 -105 -4 -146 5 -157 8 -10 9 -16 1 -21 -6 -4 -10 -113
-10 -324 0 -359 -2 -351 76 -351 39 0 39 1 82 83 30 58 57 137 92 270 83 311
192 644 292 892 46 114 53 125 79 125 13 0 20 -10 24 -37 61 -371 127 -542
226 -583 16 -7 29 -18 29 -25 0 -17 -161 -175 -235 -230 -33 -25 -103 -67
-155 -93 -87 -43 -95 -50 -98 -78 -3 -29 0 -32 36 -41 33 -9 49 -6 98 14 162
65 570 185 826 241 l86 19 164 -68 c89 -38 166 -69 171 -69 17 0 77 56 77 71
0 25 -102 113 -166 145 -52 26 -59 27 -115 16 -42 -8 -75 -8 -112 -1 -46 10
-79 5 -287 -34 -132 -26 -239 -41 -244 -37 -17 17 56 110 109 138 17 8 45 18
64 21 32 6 50 29 287 381 200 297 253 382 254 408 0 51 -42 121 -114 191 l-67
64 -93 -5 c-82 -4 -101 -9 -152 -38 -33 -18 -97 -53 -143 -79 -176 -96 -280
-255 -281 -428 0 -40 -4 -53 -15 -53 -8 0 -17 10 -19 23 -46 242 -66 308 -103
349 -36 40 -73 8 -73 -63 0 -22 -450 -1182 -464 -1196 -1 -2 -13 11 -25 28
-22 30 -22 32 -11 158 9 93 9 137 1 167 -9 31 -7 80 9 229 11 105 23 205 26
224 7 46 80 121 173 178 42 26 78 48 80 50 3 2 -6 14 -19 28 -34 36 -88 34
-146 -5 l-44 -31 0 33 c0 67 77 278 102 278 28 0 -27 120 -85 187 -37 41 -119
103 -137 103 -4 0 -14 -8 -23 -18z m1427 -233 c15 -11 35 -37 45 -58 19 -35
19 -39 2 -86 -35 -98 -127 -251 -241 -402 l-49 -64 -6 48 c-13 92 -27 113 -79
113 -39 0 -60 -21 -110 -112 l-37 -67 12 -84 c11 -82 11 -86 -11 -117 l-22
-32 -34 33 -34 33 0 130 c0 85 7 180 21 269 l22 138 85 70 c222 184 364 245
436 188z"/>
</g>
</svg>
