<?xml version="1.0" standalone="no"?>
<!DOCTYPE svg PUBLIC "-//W3C//DTD SVG 20010904//EN"
 "http://www.w3.org/TR/2001/REC-SVG-20010904/DTD/svg10.dtd">
<svg version="1.0" xmlns="http://www.w3.org/2000/svg"
 width="360.000000pt" height="360.000000pt" viewBox="0 0 360.000000 360.000000"
 preserveAspectRatio="xMidYMid meet">
<metadata>
Created by potrace 1.15, written by Peter Selinger 2001-2017
</metadata>
<g transform="translate(0.000000,360.000000) scale(0.100000,-0.100000)"
fill="#000000" stroke="none">
<path d="M2043 2951 c-10 -16 -8 -22 8 -37 10 -9 32 -44 49 -77 30 -59 30 -62
30 -223 l0 -163 -33 -25 c-50 -39 -187 -99 -332 -148 -122 -41 -134 -43 -187
-34 -50 8 -60 7 -78 -9 -21 -19 -20 -19 22 -62 30 -31 50 -43 71 -43 23 0 137
32 520 146 14 5 17 -2 17 -41 0 -43 -9 -59 -168 -283 -225 -316 -205 -282
-192 -332 10 -38 5 -70 -60 -347 -61 -261 -70 -310 -60 -337 7 -21 7 -32 0
-34 -21 -7 15 -125 44 -144 6 -4 22 -8 36 -8 l26 0 21 170 c11 94 23 174 27
177 4 4 16 2 26 -5 24 -14 118 -15 178 -2 67 16 110 -18 62 -48 -33 -20 -26
-76 18 -144 20 -32 42 -58 49 -58 18 0 33 58 33 129 0 130 47 249 113 290 47
29 133 46 152 31 11 -9 20 -8 39 7 32 23 32 37 0 62 -34 27 -80 27 -165 -1
-54 -17 -71 -19 -83 -9 -36 30 35 143 168 266 l90 83 -29 37 -28 37 -66 -7
c-36 -3 -74 -9 -83 -11 -16 -5 -18 3 -18 65 0 67 1 71 23 71 12 0 73 5 135 11
97 9 117 8 137 -5 43 -28 74 -172 75 -343 0 -66 5 -103 17 -128 14 -29 15 -38
4 -44 -11 -7 -10 -18 3 -64 24 -83 22 -510 -2 -621 -10 -44 -23 -81 -29 -83
-5 -2 -47 37 -93 87 -45 49 -89 90 -96 90 -63 0 17 -170 146 -313 43 -47 57
-57 84 -57 43 0 62 22 83 100 16 59 18 112 15 595 -2 292 -6 595 -10 675 l-7
144 -59 48 c-33 26 -81 55 -107 63 -46 15 -50 15 -183 -19 -130 -32 -137 -33
-146 -16 -25 46 2 142 52 188 35 32 206 113 426 203 157 64 182 77 180 94 -2
12 -21 29 -48 43 l-45 24 -278 -44 -277 -44 -12 40 c-8 30 -8 62 0 120 9 58 9
83 1 93 -9 10 -8 13 1 13 18 0 5 55 -26 108 -17 28 -47 57 -86 83 -69 44 -79
46 -95 20z m385 -573 c-3 -30 -9 -35 -78 -65 -41 -17 -78 -32 -82 -32 -5 -1
-8 14 -8 32 0 33 2 35 78 65 42 17 81 31 85 31 5 1 7 -14 5 -31z m-298 -633
l0 -55 -52 -34 c-45 -28 -142 -76 -154 -76 -2 0 -4 16 -4 35 0 64 125 185 192
185 15 0 18 -8 18 -55z m0 -232 l0 -48 -142 -142 c-79 -79 -148 -143 -155
-143 -15 0 -15 5 0 169 l12 124 125 43 c163 55 160 55 160 -3z"/>
<path d="M2525 2890 l-20 -22 90 -85 c85 -79 92 -83 130 -81 l40 3 0 52 c-1
90 -58 145 -158 151 -54 4 -65 1 -82 -18z"/>
<path d="M1036 2521 c-17 -19 -15 -22 38 -92 78 -103 86 -132 86 -319 l0 -157
-154 -121 c-148 -117 -177 -134 -191 -112 -3 6 -38 10 -76 10 l-70 0 3 -47 c3
-46 5 -49 53 -75 28 -15 59 -28 70 -28 36 0 139 56 216 118 43 34 80 62 83 62
19 0 -9 -251 -50 -449 -14 -68 -41 -175 -60 -237 -36 -120 -36 -154 -2 -229
11 -24 16 -26 62 -23 l50 3 31 80 c87 221 243 486 470 800 106 147 126 186 95
192 -34 7 -340 -398 -482 -641 -15 -25 -35 -46 -44 -46 -14 0 -15 7 -8 48 5
26 8 79 8 117 -1 56 2 72 16 82 15 10 16 18 7 50 -8 33 -3 58 34 188 l44 149
89 63 c48 34 91 64 94 67 2 3 -1 18 -7 34 l-12 29 -67 -19 c-111 -30 -102 -45
-102 170 0 175 -2 190 -24 238 -32 69 -88 114 -142 114 -28 0 -47 -6 -58 -19z"/>
</g>
</svg>
