<?xml version="1.0" standalone="no"?>
<!DOCTYPE svg PUBLIC "-//W3C//DTD SVG 20010904//EN"
 "http://www.w3.org/TR/2001/REC-SVG-20010904/DTD/svg10.dtd">
<svg version="1.0" xmlns="http://www.w3.org/2000/svg"
 width="360.000000pt" height="360.000000pt" viewBox="0 0 360.000000 360.000000"
 preserveAspectRatio="xMidYMid meet">
<metadata>
Created by potrace 1.15, written by Peter Selinger 2001-2017
</metadata>
<g transform="translate(0.000000,360.000000) scale(0.100000,-0.100000)"
fill="#000000" stroke="none">
<path d="M2084 2840 c-12 -12 -78 -40 -152 -65 -73 -24 -141 -49 -152 -55 -21
-11 -26 -40 -10 -56 7 -7 -2 -21 -25 -44 -19 -19 -35 -43 -35 -55 0 -12 16
-44 35 -71 l35 -49 0 -255 c0 -181 3 -259 12 -268 8 -8 8 -15 -1 -26 -10 -11
-10 -32 -1 -95 l12 -79 -30 -44 c-39 -56 -151 -186 -277 -322 -55 -59 -100
-111 -100 -115 0 -4 12 -22 28 -40 l27 -33 78 76 c133 130 243 206 297 206 29
0 29 1 10 -72 -18 -71 -75 -197 -160 -356 -36 -67 -65 -129 -65 -137 0 -27 63
-18 93 12 51 54 126 197 162 307 19 60 51 137 70 171 61 110 155 184 233 185
30 0 32 -2 26 -27 -23 -106 -90 -286 -149 -404 l-26 -51 -23 21 c-44 41 -90
21 -74 -33 9 -28 3 -49 -46 -168 -31 -75 -56 -139 -56 -142 0 -16 28 0 97 54
41 33 82 60 89 60 7 0 18 -19 24 -42 52 -203 80 -282 111 -322 17 -21 29 -26
67 -26 40 0 54 7 118 55 193 148 368 435 521 855 l45 125 -58 54 c-74 67 -170
136 -217 156 -25 10 -72 15 -150 15 -110 0 -120 -2 -338 -65 -123 -36 -236
-70 -251 -75 -21 -7 -28 -6 -28 5 0 16 121 146 201 216 l61 52 52 -28 c61 -33
81 -29 101 19 25 58 63 270 95 524 37 301 38 356 8 383 -42 36 -142 78 -203
84 -53 6 -62 4 -81 -15z m116 -89 c14 -10 33 -33 44 -50 18 -32 18 -35 -4
-207 -19 -146 -21 -179 -10 -199 10 -19 10 -33 1 -72 -17 -64 -41 -102 -105
-161 -49 -44 -198 -132 -225 -132 -8 0 -11 53 -11 168 l0 167 75 48 c41 26 81
47 89 47 26 0 29 -38 5 -76 -18 -30 -20 -38 -8 -49 12 -12 23 -4 78 56 l64 70
-29 30 c-34 36 -77 38 -179 9 -38 -11 -73 -16 -77 -12 -15 15 -68 152 -68 176
0 20 24 41 133 119 119 86 135 95 167 90 19 -3 46 -13 60 -22z m385 -1121 c71
-34 135 -99 135 -136 0 -34 -51 -197 -99 -317 -46 -116 -107 -232 -169 -326
-64 -95 -194 -231 -222 -231 -38 0 -139 202 -161 322 l-12 65 71 115 c82 135
147 260 173 337 21 61 25 136 7 147 -7 4 6 16 33 31 59 31 171 28 244 -7z"/>
<path d="M1031 2486 c-29 -30 -21 -64 17 -72 15 -3 33 -7 40 -10 8 -2 12 -31
12 -97 0 -56 4 -97 11 -104 19 -19 -7 -189 -33 -226 -28 -39 -142 -128 -265
-207 -58 -37 -102 -72 -102 -81 -1 -21 31 -49 55 -49 30 0 121 46 209 106 85
56 111 65 122 38 12 -33 -28 -492 -68 -764 -11 -80 -11 -87 9 -127 l21 -41 42
10 c50 13 79 50 148 192 82 168 298 702 288 712 -2 2 -85 -128 -185 -288 -226
-365 -211 -346 -212 -286 0 25 15 119 34 207 l34 161 -21 15 -21 15 22 16 c19
13 22 24 22 77 0 59 -2 63 -35 90 l-35 28 30 43 c37 55 104 111 213 179 l85
54 -20 32 c-12 18 -26 30 -33 28 -6 -3 -41 -8 -77 -12 -63 -7 -66 -6 -86 20
-20 25 -22 41 -23 144 l0 116 -64 53 c-71 58 -100 64 -134 28z"/>
</g>
</svg>
