<?xml version="1.0" standalone="no"?>
<!DOCTYPE svg PUBLIC "-//W3C//DTD SVG 20010904//EN"
 "http://www.w3.org/TR/2001/REC-SVG-20010904/DTD/svg10.dtd">
<svg version="1.0" xmlns="http://www.w3.org/2000/svg"
 width="360.000000pt" height="360.000000pt" viewBox="0 0 360.000000 360.000000"
 preserveAspectRatio="xMidYMid meet">
<metadata>
Created by potrace 1.15, written by Peter Selinger 2001-2017
</metadata>
<g transform="translate(0.000000,360.000000) scale(0.100000,-0.100000)"
fill="#000000" stroke="none">
<path d="M1943 2650 c-79 -16 -136 -57 -114 -84 9 -11 19 -12 45 -4 55 17 85
4 107 -47 16 -37 25 -45 46 -45 32 0 103 69 103 99 0 72 -72 103 -187 81z"/>
<path d="M1990 2284 l-104 -63 -22 20 c-22 21 -23 21 -53 3 -17 -10 -31 -24
-31 -30 0 -7 19 -26 43 -44 43 -32 53 -33 135 -13 12 3 22 0 22 -5 0 -6 -51
-78 -112 -160 -152 -201 -211 -301 -212 -355 -1 -41 -1 -42 32 -40 49 2 144
52 246 130 49 38 95 72 102 78 7 5 16 6 20 3 3 -4 -22 -42 -57 -85 -163 -200
-334 -350 -484 -424 -75 -37 -85 -40 -107 -27 l-25 13 88 165 c49 91 89 168
89 173 0 4 -6 7 -12 7 -13 0 -62 -72 -176 -260 -81 -132 -204 -380 -240 -484
-28 -80 -44 -99 -66 -75 -18 20 26 614 50 677 22 60 96 146 187 217 l76 60
-21 22 c-41 44 -148 21 -148 -32 0 -9 -9 -15 -25 -15 -17 0 -25 5 -25 18 0 57
25 206 46 268 22 68 22 75 9 122 -18 60 -53 113 -85 129 -21 10 -28 9 -47 -9
-28 -27 -29 -36 -2 -64 21 -22 21 -22 5 -231 -17 -231 -32 -292 -91 -379 -34
-50 -87 -99 -132 -123 -13 -6 -66 -16 -118 -21 -53 -5 -103 -14 -111 -21 -13
-10 -6 -16 42 -36 71 -29 111 -29 220 -2 46 12 87 19 90 16 3 -3 0 -33 -6 -68
-9 -47 -9 -68 0 -84 10 -18 8 -51 -9 -160 -15 -98 -18 -141 -11 -150 8 -9 7
-14 -1 -17 -15 -5 9 -158 41 -260 21 -68 65 -128 95 -128 28 0 92 165 161 419
l17 64 156 102 c483 317 870 490 1169 524 85 9 97 8 160 -13 l69 -24 77 21
c42 12 75 26 73 32 -14 42 -185 80 -321 71 -106 -7 -294 -44 -469 -92 -71 -19
-132 -34 -137 -32 -5 2 46 72 112 157 119 151 121 154 112 190 -14 54 -39 52
-194 -19 -73 -33 -135 -59 -137 -56 -3 3 47 95 111 206 l117 201 -21 29 c-12
17 -29 30 -38 29 -9 0 -64 -29 -122 -65z"/>
<path d="M2232 1300 c-135 -36 -312 -134 -467 -259 -27 -23 -56 -41 -63 -41
-7 0 -23 25 -37 55 -18 41 -28 53 -39 49 -19 -7 -20 -38 -6 -207 13 -152 23
-188 63 -234 38 -43 82 -63 162 -73 53 -6 77 -2 214 37 l155 44 88 -22 c85
-21 90 -21 108 -4 13 12 20 31 20 55 0 35 -5 40 -75 90 l-75 53 41 48 c51 61
146 148 177 162 23 11 24 15 19 73 -8 79 -32 138 -69 169 -37 31 -109 33 -216
5z m115 -162 c-45 -100 -178 -236 -377 -387 -63 -47 -90 -61 -116 -61 l-34 0
0 88 c1 130 36 195 152 274 76 51 166 92 293 134 115 38 121 35 82 -48z"/>
</g>
</svg>
