<?xml version="1.0" standalone="no"?>
<!DOCTYPE svg PUBLIC "-//W3C//DTD SVG 20010904//EN"
 "http://www.w3.org/TR/2001/REC-SVG-20010904/DTD/svg10.dtd">
<svg version="1.0" xmlns="http://www.w3.org/2000/svg"
 width="360.000000pt" height="360.000000pt" viewBox="0 0 360.000000 360.000000"
 preserveAspectRatio="xMidYMid meet">
<metadata>
Created by potrace 1.15, written by Peter Selinger 2001-2017
</metadata>
<g transform="translate(0.000000,360.000000) scale(0.100000,-0.100000)"
fill="#000000" stroke="none">
<path d="M1954 2875 c-23 -57 -21 -115 5 -137 13 -10 32 -18 43 -18 18 0 20
-4 14 -32 -3 -18 -15 -83 -26 -146 -22 -124 -35 -150 -103 -206 -42 -34 -173
-108 -213 -120 -21 -6 -21 -4 -26 158 -4 159 -6 167 -34 223 -51 100 -157 152
-210 102 l-21 -20 57 -57 c83 -83 92 -116 98 -339 2 -101 0 -183 -5 -183 -4 0
-27 11 -50 24 l-41 24 -31 -32 c-52 -54 -44 -71 57 -117 87 -40 132 -72 132
-94 0 -42 -212 -442 -311 -586 -107 -156 -219 -274 -219 -231 0 10 63 210 93
297 38 111 112 285 161 384 27 52 46 104 46 123 0 32 -1 31 -46 -35 -104 -156
-231 -421 -330 -689 -56 -154 -58 -158 -86 -158 -23 0 -28 4 -24 18 28 100 49
227 40 250 -8 20 -2 88 22 262 18 129 33 236 34 237 0 2 26 16 59 32 74 38
121 77 121 102 0 24 -48 54 -113 71 -45 11 -48 14 -42 38 13 54 18 357 6 393
-19 55 -63 87 -120 87 -62 0 -91 -28 -91 -88 l0 -42 41 0 40 0 -3 -238 -3
-238 -33 -66 c-52 -105 -142 -166 -260 -176 -34 -2 -65 -9 -68 -13 -3 -5 7
-20 23 -34 27 -23 34 -24 156 -25 l127 0 0 -47 c0 -27 -9 -183 -20 -348 -11
-165 -20 -331 -20 -368 0 -87 19 -127 59 -127 56 0 164 155 178 255 7 51 4 50
85 30 22 -6 37 6 119 95 103 111 169 201 169 232 0 18 4 20 33 14 106 -23 128
-20 222 27 49 25 91 44 94 42 2 -2 -33 -39 -78 -81 -101 -95 -192 -215 -221
-291 -21 -54 -21 -63 -10 -138 30 -201 95 -391 143 -417 16 -8 25 -4 51 20 42
42 107 68 266 108 104 26 155 34 226 34 82 0 93 2 112 23 12 13 22 27 22 31 0
4 -15 27 -34 52 l-34 44 69 172 c38 95 67 180 64 189 -10 30 -72 78 -117 90
-91 24 -243 -14 -371 -94 -39 -25 -114 -83 -165 -127 -80 -71 -95 -80 -108
-69 -24 19 -12 79 28 146 45 78 227 259 378 378 69 55 127 100 128 101 2 1 -6
16 -19 33 -28 38 -58 40 -155 10 -89 -27 -138 -53 -253 -130 -149 -101 -135
-94 -159 -78 l-20 15 21 49 c36 87 107 187 195 278 117 119 116 119 304 -12
293 -203 560 -351 697 -386 56 -14 79 -15 168 -5 95 11 125 10 166 -6 10 -3
17 4 21 22 6 21 1 33 -20 55 -23 24 -36 29 -73 29 -183 0 -443 98 -686 258
-144 94 -348 259 -342 276 3 6 26 81 52 166 27 85 52 161 58 168 7 8 50 12
152 12 125 0 144 2 158 18 20 22 22 56 5 69 -7 6 -43 13 -79 17 -77 7 -152 31
-170 53 -11 12 -7 45 19 176 l32 162 -57 52 c-48 44 -64 53 -96 53 -34 0 -40
-4 -53 -35z m-44 -660 c0 -3 -16 -53 -37 -111 l-36 -106 -51 5 c-72 7 -136 35
-136 58 0 34 181 158 233 159 15 0 27 -2 27 -5z m244 -1111 c13 -34 5 -74 -29
-141 -82 -164 -292 -323 -427 -323 l-50 0 4 78 c4 96 29 150 101 221 56 55
168 119 275 156 80 28 118 31 126 9z"/>
</g>
</svg>
