<?xml version="1.0" standalone="no"?>
<!DOCTYPE svg PUBLIC "-//W3C//DTD SVG 20010904//EN"
 "http://www.w3.org/TR/2001/REC-SVG-20010904/DTD/svg10.dtd">
<svg version="1.0" xmlns="http://www.w3.org/2000/svg"
 width="360.000000pt" height="360.000000pt" viewBox="0 0 360.000000 360.000000"
 preserveAspectRatio="xMidYMid meet">
<metadata>
Created by potrace 1.15, written by Peter Selinger 2001-2017
</metadata>
<g transform="translate(0.000000,360.000000) scale(0.100000,-0.100000)"
fill="#000000" stroke="none">
<path d="M1866 2831 c-21 -22 -27 -37 -24 -61 2 -27 9 -34 38 -44 l35 -11 3
-146 3 -146 -51 -47 c-58 -55 -155 -103 -222 -112 -53 -7 -59 -16 -25 -39 41
-26 81 -28 158 -6 l73 21 23 -22 c13 -12 23 -33 23 -47 0 -39 -40 -101 -88
-138 -60 -45 -86 -50 -137 -25 -41 20 -44 20 -59 3 -23 -26 -22 -123 2 -144
10 -10 25 -17 34 -17 22 0 100 43 162 90 29 22 56 40 60 40 4 0 6 -26 4 -57
-3 -55 -4 -58 -33 -63 -28 -5 -35 -14 -65 -80 -13 -30 -107 -91 -251 -165 -81
-41 -158 -75 -172 -75 -22 0 -26 5 -29 34 l-3 35 -90 -65 c-49 -36 -91 -69
-93 -74 -2 -5 1 -25 7 -46 9 -33 4 -50 -56 -201 -58 -145 -68 -164 -87 -161
-19 3 -21 10 -24 71 -4 87 19 265 53 404 30 127 59 173 170 266 60 50 70 63
70 90 0 31 -1 32 -43 30 -27 -1 -64 -14 -98 -32 -29 -17 -56 -31 -59 -31 -9 0
-5 273 5 315 8 36 6 46 -24 100 -18 33 -45 67 -60 75 -26 15 -28 14 -63 -24
l-36 -39 43 -37 42 -36 -10 -80 c-8 -58 -8 -99 0 -146 7 -45 7 -79 0 -114 -7
-34 -7 -52 0 -61 7 -9 7 -13 0 -13 -5 0 -13 -12 -17 -27 -11 -44 -42 -79 -108
-122 -44 -29 -72 -41 -99 -41 -85 0 -121 -42 -75 -88 l25 -25 116 23 c64 12
119 20 122 18 2 -3 -11 -182 -30 -397 -39 -434 -38 -463 15 -469 23 -3 32 5
62 55 54 88 184 403 246 593 10 31 26 43 139 106 291 164 560 284 785 351 121
36 124 36 337 40 189 4 226 2 305 -16 l90 -20 22 21 c13 12 23 27 23 34 0 18
-46 48 -114 73 l-59 22 -331 -31 c-182 -16 -343 -32 -358 -35 -16 -2 -28 0
-28 6 0 5 61 74 135 153 96 103 135 151 135 168 0 32 -58 88 -92 88 -15 0 -57
-16 -94 -35 -82 -43 -114 -46 -114 -10 0 59 47 121 104 136 66 18 125 49 132
71 8 27 -31 68 -65 68 -14 0 -37 -9 -51 -20 -14 -11 -41 -20 -62 -20 l-38 0
-1 153 0 152 -54 43 c-30 23 -60 42 -68 42 -7 0 -26 -13 -41 -29z m339 -641
c13 -22 -77 -142 -137 -182 -72 -49 -95 -30 -66 53 24 71 68 111 143 130 44
10 53 10 60 -1z"/>
<path d="M2185 1621 c-6 -6 -61 -26 -124 -45 -241 -74 -450 -162 -571 -240
l-71 -46 25 -31 c14 -17 26 -43 26 -57 0 -50 40 -306 61 -392 23 -92 50 -155
71 -162 7 -3 108 24 223 58 227 69 277 75 361 48 64 -22 66 -24 53 -62 -10
-29 -7 -41 24 -106 38 -80 70 -109 113 -104 37 4 66 62 98 198 54 224 133 798
115 832 -15 27 -78 53 -200 82 -137 33 -192 40 -204 27z m187 -118 l99 -37 -6
-85 c-27 -366 -54 -571 -81 -623 -21 -40 -69 -40 -77 0 -18 84 -88 131 -195
132 -53 0 -93 -11 -259 -71 -181 -65 -198 -70 -209 -54 -18 25 -50 167 -73
330 -30 204 -34 188 52 219 103 37 641 225 646 226 2 0 49 -17 103 -37z"/>
<path d="M1925 1304 c-88 -42 -164 -79 -169 -84 -11 -11 10 -205 28 -257 12
-35 16 -38 54 -41 34 -3 48 3 93 37 29 22 71 44 95 50 51 13 68 33 132 159 68
133 68 135 36 177 -41 55 -76 49 -269 -41z m153 -72 c5 -46 -16 -72 -96 -126
-86 -57 -105 -58 -120 -9 -11 36 -10 38 27 73 50 48 140 101 166 97 15 -1 21
-11 23 -35z"/>
</g>
</svg>
