<?xml version="1.0" standalone="no"?>
<!DOCTYPE svg PUBLIC "-//W3C//DTD SVG 20010904//EN"
 "http://www.w3.org/TR/2001/REC-SVG-20010904/DTD/svg10.dtd">
<svg version="1.0" xmlns="http://www.w3.org/2000/svg"
 width="360.000000pt" height="360.000000pt" viewBox="0 0 360.000000 360.000000"
 preserveAspectRatio="xMidYMid meet">
<metadata>
Created by potrace 1.15, written by Peter Selinger 2001-2017
</metadata>
<g transform="translate(0.000000,360.000000) scale(0.100000,-0.100000)"
fill="#000000" stroke="none">
<path d="M1863 2939 c-32 -33 -9 -59 50 -59 37 0 125 -39 146 -63 32 -39 111
-4 111 50 0 59 -30 73 -178 80 -89 4 -120 2 -129 -8z"/>
<path d="M2210 2741 c-127 -42 -289 -110 -574 -241 -66 -30 -68 -32 -51 -50
10 -11 26 -22 36 -25 12 -4 107 31 257 95 292 126 421 170 494 170 49 0 57 -3
88 -35 19 -19 37 -35 42 -35 14 0 78 62 78 76 0 21 -56 45 -139 60 -107 19
-135 17 -231 -15z"/>
<path d="M2001 2421 c-129 -84 -136 -88 -168 -78 -54 17 -57 5 -33 -131 23
-136 53 -244 74 -261 10 -8 17 -6 31 10 11 11 46 36 79 56 175 105 305 232
371 363 22 43 22 47 7 67 -33 40 -69 55 -149 59 l-78 4 -134 -89z m219 -33
c-1 -53 -94 -172 -189 -243 -44 -31 -49 -31 -89 6 -56 50 -46 67 98 163 119
81 180 106 180 74z"/>
<path d="M1023 2483 c-47 -9 -48 -29 -4 -79 52 -60 101 -184 71 -184 -6 0 -6
-9 0 -26 13 -33 12 -97 -1 -154 -23 -98 -85 -188 -175 -251 -54 -37 -141 -71
-149 -59 -10 17 -61 11 -78 -8 -23 -26 -22 -34 13 -67 27 -26 39 -30 103 -33
l72 -4 50 51 c49 51 83 64 102 39 14 -18 -12 -227 -39 -319 -23 -82 -26 -166
-7 -289 15 -99 32 -140 59 -140 18 0 34 25 90 143 102 212 381 869 378 888 -2
9 -95 -142 -206 -337 -112 -195 -208 -354 -213 -354 -12 0 -11 137 1 225 33
227 108 386 242 510 101 94 86 114 -59 76 l-73 -19 0 41 c0 23 4 69 10 101 9
56 8 63 -21 122 -48 98 -103 140 -166 127z"/>
<path d="M2360 2065 c-62 -14 -198 -66 -394 -149 -164 -69 -307 -126 -317
-126 -12 0 -22 15 -35 53 -23 72 -24 73 -50 41 -24 -30 -31 -73 -14 -90 7 -7
-10 -66 -55 -183 -78 -207 -79 -219 -28 -235 49 -15 89 60 141 263 l28 106 89
5 c87 5 95 8 226 72 215 107 425 170 613 184 76 6 86 5 92 -11 10 -25 -10 -37
-95 -59 -67 -17 -71 -20 -71 -47 l0 -29 93 0 c62 0 115 6 162 20 67 19 71 19
83 3 12 -17 14 -16 32 7 32 41 26 72 -26 119 -75 70 -110 81 -254 80 -92 -1
-150 -7 -220 -24z"/>
<path d="M2110 1759 c-101 -58 -209 -105 -279 -120 -37 -8 -51 -15 -51 -27 0
-34 39 -62 84 -62 20 0 26 -5 26 -22 -1 -25 -3 -27 -174 -217 l-119 -132 23
-24 c29 -31 46 -31 92 0 41 28 68 32 68 12 0 -8 -36 -76 -80 -153 -75 -130
-94 -184 -71 -199 12 -7 116 126 199 253 53 80 102 183 102 212 0 16 56 11 70
-5 11 -13 9 -32 -8 -103 -38 -154 -129 -312 -261 -452 -53 -57 -60 -70 -37
-70 27 0 132 -62 237 -141 59 -44 116 -79 129 -79 33 0 84 58 109 125 46 123
74 367 56 485 -10 63 -9 65 14 78 14 7 64 12 128 12 l106 0 209 -131 c187
-118 211 -131 232 -121 21 9 23 15 16 46 -19 83 -77 138 -213 201 -132 60
-205 75 -375 75 -138 0 -152 2 -152 17 0 10 89 107 198 216 l197 198 -47 44
c-62 59 -84 59 -99 0 -6 -25 -28 -72 -49 -103 -38 -59 -202 -222 -223 -222 -7
0 -46 9 -87 20 -41 11 -87 20 -102 20 -16 0 -28 5 -28 10 0 51 98 172 224 275
46 39 85 75 85 81 1 13 -41 54 -55 53 -5 0 -47 -22 -94 -50z m17 -686 c4 -21
8 -105 7 -188 0 -142 -2 -155 -33 -245 -45 -135 -40 -130 -106 -97 -60 29
-141 98 -150 127 -4 13 14 48 54 108 71 106 137 236 146 292 6 37 9 40 40 40
31 0 35 -3 42 -37z"/>
</g>
</svg>
