<?xml version="1.0" standalone="no"?>
<!DOCTYPE svg PUBLIC "-//W3C//DTD SVG 20010904//EN"
 "http://www.w3.org/TR/2001/REC-SVG-20010904/DTD/svg10.dtd">
<svg version="1.0" xmlns="http://www.w3.org/2000/svg"
 width="360.000000pt" height="360.000000pt" viewBox="0 0 360.000000 360.000000"
 preserveAspectRatio="xMidYMid meet">
<metadata>
Created by potrace 1.15, written by Peter Selinger 2001-2017
</metadata>
<g transform="translate(0.000000,360.000000) scale(0.100000,-0.100000)"
fill="#000000" stroke="none">
<path d="M1835 2603 l33 -88 -44 -500 c-36 -410 -42 -508 -33 -547 8 -34 7
-72 -2 -143 -14 -113 -5 -156 40 -199 22 -21 36 -27 62 -24 l34 3 -5 95 c-9
174 -4 613 8 755 7 77 24 234 38 349 16 129 23 211 17 215 -6 3 -13 21 -16 38
-10 50 -36 82 -88 109 -78 39 -81 35 -44 -63z"/>
<path d="M1040 2301 c0 -15 9 -21 40 -26 52 -9 87 -38 101 -84 9 -32 9 -42 -4
-62 -9 -13 -42 -94 -75 -180 -85 -227 -175 -360 -311 -459 -33 -24 -61 -50
-61 -58 0 -23 30 -25 80 -4 l50 21 101 -25 c166 -40 229 -74 229 -125 0 -54
-162 -299 -279 -423 -106 -111 -256 -196 -350 -196 l-26 0 33 -21 c51 -33 160
-23 249 22 124 63 285 238 425 461 l55 87 374 -261 c206 -143 406 -276 445
-294 181 -85 517 -144 816 -144 80 0 95 3 114 21 18 17 21 26 14 40 -18 32
-173 68 -296 69 -223 1 -592 138 -899 335 -130 83 -356 250 -422 311 l-41 39
9 80 c12 105 47 218 104 333 25 51 45 100 45 109 0 8 -16 31 -35 50 l-36 36
-74 -6 c-57 -4 -88 -13 -135 -38 -33 -17 -63 -29 -66 -26 -3 3 8 55 25 116 39
140 42 227 9 258 -22 21 -94 45 -170 58 -33 5 -38 3 -38 -14z m320 -546 c0
-46 -45 -183 -80 -242 -11 -19 -20 -41 -20 -49 0 -18 -19 -18 -105 4 -59 15
-71 22 -73 41 -6 42 48 131 130 213 68 67 84 78 114 78 34 0 34 0 34 -45z"/>
<path d="M1980 1697 l0 -33 138 -28 c169 -36 162 -33 162 -62 0 -20 -5 -24
-28 -24 -35 0 -52 -16 -52 -51 0 -34 29 -45 158 -61 85 -11 96 -11 127 7 40
21 44 42 20 121 -18 62 -63 116 -118 143 -39 19 -61 21 -225 21 l-182 0 0 -33z"/>
</g>
</svg>
