<?xml version="1.0" standalone="no"?>
<!DOCTYPE svg PUBLIC "-//W3C//DTD SVG 20010904//EN"
 "http://www.w3.org/TR/2001/REC-SVG-20010904/DTD/svg10.dtd">
<svg version="1.0" xmlns="http://www.w3.org/2000/svg"
 width="360.000000pt" height="360.000000pt" viewBox="0 0 360.000000 360.000000"
 preserveAspectRatio="xMidYMid meet">
<metadata>
Created by potrace 1.15, written by Peter Selinger 2001-2017
</metadata>
<g transform="translate(0.000000,360.000000) scale(0.100000,-0.100000)"
fill="#000000" stroke="none">
<path d="M1645 2698 c-51 -29 -49 -76 5 -119 30 -24 44 -46 55 -83 19 -62 34
-249 35 -414 0 -116 -1 -124 -24 -147 -33 -33 -86 -58 -196 -93 -161 -51 -150
-51 -194 13 -51 73 -104 119 -120 106 -10 -8 -3 -39 30 -138 40 -121 107 -397
120 -493 l5 -45 -113 -66 c-147 -87 -181 -103 -272 -134 -92 -31 -132 -32
-162 -4 l-23 21 -31 -22 c-26 -19 -30 -27 -25 -49 9 -36 48 -101 78 -129 l25
-24 374 171 c205 94 379 171 387 171 16 0 7 -102 -15 -163 -31 -89 -127 -188
-273 -284 -47 -31 -88 -58 -90 -60 -3 -2 5 -14 17 -26 l23 -22 83 43 c240 122
386 300 405 491 7 66 13 87 32 108 73 78 310 142 676 183 91 11 115 10 237
-11 131 -21 137 -21 156 -4 32 29 26 81 -13 120 -51 51 -88 53 -422 16 -342
-37 -335 -37 -335 -12 0 11 7 21 15 23 23 5 315 269 315 285 0 75 -127 203
-202 203 -18 0 -106 -23 -195 -52 -90 -28 -165 -50 -167 -47 -2 2 -9 134 -15
294 -13 323 -14 327 -89 379 -41 28 -66 32 -97 14z m575 -722 c0 -57 -74 -168
-182 -272 -107 -103 -190 -174 -205 -174 -10 0 -13 27 -13 113 0 97 3 119 24
162 23 49 70 104 113 132 66 43 263 73 263 39z m-512 -325 c-4 -98 -8 -116
-36 -173 -40 -79 -69 -101 -144 -106 -56 -4 -57 -4 -65 24 -4 16 -8 87 -8 158
0 127 0 129 26 148 33 25 140 56 193 57 l39 1 -5 -109z"/>
<path d="M2066 1123 c-15 -15 0 -39 94 -149 67 -80 131 -170 197 -281 87 -145
101 -163 122 -161 40 5 47 28 33 109 -24 140 -108 270 -239 368 -77 57 -197
124 -207 114z"/>
</g>
</svg>
