<?xml version="1.0" standalone="no"?>
<!DOCTYPE svg PUBLIC "-//W3C//DTD SVG 20010904//EN"
 "http://www.w3.org/TR/2001/REC-SVG-20010904/DTD/svg10.dtd">
<svg version="1.0" xmlns="http://www.w3.org/2000/svg"
 width="360.000000pt" height="360.000000pt" viewBox="0 0 360.000000 360.000000"
 preserveAspectRatio="xMidYMid meet">
<metadata>
Created by potrace 1.15, written by Peter Selinger 2001-2017
</metadata>
<g transform="translate(0.000000,360.000000) scale(0.100000,-0.100000)"
fill="#000000" stroke="none">
<path d="M1813 2582 c-9 -15 -7 -25 9 -50 15 -24 33 -35 76 -47 91 -26 172
-66 172 -84 0 -9 -9 -27 -20 -41 -19 -25 -19 -25 2 -47 12 -13 26 -23 31 -23
5 0 46 32 92 72 71 61 82 75 74 91 -22 39 -132 85 -309 127 -104 24 -112 25
-127 2z"/>
<path d="M1200 2487 c0 -20 13 -51 35 -85 l36 -52 -10 -78 c-6 -42 -17 -111
-26 -152 -18 -86 -105 -423 -112 -430 -2 -2 -74 67 -161 153 -127 127 -163
157 -185 157 l-28 0 23 -40 c13 -22 80 -118 151 -212 70 -94 127 -173 127
-176 0 -2 -17 -25 -38 -51 -55 -66 -115 -155 -225 -328 -80 -125 -97 -159 -97
-191 0 -26 7 -45 20 -57 19 -17 24 -16 167 34 82 28 157 51 169 51 32 0 107
-53 154 -109 83 -99 91 -67 51 201 -17 111 -31 211 -31 221 0 27 45 21 95 -13
53 -37 65 -37 95 -5 l24 26 -107 107 -107 107 0 53 c0 50 3 56 80 153 100 126
103 141 20 99 -58 -29 -62 -27 -54 28 10 69 40 163 91 285 52 124 53 162 7
228 -33 47 -113 109 -143 109 -17 0 -21 -6 -21 -33z m-79 -1024 c0 -38 6 -132
12 -210 8 -96 9 -143 2 -143 -6 0 -25 4 -44 10 -25 7 -54 4 -118 -10 -46 -11
-88 -20 -93 -20 -23 0 -9 87 24 155 44 92 185 285 208 285 4 0 8 -30 9 -67z"/>
<path d="M2445 2020 c-222 -73 -261 -89 -525 -223 -285 -143 -404 -196 -503
-221 -43 -11 -53 -17 -55 -37 -2 -13 3 -31 10 -40 12 -15 43 -5 328 107 173
68 330 124 348 124 29 0 32 -3 32 -28 0 -44 -292 -467 -507 -735 -99 -123
-115 -157 -74 -157 35 0 265 254 566 623 l129 159 92 -4 c102 -3 133 -17 167
-76 18 -30 18 -35 2 -114 -40 -195 -137 -415 -271 -615 -42 -62 -79 -115 -84
-118 -4 -2 -63 58 -130 135 -68 77 -129 140 -137 140 -28 0 -8 -41 105 -212
116 -177 117 -178 154 -178 33 0 42 7 93 68 156 187 275 421 361 714 19 68 36
140 35 162 0 53 -37 104 -108 152 -52 35 -66 39 -137 44 l-79 5 -23 67 -22 66
27 26 c36 34 134 77 274 120 l117 35 113 -11 c103 -10 116 -9 140 7 34 22 35
57 2 79 -18 12 -47 16 -112 15 -81 -1 -106 -7 -328 -79z"/>
</g>
</svg>
