<?xml version="1.0" standalone="no"?>
<!DOCTYPE svg PUBLIC "-//W3C//DTD SVG 20010904//EN"
 "http://www.w3.org/TR/2001/REC-SVG-20010904/DTD/svg10.dtd">
<svg version="1.0" xmlns="http://www.w3.org/2000/svg"
 width="360.000000pt" height="360.000000pt" viewBox="0 0 360.000000 360.000000"
 preserveAspectRatio="xMidYMid meet">
<metadata>
Created by potrace 1.15, written by Peter Selinger 2001-2017
</metadata>
<g transform="translate(0.000000,360.000000) scale(0.100000,-0.100000)"
fill="#000000" stroke="none">
<path d="M2192 2907 c-18 -18 -32 -40 -32 -48 0 -20 20 -39 41 -39 26 0 28 -9
16 -76 l-12 -61 -100 -80 c-121 -96 -327 -281 -530 -474 l-150 -142 -5 175
c-6 196 -5 195 -81 234 -48 24 -87 22 -104 -5 -3 -6 17 -41 45 -77 l50 -67 0
-221 0 -221 -49 -55 -49 -55 -32 30 c-45 42 -121 148 -165 228 -35 63 -56 80
-70 57 -10 -16 24 -119 66 -200 21 -41 66 -109 98 -150 l60 -75 -26 -35 c-152
-204 -277 -341 -381 -420 l-63 -48 31 -22 31 -22 132 46 c73 26 150 46 172 46
22 0 98 -15 169 -34 71 -19 136 -32 144 -29 12 5 13 27 7 147 -4 78 -8 154 -9
170 -1 27 3 31 44 43 137 39 156 73 66 117 -62 30 -119 89 -112 114 3 9 8 35
12 57 22 133 207 396 409 579 138 125 341 285 349 274 1 -1 12 -27 24 -55 l21
-53 -93 -92 c-110 -111 -209 -190 -335 -269 l-92 -58 20 -20 c11 -11 36 -23
56 -27 20 -3 39 -12 41 -19 3 -6 -5 -85 -16 -175 -18 -137 -19 -172 -9 -215
16 -68 36 -105 57 -105 9 0 44 35 78 78 88 110 191 220 216 227 13 5 26 1 36
-9 16 -15 14 -25 -22 -132 -104 -307 -274 -574 -459 -719 -76 -59 -93 -87 -61
-99 20 -7 114 67 252 199 111 105 208 223 252 307 28 51 34 58 46 46 30 -29
53 -211 70 -545 6 -131 -6 -233 -28 -233 -22 0 -48 22 -74 65 -30 46 -39 51
-63 36 -17 -11 -21 -2 69 -159 60 -106 79 -132 97 -132 12 0 24 8 27 18 3 9
19 71 37 137 l33 120 -21 165 c-14 110 -18 167 -11 171 7 5 2 93 -16 266 -14
143 -26 265 -26 272 0 6 16 11 37 11 29 0 45 -8 74 -36 34 -33 40 -36 77 -29
118 20 245 181 362 457 64 153 67 165 44 183 -18 14 -18 14 -1 15 22 0 16 29
-12 70 -49 69 -318 11 -476 -104 -29 -21 -62 -36 -77 -36 l-28 0 0 140 c0 155
4 170 66 247 28 34 34 50 34 90 0 39 -5 54 -23 71 -13 12 -29 22 -36 22 -9 0
-11 8 -8 23 3 12 9 56 13 98 5 62 3 82 -11 110 -31 60 -65 65 -113 16z m4
-732 c7 -38 10 -81 7 -95 -18 -79 -108 -197 -233 -306 -69 -60 -86 -71 -88
-55 -2 10 4 72 12 136 15 108 14 120 0 136 -22 24 -11 50 45 108 61 62 198
153 225 149 17 -2 23 -15 32 -73z m564 -43 c0 -112 -90 -303 -219 -464 -37
-47 -52 -58 -75 -58 -45 0 -111 37 -139 78 -31 44 -57 138 -57 203 0 43 4 50
53 96 123 116 276 191 395 192 l42 1 0 -48z m-1466 -640 c20 -39 36 -134 36
-215 0 -60 -2 -68 -17 -63 -10 3 -69 8 -130 12 -73 4 -113 11 -113 18 0 19 47
114 81 162 79 115 116 138 143 86z"/>
</g>
</svg>
