<?xml version="1.0" standalone="no"?>
<!DOCTYPE svg PUBLIC "-//W3C//DTD SVG 20010904//EN"
 "http://www.w3.org/TR/2001/REC-SVG-20010904/DTD/svg10.dtd">
<svg version="1.0" xmlns="http://www.w3.org/2000/svg"
 width="360.000000pt" height="360.000000pt" viewBox="0 0 360.000000 360.000000"
 preserveAspectRatio="xMidYMid meet">
<metadata>
Created by potrace 1.15, written by Peter Selinger 2001-2017
</metadata>
<g transform="translate(0.000000,360.000000) scale(0.100000,-0.100000)"
fill="#000000" stroke="none">
<path d="M2005 2879 c-121 -95 -301 -219 -316 -219 -5 0 -9 4 -9 8 0 5 -11 14
-24 20 -16 7 -29 25 -37 52 -11 38 -14 40 -51 40 l-38 0 0 -59 0 -59 66 -60
c61 -57 67 -60 97 -51 51 14 152 89 286 210 101 91 127 110 140 102 24 -16 16
-58 -21 -122 -43 -74 -246 -273 -386 -381 l-111 -85 5 -37 6 -37 -191 -95
-191 -96 -77 10 c-43 6 -91 12 -106 15 -50 8 -45 -21 14 -81 52 -52 55 -54
108 -54 50 0 74 10 343 150 159 83 291 150 293 150 3 0 5 -35 5 -78 0 -77 0
-78 -37 -114 -69 -66 -161 -118 -209 -118 -51 0 -92 -14 -100 -34 -3 -9 4 -29
16 -46 20 -27 26 -30 79 -30 51 0 65 5 127 45 38 24 73 45 77 45 25 0 -81
-135 -223 -284 -99 -104 -100 -106 -100 -154 0 -68 14 -78 82 -58 59 17 146
67 227 129 83 65 91 70 97 64 4 -3 -2 -18 -13 -34 -10 -15 -24 -40 -31 -55
-34 -81 -367 -239 -902 -428 -158 -56 -180 -61 -231 -56 -31 3 -63 8 -72 12
-11 4 -19 0 -23 -11 -8 -20 37 -69 87 -95 l36 -19 377 125 c207 68 383 124
391 124 18 0 20 -21 4 -37 -7 -7 -9 -23 -5 -38 9 -33 65 -60 164 -76 64 -11
72 -14 72 -34 0 -27 16 -19 -225 -101 -183 -62 -199 -65 -257 -48 -14 4 -18
-1 -18 -25 l0 -31 105 0 c182 0 341 47 537 161 l91 52 96 -23 c220 -53 473
-156 611 -250 85 -58 188 -149 230 -204 43 -56 85 -63 119 -20 41 53 31 73
-81 163 -280 224 -560 373 -775 413 -42 8 -63 16 -61 24 2 7 66 83 142 169
l139 155 158 0 c158 0 158 0 205 -30 57 -36 130 -53 209 -48 l60 3 -1 41 c-1
57 -34 105 -96 140 l-53 29 -215 0 c-118 0 -240 -3 -272 -7 l-56 -8 -57 47
c-67 54 -86 51 -97 -17 -13 -77 -53 -116 -129 -125 -34 -5 -49 -1 -68 13 l-24
20 46 65 c26 36 105 126 177 200 71 74 130 139 130 145 0 9 -65 72 -75 72 -3
0 -68 -31 -145 -70 -77 -38 -142 -70 -145 -70 -25 0 16 54 135 178 152 160
162 178 115 222 l-25 23 -88 -41 c-95 -46 -113 -49 -132 -27 -50 61 131 206
292 234 91 15 193 48 208 65 23 29 7 60 -43 85 l-47 23 -224 -101 c-123 -55
-228 -101 -235 -101 -6 0 -11 15 -11 34 0 30 9 41 99 114 134 110 251 230 279
286 21 42 22 51 12 101 -8 38 -19 61 -37 75 -46 36 -72 27 -198 -71z m103
-1568 c-1 -5 -43 -57 -93 -116 l-90 -107 -129 7 c-165 9 -168 10 -151 52 29
68 141 120 329 154 119 21 139 22 134 10z"/>
</g>
</svg>
