<?xml version="1.0" standalone="no"?>
<!DOCTYPE svg PUBLIC "-//W3C//DTD SVG 20010904//EN"
 "http://www.w3.org/TR/2001/REC-SVG-20010904/DTD/svg10.dtd">
<svg version="1.0" xmlns="http://www.w3.org/2000/svg"
 width="360.000000pt" height="360.000000pt" viewBox="0 0 360.000000 360.000000"
 preserveAspectRatio="xMidYMid meet">
<metadata>
Created by potrace 1.15, written by Peter Selinger 2001-2017
</metadata>
<g transform="translate(0.000000,360.000000) scale(0.100000,-0.100000)"
fill="#000000" stroke="none">
<path d="M1988 2829 l-27 -10 45 -58 c54 -70 74 -130 74 -224 0 -67 -1 -71
-38 -108 -29 -28 -51 -40 -83 -45 -36 -6 -56 -19 -108 -68 -71 -68 -215 -236
-371 -431 -147 -185 -133 -181 -126 -35 7 147 30 261 81 391 64 166 62 155 30
189 -23 24 -173 99 -178 88 -1 -2 -8 -13 -14 -25 -24 -43 -16 -84 24 -125 l36
-37 -36 -253 c-38 -265 -69 -413 -92 -444 -13 -18 -14 -18 -34 0 -11 10 -53
33 -93 50 -88 38 -166 86 -273 166 l-79 59 -23 -21 -24 -22 83 -84 c121 -122
241 -217 339 -266 l87 -44 -102 -135 c-101 -134 -101 -134 -215 -203 -62 -38
-132 -86 -155 -106 l-41 -36 45 -46 c35 -37 51 -46 78 -46 50 0 98 27 157 87
28 29 60 53 71 53 14 0 59 -53 149 -175 112 -149 134 -174 157 -175 15 0 30 4
33 10 3 5 -4 40 -15 77 -37 117 -61 253 -72 406 -14 175 -10 193 62 343 92
190 259 417 471 639 l91 95 69 0 c42 0 69 -4 69 -11 0 -5 -26 -40 -58 -78
-117 -136 -212 -292 -212 -349 0 -12 16 -39 34 -60 35 -37 35 -37 63 -20 54
34 108 58 131 58 19 0 22 -5 22 -40 0 -33 -7 -48 -40 -84 -22 -23 -68 -57
-104 -75 l-63 -33 -41 21 c-42 22 -77 27 -86 13 -2 -4 0 -26 6 -48 10 -35 5
-73 -35 -277 -26 -129 -47 -244 -47 -254 0 -21 59 -83 79 -83 7 0 61 43 119
95 58 52 109 95 114 95 14 0 9 -26 -18 -102 -53 -146 -139 -292 -257 -433 -37
-44 -67 -83 -67 -87 0 -5 11 -8 24 -8 18 0 57 31 137 107 216 207 325 392 346
590 7 57 11 68 28 71 11 1 121 -36 244 -82 211 -80 226 -84 256 -72 68 29 159
162 252 369 61 137 65 171 25 210 -24 23 -37 27 -89 27 -153 0 -456 -115 -610
-231 l-53 -40 0 96 c0 82 2 96 18 102 9 3 45 19 80 35 78 36 96 66 63 102 -21
22 -21 26 -8 58 8 19 65 92 127 162 l112 127 -28 31 c-27 28 -33 30 -85 25
-46 -4 -144 -37 -246 -84 -10 -4 -13 11 -13 56 l0 61 105 127 c60 72 105 135
105 147 0 43 -13 49 -81 42 -35 -4 -73 -10 -85 -12 -19 -5 -21 0 -28 67 -10
112 -57 198 -128 235 -15 8 -28 14 -30 13 -2 0 -15 -5 -30 -10z m32 -811 c0
-16 -61 -78 -77 -78 -22 0 -15 22 19 57 32 34 58 43 58 21z m258 -16 c-12 -15
-43 -51 -67 -80 -49 -58 -71 -66 -71 -24 1 47 93 132 143 132 17 0 17 -3 -5
-28z m532 -392 c0 -6 -5 -19 -12 -29 -9 -14 -9 -26 -1 -43 9 -20 3 -34 -51
-113 -33 -49 -82 -112 -108 -139 l-47 -48 -88 7 c-111 8 -194 27 -268 59 l-57
26 51 40 c144 114 324 211 435 235 74 16 146 19 146 5z m-813 -139 c-11 -94
-72 -179 -179 -251 -33 -22 -65 -40 -70 -40 -15 0 2 89 27 146 29 66 86 128
150 165 72 41 79 39 72 -20z m-789 -343 c4 -94 4 -98 -16 -98 -21 0 -120 77
-121 93 -1 5 25 38 56 74 69 78 74 74 81 -69z"/>
<path d="M2310 1008 c0 -22 46 -74 160 -183 46 -44 103 -126 177 -255 49 -86
71 -103 100 -79 12 11 14 25 8 72 -20 179 -136 320 -351 426 -46 22 -86 41
-89 41 -3 0 -5 -10 -5 -22z"/>
</g>
</svg>
