<?xml version="1.0" standalone="no"?>
<!DOCTYPE svg PUBLIC "-//W3C//DTD SVG 20010904//EN"
 "http://www.w3.org/TR/2001/REC-SVG-20010904/DTD/svg10.dtd">
<svg version="1.0" xmlns="http://www.w3.org/2000/svg"
 width="360.000000pt" height="360.000000pt" viewBox="0 0 360.000000 360.000000"
 preserveAspectRatio="xMidYMid meet">
<metadata>
Created by potrace 1.15, written by Peter Selinger 2001-2017
</metadata>
<g transform="translate(0.000000,360.000000) scale(0.100000,-0.100000)"
fill="#000000" stroke="none">
<path d="M2295 2669 c-347 -133 -318 -119 -299 -140 9 -10 29 -19 43 -19 15 0
114 29 221 65 107 36 200 65 207 65 48 0 -41 -150 -171 -288 -103 -109 -191
-172 -239 -172 -35 0 -36 1 -42 48 -11 81 -24 117 -54 160 -45 61 -65 63 -120
8 -42 -42 -44 -47 -30 -62 9 -8 35 -18 57 -21 38 -5 42 -8 48 -42 54 -309 73
-339 164 -246 45 46 90 61 90 29 0 -8 -19 -47 -41 -86 -175 -300 -280 -675
-303 -1083 l-6 -100 31 -14 c29 -13 32 -12 65 20 l34 33 0 105 c0 59 -5 126
-11 151 -9 38 -5 63 23 177 26 107 36 133 50 133 24 0 31 -16 16 -39 -10 -17
-10 -38 3 -113 44 -257 198 -460 498 -657 51 -33 100 -61 108 -61 27 0 51 20
63 52 31 82 19 642 -15 694 -11 17 -15 50 -15 126 0 218 -36 451 -84 546 -29
58 -78 102 -112 102 -14 0 -51 -13 -84 -30 -33 -16 -71 -30 -85 -30 l-26 0 33
62 c30 56 147 190 174 199 8 3 8 26 1 81 l-10 76 86 97 c56 63 87 106 87 120
0 33 -130 105 -186 105 -22 -1 -96 -23 -169 -51z m174 -756 c59 -75 107 -365
146 -888 18 -243 19 -327 3 -343 -60 -60 -304 117 -390 283 -70 135 -110 302
-122 513 l-4 83 73 55 c41 30 76 54 79 54 14 0 3 -54 -36 -172 -41 -124 -42
-129 -26 -156 16 -25 21 -27 79 -24 51 2 65 -1 83 -17 19 -18 27 -19 59 -10
33 9 87 61 87 84 0 5 -14 24 -32 42 -30 31 -36 33 -100 33 -49 0 -68 4 -68 13
0 7 20 64 45 126 28 68 43 120 40 132 -9 29 -61 51 -132 57 -35 2 -63 8 -63
13 0 23 196 146 237 148 12 1 30 -10 42 -26z"/>
<path d="M1524 2576 c-3 -8 -1 -31 5 -53 10 -35 1 -75 -87 -408 l-98 -370 -28
-3 c-24 -3 -44 12 -145 115 -72 72 -141 155 -180 213 -35 52 -67 96 -71 98
-18 7 -38 -40 -30 -68 25 -86 125 -228 287 -407 41 -45 73 -86 71 -90 -2 -4
-37 -60 -79 -123 -143 -216 -232 -393 -233 -465 -1 -37 2 -42 37 -59 44 -21
78 -23 202 -12 108 10 133 1 240 -90 70 -59 95 -64 95 -17 0 15 -9 120 -20
233 -11 113 -20 225 -20 250 0 26 -5 51 -11 57 -16 16 8 86 27 79 8 -3 36 -8
64 -12 41 -5 54 -3 70 11 38 34 20 57 -82 110 l-63 32 0 84 c0 75 4 92 32 149
18 36 62 110 97 165 91 139 87 172 -9 95 l-50 -40 -3 36 c-4 44 24 139 83 279
42 101 44 108 30 135 -18 35 -84 90 -108 90 -10 0 -20 -6 -23 -14z m-161
-1083 c21 -60 21 -63 -1 -63 -18 0 -18 -5 4 -122 13 -68 23 -161 24 -207 l0
-83 -47 8 c-60 10 -77 10 -182 -1 l-84 -8 5 59 c5 66 39 156 89 240 42 70 158
224 168 224 4 0 15 -21 24 -47z"/>
</g>
</svg>
