<?xml version="1.0" standalone="no"?>
<!DOCTYPE svg PUBLIC "-//W3C//DTD SVG 20010904//EN"
 "http://www.w3.org/TR/2001/REC-SVG-20010904/DTD/svg10.dtd">
<svg version="1.0" xmlns="http://www.w3.org/2000/svg"
 width="360.000000pt" height="360.000000pt" viewBox="0 0 360.000000 360.000000"
 preserveAspectRatio="xMidYMid meet">
<metadata>
Created by potrace 1.15, written by Peter Selinger 2001-2017
</metadata>
<g transform="translate(0.000000,360.000000) scale(0.100000,-0.100000)"
fill="#000000" stroke="none">
<path d="M1854 2806 c-8 -22 11 -43 52 -58 40 -14 40 -15 20 -193 -16 -143
-30 -180 -85 -227 -46 -39 -98 -58 -184 -66 -57 -5 -58 -6 -133 -84 -41 -44
-136 -156 -210 -249 -75 -93 -142 -169 -149 -169 -9 0 -5 49 16 188 64 426 64
419 51 446 -7 16 -33 37 -67 53 -48 24 -57 25 -70 13 -12 -13 -13 -27 -4 -84
10 -60 6 -112 -31 -430 -24 -198 -46 -365 -51 -370 -23 -25 -199 146 -243 237
-15 30 -30 77 -34 103 l-7 48 -33 -42 c-30 -38 -33 -46 -27 -85 15 -88 84
-196 212 -328 l73 -76 -175 -219 c-187 -234 -200 -259 -155 -299 19 -17 23
-16 125 43 l105 60 34 -41 c18 -24 46 -79 62 -127 60 -176 120 -258 159 -219
13 13 14 29 5 109 -5 52 -10 202 -10 333 l0 237 59 0 c57 0 61 2 90 37 17 21
31 43 31 49 0 6 -29 19 -64 28 -117 32 -123 7 75 322 95 153 177 291 182 306
11 39 71 84 158 118 88 34 247 75 256 67 28 -29 -83 -152 -227 -251 -111 -77
-107 -72 -85 -96 29 -32 56 -24 141 40 86 64 104 71 104 39 0 -14 -63 -86
-186 -212 -200 -205 -299 -315 -316 -352 -14 -31 -3 -72 23 -85 41 -22 139 29
269 141 69 59 73 61 66 33 -16 -63 -130 -224 -312 -440 -52 -62 -94 -118 -94
-126 0 -8 9 -23 20 -33 19 -17 20 -17 37 3 10 12 119 136 243 276 l225 255 3
-46 c2 -26 -6 -94 -17 -152 -30 -151 -41 -266 -41 -422 0 -146 13 -211 56
-286 l24 -42 36 13 c86 29 453 555 454 648 0 24 -16 8 -107 -105 -213 -265
-316 -377 -347 -377 -7 0 -23 33 -36 75 -23 72 -23 79 -12 196 16 157 38 264
65 314 l22 40 125 3 c68 1 148 -2 177 -8 55 -12 113 -51 113 -76 0 -21 11 -17
58 17 l43 31 82 -11 c190 -27 351 -83 437 -152 37 -30 42 -31 57 -17 23 24 10
77 -33 127 -90 105 -323 167 -664 177 -186 6 -220 9 -220 23 0 5 90 114 200
243 220 256 225 266 173 320 -30 32 -43 35 -43 12 0 -31 -62 -145 -123 -227
-34 -45 -122 -144 -196 -219 -110 -114 -139 -138 -163 -138 l-28 0 0 94 0 95
185 206 c102 114 185 215 185 225 0 10 -7 23 -15 30 -22 19 -80 -3 -184 -68
-46 -29 -86 -51 -88 -48 -2 2 19 59 47 127 l51 123 -31 43 c-25 34 -31 51 -28
84 3 41 3 42 64 60 89 28 128 57 132 99 4 58 -6 64 -75 46 -109 -29 -103 -36
-103 117 0 72 -4 137 -8 144 -10 16 -67 39 -119 48 -35 5 -44 4 -49 -9z m-857
-1543 c12 -44 9 -201 -3 -213 -8 -8 -27 -7 -70 5 -33 10 -62 20 -67 24 -4 4
14 53 40 109 40 86 51 102 70 102 16 0 25 -8 30 -27z"/>
</g>
</svg>
