<?xml version="1.0" standalone="no"?>
<!DOCTYPE svg PUBLIC "-//W3C//DTD SVG 20010904//EN"
 "http://www.w3.org/TR/2001/REC-SVG-20010904/DTD/svg10.dtd">
<svg version="1.0" xmlns="http://www.w3.org/2000/svg"
 width="360.000000pt" height="360.000000pt" viewBox="0 0 360.000000 360.000000"
 preserveAspectRatio="xMidYMid meet">
<metadata>
Created by potrace 1.15, written by Peter Selinger 2001-2017
</metadata>
<g transform="translate(0.000000,360.000000) scale(0.100000,-0.100000)"
fill="#000000" stroke="none">
<path d="M2309 2775 c-3 -2 -64 -16 -137 -30 -145 -28 -270 -66 -319 -96 -64
-40 -97 -109 -53 -109 11 0 20 6 20 13 0 8 9 22 20 32 17 16 31 17 116 11 101
-8 124 -13 124 -27 0 -17 -70 -77 -109 -95 -45 -19 -48 -25 -27 -43 11 -10 29
-5 85 23 39 20 79 36 88 36 11 0 31 -20 50 -51 27 -44 30 -55 21 -80 -14 -41
-78 -92 -143 -115 -67 -22 -87 -14 -96 39 -7 43 -25 67 -50 67 -28 0 -32 -16
-19 -90 11 -65 10 -72 -10 -105 -22 -36 -84 -85 -107 -85 -17 0 -18 131 -1
148 8 8 9 15 2 22 -29 29 -71 -35 -100 -152 -16 -63 -16 -70 6 -169 28 -134
58 -223 82 -248 26 -29 80 -27 126 4 45 30 72 32 79 4 5 -16 11 -19 32 -14 14
4 33 12 41 19 8 7 58 38 110 69 216 125 426 307 534 459 56 79 53 97 -22 131
-52 23 -122 27 -264 14 l-88 -8 0 43 c0 56 -29 102 -79 127 -53 27 -56 36 -21
51 51 21 177 168 166 195 -5 14 -46 21 -57 10z m235 -501 c24 -9 19 -32 -19
-84 -89 -122 -218 -210 -307 -210 -30 0 -31 0 -24 43 24 148 95 222 236 246
71 11 95 12 114 5z m-400 -126 c-17 -56 -72 -155 -104 -187 l-35 -36 -3 40
c-7 76 29 148 92 186 42 26 59 25 50 -3z m-198 -227 c16 -4 30 -14 32 -23 3
-16 -103 -108 -125 -108 -10 0 -13 28 -13 107 l0 107 38 -37 c21 -21 52 -41
68 -46z"/>
<path d="M1305 2611 c-3 -5 4 -29 16 -54 l21 -44 -56 -348 c-31 -192 -58 -350
-60 -352 -20 -20 -165 113 -241 220 -22 31 -43 57 -47 57 -17 0 -7 -102 13
-143 48 -95 141 -206 218 -259 l24 -17 -43 -78 c-85 -156 -223 -335 -354 -461
-36 -35 -66 -69 -66 -76 0 -45 84 -60 150 -26 50 25 79 25 133 -1 37 -18 48
-32 87 -107 54 -106 102 -162 139 -162 57 0 57 4 34 174 l-22 156 31 227 c17
126 34 231 37 236 4 4 29 -8 56 -28 45 -32 50 -33 67 -18 39 35 34 52 -37 123
l-67 68 46 97 c25 54 71 135 101 181 30 45 55 88 55 95 0 8 -38 -24 -85 -71
-46 -46 -86 -82 -89 -79 -2 2 16 145 40 318 l45 314 -33 34 c-25 26 -40 33
-69 33 -21 0 -40 -4 -44 -9z m-119 -1198 c-3 -16 -9 -108 -12 -205 -8 -209 0
-200 -125 -137 l-81 40 5 35 c8 46 56 129 128 220 62 78 96 96 85 47z"/>
<path d="M2268 1746 c-85 -30 -234 -109 -365 -195 -88 -57 -103 -70 -103 -93
0 -31 23 -58 51 -58 10 0 19 -6 19 -13 0 -7 -79 -91 -175 -187 -155 -155 -175
-178 -175 -207 0 -29 3 -33 28 -33 15 0 72 25 126 55 87 48 126 64 126 51 0
-2 -13 -55 -30 -117 -16 -63 -30 -123 -30 -135 0 -21 64 -103 73 -94 3 3 13
50 22 105 29 168 72 285 137 367 30 39 117 88 154 88 28 0 27 3 55 -264 26
-240 21 -319 -24 -364 l-25 -24 -103 86 c-56 47 -106 86 -111 86 -4 0 -8 -10
-8 -22 0 -14 43 -74 111 -155 116 -140 137 -154 173 -114 41 45 97 270 74 298
-8 10 -8 17 0 25 8 8 12 59 12 149 l0 138 53 -15 c122 -36 252 -116 377 -232
l76 -70 38 29 c21 15 41 30 43 32 2 3 -23 38 -55 78 -61 78 -137 142 -211 179
-51 25 -157 50 -221 50 -81 0 -140 57 -140 133 l0 34 108 41 c102 39 115 41
272 50 112 7 179 16 208 27 23 10 42 20 42 24 0 3 -14 24 -32 45 l-32 39 -93
-7 c-178 -12 -380 -65 -606 -156 -67 -28 -130 -50 -139 -50 -31 0 -19 24 20
42 49 23 124 81 266 203 91 78 116 106 116 126 0 23 -16 49 -29 49 -4 0 -36
-11 -73 -24z"/>
</g>
</svg>
