<?xml version="1.0" standalone="no"?>
<!DOCTYPE svg PUBLIC "-//W3C//DTD SVG 20010904//EN"
 "http://www.w3.org/TR/2001/REC-SVG-20010904/DTD/svg10.dtd">
<svg version="1.0" xmlns="http://www.w3.org/2000/svg"
 width="360.000000pt" height="360.000000pt" viewBox="0 0 360.000000 360.000000"
 preserveAspectRatio="xMidYMid meet">
<metadata>
Created by potrace 1.15, written by Peter Selinger 2001-2017
</metadata>
<g transform="translate(0.000000,360.000000) scale(0.100000,-0.100000)"
fill="#000000" stroke="none">
<path d="M2004 2480 c-81 -21 -157 -57 -227 -106 -26 -19 -50 -34 -55 -34 -4
0 -32 16 -62 35 -30 19 -59 35 -66 35 -6 0 -17 -19 -23 -43 -14 -50 -4 -87 37
-129 42 -45 79 -38 186 31 125 80 209 121 251 121 51 0 46 -25 -26 -133 -102
-153 -159 -282 -159 -362 0 -40 2 -43 70 -89 l70 -48 -232 -240 c-128 -132
-264 -273 -303 -314 l-70 -74 -42 11 c-36 10 -47 9 -68 -5 -20 -13 -25 -25
-25 -61 0 -38 4 -47 34 -70 47 -36 99 -43 117 -18 24 34 381 423 483 526 53
53 102 97 110 97 20 0 25 -41 32 -267 7 -216 3 -263 -42 -405 -25 -77 -64
-138 -89 -138 -8 0 -45 27 -83 60 -72 62 -122 80 -122 43 0 -10 47 -81 104
-158 126 -171 132 -174 193 -83 95 141 146 282 159 438 4 44 1 217 -6 385
l-13 307 94 95 94 95 -80 -49 c-44 -28 -90 -56 -102 -63 -19 -12 -28 -11 -72
10 -77 36 -85 48 -72 112 15 68 76 180 157 289 37 51 64 96 64 111 0 15 -16
39 -43 66 -49 49 -65 51 -173 22z"/>
</g>
</svg>
