<?xml version="1.0" standalone="no"?>
<!DOCTYPE svg PUBLIC "-//W3C//DTD SVG 20010904//EN"
 "http://www.w3.org/TR/2001/REC-SVG-20010904/DTD/svg10.dtd">
<svg version="1.0" xmlns="http://www.w3.org/2000/svg"
 width="360.000000pt" height="360.000000pt" viewBox="0 0 360.000000 360.000000"
 preserveAspectRatio="xMidYMid meet">
<metadata>
Created by potrace 1.15, written by Peter Selinger 2001-2017
</metadata>
<g transform="translate(0.000000,360.000000) scale(0.100000,-0.100000)"
fill="#000000" stroke="none">
<path d="M1432 2808 c-8 -8 25 -39 140 -125 83 -62 157 -113 163 -113 22 0 55
46 55 77 0 57 -111 139 -218 162 -68 14 -125 14 -140 -1z"/>
<path d="M2295 2673 c-125 -19 -399 -107 -745 -238 l-201 -77 -61 21 c-34 12
-68 21 -75 21 -25 0 -13 -50 20 -85 56 -61 72 -60 242 7 218 86 492 185 634
229 119 38 128 39 265 39 139 0 143 -1 166 -25 15 -16 20 -29 14 -34 -5 -5
-71 -25 -147 -45 -190 -50 -309 -91 -378 -128 -59 -31 -78 -55 -36 -45 12 3
164 33 337 67 173 33 323 63 333 66 37 11 9 111 -45 161 -46 43 -117 66 -208
69 -47 1 -98 0 -115 -3z"/>
<path d="M957 2198 c-4 -104 -13 -173 -33 -253 -39 -161 -39 -169 -14 -205 25
-35 54 -39 70 -10 6 11 18 70 27 132 13 89 14 115 4 131 -9 14 -10 22 -2 30 7
7 11 59 11 135 0 109 -2 127 -21 153 -11 16 -24 29 -28 29 -5 0 -11 -64 -14
-142z"/>
<path d="M1830 2271 c-102 -31 -217 -140 -339 -321 -102 -151 -141 -225 -141
-268 0 -45 19 -67 50 -57 31 10 249 158 424 288 133 100 163 118 189 115 17
-2 32 -7 34 -13 1 -5 -74 -113 -167 -238 -94 -125 -170 -231 -170 -236 0 -4 8
-16 19 -25 16 -15 26 -16 84 -6 61 11 67 10 113 -13 27 -14 57 -34 67 -45 18
-20 17 -20 -30 -36 -58 -19 -216 -110 -415 -237 -79 -50 -145 -93 -147 -95 -9
-8 52 -191 90 -272 93 -200 214 -309 364 -327 140 -18 229 65 285 266 17 63
20 103 20 284 l0 211 88 28 c186 61 231 93 217 157 -10 45 -52 59 -172 58 -54
0 -119 -4 -145 -8 -48 -8 -48 -8 -65 28 -23 47 -72 78 -144 93 -33 7 -59 14
-59 18 0 3 64 88 142 189 l141 185 -14 39 c-18 50 -51 75 -111 83 l-46 6 -186
-126 c-184 -125 -236 -149 -236 -108 0 41 80 151 195 269 115 117 123 131 65
114z m226 -973 c7 -12 15 -219 13 -368 -1 -140 -47 -260 -126 -329 -46 -41
-49 -42 -98 -36 -125 17 -227 134 -305 353 l-23 63 64 65 c153 155 441 307
475 252z"/>
</g>
</svg>
