<?xml version="1.0" standalone="no"?>
<!DOCTYPE svg PUBLIC "-//W3C//DTD SVG 20010904//EN"
 "http://www.w3.org/TR/2001/REC-SVG-20010904/DTD/svg10.dtd">
<svg version="1.0" xmlns="http://www.w3.org/2000/svg"
 width="360.000000pt" height="360.000000pt" viewBox="0 0 360.000000 360.000000"
 preserveAspectRatio="xMidYMid meet">
<metadata>
Created by potrace 1.15, written by Peter Selinger 2001-2017
</metadata>
<g transform="translate(0.000000,360.000000) scale(0.100000,-0.100000)"
fill="#000000" stroke="none">
<path d="M1255 2390 c-28 -11 -118 -60 -200 -109 -143 -86 -151 -89 -173 -75
-18 12 -26 13 -38 3 -13 -10 -12 -14 2 -30 27 -29 71 -23 222 31 139 50 192
60 192 39 0 -23 -95 -232 -157 -346 -78 -145 -78 -165 -1 -250 57 -63 86 -123
94 -196 5 -48 3 -56 -34 -112 -67 -102 -252 -293 -407 -420 -42 -35 -45 -41
-45 -85 0 -40 4 -50 25 -64 46 -30 68 -21 143 59 68 73 71 74 101 64 20 -7 60
-46 116 -114 47 -57 97 -110 110 -119 35 -23 64 -20 74 7 4 12 15 175 25 362
15 314 18 343 40 390 28 60 118 183 217 295 39 45 69 84 66 87 -3 3 -70 -47
-148 -112 -161 -132 -181 -139 -204 -70 -9 26 -34 58 -69 91 -51 47 -55 53
-47 80 20 70 97 201 222 375 63 88 69 101 69 146 0 39 -5 54 -23 71 -30 28
-102 29 -172 2z m-51 -1177 c16 -83 17 -109 6 -168 -9 -50 -10 -68 -1 -79 10
-11 7 -24 -11 -60 l-23 -46 -83 56 c-95 63 -93 54 -37 170 32 65 109 154 134
154 5 0 12 -12 15 -27z"/>
<path d="M1963 2079 c-53 -10 -108 -38 -158 -82 l-40 -36 60 15 c106 26 185
28 221 6 68 -43 94 -145 101 -387 5 -185 5 -190 -16 -209 -22 -20 -22 -20 -85
11 -63 31 -64 32 -82 12 -11 -12 -14 -23 -8 -29 30 -30 231 -180 241 -180 7 0
20 11 28 24 14 22 16 69 13 383 -3 338 -4 360 -23 393 -36 63 -147 97 -252 79z"/>
<path d="M2527 1632 c-10 -10 -17 -21 -17 -24 0 -5 185 -166 197 -173 2 -1 -2
-27 -8 -58 -6 -30 -9 -71 -5 -91 7 -39 88 -136 113 -136 9 0 31 9 49 21 28 17
34 27 34 54 0 93 -58 265 -107 320 -38 43 -91 75 -148 90 -76 19 -88 19 -108
-3z"/>
<path d="M1624 1509 c-8 -17 -20 -75 -25 -127 l-9 -96 47 -48 c26 -26 54 -48
63 -48 26 0 59 29 80 70 30 59 26 80 -25 118 -41 30 -45 36 -45 77 0 24 5 47
11 51 12 7 -41 34 -67 34 -7 0 -21 -14 -30 -31z"/>
</g>
</svg>
