<?xml version="1.0" standalone="no"?>
<!DOCTYPE svg PUBLIC "-//W3C//DTD SVG 20010904//EN"
 "http://www.w3.org/TR/2001/REC-SVG-20010904/DTD/svg10.dtd">
<svg version="1.0" xmlns="http://www.w3.org/2000/svg"
 width="360.000000pt" height="360.000000pt" viewBox="0 0 360.000000 360.000000"
 preserveAspectRatio="xMidYMid meet">
<metadata>
Created by potrace 1.15, written by Peter Selinger 2001-2017
</metadata>
<g transform="translate(0.000000,360.000000) scale(0.100000,-0.100000)"
fill="#000000" stroke="none">
<path d="M2021 2880 c-58 -32 -112 -74 -203 -158 -32 -30 -62 -52 -65 -48 -4
4 -19 30 -33 58 -32 66 -50 77 -84 55 -36 -24 -34 -66 7 -152 39 -81 81 -135
106 -135 9 0 36 25 60 56 90 115 163 193 208 223 25 17 49 31 52 31 3 0 16
-16 29 -36 l23 -36 -21 -41 c-46 -89 -180 -238 -390 -434 -157 -147 -170 -156
-305 -227 -172 -90 -251 -136 -308 -180 l-43 -33 -27 21 c-23 19 -27 29 -27
75 l0 52 -32 -3 -32 -3 -58 -245 -59 -245 26 -22 c51 -44 84 -22 105 70 35
159 164 279 316 294 49 5 97 25 274 114 345 172 605 276 788 314 106 22 129
20 169 -15 18 -16 45 -30 58 -30 34 0 36 -47 3 -55 -123 -26 -234 -57 -272
-74 -38 -16 -46 -24 -46 -47 l0 -27 133 6 c243 10 387 57 387 125 0 87 -221
212 -375 212 -101 -1 -294 -50 -513 -131 -57 -21 -109 -39 -115 -39 -5 0 65
76 156 169 174 179 290 309 312 352 12 22 12 37 -1 95 -19 96 -38 118 -100
122 -39 2 -60 -4 -103 -28z"/>
<path d="M1227 2618 c-15 -12 -13 -21 27 -105 24 -50 63 -112 87 -138 41 -44
44 -46 93 -43 l51 3 -2 60 c-4 116 -7 122 -71 140 -75 22 -129 51 -142 75 -12
23 -20 25 -43 8z"/>
<path d="M2035 1924 c-105 -21 -134 -28 -157 -40 -16 -8 -28 -22 -28 -30 0
-10 -6 -14 -15 -10 -8 3 -44 8 -78 12 -77 8 -107 -5 -167 -73 -45 -52 -120
-178 -120 -204 0 -23 43 -59 71 -59 15 0 98 55 227 150 181 134 207 150 242
150 22 0 40 -2 40 -5 0 -6 -108 -194 -133 -230 -83 -122 -172 -206 -233 -221
-95 -23 -215 -112 -274 -203 -38 -60 -39 -104 -5 -236 75 -296 258 -475 487
-475 40 0 51 5 78 33 34 36 105 177 143 283 l25 71 -14 224 c-7 123 -16 239
-20 256 -8 44 6 48 125 35 91 -9 97 -9 119 11 12 11 22 26 22 32 0 6 -19 30
-43 53 l-43 42 -151 0 c-88 0 -154 4 -158 10 -3 5 48 83 115 174 66 90 120
171 120 179 0 8 -16 29 -35 46 -35 31 -74 38 -140 25z m-45 -648 c11 -24 29
-83 41 -132 25 -106 22 -161 -20 -327 -36 -142 -65 -210 -104 -243 -28 -23
-37 -26 -85 -21 -103 11 -181 80 -246 217 -37 78 -86 245 -86 292 0 41 53 86
165 139 99 48 278 117 303 118 7 1 22 -19 32 -43z"/>
</g>
</svg>
