<?xml version="1.0" standalone="no"?>
<!DOCTYPE svg PUBLIC "-//W3C//DTD SVG 20010904//EN"
 "http://www.w3.org/TR/2001/REC-SVG-20010904/DTD/svg10.dtd">
<svg version="1.0" xmlns="http://www.w3.org/2000/svg"
 width="360.000000pt" height="360.000000pt" viewBox="0 0 360.000000 360.000000"
 preserveAspectRatio="xMidYMid meet">
<metadata>
Created by potrace 1.15, written by Peter Selinger 2001-2017
</metadata>
<g transform="translate(0.000000,360.000000) scale(0.100000,-0.100000)"
fill="#000000" stroke="none">
<path d="M1088 2763 c-16 -15 -15 -19 13 -55 17 -21 38 -38 48 -38 44 0 122
-33 164 -70 70 -62 111 -51 95 26 -10 46 -61 105 -110 125 -22 9 -43 9 -86 2
-51 -10 -59 -9 -78 8 -25 23 -26 23 -46 2z"/>
<path d="M1389 2435 c-274 -122 -567 -241 -711 -290 l-127 -42 29 -28 c27 -26
33 -28 88 -22 125 13 402 131 687 292 143 80 171 87 220 55 41 -27 86 -25 151
7 77 38 83 47 49 83 -28 29 -32 30 -114 29 -85 -1 -88 -2 -272 -84z"/>
<path d="M1860 2389 c0 -12 6 -30 14 -38 36 -41 66 -115 66 -165 -1 -106 -56
-297 -108 -374 -49 -73 -136 -119 -163 -86 -7 8 -30 14 -55 14 -38 0 -44 -3
-44 -21 0 -58 53 -89 155 -89 36 0 65 -2 65 -4 0 -3 -10 -46 -21 -97 l-21 -92
-62 7 c-33 3 -72 9 -86 12 -20 4 -27 0 -37 -22 -26 -57 -20 -66 60 -80 32 -5
37 -10 37 -33 0 -67 -31 -132 -91 -194 l-59 -61 0 -82 c0 -69 3 -84 21 -100
20 -18 21 -18 50 16 31 39 123 220 160 318 l24 62 45 0 c36 0 56 -7 88 -31 41
-30 44 -31 62 -14 47 42 8 130 -69 157 l-39 13 30 105 c51 183 127 318 199
356 32 16 79 19 79 4 0 -6 -25 -109 -55 -230 -59 -237 -64 -280 -45 -457 28
-270 156 -362 463 -334 205 18 347 65 456 151 l51 40 0 93 c0 107 -29 281 -65
394 -33 105 -37 110 -69 95 -14 -6 -26 -18 -26 -26 0 -9 14 -80 31 -158 45
-208 31 -294 -58 -367 -80 -66 -255 -105 -443 -99 -92 3 -109 6 -139 27 -49
35 -73 98 -79 207 -10 190 35 445 113 642 42 108 43 130 7 165 -40 38 -103 37
-182 -3 -58 -29 -90 -37 -90 -22 0 4 9 45 20 92 33 144 24 225 -34 288 -30 32
-39 36 -95 40 -58 4 -61 3 -61 -19z"/>
<path d="M1255 2114 c-61 -37 -129 -82 -153 -101 -38 -31 -46 -34 -71 -25 -30
11 -111 -3 -111 -18 0 -4 18 -70 39 -146 44 -153 87 -264 105 -264 6 0 30 22
53 49 23 27 55 52 70 56 99 24 245 176 352 366 l31 56 -41 46 c-40 46 -41 47
-103 47 -59 0 -67 -3 -171 -66z m165 -61 c-1 -35 -38 -99 -85 -146 -64 -64
-188 -147 -220 -147 -22 0 -25 4 -25 35 0 84 69 158 214 231 97 48 116 53 116
27z"/>
<path d="M1375 1676 c-95 -30 -223 -108 -385 -234 -57 -45 -108 -82 -112 -82
-4 0 -8 27 -8 60 0 53 -2 60 -19 60 -26 0 -55 -43 -79 -115 -34 -105 -34 -106
4 -147 19 -21 37 -38 41 -38 3 0 46 28 95 61 66 45 93 58 101 50 6 -6 37 -11
69 -11 51 0 58 -2 58 -19 0 -11 -28 -55 -62 -97 -159 -201 -307 -342 -386
-370 -32 -11 -37 -16 -34 -41 2 -15 10 -38 18 -50 19 -30 77 -31 119 -3 51 33
70 26 160 -57 85 -80 168 -136 218 -147 23 -5 35 1 76 39 59 55 106 151 126
260 17 85 20 356 6 490 l-9 80 89 111 c49 62 89 120 89 131 0 10 -15 33 -33
51 -37 36 -72 40 -142 18z m25 -96 c0 -44 -57 -121 -133 -181 -45 -36 -54 -39
-113 -39 -40 0 -64 4 -64 11 0 25 129 136 206 176 81 44 104 51 104 33z m-122
-386 c26 -75 -3 -420 -44 -520 -20 -49 -62 -94 -87 -94 -10 0 -67 41 -125 92
-87 74 -107 96 -105 116 3 37 47 119 102 193 78 103 222 260 235 256 6 -2 17
-21 24 -43z"/>
</g>
</svg>
