<?xml version="1.0" standalone="no"?>
<!DOCTYPE svg PUBLIC "-//W3C//DTD SVG 20010904//EN"
 "http://www.w3.org/TR/2001/REC-SVG-20010904/DTD/svg10.dtd">
<svg version="1.0" xmlns="http://www.w3.org/2000/svg"
 width="360.000000pt" height="360.000000pt" viewBox="0 0 360.000000 360.000000"
 preserveAspectRatio="xMidYMid meet">
<metadata>
Created by potrace 1.15, written by Peter Selinger 2001-2017
</metadata>
<g transform="translate(0.000000,360.000000) scale(0.100000,-0.100000)"
fill="#000000" stroke="none">
<path d="M1437 2856 c-29 -44 -14 -129 31 -179 23 -26 99 -63 156 -78 25 -6
46 -14 46 -18 0 -3 -5 -23 -11 -44 -9 -35 -8 -41 22 -79 l33 -41 38 44 c35 41
38 49 38 105 0 65 -12 85 -60 99 -52 16 -162 77 -201 112 -22 20 -48 52 -58
71 l-17 34 -17 -26z"/>
<path d="M2199 2435 c-17 -9 -69 -17 -135 -21 -97 -5 -138 -14 -359 -80 -363
-106 -595 -164 -664 -164 -10 0 -36 16 -58 35 -67 57 -84 36 -63 -75 9 -46 5
-82 -35 -289 l-45 -236 22 -17 c33 -26 57 -31 74 -18 32 28 71 240 81 453 3
70 7 127 8 127 1 0 42 -19 91 -42 l89 -41 60 22 c448 168 654 227 938 267 117
17 118 17 198 -6 59 -17 79 -27 77 -38 -4 -22 -163 -129 -220 -150 -42 -14
-48 -20 -48 -44 0 -20 5 -28 18 -27 9 0 96 29 192 63 l175 63 37 -18 c49 -25
57 -24 98 11 l34 30 -44 46 c-62 65 -122 100 -215 130 -100 32 -264 42 -306
19z"/>
<path d="M1656 1884 l-170 -86 -44 21 c-43 21 -52 21 -83 -6 -15 -12 -14 -22
12 -116 25 -88 29 -120 29 -231 l0 -128 40 -50 c46 -59 49 -76 16 -115 -46
-55 -95 -141 -116 -204 -25 -74 -23 -90 37 -289 51 -171 70 -210 100 -210 14
0 84 29 157 65 156 76 269 116 351 122 52 4 70 1 129 -26 65 -30 70 -30 87
-15 35 32 24 69 -41 139 -33 35 -60 67 -60 71 0 3 43 71 95 150 52 80 95 149
95 153 0 12 -68 72 -114 100 l-39 24 -71 -17 c-98 -23 -225 -76 -401 -165 -82
-42 -152 -77 -155 -78 -3 -2 -10 8 -16 21 -11 23 1 36 222 251 250 242 259
254 208 294 l-26 20 51 88 c51 89 91 186 91 222 0 11 -11 33 -24 48 -23 26
-30 28 -108 30 l-83 3 -169 -86z m219 -86 c-19 -116 -119 -231 -266 -308 -66
-34 -83 -39 -95 -29 -11 9 -13 23 -9 53 21 129 106 224 262 292 107 46 117 45
108 -8z m235 -721 c0 -43 -3 -47 -117 -158 -158 -154 -281 -235 -385 -254 -33
-6 -40 -4 -62 21 -17 19 -25 41 -26 65 0 31 8 43 53 85 156 147 396 283 500
284 l37 0 0 -43z"/>
</g>
</svg>
