<?xml version="1.0" standalone="no"?>
<!DOCTYPE svg PUBLIC "-//W3C//DTD SVG 20010904//EN"
 "http://www.w3.org/TR/2001/REC-SVG-20010904/DTD/svg10.dtd">
<svg version="1.0" xmlns="http://www.w3.org/2000/svg"
 width="360.000000pt" height="360.000000pt" viewBox="0 0 360.000000 360.000000"
 preserveAspectRatio="xMidYMid meet">
<metadata>
Created by potrace 1.15, written by Peter Selinger 2001-2017
</metadata>
<g transform="translate(0.000000,360.000000) scale(0.100000,-0.100000)"
fill="#000000" stroke="none">
<path d="M1610 2731 c0 -38 35 -63 123 -88 55 -16 57 -17 57 -51 0 -37 -2 -40
-88 -98 -100 -68 -284 -122 -318 -93 -10 8 -19 6 -38 -9 l-25 -19 37 -37 c58
-55 108 -52 281 21 267 111 570 206 704 220 102 11 217 -33 217 -83 0 -6 -62
-39 -137 -74 -76 -35 -140 -65 -142 -67 -3 -2 7 -15 21 -30 l26 -26 158 54
c161 54 246 99 252 133 3 13 -23 45 -80 103 l-83 84 -95 -6 c-171 -11 -371
-42 -521 -80 -23 -6 -27 -3 -33 25 -14 71 -119 133 -250 146 l-66 7 0 -32z"/>
<path d="M1156 2368 c-19 -31 -34 -113 -42 -238 l-6 -105 40 -33 c54 -43 69
-41 92 11 34 78 34 106 0 251 -27 115 -35 136 -51 136 -10 0 -25 -10 -33 -22z"/>
<path d="M2030 2236 c-65 -24 -458 -231 -482 -255 -4 -3 0 -31 8 -61 9 -31 22
-145 29 -261 15 -236 26 -304 63 -373 l27 -49 -39 -33 c-93 -80 -379 -192
-756 -294 -102 -27 -204 -50 -227 -50 -56 0 -57 -22 -3 -75 l41 -40 387 129
c213 71 391 129 396 130 6 0 17 -29 26 -66 8 -37 22 -75 31 -83 8 -9 43 -21
77 -27 34 -6 62 -15 62 -20 0 -24 -149 -90 -320 -141 -63 -19 -116 -39 -117
-44 -2 -6 3 -15 11 -22 33 -27 304 47 609 165 87 34 154 54 180 54 77 0 478
-174 632 -274 97 -63 129 -69 165 -31 l24 26 -65 62 c-100 96 -334 206 -586
277 l-83 24 0 37 c0 24 7 45 19 56 10 10 27 39 38 64 43 96 138 159 281 185
110 19 147 17 332 -16 214 -39 202 -40 198 12 -2 35 -9 46 -36 65 -36 23 -136
49 -242 61 -55 7 -93 2 -253 -31 l-187 -38 -57 41 c-39 27 -67 40 -90 40 -38
0 -38 1 -18 -46 8 -20 13 -40 10 -44 -12 -19 -257 -85 -290 -78 -24 5 104 168
152 194 21 11 52 39 69 61 60 79 123 299 161 560 l17 122 -29 32 c-31 32 -95
70 -117 68 -7 0 -29 -6 -48 -13z m37 -122 c19 -25 19 -28 -3 -162 -13 -76 -23
-138 -23 -139 -1 -2 -5 -3 -10 -3 -5 0 -13 15 -16 33 -11 49 -22 57 -82 57
-46 0 -68 -7 -128 -40 -40 -22 -76 -40 -81 -39 -5 0 -20 14 -33 30 l-24 30 39
40 c73 75 289 218 331 219 6 0 20 -12 30 -26z m-39 -326 c31 -31 3 -106 -65
-179 -76 -81 -233 -176 -233 -141 0 11 269 332 278 332 5 0 13 -5 20 -12z
m-238 -93 c0 -3 -9 -24 -20 -45 -17 -33 -26 -40 -50 -40 -24 0 -30 4 -30 22 0
27 46 67 78 68 12 0 22 -2 22 -5z m289 -557 c-10 -35 -57 -108 -112 -172 l-33
-39 -139 27 c-76 15 -141 29 -144 32 -11 11 18 40 65 66 64 36 299 114 351
117 20 1 21 -2 12 -31z"/>
</g>
</svg>
