<?xml version="1.0" standalone="no"?>
<!DOCTYPE svg PUBLIC "-//W3C//DTD SVG 20010904//EN"
 "http://www.w3.org/TR/2001/REC-SVG-20010904/DTD/svg10.dtd">
<svg version="1.0" xmlns="http://www.w3.org/2000/svg"
 width="360.000000pt" height="360.000000pt" viewBox="0 0 360.000000 360.000000"
 preserveAspectRatio="xMidYMid meet">
<metadata>
Created by potrace 1.15, written by Peter Selinger 2001-2017
</metadata>
<g transform="translate(0.000000,360.000000) scale(0.100000,-0.100000)"
fill="#000000" stroke="none">
<path d="M1574 2763 c-9 -15 -6 -26 18 -59 26 -37 36 -42 80 -48 53 -7 98 -40
98 -72 0 -32 -49 -122 -81 -148 -68 -58 -240 -126 -315 -126 -57 0 -89 13
-124 51 l-28 31 -16 -30 c-20 -38 -41 -162 -56 -322 -16 -168 -12 -208 21
-232 26 -20 26 -20 63 4 31 20 36 27 30 48 -4 14 -9 98 -11 188 l-4 162 115 0
115 0 143 74 c336 174 621 255 788 223 62 -11 65 -14 68 -42 2 -29 -2 -32
-123 -94 -118 -60 -145 -84 -110 -97 27 -11 422 122 458 154 9 8 17 23 17 32
0 22 -61 78 -125 115 l-47 28 -171 -6 c-200 -8 -340 -27 -421 -57 -32 -12 -59
-20 -61 -18 -2 1 -21 50 -43 108 l-39 105 -91 12 c-50 7 -100 17 -111 23 -25
13 -24 13 -37 -7z"/>
<path d="M1897 2142 c-19 -21 -22 -43 -7 -58 6 -6 -74 -72 -220 -183 -127 -96
-230 -179 -230 -185 0 -5 15 -37 33 -70 l34 -61 -13 -115 c-7 -63 -13 -158
-14 -210 l0 -95 -360 -141 c-341 -134 -361 -141 -371 -122 -13 24 -67 21 -83
-4 -9 -14 -3 -25 29 -58 58 -59 102 -57 282 16 76 31 167 71 203 89 261 131
672 252 1105 325 285 48 298 48 447 6 142 -40 179 -44 203 -20 15 15 14 19 -8
48 -34 44 -101 93 -145 106 -62 17 -188 11 -443 -20 -134 -16 -256 -32 -271
-35 -42 -7 -35 13 31 80 52 53 60 68 75 129 16 68 48 145 82 198 17 26 17 28
-1 47 -38 43 -81 31 -370 -104 -147 -69 -270 -125 -275 -125 -5 0 -11 19 -15
43 -3 23 -9 56 -11 73 -5 29 -2 33 68 75 92 56 244 170 326 246 l63 58 -31 43
c-26 34 -38 42 -64 42 -19 0 -40 -8 -49 -18z m163 -497 c0 -12 -45 -94 -91
-166 -58 -90 -142 -173 -201 -198 -48 -21 -115 -33 -122 -23 -12 21 17 120 49
168 62 95 251 224 328 224 20 0 37 -2 37 -5z"/>
<path d="M2400 988 c0 -7 29 -47 65 -88 36 -41 65 -83 65 -92 0 -9 -11 -30
-25 -46 -20 -24 -22 -31 -10 -43 7 -8 27 -51 45 -96 52 -137 91 -164 151 -104
27 27 29 35 29 103 0 173 -57 269 -202 344 -69 35 -118 44 -118 22z"/>
<path d="M1346 855 c-43 -46 -50 -77 -32 -137 20 -68 55 -122 84 -126 29 -4
94 58 131 127 l29 54 -26 22 -26 23 -37 -25 c-21 -14 -42 -22 -47 -19 -6 3
-13 29 -17 56 -8 57 -23 64 -59 25z"/>
</g>
</svg>
