<?xml version="1.0" standalone="no"?>
<!DOCTYPE svg PUBLIC "-//W3C//DTD SVG 20010904//EN"
 "http://www.w3.org/TR/2001/REC-SVG-20010904/DTD/svg10.dtd">
<svg version="1.0" xmlns="http://www.w3.org/2000/svg"
 width="360.000000pt" height="360.000000pt" viewBox="0 0 360.000000 360.000000"
 preserveAspectRatio="xMidYMid meet">
<metadata>
Created by potrace 1.15, written by Peter Selinger 2001-2017
</metadata>
<g transform="translate(0.000000,360.000000) scale(0.100000,-0.100000)"
fill="#000000" stroke="none">
<path d="M1562 2847 c-15 -18 9 -56 88 -140 39 -43 60 -72 56 -82 -14 -39
-117 -74 -289 -99 l-90 -14 -44 34 c-53 40 -78 44 -70 12 18 -71 17 -161 -2
-291 -12 -76 -21 -140 -21 -142 0 -2 18 -18 41 -36 l40 -32 35 34 34 33 0 173
0 173 42 -21 c37 -19 53 -21 118 -15 41 3 92 9 113 12 36 6 37 6 37 -22 0 -35
30 -102 64 -147 24 -32 25 -36 14 -95 l-11 -61 -131 -52 c-72 -29 -135 -56
-141 -61 -19 -18 50 -67 105 -74 27 -4 50 -9 50 -12 0 -3 -25 -48 -57 -99 -53
-88 -55 -96 -46 -128 l11 -34 -297 -117 c-163 -64 -325 -128 -360 -142 l-64
-25 -42 23 c-23 13 -47 20 -54 16 -18 -11 -13 -71 9 -98 32 -42 72 -53 138
-38 69 14 292 99 494 186 133 58 188 75 188 58 0 -3 -9 -19 -20 -34 -60 -84
-100 -232 -100 -368 0 -87 14 -112 62 -112 26 0 58 27 58 49 0 9 8 11 23 7 85
-23 88 -22 223 59 140 85 235 133 274 137 l25 3 21 -180 c18 -152 20 -192 11
-258 -8 -57 -8 -83 0 -96 8 -12 8 -32 1 -69 -13 -62 -17 -63 -146 -32 -94 23
-118 24 -127 10 -10 -16 234 -270 259 -270 45 0 127 183 134 300 2 42 -10 246
-28 458 -31 369 -31 386 -16 473 18 109 33 134 94 162 39 18 70 22 187 25
l140 4 12 -31 11 -31 139 0 c150 0 171 6 154 37 -17 32 -81 84 -130 106 -89
39 -350 33 -572 -15 -55 -11 -102 -18 -105 -15 -4 3 8 25 27 48 31 39 32 43
18 67 -8 14 -28 34 -46 44 -43 26 -168 51 -225 45 -27 -2 -48 -2 -48 0 0 10
64 93 71 93 4 0 10 -4 14 -9 6 -11 88 11 110 29 8 7 15 25 15 41 0 33 -26 53
-80 63 -33 6 -37 11 -48 52 -21 78 -71 111 -200 130 -42 6 -43 7 -26 25 39 44
461 149 626 157 l98 4 10 -26 c5 -15 10 -33 10 -39 0 -7 -52 -36 -115 -66 -64
-30 -118 -58 -122 -64 -3 -5 4 -18 15 -29 20 -20 22 -21 89 -4 110 28 275 84
311 106 17 11 32 26 32 34 0 8 -41 53 -92 100 l-92 86 -60 0 c-93 -1 -247 -17
-390 -41 -105 -18 -131 -20 -134 -9 -13 37 -82 94 -164 135 -93 47 -128 54
-146 32z m378 -939 c0 -37 -87 -111 -171 -145 -104 -43 -119 -47 -119 -31 0
38 212 198 262 198 22 0 28 -5 28 -22z m120 -378 c0 -183 -5 -222 -25 -190 -3
6 -35 10 -71 10 -75 0 -80 9 -34 71 44 61 47 98 16 152 l-27 45 -40 -9 c-63
-14 -105 -35 -175 -84 -63 -44 -94 -55 -94 -35 0 17 159 137 231 175 66 34
153 63 197 64 l22 1 0 -200z m-292 -134 c-4 -31 -182 -242 -186 -221 -10 48
50 147 126 207 55 44 64 46 60 14z"/>
</g>
</svg>
