<?xml version="1.0" standalone="no"?>
<!DOCTYPE svg PUBLIC "-//W3C//DTD SVG 20010904//EN"
 "http://www.w3.org/TR/2001/REC-SVG-20010904/DTD/svg10.dtd">
<svg version="1.0" xmlns="http://www.w3.org/2000/svg"
 width="360.000000pt" height="360.000000pt" viewBox="0 0 360.000000 360.000000"
 preserveAspectRatio="xMidYMid meet">
<metadata>
Created by potrace 1.15, written by Peter Selinger 2001-2017
</metadata>
<g transform="translate(0.000000,360.000000) scale(0.100000,-0.100000)"
fill="#000000" stroke="none">
<path d="M1456 2742 c-15 -18 -14 -21 13 -59 36 -50 83 -79 149 -94 47 -10 52
-13 52 -38 0 -15 -10 -47 -22 -71 -41 -80 -151 -145 -320 -189 -65 -16 -78
-17 -118 -5 -64 20 -67 19 -82 -28 -8 -24 -18 -42 -22 -42 -4 1 -37 23 -73 49
l-65 48 -30 -31 -31 -30 37 -43 c22 -26 36 -53 36 -70 0 -14 -20 -113 -45
-219 -25 -106 -45 -201 -45 -211 0 -18 64 -59 93 -59 28 0 57 45 57 87 0 23
16 126 36 230 27 142 33 192 25 205 -10 16 -7 16 41 -2 86 -33 124 -27 287 41
184 77 520 189 675 225 l118 27 97 -17 c144 -27 141 -26 141 -51 0 -19 -18
-30 -112 -73 -280 -126 -252 -111 -232 -133 9 -10 27 -19 38 -19 33 0 438 106
503 132 82 32 83 53 5 128 -67 65 -130 101 -218 124 -116 30 -184 29 -414 -7
l-215 -33 -12 46 c-7 25 -22 66 -34 92 l-22 46 -123 31 c-145 36 -146 36 -168
13z"/>
<path d="M1760 2098 c-36 -23 -130 -68 -210 -100 -80 -33 -151 -65 -158 -72
-12 -11 -11 -19 3 -47 10 -19 19 -35 20 -37 1 -1 42 7 90 18 48 11 90 18 93
16 11 -12 -41 -71 -208 -237 l-178 -176 24 -99 c13 -55 24 -130 24 -169 1
-187 70 -325 162 -325 13 0 88 46 173 106 83 58 156 108 162 111 7 3 32 -9 55
-26 63 -46 95 -42 151 18 26 28 75 94 111 148 70 108 213 365 222 401 10 37
-5 74 -45 112 -46 44 -92 59 -196 67 -69 5 -93 2 -168 -21 -48 -15 -94 -29
-102 -32 -25 -10 -20 100 6 142 21 34 136 144 151 144 19 0 5 28 -30 63 -48
47 -70 46 -152 -5z m-130 -396 c0 -24 -17 -40 -126 -120 -69 -51 -131 -91
-136 -90 -13 5 231 238 249 238 8 0 13 -11 13 -28z m435 -17 c25 -4 49 -14 52
-21 9 -23 -15 -133 -41 -190 -32 -69 -108 -143 -187 -183 -102 -51 -121 -40
-69 39 54 81 35 170 -35 170 -62 1 -57 55 10 103 51 36 194 99 211 93 6 -3 33
-8 59 -11z m-455 -217 c0 -19 -6 -25 -103 -112 -85 -76 -87 -80 -70 -98 14
-16 28 -19 80 -16 51 2 63 0 63 -12 0 -22 -53 -109 -98 -160 l-40 -45 -26 24
c-25 24 -26 27 -26 156 0 153 -3 147 118 226 76 50 102 59 102 37z"/>
<path d="M2252 1047 l-22 -23 95 -94 c84 -83 95 -99 95 -130 1 -54 24 -155 43
-184 22 -33 56 -34 85 -3 18 19 22 35 22 95 0 157 -88 274 -261 346 -35 14
-37 14 -57 -7z"/>
<path d="M1042 855 c-10 -22 -25 -98 -35 -185 -6 -46 27 -134 60 -160 43 -34
68 -26 107 31 29 44 33 55 25 78 -12 30 -26 41 -55 41 -11 0 -29 9 -39 20 -15
16 -17 30 -11 82 4 35 10 75 13 91 5 25 3 27 -24 27 -22 0 -33 -7 -41 -25z"/>
</g>
</svg>
