<?xml version="1.0" standalone="no"?>
<!DOCTYPE svg PUBLIC "-//W3C//DTD SVG 20010904//EN"
 "http://www.w3.org/TR/2001/REC-SVG-20010904/DTD/svg10.dtd">
<svg version="1.0" xmlns="http://www.w3.org/2000/svg"
 width="360.000000pt" height="360.000000pt" viewBox="0 0 360.000000 360.000000"
 preserveAspectRatio="xMidYMid meet">
<metadata>
Created by potrace 1.15, written by Peter Selinger 2001-2017
</metadata>
<g transform="translate(0.000000,360.000000) scale(0.100000,-0.100000)"
fill="#000000" stroke="none">
<path d="M1342 2858 c-19 -19 15 -63 98 -130 41 -33 82 -66 92 -72 10 -6 18
-16 18 -23 0 -6 -37 -37 -81 -69 -74 -52 -94 -60 -210 -90 -70 -18 -137 -37
-148 -44 l-22 -11 21 -30 c30 -41 57 -38 213 20 222 83 518 148 583 128 24 -7
58 -7 112 0 79 10 207 0 226 -18 20 -18 -78 -97 -214 -171 l-65 -36 -110 11
c-111 10 -111 10 -150 -16 -46 -30 -117 -57 -151 -57 -18 0 -24 -6 -24 -21 0
-29 38 -79 60 -79 10 0 54 22 97 50 l77 50 24 -23 c21 -19 23 -28 18 -70 -4
-26 -9 -53 -12 -61 -3 -8 -63 -40 -135 -72 l-129 -58 22 -23 c28 -29 50 -29
96 2 36 24 86 33 96 17 9 -15 -27 -73 -68 -108 -23 -20 -78 -56 -123 -82 -86
-49 -103 -67 -81 -88 10 -10 33 -3 112 32 54 24 105 44 113 44 7 0 32 9 54 20
77 40 148 188 195 407 17 81 18 83 51 89 18 3 39 15 46 25 8 10 91 48 193 86
176 67 179 69 182 99 4 41 -31 70 -155 131 l-95 46 -124 -23 c-97 -19 -126
-21 -137 -11 -11 9 -31 9 -78 1 -35 -5 -89 -10 -120 -10 l-55 0 -18 74 c-10
41 -23 79 -29 84 -7 5 -35 12 -64 15 -77 9 -131 28 -156 54 -25 26 -29 27 -45
11z"/>
<path d="M863 2449 c-9 -9 -7 -21 8 -50 24 -48 24 -62 -2 -209 l-22 -121 24
-25 c22 -23 24 -24 41 -7 23 24 45 115 57 243 l10 105 -36 38 c-38 38 -61 45
-80 26z"/>
<path d="M1123 2119 c-7 -7 -4 -41 13 -117 19 -89 23 -137 24 -279 0 -95 5
-195 11 -222 14 -65 2 -101 -58 -183 -54 -74 -209 -228 -229 -228 -26 0 -15
47 61 263 41 117 75 225 75 239 0 58 -64 98 -156 98 -63 0 -96 -48 -56 -82 9
-9 31 -20 47 -25 29 -9 30 -12 33 -74 3 -55 -1 -73 -32 -139 -49 -104 -74
-208 -87 -367 l-11 -135 30 -36 c44 -56 55 -53 103 30 113 197 234 368 259
368 6 0 10 -102 10 -266 l0 -265 -36 -15 -37 -15 7 -55 c15 -126 86 -186 127
-106 12 22 14 159 16 792 l3 765 -45 33 c-48 35 -56 37 -72 21z"/>
<path d="M2080 1768 c-133 -19 -355 -111 -525 -219 l-68 -43 -38 22 c-28 16
-39 19 -47 9 -26 -33 -77 -264 -66 -300 9 -30 111 -89 243 -141 l121 -49 0
-42 c0 -40 -5 -47 -83 -122 -87 -83 -187 -143 -239 -143 -21 0 -28 -5 -28 -20
0 -16 7 -20 35 -20 76 0 214 67 351 171 36 27 70 49 75 49 5 0 42 -28 82 -63
177 -154 369 -280 481 -316 93 -30 122 -34 145 -19 16 10 25 10 39 1 14 -8 44
-6 128 8 138 25 137 25 126 46 -6 10 -50 27 -113 45 -268 74 -505 164 -639
244 -88 52 -180 137 -180 166 0 10 18 99 40 198 51 228 51 226 0 240 -22 6
-46 8 -53 4 -6 -4 -96 -60 -198 -125 -102 -66 -191 -119 -197 -119 -15 0 -15
47 -1 91 17 49 71 117 132 162 126 95 418 207 540 207 53 0 67 -3 67 -15 0
-19 -66 -68 -153 -111 -50 -26 -67 -40 -65 -52 6 -26 66 -19 193 23 120 39
180 72 190 106 6 17 -4 33 -51 80 l-58 59 -61 -1 c-33 -1 -89 -6 -125 -11z
m-230 -440 c0 -16 -57 -208 -62 -214 -6 -5 -180 54 -191 65 -13 13 53 74 130
120 67 40 123 53 123 29z"/>
</g>
</svg>
