<?xml version="1.0" standalone="no"?>
<!DOCTYPE svg PUBLIC "-//W3C//DTD SVG 20010904//EN"
 "http://www.w3.org/TR/2001/REC-SVG-20010904/DTD/svg10.dtd">
<svg version="1.0" xmlns="http://www.w3.org/2000/svg"
 width="360.000000pt" height="360.000000pt" viewBox="0 0 360.000000 360.000000"
 preserveAspectRatio="xMidYMid meet">
<metadata>
Created by potrace 1.15, written by Peter Selinger 2001-2017
</metadata>
<g transform="translate(0.000000,360.000000) scale(0.100000,-0.100000)"
fill="#000000" stroke="none">
<path d="M1432 2938 c-8 -8 8 -32 68 -98 75 -82 80 -90 80 -132 0 -42 -3 -47
-40 -72 -69 -45 -306 -131 -333 -120 -8 3 -19 -2 -26 -10 -11 -13 -9 -22 9
-51 12 -19 23 -35 24 -35 2 0 52 18 112 41 320 121 521 184 713 224 106 23
123 24 213 13 65 -7 98 -15 98 -23 0 -35 -161 -145 -212 -145 -13 0 -18 -8
-18 -30 0 -16 3 -30 8 -30 25 0 328 81 359 96 53 26 56 64 10 122 -38 49 -115
106 -162 122 -95 32 -130 30 -359 -16 -121 -24 -227 -44 -236 -44 -9 0 -21 15
-29 36 -17 46 -84 95 -183 134 -90 35 -81 33 -96 18z"/>
<path d="M1004 2529 c18 -112 18 -155 1 -204 -10 -30 -19 -97 -22 -168 -6
-113 -5 -118 17 -142 29 -31 50 -32 78 -2 26 28 28 44 6 69 -16 16 -16 18 0
24 14 5 16 28 16 178 0 94 -5 188 -11 209 -12 46 -41 77 -70 77 -20 0 -21 -4
-15 -41z"/>
<path d="M1592 2443 c-6 -11 -5 -42 1 -78 5 -33 7 -77 3 -97 -9 -47 -76 -123
-148 -166 -51 -30 -58 -32 -99 -23 -62 15 -64 14 -77 -14 -34 -75 4 -125 94
-125 50 0 54 -2 54 -23 0 -27 -79 -159 -123 -204 -22 -23 -40 -33 -61 -33 -27
0 -35 7 -59 50 -33 58 -44 67 -63 49 -11 -12 -8 -35 20 -147 l34 -132 -112
-106 c-136 -130 -259 -224 -342 -261 -45 -20 -64 -33 -64 -47 0 -27 38 -17
165 43 197 93 312 177 392 284 25 34 51 61 57 59 6 -2 23 -15 39 -30 25 -24
27 -31 27 -112 0 -48 5 -111 11 -142 11 -54 10 -56 -31 -139 -61 -120 -143
-374 -135 -416 20 -107 83 -7 145 231 16 59 31 110 32 112 2 1 22 -2 45 -7 40
-11 43 -9 146 56 90 56 112 66 144 63 l38 -3 3 -216 2 -216 -44 -37 c-62 -50
-77 -48 -105 19 -35 84 -121 143 -121 82 0 -26 107 -207 148 -250 112 -117
188 56 199 455 l6 188 31 19 c45 29 127 116 175 188 35 52 117 209 172 330
l14 31 80 -59 c162 -120 374 -203 547 -216 86 -6 87 -6 99 19 16 37 -11 76
-59 83 -213 35 -471 164 -700 348 -45 37 -87 67 -92 67 -31 0 35 94 115 165
37 32 65 65 65 75 0 11 -19 32 -46 50 -37 26 -52 31 -80 26 -37 -7 -39 -12
-24 -51 9 -24 5 -32 -52 -91 -33 -35 -67 -64 -75 -64 -8 0 -54 28 -103 63
-121 84 -120 106 6 124 93 14 128 31 132 64 6 51 -14 54 -168 19 -78 -18 -144
-30 -146 -27 -2 2 1 28 7 57 l11 52 -38 39 c-41 42 -77 50 -92 22z m169 -364
c82 -55 149 -121 149 -146 0 -42 -137 -145 -361 -272 -70 -39 -134 -71 -143
-71 -12 0 -16 10 -16 42 0 44 -6 33 207 361 46 70 88 127 94 127 5 0 37 -18
70 -41z m309 -365 c0 -30 -52 -169 -91 -244 -76 -146 -185 -235 -304 -247 -51
-5 -55 -4 -55 15 0 15 10 26 34 36 45 19 104 73 176 163 92 114 84 125 -62 88
-200 -51 -308 -107 -308 -161 0 -18 110 -20 128 -2 9 9 12 5 12 -18 0 -34 -31
-90 -69 -121 -29 -25 -86 -30 -94 -9 -3 7 -8 69 -12 137 l-7 125 54 50 c82 74
227 146 438 214 l84 28 38 -19 c21 -11 38 -26 38 -35z"/>
<path d="M2044 1188 c-12 -19 52 -64 149 -106 l90 -38 43 -97 c51 -115 93
-180 118 -185 10 -2 29 7 43 20 23 21 24 28 19 77 -17 146 -108 236 -303 300
-112 37 -150 44 -159 29z"/>
</g>
</svg>
