<?xml version="1.0" standalone="no"?>
<!DOCTYPE svg PUBLIC "-//W3C//DTD SVG 20010904//EN"
 "http://www.w3.org/TR/2001/REC-SVG-20010904/DTD/svg10.dtd">
<svg version="1.0" xmlns="http://www.w3.org/2000/svg"
 width="360.000000pt" height="360.000000pt" viewBox="0 0 360.000000 360.000000"
 preserveAspectRatio="xMidYMid meet">
<metadata>
Created by potrace 1.15, written by Peter Selinger 2001-2017
</metadata>
<g transform="translate(0.000000,360.000000) scale(0.100000,-0.100000)"
fill="#000000" stroke="none">
<path d="M1755 3006 c-33 -14 -95 -79 -95 -99 0 -31 22 -36 67 -14 l44 21 43
-44 44 -45 -11 -67 c-7 -47 -7 -89 0 -135 17 -116 -29 -266 -111 -360 -66 -76
-194 -122 -338 -123 -27 0 -48 -3 -48 -6 0 -3 9 -18 20 -34 27 -38 88 -60 163
-60 57 0 68 4 129 45 37 25 77 45 89 45 20 0 21 -4 15 -41 -21 -133 -162 -262
-419 -384 -121 -58 -335 -140 -459 -176 l-78 -23 -24 23 c-13 13 -32 21 -43
19 -15 -3 -18 -13 -16 -71 1 -44 7 -77 18 -93 16 -25 21 -26 83 -22 80 4 158
38 367 162 324 191 738 386 821 386 10 0 14 -14 14 -47 l0 -48 -117 -90 c-187
-144 -391 -313 -480 -399 -82 -78 -83 -79 -83 -128 0 -40 9 -76 25 -96 1 -1
28 7 60 18 99 34 95 39 95 -104 0 -94 5 -139 19 -185 48 -156 208 -281 480
-375 114 -40 178 -46 188 -19 4 9 -13 252 -36 539 -41 497 -44 596 -21 634 5
8 63 26 132 41 197 43 230 65 175 117 -20 19 -36 22 -132 24 l-110 3 -3 32
c-3 30 2 36 53 68 202 130 386 181 543 150 l43 -8 -3 34 c-4 46 -49 74 -141
89 -128 22 -350 -15 -689 -115 -65 -19 -121 -35 -124 -35 -4 0 -4 37 -2 83 7
95 36 186 77 237 24 30 36 36 86 42 32 4 66 15 77 24 36 33 13 114 -33 114 -8
0 -43 -10 -78 -21 -95 -32 -94 -37 -79 214 11 202 11 209 -9 235 -20 27 -87
65 -133 75 -14 3 -39 0 -55 -7z m485 -993 c0 -10 -75 -63 -89 -63 -6 0 -11 11
-11 24 0 19 7 25 43 33 56 14 57 14 57 6z m-239 -357 c-35 -36 -144 -100 -161
-94 -33 11 123 128 169 128 25 0 25 0 -8 -34z m33 -198 c4 -29 17 -219 31
-423 13 -203 27 -396 30 -428 6 -55 5 -57 -18 -57 -36 0 -173 47 -241 83 -87
46 -150 108 -188 185 l-33 67 -3 182 -4 183 25 0 c20 0 28 -9 46 -53 25 -62
71 -121 114 -148 30 -18 30 -18 44 8 23 45 15 106 -29 218 -23 58 -39 107 -37
109 19 16 228 125 241 126 13 0 18 -12 22 -52z"/>
</g>
</svg>
