<?xml version="1.0" standalone="no"?>
<!DOCTYPE svg PUBLIC "-//W3C//DTD SVG 20010904//EN"
 "http://www.w3.org/TR/2001/REC-SVG-20010904/DTD/svg10.dtd">
<svg version="1.0" xmlns="http://www.w3.org/2000/svg"
 width="360.000000pt" height="360.000000pt" viewBox="0 0 360.000000 360.000000"
 preserveAspectRatio="xMidYMid meet">
<metadata>
Created by potrace 1.15, written by Peter Selinger 2001-2017
</metadata>
<g transform="translate(0.000000,360.000000) scale(0.100000,-0.100000)"
fill="#000000" stroke="none">
<path d="M2301 2713 c-36 -43 -36 -46 -16 -63 13 -11 20 -11 40 0 31 17 50 8
71 -32 22 -42 23 -112 1 -257 -14 -90 -15 -122 -6 -149 7 -22 8 -37 2 -41 -6
-3 -13 -43 -16 -88 -10 -136 -14 -141 -153 -192 -157 -58 -316 -128 -362 -158
-34 -24 -41 -25 -107 -16 -61 7 -79 6 -137 -14 l-68 -22 0 63 0 63 161 42
c191 49 249 72 249 99 0 28 -42 62 -77 62 -50 0 -230 -57 -372 -117 -11 -5
-13 3 -7 47 11 84 42 138 133 229 79 78 83 84 68 101 -9 10 -39 28 -67 40 -50
21 -50 22 -44 59 18 113 19 211 2 255 -18 48 -51 76 -89 76 -32 0 -87 -59 -87
-93 0 -29 37 -71 71 -82 22 -7 22 -11 9 -124 -20 -172 -80 -280 -175 -311 -37
-12 -182 -8 -219 6 -12 5 -16 -1 -16 -23 0 -37 19 -54 93 -88 57 -26 57 -27
127 -11 92 21 90 22 90 -21 0 -52 -83 -161 -175 -231 -91 -68 -362 -242 -378
-242 -6 0 -23 9 -37 20 -14 11 -30 20 -36 20 -18 0 -54 -45 -54 -68 0 -31 57
-92 86 -92 13 0 74 33 136 74 218 143 409 252 476 271 21 6 22 3 22 -43 0 -44
-6 -57 -42 -104 -23 -29 -106 -116 -185 -194 -121 -119 -143 -146 -143 -171 0
-17 8 -38 20 -48 18 -17 21 -16 72 15 l52 32 34 -18 c19 -10 37 -24 39 -31 3
-7 -61 -81 -141 -164 -134 -140 -146 -155 -146 -189 0 -40 38 -87 62 -77 7 3
199 132 427 287 228 154 419 282 424 283 5 1 19 -35 31 -80 60 -220 191 -441
311 -523 66 -45 165 -139 165 -157 0 -8 7 -13 17 -11 53 10 84 179 64 344 -10
83 -10 105 1 123 11 17 11 25 -1 43 -15 24 -34 528 -29 748 l3 115 45 22 c61
30 175 53 266 53 l74 0 0 38 c0 27 -7 44 -22 59 l-23 20 -169 -23 c-94 -13
-172 -21 -175 -19 -2 3 5 110 16 238 12 127 18 234 13 237 -4 3 -11 30 -15 60
-10 75 -32 125 -67 155 -43 37 -80 33 -117 -12z m95 -940 c4 -33 2 -53 -5 -57
-15 -9 -14 -89 1 -104 9 -9 9 -17 -2 -36 -16 -31 -7 -224 15 -332 8 -38 11
-70 6 -72 -4 -1 -2 -31 5 -65 17 -81 19 -368 2 -385 -16 -16 -45 -15 -102 4
-99 34 -199 173 -268 372 -32 94 -46 225 -27 248 8 9 7 22 -1 46 -15 42 0 88
29 88 35 0 111 -43 115 -65 35 -182 56 -205 108 -114 l21 37 -22 71 c-37 120
-107 181 -210 181 -45 0 -52 -3 -65 -27 -7 -16 -19 -54 -26 -86 -6 -32 -22
-70 -36 -87 -37 -43 -154 -118 -302 -194 -198 -100 -211 -90 -81 61 123 142
233 292 261 353 19 41 27 50 49 50 14 0 136 42 270 94 178 69 246 91 251 82 4
-6 10 -35 14 -63z m-746 -198 c-33 -88 -95 -165 -132 -165 -17 0 -19 4 -13 33
17 80 81 157 130 157 22 0 24 -3 15 -25z m-250 -265 c0 -51 -3 -62 -23 -75
-18 -12 -31 -12 -62 -4 -22 6 -42 13 -44 15 -6 6 110 124 121 124 4 0 8 -27 8
-60z"/>
</g>
</svg>
