<?xml version="1.0" standalone="no"?>
<!DOCTYPE svg PUBLIC "-//W3C//DTD SVG 20010904//EN"
 "http://www.w3.org/TR/2001/REC-SVG-20010904/DTD/svg10.dtd">
<svg version="1.0" xmlns="http://www.w3.org/2000/svg"
 width="360.000000pt" height="360.000000pt" viewBox="0 0 360.000000 360.000000"
 preserveAspectRatio="xMidYMid meet">
<metadata>
Created by potrace 1.15, written by Peter Selinger 2001-2017
</metadata>
<g transform="translate(0.000000,360.000000) scale(0.100000,-0.100000)"
fill="#000000" stroke="none">
<path d="M2003 3131 c-18 -5 -49 -21 -69 -37 -214 -171 -312 -234 -367 -234
-37 0 -95 56 -103 100 -5 24 -11 30 -28 28 -16 -2 -23 -13 -30 -49 -5 -25 -6
-61 -2 -80 13 -74 116 -157 177 -144 44 10 163 92 280 192 57 50 113 100 123
112 15 16 31 21 69 21 49 0 49 0 42 -27 -22 -91 -155 -234 -318 -341 -195
-129 -682 -357 -710 -333 -9 7 -16 4 -26 -11 -11 -18 -9 -24 15 -49 15 -16 35
-29 43 -29 9 0 92 25 184 56 93 31 170 54 173 51 3 -3 -6 -63 -20 -133 -46
-237 -56 -343 -56 -575 l0 -221 33 -32 c22 -22 46 -35 75 -40 27 -4 42 -11 40
-18 -7 -19 -950 -322 -967 -311 -12 8 -18 2 -28 -26 -11 -32 -10 -38 10 -59
19 -21 28 -24 77 -19 60 5 374 106 699 223 112 41 205 74 207 74 2 0 4 -34 4
-76 0 -41 5 -141 11 -222 11 -147 11 -147 56 -233 64 -122 150 -228 223 -278
71 -47 114 -61 188 -61 102 0 166 56 197 175 17 68 20 373 5 630 -10 175 -16
163 105 201 99 31 241 52 423 60 l140 7 52 -32 c29 -18 58 -30 64 -28 6 3 25
24 41 47 27 39 28 44 14 68 -10 18 -31 33 -65 44 -61 20 -288 36 -298 20 -3
-6 -21 -9 -39 -6 -17 3 -97 -4 -177 -14 -80 -11 -149 -17 -153 -15 -5 3 -5 12
-1 22 4 9 11 160 15 336 4 176 11 345 14 375 l6 55 -96 53 c-90 49 -99 52
-133 42 -99 -27 -142 -2 -142 83 0 40 6 61 25 90 l26 37 92 0 c111 1 229 15
265 32 21 10 28 21 30 51 3 34 0 39 -30 51 -18 8 -70 20 -114 26 -78 11 -83
11 -103 -9 -17 -17 -33 -21 -82 -21 -48 0 -60 3 -57 15 2 8 52 73 111 145
l109 130 -19 38 c-30 62 -138 96 -230 73z m-107 -638 c-3 -10 -13 -48 -22 -85
-11 -45 -21 -68 -31 -68 -20 0 -53 78 -53 128 l0 42 56 0 c48 0 55 -2 50 -17z
m-225 -114 c26 -18 29 -26 29 -78 l0 -57 -75 -31 -75 -32 0 29 c0 44 59 190
77 190 8 0 28 -9 44 -21z m487 -114 c42 -36 52 -88 52 -288 0 -205 0 -206
-107 -255 -68 -31 -300 -98 -310 -89 -2 3 64 63 146 133 110 94 151 135 151
151 0 24 -26 43 -59 43 -29 0 -27 31 3 59 36 34 56 82 56 134 0 51 -7 59 -65
67 -32 4 -41 10 -43 27 -3 18 4 24 30 32 63 18 114 13 146 -14z m-248 -76 c6
-22 20 -48 31 -57 10 -9 19 -23 19 -30 0 -14 -217 -242 -231 -242 -13 0 22
213 48 289 21 64 39 81 84 81 36 0 39 -2 49 -41z m-309 -170 c-25 -114 -9
-179 43 -179 38 0 37 -10 -9 -67 -25 -30 -45 -58 -45 -62 0 -4 11 -18 25 -31
l25 -24 -42 -43 c-29 -29 -51 -43 -69 -43 -49 0 -53 16 -46 188 8 213 33 296
98 329 31 16 35 2 20 -68z m499 -449 c0 -16 -7 -20 -34 -20 -25 0 -36 -5 -41
-19 -12 -39 -128 -96 -296 -145 -127 -36 -159 -41 -159 -24 0 13 131 94 237
147 69 34 215 81 256 81 30 0 37 -4 37 -20z m-31 -277 c31 -62 42 -163 48
-445 6 -257 5 -267 -16 -310 -23 -49 -80 -88 -128 -88 -42 0 -148 67 -206 130
-55 60 -108 162 -132 255 -8 33 -18 113 -22 178 l-6 117 39 0 c35 0 49 -10
154 -105 l115 -105 55 3 55 2 -3 35 c-6 76 -90 171 -218 245 -43 25 -64 44
-64 57 0 24 5 26 141 48 167 26 165 26 188 -17z"/>
</g>
</svg>
