<?xml version="1.0" standalone="no"?>
<!DOCTYPE svg PUBLIC "-//W3C//DTD SVG 20010904//EN"
 "http://www.w3.org/TR/2001/REC-SVG-20010904/DTD/svg10.dtd">
<svg version="1.0" xmlns="http://www.w3.org/2000/svg"
 width="360.000000pt" height="360.000000pt" viewBox="0 0 360.000000 360.000000"
 preserveAspectRatio="xMidYMid meet">
<metadata>
Created by potrace 1.15, written by Peter Selinger 2001-2017
</metadata>
<g transform="translate(0.000000,360.000000) scale(0.100000,-0.100000)"
fill="#000000" stroke="none">
<path d="M1523 2438 c-17 -18 -23 -36 -23 -71 0 -25 5 -49 10 -52 6 -3 24 4
42 16 l31 23 -7 -40 c-3 -21 -11 -91 -17 -154 -18 -196 -78 -332 -183 -410
-66 -49 -82 -56 -136 -64 -170 -26 -280 -58 -280 -81 0 -21 48 -53 106 -72 50
-15 57 -15 114 0 33 9 82 31 108 47 50 30 82 38 82 20 0 -22 -156 -373 -226
-510 -73 -142 -176 -300 -201 -308 -9 -2 -13 7 -13 28 0 37 -16 70 -33 70 -7
0 -27 -15 -45 -33 -29 -30 -32 -38 -32 -98 l0 -66 49 -41 c27 -23 54 -42 59
-42 15 0 82 94 165 231 111 185 347 640 347 670 0 110 103 229 273 314 82 41
288 115 322 115 10 0 15 10 15 33 0 50 -34 77 -95 77 -41 0 -65 -10 -161 -65
-69 -39 -125 -65 -143 -65 l-29 0 49 193 c27 105 49 205 49 220 0 71 -51 122
-132 133 -37 5 -46 2 -65 -18z"/>
<path d="M2100 2355 c0 -28 61 -85 111 -102 27 -10 49 -21 49 -26 0 -5 -12
-24 -26 -43 l-27 -35 28 -29 c26 -27 35 -30 91 -30 60 0 62 1 103 45 22 24 41
54 41 65 0 33 -108 134 -164 153 -65 22 -206 24 -206 2z"/>
<path d="M1645 1596 l-40 -34 22 -24 22 -23 -20 -205 c-33 -332 -19 -422 81
-519 94 -91 224 -130 456 -138 228 -8 448 21 563 73 52 23 53 25 48 57 -4 17
-18 91 -31 162 -14 72 -35 213 -46 315 -29 248 -24 230 -66 230 l-35 0 5 -42
c15 -114 47 -520 44 -554 -3 -35 -8 -41 -48 -61 -76 -38 -221 -56 -455 -57
-201 -1 -212 0 -262 23 -98 44 -163 144 -163 249 1 31 16 165 35 297 l33 240
-24 23 c-35 31 -72 28 -119 -12z"/>
</g>
</svg>
