<?xml version="1.0" standalone="no"?>
<!DOCTYPE svg PUBLIC "-//W3C//DTD SVG 20010904//EN"
 "http://www.w3.org/TR/2001/REC-SVG-20010904/DTD/svg10.dtd">
<svg version="1.0" xmlns="http://www.w3.org/2000/svg"
 width="360.000000pt" height="360.000000pt" viewBox="0 0 360.000000 360.000000"
 preserveAspectRatio="xMidYMid meet">
<metadata>
Created by potrace 1.15, written by Peter Selinger 2001-2017
</metadata>
<g transform="translate(0.000000,360.000000) scale(0.100000,-0.100000)"
fill="#000000" stroke="none">
<path d="M2165 2849 c-216 -136 -376 -191 -483 -168 -81 19 -86 1 -15 -50 45
-32 67 -41 98 -41 110 0 287 48 369 100 63 40 80 40 71 -2 -31 -141 -205 -266
-508 -364 -77 -25 -89 -26 -102 -13 -13 13 -12 22 5 79 28 91 26 142 -5 177
-23 26 -26 27 -39 10 -7 -9 -19 -45 -25 -80 -49 -258 -314 -1031 -423 -1237
-86 -160 -189 -337 -267 -455 -64 -98 -161 -208 -191 -217 -12 -4 -9 -12 14
-37 17 -17 35 -31 41 -31 28 0 162 157 267 313 38 56 96 143 129 192 145 214
312 624 459 1121 l21 70 48 -9 c41 -9 60 -7 137 17 103 33 157 58 176 84 9 12
38 22 93 31 157 25 240 78 207 132 -14 22 -18 17 145 197 59 65 59 105 2 157
-35 31 -117 76 -137 75 -4 -1 -43 -23 -87 -51z"/>
<path d="M1970 2139 c-221 -89 -278 -109 -292 -100 -53 33 -64 -10 -19 -68
l30 -37 71 9 c70 10 71 10 101 -19 47 -45 54 -63 33 -84 -11 -10 -52 -36 -93
-58 l-74 -40 -62 28 c-86 39 -88 33 -59 -145 28 -165 66 -294 94 -320 20 -18
21 -18 64 13 30 22 56 32 80 32 34 0 36 -2 36 -34 0 -30 -7 -40 -62 -82 -69
-51 -124 -79 -178 -89 -33 -6 -38 -3 -68 34 -22 28 -41 41 -57 41 l-25 0 0
-117 c0 -98 5 -131 25 -196 14 -43 25 -100 25 -127 l0 -50 40 0 c40 0 40 0 40
39 0 34 -19 136 -36 193 -4 12 21 36 87 87 77 60 97 71 130 71 l39 0 0 -195 0
-195 48 0 47 1 125 140 c69 77 135 150 147 164 20 23 23 24 82 13 55 -10 63
-10 82 8 18 16 20 26 15 67 -3 27 -19 79 -37 117 -50 109 -49 110 114 136 128
21 143 21 195 8 65 -17 95 -35 117 -68 14 -21 13 -34 -19 -157 -55 -215 -161
-491 -189 -497 -38 -8 -118 51 -188 138 l-36 44 -17 -27 -18 -26 99 -162 c54
-88 104 -163 111 -166 43 -18 141 65 198 167 69 124 157 380 212 618 l20 83
-37 47 c-65 81 -159 132 -245 132 -23 0 -84 -9 -136 -20 -65 -15 -96 -18 -104
-10 -16 16 -37 12 -132 -26 -49 -20 -116 -47 -149 -59 l-61 -23 -22 39 -23 40
50 22 c32 14 119 84 255 206 113 101 206 186 206 190 0 14 -89 100 -120 116
-62 32 -182 14 -304 -45 -49 -23 -62 -26 -68 -15 -5 7 -21 16 -37 20 -27 6
-51 38 -51 69 0 8 44 29 108 51 121 42 212 85 232 110 11 14 10 20 -7 43 -11
15 -29 28 -39 29 -10 1 -143 -47 -294 -108z m300 -294 c0 -32 -31 -93 -62
-122 -30 -28 -138 -93 -155 -93 -10 0 -13 20 -13 75 0 89 12 104 104 134 114
37 126 37 126 6z m-354 -162 c8 -11 13 -45 14 -86 l0 -68 -52 -24 c-93 -41
-106 -40 -163 10 l-49 45 20 21 c17 16 198 117 213 119 2 0 10 -8 17 -17z
m310 -445 c9 -29 19 -58 21 -63 6 -16 -272 -245 -297 -245 -19 0 -20 4 -14 38
30 168 106 282 204 310 62 18 67 16 86 -40z"/>
</g>
</svg>
