<?xml version="1.0" standalone="no"?>
<!DOCTYPE svg PUBLIC "-//W3C//DTD SVG 20010904//EN"
 "http://www.w3.org/TR/2001/REC-SVG-20010904/DTD/svg10.dtd">
<svg version="1.0" xmlns="http://www.w3.org/2000/svg"
 width="360.000000pt" height="360.000000pt" viewBox="0 0 360.000000 360.000000"
 preserveAspectRatio="xMidYMid meet">
<metadata>
Created by potrace 1.15, written by Peter Selinger 2001-2017
</metadata>
<g transform="translate(0.000000,360.000000) scale(0.100000,-0.100000)"
fill="#000000" stroke="none">
<path d="M1577 2313 c-4 -3 -7 -18 -7 -32 0 -20 11 -32 50 -55 59 -35 86 -70
100 -128 15 -69 12 -582 -5 -737 -19 -173 -30 -191 -155 -255 -61 -32 -214
-85 -288 -101 -32 -7 -33 -6 -25 22 4 15 8 62 7 103 -1 89 -29 157 -85 202
-32 26 -42 29 -98 26 l-63 -3 32 -40 c81 -101 90 -149 70 -358 -6 -66 -6 -105
0 -118 13 -23 90 -69 116 -69 10 0 56 25 102 55 102 66 253 141 386 190 142
52 395 115 506 125 140 12 146 16 108 78 l-21 35 -181 -7 c-100 -4 -205 -9
-235 -13 l-53 -6 6 39 c9 53 20 927 12 957 -3 15 -19 31 -40 41 -60 28 -226
63 -239 49z"/>
<path d="M2333 1651 c-13 -11 -23 -22 -23 -25 0 -3 26 -45 57 -93 l57 -88 -12
-152 c-6 -85 -17 -162 -24 -173 -16 -25 -67 -50 -102 -50 -14 0 -26 -3 -26 -8
0 -35 24 -188 36 -230 18 -63 44 -92 83 -92 39 0 65 35 91 117 36 116 90 496
90 631 0 57 -2 62 -37 93 -29 25 -151 90 -165 89 -2 -1 -13 -9 -25 -19z"/>
</g>
</svg>
