<?xml version="1.0" standalone="no"?>
<!DOCTYPE svg PUBLIC "-//W3C//DTD SVG 20010904//EN"
 "http://www.w3.org/TR/2001/REC-SVG-20010904/DTD/svg10.dtd">
<svg version="1.0" xmlns="http://www.w3.org/2000/svg"
 width="360.000000pt" height="360.000000pt" viewBox="0 0 360.000000 360.000000"
 preserveAspectRatio="xMidYMid meet">
<metadata>
Created by potrace 1.15, written by Peter Selinger 2001-2017
</metadata>
<g transform="translate(0.000000,360.000000) scale(0.100000,-0.100000)"
fill="#000000" stroke="none">
<path d="M1672 2957 l-22 -23 47 -64 47 -63 -26 -236 c-17 -160 -23 -240 -16
-248 14 -17 1 -83 -16 -83 -7 0 -38 9 -69 19 -36 13 -57 16 -57 9 0 -6 -7 -16
-16 -22 -14 -11 -11 -16 20 -40 20 -15 36 -31 36 -36 0 -13 -186 -135 -240
-158 -25 -11 -60 -23 -78 -27 -43 -9 -42 6 4 74 61 90 96 178 102 253 4 65 4
67 -29 97 -58 52 -89 37 -70 -36 10 -36 5 -53 -74 -258 -47 -121 -85 -224 -85
-230 0 -6 13 -23 28 -38 47 -45 72 -38 268 78 97 58 178 104 179 103 33 -51
50 -68 67 -68 18 0 20 -5 16 -45 -10 -85 -92 -217 -243 -390 -51 -58 -65 -81
-65 -106 l0 -31 58 6 c31 4 65 9 74 12 26 8 197 -166 233 -238 l29 -56 -19
-37 c-76 -141 -343 -436 -560 -618 -66 -55 -121 -106 -123 -112 -2 -7 3 -17
10 -23 52 -43 297 163 620 522 l125 139 242 417 c132 229 241 427 241 438 0
50 -107 122 -181 122 -12 0 -97 -43 -187 -96 -90 -52 -166 -93 -169 -90 -3 3
4 42 15 87 l21 82 -60 62 c-32 34 -59 69 -59 77 0 11 14 17 46 21 61 6 134 57
190 130 47 64 48 65 35 86 -7 12 -20 9 -75 -13 -36 -14 -68 -26 -71 -26 -10 0
-5 100 16 295 11 110 18 226 16 258 -6 72 -40 121 -95 137 -51 14 -56 13 -80
-13z m458 -1142 c0 -20 -81 -217 -123 -299 -53 -105 -160 -256 -180 -256 -7 1
-24 20 -39 43 -15 24 -63 82 -107 129 -45 47 -81 93 -81 101 0 18 174 125 357
219 117 60 173 80 173 63z"/>
<path d="M2155 2569 c-28 -16 -45 -39 -45 -61 0 -15 9 -18 53 -18 28 0 69 -5
89 -10 38 -11 102 -65 93 -79 -2 -5 -68 -54 -145 -110 -77 -56 -138 -106 -135
-111 13 -22 153 25 338 113 136 64 141 70 113 126 -38 72 -180 152 -281 158
-34 2 -69 -1 -80 -8z"/>
</g>
</svg>
