<?xml version="1.0" standalone="no"?>
<!DOCTYPE svg PUBLIC "-//W3C//DTD SVG 20010904//EN"
 "http://www.w3.org/TR/2001/REC-SVG-20010904/DTD/svg10.dtd">
<svg version="1.0" xmlns="http://www.w3.org/2000/svg"
 width="360.000000pt" height="360.000000pt" viewBox="0 0 360.000000 360.000000"
 preserveAspectRatio="xMidYMid meet">
<metadata>
Created by potrace 1.15, written by Peter Selinger 2001-2017
</metadata>
<g transform="translate(0.000000,360.000000) scale(0.100000,-0.100000)"
fill="#000000" stroke="none">
<path d="M2190 2504 c-196 -67 -314 -103 -331 -100 -20 4 -29 -1 -39 -20 -13
-22 -11 -27 20 -59 31 -32 39 -35 92 -35 l59 0 -15 -27 c-26 -52 -76 -223
-100 -346 -46 -231 -72 -511 -81 -877 -3 -129 -10 -263 -16 -298 l-10 -62 41
-60 c22 -33 43 -60 47 -60 3 0 34 17 67 39 138 87 307 159 439 187 101 21 184
17 408 -17 191 -29 202 -29 220 -13 35 32 24 68 -35 118 l-53 46 -255 0 c-324
0 -414 -15 -625 -101 -30 -12 -33 -11 -53 13 -11 15 -30 28 -43 30 -22 3 -22
6 -25 178 -2 139 2 204 19 314 17 114 19 143 8 162 -9 17 -9 27 -1 37 8 10 8
23 0 49 -21 71 68 416 147 567 65 122 106 157 327 273 109 57 198 107 198 111
0 20 -51 57 -77 56 -15 0 -165 -47 -333 -105z"/>
<path d="M1012 2368 c-17 -17 -15 -25 12 -61 70 -94 96 -189 78 -287 -6 -32
-7 -59 -1 -66 5 -6 5 -25 -1 -45 -6 -18 -15 -94 -20 -169 -21 -266 -41 -329
-132 -426 -44 -47 -137 -114 -159 -114 -3 0 -9 39 -12 88 -11 154 -50 238
-125 269 -32 13 -36 13 -58 -8 -29 -27 -32 -69 -6 -69 27 0 59 -27 86 -73 l25
-42 -22 -155 c-27 -186 -23 -220 28 -220 26 0 47 13 106 66 276 248 483 394
562 394 24 0 27 -4 27 -31 0 -20 -13 -49 -35 -79 -19 -26 -35 -59 -35 -72 0
-33 42 -72 68 -64 26 9 82 117 122 239 31 94 31 99 14 118 -16 17 -16 21 -1
37 14 15 13 23 -10 81 -40 97 -122 172 -139 126 -3 -8 8 -59 25 -114 48 -155
54 -145 -96 -158 -71 -6 -131 -8 -135 -5 -10 10 10 324 27 427 9 50 25 123 36
164 l20 74 -27 38 c-14 21 -52 63 -84 93 -47 45 -65 56 -92 56 -19 0 -39 -5
-46 -12z"/>
<path d="M2430 2135 c0 -9 14 -36 30 -60 37 -54 38 -84 4 -183 -41 -124 -51
-135 -141 -161 -166 -48 -302 -131 -337 -205 -24 -51 -22 -166 4 -199 24 -30
85 -54 158 -61 l52 -5 132 176 132 175 71 -6 c108 -11 105 -9 105 -76 0 -55
-4 -64 -59 -147 -32 -48 -87 -118 -121 -156 -52 -56 -60 -70 -50 -82 7 -8 16
-15 21 -15 17 0 147 97 196 148 86 86 183 239 183 286 0 53 -87 116 -230 167
-36 12 -66 23 -68 25 -2 1 22 63 52 138 l54 136 -29 39 c-32 44 -65 65 -121
75 -31 6 -38 4 -38 -9z m-140 -571 c0 -14 -24 -66 -52 -114 -51 -86 -54 -90
-89 -90 -25 0 -42 7 -58 24 -20 21 -21 28 -11 64 20 78 100 141 178 142 28 0
32 -3 32 -26z"/>
</g>
</svg>
