<?xml version="1.0" standalone="no"?>
<!DOCTYPE svg PUBLIC "-//W3C//DTD SVG 20010904//EN"
 "http://www.w3.org/TR/2001/REC-SVG-20010904/DTD/svg10.dtd">
<svg version="1.0" xmlns="http://www.w3.org/2000/svg"
 width="360.000000pt" height="360.000000pt" viewBox="0 0 360.000000 360.000000"
 preserveAspectRatio="xMidYMid meet">
<metadata>
Created by potrace 1.15, written by Peter Selinger 2001-2017
</metadata>
<g transform="translate(0.000000,360.000000) scale(0.100000,-0.100000)"
fill="#000000" stroke="none">
<path d="M1906 2904 c-34 -51 -33 -71 3 -79 58 -13 61 -24 45 -185 -28 -294
-48 -352 -157 -457 -55 -53 -185 -133 -217 -133 -5 0 0 24 11 53 25 62 22 131
-11 203 -29 66 -47 84 -87 84 -38 0 -37 5 -3 -109 16 -56 16 -56 -16 -185 -18
-72 -31 -133 -29 -136 2 -4 22 -15 44 -24 l39 -18 149 52 c147 52 148 53 206
116 109 118 238 206 326 220 39 6 41 9 41 41 0 21 -6 36 -15 39 -9 4 -52 -3
-98 -14 -45 -12 -83 -20 -84 -18 -2 1 7 109 19 240 18 206 19 240 7 263 -17
32 -73 70 -116 79 -28 5 -34 2 -57 -32z"/>
<path d="M2427 2604 c-4 -4 -7 -18 -7 -31 0 -30 -34 -111 -74 -178 -76 -128
-242 -318 -455 -519 -64 -61 -117 -116 -119 -123 -2 -8 5 -13 17 -13 45 0 16
-28 -91 -90 -155 -89 -305 -163 -423 -209 -152 -59 -141 -58 -165 -11 -21 40
-22 41 -41 24 -30 -27 -25 -84 10 -118 27 -26 34 -28 93 -24 95 6 238 75 616
296 89 52 165 92 169 89 11 -11 -35 -107 -92 -192 -53 -80 -137 -167 -193
-201 -16 -9 -37 -38 -50 -69 -38 -87 -180 -253 -439 -516 -214 -217 -243 -250
-243 -277 0 -29 3 -32 33 -32 29 1 56 27 312 305 154 167 287 304 296 304 22
1 58 -40 69 -80 6 -19 10 -81 10 -139 l0 -106 33 -32 c39 -38 47 -39 75 -9 20
21 22 34 22 138 0 104 3 120 26 167 37 74 120 144 239 202 103 51 256 105 328
117 l41 6 -29 -39 c-309 -409 -324 -438 -274 -535 l20 -41 62 7 c242 25 327
53 327 111 0 26 -58 81 -95 90 -23 6 -63 1 -122 -13 -20 -4 -23 -1 -23 22 0
47 136 207 264 309 83 67 86 71 86 111 0 49 -21 73 -90 104 -60 27 -120 26
-226 -4 -148 -43 -361 -158 -543 -295 l-33 -25 -24 30 c-13 17 -23 33 -21 37
10 29 398 485 521 613 79 83 86 93 86 131 0 44 -30 84 -64 84 -10 0 -75 -34
-146 -75 -115 -67 -160 -87 -160 -69 0 3 85 89 189 192 187 186 267 282 342
409 l38 67 -29 50 c-29 51 -41 62 -53 50z"/>
</g>
</svg>
