<?xml version="1.0" standalone="no"?>
<!DOCTYPE svg PUBLIC "-//W3C//DTD SVG 20010904//EN"
 "http://www.w3.org/TR/2001/REC-SVG-20010904/DTD/svg10.dtd">
<svg version="1.0" xmlns="http://www.w3.org/2000/svg"
 width="360.000000pt" height="360.000000pt" viewBox="0 0 360.000000 360.000000"
 preserveAspectRatio="xMidYMid meet">
<metadata>
Created by potrace 1.15, written by Peter Selinger 2001-2017
</metadata>
<g transform="translate(0.000000,360.000000) scale(0.100000,-0.100000)"
fill="#000000" stroke="none">
<path d="M1511 2726 l-22 -24 31 -50 c47 -77 140 -278 221 -481 l74 -184 -85
-80 c-100 -94 -221 -193 -284 -233 -32 -20 -46 -36 -46 -51 0 -21 5 -23 46
-23 43 0 52 5 118 63 177 156 272 220 320 215 26 -3 38 -17 105 -133 225 -383
444 -654 646 -797 123 -88 285 -142 285 -95 0 18 -157 382 -231 533 -62 128
-92 175 -104 162 -3 -3 65 -231 150 -497 17 -55 -103 0 -200 90 -127 119 -303
360 -495 677 l-93 153 34 36 c43 45 121 98 232 158 71 38 87 51 87 70 0 29
-45 47 -233 95 -115 30 -130 32 -143 18 -14 -14 -13 -18 8 -41 13 -15 52 -44
87 -65 36 -21 66 -43 68 -49 4 -12 -146 -113 -169 -113 -8 0 -50 52 -93 118
-72 106 -82 127 -106 222 -34 134 -76 226 -129 284 -24 25 -46 46 -50 46 -3 0
-17 -11 -29 -24z"/>
<path d="M2214 2658 c-4 -6 3 -19 17 -30 74 -59 142 -124 169 -163 29 -42 39
-80 22 -87 -4 -1 -17 -22 -29 -45 -19 -40 -19 -43 -3 -58 9 -8 31 -15 48 -15
42 0 62 32 69 109 12 125 -21 202 -112 266 -43 31 -56 35 -111 35 -37 0 -66
-5 -70 -12z"/>
<path d="M1133 2349 c-6 -6 -7 -25 -2 -52 21 -107 13 -149 -49 -271 -55 -106
-181 -304 -338 -529 l-68 -99 24 -19 c14 -10 37 -19 52 -19 23 0 34 12 73 78
26 42 67 105 92 140 56 79 84 83 156 21 l47 -41 0 -111 c0 -70 -10 -181 -27
-294 -26 -177 -26 -183 -8 -203 23 -25 37 -25 61 1 14 15 16 24 7 37 -7 13 -7
23 4 38 20 30 44 228 45 369 2 146 -17 222 -67 272 -25 25 -42 33 -69 33 -20
0 -36 5 -36 10 0 6 38 83 84 173 105 201 156 324 156 374 0 31 -7 46 -33 71
-34 33 -82 43 -104 21z"/>
<path d="M1581 1291 c-13 -13 -21 -34 -21 -53 0 -27 6 -36 32 -48 61 -29 73
-59 73 -179 0 -100 -2 -110 -33 -173 -37 -77 -98 -135 -183 -178 l-56 -29 -22
46 -22 45 33 99 32 99 -21 22 c-19 18 -24 19 -38 8 -23 -19 -50 -76 -64 -135
-20 -81 -39 -246 -32 -274 7 -23 13 -26 61 -29 62 -4 116 14 291 93 64 29 151
63 195 75 217 61 303 116 249 160 -11 9 -39 7 -132 -9 -178 -32 -162 -44 -145
107 15 141 11 236 -13 281 -37 73 -142 114 -184 72z"/>
<path d="M2040 1074 c0 -22 9 -47 25 -68 49 -65 55 -93 55 -274 0 -151 2 -171
18 -185 31 -28 61 -21 77 16 25 59 40 166 27 187 -9 14 -8 21 5 31 21 18 10
116 -21 184 -33 72 -110 145 -153 145 -31 0 -33 -2 -33 -36z"/>
</g>
</svg>
