<?xml version="1.0" standalone="no"?>
<!DOCTYPE svg PUBLIC "-//W3C//DTD SVG 20010904//EN"
 "http://www.w3.org/TR/2001/REC-SVG-20010904/DTD/svg10.dtd">
<svg version="1.0" xmlns="http://www.w3.org/2000/svg"
 width="360.000000pt" height="360.000000pt" viewBox="0 0 360.000000 360.000000"
 preserveAspectRatio="xMidYMid meet">
<metadata>
Created by potrace 1.15, written by Peter Selinger 2001-2017
</metadata>
<g transform="translate(0.000000,360.000000) scale(0.100000,-0.100000)"
fill="#000000" stroke="none">
<path d="M2246 2315 c-142 -74 -263 -132 -270 -128 -6 4 -35 25 -64 47 -43 32
-57 38 -70 29 -24 -15 -17 -66 19 -132 16 -30 29 -58 29 -62 0 -13 -511 -564
-526 -567 -48 -11 30 352 101 474 21 35 31 44 54 44 15 0 42 5 60 11 26 9 31
16 31 44 0 26 -7 39 -29 54 -16 12 -35 21 -43 21 -8 0 -156 -72 -329 -160
-244 -123 -318 -157 -327 -148 -10 10 -17 7 -33 -9 -21 -21 -21 -21 -3 -47 17
-23 26 -25 86 -26 80 0 163 28 280 95 91 53 102 55 95 18 -3 -16 -18 -119 -33
-231 l-28 -203 -75 -36 c-122 -58 -191 -144 -191 -238 0 -32 44 -95 66 -95 98
0 383 297 743 773 91 120 113 143 180 186 101 64 341 195 347 188 3 -2 -68
-140 -156 -307 -89 -166 -171 -321 -182 -345 l-21 -44 26 -40 27 -41 251 125
250 126 57 -11 c30 -5 57 -10 59 -10 2 0 3 -97 3 -216 0 -164 -4 -231 -16
-277 -31 -120 -103 -234 -220 -349 -90 -87 -133 -122 -257 -202 -118 -77 -115
-91 11 -61 130 31 282 124 390 240 85 91 160 232 192 360 46 183 52 407 13
496 -25 57 -83 123 -123 139 -60 25 -210 -20 -371 -111 -82 -47 -109 -57 -109
-42 0 26 190 335 363 590 l111 163 -24 25 c-15 16 -34 25 -54 25 -20 0 -123
-49 -290 -135z"/>
</g>
</svg>
