<?xml version="1.0" standalone="no"?>
<!DOCTYPE svg PUBLIC "-//W3C//DTD SVG 20010904//EN"
 "http://www.w3.org/TR/2001/REC-SVG-20010904/DTD/svg10.dtd">
<svg version="1.0" xmlns="http://www.w3.org/2000/svg"
 width="360.000000pt" height="360.000000pt" viewBox="0 0 360.000000 360.000000"
 preserveAspectRatio="xMidYMid meet">
<metadata>
Created by potrace 1.15, written by Peter Selinger 2001-2017
</metadata>
<g transform="translate(0.000000,360.000000) scale(0.100000,-0.100000)"
fill="#000000" stroke="none">
<path d="M1762 2782 c-210 -59 -381 -111 -379 -117 2 -5 18 -18 36 -29 25 -14
59 -20 147 -24 64 -3 114 -9 114 -15 0 -5 -32 -39 -70 -75 -81 -74 -153 -170
-175 -232 -10 -28 -15 -81 -15 -154 l0 -112 33 -32 c23 -22 42 -32 62 -31 26
0 44 18 142 141 62 78 111 144 108 146 -2 2 -53 -23 -112 -56 l-108 -61 -3 67
c-2 36 -1 76 2 88 8 30 157 181 234 237 l63 46 34 -21 c37 -25 39 -34 51 -250
7 -116 6 -118 -19 -155 -15 -21 -57 -68 -94 -105 -57 -56 -97 -81 -253 -164
-230 -121 -432 -218 -586 -280 -108 -43 -128 -48 -217 -52 -74 -3 -100 -8
-104 -19 -7 -18 84 -113 109 -113 49 0 191 51 353 127 373 176 645 283 715
283 32 0 43 -5 61 -31 21 -30 21 -36 13 -158 -5 -69 -8 -153 -7 -186 14 -667
14 -795 4 -849 -8 -44 -8 -63 1 -73 8 -10 8 -17 0 -25 -22 -22 -14 -92 11
-116 30 -28 34 -28 50 5 51 101 67 290 67 765 0 224 5 452 11 507 8 73 8 105
-1 120 -36 68 71 119 323 156 194 28 314 17 433 -42 55 -27 55 -27 90 -8 19
10 34 26 34 36 0 18 -73 87 -142 135 -33 23 -41 25 -69 15 -23 -8 -42 -8 -68
0 -31 9 -81 4 -298 -30 -144 -23 -269 -41 -278 -41 -11 0 -15 11 -15 43 0 42
3 45 185 227 134 134 185 191 185 208 0 21 -76 122 -92 122 -3 0 -21 -26 -38
-57 -68 -122 -188 -263 -224 -263 -25 0 -43 119 -27 178 11 39 9 46 -29 121
-58 116 -58 115 51 136 120 24 193 60 197 99 5 41 -31 76 -77 75 -20 0 -208
-48 -419 -107z"/>
</g>
</svg>
