<?xml version="1.0" standalone="no"?>
<!DOCTYPE svg PUBLIC "-//W3C//DTD SVG 20010904//EN"
 "http://www.w3.org/TR/2001/REC-SVG-20010904/DTD/svg10.dtd">
<svg version="1.0" xmlns="http://www.w3.org/2000/svg"
 width="360.000000pt" height="360.000000pt" viewBox="0 0 360.000000 360.000000"
 preserveAspectRatio="xMidYMid meet">
<metadata>
Created by potrace 1.15, written by Peter Selinger 2001-2017
</metadata>
<g transform="translate(0.000000,360.000000) scale(0.100000,-0.100000)"
fill="#000000" stroke="none">
<path d="M1443 2669 l-22 -22 42 -54 42 -53 112 0 113 0 0 -42 c0 -24 6 -55
14 -70 l14 -26 -364 -171 c-199 -94 -367 -171 -372 -171 -5 0 -17 9 -27 20
-10 11 -23 20 -30 20 -15 0 -45 -32 -45 -48 0 -16 81 -56 167 -82 l71 -21 -39
-151 c-105 -403 -239 -732 -388 -955 -78 -117 -159 -206 -179 -198 -16 6 -52
-21 -52 -40 0 -6 11 -22 25 -35 23 -21 28 -22 64 -12 43 13 80 52 178 184 203
274 332 549 465 988 32 108 42 157 47 245 l6 110 195 91 c107 50 239 108 294
128 94 36 103 37 195 33 53 -2 127 -13 166 -24 39 -11 100 -24 136 -27 l66 -7
21 32 20 32 -31 44 c-29 40 -35 43 -67 38 -19 -3 -133 -8 -252 -12 -237 -7
-240 -6 -198 47 26 33 27 110 2 133 -10 9 -49 30 -87 48 -62 28 -72 30 -105
19 -33 -11 -89 -2 -165 27 -6 2 -20 -6 -32 -18z"/>
<path d="M1631 2103 c-41 -110 -115 -251 -192 -366 -33 -49 -59 -92 -59 -96 0
-15 37 -41 59 -41 14 0 55 32 115 89 118 112 223 191 306 230 59 28 74 31 164
31 l98 0 -5 -217 c-4 -179 -8 -232 -25 -296 -22 -81 -97 -237 -114 -237 -6 0
-55 25 -109 56 -124 69 -124 72 -34 206 52 79 65 105 65 137 0 43 -4 46 -73
56 -40 6 -56 3 -114 -25 -111 -51 -163 -89 -163 -116 0 -29 -2 -29 85 -4 93
27 94 26 86 -12 -16 -70 -78 -154 -171 -234 -69 -59 -77 -51 -60 65 l13 89
-31 66 c-26 56 -35 66 -57 66 -34 0 -39 -18 -27 -87 7 -44 4 -115 -14 -313
-30 -320 -31 -414 -5 -456 54 -88 202 -140 458 -159 66 -6 97 -4 107 4 11 9
38 10 110 2 126 -14 273 -14 282 0 5 8 9 8 14 -1 5 -8 38 -7 136 5 381 48 604
140 604 249 0 20 -7 47 -15 59 -30 46 -46 195 -52 477 -5 227 -8 278 -21 293
-30 34 -39 20 -45 -70 -17 -242 -19 -330 -9 -337 9 -5 8 -12 0 -26 -9 -14 -9
-37 1 -99 10 -63 11 -84 2 -95 -10 -11 -10 -33 0 -96 11 -79 11 -82 -12 -107
-53 -58 -318 -151 -358 -126 -14 9 -53 7 -177 -11 -140 -20 -180 -21 -334 -14
-329 14 -557 51 -603 96 -19 20 -20 25 -8 77 10 44 10 59 1 70 -8 10 -10 33
-6 72 14 120 13 118 60 131 85 22 159 55 223 98 36 24 71 44 77 44 6 0 45 -34
86 -75 l75 -76 60 3 60 3 27 55 c51 101 93 330 122 660 20 231 18 234 -201
228 -147 -3 -149 -4 -227 -41 -88 -41 -110 -46 -102 -19 2 9 12 52 21 95 l17
78 -23 25 c-39 42 -53 32 -88 -63z"/>
</g>
</svg>
