<?xml version="1.0" standalone="no"?>
<!DOCTYPE svg PUBLIC "-//W3C//DTD SVG 20010904//EN"
 "http://www.w3.org/TR/2001/REC-SVG-20010904/DTD/svg10.dtd">
<svg version="1.0" xmlns="http://www.w3.org/2000/svg"
 width="360.000000pt" height="360.000000pt" viewBox="0 0 360.000000 360.000000"
 preserveAspectRatio="xMidYMid meet">
<metadata>
Created by potrace 1.15, written by Peter Selinger 2001-2017
</metadata>
<g transform="translate(0.000000,360.000000) scale(0.100000,-0.100000)"
fill="#000000" stroke="none">
<path d="M1823 2829 l-31 -32 34 -52 c32 -48 35 -58 32 -116 l-3 -63 -110 -49
c-107 -48 -112 -49 -167 -40 l-58 9 0 -33 c0 -33 50 -103 74 -103 6 0 62 20
125 45 63 25 120 45 128 45 9 0 13 -16 13 -59 l0 -60 -102 -104 c-110 -111
-240 -212 -379 -295 -97 -59 -290 -152 -313 -152 -23 0 -43 38 -56 105 -10 53
-9 70 9 142 12 45 21 108 21 140 0 56 -2 61 -43 101 -47 46 -83 54 -110 24
-24 -26 -22 -34 18 -72 43 -42 43 -53 5 -197 -28 -109 -29 -114 -14 -170 8
-32 35 -101 60 -154 l46 -97 -23 -162 c-15 -98 -31 -174 -41 -191 -23 -37 -69
-60 -143 -69 -55 -7 -64 -5 -112 21 -49 27 -53 28 -53 10 0 -11 -4 -23 -10
-26 -36 -22 38 -58 164 -80 49 -8 90 -15 92 -15 29 0 -60 -193 -184 -402 -81
-135 -102 -198 -68 -198 23 0 134 128 193 224 62 100 183 341 183 363 0 12 10
14 53 8 140 -17 132 -14 215 -86 77 -67 104 -80 117 -59 16 26 78 5 298 -104
252 -125 404 -188 567 -234 224 -64 328 -75 541 -58 137 12 164 17 181 34 26
26 16 60 -20 68 -15 4 -31 10 -37 14 -5 4 -66 11 -135 14 -412 23 -752 111
-1098 285 -142 71 -140 62 -34 163 73 68 141 108 185 108 27 0 27 0 27 -74 0
-67 2 -75 25 -90 32 -21 48 -20 68 2 14 15 17 40 17 125 0 105 0 107 31 142
17 19 64 51 105 71 l73 37 76 -12 c120 -18 115 -19 115 42 0 29 -5 58 -10 63
-8 8 -65 0 -188 -23 -97 -18 -182 -33 -189 -33 -29 0 31 118 99 197 21 24 38
52 38 63 0 30 -33 58 -79 67 l-44 8 81 74 c116 105 111 135 -23 148 -36 3 -65
10 -65 15 0 8 123 70 358 179 l83 39 -17 30 c-10 16 -23 30 -30 30 -6 0 -91
-18 -189 -40 -98 -22 -189 -40 -202 -40 -20 0 -23 3 -17 28 8 31 63 143 93
187 36 52 20 116 -31 128 -18 5 -27 20 -42 71 -21 74 -60 163 -83 188 -24 27
-55 22 -90 -13z m14 -821 c13 -12 23 -29 23 -38 0 -28 -95 -109 -166 -142 -60
-28 -68 -29 -111 -19 l-46 12 -94 -93 c-51 -51 -93 -101 -93 -111 0 -10 10
-31 22 -48 19 -25 27 -29 53 -23 40 9 94 37 176 91 46 31 75 44 93 41 23 -3 0
-26 -194 -196 -147 -129 -220 -200 -218 -210 10 -55 152 4 357 149 68 47 122
79 134 77 18 -3 -51 -73 -344 -346 l-57 -53 -151 43 c-130 37 -151 46 -151 63
0 11 11 90 25 175 14 85 25 188 25 228 0 39 4 72 8 72 4 0 80 43 167 96 88 53
201 116 250 142 92 46 243 111 259 112 6 0 20 -10 33 -22z"/>
</g>
</svg>
