<?xml version="1.0" standalone="no"?>
<!DOCTYPE svg PUBLIC "-//W3C//DTD SVG 20010904//EN"
 "http://www.w3.org/TR/2001/REC-SVG-20010904/DTD/svg10.dtd">
<svg version="1.0" xmlns="http://www.w3.org/2000/svg"
 width="360.000000pt" height="360.000000pt" viewBox="0 0 360.000000 360.000000"
 preserveAspectRatio="xMidYMid meet">
<metadata>
Created by potrace 1.15, written by Peter Selinger 2001-2017
</metadata>
<g transform="translate(0.000000,360.000000) scale(0.100000,-0.100000)"
fill="#000000" stroke="none">
<path d="M2014 2241 c-59 -27 -113 -79 -174 -166 -48 -70 -59 -104 -35 -111 6
-2 62 37 125 86 63 50 120 90 126 90 46 0 53 -113 21 -343 -28 -201 -30 -206
-113 -237 -58 -21 -236 -60 -278 -60 -25 0 -26 2 -26 63 0 34 4 79 9 100 8 34
7 37 -13 37 -18 0 -26 -10 -40 -57 -21 -66 -80 -188 -96 -198 -6 -4 -26 5 -44
19 l-34 25 -4 108 c-3 77 -9 119 -22 145 -23 48 -86 119 -120 138 -26 13 -28
12 -50 -15 l-23 -29 33 -51 c57 -85 74 -149 74 -275 l0 -110 -52 -30 c-60 -34
-173 -76 -335 -125 l-113 -35 -55 22 c-79 30 -90 16 -50 -60 l30 -57 55 -3
c69 -4 140 15 349 91 169 62 180 63 181 15 0 -34 60 -247 85 -304 27 -60 69
-114 91 -114 6 0 62 23 124 50 137 61 160 62 385 21 l160 -30 33 32 c60 57 34
132 -56 161 -38 13 -160 35 -195 36 -13 0 45 100 64 111 10 5 25 35 34 66 39
135 117 248 190 279 39 16 82 18 87 5 2 -5 41 -5 97 1 l93 11 149 -48 c81 -26
154 -45 161 -43 7 3 20 18 28 32 13 26 12 28 -51 92 -112 114 -91 108 -286 79
-92 -14 -209 -25 -259 -25 l-90 0 22 68 c30 89 48 271 35 353 -13 76 -50 141
-103 179 -48 35 -68 36 -124 11z m-14 -785 c10 -20 10 -34 1 -73 -26 -100
-122 -224 -274 -350 -72 -60 -94 -73 -123 -73 -52 0 -59 28 -44 165 15 134 24
158 82 212 64 58 119 84 258 124 84 23 84 23 100 -5z"/>
</g>
</svg>
