<?xml version="1.0" standalone="no"?>
<!DOCTYPE svg PUBLIC "-//W3C//DTD SVG 20010904//EN"
 "http://www.w3.org/TR/2001/REC-SVG-20010904/DTD/svg10.dtd">
<svg version="1.0" xmlns="http://www.w3.org/2000/svg"
 width="360.000000pt" height="360.000000pt" viewBox="0 0 360.000000 360.000000"
 preserveAspectRatio="xMidYMid meet">
<metadata>
Created by potrace 1.15, written by Peter Selinger 2001-2017
</metadata>
<g transform="translate(0.000000,360.000000) scale(0.100000,-0.100000)"
fill="#000000" stroke="none">
<path d="M1327 2350 l-26 -20 56 -78 c80 -112 103 -162 103 -224 0 -29 -9
-172 -20 -317 -15 -199 -17 -267 -9 -277 9 -11 8 -35 -5 -102 -41 -206 -87
-354 -152 -484 -46 -91 -57 -148 -29 -148 31 0 113 91 153 168 71 137 116 315
146 582 19 164 36 463 36 621 l0 116 -101 89 c-55 49 -106 90 -113 92 -7 1
-24 -7 -39 -18z"/>
<path d="M2200 2120 c-85 -32 -197 -68 -247 -81 -51 -13 -93 -27 -93 -32 0
-27 33 -78 55 -87 45 -17 67 -12 274 69 228 89 239 90 310 25 64 -57 69 -96
32 -248 -35 -146 -62 -214 -97 -247 -13 -12 -24 -31 -24 -41 0 -34 -38 -95
-86 -137 -62 -54 -178 -112 -317 -157 -109 -35 -131 -37 -194 -18 -22 6 -23 3
-23 -43 0 -42 4 -53 33 -81 50 -48 82 -44 365 48 166 54 249 77 256 70 5 -5
44 -10 86 -10 89 0 110 14 110 72 0 32 -8 43 -65 95 l-66 58 106 255 c104 252
106 256 95 300 -16 62 -61 129 -131 195 l-60 55 -82 -1 c-74 -1 -96 -6 -237
-59z"/>
<path d="M893 1795 c-8 -23 4 -122 37 -287 35 -172 63 -252 102 -291 l28 -29
40 32 c38 30 40 35 40 84 0 29 -4 56 -10 62 -6 6 2 73 25 194 34 183 35 210 1
210 -6 0 -31 -30 -56 -66 -24 -36 -47 -67 -51 -70 -4 -2 -31 36 -59 86 -37 65
-57 90 -71 90 -11 0 -22 -7 -26 -15z"/>
<path d="M2098 1610 c-112 -23 -194 -61 -210 -95 -11 -24 -9 -28 17 -49 27
-22 31 -22 100 -10 209 36 284 86 224 150 -26 28 -19 28 -131 4z"/>
</g>
</svg>
