<?xml version="1.0" standalone="no"?>
<!DOCTYPE svg PUBLIC "-//W3C//DTD SVG 20010904//EN"
 "http://www.w3.org/TR/2001/REC-SVG-20010904/DTD/svg10.dtd">
<svg version="1.0" xmlns="http://www.w3.org/2000/svg"
 width="360.000000pt" height="360.000000pt" viewBox="0 0 360.000000 360.000000"
 preserveAspectRatio="xMidYMid meet">
<metadata>
Created by potrace 1.15, written by Peter Selinger 2001-2017
</metadata>
<g transform="translate(0.000000,360.000000) scale(0.100000,-0.100000)"
fill="#000000" stroke="none">
<path d="M1786 2733 l-48 -37 28 -23 c32 -25 73 -30 92 -11 16 16 16 -126 1
-206 -9 -41 -9 -60 -1 -68 7 -7 7 -18 -1 -35 -8 -18 -8 -29 0 -42 9 -14 6 -30
-11 -72 -56 -139 -149 -218 -276 -235 -46 -6 -50 -9 -50 -34 0 -15 9 -35 20
-45 19 -17 23 -17 107 19 98 41 137 46 129 19 -3 -10 -15 -61 -26 -113 -26
-116 -51 -162 -132 -235 -92 -82 -412 -295 -444 -295 -6 0 -17 21 -25 48 -12
40 -18 47 -41 50 l-28 3 0 -80 0 -79 34 -21 c18 -12 40 -21 47 -21 8 1 149 88
314 195 205 133 301 189 303 179 2 -8 -40 -62 -93 -121 -117 -129 -176 -204
-210 -268 -32 -61 -33 -120 -4 -151 l22 -23 97 90 c181 167 390 321 468 344
53 15 19 -50 -100 -192 -141 -169 -173 -198 -321 -289 -131 -81 -318 -204
-359 -237 -19 -15 -24 -52 -9 -61 5 -4 65 -1 133 5 l123 10 470 -104 470 -104
260 23 c181 16 272 20 300 14 22 -5 46 -10 53 -10 13 0 16 38 4 57 -14 22 -98
53 -175 65 -69 10 -83 9 -151 -10 -41 -12 -82 -25 -90 -28 -11 -4 -16 0 -16
11 0 12 -5 15 -16 11 -66 -25 -111 -29 -218 -16 -127 14 -401 69 -658 131
-160 38 -178 45 -177 63 0 14 106 117 328 320 l328 299 -9 45 c-13 72 -31 85
-109 80 -83 -4 -180 -50 -354 -167 -66 -44 -126 -81 -133 -81 -22 0 -7 25 16
28 13 2 22 11 22 21 0 20 30 51 48 51 7 0 12 10 12 22 0 24 22 46 185 182 175
146 319 235 454 280 l63 22 -43 35 -44 36 -240 -109 c-219 -100 -240 -108
-252 -92 -7 9 -10 21 -7 25 3 5 12 49 20 99 8 50 23 109 35 131 43 85 122 151
223 185 26 9 45 21 43 28 -6 18 -77 54 -150 77 -62 18 -67 22 -61 42 4 12 8
49 9 83 1 33 7 70 14 81 16 31 14 139 -4 173 -40 77 -116 90 -189 33z"/>
<path d="M1120 2348 c0 -67 -102 -220 -247 -369 -51 -53 -93 -100 -93 -105 0
-5 9 -20 19 -33 l18 -24 111 12 c88 9 117 9 142 -1 l32 -13 -296 -405 c-163
-223 -296 -412 -296 -421 0 -9 8 -27 18 -39 l19 -23 45 49 c261 281 523 632
582 779 38 94 38 126 2 143 -16 8 -58 17 -93 20 -48 4 -63 8 -59 18 3 8 60 86
126 174 69 92 120 168 118 178 -4 19 -103 82 -130 82 -12 0 -18 -8 -18 -22z"/>
<path d="M967 1309 c-16 -10 -16 -12 4 -41 l22 -30 -42 -301 c-23 -166 -41
-311 -41 -323 0 -30 33 -56 67 -52 24 3 30 10 45 55 10 28 26 109 36 180 16
113 17 141 6 242 -9 85 -9 119 -1 133 9 14 5 30 -21 83 -32 66 -42 73 -75 54z"/>
</g>
</svg>
