<?xml version="1.0" standalone="no"?>
<!DOCTYPE svg PUBLIC "-//W3C//DTD SVG 20010904//EN"
 "http://www.w3.org/TR/2001/REC-SVG-20010904/DTD/svg10.dtd">
<svg version="1.0" xmlns="http://www.w3.org/2000/svg"
 width="360.000000pt" height="360.000000pt" viewBox="0 0 360.000000 360.000000"
 preserveAspectRatio="xMidYMid meet">
<metadata>
Created by potrace 1.15, written by Peter Selinger 2001-2017
</metadata>
<g transform="translate(0.000000,360.000000) scale(0.100000,-0.100000)"
fill="#000000" stroke="none">
<path d="M1878 2573 c-10 -2 -18 -6 -18 -9 0 -2 18 -40 40 -84 34 -68 40 -89
40 -142 0 -124 -45 -249 -118 -330 -37 -41 -116 -98 -136 -98 -6 0 -35 29 -64
65 -32 39 -61 65 -73 65 -10 0 -19 -1 -19 -3 0 -1 8 -31 19 -67 39 -138 73
-190 124 -190 22 0 50 18 114 75 47 41 92 75 99 75 10 0 14 -14 14 -45 0 -43
-1 -44 -35 -51 -19 -3 -38 -10 -40 -15 -3 -4 8 -35 25 -69 l31 -60 -28 -26
c-43 -40 -154 -102 -308 -172 -77 -35 -141 -65 -143 -67 -1 -1 7 -26 18 -55
17 -44 19 -58 10 -86 -10 -28 -7 -58 14 -167 42 -214 73 -285 110 -247 13 13
12 40 -4 215 -11 110 -19 218 -20 240 l0 41 83 41 c46 22 113 64 150 91 200
152 413 217 691 210 142 -3 154 -5 204 -31 43 -23 51 -31 42 -42 -8 -10 -8
-24 0 -55 9 -33 8 -70 -5 -174 -23 -180 -59 -373 -90 -481 -27 -92 -80 -215
-93 -215 -4 0 -51 38 -104 85 -53 47 -101 85 -107 85 -6 0 -11 -13 -11 -29 0
-38 192 -301 220 -301 12 0 31 21 53 57 159 264 250 583 272 953 l7 106 -42
42 c-54 53 -127 88 -215 103 -59 9 -103 8 -270 -10 -110 -12 -208 -21 -219
-21 -12 0 29 48 127 149 80 83 182 199 226 258 l82 108 -3 65 -3 65 -58 -2
c-117 -4 -217 -50 -217 -99 0 -22 4 -24 53 -24 29 0 58 5 65 12 9 9 15 9 24 0
10 -10 8 -20 -7 -50 -40 -74 -136 -189 -252 -302 l-118 -115 -3 54 c-2 30 6
159 18 287 20 232 20 232 1 285 -35 92 -80 121 -153 102z"/>
<path d="M1110 2214 c-250 -301 -229 -270 -197 -301 25 -26 25 -26 103 -13
l78 12 34 -37 c27 -29 32 -42 27 -63 -16 -71 -149 -313 -334 -606 -44 -72 -81
-135 -81 -142 0 -6 8 -22 19 -35 l19 -23 175 264 c262 398 327 509 327 563 0
40 -5 48 -55 96 -55 52 -107 81 -144 81 -11 0 -23 4 -26 10 -8 13 107 123 233
223 102 81 103 82 100 122 -2 32 -9 44 -37 62 -19 13 -37 23 -40 23 -3 0 -94
-106 -201 -236z"/>
<path d="M2075 1458 c-135 -69 -265 -125 -309 -133 -43 -8 -41 8 -24 -233 11
-156 14 -174 34 -193 l22 -21 21 21 c24 24 35 64 54 193 16 104 36 149 89 193
38 32 128 78 186 96 83 25 76 4 -67 -186 -73 -97 -134 -182 -137 -189 -3 -7 3
-19 12 -26 14 -12 26 -11 83 9 36 13 108 43 159 67 90 42 93 45 88 71 -19 97
-19 97 23 181 23 45 41 90 41 99 0 20 -36 84 -54 95 -6 4 -36 8 -66 7 -46 0
-71 -8 -155 -51z"/>
<path d="M1135 1308 c-6 -18 -105 -574 -105 -592 0 -17 66 -60 80 -51 12 7 48
126 95 314 l36 144 -35 36 c-33 34 -36 41 -36 99 0 49 -3 62 -15 62 -9 0 -18
-6 -20 -12z"/>
</g>
</svg>
