<?xml version="1.0" standalone="no"?>
<!DOCTYPE svg PUBLIC "-//W3C//DTD SVG 20010904//EN"
 "http://www.w3.org/TR/2001/REC-SVG-20010904/DTD/svg10.dtd">
<svg version="1.0" xmlns="http://www.w3.org/2000/svg"
 width="360.000000pt" height="360.000000pt" viewBox="0 0 360.000000 360.000000"
 preserveAspectRatio="xMidYMid meet">
<metadata>
Created by potrace 1.15, written by Peter Selinger 2001-2017
</metadata>
<g transform="translate(0.000000,360.000000) scale(0.100000,-0.100000)"
fill="#000000" stroke="none">
<path d="M2156 2882 c-3 -5 4 -38 14 -73 11 -35 20 -71 20 -79 0 -10 -95 -59
-280 -144 -211 -97 -280 -133 -278 -145 7 -37 68 -24 288 62 363 143 470 194
470 226 0 60 -208 195 -234 153z"/>
<path d="M1072 2687 c-25 -26 -32 -42 -32 -73 0 -47 14 -64 51 -64 l27 0 7
-297 c3 -164 7 -327 8 -363 1 -36 -6 -144 -16 -240 -34 -359 -40 -491 -23
-554 19 -75 48 -106 97 -106 54 0 62 15 49 93 -9 49 -9 84 0 139 12 80 16 71
-55 125 l-23 18 34 290 c18 160 33 299 33 311 1 31 41 85 79 104 32 17 35 17
97 -3 63 -20 65 -20 85 -2 13 12 20 28 18 44 -2 21 -17 33 -77 64 -42 21 -88
37 -108 37 -29 0 -34 -4 -40 -30 l-6 -31 -23 22 c-23 21 -24 29 -24 138 0 64
5 136 11 160 6 26 6 47 1 50 -5 3 -12 31 -16 62 -8 65 -36 116 -72 129 -39 15
-48 13 -82 -23z"/>
<path d="M2038 2433 c-16 -15 -15 -19 17 -56 62 -73 96 -234 60 -293 -24 -42
-41 -52 -266 -167 -211 -107 -316 -147 -407 -155 l-54 -5 43 -43 c40 -41 47
-44 96 -44 70 0 145 30 371 145 102 52 187 94 188 92 11 -13 40 -147 33 -154
-6 -6 -6 -27 0 -54 6 -24 11 -91 11 -149 0 -58 5 -216 11 -352 9 -189 9 -251
0 -262 -8 -10 -9 -26 -2 -57 6 -24 11 -86 11 -137 0 -52 5 -100 12 -111 9 -15
7 -41 -10 -122 l-21 -104 25 -25 c24 -24 26 -24 39 -6 20 26 43 142 54 266 6
64 6 256 1 490 -5 212 -9 480 -10 596 0 204 1 212 23 245 48 71 153 105 352
115 90 5 153 3 199 -6 62 -12 68 -11 81 6 22 29 18 62 -9 79 -29 19 -146 45
-207 45 -25 0 -126 -18 -224 -40 -98 -22 -181 -40 -185 -40 -4 0 -11 30 -14
68 -11 109 -33 171 -76 214 -32 32 -44 38 -82 38 -27 0 -50 -6 -60 -17z"/>
<path d="M690 1838 c0 -181 31 -290 84 -296 72 -8 110 33 162 174 26 73 26 75
8 89 -32 25 -68 15 -79 -23 -8 -29 -13 -33 -39 -30 -27 3 -30 8 -48 73 -21 75
-40 105 -70 105 -16 0 -18 -9 -18 -92z"/>
</g>
</svg>
