<?xml version="1.0" standalone="no"?>
<!DOCTYPE svg PUBLIC "-//W3C//DTD SVG 20010904//EN"
 "http://www.w3.org/TR/2001/REC-SVG-20010904/DTD/svg10.dtd">
<svg version="1.0" xmlns="http://www.w3.org/2000/svg"
 width="360.000000pt" height="360.000000pt" viewBox="0 0 360.000000 360.000000"
 preserveAspectRatio="xMidYMid meet">
<metadata>
Created by potrace 1.15, written by Peter Selinger 2001-2017
</metadata>
<g transform="translate(0.000000,360.000000) scale(0.100000,-0.100000)"
fill="#000000" stroke="none">
<path d="M1440 2462 c0 -10 -4 -22 -10 -28 -6 -6 18 -37 70 -89 l80 -80 0
-205 c0 -245 -4 -255 -105 -348 -79 -72 -236 -156 -415 -222 -119 -43 -157
-47 -262 -24 -26 6 -28 4 -28 -23 0 -21 13 -41 48 -76 l48 -47 87 0 c48 0 87
-2 87 -4 0 -2 -22 -50 -49 -107 -85 -182 -135 -343 -147 -475 -6 -65 -5 -70
19 -92 34 -32 62 -22 82 31 29 77 35 147 17 198 l-16 47 44 113 c23 63 61 160
83 217 l39 102 121 81 c227 152 541 286 822 350 90 20 106 21 181 11 85 -13
119 -8 143 22 18 22 7 60 -24 80 -14 9 -53 24 -88 33 l-62 16 -230 -72 c-127
-39 -238 -71 -247 -71 -21 0 -27 30 -34 181 l-7 126 91 65 c81 58 98 66 152
71 65 7 118 29 127 53 6 16 -52 84 -71 84 -6 0 -38 -18 -71 -40 -67 -45 -152
-80 -193 -80 -25 0 -30 5 -41 49 -18 69 -77 123 -166 150 -81 25 -75 25 -75 3z"/>
<path d="M2392 1528 c2 -15 63 -69 193 -170 105 -81 195 -148 201 -148 18 0
44 35 44 59 0 94 -109 177 -330 252 -105 35 -112 35 -108 7z"/>
<path d="M1975 1398 c-56 -57 -115 -120 -133 -140 l-31 -38 -92 70 c-53 41
-101 70 -115 70 -21 0 -23 -3 -18 -32 13 -66 45 -122 109 -184 85 -84 110 -86
196 -14 l60 50 32 -22 c130 -91 427 -360 427 -387 0 -22 -331 -39 -420 -22
-45 9 -66 9 -73 2 -30 -30 -162 9 -272 81 -83 54 -260 224 -329 316 l-40 52
-23 -22 c-13 -12 -23 -26 -23 -30 0 -5 17 -30 39 -56 21 -26 53 -75 71 -110
68 -129 214 -255 364 -313 132 -51 221 -64 436 -64 270 1 422 35 452 100 14
31 14 31 -142 167 -172 152 -311 255 -400 296 -41 20 -77 37 -80 39 -14 12 46
85 122 150 48 42 88 81 88 87 -1 26 -39 56 -71 56 -29 0 -47 -14 -134 -102z"/>
</g>
</svg>
