<?xml version="1.0" standalone="no"?>
<!DOCTYPE svg PUBLIC "-//W3C//DTD SVG 20010904//EN"
 "http://www.w3.org/TR/2001/REC-SVG-20010904/DTD/svg10.dtd">
<svg version="1.0" xmlns="http://www.w3.org/2000/svg"
 width="360.000000pt" height="360.000000pt" viewBox="0 0 360.000000 360.000000"
 preserveAspectRatio="xMidYMid meet">
<metadata>
Created by potrace 1.15, written by Peter Selinger 2001-2017
</metadata>
<g transform="translate(0.000000,360.000000) scale(0.100000,-0.100000)"
fill="#000000" stroke="none">
<path d="M1522 2693 c-36 -52 -50 -88 -45 -116 6 -30 37 -57 65 -57 10 0 18
-3 18 -7 0 -5 -9 -102 -21 -218 -16 -155 -26 -215 -37 -228 -18 -21 -199 -158
-335 -256 -49 -35 -92 -60 -96 -55 -5 5 -38 46 -75 92 -101 123 -108 111 -46
-73 23 -66 58 -183 80 -260 21 -77 49 -169 62 -205 20 -58 26 -65 52 -68 39
-5 106 21 192 74 40 24 77 44 83 44 12 0 11 -6 -15 -111 -18 -74 -18 -79 6
-79 11 0 74 -36 140 -80 l119 -80 69 0 c97 0 154 31 267 146 49 50 112 106
138 123 64 43 267 141 292 141 11 0 55 -5 97 -12 74 -11 77 -12 82 -42 13 -70
74 -112 176 -123 70 -7 100 10 100 58 0 36 -95 140 -164 180 -48 27 -57 29
-169 29 -100 0 -130 -4 -193 -25 -114 -38 -218 -95 -343 -188 -180 -134 -223
-157 -299 -157 -47 0 -75 6 -112 25 -27 13 -52 30 -56 36 -3 6 -9 47 -11 90
-4 68 -1 86 18 126 43 89 86 119 277 194 191 75 242 102 242 128 0 21 -30 51
-51 51 -9 0 -71 -22 -139 -50 -123 -50 -155 -58 -148 -41 2 5 103 103 226 217
l223 207 -42 43 c-45 46 -91 58 -117 32 -9 -9 -12 -9 -12 0 0 7 -67 -12 -171
-48 -167 -58 -209 -69 -209 -52 0 4 16 73 35 152 23 93 34 155 29 175 -20 99
-49 206 -66 248 -19 44 -23 47 -59 47 -30 0 -42 -6 -57 -27z m478 -602 c0 -23
-24 -52 -140 -165 -150 -146 -212 -196 -242 -196 -16 0 -18 9 -18 103 0 114 1
117 70 153 54 28 303 133 318 133 7 1 12 -11 12 -28z m-530 -349 c0 -113 -1
-120 -29 -164 -31 -48 -100 -109 -163 -142 -31 -17 -40 -18 -66 -7 -39 16 -61
49 -68 104 -13 89 38 183 129 241 46 29 169 85 190 86 4 0 7 -53 7 -118z"/>
<path d="M1050 1125 c-10 -12 -3 -27 35 -85 146 -220 392 -373 696 -434 246
-50 647 -43 794 14 39 15 75 49 75 70 0 21 -196 213 -305 300 -109 86 -235
146 -235 112 0 -5 37 -38 83 -73 113 -88 234 -205 264 -257 14 -23 23 -45 21
-47 -2 -3 -87 -14 -189 -26 -286 -33 -475 -17 -679 56 -175 63 -299 143 -439
282 -56 57 -104 103 -106 103 -1 0 -8 -7 -15 -15z"/>
<path d="M870 1058 c-35 -36 -105 -174 -142 -280 -19 -56 -21 -71 -11 -88 10
-15 10 -32 2 -70 -10 -48 -10 -50 18 -74 36 -32 68 -33 88 -3 8 13 29 62 46
108 l31 84 -12 99 -11 99 38 41 c67 70 68 74 48 96 -26 29 -58 25 -95 -12z"/>
</g>
</svg>
