<?xml version="1.0" standalone="no"?>
<!DOCTYPE svg PUBLIC "-//W3C//DTD SVG 20010904//EN"
 "http://www.w3.org/TR/2001/REC-SVG-20010904/DTD/svg10.dtd">
<svg version="1.0" xmlns="http://www.w3.org/2000/svg"
 width="360.000000pt" height="360.000000pt" viewBox="0 0 360.000000 360.000000"
 preserveAspectRatio="xMidYMid meet">
<metadata>
Created by potrace 1.15, written by Peter Selinger 2001-2017
</metadata>
<g transform="translate(0.000000,360.000000) scale(0.100000,-0.100000)"
fill="#000000" stroke="none">
<path d="M1260 2690 l-22 -31 36 -60 36 -60 -41 -332 c-22 -183 -43 -340 -47
-349 -6 -15 -19 -8 -82 41 -63 49 -83 72 -123 144 -75 134 -144 227 -169 227
-19 0 -20 -4 -14 -42 8 -55 65 -176 114 -242 20 -28 74 -92 119 -143 46 -50
83 -94 83 -97 0 -11 -95 -154 -162 -243 -37 -50 -89 -110 -114 -132 -42 -37
-45 -43 -42 -83 3 -42 4 -43 38 -43 19 1 72 5 117 9 l83 8 -85 -136 c-144
-229 -225 -415 -225 -517 0 -45 33 -91 64 -87 26 4 41 35 68 140 17 67 19 90
10 122 -10 39 -9 42 75 173 46 73 87 133 90 133 2 0 27 -25 55 -55 156 -170
406 -295 699 -347 106 -19 161 -22 379 -23 271 0 372 10 441 45 31 17 39 26
38 48 0 22 -31 54 -172 179 -95 84 -241 208 -326 275 l-154 122 39 34 c60 51
142 103 198 124 40 15 70 19 136 16 99 -4 153 -26 277 -114 l76 -55 30 30 31
30 -18 39 c-25 55 -90 116 -156 146 -68 31 -187 50 -262 42 -136 -14 -311
-112 -522 -291 -36 -30 -71 -55 -78 -55 -7 0 -26 22 -41 50 -39 70 -75 110
-99 110 -20 0 -21 -4 -15 -67 4 -38 11 -84 16 -103 15 -51 73 -144 93 -148 44
-8 103 21 160 79 31 32 63 59 70 59 28 0 127 -54 198 -108 41 -31 132 -112
202 -181 130 -126 150 -159 111 -177 -10 -4 -130 -9 -268 -12 -337 -5 -465 17
-695 124 -97 46 -283 165 -357 229 -49 42 -61 89 -21 83 13 -2 24 -11 26 -23
6 -32 22 -45 57 -45 51 0 65 24 65 111 0 41 -5 80 -11 86 -8 8 -8 13 0 17 7 5
11 44 11 101 0 52 4 96 9 100 5 3 58 -8 117 -25 66 -18 131 -30 168 -30 l61 0
86 88 c109 110 162 179 185 238 l18 47 125 -6 c85 -4 160 -14 229 -31 123 -31
144 -32 165 -8 30 32 21 51 -35 77 -70 32 -147 51 -285 72 -62 9 -113 19 -113
23 0 3 33 100 74 215 l75 210 -39 38 c-29 28 -48 37 -73 37 -70 0 -240 -129
-504 -384 -83 -80 -157 -146 -165 -146 -8 0 -22 6 -32 13 -17 12 -15 28 34
307 28 162 53 302 55 310 4 16 -114 110 -139 110 -8 0 -24 -14 -36 -30z m750
-327 c0 -5 -25 -82 -55 -173 l-55 -165 -128 -38 c-222 -66 -374 -155 -389
-228 -5 -25 -10 -29 -39 -29 -22 0 -34 5 -34 13 0 43 382 446 505 533 103 73
195 113 195 87z m-246 -535 c-39 -76 -98 -161 -134 -192 -25 -20 -42 -26 -80
-26 -46 0 -49 1 -60 35 -18 56 8 105 83 152 41 25 180 82 205 83 8 0 3 -18
-14 -52z m-584 -373 c0 -63 -3 -115 -7 -115 -21 0 -103 35 -103 44 0 6 14 50
31 98 28 77 35 88 55 88 24 0 24 -1 24 -115z"/>
</g>
</svg>
