<?xml version="1.0" standalone="no"?>
<!DOCTYPE svg PUBLIC "-//W3C//DTD SVG 20010904//EN"
 "http://www.w3.org/TR/2001/REC-SVG-20010904/DTD/svg10.dtd">
<svg version="1.0" xmlns="http://www.w3.org/2000/svg"
 width="360.000000pt" height="360.000000pt" viewBox="0 0 360.000000 360.000000"
 preserveAspectRatio="xMidYMid meet">
<metadata>
Created by potrace 1.15, written by Peter Selinger 2001-2017
</metadata>
<g transform="translate(0.000000,360.000000) scale(0.100000,-0.100000)"
fill="#000000" stroke="none">
<path d="M1180 2651 c0 -25 23 -68 46 -87 l26 -21 -151 -301 c-83 -166 -151
-308 -151 -314 1 -7 13 -27 28 -44 15 -17 66 -76 114 -131 l88 -100 -44 -129
-43 -129 -36 -3 -37 -3 0 55 c0 53 -1 56 -25 56 -28 0 -29 -4 -14 -66 9 -35 9
-59 0 -99 -15 -65 -41 -101 -89 -121 -45 -18 -103 -74 -143 -135 -61 -96 -133
-345 -108 -375 9 -11 9 -18 1 -26 -31 -31 8 -138 49 -138 42 0 68 139 69 365
l1 120 93 97 94 97 61 -22 62 -22 20 25 c28 36 80 149 124 267 l38 102 39 -20
c86 -44 136 -7 145 105 7 76 3 79 -63 40 -36 -21 -47 -24 -59 -14 -8 7 -15 19
-15 26 0 37 130 332 203 461 71 124 61 172 -30 158 -61 -9 -137 -43 -196 -88
-48 -38 -73 -47 -64 -24 3 6 37 80 76 164 39 83 71 157 71 165 0 8 -24 37 -53
66 -44 44 -58 52 -90 52 -20 0 -37 -4 -37 -9z m210 -458 c0 -14 -35 -111 -77
-215 l-78 -190 -39 6 c-55 9 -135 45 -146 67 -21 39 -9 60 98 170 101 105 201
187 230 188 6 1 12 -11 12 -26z"/>
<path d="M2060 2541 c-64 -20 -170 -85 -313 -194 -75 -57 -78 -60 -61 -78 31
-35 69 -24 203 59 69 43 132 82 140 87 12 7 13 -1 8 -47 -11 -107 -98 -278
-217 -423 -88 -108 -96 -104 -133 61 -23 101 -58 194 -73 194 -3 0 -19 -9 -35
-21 -27 -19 -29 -25 -29 -86 0 -57 4 -70 30 -103 l30 -38 0 -180 c0 -167 1
-181 21 -206 25 -32 61 -51 111 -60 31 -6 57 1 148 38 196 81 317 154 343 208
15 31 15 34 -5 55 -12 13 -33 23 -48 23 -15 0 -98 -44 -207 -110 -150 -91
-188 -110 -221 -110 -44 0 -41 -5 -58 113 -6 47 -6 47 23 47 59 0 165 90 237
202 69 108 226 454 226 498 0 7 -11 28 -26 47 -26 34 -45 39 -94 24z"/>
<path d="M2448 1514 c-19 -18 -4 -33 52 -53 79 -29 219 -123 313 -211 41 -38
79 -70 84 -70 5 0 22 13 38 30 27 28 28 31 14 57 -8 14 -47 62 -87 105 -104
110 -170 142 -307 146 -55 2 -103 0 -107 -4z"/>
<path d="M2175 1439 c-16 -5 -95 -68 -175 -139 -157 -141 -153 -139 -230 -102
-21 10 -41 30 -50 50 -13 29 -19 32 -50 30 -32 -3 -35 -6 -38 -37 -6 -60 18
-121 68 -173 46 -47 47 -48 109 -48 57 0 68 4 113 36 43 32 54 36 89 30 86
-14 207 -95 355 -238 54 -53 91 -95 88 -103 -17 -42 -346 -99 -380 -65 -7 7
-26 7 -60 -1 -46 -11 -71 -7 -299 40 -138 29 -257 54 -265 57 -8 2 -78 83
-155 179 -77 95 -144 174 -148 174 -20 2 -17 -33 5 -57 19 -20 27 -43 32 -87
8 -74 52 -168 103 -217 118 -114 305 -174 615 -199 229 -18 588 14 695 61 38
17 43 23 43 52 0 30 -11 43 -111 128 -133 114 -317 254 -416 317 -40 25 -73
51 -73 58 0 7 52 62 117 123 84 79 114 114 110 126 -7 18 -43 20 -92 5z"/>
</g>
</svg>
