<?xml version="1.0" standalone="no"?>
<!DOCTYPE svg PUBLIC "-//W3C//DTD SVG 20010904//EN"
 "http://www.w3.org/TR/2001/REC-SVG-20010904/DTD/svg10.dtd">
<svg version="1.0" xmlns="http://www.w3.org/2000/svg"
 width="360.000000pt" height="360.000000pt" viewBox="0 0 360.000000 360.000000"
 preserveAspectRatio="xMidYMid meet">
<metadata>
Created by potrace 1.15, written by Peter Selinger 2001-2017
</metadata>
<g transform="translate(0.000000,360.000000) scale(0.100000,-0.100000)"
fill="#000000" stroke="none">
<path d="M1912 2689 c6 -17 7 -34 2 -38 -153 -135 -325 -294 -381 -350 -68
-69 -73 -76 -73 -117 l0 -44 46 0 c34 0 54 7 80 26 49 38 100 53 177 54 80 0
117 -17 144 -67 15 -29 16 -35 3 -47 -8 -8 -102 -73 -207 -146 -106 -72 -193
-138 -193 -146 0 -18 29 -64 41 -64 5 0 71 43 146 95 106 74 144 95 170 95 28
0 33 -4 33 -22 0 -34 -52 -136 -99 -195 -38 -47 -44 -51 -67 -43 -32 12 -71
13 -78 1 -3 -5 -1 -22 5 -39 10 -28 7 -36 -31 -93 l-42 -61 19 -26 c10 -14 26
-30 34 -35 11 -7 90 22 283 102 147 61 275 115 283 120 12 6 11 12 -10 37
l-25 28 -89 -26 c-49 -15 -96 -30 -104 -33 -15 -5 -39 35 -39 67 0 10 68 100
150 200 82 100 150 186 150 190 0 4 -16 26 -36 48 -34 37 -40 40 -90 40 -29 0
-56 -5 -60 -11 -3 -6 -14 1 -24 19 -37 60 -199 129 -261 112 -19 -6 -40 -10
-46 -10 -20 0 -15 40 5 47 64 24 372 282 372 312 0 37 -32 51 -118 51 l-81 0
11 -31z"/>
<path d="M1170 2645 c-10 -12 -10 -34 -2 -97 6 -46 9 -85 8 -88 -2 -3 -123
-202 -271 -443 -242 -397 -266 -441 -257 -463 10 -20 57 -44 66 -33 1 2 40 72
86 154 155 280 308 509 444 666 72 83 74 87 66 122 -10 46 -44 111 -82 160
-33 41 -40 44 -58 22z"/>
<path d="M1014 1815 c-3 -8 8 -39 25 -68 31 -54 31 -57 31 -192 0 -84 -6 -172
-16 -226 -15 -80 -15 -91 -1 -107 31 -35 49 -142 23 -142 -24 0 -83 -75 -120
-153 -20 -42 -56 -135 -81 -208 l-46 -133 35 -35 c20 -19 37 -33 40 -30 2 2
27 51 56 108 l51 103 -22 24 -22 23 28 63 c47 108 108 220 144 267 l34 45 -11
87 c-7 47 -12 174 -12 280 0 201 -8 257 -41 290 -23 23 -87 26 -95 4z"/>
<path d="M2516 1473 c-13 -13 -4 -22 112 -109 64 -49 151 -122 193 -161 76
-72 106 -86 128 -59 13 16 5 67 -20 117 -37 75 -147 148 -284 187 -95 28 -121
33 -129 25z"/>
<path d="M2036 1320 c-115 -60 -214 -110 -220 -110 -6 0 -41 20 -78 45 -37 25
-72 45 -78 45 -16 0 -11 -61 9 -106 24 -52 74 -91 148 -114 l58 -18 45 36 c25
19 50 39 56 44 8 5 86 -61 223 -187 116 -108 211 -197 211 -199 0 -8 -191 -47
-200 -41 -6 4 -79 13 -163 21 -331 30 -537 119 -729 317 -77 78 -100 89 -114
52 -9 -22 53 -101 155 -197 140 -133 259 -205 435 -263 137 -45 235 -59 401
-58 142 0 261 18 400 61 57 17 60 19 63 52 2 34 0 36 -105 102 -230 141 -452
317 -468 369 -9 28 62 109 141 161 55 36 64 47 62 68 -2 16 -10 26 -23 28 -11
1 -114 -47 -229 -108z"/>
</g>
</svg>
