<?xml version="1.0" standalone="no"?>
<!DOCTYPE svg PUBLIC "-//W3C//DTD SVG 20010904//EN"
 "http://www.w3.org/TR/2001/REC-SVG-20010904/DTD/svg10.dtd">
<svg version="1.0" xmlns="http://www.w3.org/2000/svg"
 width="360.000000pt" height="360.000000pt" viewBox="0 0 360.000000 360.000000"
 preserveAspectRatio="xMidYMid meet">
<metadata>
Created by potrace 1.15, written by Peter Selinger 2001-2017
</metadata>
<g transform="translate(0.000000,360.000000) scale(0.100000,-0.100000)"
fill="#000000" stroke="none">
<path d="M1516 2931 l-39 -39 42 -49 41 -49 0 -153 c0 -168 -9 -212 -50 -263
-57 -69 -192 -117 -330 -118 l-64 0 39 -40 c46 -48 56 -48 230 -20 67 11 123
16 128 11 13 -13 -9 -82 -44 -134 -74 -113 -253 -231 -522 -347 -101 -43 -127
-50 -182 -50 -62 0 -65 -1 -65 -24 0 -27 81 -96 114 -96 12 -1 157 68 322 152
300 152 302 153 323 134 17 -15 21 -30 21 -75 l-1 -56 -202 -121 c-234 -140
-241 -149 -155 -189 29 -14 104 -37 166 -51 61 -15 112 -31 112 -35 0 -5 -39
-27 -87 -49 -48 -23 -97 -50 -109 -61 -17 -16 -29 -19 -57 -14 -39 8 -43 4
-99 -101 l-21 -41 64 -119 c127 -236 309 -372 599 -448 170 -45 305 -60 545
-60 277 -1 385 20 385 73 0 10 -86 102 -203 218 -199 196 -336 315 -377 328
-26 8 -25 29 1 66 12 17 19 40 17 56 -3 27 -5 28 -65 27 -82 -1 -164 -40 -187
-88 -9 -19 -16 -39 -16 -45 0 -7 -23 -11 -60 -11 -33 0 -60 4 -60 9 0 17 -52
71 -82 87 -27 14 -31 14 -49 -2 -30 -27 -23 -45 42 -121 74 -89 142 -137 182
-129 37 7 111 59 139 97 12 16 27 29 34 29 18 0 131 -86 203 -154 35 -34 111
-115 169 -181 l106 -120 -45 -8 c-24 -5 -109 -9 -189 -10 -168 -1 -397 30
-464 63 -23 11 -58 20 -77 20 -81 0 -202 51 -290 123 -90 73 -209 244 -209
299 0 25 3 28 35 28 25 0 69 19 153 67 160 91 377 196 460 222 95 31 159 31
181 2 16 -21 20 -22 61 -11 28 7 57 25 78 47 l33 35 -20 32 c-23 36 -37 37
-238 23 -99 -6 -113 -5 -113 8 0 9 41 65 90 126 54 66 90 119 90 133 0 30 -69
96 -100 96 -14 0 -74 -16 -133 -36 -60 -20 -110 -34 -112 -32 -3 2 0 31 5 64
6 32 10 77 10 99 l0 40 190 73 c105 39 205 72 223 72 17 0 46 -9 62 -20 49
-32 85 -26 133 23 23 23 42 50 42 58 0 20 -62 79 -83 79 -9 0 -130 -31 -270
-70 -139 -38 -261 -70 -271 -70 -20 0 -18 25 9 117 l15 48 140 59 c77 32 140
64 140 70 0 16 -74 76 -94 76 -8 0 -49 -11 -90 -24 -65 -20 -77 -22 -87 -9 -9
10 -9 56 -1 196 l12 182 -62 58 c-33 31 -64 57 -67 57 -4 0 -24 -18 -45 -39z
m254 -1222 c0 -16 -134 -182 -173 -215 l-32 -27 -3 33 c-6 56 7 98 41 137 47
53 167 105 167 72z m-330 -181 c0 -21 -63 -78 -87 -78 -17 0 -23 6 -23 23 0
17 11 29 43 44 49 25 67 28 67 11z"/>
<path d="M2490 1472 c-37 -18 -86 -81 -73 -93 5 -3 38 -2 75 4 l66 10 164
-136 c162 -136 192 -153 218 -122 16 19 -6 63 -83 169 -61 83 -128 137 -202
165 -68 26 -119 27 -165 3z"/>
<path d="M895 1052 c-91 -56 -160 -191 -215 -422 -28 -121 -27 -140 15 -180
45 -44 67 -34 77 35 4 26 13 54 22 64 10 11 19 54 25 121 17 171 51 268 120
343 23 24 41 47 41 51 0 13 -56 5 -85 -12z"/>
</g>
</svg>
