<?xml version="1.0" standalone="no"?>
<!DOCTYPE svg PUBLIC "-//W3C//DTD SVG 20010904//EN"
 "http://www.w3.org/TR/2001/REC-SVG-20010904/DTD/svg10.dtd">
<svg version="1.0" xmlns="http://www.w3.org/2000/svg"
 width="360.000000pt" height="360.000000pt" viewBox="0 0 360.000000 360.000000"
 preserveAspectRatio="xMidYMid meet">
<metadata>
Created by potrace 1.15, written by Peter Selinger 2001-2017
</metadata>
<g transform="translate(0.000000,360.000000) scale(0.100000,-0.100000)"
fill="#000000" stroke="none">
<path d="M1460 2695 l-23 -25 21 -23 c30 -31 28 -62 -8 -124 -33 -57 -184
-221 -223 -242 -23 -12 -30 -11 -62 8 -20 11 -45 21 -56 21 -37 0 -19 -38 50
-106 37 -38 79 -89 92 -114 22 -41 24 -56 24 -185 -1 -77 -4 -170 -8 -207 -4
-37 -3 -77 2 -89 5 -16 -6 -76 -36 -198 -24 -96 -42 -184 -39 -195 3 -12 14
-32 25 -45 l19 -24 73 35 c74 35 280 168 437 280 80 58 82 61 66 79 -9 10 -26
19 -36 19 -36 0 -145 -62 -268 -152 -67 -48 -125 -88 -131 -88 -5 0 -9 16 -9
34 0 31 22 59 210 267 116 128 210 240 210 249 0 10 -7 23 -15 30 -25 21 -81
-2 -205 -85 -62 -41 -115 -75 -119 -75 -3 0 -23 5 -43 11 l-38 10 0 65 c0 75
17 122 54 152 28 22 113 58 120 51 3 -2 -1 -23 -7 -47 -8 -31 -8 -45 1 -54 8
-8 35 10 109 77 54 49 104 96 111 104 17 20 15 51 -4 72 -15 17 -24 15 -173
-37 -86 -29 -163 -54 -172 -54 -22 0 -89 99 -89 131 0 20 41 72 161 209 149
168 161 183 151 205 -6 14 -33 35 -59 48 -77 39 -87 40 -113 12z"/>
<path d="M1823 2540 c-45 -9 -94 -32 -132 -61 -17 -14 -40 -19 -82 -19 -52 0
-59 -2 -59 -20 0 -11 10 -26 23 -35 44 -29 78 -28 167 4 92 34 131 38 150 17
9 -12 9 -85 1 -322 -6 -169 -11 -364 -11 -434 0 -80 -4 -130 -11 -137 -9 -9
-6 -20 10 -46 16 -27 18 -36 8 -40 -7 -3 -22 -36 -32 -73 -15 -56 -17 -81 -9
-147 10 -79 10 -79 -16 -89 -17 -7 -59 -6 -132 2 -104 12 -107 12 -137 -9 -33
-23 -35 -29 -23 -47 21 -32 188 -84 271 -84 43 0 52 5 118 65 l71 65 174 -185
c95 -102 174 -191 176 -199 2 -9 -30 -20 -110 -36 -96 -19 -131 -21 -233 -16
-171 9 -317 24 -414 42 l-85 15 -140 117 c-78 63 -149 122 -158 130 -12 10
-28 12 -54 7 l-38 -7 95 -96 c196 -200 208 -210 292 -252 161 -79 318 -100
602 -81 293 21 450 51 506 98 55 46 43 61 -109 133 -109 52 -152 79 -217 136
-114 100 -191 161 -242 191 -50 29 -50 28 9 116 121 178 257 244 418 203 75
-19 130 -49 218 -119 l63 -50 25 23 c29 29 30 51 3 107 -49 101 -147 148 -309
148 -103 0 -107 -1 -194 -43 -49 -23 -126 -65 -172 -92 -45 -28 -89 -50 -98
-50 -15 0 -16 19 -11 208 4 114 10 360 15 547 8 339 8 340 -14 364 -23 26 -92
61 -116 60 -8 -1 -34 -5 -57 -9z"/>
<path d="M902 1073 c-41 -58 -79 -233 -98 -446 -6 -69 -5 -79 12 -92 26 -20
48 -18 67 3 14 15 17 40 17 128 0 85 7 141 30 247 17 76 30 149 30 162 0 35
-33 33 -58 -2z"/>
</g>
</svg>
