<?xml version="1.0" standalone="no"?>
<!DOCTYPE svg PUBLIC "-//W3C//DTD SVG 20010904//EN"
 "http://www.w3.org/TR/2001/REC-SVG-20010904/DTD/svg10.dtd">
<svg version="1.0" xmlns="http://www.w3.org/2000/svg"
 width="360.000000pt" height="360.000000pt" viewBox="0 0 360.000000 360.000000"
 preserveAspectRatio="xMidYMid meet">
<metadata>
Created by potrace 1.15, written by Peter Selinger 2001-2017
</metadata>
<g transform="translate(0.000000,360.000000) scale(0.100000,-0.100000)"
fill="#000000" stroke="none">
<path d="M2090 2735 c-54 -17 -149 -73 -164 -97 -8 -13 -7 -21 2 -30 9 -9 31
-7 104 10 51 12 99 22 106 22 34 0 -15 -126 -103 -261 -45 -70 -53 -89 -36
-89 15 0 311 320 311 336 0 45 -93 124 -144 123 -17 0 -51 -7 -76 -14z"/>
<path d="M1240 2655 l-23 -25 34 -62 c41 -79 42 -90 14 -401 -18 -199 -95
-345 -236 -446 -23 -17 -47 -31 -54 -31 -6 0 -19 23 -29 51 -23 63 -61 109
-90 109 -21 0 -23 -7 -34 -112 -14 -136 -10 -202 17 -288 31 -98 43 -112 99
-108 l46 3 36 140 c40 155 58 202 97 253 25 33 108 80 121 68 3 -4 -4 -70 -16
-149 -25 -160 -27 -203 -11 -213 8 -5 8 -8 0 -13 -7 -5 -7 -48 1 -153 8 -109
8 -161 0 -203 -9 -42 -9 -61 0 -74 8 -14 8 -45 -1 -124 -10 -95 -10 -114 8
-195 11 -50 29 -109 41 -131 19 -37 24 -41 59 -41 33 0 40 4 50 28 19 47 31
162 31 308 0 154 -1 157 -57 169 -29 6 -33 11 -33 38 0 42 51 811 54 814 1 2
30 -7 64 -18 l62 -21 40 32 c22 17 40 37 40 44 0 6 -22 33 -48 59 -46 45 -50
47 -105 47 -31 0 -57 3 -57 8 1 4 16 123 34 265 l33 259 -28 38 c-29 40 -71
74 -112 89 -20 8 -29 6 -47 -14z"/>
<path d="M2447 2228 c-61 -8 -92 -23 -335 -163 l-267 -153 -9 32 c-17 64 -16
63 -47 28 -24 -26 -29 -41 -29 -81 0 -43 4 -52 35 -80 20 -17 46 -31 58 -31
13 0 61 25 107 56 81 54 137 84 188 99 l22 6 0 -129 c0 -151 -3 -158 -71 -143
-55 13 -216 14 -223 2 -4 -5 39 -35 94 -67 55 -32 100 -60 100 -63 0 -3 -45
-60 -100 -126 -112 -135 -123 -165 -62 -165 33 1 50 12 162 115 69 63 129 115
134 115 5 0 46 -32 92 -71 112 -95 113 -109 3 -133 -96 -21 -259 -74 -480
-156 -89 -33 -166 -60 -173 -60 -9 0 -11 17 -9 58 18 286 19 315 2 352 -18 40
-34 50 -80 50 -29 0 -30 -1 -22 -37 4 -21 7 -54 6 -73 -1 -19 -5 -122 -9 -228
l-6 -194 33 -34 c23 -23 42 -34 62 -34 17 0 111 31 211 69 365 140 567 201
660 201 75 0 127 -11 133 -27 3 -8 -4 -48 -17 -88 -27 -86 -22 -122 17 -131
23 -6 32 -1 59 30 69 80 104 243 104 488 l0 147 -32 36 c-31 36 -94 75 -121
75 -16 0 -47 -32 -47 -48 0 -7 16 -36 35 -66 l36 -53 -3 -119 -3 -119 -127 -3
c-107 -2 -128 0 -128 12 0 8 5 18 10 21 6 3 10 30 10 59 0 42 -6 61 -29 92
-37 52 -88 94 -112 94 -26 0 -24 27 6 96 27 62 32 100 13 107 -9 4 -10 8 -2
14 6 4 14 29 17 56 4 26 16 66 28 89 25 49 123 154 180 194 34 23 40 32 37 58
-4 36 -12 38 -111 24z"/>
</g>
</svg>
