<?xml version="1.0" standalone="no"?>
<!DOCTYPE svg PUBLIC "-//W3C//DTD SVG 20010904//EN"
 "http://www.w3.org/TR/2001/REC-SVG-20010904/DTD/svg10.dtd">
<svg version="1.0" xmlns="http://www.w3.org/2000/svg"
 width="360.000000pt" height="360.000000pt" viewBox="0 0 360.000000 360.000000"
 preserveAspectRatio="xMidYMid meet">
<metadata>
Created by potrace 1.15, written by Peter Selinger 2001-2017
</metadata>
<g transform="translate(0.000000,360.000000) scale(0.100000,-0.100000)"
fill="#000000" stroke="none">
<path d="M1085 2680 c-3 -5 9 -57 27 -115 31 -104 32 -108 20 -189 -7 -45 -12
-141 -12 -213 l0 -132 -127 -150 c-105 -123 -133 -150 -155 -150 -25 -1 -27 2
-30 45 l-3 46 -27 -22 c-26 -20 -28 -27 -28 -88 1 -124 33 -202 85 -202 16 0
29 17 59 78 56 112 122 211 151 224 14 6 27 9 30 6 3 -3 -4 -137 -15 -299 -11
-162 -20 -389 -20 -505 0 -200 1 -212 21 -230 17 -16 22 -16 29 -4 26 40 81
259 114 452 7 37 7 38 -19 28 -58 -22 -65 -16 -65 58 0 105 19 348 35 447 25
154 54 225 93 225 8 0 37 -14 64 -30 58 -36 68 -37 96 -7 31 33 30 96 -1 125
-19 18 -35 22 -88 22 -37 0 -70 -5 -77 -12 -9 -9 -15 -9 -23 -1 -9 9 -6 62 11
214 22 204 21 258 -5 310 -28 53 -121 99 -140 69z"/>
<path d="M2290 2537 l-96 -44 -66 23 -67 22 -7 -21 c-5 -17 3 -30 42 -64 29
-25 59 -43 74 -43 14 0 77 21 141 46 114 45 116 46 172 34 108 -22 160 -82
171 -199 3 -36 6 -194 7 -351 0 -211 5 -338 20 -489 18 -174 19 -216 9 -288
-9 -63 -9 -87 -1 -97 8 -10 9 -16 1 -21 -13 -8 -13 -78 1 -92 8 -8 8 -13 0
-17 -6 -4 -11 -40 -11 -87 l0 -79 -27 0 c-23 0 -47 22 -133 116 l-104 116 -22
-28 c-13 -15 -20 -33 -16 -38 8 -15 283 -389 293 -400 4 -5 19 -6 32 -2 53 13
90 188 90 431 0 242 -14 569 -25 582 -6 7 -5 14 2 18 13 8 13 89 0 178 -7 47
-7 73 1 85 8 13 6 44 -11 125 l-21 108 21 163 22 162 -22 43 c-30 61 -100 127
-146 140 -22 6 -82 11 -134 11 -90 0 -100 -2 -190 -43z"/>
<path d="M1683 2547 c-8 -8 17 -51 85 -149 l96 -138 33 32 c52 50 46 83 -25
149 -72 67 -175 125 -189 106z"/>
<path d="M1980 2221 c0 -22 6 -30 24 -35 13 -3 46 -26 74 -51 27 -25 52 -45
54 -45 2 0 21 23 42 50 l39 51 -28 29 c-28 29 -32 30 -117 30 l-88 0 0 -29z"/>
<path d="M1560 2079 c0 -13 10 -33 22 -46 l22 -24 -33 -534 c-33 -544 -33
-575 3 -575 25 0 49 40 71 117 21 74 22 83 9 188 -17 141 -17 238 0 347 8 56
9 91 3 97 -14 14 1 81 18 81 8 0 44 -14 79 -32 l65 -32 170 114 c162 107 172
112 190 96 15 -14 17 -24 10 -68 -9 -56 -45 -136 -82 -182 l-23 -28 -91 12
c-50 7 -107 10 -126 6 -42 -8 -87 -41 -87 -65 0 -31 18 -39 65 -28 49 11 146
-1 152 -20 2 -6 -21 -32 -52 -57 -48 -39 -63 -46 -101 -46 -37 0 -44 3 -44 20
0 16 -7 20 -30 20 l-31 0 3 -82 3 -83 50 3 c89 4 143 29 210 96 33 34 65 70
71 81 10 18 15 18 75 7 76 -14 200 -72 304 -142 80 -54 126 -63 133 -28 8 44
-163 185 -306 252 -34 16 -62 36 -62 43 0 8 13 67 30 133 27 107 29 123 18
174 -14 73 -6 83 54 68 41 -11 44 -10 75 20 33 32 45 80 23 93 -38 24 -260
-75 -456 -203 -61 -39 -119 -72 -130 -72 -10 0 -50 9 -89 19 -68 17 -70 18
-67 47 10 122 7 173 -14 201 -16 21 -31 29 -62 31 -38 3 -42 1 -42 -19z"/>
</g>
</svg>
