<?xml version="1.0" standalone="no"?>
<!DOCTYPE svg PUBLIC "-//W3C//DTD SVG 20010904//EN"
 "http://www.w3.org/TR/2001/REC-SVG-20010904/DTD/svg10.dtd">
<svg version="1.0" xmlns="http://www.w3.org/2000/svg"
 width="360.000000pt" height="360.000000pt" viewBox="0 0 360.000000 360.000000"
 preserveAspectRatio="xMidYMid meet">
<metadata>
Created by potrace 1.15, written by Peter Selinger 2001-2017
</metadata>
<g transform="translate(0.000000,360.000000) scale(0.100000,-0.100000)"
fill="#000000" stroke="none">
<path d="M1949 2962 l-22 -19 37 -48 c27 -36 35 -55 32 -74 -3 -14 -11 -57
-17 -95 -10 -62 -17 -75 -57 -118 -49 -52 -130 -102 -233 -144 -35 -14 -66
-28 -69 -31 -3 -2 6 -13 20 -23 37 -29 192 -28 235 0 17 11 42 20 58 20 25 0
27 -3 27 -40 0 -38 -3 -42 -117 -136 -65 -54 -122 -100 -126 -104 -13 -12 15
-60 35 -60 24 0 71 24 129 66 47 34 79 43 79 23 0 -21 -136 -143 -251 -226
-110 -78 -373 -247 -403 -259 -9 -3 -17 3 -21 17 -7 21 -8 21 -39 -10 l-31
-31 31 -25 32 -25 -19 -82 c-43 -187 -99 -328 -130 -328 -23 0 -3 417 27 570
34 172 121 274 193 228 16 -10 26 -7 61 15 44 30 44 30 -3 90 -29 37 -32 39
-81 34 -28 -2 -60 -7 -71 -11 -11 -3 -26 -2 -34 3 -12 8 -11 35 8 179 25 205
27 279 5 310 -22 32 -114 82 -151 82 -25 0 -36 -7 -53 -36 -26 -40 -20 -51 32
-68 l33 -11 3 -125 c6 -242 -43 -865 -74 -939 -12 -29 -12 -37 -1 -48 12 -12
12 -27 0 -96 -11 -61 -14 -147 -11 -337 3 -230 5 -259 23 -295 19 -38 23 -40
64 -40 l45 0 77 355 c42 195 82 381 89 414 9 45 21 69 51 101 60 66 246 183
457 289 l72 36 -16 -37 c-65 -151 -135 -368 -168 -518 -44 -198 -70 -481 -47
-509 8 -10 9 -16 1 -21 -5 -3 -10 -23 -10 -44 0 -29 7 -44 35 -71 l35 -34 28
27 c29 28 29 28 35 190 7 177 14 230 30 224 5 -1 16 -27 24 -56 20 -81 94
-214 182 -331 100 -133 257 -310 275 -310 21 0 85 77 112 134 14 29 24 70 24
95 0 25 -14 211 -31 415 l-32 371 23 165 23 165 -21 42 c-24 46 -68 84 -125
108 -52 21 -87 19 -129 -10 -46 -31 -98 -34 -98 -6 0 29 47 79 100 106 64 32
227 65 364 72 108 6 116 5 209 -26 87 -29 99 -31 136 -20 53 16 63 29 59 76
-2 30 -9 41 -30 51 -55 26 -183 52 -257 52 -91 0 -296 -23 -404 -45 -42 -9
-84 -15 -92 -13 -9 2 11 32 60 88 87 99 95 128 44 159 -17 11 -47 22 -65 26
l-34 6 0 78 0 78 52 22 c37 15 54 18 59 10 9 -15 108 17 116 38 3 8 -8 29 -28
49 -29 30 -39 34 -84 34 -28 0 -56 -5 -62 -11 -9 -9 -13 -5 -18 17 -28 123
-69 198 -120 220 -46 19 -68 18 -96 -4z m295 -1185 c17 -35 17 -46 7 -110 -8
-51 -9 -88 -1 -126 5 -29 10 -88 10 -130 l0 -76 -58 -23 c-32 -12 -61 -22 -65
-22 -15 0 -6 66 25 169 19 66 29 117 25 133 -8 31 -45 48 -104 48 -43 0 -52
-5 -127 -72 -131 -116 -120 -111 -112 -53 20 140 109 236 264 286 85 27 113
22 136 -24z m-213 -386 c-17 -61 -31 -119 -31 -130 0 -44 91 -91 178 -91 85 0
108 -50 122 -268 8 -131 7 -147 -12 -205 -11 -34 -24 -66 -28 -70 -4 -4 -29
10 -56 31 -162 128 -308 381 -308 532 1 119 77 297 137 319 12 5 23 5 25 0 2
-4 -11 -58 -27 -118z"/>
<path d="M710 2006 c0 -2 5 -28 10 -57 9 -44 7 -78 -12 -185 -20 -116 -21
-137 -9 -200 23 -129 57 -157 142 -114 l40 21 -21 28 c-11 16 -20 34 -20 39 0
6 22 68 50 139 27 70 50 135 50 144 0 24 -33 62 -111 129 -45 39 -78 60 -94
60 -14 0 -25 -2 -25 -4z"/>
</g>
</svg>
