<?xml version="1.0" standalone="no"?>
<!DOCTYPE svg PUBLIC "-//W3C//DTD SVG 20010904//EN"
 "http://www.w3.org/TR/2001/REC-SVG-20010904/DTD/svg10.dtd">
<svg version="1.0" xmlns="http://www.w3.org/2000/svg"
 width="360.000000pt" height="360.000000pt" viewBox="0 0 360.000000 360.000000"
 preserveAspectRatio="xMidYMid meet">
<metadata>
Created by potrace 1.15, written by Peter Selinger 2001-2017
</metadata>
<g transform="translate(0.000000,360.000000) scale(0.100000,-0.100000)"
fill="#000000" stroke="none">
<path d="M1683 2639 c-18 -12 -33 -23 -33 -25 0 -2 14 -32 32 -68 l31 -64 -39
-98 c-57 -147 -175 -379 -234 -462 -41 -59 -54 -71 -65 -62 -11 9 -32 9 -84 1
-38 -6 -72 -11 -75 -11 -22 0 6 302 40 431 8 31 14 72 14 90 -1 73 -60 153
-138 186 -30 12 -36 12 -62 -7 l-29 -21 39 -75 c34 -64 40 -84 40 -137 0 -83
-27 -387 -45 -517 -11 -79 -12 -120 -5 -165 7 -42 7 -86 -1 -147 -9 -67 -9
-91 0 -102 9 -11 7 -86 -10 -331 -15 -224 -18 -324 -11 -339 6 -11 13 -45 16
-75 8 -78 26 -101 80 -101 24 0 48 6 53 12 7 9 3 118 -13 328 -29 392 -30 499
-4 654 30 179 22 163 85 171 113 14 252 109 358 245 l28 35 -7 -60 c-9 -84
-38 -192 -85 -318 l-40 -107 22 -31 c19 -27 23 -29 43 -16 56 36 187 402 159
445 -8 13 -5 28 13 65 26 50 44 57 78 32 11 -9 41 -15 68 -15 33 0 48 -4 48
-13 0 -45 -120 -352 -218 -559 l-60 -126 22 -21 c31 -29 40 -26 54 13 7 18 26
52 43 75 24 34 35 42 56 39 28 -3 38 -17 48 -60 7 -34 37 -51 76 -43 43 10
141 105 200 194 87 131 250 492 290 643 13 46 13 46 -26 93 -44 54 -120 95
-177 95 -23 0 -138 -36 -285 -90 -226 -82 -283 -99 -283 -85 0 3 44 92 97 199
88 177 96 197 85 220 -11 25 -123 106 -146 106 -6 0 -26 -10 -43 -21z m625
-530 c3 -75 -16 -132 -114 -339 -92 -193 -199 -342 -236 -328 -7 3 -21 28 -31
56 l-19 51 87 228 87 228 -31 63 c-18 36 -31 66 -29 67 14 15 165 43 218 42
l65 -2 3 -66z"/>
<path d="M714 1856 c-3 -8 0 -40 6 -73 9 -48 7 -85 -12 -221 -17 -122 -19
-167 -11 -181 8 -12 8 -32 1 -68 -10 -49 -9 -54 18 -92 27 -39 32 -41 74 -39
43 3 45 4 56 45 7 23 17 83 24 134 l11 92 -34 36 c-31 34 -33 39 -26 81 20
113 3 236 -37 281 -20 22 -62 25 -70 5z"/>
<path d="M2430 1416 c-102 -29 -236 -107 -369 -214 -71 -57 -97 -63 -142 -31
-29 20 -31 20 -50 4 -36 -34 -25 -70 36 -116 l55 -41 52 17 c74 24 128 64 253
187 l111 108 84 -10 c157 -20 285 -61 356 -115 39 -30 55 -31 77 -7 24 26 21
84 -4 116 -11 14 -60 45 -107 69 -85 41 -90 42 -197 44 -66 1 -128 -3 -155
-11z"/>
<path d="M1391 1184 c-24 -30 -71 -151 -96 -246 -19 -73 -14 -101 27 -153 17
-22 28 -25 78 -25 32 0 61 4 64 9 3 5 -4 35 -15 67 -18 53 -20 73 -14 194 3
74 9 145 12 158 8 32 -30 30 -56 -4z"/>
<path d="M1551 1116 c-10 -11 -4 -30 25 -88 88 -175 218 -287 404 -346 135
-43 175 -47 465 -47 242 0 285 2 318 17 32 15 37 21 37 51 0 34 -6 39 -225
196 -124 89 -230 161 -235 161 -6 0 -10 -15 -10 -33 0 -28 12 -43 105 -126 58
-51 105 -96 105 -100 0 -5 -9 -16 -20 -26 -17 -15 -30 -17 -87 -11 -38 4 -74
7 -80 6 -91 -12 -333 13 -416 43 -130 47 -231 127 -313 247 -26 39 -51 70 -55
70 -3 0 -12 -6 -18 -14z"/>
</g>
</svg>
