<?xml version="1.0" standalone="no"?>
<!DOCTYPE svg PUBLIC "-//W3C//DTD SVG 20010904//EN"
 "http://www.w3.org/TR/2001/REC-SVG-20010904/DTD/svg10.dtd">
<svg version="1.0" xmlns="http://www.w3.org/2000/svg"
 width="360.000000pt" height="360.000000pt" viewBox="0 0 360.000000 360.000000"
 preserveAspectRatio="xMidYMid meet">
<metadata>
Created by potrace 1.15, written by Peter Selinger 2001-2017
</metadata>
<g transform="translate(0.000000,360.000000) scale(0.100000,-0.100000)"
fill="#000000" stroke="none">
<path d="M1724 2989 c-3 -6 8 -25 25 -43 17 -18 31 -41 31 -51 0 -54 -114
-241 -249 -409 -39 -49 -71 -94 -71 -101 0 -36 126 -105 192 -105 23 0 24 -30
1 -96 -23 -70 -115 -158 -220 -212 -82 -42 -111 -50 -129 -33 -5 6 -18 2 -32
-9 -30 -25 -26 -66 9 -93 l27 -19 82 27 c45 15 84 24 87 21 4 -3 -25 -79 -63
-167 l-69 -162 -61 -38 c-76 -48 -147 -123 -163 -172 -26 -76 -55 -33 -54 78
0 33 0 76 0 95 -4 148 3 266 21 354 23 111 69 213 104 235 12 8 56 17 96 21
91 9 103 19 78 65 -11 19 -23 35 -27 35 -4 0 -46 -9 -94 -21 -48 -11 -89 -18
-92 -15 -3 3 7 116 23 251 l28 245 -44 45 c-38 39 -50 45 -85 45 -79 0 -113
-78 -44 -102 28 -10 29 -13 29 -72 0 -34 5 -67 11 -73 7 -7 5 -52 -10 -154
-69 -482 -106 -1051 -83 -1270 14 -136 26 -159 83 -159 38 0 41 3 59 43 16 36
52 200 75 337 4 26 16 42 46 64 68 48 228 206 275 272 62 86 104 182 111 251
6 56 8 60 82 134 77 76 126 107 184 115 29 4 48 -9 207 -142 96 -81 207 -167
245 -192 134 -89 366 -170 498 -175 54 -2 59 0 75 26 17 27 16 28 -8 48 -53
41 -167 90 -241 102 -62 11 -101 27 -210 87 -280 152 -469 275 -469 304 0 18
151 80 160 65 5 -7 20 -7 51 1 91 24 113 61 60 99 l-29 21 -95 -20 c-53 -10
-108 -22 -124 -26 -24 -6 -17 5 52 77 94 98 125 154 125 225 0 43 -4 54 -33
82 -34 33 -72 41 -108 22 -18 -10 -18 -12 7 -61 14 -28 23 -57 20 -65 -6 -17
-39 -18 -64 -3 -13 8 -43 -1 -145 -45 -70 -31 -134 -56 -142 -56 -8 0 34 69
100 164 70 99 115 173 115 187 -1 36 -126 129 -174 129 -19 0 -38 -5 -42 -11z
m261 -471 c-13 -44 -50 -90 -108 -134 -33 -24 -63 -44 -68 -44 -5 0 -9 11 -9
25 0 19 21 42 90 100 50 41 93 75 96 75 3 0 2 -10 -1 -22z m-185 -283 c-13
-14 -28 -25 -33 -25 -6 0 0 11 13 25 13 14 28 25 33 25 6 0 0 -11 -13 -25z"/>
<path d="M695 2110 c-4 -6 1 -53 10 -103 l18 -92 -42 -83 c-39 -77 -41 -85
-31 -123 13 -46 76 -115 115 -125 51 -13 93 56 135 220 29 116 28 126 -17 126
-37 0 -39 2 -88 93 -36 67 -56 93 -72 95 -11 2 -24 -2 -28 -8z"/>
<path d="M1844 1993 c-16 -65 -82 -171 -183 -291 -39 -47 -61 -83 -61 -99 0
-35 31 -85 49 -78 8 3 85 46 173 95 87 50 160 90 163 90 16 0 -8 -39 -128
-213 -74 -105 -147 -211 -162 -235 l-28 -43 23 -24 c13 -14 30 -25 37 -25 7 0
87 54 177 120 90 66 168 120 174 120 62 0 -12 -266 -136 -490 -132 -240 -305
-426 -477 -516 -117 -61 -22 -90 99 -30 124 61 242 174 393 372 108 143 124
173 204 377 82 210 91 254 64 307 -29 56 -107 93 -149 70 -13 -6 -33 -10 -45
-8 l-22 3 26 35 c32 43 80 135 89 173 3 15 2 36 -4 47 -15 29 -77 57 -143 65
-32 4 -57 12 -57 19 0 6 14 29 30 50 17 22 30 51 30 66 0 40 -38 70 -88 70
-37 0 -42 -3 -48 -27z"/>
</g>
</svg>
