<?xml version="1.0" standalone="no"?>
<!DOCTYPE svg PUBLIC "-//W3C//DTD SVG 20010904//EN"
 "http://www.w3.org/TR/2001/REC-SVG-20010904/DTD/svg10.dtd">
<svg version="1.0" xmlns="http://www.w3.org/2000/svg"
 width="360.000000pt" height="360.000000pt" viewBox="0 0 360.000000 360.000000"
 preserveAspectRatio="xMidYMid meet">
<metadata>
Created by potrace 1.15, written by Peter Selinger 2001-2017
</metadata>
<g transform="translate(0.000000,360.000000) scale(0.100000,-0.100000)"
fill="#000000" stroke="none">
<path d="M1974 2679 c-3 -6 -2 -15 4 -21 13 -13 -13 -101 -46 -153 -29 -46
-118 -161 -174 -222 -28 -32 -38 -51 -38 -77 0 -42 21 -94 56 -135 31 -37 51
-123 64 -280 15 -178 75 -263 153 -217 96 56 320 166 372 182 33 10 61 19 63
20 2 1 -9 30 -23 65 l-25 63 30 41 c133 176 230 334 230 374 0 33 -38 68 -121
111 l-81 42 -197 -72 c-108 -40 -213 -80 -235 -88 l-38 -15 23 -18 c13 -10 37
-19 53 -19 15 0 113 25 216 55 103 30 190 55 194 55 19 0 0 -58 -46 -140 -44
-81 -50 -95 -39 -113 12 -18 11 -19 -21 -14 -122 21 -113 23 -246 -54 -68 -39
-126 -78 -129 -86 -11 -29 13 -33 76 -12 97 33 97 17 0 -100 -46 -56 -88 -101
-95 -101 -7 0 -13 30 -16 83 -4 63 -17 118 -55 232 l-50 148 90 96 c112 120
201 238 217 287 12 35 11 39 -9 56 -41 32 -142 50 -157 27z m314 -741 c-61
-120 -138 -208 -181 -208 -15 0 -27 4 -27 10 0 27 94 164 156 228 104 105 118
97 52 -30z"/>
<path d="M1191 2561 c-17 -21 -31 -49 -31 -61 0 -12 18 -43 40 -69 60 -70 62
-89 29 -206 -26 -91 -28 -115 -29 -261 0 -161 0 -161 -28 -200 -41 -56 -179
-164 -209 -164 -9 0 -13 17 -13 53 0 44 -4 58 -25 77 -21 19 -27 21 -40 10
-54 -45 -100 -251 -64 -287 8 -8 8 -13 0 -17 -6 -4 -11 -18 -11 -31 0 -20 7
-26 41 -35 31 -9 49 -8 70 0 32 14 146 130 199 204 l35 48 3 -183 c2 -101 -2
-288 -9 -415 -11 -211 -11 -240 5 -320 10 -49 26 -108 36 -131 18 -41 21 -43
61 -43 l41 0 -7 88 c-5 48 -8 94 -7 102 1 8 3 34 5 57 2 23 6 45 10 49 4 4 7
30 7 58 0 38 -6 61 -25 88 l-25 37 0 263 c1 234 3 274 23 360 l22 96 70 37
c89 46 135 90 135 127 0 33 3 33 -85 9 -40 -11 -71 -16 -73 -10 -2 5 -13 9
-24 9 -20 0 -21 3 -14 113 8 130 20 225 43 320 23 100 6 174 -55 240 -36 38
-64 35 -101 -12z"/>
<path d="M2365 1586 c-50 -18 -138 -58 -195 -89 -133 -70 -267 -126 -325 -134
-43 -5 -45 -7 -45 -38 0 -32 1 -32 62 -42 62 -10 63 -10 152 33 l90 44 23 -22
c19 -17 23 -32 23 -78 l0 -56 -57 -23 c-128 -52 -233 -124 -233 -161 0 -9 24
-39 53 -68 52 -51 53 -52 115 -52 34 0 62 -4 62 -9 0 -5 -30 -39 -67 -75 -49
-47 -83 -72 -123 -86 -182 -67 -170 -58 -143 -113 l22 -45 302 84 c166 46 308
85 315 88 7 3 17 -1 23 -8 6 -7 35 -16 65 -19 61 -6 120 -33 155 -71 36 -38
91 -36 114 3 9 16 17 37 17 48 0 32 -49 92 -93 114 -39 21 -51 21 -192 15 -82
-4 -183 -9 -222 -13 -54 -4 -73 -3 -73 6 0 7 74 91 165 188 110 117 165 183
165 197 0 13 -10 32 -23 44 -21 20 -34 22 -135 22 l-112 0 0 89 c0 100 3 105
70 115 55 9 118 36 165 72 l36 27 -22 23 c-13 13 -27 24 -33 24 -6 -1 -52 -16
-101 -34z m9 -419 c13 -20 -13 -51 -64 -77 l-35 -18 -13 26 c-14 31 -5 45 47
72 40 21 50 21 65 -3z m-244 -109 c0 -6 -11 -26 -26 -45 -22 -29 -31 -33 -70
-33 -41 0 -45 2 -42 23 5 38 138 91 138 55z"/>
</g>
</svg>
