<?xml version="1.0" standalone="no"?>
<!DOCTYPE svg PUBLIC "-//W3C//DTD SVG 20010904//EN"
 "http://www.w3.org/TR/2001/REC-SVG-20010904/DTD/svg10.dtd">
<svg version="1.0" xmlns="http://www.w3.org/2000/svg"
 width="360.000000pt" height="360.000000pt" viewBox="0 0 360.000000 360.000000"
 preserveAspectRatio="xMidYMid meet">
<metadata>
Created by potrace 1.15, written by Peter Selinger 2001-2017
</metadata>
<g transform="translate(0.000000,360.000000) scale(0.100000,-0.100000)"
fill="#000000" stroke="none">
<path d="M2252 2665 c-178 -59 -329 -126 -379 -169 -41 -35 -41 -34 -3 -315
l31 -221 -21 -39 c-23 -45 -26 -103 -7 -119 6 -6 28 -12 47 -14 56 -5 50 -29
-30 -115 -169 -182 -279 -398 -254 -501 8 -34 12 -37 47 -40 35 -3 45 3 135
85 207 189 355 303 394 303 15 0 18 -8 18 -54 l0 -54 -160 -117 c-88 -64 -163
-121 -166 -127 -17 -27 115 -109 196 -123 22 -4 40 -12 40 -19 0 -6 -63 -74
-140 -151 -133 -133 -158 -169 -126 -181 25 -9 190 15 281 41 68 20 90 23 101
14 11 -9 45 -9 147 1 146 14 193 7 258 -35 l36 -24 34 35 c38 39 35 53 -20 91
-59 40 -137 63 -214 63 -62 0 -197 -17 -289 -36 -26 -5 -28 -3 -28 27 0 28 15
47 113 143 174 171 237 272 237 375 0 35 -7 53 -28 78 -26 30 -29 31 -77 23
-27 -5 -63 -9 -79 -9 l-28 -1 4 65 c3 58 8 69 38 101 58 60 245 143 291 129
14 -5 28 0 45 16 38 36 31 54 -26 67 -46 11 -59 9 -184 -28 -75 -22 -142 -43
-149 -46 -10 -4 -17 14 -25 73 l-11 78 169 307 c94 169 170 316 170 327 0 10
-14 31 -31 45 -40 34 -164 106 -181 106 -7 -1 -86 -25 -176 -55z m209 -57 c49
-32 50 -34 44 -72 -19 -127 -120 -298 -281 -473 -66 -73 -79 -83 -110 -83 -19
0 -34 5 -34 11 0 6 50 64 110 130 119 130 129 153 85 188 -29 22 -13 24 -192
-28 l-61 -19 -43 44 c-23 24 -58 51 -76 59 -29 14 -33 21 -33 55 0 39 1 40 38
40 22 0 126 35 267 89 127 49 231 90 233 90 1 1 25 -14 53 -31z m-358 -459
c-23 -40 -69 -79 -93 -79 -13 0 -21 10 -25 32 -6 27 -3 35 21 55 20 16 42 23
72 23 l43 0 -18 -31z m137 -314 c11 -13 11 -20 0 -40 -11 -20 -11 -27 0 -40
11 -14 7 -22 -31 -61 -63 -66 -168 -150 -289 -233 -95 -66 -105 -70 -108 -51
-3 15 13 39 49 78 215 230 344 362 354 362 7 0 18 -7 25 -15z m170 -501 c0
-28 -102 -164 -123 -164 -17 0 -19 5 -14 46 6 55 31 93 78 116 42 22 59 23 59
2z m-230 -162 c0 -64 -10 -72 -68 -58 -36 9 -48 17 -50 34 -3 18 6 27 50 47
29 14 56 25 61 25 4 0 7 -22 7 -48z"/>
<path d="M1277 2632 c-26 -29 -23 -151 4 -205 23 -43 23 -62 2 -291 l-6 -69
-146 -161 c-149 -165 -154 -168 -212 -152 -32 9 -40 -8 -64 -125 -15 -71 -15
-94 -6 -150 16 -87 42 -129 79 -129 40 0 52 17 52 75 0 69 32 189 69 263 32
63 120 162 144 162 12 0 15 -77 20 -507 6 -505 16 -677 48 -781 12 -40 14 -42
51 -42 l38 0 0 74 c0 40 -9 109 -20 152 -79 318 -66 1005 23 1184 28 58 50 61
127 18 l60 -32 40 39 c35 34 40 45 38 75 -2 28 -10 38 -43 57 -22 13 -69 32
-103 43 -35 11 -67 22 -71 24 -4 3 3 82 16 177 23 170 23 172 4 215 -18 41
-89 104 -116 104 -7 0 -19 -8 -28 -18z"/>
</g>
</svg>
