<?xml version="1.0" standalone="no"?>
<!DOCTYPE svg PUBLIC "-//W3C//DTD SVG 20010904//EN"
 "http://www.w3.org/TR/2001/REC-SVG-20010904/DTD/svg10.dtd">
<svg version="1.0" xmlns="http://www.w3.org/2000/svg"
 width="360.000000pt" height="360.000000pt" viewBox="0 0 360.000000 360.000000"
 preserveAspectRatio="xMidYMid meet">
<metadata>
Created by potrace 1.15, written by Peter Selinger 2001-2017
</metadata>
<g transform="translate(0.000000,360.000000) scale(0.100000,-0.100000)"
fill="#000000" stroke="none">
<path d="M2177 2650 c-155 -54 -282 -109 -389 -171 l-88 -50 -56 45 c-31 25
-64 46 -75 46 -10 0 -19 -2 -19 -4 0 -2 13 -45 30 -95 31 -97 71 -288 91 -439
l13 -94 80 8 c97 9 123 8 159 -5 24 -9 27 -15 27 -59 0 -61 -10 -70 -115 -107
-142 -49 -282 -126 -366 -202 -25 -23 -53 -36 -90 -43 -68 -13 -123 -40 -127
-63 -2 -10 5 -28 15 -39 15 -17 26 -19 75 -15 74 7 134 36 227 112 69 55 82
62 149 73 87 14 171 43 211 71 33 24 81 28 81 8 0 -70 -135 -334 -330 -647
-53 -85 -100 -160 -103 -167 -10 -17 10 -63 27 -63 31 0 166 163 228 275 123
224 224 359 311 419 81 56 103 56 187 5 38 -24 70 -48 70 -54 0 -5 -11 -52
-25 -103 -57 -208 -153 -412 -238 -507 -27 -30 -52 -55 -57 -55 -5 0 -18 30
-30 67 -43 132 -106 253 -132 253 -31 0 41 -362 94 -469 22 -44 25 -46 69 -49
45 -3 48 -1 88 45 55 65 183 281 230 390 51 118 96 260 112 355 l13 78 -31 42
c-17 24 -49 57 -73 73 -39 28 -48 30 -156 33 l-114 4 0 78 0 79 53 10 c459 94
487 99 528 84 23 -7 67 -16 100 -20 53 -5 62 -3 84 17 46 43 27 86 -49 110
-51 16 -320 8 -393 -13 -29 -7 -54 -10 -55 -6 -2 5 -75 -14 -163 -41 -88 -28
-165 -50 -171 -50 -6 0 -21 27 -33 59 -21 59 -67 111 -97 111 -25 0 -15 21 18
34 22 9 40 11 56 5 100 -38 206 50 405 333 75 107 86 129 87 165 0 58 -41 103
-135 148 -40 19 -76 35 -81 35 -5 0 -62 -18 -127 -40z m170 -107 c23 -9 10
-110 -23 -184 -44 -98 -159 -188 -241 -189 l-31 0 59 131 c59 128 60 132 50
180 -6 28 -11 52 -11 54 0 21 148 26 197 8z m-302 -148 c-6 -47 -69 -185 -83
-185 -29 0 -71 105 -72 177 0 28 49 63 109 79 43 11 46 10 49 -9 2 -11 1 -39
-3 -62z m-222 -40 c22 -32 23 -39 13 -106 -6 -51 -6 -85 2 -115 18 -65 -9
-114 -52 -98 -35 13 -67 106 -81 231 l-7 62 48 31 c26 16 49 30 51 30 1 0 13
-16 26 -35z"/>
<path d="M1138 2623 c-21 -25 -38 -50 -38 -58 0 -21 29 -45 56 -45 22 0 24 -4
24 -48 0 -71 -18 -206 -41 -302 -28 -119 -78 -237 -142 -333 -56 -82 -161
-197 -181 -197 -6 0 -33 59 -60 130 -42 113 -51 130 -70 130 -37 0 -47 -82
-25 -206 36 -217 77 -294 155 -294 29 0 35 7 114 145 45 80 88 145 95 145 24
0 39 -29 27 -53 -10 -19 -22 -253 -22 -407 0 -176 18 -590 27 -610 30 -72 71
-65 96 15 24 79 76 386 84 497 6 85 5 88 -15 88 -16 0 -24 -9 -32 -40 -8 -29
-16 -40 -30 -40 -14 0 -20 7 -20 23 0 12 -5 71 -10 131 -8 75 -8 112 0 120 13
13 13 49 -1 63 -19 19 23 320 56 400 l14 32 57 -19 c31 -11 63 -20 70 -20 19
0 74 50 74 67 0 14 -117 74 -173 88 -15 4 -27 11 -27 15 0 4 24 110 54 235 41
171 52 234 45 252 -12 32 -63 95 -97 120 l-27 19 -37 -43z"/>
</g>
</svg>
