<?xml version="1.0" standalone="no"?>
<!DOCTYPE svg PUBLIC "-//W3C//DTD SVG 20010904//EN"
 "http://www.w3.org/TR/2001/REC-SVG-20010904/DTD/svg10.dtd">
<svg version="1.0" xmlns="http://www.w3.org/2000/svg"
 width="360.000000pt" height="360.000000pt" viewBox="0 0 360.000000 360.000000"
 preserveAspectRatio="xMidYMid meet">
<metadata>
Created by potrace 1.15, written by Peter Selinger 2001-2017
</metadata>
<g transform="translate(0.000000,360.000000) scale(0.100000,-0.100000)"
fill="#000000" stroke="none">
<path d="M1964 2849 c-18 -20 -18 -21 4 -59 14 -25 22 -56 22 -85 0 -61 -27
-85 -182 -165 -116 -60 -119 -63 -102 -81 24 -27 45 -24 141 21 82 38 123 49
123 33 0 -5 -48 -65 -106 -135 l-105 -128 18 -25 c21 -28 38 -30 111 -11 l52
14 0 -42 c0 -40 -6 -50 -92 -146 -51 -56 -110 -112 -130 -124 l-37 -21 -24 23
-24 22 -113 -43 c-101 -39 -116 -43 -151 -33 -25 6 -39 16 -39 26 0 18 81 140
141 211 27 33 39 56 39 78 0 41 -16 46 -81 27 -69 -21 -69 -21 -69 14 0 24 20
53 105 145 104 114 119 141 90 165 -14 12 -88 8 -151 -7 -18 -4 -24 2 -34 34
-7 21 -23 57 -37 81 -21 38 -28 42 -62 42 -21 0 -40 -3 -43 -6 -4 -3 5 -46 18
-95 13 -50 24 -99 24 -109 0 -39 -78 -86 -217 -131 -40 -12 -73 -25 -73 -28 0
-4 17 -18 38 -33 l38 -26 79 18 c106 26 105 26 105 -14 0 -29 -17 -53 -125
-174 -69 -78 -125 -147 -125 -153 0 -9 17 -10 63 -5 34 4 86 10 115 13 41 5
52 3 51 -8 0 -8 -83 -106 -185 -219 -166 -185 -184 -208 -184 -240 0 -63 14
-65 109 -13 245 131 217 120 240 99 16 -14 21 -31 21 -66 0 -54 -14 -69 -88
-91 -23 -7 -42 -15 -42 -18 0 -17 57 -61 80 -61 15 0 219 94 454 209 416 203
429 208 464 198 20 -6 38 -12 40 -13 6 -4 -50 -140 -77 -188 -17 -28 -46 -70
-65 -93 -37 -42 -124 -93 -160 -93 -11 0 -108 -44 -215 -99 -234 -118 -316
-151 -370 -151 -38 0 -41 -2 -41 -27 0 -20 23 -57 76 -123 42 -52 85 -113 95
-135 42 -89 205 -158 564 -240 110 -25 146 -30 170 -22 16 5 131 13 255 16
185 6 231 10 258 24 63 34 51 48 -191 220 -264 187 -292 189 -112 7 64 -66
114 -123 111 -128 -3 -6 -37 -18 -76 -27 -62 -15 -86 -16 -203 -6 -294 26
-499 68 -632 130 -95 45 -139 80 -165 132 -39 75 -40 73 177 187 l197 104 59
-12 c70 -14 79 -9 171 85 74 76 159 192 243 333 l62 105 -17 30 c-42 73 -141
103 -241 73 -30 -9 -56 -14 -58 -13 -2 2 2 30 9 62 l11 58 103 66 c57 36 145
92 195 124 l91 58 -28 30 c-15 16 -34 29 -42 29 -9 0 -57 -27 -108 -60 -145
-94 -186 -76 -98 42 56 77 80 122 89 171 9 47 -3 63 -56 71 -36 6 -39 9 -33
29 10 34 39 70 99 125 30 28 55 55 55 61 0 22 -46 41 -101 41 l-56 0 -12 58
c-19 96 -55 127 -97 81z m-283 -1030 c19 -52 25 -60 43 -55 12 3 39 9 61 13
37 6 39 5 25 -11 -8 -10 -39 -35 -70 -56 -58 -39 -355 -210 -365 -210 -3 0
-19 10 -35 22 -23 17 -30 30 -30 56 0 84 86 174 241 252 56 27 102 50 104 50
2 0 14 -27 26 -61z"/>
<path d="M1679 1475 c-25 -13 -68 -44 -96 -69 -39 -35 -78 -56 -162 -89 l-111
-43 28 -27 c27 -26 31 -27 83 -17 30 6 86 25 124 44 66 31 197 127 239 174 45
52 -24 70 -105 27z"/>
<path d="M2251 1320 c-95 -35 -184 -91 -437 -275 -10 -7 -29 -2 -67 18 -29 15
-56 27 -60 27 -4 0 -7 -16 -7 -36 0 -28 10 -47 46 -90 40 -46 51 -54 81 -54
31 0 45 10 126 96 145 153 290 242 434 265 l72 12 130 -97 c77 -57 140 -96
154 -96 26 0 67 38 67 61 0 26 -96 123 -151 154 -52 29 -60 30 -194 33 -119 2
-148 -1 -194 -18z"/>
<path d="M986 999 c-35 -41 -85 -140 -137 -271 -33 -82 -40 -112 -37 -148 7
-70 28 -105 62 -105 26 0 30 5 43 47 8 28 20 49 31 52 18 6 18 10 1 112 -23
145 -5 213 72 279 32 26 36 57 8 63 -9 2 -29 -11 -43 -29z"/>
</g>
</svg>
