<?xml version="1.0" standalone="no"?>
<!DOCTYPE svg PUBLIC "-//W3C//DTD SVG 20010904//EN"
 "http://www.w3.org/TR/2001/REC-SVG-20010904/DTD/svg10.dtd">
<svg version="1.0" xmlns="http://www.w3.org/2000/svg"
 width="360.000000pt" height="360.000000pt" viewBox="0 0 360.000000 360.000000"
 preserveAspectRatio="xMidYMid meet">
<metadata>
Created by potrace 1.15, written by Peter Selinger 2001-2017
</metadata>
<g transform="translate(0.000000,360.000000) scale(0.100000,-0.100000)"
fill="#000000" stroke="none">
<path d="M1623 2824 c-24 -18 -33 -34 -33 -55 0 -28 2 -29 43 -29 51 0 66 -13
96 -82 21 -49 65 -236 76 -326 7 -51 6 -55 -26 -89 -75 -79 -245 -164 -367
-183 -57 -10 -82 -24 -82 -46 0 -11 20 -14 90 -14 80 0 106 5 260 54 113 35
173 50 175 42 2 -6 8 -33 15 -61 15 -66 94 -276 168 -448 l59 -137 -46 -67
c-45 -66 -47 -67 -115 -84 -139 -35 -233 -99 -251 -171 -7 -26 -11 -28 -55
-28 -58 0 -152 37 -148 58 3 17 22 28 60 37 17 3 34 17 43 35 11 20 23 30 39
30 35 0 115 58 159 115 21 28 61 96 89 152 50 99 51 103 34 127 -17 27 -114
63 -141 52 -8 -3 -82 -50 -164 -105 -83 -56 -154 -101 -159 -101 -4 0 -22 15
-39 33 l-31 32 11 73 10 72 48 0 c59 0 117 18 235 75 114 55 159 101 150 153
-3 19 -9 39 -14 44 -6 6 -94 -33 -221 -96 -116 -58 -218 -106 -226 -106 -8 0
-15 6 -15 13 0 66 -61 151 -130 182 -41 18 -42 18 -109 -3 -37 -12 -72 -22
-78 -22 -7 0 -12 61 -15 183 -5 199 -15 247 -65 299 -15 16 -43 33 -62 38 -31
8 -41 6 -74 -16 -49 -32 -45 -54 12 -68 29 -7 51 -21 65 -39 20 -27 21 -41 20
-230 0 -111 -6 -251 -13 -312 -19 -166 -78 -544 -122 -784 -36 -194 -38 -219
-28 -275 17 -98 33 -126 68 -126 23 0 34 8 50 34 19 30 21 49 21 173 0 86 -4
143 -11 150 -8 8 -2 54 20 164 16 85 35 222 41 304 19 274 76 399 192 420 73
14 102 -17 137 -143 17 -62 18 -81 9 -127 -8 -41 -8 -58 1 -69 9 -11 3 -40
-28 -133 -59 -180 -126 -305 -207 -385 -37 -38 -37 -38 -18 -59 16 -17 27 -20
65 -17 l47 5 9 -60 c8 -45 7 -74 -3 -111 -13 -49 -12 -52 12 -89 21 -31 28
-36 43 -27 43 22 66 140 47 231 -6 27 -4 39 9 52 21 22 35 22 35 0 0 -94 190
-176 405 -175 190 1 392 40 431 83 17 19 17 21 -1 56 -11 20 -39 52 -63 72
-45 38 -160 111 -174 111 -5 0 -8 -23 -6 -52 l3 -52 44 -13 c75 -21 108 -72
59 -88 -13 -4 -123 -10 -244 -12 -210 -5 -224 -4 -270 16 -63 28 -141 89 -192
150 l-42 50 43 118 c39 105 46 118 69 121 24 3 25 1 30 -61 12 -151 103 -263
229 -282 l45 -7 109 121 c59 67 111 121 114 121 3 0 40 -9 81 -20 124 -32 141
-26 121 46 -9 34 -8 41 11 61 27 29 68 31 68 3 0 -60 292 -470 443 -622 140
-141 294 -232 378 -226 36 2 45 7 47 25 2 16 -111 479 -144 586 -3 9 -14 17
-25 17 -17 0 -18 -5 -13 -37 29 -187 59 -445 52 -449 -18 -12 -154 74 -229
144 -139 130 -278 343 -393 598 -49 109 -55 128 -44 144 144 195 167 250 168
390 l0 105 -36 23 c-59 38 -68 30 -76 -70 -7 -102 -28 -180 -69 -257 -37 -73
-55 -95 -71 -88 -17 6 -230 539 -219 547 5 3 10 14 12 25 3 14 16 21 48 27 59
10 115 39 119 61 2 11 -9 32 -24 48 -29 31 -69 38 -105 19 -13 -7 -19 -7 -19
0 0 5 -9 10 -20 10 -12 0 -21 8 -24 23 -3 12 -17 80 -31 150 -32 157 -77 287
-115 327 -38 40 -100 42 -147 4z m162 -1251 c-18 -73 -131 -187 -242 -246 -38
-20 -73 -34 -77 -30 -3 3 -6 25 -6 49 0 38 5 46 56 94 62 56 251 173 266 164
5 -4 7 -17 3 -31z"/>
<path d="M2320 2469 c0 -8 48 -63 108 -121 l107 -107 33 20 c30 19 32 24 26
58 -18 100 -79 146 -210 158 -51 5 -64 3 -64 -8z"/>
<path d="M610 1698 c1 -62 -8 -116 -32 -210 -32 -124 -32 -127 -14 -147 20
-21 78 -29 103 -13 26 17 46 104 67 293 5 44 4 47 -52 102 -32 31 -61 57 -65
57 -4 0 -7 -37 -7 -82z"/>
</g>
</svg>
