<?xml version="1.0" standalone="no"?>
<!DOCTYPE svg PUBLIC "-//W3C//DTD SVG 20010904//EN"
 "http://www.w3.org/TR/2001/REC-SVG-20010904/DTD/svg10.dtd">
<svg version="1.0" xmlns="http://www.w3.org/2000/svg"
 width="360.000000pt" height="360.000000pt" viewBox="0 0 360.000000 360.000000"
 preserveAspectRatio="xMidYMid meet">
<metadata>
Created by potrace 1.15, written by Peter Selinger 2001-2017
</metadata>
<g transform="translate(0.000000,360.000000) scale(0.100000,-0.100000)"
fill="#000000" stroke="none">
<path d="M1257 2954 c-18 -25 -18 -25 7 -45 55 -43 139 -264 221 -579 24 -96
45 -180 45 -186 0 -16 -121 -114 -190 -154 -71 -42 -139 -69 -223 -89 l-68
-17 25 -23 c25 -23 28 -24 96 -12 75 12 176 49 301 110 l78 39 180 -303 c100
-166 183 -309 186 -316 8 -21 -106 -128 -280 -264 -82 -65 -151 -122 -153
-126 -6 -15 24 -10 85 13 77 28 159 74 295 164 62 41 120 73 128 72 8 -2 34
-39 58 -83 74 -138 176 -260 419 -502 252 -252 264 -260 311 -210 29 30 28 43
-7 108 -47 88 -101 293 -141 537 -10 60 -15 72 -31 72 -10 0 -19 -2 -19 -4 0
-2 14 -97 30 -211 17 -114 30 -215 30 -224 0 -9 -12 -21 -26 -28 -25 -12 -31
-6 -193 155 -160 160 -265 287 -344 417 -20 33 -37 66 -37 72 0 7 21 45 47 85
72 111 105 205 110 313 4 99 -3 124 -49 158 -19 14 -34 18 -53 13 l-27 -7 8
-82 c11 -117 8 -147 -26 -235 -36 -95 -50 -115 -72 -107 -38 15 -150 207 -244
418 -45 102 -47 110 -34 135 23 41 122 86 249 112 112 23 112 24 106 49 -4 14
-13 36 -21 49 -17 26 -100 82 -123 82 -8 0 -70 -36 -138 -81 -68 -45 -125 -80
-127 -78 -12 14 -68 193 -90 284 -63 263 -136 465 -185 514 -31 31 -90 28
-114 -5z"/>
<path d="M2250 2417 c0 -34 36 -67 72 -67 24 0 28 -4 28 -27 1 -48 36 -110 78
-138 21 -14 67 -31 101 -37 61 -11 62 -11 89 15 26 26 26 28 14 84 -15 74 -53
120 -126 157 -48 25 -73 30 -157 34 l-99 5 0 -26z"/>
<path d="M882 1927 c-19 -20 -22 -34 -22 -113 0 -72 4 -95 20 -119 77 -115 93
-412 25 -443 -13 -6 -35 -28 -49 -49 -71 -108 -77 -364 -7 -363 21 1 76 76
117 160 57 116 66 165 71 390 l4 205 -59 174 c-32 96 -62 176 -68 178 -6 2
-20 -7 -32 -20z"/>
<path d="M1190 1522 c0 -16 298 -262 317 -262 10 0 30 12 46 25 76 67 -6 159
-201 224 -61 21 -162 29 -162 13z"/>
</g>
</svg>
