<?xml version="1.0" standalone="no"?>
<!DOCTYPE svg PUBLIC "-//W3C//DTD SVG 20010904//EN"
 "http://www.w3.org/TR/2001/REC-SVG-20010904/DTD/svg10.dtd">
<svg version="1.0" xmlns="http://www.w3.org/2000/svg"
 width="360.000000pt" height="360.000000pt" viewBox="0 0 360.000000 360.000000"
 preserveAspectRatio="xMidYMid meet">
<metadata>
Created by potrace 1.15, written by Peter Selinger 2001-2017
</metadata>
<g transform="translate(0.000000,360.000000) scale(0.100000,-0.100000)"
fill="#000000" stroke="none">
<path d="M1100 2991 c0 -11 -4 -23 -10 -26 -15 -9 -12 -71 3 -84 9 -7 24 -8
48 -1 49 14 53 13 88 -22 58 -59 153 -266 261 -568 49 -137 51 -145 33 -158
-160 -120 -295 -206 -356 -228 -29 -10 -49 -11 -88 -3 -27 6 -54 9 -60 7 -19
-6 73 -106 98 -107 28 -1 193 83 322 164 57 36 112 65 122 65 46 0 -2 -101
-72 -152 -17 -13 -75 -88 -129 -168 -116 -171 -209 -283 -278 -333 -66 -49
-76 -48 -68 6 23 173 22 193 -35 421 l-54 216 -32 0 c-18 0 -33 -3 -33 -6 0
-3 -5 -35 -10 -72 -11 -66 -10 -72 35 -214 42 -135 44 -151 35 -194 -14 -60
-71 -200 -117 -284 -30 -54 -33 -67 -23 -84 10 -15 9 -21 -1 -27 -54 -31 -53
-28 -35 -133 21 -128 37 -158 79 -154 l32 3 7 87 c6 80 32 167 55 181 5 3 36
-11 68 -32 85 -54 125 -65 208 -57 38 3 90 11 116 17 67 16 197 81 270 136 56
42 76 66 150 188 51 83 94 141 104 143 24 5 54 -23 79 -72 17 -34 18 -42 7
-63 -24 -45 -125 -130 -166 -140 -33 -8 -38 -12 -38 -38 0 -28 2 -30 35 -27
49 5 90 24 169 77 37 25 74 45 83 45 9 0 30 -23 47 -54 87 -151 266 -360 536
-625 203 -198 217 -208 263 -175 26 18 30 75 7 94 -24 20 -53 129 -75 285 -11
80 -20 147 -20 150 0 3 -9 5 -20 5 -28 0 -45 -69 -31 -126 16 -64 14 -194 -3
-194 -19 0 -203 178 -331 319 -126 140 -197 233 -255 329 l-40 67 45 86 c66
127 107 257 112 359 5 76 3 88 -17 113 -26 33 -40 34 -68 4 -20 -21 -22 -34
-23 -143 0 -111 -3 -124 -32 -194 l-33 -75 -46 -3 c-65 -4 -81 16 -194 246
-86 174 -95 196 -85 222 16 47 63 109 140 185 l71 69 -42 43 c-65 66 -92 62
-184 -28 -46 -44 -80 -69 -91 -67 -23 4 -33 27 -92 213 -84 263 -203 482 -298
548 -43 29 -105 57 -128 57 -8 0 -15 -9 -15 -19z m564 -1150 c37 -39 33 -78
-11 -104 -36 -20 -143 -36 -143 -20 0 12 109 153 119 153 4 0 20 -13 35 -29z
m46 -238 c0 -69 -108 -242 -210 -336 -105 -97 -246 -157 -372 -157 -44 0 -59
4 -75 22 l-21 23 22 80 22 80 68 3 c67 3 70 4 140 61 115 93 208 158 297 206
100 53 129 57 129 18z"/>
<path d="M2240 2670 c0 -23 12 -45 43 -81 43 -49 44 -51 33 -91 -10 -39 -10
-41 21 -67 18 -15 66 -45 108 -67 93 -49 110 -43 110 37 -1 67 -30 131 -88
188 -44 44 -139 96 -194 107 -32 6 -33 5 -33 -26z"/>
</g>
</svg>
