<?xml version="1.0" standalone="no"?>
<!DOCTYPE svg PUBLIC "-//W3C//DTD SVG 20010904//EN"
 "http://www.w3.org/TR/2001/REC-SVG-20010904/DTD/svg10.dtd">
<svg version="1.0" xmlns="http://www.w3.org/2000/svg"
 width="360.000000pt" height="360.000000pt" viewBox="0 0 360.000000 360.000000"
 preserveAspectRatio="xMidYMid meet">
<metadata>
Created by potrace 1.15, written by Peter Selinger 2001-2017
</metadata>
<g transform="translate(0.000000,360.000000) scale(0.100000,-0.100000)"
fill="#000000" stroke="none">
<path d="M1901 2369 c-156 -182 -272 -309 -282 -309 -22 0 -77 62 -85 97 -4
15 2 100 14 189 16 128 18 169 10 198 -18 58 -41 76 -98 76 -42 0 -52 -4 -67
-26 -9 -14 -19 -51 -21 -81 -5 -61 3 -73 51 -73 15 0 27 -6 27 -13 0 -7 -9
-100 -20 -207 -11 -107 -20 -203 -20 -214 0 -50 -146 -149 -380 -256 -135 -62
-158 -68 -177 -49 -17 17 -63 2 -63 -20 0 -10 15 -35 34 -57 l33 -39 62 13
c78 16 198 67 333 143 58 32 114 59 122 59 12 0 16 -11 16 -44 0 -54 -83 -223
-180 -366 -71 -105 -256 -298 -332 -345 -43 -27 -48 -34 -48 -66 0 -27 8 -43
33 -67 54 -52 70 -45 175 73 63 71 101 105 115 105 67 0 152 -81 179 -172 11
-36 13 -38 53 -38 55 0 67 14 55 65 -5 22 -10 165 -10 317 l0 277 40 93 c73
167 159 290 213 303 18 5 27 22 45 77 25 78 69 158 148 263 77 103 193 225
214 225 41 0 41 -14 2 -383 -25 -233 -34 -361 -28 -367 6 -6 6 -41 -2 -98 -8
-59 -12 -267 -12 -614 l0 -524 28 -27 c28 -27 75 -36 87 -18 3 6 -4 124 -16
263 -20 232 -21 277 -12 546 10 290 11 294 34 318 l24 23 140 -20 c171 -24
185 -27 185 -39 0 -5 -15 -13 -32 -18 -29 -7 -33 -13 -36 -44 l-3 -35 88 -28
c48 -15 114 -40 145 -56 67 -34 78 -35 108 -11 23 18 23 20 10 103 -12 74 -18
88 -50 120 -61 63 -231 99 -464 99 -58 0 -96 4 -104 12 -7 7 -12 41 -12 83 0
141 33 553 59 749 13 92 -6 147 -49 145 -8 0 -134 -140 -279 -310z m-541 -995
c0 -19 -5 -55 -11 -80 -9 -34 -9 -48 1 -59 12 -15 5 -131 -9 -139 -8 -5 -135
71 -139 83 -6 17 75 179 102 206 36 36 56 33 56 -11z"/>
</g>
</svg>
