<?xml version="1.0" standalone="no"?>
<!DOCTYPE svg PUBLIC "-//W3C//DTD SVG 20010904//EN"
 "http://www.w3.org/TR/2001/REC-SVG-20010904/DTD/svg10.dtd">
<svg version="1.0" xmlns="http://www.w3.org/2000/svg"
 width="360.000000pt" height="360.000000pt" viewBox="0 0 360.000000 360.000000"
 preserveAspectRatio="xMidYMid meet">
<metadata>
Created by potrace 1.15, written by Peter Selinger 2001-2017
</metadata>
<g transform="translate(0.000000,360.000000) scale(0.100000,-0.100000)"
fill="#000000" stroke="none">
<path d="M1262 2395 c-28 -36 -28 -56 3 -85 19 -17 31 -21 55 -17 23 5 32 3
37 -9 10 -26 -17 -393 -32 -435 -45 -126 -169 -219 -378 -284 -80 -25 -93 -27
-143 -16 -53 10 -57 9 -75 -12 -38 -44 -13 -75 77 -95 37 -8 60 -2 250 64 115
41 215 74 222 74 17 0 16 -62 -3 -105 -8 -19 -24 -39 -37 -44 -13 -5 -46 -37
-73 -72 -93 -119 -282 -334 -344 -391 -33 -31 -61 -61 -61 -65 0 -4 11 -25 23
-45 l23 -36 114 49 113 49 60 -22 c57 -21 61 -25 84 -77 67 -156 93 -191 140
-191 39 0 45 30 21 101 l-21 62 22 296 c27 354 24 345 173 486 54 50 98 95 98
98 0 19 -50 2 -117 -38 -40 -25 -78 -45 -83 -45 -6 0 -10 20 -10 45 l0 46 145
95 c80 52 145 101 145 108 0 29 -101 93 -214 136 l-29 11 8 102 c11 149 10
158 -9 200 -24 48 -67 78 -120 84 -38 5 -45 2 -64 -22z m218 -484 c39 -33 35
-45 -17 -56 l-33 -7 0 46 c0 25 4 46 8 46 4 0 23 -13 42 -29z m-217 -668 c-2
-27 -7 -103 -12 -170 -4 -68 -10 -125 -12 -128 -3 -2 -51 10 -108 27 -99 31
-102 32 -96 57 12 47 56 111 128 187 87 89 106 94 100 27z"/>
<path d="M1905 1711 c-3 -5 4 -33 15 -61 11 -28 20 -56 20 -63 0 -7 -27 -59
-60 -115 -70 -118 -175 -235 -226 -252 -39 -13 -46 -46 -16 -73 40 -37 73 -23
167 70 143 143 225 263 240 352 6 36 3 48 -25 90 -17 27 -38 52 -46 55 -24 9
-62 7 -69 -3z"/>
<path d="M2396 1658 c-5 -19 8 -36 82 -102 126 -114 252 -244 252 -259 0 -7
-13 -21 -30 -30 -39 -24 -38 -48 5 -96 43 -48 79 -63 136 -59 l44 3 -1 70 c-4
173 -116 330 -304 425 -51 26 -162 70 -175 70 -2 0 -5 -10 -9 -22z"/>
</g>
</svg>
