<?xml version="1.0" standalone="no"?>
<!DOCTYPE svg PUBLIC "-//W3C//DTD SVG 20010904//EN"
 "http://www.w3.org/TR/2001/REC-SVG-20010904/DTD/svg10.dtd">
<svg version="1.0" xmlns="http://www.w3.org/2000/svg"
 width="360.000000pt" height="360.000000pt" viewBox="0 0 360.000000 360.000000"
 preserveAspectRatio="xMidYMid meet">
<metadata>
Created by potrace 1.15, written by Peter Selinger 2001-2017
</metadata>
<g transform="translate(0.000000,360.000000) scale(0.100000,-0.100000)"
fill="#000000" stroke="none">
<path d="M1262 2627 c-45 -47 -44 -98 3 -160 l34 -45 -13 -198 c-14 -226 -23
-254 -98 -319 -48 -41 -190 -113 -287 -145 -54 -18 -71 -20 -113 -11 -27 6
-50 11 -52 11 -1 0 -9 -18 -16 -40 -13 -40 -13 -41 20 -75 23 -24 43 -35 62
-35 16 0 117 44 228 100 l200 100 0 -99 c0 -116 -21 -195 -75 -286 -57 -94
-99 -131 -225 -195 -63 -33 -131 -73 -150 -89 l-35 -31 38 -35 c33 -31 43 -35
70 -30 54 12 109 40 175 90 80 60 84 57 117 -87 25 -111 47 -165 70 -174 22
-9 75 28 75 51 -1 11 -9 60 -20 110 -10 49 -15 94 -10 100 4 5 10 60 13 120 4
87 10 123 30 173 36 89 100 174 205 274 86 81 90 87 73 102 -10 9 -21 16 -25
16 -4 0 -56 -40 -115 -90 -60 -49 -112 -90 -115 -90 -3 0 -6 43 -6 96 0 91 2
98 30 138 31 42 32 43 118 54 112 15 159 29 183 53 24 24 24 38 2 46 -99 34
-221 120 -272 192 l-20 28 33 110 33 110 -19 64 c-24 78 -60 129 -92 129 -12
0 -36 -15 -54 -33z m-52 -1377 c0 -57 -1 -60 -24 -60 -37 0 -47 20 -35 66 14
51 17 54 40 54 17 0 19 -7 19 -60z"/>
<path d="M2640 2055 c-225 -32 -513 -121 -862 -268 -59 -25 -108 -41 -110 -36
-2 6 -23 6 -56 -1 -50 -11 -52 -13 -52 -45 0 -42 38 -75 85 -75 18 0 135 36
261 80 125 44 229 80 230 80 2 0 11 -14 20 -32 41 -78 73 -441 54 -615 -19
-180 -55 -319 -123 -466 -25 -55 -37 -91 -30 -95 5 -4 14 -15 20 -25 9 -17 16
-12 66 43 65 72 118 174 148 286 41 148 36 729 -6 886 -8 29 -17 63 -21 75 -5
18 1 25 33 41 71 36 283 72 422 72 72 0 88 3 107 21 l23 21 -22 34 c-25 39
-34 40 -187 19z"/>
</g>
</svg>
