<?xml version="1.0" standalone="no"?>
<!DOCTYPE svg PUBLIC "-//W3C//DTD SVG 20010904//EN"
 "http://www.w3.org/TR/2001/REC-SVG-20010904/DTD/svg10.dtd">
<svg version="1.0" xmlns="http://www.w3.org/2000/svg"
 width="360.000000pt" height="360.000000pt" viewBox="0 0 360.000000 360.000000"
 preserveAspectRatio="xMidYMid meet">
<metadata>
Created by potrace 1.15, written by Peter Selinger 2001-2017
</metadata>
<g transform="translate(0.000000,360.000000) scale(0.100000,-0.100000)"
fill="#000000" stroke="none">
<path d="M1928 2734 c-16 -16 -14 -23 27 -105 l45 -88 -25 -231 c-14 -127 -30
-240 -35 -250 -26 -48 -135 -90 -236 -90 l-52 0 -218 -227 c-119 -126 -223
-229 -231 -231 -17 -4 -17 9 7 157 11 71 25 128 32 133 7 4 57 34 110 66 64
37 98 63 98 75 0 24 -51 53 -131 72 -38 10 -69 18 -69 19 0 0 9 71 20 156 24
186 25 221 5 288 -18 59 -44 82 -95 82 -76 0 -110 -90 -40 -105 36 -8 34 22
18 -318 l-12 -259 -239 -120 c-170 -85 -243 -116 -250 -109 -6 6 -37 11 -69
11 -50 0 -58 -2 -58 -19 0 -27 90 -81 134 -81 54 0 161 37 305 106 88 42 138
61 144 55 7 -7 6 -15 -1 -23 -7 -10 -8 -28 0 -63 8 -37 7 -74 -2 -143 -10 -74
-10 -98 0 -116 11 -21 3 -34 -95 -161 l-106 -139 -111 -63 c-170 -96 -183
-115 -125 -171 27 -26 41 -32 76 -32 37 0 51 7 109 55 75 62 108 70 118 28 57
-252 105 -383 139 -383 31 0 45 36 45 118 0 45 -5 84 -10 87 -8 5 -8 11 0 20
11 14 6 258 -6 277 -3 5 0 49 7 98 8 64 9 93 1 103 -26 31 252 430 392 564
102 98 256 182 256 140 0 -8 25 -21 61 -32 34 -10 63 -24 65 -29 2 -6 -12 -96
-31 -200 -29 -156 -40 -195 -61 -223 -33 -43 -109 -103 -219 -172 -71 -44
-100 -57 -174 -71 -88 -18 -141 -42 -141 -64 0 -18 67 -56 99 -56 48 0 126 30
249 97 64 34 125 63 134 63 31 0 21 -52 -27 -146 -50 -100 -118 -193 -250
-343 -95 -109 -109 -131 -77 -131 23 0 189 136 261 216 119 130 213 286 224
372 20 161 259 311 676 427 135 37 135 38 270 31 75 -4 145 -10 156 -12 15 -4
25 2 35 21 13 24 11 28 -25 65 l-39 40 -109 0 c-140 0 -265 -25 -450 -91 -176
-63 -187 -66 -187 -46 0 39 362 397 402 397 16 0 3 65 -23 114 -11 22 -37 60
-56 84 -31 38 -39 42 -78 42 -54 0 -179 -62 -283 -139 -70 -52 -110 -63 -131
-37 -8 10 -9 50 -1 152 5 77 10 198 10 269 l0 131 -53 52 c-56 56 -73 62 -99
36z m542 -599 c16 -20 -15 -84 -91 -184 -82 -110 -360 -373 -376 -358 -11 11
19 220 37 264 39 90 157 188 310 255 97 42 103 43 120 23z m-1390 -1125 c0
-89 0 -90 -24 -90 -35 0 -50 50 -36 115 13 60 17 65 41 65 17 0 19 -8 19 -90z"/>
<path d="M2330 1169 c0 -8 69 -84 153 -169 l154 -155 36 -95 c59 -150 86 -194
123 -198 52 -5 55 11 18 141 -29 105 -39 127 -90 195 -77 102 -198 221 -260
254 -61 33 -134 47 -134 27z"/>
</g>
</svg>
