<?xml version="1.0" standalone="no"?>
<!DOCTYPE svg PUBLIC "-//W3C//DTD SVG 20010904//EN"
 "http://www.w3.org/TR/2001/REC-SVG-20010904/DTD/svg10.dtd">
<svg version="1.0" xmlns="http://www.w3.org/2000/svg"
 width="360.000000pt" height="360.000000pt" viewBox="0 0 360.000000 360.000000"
 preserveAspectRatio="xMidYMid meet">
<metadata>
Created by potrace 1.15, written by Peter Selinger 2001-2017
</metadata>
<g transform="translate(0.000000,360.000000) scale(0.100000,-0.100000)"
fill="#000000" stroke="none">
<path d="M2175 2618 c16 -70 19 -103 13 -133 -5 -22 -7 -53 -5 -69 2 -15 -2
-46 -10 -68 -7 -22 -13 -72 -13 -111 2 -178 0 -218 -9 -235 -5 -10 -62 -49
-126 -86 l-117 -69 -70 21 -71 21 -18 -22 c-10 -12 -18 -27 -19 -34 0 -18 76
-73 101 -73 13 0 89 21 169 45 80 25 146 45 148 45 1 0 2 -38 2 -84 0 -80 -1
-84 -24 -90 -27 -7 -170 -110 -200 -145 -18 -20 -18 -23 -4 -37 14 -14 24 -12
101 21 47 20 90 34 96 31 5 -4 15 -22 21 -41 11 -33 9 -40 -37 -122 -50 -91
-128 -183 -155 -183 -34 0 -49 36 -58 137 -11 118 -22 151 -102 305 -60 115
-75 131 -96 106 -19 -23 82 -565 131 -702 20 -56 24 -61 55 -64 27 -3 48 8
121 62 49 37 120 82 157 102 66 35 73 36 144 31 98 -7 105 -10 120 -60 17 -57
74 -177 100 -210 57 -73 116 7 206 280 45 137 153 532 175 641 l13 62 -54 56
c-68 69 -175 125 -240 125 -25 0 -116 -3 -202 -7 -87 -3 -158 -2 -158 2 0 5 9
122 21 259 21 244 21 252 4 289 -19 40 -86 96 -115 96 -16 0 -15 -7 5 -92z
m517 -685 l80 -58 -6 -55 c-21 -180 -117 -583 -152 -637 -18 -28 -74 -33 -74
-7 0 66 -99 125 -221 132 l-79 5 0 53 c0 51 3 57 90 173 92 124 102 149 75
188 -16 22 -98 53 -142 53 -21 0 -23 5 -23 45 0 110 55 144 232 145 67 0 119
4 123 10 9 15 12 14 97 -47z"/>
<path d="M1124 2574 c-37 -39 -49 -71 -40 -108 12 -49 71 -44 84 7 10 39 29
45 43 14 8 -18 5 -84 -11 -271 -16 -187 -19 -250 -10 -261 15 -19 2 -41 -54
-93 -53 -49 -222 -162 -242 -162 -23 0 -169 -49 -188 -63 -19 -14 -19 -15 0
-46 18 -32 21 -33 72 -28 67 7 176 57 270 125 47 33 83 52 102 52 25 0 29 -5
40 -50 9 -37 9 -74 1 -150 -6 -56 -11 -107 -11 -114 0 -7 -32 -53 -71 -102
-193 -242 -299 -400 -299 -444 0 -30 45 -79 59 -64 4 5 49 73 99 152 90 140
194 286 213 298 16 10 20 0 31 -73 l10 -68 -48 -110 c-26 -60 -47 -118 -46
-127 2 -38 63 -273 82 -315 17 -38 23 -44 46 -41 36 4 50 46 64 194 10 114 10
117 -14 168 -35 71 -48 171 -44 344 l3 148 34 56 c19 31 69 98 112 150 43 51
79 99 79 106 0 27 -40 8 -123 -58 -48 -39 -92 -68 -97 -65 -6 3 -10 51 -10
106 0 97 1 101 33 143 30 40 36 44 100 54 89 14 117 32 117 77 0 33 -2 35 -34
35 -18 0 -58 5 -87 10 -40 8 -60 7 -77 -2 -18 -9 -25 -9 -36 3 -12 12 -7 47
34 239 27 124 47 235 44 246 -9 34 -65 95 -100 110 -57 24 -93 18 -130 -22z"/>
</g>
</svg>
