<?xml version="1.0" standalone="no"?>
<!DOCTYPE svg PUBLIC "-//W3C//DTD SVG 20010904//EN"
 "http://www.w3.org/TR/2001/REC-SVG-20010904/DTD/svg10.dtd">
<svg version="1.0" xmlns="http://www.w3.org/2000/svg"
 width="360.000000pt" height="360.000000pt" viewBox="0 0 360.000000 360.000000"
 preserveAspectRatio="xMidYMid meet">
<metadata>
Created by potrace 1.15, written by Peter Selinger 2001-2017
</metadata>
<g transform="translate(0.000000,360.000000) scale(0.100000,-0.100000)"
fill="#000000" stroke="none">
<path d="M2067 2560 c-57 -31 -141 -122 -218 -237 -83 -125 -96 -182 -17 -77
69 92 174 196 220 217 54 25 89 21 170 -21 72 -37 73 -38 73 -77 0 -22 -4 -59
-8 -82 -7 -42 -7 -43 21 -43 39 0 65 21 119 97 36 51 44 69 36 82 -20 32 -92
79 -179 116 -110 46 -165 53 -217 25z"/>
<path d="M1370 2525 c-28 -29 -31 -37 -20 -50 7 -8 18 -15 25 -15 7 0 23 -8
35 -18 l23 -19 -23 -226 -24 -227 -77 -83 c-142 -153 -302 -254 -440 -279 -35
-6 -65 -13 -67 -14 -11 -8 25 -48 53 -60 100 -41 220 7 388 155 42 37 66 51
88 51 22 0 29 -5 29 -19 0 -11 -4 -23 -10 -26 -6 -3 -10 -51 -10 -107 0 -98
-1 -103 -41 -182 -62 -123 -160 -265 -246 -357 -78 -82 -209 -188 -271 -217
-35 -17 -35 -18 -5 -101 l16 -43 44 6 c57 7 138 51 164 88 11 15 23 44 26 63
5 31 9 35 36 35 41 0 113 -75 208 -219 39 -58 73 -108 75 -110 2 -3 15 5 27
18 24 21 24 23 30 349 7 327 20 476 52 603 10 39 66 159 146 311 71 136 129
252 129 257 0 6 -6 11 -14 11 -18 0 -46 -38 -46 -62 0 -16 -10 -18 -90 -18
l-90 0 0 43 c0 23 11 107 25 187 30 178 31 189 2 231 -23 34 -81 79 -102 79
-6 0 -26 -16 -45 -35z m183 -681 c3 -3 -4 -26 -16 -50 -16 -33 -27 -44 -44
-44 -32 0 -30 36 4 72 26 27 43 34 56 22z m-244 -693 c-8 -54 -8 -89 1 -138 8
-47 8 -74 0 -98 -6 -18 -9 -38 -8 -45 2 -6 -4 -17 -13 -22 -12 -9 -33 -2 -93
31 -75 42 -77 44 -71 75 14 69 65 158 125 218 34 33 63 58 66 56 2 -3 0 -38
-7 -77z"/>
<path d="M2595 2021 c-104 -39 -320 -137 -580 -261 -137 -65 -154 -71 -195
-65 -25 3 -53 8 -62 11 -34 10 -19 -40 33 -114 28 -40 52 -72 55 -72 2 0 98
50 212 110 115 61 212 110 215 110 4 0 7 -65 7 -143 0 -142 0 -144 -28 -183
-32 -44 -119 -127 -235 -224 -42 -35 -77 -70 -77 -77 0 -17 65 -49 180 -89 52
-19 96 -38 98 -44 5 -14 -151 -172 -237 -240 -45 -36 -70 -62 -70 -76 -1 -27
39 -64 70 -64 14 0 146 24 295 54 l269 54 132 -22 133 -23 20 22 20 21 -65 64
-64 63 -198 -7 c-109 -4 -213 -9 -230 -12 -26 -5 -33 -3 -33 10 0 8 45 71 101
138 161 197 269 366 269 422 0 30 -40 88 -57 82 -8 -3 -39 -9 -68 -12 -45 -6
-58 -3 -84 15 l-31 22 0 133 0 132 48 45 c44 43 55 48 172 78 137 35 227 72
236 95 3 9 -4 31 -16 51 -21 33 -24 35 -78 35 -41 -1 -85 -11 -157 -39z m-115
-696 c0 -54 -99 -172 -133 -159 -54 20 -6 116 78 155 49 23 55 23 55 4z m-244
-132 c-3 -10 -8 -35 -12 -56 -6 -37 -7 -38 -47 -35 -22 2 -42 8 -44 13 -2 6
11 30 28 53 22 30 38 42 56 42 18 0 23 -4 19 -17z"/>
</g>
</svg>
