<?xml version="1.0" standalone="no"?>
<!DOCTYPE svg PUBLIC "-//W3C//DTD SVG 20010904//EN"
 "http://www.w3.org/TR/2001/REC-SVG-20010904/DTD/svg10.dtd">
<svg version="1.0" xmlns="http://www.w3.org/2000/svg"
 width="360.000000pt" height="360.000000pt" viewBox="0 0 360.000000 360.000000"
 preserveAspectRatio="xMidYMid meet">
<metadata>
Created by potrace 1.15, written by Peter Selinger 2001-2017
</metadata>
<g transform="translate(0.000000,360.000000) scale(0.100000,-0.100000)"
fill="#000000" stroke="none">
<path d="M1911 2637 c-22 -30 -41 -63 -41 -75 0 -19 3 -20 31 -10 63 22 169
-7 265 -72 25 -16 51 -30 58 -30 15 0 76 62 76 77 0 15 -70 76 -121 106 -54
31 -140 57 -190 57 -32 0 -41 -6 -78 -53z"/>
<path d="M1238 2649 c-47 -35 -32 -89 24 -89 37 0 72 -35 63 -63 -19 -64 -26
-109 -34 -236 -9 -151 -21 -191 -82 -264 -72 -88 -266 -204 -463 -278 l-88
-33 36 -33 c22 -21 46 -33 64 -33 41 0 151 57 297 154 117 77 131 84 143 69
42 -57 -21 -340 -119 -534 -48 -97 -160 -263 -239 -357 -60 -71 -61 -74 -44
-93 11 -12 30 -19 55 -19 32 0 43 6 78 47 34 40 162 280 184 346 4 10 16 17
30 17 23 0 25 -5 36 -75 15 -105 14 -238 -3 -279 -9 -22 -24 -37 -46 -45 -25
-8 -30 -14 -22 -24 6 -7 14 -32 18 -56 4 -24 15 -50 24 -59 10 -10 20 -40 23
-69 3 -29 13 -66 22 -83 l17 -32 22 21 c22 21 24 32 31 214 8 201 9 297 5 512
-2 93 2 152 14 205 27 121 82 277 138 390 l53 104 47 11 c26 7 54 17 62 25 18
14 22 95 6 105 -5 3 -53 -8 -107 -25 -53 -16 -100 -30 -103 -30 -3 0 -11 13
-18 30 -12 26 -9 52 31 237 49 230 49 235 -9 310 -22 29 -30 33 -72 33 -31 -1
-56 -7 -74 -21z m162 -712 c0 -7 -16 -28 -35 -47 -34 -33 -35 -33 -35 -10 0
26 36 70 57 70 7 0 13 -6 13 -13z"/>
<path d="M2419 2145 c-61 -33 -463 -200 -561 -233 l-108 -36 0 -43 c0 -27 5
-46 13 -49 7 -2 82 25 167 61 101 43 157 62 163 56 7 -7 -8 -31 -45 -73 -126
-145 -212 -290 -243 -413 -24 -96 -21 -119 24 -154 21 -17 43 -31 48 -31 5 0
85 81 177 180 92 99 190 198 217 220 105 83 134 33 50 -86 -79 -111 -195 -219
-348 -322 -66 -45 -73 -67 -26 -78 13 -4 22 -11 20 -18 -6 -21 -168 -94 -308
-140 -121 -40 -151 -46 -224 -46 -47 0 -85 -4 -85 -8 0 -4 15 -22 33 -40 32
-31 35 -32 122 -32 82 0 115 7 429 96 192 54 342 92 344 86 2 -6 14 -6 36 0
23 7 56 7 103 0 49 -7 84 -7 116 1 41 9 62 6 207 -33 155 -41 161 -42 180 -25
11 10 20 23 20 28 0 21 -54 80 -112 123 l-60 44 -112 0 c-61 0 -219 -9 -351
-20 -267 -22 -315 -24 -315 -12 0 5 55 45 123 89 239 157 370 295 392 413 6
34 4 37 -55 78 -49 35 -67 42 -88 37 -62 -15 -188 -112 -354 -272 -139 -134
-146 -126 -51 58 103 201 275 392 447 500 74 47 86 57 84 79 -4 30 -31 36 -69
15z"/>
</g>
</svg>
