<?xml version="1.0" standalone="no"?>
<!DOCTYPE svg PUBLIC "-//W3C//DTD SVG 20010904//EN"
 "http://www.w3.org/TR/2001/REC-SVG-20010904/DTD/svg10.dtd">
<svg version="1.0" xmlns="http://www.w3.org/2000/svg"
 width="360.000000pt" height="360.000000pt" viewBox="0 0 360.000000 360.000000"
 preserveAspectRatio="xMidYMid meet">
<metadata>
Created by potrace 1.15, written by Peter Selinger 2001-2017
</metadata>
<g transform="translate(0.000000,360.000000) scale(0.100000,-0.100000)"
fill="#000000" stroke="none">
<path d="M1561 3142 c-6 -12 -6 -54 2 -120 17 -157 -9 -250 -96 -340 -55 -56
-116 -95 -200 -127 l-68 -25 -46 35 c-28 21 -57 35 -74 35 -44 0 -40 -48 9
-101 45 -51 85 -69 154 -69 48 0 61 6 143 60 l90 60 3 -35 c7 -75 -76 -198
-176 -265 -37 -24 -56 -30 -101 -30 -68 0 -131 -16 -131 -34 0 -7 12 -23 26
-37 21 -20 36 -24 82 -24 31 0 74 4 95 8 35 7 37 6 37 -16 0 -95 -77 -205
-182 -258 l-57 -29 -56 22 -56 21 -45 -43 c-24 -25 -44 -50 -44 -56 0 -7 17
-26 37 -44 34 -30 40 -32 92 -27 31 3 74 9 95 13 l39 7 -7 -29 c-10 -38 -137
-226 -241 -357 -134 -167 -246 -260 -342 -286 -39 -11 -43 -15 -43 -42 0 -31
0 -31 43 -24 108 17 250 108 393 251 82 83 234 262 267 315 13 20 42 25 52 9
12 -20 77 -9 195 34 73 26 120 39 120 32 0 -7 -54 -58 -120 -114 -136 -115
-180 -169 -180 -218 0 -53 20 -56 134 -17 174 58 170 50 -85 -167 -125 -107
-229 -200 -229 -206 0 -25 47 -54 88 -54 35 0 82 22 283 131 132 72 241 130
243 128 1 -2 22 -51 45 -109 41 -104 41 -105 21 -119 -28 -19 -28 -77 0 -86
11 -3 20 -9 20 -13 -1 -4 -36 -74 -78 -157 l-77 -150 -45 -6 c-25 -4 -105 -23
-178 -43 -73 -20 -146 -36 -162 -36 -27 0 -30 -3 -30 -31 l0 -31 118 8 c133 9
132 9 229 -1 63 -7 75 -5 107 14 71 44 133 149 180 301 45 148 44 147 20 243
-13 52 -18 87 -12 87 10 0 9 30 -8 151 l-6 46 59 12 c45 8 78 9 136 0 l76 -11
51 42 c27 23 50 47 50 54 0 7 -10 22 -22 33 -22 19 -30 20 -133 12 -60 -4
-138 -8 -172 -8 l-63 -1 0 31 c0 23 14 48 55 97 30 37 55 71 55 77 0 7 -10 21
-22 33 -21 18 -28 20 -70 11 -45 -10 -49 -9 -73 18 -13 15 -25 31 -25 35 0 3
42 44 94 90 75 66 94 89 95 111 1 15 -5 30 -13 33 -42 16 -324 -63 -502 -141
-71 -31 -137 -59 -146 -62 -23 -7 -23 15 -2 87 34 116 203 231 435 296 l98 27
63 -49 c293 -227 356 -280 362 -306 21 -101 237 -205 632 -304 150 -37 187
-44 199 -34 18 15 11 46 -17 77 -26 28 -105 61 -189 79 -253 53 -542 225 -836
499 -60 55 -83 84 -83 101 0 23 3 24 58 24 44 0 63 5 75 18 20 22 22 65 4 80
-23 20 -233 -9 -315 -43 -24 -11 -39 -12 -46 -5 -5 5 -26 10 -46 10 -30 0 -49
-11 -112 -65 -42 -36 -82 -65 -88 -65 -17 0 -4 54 28 120 28 56 78 100 115
100 11 0 28 6 36 13 9 8 52 26 96 41 128 44 244 103 257 132 10 21 8 28 -17
54 l-27 29 20 43 c12 24 49 74 82 111 61 69 68 84 50 117 -26 49 -262 70 -340
30 -47 -24 -98 -26 -106 -5 -5 12 14 123 32 186 2 9 -14 39 -37 67 -44 56 -80
68 -98 34z m357 -358 c39 -27 28 -59 -45 -136 -69 -72 -268 -228 -290 -228
-18 0 -16 11 13 98 53 159 127 248 229 273 48 11 69 10 93 -7z"/>
</g>
</svg>
