<?xml version="1.0" standalone="no"?>
<!DOCTYPE svg PUBLIC "-//W3C//DTD SVG 20010904//EN"
 "http://www.w3.org/TR/2001/REC-SVG-20010904/DTD/svg10.dtd">
<svg version="1.0" xmlns="http://www.w3.org/2000/svg"
 width="360.000000pt" height="360.000000pt" viewBox="0 0 360.000000 360.000000"
 preserveAspectRatio="xMidYMid meet">
<metadata>
Created by potrace 1.15, written by Peter Selinger 2001-2017
</metadata>
<g transform="translate(0.000000,360.000000) scale(0.100000,-0.100000)"
fill="#000000" stroke="none">
<path d="M1992 3007 c-38 -38 -52 -60 -52 -81 0 -24 3 -27 23 -23 83 19 85 19
102 -7 9 -14 23 -45 30 -70 12 -38 11 -53 -1 -98 -8 -29 -19 -106 -24 -171 -7
-89 -15 -126 -29 -145 -21 -29 -120 -125 -190 -184 -29 -25 -41 -42 -38 -53 8
-20 36 -19 127 5 41 10 76 18 77 16 2 -2 -2 -59 -8 -129 l-12 -125 -166 -70
c-272 -115 -391 -152 -391 -121 0 6 34 57 75 114 97 132 100 152 15 90 -26
-19 -57 -35 -69 -35 -18 0 -21 6 -21 48 l0 47 111 79 111 78 -33 34 c-39 41
-67 43 -117 9 -41 -28 -72 -32 -72 -10 0 9 14 109 31 223 23 153 28 211 20
224 -7 11 -7 19 -1 23 6 3 10 23 10 43 0 31 -9 45 -57 94 -32 32 -63 58 -69
58 -7 0 -26 -16 -43 -35 -46 -52 -40 -97 14 -107 45 -8 46 -36 6 -313 -20
-143 -42 -270 -49 -281 -34 -62 -180 -154 -357 -224 -72 -28 -87 -31 -145 -25
-36 3 -72 8 -81 11 -11 3 -21 -6 -29 -26 -12 -29 -11 -33 20 -65 102 -105 236
-80 460 85 115 85 116 86 136 69 27 -22 14 -130 -24 -204 -73 -146 -265 -360
-591 -661 -13 -12 -12 -16 4 -34 13 -14 31 -20 64 -20 l46 0 245 277 245 278
3 -245 c2 -156 -1 -270 -8 -313 l-12 -68 -31 3 c-26 2 -36 11 -53 43 -28 54
-58 55 -62 3 -3 -33 7 -52 68 -143 76 -111 97 -125 124 -83 32 50 68 306 47
332 -8 10 -9 16 -1 21 6 4 10 68 10 173 0 92 4 183 9 202 6 19 15 54 21 77
l11 42 54 -21 54 -20 246 126 c135 69 250 126 256 126 20 0 7 -34 -43 -107
-81 -121 -275 -376 -417 -549 -122 -148 -129 -159 -114 -176 9 -10 19 -18 23
-18 4 0 126 128 270 285 229 247 307 322 287 273 -3 -7 -30 -77 -61 -155 -49
-126 -54 -145 -45 -173 12 -32 35 -50 65 -50 10 0 63 27 118 59 134 79 228
123 279 128 35 4 46 1 66 -20 23 -25 23 -28 19 -184 -6 -179 -21 -242 -89
-373 -56 -108 -125 -195 -246 -310 -58 -55 -103 -103 -99 -108 12 -11 185 84
256 141 134 109 234 261 280 427 11 41 26 131 32 200 10 109 9 132 -5 180 -20
67 -69 128 -131 160 l-45 24 -145 -47 c-178 -58 -186 -58 -177 -14 19 83 70
136 187 193 39 19 107 43 150 54 43 11 81 26 86 33 13 21 9 107 -5 113 -7 2
-83 -29 -168 -71 l-154 -75 -27 33 c-15 17 -27 39 -28 47 0 30 40 102 60 107
12 3 20 14 20 26 0 12 21 41 48 67 60 57 172 104 360 151 111 28 135 31 155
20 13 -7 47 -11 77 -9 l55 3 -1 47 c0 31 -6 54 -19 68 -20 22 -50 26 -61 9 -5
-8 -8 -8 -14 0 -5 8 -49 2 -156 -24 -82 -19 -159 -37 -171 -40 -19 -4 -23 -1
-23 17 0 49 93 202 196 322 30 35 34 46 34 96 0 46 -4 61 -23 78 -30 28 -38
28 -67 -3 -21 -22 -22 -29 -12 -46 11 -17 7 -27 -33 -79 -25 -33 -80 -115
-121 -182 -92 -149 -141 -215 -207 -273 -46 -42 -119 -76 -134 -62 -6 6 45
229 57 247 3 4 39 24 80 45 119 60 180 103 180 129 0 62 -91 75 -172 25 -28
-16 -51 -29 -53 -27 -1 2 -10 17 -19 35 -15 29 -14 42 11 207 l27 177 -24 46
c-40 74 -82 113 -122 113 -28 0 -43 -10 -86 -53z"/>
</g>
</svg>
