<?xml version="1.0" standalone="no"?>
<!DOCTYPE svg PUBLIC "-//W3C//DTD SVG 20010904//EN"
 "http://www.w3.org/TR/2001/REC-SVG-20010904/DTD/svg10.dtd">
<svg version="1.0" xmlns="http://www.w3.org/2000/svg"
 width="360.000000pt" height="360.000000pt" viewBox="0 0 360.000000 360.000000"
 preserveAspectRatio="xMidYMid meet">
<metadata>
Created by potrace 1.15, written by Peter Selinger 2001-2017
</metadata>
<g transform="translate(0.000000,360.000000) scale(0.100000,-0.100000)"
fill="#000000" stroke="none">
<path d="M1480 2977 c0 -19 6 -39 13 -45 7 -6 53 -16 102 -22 119 -14 204 -36
238 -61 39 -29 111 -24 115 8 6 39 -28 92 -77 121 -43 25 -52 27 -146 23 -55
-1 -116 -4 -135 -4 -19 -1 -52 3 -72 7 l-38 8 0 -35z"/>
<path d="M2034 2786 c-159 -53 -242 -89 -528 -229 -353 -174 -386 -185 -421
-147 -17 19 -19 19 -37 4 -10 -10 -18 -29 -18 -44 0 -44 30 -62 124 -73 l83
-11 173 98 c106 59 181 96 194 94 l22 -3 -33 -205 c-32 -195 -33 -210 -23
-314 13 -125 29 -176 59 -176 32 0 61 51 61 109 l0 51 33 0 c46 0 110 -65 105
-106 -3 -27 -16 -34 -238 -131 -129 -56 -261 -114 -294 -128 -57 -25 -58 -26
-41 -45 12 -14 31 -20 58 -20 52 0 191 47 325 110 l107 51 67 -11 c65 -11 68
-13 68 -39 0 -24 -6 -30 -42 -40 -60 -18 -261 -124 -401 -210 l-117 -73 25
-20 c19 -15 35 -19 60 -15 41 7 198 84 353 174 108 62 114 65 127 47 9 -12 14
-45 15 -91 l0 -72 -37 -6 c-148 -23 -469 -167 -820 -367 -39 -23 -47 -23 -128
-15 -79 9 -87 8 -100 -9 -46 -61 24 -134 129 -134 36 0 69 13 178 72 213 115
566 285 650 312 91 31 165 34 175 9 4 -9 -4 -127 -16 -262 -32 -347 -29 -330
-65 -352 -34 -20 -161 -52 -278 -70 -43 -6 -78 -15 -78 -19 0 -25 175 -94 309
-121 59 -13 61 -12 87 12 61 55 172 358 146 399 -7 12 -8 21 -2 25 6 4 10 100
10 246 0 131 3 239 8 239 4 0 84 14 177 30 204 36 291 38 351 10 23 -12 70
-26 103 -32 58 -11 63 -10 84 10 l21 22 -44 46 c-104 108 -198 118 -480 54
-96 -22 -195 -40 -219 -40 l-44 0 6 78 c8 111 9 112 76 111 31 -1 70 -4 86 -8
24 -5 34 -2 48 15 24 31 22 46 -18 84 l-35 34 -81 -13 -82 -13 -31 32 -31 31
62 -7 c56 -6 66 -4 135 29 40 20 95 55 122 78 l48 43 -36 33 c-40 37 -55 39
-171 22 -55 -8 -79 -9 -87 -1 -8 8 -7 40 2 115 10 81 10 119 1 171 -11 65 -11
68 11 86 20 17 40 19 154 20 127 0 131 -1 154 -25 l24 -26 -82 -82 c-45 -45
-82 -86 -82 -90 0 -12 92 -7 132 7 53 19 110 67 153 130 38 55 38 55 20 83
-28 42 -55 61 -109 78 -57 17 -188 19 -290 5 -38 -6 -71 -8 -74 -6 -5 6 -41
222 -42 252 0 18 10 22 82 33 125 19 218 60 218 97 0 7 -17 26 -38 43 l-38 30
-190 -63z m-135 -255 c33 -33 46 -122 45 -306 0 -93 -4 -195 -8 -227 l-7 -56
-130 81 c-145 90 -137 77 -115 204 30 166 64 261 108 298 35 30 81 32 107 6z"/>
<path d="M1300 2184 c-90 -39 -139 -130 -148 -277 -6 -100 14 -167 50 -167 49
0 167 98 236 197 54 76 13 83 -86 13 -86 -61 -102 -63 -102 -15 0 77 50 149
133 191 52 27 55 33 29 57 -23 21 -66 21 -112 1z"/>
</g>
</svg>
