<?xml version="1.0" standalone="no"?>
<!DOCTYPE svg PUBLIC "-//W3C//DTD SVG 20010904//EN"
 "http://www.w3.org/TR/2001/REC-SVG-20010904/DTD/svg10.dtd">
<svg version="1.0" xmlns="http://www.w3.org/2000/svg"
 width="360.000000pt" height="360.000000pt" viewBox="0 0 360.000000 360.000000"
 preserveAspectRatio="xMidYMid meet">
<metadata>
Created by potrace 1.15, written by Peter Selinger 2001-2017
</metadata>
<g transform="translate(0.000000,360.000000) scale(0.100000,-0.100000)"
fill="#000000" stroke="none">
<path d="M1278 2662 c-36 -61 -15 -147 27 -112 8 7 21 10 29 7 28 -11 29 -92
6 -264 -16 -120 -19 -168 -11 -176 15 -15 14 -67 -4 -117 -34 -96 -128 -187
-262 -254 -110 -55 -143 -66 -194 -66 -27 0 -49 -4 -49 -8 0 -4 24 -31 53 -60
77 -76 88 -74 270 43 84 54 159 95 173 95 28 0 27 0 14 -36 -8 -19 -7 -37 1
-61 8 -26 8 -38 0 -46 -14 -14 -14 -50 0 -64 9 -9 -4 -36 -47 -108 -108 -178
-239 -342 -401 -503 -84 -84 -153 -160 -153 -170 0 -10 15 -32 33 -50 54 -52
77 -46 207 58 l112 90 41 -23 c50 -28 132 -118 205 -224 30 -46 61 -83 67 -83
6 0 22 11 34 24 l23 24 -6 264 c-8 312 -8 309 0 514 l5 160 149 202 c82 111
145 202 139 202 -6 0 -69 -54 -141 -120 -72 -66 -134 -120 -139 -120 -5 0 -9
51 -9 114 l0 113 66 18 c37 10 93 31 125 47 71 36 85 65 48 105 -21 22 -30 24
-73 19 -26 -3 -72 -19 -102 -36 -65 -36 -84 -38 -84 -7 0 12 10 128 21 259
l22 236 -24 48 c-25 49 -64 77 -124 90 -26 5 -33 1 -47 -24z m62 -1435 c0 -23
-4 -58 -10 -77 -7 -26 -5 -75 10 -190 25 -193 25 -194 2 -188 -24 7 -262 166
-262 176 0 20 132 222 175 268 63 68 85 70 85 11z"/>
<path d="M2258 2606 c-20 -8 -47 -21 -60 -30 -13 -9 -100 -43 -194 -76 -93
-33 -175 -63 -183 -65 -11 -4 -7 -13 14 -35 43 -45 77 -40 321 45 233 81 293
91 361 58 57 -27 60 -47 23 -160 -87 -265 -227 -465 -409 -584 -72 -48 -111
-61 -111 -37 0 6 72 107 160 225 88 117 160 221 160 231 0 33 -59 56 -126 50
-76 -7 -143 -39 -208 -99 -51 -47 -51 -47 -32 -68 26 -29 64 -26 111 10 38 29
40 29 43 9 4 -25 -105 -203 -122 -197 -6 2 -12 17 -14 33 -2 16 -13 38 -26 49
-27 23 -86 161 -86 200 0 48 -66 155 -96 155 -25 0 -26 -23 -4 -141 18 -98 20
-130 12 -172 -9 -48 -8 -52 14 -70 26 -20 53 -99 56 -162 0 -22 -3 -75 -7
-118 -10 -95 3 -117 69 -117 51 0 103 24 212 95 47 30 89 55 94 55 6 0 10 -35
10 -79 l0 -78 -195 -152 c-107 -83 -195 -154 -195 -157 0 -3 9 -22 19 -43 l20
-38 83 -5 c96 -6 161 -24 184 -49 14 -16 5 -26 -133 -145 -167 -143 -181 -166
-121 -198 33 -18 36 -18 150 8 147 33 331 63 439 72 80 6 87 5 122 -19 42 -28
110 -40 197 -35 49 3 55 6 58 27 6 37 -26 107 -63 140 -43 37 -86 46 -171 34
-43 -6 -79 -6 -103 0 -28 8 -65 5 -160 -12 -68 -12 -125 -20 -127 -18 -3 2 83
112 191 243 185 226 196 241 191 273 -8 49 -56 143 -70 138 -7 -3 -43 -8 -80
-12 -94 -10 -106 2 -106 105 0 77 0 78 38 112 21 19 64 50 95 69 60 35 62 40
47 103 -8 37 -3 53 91 260 54 122 99 230 99 241 0 24 -77 77 -165 114 -50 21
-78 26 -170 28 -75 2 -122 -2 -147 -11z m192 -1186 c0 -6 -18 -46 -40 -90 -50
-100 -70 -105 -70 -18 0 54 4 66 27 90 26 28 83 40 83 18z m-250 -128 c0 -23
-50 -72 -73 -72 -25 0 -21 10 20 52 41 42 53 47 53 20z"/>
</g>
</svg>
