<?xml version="1.0" standalone="no"?>
<!DOCTYPE svg PUBLIC "-//W3C//DTD SVG 20010904//EN"
 "http://www.w3.org/TR/2001/REC-SVG-20010904/DTD/svg10.dtd">
<svg version="1.0" xmlns="http://www.w3.org/2000/svg"
 width="360.000000pt" height="360.000000pt" viewBox="0 0 360.000000 360.000000"
 preserveAspectRatio="xMidYMid meet">
<metadata>
Created by potrace 1.15, written by Peter Selinger 2001-2017
</metadata>
<g transform="translate(0.000000,360.000000) scale(0.100000,-0.100000)"
fill="#000000" stroke="none">
<path d="M2355 2888 c-129 -71 -273 -135 -357 -158 -86 -24 -101 -37 -288
-251 l-128 -147 -31 32 -31 31 -78 -29 c-125 -46 -122 -47 -122 10 0 27 5 131
10 231 12 198 6 249 -33 291 -28 31 -101 32 -118 1 -9 -17 -5 -37 22 -107 l32
-86 -23 -210 c-12 -116 -28 -223 -36 -237 -16 -33 -87 -103 -139 -139 -31 -21
-57 -29 -113 -34 -125 -11 -172 -45 -124 -89 21 -19 97 -23 107 -6 4 6 14 8
22 5 8 -3 46 8 85 24 38 17 85 30 102 30 32 0 33 -1 44 -64 22 -117 17 -149
-32 -224 -77 -115 -169 -222 -305 -355 -72 -70 -131 -134 -131 -141 0 -7 8
-20 18 -29 15 -14 41 -17 139 -17 l120 0 108 -130 c112 -136 134 -150 168
-112 39 43 41 68 47 457 6 432 -3 390 104 538 50 70 67 107 50 107 -3 0 -28
-18 -55 -41 -32 -27 -56 -39 -71 -37 -21 3 -23 9 -26 73 -1 39 1 75 5 80 5 6
36 34 70 63 60 52 63 53 117 50 l56 -3 -35 -58 c-36 -59 -43 -87 -24 -87 18 0
116 107 223 244 55 69 103 126 106 126 4 0 14 -8 22 -17 33 -38 -19 -271 -147
-663 -158 -480 -286 -813 -401 -1040 -80 -158 -149 -254 -207 -285 -29 -16
-37 -26 -37 -47 0 -25 3 -28 35 -28 45 0 94 43 104 90 6 31 11 35 42 38 33 3
38 8 92 105 175 316 355 783 520 1347 40 139 57 184 68 181 64 -16 100 -12
165 18 37 17 68 30 68 29 1 -2 21 -27 45 -56 44 -53 44 -53 39 -120 -6 -81
-29 -130 -96 -203 -44 -48 -59 -57 -138 -83 -98 -31 -174 -67 -192 -89 -9 -11
-7 -18 13 -37 37 -35 124 -24 230 29 44 23 83 41 88 41 4 0 7 -10 7 -22 0 -45
-22 -99 -53 -135 -32 -36 -116 -83 -150 -83 -15 0 -17 -6 -11 -52 28 -234 71
-448 97 -481 10 -13 38 -5 192 50 l180 65 134 -11 c155 -12 171 -7 171 58 0
34 -4 38 -51 61 -29 14 -57 33 -63 44 -9 15 -6 21 19 39 68 49 161 152 173
193 24 81 19 93 -65 163 l-76 65 -81 -28 c-45 -15 -150 -59 -235 -97 -84 -39
-156 -68 -158 -65 -9 8 16 69 38 92 12 12 24 46 30 84 36 225 241 331 564 291
90 -12 98 -11 110 6 21 27 18 46 -14 77 l-29 28 -158 -4 c-163 -4 -187 -9
-361 -75 -10 -4 -13 11 -13 53 0 80 -22 166 -54 215 -42 62 -35 70 80 99 110
28 154 50 154 80 0 26 -30 40 -96 47 -30 3 -54 7 -54 9 0 2 54 72 120 156 66
84 120 158 120 166 0 38 -101 154 -132 151 -7 -1 -53 -24 -103 -51z m85 -106
c0 -33 -27 -72 -146 -218 -140 -171 -267 -277 -358 -298 l-29 -7 7 58 c3 32 9
113 13 181 l6 122 37 0 c99 0 268 66 380 149 67 49 90 52 90 13z m-1252 -1302
c3 -172 -10 -310 -29 -310 -5 0 -33 19 -62 41 -59 48 -141 89 -176 89 -18 0
-22 4 -19 18 6 21 206 324 222 335 6 4 22 6 36 5 l25 -3 3 -175z m1419 48 c13
-12 23 -30 23 -40 0 -35 -91 -162 -179 -249 -67 -67 -104 -95 -169 -127 -103
-51 -143 -60 -177 -38 -19 13 -25 25 -25 54 1 111 107 210 395 371 50 28 94
50 99 51 6 0 20 -10 33 -22z"/>
</g>
</svg>
