<?xml version="1.0" standalone="no"?>
<!DOCTYPE svg PUBLIC "-//W3C//DTD SVG 20010904//EN"
 "http://www.w3.org/TR/2001/REC-SVG-20010904/DTD/svg10.dtd">
<svg version="1.0" xmlns="http://www.w3.org/2000/svg"
 width="360.000000pt" height="360.000000pt" viewBox="0 0 360.000000 360.000000"
 preserveAspectRatio="xMidYMid meet">
<metadata>
Created by potrace 1.15, written by Peter Selinger 2001-2017
</metadata>
<g transform="translate(0.000000,360.000000) scale(0.100000,-0.100000)"
fill="#000000" stroke="none">
<path d="M1822 2783 c-6 -11 -5 -42 1 -78 9 -59 9 -62 -60 -255 -177 -492
-351 -872 -504 -1101 l-38 -56 24 -23 c34 -32 65 -21 112 42 54 72 130 199
163 272 32 71 63 93 180 125 86 24 110 26 110 8 0 -7 -88 -100 -195 -207 -146
-146 -195 -201 -195 -219 0 -25 56 -121 70 -121 36 0 186 92 325 199 84 64
105 73 105 42 0 -31 -96 -166 -173 -244 -56 -57 -68 -74 -59 -86 5 -9 14 -15
19 -14 4 1 20 4 33 7 23 6 28 0 61 -61 40 -78 84 -113 138 -113 75 0 148 81
222 249 37 83 38 86 17 89 -15 3 -48 -23 -127 -102 -59 -58 -113 -106 -121
-106 -26 0 -121 70 -113 83 4 7 72 95 150 196 150 192 163 220 125 254 -12 11
-36 17 -65 17 -44 0 -59 -9 -242 -136 l-195 -136 -30 22 -30 21 60 41 c64 42
178 140 353 301 84 79 107 105 107 126 0 52 -10 52 -223 -10 -111 -32 -205
-58 -208 -56 -5 2 112 331 140 394 9 19 16 22 43 16 106 -20 209 -88 468 -309
128 -110 318 -180 544 -203 161 -16 169 -15 183 16 10 21 10 29 0 35 -44 29
-283 74 -303 57 -10 -8 -14 -8 -14 -1 0 14 -63 32 -110 32 -29 0 -57 16 -155
91 -234 178 -424 297 -543 339 -35 13 -61 28 -59 34 3 6 41 102 86 214 44 111
81 210 81 220 0 23 -103 112 -129 112 -11 0 -24 -8 -29 -17z"/>
<path d="M1057 2643 c-4 -3 -7 -17 -7 -30 0 -19 5 -23 30 -23 23 0 30 -5 30
-19 0 -11 -4 -23 -10 -26 -5 -3 -10 -25 -10 -48 0 -72 -20 -317 -35 -420 -17
-117 -51 -195 -111 -253 -41 -40 -65 -52 -298 -148 l-38 -16 21 -32 c18 -29
26 -33 64 -32 47 0 164 51 241 103 25 17 49 31 55 31 7 0 11 -44 11 -129 l0
-130 -215 -306 c-199 -283 -215 -309 -215 -349 0 -32 6 -48 24 -65 l25 -23 57
35 c47 28 61 33 76 24 13 -9 25 -9 48 0 16 6 30 7 30 3 0 -5 9 -10 20 -12 16
-2 31 -29 65 -112 53 -130 88 -186 115 -186 31 0 34 22 21 151 -9 94 -9 123 1
139 10 15 10 25 2 38 -8 12 -5 81 10 260 18 198 19 245 9 254 -37 30 8 121
219 441 83 125 148 230 145 233 -3 3 -67 -67 -143 -154 l-139 -160 -22 21
c-62 56 15 178 141 226 31 11 63 21 71 21 8 0 16 3 18 8 6 10 -32 112 -42 112
-4 0 -34 -9 -66 -20 -32 -11 -69 -20 -81 -20 -20 0 -23 4 -18 28 2 15 22 128
44 251 43 247 43 239 -18 304 -30 31 -43 37 -77 37 -23 0 -45 -3 -48 -7z m-77
-1633 c0 -132 -2 -240 -5 -240 -3 0 -32 20 -66 45 -54 39 -137 75 -176 75 -7
0 -13 6 -13 13 0 19 66 152 99 201 38 54 131 146 148 146 10 0 13 -50 13 -240z"/>
<path d="M2375 1334 c-27 -8 -57 -17 -65 -20 -10 -4 -5 -11 18 -26 28 -18 37
-19 57 -8 21 11 34 7 122 -40 55 -28 134 -80 176 -116 42 -35 81 -64 85 -64 5
0 21 14 37 30 l29 31 -19 35 c-31 57 -127 140 -192 164 -75 29 -182 35 -248
14z"/>
<path d="M1485 1069 c-34 -42 -72 -117 -129 -261 -46 -116 -47 -118 -29 -143
27 -37 87 -35 106 3 16 31 33 103 43 180 4 35 10 52 18 50 7 -2 43 -39 81 -82
122 -140 282 -249 385 -263 24 -3 46 -1 54 6 10 8 16 9 21 1 9 -14 458 -13
525 1 54 11 80 30 80 57 0 17 -201 207 -352 332 -77 65 -105 80 -121 64 -3 -4
42 -60 101 -126 181 -202 178 -199 158 -213 -17 -13 -113 -29 -242 -41 -84 -7
-206 14 -290 51 -82 36 -190 115 -274 199 l-74 76 21 50 21 50 -28 20 c-37 26
-44 26 -75 -11z"/>
</g>
</svg>
