<?xml version="1.0" standalone="no"?>
<!DOCTYPE svg PUBLIC "-//W3C//DTD SVG 20010904//EN"
 "http://www.w3.org/TR/2001/REC-SVG-20010904/DTD/svg10.dtd">
<svg version="1.0" xmlns="http://www.w3.org/2000/svg"
 width="360.000000pt" height="360.000000pt" viewBox="0 0 360.000000 360.000000"
 preserveAspectRatio="xMidYMid meet">
<metadata>
Created by potrace 1.15, written by Peter Selinger 2001-2017
</metadata>
<g transform="translate(0.000000,360.000000) scale(0.100000,-0.100000)"
fill="#000000" stroke="none">
<path d="M1980 2808 c0 -7 18 -26 40 -41 22 -16 40 -34 40 -40 0 -63 -134
-351 -259 -556 -44 -73 -81 -136 -81 -139 0 -3 13 -20 30 -37 l29 -30 -19 -64
c-11 -34 -20 -74 -20 -87 0 -30 47 -61 107 -70 42 -6 42 -6 29 -33 -25 -48
-161 -194 -285 -306 -129 -117 -137 -131 -100 -179 21 -26 62 -35 74 -16 13
21 22 7 60 -86 22 -53 45 -99 53 -102 25 -9 124 29 277 108 83 42 169 88 191
101 40 22 42 23 69 5 23 -15 26 -22 21 -52 -19 -106 -19 -98 13 -112 57 -25
87 6 111 112 29 131 -50 346 -127 346 -34 0 -37 -20 -14 -96 11 -38 19 -69 18
-70 -16 -12 -202 -64 -229 -64 -37 0 -37 1 -32 33 20 116 68 221 107 237 12 5
46 14 76 20 30 6 74 19 98 30 41 18 43 21 43 60 0 26 -5 43 -15 46 -8 3 -60
-10 -115 -30 -56 -20 -103 -36 -106 -36 -2 0 -4 9 -4 19 0 11 -4 23 -10 26
-20 13 -8 38 75 157 47 66 85 124 85 128 0 4 -9 15 -20 25 -18 16 -26 17 -73
6 -50 -11 -198 -89 -212 -111 -3 -5 -15 -10 -26 -10 -17 0 -19 8 -19 83 0 46
-4 87 -10 93 -6 6 5 30 31 69 133 199 243 408 275 523 l17 63 -43 44 c-41 42
-48 45 -97 45 -36 0 -53 -4 -53 -12z m-90 -1421 c0 -44 -31 -142 -52 -164 -16
-17 -33 -23 -65 -23 l-43 0 0 50 c0 41 5 55 32 86 61 69 128 96 128 51z"/>
<path d="M1362 2707 c-12 -13 -22 -27 -22 -31 0 -5 15 -25 34 -46 33 -36 33
-39 23 -79 -8 -30 -8 -47 -1 -59 13 -20 -28 -282 -54 -347 -24 -59 -107 -135
-193 -177 -106 -52 -219 -88 -279 -88 l-51 0 3 -40 c2 -33 9 -45 33 -60 l30
-18 210 79 c116 43 213 79 218 79 4 0 7 -31 7 -69 0 -67 -2 -71 -66 -177 -71
-117 -196 -302 -366 -541 -59 -84 -108 -158 -108 -165 0 -7 8 -23 18 -36 l18
-23 84 21 84 21 48 -22 c35 -17 64 -43 115 -108 37 -47 94 -112 126 -145 l58
-59 24 23 24 23 3 521 3 521 27 51 c34 64 126 186 213 282 56 63 66 79 63 105
-3 29 -7 33 -45 41 -26 5 -71 5 -115 -1 -40 -6 -74 -9 -76 -8 -2 2 11 98 28
214 17 116 29 220 25 230 -6 20 -99 111 -113 111 -5 0 -18 -10 -30 -23z m198
-634 c0 -12 -110 -133 -121 -133 -23 0 -4 33 49 84 54 53 72 65 72 49z m-264
-745 c-8 -246 -8 -248 0 -374 9 -150 9 -150 -175 -12 -96 72 -151 119 -151
131 0 67 270 457 317 457 13 0 14 -23 9 -202z"/>
<path d="M2525 2353 c-93 -12 -202 -39 -294 -74 -87 -32 -117 -39 -178 -39
-69 0 -73 -1 -73 -22 0 -15 13 -31 37 -47 33 -21 42 -22 112 -16 88 8 156 32
251 86 59 34 75 39 131 39 74 0 77 -2 118 -54 l31 -39 0 -391 c0 -215 -5 -484
-10 -597 -12 -269 -44 -479 -74 -479 -7 0 -56 41 -108 90 -92 86 -138 111
-138 75 0 -22 252 -396 264 -392 6 1 30 40 53 86 44 88 85 224 130 427 l27
123 -23 49 -23 49 23 148 c21 144 22 148 4 162 -17 12 -17 13 -2 13 16 0 15 4
-5 40 l-23 41 24 18 24 18 -21 79 -22 78 32 173 32 173 -19 36 c-27 50 -92
122 -126 139 -26 14 -85 17 -154 8z"/>
</g>
</svg>
