<?xml version="1.0" standalone="no"?>
<!DOCTYPE svg PUBLIC "-//W3C//DTD SVG 20010904//EN"
 "http://www.w3.org/TR/2001/REC-SVG-20010904/DTD/svg10.dtd">
<svg version="1.0" xmlns="http://www.w3.org/2000/svg"
 width="360.000000pt" height="360.000000pt" viewBox="0 0 360.000000 360.000000"
 preserveAspectRatio="xMidYMid meet">
<metadata>
Created by potrace 1.15, written by Peter Selinger 2001-2017
</metadata>
<g transform="translate(0.000000,360.000000) scale(0.100000,-0.100000)"
fill="#000000" stroke="none">
<path d="M1967 3048 c-42 -44 -87 -129 -87 -165 0 -14 7 -23 19 -25 16 -2 0
-30 -97 -163 -91 -125 -118 -155 -120 -137 -3 18 -10 22 -38 22 -31 0 -36 -4
-64 -60 -16 -33 -30 -62 -30 -65 0 -3 27 9 59 27 61 33 85 33 63 -2 -18 -30
-14 -62 11 -93 l22 -28 80 30 c99 38 135 40 135 8 0 -13 -12 -47 -26 -76 -24
-48 -57 -80 -147 -143 -13 -9 -27 -32 -31 -50 -14 -69 -167 -183 -328 -243
-27 -10 -48 -21 -48 -24 0 -4 13 -20 29 -35 36 -35 48 -32 214 47 70 33 130
57 134 54 9 -9 -89 -201 -156 -304 -80 -123 -159 -206 -233 -243 -34 -16 -72
-30 -85 -30 -19 0 -23 -5 -23 -30 0 -29 1 -30 48 -30 41 0 59 7 112 42 145 98
309 280 367 408 106 233 203 398 255 435 53 36 107 9 258 -130 220 -202 455
-316 695 -339 l70 -7 19 32 c10 17 14 34 10 38 -5 4 -39 13 -76 19 -216 38
-489 178 -735 377 -63 51 -83 72 -83 91 0 15 7 27 18 30 49 15 81 35 87 53 5
18 15 21 56 21 102 0 175 34 167 77 -8 43 -125 15 -360 -86 -62 -26 -115 -44
-116 -39 -4 9 17 33 174 208 121 134 166 203 172 262 5 58 -10 83 -40 67 -17
-9 -40 -50 -62 -114 -7 -18 -9 -18 -19 -4 -11 15 -35 2 -207 -102 -106 -66
-200 -119 -207 -119 -7 0 61 111 151 246 164 245 165 247 148 273 -31 51 -45
61 -80 61 -28 0 -43 -8 -75 -42z m147 -487 c8 -13 -44 -87 -74 -105 -16 -9
-40 -16 -54 -16 -52 0 -21 55 57 100 56 32 63 34 71 21z"/>
<path d="M1067 2812 c-21 -23 -22 -62 -3 -62 40 0 109 -103 85 -127 -15 -15
-38 -177 -27 -190 7 -9 7 -13 -1 -13 -7 0 -11 -20 -11 -53 0 -150 -163 -293
-440 -384 -47 -15 -87 -29 -90 -31 -12 -8 68 -61 92 -62 57 0 185 58 310 142
89 59 88 60 88 -98 l0 -136 -62 -76 c-158 -196 -306 -354 -371 -396 -32 -22
-34 -33 -6 -62 l20 -21 89 33 90 34 53 -24 53 -23 28 -85 c33 -102 57 -144 91
-160 22 -10 29 -8 49 11 21 20 24 33 31 154 11 209 12 241 4 264 -11 30 17
255 42 338 36 120 142 309 255 457 26 34 44 67 44 83 0 22 -18 6 -116 -107
-174 -199 -185 -210 -191 -205 -11 11 10 87 34 124 13 21 51 58 84 82 32 24
59 47 59 51 0 21 -45 44 -95 48 l-55 4 0 67 c0 85 23 192 55 257 14 28 25 61
25 73 0 31 -50 76 -107 95 -60 21 -86 20 -106 -2z m-1 -1209 c-4 -21 -9 -105
-13 -186 -7 -169 0 -162 -99 -91 -53 38 -64 51 -64 75 0 35 89 189 126 218 42
33 58 28 50 -16z"/>
<path d="M2065 1967 l7 -63 -161 -193 c-139 -166 -161 -198 -161 -227 0 -19 3
-34 8 -34 4 0 88 43 187 95 99 52 183 94 188 92 5 -1 -42 -63 -103 -137 -62
-74 -121 -154 -133 -176 -21 -44 -18 -74 7 -74 8 0 92 27 186 61 95 33 174 58
176 56 8 -8 -75 -206 -132 -317 -65 -128 -142 -245 -241 -367 -78 -97 -246
-262 -319 -315 -41 -29 -55 -48 -36 -48 17 0 171 94 237 145 81 62 239 221
306 310 76 100 174 253 238 376 52 99 61 123 61 168 0 49 -3 56 -48 103 l-48
50 -58 -12 c-62 -13 -91 -8 -83 14 3 7 33 53 68 101 54 77 61 91 53 114 -11
30 -57 50 -121 50 -24 1 -43 3 -43 6 0 3 16 34 35 70 52 98 54 125 14 174 -24
31 -39 41 -61 41 l-30 0 7 -63z"/>
</g>
</svg>
