<?xml version="1.0" standalone="no"?>
<!DOCTYPE svg PUBLIC "-//W3C//DTD SVG 20010904//EN"
 "http://www.w3.org/TR/2001/REC-SVG-20010904/DTD/svg10.dtd">
<svg version="1.0" xmlns="http://www.w3.org/2000/svg"
 width="360.000000pt" height="360.000000pt" viewBox="0 0 360.000000 360.000000"
 preserveAspectRatio="xMidYMid meet">
<metadata>
Created by potrace 1.15, written by Peter Selinger 2001-2017
</metadata>
<g transform="translate(0.000000,360.000000) scale(0.100000,-0.100000)"
fill="#000000" stroke="none">
<path d="M1922 2777 l-22 -23 33 -32 33 -32 -22 -277 c-13 -165 -18 -282 -13
-287 30 -32 -5 -121 -67 -174 -24 -20 -44 -45 -44 -55 0 -49 -72 -127 -157
-171 -27 -13 -81 -34 -121 -46 -84 -26 -90 -41 -39 -95 l32 -34 52 18 c29 10
77 34 107 54 31 21 62 37 70 37 10 0 -21 -53 -79 -139 -84 -123 -94 -142 -86
-164 20 -51 43 -44 160 47 59 47 116 86 126 86 16 0 17 -2 3 -17 -9 -10 -21
-36 -28 -58 -28 -88 -121 -166 -295 -250 -122 -59 -295 -125 -325 -125 -19 0
-20 7 -20 98 0 53 5 136 11 185 8 65 8 96 -1 123 -9 27 -9 50 0 100 10 50 10
67 0 79 -10 11 16 52 139 225 83 116 151 214 151 218 0 4 -16 24 -36 45 l-35
38 -74 -12 c-40 -6 -77 -10 -82 -8 -5 2 -1 86 8 198 20 222 16 250 -40 288
-24 16 -49 23 -82 23 -43 0 -49 -3 -49 -21 0 -12 16 -48 36 -81 l37 -61 -6
-126 c-8 -144 -23 -246 -43 -278 -16 -26 -132 -121 -240 -196 -93 -65 -212
-124 -271 -135 l-41 -7 44 -49 43 -50 63 18 c73 20 167 68 279 141 l80 53 24
-49 c24 -47 25 -49 9 -96 -36 -107 -130 -272 -305 -539 -123 -187 -127 -218
-29 -231 40 -6 48 -14 183 -179 128 -158 144 -174 172 -174 44 0 55 14 42 56
-7 25 -7 48 1 85 7 28 12 90 12 139 l0 89 48 7 c63 9 185 47 283 90 107 45
115 45 89 -6 -11 -21 -20 -48 -20 -58 0 -43 72 -102 125 -102 33 0 32 -21 -3
-47 -39 -29 -191 -104 -279 -138 -61 -24 -73 -32 -73 -51 0 -21 3 -22 38 -17
58 9 241 75 427 153 162 68 173 71 237 68 59 -3 82 -11 210 -76 78 -40 223
-122 321 -182 98 -61 182 -110 186 -110 4 0 20 13 36 30 26 27 27 32 15 54
-27 52 -85 90 -392 256 l-316 171 53 80 c29 43 65 113 80 154 21 56 33 77 49
80 12 3 74 13 139 23 101 16 127 17 184 6 47 -9 71 -9 83 -2 13 9 40 2 115
-28 l97 -38 24 27 c13 16 24 36 24 46 0 23 -44 63 -99 91 l-44 22 -294 -22
-293 -22 -35 21 -36 21 -54 -45 c-47 -38 -121 -72 -133 -61 -2 2 2 56 9 119
l13 116 38 9 c22 6 40 6 44 1 3 -5 23 -9 45 -9 48 0 219 76 219 97 0 25 -44
83 -60 78 -22 -7 -277 -65 -284 -65 -3 0 -6 33 -6 73 0 67 2 75 28 99 31 30
159 114 250 165 34 19 62 38 62 42 0 4 -9 16 -20 26 -19 17 -23 17 -87 1 -38
-9 -93 -32 -125 -51 -104 -64 -95 -41 33 96 68 72 144 153 168 181 l44 50 -17
34 c-20 43 -81 73 -148 74 -39 0 -50 -4 -68 -27 l-21 -27 35 -35 c34 -35 34
-37 21 -75 -17 -48 -82 -116 -111 -116 -21 0 -21 0 -5 46 15 43 15 46 -2 59
-17 12 -16 21 10 199 l27 186 -60 54 c-65 61 -90 67 -122 33z m-512 -775 c0
-4 -34 -41 -75 -82 l-75 -74 0 55 c0 59 12 78 60 98 30 12 90 14 90 3z m-286
-1241 c-3 -3 -20 12 -37 34 -58 73 -159 174 -188 187 -16 7 -29 20 -29 28 0
32 74 170 163 303 l92 137 3 -341 c1 -188 0 -345 -4 -348z m1006 472 c0 -38
-52 -127 -107 -184 l-57 -60 -105 3 -106 3 4 30 c11 94 102 165 266 206 91 23
105 23 105 2z"/>
<path d="M1587 2192 c-21 -23 -21 -44 -1 -112 12 -41 29 -67 74 -112 32 -32
63 -58 68 -58 6 0 29 23 51 51 35 44 41 59 41 98 0 58 -12 73 -51 59 -32 -11
-59 4 -113 61 -34 36 -47 38 -69 13z"/>
</g>
</svg>
