<?xml version="1.0" standalone="no"?>
<!DOCTYPE svg PUBLIC "-//W3C//DTD SVG 20010904//EN"
 "http://www.w3.org/TR/2001/REC-SVG-20010904/DTD/svg10.dtd">
<svg version="1.0" xmlns="http://www.w3.org/2000/svg"
 width="360.000000pt" height="360.000000pt" viewBox="0 0 360.000000 360.000000"
 preserveAspectRatio="xMidYMid meet">
<metadata>
Created by potrace 1.15, written by Peter Selinger 2001-2017
</metadata>
<g transform="translate(0.000000,360.000000) scale(0.100000,-0.100000)"
fill="#000000" stroke="none">
<path d="M1982 2888 c-8 -8 -9 -15 0 -25 8 -10 8 -35 -1 -97 -27 -192 -112
-362 -279 -553 -41 -47 -61 -63 -81 -63 -78 -1 -213 -104 -336 -257 -47 -60
-91 -108 -98 -108 -9 0 -12 26 -11 92 2 80 5 98 27 136 31 53 80 87 167 116
112 37 134 65 85 111 l-24 23 -111 -43 c-61 -23 -113 -40 -116 -37 -3 3 12
125 33 271 44 307 45 296 -52 304 -63 5 -95 -13 -95 -55 0 -20 5 -23 34 -23
33 0 35 -1 30 -32 -21 -138 -39 -339 -31 -347 14 -14 -18 -127 -47 -172 -31
-47 -136 -132 -236 -192 -58 -34 -88 -46 -133 -50 -88 -9 -112 -40 -63 -86 24
-22 28 -23 105 -12 93 12 155 40 237 107 50 41 59 45 80 35 29 -13 29 -24 9
-175 -24 -183 -62 -283 -118 -316 -18 -11 -38 -33 -45 -49 -7 -16 -34 -44 -59
-60 -47 -31 -190 -91 -218 -91 -12 0 -6 -18 24 -79 l40 -79 43 8 c26 5 51 18
64 33 l22 25 35 -23 c63 -43 130 -151 172 -275 21 -62 23 -65 57 -68 30 -3 36
0 41 20 16 66 18 200 7 400 -11 194 -10 234 3 313 19 109 69 213 130 273 l43
42 105 -88 c64 -54 105 -96 107 -110 2 -15 -17 -48 -60 -102 -61 -78 -80 -91
-93 -69 -4 6 -13 -1 -21 -17 -14 -26 -13 -29 18 -61 17 -18 40 -33 50 -33 23
0 110 109 144 180 l27 58 130 -44 131 -44 23 21 c32 31 20 47 -100 125 -56 38
-104 69 -106 70 -2 2 30 81 72 176 52 121 77 191 81 231 17 161 116 316 281
442 41 32 78 55 81 52 4 -4 -11 -55 -33 -114 -81 -217 -138 -455 -173 -728
-26 -197 -48 -735 -32 -777 8 -23 8 -35 -1 -49 -9 -14 -9 -24 -1 -37 6 -9 9
-31 7 -48 -10 -66 53 -440 79 -471 15 -18 68 -17 68 2 0 8 -14 101 -30 206
-21 131 -28 194 -20 199 7 4 7 23 0 60 -14 71 -14 70 20 70 17 0 135 30 263
66 l232 67 169 -21 168 -21 19 22 c25 30 24 34 -14 72 -61 61 -163 68 -428 30
-95 -14 -174 -23 -177 -20 -3 3 53 65 124 138 140 142 204 218 235 278 20 40
26 114 9 124 -5 3 -56 -8 -114 -25 -57 -16 -109 -30 -116 -30 -27 0 29 146 89
234 46 66 38 106 -20 106 -56 0 -59 5 -59 104 0 59 5 98 13 107 6 9 41 28 77
42 141 59 178 91 145 127 -16 18 -28 20 -79 18 -58 -3 -62 -5 -75 -35 -8 -18
-18 -33 -23 -33 -4 0 -29 42 -54 93 -25 50 -48 94 -50 96 -2 2 -13 -4 -24 -14
-18 -16 -20 -31 -20 -149 l0 -131 -110 -62 c-60 -35 -112 -63 -115 -63 -12 0
-3 113 15 186 37 149 126 303 283 488 l39 45 -18 31 c-10 16 -26 30 -35 30
-45 0 -153 -45 -229 -95 -46 -30 -89 -55 -96 -55 -6 0 -29 50 -50 110 -22 61
-41 110 -44 110 -4 0 -11 -5 -18 -12z m-272 -825 c0 -5 -21 -70 -47 -145 l-48
-138 -54 0 c-50 0 -60 4 -128 56 l-74 55 22 37 c13 20 28 45 33 55 7 11 23 17
47 17 20 0 79 16 130 34 97 36 119 41 119 29z m650 -60 l0 -68 -126 -98 c-121
-95 -125 -100 -108 -118 24 -27 39 -24 115 21 138 82 132 47 -27 -174 l-126
-175 18 -30 c10 -17 22 -31 27 -31 5 0 47 14 94 30 65 23 89 28 99 19 23 -19
-8 -64 -60 -85 -42 -18 -43 -19 -29 -41 14 -21 14 -26 -1 -48 -20 -31 -129
-135 -161 -155 -13 -8 -27 -11 -30 -8 -4 3 4 185 18 405 26 443 26 440 104
515 38 37 156 107 181 108 8 0 12 -20 12 -67z m-1313 -648 c7 -21 7 -35 1 -37
-5 -2 3 -41 17 -87 25 -79 26 -83 8 -96 -15 -12 -16 -17 -5 -34 7 -13 8 -21 2
-21 -5 0 -10 -9 -10 -20 0 -39 -29 -19 -93 67 l-65 87 44 88 c37 73 48 88 67
88 18 0 26 -8 34 -35z"/>
</g>
</svg>
