<?xml version="1.0" standalone="no"?>
<!DOCTYPE svg PUBLIC "-//W3C//DTD SVG 20010904//EN"
 "http://www.w3.org/TR/2001/REC-SVG-20010904/DTD/svg10.dtd">
<svg version="1.0" xmlns="http://www.w3.org/2000/svg"
 width="360.000000pt" height="360.000000pt" viewBox="0 0 360.000000 360.000000"
 preserveAspectRatio="xMidYMid meet">
<metadata>
Created by potrace 1.15, written by Peter Selinger 2001-2017
</metadata>
<g transform="translate(0.000000,360.000000) scale(0.100000,-0.100000)"
fill="#000000" stroke="none">
<path d="M1382 2639 c-18 -29 -15 -48 19 -90 30 -38 30 -41 20 -89 -14 -65
-14 -123 0 -137 7 -7 1 -60 -21 -184 -26 -142 -36 -177 -54 -192 -111 -91
-508 -327 -550 -327 -22 0 -29 -19 -15 -37 15 -18 92 -53 116 -53 8 0 103 54
211 120 108 66 204 120 214 120 16 0 18 -10 18 -83 l0 -82 -205 -324 c-116
-184 -205 -334 -205 -347 0 -29 20 -40 87 -47 85 -10 148 -49 266 -168 60 -60
113 -109 117 -109 22 0 28 40 20 145 -12 143 -12 603 -1 773 l9 133 69 137
c171 343 376 565 528 575 l40 2 -1 -110 c0 -64 -6 -127 -13 -149 -14 -42 -95
-136 -116 -136 -7 0 -15 18 -19 39 -9 59 -74 94 -104 58 -18 -22 -48 -163 -73
-341 l-23 -166 36 -37 c46 -45 52 -42 108 71 43 86 81 136 103 136 7 0 39 -27
71 -59 l59 -60 -107 -180 -106 -180 34 -73 c21 -45 45 -122 61 -197 35 -162
78 -280 115 -316 l30 -28 107 51 c104 49 206 82 253 82 21 0 22 -3 14 -42 -12
-64 -8 -113 12 -155 34 -69 94 -52 137 39 49 107 119 446 97 473 -8 9 -8 15 0
20 6 4 10 73 10 190 l0 184 -33 34 c-34 34 -77 51 -157 62 -90 13 -224 -50
-419 -197 -104 -79 -131 -96 -131 -84 0 5 269 452 295 489 11 16 17 11 55 -48
48 -73 59 -77 127 -44 137 66 247 334 312 761 14 90 15 120 6 128 -20 17 -79
38 -148 54 l-67 16 -199 -155 c-109 -85 -204 -155 -210 -155 -7 0 -11 22 -11
58 0 49 -4 62 -24 81 -18 17 -30 20 -52 16 -57 -13 -110 -37 -199 -92 -77 -47
-99 -67 -155 -140 -81 -107 -188 -223 -205 -223 -29 0 -31 28 -21 271 6 135
10 254 8 263 -3 15 -50 44 -106 65 -17 7 -25 5 -34 -10z m1259 -130 c35 -12
65 -23 67 -24 5 -4 -48 -234 -79 -344 -62 -216 -116 -311 -178 -311 -27 0 -34
6 -53 45 l-22 45 22 92 c27 112 29 184 5 210 -51 56 -183 -24 -183 -111 l0
-38 40 10 c22 6 42 8 46 4 4 -3 -24 -83 -62 -177 -61 -151 -72 -170 -92 -170
l-23 0 3 173 3 173 34 69 c25 51 58 92 125 159 78 78 254 216 275 216 4 0 36
-10 72 -21z m-86 -1043 c50 -21 75 -68 75 -141 -1 -72 -36 -445 -44 -452 -3
-3 -19 0 -37 6 -57 20 -199 -13 -318 -73 -29 -15 -58 -26 -66 -24 -7 2 52 81
136 183 82 99 149 183 149 187 0 4 -11 19 -24 34 l-23 28 -154 -52 c-85 -29
-162 -52 -171 -52 -14 0 -18 8 -18 35 0 31 10 45 73 108 77 78 148 129 265
189 80 42 105 45 157 24z m-1224 -123 c8 -20 8 -50 1 -101 -7 -50 -7 -86 0
-110 10 -35 5 -205 -8 -279 l-6 -31 -120 76 -120 76 5 39 c3 22 20 68 37 104
38 78 168 253 187 253 7 0 18 -12 24 -27z m857 -388 c-28 -56 -36 -65 -59 -65
-24 0 -28 5 -34 41 -8 47 -7 48 48 71 77 31 81 26 45 -47z"/>
</g>
</svg>
