<?xml version="1.0" standalone="no"?>
<!DOCTYPE svg PUBLIC "-//W3C//DTD SVG 20010904//EN"
 "http://www.w3.org/TR/2001/REC-SVG-20010904/DTD/svg10.dtd">
<svg version="1.0" xmlns="http://www.w3.org/2000/svg"
 width="360.000000pt" height="360.000000pt" viewBox="0 0 360.000000 360.000000"
 preserveAspectRatio="xMidYMid meet">
<metadata>
Created by potrace 1.15, written by Peter Selinger 2001-2017
</metadata>
<g transform="translate(0.000000,360.000000) scale(0.100000,-0.100000)"
fill="#000000" stroke="none">
<path d="M1465 2876 c-44 -17 -75 -48 -75 -77 0 -28 22 -33 95 -19 64 12 66
12 106 -14 52 -35 103 -33 132 6 28 38 17 75 -31 95 -53 22 -178 27 -227 9z"/>
<path d="M2107 2872 c-20 -22 -22 -42 -4 -42 28 0 47 -36 47 -86 0 -97 -86
-433 -236 -926 -4 -15 1 -18 27 -18 26 0 55 17 130 75 54 41 100 75 103 75 3
0 6 -5 6 -11 0 -6 14 -30 31 -54 l31 -44 -21 -178 c-12 -98 -21 -181 -21 -185
0 -18 -30 -5 -90 39 -86 63 -206 131 -252 144 -27 7 -49 24 -79 63 l-42 53
-41 -8 c-22 -5 -51 -11 -63 -14 -14 -3 -23 -1 -23 6 0 7 19 63 41 125 41 112
42 114 78 120 103 19 201 74 201 112 0 7 -34 51 -75 97 l-74 84 -21 -29 -22
-30 31 -42 c17 -23 31 -53 31 -67 0 -23 -7 -28 -58 -43 -49 -15 -219 -105
-304 -162 -27 -18 -28 -18 -28 1 0 46 111 201 305 426 123 144 127 149 109
168 -9 10 -23 19 -31 19 -8 0 -64 -35 -126 -79 -146 -102 -262 -174 -367 -228
l-84 -43 -46 45 -45 45 -65 -20 c-36 -11 -71 -20 -77 -20 -19 0 -16 117 7 305
29 231 28 254 -13 293 -35 34 -80 42 -118 22 -18 -10 -18 -13 16 -80 45 -89
45 -116 -1 -326 l-35 -166 25 -27 26 -27 -16 -54 c-30 -102 -178 -208 -399
-285 -44 -16 -84 -32 -89 -37 -6 -5 4 -22 24 -43 30 -31 40 -35 85 -35 68 0
135 34 219 112 65 59 67 60 86 43 18 -16 20 -32 20 -164 l0 -146 -91 -120
c-162 -214 -369 -520 -369 -547 0 -19 62 -78 83 -78 26 0 67 22 67 36 0 7 -9
16 -20 19 -16 5 -20 15 -20 47 0 90 263 468 326 468 28 0 27 4 13 -80 -8 -48
-7 -86 1 -143 10 -60 10 -80 0 -91 -9 -12 -9 -45 0 -151 7 -75 10 -139 6 -142
-3 -3 -28 -1 -55 4 -35 7 -48 7 -46 -1 50 -165 80 -226 112 -226 8 0 28 9 44
21 l29 20 0 179 c0 114 -4 181 -10 185 -7 5 -8 11 -1 19 5 6 11 126 13 281 l3
270 31 65 c17 36 57 98 88 138 78 101 70 119 -19 43 l-70 -59 -3 56 c-4 80 23
192 59 242 46 63 84 75 196 62 91 -12 92 -12 163 19 69 29 73 29 86 12 7 -10
14 -21 14 -24 0 -5 -34 -56 -252 -376 l-70 -102 18 -31 c11 -18 27 -30 39 -30
26 0 107 48 199 118 60 45 96 63 96 48 0 -3 -25 -80 -55 -171 -65 -194 -119
-398 -134 -508 -6 -43 -11 -170 -11 -281 0 -191 1 -204 20 -221 20 -18 21 -18
42 3 21 21 22 24 9 97 -10 59 -10 79 -1 91 9 10 10 25 2 56 -8 29 -8 57 0 95
l11 53 56 0 56 0 100 100 c62 62 107 100 120 100 20 0 21 -3 11 -59 -9 -54 2
-213 31 -443 6 -54 -9 -64 -42 -28 -19 21 -69 27 -80 10 -8 -13 49 -122 86
-165 26 -29 38 -35 70 -35 26 0 42 5 45 15 3 8 -4 130 -16 271 -12 141 -20
257 -18 259 2 1 48 25 103 54 122 62 226 138 263 191 40 58 57 53 137 -40 125
-143 256 -246 410 -321 122 -59 230 -88 352 -96 80 -5 95 -3 123 14 l32 20
-74 45 c-103 64 -112 68 -155 68 -56 0 -174 35 -256 77 -132 66 -242 148 -378
281 l-76 74 17 46 c26 67 41 180 43 323 2 122 1 125 -31 192 -21 42 -31 75
-27 87 17 55 170 147 368 221 97 36 109 55 63 98 l-23 22 -58 -20 c-74 -26
-202 -99 -383 -217 -79 -52 -150 -94 -159 -94 -23 0 -14 35 57 204 88 216 114
323 107 450 -3 56 -10 113 -16 128 -24 62 -81 87 -114 50z m-418 -1267 c7 -3
11 -41 11 -89 l0 -82 -97 -12 c-126 -16 -133 -15 -133 6 0 74 59 155 143 197
49 24 52 25 59 6 3 -10 11 -22 17 -26z m310 -105 c132 -92 133 -93 128 -126
-12 -74 -103 -167 -249 -254 -36 -22 -69 -40 -72 -40 -3 0 -6 11 -6 24 0 14
-4 28 -10 31 -6 4 -10 90 -10 226 0 218 0 220 23 229 37 16 57 7 196 -90z
m-299 -158 c0 -9 -46 -64 -103 -120 l-103 -103 -53 12 -54 11 6 78 c3 44 8 83
12 89 3 6 29 11 57 11 39 0 57 -5 74 -21 31 -29 71 -19 80 19 10 40 12 42 50
42 26 0 34 -4 34 -18z"/>
</g>
</svg>
