<?xml version="1.0" standalone="no"?>
<!DOCTYPE svg PUBLIC "-//W3C//DTD SVG 20010904//EN"
 "http://www.w3.org/TR/2001/REC-SVG-20010904/DTD/svg10.dtd">
<svg version="1.0" xmlns="http://www.w3.org/2000/svg"
 width="360.000000pt" height="360.000000pt" viewBox="0 0 360.000000 360.000000"
 preserveAspectRatio="xMidYMid meet">
<metadata>
Created by potrace 1.15, written by Peter Selinger 2001-2017
</metadata>
<g transform="translate(0.000000,360.000000) scale(0.100000,-0.100000)"
fill="#000000" stroke="none">
<path d="M1207 2732 c-24 -26 -22 -35 20 -98 l36 -55 -36 -132 c-20 -73 -40
-145 -43 -160 -14 -60 -103 -120 -235 -156 -39 -11 -74 -22 -76 -25 -2 -2 8
-18 22 -35 25 -29 32 -31 89 -31 35 0 84 6 109 14 25 7 48 11 51 8 4 -3 6 -28
6 -56 0 -28 4 -68 9 -88 l9 -37 -177 -114 c-97 -63 -181 -117 -188 -121 -6 -3
-37 12 -69 34 -32 22 -64 40 -71 40 -8 0 -30 -12 -49 -27 l-36 -27 35 -30 c31
-27 38 -44 61 -139 34 -139 81 -286 101 -314 24 -34 53 -28 148 32 48 30 87
52 87 50 0 -3 -54 -118 -120 -256 -66 -139 -120 -253 -120 -255 0 -2 16 -4 35
-4 33 0 39 6 146 158 61 86 115 161 120 166 5 6 17 2 29 -9 18 -16 20 -30 19
-139 0 -67 -4 -146 -8 -176 -5 -32 -5 -60 1 -67 6 -7 5 -19 -3 -31 -10 -16
-10 -24 -1 -34 6 -8 9 -23 6 -34 -3 -13 5 -29 24 -47 l29 -28 22 27 c23 30 30
121 10 141 -8 8 -8 17 0 31 7 13 11 86 11 189 0 159 1 169 23 196 22 28 23 28
70 16 26 -6 65 -24 87 -40 30 -22 51 -29 84 -29 67 0 79 39 28 93 -33 35 -103
56 -209 64 l-83 6 0 87 c0 52 6 105 16 132 23 68 112 150 133 121 3 -4 40 -19
81 -32 125 -39 231 -101 335 -194 l50 -45 -25 -48 c-23 -44 -41 -58 -242 -183
-120 -75 -218 -142 -218 -150 0 -24 153 -9 227 22 82 33 188 105 273 184 l69
64 103 -79 c207 -159 404 -279 533 -325 79 -27 171 -42 179 -28 3 5 23 0 43
-10 22 -10 73 -21 121 -25 77 -7 84 -5 107 16 14 13 25 31 25 41 0 22 -51 45
-120 54 -30 4 -104 23 -165 42 -309 98 -545 222 -703 368 l-66 62 28 170 29
169 -25 105 -25 105 76 82 76 82 116 29 c64 16 137 38 163 49 42 19 46 24 46
55 0 23 -8 41 -25 57 -22 21 -27 22 -71 11 -87 -22 -195 -84 -396 -228 -118
-84 -144 -97 -134 -65 89 287 146 527 146 610 0 67 -35 102 -103 102 -52 0
-131 -33 -124 -53 4 -14 40 -25 90 -26 34 -1 37 -3 37 -31 0 -17 -11 -79 -25
-138 -50 -214 -121 -410 -158 -441 -15 -11 -18 -10 -26 11 -5 14 -24 37 -42
53 -32 26 -37 27 -119 23 -63 -4 -104 -13 -160 -35 -41 -17 -78 -29 -82 -26
-5 2 -8 35 -8 73 l0 69 75 63 c56 48 75 69 75 89 0 35 -18 49 -62 49 -46 0
-45 -8 -18 192 23 164 21 177 -36 232 -42 41 -54 44 -77 18z m263 -864 c0 -36
-171 -208 -207 -208 -9 0 -13 16 -13 53 0 44 5 58 32 91 17 21 50 47 72 57 47
21 116 25 116 7z m169 -78 c-17 -47 -34 -89 -40 -95 -6 -6 -19 0 -36 17 l-26
26 63 71 c35 39 64 70 66 68 1 -1 -11 -41 -27 -87z m239 -77 c15 -34 15 -113
0 -220 -10 -78 -13 -83 -35 -83 -25 0 -191 126 -192 145 -1 12 145 158 174
173 30 17 39 14 53 -15z m-742 -35 c12 -20 5 -78 -16 -117 -25 -48 -92 -112
-164 -155 -84 -51 -96 -49 -96 16 0 97 51 163 180 237 59 33 84 38 96 19z
m424 -83 c0 -24 -3 -25 -55 -25 -69 0 -77 24 -12 38 64 15 67 14 67 -13z"/>
</g>
</svg>
