<?xml version="1.0" standalone="no"?>
<!DOCTYPE svg PUBLIC "-//W3C//DTD SVG 20010904//EN"
 "http://www.w3.org/TR/2001/REC-SVG-20010904/DTD/svg10.dtd">
<svg version="1.0" xmlns="http://www.w3.org/2000/svg"
 width="360.000000pt" height="360.000000pt" viewBox="0 0 360.000000 360.000000"
 preserveAspectRatio="xMidYMid meet">
<metadata>
Created by potrace 1.15, written by Peter Selinger 2001-2017
</metadata>
<g transform="translate(0.000000,360.000000) scale(0.100000,-0.100000)"
fill="#000000" stroke="none">
<path d="M1721 2639 l-24 -20 41 -34 c52 -46 92 -125 92 -185 0 -88 -140 -532
-216 -681 -30 -60 -32 -70 -22 -105 12 -46 25 -64 45 -64 12 0 149 100 291
213 9 7 18 5 31 -9 18 -18 17 -26 -5 -224 -12 -113 -23 -206 -23 -206 -1 -1
-18 2 -39 7 -57 13 -111 37 -185 85 -63 41 -72 44 -137 44 -39 0 -70 3 -70 8
0 4 9 39 19 77 11 42 15 79 10 92 -12 32 -56 61 -126 83 -97 30 -158 26 -259
-15 -143 -57 -141 -32 9 118 144 144 310 349 305 379 -5 32 -50 60 -119 74
-62 13 -62 13 -130 -22 -84 -42 -99 -43 -99 -6 0 51 -29 127 -59 156 -22 21
-43 30 -78 33 -45 5 -49 3 -66 -26 -18 -31 -18 -31 11 -69 48 -61 62 -97 62
-159 0 -67 -24 -125 -77 -192 -57 -72 -126 -141 -141 -141 -17 0 -50 76 -58
134 -4 25 -10 46 -14 46 -4 0 -20 -18 -35 -40 -26 -38 -27 -44 -23 -135 5
-113 23 -148 79 -153 31 -2 42 5 119 83 46 47 88 85 92 85 16 0 7 -35 -16 -59
-22 -24 -23 -30 -15 -101 13 -124 11 -170 -6 -170 -30 0 -94 -40 -154 -95 -60
-56 -60 -56 -100 -45 -38 10 -106 5 -130 -9 -8 -6 -9 -26 -1 -77 5 -38 10
-178 10 -312 l0 -242 33 -30 c38 -35 48 -36 70 -12 13 15 15 25 7 53 -12 42
-13 102 -1 115 5 5 5 59 1 129 -5 66 -9 152 -9 190 l-1 70 223 122 c270 149
405 213 444 213 95 0 143 -149 143 -445 0 -163 -41 -419 -72 -450 -6 -7 -27 9
-63 48 -102 108 -122 62 -43 -98 45 -93 94 -134 140 -120 37 12 95 171 114
312 3 29 9 53 11 53 2 0 23 -5 47 -11 30 -7 54 -8 82 0 57 15 153 76 232 147
l68 62 39 -20 c21 -11 84 -58 139 -105 267 -225 483 -339 661 -350 115 -7 336
29 334 54 0 5 -18 23 -41 41 -38 30 -45 32 -118 32 -280 0 -607 135 -837 345
-39 36 -76 65 -82 65 -15 0 -15 -7 20 277 l31 252 -21 62 c-11 35 -18 66 -14
69 5 4 29 15 55 24 26 10 56 28 66 40 13 17 36 26 86 35 114 20 226 68 226 96
-1 6 -16 28 -34 49 l-34 39 -78 -28 c-128 -45 -321 -141 -425 -210 -84 -56
-119 -74 -119 -62 0 2 14 43 31 93 82 240 141 460 146 544 l6 86 -52 46 c-47
42 -122 78 -160 78 -9 -1 -27 -10 -40 -21z m-461 -449 c0 -5 9 -10 20 -10 11
0 20 -5 20 -10 0 -16 -48 -109 -81 -157 -37 -54 -124 -143 -140 -143 -8 0 -10
20 -7 73 5 80 34 156 76 201 39 41 112 71 112 46z m393 -845 c58 -27 190 -129
195 -149 5 -23 -90 -137 -150 -182 -37 -27 -78 -47 -112 -55 -87 -19 -87 -20
-55 130 20 99 25 141 18 169 -5 20 -9 54 -9 75 0 35 2 37 31 37 16 0 54 -11
82 -25z"/>
<path d="M1032 1354 c-69 -18 -112 -40 -137 -70 -19 -22 -24 -23 -57 -12 -59
18 -67 5 -54 -89 9 -60 8 -111 -2 -216 l-14 -138 23 -25 c12 -13 27 -24 33
-24 6 0 23 51 39 114 52 218 120 335 186 324 19 -3 16 -12 -34 -133 l-55 -129
22 -23 c40 -43 61 -32 192 100 94 94 131 139 159 193 20 40 37 77 37 83 0 21
-45 11 -90 -19 -25 -16 -50 -30 -56 -30 -7 0 -15 16 -18 36 -14 72 -62 89
-174 58z"/>
</g>
</svg>
