<?xml version="1.0" standalone="no"?>
<!DOCTYPE svg PUBLIC "-//W3C//DTD SVG 20010904//EN"
 "http://www.w3.org/TR/2001/REC-SVG-20010904/DTD/svg10.dtd">
<svg version="1.0" xmlns="http://www.w3.org/2000/svg"
 width="360.000000pt" height="360.000000pt" viewBox="0 0 360.000000 360.000000"
 preserveAspectRatio="xMidYMid meet">
<metadata>
Created by potrace 1.15, written by Peter Selinger 2001-2017
</metadata>
<g transform="translate(0.000000,360.000000) scale(0.100000,-0.100000)"
fill="#000000" stroke="none">
<path d="M1487 2412 c-9 -10 -17 -25 -17 -33 0 -21 46 -62 110 -97 63 -35 272
-122 293 -122 18 0 47 32 47 52 0 9 -20 41 -46 72 -33 41 -52 56 -70 56 -71 0
-215 43 -295 87 -3 2 -13 -5 -22 -15z"/>
<path d="M2142 1940 c-342 -89 -455 -131 -956 -361 -256 -118 -465 -218 -463
-224 6 -20 76 -45 133 -48 52 -1 71 4 156 45 53 25 141 76 196 112 55 36 106
66 112 66 6 0 81 -57 166 -126 147 -121 154 -129 154 -163 0 -32 -9 -45 -77
-112 -212 -205 -382 -330 -490 -359 -38 -10 -43 -14 -43 -40 0 -37 6 -37 107
-5 142 45 322 164 505 334 47 45 90 81 95 81 5 0 42 -34 83 -76 213 -215 447
-364 650 -414 50 -12 138 -23 215 -26 l130 -7 22 30 22 30 -32 30 c-29 27 -41
31 -117 37 -164 13 -337 64 -470 138 -125 70 -291 204 -368 296 l-41 49 44
233 c31 168 41 240 34 257 -5 14 -9 31 -9 39 0 23 130 79 269 115 l122 33 96
-23 95 -23 25 25 c34 34 26 71 -19 86 -82 29 -144 24 -346 -29z m-353 -252 c0
-18 -14 -98 -32 -178 -28 -127 -35 -145 -53 -148 -38 -5 -271 183 -261 212 6
17 198 114 257 130 84 22 90 21 89 -16z"/>
</g>
</svg>
