<?xml version="1.0" standalone="no"?>
<!DOCTYPE svg PUBLIC "-//W3C//DTD SVG 20010904//EN"
 "http://www.w3.org/TR/2001/REC-SVG-20010904/DTD/svg10.dtd">
<svg version="1.0" xmlns="http://www.w3.org/2000/svg"
 width="360.000000pt" height="360.000000pt" viewBox="0 0 360.000000 360.000000"
 preserveAspectRatio="xMidYMid meet">
<metadata>
Created by potrace 1.15, written by Peter Selinger 2001-2017
</metadata>
<g transform="translate(0.000000,360.000000) scale(0.100000,-0.100000)"
fill="#000000" stroke="none">
<path d="M2326 2881 c-4 -5 12 -24 35 -42 l41 -33 -6 -120 c-4 -67 -9 -140
-13 -163 l-5 -43 -62 0 c-34 0 -89 -5 -122 -11 -63 -11 -154 -46 -154 -59 0
-4 12 -15 26 -25 21 -14 33 -15 75 -6 74 16 79 15 79 -19 0 -23 -32 -79 -115
-206 -63 -96 -115 -181 -115 -189 0 -7 17 -27 37 -44 34 -28 44 -31 105 -31
62 0 68 -2 68 -20 0 -11 -67 -120 -149 -241 l-150 -221 22 -34 c35 -53 62 -47
170 41 107 86 219 153 271 162 l36 6 0 -165 c0 -104 4 -168 11 -175 8 -8 7
-16 -2 -31 -11 -17 -11 -25 1 -47 10 -19 11 -28 2 -37 -12 -12 -17 -150 -6
-161 16 -15 13 -144 -5 -292 -14 -115 -16 -164 -9 -173 8 -9 8 -16 0 -24 -7
-7 -12 -36 -12 -65 0 -46 3 -53 20 -53 23 0 20 -17 65 346 33 269 35 296 35
601 l0 320 83 55 c79 53 86 56 212 78 133 23 250 54 273 72 6 6 12 21 12 33 0
12 -6 27 -12 33 -24 19 -344 -43 -502 -97 -32 -12 -62 -19 -66 -16 -16 10 -22
82 -8 104 11 17 10 25 -1 43 -8 12 -9 24 -4 25 6 2 5 30 0 74 -7 49 -7 86 1
119 7 32 8 59 2 81 -12 41 -12 228 -1 288 6 29 5 51 -2 61 -7 12 -6 44 2 108
13 106 3 145 -47 181 -31 22 -106 30 -116 12z m57 -598 c13 -102 18 -340 9
-388 -7 -34 -7 -54 0 -62 6 -8 7 -28 3 -49 -8 -45 -85 -124 -166 -172 -106
-62 -154 -68 -111 -14 94 119 192 283 192 319 0 10 -18 33 -40 51 -32 27 -47
32 -89 32 -49 0 -51 1 -51 28 0 44 69 151 148 229 40 40 79 73 86 73 9 0 16
-17 19 -47z"/>
<path d="M1530 2762 c0 -10 18 -36 40 -57 22 -21 40 -47 40 -56 0 -9 -15 -30
-33 -46 -52 -46 -184 -125 -202 -121 -9 2 -26 28 -39 59 -12 31 -33 73 -45 93
-19 30 -28 36 -57 36 -40 0 -45 -19 -14 -65 36 -55 21 -160 -31 -220 -28 -32
-54 -44 -121 -59 -19 -4 -28 -13 -28 -26 0 -18 7 -20 73 -20 110 0 107 7 107
-246 0 -150 3 -213 12 -222 9 -9 9 -15 0 -24 -8 -8 -12 -50 -12 -123 l0 -111
-72 -57 c-228 -182 -530 -330 -563 -276 -10 14 -55 -29 -49 -46 7 -17 76 -45
112 -45 15 0 124 47 241 105 118 58 221 103 228 101 19 -8 17 -25 -22 -199
-43 -193 -44 -228 -9 -256 45 -35 108 -28 335 38 338 99 545 176 578 214 10
13 8 18 -11 31 -32 23 -154 68 -270 102 -54 15 -98 31 -98 35 0 4 35 50 79
101 65 77 77 97 70 115 -7 20 -59 43 -97 43 -9 0 -12 12 -10 37 3 33 8 39 67
71 35 19 113 52 174 72 61 21 112 41 114 46 1 5 -6 19 -15 32 l-18 24 -142
-23 c-78 -12 -145 -20 -148 -17 -3 4 4 166 15 361 12 195 21 366 21 381 0 23
4 26 38 26 91 0 137 31 130 88 -3 27 -4 27 -72 24 -67 -3 -71 -2 -105 32 -49
47 -92 66 -146 66 -37 0 -45 -3 -45 -18z m60 -478 l0 -155 -22 7 c-13 3 -38
13 -57 20 -60 25 -103 18 -141 -21 -19 -19 -38 -35 -42 -35 -14 0 -9 179 6
208 18 34 51 65 93 86 32 16 125 44 151 45 9 1 12 -36 12 -155z m-120 -259 c0
-51 -20 -99 -45 -109 -37 -14 -45 -7 -45 36 0 35 6 49 37 80 20 21 41 38 45
38 4 0 8 -20 8 -45z m103 -108 c3 -8 8 -42 12 -78 6 -61 5 -66 -25 -106 -28
-38 -36 -43 -71 -43 -21 0 -39 4 -39 8 0 13 47 147 60 173 15 30 41 59 50 59
5 0 10 -6 13 -13z m-80 -404 c33 -27 65 -51 70 -55 8 -4 -35 -89 -58 -116 -1
-1 -35 11 -75 28 -40 16 -77 30 -81 30 -5 0 -9 -17 -9 -38 0 -32 7 -45 48 -85
l49 -48 77 25 77 24 95 -66 c86 -61 114 -92 81 -92 -7 0 -69 -23 -138 -50
-160 -65 -371 -137 -430 -145 -68 -10 -73 1 -54 126 31 210 82 341 142 369 18
8 33 21 33 28 0 38 68 111 103 112 5 0 36 -21 70 -47z"/>
</g>
</svg>
