<?xml version="1.0" standalone="no"?>
<!DOCTYPE svg PUBLIC "-//W3C//DTD SVG 20010904//EN"
 "http://www.w3.org/TR/2001/REC-SVG-20010904/DTD/svg10.dtd">
<svg version="1.0" xmlns="http://www.w3.org/2000/svg"
 width="360.000000pt" height="360.000000pt" viewBox="0 0 360.000000 360.000000"
 preserveAspectRatio="xMidYMid meet">
<metadata>
Created by potrace 1.15, written by Peter Selinger 2001-2017
</metadata>
<g transform="translate(0.000000,360.000000) scale(0.100000,-0.100000)"
fill="#000000" stroke="none">
<path d="M2131 2655 c-48 -43 -54 -75 -16 -75 42 0 85 -29 101 -67 13 -30 13
-52 3 -154 -9 -94 -9 -132 0 -175 10 -43 10 -58 1 -69 -7 -8 -9 -26 -6 -39 6
-23 -2 -30 -81 -77 -139 -83 -358 -191 -475 -233 -81 -29 -105 -42 -101 -53 7
-17 99 -63 127 -63 10 0 125 47 255 105 130 58 248 105 264 105 l27 0 0 -129
c0 -71 5 -164 11 -206 7 -56 7 -80 -1 -90 -8 -10 -3 -99 21 -349 18 -185 30
-339 26 -342 -23 -23 -187 95 -328 235 -108 109 -143 171 -119 216 10 18 10
28 2 38 -10 11 -1 23 43 58 56 44 105 104 105 128 0 49 -83 111 -148 111 -37
0 -54 -22 -72 -90 -16 -61 -65 -166 -95 -206 -31 -41 -31 -51 -1 -89 21 -26
27 -28 45 -18 18 11 21 7 46 -65 l26 -77 166 -130 c91 -71 211 -174 267 -228
57 -55 106 -95 114 -92 7 2 22 24 32 48 19 43 19 51 -4 628 -19 473 -27 592
-40 628 l-16 44 47 51 c26 28 48 53 49 55 2 2 60 12 130 22 152 22 233 44 241
66 8 22 -26 83 -47 83 -10 0 -97 -18 -195 -40 -98 -22 -188 -40 -201 -40 -30
0 -30 11 -9 235 19 206 19 260 -1 294 -21 36 -73 71 -116 78 -31 4 -41 0 -77
-32z"/>
<path d="M1094 2281 c-83 -32 -160 -61 -170 -65 -16 -6 -15 -10 13 -38 l31
-30 146 31 c81 17 156 31 167 31 19 0 19 -7 17 -241 -3 -218 -5 -243 -20 -253
-13 -8 -23 -8 -38 2 -12 7 -58 12 -121 12 l-101 0 6 33 c21 106 25 96 -62 164
-75 59 -82 62 -110 52 l-31 -11 34 -52 c19 -28 44 -76 54 -106 l19 -55 -33
-405 -34 -405 21 -23 c14 -14 33 -22 54 -22 27 0 50 16 137 95 58 52 110 95
115 95 5 0 22 -18 37 -40 42 -60 128 -137 133 -120 3 8 11 19 18 23 11 6 14
45 14 174 0 92 5 192 12 223 8 39 8 69 1 96 -6 25 -6 166 1 408 9 356 9 370
-10 404 -25 47 -62 73 -110 78 -30 3 -73 -10 -190 -55z m56 -666 c0 -3 -23
-52 -52 -110 l-52 -104 -23 21 c-20 19 -23 31 -23 100 0 77 0 78 28 84 15 3
32 7 37 9 16 5 85 5 85 0z m140 -166 l11 -82 -37 -54 c-38 -55 -204 -215 -228
-221 -9 -2 -17 17 -25 57 -10 51 -9 65 5 103 23 57 75 135 116 174 42 40 127
104 138 104 4 0 13 -37 20 -81z"/>
</g>
</svg>
