<?xml version="1.0" standalone="no"?>
<!DOCTYPE svg PUBLIC "-//W3C//DTD SVG 20010904//EN"
 "http://www.w3.org/TR/2001/REC-SVG-20010904/DTD/svg10.dtd">
<svg version="1.0" xmlns="http://www.w3.org/2000/svg"
 width="360.000000pt" height="360.000000pt" viewBox="0 0 360.000000 360.000000"
 preserveAspectRatio="xMidYMid meet">
<metadata>
Created by potrace 1.15, written by Peter Selinger 2001-2017
</metadata>
<g transform="translate(0.000000,360.000000) scale(0.100000,-0.100000)"
fill="#000000" stroke="none">
<path d="M1993 2870 c-56 -34 -143 -172 -143 -227 0 -26 3 -25 63 35 79 78 91
80 82 10 -17 -123 -83 -331 -197 -621 -67 -171 -69 -179 -52 -198 28 -31 43
-23 70 39 74 164 266 619 297 702 64 171 60 209 -23 254 -57 31 -57 31 -97 6z"/>
<path d="M1788 2563 c-10 -11 -18 -28 -18 -39 0 -17 1 -17 21 3 12 11 19 28
17 38 -3 16 -4 16 -20 -2z"/>
<path d="M1132 2396 l-172 -72 23 -22 c34 -32 84 -28 210 15 152 51 144 68
117 -243 -12 -137 -23 -250 -24 -251 -2 -2 -29 2 -61 8 -53 10 -78 9 -157 -7
l-28 -6 0 60 c0 55 -3 62 -41 106 -42 48 -122 96 -159 96 -16 0 -20 -6 -20
-32 0 -24 17 -57 59 -119 l60 -86 -10 -124 c-5 -68 -9 -226 -8 -350 1 -191 -1
-230 -15 -251 -17 -25 -35 -134 -36 -209 0 -38 5 -50 33 -77 44 -43 76 -42
116 3 33 38 76 119 106 197 14 38 22 48 41 48 20 0 24 -8 39 -78 19 -86 51
-159 77 -176 13 -8 23 -5 43 14 l25 23 0 291 c0 263 2 299 20 365 21 75 135
383 210 565 77 189 40 159 -70 -56 -62 -121 -74 -138 -95 -138 -31 0 -31 -8 0
248 18 150 22 210 14 230 -15 39 -79 102 -104 101 -11 0 -98 -33 -193 -73z
m32 -718 c-15 -86 -46 -194 -66 -231 -28 -51 -70 -77 -95 -61 -34 22 -11 233
33 299 14 22 23 25 75 25 l59 0 -6 -32z m106 -146 c0 -5 -38 -89 -84 -188 -75
-159 -87 -179 -110 -182 -14 -2 -26 2 -26 7 0 6 41 92 90 191 72 143 94 180
110 180 11 0 20 -4 20 -8z m-8 -384 c-5 -5 -25 -8 -43 -6 l-34 3 40 44 40 44
3 -38 c2 -21 -1 -42 -6 -47z"/>
<path d="M1698 2415 c-39 -52 -68 -122 -68 -163 0 -21 2 -23 16 -11 49 41 100
149 92 199 -3 23 -6 21 -40 -25z"/>
<path d="M2265 2224 c-126 -41 -242 -74 -257 -74 -25 0 -28 -4 -28 -34 l0 -34
74 -7 c74 -7 77 -6 300 68 l225 75 37 -45 37 -45 -7 -186 c-18 -518 -70 -996
-126 -1157 -22 -63 -53 -105 -79 -105 -9 0 -70 69 -136 154 -66 85 -126 155
-133 155 -34 2 30 -163 109 -281 23 -35 74 -103 113 -151 l71 -89 27 33 c60
72 128 245 194 496 27 103 33 137 24 153 -8 14 -7 25 2 39 10 16 9 25 -2 46
-12 23 -10 55 18 272 24 179 29 249 21 259 -8 9 -5 61 10 187 12 96 21 200 21
231 0 54 -1 56 -38 75 -45 23 -138 41 -201 40 -27 -1 -140 -31 -276 -75z"/>
<path d="M1870 1831 c-50 -16 -106 -50 -144 -90 -22 -22 -38 -43 -35 -45 2 -3
51 6 108 20 56 13 124 24 151 24 l48 0 16 -47 16 -46 -32 -51 c-18 -28 -59
-91 -91 -140 l-60 -89 19 -34 c17 -33 54 -70 92 -93 15 -9 1 -26 -96 -118
-111 -106 -135 -140 -89 -127 120 33 487 278 487 325 0 25 -65 80 -95 80 -20
0 -117 -18 -192 -35 -68 -16 19 151 169 324 44 50 52 105 20 134 -22 20 -161
24 -179 6 -8 -8 -13 -8 -17 0 -8 12 -58 13 -96 2z"/>
</g>
</svg>
