<?xml version="1.0" standalone="no"?>
<!DOCTYPE svg PUBLIC "-//W3C//DTD SVG 20010904//EN"
 "http://www.w3.org/TR/2001/REC-SVG-20010904/DTD/svg10.dtd">
<svg version="1.0" xmlns="http://www.w3.org/2000/svg"
 width="360.000000pt" height="360.000000pt" viewBox="0 0 360.000000 360.000000"
 preserveAspectRatio="xMidYMid meet">
<metadata>
Created by potrace 1.15, written by Peter Selinger 2001-2017
</metadata>
<g transform="translate(0.000000,360.000000) scale(0.100000,-0.100000)"
fill="#000000" stroke="none">
<path d="M1798 2820 c-167 -74 -283 -152 -314 -211 -16 -31 -38 -38 -48 -14
-7 19 -76 21 -76 2 0 -7 21 -43 46 -81 33 -49 43 -71 35 -79 -14 -14 -15 -523
-1 -532 28 -18 3 -129 -60 -260 -64 -134 -176 -289 -333 -463 -48 -53 -58 -69
-55 -95 3 -28 8 -32 56 -45 l52 -15 122 93 121 93 -7 -42 c-9 -58 -55 -176
-116 -296 l-49 -99 21 -23 c12 -13 25 -23 29 -23 5 0 39 46 78 103 74 108 133
173 149 163 5 -3 29 -57 52 -119 40 -109 41 -115 27 -148 -13 -30 -72 -117
-137 -201 -20 -26 -20 -27 -2 -37 17 -9 35 2 116 65 l97 76 47 -50 c60 -63
120 -93 197 -100 186 -14 359 117 519 393 103 179 255 580 237 627 -29 78
-165 125 -425 147 l-109 9 -120 -38 c-67 -22 -123 -37 -125 -35 -2 2 -8 36
-14 77 -9 71 -7 86 86 541 53 258 96 483 96 501 0 34 -35 90 -81 133 l-24 22
-87 -39z m72 -132 c-1 -29 -11 -127 -23 -218 l-23 -165 -86 -5 c-96 -6 -122
-20 -158 -91 -17 -33 -18 -46 -7 -162 12 -137 7 -157 -39 -157 l-24 0 0 310
c0 355 -2 345 83 409 83 62 209 129 245 130 l32 1 0 -52z m-130 -833 c0 -31
-3 -35 -25 -35 -22 0 -25 4 -25 35 0 31 3 35 25 35 22 0 25 -4 25 -35z m-93
-236 c12 -57 22 -109 23 -115 0 -6 -23 -14 -52 -17 -48 -6 -172 -59 -240 -103
-15 -10 -30 -15 -34 -12 -3 4 9 34 26 67 37 68 109 141 140 141 22 0 23 2 40
68 12 46 44 86 63 79 7 -2 22 -50 34 -108z m613 -122 l175 -22 3 -45 c2 -33
-9 -81 -43 -179 -140 -410 -322 -643 -511 -659 -43 -4 -61 0 -104 24 -52 28
-130 106 -130 129 0 7 29 55 64 106 135 199 240 404 300 587 24 70 31 82 49
82 12 -1 101 -11 197 -23z m-380 -86 c10 -37 7 -48 -45 -167 -86 -197 -200
-374 -240 -374 -9 0 -22 28 -35 73 -12 39 -25 85 -31 101 -16 51 -10 70 51
165 93 143 200 240 267 241 17 0 25 -8 33 -39z"/>
</g>
</svg>
