<?xml version="1.0" standalone="no"?>
<!DOCTYPE svg PUBLIC "-//W3C//DTD SVG 20010904//EN"
 "http://www.w3.org/TR/2001/REC-SVG-20010904/DTD/svg10.dtd">
<svg version="1.0" xmlns="http://www.w3.org/2000/svg"
 width="360.000000pt" height="360.000000pt" viewBox="0 0 360.000000 360.000000"
 preserveAspectRatio="xMidYMid meet">
<metadata>
Created by potrace 1.15, written by Peter Selinger 2001-2017
</metadata>
<g transform="translate(0.000000,360.000000) scale(0.100000,-0.100000)"
fill="#000000" stroke="none">
<path d="M1805 2669 c-169 -51 -231 -60 -242 -33 -4 12 -8 11 -18 -8 -11 -21
-8 -27 29 -67 l41 -43 80 5 c89 7 191 35 278 78 l58 28 54 -20 c63 -23 101
-51 108 -78 6 -25 -67 -208 -113 -285 -57 -93 -115 -152 -183 -186 -71 -35
-167 -52 -167 -29 0 8 56 87 125 176 134 173 143 195 104 242 -17 21 -25 23
-74 18 -79 -8 -152 -45 -228 -117 -37 -34 -67 -65 -67 -69 0 -4 6 -15 13 -25
12 -17 19 -15 106 28 51 26 97 46 102 44 5 -2 -27 -54 -71 -116 -96 -133 -104
-136 -175 -64 -60 60 -110 134 -140 208 -24 59 -44 75 -70 54 -11 -9 -10 -23
7 -83 43 -157 112 -366 143 -434 40 -88 51 -90 155 -38 38 19 72 35 75 35 3 0
5 -9 5 -20 0 -12 -33 -51 -81 -97 -72 -69 -272 -294 -292 -329 -13 -23 10 -51
50 -61 l38 -9 -90 -93 c-108 -113 -244 -228 -422 -359 -72 -53 -132 -103 -132
-110 -2 -28 33 -72 56 -72 74 0 395 168 827 434 175 107 177 89 9 -89 -308
-327 -367 -411 -333 -474 8 -17 15 -17 83 -7 68 11 84 19 218 107 303 201 466
289 550 297 44 4 51 2 76 -25 51 -54 81 -123 93 -213 14 -105 37 -198 56 -227
10 -15 24 -23 44 -23 25 0 33 7 51 42 25 49 23 82 -21 255 -72 284 -169 430
-290 436 l-45 2 2 -55 3 -55 -223 -127 c-122 -69 -229 -128 -237 -130 -42 -9
1 47 160 208 227 230 299 284 447 332 109 36 204 45 316 32 l100 -13 18 24
c24 31 24 32 -7 69 -44 52 -79 64 -174 64 -250 -2 -636 -148 -1109 -419 -82
-47 -153 -85 -157 -85 -5 0 23 32 61 71 42 42 209 173 417 326 l347 256 -20
28 c-11 16 -23 29 -27 29 -4 0 -92 -41 -196 -90 -104 -50 -198 -90 -208 -90
-17 0 -16 5 10 43 16 23 61 70 99 104 91 80 237 245 318 358 78 109 168 285
192 379 l18 68 -40 34 c-22 18 -69 48 -105 66 -55 28 -77 33 -145 34 -70 1
-101 -5 -240 -47z"/>
</g>
</svg>
