<?xml version="1.0" standalone="no"?>
<!DOCTYPE svg PUBLIC "-//W3C//DTD SVG 20010904//EN"
 "http://www.w3.org/TR/2001/REC-SVG-20010904/DTD/svg10.dtd">
<svg version="1.0" xmlns="http://www.w3.org/2000/svg"
 width="360.000000pt" height="360.000000pt" viewBox="0 0 360.000000 360.000000"
 preserveAspectRatio="xMidYMid meet">
<metadata>
Created by potrace 1.15, written by Peter Selinger 2001-2017
</metadata>
<g transform="translate(0.000000,360.000000) scale(0.100000,-0.100000)"
fill="#000000" stroke="none">
<path d="M2375 2963 c-11 -2 -72 -16 -135 -30 -63 -13 -188 -45 -278 -69 -90
-24 -169 -44 -176 -44 -7 0 -26 20 -44 45 -29 42 -35 45 -76 45 -47 0 -65 -12
-48 -33 6 -8 -8 -88 -41 -235 -41 -183 -48 -227 -39 -247 15 -34 48 -32 66 3
15 29 51 147 86 280 23 84 32 94 69 70 28 -17 163 5 391 65 114 29 224 52 265
55 64 3 72 1 94 -22 13 -13 20 -30 16 -36 -21 -34 -136 -91 -504 -251 l-44
-20 22 -23 c21 -22 21 -27 11 -67 -43 -159 -156 -263 -299 -276 -53 -5 -61 -8
-61 -26 0 -12 9 -30 20 -42 18 -19 27 -21 63 -14 61 12 87 11 93 -4 3 -8 -45
-100 -107 -206 l-112 -192 28 -30 c16 -16 33 -29 38 -29 6 0 101 43 214 97
112 53 206 93 210 89 4 -3 -18 -32 -48 -62 -117 -120 -328 -290 -556 -448 -62
-43 -113 -83 -113 -90 0 -16 42 -56 59 -56 8 0 149 61 315 136 165 75 320 145
344 155 l42 18 25 -37 24 -37 -12 -313 c-10 -231 -10 -335 -2 -400 7 -62 8
-128 0 -229 l-10 -143 32 0 c28 0 33 4 33 23 0 12 21 159 47 327 l47 305 -28
225 c-15 124 -27 248 -26 275 l0 50 225 54 224 55 93 -11 c88 -10 94 -10 115
9 29 27 19 46 -47 82 -49 27 -57 28 -134 22 -108 -9 -239 -32 -358 -62 -53
-13 -101 -24 -107 -24 -7 0 -11 27 -11 69 l0 68 130 118 c93 84 130 124 130
140 0 40 -17 45 -127 32 -82 -9 -104 -8 -117 2 -13 11 -14 17 -5 28 17 20 4
105 -26 170 -14 31 -24 57 -23 58 2 1 28 7 58 14 30 6 74 20 98 31 41 19 43
21 40 57 -3 35 -6 38 -36 41 -39 4 -129 -21 -194 -54 -26 -13 -56 -24 -68 -24
-46 0 -11 112 51 164 51 43 104 66 202 87 269 59 377 95 377 126 0 18 -121
130 -193 179 -30 20 -47 24 -104 23 -37 -1 -77 -3 -88 -6z m-216 -702 c18 -33
50 -161 40 -161 -5 0 -9 -9 -9 -20 0 -54 -67 -120 -205 -202 -85 -51 -206
-110 -212 -104 -8 8 94 191 168 301 68 102 165 205 193 205 8 0 20 -8 25 -19z
m21 -580 c-19 -69 -70 -115 -166 -151 -74 -27 -94 -26 -94 4 0 20 21 38 118
99 131 85 155 93 142 48z"/>
<path d="M1055 2790 c-72 -32 -125 -49 -152 -49 -38 -1 -43 -4 -43 -25 0 -51
63 -47 329 19 l24 6 -6 -203 c-4 -112 -10 -226 -13 -254 l-6 -51 -102 21 -101
21 -3 77 -3 77 -71 56 c-110 85 -133 70 -67 -44 31 -54 39 -75 30 -84 -14 -14
-14 -100 0 -114 8 -8 8 -17 0 -31 -6 -12 -11 -78 -11 -158 0 -127 -2 -143 -31
-228 -17 -50 -69 -177 -115 -283 -95 -217 -105 -270 -61 -311 32 -30 84 -29
128 3 44 33 167 172 266 302 43 56 83 102 89 102 6 1 20 -9 32 -22 l22 -23
-26 -25 c-25 -23 -26 -28 -21 -99 7 -91 29 -168 58 -199 l21 -22 24 22 c23 21
24 29 24 148 1 69 7 153 14 186 10 49 10 68 0 96 -21 63 1 136 56 182 34 29
37 39 14 58 -12 10 -20 10 -35 1 -38 -24 -66 -9 -34 18 12 10 15 39 15 144 0
72 9 249 20 394 19 245 19 264 4 288 -46 69 -119 70 -269 4z m-5 -677 c0 -54
-38 -117 -73 -121 l-27 -3 0 80 0 81 50 0 50 0 0 -37z m140 -186 l0 -133 -94
-87 -94 -87 -26 21 c-25 19 -26 25 -26 115 0 133 32 190 155 270 84 56 85 55
85 -99z m-310 -338 c27 -6 50 -15 50 -21 0 -5 -17 -35 -37 -66 -83 -126 -173
-184 -173 -112 0 36 24 100 63 163 32 53 28 51 97 36z"/>
</g>
</svg>
