<?xml version="1.0" standalone="no"?>
<!DOCTYPE svg PUBLIC "-//W3C//DTD SVG 20010904//EN"
 "http://www.w3.org/TR/2001/REC-SVG-20010904/DTD/svg10.dtd">
<svg version="1.0" xmlns="http://www.w3.org/2000/svg"
 width="360.000000pt" height="360.000000pt" viewBox="0 0 360.000000 360.000000"
 preserveAspectRatio="xMidYMid meet">
<metadata>
Created by potrace 1.15, written by Peter Selinger 2001-2017
</metadata>
<g transform="translate(0.000000,360.000000) scale(0.100000,-0.100000)"
fill="#000000" stroke="none">
<path d="M1245 2854 c-15 -15 -14 -19 11 -45 25 -26 26 -31 19 -95 -7 -67 -22
-114 -36 -114 -4 0 -10 -11 -13 -24 -7 -29 -80 -79 -147 -101 -27 -9 -49 -20
-49 -24 0 -15 38 -42 85 -60 25 -10 47 -19 48 -22 0 -2 -13 -38 -30 -79 -39
-93 -63 -208 -63 -298 0 -59 3 -72 23 -90 36 -34 82 -29 129 14 40 35 63 40
37 7 -8 -10 -114 -138 -236 -286 -234 -282 -246 -303 -205 -340 34 -31 61 -20
185 80 189 150 349 247 371 226 3 -4 6 -33 6 -65 0 -48 3 -58 18 -58 21 -1 56
-28 71 -57 7 -14 11 -119 11 -317 l0 -295 30 -34 30 -34 187 68 c104 38 193
68 198 69 18 0 54 -82 74 -170 37 -164 77 -240 125 -240 49 0 80 73 120 279
25 126 25 126 14 418 -8 208 -8 306 -1 339 l11 47 -52 53 -51 52 39 64 c22 35
61 105 88 157 41 80 48 103 48 152 0 53 -3 59 -36 89 -20 17 -35 32 -33 34 2
1 83 39 181 85 155 72 179 81 197 70 16 -11 29 -10 74 4 75 24 86 39 62 83
-10 19 -23 34 -28 34 -5 0 -63 -9 -128 -20 -108 -19 -141 -30 -395 -140 -153
-66 -283 -120 -290 -120 -14 0 -18 15 -35 133 -12 83 -11 89 7 106 10 10 99
91 197 180 158 145 177 166 177 194 0 55 -25 73 -114 83 l-56 7 0 -62 0 -62
-97 -100 c-54 -56 -119 -117 -146 -136 -41 -31 -53 -35 -86 -29 -30 5 -42 2
-56 -14 -17 -18 -17 -21 -2 -38 28 -31 65 -124 81 -204 19 -90 20 -127 6 -164
-6 -14 -15 -85 -21 -156 -10 -119 -10 -131 7 -149 12 -13 28 -19 48 -17 44 4
64 51 74 174 6 68 14 108 27 127 24 37 85 72 163 93 l63 18 26 -27 c26 -25 26
-28 15 -79 -15 -65 -49 -140 -109 -239 l-46 -76 -281 -116 -281 -116 -23 72
-23 71 21 56 c21 55 22 56 140 125 70 41 120 76 120 85 -1 8 -12 23 -25 33
-24 17 -27 17 -111 -13 -47 -16 -89 -30 -94 -30 -4 0 -13 14 -19 31 -10 30 -6
40 79 179 50 81 90 153 90 161 0 8 -9 25 -19 38 -17 22 -21 23 -51 13 -30 -11
-35 -9 -68 19 -35 31 -105 68 -129 69 -20 0 -15 -62 7 -90 45 -58 10 -117
-114 -195 -73 -45 -96 -54 -96 -35 0 6 19 76 42 156 l41 145 208 147 c214 151
232 170 194 202 -19 16 -106 -9 -202 -60 l-73 -37 6 81 c6 74 4 83 -17 110
-39 50 -113 70 -144 40z m155 -1011 c0 -32 -8 -44 -54 -88 -65 -61 -251 -188
-267 -183 -12 4 86 134 160 212 52 55 110 96 138 96 20 0 23 -5 23 -37z m673
-294 l44 -22 7 -171 c18 -502 19 -556 8 -556 -6 0 -49 43 -94 94 l-83 95 -59
0 c-53 1 -71 -5 -168 -54 l-108 -56 0 33 c0 28 6 37 35 52 19 11 94 79 166
153 129 132 130 134 127 176 l-3 42 -47 -2 c-68 -2 -137 -28 -209 -78 -35 -25
-70 -45 -76 -45 -10 0 -13 24 -13 86 0 47 -4 94 -10 104 -11 21 -24 15 245
109 94 33 176 60 182 60 7 1 32 -9 56 -20z m-383 -428 c0 -10 -16 -33 -36 -51
-31 -27 -39 -30 -51 -18 -7 8 -16 31 -20 51 l-6 37 57 0 c48 0 56 -3 56 -19z"/>
</g>
</svg>
