<?xml version="1.0" standalone="no"?>
<!DOCTYPE svg PUBLIC "-//W3C//DTD SVG 20010904//EN"
 "http://www.w3.org/TR/2001/REC-SVG-20010904/DTD/svg10.dtd">
<svg version="1.0" xmlns="http://www.w3.org/2000/svg"
 width="360.000000pt" height="360.000000pt" viewBox="0 0 360.000000 360.000000"
 preserveAspectRatio="xMidYMid meet">
<metadata>
Created by potrace 1.15, written by Peter Selinger 2001-2017
</metadata>
<g transform="translate(0.000000,360.000000) scale(0.100000,-0.100000)"
fill="#000000" stroke="none">
<path d="M1886 2701 c-18 -20 -17 -22 58 -107 42 -48 76 -93 76 -101 0 -65
-87 -138 -213 -178 -81 -26 -132 -30 -204 -16 l-43 8 0 -96 c0 -54 4 -101 9
-107 6 -5 4 -29 -4 -61 -8 -29 -21 -104 -31 -168 l-18 -116 31 -31 c38 -37 58
-33 80 19 23 56 43 203 30 224 -8 12 -6 45 8 120 10 57 20 110 22 117 3 6 22
12 42 12 20 0 116 27 214 60 319 108 420 131 592 137 l150 5 -25 -27 c-14 -15
-76 -52 -137 -82 -100 -48 -112 -56 -103 -73 8 -15 16 -17 42 -10 18 5 122 29
231 55 108 26 197 51 197 56 0 38 -53 95 -140 153 -50 33 -61 36 -126 36 -40
0 -154 -11 -255 -25 -101 -14 -191 -25 -201 -25 -11 0 -18 12 -23 43 -10 57
-27 88 -70 126 -39 34 -86 57 -138 66 -25 5 -37 2 -51 -14z"/>
<path d="M1073 2327 l-162 -62 31 -32 c18 -18 39 -33 47 -33 37 0 94 23 136
55 39 30 53 35 99 35 33 0 58 -5 65 -14 8 -10 9 -79 1 -262 -5 -137 -10 -303
-10 -368 l0 -119 -41 -54 c-57 -73 -166 -173 -189 -173 -17 0 -15 9 21 98 50
122 89 245 89 279 0 36 -43 95 -91 127 -35 24 -39 30 -39 69 0 63 -28 146 -59
178 -24 24 -94 49 -106 38 -2 -2 8 -59 21 -126 l25 -122 -24 -47 -24 -48 23
-45 c30 -58 47 -181 42 -308 -3 -94 -5 -103 -50 -196 -26 -54 -75 -146 -109
-204 l-60 -106 32 -33 c27 -28 40 -34 75 -34 l42 0 131 175 c72 96 137 175
144 175 6 0 29 -38 51 -85 54 -119 130 -184 165 -142 7 9 8 24 1 48 -13 44
-13 208 0 324 14 131 38 219 71 265 16 22 29 42 29 44 0 2 -21 9 -46 15 -41
11 -45 14 -39 34 3 12 11 103 16 202 4 99 17 238 27 308 l18 128 -34 30 c-75
66 -113 64 -319 -14z"/>
<path d="M2055 1998 c-121 -44 -222 -82 -224 -84 -3 -3 13 -22 34 -44 32 -33
46 -40 78 -40 21 0 47 5 58 10 45 25 13 -19 -103 -139 -137 -141 -181 -209
-180 -276 1 -50 27 -231 48 -330 31 -151 74 -245 112 -245 9 0 57 25 107 55
49 30 101 55 115 55 38 0 122 43 170 86 54 49 115 130 169 222 57 97 141 295
141 331 0 37 -37 90 -80 115 -28 17 -51 21 -120 20 -140 -1 -287 -62 -472
-194 -72 -52 -83 -57 -86 -40 -2 14 36 57 135 152 76 73 194 187 262 254 l123
121 -17 26 c-9 15 -25 27 -34 26 -9 0 -115 -36 -236 -81z m389 -384 c32 -12
20 -89 -26 -173 -120 -219 -217 -316 -338 -336 -53 -9 -56 -15 57 111 40 45
73 88 73 96 0 8 -10 24 -22 35 -22 20 -26 20 -78 7 -30 -8 -88 -33 -128 -55
l-74 -41 -24 23 c-13 12 -24 28 -24 34 0 20 101 125 163 169 128 90 273 148
354 141 28 -3 58 -8 67 -11z"/>
<path d="M2246 869 c-217 -33 -550 -145 -790 -266 l-48 -25 28 -29 c15 -16 35
-29 44 -29 9 0 75 24 147 54 279 116 539 194 718 217 l90 11 214 -75 c197 -70
216 -75 227 -59 8 9 14 25 14 34 0 27 -93 113 -157 145 -57 27 -61 28 -243 30
-102 1 -212 -3 -244 -8z"/>
</g>
</svg>
