<?xml version="1.0" standalone="no"?>
<!DOCTYPE svg PUBLIC "-//W3C//DTD SVG 20010904//EN"
 "http://www.w3.org/TR/2001/REC-SVG-20010904/DTD/svg10.dtd">
<svg version="1.0" xmlns="http://www.w3.org/2000/svg"
 width="360.000000pt" height="360.000000pt" viewBox="0 0 360.000000 360.000000"
 preserveAspectRatio="xMidYMid meet">
<metadata>
Created by potrace 1.15, written by Peter Selinger 2001-2017
</metadata>
<g transform="translate(0.000000,360.000000) scale(0.100000,-0.100000)"
fill="#000000" stroke="none">
<path d="M2200 2768 l-175 -160 -8 43 c-15 75 -32 113 -57 127 -58 30 -199
-16 -260 -84 -29 -33 -35 -36 -80 -32 -39 2 -51 -1 -60 -16 -9 -15 -7 -23 12
-43 13 -14 39 -33 59 -44 l37 -18 82 60 c45 33 89 59 97 57 27 -5 40 -35 25
-58 -6 -11 -12 -50 -12 -87 -1 -181 -35 -295 -110 -372 -37 -37 -53 -65 -66
-107 l-16 -56 -24 23 c-23 21 -24 29 -24 135 l0 113 -29 20 c-16 12 -37 21
-46 21 -15 0 -17 -7 -11 -47 3 -27 9 -111 12 -188 l6 -140 36 -37 c57 -60 106
-48 133 31 10 28 15 31 38 27 14 -3 47 -8 74 -12 66 -9 63 -32 -16 -125 -101
-119 -427 -556 -427 -573 0 -20 48 -52 59 -40 5 5 77 89 160 187 83 97 156
177 161 177 13 0 15 23 -34 -365 -29 -230 -40 -344 -33 -353 6 -8 6 -16 0 -25
-17 -20 -23 -132 -11 -191 8 -41 8 -67 -1 -102 -11 -43 -10 -48 10 -70 12 -13
31 -24 41 -24 20 0 22 23 9 150 -4 44 -3 89 3 112 l10 37 161 60 c169 62 328
111 430 132 57 11 313 7 405 -6 29 -5 38 -2 53 20 23 33 15 60 -26 82 -27 15
-68 18 -254 21 -253 4 -235 -3 -207 93 20 68 46 111 106 175 43 46 47 54 39
77 -10 26 -49 43 -111 49 -48 5 -37 41 53 167 l85 119 -32 31 c-33 32 -60 39
-71 20 -8 -12 -35 35 -35 61 0 13 11 19 45 24 73 11 97 67 51 115 l-24 26 79
395 c43 217 79 404 79 415 0 12 -25 45 -58 78 -55 54 -60 57 -107 56 l-50 0
-175 -161z m272 24 c4 -4 3 -36 -4 -72 -8 -46 -8 -72 0 -94 9 -25 5 -63 -22
-201 -23 -117 -31 -176 -24 -188 6 -13 4 -24 -10 -42 -11 -14 -23 -41 -26 -60
-6 -31 -10 -35 -39 -35 -37 0 -57 15 -57 42 0 9 -9 26 -21 37 -20 19 -21 23
-10 106 18 130 0 165 -81 165 -42 0 -52 -4 -78 -32 -34 -38 -35 -54 -10 -123
l18 -50 -50 -95 c-65 -126 -112 -190 -140 -190 -20 0 -21 3 -15 83 6 88 43
220 85 302 69 137 213 306 357 419 50 39 65 46 90 41 16 -3 33 -9 37 -13z
m-257 -676 c17 -12 17 -14 -12 -36 -38 -28 -34 -57 11 -68 30 -8 31 -11 34
-64 l3 -55 -181 -107 c-99 -59 -185 -104 -190 -101 -6 3 -10 13 -10 22 0 8 64
107 141 219 148 213 159 223 204 190z m30 -377 c0 -33 -9 -43 -147 -163 -82
-70 -148 -131 -148 -136 0 -14 42 -40 65 -40 12 0 60 34 108 75 48 41 91 75
96 75 5 0 14 -7 21 -15 11 -13 5 -27 -32 -83 -42 -62 -204 -252 -229 -267 -17
-11 31 -55 59 -55 13 0 46 16 72 35 44 32 90 46 90 27 0 -12 -155 -198 -216
-259 -69 -70 -110 -93 -161 -93 l-43 0 0 83 c0 46 7 106 15 133 25 83 84 385
91 466 5 52 12 82 23 91 29 26 306 167 321 164 10 -1 15 -14 15 -38z"/>
<path d="M1070 2479 c-126 -57 -182 -78 -201 -74 -17 4 -31 0 -43 -13 -16 -19
-16 -21 10 -41 19 -15 41 -21 77 -21 42 0 69 10 164 60 62 33 115 60 118 60 3
0 5 -7 5 -15 0 -9 9 -15 25 -15 18 0 25 -5 25 -20 0 -20 -70 -504 -73 -506 -6
-5 -244 40 -252 47 -5 6 -5 13 3 21 7 7 12 32 11 57 -1 44 -4 49 -70 110 -38
35 -72 61 -76 57 -3 -3 3 -52 15 -109 16 -79 19 -113 12 -152 -5 -27 -9 -151
-9 -275 0 -124 -6 -287 -13 -363 l-12 -137 44 -45 c24 -25 47 -45 50 -45 4 0
66 77 139 171 l133 171 24 -23 c23 -22 24 -28 24 -158 0 -129 1 -137 26 -173
27 -39 35 -39 75 -6 15 12 15 26 3 143 -7 72 -13 185 -13 251 l-1 122 85 108
c46 60 85 112 85 117 0 14 -27 7 -81 -23 l-55 -29 -16 27 c-14 25 -12 50 28
347 24 176 44 328 44 337 0 25 -47 76 -91 98 -21 11 -40 20 -41 19 -2 -1 -82
-37 -178 -80z m-13 -694 c7 -20 7 -35 2 -37 -5 -2 -25 -39 -44 -82 -37 -86
-68 -126 -97 -126 -16 0 -18 10 -18 113 0 129 5 139 76 156 64 15 70 13 81
-24z m133 -80 l12 -96 -58 -79 c-116 -162 -203 -255 -221 -237 -8 9 67 197
133 334 46 95 99 173 117 173 2 0 10 -43 17 -95z"/>
</g>
</svg>
