<?xml version="1.0" standalone="no"?>
<!DOCTYPE svg PUBLIC "-//W3C//DTD SVG 20010904//EN"
 "http://www.w3.org/TR/2001/REC-SVG-20010904/DTD/svg10.dtd">
<svg version="1.0" xmlns="http://www.w3.org/2000/svg"
 width="360.000000pt" height="360.000000pt" viewBox="0 0 360.000000 360.000000"
 preserveAspectRatio="xMidYMid meet">
<metadata>
Created by potrace 1.15, written by Peter Selinger 2001-2017
</metadata>
<g transform="translate(0.000000,360.000000) scale(0.100000,-0.100000)"
fill="#000000" stroke="none">
<path d="M1950 2858 c-30 -19 -146 -67 -257 -108 l-203 -74 22 -23 c14 -15 33
-23 56 -23 19 0 133 29 254 65 179 54 228 65 276 63 l57 -3 3 -39 c2 -26 -3
-48 -15 -65 -10 -14 -27 -52 -36 -83 -13 -40 -33 -74 -68 -112 -90 -99 -319
-232 -319 -186 0 6 45 70 100 143 l100 132 -26 23 c-14 12 -31 22 -39 22 -7 0
-63 -30 -124 -66 -110 -66 -128 -87 -98 -112 6 -6 24 -13 39 -17 l27 -7 -52
-43 -52 -42 -12 71 c-17 96 -39 152 -80 197 -29 32 -81 59 -115 59 -17 0 -6
-26 31 -74 38 -50 39 -54 46 -156 9 -146 31 -272 61 -346 18 -46 24 -78 22
-115 l-3 -52 -50 -14 c-63 -18 -80 -34 -71 -68 7 -27 39 -45 82 -45 23 0 24
-2 24 -78 0 -120 -13 -135 -189 -201 l-141 -53 21 -29 c11 -16 27 -29 34 -29
13 0 132 26 168 36 27 8 21 -18 -27 -114 -97 -193 -228 -357 -348 -437 -32
-21 -58 -41 -58 -45 0 -4 9 -15 21 -26 20 -18 21 -18 65 5 47 26 132 110 259
260 l79 93 60 -7 c33 -3 64 -9 69 -12 24 -15 -17 -151 -94 -313 -29 -62 -49
-117 -47 -131 3 -25 44 -46 70 -37 8 3 77 103 154 222 76 119 144 216 150 216
27 0 36 -28 25 -80 -6 -28 -11 -121 -11 -207 l0 -155 -26 6 c-69 18 -84 18
-84 5 1 -25 38 -98 71 -139 36 -44 81 -55 97 -22 26 48 58 393 39 423 -8 13
-8 31 1 69 7 28 12 83 12 121 0 67 2 72 43 124 l42 54 55 -2 c54 -2 55 -2 54
-32 -1 -16 -21 -84 -45 -151 -41 -115 -43 -123 -31 -163 25 -82 119 -146 252
-171 60 -11 90 14 90 75 0 49 -13 65 -57 65 -97 0 -183 40 -183 87 0 13 18 88
41 166 l41 142 -21 42 c-11 24 -24 43 -28 43 -5 0 -60 -9 -123 -20 -63 -11
-118 -20 -122 -20 -5 0 -8 24 -8 53 0 50 -3 55 -50 102 l-50 49 -25 -25 -26
-25 20 -45 c26 -57 41 -153 41 -256 0 -82 -9 -105 -34 -84 -9 8 -22 8 -45 0
-32 -11 -35 -10 -90 45 -55 54 -59 56 -110 56 -51 0 -53 1 -46 23 3 12 12 47
19 77 7 30 23 75 36 100 32 63 132 156 229 214 l82 48 93 -41 c106 -48 235
-150 381 -302 102 -106 153 -138 315 -194 228 -79 410 -113 410 -76 0 16 -90
91 -109 91 -40 0 -234 71 -332 121 -168 86 -317 207 -455 368 -39 45 -64 83
-64 98 0 20 5 23 39 23 68 0 91 14 91 55 0 23 -6 38 -15 41 -8 4 -59 1 -111
-5 -53 -6 -99 -9 -102 -6 -3 2 18 56 47 119 55 122 62 169 40 274 -9 41 -6 49
102 263 86 174 109 227 104 247 -10 42 -67 87 -139 110 -114 37 -134 37 -196
0z m-13 -660 c13 -12 23 -27 23 -33 0 -15 -75 -85 -130 -123 -69 -45 -150 -92
-161 -92 -6 0 -9 27 -7 66 l3 67 95 68 c104 75 138 84 177 47z m-17 -267 c-1
-67 -87 -173 -178 -220 -47 -24 -91 -29 -74 -8 7 8 8 26 2 52 -21 88 -22 87
108 157 123 68 142 70 142 19z"/>
<path d="M920 2500 c-41 -21 -103 -46 -137 -56 -61 -16 -63 -18 -63 -49 0 -19
8 -39 19 -49 19 -17 24 -17 117 14 84 28 101 31 133 22 l36 -11 -11 -263 c-7
-173 -7 -274 0 -296 6 -22 6 -48 -2 -83 -7 -28 -12 -87 -12 -132 l0 -82 -188
-188 c-103 -103 -191 -187 -195 -187 -11 0 -9 55 4 87 14 39 53 77 99 98 36
16 38 19 28 47 -25 70 25 201 146 381 69 104 72 121 30 159 -23 19 -86 38
-131 38 l-33 0 0 67 c0 79 -19 113 -89 162 -81 54 -94 39 -51 -60 l30 -71 0
-271 0 -271 -65 -207 c-36 -113 -65 -219 -65 -234 0 -22 16 -54 47 -94 12 -17
175 131 320 292 l70 78 17 -93 c31 -172 63 -238 114 -238 24 0 24 2 18 47 -3
26 -9 133 -13 238 -7 208 -2 230 52 273 33 27 32 41 -7 49 l-31 6 7 321 c3
177 9 359 12 406 l6 85 -65 53 c-35 28 -66 52 -68 52 -2 -1 -38 -18 -79 -40z
m-94 -661 c3 -6 -10 -28 -30 -48 l-37 -36 7 30 c14 59 41 84 60 54z"/>
</g>
</svg>
