<?xml version="1.0" standalone="no"?>
<!DOCTYPE svg PUBLIC "-//W3C//DTD SVG 20010904//EN"
 "http://www.w3.org/TR/2001/REC-SVG-20010904/DTD/svg10.dtd">
<svg version="1.0" xmlns="http://www.w3.org/2000/svg"
 width="360.000000pt" height="360.000000pt" viewBox="0 0 360.000000 360.000000"
 preserveAspectRatio="xMidYMid meet">
<metadata>
Created by potrace 1.15, written by Peter Selinger 2001-2017
</metadata>
<g transform="translate(0.000000,360.000000) scale(0.100000,-0.100000)"
fill="#000000" stroke="none">
<path d="M1265 2688 c-22 -57 -55 -226 -55 -286 0 -58 28 -120 86 -194 43 -54
44 -59 44 -127 l0 -70 -357 -282 c-197 -155 -362 -286 -368 -290 -5 -4 -34 -2
-62 4 -29 6 -55 8 -59 4 -13 -13 8 -61 41 -94 65 -65 95 -50 406 197 145 116
271 210 281 210 32 0 30 -42 -7 -156 -54 -158 -157 -416 -232 -578 -84 -182
-85 -185 -36 -230 21 -19 43 -36 50 -36 12 0 96 100 167 198 21 29 40 51 43
48 2 -2 9 -53 14 -113 21 -234 57 -383 92 -383 18 0 47 32 47 51 0 8 -5 20
-12 27 -9 9 -9 15 0 24 9 9 12 76 12 239 0 254 12 449 36 557 14 64 33 99 174
325 158 252 182 279 212 249 6 -6 4 -77 -7 -198 -13 -144 -21 -195 -35 -214
-67 -95 -110 -239 -110 -368 0 -120 34 -182 101 -182 26 0 27 3 58 147 82 387
123 790 89 888 -13 39 -15 40 -57 40 l-45 0 -166 -225 c-140 -189 -171 -226
-194 -228 -23 -3 -27 0 -23 15 3 10 9 71 13 137 l7 118 56 25 c75 33 101 58
101 100 0 38 -30 62 -107 84 l-45 12 8 121 c15 204 10 334 -13 388 -29 63 -56
88 -97 88 -30 0 -36 -4 -51 -42z m75 -293 c0 -96 -2 -175 -5 -175 -14 0 -40
60 -50 116 -9 47 -10 86 -2 149 9 80 12 85 34 85 l23 0 0 -175z m-60 -1310 c0
-41 -2 -45 -25 -45 -23 0 -25 4 -25 45 0 41 2 45 25 45 23 0 25 -4 25 -45z"/>
<path d="M2158 2196 c-10 -39 -18 -48 -62 -72 -82 -44 -165 -105 -172 -126
-12 -38 16 -51 81 -39 32 6 65 11 72 11 10 0 12 -45 7 -237 -8 -286 3 -429 39
-506 27 -59 83 -119 137 -147 178 -91 516 -74 766 40 l65 29 -5 43 c-3 24 -15
167 -26 318 -12 151 -23 285 -26 298 -4 21 -37 31 -48 14 -15 -25 -57 -397
-54 -484 l3 -96 -107 -31 c-102 -30 -115 -31 -285 -31 -185 1 -233 9 -275 47
-47 42 -52 68 -56 263 -6 297 19 461 95 617 l36 74 -28 29 c-25 27 -36 30 -87
30 l-58 0 -12 -44z"/>
</g>
</svg>
