<?xml version="1.0" standalone="no"?>
<!DOCTYPE svg PUBLIC "-//W3C//DTD SVG 20010904//EN"
 "http://www.w3.org/TR/2001/REC-SVG-20010904/DTD/svg10.dtd">
<svg version="1.0" xmlns="http://www.w3.org/2000/svg"
 width="360.000000pt" height="360.000000pt" viewBox="0 0 360.000000 360.000000"
 preserveAspectRatio="xMidYMid meet">
<metadata>
Created by potrace 1.15, written by Peter Selinger 2001-2017
</metadata>
<g transform="translate(0.000000,360.000000) scale(0.100000,-0.100000)"
fill="#000000" stroke="none">
<path d="M2080 2805 c0 -28 4 -35 20 -35 27 0 25 -15 -10 -111 -51 -141 -119
-226 -201 -250 -34 -11 -65 -10 -183 6 -235 30 -238 30 -261 5 -15 -16 -17
-25 -9 -38 26 -42 153 -72 304 -72 80 0 81 0 75 -22 -11 -35 -63 -126 -111
-194 -63 -90 -138 -144 -217 -159 -35 -7 -37 -9 -37 -47 0 -40 33 -98 55 -98
28 0 252 257 361 413 38 55 40 57 87 57 26 0 101 -14 167 -32 l119 -31 -116
-124 c-64 -68 -113 -126 -110 -129 19 -20 214 79 315 159 62 50 73 62 70 85
-2 22 -15 33 -76 63 -39 20 -118 54 -175 74 -56 21 -105 41 -109 44 -4 4 40
81 97 171 105 165 118 198 95 240 -9 18 -64 42 -122 54 -26 6 -28 4 -28 -29z"/>
<path d="M1937 1889 c-21 -11 -41 -27 -44 -36 -9 -24 30 -50 87 -58 l50 -7 0
-76 0 -77 -198 -84 c-244 -104 -541 -242 -862 -397 -205 -100 -250 -118 -275
-113 -16 4 -40 7 -52 8 -35 2 -29 -39 10 -77 28 -28 40 -32 85 -32 45 0 65 8
174 71 150 86 395 207 583 287 153 65 469 188 509 198 l26 6 0 -85 c0 -52 4
-89 11 -93 7 -4 8 -9 1 -13 -6 -4 -6 -99 1 -272 12 -288 5 -359 -34 -395 -18
-17 -20 -16 -42 3 -116 103 -166 143 -175 143 -29 0 -5 -47 91 -173 113 -151
130 -161 180 -109 67 70 77 155 77 643 l0 389 48 24 c128 64 364 136 450 136
23 0 60 -9 82 -20 30 -16 59 -20 128 -20 82 0 90 2 112 25 23 24 23 26 8 59
-25 52 -74 70 -204 74 l-111 4 -239 -66 c-131 -37 -247 -69 -256 -72 -16 -5
-18 3 -18 70 0 90 -9 103 -94 135 -68 25 -62 25 -109 0z"/>
<path d="M2350 1251 l0 -41 48 0 c100 0 206 -51 235 -112 8 -18 17 -51 19 -73
3 -36 1 -40 -22 -43 -46 -6 -90 -23 -90 -37 0 -41 135 -125 202 -125 31 0 40
5 57 34 17 27 21 50 21 116 0 76 -3 87 -31 131 -73 115 -178 167 -366 184
l-73 6 0 -40z"/>
<path d="M1447 1168 c-57 -243 -69 -312 -58 -330 9 -14 9 -23 1 -33 -8 -10 -2
-20 27 -44 64 -53 76 -48 225 102 115 114 222 206 276 236 23 13 7 41 -23 41
-47 0 -187 -80 -328 -187 -31 -25 -62 -41 -68 -37 -12 7 -8 135 7 232 7 42 6
42 -24 42 -23 0 -31 -5 -35 -22z"/>
</g>
</svg>
