<?xml version="1.0" standalone="no"?>
<!DOCTYPE svg PUBLIC "-//W3C//DTD SVG 20010904//EN"
 "http://www.w3.org/TR/2001/REC-SVG-20010904/DTD/svg10.dtd">
<svg version="1.0" xmlns="http://www.w3.org/2000/svg"
 width="360.000000pt" height="360.000000pt" viewBox="0 0 360.000000 360.000000"
 preserveAspectRatio="xMidYMid meet">
<metadata>
Created by potrace 1.15, written by Peter Selinger 2001-2017
</metadata>
<g transform="translate(0.000000,360.000000) scale(0.100000,-0.100000)"
fill="#000000" stroke="none">
<path d="M1943 2713 c-4 -10 12 -90 35 -183 41 -162 42 -171 42 -332 l0 -166
-47 -38 c-155 -126 -414 -354 -516 -453 -109 -106 -119 -114 -134 -98 -15 15
-13 31 21 211 l38 195 53 26 c84 41 82 53 -22 135 l-31 25 18 255 18 255 -41
43 c-35 36 -47 42 -83 42 -28 0 -46 -6 -59 -20 -16 -18 -17 -21 -1 -44 9 -14
34 -30 56 -37 22 -7 40 -17 40 -23 0 -6 -9 -130 -21 -276 -14 -183 -26 -272
-36 -288 -29 -46 -261 -197 -540 -351 l-92 -50 -70 29 c-38 17 -72 30 -75 30
-12 0 -6 -87 7 -102 21 -28 81 -58 114 -58 22 0 113 46 314 160 253 144 309
172 309 155 0 -3 -39 -83 -86 -178 -104 -206 -203 -428 -245 -546 -27 -77 -31
-99 -32 -211 -2 -154 9 -190 58 -190 47 0 87 51 170 211 38 75 72 129 81 129
8 0 14 -6 14 -14 0 -37 22 -230 35 -308 20 -119 30 -138 72 -138 18 0 36 6 38
13 2 6 -11 120 -29 252 -27 202 -30 247 -21 285 8 31 8 56 1 83 -9 35 -7 45
22 100 67 129 202 276 268 293 53 14 344 -169 344 -216 0 -10 -47 -66 -105
-123 -120 -121 -250 -212 -360 -252 -68 -25 -74 -29 -64 -48 10 -18 18 -19 78
-14 135 12 261 76 376 192 39 38 86 94 105 122 25 38 42 53 58 53 25 0 279
-226 318 -284 79 -116 295 -190 594 -203 l135 -6 11 31 c11 27 9 34 -15 60
-25 28 -35 31 -276 71 -137 24 -256 48 -265 54 -11 9 -376 312 -452 376 -4 4
10 108 31 231 33 194 36 226 23 234 -11 6 -12 10 -2 16 10 6 10 18 0 58 -12
44 -11 53 4 76 43 66 186 136 278 136 l39 0 -3 48 c-3 40 -6 47 -23 45 -11 -1
-52 -5 -91 -9 l-72 -7 -44 42 c-53 48 -71 88 -93 196 -22 115 -61 236 -88 276
-26 40 -73 52 -84 22z m237 -578 c0 -24 -5 -35 -14 -35 -24 0 -29 19 -12 45
22 33 26 31 26 -10z m-180 -491 c-12 -98 -25 -182 -28 -186 -18 -18 -161 62
-244 136 l-28 25 58 54 c31 29 92 86 135 126 l79 74 24 -25 25 -24 -21 -180z
m-764 -249 c16 -108 -141 -434 -241 -499 l-25 -16 0 67 c0 81 30 172 90 276
59 103 149 229 160 222 5 -3 12 -25 16 -50z"/>
</g>
</svg>
