<?xml version="1.0" standalone="no"?>
<!DOCTYPE svg PUBLIC "-//W3C//DTD SVG 20010904//EN"
 "http://www.w3.org/TR/2001/REC-SVG-20010904/DTD/svg10.dtd">
<svg version="1.0" xmlns="http://www.w3.org/2000/svg"
 width="360.000000pt" height="360.000000pt" viewBox="0 0 360.000000 360.000000"
 preserveAspectRatio="xMidYMid meet">
<metadata>
Created by potrace 1.15, written by Peter Selinger 2001-2017
</metadata>
<g transform="translate(0.000000,360.000000) scale(0.100000,-0.100000)"
fill="#000000" stroke="none">
<path d="M1222 2678 c-12 -16 -32 -85 -32 -114 0 -20 3 -21 40 -11 32 9 43 8
55 -3 12 -13 12 -31 -6 -140 -11 -69 -17 -140 -14 -158 4 -24 -3 -61 -25 -127
l-31 -94 -157 -104 c-283 -189 -442 -266 -549 -267 -48 0 -53 -2 -53 -22 0
-12 18 -38 42 -61 39 -37 44 -39 89 -35 86 9 258 104 476 265 59 43 80 53 113
53 22 0 40 -5 40 -10 0 -6 -18 -63 -39 -128 -46 -136 -117 -307 -243 -585
l-90 -199 12 -51 c19 -81 37 -117 57 -117 11 0 56 45 112 110 51 61 97 110
102 110 5 0 9 -73 9 -163 0 -115 4 -167 12 -175 10 -10 10 -17 0 -32 -10 -17
-7 -24 26 -54 63 -61 90 -47 72 38 -8 41 -8 76 0 137 10 71 8 110 -11 275 -13
112 -19 207 -15 229 16 84 170 341 379 629 55 77 111 161 124 188 34 70 105
110 267 148 104 25 126 25 126 1 0 -18 -167 -318 -353 -634 -108 -184 -210
-386 -271 -539 l-47 -117 21 -41 c19 -37 24 -41 53 -38 39 4 71 48 94 131 l17
58 70 -8 c179 -20 316 3 534 91 63 25 123 46 135 46 57 0 384 -205 570 -357
60 -48 119 -96 132 -107 18 -15 29 -16 51 -9 55 18 44 39 -102 183 -155 152
-300 264 -479 371 -66 39 -121 72 -122 73 -1 1 29 103 68 226 53 170 67 229
60 242 -7 11 -7 19 -1 23 25 16 -13 140 -53 173 -32 27 -190 -57 -413 -220
-59 -43 -110 -75 -115 -72 -19 11 71 184 270 516 126 211 140 239 131 262 -8
22 -16 26 -50 26 -33 0 -56 -11 -133 -64 -116 -80 -218 -133 -281 -145 -43 -8
-59 -19 -143 -102 -134 -133 -279 -308 -375 -454 -45 -69 -88 -125 -94 -125
-38 0 -29 29 52 180 46 85 84 165 84 176 0 48 73 104 135 104 23 0 25 4 25 40
0 48 -22 62 -119 80 -50 9 -66 9 -78 -2 -14 -11 -16 -10 -11 12 4 14 14 103
24 199 l18 174 -69 63 c-69 62 -102 76 -123 52z m1201 -854 c15 -6 17 -15 11
-68 -16 -156 -58 -264 -137 -351 l-44 -49 -138 32 c-105 25 -141 30 -151 21
-10 -8 -14 -8 -14 0 0 6 -11 11 -25 11 -14 0 -25 3 -25 6 0 15 105 136 180
207 108 104 284 216 315 202 6 -3 18 -8 28 -11z m-1298 -531 c-9 -38 -57 -126
-71 -130 -8 -3 -9 9 -3 42 13 68 40 115 66 115 12 0 13 -7 8 -27z m939 5 c61
-13 111 -28 113 -35 17 -45 -103 -115 -258 -151 -75 -17 -94 -18 -145 -8 -70
14 -78 31 -44 101 27 55 87 94 163 105 29 4 54 8 57 9 3 1 54 -9 114 -21z"/>
</g>
</svg>
