<?xml version="1.0" standalone="no"?>
<!DOCTYPE svg PUBLIC "-//W3C//DTD SVG 20010904//EN"
 "http://www.w3.org/TR/2001/REC-SVG-20010904/DTD/svg10.dtd">
<svg version="1.0" xmlns="http://www.w3.org/2000/svg"
 width="360.000000pt" height="360.000000pt" viewBox="0 0 360.000000 360.000000"
 preserveAspectRatio="xMidYMid meet">
<metadata>
Created by potrace 1.15, written by Peter Selinger 2001-2017
</metadata>
<g transform="translate(0.000000,360.000000) scale(0.100000,-0.100000)"
fill="#000000" stroke="none">
<path d="M1996 2879 c-10 -17 -16 -31 -14 -33 1 -1 28 -20 59 -43 45 -34 56
-46 52 -65 -2 -13 -21 -139 -42 -280 -36 -237 -42 -260 -69 -300 -56 -81 -184
-178 -355 -268 l-87 -46 25 -24 c21 -20 31 -22 72 -16 48 6 161 57 262 117
l54 32 -6 -32 c-25 -122 -210 -418 -454 -724 -91 -114 -94 -119 -77 -138 9
-10 25 -19 35 -19 32 0 85 39 108 80 55 97 158 174 278 205 52 14 163 21 163
11 0 -2 16 -116 35 -253 19 -136 35 -258 35 -270 0 -20 -5 -23 -37 -23 l-38 0
-91 163 c-69 123 -96 163 -112 165 -14 2 -22 -2 -22 -11 0 -18 125 -325 182
-448 54 -115 106 -197 130 -205 10 -3 31 4 47 15 27 20 28 23 19 62 -8 29 -8
51 0 77 9 27 9 122 0 359 -6 178 -9 325 -7 328 7 6 260 -39 384 -69 223 -54
378 -115 470 -186 29 -22 56 -40 61 -40 5 0 20 9 33 19 33 25 21 72 -33 125
-102 103 -329 185 -718 261 -175 34 -201 45 -220 95 -27 70 -27 121 -4 348 28
276 21 264 178 316 107 35 182 68 192 85 4 5 -11 23 -33 40 -33 27 -47 31 -97
31 -51 0 -63 -4 -110 -40 -52 -39 -104 -53 -104 -27 0 6 14 118 30 247 16 129
30 248 30 263 0 16 -17 53 -40 88 l-41 59 -52 0 c-48 0 -54 -3 -71 -31z m3
-1285 c17 -45 19 -60 9 -71 -9 -11 -9 -19 0 -34 7 -11 8 -19 2 -19 -5 0 -10
-9 -10 -20 0 -18 -7 -20 -84 -20 l-85 0 18 53 c11 30 26 67 35 84 15 30 70 83
85 83 5 0 18 -25 30 -56z"/>
<path d="M1150 2608 c0 -13 18 -41 42 -65 l41 -42 -22 -207 -22 -208 -54 -61
c-113 -129 -315 -284 -425 -326 -67 -26 -145 -36 -154 -20 -12 18 -66 -26 -66
-53 0 -22 6 -23 97 -33 77 -8 107 -8 143 3 66 19 196 102 364 231 l49 37 -7
-29 c-15 -64 -109 -235 -185 -335 -43 -58 -142 -167 -220 -243 -149 -145 -165
-173 -102 -170 74 3 227 139 400 357 51 64 99 116 105 116 9 0 15 -63 24 -237
6 -131 9 -239 7 -242 -2 -2 -36 27 -75 65 -60 57 -74 66 -88 57 -9 -6 -16 -17
-14 -25 8 -29 134 -293 172 -359 35 -60 45 -69 69 -69 56 0 56 -5 38 427 -10
218 -15 398 -13 400 2 2 79 -26 170 -63 144 -57 171 -65 192 -56 20 10 24 19
24 55 l0 44 -107 41 c-134 52 -240 109 -266 144 l-20 26 40 103 40 103 66 27
c75 31 116 58 117 77 0 7 -12 31 -26 53 -20 32 -30 40 -47 35 -12 -2 -46 -8
-74 -12 -64 -8 -61 -26 -33 201 l20 163 -58 56 c-51 50 -62 56 -99 56 -38 0
-43 -3 -43 -22z"/>
</g>
</svg>
