<?xml version="1.0" standalone="no"?>
<!DOCTYPE svg PUBLIC "-//W3C//DTD SVG 20010904//EN"
 "http://www.w3.org/TR/2001/REC-SVG-20010904/DTD/svg10.dtd">
<svg version="1.0" xmlns="http://www.w3.org/2000/svg"
 width="360.000000pt" height="360.000000pt" viewBox="0 0 360.000000 360.000000"
 preserveAspectRatio="xMidYMid meet">
<metadata>
Created by potrace 1.15, written by Peter Selinger 2001-2017
</metadata>
<g transform="translate(0.000000,360.000000) scale(0.100000,-0.100000)"
fill="#000000" stroke="none">
<path d="M2033 2813 c-34 -54 -78 -143 -98 -198 -66 -178 -138 -285 -218 -324
-75 -36 -83 -32 -91 48 -17 191 -112 326 -181 261 l-23 -22 29 -62 c16 -35 41
-109 55 -166 31 -123 28 -137 -48 -174 -53 -25 -229 -66 -286 -66 -50 0 -46
-17 8 -45 28 -14 60 -35 71 -46 l20 -20 107 21 c59 11 112 20 118 20 15 0 35
-93 22 -101 -7 -5 -7 -22 1 -57 7 -36 7 -66 -1 -111 -19 -102 15 -284 62 -334
16 -17 21 -17 137 2 175 30 165 33 161 -40 l-3 -61 -245 -97 c-135 -53 -374
-148 -533 -211 l-288 -113 -28 21 c-28 20 -30 20 -45 3 -9 -10 -16 -26 -16
-37 0 -27 60 -84 88 -84 63 0 317 99 452 175 45 25 84 44 87 42 2 -3 -10 -78
-28 -167 -30 -153 -31 -163 -16 -195 21 -45 52 -54 83 -24 32 30 50 95 68 240
7 63 21 129 29 146 21 39 76 87 135 117 48 24 202 76 226 76 20 0 38 -223 24
-301 -8 -50 -8 -63 3 -70 12 -7 11 -21 -3 -89 -9 -44 -28 -105 -42 -135 -43
-95 -90 -84 -215 52 -48 52 -75 74 -85 70 -23 -9 -20 -26 13 -76 74 -110 227
-231 294 -231 29 0 39 6 55 33 66 106 108 456 76 640 -5 29 0 49 21 93 32 65
52 80 122 87 29 3 65 12 80 20 17 9 97 19 213 27 l185 13 103 -34 102 -33 35
34 35 35 -26 33 c-45 56 -164 101 -198 73 -9 -8 -15 -8 -18 -1 -2 7 -109 -5
-313 -34 -170 -25 -313 -42 -317 -40 -4 3 -8 27 -8 53 0 47 1 49 98 144 l97
97 -30 24 -29 23 22 130 c45 258 98 463 131 504 18 23 19 23 135 12 116 -11
118 -11 142 12 31 29 28 55 -8 73 -30 14 -164 32 -240 32 l-48 0 0 78 c0 95
-38 225 -85 286 -50 66 -62 61 -132 -51z m76 -136 c6 -35 11 -93 11 -129 0
-61 -2 -68 -30 -91 -29 -25 -127 -67 -155 -67 -20 0 -19 15 9 96 57 168 103
254 136 254 14 0 20 -13 29 -63z m-13 -372 c10 -24 -14 -235 -36 -321 -44
-174 -139 -304 -264 -363 -79 -37 -116 -46 -116 -28 0 7 68 100 150 206 83
106 150 200 150 209 0 36 -30 52 -102 52 -68 0 -68 0 -68 28 0 97 141 232 243
232 24 0 40 -5 43 -15z m-401 -202 c-30 -127 -46 -153 -73 -120 -8 9 -8 32 0
80 l11 67 35 0 c32 0 34 -2 27 -27z m95 -232 c-15 -31 -26 -41 -45 -41 -14 0
-25 6 -25 13 0 13 81 79 88 72 2 -2 -6 -21 -18 -44z"/>
<path d="M2256 1031 c-3 -5 37 -48 89 -96 56 -52 128 -132 176 -196 75 -103
82 -109 115 -109 23 0 37 6 41 16 9 25 -91 213 -147 276 -63 71 -152 118 -221
118 -26 0 -50 -4 -53 -9z"/>
</g>
</svg>
