<?xml version="1.0" standalone="no"?>
<!DOCTYPE svg PUBLIC "-//W3C//DTD SVG 20010904//EN"
 "http://www.w3.org/TR/2001/REC-SVG-20010904/DTD/svg10.dtd">
<svg version="1.0" xmlns="http://www.w3.org/2000/svg"
 width="360.000000pt" height="360.000000pt" viewBox="0 0 360.000000 360.000000"
 preserveAspectRatio="xMidYMid meet">
<metadata>
Created by potrace 1.15, written by Peter Selinger 2001-2017
</metadata>
<g transform="translate(0.000000,360.000000) scale(0.100000,-0.100000)"
fill="#000000" stroke="none">
<path d="M2404 2539 c-69 -36 -137 -85 -256 -187 -48 -41 -93 -72 -100 -69 -7
2 -19 24 -25 48 -20 73 -48 109 -83 109 -27 0 -36 -9 -74 -67 -24 -38 -83
-142 -131 -233 -49 -91 -89 -166 -89 -166 -1 -2 -161 18 -163 20 -2 1 6 76 17
167 24 196 25 241 6 278 -21 40 -83 91 -110 91 -26 0 -76 -35 -76 -53 0 -6 23
-34 51 -63 l50 -51 -11 -124 c-15 -169 -27 -253 -47 -322 l-16 -59 -116 -77
c-253 -169 -422 -256 -523 -267 -52 -6 -58 -9 -58 -30 0 -14 14 -34 38 -54 32
-27 43 -31 80 -27 79 8 275 119 482 271 l65 48 3 -42 c3 -35 -11 -74 -88 -242
-113 -248 -213 -493 -235 -577 -16 -63 -16 -64 6 -87 12 -13 31 -24 41 -24 55
0 122 70 180 187 l31 64 24 -22 c22 -21 23 -29 23 -148 0 -141 9 -187 46 -231
31 -36 44 -37 72 -7 28 30 28 45 -4 224 -25 140 -26 155 -15 273 25 279 122
572 291 882 61 112 161 278 180 301 4 4 33 -27 65 -70 32 -43 59 -80 61 -81 1
-2 26 1 56 8 52 11 54 12 113 101 75 113 165 205 230 236 79 37 85 34 85 -41
0 -62 -2 -68 -59 -153 -72 -107 -221 -287 -404 -488 -75 -82 -137 -157 -137
-166 0 -25 66 -79 96 -79 33 0 158 58 296 138 59 34 109 62 112 62 22 0 -23
-51 -240 -277 l-245 -256 28 -29 c25 -27 32 -29 73 -24 43 6 213 84 318 145
57 35 62 32 32 -17 -52 -85 -234 -242 -355 -307 -104 -55 -181 -109 -196 -136
-8 -16 -4 -28 22 -64 18 -25 33 -45 33 -45 1 0 158 52 351 114 l350 115 168
-71 169 -70 29 28 c61 58 19 133 -107 191 -96 44 -164 44 -384 1 -107 -20
-195 -36 -196 -35 -2 1 47 56 108 122 175 188 228 259 228 304 0 77 -30 78
-203 10 -71 -28 -131 -48 -134 -45 -4 3 87 100 200 216 186 189 207 213 207
243 0 38 -34 77 -67 77 -62 0 -224 -68 -396 -167 -43 -25 -80 -43 -83 -40 -3
3 49 68 116 144 196 221 334 399 389 499 20 35 21 46 12 81 -6 22 -24 59 -41
81 -26 37 -35 42 -69 42 -24 0 -61 -12 -97 -31z m-1129 -1259 c8 -13 -27 -91
-48 -109 -15 -12 -17 -11 -17 3 0 24 41 116 51 116 4 0 11 -4 14 -10z"/>
</g>
</svg>
