<?xml version="1.0" standalone="no"?>
<!DOCTYPE svg PUBLIC "-//W3C//DTD SVG 20010904//EN"
 "http://www.w3.org/TR/2001/REC-SVG-20010904/DTD/svg10.dtd">
<svg version="1.0" xmlns="http://www.w3.org/2000/svg"
 width="360.000000pt" height="360.000000pt" viewBox="0 0 360.000000 360.000000"
 preserveAspectRatio="xMidYMid meet">
<metadata>
Created by potrace 1.15, written by Peter Selinger 2001-2017
</metadata>
<g transform="translate(0.000000,360.000000) scale(0.100000,-0.100000)"
fill="#000000" stroke="none">
<path d="M2018 2795 c-138 -30 -213 -52 -259 -76 -32 -16 -39 -17 -49 -4 -17
21 -86 20 -94 -1 -10 -27 -7 -34 27 -54 41 -25 106 -25 216 0 47 10 89 16 93
14 4 -3 8 -15 8 -28 0 -12 6 -31 14 -41 15 -21 8 -26 139 79 l87 70 -32 33
c-17 18 -34 33 -37 32 -4 0 -54 -11 -113 -24z"/>
<path d="M2041 2475 c-34 -37 -109 -129 -168 -206 -58 -76 -112 -139 -118
-139 -26 0 -34 24 -23 69 8 31 8 56 -1 95 -20 90 -32 126 -40 126 -16 0 -41
-79 -53 -170 -9 -72 -9 -100 1 -141 7 -28 11 -52 9 -55 -10 -9 -181 -63 -188
-59 -4 2 -20 38 -36 80 l-29 75 -22 -28 c-23 -28 -30 -67 -13 -77 5 -3 7 -11
4 -19 -3 -7 0 -24 5 -38 7 -18 6 -36 -1 -56 -10 -25 -8 -44 11 -109 28 -97 88
-227 126 -272 27 -32 31 -33 81 -28 66 7 165 46 277 109 l88 50 25 -23 c22
-21 25 -30 22 -84 l-3 -60 -100 -53 c-582 -310 -1076 -542 -1153 -542 -10 0
-25 11 -32 25 l-14 26 -23 -28 c-40 -49 -27 -89 37 -118 37 -17 46 -17 93 -5
84 21 226 84 484 213 134 66 245 119 247 116 3 -3 -27 -107 -65 -232 -68 -219
-70 -229 -53 -248 24 -26 44 -24 84 10 34 28 34 28 24 80 -10 47 -8 61 21 149
90 277 210 425 370 457 25 5 36 0 57 -22 25 -27 27 -34 32 -173 8 -181 8 -172
0 -367 -4 -110 -10 -166 -18 -173 -10 -7 -45 32 -141 152 -71 90 -130 158
-132 152 -10 -31 154 -359 207 -415 31 -33 43 -39 78 -39 23 0 42 2 42 4 0 2
11 58 25 126 20 99 25 152 25 274 0 100 4 156 11 163 9 9 3 14 -21 20 -42 11
-52 33 -16 33 l26 0 0 113 c0 99 3 119 23 157 41 79 186 137 397 161 82 10
116 8 249 -10 146 -20 154 -20 167 -3 19 24 19 24 -28 77 l-42 48 -171 -6
c-192 -7 -307 -24 -447 -67 -53 -17 -101 -30 -107 -30 -7 0 -11 20 -11 50 l0
50 234 231 c259 254 321 326 311 358 -10 32 -89 96 -137 111 -24 8 -96 17
-161 20 l-118 5 -24 60 c-34 82 -56 109 -92 113 -25 3 -39 -7 -92 -63z m79
-129 l0 -63 -59 -22 c-32 -11 -70 -21 -84 -21 -24 0 -26 2 -17 26 17 43 50 84
93 115 60 43 67 40 67 -35z m367 -103 c22 -8 22 -10 -40 -116 -83 -142 -104
-167 -175 -205 -90 -48 -282 -92 -282 -64 0 12 86 168 124 224 41 62 118 140
161 163 23 13 48 15 110 12 44 -3 90 -9 102 -14z m-467 -111 c0 -39 -32 -121
-68 -178 -55 -84 -119 -151 -228 -240 l-95 -77 -24 23 c-23 22 -25 31 -25 114
0 78 3 93 22 113 26 28 68 31 68 5 0 -34 29 -62 64 -62 31 0 33 3 50 58 21 64
58 142 90 185 46 64 146 104 146 59z"/>
<path d="M2352 1150 c2 -18 10 -36 18 -40 94 -43 135 -69 180 -113 55 -54 135
-157 186 -239 37 -61 68 -66 78 -13 6 28 0 50 -30 113 -104 218 -203 306 -364
319 l-71 6 3 -33z"/>
</g>
</svg>
