<?xml version="1.0" standalone="no"?>
<!DOCTYPE svg PUBLIC "-//W3C//DTD SVG 20010904//EN"
 "http://www.w3.org/TR/2001/REC-SVG-20010904/DTD/svg10.dtd">
<svg version="1.0" xmlns="http://www.w3.org/2000/svg"
 width="360.000000pt" height="360.000000pt" viewBox="0 0 360.000000 360.000000"
 preserveAspectRatio="xMidYMid meet">
<metadata>
Created by potrace 1.15, written by Peter Selinger 2001-2017
</metadata>
<g transform="translate(0.000000,360.000000) scale(0.100000,-0.100000)"
fill="#000000" stroke="none">
<path d="M1280 2633 c0 -21 8 -33 30 -45 26 -15 30 -23 30 -59 0 -99 -42 -475
-57 -502 -35 -69 -143 -165 -325 -288 -94 -64 -106 -69 -154 -69 -29 0 -56 5
-59 11 -10 15 -34 -21 -35 -53 0 -40 9 -56 46 -79 25 -15 44 -19 67 -15 42 8
184 100 321 209 60 48 115 87 123 87 7 0 13 -9 13 -19 0 -10 -48 -124 -106
-252 -117 -259 -224 -517 -250 -605 -16 -55 -16 -60 1 -91 20 -37 45 -42 98
-19 46 19 117 102 156 181 27 54 37 66 54 63 21 -3 22 -9 28 -143 6 -152 17
-192 56 -202 42 -10 46 6 34 129 -6 63 -11 187 -11 276 l0 162 130 260 c72
143 126 260 122 260 -5 0 -57 -54 -117 -120 -59 -66 -109 -119 -111 -118 -1 2
2 71 8 153 l11 150 94 75 c52 41 101 81 110 87 15 12 15 14 -2 33 -24 26 -83
26 -135 0 l-40 -20 0 38 c0 21 9 125 20 231 l20 193 -20 46 c-31 70 -46 82
-102 82 -46 0 -48 -1 -48 -27z m-24 -1250 c-10 -74 -53 -147 -138 -236 -92
-95 -93 -87 -12 78 60 123 116 205 140 205 14 0 16 -8 10 -47z"/>
<path d="M2480 2416 c-145 -61 -246 -125 -279 -180 -21 -33 -28 -76 -13 -76 4
0 91 44 193 98 l186 98 52 -12 c95 -21 117 -66 90 -183 -7 -30 -6 -47 1 -56 8
-10 8 -19 -1 -33 -10 -16 -10 -23 0 -35 9 -12 9 -17 0 -23 -17 -10 -5 -302 16
-413 12 -62 14 -91 6 -113 -8 -21 -7 -43 0 -74 8 -32 8 -56 0 -88 -14 -58 -14
-109 1 -124 7 -7 8 -12 2 -12 -7 0 -7 -19 -1 -61 7 -40 7 -80 0 -117 -7 -40
-7 -62 0 -74 8 -12 7 -23 -2 -42 -11 -20 -12 -28 -1 -41 18 -21 0 -145 -21
-145 -11 0 -122 149 -233 313 -83 124 -156 257 -156 283 0 8 16 20 35 28 66
28 235 211 235 255 0 10 -11 28 -25 41 -25 23 -28 23 -86 11 -34 -7 -63 -11
-64 -9 -2 2 11 62 29 133 l32 130 -30 53 c-30 51 -32 52 -66 47 -43 -8 -138
-50 -163 -73 -50 -45 -87 -191 -57 -228 11 -12 11 -17 1 -23 -9 -6 -10 -30 -2
-107 18 -169 61 -291 140 -399 20 -27 79 -120 131 -205 109 -181 241 -378 269
-404 28 -25 73 -18 89 16 31 66 78 651 54 688 -6 10 -7 20 -2 22 5 2 0 171
-13 400 -15 288 -18 414 -11 457 6 37 6 64 0 73 -6 11 -3 24 12 46 27 37 27
43 1 76 -29 37 -84 63 -181 86 -102 24 -100 24 -168 -4z m-140 -680 c-43 -182
-40 -207 30 -226 22 -6 40 -14 40 -19 0 -14 -70 -100 -91 -111 -10 -6 -24 -8
-29 -5 -15 9 -39 60 -56 114 -18 59 -18 81 1 81 18 0 18 8 0 40 -28 48 -9 167
36 224 21 26 78 49 92 36 4 -3 -6 -64 -23 -134z"/>
<path d="M1895 2215 c-106 -31 -182 -61 -217 -86 -21 -16 -28 -28 -28 -55 0
-19 6 -37 13 -39 6 -3 70 17 142 45 71 27 136 50 144 50 20 0 10 -297 -14
-399 -28 -121 -39 -141 -79 -141 -32 0 -34 1 -39 46 -2 26 -14 58 -24 73 -19
24 -25 26 -99 26 -77 0 -79 -1 -79 -25 0 -20 6 -25 40 -32 53 -11 65 -30 65
-104 0 -52 -14 -101 -89 -315 l-89 -254 26 -22 c15 -13 39 -23 54 -23 42 0
101 80 139 186 45 131 93 224 134 264 l36 34 -3 -138 -3 -138 -45 -18 c-41
-17 -45 -21 -44 -52 1 -44 48 -195 74 -235 23 -38 66 -45 93 -15 20 22 24 121
5 140 -8 8 -8 15 2 27 10 12 10 18 0 30 -10 12 -10 19 -2 27 17 17 16 290 0
306 -9 9 -9 15 0 24 15 15 16 152 1 176 -9 14 -2 46 30 151 47 153 53 222 21
256 l-21 22 21 47 c25 60 25 112 0 154 -24 40 -51 41 -165 7z"/>
</g>
</svg>
