<?xml version="1.0" standalone="no"?>
<!DOCTYPE svg PUBLIC "-//W3C//DTD SVG 20010904//EN"
 "http://www.w3.org/TR/2001/REC-SVG-20010904/DTD/svg10.dtd">
<svg version="1.0" xmlns="http://www.w3.org/2000/svg"
 width="360.000000pt" height="360.000000pt" viewBox="0 0 360.000000 360.000000"
 preserveAspectRatio="xMidYMid meet">
<metadata>
Created by potrace 1.15, written by Peter Selinger 2001-2017
</metadata>
<g transform="translate(0.000000,360.000000) scale(0.100000,-0.100000)"
fill="#000000" stroke="none">
<path d="M1691 3222 c-18 -34 105 -691 169 -901 11 -36 18 -66 17 -67 -1 -1
-52 -27 -113 -57 -130 -65 -223 -104 -270 -113 -34 -6 -34 -6 -34 32 0 21 10
68 22 105 l21 67 84 27 c114 37 133 54 133 114 0 38 -5 52 -25 71 l-25 24 -61
-42 c-33 -23 -65 -42 -70 -42 -14 0 -12 20 21 204 l30 169 -21 15 -22 15 24
17 c21 17 22 21 11 59 -22 71 -88 131 -145 131 -27 0 -87 -67 -87 -97 1 -10
21 -33 46 -51 35 -26 43 -37 34 -47 -8 -9 -8 -31 0 -76 20 -125 6 -260 -40
-381 -45 -121 -169 -213 -301 -225 -32 -3 -59 -9 -59 -14 0 -12 58 -53 117
-83 l51 -25 61 24 c33 14 63 25 66 25 3 0 5 -27 5 -59 l0 -60 -347 -265 c-373
-287 -351 -274 -456 -257 l-47 8 0 -42 c0 -34 6 -47 34 -74 30 -29 39 -33 69
-27 73 14 233 128 398 285 84 79 114 102 150 111 145 37 239 87 239 126 0 23
73 18 95 -6 21 -24 41 -1 -360 -407 l-189 -192 22 -160 c19 -134 20 -167 10
-204 -10 -39 -9 -48 8 -78 31 -53 57 -50 120 12 33 33 54 62 54 76 0 26 -35
53 -67 53 -20 0 -23 5 -23 43 0 62 38 97 106 97 46 0 57 -6 183 -95 73 -52
139 -95 145 -95 61 0 116 133 116 283 l0 47 67 0 66 0 -21 -23 c-50 -53 -22
-68 99 -54 l96 12 60 75 c78 97 188 200 214 200 18 0 231 -333 246 -384 46
-155 196 -366 432 -608 106 -110 128 -128 155 -128 54 0 55 15 26 225 -42 288
-65 404 -97 478 -20 46 -43 49 -43 5 0 -33 24 -310 35 -400 8 -68 -9 -63 -93
27 -237 254 -445 581 -537 845 l-26 75 60 90 c112 170 140 244 141 371 0 61
-3 73 -23 92 -13 12 -32 22 -43 22 -18 0 -23 -15 -47 -133 -28 -146 -56 -231
-89 -272 -16 -21 -27 -25 -55 -23 -35 3 -36 5 -75 102 -44 112 -88 257 -88
292 0 20 5 24 29 24 37 0 61 23 61 60 0 38 -24 60 -64 60 -121 0 -192 239
-241 814 -7 75 -10 83 -49 128 -44 51 -78 62 -95 30z m239 -1202 c31 -44 210
-447 210 -473 0 -3 -56 -57 -124 -121 l-124 -117 -97 25 c-73 18 -104 22 -128
15 -48 -14 -54 -12 -66 23 -9 24 -8 59 0 135 l12 103 76 41 c143 78 162 101
119 146 -28 29 -50 29 -96 -2 -39 -26 -102 -34 -102 -12 -1 18 262 266 282
267 9 0 26 -13 38 -30z m-280 -17 c0 -18 -56 -63 -78 -63 -22 0 -21 3 19 34
44 35 59 42 59 29z m-193 -386 c-28 -36 -92 -75 -104 -63 -4 4 21 35 57 69 51
48 66 57 68 44 2 -10 -7 -32 -21 -50z m47 -169 c8 -13 6 -21 -6 -35 -12 -14
-17 -54 -22 -178 -4 -88 -9 -170 -12 -182 -9 -32 -38 -29 -98 11 -73 48 -149
85 -206 99 l-50 13 93 91 c106 105 241 205 270 201 11 -2 25 -11 31 -20z"/>
<path d="M2248 2679 c-21 -11 -38 -26 -38 -33 0 -7 44 -35 98 -62 77 -38 113
-64 174 -124 l77 -76 31 31 c39 40 41 94 6 140 -29 37 -118 87 -218 121 -85
29 -83 28 -130 3z"/>
</g>
</svg>
