<?xml version="1.0" standalone="no"?>
<!DOCTYPE svg PUBLIC "-//W3C//DTD SVG 20010904//EN"
 "http://www.w3.org/TR/2001/REC-SVG-20010904/DTD/svg10.dtd">
<svg version="1.0" xmlns="http://www.w3.org/2000/svg"
 width="360.000000pt" height="360.000000pt" viewBox="0 0 360.000000 360.000000"
 preserveAspectRatio="xMidYMid meet">
<metadata>
Created by potrace 1.15, written by Peter Selinger 2001-2017
</metadata>
<g transform="translate(0.000000,360.000000) scale(0.100000,-0.100000)"
fill="#000000" stroke="none">
<path d="M1835 2850 c-38 -15 -46 -35 -43 -102 l3 -63 32 1 c18 1 30 -2 27 -7
-12 -19 -226 -189 -238 -189 -8 0 -15 19 -19 51 -9 70 -28 89 -89 89 -54 0
-58 -7 -24 -39 l24 -23 -55 -164 c-53 -159 -54 -166 -38 -185 37 -40 63 -27
222 116 141 126 173 149 173 126 0 -25 -77 -225 -112 -294 -41 -78 -106 -160
-157 -196 -15 -11 -59 -29 -97 -39 -38 -11 -246 -96 -463 -191 -369 -161 -396
-171 -429 -161 -20 5 -36 8 -36 7 -1 -1 -7 -13 -14 -25 -7 -13 -12 -25 -10
-26 2 -1 20 -16 41 -34 44 -37 85 -42 112 -12 16 18 16 20 2 20 -10 0 -17 7
-17 15 0 17 40 21 57 4 7 -7 30 -1 79 24 235 118 615 277 697 292 37 7 37 7
58 -40 l21 -48 62 6 c33 4 108 9 166 13 125 8 125 11 -16 -97 -234 -176 -428
-272 -596 -294 -43 -6 -48 -9 -48 -32 0 -24 1 -25 53 -18 134 17 290 71 497
173 209 102 191 96 185 69 -8 -30 17 -51 80 -70 93 -26 83 -37 -165 -192 -207
-129 -225 -138 -297 -151 -139 -24 -163 -44 -107 -93 38 -34 41 -35 134 -21
35 5 66 8 67 6 2 -2 -8 -76 -22 -166 -14 -89 -25 -182 -25 -206 0 -42 1 -44
30 -44 35 0 67 28 76 67 3 16 7 32 8 37 1 5 65 -52 143 -127 165 -161 172
-163 228 -87 51 70 65 123 65 254 0 61 5 173 11 250 9 105 9 141 0 144 -15 5
-14 65 1 80 10 10 10 17 0 32 -10 17 -5 25 50 70 l63 50 105 0 c103 0 107 1
133 28 32 34 32 36 8 71 l-20 27 -145 -21 -145 -22 -28 30 c-39 42 -112 87
-141 87 -20 0 -23 4 -20 28 2 20 15 35 50 57 26 17 50 38 54 48 7 21 36 18
220 -28 215 -54 437 -150 635 -276 68 -44 82 -49 133 -49 65 0 76 12 52 58
-52 100 -306 221 -731 347 -88 26 -161 48 -162 49 -6 5 79 231 92 246 50 55
184 86 439 101 l182 11 52 -26 c65 -33 111 -34 140 -3 12 13 22 31 22 40 0 23
-50 52 -125 72 -60 17 -66 16 -305 -16 -151 -20 -245 -29 -247 -22 -2 6 -22 6
-57 0 l-54 -10 -65 46 c-36 26 -77 47 -90 47 -23 0 -24 -2 -16 -42 19 -100 31
-89 -173 -147 -100 -28 -183 -49 -186 -47 -8 9 114 209 131 214 89 24 264 136
421 270 77 65 86 77 86 107 0 41 -37 73 -124 108 l-57 24 -115 -23 -115 -22
-72 44 c-75 46 -80 48 -112 34z m415 -177 c0 -53 -219 -229 -275 -221 -40 6
-30 90 17 144 37 42 73 62 153 85 89 26 105 25 105 -8z m-130 -629 c0 -30 -10
-48 -57 -103 -72 -83 -73 -83 -100 -66 -17 11 -55 15 -148 15 -123 0 -125 0
-125 23 0 20 21 30 198 94 108 39 205 72 215 72 13 1 17 -7 17 -35z m-142
-955 c2 -105 -1 -207 -9 -257 -8 -55 -9 -86 -2 -93 6 -6 6 -28 0 -64 l-10 -55
-49 0 c-45 0 -53 4 -97 48 -26 26 -67 81 -92 122 -43 73 -44 77 -43 160 0 47
4 111 8 142 l7 56 81 42 c87 46 177 81 193 76 6 -1 11 -72 13 -177z"/>
<path d="M2171 1126 c-17 -20 4 -33 92 -55 42 -10 98 -32 124 -48 40 -25 48
-35 48 -59 0 -25 -4 -29 -32 -32 -17 -2 -37 -10 -44 -18 -17 -20 19 -57 71
-73 25 -7 65 -35 104 -71 35 -33 70 -60 77 -60 8 0 29 14 47 30 29 27 32 35
32 87 0 104 -64 184 -217 274 l-68 39 -111 0 c-82 0 -115 -4 -123 -14z"/>
</g>
</svg>
