<?xml version="1.0" standalone="no"?>
<!DOCTYPE svg PUBLIC "-//W3C//DTD SVG 20010904//EN"
 "http://www.w3.org/TR/2001/REC-SVG-20010904/DTD/svg10.dtd">
<svg version="1.0" xmlns="http://www.w3.org/2000/svg"
 width="360.000000pt" height="360.000000pt" viewBox="0 0 360.000000 360.000000"
 preserveAspectRatio="xMidYMid meet">
<metadata>
Created by potrace 1.15, written by Peter Selinger 2001-2017
</metadata>
<g transform="translate(0.000000,360.000000) scale(0.100000,-0.100000)"
fill="#000000" stroke="none">
<path d="M1300 2608 c0 -7 27 -37 60 -68 l60 -55 -24 -246 c-15 -154 -30 -257
-39 -275 -42 -81 -211 -206 -442 -326 l-135 -70 -75 4 c-67 3 -75 1 -86 -18
-16 -31 -3 -60 35 -78 46 -22 68 -20 161 12 101 35 240 117 392 230 l119 89
13 -29 c11 -24 11 -53 3 -142 l-11 -111 -84 -135 c-177 -282 -292 -517 -304
-620 l-6 -50 34 0 c33 1 37 5 103 118 38 64 94 157 124 205 l54 88 24 -22 c22
-21 24 -30 24 -120 0 -251 45 -464 95 -446 20 8 19 31 -5 267 -11 107 -20 253
-20 325 0 126 1 132 34 208 42 95 105 206 247 438 115 186 130 214 110 208
-19 -7 -158 -199 -197 -272 -29 -56 -40 -68 -57 -65 -30 4 -36 62 -9 92 34 37
34 45 7 91 -20 35 -23 49 -16 64 12 22 60 41 102 41 24 0 29 4 29 23 0 42 -39
67 -104 67 l-59 0 6 38 c3 20 16 118 28 218 21 176 22 182 4 228 -10 26 -31
61 -46 77 -24 26 -33 29 -88 29 -41 0 -61 -4 -61 -12z"/>
<path d="M2228 2375 c-130 -44 -188 -59 -188 -50 0 7 -8 23 -18 35 l-17 21
-42 -30 c-58 -42 -94 -93 -101 -143 l-5 -43 49 53 49 53 53 -22 52 -22 73 22
c130 38 130 35 16 -96 -127 -148 -220 -271 -260 -346 l-31 -58 4 -172 c4 -161
6 -178 35 -263 48 -141 92 -224 117 -224 28 1 102 35 143 66 34 26 73 32 73
11 0 -8 -61 -67 -136 -133 -135 -118 -137 -119 -235 -150 -108 -34 -174 -71
-184 -104 -7 -21 -30 -27 -40 -10 -3 6 -17 10 -31 10 -31 0 -32 -29 -1 -58 30
-28 42 -28 151 7 318 102 625 169 811 178 151 7 203 -4 300 -62 l60 -37 33 18
c30 16 33 22 28 49 -14 68 -86 121 -209 151 -57 14 -77 14 -132 4 -50 -9 -68
-10 -79 -1 -11 9 -49 7 -166 -10 -107 -15 -155 -18 -162 -11 -8 8 8 31 51 79
66 73 157 201 210 296 73 133 191 440 191 496 -1 17 -17 43 -45 74 -35 38 -49
47 -77 47 -98 0 -282 -91 -464 -229 -165 -125 -164 -125 -169 -119 -3 2 -10
39 -16 82 -10 64 -9 80 2 90 89 82 560 529 564 536 8 12 -43 80 -59 79 -6 0
-95 -29 -198 -64z m342 -471 c11 -12 11 -30 2 -89 -20 -130 -76 -239 -180
-355 -40 -44 -53 -52 -63 -43 -10 10 -3 27 35 83 l47 71 -21 29 c-33 47 -98
39 -242 -27 -44 -20 -84 -33 -93 -29 -14 5 -12 12 16 49 104 133 256 254 381
302 74 28 101 31 118 9z m-365 -470 c-42 -79 -116 -157 -145 -152 -31 4 -44
29 -36 64 9 37 88 113 146 142 62 31 72 16 35 -54z"/>
</g>
</svg>
