<?xml version="1.0" standalone="no"?>
<!DOCTYPE svg PUBLIC "-//W3C//DTD SVG 20010904//EN"
 "http://www.w3.org/TR/2001/REC-SVG-20010904/DTD/svg10.dtd">
<svg version="1.0" xmlns="http://www.w3.org/2000/svg"
 width="360.000000pt" height="360.000000pt" viewBox="0 0 360.000000 360.000000"
 preserveAspectRatio="xMidYMid meet">
<metadata>
Created by potrace 1.15, written by Peter Selinger 2001-2017
</metadata>
<g transform="translate(0.000000,360.000000) scale(0.100000,-0.100000)"
fill="#000000" stroke="none">
<path d="M1277 3172 c-26 -29 -20 -49 21 -69 36 -18 37 -19 40 -83 2 -43 -11
-153 -40 -329 l-43 -264 -52 -39 c-235 -173 -474 -306 -595 -332 -20 -5 -28
-13 -28 -27 0 -27 80 -129 101 -129 15 0 92 46 369 223 107 69 136 83 138 69
1 -9 -60 -141 -136 -292 -151 -301 -218 -474 -209 -543 8 -58 31 -87 71 -87
29 0 43 10 89 60 76 81 145 181 167 237 28 74 42 69 55 -20 4 -28 3 -47 -4
-51 -24 -15 -5 -229 25 -292 19 -39 58 -55 79 -33 12 12 13 40 5 159 -5 80
-10 218 -10 308 l0 163 129 302 c71 166 149 337 173 379 l43 78 78 0 c88 0 91
-4 56 -73 -28 -55 -74 -119 -177 -245 -75 -93 -83 -106 -80 -140 3 -35 5 -37
43 -40 59 -5 105 7 132 34 64 65 19 -5 -161 -245 -215 -287 -207 -268 -142
-330 34 -33 37 -34 76 -22 22 6 77 36 122 67 55 37 85 51 92 44 9 -9 -10 -155
-30 -237 -3 -13 6 -25 32 -41 20 -13 40 -20 44 -15 5 4 39 78 75 163 82 190
173 371 213 426 29 40 33 42 92 46 43 3 67 10 75 21 11 15 14 15 33 -6 19 -20
22 -35 22 -98 0 -41 -5 -94 -11 -118 -7 -30 -6 -47 1 -56 8 -10 8 -30 -1 -74
-9 -48 -9 -67 1 -91 10 -25 10 -36 0 -55 -10 -19 -10 -28 -1 -39 8 -9 8 -15 1
-18 -7 -2 -7 -20 1 -59 8 -42 8 -181 0 -534 -12 -556 -6 -610 43 -364 42 212
50 277 38 304 -7 15 -8 26 -2 30 6 4 10 202 10 520 0 345 3 516 10 520 6 4 46
-29 88 -72 98 -99 194 -171 305 -229 80 -41 91 -44 121 -34 70 23 105 90 113
220 16 250 -85 421 -292 492 -38 13 -49 21 -47 35 7 34 138 297 195 393 32 51
55 100 53 107 -8 20 -86 72 -126 84 -68 21 -164 -25 -300 -144 -36 -31 -68
-57 -71 -57 -4 0 -29 27 -56 60 -62 77 -84 79 -136 11 -42 -55 -44 -61 -19
-61 9 0 32 -9 50 -20 30 -18 32 -23 32 -75 0 -66 -25 -131 -113 -293 -56 -101
-65 -113 -87 -110 -40 5 -47 55 -22 152 12 44 19 83 16 87 -2 4 -27 10 -54 14
-47 6 -50 9 -50 36 0 44 27 103 106 234 82 136 83 152 5 169 l-41 10 0 78 c0
77 -1 79 -39 121 -49 53 -102 82 -134 73 -58 -14 -83 -172 -48 -297 11 -41 21
-78 21 -81 0 -4 -42 -20 -93 -37 -82 -28 -95 -35 -111 -66 -20 -36 -78 -79
-156 -114 -84 -38 -82 -51 -34 237 24 141 44 277 44 302 0 43 -3 47 -54 88
-61 47 -110 56 -139 24z m643 -228 c9 -26 9 -39 1 -47 -6 -6 -11 -42 -11 -79
0 -37 -4 -68 -8 -68 -20 0 -62 58 -62 86 0 27 15 102 25 132 10 27 43 12 55
-24z m817 -228 c3 -3 -58 -127 -136 -276 -77 -149 -141 -282 -141 -295 0 -40
20 -47 93 -34 l66 12 56 -34 c73 -43 148 -125 163 -176 7 -22 12 -78 12 -125
0 -75 -3 -87 -23 -106 -20 -19 -27 -20 -67 -10 -40 10 -361 191 -402 226 -15
13 -18 33 -18 131 1 64 7 146 14 183 8 44 9 72 3 84 -16 28 -1 120 28 173 33
60 128 156 215 217 55 38 70 45 99 40 18 -3 36 -7 38 -10z m-1227 -342 c0 -9
-14 -50 -30 -91 -44 -111 -84 -163 -122 -163 -15 0 -18 9 -18 61 0 133 50 199
158 208 6 1 12 -6 12 -15z m745 -154 c3 -5 1 -37 -6 -71 -9 -47 -9 -66 0 -80
7 -12 7 -19 1 -19 -5 0 -10 -9 -10 -21 0 -19 -1 -19 -42 6 -24 14 -49 29 -57
34 -20 12 62 161 89 161 10 0 22 -4 25 -10z m-273 -107 c21 -20 38 -42 38 -48
0 -6 -25 -35 -55 -65 l-55 -54 -24 23 -24 22 20 67 c10 37 21 73 23 80 8 22
39 12 77 -25z m-772 -197 c0 -86 -13 -114 -142 -313 -58 -89 -86 -123 -100
-123 -11 0 -18 6 -16 14 9 41 235 496 245 496 9 0 13 -21 13 -74z m550 -35 c0
-35 -21 -75 -58 -114 -41 -42 -117 -90 -134 -85 -16 6 163 218 184 218 4 0 8
-9 8 -19z"/>
</g>
</svg>
