<?xml version="1.0" standalone="no"?>
<!DOCTYPE svg PUBLIC "-//W3C//DTD SVG 20010904//EN"
 "http://www.w3.org/TR/2001/REC-SVG-20010904/DTD/svg10.dtd">
<svg version="1.0" xmlns="http://www.w3.org/2000/svg"
 width="360.000000pt" height="360.000000pt" viewBox="0 0 360.000000 360.000000"
 preserveAspectRatio="xMidYMid meet">
<metadata>
Created by potrace 1.15, written by Peter Selinger 2001-2017
</metadata>
<g transform="translate(0.000000,360.000000) scale(0.100000,-0.100000)"
fill="#000000" stroke="none">
<path d="M2310 2871 c-27 -22 -26 -24 39 -93 27 -29 32 -40 23 -51 -8 -10 -8
-24 -1 -52 8 -29 8 -58 0 -107 -6 -37 -11 -125 -11 -197 0 -125 -1 -130 -22
-133 -15 -2 -57 -52 -134 -161 -162 -226 -348 -455 -371 -456 -19 -1 -17 189
3 264 30 116 101 206 232 292 48 31 89 58 91 60 2 1 -4 12 -14 23 -30 33 -107
28 -155 -10 -21 -16 -40 -30 -43 -30 -2 0 -7 25 -11 55 -3 31 -15 79 -26 107
-36 95 -150 182 -150 114 0 -13 14 -56 32 -96 l32 -73 -60 -362 c-57 -343 -59
-365 -47 -419 17 -76 39 -116 64 -116 50 0 106 65 319 372 256 369 254 367
264 196 3 -62 9 -127 12 -143 5 -30 3 -33 -87 -85 -109 -64 -246 -194 -297
-282 -43 -72 -78 -174 -92 -263 -6 -39 -9 -162 -8 -275 l3 -204 33 -23 c19
-12 54 -25 80 -29 43 -6 55 -2 198 69 142 71 155 76 185 65 l31 -11 -8 -101
c-4 -56 -8 -113 -7 -128 0 -33 40 -88 78 -108 26 -14 28 -13 51 13 42 49 68
183 85 448 21 309 -13 551 -83 603 -26 18 -33 19 -118 8 -104 -14 -172 -37
-254 -87 -32 -19 -67 -35 -78 -35 -54 0 98 175 228 262 146 97 216 128 347
154 153 30 250 59 268 80 12 15 8 21 -30 55 -26 23 -54 39 -69 39 -14 0 -94
-21 -179 -46 -171 -50 -154 -51 -198 11 -20 28 -5 120 31 193 34 69 128 169
204 219 33 21 60 43 60 49 0 19 -46 54 -71 54 -15 0 -52 -24 -99 -64 -41 -35
-78 -62 -81 -60 -4 2 -12 26 -19 54 -10 42 -9 57 5 101 23 69 17 187 -13 245
-23 46 -96 114 -121 114 -9 0 -27 -9 -41 -19z m175 -1473 c11 -39 15 -100 15
-245 l0 -193 -24 -6 c-13 -3 -39 -1 -59 4 -31 9 -49 3 -183 -54 -81 -35 -152
-64 -156 -64 -20 0 1 29 131 178 76 88 142 165 146 171 3 6 -3 27 -15 46 -20
33 -25 35 -76 35 -46 0 -63 -6 -121 -43 -146 -93 -141 -90 -151 -70 -24 44 39
139 124 189 66 39 263 101 326 103 24 1 29 -4 43 -51z m-393 -396 c-46 -66
-76 -78 -92 -37 -5 14 -10 32 -10 39 0 16 134 78 139 64 2 -5 -15 -35 -37 -66z"/>
<path d="M1306 2700 c-20 -34 -36 -70 -36 -81 0 -25 27 -36 51 -21 10 7 31 12
45 12 26 0 26 0 20 -62 -3 -35 -8 -121 -12 -193 -8 -178 -18 -229 -54 -278
-72 -99 -272 -213 -520 -298 -69 -23 -129 -46 -134 -50 -5 -4 13 -33 40 -63
60 -69 84 -71 187 -20 72 37 318 188 365 225 19 15 28 16 39 8 11 -10 11 -14
0 -28 -8 -9 -101 -200 -207 -425 l-194 -408 24 -44 c15 -28 30 -44 42 -44 43
0 163 142 248 293 17 31 36 57 41 57 5 0 15 -10 23 -23 13 -20 13 -37 -5 -157
-28 -189 -23 -334 16 -427 l15 -35 30 22 30 21 0 202 c0 110 5 252 11 315 9
87 8 124 0 154 -9 30 -9 48 0 76 16 48 73 142 143 235 31 41 56 77 56 81 0 16
-31 3 -83 -34 -64 -46 -87 -51 -87 -16 0 27 65 309 75 325 3 6 11 11 18 11 27
0 148 55 169 77 l22 24 -19 36 c-11 19 -24 37 -31 40 -6 2 -44 -5 -84 -16 -41
-12 -75 -19 -77 -18 -2 2 6 91 17 197 11 107 20 206 20 220 0 54 -82 145 -147
164 -18 6 -27 -2 -57 -54z m-41 -1210 c7 -11 -55 -103 -63 -95 -7 7 39 105 49
105 4 0 11 -5 14 -10z"/>
</g>
</svg>
