<?xml version="1.0" standalone="no"?>
<!DOCTYPE svg PUBLIC "-//W3C//DTD SVG 20010904//EN"
 "http://www.w3.org/TR/2001/REC-SVG-20010904/DTD/svg10.dtd">
<svg version="1.0" xmlns="http://www.w3.org/2000/svg"
 width="360.000000pt" height="360.000000pt" viewBox="0 0 360.000000 360.000000"
 preserveAspectRatio="xMidYMid meet">
<metadata>
Created by potrace 1.15, written by Peter Selinger 2001-2017
</metadata>
<g transform="translate(0.000000,360.000000) scale(0.100000,-0.100000)"
fill="#000000" stroke="none">
<path d="M1170 2780 c0 -6 7 -56 15 -113 15 -92 15 -120 0 -287 -8 -102 -18
-196 -21 -209 -13 -58 -160 -183 -400 -341 l-137 -90 -84 0 -83 0 0 -43 c0
-54 20 -75 81 -83 61 -8 153 39 387 195 149 100 186 120 198 111 8 -7 14 -19
14 -27 0 -35 -156 -391 -350 -800 -56 -117 -62 -136 -52 -158 9 -20 19 -25 50
-25 38 0 41 2 183 182 l144 181 3 -189 c2 -161 0 -202 -18 -277 -28 -121 -27
-238 1 -284 18 -29 24 -32 35 -21 19 18 49 143 64 258 17 137 17 139 38 133
10 -2 82 5 159 17 l140 21 159 -21 c152 -20 167 -24 344 -95 295 -118 336
-128 530 -133 91 -2 257 1 370 8 145 8 206 8 208 1 2 -6 13 -11 23 -11 16 0
20 6 17 27 -4 34 -47 64 -135 94 -64 21 -67 21 -80 4 -12 -18 -15 -18 -66 -2
-41 13 -92 17 -218 17 -226 0 -308 12 -474 69 -171 60 -337 107 -470 136 -112
24 -101 10 -95 120 3 65 -5 96 -43 172 -33 65 -37 80 -37 151 0 141 -34 278
-78 312 -23 19 -25 24 -13 42 27 43 1 23 -94 -72 -55 -55 -105 -100 -111 -100
-31 0 -34 27 -14 136 23 126 24 157 9 182 -30 47 60 121 166 137 l40 6 27 -58
c33 -72 84 -143 102 -143 16 0 76 89 76 113 0 18 -6 22 -124 88 -43 24 -91 55
-106 69 -26 24 -29 25 -91 13 -104 -19 -102 -25 -75 252 26 256 24 269 -33
318 -32 26 -81 37 -81 17z m285 -1137 c16 -159 39 -304 61 -386 21 -78 23 -98
14 -140 -19 -88 -18 -87 -131 -87 -81 0 -107 4 -140 21 l-41 20 4 173 3 172
38 77 c37 75 148 207 174 207 7 0 14 -24 18 -57z"/>
<path d="M2055 2750 c-20 -7 -20 -12 -11 -78 8 -59 7 -77 -8 -116 -21 -54 -96
-171 -177 -277 -52 -67 -59 -81 -59 -121 0 -49 9 -61 52 -72 19 -4 30 -15 34
-33 7 -26 1 -414 -12 -782 l-7 -176 31 -13 c42 -18 71 -7 79 28 4 25 14 32 57
46 173 56 345 169 362 239 4 17 31 64 61 106 64 92 83 135 83 188 0 32 -6 44
-31 65 -17 14 -43 29 -57 33 -59 14 -216 -47 -365 -143 -65 -42 -70 -44 -88
-28 -13 12 -16 24 -12 48 20 107 117 192 288 255 l78 28 23 75 c13 41 49 116
79 166 53 88 55 93 41 120 -29 55 -62 76 -130 80 l-63 4 -78 -58 c-106 -78
-193 -130 -244 -145 -36 -11 -44 -10 -57 3 -15 14 -9 25 58 109 92 116 179
240 207 297 31 61 25 90 -27 129 -44 33 -70 39 -107 23z m268 -517 c-2 -56
-35 -116 -100 -184 -53 -55 -180 -149 -202 -149 -7 0 -11 30 -11 85 l0 84 138
106 c154 118 178 126 175 58z m57 -600 c-1 -70 -112 -195 -263 -297 l-88 -60
-24 25 c-24 23 -25 27 -14 82 5 32 9 68 7 80 -2 18 5 25 49 39 56 19 145 69
208 116 48 37 125 45 125 15z"/>
</g>
</svg>
