<?xml version="1.0" standalone="no"?>
<!DOCTYPE svg PUBLIC "-//W3C//DTD SVG 20010904//EN"
 "http://www.w3.org/TR/2001/REC-SVG-20010904/DTD/svg10.dtd">
<svg version="1.0" xmlns="http://www.w3.org/2000/svg"
 width="360.000000pt" height="360.000000pt" viewBox="0 0 360.000000 360.000000"
 preserveAspectRatio="xMidYMid meet">
<metadata>
Created by potrace 1.15, written by Peter Selinger 2001-2017
</metadata>
<g transform="translate(0.000000,360.000000) scale(0.100000,-0.100000)"
fill="#000000" stroke="none">
<path d="M2263 2939 c-9 -9 -3 -29 23 -81 34 -67 35 -71 32 -176 l-3 -107 -66
-21 c-95 -31 -168 -48 -174 -43 -2 3 -16 45 -30 93 -37 128 -59 166 -94 166
l-29 0 33 -131 33 -130 -39 -26 c-29 -19 -42 -23 -52 -15 -10 8 -16 6 -26 -10
-12 -20 -11 -24 14 -44 16 -12 46 -30 67 -40 59 -27 51 -47 -51 -136 -108 -93
-186 -184 -219 -256 -22 -48 -24 -64 -20 -145 4 -74 14 -119 52 -232 81 -246
99 -262 226 -200 44 21 82 37 84 34 3 -3 -8 -39 -24 -80 -45 -118 -71 -263
-77 -439 l-5 -155 33 -44 c32 -42 34 -43 77 -37 24 3 101 20 171 37 134 33
234 74 239 99 1 8 -8 27 -20 42 l-23 27 -145 -34 c-89 -21 -148 -31 -154 -25
-10 10 5 29 192 240 l110 125 -21 22 -22 22 -143 -44 c-79 -25 -148 -45 -153
-45 -5 0 -9 11 -9 24 0 27 45 67 163 144 118 77 241 118 266 89 9 -11 15 -120
23 -385 11 -342 10 -372 -5 -396 -10 -14 -28 -28 -42 -32 -20 -5 -25 -12 -25
-39 0 -39 35 -94 73 -115 26 -14 29 -14 43 5 19 26 40 99 59 209 13 76 14 129
5 350 -5 144 -10 296 -10 338 0 71 -2 80 -30 111 -16 18 -47 42 -68 51 l-40
18 -143 -55 c-79 -31 -146 -51 -147 -46 -2 5 19 36 47 68 45 52 56 59 98 65
171 22 348 201 490 494 47 98 54 118 48 150 -21 115 -106 150 -295 122 -45 -6
-77 -6 -102 2 l-38 11 0 75 c0 58 5 82 21 108 22 36 33 40 73 24 33 -12 72 2
81 30 10 32 -20 69 -76 92 -48 20 -52 25 -96 116 -46 94 -107 172 -134 172 -8
0 -20 -5 -26 -11z m57 -585 c0 -62 -2 -69 -33 -98 -30 -28 -205 -124 -210
-115 -1 2 -8 14 -14 26 -7 13 -13 42 -13 67 0 39 5 49 52 96 60 61 116 89 176
90 l42 0 0 -66z m430 -146 c0 -34 -81 -206 -134 -287 -77 -116 -164 -181 -264
-197 l-42 -7 0 34 c0 18 10 63 22 100 l21 67 59 16 c44 12 61 22 70 41 13 30
-3 55 -36 55 -33 0 -46 19 -46 67 0 52 21 107 47 122 10 6 78 11 161 11 141 0
142 0 142 -22z m-760 -41 c0 -31 -22 -83 -46 -109 -29 -29 -62 -42 -131 -52
-64 -9 -57 15 29 101 65 65 77 73 110 73 24 0 38 -5 38 -13z m296 -64 c-4 -21
-9 -61 -13 -88 -5 -48 -7 -52 -48 -68 -23 -10 -67 -40 -97 -67 -31 -28 -61
-50 -67 -50 -12 0 -31 63 -31 103 0 40 34 102 74 134 55 43 118 73 155 73 33
0 34 0 27 -37z m-318 -240 l-3 -98 -30 -3 c-40 -5 -55 -19 -55 -53 0 -20 5
-29 15 -29 32 0 73 -30 84 -61 16 -45 16 -44 -35 -84 -32 -24 -57 -35 -80 -35
l-34 0 0 64 c0 59 -4 70 -40 123 -36 52 -70 148 -70 195 0 12 13 21 43 29 23
6 71 19 107 29 107 30 101 35 98 -77z m257 -100 c-12 -88 -59 -140 -133 -150
-42 -6 -42 -5 -42 26 0 81 82 169 159 171 22 0 23 -2 16 -47z m-45 -719 c0 -3
-19 -30 -42 -60 -51 -64 -80 -71 -97 -22 -6 17 -9 34 -5 37 5 6 122 49 137 50
4 1 7 -2 7 -5z"/>
<path d="M1351 2816 c-12 -12 -21 -26 -21 -32 0 -5 15 -34 34 -65 l34 -57 -23
-269 c-12 -148 -27 -278 -33 -289 -20 -38 -113 -115 -229 -191 -109 -71 -126
-79 -221 -100 -113 -25 -172 -48 -172 -68 0 -20 45 -52 101 -70 l49 -17 190
117 c105 65 200 119 211 122 17 5 19 0 19 -38 0 -33 -46 -164 -177 -507 l-176
-464 31 -31 32 -31 51 49 c73 71 144 167 170 231 22 51 25 55 54 52 l30 -3 3
-265 c1 -151 6 -268 12 -274 6 -6 17 -3 30 9 19 17 20 30 20 339 0 361 3 383
70 524 22 46 40 93 40 104 0 19 0 19 -29 -1 -76 -55 -87 -13 -59 226 l22 185
36 16 c106 45 180 84 180 95 0 7 -10 24 -23 39 -22 26 -23 26 -85 15 -47 -8
-65 -8 -74 1 -9 9 -1 71 32 263 l44 251 -19 35 c-25 45 -86 108 -113 115 -13
4 -28 -2 -41 -16z m-61 -1389 l0 -122 -100 -100 c-115 -114 -117 -113 -69 46
50 169 119 299 159 299 6 0 10 -44 10 -123z"/>
</g>
</svg>
