<?xml version="1.0" standalone="no"?>
<!DOCTYPE svg PUBLIC "-//W3C//DTD SVG 20010904//EN"
 "http://www.w3.org/TR/2001/REC-SVG-20010904/DTD/svg10.dtd">
<svg version="1.0" xmlns="http://www.w3.org/2000/svg"
 width="360.000000pt" height="360.000000pt" viewBox="0 0 360.000000 360.000000"
 preserveAspectRatio="xMidYMid meet">
<metadata>
Created by potrace 1.15, written by Peter Selinger 2001-2017
</metadata>
<g transform="translate(0.000000,360.000000) scale(0.100000,-0.100000)"
fill="#000000" stroke="none">
<path d="M1212 2781 l-22 -30 40 -68 c36 -64 39 -72 33 -125 -3 -33 -1 -63 4
-70 8 -11 -18 -215 -52 -395 -5 -28 -33 -52 -212 -184 l-207 -152 -75 -7 c-86
-9 -111 -16 -111 -36 0 -20 38 -42 96 -55 46 -10 60 -10 99 5 54 21 166 93
254 164 49 39 72 52 98 52 18 0 33 -4 33 -9 0 -40 -145 -386 -309 -740 -61
-130 -81 -184 -81 -215 1 -45 31 -92 53 -83 7 3 41 54 74 113 82 147 153 253
197 297 43 43 73 50 60 14 -4 -12 -9 -155 -11 -317 l-4 -295 24 -23 c21 -19
26 -21 36 -8 7 8 15 36 20 63 5 35 21 68 59 119 66 91 167 260 207 349 61 134
105 296 105 387 0 34 3 38 24 38 39 0 76 -49 76 -102 0 -11 -25 -84 -56 -162
-67 -169 -69 -216 -16 -292 18 -24 32 -49 32 -54 0 -18 -54 -50 -131 -75 l-81
-27 33 -34 c18 -19 39 -34 47 -34 8 0 49 20 91 44 180 103 324 167 446 196
127 31 114 41 169 -131 72 -224 145 -324 292 -399 32 -16 67 -30 76 -30 37 0
87 159 61 192 -6 9 -6 41 0 95 9 69 5 147 -28 523 l-39 442 20 36 c27 52 85
80 189 94 68 9 91 9 107 -1 46 -28 80 56 38 94 -20 18 -25 17 -163 -13 -78
-18 -145 -32 -148 -32 -4 0 -19 19 -34 42 l-28 42 13 162 12 163 -53 60 c-50
57 -57 61 -96 61 -23 0 -45 -5 -49 -11 -3 -6 12 -30 34 -52 70 -73 72 -81 72
-310 l0 -204 -165 -72 c-91 -40 -175 -71 -185 -69 -18 3 -17 7 12 51 l31 48
-46 47 -46 46 -67 -11 c-70 -12 -194 -67 -288 -127 -63 -40 -69 -42 -86 -21
-9 11 -9 27 0 69 8 41 8 59 0 73 -9 14 -9 29 -1 59 l11 40 133 27 c232 46 311
88 305 164 -2 31 -7 39 -25 41 -33 5 -189 -45 -250 -79 -83 -46 -94 -42 -142
51 -30 57 -47 80 -61 80 -24 0 -35 -17 -21 -34 21 -25 -59 -537 -125 -801 -40
-157 -82 -282 -131 -388 l-46 -97 -44 0 -43 0 0 233 c0 249 5 274 60 344 31
40 26 62 -20 80 l-41 16 6 46 c26 195 61 337 90 361 7 6 41 15 75 21 126 20
163 51 117 97 l-27 26 -75 -22 c-90 -27 -105 -27 -105 -4 0 9 9 119 20 242 29
325 30 305 -33 368 -29 29 -60 52 -68 52 -8 0 -25 -13 -37 -29z m868 -1009 c0
-12 -58 -101 -96 -148 -19 -22 -61 -65 -94 -94 -57 -49 -62 -51 -79 -36 -19
17 -41 79 -41 114 0 49 194 172 271 172 22 0 39 -4 39 -8z m459 -65 c20 -23
21 -31 19 -162 -3 -116 -6 -140 -20 -148 -12 -8 -46 -2 -137 26 -113 35 -122
37 -154 23 -19 -7 -42 -24 -50 -37 l-16 -23 -54 37 c-69 48 -115 96 -100 105
6 4 12 16 14 27 3 15 18 22 69 32 97 20 215 60 305 103 44 21 85 39 91 39 6 1
20 -10 33 -22z m-1369 -277 c0 -38 -34 -60 -58 -36 -14 14 -14 18 8 41 32 34
50 32 50 -5z m843 -87 c23 -14 -11 -108 -63 -173 -33 -42 -166 -137 -177 -127
-3 4 4 42 15 86 28 100 28 101 -8 101 -16 0 -30 2 -30 6 0 3 19 32 41 66 l41
60 87 -7 c47 -4 89 -9 94 -12z m402 -48 c47 -14 104 -34 126 -45 l39 -20 0
-133 c0 -72 4 -172 7 -222 4 -49 8 -130 8 -180 l0 -90 -30 -3 c-93 -9 -197
147 -276 412 -24 81 -29 117 -29 202 l0 104 34 0 c19 0 73 -11 121 -25z m-276
-141 c-12 -13 -33 -24 -46 -24 -37 0 -29 38 20 95 l42 49 3 -48 c3 -39 -1 -53
-19 -72z"/>
<path d="M2095 2580 c-148 -55 -274 -101 -280 -103 -6 -3 -2 -13 7 -23 17 -17
26 -17 135 -6 130 13 205 31 234 58 12 11 72 28 152 44 156 32 207 51 207 78
0 38 -31 52 -111 51 -67 -1 -98 -10 -344 -99z"/>
</g>
</svg>
