<?xml version="1.0" standalone="no"?>
<!DOCTYPE svg PUBLIC "-//W3C//DTD SVG 20010904//EN"
 "http://www.w3.org/TR/2001/REC-SVG-20010904/DTD/svg10.dtd">
<svg version="1.0" xmlns="http://www.w3.org/2000/svg"
 width="360.000000pt" height="360.000000pt" viewBox="0 0 360.000000 360.000000"
 preserveAspectRatio="xMidYMid meet">
<metadata>
Created by potrace 1.15, written by Peter Selinger 2001-2017
</metadata>
<g transform="translate(0.000000,360.000000) scale(0.100000,-0.100000)"
fill="#000000" stroke="none">
<path d="M1853 2488 c-79 -94 -149 -195 -140 -204 3 -3 42 24 87 60 101 81
115 84 105 19 -11 -73 -85 -287 -181 -518 -47 -115 -91 -227 -97 -247 -14 -49
-3 -62 42 -47 29 10 35 9 58 -12 24 -23 25 -27 19 -109 -4 -59 -11 -92 -24
-110 -10 -14 -22 -49 -25 -79 -20 -172 -173 -345 -455 -517 -2 -2 -1 -12 3
-25 7 -20 12 -21 65 -16 180 16 354 223 495 590 36 94 38 97 69 97 17 0 56 11
86 23 163 67 331 228 504 485 100 148 102 189 7 221 -49 16 -158 14 -222 -5
-63 -19 -207 -90 -295 -145 -59 -38 -84 -47 -84 -31 0 4 16 52 36 107 53 150
101 320 114 413 12 81 12 84 -11 108 -15 16 -33 24 -55 24 -28 0 -41 -11 -101
-82z m490 -503 c16 -11 18 -21 12 -55 -17 -102 -121 -242 -283 -381 -144 -125
-153 -122 -237 66 l-39 87 54 49 c86 77 207 167 264 196 101 52 192 67 229 38z"/>
<path d="M1315 1616 c-395 -636 -369 -603 -405 -495 -10 30 -23 55 -29 57 -5
2 -18 -9 -28 -24 -15 -24 -18 -49 -18 -159 0 -161 10 -190 69 -190 l38 0 158
275 c267 469 587 1075 578 1100 -2 7 -165 -247 -363 -564z"/>
<path d="M882 1780 c-19 -42 -5 -56 66 -62 59 -6 147 -43 171 -72 22 -26 44
-19 94 32 l47 48 -32 31 c-33 31 -33 31 -168 36 -74 2 -142 7 -150 11 -10 4
-19 -3 -28 -24z"/>
<path d="M2106 1172 c-3 -5 82 -72 189 -149 l195 -141 116 -153 c64 -85 118
-156 120 -158 2 -2 13 4 24 14 15 13 20 31 20 66 0 42 -6 56 -61 130 -137 184
-311 337 -434 380 -55 19 -160 26 -169 11z"/>
</g>
</svg>
