<?xml version="1.0" standalone="no"?>
<!DOCTYPE svg PUBLIC "-//W3C//DTD SVG 20010904//EN"
 "http://www.w3.org/TR/2001/REC-SVG-20010904/DTD/svg10.dtd">
<svg version="1.0" xmlns="http://www.w3.org/2000/svg"
 width="360.000000pt" height="360.000000pt" viewBox="0 0 360.000000 360.000000"
 preserveAspectRatio="xMidYMid meet">
<metadata>
Created by potrace 1.15, written by Peter Selinger 2001-2017
</metadata>
<g transform="translate(0.000000,360.000000) scale(0.100000,-0.100000)"
fill="#000000" stroke="none">
<path d="M2173 2698 c-31 -33 -28 -50 10 -68 l32 -15 3 -127 3 -126 -76 -301
c-41 -165 -79 -331 -84 -367 -19 -129 -95 -203 -220 -212 -52 -4 -58 -2 -70
22 -10 19 -12 41 -6 88 4 35 6 77 4 93 -6 48 -2 492 5 539 l7 43 61 11 c64 12
105 33 115 59 3 8 -3 34 -15 58 l-21 43 -43 -9 c-82 -16 -78 -19 -78 79 l0 88
-53 52 c-59 58 -99 68 -132 32 -18 -20 -17 -21 13 -64 31 -44 32 -46 32 -159
l0 -115 -32 -28 c-37 -30 -203 -114 -227 -114 -10 0 -28 24 -44 59 -26 53
-119 171 -136 171 -4 0 -14 -13 -24 -29 -17 -29 -16 -31 28 -152 25 -67 45
-126 45 -130 0 -4 -33 -15 -72 -24 -111 -27 -138 -40 -138 -68 0 -22 5 -24
102 -35 56 -7 104 -14 106 -17 8 -8 -18 -387 -31 -455 -11 -54 -11 -75 0 -115
7 -28 13 -71 13 -96 0 -38 -6 -52 -36 -87 -75 -88 -270 -225 -500 -351 -136
-74 -171 -84 -203 -52 -18 18 -20 19 -35 2 -25 -27 -19 -45 25 -80 35 -28 46
-32 77 -28 54 9 216 93 397 207 88 55 170 100 181 100 19 0 23 -8 29 -58 9
-74 24 -140 42 -174 17 -35 60 -38 90 -6 l21 23 -38 85 -37 85 18 43 c63 147
173 245 290 259 l49 6 0 -37 c0 -73 45 -136 97 -136 13 0 23 -4 23 -9 0 -25
74 -182 102 -215 l32 -39 23 29 c16 20 23 42 23 72 0 37 -8 53 -65 127 -66 87
-101 147 -116 199 -7 25 -4 33 23 58 50 46 103 68 188 78 122 14 157 39 201
145 l23 55 23 -22 c21 -20 23 -30 23 -119 0 -87 -4 -108 -40 -214 -104 -302
-210 -498 -281 -520 -13 -4 -19 -16 -19 -36 0 -42 30 -38 94 14 123 98 308
475 347 710 10 62 16 77 30 77 10 0 21 -4 24 -10 3 -5 30 -10 58 -10 50 0 55
3 118 60 109 98 359 426 359 470 0 20 -23 41 -69 65 -30 15 -44 16 -121 6
-152 -19 -291 -78 -404 -169 -81 -65 -84 -67 -92 -60 -3 4 17 91 45 195 61
224 99 397 107 490 4 54 2 75 -13 102 -25 48 -63 73 -120 78 -41 4 -51 1 -70
-19z m-533 -613 c0 -88 -2 -96 -23 -110 -24 -15 -148 -50 -202 -56 -29 -4 -30
-3 -28 33 3 50 33 105 80 149 64 60 96 78 136 79 l37 0 0 -95z m1070 -131 c0
-17 -73 -160 -108 -210 -69 -102 -223 -234 -257 -220 -9 3 -15 18 -15 39 0 41
-24 114 -46 138 -13 15 -9 21 42 68 92 84 198 151 279 177 42 13 105 18 105 8z
m-1230 -133 c0 -5 -16 -46 -36 -90 -31 -68 -41 -81 -60 -81 -22 0 -24 4 -24
57 0 51 4 61 32 90 30 31 88 47 88 24z m169 -68 c8 -53 8 -79 1 -81 -5 -2 -10
-17 -10 -33 0 -16 -4 -29 -8 -29 -15 0 -107 32 -116 41 -8 7 2 42 45 157 7 17
16 22 43 22 l34 0 11 -77z m-201 -234 c34 -11 62 -27 62 -34 0 -33 -124 -145
-160 -145 -11 0 -15 182 -3 193 11 12 36 8 101 -14z m192 -72 c0 -8 -20 -28
-45 -46 -52 -38 -60 -22 -13 26 33 34 58 43 58 20z"/>
<path d="M2382 1124 c3 -26 8 -30 71 -46 110 -29 192 -81 330 -207 77 -72 84
-96 32 -105 -19 -4 -35 -10 -35 -14 1 -28 79 -82 119 -82 12 0 47 -30 88 -75
37 -41 75 -75 84 -75 63 0 65 133 4 256 -70 142 -224 250 -466 329 -63 20
-140 40 -172 42 l-59 6 4 -29z"/>
</g>
</svg>
