<?xml version="1.0" standalone="no"?>
<!DOCTYPE svg PUBLIC "-//W3C//DTD SVG 20010904//EN"
 "http://www.w3.org/TR/2001/REC-SVG-20010904/DTD/svg10.dtd">
<svg version="1.0" xmlns="http://www.w3.org/2000/svg"
 width="360.000000pt" height="360.000000pt" viewBox="0 0 360.000000 360.000000"
 preserveAspectRatio="xMidYMid meet">
<metadata>
Created by potrace 1.15, written by Peter Selinger 2001-2017
</metadata>
<g transform="translate(0.000000,360.000000) scale(0.100000,-0.100000)"
fill="#000000" stroke="none">
<path d="M2150 2840 c0 -77 -149 -201 -397 -329 -78 -41 -100 -65 -69 -77 7
-3 50 4 94 15 103 27 107 27 152 -9 21 -16 47 -30 58 -30 27 0 36 -15 57 -93
16 -58 17 -77 7 -129 -7 -37 -20 -70 -34 -85 -34 -37 -168 -119 -322 -199
-123 -64 -142 -71 -170 -63 -39 11 -76 12 -76 0 0 -14 60 -69 91 -81 37 -16
86 1 303 101 93 44 171 77 174 74 11 -11 67 -405 58 -408 -7 -2 -6 -35 2 -98
14 -111 17 -725 3 -784 -5 -22 -12 -88 -15 -146 -5 -88 -4 -108 9 -119 12 -10
16 -8 26 16 40 104 94 539 84 674 -3 52 -6 107 -6 123 1 15 1 39 2 55 0 15 -4
108 -10 207 -5 99 -12 275 -16 390 l-7 211 154 43 154 43 132 -22 132 -22 30
22 c59 42 19 89 -99 116 -83 20 -120 17 -311 -21 -95 -19 -177 -35 -182 -35
-4 0 -8 42 -8 94 0 80 -3 98 -23 127 -29 43 -87 76 -149 84 -40 6 -48 10 -48
28 0 19 23 32 143 85 78 35 160 75 182 91 35 24 40 32 39 64 -1 43 -25 74 -71
93 -47 20 -73 18 -73 -6z"/>
<path d="M1300 2743 c-90 -79 -203 -157 -267 -184 -26 -11 -76 -23 -110 -26
-50 -5 -63 -9 -63 -23 0 -55 91 -72 223 -41 48 12 92 21 97 21 25 0 0 -64
-140 -364 -83 -176 -150 -325 -150 -331 0 -5 52 -52 115 -104 133 -107 134
-110 83 -212 -23 -46 -64 -97 -150 -185 -72 -74 -118 -129 -118 -141 0 -22 39
-53 66 -53 9 0 51 35 93 78 56 56 86 96 110 147 23 49 44 78 67 93 71 47 176
238 289 527 83 212 88 230 80 272 l-6 35 -72 -7 c-71 -7 -183 -38 -202 -56 -5
-5 -19 -9 -32 -9 -17 0 -23 6 -23 21 0 33 75 169 193 347 l108 165 -47 48
c-27 27 -53 49 -59 48 -5 0 -44 -30 -85 -66z m59 -655 c0 -18 -28 -112 -62
-208 -73 -203 -71 -202 -170 -147 -82 46 -121 88 -114 119 16 60 266 268 323
268 21 0 24 -5 23 -32z"/>
</g>
</svg>
