<?xml version="1.0" standalone="no"?>
<!DOCTYPE svg PUBLIC "-//W3C//DTD SVG 20010904//EN"
 "http://www.w3.org/TR/2001/REC-SVG-20010904/DTD/svg10.dtd">
<svg version="1.0" xmlns="http://www.w3.org/2000/svg"
 width="360.000000pt" height="360.000000pt" viewBox="0 0 360.000000 360.000000"
 preserveAspectRatio="xMidYMid meet">
<metadata>
Created by potrace 1.15, written by Peter Selinger 2001-2017
</metadata>
<g transform="translate(0.000000,360.000000) scale(0.100000,-0.100000)"
fill="#000000" stroke="none">
<path d="M2218 2589 l-128 -100 -55 11 c-55 11 -105 52 -105 86 0 8 -10 14
-25 14 -23 0 -25 -4 -25 -41 0 -31 8 -51 30 -79 17 -21 39 -58 50 -82 l19 -43
-34 -293 c-26 -224 -32 -299 -24 -322 13 -35 20 -37 43 -11 40 45 71 213 88
486 6 107 16 193 22 197 22 15 217 80 223 75 3 -4 -7 -86 -22 -183 -30 -197
-27 -235 21 -273 l25 -20 -126 -127 c-146 -148 -240 -261 -268 -324 l-20 -44
23 -43 c17 -33 29 -43 47 -43 15 0 74 38 162 105 75 58 144 105 153 105 34 0
37 -23 11 -110 -26 -93 -97 -248 -116 -256 -7 -2 -99 25 -204 60 -106 36 -193
60 -193 56 0 -16 142 -106 214 -136 38 -16 75 -38 83 -50 12 -20 9 -26 -52
-92 -37 -39 -101 -94 -143 -122 l-76 -51 -12 40 c-24 82 -89 156 -200 227 -52
33 -56 35 -69 18 -11 -16 -6 -26 40 -83 65 -82 104 -158 112 -219 l5 -47 -66
-32 c-67 -33 -76 -46 -53 -77 12 -17 15 -16 62 2 150 59 358 175 500 279 l69
51 60 -47 c33 -25 103 -87 156 -136 148 -140 250 -205 400 -253 121 -39 309
-57 325 -32 3 6 -11 32 -32 59 -35 46 -42 50 -93 56 -210 25 -430 144 -646
348 -65 61 -94 96 -94 112 0 12 27 78 59 146 65 136 111 278 111 343 0 33 -6
48 -28 69 -15 15 -35 27 -44 27 -9 0 -83 -38 -164 -85 -94 -53 -151 -80 -153
-73 -9 26 242 238 442 372 110 75 117 82 117 113 0 22 -6 36 -16 40 -9 3 -59
-3 -113 -14 -123 -26 -126 -25 -118 82 7 96 35 182 82 251 42 60 44 95 9 141
-22 29 -89 73 -111 73 -4 0 -65 -46 -135 -101z"/>
<path d="M1450 2574 c-67 -39 -174 -81 -253 -98 -36 -8 -31 -26 14 -49 26 -14
48 -17 97 -13 63 5 171 46 193 72 6 8 22 14 36 14 31 0 28 -12 -38 -147 -79
-164 -170 -241 -295 -251 l-61 -4 -22 93 c-13 52 -25 122 -28 157 -6 61 -6 62
-36 62 l-29 0 6 -132 c4 -73 7 -144 7 -158 0 -30 -113 -429 -206 -730 -83
-268 -152 -455 -216 -588 -48 -99 -50 -102 -77 -95 -54 14 -66 10 -79 -27 -19
-56 -16 -114 7 -135 20 -18 21 -17 70 33 107 112 186 237 256 411 28 67 48
105 56 103 7 -2 54 -6 103 -9 97 -5 97 -5 229 82 l29 19 -6 -59 c-9 -84 -31
-142 -78 -203 -44 -58 -49 -95 -13 -100 27 -4 99 73 126 136 12 26 24 81 29
124 4 42 17 98 28 123 49 111 212 216 449 291 64 21 119 39 121 40 1 2 -6 29
-16 61 -24 72 -44 77 -127 33 -32 -16 -68 -30 -81 -30 l-23 0 32 127 c19 73
38 130 46 134 8 4 48 17 89 29 45 13 83 31 99 47 l26 26 -29 25 c-29 25 -60
26 -140 6 -23 -6 -25 -4 -25 29 0 27 -10 47 -41 83 -22 26 -52 64 -65 85 -43
69 -42 78 28 175 35 49 79 111 98 138 l33 50 -38 33 c-37 32 -41 33 -124 32
-83 -1 -89 -3 -161 -45z m112 -481 l39 -28 -4 -60 c-2 -34 -12 -75 -21 -93
-44 -84 -143 -162 -208 -162 l-38 0 0 55 c0 51 -3 59 -41 100 -23 25 -45 45
-49 45 -17 0 -28 -49 -19 -86 4 -22 9 -66 9 -99 l0 -61 -90 -62 c-73 -51 -90
-68 -90 -88 0 -38 24 -39 83 -5 30 17 59 31 65 31 11 0 72 -181 72 -211 0 -16
-92 -108 -155 -156 -51 -39 -119 -73 -144 -73 -33 0 -92 40 -87 59 3 9 55 189
116 401 61 212 113 393 116 403 4 14 18 17 77 17 63 1 86 7 187 50 63 26 121
49 128 49 8 1 32 -11 54 -26z m-2 -346 c0 -1 -14 -38 -31 -82 -64 -167 -130
-265 -180 -265 -28 0 -52 63 -46 128 3 37 12 65 33 95 39 56 145 127 190 127
19 0 34 -1 34 -3z"/>
</g>
</svg>
