<?xml version="1.0" standalone="no"?>
<!DOCTYPE svg PUBLIC "-//W3C//DTD SVG 20010904//EN"
 "http://www.w3.org/TR/2001/REC-SVG-20010904/DTD/svg10.dtd">
<svg version="1.0" xmlns="http://www.w3.org/2000/svg"
 width="360.000000pt" height="360.000000pt" viewBox="0 0 360.000000 360.000000"
 preserveAspectRatio="xMidYMid meet">
<metadata>
Created by potrace 1.15, written by Peter Selinger 2001-2017
</metadata>
<g transform="translate(0.000000,360.000000) scale(0.100000,-0.100000)"
fill="#000000" stroke="none">
<path d="M1968 2510 c-120 -75 -184 -109 -196 -106 -10 4 -26 22 -35 41 -9 19
-21 35 -26 35 -10 0 -31 -54 -31 -81 0 -27 -18 -24 -120 21 -50 22 -103 40
-118 40 -44 0 -221 -108 -222 -136 -1 -33 25 -31 128 11 59 24 109 40 112 35
3 -4 14 -9 25 -11 24 -5 23 -26 -6 -172 -37 -184 -98 -308 -174 -352 -42 -25
-85 -33 -85 -15 0 5 22 43 49 85 27 41 57 95 67 120 16 43 16 46 -1 65 -13 14
-31 20 -61 20 -24 0 -45 -4 -48 -8 -2 -4 0 -29 6 -55 5 -27 7 -60 3 -74 -3
-14 -61 -82 -127 -149 -94 -97 -127 -124 -148 -124 -40 0 -49 14 -37 66 9 39
14 45 47 54 46 12 79 48 90 96 5 21 8 40 6 41 -2 2 -25 -6 -52 -17 -31 -14
-50 -17 -52 -11 -2 6 -14 11 -26 11 -16 0 -27 11 -40 38 -48 101 -110 157
-206 186 -83 25 -95 22 -110 -24 -15 -46 -3 -70 37 -70 67 0 143 -68 176 -156
10 -27 23 -91 29 -144 10 -86 9 -104 -10 -188 -27 -114 -27 -122 -3 -122 11 0
23 -4 26 -10 17 -28 66 -4 263 131 172 117 210 139 224 130 10 -6 26 -11 36
-11 21 0 69 49 100 100 33 56 107 244 152 390 24 74 47 139 51 145 6 5 29 -10
60 -40 l51 -50 -6 -118 c-11 -203 -52 -392 -127 -584 l-41 -105 22 -22 21 -21
35 40 c20 22 48 67 64 100 58 121 124 401 102 435 -8 13 -5 50 10 145 l22 128
-22 37 c-23 41 -19 53 30 83 42 26 198 88 207 83 5 -3 4 -29 -1 -58 -21 -110
10 -376 53 -463 l22 -43 -200 -199 c-120 -118 -222 -228 -252 -273 l-52 -75
-87 -5 c-77 -4 -87 -7 -87 -24 0 -12 10 -22 25 -27 286 -84 390 -144 390 -225
0 -29 -7 -39 -45 -67 -83 -59 -270 -162 -398 -217 -108 -47 -127 -58 -127 -77
0 -15 6 -23 16 -23 56 0 332 114 580 238 l102 51 262 -164 c224 -140 269 -164
313 -170 130 -16 300 -46 339 -59 46 -16 52 -13 65 33 6 25 -15 71 -39 83 -7
3 -65 13 -128 21 -191 26 -342 86 -523 207 -56 38 -124 88 -150 112 l-48 43
45 85 c52 98 86 211 111 359 l17 103 -42 43 -43 44 -80 -40 c-43 -22 -80 -39
-82 -37 -2 2 102 84 231 183 129 99 234 185 234 191 0 29 -23 30 -137 5 l-116
-25 -30 36 c-32 40 -41 92 -40 224 0 73 33 151 87 212 33 36 37 46 34 84 -3
38 -7 45 -38 60 -19 9 -55 19 -80 23 -44 6 -49 4 -222 -105z m169 -1053 c-7
-85 -37 -188 -78 -270 l-30 -58 -82 58 c-46 32 -96 68 -112 80 l-30 22 45 46
c48 50 256 195 279 195 11 0 13 -14 8 -73z"/>
<path d="M1011 2510 c-7 -33 -39 -113 -71 -179 -57 -117 -61 -141 -24 -141 45
0 214 215 214 273 0 38 -54 107 -84 107 -19 0 -24 -9 -35 -60z"/>
<path d="M1315 1590 c-53 -26 -206 -141 -327 -247 l-98 -84 -61 11 c-34 6 -62
10 -63 8 0 -2 -7 -14 -15 -27 -13 -24 -11 -27 25 -58 22 -18 48 -33 59 -33 11
0 61 14 111 32 78 28 94 30 108 19 22 -18 20 -37 -9 -100 -32 -68 -79 -133
-179 -244 -86 -96 -78 -93 -171 -71 -18 4 -24 -4 -42 -60 l-21 -64 32 -31 c48
-46 68 -41 155 42 90 86 285 251 492 418 82 66 149 124 149 129 0 27 -131 -12
-223 -66 -32 -19 -64 -34 -71 -34 -10 0 -15 28 -19 103 -4 56 -8 111 -9 122
-2 15 27 36 147 106 83 48 151 94 153 103 10 46 -55 60 -123 26z"/>
</g>
</svg>
