<?xml version="1.0" standalone="no"?>
<!DOCTYPE svg PUBLIC "-//W3C//DTD SVG 20010904//EN"
 "http://www.w3.org/TR/2001/REC-SVG-20010904/DTD/svg10.dtd">
<svg version="1.0" xmlns="http://www.w3.org/2000/svg"
 width="360.000000pt" height="360.000000pt" viewBox="0 0 360.000000 360.000000"
 preserveAspectRatio="xMidYMid meet">
<metadata>
Created by potrace 1.15, written by Peter Selinger 2001-2017
</metadata>
<g transform="translate(0.000000,360.000000) scale(0.100000,-0.100000)"
fill="#000000" stroke="none">
<path d="M1138 2637 c-91 -17 -108 -23 -108 -39 0 -15 8 -18 53 -18 28 1 71 5
94 9 38 7 48 5 98 -25 31 -19 59 -34 64 -34 16 0 53 49 49 66 -4 24 -53 51
-103 57 -22 3 -88 -4 -147 -16z"/>
<path d="M2110 2552 c-41 -20 -115 -63 -163 -95 -112 -73 -143 -75 -198 -17
-59 61 -75 53 -59 -31 13 -73 39 -127 63 -135 19 -6 20 -12 13 -133 -7 -140
-17 -217 -41 -299 -16 -54 -16 -54 -48 -47 -72 17 -81 14 -89 -33 -10 -58 -49
-128 -119 -210 -78 -92 -90 -97 -181 -84 -44 6 -92 7 -123 2 -72 -13 -95 -12
-95 3 0 7 97 104 215 216 132 125 215 210 213 220 -2 8 -19 20 -38 25 -19 5
-36 10 -38 11 -1 1 6 25 17 53 l20 50 -30 41 c-17 22 -33 41 -35 41 -2 0 -41
-18 -85 -41 -45 -22 -91 -39 -105 -37 -22 3 -10 21 136 206 101 128 160 211
160 225 0 26 -17 47 -39 47 -8 0 -82 -45 -165 -99 -320 -210 -418 -259 -441
-221 -12 20 -25 9 -25 -20 l0 -30 65 0 c50 0 87 8 160 36 89 33 125 38 125 16
0 -5 -54 -82 -120 -172 -81 -111 -120 -173 -120 -191 0 -31 32 -63 58 -57 10
3 68 42 129 87 98 71 153 98 153 73 0 -19 -102 -132 -180 -200 -82 -71 -298
-222 -390 -274 -25 -14 -70 -30 -101 -37 -31 -7 -64 -20 -73 -30 -15 -16 -14
-19 8 -40 22 -21 28 -22 63 -11 21 7 116 52 211 101 95 49 175 89 178 89 2 0
4 -8 4 -18 0 -10 -51 -70 -114 -133 -62 -64 -122 -128 -132 -144 -17 -27 -17
-28 2 -42 18 -14 39 -14 122 3 29 6 32 4 32 -18 0 -26 -81 -162 -151 -255 -21
-29 -39 -57 -39 -62 0 -16 35 -31 72 -31 27 0 44 -12 98 -64 136 -133 294
-246 343 -246 22 0 73 66 98 125 l21 51 202 74 c175 64 223 86 369 173 l168
100 87 -85 c97 -95 145 -129 248 -181 136 -69 296 -108 487 -122 86 -6 101 -5
118 11 24 21 25 53 2 60 -10 3 -31 11 -48 19 -16 7 -68 16 -116 19 -151 10
-310 61 -453 145 -77 45 -256 185 -256 200 0 4 14 47 30 97 78 229 125 507 90
529 -6 4 -42 1 -81 -5 -39 -7 -72 -10 -75 -8 -2 3 75 68 171 147 157 127 175
145 175 172 0 24 -4 29 -17 25 -53 -16 -224 -56 -237 -56 -13 0 -16 12 -16 58
0 129 35 252 96 343 45 68 44 96 -5 132 -53 37 -91 35 -181 -11z m27 -119 c-3
-16 -17 -122 -33 -237 -27 -204 -27 -209 -9 -242 13 -24 25 -34 42 -34 15 0
23 -6 23 -17 0 -24 -197 -214 -245 -236 -23 -11 -58 -42 -83 -73 -53 -67 -133
-122 -191 -132 l-43 -7 191 -148 c105 -82 191 -152 191 -157 0 -16 -170 -169
-241 -215 -82 -56 -191 -100 -268 -110 l-53 -7 6 38 c14 86 19 334 6 349 -36
44 72 44 169 0 64 -30 102 -32 125 -6 48 53 -9 96 -186 141 -62 16 -114 29
-116 30 -2 0 35 42 83 93 48 50 96 109 108 129 21 37 24 38 78 38 71 0 102 22
123 88 29 91 43 189 56 393 13 220 40 265 195 331 61 26 79 24 72 -9z m43
-866 c0 -54 -31 -168 -71 -257 -35 -77 -46 -83 -102 -54 -39 21 -147 123 -147
140 0 24 131 125 235 181 79 43 85 42 85 -10z m-1052 -279 c-10 -114 -84 -274
-174 -375 -34 -39 -45 -46 -55 -35 -7 6 -21 12 -31 12 -32 0 -20 43 36 124 30
43 58 92 61 109 4 18 21 65 37 104 31 76 73 123 110 123 19 0 20 -4 16 -62z
m202 -255 l0 -213 -52 -85 c-48 -76 -56 -85 -83 -85 -16 0 -49 9 -73 20 -49
22 -142 113 -142 139 0 10 68 125 152 256 l151 238 24 -29 c22 -28 23 -34 23
-241z"/>
</g>
</svg>
