<?xml version="1.0" standalone="no"?>
<!DOCTYPE svg PUBLIC "-//W3C//DTD SVG 20010904//EN"
 "http://www.w3.org/TR/2001/REC-SVG-20010904/DTD/svg10.dtd">
<svg version="1.0" xmlns="http://www.w3.org/2000/svg"
 width="360.000000pt" height="360.000000pt" viewBox="0 0 360.000000 360.000000"
 preserveAspectRatio="xMidYMid meet">
<metadata>
Created by potrace 1.15, written by Peter Selinger 2001-2017
</metadata>
<g transform="translate(0.000000,360.000000) scale(0.100000,-0.100000)"
fill="#000000" stroke="none">
<path d="M1233 2419 l66 -64 -21 -68 -21 -68 20 -20 20 -20 52 65 c43 56 51
72 51 109 0 72 -52 109 -171 123 l-62 7 66 -64z"/>
<path d="M2115 2375 c-107 -52 -144 -65 -207 -73 -80 -10 -168 -45 -168 -66 0
-54 127 -71 274 -36 63 14 91 17 96 10 13 -21 346 63 379 95 23 22 5 62 -37
84 -44 22 -149 51 -183 50 -13 0 -82 -29 -154 -64z"/>
<path d="M1627 1983 c-39 -6 -52 -35 -26 -59 60 -54 109 -201 107 -324 0 -41
-6 -82 -11 -92 -8 -12 -7 -24 3 -42 11 -21 11 -45 2 -133 -7 -60 -12 -170 -12
-246 l0 -138 38 -40 37 -39 70 20 c128 38 389 100 479 115 l90 15 146 -45 c80
-25 156 -45 169 -45 34 0 81 37 81 64 0 31 -86 111 -147 138 -44 19 -60 20
-218 15 -111 -4 -202 -13 -263 -26 -103 -22 -238 -64 -293 -92 -36 -18 -36
-18 -59 6 -22 23 -22 24 -10 156 15 162 7 502 -14 606 -30 145 -79 200 -169
186z"/>
<path d="M805 1787 c-6 -28 11 -75 99 -283 66 -156 106 -263 106 -284 0 -19
-14 -97 -32 -172 l-32 -136 17 -117 c9 -64 24 -133 34 -153 16 -33 23 -37 61
-40 42 -3 42 -3 42 32 0 144 129 491 310 831 77 145 90 175 71 175 -14 0 -119
-129 -186 -231 -66 -97 -133 -230 -156 -306 -23 -79 -36 -53 -43 90 -4 72 -14
167 -21 211 -14 80 -18 89 -107 205 -46 60 -88 152 -88 191 0 16 -7 20 -35 20
-31 0 -35 -3 -40 -33z"/>
</g>
</svg>
