<?xml version="1.0" standalone="no"?>
<!DOCTYPE svg PUBLIC "-//W3C//DTD SVG 20010904//EN"
 "http://www.w3.org/TR/2001/REC-SVG-20010904/DTD/svg10.dtd">
<svg version="1.0" xmlns="http://www.w3.org/2000/svg"
 width="360.000000pt" height="360.000000pt" viewBox="0 0 360.000000 360.000000"
 preserveAspectRatio="xMidYMid meet">
<metadata>
Created by potrace 1.15, written by Peter Selinger 2001-2017
</metadata>
<g transform="translate(0.000000,360.000000) scale(0.100000,-0.100000)"
fill="#000000" stroke="none">
<path d="M1511 2387 c-27 -55 -27 -58 9 -92 22 -21 27 -32 19 -41 -7 -9 -7
-36 1 -91 9 -62 8 -107 -4 -221 -17 -160 -38 -217 -135 -362 -81 -121 -97
-137 -118 -124 -11 7 -18 22 -17 40 1 16 5 92 9 169 7 134 7 141 -13 158 -20
18 -22 18 -51 1 -32 -19 -42 -59 -20 -81 8 -8 8 -13 0 -17 -7 -5 -11 -71 -11
-195 l0 -188 -38 -59 c-42 -64 -113 -134 -137 -134 -19 0 -19 -14 1 -30 14
-12 62 -3 140 27 5 2 27 -21 48 -52 52 -74 158 -180 209 -208 40 -21 53 -22
282 -22 416 1 900 55 1135 127 173 54 259 131 223 201 -28 55 -44 164 -50 340
-5 159 -8 177 -23 177 -21 0 -22 -10 -46 -300 -11 -136 -21 -213 -31 -228 -21
-35 -124 -79 -249 -107 -222 -51 -773 -116 -799 -95 -10 8 -24 8 -52 1 -21 -6
-111 -11 -199 -11 l-162 0 -59 58 c-63 60 -97 115 -108 172 -5 30 1 47 39 111
47 79 105 149 124 149 7 0 15 -12 18 -27 15 -63 32 -83 70 -83 31 0 37 4 47
30 9 25 17 30 43 30 30 0 32 -2 37 -45 6 -57 30 -85 72 -85 26 0 42 10 78 49
115 123 210 326 312 668 l33 113 -33 20 c-66 41 -84 33 -270 -120 -93 -77
-177 -139 -185 -140 -17 0 -17 -19 -1 315 4 94 4 180 0 192 -9 26 -57 53 -93
53 -19 0 -29 -10 -45 -43z m483 -400 c17 -12 17 -19 7 -67 -15 -71 -86 -236
-165 -385 -61 -117 -64 -120 -99 -123 l-36 -3 -20 68 c-54 186 -68 239 -64
246 13 22 226 206 277 239 65 42 74 44 100 25z"/>
<path d="M761 2377 c97 -76 111 -91 105 -118 -3 -18 1 -32 13 -43 23 -21 34
-20 59 7 18 19 20 28 12 60 -15 70 -70 107 -157 107 -40 -1 -45 -3 -32 -13z"/>
<path d="M555 1816 c-9 -13 -21 -53 -27 -89 -11 -64 -10 -64 47 -225 l57 -160
-41 -294 c-23 -162 -41 -306 -41 -319 0 -16 16 -40 45 -69 41 -40 47 -43 60
-29 9 9 56 114 104 235 102 253 172 406 224 487 62 96 46 104 -36 19 -59 -62
-152 -198 -213 -312 -21 -39 -44 -70 -51 -70 -16 0 -17 48 -2 124 9 41 9 60 1
68 -7 7 -3 26 15 63 l26 52 -73 217 c-63 190 -72 225 -68 272 5 59 -3 67 -27
30z"/>
</g>
</svg>
