<?xml version="1.0" standalone="no"?>
<!DOCTYPE svg PUBLIC "-//W3C//DTD SVG 20010904//EN"
 "http://www.w3.org/TR/2001/REC-SVG-20010904/DTD/svg10.dtd">
<svg version="1.0" xmlns="http://www.w3.org/2000/svg"
 width="360.000000pt" height="360.000000pt" viewBox="0 0 360.000000 360.000000"
 preserveAspectRatio="xMidYMid meet">
<metadata>
Created by potrace 1.15, written by Peter Selinger 2001-2017
</metadata>
<g transform="translate(0.000000,360.000000) scale(0.100000,-0.100000)"
fill="#000000" stroke="none">
<path d="M1990 2534 c-104 -62 -205 -102 -291 -115 -41 -6 -84 -15 -96 -20
-44 -17 -161 -225 -283 -504 -54 -123 -263 -648 -296 -742 -15 -43 -23 -53
-41 -53 -27 0 -27 -8 -8 116 8 54 18 176 22 271 l6 172 -61 67 c-34 36 -67 82
-74 100 -17 48 -48 47 -48 -1 0 -42 27 -100 80 -171 l38 -51 -40 -314 c-25
-200 -37 -330 -33 -358 9 -59 42 -91 94 -91 50 0 39 -22 166 350 145 425 276
759 409 1043 33 68 51 97 64 97 9 0 51 -11 93 -24 l76 -24 154 89 c85 49 164
89 177 89 22 0 21 -2 -19 -82 -89 -177 -239 -408 -441 -680 l-119 -160 21 -34
c12 -19 29 -34 39 -34 10 0 51 25 91 55 63 47 76 53 88 42 29 -30 -41 -229
-141 -399 -31 -53 -57 -101 -57 -106 0 -5 11 -19 25 -32 24 -23 25 -23 45 -5
70 64 187 292 201 393 14 103 36 157 86 212 45 50 143 110 181 110 10 0 29
-11 41 -24 28 -29 25 -47 -26 -186 -51 -136 -130 -290 -217 -420 -42 -63 -76
-117 -76 -122 0 -4 12 -15 26 -25 21 -13 30 -14 45 -5 15 10 20 10 24 0 3 -7
21 -60 41 -118 46 -135 100 -246 132 -270 33 -27 73 -25 141 5 44 21 68 41
111 96 170 216 312 531 405 900 19 77 35 147 35 154 0 16 -135 105 -220 144
-36 17 -92 37 -125 46 l-60 15 -262 -85 c-143 -47 -267 -85 -273 -85 -7 0 -10
7 -6 15 3 9 103 158 222 333 119 174 219 323 221 332 3 10 -21 39 -66 78 -88
79 -113 81 -221 16z m556 -765 c69 -44 104 -79 104 -106 0 -32 -83 -296 -135
-428 -84 -217 -187 -397 -296 -518 l-52 -58 -23 22 c-30 28 -94 152 -138 264
l-33 87 64 107 c90 150 186 348 227 472 38 112 43 144 25 155 -24 15 39 32
122 33 79 1 89 -1 135 -30z"/>
<path d="M1096 2488 c24 -48 26 -57 17 -108 -7 -36 -7 -62 0 -77 l10 -22 63
32 c70 34 74 43 49 105 -20 47 -50 79 -97 103 -64 33 -72 26 -42 -33z"/>
</g>
</svg>
