<?xml version="1.0" standalone="no"?>
<!DOCTYPE svg PUBLIC "-//W3C//DTD SVG 20010904//EN"
 "http://www.w3.org/TR/2001/REC-SVG-20010904/DTD/svg10.dtd">
<svg version="1.0" xmlns="http://www.w3.org/2000/svg"
 width="360.000000pt" height="360.000000pt" viewBox="0 0 360.000000 360.000000"
 preserveAspectRatio="xMidYMid meet">
<metadata>
Created by potrace 1.15, written by Peter Selinger 2001-2017
</metadata>
<g transform="translate(0.000000,360.000000) scale(0.100000,-0.100000)"
fill="#000000" stroke="none">
<path d="M1692 2686 c-24 -50 -26 -48 51 -62 41 -7 40 -3 26 -99 -7 -51 -7
-125 2 -268 l12 -197 -24 -26 c-29 -31 -150 -106 -319 -199 -69 -37 -145 -79
-168 -92 l-44 -25 23 -24 c34 -36 97 -33 184 10 39 19 85 46 104 60 34 25 84
35 95 18 9 -16 -56 -188 -110 -291 -55 -104 -177 -291 -259 -397 -55 -70 -61
-114 -17 -114 32 0 75 41 169 160 64 83 205 293 273 408 23 39 48 72 55 72 20
0 24 -65 31 -475 7 -433 18 -396 -88 -298 -58 54 -88 61 -88 21 0 -52 100
-250 163 -323 33 -38 36 -39 61 -26 14 8 36 35 48 60 22 45 23 54 23 351 0
168 -2 339 -4 380 -2 41 0 101 4 133 6 49 11 57 28 57 21 0 213 -116 251 -152
97 -92 322 -181 605 -239 l114 -23 23 30 c41 50 36 53 -201 124 -202 61 -401
138 -484 189 -238 144 -301 196 -337 277 -24 56 -22 188 4 245 29 67 56 84
146 97 140 21 169 48 126 117 l-20 33 -127 -34 -126 -33 6 227 c4 125 10 238
13 252 5 22 -3 32 -54 73 -51 40 -67 47 -104 47 -42 0 -45 -2 -66 -44z"/>
<path d="M850 2388 c0 -19 9 -27 38 -37 58 -22 111 -59 118 -84 3 -12 20 -33
36 -46 l31 -25 36 21 c32 19 36 26 35 59 -1 30 -9 45 -37 70 -40 37 -79 49
-184 59 -72 6 -73 6 -73 -17z"/>
<path d="M730 1830 c-22 -22 -60 -93 -60 -112 0 -7 25 -67 56 -133 l56 -120
-6 -95 c-7 -111 -27 -246 -57 -382 -19 -84 -20 -103 -9 -142 21 -75 45 -106
83 -106 l33 0 68 159 c82 192 190 396 296 555 75 112 85 137 57 136 -7 -1 -97
-108 -202 -240 -104 -131 -191 -237 -193 -235 -2 1 9 69 23 150 l26 148 -71
164 c-71 162 -71 164 -61 214 6 27 11 52 11 54 0 13 -32 3 -50 -15z"/>
</g>
</svg>
