<?xml version="1.0" standalone="no"?>
<!DOCTYPE svg PUBLIC "-//W3C//DTD SVG 20010904//EN"
 "http://www.w3.org/TR/2001/REC-SVG-20010904/DTD/svg10.dtd">
<svg version="1.0" xmlns="http://www.w3.org/2000/svg"
 width="360.000000pt" height="360.000000pt" viewBox="0 0 360.000000 360.000000"
 preserveAspectRatio="xMidYMid meet">
<metadata>
Created by potrace 1.15, written by Peter Selinger 2001-2017
</metadata>
<g transform="translate(0.000000,360.000000) scale(0.100000,-0.100000)"
fill="#000000" stroke="none">
<path d="M1736 2638 c-244 -375 -431 -739 -524 -1019 -35 -106 -36 -108 -55
-91 -36 32 -106 138 -143 216 l-37 78 11 91 c6 50 9 93 7 96 -10 9 -54 -19
-71 -44 -30 -46 -36 -112 -18 -195 22 -98 55 -171 90 -199 l29 -22 -33 -257
c-18 -141 -32 -289 -32 -328 0 -66 2 -72 33 -102 18 -18 37 -32 43 -32 6 0 24
15 41 33 26 27 35 52 62 172 131 581 314 1066 520 1378 74 112 167 227 183
227 15 0 78 -66 78 -82 0 -8 -63 -133 -140 -278 -77 -145 -140 -274 -140 -287
0 -16 11 -28 39 -42 47 -24 51 -34 51 -117 0 -64 -2 -68 -72 -177 -91 -142
-168 -285 -168 -315 0 -18 21 -73 35 -89 6 -9 159 55 265 110 111 58 210 97
246 97 7 0 15 -19 19 -42 14 -85 52 -108 116 -71 35 21 36 40 14 168 -27 154
-71 225 -140 225 -51 0 -59 -19 -35 -81 11 -30 20 -61 20 -70 0 -12 -39 -30
-147 -67 -81 -28 -151 -48 -155 -46 -18 11 -6 57 29 111 57 90 92 180 93 240
0 56 -14 79 -56 89 -20 5 -24 12 -24 45 0 30 17 69 76 171 41 73 103 188 137
256 51 102 62 133 65 185 4 62 4 63 -34 96 -48 43 -129 81 -172 81 -31 0 -37
-7 -106 -112z"/>
<path d="M1090 2531 c0 -16 12 -21 67 -31 80 -13 112 -29 147 -70 27 -32 34
-64 16 -75 -15 -9 -12 -51 5 -65 28 -23 63 -3 90 50 22 44 24 55 15 89 -22 83
-104 121 -260 121 -72 0 -80 -2 -80 -19z"/>
<path d="M2390 2344 c-36 -7 -99 -25 -140 -40 -103 -35 -330 -145 -330 -159 0
-33 24 -31 173 15 84 26 202 63 263 83 l111 34 47 -41 48 -41 -11 -305 c-12
-332 -30 -549 -61 -735 -22 -127 -68 -315 -95 -378 -13 -33 -19 -37 -50 -37
-42 0 -58 20 -145 180 -34 63 -64 117 -66 119 -3 3 -12 -2 -20 -11 -14 -14
-10 -29 42 -159 75 -191 151 -348 170 -356 23 -9 88 60 129 137 85 164 143
424 179 810 23 242 30 438 18 453 -8 9 -5 47 10 139 l21 126 -74 91 c-71 87
-75 91 -114 90 -22 0 -69 -7 -105 -15z"/>
</g>
</svg>
