<?xml version="1.0" standalone="no"?>
<!DOCTYPE svg PUBLIC "-//W3C//DTD SVG 20010904//EN"
 "http://www.w3.org/TR/2001/REC-SVG-20010904/DTD/svg10.dtd">
<svg version="1.0" xmlns="http://www.w3.org/2000/svg"
 width="360.000000pt" height="360.000000pt" viewBox="0 0 360.000000 360.000000"
 preserveAspectRatio="xMidYMid meet">
<metadata>
Created by potrace 1.15, written by Peter Selinger 2001-2017
</metadata>
<g transform="translate(0.000000,360.000000) scale(0.100000,-0.100000)"
fill="#000000" stroke="none">
<path d="M1983 2980 c-85 -22 -129 -44 -142 -69 -14 -26 -8 -28 51 -20 29 4
87 7 128 7 171 -1 177 -20 55 -165 -47 -56 -85 -109 -85 -117 0 -54 83 -6 213
124 87 88 107 114 107 137 0 40 -35 70 -107 93 -95 29 -140 32 -220 10z"/>
<path d="M1160 2810 c0 -16 7 -20 38 -20 48 -1 110 -29 159 -74 38 -33 41 -35
55 -18 32 37 31 43 -13 88 l-43 44 -98 0 c-91 0 -98 -1 -98 -20z"/>
<path d="M2345 2489 c-80 -27 -227 -97 -336 -160 l-90 -51 -50 12 c-39 10 -53
9 -65 0 -12 -11 -19 -9 -37 9 -13 11 -29 21 -35 21 -20 0 -42 -45 -49 -97 l-5
-50 66 -70 c46 -49 66 -78 66 -96 0 -32 -42 -246 -81 -407 -105 -440 -267
-854 -455 -1163 -72 -117 -72 -155 -1 -105 40 28 47 36 111 133 145 217 326
669 457 1139 21 76 39 120 49 123 78 28 165 70 188 92 20 20 81 46 229 97 112
38 203 74 203 80 0 6 -10 20 -23 32 -20 19 -35 22 -100 22 -71 0 -77 2 -77 21
0 12 61 90 153 195 83 96 154 179 156 185 2 6 -7 21 -20 35 -20 22 -30 24
-108 24 -60 -1 -104 -7 -146 -21z m85 -89 c0 -26 -188 -275 -286 -379 -91 -97
-151 -141 -192 -141 -50 0 -56 17 -42 128 7 53 18 108 25 122 47 91 357 289
453 290 35 0 42 -3 42 -20z"/>
<path d="M971 2080 l-11 -70 66 -131 66 -132 -56 -271 -56 -271 15 -69 c17
-79 38 -108 74 -104 51 6 189 315 323 722 38 115 67 210 65 212 -13 13 -63
-68 -102 -165 -66 -163 -151 -329 -207 -406 -27 -37 -51 -65 -54 -62 -3 2 20
99 51 214 30 115 55 223 55 240 0 26 -14 44 -90 113 l-90 82 0 84 c0 75 -2 84
-19 84 -15 0 -20 -13 -30 -70z"/>
<path d="M1471 2079 c-13 -39 -14 -69 -2 -69 17 0 51 52 51 76 0 37 -35 31
-49 -7z"/>
</g>
</svg>
