<?xml version="1.0" standalone="no"?>
<!DOCTYPE svg PUBLIC "-//W3C//DTD SVG 20010904//EN"
 "http://www.w3.org/TR/2001/REC-SVG-20010904/DTD/svg10.dtd">
<svg version="1.0" xmlns="http://www.w3.org/2000/svg"
 width="360.000000pt" height="360.000000pt" viewBox="0 0 360.000000 360.000000"
 preserveAspectRatio="xMidYMid meet">
<metadata>
Created by potrace 1.15, written by Peter Selinger 2001-2017
</metadata>
<g transform="translate(0.000000,360.000000) scale(0.100000,-0.100000)"
fill="#000000" stroke="none">
<path d="M2001 3046 c-25 -30 -38 -452 -16 -507 14 -37 -163 -159 -229 -159
-51 0 -56 17 -56 204 0 167 -1 173 -23 194 -27 25 -62 29 -74 7 -5 -8 -3 -70
4 -137 6 -68 12 -150 12 -184 1 -56 -2 -63 -33 -93 -26 -25 -35 -44 -40 -82
-20 -153 -190 -508 -458 -956 -60 -101 -113 -183 -118 -183 -6 0 -10 36 -10
80 0 61 10 120 40 240 22 88 40 172 40 189 0 37 -55 144 -121 235 l-50 68 21
50 c30 70 13 80 -38 24 -23 -25 -42 -49 -42 -53 0 -5 24 -82 53 -173 l53 -165
-34 -292 c-19 -160 -32 -302 -28 -315 3 -13 14 -34 24 -47 18 -22 21 -23 58
-11 24 8 62 37 100 76 65 66 90 109 184 329 62 143 268 562 342 695 l53 95 3
-124 c2 -91 -2 -138 -13 -179 -19 -65 -91 -211 -181 -368 -35 -61 -64 -115
-64 -121 0 -5 13 -21 28 -36 l28 -27 73 21 c40 11 75 18 78 16 2 -3 9 -38 14
-79 11 -79 26 -136 42 -156 8 -10 15 -8 34 9 25 24 30 67 11 98 -9 15 -7 25
11 54 20 33 21 41 12 93 -6 32 -11 79 -11 105 0 45 3 49 65 108 36 33 70 61
76 61 5 0 20 -11 32 -25 12 -14 38 -33 57 -43 71 -35 106 -158 117 -409 4
-114 3 -156 -6 -167 -10 -12 -8 -30 9 -92 16 -56 19 -83 12 -98 -5 -12 -17
-106 -27 -211 -9 -104 -19 -209 -22 -233 -5 -38 -4 -42 15 -42 16 0 24 9 31
38 5 20 26 99 46 174 30 115 33 141 23 157 -10 16 -10 23 0 33 9 9 12 94 12
336 l0 324 23 -5 c12 -3 51 -17 86 -32 36 -15 90 -29 120 -31 l56 -4 65 76
c151 176 252 344 284 470 18 70 21 186 6 214 -12 23 -56 37 -141 45 -60 6 -84
2 -285 -54 -122 -34 -226 -61 -233 -61 -10 0 -12 27 -9 118 5 139 20 177 118
290 33 38 60 76 60 84 0 10 -24 20 -81 31 -108 21 -119 32 -119 118 0 38 5
114 11 169 13 123 6 184 -26 216 -28 28 -38 29 -54 10z m-11 -715 c0 -27 -36
-101 -74 -155 -54 -75 -182 -213 -190 -205 -3 3 -11 30 -17 60 -9 48 -8 61 12
114 30 82 97 150 169 175 59 21 100 25 100 11z m10 -291 c14 -52 7 -73 -43
-127 -57 -62 -227 -158 -227 -128 0 10 132 184 185 243 26 29 53 52 61 52 7 0
18 -18 24 -40z m634 -15 c3 -8 12 -15 21 -15 13 0 15 -9 9 -52 -23 -196 -123
-381 -272 -507 -60 -49 -72 -49 -158 0 -65 37 -120 96 -133 146 -6 21 -11 88
-11 150 0 108 1 112 25 132 36 28 139 66 312 117 161 47 198 52 207 29z m-644
-310 c0 -42 -2 -45 -27 -45 -31 0 -63 26 -63 50 0 10 13 21 33 28 54 17 57 16
57 -33z"/>
<path d="M1082 2698 c-9 -9 4 -29 54 -84 l65 -73 -11 -41 c-10 -36 -8 -44 10
-70 27 -38 42 -38 73 -1 25 30 43 112 29 136 -4 7 -35 43 -69 79 -56 59 -67
66 -101 66 -21 0 -43 -5 -50 -12z"/>
</g>
</svg>
