<?xml version="1.0" standalone="no"?>
<!DOCTYPE svg PUBLIC "-//W3C//DTD SVG 20010904//EN"
 "http://www.w3.org/TR/2001/REC-SVG-20010904/DTD/svg10.dtd">
<svg version="1.0" xmlns="http://www.w3.org/2000/svg"
 width="360.000000pt" height="360.000000pt" viewBox="0 0 360.000000 360.000000"
 preserveAspectRatio="xMidYMid meet">
<metadata>
Created by potrace 1.15, written by Peter Selinger 2001-2017
</metadata>
<g transform="translate(0.000000,360.000000) scale(0.100000,-0.100000)"
fill="#000000" stroke="none">
<path d="M1173 2429 c-30 -31 2 -63 74 -75 40 -6 43 -9 59 -58 34 -105 66
-121 122 -63 41 42 44 96 8 132 -43 43 -238 90 -263 64z"/>
<path d="M1890 2391 c-41 -21 -76 -69 -91 -124 -18 -69 4 -59 79 37 l22 29 38
-30 c20 -16 50 -51 66 -76 l28 -46 -41 -319 c-22 -175 -41 -330 -41 -344 0
-18 11 -34 36 -53 46 -35 61 -27 88 47 18 49 19 60 7 81 -29 53 18 229 83 318
30 40 45 50 103 70 111 36 230 89 248 109 16 18 16 21 -5 51 -21 29 -26 31
-63 25 -50 -8 -140 -51 -226 -106 -35 -23 -71 -40 -80 -38 -19 4 -27 46 -12
61 16 16 13 126 -4 183 -36 116 -144 174 -235 125z"/>
<path d="M1603 1888 c-39 -48 -78 -120 -149 -274 -223 -485 -353 -733 -362
-692 -2 9 15 117 37 240 54 294 54 300 -8 382 -68 89 -119 184 -134 245 -10
43 -15 51 -32 49 -22 -3 -32 -35 -34 -108 -1 -56 29 -123 97 -212 l51 -68 -44
-300 c-26 -171 -45 -336 -45 -384 0 -84 0 -84 35 -115 20 -17 44 -31 53 -31
14 0 82 142 306 641 181 405 286 651 284 667 -3 22 -8 18 -55 -40z"/>
<path d="M2382 1540 c-133 -35 -277 -112 -435 -232 -43 -33 -81 -58 -85 -56
-4 2 -42 22 -85 46 l-77 43 -31 -22 -31 -22 58 -58 57 -57 -6 -114 c-4 -62 -9
-133 -13 -158 -5 -42 -4 -46 22 -57 15 -7 38 -13 50 -13 30 0 40 16 53 89 22
131 102 250 224 333 123 84 374 185 399 160 9 -9 8 -19 -4 -45 -21 -44 -146
-199 -289 -360 -63 -71 -125 -142 -138 -158 l-24 -30 23 -49 c24 -51 39 -60
59 -37 6 7 107 42 226 77 118 36 215 69 215 75 0 6 -15 26 -33 43 l-33 32 -70
-10 c-98 -14 -104 -13 -104 11 0 11 73 107 175 228 190 226 194 234 155 299
-39 63 -124 77 -258 42z"/>
</g>
</svg>
