<?xml version="1.0" standalone="no"?>
<!DOCTYPE svg PUBLIC "-//W3C//DTD SVG 20010904//EN"
 "http://www.w3.org/TR/2001/REC-SVG-20010904/DTD/svg10.dtd">
<svg version="1.0" xmlns="http://www.w3.org/2000/svg"
 width="360.000000pt" height="360.000000pt" viewBox="0 0 360.000000 360.000000"
 preserveAspectRatio="xMidYMid meet">
<metadata>
Created by potrace 1.15, written by Peter Selinger 2001-2017
</metadata>
<g transform="translate(0.000000,360.000000) scale(0.100000,-0.100000)"
fill="#000000" stroke="none">
<path d="M981 2549 c-11 -19 -10 -25 6 -48 11 -14 36 -35 56 -46 28 -15 37
-26 37 -47 0 -83 51 -104 108 -45 60 62 36 105 -90 165 -93 44 -101 45 -117
21z"/>
<path d="M2330 2377 c-45 -16 -62 -57 -35 -87 10 -11 29 -20 42 -20 41 0 92
-28 113 -62 20 -30 21 -44 17 -168 -5 -145 -14 -188 -50 -241 -26 -39 -94 -70
-107 -49 -7 12 -66 3 -162 -26 -16 -5 -18 2 -18 60 0 65 0 66 -27 66 -15 0
-37 -10 -50 -22 -13 -12 -25 -20 -26 -17 -2 2 -27 39 -56 82 -36 53 -58 77
-72 77 -11 0 -22 -6 -25 -14 -3 -7 11 -76 30 -154 20 -78 36 -145 36 -150 0
-11 -212 -92 -240 -92 -14 0 -21 10 -26 38 -16 88 -80 166 -181 220 -57 30
-59 30 -71 11 -11 -17 -7 -26 29 -71 59 -75 119 -205 119 -259 0 -35 -132 -92
-245 -104 l-61 -7 -11 34 c-8 29 -7 38 8 57 13 16 19 39 19 75 l0 51 -20 -25
c-33 -42 -133 -243 -225 -455 -48 -110 -88 -201 -90 -203 -10 -11 -46 50 -60
102 -17 62 -17 63 19 284 20 122 36 239 36 258 0 31 -10 47 -65 105 -62 66
-115 151 -115 184 0 9 -9 15 -25 15 -24 0 -25 -2 -25 -64 0 -61 4 -72 69 -192
53 -97 67 -132 60 -145 -19 -36 -29 -215 -29 -535 0 -314 1 -332 19 -348 11
-10 30 -16 42 -14 19 3 32 28 89 178 106 280 220 531 255 560 6 5 42 0 90 -12
l80 -21 99 36 c54 20 102 37 106 37 4 0 11 -17 15 -37 12 -63 75 -267 91 -290
23 -36 95 -31 213 13 104 39 289 89 371 100 41 5 53 4 63 -10 13 -18 72 -35
123 -36 42 0 74 36 74 84 0 34 -3 39 -44 57 -24 10 -83 25 -130 32 l-87 12
142 208 143 207 76 0 c51 0 97 -7 139 -21 l62 -21 25 23 c16 15 24 33 24 56 0
29 -5 35 -47 57 -75 37 -130 51 -147 37 -8 -7 -16 -8 -18 -2 -2 6 -22 6 -57 0
-29 -6 -54 -9 -55 -7 -1 2 3 86 10 188 18 266 21 240 -32 299 -26 29 -59 58
-74 66 -41 21 -100 26 -140 12z m50 -731 c0 -15 -138 -259 -167 -294 -70 -85
-249 -191 -410 -243 -40 -12 -76 -20 -80 -16 -3 4 6 20 22 37 26 27 27 33 21
85 -6 50 -26 121 -50 177 -12 27 32 62 105 86 125 40 114 44 126 -58 6 -50 17
-100 27 -114 19 -30 51 -34 78 -9 15 14 18 32 18 129 0 107 1 114 26 144 31
37 71 58 127 70 44 8 157 13 157 6z"/>
</g>
</svg>
