<?xml version="1.0" standalone="no"?>
<!DOCTYPE svg PUBLIC "-//W3C//DTD SVG 20010904//EN"
 "http://www.w3.org/TR/2001/REC-SVG-20010904/DTD/svg10.dtd">
<svg version="1.0" xmlns="http://www.w3.org/2000/svg"
 width="360.000000pt" height="360.000000pt" viewBox="0 0 360.000000 360.000000"
 preserveAspectRatio="xMidYMid meet">
<metadata>
Created by potrace 1.15, written by Peter Selinger 2001-2017
</metadata>
<g transform="translate(0.000000,360.000000) scale(0.100000,-0.100000)"
fill="#000000" stroke="none">
<path d="M1942 2608 c-13 -16 -52 -245 -52 -303 0 -78 -29 -199 -66 -275 -27
-56 -57 -94 -113 -150 -71 -70 -175 -140 -188 -126 -3 3 -2 61 3 128 10 127 1
208 -21 208 -21 0 -31 -22 -44 -93 -24 -137 -71 -224 -135 -251 -27 -11 -40
-33 -100 -162 -135 -293 -269 -540 -331 -610 -33 -38 -34 -38 -35 -14 0 14 29
132 65 263 l65 238 -65 129 c-60 120 -65 135 -65 195 0 70 -11 82 -43 47 -25
-28 -21 -106 13 -254 17 -71 30 -149 30 -173 0 -24 -24 -146 -54 -272 l-55
-228 15 -83 c17 -99 36 -140 68 -148 59 -14 66 -7 123 136 102 254 343 803
359 819 2 2 26 -6 53 -18 70 -33 142 -19 229 46 18 13 37 23 42 21 5 -2 -15
-59 -44 -128 -103 -242 -209 -435 -283 -511 -21 -22 -33 -44 -31 -55 4 -24 46
-30 305 -38 l198 -7 108 65 c60 36 116 66 126 66 53 0 253 -94 381 -178 96
-64 245 -208 304 -295 46 -68 69 -72 74 -13 11 137 -223 368 -558 550 -47 25
-91 50 -99 55 -11 7 -4 24 33 83 78 126 98 187 104 311 l5 109 -49 50 c-48 49
-50 50 -97 44 -64 -7 -129 -44 -242 -138 -62 -51 -103 -78 -119 -78 l-25 0 16
53 c47 159 181 306 363 397 113 57 170 97 170 120 0 11 -24 36 -63 63 -90 64
-184 168 -193 212 -3 19 -1 63 5 97 10 58 9 64 -11 85 -24 25 -60 30 -76 11z
m98 -403 l44 -45 -44 -45 c-35 -36 -51 -45 -78 -45 -23 0 -33 4 -29 13 2 6 12
47 22 90 10 42 24 77 30 77 6 0 31 -20 55 -45z m124 -587 c8 -53 7 -63 -21
-127 -33 -74 -100 -193 -130 -230 l-18 -22 -120 56 c-66 32 -131 61 -143 66
-24 9 -24 9 18 59 147 175 270 262 365 257 l40 -2 9 -57z m-426 -397 c29 -10
74 -33 102 -52 l49 -34 -27 -28 c-15 -15 -55 -42 -90 -59 l-63 -31 -107 12
c-59 7 -108 14 -110 15 -8 9 14 91 32 119 50 74 115 92 214 58z"/>
<path d="M2457 2572 c-15 -17 -7 -27 136 -170 84 -84 157 -152 163 -152 19 0
44 36 44 64 0 73 -87 166 -220 234 -92 47 -101 49 -123 24z"/>
<path d="M1040 2418 c0 -14 9 -33 21 -44 12 -10 39 -55 61 -99 22 -44 42 -82
44 -84 2 -3 18 8 34 24 41 39 41 87 0 143 -37 52 -68 72 -120 79 -37 5 -40 4
-40 -19z"/>
</g>
</svg>
