<?xml version="1.0" standalone="no"?>
<!DOCTYPE svg PUBLIC "-//W3C//DTD SVG 20010904//EN"
 "http://www.w3.org/TR/2001/REC-SVG-20010904/DTD/svg10.dtd">
<svg version="1.0" xmlns="http://www.w3.org/2000/svg"
 width="360.000000pt" height="360.000000pt" viewBox="0 0 360.000000 360.000000"
 preserveAspectRatio="xMidYMid meet">
<metadata>
Created by potrace 1.15, written by Peter Selinger 2001-2017
</metadata>
<g transform="translate(0.000000,360.000000) scale(0.100000,-0.100000)"
fill="#000000" stroke="none">
<path d="M1951 3166 l-22 -24 25 -51 c24 -47 26 -60 26 -190 l0 -140 -29 -20
c-63 -45 -200 -102 -276 -116 -94 -16 -142 -47 -196 -125 -42 -60 -106 -216
-134 -325 -44 -170 -125 -251 -270 -269 l-50 -7 -63 80 -62 80 11 71 c6 39 8
74 6 77 -12 11 -45 -9 -57 -35 -7 -15 -15 -61 -18 -103 l-4 -76 46 -69 c25
-38 46 -79 46 -91 0 -12 -21 -140 -46 -285 -44 -252 -45 -266 -34 -338 18
-108 31 -130 81 -130 49 0 77 27 124 120 55 111 195 511 195 560 0 32 59 107
120 153 91 69 239 150 416 228 86 38 160 69 165 69 5 0 9 -9 9 -19 0 -13 -85
-96 -250 -242 -194 -172 -250 -227 -250 -246 0 -13 7 -26 15 -29 33 -13 269
91 317 139 15 16 35 27 45 25 11 -2 -41 -53 -155 -153 l-172 -149 0 -47 c0
-48 9 -59 51 -59 14 0 19 -7 19 -25 0 -19 -9 -28 -44 -44 -57 -25 -123 -85
-187 -173 -50 -67 -51 -69 -34 -88 10 -11 29 -20 43 -20 20 0 246 116 489 252
l51 29 32 -28 32 -29 -15 -73 c-13 -63 -13 -80 -1 -124 17 -65 17 -267 0 -442
-12 -119 -12 -140 6 -240 25 -143 27 -148 45 -106 34 81 79 673 54 714 -9 14
-10 22 -2 30 7 7 11 74 11 187 l0 176 68 26 c107 42 252 68 409 75 l142 6 31
32 c41 42 36 64 -21 94 l-46 25 -284 -67 c-156 -37 -287 -67 -291 -67 -5 0 -8
21 -7 48 1 45 3 50 70 111 60 55 77 65 129 76 64 13 110 38 110 58 0 8 -11 24
-24 36 l-24 23 -102 -21 c-184 -37 -184 -29 -2 88 196 127 182 114 153 145
-35 37 -106 36 -206 -4 -143 -57 -142 -32 2 70 59 41 128 90 154 108 35 25 70
38 140 53 116 24 218 54 242 71 16 12 16 15 -11 47 l-28 34 -240 -31 c-270
-36 -284 -37 -284 -19 0 6 34 50 75 97 67 77 75 89 75 127 0 49 -19 67 -136
131 l-69 37 -5 131 -5 130 -39 47 c-21 26 -44 47 -50 47 -7 0 -23 -11 -35 -24z
m205 -507 c4 -7 -10 -26 -32 -45 -43 -37 -68 -44 -60 -16 3 9 8 29 12 45 5 23
11 27 39 27 19 0 37 -5 41 -11z m-178 -129 l3 -74 -73 -73 c-127 -129 -260
-216 -417 -273 -128 -47 -127 -48 -86 68 50 138 128 291 169 331 l35 34 53
-12 c52 -11 57 -10 173 33 66 25 125 44 130 42 6 -1 11 -36 13 -76z m-848
-680 c56 -28 60 -32 54 -58 -14 -63 -86 -265 -131 -367 -46 -104 -50 -110 -78
-110 -26 0 -31 5 -41 42 -11 39 -8 56 47 255 32 117 59 225 59 241 0 35 15 35
90 -3z m828 -332 c-6 -18 -47 -45 -110 -73 -75 -32 -78 -13 -7 44 38 30 61 41
86 41 22 0 33 -4 31 -12z"/>
<path d="M1056 2732 c-4 -11 11 -49 39 -98 25 -43 51 -96 57 -116 6 -21 17
-38 23 -38 7 0 31 14 53 30 63 45 57 73 -37 173 -59 64 -123 87 -135 49z"/>
</g>
</svg>
