<?xml version="1.0" standalone="no"?>
<!DOCTYPE svg PUBLIC "-//W3C//DTD SVG 20010904//EN"
 "http://www.w3.org/TR/2001/REC-SVG-20010904/DTD/svg10.dtd">
<svg version="1.0" xmlns="http://www.w3.org/2000/svg"
 width="360.000000pt" height="360.000000pt" viewBox="0 0 360.000000 360.000000"
 preserveAspectRatio="xMidYMid meet">
<metadata>
Created by potrace 1.15, written by Peter Selinger 2001-2017
</metadata>
<g transform="translate(0.000000,360.000000) scale(0.100000,-0.100000)"
fill="#000000" stroke="none">
<path d="M2040 2902 c0 -32 16 -52 41 -52 30 0 31 -18 6 -73 -32 -71 -154
-214 -298 -350 -122 -115 -142 -147 -91 -147 19 0 54 21 112 66 110 86 468
448 477 482 13 53 -84 102 -202 102 -43 0 -45 -2 -45 -28z"/>
<path d="M1560 2804 l-31 -26 3 -97 3 -96 44 -24 43 -24 47 23 c67 32 119 77
141 121 24 47 26 89 5 89 -20 0 -71 -26 -111 -56 -17 -13 -36 -24 -41 -24 -13
0 -53 91 -53 119 0 28 -12 26 -50 -5z"/>
<path d="M1071 2658 l-43 -31 74 -74 c75 -76 100 -90 143 -79 67 17 0 149
-101 199 -30 16 -33 15 -73 -15z"/>
<path d="M2085 2388 c-102 -41 -393 -188 -508 -257 -86 -51 -88 -53 -71 -72
13 -14 31 -19 72 -19 44 0 69 8 133 41 73 38 81 40 114 29 34 -11 35 -13 35
-65 l0 -53 -105 -53 c-129 -63 -195 -118 -195 -160 0 -26 3 -29 33 -29 17 0
88 25 157 55 69 30 126 55 128 55 1 0 2 -31 2 -70 l0 -69 -75 -65 c-72 -60
-227 -170 -260 -182 -19 -8 -19 4 0 141 14 98 14 110 0 132 -14 20 -23 24 -58
21 -34 -2 -45 -9 -64 -37 -29 -43 -30 -85 -3 -104 21 -14 21 -15 -11 -141
l-32 -127 34 -35 c52 -54 73 -48 210 56 79 61 126 90 144 90 23 0 25 -3 20
-22 -28 -94 -195 -332 -384 -548 l-100 -114 19 -31 c11 -16 27 -30 37 -30 10
0 110 110 254 280 131 154 244 281 252 283 22 4 27 -38 34 -264 6 -221 2 -245
-58 -366 -37 -74 -36 -109 4 -205 31 -72 36 -78 63 -78 23 0 32 7 47 37 33 67
74 360 54 386 -6 8 -6 12 1 12 6 0 4 25 -5 67 -11 53 -13 143 -11 402 l3 333
47 43 c75 68 300 135 453 135 75 0 89 -12 79 -67 -16 -84 -62 -160 -158 -260
-52 -55 -64 -63 -95 -62 -32 0 -42 8 -89 65 -29 35 -57 64 -61 64 -5 0 -14
-13 -21 -29 -13 -32 -7 -78 16 -122 18 -35 88 -97 119 -105 66 -16 184 70 295
216 84 110 160 233 160 259 0 46 -144 171 -196 171 -10 0 -127 -29 -260 -65
-134 -36 -248 -65 -253 -65 -7 0 -11 24 -11 58 0 67 21 96 84 113 26 7 36 15
36 31 0 44 67 145 158 238 63 65 92 101 90 115 -4 30 -83 64 -159 71 -56 4
-74 0 -144 -28z m75 -128 c0 -31 -131 -160 -163 -160 -21 0 -26 7 -36 45 -19
74 2 96 112 120 84 18 87 18 87 -5z"/>
<path d="M1437 2252 c-10 -10 -17 -27 -17 -37 0 -16 4 -15 30 10 17 16 30 32
30 37 0 15 -27 8 -43 -10z"/>
<path d="M1350 2093 c-98 -149 -211 -404 -316 -713 -49 -142 -55 -155 -78
-158 -32 -4 -32 -1 -1 130 63 265 82 464 46 509 -33 43 -59 103 -70 163 -6 33
-13 61 -16 64 -9 9 -42 -28 -59 -66 -16 -37 -16 -38 27 -167 l43 -130 -28
-140 c-40 -196 -67 -390 -75 -528 l-6 -118 28 -29 c36 -38 55 -38 110 0 40 27
47 38 65 103 125 426 259 821 350 1032 28 62 50 116 50 119 0 22 -26 -5 -70
-71z"/>
</g>
</svg>
