<?xml version="1.0" standalone="no"?>
<!DOCTYPE svg PUBLIC "-//W3C//DTD SVG 20010904//EN"
 "http://www.w3.org/TR/2001/REC-SVG-20010904/DTD/svg10.dtd">
<svg version="1.0" xmlns="http://www.w3.org/2000/svg"
 width="360.000000pt" height="360.000000pt" viewBox="0 0 360.000000 360.000000"
 preserveAspectRatio="xMidYMid meet">
<metadata>
Created by potrace 1.15, written by Peter Selinger 2001-2017
</metadata>
<g transform="translate(0.000000,360.000000) scale(0.100000,-0.100000)"
fill="#000000" stroke="none">
<path d="M1110 2481 c0 -20 135 -201 150 -201 13 0 40 41 40 60 0 17 -161 160
-179 160 -6 0 -11 -9 -11 -19z"/>
<path d="M2080 2488 c-85 -18 -209 -58 -316 -103 -109 -46 -138 -53 -149 -35
-25 41 -80 -48 -101 -162 -6 -36 -5 -38 20 -38 21 0 26 5 26 25 0 13 5 36 12
50 11 25 12 26 112 23 l101 -3 3 -43 c2 -23 -4 -67 -12 -96 -32 -108 -107
-171 -218 -183 -45 -4 -56 -2 -72 16 -11 11 -25 21 -32 21 -21 0 -45 -56 -51
-117 l-6 -55 49 25 c50 25 141 47 197 47 34 0 33 -5 -24 -129 -45 -98 -79
-145 -121 -171 l-30 -18 35 -26 c18 -14 40 -26 48 -26 22 0 97 81 104 113 9
35 75 137 132 204 l45 52 -12 70 c-10 62 -10 73 8 107 11 22 24 75 31 118 24
163 102 241 259 259 38 5 44 2 66 -25 l24 -31 -25 -89 c-35 -127 -75 -240
-136 -376 -59 -132 -164 -322 -177 -322 -14 0 -48 48 -66 96 -16 42 -18 44
-35 28 -15 -13 -19 -32 -19 -83 l0 -67 54 -53 c75 -74 83 -72 169 69 144 236
244 436 322 650 67 183 68 168 -18 234 -79 61 -99 65 -197 44z"/>
<path d="M867 1942 c-9 -10 -24 -49 -34 -86 -16 -67 -16 -68 15 -219 18 -84
32 -172 32 -197 0 -25 -23 -164 -50 -309 -28 -145 -50 -284 -50 -308 0 -90 56
-162 133 -170 l45 -5 41 70 c52 86 134 275 194 447 74 211 158 478 155 495 -5
25 -225 -408 -288 -568 -69 -175 -89 -218 -125 -261 -37 -44 -55 -41 -55 10 0
23 27 172 60 331 l60 290 -60 150 -61 149 11 75 c17 125 12 145 -23 106z"/>
<path d="M2358 1454 c-20 -20 -1 -34 85 -64 104 -36 182 -76 244 -127 35 -28
50 -34 80 -31 36 3 38 5 41 40 8 89 -43 133 -188 162 -92 18 -252 31 -262 20z"/>
<path d="M2010 1259 c-58 -54 -108 -99 -111 -99 -4 0 -30 21 -58 46 -68 61
-86 57 -85 -18 2 -100 64 -168 154 -168 l46 0 102 139 c56 76 102 143 102 148
0 5 -10 19 -22 30 l-23 21 -105 -99z"/>
<path d="M1476 1279 c-46 -36 -76 -197 -76 -404 0 -103 2 -113 29 -160 56 -96
39 -91 356 -104 241 -10 295 -10 390 4 223 31 375 65 375 85 0 4 -23 59 -50
121 -110 247 -209 384 -292 404 -47 12 -45 -17 4 -82 79 -103 204 -333 195
-357 -10 -25 -85 -38 -247 -43 -91 -3 -170 -9 -176 -14 -6 -5 -14 -5 -20 0 -5
5 -101 11 -214 14 -113 2 -215 8 -227 12 -22 7 -23 12 -23 129 1 76 7 153 19
207 16 78 16 87 2 96 -15 10 -14 12 2 30 22 26 22 55 -2 70 -16 10 -24 9 -45
-8z"/>
</g>
</svg>
