<?xml version="1.0" standalone="no"?>
<!DOCTYPE svg PUBLIC "-//W3C//DTD SVG 20010904//EN"
 "http://www.w3.org/TR/2001/REC-SVG-20010904/DTD/svg10.dtd">
<svg version="1.0" xmlns="http://www.w3.org/2000/svg"
 width="360.000000pt" height="360.000000pt" viewBox="0 0 360.000000 360.000000"
 preserveAspectRatio="xMidYMid meet">
<metadata>
Created by potrace 1.15, written by Peter Selinger 2001-2017
</metadata>
<g transform="translate(0.000000,360.000000) scale(0.100000,-0.100000)"
fill="#000000" stroke="none">
<path d="M1973 2347 l-73 -64 -80 -6 c-141 -11 -230 -68 -245 -159 -10 -57
-178 -553 -262 -771 -72 -189 -140 -341 -173 -387 -21 -29 -60 -41 -60 -18 0
6 16 98 36 205 l37 194 -23 87 c-28 107 -29 109 -103 205 l-59 79 12 59 c7 33
10 62 7 66 -11 11 -77 -47 -96 -85 l-19 -37 82 -165 83 -165 -24 -265 c-25
-280 -24 -347 7 -398 18 -30 24 -32 74 -32 54 0 56 1 80 43 13 23 39 81 57
130 28 75 36 87 56 87 20 0 22 -3 12 -18 -18 -28 -2 -91 31 -124 25 -24 36
-28 85 -28 49 0 64 5 104 34 126 92 395 196 774 300 l129 35 76 -30 c42 -17
80 -34 84 -37 3 -4 -8 -89 -26 -189 l-32 -183 32 -31 c63 -61 100 -21 149 165
21 76 23 99 14 114 -9 14 -9 27 -2 49 7 20 7 83 0 201 -7 119 -7 193 0 240
l10 67 -34 42 c-42 53 -119 101 -135 85 -9 -9 -5 -61 12 -197 22 -175 23 -187
7 -203 -14 -14 -21 -14 -37 -4 -29 18 -152 15 -276 -8 -60 -11 -133 -20 -161
-20 l-53 0 0 90 c0 76 2 90 16 90 9 0 76 -21 148 -46 110 -38 136 -43 159 -35
37 14 34 36 -11 81 -37 38 -91 60 -144 60 -25 0 -28 4 -28 33 0 26 21 63 95
168 52 73 95 138 95 144 -1 22 -39 92 -63 114 -21 19 -33 23 -63 18 -52 -9
-106 -48 -140 -101 -32 -51 -57 -58 -119 -32 -67 28 -66 33 70 271 109 189
125 222 125 261 0 43 -2 46 -37 61 -82 34 -101 30 -180 -40z m-15 -214 c-14
-50 -58 -137 -124 -244 -30 -48 -54 -94 -54 -102 0 -24 53 -63 120 -89 62 -23
62 -23 56 -58 -9 -57 -72 -172 -123 -224 -55 -56 -59 -52 -44 54 5 40 7 78 4
86 -5 15 -99 64 -122 64 -18 0 -71 -49 -71 -67 0 -15 32 -33 59 -33 12 0 21
-2 21 -4 0 -3 -18 -72 -40 -153 -22 -81 -40 -156 -40 -165 0 -20 58 -118 70
-118 4 0 32 21 61 48 57 51 109 125 109 154 0 13 8 18 30 18 l30 0 0 -68 c0
-37 4 -72 10 -78 6 -6 -70 -47 -222 -117 -127 -59 -232 -106 -234 -104 -2 2 1
19 7 37 9 24 9 38 1 51 -7 12 -8 20 -2 24 20 12 11 184 -12 257 l-22 68 43
173 c76 306 152 516 206 567 25 23 28 23 86 11 65 -13 104 -6 164 30 42 26 45
24 33 -18z m282 -342 c0 -19 -111 -206 -122 -206 -7 0 -18 18 -24 40 l-12 40
71 72 c63 64 87 79 87 54z"/>
<path d="M1160 2358 c0 -8 14 -27 30 -43 32 -30 38 -63 18 -95 -11 -17 -8 -24
22 -55 63 -65 150 -37 150 50 0 72 -72 135 -173 150 -37 6 -47 4 -47 -7z"/>
</g>
</svg>
