<?xml version="1.0" standalone="no"?>
<!DOCTYPE svg PUBLIC "-//W3C//DTD SVG 20010904//EN"
 "http://www.w3.org/TR/2001/REC-SVG-20010904/DTD/svg10.dtd">
<svg version="1.0" xmlns="http://www.w3.org/2000/svg"
 width="360.000000pt" height="360.000000pt" viewBox="0 0 360.000000 360.000000"
 preserveAspectRatio="xMidYMid meet">
<metadata>
Created by potrace 1.15, written by Peter Selinger 2001-2017
</metadata>
<g transform="translate(0.000000,360.000000) scale(0.100000,-0.100000)"
fill="#000000" stroke="none">
<path d="M2123 2540 c-27 -11 -28 -18 -9 -39 12 -14 10 -21 -23 -57 -28 -32
-78 -62 -210 -128 -169 -85 -173 -88 -155 -107 24 -27 70 -24 175 11 128 43
270 117 358 188 22 18 23 22 11 56 -7 23 -25 46 -48 61 -38 26 -62 30 -99 15z"/>
<path d="M1217 2312 c-35 -38 -22 -59 48 -82 36 -12 65 -25 65 -29 0 -5 -5
-23 -11 -40 -19 -53 0 -81 54 -81 57 0 97 38 97 94 0 53 -30 89 -102 125 -70
36 -127 40 -151 13z"/>
<path d="M2290 2241 c-56 -17 -133 -64 -206 -126 -86 -71 -71 -69 -149 -19
-24 16 -27 15 -45 -1 -11 -10 -20 -29 -20 -43 0 -32 88 -152 112 -152 10 0 64
47 120 104 103 105 180 156 236 156 18 0 22 -5 22 -32 0 -28 -25 -61 -175
-230 -173 -194 -193 -226 -165 -254 7 -7 -41 -39 -145 -98 l-154 -88 -32 22
-31 23 -21 -22 -21 -21 39 -40 c32 -32 46 -40 76 -40 42 0 156 33 211 61 21
11 40 19 43 19 3 0 5 -39 5 -87 l0 -88 -75 -38 c-41 -22 -86 -52 -100 -68 -14
-18 -47 -38 -80 -49 -68 -23 -132 -59 -139 -76 -7 -17 29 -61 67 -82 18 -9 66
-31 107 -49 51 -21 76 -37 78 -50 2 -12 -30 -54 -93 -120 -52 -56 -95 -105
-95 -110 0 -16 65 -73 83 -73 10 0 45 14 79 31 76 38 248 83 400 104 l113 15
110 -34 c94 -30 113 -33 134 -23 30 14 37 38 22 75 -16 39 -67 70 -170 103
l-90 29 -140 -22 c-78 -12 -144 -19 -147 -15 -4 4 45 60 109 126 130 136 196
217 232 289 28 56 33 110 11 118 -8 3 -81 1 -162 -6 -80 -6 -147 -10 -149 -8
-1 2 2 35 7 73 10 81 51 170 89 198 24 18 32 18 77 7 44 -12 53 -11 88 6 45
22 56 55 28 85 -34 37 -183 20 -235 -27 -10 -9 -25 -14 -35 -12 -12 2 44 62
194 208 189 182 212 208 212 236 0 43 -42 78 -127 104 -71 22 -67 22 -103 11z
m-65 -1038 c-26 -63 -76 -112 -112 -113 -20 0 -23 5 -23 38 1 57 57 112 116
112 l34 0 -15 -37z m-248 -113 c2 -8 -13 -37 -33 -63 -35 -48 -36 -48 -77 -42
-71 12 -71 17 1 72 66 51 104 63 109 33z"/>
<path d="M1578 2029 c-21 -11 -38 -20 -38 -22 0 -1 7 -27 15 -57 8 -30 15 -84
15 -120 0 -63 -1 -65 -40 -100 -30 -27 -77 -107 -206 -350 -162 -306 -188
-350 -199 -338 -3 2 12 93 33 201 l38 195 -56 154 c-31 84 -59 159 -63 166 -5
6 -19 12 -33 12 -19 0 -28 -8 -39 -34 -13 -30 -12 -41 6 -106 22 -81 42 -125
70 -156 19 -20 19 -23 -5 -165 -56 -322 -74 -616 -43 -676 23 -44 54 -63 102
-63 l40 0 42 174 c99 406 249 780 374 928 l26 32 33 -24 c61 -43 115 2 126
106 8 71 -7 94 -60 94 -47 0 -56 15 -56 97 0 69 -1 73 -22 73 -13 -1 -40 -10
-60 -21z"/>
</g>
</svg>
