<?xml version="1.0" standalone="no"?>
<!DOCTYPE svg PUBLIC "-//W3C//DTD SVG 20010904//EN"
 "http://www.w3.org/TR/2001/REC-SVG-20010904/DTD/svg10.dtd">
<svg version="1.0" xmlns="http://www.w3.org/2000/svg"
 width="360.000000pt" height="360.000000pt" viewBox="0 0 360.000000 360.000000"
 preserveAspectRatio="xMidYMid meet">
<metadata>
Created by potrace 1.15, written by Peter Selinger 2001-2017
</metadata>
<g transform="translate(0.000000,360.000000) scale(0.100000,-0.100000)"
fill="#000000" stroke="none">
<path d="M1855 2693 c-31 -47 -31 -60 -1 -98 24 -30 24 -30 45 -11 31 28 45 9
49 -73 10 -173 -91 -293 -258 -308 l-61 -6 27 -28 c25 -26 33 -28 118 -31 l91
-3 -2 -28 c-5 -78 -104 -192 -248 -286 -85 -56 -88 -57 -187 -66 -40 -4 -76
-13 -88 -23 -19 -16 -20 -21 -10 -67 l12 -50 -70 -145 c-84 -176 -173 -377
-198 -447 -11 -30 -25 -53 -33 -53 -11 0 -13 14 -6 78 4 42 8 95 9 117 1 25 7
45 18 52 22 18 38 97 38 198 0 78 -3 89 -45 177 l-45 93 41 97 c23 53 39 104
36 112 -10 25 -36 30 -57 11 -22 -20 -120 -213 -120 -236 0 -8 18 -64 41 -126
l42 -112 -42 -243 c-45 -265 -48 -318 -27 -451 19 -113 51 -181 88 -185 19 -2
31 3 42 21 26 38 72 184 142 447 133 498 169 564 336 626 43 16 47 16 62 1 9
-9 39 -19 66 -23 28 -4 50 -11 50 -17 0 -5 -30 -41 -66 -79 -87 -93 -93 -108
-63 -153 13 -19 36 -41 52 -48 15 -6 27 -15 27 -19 0 -4 -61 -75 -135 -157
-74 -83 -135 -158 -135 -168 0 -10 9 -33 20 -51 17 -27 25 -32 43 -26 44 13
104 48 238 135 129 85 169 103 169 77 0 -16 -102 -198 -158 -281 -48 -71 -124
-147 -149 -147 -26 0 -9 -35 18 -38 39 -5 140 69 221 162 87 100 168 214 168
235 0 34 71 162 113 204 91 91 218 137 379 137 86 0 91 1 133 34 l44 33 -44
32 c-51 36 -63 37 -140 11 -31 -11 -67 -17 -79 -15 -11 3 -79 -13 -150 -35
-72 -22 -131 -38 -132 -37 -1 1 8 79 20 174 20 152 20 175 8 200 -19 37 -51
72 -85 93 l-28 17 90 62 c86 59 92 61 153 61 35 1 81 8 103 17 22 8 61 18 88
20 45 5 47 4 47 -20 0 -23 -17 -36 -136 -103 -75 -43 -138 -84 -141 -91 -18
-47 50 -32 309 69 130 50 178 78 178 104 0 38 -104 142 -144 145 -6 0 -33 4
-59 8 -43 7 -72 1 -249 -50 -195 -57 -258 -69 -258 -50 0 6 14 48 30 94 l31
84 57 17 c66 21 167 70 177 87 4 6 -7 26 -25 44 l-32 33 -66 -19 c-37 -10 -73
-19 -79 -19 -10 0 -13 29 -13 114 l0 114 -64 56 c-79 69 -104 72 -141 19z m83
-855 c5 -21 18 -38 36 -46 27 -14 28 -14 21 -90 -10 -119 -35 -262 -56 -318
-21 -56 -72 -114 -100 -114 -27 0 -24 22 7 51 14 13 39 41 56 61 l30 38 -30
30 c-17 17 -49 34 -77 41 l-47 12 77 71 76 71 -26 33 c-24 29 -32 32 -83 33
-81 0 -126 18 -130 49 -3 24 4 28 110 67 62 23 116 42 120 42 4 1 11 -14 16
-31z"/>
<path d="M1166 2381 c-17 -18 -14 -24 66 -130 45 -61 90 -111 99 -111 24 0 49
33 49 64 0 35 -40 113 -76 150 -49 49 -108 60 -138 27z"/>
<path d="M2184 1066 c-8 -20 63 -121 129 -183 41 -39 71 -82 117 -170 70 -133
116 -203 131 -203 6 0 24 10 41 21 28 20 29 25 24 68 -4 25 -25 83 -47 128
-47 97 -146 203 -276 296 -82 58 -109 68 -119 43z"/>
</g>
</svg>
