<?xml version="1.0" standalone="no"?>
<!DOCTYPE svg PUBLIC "-//W3C//DTD SVG 20010904//EN"
 "http://www.w3.org/TR/2001/REC-SVG-20010904/DTD/svg10.dtd">
<svg version="1.0" xmlns="http://www.w3.org/2000/svg"
 width="360.000000pt" height="360.000000pt" viewBox="0 0 360.000000 360.000000"
 preserveAspectRatio="xMidYMid meet">
<metadata>
Created by potrace 1.15, written by Peter Selinger 2001-2017
</metadata>
<g transform="translate(0.000000,360.000000) scale(0.100000,-0.100000)"
fill="#000000" stroke="none">
<path d="M1675 2520 c-18 -20 -17 -21 39 -79 l56 -60 -16 -43 c-28 -72 -103
-228 -133 -279 -31 -50 -32 -83 -3 -106 31 -25 56 -15 84 35 47 83 145 168
251 218 68 31 77 30 77 -7 0 -22 -31 -74 -121 -205 -178 -255 -261 -344 -371
-400 -27 -13 -48 -31 -48 -40 0 -25 68 -323 96 -419 14 -49 35 -111 46 -137
18 -43 24 -48 52 -48 53 0 130 28 177 63 26 20 62 37 87 41 179 28 370 261
528 642 42 101 38 121 -23 152 -49 25 -80 32 -181 42 l-83 9 -142 -60 c-78
-33 -147 -58 -154 -57 -8 2 57 97 157 232 l170 229 0 63 c0 35 -3 65 -7 67 -5
3 -80 -24 -167 -59 -88 -35 -162 -61 -165 -59 -2 3 1 48 8 99 11 84 10 98 -4
126 -20 39 -68 60 -138 60 -41 0 -58 -5 -72 -20z m578 -731 c41 -11 59 -39 59
-95 0 -43 -75 -230 -121 -301 -71 -110 -149 -173 -213 -173 -30 0 -38 4 -38
18 0 46 35 127 80 188 28 36 50 67 50 70 0 2 -24 29 -54 58 -52 53 -87 120
-70 136 5 4 27 13 49 20 64 20 152 68 159 86 6 17 9 17 99 -7z m-399 -222 c28
-23 28 -25 16 -63 -9 -26 -39 -65 -91 -117 -99 -98 -101 -110 -14 -105 36 1
65 2 65 1 0 -1 -14 -40 -31 -87 -27 -75 -34 -86 -54 -86 -14 0 -26 7 -29 18
-3 9 -23 79 -46 156 -27 89 -40 153 -38 180 3 40 4 42 83 83 44 23 87 42 95
43 8 0 28 -10 44 -23z"/>
<path d="M999 2379 l-22 -32 30 -26 c16 -14 43 -33 60 -42 19 -10 47 -46 78
-100 27 -46 50 -86 52 -88 2 -3 21 13 43 34 32 31 40 46 40 75 0 30 -9 44 -62
97 -121 118 -178 139 -219 82z"/>
<path d="M1458 2092 c-101 -170 -233 -464 -354 -784 -33 -88 -65 -158 -71
-158 -17 0 -17 2 8 144 35 202 17 266 -95 340 l-56 37 0 90 c0 87 -1 90 -22
87 -16 -2 -29 -20 -51 -73 -49 -119 -27 -193 79 -266 l46 -31 -7 -82 c-9 -117
-32 -289 -61 -458 -28 -160 -24 -223 16 -315 18 -41 21 -43 64 -43 l45 0 20
68 c11 37 45 155 76 262 151 525 289 936 376 1117 27 57 49 109 49 117 0 36
-20 19 -62 -52z"/>
<path d="M2135 960 c-205 -41 -371 -84 -538 -141 -142 -47 -347 -135 -347
-148 1 -15 40 -51 56 -51 9 0 114 32 232 71 385 126 667 189 847 189 88 0 99
-3 201 -45 116 -49 162 -55 187 -27 40 44 7 86 -117 151 -58 31 -68 33 -89 22
-18 -10 -33 -10 -63 -2 -69 19 -218 12 -369 -19z"/>
</g>
</svg>
