<?xml version="1.0" standalone="no"?>
<!DOCTYPE svg PUBLIC "-//W3C//DTD SVG 20010904//EN"
 "http://www.w3.org/TR/2001/REC-SVG-20010904/DTD/svg10.dtd">
<svg version="1.0" xmlns="http://www.w3.org/2000/svg"
 width="360.000000pt" height="360.000000pt" viewBox="0 0 360.000000 360.000000"
 preserveAspectRatio="xMidYMid meet">
<metadata>
Created by potrace 1.15, written by Peter Selinger 2001-2017
</metadata>
<g transform="translate(0.000000,360.000000) scale(0.100000,-0.100000)"
fill="#000000" stroke="none">
<path d="M1940 2677 c-31 -24 -94 -87 -140 -140 -47 -53 -92 -97 -101 -97 -23
0 -41 25 -48 68 -6 35 -8 37 -50 40 l-44 3 7 -66 c9 -86 30 -138 72 -175 42
-37 78 -47 101 -29 20 17 117 164 175 264 42 74 42 75 83 75 33 0 47 -6 70
-30 l28 -29 -31 -63 c-83 -169 -243 -354 -412 -478 -47 -34 -89 -72 -93 -85
-8 -22 -45 -45 -72 -45 -34 0 -12 -52 35 -84 47 -31 174 -10 262 44 34 21 68
26 68 11 0 -22 -164 -226 -252 -314 -103 -102 -116 -128 -80 -160 11 -10 35
-17 58 -17 38 0 42 3 80 63 22 34 73 103 113 153 l73 91 41 -9 c23 -5 57 -6
77 -3 27 4 72 -8 203 -55 183 -65 234 -73 267 -40 28 28 26 74 -6 99 -55 43
-323 79 -449 59 -41 -6 -78 -9 -82 -5 -20 21 79 148 250 322 131 134 157 172
127 190 -5 3 -109 -44 -230 -105 -122 -61 -226 -110 -231 -108 -5 2 30 48 79
103 102 117 199 241 271 344 43 64 51 81 51 121 0 32 -6 52 -18 63 -27 25
-105 56 -154 63 -40 5 -47 2 -98 -39z"/>
<path d="M1040 2421 c0 -12 11 -23 29 -29 38 -13 58 -45 71 -112 9 -48 8 -56
-10 -75 -27 -29 -25 -39 12 -70 46 -39 99 -20 134 47 48 92 -19 197 -152 238
-81 25 -84 25 -84 1z"/>
<path d="M848 1802 c-39 -24 -37 -67 12 -199 47 -128 47 -113 20 -523 -11
-168 -20 -348 -20 -401 0 -95 0 -95 33 -127 31 -30 79 -43 90 -24 7 10 307
1168 307 1182 0 6 -8 10 -17 8 -13 -2 -32 -50 -73 -183 -69 -221 -118 -352
-175 -470 -48 -99 -70 -133 -80 -124 -3 4 5 111 19 240 16 147 22 237 16 244
-6 7 -6 15 1 22 20 20 -33 216 -66 243 -10 9 -11 18 -3 40 8 23 6 35 -8 60
-21 35 -21 35 -56 12z"/>
<path d="M2176 1393 c-115 -16 -257 -61 -530 -168 -108 -42 -204 -75 -214 -73
-54 9 -54 -38 -1 -234 22 -83 38 -157 35 -165 -9 -23 -123 -70 -241 -100 -60
-15 -112 -29 -114 -31 -3 -1 9 -17 26 -34 l31 -31 418 77 c293 54 431 76 458
71 26 -4 44 -1 55 8 24 22 79 26 187 17 130 -12 199 -31 312 -85 52 -25 98
-45 103 -45 5 0 25 10 44 23 61 39 39 89 -63 141 -57 29 -246 88 -339 106 -35
7 -63 14 -63 16 0 1 54 86 121 189 94 145 120 191 115 209 -7 27 -77 75 -154
105 -59 24 -52 23 -186 4z m166 -111 c14 -14 -23 -125 -75 -225 -73 -142 -170
-223 -282 -234 -52 -5 -55 -5 -55 17 0 12 21 50 46 84 77 100 98 156 102 264
4 100 -1 93 72 106 41 7 181 -1 192 -12z m-385 -83 c25 -38 26 -43 14 -87 -21
-82 -81 -189 -142 -256 -82 -89 -112 -106 -187 -106 -56 0 -62 2 -67 23 -3 12
-18 78 -35 147 l-29 125 20 17 c20 17 58 30 127 42 l32 6 1 -58 c0 -31 6 -95
12 -142 l12 -85 33 -3 32 -3 0 162 c0 160 0 163 26 197 26 34 73 61 106 62 10
0 30 -18 45 -41z"/>
</g>
</svg>
