<?xml version="1.0" standalone="no"?>
<!DOCTYPE svg PUBLIC "-//W3C//DTD SVG 20010904//EN"
 "http://www.w3.org/TR/2001/REC-SVG-20010904/DTD/svg10.dtd">
<svg version="1.0" xmlns="http://www.w3.org/2000/svg"
 width="360.000000pt" height="360.000000pt" viewBox="0 0 360.000000 360.000000"
 preserveAspectRatio="xMidYMid meet">
<metadata>
Created by potrace 1.15, written by Peter Selinger 2001-2017
</metadata>
<g transform="translate(0.000000,360.000000) scale(0.100000,-0.100000)"
fill="#000000" stroke="none">
<path d="M1622 2890 c-19 -31 -15 -38 38 -65 70 -35 115 -78 144 -137 22 -44
36 -128 21 -128 -7 0 -389 -122 -397 -127 -4 -2 -1 -15 8 -28 17 -26 80 -55
119 -55 l25 0 0 -133 c0 -87 4 -137 12 -145 8 -8 8 -15 -2 -27 -16 -19 -4 -35
56 -70 25 -15 43 -32 41 -38 -7 -22 -270 -184 -289 -179 -10 2 -43 31 -72 64
-51 55 -55 58 -65 40 -12 -22 -62 -268 -81 -396 -12 -79 -12 -79 14 -105 20
-19 29 -23 35 -13 4 7 31 83 61 170 29 86 56 161 60 165 4 4 19 3 35 -3 25 -9
46 -4 167 45 76 30 148 55 160 55 35 0 105 -39 131 -73 22 -30 57 -90 57 -100
0 -2 -51 -26 -112 -52 -136 -58 -277 -127 -330 -162 l-39 -26 22 -24 c13 -12
32 -23 43 -23 12 0 97 25 189 56 93 31 171 54 173 51 3 -3 -92 -151 -210 -329
-213 -318 -216 -323 -191 -331 21 -7 35 -2 80 32 30 23 60 41 68 41 7 0 29
-32 48 -72 75 -159 199 -318 245 -318 32 0 100 55 162 130 64 79 186 321 238
475 l37 110 -29 88 -29 89 -89 39 c-137 60 -156 74 -156 114 0 45 29 66 145
105 77 26 98 29 116 20 44 -24 129 12 129 54 0 60 -76 71 -266 36 -60 -11
-112 -20 -115 -20 -3 0 -13 17 -22 38 -19 44 -55 68 -126 83 -68 14 -64 30 18
80 73 44 181 82 301 104 100 19 330 31 384 21 38 -7 86 -47 86 -71 0 -7 -33
-23 -72 -35 -96 -29 -168 -68 -179 -99 -5 -13 -8 -26 -5 -28 2 -3 55 3 118 12
225 32 318 69 318 126 0 17 -81 97 -129 128 -56 37 -115 58 -190 70 -46 8
-100 3 -298 -27 -134 -20 -245 -33 -249 -30 -3 4 12 33 34 65 76 112 122 224
122 299 0 38 -16 54 -53 54 -41 0 -67 17 -67 44 0 21 5 24 70 30 38 3 94 14
122 24 51 16 53 19 56 56 3 29 -2 44 -19 62 -28 29 -59 30 -159 4 -111 -29
-111 -29 -158 45 -45 71 -105 120 -180 147 -65 24 -114 23 -130 -2z m377 -441
c11 -29 21 -64 21 -78 0 -41 -61 -160 -120 -231 -97 -119 -152 -170 -182 -170
-15 0 -28 2 -28 4 0 2 23 54 50 115 28 61 50 113 50 116 0 4 -10 21 -23 39
l-22 34 -35 -29 c-19 -16 -37 -26 -41 -21 -4 4 -11 34 -14 68 l-7 61 43 37
c75 65 165 103 250 105 35 1 37 -2 58 -50z m76 -1120 c29 -11 65 -29 79 -40
24 -19 26 -27 26 -97 0 -151 -71 -322 -208 -505 -58 -77 -79 -97 -95 -95 -21
3 -50 41 -199 253 l-56 80 175 218 c195 244 169 227 278 186z"/>
<path d="M951 2572 c-24 -7 -24 -9 25 -50 40 -33 54 -54 67 -96 10 -30 26 -65
37 -78 18 -22 20 -22 47 -6 27 16 28 19 28 104 l0 88 -33 19 c-35 20 -131 31
-171 19z"/>
<path d="M792 2037 c-12 -13 -22 -30 -22 -38 0 -9 21 -71 46 -140 l45 -124
-20 -110 c-35 -186 -50 -312 -62 -528 l-12 -208 44 -45 c32 -33 51 -44 68 -42
24 3 29 20 153 513 70 281 128 525 128 543 0 27 -4 32 -23 32 -22 0 -30 -21
-128 -330 -96 -305 -105 -330 -126 -330 -13 0 -23 3 -23 8 0 4 20 111 45 237
25 127 45 240 45 251 0 16 -121 315 -135 331 -1 2 -11 -7 -23 -20z"/>
</g>
</svg>
