<?xml version="1.0" standalone="no"?>
<!DOCTYPE svg PUBLIC "-//W3C//DTD SVG 20010904//EN"
 "http://www.w3.org/TR/2001/REC-SVG-20010904/DTD/svg10.dtd">
<svg version="1.0" xmlns="http://www.w3.org/2000/svg"
 width="360.000000pt" height="360.000000pt" viewBox="0 0 360.000000 360.000000"
 preserveAspectRatio="xMidYMid meet">
<metadata>
Created by potrace 1.15, written by Peter Selinger 2001-2017
</metadata>
<g transform="translate(0.000000,360.000000) scale(0.100000,-0.100000)"
fill="#000000" stroke="none">
<path d="M2150 3123 c-59 -49 -119 -173 -170 -350 -13 -46 -29 -83 -35 -83 -7
0 -17 31 -24 72 -16 99 -43 155 -76 164 -51 13 -56 -8 -33 -125 17 -81 19
-107 10 -122 -7 -10 -12 -27 -12 -38 0 -31 -50 -82 -104 -107 -28 -13 -54 -20
-57 -16 -4 4 -21 56 -38 115 -43 147 -74 207 -106 207 -14 0 -28 -7 -32 -16
-3 -9 9 -85 27 -168 18 -83 34 -159 34 -169 1 -14 -24 -29 -101 -62 -88 -38
-107 -43 -135 -34 -18 5 -33 9 -34 9 -1 0 -7 -14 -14 -30 -12 -29 -10 -34 19
-75 l32 -44 -30 -88 c-41 -124 -76 -199 -104 -225 -13 -13 -34 -54 -47 -93
-53 -164 -124 -324 -137 -312 -2 3 5 71 17 152 16 109 18 150 10 160 -8 9 -8
15 0 20 13 8 13 165 0 200 -14 36 -93 119 -149 155 -26 16 -51 30 -54 30 -24
0 21 -93 88 -181 l44 -58 -49 -372 c-41 -308 -48 -379 -39 -412 8 -29 7 -42
-1 -47 -8 -5 -8 -20 1 -56 19 -78 32 -94 83 -94 l43 0 61 248 c158 632 298
978 425 1047 29 15 43 17 74 9 34 -8 39 -13 47 -49 19 -93 41 -112 83 -74 24
23 25 27 18 94 -15 134 -17 126 48 147 l57 20 42 -31 c23 -17 50 -31 59 -31
11 0 30 21 48 53 40 70 67 97 96 97 14 0 25 -3 25 -7 0 -3 -29 -50 -64 -103
-180 -270 -364 -440 -495 -457 -40 -6 -41 -5 -41 26 0 26 -4 31 -25 31 -31 0
-65 -49 -105 -151 -36 -93 -100 -345 -100 -394 0 -43 36 -85 74 -85 21 0 28
11 64 103 22 57 48 128 57 158 40 127 82 177 219 264 57 36 293 155 309 155 4
0 7 -61 7 -135 0 -132 -1 -137 -25 -159 -38 -35 -114 -62 -136 -47 -10 6 -34
11 -53 11 -63 0 -92 -61 -163 -340 -45 -181 -48 -220 -17 -268 16 -24 53 -29
72 -10 7 7 12 38 12 70 0 134 52 286 125 367 40 44 134 97 157 89 20 -8 26
-52 39 -328 6 -129 15 -240 20 -247 7 -7 6 -14 -1 -18 -11 -7 -8 -85 5 -104 3
-6 -4 -81 -16 -167 -17 -116 -20 -163 -12 -183 6 -17 6 -36 1 -52 -7 -16 -5
-47 3 -91 10 -54 10 -70 0 -82 -10 -12 -9 -28 9 -81 22 -67 30 -75 48 -52 10
12 62 805 62 942 0 35 5 57 16 65 13 11 25 4 82 -53 l67 -65 54 20 c74 28 141
97 171 174 20 51 24 82 28 222 5 203 -2 225 -93 310 l-64 60 142 57 c185 75
294 130 307 155 31 59 -62 118 -301 191 l-105 32 -193 -57 c-106 -32 -195 -55
-198 -53 -10 10 151 249 191 283 48 41 140 86 210 103 42 10 61 9 142 -10 l93
-21 29 20 c16 12 34 28 41 36 31 37 -41 86 -154 105 -57 9 -63 8 -132 -24 -85
-40 -81 -46 -62 93 15 116 -2 171 -75 240 -63 60 -89 65 -136 25z m80 -175 c0
-51 -5 -110 -11 -131 -13 -49 -63 -105 -114 -128 -43 -20 -85 -25 -85 -10 0
23 61 216 84 268 35 76 52 93 93 93 l33 0 0 -92z m250 -718 c63 -11 116 -20
118 -20 1 0 2 -6 2 -14 0 -38 -251 -175 -437 -240 l-103 -35 0 114 c0 78 -4
116 -12 121 -17 11 227 92 277 93 22 1 92 -8 155 -19z m-172 -437 c49 -36 62
-76 62 -199 0 -168 -20 -245 -71 -277 -31 -19 -88 2 -138 51 -69 67 -93 136
-95 269 -1 116 13 148 75 170 48 18 134 11 167 -14z"/>
<path d="M1110 2855 c0 -4 19 -33 41 -66 40 -56 41 -61 35 -111 -3 -29 -9 -62
-11 -73 -5 -15 1 -23 23 -33 16 -7 36 -10 45 -6 19 7 47 85 47 131 0 45 -32
106 -70 133 -30 21 -110 40 -110 25z"/>
</g>
</svg>
