<?xml version="1.0" standalone="no"?>
<!DOCTYPE svg PUBLIC "-//W3C//DTD SVG 20010904//EN"
 "http://www.w3.org/TR/2001/REC-SVG-20010904/DTD/svg10.dtd">
<svg version="1.0" xmlns="http://www.w3.org/2000/svg"
 width="360.000000pt" height="360.000000pt" viewBox="0 0 360.000000 360.000000"
 preserveAspectRatio="xMidYMid meet">
<metadata>
Created by potrace 1.15, written by Peter Selinger 2001-2017
</metadata>
<g transform="translate(0.000000,360.000000) scale(0.100000,-0.100000)"
fill="#000000" stroke="none">
<path d="M2006 2568 c-11 -80 -49 -150 -117 -212 -57 -53 -63 -56 -113 -56
-63 0 -88 19 -68 51 19 30 14 59 -19 110 l-30 48 -62 -23 c-34 -13 -122 -45
-194 -71 -128 -46 -158 -66 -118 -82 9 -3 79 4 156 17 78 12 143 19 146 16 3
-3 -21 -77 -53 -165 -50 -137 -62 -161 -80 -161 -27 0 -58 34 -84 93 -22 50
-30 56 -50 32 -23 -28 10 -142 64 -221 l25 -37 -130 -193 c-116 -173 -132
-194 -152 -189 -20 5 -30 -5 -75 -74 -29 -45 -66 -91 -82 -103 -22 -16 -27
-25 -19 -34 12 -14 -44 -166 -91 -248 -29 -52 -85 -116 -101 -116 -15 0 -11
32 40 280 49 235 50 241 35 296 -17 65 -25 83 -71 148 l-34 48 2 121 c2 81 -1
122 -9 125 -19 6 -44 -46 -52 -110 -6 -54 -2 -81 27 -193 l33 -130 -45 -404
-45 -405 27 -28 c41 -43 75 -38 112 16 47 68 132 248 207 436 l67 172 141 141
c117 118 218 241 271 331 9 16 14 16 68 -5 l57 -22 84 23 c46 12 88 21 94 19
5 -2 -73 -91 -174 -198 l-184 -194 0 -48 c0 -27 21 -146 46 -266 52 -250 52
-287 0 -356 -38 -50 -119 -101 -200 -126 -52 -16 -65 -16 -114 -5 -31 7 -58
11 -60 9 -10 -9 9 -53 25 -60 64 -26 86 -24 238 21 197 59 474 128 604 149 77
13 135 16 220 12 148 -7 245 -29 350 -79 70 -34 88 -38 107 -29 39 17 31 57
-19 105 -77 74 -106 80 -404 84 -145 2 -263 7 -263 12 0 5 25 42 55 82 59 80
109 174 119 226 5 29 0 39 -40 82 -44 47 -46 52 -40 91 10 60 41 116 102 179
97 102 70 148 -105 185 l-64 14 -161 -70 c-88 -38 -167 -68 -174 -67 -8 2 72
84 177 182 105 99 191 182 191 186 0 16 -39 40 -66 40 -16 0 -99 -27 -184 -59
l-155 -60 -29 29 -30 29 72 161 c40 88 72 168 72 176 0 9 6 14 13 12 6 -3 74
-20 151 -39 126 -31 140 -36 148 -59 5 -15 25 -34 47 -45 22 -11 88 -60 148
-108 264 -216 504 -341 678 -354 57 -5 73 -2 84 11 7 8 11 23 7 31 -6 17 -14
21 -151 71 -189 68 -373 169 -542 298 -66 49 -93 76 -93 91 0 30 45 96 133
197 43 48 77 93 77 100 0 19 -75 78 -98 78 -15 0 -21 -9 -25 -37 -4 -21 -18
-60 -31 -88 -33 -64 -141 -185 -167 -185 -20 0 -114 44 -122 57 -3 5 30 52 74
107 66 83 79 104 79 135 0 29 -7 44 -33 69 -18 18 -36 32 -39 32 -3 0 -9 -23
-12 -52z m21 -984 c3 -8 0 -26 -7 -39 -23 -44 -163 -177 -232 -222 -60 -39
-181 -93 -208 -93 -6 0 -10 39 -10 94 l0 93 203 91 c111 51 212 92 225 92 12
0 25 -7 29 -16z m-31 -375 c19 -11 34 -23 34 -26 0 -3 -17 -42 -39 -88 -51
-108 -108 -191 -170 -248 -73 -65 -173 -96 -201 -62 -16 19 8 98 50 166 l28
46 -20 21 c-41 41 -7 84 133 171 76 47 132 53 185 20z"/>
<path d="M964 2489 c47 -147 62 -190 78 -221 17 -35 22 -38 62 -38 56 0 70 17
63 76 -6 59 -49 120 -107 156 -55 33 -102 46 -96 27z"/>
</g>
</svg>
