<?xml version="1.0" standalone="no"?>
<!DOCTYPE svg PUBLIC "-//W3C//DTD SVG 20010904//EN"
 "http://www.w3.org/TR/2001/REC-SVG-20010904/DTD/svg10.dtd">
<svg version="1.0" xmlns="http://www.w3.org/2000/svg"
 width="360.000000pt" height="360.000000pt" viewBox="0 0 360.000000 360.000000"
 preserveAspectRatio="xMidYMid meet">
<metadata>
Created by potrace 1.15, written by Peter Selinger 2001-2017
</metadata>
<g transform="translate(0.000000,360.000000) scale(0.100000,-0.100000)"
fill="#000000" stroke="none">
<path d="M1806 2669 l-39 -21 88 -88 88 -89 -12 -73 c-23 -128 -107 -453 -167
-638 -56 -175 -57 -180 -39 -200 23 -25 45 -25 95 0 22 11 44 20 50 20 13 0
13 -58 -1 -155 -29 -208 -125 -396 -288 -564 -42 -43 -71 -80 -69 -90 5 -26
45 -25 104 4 97 48 205 202 301 432 43 102 50 113 73 113 75 0 189 96 285 240
53 80 155 282 206 407 28 70 31 86 21 108 -10 21 -18 25 -55 25 -95 0 -257
-64 -424 -168 -46 -28 -83 -50 -83 -49 0 1 25 139 55 307 30 168 55 317 55
331 0 44 -40 90 -115 131 -38 21 -74 38 -80 37 -5 0 -27 -9 -49 -20z m554
-709 c0 -17 -7 -45 -16 -63 -54 -105 -298 -467 -315 -467 -4 0 -16 15 -28 33
-18 30 -19 38 -9 98 11 62 10 68 -11 98 -20 28 -22 35 -11 62 19 46 117 128
241 202 128 76 149 82 149 37z"/>
<path d="M1087 2452 c-30 -33 -21 -66 27 -100 l44 -32 -4 -138 c-19 -587 -33
-800 -56 -855 -8 -21 -8 -31 1 -40 6 -6 11 -31 11 -57 -1 -156 -97 -365 -246
-532 l-55 -62 25 -25 26 -25 36 34 c140 136 248 318 290 491 17 70 18 71 46
65 36 -7 98 -49 185 -126 51 -45 76 -60 99 -60 49 0 54 13 31 91 -17 58 -18
73 -8 93 12 21 10 28 -11 60 l-25 36 -32 -34 -33 -34 -106 35 c-59 20 -109 37
-110 39 -2 1 6 251 18 554 17 435 20 557 10 575 -16 29 -80 65 -117 65 -17 0
-37 -8 -46 -18z"/>
<path d="M1438 1838 c-55 -19 -58 -21 -58 -54 0 -31 3 -34 30 -34 41 0 40 -33
-1 -76 l-31 -32 30 -21 c19 -13 45 -21 71 -21 35 0 43 4 55 29 9 16 20 49 26
74 9 43 8 50 -23 101 -17 31 -34 55 -37 55 -3 0 -31 -10 -62 -21z"/>
<path d="M803 1628 c-41 -30 -42 -31 -37 -82 25 -260 58 -356 126 -356 24 0
48 15 104 66 41 36 74 72 74 79 0 8 -10 26 -22 40 l-23 26 -42 -31 c-24 -17
-50 -30 -60 -28 -9 2 -28 26 -42 53 -26 51 -28 66 -18 224 1 19 -2 35 -8 37
-5 2 -29 -11 -52 -28z"/>
<path d="M2120 1151 c0 -25 5 -31 38 -42 98 -32 261 -128 382 -226 53 -42 60
-52 60 -84 0 -55 20 -150 40 -189 32 -62 61 -82 116 -78 l49 3 3 50 c7 104
-35 234 -106 328 -96 126 -304 228 -534 261 l-48 7 0 -30z"/>
</g>
</svg>
