<?xml version="1.0" standalone="no"?>
<!DOCTYPE svg PUBLIC "-//W3C//DTD SVG 20010904//EN"
 "http://www.w3.org/TR/2001/REC-SVG-20010904/DTD/svg10.dtd">
<svg version="1.0" xmlns="http://www.w3.org/2000/svg"
 width="360.000000pt" height="360.000000pt" viewBox="0 0 360.000000 360.000000"
 preserveAspectRatio="xMidYMid meet">
<metadata>
Created by potrace 1.15, written by Peter Selinger 2001-2017
</metadata>
<g transform="translate(0.000000,360.000000) scale(0.100000,-0.100000)"
fill="#000000" stroke="none">
<path d="M1800 2553 c0 -38 10 -46 89 -73 101 -34 183 -74 223 -109 l37 -33
31 18 c35 21 38 48 14 100 -34 71 -135 113 -291 121 l-103 6 0 -30z"/>
<path d="M1056 2425 c-20 -31 -20 -36 4 -83 45 -87 54 -167 55 -487 0 -241 -4
-322 -18 -413 -46 -293 -139 -530 -274 -699 -29 -36 -50 -69 -48 -74 6 -9 49
2 92 24 83 43 216 257 289 465 27 78 30 83 54 77 48 -12 118 -66 214 -165 53
-55 101 -100 105 -100 15 0 51 47 51 66 0 28 -49 101 -101 151 -64 61 -139 95
-221 101 l-68 5 0 36 c0 20 9 133 20 251 22 242 25 361 9 377 -8 8 -8 13 0 17
14 9 14 113 0 122 -8 5 -8 8 0 14 23 14 -19 263 -53 316 -23 34 -87 34 -110
-1z"/>
<path d="M2385 2036 c-247 -87 -408 -153 -624 -257 -196 -95 -260 -112 -247
-66 21 75 19 101 -16 152 -18 27 -45 56 -59 64 -25 14 -30 12 -93 -24 -36 -22
-66 -44 -66 -50 0 -15 43 -35 74 -35 29 0 56 -29 56 -61 0 -21 -7 -27 -47 -38
-54 -14 -83 -36 -83 -62 0 -26 64 -42 233 -58 l89 -9 199 95 c110 52 204 93
209 91 5 -2 -69 -142 -165 -313 -96 -170 -175 -317 -175 -325 0 -9 7 -26 16
-38 33 -47 131 -19 308 88 86 52 96 56 96 42 0 -5 -70 -98 -155 -208 -170
-218 -176 -232 -134 -300 11 -19 22 -34 25 -34 2 0 34 12 71 26 237 91 465
154 558 154 38 0 45 -3 49 -22 3 -13 12 -61 21 -108 18 -96 52 -173 77 -178 9
-2 29 5 44 14 l27 18 -6 96 c-8 117 -28 193 -74 288 -37 75 -123 173 -177 201
-24 13 -29 13 -47 -6 l-21 -20 32 -57 c18 -31 30 -59 27 -62 -8 -8 -419 -115
-424 -110 -3 2 48 64 112 138 289 331 382 492 317 551 -37 33 -68 22 -111 -40
-46 -68 -120 -141 -176 -175 -86 -52 -215 -93 -215 -69 0 6 34 56 75 111 88
119 161 261 177 346 l12 61 207 81 207 81 108 -33 109 -33 33 21 c17 12 32 26
32 33 0 6 -28 32 -62 57 l-62 46 -90 -1 c-85 0 -102 -4 -271 -63z"/>
<path d="M730 1523 c0 -92 17 -237 35 -300 15 -51 52 -93 82 -93 35 0 93 85
163 242 43 94 49 137 24 162 -26 26 -41 19 -81 -41 -36 -55 -40 -58 -78 -58
-39 0 -40 1 -46 40 -6 49 -22 79 -51 99 -41 29 -48 21 -48 -51z"/>
</g>
</svg>
