<?xml version="1.0" standalone="no"?>
<!DOCTYPE svg PUBLIC "-//W3C//DTD SVG 20010904//EN"
 "http://www.w3.org/TR/2001/REC-SVG-20010904/DTD/svg10.dtd">
<svg version="1.0" xmlns="http://www.w3.org/2000/svg"
 width="360.000000pt" height="360.000000pt" viewBox="0 0 360.000000 360.000000"
 preserveAspectRatio="xMidYMid meet">
<metadata>
Created by potrace 1.15, written by Peter Selinger 2001-2017
</metadata>
<g transform="translate(0.000000,360.000000) scale(0.100000,-0.100000)"
fill="#000000" stroke="none">
<path d="M1673 2609 c-10 -10 -5 -23 24 -61 35 -48 36 -51 30 -116 -4 -36 -16
-95 -28 -131 -26 -76 -122 -268 -201 -398 l-56 -92 22 -20 c13 -12 36 -21 53
-21 28 0 35 7 73 76 44 81 104 154 126 154 7 0 18 -9 24 -20 20 -38 86 -27
267 45 90 36 166 65 169 65 2 0 4 -63 4 -140 0 -143 -19 -360 -46 -529 -10
-64 -11 -97 -4 -106 7 -8 4 -17 -10 -30 -11 -10 -20 -24 -20 -32 0 -10 -6 -12
-22 -7 -13 5 -36 8 -53 9 -26 0 -30 -4 -33 -29 -8 -69 68 -176 125 -176 61 0
130 257 203 761 16 112 30 218 30 234 0 25 -14 45 -74 104 l-74 73 -235 -78
c-130 -43 -239 -75 -243 -71 -4 4 16 55 44 114 59 126 82 207 82 293 0 71 -10
94 -48 114 -41 21 -115 30 -129 15z"/>
<path d="M850 2518 c0 -19 18 -61 44 -108 l45 -77 -9 -254 c-5 -140 -9 -301
-10 -359 l0 -105 -131 -98 c-150 -113 -165 -116 -155 -32 3 30 9 80 12 110 6
50 5 55 -13 55 -24 0 -58 -35 -73 -75 -32 -84 -23 -302 14 -357 20 -30 27 -33
71 -33 44 0 51 3 63 27 7 14 16 47 21 72 6 34 23 62 71 118 35 40 69 74 76 76
11 3 14 -12 14 -63 0 -192 -104 -466 -275 -727 -86 -131 -92 -160 -28 -133 21
9 48 26 61 38 69 64 171 245 247 440 50 127 51 127 205 2 111 -90 120 -95 164
-95 l48 0 -7 32 c-18 84 -91 154 -230 223 -52 26 -95 52 -95 57 0 5 14 93 31
195 25 147 29 193 21 220 -7 23 -7 66 1 139 8 79 8 110 -1 124 -8 13 -8 35 -2
77 6 32 10 146 10 253 l0 196 -37 36 c-42 41 -79 58 -124 58 -26 0 -29 -3 -29
-32z"/>
<path d="M1175 1855 c-88 -32 -84 -105 6 -105 21 0 39 -3 39 -6 0 -4 -22 -32
-50 -64 -27 -32 -50 -62 -50 -67 0 -15 54 -63 71 -63 25 0 130 112 155 165 31
66 30 95 -4 128 -23 22 -37 27 -78 27 -27 -1 -67 -7 -89 -15z"/>
<path d="M1740 1686 c-101 -22 -158 -69 -181 -146 -9 -31 -17 -40 -34 -40 -11
0 -26 5 -31 10 -7 7 -18 2 -34 -15 l-23 -25 21 -23 c27 -29 27 -36 1 -348 -15
-192 -17 -253 -8 -270 8 -16 8 -23 -1 -29 -23 -14 7 -84 53 -127 78 -72 202
-106 451 -124 126 -10 175 -10 237 1 63 10 82 10 94 0 10 -9 38 -10 97 -5 197
15 357 53 547 127 l103 40 -8 87 c-10 97 -10 74 1 434 8 261 8 267 -11 267
-18 0 -24 -25 -67 -301 -52 -335 -60 -360 -139 -418 -98 -72 -226 -100 -496
-108 -111 -3 -205 -10 -208 -15 -3 -5 -12 -4 -20 3 -11 9 -27 9 -72 0 -47 -10
-79 -9 -175 3 -155 21 -199 43 -240 121 -18 33 -21 58 -22 140 0 120 13 235
27 235 22 0 162 62 216 96 59 37 122 92 122 106 0 21 -42 48 -75 48 -23 0 -35
5 -35 14 0 30 32 102 70 157 22 32 40 68 40 78 0 21 -28 35 -53 26 -8 -4 -18
-2 -22 4 -8 14 -55 13 -125 -3z m0 -153 c0 -26 -53 -115 -90 -152 -53 -52 -58
-47 -76 82 l-6 47 43 0 c24 0 60 8 79 19 45 24 50 24 50 4z"/>
</g>
</svg>
