<?xml version="1.0" standalone="no"?>
<!DOCTYPE svg PUBLIC "-//W3C//DTD SVG 20010904//EN"
 "http://www.w3.org/TR/2001/REC-SVG-20010904/DTD/svg10.dtd">
<svg version="1.0" xmlns="http://www.w3.org/2000/svg"
 width="360.000000pt" height="360.000000pt" viewBox="0 0 360.000000 360.000000"
 preserveAspectRatio="xMidYMid meet">
<metadata>
Created by potrace 1.15, written by Peter Selinger 2001-2017
</metadata>
<g transform="translate(0.000000,360.000000) scale(0.100000,-0.100000)"
fill="#000000" stroke="none">
<path d="M2213 2625 c-75 -50 -106 -121 -66 -150 15 -11 11 -29 -42 -201 -31
-104 -61 -193 -66 -199 -15 -15 -43 9 -49 41 -6 36 -36 42 -69 13 l-25 -20 13
-150 c11 -117 11 -152 1 -164 -9 -11 -9 -34 -1 -99 21 -157 49 -216 102 -216
25 0 28 3 34 53 66 528 144 901 206 988 23 33 68 40 89 14 24 -29 -1 -488 -40
-747 -45 -293 -132 -541 -241 -678 -36 -45 -37 -49 -20 -64 10 -9 23 -16 29
-16 19 0 112 123 124 165 7 22 25 56 42 75 100 117 175 454 221 1000 8 102 17
202 19 222 4 35 1 39 -79 102 -49 39 -93 66 -107 66 -13 0 -47 -16 -75 -35z"/>
<path d="M1592 2510 c-138 -108 -303 -180 -414 -180 -46 0 -48 -1 -48 -28 0
-36 15 -55 64 -79 38 -20 38 -20 138 4 56 13 102 22 104 20 2 -2 -84 -145
-191 -318 -107 -173 -195 -322 -195 -332 0 -32 28 -85 49 -92 24 -7 47 4 80
39 14 14 31 26 38 26 25 0 81 -50 116 -103 55 -84 55 -86 -13 -136 -33 -24
-71 -59 -85 -77 -39 -51 -75 -135 -75 -176 0 -31 5 -39 35 -57 l36 -21 49 78
c27 42 74 116 104 164 l55 87 73 -34 c126 -60 161 -44 189 84 10 46 8 55 -11
86 -12 19 -25 35 -29 35 -17 0 -42 -27 -49 -55 -7 -26 -14 -30 -45 -33 -34 -3
-37 -1 -37 22 0 35 87 200 193 369 97 154 106 186 62 227 -47 44 -132 14 -340
-119 -69 -44 -125 -74 -125 -67 0 7 92 148 205 314 120 177 205 312 205 325 0
13 -14 37 -32 54 l-33 31 -73 -58z m-51 -809 c-45 -89 -85 -161 -91 -161 -5 0
-38 27 -72 59 l-63 59 25 27 c47 50 266 193 277 181 3 -2 -32 -76 -76 -165z"/>
<path d="M2105 955 c-166 -44 -195 -47 -270 -29 -29 7 -48 -37 -28 -66 44 -63
137 -69 278 -18 110 40 277 76 396 85 l76 6 134 -108 c74 -59 134 -115 134
-123 0 -21 -41 -42 -83 -42 -45 0 -170 -29 -178 -42 -3 -5 4 -20 15 -32 20
-21 33 -23 168 -30 80 -3 162 -9 182 -12 33 -5 37 -3 50 26 28 66 -15 193 -96
280 -98 106 -197 139 -443 145 l-165 5 -170 -45z"/>
<path d="M1492 876 l-52 -33 -70 21 -70 20 -22 -21 -21 -22 26 -40 c28 -43 77
-84 118 -99 48 -19 122 31 197 132 12 16 22 39 22 52 0 21 -5 24 -37 23 -24 0
-57 -12 -91 -33z"/>
<path d="M900 765 c-85 -52 -160 -94 -167 -95 -13 0 -53 77 -53 103 0 27 -13
20 -42 -22 -22 -31 -28 -50 -28 -93 0 -48 4 -58 33 -86 42 -41 81 -42 162 -4
62 30 182 120 273 206 49 47 51 50 36 68 -10 10 -27 18 -38 18 -12 -1 -91 -43
-176 -95z"/>
</g>
</svg>
