<?xml version="1.0" standalone="no"?>
<!DOCTYPE svg PUBLIC "-//W3C//DTD SVG 20010904//EN"
 "http://www.w3.org/TR/2001/REC-SVG-20010904/DTD/svg10.dtd">
<svg version="1.0" xmlns="http://www.w3.org/2000/svg"
 width="360.000000pt" height="360.000000pt" viewBox="0 0 360.000000 360.000000"
 preserveAspectRatio="xMidYMid meet">
<metadata>
Created by potrace 1.15, written by Peter Selinger 2001-2017
</metadata>
<g transform="translate(0.000000,360.000000) scale(0.100000,-0.100000)"
fill="#000000" stroke="none">
<path d="M1903 2940 c-30 -27 -33 -35 -33 -90 0 -47 4 -62 17 -67 21 -8 53 30
53 63 0 19 5 24 24 24 19 0 27 -8 36 -36 9 -26 9 -39 1 -47 -7 -7 -11 -78 -11
-213 0 -189 -1 -203 -21 -228 -27 -34 -98 -70 -190 -95 -39 -11 -75 -23 -78
-27 -3 -3 8 -17 24 -30 25 -20 41 -24 100 -24 39 0 76 5 82 11 24 24 36 -2 31
-70 -13 -175 -162 -344 -417 -471 -64 -32 -91 -41 -114 -36 -60 12 -89 -50
-44 -92 36 -34 81 -28 183 22 74 36 242 137 367 220 l27 18 0 -46 c0 -38 -5
-52 -31 -79 -17 -18 -61 -83 -97 -145 -142 -240 -316 -455 -578 -719 l-171
-172 22 -21 c42 -39 66 -28 181 83 124 119 337 352 532 583 77 91 145 163 155
163 9 1 17 -1 17 -4 0 -2 -22 -70 -50 -151 -57 -166 -61 -201 -27 -232 39 -37
81 -29 140 24 119 107 200 145 317 147 l75 2 3 -72 c4 -93 -34 -282 -78 -386
-38 -91 -88 -162 -150 -212 -46 -36 -150 -75 -201 -75 -26 0 -29 -4 -29 -30 0
-36 -3 -35 146 -15 134 19 196 47 260 118 86 96 184 337 184 453 0 122 -33
259 -72 301 -19 21 -31 23 -111 23 -98 0 -180 -18 -263 -57 -61 -29 -89 -26
-78 9 3 13 25 70 48 128 38 97 44 107 89 137 26 18 97 51 158 75 l109 42 -30
30 -30 31 -160 -53 c-88 -30 -167 -52 -176 -50 -13 2 -4 27 45 123 68 135 117
205 178 251 35 27 57 34 155 48 299 46 508 95 508 121 0 31 -42 45 -135 45
l-90 0 -75 131 c-41 72 -78 135 -81 140 -3 6 -24 5 -55 -2 -48 -12 -51 -15
-177 -184 -164 -220 -240 -305 -273 -305 -35 0 -38 19 -16 102 11 40 25 98 31
129 18 87 72 141 174 173 26 8 32 34 12 56 -10 11 -44 30 -77 41 l-58 22 1 66
c0 36 4 120 9 186 8 119 8 120 -17 154 -29 38 -93 71 -138 70 -19 0 -42 -10
-62 -29z m638 -649 c24 -15 55 -40 69 -55 l25 -28 -30 -24 c-78 -65 -226 -109
-240 -72 -8 21 96 208 116 208 8 0 35 -13 60 -29z"/>
<path d="M981 2546 c-21 -26 27 -176 57 -176 31 0 7 -417 -40 -705 -22 -134
-23 -150 -12 -249 15 -144 -73 -340 -215 -481 -34 -33 -61 -64 -61 -70 0 -25
21 -33 62 -22 93 23 205 190 292 435 18 51 34 94 37 95 2 1 57 -56 122 -126
l119 -127 29 17 c76 45 0 180 -159 284 -40 26 -82 51 -94 54 -18 6 -19 12 -14
58 4 29 10 96 15 149 15 154 56 207 174 223 51 8 60 -4 35 -45 -10 -15 -9 -23
6 -39 15 -16 31 -21 71 -21 65 0 85 19 85 81 0 38 -5 50 -35 79 -30 29 -38 33
-54 23 -11 -7 -22 -8 -28 -2 -5 5 -43 0 -93 -12 -63 -15 -90 -17 -102 -10 -10
6 -27 11 -38 11 -23 0 -25 7 -7 29 13 15 37 260 37 371 0 46 -36 138 -67 172
-20 22 -105 25 -122 4z"/>
<path d="M662 1657 c-36 -38 -29 -86 24 -177 l46 -80 64 0 c50 0 68 4 83 19
37 37 79 221 51 221 -8 0 -40 -20 -71 -45 -63 -50 -75 -54 -83 -27 -11 35 -66
112 -79 112 -7 0 -23 -10 -35 -23z"/>
</g>
</svg>
