<?xml version="1.0" standalone="no"?>
<!DOCTYPE svg PUBLIC "-//W3C//DTD SVG 20010904//EN"
 "http://www.w3.org/TR/2001/REC-SVG-20010904/DTD/svg10.dtd">
<svg version="1.0" xmlns="http://www.w3.org/2000/svg"
 width="360.000000pt" height="360.000000pt" viewBox="0 0 360.000000 360.000000"
 preserveAspectRatio="xMidYMid meet">
<metadata>
Created by potrace 1.15, written by Peter Selinger 2001-2017
</metadata>
<g transform="translate(0.000000,360.000000) scale(0.100000,-0.100000)"
fill="#000000" stroke="none">
<path d="M1932 2787 c-8 -9 -5 -32 9 -82 27 -99 25 -133 -16 -211 -32 -60
-108 -173 -169 -248 l-23 -30 -57 22 c-65 25 -96 28 -114 10 -30 -30 -12 -52
103 -133 l114 -80 16 -75 c25 -116 73 -294 95 -353 39 -103 28 -105 193 30
122 99 156 122 198 131 105 25 185 107 263 272 48 102 116 313 116 360 0 37
-51 81 -127 110 -100 38 -108 37 -216 -23 -128 -71 -307 -130 -307 -101 0 3
32 52 71 109 42 61 69 111 67 122 -3 19 -180 183 -197 183 -5 0 -13 -6 -19
-13z m557 -408 c21 -60 5 -149 -29 -161 -5 -1 -14 -28 -20 -58 -22 -116 -93
-214 -218 -299 -71 -48 -186 -105 -202 -99 -6 2 46 80 115 173 129 175 142
204 103 229 -21 13 -62 -5 -171 -76 l-78 -51 32 -33 32 -33 -43 -51 c-23 -28
-49 -50 -57 -48 -10 2 -34 56 -64 141 l-48 139 70 104 c38 57 74 104 79 104 5
0 48 -9 95 -20 l85 -20 128 44 c157 55 176 57 191 15z"/>
<path d="M1077 2592 c-29 -32 -20 -63 31 -117 l49 -50 -12 -323 -12 -323 -89
-90 c-49 -49 -91 -89 -95 -89 -4 0 -33 40 -65 90 -33 49 -64 90 -70 90 -30 0
-34 -27 -25 -157 12 -149 23 -209 51 -263 25 -50 55 -70 102 -70 32 0 41 5 58
32 10 17 22 60 26 95 6 59 8 63 31 63 l26 0 -8 -82 c-20 -238 -121 -462 -308
-685 -42 -50 -77 -97 -77 -103 0 -16 62 -5 110 20 45 24 116 98 170 179 50 74
155 291 196 404 16 42 34 77 40 77 25 0 133 -83 214 -164 91 -93 112 -101 149
-62 31 33 23 53 -57 138 -69 73 -144 131 -250 193 -48 28 -62 41 -57 53 19 51
39 361 51 803 7 274 7 277 -44 332 -21 22 -34 27 -72 27 -33 0 -52 -6 -63 -18z"/>
<path d="M1372 2017 c-59 -60 -47 -71 96 -83 71 -6 85 -4 102 11 27 25 25 36
-13 73 -30 29 -39 32 -93 32 -55 0 -63 -3 -92 -33z"/>
<path d="M2467 1689 c-31 -6 -82 -32 -145 -72 -244 -159 -424 -252 -521 -270
-56 -11 -61 -14 -61 -38 0 -39 29 -59 83 -59 38 0 73 13 186 69 l139 70 21
-23 c14 -15 21 -35 21 -63 0 -40 -1 -41 -195 -202 -107 -89 -195 -167 -195
-173 0 -6 32 -44 70 -84 39 -41 70 -81 70 -89 0 -35 -177 -148 -250 -159 -72
-11 -88 -38 -51 -86 l19 -24 149 47 c216 68 319 91 473 106 141 15 343 -24
478 -91 l83 -41 35 34 c45 43 46 85 4 128 -64 63 -231 99 -502 108 -98 3 -178
8 -178 11 0 2 40 46 88 97 111 116 175 199 207 267 32 69 32 108 0 138 -24 23
-26 23 -111 11 -47 -7 -89 -10 -91 -7 -6 6 -32 124 -33 147 0 10 38 41 96 78
74 47 104 61 133 61 49 0 99 18 110 39 7 12 3 27 -11 49 -22 35 -35 37 -121
21z m-111 -545 c-3 -9 -9 -27 -12 -40 -4 -17 -13 -24 -30 -24 -21 0 -24 4 -24
40 0 39 1 40 36 40 29 0 35 -3 30 -16z m-193 -121 c11 -36 -15 -93 -70 -153
-38 -43 -52 -46 -102 -29 -42 15 -41 43 5 103 36 47 131 119 149 113 5 -2 14
-17 18 -34z"/>
</g>
</svg>
