<?xml version="1.0" standalone="no"?>
<!DOCTYPE svg PUBLIC "-//W3C//DTD SVG 20010904//EN"
 "http://www.w3.org/TR/2001/REC-SVG-20010904/DTD/svg10.dtd">
<svg version="1.0" xmlns="http://www.w3.org/2000/svg"
 width="360.000000pt" height="360.000000pt" viewBox="0 0 360.000000 360.000000"
 preserveAspectRatio="xMidYMid meet">
<metadata>
Created by potrace 1.15, written by Peter Selinger 2001-2017
</metadata>
<g transform="translate(0.000000,360.000000) scale(0.100000,-0.100000)"
fill="#000000" stroke="none">
<path d="M1637 2862 c-39 -41 -35 -59 18 -82 75 -32 93 -106 66 -265 -22 -127
-29 -150 -64 -201 -45 -65 -130 -121 -243 -160 l-94 -32 35 -31 c25 -22 43
-30 58 -26 46 11 220 45 228 45 25 0 -6 -156 -38 -193 -48 -54 -256 -170 -505
-281 l-128 -57 -30 17 c-29 18 -30 18 -45 -1 -8 -11 -15 -27 -15 -36 0 -22 68
-109 85 -109 47 0 210 78 461 221 204 117 204 95 3 -146 -198 -236 -376 -438
-539 -610 l-132 -140 37 -3 c21 -2 50 -1 64 3 38 10 347 326 500 513 74 89
140 162 146 162 32 0 34 -26 15 -151 -11 -68 -20 -172 -20 -230 l0 -106 38
-27 c54 -37 100 -35 172 9 91 55 161 84 223 91 65 8 70 0 27 -41 -16 -16 -30
-37 -30 -47 0 -16 9 -18 68 -18 59 0 72 3 91 24 32 34 60 115 77 225 16 107
31 453 20 494 -8 32 -54 66 -119 88 -44 15 -55 15 -115 2 -72 -17 -175 -59
-221 -92 -61 -44 -55 -19 19 84 79 110 120 128 494 221 179 44 180 44 361 44
177 0 182 1 204 23 26 29 19 55 -18 62 -111 23 -259 184 -397 432 -16 29 -32
53 -36 53 -3 0 -48 -48 -98 -107 -235 -274 -440 -483 -474 -483 -12 0 -1 202
13 227 5 10 26 24 48 32 73 26 188 82 210 103 27 25 31 76 7 85 -8 3 -61 0
-117 -6 -128 -14 -132 -11 -118 80 6 35 11 116 11 179 0 130 -8 152 -66 176
-56 23 -106 18 -137 -14z m831 -588 c51 -75 91 -138 88 -141 -2 -3 -42 -9 -87
-14 -91 -10 -190 -31 -292 -60 -37 -11 -88 -19 -112 -17 l-45 3 92 109 c120
143 230 256 248 256 8 -1 57 -62 108 -136z m-428 -629 c23 -25 23 -25 16 -210
-4 -102 -11 -196 -15 -208 -7 -19 -46 -38 -195 -95 -187 -73 -210 -80 -204
-63 2 6 63 80 136 165 72 85 132 163 132 174 0 40 -21 41 -135 6 -60 -18 -115
-32 -121 -30 -6 3 -15 31 -18 63 -4 32 -9 65 -12 74 -4 13 5 18 40 23 43 7
171 65 231 105 45 29 115 28 145 -4z"/>
<path d="M2105 851 c-71 -36 -73 -36 -105 -11 -27 21 -110 28 -110 9 0 -6 24
-39 53 -75 58 -72 80 -78 145 -45 52 27 125 104 120 127 -5 29 -38 28 -103 -5z"/>
<path d="M2424 848 c-4 -7 2 -18 17 -27 80 -53 223 -196 313 -314 21 -27 36
-37 57 -37 15 0 30 3 32 8 3 4 0 32 -5 62 -21 110 -174 270 -291 305 -61 18
-113 19 -123 3z"/>
<path d="M1446 791 c-16 -18 -14 -22 39 -85 56 -66 56 -66 109 -66 44 0 56 4
78 28 48 51 73 122 48 137 -6 4 -35 -8 -65 -25 l-54 -31 -60 31 c-71 35 -73
36 -95 11z"/>
<path d="M1030 708 c-13 -21 -20 -51 -20 -82 0 -44 4 -53 40 -87 55 -52 82
-58 127 -26 45 32 113 114 113 137 0 9 -9 25 -20 35 -19 17 -21 17 -62 -17
-66 -53 -63 -54 -108 12 -22 33 -43 60 -46 60 -2 0 -13 -15 -24 -32z"/>
</g>
</svg>
