<?xml version="1.0" standalone="no"?>
<!DOCTYPE svg PUBLIC "-//W3C//DTD SVG 20010904//EN"
 "http://www.w3.org/TR/2001/REC-SVG-20010904/DTD/svg10.dtd">
<svg version="1.0" xmlns="http://www.w3.org/2000/svg"
 width="360.000000pt" height="360.000000pt" viewBox="0 0 360.000000 360.000000"
 preserveAspectRatio="xMidYMid meet">
<metadata>
Created by potrace 1.15, written by Peter Selinger 2001-2017
</metadata>
<g transform="translate(0.000000,360.000000) scale(0.100000,-0.100000)"
fill="#000000" stroke="none">
<path d="M1782 2679 c-29 -9 -32 -13 -25 -32 26 -72 -18 -166 -168 -367 -53
-70 -99 -132 -103 -138 -3 -6 12 -32 34 -57 77 -89 117 -200 85 -235 -14 -15
-14 -21 -3 -39 10 -16 10 -23 0 -33 -8 -8 -12 -58 -12 -168 0 -85 -4 -172 -9
-192 -5 -20 -5 -38 0 -40 4 -2 12 -31 18 -66 12 -74 16 -82 42 -82 10 0 107
44 214 97 l194 97 34 -32 c26 -26 41 -32 75 -32 23 0 42 1 43 3 0 1 16 229 34
507 32 476 33 505 17 523 -24 27 -60 44 -133 62 l-64 16 -91 -60 c-50 -34
-106 -64 -124 -67 l-33 -7 7 34 c3 19 29 71 56 116 67 110 67 168 -1 192 -37
13 -42 13 -87 0z m324 -336 c17 -23 18 -257 3 -475 -9 -118 -9 -172 0 -215 10
-53 10 -58 -11 -81 -13 -13 -91 -58 -175 -99 -196 -96 -212 -92 -111 35 84
106 155 216 163 254 6 28 3 36 -24 60 -17 15 -31 33 -31 40 0 18 37 77 67 109
l25 27 -22 51 c-13 28 -24 51 -26 51 -3 0 -54 -25 -115 -56 l-111 -55 -25 23
c-34 31 -83 131 -83 168 0 23 5 31 23 34 195 40 258 60 365 116 68 35 71 35
88 13z m-333 -404 c51 -14 51 -46 -2 -88 -58 -46 -71 -42 -71 22 0 46 12 77
30 77 3 0 22 -5 43 -11z m-7 -345 c-8 -32 -41 -64 -66 -64 -31 0 -24 20 22 67
43 44 55 43 44 -3z"/>
<path d="M937 2322 c-27 -29 -20 -70 24 -146 l41 -71 -6 -155 c-11 -301 -60
-420 -171 -420 l-42 0 -6 56 c-6 55 -27 94 -52 94 -32 0 -46 -64 -59 -265
l-13 -200 24 -23 c31 -29 44 -28 75 6 20 21 27 42 32 91 11 113 60 181 129
181 28 0 52 -24 42 -41 -4 -6 -14 -68 -21 -137 -23 -214 -84 -364 -195 -486
-32 -35 -59 -71 -59 -79 0 -24 24 -27 67 -7 76 34 157 138 248 320 26 52 49
97 51 99 16 17 142 -153 179 -243 16 -37 17 -38 53 -31 20 3 45 9 56 12 16 4
18 1 12 -28 -3 -19 -9 -67 -12 -107 l-7 -73 39 -40 c25 -26 47 -39 65 -39 47
0 51 16 38 137 -11 102 -7 291 7 341 5 18 2 22 -14 22 -22 0 -58 -41 -87 -100
-10 -19 -19 -37 -21 -39 -1 -2 -51 47 -111 107 -73 75 -123 118 -154 131 l-45
20 32 183 c18 101 33 184 34 185 0 0 25 9 56 19 31 9 82 34 114 55 53 34 150
125 150 141 0 3 -13 16 -30 28 -25 18 -35 20 -68 11 -34 -10 -102 -50 -179
-107 -60 -44 -73 26 -44 243 21 147 21 161 6 203 -25 70 -64 129 -98 151 -40
24 -59 24 -80 1z"/>
<path d="M2359 1359 c-83 -54 -166 -118 -261 -201 -95 -84 -113 -87 -179 -22
-107 106 -108 -29 -1 -148 35 -38 38 -40 82 -34 42 6 55 16 227 188 l181 181
104 -6 c57 -4 126 -13 153 -21 70 -21 139 -68 171 -115 15 -23 32 -41 39 -41
24 0 45 37 45 79 0 39 -5 48 -57 100 -61 60 -107 81 -180 81 -21 0 -44 -5 -51
-12 -9 -9 -15 -9 -24 0 -7 7 -45 12 -98 12 -85 0 -88 -1 -151 -41z"/>
<path d="M1580 1035 c-9 -11 -9 -19 -2 -28 6 -7 15 -40 21 -74 32 -199 200
-318 536 -379 182 -33 506 -18 602 28 36 17 40 44 11 75 -31 34 -174 141 -325
241 -158 106 -191 110 -110 15 50 -58 120 -122 195 -177 51 -37 52 -39 36 -57
-20 -22 -73 -38 -124 -38 -19 0 -48 0 -65 -1 -70 -3 -415 50 -459 71 -90 42
-189 153 -252 282 -29 59 -43 68 -64 42z"/>
</g>
</svg>
