<?xml version="1.0" standalone="no"?>
<!DOCTYPE svg PUBLIC "-//W3C//DTD SVG 20010904//EN"
 "http://www.w3.org/TR/2001/REC-SVG-20010904/DTD/svg10.dtd">
<svg version="1.0" xmlns="http://www.w3.org/2000/svg"
 width="360.000000pt" height="360.000000pt" viewBox="0 0 360.000000 360.000000"
 preserveAspectRatio="xMidYMid meet">
<metadata>
Created by potrace 1.15, written by Peter Selinger 2001-2017
</metadata>
<g transform="translate(0.000000,360.000000) scale(0.100000,-0.100000)"
fill="#000000" stroke="none">
<path d="M1264 2745 c-5 -13 1 -25 22 -42 49 -40 198 -123 220 -123 28 0 64
41 64 73 0 56 -75 91 -221 103 -70 6 -79 5 -85 -11z"/>
<path d="M1982 2580 c-31 -19 -112 -131 -112 -155 0 -28 -21 -32 -95 -18 l-75
14 -60 -51 c-61 -50 -112 -81 -160 -95 -14 -4 -82 -43 -152 -86 -196 -122
-284 -172 -396 -228 -136 -69 -173 -81 -243 -81 -33 0 -59 -4 -59 -8 0 -4 15
-23 34 -41 31 -30 39 -33 78 -29 65 7 212 76 428 199 169 96 220 120 220 105
0 -3 -51 -112 -114 -243 -62 -131 -130 -280 -151 -332 -41 -102 -40 -114 12
-163 l24 -22 34 34 c19 19 65 94 102 165 60 114 71 130 93 130 22 0 25 -5 28
-43 6 -80 -78 -226 -280 -484 -59 -77 -108 -147 -108 -157 0 -10 11 -28 25
-41 l25 -23 39 31 c32 25 49 32 85 32 54 0 85 -23 187 -146 45 -54 83 -89 112
-103 40 -19 47 -20 89 -7 49 14 107 52 178 115 39 34 43 42 33 58 -14 22 -8
23 -155 -38 l-121 -50 -24 23 -24 24 22 320 22 319 116 177 116 178 74 0 74 0
-7 -52 c-4 -28 -18 -75 -32 -103 -23 -49 -98 -130 -153 -166 -22 -14 -23 -16
-7 -32 10 -10 33 -17 53 -17 24 0 34 -4 30 -12 -2 -7 -24 -67 -47 -132 l-43
-119 23 -19 c13 -10 27 -15 31 -11 4 4 23 49 42 99 40 104 77 179 104 213 19
23 20 23 52 6 18 -9 57 -19 87 -22 30 -3 54 -10 54 -16 0 -6 19 -49 41 -96 55
-114 124 -183 204 -207 146 -42 452 37 579 149 l36 32 -10 63 c-6 34 -24 100
-41 146 -45 126 -216 421 -226 391 -2 -6 33 -132 76 -280 52 -174 77 -273 71
-281 -16 -18 -161 -82 -225 -99 -82 -21 -190 -19 -241 4 -54 25 -108 82 -142
150 -34 71 -35 159 -3 311 22 100 115 398 159 506 l21 51 -29 28 c-39 38 -92
31 -135 -18 -26 -30 -33 -33 -53 -24 -17 8 -22 16 -18 31 28 101 30 133 10
166 -25 43 -81 88 -119 95 -21 4 -40 -1 -63 -15z m58 -169 c0 -163 -60 -358
-126 -410 -42 -33 -59 -27 -95 35 l-31 56 17 66 c28 103 90 215 157 288 33 35
64 64 69 64 5 0 9 -44 9 -99z m-234 -106 c3 -8 -2 -38 -11 -67 -14 -42 -33
-68 -90 -123 -89 -87 -277 -235 -299 -235 -24 0 -20 13 25 86 95 156 198 270
292 324 58 33 75 37 83 15z m389 -172 c-4 -10 -29 -103 -55 -208 -26 -104 -56
-212 -67 -240 l-19 -50 -57 -3 c-44 -2 -57 0 -57 11 0 27 69 243 105 328 37
89 83 155 119 169 32 13 39 12 31 -7z m-575 -232 c0 -20 -72 -131 -84 -131
-22 0 -38 27 -31 52 10 32 35 58 70 74 36 16 45 17 45 5z m-200 -714 c0 -120
-4 -187 -11 -194 -8 -8 -34 0 -98 29 -47 21 -90 43 -94 47 -10 10 21 73 66
141 42 63 120 159 130 159 4 1 7 -81 7 -182z"/>
<path d="M1924 987 c-13 -35 44 -125 98 -153 54 -28 97 -18 186 41 82 55 94
72 68 94 -10 9 -33 3 -97 -25 -70 -30 -90 -34 -118 -27 -27 6 -37 15 -46 43
-10 31 -16 35 -48 38 -25 2 -39 -1 -43 -11z"/>
<path d="M2492 938 c-7 -7 -12 -15 -12 -19 0 -4 41 -31 90 -60 99 -58 210
-151 210 -177 0 -9 -12 -28 -26 -43 l-25 -27 32 -36 c38 -44 74 -64 134 -75
40 -8 46 -6 60 15 19 30 19 77 -1 144 -30 103 -154 198 -341 261 -98 33 -104
34 -121 17z"/>
<path d="M1110 783 c-59 -47 -137 -83 -178 -83 -19 0 -47 9 -63 21 -38 27 -79
19 -79 -14 0 -27 37 -109 53 -119 7 -4 39 -8 72 -8 94 0 180 48 258 143 l36
44 -27 26 -27 25 -45 -35z"/>
</g>
</svg>
