<?xml version="1.0" standalone="no"?>
<!DOCTYPE svg PUBLIC "-//W3C//DTD SVG 20010904//EN"
 "http://www.w3.org/TR/2001/REC-SVG-20010904/DTD/svg10.dtd">
<svg version="1.0" xmlns="http://www.w3.org/2000/svg"
 width="360.000000pt" height="360.000000pt" viewBox="0 0 360.000000 360.000000"
 preserveAspectRatio="xMidYMid meet">
<metadata>
Created by potrace 1.15, written by Peter Selinger 2001-2017
</metadata>
<g transform="translate(0.000000,360.000000) scale(0.100000,-0.100000)"
fill="#000000" stroke="none">
<path d="M1730 2955 c0 -42 -140 -156 -282 -230 -57 -30 -74 -57 -43 -68 39
-16 222 58 407 164 80 46 89 54 86 78 -3 22 -12 29 -63 48 -72 26 -105 29
-105 8z"/>
<path d="M1979 2767 c-83 -29 -145 -61 -321 -166 -26 -15 -28 -15 -62 18 -61
60 -79 26 -55 -105 24 -132 61 -138 169 -28 137 140 306 260 318 225 2 -6 15
-11 28 -11 13 0 24 -4 24 -9 0 -18 -141 -190 -218 -268 l-80 -79 -331 -138
c-183 -77 -334 -142 -336 -146 -8 -12 35 -60 53 -60 9 0 64 23 121 50 57 28
107 50 112 50 5 0 9 -51 9 -114 0 -129 -2 -133 -74 -142 -25 -4 -46 -11 -46
-16 0 -18 45 -47 72 -48 14 0 144 45 288 100 144 55 264 100 266 100 9 0 3
-39 -6 -45 -15 -9 -12 -48 3 -42 52 19 157 39 179 34 51 -13 58 -30 58 -140
l0 -102 -216 -108 c-119 -60 -218 -107 -219 -105 -2 2 6 50 18 108 11 60 17
117 13 133 -8 32 -51 57 -100 57 -42 0 -225 -90 -381 -188 l-109 -70 -32 24
c-17 13 -34 24 -37 24 -3 0 -11 -17 -17 -37 -10 -32 -5 -70 25 -243 44 -247
44 -307 -6 -452 l-32 -97 17 -63 c22 -79 30 -88 77 -88 35 0 48 8 120 77 44
42 114 119 156 170 l77 94 47 -6 c40 -6 54 -3 78 14 27 20 28 23 19 63 -5 24
-25 72 -44 107 l-34 65 53 81 c28 44 59 86 67 93 29 24 196 106 335 163 l140
58 12 -117 c15 -145 16 -236 5 -282 -6 -23 -1 -125 14 -295 13 -149 19 -264
14 -269 -5 -5 -52 19 -112 57 -57 36 -121 70 -144 76 -75 20 -121 100 -130
228 -5 66 -2 88 18 143 30 84 46 87 139 26 53 -36 78 -46 109 -46 40 0 40 0
40 39 0 69 -102 178 -176 188 -52 7 -81 -17 -127 -104 -57 -110 -72 -173 -58
-257 35 -213 26 -192 89 -228 123 -69 231 -146 309 -221 74 -72 84 -77 104
-67 20 11 21 17 16 84 -3 39 -16 271 -28 516 l-23 445 40 74 39 75 150 38
c180 46 239 72 243 109 6 49 -10 49 -213 13 -228 -41 -233 -41 -239 -11 -21
110 -30 139 -48 162 -11 15 -30 30 -40 34 -17 6 2 28 126 145 139 132 146 140
146 177 0 30 -6 42 -25 55 -35 23 -106 42 -200 54 -82 10 -85 10 -179 -24 -79
-28 -97 -32 -106 -20 -9 10 17 42 124 152 75 76 136 145 136 154 0 8 -9 42
-21 76 -20 61 -21 62 -57 62 -21 0 -80 -15 -133 -33z m325 -467 c23 -23 -131
-185 -237 -248 l-56 -34 -39 33 c-22 18 -55 38 -73 44 l-34 12 -3 75 -3 75
118 31 c106 28 128 31 218 26 55 -3 104 -9 109 -14z m-547 -94 c4 -8 16 -15
26 -17 16 -4 16 -8 -8 -55 -53 -107 -152 -184 -235 -184 l-37 0 -17 77 -17 76
27 28 c34 35 109 67 182 78 31 5 60 9 64 10 4 0 11 -5 15 -13z m-137 -528 c-1
-7 -9 -77 -19 -155 -22 -165 -41 -213 -109 -274 -49 -44 -184 -114 -239 -125
-32 -6 -33 -6 -33 28 0 33 8 41 125 133 98 77 125 103 125 122 0 40 -26 37
-124 -16 -130 -70 -175 -68 -205 11 -10 26 -7 27 207 157 205 123 273 153 272
119z m-129 -569 c21 -17 39 -36 39 -42 0 -7 -69 -80 -152 -164 -112 -112 -159
-153 -177 -153 -21 0 -23 3 -17 33 4 17 11 58 16 90 9 63 42 127 87 169 30 28
141 98 156 98 5 0 27 -14 48 -31z"/>
<path d="M1180 2534 c0 -20 53 -210 70 -248 16 -39 24 -46 47 -46 36 0 83 46
83 80 0 19 -24 52 -91 123 -81 86 -109 110 -109 91z"/>
<path d="M912 2042 c-16 -24 -21 -41 -15 -52 22 -45 196 -376 199 -379 2 -2
15 4 29 13 23 15 25 22 25 97 0 76 -2 85 -37 143 -46 77 -78 122 -117 164 -49
53 -58 54 -84 14z"/>
</g>
</svg>
