<?xml version="1.0" standalone="no"?>
<!DOCTYPE svg PUBLIC "-//W3C//DTD SVG 20010904//EN"
 "http://www.w3.org/TR/2001/REC-SVG-20010904/DTD/svg10.dtd">
<svg version="1.0" xmlns="http://www.w3.org/2000/svg"
 width="360.000000pt" height="360.000000pt" viewBox="0 0 360.000000 360.000000"
 preserveAspectRatio="xMidYMid meet">
<metadata>
Created by potrace 1.15, written by Peter Selinger 2001-2017
</metadata>
<g transform="translate(0.000000,360.000000) scale(0.100000,-0.100000)"
fill="#000000" stroke="none">
<path d="M1782 2727 c-30 -32 -28 -43 16 -64 62 -30 72 -64 72 -239 0 -178 -9
-237 -50 -321 -40 -80 -112 -145 -216 -195 -87 -40 -134 -47 -154 -23 -7 8
-19 56 -26 105 -19 128 -55 191 -157 271 -108 85 -134 27 -42 -94 92 -120 95
-130 95 -308 0 -99 4 -159 11 -166 14 -14 0 -85 -47 -241 -42 -137 -82 -220
-125 -256 -31 -26 -31 -27 -19 -70 19 -69 47 -108 73 -104 45 6 113 198 182
513 20 94 42 188 48 209 l12 39 391 147 391 147 44 -23 c64 -34 131 -22 192
34 28 27 38 84 16 98 -6 3 -132 -15 -280 -42 -148 -26 -271 -45 -274 -42 -3 3
4 114 15 247 23 279 24 334 9 364 -18 33 -28 37 -95 37 -50 0 -64 -4 -82 -23z"/>
<path d="M1672 1528 c-234 -97 -242 -101 -226 -119 10 -11 27 -19 38 -19 12 0
110 30 219 66 181 60 200 65 215 51 12 -13 17 -55 23 -219 17 -455 11 -540
-48 -594 l-25 -24 26 -84 c28 -90 42 -109 78 -104 29 4 51 50 72 149 31 151
39 254 27 334 -6 42 -11 199 -11 353 l0 278 -29 17 c-56 33 -100 23 -359 -85z"/>
</g>
</svg>
