<?xml version="1.0" standalone="no"?>
<!DOCTYPE svg PUBLIC "-//W3C//DTD SVG 20010904//EN"
 "http://www.w3.org/TR/2001/REC-SVG-20010904/DTD/svg10.dtd">
<svg version="1.0" xmlns="http://www.w3.org/2000/svg"
 width="360.000000pt" height="360.000000pt" viewBox="0 0 360.000000 360.000000"
 preserveAspectRatio="xMidYMid meet">
<metadata>
Created by potrace 1.15, written by Peter Selinger 2001-2017
</metadata>
<g transform="translate(0.000000,360.000000) scale(0.100000,-0.100000)"
fill="#000000" stroke="none">
<path d="M1452 2411 c-20 -25 -32 -51 -32 -70 0 -30 1 -31 50 -31 l50 0 0 -72
c0 -67 -42 -529 -55 -605 -5 -26 -18 -41 -66 -74 -104 -70 -142 -83 -254 -85
-76 -2 -102 -6 -109 -17 -13 -21 15 -60 57 -81 46 -21 89 -20 213 6 57 12 107
18 111 15 12 -13 -19 -148 -48 -207 -39 -76 -139 -184 -233 -248 -70 -49 -244
-142 -293 -157 -16 -4 -23 -14 -23 -32 0 -21 4 -24 23 -20 12 3 47 9 77 13 67
8 208 77 336 163 166 111 269 246 296 389 6 34 15 62 19 62 4 0 130 -128 280
-284 270 -281 274 -285 363 -329 151 -75 299 -117 466 -132 l75 -6 13 31 c11
25 12 33 1 46 -26 31 -132 76 -216 90 -205 36 -384 141 -638 374 -99 90 -335
338 -335 351 0 12 86 84 162 136 53 36 99 57 168 77 52 15 114 36 138 46 38
17 42 22 42 54 0 25 -7 40 -26 55 -41 32 -77 26 -170 -29 -136 -80 -279 -148
-290 -137 -2 2 5 109 16 238 26 305 26 361 -1 416 -24 51 -75 93 -111 93 -17
0 -35 -13 -56 -39z"/>
<path d="M2030 2335 c-20 -24 -6 -41 63 -73 70 -32 174 -100 196 -126 19 -23
54 -20 80 8 19 20 22 31 16 58 -11 51 -31 83 -72 117 -37 31 -39 31 -154 31
-91 0 -119 -3 -129 -15z"/>
</g>
</svg>
