<?xml version="1.0" standalone="no"?>
<!DOCTYPE svg PUBLIC "-//W3C//DTD SVG 20010904//EN"
 "http://www.w3.org/TR/2001/REC-SVG-20010904/DTD/svg10.dtd">
<svg version="1.0" xmlns="http://www.w3.org/2000/svg"
 width="360.000000pt" height="360.000000pt" viewBox="0 0 360.000000 360.000000"
 preserveAspectRatio="xMidYMid meet">
<metadata>
Created by potrace 1.15, written by Peter Selinger 2001-2017
</metadata>
<g transform="translate(0.000000,360.000000) scale(0.100000,-0.100000)"
fill="#000000" stroke="none">
<path d="M2003 2530 c-60 -27 -59 -54 4 -66 31 -6 52 -17 65 -35 18 -24 19
-33 9 -118 -16 -127 -77 -366 -162 -628 -71 -217 -72 -223 -54 -243 10 -11 25
-20 32 -20 8 0 53 34 99 75 94 84 115 90 164 49 70 -60 109 -195 117 -414 5
-128 1 -174 -33 -343 -13 -65 -88 0 -146 129 -18 41 -36 74 -39 74 -3 0 -14
-16 -25 -35 l-19 -36 40 -77 c22 -42 59 -96 82 -119 41 -41 45 -43 102 -43 57
0 61 2 76 29 22 44 43 130 59 250 15 105 15 108 -19 336 -31 214 -32 231 -16
246 9 9 98 89 199 178 100 89 182 165 182 169 0 5 -20 27 -44 51 l-44 43 -99
-4 c-85 -4 -106 -8 -158 -35 -76 -39 -163 -103 -247 -182 -70 -65 -95 -76 -84
-38 73 251 146 586 146 668 0 48 -3 53 -54 105 -30 30 -63 54 -73 53 -10 0
-37 -9 -60 -19z m547 -627 c0 -24 -270 -293 -293 -293 -10 0 -34 11 -53 24
l-35 23 39 49 c60 76 146 149 213 183 71 35 129 41 129 14z"/>
<path d="M1217 2442 l-28 -19 41 -28 c22 -15 40 -32 40 -37 0 -7 -81 -127
-104 -154 -1 -1 -93 13 -206 31 -113 18 -206 32 -208 30 -2 -2 -14 -56 -28
-122 -28 -140 -50 -303 -58 -429 -5 -82 -3 -94 15 -118 11 -14 26 -26 32 -26
7 0 86 70 177 155 91 85 171 154 178 155 26 0 14 -117 -23 -226 -37 -109 -168
-429 -259 -634 l-55 -125 24 -25 c16 -16 28 -21 34 -15 6 6 57 109 115 230 58
121 110 221 116 223 6 2 17 -2 25 -8 12 -10 13 -16 4 -26 -9 -11 -8 -30 1 -77
10 -49 9 -98 0 -237 -12 -168 -12 -178 8 -259 24 -93 44 -131 69 -131 14 0 15
13 10 113 -3 61 -12 134 -21 161 -11 37 -12 53 -3 66 8 14 8 22 -2 34 -8 10
-9 21 -3 33 5 10 12 106 15 213 4 107 13 241 22 298 11 68 13 108 6 115 -6 8
-2 76 13 197 l22 185 94 180 c52 99 96 185 98 191 4 16 -45 72 -79 89 -36 19
-48 19 -82 -3z m-220 -297 c44 -14 86 -31 92 -38 8 -10 -27 -58 -153 -210
l-165 -197 -20 29 c-38 53 -30 132 31 305 l53 148 40 -5 c23 -4 77 -18 122
-32z"/>
<path d="M1565 2283 c-104 -52 -192 -97 -194 -99 -4 -4 29 -84 35 -84 2 0 49
18 105 40 56 23 105 40 110 38 22 -8 -68 -193 -209 -427 -72 -119 -74 -126
-61 -150 28 -49 60 -41 169 43 54 42 101 76 104 76 8 0 -10 -53 -39 -110 -35
-70 -78 -142 -183 -308 -90 -142 -99 -175 -47 -188 21 -5 43 11 146 105 l122
111 24 -22 c20 -19 23 -31 23 -100 0 -73 -4 -89 -66 -243 -38 -95 -71 -164
-78 -162 -6 1 -18 17 -26 35 -8 17 -22 32 -31 32 -14 0 -19 -18 -29 -86 -12
-83 -12 -86 11 -110 36 -38 61 -31 122 36 85 91 147 214 178 349 20 91 28 234
16 295 l-12 59 -50 14 c-28 8 -58 23 -68 32 -18 17 -16 21 44 112 74 112 139
243 139 279 0 47 -14 49 -113 24 -94 -24 -151 -30 -145 -16 2 5 69 103 151
219 81 116 147 218 147 226 0 16 -76 77 -94 76 -6 0 -96 -43 -201 -96z"/>
<path d="M2514 1319 c-8 -13 1 -22 142 -129 90 -68 119 -103 188 -222 16 -27
31 -48 35 -48 4 0 18 23 31 50 18 39 21 53 12 62 -7 7 -12 23 -12 35 0 75
-102 163 -256 223 -98 38 -130 44 -140 29z"/>
<path d="M1932 1207 c-21 -25 -40 -94 -52 -188 -22 -176 -4 -218 69 -160 44
35 51 55 24 66 -17 6 -17 7 0 19 24 18 22 63 -3 71 -18 6 -18 9 10 86 35 94
35 95 13 102 -10 2 -25 8 -34 11 -9 4 -21 1 -27 -7z"/>
</g>
</svg>
