<?xml version="1.0" standalone="no"?>
<!DOCTYPE svg PUBLIC "-//W3C//DTD SVG 20010904//EN"
 "http://www.w3.org/TR/2001/REC-SVG-20010904/DTD/svg10.dtd">
<svg version="1.0" xmlns="http://www.w3.org/2000/svg"
 width="360.000000pt" height="360.000000pt" viewBox="0 0 360.000000 360.000000"
 preserveAspectRatio="xMidYMid meet">
<metadata>
Created by potrace 1.15, written by Peter Selinger 2001-2017
</metadata>
<g transform="translate(0.000000,360.000000) scale(0.100000,-0.100000)"
fill="#000000" stroke="none">
<path d="M2245 2711 c-3 -5 9 -62 27 -126 31 -114 31 -117 18 -198 -7 -45 -21
-98 -31 -117 -36 -72 -134 -145 -267 -200 -67 -29 -76 -30 -90 -16 -14 14 -13
28 8 149 25 146 21 196 -21 278 -19 38 -102 129 -118 129 -11 0 -41 -57 -41
-78 0 -12 4 -23 9 -26 5 -3 18 -26 30 -51 19 -42 21 -61 21 -275 0 -261 4
-250 -87 -250 -59 0 -117 -15 -133 -35 -10 -12 -8 -22 10 -50 18 -29 28 -35
55 -35 18 0 54 9 80 20 26 11 48 20 50 20 1 0 5 -23 9 -51 7 -55 40 -99 74
-99 37 0 62 41 62 103 0 32 -6 66 -12 77 -11 17 -8 24 22 54 62 61 238 152
257 132 9 -8 -118 -319 -141 -345 -26 -28 -193 -139 -379 -250 l-137 -83 25
-30 c14 -16 25 -39 25 -51 0 -40 59 -310 86 -396 15 -46 37 -95 49 -109 22
-25 23 -25 92 -14 75 12 244 67 387 126 50 20 97 36 106 36 29 0 39 -19 28
-52 -16 -44 -4 -101 31 -152 37 -53 95 -100 115 -93 17 7 116 206 157 317 37
102 100 348 124 483 15 83 16 102 4 123 -18 34 -107 91 -203 130 l-81 32 -170
-23 c-93 -13 -172 -21 -175 -19 -6 6 168 351 209 417 l31 47 123 0 c114 0 125
2 143 21 19 21 19 22 -6 38 -66 43 -162 128 -181 157 -19 31 -19 39 -9 90 15
72 8 117 -26 161 -46 61 -142 111 -159 84z m290 -1123 c62 -41 65 -45 65 -83
0 -124 -93 -535 -121 -535 -5 0 -33 16 -62 35 -36 24 -63 35 -88 35 -32 0
-172 -25 -255 -46 -26 -7 -27 -6 -20 26 9 48 57 140 128 249 60 90 61 94 43
108 -111 80 -135 104 -135 133 0 19 11 42 31 65 31 34 32 35 113 36 44 0 104
4 131 9 91 14 103 12 170 -32z m-555 -132 l0 -64 -105 -88 c-58 -49 -105 -94
-105 -101 0 -25 32 -26 99 -5 37 12 71 22 76 22 20 0 -5 -114 -37 -167 -51
-85 -168 -178 -168 -133 0 6 -14 101 -30 212 -17 111 -29 205 -28 210 5 15
262 178 281 178 14 0 17 -10 17 -64z"/>
<path d="M1401 2469 l-24 -9 21 -23 22 -23 -23 -74 -23 -75 -45 3 c-26 2 -66
15 -96 32 -50 28 -59 30 -167 30 l-114 0 -31 -35 c-36 -41 -34 -37 -19 -70 7
-16 17 -24 27 -21 89 27 171 46 196 46 18 0 55 -15 88 -36 63 -39 65 -48 26
-126 -34 -67 -211 -238 -247 -238 -6 0 -14 20 -17 44 -9 57 -39 106 -65 106
-19 0 -20 -6 -20 -118 0 -111 1 -120 23 -140 14 -14 36 -22 56 -22 28 0 49 15
138 100 58 55 109 100 114 100 5 0 9 -33 9 -74 0 -63 -7 -94 -51 -217 -43
-120 -60 -153 -99 -199 -112 -131 -188 -264 -234 -408 -34 -109 -34 -156 0
-178 22 -15 27 -15 39 -3 28 28 114 183 196 353 71 149 87 176 106 176 39 0
42 -44 33 -520 -4 -195 -3 -220 15 -270 17 -48 24 -55 49 -58 16 -2 32 0 36 5
5 4 -2 92 -14 195 l-22 187 22 173 c15 119 18 177 11 186 -7 9 -6 25 2 53 10
32 10 44 0 55 -10 12 -8 51 9 192 12 97 26 227 31 287 17 180 71 334 161 466
38 56 40 61 26 87 -14 27 -82 73 -107 71 -8 0 -25 -5 -38 -10z"/>
</g>
</svg>
