<?xml version="1.0" standalone="no"?>
<!DOCTYPE svg PUBLIC "-//W3C//DTD SVG 20010904//EN"
 "http://www.w3.org/TR/2001/REC-SVG-20010904/DTD/svg10.dtd">
<svg version="1.0" xmlns="http://www.w3.org/2000/svg"
 width="360.000000pt" height="360.000000pt" viewBox="0 0 360.000000 360.000000"
 preserveAspectRatio="xMidYMid meet">
<metadata>
Created by potrace 1.15, written by Peter Selinger 2001-2017
</metadata>
<g transform="translate(0.000000,360.000000) scale(0.100000,-0.100000)"
fill="#000000" stroke="none">
<path d="M1072 2708 c-15 -15 -15 -61 0 -76 7 -7 21 -12 31 -12 18 0 19 -7 14
-142 -5 -164 -21 -229 -70 -285 -17 -20 -46 -42 -64 -49 -39 -17 -165 -18
-180 -3 -19 19 -25 -8 -9 -34 25 -37 93 -70 160 -76 61 -6 61 -6 58 -36 -6
-62 -44 -146 -84 -183 -22 -20 -46 -49 -54 -64 -14 -27 -18 -28 -88 -28 -96 0
-107 -12 -65 -68 l31 -42 77 0 78 0 17 -82 c9 -46 19 -90 22 -99 3 -11 -16
-26 -71 -53 -41 -20 -75 -41 -75 -46 0 -4 15 -18 33 -29 39 -24 70 -19 144 24
24 15 47 24 50 21 5 -5 -116 -160 -234 -300 -39 -47 -41 -61 -10 -80 41 -27
132 1 211 63 21 17 49 31 62 31 13 0 24 -1 24 -3 0 -2 -9 -52 -20 -112 -24
-132 -24 -125 -1 -125 32 0 54 49 67 152 14 110 36 167 84 222 43 48 99 76
166 83 47 5 54 9 54 28 0 24 -29 55 -51 55 -9 0 -55 -14 -104 -30 -49 -17 -92
-30 -97 -30 -4 0 -8 10 -8 23 0 31 47 102 104 157 25 24 46 48 46 52 0 21 -43
48 -75 48 -44 0 -46 20 -5 66 38 43 65 98 74 147 l7 37 54 0 c112 0 117 -11
126 -295 5 -158 11 -234 23 -270 8 -27 12 -51 7 -53 -5 -2 -4 -18 2 -37 8 -27
7 -41 -3 -60 -10 -19 -10 -27 -1 -39 8 -10 9 -16 1 -21 -5 -3 -10 -40 -10 -83
0 -91 -39 -282 -57 -282 -16 0 -59 66 -68 102 -7 29 -23 36 -42 17 -25 -25 64
-256 107 -279 56 -30 96 23 143 188 19 67 34 97 77 150 107 136 260 388 260
430 0 32 30 14 128 -74 59 -53 126 -124 148 -158 120 -178 313 -307 523 -351
98 -20 221 -30 221 -17 0 6 -29 35 -64 65 -57 49 -69 54 -124 60 -219 23 -479
218 -745 557 l-75 95 13 117 c14 132 26 158 105 232 40 38 166 125 277 192 17
11 17 12 -1 33 -11 11 -28 21 -38 21 -10 0 -79 -41 -154 -91 -159 -106 -178
-110 -182 -34 -1 28 9 165 22 305 l24 255 -23 37 c-54 82 -130 111 -173 65
-26 -28 -28 -50 -6 -68 25 -21 51 -80 63 -144 16 -88 14 -537 -3 -578 -28 -69
-111 -116 -210 -120 l-41 -2 -3 77 -3 77 -62 30 c-120 57 -135 58 -312 23 -87
-18 -161 -29 -164 -27 -8 9 17 93 47 153 58 119 173 200 298 210 61 5 64 6 64
31 0 14 -10 38 -23 53 l-22 28 -113 -31 c-62 -18 -115 -30 -117 -27 -3 3 9 64
26 137 17 72 28 142 25 154 -7 31 -72 104 -107 122 -34 18 -71 19 -87 3z m118
-932 c0 -8 -25 -54 -55 -102 l-55 -88 0 42 c0 37 -3 42 -22 42 -12 0 -37 -15
-56 -32 l-33 -33 3 59 3 59 95 33 c110 37 120 39 120 20z m680 -194 c0 -16 -5
-54 -11 -85 -9 -42 -9 -60 0 -70 23 -28 -22 -180 -80 -272 -49 -78 -99 -135
-118 -135 -15 0 -19 14 -28 78 -6 50 -6 90 0 115 7 27 6 59 -2 105 -7 37 -11
112 -9 167 l3 100 95 11 c152 18 150 18 150 -14z"/>
<path d="M2220 2532 c0 -15 9 -22 33 -27 70 -16 167 -76 258 -162 l35 -33 22
23 c20 21 21 28 12 75 -21 113 -57 135 -232 140 -123 4 -128 3 -128 -16z"/>
<path d="M643 1475 l21 -66 -33 -336 -33 -336 25 -25 c15 -14 32 -22 40 -19
17 6 20 34 36 322 11 196 25 301 43 323 14 16 3 84 -22 133 -18 34 -62 69 -89
69 -5 0 0 -29 12 -65z"/>
</g>
</svg>
