<?xml version="1.0" standalone="no"?>
<!DOCTYPE svg PUBLIC "-//W3C//DTD SVG 20010904//EN"
 "http://www.w3.org/TR/2001/REC-SVG-20010904/DTD/svg10.dtd">
<svg version="1.0" xmlns="http://www.w3.org/2000/svg"
 width="360.000000pt" height="360.000000pt" viewBox="0 0 360.000000 360.000000"
 preserveAspectRatio="xMidYMid meet">
<metadata>
Created by potrace 1.15, written by Peter Selinger 2001-2017
</metadata>
<g transform="translate(0.000000,360.000000) scale(0.100000,-0.100000)"
fill="#000000" stroke="none">
<path d="M1977 2642 c-29 -31 -21 -50 23 -57 23 -4 40 -12 40 -20 0 -7 -9 -55
-19 -106 -18 -86 -40 -133 -244 -539 -124 -245 -231 -464 -238 -488 l-13 -43
40 -39 39 -40 102 123 c210 253 470 482 498 437 10 -16 -97 -305 -139 -375
-148 -251 -384 -490 -644 -652 -61 -38 -75 -43 -88 -32 -12 10 -19 9 -36 -8
-20 -21 -20 -22 -2 -52 13 -23 26 -31 46 -31 80 0 283 134 475 314 l63 58 88
-6 c298 -24 527 -102 721 -247 73 -54 80 -65 60 -98 -7 -10 -9 -30 -5 -45 9
-35 86 -119 128 -139 32 -15 32 -15 56 20 l24 35 -37 87 c-51 118 -87 172
-159 237 -143 130 -420 214 -703 214 -39 0 -55 4 -59 15 -4 9 29 67 82 146
162 243 251 440 261 579 l6 76 -36 27 c-20 15 -42 27 -50 27 -8 0 -110 -67
-228 -150 -191 -134 -214 -147 -217 -127 -1 13 34 91 84 187 105 200 213 431
244 522 32 97 19 166 -37 196 -34 19 -107 15 -126 -6z"/>
<path d="M980 2120 c-172 -70 -258 -99 -287 -100 -35 0 -43 -4 -43 -18 0 -27
42 -62 74 -62 47 0 146 29 244 72 51 23 95 38 98 35 3 -3 -5 -88 -18 -188
l-23 -183 -150 -118 c-145 -114 -150 -120 -150 -155 0 -33 4 -39 46 -60 25
-12 87 -30 138 -40 61 -12 91 -22 91 -32 0 -7 -51 -108 -114 -225 -110 -203
-186 -361 -186 -386 0 -6 16 -32 36 -56 30 -36 42 -44 70 -44 30 0 41 10 135
127 151 187 268 372 379 598 92 185 183 414 196 489 6 31 6 31 -18 -9 -14 -22
-62 -110 -107 -195 -168 -312 -334 -571 -463 -722 -56 -65 -88 -84 -88 -54 0
7 41 80 91 161 169 274 258 452 290 579 l12 50 -51 46 c-48 43 -52 50 -52 91
0 143 39 312 90 393 30 47 37 96 15 102 -5 2 -120 -42 -255 -96z m20 -669 c0
-28 -4 -52 -9 -55 -16 -10 -111 15 -111 29 0 14 87 75 108 75 8 0 12 -16 12
-49z"/>
<path d="M1530 1864 c0 -25 1 -26 22 -12 32 22 34 38 4 38 -21 0 -26 -5 -26
-26z"/>
</g>
</svg>
