<?xml version="1.0" standalone="no"?>
<!DOCTYPE svg PUBLIC "-//W3C//DTD SVG 20010904//EN"
 "http://www.w3.org/TR/2001/REC-SVG-20010904/DTD/svg10.dtd">
<svg version="1.0" xmlns="http://www.w3.org/2000/svg"
 width="360.000000pt" height="360.000000pt" viewBox="0 0 360.000000 360.000000"
 preserveAspectRatio="xMidYMid meet">
<metadata>
Created by potrace 1.15, written by Peter Selinger 2001-2017
</metadata>
<g transform="translate(0.000000,360.000000) scale(0.100000,-0.100000)"
fill="#000000" stroke="none">
<path d="M2000 2417 c0 -13 13 -41 30 -63 43 -57 40 -101 -14 -233 -82 -200
-179 -380 -240 -445 -26 -27 -27 -32 -17 -70 11 -46 20 -32 -100 -171 -139
-161 -272 -326 -304 -377 -21 -34 -37 -48 -52 -48 -13 0 -23 6 -23 13 0 8 35
112 79 233 l78 219 -45 67 -44 67 12 158 c7 99 18 171 28 192 16 35 83 93 165
144 46 28 47 30 31 48 -34 38 -88 26 -261 -57 -194 -92 -344 -158 -400 -175
-46 -13 -56 -36 -28 -59 34 -28 195 13 274 70 40 29 42 30 77 15 29 -12 35
-18 28 -32 -5 -10 -9 -81 -10 -157 l-1 -140 -28 -20 c-193 -141 -239 -186
-251 -243 l-6 -32 133 -3 134 -3 3 -28 c4 -36 -42 -175 -140 -420 l-80 -199
23 -24 c18 -19 32 -24 58 -22 31 3 41 13 114 118 134 194 286 399 382 520 88
110 194 220 212 220 22 0 42 -73 53 -195 13 -144 42 -325 59 -367 6 -16 15
-28 22 -28 6 0 94 34 196 76 153 63 189 75 204 65 38 -23 79 -7 79 32 0 10 -8
32 -17 48 -17 28 -21 29 -88 29 -39 0 -100 -8 -138 -19 -37 -11 -67 -18 -67
-15 0 2 51 75 113 161 62 87 117 164 121 171 10 17 -20 52 -45 52 -9 0 -81
-23 -159 -50 -78 -28 -150 -50 -160 -50 -13 0 -19 11 -23 51 -4 28 -18 71 -32
96 -14 26 -25 61 -25 83 0 56 53 188 134 330 93 165 156 306 156 350 0 20 -6
45 -14 56 -15 21 -107 66 -158 78 -24 6 -28 3 -28 -17z m180 -1053 c0 -4 -26
-49 -57 -101 -51 -82 -61 -94 -83 -91 -27 3 -56 50 -62 102 -3 28 0 30 87 61
94 34 115 39 115 29z"/>
<path d="M2360 1907 c-130 -48 -380 -195 -380 -224 0 -9 6 -12 18 -9 9 3 127
40 261 82 l244 75 38 -37 39 -38 0 -131 c0 -75 4 -135 10 -141 7 -7 -6 -105
-40 -305 -64 -374 -55 -339 -88 -339 -33 0 -52 16 -52 45 0 26 -27 65 -46 65
-43 0 35 -263 87 -291 11 -5 32 -9 46 -7 81 9 151 349 208 1008 l14 165 -32
28 c-87 77 -209 97 -327 54z"/>
</g>
</svg>
