<?xml version="1.0" standalone="no"?>
<!DOCTYPE svg PUBLIC "-//W3C//DTD SVG 20010904//EN"
 "http://www.w3.org/TR/2001/REC-SVG-20010904/DTD/svg10.dtd">
<svg version="1.0" xmlns="http://www.w3.org/2000/svg"
 width="360.000000pt" height="360.000000pt" viewBox="0 0 360.000000 360.000000"
 preserveAspectRatio="xMidYMid meet">
<metadata>
Created by potrace 1.15, written by Peter Selinger 2001-2017
</metadata>
<g transform="translate(0.000000,360.000000) scale(0.100000,-0.100000)"
fill="#000000" stroke="none">
<path d="M1600 2332 l-24 -19 48 -59 c42 -51 47 -62 42 -94 -3 -19 -13 -92
-22 -162 l-17 -127 -123 -106 c-110 -95 -163 -150 -175 -180 -2 -6 -66 -102
-142 -213 -120 -175 -167 -230 -167 -192 0 5 47 128 105 273 58 145 105 275
105 289 0 29 -46 74 -92 90 -31 11 -37 38 -13 58 21 17 20 103 -1 121 -13 11
-13 14 -1 21 8 4 18 20 22 35 9 37 59 102 105 138 22 17 39 38 40 48 0 26 -38
77 -58 77 -9 0 -92 -50 -184 -111 -178 -118 -175 -117 -258 -94 -15 5 -40 -35
-40 -62 0 -16 38 -41 80 -53 27 -8 42 -4 91 20 70 36 79 37 107 7 33 -34 31
-126 -4 -195 -29 -59 -138 -166 -238 -233 -36 -24 -66 -49 -66 -56 0 -7 55
-54 123 -104 67 -51 126 -95 130 -99 5 -4 -50 -120 -122 -257 -72 -138 -131
-255 -131 -262 0 -7 21 -37 48 -67 38 -43 53 -54 78 -54 30 0 37 9 145 183
140 226 291 451 404 602 77 102 90 115 117 115 20 0 29 -4 25 -12 -36 -97
-185 -619 -181 -636 8 -29 30 -34 94 -22 69 13 70 13 70 -9 0 -23 51 -77 81
-86 53 -17 161 155 229 365 34 102 98 359 126 502 19 99 13 125 -39 185 -27
31 -33 33 -96 33 -37 0 -70 2 -73 5 -2 3 7 73 21 157 14 87 21 165 18 180 -8
32 -59 62 -123 72 -32 6 -45 3 -64 -12z m227 -629 c-8 -93 -57 -298 -126 -522
-28 -90 -51 -166 -51 -168 0 -1 -16 -3 -35 -3 l-35 0 0 111 c0 62 -5 139 -11
173 -10 59 -9 66 31 185 49 148 85 236 112 274 17 23 26 27 70 27 l51 0 -6
-77z m-827 -153 c0 -72 -2 -80 -19 -80 -20 0 -81 62 -81 83 0 9 81 72 98 76 1
1 2 -35 2 -79z"/>
<path d="M2420 1695 c-107 -46 -201 -84 -208 -84 -7 -1 -15 7 -19 17 -3 9 -17
32 -30 50 -27 36 -79 45 -90 16 -3 -8 11 -125 31 -259 30 -197 35 -247 25
-263 -10 -16 -7 -26 21 -66 18 -25 39 -46 45 -46 6 0 21 10 32 23 19 19 22 37
25 152 3 124 5 134 36 197 21 43 51 83 84 113 55 49 176 113 232 122 73 12
111 -20 85 -69 -22 -42 -123 -162 -231 -274 -70 -72 -108 -119 -108 -133 0
-26 37 -101 49 -101 5 0 60 23 122 50 94 42 118 49 137 40 42 -19 76 -12 110
23 57 59 41 83 -71 107 -31 6 -57 17 -57 23 0 7 54 86 121 176 117 159 120
164 104 187 -8 13 -34 36 -56 51 -33 22 -54 27 -117 30 l-77 3 -195 -85z"/>
</g>
</svg>
