<?xml version="1.0" standalone="no"?>
<!DOCTYPE svg PUBLIC "-//W3C//DTD SVG 20010904//EN"
 "http://www.w3.org/TR/2001/REC-SVG-20010904/DTD/svg10.dtd">
<svg version="1.0" xmlns="http://www.w3.org/2000/svg"
 width="360.000000pt" height="360.000000pt" viewBox="0 0 360.000000 360.000000"
 preserveAspectRatio="xMidYMid meet">
<metadata>
Created by potrace 1.15, written by Peter Selinger 2001-2017
</metadata>
<g transform="translate(0.000000,360.000000) scale(0.100000,-0.100000)"
fill="#000000" stroke="none">
<path d="M2361 2596 c-9 -11 -9 -25 -1 -56 11 -41 11 -42 -59 -155 -98 -157
-98 -157 37 -221 116 -56 204 -116 223 -152 l12 -22 24 22 c14 13 23 33 23 50
0 41 -76 112 -173 163 -42 22 -77 43 -77 48 0 4 24 56 54 115 75 150 74 148
35 188 -35 37 -77 45 -98 20z"/>
<path d="M2038 2497 c-5 -77 -36 -145 -113 -242 -67 -85 -69 -89 -61 -119 17
-70 234 -256 299 -256 70 0 31 86 -91 201 l-84 79 96 146 c53 81 96 157 96
170 0 33 -63 84 -104 84 l-34 0 -4 -63z"/>
<path d="M1724 2525 c-3 -8 -1 -28 4 -44 9 -26 4 -42 -43 -136 -55 -108 -124
-208 -157 -226 -28 -15 -22 -40 23 -105 44 -62 186 -229 237 -277 40 -38 76
-34 80 9 4 37 -42 109 -137 214 -61 69 -63 73 -58 116 6 54 49 128 133 225 49
58 63 81 64 107 0 44 -23 96 -51 116 -30 20 -88 21 -95 1z"/>
<path d="M1255 2417 c-96 -56 -165 -89 -220 -105 -168 -48 -240 -105 -163
-129 29 -8 48 -4 133 27 55 21 102 36 104 34 2 -2 -2 -77 -9 -166 -18 -242
-46 -291 -258 -444 -8 -5 40 -98 68 -134 36 -45 120 -90 168 -90 33 0 33 -1
27 -32 -17 -79 -100 -312 -145 -405 -28 -56 -50 -109 -50 -117 0 -25 92 -96
125 -96 29 0 40 15 239 335 158 254 214 335 228 335 51 0 102 -101 132 -260
31 -158 38 -247 26 -286 -12 -34 -11 -37 19 -68 l32 -33 227 68 c125 38 236
69 247 69 36 0 95 -21 95 -33 0 -7 24 -62 54 -122 58 -118 118 -205 141 -205
24 0 95 99 141 195 85 177 133 421 137 701 l2 157 -45 26 c-106 62 -172 85
-261 89 -155 8 -320 -24 -387 -75 -42 -31 -50 -24 -23 20 27 45 27 78 -2 105
-13 12 -26 22 -30 22 -3 0 -22 -30 -41 -67 -43 -82 -147 -221 -210 -283 l-47
-45 -47 28 c-26 16 -59 34 -75 40 -19 8 -25 16 -21 27 3 8 8 35 11 60 l5 45
-72 -70 c-87 -85 -217 -244 -311 -382 -70 -103 -89 -121 -89 -83 0 11 59 192
130 401 72 210 129 388 126 395 -6 15 -97 44 -138 44 -16 0 -31 7 -34 15 -6
14 19 269 32 337 5 23 19 34 90 67 89 42 128 68 152 102 13 18 12 23 -9 45
-12 13 -32 24 -43 23 -12 0 -84 -37 -161 -82z m-207 -832 c4 -62 -10 -76 -43
-45 -31 29 -31 47 -3 77 30 33 42 24 46 -32z m1471 27 c21 -11 46 -36 59 -60
22 -39 22 -45 11 -102 -9 -46 -9 -63 0 -74 8 -10 9 -16 1 -21 -13 -8 -13 -122
1 -131 8 -4 8 -9 0 -17 -6 -6 -11 -41 -11 -77 0 -80 -14 -163 -42 -250 -36
-111 -30 -111 -108 -17 -68 82 -122 131 -169 157 -19 10 -39 10 -98 0 -100
-16 -245 -55 -293 -80 -51 -26 -60 -25 -60 4 0 15 21 47 58 88 74 83 115 135
136 176 16 31 18 32 85 32 60 0 79 -5 149 -40 77 -38 134 -50 147 -30 3 5 -30
45 -74 89 -63 65 -88 83 -126 93 -42 11 -46 14 -40 38 4 14 12 32 19 40 8 8
26 43 41 77 31 71 58 99 112 119 49 18 153 11 202 -14z m-439 -91 c0 -5 -19
-44 -41 -86 -41 -75 -43 -77 -73 -71 -97 20 -106 19 -131 -4 -14 -13 -25 -32
-25 -42 0 -15 8 -18 55 -18 53 0 55 -1 55 -27 -1 -44 -33 -105 -78 -145 -68
-61 -75 -56 -102 75 -13 61 -25 117 -27 124 -6 15 138 122 212 158 77 38 155
56 155 36z"/>
</g>
</svg>
