<?xml version="1.0" standalone="no"?>
<!DOCTYPE svg PUBLIC "-//W3C//DTD SVG 20010904//EN"
 "http://www.w3.org/TR/2001/REC-SVG-20010904/DTD/svg10.dtd">
<svg version="1.0" xmlns="http://www.w3.org/2000/svg"
 width="360.000000pt" height="360.000000pt" viewBox="0 0 360.000000 360.000000"
 preserveAspectRatio="xMidYMid meet">
<metadata>
Created by potrace 1.15, written by Peter Selinger 2001-2017
</metadata>
<g transform="translate(0.000000,360.000000) scale(0.100000,-0.100000)"
fill="#000000" stroke="none">
<path d="M1741 2795 c-42 -36 -62 -75 -50 -98 12 -21 45 -22 53 -1 4 10 15 14
33 12 39 -4 59 -51 79 -179 32 -212 -9 -457 -92 -549 -34 -37 -89 -68 -101
-57 -3 4 -1 37 5 75 15 90 4 128 -53 181 -49 45 -57 48 -74 27 -9 -11 -7 -27
10 -71 l21 -57 -21 -133 c-11 -73 -21 -144 -21 -158 0 -28 24 -47 59 -47 12 0
21 -4 21 -8 0 -4 -29 -44 -64 -88 -62 -77 -455 -469 -462 -461 -2 2 59 120
136 262 152 282 161 307 113 344 -35 28 -66 35 -101 23 -44 -15 -62 25 -62
143 l0 94 85 75 c54 48 94 76 108 76 31 0 55 19 62 51 5 19 0 34 -20 57 -15
18 -33 32 -42 32 -8 0 -65 -34 -128 -75 -127 -85 -279 -165 -366 -192 -32 -10
-57 -22 -56 -27 2 -6 16 -19 31 -30 30 -23 97 -28 171 -13 38 7 41 6 54 -23 8
-20 12 -57 9 -104 -3 -64 -8 -80 -40 -129 -21 -31 -80 -101 -133 -155 -52 -55
-95 -107 -95 -116 0 -25 52 -41 203 -61 45 -6 47 -8 47 -37 0 -22 -41 -101
-135 -264 -74 -128 -135 -236 -135 -241 0 -5 13 -22 29 -37 22 -21 36 -27 64
-24 33 3 58 29 352 363 175 198 321 364 325 368 4 5 34 1 65 -9 l58 -18 75 27
c42 14 78 24 81 21 15 -15 -70 -144 -144 -219 -71 -73 -219 -185 -243 -185 -5
0 -17 9 -27 20 -23 26 -37 25 -63 -3 -19 -21 -22 -34 -22 -118 0 -52 5 -134
10 -183 14 -116 29 -146 77 -146 41 0 44 27 21 179 -12 83 -17 145 -12 150 13
12 182 71 203 71 17 0 19 -11 23 -122 4 -133 19 -181 60 -194 16 -5 27 -1 40
16 21 25 63 154 73 223 7 44 6 47 -14 47 -33 0 -71 44 -71 80 0 57 69 102 229
150 103 32 103 31 96 -97 -8 -143 -22 -242 -46 -331 -25 -94 -25 -94 13 -90
26 2 37 11 55 43 47 87 125 413 106 445 -15 22 11 75 51 105 23 17 45 20 149
23 118 3 124 3 177 -25 40 -21 63 -42 84 -76 l29 -48 -11 -117 c-7 -64 -21
-151 -32 -192 -27 -98 -89 -223 -141 -283 l-41 -48 -47 43 c-131 122 -221 173
-221 127 0 -18 141 -202 203 -266 34 -35 69 -63 77 -63 19 0 61 43 118 120
131 178 212 439 212 682 0 89 -2 99 -26 127 -28 34 -154 99 -246 127 -55 17
-58 17 -77 0 -19 -17 -23 -17 -61 -2 l-40 16 -196 -60 c-107 -33 -206 -60
-220 -60 l-25 0 30 44 c64 92 121 226 121 283 0 13 29 60 64 105 134 175 219
326 250 445 23 86 20 110 -15 154 -38 48 -77 53 -108 12 l-21 -26 21 -23 c19
-20 20 -29 14 -86 -4 -35 -11 -71 -14 -81 -5 -12 -46 -35 -117 -63 -60 -24
-122 -54 -138 -65 -42 -31 -61 -16 -60 47 1 27 5 159 9 294 l8 245 -26 31
c-30 35 -74 59 -128 69 -30 5 -41 2 -68 -20z m429 -733 c0 -29 -90 -150 -161
-218 -79 -75 -164 -133 -271 -184 -129 -63 -135 -56 -47 51 154 185 304 317
403 351 65 22 76 22 76 0z"/>
</g>
</svg>
