<?xml version="1.0" standalone="no"?>
<!DOCTYPE svg PUBLIC "-//W3C//DTD SVG 20010904//EN"
 "http://www.w3.org/TR/2001/REC-SVG-20010904/DTD/svg10.dtd">
<svg version="1.0" xmlns="http://www.w3.org/2000/svg"
 width="360.000000pt" height="360.000000pt" viewBox="0 0 360.000000 360.000000"
 preserveAspectRatio="xMidYMid meet">
<metadata>
Created by potrace 1.15, written by Peter Selinger 2001-2017
</metadata>
<g transform="translate(0.000000,360.000000) scale(0.100000,-0.100000)"
fill="#000000" stroke="none">
<path d="M1590 2892 c0 -11 9 -45 21 -78 19 -55 19 -67 9 -179 -18 -188 -76
-389 -161 -557 -29 -57 -30 -64 -19 -105 7 -23 32 -77 56 -120 l44 -76 -37
-69 c-21 -37 -50 -82 -65 -99 l-28 -30 -36 22 -36 22 -142 -142 c-128 -127
-166 -158 -166 -132 0 4 31 73 69 152 76 157 135 297 146 348 6 26 2 37 -16
57 -18 20 -32 24 -76 24 -61 0 -58 -11 -43 139 10 93 9 103 -10 140 -11 22
-20 53 -20 69 0 26 9 34 115 91 63 34 115 68 115 75 0 16 -25 39 -67 60 l-32
16 -88 -67 c-96 -72 -221 -137 -283 -148 -36 -6 -40 -10 -40 -35 0 -27 2 -29
73 -40 88 -15 144 -37 157 -61 18 -33 12 -180 -10 -228 -22 -48 -135 -170
-217 -233 -38 -29 -53 -47 -53 -65 0 -36 85 -115 170 -158 42 -21 70 -41 67
-48 -3 -7 -57 -125 -121 -264 -64 -139 -116 -260 -116 -271 0 -21 43 -66 59
-61 5 2 127 161 271 352 l261 348 28 -21 c45 -31 67 -25 126 34 94 94 199 270
329 549 l45 97 115 0 c64 0 116 -4 116 -8 0 -4 -47 -65 -105 -134 -101 -121
-130 -177 -87 -164 9 3 34 8 55 12 l37 6 0 -44 c0 -48 -5 -53 -262 -286 l-27
-24 -11 41 c-8 30 -16 41 -27 39 -29 -6 -56 -55 -61 -111 -4 -53 -4 -54 38
-87 l42 -33 132 132 132 132 22 -24 c14 -15 22 -36 22 -58 0 -29 -11 -44 -80
-111 -109 -106 -259 -224 -407 -321 -130 -85 -148 -109 -84 -115 23 -2 55 7
98 28 35 18 67 29 70 26 3 -3 -13 -75 -35 -160 -45 -165 -49 -195 -30 -214 16
-16 65 -15 75 1 4 6 10 30 13 52 5 36 8 40 37 43 30 3 33 0 43 -36 13 -52 80
-141 183 -248 72 -74 88 -85 113 -82 37 4 66 58 90 167 16 69 16 102 6 346
-11 287 -8 347 28 421 31 63 64 83 162 95 142 17 218 46 218 83 0 38 -26 37
-189 -4 -88 -22 -165 -40 -171 -40 -5 0 -10 10 -10 23 0 14 48 77 130 172 106
122 129 156 130 181 0 66 -55 68 -180 8 -39 -19 -75 -34 -79 -34 -4 0 -12 38
-17 85 l-10 86 79 89 c75 86 80 90 120 90 61 0 221 -45 304 -85 39 -19 85 -52
103 -72 l32 -36 19 24 c10 13 19 40 19 61 0 67 -70 105 -302 162 -70 17 -128
34 -128 37 0 3 33 87 74 185 l74 179 -41 43 c-23 23 -49 42 -57 42 -30 0 -133
-58 -222 -125 -70 -51 -88 -70 -88 -90 0 -22 4 -25 38 -25 32 0 54 11 126 66
48 36 90 63 94 60 14 -14 -20 -161 -50 -218 -55 -104 -145 -155 -292 -165
l-78 -6 8 24 c17 52 11 73 -28 92 -37 18 -37 18 -108 -12 -40 -17 -77 -31 -82
-31 -18 0 -2 152 20 203 30 67 93 130 167 166 36 18 65 36 65 40 0 4 -9 16
-19 25 -19 17 -23 17 -85 -4 -56 -18 -71 -20 -101 -10 -32 11 -35 15 -35 51 0
22 -7 55 -14 74 -15 34 -17 35 -70 35 -48 0 -56 -3 -56 -18z m170 -698 c0 -15
-24 -72 -52 -127 -61 -116 -115 -182 -140 -172 -15 6 -65 72 -70 94 -4 13 232
230 250 231 6 0 12 -12 12 -26z m440 -381 c0 -10 -72 -83 -82 -83 -15 0 -8 38
13 64 18 23 69 38 69 19z m-1210 -130 c0 -44 -5 -62 -22 -80 -24 -26 -65 -30
-93 -9 -18 13 -17 16 19 65 36 48 71 81 88 81 5 0 8 -26 8 -57z m990 -390 c0
-16 5 -162 12 -325 l12 -298 -24 -25 c-13 -14 -34 -25 -46 -25 -27 0 -82 63
-178 201 -74 108 -78 128 -51 234 29 111 96 188 206 240 67 31 69 31 69 -2z"/>
<path d="M2310 1143 c0 -13 17 -23 56 -36 87 -27 188 -99 312 -221 113 -111
143 -129 165 -95 16 26 -18 120 -63 171 -87 99 -290 197 -407 198 -54 0 -63
-3 -63 -17z"/>
</g>
</svg>
