<?xml version="1.0" standalone="no"?>
<!DOCTYPE svg PUBLIC "-//W3C//DTD SVG 20010904//EN"
 "http://www.w3.org/TR/2001/REC-SVG-20010904/DTD/svg10.dtd">
<svg version="1.0" xmlns="http://www.w3.org/2000/svg"
 width="360.000000pt" height="360.000000pt" viewBox="0 0 360.000000 360.000000"
 preserveAspectRatio="xMidYMid meet">
<metadata>
Created by potrace 1.15, written by Peter Selinger 2001-2017
</metadata>
<g transform="translate(0.000000,360.000000) scale(0.100000,-0.100000)"
fill="#000000" stroke="none">
<path d="M1185 2646 c-27 -7 -82 -27 -122 -45 l-72 -34 -87 22 c-83 21 -87 21
-100 4 -30 -40 -11 -68 71 -104 44 -19 60 -21 150 -15 55 3 129 13 164 21 133
32 162 63 119 129 -26 40 -40 42 -123 22z"/>
<path d="M2146 2512 c-27 -9 -124 -53 -215 -98 l-166 -82 -43 31 -43 31 -21
-21 -21 -21 24 -43 c34 -59 78 -81 157 -77 83 5 82 -7 -14 -116 l-77 -88 -13
-91 c-20 -137 -58 -249 -98 -291 -18 -20 -41 -36 -50 -36 -9 0 -16 -4 -16 -10
0 -11 73 -50 95 -50 8 0 15 -4 15 -8 0 -5 -18 -74 -40 -153 -51 -186 -102
-315 -156 -397 l-44 -65 0 -131 0 -132 30 -29 30 -29 29 29 c15 17 148 164
295 328 147 163 273 297 280 297 6 0 32 -42 56 -92 108 -224 253 -394 394
-463 91 -45 167 -59 286 -52 107 7 158 19 191 46 l23 18 -57 200 c-102 358
-158 513 -183 513 -8 0 -14 -6 -14 -12 1 -7 29 -148 63 -313 l63 -300 -89 -3
c-104 -3 -164 11 -282 68 -130 63 -225 155 -284 275 -53 107 -63 168 -68 415
-3 130 -9 230 -15 238 -7 8 -7 12 1 12 6 0 11 8 11 18 0 33 20 90 45 126 14
20 25 45 25 55 0 21 -44 65 -59 60 -6 -2 -92 -76 -192 -164 -100 -88 -188
-162 -197 -164 -23 -5 -10 127 20 210 49 134 183 294 350 416 46 34 78 65 78
76 0 17 -40 87 -50 86 -3 0 -27 -8 -54 -17z m-78 -796 c7 -35 12 -102 12 -148
l0 -85 -47 -6 c-27 -4 -96 -10 -155 -13 l-108 -7 0 29 c1 46 35 110 89 164 50
50 164 130 186 130 6 0 17 -28 23 -64z m-80 -362 c23 -4 42 -11 42 -18 0 -12
-460 -476 -472 -476 -14 0 -9 20 43 158 59 156 118 286 150 326 22 28 23 28
108 22 47 -4 105 -9 129 -12z"/>
<path d="M1164 2445 c-3 -8 -1 -37 5 -65 26 -123 8 -202 -58 -246 -36 -23
-154 -64 -187 -64 -6 0 -17 28 -23 63 -7 34 -17 86 -22 116 l-11 54 -19 -29
c-16 -24 -19 -48 -19 -147 0 -66 -5 -127 -11 -139 -23 -42 -121 -60 -214 -38
-25 6 -44 5 -49 0 -18 -18 72 -421 113 -515 28 -64 61 -62 155 9 80 61 139 94
176 98 24 3 25 1 22 -41 -4 -56 -28 -97 -94 -156 -45 -41 -217 -160 -242 -168
-17 -6 3 -36 36 -57 18 -11 71 -32 118 -47 47 -15 89 -31 94 -35 6 -4 -47 -64
-121 -135 -130 -127 -205 -226 -218 -285 -6 -24 -2 -35 18 -55 l25 -25 56 25
c99 46 329 207 713 502 53 41 66 72 40 93 -9 8 -41 -7 -122 -56 -316 -193
-386 -234 -391 -229 -4 3 30 46 74 94 107 117 172 199 247 313 103 157 100
147 53 208 -22 29 -48 52 -58 52 -9 0 -43 -9 -75 -20 -32 -11 -60 -20 -62 -20
-2 0 -3 34 -1 76 4 97 19 112 125 121 l72 6 161 203 c136 172 160 208 160 237
0 58 -26 72 -139 72 -53 0 -122 -4 -153 -8 l-58 -8 0 88 0 89 -43 42 c-45 44
-64 51 -73 27z m243 -347 c20 -16 16 -26 -31 -92 -74 -103 -187 -198 -265
-221 -22 -7 -23 -5 -17 21 15 61 96 210 134 247 61 60 138 79 179 45z m-367
-157 c-13 -70 -41 -131 -94 -205 -51 -72 -165 -181 -176 -169 -4 4 -12 33 -19
64 -8 39 -23 69 -47 98 -39 45 -37 57 10 76 64 26 113 28 145 6 32 -23 71 -27
89 -9 7 7 12 30 12 53 0 61 18 112 47 135 36 28 45 14 33 -49z m160 -561 c0
-5 -10 -30 -22 -55 -19 -40 -26 -45 -55 -45 -28 0 -33 4 -33 24 0 16 13 35 38
55 36 30 72 40 72 21z m-220 -195 c0 -33 -2 -35 -35 -35 -41 0 -44 14 -13 47
31 34 48 29 48 -12z"/>
</g>
</svg>
