<?xml version="1.0" standalone="no"?>
<!DOCTYPE svg PUBLIC "-//W3C//DTD SVG 20010904//EN"
 "http://www.w3.org/TR/2001/REC-SVG-20010904/DTD/svg10.dtd">
<svg version="1.0" xmlns="http://www.w3.org/2000/svg"
 width="360.000000pt" height="360.000000pt" viewBox="0 0 360.000000 360.000000"
 preserveAspectRatio="xMidYMid meet">
<metadata>
Created by potrace 1.15, written by Peter Selinger 2001-2017
</metadata>
<g transform="translate(0.000000,360.000000) scale(0.100000,-0.100000)"
fill="#000000" stroke="none">
<path d="M1495 2500 c-3 -5 -1 -19 5 -30 33 -61 -89 -153 -305 -229 -49 -18
-91 -34 -94 -36 -2 -3 4 -14 14 -25 22 -24 48 -25 127 -4 33 8 62 13 64 11 2
-2 -1 -18 -7 -35 -10 -28 -7 -40 20 -98 17 -36 31 -77 31 -91 0 -101 -188
-256 -514 -424 -127 -64 -163 -79 -201 -79 -41 0 -45 -2 -45 -23 0 -13 9 -32
20 -42 30 -27 175 -17 253 18 74 33 232 137 314 205 70 58 113 69 113 29 0
-34 -28 -122 -51 -161 -18 -31 -18 -35 -4 -50 9 -9 25 -16 36 -16 13 0 19 -7
19 -23 0 -17 -23 -42 -90 -95 l-90 -72 -41 21 -42 21 -24 -24 -23 -24 29 -60
c31 -60 87 -252 111 -376 14 -67 14 -68 46 -68 51 0 56 20 32 145 -17 88 -19
121 -12 167 7 37 7 61 1 67 -15 15 16 55 122 162 121 121 261 197 261 142 0
-33 -197 -354 -291 -474 -16 -20 -29 -40 -29 -45 0 -14 53 -64 68 -64 15 0
420 298 443 326 10 12 8 19 -12 40 -22 21 -28 23 -59 14 -19 -6 -45 -10 -58
-10 -21 0 -23 3 -17 33 12 53 44 107 98 164 l50 53 102 0 103 0 11 -32 c8 -21
8 -35 1 -42 -6 -6 -10 -78 -10 -181 0 -171 19 -303 52 -373 18 -37 51 -39 90
-7 62 52 206 111 316 130 42 7 42 6 42 -23 0 -16 10 -42 21 -57 21 -26 21 -31
11 -123 -9 -92 -9 -98 11 -120 41 -44 93 -19 115 57 15 48 15 84 1 98 -8 8 -8
22 0 49 7 25 11 204 11 506 l0 466 30 7 c16 4 39 18 50 32 l19 25 34 -21 c76
-47 217 -14 217 51 0 45 -25 51 -166 39 -69 -6 -133 -11 -143 -11 -23 0 -67
108 -51 124 6 6 10 62 10 133 0 136 -10 176 -57 219 -40 38 -120 76 -151 72
-40 -5 -38 -32 6 -80 72 -78 118 -202 85 -229 -10 -9 -13 -47 -13 -153 l0
-142 -101 -33 c-56 -18 -144 -55 -196 -81 -56 -28 -96 -43 -98 -36 -2 6 -11
58 -20 116 -9 58 -19 112 -21 121 -3 9 -33 35 -67 58 l-62 41 -25 -25 c-21
-21 -23 -28 -12 -43 47 -65 82 -186 82 -287 0 -35 -6 -47 -43 -83 -42 -41 -44
-42 -112 -42 -53 0 -77 5 -100 20 -21 14 -47 20 -88 20 -54 0 -66 -5 -156 -60
-54 -33 -103 -60 -109 -60 -28 0 -1 156 43 245 49 102 82 128 185 149 147 31
240 75 240 115 0 9 -13 30 -29 45 l-30 28 -133 -51 c-73 -28 -138 -51 -144
-51 -6 0 -14 18 -18 41 -13 84 -74 159 -128 159 -12 0 -18 8 -18 23 0 18 20
31 120 80 111 54 190 110 190 135 0 6 -19 34 -42 61 -37 42 -48 50 -80 50 -20
1 -40 -3 -43 -9z m1024 -1030 c6 -151 12 -309 13 -350 l3 -75 -105 -7 c-101
-6 -176 -25 -248 -62 -17 -9 -44 -16 -60 -16 -24 0 -30 6 -39 35 -8 24 -8 47
-1 71 5 20 8 52 6 71 l-3 35 79 31 80 30 37 -21 36 -21 41 34 c46 40 102 120
102 146 0 70 -142 45 -296 -52 -35 -23 -66 -40 -68 -38 -2 2 -9 39 -15 82 -12
77 -12 80 14 133 42 86 145 157 317 219 51 18 94 32 95 31 1 0 6 -125 12 -276z"/>
</g>
</svg>
