<?xml version="1.0" standalone="no"?>
<!DOCTYPE svg PUBLIC "-//W3C//DTD SVG 20010904//EN"
 "http://www.w3.org/TR/2001/REC-SVG-20010904/DTD/svg10.dtd">
<svg version="1.0" xmlns="http://www.w3.org/2000/svg"
 width="360.000000pt" height="360.000000pt" viewBox="0 0 360.000000 360.000000"
 preserveAspectRatio="xMidYMid meet">
<metadata>
Created by potrace 1.15, written by Peter Selinger 2001-2017
</metadata>
<g transform="translate(0.000000,360.000000) scale(0.100000,-0.100000)"
fill="#000000" stroke="none">
<path d="M2270 2901 c-26 -4 -36 -12 -38 -28 -5 -36 13 -57 67 -76 34 -12 73
-38 116 -78 63 -60 64 -60 89 -43 22 14 26 24 26 63 0 43 -4 51 -47 92 -84 81
-108 89 -213 70z"/>
<path d="M1749 2874 c-8 -10 -10 -20 -3 -29 62 -88 95 -143 104 -173 13 -47
13 -277 0 -301 -13 -25 -74 -48 -157 -61 -37 -6 -140 -35 -228 -64 -204 -69
-352 -110 -500 -141 -65 -13 -120 -27 -123 -30 -11 -10 42 -55 77 -65 20 -5
72 -10 115 -10 75 0 90 4 255 69 276 109 473 170 544 171 27 0 27 0 27 -68 0
-148 -101 -248 -320 -318 -69 -21 -84 -34 -114 -98 -58 -122 -150 -509 -141
-588 3 -24 6 -52 8 -63 1 -11 -2 -51 -7 -89 -10 -76 5 -216 29 -273 20 -48 53
-45 92 9 l30 43 -8 105 c-4 58 -8 199 -8 313 -1 226 1 235 54 207 37 -20 89
-6 221 60 67 33 124 60 128 60 3 0 6 -11 6 -25 0 -18 -31 -60 -111 -148 -162
-179 -259 -314 -259 -360 0 -40 25 -37 188 17 l162 55 0 -118 0 -117 34 -33
c20 -19 41 -31 49 -28 18 7 27 52 27 131 0 138 42 257 105 296 27 17 50 20
138 20 l105 0 22 35 22 35 -22 30 c-12 16 -23 30 -24 30 -2 0 -61 -9 -132 -20
-177 -27 -164 -30 -164 33 0 78 36 146 130 242 76 77 79 83 62 98 -13 12 -41
17 -102 19 l-85 3 -3 84 c-3 80 -2 85 25 114 l28 29 90 -6 c154 -10 214 -61
231 -193 6 -45 4 -53 -10 -53 -20 0 -21 5 9 -173 17 -97 22 -152 16 -156 -6
-4 -3 -35 10 -85 13 -51 17 -81 10 -85 -6 -4 -7 -20 -1 -46 13 -53 12 -229 0
-295 -7 -36 -7 -57 0 -66 8 -8 8 -14 0 -19 -5 -3 -10 -37 -10 -76 l0 -69 -30
0 c-22 0 -53 20 -129 85 -55 47 -104 85 -110 85 -6 0 -11 -11 -11 -24 0 -48
248 -336 290 -336 19 0 59 69 83 145 39 122 39 154 1 767 -22 356 -40 588 -47
596 -33 41 -193 82 -317 82 l-85 0 -22 35 c-32 49 -33 161 -2 194 43 46 148
73 355 91 127 12 130 11 206 -14 43 -15 97 -29 120 -31 39 -5 45 -2 67 25 20
26 22 35 13 55 -15 32 -86 78 -120 77 -15 0 -166 -19 -336 -41 -171 -23 -313
-41 -317 -41 -4 0 -9 73 -11 163 -4 137 -8 171 -27 219 -30 77 -77 118 -135
118 -28 0 -48 -6 -57 -16z m107 -1062 c4 -12 3 -42 0 -66 -14 -89 -119 -170
-304 -232 -76 -25 -84 -26 -99 -12 -14 15 -14 24 7 107 27 111 39 123 220 216
l125 64 23 -27 c12 -15 25 -37 28 -50z m-50 -597 c-5 -14 -104 -50 -113 -42
-13 13 13 51 60 87 l52 39 3 -35 c2 -20 1 -42 -2 -49z"/>
</g>
</svg>
