<?xml version="1.0" standalone="no"?>
<!DOCTYPE svg PUBLIC "-//W3C//DTD SVG 20010904//EN"
 "http://www.w3.org/TR/2001/REC-SVG-20010904/DTD/svg10.dtd">
<svg version="1.0" xmlns="http://www.w3.org/2000/svg"
 width="360.000000pt" height="360.000000pt" viewBox="0 0 360.000000 360.000000"
 preserveAspectRatio="xMidYMid meet">
<metadata>
Created by potrace 1.15, written by Peter Selinger 2001-2017
</metadata>
<g transform="translate(0.000000,360.000000) scale(0.100000,-0.100000)"
fill="#000000" stroke="none">
<path d="M1925 3045 c-195 -42 -284 -69 -329 -100 -34 -23 -39 -24 -59 -10
-27 19 -85 20 -106 1 -9 -7 -50 -21 -91 -30 -109 -24 -201 -54 -230 -76 l-25
-19 24 -25 c33 -35 63 -34 254 10 l158 37 24 -23 c21 -19 25 -33 25 -77 0 -52
-1 -53 -42 -74 -76 -39 -202 -120 -234 -151 l-32 -30 -30 54 c-16 29 -46 83
-67 121 -20 37 -41 67 -46 67 -28 0 -26 -41 7 -179 19 -79 34 -162 34 -185 0
-22 7 -88 15 -146 23 -175 57 -253 106 -252 13 0 55 10 92 21 61 18 68 18 65
4 -2 -9 -75 -98 -163 -198 -134 -151 -175 -191 -248 -241 -103 -69 -214 -180
-246 -247 -28 -58 -20 -100 22 -105 22 -3 48 18 165 135 76 76 166 171 201
211 144 166 349 289 513 307 29 3 70 8 91 10 30 4 37 2 37 -12 0 -10 -16 -29
-36 -42 -57 -39 -156 -154 -225 -261 -35 -55 -70 -99 -76 -100 -9 0 -13 20
-13 68 0 59 -3 72 -24 91 -26 25 -45 23 -86 -8 l-25 -20 23 -24 23 -25 -36
-105 c-65 -191 -86 -385 -47 -420 25 -23 78 -21 117 3 27 17 39 38 74 134 48
129 151 346 205 430 71 111 160 192 197 181 48 -16 85 -177 114 -499 13 -147
14 -184 4 -204 -10 -18 -10 -27 -1 -42 9 -15 8 -49 -7 -157 -11 -76 -20 -193
-20 -259 -1 -104 -5 -130 -25 -180 l-24 -59 21 -12 c27 -14 42 -3 63 45 38 92
94 498 100 722 2 114 0 143 -17 188 -14 40 -19 79 -19 160 0 71 -4 112 -12
120 -9 9 -9 12 1 12 11 0 12 11 7 47 -8 57 -45 140 -91 203 -19 26 -35 52 -35
58 0 11 131 62 159 62 10 0 37 -7 60 -15 38 -13 53 -13 144 2 l102 16 185 -71
c192 -74 197 -75 221 -30 15 27 -65 108 -139 141 -89 40 -180 49 -372 37 -251
-16 -387 -38 -411 -66 -8 -10 -15 -11 -24 -4 -9 8 -53 1 -155 -25 -78 -20
-146 -35 -150 -33 -5 2 25 48 66 103 49 67 80 99 92 98 9 -1 55 -5 102 -8 l85
-7 68 86 c187 234 315 489 333 663 6 57 5 61 -26 97 -34 38 -81 73 -160 118
l-45 25 -150 -32z m225 -106 c29 -18 50 -38 49 -47 0 -10 -33 -111 -73 -227
-58 -166 -77 -211 -92 -213 -53 -10 -204 -67 -294 -112 -56 -27 -108 -50 -116
-50 -10 0 -14 12 -14 38 0 32 14 54 110 174 73 92 110 146 110 162 0 48 -74
74 -112 39 -17 -15 -18 -15 -18 0 0 10 -8 17 -20 17 -18 0 -20 7 -20 55 0 53
1 56 43 86 101 74 199 107 319 108 70 1 83 -2 128 -30z m-600 -426 c-1 -33
-47 -130 -101 -212 l-54 -82 -45 3 -44 3 -32 100 c-17 55 -30 103 -27 108 2 4
17 7 33 7 40 0 129 35 165 65 37 30 105 35 105 8z"/>
</g>
</svg>
