<?xml version="1.0" standalone="no"?>
<!DOCTYPE svg PUBLIC "-//W3C//DTD SVG 20010904//EN"
 "http://www.w3.org/TR/2001/REC-SVG-20010904/DTD/svg10.dtd">
<svg version="1.0" xmlns="http://www.w3.org/2000/svg"
 width="360.000000pt" height="360.000000pt" viewBox="0 0 360.000000 360.000000"
 preserveAspectRatio="xMidYMid meet">
<metadata>
Created by potrace 1.15, written by Peter Selinger 2001-2017
</metadata>
<g transform="translate(0.000000,360.000000) scale(0.100000,-0.100000)"
fill="#000000" stroke="none">
<path d="M1667 2922 c-25 -27 -21 -62 12 -114 34 -53 74 -78 124 -78 79 0 149
-46 167 -109 7 -26 6 -39 -3 -47 -16 -15 -320 -145 -477 -204 -177 -67 -259
-87 -303 -73 -29 9 -36 8 -45 -8 -17 -27 -15 -43 11 -67 27 -26 92 -41 175
-42 l62 0 0 -67 c0 -38 5 -86 10 -108 5 -21 5 -44 1 -50 -5 -5 -14 -64 -20
-130 -22 -224 -71 -361 -179 -493 -50 -62 -148 -132 -183 -132 -29 0 -29 0
-29 63 0 54 -4 67 -23 85 -23 22 -24 22 -40 4 -14 -15 -17 -41 -17 -143 l0
-125 38 -37 c21 -20 41 -37 45 -37 4 0 48 27 97 60 49 33 91 60 94 60 12 0
-48 -145 -102 -250 -33 -63 -67 -140 -76 -170 -16 -54 -16 -55 7 -77 l23 -23
63 64 c61 62 64 67 130 242 166 441 300 709 418 835 38 40 43 51 33 64 -10 13
-23 5 -88 -50 -45 -39 -85 -65 -98 -65 -23 0 -23 0 16 111 22 61 42 115 45
119 2 4 -25 56 -60 116 -36 60 -65 121 -65 135 0 23 13 32 138 92 179 86 353
156 505 206 138 45 285 78 309 69 8 -4 19 -23 22 -44 l7 -37 102 5 c59 3 118
12 140 22 37 15 38 16 35 63 -3 41 -8 50 -35 69 -18 12 -64 30 -103 39 l-71
17 -178 -32 c-174 -32 -208 -34 -215 -8 -2 7 -9 35 -15 63 -7 27 -23 64 -37
82 -47 62 -165 112 -198 84 -12 -10 -26 -5 -75 28 -33 23 -64 41 -69 41 -5 0
-16 -8 -25 -18z"/>
<path d="M2051 2179 c-87 -54 -184 -132 -221 -178 -56 -72 -34 -141 46 -141
37 1 44 7 147 120 l108 120 73 0 c120 0 120 -2 -33 -205 -131 -175 -146 -205
-122 -244 8 -12 22 -12 93 -3 156 22 163 19 196 -89 29 -93 37 -156 23 -173
-9 -11 -9 -25 -1 -57 9 -31 9 -58 1 -105 -9 -46 -9 -68 0 -81 8 -14 5 -45 -16
-135 -56 -250 -116 -379 -177 -378 -14 0 -58 32 -118 85 l-95 84 -22 -21 -22
-20 110 -164 c75 -112 115 -164 128 -164 37 0 140 118 199 230 88 165 125 347
124 615 0 196 -15 307 -52 393 -25 57 -79 112 -111 112 -40 0 -29 30 55 157
54 80 86 138 86 154 0 20 -15 40 -59 78 l-59 51 -108 -1 -109 0 -64 -40z"/>
<path d="M1046 1788 l-28 -24 94 -62 c52 -34 101 -62 109 -62 28 0 71 55 67
86 -4 37 -68 71 -153 79 -53 5 -63 3 -89 -17z"/>
</g>
</svg>
