<?xml version="1.0" standalone="no"?>
<!DOCTYPE svg PUBLIC "-//W3C//DTD SVG 20010904//EN"
 "http://www.w3.org/TR/2001/REC-SVG-20010904/DTD/svg10.dtd">
<svg version="1.0" xmlns="http://www.w3.org/2000/svg"
 width="360.000000pt" height="360.000000pt" viewBox="0 0 360.000000 360.000000"
 preserveAspectRatio="xMidYMid meet">
<metadata>
Created by potrace 1.15, written by Peter Selinger 2001-2017
</metadata>
<g transform="translate(0.000000,360.000000) scale(0.100000,-0.100000)"
fill="#000000" stroke="none">
<path d="M1506 2728 c-9 -12 -16 -28 -16 -35 0 -17 53 -55 128 -92 54 -27 62
-34 51 -47 -19 -23 44 -84 86 -84 42 0 75 36 75 81 0 38 -25 68 -90 107 -39
23 -197 92 -210 92 -5 0 -16 -10 -24 -22z"/>
<path d="M1930 2478 c-19 -5 -224 -77 -455 -159 -383 -136 -426 -149 -488
-149 -78 0 -84 -10 -34 -58 33 -32 33 -32 140 -32 l106 0 11 -37 c10 -33 5
-67 -34 -251 -35 -163 -43 -218 -35 -233 9 -17 -3 -35 -92 -130 -56 -60 -104
-108 -106 -105 -3 2 5 47 17 100 12 52 19 107 16 121 -10 39 -64 93 -104 105
-40 11 -92 13 -92 4 0 -3 20 -34 45 -68 25 -35 45 -71 45 -80 0 -9 -39 -134
-86 -277 l-86 -261 23 -24 c12 -13 33 -24 45 -24 34 0 150 131 219 248 48 82
65 102 83 102 28 0 28 1 -39 -205 -96 -295 -217 -493 -313 -510 -35 -7 -36 -8
-20 -26 43 -48 156 3 230 104 100 134 171 314 250 624 32 127 70 249 95 305
152 349 324 540 501 555 78 8 92 -4 72 -60 -34 -97 -177 -335 -325 -545 -33
-45 -59 -93 -59 -105 0 -13 12 -34 26 -48 l25 -24 52 28 c63 33 181 118 382
272 82 63 155 115 162 115 26 0 -231 -341 -511 -678 -78 -94 -122 -138 -151
-152 -83 -40 -155 -119 -155 -168 0 -28 42 -62 76 -62 25 0 53 28 224 226 107
124 201 233 207 242 12 14 15 14 35 -5 14 -13 44 -24 78 -28 207 -26 477 -185
822 -482 105 -90 146 -111 163 -82 4 5 -3 37 -15 70 -19 50 -37 73 -109 141
-47 44 -132 115 -187 157 -229 171 -410 241 -629 241 -52 0 -95 2 -95 4 0 3
50 69 110 148 215 278 360 496 360 539 0 53 -101 66 -195 24 -61 -26 -197
-112 -288 -181 -51 -40 -97 -57 -97 -36 0 4 48 93 106 197 98 176 105 193 101
234 -5 48 -31 88 -69 110 -21 12 -35 13 -81 2 -106 -23 -255 -135 -400 -299
-45 -51 -86 -91 -91 -89 -21 7 -32 69 -22 118 8 41 7 60 -11 114 l-21 64 44
26 c107 63 401 193 524 232 124 39 214 41 354 5 127 -33 159 -31 169 8 12 46
-46 73 -196 90 -101 12 -181 11 -227 -2z"/>
</g>
</svg>
