<?xml version="1.0" standalone="no"?>
<!DOCTYPE svg PUBLIC "-//W3C//DTD SVG 20010904//EN"
 "http://www.w3.org/TR/2001/REC-SVG-20010904/DTD/svg10.dtd">
<svg version="1.0" xmlns="http://www.w3.org/2000/svg"
 width="360.000000pt" height="360.000000pt" viewBox="0 0 360.000000 360.000000"
 preserveAspectRatio="xMidYMid meet">
<metadata>
Created by potrace 1.15, written by Peter Selinger 2001-2017
</metadata>
<g transform="translate(0.000000,360.000000) scale(0.100000,-0.100000)"
fill="#000000" stroke="none">
<path d="M1540 2765 c0 -8 12 -17 28 -21 70 -15 94 -29 136 -75 31 -34 51 -70
67 -117 12 -37 22 -68 23 -69 1 -1 18 2 38 8 50 13 98 70 98 114 0 72 -71 116
-250 156 -105 23 -140 24 -140 4z"/>
<path d="M2305 2573 c-200 -25 -601 -158 -973 -322 -98 -43 -147 -50 -240 -32
-39 8 -42 7 -42 -13 0 -13 21 -42 49 -70 l50 -49 102 12 102 13 36 -36 35 -35
-12 -119 c-26 -262 -123 -469 -294 -627 -34 -32 -64 -52 -66 -46 -2 6 8 66 23
132 l27 120 -42 54 c-62 80 -67 83 -96 54 l-24 -24 31 -38 c29 -35 31 -43 26
-90 -5 -52 -81 -298 -119 -386 l-19 -46 30 -27 c58 -52 73 -44 216 107 70 75
133 134 139 132 22 -7 -1 -187 -23 -187 -5 0 -11 -31 -14 -68 -13 -136 -67
-244 -168 -336 -34 -30 -59 -61 -59 -72 0 -11 15 -35 34 -53 33 -32 34 -32 64
-17 17 9 42 31 56 49 83 108 192 460 225 723 17 141 71 269 171 404 78 105 90
113 300 194 180 71 220 83 220 71 0 -2 -104 -147 -231 -321 -220 -302 -230
-318 -224 -351 6 -34 8 -35 43 -30 20 4 68 22 105 42 37 19 73 35 79 35 19 0
2 -75 -35 -152 -20 -40 -63 -115 -96 -166 -34 -51 -61 -102 -61 -112 0 -19 25
-50 39 -50 4 0 38 43 75 96 57 81 70 93 82 83 22 -18 49 -75 69 -142 l16 -57
-60 -82 c-73 -100 -68 -118 19 -71 71 40 110 43 110 11 0 -14 22 -43 61 -80
53 -51 65 -58 100 -58 91 0 124 17 231 119 217 206 327 411 359 668 9 79 9
112 0 150 -17 67 -53 119 -104 145 -38 21 -55 23 -177 22 -157 0 -249 -17
-428 -76 -67 -22 -125 -39 -127 -36 -3 2 39 62 91 134 154 208 244 351 244
388 0 8 -21 29 -46 47 l-46 32 -83 -43 c-46 -23 -101 -56 -122 -74 -28 -25
-54 -36 -100 -44 -95 -17 -169 -57 -250 -139 -43 -43 -81 -73 -93 -73 -11 0
-20 2 -20 4 0 2 9 48 20 101 32 155 26 225 -20 225 -22 0 -50 32 -50 57 0 11
8 27 18 35 9 8 166 74 348 147 l331 133 74 -22 c58 -18 87 -21 137 -16 76 8
139 31 152 57 9 15 2 25 -41 59 -50 40 -61 42 -134 33z m279 -1077 l49 -28 -6
-87 c-16 -232 -117 -435 -313 -629 l-105 -103 -57 3 -57 3 -38 90 c-35 80 -38
92 -26 111 8 12 47 70 88 130 73 108 191 332 212 404 10 31 8 42 -9 76 l-20
38 22 13 c13 8 55 11 116 10 85 -2 100 -5 144 -31z m-387 -28 c21 -12 39 -22
40 -23 10 -5 -38 -139 -78 -220 -52 -108 -170 -275 -193 -275 -21 0 -33 20
-40 70 -4 24 -14 53 -23 62 -15 17 -15 24 0 95 32 148 99 255 182 294 52 24
66 24 112 -3z"/>
</g>
</svg>
