<?xml version="1.0" standalone="no"?>
<!DOCTYPE svg PUBLIC "-//W3C//DTD SVG 20010904//EN"
 "http://www.w3.org/TR/2001/REC-SVG-20010904/DTD/svg10.dtd">
<svg version="1.0" xmlns="http://www.w3.org/2000/svg"
 width="360.000000pt" height="360.000000pt" viewBox="0 0 360.000000 360.000000"
 preserveAspectRatio="xMidYMid meet">
<metadata>
Created by potrace 1.15, written by Peter Selinger 2001-2017
</metadata>
<g transform="translate(0.000000,360.000000) scale(0.100000,-0.100000)"
fill="#000000" stroke="none">
<path d="M1640 2841 c-38 -72 32 -171 133 -187 37 -7 37 -7 37 -54 l0 -47
-302 -132 c-167 -72 -310 -131 -318 -131 -8 0 -29 14 -47 32 -32 31 -33 31
-53 13 -25 -23 -25 -40 0 -75 15 -21 39 -34 92 -50 40 -12 91 -32 114 -45 55
-32 112 -97 119 -137 5 -27 -48 -343 -71 -420 -9 -29 -21 -21 -29 19 -13 69
-97 119 -250 148 -38 8 -70 13 -70 12 0 -1 -6 -12 -12 -24 -7 -13 -13 -29 -13
-37 0 -20 50 -56 138 -100 39 -20 72 -38 72 -41 0 -2 -10 -30 -22 -62 -39
-105 -131 -245 -276 -423 -66 -80 -76 -114 -44 -143 26 -24 50 -21 118 13 59
29 215 157 267 219 l27 33 0 -72 c0 -145 -51 -305 -125 -396 -34 -41 -35 -46
-35 -125 0 -65 4 -88 21 -115 45 -73 77 -36 140 156 36 111 139 510 139 541 0
6 -7 17 -15 23 -14 10 -12 24 20 116 67 191 160 359 266 474 l51 57 35 -21
c19 -11 45 -20 58 -20 33 0 107 30 182 74 34 20 65 36 68 36 25 0 -32 -87
-273 -417 -150 -205 -272 -376 -272 -380 0 -5 10 -21 23 -36 l22 -28 56 20
c31 12 112 53 180 93 187 108 197 113 203 107 10 -10 -23 -118 -58 -188 -42
-83 -135 -207 -210 -281 l-56 -54 22 -23 c12 -13 31 -23 42 -23 42 0 204 175
291 314 39 64 50 92 61 157 31 198 142 309 371 373 205 58 303 105 303 146 0
10 -14 29 -31 41 l-31 22 -95 -32 c-52 -17 -170 -67 -261 -111 -141 -68 -168
-78 -180 -67 -11 12 -11 23 3 76 16 62 16 63 -10 106 -14 24 -25 50 -25 59 0
8 54 79 121 157 102 121 120 147 117 172 -6 58 -21 56 -228 -36 -107 -48 -196
-85 -198 -82 -3 3 3 41 12 85 20 90 17 107 -26 156 -26 29 -36 34 -75 34 -29
0 -53 -7 -68 -19 l-24 -18 35 -33 c29 -29 34 -40 34 -82 0 -41 -6 -54 -42 -99
-24 -29 -90 -95 -148 -148 -105 -96 -105 -96 -108 -66 -2 17 1 71 6 120 9 89
9 91 -22 150 -22 42 -41 64 -63 75 -90 42 1 118 257 213 128 48 459 148 490
149 14 0 59 -3 100 -7 53 -5 96 -2 149 9 111 23 128 49 67 99 -44 34 -50 34
-321 -4 l-220 -30 -40 44 c-25 28 -72 61 -124 88 -46 24 -100 59 -119 77 -19
17 -36 32 -38 32 -2 0 -8 -9 -14 -19z m400 -1189 c0 -5 -5 -34 -11 -65 -9 -42
-9 -60 0 -70 9 -11 -14 -29 -114 -90 -69 -42 -125 -71 -125 -64 0 23 63 113
144 206 71 81 106 108 106 83z"/>
<path d="M2356 1167 c-17 -13 -15 -16 28 -51 34 -29 80 -94 178 -250 72 -116
137 -217 144 -225 10 -11 17 -10 43 8 24 18 31 30 31 57 0 19 -4 42 -9 52 -5
9 -15 39 -22 66 -24 94 -147 222 -307 320 -69 42 -63 40 -86 23z"/>
</g>
</svg>
