<?xml version="1.0" standalone="no"?>
<!DOCTYPE svg PUBLIC "-//W3C//DTD SVG 20010904//EN"
 "http://www.w3.org/TR/2001/REC-SVG-20010904/DTD/svg10.dtd">
<svg version="1.0" xmlns="http://www.w3.org/2000/svg"
 width="360.000000pt" height="360.000000pt" viewBox="0 0 360.000000 360.000000"
 preserveAspectRatio="xMidYMid meet">
<metadata>
Created by potrace 1.15, written by Peter Selinger 2001-2017
</metadata>
<g transform="translate(0.000000,360.000000) scale(0.100000,-0.100000)"
fill="#000000" stroke="none">
<path d="M1580 2697 c0 -21 30 -57 49 -57 9 0 21 -4 27 -9 5 -4 31 -14 58 -20
66 -16 112 -41 170 -92 l48 -43 19 25 c34 44 25 87 -32 152 l-51 57 -144 0
c-110 0 -144 -3 -144 -13z"/>
<path d="M2125 2415 c-99 -21 -238 -71 -445 -159 -107 -46 -240 -98 -295 -116
-99 -31 -118 -33 -202 -15 -31 7 -33 6 -33 -20 0 -67 128 -132 206 -103 29 10
36 9 55 -8 18 -16 20 -25 14 -69 -4 -27 -9 -74 -11 -103 -14 -224 -67 -371
-181 -502 -46 -51 -121 -115 -128 -108 -3 2 5 55 16 116 25 132 20 156 -42
196 -39 26 -129 38 -129 16 0 -5 21 -32 46 -61 43 -48 45 -54 39 -93 -10 -62
-52 -179 -105 -291 -40 -86 -45 -105 -37 -130 13 -40 36 -65 59 -65 10 0 72
52 137 115 103 101 141 130 141 110 0 -11 -81 -330 -85 -333 -2 -3 -18 6 -34
18 -41 28 -65 23 -69 -15 -6 -44 17 -174 38 -222 17 -38 23 -43 53 -43 32 0
34 2 47 53 24 96 180 611 225 744 25 73 64 176 87 229 l41 97 -21 65 c-18 56
-19 67 -7 86 26 40 29 125 7 182 l-21 52 142 80 c158 90 254 136 384 183 81
30 100 33 238 37 83 2 156 9 163 15 10 8 6 17 -20 44 -32 33 -33 33 -122 32
-50 0 -118 -7 -151 -14z"/>
<path d="M2139 2099 c-61 -14 -139 -53 -229 -113 l-85 -57 -60 6 c-56 5 -61 4
-78 -20 -39 -54 7 -97 111 -103 l68 -4 77 61 c68 54 97 71 97 56 0 -12 -89
-204 -150 -325 -125 -245 -259 -417 -340 -435 -27 -6 -30 -10 -30 -45 0 -50
15 -62 62 -46 87 30 232 186 373 399 l38 57 131 0 c101 0 148 -5 203 -20 137
-38 148 -45 184 -116 68 -133 118 -156 177 -82 17 22 32 48 32 58 0 24 -102
116 -182 163 -102 61 -172 78 -345 86 l-152 6 108 205 109 205 -22 37 c-22 40
-32 43 -97 27z"/>
<path d="M2055 1234 c-38 -19 -126 -61 -194 -93 l-124 -58 35 -21 c20 -12 48
-22 63 -22 22 0 140 26 208 46 25 8 24 -65 -3 -99 -11 -14 -20 -30 -20 -36 0
-24 -41 -90 -72 -116 -70 -59 -306 -145 -399 -145 -26 0 -29 -3 -29 -33 0 -22
8 -41 24 -56 l23 -22 390 95 390 95 153 -50 c85 -27 162 -49 171 -49 23 0 49
27 49 50 0 30 -85 115 -139 139 -91 39 -165 43 -288 15 -88 -20 -113 -22 -135
-13 -16 6 -28 15 -28 19 0 3 27 69 60 145 33 76 60 143 60 150 0 19 -85 95
-105 94 -11 0 -51 -16 -90 -35z"/>
</g>
</svg>
