<?xml version="1.0" standalone="no"?>
<!DOCTYPE svg PUBLIC "-//W3C//DTD SVG 20010904//EN"
 "http://www.w3.org/TR/2001/REC-SVG-20010904/DTD/svg10.dtd">
<svg version="1.0" xmlns="http://www.w3.org/2000/svg"
 width="360.000000pt" height="360.000000pt" viewBox="0 0 360.000000 360.000000"
 preserveAspectRatio="xMidYMid meet">
<metadata>
Created by potrace 1.15, written by Peter Selinger 2001-2017
</metadata>
<g transform="translate(0.000000,360.000000) scale(0.100000,-0.100000)"
fill="#000000" stroke="none">
<path d="M1650 2902 c0 -43 4 -52 43 -89 53 -52 108 -80 183 -95 88 -16 86
-15 79 -40 -25 -83 -192 -168 -564 -288 -112 -37 -202 -60 -230 -60 l-46 -1
45 -40 c45 -40 45 -40 110 -35 36 3 83 9 104 13 l39 6 -6 -129 c-11 -241 -68
-419 -190 -592 -45 -65 -166 -196 -173 -189 -3 2 14 55 36 118 45 124 46 148
9 226 -21 44 -47 66 -91 76 -23 6 -29 2 -48 -28 l-22 -35 31 -39 c21 -26 31
-50 31 -72 0 -19 -25 -122 -55 -229 -62 -221 -66 -256 -31 -289 44 -41 60 -29
205 161 75 97 137 175 139 173 3 -2 -134 -440 -164 -524 -3 -11 -7 -12 -16 -3
-9 9 -16 8 -30 -5 -15 -13 -18 -32 -18 -98 0 -74 2 -84 25 -105 14 -13 27 -21
30 -19 2 3 47 96 100 208 86 183 100 221 141 381 87 347 201 627 302 739 l48
54 45 -11 44 -11 195 129 c108 72 201 130 208 130 28 0 9 -55 -50 -144 l-63
-94 -133 -66 -133 -66 22 -31 c21 -30 23 -31 78 -24 31 4 60 8 66 8 5 1 11 -7
13 -18 2 -16 -17 -30 -100 -74 -132 -69 -237 -137 -245 -157 -3 -9 6 -28 26
-48 l32 -33 -54 -399 -55 -399 21 -23 c15 -16 30 -22 52 -20 l30 3 6 110 c10
157 33 232 58 188 27 -47 23 -47 139 11 l112 56 14 -23 c18 -28 33 -90 42
-184 14 -151 69 -57 86 146 l11 127 138 86 139 85 -23 20 -22 21 -117 -33
-118 -32 0 47 c0 58 32 124 99 205 28 33 51 68 51 78 0 21 -38 37 -91 37 l-39
0 0 51 c0 28 4 58 10 68 12 23 88 56 166 72 75 15 103 6 159 -51 l39 -40 22
-487 c18 -384 21 -499 12 -541 l-11 -53 -76 75 c-103 103 -114 101 -86 -8 22
-82 77 -184 135 -247 l50 -54 29 32 c49 53 63 116 68 313 3 96 0 199 -5 229
-7 38 -7 60 1 72 8 13 8 24 -1 41 -17 34 -36 568 -22 637 5 29 10 59 10 65 0
16 -117 92 -164 106 -39 12 -169 9 -273 -6 -42 -6 -42 -6 -64 39 l-22 45 102
132 c56 73 105 138 108 146 3 7 -10 32 -27 54 l-33 41 -56 -6 c-67 -8 -182
-40 -233 -66 -20 -10 -62 -39 -92 -64 -31 -25 -66 -45 -78 -45 -51 -1 -164
-68 -251 -149 -26 -24 -49 -42 -51 -40 -6 7 -46 210 -46 235 0 32 65 79 205
149 133 66 256 111 451 165 159 43 192 46 358 29 l108 -12 30 31 30 30 -18 31
-18 31 -111 0 c-154 0 -325 -23 -406 -55 -12 -4 -20 7 -34 55 -10 33 -23 64
-30 70 -11 9 -372 180 -380 180 -3 0 -5 -22 -5 -48z m388 -1229 l-3 -67 -92
-71 c-66 -51 -92 -76 -92 -92 -1 -19 4 -23 29 -23 17 0 48 9 70 20 76 39 89
19 41 -65 -43 -74 -262 -318 -275 -304 -7 7 43 504 51 507 5 1 64 38 133 82
69 43 129 79 133 79 4 1 7 -29 5 -66z"/>
</g>
</svg>
