<?xml version="1.0" standalone="no"?>
<!DOCTYPE svg PUBLIC "-//W3C//DTD SVG 20010904//EN"
 "http://www.w3.org/TR/2001/REC-SVG-20010904/DTD/svg10.dtd">
<svg version="1.0" xmlns="http://www.w3.org/2000/svg"
 width="360.000000pt" height="360.000000pt" viewBox="0 0 360.000000 360.000000"
 preserveAspectRatio="xMidYMid meet">
<metadata>
Created by potrace 1.15, written by Peter Selinger 2001-2017
</metadata>
<g transform="translate(0.000000,360.000000) scale(0.100000,-0.100000)"
fill="#000000" stroke="none">
<path d="M1400 2777 c0 -18 31 -50 120 -127 68 -58 120 -110 118 -118 -8 -40
-266 -164 -473 -227 -125 -39 -181 -46 -252 -32 -40 8 -43 7 -43 -13 0 -61 45
-80 194 -80 l99 0 -7 -127 c-17 -317 -70 -507 -166 -603 -41 -41 -88 -55 -76
-23 4 9 9 65 13 124 9 160 -23 229 -105 229 -19 0 -32 -3 -30 -7 2 -5 21 -42
42 -83 l38 -76 -86 -274 c-47 -151 -86 -282 -86 -291 0 -9 9 -24 21 -35 21
-19 21 -18 37 2 40 48 235 264 239 264 8 0 -7 -89 -33 -189 -32 -122 -82 -228
-133 -284 -39 -42 -41 -48 -41 -105 0 -58 1 -61 34 -81 43 -27 72 -27 87 1 6
12 29 67 50 122 21 56 44 102 52 104 8 2 34 -14 58 -34 58 -49 106 -78 150
-93 32 -10 55 -8 170 18 175 38 342 93 403 131 41 27 55 30 88 25 23 -4 44
-15 51 -27 32 -52 260 -182 445 -252 117 -45 450 -136 497 -136 15 0 1 49 -25
90 l-31 48 -182 62 c-314 107 -709 292 -690 323 3 7 24 38 45 69 l38 57 0 130
0 129 -42 31 c-60 44 -98 41 -208 -14 -49 -25 -92 -45 -95 -45 -3 0 -5 13 -5
28 0 20 13 40 43 70 l43 43 51 -12 c67 -16 95 -7 154 48 63 59 134 198 190
372 29 94 39 141 37 177 -3 48 -4 49 -57 77 -30 15 -66 27 -81 27 -22 0 -102
-21 -211 -55 -14 -5 -25 19 -58 126 -23 72 -40 137 -37 144 9 25 127 57 231
62 80 4 116 1 180 -16 l80 -20 22 21 c33 30 29 48 -20 96 -38 37 -48 42 -89
42 -26 0 -50 -5 -54 -11 -5 -8 -8 -8 -13 0 -5 7 -45 8 -136 1 -201 -15 -215
-14 -215 11 0 63 -87 132 -228 179 -108 36 -112 36 -112 7z m281 -438 c19 -39
21 -54 17 -223 -3 -163 -6 -186 -26 -231 -56 -121 -153 -162 -221 -91 l-33 34
76 113 c43 65 76 124 76 138 0 35 -57 91 -91 91 -27 0 -28 -1 -22 -54 7 -69
-20 -132 -104 -236 l-60 -76 48 -52 c66 -72 82 -126 77 -255 -4 -122 -21 -160
-85 -191 -23 -12 -41 -25 -39 -31 1 -5 104 -71 229 -145 125 -74 227 -140 227
-147 0 -6 -48 -30 -107 -53 -60 -22 -119 -45 -132 -51 -47 -20 -235 -69 -263
-69 -16 0 -45 9 -66 19 -45 23 -132 109 -132 130 0 9 48 212 106 451 l106 434
-22 133 c-12 73 -19 146 -15 163 8 38 69 98 136 135 58 31 253 104 281 104 11
1 26 -15 39 -40z m394 -316 c-14 -131 -67 -249 -137 -308 -51 -43 -116 -77
-142 -73 -24 3 -21 7 49 93 73 88 82 106 69 140 -9 22 -57 45 -94 45 -28 0
-30 2 -30 38 0 25 7 45 19 56 20 19 188 65 239 66 l33 0 -6 -57z m-448 -379
c4 -13 -93 -94 -113 -94 -15 0 -18 27 -7 55 7 19 80 56 102 52 8 -1 16 -7 18
-13z m293 -340 c0 -3 -14 -54 -32 -115 -37 -128 -43 -132 -132 -71 -47 31 -55
42 -56 68 0 20 9 39 25 54 35 33 195 86 195 64z"/>
</g>
</svg>
