<?xml version="1.0" standalone="no"?>
<!DOCTYPE svg PUBLIC "-//W3C//DTD SVG 20010904//EN"
 "http://www.w3.org/TR/2001/REC-SVG-20010904/DTD/svg10.dtd">
<svg version="1.0" xmlns="http://www.w3.org/2000/svg"
 width="360.000000pt" height="360.000000pt" viewBox="0 0 360.000000 360.000000"
 preserveAspectRatio="xMidYMid meet">
<metadata>
Created by potrace 1.15, written by Peter Selinger 2001-2017
</metadata>
<g transform="translate(0.000000,360.000000) scale(0.100000,-0.100000)"
fill="#000000" stroke="none">
<path d="M1905 2645 c-22 -8 -41 -15 -41 -15 -1 0 -5 -7 -8 -17 -4 -10 2 -25
15 -40 20 -20 32 -23 101 -23 43 0 78 -2 78 -4 0 -3 -4 -17 -10 -31 -14 -37 6
-115 30 -115 26 0 82 41 108 80 47 70 40 121 -21 153 -52 26 -195 34 -252 12z"/>
<path d="M1182 2428 c3 -7 13 -43 23 -80 l18 -67 -34 -58 c-19 -31 -70 -94
-113 -140 -77 -81 -79 -84 -61 -103 29 -32 59 -24 137 38 97 77 154 142 184
205 35 76 32 99 -23 163 -44 50 -51 54 -92 54 -30 0 -42 -4 -39 -12z"/>
<path d="M2245 2216 c-101 -46 -282 -168 -479 -322 -44 -35 -83 -61 -87 -58
-4 2 -10 25 -14 50 l-7 46 -34 -33 c-49 -47 -48 -92 4 -142 61 -59 81 -54 225
58 67 52 125 95 130 95 19 0 1 -37 -68 -139 -83 -123 -143 -237 -174 -329 -30
-88 -27 -119 14 -167 l34 -40 168 168 c187 186 213 201 213 124 0 -52 -34
-157 -83 -252 -58 -114 -42 -107 -187 -85 -69 11 -155 20 -192 20 -82 0 -111
-21 -154 -110 -29 -60 -50 -74 -73 -47 -7 9 -7 17 0 24 7 7 7 23 -1 52 -8 30
-8 58 1 105 8 49 8 74 -1 100 -10 31 -8 39 16 78 27 42 27 43 12 99 -13 47
-13 60 -2 80 17 32 18 84 0 98 -12 10 -9 29 15 124 29 116 30 155 3 209 -19
37 -43 48 -107 48 -50 0 -57 -3 -81 -34 -14 -19 -60 -53 -101 -76 -41 -23 -75
-47 -75 -54 0 -17 43 -56 61 -56 8 0 48 20 88 45 83 51 107 57 97 23 -4 -13
-9 -96 -13 -186 -4 -112 -10 -165 -19 -173 -9 -7 -27 -3 -66 17 -57 30 -114
35 -205 21 l-53 -9 0 67 c0 78 -13 107 -74 163 -66 61 -111 67 -140 18 -8 -14
-8 -20 2 -23 31 -12 71 -56 90 -101 34 -78 53 -212 59 -412 5 -176 5 -187 -17
-237 -12 -29 -28 -58 -36 -64 -10 -8 -14 -36 -14 -99 0 -74 3 -92 23 -121 17
-26 31 -35 57 -37 35 -3 38 0 195 200 l160 203 3 -39 c3 -31 -2 -44 -23 -66
-25 -26 -26 -30 -15 -71 28 -109 48 -139 96 -139 30 0 34 4 43 37 6 21 11 55
11 76 0 34 2 37 28 37 20 0 55 -24 132 -90 77 -66 112 -89 133 -90 21 0 52 19
110 65 45 36 106 78 136 92 l53 26 45 -24 c86 -47 219 -155 353 -286 107 -106
140 -133 162 -133 26 0 28 3 28 44 0 38 -8 55 -61 126 -122 165 -272 304 -394
365 -33 17 -62 31 -64 32 -2 1 13 28 32 60 61 100 147 332 147 394 0 49 -94
159 -136 159 -13 0 -66 -37 -128 -90 -59 -49 -111 -90 -117 -90 -5 0 -9 7 -9
15 0 8 99 159 221 335 183 265 219 323 209 335 -17 20 -46 18 -105 -9z m-1025
-737 c0 -28 -109 -154 -122 -141 -5 5 -12 44 -15 86 l-6 76 72 0 c66 0 71 -2
71 -21z m156 -96 c5 -49 3 -68 -5 -71 -23 -8 -191 -206 -203 -239 -10 -27 -17
-33 -40 -33 -26 0 -28 3 -28 43 0 51 33 125 87 192 48 60 161 175 173 175 5 0
12 -30 16 -67z m469 -302 l100 -16 -85 -61 c-47 -33 -90 -64 -96 -67 -6 -3
-43 9 -82 28 l-71 34 15 38 c31 74 31 74 77 66 23 -3 87 -14 142 -22z m-792
-113 c-18 -18 -36 -29 -39 -25 -10 10 36 57 55 57 11 0 6 -10 -16 -32z"/>
<path d="M2447 1832 c-10 -10 -17 -26 -17 -36 0 -17 243 -328 262 -335 18 -6
78 62 78 89 0 37 -66 136 -127 190 -41 38 -157 110 -175 110 -3 0 -12 -8 -21
-18z"/>
</g>
</svg>
