<?xml version="1.0" standalone="no"?>
<!DOCTYPE svg PUBLIC "-//W3C//DTD SVG 20010904//EN"
 "http://www.w3.org/TR/2001/REC-SVG-20010904/DTD/svg10.dtd">
<svg version="1.0" xmlns="http://www.w3.org/2000/svg"
 width="360.000000pt" height="360.000000pt" viewBox="0 0 360.000000 360.000000"
 preserveAspectRatio="xMidYMid meet">
<metadata>
Created by potrace 1.15, written by Peter Selinger 2001-2017
</metadata>
<g transform="translate(0.000000,360.000000) scale(0.100000,-0.100000)"
fill="#000000" stroke="none">
<path d="M1865 2786 c-22 -6 -39 -15 -37 -19 1 -4 2 -14 2 -22 0 -8 18 -24 41
-35 22 -12 39 -27 36 -33 -3 -7 -58 -135 -123 -284 -104 -243 -116 -276 -106
-298 25 -55 148 -18 330 98 40 26 74 47 77 47 3 0 -1 -16 -9 -35 -15 -36 -74
-114 -145 -195 -35 -39 -40 -51 -41 -92 0 -60 24 -88 75 -88 74 0 33 -65 -168
-267 -220 -222 -315 -289 -462 -328 -45 -11 -67 -12 -98 -4 -33 9 -41 8 -52
-7 -11 -15 -8 -24 16 -57 16 -22 42 -81 58 -131 28 -88 66 -264 59 -271 -8 -8
-544 -165 -564 -165 -13 0 -29 9 -36 20 -11 18 -14 18 -30 3 -27 -24 -22 -43
23 -96 39 -45 43 -47 92 -47 40 0 93 16 237 71 165 64 236 84 660 185 464 111
478 114 590 114 215 0 406 -38 503 -100 53 -33 116 -40 137 -15 17 21 6 82
-21 111 -60 64 -297 120 -586 140 -85 6 -103 10 -103 23 0 23 45 98 134 224
42 60 76 116 76 124 0 23 -76 110 -128 145 l-45 31 -110 -7 c-136 -9 -210 -22
-261 -47 -75 -36 -82 -45 233 296 61 66 111 123 111 127 0 3 -19 20 -42 37
-36 27 -50 31 -105 31 -44 0 -63 4 -63 13 1 6 84 100 185 207 102 107 185 203
185 213 0 10 -5 27 -11 39 -9 17 -17 19 -47 13 -90 -17 -251 -91 -403 -185
-107 -67 -117 -65 -79 11 34 67 107 241 145 348 23 62 24 75 13 98 -11 23 -81
74 -98 72 -3 0 -23 -6 -45 -13z m389 -1400 l30 -23 -20 -29 c-11 -16 -41 -73
-68 -126 -83 -168 -206 -278 -309 -278 -21 0 -37 3 -35 8 2 4 23 48 48 97 48
97 55 147 38 276 l-8 57 123 20 c161 26 167 26 201 -2z m-419 -100 c41 -75
-17 -252 -117 -361 -73 -80 -89 -75 -105 30 -8 57 -9 98 -1 143 5 34 7 73 4
86 -5 19 1 30 27 52 32 27 142 84 163 84 6 0 19 -15 29 -34z m-315 -281 l0
-175 -24 0 c-53 0 -144 126 -153 212 -4 45 -2 57 18 82 27 35 72 55 122 56
l37 0 0 -175z"/>
<path d="M1357 2704 c-22 -29 -22 -30 62 -116 l54 -57 -6 -223 c-11 -363 -39
-655 -68 -711 -10 -18 -7 -24 22 -49 49 -40 67 -43 94 -18 22 21 23 28 27 218
3 154 8 207 21 244 15 41 16 57 6 113 -10 56 -8 93 11 245 12 99 19 191 16
205 -11 43 -63 91 -144 133 l-77 40 -18 -24z"/>
<path d="M975 2258 c3 -18 29 -79 57 -135 41 -84 48 -105 38 -118 -9 -11 -10
-51 -1 -184 6 -93 11 -209 11 -258 0 -81 2 -92 23 -111 26 -24 78 -29 95 -9 8
9 8 65 2 187 -5 96 -10 248 -10 337 l0 161 -76 81 c-67 71 -80 81 -111 81 -34
0 -34 -1 -28 -32z"/>
</g>
</svg>
