<?xml version="1.0" standalone="no"?>
<!DOCTYPE svg PUBLIC "-//W3C//DTD SVG 20010904//EN"
 "http://www.w3.org/TR/2001/REC-SVG-20010904/DTD/svg10.dtd">
<svg version="1.0" xmlns="http://www.w3.org/2000/svg"
 width="360.000000pt" height="360.000000pt" viewBox="0 0 360.000000 360.000000"
 preserveAspectRatio="xMidYMid meet">
<metadata>
Created by potrace 1.15, written by Peter Selinger 2001-2017
</metadata>
<g transform="translate(0.000000,360.000000) scale(0.100000,-0.100000)"
fill="#000000" stroke="none">
<path d="M1842 2538 c17 -46 36 -98 42 -117 9 -25 22 -38 44 -45 18 -6 55 -28
83 -49 58 -43 96 -47 127 -14 58 62 -14 150 -134 165 l-59 7 -27 57 c-27 57
-50 78 -87 78 -19 0 -18 -4 11 -82z"/>
<path d="M1036 2323 c-117 -54 -120 -54 -163 -42 -62 17 -78 0 -38 -41 38 -40
66 -39 248 10 81 22 156 40 166 40 29 0 39 -54 24 -135 -11 -67 -54 -428 -68
-582 -7 -75 -12 -81 -45 -61 -15 10 -37 8 -112 -10 -155 -37 -154 -44 -17 143
81 110 119 171 117 185 -2 16 -19 27 -68 44 -105 36 -189 86 -260 154 -35 34
-68 62 -72 62 -20 0 7 -118 51 -219 l29 -66 -23 -260 c-14 -168 -19 -267 -13
-278 6 -12 6 -28 -1 -45 -14 -34 -31 -244 -30 -377 0 -117 13 -163 52 -185
l27 -15 123 130 c67 72 148 157 179 190 l58 60 -7 -45 c-15 -86 -8 -251 13
-304 24 -63 45 -77 74 -51 20 18 21 29 21 180 0 240 19 385 51 385 15 0 8 19
-22 62 l-29 43 9 235 c13 339 48 547 108 645 32 52 1 109 -95 176 -36 25 -51
29 -105 28 -54 -1 -79 -8 -182 -56z m12 -525 l21 -32 -72 -53 c-40 -29 -75
-52 -79 -53 -5 0 -8 24 -8 53 l0 52 53 32 c28 18 55 32 59 33 3 0 15 -14 26
-32z m32 -392 c23 -28 -106 -257 -162 -287 -27 -14 -35 -2 -43 70 -7 69 21
155 62 188 45 37 123 52 143 29z m133 -152 c2 -80 1 -82 -38 -140 -39 -57
-247 -271 -293 -302 -12 -8 -26 -12 -29 -8 -19 18 210 423 310 550 l31 39 8
-29 c5 -16 10 -66 11 -110z"/>
<path d="M2504 2095 c-103 -22 -299 -83 -499 -155 -218 -78 -606 -228 -617
-239 -14 -13 44 -81 68 -81 37 0 157 47 339 132 96 45 179 78 192 76 l23 -3
-21 -40 c-30 -55 -120 -174 -263 -343 -149 -177 -140 -164 -133 -194 8 -29 66
-68 101 -68 50 0 151 58 261 149 27 23 51 37 53 32 2 -5 -24 -44 -56 -88 -156
-206 -292 -428 -292 -475 0 -21 51 -58 82 -58 13 0 54 26 100 63 98 79 210
147 329 198 102 44 214 77 225 67 4 -4 21 -81 39 -170 27 -130 32 -172 25
-208 -15 -76 -13 -85 30 -115 l41 -28 35 34 36 34 -7 105 c-7 117 -25 208 -57
290 -32 83 -107 205 -164 268 -43 48 -54 55 -66 44 -14 -11 -13 -22 7 -101
l22 -88 -61 -6 c-70 -7 -139 -29 -266 -86 -99 -45 -110 -48 -110 -27 0 8 108
156 240 330 199 263 239 321 234 341 -3 13 -13 26 -22 30 -10 4 -107 -55 -279
-170 -145 -96 -263 -169 -263 -162 0 7 31 50 69 95 152 178 216 274 234 349 9
36 20 53 46 70 62 42 171 66 370 82 100 8 117 7 188 -14 l78 -23 23 22 c29 28
22 67 -15 91 -77 51 -184 65 -299 40z"/>
</g>
</svg>
