<?xml version="1.0" standalone="no"?>
<!DOCTYPE svg PUBLIC "-//W3C//DTD SVG 20010904//EN"
 "http://www.w3.org/TR/2001/REC-SVG-20010904/DTD/svg10.dtd">
<svg version="1.0" xmlns="http://www.w3.org/2000/svg"
 width="360.000000pt" height="360.000000pt" viewBox="0 0 360.000000 360.000000"
 preserveAspectRatio="xMidYMid meet">
<metadata>
Created by potrace 1.15, written by Peter Selinger 2001-2017
</metadata>
<g transform="translate(0.000000,360.000000) scale(0.100000,-0.100000)"
fill="#000000" stroke="none">
<path d="M2032 2417 l-272 -81 32 -33 c44 -45 78 -44 283 13 l167 46 24 -23
c21 -20 27 -21 62 -11 66 20 107 53 110 90 3 30 0 34 -40 52 -24 10 -54 21
-68 24 -15 3 -134 -28 -298 -77z"/>
<path d="M1093 2340 c-126 -60 -143 -72 -143 -93 0 -37 30 -57 85 -57 43 0 55
6 120 55 77 59 93 65 117 38 14 -16 14 -36 -5 -210 l-21 -193 -42 0 c-72 0
-217 30 -270 55 -82 40 -86 37 -63 -42 21 -76 23 -105 9 -131 -7 -13 -51 -874
-50 -984 0 -24 61 -58 103 -58 34 0 41 7 168 170 72 94 135 170 139 170 8 0
30 -121 23 -132 -2 -5 -22 -8 -44 -8 l-41 0 7 -42 c13 -83 48 -199 69 -231 12
-17 34 -36 49 -41 22 -8 31 -6 52 14 23 22 25 31 25 109 0 47 -5 167 -10 266
l-11 181 106 216 c58 119 105 220 105 225 0 4 -43 -35 -95 -87 l-95 -95 0 132
c0 79 -4 134 -10 138 -6 4 -7 12 -3 18 4 7 19 129 33 271 l26 259 -38 59 c-40
62 -88 98 -128 97 -14 0 -89 -31 -167 -69z m17 -555 c0 -41 -24 -88 -64 -123
-20 -17 -41 -32 -47 -32 -18 0 10 138 34 168 5 6 25 12 43 12 30 0 34 -3 34
-25z m160 -164 c0 -113 -6 -119 -94 -103 -35 7 -77 12 -95 12 -17 0 -31 3 -31
8 0 4 39 56 87 116 l86 109 24 -27 c20 -24 23 -37 23 -115z m-203 -192 c59
-10 63 -13 63 -38 0 -45 -28 -126 -51 -147 -12 -10 -34 -44 -49 -75 -16 -30
-35 -61 -44 -68 -14 -12 -16 3 -16 156 0 93 3 173 7 176 9 9 16 9 90 -4z m189
-123 c6 -33 1 -41 -82 -134 -50 -55 -90 -93 -92 -86 -7 27 136 253 160 254 4
0 10 -16 14 -34z"/>
<path d="M2312 2110 c-65 -23 -172 -81 -310 -167 l-102 -65 21 -29 c11 -16 24
-29 28 -29 7 0 128 41 164 55 15 7 17 -1 17 -87 l0 -93 -105 -105 c-111 -110
-122 -132 -90 -177 16 -23 93 -55 158 -67 20 -4 37 -11 37 -17 0 -34 -94 -139
-177 -198 -18 -12 -33 -31 -33 -40 0 -44 19 -43 251 12 151 36 229 50 239 44
30 -18 153 32 167 69 4 10 -7 29 -30 52 l-36 36 -116 -27 c-88 -21 -120 -25
-135 -17 -11 6 -20 13 -20 16 0 3 54 84 119 180 102 150 118 179 112 201 -13
48 -53 68 -147 72 l-84 3 0 119 0 119 26 0 c72 0 154 53 154 99 0 15 -39 62
-51 61 -2 -1 -28 -9 -57 -20z m-2 -510 c0 -35 -69 -140 -91 -140 -5 0 -9 19
-9 42 0 34 6 49 32 75 31 32 68 44 68 23z"/>
<path d="M1590 2000 c-11 -11 -20 -27 -20 -35 0 -23 46 -65 70 -65 24 0 23 13
9 -176 -9 -113 -9 -169 0 -217 8 -47 8 -79 1 -112 -8 -35 -8 -51 1 -62 9 -10
9 -17 1 -25 -9 -9 -12 -100 -12 -318 0 -338 -4 -318 64 -352 27 -14 36 -13
145 23 288 93 561 121 771 78 124 -25 150 -19 150 35 0 29 -8 42 -52 80 l-53
46 -118 0 c-99 0 -166 -9 -420 -54 -166 -30 -313 -56 -327 -58 -24 -3 -25 0
-36 82 -16 113 -17 504 -2 587 10 53 9 66 -2 73 -11 7 -11 20 3 81 11 51 13
77 5 86 -6 8 -7 35 -2 75 17 126 -9 184 -103 232 -41 21 -49 20 -73 -4z"/>
</g>
</svg>
