<?xml version="1.0" standalone="no"?>
<!DOCTYPE svg PUBLIC "-//W3C//DTD SVG 20010904//EN"
 "http://www.w3.org/TR/2001/REC-SVG-20010904/DTD/svg10.dtd">
<svg version="1.0" xmlns="http://www.w3.org/2000/svg"
 width="360.000000pt" height="360.000000pt" viewBox="0 0 360.000000 360.000000"
 preserveAspectRatio="xMidYMid meet">
<metadata>
Created by potrace 1.15, written by Peter Selinger 2001-2017
</metadata>
<g transform="translate(0.000000,360.000000) scale(0.100000,-0.100000)"
fill="#000000" stroke="none">
<path d="M2230 2979 c-115 -19 -231 -83 -413 -228 -61 -49 -70 -53 -92 -43
-16 8 -25 20 -25 35 0 36 -20 87 -34 87 -27 0 -46 -36 -46 -88 0 -96 34 -145
115 -163 l52 -11 124 124 c134 135 216 188 289 188 68 0 69 -19 7 -113 -149
-224 -465 -457 -809 -597 -54 -22 -59 -22 -76 -7 -24 22 -32 21 -32 -1 0 -12
18 -29 49 -46 47 -25 53 -26 98 -15 52 13 223 83 315 130 32 16 61 29 66 29 5
0 17 -18 27 -40 19 -41 32 -49 53 -28 9 9 12 9 12 0 0 -41 -83 -108 -219 -176
l-73 -37 -22 20 c-12 12 -29 21 -37 21 -17 0 -129 -122 -129 -140 0 -20 40
-70 56 -70 8 0 82 34 164 75 82 41 154 75 160 75 19 0 10 -47 -20 -93 -58 -92
-226 -201 -472 -306 -80 -35 -100 -40 -116 -30 -15 9 -24 8 -45 -6 -15 -9 -27
-20 -27 -24 0 -4 21 -31 48 -60 l47 -53 48 11 c65 15 175 68 271 131 43 28 80
49 83 46 9 -9 -124 -253 -202 -371 -101 -154 -214 -293 -347 -431 -115 -118
-127 -144 -69 -144 24 0 49 18 125 89 212 200 406 426 556 651 24 36 45 67 47
69 2 3 8 0 13 -5 6 -6 -5 -124 -30 -327 -38 -301 -40 -320 -24 -352 9 -19 31
-45 49 -59 l33 -25 233 100 234 100 22 -25 c27 -32 39 -105 26 -162 -9 -40 -7
-49 33 -130 23 -47 55 -99 70 -115 35 -37 81 -39 113 -5 30 32 62 120 66 182
2 29 8 62 15 74 6 12 14 54 17 93 7 91 -13 394 -30 467 -10 44 -11 65 -1 102
9 35 9 62 -1 117 -9 55 -9 75 0 88 17 23 1 98 -31 146 -34 51 -107 97 -156 97
-73 0 -257 -79 -450 -193 -65 -38 -77 -42 -105 -33 -93 26 22 163 220 260 134
66 386 154 395 138 5 -7 27 -7 72 1 l65 12 3 41 c2 25 -2 45 -10 52 -10 8 -87
-8 -303 -64 -160 -40 -295 -74 -302 -74 -7 0 -4 21 10 65 21 64 22 65 71 81
92 31 239 93 257 110 19 17 28 104 11 104 -4 0 -62 -18 -127 -40 -65 -22 -121
-40 -123 -40 -2 0 -2 19 0 42 3 40 7 46 70 89 37 25 126 76 199 114 l131 67
-4 50 c-8 76 -15 78 -121 40 -88 -31 -127 -39 -127 -26 0 3 41 58 90 123 74
96 90 124 90 152 0 66 -87 122 -170 108z m179 -1313 c22 -47 39 -193 51 -424
11 -242 13 -585 4 -595 -4 -3 -15 -2 -24 3 -12 6 -20 28 -25 67 -9 77 -40 174
-66 207 -19 24 -27 26 -89 26 -38 0 -109 -9 -157 -20 -48 -12 -93 -19 -100
-18 -8 2 63 70 158 153 l171 149 -26 23 c-33 28 -34 28 -141 3 -96 -22 -115
-24 -115 -11 0 5 41 58 92 117 l91 107 -18 33 c-13 24 -25 34 -41 34 -37 0
-117 -35 -216 -95 -50 -30 -93 -55 -95 -55 -1 0 -3 13 -3 29 0 34 26 57 161
144 105 68 196 114 269 138 74 25 102 21 119 -15z m-409 -345 c0 -12 -156
-151 -169 -151 -6 0 -11 13 -11 29 0 36 52 84 121 112 51 21 59 22 59 10z
m-84 -346 c-50 -47 -96 -85 -103 -85 -9 0 -13 18 -13 64 l0 63 49 7 c27 4 67
13 88 21 72 26 68 14 -21 -70z"/>
</g>
</svg>
