<?xml version="1.0" standalone="no"?>
<!DOCTYPE svg PUBLIC "-//W3C//DTD SVG 20010904//EN"
 "http://www.w3.org/TR/2001/REC-SVG-20010904/DTD/svg10.dtd">
<svg version="1.0" xmlns="http://www.w3.org/2000/svg"
 width="360.000000pt" height="360.000000pt" viewBox="0 0 360.000000 360.000000"
 preserveAspectRatio="xMidYMid meet">
<metadata>
Created by potrace 1.15, written by Peter Selinger 2001-2017
</metadata>
<g transform="translate(0.000000,360.000000) scale(0.100000,-0.100000)"
fill="#000000" stroke="none">
<path d="M1917 2772 c-19 -21 -22 -63 -6 -79 15 -15 -137 -129 -239 -180 -69
-34 -72 -37 -59 -57 11 -15 27 -22 60 -24 43 -3 56 3 177 80 145 92 238 161
247 184 3 9 -11 29 -38 54 -36 32 -52 39 -85 40 -27 0 -46 -6 -57 -18z"/>
<path d="M1072 2540 c-81 -29 -221 -121 -222 -146 -1 -35 29 -30 174 27 82 32
150 59 152 59 9 0 22 -75 15 -84 -5 -6 -14 -91 -21 -189 l-13 -179 -26 6 c-14
3 -68 9 -118 13 l-93 6 0 31 c-1 46 -32 107 -75 145 -36 31 -91 61 -114 61 -5
0 3 -29 20 -65 27 -61 29 -72 28 -192 0 -71 -4 -195 -8 -278 -6 -99 -5 -164 2
-191 9 -34 4 -86 -22 -275 l-32 -234 22 -53 c14 -33 28 -52 38 -52 61 1 163
90 221 194 27 48 36 56 61 56 25 0 29 -4 34 -37 12 -79 36 -169 54 -203 23
-44 63 -53 90 -19 16 20 19 48 24 219 5 187 17 274 47 330 9 17 12 17 69 -1
55 -17 65 -17 117 -3 31 8 109 41 173 74 65 33 121 60 124 60 17 0 4 -54 -27
-113 -43 -82 -124 -191 -235 -313 -47 -52 -106 -118 -130 -145 l-44 -50 24
-25 25 -25 85 75 c90 79 175 170 309 331 45 55 86 104 91 109 5 6 17 2 29 -9
19 -18 20 -29 20 -367 l0 -348 -35 0 c-23 0 -35 5 -35 13 0 25 -57 93 -126
152 -63 53 -69 56 -72 36 -4 -24 234 -449 256 -458 17 -7 50 24 76 72 20 38
21 55 24 385 l3 345 26 28 c15 15 36 27 48 27 52 0 532 -161 672 -225 l73 -34
20 26 c27 35 25 47 -12 79 -70 59 -256 129 -543 204 -124 33 -159 39 -171 29
-8 -6 -14 -7 -14 -2 0 5 -17 15 -39 21 -21 7 -44 18 -50 26 -8 9 -11 57 -9
146 l3 133 36 29 c29 23 61 35 151 54 213 45 262 73 207 115 -33 25 -63 24
-234 -11 -81 -16 -152 -30 -157 -30 -5 0 -8 26 -6 57 l3 58 180 138 180 137
-3 58 c-1 31 -10 73 -20 92 l-17 35 -80 3 c-129 5 -190 -23 -332 -152 -80 -74
-123 -88 -123 -40 0 23 -3 25 -37 22 -34 -3 -38 -6 -41 -32 -5 -45 26 -113 65
-143 l34 -26 122 120 c172 169 178 173 243 173 66 0 76 -15 48 -69 -24 -46
-193 -214 -312 -311 -84 -67 -93 -78 -90 -105 2 -24 9 -32 36 -40 52 -15 44
-48 -20 -85 -180 -104 -432 -220 -479 -220 -26 0 -87 56 -110 102 -20 38 -20
40 -2 53 16 12 16 17 4 62 -16 59 -16 57 0 116 11 40 11 51 0 69 -10 16 -10
23 -2 26 7 2 11 37 11 99 0 79 23 261 45 360 4 19 -6 28 -63 63 -78 46 -117
50 -200 20z m-82 -576 c0 -15 -66 -124 -76 -124 -5 0 -19 6 -29 14 -18 13 -17
16 24 65 24 29 51 51 62 51 10 0 19 -3 19 -6z m161 -15 c22 -41 31 -150 18
-219 -7 -36 -14 -67 -15 -68 -1 -2 -29 8 -62 23 -57 26 -61 26 -91 11 -31 -16
-32 -16 -55 11 l-24 28 42 60 c48 69 147 175 164 175 6 0 16 -9 23 -21z m5
-475 c-19 -42 -53 -84 -124 -154 -53 -53 -112 -106 -129 -119 l-33 -22 0 35
c0 28 22 67 109 198 60 90 124 179 142 198 l33 35 14 -57 c13 -55 13 -59 -12
-114z m-189 74 c-7 -52 -36 -92 -70 -96 -25 -3 -27 -1 -27 37 0 36 5 43 43 70
23 17 46 30 51 31 5 0 6 -19 3 -42z"/>
<path d="M1430 2146 c0 -32 53 -177 88 -241 25 -46 30 -50 69 -53 32 -2 46 2
62 19 23 25 44 111 39 161 -3 28 -7 33 -28 32 -14 0 -35 -3 -47 -7 -17 -6 -35
4 -91 53 -38 33 -75 60 -81 60 -6 0 -11 -11 -11 -24z"/>
</g>
</svg>
