<?xml version="1.0" standalone="no"?>
<!DOCTYPE svg PUBLIC "-//W3C//DTD SVG 20010904//EN"
 "http://www.w3.org/TR/2001/REC-SVG-20010904/DTD/svg10.dtd">
<svg version="1.0" xmlns="http://www.w3.org/2000/svg"
 width="360.000000pt" height="360.000000pt" viewBox="0 0 360.000000 360.000000"
 preserveAspectRatio="xMidYMid meet">
<metadata>
Created by potrace 1.15, written by Peter Selinger 2001-2017
</metadata>
<g transform="translate(0.000000,360.000000) scale(0.100000,-0.100000)"
fill="#000000" stroke="none">
<path d="M2193 2790 c-13 -15 -23 -31 -23 -35 0 -4 18 -24 40 -44 l41 -36 -19
-128 c-13 -90 -25 -136 -39 -154 -29 -39 -116 -97 -210 -139 l-81 -36 -30 20
c-28 21 -29 24 -35 129 -12 220 -52 315 -141 330 -32 5 -36 3 -36 -17 0 -12
23 -50 50 -85 l50 -63 0 -115 c0 -74 4 -118 11 -123 8 -5 8 -8 0 -13 -8 -5 -8
-24 0 -66 8 -46 7 -69 -3 -100 -16 -48 -36 -54 -77 -24 -30 22 -31 22 -51 4
-24 -22 -27 -77 -5 -95 8 -7 35 -15 59 -17 38 -5 46 -10 57 -35 28 -68 69 -94
108 -69 13 8 12 17 -4 64 -18 53 -18 57 -1 102 10 26 32 62 48 81 38 43 162
105 224 112 l47 5 -6 -51 c-18 -155 -168 -307 -433 -443 -109 -55 -344 -149
-374 -149 -24 0 -25 20 -9 120 10 56 9 73 -1 85 -10 12 -10 19 -2 27 7 7 12
30 12 53 0 22 10 125 21 228 l22 188 -33 34 -34 35 -110 0 c-120 -1 -172 -9
-248 -42 -48 -21 -62 -43 -32 -55 9 -3 73 4 142 16 l125 22 28 -27 c27 -26 29
-33 29 -103 0 -83 -19 -252 -29 -263 -4 -5 -57 -3 -119 4 l-112 11 -81 93
c-48 55 -90 94 -101 94 -10 0 -18 -2 -18 -5 0 -2 14 -39 31 -82 l31 -78 -21
-425 c-12 -234 -27 -465 -33 -514 -8 -68 -8 -91 0 -94 7 -2 12 -22 12 -45 0
-77 22 -126 57 -127 6 0 84 90 173 200 88 110 165 200 170 200 6 0 10 -51 10
-122 0 -107 -3 -126 -20 -148 -35 -45 -22 -180 23 -227 27 -30 38 -29 69 5
l26 27 5 240 c4 199 9 254 26 323 25 101 53 157 99 200 56 53 25 55 -54 3
l-31 -21 -21 23 -22 23 223 97 c123 53 231 99 240 103 15 5 17 -3 17 -75 0
-96 -10 -110 -104 -140 -85 -28 -143 -36 -160 -22 -10 8 -16 9 -21 1 -3 -5 3
-91 15 -190 19 -165 20 -183 6 -224 -9 -25 -19 -101 -22 -168 -6 -107 -5 -125
9 -137 22 -18 45 -8 58 26 15 39 48 229 49 281 0 49 18 62 56 41 23 -12 27
-10 57 27 18 21 43 52 57 67 l26 29 88 -21 c98 -23 147 -26 163 -10 8 8 13 8
17 0 12 -18 62 -12 81 9 21 23 26 24 79 9 l38 -11 -21 -22 c-21 -22 -21 -23
-3 -39 10 -9 23 -17 29 -17 19 0 163 157 163 178 0 11 -13 30 -30 42 l-29 21
-105 -31 c-57 -16 -108 -30 -114 -30 -7 0 17 145 43 257 7 31 32 42 118 53
115 14 177 -11 217 -90 25 -48 36 -115 21 -124 -14 -9 -14 -83 0 -219 10 -103
9 -112 -22 -262 l-32 -155 -29 0 c-34 0 -114 69 -144 125 -10 19 -24 35 -32
35 -24 0 -26 -34 -4 -94 25 -69 152 -306 164 -306 11 0 82 93 116 152 82 144
93 232 76 636 -12 270 -16 318 -31 334 -21 24 -143 61 -202 62 -26 1 -74 -3
-108 -7 l-61 -8 -22 66 c-12 36 -19 73 -16 81 8 21 74 49 187 79 72 19 118 25
200 25 99 0 107 2 129 24 27 30 22 49 -22 72 -70 36 -135 31 -373 -31 -121
-32 -226 -60 -232 -62 -27 -11 -10 35 67 178 44 81 80 152 80 159 0 60 147
120 298 120 23 0 42 4 42 8 0 4 -15 22 -33 40 -31 30 -37 32 -111 32 -66 0
-82 -4 -114 -25 -46 -32 -64 -32 -57 -2 3 12 14 67 24 122 24 128 14 180 -48
237 -48 45 -68 47 -98 8z m-1103 -954 c0 -15 -88 -126 -99 -126 -4 0 -18 11
-31 25 l-23 24 37 46 c33 39 42 45 77 45 27 0 39 -4 39 -14z m150 -254 c0
-188 3 -271 11 -279 14 -14 -51 -90 -199 -237 -88 -86 -112 -98 -112 -54 0 39
176 360 255 464 6 9 2 21 -15 39 -22 23 -30 25 -117 25 -73 0 -93 3 -93 14 0
34 227 296 257 296 10 0 13 -57 13 -268z m904 187 c35 -28 59 -76 52 -104 -7
-26 -70 -60 -168 -91 -54 -16 -58 -16 -83 0 -32 21 -45 53 -45 111 0 49 16 64
96 89 70 21 117 20 148 -5z m6 -309 c0 -79 -18 -158 -41 -181 -16 -16 -34 -19
-112 -19 -117 0 -129 9 -117 87 10 62 19 79 58 116 38 37 93 56 160 57 l52 0
0 -60z m-1094 -37 c-9 -38 -75 -173 -85 -173 -4 0 -18 11 -30 24 -20 22 -23
31 -16 72 9 63 49 104 100 104 35 0 37 -1 31 -27z m720 -100 c-4 -31 -15 -75
-25 -98 -18 -40 -76 -115 -90 -115 -6 0 -38 151 -44 210 -2 12 79 42 162 59 2
1 1 -25 -3 -56z"/>
</g>
</svg>
