<?xml version="1.0" standalone="no"?>
<!DOCTYPE svg PUBLIC "-//W3C//DTD SVG 20010904//EN"
 "http://www.w3.org/TR/2001/REC-SVG-20010904/DTD/svg10.dtd">
<svg version="1.0" xmlns="http://www.w3.org/2000/svg"
 width="360.000000pt" height="360.000000pt" viewBox="0 0 360.000000 360.000000"
 preserveAspectRatio="xMidYMid meet">
<metadata>
Created by potrace 1.15, written by Peter Selinger 2001-2017
</metadata>
<g transform="translate(0.000000,360.000000) scale(0.100000,-0.100000)"
fill="#000000" stroke="none">
<path d="M2005 2711 c-3 -6 9 -33 26 -61 36 -59 36 -74 -7 -270 -50 -225 -145
-477 -235 -623 l-31 -50 21 -20 20 -21 63 60 c97 93 168 137 233 142 l55 4 0
-65 c0 -44 -7 -81 -21 -114 l-20 -48 21 -17 20 -17 -32 -65 c-40 -81 -55 -83
-144 -25 -37 24 -88 46 -124 55 -79 18 -133 46 -159 83 -25 34 -26 95 -11 336
l10 149 -26 27 c-45 47 -31 69 56 96 67 20 81 21 131 11 60 -12 86 -8 96 17 8
22 -44 75 -74 75 -13 0 -78 -14 -145 -30 -147 -38 -162 -32 -116 36 38 57 65
127 73 190 6 47 5 50 -27 70 l-33 21 -120 -60 c-112 -56 -122 -59 -160 -50
-37 9 -42 7 -52 -13 -8 -17 -6 -29 9 -52 l18 -29 117 23 c64 13 118 22 121 20
5 -6 -57 -121 -107 -196 -78 -118 -235 -262 -350 -320 -66 -33 -71 -23 -58
133 7 89 7 138 0 162 -9 28 -8 37 7 50 9 8 25 33 35 55 17 37 17 41 1 64 -22
35 -69 57 -130 62 -47 4 -60 0 -181 -63 -123 -64 -130 -70 -133 -100 -2 -20 1
-33 8 -33 25 0 169 54 232 87 55 29 70 33 87 23 12 -6 21 -17 21 -25 0 -24
-40 -289 -45 -293 -6 -6 -226 -72 -241 -72 -8 0 -20 15 -28 33 -19 48 -61 77
-107 77 -36 0 -39 -2 -39 -28 0 -19 11 -39 35 -62 l35 -34 0 -222 c0 -203 -2
-227 -22 -278 -21 -55 -21 -57 -2 -71 18 -13 18 -14 1 -15 -16 0 -16 -2 2 -37
18 -37 18 -39 0 -98 -15 -49 -19 -92 -19 -232 l0 -173 27 -6 c60 -15 147 73
233 239 30 56 46 77 61 77 30 0 33 -24 17 -133 -13 -94 -13 -108 5 -197 10
-52 22 -99 27 -103 4 -5 50 -4 101 3 74 9 96 15 107 31 92 131 413 509 433
509 5 0 9 -66 9 -147 0 -82 5 -221 12 -309 l12 -161 -32 -41 c-38 -47 -39 -61
-11 -164 23 -85 44 -101 74 -54 31 47 50 407 23 434 -9 9 -9 15 0 24 7 7 12
39 12 75 l0 63 78 39 c97 49 191 117 265 194 l58 60 23 -19 c13 -10 55 -45 93
-78 90 -77 244 -178 335 -221 117 -53 216 -76 366 -82 118 -5 134 -4 152 12
26 24 25 33 -7 67 -23 24 -34 28 -84 28 -132 0 -331 54 -474 128 -77 41 -201
127 -264 185 l-42 37 35 149 c32 138 34 155 26 237 -4 49 -15 108 -23 131
l-15 43 73 39 c104 58 239 111 296 118 42 5 49 9 49 28 0 12 -11 32 -25 45
l-24 23 -93 -33 c-118 -41 -258 -107 -364 -170 -82 -50 -104 -58 -104 -41 0 5
39 158 86 341 74 287 84 336 75 363 -19 53 -39 67 -97 67 -29 0 -55 -4 -59 -9z
m-425 -581 c32 -8 34 -33 17 -215 -9 -89 -11 -144 -5 -152 12 -15 0 -181 -13
-189 -5 -3 -21 3 -37 14 -18 13 -51 21 -97 24 -38 3 -82 11 -97 18 -25 12 -28
19 -28 59 0 45 2 47 54 78 50 29 58 30 96 21 34 -9 44 -8 60 7 24 22 25 33 3
57 -13 14 -31 18 -86 18 l-69 0 7 58 c10 78 38 149 76 188 33 34 39 35 119 14z
m-702 -143 c45 -41 54 -72 42 -132 -6 -30 -10 -69 -8 -87 3 -36 11 -34 -92
-26 -19 1 -59 -1 -87 -6 l-53 -8 0 69 c1 125 27 187 91 210 42 15 77 8 107
-20z m422 -21 c0 -8 -7 -43 -14 -78 -19 -79 -42 -293 -61 -557 -11 -158 -12
-214 -3 -249 9 -35 9 -47 0 -50 -7 -2 -12 -15 -12 -28 0 -17 -5 -24 -20 -24
-27 0 -36 25 -21 57 7 15 8 30 3 35 -5 5 -35 -26 -72 -72 -34 -44 -69 -80 -76
-80 -18 0 -19 229 -3 313 9 43 9 60 0 71 -8 10 -8 38 0 114 9 74 9 128 1 206
-11 95 -10 113 9 195 l21 89 33 -5 c37 -6 110 24 140 57 21 23 75 27 75 6z
m-471 -310 c9 -10 2 -39 -29 -127 -43 -125 -66 -162 -99 -167 -21 -3 -22 -2
-19 140 l3 143 55 11 c75 16 76 16 89 0z m957 -121 c63 -28 203 -121 210 -140
14 -35 -152 -208 -247 -260 -77 -41 -78 -36 -79 223 l0 214 33 -7 c17 -4 55
-18 83 -30z m-336 -3 c0 -10 7 -27 15 -38 14 -19 15 -19 54 4 22 12 45 22 50
22 7 0 11 -26 11 -64 l0 -64 -118 -121 c-94 -97 -123 -121 -145 -121 l-27 0 2
187 3 188 65 11 c91 16 90 16 90 -4z m-532 -41 c14 -62 3 -102 -46 -174 -68
-100 -142 -172 -142 -139 0 14 86 235 110 282 23 47 48 80 60 80 4 0 12 -22
18 -49z"/>
</g>
</svg>
