<?xml version="1.0" standalone="no"?>
<!DOCTYPE svg PUBLIC "-//W3C//DTD SVG 20010904//EN"
 "http://www.w3.org/TR/2001/REC-SVG-20010904/DTD/svg10.dtd">
<svg version="1.0" xmlns="http://www.w3.org/2000/svg"
 width="360.000000pt" height="360.000000pt" viewBox="0 0 360.000000 360.000000"
 preserveAspectRatio="xMidYMid meet">
<metadata>
Created by potrace 1.15, written by Peter Selinger 2001-2017
</metadata>
<g transform="translate(0.000000,360.000000) scale(0.100000,-0.100000)"
fill="#000000" stroke="none">
<path d="M1835 2721 c-110 -38 -301 -119 -405 -171 -30 -15 -65 -31 -77 -34
-21 -7 -23 -4 -23 29 0 32 -3 36 -22 33 -19 -2 -25 -12 -32 -54 -8 -49 -7 -54
20 -88 46 -57 79 -52 216 38 143 93 296 178 372 207 l59 23 33 -40 c19 -21 34
-44 34 -50 0 -9 -120 -150 -297 -347 l-34 -38 -80 35 -81 35 -19 -22 c-10 -12
-18 -26 -19 -32 0 -5 30 -40 66 -76 64 -65 66 -68 60 -105 -4 -20 -20 -50 -36
-65 l-28 -28 24 -16 c13 -8 30 -15 39 -15 32 0 175 103 196 141 8 16 4 27 -20
58 -17 22 -31 43 -31 47 0 5 77 90 170 189 l169 180 1 53 c0 47 -5 60 -37 103
-48 61 -69 62 -218 10z"/>
<path d="M2245 2133 c-353 -81 -666 -230 -962 -460 -65 -50 -89 -63 -117 -63
-30 0 -36 4 -36 21 0 20 -4 21 -42 15 -90 -15 -128 -65 -128 -172 0 -61 3 -73
23 -92 13 -12 32 -22 43 -22 11 0 59 33 105 73 288 246 560 432 589 401 4 -5
4 -39 -1 -75 -23 -188 -164 -452 -427 -802 -69 -92 -83 -127 -50 -127 17 0
160 151 264 280 90 111 213 287 284 408 41 71 56 84 65 60 2 -7 14 -125 25
-263 27 -306 22 -382 -36 -583 -14 -51 -17 -54 -42 -47 -32 7 -118 62 -183
116 -55 46 -92 52 -87 15 4 -28 274 -326 296 -326 25 0 69 59 96 128 45 114
107 364 94 379 -7 9 -7 17 0 26 7 8 5 72 -8 207 -38 405 -78 610 -132 667
l-21 23 66 30 c123 56 394 130 475 130 29 0 49 -21 37 -40 -3 -4 -79 -56 -170
-115 -150 -98 -165 -110 -165 -136 0 -19 5 -29 15 -29 21 0 126 48 147 67 10
9 93 42 185 73 l168 58 -1 31 c-3 54 -36 104 -94 139 -68 40 -119 41 -275 5z"/>
</g>
</svg>
