<?xml version="1.0" standalone="no"?>
<!DOCTYPE svg PUBLIC "-//W3C//DTD SVG 20010904//EN"
 "http://www.w3.org/TR/2001/REC-SVG-20010904/DTD/svg10.dtd">
<svg version="1.0" xmlns="http://www.w3.org/2000/svg"
 width="360.000000pt" height="360.000000pt" viewBox="0 0 360.000000 360.000000"
 preserveAspectRatio="xMidYMid meet">
<metadata>
Created by potrace 1.15, written by Peter Selinger 2001-2017
</metadata>
<g transform="translate(0.000000,360.000000) scale(0.100000,-0.100000)"
fill="#000000" stroke="none">
<path d="M2262 2887 c-30 -32 -28 -44 12 -61 64 -27 68 -62 20 -207 -30 -92
-154 -346 -258 -528 -68 -120 -76 -139 -76 -186 0 -47 5 -60 46 -114 25 -33
88 -105 141 -161 l96 -100 -28 -76 c-71 -195 -328 -538 -662 -886 -57 -58
-103 -111 -103 -116 0 -5 6 -14 13 -20 28 -23 300 220 480 427 99 115 252 318
342 454 32 48 61 87 64 87 3 0 20 -9 36 -20 18 -12 47 -20 73 -20 l42 0 0 53
c0 40 -6 61 -26 91 -31 45 -30 54 22 193 78 211 183 391 292 502 l64 65 -11
38 c-14 45 -48 73 -113 93 l-49 14 -217 -119 c-212 -116 -250 -134 -239 -107
3 6 42 89 86 184 167 359 182 472 68 524 -56 25 -89 24 -115 -4z m305 -739
c-24 -46 -88 -167 -141 -270 -82 -159 -101 -188 -120 -188 -32 0 -105 50 -170
115 l-56 57 48 61 c56 72 151 153 244 209 66 39 200 97 226 98 9 0 -3 -30 -31
-82z"/>
<path d="M1450 2488 c-70 -47 -199 -105 -263 -118 -56 -11 -60 -11 -99 15 -89
59 -89 -23 0 -117 31 -33 52 -34 177 -8 49 10 91 17 93 15 2 -2 -40 -105 -93
-229 -65 -151 -102 -226 -112 -226 -8 0 -32 14 -53 30 -21 17 -43 30 -49 30
-17 0 -13 -51 9 -115 l20 -58 -34 -111 c-30 -101 -45 -129 -164 -316 l-130
-205 31 -32 c17 -18 39 -33 48 -33 31 0 89 82 159 225 38 77 77 161 89 188 16
38 25 47 44 47 24 0 25 -2 29 -97 3 -71 9 -109 23 -138 19 -39 22 -40 74 -43
64 -4 71 4 60 61 -32 164 16 308 140 419 67 60 159 114 172 101 26 -26 -61
-203 -177 -359 -30 -41 -54 -77 -54 -81 0 -5 10 -20 23 -35 21 -26 24 -27 66
-17 102 23 353 183 359 228 4 24 -25 101 -37 101 -4 0 -25 -18 -46 -40 -34
-35 -65 -51 -65 -35 0 3 11 28 25 55 40 80 83 193 96 256 11 54 10 62 -10 102
-18 35 -26 42 -50 42 -56 0 -158 -40 -227 -88 -74 -53 -196 -175 -240 -242
l-27 -41 -24 22 c-12 13 -23 34 -23 47 0 14 83 187 185 385 102 197 185 368
185 378 0 25 -43 69 -67 68 -10 0 -38 -14 -63 -31z"/>
</g>
</svg>
