<?xml version="1.0" standalone="no"?>
<!DOCTYPE svg PUBLIC "-//W3C//DTD SVG 20010904//EN"
 "http://www.w3.org/TR/2001/REC-SVG-20010904/DTD/svg10.dtd">
<svg version="1.0" xmlns="http://www.w3.org/2000/svg"
 width="360.000000pt" height="360.000000pt" viewBox="0 0 360.000000 360.000000"
 preserveAspectRatio="xMidYMid meet">
<metadata>
Created by potrace 1.15, written by Peter Selinger 2001-2017
</metadata>
<g transform="translate(0.000000,360.000000) scale(0.100000,-0.100000)"
fill="#000000" stroke="none">
<path d="M1781 2436 c-9 -11 -7 -41 10 -131 18 -100 20 -125 10 -167 -6 -27
-11 -111 -11 -186 0 -111 -4 -145 -19 -177 -20 -45 -130 -153 -191 -187 -42
-24 -49 -38 -27 -56 9 -8 32 -5 82 9 102 28 102 28 102 -33 0 -29 1 -64 3 -78
1 -14 -5 -56 -13 -95 -23 -100 -24 -338 -3 -388 14 -29 55 -32 100 -7 37 21
49 38 128 199 116 234 211 391 278 462 51 54 59 59 98 59 33 0 42 -4 42 -17 0
-9 -56 -177 -126 -372 -116 -330 -135 -402 -106 -401 4 1 43 49 86 107 l79
107 23 -130 c37 -215 72 -323 109 -338 32 -12 82 -6 97 12 9 9 29 44 45 77 16
33 45 83 65 110 119 165 236 507 309 904 l19 105 -28 28 c-34 35 -128 69 -209
76 -49 4 -75 0 -125 -18 -169 -62 -341 -151 -430 -221 -28 -23 -55 -64 -103
-158 -120 -236 -217 -381 -256 -381 -30 0 -32 19 -10 136 10 60 22 135 25 166
12 117 85 246 176 313 l40 29 -70 71 -70 70 0 195 c0 107 -5 213 -10 235 -15
66 -87 109 -119 71z m977 -613 l85 -28 -6 -105 c-9 -169 -74 -369 -236 -725
l-86 -190 -35 0 -35 0 -21 107 c-28 136 -50 201 -74 223 -11 10 -20 24 -20 31
0 7 36 130 80 273 44 144 80 270 80 281 0 53 59 116 136 144 21 8 41 15 43 15
3 1 43 -11 89 -26z"/>
<path d="M1333 2226 c-23 -8 -81 -35 -129 -61 -90 -48 -95 -49 -181 -28 -35 8
-29 -26 11 -73 l33 -38 82 15 81 16 0 -32 c0 -31 -237 -545 -251 -545 -4 0
-41 32 -83 71 -75 70 -99 79 -112 45 -3 -8 13 -42 36 -76 89 -130 92 -186 23
-355 -46 -113 -47 -115 -114 -165 -38 -28 -75 -61 -84 -73 -37 -54 -1 -127 63
-127 66 0 182 148 182 232 0 27 46 24 65 -5 8 -13 18 -46 21 -73 13 -95 30
-104 89 -44 37 38 38 40 22 58 -17 19 -16 19 44 25 131 12 288 119 402 276 93
126 44 140 -78 22 -46 -44 -101 -89 -124 -100 -39 -21 -81 -28 -81 -14 0 4 23
51 51 106 51 99 109 254 109 290 0 10 -14 38 -30 62 l-30 44 -76 -34 c-42 -19
-78 -35 -80 -35 -2 0 -4 14 -4 31 0 56 60 211 142 369 72 140 79 158 72 189
-11 41 -17 43 -71 27z m-43 -716 c0 -25 -62 -196 -111 -307 -52 -118 -55 -123
-85 -123 -29 0 -32 5 -62 78 l-32 77 21 92 21 91 58 11 c53 11 127 52 145 80
8 14 45 14 45 1z"/>
</g>
</svg>
