<?xml version="1.0" standalone="no"?>
<!DOCTYPE svg PUBLIC "-//W3C//DTD SVG 20010904//EN"
 "http://www.w3.org/TR/2001/REC-SVG-20010904/DTD/svg10.dtd">
<svg version="1.0" xmlns="http://www.w3.org/2000/svg"
 width="360.000000pt" height="360.000000pt" viewBox="0 0 360.000000 360.000000"
 preserveAspectRatio="xMidYMid meet">
<metadata>
Created by potrace 1.15, written by Peter Selinger 2001-2017
</metadata>
<g transform="translate(0.000000,360.000000) scale(0.100000,-0.100000)"
fill="#000000" stroke="none">
<path d="M2160 2704 l-42 -46 34 -35 c31 -30 38 -34 56 -24 19 10 23 8 39 -26
14 -30 18 -64 18 -158 0 -104 -3 -127 -23 -170 -45 -98 -129 -153 -247 -163
l-61 -4 -23 -67 c-70 -202 -140 -380 -191 -486 -56 -117 -111 -205 -129 -205
-5 0 22 81 60 181 38 99 69 186 69 193 0 7 -9 21 -19 30 -39 36 -205 -10 -333
-91 -15 -10 -29 -15 -32 -12 -3 3 55 148 129 323 l135 318 -21 29 c-28 40 -55
37 -134 -12 -81 -51 -215 -99 -277 -99 -27 0 -48 -4 -48 -8 0 -4 15 -22 33
-40 29 -28 40 -32 88 -32 31 0 76 7 102 16 25 9 53 14 60 12 11 -2 -14 -79
-98 -303 l-113 -300 -40 -3 c-39 -3 -39 -3 -51 42 -10 42 -33 76 -50 76 -4 0
-18 -11 -31 -25 l-23 -25 47 -112 48 -111 -28 -70 c-40 -99 -105 -206 -158
-261 l-46 -47 0 -78 c0 -70 2 -80 26 -102 l26 -24 20 25 c31 38 90 162 138
288 41 105 45 113 69 110 22 -3 26 -10 41 -79 19 -92 41 -129 76 -129 13 0 27
7 31 16 3 9 1 65 -5 125 -13 121 -5 183 30 252 42 83 165 187 221 187 15 0 27
-2 27 -4 0 -2 -36 -90 -80 -196 -44 -106 -80 -207 -80 -224 0 -39 35 -76 71
-76 39 0 116 56 176 129 97 118 236 434 264 600 10 64 44 111 113 158 59 40
182 81 197 66 21 -21 -56 -164 -263 -479 -149 -228 -154 -264 -40 -264 46 0
62 5 103 35 27 19 54 35 60 35 7 0 8 -23 4 -67 -23 -257 -24 -230 7 -253 15
-11 32 -20 38 -20 6 0 117 65 247 145 271 167 302 175 227 64 -59 -88 -142
-185 -223 -261 -74 -69 -239 -198 -301 -234 -16 -10 -30 -24 -30 -31 0 -22
115 -90 223 -131 170 -66 173 -67 218 -47 46 21 50 45 16 96 -30 45 -84 70
-179 83 -43 6 -78 15 -78 21 0 6 44 47 98 92 103 87 274 255 318 313 42 56 74
132 74 176 0 36 -5 45 -41 73 -36 29 -45 33 -81 27 -57 -9 -166 -62 -290 -139
-58 -37 -116 -67 -128 -67 -20 0 -22 4 -16 32 3 18 8 65 12 103 9 93 29 129
116 210 64 59 260 198 371 262 20 12 37 26 37 31 0 13 -227 192 -244 192 -34
0 -16 -45 41 -102 l57 -57 -20 -22 c-38 -43 -240 -169 -270 -169 -27 0 -12
112 27 207 31 74 151 266 183 293 24 19 20 66 -6 84 -13 9 -43 16 -69 16 l-46
0 -7 108 c-9 144 -23 226 -48 284 -40 93 -92 103 -158 32z m-15 -1084 c19 -21
18 -22 -34 -73 l-52 -52 22 55 c12 30 24 63 26 73 7 22 16 22 38 -3z"/>
</g>
</svg>
