<?xml version="1.0" standalone="no"?>
<!DOCTYPE svg PUBLIC "-//W3C//DTD SVG 20010904//EN"
 "http://www.w3.org/TR/2001/REC-SVG-20010904/DTD/svg10.dtd">
<svg version="1.0" xmlns="http://www.w3.org/2000/svg"
 width="360.000000pt" height="360.000000pt" viewBox="0 0 360.000000 360.000000"
 preserveAspectRatio="xMidYMid meet">
<metadata>
Created by potrace 1.15, written by Peter Selinger 2001-2017
</metadata>
<g transform="translate(0.000000,360.000000) scale(0.100000,-0.100000)"
fill="#000000" stroke="none">
<path d="M2312 2670 c-173 -54 -186 -56 -238 -47 -49 8 -57 7 -69 -9 -39 -51
4 -105 90 -112 43 -3 68 1 121 22 60 24 68 25 84 11 40 -36 131 -2 213 80 37
38 37 116 -2 114 -9 -1 -98 -27 -199 -59z"/>
<path d="M1531 2574 c-76 -20 -201 -81 -316 -153 -86 -54 -102 -61 -122 -52
-13 6 -28 22 -33 36 -12 31 -21 31 -48 2 -30 -31 -28 -52 9 -98 30 -38 32 -39
97 -39 76 0 127 20 244 95 l71 46 -7 -43 c-19 -117 -228 -608 -259 -608 -7 0
-25 25 -41 56 -30 57 -62 82 -90 71 -22 -9 -20 -25 14 -176 21 -94 27 -138 20
-155 -11 -29 -465 -938 -482 -965 -11 -18 -9 -24 16 -50 16 -17 32 -28 36 -26
4 2 103 173 221 380 118 206 219 375 225 375 15 0 22 -18 30 -79 4 -31 2 -51
-5 -55 -25 -16 -10 -53 38 -94 l48 -41 22 23 c19 20 21 34 21 134 0 76 -6 138
-20 197 -31 134 -28 164 23 227 24 29 67 67 96 85 52 31 135 53 149 39 3 -4
-29 -113 -72 -243 l-79 -237 27 -23 c15 -13 32 -23 38 -23 23 0 156 151 284
323 130 174 134 177 134 140 0 -21 -5 -55 -9 -77 -6 -25 -6 -45 1 -56 8 -13 5
-49 -11 -140 -14 -83 -18 -126 -11 -134 6 -9 6 -16 -1 -23 -8 -8 -10 -75 -7
-215 6 -264 23 -312 91 -257 53 41 181 91 330 128 193 49 360 78 364 64 3 -7
20 -7 56 0 36 6 66 6 99 -3 35 -9 50 -9 65 0 15 10 34 8 93 -9 l75 -21 24 24
c46 47 12 90 -98 121 -129 37 -153 38 -377 14 -117 -13 -215 -21 -218 -18 -3
2 27 88 66 189 l71 185 60 49 c119 99 227 245 274 374 34 92 44 234 18 262
-24 27 -51 25 -200 -10 -69 -16 -133 -30 -141 -30 -11 0 -14 19 -14 91 0 107
-14 169 -46 204 -26 28 -71 34 -81 9 -3 -8 5 -58 19 -110 14 -54 21 -97 16
-101 -9 -5 -3 -104 8 -143 4 -15 -174 -226 -183 -217 -2 3 1 26 7 51 10 47 -3
126 -21 126 -19 0 -58 -64 -69 -112 -6 -29 -14 -125 -17 -213 l-6 -160 26 -23
c18 -17 34 -23 58 -20 31 3 33 5 45 64 13 68 72 195 92 202 9 3 12 -41 12
-198 0 -215 -6 -258 -55 -377 -14 -35 -25 -65 -25 -67 0 -2 14 -9 30 -15 37
-13 39 -29 3 -36 -65 -13 -137 -38 -189 -65 -31 -17 -71 -30 -89 -30 -40 0
-39 -3 -56 235 l-12 170 47 285 c47 293 53 345 37 355 -6 3 -4 19 4 39 12 28
35 174 35 224 0 7 -13 12 -34 12 -31 0 -34 -3 -39 -37 -13 -76 -266 -563 -293
-563 -17 0 -17 0 1 74 15 63 8 99 -20 110 -28 10 -157 6 -222 -8 -61 -13 -63
-13 -63 6 0 48 143 359 271 589 86 156 64 202 -80 163z m1154 -624 c-4 -29
-24 -86 -46 -128 -40 -81 -175 -247 -199 -247 -19 0 -26 187 -10 261 12 58 63
124 113 151 36 18 128 33 141 22 4 -4 5 -30 1 -59z"/>
</g>
</svg>
