<?xml version="1.0" standalone="no"?>
<!DOCTYPE svg PUBLIC "-//W3C//DTD SVG 20010904//EN"
 "http://www.w3.org/TR/2001/REC-SVG-20010904/DTD/svg10.dtd">
<svg version="1.0" xmlns="http://www.w3.org/2000/svg"
 width="360.000000pt" height="360.000000pt" viewBox="0 0 360.000000 360.000000"
 preserveAspectRatio="xMidYMid meet">
<metadata>
Created by potrace 1.15, written by Peter Selinger 2001-2017
</metadata>
<g transform="translate(0.000000,360.000000) scale(0.100000,-0.100000)"
fill="#000000" stroke="none">
<path d="M2225 2584 c-181 -40 -336 -88 -363 -112 -13 -11 -26 -45 -37 -97
-42 -196 -143 -444 -243 -595 -54 -80 -122 -164 -128 -157 -3 2 2 33 11 68 24
102 21 114 -29 149 -56 38 -88 38 -165 -2 -33 -17 -64 -28 -67 -25 -9 9 119
384 162 473 37 79 42 118 18 152 -24 34 -58 27 -121 -24 -76 -62 -182 -112
-254 -120 -69 -8 -69 -21 -2 -61 44 -25 48 -26 116 -15 40 6 74 9 76 6 9 -9
-22 -143 -61 -264 -37 -116 -95 -270 -103 -279 -3 -2 -26 15 -53 38 -28 22
-59 41 -69 41 -27 0 -60 -37 -48 -54 59 -79 85 -138 85 -191 0 -24 -129 -367
-144 -383 -2 -1 -17 3 -34 9 -26 9 -35 8 -56 -8 -22 -15 -25 -26 -26 -75 0
-46 5 -62 26 -87 21 -25 34 -31 65 -31 47 0 57 14 109 144 28 69 42 92 57 94
15 2 22 -4 28 -25 15 -63 64 -81 109 -40 l26 22 -25 150 c-14 83 -25 161 -25
175 0 19 32 57 133 158 120 119 167 154 167 120 0 -6 -32 -110 -72 -230 l-72
-218 24 -25 c41 -44 70 -34 145 48 128 137 266 375 359 617 21 52 41 105 46
118 6 14 18 22 35 22 14 0 25 -1 25 -3 0 -1 -43 -157 -95 -347 l-95 -345 46
-42 c25 -24 53 -43 61 -43 8 0 85 62 170 138 85 75 168 147 184 160 l29 23 0
-143 -1 -143 -150 -110 c-83 -60 -157 -114 -166 -119 -10 -5 -54 3 -124 25
-93 28 -112 31 -135 20 l-27 -12 5 -143 c6 -173 22 -219 76 -224 28 -3 40 5
91 56 40 39 63 72 72 101 10 34 16 41 34 39 13 -2 78 -66 165 -163 247 -276
219 -250 249 -232 26 16 26 16 34 199 10 230 10 222 1 349 l-6 106 33 26 c19
14 67 35 107 47 l72 22 93 -45 c121 -59 177 -116 177 -180 l0 -44 -45 10 c-41
9 -47 8 -70 -13 -20 -18 -22 -26 -13 -37 14 -17 80 -51 165 -86 l61 -25 31 32
c27 28 31 39 31 90 0 137 -143 308 -297 356 -82 25 -119 25 -233 -1 -106 -24
-140 -20 -140 17 0 67 33 303 47 332 23 48 110 121 210 177 49 27 89 49 91 51
2 1 -8 24 -22 52 l-25 49 -43 -8 c-64 -12 -142 -11 -156 3 -7 7 -12 25 -12 40
0 63 -75 158 -124 158 -28 0 -56 -29 -56 -59 0 -12 11 -39 25 -59 22 -32 25
-48 25 -121 0 -46 -5 -112 -12 -147 l-11 -63 -124 -106 c-69 -59 -136 -124
-151 -145 -15 -22 -35 -39 -46 -40 -18 0 -19 6 -12 95 23 332 143 588 381 813
47 44 105 95 130 113 30 22 45 40 45 54 0 43 -18 44 -175 9z m-131 -176 c-16
-26 -266 -309 -270 -305 -7 6 55 207 78 251 33 66 34 66 120 66 61 0 77 -3 72
-12z m61 -1250 c4 -13 9 -107 12 -210 4 -142 2 -188 -7 -188 -12 0 -260 229
-260 241 0 14 84 101 124 128 39 27 88 49 112 50 7 1 15 -9 19 -21z m-437
-120 c18 -18 15 -23 -23 -52 l-35 -27 0 45 c0 41 2 46 23 46 13 0 28 -5 35
-12z"/>
</g>
</svg>
