<?xml version="1.0" standalone="no"?>
<!DOCTYPE svg PUBLIC "-//W3C//DTD SVG 20010904//EN"
 "http://www.w3.org/TR/2001/REC-SVG-20010904/DTD/svg10.dtd">
<svg version="1.0" xmlns="http://www.w3.org/2000/svg"
 width="360.000000pt" height="360.000000pt" viewBox="0 0 360.000000 360.000000"
 preserveAspectRatio="xMidYMid meet">
<metadata>
Created by potrace 1.15, written by Peter Selinger 2001-2017
</metadata>
<g transform="translate(0.000000,360.000000) scale(0.100000,-0.100000)"
fill="#000000" stroke="none">
<path d="M1813 2607 c-25 -8 -33 -16 -33 -33 0 -18 6 -24 20 -24 35 0 78 -28
105 -67 32 -48 32 -59 -7 -137 -17 -35 -28 -71 -25 -80 13 -33 111 -12 151 32
40 45 30 152 -21 219 -44 60 -140 105 -190 90z"/>
<path d="M1254 2296 c-38 -18 -107 -56 -153 -85 -82 -51 -83 -51 -167 -51 -67
0 -84 -3 -84 -15 0 -24 40 -53 102 -74 59 -20 60 -20 109 -1 27 11 52 20 54
20 21 0 -10 -80 -97 -255 -78 -156 -107 -204 -118 -199 -8 3 -36 8 -62 11 -64
8 -68 -8 -23 -96 l36 -72 -186 -305 c-183 -301 -185 -306 -175 -342 13 -48 13
-52 -4 -52 -26 0 -29 -21 -8 -43 21 -20 22 -20 42 -2 23 21 153 215 246 367
32 54 65 97 71 98 7 0 15 -12 19 -27 27 -123 58 -234 72 -263 15 -31 21 -35
57 -35 45 0 45 -3 30 125 -7 61 -6 66 18 89 l26 23 31 -22 c17 -12 39 -20 50
-17 10 2 79 51 154 108 96 74 135 110 136 125 0 25 -39 64 -64 64 -13 0 -16 5
-11 18 4 9 26 73 50 142 l42 126 -48 32 c-57 38 -70 39 -145 11 -39 -15 -77
-41 -125 -86 -88 -83 -113 -123 -106 -168 3 -19 1 -37 -4 -40 -5 -4 -9 -24 -9
-46 0 -22 -5 -49 -10 -59 -11 -20 -57 -70 -65 -70 -3 0 -5 50 -5 112 l0 111
87 166 c108 208 216 397 299 524 51 77 64 106 64 136 0 38 -11 51 -44 51 -6 0
-43 -15 -82 -34z m24 -738 c28 -35 -162 -398 -209 -398 -26 0 5 147 52 246 30
65 112 164 134 164 7 0 17 -6 23 -12z"/>
<path d="M2223 2295 c-135 -24 -282 -85 -420 -174 -103 -66 -129 -66 -148 -1
-16 54 -53 73 -96 50 -18 -10 -18 -12 6 -50 14 -22 25 -48 25 -59 0 -37 -40
-217 -66 -296 -26 -78 -26 -80 -10 -132 20 -62 38 -83 72 -83 39 0 54 51 67
232 l11 158 38 0 c31 0 53 12 125 65 116 86 284 169 393 194 98 23 201 31 206
16 2 -5 -70 -68 -160 -140 -138 -109 -170 -140 -199 -190 -72 -123 -153 -194
-252 -220 -44 -11 -61 -12 -75 -3 -15 10 -23 9 -39 -6 -21 -19 -29 -80 -13
-90 5 -3 8 -53 7 -113 0 -102 -2 -111 -34 -173 -72 -140 -165 -255 -350 -437
-115 -113 -131 -143 -78 -143 41 0 113 57 241 192 l125 130 122 -21 c107 -18
128 -25 173 -57 304 -216 544 -353 681 -389 72 -18 255 -21 273 -3 9 9 15 9
24 0 17 -17 208 -16 232 1 40 29 -24 77 -163 122 -46 15 -63 16 -122 6 -37 -6
-109 -11 -160 -11 l-92 0 -258 132 -259 131 0 122 c0 67 5 146 11 177 l11 55
87 28 c116 37 210 80 217 100 4 8 1 21 -5 29 -10 11 -35 8 -152 -22 -77 -19
-141 -33 -143 -31 -2 2 0 27 4 54 5 28 9 95 9 150 1 96 2 102 31 136 24 30 40
38 87 48 77 15 95 30 91 73 -2 28 -7 34 -30 36 -54 6 -29 48 77 129 61 46 134
80 203 93 l62 13 -1 41 c0 39 -4 44 -70 94 l-69 52 -88 -1 c-48 0 -119 -7
-159 -14z m-223 -726 c22 -127 -22 -483 -63 -517 -8 -7 -47 -3 -125 13 -120
24 -143 35 -124 58 6 7 21 43 32 79 11 36 28 76 39 89 10 13 26 60 36 104 39
178 83 244 162 245 31 0 31 0 43 -71z"/>
</g>
</svg>
