<?xml version="1.0" standalone="no"?>
<!DOCTYPE svg PUBLIC "-//W3C//DTD SVG 20010904//EN"
 "http://www.w3.org/TR/2001/REC-SVG-20010904/DTD/svg10.dtd">
<svg version="1.0" xmlns="http://www.w3.org/2000/svg"
 width="360.000000pt" height="360.000000pt" viewBox="0 0 360.000000 360.000000"
 preserveAspectRatio="xMidYMid meet">
<metadata>
Created by potrace 1.15, written by Peter Selinger 2001-2017
</metadata>
<g transform="translate(0.000000,360.000000) scale(0.100000,-0.100000)"
fill="#000000" stroke="none">
<path d="M2165 2890 c10 -11 33 -25 51 -32 27 -10 33 -16 28 -33 -19 -65 -194
-264 -329 -375 -134 -109 -326 -218 -487 -275 -73 -26 -78 -30 -78 -56 0 -25
4 -29 28 -29 15 0 182 63 371 140 189 77 349 140 356 140 7 0 15 -13 19 -30 3
-18 12 -30 21 -30 8 0 15 -6 15 -14 0 -25 -71 -74 -154 -107 -45 -18 -84 -35
-89 -39 -4 -3 6 -19 22 -34 29 -28 32 -28 77 -17 25 7 49 9 52 6 3 -3 -12 -24
-35 -48 -62 -65 -139 -162 -169 -213 -23 -39 -27 -56 -25 -116 2 -85 22 -192
56 -303 l25 -82 42 8 c60 11 138 11 138 -1 0 -6 -83 -52 -185 -102 -170 -85
-186 -91 -201 -76 -14 13 -15 23 -5 67 17 78 15 101 -9 101 -13 0 -22 -9 -26
-27 -4 -16 -23 -89 -43 -163 l-36 -135 -33 -3 c-25 -3 -32 1 -32 14 0 13 114
614 146 767 4 20 2 27 -9 27 -39 0 -109 -223 -182 -585 -40 -198 -45 -234 -45
-358 0 -160 12 -221 47 -245 24 -15 26 -15 43 8 22 29 73 183 88 262 19 103
88 174 220 229 29 12 54 20 56 18 2 -2 15 -71 29 -154 30 -178 68 -303 99
-331 32 -29 199 -126 291 -170 95 -45 150 -54 177 -29 18 16 20 31 20 126 0
61 -5 119 -12 134 -9 19 -9 28 0 37 15 15 16 75 1 84 -8 5 -8 8 0 13 7 5 8 45
1 136 -5 72 -10 169 -10 217 0 48 -4 90 -10 93 -22 14 -8 37 33 55 57 25 173
41 347 49 163 7 162 6 116 79 -21 34 -32 42 -55 42 -50 0 -258 -39 -318 -59
l-58 -20 -42 25 c-23 13 -51 36 -62 50 l-20 25 28 40 c40 54 75 146 116 301
23 89 31 136 25 148 -5 9 -29 27 -53 40 l-45 24 -126 -22 c-70 -13 -131 -20
-136 -17 -6 4 -10 19 -10 35 0 24 6 31 45 46 25 9 66 30 90 45 51 32 56 55 25
100 -19 25 -27 28 -88 31 l-67 3 -11 53 c-7 28 -9 54 -5 56 3 2 102 18 219 36
l212 31 35 -21 35 -22 30 22 c39 28 38 55 -2 81 -30 19 -44 20 -143 15 -109
-5 -285 -33 -398 -62 -33 -8 -63 -14 -68 -12 -5 2 50 76 121 166 72 90 130
171 130 182 0 10 -13 28 -29 39 -24 17 -44 21 -117 21 -86 0 -87 0 -69 -20z
m288 -886 c20 -7 22 -39 6 -134 -21 -133 -76 -210 -167 -236 -79 -23 -85 -9
-28 64 41 52 47 65 44 98 -3 42 -8 44 -75 29 l-33 -7 0 44 c0 31 6 50 19 62
25 22 193 97 206 91 6 -3 18 -8 28 -11z m-356 -186 c40 -37 31 -60 -35 -86
-69 -26 -86 -28 -78 -6 7 18 78 113 85 114 3 0 15 -10 28 -22z m-28 -243 c-29
-41 -56 -75 -60 -75 -17 0 -49 61 -49 93 0 34 0 35 58 45 112 19 110 21 51
-63z m309 -127 c-3 -21 -11 -24 -93 -34 -49 -6 -93 -9 -97 -7 -5 2 -8 13 -8
23 0 14 9 21 33 24 51 9 89 13 130 15 34 1 38 -1 35 -21z m-28 -171 c27 -61
48 -156 75 -342 16 -111 20 -162 13 -167 -8 -4 -8 -26 0 -75 11 -65 10 -70
-13 -105 l-25 -38 -79 29 c-153 54 -262 142 -295 238 -19 55 -23 283 -5 283 6
0 54 -34 108 -75 53 -41 101 -75 106 -75 5 0 19 10 31 21 l23 22 -47 60 c-26
33 -72 80 -102 105 -30 24 -56 47 -57 51 -2 3 34 30 80 58 66 42 91 53 125 53
41 0 44 -2 62 -43z"/>
<path d="M1660 2780 c0 -14 7 -20 21 -20 17 0 19 -3 10 -14 -20 -24 5 -95 49
-138 64 -65 109 -45 155 68 l24 59 -21 23 -22 22 -32 -31 c-30 -29 -34 -30
-67 -20 -27 9 -36 19 -41 41 -5 26 -10 30 -41 30 -28 0 -35 -4 -35 -20z"/>
<path d="M1144 2375 c-28 -19 -95 -57 -149 -86 -114 -61 -114 -61 19 -105 45
-15 85 -30 89 -34 19 -17 -148 -418 -208 -495 -23 -31 -26 -32 -67 -24 -66 13
-98 11 -105 -6 -9 -24 26 -55 70 -62 l39 -6 -6 -40 c-17 -107 -85 -233 -195
-364 -65 -77 -76 -114 -42 -133 60 -31 129 17 172 120 29 71 59 118 97 154
l31 29 7 -27 c3 -15 15 -31 25 -37 15 -8 19 -21 19 -70 0 -33 5 -80 11 -105
11 -41 14 -44 45 -44 18 0 36 5 40 11 3 6 -13 108 -37 228 l-43 217 172 407
c95 225 172 414 172 421 0 17 -73 86 -90 85 -8 0 -38 -16 -66 -34z"/>
<path d="M2492 2347 c-26 -27 -28 -47 -7 -47 23 0 76 -29 108 -58 l27 -26 21
21 22 21 -44 56 c-36 46 -49 56 -75 56 -19 0 -39 -9 -52 -23z"/>
<path d="M1563 2093 c-37 -14 11 -44 101 -63 l58 -12 -6 -36 c-3 -21 -9 -54
-12 -74 -6 -34 -4 -38 14 -38 26 0 86 67 102 114 28 86 -12 116 -152 115 -51
0 -99 -3 -105 -6z"/>
<path d="M1268 1785 c-84 -31 -218 -143 -218 -181 0 -35 36 -31 122 12 l71 36
-6 -41 c-6 -48 -57 -151 -121 -247 -42 -64 -44 -69 -29 -86 36 -40 61 -25 208
122 132 132 139 141 120 154 -66 46 -66 47 -54 107 10 50 9 60 -10 97 -23 46
-28 47 -83 27z"/>
</g>
</svg>
