<?xml version="1.0" standalone="no"?>
<!DOCTYPE svg PUBLIC "-//W3C//DTD SVG 20010904//EN"
 "http://www.w3.org/TR/2001/REC-SVG-20010904/DTD/svg10.dtd">
<svg version="1.0" xmlns="http://www.w3.org/2000/svg"
 width="360.000000pt" height="360.000000pt" viewBox="0 0 360.000000 360.000000"
 preserveAspectRatio="xMidYMid meet">
<metadata>
Created by potrace 1.15, written by Peter Selinger 2001-2017
</metadata>
<g transform="translate(0.000000,360.000000) scale(0.100000,-0.100000)"
fill="#000000" stroke="none">
<path d="M1841 2941 c-7 -5 -21 -7 -30 -5 -9 2 -47 -4 -86 -14 -55 -14 -71
-22 -73 -38 -3 -18 7 -23 80 -38 104 -23 180 -51 203 -76 17 -19 18 -19 51 3
20 13 34 30 34 42 0 12 -25 45 -58 78 -57 57 -88 69 -121 48z"/>
<path d="M1660 2586 c-353 -123 -525 -188 -525 -197 0 -7 12 -20 28 -27 69
-33 70 -33 540 151 420 163 450 174 490 166 23 -4 83 -8 133 -9 76 0 94 3 107
18 22 24 21 45 -1 65 -15 14 -40 17 -133 16 l-114 0 -525 -183z"/>
<path d="M2000 2441 c-99 -28 -196 -67 -296 -120 -113 -61 -234 -138 -234
-150 0 -25 29 -32 96 -21 53 8 107 30 229 91 110 55 188 86 248 101 l88 22 95
-23 c70 -17 94 -27 94 -39 0 -32 -53 -189 -83 -245 -56 -106 -177 -204 -278
-224 -25 -5 -31 -3 -27 8 3 8 33 83 67 167 34 84 61 157 61 163 0 26 -42 69
-68 69 -37 0 -118 -49 -171 -104 l-44 -45 -38 20 c-49 25 -52 24 -72 -10 -14
-23 -17 -54 -17 -151 0 -108 2 -125 21 -152 19 -26 20 -33 8 -54 -17 -33 -95
-104 -113 -104 -32 0 -156 423 -156 534 0 35 -38 35 -69 2 l-23 -24 22 -94
c61 -263 141 -530 179 -594 25 -42 26 -54 5 -54 -28 0 -74 -56 -74 -89 0 -32
37 -101 55 -101 6 0 152 74 325 164 190 99 319 160 324 155 31 -29 117 19 102
56 -8 21 -66 45 -126 52 -44 5 -56 1 -165 -57 -64 -34 -119 -59 -122 -56 -18
18 161 178 226 203 98 36 217 148 292 273 47 79 97 216 106 288 5 48 5 49 -45
93 -27 25 -68 51 -90 57 -61 18 -255 14 -332 -7z m-180 -456 c-35 -36 -70 -65
-77 -65 -9 0 -13 15 -13 44 l0 43 68 21 c37 11 71 20 77 21 5 1 -20 -28 -55
-64z"/>
<path d="M2455 1493 c-507 -113 -977 -314 -1450 -618 l-80 -51 -50 13 c-70 18
-75 17 -75 -16 0 -33 24 -56 87 -85 l39 -17 288 166 c159 92 292 163 296 158
4 -4 -7 -98 -25 -208 l-33 -200 21 -23 c11 -12 31 -22 43 -22 17 0 24 8 31 38
15 65 40 57 155 -53 63 -61 120 -106 152 -121 l51 -23 26 25 c37 35 84 125
106 204 18 65 19 123 9 525 l-1 59 215 62 c239 70 288 75 390 44 l65 -20 42
42 c24 23 43 48 43 55 0 22 -57 43 -161 60 -79 13 -105 14 -120 5 -12 -8 -19
-8 -19 -2 0 10 -10 11 -45 3z m-556 -310 c82 -69 62 -567 -25 -600 -44 -16
-122 45 -220 173 l-57 74 7 55 c17 148 94 256 213 300 51 18 57 18 82 -2z"/>
<path d="M2253 1040 c-20 -31 -17 -35 45 -60 77 -32 207 -162 292 -292 49 -75
69 -98 86 -98 38 0 46 21 34 91 -29 158 -131 269 -313 339 -107 41 -130 44
-144 20z"/>
</g>
</svg>
