<?xml version="1.0" standalone="no"?>
<!DOCTYPE svg PUBLIC "-//W3C//DTD SVG 20010904//EN"
 "http://www.w3.org/TR/2001/REC-SVG-20010904/DTD/svg10.dtd">
<svg version="1.0" xmlns="http://www.w3.org/2000/svg"
 width="360.000000pt" height="360.000000pt" viewBox="0 0 360.000000 360.000000"
 preserveAspectRatio="xMidYMid meet">
<metadata>
Created by potrace 1.15, written by Peter Selinger 2001-2017
</metadata>
<g transform="translate(0.000000,360.000000) scale(0.100000,-0.100000)"
fill="#000000" stroke="none">
<path d="M2150 2619 c-135 -37 -255 -71 -268 -74 l-23 -6 20 -27 c11 -15 31
-40 43 -56 l24 -28 127 34 c71 20 130 31 133 26 3 -5 -33 -45 -80 -89 -201
-189 -320 -389 -276 -467 5 -9 18 -67 30 -127 11 -61 28 -135 39 -165 18 -54
19 -55 57 -54 53 1 136 39 212 96 35 27 98 62 140 78 127 49 144 71 102 135
-11 17 -20 36 -20 43 0 7 36 50 80 96 72 75 80 87 80 122 -1 30 -9 49 -35 79
l-34 39 -123 -21 c-118 -20 -127 -23 -218 -81 -52 -33 -113 -67 -134 -76 -46
-19 -86 -21 -86 -3 0 7 57 68 126 137 69 69 189 191 266 273 137 144 140 148
123 167 -10 11 -28 20 -39 19 -12 -1 -131 -32 -266 -70z m240 -449 c0 -56 -84
-176 -219 -312 -73 -75 -90 -88 -118 -88 -36 0 -36 -1 -52 110 -10 75 -15 68
117 161 68 47 247 148 265 149 4 0 7 -9 7 -20z"/>
<path d="M1348 2528 c-62 -22 -88 -36 -88 -48 0 -12 11 -16 53 -16 60 -1 165
-34 219 -70 52 -34 87 -31 126 9 l32 33 -30 43 c-63 86 -162 102 -312 49z"/>
<path d="M1249 1907 c-337 -242 -432 -282 -521 -222 -43 29 -51 30 -67 11 -17
-20 7 -75 48 -109 25 -21 43 -27 79 -27 112 0 251 62 385 170 49 39 93 68 98
65 24 -15 6 -81 -55 -207 -103 -213 -177 -439 -217 -661 -14 -76 -9 -87 43
-87 53 0 101 86 183 324 27 82 55 151 61 153 7 2 14 -21 18 -64 14 -141 47
-381 65 -469 24 -118 46 -164 77 -164 34 0 37 13 14 71 -15 36 -18 55 -10 63
17 17 11 68 -26 228 -35 151 -36 155 -30 308 6 157 34 361 81 589 14 68 25
125 25 127 0 2 -24 4 -53 4 -51 0 -58 -3 -198 -103z"/>
<path d="M2355 1616 c-110 -34 -256 -85 -325 -113 -136 -55 -245 -88 -328 -99
-42 -5 -52 -10 -48 -23 30 -99 80 -322 86 -382 10 -91 38 -152 83 -179 63 -39
76 -37 336 60 134 50 247 87 251 83 4 -4 22 -57 39 -117 55 -188 126 -316 175
-316 37 0 116 142 177 320 68 197 157 637 139 685 -11 28 -51 57 -132 95 -94
44 -154 57 -180 41 -14 -9 -23 -10 -31 -2 -17 17 -28 14 -242 -53z m306 -16
c75 -23 135 -69 143 -108 3 -16 -29 -175 -78 -387 l-82 -360 -35 0 -34 0 -7
66 c-13 134 -83 230 -192 265 -31 10 -56 21 -56 26 0 5 20 39 45 76 43 65 45
69 45 143 l0 75 -53 17 c-98 31 -112 75 -37 114 60 31 229 92 256 93 12 0 50
-9 85 -20z m-492 -164 c7 -9 11 -39 9 -82 l-3 -67 -125 -58 c-69 -32 -129 -60
-135 -62 -5 -2 -1 -14 9 -26 27 -30 124 -30 172 0 l34 21 0 -66 0 -66 -87 -56
c-125 -81 -128 -82 -158 -54 -40 38 -137 325 -122 363 3 8 26 17 56 21 58 8
183 68 256 125 51 40 66 41 94 7z"/>
</g>
</svg>
