<?xml version="1.0" standalone="no"?>
<!DOCTYPE svg PUBLIC "-//W3C//DTD SVG 20010904//EN"
 "http://www.w3.org/TR/2001/REC-SVG-20010904/DTD/svg10.dtd">
<svg version="1.0" xmlns="http://www.w3.org/2000/svg"
 width="360.000000pt" height="360.000000pt" viewBox="0 0 360.000000 360.000000"
 preserveAspectRatio="xMidYMid meet">
<metadata>
Created by potrace 1.15, written by Peter Selinger 2001-2017
</metadata>
<g transform="translate(0.000000,360.000000) scale(0.100000,-0.100000)"
fill="#000000" stroke="none">
<path d="M1575 2970 c-71 -14 -155 -51 -155 -67 0 -8 14 -20 30 -26 57 -22 57
-22 -226 -422 -217 -307 -432 -547 -622 -696 -29 -22 -33 -31 -30 -65 2 -31 7
-40 24 -42 35 -5 144 78 279 213 99 99 155 166 234 280 239 344 449 594 513
610 20 5 63 -7 165 -46 l138 -53 120 -109 c324 -295 587 -469 795 -526 94 -26
151 -27 173 -3 10 10 17 24 17 31 0 38 -133 113 -325 182 -107 38 -135 54
-261 145 -345 250 -596 408 -712 449 -51 19 -60 25 -48 35 13 10 11 19 -12 66
-27 57 -29 57 -97 44z"/>
<path d="M1473 2450 c-18 -11 -33 -24 -33 -29 0 -12 191 -71 232 -71 60 0 92
66 50 103 -29 26 -205 24 -249 -3z"/>
<path d="M1870 2336 c-98 -34 -237 -114 -366 -209 -55 -40 -66 -44 -134 -50
-125 -9 -138 -24 -63 -72 l47 -29 150 52 c83 29 154 52 159 52 4 0 7 -24 7
-53 l0 -54 -65 -12 c-98 -18 -117 -28 -113 -65 2 -24 10 -34 36 -45 42 -19 41
-42 -3 -95 -19 -24 -35 -45 -35 -48 0 -3 11 -13 24 -22 24 -15 27 -14 106 50
l81 65 50 -31 c48 -29 52 -30 65 -13 21 28 17 42 -26 93 -22 26 -40 55 -40 65
0 9 10 50 21 90 l21 73 -26 38 c-14 21 -26 42 -26 46 0 4 31 24 70 43 57 29
74 33 95 25 15 -6 32 -10 39 -10 19 0 76 85 76 114 0 24 -3 26 -42 26 -24 0
-72 -11 -108 -24z"/>
<path d="M2006 2071 c-4 -5 3 -34 15 -64 l21 -54 -28 -89 c-39 -128 -88 -167
-307 -248 -104 -39 -408 -126 -439 -126 -26 0 -25 86 2 120 14 18 20 41 20 85
0 58 -2 62 -43 103 -50 50 -97 58 -97 19 0 -13 9 -32 20 -42 18 -16 20 -26 15
-74 -11 -87 -35 -203 -50 -231 -11 -22 -11 -31 1 -56 16 -34 100 -94 130 -94
33 0 121 33 219 83 l91 45 17 -29 c12 -22 14 -36 7 -54 -18 -47 -137 -117
-323 -191 l-99 -38 -36 19 c-21 11 -46 37 -57 58 -24 45 -51 46 -48 2 11 -223
51 -542 78 -631 21 -72 39 -85 72 -52 21 21 23 29 14 46 -6 11 -7 22 -2 24 4
2 -2 90 -14 196 l-21 194 179 89 c99 50 182 88 184 85 3 -3 -6 -32 -19 -64
-14 -32 -31 -84 -38 -116 -12 -58 -12 -59 16 -81 32 -26 8 -32 211 50 51 20
97 35 103 33 6 -2 -14 -43 -45 -91 -54 -87 -71 -147 -41 -147 45 0 186 150
245 262 l35 65 -30 42 c-28 41 -30 42 -74 36 -53 -6 -165 -58 -234 -108 -68
-50 -84 -37 -49 40 14 31 28 75 31 99 l5 44 96 31 c182 58 358 99 429 99 102
-1 181 -46 198 -115 15 -59 -111 -645 -139 -645 -2 0 -55 52 -117 115 -110
111 -132 127 -145 105 -8 -13 235 -399 250 -400 19 0 103 93 139 154 40 66 78
175 100 287 17 82 36 303 36 413 0 67 -1 69 -42 111 -58 58 -116 70 -301 61
-153 -7 -249 -24 -341 -61 -35 -14 -68 -25 -74 -25 -16 0 -16 152 0 168 7 7
22 12 34 12 13 0 29 9 38 21 13 19 18 20 71 9 47 -10 60 -9 79 4 33 21 104
131 170 264 61 122 61 118 12 185 -34 47 -113 75 -130 48z"/>
</g>
</svg>
