<?xml version="1.0" standalone="no"?>
<!DOCTYPE svg PUBLIC "-//W3C//DTD SVG 20010904//EN"
 "http://www.w3.org/TR/2001/REC-SVG-20010904/DTD/svg10.dtd">
<svg version="1.0" xmlns="http://www.w3.org/2000/svg"
 width="360.000000pt" height="360.000000pt" viewBox="0 0 360.000000 360.000000"
 preserveAspectRatio="xMidYMid meet">
<metadata>
Created by potrace 1.15, written by Peter Selinger 2001-2017
</metadata>
<g transform="translate(0.000000,360.000000) scale(0.100000,-0.100000)"
fill="#000000" stroke="none">
<path d="M1902 2680 c-66 -48 -166 -90 -318 -134 l-116 -33 27 -22 c18 -13 42
-21 68 -21 75 0 387 77 481 119 57 25 61 53 13 99 -46 45 -86 43 -155 -8z"/>
<path d="M1708 2396 l-37 -22 59 -69 c66 -78 77 -118 36 -129 -13 -3 -34 -17
-47 -32 -28 -30 -236 -171 -401 -272 -219 -134 -374 -202 -460 -202 -21 0 -38
-4 -38 -8 0 -4 19 -27 43 -50 36 -35 49 -42 83 -42 65 0 216 80 518 277 71 46
130 82 132 80 5 -5 -39 -136 -56 -168 -7 -13 -58 -75 -114 -139 -240 -273
-396 -485 -396 -537 0 -21 29 -53 48 -53 7 0 12 9 12 20 0 31 68 99 130 130
80 40 195 76 335 104 189 38 181 37 199 17 14 -16 15 -31 6 -132 -5 -63 -10
-166 -10 -230 0 -86 -4 -120 -14 -128 -10 -9 -41 17 -145 124 -125 128 -151
149 -151 124 0 -20 220 -444 255 -492 28 -37 41 -47 64 -47 63 0 81 101 90
494 l6 299 37 13 c33 11 53 8 260 -47 122 -32 226 -59 230 -59 4 0 14 -13 22
-28 44 -85 147 -146 267 -159 53 -5 62 -3 84 17 14 13 25 30 25 37 0 24 -57
99 -103 137 -122 100 -240 148 -422 171 -163 21 -329 52 -372 70 l-33 14 0
141 c0 100 5 157 17 200 15 55 15 61 0 78 -15 16 -15 23 -1 77 9 32 26 80 39
106 23 45 25 46 82 53 80 9 231 45 273 65 31 14 35 20 35 55 0 30 -6 43 -26
59 l-27 19 -153 -51 c-139 -46 -155 -50 -164 -35 -5 9 -29 43 -52 75 -66 91
-107 109 -165 75z m50 -568 c8 -8 8 -15 1 -24 -8 -10 -7 -62 2 -180 l12 -167
-27 -23 c-14 -13 -56 -33 -93 -44 -69 -21 -292 -64 -299 -58 -7 7 368 508 380
508 7 0 17 -5 24 -12z"/>
</g>
</svg>
