<?xml version="1.0" standalone="no"?>
<!DOCTYPE svg PUBLIC "-//W3C//DTD SVG 20010904//EN"
 "http://www.w3.org/TR/2001/REC-SVG-20010904/DTD/svg10.dtd">
<svg version="1.0" xmlns="http://www.w3.org/2000/svg"
 width="360.000000pt" height="360.000000pt" viewBox="0 0 360.000000 360.000000"
 preserveAspectRatio="xMidYMid meet">
<metadata>
Created by potrace 1.15, written by Peter Selinger 2001-2017
</metadata>
<g transform="translate(0.000000,360.000000) scale(0.100000,-0.100000)"
fill="#000000" stroke="none">
<path d="M1937 2682 c-18 -19 -27 -39 -27 -60 0 -27 4 -32 25 -32 45 0 48 -24
42 -275 -8 -317 -28 -432 -98 -583 -28 -60 -54 -99 -98 -143 -36 -36 -68 -59
-78 -57 -24 4 -39 56 -24 81 11 16 9 23 -10 43 -13 13 -19 30 -15 39 7 19 -21
65 -39 65 -8 0 -53 -43 -101 -95 -73 -79 -92 -95 -114 -93 -23 3 -25 7 -28 65
-3 58 1 70 47 160 l50 98 59 17 c104 31 139 79 89 126 -25 24 -93 30 -127 12
-16 -9 -20 -2 -34 60 -16 74 -45 138 -70 159 -19 16 -21 42 -4 59 6 6 38 17
71 23 67 14 121 46 125 75 2 14 -15 37 -52 72 -51 48 -58 52 -104 52 -55 0
-74 -14 -61 -45 20 -51 14 -56 -161 -170 -93 -60 -170 -116 -170 -124 0 -21
99 -6 174 25 98 41 91 43 115 -27 24 -71 26 -124 10 -201 -10 -46 -20 -61 -78
-117 -146 -140 -549 -453 -606 -470 -22 -7 -73 -24 -113 -38 -66 -23 -73 -28
-70 -50 2 -16 18 -36 44 -55 l41 -29 56 25 c32 14 105 66 169 119 256 214 442
347 483 347 22 0 12 -29 -162 -462 -157 -394 -183 -465 -174 -485 30 -65 107
20 209 229 l67 137 44 0 c40 1 43 -1 37 -21 -4 -13 -9 -144 -12 -293 -5 -258
-5 -271 14 -295 17 -20 23 -22 36 -11 9 7 18 35 22 61 l6 48 113 76 c304 207
476 381 507 514 9 35 18 52 28 51 8 0 121 -118 250 -261 254 -281 263 -289
395 -322 75 -19 241 -36 349 -36 88 0 121 13 115 44 -3 14 -39 28 -154 61
-181 52 -349 113 -470 170 l-90 43 -122 154 c-67 85 -149 183 -184 218 l-62
63 32 601 c17 331 31 609 31 618 0 10 -21 26 -56 42 -31 14 -57 26 -58 26 -1
0 -14 -13 -29 -28z m-353 -1074 c2 -7 11 -53 20 -103 20 -102 55 -188 84 -204
17 -9 27 -3 70 43 55 58 88 115 100 173 6 29 13 39 30 41 16 3 22 -2 22 -17 0
-29 -18 -73 -41 -97 -16 -17 -18 -25 -8 -51 14 -43 -3 -128 -41 -206 -57 -116
-189 -249 -363 -367 -147 -100 -145 -102 -122 222 9 139 23 268 30 288 21 61
65 141 118 218 38 56 55 72 74 72 13 0 25 -6 27 -12z m-314 -225 c0 -5 -15
-35 -33 -68 -22 -42 -39 -61 -54 -63 -13 -2 -23 -1 -23 2 0 11 92 136 101 136
5 0 9 -3 9 -7z"/>
<path d="M2364 2099 c-86 -44 -111 -66 -97 -87 6 -9 15 -16 20 -15 4 1 38 9
75 19 37 10 70 15 74 11 26 -25 -90 -159 -286 -330 -63 -55 -64 -56 -45 -76
10 -12 28 -21 39 -21 35 0 193 126 329 262 70 70 127 133 127 141 0 22 -67 93
-104 111 -47 22 -65 20 -132 -15z"/>
</g>
</svg>
