<?xml version="1.0" standalone="no"?>
<!DOCTYPE svg PUBLIC "-//W3C//DTD SVG 20010904//EN"
 "http://www.w3.org/TR/2001/REC-SVG-20010904/DTD/svg10.dtd">
<svg version="1.0" xmlns="http://www.w3.org/2000/svg"
 width="360.000000pt" height="360.000000pt" viewBox="0 0 360.000000 360.000000"
 preserveAspectRatio="xMidYMid meet">
<metadata>
Created by potrace 1.15, written by Peter Selinger 2001-2017
</metadata>
<g transform="translate(0.000000,360.000000) scale(0.100000,-0.100000)"
fill="#000000" stroke="none">
<path d="M1389 2573 c-1 -5 -2 -15 -3 -24 0 -9 -39 -48 -86 -86 -78 -64 -90
-70 -143 -77 -86 -10 -127 -29 -127 -60 0 -23 4 -26 35 -26 67 0 442 103 493
136 28 19 30 73 3 98 -34 31 -169 61 -172 39z"/>
<path d="M1350 2221 c0 -5 11 -37 24 -71 22 -59 22 -65 8 -114 -8 -28 -25 -66
-39 -84 -55 -74 -292 -235 -596 -406 l-138 -78 -48 31 c-72 47 -87 38 -57 -33
18 -44 61 -76 103 -76 57 0 328 150 608 337 44 29 81 49 83 43 7 -20 -30 -176
-60 -255 -50 -132 -125 -290 -219 -466 -49 -92 -89 -178 -89 -192 0 -31 33
-57 72 -57 23 0 37 15 104 115 70 105 123 210 124 243 0 8 9 12 23 10 19 -3
24 -12 34 -78 l13 -74 -34 -36 -34 -35 13 -97 c18 -121 40 -220 60 -258 18
-36 51 -48 73 -27 14 14 14 57 4 401 -11 371 -11 388 8 448 38 125 188 339
366 526 l79 82 83 -100 c46 -56 90 -100 100 -100 12 0 35 35 74 113 56 111
136 217 163 217 21 0 35 -33 35 -83 0 -102 -88 -302 -206 -466 -85 -118 -93
-119 -155 -8 -47 83 -63 96 -82 65 -8 -12 -3 -42 21 -121 18 -58 32 -126 32
-152 0 -44 -5 -52 -84 -143 -101 -117 -166 -209 -166 -234 0 -10 3 -18 8 -18
26 0 124 73 215 160 l107 102 37 -30 c65 -51 166 -101 248 -122 64 -16 111
-20 265 -20 l186 0 32 33 33 34 -89 114 c-129 165 -192 229 -225 229 -46 0
-33 -38 53 -163 44 -64 80 -123 80 -131 0 -33 -26 -38 -132 -27 -111 12 -167
26 -240 61 -60 28 -128 88 -153 133 l-19 35 76 99 c191 249 318 487 318 596 0
42 -33 78 -104 114 -60 30 -97 27 -158 -15 -44 -30 -122 -109 -170 -171 -28
-37 -48 -35 -48 6 0 34 -28 90 -54 108 -30 22 -59 18 -87 -11 -13 -14 -41 -39
-61 -56 l-38 -30 -30 22 -30 22 -89 -21 c-49 -12 -91 -21 -95 -21 -3 0 -6 17
-6 38 0 48 -18 112 -38 135 -16 18 -92 25 -92 8z m340 -258 c-1 -31 -224 -338
-248 -341 -17 -3 -22 2 -22 20 0 37 19 94 38 119 15 18 17 28 8 59 -17 65 21
101 144 141 70 23 80 23 80 2z"/>
<path d="M2677 1833 c-17 -16 -2 -31 59 -57 83 -37 169 -99 255 -188 l68 -70
25 19 c15 11 25 28 26 43 0 31 -57 117 -117 177 -65 65 -110 83 -219 83 -50 0
-94 -3 -97 -7z"/>
<path d="M1506 1473 c-3 -10 -8 -64 -12 -121 -8 -118 3 -142 62 -142 27 0 40
9 85 63 51 60 124 167 117 170 -1 1 -13 8 -25 14 -19 11 -28 8 -77 -32 -30
-25 -59 -45 -64 -45 -5 0 -12 19 -16 42 -4 23 -12 48 -18 55 -15 19 -46 16
-52 -4z"/>
</g>
</svg>
