<?xml version="1.0" standalone="no"?>
<!DOCTYPE svg PUBLIC "-//W3C//DTD SVG 20010904//EN"
 "http://www.w3.org/TR/2001/REC-SVG-20010904/DTD/svg10.dtd">
<svg version="1.0" xmlns="http://www.w3.org/2000/svg"
 width="360.000000pt" height="360.000000pt" viewBox="0 0 360.000000 360.000000"
 preserveAspectRatio="xMidYMid meet">
<metadata>
Created by potrace 1.15, written by Peter Selinger 2001-2017
</metadata>
<g transform="translate(0.000000,360.000000) scale(0.100000,-0.100000)"
fill="#000000" stroke="none">
<path d="M2185 2649 c-4 -6 23 -41 59 -79 l66 -68 0 -149 c-1 -272 -24 -354
-118 -414 -79 -50 -86 -43 -92 91 -5 125 -16 156 -56 166 -39 10 -49 -7 -35
-61 10 -39 8 -78 -10 -231 -21 -178 -21 -185 -4 -204 10 -11 25 -20 34 -20 9
1 54 34 101 75 52 46 94 75 107 75 21 0 23 -5 23 -45 0 -45 -3 -49 -212 -288
-116 -133 -219 -251 -229 -262 -16 -19 -16 -22 15 -62 l33 -41 126 74 c69 41
133 74 141 74 13 0 16 -12 16 -55 0 -46 -8 -71 -44 -143 -93 -186 -204 -325
-283 -359 -34 -14 -34 -15 -17 -34 60 -66 196 49 359 305 85 134 155 317 155
407 0 33 4 37 52 60 28 13 81 44 117 67 39 26 113 60 178 83 203 70 293 119
293 160 0 28 -22 33 -92 22 -56 -9 -78 -8 -165 12 -19 4 -23 1 -23 -18 0 -13
5 -28 11 -34 8 -8 -9 -18 -58 -37 -234 -88 -279 -104 -287 -96 -14 14 8 85 46
146 40 67 131 181 227 287 62 68 72 83 69 110 -3 31 -5 32 -45 30 -25 -1 -77
-18 -129 -42 -106 -50 -129 -53 -119 -13 4 15 9 100 12 188 6 195 -6 253 -62
303 -31 27 -43 31 -95 31 -32 0 -62 -5 -65 -11z m15 -1137 c0 -5 -11 -19 -25
-32 -28 -27 -36 -8 -8 22 17 19 33 24 33 10z"/>
<path d="M1613 2594 c-3 -8 0 -26 7 -39 7 -13 10 -30 7 -38 -3 -7 -92 -49
-198 -92 -314 -127 -285 -112 -264 -135 15 -16 31 -20 90 -20 62 0 90 7 226
58 154 59 260 108 312 144 60 42 23 107 -74 127 -69 15 -99 14 -106 -5z"/>
<path d="M1520 2238 c0 -13 9 -34 20 -48 16 -20 20 -41 20 -104 l0 -79 -43
-41 c-83 -79 -333 -244 -645 -426 -111 -65 -144 -80 -178 -80 -28 0 -46 6 -59
20 -17 19 -19 19 -37 4 -29 -27 -23 -73 16 -119 l34 -40 58 24 c82 33 259 131
497 272 130 78 209 119 223 117 22 -3 13 -25 -151 -393 l-173 -390 31 -33 c17
-18 37 -31 44 -30 7 2 72 91 143 198 l130 195 0 -166 0 -166 -30 -6 c-29 -6
-30 -8 -30 -65 0 -99 59 -290 101 -328 18 -16 20 -16 44 6 20 19 25 33 25 75
0 28 -5 56 -12 63 -9 9 -9 15 0 24 14 14 16 86 3 107 -6 9 -5 24 2 38 8 18 8
29 -1 43 -6 10 -8 20 -3 22 5 2 14 113 21 248 10 212 15 256 37 324 31 100
100 247 187 400 l67 119 -32 33 c-19 19 -40 32 -48 30 -9 -3 -33 -8 -53 -11
l-37 -7 -29 63 c-39 87 -76 129 -113 129 -23 0 -29 -4 -29 -22z m220 -329 c0
-12 -102 -137 -112 -138 -5 -1 -8 17 -8 39 0 35 5 43 46 75 47 35 74 44 74 24z"/>
<path d="M2530 1140 c0 -20 160 -205 339 -392 76 -80 99 -98 122 -98 28 0 29
2 29 48 0 115 -145 272 -375 405 -77 45 -115 58 -115 37z"/>
</g>
</svg>
