<?xml version="1.0" standalone="no"?>
<!DOCTYPE svg PUBLIC "-//W3C//DTD SVG 20010904//EN"
 "http://www.w3.org/TR/2001/REC-SVG-20010904/DTD/svg10.dtd">
<svg version="1.0" xmlns="http://www.w3.org/2000/svg"
 width="360.000000pt" height="360.000000pt" viewBox="0 0 360.000000 360.000000"
 preserveAspectRatio="xMidYMid meet">
<metadata>
Created by potrace 1.15, written by Peter Selinger 2001-2017
</metadata>
<g transform="translate(0.000000,360.000000) scale(0.100000,-0.100000)"
fill="#000000" stroke="none">
<path d="M2222 3117 c-32 -33 -41 -61 -23 -72 5 -3 12 -1 16 5 8 13 42 13 51
-1 3 -6 -13 -60 -36 -120 l-43 -109 -44 0 c-24 0 -81 9 -128 21 -82 21 -84 21
-109 3 -14 -11 -26 -22 -26 -26 0 -15 54 -42 129 -64 75 -22 76 -23 73 -54 -5
-68 -76 -165 -174 -236 l-48 -36 0 -64 c0 -99 16 -91 184 99 79 89 152 173
163 185 l18 23 139 -31 c77 -16 148 -30 157 -30 20 0 49 41 49 70 0 12 -13 28
-32 40 -37 22 -149 50 -203 50 -20 0 -38 6 -41 13 -3 8 22 53 56 102 58 85 60
91 60 152 0 54 -3 64 -22 77 -17 10 -110 36 -132 36 -1 0 -16 -15 -34 -33z"/>
<path d="M1420 2931 c-20 -11 -43 -34 -52 -54 -24 -50 -79 -88 -172 -119 -65
-21 -82 -31 -84 -48 -3 -19 0 -21 25 -16 15 3 64 10 108 16 206 29 360 67 390
96 19 20 19 58 0 78 -16 16 -102 50 -150 59 -20 4 -42 0 -65 -12z"/>
<path d="M1401 2641 c-26 -36 -26 -43 -1 -66 27 -25 27 -95 -2 -154 -55 -114
-357 -351 -663 -520 l-40 -22 -64 20 -64 20 -18 -22 c-29 -35 -23 -51 42 -111
69 -64 94 -69 162 -35 62 32 229 147 384 266 75 57 138 102 140 100 8 -9 -62
-249 -152 -527 -53 -162 -102 -314 -110 -336 -19 -60 -3 -88 52 -92 l41 -3 72
138 c40 76 93 170 119 208 42 65 46 68 49 42 2 -15 -4 -122 -12 -237 -23 -306
-23 -321 14 -348 37 -27 41 -27 68 1 21 22 22 32 22 210 l0 187 73 0 c63 0 79
4 118 28 48 31 185 170 264 269 27 34 51 60 53 58 2 -2 -3 -25 -11 -52 -27
-81 -47 -198 -53 -306 -6 -84 -4 -108 9 -134 23 -43 69 -54 103 -22 23 22 24
28 24 159 0 132 1 139 30 198 34 68 157 192 191 192 26 0 34 -22 20 -60 -7
-22 -7 -46 1 -85 8 -44 6 -101 -11 -287 -19 -196 -21 -275 -17 -498 7 -370 13
-447 37 -453 11 -3 19 -14 19 -25 0 -11 12 -27 26 -37 l27 -17 -6 63 c-4 41
-3 57 3 44 6 -13 9 18 10 95 1 63 5 140 9 170 6 35 5 60 -2 68 -7 9 -7 16 1
24 15 15 16 70 1 85 -7 7 -7 13 -1 17 6 4 6 21 0 48 -10 42 -4 318 8 365 6 21
9 19 79 -33 71 -54 74 -55 112 -45 73 20 135 105 167 228 11 40 16 105 16 190
0 72 5 167 11 213 11 82 11 83 -12 102 -13 10 -53 32 -89 50 -70 34 -112 38
-216 24 -61 -8 -61 -8 -68 19 -10 39 -31 68 -63 87 -27 16 -30 16 -61 -4 l-32
-20 30 -53 c16 -29 30 -60 30 -68 0 -9 -14 -32 -30 -51 -32 -36 -130 -106
-149 -106 -14 0 -14 109 -1 165 5 22 18 47 28 55 10 9 22 34 26 55 11 56 82
123 168 158 127 51 384 87 618 87 76 0 102 4 114 16 9 8 16 20 16 25 0 18 -51
57 -93 72 -39 13 -61 11 -364 -41 -178 -31 -325 -53 -328 -50 -3 3 0 28 6 56
l11 51 -44 55 c-24 30 -48 55 -54 55 -26 2 -31 -21 -18 -94 7 -40 10 -84 7
-97 -10 -37 -81 -103 -173 -158 -102 -61 -463 -240 -485 -240 -20 0 -19 8 10
85 l24 65 -23 0 c-26 0 -42 -15 -47 -44 -2 -11 -10 -21 -16 -24 -23 -7 -17
144 7 194 20 40 89 112 160 165 l34 26 -27 26 c-16 17 -37 27 -56 27 -26 0
-32 7 -59 65 -32 68 -71 115 -96 115 -8 0 -24 -13 -35 -29z m599 -586 c0 -17
-97 -195 -148 -270 -65 -97 -212 -268 -282 -328 -55 -47 -82 -48 -109 -3 -19
30 -21 49 -21 188 0 113 3 158 13 165 6 5 35 14 62 21 58 14 251 107 375 180
78 47 110 60 110 47z m605 -172 c14 -32 18 -357 5 -430 -13 -78 -35 -129 -58
-138 -9 -3 -47 15 -99 50 l-83 55 0 209 0 209 38 31 c34 28 43 30 113 31 64 0
78 -3 84 -17z"/>
<path d="M2281 284 c0 -11 3 -14 6 -6 3 7 2 16 -1 19 -3 4 -6 -2 -5 -13z"/>
</g>
</svg>
