<?xml version="1.0" standalone="no"?>
<!DOCTYPE svg PUBLIC "-//W3C//DTD SVG 20010904//EN"
 "http://www.w3.org/TR/2001/REC-SVG-20010904/DTD/svg10.dtd">
<svg version="1.0" xmlns="http://www.w3.org/2000/svg"
 width="360.000000pt" height="360.000000pt" viewBox="0 0 360.000000 360.000000"
 preserveAspectRatio="xMidYMid meet">
<metadata>
Created by potrace 1.15, written by Peter Selinger 2001-2017
</metadata>
<g transform="translate(0.000000,360.000000) scale(0.100000,-0.100000)"
fill="#000000" stroke="none">
<path d="M1460 2886 c0 -14 9 -35 19 -45 21 -21 109 -51 148 -51 22 0 23 -3
23 -74 0 -90 -15 -113 -103 -157 -66 -34 -256 -99 -288 -99 -11 0 -37 9 -59
20 -46 24 -51 24 -74 7 -16 -12 -17 -16 -3 -49 8 -19 29 -45 46 -58 51 -36 96
-36 177 -1 218 93 470 173 684 218 99 20 156 26 272 27 l147 1 30 -29 c57 -54
45 -68 -129 -158 -58 -30 -147 -73 -197 -96 -74 -34 -93 -47 -93 -64 0 -19 4
-20 53 -15 70 9 225 62 417 144 152 65 160 69 160 96 0 66 -54 141 -145 201
-50 34 -59 36 -132 36 -207 0 -453 -32 -539 -70 -40 -17 -42 -17 -74 3 -29 18
-32 24 -26 58 3 20 8 44 12 52 3 8 -7 28 -21 45 -32 38 -120 68 -230 78 l-75
7 0 -27z"/>
<path d="M929 2541 l-23 -19 38 -87 38 -88 -36 -143 c-52 -206 -48 -228 35
-222 l43 3 23 90 c19 76 23 117 23 256 l0 165 -33 32 c-38 37 -74 41 -108 13z"/>
<path d="M1803 2289 c-8 -8 2 -40 36 -116 l46 -106 -29 -21 c-133 -95 -311
-250 -467 -405 -102 -103 -194 -198 -204 -214 -17 -27 -17 -28 1 -48 11 -12
35 -29 55 -39 l36 -19 107 35 c60 18 112 31 117 28 18 -11 8 -39 -38 -113
-102 -166 -255 -368 -373 -495 -33 -35 -60 -70 -60 -79 0 -23 11 -47 21 -47
19 0 196 180 334 340 208 241 385 463 385 481 0 54 96 107 245 138 l99 20 23
-21 c13 -12 23 -31 23 -42 0 -28 -113 -368 -155 -466 -91 -212 -213 -421 -278
-476 -17 -15 -48 -34 -67 -42 -33 -14 -35 -13 -58 14 -77 93 -142 230 -142
300 0 18 -5 24 -21 24 -21 0 -22 -3 -17 -97 6 -116 31 -190 88 -262 45 -57
119 -111 151 -111 35 0 222 196 302 316 123 185 243 468 312 737 l28 108 -31
32 c-17 18 -56 46 -86 62 l-54 29 -111 -23 -111 -22 -57 30 c-35 19 -71 31
-95 31 -35 0 -38 -2 -38 -28 0 -81 -112 -178 -263 -227 -145 -47 -146 -37 -10
96 126 123 291 252 444 345 86 53 100 59 170 65 95 8 119 20 119 58 0 22 -6
30 -23 35 -36 9 -165 96 -228 154 -58 53 -100 67 -126 41z"/>
<path d="M1385 2143 c3 -15 7 -30 8 -34 1 -3 -40 -65 -90 -136 -51 -72 -93
-139 -93 -150 0 -10 15 -34 34 -52 l34 -33 43 51 c64 74 117 166 141 244 l20
69 -33 34 c-42 43 -74 47 -64 7z"/>
</g>
</svg>
