<?xml version="1.0" standalone="no"?>
<!DOCTYPE svg PUBLIC "-//W3C//DTD SVG 20010904//EN"
 "http://www.w3.org/TR/2001/REC-SVG-20010904/DTD/svg10.dtd">
<svg version="1.0" xmlns="http://www.w3.org/2000/svg"
 width="360.000000pt" height="360.000000pt" viewBox="0 0 360.000000 360.000000"
 preserveAspectRatio="xMidYMid meet">
<metadata>
Created by potrace 1.15, written by Peter Selinger 2001-2017
</metadata>
<g transform="translate(0.000000,360.000000) scale(0.100000,-0.100000)"
fill="#000000" stroke="none">
<path d="M1743 3157 c-106 -19 -113 -22 -113 -44 0 -19 5 -23 33 -23 41 0 188
-37 201 -50 20 -20 45 -9 75 32 17 23 31 48 31 55 0 15 -75 53 -100 51 -8 0
-66 -10 -127 -21z"/>
<path d="M2030 2964 c-47 -19 -188 -86 -315 -149 -126 -64 -254 -121 -282
-128 -50 -11 -53 -13 -53 -43 0 -44 33 -54 123 -41 37 6 69 8 72 5 3 -3 -8
-61 -25 -129 -30 -116 -32 -156 -14 -204 4 -10 -50 -42 -185 -109 -336 -169
-553 -256 -635 -256 -31 0 -36 -3 -36 -24 0 -38 58 -76 118 -76 44 0 76 14
288 126 360 190 397 207 558 263 267 92 526 156 744 184 85 11 104 11 113 0
14 -17 128 -17 216 -1 60 11 67 10 106 -11 35 -19 47 -21 70 -12 24 9 27 16
27 56 0 46 0 46 -55 71 -30 14 -69 27 -87 30 -18 3 -183 -8 -366 -25 -382 -36
-372 -35 -372 -18 0 6 22 46 49 87 34 52 46 80 41 91 -12 22 -107 71 -132 67
-11 -2 -26 -11 -32 -20 -8 -13 -5 -23 14 -43 23 -24 23 -27 8 -58 -41 -84
-186 -247 -220 -247 -24 0 -24 2 -17 53 4 28 8 67 8 85 1 31 -1 33 -26 30 -21
-2 -33 -13 -47 -43 -32 -68 -47 -88 -58 -77 -13 13 15 112 49 166 69 111 193
210 328 260 134 50 215 94 215 116 0 20 -61 61 -88 59 -9 -1 -55 -16 -102 -35z"/>
<path d="M1767 2108 c-231 -121 -250 -130 -273 -117 -21 11 -27 10 -39 -2 -13
-13 -10 -32 25 -154 43 -154 77 -245 104 -276 14 -17 16 -31 10 -75 l-6 -54
37 0 c29 0 61 15 141 65 57 36 113 65 124 65 21 0 40 -33 40 -70 0 -24 -404
-261 -567 -331 -65 -29 -120 -53 -122 -55 -2 -2 4 -13 15 -25 15 -16 26 -20
55 -15 50 8 180 62 392 162 100 47 192 88 205 91 l22 5 0 -391 0 -392 58 -105
c41 -76 58 -99 59 -82 33 363 35 436 23 718 l-12 284 22 18 c53 43 234 66 387
51 105 -11 109 -11 131 10 49 46 -2 97 -116 117 -62 11 -80 10 -228 -19 -88
-17 -168 -31 -177 -31 -14 0 -17 10 -17 54 l0 54 36 7 c51 9 130 87 181 177
46 80 133 296 133 330 0 13 -21 42 -50 70 l-50 48 -147 -1 -148 0 -248 -131z
m500 6 c3 -8 1 -25 -5 -37 -5 -12 -15 -47 -21 -77 -14 -67 -66 -146 -124 -187
-80 -57 -259 -135 -275 -119 -3 4 49 59 117 123 l122 116 -23 24 c-27 29 -52
26 -147 -18 -49 -22 -217 -118 -240 -135 -13 -11 29 -35 70 -40 l48 -6 -47
-44 c-29 -27 -57 -43 -72 -44 -24 0 -28 8 -57 97 -18 53 -30 100 -27 104 7 13
179 131 251 174 122 73 164 84 301 85 102 0 124 -3 129 -16z"/>
</g>
</svg>
