<?xml version="1.0" standalone="no"?>
<!DOCTYPE svg PUBLIC "-//W3C//DTD SVG 20010904//EN"
 "http://www.w3.org/TR/2001/REC-SVG-20010904/DTD/svg10.dtd">
<svg version="1.0" xmlns="http://www.w3.org/2000/svg"
 width="360.000000pt" height="360.000000pt" viewBox="0 0 360.000000 360.000000"
 preserveAspectRatio="xMidYMid meet">
<metadata>
Created by potrace 1.15, written by Peter Selinger 2001-2017
</metadata>
<g transform="translate(0.000000,360.000000) scale(0.100000,-0.100000)"
fill="#000000" stroke="none">
<path d="M1735 2850 c-71 -10 -149 -19 -172 -19 -36 -1 -43 -4 -43 -21 0 -24
32 -54 85 -80 37 -18 48 -19 101 -9 54 10 169 7 252 -8 l32 -5 0 50 c0 47 -3
53 -39 81 -44 35 -40 35 -216 11z"/>
<path d="M1750 2535 c-162 -79 -303 -144 -312 -145 -9 0 -20 5 -23 10 -7 11
-65 -18 -65 -31 0 -17 76 -69 100 -69 14 0 59 9 100 20 41 11 80 20 87 20 7 0
-10 -35 -38 -79 -86 -134 -113 -241 -90 -359 7 -36 6 -44 -10 -52 -10 -6 -186
-76 -391 -155 -284 -111 -391 -148 -448 -156 -84 -12 -143 -36 -148 -60 -5
-26 75 -79 119 -79 24 0 150 47 375 141 186 77 394 163 461 190 276 110 663
199 1173 270 147 20 155 20 184 3 20 -11 59 -19 123 -22 80 -4 96 -2 113 13
11 10 20 24 20 31 0 21 -69 71 -119 85 -93 28 -316 11 -765 -56 -126 -19 -232
-33 -234 -30 -2 2 48 63 113 136 l117 132 -43 39 c-43 37 -46 39 -105 35 -74
-5 -146 -36 -259 -112 -45 -30 -84 -55 -88 -55 -25 0 9 43 122 152 98 95 147
135 207 167 100 54 144 87 144 109 0 24 -51 52 -92 51 -21 0 -139 -52 -328
-144z m205 -315 c9 -15 -175 -216 -249 -271 -49 -36 -87 -39 -78 -6 7 29 147
169 236 235 72 54 81 58 91 42z"/>
<path d="M2120 1819 c-111 -31 -296 -96 -370 -131 -47 -22 -132 -57 -190 -78
-182 -64 -196 -77 -140 -135 29 -29 32 -42 57 -201 14 -93 35 -203 47 -244
l21 -75 56 1 c76 1 153 29 184 66 15 18 31 28 40 24 20 -7 19 -19 -4 -64 -18
-34 -31 -42 -149 -90 l-130 -54 38 -34 c20 -19 44 -34 51 -34 8 0 49 11 92 25
l78 24 -3 -31 c-3 -29 -15 -38 -185 -132 -123 -68 -182 -107 -183 -118 0 -18
39 -53 70 -63 10 -3 139 30 286 75 l267 80 133 0 c107 0 159 -5 256 -26 l122
-26 23 28 c32 40 29 67 -11 102 -50 44 -108 52 -357 52 l-221 0 76 81 c87 94
142 171 155 216 8 27 6 35 -14 53 l-23 22 -96 -22 c-53 -12 -101 -20 -107 -18
-6 2 6 17 27 33 175 131 349 312 409 427 34 64 58 149 49 173 -8 19 -73 51
-162 79 -87 27 -133 31 -192 15z m95 -128 c79 -18 80 -18 79 -48 -3 -49 -69
-177 -119 -226 -27 -27 -63 -51 -92 -61 -45 -16 -103 -21 -103 -11 0 3 23 40
51 81 58 87 60 115 8 133 -18 6 -40 11 -50 11 -14 0 -19 7 -19 28 0 37 15 55
70 86 53 30 70 31 175 7z m-360 -137 c21 -22 20 -23 -134 -119 l-124 -77 -18
23 c-26 35 -45 82 -33 86 5 2 61 26 124 53 124 53 160 59 185 34z m-126 -304
c-53 -50 -82 -69 -101 -70 -27 0 -28 2 -28 49 l0 48 68 21 c37 11 82 20 101
21 l35 1 -75 -70z"/>
</g>
</svg>
