<?xml version="1.0" standalone="no"?>
<!DOCTYPE svg PUBLIC "-//W3C//DTD SVG 20010904//EN"
 "http://www.w3.org/TR/2001/REC-SVG-20010904/DTD/svg10.dtd">
<svg version="1.0" xmlns="http://www.w3.org/2000/svg"
 width="360.000000pt" height="360.000000pt" viewBox="0 0 360.000000 360.000000"
 preserveAspectRatio="xMidYMid meet">
<metadata>
Created by potrace 1.15, written by Peter Selinger 2001-2017
</metadata>
<g transform="translate(0.000000,360.000000) scale(0.100000,-0.100000)"
fill="#000000" stroke="none">
<path d="M1953 3133 c-39 -13 -57 -36 -282 -347 -132 -183 -249 -343 -260
-357 -20 -24 -20 -24 -21 -2 0 37 -47 81 -105 99 l-54 17 80 158 c43 88 79
168 79 180 0 23 -102 129 -124 129 -21 0 -34 -23 -25 -45 37 -92 -31 -243
-238 -527 l-96 -131 24 -18 c39 -30 65 -23 142 40 81 66 144 101 182 101 23 0
25 -4 25 -44 0 -50 23 -121 47 -148 9 -10 34 -23 55 -30 43 -13 46 -20 18 -55
-20 -26 -26 -58 -12 -67 4 -2 52 27 107 64 55 38 103 69 108 70 19 1 3 -43
-31 -87 -44 -54 -120 -113 -249 -191 l-88 -52 -27 32 -27 33 -45 -45 c-26 -24
-46 -53 -46 -65 0 -12 18 -38 39 -59 l40 -39 50 17 c52 17 165 79 176 96 3 6
15 10 26 10 17 0 13 -14 -40 -117 -122 -238 -252 -407 -354 -457 -28 -14 -59
-26 -69 -26 -10 0 -18 -5 -18 -10 0 -15 61 -50 86 -50 68 0 302 219 383 359
78 135 152 216 225 246 47 20 68 19 99 -5 23 -18 77 -115 77 -138 0 -4 -44
-37 -97 -72 -104 -68 -240 -191 -308 -280 -47 -62 -105 -160 -105 -179 0 -28
44 -50 101 -51 68 0 135 31 260 120 48 34 92 59 103 58 11 -2 29 -19 40 -38
20 -34 21 -52 24 -487 2 -377 5 -453 17 -453 16 0 41 71 62 178 11 58 16 178
20 487 4 363 7 412 21 429 28 31 153 84 252 105 51 12 99 26 107 32 9 8 13 27
11 53 l-3 41 -60 -3 c-74 -3 -161 -25 -240 -61 l-61 -28 -12 26 c-18 38 -15
84 8 109 42 45 173 96 378 147 96 24 109 25 189 14 l85 -11 35 34 c22 23 32
40 28 51 -26 65 -410 135 -603 109 -105 -14 -226 -48 -350 -97 -73 -29 -89
-32 -100 -21 -12 11 -10 21 8 57 35 69 86 126 164 180 105 75 152 96 231 104
119 13 147 35 105 81 -25 26 -86 34 -107 13 -8 -8 -16 -7 -30 2 -17 10 -27 6
-72 -25 -52 -35 -127 -63 -139 -51 -3 3 4 37 16 75 21 65 27 72 87 115 101 72
243 195 329 285 l78 82 -30 31 -31 31 -98 -12 c-122 -14 -136 -7 -104 56 30
58 29 154 -2 203 l-22 36 -42 -14z m-43 -166 c0 -2 -11 -37 -25 -77 -14 -40
-25 -85 -25 -100 0 -41 40 -72 100 -78 28 -2 52 -8 54 -11 8 -12 -99 -135
-149 -173 -27 -20 -70 -43 -95 -49 -40 -10 -51 -19 -84 -69 -20 -32 -60 -80
-89 -107 -52 -50 -144 -110 -153 -101 -6 7 58 152 124 284 105 209 290 484
325 484 9 0 17 -1 17 -3z m297 -1084 c4 -11 -259 -153 -283 -153 -5 0 -17 15
-25 33 -10 23 -22 33 -41 35 -25 3 -28 8 -28 38 0 19 1 34 3 35 1 1 54 7 117
14 139 15 252 15 257 -2z m-397 -375 c0 -40 -95 -126 -230 -207 -119 -72 -144
-68 -96 14 45 76 226 205 288 205 23 0 38 -5 38 -12z"/>
</g>
</svg>
