<?xml version="1.0" standalone="no"?>
<!DOCTYPE svg PUBLIC "-//W3C//DTD SVG 20010904//EN"
 "http://www.w3.org/TR/2001/REC-SVG-20010904/DTD/svg10.dtd">
<svg version="1.0" xmlns="http://www.w3.org/2000/svg"
 width="360.000000pt" height="360.000000pt" viewBox="0 0 360.000000 360.000000"
 preserveAspectRatio="xMidYMid meet">
<metadata>
Created by potrace 1.15, written by Peter Selinger 2001-2017
</metadata>
<g transform="translate(0.000000,360.000000) scale(0.100000,-0.100000)"
fill="#000000" stroke="none">
<path d="M1812 2785 c-113 -121 -277 -376 -400 -622 -23 -45 -46 -85 -53 -88
-20 -13 -34 15 -46 92 -13 86 -37 126 -76 131 -15 2 -27 5 -27 7 0 3 14 38 30
80 17 42 30 89 30 106 0 55 -41 109 -109 144 -32 16 -34 16 -56 -5 l-23 -22
19 -32 c52 -85 7 -199 -203 -523 -80 -123 -91 -155 -58 -175 12 -8 41 16 130
107 118 120 182 175 207 175 7 0 18 -12 23 -26 28 -72 84 -172 112 -197 23
-22 38 -28 59 -25 l29 5 -31 -56 c-93 -166 -316 -495 -562 -829 -109 -149
-122 -163 -145 -157 -84 21 -98 15 -121 -54 -16 -48 3 -85 47 -89 26 -3 44 6
95 46 133 107 289 283 439 495 39 56 75 106 79 111 5 5 25 -3 48 -18 45 -31
104 -55 139 -56 l24 0 -27 -31 c-32 -38 -62 -96 -82 -158 -20 -63 -29 -301
-14 -399 14 -90 59 -188 98 -217 48 -35 207 -20 250 23 14 14 55 23 167 36 81
10 176 26 210 35 l61 16 3 58 c3 57 2 59 -27 70 -17 6 -31 16 -31 22 0 6 14
32 30 58 107 169 146 312 98 357 -25 23 -95 46 -168 56 -93 12 -227 -46 -452
-197 l-118 -78 0 78 c0 70 3 82 31 124 41 62 134 139 299 247 197 129 178 110
150 154 -22 37 -25 38 -65 33 -53 -8 -215 -62 -375 -127 -135 -55 -154 -58
-169 -33 -16 30 55 144 232 367 l70 88 41 -6 c94 -15 223 -96 457 -285 273
-221 584 -383 816 -423 63 -10 74 -10 97 5 32 22 34 56 4 84 -13 11 -63 32
-113 48 -297 90 -561 227 -715 370 -51 48 -115 89 -292 185 -258 141 -268 151
-175 184 135 47 295 156 448 304 l110 105 -33 34 c-38 39 -58 41 -170 12 -44
-11 -82 -18 -84 -16 -3 2 7 51 21 108 31 130 32 159 1 192 -20 21 -95 67 -110
67 -2 0 -36 -34 -74 -75z m12 -237 l-43 -173 31 -32 c38 -39 71 -42 129 -12
70 35 64 16 -16 -59 -109 -102 -199 -144 -317 -150 -57 -3 -88 -1 -88 6 0 17
120 312 158 387 65 130 126 205 167 205 23 0 23 0 -21 -172z m172 -1495 c-19
-144 -138 -281 -341 -397 -66 -38 -89 -46 -132 -46 -50 0 -52 1 -63 36 -8 23
-9 39 -3 43 6 3 13 30 16 59 16 139 129 240 355 318 53 18 114 33 136 34 l39
0 -7 -47z"/>
</g>
</svg>
