<?xml version="1.0" standalone="no"?>
<!DOCTYPE svg PUBLIC "-//W3C//DTD SVG 20010904//EN"
 "http://www.w3.org/TR/2001/REC-SVG-20010904/DTD/svg10.dtd">
<svg version="1.0" xmlns="http://www.w3.org/2000/svg"
 width="360.000000pt" height="360.000000pt" viewBox="0 0 360.000000 360.000000"
 preserveAspectRatio="xMidYMid meet">
<metadata>
Created by potrace 1.15, written by Peter Selinger 2001-2017
</metadata>
<g transform="translate(0.000000,360.000000) scale(0.100000,-0.100000)"
fill="#000000" stroke="none">
<path d="M2047 3202 c-19 -21 -23 -82 -6 -99 8 -8 -12 -60 -75 -194 -47 -100
-86 -188 -86 -194 0 -7 6 -18 13 -24 20 -16 83 8 212 83 60 36 113 62 117 60
20 -12 6 -43 -23 -53 -17 -6 -63 -41 -102 -79 -58 -55 -86 -74 -147 -97 -106
-40 -242 -109 -330 -168 -75 -49 -206 -152 -216 -168 -3 -5 9 -27 26 -50 l32
-40 -7 -132 c-10 -181 -7 -304 10 -419 15 -103 37 -168 55 -168 6 0 97 47 201
106 104 58 193 103 198 100 5 -3 12 -21 15 -40 9 -46 39 -82 82 -96 19 -7 33
-17 32 -22 -2 -6 -58 -25 -123 -44 -66 -18 -153 -46 -194 -63 -101 -42 -131
-41 -194 9 -30 25 -59 40 -71 38 -18 -3 -20 -9 -17 -43 9 -93 46 -68 -388
-261 -339 -151 -399 -175 -428 -169 -19 3 -37 13 -40 21 -5 12 -10 11 -29 -7
-51 -48 -18 -109 62 -116 47 -5 76 5 418 146 309 127 416 165 416 148 0 -1
-29 -74 -64 -162 l-65 -160 42 -42 c50 -52 73 -55 92 -10 15 37 38 151 55 277
14 102 34 137 103 182 71 47 137 73 254 102 196 49 230 46 210 -19 -7 -26 -7
-53 1 -99 7 -35 12 -120 12 -189 0 -136 21 -323 45 -402 13 -46 13 -53 -5 -90
-34 -71 -52 -239 -28 -263 19 -19 56 -14 72 11 19 31 33 78 60 205 23 106 23
116 10 214 -20 148 -36 610 -22 648 25 72 151 95 472 86 116 -3 229 -8 251
-11 39 -6 42 -5 60 28 23 43 16 61 -32 86 -83 42 -146 51 -292 41 -141 -10
-319 -38 -406 -65 -27 -8 -53 -15 -56 -15 -3 0 -29 29 -57 64 l-52 64 0 289
c0 264 9 399 35 560 5 27 1 34 -30 53 -51 31 -44 58 20 84 93 37 259 160 300
222 15 23 15 26 -12 64 -15 22 -34 40 -41 40 -7 0 -69 -9 -139 -20 -69 -11
-128 -18 -131 -16 -2 3 14 56 37 118 47 128 48 138 23 161 -26 24 -113 23
-135 -1z m-21 -772 c-4 -19 -9 -65 -13 -102 -6 -65 -6 -66 -30 -57 -60 22
-165 3 -303 -56 -45 -19 -84 -35 -86 -35 -4 0 -64 116 -64 125 0 3 10 5 23 5
12 1 105 45 206 99 l185 99 44 -21 c42 -21 44 -23 38 -57z m-16 -365 c0 -84 5
-178 11 -207 9 -39 9 -53 0 -56 -6 -2 -11 -12 -11 -21 0 -15 -12 -19 -82 -24
-46 -4 -95 -9 -110 -13 -45 -10 -34 13 47 106 41 47 75 94 75 106 0 31 -32 54
-84 62 l-45 7 86 98 c47 53 92 97 99 97 11 0 14 -30 14 -155z m-321 -31 c-57
-57 -107 -104 -112 -104 -4 0 -7 35 -5 77 3 74 4 78 34 95 43 25 178 59 183
46 2 -6 -43 -57 -100 -114z m31 -192 c0 -4 -23 -34 -51 -65 -35 -40 -58 -57
-75 -57 -23 0 -24 3 -24 65 l0 65 75 0 c41 0 75 -4 75 -8z"/>
<path d="M1255 2958 c5 -29 8 -66 7 -81 -2 -36 -56 -149 -121 -252 -28 -43
-51 -89 -51 -100 0 -18 37 -65 51 -65 2 0 33 27 68 60 70 65 147 109 209 117
l39 5 12 -46 c11 -46 72 -126 95 -126 16 0 179 331 175 355 -3 12 -12 20 -24
20 -15 0 -30 -20 -60 -82 -45 -92 -63 -101 -120 -63 -20 13 -47 20 -83 20 -37
0 -54 4 -58 15 -3 8 5 48 19 89 l25 75 -21 33 c-27 40 -69 64 -126 72 l-44 7
8 -53z"/>
</g>
</svg>
