<?xml version="1.0" standalone="no"?>
<!DOCTYPE svg PUBLIC "-//W3C//DTD SVG 20010904//EN"
 "http://www.w3.org/TR/2001/REC-SVG-20010904/DTD/svg10.dtd">
<svg version="1.0" xmlns="http://www.w3.org/2000/svg"
 width="360.000000pt" height="360.000000pt" viewBox="0 0 360.000000 360.000000"
 preserveAspectRatio="xMidYMid meet">
<metadata>
Created by potrace 1.15, written by Peter Selinger 2001-2017
</metadata>
<g transform="translate(0.000000,360.000000) scale(0.100000,-0.100000)"
fill="#000000" stroke="none">
<path d="M1923 2832 c-89 -74 -98 -86 -239 -304 -99 -156 -151 -228 -163 -228
-10 0 -26 10 -37 21 -28 31 -97 77 -127 85 -15 3 -27 7 -27 9 0 1 9 28 20 60
11 32 20 71 20 87 0 41 -24 93 -51 112 -33 22 -92 21 -114 -3 -16 -19 -16 -21
4 -50 51 -71 13 -181 -126 -370 l-76 -103 20 -20 21 -20 151 97 152 98 42 -31
c36 -25 43 -37 50 -78 11 -68 30 -86 85 -82 41 3 45 6 56 38 9 27 17 36 39 38
27 3 27 2 27 -52 l0 -55 -72 -61 c-134 -114 -300 -200 -384 -200 -37 0 -31
-34 12 -59 19 -12 43 -21 52 -21 9 1 78 33 152 72 299 156 344 178 448 212
193 63 337 90 557 102 101 6 122 4 133 -8 28 -34 -14 -69 -123 -104 -52 -16
-71 -27 -73 -42 -3 -19 -1 -19 85 -6 223 36 363 71 363 92 0 14 -40 46 -111
91 l-66 41 -191 0 c-105 0 -225 -5 -267 -11 -56 -9 -79 -9 -89 0 -10 9 -44 1
-145 -35 -127 -44 -133 -45 -152 -29 -11 11 -19 31 -19 49 0 46 -33 92 -75
106 -43 14 -44 6 31 173 101 223 181 337 235 337 l29 0 0 -82 0 -83 37 -24
c34 -22 41 -23 86 -12 28 6 52 9 55 6 14 -14 -32 -80 -110 -156 -87 -85 -111
-129 -70 -129 23 0 223 162 294 239 67 72 79 102 52 133 -18 19 -26 20 -109
14 -49 -3 -100 -9 -112 -12 -23 -6 -23 -5 -23 98 0 89 -3 107 -18 121 -10 10
-25 17 -33 17 -8 0 -55 -35 -106 -78z"/>
<path d="M1887 1835 c-75 -26 -146 -66 -234 -132 -58 -43 -88 -51 -123 -33
-15 8 -21 6 -30 -9 -8 -16 -5 -23 16 -40 l25 -20 -16 -58 c-11 -41 -19 -143
-26 -353 -17 -463 -4 -701 42 -756 10 -13 15 -12 36 7 l23 23 -21 22 -21 23
21 29 c17 25 21 45 21 110 l0 79 38 -9 c31 -9 63 -3 199 31 147 37 174 41 286
41 137 0 153 6 141 54 -9 38 -63 75 -128 88 -31 7 -56 17 -56 23 0 5 43 65 95
132 97 125 111 156 80 187 -47 46 -197 47 -310 2 -38 -16 -130 -57 -204 -92
-74 -35 -135 -64 -137 -64 -2 0 -4 36 -4 79 l0 79 46 41 c62 54 134 88 219
104 l70 12 104 164 c99 157 103 166 90 190 -19 33 -93 71 -138 71 -20 0 -67
-11 -104 -25z m63 -105 c0 -38 -30 -97 -72 -145 -31 -36 -202 -155 -222 -155
-23 0 -37 58 -34 137 l3 78 70 5 c62 5 79 11 155 58 47 29 88 52 93 52 4 0 7
-14 7 -30z m110 -559 c0 -33 -10 -54 -61 -121 -107 -142 -250 -240 -350 -240
-68 0 -73 10 -59 122 6 51 14 96 18 100 4 3 41 16 82 28 104 31 237 87 285
120 22 16 50 29 63 29 19 1 22 -4 22 -38z"/>
<path d="M851 1594 c-51 -236 -52 -246 -34 -259 25 -20 47 -18 66 3 19 21 22
48 6 57 -7 5 -5 12 5 23 17 20 48 139 71 275 15 90 15 101 0 123 -9 14 -25 24
-38 24 -22 0 -26 -12 -76 -246z"/>
</g>
</svg>
