<?xml version="1.0" standalone="no"?>
<!DOCTYPE svg PUBLIC "-//W3C//DTD SVG 20010904//EN"
 "http://www.w3.org/TR/2001/REC-SVG-20010904/DTD/svg10.dtd">
<svg version="1.0" xmlns="http://www.w3.org/2000/svg"
 width="360.000000pt" height="360.000000pt" viewBox="0 0 360.000000 360.000000"
 preserveAspectRatio="xMidYMid meet">
<metadata>
Created by potrace 1.15, written by Peter Selinger 2001-2017
</metadata>
<g transform="translate(0.000000,360.000000) scale(0.100000,-0.100000)"
fill="#000000" stroke="none">
<path d="M1870 3041 c-134 -26 -287 -174 -433 -421 -32 -52 -57 -103 -57 -112
0 -22 2 -22 -90 2 -41 11 -94 20 -118 20 l-43 0 57 109 c49 93 56 113 50 144
-9 51 -46 99 -95 126 -37 20 -45 22 -57 9 -13 -12 -12 -25 7 -94 l21 -80 -32
-65 c-43 -85 -104 -178 -173 -264 l-56 -70 22 -23 c43 -47 50 -46 118 18 80
75 147 110 209 110 55 0 62 -10 79 -109 11 -71 34 -114 58 -109 9 2 33 48 59
113 100 248 215 447 313 538 51 48 101 64 101 32 0 -8 -47 -80 -105 -161 -58
-81 -105 -150 -105 -154 0 -3 13 -19 29 -34 l30 -29 103 42 c118 47 138 50
138 20 0 -22 -226 -269 -247 -269 -6 0 -40 13 -76 29 l-65 29 -12 -23 c-11
-20 -7 -31 40 -100 32 -47 48 -81 43 -86 -5 -5 -72 -50 -148 -99 -90 -59 -148
-90 -166 -90 -44 0 -132 -21 -157 -37 l-24 -15 23 -24 c27 -29 76 -32 164 -9
66 17 171 63 215 95 21 15 44 20 87 20 52 0 61 -3 70 -22 6 -13 61 -146 123
-296 129 -310 126 -281 37 -379 -45 -48 -186 -153 -208 -153 -24 0 -6 38 25
53 19 9 53 39 75 67 33 42 41 60 41 94 0 59 -21 76 -93 76 -47 0 -70 -7 -139
-43 -46 -23 -108 -61 -139 -85 -170 -129 -57 48 218 340 40 43 73 82 73 87 0
5 -6 13 -13 19 -9 8 -68 -19 -227 -103 -206 -109 -254 -127 -276 -105 -7 7
-16 4 -29 -10 -18 -20 -18 -21 15 -55 19 -19 40 -35 47 -35 8 0 41 11 74 26
34 14 65 24 69 22 5 -2 -20 -45 -54 -96 -109 -159 -179 -314 -192 -426 -6 -46
-3 -58 17 -85 33 -45 54 -41 68 17 18 69 62 131 160 224 90 86 222 183 239
177 6 -2 -57 -91 -140 -197 -149 -192 -150 -193 -141 -230 8 -31 13 -37 34
-35 52 6 72 15 117 57 26 24 62 48 79 54 78 26 330 226 391 309 11 15 22 26
25 23 2 -3 46 -61 97 -130 209 -278 461 -556 616 -680 136 -108 246 -163 259
-128 3 8 -18 138 -47 289 -45 228 -57 274 -72 277 -44 9 -45 -1 -11 -145 l32
-138 -23 -13 c-30 -16 -31 -48 -1 -64 21 -11 21 -12 -17 -20 l-39 -8 -126 118
c-275 259 -505 546 -567 708 l-17 44 36 53 c84 127 137 281 137 396 0 63 -2
69 -35 101 -19 18 -37 32 -39 29 -2 -2 -9 -44 -16 -94 -6 -49 -24 -122 -39
-162 -30 -76 -116 -207 -131 -198 -23 14 -167 412 -175 484 l-6 46 81 68 c44
37 80 71 80 76 0 4 -6 15 -12 24 -12 15 -20 15 -88 2 -153 -30 -158 -11 -28
95 114 92 358 332 358 352 0 8 -13 27 -30 43 l-30 28 -91 -11 c-51 -6 -96 -9
-101 -6 -18 11 -6 35 57 115 36 45 65 85 65 88 0 10 -81 101 -88 100 -4 -1
-23 -4 -42 -8z"/>
<path d="M2188 2379 c-16 -6 -28 -14 -28 -18 0 -4 38 -26 84 -49 46 -23 112
-63 146 -89 35 -27 71 -54 82 -62 30 -22 58 10 58 67 0 39 -5 50 -39 82 -22
21 -61 45 -88 54 -61 21 -179 29 -215 15z"/>
<path d="M850 1838 c0 -37 6 -61 20 -78 17 -22 20 -41 20 -150 0 -141 -17
-263 -55 -394 -21 -73 -33 -96 -65 -127 -52 -51 -81 -110 -87 -178 -5 -52 -3
-58 25 -84 l30 -29 39 50 c47 59 122 202 151 288 64 187 88 488 49 601 -17 49
-97 153 -118 153 -5 0 -9 -24 -9 -52z"/>
</g>
</svg>
