<?xml version="1.0" standalone="no"?>
<!DOCTYPE svg PUBLIC "-//W3C//DTD SVG 20010904//EN"
 "http://www.w3.org/TR/2001/REC-SVG-20010904/DTD/svg10.dtd">
<svg version="1.0" xmlns="http://www.w3.org/2000/svg"
 width="360.000000pt" height="360.000000pt" viewBox="0 0 360.000000 360.000000"
 preserveAspectRatio="xMidYMid meet">
<metadata>
Created by potrace 1.15, written by Peter Selinger 2001-2017
</metadata>
<g transform="translate(0.000000,360.000000) scale(0.100000,-0.100000)"
fill="#000000" stroke="none">
<path d="M1862 2857 c-49 -49 -63 -79 -44 -91 5 -3 34 10 66 29 l57 35 34 -23
c26 -16 33 -27 29 -42 -12 -46 -77 -166 -124 -231 l-50 -69 39 -39 40 -39 63
41 c89 58 167 92 211 92 20 0 37 -4 37 -8 0 -13 -110 -115 -195 -182 -44 -34
-81 -66 -83 -70 -1 -4 3 -12 11 -18 11 -9 61 18 230 124 l217 135 0 48 c0 42
-4 51 -44 90 l-45 44 -83 -18 c-46 -10 -89 -20 -95 -22 -20 -8 -16 42 7 87 20
39 26 95 12 116 -13 20 -66 42 -127 53 -98 18 -106 16 -163 -42z"/>
<path d="M1366 2771 c-3 -5 -10 -38 -15 -74 -16 -115 -110 -263 -300 -472 -50
-55 -91 -105 -91 -111 0 -6 11 -21 25 -34 l24 -23 48 41 c26 22 91 84 143 136
52 53 99 96 105 96 6 0 48 -45 94 -100 111 -133 111 -133 197 13 76 127 114
208 144 303 26 84 27 134 3 134 -13 0 -33 -30 -68 -97 -27 -54 -75 -137 -108
-185 -45 -69 -63 -88 -82 -88 -18 0 -24 7 -29 34 -4 18 -20 52 -36 75 -17 22
-30 44 -30 48 0 4 25 40 56 80 l56 73 -52 80 c-49 74 -71 93 -84 71z"/>
<path d="M1811 2246 c-26 -27 -26 -34 -1 -66 11 -14 20 -39 20 -56 0 -57 -61
-206 -149 -361 l-41 -71 41 -33 40 -32 44 43 c47 47 40 46 153 14 68 -20 68
-35 -3 -126 -30 -38 -55 -73 -55 -77 0 -5 9 -16 20 -26 19 -17 21 -17 75 18
71 48 117 122 113 186 -3 40 -6 45 -33 53 -37 9 -55 33 -55 70 0 25 9 32 83
69 95 48 225 131 281 181 29 25 38 39 33 53 -18 46 -210 -27 -420 -159 -49
-31 -92 -54 -96 -51 -5 2 7 66 25 142 19 75 34 148 34 163 -1 18 -13 34 -44
57 l-44 32 -21 -23z"/>
<path d="M1380 2045 c0 -31 3 -36 30 -41 l30 -6 0 -79 c0 -43 -5 -101 -11
-129 -8 -38 -8 -54 1 -65 8 -10 8 -24 1 -52 -14 -48 -14 -140 -1 -221 8 -45 7
-74 -1 -101 -17 -57 -6 -91 30 -91 53 0 61 22 62 171 0 74 6 231 13 349 l13
215 -40 43 c-36 37 -47 42 -84 42 -43 0 -43 0 -43 -35z"/>
<path d="M1144 1835 c-4 -8 3 -50 15 -93 18 -68 21 -106 21 -283 0 -202 0
-206 23 -227 28 -27 39 -27 60 -4 19 21 22 103 7 237 -5 51 -4 120 3 188 l11
107 -44 45 c-45 46 -85 59 -96 30z"/>
<path d="M2051 1429 c-107 -21 -328 -109 -600 -240 -112 -54 -168 -76 -175
-69 -5 5 -20 10 -32 10 -22 0 -20 -6 42 -192 35 -106 64 -195 64 -198 0 -16
-202 -126 -292 -160 -120 -44 -268 -64 -284 -38 -5 7 -10 3 -16 -13 -8 -20 -4
-28 24 -51 18 -15 43 -28 55 -28 11 0 72 20 135 44 423 163 835 251 1238 263
213 6 272 -2 479 -69 111 -36 125 -38 139 -24 14 13 13 19 -2 61 -47 121 -231
168 -573 146 -98 -6 -188 -11 -200 -11 -20 0 -11 14 58 97 139 164 219 301
219 373 0 37 -46 85 -96 99 -45 13 -120 13 -183 0z m154 -136 c-13 -92 -58
-169 -158 -268 -83 -82 -223 -193 -232 -183 -2 2 25 77 61 168 63 162 64 166
53 214 -11 46 -10 50 12 67 38 30 108 48 193 48 l78 1 -7 -47z m-375 -128 c0
-83 -28 -158 -89 -238 -38 -51 -52 -63 -79 -65 l-32 -3 0 149 c0 128 3 153 18
171 22 27 84 50 140 51 l42 0 0 -65z m-272 -67 c8 -8 12 -59 12 -164 l0 -153
-56 -11 c-30 -6 -61 -10 -67 -7 -12 4 -83 294 -74 303 2 2 28 13 58 23 63 23
110 26 127 9z"/>
</g>
</svg>
