<?xml version="1.0" standalone="no"?>
<!DOCTYPE svg PUBLIC "-//W3C//DTD SVG 20010904//EN"
 "http://www.w3.org/TR/2001/REC-SVG-20010904/DTD/svg10.dtd">
<svg version="1.0" xmlns="http://www.w3.org/2000/svg"
 width="360.000000pt" height="360.000000pt" viewBox="0 0 360.000000 360.000000"
 preserveAspectRatio="xMidYMid meet">
<metadata>
Created by potrace 1.15, written by Peter Selinger 2001-2017
</metadata>
<g transform="translate(0.000000,360.000000) scale(0.100000,-0.100000)"
fill="#000000" stroke="none">
<path d="M1411 3097 c-16 -20 -41 -84 -41 -107 0 -17 6 -20 50 -20 l50 0 0
-128 c0 -187 -32 -285 -141 -433 -48 -65 -211 -229 -227 -229 -5 0 -30 32 -57
70 -27 39 -51 70 -54 70 -4 0 -14 -13 -24 -29 -37 -63 -11 -158 61 -223 36
-33 49 -38 90 -38 l49 0 63 118 c77 143 139 242 151 242 14 0 11 -47 -5 -78
-7 -15 -16 -54 -20 -86 -8 -69 -38 -143 -61 -153 -16 -6 -16 -37 1 -94 3 -12
-12 -26 -53 -49 -65 -37 -324 -209 -515 -342 l-126 -88 -66 0 c-62 0 -66 -1
-66 -23 0 -13 14 -42 31 -66 30 -40 34 -42 68 -36 114 22 343 158 634 378 43
32 81 56 84 53 4 -3 -27 -77 -67 -163 -101 -217 -152 -356 -158 -429 -6 -78 7
-104 52 -104 29 0 41 9 92 70 32 39 61 70 64 70 4 0 12 -45 18 -100 16 -132
31 -170 71 -170 68 0 71 10 42 134 l-19 78 22 67 23 66 -22 66 -23 66 89 164
c49 90 89 167 89 172 0 17 -28 4 -75 -33 l-50 -40 -3 36 c-7 78 126 241 242
295 63 29 186 52 186 34 0 -4 -27 -59 -61 -121 -74 -139 -76 -167 -12 -172 37
-3 50 3 111 47 39 28 73 51 77 51 4 0 50 -23 101 -52 l94 -52 0 -40 c0 -59
-23 -72 -374 -216 -171 -70 -192 -76 -223 -67 -27 9 -36 7 -53 -8 -11 -10 -20
-31 -20 -47 0 -35 43 -64 108 -74 40 -6 61 2 277 100 133 60 248 106 265 106
17 0 39 -9 50 -20 19 -19 20 -33 20 -284 0 -162 4 -267 10 -271 6 -4 5 -13 -2
-25 -9 -14 -9 -30 0 -67 10 -41 7 -87 -21 -311 -27 -229 -30 -264 -17 -272 60
-38 93 30 126 255 12 83 17 221 21 560 4 359 8 454 19 472 19 30 101 58 261
88 189 35 193 36 193 26 0 -15 32 -22 153 -32 117 -10 119 -10 143 12 50 47
21 80 -92 104 -38 8 -112 17 -164 21 -87 6 -111 3 -288 -35 -106 -23 -199 -41
-206 -41 -8 0 -16 16 -19 39 -3 22 -13 51 -23 65 -25 32 -85 66 -119 66 -18 0
-25 4 -22 13 3 6 23 58 46 114 22 56 38 109 35 118 -17 42 -92 -14 -129 -96
-19 -42 -29 -45 -87 -28 -33 9 -38 14 -38 39 0 71 68 190 176 309 61 67 227
214 301 266 48 34 56 70 23 100 -35 31 -112 7 -270 -85 -183 -106 -311 -170
-355 -177 l-35 -6 0 75 c0 83 -5 92 -66 113 -31 10 -46 9 -121 -12 -46 -14
-87 -22 -90 -19 -3 2 0 28 7 56 9 38 9 54 1 64 -9 11 -9 16 0 21 8 6 10 36 7
101 -4 74 -11 104 -32 148 -42 85 -105 128 -135 93z m259 -593 c0 -3 -16 -36
-35 -73 -41 -78 -91 -141 -111 -141 -29 0 -10 134 24 174 28 31 122 62 122 40z
m180 -121 c47 -3 112 0 145 5 33 5 62 8 64 7 5 -6 -143 -215 -152 -215 -5 0
-21 9 -36 19 l-27 20 -150 -43 c-114 -33 -150 -40 -152 -30 -5 22 190 255 208
248 8 -3 53 -8 100 -11z"/>
<path d="M1986 3035 c-59 -21 -62 -35 -19 -72 43 -37 55 -40 73 -18 17 21 26
19 82 -15 60 -37 125 -41 170 -9 25 19 29 26 24 52 -4 17 -13 41 -21 54 -15
22 -21 23 -143 23 -82 -1 -141 -6 -166 -15z"/>
<path d="M2473 2524 c-36 -18 -40 -35 -23 -93 9 -32 3 -46 -90 -222 -55 -103
-100 -196 -100 -206 0 -11 14 -38 31 -61 l31 -42 61 56 c34 31 79 65 102 75
47 22 105 25 105 6 0 -7 -45 -57 -100 -112 -103 -103 -121 -135 -74 -135 74 0
324 200 324 259 0 34 -8 45 -46 64 -38 20 -156 41 -190 34 -20 -3 -24 -1 -19
12 51 129 115 308 115 321 0 24 -42 60 -71 60 -13 0 -39 -8 -56 -16z"/>
</g>
</svg>
