<?xml version="1.0" standalone="no"?>
<!DOCTYPE svg PUBLIC "-//W3C//DTD SVG 20010904//EN"
 "http://www.w3.org/TR/2001/REC-SVG-20010904/DTD/svg10.dtd">
<svg version="1.0" xmlns="http://www.w3.org/2000/svg"
 width="360.000000pt" height="360.000000pt" viewBox="0 0 360.000000 360.000000"
 preserveAspectRatio="xMidYMid meet">
<metadata>
Created by potrace 1.15, written by Peter Selinger 2001-2017
</metadata>
<g transform="translate(0.000000,360.000000) scale(0.100000,-0.100000)"
fill="#000000" stroke="none">
<path d="M1827 3018 c-30 -19 -47 -37 -45 -47 4 -19 46 -27 61 -12 11 11 77
16 77 6 0 -3 -16 -38 -36 -78 -114 -226 -247 -357 -363 -357 l-40 0 20 57 c31
91 24 130 -17 92 -22 -21 -26 -21 -104 -9 -61 9 -84 10 -93 1 -6 -6 -19 -11
-29 -11 -15 0 -12 9 17 59 19 33 35 64 35 69 0 5 -21 33 -46 61 -70 78 -118
68 -96 -19 l10 -41 -124 -139 c-68 -77 -124 -147 -124 -156 0 -19 37 -74 50
-74 6 0 35 16 65 36 105 67 217 115 259 112 37 -3 40 -5 57 -53 10 -27 18 -57
18 -65 0 -9 -33 -31 -89 -57 -97 -45 -109 -67 -44 -79 l34 -6 0 -152 c0 -83 5
-171 11 -195 7 -31 6 -47 -2 -57 -9 -11 -9 -28 0 -71 14 -71 22 -80 77 -89
122 -18 -15 -120 -281 -209 -60 -20 -120 -35 -132 -32 -35 7 -50 -19 -27 -44
18 -20 26 -21 139 -16 66 3 129 9 139 13 17 6 18 4 12 -22 -4 -16 -15 -37 -24
-48 -9 -10 -142 -126 -294 -259 -246 -212 -293 -257 -273 -257 17 0 215 108
295 160 196 129 296 220 375 340 76 115 145 189 203 219 48 24 92 28 92 7 0
-8 -65 -91 -145 -186 -80 -94 -145 -176 -145 -180 0 -15 37 -30 73 -30 59 0
64 -21 17 -82 -22 -29 -56 -84 -75 -122 l-35 -69 0 -154 c0 -174 -1 -172 79
-156 l47 9 130 -108 c71 -59 137 -108 148 -108 29 0 81 62 105 127 23 61 61
231 61 273 0 14 -16 97 -35 184 -19 88 -35 164 -35 170 0 6 38 31 84 56 79 41
86 43 110 30 19 -10 34 -11 54 -4 24 8 27 15 30 61 l3 52 -90 58 c-50 32 -91
65 -91 73 0 30 81 100 116 100 6 0 47 -30 90 -66 171 -143 407 -282 575 -338
80 -27 229 -56 285 -56 42 0 45 23 12 74 -19 29 -29 35 -74 40 -149 17 -385
117 -574 243 -109 72 -330 248 -330 262 0 20 40 39 97 45 82 9 163 33 170 52
3 8 -1 22 -8 30 -12 14 -28 16 -109 11 -52 -4 -122 -13 -154 -22 -34 -9 -63
-12 -68 -7 -5 5 3 30 17 59 37 71 54 184 55 359 0 83 3 166 6 183 14 68 137
174 309 267 39 20 72 39 74 41 3 2 -8 17 -24 33 l-29 30 -139 0 c-77 0 -147
-5 -158 -10 -29 -16 -34 9 -21 94 l11 71 -31 33 c-42 43 -86 43 -151 0z m303
-281 c0 -31 -4 -35 -56 -56 -31 -13 -64 -32 -74 -43 -16 -17 -26 -19 -69 -13
-61 8 -65 24 -16 55 33 20 191 89 208 90 4 0 7 -15 7 -33z m-269 -249 c38 -42
38 -44 39 -125 0 -45 -5 -105 -11 -133 -7 -34 -8 -55 -1 -63 8 -9 -4 -31 -40
-80 -27 -37 -54 -67 -59 -67 -11 0 -11 38 1 105 7 44 5 53 -13 73 -23 24 -75
30 -95 10 -9 -9 -12 -8 -12 8 0 22 47 101 74 123 28 23 39 50 26 66 -9 10 -41
1 -173 -52 -89 -36 -164 -67 -167 -70 -10 -9 34 -33 61 -33 51 0 45 -21 -21
-82 -36 -32 -70 -58 -77 -58 -10 0 -13 29 -13 114 0 75 -4 117 -11 122 -11 7
410 182 440 184 7 0 31 -19 52 -42z m-353 -525 c27 -7 31 -53 5 -75 -18 -15
-76 -38 -97 -38 -17 0 -36 50 -36 93 l0 40 53 -7 c28 -4 62 -10 75 -13z m277
-70 c27 -13 35 -23 35 -43 0 -22 -7 -29 -37 -38 -25 -8 -42 -8 -55 -1 -15 8
-29 4 -67 -20 -61 -39 -71 -39 -71 2 0 31 4 35 54 56 30 12 62 31 71 42 22 23
25 23 70 2z m46 -207 l74 -33 -106 -105 c-99 -98 -155 -138 -193 -138 -26 0
-19 17 34 84 50 64 110 177 110 209 0 9 2 17 4 17 2 0 37 -15 77 -34z m24
-298 l26 -23 -25 -36 c-29 -42 -79 -69 -130 -69 -20 0 -36 2 -36 5 0 19 54
107 76 124 34 27 57 27 89 -1z m-158 -315 c8 -21 26 -81 39 -134 23 -93 24
-99 9 -182 -14 -83 -58 -223 -76 -241 -5 -6 -53 21 -123 68 -109 75 -115 80
-121 120 -10 64 -24 102 -45 121 -15 14 -20 31 -20 74 l0 56 153 77 c83 42
156 77 160 77 4 1 15 -16 24 -36z"/>
<path d="M2028 1030 c-14 -9 -3 -24 76 -100 89 -86 94 -93 106 -151 7 -33 23
-75 34 -92 18 -27 29 -32 68 -35 l46 -3 -5 48 c-13 123 -80 233 -184 302 -62
42 -106 51 -141 31z"/>
</g>
</svg>
