<?xml version="1.0" standalone="no"?>
<!DOCTYPE svg PUBLIC "-//W3C//DTD SVG 20010904//EN"
 "http://www.w3.org/TR/2001/REC-SVG-20010904/DTD/svg10.dtd">
<svg version="1.0" xmlns="http://www.w3.org/2000/svg"
 width="360.000000pt" height="360.000000pt" viewBox="0 0 360.000000 360.000000"
 preserveAspectRatio="xMidYMid meet">
<metadata>
Created by potrace 1.15, written by Peter Selinger 2001-2017
</metadata>
<g transform="translate(0.000000,360.000000) scale(0.100000,-0.100000)"
fill="#000000" stroke="none">
<path d="M1370 2684 c0 -5 9 -32 20 -61 l19 -51 -26 -39 c-49 -72 -181 -218
-436 -483 l-255 -265 22 -23 22 -23 240 66 c131 36 242 65 246 65 16 0 7 -43
-17 -91 -34 -68 -71 -121 -149 -209 -36 -41 -66 -80 -66 -87 0 -7 10 -17 21
-24 27 -14 161 -38 217 -39 26 0 42 -5 42 -12 0 -7 -36 -120 -80 -253 -85
-258 -150 -496 -150 -548 1 -40 31 -77 63 -77 22 0 29 10 57 77 208 508 389
860 603 1176 94 139 102 148 127 143 15 -2 60 -8 101 -11 l74 -7 160 75 c116
54 161 70 163 60 4 -16 -82 -181 -162 -310 -165 -268 -346 -451 -522 -529 -57
-25 -138 -32 -149 -13 -5 6 -13 3 -22 -10 -13 -19 -11 -25 17 -66 17 -25 34
-45 38 -45 4 0 75 23 157 50 262 88 554 150 704 150 45 0 108 -14 230 -50 93
-27 175 -50 183 -50 26 0 51 37 44 64 -8 33 -90 105 -165 145 l-62 33 -250
-33 c-208 -27 -254 -31 -271 -20 -15 9 -23 10 -31 2 -11 -11 -57 -16 -57 -6 0
2 51 73 113 157 156 211 269 372 307 440 l32 58 -22 66 c-32 94 -47 107 -124
102 -77 -5 -134 -32 -224 -108 l-70 -59 -74 20 c-40 10 -80 19 -88 19 -26 0
-470 -645 -547 -795 -59 -116 -65 -102 -32 67 12 59 19 114 15 123 -8 21 -78
51 -165 71 l-70 16 53 66 c78 98 134 188 153 249 l17 54 -27 27 -27 27 -143
-38 c-78 -20 -152 -40 -164 -43 -18 -5 -23 -1 -28 19 -11 41 27 97 124 181
143 124 372 365 404 424 39 72 36 138 -8 163 -35 20 -105 35 -105 23z"/>
</g>
</svg>
