<?xml version="1.0" standalone="no"?>
<!DOCTYPE svg PUBLIC "-//W3C//DTD SVG 20010904//EN"
 "http://www.w3.org/TR/2001/REC-SVG-20010904/DTD/svg10.dtd">
<svg version="1.0" xmlns="http://www.w3.org/2000/svg"
 width="360.000000pt" height="360.000000pt" viewBox="0 0 360.000000 360.000000"
 preserveAspectRatio="xMidYMid meet">
<metadata>
Created by potrace 1.15, written by Peter Selinger 2001-2017
</metadata>
<g transform="translate(0.000000,360.000000) scale(0.100000,-0.100000)"
fill="#000000" stroke="none">
<path d="M1134 2676 c-3 -8 11 -46 30 -85 36 -70 36 -72 21 -108 -47 -113
-232 -348 -451 -573 l-133 -136 21 -21 21 -21 77 33 c99 42 263 95 295 95 23
0 25 -3 19 -27 -19 -78 -100 -201 -225 -343 -66 -75 -79 -95 -79 -124 0 -19 5
-38 11 -42 6 -3 62 8 125 27 62 18 116 30 119 27 3 -3 -39 -177 -95 -386 -55
-209 -100 -391 -100 -405 0 -49 9 -57 60 -57 27 0 51 4 55 9 3 5 30 110 61
233 127 514 231 820 330 975 19 30 34 62 32 71 -4 23 -149 -175 -196 -268 -20
-41 -38 -77 -39 -79 -2 -4 -106 30 -116 39 -4 3 31 74 78 156 74 129 85 155
85 196 0 63 -23 78 -130 85 -57 4 -80 9 -76 18 2 7 88 125 190 263 168 228
186 255 186 291 0 48 -39 98 -109 143 -51 32 -59 34 -67 14z"/>
<path d="M1837 2218 c-138 -75 -149 -79 -166 -64 -24 22 -31 20 -31 -7 0 -22
56 -87 74 -87 5 0 64 20 133 45 68 25 126 45 128 45 24 0 -54 -173 -119 -264
-57 -80 -160 -176 -189 -176 -12 0 -39 4 -60 9 -46 11 -107 -5 -107 -28 0 -9
4 -33 9 -53 6 -26 5 -50 -5 -78 -17 -50 -37 -313 -32 -423 8 -172 108 -286
279 -317 107 -20 541 3 774 40 195 31 400 93 455 138 l21 17 -20 330 c-12 182
-21 342 -21 358 0 20 -5 27 -20 27 -19 0 -20 -7 -20 -182 0 -211 -26 -416 -57
-450 -63 -70 -316 -123 -638 -134 -82 -3 -177 -10 -211 -15 -113 -20 -367 24
-408 70 -16 18 -18 39 -14 228 3 190 6 212 26 258 26 56 63 100 105 122 16 8
81 32 145 54 129 45 182 73 182 96 0 8 -16 37 -35 63 -19 26 -35 51 -35 54 0
4 47 71 105 150 64 87 105 153 105 167 0 19 -12 30 -63 57 -94 48 -115 45
-290 -50z"/>
</g>
</svg>
