<?xml version="1.0" standalone="no"?>
<!DOCTYPE svg PUBLIC "-//W3C//DTD SVG 20010904//EN"
 "http://www.w3.org/TR/2001/REC-SVG-20010904/DTD/svg10.dtd">
<svg version="1.0" xmlns="http://www.w3.org/2000/svg"
 width="360.000000pt" height="360.000000pt" viewBox="0 0 360.000000 360.000000"
 preserveAspectRatio="xMidYMid meet">
<metadata>
Created by potrace 1.15, written by Peter Selinger 2001-2017
</metadata>
<g transform="translate(0.000000,360.000000) scale(0.100000,-0.100000)"
fill="#000000" stroke="none">
<path d="M1842 2697 c-32 -34 -28 -70 13 -116 l35 -39 -13 -206 c-15 -236 -17
-243 -106 -288 l-54 -28 -39 22 -39 22 -26 -26 c-56 -56 7 -122 110 -115 73 4
74 -7 8 -95 -37 -48 -58 -67 -80 -71 -45 -9 -114 -78 -154 -155 -43 -82 -87
-218 -121 -377 -15 -66 -28 -129 -31 -141 -3 -14 6 -31 30 -54 l34 -33 69 27
c97 37 174 86 190 119 l13 27 30 -20 c27 -20 29 -26 29 -85 0 -209 91 -395
224 -460 72 -35 187 -53 220 -35 19 10 29 10 39 1 11 -9 52 -6 173 9 302 39
519 87 593 132 33 21 33 22 27 77 -7 64 -85 388 -114 471 -14 42 -24 56 -41
58 -20 3 -22 0 -17 -30 12 -68 46 -368 46 -401 0 -105 -206 -161 -630 -173
-253 -8 -284 -2 -346 60 -63 62 -74 112 -74 331 0 211 -1 209 99 269 72 44 89
45 102 6 6 -16 15 -30 19 -30 30 0 160 169 269 352 45 75 52 93 46 120 -11 51
-32 68 -84 68 l-46 0 -12 -59 c-14 -77 -46 -140 -97 -192 -43 -44 -134 -107
-184 -128 -29 -12 -32 -11 -60 20 -29 32 -29 33 -16 83 8 28 14 69 14 91 1 93
58 235 133 327 64 78 61 112 -8 120 l-30 3 -3 120 c-2 66 2 157 9 203 12 79
11 84 -12 134 -48 104 -93 132 -137 85z m-46 -958 c-4 -28 -11 -99 -16 -158
-11 -121 -27 -181 -64 -245 -50 -86 -153 -166 -213 -166 -31 0 -33 2 -33 38 0
101 64 277 142 390 38 55 167 192 181 192 6 0 7 -19 3 -51z"/>
<path d="M1086 2511 c-3 -4 3 -16 14 -26 29 -26 25 -54 -19 -138 -62 -120
-217 -325 -419 -554 -59 -66 -82 -100 -82 -119 0 -17 4 -24 13 -21 43 16 388
90 394 84 12 -13 -50 -129 -154 -285 -103 -153 -103 -153 -88 -183 9 -16 17
-29 18 -29 1 0 34 9 72 20 82 23 109 25 124 7 8 -10 -4 -101 -49 -358 l-59
-344 27 -23 c20 -17 37 -22 67 -20 39 3 40 5 59 58 96 274 275 711 405 988 45
94 81 176 81 182 0 5 -9 10 -19 10 -15 0 -48 -56 -152 -257 -216 -422 -301
-584 -304 -581 -2 2 5 68 15 148 27 206 27 223 -10 254 -17 14 -46 28 -65 32
-19 3 -35 10 -35 15 0 5 41 90 90 189 l90 180 -21 41 -21 41 -116 -7 c-64 -4
-121 -8 -126 -8 -24 -5 -10 24 40 83 241 279 390 496 382 553 -2 15 -20 31
-57 50 -56 28 -86 34 -95 18z"/>
</g>
</svg>
