<?xml version="1.0" standalone="no"?>
<!DOCTYPE svg PUBLIC "-//W3C//DTD SVG 20010904//EN"
 "http://www.w3.org/TR/2001/REC-SVG-20010904/DTD/svg10.dtd">
<svg version="1.0" xmlns="http://www.w3.org/2000/svg"
 width="360.000000pt" height="360.000000pt" viewBox="0 0 360.000000 360.000000"
 preserveAspectRatio="xMidYMid meet">
<metadata>
Created by potrace 1.15, written by Peter Selinger 2001-2017
</metadata>
<g transform="translate(0.000000,360.000000) scale(0.100000,-0.100000)"
fill="#000000" stroke="none">
<path d="M1265 2738 c-2 -7 -6 -29 -9 -49 -9 -52 -90 -209 -168 -325 -81 -120
-204 -278 -338 -436 -55 -65 -100 -124 -100 -133 0 -20 15 -19 172 5 181 28
189 19 112 -127 -25 -49 -93 -158 -150 -245 -57 -86 -104 -163 -104 -170 0 -8
9 -23 20 -33 19 -17 24 -16 138 24 119 42 167 47 178 16 3 -7 -9 -66 -25 -131
-44 -173 -89 -407 -96 -499 -7 -76 -6 -81 18 -103 18 -17 34 -23 57 -20 30 3
34 8 55 65 12 35 27 69 34 76 6 8 31 74 57 148 109 318 288 783 360 934 l29
60 185 77 185 77 23 -22 c22 -20 23 -27 18 -92 -15 -162 -7 -147 -104 -188
-138 -59 -187 -89 -190 -116 -6 -40 10 -44 96 -22 44 12 87 21 96 21 41 0 -5
-128 -89 -246 -25 -34 -45 -66 -45 -70 0 -4 10 -18 22 -31 l22 -23 55 54 56
55 53 -31 c33 -19 52 -36 50 -46 -2 -10 -94 -47 -284 -113 -270 -93 -283 -97
-328 -87 -41 9 -49 8 -61 -9 -8 -10 -15 -24 -15 -31 0 -16 51 -47 104 -62 38
-10 47 -9 121 23 166 71 394 138 625 186 220 45 361 65 369 53 5 -8 19 -8 46
-1 37 9 54 5 195 -45 186 -67 210 -66 210 16 0 46 -29 71 -117 98 -58 18 -93
20 -309 20 -226 0 -244 1 -244 18 0 9 58 192 130 406 120 361 128 390 115 415
-15 29 -91 104 -146 144 l-36 27 -64 -21 c-59 -20 -568 -237 -649 -277 -73
-36 -175 -199 -304 -484 -62 -138 -209 -499 -235 -580 -10 -30 -18 -38 -37
-38 -13 0 -24 3 -24 8 0 4 25 103 54 221 l54 214 -20 54 c-18 46 -25 54 -42
49 -12 -3 -57 -8 -101 -12 l-79 -7 19 29 c80 123 177 308 195 373 9 36 9 47
-5 68 -21 31 -84 60 -152 69 -34 4 -53 11 -53 20 0 7 113 160 250 339 246 321
250 327 250 374 0 39 -5 52 -28 74 -29 28 -70 36 -77 15z m1055 -628 c56 -28
60 -32 60 -66 0 -99 -86 -383 -193 -639 l-63 -150 -40 -3 c-47 -3 -136 27
-178 62 l-30 23 19 82 c10 45 21 84 24 86 3 1 49 10 101 19 116 20 154 40 158
83 4 41 -32 69 -109 85 -60 12 -74 29 -48 55 12 12 7 191 -7 259 -6 30 -5 30
103 81 59 28 116 52 126 52 10 1 44 -13 77 -29z"/>
</g>
</svg>
