<?xml version="1.0" standalone="no"?>
<!DOCTYPE svg PUBLIC "-//W3C//DTD SVG 20010904//EN"
 "http://www.w3.org/TR/2001/REC-SVG-20010904/DTD/svg10.dtd">
<svg version="1.0" xmlns="http://www.w3.org/2000/svg"
 width="360.000000pt" height="360.000000pt" viewBox="0 0 360.000000 360.000000"
 preserveAspectRatio="xMidYMid meet">
<metadata>
Created by potrace 1.15, written by Peter Selinger 2001-2017
</metadata>
<g transform="translate(0.000000,360.000000) scale(0.100000,-0.100000)"
fill="#000000" stroke="none">
<path d="M2017 2808 c11 -72 10 -143 -5 -273 -14 -129 -24 -170 -55 -216 -34
-51 -77 -74 -179 -98 -97 -22 -158 -51 -158 -74 0 -25 36 -47 76 -47 49 0 136
25 187 53 33 18 39 19 47 7 18 -29 11 -78 -13 -97 -19 -14 -25 -32 -31 -81 -4
-34 -12 -76 -18 -94 -23 -68 -95 -138 -143 -138 -11 0 -27 -5 -35 -10 -12 -8
-8 -16 25 -45 22 -19 46 -34 54 -35 9 0 11 -8 8 -22 -15 -63 -77 -394 -77
-413 0 -12 9 -30 20 -40 17 -16 25 -17 58 -7 47 15 137 74 229 151 45 39 81
61 96 61 23 0 26 -6 36 -63 14 -78 14 -110 1 -123 -6 -6 -2 -70 10 -179 23
-196 24 -233 10 -271 l-11 -28 -94 94 c-52 52 -97 91 -101 87 -9 -9 39 -141
92 -254 43 -91 107 -173 135 -173 9 0 29 15 46 32 30 32 31 35 42 185 9 130 8
189 -10 423 -11 150 -19 293 -17 319 l3 46 105 58 c150 84 172 102 168 140 -3
32 -4 32 -54 31 -38 -1 -73 -12 -130 -40 -44 -22 -82 -40 -86 -42 -5 -2 -8 30
-8 70 0 43 -5 79 -12 86 -8 8 -8 15 1 26 9 11 10 28 2 72 -19 100 -50 113
-161 68 -50 -20 -65 -23 -71 -12 -15 23 -9 49 44 197 l52 145 100 31 c186 60
265 99 265 134 0 30 -171 111 -233 111 -28 0 -29 -1 -22 -42 3 -24 8 -50 11
-58 5 -21 -61 -62 -95 -58 l-27 3 27 175 c24 150 26 178 14 200 -23 45 -66 80
-97 80 l-29 0 8 -52z m113 -1150 l0 -96 -44 -39 c-40 -35 -180 -124 -219 -139
-27 -10 -31 21 -15 121 25 153 87 260 192 331 l51 34 17 -57 c12 -38 18 -92
18 -155z"/>
<path d="M1230 2615 c-10 -12 -10 -19 -2 -27 21 -21 13 -90 -18 -156 -58 -123
-250 -377 -459 -609 -55 -62 -101 -118 -101 -125 0 -7 8 -23 18 -36 l17 -22
160 69 c151 64 160 67 163 47 1 -11 -29 -95 -67 -186 l-70 -165 26 -27 c15
-16 35 -28 46 -28 11 0 50 23 87 50 45 34 77 50 97 50 l30 0 -49 -282 c-40
-236 -48 -304 -48 -409 0 -121 1 -126 25 -149 21 -20 28 -22 47 -11 64 34 59
22 222 607 86 308 156 563 156 567 0 41 -64 -70 -115 -198 -16 -38 -61 -164
-100 -280 -67 -194 -95 -250 -95 -193 0 13 14 117 31 231 l31 208 -23 25 c-22
23 -30 25 -91 22 -38 -2 -68 -3 -68 -2 0 0 16 47 35 104 44 130 44 152 4 181
-30 21 -35 22 -111 10 -44 -7 -82 -11 -84 -9 -2 2 46 67 107 143 153 192 273
353 314 421 47 77 46 107 -5 156 -44 41 -87 50 -110 23z"/>
<path d="M2522 1217 l-22 -24 20 -25 c11 -14 59 -46 107 -71 88 -46 88 -46
148 -142 33 -54 65 -99 71 -102 6 -2 28 6 48 17 31 19 36 27 36 59 0 44 -39
127 -77 163 -45 43 -140 95 -222 123 -42 14 -79 25 -82 25 -3 0 -15 -11 -27
-23z"/>
<path d="M1590 986 l0 -153 39 -44 38 -43 27 18 c35 22 56 72 56 132 0 37 -10
64 -56 145 -47 82 -60 99 -80 99 l-24 0 0 -154z"/>
</g>
</svg>
