<?xml version="1.0" standalone="no"?>
<!DOCTYPE svg PUBLIC "-//W3C//DTD SVG 20010904//EN"
 "http://www.w3.org/TR/2001/REC-SVG-20010904/DTD/svg10.dtd">
<svg version="1.0" xmlns="http://www.w3.org/2000/svg"
 width="360.000000pt" height="360.000000pt" viewBox="0 0 360.000000 360.000000"
 preserveAspectRatio="xMidYMid meet">
<metadata>
Created by potrace 1.15, written by Peter Selinger 2001-2017
</metadata>
<g transform="translate(0.000000,360.000000) scale(0.100000,-0.100000)"
fill="#000000" stroke="none">
<path d="M2107 3011 c-17 -28 -16 -30 13 -86 l30 -57 0 -197 c0 -176 -2 -199
-19 -228 -36 -59 -149 -122 -295 -164 -66 -19 -84 -21 -134 -12 -48 9 -58 8
-69 -6 -19 -25 -15 -47 17 -93 50 -72 50 -101 -5 -183 -49 -72 -132 -233 -200
-387 -34 -76 -43 -88 -63 -88 -24 0 -24 2 -18 48 18 126 18 136 -4 170 -11 18
-43 47 -70 64 l-49 30 40 59 c53 78 99 177 99 212 0 20 -13 42 -44 75 l-44 46
-88 -11 c-49 -6 -90 -10 -92 -8 -11 10 37 86 107 171 184 224 281 381 281 458
0 37 -6 48 -50 91 -27 27 -53 46 -56 42 -4 -4 -2 -32 4 -62 11 -54 10 -59 -19
-118 -71 -141 -213 -334 -433 -589 -75 -87 -136 -164 -136 -172 0 -8 10 -27
23 -41 l22 -27 185 82 c102 45 190 84 197 87 6 2 16 -4 22 -15 9 -17 -1 -39
-65 -139 -88 -136 -134 -227 -134 -263 1 -15 11 -32 26 -43 23 -17 32 -18 95
-7 39 7 73 9 77 6 3 -4 -13 -145 -36 -314 l-43 -307 33 -27 c18 -16 44 -28 58
-28 23 0 28 9 68 128 58 167 144 393 198 514 50 114 129 241 147 235 17 -5 37
-97 43 -197 3 -47 5 -92 6 -100 1 -8 -2 -55 -7 -105 -7 -84 -6 -91 14 -109 15
-14 28 -17 56 -12 44 9 157 67 254 132 106 70 100 92 101 -398 0 -257 4 -409
10 -413 6 -4 2 -17 -10 -33 -35 -47 -50 -171 -29 -244 11 -41 32 -49 49 -19
16 32 56 206 81 360 23 142 23 144 3 158 -18 13 -18 15 -1 27 14 11 17 29 17
97 0 46 5 118 11 159 7 53 6 106 -2 180 -11 97 -10 112 11 202 l22 96 62 7
c81 9 244 40 279 54 37 14 35 43 -8 95 -19 24 -35 46 -35 50 0 4 41 111 90
239 50 128 90 245 90 259 0 52 -70 108 -185 148 -52 18 -68 19 -169 10 -61 -5
-123 -10 -138 -10 l-28 0 0 103 c0 203 -29 360 -76 416 -33 39 -64 40 -87 2z
m492 -637 c54 -20 71 -31 71 -46 0 -27 -64 -195 -116 -307 -76 -161 -158 -257
-236 -275 -23 -5 -28 -3 -28 13 0 11 -4 23 -10 26 -16 10 -11 67 10 113 11 24
40 69 65 101 25 31 45 65 45 74 0 21 -38 37 -91 37 l-39 0 0 120 0 119 38 10
c20 5 62 16 92 25 81 21 121 19 199 -10z m-460 -164 c6 -28 11 -73 11 -101 0
-48 -1 -50 -47 -80 -92 -59 -274 -143 -282 -130 -11 18 -44 212 -37 218 6 7
326 141 338 142 3 1 11 -22 17 -49z m-29 -325 c0 -18 -32 -58 -123 -150 -67
-69 -128 -125 -134 -125 -11 0 -22 60 -26 138 -2 33 -2 33 133 97 74 35 138
64 143 64 4 1 7 -10 7 -24z m20 -209 c0 -19 -8 -26 -45 -36 -25 -7 -48 -10
-51 -8 -7 8 65 68 81 68 9 0 15 -10 15 -24z"/>
</g>
</svg>
