<?xml version="1.0" standalone="no"?>
<!DOCTYPE svg PUBLIC "-//W3C//DTD SVG 20010904//EN"
 "http://www.w3.org/TR/2001/REC-SVG-20010904/DTD/svg10.dtd">
<svg version="1.0" xmlns="http://www.w3.org/2000/svg"
 width="360.000000pt" height="360.000000pt" viewBox="0 0 360.000000 360.000000"
 preserveAspectRatio="xMidYMid meet">
<metadata>
Created by potrace 1.15, written by Peter Selinger 2001-2017
</metadata>
<g transform="translate(0.000000,360.000000) scale(0.100000,-0.100000)"
fill="#000000" stroke="none">
<path d="M1630 2778 c-19 -13 -33 -28 -31 -33 3 -6 27 -16 53 -22 67 -17 123
-48 173 -94 23 -21 48 -39 55 -39 7 0 28 9 46 21 41 25 45 60 11 110 -33 50
-84 71 -186 76 -78 5 -89 3 -121 -19z"/>
<path d="M1052 2598 c-5 -7 -13 -40 -17 -73 -19 -164 -146 -373 -405 -668 -96
-109 -110 -130 -104 -152 8 -31 31 -45 76 -45 28 0 50 14 130 85 55 48 106 85
117 85 18 0 21 -6 21 -48 0 -107 -90 -323 -193 -462 l-55 -75 30 -32 31 -32
90 70 c89 68 117 81 117 57 0 -7 -29 -184 -64 -393 l-64 -380 22 -27 c36 -46
106 -34 106 18 0 76 90 341 215 629 166 385 211 462 339 588 90 89 301 227
346 227 30 0 1 -58 -96 -185 -207 -275 -310 -470 -302 -577 l3 -43 54 -7 c29
-3 60 -13 68 -21 17 -17 23 -7 -149 -250 -54 -76 -98 -146 -98 -155 0 -23 65
-86 79 -77 15 9 92 123 191 285 165 269 549 727 626 746 20 5 24 12 24 44 0
45 -24 70 -69 70 -27 0 -51 -17 -151 -109 -240 -220 -400 -336 -400 -290 0 6
40 66 89 132 48 67 98 143 111 169 31 63 150 222 309 413 l132 157 -23 25
c-14 15 -31 23 -43 21 -11 -3 -190 -113 -397 -246 -206 -133 -380 -242 -386
-242 -6 0 -39 12 -73 27 -58 25 -62 26 -74 9 -12 -15 -5 -25 57 -84 l70 -67
-152 -222 c-83 -123 -158 -223 -166 -223 -11 0 -14 15 -14 64 0 76 -11 91 -76
107 -24 6 -44 12 -44 13 0 0 27 84 60 185 48 150 57 188 47 200 -6 9 -33 41
-59 72 -27 30 -48 61 -48 67 0 7 70 112 155 234 143 204 155 224 155 265 0 60
-12 79 -70 108 -56 29 -64 30 -78 13z"/>
<path d="M1961 1400 c-10 -17 -35 -82 -56 -146 l-38 -115 27 -132 c14 -73 31
-155 37 -183 26 -134 163 -202 439 -219 166 -11 552 47 660 99 l45 21 3 144
c2 99 -1 148 -9 158 -9 10 -9 17 -1 25 16 16 16 211 0 294 -11 59 -13 64 -38
64 -39 0 -49 -15 -37 -59 8 -31 4 -80 -22 -247 -20 -126 -39 -221 -50 -239
-23 -39 -107 -81 -201 -101 -108 -21 -513 -31 -576 -14 -62 18 -117 72 -137
136 -28 87 -28 150 -3 319 l24 160 -20 33 c-11 17 -22 32 -24 32 -2 0 -13 -14
-23 -30z"/>
</g>
</svg>
