<?xml version="1.0" standalone="no"?>
<!DOCTYPE svg PUBLIC "-//W3C//DTD SVG 20010904//EN"
 "http://www.w3.org/TR/2001/REC-SVG-20010904/DTD/svg10.dtd">
<svg version="1.0" xmlns="http://www.w3.org/2000/svg"
 width="360.000000pt" height="360.000000pt" viewBox="0 0 360.000000 360.000000"
 preserveAspectRatio="xMidYMid meet">
<metadata>
Created by potrace 1.15, written by Peter Selinger 2001-2017
</metadata>
<g transform="translate(0.000000,360.000000) scale(0.100000,-0.100000)"
fill="#000000" stroke="none">
<path d="M1896 2789 c-17 -11 -17 -13 9 -33 l28 -22 -64 -45 c-35 -25 -130
-91 -211 -148 -107 -73 -148 -108 -148 -122 0 -33 29 -33 108 1 188 82 358
175 415 228 39 37 37 79 -6 120 -26 25 -41 32 -72 32 -22 0 -48 -5 -59 -11z"/>
<path d="M1182 2551 c-18 -31 -65 -96 -104 -144 -76 -96 -378 -436 -422 -476
l-26 -25 22 -23 c12 -13 32 -23 45 -23 13 0 72 24 131 54 l108 54 32 -20 c18
-11 32 -24 32 -30 0 -20 -112 -227 -178 -329 l-69 -105 23 -27 c32 -37 65 -34
140 13 109 69 117 57 80 -113 -57 -266 -86 -496 -86 -689 l0 -127 35 -26 c42
-33 60 -30 98 17 28 34 29 39 15 55 -14 16 -12 40 19 233 20 126 42 227 52
245 25 44 139 117 275 175 135 58 183 71 174 49 -3 -8 -20 -51 -38 -96 l-32
-81 27 -36 c24 -31 29 -34 53 -25 25 10 80 6 140 -8 28 -7 28 -32 2 -66 -27
-34 -151 -96 -274 -137 -96 -32 -97 -32 -79 -52 43 -47 206 -1 413 117 63 36
119 65 125 65 7 0 70 -23 141 -50 191 -75 432 -197 579 -294 71 -47 133 -86
137 -86 3 0 18 4 33 10 25 10 25 10 10 47 -52 124 -244 237 -763 449 l-33 13
55 68 c64 79 133 206 171 315 32 91 32 91 201 113 187 24 208 23 479 -40 14
-3 24 3 33 22 19 41 15 72 -14 98 -28 26 -163 75 -207 75 -15 0 -135 -16 -267
-36 l-240 -36 -44 36 c-53 43 -64 44 -72 11 -13 -52 -84 -96 -216 -132 -23 -6
-23 4 7 116 22 82 24 101 15 149 -5 31 -10 63 -10 72 0 9 33 43 73 75 207 170
337 306 337 353 0 35 -31 115 -53 140 -27 29 -68 28 -159 -4 -152 -55 -240
-111 -264 -171 l-14 -32 -47 15 c-113 36 -107 38 -207 -86 -49 -61 -92 -107
-96 -103 -4 4 -20 45 -35 91 -16 46 -34 82 -42 82 -21 0 -26 -46 -20 -184 9
-193 42 -300 101 -321 23 -8 30 -6 42 10 21 28 68 183 95 308 12 59 25 107 28
107 4 0 36 -29 71 -65 79 -79 103 -84 118 -22 23 90 119 193 256 276 l57 34
25 -24 c13 -13 23 -29 22 -35 -6 -27 -189 -234 -324 -369 l-144 -142 30 -28
c26 -25 30 -36 30 -82 0 -30 -7 -70 -15 -90 -48 -115 -217 -232 -495 -343 -56
-22 -105 -38 -109 -35 -19 11 35 242 89 383 35 89 38 115 13 110 -12 -2 -31
-41 -63 -127 -25 -68 -49 -124 -55 -125 -5 0 -12 13 -15 29 -13 59 -50 94
-103 96 -60 2 -60 6 -2 133 75 162 74 177 -10 269 -36 40 -65 80 -65 92 0 12
69 90 185 208 102 103 185 195 185 203 0 21 -53 69 -88 82 -26 9 -29 6 -60
-47z m915 -1112 c-4 -28 -16 -71 -28 -96 -27 -57 -104 -140 -171 -186 -52 -36
-54 -36 -93 -22 -22 8 -54 14 -72 15 -51 0 -63 9 -63 46 0 119 115 218 314
270 125 32 120 33 113 -27z"/>
</g>
</svg>
