<?xml version="1.0" standalone="no"?>
<!DOCTYPE svg PUBLIC "-//W3C//DTD SVG 20010904//EN"
 "http://www.w3.org/TR/2001/REC-SVG-20010904/DTD/svg10.dtd">
<svg version="1.0" xmlns="http://www.w3.org/2000/svg"
 width="360.000000pt" height="360.000000pt" viewBox="0 0 360.000000 360.000000"
 preserveAspectRatio="xMidYMid meet">
<metadata>
Created by potrace 1.15, written by Peter Selinger 2001-2017
</metadata>
<g transform="translate(0.000000,360.000000) scale(0.100000,-0.100000)"
fill="#000000" stroke="none">
<path d="M1626 2779 c-20 -21 -36 -45 -36 -53 0 -21 28 -46 52 -46 17 0 19 -5
15 -32 -3 -18 -14 -102 -23 -186 l-17 -153 -81 -63 c-45 -35 -99 -83 -120
-106 -31 -34 -42 -41 -55 -33 -23 14 -40 70 -40 136 -1 56 -2 57 -29 57 -19 0
-39 -11 -61 -34 -32 -33 -33 -37 -27 -87 9 -63 28 -111 62 -156 30 -39 95 -83
124 -83 13 0 48 36 107 110 85 106 88 109 91 78 5 -47 -16 -117 -50 -171 -36
-56 -120 -117 -161 -117 -68 0 -164 -76 -247 -196 -56 -81 -150 -272 -196
-396 -26 -72 -31 -78 -56 -78 -16 0 -28 3 -28 8 0 4 11 49 25 100 14 51 25
120 25 152 0 67 -6 73 -77 85 -33 5 -43 11 -43 26 0 10 34 61 75 114 77 99
139 200 150 247 5 20 1 36 -15 58 -21 30 -22 30 -112 30 -75 0 -93 -3 -104
-17 -13 -17 -13 -17 -14 2 0 13 70 90 196 216 182 182 196 199 190 224 -10 41
-60 82 -122 102 -54 17 -55 16 -76 -4 l-21 -21 21 -34 21 -34 -245 -278 c-135
-152 -244 -284 -242 -292 2 -9 15 -23 30 -31 25 -16 34 -15 162 16 74 18 149
31 165 29 l31 -3 -146 -205 c-128 -181 -145 -209 -139 -235 3 -16 9 -33 13
-37 5 -5 45 -1 90 8 45 10 85 14 89 10 3 -3 -20 -194 -52 -424 -32 -229 -57
-430 -57 -447 1 -38 27 -57 77 -53 47 4 60 24 72 109 8 53 8 54 50 61 112 19
271 149 452 371 35 42 69 77 75 77 7 0 40 -9 73 -21 l61 -20 3 -152 c4 -149 5
-154 37 -219 53 -108 132 -157 287 -179 60 -8 96 -6 211 11 181 28 270 48 284
65 9 11 7 23 -12 56 l-23 41 -180 -8 c-270 -13 -335 -10 -398 19 -61 28 -91
68 -102 134 -6 36 -4 44 12 49 77 25 257 149 336 233 71 75 107 141 115 206 4
41 1 48 -43 99 -30 36 -55 56 -69 56 -51 0 -238 -110 -393 -231 -56 -44 -68
-49 -114 -49 -28 0 -49 4 -47 8 2 5 18 37 36 73 17 35 37 84 43 109 15 64 108
152 212 203 87 43 106 43 188 2 56 -29 115 -75 244 -195 169 -155 361 -293
522 -374 134 -67 303 -116 399 -116 l45 0 -3 37 -3 36 -130 52 c-244 96 -440
200 -643 342 -159 110 -402 321 -402 348 0 9 22 15 63 20 146 16 267 55 281
91 6 17 -36 84 -54 84 -26 0 -155 -32 -220 -55 -41 -15 -141 -58 -222 -97 -82
-40 -150 -70 -152 -67 -9 9 15 114 36 157 44 93 96 130 286 205 95 38 172 71
172 73 0 11 -41 83 -49 89 -18 11 -165 -45 -264 -102 -54 -30 -100 -53 -102
-51 -2 1 22 148 52 326 62 364 63 351 -17 392 -84 43 -85 43 -124 -1z m-122
-1066 c-11 -64 -40 -120 -90 -173 -59 -63 -163 -125 -224 -134 -76 -12 -99
-49 -58 -93 27 -29 81 -30 123 -3 26 17 105 29 105 15 0 -18 -118 -236 -170
-313 -122 -183 -340 -361 -340 -279 0 24 67 258 110 387 48 141 118 310 160
385 15 28 33 67 39 87 22 66 104 113 251 143 103 21 102 21 94 -22z m436 -410
c0 -51 -142 -253 -209 -299 l-35 -24 -33 32 c-48 47 -45 77 18 143 57 60 214
174 242 175 12 0 17 -8 17 -27z"/>
<path d="M2053 2609 c-38 -18 -43 -23 -43 -54 0 -33 1 -34 48 -37 45 -3 47 -4
50 -35 3 -29 -1 -33 -45 -53 -47 -21 -152 -96 -228 -163 -37 -33 -39 -37 -23
-52 15 -16 26 -12 176 65 88 46 191 104 228 130 59 39 69 51 72 79 2 21 -3 40
-15 53 -18 21 -149 89 -168 87 -5 0 -29 -9 -52 -20z"/>
</g>
</svg>
