<?xml version="1.0" standalone="no"?>
<!DOCTYPE svg PUBLIC "-//W3C//DTD SVG 20010904//EN"
 "http://www.w3.org/TR/2001/REC-SVG-20010904/DTD/svg10.dtd">
<svg version="1.0" xmlns="http://www.w3.org/2000/svg"
 width="360.000000pt" height="360.000000pt" viewBox="0 0 360.000000 360.000000"
 preserveAspectRatio="xMidYMid meet">
<metadata>
Created by potrace 1.15, written by Peter Selinger 2001-2017
</metadata>
<g transform="translate(0.000000,360.000000) scale(0.100000,-0.100000)"
fill="#000000" stroke="none">
<path d="M1080 2969 c0 -5 10 -43 22 -83 l21 -74 -56 -85 c-87 -130 -207 -287
-341 -445 -66 -79 -130 -154 -141 -168 l-19 -24 29 -29 30 -30 148 36 c81 20
151 33 154 29 4 -4 -38 -98 -94 -210 l-102 -204 25 -23 24 -22 92 21 93 21 24
-24 24 -23 -92 -369 -92 -368 28 -22 c32 -26 103 -32 121 -10 6 7 43 105 83
218 174 499 283 759 320 759 5 0 9 -56 9 -127 1 -71 5 -173 10 -228 l9 -100
-51 -85 c-41 -70 -49 -89 -41 -110 14 -41 65 -39 138 5 125 76 196 152 217
232 8 34 15 43 32 43 19 0 23 -8 33 -66 14 -78 35 -114 67 -114 50 0 56 29 56
274 l0 224 84 261 c79 248 82 261 62 261 -16 0 -26 -10 -35 -37 -8 -21 -25
-63 -38 -92 l-24 -55 -24 25 c-24 24 -25 27 -14 83 6 33 8 67 6 77 -3 10 1 35
8 56 7 21 15 64 18 97 l6 59 -56 59 c-31 32 -67 61 -79 64 -37 9 -180 -32
-289 -85 -56 -26 -105 -53 -108 -58 -12 -19 23 -53 53 -53 41 0 117 27 175 62
l49 30 61 -19 60 -19 -2 -40 c-1 -21 -5 -133 -10 -249 l-8 -210 -120 0 -120 0
0 85 0 84 38 9 c33 8 42 6 61 -12 l22 -21 32 33 32 33 -34 33 -35 34 -95 -13
c-80 -11 -100 -11 -121 0 -20 11 -28 11 -37 2 -9 -9 -5 -27 20 -78 l33 -66
-183 -354 c-100 -195 -184 -351 -186 -345 -2 5 6 66 18 136 19 121 19 165 -3
193 -11 14 -81 15 -144 3 -41 -8 -43 -7 -43 15 0 12 36 83 80 156 73 122 80
137 80 186 0 68 -24 112 -60 112 -14 0 -53 -5 -88 -10 -35 -6 -67 -8 -73 -4
-14 8 -8 16 238 338 127 166 213 288 213 300 0 23 -38 65 -75 84 -38 19 -125
41 -125 31z m550 -1070 c24 -44 -29 -185 -104 -273 l-33 -40 -12 51 c-15 61
-2 171 29 240 18 42 20 43 64 43 36 0 48 -4 56 -21z m130 -103 c0 -33 -79
-168 -139 -236 l-30 -35 45 115 c26 63 50 125 55 138 6 16 17 22 39 22 16 0
30 -2 30 -4z"/>
<path d="M2142 2687 c-18 -21 -62 -120 -62 -139 0 -41 55 -26 66 17 5 20 12
25 40 25 l34 0 0 -162 c0 -137 -19 -597 -25 -606 -1 -1 -32 11 -69 28 -135 60
-156 43 -156 -127 0 -140 7 -153 80 -153 39 0 60 11 191 100 81 55 150 100
153 100 13 0 4 -42 -35 -161 -125 -379 -314 -739 -601 -1141 -54 -76 -98 -142
-98 -148 0 -28 44 -4 95 53 312 342 624 869 704 1187 28 111 88 234 139 287
81 83 160 104 327 85 79 -9 91 -8 102 6 7 10 11 22 10 27 -4 17 -119 69 -257
115 l-131 45 7 45 c5 25 9 61 9 80 1 19 7 45 13 58 7 12 17 72 23 134 l9 111
-27 30 c-46 47 -61 52 -89 26 -23 -22 -24 -28 -23 -138 1 -138 -15 -314 -36
-394 -37 -141 -107 -216 -202 -217 l-33 0 0 88 c0 48 7 202 15 342 21 371 22
360 -18 388 -38 25 -137 32 -155 9z m555 -629 c18 -18 33 -37 33 -44 0 -11
-88 -39 -96 -31 -6 6 17 107 24 107 3 0 21 -14 39 -32z m-589 -306 l23 -18
-31 -29 -30 -29 0 47 c0 52 4 55 38 29z"/>
</g>
</svg>
