<?xml version="1.0" standalone="no"?>
<!DOCTYPE svg PUBLIC "-//W3C//DTD SVG 20010904//EN"
 "http://www.w3.org/TR/2001/REC-SVG-20010904/DTD/svg10.dtd">
<svg version="1.0" xmlns="http://www.w3.org/2000/svg"
 width="360.000000pt" height="360.000000pt" viewBox="0 0 360.000000 360.000000"
 preserveAspectRatio="xMidYMid meet">
<metadata>
Created by potrace 1.15, written by Peter Selinger 2001-2017
</metadata>
<g transform="translate(0.000000,360.000000) scale(0.100000,-0.100000)"
fill="#000000" stroke="none">
<path d="M1355 2670 c-18 -20 -18 -21 13 -53 l32 -33 -130 -194 c-122 -183
-130 -198 -130 -243 0 -35 10 -70 34 -120 68 -144 88 -272 66 -421 -13 -82
-12 -87 6 -101 34 -26 59 -16 136 50 85 72 108 80 108 37 0 -36 -3 -39 -232
-206 -166 -122 -191 -137 -222 -134 l-34 3 44 140 c49 159 49 155 31 155 -23
0 -48 -36 -72 -102 -19 -53 -27 -63 -49 -66 -23 -3 -26 0 -26 25 0 44 -36 93
-80 110 -22 9 -40 21 -40 27 0 6 23 89 51 184 l51 174 -23 24 c-20 22 -30 24
-111 24 l-88 0 0 29 c0 23 44 86 200 285 157 201 200 263 200 286 0 23 -11 38
-56 74 -61 50 -66 52 -83 32 -8 -10 -8 -26 0 -64 12 -49 11 -52 -25 -118 -21
-37 -59 -97 -84 -133 -53 -74 -251 -324 -330 -416 -56 -65 -65 -100 -34 -128
28 -26 45 -21 133 35 l81 51 55 -18 c30 -11 57 -24 60 -30 12 -32 -58 -175
-170 -348 -68 -104 -69 -108 -52 -127 26 -28 38 -26 126 25 76 44 103 53 113
37 2 -4 -25 -165 -60 -357 -44 -237 -61 -355 -55 -366 7 -12 4 -21 -10 -32
-44 -38 -8 -160 38 -131 22 14 61 114 135 353 l64 204 85 36 c103 45 153 76
246 152 64 53 103 72 103 52 0 -5 -59 -115 -130 -246 -72 -131 -130 -247 -130
-258 0 -15 7 -19 33 -19 31 0 36 6 197 265 l165 266 34 -6 c44 -8 75 -29 90
-61 9 -21 6 -43 -19 -130 -63 -216 -125 -356 -186 -424 -20 -22 -45 -40 -55
-40 -16 0 -19 8 -19 58 0 45 -5 63 -23 86 -13 16 -29 26 -35 22 -6 -3 -14 -31
-17 -61 -8 -58 18 -167 50 -212 18 -25 62 -31 96 -12 26 14 103 133 154 237
36 76 41 82 70 82 124 1 306 92 425 214 24 25 50 46 58 46 8 0 48 -31 90 -69
159 -141 328 -249 451 -285 63 -18 231 -22 248 -5 8 8 13 8 17 0 10 -16 186
-15 186 2 0 6 -11 30 -23 52 l-23 40 -104 7 c-266 17 -485 107 -657 271 -120
114 -113 91 -88 306 l22 183 -22 88 -23 89 97 64 c67 44 111 67 142 71 79 13
145 35 164 56 18 20 18 21 -16 56 -30 31 -38 34 -69 29 -45 -8 -214 -89 -334
-159 -98 -58 -142 -71 -132 -38 3 9 37 131 77 271 66 236 71 260 67 335 -4 97
-24 132 -94 165 l-46 22 -24 -22 c-13 -12 -24 -27 -24 -32 0 -5 16 -31 35 -57
34 -46 35 -50 35 -141 0 -127 -13 -200 -64 -354 -24 -71 -49 -162 -56 -202
-26 -157 -132 -244 -316 -260 -72 -6 -74 -5 -74 16 0 12 37 84 82 159 141 237
238 465 219 515 -12 30 -57 59 -144 92 l-66 25 -163 -102 c-195 -121 -197
-123 -178 -142 13 -13 36 -6 175 50 159 64 222 77 243 51 28 -33 -136 -417
-203 -475 -33 -30 -80 -50 -91 -40 -2 3 34 77 81 164 84 157 95 187 75 199 -6
4 -73 -32 -150 -80 -77 -47 -145 -83 -150 -80 -17 10 -54 75 -80 137 l-23 56
163 194 c90 106 170 201 178 210 9 11 12 27 8 43 -8 29 -62 58 -131 70 -34 5
-44 2 -60 -15z m23 -806 c2 -11 -4 -27 -13 -34 -13 -11 -19 -10 -35 5 -11 10
-20 27 -20 37 0 29 64 21 68 -8z m726 -149 c36 -37 40 -86 16 -214 -12 -67
-24 -121 -26 -121 -2 0 -63 29 -135 65 -96 49 -129 70 -127 82 2 9 41 38 88
65 90 52 136 90 146 120 7 22 18 23 38 3z m-291 -273 c99 -50 237 -155 237
-182 0 -45 -169 -229 -247 -268 -48 -25 -123 -40 -123 -25 0 6 9 57 21 114 24
118 21 166 -15 245 -26 56 -72 94 -113 94 -13 0 -23 5 -23 12 0 6 10 23 23 36
20 22 28 24 90 19 54 -3 86 -13 150 -45z"/>
</g>
</svg>
