<?xml version="1.0" standalone="no"?>
<!DOCTYPE svg PUBLIC "-//W3C//DTD SVG 20010904//EN"
 "http://www.w3.org/TR/2001/REC-SVG-20010904/DTD/svg10.dtd">
<svg version="1.0" xmlns="http://www.w3.org/2000/svg"
 width="360.000000pt" height="360.000000pt" viewBox="0 0 360.000000 360.000000"
 preserveAspectRatio="xMidYMid meet">
<metadata>
Created by potrace 1.15, written by Peter Selinger 2001-2017
</metadata>
<g transform="translate(0.000000,360.000000) scale(0.100000,-0.100000)"
fill="#000000" stroke="none">
<path d="M1915 2559 c-264 -71 -386 -99 -427 -99 -55 0 -58 -1 -58 -25 0 -15
9 -30 23 -39 35 -22 124 -39 178 -34 27 3 52 1 55 -4 3 -5 0 -56 -7 -114 l-12
-105 33 -34 c30 -31 32 -37 22 -59 -15 -34 -82 -77 -130 -83 l-39 -5 -11 94
c-19 152 -55 231 -134 288 -38 28 -86 39 -102 23 -3 -4 13 -27 37 -52 42 -44
45 -51 57 -134 8 -59 20 -98 35 -121 16 -24 26 -59 33 -115 6 -45 16 -89 23
-97 27 -33 147 8 265 91 42 29 76 45 94 45 29 0 30 -2 30 -46 0 -99 -113 -250
-228 -305 -53 -26 -82 -33 -154 -37 -55 -3 -88 -9 -88 -16 0 -15 75 -76 93
-76 12 0 235 68 283 87 11 4 14 -5 14 -41 0 -72 -57 -165 -134 -220 -111 -79
-330 -185 -599 -291 l-97 -38 -25 23 c-27 25 -32 59 -13 78 9 9 9 15 -1 25
-19 19 -57 -31 -70 -93 -15 -71 -15 -73 19 -98 62 -46 91 -38 491 139 200 88
370 163 378 166 33 14 -6 -40 -174 -237 -99 -116 -182 -218 -183 -227 -4 -18
27 -93 39 -93 4 0 97 44 206 98 315 156 573 256 596 233 16 -16 35 -14 68 10
53 37 58 30 112 -175 42 -162 48 -191 37 -212 -10 -18 -10 -29 0 -54 13 -31
40 -44 81 -38 23 3 24 8 27 83 6 162 -28 324 -98 470 -39 81 -60 112 -113 163
-58 55 -70 62 -106 62 -23 0 -41 -5 -41 -11 0 -5 25 -42 56 -80 31 -39 54 -72
52 -73 -1 -2 -32 -9 -67 -15 -88 -17 -241 -72 -410 -147 -79 -35 -148 -64
-153 -64 -28 0 8 47 130 172 149 152 271 259 427 373 90 65 107 74 170 84 114
19 278 61 302 77 13 8 23 19 23 25 0 14 -54 35 -123 48 l-58 10 -311 -119
c-171 -66 -313 -120 -315 -120 -15 0 6 132 29 181 l25 55 90 32 c49 18 98 38
108 45 16 13 16 15 -4 55 -12 23 -23 42 -25 42 -2 0 -36 -13 -76 -30 -40 -16
-77 -30 -81 -30 -5 0 -9 38 -9 85 l0 84 63 42 c147 99 457 386 457 423 0 15
-31 47 -105 109 -57 48 -106 87 -107 86 -2 0 -169 -45 -373 -100z m414 -61
c10 -28 8 -36 -20 -79 -42 -67 -99 -123 -169 -168 -68 -44 -187 -97 -197 -87
-12 12 26 159 47 181 11 12 20 31 20 44 0 28 22 70 48 94 34 31 92 46 179 47
l81 0 11 -32z m-389 -37 c0 -10 -109 -294 -116 -300 -2 -2 -13 4 -24 14 -18
16 -20 30 -19 124 l0 106 41 33 c30 24 50 32 79 32 21 0 39 -4 39 -9z"/>
</g>
</svg>
