<?xml version="1.0" standalone="no"?>
<!DOCTYPE svg PUBLIC "-//W3C//DTD SVG 20010904//EN"
 "http://www.w3.org/TR/2001/REC-SVG-20010904/DTD/svg10.dtd">
<svg version="1.0" xmlns="http://www.w3.org/2000/svg"
 width="360.000000pt" height="360.000000pt" viewBox="0 0 360.000000 360.000000"
 preserveAspectRatio="xMidYMid meet">
<metadata>
Created by potrace 1.15, written by Peter Selinger 2001-2017
</metadata>
<g transform="translate(0.000000,360.000000) scale(0.100000,-0.100000)"
fill="#000000" stroke="none">
<path d="M1002 2727 c-18 -18 -32 -35 -32 -38 0 -3 19 -12 42 -20 22 -7 56
-27 75 -45 41 -39 42 -57 12 -244 -30 -197 -43 -234 -97 -292 -60 -64 -177
-123 -244 -123 l-48 0 0 -41 c0 -60 11 -64 110 -48 120 19 153 19 146 -3 -13
-43 -87 -286 -111 -365 l-26 -88 -117 0 c-103 -1 -120 -3 -142 -21 l-25 -21
22 -17 c17 -14 49 -19 155 -24 172 -8 251 -31 313 -91 25 -23 45 -52 45 -63 0
-31 -259 -277 -368 -351 -82 -54 -193 -102 -238 -102 -8 0 -14 -10 -14 -25 0
-22 4 -25 40 -25 106 0 253 59 375 151 69 52 196 174 269 257 34 40 41 43 71
38 78 -15 277 -121 425 -226 334 -238 675 -380 910 -380 49 0 70 4 70 13 0 8
3 7 10 -3 7 -12 53 -17 227 -26 l218 -10 22 25 c13 14 23 29 23 33 0 41 -313
89 -600 92 -74 0 -137 3 -140 6 -3 3 -39 19 -80 34 -260 100 -1010 495 -1010
533 0 8 36 133 80 276 63 205 78 263 68 274 -16 19 -79 45 -99 40 -8 -2 -83
-48 -167 -101 -83 -53 -158 -96 -167 -96 -21 0 -19 33 10 136 49 174 142 328
246 409 l46 35 121 -11 121 -11 58 46 c57 44 62 46 124 46 37 0 70 -5 77 -12
31 -31 6 -191 -47 -303 -28 -60 -109 -171 -118 -162 -2 3 0 21 5 40 8 29 6 39
-13 63 -19 24 -25 26 -38 15 -34 -28 -84 -239 -109 -459 l-12 -112 34 -35 c62
-64 101 -37 117 80 5 38 9 45 28 45 18 0 23 -8 33 -61 16 -85 48 -146 95 -180
45 -33 65 -36 74 -14 3 9 -5 92 -17 186 -21 156 -22 180 -11 294 27 283 111
478 266 623 87 82 178 132 238 132 l47 0 0 -293 0 -294 -23 -21 c-19 -18 -35
-22 -84 -22 -36 0 -65 5 -71 13 -7 8 -3 41 13 104 l22 92 -29 51 c-29 51 -77
90 -111 90 -113 0 -175 -224 -133 -480 18 -109 33 -166 50 -182 7 -8 19 -45
25 -83 30 -170 136 -310 364 -480 l38 -28 29 29 29 29 -16 389 c-15 358 -15
395 0 466 14 70 14 82 0 140 -15 57 -15 70 0 153 14 82 14 93 0 120 -14 28
-14 32 0 42 25 18 37 61 37 131 0 59 -3 69 -28 94 -34 34 -87 50 -162 50 -49
0 -65 -6 -130 -46 -91 -56 -170 -122 -207 -174 l-28 -38 -61 49 -62 49 -82 0
c-91 0 -143 -19 -235 -85 l-50 -36 -47 51 c-45 48 -49 50 -100 50 -65 0 -76
-7 -93 -56 -9 -26 -20 -40 -34 -42 -26 -4 -26 0 -1 172 15 106 18 146 10 183
-14 65 -49 123 -89 150 -48 32 -81 30 -119 -10z m1128 -754 c-1 -5 -7 -37 -15
-73 -24 -108 -20 -149 17 -187 18 -18 38 -33 46 -33 10 0 12 -9 7 -38 -5 -31
-2 -41 15 -57 21 -19 22 -18 86 13 35 18 66 32 69 32 2 0 9 -17 14 -37 30
-112 44 -563 18 -563 -25 0 -118 72 -152 118 -85 116 -153 283 -199 493 -28
126 -31 159 -16 159 6 0 10 17 10 38 0 48 15 100 36 123 17 18 64 27 64 12z
m-840 -364 c0 -35 -76 -235 -110 -289 -8 -12 -24 -9 -109 20 -124 43 -129 55
-43 117 31 23 91 76 132 118 57 57 81 75 102 75 26 0 28 -3 28 -41z m453 13
c11 -10 17 -30 17 -59 0 -41 -3 -45 -35 -59 -19 -7 -37 -14 -41 -14 -6 0 -1
48 13 127 5 34 11 34 46 5z"/>
</g>
</svg>
