<?xml version="1.0" standalone="no"?>
<!DOCTYPE svg PUBLIC "-//W3C//DTD SVG 20010904//EN"
 "http://www.w3.org/TR/2001/REC-SVG-20010904/DTD/svg10.dtd">
<svg version="1.0" xmlns="http://www.w3.org/2000/svg"
 width="360.000000pt" height="360.000000pt" viewBox="0 0 360.000000 360.000000"
 preserveAspectRatio="xMidYMid meet">
<metadata>
Created by potrace 1.15, written by Peter Selinger 2001-2017
</metadata>
<g transform="translate(0.000000,360.000000) scale(0.100000,-0.100000)"
fill="#000000" stroke="none">
<path d="M1327 2562 c-16 -17 -15 -20 13 -47 17 -16 30 -35 30 -43 0 -48 -247
-567 -445 -934 -93 -174 -109 -198 -131 -198 -18 0 -24 5 -24 21 0 17 -5 20
-37 17 -45 -4 -50 -17 -52 -149 -1 -78 1 -87 23 -108 50 -47 56 -40 263 294
105 171 195 310 200 310 4 0 34 -13 65 -28 35 -18 80 -31 117 -34 54 -5 62 -3
85 20 31 32 33 59 5 103 -11 19 -21 34 -22 34 -1 0 -34 -9 -72 -20 -38 -11
-89 -20 -112 -20 -41 0 -43 2 -43 28 0 34 61 133 114 184 74 72 142 90 255 67
53 -11 61 -10 132 19 l75 30 80 -18 79 -19 72 50 c83 57 105 62 97 22 -2 -16
-15 -108 -28 -206 -19 -147 -21 -179 -9 -188 18 -16 18 -16 -33 -89 l-45 -65
6 70 7 70 -36 34 c-34 33 -36 34 -102 28 -84 -6 -118 -29 -122 -80 -4 -43 6
-46 84 -22 27 8 54 15 61 15 7 0 -26 -113 -82 -280 l-93 -279 21 -43 c18 -36
27 -44 55 -46 26 -3 44 5 79 32 26 20 52 36 59 36 8 0 19 -20 25 -44 13 -51
62 -114 116 -147 l36 -22 24 27 c21 25 23 35 23 154 0 70 5 187 10 261 8 99 7
137 -1 147 -9 11 -8 18 1 29 11 13 11 20 0 40 -22 41 16 230 95 474 19 59 35
111 35 114 0 3 -18 12 -40 18 -36 11 -40 15 -40 45 0 18 -4 44 -10 58 -8 22
-16 26 -52 26 -34 0 -55 -9 -112 -49 -92 -63 -164 -99 -216 -107 -34 -6 -45
-3 -65 16 -23 22 -25 22 -156 11 -157 -13 -199 -14 -199 -3 0 5 34 69 75 143
41 74 75 139 75 144 -1 6 -32 34 -70 63 -74 56 -114 66 -143 34z m653 -1028
c0 -3 -11 -19 -25 -36 -28 -33 -34 -21 -9 17 15 23 34 33 34 19z m56 -211
c-10 -136 -17 -174 -30 -170 -6 2 -12 13 -14 25 -2 12 -12 28 -22 35 -19 13
-18 15 1 93 27 107 25 104 50 104 21 0 21 -3 15 -87z"/>
<path d="M2575 2419 c-82 -33 -265 -164 -265 -190 0 -5 20 -9 44 -9 31 0 92
19 197 60 83 33 165 60 180 60 l29 0 -1 -217 c0 -120 -4 -240 -9 -268 -4 -29
-4 -51 1 -53 12 -5 11 -82 -1 -159 -8 -46 -7 -68 1 -81 9 -14 9 -37 2 -88 -8
-54 -6 -131 12 -349 l22 -279 -23 -71 c-15 -45 -27 -69 -36 -67 -52 13 -122
104 -206 270 -53 105 -152 322 -152 335 0 2 26 17 58 33 37 18 86 57 140 111
78 78 83 85 80 120 -3 38 -3 38 -58 47 -30 5 -56 10 -57 11 -2 1 6 47 17 104
29 146 27 160 -18 204 -35 34 -43 37 -95 37 -53 0 -61 -3 -101 -40 -24 -22
-57 -66 -75 -99 -35 -67 -39 -112 -20 -279 39 -363 167 -650 388 -870 115
-115 162 -147 191 -132 12 6 29 28 38 48 15 33 17 95 20 512 3 316 0 507 -8
570 -10 87 -8 117 19 348 17 139 31 268 31 287 0 43 -31 68 -117 95 -82 25
-163 25 -228 -1z m-146 -716 l-41 -125 41 -42 40 -41 -40 -47 c-26 -31 -45
-45 -55 -41 -25 9 -53 78 -66 157 -21 134 21 250 110 307 l47 30 3 -36 c2 -23
-12 -82 -39 -162z"/>
<path d="M1514 1572 c-69 -24 -148 -73 -246 -152 -45 -36 -92 -73 -105 -83
l-23 -19 0 41 c0 33 -4 41 -18 41 -19 0 -62 -41 -81 -77 -27 -53 1 -123 49
-123 52 0 155 64 287 179 57 49 91 71 109 71 17 0 24 -4 21 -12 -2 -7 -75
-120 -161 -252 -88 -134 -156 -248 -156 -261 0 -42 26 -57 84 -50 77 11 229
51 269 72 l36 18 -21 33 c-20 31 -24 33 -62 28 -23 -3 -66 -9 -96 -12 l-54 -7
33 44 c77 102 196 289 227 356 38 81 42 112 17 154 -20 34 -38 35 -109 11z"/>
</g>
</svg>
