<?xml version="1.0" standalone="no"?>
<!DOCTYPE svg PUBLIC "-//W3C//DTD SVG 20010904//EN"
 "http://www.w3.org/TR/2001/REC-SVG-20010904/DTD/svg10.dtd">
<svg version="1.0" xmlns="http://www.w3.org/2000/svg"
 width="360.000000pt" height="360.000000pt" viewBox="0 0 360.000000 360.000000"
 preserveAspectRatio="xMidYMid meet">
<metadata>
Created by potrace 1.15, written by Peter Selinger 2001-2017
</metadata>
<g transform="translate(0.000000,360.000000) scale(0.100000,-0.100000)"
fill="#000000" stroke="none">
<path d="M1701 3011 c-34 -43 -39 -72 -16 -91 12 -10 19 -10 27 -2 7 7 25 12
40 12 24 0 28 -4 28 -26 0 -15 5 -54 11 -88 21 -112 -33 -359 -96 -442 -47
-61 -78 -70 -201 -55 -70 8 -110 9 -117 2 -14 -14 -1 -52 33 -93 l31 -38 114
0 c69 0 116 4 120 11 13 20 34 -25 35 -72 0 -110 -139 -220 -525 -416 l-209
-106 -66 18 c-95 27 -122 28 -145 11 -19 -16 -18 -18 49 -81 67 -64 69 -65
123 -65 48 0 66 7 156 59 228 131 508 272 571 287 26 6 28 5 24 -13 -3 -11
-139 -197 -303 -414 -164 -217 -299 -395 -300 -397 -2 -1 -25 -6 -53 -11 -73
-11 -82 -22 -82 -95 0 -52 4 -66 23 -84 13 -12 26 -22 29 -22 9 0 136 134 219
230 95 111 272 334 389 490 51 69 98 128 104 132 6 4 18 0 27 -8 16 -14 10
-32 -71 -234 l-88 -218 33 -32 33 -32 50 26 c173 88 470 206 518 206 22 0 24
-4 24 -42 0 -114 -36 -278 -86 -401 -73 -174 -232 -353 -409 -459 -60 -35 -68
-48 -32 -48 104 0 403 191 474 303 75 119 154 357 174 524 l11 92 -68 80 c-63
74 -69 79 -93 69 -125 -49 -404 -148 -416 -148 -8 0 -15 6 -15 13 0 49 60 184
110 247 27 34 45 43 168 85 165 56 216 82 220 113 4 26 -15 55 -30 46 -6 -4
-74 -9 -152 -13 l-141 -6 -5 -40 c-8 -56 -16 -65 -57 -65 l-36 0 5 68 c15 209
203 329 503 320 92 -3 137 -10 277 -48 l168 -45 22 23 23 22 -20 37 c-28 51
-94 90 -164 98 -75 8 -128 28 -173 65 -39 33 -119 145 -143 203 l-15 36 55 67
c47 57 55 73 55 108 0 39 -3 43 -52 73 l-53 31 -59 -31 c-32 -17 -61 -37 -63
-45 -3 -7 0 -45 6 -84 l12 -71 -100 -132 c-112 -147 -285 -335 -309 -335 -13
0 -14 13 -8 93 11 148 4 138 137 229 66 44 119 87 119 94 0 7 -19 26 -42 43
-37 27 -50 31 -108 31 l-66 0 23 207 c23 203 23 208 5 233 -22 29 -71 49 -124
49 -31 1 -41 -5 -67 -38z m647 -694 c49 -103 49 -105 5 -124 -52 -22 -229 -32
-218 -12 5 8 39 60 77 117 80 120 89 121 136 19z"/>
</g>
</svg>
