<?xml version="1.0" standalone="no"?>
<!DOCTYPE svg PUBLIC "-//W3C//DTD SVG 20010904//EN"
 "http://www.w3.org/TR/2001/REC-SVG-20010904/DTD/svg10.dtd">
<svg version="1.0" xmlns="http://www.w3.org/2000/svg"
 width="360.000000pt" height="360.000000pt" viewBox="0 0 360.000000 360.000000"
 preserveAspectRatio="xMidYMid meet">
<metadata>
Created by potrace 1.15, written by Peter Selinger 2001-2017
</metadata>
<g transform="translate(0.000000,360.000000) scale(0.100000,-0.100000)"
fill="#000000" stroke="none">
<path d="M1737 2924 c-32 -21 -38 -30 -35 -56 3 -32 10 -38 66 -58 20 -8 34
-21 38 -37 10 -38 -23 -383 -41 -435 -20 -58 -78 -113 -137 -129 -36 -9 -50
-9 -88 6 -76 29 -80 29 -80 8 0 -10 -5 -24 -10 -29 -15 -15 25 -63 66 -80 19
-8 67 -14 109 -14 l75 0 0 -84 0 -84 -47 -30 c-90 -57 -377 -181 -716 -307
-118 -44 -132 -47 -173 -38 l-44 10 0 -31 c0 -35 53 -116 75 -116 7 0 196 72
419 160 223 88 410 160 415 160 5 0 14 -14 20 -32 10 -29 8 -36 -42 -105 -125
-172 -291 -357 -589 -658 -175 -176 -318 -323 -318 -327 -1 -54 379 249 656
524 164 163 192 187 203 174 11 -13 7 -58 -18 -250 -17 -129 -31 -243 -31
-253 0 -10 11 -31 24 -48 l23 -29 62 17 c34 9 101 35 150 57 l90 40 71 -11
c69 -10 73 -10 96 12 29 27 30 40 4 64 -16 15 -34 17 -122 13 -92 -3 -112 -8
-188 -41 -105 -46 -112 -42 -97 56 8 52 8 74 -1 88 -10 15 -9 25 2 47 21 41
47 60 96 71 41 9 47 8 70 -14 25 -24 26 -24 53 -6 26 17 137 139 137 152 0 3
-10 15 -23 27 l-23 22 -105 -35 c-60 -21 -114 -33 -127 -30 -28 7 -62 60 -62
97 0 56 84 122 241 189 101 44 106 45 177 24 43 -13 55 -22 71 -53 37 -73 62
-202 86 -442 14 -149 14 -160 -7 -301 l-21 -146 -44 -11 c-41 -11 -43 -14 -43
-49 0 -66 68 -143 126 -143 19 0 23 15 53 210 l33 210 -11 377 c-11 333 -14
378 -29 389 -24 18 -139 42 -261 54 -136 13 -131 14 -131 -15 0 -18 -5 -25
-20 -25 -11 0 -20 4 -20 9 0 17 117 157 181 215 33 31 83 68 110 81 48 25 94
32 101 17 2 -5 116 2 253 15 190 17 262 21 298 13 67 -14 72 -13 86 13 12 22
7 29 -76 113 -49 49 -117 129 -153 178 l-64 89 12 65 c14 85 4 112 -41 112
-32 0 -43 -10 -137 -122 -138 -164 -342 -365 -414 -407 -41 -24 -74 -36 -112
-39 l-54 -4 0 33 c0 42 18 152 32 200 10 35 13 36 117 68 121 37 221 79 221
93 0 6 -8 23 -17 40 -17 29 -20 30 -75 25 -31 -3 -82 -17 -114 -31 -31 -14
-69 -26 -85 -26 -36 0 -36 -9 -8 257 19 193 20 204 3 239 -19 41 -66 74 -104
74 -14 0 -42 -12 -63 -26z m806 -644 c39 -46 102 -158 93 -167 -17 -17 -194
-54 -283 -60 -87 -5 -103 -4 -103 9 0 8 50 74 110 146 124 148 119 146 183 72z"/>
</g>
</svg>
