<?xml version="1.0" standalone="no"?>
<!DOCTYPE svg PUBLIC "-//W3C//DTD SVG 20010904//EN"
 "http://www.w3.org/TR/2001/REC-SVG-20010904/DTD/svg10.dtd">
<svg version="1.0" xmlns="http://www.w3.org/2000/svg"
 width="360.000000pt" height="360.000000pt" viewBox="0 0 360.000000 360.000000"
 preserveAspectRatio="xMidYMid meet">
<metadata>
Created by potrace 1.15, written by Peter Selinger 2001-2017
</metadata>
<g transform="translate(0.000000,360.000000) scale(0.100000,-0.100000)"
fill="#000000" stroke="none">
<path d="M1780 2373 c-232 -81 -438 -141 -508 -150 -43 -5 -62 -2 -103 17 -57
27 -71 21 -43 -18 35 -48 118 -82 224 -90 l94 -7 32 -127 31 -127 -32 -54
c-18 -29 -40 -78 -50 -108 -52 -161 -149 -301 -243 -352 -58 -32 -144 -46
-166 -28 -11 10 -18 6 -36 -19 -24 -34 -37 -37 -55 -13 -40 55 -27 -115 25
-321 29 -116 48 -150 86 -154 54 -5 55 7 8 227 -24 112 -43 205 -41 207 1 1
29 -3 62 -8 59 -10 235 -5 267 7 14 5 17 -7 22 -87 15 -211 38 -278 95 -278
33 0 69 56 134 210 65 155 70 170 65 175 -2 3 -40 -20 -84 -50 -43 -30 -84
-55 -91 -55 -10 0 -13 25 -13 99 l0 98 153 55 c168 61 171 61 214 -1 39 -57
39 -103 -2 -291 -30 -137 -35 -177 -26 -196 22 -49 66 -15 106 83 24 61 75
287 75 336 0 14 -13 61 -30 103 -16 43 -27 80 -25 83 3 3 83 14 177 26 128 16
184 19 222 12 28 -5 63 -6 80 -3 23 5 42 -2 92 -35 l63 -40 -15 -42 c-12 -35
-13 -43 0 -55 12 -12 10 -29 -14 -121 -82 -308 -222 -559 -298 -529 -5 1 -58
56 -116 120 -59 65 -114 118 -122 118 -48 0 -1 -93 114 -225 94 -107 146 -149
178 -141 35 9 154 129 154 155 0 11 6 21 13 21 19 0 61 48 86 96 44 89 123
414 138 570 7 73 -8 102 -72 139 -95 56 -148 67 -291 61 -289 -13 -573 -69
-783 -156 -41 -16 -78 -30 -82 -30 -19 0 -7 45 25 99 52 87 101 188 131 274
l28 79 -18 56 c-10 31 -19 62 -22 68 -2 6 100 79 227 164 126 84 230 158 230
165 0 19 -44 55 -66 54 -10 -1 -102 -30 -204 -66z"/>
</g>
</svg>
