<?xml version="1.0" standalone="no"?>
<!DOCTYPE svg PUBLIC "-//W3C//DTD SVG 20010904//EN"
 "http://www.w3.org/TR/2001/REC-SVG-20010904/DTD/svg10.dtd">
<svg version="1.0" xmlns="http://www.w3.org/2000/svg"
 width="360.000000pt" height="360.000000pt" viewBox="0 0 360.000000 360.000000"
 preserveAspectRatio="xMidYMid meet">
<metadata>
Created by potrace 1.15, written by Peter Selinger 2001-2017
</metadata>
<g transform="translate(0.000000,360.000000) scale(0.100000,-0.100000)"
fill="#000000" stroke="none">
<path d="M1206 2871 c-24 -27 -14 -53 33 -84 l38 -25 -36 -167 c-28 -135 -33
-170 -23 -186 48 -76 -73 -161 -317 -224 -49 -12 -70 -14 -94 -5 -25 8 -34 7
-46 -4 -12 -12 -12 -18 -1 -30 7 -9 21 -16 31 -16 10 0 27 -9 37 -20 l19 -21
140 51 c144 51 167 57 161 41 -1 -5 -91 -107 -198 -226 -107 -120 -196 -227
-198 -240 -9 -63 72 -53 243 31 112 55 145 64 145 41 0 -28 -223 -283 -510
-582 -251 -262 -226 -232 -205 -255 13 -14 30 -20 59 -20 39 0 56 13 289 205
220 183 277 223 277 197 0 -4 -57 -144 -126 -312 -113 -274 -125 -310 -121
-353 2 -26 12 -56 22 -67 22 -25 76 -26 110 -4 35 23 94 106 101 143 5 26 11
31 34 31 28 0 29 -2 35 -68 9 -98 25 -193 36 -214 6 -11 21 -18 39 -18 39 0
54 27 39 70 -8 23 -9 51 -1 103 8 47 8 88 2 117 -5 25 -9 83 -10 130 l0 85
136 305 c75 168 141 311 147 318 18 23 39 12 54 -28 22 -55 47 -60 186 -34 28
5 37 3 37 -7 0 -8 -84 -131 -185 -274 -191 -268 -204 -295 -167 -328 37 -34
75 -22 184 58 56 41 112 75 124 75 19 0 22 -7 27 -72 10 -130 54 -222 132
-273 73 -47 97 -50 460 -50 325 0 344 1 425 23 206 57 316 109 384 182 l45 48
-15 54 c-9 29 -25 80 -35 112 -11 37 -15 64 -9 71 13 15 11 98 -5 270 -23 236
-24 243 -40 221 -22 -30 -44 -143 -60 -312 -20 -207 -19 -254 2 -269 15 -11
15 -18 5 -53 -25 -82 -96 -134 -232 -171 -134 -36 -243 -45 -546 -46 l-290 0
-41 27 c-50 33 -81 94 -96 188 -8 56 -8 75 3 95 11 20 11 31 3 44 -10 16 -2
27 70 83 117 93 288 208 390 263 48 26 87 50 87 54 0 4 -15 21 -33 39 -28 27
-41 32 -80 32 -44 0 -51 -4 -103 -56 -59 -59 -170 -136 -242 -168 -40 -18 -44
-18 -60 -3 -15 16 -15 19 2 50 35 59 133 191 230 307 l96 115 -35 34 c-33 34
-34 34 -77 22 -24 -7 -60 -24 -82 -38 -21 -13 -42 -21 -46 -16 -5 4 -4 35 2
68 16 99 7 185 -25 233 -15 23 -27 43 -27 46 0 2 10 6 23 10 54 14 327 244
327 276 0 10 -19 35 -42 54 -57 49 -116 50 -189 4 l-50 -33 6 -54 c4 -30 9
-60 11 -66 3 -7 -20 -27 -53 -45 -70 -40 -152 -102 -235 -178 -67 -62 -238
-257 -238 -271 0 -5 11 -23 25 -39 33 -39 32 -52 -4 -52 -26 0 -29 -4 -35 -40
-11 -70 -113 -160 -181 -160 -22 0 -25 4 -25 38 0 60 52 152 136 241 74 79 85
102 64 141 -10 19 -11 19 -61 0 -77 -31 -79 -30 -79 48 l0 68 91 83 c51 48 89
90 87 99 -2 8 -14 23 -28 33 -22 16 -32 17 -73 8 -27 -6 -50 -9 -53 -6 -2 2 9
68 26 146 16 78 30 165 30 193 0 47 -4 55 -56 114 -61 70 -95 82 -128 45z
m618 -871 c0 -139 -18 -222 -60 -277 -33 -44 -64 -44 -64 -1 0 24 -15 52 -61
111 l-61 78 104 109 c138 146 143 146 142 -20z m-644 -20 c-13 -24 -90 -70
-116 -70 -28 1 75 90 104 90 20 0 21 -3 12 -20z m-30 -399 c0 -21 -115 -111
-141 -111 -13 0 119 129 134 130 4 0 7 -9 7 -19z m220 -48 c0 -5 -21 -54 -47
-110 -45 -101 -47 -103 -80 -103 -18 0 -33 3 -33 8 -1 32 51 143 81 174 32 33
79 52 79 31z m-259 -422 c11 -37 9 -43 -42 -142 -54 -105 -110 -179 -135 -179
-8 0 -14 5 -14 11 0 9 119 288 142 332 15 29 37 19 49 -22z"/>
</g>
</svg>
