<?xml version="1.0" standalone="no"?>
<!DOCTYPE svg PUBLIC "-//W3C//DTD SVG 20010904//EN"
 "http://www.w3.org/TR/2001/REC-SVG-20010904/DTD/svg10.dtd">
<svg version="1.0" xmlns="http://www.w3.org/2000/svg"
 width="360.000000pt" height="360.000000pt" viewBox="0 0 360.000000 360.000000"
 preserveAspectRatio="xMidYMid meet">
<metadata>
Created by potrace 1.15, written by Peter Selinger 2001-2017
</metadata>
<g transform="translate(0.000000,360.000000) scale(0.100000,-0.100000)"
fill="#000000" stroke="none">
<path d="M1810 2892 c0 -11 9 -44 19 -75 l19 -55 -113 -339 c-186 -559 -333
-903 -431 -1013 -25 -27 -50 -50 -55 -50 -5 0 -9 31 -9 68 0 96 36 165 135
261 76 74 84 88 64 108 -8 8 -33 -5 -92 -48 -112 -82 -112 -81 -86 141 11 96
19 190 18 210 -1 19 3 46 9 60 5 14 13 68 17 121 6 81 5 98 -9 112 -19 19 -78
37 -122 37 -36 0 -74 -35 -74 -68 0 -20 5 -22 50 -22 28 0 50 -4 50 -8 0 -5
-7 -30 -16 -55 -15 -43 -15 -51 0 -87 13 -33 13 -40 2 -40 -11 0 -16 -25 -20
-107 -20 -340 -35 -467 -62 -532 -21 -50 -28 -31 -15 41 19 101 -2 134 -97
153 -37 8 -58 17 -60 27 -2 8 36 67 83 130 47 64 85 123 85 132 0 23 -35 42
-125 67 -44 13 -81 24 -83 25 -6 3 49 139 84 205 65 123 105 158 254 224 177
78 220 106 220 144 0 44 -15 50 -99 39 -144 -17 -301 -85 -490 -212 -106 -70
-117 -75 -214 -95 -214 -43 -241 -80 -97 -137 l69 -27 85 22 c135 33 129 39
95 -85 -59 -222 -89 -473 -89 -762 l0 -173 30 -44 c16 -24 30 -47 30 -52 0 -4
-65 -105 -145 -222 -80 -118 -145 -220 -145 -227 0 -16 40 -84 48 -83 4 0 26
8 50 17 41 16 59 39 280 356 131 187 243 341 250 344 9 3 12 -15 12 -65 0 -41
5 -74 12 -81 10 -10 10 -17 0 -32 -15 -25 -15 -70 2 -188 l13 -92 -44 0 -44 0
6 -47 c14 -102 56 -270 78 -313 26 -50 49 -60 78 -34 18 16 19 35 19 426 0
404 0 408 20 408 33 0 97 37 141 81 49 49 109 140 156 237 33 70 37 73 62 66
33 -10 60 -10 139 1 58 7 62 6 62 -13 0 -31 -117 -190 -317 -428 -102 -122
-107 -137 -74 -211 23 -51 57 -74 116 -81 l45 -5 99 95 c99 96 212 186 306
245 62 39 145 77 152 69 24 -24 -79 -194 -216 -356 l-80 -96 -106 -34 c-106
-34 -133 -50 -120 -70 12 -20 86 -51 183 -76 53 -14 157 -53 231 -86 l134 -61
18 24 c28 36 23 55 -27 109 -59 63 -130 109 -185 118 -42 7 -44 9 -47 45 -3
30 0 37 15 37 17 0 333 312 387 382 26 34 26 38 13 70 -18 43 -40 61 -110 93
-68 31 -81 29 -218 -42 -106 -54 -210 -125 -345 -237 -80 -67 -110 -86 -133
-86 -49 0 -39 28 45 126 224 261 401 500 391 528 -9 22 -47 35 -152 53 -69 11
-99 12 -133 3 -25 -6 -47 -9 -50 -6 -5 6 126 395 138 409 12 14 144 -20 211
-53 96 -48 181 -112 300 -226 122 -117 212 -168 398 -228 119 -39 337 -86 395
-86 35 0 37 2 34 27 -6 54 -94 93 -348 157 l-165 41 -135 97 c-268 191 -493
323 -602 351 l-46 12 79 210 c50 134 79 225 79 250 0 76 -70 155 -137 155 -25
0 -33 -4 -33 -18z m-850 -932 c0 -53 -58 -130 -97 -130 -12 0 -14 9 -9 48 15
105 13 102 62 102 38 0 44 -3 44 -20z m-38 -361 c29 -11 56 -24 61 -28 12 -12
-85 -252 -101 -249 -8 2 -29 43 -47 93 l-32 90 21 57 c12 32 26 58 33 58 7 0
36 -9 65 -21z"/>
</g>
</svg>
