<?xml version="1.0" standalone="no"?>
<!DOCTYPE svg PUBLIC "-//W3C//DTD SVG 20010904//EN"
 "http://www.w3.org/TR/2001/REC-SVG-20010904/DTD/svg10.dtd">
<svg version="1.0" xmlns="http://www.w3.org/2000/svg"
 width="360.000000pt" height="360.000000pt" viewBox="0 0 360.000000 360.000000"
 preserveAspectRatio="xMidYMid meet">
<metadata>
Created by potrace 1.15, written by Peter Selinger 2001-2017
</metadata>
<g transform="translate(0.000000,360.000000) scale(0.100000,-0.100000)"
fill="#000000" stroke="none">
<path d="M1682 2787 c-22 -23 -32 -43 -32 -64 0 -41 6 -44 57 -30 24 6 45 8
48 5 3 -3 -8 -90 -24 -192 -31 -191 -38 -212 -93 -263 -36 -34 -127 -72 -218
-90 -77 -15 -87 -15 -153 1 -38 9 -70 15 -71 14 -1 -2 -7 -13 -14 -26 -17 -30
-2 -57 39 -71 51 -18 195 -13 279 9 41 11 77 20 79 20 2 0 1 -23 -2 -50 -7
-55 -72 -199 -130 -290 l-36 -55 28 -29 29 -29 84 86 c59 61 100 94 141 112
57 27 117 31 124 9 2 -7 -97 -139 -221 -295 -228 -287 -247 -319 -212 -348 10
-9 33 9 107 82 113 113 180 150 279 155 74 4 92 -7 107 -68 5 -19 17 -36 26
-38 9 -2 53 7 99 19 120 33 158 80 105 133 -21 21 -34 23 -179 29 -86 4 -170
10 -187 13 l-30 6 155 176 c85 97 154 183 154 192 0 13 -25 18 -152 28 -84 7
-162 11 -173 10 -32 -4 -32 53 -1 117 44 89 145 139 310 151 81 7 82 6 166
-36 102 -51 146 -84 166 -121 17 -34 20 -337 3 -408 -8 -37 -6 -50 11 -85 30
-62 40 -195 40 -533 l0 -303 -33 0 c-32 0 -39 7 -173 205 -131 192 -161 225
-179 196 -6 -10 81 -178 203 -394 68 -120 158 -248 178 -254 12 -4 49 77 103
227 l31 84 -22 560 c-16 411 -19 580 -11 640 8 66 7 85 -5 104 -23 35 -153
117 -241 151 -144 56 -150 56 -311 33 -80 -11 -146 -19 -148 -17 -2 2 14 92
37 200 23 108 41 206 41 217 0 20 -114 137 -136 138 -5 0 -24 -15 -42 -33z"/>
<path d="M1134 1965 c-3 -13 -2 -36 3 -50 9 -29 -29 -774 -46 -882 -6 -37 -7
-70 -2 -73 5 -3 12 -25 16 -49 7 -45 34 -81 60 -81 22 0 43 38 59 110 24 107
29 198 17 350 -12 141 -11 150 18 344 17 110 31 208 31 219 0 21 -116 136
-137 137 -7 0 -15 -11 -19 -25z"/>
</g>
</svg>
