<?xml version="1.0" standalone="no"?>
<!DOCTYPE svg PUBLIC "-//W3C//DTD SVG 20010904//EN"
 "http://www.w3.org/TR/2001/REC-SVG-20010904/DTD/svg10.dtd">
<svg version="1.0" xmlns="http://www.w3.org/2000/svg"
 width="360.000000pt" height="360.000000pt" viewBox="0 0 360.000000 360.000000"
 preserveAspectRatio="xMidYMid meet">
<metadata>
Created by potrace 1.15, written by Peter Selinger 2001-2017
</metadata>
<g transform="translate(0.000000,360.000000) scale(0.100000,-0.100000)"
fill="#000000" stroke="none">
<path d="M1027 2520 c-229 -76 -302 -119 -266 -155 14 -14 33 -9 198 55 146
56 186 68 202 60 13 -7 18 -18 14 -33 -2 -12 -18 -103 -35 -202 -17 -99 -33
-188 -36 -197 -8 -26 -24 -22 -60 13 l-31 30 -59 -17 c-33 -9 -64 -19 -70 -21
-6 -2 -14 7 -18 20 -20 81 -172 176 -193 121 -3 -9 13 -62 37 -119 l42 -103
-62 -509 c-33 -279 -63 -522 -66 -539 -5 -25 -12 -33 -33 -37 -46 -9 -79 -44
-96 -99 -24 -83 -20 -122 16 -152 17 -14 35 -26 40 -26 25 0 49 23 49 45 0 13
9 32 19 42 13 12 35 84 71 228 54 219 88 326 105 332 6 2 37 -63 69 -144 95
-242 187 -417 268 -509 25 -28 37 -34 69 -34 21 0 39 1 39 3 0 1 -14 193 -30
427 -16 234 -30 448 -30 476 0 30 12 86 30 138 l30 89 -22 29 c-20 29 -21 38
-15 216 6 185 15 250 58 403 l21 77 -41 71 c-23 39 -47 71 -54 71 -7 -1 -79
-23 -160 -50z m-67 -617 c0 -60 -21 -149 -65 -283 -44 -130 -49 -139 -72 -123
-10 6 -16 17 -14 25 10 37 12 96 3 102 -22 14 61 260 105 308 29 32 43 22 43
-29z m140 -153 c0 -106 -13 -156 -51 -197 -24 -24 -76 -49 -86 -39 -5 5 62
245 88 314 5 13 17 22 29 22 19 0 20 -6 20 -100z m-11 -350 c6 -28 11 -92 11
-143 1 -63 13 -156 39 -297 39 -206 40 -230 5 -230 -19 0 -63 70 -129 207 -69
141 -168 364 -163 367 2 2 19 11 39 20 20 9 65 41 100 71 35 30 69 54 76 55 6
0 16 -23 22 -50z"/>
<path d="M2129 2364 c-69 -75 -230 -177 -392 -250 l-100 -45 -32 31 c-24 23
-34 44 -39 78 -6 47 -29 82 -53 82 -22 0 -16 -53 32 -269 25 -112 45 -211 45
-220 0 -9 -25 -106 -57 -216 -43 -152 -67 -216 -97 -265 -48 -79 -82 -155 -97
-217 -12 -45 -11 -47 16 -69 l29 -23 29 42 c107 158 205 440 252 726 15 89 16
114 5 173 -6 38 -10 72 -6 75 8 8 295 121 298 117 2 -1 -4 -81 -12 -176 -16
-164 -15 -183 3 -363 11 -104 26 -213 33 -242 28 -102 114 -184 235 -224 69
-22 88 -24 289 -23 179 0 232 4 315 21 139 29 213 59 258 103 44 45 45 58 12
165 -22 71 -25 98 -25 243 0 154 -7 202 -30 202 -33 0 -65 -170 -47 -255 14
-69 -13 -215 -48 -261 -60 -78 -201 -115 -450 -117 -234 -1 -313 19 -388 102
-19 22 -40 57 -46 78 -14 51 -14 462 0 558 9 57 9 78 0 89 -10 11 4 37 69 127
73 102 80 116 80 159 0 36 -5 52 -23 68 -29 27 -28 27 -58 -4z"/>
</g>
</svg>
