<?xml version="1.0" standalone="no"?>
<!DOCTYPE svg PUBLIC "-//W3C//DTD SVG 20010904//EN"
 "http://www.w3.org/TR/2001/REC-SVG-20010904/DTD/svg10.dtd">
<svg version="1.0" xmlns="http://www.w3.org/2000/svg"
 width="360.000000pt" height="360.000000pt" viewBox="0 0 360.000000 360.000000"
 preserveAspectRatio="xMidYMid meet">
<metadata>
Created by potrace 1.15, written by Peter Selinger 2001-2017
</metadata>
<g transform="translate(0.000000,360.000000) scale(0.100000,-0.100000)"
fill="#000000" stroke="none">
<path d="M1973 2528 c-11 -13 -27 -37 -36 -53 -14 -28 -14 -32 8 -59 19 -24
28 -28 56 -24 19 3 41 8 49 12 13 5 20 -11 38 -86 19 -85 21 -105 12 -233 -5
-77 -9 -165 -10 -196 l0 -57 -63 -25 c-88 -35 -168 -55 -259 -63 -84 -7 -95
-17 -56 -54 23 -21 117 -60 146 -60 9 0 60 11 112 25 52 14 100 25 106 25 7 0
6 -39 -3 -127 -12 -106 -18 -134 -39 -164 -57 -83 -230 -171 -459 -234 -55
-16 -103 -31 -108 -35 -4 -3 8 -21 27 -39 l34 -33 188 62 c253 83 510 147 670
167 125 16 137 15 196 -1 34 -9 114 -42 177 -72 l115 -55 34 34 c40 40 37 50
-31 124 -77 83 -76 83 -413 83 l-296 0 6 43 c3 23 13 112 22 197 9 85 18 156
19 157 1 2 57 17 125 34 139 35 227 70 237 94 4 12 -9 31 -40 63 l-46 46 -113
-26 c-62 -14 -118 -23 -126 -21 -37 15 -66 135 -52 219 23 139 4 247 -52 301
-59 57 -138 71 -175 31z"/>
<path d="M1037 2418 l-167 -51 21 -24 c12 -12 41 -32 64 -43 38 -18 45 -19 88
-6 26 8 72 28 102 45 31 18 69 31 88 31 33 0 35 -2 50 -56 15 -51 15 -70 0
-220 -14 -142 -19 -164 -32 -158 -44 19 -122 34 -177 34 l-62 0 -33 53 c-51
79 -128 157 -156 157 -36 0 -37 -20 -3 -96 l31 -69 -11 -330 -12 -330 -79
-371 c-43 -203 -79 -374 -79 -380 0 -10 47 -34 67 -34 14 0 40 84 77 245 25
109 86 402 86 410 0 3 6 5 14 5 7 0 53 -66 101 -147 116 -194 244 -387 295
-446 43 -48 76 -60 87 -30 6 14 -18 610 -33 828 l-6 80 96 129 c53 71 96 133
96 137 0 19 -44 7 -93 -26 -54 -36 -104 -47 -94 -21 15 38 18 88 8 140 -9 47
-7 73 9 152 28 133 28 300 0 354 -29 57 -77 90 -131 89 -24 0 -119 -23 -212
-51z m110 -540 c12 -15 -126 -408 -143 -408 -5 0 -23 13 -39 30 l-28 29 5 129
c6 138 17 174 64 211 31 24 125 30 141 9z m93 -250 l-1 -73 -65 -70 c-36 -38
-63 -63 -61 -55 68 233 82 270 105 270 21 0 22 -4 22 -72z m34 -485 c27 -219
27 -228 9 -241 -16 -12 -22 -8 -61 35 -67 77 -133 177 -152 234 l-18 53 46 27
c26 15 67 48 92 73 24 25 47 46 50 46 3 0 18 -102 34 -227z"/>
</g>
</svg>
