<?xml version="1.0" standalone="no"?>
<!DOCTYPE svg PUBLIC "-//W3C//DTD SVG 20010904//EN"
 "http://www.w3.org/TR/2001/REC-SVG-20010904/DTD/svg10.dtd">
<svg version="1.0" xmlns="http://www.w3.org/2000/svg"
 width="360.000000pt" height="360.000000pt" viewBox="0 0 360.000000 360.000000"
 preserveAspectRatio="xMidYMid meet">
<metadata>
Created by potrace 1.15, written by Peter Selinger 2001-2017
</metadata>
<g transform="translate(0.000000,360.000000) scale(0.100000,-0.100000)"
fill="#000000" stroke="none">
<path d="M1219 2431 c-106 -34 -179 -69 -179 -85 0 -48 143 -66 208 -26 17 11
32 24 32 30 0 13 17 13 80 -1 l50 -11 0 -132 c0 -131 -13 -242 -31 -260 -5 -6
-16 -3 -27 7 -27 24 -39 22 -173 -29 l-120 -45 -39 35 c-47 42 -84 62 -133 71
l-38 7 26 -68 c15 -38 42 -111 62 -162 l34 -92 -21 -143 c-40 -267 -107 -567
-163 -732 -24 -69 -24 -70 -68 -78 -24 -5 -52 -17 -63 -27 -20 -19 -21 -17 30
-88 1 -2 20 2 42 7 47 13 109 76 146 150 33 65 71 197 91 314 8 50 18 107 21
125 4 27 9 33 26 30 16 -2 42 -39 96 -133 107 -188 197 -320 276 -402 61 -65
73 -73 105 -73 48 0 63 14 50 48 -36 95 -75 502 -67 713 3 104 6 119 33 168
17 30 64 89 105 131 80 81 285 240 311 240 8 0 44 -10 79 -21 l63 -22 118 59
c65 32 121 55 125 51 12 -12 -46 -153 -98 -237 -110 -179 -293 -333 -498 -421
-63 -26 -79 -30 -106 -21 -29 8 -36 7 -55 -14 l-23 -25 44 -44 45 -43 120 49
c265 111 565 198 676 199 26 0 149 -25 275 -55 l227 -55 24 22 c15 14 23 33
23 54 0 28 -9 41 -61 84 -51 42 -66 50 -102 50 -23 0 -121 5 -217 10 -128 8
-200 8 -268 -1 -51 -6 -96 -9 -99 -5 -4 3 51 101 121 217 120 197 128 214 123
251 -6 42 -48 112 -82 134 -19 13 -37 7 -181 -56 -155 -68 -161 -70 -244 -70
l-85 -1 -185 -159 c-102 -87 -191 -159 -199 -160 -11 0 -11 3 -1 15 7 8 23
132 40 302 l28 288 -24 42 c-13 22 -45 59 -70 82 -42 37 -52 41 -98 40 -28 0
-90 -13 -137 -28z m48 -597 c16 -41 -56 -227 -138 -358 l-30 -48 -26 33 c-23
32 -24 39 -19 115 10 141 51 230 120 260 42 18 85 18 93 -2z m123 -248 c0 -44
-42 -108 -105 -156 -30 -23 -57 -41 -59 -39 -4 4 43 121 94 236 l21 47 24 -29
c13 -17 24 -43 25 -59z m2 -412 c3 -93 9 -204 12 -246 8 -96 -3 -100 -66 -25
-90 105 -140 189 -158 265 -8 32 -7 34 88 107 54 40 102 73 107 71 6 -1 13
-73 17 -172z"/>
</g>
</svg>
