<?xml version="1.0" standalone="no"?>
<!DOCTYPE svg PUBLIC "-//W3C//DTD SVG 20010904//EN"
 "http://www.w3.org/TR/2001/REC-SVG-20010904/DTD/svg10.dtd">
<svg version="1.0" xmlns="http://www.w3.org/2000/svg"
 width="360.000000pt" height="360.000000pt" viewBox="0 0 360.000000 360.000000"
 preserveAspectRatio="xMidYMid meet">
<metadata>
Created by potrace 1.15, written by Peter Selinger 2001-2017
</metadata>
<g transform="translate(0.000000,360.000000) scale(0.100000,-0.100000)"
fill="#000000" stroke="none">
<path d="M1723 2785 c-27 -19 -52 -83 -60 -155 l-6 -59 42 11 c38 10 44 8 68
-13 l26 -24 -7 -200 c-3 -110 -9 -230 -12 -266 l-7 -66 -58 -12 c-110 -22
-220 -94 -366 -238 -46 -46 -88 -83 -93 -83 -15 0 -33 81 -21 93 6 6 11 43 11
82 0 39 9 143 20 231 11 87 20 181 20 207 l0 48 -52 24 c-97 43 -119 43 -199
-5 -69 -42 -71 -43 -125 -33 -33 6 -54 6 -54 0 0 -13 42 -87 50 -87 28 0 109
34 150 64 27 20 56 36 63 36 6 0 27 -13 44 -28 l33 -27 -32 -235 c-17 -129
-33 -237 -35 -239 -2 -3 -21 5 -42 17 -31 18 -55 22 -124 22 -80 0 -86 1 -92
23 -12 38 -47 67 -99 82 -27 8 -51 14 -52 12 -2 -2 6 -54 18 -115 20 -100 21
-121 11 -203 -9 -67 -9 -96 -1 -109 21 -33 -37 -525 -85 -715 -20 -78 -25 -90
-46 -93 -13 -2 -28 4 -35 13 -11 16 -15 11 -34 -36 -17 -42 -20 -61 -13 -85
15 -53 31 -74 54 -74 32 0 103 76 112 120 17 83 88 320 112 373 35 77 60 84
114 31 22 -21 42 -50 46 -64 20 -86 96 -338 122 -406 36 -94 61 -124 100 -124
43 0 53 18 41 80 -11 58 -8 70 20 70 66 0 186 74 330 203 117 105 137 131 161
214 24 87 57 153 76 153 8 0 92 -76 187 -168 247 -243 364 -334 529 -413 123
-58 179 -69 349 -69 l148 0 32 29 32 28 -28 18 c-38 25 -157 52 -316 71 -107
13 -148 23 -196 46 -112 54 -331 228 -611 487 -91 84 -123 119 -123 137 0 39
163 155 473 334 98 57 108 65 105 89 -3 22 -9 27 -38 29 -90 9 -243 -64 -378
-179 l-73 -62 -25 24 c-24 22 -26 29 -21 84 7 92 69 198 225 385 40 47 72 94
72 106 0 44 -17 44 -146 -2 l-124 -44 1 123 c0 67 4 172 9 232 l8 110 -33 70
c-50 105 -108 151 -152 120z m40 -936 c8 -14 -15 -51 -118 -190 -70 -96 -138
-187 -150 -204 -51 -70 -115 -181 -115 -200 0 -12 13 -34 28 -49 l29 -27 49
17 c27 9 72 29 100 45 28 16 66 29 83 29 36 0 37 -5 20 -96 -22 -123 -236
-396 -358 -457 -73 -36 -108 -36 -122 1 -21 53 -23 92 -6 105 15 11 15 25 2
157 -20 203 -20 436 1 508 15 49 29 68 128 166 113 113 188 166 280 198 62 22
135 20 149 -3z m-809 -178 c13 -20 -58 -185 -90 -211 -15 -13 -16 -12 -9 20
10 41 10 49 0 112 -7 45 -7 47 26 67 36 22 64 27 73 12z m165 -69 c-3 -65 -9
-86 -31 -119 -28 -43 -115 -120 -124 -110 -7 7 78 208 112 265 37 62 47 54 43
-36z m625 -74 c-17 -56 -92 -118 -142 -118 -35 0 -26 20 35 82 43 44 64 58 86
58 25 0 27 -3 21 -22z m-629 -283 c4 -40 3 -87 -3 -108 -7 -24 -7 -49 0 -77
10 -37 8 -43 -12 -65 -13 -14 -29 -25 -35 -25 -6 0 -33 47 -59 105 -44 94 -47
107 -34 123 103 122 122 142 129 130 4 -6 11 -44 14 -83z"/>
</g>
</svg>
