<?xml version="1.0" standalone="no"?>
<!DOCTYPE svg PUBLIC "-//W3C//DTD SVG 20010904//EN"
 "http://www.w3.org/TR/2001/REC-SVG-20010904/DTD/svg10.dtd">
<svg version="1.0" xmlns="http://www.w3.org/2000/svg"
 width="360.000000pt" height="360.000000pt" viewBox="0 0 360.000000 360.000000"
 preserveAspectRatio="xMidYMid meet">
<metadata>
Created by potrace 1.15, written by Peter Selinger 2001-2017
</metadata>
<g transform="translate(0.000000,360.000000) scale(0.100000,-0.100000)"
fill="#000000" stroke="none">
<path d="M2011 3146 c-15 -18 2 -47 68 -111 l41 -39 0 -129 c0 -72 -5 -159
-12 -194 -10 -56 -17 -69 -52 -99 -43 -37 -210 -125 -368 -194 -85 -37 -103
-42 -142 -36 -25 4 -47 10 -50 14 -2 4 5 84 15 177 26 235 26 276 0 319 -31
49 -108 96 -158 96 -36 0 -51 -9 -151 -96 -62 -52 -112 -99 -112 -103 0 -4 8
-15 18 -24 16 -14 20 -13 57 15 22 16 68 50 102 75 l63 44 46 -33 46 -33 -6
-75 c-3 -41 -8 -142 -12 -225 -4 -82 -8 -153 -10 -156 -1 -3 -43 0 -91 7 -48
7 -109 13 -135 13 l-48 1 0 80 c0 68 -3 83 -21 101 -23 23 -108 64 -115 56
-12 -12 12 -84 36 -108 l26 -26 -32 -75 c-29 -67 -31 -78 -21 -123 8 -42 0
-125 -44 -490 l-54 -440 -27 -3 c-20 -2 -31 3 -44 25 -10 15 -19 30 -21 32 -2
3 -14 -6 -28 -19 -62 -58 7 -230 93 -230 60 0 114 109 128 258 9 96 33 146 83
171 22 12 56 21 75 21 35 0 35 0 56 -72 72 -244 150 -461 186 -516 l15 -22 40
20 c29 15 39 26 35 38 -54 170 -70 316 -63 579 6 243 23 346 77 460 67 145 99
171 397 325 l174 90 25 -23 c17 -16 24 -33 24 -59 0 -31 -9 -44 -66 -100 -130
-129 -253 -298 -337 -465 -44 -89 -107 -267 -107 -304 0 -25 68 -81 97 -81 19
0 32 20 82 123 74 153 130 230 188 258 28 14 43 27 43 40 0 15 7 19 33 19 39
0 38 2 35 -210 -3 -147 -4 -620 -1 -675 3 -75 -5 -481 -12 -577 -7 -97 -6
-108 9 -108 27 0 48 72 71 250 35 270 45 545 30 790 -7 118 4 240 23 240 3 0
49 -23 103 -50 94 -48 100 -50 181 -50 97 0 130 15 177 80 62 85 141 329 141
433 0 73 -31 131 -88 164 -39 23 -60 28 -137 31 -75 3 -111 -2 -213 -27 l-122
-30 -25 25 c-14 14 -25 30 -25 36 0 40 31 99 80 151 93 102 332 247 407 247
54 1 123 16 136 29 9 10 3 20 -25 47 -33 30 -44 34 -90 34 -103 0 -323 -44
-430 -85 -13 -5 -25 5 -47 39 l-29 46 19 61 c13 40 19 91 19 148 0 99 -13 129
-82 184 -45 36 -126 49 -147 23z m359 -569 c0 -17 -11 -28 -45 -45 -57 -27
-85 -28 -85 -3 0 23 19 40 67 57 53 19 63 17 63 -9z m-1080 -360 c0 -46 -7
-65 -53 -143 -109 -184 -155 -239 -185 -220 -12 7 30 325 47 354 17 32 86 62
144 62 l47 0 0 -53z m787 -39 c13 -12 23 -30 23 -39 0 -20 -172 -192 -197
-197 -8 -2 -14 0 -12 6 7 17 154 252 158 252 3 0 15 -10 28 -22z m574 -83 c45
-24 53 -51 40 -132 -7 -37 -24 -102 -37 -143 -79 -237 -223 -273 -393 -96
l-61 64 0 87 c0 70 4 94 20 120 56 91 326 154 431 100z m-1301 -125 c0 -50
-152 -201 -177 -177 -2 3 26 57 64 120 l68 115 23 -21 c12 -11 22 -28 22 -37z
m-24 -307 c-12 -133 -34 -151 -60 -50 l-16 62 30 28 c47 42 54 36 46 -40z"/>
</g>
</svg>
