<?xml version="1.0" standalone="no"?>
<!DOCTYPE svg PUBLIC "-//W3C//DTD SVG 20010904//EN"
 "http://www.w3.org/TR/2001/REC-SVG-20010904/DTD/svg10.dtd">
<svg version="1.0" xmlns="http://www.w3.org/2000/svg"
 width="360.000000pt" height="360.000000pt" viewBox="0 0 360.000000 360.000000"
 preserveAspectRatio="xMidYMid meet">
<metadata>
Created by potrace 1.15, written by Peter Selinger 2001-2017
</metadata>
<g transform="translate(0.000000,360.000000) scale(0.100000,-0.100000)"
fill="#000000" stroke="none">
<path d="M1859 2965 c-77 -14 -360 -103 -478 -150 -44 -17 -68 -22 -75 -15
-17 17 -72 11 -90 -9 -14 -15 -15 -24 -7 -40 33 -62 143 -65 309 -10 123 40
138 37 135 -35 -2 -55 -36 -119 -90 -166 -41 -37 -186 -110 -224 -113 -19 -2
-41 17 -107 91 -74 82 -87 92 -118 92 -33 0 -34 -1 -34 -39 0 -33 6 -45 39
-73 34 -29 40 -42 55 -113 44 -202 119 -409 172 -473 l19 -23 188 117 c104 64
191 114 193 111 3 -3 -27 -47 -66 -98 -181 -236 -305 -492 -375 -769 -35 -137
-42 -215 -22 -238 14 -15 14 -28 -1 -141 l-16 -123 25 -19 c13 -10 36 -19 50
-19 48 0 56 23 68 188 10 158 33 242 64 242 8 0 27 -19 42 -42 44 -67 223
-307 278 -373 181 -216 333 -329 396 -295 42 22 69 163 78 398 5 147 4 164
-12 182 -17 18 -17 20 -1 20 14 0 16 6 11 33 -21 124 -25 182 -25 339 0 103
-4 179 -10 183 -5 3 -7 18 -4 33 3 15 -4 87 -15 161 -13 91 -17 141 -10 158
28 73 0 110 -106 138 -55 15 -65 21 -65 40 0 16 10 27 32 36 81 33 237 215
383 445 85 135 85 127 -6 215 -134 129 -374 193 -580 154z m403 -161 c37 -31
71 -60 73 -65 10 -15 -32 -107 -96 -213 l-63 -105 -215 -81 c-119 -44 -224
-80 -233 -80 -14 0 -18 8 -18 33 1 25 23 63 105 172 l104 140 -37 33 c-29 25
-45 32 -70 30 -44 -3 -62 21 -62 83 0 93 35 107 274 108 l169 1 69 -56z m-652
-390 c0 -19 -81 -135 -133 -190 -46 -49 -66 -64 -87 -64 -27 0 -29 4 -40 56
-14 67 -6 87 44 122 69 47 216 99 216 76z m452 -461 c42 -126 88 -713 88
-1117 l-1 -201 -33 -38 -33 -39 -120 129 c-247 262 -353 394 -408 508 -33 68
-33 72 -24 135 14 95 65 195 142 276 62 67 111 103 122 92 3 -2 -27 -78 -66
-168 -88 -201 -87 -203 30 -184 l43 7 -23 -41 c-22 -38 -23 -42 -8 -58 15 -15
21 -15 71 0 29 8 74 29 98 45 64 42 144 126 135 141 -12 20 -85 47 -161 60
l-72 13 55 116 c69 145 72 155 43 187 -30 31 -93 32 -175 4 -32 -11 -69 -20
-82 -20 -61 0 7 83 104 128 71 32 231 83 248 78 6 -1 18 -25 27 -53z"/>
</g>
</svg>
