<?xml version="1.0" standalone="no"?>
<!DOCTYPE svg PUBLIC "-//W3C//DTD SVG 20010904//EN"
 "http://www.w3.org/TR/2001/REC-SVG-20010904/DTD/svg10.dtd">
<svg version="1.0" xmlns="http://www.w3.org/2000/svg"
 width="360.000000pt" height="360.000000pt" viewBox="0 0 360.000000 360.000000"
 preserveAspectRatio="xMidYMid meet">
<metadata>
Created by potrace 1.15, written by Peter Selinger 2001-2017
</metadata>
<g transform="translate(0.000000,360.000000) scale(0.100000,-0.100000)"
fill="#000000" stroke="none">
<path d="M1780 2478 c0 -27 5 -37 25 -46 14 -6 34 -26 46 -44 18 -30 20 -43
14 -127 -8 -115 -34 -220 -77 -309 -42 -86 -158 -204 -246 -251 -62 -32 -63
-33 -45 -53 23 -26 77 -18 144 20 26 14 51 23 55 19 16 -16 -98 -318 -204
-540 -57 -121 -64 -140 -54 -162 6 -14 16 -25 22 -25 5 0 42 48 81 107 60 92
79 132 126 268 126 367 209 550 264 579 213 110 279 149 279 165 0 34 -16 37
-127 25 -100 -10 -153 -5 -153 15 0 3 11 47 25 96 14 50 25 108 25 130 0 82
-62 146 -158 161 l-42 7 0 -35z m190 -448 c0 -27 -3 -30 -30 -30 -36 0 -38 15
-7 41 31 25 37 24 37 -11z"/>
<path d="M2302 2427 c-26 -28 -29 -57 -4 -57 40 -1 107 -44 192 -126 78 -75
92 -85 106 -73 18 15 13 77 -13 141 -41 103 -223 177 -281 115z"/>
<path d="M1143 2341 c-92 -36 -156 -74 -210 -124 -42 -39 -55 -67 -30 -67 6 0
83 27 171 60 87 33 163 60 170 60 6 0 23 -10 38 -23 l28 -22 -31 -200 c-18
-110 -34 -203 -38 -207 -3 -4 -25 -2 -49 4 -31 8 -58 8 -100 -1 l-56 -11 -81
80 c-82 82 -113 99 -101 58 3 -13 9 -81 13 -153 9 -192 -21 -444 -84 -713 -23
-97 -31 -116 -55 -133 -33 -24 -63 -111 -73 -214 -3 -39 -8 -81 -11 -95 -3
-20 2 -28 23 -37 15 -7 32 -13 39 -13 28 0 67 96 125 309 21 79 40 145 41 146
2 2 29 -2 61 -7 l58 -10 41 -82 c103 -205 214 -336 286 -336 35 0 43 22 28 76
-23 80 -37 509 -22 669 8 80 12 95 42 134 39 51 45 91 14 91 -19 0 -20 7 -20
96 0 134 18 316 44 446 l22 110 -38 43 c-37 42 -96 77 -148 88 -15 4 -53 -5
-97 -22z m-3 -623 c-1 -7 -29 -83 -63 -168 -58 -143 -65 -155 -90 -158 l-27
-3 0 79 c0 135 43 231 113 251 46 13 67 13 67 -1z m-2 -373 c-109 -123 -148
-148 -101 -67 16 26 66 114 113 194 l85 147 3 -80 3 -80 -103 -114z m102 -311
c0 -175 -3 -245 -11 -242 -13 4 -168 277 -169 297 0 19 83 133 120 165 60 50
60 51 60 -220z"/>
<path d="M2267 1733 c-4 -3 4 -25 18 -49 14 -23 25 -45 25 -48 0 -7 -110 -144
-173 -214 -60 -68 -123 -122 -141 -122 -8 0 -9 38 0 148 6 81 8 157 3 168 -9
26 -28 34 -85 34 -44 0 -44 0 -44 -35 0 -29 4 -35 21 -35 22 0 22 -2 16 -122
-9 -192 -51 -307 -139 -382 -23 -20 -39 -39 -35 -42 3 -3 29 -1 57 5 80 17 77
20 83 -71 3 -46 12 -100 21 -121 25 -56 80 -112 139 -138 48 -22 64 -24 212
-23 252 1 528 44 641 99 69 34 81 62 60 141 -8 33 -31 146 -51 251 -37 205
-62 294 -83 301 -19 6 -15 -172 9 -385 10 -95 19 -177 19 -181 0 -25 -186 -78
-410 -117 -96 -16 -147 -22 -154 -15 -6 6 -58 10 -117 10 -94 0 -110 3 -134
22 -44 34 -57 80 -62 213 l-5 120 115 103 c195 176 367 355 367 383 0 14 -17
41 -41 67 -35 37 -45 42 -83 42 -23 0 -46 -3 -49 -7z"/>
</g>
</svg>
