<?xml version="1.0" standalone="no"?>
<!DOCTYPE svg PUBLIC "-//W3C//DTD SVG 20010904//EN"
 "http://www.w3.org/TR/2001/REC-SVG-20010904/DTD/svg10.dtd">
<svg version="1.0" xmlns="http://www.w3.org/2000/svg"
 width="360.000000pt" height="360.000000pt" viewBox="0 0 360.000000 360.000000"
 preserveAspectRatio="xMidYMid meet">
<metadata>
Created by potrace 1.15, written by Peter Selinger 2001-2017
</metadata>
<g transform="translate(0.000000,360.000000) scale(0.100000,-0.100000)"
fill="#000000" stroke="none">
<path d="M1920 2702 c0 -9 11 -34 25 -54 46 -69 39 -104 -79 -366 -128 -284
-170 -346 -290 -421 -61 -38 -96 -41 -96 -8 0 12 9 146 20 297 25 356 26 422
2 443 -33 30 -115 22 -243 -24 -90 -32 -122 -39 -154 -35 -34 6 -42 3 -54 -16
-12 -20 -11 -24 13 -44 14 -13 47 -26 73 -30 44 -6 55 -3 139 40 82 42 94 45
122 35 18 -6 32 -14 32 -17 0 -4 -9 -77 -20 -162 -11 -85 -20 -176 -20 -202 0
-51 -3 -54 -46 -38 -18 7 -52 7 -110 -1 -73 -10 -89 -10 -127 5 -54 20 -106
70 -114 108 -4 19 -12 28 -24 28 -15 0 -19 -7 -19 -37 0 -56 18 -110 42 -127
19 -14 20 -19 10 -70 -8 -39 -8 -62 0 -84 9 -23 5 -74 -21 -254 -51 -362 -98
-573 -138 -619 -9 -10 -13 -44 -13 -100 0 -78 2 -87 28 -119 19 -22 34 -31 44
-27 21 8 62 144 83 272 19 125 60 215 107 238 39 19 44 16 52 -27 16 -82 112
-400 151 -501 52 -131 86 -195 127 -235 35 -35 50 -37 93 -10 l32 20 -18 107
c-59 343 -84 767 -55 931 17 97 48 175 90 226 l24 29 51 -32 c39 -26 57 -32
79 -26 39 9 185 93 350 201 170 112 213 124 130 36 -134 -140 -233 -361 -273
-605 -20 -122 -31 -317 -18 -317 6 0 13 -34 17 -76 10 -106 18 -124 58 -124
36 0 301 52 388 76 103 28 130 44 130 76 0 16 -6 31 -15 34 -8 4 -91 -8 -185
-26 -93 -18 -174 -30 -180 -28 -7 2 61 85 149 185 140 158 161 186 161 216 l0
33 -67 -7 c-88 -9 -170 -41 -235 -89 -28 -22 -55 -37 -60 -34 -4 3 -8 26 -8
50 0 45 2 48 113 159 132 132 207 177 312 183 l61 4 11 -34 c7 -24 7 -52 0
-92 -8 -44 -5 -119 12 -339 13 -155 22 -317 20 -359 -5 -97 -24 -126 -107
-164 -7 -3 38 -176 53 -204 12 -23 22 -30 45 -30 39 0 63 47 84 161 31 167 47
461 29 508 -6 16 -6 34 0 52 8 19 5 53 -10 130 -13 62 -17 106 -12 110 6 3 6
16 0 33 -7 18 -7 42 0 74 5 27 9 84 7 127 l-3 78 -42 15 c-24 7 -43 20 -43 28
0 17 -23 17 -120 0 -99 -18 -186 -54 -277 -116 -40 -27 -76 -50 -80 -50 -14 0
6 89 31 141 58 118 94 150 367 329 144 94 255 173 257 183 5 26 -24 32 -110
19 -167 -24 -417 -130 -678 -286 l-125 -75 -3 28 c-2 21 16 62 65 147 37 65
82 156 99 203 l32 84 148 52 c82 28 173 63 202 78 47 25 52 30 52 62 0 18 -4
36 -9 39 -4 3 -82 -19 -172 -49 -90 -30 -173 -55 -185 -55 -17 0 -23 8 -28 34
-8 41 -38 81 -76 101 -39 20 -60 19 -60 -3z m-605 -744 c-37 -121 -151 -325
-214 -382 -37 -34 -51 -15 -45 61 18 233 88 343 217 343 45 0 48 -1 42 -22z
m60 -199 c7 -39 5 -43 -41 -91 -66 -67 -144 -132 -150 -125 -6 6 167 257 178
257 3 0 9 -18 13 -41z m-32 -236 c12 -15 17 -68 26 -288 6 -148 13 -292 16
-318 4 -42 2 -48 -13 -45 -40 7 -134 255 -183 482 l-13 59 68 64 c38 35 72 63
76 63 4 0 14 -8 23 -17z m907 -186 c0 -18 -159 -207 -175 -207 -15 0 -23 27
-32 110 l-6 60 54 0 c42 0 63 6 89 25 38 26 70 32 70 12z"/>
</g>
</svg>
