<?xml version="1.0" standalone="no"?>
<!DOCTYPE svg PUBLIC "-//W3C//DTD SVG 20010904//EN"
 "http://www.w3.org/TR/2001/REC-SVG-20010904/DTD/svg10.dtd">
<svg version="1.0" xmlns="http://www.w3.org/2000/svg"
 width="360.000000pt" height="360.000000pt" viewBox="0 0 360.000000 360.000000"
 preserveAspectRatio="xMidYMid meet">
<metadata>
Created by potrace 1.15, written by Peter Selinger 2001-2017
</metadata>
<g transform="translate(0.000000,360.000000) scale(0.100000,-0.100000)"
fill="#000000" stroke="none">
<path d="M1882 2747 c-32 -34 -27 -56 20 -104 29 -29 39 -46 32 -53 -7 -7 -7
-28 0 -66 7 -38 6 -61 -1 -72 -7 -11 -7 -26 -1 -45 6 -15 7 -38 4 -51 -9 -37
-56 -87 -101 -107 -44 -21 -110 -25 -120 -8 -7 11 -55 -26 -55 -43 0 -21 56
-41 133 -47 l82 -6 -2 -37 c-5 -81 -87 -181 -196 -239 -58 -31 -63 -31 -125
-22 -45 7 -65 6 -67 -1 -2 -6 -6 -103 -10 -216 -3 -113 -8 -214 -11 -225 -6
-25 42 -51 62 -35 19 16 32 85 40 202 l7 107 55 37 c365 242 715 381 938 372
l74 -3 -107 -49 c-262 -120 -456 -220 -553 -284 -117 -77 -234 -192 -264 -260
l-19 -42 23 -25 c13 -14 33 -25 44 -25 12 1 68 44 136 107 63 58 142 126 174
150 52 38 61 42 74 29 13 -12 7 -24 -45 -93 -89 -116 -181 -260 -194 -301 -8
-25 -29 -51 -66 -82 -67 -54 -127 -131 -149 -191 -29 -81 1 -255 60 -347 34
-54 83 -100 151 -145 l60 -39 79 6 c123 10 182 50 231 158 56 123 69 303 35
479 -11 57 -19 103 -17 104 1 0 14 7 29 14 21 11 39 11 93 2 37 -7 68 -11 69
-9 37 67 33 80 -36 118 -42 22 -49 23 -73 10 -23 -12 -39 -11 -137 8 -61 12
-113 23 -115 26 -3 2 29 69 70 148 l75 143 -10 59 c-7 40 -7 60 0 65 6 3 132
51 281 105 266 97 271 99 271 127 0 39 -41 83 -102 109 -41 18 -69 22 -139 21
-145 -2 -350 -45 -533 -112 -44 -16 -84 -29 -89 -29 -16 0 3 81 31 134 32 60
136 149 201 172 52 19 71 38 71 70 0 40 -20 45 -100 24 -41 -11 -80 -20 -86
-20 -7 0 -13 36 -16 103 -6 130 -36 195 -110 233 -34 18 -31 18 -56 -9z m307
-1526 c28 -28 36 -93 36 -297 l0 -180 -30 -59 c-39 -74 -78 -98 -152 -91 -161
15 -262 129 -271 307 l-4 86 37 41 c20 23 67 60 103 83 60 38 236 127 255 128
4 1 16 -8 26 -18z"/>
<path d="M1135 2421 c-131 -41 -215 -75 -215 -88 0 -4 9 -19 19 -32 16 -21 23
-23 62 -17 24 4 84 26 133 49 l89 42 36 -43 c46 -53 49 -80 35 -260 l-7 -93
-51 7 c-63 10 -96 10 -162 0 l-51 -8 -6 39 c-9 52 -60 127 -120 174 -86 68
-118 39 -53 -50 43 -59 62 -97 70 -141 4 -22 -15 -180 -49 -420 -31 -212 -54
-397 -51 -411 3 -14 -1 -47 -9 -73 -13 -42 -23 -123 -39 -313 -6 -61 -5 -62
28 -82 18 -12 38 -21 43 -21 5 0 17 73 27 163 30 279 68 471 101 505 10 11 22
8 68 -14 46 -23 59 -35 68 -64 42 -132 180 -486 230 -587 58 -122 78 -143 97
-105 6 11 -3 171 -25 432 -42 515 -38 609 27 670 35 33 25 56 -26 66 -35 6
-36 8 -31 43 12 80 40 588 34 604 -7 19 -73 52 -122 60 -19 4 -73 -8 -150 -32z
m13 -534 c14 -17 -9 -151 -36 -204 -23 -44 -37 -53 -83 -53 l-29 0 0 108 c0
92 3 111 18 125 38 34 110 48 130 24z m122 -186 c0 -65 -2 -72 -43 -128 -49
-65 -101 -113 -124 -113 -24 0 -12 39 56 183 54 114 63 127 85 127 25 0 26 -2
26 -69z m-9 -282 l29 -20 0 -165 c0 -95 -4 -164 -9 -164 -18 0 -54 63 -92 158
l-37 95 32 58 c17 32 35 59 39 59 5 0 22 -9 38 -21z"/>
</g>
</svg>
