<?xml version="1.0" standalone="no"?>
<!DOCTYPE svg PUBLIC "-//W3C//DTD SVG 20010904//EN"
 "http://www.w3.org/TR/2001/REC-SVG-20010904/DTD/svg10.dtd">
<svg version="1.0" xmlns="http://www.w3.org/2000/svg"
 width="360.000000pt" height="360.000000pt" viewBox="0 0 360.000000 360.000000"
 preserveAspectRatio="xMidYMid meet">
<metadata>
Created by potrace 1.15, written by Peter Selinger 2001-2017
</metadata>
<g transform="translate(0.000000,360.000000) scale(0.100000,-0.100000)"
fill="#000000" stroke="none">
<path d="M1686 2722 c-9 -14 15 -101 37 -134 29 -43 83 -78 118 -78 36 0 40
-30 7 -52 l-22 -15 33 -41 c32 -41 32 -42 9 -42 -34 0 -115 -41 -182 -92 l-59
-45 -47 32 c-60 40 -129 54 -147 29 -11 -15 -6 -22 37 -51 l49 -33 -25 -62
c-46 -114 -123 -262 -153 -295 -26 -29 -75 -52 -86 -41 -2 2 8 154 24 338 l28
335 -52 50 c-29 28 -70 59 -93 69 l-40 18 -71 -42 c-87 -52 -221 -100 -278
-100 -41 0 -43 -1 -43 -30 0 -24 6 -33 28 -41 63 -25 203 14 308 85 22 15 53
26 71 26 l33 0 0 -195 0 -195 -25 -16 c-61 -40 -211 -57 -237 -26 -26 29 -56
95 -74 165 -10 37 -21 67 -24 67 -3 -1 -17 -11 -32 -23 l-26 -22 22 -115 22
-115 -24 -110 c-17 -83 -20 -114 -12 -130 8 -15 6 -34 -10 -80 -50 -144 -82
-305 -95 -484 -5 -68 -20 -124 -80 -295 -40 -116 -76 -219 -80 -229 -5 -13 -2
-17 12 -17 10 0 24 -5 29 -10 8 -8 27 8 63 52 95 116 154 269 167 434 4 55 11
84 18 81 6 -2 43 -12 82 -22 70 -18 72 -19 84 -59 24 -82 123 -353 162 -446
52 -123 104 -210 127 -210 23 0 41 20 41 45 0 13 61 98 146 204 131 164 151
196 200 304 67 149 130 252 189 306 53 49 79 54 71 14 -23 -113 -47 -304 -43
-336 8 -56 54 -145 101 -192 55 -54 154 -83 183 -54 8 8 45 5 136 -12 l125
-23 149 18 c254 31 437 86 516 156 53 46 61 64 46 107 -8 26 -8 37 0 42 9 6 6
73 -9 262 -11 140 -20 266 -20 282 0 20 -5 27 -20 27 -18 0 -20 -7 -20 -54 0
-47 -52 -453 -65 -513 -8 -36 -64 -92 -118 -119 -104 -53 -207 -68 -487 -68
-277 -1 -339 7 -384 49 -23 21 -26 32 -26 87 0 35 5 100 11 145 l12 81 35 7
c87 16 170 82 251 200 57 82 168 298 177 344 5 26 2 30 -38 50 -24 11 -54 21
-65 21 -64 0 -191 -75 -310 -184 -84 -78 -105 -82 -122 -26 -21 71 -63 77
-144 20 -30 -22 -60 -40 -65 -40 -5 0 -13 23 -16 52 -10 75 -20 88 -66 88 -47
0 -52 -7 -38 -52 10 -33 7 -41 -68 -172 -43 -75 -95 -155 -115 -177 l-38 -41
20 -53 c11 -29 48 -96 84 -150 l64 -97 -52 -100 c-58 -115 -102 -168 -140
-168 -23 0 -27 6 -42 73 -28 123 -45 283 -51 504 l-7 211 27 54 c14 29 48 78
75 108 l48 54 27 -18 c25 -16 30 -16 50 -3 24 16 59 109 71 190 7 42 15 54 77
112 121 111 272 200 437 255 141 48 207 58 284 47 64 -10 67 -12 67 -37 0 -18
-14 -41 -42 -69 -43 -43 -189 -151 -280 -207 -27 -16 -48 -32 -48 -36 0 -39
250 58 388 150 67 44 162 130 162 146 0 21 -63 78 -109 99 -60 27 -182 33
-347 17 -74 -7 -138 -10 -141 -6 -4 3 -1 12 5 18 7 7 12 33 12 59 l0 48 -103
50 c-67 32 -115 62 -135 85 -30 34 -55 45 -66 28z m-597 -741 c19 -12 -22
-129 -97 -274 -66 -129 -72 -135 -106 -110 -24 17 -25 22 -26 126 0 152 23
193 142 247 48 22 66 24 87 11z m1205 -243 c-15 -51 -85 -177 -129 -236 -59
-78 -102 -112 -143 -112 l-32 0 0 70 0 70 83 87 c104 109 150 143 194 143 31
0 34 -2 27 -22z m-1144 -34 c0 -30 -10 -48 -61 -105 -45 -50 -68 -69 -86 -69
l-25 0 38 68 c70 126 82 142 109 142 22 0 25 -4 25 -36z m570 -179 c0 -21
-137 -338 -147 -342 -11 -4 -120 86 -131 108 -5 10 136 165 184 202 40 32 94
49 94 32z m-593 -97 c22 -20 23 -29 23 -142 0 -67 5 -164 10 -216 6 -60 5 -96
0 -98 -6 -2 -10 -12 -10 -23 0 -10 -3 -19 -8 -19 -4 0 -48 81 -97 179 -80 162
-87 181 -74 198 33 42 123 143 128 143 2 0 15 -10 28 -22z"/>
</g>
</svg>
