<?xml version="1.0" standalone="no"?>
<!DOCTYPE svg PUBLIC "-//W3C//DTD SVG 20010904//EN"
 "http://www.w3.org/TR/2001/REC-SVG-20010904/DTD/svg10.dtd">
<svg version="1.0" xmlns="http://www.w3.org/2000/svg"
 width="360.000000pt" height="360.000000pt" viewBox="0 0 360.000000 360.000000"
 preserveAspectRatio="xMidYMid meet">
<metadata>
Created by potrace 1.15, written by Peter Selinger 2001-2017
</metadata>
<g transform="translate(0.000000,360.000000) scale(0.100000,-0.100000)"
fill="#000000" stroke="none">
<path d="M2275 2529 c-64 -15 -192 -59 -299 -101 -93 -37 -103 -39 -144 -28
-64 16 -76 0 -32 -45 33 -34 36 -35 109 -35 70 0 91 6 259 70 l182 70 56 -25
56 -25 -7 -42 c-14 -88 -77 -198 -170 -297 -67 -73 -224 -203 -235 -196 -5 3
42 72 105 153 115 147 133 184 103 210 -15 12 -177 -39 -247 -78 -58 -33 -90
-74 -74 -98 6 -9 17 -15 25 -13 7 2 33 6 58 9 l44 5 -64 -71 c-36 -40 -73 -72
-82 -72 -19 0 -21 5 -37 125 -6 44 -21 100 -34 125 -28 56 -68 66 -106 26
l-23 -25 25 -23 c23 -20 30 -45 61 -219 19 -108 43 -220 53 -250 l18 -54 -71
-105 c-95 -140 -144 -240 -151 -307 -6 -51 -4 -56 28 -89 19 -20 43 -34 57
-34 17 0 65 38 160 126 133 123 256 224 273 224 5 0 9 -6 9 -14 0 -7 7 -19 15
-26 9 -8 15 -30 15 -57 0 -40 -3 -46 -37 -66 -83 -48 -269 -177 -293 -202 -23
-24 -24 -28 -10 -53 19 -34 73 -61 139 -69 46 -5 51 -8 51 -30 0 -30 -76 -106
-178 -178 -39 -28 -71 -54 -72 -58 0 -5 14 -26 32 -48 28 -35 36 -39 78 -39
32 0 71 11 121 34 131 59 256 86 407 86 72 0 165 -5 207 -11 70 -9 78 -9 91 8
24 31 13 66 -26 85 -30 16 -65 18 -260 17 -124 0 -246 -4 -272 -8 l-47 -8 165
169 c196 201 224 237 224 289 0 31 -6 43 -37 68 -35 29 -43 31 -120 31 l-83 0
0 74 0 73 44 41 c73 67 205 122 293 122 28 0 33 4 33 23 0 24 -28 57 -48 57
-6 0 -78 -18 -159 -40 -81 -22 -152 -40 -156 -40 -8 0 -67 124 -67 141 0 5 83
138 185 297 102 159 185 296 185 304 0 20 -58 72 -113 99 -48 25 -149 34 -212
18z m-88 -841 c13 -12 23 -31 23 -43 0 -30 -96 -120 -250 -235 -98 -73 -126
-89 -128 -75 -6 29 55 138 114 203 71 79 180 172 201 172 9 0 27 -10 40 -22z
m203 -445 c0 -20 -88 -113 -107 -113 -16 0 -16 4 -3 52 6 20 22 46 37 58 32
25 73 27 73 3z m-230 -145 c0 -19 -52 -88 -66 -88 -7 0 -18 9 -24 19 -8 16 -4
24 28 50 39 32 62 39 62 19z"/>
<path d="M1210 2384 c-80 -35 -149 -65 -155 -67 -14 -5 12 -35 46 -53 26 -13
36 -11 151 30 67 25 123 44 123 43 1 -1 11 -16 24 -34 20 -30 21 -37 11 -115
-5 -45 -10 -114 -10 -154 l0 -71 -106 -22 c-58 -13 -107 -21 -108 -19 -1 1
-24 39 -51 82 -65 106 -101 146 -132 146 -19 0 -23 -4 -19 -17 43 -137 57
-341 33 -468 -10 -51 -11 -75 -3 -88 20 -32 -70 -483 -138 -686 l-32 -97 22
-17 c20 -15 23 -15 42 6 21 22 102 186 102 205 0 36 37 -1 190 -193 114 -143
178 -215 191 -215 27 0 46 35 68 130 34 144 46 272 33 331 -15 64 -15 189 -1
262 8 40 9 60 1 70 -7 8 -7 27 0 61 7 34 7 65 -1 104 -12 60 1 498 18 602 5
30 10 92 10 136 1 67 -3 86 -19 107 -23 29 -96 67 -126 66 -10 0 -84 -30 -164
-65z m23 -717 c-63 -158 -68 -167 -94 -167 -32 0 -36 11 -45 132 -5 66 -3 90
9 113 23 46 61 76 119 96 88 30 89 20 11 -174z m167 -36 l0 -80 -102 -92 c-90
-80 -103 -89 -106 -70 -5 30 21 103 59 164 49 81 112 156 132 157 15 0 17 -10
17 -79z m0 -374 c0 -56 -5 -191 -12 -299 -14 -233 -14 -233 -107 -139 -61 63
-178 229 -188 269 -3 15 1 31 14 45 11 12 71 80 133 150 l114 129 23 -27 c21
-23 23 -36 23 -128z"/>
</g>
</svg>
