<?xml version="1.0" standalone="no"?>
<!DOCTYPE svg PUBLIC "-//W3C//DTD SVG 20010904//EN"
 "http://www.w3.org/TR/2001/REC-SVG-20010904/DTD/svg10.dtd">
<svg version="1.0" xmlns="http://www.w3.org/2000/svg"
 width="360.000000pt" height="360.000000pt" viewBox="0 0 360.000000 360.000000"
 preserveAspectRatio="xMidYMid meet">
<metadata>
Created by potrace 1.15, written by Peter Selinger 2001-2017
</metadata>
<g transform="translate(0.000000,360.000000) scale(0.100000,-0.100000)"
fill="#000000" stroke="none">
<path d="M1070 2556 c-56 -21 -131 -61 -183 -99 l-48 -34 23 -26 23 -27 119
50 c130 54 138 56 154 38 11 -15 -56 -397 -77 -436 -16 -31 -79 -60 -145 -68
l-56 -7 0 80 c0 69 -4 88 -30 139 -16 33 -41 71 -55 84 -25 24 -26 24 -45 4
-20 -19 -20 -20 12 -109 19 -52 28 -90 22 -92 -7 -2 -7 -27 1 -76 6 -42 8 -87
3 -107 -4 -19 -6 -69 -3 -110 5 -58 -1 -112 -24 -240 -38 -206 -99 -452 -136
-545 -31 -78 -89 -175 -105 -175 -5 0 -10 -11 -10 -25 0 -20 5 -25 25 -25 56
0 146 122 218 296 42 103 43 104 78 104 38 0 101 32 127 65 12 15 28 46 38 71
15 40 20 44 50 44 31 0 33 -2 43 -50 6 -28 11 -118 11 -200 l0 -150 -33 0
c-18 0 -38 5 -45 12 -59 59 12 -223 84 -332 23 -35 31 -40 65 -40 38 0 39 1
39 35 0 18 4 56 10 82 7 38 3 105 -23 321 -21 170 -29 276 -23 282 5 5 5 31
-1 69 -14 88 18 179 108 313 22 31 39 60 39 63 0 4 -19 -7 -42 -24 -23 -17
-54 -31 -68 -31 -52 0 -52 29 8 438 l55 373 -38 39 c-35 35 -44 40 -85 39 -25
0 -61 -6 -80 -13z m-80 -699 c0 -21 -39 -128 -55 -154 -9 -13 -24 -23 -35 -23
-18 0 -20 7 -20 84 l0 83 43 10 c60 15 67 15 67 0z m110 -174 c0 -49 -22 -130
-51 -189 -37 -78 -164 -202 -185 -182 -2 3 28 90 66 194 39 104 72 195 75 202
3 7 23 12 50 12 l45 0 0 -37z"/>
<path d="M2082 2479 c-34 -5 -110 -25 -169 -45 -124 -40 -443 -191 -443 -209
0 -7 7 -18 15 -25 13 -11 40 -7 153 23 l137 37 35 -38 c34 -36 34 -37 12 -40
-14 -2 -22 -10 -22 -23 0 -36 -38 -95 -95 -147 -31 -29 -61 -52 -66 -52 -12 0
-12 -57 0 -65 5 -3 33 4 61 15 70 28 80 26 80 -12 0 -43 -38 -123 -85 -175
-60 -70 -68 -62 -93 80 -26 154 -66 282 -97 313 -18 18 -35 24 -70 24 -57 0
-59 -18 -5 -55 46 -32 44 -24 65 -220 19 -168 50 -363 66 -412 8 -24 17 -33
32 -33 35 0 117 43 197 103 41 32 82 57 90 57 8 0 26 -9 40 -20 16 -12 41 -20
68 -20 41 0 49 5 106 63 74 74 127 150 201 289 67 127 177 385 177 416 1 28
-34 66 -87 97 -43 25 -209 86 -228 84 -7 -1 -40 -6 -75 -10z m186 -127 c15
-10 35 -22 45 -25 15 -6 17 -14 11 -59 -17 -150 -92 -324 -201 -470 l-58 -77
-35 33 -35 33 -50 -13 c-27 -7 -52 -11 -54 -8 -3 3 29 74 72 160 42 85 77 161
77 169 0 18 -23 30 -72 39 l-38 7 0 79 c0 88 13 110 74 129 54 17 69 19 154
20 66 1 89 -3 110 -17z"/>
<path d="M2684 1689 c-117 -19 -186 -62 -154 -93 12 -11 25 -13 60 -6 108 21
134 13 332 -107 106 -64 106 -64 137 -48 37 18 37 25 11 81 -25 51 -91 104
-187 150 -76 36 -105 39 -199 23z"/>
<path d="M2265 1568 c-51 -19 -112 -66 -172 -134 -44 -49 -62 -64 -78 -60 -11
3 -48 8 -82 12 l-63 7 0 -32 c0 -27 7 -35 53 -61 85 -49 140 -36 228 52 32 32
56 48 69 46 28 -4 391 -338 388 -356 -9 -44 -158 -94 -225 -76 -25 6 -52 6
-78 0 -27 -6 -62 -5 -108 2 -37 7 -117 12 -178 12 -104 0 -115 2 -178 32 -84
40 -174 129 -226 223 -48 87 -43 82 -60 64 -13 -13 -11 -26 15 -110 37 -118
78 -170 178 -222 92 -48 205 -75 385 -89 239 -19 542 16 617 71 15 10 26 30
28 47 2 26 -18 48 -233 238 -130 114 -239 214 -242 222 -3 7 5 27 17 44 41 58
13 93 -55 68z"/>
<path d="M1411 1324 c-32 -41 -61 -129 -89 -267 -30 -146 -26 -180 22 -185 33
-4 60 18 87 71 19 37 19 37 -1 77 -26 51 -25 65 10 194 22 81 27 113 18 123
-15 19 -24 16 -47 -13z"/>
</g>
</svg>
