<?xml version="1.0" standalone="no"?>
<!DOCTYPE svg PUBLIC "-//W3C//DTD SVG 20010904//EN"
 "http://www.w3.org/TR/2001/REC-SVG-20010904/DTD/svg10.dtd">
<svg version="1.0" xmlns="http://www.w3.org/2000/svg"
 width="360.000000pt" height="360.000000pt" viewBox="0 0 360.000000 360.000000"
 preserveAspectRatio="xMidYMid meet">
<metadata>
Created by potrace 1.15, written by Peter Selinger 2001-2017
</metadata>
<g transform="translate(0.000000,360.000000) scale(0.100000,-0.100000)"
fill="#000000" stroke="none">
<path d="M1910 2604 c-96 -30 -192 -59 -213 -65 -38 -10 -38 -11 -21 -30 14
-15 31 -19 90 -19 58 0 86 6 144 31 40 17 74 28 77 25 11 -11 -54 -93 -179
-224 -217 -227 -298 -340 -298 -415 0 -45 43 -253 72 -345 28 -92 64 -159 88
-167 15 -5 34 2 60 19 22 14 53 26 70 26 25 0 30 -4 30 -25 0 -68 -178 -181
-402 -256 l-98 -33 -25 24 -25 23 0 194 0 194 58 87 c33 48 65 98 72 111 12
23 11 24 -18 18 -16 -3 -41 -9 -56 -13 l-26 -6 0 153 c0 92 8 222 20 323 12
94 18 182 15 196 -6 28 -44 70 -80 88 -16 8 -63 -7 -238 -77 l-217 -87 23 -22
c46 -43 152 -18 274 64 36 24 68 44 72 44 3 0 19 -10 35 -23 l28 -23 -11 -74
c-18 -124 -31 -344 -31 -545 l0 -190 -120 -120 -120 -120 0 38 c0 27 10 52 31
83 43 62 91 171 128 287 45 143 40 191 -28 231 -30 17 -39 18 -94 8 -74 -14
-78 -11 -144 100 -52 89 -60 96 -78 77 -11 -12 -9 -41 11 -164 21 -130 24
-171 19 -305 -14 -365 -44 -617 -100 -836 -19 -74 -39 -143 -45 -153 -7 -14
-6 -22 5 -31 49 -41 121 130 199 472 5 22 12 28 32 28 64 0 148 58 214 149 25
34 48 61 53 61 29 0 57 -169 57 -347 0 -112 0 -113 -24 -113 -19 0 -25 7 -30
33 -8 44 -33 77 -57 77 -15 0 -19 -5 -15 -17 3 -10 17 -64 31 -120 53 -214
115 -345 170 -359 37 -9 56 10 44 46 -6 16 -9 41 -7 56 3 25 13 30 138 74 195
67 364 144 509 229 l53 32 66 -17 c174 -44 390 -163 619 -340 45 -35 86 -64
91 -64 4 0 19 11 31 24 l23 25 -68 68 c-38 38 -105 92 -149 122 -88 58 -298
162 -415 206 -41 16 -79 32 -83 35 -4 4 10 44 33 90 22 46 40 90 40 97 0 8 22
35 48 62 74 74 127 85 383 78 112 -3 213 -8 224 -12 16 -5 24 0 35 20 16 30 9
47 -34 79 -32 24 -124 27 -388 12 l-158 -8 0 27 c0 18 -13 40 -39 66 -21 22
-43 39 -48 39 -5 0 -20 -11 -32 -24 l-23 -24 23 -40 c23 -40 23 -41 5 -61 -20
-22 -180 -78 -252 -88 -56 -7 -57 3 -4 83 60 92 214 267 423 480 103 105 187
196 187 203 0 16 -62 45 -162 76 -80 25 -92 26 -151 16 -109 -19 -114 -17
-122 32 -17 101 -84 158 -128 109 -31 -34 -16 -82 25 -82 24 0 23 -35 -2 -103
-31 -83 -93 -130 -182 -139 -36 -3 -39 -1 -82 62 l-44 65 230 231 230 231 -35
22 c-19 11 -41 21 -48 20 -8 -1 -93 -25 -189 -55z m428 -494 c23 -17 42 -33
42 -36 0 -3 -39 -60 -87 -126 -77 -107 -92 -122 -138 -143 -78 -34 -154 -85
-209 -141 -27 -27 -44 -40 -39 -29 45 86 123 270 123 287 0 114 104 202 256
217 6 1 30 -13 52 -29z m-624 -98 l9 -53 -44 -45 c-55 -57 -84 -59 -98 -6 -15
51 -16 47 32 108 33 44 47 54 67 52 22 -3 26 -10 34 -56z m242 -67 c3 -8 2
-27 -3 -42 -8 -23 -15 -28 -44 -28 -43 0 -51 26 -18 61 25 27 57 31 65 9z
m-898 -61 c9 -31 7 -47 -20 -122 -46 -130 -92 -212 -120 -212 -4 0 -8 63 -8
139 l0 139 58 46 c31 25 62 46 68 46 6 0 16 -16 22 -36z m727 -147 l48 -58
-58 -59 c-32 -33 -62 -57 -67 -54 -12 8 -78 141 -78 158 0 18 91 90 100 79 4
-5 28 -34 55 -66z m330 -469 c-11 -49 -49 -118 -92 -165 l-38 -42 -107 22
c-97 19 -108 23 -108 43 0 53 81 109 220 150 41 13 88 23 103 23 27 1 28 -1
22 -31z m-455 -152 c0 -8 -4 -18 -10 -21 -17 -11 -11 -48 12 -72 19 -20 31
-23 95 -23 74 0 74 0 71 -25 -3 -23 -27 -37 -233 -130 -126 -58 -235 -105
-243 -105 -27 0 -42 66 -42 187 l0 118 153 42 c169 46 197 50 197 29z"/>
</g>
</svg>
