<?xml version="1.0" standalone="no"?>
<!DOCTYPE svg PUBLIC "-//W3C//DTD SVG 20010904//EN"
 "http://www.w3.org/TR/2001/REC-SVG-20010904/DTD/svg10.dtd">
<svg version="1.0" xmlns="http://www.w3.org/2000/svg"
 width="360.000000pt" height="360.000000pt" viewBox="0 0 360.000000 360.000000"
 preserveAspectRatio="xMidYMid meet">
<metadata>
Created by potrace 1.15, written by Peter Selinger 2001-2017
</metadata>
<g transform="translate(0.000000,360.000000) scale(0.100000,-0.100000)"
fill="#000000" stroke="none">
<path d="M1700 2845 c-13 -14 -21 -27 -18 -30 3 -3 33 -10 67 -16 43 -8 61
-16 61 -26 0 -22 -50 -101 -136 -215 l-75 -98 -59 0 c-51 0 -60 3 -60 18 0 10
-5 23 -12 30 -7 7 -20 12 -30 12 -15 0 -18 -9 -18 -55 0 -70 21 -112 65 -131
68 -28 84 -21 153 66 58 73 66 80 99 80 l36 0 -7 -46 c-9 -66 -38 -126 -87
-179 -59 -64 -110 -98 -204 -134 -44 -17 -96 -40 -115 -52 l-34 -21 34 -29
c55 -45 88 -40 192 32 48 33 88 56 88 51 0 -28 -97 -150 -224 -280 -159 -163
-167 -177 -122 -229 l24 -28 92 63 c50 35 94 61 97 59 10 -11 -25 -155 -51
-209 -14 -30 -48 -84 -75 -119 -56 -75 -199 -211 -215 -206 -7 2 -13 67 -18
188 -3 101 -9 204 -12 229 -5 32 0 61 16 107 l22 62 -22 24 c-20 21 -22 33
-22 133 0 146 16 306 44 436 l22 107 -30 50 c-28 47 -34 51 -69 51 -59 0 -173
-29 -269 -68 l-88 -35 0 -39 c0 -49 13 -49 113 1 69 35 200 71 213 59 2 -3
-10 -96 -28 -208 l-33 -203 -55 -14 c-30 -7 -72 -27 -93 -44 -20 -17 -42 -27
-47 -24 -6 3 -10 27 -10 53 -1 140 -107 372 -153 334 -11 -10 -10 -23 9 -80
34 -100 56 -251 57 -377 1 -176 -90 -745 -143 -900 -31 -90 -25 -129 13 -87
21 23 101 194 118 250 10 36 16 42 38 41 24 0 35 -19 128 -207 114 -231 163
-305 206 -310 23 -3 30 2 42 32 8 19 20 79 26 133 19 166 28 201 61 239 17 19
48 44 69 55 28 14 76 68 180 204 l142 185 43 0 c24 0 44 -4 44 -9 0 -5 -18
-94 -40 -197 -23 -104 -39 -202 -38 -219 5 -53 40 -45 148 35 103 76 249 153
320 169 25 6 85 11 134 11 74 0 95 -4 124 -22 l35 -21 -7 -104 c-10 -173 -45
-317 -119 -496 l-32 -79 -48 6 c-61 7 -130 44 -219 119 -95 80 -133 65 -65
-25 64 -84 286 -236 326 -223 33 10 102 94 132 162 53 116 98 316 122 543 l14
125 -56 56 c-42 42 -68 58 -103 67 -63 16 -151 15 -218 -3 -75 -20 -80 -19
-80 15 0 38 168 343 184 333 6 -3 37 -24 70 -46 84 -57 247 -132 351 -162 162
-47 404 -71 411 -40 1 6 -19 29 -45 52 -45 40 -51 43 -142 53 -222 27 -465
140 -751 349 -87 63 -97 85 -41 96 57 10 144 46 149 60 3 7 -2 25 -11 39 -36
54 -91 34 -407 -151 -5 -2 -8 7 -8 20 0 19 28 49 124 130 189 163 286 261 286
291 0 13 -4 27 -8 30 -5 3 -41 -4 -81 -15 -39 -11 -78 -19 -86 -17 -9 2 24 47
90 123 58 66 105 127 105 135 -1 8 -24 41 -53 72 l-52 58 -95 -30 c-117 -37
-130 -37 -130 -7 0 39 -30 57 -92 57 -45 0 -58 -4 -78 -25z m350 -130 c0 -30
-34 -81 -98 -147 -36 -38 -74 -68 -84 -68 -22 0 -22 4 -2 36 13 19 14 28 5 37
-19 19 -13 45 21 82 53 61 158 101 158 60z m-33 -809 c9 -8 -36 -39 -182 -123
-107 -62 -201 -113 -210 -113 -13 0 -15 6 -10 33 16 73 102 177 210 251 l50
34 65 -35 c36 -20 70 -41 77 -47z m-1082 -8 c-9 -57 -65 -174 -104 -218 l-32
-35 6 70 c8 87 37 156 82 195 46 41 56 39 48 -12z m95 -190 c0 -40 -4 -77 -8
-83 -23 -30 -162 -158 -167 -154 -6 7 46 162 73 214 23 47 69 95 88 95 11 0
14 -18 14 -72z m960 -79 c-36 -106 -82 -183 -111 -187 -54 -6 -109 68 -109
147 l0 40 107 64 107 65 15 -30 c13 -28 13 -36 -9 -99z m-960 -171 c0 -13 9
-122 20 -243 16 -175 18 -230 9 -267 -6 -28 -17 -48 -24 -48 -20 0 -153 185
-191 265 -18 39 -35 88 -38 110 -6 40 -6 40 42 62 26 12 74 49 107 83 33 33
63 60 67 60 4 0 8 -10 8 -22z m786 -103 l18 -35 -34 -35 c-36 -37 -70 -45 -89
-21 -10 11 -6 26 15 68 45 91 52 92 90 23z"/>
<path d="M1995 1103 c-109 -15 -269 -70 -413 -141 -67 -33 -82 -37 -117 -31
-77 15 -85 13 -85 -25 0 -37 24 -63 78 -85 26 -11 54 -3 307 89 245 90 280
101 301 90 20 -11 27 -9 67 26 l45 39 -21 23 c-17 18 -30 22 -76 21 -31 -1
-69 -4 -86 -6z"/>
</g>
</svg>
