<?xml version="1.0" standalone="no"?>
<!DOCTYPE svg PUBLIC "-//W3C//DTD SVG 20010904//EN"
 "http://www.w3.org/TR/2001/REC-SVG-20010904/DTD/svg10.dtd">
<svg version="1.0" xmlns="http://www.w3.org/2000/svg"
 width="360.000000pt" height="360.000000pt" viewBox="0 0 360.000000 360.000000"
 preserveAspectRatio="xMidYMid meet">
<metadata>
Created by potrace 1.15, written by Peter Selinger 2001-2017
</metadata>
<g transform="translate(0.000000,360.000000) scale(0.100000,-0.100000)"
fill="#000000" stroke="none">
<path d="M2094 2645 c-3 -8 8 -56 25 -107 31 -92 38 -143 23 -164 -20 -28 -91
-70 -189 -110 -59 -24 -114 -44 -120 -44 -10 0 -13 29 -13 113 0 128 -17 179
-68 215 -37 27 -64 28 -85 4 -15 -17 -15 -22 9 -80 14 -35 33 -95 43 -134 27
-106 17 -134 -82 -229 l-79 -76 23 -35 23 -36 55 19 c68 24 84 24 106 -1 31
-34 49 -25 62 30 16 65 44 105 102 142 48 30 117 55 127 46 7 -8 -71 -161
-116 -228 -80 -116 -196 -203 -315 -235 -60 -17 -65 -20 -65 -46 0 -15 6 -40
14 -56 8 -15 20 -68 26 -118 23 -181 63 -287 110 -293 16 -2 55 16 113 53 108
68 148 73 117 15 -22 -42 -199 -160 -400 -268 -89 -47 -97 -50 -129 -39 -19 7
-43 24 -54 39 -19 25 -19 32 -8 115 9 66 9 115 2 192 -14 134 -14 541 0 615 7
40 7 61 0 70 -8 9 -3 31 16 77 22 53 27 80 27 154 l1 90 -60 24 c-110 43 -117
42 -259 -40 -69 -41 -126 -79 -126 -85 0 -41 95 -35 178 11 32 18 60 25 98 25
l54 0 -6 -32 c-40 -224 -64 -298 -95 -298 -10 0 -21 5 -24 10 -8 13 -98 13
-112 -1 -7 -7 -32 14 -84 75 -50 58 -81 85 -96 86 -22 0 -22 -1 12 -92 18 -51
38 -104 43 -118 6 -17 2 -104 -13 -275 -14 -164 -18 -254 -12 -263 24 -31 -53
-344 -118 -479 -45 -92 -59 -163 -34 -178 37 -23 199 223 199 303 0 40 23 43
47 5 132 -214 272 -395 325 -424 16 -9 25 -6 44 12 23 21 24 29 24 134 0 63
-4 115 -10 121 -7 7 21 21 89 43 81 27 160 62 354 159 4 2 7 -12 7 -31 0 -29
-18 -58 -107 -172 l-106 -138 29 -24 c16 -12 34 -23 40 -23 21 0 270 343 278
381 21 112 179 194 451 233 182 26 201 26 226 -1 21 -21 30 -23 131 -23 l108
0 0 25 c0 37 -39 71 -101 89 -71 21 -93 20 -394 -18 -143 -18 -262 -32 -263
-30 -2 1 28 53 67 116 102 161 180 322 188 384 7 65 -14 107 -68 135 -38 19
-47 19 -127 10 -111 -14 -132 -14 -132 1 0 7 44 86 97 175 l98 163 77 0 78 0
0 28 c0 31 -26 60 -78 86 -18 10 -36 25 -39 34 -18 55 -68 151 -90 175 -29 30
-80 37 -89 12z m-937 -806 c9 -9 3 -29 -22 -79 -41 -82 -80 -130 -106 -130
-17 0 -19 8 -19 64 0 110 28 156 95 156 22 0 46 -5 52 -11z m1080 -48 c-2 -32
-14 -79 -26 -105 -28 -63 -112 -144 -198 -189 -125 -66 -134 -48 -31 67 109
122 101 109 75 133 l-22 21 -95 -32 c-116 -40 -174 -69 -194 -98 -15 -21 -16
-21 -36 -3 -33 30 -24 50 43 100 129 98 300 163 431 164 l59 1 -6 -59z m-1023
-108 c3 -10 8 -40 12 -67 l7 -48 -109 -109 c-60 -60 -115 -109 -123 -109 -20
0 -8 60 24 126 32 66 153 224 170 224 8 0 16 -8 19 -17z m586 -207 c0 -33 -54
-47 -75 -19 -25 32 -18 43 30 43 41 0 45 -2 45 -24z m-566 -58 c3 -13 17 -144
31 -293 14 -148 28 -287 31 -307 l6 -38 -43 0 c-36 0 -47 6 -78 38 -20 21 -51
68 -69 105 -45 92 -104 268 -93 281 54 72 195 236 202 236 5 0 11 -10 13 -22z"/>
<path d="M2220 1008 c0 -7 88 -116 196 -241 196 -229 225 -253 232 -199 7 51
-151 300 -232 366 -74 60 -196 106 -196 74z"/>
</g>
</svg>
