<?xml version="1.0" standalone="no"?>
<!DOCTYPE svg PUBLIC "-//W3C//DTD SVG 20010904//EN"
 "http://www.w3.org/TR/2001/REC-SVG-20010904/DTD/svg10.dtd">
<svg version="1.0" xmlns="http://www.w3.org/2000/svg"
 width="360.000000pt" height="360.000000pt" viewBox="0 0 360.000000 360.000000"
 preserveAspectRatio="xMidYMid meet">
<metadata>
Created by potrace 1.15, written by Peter Selinger 2001-2017
</metadata>
<g transform="translate(0.000000,360.000000) scale(0.100000,-0.100000)"
fill="#000000" stroke="none">
<path d="M2179 2841 c-83 -27 -158 -82 -263 -193 l-94 -99 -21 27 c-12 15 -24
44 -27 66 -6 35 -9 38 -40 38 l-34 0 0 -93 0 -94 44 -31 c64 -46 84 -42 143
26 78 89 214 223 247 243 36 22 79 25 94 6 8 -9 -6 -35 -52 -100 -189 -264
-364 -412 -531 -447 -33 -8 -62 -15 -64 -17 -3 -2 6 -14 19 -28 32 -35 97 -33
230 5 58 17 111 30 117 30 9 0 13 -17 13 -54 0 -50 -3 -56 -37 -87 -21 -18
-82 -61 -135 -96 -54 -35 -98 -67 -98 -72 0 -4 9 -20 21 -35 31 -40 62 -34
145 29 40 30 76 55 78 55 3 0 8 -16 12 -35 6 -34 3 -38 -140 -186 l-146 -150
20 -29 c15 -21 20 -44 20 -94 l0 -65 -67 -39 c-38 -22 -106 -59 -152 -82 -72
-36 -89 -41 -115 -33 l-31 9 -3 188 c-2 181 -2 190 19 212 l21 22 -22 196 -22
196 31 173 c17 95 31 182 31 194 0 29 -81 100 -123 108 -20 4 -50 4 -68 0 -85
-19 -359 -158 -359 -182 0 -28 33 -23 193 26 90 28 173 51 184 51 37 0 42 -68
15 -190 -19 -85 -21 -108 -11 -127 10 -18 9 -26 -2 -39 -19 -23 -82 -50 -157
-68 l-61 -14 -70 109 c-65 101 -90 125 -106 99 -4 -6 3 -88 16 -183 46 -365
-2 -795 -122 -1071 -46 -107 -51 -156 -16 -156 31 0 89 63 114 126 28 69 70
134 88 134 8 0 40 -39 71 -87 136 -211 253 -363 280 -363 38 0 67 99 85 288 9
92 9 126 0 135 -6 6 -11 14 -11 19 0 28 301 208 348 208 26 0 31 -4 36 -36 14
-71 71 -95 122 -50 l28 23 -23 54 c-13 30 -25 59 -28 65 -3 8 42 27 119 53 68
23 126 41 131 41 14 0 6 -26 -37 -115 -92 -189 -237 -293 -329 -236 -43 26
-69 27 -92 1 -18 -20 -18 -21 2 -43 15 -16 24 -47 33 -112 16 -118 47 -266 67
-313 15 -37 41 -72 53 -72 3 0 41 27 85 60 93 72 219 136 295 151 50 9 66 7
180 -24 l124 -34 33 43 c18 23 33 54 33 67 0 31 -66 92 -109 102 -17 4 -31 12
-31 19 0 6 36 74 80 150 44 76 80 141 80 145 0 17 -69 72 -109 86 -58 20 -113
19 -191 -5 -36 -11 -71 -20 -77 -20 -15 0 -17 46 -3 55 6 3 10 16 10 28 0 24
34 84 59 105 35 29 123 63 198 78 88 17 323 23 398 11 49 -9 50 -8 68 21 26
45 22 69 -15 89 -59 30 -172 28 -377 -7 l-183 -31 -52 49 c-29 27 -62 53 -74
56 -34 11 -26 32 16 44 58 18 102 49 102 73 0 11 -8 34 -17 51 -18 29 -20 30
-76 24 -32 -3 -69 -9 -82 -12 -14 -3 -25 -2 -25 2 0 5 41 61 90 124 l89 115
-19 30 c-21 33 -26 33 -126 21 l-62 -8 -11 64 c-9 53 -9 65 3 74 8 6 80 42
160 80 80 38 146 74 146 80 0 5 -16 25 -35 44 -31 30 -38 33 -56 22 -20 -13
-39 -9 -39 8 0 5 25 48 55 96 67 107 70 137 23 206 -38 55 -50 57 -139 29z
m-1099 -1017 c0 -49 -47 -124 -77 -124 -27 0 -28 10 -8 78 17 57 37 82 66 82
15 0 19 -7 19 -36z m49 -286 c-112 -105 -125 -103 -94 15 21 82 47 127 112
198 l58 62 3 -99 3 -99 -82 -77z m980 67 c36 -62 34 -73 -23 -102 -42 -22
-224 -89 -264 -98 l-33 -7 3 67 3 67 135 63 c74 35 137 64 140 64 3 1 20 -24
39 -54z m-895 -262 c3 -43 9 -172 12 -288 6 -209 6 -210 -16 -230 l-22 -20
-35 40 c-100 115 -193 293 -193 369 0 31 9 40 113 119 61 47 117 86 123 86 7
1 14 -29 18 -76z m1129 -245 c-7 -113 -155 -248 -390 -354 -54 -24 -105 -44
-113 -44 -19 1 -100 106 -100 130 0 12 38 43 108 88 234 152 390 224 472 219
22 -2 25 -6 23 -39z"/>
</g>
</svg>
