<?xml version="1.0" standalone="no"?>
<!DOCTYPE svg PUBLIC "-//W3C//DTD SVG 20010904//EN"
 "http://www.w3.org/TR/2001/REC-SVG-20010904/DTD/svg10.dtd">
<svg version="1.0" xmlns="http://www.w3.org/2000/svg"
 width="360.000000pt" height="360.000000pt" viewBox="0 0 360.000000 360.000000"
 preserveAspectRatio="xMidYMid meet">
<metadata>
Created by potrace 1.15, written by Peter Selinger 2001-2017
</metadata>
<g transform="translate(0.000000,360.000000) scale(0.100000,-0.100000)"
fill="#000000" stroke="none">
<path d="M1830 2821 c-88 -28 -139 -58 -146 -87 -4 -14 -3 -28 0 -31 4 -4 44
5 89 19 130 42 124 41 146 19 12 -12 21 -34 21 -51 0 -27 3 -30 33 -30 26 0
42 10 77 45 l44 45 -44 45 c-43 44 -46 45 -105 44 -33 0 -85 -9 -115 -18z"/>
<path d="M1890 2496 c-135 -74 -246 -140 -247 -147 -2 -8 1 -20 6 -28 8 -12
27 -7 111 32 105 48 125 54 135 38 3 -6 -44 -79 -105 -164 -60 -85 -110 -163
-110 -174 0 -11 10 -29 23 -41 l22 -21 115 79 c63 44 118 79 123 80 55 3 -147
-243 -291 -354 -111 -85 -349 -213 -377 -202 -6 2 -17 46 -23 98 -9 74 -8 123
3 243 19 192 49 367 75 445 16 48 18 65 9 83 -18 35 -81 97 -99 97 -25 0 -215
-76 -294 -118 -96 -50 -176 -127 -176 -170 0 -17 18 -96 40 -174 41 -148 47
-187 30 -204 -6 -6 -6 -22 1 -44 7 -24 7 -71 0 -150 -6 -63 -15 -171 -21 -240
-19 -223 -74 -426 -174 -635 l-53 -111 23 -11 c22 -10 28 -6 64 37 49 58 91
148 98 206 l5 44 48 0 c40 0 49 -3 49 -18 0 -48 105 -229 231 -400 l69 -92 41
21 41 20 -8 387 c-5 213 -9 418 -9 457 l0 70 225 150 c387 258 694 431 861
486 81 26 129 29 304 16 105 -8 111 -7 123 12 11 18 8 25 -25 56 -38 35 -66
44 -78 25 -5 -8 -11 -7 -21 1 -10 8 -26 8 -63 -1 -38 -9 -53 -9 -68 1 -16 10
-55 0 -237 -60 -119 -40 -222 -71 -227 -69 -5 2 15 40 45 84 l55 82 -24 22
c-23 21 -30 23 -102 16 -43 -3 -90 -9 -105 -12 -20 -5 -28 -2 -28 7 0 8 59 82
130 166 72 83 130 160 130 171 0 50 -21 43 -270 -92z m-665 -40 c18 -13 18
-19 -14 -197 -18 -101 -33 -185 -34 -186 -11 -10 -107 -40 -107 -33 0 6 -15
10 -34 10 -66 0 -146 116 -146 211 0 43 2 47 28 53 57 14 211 96 234 125 26
33 45 38 73 17z m-155 -611 c35 -36 70 -65 78 -65 10 0 12 -11 7 -47 -15 -106
-42 -175 -97 -245 -37 -47 -127 -114 -137 -102 -6 7 30 507 38 522 0 1 11 2
24 2 15 0 45 -23 87 -65z m67 -417 c19 -22 21 -43 31 -378 6 -195 7 -359 3
-363 -16 -16 -301 357 -301 394 0 13 18 55 39 92 41 70 192 277 202 277 3 0
15 -10 26 -22z"/>
<path d="M2131 1850 c-65 -24 -211 -108 -412 -237 l-148 -95 45 -126 44 -125
-21 -99 -21 -98 25 -29 c13 -16 33 -58 43 -93 35 -121 167 -222 349 -268 225
-57 636 -38 713 33 49 46 39 58 -197 261 -121 103 -225 194 -231 201 -9 11 -6
24 14 58 32 55 35 97 5 97 -35 0 -54 -16 -139 -124 l-84 -105 -35 21 c-20 12
-63 39 -96 59 -33 21 -62 33 -64 28 -2 -6 3 -32 10 -57 15 -53 97 -143 162
-177 l38 -20 40 42 c22 24 42 56 45 73 6 28 9 30 55 30 33 0 49 -4 49 -12 0
-7 63 -73 140 -146 77 -74 140 -139 140 -146 0 -9 -46 -23 -133 -41 -116 -24
-140 -26 -185 -16 -39 8 -57 8 -71 0 -14 -9 -38 -6 -112 15 -230 65 -354 163
-375 294 -6 40 -5 42 68 115 70 70 88 82 238 151 62 28 218 200 345 379 42 60
47 72 39 95 -23 66 -180 100 -283 62z m139 -99 c0 -22 -28 -63 -117 -174 -112
-138 -120 -146 -154 -146 -36 -1 -36 -1 -49 56 -8 38 -22 66 -41 86 -16 16
-29 32 -29 36 0 42 258 168 348 170 40 1 42 0 42 -28z m-402 -244 c8 -9 8 -27
-2 -63 -29 -107 -59 -154 -101 -154 -19 0 -28 12 -55 81 l-33 80 34 35 c30 31
38 34 90 34 34 0 61 -5 67 -13z"/>
<path d="M2500 1435 c-15 -18 -7 -31 26 -39 46 -12 226 -102 317 -160 49 -31
92 -56 96 -56 5 0 14 7 21 15 10 13 11 24 1 56 -34 114 -193 199 -372 199 -55
0 -80 -4 -89 -15z"/>
<path d="M1468 1083 c-61 -38 -100 -158 -112 -343 l-6 -95 35 -23 c64 -41 95
3 95 133 0 59 -4 75 -20 90 -11 10 -20 23 -20 29 0 21 57 131 85 164 22 26 25
35 15 47 -16 19 -38 19 -72 -2z"/>
</g>
</svg>
