<?xml version="1.0" standalone="no"?>
<!DOCTYPE svg PUBLIC "-//W3C//DTD SVG 20010904//EN"
 "http://www.w3.org/TR/2001/REC-SVG-20010904/DTD/svg10.dtd">
<svg version="1.0" xmlns="http://www.w3.org/2000/svg"
 width="360.000000pt" height="360.000000pt" viewBox="0 0 360.000000 360.000000"
 preserveAspectRatio="xMidYMid meet">
<metadata>
Created by potrace 1.15, written by Peter Selinger 2001-2017
</metadata>
<g transform="translate(0.000000,360.000000) scale(0.100000,-0.100000)"
fill="#000000" stroke="none">
<path d="M1703 2598 l-22 -21 35 -69 35 -68 -11 -87 c-21 -170 -79 -369 -193
-667 -62 -163 -64 -175 -25 -200 13 -8 26 -1 60 30 24 22 70 56 104 76 78 48
224 110 241 104 29 -11 8 -268 -32 -403 -9 -29 -17 -53 -19 -53 -3 0 -82 30
-178 66 -95 36 -197 75 -226 86 l-54 20 7 48 c6 47 6 47 -37 79 -46 35 -44 35
-175 15 l-43 -7 0 64 1 64 64 75 c36 41 65 83 65 93 0 66 -142 3 -355 -158
-57 -42 -110 -75 -123 -75 -13 0 -21 3 -19 8 166 293 281 463 434 639 54 62
63 78 63 111 0 38 -22 72 -48 72 -7 0 -42 -25 -79 -55 -127 -102 -216 -131
-325 -106 -37 9 -38 8 -38 -18 0 -39 67 -101 124 -115 l45 -12 -185 -304
c-101 -167 -184 -314 -184 -326 0 -31 49 -64 94 -64 54 0 124 31 236 104 55
36 107 66 116 66 12 0 14 -14 12 -77 l-3 -76 -162 -119 c-152 -111 -163 -122
-163 -152 l0 -32 130 -42 c73 -25 130 -49 130 -56 0 -24 -63 -111 -122 -169
-62 -61 -252 -215 -275 -224 -44 -17 24 -123 79 -123 45 0 216 129 438 330
100 91 90 85 300 171 158 65 165 69 165 96 0 26 -3 28 -48 31 -69 4 -193 -30
-303 -84 -52 -25 -97 -44 -99 -42 -5 5 208 327 217 328 19 0 418 -196 418
-206 0 -18 -76 -111 -142 -173 -77 -73 -177 -138 -292 -192 -67 -31 -96 -49
-96 -61 0 -40 126 -10 247 58 82 46 206 130 311 211 46 36 89 62 96 60 52 -20
183 -116 241 -177 152 -157 337 -245 600 -285 55 -8 136 -15 181 -15 68 0 84
3 99 20 9 10 15 26 12 34 -3 7 -39 32 -80 55 -62 34 -84 41 -130 41 -230 0
-534 134 -779 344 l-76 65 33 104 c19 57 39 144 45 193 10 78 9 104 -9 210
-12 67 -21 131 -21 142 0 17 19 31 93 66 82 40 269 96 319 96 16 0 19 6 16 43
l-3 42 -65 -3 c-129 -6 -345 -96 -548 -228 -45 -30 -92 -54 -102 -54 -30 0
-26 54 10 138 61 143 169 575 156 625 -3 14 -21 42 -40 61 -28 31 -40 36 -77
36 -32 0 -51 -6 -66 -22z m-505 -1266 c-24 -83 -48 -97 -48 -30 0 34 6 49 32
75 17 18 33 31 34 30 2 -1 -7 -35 -18 -75z m-148 -92 c0 -22 -73 -76 -89 -65
-6 3 -11 19 -11 35 0 25 5 31 33 39 52 15 67 13 67 -9z"/>
<path d="M1243 2029 l-21 -22 21 -33 c19 -29 28 -34 63 -34 46 0 136 -24 175
-47 35 -21 83 -6 87 26 10 64 -24 89 -144 109 -138 24 -158 24 -181 1z"/>
</g>
</svg>
