<?xml version="1.0" standalone="no"?>
<!DOCTYPE svg PUBLIC "-//W3C//DTD SVG 20010904//EN"
 "http://www.w3.org/TR/2001/REC-SVG-20010904/DTD/svg10.dtd">
<svg version="1.0" xmlns="http://www.w3.org/2000/svg"
 width="360.000000pt" height="360.000000pt" viewBox="0 0 360.000000 360.000000"
 preserveAspectRatio="xMidYMid meet">
<metadata>
Created by potrace 1.15, written by Peter Selinger 2001-2017
</metadata>
<g transform="translate(0.000000,360.000000) scale(0.100000,-0.100000)"
fill="#000000" stroke="none">
<path d="M1424 2359 c-3 -6 19 -36 50 -68 l57 -57 -39 -60 c-38 -58 -232 -309
-318 -410 l-43 -51 -77 13 c-43 8 -80 11 -83 8 -3 -2 38 -48 91 -102 l96 -97
17 -105 c35 -221 110 -556 132 -595 6 -10 88 10 357 86 192 54 354 95 359 92
6 -3 49 -9 96 -12 l85 -6 12 -42 c8 -28 9 -45 3 -49 -18 -11 19 -138 53 -187
15 -21 27 -27 47 -25 21 2 33 16 64 78 42 84 114 347 98 363 -6 6 -4 21 4 41
20 48 61 239 99 466 l35 204 -24 33 c-56 72 -173 143 -238 143 -12 0 -130 -25
-262 -55 -152 -35 -263 -55 -302 -55 -56 0 -63 -2 -63 -20 0 -14 11 -22 43
-30 23 -6 58 -15 77 -21 83 -22 176 -3 271 54 41 25 64 32 90 30 19 -3 60 0
92 5 56 9 60 8 115 -25 70 -41 112 -85 112 -118 0 -19 -135 -647 -167 -772 -8
-36 -38 -28 -125 33 l-80 57 -97 -7 c-136 -9 -275 -40 -426 -92 -71 -25 -142
-48 -156 -51 -64 -12 -179 156 -179 262 0 136 -62 380 -106 416 -8 6 -14 15
-14 19 0 4 101 133 225 286 139 172 225 287 225 300 0 29 -24 56 -90 98 -54
36 -103 46 -116 25z"/>
<path d="M2111 1568 c-90 -11 -171 -37 -184 -59 -6 -9 -7 -24 -3 -34 5 -15 14
-17 51 -12 25 4 56 9 70 13 29 7 45 -18 27 -46 -9 -14 -6 -20 15 -31 22 -12
30 -10 80 16 30 17 70 43 89 59 30 24 35 34 32 65 -3 36 -3 36 -53 37 -27 1
-83 -2 -124 -8z"/>
<path d="M1545 1450 c-97 -19 -165 -43 -165 -58 0 -5 8 -16 18 -25 23 -21 139
-22 195 -3 52 19 109 64 105 84 -4 24 -46 24 -153 2z"/>
</g>
</svg>
