<?xml version="1.0" standalone="no"?>
<!DOCTYPE svg PUBLIC "-//W3C//DTD SVG 20010904//EN"
 "http://www.w3.org/TR/2001/REC-SVG-20010904/DTD/svg10.dtd">
<svg version="1.0" xmlns="http://www.w3.org/2000/svg"
 width="360.000000pt" height="360.000000pt" viewBox="0 0 360.000000 360.000000"
 preserveAspectRatio="xMidYMid meet">
<metadata>
Created by potrace 1.15, written by Peter Selinger 2001-2017
</metadata>
<g transform="translate(0.000000,360.000000) scale(0.100000,-0.100000)"
fill="#000000" stroke="none">
<path d="M2066 2719 c-14 -17 -26 -35 -26 -40 0 -5 19 -30 41 -54 41 -44 41
-45 35 -102 -4 -32 -16 -91 -27 -132 -24 -91 -113 -286 -146 -322 -29 -32
-123 -79 -229 -115 -65 -22 -84 -24 -106 -15 l-28 11 0 219 0 219 -30 29 c-16
16 -61 44 -100 63 l-70 34 -22 -21 -21 -22 43 -48 c88 -99 113 -199 91 -364
-7 -56 -8 -86 -1 -93 16 -16 12 -40 -15 -76 -28 -38 -117 -102 -126 -92 -3 4
-12 28 -19 55 -16 58 -41 63 -88 14 -28 -29 -32 -40 -32 -89 0 -51 3 -58 35
-86 l34 -31 102 34 102 35 58 -32 58 -32 31 29 c25 24 30 36 26 57 -5 25 1 30
83 77 85 49 111 59 111 44 0 -14 -99 -203 -129 -246 -36 -52 -106 -117 -126
-117 -26 0 -20 -82 8 -108 23 -21 23 -21 52 -2 17 11 41 20 55 20 31 0 120
-41 139 -63 9 -12 29 -17 60 -17 39 0 52 5 76 30 l29 30 -31 42 c-40 56 -101
98 -152 105 -22 3 -41 8 -41 10 0 3 61 112 135 243 l135 237 39 -10 c26 -7 82
-7 172 -1 126 10 138 9 196 -11 l62 -22 31 32 31 32 -53 39 c-43 32 -67 42
-126 52 -40 7 -90 21 -110 31 -34 17 -122 102 -122 117 0 3 14 64 30 136 17
71 30 150 30 174 0 120 -92 187 -154 113z m107 -528 c32 -46 32 -49 10 -73
-10 -11 -30 -18 -55 -18 -31 0 -38 4 -38 20 0 21 40 110 49 110 4 0 18 -18 34
-39z"/>
<path d="M2100 1310 c-284 -60 -354 -79 -712 -195 -219 -71 -398 -134 -398
-140 0 -15 27 -38 69 -60 26 -13 48 -16 85 -11 61 7 171 43 244 80 67 34 81
27 122 -58 34 -71 35 -78 18 -105 -9 -15 -5 -37 23 -116 18 -54 46 -115 61
-136 l28 -39 84 0 c47 0 148 9 225 21 124 18 143 18 168 6 37 -19 110 -34 206
-43 93 -8 106 2 107 82 0 45 -4 56 -39 95 -69 78 -55 77 -359 28 l-269 -43
-49 25 -49 24 -32 184 c-18 102 -31 186 -30 186 1 1 133 36 292 78 l290 77
160 -20 c206 -25 237 -25 260 0 41 45 -11 98 -129 130 l-61 17 -315 -67z"/>
</g>
</svg>
