<?xml version="1.0" standalone="no"?>
<!DOCTYPE svg PUBLIC "-//W3C//DTD SVG 20010904//EN"
 "http://www.w3.org/TR/2001/REC-SVG-20010904/DTD/svg10.dtd">
<svg version="1.0" xmlns="http://www.w3.org/2000/svg"
 width="360.000000pt" height="360.000000pt" viewBox="0 0 360.000000 360.000000"
 preserveAspectRatio="xMidYMid meet">
<metadata>
Created by potrace 1.15, written by Peter Selinger 2001-2017
</metadata>
<g transform="translate(0.000000,360.000000) scale(0.100000,-0.100000)"
fill="#000000" stroke="none">
<path d="M1694 2896 c-8 -20 14 -95 42 -143 19 -32 24 -56 24 -107 0 -35 -4
-76 -9 -89 -25 -65 -164 -164 -383 -273 -134 -67 -138 -68 -152 -49 -11 15
-15 48 -16 124 0 207 -36 299 -135 353 l-50 27 -22 -21 c-13 -12 -23 -25 -23
-30 0 -4 20 -37 45 -73 57 -84 65 -115 65 -259 0 -98 3 -121 16 -131 15 -11
13 -20 -25 -92 -46 -88 -84 -131 -121 -135 -37 -4 -36 25 3 92 l35 58 -23 22
c-38 36 -66 24 -100 -45 -23 -47 -30 -73 -30 -122 0 -54 3 -66 26 -89 l27 -26
94 33 95 33 49 -31 c47 -31 49 -31 77 -15 34 20 44 39 28 55 -6 6 -11 28 -11
48 0 33 7 43 73 101 140 125 265 208 311 208 32 0 -35 -137 -150 -311 -35 -53
-64 -101 -64 -107 0 -7 9 -12 21 -12 44 0 215 207 361 436 53 83 78 114 93
114 35 0 92 -20 129 -45 48 -33 104 -34 134 -2 12 13 22 27 22 33 0 5 -28 25
-62 44 -77 44 -153 112 -190 169 -21 34 -28 57 -28 95 0 66 -17 125 -43 154
-16 17 -31 22 -74 22 -37 0 -55 -4 -59 -14z"/>
<path d="M1675 1943 c-143 -48 -729 -357 -743 -391 -2 -7 10 -28 28 -47 l33
-34 -32 -244 c-27 -207 -32 -269 -29 -405 l3 -160 31 -38 c62 -78 197 -129
415 -160 89 -13 161 -15 334 -11 313 8 536 42 753 113 108 35 302 129 302 146
0 5 -9 89 -21 186 -17 143 -19 186 -10 225 6 27 11 83 11 125 0 66 -4 81 -23
106 -13 16 -29 26 -35 22 -15 -9 -27 -116 -15 -136 8 -11 4 -57 -14 -155 -13
-77 -27 -176 -31 -220 l-7 -80 -46 -31 c-103 -68 -334 -118 -664 -144 -237
-18 -369 -14 -648 20 -184 22 -278 115 -246 241 10 37 10 54 1 74 -9 19 -9 43
0 101 l12 76 30 -7 c17 -4 36 -7 41 -8 6 -1 79 33 164 76 173 88 335 157 461
197 100 32 109 48 61 109 -17 21 -31 42 -31 47 0 4 27 49 60 100 111 171 142
261 103 296 -22 20 -87 38 -133 38 -19 -1 -71 -13 -115 -27z m86 -85 c22 -6
39 -16 39 -22 0 -5 -21 -53 -46 -105 -50 -102 -128 -192 -193 -223 l-35 -16
-59 84 c-32 47 -56 91 -54 99 15 36 180 154 255 181 46 16 47 16 93 2z m-395
-300 l22 -66 -34 -69 c-63 -130 -164 -213 -261 -213 l-43 0 0 130 0 130 58 45
c79 64 193 120 226 111 5 -1 20 -32 32 -68z"/>
</g>
</svg>
