<?xml version="1.0" standalone="no"?>
<!DOCTYPE svg PUBLIC "-//W3C//DTD SVG 20010904//EN"
 "http://www.w3.org/TR/2001/REC-SVG-20010904/DTD/svg10.dtd">
<svg version="1.0" xmlns="http://www.w3.org/2000/svg"
 width="360.000000pt" height="360.000000pt" viewBox="0 0 360.000000 360.000000"
 preserveAspectRatio="xMidYMid meet">
<metadata>
Created by potrace 1.15, written by Peter Selinger 2001-2017
</metadata>
<g transform="translate(0.000000,360.000000) scale(0.100000,-0.100000)"
fill="#000000" stroke="none">
<path d="M1845 2956 l-29 -24 22 -95 c16 -63 21 -108 17 -133 -29 -177 -144
-323 -345 -438 -81 -47 -198 -101 -204 -95 -1 2 -74 157 -161 344 -87 187
-160 342 -162 344 -5 7 -43 -32 -43 -45 0 -7 50 -142 110 -300 102 -263 110
-291 104 -333 -9 -59 -38 -116 -69 -137 -26 -17 -114 -38 -123 -30 -2 3 14 37
37 77 23 39 40 72 39 73 -14 8 -61 26 -68 26 -5 0 -29 -25 -54 -56 -42 -51
-46 -61 -46 -109 0 -69 14 -98 56 -119 64 -30 124 -17 215 49 56 40 65 42 99
15 28 -22 83 -26 97 -7 6 6 14 30 17 52 11 58 48 109 98 134 51 24 118 28 118
8 0 -23 -81 -136 -151 -211 -60 -64 -75 -96 -47 -96 5 0 41 22 80 49 54 38 83
69 131 140 139 203 270 342 354 377 46 20 127 17 202 -6 l64 -19 43 31 44 31
-20 31 c-16 26 -30 34 -94 48 -41 10 -95 27 -120 39 -77 36 -135 119 -107 153
8 9 11 45 10 95 -3 80 -3 81 -44 121 l-40 40 -30 -24z m123 -424 c3 -31 2 -32
-32 -32 -42 0 -46 14 -14 47 28 30 42 25 46 -15z"/>
<path d="M2067 1944 c-26 -13 -161 -105 -301 -204 -140 -99 -257 -180 -260
-180 -3 0 -6 16 -6 35 0 44 -24 103 -45 111 -21 9 -151 -55 -247 -121 -44 -30
-84 -55 -90 -55 -12 0 -13 -5 41 117 45 99 46 131 8 158 -12 8 -33 15 -48 15
-23 0 -27 -6 -43 -62 -34 -121 -126 -275 -300 -495 -18 -24 -18 -24 5 -49 27
-29 46 -30 79 -4 31 24 106 27 137 5 13 -9 29 -38 38 -67 l15 -51 -39 -78
c-78 -155 -224 -326 -393 -461 -48 -39 -88 -74 -88 -77 0 -16 58 -61 77 -61
16 0 73 58 200 203 235 267 258 289 339 326 38 18 75 35 82 39 7 4 26 46 42
95 68 200 141 294 251 320 51 13 54 -6 29 -190 -12 -94 -20 -186 -16 -210 19
-144 123 -244 310 -302 59 -18 94 -21 255 -21 102 -1 217 -5 255 -10 78 -10
210 11 432 69 203 53 287 105 265 163 -36 94 -81 414 -81 576 l0 82 -29 0
c-28 0 -29 -2 -35 -62 -13 -140 -18 -474 -8 -511 6 -21 8 -45 5 -52 -14 -39
-210 -80 -548 -115 -298 -31 -389 -31 -492 3 -93 31 -168 78 -199 124 -30 44
-36 100 -24 201 19 153 26 162 62 87 26 -54 42 -56 116 -19 89 44 182 164 281
361 72 144 121 267 121 302 0 34 -26 66 -66 81 -33 13 -31 13 -87 -16z m-19
-208 c-7 -59 -79 -205 -167 -339 l-71 -107 -75 0 c-41 0 -75 4 -75 9 0 4 5 23
11 40 9 25 9 38 -1 56 -12 22 -9 29 30 80 70 91 221 246 269 277 25 15 54 28
64 28 17 0 19 -5 15 -44z m-792 -301 c-22 -87 -74 -191 -102 -202 -25 -9 -64
35 -64 73 0 29 9 40 78 93 42 33 81 60 86 60 4 1 5 -10 2 -24z"/>
</g>
</svg>
