<?xml version="1.0" standalone="no"?>
<!DOCTYPE svg PUBLIC "-//W3C//DTD SVG 20010904//EN"
 "http://www.w3.org/TR/2001/REC-SVG-20010904/DTD/svg10.dtd">
<svg version="1.0" xmlns="http://www.w3.org/2000/svg"
 width="360.000000pt" height="360.000000pt" viewBox="0 0 360.000000 360.000000"
 preserveAspectRatio="xMidYMid meet">
<metadata>
Created by potrace 1.15, written by Peter Selinger 2001-2017
</metadata>
<g transform="translate(0.000000,360.000000) scale(0.100000,-0.100000)"
fill="#000000" stroke="none">
<path d="M2094 2965 c-4 -9 -2 -34 4 -57 9 -36 7 -51 -17 -117 -39 -106 -79
-186 -115 -227 -27 -30 -45 -38 -141 -63 -134 -35 -215 -63 -262 -91 -19 -11
-38 -20 -44 -20 -5 0 -9 21 -9 48 -1 117 -58 263 -140 354 l-48 53 -12 -30
c-10 -27 -5 -50 43 -205 42 -137 52 -179 43 -192 -8 -13 -8 -23 1 -37 10 -16
7 -26 -23 -65 -45 -59 -113 -106 -154 -106 -21 0 -46 11 -70 30 -44 35 -51 36
-73 12 -26 -29 -20 -53 25 -99 39 -40 46 -43 93 -43 38 0 69 8 115 32 l64 31
37 -21 c49 -29 80 -28 108 2 22 24 24 43 10 96 -3 10 49 42 171 107 96 51 178
93 183 93 32 1 -54 -166 -159 -307 -58 -77 -69 -84 -372 -223 l-73 -33 21 -21
20 -21 143 38 c78 20 152 40 163 43 19 5 24 -2 44 -60 22 -68 21 -138 -4 -170
-6 -8 -69 -37 -141 -65 l-130 -49 -3 -36 c-4 -47 9 -52 106 -38 42 6 79 9 81
6 2 -2 -1 -28 -8 -58 -15 -65 -67 -176 -120 -255 l-40 -58 23 -22 c12 -11 26
-21 30 -21 4 0 40 30 79 66 69 63 262 199 319 225 24 10 31 10 48 -6 30 -27
25 -44 -36 -115 -31 -36 -73 -90 -94 -120 -92 -133 -249 -231 -447 -281 -51
-12 -54 -12 -78 11 -24 22 -25 28 -25 141 0 65 5 152 11 194 7 56 7 80 -1 90
-7 8 -7 15 -1 19 25 16 49 133 50 250 2 141 -6 156 -76 156 -23 0 -43 -4 -43
-9 0 -4 5 -32 10 -62 7 -38 7 -77 -1 -131 -8 -57 -8 -86 0 -109 9 -26 8 -36
-3 -48 -31 -36 -56 -175 -81 -447 -19 -214 -19 -229 1 -249 16 -15 19 -14 53
19 30 30 68 46 241 104 397 134 495 157 588 140 60 -11 65 -14 84 -52 55 -110
177 -276 300 -411 l52 -57 22 25 c24 29 47 114 69 256 19 125 22 745 4 757 -8
4 -8 8 0 13 7 5 4 46 -11 135 -21 126 -21 130 -4 240 10 61 20 121 22 132 5
18 -10 33 -82 87 -48 37 -116 80 -150 97 l-63 31 -174 -12 c-95 -6 -180 -10
-189 -8 -12 3 -2 26 46 103 109 172 228 282 312 287 16 1 86 -21 157 -51 123
-51 128 -52 147 -35 25 22 26 57 3 77 -28 25 -101 59 -192 89 -47 16 -86 29
-88 29 -2 0 -3 -9 -3 -20 0 -17 -7 -20 -46 -20 -43 0 -46 2 -41 23 3 12 18 75
33 140 l27 118 -34 35 c-35 36 -75 45 -85 19z m86 -904 c34 -11 85 -34 114
-51 l53 -33 6 -76 c4 -42 19 -274 34 -515 l27 -439 -28 -136 c-39 -187 -33
-177 -82 -142 -36 27 -42 37 -52 91 -22 121 -76 191 -194 251 -43 22 -83 34
-127 38 -36 3 -66 11 -67 16 -2 6 51 73 116 150 99 115 120 146 120 172 0 42
-41 74 -135 104 l-70 22 -97 -51 c-53 -29 -99 -52 -102 -52 -25 0 20 126 68
190 32 45 34 46 114 57 88 13 142 35 142 58 0 23 -86 82 -130 89 -52 8 -120
73 -145 139 -10 26 -16 49 -14 51 10 8 327 84 356 85 17 1 59 -8 93 -18z"/>
</g>
</svg>
