<?xml version="1.0" standalone="no"?>
<!DOCTYPE svg PUBLIC "-//W3C//DTD SVG 20010904//EN"
 "http://www.w3.org/TR/2001/REC-SVG-20010904/DTD/svg10.dtd">
<svg version="1.0" xmlns="http://www.w3.org/2000/svg"
 width="360.000000pt" height="360.000000pt" viewBox="0 0 360.000000 360.000000"
 preserveAspectRatio="xMidYMid meet">
<metadata>
Created by potrace 1.15, written by Peter Selinger 2001-2017
</metadata>
<g transform="translate(0.000000,360.000000) scale(0.100000,-0.100000)"
fill="#000000" stroke="none">
<path d="M2192 2867 c-25 -26 -29 -78 -8 -96 10 -9 11 -22 5 -58 -30 -161
-187 -288 -486 -393 -47 -17 -86 -30 -87 -30 -2 0 -6 51 -9 113 -14 255 -90
397 -213 397 -24 0 -44 -4 -44 -9 0 -6 13 -29 28 -53 38 -58 66 -127 91 -223
20 -79 63 -308 58 -309 -1 -1 -12 -7 -24 -13 -40 -22 -70 -16 -81 16 -14 40
-47 49 -78 20 -35 -32 -31 -75 9 -123 l34 -39 71 9 c65 9 75 8 114 -13 24 -12
46 -22 50 -23 4 0 13 20 19 45 14 55 74 126 147 172 43 28 202 103 218 103 22
0 -43 -135 -125 -258 -33 -51 -61 -95 -61 -98 0 -3 14 -4 32 -2 29 3 41 17
137 160 123 183 188 265 251 314 61 48 82 51 175 26 l80 -21 22 21 c25 23 31
70 11 85 -7 6 -30 14 -51 17 -62 11 -122 75 -176 186 -51 105 -70 118 -109 77z"/>
<path d="M2241 2156 l-63 -64 6 -68 7 -69 -165 -165 c-92 -91 -166 -172 -166
-181 0 -9 8 -23 19 -33 17 -16 21 -15 69 18 57 38 144 69 245 87 92 17 96 10
97 -137 l0 -111 -82 -69 c-76 -64 -87 -70 -150 -81 -77 -13 -118 -34 -118 -63
0 -12 39 -51 105 -106 58 -48 104 -92 102 -98 -3 -6 -34 -65 -71 -131 l-66
-120 35 -32 c45 -43 68 -42 206 7 101 36 122 40 206 40 52 0 103 5 113 10 12
7 27 7 45 0 14 -5 50 -14 80 -18 49 -8 56 -7 75 13 17 18 21 33 18 71 -3 47
-4 49 -43 62 -69 24 -153 25 -260 4 -69 -14 -104 -17 -112 -10 -7 6 -24 7 -38
4 -23 -6 -25 -4 -25 32 0 34 11 53 89 149 114 140 249 325 280 384 24 45 24
46 6 92 -21 56 -10 57 -170 -18 -135 -64 -145 -61 -126 32 6 31 11 77 11 103
0 42 -4 49 -44 83 l-44 37 -42 -15 c-24 -8 -55 -15 -71 -15 -25 0 -29 4 -29
28 0 21 15 39 70 85 105 88 190 210 190 272 0 30 -40 55 -87 55 -34 0 -46 -8
-102 -64z m239 -754 c0 -33 -74 -147 -98 -150 -19 -3 -22 1 -22 34 0 32 8 46
47 86 49 50 73 60 73 30z m-230 -200 c0 -32 -45 -72 -80 -72 -28 0 -25 19 11
63 37 46 69 50 69 9z"/>
<path d="M1504 1893 c-39 -179 -218 -437 -583 -842 -61 -68 -111 -129 -111
-136 0 -6 9 -20 21 -31 21 -19 21 -18 52 16 212 238 440 490 445 490 15 0 62
-56 62 -74 0 -11 -21 -146 -46 -300 -40 -241 -46 -294 -41 -371 10 -148 34
-199 76 -161 15 14 19 39 24 164 12 266 80 462 254 731 84 130 62 130 -57 0
-57 -63 -107 -115 -111 -117 -5 -2 -13 16 -19 40 -17 68 -30 96 -57 122 l-25
25 45 58 c63 83 134 194 157 248 29 67 26 95 -13 133 -41 40 -65 41 -73 5z"/>
</g>
</svg>
