<?xml version="1.0" standalone="no"?>
<!DOCTYPE svg PUBLIC "-//W3C//DTD SVG 20010904//EN"
 "http://www.w3.org/TR/2001/REC-SVG-20010904/DTD/svg10.dtd">
<svg version="1.0" xmlns="http://www.w3.org/2000/svg"
 width="360.000000pt" height="360.000000pt" viewBox="0 0 360.000000 360.000000"
 preserveAspectRatio="xMidYMid meet">
<metadata>
Created by potrace 1.15, written by Peter Selinger 2001-2017
</metadata>
<g transform="translate(0.000000,360.000000) scale(0.100000,-0.100000)"
fill="#000000" stroke="none">
<path d="M1917 2922 c-23 -25 -22 -110 3 -217 11 -47 20 -101 20 -120 0 -73
-114 -176 -308 -277 -60 -32 -113 -58 -118 -58 -21 0 -33 64 -36 200 -3 133
-5 150 -29 195 -30 59 -82 93 -158 102 -59 7 -63 -2 -20 -43 69 -65 112 -196
124 -379 9 -130 9 -130 -107 -102 -85 20 -88 21 -108 2 -17 -16 -20 -29 -18
-78 3 -57 5 -60 44 -89 l42 -30 75 12 c56 9 84 10 107 1 26 -9 38 -7 70 9 22
11 42 20 45 20 21 0 -9 -66 -101 -223 -181 -310 -390 -571 -736 -923 -92 -93
-168 -178 -168 -187 0 -13 9 -17 39 -17 52 0 90 31 312 256 140 142 199 211
287 335 264 372 486 629 543 629 21 0 67 -28 161 -99 444 -330 833 -530 1068
-548 l80 -6 0 31 c0 21 -8 37 -26 51 -34 26 -159 75 -265 101 -91 24 -168 61
-324 159 -102 63 -429 287 -529 361 l-56 40 16 43 c32 82 122 263 152 304 18
23 45 49 61 58 29 14 32 14 87 -20 l58 -34 23 34 c37 55 32 65 -67 125 -74 45
-89 59 -85 75 3 11 8 61 11 110 l7 91 -72 62 c-40 34 -76 62 -80 62 -4 0 -15
-8 -24 -18z m-67 -617 c0 -20 -36 -91 -66 -132 -21 -28 -31 -32 -91 -38 -38
-4 -88 -16 -112 -26 -79 -34 -84 15 -9 71 61 44 238 140 261 140 9 0 17 -7 17
-15z"/>
<path d="M1680 1639 c-152 -20 -226 -46 -236 -85 -10 -41 2 -47 85 -40 42 4
93 10 114 13 28 4 37 2 37 -8 0 -8 -99 -113 -220 -234 -144 -144 -220 -227
-220 -240 0 -12 15 -36 34 -54 31 -30 39 -33 73 -28 21 3 110 42 198 87 152
77 185 90 185 73 0 -5 -79 -106 -175 -227 -186 -232 -194 -248 -159 -301 9
-14 23 -25 31 -25 9 0 68 35 132 79 221 149 383 221 500 221 34 0 61 -2 61 -5
0 -2 -11 -35 -25 -72 -29 -76 -57 -126 -126 -229 l-47 -71 22 -28 23 -29 31
22 c40 29 125 127 196 226 51 71 56 84 56 130 0 31 -7 61 -17 76 -23 35 -75
90 -95 101 -14 7 -223 -31 -416 -76 -18 -4 -23 -2 -20 10 2 8 93 110 203 226
110 116 203 217 207 224 4 6 -4 28 -18 49 -20 29 -30 36 -47 31 -54 -16 -218
-103 -395 -209 -106 -64 -197 -116 -202 -116 -6 0 -10 10 -10 23 0 16 13 29
48 48 54 31 171 128 324 271 l108 99 -20 40 -20 39 -68 -1 c-37 -1 -96 -5
-132 -10z"/>
</g>
</svg>
