<?xml version="1.0" standalone="no"?>
<!DOCTYPE svg PUBLIC "-//W3C//DTD SVG 20010904//EN"
 "http://www.w3.org/TR/2001/REC-SVG-20010904/DTD/svg10.dtd">
<svg version="1.0" xmlns="http://www.w3.org/2000/svg"
 width="360.000000pt" height="360.000000pt" viewBox="0 0 360.000000 360.000000"
 preserveAspectRatio="xMidYMid meet">
<metadata>
Created by potrace 1.15, written by Peter Selinger 2001-2017
</metadata>
<g transform="translate(0.000000,360.000000) scale(0.100000,-0.100000)"
fill="#000000" stroke="none">
<path d="M2056 2929 c-21 -16 -26 -29 -26 -64 0 -49 17 -65 66 -65 l27 0 -6
-64 c-18 -197 -158 -342 -426 -443 -35 -13 -70 -22 -77 -19 -23 9 -55 137 -63
248 -6 92 -11 112 -34 147 -30 46 -130 128 -165 138 -45 11 -43 -10 8 -138
101 -248 137 -387 110 -429 -8 -13 -15 -12 -57 4 -26 11 -64 21 -84 23 -33 4
-40 1 -73 -40 -20 -24 -36 -53 -36 -63 0 -23 89 -114 111 -114 8 0 61 15 117
34 57 19 104 30 107 25 13 -20 36 -6 106 64 66 64 176 137 208 137 28 0 3 -53
-99 -205 -98 -146 -127 -205 -102 -205 4 0 37 29 72 65 51 51 71 65 95 65 52
0 105 20 121 45 11 17 26 25 45 25 26 0 29 -3 29 -31 0 -86 -99 -306 -234
-521 -50 -80 -66 -114 -66 -142 0 -22 5 -36 13 -36 6 0 43 29 81 65 124 119
283 208 460 259 108 32 108 32 173 4 l53 -23 0 -127 c0 -318 -54 -675 -130
-854 -12 -27 -35 -73 -53 -102 -31 -51 -32 -52 -78 -52 l-47 0 -145 158 c-80
86 -163 179 -186 207 l-41 50 0 101 0 101 78 11 c42 7 86 12 97 12 11 0 50
-30 87 -67 37 -37 69 -65 71 -62 33 41 57 79 57 90 0 8 -33 48 -74 88 l-74 74
-69 -13 c-152 -26 -189 -46 -224 -117 -18 -36 -25 -69 -27 -135 l-4 -86 43
-64 c74 -110 164 -221 240 -294 109 -105 176 -143 280 -158 41 -6 50 -4 78 20
73 61 147 278 196 569 24 149 58 431 71 595 l6 86 -53 41 c-85 64 -117 77
-184 76 -73 -1 -224 -36 -322 -73 -40 -16 -73 -26 -73 -24 0 2 29 82 65 178
63 168 65 176 51 204 -21 40 -77 87 -120 102 -44 14 -46 31 -8 91 37 56 56 73
117 100 46 20 59 21 196 16 81 -4 153 -9 160 -12 8 -3 19 6 26 21 12 25 10 26
-50 54 -34 15 -101 42 -149 60 l-88 33 0 41 c0 23 4 80 9 127 11 103 2 156
-34 187 -35 30 -111 31 -149 1z"/>
<path d="M1344 1950 c-8 -8 -8 -23 -1 -49 9 -34 7 -44 -17 -85 -38 -64 -150
-197 -289 -342 -65 -67 -117 -128 -117 -136 0 -21 33 -48 59 -48 12 0 88 34
168 75 81 42 155 75 165 73 14 -2 -8 -38 -102 -166 -111 -150 -120 -166 -120
-207 l0 -45 48 7 c61 8 100 28 114 58 13 30 33 32 48 6 7 -15 -1 -53 -39 -168
-28 -81 -53 -174 -57 -206 -6 -57 -5 -60 27 -93 18 -19 38 -34 45 -34 32 0 97
137 219 460 79 210 285 796 285 811 0 5 -8 9 -18 9 -14 0 -47 -70 -152 -317
-73 -175 -142 -337 -153 -361 l-18 -43 -52 43 c-29 23 -53 43 -55 44 -2 1 15
35 37 76 22 40 48 101 57 136 17 61 17 63 -2 82 -12 12 -47 25 -89 32 l-69 13
142 163 c78 90 142 167 142 172 0 5 -15 18 -34 29 -25 16 -50 21 -98 21 -35 0
-69 -5 -74 -10z"/>
</g>
</svg>
