<?xml version="1.0" standalone="no"?>
<!DOCTYPE svg PUBLIC "-//W3C//DTD SVG 20010904//EN"
 "http://www.w3.org/TR/2001/REC-SVG-20010904/DTD/svg10.dtd">
<svg version="1.0" xmlns="http://www.w3.org/2000/svg"
 width="360.000000pt" height="360.000000pt" viewBox="0 0 360.000000 360.000000"
 preserveAspectRatio="xMidYMid meet">
<metadata>
Created by potrace 1.15, written by Peter Selinger 2001-2017
</metadata>
<g transform="translate(0.000000,360.000000) scale(0.100000,-0.100000)"
fill="#000000" stroke="none">
<path d="M1938 3083 c-50 -13 -27 -137 43 -233 18 -24 18 -28 -2 -120 -29
-133 -34 -137 -317 -240 l-103 -38 -24 36 c-23 33 -25 47 -25 142 0 156 -3
162 -126 271 -58 52 -110 96 -115 97 -5 2 -15 -1 -23 -7 -10 -8 -10 -26 -2
-87 10 -70 13 -77 41 -91 67 -34 116 -101 130 -176 5 -23 3 -42 -4 -51 -9 -11
-9 -30 0 -81 l11 -67 -48 -49 c-54 -55 -84 -62 -121 -27 -22 21 -23 21 -43 3
-44 -40 -13 -101 70 -135 28 -12 36 -11 76 8 25 12 48 22 53 22 10 0 33 -119
25 -131 -3 -5 -22 -9 -43 -9 -35 0 -39 -3 -50 -39 -30 -102 -243 -382 -598
-788 -133 -151 -157 -193 -112 -193 15 0 94 71 245 220 123 121 229 220 235
220 8 0 8 -4 0 -13 -7 -10 -8 -31 -1 -73 6 -32 10 -179 10 -325 l0 -266 24
-22 c53 -50 80 -12 98 137 10 92 9 112 -12 235 -20 120 -21 143 -12 228 l12
94 -28 38 c-15 21 -31 44 -37 52 -7 10 -5 19 5 29 14 14 399 126 433 126 22 0
22 -2 -8 -60 -47 -93 -101 -349 -93 -439 6 -61 28 -106 53 -106 15 0 25 17 47
80 77 217 168 334 286 370 17 5 22 2 22 -12 0 -45 -58 -131 -159 -236 -110
-114 -114 -122 -65 -153 17 -11 48 3 267 118 137 71 250 128 252 126 2 -1 20
-109 40 -238 35 -220 37 -241 27 -328 -8 -66 -8 -102 0 -123 7 -21 7 -33 0
-38 -16 -10 -32 -79 -40 -171 -10 -116 -21 -117 -122 -9 -68 74 -79 82 -94 70
-9 -7 -16 -21 -16 -30 0 -27 69 -132 140 -215 56 -66 69 -76 98 -76 29 0 35 5
52 43 30 68 55 256 73 547 2 30 -11 255 -29 499 -23 312 -30 449 -23 457 7 9
7 30 -1 68 -6 31 -8 61 -4 67 14 23 94 49 188 61 118 15 225 2 350 -42 47 -17
93 -30 103 -30 48 0 59 66 18 99 -36 28 -137 49 -295 63 -135 11 -135 11 -285
-21 -418 -90 -720 -179 -902 -267 -62 -30 -117 -54 -123 -54 -5 0 -10 10 -10
22 0 14 25 45 72 88 l72 66 -12 55 c-7 30 -15 64 -18 77 -5 19 -2 22 19 22 43
0 57 33 57 131 l0 87 108 42 c110 43 202 62 202 41 0 -6 -39 -90 -87 -186 -80
-159 -86 -176 -72 -190 14 -15 22 -10 85 58 46 49 85 105 118 168 68 130 108
182 180 233 97 69 126 78 214 66 96 -13 95 -13 109 9 11 18 6 26 -54 75 -37
31 -77 56 -89 56 -11 0 -42 -16 -68 -36 -36 -27 -54 -34 -80 -32 l-34 3 44
119 c51 138 54 173 19 214 -23 27 -152 103 -171 101 -5 -1 -17 -3 -26 -6z
m249 -1155 c12 -35 25 -129 38 -265 l6 -63 -35 0 c-19 0 -38 5 -42 12 -4 7
-16 -7 -31 -35 -13 -26 -33 -53 -46 -61 -30 -20 -77 -31 -77 -18 0 6 20 58 45
118 25 59 45 115 45 125 0 10 -12 27 -26 38 -21 17 -35 20 -68 15 -84 -13
-186 -66 -298 -155 -16 -13 -33 -19 -43 -15 -15 5 -13 11 14 41 17 20 31 39
31 44 0 5 25 34 56 64 61 60 165 120 293 168 99 37 122 35 138 -13z"/>
</g>
</svg>
