<?xml version="1.0" standalone="no"?>
<!DOCTYPE svg PUBLIC "-//W3C//DTD SVG 20010904//EN"
 "http://www.w3.org/TR/2001/REC-SVG-20010904/DTD/svg10.dtd">
<svg version="1.0" xmlns="http://www.w3.org/2000/svg"
 width="360.000000pt" height="360.000000pt" viewBox="0 0 360.000000 360.000000"
 preserveAspectRatio="xMidYMid meet">
<metadata>
Created by potrace 1.15, written by Peter Selinger 2001-2017
</metadata>
<g transform="translate(0.000000,360.000000) scale(0.100000,-0.100000)"
fill="#000000" stroke="none">
<path d="M2250 3269 c-9 -15 -9 -38 0 -87 9 -57 8 -80 -9 -159 -11 -50 -31
-109 -45 -131 -53 -84 -177 -169 -336 -229 l-85 -32 -22 21 c-22 21 -23 28
-23 188 l0 166 -42 40 c-107 99 -107 99 -123 83 -13 -12 -11 -24 10 -92 35
-109 55 -235 58 -359 2 -100 1 -108 -22 -132 -14 -15 -42 -31 -63 -38 -33 -10
-41 -9 -58 7 -11 10 -20 26 -20 37 0 13 -8 18 -30 18 -30 0 -30 0 -30 -58 0
-52 3 -62 30 -87 l30 -29 92 11 c86 9 95 8 115 -10 21 -19 24 -19 47 -3 14 9
29 29 32 44 11 46 53 98 112 140 81 56 176 102 212 102 30 0 31 -1 25 -37 -18
-103 -102 -210 -237 -301 -99 -67 -121 -77 -208 -96 -99 -23 -156 -49 -165
-76 -4 -12 -4 -24 -1 -28 4 -3 92 18 196 47 141 38 200 50 225 45 52 -9 57
-21 42 -100 l-12 -68 -255 -148 c-140 -81 -347 -200 -459 -265 l-204 -117 -26
30 c-14 16 -33 40 -42 53 -15 24 -16 24 -42 6 -22 -14 -27 -25 -27 -60 0 -37
6 -50 42 -90 l43 -47 64 22 c111 37 293 137 539 297 62 40 115 73 117 73 37 0
-185 -308 -309 -430 -51 -49 -57 -76 -23 -108 l22 -21 209 175 c170 142 214
175 235 172 35 -4 37 -30 11 -115 -20 -65 -25 -72 -121 -158 -55 -49 -147
-139 -205 -198 -113 -118 -118 -130 -94 -219 21 -75 102 -137 180 -138 l35 0
82 168 c46 94 85 186 88 210 13 97 99 211 227 299 97 67 130 83 172 83 l34 0
-54 -142 -55 -142 24 -23 23 -24 132 46 c73 25 146 45 162 45 16 0 50 -10 75
-22 l45 -22 0 -137 c0 -327 -58 -568 -174 -728 -18 -25 -43 -66 -56 -90 l-22
-44 30 22 c100 70 201 226 255 389 47 141 67 256 74 429 l6 142 -83 86 c-83
85 -84 85 -134 85 -28 0 -84 -10 -124 -21 -40 -12 -74 -20 -77 -18 -2 3 7 47
20 99 14 52 25 107 25 121 0 29 -21 52 -64 68 -25 10 -40 6 -123 -34 -53 -25
-100 -45 -104 -45 -45 0 87 142 206 221 67 45 74 47 156 52 48 3 103 13 124
21 31 13 36 20 33 43 -4 40 -46 57 -143 57 -89 -1 -158 -18 -282 -71 -45 -19
-87 -32 -93 -28 -16 10 -11 68 9 101 22 36 72 76 116 92 17 6 104 29 193 51
90 22 189 52 220 66 l55 25 -33 35 c-19 19 -41 35 -49 35 -9 0 -108 -29 -221
-65 -112 -35 -205 -63 -205 -62 -1 1 -23 30 -48 64 -26 34 -47 68 -47 76 0 17
47 48 103 68 31 11 37 17 33 34 -18 75 -17 142 3 194 49 129 116 192 211 199
53 4 66 1 125 -32 60 -33 69 -35 93 -24 88 42 -40 141 -202 156 -54 5 -59 7
-71 36 -12 28 -11 33 6 49 16 15 19 32 19 123 0 107 -6 131 -43 172 -26 28
-43 28 -57 1z m-330 -1424 l0 -65 -82 -55 c-46 -30 -84 -51 -86 -46 -2 5 22
59 53 120 52 104 57 111 85 111 l30 0 0 -65z m-190 -664 c0 -20 -58 -179 -86
-235 -15 -32 -39 -66 -53 -74 -22 -15 -25 -15 -48 13 -28 32 -26 66 8 143 33
77 179 201 179 153z"/>
</g>
</svg>
