<?xml version="1.0" standalone="no"?>
<!DOCTYPE svg PUBLIC "-//W3C//DTD SVG 20010904//EN"
 "http://www.w3.org/TR/2001/REC-SVG-20010904/DTD/svg10.dtd">
<svg version="1.0" xmlns="http://www.w3.org/2000/svg"
 width="360.000000pt" height="360.000000pt" viewBox="0 0 360.000000 360.000000"
 preserveAspectRatio="xMidYMid meet">
<metadata>
Created by potrace 1.15, written by Peter Selinger 2001-2017
</metadata>
<g transform="translate(0.000000,360.000000) scale(0.100000,-0.100000)"
fill="#000000" stroke="none">
<path d="M2022 3027 c-8 -9 -8 -33 -2 -77 14 -95 12 -167 -5 -199 -38 -75
-279 -226 -348 -219 -29 3 -31 6 -44 73 -26 129 -81 222 -150 251 -44 19 -66
17 -81 -6 -10 -17 -9 -26 13 -59 33 -53 63 -147 70 -218 3 -32 8 -75 11 -95
l4 -38 -39 0 c-36 0 -40 3 -46 30 -4 17 -11 30 -15 30 -5 0 -21 -20 -36 -45
-25 -43 -26 -48 -12 -83 20 -54 62 -72 166 -72 l84 0 70 75 c73 78 180 165
204 165 25 0 16 -56 -18 -113 -30 -51 -37 -56 -85 -67 -74 -16 -103 -42 -103
-91 0 -46 27 -79 65 -79 24 0 25 -2 25 -64 l0 -63 -43 -17 c-24 -9 -57 -29
-73 -44 -19 -19 -68 -42 -143 -67 -117 -40 -164 -67 -155 -88 6 -18 58 -47 81
-47 10 0 81 23 157 50 76 28 141 50 145 50 4 0 3 -30 -3 -66 l-10 -66 -469
-235 c-429 -214 -472 -234 -494 -222 -19 10 -26 10 -43 -6 -11 -10 -20 -21
-20 -24 0 -3 21 -21 48 -39 77 -52 107 -47 281 47 80 43 219 115 308 160 278
139 395 180 421 149 9 -12 -13 -48 -122 -192 -280 -372 -577 -702 -816 -909
l-55 -48 25 -19 c15 -13 37 -19 57 -18 27 3 75 49 353 341 177 185 328 337
336 337 12 0 14 -31 14 -184 l0 -184 49 -41 c66 -55 104 -56 197 -1 89 52 162
79 234 87 54 5 60 3 104 -28 l47 -34 -8 -60 c-13 -105 -9 -131 22 -176 17 -23
47 -56 68 -72 31 -26 41 -29 64 -21 48 17 83 119 103 296 13 125 13 574 -1
657 -7 45 -7 67 1 75 33 33 -22 92 -126 136 -41 17 -86 33 -101 36 -17 3 -80
-9 -158 -30 -71 -20 -133 -36 -137 -36 -13 0 -9 21 11 48 10 15 21 39 25 54
24 101 217 193 549 263 130 28 168 30 184 14 9 -9 20 -9 43 1 23 10 34 10 43
1 6 -6 34 -11 62 -11 41 0 56 5 73 23 42 45 17 80 -67 93 -31 5 -59 20 -100
54 -94 79 -170 166 -196 225 -25 55 -25 55 -67 54 -43 0 -44 -1 -123 -106 -99
-130 -260 -301 -322 -342 -52 -34 -114 -57 -135 -48 -11 4 -12 21 -3 97 l10
92 85 25 c47 13 95 31 108 39 28 18 29 55 2 79 -18 17 -28 18 -93 8 -49 -6
-74 -6 -79 0 -3 6 -9 37 -13 69 -7 56 -5 61 45 155 92 173 193 293 246 293 12
0 66 -9 119 -20 120 -25 125 -25 125 0 0 14 -32 38 -118 90 l-118 70 -22 74
c-26 88 -62 136 -102 136 -15 0 -32 -6 -38 -13z m595 -1011 c-5 -17 -92 -42
-207 -60 -58 -9 -117 -19 -132 -21 -24 -4 -28 -1 -28 21 0 19 26 54 97 129
l98 103 88 -81 c48 -44 86 -85 84 -91z m-407 -574 c63 -45 89 -164 90 -411 0
-99 -17 -288 -27 -300 -2 -3 -26 21 -54 53 -73 82 -107 96 -224 96 -81 0 -102
-3 -135 -22 -21 -13 -42 -20 -45 -16 -18 17 106 180 219 287 40 39 44 56 19
83 -32 35 -119 13 -279 -71 l-94 -49 0 94 0 94 123 61 c67 33 141 74 163 89
26 17 50 26 65 23 13 -2 42 0 64 6 48 11 81 6 115 -17z m-386 -404 c-4 -7 -34
-46 -66 -85 -39 -48 -66 -73 -80 -73 -19 0 -20 5 -16 50 6 55 26 85 73 106 40
18 99 19 89 2z"/>
</g>
</svg>
