<?xml version="1.0" standalone="no"?>
<!DOCTYPE svg PUBLIC "-//W3C//DTD SVG 20010904//EN"
 "http://www.w3.org/TR/2001/REC-SVG-20010904/DTD/svg10.dtd">
<svg version="1.0" xmlns="http://www.w3.org/2000/svg"
 width="360.000000pt" height="360.000000pt" viewBox="0 0 360.000000 360.000000"
 preserveAspectRatio="xMidYMid meet">
<metadata>
Created by potrace 1.15, written by Peter Selinger 2001-2017
</metadata>
<g transform="translate(0.000000,360.000000) scale(0.100000,-0.100000)"
fill="#000000" stroke="none">
<path d="M1773 3161 c-31 -51 -13 -80 59 -95 15 -4 35 -17 44 -31 15 -23 15
-28 0 -59 -9 -19 -16 -43 -16 -53 0 -11 -14 -47 -31 -81 -38 -77 -106 -138
-216 -194 -105 -53 -112 -48 -123 76 -13 140 -66 216 -172 248 -62 18 -65 4
-25 -103 59 -158 90 -360 52 -345 -8 3 -36 8 -63 12 -44 5 -49 4 -61 -19 -19
-35 -6 -63 43 -92 45 -26 76 -31 92 -15 6 6 25 5 52 -2 l42 -10 78 63 c42 35
95 78 116 96 65 54 72 42 27 -41 -41 -74 -52 -131 -30 -153 18 -18 -65 -163
-94 -163 -7 0 -31 18 -52 40 -35 36 -44 40 -89 40 -46 0 -56 -5 -165 -86 -64
-48 -120 -91 -125 -95 -14 -12 23 -49 48 -49 30 1 101 35 157 76 27 19 53 33
59 29 5 -3 10 -32 10 -63 0 -47 -10 -82 -56 -194 -50 -123 -59 -138 -80 -138
-13 0 -24 1 -24 3 0 1 9 36 20 77 24 92 24 90 1 90 -64 0 -130 -238 -88 -319
27 -53 42 -51 112 19 l65 64 25 -24 c15 -14 25 -34 25 -52 0 -51 -310 -500
-445 -646 -64 -69 -146 -125 -153 -103 -6 19 -42 -18 -42 -44 0 -41 24 -50 78
-30 36 14 76 47 172 144 142 143 255 285 411 517 169 252 277 354 371 354 40
0 66 -22 51 -42 -218 -285 -273 -359 -273 -366 0 -18 67 -72 90 -72 33 1 93
29 154 74 88 63 78 45 -76 -137 -93 -109 -98 -117 -98 -161 0 -35 4 -46 16
-46 8 0 98 36 198 80 101 44 186 80 190 80 13 0 5 -71 -15 -136 -54 -176 -200
-391 -455 -670 -57 -63 -104 -117 -104 -120 0 -3 26 14 58 37 31 22 111 77
177 121 126 84 141 98 230 215 145 190 233 404 223 544 -3 39 -7 46 -38 61
-20 10 -73 21 -118 25 l-83 8 75 107 c42 59 76 113 76 120 0 7 -19 32 -42 55
-38 38 -47 43 -88 43 -25 0 -51 -5 -58 -12 -22 -22 -12 3 19 48 38 55 59 105
59 140 l0 27 83 -7 c192 -16 413 -70 655 -161 80 -30 150 -55 154 -55 4 0 8
13 8 29 0 64 -97 119 -328 186 -117 33 -435 105 -466 105 -9 0 -16 6 -16 13 1
6 20 118 44 247 48 258 48 277 -7 313 -36 23 -129 22 -202 -3 -77 -27 -95 -26
-95 3 0 49 92 147 178 191 87 44 139 54 224 43 70 -9 80 -8 98 8 42 38 14 105
-45 105 -16 0 -80 -10 -142 -22 -152 -30 -153 -28 -113 102 16 52 30 104 30
115 0 24 -60 85 -107 109 -18 9 -52 19 -75 22 -36 5 -45 2 -55 -15z m206 -742
l64 -22 -7 -96 c-13 -185 -53 -320 -108 -366 -43 -37 -75 -32 -125 17 -24 23
-43 46 -43 51 0 4 27 44 60 87 33 43 60 83 60 87 0 5 -22 30 -49 57 -35 34
-55 47 -72 44 -20 -3 -24 -12 -36 -79 -14 -88 -51 -195 -100 -293 -54 -108
-82 -146 -108 -146 -21 0 -24 7 -35 86 -10 67 -10 95 0 129 28 98 155 248 335
393 50 40 92 72 95 72 4 0 35 -10 69 -21z"/>
</g>
</svg>
