<?xml version="1.0" standalone="no"?>
<!DOCTYPE svg PUBLIC "-//W3C//DTD SVG 20010904//EN"
 "http://www.w3.org/TR/2001/REC-SVG-20010904/DTD/svg10.dtd">
<svg version="1.0" xmlns="http://www.w3.org/2000/svg"
 width="360.000000pt" height="360.000000pt" viewBox="0 0 360.000000 360.000000"
 preserveAspectRatio="xMidYMid meet">
<metadata>
Created by potrace 1.15, written by Peter Selinger 2001-2017
</metadata>
<g transform="translate(0.000000,360.000000) scale(0.100000,-0.100000)"
fill="#000000" stroke="none">
<path d="M1841 2916 l-23 -25 52 -60 c50 -58 52 -61 41 -94 -47 -142 -185
-227 -367 -227 l-71 0 -7 39 c-9 60 -62 121 -135 157 -65 33 -111 47 -111 33
0 -4 36 -50 80 -103 44 -52 80 -104 80 -116 0 -32 -74 -105 -132 -130 -29 -12
-82 -24 -125 -27 -40 -3 -75 -9 -78 -13 -2 -3 6 -19 19 -34 l22 -28 90 11 c51
7 113 23 146 38 64 29 88 22 88 -24 0 -31 17 -63 34 -63 30 0 56 45 56 98 0
48 2 52 28 57 15 3 61 18 102 32 80 27 170 41 170 26 0 -5 -5 -35 -11 -67 -10
-48 -19 -63 -56 -96 -64 -56 -274 -157 -345 -165 -31 -4 -65 -13 -75 -21 -17
-12 -16 -14 9 -41 l28 -27 78 11 c43 7 104 23 134 36 l56 25 21 -22 c19 -20
21 -34 21 -158 0 -134 -1 -137 -27 -169 -33 -39 -95 -68 -145 -69 l-38 0 0 98
0 98 -43 42 c-26 25 -52 42 -66 42 -22 0 -23 -3 -17 -37 3 -21 9 -108 12 -193
7 -171 -1 -266 -42 -482 l-26 -137 33 -40 c48 -58 84 -56 193 9 278 168 602
259 775 219 30 -7 47 -6 56 1 29 24 117 -49 130 -108 4 -21 -20 -110 -88 -328
l-95 -299 -38 -3 c-36 -3 -44 2 -104 63 -50 50 -71 65 -93 65 -27 0 -29 -2
-22 -27 11 -47 61 -116 134 -186 91 -88 104 -88 169 1 152 206 241 432 260
660 11 129 7 157 -34 197 -128 128 -581 96 -986 -70 -60 -25 -115 -45 -123
-45 -23 0 -27 19 -20 87 l7 65 56 -7 c55 -7 57 -6 318 111 l263 117 -24 41
c-14 23 -29 40 -34 39 -4 -1 -118 -59 -251 -129 l-243 -127 -29 32 c-22 24
-28 41 -28 75 l0 44 68 21 c37 11 122 47 187 79 66 32 149 66 185 76 36 9 93
26 128 37 57 19 62 23 62 49 0 34 -43 70 -83 70 -14 0 -72 -11 -128 -25 -56
-13 -106 -22 -110 -19 -13 8 -11 40 4 52 6 5 34 13 61 17 35 6 55 15 74 36 14
16 36 29 49 29 28 0 63 33 63 60 0 33 -81 27 -149 -10 -30 -17 -60 -30 -67
-30 -14 0 -31 47 -36 99 l-3 33 110 39 c212 75 196 67 193 106 -2 25 -10 39
-29 50 -25 15 -28 15 -57 -5 -16 -12 -44 -22 -61 -22 -28 0 -31 3 -31 30 0 43
34 104 85 156 l44 44 232 2 c270 3 276 6 220 77 -31 39 -36 41 -84 41 -29 -1
-83 -5 -122 -10 -49 -7 -84 -6 -118 2 -35 9 -50 9 -59 0 -7 -7 -17 -8 -30 -1
-22 12 -23 32 -3 49 19 16 19 63 1 98 -19 36 -62 75 -111 101 -51 27 -66 26
-94 -3z"/>
<path d="M1965 1115 c-79 -21 -152 -52 -262 -111 -90 -48 -109 -54 -161 -54
-77 0 -202 -33 -269 -70 -56 -32 -119 -39 -194 -21 -33 8 -38 6 -53 -20 -17
-28 -16 -30 5 -60 60 -84 215 -75 285 16 21 28 34 34 77 40 147 19 359 77 506
139 l64 27 52 -21 c50 -20 55 -21 120 -5 70 16 155 49 155 60 0 4 -16 27 -36
51 l-36 44 -102 -1 c-55 0 -123 -6 -151 -14z"/>
</g>
</svg>
