<?xml version="1.0" standalone="no"?>
<!DOCTYPE svg PUBLIC "-//W3C//DTD SVG 20010904//EN"
 "http://www.w3.org/TR/2001/REC-SVG-20010904/DTD/svg10.dtd">
<svg version="1.0" xmlns="http://www.w3.org/2000/svg"
 width="360.000000pt" height="360.000000pt" viewBox="0 0 360.000000 360.000000"
 preserveAspectRatio="xMidYMid meet">
<metadata>
Created by potrace 1.15, written by Peter Selinger 2001-2017
</metadata>
<g transform="translate(0.000000,360.000000) scale(0.100000,-0.100000)"
fill="#000000" stroke="none">
<path d="M1938 2964 c-14 -14 -14 -22 -2 -67 35 -130 0 -228 -106 -299 -56
-37 -166 -79 -258 -97 -85 -17 -90 -16 -102 32 -6 23 -43 95 -81 160 -68 114
-71 117 -105 117 -21 0 -37 -6 -40 -14 -3 -8 30 -96 74 -195 l80 -181 -95 -50
c-103 -54 -113 -56 -131 -38 -10 10 -18 6 -39 -15 l-27 -26 24 -26 c15 -16 34
-25 55 -25 17 0 127 42 251 96 120 53 249 109 287 124 l67 29 -14 -27 c-8 -15
-35 -62 -60 -105 -47 -79 -54 -101 -36 -112 27 -17 136 84 147 135 8 41 62
101 120 132 79 43 155 59 320 65 147 6 153 7 168 30 14 21 14 26 -2 53 -9 17
-24 30 -31 30 -8 0 -90 -10 -183 -21 -94 -12 -172 -20 -174 -17 -2 2 10 54 27
115 l31 112 -42 50 c-35 42 -49 51 -75 51 -17 0 -39 -7 -48 -16z"/>
<path d="M1945 2260 c-75 -19 -232 -85 -304 -127 -34 -20 -53 -24 -87 -20 -68
7 -76 -14 -18 -53 43 -31 46 -35 40 -68 -12 -77 -106 -224 -224 -353 -39 -43
-52 -64 -52 -88 0 -21 5 -31 15 -31 26 0 130 57 199 109 36 28 66 46 66 41 0
-5 -27 -134 -60 -286 -54 -250 -60 -288 -60 -394 0 -104 2 -120 21 -144 11
-14 26 -26 33 -26 7 0 87 35 177 79 221 106 268 121 378 121 85 0 91 1 110 26
12 15 21 30 21 34 0 11 -42 27 -123 45 -42 9 -77 19 -77 21 0 3 28 48 61 101
59 92 61 97 50 132 -19 62 -23 65 -74 53 -24 -7 -52 -14 -61 -18 -25 -10 -19
10 24 81 22 36 40 74 40 85 0 23 -36 50 -67 50 -20 0 -23 5 -23 35 0 31 6 38
63 76 34 23 64 44 66 46 3 2 -6 14 -19 28 -26 27 -77 34 -98 13 -10 -10 -20
-4 -49 25 l-38 37 70 70 c68 68 68 70 50 90 -34 38 -66 26 -202 -75 -70 -52
-136 -95 -145 -95 -47 0 14 133 92 203 86 77 134 90 352 95 l187 4 25 -27 c62
-66 93 -221 107 -525 5 -118 12 -235 14 -260 2 -25 11 -178 19 -340 11 -218
12 -311 5 -357 -6 -35 -14 -63 -18 -62 -3 0 -41 41 -84 90 -77 87 -102 104
-113 75 -8 -21 115 -273 155 -319 39 -44 71 -48 106 -13 32 32 65 143 72 241
6 97 -63 1132 -78 1158 -6 12 -7 23 -1 30 6 8 6 31 -1 64 -8 41 -8 58 2 77 11
20 11 34 1 78 -19 78 -82 139 -174 167 -90 28 -268 29 -371 1z m-115 -478 c0
-34 -4 -41 -39 -60 -21 -12 -48 -22 -59 -22 -20 0 -18 5 16 60 27 44 43 60 60
60 19 0 22 -5 22 -38z m-20 -194 c0 -17 -154 -138 -175 -138 -12 0 -16 8 -13
32 3 30 10 36 88 74 95 48 100 49 100 32z m0 -172 c0 -3 -41 -55 -91 -116 -85
-105 -90 -114 -87 -153 3 -47 4 -47 91 -33 45 7 47 6 47 -16 0 -17 -17 -35
-69 -70 -38 -27 -76 -48 -84 -48 -20 0 -67 140 -67 197 0 24 12 72 26 108 21
52 29 63 40 54 18 -15 69 3 130 46 45 32 64 41 64 31z"/>
<path d="M1225 1983 c37 -71 69 -130 71 -132 2 -2 13 4 25 15 24 21 20 63 -11
125 -23 45 -106 119 -132 119 -17 0 -10 -18 47 -127z"/>
<path d="M1074 1773 c32 -110 37 -138 29 -140 -7 -3 -7 -17 0 -41 8 -29 -1
-118 -45 -437 l-55 -400 20 -22 c25 -28 68 -30 90 -5 19 20 23 87 7 97 -7 4
-7 13 0 26 6 10 24 153 39 316 26 270 28 299 13 310 -14 11 -14 15 3 32 15 18
17 31 10 108 -8 105 -25 150 -60 163 -40 15 -57 13 -51 -7z"/>
</g>
</svg>
