<?xml version="1.0" standalone="no"?>
<!DOCTYPE svg PUBLIC "-//W3C//DTD SVG 20010904//EN"
 "http://www.w3.org/TR/2001/REC-SVG-20010904/DTD/svg10.dtd">
<svg version="1.0" xmlns="http://www.w3.org/2000/svg"
 width="360.000000pt" height="360.000000pt" viewBox="0 0 360.000000 360.000000"
 preserveAspectRatio="xMidYMid meet">
<metadata>
Created by potrace 1.15, written by Peter Selinger 2001-2017
</metadata>
<g transform="translate(0.000000,360.000000) scale(0.100000,-0.100000)"
fill="#000000" stroke="none">
<path d="M1819 2794 l-24 -26 28 -49 c71 -128 -1 -317 -151 -393 -43 -22 -139
-46 -183 -46 -14 0 -20 15 -29 73 -12 69 -15 75 -77 141 -36 38 -74 89 -85
112 -13 30 -25 44 -38 44 -11 0 -20 -1 -20 -3 0 -1 31 -96 70 -211 38 -115 67
-212 65 -216 -3 -4 -32 -18 -65 -30 -45 -17 -64 -20 -72 -12 -15 15 -37 -14
-38 -51 0 -22 4 -27 18 -24 9 3 47 10 83 17 l66 12 64 -65 c41 -41 76 -67 97
-72 29 -6 32 -10 32 -45 l0 -39 -144 -86 c-138 -82 -146 -85 -205 -85 -54 0
-61 -2 -61 -19 0 -11 12 -29 28 -41 22 -18 36 -21 74 -16 68 7 116 33 174 92
43 44 66 57 160 92 60 23 115 42 121 42 15 0 61 -56 81 -97 15 -33 15 -35 -23
-113 -38 -77 -39 -82 -28 -132 9 -46 8 -61 -13 -122 -30 -86 -30 -107 -1 -133
l22 -21 79 59 c149 114 226 146 226 94 0 -27 -107 -245 -121 -245 -5 0 -72 14
-149 31 l-141 31 -25 -23 c-13 -12 -24 -31 -24 -40 0 -19 7 -22 153 -55 67
-15 77 -20 77 -40 0 -33 -44 -56 -132 -67 -57 -8 -84 -7 -103 1 -28 13 -32 33
-10 52 12 10 5 22 -45 82 l-59 71 35 41 c138 159 129 144 109 166 -10 11 -26
20 -37 20 -10 0 -154 -91 -321 -202 -208 -139 -310 -202 -327 -201 -14 1 -33
-6 -42 -14 -16 -14 -15 -18 15 -54 19 -23 41 -39 54 -39 12 0 79 36 150 80
119 75 162 88 116 37 -11 -12 -104 -120 -206 -239 -138 -159 -187 -223 -187
-242 0 -21 5 -26 23 -26 36 0 258 234 462 487 42 52 55 62 82 62 32 1 32 0 25
-31 -4 -18 -7 -103 -7 -188 0 -150 1 -156 27 -201 62 -106 200 -164 448 -190
63 -6 154 -9 202 -5 170 11 401 75 586 162 91 42 94 45 87 71 -4 16 -33 145
-66 288 -32 143 -61 270 -64 283 -3 13 -13 22 -25 22 -11 0 -20 -1 -20 -2 0
-2 9 -49 20 -106 15 -77 20 -144 20 -267 l0 -164 -35 -26 c-73 -56 -273 -101
-585 -130 -281 -27 -404 -14 -473 52 -35 34 -47 79 -47 177 0 70 2 77 18 71
43 -16 75 -15 179 8 131 30 206 60 233 95 19 24 22 24 65 12 57 -16 168 -89
265 -174 58 -51 82 -66 107 -66 17 0 34 4 38 9 3 5 -9 33 -26 63 -102 172
-196 257 -286 258 -18 0 -33 2 -33 4 0 3 20 70 45 149 55 178 57 223 14 278
-17 21 -37 39 -45 39 -8 0 -62 -31 -119 -70 -57 -38 -109 -70 -115 -70 -5 0
-10 16 -10 35 0 31 7 41 77 96 181 143 396 269 462 269 54 0 109 18 121 40 19
35 10 56 -53 118 l-63 62 -136 0 c-104 0 -184 -7 -329 -30 -166 -27 -194 -29
-208 -17 -21 19 -72 35 -141 44 l-55 8 -3 50 -2 50 99 53 c55 28 102 52 106
52 19 0 -5 -84 -31 -111 -23 -24 -26 -33 -18 -47 19 -29 37 -19 73 43 50 86
137 168 206 194 56 21 136 26 185 12 34 -10 80 21 80 55 0 23 -3 24 -56 24
-30 0 -86 -5 -125 -11 -38 -7 -72 -9 -76 -5 -4 4 5 44 20 89 15 46 27 96 27
112 0 59 -55 137 -126 178 -6 4 -22 -5 -35 -19z m504 -817 l39 -32 -231 -123
c-127 -68 -238 -122 -248 -120 -15 3 -19 17 -24 78 -6 85 -13 106 -40 121 -60
32 38 67 259 94 178 21 201 20 245 -18z"/>
<path d="M994 1808 c-4 -6 -2 -14 4 -16 18 -6 16 -15 -33 -199 -48 -181 -53
-223 -30 -247 30 -30 53 -1 89 109 20 62 56 238 56 272 0 58 -64 117 -86 81z"/>
<path d="M1490 1637 c-30 -13 -101 -51 -157 -85 -89 -55 -105 -61 -122 -50
-17 10 -23 9 -41 -7 l-22 -20 27 -22 c14 -13 39 -23 55 -23 34 0 165 47 250
90 80 40 110 70 110 110 0 38 -22 39 -100 7z"/>
</g>
</svg>
