<?xml version="1.0" standalone="no"?>
<!DOCTYPE svg PUBLIC "-//W3C//DTD SVG 20010904//EN"
 "http://www.w3.org/TR/2001/REC-SVG-20010904/DTD/svg10.dtd">
<svg version="1.0" xmlns="http://www.w3.org/2000/svg"
 width="360.000000pt" height="360.000000pt" viewBox="0 0 360.000000 360.000000"
 preserveAspectRatio="xMidYMid meet">
<metadata>
Created by potrace 1.15, written by Peter Selinger 2001-2017
</metadata>
<g transform="translate(0.000000,360.000000) scale(0.100000,-0.100000)"
fill="#000000" stroke="none">
<path d="M1813 3200 c-60 -27 -125 -73 -214 -151 l-76 -68 -44 45 c-44 45 -82
57 -93 28 -12 -30 -6 -79 14 -111 24 -40 95 -93 124 -93 13 0 80 55 176 145
128 119 160 144 186 145 70 1 112 -101 62 -147 -13 -11 -117 -87 -233 -169
l-210 -149 -150 -48 c-333 -106 -553 -190 -569 -215 -3 -5 0 -16 7 -25 11 -14
29 -13 182 13 94 16 182 31 198 34 l27 6 0 -67 0 -67 -72 -71 c-40 -39 -95
-90 -122 -112 l-50 -41 12 -40 c7 -22 32 -63 57 -90 l45 -50 0 -98 c0 -139
-17 -312 -41 -424 -24 -109 -24 -127 -3 -229 28 -134 53 -174 84 -136 7 9 101
79 209 157 108 77 198 142 200 144 2 2 0 30 -6 61 -10 53 -8 64 22 154 l33 97
-32 31 c-28 27 -39 31 -86 31 -47 0 -63 -6 -115 -40 -79 -52 -142 -77 -157
-62 -18 18 88 116 149 138 49 17 51 20 156 189 92 147 107 178 107 214 0 40
-2 43 -42 61 -24 11 -55 20 -69 20 -16 0 -82 -36 -173 -95 -143 -92 -194 -113
-211 -84 -4 6 26 45 67 87 87 90 142 170 158 229 10 39 8 46 -16 83 -16 24
-23 44 -18 49 14 13 357 145 464 179 191 60 232 65 464 58 116 -3 225 -8 241
-11 26 -5 32 -2 43 21 17 38 15 47 -10 71 -59 53 -69 54 -279 33 -106 -11
-209 -20 -229 -20 -41 0 -110 18 -110 28 0 4 15 16 34 26 33 18 105 99 159
181 34 50 38 132 9 158 -28 26 -202 23 -259 -3z m-373 -1133 c0 -26 -111 -192
-160 -239 -35 -35 -56 -48 -78 -48 l-29 0 -6 83 c-3 45 -8 89 -12 97 -4 13 7
19 52 28 32 7 94 30 138 51 91 45 95 46 95 28z m-40 -530 c0 -29 -81 -172
-123 -216 -45 -47 -107 -91 -129 -91 -15 0 -18 8 -18 58 1 104 51 171 178 240
69 38 92 40 92 9z"/>
<path d="M1873 2611 c-26 -43 -8 -70 54 -80 31 -5 38 -11 50 -46 7 -22 23 -48
35 -58 l21 -18 -22 -23 c-22 -24 -179 -113 -238 -136 -28 -11 -36 -10 -63 10
l-30 21 0 -23 c0 -13 -5 -29 -11 -35 -7 -7 -9 -19 -5 -29 7 -17 49 -17 191 3
l49 6 -37 -49 c-21 -27 -55 -83 -75 -124 -34 -70 -37 -81 -37 -165 0 -49 3
-104 7 -120 6 -28 3 -33 -38 -59 -47 -30 -64 -52 -64 -85 0 -39 61 -27 215 44
78 36 145 65 149 65 22 0 -20 -43 -231 -236 -237 -215 -238 -216 -238 -257 0
-33 4 -43 18 -45 10 -2 123 44 251 102 128 58 238 106 243 106 16 0 35 -58 21
-62 -8 -3 -8 -20 0 -63 19 -91 14 -352 -13 -680 -21 -264 -22 -302 -9 -315 13
-13 17 -12 34 10 24 32 56 138 82 279 20 105 20 114 5 123 -15 8 -15 12 -3 31
8 12 19 49 25 82 15 77 13 411 -1 492 -20 112 20 178 135 221 99 37 290 54
356 31 29 -10 35 -9 62 17 35 34 37 53 5 83 l-24 23 -254 -26 c-140 -14 -262
-26 -271 -26 -12 0 -17 9 -17 32 0 28 16 49 121 154 129 130 133 137 94 188
-14 18 -20 19 -77 8 -34 -6 -64 -10 -66 -8 -2 3 17 34 41 71 41 61 44 70 35
97 -12 32 -60 68 -94 68 -12 0 -70 -18 -129 -40 -132 -49 -149 -51 -134 -12
22 57 110 131 272 226 66 39 97 63 97 75 0 37 -21 42 -136 30 -77 -9 -109 -9
-112 -1 -2 6 -16 28 -32 50 -31 43 -93 78 -155 87 -34 5 -42 3 -52 -14z m337
-514 c0 -23 -286 -297 -309 -297 -28 0 -27 10 10 82 39 78 127 170 192 203 56
27 107 33 107 12z m-130 -525 c0 -15 -56 -62 -73 -62 -24 0 -21 9 10 42 25 26
63 38 63 20z"/>
</g>
</svg>
