<?xml version="1.0" standalone="no"?>
<!DOCTYPE svg PUBLIC "-//W3C//DTD SVG 20010904//EN"
 "http://www.w3.org/TR/2001/REC-SVG-20010904/DTD/svg10.dtd">
<svg version="1.0" xmlns="http://www.w3.org/2000/svg"
 width="360.000000pt" height="360.000000pt" viewBox="0 0 360.000000 360.000000"
 preserveAspectRatio="xMidYMid meet">
<metadata>
Created by potrace 1.15, written by Peter Selinger 2001-2017
</metadata>
<g transform="translate(0.000000,360.000000) scale(0.100000,-0.100000)"
fill="#000000" stroke="none">
<path d="M1810 2960 c0 -12 18 -42 40 -67 37 -42 40 -51 40 -103 0 -77 -26
-115 -110 -158 -61 -30 -202 -71 -297 -86 l-42 -6 -38 72 c-71 136 -139 180
-192 125 -19 -21 -20 -26 -7 -36 25 -21 82 -113 95 -153 7 -21 10 -46 7 -55
-8 -24 -74 -64 -161 -98 -107 -42 -110 -48 -46 -95 26 -18 28 -18 126 6 55 13
105 24 111 24 7 0 17 -20 23 -45 11 -44 12 -45 51 -45 21 0 41 4 44 9 4 5 1
32 -5 61 -14 65 -4 77 103 131 120 60 179 51 128 -21 -30 -42 -70 -132 -70
-157 0 -17 6 -23 21 -23 41 0 88 40 115 95 81 173 242 248 472 222 86 -10 93
-9 107 9 21 28 18 44 -12 76 -26 27 -31 28 -122 28 -53 0 -116 -5 -140 -11
-24 -5 -46 -7 -49 -4 -3 3 0 62 6 131 6 69 9 131 6 139 -8 20 -81 46 -146 52
-55 5 -58 5 -58 -17z"/>
<path d="M1801 2264 l-124 -75 -69 2 c-39 1 -73 -2 -80 -9 -7 -7 -1 -38 22
-108 30 -89 32 -101 21 -146 -10 -44 -8 -56 12 -106 18 -48 26 -58 49 -60 23
-3 30 2 42 31 9 24 23 36 42 41 84 21 231 162 323 310 47 75 52 90 43 110 -10
22 -120 86 -146 86 -6 -1 -67 -35 -135 -76z m126 -81 c-8 -47 -66 -131 -130
-189 -43 -38 -56 -45 -86 -42 -35 3 -36 4 -50 65 -8 35 -13 65 -10 67 8 8 264
135 273 135 5 1 6 -16 3 -36z"/>
<path d="M1011 2067 c-15 -19 16 -59 59 -77 35 -14 34 -13 15 -50 -14 -26 -13
-33 2 -64 13 -29 19 -33 35 -25 10 5 29 31 42 58 24 47 24 49 8 82 -25 49
-138 103 -161 76z"/>
<path d="M2165 1876 c-33 -13 -98 -42 -144 -65 -78 -40 -84 -41 -101 -26 -15
13 -23 14 -39 5 -25 -13 -25 -18 -6 -90 9 -32 15 -100 15 -163 l0 -108 -41
-50 c-35 -41 -40 -51 -29 -64 7 -9 11 -17 9 -19 -2 -3 -42 -18 -88 -35 -46
-17 -112 -46 -148 -66 -67 -37 -133 -47 -133 -21 0 8 63 67 140 132 77 64 140
122 140 128 0 6 -4 26 -9 44 -8 25 -5 46 10 89 10 31 19 64 19 74 0 34 -33 89
-53 89 -28 0 -142 -48 -220 -91 -73 -41 -87 -45 -103 -29 -7 7 -74 -82 -208
-275 -108 -157 -202 -285 -208 -285 -6 0 -8 16 -4 43 3 23 8 101 12 173 l7
130 -36 48 c-48 62 -77 130 -84 194 -6 50 -7 52 -24 36 -19 -17 -39 -93 -39
-151 0 -26 10 -48 40 -85 22 -28 40 -59 40 -69 0 -10 -18 -165 -40 -344 -50
-404 -50 -402 -7 -443 32 -31 34 -32 50 -14 23 25 79 151 112 250 14 45 30 82
33 82 4 0 21 -9 37 -20 17 -11 39 -20 50 -20 33 0 153 62 257 133 136 93 164
89 133 -20 -9 -32 -36 -96 -61 -142 -24 -46 -44 -93 -44 -106 0 -20 35 -64 43
-54 2 2 37 63 79 135 52 92 77 146 82 180 9 69 47 128 98 152 58 27 128 35
128 16 0 -8 7 -75 16 -149 14 -121 14 -136 0 -158 -13 -19 -14 -26 -3 -41 10
-13 10 -39 2 -121 -6 -57 -14 -107 -17 -110 -14 -14 -87 30 -144 86 -60 59
-60 60 -78 40 -18 -20 -18 -22 10 -58 16 -21 70 -80 120 -132 79 -81 94 -92
115 -86 33 9 66 47 80 93 17 49 25 618 10 636 -36 43 141 100 454 146 111 17
148 18 226 10 52 -5 113 -10 137 -10 37 0 42 3 42 23 0 13 -13 35 -28 50 -35
34 -58 34 -462 7 -162 -11 -315 -20 -338 -20 l-44 0 20 33 c33 52 83 87 140
96 65 10 92 28 146 98 57 72 136 212 136 239 0 69 -97 93 -205 50z m37 -126
c-4 -33 -67 -125 -103 -150 -18 -14 -43 -20 -78 -20 l-51 0 0 41 c0 53 34 86
133 128 84 36 103 36 99 1z m-584 -182 c15 -19 -34 -133 -75 -175 -29 -28 -41
-34 -71 -31 -36 3 -37 4 -46 56 -13 74 0 96 76 132 68 32 100 37 116 18z
m-247 -253 c10 -71 20 -144 22 -162 l6 -32 -144 -76 -144 -76 -22 22 -22 22
109 219 109 219 35 -3 35 -3 16 -130z"/>
<path d="M2216 1042 c-3 -6 40 -50 96 -98 79 -66 107 -97 120 -130 24 -61 60
-113 81 -120 11 -3 27 2 38 12 64 58 -37 247 -166 309 -57 28 -158 44 -169 27z"/>
</g>
</svg>
