<?xml version="1.0" standalone="no"?>
<!DOCTYPE svg PUBLIC "-//W3C//DTD SVG 20010904//EN"
 "http://www.w3.org/TR/2001/REC-SVG-20010904/DTD/svg10.dtd">
<svg version="1.0" xmlns="http://www.w3.org/2000/svg"
 width="360.000000pt" height="360.000000pt" viewBox="0 0 360.000000 360.000000"
 preserveAspectRatio="xMidYMid meet">
<metadata>
Created by potrace 1.15, written by Peter Selinger 2001-2017
</metadata>
<g transform="translate(0.000000,360.000000) scale(0.100000,-0.100000)"
fill="#000000" stroke="none">
<path d="M1098 2639 c-16 -11 -28 -26 -28 -32 1 -7 36 -32 78 -57 l77 -45 3
-55 c6 -91 -19 -450 -34 -493 -22 -62 -98 -160 -171 -222 -95 -79 -200 -147
-220 -143 -21 4 -57 65 -80 136 -15 47 -20 52 -45 52 -28 0 -29 -1 -24 -42 3
-24 8 -70 12 -102 8 -78 39 -194 74 -281 16 -38 34 -96 40 -128 20 -101 91
-157 196 -157 23 0 49 8 64 20 15 12 41 20 64 20 l39 0 -9 -72 c-13 -103 -10
-344 5 -404 19 -79 40 -96 114 -92 l62 3 27 55 c15 30 72 147 127 260 55 113
114 224 131 248 28 37 37 43 63 40 28 -3 32 -8 42 -46 5 -23 17 -47 25 -52 33
-21 90 -10 178 34 104 52 224 96 391 142 116 32 134 34 276 34 142 0 153 -1
171 -21 56 -62 152 -76 182 -26 l17 28 -70 64 -70 64 -125 1 c-85 0 -130 -4
-138 -12 -9 -9 -15 -9 -24 0 -7 7 -37 12 -68 12 -31 0 -61 -5 -68 -12 -9 -9
-12 -9 -12 0 0 7 -9 12 -20 12 -11 0 -20 3 -20 6 0 3 63 114 141 246 77 131
143 246 146 254 9 25 -114 144 -149 144 -19 0 -65 -27 -146 -86 -131 -95 -100
-88 -273 -68 l-55 6 -91 -139 c-113 -172 -256 -412 -459 -768 l-157 -275 -40
0 -39 0 7 132 c15 281 21 325 55 395 40 80 139 181 249 254 67 44 81 58 81 80
0 28 -32 63 -67 74 -14 4 -23 14 -23 26 0 11 52 89 117 175 l116 155 -30 42
c-18 24 -41 43 -54 45 -12 2 -89 -18 -171 -44 -81 -26 -150 -45 -154 -41 -3 3
4 123 16 267 l22 261 -26 34 c-38 49 -88 84 -142 101 -61 18 -74 17 -106 -7z
m451 -713 c8 -10 -2 -33 -45 -102 -66 -105 -205 -294 -216 -294 -10 0 -10 -3
2 102 12 106 41 187 83 235 52 59 149 92 176 59z m896 -141 c-14 -36 -36 -95
-50 -132 -14 -36 -42 -87 -63 -112 -168 -205 -338 -333 -482 -362 -52 -11 -59
-10 -139 22 -90 37 -114 59 -63 59 28 0 34 8 77 86 73 136 201 346 233 384
l30 35 68 -20 c38 -10 86 -19 106 -18 44 1 145 47 203 91 24 19 52 31 72 31
l32 1 -24 -65z m-1266 -59 c8 -10 9 -32 1 -82 -5 -38 -10 -109 -10 -159 0 -81
-3 -95 -29 -140 -16 -28 -49 -69 -74 -92 -43 -40 -114 -71 -128 -55 -8 9 -29
175 -29 234 0 44 4 50 115 177 64 72 122 131 129 131 8 0 19 -6 25 -14z"/>
</g>
</svg>
