<?xml version="1.0" standalone="no"?>
<!DOCTYPE svg PUBLIC "-//W3C//DTD SVG 20010904//EN"
 "http://www.w3.org/TR/2001/REC-SVG-20010904/DTD/svg10.dtd">
<svg version="1.0" xmlns="http://www.w3.org/2000/svg"
 width="360.000000pt" height="360.000000pt" viewBox="0 0 360.000000 360.000000"
 preserveAspectRatio="xMidYMid meet">
<metadata>
Created by potrace 1.15, written by Peter Selinger 2001-2017
</metadata>
<g transform="translate(0.000000,360.000000) scale(0.100000,-0.100000)"
fill="#000000" stroke="none">
<path d="M1272 2647 c-23 -23 -42 -46 -42 -50 0 -4 12 -7 28 -7 33 0 85 -31
106 -63 9 -13 21 -49 27 -80 10 -48 9 -58 -4 -72 -9 -8 -19 -32 -22 -53 -3
-20 -8 -46 -10 -56 -2 -11 1 -26 6 -33 11 -12 5 -79 -9 -99 -16 -24 -324 -284
-336 -284 -8 0 -17 16 -21 37 -9 50 -63 103 -104 103 -37 0 -38 10 16 -170 44
-147 93 -249 146 -305 51 -53 82 -62 164 -45 35 7 66 11 68 9 2 -2 -9 -102
-24 -222 l-27 -217 38 0 c45 0 47 -10 12 -56 l-26 -34 23 -20 c46 -39 67 -25
154 102 120 173 211 292 278 365 80 85 86 88 128 58 18 -14 40 -25 48 -25 9 0
81 58 161 129 81 72 146 123 148 116 5 -21 -54 -163 -103 -249 -71 -125 -178
-260 -327 -412 -125 -128 -159 -174 -126 -174 18 0 98 49 164 101 125 98 305
310 457 536 45 67 87 122 93 123 17 0 27 -197 28 -535 1 -249 -1 -285 -17
-328 -10 -26 -24 -47 -32 -47 -7 0 -58 47 -114 105 -105 109 -141 130 -141 79
0 -29 0 -29 157 -242 104 -140 115 -152 134 -141 47 24 88 170 108 379 7 72 3
203 -16 547 -21 361 -24 455 -14 467 7 8 63 40 125 70 62 31 125 67 141 82
l28 26 -25 25 c-23 22 -28 24 -65 14 -22 -6 -59 -24 -81 -41 -59 -42 -82 -40
-82 8 0 20 5 53 10 72 9 30 6 46 -21 113 -33 81 -51 100 -74 76 -11 -11 -11
-25 -3 -68 14 -67 -3 -205 -32 -260 -32 -62 -170 -187 -319 -290 -78 -54 -108
-64 -96 -33 4 9 13 67 20 129 16 127 27 174 62 258 76 180 227 339 443 465 39
23 70 47 70 54 0 7 -9 21 -20 31 -19 17 -25 17 -182 -14 -159 -32 -201 -34
-300 -15 -25 5 -28 3 -28 -21 0 -40 47 -80 108 -94 29 -6 60 -11 67 -11 29 0
14 -31 -43 -93 -153 -166 -228 -314 -258 -511 -17 -115 -45 -177 -134 -295
-105 -139 -410 -444 -427 -427 -7 7 14 257 29 336 14 77 63 163 122 217 47 43
174 113 203 113 8 0 13 13 13 35 0 41 -27 73 -70 82 -17 3 -30 11 -30 17 0 6
52 67 115 136 114 124 115 125 112 170 -2 44 -3 45 -38 48 -54 5 -177 -24
-245 -58 -81 -40 -88 -39 -81 8 3 20 11 87 17 147 12 109 12 111 -14 180 -52
135 -115 162 -194 82z m353 -505 c0 -14 -183 -222 -196 -222 -14 0 -11 68 5
98 19 36 70 83 126 115 46 27 65 30 65 9z m-295 -226 c0 -8 -4 -18 -10 -21
-14 -8 -13 -88 1 -102 21 -21 -125 -203 -163 -203 -7 0 -22 10 -35 22 -20 18
-23 31 -23 90 0 68 0 69 48 120 78 84 182 138 182 94z"/>
</g>
</svg>
