<?xml version="1.0" standalone="no"?>
<!DOCTYPE svg PUBLIC "-//W3C//DTD SVG 20010904//EN"
 "http://www.w3.org/TR/2001/REC-SVG-20010904/DTD/svg10.dtd">
<svg version="1.0" xmlns="http://www.w3.org/2000/svg"
 width="360.000000pt" height="360.000000pt" viewBox="0 0 360.000000 360.000000"
 preserveAspectRatio="xMidYMid meet">
<metadata>
Created by potrace 1.15, written by Peter Selinger 2001-2017
</metadata>
<g transform="translate(0.000000,360.000000) scale(0.100000,-0.100000)"
fill="#000000" stroke="none">
<path d="M2063 2518 c-13 -13 -23 -27 -23 -31 0 -4 10 -7 23 -7 28 -1 102 -34
144 -66 l32 -25 -19 -32 c-25 -40 -25 -69 -2 -90 17 -15 22 -14 85 28 l67 45
0 54 c0 48 -3 57 -30 80 -37 31 -114 56 -195 63 -54 5 -62 3 -82 -19z"/>
<path d="M1198 2499 c-16 -11 -28 -29 -28 -40 0 -12 9 -20 28 -24 42 -9 73
-28 96 -58 20 -27 21 -43 24 -275 l3 -247 -152 -100 c-83 -55 -168 -119 -189
-141 l-39 -42 -93 68 c-89 65 -93 67 -102 46 -5 -11 -8 -24 -8 -28 1 -5 43
-81 94 -170 55 -98 95 -180 100 -207 9 -50 30 -84 70 -114 31 -23 137 -34 190
-19 l36 10 4 -192 c3 -181 4 -193 28 -234 26 -46 85 -91 100 -76 5 5 95 160
200 344 105 184 193 337 195 339 3 2 24 -1 47 -7 36 -9 44 -9 52 5 4 9 48 68
96 132 220 292 434 461 619 490 50 8 71 7 98 -4 l35 -15 -24 -32 c-29 -42
-320 -348 -426 -450 -44 -42 -81 -81 -83 -87 -3 -8 -22 -8 -64 -1 -94 15 -107
14 -103 -12 2 -15 16 -29 37 -39 19 -9 38 -25 42 -37 4 -11 1 -62 -8 -114 -11
-67 -14 -135 -10 -241 4 -139 7 -153 34 -205 34 -67 84 -105 169 -127 64 -17
177 -18 262 -2 39 7 73 7 120 -2 47 -9 68 -9 70 -2 2 6 18 11 35 11 18 0 49 5
69 11 46 12 59 46 34 84 -42 63 -149 79 -326 46 -68 -13 -156 -21 -217 -21
l-103 0 -20 32 c-30 50 -45 153 -31 229 11 63 12 65 98 143 194 175 283 279
283 328 0 33 -31 68 -60 68 -11 0 -20 3 -20 8 0 4 92 99 205 212 113 113 205
209 205 213 0 5 -19 31 -42 59 l-43 50 -145 -4 c-129 -4 -152 -7 -208 -31
-108 -45 -228 -133 -374 -275 -130 -127 -140 -134 -156 -119 -15 16 -14 28 26
190 23 94 42 178 42 185 0 7 -11 17 -25 24 -28 13 -55 -3 -55 -32 0 -10 -8
-28 -19 -41 l-19 -23 -82 52 -83 53 -49 -11 c-26 -7 -75 -30 -108 -51 -55 -35
-107 -49 -123 -33 -3 4 1 20 10 37 13 26 15 53 10 152 -9 209 -52 331 -130
368 -45 22 -66 21 -99 -4z m512 -606 c0 -16 -122 -166 -204 -250 -85 -89 -126
-114 -126 -75 0 48 24 153 44 198 25 54 75 101 128 121 35 12 158 17 158 6z
m107 -180 c-18 -211 -196 -527 -455 -807 l-45 -49 7 119 c9 156 20 234 41 279
29 60 102 132 198 195 139 91 128 78 116 133 -13 58 -7 86 26 125 20 24 96 72
114 72 2 0 1 -30 -2 -67z m-521 -95 c-16 -80 -17 -107 -7 -143 l10 -38 -97
-101 c-53 -56 -101 -101 -107 -101 -18 0 -46 73 -66 171 -11 53 -17 103 -14
112 9 28 71 64 173 98 53 18 101 33 106 34 5 0 6 -15 2 -32z m1094 -190 c0 -7
-39 -62 -87 -122 l-87 -109 -23 27 c-37 43 -32 94 15 138 60 59 182 103 182
66z"/>
</g>
</svg>
