<?xml version="1.0" standalone="no"?>
<!DOCTYPE svg PUBLIC "-//W3C//DTD SVG 20010904//EN"
 "http://www.w3.org/TR/2001/REC-SVG-20010904/DTD/svg10.dtd">
<svg version="1.0" xmlns="http://www.w3.org/2000/svg"
 width="360.000000pt" height="360.000000pt" viewBox="0 0 360.000000 360.000000"
 preserveAspectRatio="xMidYMid meet">
<metadata>
Created by potrace 1.15, written by Peter Selinger 2001-2017
</metadata>
<g transform="translate(0.000000,360.000000) scale(0.100000,-0.100000)"
fill="#000000" stroke="none">
<path d="M1145 2700 c-17 -19 -17 -21 15 -57 78 -89 107 -227 89 -426 -16
-184 -5 -163 -139 -278 -66 -56 -120 -109 -120 -116 0 -26 28 -24 100 6 40 17
74 31 76 31 7 0 64 -119 64 -134 0 -33 -86 -183 -135 -233 -67 -69 -80 -69
-95 5 -53 264 -158 432 -270 432 -32 0 -24 -30 24 -89 55 -67 104 -167 116
-237 6 -30 14 -79 20 -110 12 -69 41 -111 94 -135 46 -21 116 -25 134 -7 21
21 26 -20 16 -143 -11 -132 -2 -253 24 -333 15 -46 20 -51 50 -54 22 -2 41 3
54 14 42 39 164 277 374 729 83 178 95 200 118 203 23 3 26 0 26 -29 0 -67
-137 -552 -217 -769 -44 -120 -132 -305 -173 -364 -25 -38 -29 -49 -20 -66 31
-57 108 18 190 185 71 145 131 309 217 595 35 118 67 218 71 222 4 4 95 44
202 89 209 87 222 89 228 30 11 -107 -122 -366 -347 -679 -44 -63 -81 -122
-81 -131 0 -19 30 -51 47 -51 6 0 56 43 111 95 99 94 135 113 146 78 3 -10 15
-61 27 -113 26 -114 64 -225 91 -262 12 -18 28 -28 45 -28 37 0 127 55 167
101 96 113 176 337 231 648 l25 144 -43 71 c-40 65 -46 71 -85 78 -53 9 -123
47 -182 98 l-45 39 45 45 c45 45 45 45 195 76 83 18 175 41 205 53 52 21 55
24 55 57 0 34 -1 35 -44 38 -83 6 -294 -49 -481 -125 -47 -19 -170 -77 -274
-129 -104 -52 -191 -92 -194 -89 -3 3 5 118 18 256 l23 251 -36 35 c-24 25
-41 34 -52 29 -15 -5 -16 -14 -10 -59 11 -70 7 -138 -12 -222 -13 -60 -22 -76
-57 -110 -26 -25 -89 -119 -165 -248 -151 -258 -280 -461 -321 -507 l-31 -35
5 135 c6 192 36 279 127 375 27 28 71 62 99 75 27 13 50 26 50 30 0 4 -8 31
-19 61 l-18 55 108 124 c62 71 109 134 109 146 0 58 -121 101 -257 90 -45 -3
-89 -9 -98 -12 -15 -6 -15 0 -8 57 14 111 8 318 -11 368 -21 56 -59 107 -100
132 -40 24 -68 24 -91 -1z m375 -643 c0 -32 -65 -139 -121 -201 -33 -36 -65
-66 -70 -66 -12 0 -11 96 1 141 15 53 51 102 90 121 42 22 100 24 100 5z
m1000 -535 l85 -29 3 -84 c6 -156 -29 -299 -113 -457 -52 -97 -141 -222 -159
-222 -11 0 -140 336 -139 364 0 13 186 398 209 433 8 13 18 23 22 23 4 0 46
-13 92 -28z"/>
<path d="M2345 2536 c-34 -12 -91 -39 -127 -59 -53 -30 -85 -40 -150 -48 -184
-22 -224 -54 -126 -99 70 -32 168 -21 212 23 16 16 58 31 140 50 142 32 226
68 226 95 0 10 -10 28 -23 40 -30 28 -74 28 -152 -2z"/>
</g>
</svg>
