<?xml version="1.0" standalone="no"?>
<!DOCTYPE svg PUBLIC "-//W3C//DTD SVG 20010904//EN"
 "http://www.w3.org/TR/2001/REC-SVG-20010904/DTD/svg10.dtd">
<svg version="1.0" xmlns="http://www.w3.org/2000/svg"
 width="360.000000pt" height="360.000000pt" viewBox="0 0 360.000000 360.000000"
 preserveAspectRatio="xMidYMid meet">
<metadata>
Created by potrace 1.15, written by Peter Selinger 2001-2017
</metadata>
<g transform="translate(0.000000,360.000000) scale(0.100000,-0.100000)"
fill="#000000" stroke="none">
<path d="M1950 2813 c-41 -16 -39 -53 5 -113 l35 -48 0 -228 -1 -229 -106 -82
c-64 -50 -115 -83 -129 -83 -25 0 -33 23 -13 36 7 4 10 29 7 66 -3 46 -10 64
-29 84 l-25 25 -48 -38 -49 -38 7 -99 c4 -55 10 -111 12 -125 5 -23 -2 -33
-53 -73 -55 -43 -59 -50 -87 -134 -77 -240 -210 -537 -310 -694 l-55 -85 -17
40 c-16 37 -16 48 0 160 9 66 19 140 22 165 13 112 103 229 223 289 33 17 61
35 61 40 0 4 -5 22 -11 39 -9 27 -7 40 15 88 15 31 42 79 61 105 19 27 35 55
35 62 0 7 -22 35 -49 61 l-50 49 -88 -7 c-48 -4 -99 -8 -113 -9 -21 -2 -25 3
-28 29 -2 17 4 61 12 97 18 78 6 141 -38 205 -31 45 -106 102 -133 102 -31 0
-65 -43 -61 -76 2 -22 12 -33 41 -47 57 -27 80 -85 81 -207 1 -52 -3 -120 -7
-150 l-8 -55 -105 -84 -105 -83 -82 49 c-76 45 -85 49 -114 39 l-32 -11 28
-37 c73 -97 120 -257 128 -435 l6 -123 36 0 c24 1 58 14 101 40 37 23 68 36
73 31 9 -9 12 -128 7 -306 -3 -117 13 -229 40 -273 16 -26 26 -32 56 -32 l35
0 64 133 c76 160 197 461 295 732 40 110 76 204 80 208 4 5 26 -1 48 -12 23
-12 47 -21 55 -21 7 0 71 59 141 130 121 123 165 155 153 111 -2 -10 -106
-151 -231 -314 -209 -274 -226 -299 -226 -337 0 -27 5 -43 15 -46 23 -9 115
40 207 111 46 35 85 62 86 60 10 -9 -34 -112 -78 -185 -64 -107 -139 -199
-282 -346 -65 -67 -118 -126 -118 -131 0 -5 9 -18 19 -27 15 -13 24 -15 38 -8
34 18 292 290 376 397 45 56 101 139 125 184 35 66 48 81 67 81 23 0 23 -3 31
-137 14 -216 11 -615 -3 -620 -6 -2 -66 65 -133 149 -116 146 -150 176 -158
136 -4 -21 81 -193 141 -286 55 -84 154 -192 177 -192 27 0 48 31 64 95 27
108 48 348 33 373 -5 6 -4 12 0 12 5 0 4 57 -2 126 -10 120 -9 128 10 162 18
31 26 36 50 34 15 -2 122 -34 236 -72 219 -72 387 -146 453 -199 64 -51 125
-36 111 28 -25 113 -250 227 -505 257 -169 19 -294 41 -336 59 l-34 14 0 144
0 145 193 123 c105 67 194 124 196 126 2 1 -4 12 -14 23 -30 33 -73 25 -209
-41 l-126 -61 -20 23 c-13 17 -19 39 -20 72 0 47 4 54 105 182 58 74 105 140
105 148 0 45 -81 62 -131 26 -16 -11 -39 -19 -52 -17 -22 3 -22 3 -27 248 -3
135 -7 246 -8 247 -1 2 -20 14 -41 27 -44 28 -78 38 -101 29z m-630 -901 c0
-16 -19 -56 -46 -97 -59 -89 -83 -115 -106 -115 -15 0 -18 9 -18 62 l0 62 57
58 c43 43 65 58 85 58 24 0 28 -4 28 -28z m657 -127 c11 -33 9 -35 -41 -83
-51 -48 -88 -72 -133 -86 -19 -6 -23 -4 -23 15 0 15 29 51 85 106 46 45 88 83
93 83 5 0 13 -16 19 -35z m-939 -117 c-7 -109 -25 -164 -66 -205 -45 -45 -70
-41 -99 17 -30 59 -30 115 1 161 28 40 121 108 150 109 17 0 18 -6 14 -82z"/>
</g>
</svg>
