<?xml version="1.0" standalone="no"?>
<!DOCTYPE svg PUBLIC "-//W3C//DTD SVG 20010904//EN"
 "http://www.w3.org/TR/2001/REC-SVG-20010904/DTD/svg10.dtd">
<svg version="1.0" xmlns="http://www.w3.org/2000/svg"
 width="360.000000pt" height="360.000000pt" viewBox="0 0 360.000000 360.000000"
 preserveAspectRatio="xMidYMid meet">
<metadata>
Created by potrace 1.15, written by Peter Selinger 2001-2017
</metadata>
<g transform="translate(0.000000,360.000000) scale(0.100000,-0.100000)"
fill="#000000" stroke="none">
<path d="M2225 2810 c-4 -6 8 -35 25 -65 l32 -55 -28 -48 c-63 -109 -174 -262
-239 -331 l-71 -73 -89 37 c-108 44 -114 49 -92 73 14 15 17 40 18 123 0 57 4
129 9 159 9 62 7 65 -73 132 -37 31 -53 39 -72 34 -14 -4 -25 -11 -25 -17 0
-5 23 -43 50 -85 48 -71 50 -76 41 -112 -10 -36 -31 -275 -31 -352 0 -33 -8
-42 -124 -138 -107 -87 -130 -102 -161 -102 l-35 0 55 82 c30 46 55 88 55 93
0 6 -15 25 -32 43 l-33 31 -139 -35 c-76 -19 -140 -33 -142 -31 -2 2 -9 58
-15 125 -8 92 -8 135 1 171 16 68 -1 120 -63 187 -53 59 -82 67 -112 34 -20
-22 -23 -16 57 -112 l48 -56 -2 -233 -3 -233 -32 -8 c-18 -5 -48 -27 -71 -53
-22 -25 -45 -45 -51 -45 -6 0 -51 13 -101 29 l-90 29 0 -23 c0 -13 21 -49 48
-82 34 -41 52 -74 61 -113 35 -143 96 -250 155 -271 20 -7 36 -18 36 -24 0 -7
-11 -92 -25 -191 -14 -98 -25 -185 -25 -191 0 -7 16 -31 36 -53 59 -65 69 -60
159 93 102 174 256 406 289 436 14 14 26 23 26 20 0 -2 -14 -53 -30 -114 -44
-163 -40 -205 22 -205 20 0 48 16 89 50 33 28 67 50 75 50 11 0 14 -22 14
-118 0 -92 4 -123 16 -141 l16 -22 24 22 c24 22 24 25 24 222 l0 199 153 159
c83 87 158 159 165 159 15 0 15 -13 -3 -135 -19 -128 -42 -216 -73 -288 -24
-56 -24 -58 -6 -78 13 -14 28 -19 53 -17 l34 3 17 100 c36 217 103 346 204
394 62 30 103 28 119 -6 8 -21 13 -160 15 -512 l3 -484 -36 -207 c-20 -115
-35 -219 -33 -231 13 -95 129 130 148 285 4 39 3 67 -4 78 -8 13 -7 21 2 30 9
9 12 146 12 584 l0 572 46 31 c60 39 185 81 337 111 31 6 57 17 57 23 0 7 -11
25 -24 42 l-24 29 -189 -43 -188 -44 -42 22 c-50 25 -105 27 -127 5 -9 -8 -16
-32 -16 -52 -1 -47 -32 -116 -62 -136 -61 -39 -98 -30 -98 25 0 44 -39 183
-55 195 -8 6 -15 20 -15 31 0 11 79 131 175 266 96 136 175 253 175 260 0 17
-46 60 -87 81 -36 18 -98 21 -108 6z m-270 -653 c69 -42 70 -43 73 -89 5 -82
-60 -176 -184 -264 -99 -71 -98 -72 -92 119 6 180 20 237 67 262 41 22 62 18
136 -28z m-723 -109 c-7 -7 -12 -19 -12 -29 0 -23 -32 -60 -69 -82 l-31 -18 0
56 c0 55 0 56 47 85 42 27 49 28 62 15 12 -12 13 -17 3 -27z m358 -113 c0 -68
-45 -139 -126 -199 -35 -26 -131 -141 -382 -460 -12 -16 -25 -26 -28 -23 -12
12 14 257 30 282 9 13 16 35 16 47 1 30 32 99 66 143 52 69 187 155 344 221
74 31 80 30 80 -11z m-544 -25 c7 -19 8 -36 3 -38 -4 -2 -11 -31 -15 -65 -6
-54 -12 -66 -42 -94 -20 -18 -41 -33 -47 -33 -12 0 -75 173 -75 205 0 16 14
24 68 42 37 11 74 20 82 19 8 -1 20 -17 26 -36z m594 -233 c0 -25 -9 -42 -35
-67 -32 -31 -35 -32 -35 -13 0 43 38 113 62 113 4 0 8 -15 8 -33z"/>
</g>
</svg>
