<?xml version="1.0" standalone="no"?>
<!DOCTYPE svg PUBLIC "-//W3C//DTD SVG 20010904//EN"
 "http://www.w3.org/TR/2001/REC-SVG-20010904/DTD/svg10.dtd">
<svg version="1.0" xmlns="http://www.w3.org/2000/svg"
 width="360.000000pt" height="360.000000pt" viewBox="0 0 360.000000 360.000000"
 preserveAspectRatio="xMidYMid meet">
<metadata>
Created by potrace 1.15, written by Peter Selinger 2001-2017
</metadata>
<g transform="translate(0.000000,360.000000) scale(0.100000,-0.100000)"
fill="#000000" stroke="none">
<path d="M1551 2966 c-6 -7 -9 -20 -6 -28 14 -36 159 -88 245 -88 41 0 41 1
38 33 -5 48 -50 67 -224 91 -29 4 -45 2 -53 -8z"/>
<path d="M977 2792 c-23 -25 -21 -35 8 -78 38 -56 56 -127 62 -249 8 -154 -2
-183 -86 -265 -37 -36 -90 -77 -118 -92 l-49 -27 -52 34 c-60 41 -81 43 -111
11 l-22 -23 87 -164 c47 -90 107 -195 132 -233 l45 -68 49 6 c26 4 56 10 64
13 15 6 16 -3 8 -83 -21 -215 4 -334 71 -334 18 0 38 24 102 123 111 169 142
223 216 372 68 136 87 185 69 185 -6 0 -84 -106 -174 -235 -90 -129 -169 -235
-175 -235 -10 0 -13 40 -13 166 l0 166 36 49 c51 70 161 149 207 149 8 0 27
28 41 63 34 76 71 127 94 127 14 0 26 -27 55 -113 20 -62 37 -124 37 -137 0
-14 -16 -154 -37 -313 l-37 -287 32 -33 33 -32 210 218 c116 119 217 217 225
217 8 0 31 -16 53 -35 45 -41 51 -42 79 -12 19 20 22 35 22 98 0 95 -11 108
-59 68 -19 -16 -40 -29 -47 -29 -18 0 -52 43 -78 101 l-26 56 29 64 c34 76 79
231 121 420 31 142 35 176 22 196 -12 19 -95 52 -145 59 -55 8 -113 -19 -294
-138 -123 -80 -141 -101 -109 -127 25 -21 128 28 285 136 52 36 69 43 92 38
46 -10 51 -30 39 -162 -17 -183 -36 -251 -79 -292 -117 -109 -207 -170 -252
-171 -12 0 -20 23 -33 93 -31 161 -52 211 -93 223 -2 0 3 15 9 32 12 30 10 34
-27 72 -50 51 -85 52 -212 8 l-92 -32 -26 24 c-22 20 -25 32 -25 89 0 79 -15
178 -36 243 -27 83 -89 122 -127 80z m343 -472 c0 -5 13 -10 29 -10 29 0 29 0
20 -41 -5 -22 -19 -60 -30 -82 -27 -53 -183 -207 -209 -207 -19 0 -20 7 -20
100 0 98 0 100 33 136 34 40 141 114 164 114 7 0 13 -4 13 -10z m-297 -217 c3
-5 1 -52 -4 -106 -10 -120 -43 -202 -84 -213 -15 -4 -30 -3 -34 2 -4 5 -31 66
-58 136 l-51 126 48 7 c26 4 65 17 86 30 38 24 88 33 97 18z m804 -195 c58
-25 73 -47 73 -107 0 -51 -4 -61 -50 -122 -47 -63 -199 -204 -241 -223 -10 -5
-22 -6 -26 -2 -10 9 14 192 36 269 42 153 120 222 208 185z"/>
<path d="M2480 2584 c-74 -52 -141 -98 -147 -101 -7 -3 -38 5 -68 18 l-56 23
-27 -27 -27 -27 27 -49 28 -48 0 -294 c1 -162 5 -379 11 -483 7 -137 7 -192
-1 -202 -9 -10 -9 -27 0 -67 9 -39 11 -163 6 -473 -3 -230 -9 -447 -12 -481
-5 -58 -4 -63 14 -63 17 0 22 13 36 109 47 301 71 721 48 841 -7 38 -7 59 0
67 7 9 7 46 -1 120 -15 145 -15 325 1 341 9 9 9 15 0 24 -9 9 -12 74 -12 232
0 187 -2 222 -16 237 -15 17 -13 22 37 75 30 31 81 76 114 99 68 48 174 109
180 104 2 -2 -43 -112 -101 -244 -57 -132 -104 -246 -104 -252 0 -8 14 -13 39
-13 172 0 335 -100 405 -248 27 -56 28 -64 14 -78 -13 -14 -40 -11 -267 28
-246 43 -251 44 -251 24 0 -19 31 -30 288 -102 192 -55 292 -78 304 -73 28 15
51 92 44 146 -22 153 -144 272 -361 353 -66 25 -70 28 -67 56 4 42 81 194 157
308 55 83 66 105 63 135 -4 43 -43 69 -115 77 -47 5 -49 4 -183 -92z"/>
<path d="M1749 2305 c-25 -13 -68 -44 -95 -68 -49 -45 -49 -45 -30 -66 11 -12
24 -21 30 -21 6 0 53 19 104 42 l92 43 0 47 c0 46 -1 48 -27 48 -16 -1 -49
-12 -74 -25z"/>
</g>
</svg>
