<?xml version="1.0" standalone="no"?>
<!DOCTYPE svg PUBLIC "-//W3C//DTD SVG 20010904//EN"
 "http://www.w3.org/TR/2001/REC-SVG-20010904/DTD/svg10.dtd">
<svg version="1.0" xmlns="http://www.w3.org/2000/svg"
 width="360.000000pt" height="360.000000pt" viewBox="0 0 360.000000 360.000000"
 preserveAspectRatio="xMidYMid meet">
<metadata>
Created by potrace 1.15, written by Peter Selinger 2001-2017
</metadata>
<g transform="translate(0.000000,360.000000) scale(0.100000,-0.100000)"
fill="#000000" stroke="none">
<path d="M1951 3019 c-25 -11 -40 -23 -35 -28 11 -10 183 -133 202 -145 9 -5
24 2 43 20 42 41 41 94 -3 127 -50 38 -104 54 -128 39 -12 -7 -20 -8 -20 -2 0
13 -7 12 -59 -11z"/>
<path d="M1067 2762 l-27 -28 45 -51 45 -51 0 -195 0 -194 -27 -41 c-16 -22
-46 -55 -68 -72 -47 -37 -174 -100 -201 -100 -10 0 -37 14 -58 30 -46 35 -53
36 -85 9 l-24 -20 25 -27 c16 -16 40 -72 63 -142 41 -126 92 -243 125 -290 20
-28 26 -30 84 -30 34 0 65 -2 67 -5 3 -2 -1 -71 -8 -152 -6 -81 -12 -200 -12
-265 l-1 -116 40 -32 c22 -17 47 -30 57 -28 21 4 59 77 75 146 14 57 13 57
100 43 l57 -10 338 155 c267 123 345 154 373 152 l35 -3 7 -75 c4 -41 11 -297
14 -567 l6 -493 28 0 c32 0 30 -12 56 294 13 147 14 204 6 217 -8 12 -8 28 -1
51 13 44 11 294 -3 337 -8 25 -7 39 2 56 10 18 10 34 1 69 -6 25 -11 68 -11
95 0 41 4 53 23 65 35 23 102 45 209 66 77 16 102 18 117 9 14 -9 32 -9 72 -1
46 9 72 8 167 -11 l114 -21 19 24 c43 57 16 87 -104 115 -83 19 -191 18 -330
-5 -72 -11 -114 -14 -118 -8 -4 7 -24 6 -58 -1 -100 -21 -106 -19 -130 51 -12
34 -21 73 -21 86 0 22 3 24 33 18 39 -7 87 -57 87 -92 0 -51 43 -24 219 140
143 133 171 164 171 187 0 37 -28 55 -112 70 -54 10 -68 16 -68 30 0 10 4 21
10 24 16 10 13 260 -4 274 -19 16 -30 0 -55 -79 -23 -72 -71 -282 -71 -312 0
-10 6 -20 13 -22 6 -2 31 -9 54 -15 60 -16 65 -43 17 -92 -21 -21 -42 -39 -47
-39 -5 0 -26 14 -47 30 -42 33 -82 38 -170 19 -27 -6 -55 -9 -60 -7 -6 2 30
65 80 141 78 120 90 144 90 181 0 62 -17 73 -87 58 -31 -6 -79 -23 -106 -37
-27 -15 -51 -24 -53 -22 -2 2 21 77 51 166 30 89 55 173 55 186 0 21 7 25 68
39 111 25 149 29 156 17 4 -6 29 -11 55 -11 37 0 52 5 69 23 l22 23 -33 32
c-32 31 -36 32 -115 32 -130 0 -211 -34 -499 -207 -68 -40 -127 -73 -132 -73
-28 0 -141 -43 -141 -53 0 -7 17 -30 38 -50 l38 -37 53 17 c30 9 116 51 192
94 110 60 139 73 139 59 0 -32 -68 -154 -174 -309 l-104 -155 43 -33 c24 -18
48 -33 52 -33 5 0 42 25 83 55 71 51 100 65 100 47 0 -4 -21 -41 -46 -82 -70
-114 -140 -180 -193 -180 -11 0 -41 -25 -71 -60 -29 -33 -58 -60 -66 -60 -23
0 -17 65 16 180 33 114 36 150 19 199 -16 46 -43 57 -86 34 -31 -16 -34 -21
-28 -48 10 -42 8 -64 -25 -300 l-30 -209 32 -33 c18 -18 38 -33 45 -33 24 0
94 73 134 141 l40 67 61 -20 61 -21 44 22 c24 11 52 21 63 21 33 0 60 -36 60
-79 0 -32 -4 -41 -22 -47 -13 -4 -189 -83 -392 -175 -202 -93 -379 -169 -391
-169 -54 0 -51 12 85 359 71 183 130 343 130 356 0 13 -9 30 -21 39 -45 31 7
146 91 202 22 15 40 34 40 43 0 33 -39 78 -92 106 l-55 28 -115 -31 c-63 -18
-118 -32 -122 -32 -10 0 -7 98 5 146 23 89 -20 264 -77 314 -43 37 -53 37 -87
2z m316 -584 c-9 -52 -49 -130 -102 -199 -82 -109 -81 -109 -81 18 0 125 -3
118 94 177 77 47 98 47 89 4z m-273 -157 c0 -4 -16 -75 -35 -157 -19 -82 -35
-152 -35 -156 0 -5 -27 -8 -60 -8 -33 0 -60 3 -60 8 0 4 -9 58 -20 121 -11 63
-17 117 -14 120 7 8 197 79 212 80 6 1 12 -3 12 -8z m172 -451 c-81 -159 -153
-290 -159 -290 -16 0 -16 -16 3 170 12 121 21 167 40 211 41 92 168 199 236
199 28 0 26 -3 -120 -290z"/>
</g>
</svg>
