<?xml version="1.0" standalone="no"?>
<!DOCTYPE svg PUBLIC "-//W3C//DTD SVG 20010904//EN"
 "http://www.w3.org/TR/2001/REC-SVG-20010904/DTD/svg10.dtd">
<svg version="1.0" xmlns="http://www.w3.org/2000/svg"
 width="360.000000pt" height="360.000000pt" viewBox="0 0 360.000000 360.000000"
 preserveAspectRatio="xMidYMid meet">
<metadata>
Created by potrace 1.15, written by Peter Selinger 2001-2017
</metadata>
<g transform="translate(0.000000,360.000000) scale(0.100000,-0.100000)"
fill="#000000" stroke="none">
<path d="M1941 2836 c-27 -29 -22 -42 20 -51 29 -7 30 -9 24 -43 -14 -75 -84
-186 -189 -300 -60 -64 -67 -89 -37 -116 19 -17 24 -12 168 135 l149 152 36
-12 c27 -9 47 -9 81 0 25 6 51 9 57 7 10 -3 -72 -131 -142 -222 -115 -147
-210 -231 -276 -241 -103 -17 -129 -54 -144 -209 -16 -162 -158 -648 -263
-902 -116 -279 -240 -454 -346 -485 -34 -11 -39 -16 -39 -42 0 -28 1 -29 38
-22 91 16 200 112 302 267 70 106 187 340 250 503 24 61 48 116 53 123 19 24
324 222 427 276 201 105 385 166 562 186 66 8 100 7 129 -2 39 -11 41 -10 64
18 l23 29 -21 23 c-19 21 -29 22 -145 22 -135 0 -263 -21 -389 -64 l-73 -25
-6 27 c-20 89 -17 85 -74 104 -101 34 -190 117 -161 152 19 23 305 163 355
174 30 6 60 6 90 -1 56 -13 65 -9 111 48 l38 46 -36 36 -36 37 -118 -33 c-182
-51 -181 -51 -74 107 50 73 91 143 91 154 0 26 -71 98 -97 98 -11 0 -66 -20
-123 -45 -57 -25 -107 -45 -111 -45 -5 0 -9 20 -9 44 0 28 -8 55 -23 77 -19
29 -29 34 -68 37 -37 2 -49 -1 -68 -22z m13 -798 l9 -57 -47 -56 c-52 -61 -55
-82 -13 -105 28 -15 29 -14 73 33 24 27 44 55 44 63 0 19 15 18 75 -5 66 -25
71 -53 20 -110 -56 -62 -330 -241 -369 -241 -20 0 -11 89 15 146 12 25 19 62
19 98 0 72 25 182 50 224 22 36 77 74 100 70 10 -2 18 -22 24 -60z"/>
<path d="M1055 2670 c-17 -19 -16 -21 29 -74 l46 -54 0 -140 c0 -108 3 -142
14 -151 12 -10 12 -18 1 -54 -7 -23 -16 -55 -20 -70 -9 -43 -81 -114 -164
-163 -96 -56 -122 -61 -165 -35 -39 24 -74 27 -82 7 -7 -19 71 -333 104 -420
34 -88 50 -98 102 -68 21 12 50 22 64 22 25 0 26 -2 26 -62 0 -35 -5 -103 -10
-152 -8 -65 -7 -92 1 -102 8 -10 9 -25 0 -58 -14 -57 -14 -113 0 -122 8 -5 8
-8 0 -13 -14 -9 3 -74 25 -96 52 -52 105 18 273 360 83 168 221 462 221 471 0
2 -6 4 -13 4 -7 0 -89 -126 -183 -280 -158 -262 -171 -280 -198 -280 l-28 0 5
168 c3 92 11 199 17 237 l13 70 69 33 c80 39 175 128 263 247 82 110 145 215
145 240 0 68 -149 97 -282 55 -34 -11 -68 -20 -75 -20 -8 0 -12 51 -15 178 -3
162 -5 181 -27 225 -22 46 -99 117 -126 117 -6 0 -20 -9 -30 -20z m395 -557
c0 -15 -104 -190 -142 -240 -40 -53 -92 -93 -120 -93 -12 0 -15 10 -11 48 13
129 62 217 148 264 46 25 125 38 125 21z m-370 -235 c-1 -59 -28 -186 -46
-217 -20 -33 -52 -51 -94 -51 -28 0 -30 4 -62 101 l-33 102 23 16 c36 25 164
80 190 80 18 1 22 -4 22 -31z"/>
<path d="M2267 2118 c-28 -23 -28 -24 -10 -40 10 -9 60 -33 112 -53 88 -34 94
-35 118 -20 33 22 38 41 20 69 -22 33 -73 54 -147 61 -58 6 -68 4 -93 -17z"/>
<path d="M2107 1568 c-114 -62 -206 -117 -204 -123 2 -5 15 -16 29 -24 23 -13
37 -9 197 54 144 58 175 67 191 57 16 -10 24 -5 59 36 l40 47 -31 32 c-18 18
-41 33 -52 33 -12 0 -114 -51 -229 -112z"/>
<path d="M2125 1369 c-143 -76 -264 -140 -269 -142 -5 -2 -1 -15 9 -30 33 -50
119 -33 250 51 39 25 88 60 111 78 23 19 51 34 64 34 31 0 138 29 171 45 44
23 43 41 -6 75 -24 16 -50 30 -57 29 -7 0 -130 -63 -273 -140z"/>
<path d="M2350 1256 c-36 -12 -143 -62 -238 -111 l-172 -88 -70 10 c-38 5 -70
6 -70 2 0 -5 20 -61 45 -125 25 -64 45 -128 45 -143 0 -44 29 -129 53 -155
l22 -25 205 44 c151 33 228 44 291 45 78 0 88 2 109 25 22 23 22 26 7 49 -18
26 -78 76 -93 76 -5 0 -15 4 -23 9 -10 6 9 38 78 132 76 102 91 129 91 160 0
105 -129 149 -280 95z m100 -110 l23 -25 -29 -48 c-39 -66 -154 -177 -255
-246 -79 -54 -89 -58 -134 -55 l-49 3 -33 75 c-17 41 -32 78 -32 81 -1 9 114
77 219 129 73 37 244 109 261 110 3 0 16 -11 29 -24z"/>
</g>
</svg>
