<?xml version="1.0" standalone="no"?>
<!DOCTYPE svg PUBLIC "-//W3C//DTD SVG 20010904//EN"
 "http://www.w3.org/TR/2001/REC-SVG-20010904/DTD/svg10.dtd">
<svg version="1.0" xmlns="http://www.w3.org/2000/svg"
 width="360.000000pt" height="360.000000pt" viewBox="0 0 360.000000 360.000000"
 preserveAspectRatio="xMidYMid meet">
<metadata>
Created by potrace 1.15, written by Peter Selinger 2001-2017
</metadata>
<g transform="translate(0.000000,360.000000) scale(0.100000,-0.100000)"
fill="#000000" stroke="none">
<path d="M2016 2562 c-3 -5 4 -46 14 -91 16 -67 20 -118 20 -270 0 -176 -1
-190 -21 -215 -30 -38 -53 -48 -135 -57 -43 -5 -92 -18 -122 -33 -67 -34 -167
-145 -226 -250 -48 -86 -49 -87 -85 -84 -32 3 -36 7 -44 42 -6 24 -6 41 0 45
6 3 18 33 27 66 10 33 35 92 57 132 21 40 39 78 39 86 0 22 -44 57 -72 57 -63
0 -141 -51 -288 -191 -168 -159 -243 -222 -321 -272 -82 -52 -104 -56 -140
-21 l-31 29 -24 -28 c-30 -35 -30 -39 0 -74 22 -25 31 -28 104 -31 70 -4 84
-1 118 21 63 40 170 130 312 263 72 69 132 123 132 121 0 -3 -83 -247 -185
-543 l-185 -539 38 -38 38 -38 26 21 c29 22 116 186 169 318 28 69 36 82 56
82 13 0 23 -6 23 -14 0 -31 31 -253 42 -296 12 -51 42 -115 58 -125 16 -10 84
35 72 47 -7 7 -7 18 -1 32 8 16 0 76 -30 232 -27 139 -41 238 -41 291 l0 81
87 123 c146 210 286 366 342 384 26 8 140 -2 159 -14 9 -6 12 -52 10 -185 l-3
-178 -140 -82 c-173 -101 -259 -158 -308 -204 l-37 -36 37 -38 c20 -21 43 -38
50 -38 8 0 77 45 155 100 99 70 150 100 170 100 15 0 28 -4 28 -10 0 -5 -16
-51 -36 -100 -40 -99 -120 -234 -183 -307 -22 -26 -38 -51 -35 -55 3 -4 25 -8
49 -8 39 0 47 5 85 47 145 164 250 379 250 512 0 40 2 43 68 85 92 60 271 148
366 180 131 45 214 58 303 44 74 -11 76 -10 94 13 26 34 24 44 -18 78 -31 26
-46 31 -90 31 -91 0 -230 -35 -426 -107 -54 -19 -100 -34 -102 -31 -2 2 79
109 181 237 101 128 184 235 184 238 0 2 -18 31 -40 64 -37 53 -44 59 -76 59
-51 0 -145 -34 -261 -95 l-103 -53 0 208 0 207 -45 42 c-43 40 -95 55 -109 33z
m449 -484 c-4 -13 -9 -32 -12 -42 -3 -11 -61 -97 -130 -193 -102 -141 -129
-173 -149 -173 -24 0 -24 1 -24 94 l0 94 45 55 c54 66 107 109 188 153 74 40
91 43 82 12z"/>
<path d="M1203 2487 c-10 -17 20 -67 52 -87 42 -26 152 -50 231 -50 50 0 64 4
82 23 29 31 28 37 -15 79 l-38 37 -153 3 c-85 2 -156 -1 -159 -5z"/>
<path d="M2434 1125 c-10 -25 41 -92 172 -225 l123 -125 15 -72 c25 -122 58
-160 99 -115 13 14 17 38 17 93 0 63 -4 81 -29 124 -34 59 -162 185 -278 273
-84 64 -109 74 -119 47z"/>
</g>
</svg>
