<?xml version="1.0" standalone="no"?>
<!DOCTYPE svg PUBLIC "-//W3C//DTD SVG 20010904//EN"
 "http://www.w3.org/TR/2001/REC-SVG-20010904/DTD/svg10.dtd">
<svg version="1.0" xmlns="http://www.w3.org/2000/svg"
 width="360.000000pt" height="360.000000pt" viewBox="0 0 360.000000 360.000000"
 preserveAspectRatio="xMidYMid meet">
<metadata>
Created by potrace 1.15, written by Peter Selinger 2001-2017
</metadata>
<g transform="translate(0.000000,360.000000) scale(0.100000,-0.100000)"
fill="#000000" stroke="none">
<path d="M1985 2737 c-3 -6 13 -66 35 -132 22 -65 40 -137 40 -159 0 -39 -11
-140 -30 -281 -19 -133 -105 -264 -207 -313 -30 -14 -40 -14 -123 5 l-90 20 0
-25 c0 -13 14 -41 30 -62 l30 -38 0 -156 c0 -95 -4 -156 -10 -156 -32 0 -83
-177 -126 -435 l-27 -165 24 -26 c15 -16 32 -24 48 -22 24 3 30 12 47 75 3 10
44 13 162 13 156 0 160 1 218 30 32 16 90 54 128 85 38 30 75 55 82 55 26 0
148 -32 208 -54 194 -73 392 -214 542 -384 37 -42 73 -83 80 -91 10 -11 16
-10 38 5 31 23 35 77 10 130 -57 119 -286 284 -656 473 l-146 75 29 58 c43 85
78 217 85 322 7 92 6 94 -18 110 -13 9 -50 25 -81 35 l-57 20 -96 -35 -95 -34
3 47 c3 46 3 46 53 63 77 26 204 93 297 156 98 67 228 172 228 184 0 23 -58
72 -125 107 l-76 38 -134 -70 c-73 -38 -136 -67 -140 -63 -4 3 -1 106 6 227
l12 221 -25 47 c-29 58 -98 113 -139 113 -16 0 -32 -6 -34 -13z m453 -605 c2
-7 -34 -49 -80 -95 -61 -61 -103 -93 -157 -120 -91 -46 -101 -46 -101 -5 0 63
87 138 238 204 79 34 93 37 100 16z m-466 -338 c-1 -10 -18 -102 -36 -204
l-35 -185 21 -22 c12 -13 29 -23 38 -23 10 0 68 59 130 130 112 129 113 130
156 130 l44 0 0 -52 c0 -98 -44 -246 -95 -324 l-13 -21 -151 22 c-121 17 -163
20 -207 12 -86 -16 -85 -18 -60 218 12 110 18 202 14 203 -4 2 -8 18 -8 37 0
32 1 33 59 44 32 6 74 22 92 35 39 28 55 28 51 0z m38 -656 c119 -36 11 -123
-204 -163 -93 -18 -156 -9 -156 21 0 46 60 135 105 155 27 12 200 3 255 -13z"/>
<path d="M1311 2416 c-88 -7 -146 -15 -148 -22 -2 -6 12 -25 30 -41 32 -28 40
-30 143 -36 60 -3 129 -13 153 -22 43 -15 45 -15 68 7 36 34 28 78 -17 99 -53
25 -73 26 -229 15z"/>
<path d="M1285 1874 c-16 -14 -109 -85 -205 -158 -296 -223 -495 -344 -550
-332 -38 7 -43 -3 -19 -40 19 -31 20 -31 77 -22 112 17 302 125 485 275 136
112 136 114 -49 -355 -90 -228 -164 -427 -164 -443 0 -25 4 -29 29 -29 15 0
40 9 54 20 34 27 105 135 153 233 31 61 43 77 61 77 12 0 24 -3 26 -7 3 -5 10
-66 16 -138 15 -172 39 -310 61 -362 16 -37 23 -43 49 -43 30 0 31 1 25 43 -2
23 -18 177 -34 343 -21 223 -26 311 -19 343 13 57 77 182 144 281 79 116 74
150 -14 87 -77 -56 -75 -56 -68 -2 4 27 21 75 37 108 31 63 38 115 18 135 -21
21 -80 13 -113 -14z"/>
</g>
</svg>
