<?xml version="1.0" standalone="no"?>
<!DOCTYPE svg PUBLIC "-//W3C//DTD SVG 20010904//EN"
 "http://www.w3.org/TR/2001/REC-SVG-20010904/DTD/svg10.dtd">
<svg version="1.0" xmlns="http://www.w3.org/2000/svg"
 width="360.000000pt" height="360.000000pt" viewBox="0 0 360.000000 360.000000"
 preserveAspectRatio="xMidYMid meet">
<metadata>
Created by potrace 1.15, written by Peter Selinger 2001-2017
</metadata>
<g transform="translate(0.000000,360.000000) scale(0.100000,-0.100000)"
fill="#000000" stroke="none">
<path d="M1386 2417 l-248 -91 26 -23 c15 -13 39 -23 53 -23 14 0 107 27 207
60 100 33 199 60 220 60 49 0 101 -25 126 -60 19 -27 20 -46 20 -460 l0 -432
-72 66 c-39 37 -78 65 -87 64 -46 -9 0 -128 94 -240 55 -67 57 -68 105 -68 26
0 52 6 57 13 6 7 7 89 2 217 -15 416 -10 616 20 728 l22 83 -21 29 c-43 60
-204 171 -247 169 -16 -1 -140 -42 -277 -92z"/>
<path d="M1090 2131 c0 -5 10 -40 21 -77 20 -66 21 -82 15 -329 -3 -143 -9
-287 -12 -320 -7 -76 11 -104 74 -112 37 -5 42 -8 42 -32 -1 -27 -215 -341
-238 -349 -7 -2 -12 7 -12 22 0 23 -4 26 -37 26 l-38 0 -32 -83 c-18 -45 -33
-92 -33 -103 0 -26 40 -64 67 -64 44 0 211 204 393 479 l93 141 45 0 44 0 -8
-122 c-5 -68 -9 -175 -9 -239 1 -105 3 -120 28 -171 46 -93 116 -143 255 -180
112 -29 413 -37 532 -14 130 26 340 82 395 106 93 40 100 58 65 182 -25 92
-47 243 -56 391 -5 99 -9 119 -25 127 -10 6 -22 10 -28 10 -8 0 -11 -96 -11
-304 l0 -304 -107 -26 c-261 -62 -493 -86 -629 -67 -192 27 -246 54 -292 143
-35 68 -38 141 -12 326 l23 163 -29 30 c-16 17 -53 45 -81 61 -29 16 -53 32
-53 35 0 3 36 115 80 250 44 135 77 251 73 257 -3 6 -19 28 -36 49 -39 50 -64
48 -116 -8 -36 -39 -41 -50 -41 -92 0 -31 7 -59 20 -78 24 -36 25 -76 5 -170
-17 -81 -90 -232 -139 -290 l-34 -40 -12 29 c-8 22 -8 31 0 36 9 5 9 44 0 145
-9 104 -9 177 0 300 13 190 12 196 -74 246 -52 29 -76 36 -76 20z"/>
</g>
</svg>
