<?xml version="1.0" standalone="no"?>
<!DOCTYPE svg PUBLIC "-//W3C//DTD SVG 20010904//EN"
 "http://www.w3.org/TR/2001/REC-SVG-20010904/DTD/svg10.dtd">
<svg version="1.0" xmlns="http://www.w3.org/2000/svg"
 width="360.000000pt" height="360.000000pt" viewBox="0 0 360.000000 360.000000"
 preserveAspectRatio="xMidYMid meet">
<metadata>
Created by potrace 1.15, written by Peter Selinger 2001-2017
</metadata>
<g transform="translate(0.000000,360.000000) scale(0.100000,-0.100000)"
fill="#000000" stroke="none">
<path d="M2252 2949 c-155 -70 -289 -112 -424 -134 -49 -8 -49 -27 -3 -88 54
-71 50 -113 -31 -341 -62 -178 -72 -225 -48 -233 25 -8 68 46 121 153 46 95
59 114 78 114 21 0 23 -6 29 -67 13 -138 14 -140 49 -147 18 -3 47 -15 65 -26
31 -19 32 -22 32 -88 0 -64 -2 -70 -32 -98 -84 -78 -221 -163 -233 -144 -4 6
-1 43 6 81 11 64 11 74 -6 105 -10 19 -23 34 -29 34 -6 0 -19 -35 -29 -78 -11
-42 -35 -111 -54 -152 -29 -63 -33 -82 -28 -118 l7 -44 36 7 c51 9 154 64 245
129 77 55 117 70 117 42 0 -7 -62 -65 -137 -129 -173 -144 -327 -286 -384
-354 -24 -28 -46 -52 -49 -52 -3 -1 -15 25 -27 57 -20 51 -22 77 -23 237 -1
99 -6 211 -12 249 -9 51 -8 107 1 219 l13 151 -35 33 c-36 32 -118 63 -168 63
-15 0 -31 4 -34 10 -3 5 29 51 72 102 101 120 168 213 194 273 l21 48 -36 35
-35 36 -128 -38 c-70 -22 -134 -41 -142 -44 -14 -5 -13 10 5 69 6 23 -52 104
-87 122 -49 23 -132 -12 -89 -38 6 -3 10 -30 10 -58 0 -93 -64 -198 -244 -399
-47 -53 -86 -105 -86 -116 0 -12 11 -24 29 -32 28 -11 32 -9 124 68 217 182
368 282 429 282 24 0 29 -4 26 -17 -3 -10 -61 -98 -130 -195 -96 -135 -141
-190 -194 -234 -103 -86 -214 -197 -214 -214 0 -8 9 -26 20 -40 31 -39 25
-132 -30 -512 -28 -189 -53 -357 -56 -374 -5 -28 -2 -34 29 -53 19 -11 37 -21
40 -21 15 0 27 46 36 137 13 137 44 194 128 237 51 26 67 21 100 -31 27 -45
53 -64 123 -91 18 -7 45 -46 95 -136 39 -70 90 -152 114 -183 l44 -56 33 36
c34 36 34 38 34 132 0 92 1 95 23 95 13 0 52 21 87 47 271 197 517 315 533
257 15 -52 18 -87 9 -93 -7 -4 -7 -24 1 -61 8 -40 7 -87 -2 -180 -10 -99 -10
-137 0 -174 9 -36 9 -64 1 -114 -6 -37 -14 -146 -17 -242 -3 -96 -8 -194 -11
-217 -6 -39 -5 -43 14 -43 58 0 96 319 108 901 l7 317 196 31 c110 17 234 31
282 31 77 0 88 2 108 24 32 34 17 56 -60 91 l-62 28 -231 -50 c-156 -33 -233
-46 -237 -39 -4 6 -10 49 -14 96 l-7 85 116 99 c64 54 119 102 122 107 3 5 -4
23 -16 39 -25 35 -54 38 -140 15 -30 -8 -58 -11 -61 -7 -4 4 -20 54 -37 110
l-30 104 35 61 c81 137 223 466 223 515 0 21 -53 74 -95 95 -28 13 -34 12 -93
-14z m2 -292 c-25 -78 -131 -278 -154 -292 -5 -3 -37 31 -73 76 -62 78 -64 83
-54 114 7 23 7 54 0 94 l-9 59 150 65 151 64 3 -64 c2 -41 -3 -84 -14 -116z
m-892 -474 l38 -37 0 -232 0 -232 -60 -10 c-33 -6 -76 -18 -95 -28 -28 -13
-38 -14 -50 -4 -27 22 -17 75 35 178 28 55 50 105 50 111 0 5 -14 32 -30 58
-34 54 -50 102 -50 153 0 28 7 39 33 57 49 33 85 29 129 -14z m-272 -99 c26
-59 25 -88 -2 -132 -21 -35 -134 -116 -148 -107 -4 3 -16 40 -25 82 -10 43
-19 83 -22 89 -3 9 146 106 174 113 1 1 11 -20 23 -45z m-20 -297 c0 -7 -7
-40 -15 -72 -19 -71 -49 -107 -85 -103 -20 2 -26 9 -28 37 -5 45 13 85 55 121
35 31 73 40 73 17z m1070 -142 c0 -15 -13 -31 -39 -48 -37 -24 -275 -147 -286
-147 -3 0 -5 10 -5 23 1 17 35 48 142 130 l141 108 24 -22 c12 -13 23 -32 23
-44z m-1185 -45 c7 -11 -27 -81 -49 -99 -14 -12 -16 -7 -16 41 0 30 3 58 7 61
10 10 51 8 58 -3z m444 -48 c31 -114 48 -437 25 -475 -9 -16 -27 2 -142 146
-141 176 -149 194 -118 255 14 28 82 71 153 97 61 22 71 19 82 -23z"/>
</g>
</svg>
