<?xml version="1.0" standalone="no"?>
<!DOCTYPE svg PUBLIC "-//W3C//DTD SVG 20010904//EN"
 "http://www.w3.org/TR/2001/REC-SVG-20010904/DTD/svg10.dtd">
<svg version="1.0" xmlns="http://www.w3.org/2000/svg"
 width="360.000000pt" height="360.000000pt" viewBox="0 0 360.000000 360.000000"
 preserveAspectRatio="xMidYMid meet">
<metadata>
Created by potrace 1.15, written by Peter Selinger 2001-2017
</metadata>
<g transform="translate(0.000000,360.000000) scale(0.100000,-0.100000)"
fill="#000000" stroke="none">
<path d="M1138 2648 c-60 -13 -66 -40 -14 -62 33 -14 34 -16 26 -50 -25 -110
-152 -314 -333 -533 -49 -60 -58 -77 -53 -98 4 -14 10 -25 15 -25 5 0 44 32
87 71 183 167 338 277 429 305 68 22 88 15 74 -25 -26 -73 -259 -400 -286
-401 -25 0 -85 -65 -112 -119 -65 -130 -124 -362 -180 -706 -57 -350 -55 -315
-21 -315 33 0 34 4 45 104 9 82 32 151 60 183 l24 28 43 -24 44 -23 73 23 74
24 16 -25 c47 -71 196 -253 262 -320 71 -72 144 -120 182 -120 34 0 58 78 77
249 9 83 9 110 -1 128 -10 18 -10 29 -2 42 9 14 6 108 -10 385 -17 296 -19
377 -9 422 9 45 9 62 -2 88 -19 47 -60 90 -122 131 l-56 38 -55 -13 c-30 -6
-56 -10 -58 -8 -2 2 18 37 44 78 73 113 121 208 121 240 0 16 -9 49 -19 73
l-20 46 -138 -54 c-76 -29 -139 -50 -141 -46 -1 3 16 60 38 126 22 65 40 127
40 136 0 21 -51 59 -77 58 -10 -1 -39 -6 -65 -11z m344 -775 c26 -28 26 -30
37 -273 6 -134 8 -247 3 -251 -4 -4 -29 -16 -57 -27 -27 -11 -74 -29 -102 -41
l-53 -21 0 58 c0 53 5 66 75 186 83 143 83 129 7 177 -24 16 -36 19 -44 11
-21 -21 -37 20 -38 94 l0 70 43 21 c59 31 98 29 129 -4z m-282 -171 l0 -68
-47 -45 c-27 -25 -61 -55 -77 -67 -36 -27 -76 -29 -76 -4 0 42 33 125 63 159
30 34 111 93 129 93 4 0 8 -31 8 -68z m0 -234 c0 -7 -19 -57 -42 -110 -38 -86
-46 -98 -68 -98 -23 0 -28 7 -47 65 l-21 66 21 13 c57 36 133 76 145 76 6 0
12 -6 12 -12z m-209 -190 c7 -13 18 -46 25 -75 l12 -51 -44 -66 c-25 -36 -51
-66 -58 -66 -34 0 -35 25 -3 153 32 129 45 149 68 105z m562 -90 c15 -130 20
-435 7 -486 -13 -56 -23 -61 -69 -37 -42 21 -86 82 -134 182 -36 76 -42 99
-45 169 l-4 81 54 47 c52 48 138 96 169 96 12 0 18 -13 22 -52z m-373 -28 c0
-25 -4 -30 -25 -30 -31 0 -31 7 -3 37 27 29 28 29 28 -7z"/>
<path d="M2110 2531 c-6 -23 -8 -46 -5 -51 8 -13 42 -13 50 0 12 19 35 -10 51
-66 18 -63 19 -122 8 -339 l-9 -160 -160 -97 c-170 -104 -215 -119 -215 -73 0
25 -31 65 -50 65 -29 0 8 -157 75 -325 47 -118 52 -140 34 -151 -15 -9 49 -74
73 -74 10 0 41 11 68 25 64 33 94 33 84 3 -46 -154 -132 -268 -200 -268 -11 0
-33 13 -49 30 l-29 30 -23 -22 c-33 -31 -32 -96 2 -128 34 -32 86 -23 195 32
98 49 500 313 500 328 0 32 -139 -8 -233 -66 -32 -20 -61 -33 -65 -30 -8 9 15
116 40 181 27 72 72 119 126 134 23 7 42 18 42 25 0 8 15 17 33 20 17 3 47 15
65 26 29 18 32 24 32 70 0 43 -3 50 -20 50 -16 0 -3 22 65 116 95 130 104 159
58 192 -35 24 -118 53 -158 55 -16 1 -65 -3 -107 -7 l-78 -8 0 213 c0 150 -4
221 -13 238 -20 40 -62 64 -121 69 l-55 4 -11 -41z m415 -628 c-18 -43 -76
-105 -151 -164 -66 -51 -84 -51 -84 -1 0 58 18 109 52 147 34 40 70 53 146 54
l52 1 -15 -37z m-315 -229 l0 -85 -52 -55 c-54 -57 -112 -99 -126 -90 -4 2
-21 46 -37 97 l-30 92 47 42 c61 55 163 102 191 88 4 -2 7 -42 7 -89z"/>
<path d="M2547 1423 c-11 -10 -8 -49 5 -78 7 -15 23 -28 41 -33 28 -7 30 -13
63 -142 56 -224 74 -260 129 -260 49 0 58 19 50 97 -11 114 -34 198 -71 260
-40 67 -79 104 -146 139 -50 25 -61 28 -71 17z"/>
</g>
</svg>
