<?xml version="1.0" standalone="no"?>
<!DOCTYPE svg PUBLIC "-//W3C//DTD SVG 20010904//EN"
 "http://www.w3.org/TR/2001/REC-SVG-20010904/DTD/svg10.dtd">
<svg version="1.0" xmlns="http://www.w3.org/2000/svg"
 width="360.000000pt" height="360.000000pt" viewBox="0 0 360.000000 360.000000"
 preserveAspectRatio="xMidYMid meet">
<metadata>
Created by potrace 1.15, written by Peter Selinger 2001-2017
</metadata>
<g transform="translate(0.000000,360.000000) scale(0.100000,-0.100000)"
fill="#000000" stroke="none">
<path d="M1652 2657 c-12 -13 -22 -30 -22 -38 0 -8 38 -32 88 -55 143 -68 166
-104 117 -176 -14 -20 -25 -46 -25 -57 0 -18 6 -21 48 -21 43 0 52 4 90 43 38
39 42 48 42 92 0 95 -71 167 -199 205 -112 32 -116 32 -139 7z"/>
<path d="M2520 2315 c-25 -7 -115 -25 -200 -40 -323 -57 -631 -146 -935 -272
-220 -91 -475 -178 -580 -198 -43 -9 -81 -17 -83 -20 -10 -10 54 -55 113 -80
l64 -28 173 81 c95 44 232 105 303 135 291 122 755 283 765 267 4 -7 37 -4 95
10 71 17 94 18 122 9 25 -8 57 -8 125 1 89 12 94 11 218 -21 126 -32 127 -32
153 -13 33 24 35 63 5 91 -13 12 -54 38 -92 59 -63 34 -71 36 -101 25 -23 -8
-40 -8 -59 -1 -31 12 -27 12 -86 -5z"/>
<path d="M1975 1899 c-158 -93 -366 -190 -457 -213 l-51 -13 47 -32 c38 -27
52 -31 79 -26 42 9 140 54 195 89 24 15 53 26 65 24 16 -2 -34 -55 -241 -248
-144 -135 -262 -248 -262 -252 0 -4 14 -23 31 -43 52 -59 67 -54 329 106 127
78 234 138 237 135 3 -3 -7 -16 -23 -28 -175 -137 -456 -384 -474 -418 -6 -10
-1 -40 15 -86 12 -38 28 -108 34 -155 12 -92 35 -172 55 -188 8 -7 82 5 238
39 217 46 230 48 299 38 72 -11 106 -8 252 24 54 11 57 20 28 85 -21 46 -56
69 -120 79 -23 4 -41 9 -41 11 0 3 41 65 90 139 122 180 120 202 -16 266 -63
29 -66 30 -132 18 -127 -22 -273 -85 -445 -191 -215 -134 -29 46 366 353 92
71 167 132 167 135 0 3 -8 18 -17 34 -16 26 -21 28 -58 22 -111 -16 -284 -88
-410 -169 -95 -60 -94 -36 2 47 143 124 287 260 337 319 40 47 46 60 42 85
-13 67 -63 71 -161 14z m245 -764 c17 -9 30 -21 30 -28 0 -28 -67 -124 -138
-198 -42 -44 -113 -105 -159 -136 -80 -53 -243 -133 -272 -133 -8 0 -25 10
-38 22 -20 19 -23 31 -23 101 l0 79 47 42 c124 110 309 217 433 250 72 19 85
19 120 1z"/>
</g>
</svg>
