<?xml version="1.0" standalone="no"?>
<!DOCTYPE svg PUBLIC "-//W3C//DTD SVG 20010904//EN"
 "http://www.w3.org/TR/2001/REC-SVG-20010904/DTD/svg10.dtd">
<svg version="1.0" xmlns="http://www.w3.org/2000/svg"
 width="360.000000pt" height="360.000000pt" viewBox="0 0 360.000000 360.000000"
 preserveAspectRatio="xMidYMid meet">
<metadata>
Created by potrace 1.15, written by Peter Selinger 2001-2017
</metadata>
<g transform="translate(0.000000,360.000000) scale(0.100000,-0.100000)"
fill="#000000" stroke="none">
<path d="M2127 2802 c-24 -27 -21 -51 9 -64 70 -32 103 -227 104 -605 0 -166
-1 -173 -22 -193 -32 -29 -85 -58 -210 -113 -103 -45 -110 -46 -159 -37 -85
16 -93 14 -118 -31 -54 -96 -329 -441 -357 -447 -8 -2 -14 -2 -14 0 0 2 25
169 55 373 l54 370 -21 22 c-41 43 -73 32 -199 -67 -191 -152 -389 -280 -433
-280 -8 0 -24 12 -35 27 l-21 26 -26 -24 c-54 -51 -3 -109 98 -112 80 -2 168
52 365 223 63 55 100 80 117 80 31 0 31 -1 15 -170 -22 -250 -50 -394 -86
-446 -23 -34 -24 -43 -18 -108 12 -138 44 -206 96 -206 11 0 52 58 117 163
137 221 235 361 302 429 54 56 57 58 90 48 58 -17 75 -12 237 60 86 39 161 70
166 70 5 0 8 -98 6 -227 -1 -126 -1 -232 1 -238 2 -5 0 -18 -5 -28 -4 -10 -4
-141 0 -290 5 -150 7 -315 5 -367 -7 -208 -6 -214 12 -218 24 -5 45 42 64 145
11 60 19 187 24 403 5 173 12 334 18 357 6 27 6 45 -1 52 -5 5 -6 15 -1 23 5
7 7 65 6 128 -2 63 2 140 7 170 5 32 5 56 0 58 -5 2 -9 21 -9 42 0 65 68 104
236 135 77 15 89 15 138 1 30 -9 67 -16 83 -16 64 0 100 92 49 125 -54 35 -79
35 -283 -1 -180 -32 -197 -34 -212 -19 -14 13 -18 67 -27 348 -7 211 -15 340
-22 354 -7 12 -31 37 -54 57 -33 29 -50 36 -83 36 -28 0 -47 -6 -58 -18z"/>
<path d="M1465 2628 c-136 -10 -190 -27 -190 -57 0 -21 16 -30 150 -82 82 -33
154 -59 158 -59 22 0 67 43 67 63 0 24 -50 117 -72 133 -8 6 -50 7 -113 2z"/>
</g>
</svg>
