<?xml version="1.0" standalone="no"?>
<!DOCTYPE svg PUBLIC "-//W3C//DTD SVG 20010904//EN"
 "http://www.w3.org/TR/2001/REC-SVG-20010904/DTD/svg10.dtd">
<svg version="1.0" xmlns="http://www.w3.org/2000/svg"
 width="360.000000pt" height="360.000000pt" viewBox="0 0 360.000000 360.000000"
 preserveAspectRatio="xMidYMid meet">
<metadata>
Created by potrace 1.15, written by Peter Selinger 2001-2017
</metadata>
<g transform="translate(0.000000,360.000000) scale(0.100000,-0.100000)"
fill="#000000" stroke="none">
<path d="M1130 2372 c0 -12 14 -31 33 -45 47 -36 212 -127 229 -127 21 0 58
43 58 67 0 79 -61 113 -217 121 -100 5 -103 4 -103 -16z"/>
<path d="M2151 2009 c-86 -94 -156 -144 -225 -159 -45 -10 -52 -9 -87 15 -43
28 -87 33 -96 9 -3 -8 -1 -53 5 -99 10 -76 9 -100 -14 -225 -43 -243 -83 -378
-122 -413 -19 -17 -20 -17 -26 20 -14 79 -18 93 -27 93 -17 0 -47 -81 -67
-180 l-19 -95 50 -57 c49 -57 50 -57 78 -43 39 21 75 87 115 210 35 106 93
380 115 535 6 49 18 93 28 104 28 34 229 111 245 95 2 -2 0 -76 -4 -164 -15
-262 -12 -447 6 -502 35 -105 128 -185 256 -224 68 -21 78 -21 242 -10 94 6
193 11 219 11 38 0 73 12 163 54 l114 55 -6 43 c-59 455 -71 584 -57 600 22
25 -2 98 -32 98 -21 0 -22 -4 -29 -172 -18 -477 -17 -466 -43 -493 -52 -51
-181 -75 -417 -75 -185 0 -226 12 -277 83 -86 119 -86 309 1 654 25 100 72
213 89 213 3 0 13 5 21 10 12 8 8 16 -25 50 -61 63 -84 58 -174 -41z"/>
<path d="M1074 1668 c-255 -192 -395 -278 -451 -278 -16 0 -43 4 -61 9 -25 8
-32 7 -32 -4 0 -8 -7 -18 -16 -23 -31 -17 17 -54 86 -67 61 -10 184 58 409
227 99 74 141 93 141 66 0 -7 -21 -89 -47 -181 -40 -144 -45 -172 -36 -198 10
-26 6 -47 -33 -161 -40 -120 -44 -141 -44 -228 0 -96 0 -96 34 -129 25 -24 41
-32 62 -29 26 3 47 37 277 446 179 320 246 448 242 463 -4 10 -10 17 -15 14
-5 -3 -101 -131 -215 -284 -203 -276 -230 -309 -241 -298 -7 6 30 216 57 322
31 119 64 209 109 292 22 41 40 83 40 93 0 25 -51 60 -87 60 -21 0 -69 -30
-179 -112z"/>
</g>
</svg>
