<?xml version="1.0" standalone="no"?>
<!DOCTYPE svg PUBLIC "-//W3C//DTD SVG 20010904//EN"
 "http://www.w3.org/TR/2001/REC-SVG-20010904/DTD/svg10.dtd">
<svg version="1.0" xmlns="http://www.w3.org/2000/svg"
 width="360.000000pt" height="360.000000pt" viewBox="0 0 360.000000 360.000000"
 preserveAspectRatio="xMidYMid meet">
<metadata>
Created by potrace 1.15, written by Peter Selinger 2001-2017
</metadata>
<g transform="translate(0.000000,360.000000) scale(0.100000,-0.100000)"
fill="#000000" stroke="none">
<path d="M1923 3103 c-7 -15 -13 -39 -13 -53 0 -24 5 -28 55 -39 30 -7 55 -17
55 -22 0 -5 -7 -44 -16 -85 -48 -237 -204 -531 -444 -843 -47 -61 -91 -111
-97 -111 -7 0 -13 2 -13 5 0 3 34 116 75 252 42 135 73 248 71 251 -7 6 -116
-221 -176 -368 -61 -148 -178 -451 -246 -637 -43 -117 -52 -133 -71 -133 -13
0 -23 6 -23 13 0 6 34 192 75 412 l74 400 -21 32 c-31 52 -53 44 -195 -66
-153 -118 -333 -245 -387 -273 -37 -19 -94 -19 -142 -1 -22 8 -18 -60 4 -80
14 -13 38 -17 100 -17 l82 0 204 140 c192 131 226 151 226 132 0 -4 -29 -168
-65 -364 -65 -357 -74 -448 -54 -523 16 -60 44 -85 94 -85 40 0 43 3 68 48 39
73 147 401 207 630 8 30 16 42 29 42 34 0 135 85 209 176 39 49 109 143 155
209 l82 120 210 70 c246 83 370 114 480 122 69 5 88 2 140 -19 48 -19 61 -29
63 -49 3 -23 -4 -26 -110 -56 -62 -17 -147 -36 -188 -42 -214 -33 -417 -207
-603 -517 -46 -76 -46 -101 -4 -142 55 -53 71 -47 256 89 90 66 165 118 168
115 9 -9 -19 -81 -58 -148 -39 -66 -154 -219 -231 -307 -21 -24 -38 -52 -38
-63 0 -28 43 -88 63 -88 11 0 44 23 75 51 64 57 125 95 184 116 39 13 43 13
79 -12 l39 -25 -21 -58 c-38 -104 -146 -316 -213 -415 -120 -179 -291 -372
-449 -505 -42 -36 -76 -67 -74 -69 10 -10 140 46 187 80 77 58 241 218 313
307 175 217 357 573 357 699 0 43 -4 53 -25 67 -30 19 -125 44 -172 44 -18 0
-33 4 -33 9 0 4 38 89 84 187 l84 179 -41 43 c-23 23 -49 42 -59 42 -32 0
-122 -39 -196 -84 -39 -25 -72 -41 -72 -36 0 67 175 234 340 323 202 109 478
154 646 105 95 -27 124 -18 124 40 0 27 -7 45 -23 60 -29 27 -161 81 -286 117
-90 26 -100 27 -285 23 -181 -5 -196 -6 -281 -35 -49 -17 -145 -56 -213 -87
-109 -49 -152 -64 -152 -53 0 2 33 73 74 158 120 252 165 389 166 501 0 64
-27 93 -105 113 -80 20 -88 19 -102 -12z"/>
<path d="M1083 2807 c-67 -23 -125 -45 -129 -49 -12 -13 65 -39 152 -50 69
-10 84 -15 84 -29 0 -28 29 -49 69 -49 31 0 44 8 81 45 l44 45 -30 42 c-16 23
-43 50 -59 59 -56 32 -83 30 -212 -14z"/>
<path d="M1610 2514 c0 -22 2 -25 15 -14 8 7 15 19 15 26 0 8 -7 14 -15 14
-10 0 -15 -10 -15 -26z"/>
</g>
</svg>
