<?xml version="1.0" standalone="no"?>
<!DOCTYPE svg PUBLIC "-//W3C//DTD SVG 20010904//EN"
 "http://www.w3.org/TR/2001/REC-SVG-20010904/DTD/svg10.dtd">
<svg version="1.0" xmlns="http://www.w3.org/2000/svg"
 width="360.000000pt" height="360.000000pt" viewBox="0 0 360.000000 360.000000"
 preserveAspectRatio="xMidYMid meet">
<metadata>
Created by potrace 1.15, written by Peter Selinger 2001-2017
</metadata>
<g transform="translate(0.000000,360.000000) scale(0.100000,-0.100000)"
fill="#000000" stroke="none">
<path d="M1244 2605 c-4 -8 2 -27 11 -42 45 -68 121 -112 196 -113 38 0 50 5
74 30 l29 30 -31 32 c-30 30 -33 30 -74 20 -39 -10 -49 -8 -117 24 -87 40 -81
38 -88 19z"/>
<path d="M2492 2386 l-142 -52 36 -42 c45 -54 87 -57 144 -12 45 36 137 80
167 80 12 0 35 -11 51 -25 l29 -24 8 -218 c5 -120 7 -236 6 -258 -1 -22 -2
-55 -2 -72 0 -18 0 -46 0 -63 -1 -170 19 -529 35 -655 20 -150 21 -239 2 -254
-29 -24 -226 251 -338 470 l-50 99 124 129 c68 72 133 145 143 164 18 34 18
35 -1 67 -22 39 -71 66 -137 79 -59 11 -64 15 -48 44 7 13 11 47 9 77 -3 50
-6 56 -43 82 -36 25 -44 27 -78 17 -46 -13 -101 -60 -139 -118 -41 -66 -39
-142 11 -330 22 -80 41 -153 43 -162 2 -11 -35 -46 -110 -104 -62 -48 -115
-85 -116 -83 -10 11 -23 124 -15 129 6 3 5 17 -2 35 -16 41 -2 208 26 320 23
90 49 153 87 207 20 27 20 29 2 48 -13 14 -27 19 -46 17 l-28 -5 -1 121 c-1
67 -4 132 -8 146 -9 32 -57 59 -121 67 -50 6 -53 5 -93 -34 -51 -50 -112 -81
-172 -90 -38 -5 -45 -9 -45 -28 0 -26 29 -55 56 -55 11 0 74 18 139 40 65 22
123 40 127 40 12 0 10 -245 -3 -357 -13 -122 -50 -247 -99 -343 -41 -78 -129
-187 -130 -160 0 8 12 91 26 185 l26 170 -37 32 c-47 40 -102 44 -170 11 -24
-12 -47 -19 -50 -16 -4 4 23 104 42 155 4 11 -2 14 -33 11 -37 -3 -39 -5 -62
-68 -116 -311 -219 -542 -266 -597 -28 -34 -56 -43 -56 -20 0 7 36 161 80 341
44 181 80 339 80 351 0 13 -8 33 -18 45 l-18 23 -150 -120 c-228 -183 -355
-273 -385 -273 -7 0 -33 19 -56 42 -36 35 -46 41 -61 31 -31 -20 -10 -132 29
-153 27 -15 111 -12 159 5 54 19 145 84 242 174 55 52 84 71 103 71 25 0 27
-3 20 -27 -58 -229 -115 -632 -115 -814 0 -45 4 -60 23 -77 52 -49 52 -49 191
321 72 188 141 370 154 405 23 58 26 62 56 62 18 0 59 9 91 20 83 29 93 27
101 -17 5 -27 -5 -103 -36 -261 -46 -244 -46 -274 2 -301 25 -14 29 -13 86 22
33 20 64 37 69 37 5 0 17 -17 27 -37 54 -114 152 -243 185 -243 9 0 27 9 40
19 25 19 25 19 13 109 -20 152 -27 135 108 251 66 56 124 101 129 99 20 -7
152 -201 240 -353 182 -312 243 -395 291 -395 54 0 76 56 87 219 6 94 4 105
-12 117 -17 13 -17 14 -2 14 15 0 16 8 12 53 -3 28 -17 223 -30 432 -27 414
-32 712 -13 862 l12 96 -35 30 c-19 16 -56 40 -84 53 -80 38 -142 32 -313 -30z
m-72 -538 c0 -6 -9 -46 -21 -87 l-21 -75 26 -23 c19 -16 40 -23 67 -23 30 0
39 -4 39 -17 0 -23 -70 -93 -92 -93 -24 0 -61 79 -85 178 l-17 74 44 39 c48
41 60 46 60 27z m-430 -599 l0 -100 -27 3 c-18 2 -35 15 -51 38 -25 38 -25 58
2 123 14 31 21 37 46 37 l30 0 0 -101z"/>
</g>
</svg>
