<?xml version="1.0" standalone="no"?>
<!DOCTYPE svg PUBLIC "-//W3C//DTD SVG 20010904//EN"
 "http://www.w3.org/TR/2001/REC-SVG-20010904/DTD/svg10.dtd">
<svg version="1.0" xmlns="http://www.w3.org/2000/svg"
 width="360.000000pt" height="360.000000pt" viewBox="0 0 360.000000 360.000000"
 preserveAspectRatio="xMidYMid meet">
<metadata>
Created by potrace 1.15, written by Peter Selinger 2001-2017
</metadata>
<g transform="translate(0.000000,360.000000) scale(0.100000,-0.100000)"
fill="#000000" stroke="none">
<path d="M1781 2837 c-29 -47 -28 -100 3 -130 16 -16 38 -67 61 -138 49 -157
119 -444 112 -463 -20 -52 -317 -219 -424 -238 -44 -8 -63 -16 -63 -26 0 -24
49 -82 70 -82 10 0 118 43 241 95 122 53 225 92 229 88 4 -4 33 -75 65 -157
l58 -149 -22 -18 c-11 -9 -44 -22 -72 -28 -79 -17 -83 -16 -75 22 22 107 22
111 -26 161 -54 56 -81 59 -126 13 l-32 -33 35 -57 c62 -103 44 -162 -66 -217
-87 -44 -89 -43 -89 43 l0 73 -56 67 c-56 68 -67 74 -94 57 -12 -8 -11 -24 13
-122 15 -62 27 -138 27 -169 0 -53 -3 -59 -38 -91 -36 -33 -106 -58 -120 -43
-3 3 8 50 26 103 18 54 32 101 32 105 0 20 -42 3 -63 -25 -34 -45 -115 -211
-166 -341 -39 -96 -46 -107 -68 -107 -19 0 -24 4 -19 16 14 36 18 95 8 107 -8
9 6 109 54 371 l65 358 -22 24 c-12 13 -26 24 -30 24 -4 0 -79 -43 -168 -96
-114 -68 -187 -120 -253 -181 -51 -47 -109 -93 -128 -103 l-35 -18 -35 34 -35
33 -30 -23 c-28 -23 -29 -25 -15 -51 36 -67 119 -91 191 -55 53 27 207 132
303 207 37 29 75 53 83 53 19 0 19 1 -33 -562 -38 -408 -38 -417 -20 -437 11
-12 31 -21 45 -21 38 1 148 166 165 249 21 101 86 164 215 208 l66 22 7 -99
c3 -54 12 -108 18 -119 17 -33 38 -25 45 17 39 248 111 392 196 392 l29 0 0
-110 0 -110 -40 -20 c-38 -19 -51 -42 -31 -55 5 -3 33 -10 61 -15 67 -13 122
-39 128 -62 2 -10 8 -18 12 -18 23 0 138 89 217 168 50 51 100 92 110 92 11 0
36 -28 68 -77 28 -43 96 -142 151 -219 224 -314 376 -473 498 -519 44 -17 45
-17 75 5 29 20 31 26 31 83 0 81 -18 286 -31 362 -15 86 -43 145 -68 145 -20
0 -21 -5 -21 -195 l0 -195 -24 0 c-30 0 -237 212 -348 357 -113 147 -248 379
-248 425 0 6 22 47 49 92 76 125 143 270 149 321 4 42 2 49 -28 80 -28 29 -36
32 -48 22 -18 -14 -89 -163 -122 -254 -13 -35 -27 -63 -33 -63 -25 0 -75 44
-104 92 -30 50 -93 219 -93 251 0 8 23 24 52 36 29 12 74 36 100 52 46 30 48
33 48 79 0 27 -4 51 -9 55 -5 3 -50 -4 -100 -15 -50 -11 -99 -20 -110 -20 -24
0 -50 54 -108 225 -36 109 -42 134 -32 152 22 41 -40 236 -94 296 -47 52 -70
55 -96 14z m419 -1352 c22 -24 23 -24 5 -77 -9 -29 -33 -77 -53 -108 -41 -61
-202 -230 -220 -230 -15 0 -16 36 -2 45 6 4 10 70 10 164 0 131 3 161 16 171
19 16 159 59 195 59 15 1 35 -9 49 -24z"/>
<path d="M2453 2651 c-46 -38 -19 -72 85 -107 l66 -23 11 -65 c12 -73 35 -106
75 -106 42 0 60 28 60 94 0 101 -40 156 -142 194 -85 31 -129 35 -155 13z"/>
<path d="M1072 2617 c-9 -10 -3 -25 24 -63 27 -38 51 -57 110 -87 41 -21 92
-55 114 -77 46 -46 77 -51 108 -17 18 19 22 35 22 85 0 76 2 75 -205 131 -169
47 -159 45 -173 28z"/>
</g>
</svg>
