<?xml version="1.0" standalone="no"?>
<!DOCTYPE svg PUBLIC "-//W3C//DTD SVG 20010904//EN"
 "http://www.w3.org/TR/2001/REC-SVG-20010904/DTD/svg10.dtd">
<svg version="1.0" xmlns="http://www.w3.org/2000/svg"
 width="360.000000pt" height="360.000000pt" viewBox="0 0 360.000000 360.000000"
 preserveAspectRatio="xMidYMid meet">
<metadata>
Created by potrace 1.15, written by Peter Selinger 2001-2017
</metadata>
<g transform="translate(0.000000,360.000000) scale(0.100000,-0.100000)"
fill="#000000" stroke="none">
<path d="M1860 2680 c-29 -25 -32 -31 -20 -40 8 -5 21 -10 29 -10 30 0 81 -42
89 -73 10 -35 -2 -530 -14 -587 -4 -19 -10 -39 -14 -45 -4 -5 -11 -24 -14 -41
-4 -17 -24 -47 -44 -67 -42 -41 -134 -90 -160 -85 -9 2 -49 58 -90 130 l-74
126 -29 -33 c-16 -18 -29 -35 -29 -38 0 -4 11 -22 25 -42 33 -50 84 -207 68
-212 -8 -3 -5 -29 12 -91 23 -80 23 -88 8 -104 -14 -15 -14 -22 -4 -42 11 -20
8 -39 -19 -135 l-31 -111 31 -45 c46 -67 95 -56 161 33 33 45 39 48 57 30 21
-21 13 -53 -37 -136 -140 -233 -288 -373 -412 -389 -36 -5 -39 -8 -39 -38 l0
-31 63 7 c130 16 258 90 379 218 71 75 176 219 212 290 l18 33 241 -239 c236
-234 244 -241 320 -272 78 -32 248 -80 364 -102 58 -11 64 -10 92 11 38 27 39
51 3 82 -48 39 -183 95 -271 111 -196 37 -398 179 -638 447 -87 97 -94 108
-89 139 6 42 27 65 83 92 41 20 45 20 62 5 45 -40 154 49 223 181 65 124 178
468 178 540 0 34 -50 80 -95 89 -24 4 -96 -1 -189 -15 -218 -30 -196 -39 -196
77 0 53 5 117 11 142 7 31 7 46 0 48 -6 2 -11 21 -11 42 0 61 -19 135 -41 159
-16 17 -31 21 -77 21 -48 0 -62 -5 -92 -30z m536 -615 c-11 -117 -18 -155 -28
-155 -6 0 -25 13 -43 29 l-33 29 -99 -28 -98 -27 -22 26 c-12 14 -22 40 -23
57 0 27 7 36 48 62 26 17 79 46 118 65 68 32 73 33 129 23 l57 -11 -6 -70z
m-61 -237 c-17 -115 -98 -218 -218 -278 -83 -41 -87 -40 -87 23 0 68 37 129
114 187 53 40 172 109 189 110 5 0 6 -19 2 -42z m-511 -235 c-55 -51 -105 -93
-111 -93 -9 0 -13 16 -13 49 l0 50 108 65 c100 60 107 63 111 43 2 -17 -19
-43 -95 -114z m72 -109 c-3 -9 -6 -19 -6 -24 0 -21 -53 -70 -76 -70 -30 0 -31
18 -4 70 18 35 25 40 56 40 29 0 35 -3 30 -16z"/>
<path d="M1040 2515 c-7 -8 -10 -22 -6 -30 6 -17 240 -135 267 -135 8 0 28 13
44 30 26 27 27 32 15 55 -28 52 -95 77 -241 89 -52 5 -69 3 -79 -9z"/>
<path d="M1719 2400 c-14 -8 -15 -16 -7 -51 10 -39 9 -42 -41 -114 -28 -40
-51 -78 -51 -83 0 -5 9 -17 21 -27 19 -19 21 -19 56 0 20 11 67 50 105 86 64
63 68 69 68 112 0 41 -3 47 -34 66 -35 22 -90 27 -117 11z"/>
<path d="M928 1708 c-101 -90 -191 -169 -200 -176 -16 -13 -35 -11 -120 14
-29 9 -23 -45 9 -78 22 -24 35 -28 77 -28 50 1 54 3 186 110 103 84 136 105
138 92 2 -10 -16 -191 -38 -402 -44 -403 -46 -486 -16 -599 21 -77 37 -91 108
-91 l58 0 0 36 c0 163 107 598 236 961 44 126 53 173 33 173 -12 0 -159 -301
-214 -438 -20 -52 -46 -132 -57 -178 -19 -76 -24 -84 -45 -84 -23 0 -23 2 -18
68 12 136 27 230 56 346 19 77 26 123 20 129 -7 7 -7 17 0 28 14 26 49 169 49
200 0 26 -45 79 -68 79 -6 0 -94 -73 -194 -162z"/>
</g>
</svg>
