<?xml version="1.0" standalone="no"?>
<!DOCTYPE svg PUBLIC "-//W3C//DTD SVG 20010904//EN"
 "http://www.w3.org/TR/2001/REC-SVG-20010904/DTD/svg10.dtd">
<svg version="1.0" xmlns="http://www.w3.org/2000/svg"
 width="360.000000pt" height="360.000000pt" viewBox="0 0 360.000000 360.000000"
 preserveAspectRatio="xMidYMid meet">
<metadata>
Created by potrace 1.15, written by Peter Selinger 2001-2017
</metadata>
<g transform="translate(0.000000,360.000000) scale(0.100000,-0.100000)"
fill="#000000" stroke="none">
<path d="M2242 2767 c-29 -31 -28 -42 8 -87 26 -33 30 -46 30 -98 l0 -61 -59
-35 c-66 -40 -153 -81 -192 -90 -22 -5 -32 2 -65 43 -50 62 -92 91 -143 98
-40 5 -41 5 -41 -24 0 -20 11 -39 35 -63 30 -29 35 -40 35 -80 0 -64 -30 -87
-157 -120 -42 -10 -43 -12 -43 -50 l0 -40 88 0 c48 0 93 5 98 10 22 22 33 -12
21 -63 -8 -36 -7 -53 2 -71 10 -18 10 -27 0 -43 -9 -15 -9 -28 -2 -50 8 -22 5
-83 -11 -236 l-22 -207 36 -35 c20 -19 42 -35 50 -35 8 0 35 21 61 46 l47 46
56 -12 c45 -9 56 -15 56 -31 0 -40 -138 -116 -444 -243 -87 -36 -162 -66 -167
-66 -24 0 29 256 102 489 27 90 48 170 45 178 -3 8 -13 13 -22 11 -12 -2 -31
-48 -65 -160 -27 -86 -71 -219 -99 -295 -53 -141 -174 -398 -210 -443 l-20
-25 0 228 0 227 66 266 67 265 -44 45 c-24 24 -47 44 -51 44 -5 0 -50 -37
-101 -82 -172 -152 -319 -249 -399 -263 -29 -6 -43 -2 -67 14 -17 12 -45 21
-66 21 -33 0 -36 -2 -30 -22 11 -39 40 -72 89 -102 l46 -29 61 17 c74 20 164
65 289 144 52 33 96 59 98 57 1 -1 -2 -23 -8 -48 -35 -160 -43 -250 -47 -590
-4 -310 -3 -354 12 -393 20 -52 47 -74 91 -74 30 0 35 5 77 88 24 48 57 120
73 161 25 66 34 77 79 106 57 37 215 108 223 101 2 -3 -10 -64 -28 -136 -29
-116 -31 -136 -21 -170 19 -63 73 -87 135 -59 l25 12 -21 41 c-18 35 -20 52
-15 131 12 205 110 332 270 351 l57 7 1 -174 c1 -96 1 -177 0 -182 -1 -4 4
-28 9 -54 8 -34 8 -73 -1 -140 -11 -86 -13 -93 -34 -93 -15 0 -42 24 -89 80
-38 44 -71 80 -76 80 -4 0 -13 -7 -20 -15 -33 -40 37 -159 145 -245 83 -66
105 -64 140 13 39 86 80 330 64 375 -5 13 -9 33 -9 46 0 22 1 22 68 14 137
-18 305 -92 418 -184 60 -49 82 -54 109 -24 16 18 17 25 6 61 -27 89 -140 166
-336 229 -100 32 -154 35 -242 13 -23 -5 -23 -4 -23 110 0 112 1 116 26 136
74 58 290 101 508 101 l142 0 32 33 33 34 -21 26 c-31 39 -104 57 -229 57
-104 0 -110 -1 -263 -56 -152 -54 -159 -56 -183 -40 -30 20 -32 39 -6 72 23
29 55 161 77 311 12 91 54 502 54 538 0 6 37 16 87 24 156 22 183 48 119 110
-37 36 -45 37 -167 15 l-36 -6 -7 72 c-7 84 -25 131 -57 154 -34 23 -81 20
-107 -7z m16 -549 l-3 -132 -115 -27 c-186 -44 -170 -43 -170 -6 1 17 7 61 15
97 16 76 28 88 155 155 126 66 121 70 118 -87z m-198 -320 c0 -19 -31 -48 -52
-48 -26 0 -23 39 5 50 31 12 47 12 47 -2z m180 -52 c0 -41 -3 -45 -60 -90 -56
-45 -95 -56 -95 -29 0 19 125 163 141 163 10 0 14 -13 14 -44z"/>
<path d="M1141 2551 c-26 -26 -16 -52 32 -81 35 -22 171 -56 262 -65 55 -6 62
-5 83 18 27 29 23 44 -26 90 -41 39 -97 58 -135 45 -27 -10 -92 -7 -164 8 -24
5 -36 1 -52 -15z"/>
</g>
</svg>
