<?xml version="1.0" standalone="no"?>
<!DOCTYPE svg PUBLIC "-//W3C//DTD SVG 20010904//EN"
 "http://www.w3.org/TR/2001/REC-SVG-20010904/DTD/svg10.dtd">
<svg version="1.0" xmlns="http://www.w3.org/2000/svg"
 width="360.000000pt" height="360.000000pt" viewBox="0 0 360.000000 360.000000"
 preserveAspectRatio="xMidYMid meet">
<metadata>
Created by potrace 1.15, written by Peter Selinger 2001-2017
</metadata>
<g transform="translate(0.000000,360.000000) scale(0.100000,-0.100000)"
fill="#000000" stroke="none">
<path d="M2297 2758 c-81 -163 -116 -244 -142 -333 -8 -31 -21 -55 -29 -55 -7
0 -37 34 -66 75 l-54 76 -30 -30 -29 -30 27 -60 c32 -73 47 -191 26 -216 -19
-23 -89 -57 -100 -50 -6 3 -10 18 -10 32 0 68 -70 153 -167 202 -48 24 -72 27
-79 8 -2 -7 20 -73 51 -146 41 -101 52 -137 45 -151 -28 -53 -120 -97 -268
-130 -46 -10 -86 -21 -89 -23 -2 -3 0 -15 6 -26 19 -34 64 -51 138 -51 54 0
80 6 129 29 34 16 65 34 68 40 13 20 24 11 31 -25 21 -116 91 -236 156 -269
47 -25 78 -18 163 36 l81 52 35 -21 c28 -16 36 -27 38 -55 3 -28 -2 -39 -29
-61 -45 -39 -215 -137 -446 -261 l-203 -107 21 -29 c16 -23 28 -29 59 -29 53
0 163 35 239 76 35 19 66 33 68 30 3 -3 -27 -94 -67 -203 -40 -109 -74 -202
-76 -208 -2 -5 18 -25 46 -44 l50 -34 23 21 c13 12 26 22 29 22 4 0 73 -81
154 -180 82 -99 153 -179 159 -177 17 5 51 85 75 180 23 89 23 95 12 277 -7
102 -12 235 -12 297 0 62 -5 135 -11 163 -14 66 0 102 54 141 55 40 159 71
223 67 64 -4 84 11 84 63 0 21 -4 40 -8 43 -4 3 -71 -4 -148 -14 -201 -28
-189 -30 -210 33 -9 28 -19 57 -21 63 -2 6 19 26 48 44 43 26 56 30 71 21 39
-24 73 -13 106 33 18 24 32 49 32 54 0 24 -43 62 -78 68 -20 4 -40 9 -44 11
-14 8 43 104 87 148 62 62 125 79 236 65 128 -16 176 -13 210 11 37 26 37 57
0 94 l-30 28 -108 -13 c-59 -6 -139 -10 -178 -8 l-70 3 -3 38 c-2 25 9 70 33
135 31 83 36 104 30 147 -14 107 -70 186 -167 235 -34 16 -69 30 -78 30 -11 0
-40 -48 -93 -152z m138 -8 l38 -39 -13 -162 c-15 -181 -26 -213 -82 -241 -50
-26 -148 -36 -148 -16 0 16 119 478 127 491 10 17 42 4 78 -33z m-99 -637
c-14 -21 -30 -62 -36 -90 -13 -61 -29 -67 -85 -30 -31 20 -35 26 -35 69 l0 46
58 20 c31 11 72 21 90 21 l32 1 -24 -37z m-302 -95 c9 -12 16 -32 16 -43 1
-13 17 -30 46 -48 25 -15 44 -31 42 -35 -6 -15 -169 -155 -174 -149 -5 4 -44
239 -44 265 0 15 35 30 72 31 17 1 33 -7 42 -21z m196 -683 c0 -57 -5 -85 -22
-120 l-22 -46 22 -62 c20 -57 22 -80 22 -267 l-1 -205 -57 61 c-31 34 -92 100
-134 146 l-78 85 61 179 c33 98 64 202 67 229 l7 50 60 11 c33 7 63 12 68 13
4 1 7 -33 7 -74z"/>
<path d="M971 2486 c-16 -19 40 -80 101 -110 39 -20 67 -26 114 -26 35 0 66 5
69 10 4 6 25 -3 51 -22 44 -31 46 -32 72 -16 84 51 -16 176 -135 169 -91 -6
-189 -6 -225 1 -24 4 -40 2 -47 -6z"/>
<path d="M1130 1894 c-188 -166 -369 -294 -415 -294 -10 0 -33 10 -52 21 -33
20 -35 20 -53 4 -29 -26 -24 -59 13 -98 87 -92 206 -61 377 100 98 93 138 108
126 51 -37 -186 -96 -601 -96 -682 0 -23 14 -82 30 -131 21 -62 27 -91 19 -96
-22 -13 14 -184 47 -220 11 -12 30 -19 54 -19 l38 0 11 82 c36 251 127 645
208 901 37 118 44 150 34 160 -10 9 -15 8 -27 -8 -49 -64 -136 -277 -203 -494
-23 -74 -43 -137 -46 -139 -2 -2 -9 -1 -16 4 -9 5 -10 45 -6 158 7 170 22 277
74 549 34 180 35 189 18 207 -10 11 -25 20 -34 20 -9 -1 -54 -35 -101 -76z"/>
<path d="M2437 1228 c-43 -11 -76 -25 -74 -31 2 -6 76 -35 165 -65 l161 -53
-10 -26 c-5 -15 -8 -32 -5 -38 2 -7 46 -45 96 -84 102 -79 129 -86 186 -50 47
29 47 74 -1 139 -80 109 -187 185 -302 215 -74 19 -120 18 -216 -7z"/>
</g>
</svg>
