<?xml version="1.0" standalone="no"?>
<!DOCTYPE svg PUBLIC "-//W3C//DTD SVG 20010904//EN"
 "http://www.w3.org/TR/2001/REC-SVG-20010904/DTD/svg10.dtd">
<svg version="1.0" xmlns="http://www.w3.org/2000/svg"
 width="360.000000pt" height="360.000000pt" viewBox="0 0 360.000000 360.000000"
 preserveAspectRatio="xMidYMid meet">
<metadata>
Created by potrace 1.15, written by Peter Selinger 2001-2017
</metadata>
<g transform="translate(0.000000,360.000000) scale(0.100000,-0.100000)"
fill="#000000" stroke="none">
<path d="M2170 2785 l-32 -33 26 -119 c31 -142 32 -172 5 -207 -18 -23 -326
-184 -333 -175 -1 2 -8 47 -14 100 -23 191 -73 289 -147 289 -44 0 -49 -19
-21 -72 31 -55 43 -97 60 -192 11 -66 11 -78 0 -83 -9 -3 -14 -22 -14 -54 0
-65 -22 -119 -50 -119 -18 0 -20 4 -15 38 4 27 1 45 -13 65 l-20 29 -25 -28
c-14 -15 -33 -44 -42 -65 l-17 -37 42 -54 41 -54 60 10 c51 8 62 7 76 -7 13
-13 14 -19 5 -29 -19 -19 -14 -44 12 -56 67 -30 139 -134 123 -176 -7 -17
-377 -206 -402 -206 -18 0 -19 -4 3 61 35 102 36 109 7 109 -20 0 -30 -10 -53
-57 -16 -32 -35 -75 -41 -95 -7 -21 -18 -38 -24 -38 -28 0 -87 -22 -87 -32 0
-6 12 -26 26 -45 l26 -34 -113 -262 c-61 -144 -120 -282 -131 -306 l-19 -44
-24 23 c-22 20 -25 32 -25 89 0 146 49 450 132 827 10 45 9 58 -9 100 -10 27
-27 50 -35 52 -9 2 -62 -32 -119 -76 -184 -139 -274 -195 -340 -207 -28 -5
-38 -2 -58 19 l-23 25 -29 -21 c-16 -12 -29 -27 -29 -32 1 -6 23 -31 51 -55
l50 -44 63 6 c75 7 154 40 242 102 71 49 84 54 84 28 0 -10 -21 -202 -47 -427
-44 -389 -46 -410 -31 -451 15 -39 15 -44 1 -58 -15 -14 -14 -23 12 -92 44
-121 95 -164 138 -117 50 55 231 551 258 706 19 113 86 188 230 256 60 28 109
39 109 23 0 -4 -14 -74 -32 -155 l-32 -148 32 -33 33 -33 -93 -150 c-137 -222
-198 -346 -198 -404 0 -35 5 -52 21 -66 21 -19 21 -19 58 22 20 23 72 108 116
190 136 253 238 404 272 404 17 0 16 -40 -3 -286 l-7 -81 37 -22 c20 -13 41
-21 47 -19 6 2 26 44 45 93 71 183 200 394 247 403 9 2 28 -5 41 -15 25 -18
25 -20 26 -162 0 -232 29 -335 98 -356 17 -5 32 -12 32 -15 0 -4 -13 -19 -30
-35 -28 -27 -29 -30 -13 -47 15 -17 39 -18 322 -18 l306 0 38 31 c20 17 37 35
37 40 0 27 -63 99 -103 118 -40 19 -61 21 -244 21 -123 0 -213 4 -234 11 -82
28 -126 107 -115 211 19 192 19 208 2 253 -19 47 -72 101 -110 111 -38 9 -83
-21 -191 -131 l-101 -102 -44 19 c-56 24 -56 23 -38 50 62 94 186 209 331 306
53 36 97 72 97 79 0 8 -9 28 -20 43 -17 24 -24 27 -48 21 -66 -19 -206 -107
-376 -235 -85 -64 -86 -65 -86 -37 0 15 5 53 11 85 9 43 9 60 0 69 -24 24 -9
47 72 108 92 70 212 131 302 154 32 8 98 15 146 15 l86 0 42 45 c22 24 41 48
41 53 0 5 -11 19 -25 32 -23 22 -29 23 -117 17 -51 -4 -133 -16 -183 -28 -145
-34 -147 -34 -143 -13 4 24 216 432 228 439 5 3 39 1 75 -6 59 -10 68 -9 85 6
32 29 24 49 -46 105 -42 34 -63 58 -60 67 4 8 9 52 12 97 7 91 -4 127 -54 173
-48 44 -56 45 -92 8z m-74 -569 c-47 -106 -150 -246 -182 -246 -6 0 -23 9 -38
21 -21 17 -26 29 -26 66 0 42 5 51 43 87 45 44 205 138 218 130 5 -3 -2 -29
-15 -58z"/>
<path d="M1017 2443 c-4 -3 -7 -15 -7 -25 0 -14 19 -28 68 -50 37 -17 88 -51
115 -77 l47 -45 45 44 c43 44 44 46 35 82 -19 66 -46 78 -180 78 -64 0 -120
-3 -123 -7z"/>
</g>
</svg>
