<?xml version="1.0" standalone="no"?>
<!DOCTYPE svg PUBLIC "-//W3C//DTD SVG 20010904//EN"
 "http://www.w3.org/TR/2001/REC-SVG-20010904/DTD/svg10.dtd">
<svg version="1.0" xmlns="http://www.w3.org/2000/svg"
 width="360.000000pt" height="360.000000pt" viewBox="0 0 360.000000 360.000000"
 preserveAspectRatio="xMidYMid meet">
<metadata>
Created by potrace 1.15, written by Peter Selinger 2001-2017
</metadata>
<g transform="translate(0.000000,360.000000) scale(0.100000,-0.100000)"
fill="#000000" stroke="none">
<path d="M2052 2625 c-12 -19 -22 -38 -22 -42 0 -5 15 -33 34 -64 l34 -56 -13
-119 c-7 -73 -19 -132 -30 -154 -19 -38 -146 -173 -208 -222 -36 -29 -39 -30
-57 -13 -16 14 -20 31 -20 77 l0 58 -34 0 c-32 0 -33 -1 -45 -57 -24 -119 -9
-207 44 -260 73 -73 121 -35 241 191 48 92 59 106 81 106 25 0 26 -1 19 -56
-12 -106 -77 -195 -287 -397 -132 -128 -149 -147 -149 -176 0 -18 9 -46 21
-62 l20 -29 127 85 c87 59 128 81 130 71 7 -30 -129 -273 -199 -358 -21 -26
-39 -49 -39 -52 0 -13 46 -76 55 -76 6 0 41 36 79 81 90 106 103 105 126 -11
23 -111 45 -164 82 -195 38 -32 48 -32 86 8 l32 33 0 140 c0 134 1 142 23 162
20 19 35 22 100 22 66 0 86 -4 137 -30 85 -43 130 -39 130 10 0 36 -32 75 -83
102 -35 19 -63 23 -164 26 l-123 4 0 132 c0 77 -4 136 -10 142 -7 7 40 44 150
117 88 59 160 111 160 115 0 13 -31 52 -41 52 -5 0 -63 -22 -129 -50 -66 -27
-122 -50 -125 -50 -3 0 -5 15 -5 33 0 28 16 48 120 152 143 143 146 152 72
226 -40 40 -57 49 -109 60 l-61 13 -4 112 c-3 106 -5 115 -33 154 -16 23 -44
50 -60 60 l-30 19 -23 -34z m171 -477 c-18 -18 -36 -29 -39 -25 -10 10 36 57
55 57 11 0 6 -10 -16 -32z"/>
<path d="M996 2280 c-36 -11 -76 -48 -76 -70 0 -29 53 -70 91 -70 19 0 40 5
46 11 7 7 17 1 32 -24 l21 -34 52 9 c134 25 148 54 65 136 l-53 52 -74 -1
c-41 0 -88 -5 -104 -9z"/>
<path d="M1332 1808 l-21 -21 31 -57 32 -57 -21 -29 c-12 -18 -28 -74 -42
-147 -31 -171 -65 -270 -105 -309 -22 -22 -42 -60 -61 -116 -33 -95 -94 -213
-114 -220 -12 -4 -13 14 -8 99 7 118 37 286 104 569 45 192 45 195 28 227 -10
18 -24 33 -32 33 -43 0 -204 -110 -413 -283 -95 -79 -109 -87 -147 -87 -23 0
-45 5 -48 11 -8 12 -34 -19 -35 -42 0 -8 13 -27 28 -42 24 -23 37 -27 88 -27
l60 0 171 150 c157 137 203 169 203 139 0 -5 -25 -158 -55 -339 -60 -359 -68
-474 -40 -604 20 -97 35 -116 88 -116 43 0 43 0 62 53 78 222 214 539 237 553
8 5 82 -145 94 -191 5 -20 1 -23 -32 -30 -72 -13 -114 -35 -114 -60 0 -40 64
-69 115 -52 19 7 30 7 32 0 3 -7 25 -6 66 3 78 17 126 17 204 0 43 -9 65 -10
72 -3 7 7 59 -13 168 -65 87 -42 200 -92 251 -112 170 -67 390 -113 407 -86 5
8 10 9 14 2 5 -8 19 -8 48 0 30 7 60 7 104 -1 46 -8 81 -8 130 1 49 8 83 8
121 0 50 -10 55 -9 77 13 23 23 24 25 8 49 -39 59 -146 85 -391 93 -176 6
-179 6 -195 -16 l-17 -22 -104 24 c-66 16 -160 49 -251 90 -281 125 -329 140
-464 146 l-120 6 -39 74 c-52 99 -92 221 -105 317 l-11 79 55 143 c30 79 55
151 55 161 0 25 -36 68 -71 86 -63 33 -75 35 -97 13z"/>
</g>
</svg>
