<?xml version="1.0" standalone="no"?>
<!DOCTYPE svg PUBLIC "-//W3C//DTD SVG 20010904//EN"
 "http://www.w3.org/TR/2001/REC-SVG-20010904/DTD/svg10.dtd">
<svg version="1.0" xmlns="http://www.w3.org/2000/svg"
 width="360.000000pt" height="360.000000pt" viewBox="0 0 360.000000 360.000000"
 preserveAspectRatio="xMidYMid meet">
<metadata>
Created by potrace 1.15, written by Peter Selinger 2001-2017
</metadata>
<g transform="translate(0.000000,360.000000) scale(0.100000,-0.100000)"
fill="#000000" stroke="none">
<path d="M2312 2867 c-20 -21 -20 -26 -7 -132 15 -132 9 -152 -58 -212 -56
-49 -218 -133 -256 -133 -42 0 -51 17 -51 95 0 91 -18 233 -33 265 -9 18 -22
26 -45 28 -43 4 -47 -9 -27 -104 10 -46 18 -132 18 -204 2 -106 -1 -130 -16
-153 -27 -42 -44 -44 -82 -7 -34 33 -35 33 -55 15 -30 -27 -28 -104 3 -133 26
-25 104 -31 136 -10 15 9 25 7 55 -11 34 -21 38 -22 60 -8 17 12 25 29 30 65
11 86 84 163 187 197 44 15 53 15 65 3 13 -13 7 -32 -48 -153 -53 -119 -72
-149 -126 -207 -64 -68 -153 -131 -246 -174 -62 -29 -72 -30 -79 -4 -6 23 -29
26 -46 6 -8 -10 -5 -64 15 -217 36 -288 68 -431 99 -443 19 -7 69 9 120 39 50
29 65 31 65 10 0 -39 -140 -142 -370 -274 -119 -68 -124 -70 -147 -55 -19 12
-28 13 -38 4 -12 -10 -11 -19 7 -56 19 -38 25 -43 47 -37 42 10 179 71 273
120 85 45 118 50 118 19 0 -23 -79 -170 -154 -285 -36 -56 -66 -106 -66 -111
0 -6 11 -10 24 -10 51 0 222 233 238 323 23 128 117 214 304 278 84 28 247 61
369 74 89 9 258 -12 333 -41 72 -29 96 -28 100 4 8 55 -85 100 -264 127 -125
19 -176 19 -239 0 -59 -18 -305 -65 -341 -65 -28 0 -49 40 -39 77 8 33 72 93
99 93 20 0 45 37 175 260 113 194 151 268 149 288 -2 22 -15 33 -73 62 -75 37
-97 39 -232 25 -59 -6 -74 -5 -78 7 -3 7 38 98 92 201 l98 187 50 -7 c86 -12
127 -10 139 10 17 27 -2 48 -84 90 -41 21 -75 39 -77 41 -2 2 6 24 17 50 11
26 20 65 20 86 0 32 -6 42 -42 72 -61 49 -63 50 -86 25z m95 -850 l43 -22 -59
-122 c-72 -148 -141 -252 -212 -319 -56 -52 -129 -88 -170 -82 -21 3 -7 21
119 155 92 97 142 159 142 173 0 30 -18 60 -36 60 -25 0 -105 -45 -239 -134
-70 -47 -132 -83 -137 -80 -11 7 -10 51 3 98 16 58 96 137 188 185 76 39 271
111 301 110 8 0 34 -10 57 -22z m-437 -424 c0 -10 -103 -113 -113 -113 -4 0
-7 24 -5 52 3 50 5 53 33 59 43 9 85 10 85 2z"/>
<path d="M1092 2697 c-42 -44 -32 -58 124 -178 l146 -111 28 27 29 28 -21 38
c-18 32 -31 42 -83 59 -92 31 -154 73 -173 120 -10 22 -20 40 -23 40 -3 0 -15
-10 -27 -23z"/>
<path d="M1095 2003 c-11 -3 -63 -45 -115 -92 -178 -164 -266 -221 -339 -221
-36 0 -40 3 -46 31 -5 21 -12 29 -23 27 -23 -5 -21 -77 2 -112 15 -24 22 -26
92 -26 55 0 85 5 114 20 48 25 159 127 220 204 47 58 60 65 79 42 9 -10 8 -42
-4 -130 -60 -462 -59 -964 3 -1071 15 -24 26 -31 57 -33 l40 -3 129 498 c71
274 132 506 134 516 2 9 0 17 -6 17 -6 0 -18 -24 -27 -52 -10 -29 -28 -73 -41
-98 -13 -25 -42 -103 -65 -175 -48 -152 -95 -257 -133 -302 -33 -39 -51 -42
-60 -10 -14 53 -17 212 -7 331 7 78 8 133 2 139 -5 5 0 22 14 43 26 38 58 158
54 201 -2 15 2 44 8 63 6 19 14 66 18 104 5 58 3 70 -12 82 -18 13 -51 16 -88
7z"/>
<path d="M2320 915 c0 -2 48 -53 108 -112 59 -60 146 -159 193 -220 l87 -112
21 23 c25 26 26 55 6 122 -29 95 -128 189 -279 263 -72 35 -136 52 -136 36z"/>
</g>
</svg>
