<?xml version="1.0" standalone="no"?>
<!DOCTYPE svg PUBLIC "-//W3C//DTD SVG 20010904//EN"
 "http://www.w3.org/TR/2001/REC-SVG-20010904/DTD/svg10.dtd">
<svg version="1.0" xmlns="http://www.w3.org/2000/svg"
 width="360.000000pt" height="360.000000pt" viewBox="0 0 360.000000 360.000000"
 preserveAspectRatio="xMidYMid meet">
<metadata>
Created by potrace 1.15, written by Peter Selinger 2001-2017
</metadata>
<g transform="translate(0.000000,360.000000) scale(0.100000,-0.100000)"
fill="#000000" stroke="none">
<path d="M2170 2644 c0 -9 10 -32 21 -51 l21 -34 -23 -17 c-13 -9 -69 -33
-124 -53 -126 -44 -209 -88 -213 -113 -4 -18 1 -19 94 -13 151 8 272 52 359
129 47 41 45 67 -7 105 -49 34 -102 63 -118 63 -5 0 -10 -7 -10 -16z"/>
<path d="M1230 2507 c0 -34 33 -60 140 -111 133 -63 145 -65 181 -30 22 21 29
37 29 66 0 57 -15 62 -302 93 -45 5 -48 4 -48 -18z"/>
<path d="M2402 2415 c-14 -31 7 -55 49 -55 24 0 29 -4 29 -24 0 -63 -58 -167
-159 -284 -62 -72 -72 -92 -47 -92 22 0 63 35 204 174 160 158 161 161 75 248
-51 52 -62 58 -99 58 -34 0 -43 -4 -52 -25z"/>
<path d="M1702 2318 c-15 -18 -31 -93 -32 -143 0 -22 16 -121 36 -220 40 -206
47 -218 133 -230 51 -7 51 -7 51 -43 0 -48 -23 -132 -46 -171 l-18 -31 29 -30
c16 -16 36 -30 45 -30 22 0 148 106 169 141 16 29 41 39 41 18 0 -19 -124
-153 -346 -374 -259 -257 -269 -269 -260 -330 4 -25 12 -45 17 -45 5 0 54 23
109 50 55 28 106 50 114 50 10 0 6 -21 -19 -87 l-33 -87 31 -63 c29 -59 34
-63 65 -63 22 0 83 27 190 85 176 95 325 164 455 210 l87 31 -23 22 c-21 20
-34 22 -131 22 l-108 0 7 72 c10 107 20 154 39 182 23 35 164 101 280 131 100
25 160 29 252 16 49 -7 51 -6 63 21 7 15 11 35 9 45 -5 26 -57 51 -135 65
l-72 12 -179 -67 c-98 -37 -184 -67 -190 -67 -8 0 -12 20 -12 56 0 40 -6 67
-21 90 l-20 33 92 113 c51 62 97 119 102 126 7 9 3 20 -14 38 -20 21 -31 25
-60 21 -48 -6 -142 -52 -261 -126 -53 -34 -108 -61 -122 -61 -22 0 -26 4 -26
31 0 29 -1 30 -32 24 -18 -4 -41 -9 -50 -11 -12 -4 -18 0 -18 12 0 10 -36 112
-81 226 -56 144 -78 212 -71 221 5 7 9 37 8 67 -1 41 -5 55 -17 58 -9 1 -21
-3 -27 -10z m518 -860 c-1 -79 -96 -177 -249 -257 -54 -28 -101 -51 -105 -51
-14 0 -4 41 12 47 9 4 84 69 165 145 82 76 155 138 163 138 8 0 14 -10 14 -22z
m-50 -341 c0 -75 -25 -139 -77 -197 -49 -55 -146 -108 -211 -117 l-41 -5 40
123 c33 102 47 131 78 162 37 38 141 85 189 86 20 1 22 -4 22 -52z"/>
<path d="M2011 2297 c-17 -21 68 -293 97 -311 6 -3 21 -2 34 3 32 12 62 81 63
145 l0 51 -42 10 c-32 8 -50 22 -83 63 -45 56 -51 59 -69 39z"/>
<path d="M1225 1873 c-78 -70 -241 -186 -300 -214 -39 -19 -76 -29 -107 -29
-41 0 -49 4 -69 31 l-22 31 -18 -23 c-10 -13 -19 -29 -19 -34 0 -6 22 -32 48
-58 44 -44 51 -47 98 -47 66 0 142 38 249 125 44 36 86 65 94 65 11 0 12 -19
7 -97 -19 -295 -37 -763 -33 -865 4 -99 9 -124 29 -160 24 -43 70 -71 87 -52
7 8 262 1095 261 1117 0 4 -8 7 -18 7 -15 0 -36 -59 -127 -360 -102 -337 -110
-360 -132 -360 -23 0 -23 1 -23 138 0 219 28 451 83 698 22 97 22 102 5 113
-29 18 -51 12 -93 -26z"/>
<path d="M2581 1148 c-11 -18 -6 -27 50 -91 35 -40 69 -79 76 -88 7 -8 26 -76
43 -150 41 -182 71 -279 85 -279 6 0 21 10 33 23 27 28 29 89 7 204 -28 149
-118 289 -239 373 -42 28 -42 28 -55 8z"/>
</g>
</svg>
