<?xml version="1.0" standalone="no"?>
<!DOCTYPE svg PUBLIC "-//W3C//DTD SVG 20010904//EN"
 "http://www.w3.org/TR/2001/REC-SVG-20010904/DTD/svg10.dtd">
<svg version="1.0" xmlns="http://www.w3.org/2000/svg"
 width="360.000000pt" height="360.000000pt" viewBox="0 0 360.000000 360.000000"
 preserveAspectRatio="xMidYMid meet">
<metadata>
Created by potrace 1.15, written by Peter Selinger 2001-2017
</metadata>
<g transform="translate(0.000000,360.000000) scale(0.100000,-0.100000)"
fill="#000000" stroke="none">
<path d="M2170 2687 c0 -2 11 -36 24 -75 l25 -72 -126 -285 c-119 -270 -127
-285 -153 -285 -21 0 -30 8 -43 39 -18 41 -124 172 -144 179 -19 6 -16 -49 5
-105 10 -27 35 -74 55 -106 54 -83 52 -131 -8 -223 -24 -38 -45 -74 -45 -80 0
-6 12 -21 26 -35 l25 -24 66 68 c38 39 70 64 77 60 6 -4 34 -23 61 -44 73 -54
144 -94 214 -119 50 -19 75 -22 138 -18 76 5 182 39 227 73 18 13 18 15 -5 62
-25 52 -188 223 -212 223 -12 0 -12 -12 5 -79 l20 -78 -26 -28 c-23 -25 -30
-27 -81 -23 -56 5 -194 66 -244 109 l-25 20 24 72 c12 40 87 200 166 356 l144
283 -17 35 c-19 41 -106 103 -145 103 -16 0 -28 -1 -28 -3z"/>
<path d="M1203 2558 c-61 -12 -103 -25 -103 -32 0 -28 32 -56 63 -56 43 0 153
-26 200 -47 38 -16 38 -16 65 10 22 22 25 31 17 53 -13 35 -72 82 -110 88 -17
2 -76 -5 -132 -16z"/>
<path d="M1853 2570 c-45 -18 -17 -90 35 -90 27 0 27 -3 2 -75 -11 -32 -20
-64 -20 -72 0 -28 39 -11 98 43 48 43 62 62 62 84 0 31 -36 67 -101 100 -43
22 -45 22 -76 10z"/>
<path d="M2430 2271 c0 -28 3 -30 48 -36 111 -14 209 -61 271 -129 32 -34 41
-33 69 9 69 107 -8 149 -330 180 l-58 5 0 -29z"/>
<path d="M1197 1999 c-30 -7 -56 -27 -109 -84 -84 -90 -176 -161 -278 -214
-69 -36 -80 -39 -115 -31 -22 5 -48 10 -57 10 -29 0 -21 -33 15 -68 28 -27 40
-32 82 -32 83 0 200 69 365 214 79 69 106 82 97 44 -29 -108 -39 -182 -29
-198 8 -13 7 -21 -3 -31 -21 -21 -44 -119 -65 -287 -17 -128 -18 -164 -9 -222
9 -52 9 -91 0 -158 -9 -73 -8 -104 4 -173 19 -113 41 -181 66 -213 18 -23 28
-27 62 -24 l42 3 102 470 c104 477 111 517 93 499 -19 -19 -114 -242 -165
-389 -29 -82 -57 -151 -63 -153 -19 -6 -27 67 -27 233 0 174 19 299 89 590
l34 139 -31 43 c-32 45 -38 47 -100 32z"/>
<path d="M1599 1900 l-46 -40 -56 12 c-44 9 -59 9 -71 -1 -23 -19 -20 -47 9
-85 29 -38 49 -93 59 -158 4 -27 10 -48 14 -48 4 0 22 34 41 75 19 42 60 115
91 163 54 80 57 88 42 105 -21 24 -31 22 -83 -23z"/>
<path d="M1990 1400 c-194 -74 -289 -105 -297 -99 -12 11 -133 -44 -133 -60 0
-4 9 -16 21 -27 58 -52 169 -307 154 -354 -10 -33 -63 -69 -133 -90 -84 -26
-177 -37 -195 -22 -10 8 -16 6 -26 -10 -11 -18 -9 -24 15 -49 45 -47 101 -41
458 46 l307 75 218 0 218 0 169 -64 169 -64 23 21 c36 34 26 64 -42 119 -68
54 -189 120 -256 139 -25 6 -88 15 -140 18 -77 5 -95 9 -94 21 1 9 47 78 103
154 147 201 144 218 -68 312 -71 31 -114 44 -144 43 -28 0 -138 -37 -327 -109z
m378 -22 c43 -12 79 -23 80 -24 2 -1 -4 -29 -13 -61 -17 -60 -78 -180 -140
-277 l-36 -56 -54 0 c-37 0 -55 4 -55 13 0 27 40 169 56 199 12 23 18 59 19
118 1 47 5 91 9 98 11 18 48 15 134 -10z m-235 -40 c3 -13 9 -48 12 -79 7 -55
6 -59 -51 -163 -33 -58 -65 -106 -71 -106 -25 0 -93 182 -73 195 4 3 13 27 20
54 13 55 38 87 84 107 47 20 73 18 79 -8z m-288 -152 c16 -25 48 -163 61 -262
l6 -55 -33 3 c-31 3 -33 6 -45 59 -7 30 -32 99 -54 153 -23 53 -41 98 -39 99
2 1 13 7 24 14 33 19 63 15 80 -11z"/>
</g>
</svg>
