<?xml version="1.0" standalone="no"?>
<!DOCTYPE svg PUBLIC "-//W3C//DTD SVG 20010904//EN"
 "http://www.w3.org/TR/2001/REC-SVG-20010904/DTD/svg10.dtd">
<svg version="1.0" xmlns="http://www.w3.org/2000/svg"
 width="360.000000pt" height="360.000000pt" viewBox="0 0 360.000000 360.000000"
 preserveAspectRatio="xMidYMid meet">
<metadata>
Created by potrace 1.15, written by Peter Selinger 2001-2017
</metadata>
<g transform="translate(0.000000,360.000000) scale(0.100000,-0.100000)"
fill="#000000" stroke="none">
<path d="M2288 2985 c-63 -23 -149 -89 -253 -194 -55 -56 -103 -101 -107 -101
-5 0 -8 12 -8 28 0 35 -16 93 -32 115 -7 10 -30 20 -51 24 -33 5 -46 0 -106
-40 -80 -53 -164 -97 -186 -97 -10 0 -15 -10 -15 -34 0 -46 19 -59 73 -51 63
10 106 38 114 76 5 28 8 30 47 27 37 -3 41 -6 44 -31 5 -41 -26 -238 -48 -311
-27 -85 -52 -116 -96 -116 l-34 0 0 63 c0 49 -4 68 -18 80 -17 16 -20 15 -40
-6 -19 -20 -22 -35 -22 -115 0 -55 4 -93 11 -98 8 -5 8 -8 0 -13 -15 -10 4
-112 30 -163 22 -43 42 -47 79 -18 30 23 54 26 46 5 -3 -8 -57 -94 -121 -191
-121 -184 -215 -313 -259 -353 -14 -14 -26 -33 -26 -43 0 -21 28 -68 40 -68
15 0 224 275 267 352 78 138 172 225 293 269 62 23 77 24 295 24 299 0 418
-25 648 -132 l98 -46 22 21 21 22 -50 48 c-87 84 -256 138 -509 162 -170 16
-294 12 -426 -12 -65 -12 -121 -19 -125 -16 -3 3 19 51 48 107 64 122 72 124
167 48 86 -69 89 -71 107 -56 44 37 130 262 213 559 56 202 56 205 4 255 -40
39 -71 44 -135 20z m68 -98 c2 -7 -9 -81 -25 -163 -58 -286 -127 -464 -180
-464 -21 0 -101 80 -101 101 0 10 16 44 35 76 32 54 34 63 24 91 -10 30 -14
32 -60 32 -54 0 -49 7 -69 -104 -5 -32 -23 -85 -39 -116 -31 -63 -89 -140
-104 -140 -13 0 -3 93 18 155 24 73 118 267 156 322 64 92 155 167 249 204 54
22 89 24 96 6z"/>
<path d="M1090 2745 c0 -19 19 -38 98 -93 128 -90 120 -87 143 -66 25 22 26
85 2 106 -32 28 -81 48 -153 63 -91 19 -90 19 -90 -10z"/>
<path d="M1055 2064 c-89 -82 -230 -192 -291 -229 -43 -26 -68 -35 -94 -33
-23 2 -41 -3 -56 -17 l-22 -19 55 -34 c48 -29 60 -32 85 -23 43 15 150 89 248
170 94 78 138 93 125 44 -43 -172 -68 -433 -69 -723 -1 -226 1 -248 19 -285
15 -31 26 -40 45 -40 21 0 28 9 48 59 13 32 37 118 53 190 32 149 111 607 105
613 -6 7 -61 -139 -118 -314 -72 -223 -82 -220 -75 20 5 184 21 285 86 550
l18 78 -27 19 c-45 32 -78 25 -135 -26z"/>
<path d="M1999 1914 c-10 -12 -10 -20 -1 -35 7 -10 12 -28 12 -39 0 -12 -70
-105 -165 -218 -146 -175 -165 -201 -165 -233 0 -67 12 -65 195 38 94 53 176
98 183 100 39 16 -27 -97 -162 -276 -40 -53 -76 -102 -80 -109 -11 -18 31 -62
60 -62 13 0 57 25 99 54 103 75 208 126 256 126 35 0 39 -3 39 -25 0 -13 -20
-71 -46 -127 -103 -234 -240 -465 -341 -578 -59 -66 -153 -136 -193 -145 -21
-5 -30 -13 -30 -26 0 -15 7 -19 36 -19 31 0 51 12 123 72 316 265 499 535 530
788 10 77 9 84 -11 114 -12 17 -22 32 -22 33 -1 1 -46 -7 -101 -17 -111 -21
-145 -24 -145 -12 0 4 41 56 90 114 50 59 90 115 90 125 0 10 -14 35 -31 56
-28 34 -35 37 -82 37 -36 0 -60 -6 -77 -20 -26 -20 -65 -26 -74 -11 -3 4 25
57 63 117 55 87 68 115 64 137 -10 50 -84 77 -114 41z"/>
</g>
</svg>
