<?xml version="1.0" standalone="no"?>
<!DOCTYPE svg PUBLIC "-//W3C//DTD SVG 20010904//EN"
 "http://www.w3.org/TR/2001/REC-SVG-20010904/DTD/svg10.dtd">
<svg version="1.0" xmlns="http://www.w3.org/2000/svg"
 width="360.000000pt" height="360.000000pt" viewBox="0 0 360.000000 360.000000"
 preserveAspectRatio="xMidYMid meet">
<metadata>
Created by potrace 1.15, written by Peter Selinger 2001-2017
</metadata>
<g transform="translate(0.000000,360.000000) scale(0.100000,-0.100000)"
fill="#000000" stroke="none">
<path d="M2181 2891 c-11 -7 -5 -19 29 -58 80 -90 84 -107 76 -343 -4 -113 -9
-226 -13 -252 l-5 -46 -202 -86 c-110 -48 -250 -113 -311 -144 -95 -50 -110
-61 -110 -82 0 -60 129 -28 409 101 83 38 156 68 164 67 18 -4 -100 -238 -183
-363 -80 -120 -181 -248 -292 -372 -46 -50 -83 -100 -83 -111 0 -10 9 -27 20
-37 19 -17 20 -16 48 7 48 40 200 205 367 398 86 99 161 180 166 180 5 0 9
-101 9 -249 0 -217 3 -261 21 -336 11 -48 18 -99 14 -113 -3 -15 3 -73 13
-128 15 -81 17 -111 8 -148 -9 -37 -15 -46 -32 -46 -58 0 -245 129 -269 185
-14 34 -52 54 -74 40 -20 -12 -11 -61 20 -108 27 -41 155 -153 245 -215 26
-18 32 -30 37 -73 8 -64 30 -99 62 -99 46 0 75 59 97 199 9 63 6 121 -22 428
-27 289 -32 367 -23 416 6 40 6 76 0 102 -6 26 -5 126 4 288 l12 248 27 19
c15 10 49 28 76 39 42 16 58 18 104 9 135 -25 307 40 260 97 -22 27 -80 38
-164 31 -83 -6 -207 -36 -255 -61 -26 -13 -27 -12 -40 17 -11 25 -11 65 -2
232 14 227 11 244 -49 304 -56 57 -126 84 -159 63z"/>
<path d="M1257 2495 c-44 -17 -89 -46 -135 -89 l-32 -30 -44 21 c-44 22 -44
22 -62 2 -17 -19 -16 -21 16 -54 19 -19 43 -35 55 -35 11 0 79 31 150 69 140
76 134 75 203 24 52 -39 72 -89 72 -182 0 -76 -23 -486 -36 -638 l-6 -73 -34
0 c-54 0 -82 38 -138 186 l-27 72 21 119 c31 187 27 216 -36 228 -33 6 -40 3
-75 -31 -47 -46 -49 -71 -15 -172 l25 -71 -25 -108 c-37 -167 -62 -233 -85
-233 -5 0 -9 135 -9 300 0 257 -2 306 -16 333 -21 42 -62 85 -98 104 l-29 15
9 -159 c4 -87 7 -167 6 -178 -1 -11 -3 -69 -6 -130 -2 -60 -7 -154 -11 -207
-6 -73 -5 -101 5 -113 10 -12 10 -18 1 -29 -15 -18 -5 -40 33 -75 19 -18 26
-35 26 -60 0 -59 -27 -165 -55 -221 -26 -52 -100 -140 -117 -140 -4 0 -13 12
-19 26 -9 26 -10 26 -29 9 -15 -13 -20 -31 -20 -65 0 -58 29 -90 82 -90 51 0
82 39 217 273 126 219 114 209 196 162 41 -23 207 -189 259 -258 33 -43 62
-48 94 -14 35 38 28 67 -30 123 -84 81 -205 180 -295 241 -46 31 -83 63 -83
71 0 16 30 124 36 131 3 3 33 -27 68 -65 88 -97 203 -156 225 -116 23 42 54
330 86 785 l16 227 -21 30 c-31 43 -70 68 -136 85 -71 18 -126 18 -177 0z"/>
</g>
</svg>
