<?xml version="1.0" standalone="no"?>
<!DOCTYPE svg PUBLIC "-//W3C//DTD SVG 20010904//EN"
 "http://www.w3.org/TR/2001/REC-SVG-20010904/DTD/svg10.dtd">
<svg version="1.0" xmlns="http://www.w3.org/2000/svg"
 width="360.000000pt" height="360.000000pt" viewBox="0 0 360.000000 360.000000"
 preserveAspectRatio="xMidYMid meet">
<metadata>
Created by potrace 1.15, written by Peter Selinger 2001-2017
</metadata>
<g transform="translate(0.000000,360.000000) scale(0.100000,-0.100000)"
fill="#000000" stroke="none">
<path d="M1799 3094 l-31 -32 31 -45 c30 -44 31 -49 31 -156 l0 -110 -151 -90
c-82 -50 -157 -91 -165 -91 -11 0 -14 20 -14 100 0 114 -14 191 -38 213 -16
14 -20 14 -50 -5 -38 -24 -38 -24 -12 -183 16 -97 17 -127 8 -158 -11 -37 -13
-38 -47 -32 -52 10 -90 33 -103 61 -14 29 -28 27 -47 -8 -27 -47 34 -122 172
-213 13 -9 13 -26 4 -133 l-10 -122 -229 -288 c-125 -158 -228 -294 -228 -303
0 -23 33 -49 62 -49 18 0 78 40 188 125 90 69 166 125 169 125 4 0 13 -19 21
-42 12 -34 22 -45 48 -53 42 -12 41 -25 -3 -172 -52 -171 -81 -324 -69 -371 8
-35 11 -37 48 -37 31 0 43 6 60 28 17 23 18 31 8 47 -11 17 0 36 89 157 56 76
106 143 112 148 16 17 -3 -131 -28 -221 -44 -151 -136 -324 -260 -488 -42 -56
-55 -82 -55 -108 0 -31 23 -68 43 -68 3 0 48 56 100 125 97 129 193 291 243
408 21 49 33 66 44 62 8 -4 58 -9 110 -12 l96 -6 55 62 c120 136 198 320 199
468 0 38 5 45 53 84 140 115 239 220 317 334 72 107 90 148 90 205 0 47 -5 57
-55 121 -55 68 -57 69 -104 69 -36 0 -113 -25 -325 -106 -316 -120 -312 -119
-294 -25 15 86 61 165 150 257 79 82 81 85 75 124 -6 49 -42 99 -90 124 -33
18 -35 23 -41 83 -12 120 -63 214 -121 225 -18 4 -32 -4 -56 -28z m-9 -552 c0
-41 -39 -89 -181 -227 l-124 -120 -3 43 c-9 129 77 241 236 308 72 29 72 29
72 -4z m722 -219 c24 -22 23 -85 -2 -142 -27 -58 -96 -156 -183 -258 -79 -93
-72 -91 -222 -74 -41 5 -98 4 -137 -2 -65 -10 -69 -9 -93 13 -21 20 -25 33
-25 79 1 111 62 189 208 264 110 56 344 134 411 136 14 1 33 -6 43 -16z m-780
-183 c-49 -43 -240 -152 -258 -148 -17 4 202 248 254 283 l37 25 3 -62 c3 -62
3 -63 -36 -98z m18 -183 c0 -49 -18 -62 -47 -35 l-23 22 22 23 c31 33 48 29
48 -10z m-86 -127 c84 -65 86 -82 15 -165 -28 -33 -59 -77 -70 -97 -21 -41
-34 -46 -64 -25 -17 13 -15 19 35 116 42 79 51 104 42 113 -10 10 -17 10 -32
0 -11 -6 -31 -12 -45 -12 -22 0 -25 4 -25 34 0 27 7 40 33 60 17 14 35 26 38
26 3 0 36 -23 73 -50z m425 -163 c23 -104 -32 -246 -163 -425 l-47 -63 -44 37
c-44 35 -45 38 -45 93 0 60 16 131 29 131 5 0 11 30 15 66 15 146 75 213 192
214 l51 0 12 -53z"/>
<path d="M2001 912 l97 -81 127 -223 c70 -123 129 -225 131 -226 4 -6 64 31
64 39 0 18 -61 192 -88 251 -62 137 -159 250 -250 290 -25 11 -75 23 -111 26
l-66 5 96 -81z"/>
</g>
</svg>
