<?xml version="1.0" standalone="no"?>
<!DOCTYPE svg PUBLIC "-//W3C//DTD SVG 20010904//EN"
 "http://www.w3.org/TR/2001/REC-SVG-20010904/DTD/svg10.dtd">
<svg version="1.0" xmlns="http://www.w3.org/2000/svg"
 width="360.000000pt" height="360.000000pt" viewBox="0 0 360.000000 360.000000"
 preserveAspectRatio="xMidYMid meet">
<metadata>
Created by potrace 1.15, written by Peter Selinger 2001-2017
</metadata>
<g transform="translate(0.000000,360.000000) scale(0.100000,-0.100000)"
fill="#000000" stroke="none">
<path d="M1695 2964 c-159 -29 -292 -53 -293 -54 -2 0 11 -19 29 -41 l33 -41
115 4 c100 3 124 8 175 31 69 32 80 26 72 -38 -4 -30 0 -47 14 -65 16 -20 20
-42 20 -111 l0 -86 -163 -77 c-89 -42 -169 -76 -178 -76 -26 0 -39 23 -39 71
0 67 -18 150 -37 171 -20 22 -52 23 -60 2 -3 -8 4 -77 15 -152 12 -75 20 -137
19 -138 -1 -1 -80 -41 -176 -89 l-174 -86 -31 30 c-34 33 -82 42 -92 17 -7
-18 68 -295 106 -394 39 -100 51 -112 116 -112 29 0 56 5 59 10 11 17 23 11
42 -20 12 -21 25 -30 43 -30 41 0 119 44 214 120 48 38 89 70 91 70 15 0 0
-42 -39 -109 -115 -201 -201 -395 -242 -546 -30 -114 -31 -145 -1 -173 26 -24
79 -29 95 -9 5 6 31 64 57 127 82 202 165 340 204 340 8 0 11 -48 11 -160 l0
-160 -105 -207 c-121 -239 -197 -353 -261 -392 -40 -24 -43 -29 -44 -67 0 -57
15 -67 66 -45 50 23 120 101 185 205 51 83 157 295 199 399 l24 57 76 0 c70 0
81 3 118 30 65 46 128 134 195 270 75 149 142 347 133 385 -15 58 -101 101
-195 98 -78 -3 -215 -84 -419 -249 -18 -15 -35 -25 -38 -22 -5 6 124 215 155
252 54 64 316 232 639 411 117 65 212 123 212 129 0 21 -38 74 -72 99 -73 55
-210 81 -483 89 l-80 3 -6 46 c-8 53 -28 96 -58 123 -13 12 -21 31 -21 51 0
31 2 33 45 39 56 7 85 22 85 43 0 22 -39 83 -53 82 -7 -1 -142 -25 -302 -55z
m693 -449 c42 -17 62 -39 62 -69 0 -9 -5 -16 -12 -16 -6 0 -19 -6 -27 -14 -21
-17 -564 -246 -585 -246 -19 0 -16 22 21 120 45 122 115 204 200 236 56 21
283 14 341 -11z m-618 -148 c0 -22 -187 -264 -196 -254 -9 9 46 163 72 203 44
69 124 101 124 51z m-357 -166 c20 -8 25 -19 31 -61 7 -54 40 -100 71 -100 26
0 16 -29 -27 -76 -48 -52 -238 -194 -260 -194 -7 0 -24 7 -36 16 -17 12 -22
25 -22 63 0 63 -25 143 -56 180 -40 47 -30 71 36 88 30 7 91 31 135 52 89 44
93 45 128 32z m718 -382 c24 -17 29 -27 29 -63 0 -130 -88 -313 -228 -472 -39
-44 -53 -54 -80 -54 -18 0 -35 6 -38 13 -2 7 5 75 16 150 11 76 20 169 20 207
l0 68 50 42 c57 47 179 130 193 130 5 0 22 -9 38 -21z"/>
<path d="M2110 1105 c-10 -12 4 -63 74 -272 58 -175 82 -259 75 -264 -17 -10
-2 -93 22 -123 16 -20 30 -26 59 -26 61 0 66 13 52 148 -15 146 -41 244 -95
346 -36 71 -146 206 -167 206 -4 0 -13 -7 -20 -15z"/>
</g>
</svg>
