<?xml version="1.0" standalone="no"?>
<!DOCTYPE svg PUBLIC "-//W3C//DTD SVG 20010904//EN"
 "http://www.w3.org/TR/2001/REC-SVG-20010904/DTD/svg10.dtd">
<svg version="1.0" xmlns="http://www.w3.org/2000/svg"
 width="360.000000pt" height="360.000000pt" viewBox="0 0 360.000000 360.000000"
 preserveAspectRatio="xMidYMid meet">
<metadata>
Created by potrace 1.15, written by Peter Selinger 2001-2017
</metadata>
<g transform="translate(0.000000,360.000000) scale(0.100000,-0.100000)"
fill="#000000" stroke="none">
<path d="M2031 2776 c-34 -36 -25 -69 22 -80 l37 -10 0 -173 0 -174 -47 -20
c-27 -12 -81 -28 -120 -37 -69 -15 -73 -17 -73 -43 0 -38 37 -59 104 -59 30 0
58 5 61 10 11 18 35 -9 35 -39 0 -67 -104 -176 -244 -256 -66 -38 -88 -45
-118 -42 -43 6 -68 -15 -68 -55 0 -38 29 -58 84 -58 42 0 59 8 144 64 107 71
220 130 268 140 38 8 41 3 49 -96 6 -69 -24 -351 -39 -366 -8 -8 -156 40 -156
50 0 5 34 52 75 103 41 52 75 97 75 99 0 2 -16 14 -36 27 l-36 22 -134 -23
c-127 -22 -134 -24 -134 -47 0 -33 31 -60 79 -68 23 -4 41 -12 41 -18 0 -7
-36 -52 -80 -102 -44 -49 -80 -98 -80 -108 0 -21 54 -47 100 -47 16 0 30 -5
30 -11 0 -6 -64 -87 -141 -181 l-142 -169 20 -27 c15 -20 30 -28 60 -30 36 -3
55 6 173 84 147 96 163 98 136 17 -31 -93 -101 -197 -225 -334 -39 -43 -71
-82 -71 -88 0 -6 17 -11 37 -11 33 0 47 11 172 135 120 119 139 141 160 197
59 156 144 297 203 339 19 14 74 31 151 46 67 13 141 33 167 45 25 12 85 27
133 33 54 8 95 19 104 28 15 15 14 19 -8 51 -14 21 -30 34 -39 31 -65 -18
-514 -114 -518 -110 -3 2 7 96 22 207 l26 203 -50 73 c-28 40 -50 78 -48 84 2
6 85 42 183 80 140 53 184 66 197 58 10 -5 49 -10 88 -10 70 0 70 0 70 -28 0
-25 -11 -34 -97 -82 -138 -78 -203 -127 -203 -152 0 -18 4 -19 35 -14 82 16
448 195 470 230 16 27 -86 120 -155 140 -100 30 -182 22 -402 -39 -109 -30
-201 -55 -204 -55 -11 0 5 125 21 171 9 24 27 58 41 76 21 28 31 33 68 33 96
0 140 41 94 86 -23 24 -26 24 -102 13 -97 -15 -112 -6 -95 56 14 51 6 145 -16
183 -20 33 -55 57 -100 66 -25 5 -35 2 -54 -18z m79 -1398 c0 -7 -33 -45 -72
-85 -61 -61 -78 -73 -105 -73 -43 0 -43 20 0 43 18 10 60 42 92 72 59 54 85
66 85 43z"/>
<path d="M1308 2407 c-48 -25 -148 -82 -222 -127 l-136 -81 0 -41 c0 -23 5
-69 11 -104 9 -51 7 -92 -11 -234 -18 -145 -20 -180 -10 -216 10 -35 10 -63 0
-138 -12 -86 -12 -98 6 -152 18 -57 20 -59 57 -62 28 -2 39 1 44 14 3 9 1 89
-4 178 -9 142 -8 185 11 363 17 161 20 218 12 283 -6 49 -6 84 0 89 17 16 377
181 382 176 3 -3 0 -82 -6 -175 -9 -125 -9 -182 -1 -214 8 -35 6 -101 -11
-307 -12 -145 -23 -266 -26 -268 -9 -9 -43 35 -82 106 l-39 73 30 160 29 160
-19 37 c-12 23 -36 47 -61 61 l-42 23 -30 -21 c-16 -12 -30 -27 -30 -34 0 -7
9 -82 21 -167 24 -180 21 -258 -16 -399 -56 -206 -182 -419 -379 -640 l-76
-85 23 -17 c12 -10 25 -18 28 -18 3 0 62 51 130 114 l124 114 135 256 c98 185
140 256 153 256 11 0 17 -8 17 -22 1 -55 79 -168 116 -168 7 0 29 19 49 43 26
30 35 49 32 66 -3 14 -1 32 3 40 5 9 22 245 39 525 28 460 30 511 16 532 -21
33 -64 53 -127 60 -49 5 -60 2 -140 -39z"/>
<path d="M2345 1069 c-4 -6 35 -54 86 -107 72 -74 124 -143 219 -289 98 -151
130 -193 146 -193 42 0 49 23 31 113 -36 184 -147 319 -363 442 -80 46 -108
54 -119 34z"/>
<path d="M1192 1048 c-8 -10 36 -57 174 -186 158 -149 188 -173 211 -170 35 4
41 34 19 92 -31 80 -126 159 -280 232 -102 48 -109 50 -124 32z"/>
</g>
</svg>
