<?xml version="1.0" standalone="no"?>
<!DOCTYPE svg PUBLIC "-//W3C//DTD SVG 20010904//EN"
 "http://www.w3.org/TR/2001/REC-SVG-20010904/DTD/svg10.dtd">
<svg version="1.0" xmlns="http://www.w3.org/2000/svg"
 width="360.000000pt" height="360.000000pt" viewBox="0 0 360.000000 360.000000"
 preserveAspectRatio="xMidYMid meet">
<metadata>
Created by potrace 1.15, written by Peter Selinger 2001-2017
</metadata>
<g transform="translate(0.000000,360.000000) scale(0.100000,-0.100000)"
fill="#000000" stroke="none">
<path d="M1486 2885 c-22 -33 -21 -36 20 -76 41 -39 87 -122 82 -148 -3 -18
-211 -211 -227 -211 -20 0 -33 57 -22 96 9 34 8 41 -11 61 -29 31 -38 29 -77
-11 -33 -34 -33 -35 -26 -98 9 -76 27 -124 62 -160 23 -24 35 -28 82 -28 46 1
63 6 95 30 22 17 46 30 53 30 68 0 -139 -182 -306 -269 -73 -38 -81 -40 -81
-22 0 16 -9 21 -47 26 -65 8 -132 26 -139 36 -3 5 -20 9 -37 9 l-33 0 10 -70
c8 -61 5 -98 -23 -281 -39 -245 -38 -259 29 -259 37 0 42 3 56 35 18 45 41
196 50 338 4 59 8 107 9 107 1 0 28 -9 61 -21 42 -15 74 -19 111 -16 69 7 179
60 197 95 50 96 259 173 711 262 138 27 173 31 250 25 165 -11 176 -14 173
-43 -3 -21 -22 -33 -138 -87 -127 -58 -159 -82 -130 -100 22 -14 406 75 465
108 61 34 57 51 -31 141 -108 109 -156 137 -169 96 -8 -25 -23 -25 -102 -1
l-63 19 -245 -35 c-135 -20 -249 -33 -252 -29 -3 3 30 44 73 92 43 47 96 106
117 130 l38 43 -41 61 c-24 35 -48 60 -58 60 -10 0 -67 -9 -127 -20 -60 -11
-112 -20 -116 -20 -3 0 -19 18 -34 41 -58 82 -174 118 -209 64z m319 -201 c34
-4 55 -3 59 5 10 15 36 14 36 -2 0 -43 -136 -167 -182 -167 -16 0 -18 10 -18
78 0 79 11 108 38 97 8 -3 37 -8 67 -11z"/>
<path d="M1835 2139 c-119 -17 -265 -78 -369 -153 -38 -27 -54 -33 -67 -25
-28 15 -52 11 -83 -14 -33 -26 -31 -57 4 -57 11 0 29 -9 40 -20 17 -17 20 -33
20 -125 0 -97 2 -109 31 -167 l31 -63 -77 -264 -77 -263 38 -39 c31 -32 45
-39 75 -39 l37 0 28 83 c31 94 75 187 98 206 35 29 34 -3 -4 -113 -98 -285
-188 -473 -252 -531 -48 -44 -46 -71 4 -61 93 19 205 181 308 446 18 47 37 89
42 95 5 5 28 -10 57 -39 l49 -48 56 12 c56 11 57 11 96 -20 25 -19 91 -108
174 -233 154 -232 178 -260 227 -255 50 5 49 33 -7 136 -121 224 -254 389
-333 413 -55 16 -54 37 9 163 56 114 100 265 100 345 0 48 -5 60 -41 108 -33
43 -46 52 -63 48 -48 -14 -169 -79 -288 -154 -120 -77 -148 -91 -148 -73 0 12
179 184 303 291 59 51 107 98 107 104 0 7 -5 32 -11 56 -10 43 -9 45 26 81 41
42 44 70 13 135 -25 50 -30 52 -153 34z m-25 -168 c0 -53 -110 -179 -228 -260
-18 -13 -34 -22 -36 -20 -36 50 -46 73 -46 110 0 39 5 48 56 97 67 65 141 102
207 102 45 0 47 -1 47 -29z m176 -491 c-13 -110 -78 -263 -154 -359 l-20 -24
-56 23 c-49 20 -56 26 -56 51 0 87 47 208 103 268 49 51 128 101 161 101 l29
0 -7 -60z"/>
</g>
</svg>
