<?xml version="1.0" standalone="no"?>
<!DOCTYPE svg PUBLIC "-//W3C//DTD SVG 20010904//EN"
 "http://www.w3.org/TR/2001/REC-SVG-20010904/DTD/svg10.dtd">
<svg version="1.0" xmlns="http://www.w3.org/2000/svg"
 width="360.000000pt" height="360.000000pt" viewBox="0 0 360.000000 360.000000"
 preserveAspectRatio="xMidYMid meet">
<metadata>
Created by potrace 1.15, written by Peter Selinger 2001-2017
</metadata>
<g transform="translate(0.000000,360.000000) scale(0.100000,-0.100000)"
fill="#000000" stroke="none">
<path d="M1800 2671 c0 -34 70 -79 168 -107 6 -2 12 -14 12 -28 0 -29 24 -56
49 -56 9 0 36 19 59 43 37 38 42 47 33 68 -28 72 -87 99 -221 99 -92 0 -100
-2 -100 -19z"/>
<path d="M2075 2344 c-141 -92 -328 -202 -364 -215 -24 -8 -35 -8 -46 1 -9 8
-15 9 -15 2 0 -6 -9 -14 -20 -17 -29 -9 -25 -38 9 -58 51 -30 113 -22 191 23
38 22 71 40 74 40 14 0 4 -28 -15 -46 -50 -45 -116 -213 -140 -356 -12 -72
-11 -79 6 -98 10 -11 24 -20 31 -20 8 0 90 72 183 160 93 88 172 160 175 160
3 0 6 -15 6 -33 0 -31 -19 -53 -197 -228 -282 -277 -430 -383 -538 -384 -52 0
-74 -14 -75 -48 0 -23 42 -87 58 -87 26 0 137 42 223 86 49 24 95 44 102 44
11 0 9 -28 -9 -142 l-23 -143 25 -115 c47 -218 94 -340 128 -340 8 0 37 22 63
48 55 55 159 119 261 162 l70 30 134 -12 c161 -13 188 -9 188 30 0 22 -15 40
-75 91 l-76 63 21 32 c39 57 99 191 106 232 6 41 6 41 -61 97 -36 32 -74 57
-83 57 -41 0 -128 -33 -272 -103 -85 -41 -186 -86 -223 -99 -78 -26 -82 -24
-93 51 -22 146 189 274 636 387 187 46 222 49 354 26 l110 -20 18 22 c23 27
22 42 -1 65 -23 23 -70 38 -168 52 -57 8 -91 7 -163 -6 -104 -18 -266 -59
-315 -79 -20 -9 -35 -11 -37 -5 -2 6 -36 -4 -75 -20 -40 -17 -79 -31 -87 -31
-9 0 35 70 114 183 127 178 141 208 120 247 -34 63 -160 15 -341 -128 -72 -57
-79 -60 -79 -38 0 81 122 244 300 401 90 79 105 106 78 133 -7 7 -30 12 -52
12 -33 0 -60 -13 -141 -66z m272 -1116 c35 -32 28 -63 -31 -153 -107 -160
-261 -278 -365 -279 l-45 -1 -42 105 c-24 58 -43 116 -44 129 l0 24 23 -21 22
-21 225 118 c124 66 227 119 229 120 3 1 15 -9 28 -21z"/>
<path d="M1228 2305 c-61 -23 -122 -70 -205 -160 -43 -47 -84 -85 -90 -85 -19
0 -41 41 -49 90 -9 59 -28 80 -74 80 l-38 0 -8 -267 c-13 -383 -10 -556 10
-646 22 -98 44 -127 97 -127 24 0 42 5 45 13 3 8 -4 70 -16 137 -17 97 -19
133 -11 169 5 25 13 82 16 125 19 226 122 406 301 526 121 80 114 92 114 -192
-1 -233 -7 -332 -31 -445 -11 -56 -46 -117 -69 -120 -8 -1 -34 22 -57 52 l-43
54 0 176 c0 163 -2 179 -21 206 -27 38 -43 37 -68 -5 -20 -31 -21 -48 -21
-239 0 -215 -9 -310 -40 -433 -45 -173 -103 -277 -222 -396 -78 -77 -88 -91
-88 -122 0 -20 2 -36 5 -36 2 0 27 5 54 11 49 10 54 15 133 117 46 59 113 138
149 177 65 68 67 69 95 56 60 -27 161 -102 224 -165 l65 -65 32 31 c18 18 33
39 33 47 0 26 -103 116 -230 200 -67 44 -127 81 -133 81 -12 0 -5 56 17 132
l17 58 69 -35 c82 -41 105 -37 144 22 60 93 92 275 108 629 l12 251 -32 41
c-54 67 -116 86 -194 57z"/>
</g>
</svg>
