<?xml version="1.0" standalone="no"?>
<!DOCTYPE svg PUBLIC "-//W3C//DTD SVG 20010904//EN"
 "http://www.w3.org/TR/2001/REC-SVG-20010904/DTD/svg10.dtd">
<svg version="1.0" xmlns="http://www.w3.org/2000/svg"
 width="360.000000pt" height="360.000000pt" viewBox="0 0 360.000000 360.000000"
 preserveAspectRatio="xMidYMid meet">
<metadata>
Created by potrace 1.15, written by Peter Selinger 2001-2017
</metadata>
<g transform="translate(0.000000,360.000000) scale(0.100000,-0.100000)"
fill="#000000" stroke="none">
<path d="M1572 2837 c-24 -25 -30 -84 -12 -118 13 -23 36 -25 44 -4 3 8 12 15
21 15 12 0 15 -12 15 -57 -1 -120 -29 -338 -61 -464 -21 -85 -106 -160 -223
-198 -97 -32 -109 -31 -125 7 -21 46 -47 39 -44 -12 4 -61 33 -110 66 -114 16
-2 34 2 42 8 8 7 14 7 17 1 2 -7 17 -7 43 -1 56 13 88 12 109 -3 17 -12 16
-18 -23 -93 -29 -57 -52 -88 -83 -111 -73 -54 -284 -185 -498 -311 l-205 -120
-24 24 -25 23 44 39 43 38 -38 24 -39 24 -48 -54 c-42 -47 -48 -60 -48 -97 0
-37 6 -48 41 -83 22 -21 49 -42 60 -45 35 -11 177 68 495 277 208 136 211 138
267 138 48 0 57 -3 57 -17 0 -10 -67 -97 -150 -193 -138 -161 -149 -178 -150
-215 0 -23 9 -54 20 -73 18 -30 23 -32 75 -32 55 0 57 1 128 68 258 241 445
367 537 360 l42 -3 -79 -77 c-103 -102 -230 -201 -447 -347 -158 -106 -191
-124 -286 -156 -189 -63 -264 -126 -212 -178 l22 -22 198 34 197 33 140 -40
c346 -100 685 -184 873 -217 89 -15 104 -15 316 6 l222 22 64 -21 c59 -20 65
-21 82 -5 10 9 18 22 18 28 0 24 -43 66 -91 91 l-49 24 -208 -11 c-114 -6
-259 -9 -322 -6 -198 10 -459 66 -801 172 -97 30 -192 55 -212 55 -35 0 -37 2
-37 33 0 30 5 35 76 71 170 87 356 230 546 417 97 96 118 122 118 146 0 47
-25 73 -70 73 -21 0 -42 -5 -46 -11 -4 -8 -9 -7 -14 2 -26 42 -257 -88 -544
-305 -70 -53 -133 -95 -139 -93 -15 5 151 193 294 332 119 117 134 127 408
295 l283 174 -28 23 c-35 28 -50 28 -141 3 -101 -28 -207 -71 -355 -146 -71
-35 -133 -64 -139 -64 -7 0 -8 7 -4 18 3 9 12 52 20 96 8 43 26 103 41 134 33
68 121 155 202 202 50 28 62 40 62 61 0 38 -15 47 -63 38 -78 -15 -94 -12
-116 24 l-20 33 21 175 c26 207 22 229 -46 260 -54 25 -78 24 -104 -4z"/>
</g>
</svg>
