<?xml version="1.0" standalone="no"?>
<!DOCTYPE svg PUBLIC "-//W3C//DTD SVG 20010904//EN"
 "http://www.w3.org/TR/2001/REC-SVG-20010904/DTD/svg10.dtd">
<svg version="1.0" xmlns="http://www.w3.org/2000/svg"
 width="360.000000pt" height="360.000000pt" viewBox="0 0 360.000000 360.000000"
 preserveAspectRatio="xMidYMid meet">
<metadata>
Created by potrace 1.15, written by Peter Selinger 2001-2017
</metadata>
<g transform="translate(0.000000,360.000000) scale(0.100000,-0.100000)"
fill="#000000" stroke="none">
<path d="M1157 2842 c-24 -26 -21 -59 6 -73 32 -17 45 -37 62 -94 17 -57 17
-63 6 -246 -9 -159 -22 -192 -115 -276 -48 -44 -61 -51 -113 -57 -75 -8 -170
-35 -183 -51 -7 -9 2 -23 35 -54 38 -35 51 -41 89 -41 25 0 81 13 127 30 107
40 115 34 99 -66 -6 -38 -14 -72 -18 -76 -4 -3 -149 -124 -322 -267 -245 -204
-320 -261 -342 -261 -15 0 -28 2 -28 4 0 2 20 42 45 87 24 46 45 94 45 107 l0
23 -41 -23 c-77 -43 -142 -134 -155 -217 -6 -35 -2 -47 21 -82 16 -22 31 -42
35 -44 4 -3 34 5 66 16 46 16 123 69 359 250 165 126 301 225 303 220 2 -5
-72 -114 -163 -241 -178 -248 -178 -248 -139 -308 11 -16 24 -22 52 -22 34 0
60 18 277 196 132 107 241 191 243 185 2 -6 -49 -73 -113 -149 -98 -117 -125
-143 -173 -166 -82 -41 -189 -112 -204 -136 -7 -12 -79 -71 -161 -132 -81 -60
-147 -113 -147 -117 0 -4 7 -17 16 -29 22 -32 85 -30 128 3 38 29 101 53 171
65 30 5 136 4 265 -2 l215 -11 500 -154 500 -154 370 11 c353 11 371 13 393
33 12 11 22 24 22 28 0 17 -46 50 -96 69 -53 19 -53 19 -301 -2 l-248 -22
-225 43 c-124 24 -227 45 -229 47 -3 3 5 114 17 247 12 133 22 314 22 403 l0
160 48 51 c43 48 54 54 138 77 144 40 224 80 224 110 0 6 -11 24 -23 40 l-24
29 -74 -22 c-41 -13 -112 -40 -158 -62 -46 -21 -86 -37 -90 -34 -4 2 -16 22
-26 45 -16 34 -16 44 -5 65 10 19 10 28 1 39 -9 10 -9 26 -1 61 9 40 7 57 -11
115 l-22 67 32 47 c41 59 98 181 106 226 5 30 2 39 -24 64 l-31 30 -117 -39
c-140 -46 -288 -118 -304 -147 -9 -17 -7 -24 10 -41 l21 -21 137 47 c76 26
141 47 146 47 25 0 -3 -65 -76 -178 -104 -159 -278 -543 -321 -707 -14 -56
-14 -60 5 -87 11 -15 26 -28 34 -28 7 0 69 27 138 59 l125 59 7 -121 c12 -213
11 -535 -1 -547 -9 -9 -89 9 -318 69 l-306 81 -200 0 c-160 0 -200 3 -200 13
0 8 37 42 83 77 227 175 446 380 518 485 29 43 34 58 34 109 0 54 -3 61 -25
74 -54 31 -188 -33 -351 -165 -82 -67 -119 -87 -119 -64 0 5 126 144 280 310
l280 302 -26 35 c-17 22 -33 33 -42 29 -8 -3 -75 -39 -148 -80 -74 -41 -140
-75 -148 -75 -33 0 -39 27 -22 97 36 146 30 135 101 172 35 18 84 50 107 71
l43 38 -24 26 c-14 15 -58 39 -98 54 l-72 27 7 55 c3 30 7 105 7 167 0 98 -3
115 -21 140 -50 67 -141 95 -177 55z m809 -1267 c-27 -35 -74 -68 -115 -80
-23 -7 -24 -6 -18 30 9 54 61 161 110 224 l42 54 3 -97 c3 -92 1 -100 -22
-131z"/>
</g>
</svg>
