<?xml version="1.0" standalone="no"?>
<!DOCTYPE svg PUBLIC "-//W3C//DTD SVG 20010904//EN"
 "http://www.w3.org/TR/2001/REC-SVG-20010904/DTD/svg10.dtd">
<svg version="1.0" xmlns="http://www.w3.org/2000/svg"
 width="360.000000pt" height="360.000000pt" viewBox="0 0 360.000000 360.000000"
 preserveAspectRatio="xMidYMid meet">
<metadata>
Created by potrace 1.15, written by Peter Selinger 2001-2017
</metadata>
<g transform="translate(0.000000,360.000000) scale(0.100000,-0.100000)"
fill="#000000" stroke="none">
<path d="M1277 2622 c-29 -30 -37 -46 -37 -75 0 -37 0 -37 42 -37 l41 0 -7
-117 c-12 -215 -54 -337 -129 -376 -36 -19 -38 -19 -99 2 -77 26 -78 26 -78
-2 0 -13 -5 -28 -11 -34 -16 -16 13 -60 47 -73 14 -6 63 -10 110 -10 l84 0 0
-65 c0 -66 0 -66 -50 -116 -27 -27 -91 -76 -142 -109 -101 -65 -437 -240 -461
-240 -9 0 -21 15 -27 35 -16 48 -24 50 -65 19 -32 -24 -35 -31 -35 -76 0 -59
32 -128 59 -128 56 0 228 81 427 201 128 77 164 92 164 66 0 -7 -41 -80 -91
-161 l-90 -149 22 -23 c12 -13 31 -24 41 -24 10 0 125 79 254 176 130 96 241
173 247 171 7 -3 -62 -79 -153 -169 -162 -162 -305 -285 -487 -420 -92 -68
-109 -93 -81 -116 9 -7 47 0 129 23 165 48 256 58 382 45 178 -19 350 -60 654
-156 95 -30 177 -54 183 -54 5 0 10 9 10 21 0 31 42 22 50 -11 3 -14 20 -35
38 -46 40 -27 145 -42 168 -24 12 11 17 10 27 -2 7 -9 25 -19 42 -23 16 -3
177 4 357 16 l328 23 0 36 c0 71 7 70 -397 70 l-361 0 -239 65 c-435 120 -774
199 -915 213 -39 4 -73 12 -75 18 -2 6 118 129 267 274 148 145 270 268 270
274 0 6 -13 26 -29 45 l-29 35 -58 -13 c-68 -15 -210 -81 -303 -141 -35 -22
-66 -39 -69 -36 -2 3 21 33 53 67 31 34 64 76 72 93 11 23 50 52 159 116 83
48 144 91 144 99 0 24 -51 71 -77 71 -13 0 -50 -13 -83 -30 -88 -44 -90 -43
-90 45 l0 75 105 87 c58 48 105 92 105 98 0 13 -62 75 -75 75 -6 0 -29 -10
-52 -22 -23 -12 -45 -19 -49 -15 -4 4 10 84 30 179 24 107 35 183 32 203 -8
39 -41 72 -87 85 -56 16 -73 12 -112 -28z"/>
<path d="M2045 2261 c-150 -51 -193 -70 -215 -96 -13 -15 -10 -21 18 -46 50
-45 141 -35 245 26 47 28 57 31 57 17 0 -37 -139 -261 -234 -377 -22 -26 -27
-29 -45 -17 -25 15 -97 16 -106 2 -4 -6 -1 -43 5 -83 8 -53 8 -112 -1 -229
l-11 -157 26 -45 c15 -25 49 -68 78 -96 49 -49 80 -61 94 -39 5 8 8 8 13 0 5
-8 70 -5 226 10 160 16 231 19 262 12 40 -9 44 -8 72 21 17 18 31 38 31 46 0
8 -15 33 -34 54 l-33 40 -254 -33 -254 -34 -52 32 c-35 22 -53 39 -53 52 0 34
31 233 39 254 5 12 83 61 199 125 126 69 192 111 192 121 0 27 -26 40 -95 47
l-66 7 105 155 c58 85 106 162 106 170 0 9 -22 37 -48 63 -62 61 -84 61 -267
-2z"/>
</g>
</svg>
