<?xml version="1.0" standalone="no"?>
<!DOCTYPE svg PUBLIC "-//W3C//DTD SVG 20010904//EN"
 "http://www.w3.org/TR/2001/REC-SVG-20010904/DTD/svg10.dtd">
<svg version="1.0" xmlns="http://www.w3.org/2000/svg"
 width="360.000000pt" height="360.000000pt" viewBox="0 0 360.000000 360.000000"
 preserveAspectRatio="xMidYMid meet">
<metadata>
Created by potrace 1.15, written by Peter Selinger 2001-2017
</metadata>
<g transform="translate(0.000000,360.000000) scale(0.100000,-0.100000)"
fill="#000000" stroke="none">
<path d="M1225 2733 c-42 -45 -42 -73 -2 -84 16 -4 35 -13 43 -20 17 -14 19
-93 3 -171 -7 -35 -8 -62 -2 -72 8 -15 -4 -130 -22 -203 -15 -63 -135 -153
-272 -205 -46 -17 -82 -36 -80 -42 12 -40 245 -77 283 -45 16 13 17 9 11 -49
-10 -90 -36 -145 -78 -162 -19 -7 -86 -50 -149 -95 -227 -162 -383 -260 -447
-279 -22 -7 -23 -5 -23 43 0 47 -2 51 -23 51 -38 0 -67 -50 -67 -112 1 -46 5
-58 35 -92 l34 -38 65 30 c85 40 248 144 484 309 106 74 197 133 202 131 5 -2
-87 -126 -205 -277 -118 -151 -215 -277 -215 -281 0 -15 38 -40 59 -40 14 0
57 32 117 88 129 118 304 248 415 306 149 79 138 55 -82 -180 -107 -113 -215
-230 -242 -260 -34 -38 -63 -58 -102 -73 -116 -43 -202 -98 -226 -143 -9 -16
-6 -25 12 -44 12 -13 31 -24 41 -24 10 0 57 22 104 50 119 68 201 94 268 86
28 -4 60 -6 71 -6 122 7 138 3 420 -89 360 -119 679 -215 777 -235 124 -26
610 -2 725 35 18 6 33 13 33 16 0 4 -11 21 -26 40 l-25 33 -348 0 -348 0 -634
155 c-349 86 -640 158 -647 160 -9 3 76 97 217 242 128 130 250 261 272 290
l41 52 -27 50 c-48 87 -55 87 -250 -24 -165 -94 -185 -103 -185 -87 0 24 188
226 368 395 50 48 92 93 92 101 0 20 -44 56 -68 56 -12 0 -80 -36 -150 -80
-71 -44 -134 -80 -142 -80 -20 0 -7 87 23 154 28 60 120 165 188 212 45 31 48
42 16 72 -22 21 -27 21 -80 11 -32 -7 -60 -9 -64 -6 -3 4 0 54 7 112 15 124 8
234 -18 278 -23 41 -77 77 -113 77 -19 0 -39 -12 -64 -37z"/>
<path d="M1963 2700 c-28 -11 -28 -13 -3 -84 l20 -58 -25 -59 c-32 -75 -107
-202 -180 -304 -32 -44 -59 -85 -62 -91 -6 -15 58 -54 89 -54 16 0 72 39 165
115 112 91 148 115 172 115 17 0 31 -2 31 -4 0 -3 -57 -82 -127 -178 -203
-279 -323 -468 -323 -512 0 -16 59 -56 83 -56 9 0 49 29 89 64 112 98 256 203
324 237 51 25 70 30 119 27 58 -3 60 -4 69 -36 10 -34 -23 -296 -46 -371 -32
-104 -220 -221 -497 -311 -65 -22 -91 -26 -115 -19 -45 13 -51 12 -66 -16 -12
-23 -11 -28 10 -50 16 -17 34 -25 55 -25 18 0 130 30 250 66 205 61 222 65
263 54 24 -6 46 -10 47 -8 17 19 106 179 145 259 64 136 100 261 107 376 l6
92 -30 30 c-37 36 -153 74 -233 75 -61 1 -146 -34 -245 -100 -31 -20 -58 -34
-62 -31 -3 4 35 59 84 124 169 223 243 346 243 408 0 17 -11 43 -23 59 l-24
29 -54 -17 c-30 -10 -87 -37 -126 -61 -40 -24 -73 -40 -73 -37 0 4 18 62 41
130 46 138 45 159 -13 207 -31 26 -49 29 -85 15z"/>
<path d="M2046 1564 c-73 -37 -216 -132 -216 -143 0 -3 9 -17 18 -29 l19 -24
74 22 c96 28 209 81 233 108 19 21 19 23 1 62 -23 50 -38 51 -129 4z"/>
</g>
</svg>
