<?xml version="1.0" standalone="no"?>
<!DOCTYPE svg PUBLIC "-//W3C//DTD SVG 20010904//EN"
 "http://www.w3.org/TR/2001/REC-SVG-20010904/DTD/svg10.dtd">
<svg version="1.0" xmlns="http://www.w3.org/2000/svg"
 width="360.000000pt" height="360.000000pt" viewBox="0 0 360.000000 360.000000"
 preserveAspectRatio="xMidYMid meet">
<metadata>
Created by potrace 1.15, written by Peter Selinger 2001-2017
</metadata>
<g transform="translate(0.000000,360.000000) scale(0.100000,-0.100000)"
fill="#000000" stroke="none">
<path d="M1260 2594 l-45 -45 23 -19 c13 -11 35 -27 48 -37 l24 -18 -34 -220
c-23 -147 -31 -224 -24 -232 15 -19 1 -48 -48 -93 -56 -51 -118 -80 -190 -87
-71 -8 -75 -33 -10 -65 41 -20 52 -21 130 -12 l86 9 0 -37 c0 -21 -10 -58 -22
-84 -20 -40 -61 -76 -302 -265 l-279 -219 -32 20 c-18 11 -41 20 -52 20 -30 0
-73 -51 -73 -86 0 -37 36 -74 72 -74 17 0 120 68 318 210 264 189 297 210 333
210 l39 0 -28 -37 c-15 -21 -79 -105 -141 -186 -108 -141 -129 -184 -91 -181
8 1 104 59 212 129 108 70 199 125 203 122 9 -10 -101 -142 -207 -248 -101
-102 -209 -187 -302 -239 -47 -26 -61 -29 -78 -20 -17 9 -26 7 -50 -10 -29
-21 -30 -22 -12 -45 32 -45 155 -27 280 41 54 29 72 34 130 34 118 -1 344 -28
407 -50 205 -71 572 -166 770 -200 231 -40 464 -36 714 11 l115 22 -28 23
c-33 29 -69 30 -383 12 l-211 -12 -148 33 c-116 27 -151 31 -165 22 -32 -19
-92 -12 -200 24 -289 98 -577 168 -769 187 l-120 12 0 28 c0 17 5 28 13 28 8
0 109 83 226 185 116 102 216 185 222 185 8 0 9 -11 4 -32 -11 -48 -7 -94 16
-178 22 -82 42 -120 63 -120 34 0 35 24 16 206 -11 98 -20 202 -20 230 l0 50
98 57 c205 119 390 197 464 197 18 0 82 -16 141 -36 106 -35 109 -37 104 -63
-19 -96 -39 -313 -30 -322 7 -7 -4 -66 -34 -189 l-45 -179 -32 6 c-41 8 -83
29 -88 45 -4 10 -8 10 -21 -1 -23 -18 -22 -25 14 -79 86 -127 138 -135 192
-27 49 99 95 384 113 702 l7 121 -42 21 c-22 12 -81 32 -129 45 l-88 23 -134
-33 c-74 -18 -136 -28 -138 -23 -2 5 -12 9 -23 9 -10 0 -19 2 -19 4 0 3 62 67
139 143 250 249 271 298 155 356 -40 20 -75 11 -165 -42 l-67 -38 -7 66 c-13
131 -42 181 -106 181 -21 0 -41 -5 -44 -10 -4 -6 7 -29 24 -52 31 -41 31 -44
31 -163 l0 -122 -49 -70 c-48 -68 -87 -103 -114 -103 -20 0 -56 82 -39 88 9 3
7 9 -8 19 -19 13 -23 13 -41 -3 -28 -25 -27 -124 2 -171 18 -28 26 -33 45 -29
13 4 43 9 67 12 51 7 63 -3 73 -63 l6 -41 -77 -63 c-125 -103 -222 -167 -350
-230 -116 -58 -185 -75 -185 -46 0 7 79 91 175 187 96 96 175 181 175 188 0
25 -30 23 -137 -7 -104 -30 -163 -38 -163 -24 0 3 16 50 36 104 l37 98 76 44
c42 25 84 53 93 64 17 18 16 21 -8 56 -13 20 -28 37 -31 37 -4 0 -37 -10 -75
-22 -37 -12 -70 -20 -72 -17 -3 2 0 37 6 78 9 54 9 77 0 91 -9 15 -4 44 25
145 34 117 35 130 22 154 -17 29 -74 71 -98 71 -9 0 -37 -21 -61 -46z m975
-394 c7 -12 -55 -137 -105 -210 -50 -73 -81 -100 -116 -103 -28 -2 -29 -1 -26
38 8 107 56 189 145 246 60 39 90 48 102 29z"/>
<path d="M1969 1544 c-65 -46 -135 -74 -181 -74 -33 0 -33 2 -8 -80 14 -46 20
-94 20 -166 0 -132 3 -135 103 -89 42 20 108 43 147 51 l70 16 0 79 c0 72 3
82 32 124 25 35 33 58 36 103 l4 59 -81 9 -81 10 -61 -42z m119 -67 c9 -10 1
-32 -32 -88 -57 -98 -113 -149 -162 -149 l-37 0 6 49 c10 87 53 146 132 182
47 22 78 24 93 6z"/>
</g>
</svg>
