<?xml version="1.0" standalone="no"?>
<!DOCTYPE svg PUBLIC "-//W3C//DTD SVG 20010904//EN"
 "http://www.w3.org/TR/2001/REC-SVG-20010904/DTD/svg10.dtd">
<svg version="1.0" xmlns="http://www.w3.org/2000/svg"
 width="360.000000pt" height="360.000000pt" viewBox="0 0 360.000000 360.000000"
 preserveAspectRatio="xMidYMid meet">
<metadata>
Created by potrace 1.15, written by Peter Selinger 2001-2017
</metadata>
<g transform="translate(0.000000,360.000000) scale(0.100000,-0.100000)"
fill="#000000" stroke="none">
<path d="M1682 2667 c-32 -34 -29 -77 8 -112 61 -58 64 -85 50 -371 l-13 -256
-41 -26 c-63 -39 -143 -74 -187 -79 -32 -5 -39 -10 -39 -28 0 -12 10 -31 23
-43 l22 -21 80 19 c97 23 119 24 134 6 9 -11 4 -24 -24 -62 -19 -27 -109 -157
-199 -289 l-163 -240 16 -29 c9 -15 22 -31 29 -33 23 -10 101 19 173 63 39 24
75 41 81 38 11 -7 4 -87 -14 -164 -6 -25 -26 -79 -46 -120 -46 -98 -163 -216
-277 -279 -44 -25 -82 -46 -84 -48 -9 -6 33 -43 49 -43 60 0 165 65 293 182
55 51 59 58 121 218 67 175 101 250 114 250 17 0 294 -265 362 -346 126 -149
262 -243 425 -294 88 -27 222 -37 294 -21 37 8 58 8 65 1 15 -15 52 -12 65 4
7 8 11 27 9 43 -5 42 -44 55 -193 66 -75 5 -158 17 -197 29 -143 43 -338 178
-578 400 -80 74 -169 162 -198 195 l-52 61 104 94 c73 66 136 112 212 155 60
34 122 73 138 88 l28 26 -23 25 c-17 18 -33 24 -67 24 -40 0 -57 -10 -197
-110 -84 -60 -163 -110 -174 -110 -19 0 -21 6 -21 50 0 62 26 117 105 220 49
64 88 110 219 257 19 22 19 23 1 43 -34 38 -130 17 -212 -46 -19 -14 -41 -24
-51 -22 -15 3 -17 26 -20 269 l-2 265 -63 62 -63 63 -22 -24z m-13 -1224 c-19
-60 -135 -170 -156 -149 -9 8 63 112 116 169 50 54 63 48 40 -20z"/>
<path d="M1228 2228 c-11 -16 -72 -46 -197 -97 -175 -71 -181 -74 -165 -92 22
-25 64 -24 170 2 46 12 87 19 90 16 4 -4 -175 -265 -207 -301 -13 -15 -56 20
-85 70 -15 25 -42 80 -60 122 -24 55 -39 77 -51 77 -15 0 -18 -8 -16 -54 3
-73 47 -250 79 -316 29 -63 77 -115 104 -115 10 0 22 -5 25 -10 3 -6 -48 -89
-114 -186 l-121 -176 0 -74 c0 -51 4 -76 13 -79 6 -3 35 1 63 8 49 11 60 21
199 170 81 86 148 157 150 157 9 0 -60 -141 -116 -240 -93 -163 -184 -285
-306 -409 -62 -63 -113 -119 -113 -126 0 -29 36 -45 103 -45 l67 0 150 118
c120 94 163 122 217 140 118 41 183 99 198 178 4 25 2 41 -7 50 -11 10 -41 -6
-166 -87 -145 -94 -183 -111 -197 -90 -3 6 85 140 195 299 110 159 200 293
200 296 0 6 -71 116 -86 135 -2 2 -58 -31 -124 -73 -67 -42 -126 -76 -132 -76
-28 0 71 147 173 254 43 46 79 88 79 93 0 14 -44 53 -60 53 -7 0 -33 -12 -57
-26 -25 -14 -47 -24 -50 -21 -2 3 50 69 116 148 141 166 145 178 87 274 -33
55 -33 56 -48 33z"/>
</g>
</svg>
