<?xml version="1.0" standalone="no"?>
<!DOCTYPE svg PUBLIC "-//W3C//DTD SVG 20010904//EN"
 "http://www.w3.org/TR/2001/REC-SVG-20010904/DTD/svg10.dtd">
<svg version="1.0" xmlns="http://www.w3.org/2000/svg"
 width="360.000000pt" height="360.000000pt" viewBox="0 0 360.000000 360.000000"
 preserveAspectRatio="xMidYMid meet">
<metadata>
Created by potrace 1.15, written by Peter Selinger 2001-2017
</metadata>
<g transform="translate(0.000000,360.000000) scale(0.100000,-0.100000)"
fill="#000000" stroke="none">
<path d="M1944 2693 c2 -10 19 -88 36 -175 31 -155 31 -157 20 -320 -5 -89
-10 -177 -10 -195 0 -28 -9 -38 -87 -93 l-88 -60 -6 68 c-12 126 -20 169 -40
201 -15 25 -25 31 -54 31 l-35 0 0 -72 c0 -46 -11 -119 -32 -204 l-31 -132 20
-49 c18 -43 23 -48 49 -45 42 5 115 47 179 105 l57 50 25 -26 26 -25 -87 -115
c-47 -63 -99 -140 -116 -171 -25 -49 -38 -61 -97 -92 -102 -54 -198 -118 -300
-200 -51 -41 -95 -74 -98 -74 -12 0 -2 23 41 97 102 171 184 353 184 406 0 37
-49 77 -94 77 -35 0 -50 -12 -238 -191 -110 -105 -202 -188 -205 -186 -8 8 42
102 97 180 64 93 158 206 282 340 109 117 112 130 42 143 -19 3 -34 11 -34 17
0 5 38 82 86 170 56 105 84 168 82 185 -2 19 -17 33 -62 58 l-59 33 -124 -44
c-173 -61 -197 -74 -201 -107 l-3 -28 83 1 c46 0 104 4 131 8 70 12 77 -4 37
-76 -61 -110 -171 -233 -207 -233 -18 0 -23 7 -29 38 -10 53 -38 104 -76 138
-37 32 -95 60 -105 51 -12 -12 9 -80 33 -103 19 -20 27 -44 39 -130 21 -136
49 -229 77 -249 l22 -15 -38 -77 c-21 -42 -76 -136 -123 -207 -75 -114 -84
-133 -78 -162 6 -34 48 -77 85 -89 35 -11 98 36 233 173 70 71 127 126 127
123 0 -8 -70 -192 -80 -210 -4 -9 -110 -139 -234 -290 -214 -260 -225 -276
-209 -293 12 -14 31 -18 78 -18 l61 0 359 310 358 309 41 -29 c47 -35 52 -36
133 -11 35 11 65 16 68 11 9 -15 -17 -125 -43 -180 -36 -77 -138 -174 -245
-234 -84 -47 -87 -50 -73 -70 11 -17 22 -20 57 -17 200 16 347 195 435 529 15
56 35 107 47 121 29 32 162 134 272 210 83 56 98 63 190 82 133 27 185 50 185
82 0 35 -30 57 -79 57 -66 0 -181 -43 -364 -138 -116 -59 -170 -83 -178 -75
-7 7 -5 30 6 75 21 80 67 143 244 333 119 127 131 143 131 177 0 20 -4 39 -9
42 -8 5 -141 -37 -211 -67 -19 -8 -48 -25 -64 -38 -22 -17 -32 -20 -45 -12 -9
6 -15 15 -14 20 25 136 26 170 16 315 -15 216 -45 278 -135 278 -33 0 -38 -3
-34 -17z"/>
<path d="M2146 1192 c-7 -12 622 -662 639 -662 8 0 24 14 36 31 18 26 20 34
10 56 -29 63 -107 170 -183 249 -181 190 -470 377 -502 326z"/>
</g>
</svg>
