<?xml version="1.0" standalone="no"?>
<!DOCTYPE svg PUBLIC "-//W3C//DTD SVG 20010904//EN"
 "http://www.w3.org/TR/2001/REC-SVG-20010904/DTD/svg10.dtd">
<svg version="1.0" xmlns="http://www.w3.org/2000/svg"
 width="360.000000pt" height="360.000000pt" viewBox="0 0 360.000000 360.000000"
 preserveAspectRatio="xMidYMid meet">
<metadata>
Created by potrace 1.15, written by Peter Selinger 2001-2017
</metadata>
<g transform="translate(0.000000,360.000000) scale(0.100000,-0.100000)"
fill="#000000" stroke="none">
<path d="M2196 2700 c-43 -16 -130 -57 -193 -90 l-114 -61 -33 20 -33 21 -21
-23 c-43 -45 -14 -137 42 -137 9 0 70 31 135 70 141 83 236 129 285 137 32 5
36 3 36 -16 0 -54 -117 -178 -292 -309 -93 -69 -109 -90 -90 -118 11 -18 48
-34 76 -34 22 0 26 -4 26 -30 0 -25 -22 -56 -109 -156 -107 -122 -109 -125
-99 -157 8 -28 4 -54 -31 -165 -81 -265 -171 -673 -171 -778 0 -34 7 -53 27
-79 l27 -34 23 21 c20 19 23 31 23 103 0 71 4 89 35 153 33 69 47 83 60 62 3
-6 20 -10 37 -10 22 0 51 16 106 60 107 86 112 84 137 -60 15 -85 25 -115 35
-115 23 0 49 63 61 150 16 121 27 152 65 189 19 19 73 51 120 72 61 28 84 43
84 56 0 30 -25 32 -138 9 -59 -11 -110 -21 -114 -21 -5 0 -8 25 -8 56 0 50 6
65 57 151 49 82 55 98 47 121 -6 18 -21 31 -44 38 -35 11 -35 12 -38 78 -3 76
6 99 51 123 43 22 101 18 163 -12 82 -40 123 -114 139 -254 5 -47 4 -65 -6
-71 -10 -7 -10 -22 -1 -74 7 -45 7 -77 0 -103 -8 -29 -6 -55 8 -117 16 -70 19
-125 19 -401 0 -316 0 -320 -21 -323 -15 -2 -38 17 -83 68 -71 80 -151 194
-151 216 0 8 -10 14 -26 14 -24 0 -25 -3 -19 -27 32 -129 134 -290 227 -358
73 -55 110 -59 133 -16 48 94 58 405 25 830 -14 174 -16 249 -8 258 7 9 7 37
0 95 -6 46 -14 108 -17 138 -12 102 -55 173 -130 213 -59 32 -226 31 -308 -2
-32 -13 -63 -31 -70 -42 -14 -22 -30 -24 -45 -6 -9 10 9 32 78 96 89 81 103
105 81 139 -5 8 -23 17 -41 21 -19 3 -35 12 -37 18 -3 7 59 80 136 162 78 83
141 155 141 160 0 17 -61 81 -91 97 -40 20 -73 17 -163 -16z m-106 -889 c0
-50 -4 -62 -27 -86 -28 -28 -189 -112 -198 -103 -11 10 16 114 40 154 27 46
107 94 157 94 27 0 28 -1 28 -59z m-30 -219 c0 -36 -219 -322 -246 -322 -17 0
-17 -4 1 98 17 97 34 132 78 166 62 47 167 84 167 58z m-18 -251 c-17 -24 -62
-42 -62 -25 0 4 17 25 38 48 31 34 38 38 40 22 2 -10 -5 -31 -16 -45z"/>
<path d="M1331 2445 c-58 -39 -106 -76 -108 -82 -2 -5 4 -20 14 -32 l18 -22
104 36 c139 47 141 47 130 -11 -13 -70 -56 -139 -131 -210 -90 -84 -101 -84
-123 8 -39 156 -118 264 -212 287 -42 11 -48 10 -70 -10 l-23 -23 39 -40 c81
-84 147 -223 196 -414 l26 -103 -98 -116 c-54 -63 -108 -127 -120 -142 -17
-20 -22 -39 -23 -83 0 -55 1 -57 42 -87 23 -17 47 -31 53 -31 6 0 91 68 189
151 190 159 215 171 181 84 -40 -105 -165 -263 -387 -489 l-120 -121 19 -35
c22 -42 32 -42 130 6 109 53 222 142 389 306 144 142 185 190 171 204 -5 5
-47 -22 -229 -154 -30 -21 -48 -29 -48 -20 0 7 50 82 110 167 117 164 121 175
99 255 -12 43 -61 96 -88 96 -10 0 -63 -34 -120 -76 -159 -120 -148 -96 63
130 l108 116 79 190 c71 172 77 192 68 224 -16 58 -119 118 -198 115 -15 -1
-72 -33 -130 -74z"/>
</g>
</svg>
