<?xml version="1.0" standalone="no"?>
<!DOCTYPE svg PUBLIC "-//W3C//DTD SVG 20010904//EN"
 "http://www.w3.org/TR/2001/REC-SVG-20010904/DTD/svg10.dtd">
<svg version="1.0" xmlns="http://www.w3.org/2000/svg"
 width="360.000000pt" height="360.000000pt" viewBox="0 0 360.000000 360.000000"
 preserveAspectRatio="xMidYMid meet">
<metadata>
Created by potrace 1.15, written by Peter Selinger 2001-2017
</metadata>
<g transform="translate(0.000000,360.000000) scale(0.100000,-0.100000)"
fill="#000000" stroke="none">
<path d="M1898 2583 l-238 -77 0 -33 c0 -32 2 -33 38 -33 20 0 93 16 162 35
l124 34 23 -21 c17 -16 23 -33 23 -65 0 -56 -27 -109 -83 -160 -41 -37 -152
-103 -175 -103 -5 0 -12 27 -15 59 -8 98 -55 151 -131 151 -43 0 -46 -14 -12
-65 38 -55 57 -161 63 -343 3 -89 10 -165 14 -168 5 -3 3 -14 -3 -24 -11 -17
-8 -24 22 -55 35 -36 65 -44 101 -25 42 23 16 -24 -76 -136 l-96 -116 -94 -33
c-105 -36 -192 -85 -315 -175 -48 -36 -90 -60 -101 -58 -16 3 2 37 121 228 90
145 140 235 140 253 0 33 -32 67 -62 67 -53 0 -207 -90 -328 -191 -33 -28 -66
-49 -72 -47 -5 2 107 141 251 308 143 168 261 310 261 317 0 22 -32 43 -66 43
-56 0 -53 21 20 131 51 76 65 105 60 122 -10 33 -54 76 -104 101 l-45 23 -115
-32 -115 -31 -3 -34 -3 -33 73 6 c40 4 95 10 122 13 l49 7 -7 -29 c-18 -76
-88 -193 -198 -328 -17 -21 -18 -20 -125 87 -60 59 -114 107 -120 107 -8 0 -3
-24 13 -72 37 -107 93 -325 100 -389 l7 -57 -56 -68 c-124 -155 -187 -279
-187 -369 l0 -45 43 0 c39 1 57 12 231 145 103 80 192 145 197 145 15 0 10
-18 -25 -89 -53 -103 -210 -308 -399 -519 l-66 -73 21 -45 c39 -78 41 -77 398
206 173 137 317 245 318 240 2 -6 -15 -33 -37 -61 -32 -41 -41 -60 -41 -91 0
-23 5 -41 13 -44 7 -2 62 18 121 46 60 27 112 50 116 50 17 0 -39 -208 -76
-282 -38 -74 -27 -128 24 -128 35 0 52 16 52 50 0 14 6 34 13 45 8 11 20 49
26 85 29 151 85 290 147 367 58 71 161 105 197 65 14 -15 17 -42 17 -153 0
-74 5 -192 11 -262 11 -114 10 -136 -6 -207 -10 -43 -21 -84 -25 -90 -5 -8
-42 6 -118 44 -184 92 -191 70 -22 -69 154 -126 185 -126 242 0 21 48 22 58
18 260 -3 116 -5 295 -5 399 l0 190 210 63 c203 62 213 64 290 58 44 -3 94 -8
110 -11 23 -4 33 0 43 17 12 19 10 25 -20 56 l-33 35 -110 -6 c-132 -8 -266
-29 -383 -61 -48 -14 -90 -21 -94 -17 -4 4 -20 38 -36 77 l-30 69 87 65 87 65
135 289 c73 160 137 298 141 309 10 24 -60 93 -135 134 -46 25 -63 29 -152 31
l-100 3 -237 -77z m436 -39 c54 -41 54 -31 -4 -194 -86 -241 -155 -350 -224
-350 -7 0 -18 16 -24 36 -10 33 -8 43 22 103 l33 66 -21 173 c-17 127 -19 172
-10 172 6 0 17 7 24 15 9 11 33 15 85 15 67 0 75 -2 119 -36z m-369 -414 c8
-13 -167 -212 -178 -201 -4 4 -10 46 -14 93 l-6 86 24 -4 c13 -3 51 4 84 15
72 23 82 24 90 11z m25 -182 c0 -43 -34 -78 -77 -78 -18 0 -33 3 -33 6 0 14
83 104 96 104 9 0 14 -11 14 -32z m20 -348 l0 -80 -150 -75 c-82 -41 -157 -75
-166 -75 -21 0 15 48 146 195 92 104 105 115 136 115 l34 0 0 -80z"/>
<path d="M2352 1227 c-8 -9 18 -35 105 -107 63 -52 172 -150 242 -217 69 -67
129 -123 132 -123 15 0 30 60 24 92 -31 142 -174 259 -419 344 -82 28 -71 27
-84 11z"/>
</g>
</svg>
