<?xml version="1.0" standalone="no"?>
<!DOCTYPE svg PUBLIC "-//W3C//DTD SVG 20010904//EN"
 "http://www.w3.org/TR/2001/REC-SVG-20010904/DTD/svg10.dtd">
<svg version="1.0" xmlns="http://www.w3.org/2000/svg"
 width="360.000000pt" height="360.000000pt" viewBox="0 0 360.000000 360.000000"
 preserveAspectRatio="xMidYMid meet">
<metadata>
Created by potrace 1.15, written by Peter Selinger 2001-2017
</metadata>
<g transform="translate(0.000000,360.000000) scale(0.100000,-0.100000)"
fill="#000000" stroke="none">
<path d="M1980 2858 c0 -7 14 -27 32 -45 l31 -32 -39 -37 c-56 -53 -165 -134
-274 -202 -51 -32 -96 -64 -98 -71 -10 -29 142 10 251 66 117 58 287 197 287
233 0 26 -39 71 -76 86 -42 17 -114 19 -114 2z"/>
<path d="M2243 2535 c-47 -24 -148 -119 -203 -194 l-26 -33 -57 11 c-40 9 -62
20 -77 38 -19 25 -50 26 -50 3 0 -15 87 -165 103 -179 10 -8 53 30 177 154 91
91 173 165 183 165 23 0 97 -38 97 -49 0 -16 -113 -167 -209 -280 -64 -76
-100 -111 -115 -111 -39 0 -85 -38 -112 -92 -21 -42 -41 -63 -97 -102 -104
-73 -265 -202 -325 -263 -29 -29 -62 -72 -72 -97 -11 -24 -37 -59 -58 -78 -66
-59 -383 -278 -403 -278 -23 0 -3 37 54 103 170 196 311 383 363 483 l35 67
-38 39 c-24 24 -46 38 -63 38 -16 0 -85 -42 -189 -115 -170 -119 -214 -141
-164 -81 15 18 94 112 176 209 81 96 147 182 147 191 0 10 -11 33 -24 53 l-24
35 35 55 c60 95 93 174 93 226 0 43 -3 49 -32 68 -28 17 -45 20 -115 16 -132
-7 -263 -81 -263 -149 0 -16 5 -28 13 -28 7 0 60 16 117 35 57 19 110 35 117
35 23 0 14 -55 -21 -126 -43 -85 -167 -224 -200 -224 -20 0 -24 7 -33 70 -12
77 -55 177 -97 228 l-28 32 -28 -22 c-29 -23 -39 -64 -21 -84 5 -5 18 -55 30
-112 31 -143 79 -286 106 -316 l23 -25 -99 -188 c-74 -139 -99 -197 -99 -224
0 -49 8 -69 29 -69 36 0 160 91 359 263 68 59 107 86 113 80 19 -19 -141 -237
-452 -620 -87 -107 -159 -203 -159 -212 0 -10 6 -26 14 -36 12 -17 18 -18 53
-7 102 31 347 214 579 434 59 56 109 89 300 193 126 69 232 125 236 125 10 0
-12 -70 -40 -125 -51 -102 -187 -281 -353 -467 -49 -54 -89 -103 -89 -107 0
-5 7 -14 15 -21 35 -29 174 92 337 296 l89 111 107 -26 107 -27 3 -242 c3
-264 -1 -284 -54 -318 -25 -17 -26 -17 -92 49 -65 64 -93 79 -107 56 -10 -16
110 -192 171 -249 32 -30 61 -50 72 -48 21 4 43 68 86 250 l32 136 -13 159
c-6 87 -12 169 -12 182 l-1 24 128 -6 c97 -4 148 -11 217 -32 123 -36 261 -95
378 -160 54 -30 102 -55 107 -55 6 0 10 22 10 48 0 48 -1 49 -63 94 -186 137
-405 211 -664 225 l-113 6 0 207 0 206 153 81 c134 72 160 82 222 88 107 11
124 26 85 74 -18 21 -25 23 -72 17 -67 -9 -154 -39 -246 -83 -70 -35 -73 -35
-92 -18 -11 10 -20 26 -20 37 0 10 83 118 185 241 178 213 185 224 183 262 -3
38 -6 41 -67 73 -78 39 -120 41 -188 7z m-223 -700 c0 -26 -21 -40 -84 -52
l-30 -6 35 41 c40 49 79 57 79 17z m0 -409 c0 -62 -1 -65 -34 -85 -32 -20
-116 -30 -116 -13 0 4 14 42 31 85 l31 77 44 0 44 0 0 -64z"/>
<path d="M1523 2223 c10 -143 55 -255 123 -306 22 -16 26 -16 48 -2 38 25 57
77 54 143 l-3 57 -40 8 c-36 8 -47 18 -103 98 -35 49 -68 89 -74 89 -8 0 -9
-28 -5 -87z"/>
</g>
</svg>
