<?xml version="1.0" standalone="no"?>
<!DOCTYPE svg PUBLIC "-//W3C//DTD SVG 20010904//EN"
 "http://www.w3.org/TR/2001/REC-SVG-20010904/DTD/svg10.dtd">
<svg version="1.0" xmlns="http://www.w3.org/2000/svg"
 width="360.000000pt" height="360.000000pt" viewBox="0 0 360.000000 360.000000"
 preserveAspectRatio="xMidYMid meet">
<metadata>
Created by potrace 1.15, written by Peter Selinger 2001-2017
</metadata>
<g transform="translate(0.000000,360.000000) scale(0.100000,-0.100000)"
fill="#000000" stroke="none">
<path d="M1973 2964 c-13 -9 -23 -23 -23 -31 0 -19 78 -53 140 -60 l50 -6 -20
-33 -21 -32 30 -21 c41 -29 51 -27 99 22 48 49 54 85 20 117 -49 46 -233 75
-275 44z"/>
<path d="M1460 2649 c-14 -4 -91 -29 -172 -54 -100 -31 -148 -51 -148 -60 0
-16 69 -55 98 -55 10 0 58 16 107 35 88 34 115 35 115 0 0 -47 -278 -395 -316
-395 -9 0 -14 11 -14 28 0 42 -28 130 -55 173 -34 52 -94 109 -118 109 -18 0
-19 -5 -15 -52 5 -43 11 -57 37 -78 20 -17 31 -36 31 -52 0 -38 27 -185 45
-246 9 -29 25 -62 36 -73 19 -19 19 -20 -86 -208 -58 -104 -105 -196 -105
-204 0 -9 12 -29 26 -46 21 -25 34 -31 64 -31 36 0 50 11 208 160 129 122 177
160 196 160 42 0 32 -27 -45 -130 -119 -159 -206 -257 -399 -452 l-186 -187
21 -35 21 -35 63 35 c150 83 408 266 630 448 52 42 99 75 105 73 28 -10 -19
-161 -107 -342 -72 -148 -158 -301 -294 -527 -99 -165 -101 -172 -57 -209 15
-12 20 -10 46 21 102 120 175 240 261 428 360 792 597 1379 597 1478 l0 39
218 89 c119 50 232 96 251 104 l34 14 -29 19 c-16 10 -43 19 -61 19 -75 0
-370 -123 -622 -259 -82 -45 -154 -81 -159 -81 -5 0 -15 7 -22 15 -18 22 -37
18 -55 -9 -15 -23 -15 -27 7 -60 13 -20 31 -36 41 -36 28 0 161 47 227 80 l60
30 0 -52 c-1 -45 -21 -100 -130 -358 l-128 -305 -194 -107 c-106 -60 -196
-108 -200 -108 -5 0 -8 10 -8 23 0 13 26 52 66 97 142 161 224 291 224 355 0
41 -35 75 -79 75 -25 0 -74 -27 -211 -120 -99 -66 -181 -120 -184 -120 -18 0
12 41 179 236 l185 217 -20 32 c-37 59 -29 83 75 227 52 72 95 140 95 151 0
52 -102 132 -150 116z"/>
<path d="M2222 2280 c-17 -27 -15 -40 8 -65 19 -21 19 -22 -24 -365 l-44 -345
21 -49 21 -49 -31 -56 c-30 -54 -33 -56 -76 -59 l-45 -3 -11 51 c-14 66 -14
113 1 128 9 9 7 13 -5 18 -10 3 -30 -5 -52 -21 -41 -32 -42 -39 -15 -180 12
-68 15 -102 8 -106 -15 -9 -3 -115 22 -215 24 -92 62 -158 88 -150 9 3 132 33
272 67 243 59 258 61 320 51 59 -9 67 -8 88 11 15 14 22 32 22 59 0 49 -28 68
-110 75 -39 4 -60 10 -60 19 0 7 43 84 95 171 52 87 95 168 95 179 0 12 -9 33
-20 47 -21 27 -116 77 -145 77 -9 0 -84 -20 -165 -45 -81 -25 -157 -45 -169
-45 -20 0 -21 5 -21 102 0 56 5 129 11 163 l10 61 85 39 c97 43 241 126 307
177 l46 35 -34 33 c-34 33 -35 33 -77 21 -24 -7 -91 -37 -150 -67 -152 -76
-161 -74 -144 39 14 85 7 129 -25 164 -20 20 -69 53 -81 53 -2 0 -9 -9 -16
-20z m443 -830 c4 -6 -15 -50 -41 -98 -99 -184 -213 -322 -310 -374 -56 -31
-134 -47 -134 -29 0 6 -9 11 -21 11 -20 0 -21 4 -17 88 2 67 9 98 28 137 53
109 189 199 375 249 105 29 112 29 120 16z"/>
</g>
</svg>
