<?xml version="1.0" standalone="no"?>
<!DOCTYPE svg PUBLIC "-//W3C//DTD SVG 20010904//EN"
 "http://www.w3.org/TR/2001/REC-SVG-20010904/DTD/svg10.dtd">
<svg version="1.0" xmlns="http://www.w3.org/2000/svg"
 width="360.000000pt" height="360.000000pt" viewBox="0 0 360.000000 360.000000"
 preserveAspectRatio="xMidYMid meet">
<metadata>
Created by potrace 1.15, written by Peter Selinger 2001-2017
</metadata>
<g transform="translate(0.000000,360.000000) scale(0.100000,-0.100000)"
fill="#000000" stroke="none">
<path d="M2148 2796 c-68 -24 -212 -98 -326 -168 -70 -43 -92 -47 -92 -18 0
17 -7 20 -39 20 -44 0 -48 -5 -57 -86 -6 -44 -3 -58 11 -74 30 -33 80 -26 134
19 62 52 183 130 275 177 58 30 78 36 87 27 9 -9 3 -23 -27 -60 -69 -85 -256
-272 -285 -285 -16 -7 -29 -16 -29 -21 0 -18 51 -57 74 -57 39 0 56 -10 56
-34 0 -13 -77 -108 -215 -263 -118 -133 -215 -248 -215 -256 0 -18 42 -57 62
-57 9 0 59 31 112 70 91 65 146 88 146 59 0 -7 -43 -69 -95 -139 -91 -121
-106 -152 -86 -165 5 -3 88 82 183 190 95 107 179 195 186 195 22 0 15 -153
-10 -231 l-22 -68 -32 19 c-48 30 -54 26 -54 -38 0 -51 5 -64 45 -124 46 -69
55 -98 31 -98 -8 0 -165 -66 -350 -146 -268 -117 -336 -151 -336 -165 0 -17 8
-19 70 -19 58 0 87 7 170 40 55 22 107 40 114 40 10 0 3 -41 -30 -172 l-43
-173 21 -22 c24 -26 48 -30 48 -9 0 31 73 236 115 322 53 110 119 186 181 210
44 17 45 17 70 -7 l26 -24 -4 -245 c-4 -202 -8 -253 -22 -292 -20 -55 -36 -59
-101 -29 -37 17 -106 83 -131 126 -10 18 -12 18 -29 -8 -16 -25 -16 -31 -4
-55 24 -46 135 -156 194 -191 l56 -34 27 20 c38 28 57 65 86 165 48 167 55
235 43 426 -5 94 -8 175 -4 178 3 3 131 37 284 76 263 66 281 69 332 59 45 -9
58 -8 82 6 35 21 36 26 4 47 -51 33 -306 18 -574 -36 l-153 -30 -35 34 -35 35
20 39 c35 69 72 204 84 305 11 95 11 101 -10 138 -12 21 -22 46 -22 54 0 27
82 87 203 148 121 60 156 69 176 45 9 -11 -16 -39 -129 -142 -77 -71 -140
-135 -140 -142 0 -38 152 39 283 143 133 107 135 110 116 143 -21 38 -96 92
-128 92 -50 0 -154 -42 -358 -145 -174 -88 -203 -100 -203 -83 0 11 25 48 56
81 66 73 114 152 114 188 0 15 -12 37 -30 54 -16 16 -30 33 -30 38 0 5 28 39
61 75 73 79 135 171 149 221 11 39 -5 111 -24 111 -6 0 -41 -11 -78 -24z"/>
<path d="M1247 2600 c-50 -13 -92 -35 -150 -79 -52 -38 -134 -137 -124 -148 4
-3 67 17 140 45 73 29 136 52 140 52 39 0 -100 -233 -198 -332 -57 -58 -65
-52 -65 45 0 82 -1 84 -37 127 -38 44 -85 70 -128 70 -17 0 -25 -5 -25 -17 1
-27 26 -92 43 -111 9 -10 17 -50 22 -101 13 -160 62 -260 136 -276 16 -4 29
-8 29 -10 0 -2 -36 -54 -79 -117 -102 -144 -168 -255 -188 -314 l-16 -46 31
-30 30 -30 81 76 c190 177 324 286 337 274 3 -3 -16 -48 -41 -99 -72 -144
-314 -473 -407 -554 l-45 -39 20 -68 c23 -78 25 -79 114 -25 112 69 304 257
562 552 56 65 73 95 53 95 -5 0 -90 -65 -190 -145 -100 -80 -184 -145 -187
-145 -14 0 1 26 63 108 179 239 253 430 189 490 -13 12 -26 22 -28 22 -3 0
-75 -52 -159 -115 -84 -63 -160 -115 -168 -115 -10 0 -12 4 -4 13 52 64 362
502 362 511 0 6 -25 26 -55 44 l-55 33 36 57 c45 71 98 127 135 143 32 13 33
18 19 70 -22 77 -98 112 -193 89z"/>
<path d="M2280 1071 c0 -5 99 -88 220 -185 175 -141 226 -176 250 -176 27 0
30 3 30 33 -1 114 -133 223 -358 296 -114 37 -142 43 -142 32z"/>
</g>
</svg>
