<?xml version="1.0" standalone="no"?>
<!DOCTYPE svg PUBLIC "-//W3C//DTD SVG 20010904//EN"
 "http://www.w3.org/TR/2001/REC-SVG-20010904/DTD/svg10.dtd">
<svg version="1.0" xmlns="http://www.w3.org/2000/svg"
 width="360.000000pt" height="360.000000pt" viewBox="0 0 360.000000 360.000000"
 preserveAspectRatio="xMidYMid meet">
<metadata>
Created by potrace 1.15, written by Peter Selinger 2001-2017
</metadata>
<g transform="translate(0.000000,360.000000) scale(0.100000,-0.100000)"
fill="#000000" stroke="none">
<path d="M2229 2704 c-10 -13 -9 -31 9 -107 12 -51 22 -105 22 -122 -1 -40
-39 -132 -74 -178 -58 -76 -234 -187 -296 -187 l-30 0 0 117 c0 64 5 166 12
225 l12 107 -30 38 c-47 59 -154 106 -154 68 0 -8 21 -56 48 -106 l47 -91 3
-186 c3 -175 2 -189 -19 -234 l-22 -47 -39 31 c-37 31 -39 31 -53 12 -37 -48
-21 -104 30 -104 33 0 88 -41 107 -80 10 -19 18 -54 18 -77 0 -39 -2 -42 -32
-48 -68 -14 -159 -101 -145 -139 3 -7 48 -25 101 -41 53 -16 96 -32 96 -37 0
-15 -72 -87 -117 -118 -47 -30 -81 -38 -99 -21 -5 6 -75 -36 -182 -110 -96
-65 -176 -119 -178 -119 -11 0 1 25 62 126 122 203 159 304 135 367 -10 26
-13 27 -84 27 -87 0 -138 -22 -235 -100 -56 -45 -82 -59 -82 -45 0 2 62 85
138 182 246 318 236 304 225 322 -5 9 -21 36 -36 61 l-26 45 65 119 65 119
-19 51 c-14 37 -25 52 -41 54 -30 5 -138 -47 -185 -88 -30 -27 -51 -35 -99
-42 -34 -5 -68 -15 -76 -23 -13 -13 -12 -17 4 -35 24 -27 93 -27 170 0 79 27
98 26 90 -2 -23 -75 -217 -370 -248 -376 -26 -5 -56 74 -87 231 -11 57 -12 58
-43 55 -42 -4 -44 -24 -17 -180 27 -164 57 -271 87 -315 20 -29 23 -41 14 -53
-36 -50 -86 -150 -102 -202 -27 -87 -25 -128 9 -161 15 -15 31 -27 34 -27 4 0
35 37 71 83 82 105 195 213 242 233 21 8 38 14 39 12 0 -2 7 -13 14 -25 18
-34 16 -46 -33 -144 -31 -62 -119 -188 -276 -397 -197 -262 -230 -311 -227
-337 3 -26 7 -30 31 -28 15 1 56 22 90 46 84 60 318 279 450 421 60 64 114
116 121 116 7 0 20 -6 30 -13 16 -12 16 -16 0 -90 -16 -73 -16 -85 -1 -196 17
-116 43 -221 57 -221 4 0 15 8 24 19 18 19 18 66 1 277 -5 61 -4 97 3 111 14
25 81 59 152 78 63 17 65 7 14 -70 -38 -57 -57 -136 -35 -149 6 -4 23 2 39 12
16 12 75 29 147 42 158 30 270 65 289 91 14 21 18 21 115 10 97 -12 103 -11
131 9 17 12 30 27 29 33 0 7 -18 27 -41 45 -34 27 -48 32 -95 32 l-56 0 6 58
c11 130 79 192 218 200 72 4 79 3 102 -20 36 -36 47 -87 47 -214 0 -243 -64
-614 -106 -614 -19 0 -117 92 -159 149 -19 26 -38 41 -52 41 -31 0 -30 -27 3
-93 78 -153 159 -247 215 -247 29 0 33 5 80 105 57 121 103 256 119 348 7 36
10 155 8 288 l-3 226 -27 35 c-30 39 -105 81 -147 81 -14 1 -72 -3 -127 -7
l-101 -8 -8 48 c-12 82 -29 104 -81 104 -50 0 -56 -17 -34 -96 11 -38 20 -72
20 -75 0 -4 -23 -9 -51 -13 -32 -4 -90 -27 -156 -61 -58 -30 -107 -55 -109
-55 -2 0 -4 18 -4 40 0 39 1 41 230 237 l230 197 -22 23 c-19 20 -31 23 -106
23 l-84 0 7 33 c20 98 67 208 107 244 49 46 92 56 190 43 83 -11 90 -11 103 7
37 48 4 77 -125 109 l-85 22 -11 83 c-22 161 -53 219 -117 219 -19 0 -40 -7
-48 -16z m-109 -666 c-17 -47 -45 -110 -63 -139 -31 -51 -85 -99 -113 -99 -25
0 -53 39 -70 97 l-17 58 56 50 c30 28 95 74 144 103 105 62 109 58 63 -70z
m-122 -330 c8 -8 3 -22 -20 -55 -31 -43 -50 -51 -77 -34 -12 8 -8 18 23 55 38
47 54 54 74 34z m242 -297 c0 -81 -17 -106 -50 -76 -11 10 -20 26 -20 37 0 11
-7 18 -19 18 -14 0 -20 -10 -25 -42 -10 -63 -39 -121 -86 -172 -48 -52 -87
-60 -129 -26 l-23 20 26 34 c14 19 26 43 26 53 1 61 96 153 205 197 93 39 95
38 95 -43z m-350 40 c0 -26 -119 -131 -149 -131 -6 0 -11 11 -11 24 0 17 16
34 68 69 66 45 92 56 92 38z"/>
</g>
</svg>
