<?xml version="1.0" standalone="no"?>
<!DOCTYPE svg PUBLIC "-//W3C//DTD SVG 20010904//EN"
 "http://www.w3.org/TR/2001/REC-SVG-20010904/DTD/svg10.dtd">
<svg version="1.0" xmlns="http://www.w3.org/2000/svg"
 width="360.000000pt" height="360.000000pt" viewBox="0 0 360.000000 360.000000"
 preserveAspectRatio="xMidYMid meet">
<metadata>
Created by potrace 1.15, written by Peter Selinger 2001-2017
</metadata>
<g transform="translate(0.000000,360.000000) scale(0.100000,-0.100000)"
fill="#000000" stroke="none">
<path d="M2036 2690 c-26 -32 -118 -190 -157 -272 -23 -47 -24 -48 -71 -48
-62 0 -69 15 -41 92 l21 57 -20 27 c-24 29 -74 54 -112 54 -33 0 -275 -150
-276 -171 0 -23 32 -49 61 -49 14 0 63 18 108 40 46 22 85 39 86 38 1 -2 -13
-57 -32 -123 -18 -66 -38 -137 -44 -157 -13 -49 -33 -49 -109 -3 -32 19 -60
35 -64 35 -11 0 -6 -80 8 -113 7 -18 29 -47 50 -64 43 -38 44 -57 10 -126 -33
-66 -162 -237 -179 -237 -7 0 -14 18 -17 45 -3 25 -13 56 -22 70 -15 22 -23
25 -77 25 -41 0 -73 -7 -102 -21 -56 -29 -167 -105 -246 -168 -35 -28 -66 -49
-69 -47 -6 7 39 82 92 152 55 73 173 196 286 297 80 72 84 78 74 104 -6 17
-18 29 -32 31 -12 2 -22 8 -22 13 0 5 32 51 70 103 55 75 70 102 70 129 0 31
-5 37 -42 56 -24 11 -73 28 -109 37 l-65 18 -145 -78 c-79 -43 -146 -80 -149
-83 -2 -2 4 -19 15 -38 15 -29 24 -35 51 -35 52 0 138 37 188 81 46 41 70 45
82 14 11 -27 -112 -259 -169 -319 -47 -50 -57 -56 -93 -56 l-41 0 -6 53 c-16
135 -65 218 -139 238 -33 8 -44 8 -55 -4 -12 -12 -4 -39 63 -200 l76 -186 -22
-31 -22 -31 21 -23 c11 -12 21 -28 21 -34 0 -7 -43 -98 -95 -202 -52 -104 -95
-197 -95 -205 0 -9 9 -33 20 -55 19 -38 20 -38 57 -28 30 7 76 47 208 177 192
189 218 211 252 211 21 0 23 -3 17 -22 -39 -128 -271 -446 -546 -749 -43 -48
-78 -93 -78 -100 0 -25 39 -79 57 -79 25 0 161 95 273 190 188 161 470 431
470 450 0 34 -16 30 -81 -17 -106 -78 -252 -164 -262 -154 -5 5 24 58 71 128
77 115 81 119 128 131 104 27 227 118 238 177 8 43 56 100 106 125 66 34 234
68 245 50 3 -6 -27 -45 -67 -88 -92 -96 -152 -175 -177 -232 -19 -45 -19 -46
4 -199 l22 -155 -23 -90 c-17 -64 -24 -120 -24 -188 l0 -97 -37 -30 c-51 -42
-243 -125 -256 -112 -6 6 -26 11 -44 11 -30 0 -33 -3 -33 -29 0 -30 31 -64 71
-76 10 -4 85 15 171 44 188 61 392 115 519 136 74 13 149 16 335 13 234 -3
240 -4 304 -30 l64 -27 24 22 c17 16 21 28 17 47 -10 38 -36 59 -109 86 -64
23 -78 24 -296 24 -162 0 -230 3 -230 11 0 6 45 69 100 139 93 120 100 132
100 174 0 50 -16 73 -58 82 -15 3 -33 7 -39 10 -9 2 -13 24 -13 64 0 59 2 64
75 173 83 124 92 158 52 195 -24 23 -102 42 -169 42 -35 0 -63 -16 -224 -130
-102 -72 -191 -133 -199 -136 -11 -5 -15 1 -15 21 0 23 40 67 225 247 124 121
225 223 225 227 0 14 -59 41 -91 41 -18 0 -106 -27 -196 -60 -90 -33 -168 -60
-173 -60 -18 0 -10 25 44 135 30 60 69 155 88 212 39 122 47 126 117 57 62
-63 156 -123 203 -130 29 -5 64 -28 141 -92 223 -187 422 -319 562 -374 72
-28 94 -31 220 -36 123 -4 142 -2 154 12 11 13 11 22 3 41 -9 20 -19 25 -50
25 -101 0 -287 67 -461 167 -167 96 -444 298 -437 319 2 6 51 77 109 158 99
138 105 149 96 178 -10 37 -24 48 -60 48 -43 0 -75 -50 -49 -76 13 -13 -101
-175 -155 -222 -28 -25 -45 -32 -78 -32 -36 0 -47 5 -65 30 l-23 30 59 77 c80
105 113 160 128 211 12 40 12 46 -8 73 -12 16 -25 29 -29 29 -4 0 -19 -14 -33
-30z m-6 -1106 c0 -3 -22 -49 -50 -103 -83 -162 -180 -249 -296 -267 -50 -8
-58 2 -50 61 14 91 104 182 268 270 74 40 128 56 128 39z m13 -380 c7 -24 4
-40 -13 -75 -65 -127 -201 -284 -274 -314 -20 -8 -55 -15 -79 -15 l-45 0 13
62 c9 42 10 68 4 81 -10 17 -12 17 -45 -8 l-35 -26 -19 23 c-11 13 -19 26 -20
29 0 4 93 68 208 143 197 130 209 137 252 134 40 -3 45 -6 53 -34z"/>
</g>
</svg>
