<?xml version="1.0" standalone="no"?>
<!DOCTYPE svg PUBLIC "-//W3C//DTD SVG 20010904//EN"
 "http://www.w3.org/TR/2001/REC-SVG-20010904/DTD/svg10.dtd">
<svg version="1.0" xmlns="http://www.w3.org/2000/svg"
 width="360.000000pt" height="360.000000pt" viewBox="0 0 360.000000 360.000000"
 preserveAspectRatio="xMidYMid meet">
<metadata>
Created by potrace 1.15, written by Peter Selinger 2001-2017
</metadata>
<g transform="translate(0.000000,360.000000) scale(0.100000,-0.100000)"
fill="#000000" stroke="none">
<path d="M2015 2595 c-132 -52 -257 -102 -277 -110 l-37 -14 -32 44 -32 45
-24 -35 c-19 -28 -23 -47 -23 -112 0 -155 -44 -408 -119 -681 -23 -81 -46
-167 -52 -191 -16 -65 -87 -131 -200 -186 -100 -48 -119 -53 -119 -30 0 8 61
113 136 232 l135 216 -34 34 -33 34 -50 -17 c-63 -21 -184 -101 -299 -198
-126 -107 -131 -104 -49 22 82 126 168 236 256 328 43 45 78 88 78 96 0 8 -16
29 -35 48 -19 19 -35 40 -35 47 0 7 41 74 90 149 50 74 90 140 90 146 0 5 -19
34 -42 65 l-43 55 -70 -5 c-93 -6 -170 -41 -244 -112 l-58 -55 -71 0 c-45 0
-72 -4 -72 -11 0 -6 18 -36 39 -67 33 -48 40 -68 46 -127 13 -145 36 -270 55
-311 l21 -42 -126 -207 c-118 -196 -125 -210 -125 -260 0 -66 7 -85 31 -85 48
0 182 97 361 261 78 71 118 95 118 70 0 -17 -97 -155 -170 -241 -39 -47 -132
-149 -206 -227 -133 -141 -135 -143 -132 -184 6 -79 9 -78 327 114 160 98 299
177 307 177 20 0 14 -37 -27 -162 -59 -182 -149 -343 -256 -458 l-53 -58 26
-32 27 -31 39 38 c52 50 139 179 226 333 56 99 86 168 137 320 169 501 261
860 281 1103 4 48 8 87 10 87 1 0 37 -5 79 -11 72 -10 79 -9 99 10 12 12 67
36 122 55 214 73 354 132 368 154 8 14 -70 72 -96 72 -13 0 -131 -43 -263 -95z
m-851 -202 c-3 -21 -20 -64 -37 -96 -32 -61 -140 -187 -161 -187 -7 0 -20 42
-33 108 l-21 107 25 34 c35 46 94 71 171 71 l63 0 -7 -37z"/>
<path d="M2335 2420 c-3 -5 0 -18 6 -28 29 -46 -37 -275 -189 -659 l-96 -243
-38 0 c-41 0 -48 10 -22 31 12 10 15 30 11 103 -2 50 -7 101 -11 112 -7 18 9
39 93 127 56 57 101 111 101 118 0 8 -22 28 -49 46 l-49 32 24 93 c13 51 24
104 24 119 0 25 -55 89 -77 89 -6 0 -12 -34 -15 -87 -3 -76 -9 -99 -41 -165
-44 -90 -156 -216 -273 -303 -67 -51 -74 -59 -74 -91 0 -43 15 -50 80 -34 28
7 53 10 55 8 2 -2 -36 -68 -85 -147 -104 -167 -201 -353 -224 -430 -16 -53
-15 -55 6 -78 37 -40 106 -25 197 42 52 39 91 56 91 41 0 -2 -11 -52 -25 -110
-14 -58 -25 -120 -25 -136 0 -30 1 -31 43 -28 l42 3 12 55 c7 30 19 93 27 140
20 113 64 198 146 281 63 64 163 139 186 139 13 0 3 -87 -16 -147 -35 -107
-130 -260 -244 -393 l-55 -65 25 -25 26 -25 74 79 c130 139 221 287 279 451
l31 90 43 7 c126 21 245 179 330 436 46 140 48 159 20 188 -39 42 -91 34 -202
-31 -84 -49 -147 -69 -147 -47 0 5 12 42 26 83 33 95 64 233 64 285 0 30 -6
46 -23 62 -24 23 -71 30 -82 12z m290 -472 c-19 -64 -101 -244 -134 -295 -58
-91 -125 -139 -156 -113 -22 18 -35 77 -34 150 l0 65 131 108 c110 90 135 107
165 107 31 0 34 -2 28 -22z m-718 -403 c-7 -66 -45 -153 -92 -211 -35 -43
-146 -124 -170 -124 -37 0 39 141 154 285 97 122 117 131 108 50z"/>
<path d="M1750 2218 c-27 -43 -44 -107 -41 -151 2 -27 56 -77 83 -77 26 0 98
66 98 90 0 26 -85 165 -102 168 -11 2 -25 -9 -38 -30z"/>
<path d="M2342 1237 c-9 -10 29 -44 182 -162 192 -150 192 -150 240 -236 80
-144 116 -178 157 -146 22 17 10 104 -18 127 -11 8 -22 32 -26 52 -21 129
-144 240 -362 326 -125 50 -158 57 -173 39z"/>
</g>
</svg>
