<?xml version="1.0" standalone="no"?>
<!DOCTYPE svg PUBLIC "-//W3C//DTD SVG 20010904//EN"
 "http://www.w3.org/TR/2001/REC-SVG-20010904/DTD/svg10.dtd">
<svg version="1.0" xmlns="http://www.w3.org/2000/svg"
 width="360.000000pt" height="360.000000pt" viewBox="0 0 360.000000 360.000000"
 preserveAspectRatio="xMidYMid meet">
<metadata>
Created by potrace 1.15, written by Peter Selinger 2001-2017
</metadata>
<g transform="translate(0.000000,360.000000) scale(0.100000,-0.100000)"
fill="#000000" stroke="none">
<path d="M1735 3090 c-17 -19 -16 -21 14 -68 17 -27 31 -56 31 -65 0 -24 -87
-124 -178 -202 -63 -55 -81 -76 -81 -97 -1 -35 9 -35 99 -2 l70 26 40 -26 c22
-14 43 -26 47 -26 5 0 65 31 135 69 122 67 128 69 163 58 l37 -11 -5 -56 c-4
-30 -14 -216 -24 -414 l-17 -359 -66 -29 c-91 -41 -201 -107 -295 -177 l-79
-60 -31 23 c-19 15 -31 34 -33 52 -2 25 4 33 45 59 93 58 239 173 292 229 l54
58 -36 36 -36 36 -69 -22 c-38 -12 -81 -22 -96 -22 -25 0 -18 11 114 185 128
167 141 188 135 215 -8 37 -35 39 -118 11 -54 -19 -250 -114 -273 -132 -8 -6
-20 8 -38 44 -24 50 -100 132 -154 167 -21 13 -22 18 -13 43 25 65 -3 91 -47
44 -35 -38 -23 -138 23 -187 58 -62 92 -191 101 -385 5 -109 3 -148 -15 -240
-18 -94 -25 -114 -49 -135 -16 -14 -75 -65 -131 -114 -57 -49 -127 -119 -157
-155 l-54 -65 0 -74 c0 -86 25 -137 64 -130 12 3 207 133 433 291 358 250 415
287 448 287 l36 0 -87 -127 c-152 -222 -341 -468 -556 -725 -97 -116 -114
-144 -80 -134 9 3 29 8 44 12 42 10 357 345 659 702 20 23 41 42 47 42 9 0 12
-109 12 -420 l0 -420 -45 0 c-36 0 -45 3 -45 18 0 25 -32 69 -70 97 -31 23
-35 24 -52 8 -10 -9 -18 -21 -18 -27 1 -6 43 -81 95 -166 90 -149 93 -156 75
-169 -19 -13 -19 -15 17 -42 21 -16 46 -29 56 -29 24 0 67 96 97 215 22 88 22
94 11 360 -6 148 -11 371 -11 494 0 222 0 223 31 315 46 139 176 368 319 560
52 72 56 127 10 171 -16 16 -31 27 -33 24 -1 -2 -38 -63 -82 -136 -94 -158
-173 -266 -198 -271 -15 -3 -18 0 -12 17 3 11 1 38 -5 59 -16 61 14 383 44
470 14 41 5 75 -39 140 -59 87 -125 94 -254 27 -48 -25 -97 -45 -109 -45 -20
0 -19 5 23 72 60 96 61 132 4 199 -36 43 -46 49 -78 49 -25 0 -44 -7 -56 -20z
m25 -751 c0 -22 -188 -205 -199 -194 -6 6 -13 28 -16 50 l-6 40 93 57 c91 56
128 69 128 47z m-311 -733 l22 -24 -139 -101 c-132 -95 -197 -127 -173 -83 19
33 139 165 181 198 51 40 78 43 109 10z"/>
</g>
</svg>
