<?xml version="1.0" standalone="no"?>
<!DOCTYPE svg PUBLIC "-//W3C//DTD SVG 20010904//EN"
 "http://www.w3.org/TR/2001/REC-SVG-20010904/DTD/svg10.dtd">
<svg version="1.0" xmlns="http://www.w3.org/2000/svg"
 width="360.000000pt" height="360.000000pt" viewBox="0 0 360.000000 360.000000"
 preserveAspectRatio="xMidYMid meet">
<metadata>
Created by potrace 1.15, written by Peter Selinger 2001-2017
</metadata>
<g transform="translate(0.000000,360.000000) scale(0.100000,-0.100000)"
fill="#000000" stroke="none">
<path d="M1124 2775 c-3 -8 6 -29 20 -46 42 -49 35 -68 -70 -199 -89 -112
-108 -150 -74 -150 29 0 232 176 255 221 8 15 15 50 15 77 0 41 -5 53 -33 80
-25 24 -42 32 -70 32 -24 0 -40 -5 -43 -15z"/>
<path d="M2025 2659 c-177 -110 -259 -149 -312 -149 -49 0 -52 -8 -22 -57 24
-38 16 -37 152 -17 l37 6 0 -72 c0 -70 -1 -74 -81 -220 -147 -273 -289 -588
-289 -643 0 -16 59 -42 70 -31 4 5 95 204 201 442 l192 434 -21 44 c-12 25
-22 62 -22 82 l0 38 120 52 c66 29 122 52 125 52 12 0 2 -46 -50 -214 -30 -98
-55 -187 -55 -196 0 -24 73 -40 175 -40 41 0 76 -4 79 -8 16 -27 -108 -178
-253 -307 -79 -69 -91 -84 -91 -112 0 -28 5 -35 38 -50 31 -15 37 -23 37 -48
0 -29 -7 -33 -295 -177 -219 -109 -305 -147 -333 -147 l-39 -1 4 148 c3 147 3
150 34 199 l32 51 -35 63 c-30 55 -33 65 -22 86 9 17 10 32 2 56 -15 49 26
345 63 453 14 40 13 46 -5 83 -28 55 -48 71 -84 71 -35 0 -121 -45 -151 -78
-11 -13 -16 -28 -12 -38 6 -16 21 -16 81 1 11 3 29 0 39 -8 18 -13 19 -19 7
-108 -20 -146 -15 -138 -66 -126 -42 10 -50 7 -145 -36 -55 -26 -106 -47 -114
-47 -9 0 -22 26 -35 68 -31 104 -86 171 -153 187 -37 9 -37 -11 -2 -66 14 -23
32 -59 40 -81 16 -45 18 -178 4 -248 -5 -29 -5 -49 2 -57 7 -9 7 -26 -1 -56
-7 -30 -8 -76 -1 -148 17 -190 25 -164 -110 -347 -66 -89 -120 -168 -120 -175
0 -23 35 -47 66 -47 16 0 52 11 79 24 48 22 185 124 214 159 15 18 71 24 71 7
0 -18 -100 -212 -147 -285 -65 -101 -111 -154 -159 -185 l-43 -27 32 -31 c18
-18 38 -32 44 -32 36 0 208 243 373 528 69 120 86 142 106 142 21 0 24 -5 24
-37 0 -21 5 -67 11 -103 7 -47 7 -82 -2 -132 -9 -52 -9 -70 0 -82 8 -9 8 -15
1 -18 -7 -2 -7 -19 0 -57 18 -96 6 -284 -23 -353 l-12 -28 -80 65 c-44 35 -86
64 -92 65 -34 1 -3 -45 96 -144 l108 -108 31 16 c17 9 34 29 41 47 7 21 11
146 11 359 0 363 -1 358 61 339 33 -10 44 -7 177 60 119 60 145 69 166 61 21
-8 30 -4 59 25 34 34 107 62 177 67 l35 3 12 -85 c18 -129 16 -510 -3 -590
-31 -132 -34 -140 -55 -140 -12 0 -49 27 -84 61 l-63 61 -17 -26 c-12 -17 -14
-30 -8 -39 71 -93 178 -217 189 -217 37 0 80 87 114 234 21 93 55 292 66 383
6 56 9 63 28 63 69 0 219 -120 336 -269 l63 -80 38 32 c38 31 39 33 34 87 -14
147 -155 243 -440 299 l-90 17 -3 110 c-2 60 0 119 3 131 7 29 63 57 145 72
36 7 185 15 332 18 263 6 268 6 289 29 l22 23 -35 35 c-56 56 -240 95 -290 62
-37 -24 -160 -53 -308 -71 l-133 -17 -61 61 -61 61 90 82 c182 165 275 276
275 328 0 30 -30 73 -63 93 -12 6 -58 14 -102 17 -73 5 -80 7 -83 27 -2 12 10
45 27 75 60 109 81 248 41 288 -20 20 -93 60 -107 59 -4 0 -66 -36 -138 -80z
m-705 -561 c0 -54 -24 -238 -31 -238 -4 0 -19 4 -33 10 -22 8 -41 2 -118 -35
-81 -40 -94 -43 -107 -31 -13 13 -11 20 14 58 36 55 241 258 260 258 9 0 15
-9 15 -22z m-250 -90 c0 -7 -11 -26 -24 -43 l-25 -30 -22 22 c-22 22 -22 23
-4 43 20 22 75 28 75 8z m240 -224 c11 -32 10 -39 -17 -77 -48 -70 -145 -168
-217 -218 -69 -49 -69 -49 -81 -27 -9 17 -9 27 -1 40 26 39 282 317 293 318 6
0 17 -16 23 -36z m-363 -375 c8 -8 -4 -24 -47 -60 -53 -44 -80 -59 -80 -44 0
3 18 30 40 60 40 54 65 66 87 44z"/>
<path d="M1763 1305 c-91 -106 -153 -271 -153 -405 0 -55 4 -70 21 -86 21 -19
21 -18 44 8 31 36 85 179 84 220 -1 18 -4 47 -8 63 -6 23 -2 36 16 58 28 35
45 96 41 150 l-3 41 -42 -49z"/>
</g>
</svg>
