<?xml version="1.0" standalone="no"?>
<!DOCTYPE svg PUBLIC "-//W3C//DTD SVG 20010904//EN"
 "http://www.w3.org/TR/2001/REC-SVG-20010904/DTD/svg10.dtd">
<svg version="1.0" xmlns="http://www.w3.org/2000/svg"
 width="360.000000pt" height="360.000000pt" viewBox="0 0 360.000000 360.000000"
 preserveAspectRatio="xMidYMid meet">
<metadata>
Created by potrace 1.15, written by Peter Selinger 2001-2017
</metadata>
<g transform="translate(0.000000,360.000000) scale(0.100000,-0.100000)"
fill="#000000" stroke="none">
<path d="M1743 2768 l-22 -22 53 -56 c65 -68 76 -101 76 -234 0 -98 0 -99 -35
-142 -28 -33 -44 -44 -77 -49 -24 -4 -58 -14 -75 -22 -28 -13 -33 -21 -33 -49
0 -45 13 -49 111 -37 l79 9 0 -52 0 -51 -163 -126 -164 -125 -49 10 c-33 6
-57 19 -74 37 -31 35 -80 61 -114 61 -20 0 -35 14 -68 60 -44 64 -64 72 -93
40 -16 -18 -16 -20 4 -53 39 -64 31 -84 -64 -160 -77 -61 -115 -81 -115 -59 0
32 39 144 82 233 l50 107 209 153 208 153 -21 23 c-36 39 -69 30 -195 -52 -64
-41 -119 -75 -124 -75 -4 0 -9 40 -11 89 -4 104 -25 146 -73 146 -44 0 -52
-25 -28 -82 l20 -48 -31 -85 c-17 -47 -34 -90 -38 -96 -4 -6 -28 -14 -53 -17
-67 -10 -115 -33 -115 -55 0 -26 21 -42 64 -49 20 -3 36 -10 36 -15 0 -5 -27
-103 -60 -218 -33 -115 -60 -215 -60 -223 0 -23 35 -47 68 -47 19 0 75 22 138
55 59 30 108 55 110 55 2 0 4 -7 4 -15 0 -9 -40 -60 -89 -115 -256 -286 -431
-519 -431 -575 0 -27 39 -65 67 -65 12 0 32 15 48 35 73 97 325 295 374 295
18 0 13 -171 -11 -353 l-22 -167 29 -30 c34 -35 47 -37 89 -11 l31 20 -12 198
c-7 109 -12 250 -11 313 l3 115 153 110 c152 109 152 109 132 129 -20 20 -20
20 -123 -11 -56 -18 -111 -35 -121 -39 -18 -7 -19 -3 -14 57 3 37 15 83 27
107 25 49 78 112 95 112 6 0 34 -20 63 -45 75 -66 86 -64 261 53 270 180 460
261 632 270 98 5 123 15 136 54 4 13 -2 28 -17 44 -35 37 -94 32 -286 -26 -91
-27 -172 -50 -179 -50 -17 0 -18 49 -4 102 15 54 50 90 146 153 46 30 84 59
84 64 0 21 -27 29 -75 21 -27 -5 -67 -9 -87 -9 l-38 -1 0 104 0 104 -56 71
c-51 65 -58 71 -92 71 -25 0 -45 -7 -59 -22z m-643 -1282 c0 -18 -15 -33 -63
-65 -35 -22 -70 -41 -77 -41 -8 0 15 29 50 65 69 69 90 79 90 41z"/>
<path d="M1863 1836 c-120 -59 -304 -159 -329 -177 -7 -6 0 -31 23 -77 36 -71
52 -154 53 -263 l0 -56 -175 -219 c-96 -121 -175 -226 -175 -235 0 -9 8 -27
18 -39 l18 -22 146 168 c162 188 254 281 264 271 4 -4 -2 -145 -14 -312 -23
-317 -23 -323 16 -367 8 -10 27 -18 41 -18 22 0 44 20 113 103 192 228 331
428 361 519 l15 43 75 3 c52 2 101 -4 159 -18 125 -32 318 -97 436 -146 58
-24 107 -44 108 -44 2 0 4 16 4 35 0 45 -26 70 -128 123 -170 88 -263 120
-384 131 -125 12 -172 23 -197 45 -14 12 -29 13 -81 6 -96 -14 -190 -13 -190
3 1 6 63 89 140 182 149 182 159 203 117 243 -36 34 -53 28 -67 -24 -26 -93
-149 -250 -295 -378 l-67 -59 -26 26 -26 26 18 38 c31 65 103 159 167 217 35
31 66 56 71 56 4 0 8 7 8 15 0 39 24 118 46 150 30 45 30 66 1 93 -18 17 -36
22 -79 22 -48 0 -73 -9 -185 -64z m87 -72 c0 -3 -21 -37 -46 -76 -94 -146
-217 -246 -237 -194 -3 8 -9 45 -12 84 l-7 69 47 12 c53 13 122 47 175 85 32
23 80 35 80 20z m200 -579 c0 -26 -62 -156 -107 -224 -51 -78 -259 -301 -280
-301 -8 0 10 294 22 358 13 70 105 141 208 161 46 10 157 14 157 6z"/>
</g>
</svg>
