<?xml version="1.0" standalone="no"?>
<!DOCTYPE svg PUBLIC "-//W3C//DTD SVG 20010904//EN"
 "http://www.w3.org/TR/2001/REC-SVG-20010904/DTD/svg10.dtd">
<svg version="1.0" xmlns="http://www.w3.org/2000/svg"
 width="360.000000pt" height="360.000000pt" viewBox="0 0 360.000000 360.000000"
 preserveAspectRatio="xMidYMid meet">
<metadata>
Created by potrace 1.15, written by Peter Selinger 2001-2017
</metadata>
<g transform="translate(0.000000,360.000000) scale(0.100000,-0.100000)"
fill="#000000" stroke="none">
<path d="M1752 2427 c-27 -29 -28 -47 -3 -47 24 0 68 -35 90 -72 16 -25 17
-35 4 -110 -32 -189 -70 -251 -188 -309 -61 -30 -69 -31 -136 -25 -39 4 -78
10 -86 13 -11 4 -14 -2 -11 -32 6 -80 91 -102 237 -64 116 30 119 28 96 -82
-25 -126 -94 -292 -187 -452 -38 -66 -39 -69 -22 -88 23 -26 90 -25 124 1 14
11 32 19 40 19 8 0 42 -39 76 -86 84 -121 94 -127 176 -112 l65 12 77 126 c73
120 81 141 186 456 60 181 110 338 110 348 0 46 -116 149 -197 173 -44 13 -56
13 -150 -7 -57 -12 -105 -20 -107 -18 -3 2 9 59 26 126 17 68 28 129 25 136
-6 16 -188 117 -210 117 -7 0 -23 -10 -35 -23z m437 -481 l44 -45 -7 -63 c-4
-39 -14 -73 -26 -90 -13 -17 -20 -43 -20 -71 0 -112 -80 -316 -180 -462 -69
-98 -84 -111 -114 -97 -31 14 -61 92 -83 219 -16 90 -16 101 1 202 49 291 155
447 306 450 30 1 43 -7 79 -43z"/>
<path d="M852 2194 c3 -29 16 -39 62 -49 15 -3 52 -28 81 -56 l52 -50 32 36
c17 20 31 44 31 55 0 41 -69 71 -203 85 l-58 7 3 -28z"/>
<path d="M772 1728 c-22 -22 -12 -37 53 -83 l65 -47 0 -59 c0 -73 18 -239 31
-294 16 -65 41 -114 60 -120 27 -9 24 -16 -18 -57 -28 -26 -74 -50 -173 -88
-74 -29 -165 -68 -203 -87 -71 -35 -72 -37 -35 -86 13 -17 18 -16 108 19 102
39 266 84 308 84 14 0 34 -7 44 -16 16 -16 21 -16 60 -1 67 25 256 -4 523 -81
391 -113 624 -169 811 -197 l109 -16 234 35 c166 26 238 33 252 26 15 -8 22
-5 35 15 24 36 12 52 -53 71 -51 15 -74 16 -203 5 -105 -8 -156 -8 -184 0 -28
8 -51 8 -82 0 -68 -17 -277 19 -544 95 -357 101 -645 164 -747 164 -32 0 -45
5 -50 18 -4 9 -30 53 -59 97 -87 135 -148 270 -126 284 7 4 7 25 0 64 -7 41
-7 75 0 110 9 45 8 56 -7 77 -34 49 -181 96 -209 68z"/>
</g>
</svg>
