<?xml version="1.0" standalone="no"?>
<!DOCTYPE svg PUBLIC "-//W3C//DTD SVG 20010904//EN"
 "http://www.w3.org/TR/2001/REC-SVG-20010904/DTD/svg10.dtd">
<svg version="1.0" xmlns="http://www.w3.org/2000/svg"
 width="360.000000pt" height="360.000000pt" viewBox="0 0 360.000000 360.000000"
 preserveAspectRatio="xMidYMid meet">
<metadata>
Created by potrace 1.15, written by Peter Selinger 2001-2017
</metadata>
<g transform="translate(0.000000,360.000000) scale(0.100000,-0.100000)"
fill="#000000" stroke="none">
<path d="M1872 2323 l-234 -105 -62 13 c-92 18 -119 2 -73 -42 36 -35 87 -51
174 -57 l81 -5 11 -60 c12 -68 16 -76 33 -59 7 7 29 12 50 12 31 0 40 -5 53
-30 8 -16 15 -35 15 -43 0 -7 -42 -42 -92 -77 -117 -80 -280 -202 -335 -250
-32 -28 -56 -39 -105 -48 -34 -6 -74 -20 -88 -30 -34 -26 -37 -69 -7 -106 l23
-29 45 20 c67 30 208 120 364 232 118 85 146 101 178 101 20 0 38 -1 38 -2 1
-2 7 -111 15 -243 13 -236 12 -241 -9 -322 -12 -46 -25 -83 -28 -83 -4 0 -41
37 -84 82 l-76 81 -26 -26 -26 -25 108 -146 c130 -178 135 -179 190 -75 21 40
44 95 51 123 17 62 18 269 3 490 -12 192 -3 253 40 262 185 40 353 104 359
136 6 30 -27 68 -59 68 -43 0 -230 -38 -293 -60 l-56 -19 -45 55 c-39 48 -43
59 -34 76 12 23 96 109 172 176 l48 43 -28 39 c-15 22 -35 39 -43 39 -8 -1
-120 -48 -248 -106z"/>
<path d="M857 2183 c-3 -5 23 -31 58 -57 36 -26 67 -51 70 -56 3 -5 1 -28 -5
-51 -10 -38 -9 -44 9 -62 33 -33 67 -14 107 58 19 33 34 68 34 78 0 34 -110
82 -216 94 -29 3 -54 1 -57 -4z"/>
<path d="M887 1822 c-22 -24 -24 -152 -3 -185 8 -12 17 -48 21 -80 14 -120 66
-259 124 -331 17 -21 31 -45 31 -52 0 -8 -17 -32 -37 -55 -50 -56 -306 -183
-370 -184 -26 -1 -50 -8 -60 -17 -14 -15 -14 -19 5 -46 l22 -29 192 54 193 54
152 -11 c146 -10 158 -13 302 -65 218 -78 532 -180 646 -209 157 -39 216 -46
270 -32 39 9 61 9 120 -3 61 -13 102 -13 256 -4 101 6 202 17 224 24 37 13 40
17 43 55 l3 41 -68 6 c-37 4 -234 14 -438 23 l-370 16 -175 53 c-423 130 -612
181 -753 205 -55 10 -67 15 -63 29 3 9 8 48 12 88 l6 71 -46 50 c-45 48 -49
56 -87 204 -62 238 -101 348 -124 348 -6 0 -19 -8 -28 -18z"/>
</g>
</svg>
