<?xml version="1.0" standalone="no"?>
<!DOCTYPE svg PUBLIC "-//W3C//DTD SVG 20010904//EN"
 "http://www.w3.org/TR/2001/REC-SVG-20010904/DTD/svg10.dtd">
<svg version="1.0" xmlns="http://www.w3.org/2000/svg"
 width="360.000000pt" height="360.000000pt" viewBox="0 0 360.000000 360.000000"
 preserveAspectRatio="xMidYMid meet">
<metadata>
Created by potrace 1.15, written by Peter Selinger 2001-2017
</metadata>
<g transform="translate(0.000000,360.000000) scale(0.100000,-0.100000)"
fill="#000000" stroke="none">
<path d="M1735 2304 c-309 -186 -293 -179 -382 -157 -20 5 -23 1 -23 -28 1
-24 11 -45 35 -73 29 -33 38 -37 62 -32 36 9 113 54 113 66 0 6 22 10 49 10
l48 0 13 -45 c8 -29 11 -79 8 -138 -7 -133 -41 -193 -122 -213 -19 -4 -31 -2
-36 7 -13 20 -89 -17 -96 -48 -4 -14 -3 -28 2 -33 12 -12 121 -40 154 -40 58
-1 58 -2 -22 -253 l-75 -236 21 -26 c14 -17 27 -24 37 -20 38 14 96 164 144
374 14 58 27 116 30 129 9 36 50 28 107 -19 l49 -42 24 23 c30 28 32 69 8 112
-19 30 -100 90 -141 103 -18 5 -22 12 -19 28 3 12 14 70 24 130 l17 107 -28
83 c-16 45 -31 87 -33 93 -8 21 264 174 309 174 22 0 22 24 -3 -331 -14 -193
-19 -337 -15 -419 12 -283 99 -466 256 -539 48 -22 71 -26 183 -29 176 -5 247
22 247 98 0 14 -23 116 -52 227 l-53 203 -31 0 -31 0 34 -201 c25 -147 31
-205 23 -214 -6 -8 -28 -16 -48 -20 -42 -7 -214 20 -252 40 -123 65 -193 288
-194 620 -1 194 44 409 120 582 9 20 -75 102 -115 113 -20 5 -40 9 -46 9 -5 0
-140 -79 -300 -175z"/>
<path d="M828 2259 c-10 -5 -18 -18 -18 -28 0 -24 118 -161 139 -161 29 0 51
33 51 77 0 34 -6 46 -31 67 -31 27 -92 56 -113 56 -6 0 -19 -5 -28 -11z"/>
<path d="M700 1664 c0 -16 13 -41 34 -64 27 -31 34 -48 40 -101 23 -204 89
-407 140 -431 50 -22 20 -61 -65 -83 -91 -24 -240 -40 -274 -28 -26 8 -31 7
-42 -15 -16 -31 -17 -67 0 -79 8 -7 103 2 292 28 366 50 372 50 730 -67 755
-247 840 -259 1242 -178 126 25 234 47 242 50 11 3 7 12 -15 35 -25 26 -33 29
-74 25 -25 -2 -60 -8 -77 -11 -20 -5 -38 -3 -47 4 -10 9 -56 6 -191 -10 -141
-16 -183 -18 -200 -9 -17 9 -27 9 -42 -1 -17 -10 -37 -9 -109 5 -209 41 -486
118 -836 232 -125 41 -240 74 -256 74 -107 0 -220 84 -261 195 -30 81 -50 229
-33 255 7 11 12 35 12 55 0 65 -97 144 -177 145 -29 0 -33 -3 -33 -26z"/>
</g>
</svg>
