<?xml version="1.0" standalone="no"?>
<!DOCTYPE svg PUBLIC "-//W3C//DTD SVG 20010904//EN"
 "http://www.w3.org/TR/2001/REC-SVG-20010904/DTD/svg10.dtd">
<svg version="1.0" xmlns="http://www.w3.org/2000/svg"
 width="360.000000pt" height="360.000000pt" viewBox="0 0 360.000000 360.000000"
 preserveAspectRatio="xMidYMid meet">
<metadata>
Created by potrace 1.15, written by Peter Selinger 2001-2017
</metadata>
<g transform="translate(0.000000,360.000000) scale(0.100000,-0.100000)"
fill="#000000" stroke="none">
<path d="M1700 2434 c-124 -28 -188 -49 -219 -70 l-22 -16 22 -24 c17 -18 33
-24 68 -24 88 0 245 51 257 84 3 8 4 27 2 44 l-3 29 -105 -23z"/>
<path d="M663 2157 c-24 -11 -43 -23 -42 -26 0 -4 23 -23 50 -44 55 -42 109
-118 109 -154 0 -28 4 -28 41 -2 27 19 29 25 29 88 0 63 -2 69 -32 98 -32 30
-89 64 -105 62 -4 0 -27 -10 -50 -22z"/>
<path d="M2121 2103 c-88 -59 -151 -114 -280 -242 -172 -172 -256 -272 -294
-353 -17 -37 -27 -48 -44 -48 -22 0 -23 3 -23 86 0 47 5 140 11 207 11 109 10
126 -6 173 -10 30 -28 63 -41 75 l-23 22 -20 -24 c-26 -31 -26 -47 -1 -74 19
-21 20 -27 9 -201 -6 -98 -9 -250 -7 -336 3 -150 4 -158 27 -182 18 -19 35
-26 60 -26 35 0 37 2 60 63 44 113 160 332 209 392 35 44 54 60 72 60 l25 0 0
-270 c-1 -231 -3 -279 -19 -330 -18 -59 -46 -109 -74 -132 -12 -10 -11 -16 7
-46 18 -30 29 -77 17 -77 -13 0 -721 192 -735 200 -27 14 -135 132 -195 213
l-53 72 -6 145 c-7 154 -24 242 -55 272 -18 18 -19 18 -41 -6 -20 -21 -22 -29
-13 -58 6 -18 13 -80 16 -138 9 -184 65 -346 147 -426 46 -45 50 -79 14 -122
-13 -16 -47 -39 -74 -51 -60 -26 -194 -42 -234 -28 -23 8 -31 6 -42 -9 -25
-33 -18 -79 16 -108 17 -14 37 -26 45 -26 8 0 87 23 177 50 89 28 208 60 263
71 l102 21 203 -65 c573 -183 828 -242 1039 -240 299 3 710 67 710 112 0 4
-18 21 -40 36 l-41 28 -405 -23 c-439 -24 -483 -23 -622 23 -50 16 -62 23 -56
36 3 9 6 21 5 26 -11 127 -12 174 -2 282 20 212 53 327 100 352 16 9 19 6 25
-32 9 -56 30 -77 77 -77 34 0 43 6 79 52 69 86 141 219 166 303 34 111 71 210
106 277 35 65 32 88 -15 117 -43 26 -150 61 -184 60 -17 0 -72 -30 -142 -76z
m198 -155 c-56 -208 -157 -458 -185 -458 -22 0 -112 78 -145 126 -37 54 -69
149 -69 204 0 33 6 43 43 73 62 50 126 91 208 136 l73 40 47 -25 48 -24 -20
-72z"/>
</g>
</svg>
