<?xml version="1.0" standalone="no"?>
<!DOCTYPE svg PUBLIC "-//W3C//DTD SVG 20010904//EN"
 "http://www.w3.org/TR/2001/REC-SVG-20010904/DTD/svg10.dtd">
<svg version="1.0" xmlns="http://www.w3.org/2000/svg"
 width="360.000000pt" height="360.000000pt" viewBox="0 0 360.000000 360.000000"
 preserveAspectRatio="xMidYMid meet">
<metadata>
Created by potrace 1.15, written by Peter Selinger 2001-2017
</metadata>
<g transform="translate(0.000000,360.000000) scale(0.100000,-0.100000)"
fill="#000000" stroke="none">
<path d="M2095 2388 c-105 -61 -298 -153 -398 -187 -66 -23 -98 -29 -127 -25
-53 9 -100 39 -113 75 -16 40 -41 34 -45 -11 -7 -85 72 -150 182 -150 81 0
170 24 305 81 62 27 117 49 122 49 29 0 -32 -113 -99 -182 -41 -44 -53 -46
-93 -18 -24 18 -32 19 -51 9 -49 -25 -49 -29 -13 -74 19 -23 35 -52 35 -65 0
-12 -24 -54 -53 -94 -84 -113 -117 -163 -143 -221 -13 -30 -28 -55 -33 -55
-18 0 -203 -185 -222 -222 -17 -33 -18 -45 -9 -74 12 -35 35 -54 68 -54 13 0
76 75 203 240 101 131 190 239 197 240 16 0 16 -3 -19 -269 l-31 -233 30 -42
c37 -51 61 -53 84 -6 22 47 39 169 26 194 -10 18 -4 98 8 131 8 19 54 31 169
44 98 11 150 4 216 -29 47 -25 165 -134 204 -190 23 -33 34 -40 60 -40 49 0
59 19 46 82 -27 124 -124 198 -306 233 -56 11 -100 12 -223 3 -84 -6 -155 -8
-158 -5 -13 13 29 283 52 335 30 67 131 235 224 371 67 98 70 106 59 133 -12
30 -54 68 -73 68 -6 0 -42 -19 -81 -42z"/>
<path d="M776 2230 c-34 -11 -66 -38 -66 -58 0 -11 9 -13 48 -7 26 3 57 9 68
12 19 4 23 -1 33 -47 18 -83 37 -110 77 -110 17 0 23 11 36 66 l16 65 -47 44
c-41 40 -51 44 -91 44 -25 0 -58 -5 -74 -9z"/>
<path d="M730 1778 c0 -12 22 -44 50 -74 49 -52 50 -53 42 -101 -4 -26 -7 -82
-7 -123 0 -66 5 -85 37 -153 21 -43 60 -111 88 -151 27 -40 50 -80 50 -89 0
-20 -63 -40 -268 -88 -113 -26 -147 -31 -161 -22 -15 10 -22 8 -39 -10 l-21
-22 33 -40 34 -40 172 43 c127 31 176 40 185 32 10 -8 30 -8 71 -1 32 6 105
11 163 11 104 0 108 -1 351 -79 457 -148 671 -209 819 -235 83 -14 86 -14 375
30 269 42 319 45 379 28 13 -4 17 1 17 20 0 31 -25 58 -77 84 -38 19 -41 19
-338 -5 l-300 -24 -145 21 c-100 15 -212 42 -360 86 -455 134 -654 184 -740
184 -36 0 -38 2 -50 46 -15 51 -81 157 -153 247 l-48 57 12 135 12 135 -28 40
c-45 65 -155 106 -155 58z"/>
</g>
</svg>
