<?xml version="1.0" standalone="no"?>
<!DOCTYPE svg PUBLIC "-//W3C//DTD SVG 20010904//EN"
 "http://www.w3.org/TR/2001/REC-SVG-20010904/DTD/svg10.dtd">
<svg version="1.0" xmlns="http://www.w3.org/2000/svg"
 width="360.000000pt" height="360.000000pt" viewBox="0 0 360.000000 360.000000"
 preserveAspectRatio="xMidYMid meet">
<metadata>
Created by potrace 1.15, written by Peter Selinger 2001-2017
</metadata>
<g transform="translate(0.000000,360.000000) scale(0.100000,-0.100000)"
fill="#000000" stroke="none">
<path d="M1682 2627 c-36 -27 -43 -36 -40 -62 3 -27 7 -31 45 -36 23 -3 48
-11 57 -18 35 -29 8 -142 -47 -199 -43 -44 -80 -66 -153 -91 -58 -19 -64 -20
-94 -4 -18 8 -52 18 -76 21 l-44 5 0 -42 0 -42 76 -35 c61 -28 87 -34 140 -34
58 0 65 -2 60 -17 -3 -10 -44 -103 -91 -207 -76 -168 -85 -195 -85 -248 0 -38
4 -60 13 -63 6 -3 108 33 224 80 117 47 215 85 218 85 18 0 -11 -38 -128 -168
-279 -310 -367 -425 -367 -479 0 -50 16 -73 50 -73 21 0 60 23 142 85 113 84
272 175 308 175 64 0 67 -180 5 -335 l-26 -64 21 -41 c20 -39 20 -60 -1 -60
-6 0 -106 41 -222 91 -205 89 -216 92 -327 104 -190 21 -254 48 -277 118 -7
22 -40 65 -78 105 -37 37 -78 87 -92 111 l-26 43 22 150 c12 83 19 154 14 158
-81 68 -103 82 -132 75 -33 -7 -49 -38 -32 -59 6 -8 25 -16 42 -20 21 -4 29
-11 26 -19 -9 -24 -20 -324 -13 -361 4 -19 22 -56 41 -81 24 -30 35 -56 35
-78 l0 -33 -142 -47 c-179 -59 -222 -83 -226 -121 -4 -29 -3 -29 40 -23 24 3
117 13 208 22 l165 18 244 -33 243 -32 137 -65 c177 -84 373 -168 438 -187 43
-12 54 -12 63 -1 8 10 35 6 143 -21 l132 -33 325 19 c179 11 342 20 362 20 30
0 44 7 65 31 16 17 28 36 28 42 0 21 -75 49 -168 63 -124 19 -184 18 -367 -6
l-155 -20 -207 21 c-139 15 -208 26 -208 34 0 6 7 58 15 116 8 57 17 184 21
283 7 175 8 179 33 202 46 43 155 94 200 94 84 0 130 38 119 97 -7 41 -152 25
-266 -29 -35 -16 -69 -27 -77 -24 -20 7 -30 91 -15 139 16 58 64 141 121 213
27 34 49 66 49 71 0 5 -10 19 -23 31 -18 17 -36 22 -80 22 l-57 0 0 64 c0 59
-3 67 -42 119 -24 31 -50 57 -60 57 -22 0 -78 -72 -78 -102 0 -28 17 -48 42
-48 16 0 18 -9 18 -69 l0 -70 -70 -55 c-39 -30 -94 -68 -123 -84 -55 -32 -133
-59 -142 -50 -8 7 135 322 192 423 70 126 59 119 233 163 187 48 210 57 210
78 0 21 -32 74 -45 74 -5 0 -66 -9 -135 -20 -181 -29 -170 -31 -170 36 0 63
-20 106 -67 140 -60 44 -65 44 -111 11z m223 -1171 l0 -69 -122 -53 c-92 -39
-123 -49 -123 -37 0 22 211 234 229 231 13 -3 16 -18 16 -72z"/>
<path d="M755 2123 c-11 -2 -30 -6 -42 -9 -18 -3 -23 -11 -23 -34 0 -17 5 -30
13 -30 34 0 93 -25 150 -64 l64 -42 27 21 c32 25 36 83 8 108 -47 42 -132 64
-197 50z"/>
</g>
</svg>
