<?xml version="1.0" standalone="no"?>
<!DOCTYPE svg PUBLIC "-//W3C//DTD SVG 20010904//EN"
 "http://www.w3.org/TR/2001/REC-SVG-20010904/DTD/svg10.dtd">
<svg version="1.0" xmlns="http://www.w3.org/2000/svg"
 width="360.000000pt" height="360.000000pt" viewBox="0 0 360.000000 360.000000"
 preserveAspectRatio="xMidYMid meet">
<metadata>
Created by potrace 1.15, written by Peter Selinger 2001-2017
</metadata>
<g transform="translate(0.000000,360.000000) scale(0.100000,-0.100000)"
fill="#000000" stroke="none">
<path d="M1812 2637 c-24 -26 -29 -69 -9 -85 7 -6 32 -14 56 -18 l43 -7 -8
-156 c-4 -86 -10 -199 -13 -252 l-6 -97 -178 -136 c-201 -153 -191 -148 -347
-206 -63 -24 -119 -47 -123 -51 -27 -23 34 -79 85 -79 32 0 163 72 333 184 80
53 150 96 156 96 16 0 10 -20 -32 -104 -55 -111 -202 -328 -352 -521 l-124
-160 20 -22 c11 -13 28 -23 37 -23 19 0 145 128 244 248 l68 83 47 -7 c25 -3
64 -9 86 -13 l40 -7 3 -107 c2 -93 0 -108 -14 -114 -24 -9 -60 37 -69 87 -7
39 -9 41 -38 38 -31 -3 -32 -4 -29 -47 4 -70 48 -144 130 -222 63 -61 78 -70
105 -67 l32 3 0 75 c0 41 -4 138 -8 216 l-9 141 44 12 c92 26 276 -32 444
-139 27 -16 55 -30 64 -30 23 0 60 42 60 67 0 41 -120 118 -286 186 -42 17
-91 27 -160 32 -54 4 -114 13 -131 21 -33 13 -33 13 -32 81 0 37 10 148 22
246 l22 178 95 53 c105 59 119 80 79 122 -19 20 -32 24 -84 24 -34 0 -66 -5
-73 -12 -17 -17 -16 13 8 216 19 168 19 169 -1 197 -30 42 -76 77 -117 89 -51
14 -56 13 -80 -13z m-2 -1162 l0 -65 -45 0 c-25 0 -45 5 -45 11 0 9 80 119 87
119 2 0 3 -29 3 -65z"/>
<path d="M2220 2471 c-12 -8 -11 -13 5 -31 24 -27 87 -60 113 -60 16 0 20 -10
25 -58 8 -78 15 -92 42 -92 30 0 85 73 85 113 0 42 -34 92 -78 113 -42 20
-169 30 -192 15z"/>
<path d="M737 2222 c-17 -19 -16 -21 70 -74 54 -34 89 -62 91 -74 9 -58 12
-64 41 -64 36 0 61 28 61 70 0 77 -84 148 -187 157 -49 4 -61 2 -76 -15z"/>
<path d="M768 1743 c-22 -26 -30 -71 -19 -107 5 -17 15 -85 20 -151 6 -66 18
-144 26 -173 19 -63 66 -119 108 -130 26 -7 35 -18 55 -68 26 -65 48 -94 69
-94 8 0 34 14 59 31 l43 32 -17 30 c-28 48 -152 177 -177 183 -19 5 -24 14
-30 67 -16 144 -86 397 -110 397 -6 0 -19 -8 -27 -17z"/>
<path d="M730 943 c-59 -6 -128 -22 -167 -38 l-36 -15 28 -30 c35 -36 71 -39
164 -10 54 16 72 17 114 8 37 -7 55 -7 72 2 35 19 292 -48 933 -241 l262 -79
140 0 c218 0 758 81 807 122 20 16 4 36 -44 54 -36 14 -53 16 -84 7 -23 -6
-42 -7 -45 -1 -8 12 -120 3 -258 -21 -162 -29 -318 -36 -446 -22 -67 8 -293
59 -622 142 l-518 129 -132 -2 c-73 0 -149 -3 -168 -5z"/>
</g>
</svg>
