<?xml version="1.0" standalone="no"?>
<!DOCTYPE svg PUBLIC "-//W3C//DTD SVG 20010904//EN"
 "http://www.w3.org/TR/2001/REC-SVG-20010904/DTD/svg10.dtd">
<svg version="1.0" xmlns="http://www.w3.org/2000/svg"
 width="360.000000pt" height="360.000000pt" viewBox="0 0 360.000000 360.000000"
 preserveAspectRatio="xMidYMid meet">
<metadata>
Created by potrace 1.15, written by Peter Selinger 2001-2017
</metadata>
<g transform="translate(0.000000,360.000000) scale(0.100000,-0.100000)"
fill="#000000" stroke="none">
<path d="M1880 2703 c0 -9 11 -39 24 -67 45 -97 70 -252 47 -294 -11 -20 -10
-27 3 -41 14 -15 15 -31 6 -117 -12 -120 -29 -188 -70 -270 -34 -70 -108 -154
-135 -154 -16 0 -17 6 -11 68 3 37 9 119 12 182 7 136 0 151 -93 224 -111 88
-157 42 -68 -67 l45 -56 0 -140 c0 -114 -3 -141 -14 -141 -8 0 -58 9 -111 20
-121 25 -135 25 -135 2 0 -26 51 -71 93 -83 31 -8 37 -14 37 -37 0 -15 -46
-129 -102 -254 l-101 -228 23 -50 c13 -27 27 -50 31 -50 21 0 68 25 105 56 35
28 65 43 64 32 0 -2 -11 -70 -24 -153 -17 -104 -21 -154 -14 -162 14 -17 22
-18 -182 27 -99 22 -193 40 -210 40 -35 0 -36 4 -10 69 19 50 19 50 -1 100
-16 37 -28 51 -47 56 -72 18 -107 75 -124 201 -9 66 -9 90 0 105 18 29 14 73
-11 109 -26 40 -67 65 -125 78 -39 9 -42 8 -42 -12 0 -11 20 -55 44 -96 26
-43 40 -78 34 -81 -6 -4 -2 -55 11 -144 19 -119 25 -141 44 -153 44 -30 157
-149 157 -166 0 -26 -49 -42 -271 -86 -111 -22 -205 -42 -207 -44 -8 -9 31
-56 47 -56 9 0 90 9 181 20 316 38 449 21 689 -87 317 -143 612 -246 784 -273
89 -15 435 -9 577 10 97 12 186 35 195 51 4 6 -1 19 -11 30 -16 18 -32 19
-218 19 -111 0 -255 -5 -321 -10 -117 -9 -122 -8 -311 31 -324 67 -525 131
-596 190 -42 34 -47 53 -19 68 23 13 56 88 72 170 10 47 19 66 35 73 19 9 22
21 27 116 12 196 71 361 166 460 68 71 76 69 65 -15 -12 -91 -10 -281 4 -369
33 -206 111 -330 221 -350 26 -5 82 4 211 36 96 23 176 44 177 45 2 1 -35 131
-82 288 -47 158 -85 290 -85 294 0 3 -10 -3 -23 -15 -17 -16 -26 -19 -34 -11
-8 8 -47 8 -137 0 -158 -14 -156 -14 -156 2 0 6 43 64 96 127 149 179 240 324
265 425 l12 46 -44 45 c-48 49 -89 59 -89 22 0 -12 10 -32 22 -45 20 -22 21
-27 10 -71 -7 -26 -33 -88 -57 -139 -35 -71 -64 -112 -124 -175 -44 -46 -82
-80 -87 -76 -4 4 -1 178 6 385 14 426 12 445 -47 500 -38 37 -93 46 -93 16z
m-250 -998 c18 -21 -3 -122 -41 -197 -31 -61 -152 -198 -164 -186 -4 4 22 74
58 155 36 81 75 169 87 196 22 49 39 58 60 32z m643 -199 l87 -27 0 -36 c0
-19 9 -91 21 -160 12 -69 17 -128 13 -132 -5 -5 -57 -17 -116 -29 -125 -25
-161 -19 -206 32 -47 53 -57 96 -57 241 l0 130 35 7 c58 11 130 2 223 -26z"/>
<path d="M762 2177 l-22 -23 22 -21 c13 -11 41 -23 62 -26 55 -9 93 -48 107
-113 7 -29 16 -51 21 -48 17 11 68 110 68 133 0 17 -17 41 -50 73 -50 48 -50
48 -118 48 -59 0 -72 -3 -90 -23z"/>
</g>
</svg>
