<?xml version="1.0" standalone="no"?>
<!DOCTYPE svg PUBLIC "-//W3C//DTD SVG 20010904//EN"
 "http://www.w3.org/TR/2001/REC-SVG-20010904/DTD/svg10.dtd">
<svg version="1.0" xmlns="http://www.w3.org/2000/svg"
 width="360.000000pt" height="360.000000pt" viewBox="0 0 360.000000 360.000000"
 preserveAspectRatio="xMidYMid meet">
<metadata>
Created by potrace 1.15, written by Peter Selinger 2001-2017
</metadata>
<g transform="translate(0.000000,360.000000) scale(0.100000,-0.100000)"
fill="#000000" stroke="none">
<path d="M2037 2560 c-68 -20 -78 -63 -19 -80 20 -5 49 -11 65 -12 l27 -3 -66
-135 c-164 -339 -346 -523 -530 -538 -60 -4 -64 -3 -64 17 0 33 -42 28 -63 -8
-23 -40 -21 -64 9 -100 39 -47 75 -42 229 29 92 43 140 60 162 58 l33 -3 -88
-117 c-168 -224 -271 -413 -294 -538 -10 -53 -9 -61 11 -94 19 -31 26 -35 49
-30 43 10 154 73 231 130 40 30 76 54 81 54 15 0 12 -60 -6 -121 -27 -92 -85
-209 -103 -209 -9 1 -142 27 -296 59 l-280 58 -7 41 c-5 32 -19 54 -60 94 -63
62 -107 141 -147 266 -34 102 -71 283 -71 343 0 49 -15 50 -58 6 -33 -34 -41
-74 -20 -95 9 -9 9 -12 -1 -12 -11 0 -12 -18 -7 -87 15 -187 67 -332 151 -422
l43 -46 -22 -55 -22 -55 -80 -7 c-166 -15 -224 -38 -224 -88 0 -24 5 -31 26
-36 14 -4 122 -2 240 4 326 18 438 6 674 -68 429 -136 645 -190 761 -190 149
0 552 47 649 76 56 17 62 33 25 63 -29 22 -90 37 -211 52 -75 9 -96 7 -295
-30 -209 -38 -216 -39 -294 -26 -117 19 -202 43 -273 77 -61 28 -63 31 -49 51
30 46 36 65 56 177 38 202 76 300 118 300 8 0 31 -14 50 -30 18 -16 37 -30 42
-30 4 0 35 24 67 54 83 75 126 157 132 250 l4 71 -42 48 c-23 26 -50 47 -61
47 -17 0 -19 -8 -19 -89 0 -83 -2 -92 -27 -122 -32 -38 -95 -68 -140 -69 -39
0 -39 -1 -14 115 14 60 17 93 10 101 -6 8 -6 13 0 16 7 2 7 17 1 43 -23 96
-23 95 120 192 98 67 129 93 130 110 0 27 -38 93 -53 93 -7 0 -50 -12 -96 -25
-47 -14 -86 -25 -88 -25 -2 0 -3 8 -3 19 0 10 54 89 120 176 109 144 120 161
120 200 0 48 -13 64 -80 94 -47 21 -114 26 -163 11z m-147 -973 c0 -64 -23
-146 -55 -197 -54 -85 -235 -199 -235 -147 0 21 56 129 94 182 44 60 178 213
189 214 4 1 7 -23 7 -52z"/>
<path d="M1557 2382 c-28 -31 -21 -78 22 -141 44 -64 104 -121 128 -121 22 0
114 54 140 82 30 32 43 71 34 105 -11 41 -53 42 -131 3 -34 -17 -63 -30 -64
-28 -14 22 -100 118 -106 118 -4 0 -14 -8 -23 -18z"/>
<path d="M766 2115 c-14 -21 -14 -25 0 -36 8 -6 28 -29 44 -49 27 -34 29 -41
19 -69 -9 -27 -8 -35 6 -51 23 -26 67 -26 90 0 14 15 17 32 13 84 -5 86 -38
123 -125 139 -26 5 -34 2 -47 -18z"/>
</g>
</svg>
