<?xml version="1.0" standalone="no"?>
<!DOCTYPE svg PUBLIC "-//W3C//DTD SVG 20010904//EN"
 "http://www.w3.org/TR/2001/REC-SVG-20010904/DTD/svg10.dtd">
<svg version="1.0" xmlns="http://www.w3.org/2000/svg"
 width="360.000000pt" height="360.000000pt" viewBox="0 0 360.000000 360.000000"
 preserveAspectRatio="xMidYMid meet">
<metadata>
Created by potrace 1.15, written by Peter Selinger 2001-2017
</metadata>
<g transform="translate(0.000000,360.000000) scale(0.100000,-0.100000)"
fill="#000000" stroke="none">
<path d="M1682 2673 l21 -59 -97 -204 c-88 -186 -119 -238 -338 -568 l-242
-364 -42 4 c-51 4 -64 -12 -64 -75 0 -47 22 -87 48 -86 10 0 77 83 167 207 83
114 189 256 236 317 47 60 89 124 93 140 17 69 97 137 218 187 92 37 305 89
395 95 l73 6 60 -47 c82 -64 161 -103 242 -117 54 -10 70 -10 83 1 33 27 7
115 -48 161 -12 11 -53 29 -92 41 -58 19 -93 23 -205 23 -187 0 -320 -30 -471
-106 l-56 -28 -12 22 c-11 20 -4 39 49 151 33 71 72 162 87 203 l26 74 -30 37
c-26 32 -37 37 -76 40 l-46 3 21 -58z"/>
<path d="M487 2118 c-2 -7 12 -33 33 -58 55 -68 75 -100 95 -153 l18 -48 29
27 c26 26 28 34 28 100 0 66 -2 74 -26 93 -28 22 -113 51 -150 51 -12 0 -24
-6 -27 -12z"/>
<path d="M1670 1870 c-102 -55 -189 -101 -195 -103 -6 -2 -2 -19 9 -41 15 -27
25 -36 45 -36 33 0 97 29 157 71 56 38 81 28 43 -19 -257 -313 -345 -450 -371
-576 -10 -50 -9 -56 16 -92 23 -35 26 -48 26 -130 0 -112 -6 -119 -79 -103
-33 7 -142 9 -304 7 -207 -4 -260 -8 -299 -22 -45 -17 -48 -17 -85 3 -38 19
-39 19 -51 0 -18 -28 -15 -78 4 -86 9 -3 141 -1 293 6 361 15 582 0 858 -60
126 -27 324 -91 437 -141 l91 -40 169 6 c381 15 674 54 664 89 -2 7 -25 23
-51 36 -57 28 -75 28 -442 1 l-260 -19 -232 66 c-270 76 -243 45 -214 243 13
85 15 129 9 137 -6 8 -7 33 -4 60 13 90 -1 83 167 83 l150 0 15 -36 c13 -30
13 -45 4 -86 -11 -43 -10 -51 5 -68 23 -25 47 -25 68 -2 13 14 17 38 17 93 0
87 -19 134 -66 161 -30 18 -36 18 -168 -2 -164 -24 -172 -24 -180 -5 -3 8 -8
55 -12 103 l-7 89 122 83 c66 45 121 85 121 89 0 15 -25 31 -51 31 -14 0 -53
-13 -85 -30 -77 -39 -104 -39 -104 -2 0 15 -5 62 -12 105 l-12 77 32 33 c24
25 32 42 32 69 0 31 -4 37 -27 42 -16 4 -35 9 -43 11 -8 2 -98 -41 -200 -95z
m139 -277 l0 -78 -172 -144 c-94 -79 -173 -138 -175 -132 -6 17 45 103 105
178 72 90 222 253 234 253 5 0 9 -35 8 -77z m13 -268 c9 -50 10 -327 1 -378
-14 -87 -65 -45 -156 130 l-56 108 87 91 c48 51 94 91 102 91 9 -2 18 -18 22
-42z m-187 -362 c142 -193 140 -186 39 -153 -56 19 -73 21 -97 12 -56 -21 -59
-5 -16 90 36 77 32 91 -26 102 -32 6 -35 10 -35 40 0 34 6 46 24 46 6 0 56
-62 111 -137z"/>
<path d="M523 1613 c-29 -19 -29 -56 -4 -179 20 -97 76 -230 132 -310 18 -27
64 -84 102 -127 l70 -79 23 29 c13 15 23 37 24 48 0 24 -70 95 -117 119 -64
32 -121 169 -166 395 -13 63 -27 116 -33 117 -5 2 -19 -4 -31 -13z"/>
</g>
</svg>
