<?xml version="1.0" standalone="no"?>
<!DOCTYPE svg PUBLIC "-//W3C//DTD SVG 20010904//EN"
 "http://www.w3.org/TR/2001/REC-SVG-20010904/DTD/svg10.dtd">
<svg version="1.0" xmlns="http://www.w3.org/2000/svg"
 width="360.000000pt" height="360.000000pt" viewBox="0 0 360.000000 360.000000"
 preserveAspectRatio="xMidYMid meet">
<metadata>
Created by potrace 1.15, written by Peter Selinger 2001-2017
</metadata>
<g transform="translate(0.000000,360.000000) scale(0.100000,-0.100000)"
fill="#000000" stroke="none">
<path d="M2044 2593 c3 -16 9 -149 12 -298 l7 -270 -54 -118 -53 -118 -35 3
c-32 3 -36 7 -39 33 -4 34 -28 65 -50 65 -7 0 -27 -8 -43 -17 -27 -16 -29 -22
-29 -73 0 -107 37 -183 107 -219 27 -14 86 -14 99 -1 8 8 14 7 22 -3 9 -10 7
-29 -7 -78 -64 -219 -153 -379 -234 -418 -85 -41 -78 -81 -75 452 4 540 -3
497 102 655 69 105 120 201 131 243 5 19 0 37 -17 63 -22 35 -25 36 -85 36
-59 0 -63 -1 -63 -23 0 -13 14 -36 30 -52 17 -16 30 -35 30 -43 0 -7 -14 -34
-32 -58 -33 -46 -73 -59 -97 -30 -6 7 -39 26 -73 41 -50 23 -80 28 -167 32
-104 5 -107 5 -130 -20 l-23 -26 21 -29 c20 -28 23 -29 129 -34 151 -7 152 -8
152 -116 l0 -87 -92 -92 c-99 -96 -181 -163 -203 -163 -8 0 -15 22 -19 68 -4
37 -9 80 -12 96 -10 49 -33 9 -51 -89 -16 -86 -16 -89 6 -156 12 -38 27 -69
32 -69 38 0 141 73 252 179 l67 64 0 -47 c0 -100 -107 -341 -289 -650 -61
-104 -78 -142 -69 -148 34 -23 51 -29 58 -21 4 4 65 91 135 193 71 102 137
196 147 209 18 23 18 21 18 -108 l0 -132 -39 23 c-32 18 -42 20 -54 10 -13
-11 -11 -29 19 -145 18 -72 34 -142 34 -153 0 -43 -19 -45 -156 -10 l-131 33
-44 -23 c-26 -13 -62 -23 -88 -24 l-43 0 6 45 c7 45 7 45 -69 132 -145 165
-193 261 -172 340 9 34 6 58 -22 169 -56 227 -49 209 -72 188 -23 -21 -24 -69
-8 -245 9 -92 9 -122 -1 -133 -29 -35 61 -235 155 -346 33 -38 55 -74 55 -88
0 -48 -67 -83 -214 -112 -55 -11 -175 -7 -212 7 -21 8 -17 -34 7 -73 19 -31
23 -33 62 -29 146 17 645 46 709 41 136 -10 431 -83 903 -223 l220 -65 240 11
c345 17 457 42 463 108 l3 31 -63 7 c-79 8 -415 11 -608 5 -126 -3 -158 -1
-244 19 -110 25 -342 103 -463 155 l-78 33 2 43 c3 69 4 70 90 70 l77 0 51 53
c49 53 126 188 178 312 14 34 36 128 51 216 57 337 138 515 244 535 45 9 62
-12 62 -75 0 -87 -70 -189 -160 -236 -31 -16 -31 -17 -14 -36 53 -58 183 22
251 156 38 74 73 172 73 204 0 31 -18 42 -100 61 -80 17 -90 14 -170 -55 -41
-35 -81 -64 -87 -65 -10 0 -13 47 -13 203 0 175 -3 207 -19 243 -20 44 -73 84
-111 84 -19 0 -21 -4 -16 -27z"/>
<path d="M732 2267 c-12 -13 -22 -28 -22 -34 0 -18 34 -40 71 -47 32 -6 36
-10 48 -55 7 -27 21 -57 30 -66 17 -15 20 -14 50 23 42 54 44 112 3 140 -20
15 -140 62 -157 62 -1 0 -11 -10 -23 -23z"/>
<path d="M2132 1469 c3 -30 11 -38 108 -96 100 -60 106 -65 126 -115 28 -71
61 -135 75 -143 15 -10 59 34 59 60 0 60 -33 129 -86 182 -54 55 -183 125
-254 139 -31 7 -31 6 -28 -27z"/>
</g>
</svg>
