<?xml version="1.0" standalone="no"?>
<!DOCTYPE svg PUBLIC "-//W3C//DTD SVG 20010904//EN"
 "http://www.w3.org/TR/2001/REC-SVG-20010904/DTD/svg10.dtd">
<svg version="1.0" xmlns="http://www.w3.org/2000/svg"
 width="360.000000pt" height="360.000000pt" viewBox="0 0 360.000000 360.000000"
 preserveAspectRatio="xMidYMid meet">
<metadata>
Created by potrace 1.15, written by Peter Selinger 2001-2017
</metadata>
<g transform="translate(0.000000,360.000000) scale(0.100000,-0.100000)"
fill="#000000" stroke="none">
<path d="M1865 2625 c-201 -65 -235 -73 -235 -56 0 5 -11 0 -24 -12 l-25 -22
26 -27 c20 -21 37 -28 63 -28 54 0 145 26 245 71 50 22 96 43 103 46 7 3 12
-3 12 -15 0 -14 10 -24 34 -32 58 -19 59 -26 21 -140 -19 -57 -35 -116 -35
-130 0 -45 -60 -150 -120 -210 -77 -77 -250 -192 -250 -165 0 2 59 97 130 210
72 113 130 214 130 223 0 31 -22 42 -79 42 -63 0 -111 -19 -185 -73 -27 -20
-53 -34 -56 -32 -4 3 -10 19 -14 36 -8 39 -59 89 -121 118 -61 29 -72 18 -45
-43 47 -112 77 -279 87 -488 5 -118 9 -143 24 -156 17 -15 16 -18 -15 -61 -18
-25 -39 -64 -46 -86 -23 -72 -71 -165 -100 -193 l-28 -27 29 -31 29 -30 -11
-131 -12 -132 39 -50 c22 -28 48 -53 59 -56 12 -4 95 25 214 75 106 44 197 80
201 80 4 0 11 -21 15 -47 8 -56 29 -110 53 -137 38 -43 95 -76 131 -76 33 0
39 5 72 58 64 100 87 144 133 258 51 125 118 352 137 465 12 75 12 77 -14 122
-53 91 -91 104 -244 87 -166 -18 -322 -73 -419 -146 -30 -23 -74 -32 -74 -16
0 18 61 99 107 143 26 25 69 54 95 63 116 42 227 246 324 589 l25 89 -26 43
c-28 48 -78 84 -127 91 -23 3 -95 -16 -233 -61z m-110 -432 c-48 -74 -97 -133
-110 -133 -11 0 -15 13 -15 53 l0 53 62 36 c69 41 93 37 63 -9z m555 -515 c0
-54 -39 -276 -67 -383 -32 -122 -70 -218 -113 -285 -49 -76 -63 -69 -103 49
-32 93 -69 149 -104 157 -16 4 -50 -1 -90 -14 -34 -11 -63 -16 -63 -12 0 26
64 171 74 167 6 -2 55 -17 108 -33 95 -27 98 -27 118 -9 11 10 20 23 20 30 0
28 -84 80 -169 106 -50 15 -56 24 -47 84 17 109 140 173 339 174 l97 1 0 -32z
m-540 -179 c0 -16 -25 -80 -56 -141 -46 -92 -55 -117 -48 -137 5 -14 20 -28
33 -31 49 -11 31 -28 -61 -59 -51 -17 -99 -31 -107 -31 -11 0 -13 21 -9 114 5
100 9 120 32 159 14 25 45 62 68 82 47 40 129 86 141 78 4 -2 7 -17 7 -34z"/>
<path d="M650 2101 c0 -12 23 -34 65 -61 36 -23 65 -48 65 -55 0 -6 -5 -26
-11 -44 -31 -88 90 -113 141 -29 11 19 20 51 20 74 0 32 -6 46 -32 72 -47 45
-96 62 -178 62 -62 0 -70 -2 -70 -19z"/>
<path d="M696 1711 c-21 -23 -20 -44 3 -65 13 -12 20 -37 24 -94 11 -147 74
-295 174 -411 41 -47 41 -49 32 -92 -6 -24 -8 -58 -6 -76 6 -36 14 -33 -145
-58 -77 -13 -114 -15 -135 -7 -27 9 -30 7 -43 -21 -18 -41 -5 -58 58 -79 48
-17 54 -17 124 1 40 10 126 21 192 25 l118 6 257 -71 c353 -97 734 -193 871
-220 106 -20 125 -21 240 -10 69 6 206 11 306 11 l181 0 23 25 c29 31 22 49
-31 80 -31 18 -58 21 -299 26 -146 3 -273 9 -283 13 -10 5 -23 3 -32 -4 -11
-9 -51 -6 -187 15 -236 36 -501 90 -573 115 -33 12 -161 48 -285 80 -226 58
-280 75 -280 85 0 3 9 23 20 45 11 22 20 56 20 77 0 35 -8 46 -75 113 -71 71
-75 77 -75 120 -2 161 -67 325 -147 372 -29 17 -31 17 -47 -1z"/>
</g>
</svg>
