<?xml version="1.0" standalone="no"?>
<!DOCTYPE svg PUBLIC "-//W3C//DTD SVG 20010904//EN"
 "http://www.w3.org/TR/2001/REC-SVG-20010904/DTD/svg10.dtd">
<svg version="1.0" xmlns="http://www.w3.org/2000/svg"
 width="360.000000pt" height="360.000000pt" viewBox="0 0 360.000000 360.000000"
 preserveAspectRatio="xMidYMid meet">
<metadata>
Created by potrace 1.15, written by Peter Selinger 2001-2017
</metadata>
<g transform="translate(0.000000,360.000000) scale(0.100000,-0.100000)"
fill="#000000" stroke="none">
<path d="M1621 2748 c0 -12 4 -45 9 -73 8 -47 6 -53 -23 -95 -47 -69 -116
-148 -157 -180 l-36 -29 -105 30 c-104 29 -149 35 -149 22 0 -5 38 -44 85 -88
l85 -80 44 -175 c53 -211 95 -340 112 -347 8 -3 46 17 86 44 108 71 231 130
291 138 28 4 68 15 87 25 46 24 118 101 175 188 67 104 165 303 165 334 0 46
-53 85 -166 122 l-51 16 -169 -59 c-93 -32 -177 -62 -186 -66 -37 -15 -17 22
47 85 36 35 65 73 65 83 0 35 -29 86 -57 100 -15 8 -56 18 -90 22 -62 7 -63 6
-62 -17z m509 -263 c10 -12 8 -27 -10 -77 -54 -147 -128 -267 -212 -344 -64
-58 -157 -106 -197 -102 -27 3 -23 9 100 147 l128 143 -21 29 c-28 37 -55 37
-158 0 -111 -41 -140 -63 -140 -107 0 -30 4 -37 31 -46 16 -6 29 -16 27 -22
-5 -20 -144 -146 -162 -146 -9 0 -16 4 -16 8 0 5 -9 58 -20 118 -32 177 -30
191 36 269 47 56 60 66 80 61 89 -23 137 -18 319 32 209 58 199 56 215 37z"/>
<path d="M599 2071 c-33 -31 -34 -31 -14 -47 11 -8 45 -23 76 -32 l56 -16 -10
-33 c-9 -29 -7 -36 13 -58 13 -14 27 -25 32 -25 5 0 29 19 53 41 51 47 57 75
25 126 -25 41 -65 62 -138 69 -56 6 -61 5 -93 -25z"/>
<path d="M1960 1829 c-201 -96 -522 -238 -608 -269 -60 -22 -63 -24 -60 -54 3
-29 6 -31 45 -34 54 -4 188 28 304 73 50 19 95 35 100 35 18 0 -23 -76 -64
-118 -45 -46 -147 -119 -239 -171 -32 -18 -58 -38 -57 -44 0 -7 9 -34 18 -62
17 -49 19 -50 57 -50 21 0 76 4 122 8 64 6 82 5 82 -5 0 -7 -69 -83 -154 -167
l-154 -154 -119 9 c-65 5 -154 7 -198 4 -127 -6 -215 -6 -277 3 l-58 7 0 -38
c0 -47 20 -68 84 -87 38 -12 71 -12 218 0 95 8 236 15 313 15 133 0 148 -2
290 -40 215 -58 562 -145 685 -170 114 -24 211 -26 517 -11 155 7 163 8 182
32 28 32 23 51 -19 71 -31 16 -69 18 -310 18 l-275 1 -405 82 c-309 63 -405
86 -405 97 0 34 144 89 341 131 94 20 115 21 217 12 106 -9 113 -8 135 11 l22
20 -42 43 -42 43 -83 0 c-45 0 -139 -5 -208 -11 -69 -6 -130 -9 -136 -7 -5 2
71 99 171 215 99 116 180 217 180 223 0 7 -8 25 -17 42 -18 30 -18 30 -88 24
-38 -4 -94 -9 -122 -12 l-53 -6 0 45 c0 39 5 49 39 80 45 41 148 102 245 146
l68 31 -19 32 c-10 18 -28 34 -39 35 -10 1 -93 -34 -184 -78z m-23 -416 c-2
-5 -21 -37 -43 -72 l-38 -63 -24 27 c-30 36 -25 64 17 92 31 21 97 33 88 16z
m-217 -82 c0 -5 -9 -29 -20 -55 -21 -46 -21 -46 -71 -46 -28 0 -49 4 -47 10 4
11 119 99 131 100 4 0 7 -4 7 -9z"/>
<path d="M601 1736 c-9 -10 -1 -37 34 -119 43 -102 45 -109 45 -207 0 -89 3
-107 28 -163 25 -54 95 -165 163 -256 18 -24 19 -31 8 -49 -12 -19 -10 -24 11
-47 l25 -27 33 38 c17 20 32 43 32 51 0 24 -60 134 -142 260 l-79 122 11 100
11 101 -76 105 c-42 58 -80 105 -85 105 -4 0 -13 -6 -19 -14z"/>
</g>
</svg>
