<?xml version="1.0" standalone="no"?>
<!DOCTYPE svg PUBLIC "-//W3C//DTD SVG 20010904//EN"
 "http://www.w3.org/TR/2001/REC-SVG-20010904/DTD/svg10.dtd">
<svg version="1.0" xmlns="http://www.w3.org/2000/svg"
 width="360.000000pt" height="360.000000pt" viewBox="0 0 360.000000 360.000000"
 preserveAspectRatio="xMidYMid meet">
<metadata>
Created by potrace 1.15, written by Peter Selinger 2001-2017
</metadata>
<g transform="translate(0.000000,360.000000) scale(0.100000,-0.100000)"
fill="#000000" stroke="none">
<path d="M1650 2705 c0 -9 23 -44 52 -77 40 -47 49 -63 42 -76 -6 -8 -50 -39
-99 -69 -91 -55 -201 -96 -293 -108 -50 -7 -56 -5 -84 21 l-30 29 7 -91 c7
-88 6 -95 -34 -219 -23 -70 -41 -141 -41 -157 0 -36 42 -81 72 -76 46 7 71
101 94 351 l6 67 85 0 c76 0 90 3 119 25 45 35 60 32 71 -12 8 -36 5 -44 -55
-140 -70 -113 -78 -152 -32 -163 23 -5 25 -11 28 -75 2 -38 8 -75 13 -81 18
-22 70 6 148 78 69 66 154 118 194 118 27 0 21 -49 -12 -102 -64 -101 -235
-198 -519 -293 -9 -4 -10 -10 -3 -22 26 -46 23 -45 119 -23 101 22 132 25 132
11 0 -6 -74 -88 -165 -185 -164 -173 -192 -216 -144 -216 12 0 64 23 116 51
52 28 97 49 99 46 11 -11 -10 -80 -46 -152 -36 -72 -37 -75 -18 -91 11 -11 22
-14 27 -8 20 22 129 201 136 224 16 51 66 140 84 150 11 5 29 10 40 10 27 0
28 -40 2 -142 -33 -129 -100 -242 -221 -372 -38 -42 -70 -79 -70 -84 0 -27 24
-29 78 -7 l56 23 60 -34 c34 -18 92 -50 130 -71 70 -38 93 -63 59 -63 -10 0
-153 27 -317 59 -218 43 -304 56 -316 49 -11 -7 -46 -4 -120 11 -57 12 -106
24 -109 27 -3 3 -1 12 5 22 9 13 -3 33 -62 107 -116 142 -211 352 -176 387 7
7 12 35 12 63 0 63 -40 147 -104 220 -44 49 -45 49 -65 31 -12 -11 -21 -26
-21 -34 0 -8 25 -47 55 -87 l55 -71 0 -135 c0 -129 1 -136 31 -199 33 -71 82
-140 167 -238 30 -35 52 -65 50 -68 -3 -2 -44 -10 -92 -16 -68 -9 -92 -9 -107
0 -16 10 -21 10 -25 -3 -8 -20 14 -45 55 -62 66 -28 178 -43 401 -54 216 -10
233 -13 431 -60 288 -68 540 -118 635 -125 130 -11 601 35 749 72 85 21 93 32
52 72 l-32 31 -73 -11 c-54 -8 -84 -8 -112 1 -27 8 -46 8 -66 1 -16 -7 -30 -7
-33 -2 -4 6 -50 0 -110 -14 -184 -41 -301 -47 -491 -24 -216 27 -210 25 -210
55 0 17 5 25 18 25 30 0 72 53 97 122 35 95 62 274 46 300 -9 15 -9 27 0 55
l11 36 92 -6 c109 -8 191 -28 268 -65 l58 -28 20 21 c29 31 25 54 -19 96 -56
52 -133 78 -269 90 -102 9 -116 8 -133 -7 -18 -16 -19 -15 -39 30 -11 26 -20
53 -20 61 0 7 33 37 73 68 121 92 226 186 254 228 l26 40 -28 29 c-16 17 -34
30 -39 29 -6 -1 -44 -38 -85 -83 -41 -44 -104 -111 -139 -148 l-64 -68 -101
26 c-72 18 -116 24 -149 20 -36 -4 -48 -2 -48 8 0 37 278 259 384 307 14 7 26
16 26 21 0 21 -52 58 -89 64 l-41 7 20 32 c11 18 20 43 20 55 0 25 -36 90 -51
90 -18 0 -166 -63 -218 -92 -30 -17 -69 -45 -88 -61 l-34 -30 -35 33 c-18 19
-34 38 -34 44 0 5 20 48 44 95 l44 86 -21 68 c-11 37 -18 69 -16 72 3 2 96 35
208 74 200 69 203 70 236 54 31 -15 38 -15 92 0 75 21 159 22 231 1 32 -9 58
-18 60 -19 2 -2 -2 -13 -8 -25 -11 -21 -121 -80 -148 -80 -8 0 -12 -9 -10 -22
3 -21 7 -23 63 -20 101 5 208 23 253 42 38 17 42 22 42 54 0 43 -38 90 -108
135 -117 75 -206 86 -456 57 l-187 -23 -32 32 c-35 35 -128 74 -194 82 -36 5
-43 3 -43 -12z m320 -1379 c0 -3 -18 -6 -40 -6 -46 0 -48 5 -19 36 l22 23 18
-23 c11 -13 19 -27 19 -30z m19 -153 c19 -110 -12 -278 -61 -330 -35 -37 -76
-30 -170 29 -46 28 -85 53 -87 54 -2 2 25 44 59 95 67 101 110 180 110 204 0
12 14 15 68 15 l69 0 12 -67z"/>
<path d="M1894 2355 c-16 -42 64 -91 184 -113 46 -8 53 -7 72 13 38 41 2 71
-121 100 -83 19 -128 19 -135 0z"/>
<path d="M548 2084 c-5 -4 -8 -10 -8 -14 0 -6 125 -115 192 -168 15 -12 22
-11 48 8 54 38 32 113 -44 149 -46 23 -175 40 -188 25z"/>
</g>
</svg>
