<?xml version="1.0" standalone="no"?>
<!DOCTYPE svg PUBLIC "-//W3C//DTD SVG 20010904//EN"
 "http://www.w3.org/TR/2001/REC-SVG-20010904/DTD/svg10.dtd">
<svg version="1.0" xmlns="http://www.w3.org/2000/svg"
 width="360.000000pt" height="360.000000pt" viewBox="0 0 360.000000 360.000000"
 preserveAspectRatio="xMidYMid meet">
<metadata>
Created by potrace 1.15, written by Peter Selinger 2001-2017
</metadata>
<g transform="translate(0.000000,360.000000) scale(0.100000,-0.100000)"
fill="#000000" stroke="none">
<path d="M1214 2776 c-8 -17 -3 -30 31 -73 46 -59 55 -61 187 -41 l76 11 50
-41 c57 -48 76 -51 116 -19 27 22 28 25 17 60 -16 46 -43 80 -85 107 l-34 21
-120 -22 -121 -22 -53 20 -54 21 -10 -22z"/>
<path d="M2370 2604 c-63 -36 -151 -85 -195 -109 l-81 -44 -54 44 c-62 50 -84
54 -117 23 l-22 -21 34 -47 c33 -45 35 -52 35 -126 0 -44 -6 -101 -13 -129
-11 -41 -11 -59 0 -100 9 -34 13 -123 13 -285 0 -129 5 -264 10 -300 6 -44 6
-68 -2 -77 -7 -9 -7 -26 1 -57 7 -30 11 -190 11 -473 l0 -428 23 -29 c42 -52
54 -33 63 101 11 142 10 1170 0 1551 -7 259 -7 272 11 272 10 0 108 33 218 74
133 49 201 70 203 62 1 -7 -72 -122 -163 -256 -91 -134 -165 -249 -165 -255 0
-20 23 -34 96 -59 311 -106 461 -235 452 -389 l-3 -52 -70 1 c-86 2 -233 40
-380 99 l-110 44 -24 -23 -24 -24 44 -32 c24 -18 73 -46 109 -62 74 -34 319
-116 427 -144 72 -18 73 -18 99 2 15 11 33 37 41 59 18 53 28 171 16 187 -6 7
-16 36 -23 65 -16 71 -76 151 -157 212 -71 54 -250 151 -277 151 -9 0 -16 6
-16 13 0 19 84 152 213 337 112 159 115 165 103 195 -14 36 -97 81 -166 89
-41 5 -54 0 -160 -60z"/>
<path d="M1655 2412 c-66 -31 -264 -133 -441 -227 l-322 -172 -53 8 c-96 14
-119 11 -119 -11 0 -11 15 -37 33 -57 29 -31 41 -37 89 -41 92 -7 220 47 442
186 54 34 101 60 104 57 20 -20 -81 -289 -206 -548 l-86 -178 -53 -25 c-63
-30 -94 -70 -101 -130 -4 -37 0 -51 23 -84 15 -22 31 -40 35 -40 15 0 92 92
144 173 70 107 146 261 208 417 61 155 122 270 196 373 58 81 198 222 252 254
24 13 30 24 30 50 0 22 -6 36 -19 43 -26 14 -21 15 -156 -48z"/>
</g>
</svg>
