<?xml version="1.0" standalone="no"?>
<!DOCTYPE svg PUBLIC "-//W3C//DTD SVG 20010904//EN"
 "http://www.w3.org/TR/2001/REC-SVG-20010904/DTD/svg10.dtd">
<svg version="1.0" xmlns="http://www.w3.org/2000/svg"
 width="360.000000pt" height="360.000000pt" viewBox="0 0 360.000000 360.000000"
 preserveAspectRatio="xMidYMid meet">
<metadata>
Created by potrace 1.15, written by Peter Selinger 2001-2017
</metadata>
<g transform="translate(0.000000,360.000000) scale(0.100000,-0.100000)"
fill="#000000" stroke="none">
<path d="M2143 2649 c-9 -9 -9 -16 0 -30 25 -40 -96 -119 -292 -189 -88 -32
-91 -34 -75 -51 53 -59 283 14 472 148 74 52 79 78 22 105 -49 23 -112 32
-127 17z"/>
<path d="M1380 2516 c-52 -8 -160 -45 -352 -120 l-278 -109 0 -32 c0 -30 2
-31 58 -43 71 -14 122 -4 211 43 l64 34 59 -32 c48 -26 58 -36 53 -52 -4 -11
-9 -66 -12 -122 -4 -68 -10 -103 -17 -103 -7 0 -49 45 -95 100 -45 55 -86 100
-90 100 -4 0 -15 -6 -25 -13 -17 -12 -15 -19 28 -105 25 -50 46 -97 46 -104
-1 -19 -56 -89 -88 -110 -47 -31 -53 -24 -31 39 23 67 24 93 4 93 -17 0 -54
-61 -101 -170 -31 -71 -34 -84 -22 -97 13 -12 11 -33 -13 -156 -24 -128 -25
-143 -11 -153 15 -11 13 -36 -22 -264 l-37 -252 21 -54 c12 -30 29 -54 36 -54
8 0 113 50 235 110 l221 111 79 -12 c43 -6 79 -16 79 -21 0 -6 -12 -43 -26
-82 -20 -57 -24 -80 -18 -121 8 -65 53 -185 71 -192 31 -12 74 92 54 130 -9
17 -9 35 -1 70 7 34 7 60 -1 92 -8 33 -8 57 0 89 9 37 7 53 -11 106 -16 50
-18 67 -9 81 8 13 11 118 11 348 0 194 4 350 11 379 l10 49 77 5 c93 6 185 40
354 134 114 62 164 77 173 52 5 -13 -19 -166 -26 -172 -2 -1 -39 -15 -81 -30
-42 -15 -89 -39 -104 -52 -25 -24 -30 -24 -76 -15 -55 12 -108 14 -108 4 0 -3
11 -29 25 -57 26 -54 65 -201 86 -324 12 -70 12 -73 -11 -97 -14 -15 -20 -30
-16 -41 10 -26 85 -13 173 31 97 48 112 37 55 -39 -47 -62 -94 -101 -140 -117
-26 -9 -32 -16 -32 -40 0 -26 4 -29 30 -29 17 0 53 11 80 25 54 28 72 20 45
-21 -17 -27 -94 -79 -169 -115 -43 -22 -45 -24 -29 -41 9 -10 25 -18 35 -18
10 0 119 38 242 85 123 47 236 85 252 85 38 0 102 18 110 31 3 6 -2 19 -12 30
-13 15 -30 19 -81 19 -81 0 -81 8 -3 109 61 79 74 116 44 128 -14 5 -186 -21
-221 -34 -14 -6 -18 54 -5 73 13 21 69 43 138 55 62 10 73 16 109 54 52 55
175 302 175 351 0 9 -21 40 -46 70 -45 53 -48 54 -99 54 -41 0 -73 -10 -146
-44 l-94 -44 -12 30 c-19 44 -16 81 10 119 64 95 197 127 453 107 155 -12 184
-9 184 16 0 24 -51 45 -154 62 -92 16 -98 16 -173 -4 -84 -23 -211 -42 -273
-42 -35 0 -38 2 -44 35 -9 46 -20 51 -67 29 -39 -17 -40 -18 -33 -59 5 -40 4
-44 -28 -68 -47 -36 -198 -106 -344 -161 l-121 -44 -124 25 c-95 20 -130 31
-150 50 -32 30 -52 94 -53 175 l-1 61 76 32 c86 36 164 86 180 116 9 17 7 25
-12 45 -12 13 -25 23 -28 23 -3 -1 -40 -7 -81 -13z m1066 -598 c-4 -24 -17
-63 -28 -88 -22 -45 -127 -160 -147 -160 -21 0 -11 33 24 81 49 68 47 97 -10
132 -70 45 -61 57 50 70 17 2 50 5 74 6 l44 1 -7 -42z m-1097 8 c10 -11 9 -21
-3 -44 -14 -27 -14 -34 -1 -66 18 -43 18 -82 1 -165 -13 -57 -12 -68 2 -98 14
-30 14 -36 0 -66 -14 -30 -14 -46 13 -227 21 -142 26 -197 18 -207 -13 -15
-55 -17 -64 -3 -3 6 -41 10 -83 10 -70 0 -140 -17 -224 -54 -43 -19 -9 25 127
166 80 83 145 157 145 165 0 8 -21 23 -47 35 -27 11 -50 22 -51 23 -2 2 26 42
61 90 61 80 65 88 56 118 -9 32 -43 66 -66 67 -17 0 -16 4 7 140 11 63 20 118
20 123 0 13 77 7 89 -7z m880 -71 c11 -45 11 -46 -31 -100 -59 -75 -68 -72
-68 22 0 65 3 80 22 100 12 13 31 23 44 23 17 0 24 -9 33 -45z m-1062 -23 c9
-34 10 -48 0 -63 -9 -14 -9 -24 -1 -37 9 -13 6 -29 -17 -74 -26 -51 -27 -58
-13 -72 8 -9 26 -16 40 -16 55 0 28 -40 -133 -202 l-156 -157 16 -25 c20 -30
63 -44 89 -27 15 9 18 8 18 -5 0 -8 -31 -46 -68 -85 -49 -50 -75 -69 -94 -69
-45 0 -47 14 -22 193 12 93 24 171 27 173 2 2 18 -1 35 -7 24 -8 37 -7 61 5
84 44 132 177 147 409 l7 108 26 -3 c20 -2 28 -11 38 -46z m863 -82 c0 -66 -3
-80 -16 -80 -23 0 -164 44 -164 51 0 14 136 109 157 109 22 0 23 -3 23 -80z
m-1020 -27 c-1 -156 -52 -263 -138 -288 l-24 -7 4 130 c3 114 6 134 24 159 28
38 81 73 110 73 23 0 24 -3 24 -67z m930 -135 l74 -68 -23 -24 c-22 -24 -79
-56 -98 -56 -24 0 -66 194 -46 214 10 10 13 7 93 -66z"/>
<path d="M2220 900 c0 -55 18 -107 43 -128 14 -12 20 -11 41 5 14 10 26 25 26
34 0 18 -88 139 -101 139 -5 0 -9 -23 -9 -50z"/>
<path d="M2534 915 c-8 -20 25 -64 81 -105 48 -36 135 -144 175 -217 27 -48
29 -49 72 -27 29 15 30 18 24 62 -13 96 -101 194 -235 261 -87 44 -109 49
-117 26z"/>
<path d="M1902 877 c-11 -29 -9 -33 44 -94 31 -34 59 -63 63 -63 19 0 62 59
59 81 -3 24 -51 60 -119 91 l-35 16 -12 -31z"/>
<path d="M1582 787 c-17 -20 45 -139 79 -151 38 -13 81 21 112 86 l25 52 -22
12 c-17 9 -28 7 -58 -9 l-36 -20 -35 22 c-40 24 -51 26 -65 8z"/>
</g>
</svg>
