<?xml version="1.0" standalone="no"?>
<!DOCTYPE svg PUBLIC "-//W3C//DTD SVG 20010904//EN"
 "http://www.w3.org/TR/2001/REC-SVG-20010904/DTD/svg10.dtd">
<svg version="1.0" xmlns="http://www.w3.org/2000/svg"
 width="360.000000pt" height="360.000000pt" viewBox="0 0 360.000000 360.000000"
 preserveAspectRatio="xMidYMid meet">
<metadata>
Created by potrace 1.15, written by Peter Selinger 2001-2017
</metadata>
<g transform="translate(0.000000,360.000000) scale(0.100000,-0.100000)"
fill="#000000" stroke="none">
<path d="M1144 2565 c-4 -8 -1 -43 5 -77 11 -61 10 -63 -35 -177 -85 -213
-204 -434 -395 -737 l-109 -171 -40 11 c-53 14 -70 3 -92 -60 -22 -62 -23
-123 -3 -130 24 -10 99 41 157 105 108 119 266 362 436 669 l85 152 57 0 c82
0 160 -17 194 -41 23 -18 38 -21 81 -16 59 6 129 38 139 63 7 19 -15 40 -53
50 -28 8 -296 -2 -328 -12 -21 -6 -23 -3 -23 25 0 43 31 127 73 199 l36 61
-21 27 c-21 26 -114 74 -144 74 -8 0 -17 -7 -20 -15z"/>
<path d="M2033 2035 c-80 -42 -92 -45 -136 -39 -52 7 -77 -5 -77 -37 0 -10 11
-26 25 -35 42 -27 97 -28 194 -3 50 13 92 21 95 18 5 -4 -52 -270 -60 -278 -2
-2 -48 8 -102 23 -54 14 -124 26 -155 26 -52 0 -57 -2 -63 -24 -9 -36 -1 -43
57 -50 76 -10 117 -30 125 -60 5 -22 12 -26 40 -26 30 0 34 -3 34 -27 0 -32
-31 -98 -65 -136 l-24 -27 -130 57 c-125 56 -130 59 -131 88 0 17 14 59 30 93
37 78 40 115 8 110 -14 -2 -41 -34 -85 -105 l-63 -101 -34 10 c-28 9 -54 6
-140 -16 -124 -31 -116 -30 -116 -11 0 8 -9 15 -20 15 -11 0 -20 2 -20 3 0 2
34 60 75 128 41 68 75 128 75 133 0 5 -9 20 -21 32 l-21 22 -130 -44 c-115
-38 -136 -42 -172 -34 -66 15 -66 16 -66 -50 0 -45 4 -62 15 -66 9 -4 53 3
100 15 98 24 105 25 105 9 0 -6 -74 -125 -165 -263 l-165 -253 21 -46 c17 -40
24 -46 50 -46 36 0 84 23 92 45 8 18 31 20 45 2 8 -10 6 -51 -8 -152 -24 -169
-25 -215 -4 -284 18 -60 52 -101 86 -101 39 0 131 108 187 221 28 55 56 118
62 140 9 30 16 38 28 34 9 -4 50 -9 91 -12 63 -4 86 -1 142 20 93 34 167 80
252 158 l72 67 38 -20 c22 -11 80 -53 130 -94 243 -196 516 -298 858 -320
l103 -6 14 32 c8 20 10 35 4 41 -5 5 -66 21 -134 35 -266 54 -581 185 -822
344 -87 56 -108 74 -102 88 100 250 192 546 210 675 6 43 3 51 -25 87 -45 57
-89 56 -207 -5z m-536 -616 c12 -12 1 -41 -117 -307 -117 -262 -210 -412 -255
-412 -16 0 -17 10 -12 123 7 153 28 249 78 355 47 97 116 171 204 219 65 35
85 39 102 22z m239 -78 c61 -28 110 -56 112 -64 5 -27 -47 -125 -93 -171 -68
-70 -179 -116 -280 -116 -28 0 -35 4 -35 19 0 25 75 242 101 294 22 41 62 87
77 87 4 0 58 -22 118 -49z m-650 -67 c-5 -14 -64 -54 -78 -54 -18 0 -6 24 35
71 41 48 42 48 45 23 2 -14 1 -32 -2 -40z"/>
</g>
</svg>
