<?xml version="1.0" standalone="no"?>
<!DOCTYPE svg PUBLIC "-//W3C//DTD SVG 20010904//EN"
 "http://www.w3.org/TR/2001/REC-SVG-20010904/DTD/svg10.dtd">
<svg version="1.0" xmlns="http://www.w3.org/2000/svg"
 width="360.000000pt" height="360.000000pt" viewBox="0 0 360.000000 360.000000"
 preserveAspectRatio="xMidYMid meet">
<metadata>
Created by potrace 1.15, written by Peter Selinger 2001-2017
</metadata>
<g transform="translate(0.000000,360.000000) scale(0.100000,-0.100000)"
fill="#000000" stroke="none">
<path d="M1342 2867 c-21 -22 -21 -22 -2 -47 11 -14 20 -33 20 -42 1 -64 -119
-318 -259 -551 -106 -175 -333 -521 -349 -531 -6 -3 -36 -1 -67 6 -58 11 -58
11 -80 -16 -13 -16 -28 -46 -35 -67 -13 -38 -12 -41 15 -69 16 -17 36 -30 46
-30 25 0 132 84 216 168 123 124 287 356 358 507 38 80 106 147 178 174 64 24
137 26 282 11 88 -9 91 -9 114 15 22 21 23 27 12 47 -32 60 -20 58 -208 35
-136 -17 -174 -18 -186 -9 -13 11 -6 33 50 163 59 137 64 154 53 180 -32 76
-112 105 -158 56z"/>
<path d="M2123 2793 c-24 -9 -14 -56 19 -90 l32 -33 -33 -332 c-17 -183 -37
-350 -43 -371 -10 -32 -14 -36 -32 -30 -37 14 -80 7 -144 -22 -57 -26 -122
-82 -122 -105 0 -6 -4 -10 -10 -10 -19 0 -10 51 20 110 36 70 37 86 9 95 -29
10 -41 -6 -85 -105 -20 -47 -38 -87 -41 -90 -2 -2 -19 13 -37 35 l-33 39 -76
-21 -75 -21 -33 34 c-37 38 -41 27 50 132 49 57 53 66 45 90 -11 31 -10 32
-166 -3 -145 -32 -198 -56 -198 -89 0 -25 2 -26 63 -26 35 0 68 5 73 10 8 8
14 7 22 -3 10 -11 -33 -73 -209 -308 -122 -162 -223 -300 -226 -307 -3 -8 3
-23 15 -34 38 -38 120 -6 275 109 48 36 89 64 91 62 2 -2 -1 -59 -7 -127 -8
-84 -8 -129 -1 -140 6 -9 7 -28 3 -42 -4 -14 -7 -68 -8 -121 -1 -110 9 -129
72 -129 33 0 42 6 81 57 86 109 193 343 282 616 34 104 41 117 61 117 22 0 23
-3 23 -88 0 -86 1 -89 33 -120 18 -18 41 -32 52 -32 29 0 97 36 144 77 46 39
61 35 61 -18 0 -14 8 -33 18 -42 21 -19 77 -23 88 -6 4 6 11 49 15 95 10 99
28 147 72 192 59 62 147 93 147 52 0 -32 -66 -278 -108 -400 -111 -326 -280
-641 -503 -940 -82 -110 -90 -124 -76 -137 9 -9 22 -13 31 -10 19 7 190 222
279 349 207 296 348 564 443 842 24 71 44 146 44 167 0 87 37 196 84 247 32
36 92 63 151 69 42 4 71 -1 149 -27 93 -31 98 -31 117 -14 10 9 19 25 19 34 0
31 -122 102 -196 114 -33 6 -47 16 -76 54 -26 36 -88 83 -115 87 -1 1 7 37 18
80 24 91 21 143 -11 248 -26 85 -61 127 -104 127 -31 0 -76 -33 -76 -56 0 -5
20 -43 44 -85 l43 -77 -18 -118 c-10 -66 -23 -156 -28 -201 -16 -136 -73 -218
-193 -278 -39 -19 -76 -35 -82 -35 -7 0 -26 15 -43 33 -31 31 -31 34 -20 74 8
32 8 46 0 54 -8 8 -7 20 3 44 28 68 121 602 110 631 -3 8 -27 28 -53 44 -44
28 -88 36 -120 23z m588 -632 c13 -43 8 -68 -16 -77 -25 -10 -46 15 -38 45 19
81 36 91 54 32z m-681 -387 c6 -14 10 -29 10 -33 0 -8 -85 -51 -100 -51 -21 0
-8 46 22 77 38 40 55 41 68 7z m-360 -19 c0 -14 -96 -247 -128 -310 -47 -95
-112 -194 -152 -230 l-33 -30 7 101 c8 114 36 245 66 305 27 52 85 116 124
136 50 26 116 42 116 28z m-350 -39 c0 -18 -16 -38 -56 -70 -61 -51 -74 -55
-74 -27 0 19 101 121 119 121 6 0 11 -11 11 -24z"/>
</g>
</svg>
