<?xml version="1.0" standalone="no"?>
<!DOCTYPE svg PUBLIC "-//W3C//DTD SVG 20010904//EN"
 "http://www.w3.org/TR/2001/REC-SVG-20010904/DTD/svg10.dtd">
<svg version="1.0" xmlns="http://www.w3.org/2000/svg"
 width="360.000000pt" height="360.000000pt" viewBox="0 0 360.000000 360.000000"
 preserveAspectRatio="xMidYMid meet">
<metadata>
Created by potrace 1.15, written by Peter Selinger 2001-2017
</metadata>
<g transform="translate(0.000000,360.000000) scale(0.100000,-0.100000)"
fill="#000000" stroke="none">
<path d="M2150 2475 c-101 -156 -234 -446 -373 -815 l-73 -195 -89 -5 c-63 -4
-97 -10 -115 -22 -42 -30 -60 -24 -60 22 0 33 12 57 70 141 38 56 70 108 70
114 0 18 -44 55 -66 55 -10 0 -62 -11 -114 -25 -82 -21 -190 -33 -190 -21 0 2
31 70 69 150 l70 146 106 0 106 0 -43 -51 c-41 -49 -42 -51 -23 -65 10 -8 25
-14 32 -14 25 0 97 41 171 97 80 61 87 81 50 128 -21 27 -22 28 -97 19 -104
-11 -208 -11 -221 2 -7 7 9 51 52 143 l62 133 -19 36 c-25 45 -60 71 -108 79
-33 5 -37 3 -37 -17 0 -12 9 -35 20 -50 l21 -29 -48 -128 c-89 -242 -262 -555
-416 -753 -98 -126 -201 -240 -217 -240 -10 0 -22 16 -31 41 l-15 42 -42 -71
c-47 -80 -51 -102 -21 -143 24 -34 47 -36 104 -10 101 46 236 198 382 430 2 2
18 0 36 -6 26 -8 54 -5 132 14 54 13 100 21 103 18 3 -3 -77 -128 -176 -278
-100 -150 -182 -280 -182 -290 0 -22 18 -59 34 -69 28 -19 79 -7 137 33 33 22
63 38 67 35 3 -3 -9 -77 -27 -163 -28 -134 -31 -160 -20 -180 10 -19 10 -28 1
-43 -10 -16 -5 -24 36 -59 74 -64 91 -57 175 74 87 136 163 306 242 540 157
468 297 811 392 963 67 108 67 73 -3 -128 -82 -241 -154 -417 -192 -474 l-33
-49 38 -39 c20 -21 45 -38 54 -38 10 0 37 27 61 60 60 82 71 79 66 -17 -5 -91
-39 -186 -149 -408 -91 -186 -121 -224 -211 -274 -40 -23 -77 -42 -82 -44 -6
-2 3 -20 20 -40 23 -30 36 -37 63 -37 29 0 45 11 110 78 127 129 274 360 286
451 4 31 15 61 26 72 10 10 19 23 19 27 0 16 34 40 66 46 42 9 205 163 283
266 95 126 151 263 151 365 -1 48 -45 105 -84 105 -54 0 -187 -78 -345 -203
-46 -37 -86 -65 -88 -63 -2 2 32 144 77 316 l80 311 -22 32 c-23 33 -37 47
-51 47 -4 0 -30 -34 -57 -75z m380 -505 c0 -42 -94 -240 -156 -326 -46 -65
-138 -154 -159 -154 -28 0 -35 25 -24 83 11 51 10 59 -11 91 -12 20 -20 42
-18 50 2 9 71 71 153 140 122 101 156 125 183 125 17 1 32 -3 32 -9z m-1207
-687 c-54 -45 -68 -47 -32 -4 19 24 39 49 44 57 8 12 11 11 13 -7 3 -14 -6
-30 -25 -46z m307 32 c0 -26 -34 -94 -137 -277 l-138 -243 -3 60 c-6 128 125
423 211 476 49 29 67 25 67 -16z"/>
<path d="M2312 1094 c2 -20 14 -30 59 -48 121 -49 287 -184 465 -378 l89 -97
32 31 32 31 -36 56 c-103 163 -242 300 -366 361 -78 38 -189 69 -250 70 -25 0
-28 -3 -25 -26z"/>
</g>
</svg>
