<?xml version="1.0" standalone="no"?>
<!DOCTYPE svg PUBLIC "-//W3C//DTD SVG 20010904//EN"
 "http://www.w3.org/TR/2001/REC-SVG-20010904/DTD/svg10.dtd">
<svg version="1.0" xmlns="http://www.w3.org/2000/svg"
 width="360.000000pt" height="360.000000pt" viewBox="0 0 360.000000 360.000000"
 preserveAspectRatio="xMidYMid meet">
<metadata>
Created by potrace 1.15, written by Peter Selinger 2001-2017
</metadata>
<g transform="translate(0.000000,360.000000) scale(0.100000,-0.100000)"
fill="#000000" stroke="none">
<path d="M1273 2610 c-34 -14 -37 -44 -8 -88 25 -38 25 -41 14 -113 -12 -70
-26 -97 -291 -554 l-278 -480 -47 -8 c-69 -12 -83 -29 -83 -97 0 -66 18 -90
68 -90 29 0 39 9 95 84 34 47 109 159 166 250 l103 166 35 -45 c30 -39 38 -44
61 -39 38 9 80 31 133 70 47 34 69 42 69 24 0 -5 -76 -109 -168 -232 -154
-203 -290 -397 -321 -456 -11 -20 -10 -27 5 -43 22 -25 76 -24 133 1 45 21
148 98 190 144 14 14 33 26 43 26 24 0 34 -27 20 -51 -15 -24 -15 -52 0 -67 9
-9 9 -15 0 -24 -15 -15 -16 -92 -1 -120 8 -15 8 -22 0 -27 -8 -5 -7 -31 4 -94
21 -119 44 -178 79 -197 27 -15 28 -14 67 30 66 75 114 188 168 396 52 197 70
257 96 302 8 15 35 86 60 157 64 181 155 362 216 429 56 62 90 79 148 74 l41
-3 -48 -67 c-102 -139 -184 -339 -217 -523 -21 -122 -31 -378 -16 -430 6 -23
24 -54 40 -69 47 -45 96 -45 332 3 401 83 659 153 659 179 0 9 -137 145 -235
234 -82 74 -178 148 -192 148 -36 0 48 191 108 247 93 85 214 45 396 -131 l53
-50 25 24 c29 27 35 92 10 127 -22 31 -106 82 -206 123 -80 33 -95 36 -139 29
-122 -19 -288 -154 -417 -338 -12 -17 -143 79 -143 105 0 18 -6 18 -41 -3 -32
-19 -32 -27 3 -98 28 -55 65 -92 106 -106 28 -9 47 -8 113 11 l79 23 75 -57
c90 -69 182 -167 191 -203 5 -19 2 -30 -11 -39 -39 -29 -646 -153 -653 -133
-2 5 -15 9 -29 9 l-25 0 4 203 c6 222 23 313 87 468 63 152 220 355 351 455
28 21 50 43 50 49 0 35 -27 30 -265 -44 l-244 -76 -41 -82 c-23 -46 -52 -95
-64 -110 -13 -16 -27 -48 -31 -73 -21 -129 -104 -194 -271 -215 -49 -6 -53 -5
-73 23 -11 17 -21 35 -21 42 0 6 36 64 80 129 44 65 80 126 80 135 0 35 -79
19 -279 -59 -171 -67 -231 -85 -231 -70 0 2 30 61 67 131 106 199 172 252 327
261 l83 6 6 -31 c8 -37 35 -48 100 -38 65 10 107 39 107 76 0 24 -7 33 -37 49
-79 40 -113 44 -238 31 -64 -6 -119 -10 -121 -7 -3 2 23 69 56 148 68 160 68
177 6 223 -24 18 -94 49 -100 45 -1 0 -11 -4 -23 -9z m207 -1524 c-62 -176
-114 -323 -116 -325 -2 -3 -15 6 -29 19 -24 22 -25 29 -25 129 0 132 23 318
43 357 24 46 102 112 170 145 53 25 62 27 65 13 2 -9 -47 -161 -108 -338z
m-240 287 c0 -39 -32 -87 -81 -123 -81 -58 -80 -31 3 73 33 42 65 77 70 77 4
0 8 -12 8 -27z"/>
</g>
</svg>
