<?xml version="1.0" standalone="no"?>
<!DOCTYPE svg PUBLIC "-//W3C//DTD SVG 20010904//EN"
 "http://www.w3.org/TR/2001/REC-SVG-20010904/DTD/svg10.dtd">
<svg version="1.0" xmlns="http://www.w3.org/2000/svg"
 width="360.000000pt" height="360.000000pt" viewBox="0 0 360.000000 360.000000"
 preserveAspectRatio="xMidYMid meet">
<metadata>
Created by potrace 1.15, written by Peter Selinger 2001-2017
</metadata>
<g transform="translate(0.000000,360.000000) scale(0.100000,-0.100000)"
fill="#000000" stroke="none">
<path d="M1360 2572 c0 -4 8 -37 19 -73 l18 -65 -305 -557 c-185 -337 -312
-557 -321 -557 -11 0 -13 13 -6 78 12 122 12 126 -7 130 -38 8 -78 -110 -78
-234 0 -56 4 -74 18 -87 29 -26 65 -21 99 15 81 85 260 372 457 731 87 157
101 178 120 173 11 -2 65 -13 119 -22 80 -14 97 -20 97 -35 0 -10 -4 -21 -10
-24 -5 -3 -10 -15 -10 -26 0 -15 7 -19 32 -19 46 0 118 71 118 117 0 63 -67
93 -204 93 -42 0 -76 4 -76 8 0 5 18 53 40 107 22 54 40 106 40 114 0 22 -121
141 -143 141 -9 0 -17 -3 -17 -8z"/>
<path d="M2163 2443 c-19 -7 -16 -21 15 -72 l28 -46 -15 -243 c-16 -239 -16
-244 -41 -264 -30 -25 -252 -135 -338 -169 -62 -24 -62 -24 -62 -64 1 -54 16
-120 40 -175 l21 -45 -154 -155 c-153 -154 -222 -241 -248 -312 -12 -34 -17
-38 -47 -38 l-34 0 4 123 c3 107 7 129 30 179 47 100 129 183 253 253 28 16
52 30 54 32 3 2 -8 17 -24 33 -25 26 -36 30 -86 30 -69 0 -92 -19 -64 -50 18
-20 17 -21 -26 -62 l-44 -42 -3 87 c-3 104 13 151 95 265 45 62 54 81 51 111
-3 36 -3 36 -48 35 -25 0 -107 -9 -182 -19 l-138 -18 0 -38 c0 -34 3 -38 33
-47 17 -6 67 -13 109 -17 l78 -7 -37 -56 c-57 -91 -169 -237 -290 -380 -90
-105 -113 -138 -113 -162 0 -22 6 -33 23 -41 19 -8 42 -3 125 30 56 23 105 41
107 41 8 0 5 -101 -5 -150 -4 -25 -4 -50 0 -55 5 -6 5 -28 0 -50 -5 -22 -14
-91 -20 -153 -12 -113 -11 -114 12 -139 49 -53 53 -51 114 44 182 282 302 447
399 547 87 89 101 88 108 -11 5 -85 31 -172 72 -244 l26 -47 82 45 c180 98
358 168 376 147 4 -5 20 -41 35 -80 60 -159 172 -296 226 -279 24 8 71 104 99
205 57 206 154 827 135 858 -27 42 -114 80 -259 111 -78 17 -82 17 -188 -5
-86 -17 -116 -19 -143 -11 -19 6 -34 16 -34 24 0 7 9 115 21 240 l21 228 -48
42 c-46 40 -71 49 -101 36z m482 -654 l125 -31 0 -37 c0 -20 -9 -117 -19 -215
-13 -124 -16 -185 -9 -196 8 -12 -6 -68 -52 -216 -34 -109 -64 -202 -67 -207
-2 -4 -53 56 -111 132 l-107 140 -45 0 c-25 0 -65 -4 -89 -10 -77 -17 -78 -1
-7 109 73 112 109 180 126 239 16 54 5 70 -56 79 l-44 6 0 73 c0 72 0 74 34
94 40 25 154 70 179 71 10 0 74 -14 142 -31z m-465 -178 l0 -79 -102 -92
c-118 -106 -132 -136 -61 -134 28 0 56 10 82 27 23 15 41 26 41 24 0 -1 -9
-35 -20 -76 -37 -131 -82 -201 -132 -201 -15 0 -28 2 -28 4 0 2 -22 100 -49
218 -27 117 -51 223 -52 236 -4 20 11 29 131 86 74 35 147 65 163 65 l27 1 0
-79z m-894 -298 c-8 -34 -59 -83 -86 -83 -28 0 -25 20 10 68 22 31 37 42 56
42 23 0 25 -3 20 -27z"/>
</g>
</svg>
