<?xml version="1.0" standalone="no"?>
<!DOCTYPE svg PUBLIC "-//W3C//DTD SVG 20010904//EN"
 "http://www.w3.org/TR/2001/REC-SVG-20010904/DTD/svg10.dtd">
<svg version="1.0" xmlns="http://www.w3.org/2000/svg"
 width="360.000000pt" height="360.000000pt" viewBox="0 0 360.000000 360.000000"
 preserveAspectRatio="xMidYMid meet">
<metadata>
Created by potrace 1.15, written by Peter Selinger 2001-2017
</metadata>
<g transform="translate(0.000000,360.000000) scale(0.100000,-0.100000)"
fill="#000000" stroke="none">
<path d="M1320 2744 c0 -5 9 -22 20 -39 11 -16 20 -45 20 -64 0 -49 -117 -335
-230 -566 -85 -171 -186 -346 -252 -436 l-18 -23 -44 21 -44 22 -21 -23 c-18
-19 -21 -34 -21 -117 0 -87 2 -97 23 -117 13 -12 31 -22 39 -22 50 0 207 242
370 571 103 207 161 289 225 315 18 8 63 14 101 14 64 0 73 -3 115 -35 54 -41
63 -42 139 -13 69 27 75 48 25 96 l-33 32 -111 0 c-67 0 -114 -4 -118 -10 -5
-8 -11 -7 -21 1 -8 6 -27 9 -44 7 -16 -3 -30 -4 -30 -3 0 0 23 68 50 150 28
82 50 159 50 172 0 16 -11 28 -41 44 -44 22 -149 38 -149 23z"/>
<path d="M2280 2359 l-172 -151 -73 51 c-41 28 -80 51 -88 51 -33 0 -77 -83
-77 -146 l0 -36 38 8 c89 18 87 19 85 -71 -4 -135 -30 -289 -90 -539 l-35
-148 21 -21 c17 -17 25 -19 39 -11 42 27 87 145 127 334 27 128 31 180 15 196
-6 6 -2 51 12 128 l22 118 88 44 c72 36 128 54 128 41 0 -1 -7 -34 -15 -72 -8
-39 -17 -134 -21 -212 -6 -123 -5 -145 10 -167 22 -35 60 -58 104 -65 28 -5
38 -12 40 -27 2 -17 -13 -31 -72 -68 -145 -90 -311 -229 -415 -346 l-61 -69
64 -256 c35 -141 66 -258 68 -261 3 -2 123 21 267 51 181 38 286 55 336 55 43
0 77 5 81 11 3 6 -17 35 -46 64 l-52 53 73 78 c79 86 141 176 160 231 10 33 9
37 -20 67 -17 18 -66 53 -110 80 -66 40 -82 45 -102 37 -13 -6 -82 -33 -154
-61 -174 -69 -299 -135 -354 -187 -42 -40 -46 -42 -63 -26 -36 32 -13 89 75
181 100 105 228 198 557 407 129 82 236 150 238 151 4 2 -8 25 -27 53 -7 11
-48 1 -224 -54 -242 -76 -247 -76 -247 -1 0 175 55 370 140 502 l43 65 -44 45
c-30 30 -51 44 -70 44 -20 0 -69 -37 -199 -151z m379 -1095 c12 -15 21 -34 21
-43 0 -30 -102 -174 -171 -241 -101 -100 -251 -170 -365 -170 l-43 0 6 38 c24
170 151 303 389 407 97 43 135 45 163 9z"/>
<path d="M1400 1883 c-25 -8 -64 -28 -88 -44 -52 -35 -56 -35 -70 -4 -12 25
-12 25 -49 10 -80 -34 -87 -62 -27 -105 43 -30 46 -31 95 -21 27 6 52 11 54
11 19 0 -21 -59 -200 -295 -197 -259 -205 -272 -205 -315 0 -28 8 -58 21 -79
19 -32 23 -33 65 -28 45 5 117 43 205 109 30 23 49 32 49 24 0 -8 -18 -98 -40
-201 -32 -152 -40 -207 -40 -294 l0 -107 29 -17 c58 -34 73 -26 154 86 249
342 409 656 483 946 30 117 32 171 5 171 -15 0 -20 -10 -25 -51 -24 -183 -189
-523 -403 -834 -65 -94 -71 -100 -107 -103 l-38 -3 6 68 c12 120 36 230 72
335 59 168 71 186 189 279 57 46 105 86 105 89 -1 9 -78 60 -92 60 -7 0 -42
-34 -77 -75 -81 -97 -99 -99 -141 -15 -16 33 -30 64 -30 70 0 6 54 79 120 163
66 83 120 160 120 170 0 14 -9 17 -47 17 -27 -1 -68 -8 -93 -17z m-130 -443
c26 -32 30 -46 25 -70 -13 -59 -133 -168 -252 -229 -52 -26 -53 -26 -53 0 0
20 227 339 241 339 4 0 22 -18 39 -40z"/>
</g>
</svg>
