<?xml version="1.0" standalone="no"?>
<!DOCTYPE svg PUBLIC "-//W3C//DTD SVG 20010904//EN"
 "http://www.w3.org/TR/2001/REC-SVG-20010904/DTD/svg10.dtd">
<svg version="1.0" xmlns="http://www.w3.org/2000/svg"
 width="360.000000pt" height="360.000000pt" viewBox="0 0 360.000000 360.000000"
 preserveAspectRatio="xMidYMid meet">
<metadata>
Created by potrace 1.15, written by Peter Selinger 2001-2017
</metadata>
<g transform="translate(0.000000,360.000000) scale(0.100000,-0.100000)"
fill="#000000" stroke="none">
<path d="M1256 3138 c-20 -28 -4 -58 29 -58 35 0 33 -22 -19 -178 -51 -150
-19 -108 -345 -452 -79 -83 -141 -153 -138 -156 3 -3 23 4 46 15 22 12 45 21
51 21 20 0 10 -32 -29 -89 -38 -56 -139 -156 -148 -147 -3 2 0 20 5 40 34 121
-108 -89 -159 -236 -35 -100 -35 -109 -7 -135 l23 -21 182 226 c102 127 210
274 246 333 156 262 302 387 464 397 41 3 73 1 73 -4 0 -5 -29 -39 -65 -74
-66 -65 -85 -110 -47 -110 35 0 142 74 222 155 l82 82 -21 42 c-12 22 -23 41
-25 41 -1 0 -70 -13 -151 -30 -164 -33 -200 -36 -192 -17 2 6 24 71 47 142 40
121 42 133 29 160 -15 32 -81 75 -116 75 -12 0 -29 -10 -37 -22z"/>
<path d="M2120 2965 c-112 -91 -115 -92 -214 -76 l-48 8 -55 -84 c-54 -84 -54
-86 -74 -221 -33 -230 -79 -390 -117 -411 -14 -8 -14 -17 -3 -81 17 -96 9
-106 -74 -91 -78 15 -150 14 -163 -1 -5 -7 -13 -32 -17 -56 -6 -36 -10 -43
-28 -40 -15 2 -27 19 -43 58 l-22 54 110 164 c60 90 108 171 106 180 -6 31
-69 26 -199 -18 -75 -25 -125 -37 -129 -30 -7 11 -70 -18 -114 -53 -24 -20
-27 -26 -18 -43 27 -47 23 -46 120 -24 100 22 132 25 132 12 0 -5 -34 -51 -76
-103 -217 -266 -386 -505 -404 -568 -8 -30 -7 -38 7 -48 35 -26 124 -4 213 52
22 14 49 25 61 25 18 0 20 -4 14 -27 -29 -112 -47 -226 -52 -330 l-6 -122 36
-36 c56 -56 77 -50 179 53 83 84 87 91 133 207 94 239 204 425 289 490 42 32
66 27 66 -13 0 -38 17 -52 63 -52 30 0 63 15 147 65 59 36 118 65 130 65 l23
0 -24 -29 c-13 -16 -90 -104 -170 -195 -81 -91 -167 -193 -193 -227 -42 -55
-46 -66 -46 -115 0 -38 4 -56 14 -60 28 -11 94 18 211 91 127 80 288 165 311
165 9 0 14 -11 14 -32 0 -18 9 -165 20 -327 16 -235 18 -305 9 -351 -8 -44 -8
-67 1 -94 9 -28 9 -73 0 -201 -7 -90 -10 -171 -6 -180 3 -8 14 -15 25 -15 40
0 75 132 89 340 6 92 2 189 -25 510 -18 217 -32 400 -33 406 0 6 20 25 45 43
36 26 75 39 189 66 181 42 261 73 261 100 0 23 -40 45 -95 52 -24 4 -99 -9
-212 -36 -97 -22 -178 -41 -182 -41 -3 0 -6 39 -6 87 l0 88 92 92 c84 85 91
94 77 109 -14 13 -27 14 -93 5 -43 -6 -82 -11 -87 -11 -5 0 -9 40 -9 88 0 50
-5 93 -11 99 -14 14 -8 17 92 42 85 21 245 40 347 41 52 0 53 -1 50 -27 -3
-26 -9 -29 -85 -47 -66 -16 -83 -24 -83 -38 0 -24 17 -23 197 7 153 26 249 50
270 67 20 16 -6 56 -52 78 -55 27 -174 49 -300 56 -95 6 -112 3 -350 -50 -194
-42 -253 -52 -262 -43 -9 9 20 71 132 277 79 146 144 272 145 280 0 27 -30 60
-80 85 -27 14 -51 25 -52 25 -2 -1 -50 -39 -108 -85z m35 -137 c-17 -58 -100
-259 -128 -308 -79 -144 -155 -210 -240 -210 l-49 0 7 78 c10 127 35 243 67
319 16 40 34 75 39 78 4 3 37 1 72 -5 l64 -12 79 41 c44 22 83 40 87 41 5 0 5
-10 2 -22z m16 -573 c4 -16 7 -61 8 -100 l1 -70 -108 -69 c-280 -182 -257
-169 -296 -156 -26 8 -36 17 -36 32 0 30 117 203 189 280 71 77 147 120 201
116 30 -3 36 -7 41 -33z m-347 -67 c-5 -7 -24 -33 -43 -58 -35 -44 -64 -96
-75 -132 -3 -10 -15 -18 -27 -18 -19 0 -21 4 -14 37 10 57 45 143 66 164 22
22 106 28 93 7z m-624 -307 c0 -30 -8 -47 -39 -83 -36 -40 -142 -108 -170
-108 -21 0 -11 27 14 38 25 12 91 104 115 161 10 26 18 31 46 31 33 0 34 -1
34 -39z m310 -15 c0 -56 -23 -71 -55 -36 -17 19 -17 21 0 40 26 28 55 26 55
-4z m-96 -134 l28 -58 -62 -123 c-144 -288 -285 -467 -265 -338 51 338 128
544 219 582 38 16 44 11 80 -63z m770 -2 c10 -27 15 -53 12 -58 -7 -11 -304
-198 -331 -208 -28 -11 -16 7 62 98 90 105 207 218 225 218 8 0 22 -22 32 -50z"/>
</g>
</svg>
