<?xml version="1.0" standalone="no"?>
<!DOCTYPE svg PUBLIC "-//W3C//DTD SVG 20010904//EN"
 "http://www.w3.org/TR/2001/REC-SVG-20010904/DTD/svg10.dtd">
<svg version="1.0" xmlns="http://www.w3.org/2000/svg"
 width="360.000000pt" height="360.000000pt" viewBox="0 0 360.000000 360.000000"
 preserveAspectRatio="xMidYMid meet">
<metadata>
Created by potrace 1.15, written by Peter Selinger 2001-2017
</metadata>
<g transform="translate(0.000000,360.000000) scale(0.100000,-0.100000)"
fill="#000000" stroke="none">
<path d="M1198 2664 c-32 -17 -32 -16 -17 -67 9 -34 6 -48 -36 -155 -61 -152
-207 -454 -347 -714 l-111 -207 -38 22 c-37 21 -37 21 -60 2 -30 -28 -46 -69
-54 -145 -7 -64 -6 -66 25 -95 l32 -30 70 75 c75 81 166 210 197 281 l20 45
58 -9 c48 -8 70 -6 130 11 40 11 75 17 77 13 3 -4 -56 -97 -130 -207 -141
-207 -214 -328 -214 -355 0 -26 34 -49 72 -49 28 0 52 13 113 60 70 54 95 69
95 55 0 -2 -13 -66 -30 -142 -35 -162 -36 -170 -10 -178 19 -6 19 -8 -6 -57
-22 -44 -25 -58 -19 -112 9 -85 22 -122 52 -146 78 -61 164 21 293 279 78 155
240 555 240 591 0 6 -9 10 -19 10 -15 0 -37 -37 -100 -165 -94 -194 -155 -299
-260 -447 -79 -112 -108 -134 -98 -76 4 18 20 137 37 263 22 160 38 242 52
270 26 53 97 126 178 183 36 25 67 47 70 50 3 2 -6 12 -20 22 -41 32 -94 26
-144 -15 -24 -19 -48 -35 -55 -35 -15 0 -51 60 -51 85 0 11 33 75 74 141 73
120 73 120 50 131 -19 9 -54 3 -186 -33 -173 -47 -198 -51 -198 -33 0 23 86
172 130 227 84 104 197 169 281 160 42 -4 59 -30 36 -56 -9 -10 -17 -29 -17
-42 0 -22 3 -22 52 -17 60 7 114 41 161 100 l31 37 -29 30 c-28 29 -32 30
-117 30 -57 0 -119 -8 -174 -21 -46 -12 -87 -19 -90 -16 -3 3 24 86 61 185 76
202 77 216 18 257 -44 29 -40 29 -75 9z m-150 -1334 c-29 -27 -59 -49 -65 -50
-29 0 -9 32 50 84 53 48 62 53 65 36 2 -14 -14 -36 -50 -70z"/>
<path d="M1870 2652 c0 -21 12 -36 53 -69 l54 -42 -11 -51 c-9 -45 -8 -52 11
-71 l20 -21 52 58 c65 74 66 92 0 167 l-51 57 -64 0 c-63 0 -64 0 -64 -28z"/>
<path d="M1951 2023 l-304 -186 -44 22 c-24 11 -53 21 -64 21 -18 0 -20 -4
-14 -32 26 -120 81 -125 284 -25 58 29 109 54 113 55 24 10 -7 -46 -152 -278
-174 -279 -183 -301 -134 -339 15 -12 37 -21 50 -21 13 0 24 -3 24 -6 0 -3
-47 -90 -105 -194 -58 -104 -105 -199 -105 -213 0 -34 26 -55 44 -36 7 8 117
155 245 327 128 171 237 312 241 312 4 0 13 -7 20 -15 11 -13 9 -50 -10 -201
-14 -120 -20 -204 -16 -237 26 -193 180 -294 441 -290 180 2 341 42 500 123
102 52 99 44 72 172 -19 85 -42 314 -53 516 l-7 132 -38 0 c-22 0 -40 -1 -40
-2 -1 -2 -7 -136 -13 -298 -9 -221 -9 -306 0 -340 20 -80 -6 -106 -128 -135
-86 -20 -324 -38 -424 -33 -136 7 -205 57 -225 161 -5 29 -3 47 7 63 15 22 34
194 34 314 0 59 -3 67 -32 97 -37 38 -50 16 115 194 66 72 107 124 107 137 0
12 -11 29 -25 38 -25 16 -26 15 -91 -42 -194 -171 -362 -298 -389 -292 -10 2
1 29 43 98 103 169 218 319 370 481 40 42 72 83 72 91 0 19 -32 48 -51 47 -8
0 -151 -84 -318 -186z"/>
</g>
</svg>
