<?xml version="1.0" standalone="no"?>
<!DOCTYPE svg PUBLIC "-//W3C//DTD SVG 20010904//EN"
 "http://www.w3.org/TR/2001/REC-SVG-20010904/DTD/svg10.dtd">
<svg version="1.0" xmlns="http://www.w3.org/2000/svg"
 width="360.000000pt" height="360.000000pt" viewBox="0 0 360.000000 360.000000"
 preserveAspectRatio="xMidYMid meet">
<metadata>
Created by potrace 1.15, written by Peter Selinger 2001-2017
</metadata>
<g transform="translate(0.000000,360.000000) scale(0.100000,-0.100000)"
fill="#000000" stroke="none">
<path d="M2064 2679 c-3 -6 -2 -14 3 -18 5 -3 30 -21 56 -40 54 -40 54 -39 33
-217 -16 -136 -40 -185 -147 -298 -86 -90 -102 -92 -129 -14 -11 31 -22 44
-38 46 -17 3 -22 10 -22 35 0 50 -19 106 -40 117 -10 6 -92 10 -184 10 -91 0
-166 2 -166 3 0 2 25 48 55 103 30 54 55 103 55 107 0 5 -19 31 -42 58 -39 46
-44 49 -90 49 l-48 0 0 -70 c0 -85 -21 -152 -100 -315 -90 -187 -219 -383
-392 -599 -49 -61 -88 -117 -88 -126 0 -20 41 -60 61 -60 45 0 168 145 237
279 24 47 47 86 51 85 3 0 22 -3 41 -8 27 -6 53 -1 118 23 103 38 126 40 117
9 -18 -59 -121 -221 -264 -413 -79 -107 -82 -111 -79 -160 3 -47 5 -50 32 -53
17 -2 53 9 91 27 34 17 72 31 84 31 19 0 20 -4 15 -43 -24 -190 -41 -414 -32
-424 5 -7 6 -32 2 -58 -6 -42 -4 -49 22 -76 19 -20 37 -29 58 -29 30 1 38 14
290 445 143 245 260 444 262 442 1 -1 -13 -92 -32 -202 -18 -110 -34 -206 -34
-213 0 -26 48 -62 84 -62 34 0 35 2 51 58 73 264 133 402 175 402 20 0 21 -4
15 -57 -12 -98 -34 -195 -70 -309 -75 -228 -160 -395 -255 -496 l-56 -58 23
-21 c12 -12 28 -19 36 -16 24 9 155 164 209 245 53 83 110 195 130 262 l13 41
45 -6 c75 -10 163 -59 220 -123 81 -90 193 -241 255 -346 55 -92 59 -96 92
-96 l35 0 -7 67 c-13 121 -51 192 -160 298 -39 39 -108 95 -152 124 l-80 54
53 83 c109 174 173 393 174 597 0 77 -10 93 -72 112 -132 39 -210 13 -364
-123 -122 -107 -137 -100 -61 30 30 51 84 131 118 178 74 99 245 278 341 357
61 50 68 59 68 92 0 29 -7 41 -36 64 -33 27 -39 28 -97 22 -91 -10 -97 -12
-97 -46 0 -24 4 -29 25 -29 44 0 28 -30 -69 -126 -51 -52 -101 -94 -110 -94
-22 0 -22 79 0 145 16 45 16 49 0 60 -16 12 -16 15 0 49 33 68 -14 189 -87
226 -42 22 -133 27 -145 9z m-427 -510 l42 -42 60 10 61 10 0 -86 c0 -82 1
-86 32 -118 44 -45 97 -46 156 -2 l42 30 22 -45 22 -46 -33 -68 c-44 -91 -108
-188 -134 -205 -12 -8 -134 -166 -272 -351 -137 -185 -251 -333 -253 -328 -1
5 4 99 11 208 11 151 19 210 33 239 23 51 117 144 188 186 31 19 56 38 56 44
0 5 -9 21 -18 33 l-19 24 -96 -41 c-53 -23 -99 -41 -103 -41 -4 0 -18 9 -30
21 l-22 21 103 171 102 171 -25 13 c-38 20 -61 16 -202 -33 -72 -25 -133 -44
-136 -41 -9 9 49 139 88 197 35 53 68 83 108 102 8 4 51 7 95 7 l79 1 43 -41z
m466 -155 c-15 -13 -34 -23 -40 -24 -25 0 -12 28 25 58 35 29 37 29 40 10 3
-13 -6 -29 -25 -44z m437 -295 c0 -30 -46 -233 -75 -334 -27 -92 -65 -177 -92
-207 -24 -27 -89 -23 -128 6 l-31 24 22 164 c14 105 18 171 13 186 -28 73 18
133 162 211 l53 30 38 -31 c21 -16 38 -38 38 -49z m-1200 -222 c0 -30 -4 -35
-50 -54 -66 -28 -67 -9 -2 46 26 22 48 40 50 41 1 0 2 -15 2 -33z"/>
</g>
</svg>
