<?xml version="1.0" standalone="no"?>
<!DOCTYPE svg PUBLIC "-//W3C//DTD SVG 20010904//EN"
 "http://www.w3.org/TR/2001/REC-SVG-20010904/DTD/svg10.dtd">
<svg version="1.0" xmlns="http://www.w3.org/2000/svg"
 width="360.000000pt" height="360.000000pt" viewBox="0 0 360.000000 360.000000"
 preserveAspectRatio="xMidYMid meet">
<metadata>
Created by potrace 1.15, written by Peter Selinger 2001-2017
</metadata>
<g transform="translate(0.000000,360.000000) scale(0.100000,-0.100000)"
fill="#000000" stroke="none">
<path d="M1253 2604 c-3 -9 -1 -36 4 -61 8 -33 7 -61 -2 -107 -32 -148 -154
-427 -245 -556 -108 -153 -226 -332 -249 -378 l-22 -43 21 -29 c12 -17 25 -30
29 -30 19 0 140 142 196 228 65 101 60 98 158 82 37 -6 67 -6 84 1 14 5 28 8
30 5 2 -2 -9 -26 -26 -53 -48 -78 -138 -271 -166 -358 -14 -44 -29 -110 -32
-147 l-6 -68 32 0 c24 0 54 18 127 75 108 85 128 92 119 42 -3 -17 -18 -106
-33 -197 l-28 -165 22 -150 c13 -82 23 -151 23 -153 1 -2 20 -2 44 0 40 3 43
5 74 63 74 137 319 713 308 723 -7 8 0 19 -165 -263 -83 -143 -153 -261 -155
-264 -6 -5 -65 20 -65 28 0 15 92 479 102 511 15 52 69 122 137 177 64 51 72
70 43 96 -28 25 -39 22 -104 -33 -33 -27 -64 -50 -69 -50 -11 0 -129 78 -129
85 0 2 47 70 105 151 58 81 105 155 105 164 0 18 -30 50 -48 50 -6 0 -50 -25
-98 -55 -49 -30 -112 -64 -141 -75 -50 -19 -123 -27 -123 -14 0 23 120 233
157 274 l45 50 108 0 108 0 6 -30 c5 -27 9 -30 44 -30 30 0 45 7 72 35 33 34
33 35 19 72 -22 58 -79 83 -190 83 l-86 0 25 105 26 105 -59 60 c-49 49 -65
60 -93 60 -21 0 -35 -6 -39 -16z m57 -1131 c0 -40 -28 -99 -62 -129 -31 -29
-90 -64 -107 -64 -30 0 9 104 81 211 l40 60 24 -22 c16 -15 24 -34 24 -56z"/>
<path d="M2445 2400 c-157 -22 -223 -37 -251 -55 -12 -8 -75 -26 -140 -40
-203 -46 -220 -57 -169 -107 41 -42 86 -43 189 -8 50 16 95 30 101 30 19 0 75
-127 75 -170 0 -46 -21 -65 -143 -129 -93 -49 -107 -51 -107 -13 0 42 -27 126
-51 156 -18 23 -28 26 -80 26 -32 0 -59 -3 -59 -7 0 -4 20 -32 44 -63 l45 -57
11 -124 c28 -307 66 -488 106 -503 8 -3 54 19 103 49 48 30 93 55 99 55 7 0
12 -15 12 -34 0 -31 -11 -43 -145 -156 -80 -67 -145 -126 -145 -130 0 -4 26
-17 58 -29 31 -11 75 -31 97 -44 34 -19 40 -28 43 -60 3 -30 0 -37 -15 -37
-57 0 -223 -119 -223 -159 0 -9 10 -29 23 -44 l22 -28 304 76 304 76 100 -21
c128 -26 163 -26 177 0 22 42 -26 81 -143 115 -52 15 -75 15 -227 4 -94 -7
-173 -10 -176 -6 -3 3 60 85 140 183 143 172 146 177 146 224 0 59 -16 74 -99
96 -61 15 -64 15 -85 -5 -12 -12 -34 -21 -49 -21 -32 0 -35 21 -11 78 22 53
62 91 109 103 66 17 136 100 205 243 54 110 150 368 150 403 0 21 -90 112
-132 134 -44 22 -44 22 -213 -1z m177 -107 c24 -22 24 -88 -2 -187 -38 -143
-106 -266 -209 -377 l-49 -54 -26 24 c-43 40 -33 112 30 213 45 74 45 118 -2
131 l-31 9 -6 92 c-3 50 -8 98 -12 107 -17 45 262 83 307 42z m-442 -486 c0
-32 -137 -168 -149 -148 -11 17 -25 121 -18 128 6 5 135 41 155 42 6 1 12 -9
12 -22z m39 -141 c30 -36 -37 -116 -118 -141 -32 -10 -26 6 35 91 47 65 63 75
83 50z m137 -425 l-46 -46 0 46 c0 43 2 46 43 66 l42 20 3 -20 c3 -13 -12 -35
-42 -66z m-133 -67 c3 -3 1 -19 -5 -35 -7 -21 -16 -29 -34 -29 -30 0 -31 17
-2 47 22 24 30 27 41 17z"/>
</g>
</svg>
