<?xml version="1.0" standalone="no"?>
<!DOCTYPE svg PUBLIC "-//W3C//DTD SVG 20010904//EN"
 "http://www.w3.org/TR/2001/REC-SVG-20010904/DTD/svg10.dtd">
<svg version="1.0" xmlns="http://www.w3.org/2000/svg"
 width="360.000000pt" height="360.000000pt" viewBox="0 0 360.000000 360.000000"
 preserveAspectRatio="xMidYMid meet">
<metadata>
Created by potrace 1.15, written by Peter Selinger 2001-2017
</metadata>
<g transform="translate(0.000000,360.000000) scale(0.100000,-0.100000)"
fill="#000000" stroke="none">
<path d="M1273 2646 c-26 -9 -30 -14 -22 -28 6 -10 20 -18 33 -18 21 0 26 -10
53 -117 38 -146 68 -226 97 -260 21 -25 23 -25 53 -10 50 26 123 128 123 171
0 25 -34 37 -68 25 -60 -21 -74 -11 -89 61 -15 78 -54 137 -108 166 -34 19
-45 20 -72 10z"/>
<path d="M2115 2585 c-99 -30 -189 -54 -201 -55 -11 0 -33 13 -49 30 l-29 30
-23 -22 c-13 -12 -23 -26 -23 -30 0 -15 104 -137 117 -137 7 -1 98 39 203 88
l190 90 55 -9 c30 -5 62 -13 72 -19 34 -18 72 -66 88 -110 17 -50 20 -179 5
-231 -8 -25 -7 -41 2 -58 9 -17 9 -67 1 -207 -9 -160 -7 -227 12 -502 12 -175
20 -322 17 -328 -4 -5 -7 -35 -9 -65 -9 -207 -16 -290 -27 -290 -6 0 -58 47
-116 105 -104 104 -130 122 -130 87 0 -40 232 -363 285 -398 35 -23 70 -11 85
28 23 61 23 266 0 802 l-23 533 23 252 22 252 -27 41 c-43 65 -106 128 -150
150 -27 15 -64 22 -115 25 -67 3 -93 -2 -255 -52z"/>
<path d="M947 2014 c-3 -3 14 -33 39 -66 24 -33 48 -77 54 -99 20 -72 -36
-525 -91 -737 -16 -62 -29 -139 -29 -171 0 -50 4 -61 28 -84 37 -36 47 -34 65
11 34 87 83 482 64 514 -8 12 1 83 32 263 24 138 39 251 35 255 -5 5 -42 34
-83 64 -69 52 -99 65 -114 50z"/>
<path d="M1875 2001 c-83 -24 -186 -76 -274 -139 l-74 -53 -51 50 c-51 50 -76
63 -76 39 0 -7 9 -85 20 -173 11 -88 20 -213 20 -278 0 -105 2 -121 23 -152
22 -35 53 -45 74 -24 7 7 7 23 0 52 -7 29 -7 64 1 122 7 45 12 93 12 108 0 89
88 213 193 271 95 52 237 92 237 66 0 -10 -51 -92 -157 -252 -73 -111 -143
-241 -143 -267 0 -39 23 -43 112 -21 137 35 293 89 329 113 56 37 49 85 -15
112 -26 11 -38 9 -108 -21 -43 -18 -78 -32 -78 -30 0 20 34 86 80 155 61 91
124 202 134 237 5 17 -4 29 -47 63 -47 36 -60 41 -103 40 -27 0 -76 -8 -109
-18z"/>
</g>
</svg>
