<?xml version="1.0" standalone="no"?>
<!DOCTYPE svg PUBLIC "-//W3C//DTD SVG 20010904//EN"
 "http://www.w3.org/TR/2001/REC-SVG-20010904/DTD/svg10.dtd">
<svg version="1.0" xmlns="http://www.w3.org/2000/svg"
 width="360.000000pt" height="360.000000pt" viewBox="0 0 360.000000 360.000000"
 preserveAspectRatio="xMidYMid meet">
<metadata>
Created by potrace 1.15, written by Peter Selinger 2001-2017
</metadata>
<g transform="translate(0.000000,360.000000) scale(0.100000,-0.100000)"
fill="#000000" stroke="none">
<path d="M1274 2679 c-3 -6 9 -27 28 -47 23 -24 46 -68 68 -127 41 -113 115
-273 137 -297 16 -18 20 -16 85 49 37 37 68 73 68 80 0 21 -43 43 -88 43 -25
0 -44 5 -47 13 -2 6 -14 45 -26 86 -27 87 -70 156 -118 188 -36 24 -95 31
-107 12z"/>
<path d="M2165 2594 l-130 -56 -93 22 c-139 33 -152 20 -69 -67 48 -52 97 -83
130 -83 7 0 64 34 127 75 78 50 125 75 145 75 26 0 162 -34 171 -43 6 -5 42
-241 64 -412 48 -384 69 -590 58 -596 -7 -5 -7 -21 0 -55 8 -35 8 -78 0 -147
-8 -73 -8 -123 0 -192 7 -52 12 -152 12 -223 0 -122 -1 -130 -24 -151 l-23
-22 -74 87 -74 86 -3 -42 c-7 -89 156 -320 225 -320 7 0 21 12 30 27 15 22 19
61 26 218 10 234 10 223 -1 485 -5 118 -12 223 -16 233 -5 10 -3 23 4 32 9 11
8 36 -4 112 -26 171 -37 292 -46 533 -9 251 -19 308 -64 368 -47 65 -99 92
-201 106 -34 5 -61 -3 -170 -50z"/>
<path d="M2025 2216 c-27 -7 -133 -51 -235 -98 -205 -95 -351 -155 -399 -164
-36 -8 -36 -7 -15 -39 13 -20 25 -25 58 -25 48 0 123 20 208 56 90 38 88 40
88 -83 -1 -70 -5 -116 -14 -132 -18 -33 -81 -73 -186 -117 -99 -43 -104 -51
-67 -105 31 -46 94 -79 180 -93 40 -7 71 -16 71 -20 -1 -5 -38 -50 -83 -101
-73 -84 -87 -95 -144 -115 -105 -37 -107 -38 -107 -63 0 -25 28 -57 49 -57 7
0 137 34 290 75 230 62 290 75 353 75 60 0 78 4 91 18 30 33 21 69 -25 102
-23 17 -48 28 -57 26 -9 -3 -70 -8 -135 -12 -100 -6 -118 -5 -114 7 3 8 36 55
73 104 70 93 130 204 141 262 5 25 2 39 -11 53 -16 17 -32 20 -122 20 l-103 0
0 69 0 69 115 72 c63 39 138 93 165 118 l50 47 -21 33 c-23 35 -23 35 -94 18z
m-145 -537 c0 -5 -5 -41 -11 -80 l-12 -69 -33 0 c-39 0 -40 4 -17 62 27 70 73
125 73 87z"/>
<path d="M915 2046 l-18 -34 27 -32 c66 -80 71 -97 74 -310 5 -271 -13 -493
-60 -730 l-20 -104 28 -23 c36 -29 45 -29 72 0 17 18 22 36 22 78 0 30 -4 59
-9 64 -6 6 7 152 34 390 24 209 40 382 36 385 -5 3 -13 47 -20 99 -14 112 -41
180 -88 221 -43 38 -56 38 -78 -4z"/>
</g>
</svg>
