<?xml version="1.0" standalone="no"?>
<!DOCTYPE svg PUBLIC "-//W3C//DTD SVG 20010904//EN"
 "http://www.w3.org/TR/2001/REC-SVG-20010904/DTD/svg10.dtd">
<svg version="1.0" xmlns="http://www.w3.org/2000/svg"
 width="360.000000pt" height="360.000000pt" viewBox="0 0 360.000000 360.000000"
 preserveAspectRatio="xMidYMid meet">
<metadata>
Created by potrace 1.15, written by Peter Selinger 2001-2017
</metadata>
<g transform="translate(0.000000,360.000000) scale(0.100000,-0.100000)"
fill="#000000" stroke="none">
<path d="M1240 2736 c0 -8 13 -43 29 -79 26 -58 28 -68 18 -106 -9 -33 -8 -58
5 -122 20 -95 39 -129 72 -129 54 0 125 95 126 166 0 37 -14 51 -55 56 l-30 3
-3 75 c-3 71 -5 77 -39 113 -32 31 -44 37 -80 37 -30 0 -43 -4 -43 -14z"/>
<path d="M2005 2660 l-160 -71 -53 11 c-29 6 -65 22 -81 36 l-29 24 -16 -25
c-9 -13 -16 -28 -16 -33 0 -8 62 -64 121 -110 14 -10 52 2 235 74 l219 87 54
-11 c86 -18 154 -82 185 -175 11 -33 16 -85 16 -172 0 -80 4 -126 11 -131 8
-4 8 -8 1 -13 -8 -5 -8 -27 -2 -71 5 -36 10 -164 10 -285 0 -154 4 -225 12
-233 8 -8 8 -15 -2 -27 -10 -12 -11 -79 -6 -328 3 -171 9 -351 12 -399 6 -88
6 -88 -17 -88 -16 1 -66 37 -144 105 -66 58 -123 105 -127 105 -26 0 16 -103
75 -184 19 -26 74 -91 122 -142 134 -145 163 -131 195 96 8 55 8 98 -1 162 -9
64 -9 94 0 119 8 24 8 47 -1 91 -9 44 -9 64 -1 77 8 13 8 32 1 67 -8 36 -7 61
2 97 9 36 9 51 1 61 -8 9 -8 15 -2 18 7 2 3 199 -12 573 l-21 570 -46 59 c-33
43 -63 69 -110 95 -60 33 -72 36 -165 39 l-100 3 -160 -71z"/>
<path d="M1904 2207 c-22 -7 -128 -58 -235 -114 l-196 -103 12 -72 c8 -55 8
-131 -2 -313 -18 -326 -7 -375 83 -375 30 0 75 14 145 45 56 25 105 45 109 43
4 -2 35 -38 68 -80 34 -42 71 -82 82 -88 35 -19 83 -8 97 20 24 52 33 203 32
559 0 388 -1 391 -51 438 -19 18 -91 55 -100 52 -2 -1 -21 -6 -44 -12z m84
-179 c15 -107 15 -140 -2 -163 -13 -17 -15 -18 -55 -2 l-41 17 -100 -50 -100
-50 -45 22 c-50 24 -53 35 -26 93 38 85 229 214 317 215 l41 0 11 -82z m2
-356 c6 -37 10 -95 8 -127 l-3 -60 -56 -7 c-58 -7 -177 -48 -217 -74 -13 -8
-29 -14 -37 -12 -17 4 260 348 280 348 8 0 17 -24 25 -68z m-210 21 c0 -5 -9
-23 -20 -41 -24 -38 -65 -61 -81 -45 -17 17 48 93 78 93 13 0 23 -3 23 -7z"/>
<path d="M1017 2012 c-23 -25 -23 -26 23 -98 l40 -64 0 -118 c0 -90 -13 -209
-54 -498 l-55 -379 32 -32 c24 -26 39 -33 68 -33 21 0 40 4 44 9 3 6 -4 86
-16 180 l-21 170 25 93 c32 112 60 257 87 439 21 148 18 179 -23 240 -20 30
-113 109 -128 109 -3 0 -13 -8 -22 -18z"/>
</g>
</svg>
