<?xml version="1.0" standalone="no"?>
<!DOCTYPE svg PUBLIC "-//W3C//DTD SVG 20010904//EN"
 "http://www.w3.org/TR/2001/REC-SVG-20010904/DTD/svg10.dtd">
<svg version="1.0" xmlns="http://www.w3.org/2000/svg"
 width="360.000000pt" height="360.000000pt" viewBox="0 0 360.000000 360.000000"
 preserveAspectRatio="xMidYMid meet">
<metadata>
Created by potrace 1.15, written by Peter Selinger 2001-2017
</metadata>
<g transform="translate(0.000000,360.000000) scale(0.100000,-0.100000)"
fill="#000000" stroke="none">
<path d="M2033 2783 l-241 -76 -43 31 c-24 18 -55 32 -71 32 -25 0 -28 -3 -28
-32 1 -26 13 -46 60 -95 37 -39 68 -63 81 -63 12 0 126 39 253 86 l231 86 55
-13 c30 -7 68 -19 83 -28 34 -19 73 -96 87 -170 12 -64 12 -206 0 -276 -5 -33
3 -275 24 -705 26 -512 31 -676 23 -750 -11 -118 -12 -120 -37 -120 -15 0 -31
23 -70 100 -31 61 -56 100 -65 100 -62 0 4 -208 109 -347 39 -52 53 -63 77
-63 21 0 32 7 43 28 21 41 44 135 70 290 l22 137 -39 440 c-38 428 -39 442
-23 505 15 60 15 70 1 109 -11 33 -15 87 -15 218 0 159 2 183 25 258 19 61 23
89 16 102 -5 10 -13 35 -16 56 -7 45 -67 116 -129 152 -38 22 -213 86 -232 84
-5 0 -118 -34 -251 -76z"/>
<path d="M1147 2772 c-10 -10 -17 -21 -17 -24 0 -10 87 -155 140 -234 81 -119
116 -134 165 -70 29 38 55 97 55 125 0 11 -7 27 -16 35 -17 18 -79 22 -89 5
-4 -6 -46 31 -99 85 -50 53 -98 96 -107 96 -9 0 -23 -8 -32 -18z"/>
<path d="M1690 2495 c-7 -9 -17 -56 -21 -106 -10 -103 -32 -160 -80 -206 -38
-36 -105 -63 -155 -63 -39 0 -42 -10 -14 -55 l20 -32 90 21 c49 11 91 18 94
15 2 -2 6 -44 7 -92 l4 -88 -119 -61 c-109 -55 -122 -60 -152 -50 -28 8 -38 7
-59 -10 -33 -25 -32 -42 4 -67 46 -33 128 -28 243 13 l94 34 13 -29 c15 -34
11 -69 -9 -80 -8 -5 -51 -22 -95 -39 -98 -36 -155 -80 -155 -119 0 -34 78
-112 137 -138 l42 -18 -100 -84 c-129 -109 -125 -103 -102 -142 l18 -31 68 5
c70 6 117 26 117 51 0 9 22 16 73 21 116 11 367 53 425 70 68 20 74 38 31 81
l-34 34 -116 -11 c-188 -17 -184 -25 -63 126 119 150 126 170 71 223 -31 30
-38 32 -104 32 -79 0 -78 -2 -88 81 -5 41 -3 58 7 66 7 6 58 18 113 28 115 20
201 49 214 72 6 12 2 27 -13 50 l-21 34 -65 -6 c-36 -4 -102 -18 -148 -31 -45
-13 -85 -24 -89 -24 -6 0 4 141 13 175 3 12 45 45 100 79 52 33 98 64 101 68
10 18 -30 46 -111 78 -83 32 -84 32 -90 73 -4 23 -12 47 -18 54 -14 18 -63 16
-78 -2z m133 -917 c18 -28 -49 -138 -84 -138 -16 0 -16 5 8 58 14 31 29 67 34
80 10 25 27 25 42 0z"/>
<path d="M981 2097 c-20 -22 -20 -23 -1 -52 18 -28 20 -49 20 -281 0 -214 -3
-267 -20 -350 -29 -142 -58 -244 -80 -282 -18 -29 -19 -42 -11 -120 14 -127
31 -162 82 -162 62 0 92 92 110 340 9 119 9 156 -1 174 -10 20 -6 52 25 201
41 194 41 216 4 374 -33 142 -83 205 -128 158z"/>
</g>
</svg>
