<?xml version="1.0" standalone="no"?>
<!DOCTYPE svg PUBLIC "-//W3C//DTD SVG 20010904//EN"
 "http://www.w3.org/TR/2001/REC-SVG-20010904/DTD/svg10.dtd">
<svg version="1.0" xmlns="http://www.w3.org/2000/svg"
 width="360.000000pt" height="360.000000pt" viewBox="0 0 360.000000 360.000000"
 preserveAspectRatio="xMidYMid meet">
<metadata>
Created by potrace 1.15, written by Peter Selinger 2001-2017
</metadata>
<g transform="translate(0.000000,360.000000) scale(0.100000,-0.100000)"
fill="#000000" stroke="none">
<path d="M2223 2709 c-154 -18 -365 -72 -484 -123 -10 -5 -27 2 -47 18 -16 15
-37 26 -47 26 -21 0 -145 -43 -145 -50 0 -3 55 -29 123 -56 l122 -50 60 27
c106 49 261 110 316 124 51 14 55 13 74 -5 19 -19 19 -19 40 0 20 19 21 19
103 -14 46 -19 94 -44 108 -57 23 -22 24 -27 24 -160 0 -90 4 -140 11 -145 8
-5 8 -8 0 -14 -9 -5 -9 -19 -2 -51 6 -24 11 -117 11 -206 0 -107 4 -164 11
-169 7 -4 8 -9 1 -13 -6 -4 -6 -28 -1 -66 17 -130 29 -393 29 -667 0 -343 5
-335 -117 -203 -68 74 -82 85 -111 85 -30 0 -33 -2 -26 -22 18 -62 124 -226
232 -365 46 -59 50 -61 70 -48 28 20 50 91 67 221 17 130 19 191 5 199 -8 5
-8 11 -1 19 10 12 9 61 -3 161 -15 119 -46 902 -46 1164 0 255 -2 289 -17 311
-27 40 -53 58 -139 100 -85 42 -96 44 -221 29z"/>
<path d="M1140 2652 l-23 -19 46 -43 c26 -23 47 -47 47 -53 0 -25 81 -175 109
-201 l31 -30 45 44 c29 29 45 53 45 69 0 46 -94 148 -204 223 -48 33 -66 34
-96 10z"/>
<path d="M1507 2209 c-59 -100 -107 -189 -107 -199 0 -9 9 -25 20 -35 19 -17
21 -16 88 46 140 132 272 239 295 239 18 0 -1 -91 -33 -157 -21 -42 -60 -95
-107 -144 -66 -69 -73 -80 -63 -98 15 -28 28 -26 84 11 55 36 145 138 251 283
107 148 104 140 75 170 -22 23 -30 25 -116 25 -86 0 -97 -2 -160 -35 -37 -19
-69 -33 -71 -31 -2 2 -7 21 -10 42 -6 39 -19 64 -33 64 -3 0 -55 -82 -113
-181z"/>
<path d="M937 2102 c-25 -28 -21 -48 25 -121 l41 -66 -21 -244 c-15 -168 -18
-248 -11 -257 7 -8 7 -13 -1 -16 -6 -2 -14 -87 -21 -211 -13 -227 -5 -315 31
-375 25 -40 71 -45 95 -9 21 32 34 147 35 291 0 110 -2 122 -22 143 l-22 23
23 306 c13 168 21 326 17 350 -8 58 -38 116 -86 164 -45 45 -59 48 -83 22z"/>
<path d="M1921 1870 c-132 -55 -185 -89 -189 -123 -2 -19 2 -29 14 -34 29 -11
140 13 210 46 77 36 119 40 134 12 14 -27 13 -184 -1 -198 -8 -8 -16 -9 -29
-1 -17 11 -235 -3 -247 -16 -13 -13 10 -39 53 -58 43 -19 53 -19 120 -8 41 6
78 9 83 5 9 -5 8 -46 -5 -154 -4 -27 -14 -52 -29 -67 -22 -22 -32 -24 -130
-24 -104 0 -107 -1 -225 -50 -66 -27 -124 -50 -129 -50 -5 0 -27 24 -50 53
-50 65 -54 104 -13 113 57 13 68 17 99 40 42 32 76 88 68 114 -9 27 -19 26
-110 -14 -44 -19 -82 -33 -86 -30 -4 2 -15 25 -25 50 l-17 46 34 26 c19 14 62
54 97 88 71 72 79 104 37 144 -37 35 -142 41 -169 11 -18 -20 -18 -21 2 -54
l21 -33 -75 -82 -75 -82 45 -160 c37 -127 46 -175 46 -237 l0 -78 41 -29 40
-28 230 82 229 82 46 -51 c25 -28 54 -51 65 -51 10 0 33 13 51 29 32 28 35 38
99 328 62 278 65 300 52 333 -32 81 -119 150 -188 150 -16 0 -72 -18 -124 -40z"/>
</g>
</svg>
