<?xml version="1.0" standalone="no"?>
<!DOCTYPE svg PUBLIC "-//W3C//DTD SVG 20010904//EN"
 "http://www.w3.org/TR/2001/REC-SVG-20010904/DTD/svg10.dtd">
<svg version="1.0" xmlns="http://www.w3.org/2000/svg"
 width="360.000000pt" height="360.000000pt" viewBox="0 0 360.000000 360.000000"
 preserveAspectRatio="xMidYMid meet">
<metadata>
Created by potrace 1.15, written by Peter Selinger 2001-2017
</metadata>
<g transform="translate(0.000000,360.000000) scale(0.100000,-0.100000)"
fill="#000000" stroke="none">
<path d="M2115 2695 c-113 -21 -194 -44 -297 -86 -95 -39 -99 -40 -155 -29
-132 26 -178 -9 -73 -56 34 -15 69 -38 79 -51 11 -12 25 -23 33 -23 7 0 107
34 221 75 197 71 213 75 292 75 71 0 93 -4 138 -26 49 -24 56 -31 70 -78 36
-114 67 -400 87 -811 14 -291 25 -925 15 -925 -4 0 -54 43 -110 95 -57 52
-108 95 -114 95 -5 0 -15 -9 -21 -20 -20 -38 43 -148 181 -314 60 -74 75 -87
97 -84 40 5 69 67 89 187 16 98 15 124 -17 839 -28 611 -31 758 -23 862 l10
125 -26 28 c-37 40 -100 75 -194 108 -92 32 -165 36 -282 14z"/>
<path d="M1127 2683 c-15 -15 -5 -38 42 -92 40 -46 52 -70 71 -139 35 -131 82
-180 131 -136 39 35 14 159 -50 244 -65 87 -167 151 -194 123z"/>
<path d="M1855 2320 c-18 -20 -18 -21 4 -51 32 -43 15 -85 -101 -246 -32 -44
-58 -84 -58 -87 0 -3 18 -6 39 -6 36 0 48 8 125 81 97 92 186 216 186 259 0
41 -50 70 -122 70 -42 0 -59 -5 -73 -20z"/>
<path d="M1311 2196 c-31 -33 -21 -54 29 -62 23 -4 50 -14 62 -23 l20 -17 -57
-277 c-50 -237 -56 -281 -46 -301 10 -18 10 -43 1 -118 -23 -181 24 -415 88
-439 49 -19 64 17 87 206 30 254 83 387 179 449 48 31 100 36 92 9 -3 -10 -19
-78 -35 -152 -25 -113 -27 -138 -18 -166 14 -38 72 -125 85 -125 4 0 24 32 43
72 66 138 170 248 236 248 43 0 25 -38 -87 -178 -109 -135 -124 -165 -101
-201 22 -35 321 67 329 113 2 10 -9 32 -27 50 l-31 32 45 134 c42 126 44 135
29 158 -25 39 -80 56 -129 42 -75 -23 -162 -67 -204 -105 -22 -20 -41 -34 -41
-30 0 24 83 270 93 277 7 4 69 40 139 80 70 40 128 79 128 85 0 7 -10 19 -23
27 -32 21 -152 48 -200 44 -38 -3 -42 -7 -67 -54 -53 -103 -125 -170 -273
-255 l-62 -36 -53 15 c-75 21 -82 12 -69 -93 8 -70 7 -88 -10 -145 -33 -104
-43 -89 -43 59 0 159 24 294 84 473 36 106 41 131 32 150 -13 25 -94 62 -161
72 -35 6 -44 4 -64 -18z"/>
<path d="M935 2104 c-17 -26 -17 -27 24 -68 l41 -42 0 -179 c0 -213 -14 -441
-36 -580 -32 -208 -27 -312 17 -369 25 -32 46 -33 80 -3 l26 22 -10 179 c-9
153 -7 233 12 553 l23 374 -27 40 c-22 34 -105 99 -126 99 -4 0 -14 -12 -24
-26z"/>
</g>
</svg>
