<?xml version="1.0" standalone="no"?>
<!DOCTYPE svg PUBLIC "-//W3C//DTD SVG 20010904//EN"
 "http://www.w3.org/TR/2001/REC-SVG-20010904/DTD/svg10.dtd">
<svg version="1.0" xmlns="http://www.w3.org/2000/svg"
 width="360.000000pt" height="360.000000pt" viewBox="0 0 360.000000 360.000000"
 preserveAspectRatio="xMidYMid meet">
<metadata>
Created by potrace 1.15, written by Peter Selinger 2001-2017
</metadata>
<g transform="translate(0.000000,360.000000) scale(0.100000,-0.100000)"
fill="#000000" stroke="none">
<path d="M2216 2801 c-12 -14 -16 -32 -14 -67 3 -45 5 -49 34 -55 17 -3 36 -9
42 -13 15 -9 16 -420 2 -481 -6 -25 -5 -44 0 -49 34 -34 -27 -103 -164 -185
-84 -51 -427 -221 -474 -236 l-24 -7 23 -24 c12 -13 32 -24 44 -24 12 0 147
56 299 125 152 69 279 125 282 125 2 0 4 -60 4 -133 0 -93 4 -137 12 -145 9
-9 10 -15 2 -20 -11 -7 -9 -68 28 -834 l4 -68 -39 0 c-33 0 -49 9 -100 53
-166 143 -281 325 -302 475 -7 50 -6 52 17 52 63 1 157 76 195 156 16 33 16
37 -2 71 -49 90 -134 139 -192 111 -53 -25 -84 -110 -104 -279 l-11 -97 60
-118 c33 -66 65 -135 71 -154 22 -69 157 -228 337 -395 111 -104 115 -107 134
-90 40 36 44 102 31 453 -12 335 -26 523 -41 579 -4 18 -4 33 0 35 4 2 4 39 0
83 -5 44 -9 127 -9 185 -1 120 11 152 76 194 69 45 135 57 248 46 55 -5 130
-10 166 -10 57 0 69 3 89 25 l23 25 -30 38 -31 37 -83 -1 c-63 -1 -127 -11
-257 -44 -95 -24 -175 -40 -178 -37 -4 4 -1 128 5 276 14 312 12 321 -72 399
-51 46 -75 52 -101 23z m-279 -1359 c-9 -86 -13 -92 -58 -92 -36 0 -39 2 -39
28 0 41 54 122 81 122 21 0 22 -3 16 -58z"/>
<path d="M1102 2475 c-76 -59 -281 -187 -394 -245 -38 -19 -68 -39 -68 -44 0
-13 107 -1 165 19 28 9 83 32 124 51 67 31 76 33 91 19 15 -14 16 -22 4 -83
-18 -89 -17 -214 1 -282 8 -30 12 -56 10 -59 -3 -2 -56 0 -118 5 -163 14 -214
-4 -188 -69 23 -55 50 -159 65 -246 13 -75 13 -87 -1 -107 -23 -36 -40 -362
-26 -499 12 -118 29 -155 69 -155 21 0 30 10 54 63 30 63 98 293 141 470 15
64 28 97 37 97 7 0 28 -11 46 -25 18 -14 40 -25 49 -25 17 0 112 105 168 186
18 27 43 73 55 104 24 57 44 71 71 49 13 -11 14 -27 9 -89 -4 -41 -11 -158
-16 -260 -5 -102 -12 -194 -15 -205 -5 -16 3 -25 39 -45 l45 -24 26 24 c27 26
34 76 13 109 -9 15 -7 24 11 49 24 35 24 77 -4 167 -17 57 -19 135 -5 218 8
53 7 62 -13 93 -16 25 -29 34 -49 34 -20 0 -28 5 -28 18 0 9 63 114 140 231
131 202 140 218 140 264 0 48 0 48 -47 70 -99 44 -173 21 -173 -55 0 -30 4
-38 18 -38 25 0 42 -20 42 -50 0 -51 -195 -374 -367 -609 -94 -130 -125 -162
-138 -149 -4 3 30 93 74 200 45 107 81 199 81 206 0 16 -32 16 -48 0 -7 -7
-12 -20 -12 -29 0 -19 -36 -67 -44 -58 -14 14 -56 246 -56 313 0 133 40 272
107 369 26 38 26 38 7 58 -20 19 -20 19 -92 -36z m-169 -719 c34 -14 87 -69
111 -114 13 -25 9 -44 -63 -272 -75 -241 -77 -245 -104 -248 l-29 -4 6 59 c3
32 8 178 12 326 7 292 4 280 67 253z"/>
</g>
</svg>
