<?xml version="1.0" standalone="no"?>
<!DOCTYPE svg PUBLIC "-//W3C//DTD SVG 20010904//EN"
 "http://www.w3.org/TR/2001/REC-SVG-20010904/DTD/svg10.dtd">
<svg version="1.0" xmlns="http://www.w3.org/2000/svg"
 width="360.000000pt" height="360.000000pt" viewBox="0 0 360.000000 360.000000"
 preserveAspectRatio="xMidYMid meet">
<metadata>
Created by potrace 1.15, written by Peter Selinger 2001-2017
</metadata>
<g transform="translate(0.000000,360.000000) scale(0.100000,-0.100000)"
fill="#000000" stroke="none">
<path d="M1979 2641 c-54 -58 -162 -130 -283 -190 -80 -40 -101 -61 -76 -76
18 -11 335 102 446 158 79 40 99 59 85 84 -12 24 -64 59 -101 67 -21 5 -33 -3
-71 -43z"/>
<path d="M1145 2524 c-63 -55 -255 -181 -313 -205 -28 -12 -52 -25 -52 -29 0
-4 9 -15 21 -26 18 -16 37 -19 113 -19 50 0 106 3 124 7 l32 8 0 -103 c1 -163
34 -299 92 -378 9 -14 8 -22 -6 -43 -19 -30 -43 -41 -107 -51 l-44 -6 -50 108
c-54 117 -123 203 -163 203 -35 0 -36 -24 -1 -80 43 -70 80 -189 86 -281 4
-54 -1 -112 -18 -208 -19 -110 -21 -136 -10 -153 10 -17 9 -54 -10 -210 -22
-187 -22 -191 -4 -291 35 -202 85 -277 142 -214 18 19 21 39 26 154 4 113 8
139 28 179 l24 47 384 139 c211 76 386 136 389 134 4 -5 -34 -216 -40 -221 -2
-1 -41 -22 -87 -46 -47 -24 -99 -59 -117 -76 -26 -26 -42 -33 -71 -33 -76 0
-116 -46 -74 -84 20 -18 24 -17 170 38 187 70 396 124 510 132 l86 6 142 -54
142 -55 21 22 c12 13 20 35 20 57 0 30 -7 42 -36 66 -61 50 -126 63 -347 69
l-197 6 5 31 c3 17 9 60 15 95 7 48 16 72 37 93 76 79 364 123 646 99 l138
-12 19 23 c11 13 19 30 17 38 -3 22 -63 48 -161 69 l-87 19 -222 -34 c-122
-18 -225 -34 -229 -34 -24 0 4 49 103 181 l111 149 52 0 c28 -1 69 -4 92 -9
38 -7 41 -6 53 21 12 26 11 32 -10 54 -20 21 -31 24 -91 24 l-68 0 0 51 c0 49
-3 55 -61 120 -34 38 -65 69 -70 69 -21 0 -32 -48 -21 -92 9 -35 8 -56 -4
-103 -9 -33 -22 -67 -30 -76 -20 -22 -89 -39 -159 -39 l-55 0 2 177 3 178 118
34 c97 28 122 33 138 23 16 -10 24 -7 54 19 35 31 45 65 25 85 -7 7 -59 3
-162 -11 l-152 -22 -74 34 c-77 36 -114 38 -126 7 -3 -9 3 -28 14 -44 11 -15
20 -32 20 -37 -1 -4 -55 -45 -121 -91 -86 -59 -138 -88 -177 -98 -80 -21 -112
-55 -79 -82 10 -9 63 2 205 42 105 29 194 51 197 48 3 -3 5 -71 5 -151 0 -119
-3 -152 -18 -180 -26 -52 -64 -75 -124 -76 l-52 0 -12 65 c-14 79 -37 137 -66
167 -28 30 -41 29 -58 -3 -13 -23 -12 -30 8 -64 19 -34 22 -54 22 -149 l0
-109 -57 -18 c-31 -10 -68 -28 -82 -40 l-26 -22 22 -24 c22 -23 26 -24 83 -14
60 10 60 10 94 -23 25 -24 41 -32 61 -29 33 4 42 18 50 81 10 74 81 136 123
109 15 -10 31 -71 32 -119 0 -45 -59 -92 -195 -158 -141 -68 -551 -225 -587
-225 -4 0 -8 9 -8 20 0 14 -7 20 -23 20 -20 0 -26 -10 -43 -62 -17 -55 -23
-63 -45 -63 -24 0 -24 0 -27 120 -4 141 12 300 33 353 13 29 13 41 4 58 -8 15
-8 31 -2 51 9 27 12 28 94 34 150 11 261 57 267 112 3 20 -9 44 -44 90 -89
117 -143 281 -109 330 10 14 11 25 4 39 -5 10 -6 18 -1 18 5 0 12 24 15 53 3
28 21 102 41 163 41 128 42 135 18 157 -28 26 -63 20 -107 -19z m993 -880 c9
-7 -54 -97 -93 -133 -64 -59 -75 -56 -75 27 0 78 13 103 68 131 39 20 38 20
100 -25z"/>
</g>
</svg>
