<?xml version="1.0" standalone="no"?>
<!DOCTYPE svg PUBLIC "-//W3C//DTD SVG 20010904//EN"
 "http://www.w3.org/TR/2001/REC-SVG-20010904/DTD/svg10.dtd">
<svg version="1.0" xmlns="http://www.w3.org/2000/svg"
 width="360.000000pt" height="360.000000pt" viewBox="0 0 360.000000 360.000000"
 preserveAspectRatio="xMidYMid meet">
<metadata>
Created by potrace 1.15, written by Peter Selinger 2001-2017
</metadata>
<g transform="translate(0.000000,360.000000) scale(0.100000,-0.100000)"
fill="#000000" stroke="none">
<path d="M1045 2439 c-121 -77 -227 -144 -235 -149 -12 -7 -12 -12 5 -30 18
-20 27 -22 110 -18 82 3 97 7 158 41 37 20 70 37 72 37 3 0 5 -82 5 -182 1
-101 7 -226 14 -278 8 -52 12 -96 11 -98 -8 -9 -74 35 -100 67 -63 78 -158
170 -186 181 -23 10 -32 10 -44 0 -30 -25 -14 -75 39 -125 l32 -30 -12 -395
c-7 -217 -17 -412 -22 -432 -6 -24 -6 -40 1 -47 7 -7 6 -29 -3 -71 -17 -78 -8
-218 17 -268 15 -32 23 -37 56 -40 21 -2 45 2 52 8 30 25 81 232 120 488 13
86 15 116 6 125 -20 20 -45 -6 -53 -54 -5 -30 -16 -51 -35 -66 -15 -12 -29
-21 -30 -19 -2 2 1 111 7 242 5 131 10 267 10 302 0 73 0 73 120 42 99 -26
131 -25 158 3 31 33 28 63 -17 149 -51 99 -57 142 -36 270 32 189 88 345 130
362 24 9 18 44 -17 87 -27 34 -37 39 -72 39 -35 0 -71 -20 -261 -141z"/>
<path d="M1920 2442 c-283 -93 -297 -97 -349 -89 -42 7 -57 6 -68 -5 -12 -12
-10 -21 13 -63 40 -70 54 -142 61 -305 5 -129 -1 -253 -23 -432 -5 -38 -3 -48
9 -48 8 0 20 -7 27 -15 20 -24 47 -18 97 20 35 26 56 35 86 35 l40 0 -6 -40
c-12 -93 -82 -166 -198 -208 l-61 -22 -65 56 c-65 55 -66 55 -85 36 -15 -15
-17 -24 -10 -38 6 -11 20 -99 32 -196 21 -178 50 -319 71 -344 14 -17 50 -18
71 -2 15 12 14 27 -11 176 l-28 163 91 54 c60 36 103 55 124 55 l32 0 0 -178
c0 -161 2 -181 18 -195 32 -29 64 -21 97 26 59 83 177 218 199 229 17 7 38 7
72 -1 46 -10 50 -9 72 15 12 14 22 35 22 48 0 12 -20 78 -45 146 -25 68 -42
127 -38 131 26 26 374 78 427 65 21 -5 29 -18 46 -72 26 -86 25 -113 -10 -274
-37 -166 -82 -313 -122 -402 -28 -62 -34 -68 -61 -68 -17 0 -52 14 -79 31 -77
50 -127 112 -185 227 -1 2 -13 -4 -27 -13 -39 -26 -33 -61 25 -146 63 -92 116
-148 195 -205 52 -37 69 -44 108 -44 42 0 48 3 70 38 41 65 83 154 114 242 58
165 122 474 103 493 -7 7 -4 18 9 35 15 19 20 40 20 89 0 73 -13 91 -105 144
-48 28 -55 29 -182 29 l-133 0 -232 -65 c-127 -36 -236 -65 -241 -65 -9 0 -1
118 10 146 2 6 22 14 43 17 98 13 202 100 284 237 55 93 135 290 168 412 l23
87 -35 36 c-34 36 -157 116 -176 114 -5 0 -142 -44 -304 -97z m310 -25 c0 -6
14 -26 32 -44 l31 -32 -37 -118 c-84 -260 -183 -403 -282 -403 -26 0 -26 1
-20 42 9 52 46 127 90 182 l35 42 -20 31 c-11 17 -31 34 -44 37 -31 8 -55 54
-62 120 -5 50 -4 54 28 81 46 39 107 64 176 73 62 9 73 7 73 -11z m-373 -202
c-10 -108 -52 -159 -141 -171 l-46 -7 0 101 0 101 43 11 c23 6 53 15 67 20 14
5 38 9 54 9 l29 1 -6 -65z m-27 -250 c0 -21 -102 -125 -123 -125 -11 0 -17 8
-17 24 0 18 16 36 62 70 67 50 78 54 78 31z m-27 -275 c-14 -13 -73 -23 -73
-12 0 6 17 25 38 43 l37 33 3 -28 c2 -16 0 -32 -5 -36z m271 -361 l9 -56 -98
-94 c-53 -52 -101 -95 -106 -97 -11 -4 -12 178 -1 193 4 6 33 34 65 63 48 45
62 53 90 50 31 -3 32 -5 41 -59z"/>
</g>
</svg>
