<?xml version="1.0" standalone="no"?>
<!DOCTYPE svg PUBLIC "-//W3C//DTD SVG 20010904//EN"
 "http://www.w3.org/TR/2001/REC-SVG-20010904/DTD/svg10.dtd">
<svg version="1.0" xmlns="http://www.w3.org/2000/svg"
 width="360.000000pt" height="360.000000pt" viewBox="0 0 360.000000 360.000000"
 preserveAspectRatio="xMidYMid meet">
<metadata>
Created by potrace 1.15, written by Peter Selinger 2001-2017
</metadata>
<g transform="translate(0.000000,360.000000) scale(0.100000,-0.100000)"
fill="#000000" stroke="none">
<path d="M1577 2742 l-27 -29 21 -19 c56 -51 -26 -219 -209 -428 -53 -60 -65
-99 -40 -124 9 -9 7 -17 -10 -35 -36 -38 -29 -57 22 -57 24 0 67 5 97 10 52
10 54 10 86 -22 18 -17 33 -41 33 -53 0 -35 -325 -432 -498 -608 -118 -120
-127 -126 -156 -98 -12 12 -27 21 -33 21 -6 0 -26 -61 -44 -135 -31 -124 -35
-135 -56 -135 -13 0 -23 5 -23 11 0 46 63 664 71 702 6 26 16 47 23 47 7 0 52
-16 100 -35 l88 -36 64 36 c35 20 64 39 64 43 0 4 -24 68 -54 143 -51 127 -54
137 -45 184 5 28 16 67 24 89 19 47 84 143 119 175 39 36 36 87 -7 129 -28 28
-40 32 -84 32 -48 0 -56 -4 -110 -51 -109 -96 -252 -180 -330 -195 -30 -6 -33
-10 -33 -40 0 -33 1 -34 38 -34 32 0 126 24 250 64 22 7 22 6 22 -84 0 -51 9
-148 21 -217 21 -121 21 -125 3 -138 -29 -22 -48 -18 -127 21 -74 38 -170 76
-220 88 -48 11 -35 -32 28 -94 l55 -54 0 -96 c0 -52 -16 -284 -35 -514 -36
-442 -36 -495 1 -607 19 -60 43 -81 85 -77 l32 3 48 285 c25 157 50 293 54
302 3 9 19 21 34 26 15 6 103 76 194 156 91 80 168 146 171 146 2 0 10 -26 16
-57 11 -51 10 -64 -10 -129 -13 -42 -20 -82 -17 -96 7 -25 75 -78 99 -78 7 0
72 34 143 75 72 41 133 75 138 75 12 0 8 -43 -8 -91 -24 -69 -66 -114 -120
-128 -59 -15 -150 -55 -160 -71 -4 -7 9 -29 35 -55 34 -34 50 -44 86 -48 94
-10 113 -77 42 -144 -56 -51 -127 -99 -179 -121 l-41 -18 37 -33 c45 -39 46
-39 230 13 185 52 277 66 439 66 111 0 156 -4 210 -20 l70 -20 27 33 c16 17
28 37 29 43 0 22 -40 62 -83 83 -51 25 -151 27 -386 10 -79 -5 -146 -8 -148
-5 -3 3 72 96 166 208 158 188 171 206 171 243 0 30 -7 46 -31 71 l-31 32 -99
-33 -99 -34 0 47 c0 61 31 123 87 172 38 33 53 40 87 40 58 0 114 18 126 39 8
15 2 27 -28 61 l-37 42 -104 -41 c-58 -23 -106 -41 -107 -41 -1 0 -5 21 -8 48
-4 26 -9 63 -12 83 l-5 36 63 5 c35 3 74 12 86 19 30 19 30 75 -1 111 l-22 27
-50 -17 c-27 -9 -130 -56 -227 -104 -98 -48 -178 -83 -178 -77 0 6 44 84 98
174 91 154 99 164 127 165 45 0 159 -58 254 -131 118 -90 128 -96 263 -150
188 -77 432 -141 670 -177 52 -8 59 -7 78 13 l21 22 -21 36 c-19 32 -28 37
-98 52 -317 68 -589 157 -787 255 -145 72 -295 174 -295 200 0 9 54 94 120
190 66 96 120 178 120 183 0 15 -84 127 -96 127 -6 0 -56 -9 -109 -20 -53 -11
-99 -20 -101 -20 -2 0 -4 17 -4 38 0 40 -28 110 -51 129 -32 27 -63 25 -92 -5z
m280 -275 c-3 -8 -58 -87 -123 -175 l-119 -162 -45 1 c-38 0 -49 5 -69 30
l-23 30 83 82 c132 129 318 251 296 194z m-167 -872 c16 -19 -2 -113 -30 -160
-22 -36 -193 -205 -207 -205 -20 0 -32 26 -42 88 -15 92 -52 142 -106 142 -24
0 -18 13 25 55 l39 38 58 -9 c55 -9 62 -7 143 28 97 43 103 44 120 23z m187
-512 c6 -16 -87 -113 -108 -113 -27 0 -24 11 16 63 47 62 82 81 92 50z"/>
</g>
</svg>
