<?xml version="1.0" standalone="no"?>
<!DOCTYPE svg PUBLIC "-//W3C//DTD SVG 20010904//EN"
 "http://www.w3.org/TR/2001/REC-SVG-20010904/DTD/svg10.dtd">
<svg version="1.0" xmlns="http://www.w3.org/2000/svg"
 width="360.000000pt" height="360.000000pt" viewBox="0 0 360.000000 360.000000"
 preserveAspectRatio="xMidYMid meet">
<metadata>
Created by potrace 1.15, written by Peter Selinger 2001-2017
</metadata>
<g transform="translate(0.000000,360.000000) scale(0.100000,-0.100000)"
fill="#000000" stroke="none">
<path d="M1800 2961 c0 -19 85 -98 129 -120 60 -31 138 -46 157 -30 24 19 45
66 38 84 -13 34 -99 59 -243 71 -59 5 -81 4 -81 -5z"/>
<path d="M2120 2681 c-203 -83 -359 -138 -446 -156 -55 -11 -72 -11 -104 0
-34 12 -40 12 -53 -3 -31 -36 -45 -115 -32 -182 5 -27 -5 -77 -44 -210 -185
-644 -415 -1159 -611 -1373 l-53 -58 -23 22 c-23 22 -24 22 -44 4 -33 -30 -25
-66 23 -113 23 -23 48 -42 54 -42 20 0 126 123 191 223 152 232 348 691 518
1210 38 116 52 135 80 107 7 -7 33 -7 80 0 107 15 124 14 124 -11 0 -12 -79
-134 -175 -272 l-175 -251 22 -23 c12 -13 25 -23 29 -23 5 0 92 74 195 165
103 91 193 165 199 165 10 0 8 -16 -7 -62 -48 -155 -118 -579 -98 -603 6 -7 7
-16 2 -19 -10 -6 -27 -220 -25 -316 1 -36 1 -92 0 -125 -4 -159 0 -232 17
-282 17 -50 20 -53 51 -53 19 0 37 5 40 11 4 6 2 54 -4 107 -10 77 -9 106 1
141 l13 43 222 78 223 78 112 -9 c91 -8 271 -39 433 -76 25 -5 55 41 55 85 0
41 -44 76 -127 102 -56 17 -93 20 -262 20 -194 0 -198 0 -219 23 -12 13 -22
30 -22 38 1 8 54 82 120 164 l119 150 -32 33 c-26 27 -38 32 -77 32 -25 0 -51
-5 -58 -12 -9 -9 -13 -7 -18 5 -4 12 20 45 80 112 76 84 85 98 75 116 -12 24
-59 46 -118 55 -51 8 -55 14 -38 56 17 41 84 102 142 130 l45 22 -22 23 c-18
20 -31 23 -88 23 l-67 0 -9 65 -10 64 26 6 c28 6 100 60 100 75 0 5 -15 18
-34 29 -84 53 -238 3 -468 -150 -56 -37 -103 -67 -104 -66 -6 7 29 155 42 174
36 56 146 108 300 143 l51 11 5 62 c8 96 33 133 142 215 62 47 96 79 96 91 0
12 -18 31 -50 50 -76 47 -112 43 -310 -38z m120 -66 c0 -20 -156 -176 -253
-253 -137 -109 -276 -172 -377 -172 -49 0 -51 1 -44 23 10 27 10 54 -1 135
l-8 62 41 0 c102 0 298 62 488 155 139 68 154 73 154 50z m-3 -647 c29 -27 29
-51 -1 -103 -29 -48 -74 -82 -168 -125 -113 -51 -134 -40 -89 47 44 87 87 141
138 173 56 36 88 38 120 8z m-11 -294 l11 -35 -61 -51 c-108 -90 -212 -148
-267 -148 -16 0 -19 8 -19 44 0 39 5 48 44 84 24 22 59 48 77 58 31 16 187 81
199 83 3 1 10 -15 16 -35z m-16 -211 c0 -4 -62 -70 -137 -145 l-137 -137 29
-31 c24 -25 37 -30 74 -30 29 0 57 8 76 20 17 11 42 20 58 20 24 0 27 -4 27
-31 0 -40 -43 -95 -123 -155 -59 -44 -205 -124 -227 -124 -14 0 -13 164 1 267
9 60 9 86 1 96 -8 9 -8 27 1 66 l12 53 81 27 c44 15 114 46 155 69 70 39 109
51 109 35z"/>
</g>
</svg>
