<?xml version="1.0" standalone="no"?>
<!DOCTYPE svg PUBLIC "-//W3C//DTD SVG 20010904//EN"
 "http://www.w3.org/TR/2001/REC-SVG-20010904/DTD/svg10.dtd">
<svg version="1.0" xmlns="http://www.w3.org/2000/svg"
 width="360.000000pt" height="360.000000pt" viewBox="0 0 360.000000 360.000000"
 preserveAspectRatio="xMidYMid meet">
<metadata>
Created by potrace 1.15, written by Peter Selinger 2001-2017
</metadata>
<g transform="translate(0.000000,360.000000) scale(0.100000,-0.100000)"
fill="#000000" stroke="none">
<path d="M2030 2881 c0 -96 -23 -168 -112 -345 -56 -113 -58 -119 -42 -137 36
-40 63 -27 233 121 141 123 181 153 181 136 0 -3 -16 -33 -36 -67 -51 -87
-139 -273 -163 -345 -11 -33 -25 -91 -31 -129 -6 -38 -13 -72 -16 -76 -9 -15
-287 -79 -339 -79 l-25 0 0 188 0 187 -37 64 c-21 35 -50 73 -65 84 l-27 20
-20 -24 c-52 -63 -65 -119 -21 -91 37 23 58 15 69 -25 38 -147 43 -197 29
-278 -9 -56 -11 -91 -4 -118 9 -36 8 -40 -32 -80 l-41 -41 -26 24 c-21 19 -25
33 -25 77 0 47 -2 53 -20 53 -26 0 -100 -37 -100 -50 0 -5 9 -32 20 -60 11
-28 20 -68 20 -89 0 -36 -6 -44 -77 -105 -69 -58 -121 -83 -124 -58 -22 177
-24 212 -11 315 l14 107 -37 50 c-45 61 -152 158 -183 166 -13 4 -27 3 -32 -2
-6 -6 19 -65 60 -145 70 -140 92 -205 71 -218 -8 -5 -6 -46 10 -155 l21 -147
-21 -23 c-20 -21 -21 -28 -11 -65 7 -26 7 -47 1 -58 -15 -29 -64 -71 -94 -82
-51 -20 -57 -16 -57 42 0 111 -41 225 -107 297 -37 42 -51 48 -70 29 -9 -9 2
-39 42 -120 30 -59 50 -109 44 -111 -7 -2 -7 -13 1 -32 8 -23 6 -61 -11 -173
-21 -138 -21 -144 -4 -163 39 -43 63 -28 178 110 96 116 131 149 326 305 233
187 259 200 279 148 6 -16 13 -58 15 -95 3 -39 12 -79 21 -93 15 -23 22 -25
101 -25 74 0 85 2 85 18 0 9 -23 37 -51 61 -60 51 -99 126 -99 188 0 36 5 46
36 72 83 68 203 88 263 43 36 -26 37 -65 10 -261 -22 -162 -22 -169 -12 -678
11 -514 11 -515 34 -539 12 -13 31 -24 41 -24 17 0 18 11 18 148 0 81 -5 199
-11 262 -7 82 -7 116 0 118 14 5 14 65 1 78 -8 8 66 37 241 98 138 48 253 86
254 84 1 -2 12 -22 24 -45 l21 -42 68 5 c147 13 195 43 162 103 -26 50 -195
78 -347 58 -89 -12 -103 -12 -103 1 0 8 41 58 91 110 96 100 169 202 169 234
0 11 -5 28 -10 39 -9 17 -22 19 -100 19 l-90 0 0 42 c0 37 9 54 75 139 41 54
75 104 75 112 0 16 -54 40 -112 51 -33 6 -38 11 -38 34 0 78 46 152 124 202
80 51 70 84 -17 62 -50 -13 -74 -1 -115 58 -26 37 -54 51 -66 31 -3 -5 4 -32
15 -60 19 -44 20 -55 9 -81 -15 -37 -88 -104 -161 -147 -94 -56 -93 -56 -87
18 7 82 37 165 85 237 53 77 126 207 174 305 42 88 53 162 24 173 -23 9 -110
-37 -230 -121 -59 -41 -110 -73 -115 -70 -4 2 2 48 13 100 l21 96 -20 62 c-16
49 -25 63 -42 65 -21 3 -22 0 -22 -77z m316 -858 c39 -52 -5 -118 -141 -208
-109 -73 -115 -72 -115 11 0 64 2 68 37 100 33 31 176 113 197 114 5 0 15 -8
22 -17z m14 -253 c0 -6 -40 -71 -90 -145 -49 -74 -90 -141 -90 -149 0 -9 26
-28 57 -43 96 -47 95 -57 -17 -196 -59 -74 -152 -149 -166 -135 -3 4 -10 50
-16 104 -9 84 -7 127 11 289 12 105 21 193 21 196 0 4 17 3 38 -2 64 -15 79
-10 139 41 38 32 67 49 86 50 15 0 27 -5 27 -10z"/>
</g>
</svg>
