<?xml version="1.0" standalone="no"?>
<!DOCTYPE svg PUBLIC "-//W3C//DTD SVG 20010904//EN"
 "http://www.w3.org/TR/2001/REC-SVG-20010904/DTD/svg10.dtd">
<svg version="1.0" xmlns="http://www.w3.org/2000/svg"
 width="360.000000pt" height="360.000000pt" viewBox="0 0 360.000000 360.000000"
 preserveAspectRatio="xMidYMid meet">
<metadata>
Created by potrace 1.15, written by Peter Selinger 2001-2017
</metadata>
<g transform="translate(0.000000,360.000000) scale(0.100000,-0.100000)"
fill="#000000" stroke="none">
<path d="M1680 3039 c-118 -38 -227 -69 -242 -69 -41 0 -38 -35 4 -49 26 -9
58 -5 192 25 175 39 312 79 321 94 9 15 -27 70 -45 69 -8 0 -112 -32 -230 -70z"/>
<path d="M1624 2843 c2 -10 13 -44 22 -76 17 -56 17 -59 -2 -94 -35 -67 -153
-135 -349 -203 -65 -22 -135 -40 -156 -40 -56 0 -52 -38 6 -60 26 -10 200 -40
232 -40 8 0 8 -14 -3 -52 -11 -43 -11 -56 -1 -72 10 -14 10 -31 3 -65 -7 -39
-6 -52 9 -74 30 -46 68 -34 152 46 24 23 46 38 49 34 4 -4 2 -32 -5 -63 -15
-79 -15 -84 14 -84 85 0 -46 -108 -292 -242 l-61 -33 -46 23 c-26 12 -53 22
-61 22 -28 0 -15 -38 28 -86 l43 -47 55 17 c69 23 154 74 252 153 48 39 87 63
102 63 22 0 25 -4 25 -40 0 -28 -4 -40 -14 -40 -17 0 -126 -140 -126 -162 0
-12 54 6 238 78 261 104 281 107 326 54 14 -17 29 -52 34 -82 6 -29 15 -216
21 -416 10 -346 12 -365 32 -390 20 -26 20 -27 2 -30 -16 -2 -21 -17 -31 -107
-12 -111 -31 -171 -57 -181 -32 -13 -192 117 -282 229 -109 135 -175 293 -189
454 l-7 75 94 94 c51 52 99 94 106 94 9 0 13 -16 13 -51 0 -46 -5 -59 -50
-119 -43 -58 -50 -74 -50 -113 0 -39 4 -49 29 -66 24 -17 44 -21 113 -21 95 0
148 12 172 39 16 17 16 21 -5 55 -11 20 -26 36 -32 36 -7 0 -47 -12 -90 -26
-62 -21 -81 -23 -92 -14 -8 7 -15 17 -15 22 0 6 36 70 80 143 44 73 80 142 80
153 0 40 -31 63 -95 69 l-60 5 -97 -81 c-54 -45 -107 -81 -117 -81 -15 0 -22
9 -27 38 -4 20 -11 45 -16 55 -9 18 -58 24 -58 7 0 -5 -29 -189 -65 -408 -35
-219 -62 -408 -58 -420 8 -34 49 -39 79 -11 22 21 24 30 24 114 0 50 9 153 20
230 11 77 20 143 20 148 0 4 6 7 14 7 23 0 46 -41 46 -80 0 -86 50 -197 147
-330 72 -97 389 -412 412 -408 9 2 33 38 55 82 40 82 57 158 37 170 -8 5 -8
13 0 29 22 39 -9 970 -34 1062 -25 91 -60 140 -108 150 -34 8 -36 17 -9 61 15
24 34 37 73 50 104 33 147 56 153 79 10 38 1 58 -30 66 -15 4 -36 15 -46 24
-16 15 -30 16 -92 9 -65 -8 -73 -11 -76 -31 -3 -21 1 -23 37 -23 34 0 41 -3
41 -20 0 -12 -7 -20 -16 -20 -8 0 -87 -52 -174 -115 -86 -63 -164 -115 -173
-115 -13 0 -13 6 -5 33 8 26 6 49 -12 112 -12 44 -24 85 -27 91 -3 8 18 23 52
39 76 36 192 131 260 213 73 87 73 117 1 147 -35 15 -37 18 -31 48 18 82 99
135 256 167 106 22 210 26 258 9 31 -11 57 -51 46 -69 -3 -4 -33 -11 -67 -15
-89 -9 -98 -13 -98 -40 0 -24 3 -25 90 -40 19 -4 66 -1 103 5 51 8 83 8 127
-2 69 -14 90 -4 90 44 0 38 -89 133 -163 174 -50 28 -57 29 -173 27 -152 -2
-269 -16 -459 -55 -82 -17 -161 -32 -175 -34 -21 -3 -37 11 -93 76 -43 51 -75
80 -88 80 -15 0 -19 -5 -15 -17z m281 -292 c-16 -61 -16 -61 10 -98 15 -23 25
-52 25 -73 0 -31 -11 -46 -94 -129 -61 -61 -98 -91 -106 -86 -16 10 -6 169 16
265 17 74 55 144 86 161 24 13 71 28 76 24 2 -2 -4 -30 -13 -64z m-265 -114
l0 -83 -85 -97 c-48 -53 -90 -97 -96 -97 -6 0 -8 56 -7 147 l3 147 80 32 c44
18 86 33 93 34 9 0 12 -23 12 -83z"/>
<path d="M896 2533 c-3 -4 -6 -67 -6 -141 0 -120 -2 -138 -22 -174 -17 -30
-20 -43 -11 -56 7 -13 7 -21 -3 -30 -15 -14 -44 -104 -44 -137 0 -21 47 -75
66 -75 13 0 37 42 79 140 32 75 34 86 24 118 -9 27 -9 56 1 123 15 101 9 162
-17 197 -19 26 -57 45 -67 35z"/>
</g>
</svg>
