<?xml version="1.0" standalone="no"?>
<!DOCTYPE svg PUBLIC "-//W3C//DTD SVG 20010904//EN"
 "http://www.w3.org/TR/2001/REC-SVG-20010904/DTD/svg10.dtd">
<svg version="1.0" xmlns="http://www.w3.org/2000/svg"
 width="360.000000pt" height="360.000000pt" viewBox="0 0 360.000000 360.000000"
 preserveAspectRatio="xMidYMid meet">
<metadata>
Created by potrace 1.15, written by Peter Selinger 2001-2017
</metadata>
<g transform="translate(0.000000,360.000000) scale(0.100000,-0.100000)"
fill="#000000" stroke="none">
<path d="M2275 2558 c-249 -103 -275 -109 -315 -73 -15 14 -19 13 -33 -3 -16
-17 -15 -20 18 -52 l34 -33 88 6 c48 4 110 13 138 21 27 9 51 13 53 11 3 -3 0
-30 -7 -61 -8 -42 -8 -61 0 -70 8 -10 3 -25 -24 -61 -40 -55 -267 -546 -267
-578 0 -11 4 -25 8 -30 5 -6 -6 -106 -24 -225 l-33 -215 21 -22 c16 -17 33
-23 64 -23 l43 0 6 48 c20 140 63 297 112 405 30 63 40 77 59 77 22 0 23 -4
28 -102 3 -57 6 -116 7 -133 1 -50 -108 -362 -175 -500 -38 -77 -81 -148 -105
-174 -28 -31 -41 -53 -41 -73 0 -26 3 -29 23 -23 88 27 197 193 312 474 l39
93 35 -6 c20 -3 75 -9 124 -13 l87 -6 39 41 c48 50 90 155 124 312 47 211 51
262 34 382 -9 58 -23 123 -31 142 -18 43 -36 45 -121 16 -117 -40 -230 -117
-373 -254 -45 -43 -85 -76 -89 -73 -3 4 9 58 27 119 101 346 217 560 324 599
l36 13 0 73 c0 40 -1 73 -2 72 -2 0 -111 -46 -243 -101z m365 -563 c9 -11 10
-19 3 -26 -7 -7 -7 -24 1 -55 26 -104 -15 -358 -78 -482 -40 -77 -84 -132
-107 -132 -12 0 -47 16 -79 35 l-57 35 23 116 c18 88 21 120 13 130 -9 11 -8
18 1 29 13 15 11 51 -6 181 l-6 50 108 66 c113 69 160 82 184 53z"/>
<path d="M1365 2354 c-115 -35 -222 -64 -237 -64 -27 0 -28 -2 -28 -46 l0 -46
123 5 c67 4 137 9 156 13 29 6 33 4 28 -9 -3 -9 -123 -163 -267 -341 -143
-179 -260 -328 -260 -331 0 -26 59 28 242 220 117 124 219 225 227 225 11 0
13 -24 8 -137 -2 -76 -8 -145 -11 -153 -4 -9 -40 -35 -82 -60 -42 -25 -92 -58
-112 -75 -21 -17 -59 -47 -87 -65 -67 -46 -145 -120 -156 -147 -7 -20 -16 -23
-59 -23 -49 0 -52 2 -66 35 -18 44 -38 37 -60 -21 l-17 -45 33 -34 c33 -34 36
-35 110 -35 l76 0 189 166 c152 135 191 165 204 157 10 -7 15 -21 13 -39 -2
-16 -7 -99 -11 -184 -5 -85 -12 -181 -16 -213 -5 -38 -4 -62 4 -71 9 -10 6
-45 -10 -142 -26 -149 -22 -189 22 -234 37 -36 58 -38 87 -7 22 23 22 25 22
478 0 267 4 469 10 489 8 30 21 42 83 78 40 23 112 55 159 72 122 43 171 65
187 84 13 15 10 21 -22 53 -31 31 -38 35 -52 23 -12 -10 -19 -10 -27 -2 -23
23 -47 11 -114 -56 -68 -67 -115 -97 -172 -108 l-30 -6 -5 138 c-3 77 -9 153
-12 169 -6 28 4 41 123 170 l130 140 -21 23 c-31 33 -67 28 -302 -44z"/>
<path d="M2550 1074 c0 -31 15 -57 96 -165 91 -122 96 -131 105 -196 10 -77
33 -146 54 -163 11 -9 22 -7 50 10 31 19 35 26 35 63 0 63 -26 160 -61 230
-38 75 -151 190 -226 230 l-53 28 0 -37z"/>
</g>
</svg>
