<?xml version="1.0" standalone="no"?>
<!DOCTYPE svg PUBLIC "-//W3C//DTD SVG 20010904//EN"
 "http://www.w3.org/TR/2001/REC-SVG-20010904/DTD/svg10.dtd">
<svg version="1.0" xmlns="http://www.w3.org/2000/svg"
 width="360.000000pt" height="360.000000pt" viewBox="0 0 360.000000 360.000000"
 preserveAspectRatio="xMidYMid meet">
<metadata>
Created by potrace 1.15, written by Peter Selinger 2001-2017
</metadata>
<g transform="translate(0.000000,360.000000) scale(0.100000,-0.100000)"
fill="#000000" stroke="none">
<path d="M1482 2727 c-15 -16 -22 -36 -22 -65 0 -40 2 -42 29 -42 17 0 32 -4
35 -8 3 -5 12 -91 21 -193 l17 -184 -28 -258 c-23 -205 -26 -261 -17 -277 10
-15 9 -26 -3 -55 -8 -19 -23 -73 -34 -119 -40 -169 -51 -284 -57 -594 l-6
-303 23 -24 c26 -28 68 -33 76 -10 4 8 -4 69 -16 135 -17 93 -20 124 -10 134
8 11 8 25 1 53 -8 30 -7 58 5 119 24 126 71 425 94 594 50 378 60 608 39 885
l-11 140 -51 47 c-29 26 -55 48 -58 48 -3 0 -15 -10 -27 -23z"/>
<path d="M2188 2557 c-141 -72 -334 -181 -352 -198 -6 -5 0 -19 15 -35 21 -23
29 -25 74 -20 32 3 86 24 149 56 54 28 101 49 103 46 2 -2 -59 -129 -135 -282
-210 -419 -322 -692 -322 -781 0 -34 29 -72 56 -73 7 0 65 65 129 145 65 80
121 145 126 145 16 0 9 -125 -11 -201 -35 -135 -124 -326 -245 -528 -74 -122
-82 -161 -36 -161 34 0 72 42 135 148 41 67 175 344 221 456 16 37 35 70 42
73 8 3 24 -4 37 -16 17 -16 35 -21 80 -21 l58 0 75 72 c193 187 307 384 328
565 7 60 6 64 -22 92 -53 53 -184 51 -292 -3 -77 -39 -203 -138 -319 -251 -96
-92 -132 -119 -132 -100 0 3 16 50 36 103 69 184 207 428 372 657 76 105 86
139 54 168 -33 30 -75 20 -224 -56z m416 -584 c22 -81 19 -101 -30 -185 -98
-167 -230 -329 -296 -364 -35 -18 -92 -18 -107 0 -9 11 -9 47 0 150 9 107 9
139 -1 151 -10 12 -3 23 42 65 74 70 219 167 276 184 67 21 109 20 116 -1z"/>
<path d="M1190 2117 c0 -7 10 -42 22 -77 20 -59 20 -71 10 -145 -7 -45 -12
-182 -12 -305 l0 -224 27 -28 c31 -33 44 -35 65 -10 14 15 14 28 3 102 -10 68
-10 133 0 325 12 227 11 242 -6 276 -33 67 -109 126 -109 86z"/>
<path d="M850 1997 c-9 -47 -7 -70 18 -188 16 -74 29 -163 30 -199 1 -37 -16
-162 -39 -294 l-40 -228 22 -24 c32 -34 56 -31 67 9 5 17 33 130 62 249 48
193 52 220 40 242 -10 20 -11 28 0 40 10 13 9 31 -5 93 -68 317 -127 432 -155
300z"/>
<path d="M2370 1113 c0 -17 21 -47 61 -91 134 -146 228 -307 240 -410 4 -38
13 -70 24 -82 21 -23 73 -27 81 -6 3 8 -4 54 -16 102 -73 314 -182 473 -345
503 -43 8 -45 8 -45 -16z"/>
</g>
</svg>
