<?xml version="1.0" standalone="no"?>
<!DOCTYPE svg PUBLIC "-//W3C//DTD SVG 20010904//EN"
 "http://www.w3.org/TR/2001/REC-SVG-20010904/DTD/svg10.dtd">
<svg version="1.0" xmlns="http://www.w3.org/2000/svg"
 width="360.000000pt" height="360.000000pt" viewBox="0 0 360.000000 360.000000"
 preserveAspectRatio="xMidYMid meet">
<metadata>
Created by potrace 1.15, written by Peter Selinger 2001-2017
</metadata>
<g transform="translate(0.000000,360.000000) scale(0.100000,-0.100000)"
fill="#000000" stroke="none">
<path d="M1286 2541 c-4 -6 2 -28 13 -47 12 -19 21 -43 21 -52 0 -25 -113
-170 -239 -307 -61 -66 -111 -124 -111 -130 0 -11 73 -65 88 -65 6 0 42 18 81
41 l70 40 45 -23 46 -23 -155 -233 c-129 -193 -155 -238 -155 -268 l0 -37 53
7 c68 9 125 35 174 80 45 40 55 43 73 21 10 -13 11 -33 1 -100 -29 -206 -153
-456 -345 -694 -72 -90 -77 -113 -25 -119 26 -3 62 36 181 198 187 255 309
551 296 720 -3 40 -7 47 -43 67 -22 13 -52 23 -67 23 -63 0 -62 4 52 176 61
90 110 168 110 173 0 5 -13 12 -30 16 -16 3 -40 15 -54 26 -38 30 -108 59
-143 59 -18 0 -33 2 -33 5 0 3 63 81 140 173 124 149 140 171 140 204 0 32 -5
40 -32 54 -40 21 -143 31 -152 15z"/>
<path d="M2090 2365 c-319 -126 -372 -145 -422 -145 -51 0 -58 -2 -58 -20 0
-13 14 -27 41 -41 35 -17 51 -20 103 -14 78 9 175 39 250 77 l59 30 -8 -29
c-3 -15 -83 -183 -176 -372 -93 -189 -169 -354 -169 -366 0 -11 5 -26 12 -33
9 -9 9 -15 0 -24 -7 -7 -12 -43 -12 -90 0 -72 2 -80 31 -113 27 -30 37 -36 67
-33 l35 3 23 87 c28 107 60 175 90 195 49 31 54 1 23 -127 -26 -112 -97 -257
-198 -408 -81 -121 -90 -145 -55 -159 11 -4 31 10 65 48 105 116 199 266 230
368 7 23 19 45 26 48 7 3 52 -4 100 -15 56 -13 93 -17 104 -11 63 33 170 207
223 360 35 105 86 316 86 360 0 60 -30 79 -128 79 l-81 0 -228 -206 c-125
-113 -229 -201 -231 -195 -6 19 59 195 108 290 66 129 158 248 279 363 l100
95 76 12 c88 13 143 33 151 56 5 11 -5 26 -27 45 -60 52 -81 47 -489 -115z
m360 -449 c17 -21 4 -113 -31 -218 -35 -108 -60 -157 -138 -275 -68 -104 -89
-114 -146 -69 l-29 23 34 168 c26 132 31 171 22 186 -10 16 -3 25 61 77 137
112 199 141 227 108z"/>
<path d="M2375 1163 c12 -53 49 -118 120 -213 68 -90 73 -99 89 -185 19 -100
58 -195 79 -195 7 0 24 11 36 24 22 23 22 25 7 84 -9 33 -16 78 -16 100 0 54
-33 157 -69 213 -40 64 -114 133 -182 169 -31 16 -60 30 -64 30 -4 0 -4 -12 0
-27z"/>
</g>
</svg>
