<?xml version="1.0" standalone="no"?>
<!DOCTYPE svg PUBLIC "-//W3C//DTD SVG 20010904//EN"
 "http://www.w3.org/TR/2001/REC-SVG-20010904/DTD/svg10.dtd">
<svg version="1.0" xmlns="http://www.w3.org/2000/svg"
 width="360.000000pt" height="360.000000pt" viewBox="0 0 360.000000 360.000000"
 preserveAspectRatio="xMidYMid meet">
<metadata>
Created by potrace 1.15, written by Peter Selinger 2001-2017
</metadata>
<g transform="translate(0.000000,360.000000) scale(0.100000,-0.100000)"
fill="#000000" stroke="none">
<path d="M2240 2426 l-225 -113 -64 10 c-61 10 -65 9 -83 -12 -24 -30 -23 -63
3 -87 16 -15 40 -20 104 -22 90 -4 156 10 258 55 31 14 59 24 61 22 3 -2 -35
-83 -83 -180 -73 -146 -228 -487 -321 -706 l-22 -53 28 -34 c16 -19 32 -34 36
-33 3 1 47 55 97 120 51 64 96 117 100 117 4 0 16 -9 26 -20 15 -17 17 -31 12
-88 -10 -123 -105 -341 -255 -588 -34 -56 -62 -107 -62 -113 0 -6 10 -11 23
-11 26 0 107 90 175 193 50 77 129 240 165 337 15 41 28 64 37 62 7 -2 41 -5
74 -8 74 -6 105 10 166 88 74 93 196 366 255 573 l17 59 -27 23 c-14 13 -37
26 -51 29 -58 15 -215 -64 -392 -196 -52 -39 -100 -70 -108 -70 -43 0 146 341
327 592 36 49 49 77 49 101 0 41 -26 67 -66 66 -16 0 -127 -49 -254 -113z
m386 -510 c6 -26 -32 -162 -73 -260 -61 -146 -174 -276 -239 -276 -41 0 -41 1
-14 115 12 52 20 121 20 174 l0 89 38 34 c53 48 123 95 184 123 66 31 76 31
84 1z"/>
<path d="M1505 2419 c-77 -62 -222 -145 -352 -200 -117 -50 -117 -50 -178 -40
-88 16 -124 14 -132 -5 -9 -23 30 -50 106 -74 105 -33 177 -23 310 44 56 29
81 28 81 -2 0 -11 -49 -109 -109 -218 -332 -608 -511 -965 -519 -1031 l-5 -44
33 3 c29 3 36 11 87 103 159 289 292 521 349 608 56 86 67 97 93 97 26 0 30
-5 40 -46 11 -41 6 -73 -64 -400 -102 -484 -101 -519 22 -494 52 11 65 19 125
81 198 202 347 482 439 826 17 63 28 117 24 121 -16 16 -53 -49 -74 -128 -28
-110 -121 -300 -206 -420 -70 -99 -182 -234 -234 -284 -28 -27 -32 -28 -61
-16 -17 7 -29 18 -27 24 2 6 32 118 67 249 50 187 67 237 80 237 9 0 37 13 62
29 61 39 145 166 213 324 79 182 82 195 56 246 -21 39 -24 42 -53 36 -46 -10
-142 -55 -232 -109 -43 -26 -80 -45 -82 -43 -2 2 3 28 12 58 26 85 101 229
176 333 37 52 68 101 68 109 0 12 -50 67 -61 67 -2 0 -26 -18 -54 -41z m95
-532 c0 -30 -26 -106 -81 -235 l-43 -102 -38 0 c-36 0 -38 2 -38 33 0 17 -14
61 -30 96 l-31 64 43 44 c39 39 177 122 206 123 6 0 12 -11 12 -23z"/>
<path d="M2566 1125 c-19 -29 -21 -24 54 -130 50 -71 61 -95 93 -213 60 -217
63 -220 137 -182 42 21 46 29 31 58 -5 9 -14 53 -20 97 -14 103 -61 202 -131
278 -45 49 -128 117 -143 117 -3 0 -12 -11 -21 -25z"/>
</g>
</svg>
