<?xml version="1.0" standalone="no"?>
<!DOCTYPE svg PUBLIC "-//W3C//DTD SVG 20010904//EN"
 "http://www.w3.org/TR/2001/REC-SVG-20010904/DTD/svg10.dtd">
<svg version="1.0" xmlns="http://www.w3.org/2000/svg"
 width="360.000000pt" height="360.000000pt" viewBox="0 0 360.000000 360.000000"
 preserveAspectRatio="xMidYMid meet">
<metadata>
Created by potrace 1.15, written by Peter Selinger 2001-2017
</metadata>
<g transform="translate(0.000000,360.000000) scale(0.100000,-0.100000)"
fill="#000000" stroke="none">
<path d="M1310 2663 c0 -20 8 -33 29 -45 56 -31 60 -52 48 -261 -10 -185 -10
-188 13 -236 12 -27 20 -54 16 -59 -10 -17 -385 -222 -406 -222 -22 0 -50 25
-50 46 0 8 -10 14 -23 14 -18 0 -26 -8 -34 -35 -14 -45 -3 -87 28 -102 14 -7
62 -13 113 -13 l89 0 -6 -127 c-14 -278 -123 -634 -282 -918 -39 -71 -45 -74
-107 -50 -30 12 -22 -36 13 -83 37 -50 66 -54 120 -18 105 72 229 371 344 831
26 105 50 192 52 195 2 2 13 -1 23 -8 32 -20 62 -14 146 27 105 51 304 169
304 181 0 14 -40 37 -87 50 -24 6 -43 15 -43 20 0 5 59 77 130 160 119 139
145 180 121 194 -4 3 -82 -8 -172 -24 -90 -16 -174 -30 -186 -30 -23 0 -23 2
-23 119 0 83 4 122 13 129 6 5 51 15 99 21 144 19 198 45 198 97 0 43 -19 45
-140 14 -148 -38 -150 -38 -150 3 -1 59 -34 115 -82 137 -24 11 -58 20 -75 20
-29 0 -33 -3 -33 -27z m276 -671 c-52 -83 -261 -322 -282 -322 -19 0 -44 40
-44 70 0 101 80 190 240 269 116 56 131 54 86 -17z"/>
<path d="M2211 2524 c-81 -57 -144 -94 -159 -94 -14 0 -49 14 -79 31 -52 30
-55 30 -74 14 -30 -28 -23 -46 34 -103 49 -49 56 -52 103 -52 28 0 78 9 113
21 34 12 64 19 67 16 3 -3 -20 -61 -52 -128 -114 -249 -206 -506 -270 -757
-50 -194 -45 -227 31 -220 37 3 37 3 70 94 59 165 117 254 168 254 18 0 19 -5
14 -43 -11 -76 -76 -258 -137 -383 -60 -124 -152 -258 -215 -313 -19 -17 -35
-36 -35 -42 0 -16 89 -5 131 16 78 41 174 175 211 295 36 117 92 191 158 205
62 14 281 279 355 430 59 120 69 185 40 257 l-22 53 -42 -3 c-109 -7 -250 -93
-417 -254 -61 -60 -116 -108 -122 -108 -5 0 20 80 58 178 60 158 78 194 174
342 59 91 128 206 154 257 46 90 46 92 28 112 -16 17 -30 21 -85 20 l-66 0
-134 -95z m366 -616 c-8 -63 -86 -208 -178 -331 -65 -88 -84 -108 -102 -105
-20 3 -22 8 -20 60 4 117 55 266 117 336 35 40 117 82 160 82 28 0 28 -1 23
-42z"/>
<path d="M2502 1238 c-7 -10 29 -69 134 -223 121 -175 144 -215 144 -246 0
-41 32 -89 59 -89 10 0 28 11 40 24 21 22 23 33 20 98 -7 136 -100 265 -279
387 -94 65 -102 68 -118 49z"/>
</g>
</svg>
