<?xml version="1.0" standalone="no"?>
<!DOCTYPE svg PUBLIC "-//W3C//DTD SVG 20010904//EN"
 "http://www.w3.org/TR/2001/REC-SVG-20010904/DTD/svg10.dtd">
<svg version="1.0" xmlns="http://www.w3.org/2000/svg"
 width="360.000000pt" height="360.000000pt" viewBox="0 0 360.000000 360.000000"
 preserveAspectRatio="xMidYMid meet">
<metadata>
Created by potrace 1.15, written by Peter Selinger 2001-2017
</metadata>
<g transform="translate(0.000000,360.000000) scale(0.100000,-0.100000)"
fill="#000000" stroke="none">
<path d="M2475 2631 c-16 -3 -78 -32 -136 -64 -159 -86 -334 -167 -390 -180
-27 -6 -49 -14 -49 -18 0 -3 9 -14 19 -23 17 -16 30 -17 123 -7 100 10 192 34
204 52 6 10 47 12 56 3 4 -3 -38 -92 -92 -197 -110 -213 -153 -314 -178 -417
l-17 -69 -64 41 -63 42 -92 -33 c-131 -48 -155 -55 -161 -49 -4 3 39 70 95
149 55 78 100 153 100 165 0 30 -47 68 -103 84 -46 12 -46 12 -125 -34 -43
-25 -82 -46 -85 -46 -4 0 -7 30 -7 68 0 90 14 111 160 229 66 53 120 101 120
105 0 12 -42 78 -50 78 -4 0 -51 -21 -105 -46 -53 -25 -98 -44 -99 -42 -46
100 -116 178 -161 178 -31 0 -31 -1 0 -128 20 -83 23 -106 13 -122 -26 -41
-172 -100 -250 -100 -35 0 -38 -2 -38 -29 0 -28 1 -28 73 -35 39 -4 91 -9 114
-12 l42 -6 -77 -97 c-93 -116 -144 -193 -177 -263 -22 -48 -25 -66 -25 -186 0
-127 1 -135 22 -153 15 -12 39 -18 69 -19 l47 0 47 84 c26 47 58 95 71 107
l24 22 0 -50 0 -51 -97 -84 c-124 -107 -209 -172 -307 -233 -78 -49 -189 -95
-228 -95 -18 0 -20 -4 -14 -32 28 -141 138 -108 435 130 100 80 120 92 153 92
21 0 38 -3 38 -6 0 -3 -11 -50 -25 -104 -58 -228 -125 -367 -243 -508 -24 -29
-42 -56 -38 -59 3 -3 25 -1 48 6 67 20 154 115 210 231 56 113 112 276 132
383 18 93 35 127 95 187 57 57 140 106 256 153 72 29 93 34 114 25 14 -5 52
-7 83 -3 l58 6 -6 -28 c-3 -15 -17 -108 -33 -205 l-28 -178 23 -21 c15 -14 32
-19 54 -17 30 3 34 8 60 78 51 141 112 240 147 240 25 0 13 -83 -28 -205 -61
-182 -143 -323 -264 -454 -59 -63 -65 -79 -37 -104 40 -36 65 -23 149 81 140
170 224 307 239 390 9 44 38 42 129 -8 40 -22 81 -40 92 -40 67 0 159 215 249
581 l38 156 -31 49 c-29 47 -32 49 -76 48 -96 -1 -253 -102 -444 -288 l-113
-109 0 34 c0 19 9 70 19 114 60 249 198 503 394 726 l84 96 -19 26 c-20 28
-52 33 -123 18z m-1105 -619 c0 -9 -4 -32 -10 -50 -6 -24 -6 -39 2 -52 10 -16
3 -32 -44 -103 -82 -123 -114 -157 -149 -157 l-29 0 1 68 c1 78 12 114 56 176
30 42 143 136 164 136 5 0 9 -8 9 -18z m310 -5 c0 -47 -60 -144 -136 -221 -42
-42 -78 -75 -80 -74 -1 2 5 29 13 61 15 52 15 58 1 74 -15 17 -13 22 30 70 94
104 172 145 172 90z m937 -199 c-7 -104 -53 -300 -99 -419 -27 -73 -32 -79
-58 -79 -54 0 -129 91 -101 124 6 7 16 37 21 67 9 46 8 65 -12 132 l-22 78 34
27 c19 15 71 57 115 94 48 40 90 67 104 67 l24 1 -6 -92z"/>
<path d="M1537 1308 c-15 -22 -13 -26 48 -88 53 -55 66 -75 84 -135 37 -126
80 -166 126 -115 23 25 15 90 -19 157 -31 63 -180 203 -214 203 -5 0 -16 -10
-25 -22z"/>
<path d="M2427 1059 c20 -35 77 -87 138 -126 24 -16 95 -96 180 -205 87 -111
146 -177 155 -175 11 2 15 17 15 62 -1 145 -136 311 -363 444 -38 22 -66 31
-98 31 l-45 0 18 -31z"/>
</g>
</svg>
