<?xml version="1.0" standalone="no"?>
<!DOCTYPE svg PUBLIC "-//W3C//DTD SVG 20010904//EN"
 "http://www.w3.org/TR/2001/REC-SVG-20010904/DTD/svg10.dtd">
<svg version="1.0" xmlns="http://www.w3.org/2000/svg"
 width="360.000000pt" height="360.000000pt" viewBox="0 0 360.000000 360.000000"
 preserveAspectRatio="xMidYMid meet">
<metadata>
Created by potrace 1.15, written by Peter Selinger 2001-2017
</metadata>
<g transform="translate(0.000000,360.000000) scale(0.100000,-0.100000)"
fill="#000000" stroke="none">
<path d="M2420 2538 c-162 -82 -295 -138 -329 -138 -11 0 -55 25 -98 56 -117
85 -141 94 -260 94 -94 0 -120 -5 -325 -60 -123 -34 -229 -63 -237 -66 -12 -4
-7 -13 45 -83 2 -2 25 2 52 9 39 9 54 9 69 -1 15 -9 37 -9 89 -1 38 5 73 6 77
2 5 -4 7 -29 5 -56 l-3 -49 -107 -75 c-59 -41 -108 -80 -108 -86 0 -28 23 -31
93 -13 87 22 97 23 97 5 0 -21 -94 -160 -139 -205 -63 -63 -72 -58 -104 57
-52 184 -120 292 -182 292 -42 0 -33 -54 27 -173 42 -84 59 -134 95 -286 24
-102 45 -187 48 -189 15 -15 199 83 220 118 3 5 13 10 21 10 10 0 14 -12 14
-45 0 -42 -3 -47 -60 -95 -102 -84 -204 -157 -475 -339 -143 -95 -261 -181
-263 -190 -2 -10 6 -25 18 -36 18 -16 25 -17 63 -6 57 17 161 79 251 151 l74
59 21 -23 c19 -21 21 -34 21 -173 l0 -150 37 -48 c34 -45 37 -47 50 -29 16 22
30 73 39 138 4 25 12 46 18 46 6 0 52 -41 101 -90 99 -100 121 -108 158 -59
29 40 36 96 37 282 0 133 3 167 13 167 8 0 66 -47 129 -105 92 -83 122 -105
145 -105 34 0 63 27 63 58 0 47 -125 131 -287 193 l-63 24 0 91 0 91 58 26
c31 14 124 58 206 97 146 69 148 71 131 90 -29 32 -86 24 -245 -34 l-145 -52
-3 58 c-4 72 5 88 63 119 41 22 59 46 196 262 83 130 153 237 156 237 3 0 21
-10 40 -21 48 -30 124 -22 200 21 30 17 58 29 61 26 3 -3 -38 -97 -91 -208
-58 -122 -97 -215 -96 -233 0 -16 -4 -120 -10 -230 -14 -283 -14 -458 1 -473
7 -7 26 -12 43 -12 41 0 65 40 65 108 0 42 50 340 66 395 3 9 11 17 18 17 8 0
19 -46 33 -132 l22 -132 -51 -125 c-95 -239 -230 -493 -333 -628 -7 -9 -4 -19
11 -34 l21 -20 43 48 c101 113 214 300 286 470 30 72 43 93 59 93 26 0 167
-146 231 -240 94 -137 171 -282 177 -332 8 -61 32 -117 52 -124 10 -4 26 3 42
17 23 22 25 29 20 92 -8 115 -56 198 -198 340 l-118 118 44 60 c24 33 53 85
65 116 47 126 52 167 57 450 l5 271 -34 37 c-29 32 -42 38 -86 43 -43 4 -62 0
-109 -23 -59 -29 -186 -143 -238 -214 -32 -43 -54 -51 -75 -26 -10 12 -7 31
20 103 85 227 207 443 298 523 77 68 168 99 200 67 9 -9 18 -6 37 12 l25 24
-32 33 c-31 32 -34 33 -107 31 -74 -1 -81 -3 -231 -80z m-571 -87 c14 -25 -3
-124 -34 -207 -26 -69 -109 -203 -167 -268 l-34 -39 -22 35 c-29 47 -28 64 10
138 l32 62 -22 38 c-18 32 -22 54 -22 126 0 76 3 91 22 111 20 21 30 23 124
23 91 0 105 -2 113 -19z m773 -508 c16 -15 18 -35 18 -232 0 -276 -19 -372
-82 -431 -77 -71 -126 45 -135 315 -4 123 -9 156 -24 181 -11 17 -19 40 -19
51 0 26 42 65 110 102 62 34 105 39 132 14z m-1180 -116 c-23 -23 -45 -38 -49
-34 -4 4 13 28 38 53 24 24 46 39 48 33 2 -6 -15 -30 -37 -52z m31 -398 c-7
-7 -8 -23 -2 -47 5 -20 9 -135 9 -254 0 -237 -1 -239 -54 -197 -51 40 -206
300 -206 346 0 29 38 60 142 114 89 46 135 62 111 38z"/>
</g>
</svg>
