<?xml version="1.0" standalone="no"?>
<!DOCTYPE svg PUBLIC "-//W3C//DTD SVG 20010904//EN"
 "http://www.w3.org/TR/2001/REC-SVG-20010904/DTD/svg10.dtd">
<svg version="1.0" xmlns="http://www.w3.org/2000/svg"
 width="360.000000pt" height="360.000000pt" viewBox="0 0 360.000000 360.000000"
 preserveAspectRatio="xMidYMid meet">
<metadata>
Created by potrace 1.15, written by Peter Selinger 2001-2017
</metadata>
<g transform="translate(0.000000,360.000000) scale(0.100000,-0.100000)"
fill="#000000" stroke="none">
<path d="M1280 2723 c-62 -9 -70 -13 -70 -36 0 -19 8 -25 46 -35 53 -14 134
-65 182 -115 l33 -34 -38 -30 c-175 -138 -399 -234 -583 -249 l-80 -7 0 -29 0
-29 58 8 c31 4 71 7 87 6 147 -9 134 -11 245 46 58 29 154 83 215 119 109 65
110 66 233 84 140 20 172 34 172 77 0 48 -15 50 -130 25 -91 -21 -106 -22
-119 -10 -10 11 -11 19 -4 28 15 18 -8 82 -42 118 -53 56 -121 77 -205 63z"/>
<path d="M2385 2576 c-116 -42 -171 -71 -204 -106 -20 -22 -46 -32 -117 -49
-50 -11 -106 -21 -123 -21 -76 0 -96 -46 -33 -76 41 -19 105 -23 200 -11 76
10 78 3 25 -80 -54 -85 -157 -304 -193 -413 -41 -122 -86 -309 -103 -430 l-14
-95 43 -45 c24 -24 45 -42 47 -40 2 3 43 56 91 118 49 61 92 114 96 117 10 6
-26 -166 -52 -245 -46 -143 -129 -285 -234 -407 -85 -96 -67 -130 41 -79 104
49 194 190 285 443 l33 93 98 0 98 0 53 53 c56 55 110 148 154 264 25 67 94
321 94 348 0 7 -24 32 -52 55 -49 39 -56 42 -99 37 -113 -13 -279 -124 -426
-282 -48 -52 -88 -93 -90 -91 -2 1 10 45 26 97 16 52 32 115 35 140 9 64 67
180 134 269 60 81 214 239 327 338 l70 61 -34 35 c-43 44 -60 45 -176 2z m157
-752 c-10 -205 -97 -390 -218 -464 l-35 -22 -38 25 -37 25 13 133 c7 74 18
151 24 172 11 40 62 103 111 139 33 23 157 69 173 64 6 -2 9 -32 7 -72z"/>
<path d="M1321 2134 c-118 -67 -194 -104 -213 -104 -61 0 -85 -31 -50 -63 30
-27 55 -21 190 47 227 113 326 143 363 110 23 -20 24 -54 5 -146 -21 -97 -62
-173 -136 -252 -75 -79 -148 -132 -269 -192 -144 -71 -130 -78 -170 88 -40
170 -78 298 -94 315 -7 7 -17 9 -26 4 -11 -7 -11 -16 -2 -42 17 -53 48 -251
62 -396 14 -150 9 -144 100 -117 72 22 168 71 267 137 46 31 97 57 119 60 116
19 209 160 279 424 33 122 33 151 4 175 -29 23 -108 46 -185 52 l-60 5 -184
-105z"/>
<path d="M1274 1929 l-150 -59 8 -75 c12 -97 29 -155 50 -169 14 -8 30 -4 74
17 31 16 72 40 91 54 45 35 101 113 125 175 l19 51 -33 33 -33 33 -151 -60z
m86 -64 c0 -13 -61 -125 -68 -125 -4 0 -24 5 -44 11 -37 10 -38 12 -38 54 0
47 -4 44 65 58 30 7 85 8 85 2z"/>
<path d="M1545 1536 c-83 -27 -422 -217 -441 -248 -4 -5 1 -17 10 -26 13 -14
20 -14 36 -4 28 17 53 15 105 -10 51 -25 51 -26 8 -116 -14 -31 -35 -58 -49
-64 -23 -11 -32 -4 -135 105 -94 99 -115 117 -141 117 -25 0 -29 -3 -25 -19 6
-25 229 -351 240 -351 4 0 35 18 67 40 32 22 70 40 82 40 66 0 199 100 297
224 97 123 131 181 131 223 0 43 -13 59 -67 87 -38 19 -63 19 -118 2z m35
-112 c0 -27 -62 -134 -105 -182 -38 -42 -43 -44 -70 -35 -35 11 -65 62 -65
110 0 28 7 35 78 77 58 34 88 45 120 46 32 0 42 -4 42 -16z"/>
<path d="M2390 1122 c0 -10 12 -29 26 -43 14 -13 60 -64 102 -114 138 -164
201 -282 174 -326 -11 -17 -8 -26 18 -64 17 -25 36 -45 41 -45 6 0 26 12 45
26 34 26 34 27 34 103 0 75 -1 79 -49 156 -66 107 -135 181 -239 260 -66 49
-95 65 -119 65 -25 0 -33 -4 -33 -18z"/>
<path d="M1514 961 c-105 -36 -207 -92 -372 -204 l-132 -90 -63 11 c-55 9 -66
8 -94 -10 -30 -18 -33 -24 -33 -72 0 -46 3 -53 29 -69 50 -30 73 -22 218 77
252 171 452 282 593 330 66 22 69 24 52 40 -28 25 -105 20 -198 -13z"/>
</g>
</svg>
