<?xml version="1.0" standalone="no"?>
<!DOCTYPE svg PUBLIC "-//W3C//DTD SVG 20010904//EN"
 "http://www.w3.org/TR/2001/REC-SVG-20010904/DTD/svg10.dtd">
<svg version="1.0" xmlns="http://www.w3.org/2000/svg"
 width="360.000000pt" height="360.000000pt" viewBox="0 0 360.000000 360.000000"
 preserveAspectRatio="xMidYMid meet">
<metadata>
Created by potrace 1.15, written by Peter Selinger 2001-2017
</metadata>
<g transform="translate(0.000000,360.000000) scale(0.100000,-0.100000)"
fill="#000000" stroke="none">
<path d="M1855 2449 c-256 -158 -261 -160 -305 -154 -25 4 -55 9 -66 11 -16 4
-23 0 -28 -18 -5 -18 3 -31 38 -65 71 -68 78 -66 376 101 209 117 257 141 269
131 11 -11 11 -34 1 -141 -23 -224 1 -556 56 -784 18 -77 40 -134 83 -215 231
-441 455 -659 698 -682 72 -7 143 14 168 50 36 52 3 177 -103 379 -55 107 -69
128 -88 128 -13 0 -25 -4 -28 -8 -3 -5 19 -68 49 -141 29 -73 59 -165 66 -203
12 -66 11 -72 -7 -85 -23 -18 -131 -10 -174 12 -59 31 -190 137 -265 216 -127
133 -212 277 -274 464 -65 197 -84 353 -79 670 3 240 3 240 31 297 32 66 30
75 -32 131 -42 38 -91 67 -113 67 -7 0 -130 -73 -273 -161z"/>
<path d="M833 2559 c-33 -10 -73 -51 -73 -75 0 -11 24 -14 109 -14 128 0 139
-6 120 -68 -8 -29 -8 -44 0 -61 16 -30 37 -26 88 15 104 85 113 112 59 172
l-34 37 -119 2 c-65 1 -132 -2 -150 -8z"/>
<path d="M1045 2114 c-125 -82 -216 -134 -261 -148 -19 -6 -22 -2 -27 35 -3
23 -12 49 -21 57 -14 14 -17 14 -36 -3 -15 -13 -20 -31 -20 -67 0 -40 6 -56
32 -89 27 -34 37 -39 72 -39 25 0 66 12 104 30 34 16 62 25 62 21 0 -5 -43
-72 -95 -151 -165 -247 -249 -445 -217 -515 21 -46 48 -32 225 121 92 79 172
142 177 139 42 -26 -170 -328 -498 -710 -123 -143 -128 -156 -87 -218 l26 -37
36 15 c42 18 118 72 213 154 103 88 590 573 590 588 0 36 -39 18 -187 -83 -87
-59 -170 -117 -185 -128 -54 -39 -39 -5 51 116 114 154 194 308 194 372 0 65
-13 76 -90 76 -62 0 -67 -2 -174 -70 -60 -38 -114 -70 -120 -70 -28 0 164 278
363 525 40 49 48 67 48 100 0 40 -13 65 -34 65 -6 0 -69 -39 -141 -86z"/>
<path d="M1452 2017 c-8 -10 -8 -39 0 -105 9 -78 9 -113 -6 -220 -21 -155 -55
-317 -97 -469 -31 -114 -32 -114 -58 -107 -54 15 -65 11 -78 -29 -7 -21 -18
-78 -25 -127 l-12 -90 29 -30 c16 -17 36 -30 45 -30 11 0 39 47 88 148 164
340 228 567 238 852 l6 155 -49 33 c-54 35 -65 38 -81 19z"/>
<path d="M1690 1887 c0 -33 5 -40 55 -72 30 -19 55 -39 55 -45 0 -6 -20 -92
-45 -191 -48 -191 -51 -246 -18 -312 17 -34 69 -67 106 -67 15 0 27 -5 27 -12
-1 -7 -70 -92 -155 -188 -132 -150 -154 -180 -155 -208 0 -30 2 -33 23 -27 90
28 219 142 385 340 104 125 110 144 59 193 -31 30 -37 32 -109 32 l-76 0 -17
43 -16 43 60 153 c91 231 85 276 -41 321 -31 11 -74 22 -97 26 l-41 7 0 -36z"/>
</g>
</svg>
