<?xml version="1.0" standalone="no"?>
<!DOCTYPE svg PUBLIC "-//W3C//DTD SVG 20010904//EN"
 "http://www.w3.org/TR/2001/REC-SVG-20010904/DTD/svg10.dtd">
<svg version="1.0" xmlns="http://www.w3.org/2000/svg"
 width="360.000000pt" height="360.000000pt" viewBox="0 0 360.000000 360.000000"
 preserveAspectRatio="xMidYMid meet">
<metadata>
Created by potrace 1.15, written by Peter Selinger 2001-2017
</metadata>
<g transform="translate(0.000000,360.000000) scale(0.100000,-0.100000)"
fill="#000000" stroke="none">
<path d="M1315 2700 c-19 -21 -18 -22 58 -98 l76 -76 26 24 c29 27 33 71 9 95
-17 17 -127 75 -142 75 -5 0 -17 -9 -27 -20z"/>
<path d="M990 2631 c0 -11 -4 -23 -10 -26 -19 -12 -10 -54 27 -115 l36 -61
-11 -107 c-21 -195 -89 -284 -230 -298 l-63 -7 3 -31 c4 -41 40 -58 135 -64
l73 -5 0 -54 c0 -47 -5 -62 -40 -114 -25 -36 -48 -59 -59 -59 -32 0 -69 -38
-85 -88 -9 -26 -20 -100 -25 -163 -11 -151 -36 -201 -116 -242 -66 -32 -72
-31 -95 12 -23 46 -30 49 -53 23 -28 -31 -21 -79 19 -128 48 -58 82 -60 136
-7 21 20 41 34 45 30 4 -4 -4 -51 -17 -105 -41 -171 -37 -162 -75 -162 -39 0
-86 -16 -97 -33 -4 -7 -8 -31 -8 -54 0 -60 39 -105 89 -101 34 3 40 9 136 153
99 148 100 150 134 147 45 -5 111 -29 133 -49 24 -21 23 -58 -3 -94 -66 -93
73 -88 160 6 22 24 51 66 65 94 25 48 28 50 59 44 44 -8 100 -37 141 -74 l35
-30 -19 -43 c-22 -52 -38 -131 -42 -207 -2 -45 1 -61 16 -78 32 -35 51 -26
100 48 86 129 167 370 221 661 38 208 41 216 87 261 33 32 149 99 172 99 18 0
-32 -167 -103 -341 l-58 -144 21 -32 c12 -18 27 -33 33 -33 7 0 47 17 88 37
94 47 111 41 109 -36 -2 -57 -47 -163 -115 -267 -30 -46 -39 -70 -39 -102 0
-36 3 -42 21 -42 47 0 120 109 203 303 56 132 61 189 20 231 -29 29 -80 46
-136 46 -27 0 -38 4 -38 15 0 8 34 99 75 202 41 103 75 196 75 206 0 32 -30
77 -55 83 -58 14 -149 -21 -220 -87 -71 -66 -90 -53 -98 71 -3 47 -17 124 -31
173 -15 48 -26 94 -26 103 0 10 52 41 153 88 201 97 416 190 423 184 3 -3 0
-27 -7 -53 -9 -35 -9 -52 -1 -65 9 -15 7 -19 -9 -23 -10 -3 -26 -22 -35 -42
-20 -49 -19 -411 2 -540 62 -380 137 -599 256 -750 110 -139 240 -201 444
-212 l112 -6 46 33 c25 18 46 35 46 36 0 14 -56 147 -95 224 -101 202 -275
420 -275 346 0 -8 25 -51 56 -95 56 -81 127 -223 160 -317 17 -50 17 -51 -5
-82 -28 -39 -56 -41 -176 -11 -68 17 -94 30 -142 68 -205 165 -308 437 -329
866 -4 77 -11 145 -16 152 -5 7 -5 14 2 18 6 4 10 48 10 108 0 114 23 195 79
287 17 28 31 59 31 70 0 28 -64 87 -107 99 -72 20 -99 14 -206 -48 -265 -152
-480 -238 -526 -209 -26 16 -53 3 -49 -24 2 -15 13 -24 34 -30 41 -10 63 -57
44 -93 -11 -21 -8 -37 25 -132 36 -103 37 -110 31 -198 -8 -114 -44 -325 -90
-520 -46 -195 -47 -197 -60 -192 -43 18 -263 121 -269 127 -11 9 18 192 36
227 23 43 123 132 200 177 37 21 67 42 67 47 0 14 -44 38 -125 68 -65 23 -83
35 -104 67 -31 45 -71 56 -102 28 -17 -15 -19 -32 -19 -155 0 -137 0 -138 -26
-158 -15 -12 -40 -21 -55 -21 -28 0 -29 2 -29 45 0 41 -2 45 -27 51 -79 17
-163 46 -187 65 -40 32 -33 71 15 83 31 8 40 17 70 79 18 38 46 83 60 99 26
27 31 28 121 28 93 0 94 0 166 -45 76 -47 91 -52 109 -34 7 7 21 1 47 -22 l37
-32 35 34 35 35 -22 29 c-46 57 -270 135 -390 135 l-69 0 0 49 c0 42 6 56 40
100 34 43 161 153 290 252 l35 27 -24 26 c-14 14 -34 26 -45 26 -33 0 -98 -37
-169 -95 -36 -30 -71 -55 -77 -55 -6 0 -7 27 -2 78 4 42 7 112 7 154 0 87 -12
110 -84 166 -48 37 -71 41 -71 13z m58 -1292 c-10 -30 -8 -33 52 -94 l63 -63
-7 -59 c-10 -79 -24 -120 -47 -137 -18 -12 -35 -7 -165 53 l-144 66 0 48 c0
45 4 52 53 100 52 52 156 116 189 117 15 0 15 -4 6 -31z"/>
</g>
</svg>
