<?xml version="1.0" standalone="no"?>
<!DOCTYPE svg PUBLIC "-//W3C//DTD SVG 20010904//EN"
 "http://www.w3.org/TR/2001/REC-SVG-20010904/DTD/svg10.dtd">
<svg version="1.0" xmlns="http://www.w3.org/2000/svg"
 width="360.000000pt" height="360.000000pt" viewBox="0 0 360.000000 360.000000"
 preserveAspectRatio="xMidYMid meet">
<metadata>
Created by potrace 1.15, written by Peter Selinger 2001-2017
</metadata>
<g transform="translate(0.000000,360.000000) scale(0.100000,-0.100000)"
fill="#000000" stroke="none">
<path d="M1615 2309 c-183 -166 -301 -234 -429 -246 -61 -5 -67 -4 -124 31
-77 46 -86 46 -77 -1 30 -161 167 -175 460 -47 58 26 108 44 110 42 3 -3 -7
-61 -21 -129 -21 -103 -25 -141 -21 -229 9 -182 76 -443 161 -625 57 -121 242
-283 414 -362 108 -50 248 -84 372 -90 99 -4 106 -3 132 19 l26 23 -38 160
c-81 333 -138 505 -169 505 -15 0 -11 -29 32 -237 45 -225 47 -240 33 -270
-14 -29 -21 -33 -53 -33 -86 0 -306 69 -436 137 -99 51 -207 158 -235 233 -28
78 -38 149 -21 154 8 2 36 9 64 15 70 17 189 75 340 165 72 43 132 80 134 82
2 2 0 16 -4 31 -11 44 -76 99 -135 114 -36 9 -49 17 -45 27 3 7 5 18 5 23 0 4
29 47 65 94 76 99 81 125 33 155 -46 28 -122 51 -193 57 -50 4 -63 2 -75 -12
-13 -15 -11 -20 12 -40 15 -13 48 -31 75 -41 26 -10 49 -19 51 -20 2 -1 -15
-63 -37 -136 -23 -74 -41 -140 -41 -148 0 -8 14 -29 32 -47 17 -18 30 -35 27
-37 -2 -2 -74 -52 -159 -111 -125 -86 -160 -105 -185 -103 l-30 3 -22 175
c-19 147 -21 190 -13 271 16 164 70 291 161 384 50 52 54 97 11 138 -46 44
-66 37 -187 -74z"/>
</g>
</svg>
