<?xml version="1.0" standalone="no"?>
<!DOCTYPE svg PUBLIC "-//W3C//DTD SVG 20010904//EN"
 "http://www.w3.org/TR/2001/REC-SVG-20010904/DTD/svg10.dtd">
<svg version="1.0" xmlns="http://www.w3.org/2000/svg"
 width="360.000000pt" height="360.000000pt" viewBox="0 0 360.000000 360.000000"
 preserveAspectRatio="xMidYMid meet">
<metadata>
Created by potrace 1.15, written by Peter Selinger 2001-2017
</metadata>
<g transform="translate(0.000000,360.000000) scale(0.100000,-0.100000)"
fill="#000000" stroke="none">
<path d="M1040 2435 c0 -4 14 -60 31 -125 l31 -117 -40 -74 c-64 -117 -214
-440 -279 -604 -81 -201 -80 -195 -51 -195 18 0 48 28 120 113 53 61 149 165
215 229 170 169 278 248 337 248 25 0 25 0 11 -40 -29 -83 -107 -218 -171
-298 -37 -46 -73 -86 -80 -89 -8 -3 -36 9 -64 27 -73 47 -84 39 -76 -58 3 -42
9 -158 12 -257 4 -99 10 -185 15 -191 5 -7 -1 -20 -16 -34 -21 -20 -25 -33
-25 -79 0 -79 17 -187 35 -221 8 -16 25 -32 37 -36 18 -5 30 2 61 37 112 128
253 387 334 611 35 101 40 108 65 108 30 0 28 10 48 -190 14 -127 35 -237 51
-256 17 -21 98 -19 106 3 17 43 -98 502 -143 570 -7 12 -14 31 -14 42 0 10 37
68 82 128 163 217 288 424 288 479 0 29 -56 77 -114 99 -44 17 -47 17 -66 0
-28 -25 -25 -46 10 -80 18 -17 30 -39 30 -54 0 -57 -76 -184 -198 -333 -61
-73 -73 -94 -92 -163 -57 -205 -185 -464 -353 -717 -56 -84 -84 -102 -71 -45
5 17 7 46 5 62 -7 58 -6 172 3 332 l9 163 36 6 c59 11 130 55 185 116 83 91
212 357 199 409 -15 60 -84 93 -146 69 -54 -22 -157 -94 -262 -184 -61 -52
-109 -86 -123 -86 -27 0 -36 -26 103 275 53 116 97 222 97 237 -1 53 -76 158
-115 158 -7 0 -22 3 -34 6 -13 4 -23 3 -23 -1z"/>
<path d="M2445 1976 c-107 -29 -334 -106 -498 -170 -66 -25 -134 -46 -153 -46
-46 0 -43 -17 9 -67 l42 -41 130 53 c476 192 689 229 769 134 32 -38 32 -58 6
-277 -16 -126 -18 -172 -10 -187 9 -17 1 -51 -44 -186 -64 -191 -110 -306
-133 -331 -26 -29 -59 -23 -73 13 -13 31 -92 99 -116 99 -43 0 23 -131 112
-225 44 -46 58 -55 87 -55 46 0 65 22 47 55 -12 22 -10 27 22 57 50 47 83 109
122 229 85 259 151 732 115 826 -29 79 -125 129 -262 138 -67 4 -98 1 -172
-19z"/>
<path d="M2258 1631 c-59 -19 -194 -89 -287 -148 -38 -24 -57 -31 -64 -24 -17
17 -67 13 -74 -5 -5 -14 18 -160 49 -306 9 -45 12 -48 41 -48 18 0 48 -9 67
-19 19 -11 45 -25 57 -32 20 -11 38 -2 177 87 88 56 156 106 156 114 0 28 -17
42 -59 47 -22 3 -41 11 -41 17 0 20 41 90 81 138 35 41 39 52 39 101 0 43 -4
58 -23 75 -28 26 -44 27 -119 3z m-68 -250 c-29 -54 -72 -124 -96 -155 -39
-49 -49 -56 -79 -56 l-35 0 0 71 c0 55 5 80 20 105 32 51 163 131 218 133 22
1 21 -3 -28 -98z"/>
</g>
</svg>
