<?xml version="1.0" standalone="no"?>
<!DOCTYPE svg PUBLIC "-//W3C//DTD SVG 20010904//EN"
 "http://www.w3.org/TR/2001/REC-SVG-20010904/DTD/svg10.dtd">
<svg version="1.0" xmlns="http://www.w3.org/2000/svg"
 width="360.000000pt" height="360.000000pt" viewBox="0 0 360.000000 360.000000"
 preserveAspectRatio="xMidYMid meet">
<metadata>
Created by potrace 1.15, written by Peter Selinger 2001-2017
</metadata>
<g transform="translate(0.000000,360.000000) scale(0.100000,-0.100000)"
fill="#000000" stroke="none">
<path d="M2435 2535 c-93 -45 -239 -91 -352 -111 -51 -9 -93 -21 -93 -26 0
-15 83 -47 156 -59 l70 -12 188 71 c103 40 196 72 205 72 23 0 41 20 41 45 0
65 -102 74 -215 20z"/>
<path d="M1390 2487 c-97 -44 -200 -108 -234 -146 -16 -17 -31 -21 -83 -21
-34 0 -63 -4 -63 -8 0 -5 10 -18 23 -30 18 -17 36 -22 81 -22 51 0 64 4 106
35 59 44 142 82 195 90 37 6 41 4 59 -25 11 -20 15 -35 9 -39 -6 -3 -12 -30
-15 -59 -3 -29 -12 -60 -20 -70 -8 -9 -20 -55 -26 -101 -13 -94 -51 -187 -100
-242 l-31 -36 24 -23 24 -22 65 22 c36 12 66 23 66 24 0 2 11 59 25 127 32
162 88 334 131 404 31 53 33 59 20 83 -13 25 -127 102 -151 102 -5 0 -53 -19
-105 -43z"/>
<path d="M1084 2143 c3 -10 8 -29 11 -43 3 -14 -10 -113 -29 -220 -35 -195
-59 -360 -72 -498 -6 -71 -5 -75 22 -103 34 -35 13 -47 256 143 l178 139 40
-22 40 -23 0 -65 c0 -107 -19 -339 -35 -432 -19 -110 -58 -236 -88 -280 -18
-26 -29 -33 -48 -31 -40 6 -103 37 -141 71 -62 54 -97 35 -53 -30 99 -150 233
-222 292 -157 66 72 123 278 174 628 13 90 18 165 15 198 -4 30 -1 72 5 94 10
39 9 42 -23 75 -42 44 -103 80 -150 88 -50 9 -129 -34 -252 -136 -52 -44 -102
-79 -112 -79 -37 0 1 312 61 493 14 43 25 91 25 107 0 42 -53 100 -92 100 -23
0 -28 -4 -24 -17z"/>
<path d="M1812 2138 c-19 -11 -29 -25 -25 -31 3 -7 28 -44 55 -84 26 -39 43
-73 37 -75 -8 -3 -8 -16 0 -46 9 -30 9 -53 1 -80 -5 -20 -10 -86 -10 -147 0
-67 -14 -207 -34 -360 -23 -163 -31 -254 -25 -262 7 -7 6 -14 -1 -18 -13 -8
-13 -130 0 -156 7 -12 7 -19 1 -19 -6 0 -6 -12 1 -31 8 -23 8 -45 -1 -81 -19
-84 -15 -110 23 -147 33 -32 38 -33 88 -28 29 3 107 17 173 31 165 36 405 66
527 66 83 0 121 -6 215 -32 l113 -31 25 23 c14 13 25 28 25 34 0 7 -35 46 -78
89 l-77 77 -67 0 c-84 0 -331 -31 -555 -70 -222 -39 -237 -39 -253 0 -7 17
-22 37 -32 44 -19 14 -19 21 22 528 46 568 49 637 28 688 -21 49 -64 98 -107
120 -37 18 -38 18 -69 -2z"/>
<path d="M2477 2022 c-40 -41 -35 -64 18 -90 25 -12 45 -26 45 -31 0 -5 -11
-40 -25 -77 -49 -133 -38 -121 -134 -150 -112 -34 -209 -78 -243 -111 -22 -21
-28 -36 -28 -68 0 -23 3 -45 6 -48 4 -4 28 9 53 27 69 50 127 76 183 83 l51 6
-5 -45 c-8 -72 -50 -149 -121 -224 -65 -69 -65 -69 -86 -50 -12 11 -26 37 -32
59 -10 38 -11 38 -30 21 -32 -29 -26 -106 13 -160 35 -49 45 -52 103 -25 73
33 187 176 286 359 l34 62 66 0 c60 0 69 -3 106 -35 22 -19 46 -48 53 -64 10
-26 9 -37 -13 -85 -30 -66 -151 -195 -284 -303 -51 -41 -93 -79 -93 -83 0 -4
6 -12 13 -19 28 -23 289 150 388 258 75 81 102 138 107 221 l4 66 -47 43 c-27
25 -90 64 -151 93 -57 27 -104 52 -104 55 0 3 9 46 21 95 26 111 20 165 -21
206 -24 24 -66 42 -99 42 -4 0 -19 -13 -34 -28z"/>
<path d="M1050 1119 l-285 -162 -62 10 c-58 8 -65 7 -83 -12 -27 -28 -25 -38
11 -80 25 -28 38 -35 69 -35 57 0 194 73 414 221 243 163 250 169 242 197 -4
12 -10 22 -14 22 -4 0 -135 -73 -292 -161z"/>
</g>
</svg>
