<?xml version="1.0" standalone="no"?>
<!DOCTYPE svg PUBLIC "-//W3C//DTD SVG 20010904//EN"
 "http://www.w3.org/TR/2001/REC-SVG-20010904/DTD/svg10.dtd">
<svg version="1.0" xmlns="http://www.w3.org/2000/svg"
 width="360.000000pt" height="360.000000pt" viewBox="0 0 360.000000 360.000000"
 preserveAspectRatio="xMidYMid meet">
<metadata>
Created by potrace 1.15, written by Peter Selinger 2001-2017
</metadata>
<g transform="translate(0.000000,360.000000) scale(0.100000,-0.100000)"
fill="#000000" stroke="none">
<path d="M1922 2877 c-122 -69 -181 -107 -179 -117 1 -8 23 -26 48 -39 l47
-25 47 25 c30 15 53 36 63 58 25 50 62 74 128 79 53 4 57 3 50 -14 -4 -11 -19
-50 -33 -89 -35 -98 -128 -277 -173 -333 -36 -46 -45 -51 -236 -126 -109 -43
-203 -82 -209 -87 -6 -6 -4 -14 5 -23 13 -12 32 -9 133 19 100 27 124 31 153
22 19 -6 33 -13 32 -17 -2 -3 -63 -88 -137 -188 l-134 -182 -25 37 c-51 77
-102 130 -147 154 -44 23 -45 25 -45 71 0 33 26 123 90 307 107 311 109 328
47 389 -23 23 -50 42 -60 42 -9 0 -49 -20 -89 -44 -120 -73 -280 -146 -346
-159 -68 -13 -76 -25 -35 -56 37 -30 63 -34 149 -26 72 6 77 9 142 62 74 61
118 87 132 78 5 -3 12 -21 16 -40 4 -25 -8 -84 -51 -232 -32 -109 -61 -202
-66 -207 -12 -14 -92 20 -121 52 -15 15 -37 50 -50 77 -18 39 -29 51 -49 53
-38 4 -50 -15 -37 -63 9 -35 2 -71 -50 -290 -58 -237 -60 -251 -45 -280 27
-53 43 -65 88 -65 28 0 47 6 56 17 51 61 253 193 297 193 17 0 16 -329 -3
-432 -26 -148 -118 -369 -156 -376 -10 -2 -51 35 -105 96 -82 91 -89 97 -92
73 -4 -31 15 -101 28 -101 5 0 27 -31 50 -69 58 -101 99 -141 142 -141 21 0
41 7 50 18 48 54 152 340 163 447 16 146 68 249 163 322 l43 33 38 -30 37 -30
57 15 c60 16 164 64 259 122 32 19 62 32 68 28 5 -3 10 -19 10 -36 0 -24 -4
-29 -24 -29 -20 0 -73 -54 -253 -255 -125 -141 -230 -260 -232 -266 -2 -6 7
-21 20 -35 39 -42 68 -33 260 81 98 58 186 105 196 105 10 0 29 -7 41 -16 22
-15 22 -16 22 -328 0 -211 4 -316 11 -323 8 -8 8 -13 0 -17 -14 -9 -14 -59 0
-73 8 -8 8 -13 0 -17 -15 -10 -14 -179 1 -194 9 -9 8 -12 -6 -12 -19 0 -50
-61 -60 -123 l-7 -37 39 0 38 0 42 223 c44 234 48 267 32 283 -7 7 -7 35 0 84
5 41 10 201 10 355 l0 281 116 38 c107 35 123 38 186 31 39 -3 75 -8 82 -11 6
-2 16 6 22 18 8 19 5 30 -21 67 l-30 43 -77 -6 c-42 -4 -116 -18 -164 -32
l-87 -25 -23 22 c-21 19 -24 32 -24 91 l0 69 80 91 c44 50 80 96 80 104 0 7
-19 23 -42 35 -36 19 -48 20 -87 11 -26 -6 -47 -9 -48 -8 -8 8 -23 220 -16
226 18 16 132 30 242 30 215 0 360 -28 452 -85 71 -45 156 -24 147 36 -5 35
-58 65 -161 91 -85 21 -118 23 -410 26 -312 3 -318 3 -353 -19 -19 -11 -37
-19 -40 -16 -7 7 69 213 113 309 22 46 56 108 76 138 l36 53 -20 39 c-20 39
-81 78 -119 77 -8 0 -97 -46 -198 -102z m161 -680 c37 -112 36 -145 -5 -184
-75 -71 -334 -213 -388 -213 -30 0 -32 2 -28 28 2 15 73 119 163 240 156 206
161 212 195 212 l36 0 27 -83z m-954 -39 c37 -38 96 -127 89 -134 -3 -2 -47
-36 -98 -74 -93 -70 -137 -88 -128 -52 53 191 85 292 94 292 7 0 26 -15 43
-32z m981 -491 c0 -28 -10 -41 -75 -95 -41 -34 -78 -62 -83 -62 -5 0 -15 6
-21 14 -10 12 2 29 65 95 84 89 114 102 114 48z"/>
<path d="M976 1519 c-158 -93 -290 -169 -292 -169 -2 0 -4 11 -4 25 0 19 -5
25 -21 25 -33 0 -58 -39 -59 -91 0 -44 2 -46 35 -57 21 -6 48 -7 63 -2 87 24
245 136 495 349 79 67 101 93 80 90 -5 0 -138 -77 -297 -170z"/>
</g>
</svg>
