<?xml version="1.0" standalone="no"?>
<!DOCTYPE svg PUBLIC "-//W3C//DTD SVG 20010904//EN"
 "http://www.w3.org/TR/2001/REC-SVG-20010904/DTD/svg10.dtd">
<svg version="1.0" xmlns="http://www.w3.org/2000/svg"
 width="360.000000pt" height="360.000000pt" viewBox="0 0 360.000000 360.000000"
 preserveAspectRatio="xMidYMid meet">
<metadata>
Created by potrace 1.15, written by Peter Selinger 2001-2017
</metadata>
<g transform="translate(0.000000,360.000000) scale(0.100000,-0.100000)"
fill="#000000" stroke="none">
<path d="M1340 2860 c-62 -42 -142 -70 -217 -77 -77 -7 -81 -25 -15 -61 l43
-24 132 46 c118 41 136 45 170 35 59 -16 64 -39 37 -199 -23 -145 -58 -265
-90 -318 -20 -32 -64 -61 -76 -49 -4 3 3 59 15 123 l21 117 -21 34 c-11 18
-22 33 -23 33 -1 0 -42 -13 -91 -30 -49 -16 -96 -30 -105 -30 -9 0 -51 43 -94
95 -71 86 -96 109 -96 88 0 -5 24 -142 53 -306 l54 -298 -81 -65 c-78 -63 -82
-65 -125 -59 -24 4 -50 9 -57 12 -25 9 -16 -41 14 -76 l28 -33 263 146 c146
80 268 146 273 146 4 0 13 -9 20 -19 11 -18 15 -17 62 24 67 56 108 76 170 81
43 4 55 1 80 -20 22 -18 27 -28 20 -38 -6 -7 -39 -48 -74 -90 -57 -72 -66 -78
-99 -78 -104 0 -260 -72 -385 -176 -68 -57 -82 -65 -97 -55 -20 12 -59 15 -59
5 0 -3 10 -20 22 -37 25 -35 25 -31 -3 -239 -15 -112 -18 -162 -10 -176 6 -12
7 -22 1 -28 -6 -6 -15 -36 -21 -67 -9 -45 -9 -63 0 -81 11 -19 8 -57 -18 -218
-34 -216 -37 -248 -19 -248 7 0 25 12 40 27 28 26 28 28 28 150 0 103 2 123
15 123 8 0 15 -4 15 -8 0 -20 146 -228 203 -289 83 -89 210 -183 247 -183 36
0 60 24 59 58 0 15 -6 129 -12 255 l-12 227 74 83 c84 94 159 192 172 225 5
14 17 22 32 22 20 0 25 -7 36 -52 9 -43 9 -54 -2 -66 -12 -11 -11 -29 5 -120
11 -59 29 -136 41 -172 21 -63 23 -65 58 -68 20 -2 134 22 258 53 l222 56 39
-31 c62 -49 109 -35 124 36 7 30 3 35 -48 75 -31 24 -56 47 -56 51 0 4 29 84
64 178 l64 170 -57 45 c-51 41 -61 45 -110 45 -66 0 -212 -48 -382 -124 -118
-53 -124 -55 -142 -38 -50 44 -51 110 -3 161 14 16 26 44 30 72 11 77 54 132
132 170 l68 34 230 7 c127 4 249 11 271 15 26 6 107 1 235 -13 172 -20 197
-21 210 -8 13 14 12 18 -12 39 -74 64 -397 88 -813 59 -90 -6 -90 -6 -102 20
-10 24 -2 43 103 232 111 201 114 209 114 269 0 53 -4 67 -32 104 -29 40 -34
43 -66 37 -20 -3 -67 -27 -105 -53 -101 -70 -115 -78 -122 -72 -3 3 18 81 45
173 39 129 48 171 40 186 -15 28 -72 69 -101 72 -20 3 -24 -1 -21 -22 13 -96
6 -178 -21 -260 -30 -90 -146 -340 -157 -340 -17 0 -304 61 -308 65 -3 3 13
96 36 208 23 111 42 210 42 219 0 22 -45 74 -94 109 -55 40 -115 40 -176 -1z
m880 -439 c0 -5 11 -11 25 -13 l25 -3 -53 -116 c-142 -307 -308 -489 -401
-439 -36 19 -76 6 -76 -25 0 -14 7 -26 18 -28 9 -3 50 -13 90 -22 39 -10 72
-20 72 -24 0 -15 -172 -316 -220 -385 -82 -118 -118 -156 -149 -156 -27 0 -28
2 -39 78 -17 108 -16 463 1 530 26 99 99 171 211 208 43 14 75 40 196 157 211
204 300 274 300 238z m-982 -74 c-5 -59 -52 -176 -77 -191 -5 -4 -26 8 -45 25
l-36 31 0 89 c0 84 1 89 23 94 38 8 71 12 106 14 l34 1 -5 -63z m182 -532 c13
-16 11 -164 -7 -424 l-6 -93 -55 -25 c-30 -13 -68 -23 -83 -21 l-29 3 50 109
c28 61 50 119 50 129 0 15 -36 87 -43 87 -1 0 -34 -9 -72 -20 -111 -32 -115
-30 -115 36 0 54 1 57 58 113 131 131 206 162 252 106z m-204 -379 c3 -8 -8
-59 -25 -114 -17 -54 -31 -103 -31 -108 0 -5 19 -22 41 -38 l41 -29 72 32 c39
17 81 31 94 31 19 0 22 -5 22 -36 0 -19 5 -67 12 -106 9 -54 9 -75 0 -89 -9
-14 -9 -31 -2 -61 5 -24 10 -101 10 -171 l0 -129 -47 27 c-111 64 -215 163
-275 260 -101 165 -95 387 15 511 30 35 64 44 73 20z m1216 -7 c28 -20 29 -24
23 -73 -15 -120 -109 -242 -236 -307 -60 -30 -197 -79 -221 -79 -9 0 -30 49
-57 131 -23 72 -41 132 -39 134 1 1 98 50 213 108 229 116 262 124 317 86z"/>
<path d="M580 1898 c0 -7 5 -31 10 -54 8 -36 3 -64 -40 -215 l-49 -174 24 -24
c20 -21 26 -22 39 -12 19 16 47 104 77 242 19 89 20 112 11 158 -12 55 -35 91
-59 91 -7 0 -13 -6 -13 -12z"/>
</g>
</svg>
