<?xml version="1.0" standalone="no"?>
<!DOCTYPE svg PUBLIC "-//W3C//DTD SVG 20010904//EN"
 "http://www.w3.org/TR/2001/REC-SVG-20010904/DTD/svg10.dtd">
<svg version="1.0" xmlns="http://www.w3.org/2000/svg"
 width="360.000000pt" height="360.000000pt" viewBox="0 0 360.000000 360.000000"
 preserveAspectRatio="xMidYMid meet">
<metadata>
Created by potrace 1.15, written by Peter Selinger 2001-2017
</metadata>
<g transform="translate(0.000000,360.000000) scale(0.100000,-0.100000)"
fill="#000000" stroke="none">
<path d="M1995 2720 c-3 -5 -1 -26 4 -47 10 -35 8 -40 -31 -91 -59 -79 -184
-199 -272 -262 l-76 -54 31 -32 31 -32 75 33 c67 29 79 31 116 22 23 -5 44
-11 45 -13 2 -1 -64 -80 -147 -175 -83 -94 -151 -179 -151 -189 0 -9 9 -25 19
-34 19 -17 23 -15 127 63 l107 81 69 0 c51 0 69 -3 66 -13 -2 -6 -52 -59 -113
-116 -263 -250 -468 -395 -570 -403 -38 -3 -40 -1 -37 22 9 69 124 262 277
465 62 82 80 126 53 124 -7 0 -94 -92 -193 -204 -99 -112 -186 -204 -193 -204
-16 -1 -11 54 19 193 30 140 33 144 182 193 140 45 177 64 177 91 0 26 -42 62
-72 62 -14 0 -45 -11 -69 -24 -45 -25 -165 -54 -176 -42 -10 10 32 149 47 157
8 5 54 26 101 49 47 22 96 51 107 63 l22 23 -31 37 c-42 50 -86 51 -155 2
l-49 -35 -13 44 c-28 98 -137 149 -192 91 -27 -28 -17 -48 28 -60 43 -11 62
-34 62 -77 0 -47 -19 -87 -73 -151 -37 -45 -39 -49 -23 -65 13 -14 20 -14 36
-4 19 12 20 9 20 -53 0 -80 -19 -121 -87 -187 -53 -51 -184 -137 -281 -183
-51 -24 -66 -27 -81 -18 -15 10 -22 8 -37 -8 -18 -20 -17 -21 36 -69 38 -34
64 -49 84 -50 21 0 67 28 174 106 l145 106 -7 -89 c-3 -48 -9 -149 -13 -223
-5 -126 -4 -138 16 -178 12 -23 26 -42 32 -42 5 0 93 26 194 57 181 55 185 56
200 37 8 -10 15 -26 15 -36 0 -24 -177 -187 -251 -231 -35 -21 -90 -45 -121
-54 -32 -9 -58 -19 -58 -23 0 -10 94 -50 118 -50 37 0 118 30 176 65 32 19 63
35 68 35 5 0 8 -23 6 -52 l-3 -52 -260 -152 c-248 -146 -297 -168 -322 -143
-8 8 -13 8 -18 -1 -4 -6 6 -29 21 -52 27 -38 30 -40 70 -34 56 7 170 53 330
132 71 35 137 64 145 64 22 0 39 -21 39 -47 0 -32 26 -93 53 -122 85 -92 260
-141 527 -147 138 -4 182 -1 270 17 270 53 454 110 511 158 l33 28 -43 319
c-24 176 -45 322 -48 327 -6 11 -37 9 -50 -4 -7 -7 -6 -31 3 -82 18 -92 18
-262 0 -354 -9 -46 -10 -75 -4 -81 17 -17 -1 -48 -40 -69 -85 -48 -294 -93
-604 -133 l-167 -21 -88 21 c-48 11 -115 35 -148 54 -107 59 -132 153 -64 246
24 32 35 40 62 40 53 0 111 20 132 45 12 14 49 31 95 45 93 27 160 59 167 77
8 22 -46 73 -78 73 -15 0 -83 -27 -151 -60 -142 -69 -230 -93 -252 -70 -11 12
-12 27 -4 76 l10 60 77 28 c94 35 183 79 200 100 14 17 9 40 -18 75 l-18 24
-92 -23 c-103 -25 -110 -23 -117 36 -6 52 2 62 66 74 89 17 139 71 165 180 4
18 37 45 120 99 207 134 223 166 129 246 l-56 48 -56 -16 c-31 -9 -58 -14 -59
-13 -2 2 31 40 72 85 41 44 75 88 75 95 0 57 -76 123 -130 113 -16 -4 -30 -3
-30 1 0 3 55 58 122 122 l121 115 -32 37 c-51 58 -157 99 -176 68z"/>
</g>
</svg>
