<?xml version="1.0" standalone="no"?>
<!DOCTYPE svg PUBLIC "-//W3C//DTD SVG 20010904//EN"
 "http://www.w3.org/TR/2001/REC-SVG-20010904/DTD/svg10.dtd">
<svg version="1.0" xmlns="http://www.w3.org/2000/svg"
 width="360.000000pt" height="360.000000pt" viewBox="0 0 360.000000 360.000000"
 preserveAspectRatio="xMidYMid meet">
<metadata>
Created by potrace 1.15, written by Peter Selinger 2001-2017
</metadata>
<g transform="translate(0.000000,360.000000) scale(0.100000,-0.100000)"
fill="#000000" stroke="none">
<path d="M2059 2841 l-23 -19 36 -40 c61 -67 63 -85 49 -413 -10 -220 -10
-293 -1 -304 10 -11 -5 -22 -79 -60 l-91 -45 -131 66 -132 65 -122 -20 c-68
-12 -126 -21 -129 -21 -22 0 11 47 134 188 164 189 167 196 97 275 l-42 49
-143 -82 c-78 -46 -142 -86 -142 -90 0 -4 6 -13 14 -19 11 -10 33 -10 96 0 44
6 83 9 86 7 9 -9 -65 -141 -120 -213 -29 -38 -96 -117 -148 -175 l-96 -105
-121 -54 c-127 -56 -141 -70 -102 -105 13 -12 29 -58 46 -134 33 -145 88 -316
115 -360 11 -18 28 -32 39 -32 10 0 77 41 147 91 l129 92 49 -10 c46 -10 50
-9 81 19 38 33 122 159 220 331 70 122 102 150 91 80 -3 -21 -8 -92 -12 -158
-14 -268 -103 -605 -225 -847 -51 -101 -76 -141 -156 -244 -59 -77 -61 -82
-44 -98 10 -9 22 -16 28 -16 19 0 121 110 169 181 60 91 132 229 187 359 34
79 47 128 56 198 6 51 21 117 32 146 38 103 125 199 224 248 17 9 86 30 155
47 68 18 146 42 172 53 41 17 48 25 48 48 0 30 -14 46 -45 52 -46 8 -28 43 95
181 98 111 120 142 120 167 0 27 -6 34 -44 51 -25 11 -69 24 -98 30 -51 10
-59 8 -177 -35 -98 -36 -127 -43 -143 -35 -13 7 -17 16 -13 27 14 37 17 73 7
85 -8 10 -8 30 0 75 l11 61 91 31 c126 44 275 115 283 136 8 21 -17 68 -38 72
-9 2 -67 -27 -128 -64 l-113 -66 -44 12 c-55 16 -59 23 -38 55 14 22 15 37 7
113 -12 107 -33 155 -78 176 -43 21 -68 20 -96 -3z m441 -747 c0 -3 -19 -33
-42 -67 -165 -246 -326 -393 -452 -414 l-38 -6 3 95 c4 85 7 99 32 135 52 75
190 156 388 228 99 36 109 38 109 29z m-830 -94 c0 -5 9 -10 20 -10 18 0 20
-7 20 -80 0 -64 -4 -84 -18 -98 -11 -11 -22 -38 -26 -61 -14 -88 -67 -158
-160 -211 -48 -28 -96 -39 -96 -22 0 4 27 52 60 107 33 55 60 107 60 116 0 22
-17 35 -60 46 l-35 9 0 69 c0 68 0 68 36 86 29 16 164 56 192 58 4 1 7 -3 7
-9z m-344 -167 c19 -100 18 -100 -86 -164 -75 -47 -102 -58 -130 -56 -35 2
-35 2 -47 67 -6 36 -9 68 -7 71 2 4 21 9 43 13 23 3 70 27 113 56 90 61 105
62 114 13z m-6 -255 c0 -7 -25 -54 -55 -105 -59 -97 -77 -110 -111 -76 -23 23
-41 68 -49 126 l-7 47 43 1 c24 0 64 4 89 8 68 13 90 12 90 -1z"/>
<path d="M1175 2660 c-3 -6 -1 -43 6 -83 10 -65 10 -77 -9 -129 -26 -72 -77
-149 -156 -235 l-64 -69 19 -23 19 -23 46 39 c71 58 185 194 227 272 20 37 42
92 47 122 l10 53 -42 43 c-42 42 -88 57 -103 33z"/>
<path d="M1535 1231 c-106 -56 -229 -131 -399 -241 -67 -44 -128 -80 -134 -80
-7 0 -12 11 -12 25 0 21 -5 25 -30 25 -30 0 -30 0 -30 -58 0 -107 54 -125 181
-61 110 55 529 394 529 428 0 17 -9 14 -105 -38z"/>
</g>
</svg>
