<?xml version="1.0" standalone="no"?>
<!DOCTYPE svg PUBLIC "-//W3C//DTD SVG 20010904//EN"
 "http://www.w3.org/TR/2001/REC-SVG-20010904/DTD/svg10.dtd">
<svg version="1.0" xmlns="http://www.w3.org/2000/svg"
 width="360.000000pt" height="360.000000pt" viewBox="0 0 360.000000 360.000000"
 preserveAspectRatio="xMidYMid meet">
<metadata>
Created by potrace 1.15, written by Peter Selinger 2001-2017
</metadata>
<g transform="translate(0.000000,360.000000) scale(0.100000,-0.100000)"
fill="#000000" stroke="none">
<path d="M1902 2639 c-31 -20 -32 -22 -16 -40 13 -15 31 -19 83 -19 l67 0 12
-45 c15 -57 43 -60 92 -10 33 34 34 37 20 62 -24 43 -71 64 -152 69 -63 4 -77
2 -106 -17z"/>
<path d="M1030 2500 c-13 -8 -12 -15 9 -54 23 -41 24 -48 12 -88 -18 -61 -69
-149 -144 -248 l-65 -85 34 -23 c19 -13 40 -20 47 -16 6 4 50 40 97 79 135
114 266 205 295 205 22 0 -57 -169 -118 -250 -56 -76 -215 -237 -317 -323 -47
-39 -89 -74 -94 -79 -5 -4 -5 -12 1 -20 21 -26 52 -145 58 -223 8 -97 31 -214
52 -267 17 -44 65 -88 95 -88 11 0 45 23 75 50 115 105 213 172 280 189 37 10
48 21 93 89 28 42 96 168 151 279 78 157 98 208 93 228 -3 14 -26 43 -51 65
l-45 39 -147 3 c-142 3 -146 4 -145 24 0 12 44 89 97 171 56 86 97 160 97 174
0 14 -14 44 -32 68 -30 41 -33 43 -72 37 -22 -4 -67 -19 -100 -34 -47 -21 -61
-23 -64 -12 -11 31 -85 99 -115 105 -18 4 -39 8 -47 11 -8 2 -22 -1 -30 -6z
m468 -673 l22 -23 -19 -77 c-11 -42 -33 -107 -49 -145 -44 -105 -130 -227
-148 -209 -4 3 13 59 36 123 46 125 46 137 -1 161 -13 7 -48 13 -76 13 l-53 0
0 53 c0 41 5 58 20 72 31 28 119 54 186 55 51 0 64 -4 82 -23z m-378 -173 c0
-61 -2 -67 -32 -95 -44 -40 -112 -79 -137 -79 -27 0 -51 37 -51 77 0 30 7 38
97 98 54 36 104 65 110 65 9 0 13 -20 13 -66z m-20 -294 c0 -51 -3 -60 -18
-60 -23 0 -42 -19 -42 -42 0 -12 -8 -18 -24 -18 -28 0 -34 12 -42 84 l-6 52
48 22 c78 34 84 32 84 -38z"/>
<path d="M2204 2149 c-82 -92 -302 -243 -386 -266 -32 -9 -58 -20 -58 -24 0
-4 18 -22 40 -39 l40 -32 65 23 c35 13 67 21 70 17 12 -12 -8 -80 -32 -106
-41 -45 -160 -283 -168 -337 -14 -102 -81 -194 -183 -251 -91 -51 -65 -72 66
-55 79 10 96 9 180 -11 109 -26 116 -39 45 -91 -95 -69 -207 -107 -315 -107
-53 0 -57 1 -67 30 -7 23 -16 30 -36 30 -50 0 -45 -62 10 -117 41 -41 64 -42
220 -8 213 46 349 104 362 155 5 18 7 18 56 0 181 -64 360 -176 547 -343 47
-42 90 -77 95 -77 6 0 23 11 40 24 l29 24 -39 48 c-115 143 -294 284 -490 385
-66 34 -121 63 -122 64 -2 0 13 41 33 91 53 133 74 225 74 322 0 68 -4 91 -21
118 -11 19 -28 34 -37 34 -40 -1 -108 -43 -249 -153 -54 -43 90 242 233 461
79 121 91 163 56 195 -24 22 -35 21 -58 -4z m-18 -684 c5 -11 -103 -288 -122
-313 -3 -5 -206 37 -212 43 -15 14 129 163 227 236 69 51 98 60 107 34z"/>
<path d="M2391 1808 c0 -15 17 -36 47 -59 37 -28 52 -49 71 -98 31 -78 88
-171 106 -171 20 0 55 54 55 84 0 14 -12 56 -27 93 -34 86 -91 145 -155 161
-74 19 -98 16 -97 -10z"/>
<path d="M1283 1059 c-200 -165 -321 -259 -335 -259 -12 0 -32 9 -44 21 -14
13 -29 19 -41 15 -25 -8 -53 -67 -59 -125 -5 -44 -4 -47 34 -74 65 -44 79 -39
205 75 169 153 597 580 597 595 0 41 -63 -3 -357 -248z"/>
</g>
</svg>
