<?xml version="1.0" standalone="no"?>
<!DOCTYPE svg PUBLIC "-//W3C//DTD SVG 20010904//EN"
 "http://www.w3.org/TR/2001/REC-SVG-20010904/DTD/svg10.dtd">
<svg version="1.0" xmlns="http://www.w3.org/2000/svg"
 width="360.000000pt" height="360.000000pt" viewBox="0 0 360.000000 360.000000"
 preserveAspectRatio="xMidYMid meet">
<metadata>
Created by potrace 1.15, written by Peter Selinger 2001-2017
</metadata>
<g transform="translate(0.000000,360.000000) scale(0.100000,-0.100000)"
fill="#000000" stroke="none">
<path d="M1963 2943 c-21 -8 -15 -24 27 -88 22 -33 40 -69 40 -80 0 -37 -81
-181 -176 -310 -51 -72 -94 -136 -94 -143 0 -7 20 -43 43 -80 l44 -67 -13
-360 c-7 -198 -17 -378 -23 -400 -7 -27 -7 -43 1 -52 7 -9 7 -30 -1 -72 -12
-60 -8 -84 17 -113 27 -32 53 -20 136 60 120 115 270 188 511 247 117 29 166
28 266 -1 83 -25 86 -35 60 -232 -54 -403 -117 -633 -186 -678 -24 -16 -25
-15 -131 95 -58 61 -111 111 -116 111 -17 0 2 -71 35 -135 43 -81 174 -215
211 -215 37 0 74 40 82 89 4 27 14 46 31 56 55 36 104 199 157 515 19 113 38
240 42 283 l7 78 -34 35 c-42 44 -80 67 -142 88 -45 15 -59 15 -212 -4 -90
-11 -175 -20 -188 -20 -44 0 -49 41 -27 208 39 295 83 500 125 581 19 38 22
54 15 88 -9 50 -31 86 -65 109 -38 25 -131 14 -210 -25 -108 -53 -230 -191
-170 -191 8 0 80 32 159 72 80 40 148 70 151 67 6 -6 -26 -270 -51 -414 -29
-171 -61 -275 -84 -275 -20 0 -32 81 -21 145 6 34 11 84 11 110 0 44 -4 54
-42 92 l-41 42 -38 -22 -37 -21 39 -56 39 -55 -25 -110 c-34 -151 -70 -265
-97 -305 -47 -69 -48 -64 -48 262 0 275 -2 311 -21 393 l-21 90 73 111 c87
130 154 267 171 347 15 69 1 102 -53 128 -37 18 -106 30 -126 22z m196 -1281
c5 -9 12 -34 16 -55 4 -21 16 -44 27 -51 20 -14 20 -14 -2 -36 -23 -23 -106
-64 -152 -75 -20 -5 -29 -3 -33 8 -7 18 105 226 122 227 7 0 17 -8 22 -18z"/>
<path d="M1165 2450 c-4 -6 8 -47 25 -92 23 -62 29 -88 22 -103 -6 -11 -15
-45 -21 -75 -7 -30 -21 -75 -33 -99 -28 -59 -128 -163 -212 -222 -64 -46 -73
-49 -129 -49 -46 0 -66 5 -81 19 -21 20 -21 20 -46 0 l-25 -19 60 -55 c33 -30
67 -54 76 -55 36 -1 121 33 178 71 33 22 69 39 80 37 17 -3 11 -25 -67 -241
l-87 -239 -32 5 c-51 9 -63 -14 -63 -120 0 -74 3 -93 18 -106 24 -22 45 -21
65 1 45 50 206 398 227 492 46 205 119 387 177 442 31 30 100 62 106 50 2 -4
-6 -52 -18 -106 -17 -74 -20 -104 -12 -117 8 -13 5 -29 -11 -67 -37 -87 -113
-424 -112 -501 0 -14 12 -39 25 -54 24 -26 28 -28 60 -17 97 32 237 216 404
532 47 89 62 125 59 150 -2 18 -8 33 -15 33 -6 0 -40 -45 -74 -100 -164 -262
-329 -458 -329 -391 0 9 38 169 85 356 47 187 85 350 85 364 0 44 -20 49 -112
31 -46 -9 -90 -18 -99 -21 -13 -4 -17 9 -23 82 -7 95 -32 166 -64 183 -26 14
-79 14 -87 1z"/>
<path d="M2140 1158 c-173 -36 -377 -102 -633 -207 -93 -38 -102 -40 -147 -30
-44 9 -51 8 -69 -10 -20 -20 -20 -23 -6 -50 16 -32 57 -65 92 -73 15 -4 95 24
230 79 238 97 527 195 626 213 57 10 72 10 100 -3 17 -8 50 -18 72 -21 35 -5
42 -3 57 18 33 46 6 65 -122 86 -76 12 -138 11 -200 -2z"/>
</g>
</svg>
