<?xml version="1.0" standalone="no"?>
<!DOCTYPE svg PUBLIC "-//W3C//DTD SVG 20010904//EN"
 "http://www.w3.org/TR/2001/REC-SVG-20010904/DTD/svg10.dtd">
<svg version="1.0" xmlns="http://www.w3.org/2000/svg"
 width="360.000000pt" height="360.000000pt" viewBox="0 0 360.000000 360.000000"
 preserveAspectRatio="xMidYMid meet">
<metadata>
Created by potrace 1.15, written by Peter Selinger 2001-2017
</metadata>
<g transform="translate(0.000000,360.000000) scale(0.100000,-0.100000)"
fill="#000000" stroke="none">
<path d="M1796 3074 c-9 -8 -16 -29 -16 -45 0 -32 16 -43 84 -54 l39 -6 -6
-97 c-12 -189 -48 -258 -154 -293 -133 -43 -233 -108 -233 -151 0 -37 -39 -17
-101 52 -90 100 -107 94 -68 -23 23 -69 87 -190 148 -282 38 -55 39 -60 24
-77 -28 -31 -166 -115 -315 -192 l-143 -74 -68 11 c-64 10 -69 9 -89 -11 -20
-20 -21 -24 -7 -48 15 -29 92 -84 117 -84 8 0 139 63 290 140 152 77 284 140
294 140 10 0 18 -6 17 -12 0 -22 -141 -263 -209 -360 -81 -116 -208 -244 -280
-283 -30 -16 -80 -34 -110 -40 -45 -10 -56 -15 -58 -34 -4 -22 -2 -23 65 -16
84 9 143 31 219 81 73 48 206 174 291 277 36 42 71 77 79 77 12 0 14 -49 14
-303 l0 -303 31 -42 c17 -23 36 -42 42 -42 6 0 61 33 121 74 143 94 243 149
347 188 78 29 96 31 242 36 116 3 161 1 172 -8 18 -15 19 -75 5 -221 -21 -202
-79 -387 -163 -512 -28 -42 -35 -47 -60 -43 -38 8 -123 65 -241 164 -91 76
-121 92 -121 65 0 -5 77 -90 172 -188 l171 -179 42 13 c107 32 200 185 279
461 53 185 75 301 62 323 -9 14 -9 22 0 33 28 33 -28 146 -99 202 l-37 29
-245 -43 c-135 -24 -248 -43 -251 -41 -3 1 22 110 57 242 35 132 64 255 64
272 0 23 -7 37 -22 47 -29 18 -125 36 -195 36 -39 0 -53 4 -53 14 0 8 5 18 10
21 16 10 12 41 -9 59 -18 16 -21 14 -66 -49 -107 -151 -206 -248 -234 -230
-14 8 -14 42 -1 50 5 3 28 44 51 90 81 167 172 271 257 294 32 9 38 7 95 -39
40 -32 84 -57 126 -70 120 -39 266 -125 335 -199 17 -17 37 -31 46 -31 19 0
50 30 50 48 0 7 -33 45 -72 86 -56 56 -93 83 -158 115 -85 41 -202 71 -281 71
-35 0 -39 3 -39 24 0 23 14 29 214 96 l214 71 85 -12 c124 -17 142 -5 85 56
-65 69 -77 69 -303 9 -110 -30 -213 -54 -230 -53 -29 0 -28 2 47 74 43 40 113
97 155 125 43 29 80 53 81 55 2 2 -1 19 -7 37 -12 37 -67 95 -118 123 -31 18
-33 18 -167 -15 -74 -19 -138 -31 -143 -27 -4 4 -2 17 5 27 7 12 12 60 12 126
0 122 -11 146 -84 189 -49 29 -78 32 -100 9z m414 -432 c0 -4 -72 -79 -159
-166 -176 -176 -199 -188 -177 -94 43 179 136 259 309 267 15 0 27 -2 27 -7z
m-434 -259 c-16 -134 -122 -263 -174 -211 -8 8 -8 15 -1 24 7 8 6 33 -2 78
-13 76 -10 88 26 112 20 13 116 46 154 53 2 1 1 -25 -3 -56z m262 -555 c24
-24 12 -153 -30 -310 -14 -54 -25 -78 -35 -78 -12 0 -14 7 -9 28 4 15 9 61 13
102 6 90 -6 107 -86 117 -28 3 -51 9 -51 12 0 20 155 141 180 141 3 0 11 -5
18 -12z m-218 -152 c0 -8 -5 -18 -10 -21 -6 -4 5 -26 25 -52 19 -25 35 -49 35
-54 0 -14 -51 -169 -70 -214 -21 -49 -53 -85 -75 -85 -13 0 -15 30 -15 210 0
209 0 211 23 220 36 14 87 12 87 -4z m115 -387 c10 -16 -35 -59 -62 -59 -29 0
-29 5 0 40 23 30 51 38 62 19z"/>
<path d="M1980 1014 c-130 -30 -430 -116 -655 -188 l-170 -55 -61 34 -62 33
-21 -22 -21 -22 30 -47 c29 -47 81 -87 111 -87 9 0 112 30 230 66 453 139 807
234 869 234 35 0 40 21 14 58 -13 19 -24 22 -87 21 -40 0 -119 -11 -177 -25z"/>
</g>
</svg>
