<?xml version="1.0" standalone="no"?>
<!DOCTYPE svg PUBLIC "-//W3C//DTD SVG 20010904//EN"
 "http://www.w3.org/TR/2001/REC-SVG-20010904/DTD/svg10.dtd">
<svg version="1.0" xmlns="http://www.w3.org/2000/svg"
 width="360.000000pt" height="360.000000pt" viewBox="0 0 360.000000 360.000000"
 preserveAspectRatio="xMidYMid meet">
<metadata>
Created by potrace 1.15, written by Peter Selinger 2001-2017
</metadata>
<g transform="translate(0.000000,360.000000) scale(0.100000,-0.100000)"
fill="#000000" stroke="none">
<path d="M2036 2902 c-2 -4 1 -27 7 -50 33 -123 -84 -335 -248 -447 -33 -23
-55 -46 -55 -57 0 -10 15 -39 34 -65 52 -73 91 -248 61 -273 -10 -8 -10 -24 1
-73 22 -104 17 -357 -10 -532 -18 -110 -21 -152 -13 -157 7 -4 21 -13 31 -21
18 -13 26 -8 105 60 219 189 434 292 653 311 108 9 162 2 193 -28 25 -23 25
-26 25 -179 0 -256 -37 -430 -127 -603 -53 -100 -126 -198 -149 -198 -9 0 -84
53 -167 118 -187 146 -177 140 -177 104 0 -23 25 -55 131 -166 149 -155 202
-196 251 -196 30 1 38 8 93 87 33 47 72 95 87 106 68 50 132 299 203 796 16
111 16 115 -3 140 -26 35 -73 66 -137 90 -49 18 -62 19 -144 9 -64 -8 -101 -8
-125 -1 -24 8 -38 7 -45 0 -8 -8 -11 -8 -11 0 0 7 -32 3 -90 -12 -49 -12 -91
-21 -93 -18 -3 2 0 20 6 39 8 26 8 40 0 53 -9 14 7 94 68 357 44 186 81 345
84 352 8 21 -64 91 -106 103 -53 16 -142 -7 -275 -72 -101 -49 -124 -57 -124
-40 0 4 50 89 110 186 61 98 110 187 110 198 0 10 -15 34 -34 53 -27 27 -42
34 -74 34 -23 0 -43 -3 -46 -8z m274 -464 c0 -25 -89 -676 -95 -694 -6 -19
-105 5 -105 25 0 9 14 72 30 141 l29 125 -49 48 c-46 45 -51 47 -104 47 l-56
0 0 99 0 99 103 51 c94 46 186 79 230 80 11 1 17 -6 17 -21z m-297 -429 c34
-9 37 -13 37 -46 0 -81 -64 -260 -97 -271 -18 -5 -18 299 -1 316 14 14 14 14
61 1z m106 -349 c15 -69 14 -80 -9 -118 -22 -35 -103 -92 -132 -92 -16 0 -18
5 -12 38 10 54 50 169 68 197 11 17 26 25 45 25 27 0 30 -4 40 -50z"/>
<path d="M1052 2636 c-23 -30 -42 -57 -42 -61 0 -4 16 3 36 15 l35 22 25 -23
c30 -29 30 -37 -5 -140 -74 -219 -188 -472 -273 -606 -39 -62 -40 -65 -23 -83
10 -11 24 -20 32 -20 7 0 54 63 104 140 50 77 96 140 103 140 6 0 29 -9 51
-21 l40 -21 170 66 c94 36 183 66 197 66 24 0 26 -4 37 -78 9 -58 9 -92 0
-131 -8 -39 -8 -64 0 -98 9 -34 9 -59 1 -100 -9 -41 -9 -57 0 -68 13 -16 -25
-227 -85 -466 -48 -193 -66 -243 -89 -247 -13 -3 -58 36 -152 129 l-134 134 0
-36 c0 -50 86 -185 175 -276 67 -67 75 -73 114 -73 36 0 44 4 61 33 11 17 29
60 41 94 11 35 23 63 26 63 2 0 24 -14 48 -30 83 -57 212 -36 423 69 77 38
127 55 242 80 169 36 268 65 295 85 19 14 19 15 2 34 -21 23 -88 42 -150 42
-99 0 -304 -70 -547 -186 l-154 -75 -53 11 c-51 11 -53 13 -53 43 0 18 13 111
29 207 39 235 61 434 71 653 9 207 4 230 -53 265 -56 36 -95 29 -302 -52
l-190 -74 -29 28 -28 28 40 68 c98 170 172 338 172 394 0 54 -68 110 -132 110
-28 0 -40 -8 -76 -54z"/>
<path d="M1063 1730 c-61 -27 -125 -73 -219 -157 l-82 -73 -7 28 c-10 42 -24
52 -69 52 -60 0 -68 -13 -41 -63 33 -60 45 -140 45 -303 0 -140 0 -142 25
-158 61 -40 76 -12 85 166 7 126 10 144 38 201 17 34 46 76 64 94 38 36 145
103 166 103 23 0 6 -56 -58 -186 -33 -66 -60 -124 -60 -130 0 -9 73 -64 85
-64 4 0 74 53 156 117 l150 116 -33 34 c-37 39 -83 45 -93 13 -9 -27 -23 -25
-30 3 -4 16 6 45 36 96 l41 72 -28 30 c-24 25 -35 29 -78 29 -29 0 -70 -9 -93
-20z"/>
</g>
</svg>
