<?xml version="1.0" standalone="no"?>
<!DOCTYPE svg PUBLIC "-//W3C//DTD SVG 20010904//EN"
 "http://www.w3.org/TR/2001/REC-SVG-20010904/DTD/svg10.dtd">
<svg version="1.0" xmlns="http://www.w3.org/2000/svg"
 width="360.000000pt" height="360.000000pt" viewBox="0 0 360.000000 360.000000"
 preserveAspectRatio="xMidYMid meet">
<metadata>
Created by potrace 1.15, written by Peter Selinger 2001-2017
</metadata>
<g transform="translate(0.000000,360.000000) scale(0.100000,-0.100000)"
fill="#000000" stroke="none">
<path d="M1317 3048 c-48 -17 -58 -24 -55 -41 2 -17 16 -24 69 -37 68 -16 105
-35 150 -77 l26 -24 26 21 c21 17 27 30 27 59 0 46 -15 61 -93 96 -68 29 -74
30 -150 3z"/>
<path d="M2297 3022 c-15 -15 -27 -31 -27 -35 0 -11 75 -8 87 4 8 8 18 3 37
-18 30 -32 46 -80 46 -140 0 -24 4 -43 8 -43 4 0 25 17 45 38 35 36 37 41 37
103 0 58 -3 68 -28 92 -25 24 -35 27 -103 27 -69 0 -77 -2 -102 -28z"/>
<path d="M1985 2941 c-3 -6 0 -50 6 -98 28 -207 -56 -379 -226 -462 -63 -31
-85 -33 -85 -8 0 24 -60 85 -90 92 -25 6 -45 -4 -146 -74 -65 -45 -123 -81
-131 -81 -23 0 -14 33 23 90 40 61 221 243 302 305 36 27 52 46 52 62 0 20 -5
23 -41 23 -31 0 -65 -12 -128 -47 -147 -80 -349 -202 -529 -320 -95 -62 -182
-113 -192 -113 -17 0 -131 24 -172 36 -27 8 -22 -17 13 -59 35 -42 68 -62 120
-72 49 -9 115 25 332 171 103 70 174 111 179 106 6 -6 -28 -65 -85 -149 -104
-153 -168 -276 -192 -367 -14 -58 -14 -60 7 -83 38 -41 57 -31 147 83 46 57
88 103 95 102 6 -2 21 -25 34 -50 l23 -47 -137 -163 c-76 -90 -144 -171 -152
-180 -25 -30 6 -62 95 -96 82 -31 229 -69 238 -61 2 3 9 50 15 105 16 148 40
292 60 350 37 108 343 394 421 394 47 0 -45 -204 -122 -274 -28 -25 -55 -46
-60 -46 -13 0 -11 -74 1 -86 8 -8 -22 -47 -95 -127 -58 -65 -105 -120 -105
-124 1 -5 23 -39 50 -78 27 -38 46 -71 41 -73 -4 -1 -3 -23 2 -47 8 -34 7 -51
-3 -70 -11 -20 -11 -27 0 -40 10 -12 10 -25 1 -59 -19 -75 -14 -191 10 -237
19 -39 19 -42 3 -60 -18 -20 -183 -107 -302 -158 l-72 -32 -67 20 c-62 19 -67
19 -79 3 -8 -9 -12 -19 -11 -22 1 -3 27 -29 58 -58 40 -37 64 -52 84 -52 15 0
69 22 119 49 179 96 419 189 630 242 105 27 124 29 164 19 24 -6 45 -10 46 -8
28 50 28 56 10 82 -11 14 -27 28 -36 31 -9 3 -98 -12 -197 -35 -100 -22 -196
-40 -213 -40 l-33 1 68 65 c93 89 209 173 285 207 141 64 408 35 452 -48 12
-22 11 -42 -4 -138 -62 -390 -126 -587 -192 -587 -35 0 -72 27 -188 139 -77
74 -101 92 -104 78 -10 -46 104 -199 226 -304 79 -69 109 -71 153 -10 95 131
186 411 239 736 19 122 20 135 5 157 -29 45 -144 86 -319 114 -68 11 -84 11
-125 -3 -43 -15 -149 -37 -178 -37 -7 0 -13 10 -13 23 0 34 55 253 84 333 32
89 32 94 -2 127 -25 24 -34 26 -132 29 l-105 3 -3 33 c-3 33 8 61 110 281 69
150 177 276 284 333 35 18 44 28 44 49 0 39 -18 50 -65 39 -22 -5 -55 -10 -72
-10 l-33 0 0 118 c0 117 0 119 -28 145 -29 27 -56 35 -67 18z m-425 -616 c0
-11 -95 -195 -101 -195 -3 0 -20 20 -37 44 -31 42 -31 43 -14 74 24 44 79 82
119 82 18 0 33 -2 33 -5z m359 -496 c37 -13 38 -18 11 -150 -36 -177 -91 -321
-114 -298 -4 3 -1 49 5 102 10 85 9 101 -6 142 -10 25 -22 48 -26 51 -4 2 -36
-7 -70 -21 -34 -14 -64 -25 -66 -25 -2 0 -3 16 -3 35 0 30 6 40 45 68 45 32
175 107 186 107 3 0 20 -5 38 -11z m-639 -116 c0 -70 -2 -79 -27 -105 -33 -35
-53 -35 -83 -2 l-24 25 22 43 c31 57 80 116 98 116 11 0 14 -17 14 -77z m442
-189 c25 -16 -28 -199 -60 -212 -31 -11 -38 21 -28 127 l10 103 35 -7 c20 -4
39 -9 43 -11z"/>
<path d="M2770 2523 c0 -26 5 -65 9 -87 6 -25 6 -45 -1 -55 -8 -13 -2 -55 22
-160 17 -78 30 -144 28 -145 -1 -2 -38 -17 -80 -34 -107 -45 -226 -72 -345
-79 l-101 -6 -61 49 -60 49 0 151 -1 150 -34 33 c-26 25 -39 31 -56 26 -19 -6
-21 -11 -15 -39 4 -17 6 -49 4 -71 -2 -22 -3 -89 -3 -150 0 -127 20 -184 82
-235 54 -44 118 -54 317 -47 227 8 337 37 450 118 44 32 55 55 35 75 -5 5 -33
84 -61 174 -56 182 -105 317 -120 325 -5 4 -9 -15 -9 -42z"/>
</g>
</svg>
