<?xml version="1.0" standalone="no"?>
<!DOCTYPE svg PUBLIC "-//W3C//DTD SVG 20010904//EN"
 "http://www.w3.org/TR/2001/REC-SVG-20010904/DTD/svg10.dtd">
<svg version="1.0" xmlns="http://www.w3.org/2000/svg"
 width="360.000000pt" height="360.000000pt" viewBox="0 0 360.000000 360.000000"
 preserveAspectRatio="xMidYMid meet">
<metadata>
Created by potrace 1.15, written by Peter Selinger 2001-2017
</metadata>
<g transform="translate(0.000000,360.000000) scale(0.100000,-0.100000)"
fill="#000000" stroke="none">
<path d="M1995 2640 c-294 -54 -713 -162 -723 -188 -8 -21 42 -59 105 -79 l52
-16 118 51 c65 29 123 52 129 52 12 0 58 -93 53 -107 -8 -19 -157 -153 -170
-153 -8 0 -29 9 -47 20 -18 11 -43 20 -56 20 l-24 0 32 -85 c31 -85 31 -85 61
-79 41 8 112 44 132 66 9 10 24 18 35 18 15 0 18 -8 18 -59 l0 -58 -121 -132
c-101 -110 -125 -131 -149 -131 -40 0 -47 16 -75 178 -45 258 -100 403 -162
428 -47 20 -63 10 -63 -42 0 -30 6 -50 19 -63 13 -13 27 -61 45 -155 45 -230
96 -383 141 -426 22 -20 32 -22 94 -18 48 4 88 14 124 32 30 14 68 26 85 26
31 0 32 -1 32 -43 0 -39 -5 -48 -57 -99 -42 -41 -86 -70 -160 -106 -56 -28
-108 -52 -115 -55 -26 -9 8 -38 86 -72 97 -42 118 -60 114 -97 -3 -26 -11 -32
-86 -62 -45 -19 -92 -42 -102 -51 -24 -21 -27 -87 -6 -104 37 -31 236 51 394
163 l94 66 138 10 c79 5 153 15 174 24 31 13 36 19 36 49 0 70 -44 80 -205 47
-111 -23 -125 -24 -125 -10 0 6 40 53 89 105 48 52 102 115 120 141 32 49 40
101 19 122 -20 20 -85 13 -175 -18 -46 -17 -91 -30 -99 -30 -19 0 -20 133 -1
147 6 5 41 15 77 22 157 31 153 27 272 206 104 155 201 332 212 386 12 58
-124 165 -221 174 -26 3 -97 -4 -158 -15z m211 -111 l33 -20 -20 -57 c-37
-103 -137 -296 -183 -354 -25 -31 -66 -69 -91 -83 -53 -32 -125 -45 -125 -24
0 8 47 79 105 158 92 126 105 148 105 183 0 24 -9 55 -21 74 l-21 34 -84 0
-84 0 0 34 0 34 78 17 c42 9 82 18 87 20 6 2 50 4 99 4 73 1 95 -3 122 -20z
m-286 -208 c0 -41 -48 -101 -80 -101 -28 0 -27 56 2 87 21 23 78 33 78 14z m0
-693 c-1 -24 -109 -148 -129 -148 -8 0 -11 16 -9 47 3 45 5 48 63 84 71 45 75
46 75 17z m-260 -203 l0 -55 -49 0 c-28 0 -53 5 -57 11 -7 12 74 99 93 99 9 0
13 -17 13 -55z"/>
<path d="M1892 1084 c-34 -23 -27 -43 38 -111 78 -83 97 -83 179 -7 48 44 61
63 61 85 0 27 -3 29 -37 29 -21 0 -51 -9 -68 -20 -40 -26 -53 -25 -99 10 -46
35 -45 35 -74 14z"/>
<path d="M2400 1084 c0 -9 37 -56 83 -105 l83 -89 27 -108 c33 -128 83 -236
112 -240 12 -2 31 8 43 21 21 23 22 27 11 103 -30 223 -81 301 -259 394 -86
44 -100 48 -100 24z"/>
<path d="M1390 958 c1 -85 68 -178 130 -178 22 0 39 14 85 70 49 60 56 72 44
86 -13 16 -46 15 -146 -2 -28 -5 -33 -3 -33 14 0 28 -26 52 -56 52 -22 0 -24
-4 -24 -42z"/>
<path d="M839 848 c-14 -53 1 -150 29 -188 54 -73 232 8 232 105 l0 34 -57
-20 c-31 -10 -61 -19 -68 -19 -6 0 -33 29 -59 65 -26 36 -52 65 -56 65 -5 0
-14 -19 -21 -42z"/>
</g>
</svg>
