<?xml version="1.0" standalone="no"?>
<!DOCTYPE svg PUBLIC "-//W3C//DTD SVG 20010904//EN"
 "http://www.w3.org/TR/2001/REC-SVG-20010904/DTD/svg10.dtd">
<svg version="1.0" xmlns="http://www.w3.org/2000/svg"
 width="360.000000pt" height="360.000000pt" viewBox="0 0 360.000000 360.000000"
 preserveAspectRatio="xMidYMid meet">
<metadata>
Created by potrace 1.15, written by Peter Selinger 2001-2017
</metadata>
<g transform="translate(0.000000,360.000000) scale(0.100000,-0.100000)"
fill="#000000" stroke="none">
<path d="M1826 2532 c-15 -18 -14 -22 14 -78 56 -110 80 -260 80 -499 0 -160
-7 -203 -43 -256 -28 -43 -111 -86 -182 -94 -63 -8 -71 -26 -30 -65 22 -21 30
-22 90 -16 36 4 79 9 95 13 l30 6 0 -95 c0 -298 -101 -500 -339 -676 -65 -48
-71 -56 -58 -69 20 -20 55 -8 151 48 177 106 284 283 302 499 7 76 8 80 31 80
42 0 116 -61 201 -165 251 -308 467 -485 640 -525 42 -10 59 -10 76 0 17 9 33
9 62 1 21 -6 60 -11 86 -11 39 0 50 5 68 27 11 14 19 31 17 37 -4 13 -79 51
-126 64 -20 6 -69 15 -110 21 -141 22 -302 108 -487 264 -101 84 -275 263
-369 378 l-61 74 11 60 c15 81 32 103 139 184 68 53 108 75 161 92 105 32 145
55 145 83 0 26 -28 56 -54 56 -25 0 -128 -49 -250 -119 -80 -46 -111 -60 -119
-52 -8 8 -8 17 -1 29 7 12 7 112 0 329 l-11 312 -40 41 c-44 45 -90 54 -119
22z"/>
<path d="M1353 2430 c-50 -10 -99 -34 -106 -53 -3 -7 -31 -19 -63 -26 -93 -21
-287 -81 -311 -97 -27 -17 -30 -52 -7 -61 9 -3 73 -1 143 5 104 9 128 9 140
-2 18 -19 1 -70 -45 -130 -36 -48 -66 -58 -82 -30 -8 14 -12 12 -31 -14 -11
-17 -21 -34 -21 -39 0 -11 43 -53 54 -53 4 0 30 16 59 35 28 19 58 35 66 35
20 0 6 -75 -24 -127 -32 -53 -123 -153 -141 -153 -7 0 -16 12 -19 28 -29 139
-107 293 -184 367 -29 27 -33 28 -47 13 -15 -15 -15 -22 5 -86 11 -38 31 -80
44 -93 18 -18 29 -52 46 -139 12 -63 31 -134 42 -158 17 -34 19 -48 10 -72 -7
-21 -7 -39 0 -57 9 -24 13 -25 64 -21 36 3 67 13 94 31 22 15 54 27 71 27 30
0 31 -1 24 -37 -7 -41 -24 -74 -57 -110 -16 -18 -32 -23 -71 -24 -74 0 -119
-18 -130 -52 -16 -44 9 -79 67 -96 26 -8 47 -19 47 -25 -1 -6 -15 -27 -33 -47
-18 -21 -54 -62 -80 -92 l-48 -56 56 -99 c67 -116 97 -152 129 -152 32 0 73
34 96 81 37 71 23 90 -43 58 l-45 -22 -36 22 c-20 13 -36 27 -36 33 0 35 225
205 396 299 127 70 115 82 -43 46 -64 -15 -118 -25 -120 -23 -15 15 24 65 129
168 l120 117 -22 36 c-12 19 -25 35 -28 35 -4 0 -36 -9 -72 -20 -89 -27 -90
-27 -90 23 0 49 29 85 88 110 27 11 51 42 126 165 117 190 186 325 193 380 5
39 3 45 -32 77 -77 73 -144 94 -242 75z m141 -115 c17 -13 18 -19 7 -71 -21
-108 -86 -219 -203 -348 -85 -93 -87 -67 -8 73 38 68 70 129 70 135 0 6 -32
43 -71 82 -45 46 -70 78 -66 87 7 18 145 55 207 56 25 0 54 -6 64 -14z"/>
<path d="M2360 2365 l-25 -26 25 -19 c13 -10 56 -28 95 -39 67 -20 71 -23 88
-66 29 -69 53 -95 91 -95 37 0 76 34 76 67 0 12 -23 46 -51 77 -58 64 -147
112 -224 122 -45 5 -52 3 -75 -21z"/>
<path d="M1539 1133 c-6 -16 -16 -52 -22 -80 l-11 -53 -41 0 c-24 0 -50 8 -65
20 -60 47 -82 5 -29 -55 39 -44 56 -53 114 -64 41 -8 48 -6 60 13 14 23 30 96
41 189 6 54 5 57 -15 57 -14 0 -25 -9 -32 -27z"/>
<path d="M675 779 c-93 -51 -108 -54 -192 -32 -22 5 -23 2 -23 -56 0 -56 3
-64 33 -91 17 -16 40 -30 51 -30 44 0 205 139 226 196 12 30 13 64 3 63 -5 0
-48 -23 -98 -50z"/>
</g>
</svg>
