<?xml version="1.0" standalone="no"?>
<!DOCTYPE svg PUBLIC "-//W3C//DTD SVG 20010904//EN"
 "http://www.w3.org/TR/2001/REC-SVG-20010904/DTD/svg10.dtd">
<svg version="1.0" xmlns="http://www.w3.org/2000/svg"
 width="360.000000pt" height="360.000000pt" viewBox="0 0 360.000000 360.000000"
 preserveAspectRatio="xMidYMid meet">
<metadata>
Created by potrace 1.15, written by Peter Selinger 2001-2017
</metadata>
<g transform="translate(0.000000,360.000000) scale(0.100000,-0.100000)"
fill="#000000" stroke="none">
<path d="M1785 2788 c-165 -84 -474 -224 -568 -257 -91 -32 -199 -42 -212 -21
-4 6 -15 -1 -28 -16 l-21 -27 35 -28 c31 -26 41 -28 112 -29 98 0 190 29 336
106 57 30 107 53 112 52 12 -4 -257 -383 -360 -508 -47 -56 -99 -113 -118
-127 -24 -18 -33 -33 -33 -54 0 -24 4 -29 24 -29 18 0 57 31 138 109 180 173
468 524 468 570 0 74 56 160 135 207 35 20 54 24 96 22 81 -5 82 -12 11 -189
-71 -177 -74 -192 -34 -183 79 19 147 45 166 63 l22 21 107 -21 c59 -12 107
-25 107 -30 0 -14 -80 -76 -139 -107 l-57 -31 -59 15 c-39 10 -90 15 -146 12
-83 -3 -90 -5 -212 -67 -123 -61 -141 -77 -114 -98 10 -9 147 19 349 70 25 7
30 3 54 -45 l27 -52 -6 -216 c-4 -160 -9 -228 -21 -267 -9 -29 -22 -53 -27
-53 -6 0 -22 9 -36 20 -14 11 -44 23 -65 27 -22 3 -42 12 -45 20 -3 7 20 47
51 88 46 61 55 79 47 94 -13 23 -32 31 -79 31 -65 0 -65 11 -2 80 33 36 59 72
60 81 0 9 -9 24 -20 34 -19 17 -24 17 -133 -14 -136 -37 -144 -37 -152 -8 -11
35 -76 97 -102 97 -30 0 -31 -39 -2 -87 19 -31 21 -43 15 -161 -7 -157 -7
-142 0 -287 l6 -120 45 -47 46 -46 -69 -51 c-70 -52 -197 -102 -213 -85 -5 5
-5 41 0 79 4 39 8 98 8 133 1 54 -3 68 -26 98 -20 23 -36 34 -55 34 -37 0 -44
-17 -18 -45 22 -24 22 -24 10 -190 -13 -185 -12 -189 51 -215 27 -12 39 -8
154 45 140 65 161 66 151 7 -16 -93 -11 -87 -99 -120 -107 -41 -176 -85 -190
-122 -9 -23 -16 -28 -33 -24 -12 3 -53 -4 -91 -15 -39 -12 -89 -21 -112 -21
-35 0 -42 -3 -39 -17 2 -10 19 -28 38 -41 30 -20 43 -23 85 -17 28 3 60 9 73
12 20 5 22 2 22 -37 0 -56 -50 -149 -118 -218 -50 -52 -52 -56 -36 -73 16 -18
17 -18 46 2 40 29 131 144 160 204 41 81 62 155 49 168 -6 6 -11 19 -11 29 0
24 130 88 177 88 59 0 63 -13 63 -199 0 -132 3 -171 14 -180 11 -9 17 -8 29 4
28 27 35 77 41 275 3 107 9 254 12 325 l6 130 -31 18 c-17 10 -31 24 -31 31 0
42 82 94 215 137 l69 22 58 -63 c32 -35 57 -68 55 -74 -2 -6 -20 -15 -39 -20
-30 -7 -41 -5 -66 13 -38 27 -56 26 -100 -1 -33 -20 -34 -22 -16 -35 11 -8 25
-18 32 -22 19 -11 40 -639 25 -707 -9 -40 -8 -51 9 -80 11 -19 24 -34 29 -34
16 0 36 59 58 166 18 84 19 107 9 154 -14 72 -4 122 34 165 35 41 113 68 180
63 l43 -3 12 -90 c17 -116 48 -239 73 -287 25 -48 25 -58 0 -58 -16 0 -20 -7
-20 -30 0 -17 5 -30 13 -30 6 0 89 -7 184 -17 l172 -16 20 24 c57 68 -4 124
-184 170 -107 28 -131 62 -155 224 -5 39 -10 98 -10 133 l0 62 111 0 c97 0
115 3 141 21 l30 22 -29 18 c-61 41 -233 20 -456 -55 l-128 -43 -19 27 c-30
41 -28 129 3 158 27 25 87 48 154 58 62 9 93 25 131 69 54 61 106 186 136 328
13 62 12 66 -8 91 -21 25 -81 56 -111 56 -21 0 -19 -24 5 -45 37 -33 17 -188
-37 -287 -34 -63 -104 -128 -138 -128 -31 0 -30 -7 -10 247 25 302 53 468 89
519 11 15 31 23 65 28 32 4 55 13 63 25 9 12 30 20 66 23 70 7 92 28 92 88 0
35 -5 51 -22 67 -33 30 -91 57 -186 87 -90 28 -128 32 -181 16 -19 -5 -36 -8
-38 -6 -2 2 17 43 42 92 55 106 66 156 40 184 -16 17 -31 20 -109 19 -89 0
-93 -1 -191 -51z m-149 -889 c3 -6 -8 -25 -25 -42 l-31 -32 0 36 c0 20 3 39 7
42 10 11 41 8 49 -4z m54 -178 c0 -37 -20 -71 -52 -91 -18 -11 -39 -20 -45
-20 -25 0 -13 52 20 90 36 42 77 53 77 21z"/>
</g>
</svg>
