<?xml version="1.0" standalone="no"?>
<!DOCTYPE svg PUBLIC "-//W3C//DTD SVG 20010904//EN"
 "http://www.w3.org/TR/2001/REC-SVG-20010904/DTD/svg10.dtd">
<svg version="1.0" xmlns="http://www.w3.org/2000/svg"
 width="360.000000pt" height="360.000000pt" viewBox="0 0 360.000000 360.000000"
 preserveAspectRatio="xMidYMid meet">
<metadata>
Created by potrace 1.15, written by Peter Selinger 2001-2017
</metadata>
<g transform="translate(0.000000,360.000000) scale(0.100000,-0.100000)"
fill="#000000" stroke="none">
<path d="M1260 2956 c0 -15 10 -45 21 -68 16 -32 20 -53 16 -89 -15 -127 -99
-193 -271 -214 -31 -4 -56 -9 -56 -12 0 -2 27 -29 60 -60 34 -31 73 -77 88
-102 27 -46 27 -47 30 -277 l3 -232 30 -28 29 -28 33 25 c133 99 243 152 305
147 31 -3 12 -15 -198 -135 -153 -88 -242 -133 -262 -133 -16 0 -46 11 -66 25
-41 28 -92 34 -92 11 0 -8 43 -106 96 -218 76 -162 94 -206 85 -220 -22 -36
15 -64 92 -70 35 -2 47 5 162 105 133 115 156 125 218 92 27 -14 28 -13 51 23
13 20 76 117 140 216 113 175 127 206 106 245 -11 21 -87 56 -143 66 -21 4
-40 13 -43 19 -2 6 15 160 39 341 l43 330 -64 44 -64 43 -75 -11 c-129 -19
-122 -23 -125 67 l-3 77 -35 17 c-19 10 -61 20 -92 24 -58 7 -58 7 -58 -20z
m377 -305 c11 -38 10 -69 -8 -210 -11 -91 -19 -181 -17 -200 3 -35 2 -36 -147
-133 -116 -76 -157 -97 -180 -95 -29 2 -30 4 -33 58 l-3 55 78 18 c143 34 253
89 253 128 0 7 -10 26 -23 42 -23 28 -23 28 -81 16 -32 -6 -60 -9 -63 -6 -3 3
27 46 66 95 39 50 71 94 71 99 0 5 -8 16 -19 26 -17 16 -26 14 -160 -38 l-141
-54 0 44 c0 55 25 84 108 122 76 35 231 82 262 79 19 -2 27 -11 37 -46z m-297
-281 c0 -31 -26 -75 -54 -94 -36 -23 -38 -21 -34 26 2 35 9 46 37 65 42 28 51
29 51 3z m394 -492 c-16 -91 -128 -258 -174 -258 -25 0 -25 20 0 70 11 22 20
48 20 60 0 31 -34 58 -84 65 -39 6 -46 11 -46 29 0 33 100 64 207 65 l83 1 -6
-32z m-374 -140 c0 -33 -39 -77 -96 -109 -45 -26 -54 -36 -54 -58 0 -31 16
-51 42 -51 25 0 22 -12 -10 -43 -35 -34 -42 -34 -74 1 -33 34 -48 72 -48 122
0 46 24 69 142 136 76 43 98 44 98 2z"/>
<path d="M2296 2394 c-134 -68 -192 -92 -199 -85 -6 6 -21 11 -34 11 -36 0
-28 -31 21 -79 l45 -44 61 13 c33 7 63 10 66 7 21 -20 -43 -140 -171 -322 -69
-98 -79 -118 -90 -180 -17 -90 -27 -115 -65 -158 -31 -36 -101 -67 -149 -67
-48 0 -154 -36 -160 -54 -6 -14 -248 -136 -272 -136 -4 0 -9 7 -11 15 -2 12
-25 0 -87 -46 -56 -41 -163 -100 -325 -178 -316 -153 -302 -148 -326 -126 -21
19 -47 14 -57 -11 -3 -9 7 -42 22 -75 35 -72 42 -73 151 -21 79 39 323 181
401 234 23 15 49 28 59 28 28 0 10 -83 -38 -178 l-42 -82 21 -22 c13 -12 28
-18 38 -15 20 8 70 114 86 182 24 104 39 133 98 188 58 53 198 131 259 143 27
6 30 4 40 -37 8 -32 8 -103 0 -263 -12 -210 -11 -219 7 -232 10 -8 29 -14 42
-14 23 0 23 1 23 138 0 243 24 446 55 472 10 8 41 8 113 -1 l99 -13 173 97
c95 54 174 96 175 95 1 -2 7 -243 13 -535 l11 -533 32 -45 c32 -44 33 -45 51
-27 40 40 45 127 32 597 -7 242 -13 483 -13 535 l-1 95 73 47 c64 42 96 53
302 109 127 34 234 66 240 71 6 5 -4 22 -26 44 l-36 35 -270 -75 c-148 -42
-277 -76 -286 -76 -14 0 -17 11 -17 60 0 36 -13 105 -32 175 l-31 115 76 99
c67 87 77 105 77 141 0 41 -14 81 -28 79 -4 0 -92 -43 -196 -95z m3 -515 c6
-63 14 -125 17 -136 5 -17 -5 -26 -55 -53 -34 -18 -86 -55 -117 -81 -55 -49
-90 -61 -100 -36 -7 18 37 134 78 206 53 94 151 233 158 224 4 -4 12 -60 19
-124z"/>
</g>
</svg>
